<?xml version="1.0" encoding="utf-8"?>
<!-- Generator: Adobe Illustrator 24.2.3, SVG Export Plug-In . SVG Version: 6.00 Build 0)  -->
<svg version="1.1" id="Layer_1" xmlns="http://www.w3.org/2000/svg" xmlns:xlink="http://www.w3.org/1999/xlink" x="0px" y="0px"
	 viewBox="0 0 16 16" style="enable-background:new 0 0 16 16;" xml:space="preserve">
<style type="text/css">
	.st0{fill:#FFFFFF;}
</style>
<g id="g5360">
	<g id="g4167" transform="matrix(5.9026317,0,0,5.9026317,521.39665,-711.31763)">
		<path id="path4156" class="st0" d="M-87,120.9c0,0-0.8,0-1.1,0.1c-0.1,0-0.2,0.1-0.2,0.2c-0.1,0.2-0.1,0.7-0.1,0.7s0,0.4,0.1,0.7
			c0,0.1,0.1,0.2,0.2,0.2c0.2,0.1,1.1,0.1,1.1,0.1s0.8,0,1.1-0.1c0.1,0,0.2-0.1,0.2-0.2c0.1-0.2,0.1-0.7,0.1-0.7s0-0.4-0.1-0.7
			c0-0.1-0.1-0.2-0.2-0.2C-86.1,120.9-87,120.9-87,120.9z M-87.2,121.5l0.7,0.4l-0.7,0.4V121.5L-87.2,121.5z"/>
	</g>
</g>
</svg>
