<?xml version="1.0" encoding="utf-8"?>
<!-- Generator: Adobe Illustrator 23.0.1, SVG Export Plug-In . SVG Version: 6.00 Build 0)  -->
<svg version="1.1" id="Layer_1" xmlns="http://www.w3.org/2000/svg" xmlns:xlink="http://www.w3.org/1999/xlink" x="0px" y="0px"
	 viewBox="0 0 140.22 52.77" style="enable-background:new 0 0 140.22 52.77;" xml:space="preserve">
<style type="text/css">
	.st0{fill:#FFFFFF;}
</style>
<g>
	<g>
		<path class="st0" d="M138.62,34.58c0,0,2.33-4.68,1.37-12.43c-1.5-0.66-6.69-2.27-6.69-2.27l-4.8,11.46l3.11,7.16L138.62,34.58z"
			/>
		<path class="st0" d="M112.24,42.1c0,0,4.3-5.47,7.71-9.36c-1.75-2.43-6.52-10.43-6.52-10.43s-10.11,2.39-11.3,2.51
			c-0.3,0.99-1.19,9.58-0.78,12.33C102.01,37.39,112.24,42.1,112.24,42.1z"/>
		<path class="st0" d="M94.52,18.83c0,0,1.5-5.87,5.6-9.84C97.7,7.25,96.89,6.8,96.89,6.8s-8.4,6.25-8.88,14.83
			C89.69,20.49,94.52,18.83,94.52,18.83z"/>
		<path class="st0" d="M97.59,47.18c0,0-7.51-3.65-9.99-14.72c1.6,2.23,6.28,5.61,7.67,7C95.51,40.88,95.42,44.85,97.59,47.18z"/>
		<path class="st0" d="M128.74,11.53c0,0,0.41-5.86-0.52-7.66c-1.31-1.06-8.15-3.64-10.55-3.86c-2.68,1.24-6.11,3.38-6.48,4.12
			c0.34,0.06,5.14,4.81,6.89,7.82C119.55,11.53,125.64,10.71,128.74,11.53z"/>
		<path class="st0" d="M125.4,49.83l0.37-3.01c0,0-6.66,1.55-11,1.21c-0.45-0.06-2.97,3.48-5.95,4.24
			C108.68,52.48,118.14,54.18,125.4,49.83z"/>
	</g>
</g>
<g>
	<polygon class="st0" points="86.8,5.69 27.19,14.67 88.16,2.59 	"/>
	<polygon class="st0" points="85,45.2 30.13,45.03 86.17,46.78 	"/>
	<polygon class="st0" points="80.15,37.6 7.02,41.75 80.79,35.88 	"/>
	<polygon class="st0" points="80.21,42.76 54.58,42.27 82.04,40.91 	"/>
	<polygon class="st0" points="79.54,31.44 47.59,33.49 79.81,29.26 	"/>
	<polygon class="st0" points="79.85,15.81 6.53,24.71 80.36,17.43 	"/>
	<polygon class="st0" points="81.17,8.97 55.3,14.04 82.86,10.51 	"/>
	<polygon class="st0" points="72.61,23.84 0,31.01 72.69,27.19 	"/>
</g>
</svg>
