<svg version="1.1" xmlns="http://www.w3.org/2000/svg" xmlns:xlink="http://www.w3.org/1999/xlink" width="103.22017" height="28.74" viewBox="0,0,103.22017,28.74"><g transform="translate(-188.38992,-165.63)"><g data-paper-data="{&quot;isPaintingLayer&quot;:true}" fill-rule="nonzero" stroke="none" stroke-width="1" stroke-linecap="butt" stroke-linejoin="miter" stroke-miterlimit="10" stroke-dasharray="" stroke-dashoffset="0" style="mix-blend-mode: normal"><path d="M287.67992,194.37h-95.36c-2.17,0 -3.93,-0.85 -3.93,-1.89v-24.96c0,-1 1.76,-1.89 3.93,-1.89h95.36c2.17,0 3.93,0.84 3.93,1.89v25c0.02,1 -1.76,1.85 -3.93,1.85z" fill="#1c1c1c" opacity="0.4"/><path d="M232.40992,177.89c0,0.37 0,0.86 0,1.74v3.27c0.09799,0.96718 -0.22644,1.92956 -0.89,2.64c-0.68264,0.51506 -1.52633,0.77029 -2.38,0.72c-0.73009,0.01861 -1.4539,-0.13918 -2.11,-0.46l0.36,-1.37c0.52227,0.2832 1.10592,0.43427 1.7,0.44c0.41919,0.0387 0.83354,-0.11328 1.12829,-0.41384c0.29475,-0.30057 0.4386,-0.71781 0.39171,-1.13616v-0.38v0c-0.37005,0.50382 -0.96528,0.79207 -1.59,0.77c-0.72007,-0.02332 -1.3976,-0.34665 -1.86865,-0.89178c-0.47105,-0.54513 -0.69271,-1.26238 -0.61135,-1.97822c-0.0748,-0.76538 0.16735,-1.52798 0.67,-2.11c0.50265,-0.58202 1.22188,-0.9326 1.99,-0.97c0.64672,-0.04401 1.26529,0.27104 1.61,0.82v0l0.06,-0.69zM230.53992,180.28c0.01587,-0.11278 0.01587,-0.22722 0,-0.34c-0.09647,-0.47312 -0.51724,-0.80974 -1,-0.8c-0.66,0 -1.2,0.6 -1.2,1.66c0,0.88 0.43,1.56 1.2,1.56c0.46487,0.01592 0.87934,-0.29078 1,-0.74c0.04637,-0.15559 0.06664,-0.31778 0.06,-0.48z" fill="#ffffff"/><path d="M233.82992,179.82c0,-0.86 0,-1.43 -0.05,-1.93h1.57l0.06,1.08h0.05c0.21617,-0.698 0.84978,-1.18323 1.58,-1.21c0.12978,-0.01076 0.26022,-0.01076 0.39,0v1.76c-0.16616,-0.01841 -0.33384,-0.01841 -0.5,0c-0.58574,-0.04831 -1.11641,0.34542 -1.24,0.92c-0.01579,0.13621 -0.01579,0.27379 0,0.41v3h-1.86z" fill="#ffffff"/><path d="M240.26992,176.26c0.00126,0.25778 -0.10686,0.504 -0.29752,0.6775c-0.19066,0.1735 -0.44596,0.25799 -0.70248,0.2325c-0.5081,0 -0.92,-0.4119 -0.92,-0.92c0,-0.5081 0.4119,-0.92 0.92,-0.92c0.26004,-0.02594 0.51868,0.06117 0.71005,0.23914c0.19137,0.17797 0.29698,0.42962 0.28995,0.69086zM238.38992,183.75v-5.86h1.82v5.86z" fill="#ffffff"/><path d="M245.62992,183.75v-4.52h-1.88v4.52h-1.83v-4.52h-0.77v-1.34h0.77v-0.12c-0.03678,-0.69101 0.20449,-1.368 0.67,-1.88c0.48457,-0.45582 1.136,-0.69106 1.8,-0.65c0.26611,0.00159 0.52995,0.04894 0.78,0.14l-0.25,1.35c-0.1506,-0.05582 -0.30943,-0.08624 -0.47,-0.09c-0.54,0 -0.71,0.45 -0.71,1v0.22h1.89v-0.23c-0.04183,-0.74051 0.22625,-1.46505 0.74,-2c0.44725,-0.39119 1.02609,-0.59843 1.62,-0.58c0.33752,-0.01172 0.67483,0.02876 1,0.12l-0.07,1.4c-0.19478,-0.05695 -0.3971,-0.08393 -0.6,-0.08c-0.6,0 -0.85,0.46 -0.85,1v0.3h1.17v1.34h-1.16v4.52z" fill="#ffffff"/><path d="M249.47992,179.86c0,-0.77 0,-1.43 -0.05,-2h1.58l0.08,0.81v0c0.4454,-0.62746 1.18169,-0.98239 1.95,-0.94c1.29,0 2.44,1.11 2.44,3c0,2.14 -1.36,3.15 -2.66,3.15c-0.58987,0.03361 -1.15967,-0.21964 -1.53,-0.68v0v2.92h-1.82zM251.29992,181.23999c-0.01633,0.12614 -0.01633,0.25386 0,0.38c0.10789,0.4998 0.54869,0.85744 1.06,0.86c0.79,0 1.26,-0.66 1.26,-1.65c0,-0.99 -0.42,-1.65 -1.23,-1.65c-0.53566,0.01812 -0.98777,0.40388 -1.09,0.93c-0.01589,0.10607 -0.01589,0.21393 0,0.32z" fill="#ffffff"/><path d="M259.98992,183.75l-0.11,-0.58v0c-0.42333,0.48029 -1.04025,0.74468 -1.68,0.72c-0.49278,0.02467 -0.97409,-0.15402 -1.33138,-0.4943c-0.35729,-0.34028 -0.55924,-0.8123 -0.55862,-1.3057c0,-1.53 1.36,-2.26 3.44,-2.25v-0.08c0,-0.31 -0.17,-0.76 -1.07,-0.76c-0.56967,0.00851 -1.12756,0.16348 -1.62,0.45l-0.33,-1.18c0.70681,-0.35402 1.48972,-0.52914 2.28,-0.51c0.70077,-0.09816 1.40741,0.13461 1.91264,0.63005c0.50523,0.49544 0.75179,1.19738 0.66736,1.89995v2c-0.01058,0.4747 0.01616,0.94949 0.08,1.42zM259.76992,180.98c-1,0 -1.7,0.22 -1.7,0.93c-0.01301,0.19207 0.05978,0.38003 0.19877,0.51324c0.13899,0.1332 0.32988,0.19794 0.52123,0.17676c0.42362,-0.00169 0.80021,-0.27011 0.94,-0.67c0.01519,-0.10277 0.01519,-0.20723 0,-0.31z" fill="#ffffff"/><path d="M264.92992,176.21v1.68h1.31v1.34h-1.31v2.12c0,0.71 0.17,1 0.72,1c0.18106,-0.00187 0.36167,-0.01859 0.54,-0.05v1.38c-0.38616,0.11301 -0.78788,0.16365 -1.19,0.15c-0.50193,0.02175 -0.99169,-0.15831 -1.36,-0.5c-0.39002,-0.4915 -0.57299,-1.11572 -0.51,-1.74v-2.4h-0.78v-1.34h0.78v-1.23z" fill="#ffffff"/><path d="M271.62992,183.61c-0.52316,0.18445 -1.07542,0.27254 -1.63,0.26c-0.82745,0.08059 -1.64866,-0.20543 -2.24701,-0.78262c-0.59835,-0.57719 -0.91375,-1.38757 -0.86299,-2.21738c-0.02145,-0.87669 0.33428,-1.72045 0.9769,-2.31718c0.64263,-0.59673 1.51039,-0.88906 2.3831,-0.80282c0.47226,-0.00332 0.94185,0.07101 1.39,0.22l-0.29,1.36c-0.31675,-0.13038 -0.65766,-0.19175 -1,-0.18c-0.43437,-0.01893 -0.85582,0.1503 -1.15649,0.46437c-0.30066,0.31407 -0.45136,0.7425 -0.41351,1.17563c-0.03534,0.44043 0.12146,0.87463 0.43003,1.19088c0.30858,0.31624 0.7388,0.48364 1.17997,0.45912c0.34114,-0.0027 0.67933,-0.06358 1,-0.18z" fill="#ffffff"/><path d="M272.62992,175.23999h1.82v3.34v0c0.19933,-0.24429 0.44377,-0.44799 0.72,-0.6c0.29552,-0.14547 0.62062,-0.22075 0.95,-0.22c1.16,0 2.05,0.8 2.05,2.56v3.43h-1.82v-3.23c0,-0.77 -0.26,-1.3 -0.95,-1.3c-0.40496,0.00934 -0.76428,0.26205 -0.91,0.64c-0.04579,0.13163 -0.06615,0.27077 -0.06,0.41v3.47h-1.8z" fill="#ffffff"/><path d="M204.28992,184.16v-9.19h12.77v9.19z" fill="#ffffff"/><path d="M218.94992,172.47c0.98326,0.27992 1.74444,1.06012 2,2.05c0.34835,1.85595 0.51248,3.74178 0.49,5.63c0.0123,1.87789 -0.15175,3.75278 -0.49,5.6c-0.2543,0.99269 -1.01526,1.77648 -2,2.06c-1.83,0.48 -9.14,0.48 -9.14,0.48c0,0 -7.28,0 -9.12,-0.49c-0.99637,-0.28479 -1.77521,-1.06363 -2.06,-2.06c-0.64046,-3.71258 -0.64046,-7.50742 0,-11.22c0.27582,-1.00789 1.05621,-1.79964 2.06,-2.09c1.83,-0.47 9.12,-0.47 9.12,-0.47c0,0 7.31,0 9.14,0.51zM207.48992,176.61v7l6.07,-3.49l-6.07,-3.5z" fill="#ff0000"/></g></g></svg>