<svg version="1.1" xmlns="http://www.w3.org/2000/svg" xmlns:xlink="http://www.w3.org/1999/xlink" width="54.14978" height="61.4918"><defs><linearGradient x1="260.55269" y1="175.67305" x2="252.03315" y2="169.52204" gradientUnits="userSpaceOnUse" id="color-1"><stop offset="0" stop-color="#fff987"/><stop offset="1" stop-color="#fff300"/></linearGradient><linearGradient x1="261.85688" y1="157.58853" x2="252.15649" y2="164.15722" gradientUnits="userSpaceOnUse" id="color-2"><stop offset="0" stop-color="#fff987"/><stop offset="1" stop-color="#fff300"/></linearGradient><linearGradient x1="258.15088" y1="152.09443" x2="251.10885" y2="160.43511" gradientUnits="userSpaceOnUse" id="color-3"><stop offset="0" stop-color="#fff987"/><stop offset="1" stop-color="#fff300"/></linearGradient><linearGradient x1="223.56683" y1="182.97858" x2="230.32601" y2="174.9263" gradientUnits="userSpaceOnUse" id="color-4"><stop offset="0" stop-color="#fff987"/><stop offset="1" stop-color="#fff300"/></linearGradient><linearGradient x1="255.96585" y1="180.46692" x2="248.72233" y2="172.31193" gradientUnits="userSpaceOnUse" id="color-5"><stop offset="0" stop-color="#fff987"/><stop offset="1" stop-color="#fff300"/></linearGradient><linearGradient x1="219.35913" y1="152.79775" x2="226.61946" y2="161.02642" gradientUnits="userSpaceOnUse" id="color-6"><stop offset="0" stop-color="#fff987"/><stop offset="1" stop-color="#fff300"/></linearGradient><linearGradient x1="215.92011" y1="156.79716" x2="223.69831" y2="165.61279" gradientUnits="userSpaceOnUse" id="color-7"><stop offset="0" stop-color="#fff987"/><stop offset="1" stop-color="#fff300"/></linearGradient><linearGradient x1="249.40866" y1="184.30395" x2="243.28394" y2="175.31127" gradientUnits="userSpaceOnUse" id="color-8"><stop offset="0" stop-color="#fff987"/><stop offset="1" stop-color="#fff300"/></linearGradient><linearGradient x1="217.45152" y1="177.81149" x2="227.9708" y2="172.75344" gradientUnits="userSpaceOnUse" id="color-9"><stop offset="0" stop-color="#fff987"/><stop offset="1" stop-color="#fff300"/></linearGradient><linearGradient x1="230.66523" y1="184.69203" x2="235.45962" y2="175.34153" gradientUnits="userSpaceOnUse" id="color-10"><stop offset="0" stop-color="#fff987"/><stop offset="1" stop-color="#fff300"/></linearGradient><linearGradient x1="253.05335" y1="148.3354" x2="247.37593" y2="157.43475" gradientUnits="userSpaceOnUse" id="color-11"><stop offset="0" stop-color="#fff987"/><stop offset="1" stop-color="#fff300"/></linearGradient><linearGradient x1="224.5831" y1="149.04017" x2="230.28347" y2="159.75265" gradientUnits="userSpaceOnUse" id="color-12"><stop offset="0" stop-color="#fff987"/><stop offset="1" stop-color="#fff300"/></linearGradient><linearGradient x1="247.38487" y1="145.07523" x2="241.74877" y2="156.08352" gradientUnits="userSpaceOnUse" id="color-13"><stop offset="0" stop-color="#fff987"/><stop offset="1" stop-color="#fff300"/></linearGradient><linearGradient x1="229.85424" y1="144.89294" x2="234.40158" y2="155.63043" gradientUnits="userSpaceOnUse" id="color-14"><stop offset="0" stop-color="#fff987"/><stop offset="1" stop-color="#fff300"/></linearGradient><linearGradient x1="238.93188" y1="186.40525" x2="238.48365" y2="172.72677" gradientUnits="userSpaceOnUse" id="color-15"><stop offset="0" stop-color="#fff987"/><stop offset="1" stop-color="#fff300"/></linearGradient><linearGradient x1="213.10463" y1="168.37074" x2="226.78312" y2="167.92251" gradientUnits="userSpaceOnUse" id="color-16"><stop offset="0" stop-color="#fff987"/><stop offset="1" stop-color="#fff300"/></linearGradient><linearGradient x1="264.27967" y1="166.13024" x2="250.60118" y2="166.57848" gradientUnits="userSpaceOnUse" id="color-17"><stop offset="0" stop-color="#fff987"/><stop offset="1" stop-color="#fff300"/></linearGradient><linearGradient x1="237.95718" y1="143.4131" x2="238.4054" y2="157.09159" gradientUnits="userSpaceOnUse" id="color-18"><stop offset="0" stop-color="#fff987"/><stop offset="1" stop-color="#fff300"/></linearGradient><linearGradient x1="238.24526" y1="151.84358" x2="239.19545" y2="180.84023" gradientUnits="userSpaceOnUse" id="color-19"><stop offset="0" stop-color="#eeb054"/><stop offset="1" stop-color="#d27700"/></linearGradient></defs><g transform="translate(-211.61724,-141.92579)"><g data-paper-data="{&quot;isPaintingLayer&quot;:true}" fill="none" fill-rule="nonzero" stroke="none" stroke-width="none" stroke-linecap="none" stroke-linejoin="miter" stroke-miterlimit="10" stroke-dasharray="" stroke-dashoffset="0" font-family="none" font-weight="none" font-size="none" text-anchor="none" style="mix-blend-mode: normal"><path d="M252.66751,196.13208c-0.01856,2.47718 -10.5375,2.39838 -10.51894,-0.07881c0.01856,-2.47718 2.38834,-4.46769 5.29307,-4.44593c2.90473,0.02176 5.24442,2.04755 5.22586,4.52473z" data-paper-data="{&quot;origPos&quot;:null,&quot;origRot&quot;:0}" fill="#26c000" stroke="#000000" stroke-width="2" stroke-linecap="butt"/><path d="M244.90589,195.9038c-0.01856,2.47718 -10.5375,2.39838 -10.51894,-0.07881c0.01856,-2.47718 2.38834,-4.46769 5.29307,-4.44593c2.90472,0.02176 5.24442,2.04755 5.22586,4.52473z" data-paper-data="{&quot;origPos&quot;:null,&quot;origRot&quot;:0}" fill="#26c000" stroke="#000000" stroke-width="2" stroke-linecap="butt"/><path d="M243.2943,196.57175l-2.68059,-6.90986c0,0 -3.3079,0.94067 -4.56057,1.2211c-0.93721,0.20981 -3.32751,-3.70832 -3.32751,-3.70832c0,0 2.61046,-1.38288 3.93987,-1.17437c1.57896,0.24767 3.06472,1.55852 3.06472,1.55852c0,0 0.21121,-0.10007 0.09667,-0.67471c-0.7452,-3.7384 -0.43189,-9.87374 -0.43189,-9.87374l3.69399,-0.73635c0,0 -0.46528,6.07367 0.21723,9.49755c0.13574,0.68099 0.26293,0.92169 0.26293,0.92169c0,0 2.12777,-2.40536 3.14584,-2.8186c1.29357,-0.52505 3.8476,-0.03091 3.8476,-0.03091c0,0 -1.36852,3.71357 -2.58112,4.44305c-0.98311,0.59143 -3.7242,0.76756 -3.7242,0.76756l2.73102,6.78105z" data-paper-data="{&quot;origPos&quot;:null,&quot;origRot&quot;:0}" fill="#2fe500" stroke="#000000" stroke-width="1.5" stroke-linecap="butt"/><path d="M242.99644,196.42698c0.78957,2.63009 -10.79786,6.50376 -11.58742,3.87367c-0.78957,-2.63009 1.48961,-6.03366 4.57365,-6.95949c3.08404,-0.92583 6.2242,0.45574 7.01377,3.08583z" data-paper-data="{&quot;origPos&quot;:null,&quot;origRot&quot;:0}" fill="#2fe500" stroke="#000000" stroke-width="2" stroke-linecap="butt"/><path d="M255.65359,199.51267c-0.21612,2.6793 -12.42596,1.43678 -12.20985,-1.24252c0.21612,-2.6793 2.93819,-4.64586 6.07992,-4.39244c3.14173,0.25342 6.34606,2.95566 6.12994,5.63496z" data-paper-data="{&quot;origPos&quot;:null,&quot;origRot&quot;:0}" fill="#2fe500" stroke="#000000" stroke-width="2" stroke-linecap="butt"/><path d="M250.81701,200.8226c-0.37603,2.98698 -13.05979,1.39021 -12.68376,-1.59677c0.37603,-2.98698 3.52023,-5.05096 7.02274,-4.61003c3.50251,0.44093 6.03704,3.21981 5.661,6.2068z" data-paper-data="{&quot;origPos&quot;:null,&quot;origRot&quot;:0}" fill="#2fe500" stroke="#000000" stroke-width="2" stroke-linecap="butt"/><path d="M261.02489,175.99002c-1.819,1.38155 -5.40196,-0.0833 -7.03486,-1.25497c-1.85786,-1.33309 -3.71144,-3.35887 -1.9569,-5.21303c1.15255,-1.21799 3.88441,-0.90758 6.10173,0.69332c2.21736,1.60091 4.20753,4.77399 2.89001,5.77467z" data-paper-data="{&quot;origPos&quot;:null,&quot;origRot&quot;:0,&quot;index&quot;:null}" fill="url(#color-1)" stroke="#000000" stroke-width="1.5" stroke-linecap="butt"/><path d="M262.36627,157.21644c1.11062,2.30626 -1.6442,5.44505 -3.49487,6.70648c-2.10561,1.4352 -5.02782,2.63375 -6.71491,0.23429c-1.10823,-1.5762 0.04005,-4.23987 2.56471,-5.94947c2.52468,-1.7096 6.84062,-2.66176 7.64505,-0.9913z" data-paper-data="{&quot;origPos&quot;:null,&quot;origRot&quot;:0,&quot;index&quot;:null}" fill="url(#color-2)" stroke="#000000" stroke-width="1.5" stroke-linecap="butt"/><path d="M257.15896,157.98484c-1.83281,2.17078 -4.54153,3.26781 -6.05012,2.45027c-2.29655,-1.24458 -0.95085,-3.71182 0.58705,-5.52282c1.3517,-1.59172 4.6175,-4.03447 6.85179,-3.25744c1.61833,0.56283 0.44408,4.15919 -1.38873,6.32999z" data-paper-data="{&quot;origPos&quot;:null,&quot;origRot&quot;:0}" fill="url(#color-3)" stroke="#000000" stroke-width="1" stroke-linecap="butt"/><path d="M224.72649,176.69442c1.75919,-2.09574 4.26616,-2.88734 5.59952,-1.76812c2.02977,1.7038 0.69967,4.19639 -0.77597,5.94345c-1.29699,1.53553 -4.36888,3.71322 -6.36272,2.52935c-1.44417,-0.85751 -0.22,-4.60892 1.53918,-6.70466z" data-paper-data="{&quot;origPos&quot;:null,&quot;origRot&quot;:0}" fill="url(#color-4)" stroke="#000000" stroke-width="1.5" stroke-linecap="butt"/><path d="M256.37434,180.8958c-2.33629,0.86134 -5.7114,-1.48471 -7.10187,-3.04073c-1.582,-1.77038 -2.9565,-4.2086 -0.55015,-5.54313c1.58071,-0.87665 4.39044,0.13329 6.27569,2.25575c1.88525,2.12246 3.06855,5.70422 1.37634,6.3281z" data-paper-data="{&quot;origPos&quot;:null,&quot;origRot&quot;:0,&quot;index&quot;:null}" fill="url(#color-5)" stroke="#000000" stroke-width="1.5" stroke-linecap="butt"/><path d="M225.66513,154.97184c1.88961,2.14163 2.31688,4.85236 0.95431,6.05457c-2.07424,1.83013 -4.44016,0.06968 -6.01397,-1.72511c-1.38324,-1.57747 -3.15335,-5.08679 -1.62136,-6.96069c1.10966,-1.35729 4.7914,0.48957 6.68101,2.63121z" data-paper-data="{&quot;origPos&quot;:null,&quot;origRot&quot;:0}" fill="url(#color-6)" stroke="#000000" stroke-width="1.5" stroke-linecap="butt"/><path d="M222.67591,159.12634c2.02439,2.29442 2.48214,5.19849 1.0224,6.48645c-2.22219,1.96068 -4.75689,0.07465 -6.44295,-1.84815c-1.48192,-1.68998 -3.37828,-5.44963 -1.73702,-7.4572c1.1888,-1.4541 5.13316,0.52449 7.15756,2.81889z" data-paper-data="{&quot;origPos&quot;:null,&quot;origRot&quot;:0}" fill="url(#color-7)" stroke="#000000" stroke-width="1.5" stroke-linecap="butt"/><path d="M249.75906,184.78032c-2.53601,0.56095 -5.62323,-2.18803 -6.80043,-3.90493c-1.33938,-1.95341 -2.35855,-4.5429 0.32533,-5.56414c1.76303,-0.67084 4.48449,0.68266 6.07855,3.02315c1.59406,2.34049 2.23342,6.03961 0.39655,6.44591z" data-paper-data="{&quot;origPos&quot;:null,&quot;origRot&quot;:0,&quot;index&quot;:null}" fill="url(#color-8)" stroke="#000000" stroke-width="1.5" stroke-linecap="butt"/><path d="M221.49706,171.98316c2.73781,-1.31645 5.6362,-0.97159 6.47375,0.77027c1.275,2.65163 -1.21003,4.56571 -3.5016,5.65896c-2.01411,0.96088 -6.11759,1.76026 -7.59388,-0.34888c-1.0693,-1.52769 1.88391,-4.7639 4.62172,-6.08034z" data-paper-data="{&quot;origPos&quot;:null,&quot;origRot&quot;:0}" fill="url(#color-9)" stroke="#000000" stroke-width="1.5" stroke-linecap="butt"/><path d="M230.33916,178.73166c1.24782,-2.43361 3.54033,-3.95144 5.12045,-3.39013c2.40546,0.85447 1.67474,3.50128 0.62546,5.53297c-0.92221,1.78569 -3.44835,4.71861 -5.69649,4.31443c-1.62835,-0.29275 -1.29728,-4.02367 -0.04946,-6.45729z" data-paper-data="{&quot;origPos&quot;:null,&quot;origRot&quot;:0}" fill="url(#color-10)" stroke="#000000" stroke-width="1.5" stroke-linecap="butt"/><path d="M252.98084,154.28344c-1.47764,2.36824 -3.98704,3.77913 -5.60492,3.15131c-2.4629,-0.95573 -1.51265,-3.55884 -0.27115,-5.53562c1.09118,-1.73744 3.94395,-4.5469 6.27319,-4.04631c1.68709,0.36257 1.08052,4.06239 -0.39712,6.43063z" data-paper-data="{&quot;origPos&quot;:null,&quot;origRot&quot;:0}" fill="url(#color-11)" stroke="#000000" stroke-width="1" stroke-linecap="butt"/><path d="M230.36876,153.22952c1.4836,2.7881 1.44542,5.70859 -0.0853,6.52311c-2.33024,1.23997 -4.34239,-1.30357 -5.57618,-3.63708c-1.0844,-2.05095 -2.22193,-6.20879 -0.41322,-7.66172c1.31007,-1.05237 4.59111,1.98758 6.07472,4.77567z" data-paper-data="{&quot;origPos&quot;:null,&quot;origRot&quot;:0}" fill="url(#color-12)" stroke="#000000" stroke-width="1.5" stroke-linecap="butt"/><path d="M247.68932,152.12749c-1.46688,2.86507 -4.12655,4.63625 -5.94056,3.95602c-2.76147,-1.03551 -1.88787,-4.1581 -0.65457,-6.54993c1.08397,-2.10222 4.02977,-5.54449 6.61533,-5.04313c1.87277,0.36313 1.4467,4.77195 -0.0202,7.63704z" data-paper-data="{&quot;origPos&quot;:null,&quot;origRot&quot;:0}" fill="url(#color-13)" stroke="#000000" stroke-width="1.5" stroke-linecap="butt"/><path d="M235.4603,149.52067c1.18352,2.79461 0.70953,5.53005 -1.05871,6.10979c-2.69178,0.88255 -4.48042,-1.74632 -5.46245,-4.0843c-0.86313,-2.05491 -1.47112,-6.09291 0.69089,-7.23811c1.566,-0.82948 4.64673,2.41803 5.83026,5.21264z" data-paper-data="{&quot;origPos&quot;:null,&quot;origRot&quot;:0}" fill="url(#color-14)" stroke="#000000" stroke-width="1.5" stroke-linecap="butt"/><path d="M234.59379,179.30718c-0.11666,-3.56006 1.62489,-6.5062 3.88987,-6.58042c3.448,-0.11299 4.32542,3.4587 4.41378,6.4344c0.07766,2.6154 -1.0066,7.39583 -3.96788,7.98147c-2.14489,0.42418 -4.21911,-4.27542 -4.33577,-7.83545z" data-paper-data="{&quot;origPos&quot;:null,&quot;origRot&quot;:0}" fill="url(#color-15)" stroke="#000000" stroke-width="1.5" stroke-linecap="butt"/><path d="M220.20269,164.03263c3.56006,-0.11666 6.5062,1.62489 6.58042,3.88987c0.11299,3.448 -3.4587,4.32542 -6.4344,4.41378c-2.6154,0.07766 -7.39583,-1.0066 -7.98147,-3.96788c-0.42418,-2.14489 4.27542,-4.21911 7.83545,-4.33577z" data-paper-data="{&quot;origPos&quot;:null,&quot;origRot&quot;:0}" fill="url(#color-16)" stroke="#000000" stroke-width="1.5" stroke-linecap="butt"/><path d="M257.1775,170.34341c-3.56006,0.11666 -6.50436,-1.56897 -6.57633,-3.76496c-0.10954,-3.34298 3.46288,-4.19725 6.43859,-4.28591c2.61539,-0.07791 7.3946,0.96861 7.97726,3.83919c0.42203,2.07921 -4.27948,4.095 -7.83951,4.21166z" data-paper-data="{&quot;origPos&quot;:null,&quot;origRot&quot;:0}" fill="url(#color-17)" stroke="#000000" stroke-width="1.5" stroke-linecap="butt"/><path d="M241.73317,150.52958c0.11666,3.56006 -1.37323,6.49795 -3.32777,6.56199c-2.97541,0.0975 -3.74873,-3.47759 -3.83835,-6.45327c-0.07877,-2.61536 0.83561,-7.39024 3.38881,-7.96251c1.84931,-0.4145 3.66066,4.29371 3.77731,7.85376z" data-paper-data="{&quot;origPos&quot;:null,&quot;origRot&quot;:0}" fill="url(#color-18)" stroke="#000000" stroke-width="1.5" stroke-linecap="butt"/><path d="M238.82617,151.82454c6.68688,-0.21912 18.68884,6.98415 18.92038,13.67059c0.29721,8.58272 -10.014,14.6488 -18.57489,15.32907c-8.38908,0.66661 -19.17227,-5.4794 -19.48574,-13.8891c-0.25201,-6.76096 9.5138,-14.79512 19.14025,-15.11056z" data-paper-data="{&quot;origPos&quot;:null,&quot;origRot&quot;:0}" fill="url(#color-19)" stroke="#000000" stroke-width="2" stroke-linecap="butt"/><path d="M235.39195,162.24858c0.1253,2.58985 -1.00715,4.81839 -2.5294,4.97755c-1.52222,0.15919 -2.85783,-1.81129 -2.98312,-4.40113c-0.1253,-2.58985 1.00715,-4.81839 2.5294,-4.97755c1.52222,-0.15919 2.85781,1.81129 2.98311,4.40112z" data-paper-data="{&quot;origPos&quot;:null,&quot;origRot&quot;:0}" fill="#000000" stroke="none" stroke-width="0" stroke-linecap="butt"/><path d="M247.70795,161.95633c0.1253,2.58985 -1.00715,4.81839 -2.5294,4.97755c-1.52222,0.15919 -2.85783,-1.81129 -2.98312,-4.40113c-0.1253,-2.58985 1.00715,-4.81839 2.5294,-4.97755c1.52222,-0.15919 2.85781,1.81129 2.98311,4.40112z" data-paper-data="{&quot;origPos&quot;:null,&quot;origRot&quot;:0}" fill="#000000" stroke="none" stroke-width="0" stroke-linecap="butt"/><path d="M251.65486,170.43485c0,0 -7.64424,3.71143 -12.86608,3.61589c-5.1502,-0.09423 -12.11722,-2.79721 -12.11722,-2.79721" data-paper-data="{&quot;origPos&quot;:null,&quot;origRot&quot;:0}" fill="none" stroke="#000000" stroke-width="1.5" stroke-linecap="round"/><path d="M233.174,161.00889c0.05082,1.05011 -0.40837,1.95373 -1.0256,2.01826c-0.61723,0.06454 -1.15877,-0.73443 -1.20957,-1.78453c-0.05082,-1.05011 0.40837,-1.95373 1.0256,-2.01826c0.61723,-0.06454 1.15877,0.73443 1.20957,1.78453z" data-paper-data="{&quot;origPos&quot;:null,&quot;origRot&quot;:0}" fill="#ffffff" stroke="none" stroke-width="0" stroke-linecap="butt"/><path d="M245.28405,160.71165c0.05082,1.05011 -0.40837,1.95373 -1.0256,2.01826c-0.61723,0.06454 -1.15877,-0.73443 -1.20957,-1.78453c-0.05082,-1.05011 0.40837,-1.95373 1.0256,-2.01826c0.61723,-0.06454 1.15877,0.73443 1.20957,1.78453z" data-paper-data="{&quot;origPos&quot;:null,&quot;origRot&quot;:0}" fill="#ffffff" stroke="none" stroke-width="0" stroke-linecap="butt"/></g></g></svg>