<svg version="1.1" xmlns="http://www.w3.org/2000/svg" xmlns:xlink="http://www.w3.org/1999/xlink" width="59.02307" height="32.96218" viewBox="0,0,59.02307,32.96218"><g transform="translate(-213.48248,-192.30188)"><g data-paper-data="{&quot;isPaintingLayer&quot;:true}" fill="none" fill-rule="nonzero" stroke="none" stroke-width="none" stroke-linecap="butt" stroke-linejoin="miter" stroke-miterlimit="10" stroke-dasharray="" stroke-dashoffset="0" font-family="none" font-weight="none" font-size="none" text-anchor="none" style="mix-blend-mode: normal"><path d="M231.48108,200.8216l19.98952,-0.64696l0.62755,19.38984l-19.98952,0.64696z" data-paper-data="{&quot;origPos&quot;:null,&quot;origRot&quot;:0}" fill="#c07a00" stroke="#000000" stroke-width="2"/><path d="M260.13791,222.53097c-6.51153,0.21073 -11.97936,-5.46364 -12.21271,-12.67406c-0.23337,-7.21043 4.8561,-13.2265 11.36764,-13.43725c6.51153,-0.21073 11.97936,5.46364 12.21271,12.67406c0.23337,7.21043 -4.8561,13.2265 -11.36764,13.43725z" data-paper-data="{&quot;origPos&quot;:null,&quot;origRot&quot;:0}" fill="#b2b2b2" stroke="#000000" stroke-width="2"/><path d="M263.39159,208.79353c-1.65598,0.05359 -3.03372,-0.99368 -3.07726,-2.33918c-0.04355,-1.34548 1.26362,-2.47967 2.91957,-2.53327c1.65598,-0.05359 3.03372,0.99368 3.07726,2.33918c0.04355,1.34548 -1.26362,2.47967 -2.91957,2.53327z" data-paper-data="{&quot;origPos&quot;:null,&quot;origRot&quot;:0}" fill="#ff0000" stroke="none" stroke-width="0"/><path d="M263.05685,202.70116c-1.48351,0.048 -2.71687,-0.86395 -2.75483,-2.03696c-0.03798,-1.173 1.13385,-2.16281 2.61735,-2.21085c1.48351,-0.048 2.71687,0.86395 2.75483,2.03696c0.03798,1.173 -1.13385,2.16281 -2.61735,2.21085z" data-paper-data="{&quot;origPos&quot;:null,&quot;origRot&quot;:0}" fill="#ff0000" stroke="none" stroke-width="0"/><path d="M220.38528,193.71549l12.65784,11.93899l-5.48919,5.8197l-12.65784,-11.93899z" data-paper-data="{&quot;origPos&quot;:null,&quot;origRot&quot;:0}" fill="#4c517f" stroke="#000000" stroke-width="2"/><path d="M219.64251,204.88404l14.93354,9.31394l-4.2336,6.78797l-14.93354,-9.31394z" data-paper-data="{&quot;origPos&quot;:null,&quot;origRot&quot;:0}" fill="#4c517f" stroke="#000000" stroke-width="2"/><path d="M263.73698,216.0717l-2.81219,7.91528l-18.28051,-6.49485l2.81219,-7.91528z" data-paper-data="{&quot;origPos&quot;:null,&quot;origRot&quot;:0}" fill="#c07a00" stroke="#000000" stroke-width="2"/></g></g></svg>