<svg version="1.1" xmlns="http://www.w3.org/2000/svg" xmlns:xlink="http://www.w3.org/1999/xlink" width="54.16763" height="63.87742"><defs><linearGradient x1="263.16807" y1="173.63033" x2="254.70364" y2="167.40369" gradientUnits="userSpaceOnUse" id="color-1"><stop offset="0" stop-color="#fff987"/><stop offset="1" stop-color="#fff300"/></linearGradient><linearGradient x1="264.63326" y1="155.55814" x2="254.87476" y2="162.04019" gradientUnits="userSpaceOnUse" id="color-2"><stop offset="0" stop-color="#fff987"/><stop offset="1" stop-color="#fff300"/></linearGradient><linearGradient x1="260.97633" y1="150.03125" x2="253.86031" y2="158.30889" gradientUnits="userSpaceOnUse" id="color-3"><stop offset="0" stop-color="#fff987"/><stop offset="1" stop-color="#fff300"/></linearGradient><linearGradient x1="226.11863" y1="180.60619" x2="232.94924" y2="172.61442" gradientUnits="userSpaceOnUse" id="color-4"><stop offset="0" stop-color="#fff987"/><stop offset="1" stop-color="#fff300"/></linearGradient><linearGradient x1="258.53873" y1="178.38316" x2="251.36811" y2="170.16399" gradientUnits="userSpaceOnUse" id="color-5"><stop offset="0" stop-color="#fff987"/><stop offset="1" stop-color="#fff300"/></linearGradient><linearGradient x1="222.17986" y1="150.38908" x2="229.36662" y2="158.68209" gradientUnits="userSpaceOnUse" id="color-6"><stop offset="0" stop-color="#fff987"/><stop offset="1" stop-color="#fff300"/></linearGradient><linearGradient x1="218.70536" y1="154.35772" x2="226.40474" y2="163.24226" gradientUnits="userSpaceOnUse" id="color-7"><stop offset="0" stop-color="#fff987"/><stop offset="1" stop-color="#fff300"/></linearGradient><linearGradient x1="251.94763" y1="182.16164" x2="245.90323" y2="173.11477" gradientUnits="userSpaceOnUse" id="color-8"><stop offset="0" stop-color="#fff987"/><stop offset="1" stop-color="#fff300"/></linearGradient><linearGradient x1="220.04957" y1="175.38485" x2="230.61347" y2="170.42067" gradientUnits="userSpaceOnUse" id="color-9"><stop offset="0" stop-color="#fff987"/><stop offset="1" stop-color="#fff300"/></linearGradient><linearGradient x1="233.20148" y1="182.38279" x2="238.07895" y2="173.07536" gradientUnits="userSpaceOnUse" id="color-10"><stop offset="0" stop-color="#fff987"/><stop offset="1" stop-color="#fff300"/></linearGradient><linearGradient x1="255.91249" y1="146.22698" x2="250.15425" y2="155.2754" gradientUnits="userSpaceOnUse" id="color-11"><stop offset="0" stop-color="#fff987"/><stop offset="1" stop-color="#fff300"/></linearGradient><linearGradient x1="227.43709" y1="146.67818" x2="233.04183" y2="157.441" gradientUnits="userSpaceOnUse" id="color-12"><stop offset="0" stop-color="#fff987"/><stop offset="1" stop-color="#fff300"/></linearGradient><linearGradient x1="250.27326" y1="142.91646" x2="244.53936" y2="153.87411" gradientUnits="userSpaceOnUse" id="color-13"><stop offset="0" stop-color="#fff987"/><stop offset="1" stop-color="#fff300"/></linearGradient><linearGradient x1="232.74495" y1="142.57806" x2="237.19649" y2="153.35562" gradientUnits="userSpaceOnUse" id="color-14"><stop offset="0" stop-color="#fff987"/><stop offset="1" stop-color="#fff300"/></linearGradient><linearGradient x1="241.45255" y1="184.16956" x2="241.12615" y2="170.48763" gradientUnits="userSpaceOnUse" id="color-15"><stop offset="0" stop-color="#fff987"/><stop offset="1" stop-color="#fff300"/></linearGradient><linearGradient x1="215.78692" y1="165.90576" x2="229.46886" y2="165.57936" gradientUnits="userSpaceOnUse" id="color-16"><stop offset="0" stop-color="#fff987"/><stop offset="1" stop-color="#fff300"/></linearGradient><linearGradient x1="266.97989" y1="164.12109" x2="253.29795" y2="164.44749" gradientUnits="userSpaceOnUse" id="color-17"><stop offset="0" stop-color="#fff987"/><stop offset="1" stop-color="#fff300"/></linearGradient><linearGradient x1="240.86075" y1="141.17043" x2="241.18714" y2="154.85237" gradientUnits="userSpaceOnUse" id="color-18"><stop offset="0" stop-color="#fff987"/><stop offset="1" stop-color="#fff300"/></linearGradient><linearGradient x1="241.07374" y1="149.60314" x2="241.76566" y2="178.6071" gradientUnits="userSpaceOnUse" id="color-19"><stop offset="0" stop-color="#eeb054"/><stop offset="1" stop-color="#d27700"/></linearGradient></defs><g transform="translate(-214.29958,-139.68316)"><g data-paper-data="{&quot;isPaintingLayer&quot;:true}" fill="none" fill-rule="nonzero" stroke="none" stroke-width="none" stroke-linecap="none" stroke-linejoin="miter" stroke-miterlimit="10" stroke-dasharray="" stroke-dashoffset="0" font-family="none" font-weight="none" font-size="none" text-anchor="none" style="mix-blend-mode: normal"><path d="M252.93344,196.39802c-0.01856,2.47718 -10.5375,2.39838 -10.51894,-0.07881c0.01856,-2.47718 2.38834,-4.46769 5.29307,-4.44593c2.90473,0.02176 5.24442,2.04755 5.22586,4.52473z" data-paper-data="{&quot;origPos&quot;:null,&quot;origRot&quot;:0}" fill="#26c000" stroke="#000000" stroke-width="2" stroke-linecap="butt"/><path d="M245.17182,196.16974c-0.01856,2.47718 -10.5375,2.39838 -10.51894,-0.07881c0.01856,-2.47718 2.38834,-4.46769 5.29307,-4.44593c2.90472,0.02176 5.24442,2.04755 5.22586,4.52473z" data-paper-data="{&quot;origPos&quot;:null,&quot;origRot&quot;:0}" fill="#26c000" stroke="#000000" stroke-width="2" stroke-linecap="butt"/><path d="M243.04653,195.71695l-1.79131,-7.19187c0,0 -3.39987,0.51767 -4.67784,0.63851c-0.95614,0.09041 -2.83529,-4.09696 -2.83529,-4.09696c0,0 2.7635,-1.04399 4.05619,-0.67012c1.53534,0.44406 2.84465,1.93118 2.84465,1.93118c0,0 0.22211,-0.07274 0.18066,-0.65723c-0.26966,-3.8024 0.81192,-9.84978 0.81192,-9.84978l3.75723,-0.26646c0,0 -1.22459,5.9671 -0.97761,9.44959c0.04912,0.69265 0.14506,0.94742 0.14506,0.94742c0,0 2.41309,-2.11901 3.47501,-2.40107c1.34928,-0.35839 3.821,0.45269 3.821,0.45269c0,0 -1.8242,3.51223 -3.11882,4.0836c-1.04962,0.46324 -3.79112,0.29363 -3.79112,0.29363l1.85751,7.07041z" data-paper-data="{&quot;origPos&quot;:null,&quot;origRot&quot;:0}" fill="#2fe500" stroke="#000000" stroke-width="1.5" stroke-linecap="butt"/><path d="M243.23542,197.90402c0.25541,2.73415 -11.86836,4.24671 -12.12377,1.51257c-0.25541,-2.73415 2.6502,-5.62143 5.85625,-5.92091c3.20605,-0.29948 6.01211,1.6742 6.26752,4.40835z" data-paper-data="{&quot;origPos&quot;:null,&quot;origRot&quot;:0}" fill="#2fe500" stroke="#000000" stroke-width="2" stroke-linecap="butt"/><path d="M256.0693,199.29058c0,2.688 -12.27022,2.43118 -12.27022,-0.25682c0,-2.688 2.55515,-4.86705 5.70708,-4.86705c3.15193,0 6.56315,2.43587 6.56315,5.12387z" data-paper-data="{&quot;origPos&quot;:null}" fill="#2fe500" stroke="#000000" stroke-width="2" stroke-linecap="butt"/><path d="M251.33242,200.30266c0,3.01056 -12.78387,3.01056 -12.78387,0c0,-3.01056 2.86177,-5.4511 6.39193,-5.4511c3.53016,0 6.39193,2.44054 6.39193,5.4511z" data-paper-data="{&quot;origPos&quot;:null}" fill="#2fe500" stroke="#000000" stroke-width="2" stroke-linecap="butt"/><path d="M263.63743,173.95149c-1.83123,1.36529 -5.401,-0.1314 -7.0234,-1.31757c-1.84591,-1.34958 -3.68139,-3.39179 -1.9104,-5.23025c1.16335,-1.20768 3.89233,-0.87295 6.09532,0.74763c2.20301,1.62059 4.16485,4.81127 2.83847,5.80018z" data-paper-data="{&quot;origPos&quot;:null,&quot;origRot&quot;:0,&quot;index&quot;:null}" fill="url(#color-1)" stroke="#000000" stroke-width="1.5" stroke-linecap="butt"/><path d="M265.14594,155.1906c1.09004,2.31606 -1.69262,5.4302 -3.55445,6.67509c-2.11831,1.41639 -5.05108,2.58887 -6.71673,0.17449c-1.09415,-1.58601 0.0778,-4.23934 2.61759,-5.92639c2.53981,-1.68705 6.86405,-2.60074 7.65357,-0.92318z" data-paper-data="{&quot;origPos&quot;:null,&quot;origRot&quot;:0,&quot;index&quot;:null}" fill="url(#color-2)" stroke="#000000" stroke-width="1.5" stroke-linecap="butt"/><path d="M259.932,155.9126c-1.85207,2.15438 -4.57045,3.22724 -6.0717,2.39629c-2.28537,-1.26498 -0.91775,-3.72014 0.63621,-5.51737c1.36582,-1.57962 4.65325,-3.99319 6.88053,-3.19629c1.61325,0.57722 0.40703,4.16298 -1.44504,6.31737z" data-paper-data="{&quot;origPos&quot;:null,&quot;origRot&quot;:0}" fill="url(#color-3)" stroke="#000000" stroke-width="1" stroke-linecap="butt"/><path d="M227.3342,174.33261c1.77778,-2.07999 4.29171,-2.84923 5.61504,-1.71818c2.01452,1.72181 0.66228,4.20245 -0.82887,5.9363c-1.31061,1.52391 -4.40177,3.67417 -6.38499,2.47258c-1.43648,-0.87033 -0.17895,-4.6107 1.59882,-6.69068z" data-paper-data="{&quot;origPos&quot;:null,&quot;origRot&quot;:0}" fill="url(#color-4)" stroke="#000000" stroke-width="1.5" stroke-linecap="butt"/><path d="M258.94338,178.81566c-2.34387,0.8405 -5.69795,-1.53551 -7.07451,-3.10385c-1.56618,-1.7844 -2.91891,-4.23476 -0.50076,-5.54781c1.58846,-0.86253 4.38908,0.17238 6.25535,2.31155c1.86627,2.13917 3.01763,5.73132 1.31993,6.3401z" data-paper-data="{&quot;origPos&quot;:null,&quot;origRot&quot;:0,&quot;index&quot;:null}" fill="url(#color-5)" stroke="#000000" stroke-width="1.5" stroke-linecap="butt"/><path d="M228.46625,152.61925c1.87047,2.15838 2.27357,4.8728 0.90036,6.06283c-2.09045,1.81159 -4.44061,0.03013 -5.99837,-1.77859c-1.36914,-1.58973 -3.10793,-5.11467 -1.55931,-6.97485c1.1217,-1.34735 4.78685,0.53222 6.65731,2.6906z" data-paper-data="{&quot;origPos&quot;:null,&quot;origRot&quot;:0}" fill="url(#color-6)" stroke="#000000" stroke-width="1.5" stroke-linecap="butt"/><path d="M225.44015,156.74697c2.00388,2.31235 2.43575,5.22038 0.96459,6.4953c-2.23956,1.94081 -4.75736,0.03229 -6.42623,-1.90545c-1.46681,-1.70311 -3.32961,-5.4795 -1.67054,-7.47237c1.2017,-1.44346 5.12829,0.57018 7.13217,2.88252z" data-paper-data="{&quot;origPos&quot;:null,&quot;origRot&quot;:0}" fill="url(#color-7)" stroke="#000000" stroke-width="1.5" stroke-linecap="butt"/><path d="M252.29376,182.64112c-2.54091,0.53834 -5.60352,-2.23802 -6.76538,-3.96533c-1.32193,-1.96527 -2.318,-4.56372 0.37487,-5.56102c1.76894,-0.65512 4.47824,0.72257 6.05139,3.07716c1.57315,2.35459 2.17955,6.05926 0.33913,6.44919z" data-paper-data="{&quot;origPos&quot;:null,&quot;origRot&quot;:0,&quot;index&quot;:null}" fill="url(#color-8)" stroke="#000000" stroke-width="1.5" stroke-linecap="butt"/><path d="M224.14685,169.59278c2.74943,-1.29201 5.64463,-0.92135 6.46663,0.82789c1.25134,2.66288 -1.25064,4.55476 -3.55186,5.62755c-2.02259,0.9429 -6.13302,1.70571 -7.59047,-0.41649c-1.05565,-1.53715 1.92626,-4.74693 4.67569,-6.03894z" data-paper-data="{&quot;origPos&quot;:null,&quot;origRot&quot;:0}" fill="url(#color-9)" stroke="#000000" stroke-width="1.5" stroke-linecap="butt"/><path d="M232.9285,176.41975c1.26944,-2.4224 3.57538,-3.91975 5.15043,-3.3444c2.39775,0.87585 1.64349,3.51606 0.57617,5.53833c-0.93808,1.77741 -3.49023,4.68771 -5.73468,4.26353c-1.62568,-0.30724 -1.26139,-4.03506 0.00805,-6.45747z" data-paper-data="{&quot;origPos&quot;:null,&quot;origRot&quot;:0}" fill="url(#color-10)" stroke="#000000" stroke-width="1.5" stroke-linecap="butt"/><path d="M255.78701,152.17414c-1.49867,2.35499 -4.02054,3.74347 -5.63276,3.10127c-2.45429,-0.97763 -1.4809,-3.57217 -0.22185,-5.53782c1.10661,-1.72765 3.98428,-4.5116 6.30897,-3.99028c1.6838,0.37758 1.0443,4.07185 -0.45437,6.42684z" data-paper-data="{&quot;origPos&quot;:null,&quot;origRot&quot;:0}" fill="url(#color-11)" stroke="#000000" stroke-width="1" stroke-linecap="butt"/><path d="M233.18521,150.91889c1.45872,2.8012 1.39452,5.72123 -0.14339,6.5221c-2.34119,1.21917 -4.33061,-1.34219 -5.54357,-3.68659c-1.0661,-2.06053 -2.16655,-6.22833 -0.34498,-7.66509c1.31939,-1.04067 4.57323,2.02839 6.03195,4.82958z" data-paper-data="{&quot;origPos&quot;:null,&quot;origRot&quot;:0}" fill="url(#color-12)" stroke="#000000" stroke-width="1.5" stroke-linecap="butt"/><path d="M250.5149,149.97114c-1.49234,2.8519 -4.16768,4.59932 -5.97556,3.90296c-2.75214,-1.06006 -1.85077,-4.17475 -0.59621,-6.5555c1.10265,-2.09248 4.07898,-5.50838 6.65998,-4.98402c1.86946,0.37979 1.40414,4.78464 -0.08821,7.63656z" data-paper-data="{&quot;origPos&quot;:null,&quot;origRot&quot;:0}" fill="url(#color-13)" stroke="#000000" stroke-width="1.5" stroke-linecap="butt"/><path d="M238.30957,147.25552c1.15859,2.80504 0.66025,5.53615 -1.11307,6.10012c-2.69953,0.85855 -4.4647,-1.78615 -5.42587,-4.13279c-0.8448,-2.06252 -1.41681,-6.10577 0.75533,-7.23167c1.57332,-0.8155 4.62501,2.45931 5.7836,5.26435z" data-paper-data="{&quot;origPos&quot;:null,&quot;origRot&quot;:0}" fill="url(#color-14)" stroke="#000000" stroke-width="1.5" stroke-linecap="butt"/><path d="M237.17784,177.03314c-0.08495,-3.56095 1.68276,-6.49147 3.94831,-6.54552c3.44887,-0.08228 4.29444,3.49708 4.35631,6.47346c0.05437,2.61599 -1.07243,7.38658 -4.0388,7.94582c-2.14858,0.40507 -4.18087,-4.31282 -4.26582,-7.87375z" data-paper-data="{&quot;origPos&quot;:null,&quot;origRot&quot;:0}" fill="url(#color-15)" stroke="#000000" stroke-width="1.5" stroke-linecap="butt"/><path d="M222.92334,161.63104c3.56095,-0.08495 6.49147,1.68276 6.54552,3.94831c0.08228,3.44887 -3.49708,4.29444 -6.47346,4.35631c-2.61599,0.05437 -7.38658,-1.07243 -7.94582,-4.0388c-0.40507,-2.14858 4.31282,-4.18087 7.87375,-4.26582z" data-paper-data="{&quot;origPos&quot;:null,&quot;origRot&quot;:0}" fill="url(#color-16)" stroke="#000000" stroke-width="1.5" stroke-linecap="butt"/><path d="M259.84048,168.27085c-3.56095,0.08495 -6.49013,-1.62683 -6.54254,-3.82337c-0.07977,-3.34382 3.50013,-4.16625 6.47651,-4.2284c2.61598,-0.05462 7.38568,1.03442 7.94276,3.91008c0.4035,2.08289 -4.31578,4.05673 -7.87671,4.14168z" data-paper-data="{&quot;origPos&quot;:null,&quot;origRot&quot;:0}" fill="url(#color-17)" stroke="#000000" stroke-width="1.5" stroke-linecap="butt"/><path d="M244.57321,148.32026c0.08495,3.56095 -1.43104,6.48546 -3.38608,6.5321c-2.97616,0.071 -3.71761,-3.51084 -3.78073,-6.48719c-0.05548,-2.61596 0.90139,-7.3825 3.45959,-7.93201c1.85293,-0.39801 3.62227,4.32614 3.70722,7.88708z" data-paper-data="{&quot;origPos&quot;:null,&quot;origRot&quot;:0}" fill="url(#color-18)" stroke="#000000" stroke-width="1.5" stroke-linecap="butt"/><path d="M241.6548,149.58928c6.68857,-0.15956 18.6259,7.1503 18.79788,13.83855c0.22076,8.58503 -10.14406,14.55904 -18.71066,15.16304c-8.39468,0.59188 -19.12272,-5.64992 -19.36128,-14.06208c-0.19179,-6.76293 9.64518,-14.70981 19.27406,-14.93951z" data-paper-data="{&quot;origPos&quot;:null,&quot;origRot&quot;:0}" fill="url(#color-19)" stroke="#000000" stroke-width="2" stroke-linecap="butt"/><path d="M238.12788,159.98232c0.10223,2.59086 -1.05002,4.80923 -2.57362,4.95483c-1.52358,0.14562 -2.84159,-1.83667 -2.94381,-4.42753c-0.10223,-2.59086 1.05002,-4.80923 2.57362,-4.95483c1.52358,-0.14562 2.84157,1.83667 2.9438,4.42752z" data-paper-data="{&quot;origPos&quot;:null,&quot;origRot&quot;:0}" fill="#000000" stroke="none" stroke-width="0" stroke-linecap="butt"/><path d="M250.446,159.79976c0.10223,2.59086 -1.05002,4.80923 -2.57362,4.95483c-1.52358,0.14562 -2.84159,-1.83667 -2.94381,-4.42753c-0.10223,-2.59086 1.05002,-4.80923 2.57362,-4.95483c1.52358,-0.14562 2.84157,1.83667 2.9438,4.42752z" data-paper-data="{&quot;origPos&quot;:null,&quot;origRot&quot;:0}" fill="#000000" stroke="none" stroke-width="0" stroke-linecap="butt"/><path d="M254.31725,168.31309c0,0 -7.67699,3.64321 -12.89777,3.50117c-5.14916,-0.14009 -12.09183,-2.90501 -12.09183,-2.90501" data-paper-data="{&quot;origPos&quot;:null,&quot;origRot&quot;:0}" fill="none" stroke="#000000" stroke-width="1.5" stroke-linecap="round"/><path d="M235.92106,158.72293c0.04146,1.05052 -0.42575,1.95002 -1.04353,2.00905c-0.61778,0.05904 -1.15219,-0.74472 -1.19363,-1.79524c-0.04146,-1.05052 0.42575,-1.95002 1.04353,-2.00905c0.61778,-0.05904 1.15219,0.74472 1.19363,1.79524z" data-paper-data="{&quot;origPos&quot;:null,&quot;origRot&quot;:0}" fill="#ffffff" stroke="none" stroke-width="0" stroke-linecap="butt"/><path d="M248.03328,158.53355c0.04146,1.05052 -0.42575,1.95002 -1.04353,2.00905c-0.61778,0.05904 -1.15219,-0.74472 -1.19363,-1.79524c-0.04146,-1.05052 0.42575,-1.95002 1.04353,-2.00905c0.61778,-0.05904 1.15219,0.74472 1.19363,1.79524z" data-paper-data="{&quot;origPos&quot;:null,&quot;origRot&quot;:0}" fill="#ffffff" stroke="none" stroke-width="0" stroke-linecap="butt"/></g></g></svg>