<svg version="1.1" xmlns="http://www.w3.org/2000/svg" xmlns:xlink="http://www.w3.org/1999/xlink" width="60.63158" height="38.30128"><defs><linearGradient x1="240.16675" y1="162.83335" x2="240.16675" y2="199.33335" gradientUnits="userSpaceOnUse" id="color-1"><stop offset="0" stop-color="#00e3ff"/><stop offset="1" stop-color="#ccf9ff"/></linearGradient><linearGradient x1="235.64181" y1="167.09013" x2="235.64181" y2="201.94" gradientUnits="userSpaceOnUse" id="color-2"><stop offset="0" stop-color="#e6ae61"/><stop offset="1" stop-color="#cf8b2c"/></linearGradient></defs><g transform="translate(-209.24293,-161.85145)"><g data-paper-data="{&quot;isPaintingLayer&quot;:true}" fill="none" fill-rule="nonzero" stroke="none" stroke-width="none" stroke-linecap="none" stroke-linejoin="miter" stroke-miterlimit="10" stroke-dasharray="" stroke-dashoffset="0" font-family="none" font-weight="none" font-size="none" text-anchor="none" style="mix-blend-mode: normal"><path d="M210.5001,199.33335v-36.5h59.33333v36.5h-35.53162c-3.55039,-0.20536 -7.16454,-0.45838 -10.46478,-0.07208c-0.25993,0.03043 -0.5285,0.05239 -0.80134,0.07208z" data-paper-data="{&quot;origPos&quot;:null}" fill="url(#color-1)" stroke="none" stroke-width="0" stroke-linecap="butt"/><path d="M267.97119,181.60708v15.82871h-19.13622z" data-paper-data="{&quot;origPos&quot;:null,&quot;origRot&quot;:0}" fill="#d6faff" stroke="none" stroke-width="0" stroke-linecap="butt"/><text transform="translate(254.51567,196.54398) scale(0.2887,0.2887)" font-size="40" xml:space="preserve" data-paper-data="{&quot;origPos&quot;:null}" fill="#000000" fill-rule="nonzero" stroke="none" stroke-width="1" stroke-linecap="butt" stroke-linejoin="miter" stroke-miterlimit="10" stroke-dasharray="" stroke-dashoffset="0" font-family="Sans Serif" font-weight="normal" text-anchor="start" style="mix-blend-mode: normal"><tspan x="0" dy="0">50</tspan></text><text transform="translate(254.16163,196.18994) scale(0.2887,0.2887)" font-size="40" xml:space="preserve" data-paper-data="{&quot;origPos&quot;:null}" fill="#ffffff" fill-rule="nonzero" stroke="none" stroke-width="1" stroke-linecap="butt" stroke-linejoin="miter" stroke-miterlimit="10" stroke-dasharray="" stroke-dashoffset="0" font-family="Sans Serif" font-weight="normal" text-anchor="start" style="mix-blend-mode: normal"><tspan x="0" dy="0">50</tspan></text><path d="M249.85478,188.53003c0,1.00498 0.12841,0.60851 -0.01133,1.60372c-0.1245,0.88666 -0.12362,1.66126 -0.46853,2.23374c-0.11496,0.19083 -0.34157,1.74276 -0.45219,1.93614c-0.57504,1.0051 -0.67456,1.99486 -1.43509,2.86807c-1.18023,1.35511 -22.25568,1.19833 -22.77106,0.48626c-0.90768,-1.2541 -0.88748,-1.99806 -1.60035,-3.37226c-0.74518,-1.43651 -0.4636,-2.23251 -0.53823,-3.84908c-0.01986,-0.43039 -0.02501,-1.95755 -0.02501,-2.38839c0,-1.21096 0.04929,-1.73517 0.26653,-2.92648c0.33295,-1.82597 0.71582,-2.96891 1.24004,-4.74942c0.47546,-1.61488 0.4852,-2.50469 1.12294,-4.06263c0.4033,-0.98524 0.17609,-1.36792 0.6677,-2.3122c0.6797,-1.30557 1.51214,-2.09152 2.52917,-3.15555c0.60202,-0.62984 0.64169,-1.12421 1.3108,-1.68225c1.8531,-1.5455 3.53857,-2.06957 5.95158,-2.06957c0,0 3.60156,0.47317 5.4514,1.65382c2.83544,1.80972 4.07012,3.93725 5.60859,6.92857c2.30002,4.47207 3.153,3.23397 3.153,12.85751z" data-paper-data="{&quot;origPos&quot;:null}" fill="url(#color-2)" stroke="#000000" stroke-width="1" stroke-linecap="butt"/><path d="M232.20462,198.62106c0,0 -4.60004,-6.24415 -4.3862,-12.29671c0.1279,-3.61985 1.38027,-12.59453 4.01836,-15.14214c3.27255,-3.16033 7.15736,-2.26289 7.15736,-2.26289" data-paper-data="{&quot;origPos&quot;:null}" fill="none" stroke="#9f6f2c" stroke-width="1" stroke-linecap="round"/><path d="M232.249,179.76262c0,-1.72958 1.4021,-3.13167 3.13167,-3.13167c1.72958,0 3.13167,1.4021 3.13167,3.13167c0,1.72958 -1.4021,3.13167 -3.13167,3.13167c-1.72958,0 -3.13167,-1.4021 -3.13167,-3.13167z" data-paper-data="{&quot;origPos&quot;:null}" fill="#ffffff" stroke="#000000" stroke-width="0.25" stroke-linecap="butt"/><path d="M240.89896,178.53576c0,-1.33044 1.07853,-2.40898 2.40898,-2.40898c1.33044,0 2.40898,1.07853 2.40898,2.40898c0,1.33044 -1.07853,2.40898 -2.40898,2.40898c-1.33044,0 -2.40898,-1.07853 -2.40898,-2.40898z" data-paper-data="{&quot;origPos&quot;:null}" fill="#ffffff" stroke="#000000" stroke-width="0.25" stroke-linecap="butt"/><path d="M242.04551,183.85788c0,0 -0.997,1.06664 -1.84071,1.23537c-0.72318,0.14465 -2.17426,-0.43238 -2.17426,-0.43238" data-paper-data="{&quot;origPos&quot;:null}" fill="none" stroke="#000000" stroke-width="0.25" stroke-linecap="round"/><path d="M235.37084,179.57252c0,-0.33457 0.27123,-0.6058 0.6058,-0.6058c0.33457,0 0.6058,0.27123 0.6058,0.6058c0,0.33457 -0.27123,0.6058 -0.6058,0.6058c-0.33457,0 -0.6058,-0.27123 -0.6058,-0.6058z" data-paper-data="{&quot;origPos&quot;:null}" fill="#000000" stroke="none" stroke-width="0.5" stroke-linecap="butt"/><path d="M242.75836,178.44832c0,-0.33457 0.27123,-0.6058 0.6058,-0.6058c0.33457,0 0.6058,0.27123 0.6058,0.6058c0,0.33457 -0.27123,0.6058 -0.6058,0.6058c-0.33457,0 -0.6058,-0.27123 -0.6058,-0.6058z" data-paper-data="{&quot;origPos&quot;:null}" fill="#000000" stroke="none" stroke-width="0.5" stroke-linecap="butt"/><path d="M210.24294,198.32859v-35.47714h58.63158v35.47714z" data-paper-data="{&quot;origPos&quot;:null}" fill="none" stroke="#d6faff" stroke-width="2" stroke-linecap="butt"/></g></g></svg>