<svg version="1.1" xmlns="http://www.w3.org/2000/svg" xmlns:xlink="http://www.w3.org/1999/xlink" width="60.23006" height="69.99751" viewBox="0,0,60.23006,69.99751"><g transform="translate(-209.97953,-136.48855)"><g data-paper-data="{&quot;isPaintingLayer&quot;:true}" fill="none" fill-rule="nonzero" stroke="none" stroke-width="none" stroke-linecap="butt" stroke-linejoin="miter" stroke-miterlimit="10" stroke-dasharray="" stroke-dashoffset="0" font-family="none" font-weight="none" font-size="none" text-anchor="none" style="mix-blend-mode: normal"><path d="M229.14657,160.82665c-1.94842,1.25081 -6.74698,0.27696 -9.85778,-3.53999c-3.11078,-3.81692 -1.93371,-12.83309 -1.93371,-12.83309c0,0 3.25635,3.51751 4.17047,3.79127c0,0 5.25085,0.96599 6.84505,3.02126c2.099,2.70607 2.72437,8.30973 0.77595,9.56054z" data-paper-data="{&quot;origRot&quot;:0,&quot;origPos&quot;:null}" fill="#26bd00" stroke="#000000" stroke-width="1"/><path d="M227.8729,159.77031c0.42418,2.28093 -1.8119,5.93613 -5.83929,6.7639c-4.02739,0.82778 -10.96804,-4.54819 -10.96804,-4.54819c0,0 3.82903,-1.09786 4.3264,-1.75147c0,0 2.36621,-4.04797 4.51041,-4.42417c2.82315,-0.49533 7.54635,1.679 7.97052,3.95993z" data-paper-data="{&quot;origRot&quot;:0,&quot;origPos&quot;:null}" fill="#26bd00" stroke="#000000" stroke-width="1"/><path d="M230.39954,154.70873c-2.34887,-0.03393 -5.82103,-2.9981 -6.25484,-7.18309c-0.43383,-4.18498 5.69702,-10.0336 5.69702,-10.0336c0,0 0.72679,4.04117 1.3379,4.66853c0,0 3.85627,3.17276 4.02201,5.38793c0.21824,2.9166 -2.4532,7.19415 -4.80208,7.16022z" data-paper-data="{&quot;origRot&quot;:0,&quot;origPos&quot;:null}" fill="#26bd00" stroke="#000000" stroke-width="1"/><path d="M231.27052,191.15243c4.70339,0.74227 8.22807,3.16986 7.87262,5.42219c-0.35546,2.25233 -4.45647,3.47645 -9.15983,2.73419c-4.70339,-0.74227 -7.87259,-5.4222 -7.87259,-5.4222c0,0 4.45645,-3.47647 9.15981,-2.7342z" data-paper-data="{&quot;origRot&quot;:0,&quot;origPos&quot;:null,&quot;index&quot;:null}" fill="#2bd900" stroke="#000000" stroke-width="1.5"/><path d="M256.46703,193.89032c0,0 -3.13606,4.7022 -7.83407,5.4777c-4.69803,0.7755 -8.80757,-0.4196 -9.17894,-2.66936c-0.37138,-2.24977 3.13609,-4.70222 7.83408,-5.47773c4.69803,-0.7755 9.17893,2.66937 9.17893,2.66937z" data-paper-data="{&quot;origRot&quot;:0,&quot;origPos&quot;:null,&quot;index&quot;:null}" fill="#2bd900" stroke="#000000" stroke-width="1.5"/><path d="M238.77288,198.63265c0,0 -1.062,-7.03882 -1.10102,-11.47312c-0.0308,-3.50078 0.92204,-8.85945 0.92204,-8.85945l4.49982,-0.0396c0,0 -1.62866,4.32315 -1.60238,7.31046c0.04355,4.94772 1.78135,13.02209 1.78135,13.02209z" data-paper-data="{&quot;origPos&quot;:null,&quot;origRot&quot;:0}" fill="#a9ff59" stroke="#000000" stroke-width="2"/><path d="M260.45832,161.90679c-0.03766,8.78179 -8.28689,15.8656 -18.42518,15.8221c-10.13828,-0.04347 -18.32646,-7.19778 -18.28879,-15.97957c0.03766,-8.78179 8.28689,-15.86559 18.42518,-15.82209c10.13828,0.04347 18.32646,7.19778 18.28879,15.97956z" data-paper-data="{&quot;origPos&quot;:null,&quot;origRot&quot;:0}" fill="#a9ff59" stroke="#000000" stroke-width="3"/><path d="M269.20959,167.79421c-0.56524,5.62817 -4.04182,9.88228 -7.76515,9.50186c-3.72332,-0.38047 -6.28342,-5.25138 -5.71819,-10.87953c0.56524,-5.62817 4.04183,-9.88231 7.76515,-9.50186c3.72331,0.38046 6.28339,5.25137 5.71819,10.87953z" data-paper-data="{&quot;origPos&quot;:null,&quot;origRot&quot;:0}" fill="#a9ff59" stroke="#000000" stroke-width="2"/><path d="M261.49443,166.87819c-0.23377,2.77749 -1.50441,4.9365 -2.83805,4.82226c-1.33363,-0.11423 -2.22524,-2.45845 -1.99147,-5.23596c0.23377,-2.77749 1.50441,-4.9365 2.83804,-4.82224c1.33363,0.11423 2.22527,2.45845 1.99149,5.23596z" data-paper-data="{&quot;origRot&quot;:0,&quot;origPos&quot;:null}" fill="#84c746" stroke="none" stroke-width="0"/><path d="M229.53276,196.07998c4.91137,-1.74872 9.57168,-1.25974 10.40911,1.09219c0.83741,2.35192 -2.46518,5.67615 -7.37655,7.42488c-4.91137,1.74872 -10.4091,-1.0922 -10.4091,-1.0922c0,0 2.46517,-5.67616 7.37654,-7.42488z" data-paper-data="{&quot;origRot&quot;:0,&quot;origPos&quot;:null}" fill="#2fe500" stroke="#000000" stroke-width="2"/><path d="M257.10787,204.14009c0,0 -5.62592,2.5777 -10.4491,0.59866c-4.82316,-1.97905 -7.96486,-5.45574 -7.01714,-7.76543c0.94771,-2.30968 5.62594,-2.57772 10.44912,-0.59867c4.82316,1.97905 7.01712,7.76544 7.01712,7.76544z" data-paper-data="{&quot;origRot&quot;:0,&quot;origPos&quot;:null,&quot;index&quot;:null}" fill="#2fe500" stroke="#000000" stroke-width="2"/><path d="M247.54867,156.05665c0.37594,2.24257 -0.38069,4.30007 -1.69,4.59552c-1.3093,0.29546 -2.67549,-1.28301 -3.05143,-3.52558c-0.37594,-2.24257 0.38069,-4.30007 1.69,-4.59552c1.3093,-0.29546 2.67548,1.28301 3.05141,3.52557z" data-paper-data="{&quot;origPos&quot;:null,&quot;origRot&quot;:0}" fill="#000000" stroke="none" stroke-width="0"/><path d="M253.63662,155.97186c0.2832,1.68936 -0.28677,3.23926 -1.27308,3.46183c-0.98632,0.22256 -2.01544,-0.96649 -2.29865,-2.65586c-0.2832,-1.68936 0.28676,-3.23926 1.27308,-3.46183c0.98632,-0.22256 2.01546,0.9665 2.29867,2.65586z" data-paper-data="{&quot;origPos&quot;:null,&quot;origRot&quot;:0}" fill="#000000" stroke="none" stroke-width="0"/><path d="M239.81449,153.12517l-0.13587,-4.57261c0,0 4.7192,0.68661 6.73111,1.85079c2.13263,1.23405 1.98121,4.3793 1.98121,4.3793c0,0 -0.88382,-1.66154 -3.57407,-2.10216c-1.87357,-0.30686 -5.00238,0.44468 -5.00238,0.44468z" data-paper-data="{&quot;origPos&quot;:null,&quot;origRot&quot;:0}" fill="#26bd00" stroke="#000000" stroke-width="0.5"/><path d="M252.96323,152.93464c-2.0933,0.0768 -2.96167,1.35446 -2.96167,1.35446c0,0 0.25979,-2.61321 2.02459,-3.40464c1.6649,-0.74662 5.32665,-0.81009 5.32665,-0.81009l-0.64775,3.76114c0,0 -2.28399,-0.95436 -3.74183,-0.90087z" data-paper-data="{&quot;origPos&quot;:null,&quot;index&quot;:null,&quot;origRot&quot;:0}" fill="#26bd00" stroke="#000000" stroke-width="0.5"/></g></g></svg>