<svg version="1.1" xmlns="http://www.w3.org/2000/svg" xmlns:xlink="http://www.w3.org/1999/xlink" width="54.18268" height="61.48518"><defs><linearGradient x1="270.35615" y1="177.25957" x2="262.26093" y2="170.55995" gradientUnits="userSpaceOnUse" id="color-1"><stop offset="0" stop-color="#fff987"/><stop offset="1" stop-color="#fff300"/></linearGradient><linearGradient x1="272.85047" y1="159.30047" x2="262.73791" y2="165.21496" gradientUnits="userSpaceOnUse" id="color-2"><stop offset="0" stop-color="#fff987"/><stop offset="1" stop-color="#fff300"/></linearGradient><linearGradient x1="269.51497" y1="153.57385" x2="261.93808" y2="161.43183" gradientUnits="userSpaceOnUse" id="color-3"><stop offset="0" stop-color="#fff987"/><stop offset="1" stop-color="#fff300"/></linearGradient><linearGradient x1="232.96894" y1="182.10935" x2="240.24458" y2="174.52049" gradientUnits="userSpaceOnUse" id="color-4"><stop offset="0" stop-color="#fff987"/><stop offset="1" stop-color="#fff300"/></linearGradient><linearGradient x1="265.46309" y1="181.74042" x2="258.77329" y2="173.12537" gradientUnits="userSpaceOnUse" id="color-5"><stop offset="0" stop-color="#fff987"/><stop offset="1" stop-color="#fff300"/></linearGradient><linearGradient x1="230.76133" y1="151.71668" x2="237.46302" y2="160.40638" gradientUnits="userSpaceOnUse" id="color-6"><stop offset="0" stop-color="#fff987"/><stop offset="1" stop-color="#fff300"/></linearGradient><linearGradient x1="227.06596" y1="155.48054" x2="234.24569" y2="164.79006" gradientUnits="userSpaceOnUse" id="color-7"><stop offset="0" stop-color="#fff987"/><stop offset="1" stop-color="#fff300"/></linearGradient><linearGradient x1="258.66705" y1="185.13653" x2="253.14889" y2="175.75942" gradientUnits="userSpaceOnUse" id="color-8"><stop offset="0" stop-color="#fff987"/><stop offset="1" stop-color="#fff300"/></linearGradient><linearGradient x1="227.20779" y1="176.55012" x2="238.03782" y2="172.19698" gradientUnits="userSpaceOnUse" id="color-9"><stop offset="0" stop-color="#fff987"/><stop offset="1" stop-color="#fff300"/></linearGradient><linearGradient x1="239.93884" y1="184.28733" x2="245.3396" y2="175.27347" gradientUnits="userSpaceOnUse" id="color-10"><stop offset="0" stop-color="#fff987"/><stop offset="1" stop-color="#fff300"/></linearGradient><linearGradient x1="264.67653" y1="149.48676" x2="258.41121" y2="158.19176" gradientUnits="userSpaceOnUse" id="color-11"><stop offset="0" stop-color="#fff987"/><stop offset="1" stop-color="#fff300"/></linearGradient><linearGradient x1="236.22181" y1="148.31192" x2="241.20307" y2="159.37709" gradientUnits="userSpaceOnUse" id="color-12"><stop offset="0" stop-color="#fff987"/><stop offset="1" stop-color="#fff300"/></linearGradient><linearGradient x1="259.23543" y1="145.85976" x2="252.88545" y2="156.47228" gradientUnits="userSpaceOnUse" id="color-13"><stop offset="0" stop-color="#fff987"/><stop offset="1" stop-color="#fff300"/></linearGradient><linearGradient x1="241.75503" y1="144.52145" x2="245.58415" y2="155.53551" gradientUnits="userSpaceOnUse" id="color-14"><stop offset="0" stop-color="#fff987"/><stop offset="1" stop-color="#fff300"/></linearGradient><linearGradient x1="248.07447" y1="186.54214" x2="248.52954" y2="172.86388" gradientUnits="userSpaceOnUse" id="color-15"><stop offset="0" stop-color="#fff987"/><stop offset="1" stop-color="#fff300"/></linearGradient><linearGradient x1="223.49314" y1="166.84316" x2="237.17142" y2="167.29824" gradientUnits="userSpaceOnUse" id="color-16"><stop offset="0" stop-color="#fff987"/><stop offset="1" stop-color="#fff300"/></linearGradient><linearGradient x1="274.70452" y1="167.9834" x2="261.02626" y2="167.52833" gradientUnits="userSpaceOnUse" id="color-17"><stop offset="0" stop-color="#fff987"/><stop offset="1" stop-color="#fff300"/></linearGradient><linearGradient x1="249.93794" y1="143.57934" x2="249.48286" y2="157.25761" gradientUnits="userSpaceOnUse" id="color-18"><stop offset="0" stop-color="#fff987"/><stop offset="1" stop-color="#fff300"/></linearGradient><linearGradient x1="249.66926" y1="152.01045" x2="248.70456" y2="181.00662" gradientUnits="userSpaceOnUse" id="color-19"><stop offset="0" stop-color="#eeb054"/><stop offset="1" stop-color="#d27700"/></linearGradient></defs><g transform="translate(-222.00749,-142.09356)"><g data-paper-data="{&quot;isPaintingLayer&quot;:true}" fill="none" fill-rule="nonzero" stroke="none" stroke-width="none" stroke-linecap="none" stroke-linejoin="miter" stroke-miterlimit="10" stroke-dasharray="" stroke-dashoffset="0" font-family="none" font-weight="none" font-size="none" text-anchor="none" style="mix-blend-mode: normal"><path d="M252.93344,196.13208c-0.01856,2.47718 -10.5375,2.39838 -10.51894,-0.07881c0.01856,-2.47718 2.38834,-4.46769 5.29307,-4.44593c2.90473,0.02176 5.24442,2.04755 5.22586,4.52473z" data-paper-data="{&quot;origPos&quot;:null,&quot;origRot&quot;:0}" fill="#26c000" stroke="#000000" stroke-width="2" stroke-linecap="butt"/><path d="M245.17182,195.9038c-0.01856,2.47718 -10.5375,2.39838 -10.51894,-0.07881c0.01856,-2.47718 2.38834,-4.46769 5.29307,-4.44593c2.90472,0.02176 5.24442,2.04755 5.22586,4.52473z" data-paper-data="{&quot;origPos&quot;:null,&quot;origRot&quot;:0}" fill="#26c000" stroke="#000000" stroke-width="2" stroke-linecap="butt"/><path d="M242.31677,196.8347l-0.28372,-7.40616c0,0 -3.4339,-0.18808 -4.70959,-0.33097c-0.95444,-0.10691 -1.93816,-4.58994 -1.93816,-4.58994c0,0 2.91854,-0.45718 4.10753,0.17298c1.41218,0.74847 2.38994,2.47178 2.38994,2.47178c0,0 0.2323,-0.02582 0.31116,-0.60644c0.51313,-3.77726 2.80775,-9.47597 2.80775,-9.47597l3.73238,0.50702c0,0 -2.41822,5.5909 -2.88817,9.05036c-0.09347,0.68807 -0.05163,0.95707 -0.05163,0.95707c0,0 2.79522,-1.58113 3.89237,-1.6402c1.39405,-0.07506 3.64784,1.22403 3.64784,1.22403c0,0 -2.50348,3.06528 -3.88756,3.36003c-1.12213,0.23895 -3.77111,-0.48735 -3.77111,-0.48735l0.37334,7.3008z" data-paper-data="{&quot;origPos&quot;:null,&quot;origRot&quot;:0}" fill="#2fe500" stroke="#000000" stroke-width="1.5" stroke-linecap="butt"/><path d="M243.24136,196.32948c0.83811,2.61503 -10.67564,6.70246 -11.51375,4.08744c-0.83811,-2.61503 1.3777,-6.06019 4.44408,-7.04295c3.06638,-0.98274 6.23157,0.34048 7.06968,2.9555z" data-paper-data="{&quot;origPos&quot;:null,&quot;origRot&quot;:0}" fill="#2fe500" stroke="#000000" stroke-width="2" stroke-linecap="butt"/><path d="M255.58512,200.31319c-0.57381,2.62604 -12.50637,-0.24419 -11.93256,-2.87022c0.57381,-2.62604 3.53523,-4.20941 6.61449,-3.53657c3.07928,0.67284 5.89188,3.78075 5.31808,6.4068z" data-paper-data="{&quot;origPos&quot;:null,&quot;origRot&quot;:0}" fill="#2fe500" stroke="#000000" stroke-width="2" stroke-linecap="butt"/><path d="M251.51697,198.8049c0.57278,2.95557 -11.97758,5.38779 -12.55036,2.43221c-0.57278,-2.95557 1.7724,-5.896 5.23807,-6.56764c3.46568,-0.67163 6.73951,1.17986 7.31229,4.13542z" data-paper-data="{&quot;origPos&quot;:null,&quot;origRot&quot;:0}" fill="#2fe500" stroke="#000000" stroke-width="2" stroke-linecap="butt"/><path d="M270.80642,177.60701c-1.90616,1.25854 -5.38469,-0.43946 -6.93674,-1.71631c-1.76588,-1.45274 -3.48178,-3.59637 -1.60876,-5.33076c1.23039,-1.13931 3.93581,-0.64936 6.04272,1.09432c2.10692,1.74369 3.88344,5.04115 2.50279,5.95273z" data-paper-data="{&quot;origPos&quot;:null,&quot;origRot&quot;:0,&quot;index&quot;:null}" fill="url(#color-1)" stroke="#000000" stroke-width="1.5" stroke-linecap="butt"/><path d="M273.38329,158.96279c0.95605,2.3745 -1.99981,5.32473 -3.92966,6.46132c-2.1957,1.29318 -5.19062,2.29635 -6.71574,-0.20918c-1.00183,-1.64587 0.31965,-4.22798 2.9516,-5.76733c2.63196,-1.53932 7.0013,-2.20472 7.69379,-0.48483z" data-paper-data="{&quot;origPos&quot;:null,&quot;origRot&quot;:0,&quot;index&quot;:null}" fill="url(#color-2)" stroke="#000000" stroke-width="1.5" stroke-linecap="butt"/><path d="M268.13666,159.38602c-1.97201,2.04517 -4.7472,2.96111 -6.19858,2.04582c-2.20944,-1.39336 -0.70392,-3.76645 0.95008,-5.47206c1.45376,-1.49907 4.87359,-3.72108 7.05175,-2.79835c1.57767,0.66836 0.16876,4.17942 -1.80327,6.22459z" data-paper-data="{&quot;origPos&quot;:null,&quot;origRot&quot;:0}" fill="url(#color-3)" stroke="#000000" stroke-width="1" stroke-linecap="butt"/><path d="M234.54062,175.91538c1.89361,-1.97513 4.44734,-2.59963 5.70396,-1.39489c1.91295,1.834 0.42133,4.23339 -1.16634,5.8793c-1.39547,1.44662 -4.60432,3.41693 -6.51572,2.10411c-1.38446,-0.95091 0.0845,-4.6134 1.9781,-6.58851z" data-paper-data="{&quot;origPos&quot;:null,&quot;origRot&quot;:0}" fill="url(#color-4)" stroke="#000000" stroke-width="1.5" stroke-linecap="butt"/><path d="M265.84238,182.1953c-2.38803,0.70535 -5.60102,-1.85823 -6.88582,-3.50259c-1.46178,-1.87087 -2.67243,-4.39446 -0.18329,-5.56734c1.63511,-0.77045 4.37208,0.42263 6.11321,2.66482c1.74113,2.2422 2.68557,5.89422 0.95591,6.40511z" data-paper-data="{&quot;origPos&quot;:null,&quot;origRot&quot;:0,&quot;index&quot;:null}" fill="url(#color-5)" stroke="#000000" stroke-width="1.5" stroke-linecap="butt"/><path d="M236.91017,154.30203c1.74423,2.26163 1.99173,4.99462 0.55284,6.10435c-2.19043,1.68932 -4.4351,-0.22338 -5.88708,-2.11806c-1.27617,-1.66529 -2.81092,-5.28373 -1.15866,-7.05248c1.19677,-1.28113 4.74867,0.80458 6.49289,3.06621z" data-paper-data="{&quot;origPos&quot;:null,&quot;origRot&quot;:0}" fill="url(#color-6)" stroke="#000000" stroke-width="1.5" stroke-linecap="butt"/><path d="M233.6534,158.2503c1.86863,2.42296 2.1338,5.35089 0.59228,6.53977c-2.34667,1.80982 -4.75145,-0.23931 -6.30699,-2.26914c-1.36722,-1.78405 -3.01142,-5.66061 -1.2413,-7.55555c1.28212,-1.37252 5.08738,0.86196 6.95602,3.28492z" data-paper-data="{&quot;origPos&quot;:null,&quot;origRot&quot;:0}" fill="url(#color-7)" stroke="#000000" stroke-width="1.5" stroke-linecap="butt"/><path d="M258.98524,185.63499c-2.56749,0.39244 -5.46665,-2.55421 -6.52802,-4.34503c-1.2076,-2.03751 -2.05373,-4.68858 0.69167,-5.53055c1.80346,-0.55308 4.4297,0.977 5.86588,3.41755c1.4362,2.44055 1.83015,6.17379 -0.02954,6.45804z" data-paper-data="{&quot;origPos&quot;:null,&quot;origRot&quot;:0,&quot;index&quot;:null}" fill="url(#color-8)" stroke="#000000" stroke-width="1.5" stroke-linecap="butt"/><path d="M231.629,171.00136c2.81869,-1.13297 5.68801,-0.59767 6.40883,1.19564c1.09732,2.72997 -1.50858,4.47595 -3.86728,5.41564c-2.0731,0.82591 -6.22039,1.35287 -7.55433,-0.84907c-0.9662,-1.59489 2.19406,-4.62925 5.01275,-5.76221z" data-paper-data="{&quot;origPos&quot;:null,&quot;origRot&quot;:0}" fill="url(#color-9)" stroke="#000000" stroke-width="1.5" stroke-linecap="butt"/><path d="M240.00667,178.31843c1.40563,-2.346 3.79328,-3.70928 5.33294,-3.04497c2.34386,1.01128 1.44012,3.60414 0.2591,5.56219c-1.038,1.72097 -3.75211,4.48086 -5.96869,3.92926c-1.60549,-0.39952 -1.02903,-4.10048 0.3766,-6.44648z" data-paper-data="{&quot;origPos&quot;:null,&quot;origRot&quot;:0}" fill="url(#color-10)" stroke="#000000" stroke-width="1.5" stroke-linecap="butt"/><path d="M264.21179,155.41706c-1.63065,2.26561 -4.22765,3.50789 -5.80059,2.7747c-2.39449,-1.11612 -1.27459,-3.65087 0.0946,-5.54145c1.20341,-1.66169 4.2353,-4.27683 6.52644,-3.62367c1.6595,0.47307 0.81018,4.12482 -0.82046,6.39042z" data-paper-data="{&quot;origPos&quot;:null,&quot;origRot&quot;:0}" fill="url(#color-11)" stroke="#000000" stroke-width="1" stroke-linecap="butt"/><path d="M241.71849,152.87379c1.29645,2.8799 1.0657,5.7915 -0.51542,6.50328c-2.40695,1.08356 -4.24695,-1.58718 -5.32411,-3.997c-0.94674,-2.11801 -1.80753,-6.34184 0.09308,-7.67229c1.37663,-0.96367 4.44999,2.28611 5.74645,5.16599z" data-paper-data="{&quot;origPos&quot;:null,&quot;origRot&quot;:0}" fill="url(#color-12)" stroke="#000000" stroke-width="1.5" stroke-linecap="butt"/><path d="M259.07403,152.91673c-1.65269,2.76207 -4.42341,4.35394 -6.18859,3.55552c-2.68717,-1.21542 -1.60947,-4.27358 -0.22107,-6.57883c1.22029,-2.02614 4.38674,-5.26657 6.9336,-4.59576c1.84473,0.48588 1.12875,4.85698 -0.52394,7.61908z" data-paper-data="{&quot;origPos&quot;:null,&quot;origRot&quot;:0}" fill="url(#color-13)" stroke="#000000" stroke-width="1.5" stroke-linecap="butt"/><path d="M247.04359,149.50889c0.99659,2.86659 0.34319,5.56481 -1.45944,6.02664c-2.74413,0.70307 -4.35547,-2.03806 -5.18114,-4.43575c-0.7257,-2.10737 -1.06601,-6.17668 1.16688,-7.17676c1.6173,-0.72437 4.4771,2.71929 5.47369,5.58588z" data-paper-data="{&quot;origPos&quot;:null,&quot;origRot&quot;:0}" fill="url(#color-14)" stroke="#000000" stroke-width="1.5" stroke-linecap="butt"/><path d="M244.21406,179.17335c0.11844,-3.55998 2.05053,-6.38484 4.31547,-6.30947c3.44794,0.11472 4.08784,3.73649 3.97971,6.71155c-0.09504,2.61482 -1.49229,7.31332 -4.48574,7.70234c-2.16819,0.28178 -3.92788,-4.54442 -3.80944,-8.10439z" data-paper-data="{&quot;origPos&quot;:null,&quot;origRot&quot;:0}" fill="url(#color-15)" stroke="#000000" stroke-width="1.5" stroke-linecap="butt"/><path d="M230.86191,162.98275c3.55998,0.11844 6.38484,2.05053 6.30947,4.31547c-0.11472,3.44794 -3.73649,4.08784 -6.71155,3.97971c-2.61482,-0.09504 -7.31332,-1.49229 -7.70234,-4.48574c-0.28178,-2.16819 4.54442,-3.92788 8.10439,-3.80944z" data-paper-data="{&quot;origPos&quot;:null,&quot;origRot&quot;:0}" fill="url(#color-16)" stroke="#000000" stroke-width="1.5" stroke-linecap="butt"/><path d="M267.33989,171.7189c-3.55998,-0.11844 -6.3867,-1.99463 -6.31364,-4.19057c0.11122,-3.34291 3.73222,-3.95969 6.70729,-3.85185c2.61483,0.09479 7.3146,1.45429 7.70663,4.35707c0.28396,2.10253 -4.54029,3.80378 -8.10028,3.68534z" data-paper-data="{&quot;origPos&quot;:null,&quot;origRot&quot;:0}" fill="url(#color-17)" stroke="#000000" stroke-width="1.5" stroke-linecap="butt"/><path d="M253.23625,150.9294c-0.11844,3.55998 -1.79889,6.39321 -3.7534,6.32817c-2.97536,-0.09899 -3.51115,-3.71731 -3.40429,-6.69241c0.09393,-2.61486 1.3213,-7.31901 3.90669,-7.7216c1.87262,-0.29161 3.36943,4.52584 3.251,8.08582z" data-paper-data="{&quot;origPos&quot;:null,&quot;origRot&quot;:0}" fill="url(#color-18)" stroke="#000000" stroke-width="1.5" stroke-linecap="butt"/><path d="M250.25015,152.02977c6.68678,0.22247 18.1874,8.20178 17.97735,14.88893c-0.26963,8.58364 -10.95852,13.9563 -19.54563,14.07035c-8.41478,0.11175 -18.76906,-6.73219 -18.52708,-15.14425c0.19454,-6.76285 10.46907,-14.1353 20.09534,-13.81503z" data-paper-data="{&quot;origPos&quot;:null,&quot;origRot&quot;:0}" fill="url(#color-19)" stroke="#000000" stroke-width="2" stroke-linecap="butt"/><path d="M246.13579,162.20455c-0.04582,2.59248 -1.32281,4.74145 -2.85223,4.79985c-1.5294,0.05842 -2.73214,-1.99588 -2.6863,-4.58834c0.04582,-2.59248 1.32281,-4.74145 2.85223,-4.79985c1.5294,-0.05842 2.73212,1.99588 2.68629,4.58833z" data-paper-data="{&quot;origPos&quot;:null,&quot;origRot&quot;:0}" fill="#000000" stroke="none" stroke-width="0" stroke-linecap="butt"/><path d="M258.44424,162.7254c-0.04582,2.59248 -1.32281,4.74145 -2.85223,4.79985c-1.5294,0.05842 -2.73214,-1.99588 -2.6863,-4.58834c0.04582,-2.59248 1.32281,-4.74145 2.85223,-4.79985c1.5294,-0.05842 2.73212,1.99588 2.68629,4.58833z" data-paper-data="{&quot;origPos&quot;:null,&quot;origRot&quot;:0}" fill="#000000" stroke="none" stroke-width="0" stroke-linecap="butt"/><path d="M261.82326,171.44582c0,0 -7.87242,3.19908 -13.07659,2.75929c-5.13276,-0.43376 -11.90631,-3.59044 -11.90631,-3.59044" data-paper-data="{&quot;origPos&quot;:null,&quot;origRot&quot;:0}" fill="none" stroke="#000000" stroke-width="1.5" stroke-linecap="round"/><path d="M244.00444,160.82127c-0.01857,1.05118 -0.53637,1.92254 -1.1565,1.9462c-0.62014,0.02368 -1.1078,-0.80928 -1.08922,-1.86045c0.01857,-1.05118 0.53637,-1.92254 1.1565,-1.9462c0.62014,-0.02368 1.1078,0.80928 1.08922,1.86045z" data-paper-data="{&quot;origPos&quot;:null,&quot;origRot&quot;:0}" fill="#ffffff" stroke="none" stroke-width="0" stroke-linecap="butt"/><path d="M256.10771,161.32353c-0.01857,1.05118 -0.53637,1.92254 -1.1565,1.9462c-0.62014,0.02368 -1.1078,-0.80928 -1.08922,-1.86045c0.01857,-1.05118 0.53637,-1.92254 1.1565,-1.9462c0.62014,-0.02368 1.1078,0.80928 1.08922,1.86045z" data-paper-data="{&quot;origPos&quot;:null,&quot;origRot&quot;:0}" fill="#ffffff" stroke="none" stroke-width="0" stroke-linecap="butt"/></g></g></svg>