<svg version="1.1" xmlns="http://www.w3.org/2000/svg" xmlns:xlink="http://www.w3.org/1999/xlink" width="63.33379" height="79.92968" viewBox="0,0,63.33379,79.92968"><defs><linearGradient x1="240.19427" y1="191.00523" x2="240.19427" y2="207.4082" gradientUnits="userSpaceOnUse" id="color-1"><stop offset="0" stop-color="#24693c"/><stop offset="1" stop-color="#4ecc71"/></linearGradient><radialGradient cx="243.97279" cy="173.11531" r="21.1235" gradientUnits="userSpaceOnUse" id="color-2"><stop offset="0" stop-color="#b3fa98"/><stop offset="1" stop-color="#05ac26"/></radialGradient><radialGradient cx="244.65752" cy="151.86563" r="14.99911" gradientUnits="userSpaceOnUse" id="color-3"><stop offset="0" stop-color="#036617"/><stop offset="1" stop-color="#037019"/></radialGradient><radialGradient cx="245.39564" cy="172.39018" r="6.67932" gradientUnits="userSpaceOnUse" id="color-4"><stop offset="0" stop-color="#adeba3"/><stop offset="1" stop-color="#32c144"/></radialGradient><linearGradient x1="237.97382" y1="178.86449" x2="231.99867" y2="195.63292" gradientUnits="userSpaceOnUse" id="color-5"><stop offset="0" stop-color="#a8d9ab"/><stop offset="1" stop-color="#50d844"/></linearGradient><radialGradient cx="243.17311" cy="173.15489" r="11.33088" gradientUnits="userSpaceOnUse" id="color-6"><stop offset="0" stop-color="#a5f48f"/><stop offset="1" stop-color="#32c144"/></radialGradient><linearGradient x1="255.72738" y1="165.32558" x2="249.81475" y2="181.91855" gradientUnits="userSpaceOnUse" id="color-7"><stop offset="0" stop-color="#baffa7"/><stop offset="1" stop-color="#82ff63"/></linearGradient><radialGradient cx="217.79843" cy="136.39443" r="10.59119" gradientUnits="userSpaceOnUse" id="color-8"><stop offset="0" stop-color="#c8d6ca"/><stop offset="1" stop-color="#05ad27"/></radialGradient><radialGradient cx="210.87939" cy="136.95523" r="9.57427" gradientUnits="userSpaceOnUse" id="color-9"><stop offset="0" stop-color="#83dd6c"/><stop offset="1" stop-color="#28bd46"/></radialGradient><radialGradient cx="220.48637" cy="142.70578" r="7.29369" gradientUnits="userSpaceOnUse" id="color-10"><stop offset="0" stop-color="#83dd6c"/><stop offset="1" stop-color="#5dc572"/></radialGradient><linearGradient x1="214.94955" y1="138.92552" x2="209.74024" y2="150.39823" gradientUnits="userSpaceOnUse" id="color-11"><stop offset="0" stop-color="#53db7a"/><stop offset="1" stop-color="#24693c"/></linearGradient></defs><g transform="translate(-202.67068,-127.96548)"><g data-paper-data="{&quot;isPaintingLayer&quot;:true}" fill="none" fill-rule="nonzero" stroke="none" stroke-width="none" stroke-linecap="none" stroke-linejoin="miter" stroke-miterlimit="10" stroke-dasharray="" stroke-dashoffset="0" font-family="none" font-weight="none" font-size="none" text-anchor="none" style="mix-blend-mode: normal"><path d="M265.50447,196.78897c0,2.05192 -4.46233,5.3969 -5.99869,5.1516c-2.211,-0.35301 -7.33647,-4.94385 -7.33647,-4.94385c0,0 3.94658,2.47919 5.06352,4.47218c1.09713,1.95763 1.60555,5.11132 -0.57043,5.66005c-0.81875,0.20647 -2.25973,-4.07958 -3.04313,-3.76452c-0.51129,0.20562 -0.20078,0.90011 -0.39866,1.41446c-0.48513,1.26101 -0.65474,2.07082 -2.00368,2.1474c-2.54931,0.14472 -1.21167,-3.82453 -3.65419,-3.08021c-1.3397,0.40825 -1.1077,1.11468 -2.17422,2.02242c-2.09749,1.78521 -2.63345,1.52666 -5.3878,1.52666c-3.37785,0 -7.03408,-6.82012 -7.03408,-6.82012c0,0 -9.27918,5.80446 -14.23348,3.40515c-1.85279,-0.89729 1.05445,-3.69416 2.6697,-4.97045c1.36434,-1.07803 4.18869,-1.43148 4.18869,-1.43148c0,0 -4.97845,1.0473 -7.10801,0.24077c-1.79846,-0.68114 -3.59951,-2.29397 -3.59951,-4.2171c0,-1.27932 7.86551,-0.1749 7.86551,-0.1749c0,0 -3.96234,-1.47362 -2.2704,-1.93843c6.91241,-1.899 31.59011,2.37702 33.85978,2.86475c0.75656,0.16258 7.08018,-1.36996 7.557,-0.76049c0.73094,0.93429 -2.67507,3.70814 -2.67507,3.70814c0,0 6.28359,-4.13562 6.28359,-0.51203z" data-paper-data="{&quot;origPos&quot;:null}" fill="url(#color-1)" stroke="#0f2c13" stroke-width="1" stroke-linecap="butt"/><path d="M225.32958,167.80411l0.92852,-2.60579l2.34521,0.83567l-0.92852,2.60579z" data-paper-data="{&quot;origPos&quot;:null,&quot;origRot&quot;:0}" fill="#1c5324" stroke="none" stroke-width="0" stroke-linecap="butt"/><path d="M262.96704,186.75303c-3.6703,10.30016 -15.11842,15.63098 -26.84709,11.45168c-11.72867,-4.17931 -15.67329,-14.99505 -12.00302,-25.29523c2.56506,-7.19848 5.30727,-8.90595 9.12214,-8.99481c2.76217,-0.06434 2.6162,-3.63468 4.19539,-5.90182c0.8942,-1.28376 2.73028,-2.42272 3.72165,-1.2124c1.52694,1.8642 3.15497,5.23673 3.15497,5.23673c0,0 2.0575,-4.06199 3.59583,-1.86615c1.72756,2.46598 3.28133,3.78086 4.43109,6.06497c0,0 14.29939,10.21689 10.62911,20.51705z" data-paper-data="{&quot;origPos&quot;:null,&quot;origRot&quot;:0}" fill="url(#color-2)" stroke="#000000" stroke-width="1.5" stroke-linecap="butt"/><path d="M251.18925,189.05896c-0.49729,2.21882 -1.97385,3.83922 -3.29792,3.6192c-1.32408,-0.21996 -1.99431,-2.19706 -1.497,-4.41587c0.49729,-2.21882 1.97385,-3.83922 3.29792,-3.6192c1.32408,0.21996 1.9943,2.19705 1.49698,4.41587z" data-paper-data="{&quot;origPos&quot;:null,&quot;origRot&quot;:0}" fill="#000000" stroke="none" stroke-width="0" stroke-linecap="butt"/><path d="M257.30458,189.21327c-0.39509,1.66674 -1.52222,2.87367 -2.51754,2.69573c-0.99534,-0.17794 -1.48193,-1.67332 -1.08686,-3.3401c0.39509,-1.66674 1.52221,-2.87368 2.51754,-2.69573c0.99534,0.17794 1.48197,1.67335 1.08689,3.34008z" data-paper-data="{&quot;origPos&quot;:null,&quot;origRot&quot;:0}" fill="#000000" stroke="none" stroke-width="0" stroke-linecap="butt"/><path d="M244.45755,162.97193c0.62601,-0.98891 2.52417,-0.86158 2.52829,-0.83903c0.94926,0.13323 1.00053,0.59792 1.02315,1.07956c0.06788,1.44489 3.0246,5.83256 3.0246,5.83256c0,0 -7.81932,-4.10906 -6.57604,-6.07309z" data-paper-data="{&quot;origPos&quot;:null,&quot;index&quot;:null,&quot;origRot&quot;:0}" fill="#287732" stroke="none" stroke-width="0" stroke-linecap="butt"/><path d="M241.72036,166.60181l1.21605,-13.95985c0,0 -1.98634,-2.03389 -4.31441,-2.39692c-5.75991,-0.89821 -15.79754,-0.55682 -15.79754,-0.55682l2.71553,-2.25589c0,0 7.1175,-0.29703 11.50706,0.22557c4.22233,0.50268 9.18696,3.25576 9.18696,3.25576l0.04152,19.68525z" data-paper-data="{&quot;origPos&quot;:null,&quot;origRot&quot;:0}" fill="url(#color-3)" stroke="#0f2c13" stroke-width="0.5" stroke-linecap="butt"/><path d="M240.60121,174.0832c0,0 0.02759,-7.9262 4.46302,-9.65566c1.29851,0.63072 1.20737,1.3788 2.64372,1.70966c0.79522,0.18317 -0.27231,-3.60013 0.53333,-3.47035c1.28311,0.20672 2.87474,1.67784 3.67699,2.70036c1.42634,1.81792 3.40329,4.07859 3.40329,4.07859c0,0 -2.2013,2.95991 -6.45676,4.6192c-2.51694,0.98139 -8.26359,0.01823 -8.26359,0.01823z" data-paper-data="{&quot;origPos&quot;:null,&quot;origRot&quot;:0}" fill="url(#color-4)" stroke="#256d2f" stroke-width="0.5" stroke-linecap="butt"/><path d="M249.67597,187.94189c-0.22561,1.00654 -0.89542,1.74161 -1.49608,1.64183c-0.60066,-0.09979 -0.90469,-0.99668 -0.67908,-2.00321c0.22561,-1.00654 0.89542,-1.74161 1.49608,-1.64183c0.60066,0.09979 0.90469,0.99668 0.67908,2.0032z" data-paper-data="{&quot;origPos&quot;:null,&quot;origRot&quot;:0}" fill="#ffffff" stroke="none" stroke-width="0" stroke-linecap="butt"/><path d="M256.07247,187.99312c-0.13472,0.56841 -0.51911,0.98 -0.85855,0.91933c-0.33941,-0.06067 -0.50537,-0.57064 -0.37065,-1.13905c0.13472,-0.56841 0.51911,-0.98 0.85855,-0.91933c0.33941,0.06067 0.50537,0.57065 0.37064,1.13905z" data-paper-data="{&quot;origPos&quot;:null,&quot;origRot&quot;:0}" fill="#ffffff" stroke="none" stroke-width="0" stroke-linecap="butt"/><path d="M236.71537,165.28069c0,0 1.36412,-5.48925 2.3304,-6.56561c0.32209,-0.35879 0.79034,-1.06436 1.61,-0.56729c0.01744,-0.01487 1.51454,1.23805 1.37412,2.40002c-0.27885,2.30767 -0.35705,0.70575 -0.35705,0.70575z" data-paper-data="{&quot;origPos&quot;:null,&quot;origRot&quot;:0}" fill="#287732" stroke="none" stroke-width="0" stroke-linecap="butt"/><path d="M243.23468,181.34376c0,0 2.75577,-4.9505 4.28074,-4.24118c3.14747,1.46404 3.629,5.73143 3.629,5.73143c0,0 -2.28605,-2.20362 -3.66164,-2.4628c-1.71128,-0.32241 -4.2481,0.97253 -4.2481,0.97253z" data-paper-data="{&quot;origPos&quot;:null,&quot;origRot&quot;:0}" fill="#05ac26" stroke="#000000" stroke-width="0.5" stroke-linecap="butt"/><path d="M255.36613,183.28674c0,0 1.57531,-3.1983 3.48426,-3.50946c1.80089,-0.29353 3.11058,4.7944 3.11058,4.7944c0,0 -1.60493,-1.96555 -3.0275,-2.28862z" data-paper-data="{&quot;origPos&quot;:null,&quot;index&quot;:null,&quot;origRot&quot;:0}" fill="#05ac26" stroke="#000000" stroke-width="0.5" stroke-linecap="butt"/><path d="M227.41095,191.03398c-6.91265,-8.33733 -2.6066,-16.86219 -2.6066,-16.86219c0,0 0.93679,2.79261 2.10502,4.48808c2.02849,2.94401 3.99974,4.50245 6.29005,7.24771c0.79791,0.95638 2.79026,2.00924 3.44278,3.07013c0.7036,1.14397 0.45488,2.28809 0.81571,3.58173c0.26137,0.93711 0.89989,1.06209 1.57074,1.76672c2.24739,2.3606 6.74291,4.45457 6.74291,4.45457c0,0 -11.44791,0.59062 -18.36057,-7.74673z" data-paper-data="{&quot;origPos&quot;:null,&quot;origRot&quot;:0}" fill="url(#color-5)" stroke="#287732" stroke-width="0" stroke-linecap="butt"/><path d="M223.66389,177.20077c0,0 -0.6596,-7.09346 1.94815,-10.19125c2.60776,-3.09779 5.21974,-0.12336 7.25077,-0.87153c2.13354,-0.78591 2.42995,-0.68977 4.43551,-1.76093c1.53101,-0.81767 2.19838,-3.59944 3.86961,-4.06808c1.15965,-0.32518 1.65721,0.8082 2.68911,1.42923c1.12704,0.6783 -0.2123,4.73922 -0.2123,4.73922c0,0 2.90159,0.44283 1.77382,2.34276c-0.97143,1.63654 -1.85057,0.54155 -2.39293,2.36577c-0.65293,2.19606 2.58489,0.57492 1.6095,2.64801c-1.51407,3.218 -2.361,4.69751 -5.38913,6.56257c0,0 -5.95795,0.09372 -8.8704,-0.57943c-3.51662,-0.81277 -6.71177,-2.61635 -6.71177,-2.61635z" data-paper-data="{&quot;origPos&quot;:null,&quot;origRot&quot;:0}" fill="url(#color-6)" stroke="#256d2f" stroke-width="0.5" stroke-linecap="butt"/><path d="M222.1111,180.9232c-0.12994,-2.1721 1.02199,-2.41032 0.627,-4.47783c-0.17234,-0.9021 -0.79241,-0.59244 -1.62885,-0.97172c-1.1382,-0.51612 -2.63012,-1.04724 -2.48775,-2.28884c0.15953,-1.39101 2.94999,-2.39339 2.94999,-2.39339c0,0 -3.92252,-1.96195 -2.81833,-4.63585c1.14508,-2.77287 5.10902,-1.24659 5.72079,-1.75713c1.02962,-0.85927 0.68839,-2.26782 2.01862,-2.09786c0.85513,0.10926 1.53023,3.35647 1.74301,2.52103c0.27558,-1.08213 3.14732,1.23736 3.14732,1.23736l-2.88636,0.62732c0,0 -2.36721,-0.2092 -2.85932,1.70145c-0.93634,3.63548 -1.49582,3.20907 -0.0465,6.67215c0.71587,1.71053 1.72314,5.89 3.60112,6.06879c0.20494,1.80355 2.50735,2.58934 3.71415,3.94522c1.56751,1.7611 3.88199,4.55208 3.88199,4.55208c0,0 -2.265,-1.88311 -3.24523,-2.16216c-2.77069,-0.78871 -2.57098,0.08615 -4.7865,-1.7551c-0.95384,-0.7927 -0.82025,-1.97023 -1.83203,-2.6875c-2.30733,-1.63575 -4.68316,0.07408 -4.81312,-2.09803z" data-paper-data="{&quot;origPos&quot;:null,&quot;origRot&quot;:0}" fill="#98ff7e" stroke="#256d2f" stroke-width="1" stroke-linecap="butt"/><path d="M241.09411,178.8111c0,0 1.07064,-0.92279 1.5074,-1.59148c0.67212,-1.02911 1.48936,-2.63398 1.48936,-2.63398c0.95076,-0.91202 1.68345,-0.96326 2.81121,-1.64431c1.03254,-0.62356 2.62999,-1.81159 2.62999,-1.81159c1.24031,-0.71796 6.10594,-2.09192 6.10594,-2.09192l-2.98397,-3.06315c0,0 1.43223,-0.13285 2.19316,-0.12554c4.35905,0.04193 9.39664,2.30766 8.71833,5.04426c-0.41353,1.6683 -3.49136,-1.2339 -5.93143,0.17855c-1.02841,0.59531 -0.22005,3.21291 -1.53697,3.99414c-1.07585,0.63822 -2.93344,-2.92463 -4.01747,-2.3004c-0.7634,0.4396 -1.2755,2.77269 -2.064,3.01834c-1.24805,0.38882 -0.97252,-0.24278 -2.07069,-0.95191c-0.46763,-0.30198 -0.91722,-0.11573 -1.41826,0.12684c-2.06854,1.00147 -0.99186,2.34412 -3.10258,3.25332c-1.47803,0.63667 -2.32998,0.59882 -2.32998,0.59882z" data-paper-data="{&quot;origPos&quot;:null,&quot;origRot&quot;:0}" fill="url(#color-7)" stroke="#256d2f" stroke-width="1" stroke-linecap="butt"/><path d="M256.36481,167.37515c0,0 3.18938,1.2958 2.19616,1.49977c-3.29576,0.67682 -4.72544,0.1555 -7.80328,1.51463c-1.57476,0.6954 -3.20278,2.20041 -4.72772,2.99917c-4.17939,2.18919 -2.61937,5.34634 -7.11129,6.78951c-3.36321,1.08053 -10.63998,-0.71251 -10.63998,-0.71251" data-paper-data="{&quot;origPos&quot;:null,&quot;origRot&quot;:0}" fill="none" stroke="#287732" stroke-width="0.5" stroke-linecap="round"/><path d="M245.87561,198.77275c0,0 -2.27731,-1.18452 -3.737,-2.20771c-1.56843,-1.09942 -2.56392,-1.9984 -3.90884,-3.36217c-2.33402,-2.36672 0.02141,-2.2993 -2.16625,-4.80194c-3.0998,-3.54611 -7.24848,-6.96467 -9.5879,-11.05254c-1.72614,-3.01628 -2.45067,-7.67679 0.0965,-9.9765c1.06229,-0.95911 1.94947,-0.80478 1.94947,-0.80478" data-paper-data="{&quot;origPos&quot;:null,&quot;origRot&quot;:0}" fill="none" stroke="#287732" stroke-width="0.5" stroke-linecap="round"/><path d="M225.08138,147.9001c-3.22315,5.09829 -10.37721,6.36031 -15.97903,2.81883c-5.60182,-3.5415 -7.53014,-10.54541 -4.30701,-15.64369c3.22315,-5.09829 23.50918,7.72656 20.28602,12.82485z" data-paper-data="{&quot;origPos&quot;:null,&quot;origRot&quot;:0}" fill="#2e8149" stroke="#0f2c13" stroke-width="0.5" stroke-linecap="butt"/><path d="M205.34845,136.22562c2.41834,-5.32602 8.80089,-7.91338 14.12695,-5.49503c5.32602,2.41834 7.57867,8.92659 5.16032,14.25263c-2.41834,5.32602 -8.8009,7.91339 -14.12695,5.49504c-5.32602,-2.41834 -7.57866,-8.92658 -5.16031,-14.25263z" data-paper-data="{&quot;origPos&quot;:null,&quot;origRot&quot;:0}" fill="url(#color-8)" stroke="#000000" stroke-width="1" stroke-linecap="butt"/><path d="M218.86732,149.7183c-2.56267,1.07967 -3.04112,0.6368 -4.35109,0.01184c-2.5041,-1.1947 -5.39572,-4.82422 -5.39572,-4.82422c0,0 4.3196,0.99994 6.9914,0.22208c2.38187,-0.69345 3.97281,-2.24888 4.34204,-4.70198c0.24362,-1.61876 -0.33143,-3.03113 0.31731,-4.53411c0.36484,-0.84522 2.07957,-1.55375 2.07957,-1.55375c0,0 0.20733,0.90198 1.29624,2.40819c0.731,1.01114 0.55894,2.63289 0.73339,3.86835c0.23705,1.67859 -0.39167,2.80503 -1.09253,4.34863c-1.579,3.47754 -2.52519,3.7458 -4.92062,4.755z" data-paper-data="{&quot;origPos&quot;:null,&quot;index&quot;:null,&quot;origRot&quot;:0}" fill="#27b33c" stroke="#1c802b" stroke-width="0.5" stroke-linecap="butt"/><path d="M205.94438,136.61193c0.84994,-1.87182 1.84188,-3.13355 3.56361,-4.25683c1.26721,-0.82673 2.86453,-1.60157 4.37113,-1.74116c2.24424,-0.20793 5.16228,0.69863 5.16228,0.69863c0,0 -5.17848,3.40632 -6.29364,4.72206c-1.94506,2.29489 -2.09544,4.98882 -0.82757,7.71688c1.42218,3.06016 5.78256,6.20591 5.78256,6.20591c0,0 -5.6336,1.91944 -8.64771,-1.12927c0,0 -2.41216,-2.03744 -3.21196,-4.1235c-1.02408,-2.67102 -1.81346,-3.87578 0.10132,-8.09279z" data-paper-data="{&quot;origPos&quot;:null,&quot;origRot&quot;:0}" fill="#27b33c" stroke="#1c802b" stroke-width="0.5" stroke-linecap="butt"/><path d="M211.90481,137.14313c0,0 4.16117,-1.93194 5.66455,-1.2662c0.79935,0.35397 -0.10656,2.20251 0.29526,2.97891c0.39416,0.76156 0.95886,-0.25569 1.68258,0.20418c0.27949,0.17762 0.60358,1.73472 0.60358,1.73472" data-paper-data="{&quot;origPos&quot;:null,&quot;origRot&quot;:0}" fill="none" stroke="#1c802b" stroke-width="0.5" stroke-linecap="round"/><path d="M220.97757,132.65453c0,0 -1.07941,0.25468 -1.47104,0.67204c-0.45299,0.48274 0.65579,1.39871 0.31214,1.96454c-0.32249,0.53105 -2.06918,0.80341 -2.06918,0.80341" data-paper-data="{&quot;origPos&quot;:null,&quot;origRot&quot;:0}" fill="none" stroke="#1c802b" stroke-width="0.5" stroke-linecap="round"/><path d="M208.77299,137.1095c0.67519,-1.16181 0.80302,-0.08264 1.91159,-0.84214c0.42122,-0.28857 0.02073,-2.31567 0.43732,-2.61084c0.95929,-0.67972 1.09124,-0.0965 2.2108,-0.45537c1.20332,-0.3857 0.01045,-3.89126 1.1933,-4.33583c0.99328,-0.37335 0.85153,1.3665 1.77011,1.89771c0.62957,0.36407 1.47165,-2.55868 2.19884,-2.54751c0.63151,0.0097 0.11662,1.04111 0.20544,1.66646c0.03605,0.25374 1.33885,-0.33387 1.42715,-0.09326c0.09078,0.24733 0.73778,1.05653 0.57638,1.26475c-0.18532,0.23904 -0.50417,-0.52985 -0.80603,-0.54856c-0.33568,-0.0208 -0.79028,0.56005 -0.79028,0.56005c0,0 -4.11757,2.52798 -5.9383,4.45276c-1.55333,1.64209 -1.92929,2.63595 -2.10684,4.88937c-0.27367,3.47381 3.10631,6.83504 3.10631,6.83504c0,0 -6.90042,-7.54354 -5.39579,-10.1326z" data-paper-data="{&quot;origPos&quot;:null,&quot;origRot&quot;:0}" fill="url(#color-9)" stroke="#256d2f" stroke-width="0.5" stroke-linecap="butt"/><path d="M217.06957,145.13447c0,0 3.44845,-2.08991 3.69769,-4.62061c0.20681,-2.10009 -0.59702,-2.69028 0.17371,-4.54052c0.87056,-2.08986 2.45743,-2.12708 2.45743,-2.12708c0,0 -0.48971,-2.14559 -0.42794,-1.62493c0.09072,0.76494 1.61833,-0.15385 1.89267,0.56595c0.19049,0.49979 -0.23456,0.50784 -0.40118,1.68461c-0.05443,0.38445 0.55966,1.09524 0.3822,1.44055c-0.34398,0.66934 -1.41243,0.44996 -1.89143,1.03043c-0.67365,0.8164 1.13839,3.18094 0.71402,4.15055c-0.82321,1.88084 -0.50834,0.33722 -2.18455,1.16634c-1.50067,0.7423 1.04964,0.65671 0.23591,2.11986c-1.28252,2.30598 -4.6485,0.75478 -4.6485,0.75478z" data-paper-data="{&quot;origPos&quot;:null,&quot;origRot&quot;:0}" fill="url(#color-10)" stroke="#256d2f" stroke-width="0.5" stroke-linecap="butt"/><path d="M203.76563,136.09694c0.28471,-0.57721 1.12669,-1.62817 1.12669,-1.62817c0,0 0.74924,1.61692 0.73384,2.07004c-0.04622,1.35928 -0.73923,2.81644 -0.73923,2.81644c0,0 0.96848,-1.35267 2.54865,0.00383c0.50298,0.43177 -0.03524,2.34624 -0.03524,2.34624c0,0 2.81887,-1.07332 3.38339,0.38028c0.68471,1.76308 0.21613,3.45936 0.21613,3.45936c0,0 2.67493,-1.54528 3.43686,-0.99323c1.72277,1.24823 2.49648,2.703 2.49648,2.703c0,0 -1.27041,-1.63574 0.43791,-2.6625c1.25912,-0.75679 3.77677,1.49164 3.77677,1.49164c0,0 0.10539,-1.71158 0.85107,-2.28827c0.98615,-0.76262 1.61123,0.74096 1.61123,0.74096l1.19774,-1.68389c0,0 0.93203,3.18089 0.38952,4.506c-0.72482,1.77039 -2.10221,2.74341 -3.72775,3.75201c-3.57643,2.2191 -8.66802,2.14421 -12.25616,-0.0559c-1.9117,-1.17219 -2.76816,-2.37021 -4.2311,-4.06972c0,0 -1.91433,-2.94905 -2.06218,-5.46158c-0.10986,-1.86748 -0.00867,-3.69495 0.8454,-5.42658z" data-paper-data="{&quot;origPos&quot;:null,&quot;origRot&quot;:0}" fill="url(#color-11)" stroke="#0f2c13" stroke-width="0.5" stroke-linecap="butt"/></g></g></svg>