<svg version="1.1" xmlns="http://www.w3.org/2000/svg" xmlns:xlink="http://www.w3.org/1999/xlink" width="53.36367" height="60.33686" viewBox="0,0,53.36367,60.33686"><g transform="translate(-211.37791,-146.19693)"><g data-paper-data="{&quot;isPaintingLayer&quot;:true}" fill="none" fill-rule="nonzero" stroke="none" stroke-width="none" stroke-linecap="butt" stroke-linejoin="miter" stroke-miterlimit="10" stroke-dasharray="" stroke-dashoffset="0" font-family="none" font-weight="none" font-size="none" text-anchor="none" style="mix-blend-mode: normal"><path d="M230.94207,191.835c4.64145,1.06288 7.99149,3.72633 7.4825,5.949c-0.50899,2.22266 -4.68424,3.16286 -9.32569,2.09998c-4.64145,-1.06288 -7.48248,-5.94899 -7.48248,-5.94899c0,0 4.68422,-3.16287 9.32567,-2.09999z" data-paper-data="{&quot;origRot&quot;:0,&quot;origPos&quot;:null,&quot;index&quot;:null}" fill="#2bd900" stroke="#000000" stroke-width="1.5"/><path d="M255.57113,191.77543c0,0 -2.02903,5.27529 -6.44278,7.06178c-4.41376,1.78648 -8.68533,1.5213 -9.54083,-0.59234c-0.8555,-2.11362 2.02903,-5.2753 6.44279,-7.06179c4.41376,-1.78648 9.54082,0.59235 9.54082,0.59235z" data-paper-data="{&quot;origRot&quot;:0,&quot;origPos&quot;:null,&quot;index&quot;:null}" fill="#2bd900" stroke="#000000" stroke-width="1.5"/><path d="M238.20292,199.2141c0,0 -1.92044,-6.41611 -2.52926,-10.5387c-0.48064,-3.25468 -0.26233,-8.36465 -0.26233,-8.36465l4.28775,-0.61262c0,0 -0.99652,4.23254 -0.58638,7.00987c0.67931,4.59995 3.37796,11.89349 3.37796,11.89349z" data-paper-data="{&quot;origPos&quot;:null,&quot;origRot&quot;:0}" fill="#a9ff59" stroke="#000000" stroke-width="2"/><path d="M219.12487,151.71473c1.92019,3.6327 2.06658,7.32302 0.32697,8.24254c-1.73961,0.91952 -4.70645,-1.27994 -6.62663,-4.91265c-1.92019,-3.6327 -0.32697,-8.24254 -0.32697,-8.24254c0,0 4.70645,1.27994 6.62663,4.91265z" data-paper-data="{&quot;origRot&quot;:0,&quot;origPos&quot;:null}" fill="#2fe500" stroke="#000000" stroke-width="1"/><path d="M254.97728,167.44562c0,8.78187 -8.21877,15.90098 -18.35715,15.90098c-10.13837,0 -18.35715,-7.11911 -18.35715,-15.90098c0,-8.78187 8.21877,-15.90097 18.35715,-15.90097c10.13837,0 18.35715,7.11911 18.35715,15.90097z" data-paper-data="{&quot;origPos&quot;:null}" fill="#a9ff59" stroke="#000000" stroke-width="3"/><path d="M241.95271,162.3603c0.63467,2.1835 0.12291,4.31513 -1.14306,4.76112c-1.26596,0.44599 -2.80674,-0.96254 -3.44141,-3.14604c-0.63467,-2.1835 -0.12291,-4.31513 1.14306,-4.76112c1.26596,-0.44599 2.80673,0.96254 3.4414,3.14604z" data-paper-data="{&quot;origPos&quot;:null,&quot;origRot&quot;:0}" fill="#000000" stroke="none" stroke-width="0"/><path d="M247.98932,161.56677c0.4781,1.64486 0.09259,3.25062 -0.86107,3.58659c-0.95367,0.33597 -2.11433,-0.72509 -2.59243,-2.36995c-0.4781,-1.64486 -0.0926,-3.25062 0.86107,-3.58659c0.95367,-0.33597 2.11434,0.72509 2.59244,2.36995z" data-paper-data="{&quot;origPos&quot;:null,&quot;origRot&quot;:0}" fill="#000000" stroke="none" stroke-width="0"/><path d="M263.63764,172.78076c-0.56287,5.68305 -4.15618,9.99226 -8.0259,9.62487c-3.86972,-0.36739 -6.55045,-5.27224 -5.98758,-10.9553c0.56287,-5.68305 4.15619,-9.99226 8.0259,-9.62487c3.86971,0.36739 6.55044,5.27225 5.98757,10.9553z" data-paper-data="{&quot;origPos&quot;:null,&quot;origRot&quot;:0}" fill="#a9ff59" stroke="#000000" stroke-width="2"/><path d="M255.61859,171.89056c-0.23084,2.80439 -1.54152,4.98914 -2.9275,4.87979c-1.38597,-0.10935 -2.3224,-2.47142 -2.09156,-5.2758c0.23084,-2.80438 1.54152,-4.98914 2.92749,-4.87978c1.38597,0.10935 2.32241,2.47141 2.09157,5.2758z" data-paper-data="{&quot;origRot&quot;:0,&quot;origPos&quot;:null}" fill="#84c746" stroke="none" stroke-width="0"/><path d="M230.30256,196.69111c5.09914,-1.08555 9.65422,0.01394 10.17405,2.45579c0.51983,2.44184 -3.19241,5.30135 -8.29155,6.38689c-5.09914,1.08555 -10.17404,-2.45579 -10.17404,-2.45579c0,0 3.1924,-5.30135 8.29154,-6.38689z" data-paper-data="{&quot;origRot&quot;:0,&quot;origPos&quot;:null}" fill="#2fe500" stroke="#000000" stroke-width="2"/><path d="M256.93449,202.46867c0,0 -5.15783,3.41941 -10.22967,2.2127c-5.07184,-1.20671 -8.71491,-4.15384 -8.13704,-6.58261c0.57786,-2.42877 5.15784,-3.41943 10.22968,-2.21271c5.07184,1.20671 8.13703,6.58263 8.13703,6.58263z" data-paper-data="{&quot;origRot&quot;:0,&quot;origPos&quot;:null,&quot;index&quot;:null}" fill="#2fe500" stroke="#000000" stroke-width="2"/></g></g></svg>