<svg version="1.1" xmlns="http://www.w3.org/2000/svg" xmlns:xlink="http://www.w3.org/1999/xlink" width="61.69787" height="69.4178" viewBox="0,0,61.69787,69.4178"><g transform="translate(-205.04371,-138.27529)"><g data-paper-data="{&quot;isPaintingLayer&quot;:true}" fill="none" fill-rule="nonzero" stroke="none" stroke-width="none" stroke-linecap="butt" stroke-linejoin="miter" stroke-miterlimit="10" stroke-dasharray="" stroke-dashoffset="0" font-family="none" font-weight="none" font-size="none" text-anchor="none" style="mix-blend-mode: normal"><path d="M224.68416,161.67729c-1.59904,1.6745 -6.49198,1.85814 -10.41419,-1.11883c-3.9222,-2.97695 -4.90162,-12.01672 -4.90162,-12.01672c0,0 3.99316,2.65168 4.94604,2.70245c0,0 5.33066,-0.2978 7.36405,1.32422c2.67726,2.13562 4.60475,7.43438 3.00571,9.10888z" data-paper-data="{&quot;origRot&quot;:0,&quot;origPos&quot;:null}" fill="#26bd00" stroke="#000000" stroke-width="1"/><path d="M223.04413,163.34635c0.11192,2.31734 -2.59781,5.63667 -6.70014,5.91235c-4.10232,0.27569 -10.25244,-5.98928 -10.25244,-5.98928c0,0 3.9423,-0.57011 4.52347,-1.15048c0,0 2.89175,-3.69089 5.06713,-3.77375c2.8642,-0.1091 7.25007,2.68382 7.36198,5.00116z" data-paper-data="{&quot;origRot&quot;:0,&quot;origPos&quot;:null}" fill="#26bd00" stroke="#000000" stroke-width="1"/><path d="M225.45249,155.71108c-2.26546,0.62132 -6.42555,-1.25905 -8.00728,-5.15783c-1.58174,-3.89876 2.67853,-11.22295 2.67853,-11.22295c0,0 1.82308,3.67908 2.58469,4.11151c0,0 4.58709,1.97378 5.36297,4.05524c1.02156,2.74054 -0.35344,7.5927 -2.6189,8.21402z" data-paper-data="{&quot;origRot&quot;:0,&quot;origPos&quot;:null}" fill="#26bd00" stroke="#000000" stroke-width="1"/><path d="M229.80127,191.73725c4.75499,-0.25064 8.70698,1.39207 8.82701,3.66911c0.12002,2.27704 -3.63736,4.32613 -8.39235,4.57677c-4.75499,0.25064 -8.82699,-3.66911 -8.82699,-3.66911c0,0 3.63734,-4.32613 8.39233,-4.57677z" data-paper-data="{&quot;origRot&quot;:0,&quot;origPos&quot;:null,&quot;index&quot;:null}" fill="#2bd900" stroke="#000000" stroke-width="1.5"/><path d="M256.49775,193.55312c0,0 -2.81929,4.8987 -7.45597,5.98219c-4.63668,1.08349 -8.81607,0.16188 -9.33493,-2.05851c-0.51886,-2.22038 2.8193,-4.89871 7.45598,-5.9822c4.63668,-1.08349 9.33492,2.05852 9.33492,2.05852z" data-paper-data="{&quot;origRot&quot;:0,&quot;origPos&quot;:null,&quot;index&quot;:null}" fill="#2bd900" stroke="#000000" stroke-width="1.5"/><path d="M238.49253,197.92374c0,0 -1.61494,-6.49973 -2.02816,-10.6465c-0.32622,-3.27377 0.13345,-8.3677 0.13345,-8.3677l4.31192,-0.40921c0,0 -1.19552,4.18069 -0.91715,6.97431c0.46106,4.62692 2.81185,12.0399 2.81185,12.0399z" data-paper-data="{&quot;origPos&quot;:null,&quot;origRot&quot;:0}" fill="#a9ff59" stroke="#000000" stroke-width="2"/><path d="M256.97728,163.19562c0,8.78187 -8.21877,15.90098 -18.35715,15.90098c-10.13837,0 -18.35715,-7.11911 -18.35715,-15.90098c0,-8.78187 8.21877,-15.90097 18.35715,-15.90097c10.13837,0 18.35715,7.11911 18.35715,15.90097z" data-paper-data="{&quot;origPos&quot;:null}" fill="#a9ff59" stroke="#000000" stroke-width="3"/><path d="M243.95271,158.1103c0.63467,2.1835 0.12291,4.31513 -1.14306,4.76112c-1.26596,0.44599 -2.80674,-0.96254 -3.44141,-3.14604c-0.63467,-2.1835 -0.12291,-4.31513 1.14306,-4.76112c1.26596,-0.44599 2.80673,0.96254 3.4414,3.14604z" data-paper-data="{&quot;origPos&quot;:null,&quot;origRot&quot;:0}" fill="#000000" stroke="none" stroke-width="0"/><path d="M249.98932,157.31677c0.4781,1.64486 0.09259,3.25062 -0.86107,3.58659c-0.95367,0.33597 -2.11433,-0.72509 -2.59243,-2.36995c-0.4781,-1.64486 -0.0926,-3.25062 0.86107,-3.58659c0.95367,-0.33597 2.11434,0.72509 2.59244,2.36995z" data-paper-data="{&quot;origPos&quot;:null,&quot;origRot&quot;:0}" fill="#000000" stroke="none" stroke-width="0"/><path d="M265.63764,168.53076c-0.56287,5.68305 -4.15618,9.99226 -8.0259,9.62487c-3.86972,-0.36739 -6.55045,-5.27224 -5.98758,-10.9553c0.56287,-5.68305 4.15619,-9.99226 8.0259,-9.62487c3.86971,0.36739 6.55044,5.27225 5.98757,10.9553z" data-paper-data="{&quot;origPos&quot;:null,&quot;origRot&quot;:0}" fill="#a9ff59" stroke="#000000" stroke-width="2"/><path d="M257.61859,167.64056c-0.23084,2.80439 -1.54152,4.98914 -2.9275,4.87979c-1.38597,-0.10935 -2.3224,-2.47142 -2.09156,-5.2758c0.23084,-2.80438 1.54152,-4.98914 2.92749,-4.87978c1.38597,0.10935 2.32241,2.47141 2.09157,5.2758z" data-paper-data="{&quot;origRot&quot;:0,&quot;origPos&quot;:null}" fill="#84c746" stroke="none" stroke-width="0"/><path d="M229.39176,197.54538c4.72027,-2.2133 9.40601,-2.17512 10.4659,0.0853c1.05989,2.26041 -1.90743,5.88706 -6.6277,8.10036c-4.72027,2.2133 -10.46589,-0.0853 -10.46589,-0.0853c0,0 1.90742,-5.88706 6.62769,-8.10036z" data-paper-data="{&quot;origRot&quot;:0,&quot;origPos&quot;:null}" fill="#2fe500" stroke="#000000" stroke-width="2"/><path d="M256.23902,204.81241c0,0 -5.74562,2.29859 -10.46589,0.08529c-4.72027,-2.2133 -7.68759,-5.83995 -6.6277,-8.10036c1.05989,-2.26041 5.74563,-2.2986 10.4659,-0.0853c4.72027,2.2133 6.62769,8.10037 6.62769,8.10037z" data-paper-data="{&quot;origRot&quot;:0,&quot;origPos&quot;:null,&quot;index&quot;:null}" fill="#2fe500" stroke="#000000" stroke-width="2"/><path d="M235.11267,156.62592l-0.87316,-4.49052c0,0 4.76812,-0.08519 6.94175,0.7385c2.30405,0.87312 2.66298,4.0015 2.66298,4.0015c0,0 -1.14075,-1.49684 -3.86684,-1.49684c-1.89853,0 -4.86473,1.24737 -4.86473,1.24737z" data-paper-data="{&quot;origPos&quot;:null}" fill="#26bd00" stroke="#000000" stroke-width="0.5"/><path d="M248.55773,154.31266c-2.05336,0.41413 -2.70381,1.81535 -2.70381,1.81535c0,0 -0.16601,-2.62085 1.44767,-3.68712c1.52233,-1.00591 5.12569,-1.66038 5.12569,-1.66038l-0.03132,3.81638c0,0 -2.40821,-0.57265 -3.83823,-0.28423z" data-paper-data="{&quot;origPos&quot;:null,&quot;index&quot;:null,&quot;origRot&quot;:0}" fill="#26bd00" stroke="#000000" stroke-width="0.5"/></g></g></svg>