<svg version="1.1" xmlns="http://www.w3.org/2000/svg" xmlns:xlink="http://www.w3.org/1999/xlink" width="74.90436" height="64.87605"><g transform="translate(-202.89155,-146.6373)"><g data-paper-data="{&quot;isPaintingLayer&quot;:true}" fill="none" fill-rule="nonzero" stroke="none" stroke-width="none" stroke-linecap="butt" stroke-linejoin="miter" stroke-miterlimit="10" stroke-dasharray="" stroke-dashoffset="0" font-family="none" font-weight="none" font-size="none" text-anchor="none" style="mix-blend-mode: normal"><path d="M209.72057,202.82493l6.55223,-16.01341l-13.38125,-2.74721l11.76489,-8.44968l-8.9533,-9.76933l15.22691,5.01951l1.52445,-13.79639l13.19885,7.39734l6.43046,-15.9791l4.02534,18.52397l9.75564,-12.96246l4.21105,15.8651l6.94652,-12.94091l-1.76552,14.16877l11.85161,11.03996l-15.2656,5.32965l5.63948,15.50814l-10.74589,-8.584l0.26292,17.07847l-8.13255,-21.23576l-14.55179,18.28164l-2.85828,-18.4926z" data-paper-data="{&quot;origPos&quot;:null,&quot;origRot&quot;:0}" fill="#ffffff" stroke="none" stroke-width="NaN"/><path d="M235.9386,146.6373z" fill="#fff0a7" stroke="#000000" stroke-width="2"/><path d="M211.51571,201.47174l6.16379,-15.06404l-12.58794,-2.58433l11.0674,-7.94873l-8.42249,-9.19015l14.32417,4.72192l1.43407,-12.97846l12.41636,6.95879l6.04923,-15.03178l3.78669,17.42577l9.17728,-12.19398l3.96139,14.92453l6.53469,-12.17371l-1.66085,13.32877l11.14898,10.38545l-14.36057,5.01367l5.30514,14.58874l-10.1088,-8.0751l0.24733,16.06596l-7.65041,-19.97679l-13.68908,17.19781l-2.68882,-17.39625z" data-paper-data="{&quot;origPos&quot;:null,&quot;origRot&quot;:0}" fill="#ffc100" stroke="none" stroke-width="NaN"/><text transform="translate(212.19836,193.42705) rotate(-16.53542) scale(0.38812,0.38812)" font-size="40" xml:space="preserve" data-paper-data="{&quot;origPos&quot;:null,&quot;origRot&quot;:7.6329}" fill="#ffffff" fill-rule="nonzero" stroke="none" stroke-width="1" stroke-linecap="butt" stroke-linejoin="miter" stroke-miterlimit="10" stroke-dasharray="" stroke-dashoffset="0" font-family="Marker" font-weight="normal" text-anchor="start" style="mix-blend-mode: normal"><tspan x="0" dy="0">SPUDOW</tspan></text><text transform="translate(212.12718,192.85928) rotate(-16.53542) scale(0.38089,0.38089)" font-size="40" xml:space="preserve" data-paper-data="{&quot;origPos&quot;:null,&quot;origRot&quot;:7.6329}" fill="#e70000" fill-rule="nonzero" stroke="none" stroke-width="1" stroke-linecap="butt" stroke-linejoin="miter" stroke-miterlimit="10" stroke-dasharray="" stroke-dashoffset="0" font-family="Marker" font-weight="normal" text-anchor="start" style="mix-blend-mode: normal"><tspan x="0" dy="0">SPUDOW</tspan></text></g></g></svg>