<svg version="1.1" xmlns="http://www.w3.org/2000/svg" xmlns:xlink="http://www.w3.org/1999/xlink" width="59.56213" height="69.02597" viewBox="0,0,59.56213,69.02597"><g transform="translate(-210.65358,-137.03787)"><g data-paper-data="{&quot;isPaintingLayer&quot;:true}" fill="none" fill-rule="nonzero" stroke="none" stroke-width="none" stroke-linecap="butt" stroke-linejoin="miter" stroke-miterlimit="10" stroke-dasharray="" stroke-dashoffset="0" font-family="none" font-weight="none" font-size="none" text-anchor="none" style="mix-blend-mode: normal"><path d="M229.843,161.26925c-2.02065,1.13042 -6.75137,-0.13247 -9.62509,-4.13095c-2.87372,-3.99845 -1.15235,-12.9267 -1.15235,-12.9267c0,0 3.03716,3.70841 3.93301,4.03707c0,0 5.18265,1.28247 6.64935,3.43059c1.93112,2.82831 2.21572,8.45958 0.19507,9.59z" data-paper-data="{&quot;origRot&quot;:0,&quot;origPos&quot;:null}" fill="#26bd00" stroke="#000000" stroke-width="1"/><path d="M228.6357,160.13764c0.28516,2.30245 -2.16836,5.8154 -6.23851,6.39755c-4.07015,0.58216 -10.67221,-5.2046 -10.67221,-5.2046c0,0 3.88853,-0.86376 4.4246,-1.48603c0,0 2.6072,-3.89711 4.77026,-4.14266c2.84798,-0.32331 7.43071,2.13329 7.71586,4.43574z" data-paper-data="{&quot;origRot&quot;:0,&quot;origPos&quot;:null}" fill="#26bd00" stroke="#000000" stroke-width="1"/><path d="M231.46447,155.23851c-2.3425,-0.17623 -5.62861,-3.34539 -5.80798,-7.54898c-0.17939,-4.20357 6.29468,-9.66986 6.29468,-9.66986c0,0 0.48052,4.07779 1.05248,4.74104c0,0 3.65688,3.40065 3.68806,5.6218c0.04106,2.92446 -2.88473,7.03224 -5.22723,6.85601z" data-paper-data="{&quot;origRot&quot;:0,&quot;origPos&quot;:null}" fill="#26bd00" stroke="#000000" stroke-width="1"/><path d="M231.27052,191.15242c4.70339,0.74227 8.22807,3.16986 7.87262,5.42219c-0.35546,2.25233 -4.45647,3.47645 -9.15983,2.73419c-4.70339,-0.74227 -7.87259,-5.4222 -7.87259,-5.4222c0,0 4.45645,-3.47647 9.15981,-2.7342z" data-paper-data="{&quot;origRot&quot;:0,&quot;origPos&quot;:null,&quot;index&quot;:null}" fill="#2bd900" stroke="#000000" stroke-width="1.5"/><path d="M255.90996,195.1778c0,0 -3.48248,4.45173 -8.22567,4.86994c-4.7432,0.41821 -8.75067,-1.08407 -8.95094,-3.35547c-0.20028,-2.2714 3.48251,-4.45175 8.22568,-4.86996c4.7432,-0.41821 8.95093,3.35548 8.95093,3.35548z" data-paper-data="{&quot;origRot&quot;:0,&quot;origPos&quot;:null,&quot;index&quot;:null}" fill="#2bd900" stroke="#000000" stroke-width="1.5"/><path d="M238.30398,198.53544c0,0 -0.73502,-7.08044 -0.56873,-11.51179c0.13129,-3.49845 1.33117,-8.80727 1.33117,-8.80727l4.49683,0.16875c0,0 -1.82704,4.24312 -1.93908,7.22845c-0.18554,4.94443 1.17662,13.09059 1.17662,13.09059z" data-paper-data="{&quot;origPos&quot;:null,&quot;origRot&quot;:0}" fill="#a9ff59" stroke="#000000" stroke-width="2"/><path d="M261.52548,164.04112c-0.03766,8.78179 -8.28689,15.8656 -18.42518,15.8221c-10.13828,-0.04347 -18.32646,-7.19778 -18.28879,-15.97957c0.03766,-8.78179 8.28689,-15.86559 18.42518,-15.82209c10.13828,0.04347 18.32646,7.19778 18.28879,15.97956z" data-paper-data="{&quot;origPos&quot;:null,&quot;origRot&quot;:0}" fill="#a9ff59" stroke="#000000" stroke-width="3"/><path d="M269.21571,169.55802c-0.52102,5.21655 -3.72559,9.15955 -7.1576,8.80695c-3.43201,-0.35265 -5.7918,-4.86732 -5.2708,-10.08386c0.52102,-5.21655 3.7256,-9.15957 7.1576,-8.80695c3.432,0.35263 5.79178,4.86731 5.2708,10.08386z" data-paper-data="{&quot;origPos&quot;:null,&quot;origRot&quot;:0}" fill="#a9ff59" stroke="#000000" stroke-width="2"/><path d="M262.10417,168.70898c-0.21548,2.57437 -1.38671,4.57548 -2.616,4.46958c-1.22928,-0.10588 -2.05114,-2.27866 -1.83566,-4.85303c0.21548,-2.57437 1.38671,-4.57548 2.61599,-4.46956c1.22928,0.10588 2.05117,2.27866 1.83567,4.85303z" data-paper-data="{&quot;origRot&quot;:0,&quot;origPos&quot;:null}" fill="#84c746" stroke="none" stroke-width="0"/><path d="M229.73702,195.47394c5.11563,-1.00495 9.65279,0.16627 10.13405,2.61602c0.48124,2.44973 -3.27567,5.25031 -8.3913,6.25527c-5.11563,1.00495 -10.13404,-2.61602 -10.13404,-2.61602c0,0 3.27566,-5.25032 8.39129,-6.25527z" data-paper-data="{&quot;origRot&quot;:0,&quot;origPos&quot;:null}" fill="#2fe500" stroke="#000000" stroke-width="2"/><path d="M256.6036,202.97792c0,0 -5.32129,3.15902 -10.32694,1.70191c-5.00563,-1.45712 -8.49786,-4.58154 -7.80007,-6.97861c0.69777,-2.39706 5.32131,-3.15904 10.32695,-1.70192c5.00563,1.45712 7.80006,6.97862 7.80006,6.97862z" data-paper-data="{&quot;origRot&quot;:0,&quot;origPos&quot;:null,&quot;index&quot;:null}" fill="#2fe500" stroke="#000000" stroke-width="2"/><path d="M248.61583,157.55068c0.37594,2.24257 -0.38069,4.30007 -1.69,4.59552c-1.3093,0.29546 -2.67549,-1.28301 -3.05143,-3.52558c-0.37594,-2.24257 0.38069,-4.30007 1.69,-4.59552c1.3093,-0.29546 2.67548,1.28301 3.05141,3.52557z" data-paper-data="{&quot;origPos&quot;:null,&quot;origRot&quot;:0}" fill="#000000" stroke="none" stroke-width="0"/><path d="M254.70378,157.46589c0.2832,1.68936 -0.28677,3.23926 -1.27308,3.46183c-0.98632,0.22256 -2.01544,-0.96649 -2.29865,-2.65586c-0.2832,-1.68936 0.28676,-3.23926 1.27308,-3.46183c0.98632,-0.22256 2.01546,0.9665 2.29867,2.65586z" data-paper-data="{&quot;origPos&quot;:null,&quot;origRot&quot;:0}" fill="#000000" stroke="none" stroke-width="0"/><path d="M240.95809,154.2285l0.14152,-4.57243c0,0 4.6689,0.97137 6.60656,2.25535c2.05392,1.36103 1.71213,4.49134 1.71213,4.49134c0,0 -0.78149,-1.71205 -3.44008,-2.31492c-1.85152,-0.41985 -5.02013,0.14067 -5.02013,0.14067z" data-paper-data="{&quot;origPos&quot;:null,&quot;origRot&quot;:0}" fill="#26bd00" stroke="#000000" stroke-width="0.5"/><path d="M254.09421,154.83526c-2.0941,-0.05021 -3.03832,1.17246 -3.03832,1.17246c0,0 0.41769,-2.59267 2.22722,-3.27568c1.70709,-0.64435 5.36597,-0.48575 5.36597,-0.48575l-0.87452,3.71496c0,0 -2.22195,-1.09104 -3.68035,-1.126z" data-paper-data="{&quot;origPos&quot;:null,&quot;index&quot;:null,&quot;origRot&quot;:0}" fill="#26bd00" stroke="#000000" stroke-width="0.5"/></g></g></svg>