<svg version="1.1" xmlns="http://www.w3.org/2000/svg" xmlns:xlink="http://www.w3.org/1999/xlink" width="53.58841" height="83.10064" viewBox="0,0,53.58841,83.10064"><defs><linearGradient x1="240.19427" y1="191.00524" x2="240.19427" y2="207.40821" gradientUnits="userSpaceOnUse" id="color-1"><stop offset="0" stop-color="#24693c"/><stop offset="1" stop-color="#4ecc71"/></linearGradient><radialGradient cx="243.80937" cy="173.13678" r="21.1235" gradientUnits="userSpaceOnUse" id="color-2"><stop offset="0" stop-color="#b3fa98"/><stop offset="1" stop-color="#05ac26"/></radialGradient><radialGradient cx="248.11678" cy="155.92147" r="14.99911" gradientUnits="userSpaceOnUse" id="color-3"><stop offset="0" stop-color="#036617"/><stop offset="1" stop-color="#037019"/></radialGradient><radialGradient cx="245.23679" cy="172.42069" r="6.67932" gradientUnits="userSpaceOnUse" id="color-4"><stop offset="0" stop-color="#adeba3"/><stop offset="1" stop-color="#32c144"/></radialGradient><linearGradient x1="237.77405" y1="178.84779" x2="231.69265" y2="195.57799" gradientUnits="userSpaceOnUse" id="color-5"><stop offset="0" stop-color="#a8d9ab"/><stop offset="1" stop-color="#50d844"/></linearGradient><radialGradient cx="243.00946" cy="173.17129" r="11.33088" gradientUnits="userSpaceOnUse" id="color-6"><stop offset="0" stop-color="#a5f48f"/><stop offset="1" stop-color="#32c144"/></radialGradient><linearGradient x1="255.61313" y1="165.42177" x2="249.59537" y2="181.9769" gradientUnits="userSpaceOnUse" id="color-7"><stop offset="0" stop-color="#baffa7"/><stop offset="1" stop-color="#82ff63"/></linearGradient><linearGradient x1="225.18023" y1="133.03208" x2="216.1433" y2="141.81239" gradientUnits="userSpaceOnUse" id="color-8"><stop offset="0" stop-color="#53db7a"/><stop offset="1" stop-color="#24693c"/></linearGradient></defs><g transform="translate(-212.41605,-124.79453)"><g data-paper-data="{&quot;isPaintingLayer&quot;:true}" fill="none" fill-rule="nonzero" stroke="none" stroke-width="none" stroke-linecap="none" stroke-linejoin="miter" stroke-miterlimit="10" stroke-dasharray="" stroke-dashoffset="0" font-family="none" font-weight="none" font-size="none" text-anchor="none" style="mix-blend-mode: normal"><path d="M265.50447,196.78898c0,2.05192 -4.46233,5.3969 -5.99869,5.1516c-2.211,-0.35301 -7.33647,-4.94385 -7.33647,-4.94385c0,0 3.94658,2.47919 5.06352,4.47218c1.09713,1.95763 1.60555,5.11132 -0.57043,5.66005c-0.81875,0.20647 -2.25973,-4.07958 -3.04313,-3.76452c-0.51129,0.20562 -0.20078,0.90011 -0.39866,1.41446c-0.48513,1.26101 -0.65474,2.07082 -2.00368,2.1474c-2.54931,0.14472 -1.21167,-3.82453 -3.65419,-3.08021c-1.3397,0.40825 -1.1077,1.11468 -2.17422,2.02242c-2.09749,1.78521 -2.63345,1.52666 -5.3878,1.52666c-3.37785,0 -7.03408,-6.82012 -7.03408,-6.82012c0,0 -9.27918,5.80446 -14.23348,3.40515c-1.85279,-0.89729 1.05445,-3.69416 2.6697,-4.97045c1.36434,-1.07803 4.18869,-1.43148 4.18869,-1.43148c0,0 -4.97845,1.0473 -7.10801,0.24077c-1.79846,-0.68114 -3.59951,-2.29397 -3.59951,-4.2171c0,-1.27932 7.86551,-0.1749 7.86551,-0.1749c0,0 -3.96234,-1.47362 -2.2704,-1.93843c6.91241,-1.899 31.59011,2.37702 33.85978,2.86475c0.75656,0.16258 7.08018,-1.36996 7.557,-0.76049c0.73094,0.93429 -2.67507,3.70814 -2.67507,3.70814c0,0 6.28359,-4.13562 6.28359,-0.51203z" data-paper-data="{&quot;origPos&quot;:null}" fill="url(#color-1)" stroke="#0f2c13" stroke-width="1" stroke-linecap="butt"/><path d="M225.20022,167.70743l0.94503,-2.59984l2.33987,0.85053l-0.94503,2.59984z" data-paper-data="{&quot;origPos&quot;:null,&quot;origRot&quot;:0}" fill="#1c5324" stroke="none" stroke-width="0" stroke-linecap="butt"/><path d="M262.71673,186.89471c-3.73556,10.27667 -15.21727,15.53476 -26.91919,11.28116c-11.70193,-4.25363 -15.57786,-15.09417 -11.84232,-25.37086c2.61067,-7.18206 5.36365,-8.8721 9.17902,-8.93676c2.76252,-0.04682 2.6392,-3.61801 4.23274,-5.87509c0.90233,-1.27806 2.7456,-2.40535 3.72927,-1.18877c1.51508,1.87385 3.12169,5.25663 3.12169,5.25663c0,0 2.08323,-4.04886 3.6076,-1.8433c1.71189,2.47689 3.25728,3.8016 4.39253,6.09295c0,0 14.23429,10.30739 10.49875,20.58406z" data-paper-data="{&quot;origPos&quot;:null,&quot;origRot&quot;:0}" fill="url(#color-2)" stroke="#000000" stroke-width="1.5" stroke-linecap="butt"/><path d="M250.92455,189.12589c-0.51135,2.21562 -1.99816,3.82662 -3.32081,3.59821c-1.32265,-0.22836 -1.98034,-2.20966 -1.46896,-4.42528c0.51135,-2.21562 1.99816,-3.82662 3.32081,-3.59821c1.32265,0.22836 1.98033,2.20965 1.46894,4.42527z" data-paper-data="{&quot;origPos&quot;:null,&quot;origRot&quot;:0}" fill="#000000" stroke="none" stroke-width="0" stroke-linecap="butt"/><path d="M257.03878,189.31898c-0.40566,1.6642 -1.54042,2.86396 -2.53459,2.67971c-0.99419,-0.18425 -1.47129,-1.68269 -1.06565,-3.34693c0.40566,-1.6642 1.54041,-2.86396 2.53459,-2.67971c0.99419,0.18425 1.47132,1.68271 1.06568,3.34691z" data-paper-data="{&quot;origPos&quot;:null,&quot;origRot&quot;:0}" fill="#000000" stroke="none" stroke-width="0" stroke-linecap="butt"/><path d="M244.35846,162.99669c0.63227,-0.98492 2.52958,-0.84555 2.53356,-0.82298c0.9484,0.13925 0.99672,0.60426 1.01628,1.08603c0.05872,1.44529 2.98754,5.85163 2.98754,5.85163c0,0 -7.7931,-4.15857 -6.53738,-6.11468z" data-paper-data="{&quot;origPos&quot;:null,&quot;index&quot;:null,&quot;origRot&quot;:0}" fill="#287732" stroke="none" stroke-width="0" stroke-linecap="butt"/><path d="M240.00431,168.56938l6.22675,-12.55324c0,0 -1.10708,-2.61851 -3.14209,-3.80612c-5.03485,-2.93831 -14.50476,-6.28365 -14.50476,-6.28365l3.35151,-1.10928c0,0 6.735,2.32095 10.63108,4.40946c3.74766,2.00892 7.36515,6.38395 7.36515,6.38395l-7.14538,18.34269z" data-paper-data="{&quot;origPos&quot;:null,&quot;origRot&quot;:0}" fill="url(#color-3)" stroke="#0f2c13" stroke-width="0.5" stroke-linecap="butt"/><path d="M240.43172,174.08327c0,0 0.07787,-7.92586 4.52418,-9.62716c1.29449,0.63894 1.1986,1.38643 2.63283,1.72639c0.79404,0.18821 -0.24947,-3.60179 0.55533,-3.4669c1.28178,0.21486 2.86404,1.69605 3.65978,2.72363c1.41478,1.82693 3.37735,4.10009 3.37735,4.10009c0,0 -2.22003,2.94589 -6.48593,4.57815c-2.52312,0.9654 -8.26354,-0.03419 -8.26354,-0.03419z" data-paper-data="{&quot;origPos&quot;:null,&quot;origRot&quot;:0}" fill="url(#color-4)" stroke="#256d2f" stroke-width="0.5" stroke-linecap="butt"/><path d="M249.41838,187.99924c-0.23199,1.00508 -0.90645,1.7359 -1.50646,1.6323c-0.60002,-0.10359 -0.89835,-1.0024 -0.66636,-2.00748c0.23199,-1.00508 0.90645,-1.7359 1.50646,-1.6323c0.60002,0.10359 0.89835,1.0024 0.66636,2.00747z" data-paper-data="{&quot;origPos&quot;:null,&quot;origRot&quot;:0}" fill="#ffffff" stroke="none" stroke-width="0" stroke-linecap="butt"/><path d="M255.81443,188.09104c-0.13832,0.56755 -0.52532,0.97669 -0.86436,0.91387c-0.33901,-0.06282 -0.50174,-0.57383 -0.36341,-1.14138c0.13832,-0.56755 0.52532,-0.97669 0.86436,-0.91387c0.33901,0.06282 0.50174,0.57384 0.3634,1.14138z" data-paper-data="{&quot;origPos&quot;:null,&quot;origRot&quot;:0}" fill="#ffffff" stroke="none" stroke-width="0" stroke-linecap="butt"/><path d="M236.60179,165.25628c0,0 1.39891,-5.48048 2.372,-6.55069c0.32436,-0.35674 0.79707,-1.05932 1.61356,-0.55706c0.01754,-0.01475 1.50665,1.24763 1.35887,2.40868c-0.29348,2.30586 -0.36152,0.70347 -0.36152,0.70347z" data-paper-data="{&quot;origPos&quot;:null,&quot;origRot&quot;:0}" fill="#287732" stroke="none" stroke-width="0" stroke-linecap="butt"/><path d="M243.01908,181.36038c0,0 2.78711,-4.93292 4.30756,-4.21394c3.13812,1.48397 3.59257,5.75433 3.59257,5.75433c0,0 -2.27202,-2.21807 -3.64595,-2.48598c-1.7092,-0.33326 -4.25418,0.94556 -4.25418,0.94556z" data-paper-data="{&quot;origPos&quot;:null,&quot;origRot&quot;:0}" fill="#05ac26" stroke="#000000" stroke-width="0.5" stroke-linecap="butt"/><path d="M255.13796,183.38028c0,0 1.59556,-3.18825 3.50645,-3.48729c1.80271,-0.2821 3.0801,4.81404 3.0801,4.81404c0,0 -1.59243,-1.97569 -3.01292,-2.30778z" data-paper-data="{&quot;origPos&quot;:null,&quot;index&quot;:null,&quot;origRot&quot;:0}" fill="#05ac26" stroke="#000000" stroke-width="0.5" stroke-linecap="butt"/><path d="M227.1342,190.95003c-6.85963,-8.38101 -2.49959,-16.87839 -2.49959,-16.87839c0,0 0.91906,2.7985 2.07651,4.50134c2.00978,2.95682 3.9711,4.52773 6.24395,7.28747c0.79183,0.96142 2.77746,2.0269 3.42324,3.09191c0.69633,1.14841 0.44036,2.29093 0.79298,3.58683c0.25542,0.93875 0.89313,1.06777 1.5595,1.77665c2.23238,2.37481 6.71451,4.49726 6.71451,4.49726c0,0 -11.45143,0.51799 -18.31106,-7.86304z" data-paper-data="{&quot;origPos&quot;:null,&quot;origRot&quot;:0}" fill="url(#color-5)" stroke="#287732" stroke-width="0" stroke-linecap="butt"/><path d="M223.47496,177.09333c0,0 -0.61459,-7.0975 2.01276,-10.17869c2.62736,-3.08119 5.22041,-0.09025 7.25616,-0.82552c2.13849,-0.77236 2.43427,-0.67434 4.44659,-1.73276c1.53617,-0.80794 2.22117,-3.58542 3.89534,-4.04346c1.16169,-0.31782 1.65205,0.81869 2.67999,1.44626c1.12272,0.68543 -0.24236,4.73778 -0.24236,4.73778c0,0 2.89873,0.46123 1.75892,2.35397c-0.9818,1.63034 -1.85397,0.5298 -2.40788,2.35054c-0.66685,2.19188 2.58119,0.59131 1.59267,2.65816c-1.53445,3.20833 -2.39075,4.68244 -5.43065,6.52826c0,0 -5.95842,0.05593 -8.86655,-0.63569c-3.5114,-0.83506 -6.69504,-2.65888 -6.69504,-2.65888z" data-paper-data="{&quot;origPos&quot;:null,&quot;origRot&quot;:0}" fill="url(#color-6)" stroke="#256d2f" stroke-width="0.5" stroke-linecap="butt"/><path d="M221.89859,180.80584c-0.11616,-2.17288 1.03726,-2.40379 0.65539,-4.47376c-0.16662,-0.90317 -0.78863,-0.59745 -1.62265,-0.98203c-1.1349,-0.52333 -2.62343,-1.06391 -2.47318,-2.30458c0.16835,-1.38997 2.96512,-2.37463 2.96512,-2.37463c0,0 -3.90999,-1.98679 -2.78886,-4.65364c1.16265,-2.76555 5.11682,-1.21416 5.73182,-1.7208c1.03505,-0.85273 0.70276,-2.26341 2.03188,-2.08502c0.85442,0.11468 1.50891,3.36611 1.72699,2.53203c0.28244,-1.08036 3.13941,1.2573 3.13941,1.2573l-2.89029,0.609c0,0 -2.36584,-0.22421 -2.87005,1.68328c-0.95938,3.62947 -1.51614,3.19951 -0.08882,6.67172c0.705,1.71503 1.68574,5.90081 3.56255,6.09151c0.1935,1.80482 2.49087,2.60519 3.68905,3.9687c1.55631,1.77101 3.85304,4.57661 3.85304,4.57661c0,0 -2.25301,-1.89744 -3.23145,-2.18271c-2.76563,-0.80627 -2.57148,0.06984 -4.77527,-1.78543c-0.94879,-0.79874 -0.80774,-1.9754 -1.81495,-2.69906c-2.29691,-1.65036 -4.68354,0.04437 -4.79971,-2.12851z" data-paper-data="{&quot;origPos&quot;:null,&quot;origRot&quot;:0}" fill="#98ff7e" stroke="#256d2f" stroke-width="1" stroke-linecap="butt"/><path d="M240.89461,178.8142c0,0 1.07647,-0.91598 1.51746,-1.58188c0.67864,-1.02483 1.50604,-2.62448 1.50604,-2.62448c0.95653,-0.90597 1.68953,-0.95256 2.82158,-1.62645c1.03648,-0.617 2.64143,-1.79488 2.64143,-1.79488c1.24484,-0.71008 6.11909,-2.05315 6.11909,-2.05315l-2.96448,-3.08201c0,0 1.43305,-0.12376 2.19391,-0.11163c4.3587,0.06958 9.38181,2.36722 8.68615,5.09946c-0.42411,1.66564 -3.48346,-1.25602 -5.93244,0.14092c-1.03217,0.58877 -0.24042,3.21145 -1.56228,3.98431c-1.07987,0.63139 -2.91483,-2.94318 -4.0028,-2.32584c-0.76617,0.43475 -1.29306,2.76455 -2.0831,3.00519c-1.25049,0.38089 -0.97096,-0.24895 -2.06461,-0.96502c-0.46571,-0.30494 -0.91647,-0.12154 -1.41904,0.11784c-2.07485,0.98833 -1.00671,2.33778 -3.12316,3.23357c-1.48204,0.62729 -2.33373,0.58403 -2.33373,0.58403z" data-paper-data="{&quot;origPos&quot;:null,&quot;origRot&quot;:0}" fill="url(#color-7)" stroke="#256d2f" stroke-width="1" stroke-linecap="butt"/><path d="M256.23755,167.47534c0,0 3.1811,1.316 2.1866,1.51367c-3.29999,0.6559 -4.72633,0.12552 -7.81273,1.4651c-1.57914,0.6854 -3.21667,2.18005 -4.74665,2.96912c-4.19319,2.16263 -2.65323,5.32962 -7.15421,6.74426c-3.36999,1.05917 -10.63525,-0.77998 -10.63525,-0.77998" data-paper-data="{&quot;origPos&quot;:null,&quot;origRot&quot;:0}" fill="none" stroke="#287732" stroke-width="0.5" stroke-linecap="round"/><path d="M245.5494,198.80578c0,0 -2.26975,-1.19894 -3.72293,-2.23137c-1.56142,-1.10935 -2.55119,-2.01462 -3.88744,-3.3869c-2.31896,-2.38148 0.036,-2.29912 -2.13575,-4.81558c-3.07724,-3.5657 -7.20416,-7.01051 -9.5176,-11.11313c-1.70697,-3.02717 -2.40192,-7.69219 0.15978,-9.97568c1.06836,-0.95235 1.95453,-0.79239 1.95453,-0.79239" data-paper-data="{&quot;origPos&quot;:null,&quot;origRot&quot;:0}" fill="none" stroke="#287732" stroke-width="0.5" stroke-linecap="round"/><path d="M231.33803,145.08523c-4.86144,3.57038 -11.98264,2.13452 -15.90566,-3.20705c-3.92301,-5.34159 -3.16228,-12.56617 1.69914,-16.13655c4.86144,-3.57038 19.06796,15.77321 14.20651,19.34359z" data-paper-data="{&quot;origPos&quot;:null,&quot;origRot&quot;:0}" fill="#2e8149" stroke="#0f2c13" stroke-width="0.5" stroke-linecap="butt"/><path d="M215.79995,126.31707c0.47573,-0.4335 1.64317,-1.10469 1.64317,-1.10469c0,0 0.10748,1.77883 -0.07223,2.19508c-0.53909,1.24866 -1.71609,2.35241 -1.71609,2.35241c0,0 1.39533,-0.90593 2.37147,0.93368c0.31071,0.58555 -0.88906,2.17156 -0.88906,2.17156c0,0 3.01615,0.02944 3.01126,1.5888c-0.00594,1.89136 -1.06125,3.29964 -1.06125,3.29964c0,0 3.05438,-0.46249 3.56229,0.32954c1.14842,1.79086 1.33784,3.42765 1.33784,3.42765c0,0 -0.58583,-1.98655 1.37937,-2.31905c1.44847,-0.24509 2.97192,2.76708 2.97192,2.76708c0,0 0.72276,-1.55507 1.62747,-1.81985c1.19645,-0.35013 1.22969,1.27787 1.22969,1.27787l1.72965,-1.13064c0,0 -0.2931,3.30164 -1.28179,4.33737c-1.32092,1.38376 -2.95841,1.78701 -4.83992,2.1328c-4.13961,0.76084 -8.8527,-1.16703 -11.39044,-4.52486c-1.35206,-1.78901 -1.71224,-3.21696 -2.45406,-5.33314c0,0 -0.70606,-3.44428 0.07323,-5.83747c0.57925,-1.77877 1.34038,-3.44327 2.76749,-4.74378z" data-paper-data="{&quot;origPos&quot;:null,&quot;origRot&quot;:0}" fill="url(#color-8)" stroke="#0f2c13" stroke-width="0.5" stroke-linecap="butt"/></g></g></svg>