<svg version="1.1" xmlns="http://www.w3.org/2000/svg" xmlns:xlink="http://www.w3.org/1999/xlink" width="55.29544" height="45.94996" viewBox="0,0,55.29544,45.94996"><g transform="translate(-213.09172,-169.96813)"><g data-paper-data="{&quot;isPaintingLayer&quot;:true}" fill="none" fill-rule="nonzero" stroke="none" stroke-width="none" stroke-linecap="butt" stroke-linejoin="miter" stroke-miterlimit="10" stroke-dasharray="" stroke-dashoffset="0" font-family="none" font-weight="none" font-size="none" text-anchor="none" style="mix-blend-mode: normal"><path d="M230.1301,196.49437l-3.29727,-7.7258l17.84292,-7.61513l3.29727,7.7258z" data-paper-data="{&quot;origPos&quot;:null,&quot;origRot&quot;:0}" fill="#c07a00" stroke="#000000" stroke-width="2"/><path d="M227.11452,192.98524l15.87353,-12.16679l11.80178,15.39733l-15.87353,12.16679z" data-paper-data="{&quot;origPos&quot;:null,&quot;origRot&quot;:0}" fill="#c07a00" stroke="#000000" stroke-width="2"/><path d="M263.0532,193.94544c-5.17076,3.9633 -12.92023,2.53454 -17.30892,-3.19122c-4.38869,-5.72576 -3.7547,-13.58029 1.41606,-17.5436c5.17076,-3.9633 12.92023,-2.53454 17.30892,3.19122c4.38869,5.72576 3.7547,13.58029 -1.41606,17.5436z" data-paper-data="{&quot;origPos&quot;:null,&quot;origRot&quot;:0}" fill="#b2b2b2" stroke="#000000" stroke-width="2"/><path d="M257.69829,180.88295c-1.315,1.00792 -3.04491,0.95888 -3.86385,-0.10957c-0.81895,-1.06843 -0.41679,-2.75169 0.8982,-3.7596c1.315,-1.00792 3.04491,-0.95888 3.86385,0.10957c0.81895,1.06843 0.41679,2.75169 -0.8982,3.7596z" data-paper-data="{&quot;origPos&quot;:null,&quot;origRot&quot;:0}" fill="#ff0000" stroke="none" stroke-width="0"/><path d="M253.87829,176.12516c-1.17804,0.90294 -2.71177,0.87982 -3.42573,-0.05166c-0.71396,-0.93147 -0.33775,-2.41853 0.84027,-3.32149c1.17804,-0.90294 2.71177,-0.87982 3.42573,0.05166c0.71396,0.93147 0.33775,2.41853 -0.84027,3.32149z" data-paper-data="{&quot;origPos&quot;:null,&quot;origRot&quot;:0}" fill="#ff0000" stroke="none" stroke-width="0"/><path d="M214.14494,193.05008l17.37394,-0.95209l0.43774,7.98802l-17.37394,0.95209z" data-paper-data="{&quot;origPos&quot;:null,&quot;origRot&quot;:0}" fill="#4c517f" stroke="#000000" stroke-width="2"/><path d="M218.08467,207.16918l16.39895,-6.39019l2.90463,7.45407l-16.39895,6.39019z" data-paper-data="{&quot;origPos&quot;:null,&quot;origRot&quot;:0}" fill="#4c517f" stroke="#000000" stroke-width="2"/><path d="M246.41328,173.81233l7.69921,3.35887l-7.75742,17.78152l-7.69921,-3.35887z" data-paper-data="{&quot;origPos&quot;:null,&quot;origRot&quot;:0}" fill="#c07a00" stroke="#000000" stroke-width="2"/></g></g></svg>