<svg version="1.1" xmlns="http://www.w3.org/2000/svg" xmlns:xlink="http://www.w3.org/1999/xlink" width="53.9399" height="62.01251" viewBox="0,0,53.9399,62.01251"><g transform="translate(-211.30167,-144.79662)"><g data-paper-data="{&quot;isPaintingLayer&quot;:true}" fill="none" fill-rule="nonzero" stroke="none" stroke-width="none" stroke-linecap="butt" stroke-linejoin="miter" stroke-miterlimit="10" stroke-dasharray="" stroke-dashoffset="0" font-family="none" font-weight="none" font-size="none" text-anchor="none" style="mix-blend-mode: normal"><path d="M230.4099,191.74992c4.74005,0.45244 8.40699,2.65931 8.19033,4.92919c-0.21667,2.26988 -4.23487,3.74321 -8.97492,3.29077c-4.74005,-0.45244 -8.19031,-4.92919 -8.19031,-4.92919c0,0 4.23485,-3.74322 8.9749,-3.29078z" data-paper-data="{&quot;origRot&quot;:0,&quot;origPos&quot;:null,&quot;index&quot;:null}" fill="#2bd900" stroke="#000000" stroke-width="1.5"/><path d="M256.00198,192.48251c0,0 -2.32235,5.1529 -6.82954,6.68846c-4.5072,1.53556 -8.75711,1.03069 -9.49245,-1.1277c-0.73534,-2.15837 2.32235,-5.15291 6.82955,-6.68847c4.5072,-1.53556 9.49244,1.12771 9.49244,1.12771z" data-paper-data="{&quot;origRot&quot;:0,&quot;origPos&quot;:null,&quot;index&quot;:null}" fill="#2bd900" stroke="#000000" stroke-width="1.5"/><path d="M238.20292,199.2141c0,0 -1.92044,-6.41611 -2.52926,-10.5387c-0.48064,-3.25468 -0.26233,-8.36465 -0.26233,-8.36465l4.28775,-0.61262c0,0 -0.99652,4.23254 -0.58638,7.00987c0.67931,4.59995 3.37796,11.89349 3.37796,11.89349z" data-paper-data="{&quot;origPos&quot;:null,&quot;origRot&quot;:0}" fill="#a9ff59" stroke="#000000" stroke-width="2"/><path d="M219.07236,150.13868c2.01059,3.58346 2.24938,7.26895 0.53335,8.23176c-1.71603,0.96281 -4.73704,-1.16164 -6.74762,-4.74511c-2.01059,-3.58346 -0.53335,-8.23176 -0.53335,-8.23176c0,0 4.73704,1.16164 6.74762,4.74511z" data-paper-data="{&quot;origRot&quot;:0,&quot;origPos&quot;:null}" fill="#2fe500" stroke="#000000" stroke-width="1"/><path d="M255.47728,166.19562c0,8.78187 -8.21877,15.90098 -18.35715,15.90098c-10.13837,0 -18.35715,-7.11911 -18.35715,-15.90098c0,-8.78187 8.21877,-15.90097 18.35715,-15.90097c10.13837,0 18.35715,7.11911 18.35715,15.90097z" data-paper-data="{&quot;origPos&quot;:null}" fill="#a9ff59" stroke="#000000" stroke-width="3"/><path d="M242.45271,161.1103c0.63467,2.1835 0.12291,4.31513 -1.14306,4.76112c-1.26596,0.44599 -2.80674,-0.96254 -3.44141,-3.14604c-0.63467,-2.1835 -0.12291,-4.31513 1.14306,-4.76112c1.26596,-0.44599 2.80673,0.96254 3.4414,3.14604z" data-paper-data="{&quot;origPos&quot;:null,&quot;origRot&quot;:0}" fill="#000000" stroke="none" stroke-width="0"/><path d="M248.48932,160.31677c0.4781,1.64486 0.09259,3.25062 -0.86107,3.58659c-0.95367,0.33597 -2.11433,-0.72509 -2.59243,-2.36995c-0.4781,-1.64486 -0.0926,-3.25062 0.86107,-3.58659c0.95367,-0.33597 2.11434,0.72509 2.59244,2.36995z" data-paper-data="{&quot;origPos&quot;:null,&quot;origRot&quot;:0}" fill="#000000" stroke="none" stroke-width="0"/><path d="M264.13764,171.53076c-0.56287,5.68305 -4.15618,9.99226 -8.0259,9.62487c-3.86972,-0.36739 -6.55045,-5.27224 -5.98758,-10.9553c0.56287,-5.68305 4.15619,-9.99226 8.0259,-9.62487c3.86971,0.36739 6.55044,5.27225 5.98757,10.9553z" data-paper-data="{&quot;origPos&quot;:null,&quot;origRot&quot;:0}" fill="#a9ff59" stroke="#000000" stroke-width="2"/><path d="M256.11859,170.64056c-0.23084,2.80439 -1.54152,4.98914 -2.9275,4.87979c-1.38597,-0.10935 -2.3224,-2.47142 -2.09156,-5.2758c0.23084,-2.80438 1.54152,-4.98914 2.92749,-4.87978c1.38597,0.10935 2.32241,2.47141 2.09157,5.2758z" data-paper-data="{&quot;origRot&quot;:0,&quot;origPos&quot;:null}" fill="#84c746" stroke="none" stroke-width="0"/><path d="M229.56535,197.45679c4.81639,-1.99551 9.4955,-1.74346 10.45109,0.56299c0.95559,2.30644 -2.17419,5.79385 -6.99058,7.78935c-4.81639,1.99551 -10.45108,-0.56299 -10.45108,-0.56299c0,0 2.17418,-5.79385 6.99057,-7.78935z" data-paper-data="{&quot;origRot&quot;:0,&quot;origPos&quot;:null}" fill="#2fe500" stroke="#000000" stroke-width="2"/><path d="M256.50252,204.24205c0,0 -5.58446,2.66635 -10.43833,0.76382c-4.85387,-1.90253 -8.05013,-5.32912 -7.13905,-7.65351c0.91107,-2.32439 5.58447,-2.66636 10.43834,-0.76383c4.85387,1.90253 7.13904,7.65352 7.13904,7.65352z" data-paper-data="{&quot;origRot&quot;:0,&quot;origPos&quot;:null,&quot;index&quot;:null}" fill="#2fe500" stroke="#000000" stroke-width="2"/></g></g></svg>