<svg version="1.1" xmlns="http://www.w3.org/2000/svg" xmlns:xlink="http://www.w3.org/1999/xlink" width="79.16153" height="65.52942" viewBox="0,0,79.16153,65.52942"><defs><linearGradient x1="240.19427" y1="191.00523" x2="240.19427" y2="207.4082" gradientUnits="userSpaceOnUse" id="color-1"><stop offset="0" stop-color="#24693c"/><stop offset="1" stop-color="#4ecc71"/></linearGradient><radialGradient cx="238.49401" cy="174.13642" r="21.1235" gradientUnits="userSpaceOnUse" id="color-2"><stop offset="0" stop-color="#b3fa98"/><stop offset="1" stop-color="#05ac26"/></radialGradient><radialGradient cx="230.90051" cy="154.27801" r="14.99911" gradientUnits="userSpaceOnUse" id="color-3"><stop offset="0" stop-color="#036617"/><stop offset="1" stop-color="#037019"/></radialGradient><radialGradient cx="239.5253" cy="172.91708" r="6.67932" gradientUnits="userSpaceOnUse" id="color-4"><stop offset="0" stop-color="#adeba3"/><stop offset="1" stop-color="#32c144"/></radialGradient><linearGradient x1="235.1879" y1="181.75943" x2="236.16884" y2="199.53358" gradientUnits="userSpaceOnUse" id="color-5"><stop offset="0" stop-color="#a8d9ab"/><stop offset="1" stop-color="#50d844"/></linearGradient><radialGradient cx="237.77198" cy="174.48244" r="11.33088" gradientUnits="userSpaceOnUse" id="color-6"><stop offset="0" stop-color="#a5f48f"/><stop offset="1" stop-color="#32c144"/></radialGradient><linearGradient x1="246.31731" y1="162.40415" x2="247.288" y2="179.99231" gradientUnits="userSpaceOnUse" id="color-7"><stop offset="0" stop-color="#baffa7"/><stop offset="1" stop-color="#82ff63"/></linearGradient><radialGradient cx="200.14669" cy="150.40874" r="10.59119" gradientUnits="userSpaceOnUse" id="color-8"><stop offset="0" stop-color="#c8d6ca"/><stop offset="1" stop-color="#05ad27"/></radialGradient><radialGradient cx="193.98401" cy="153.6039" r="9.57427" gradientUnits="userSpaceOnUse" id="color-9"><stop offset="0" stop-color="#83dd6c"/><stop offset="1" stop-color="#28bd46"/></radialGradient><radialGradient cx="205.06797" cy="155.18777" r="7.29369" gradientUnits="userSpaceOnUse" id="color-10"><stop offset="0" stop-color="#83dd6c"/><stop offset="1" stop-color="#5dc572"/></radialGradient><linearGradient x1="198.49954" y1="153.84523" x2="198.13688" y2="166.44001" gradientUnits="userSpaceOnUse" id="color-11"><stop offset="0" stop-color="#53db7a"/><stop offset="1" stop-color="#24693c"/></linearGradient></defs><g transform="translate(-186.84294,-142.36574)"><g data-paper-data="{&quot;isPaintingLayer&quot;:true}" fill="none" fill-rule="nonzero" stroke="none" stroke-width="none" stroke-linecap="none" stroke-linejoin="miter" stroke-miterlimit="10" stroke-dasharray="" stroke-dashoffset="0" font-family="none" font-weight="none" font-size="none" text-anchor="none" style="mix-blend-mode: normal"><path d="M265.50447,196.78897c0,2.05192 -4.46233,5.3969 -5.99869,5.1516c-2.211,-0.35301 -7.33647,-4.94385 -7.33647,-4.94385c0,0 3.94658,2.47919 5.06352,4.47218c1.09713,1.95763 1.60555,5.11132 -0.57043,5.66005c-0.81875,0.20647 -2.25973,-4.07958 -3.04313,-3.76452c-0.51129,0.20562 -0.20078,0.90011 -0.39866,1.41446c-0.48513,1.26101 -0.65474,2.07082 -2.00368,2.1474c-2.54931,0.14472 -1.21167,-3.82453 -3.65419,-3.08021c-1.3397,0.40825 -1.1077,1.11468 -2.17422,2.02242c-2.09749,1.78521 -2.63345,1.52666 -5.3878,1.52666c-3.37785,0 -7.03408,-6.82012 -7.03408,-6.82012c0,0 -9.27918,5.80446 -14.23348,3.40515c-1.85279,-0.89729 1.05445,-3.69416 2.6697,-4.97045c1.36434,-1.07803 4.18869,-1.43148 4.18869,-1.43148c0,0 -4.97845,1.0473 -7.10801,0.24077c-1.79846,-0.68114 -3.59951,-2.29397 -3.59951,-4.2171c0,-1.27932 7.86551,-0.1749 7.86551,-0.1749c0,0 -3.96234,-1.47362 -2.2704,-1.93843c6.91241,-1.899 31.59011,2.37702 33.85978,2.86475c0.75656,0.16258 7.08018,-1.36996 7.557,-0.76049c0.73094,0.93429 -2.67507,3.70814 -2.67507,3.70814c0,0 6.28359,-4.13562 6.28359,-0.51203z" data-paper-data="{&quot;origPos&quot;:null}" fill="url(#color-1)" stroke="#0f2c13" stroke-width="1" stroke-linecap="butt"/><path d="M219.2482,176.4552l-0.15245,-2.76208l2.48587,-0.13719l0.15245,2.76208z" data-paper-data="{&quot;origPos&quot;:null,&quot;origRot&quot;:0}" fill="#1c5324" stroke="none" stroke-width="0" stroke-linecap="butt"/><path d="M261.28636,179.35926c0.60255,10.91794 -7.88992,20.26434 -20.32203,20.95047c-12.43212,0.68612 -20.2556,-7.75979 -20.85818,-18.67773c-0.42111,-7.63023 1.44648,-10.266 4.9296,-11.82451c2.52197,-1.12844 1.00545,-4.364 1.58403,-7.06567c0.32761,-1.52981 1.57974,-3.29066 2.96229,-2.55839c2.12948,1.12788 4.93597,3.60739 4.93597,3.60739c0,0 0.32491,-4.54175 2.59324,-3.11249c2.54738,1.60511 4.48898,2.2161 6.4332,3.87715c0,0 17.13936,3.88584 17.74192,14.80377z" data-paper-data="{&quot;origPos&quot;:null,&quot;origRot&quot;:0}" fill="url(#color-2)" stroke="#000000" stroke-width="1.5" stroke-linecap="butt"/><path d="M251.31911,186.04415c0.40028,2.23836 -0.334,4.30396 -1.64002,4.61359c-1.30601,0.30968 -2.68925,-1.2539 -3.08952,-3.49225c-0.40028,-2.23836 0.334,-4.30396 1.64002,-4.61359c1.30601,-0.30968 2.68924,1.25389 3.0895,3.49225z" data-paper-data="{&quot;origPos&quot;:null,&quot;origRot&quot;:0}" fill="#000000" stroke="none" stroke-width="0" stroke-linecap="butt"/><path d="M257.01751,183.81945c0.28083,1.68975 -0.29129,3.23886 -1.2779,3.46005c-0.98663,0.22119 -2.01409,-0.9693 -2.29495,-2.65907c-0.28083,-1.68975 0.29128,-3.23887 1.2779,-3.46005c0.98663,-0.22119 2.01413,0.96931 2.29498,2.65905z" data-paper-data="{&quot;origPos&quot;:null,&quot;origRot&quot;:0}" fill="#000000" stroke="none" stroke-width="0" stroke-linecap="butt"/><path d="M235.01491,164.59603c0.19444,-1.15413 1.99394,-1.77143 2.00647,-1.75223c0.92684,-0.24457 1.15397,0.16405 1.36126,0.5994c0.62185,1.306 5.04638,4.20724 5.04638,4.20724c0,0 -8.80029,-0.76225 -8.4141,-3.05441z" data-paper-data="{&quot;origPos&quot;:null,&quot;index&quot;:null,&quot;origRot&quot;:0}" fill="#287732" stroke="none" stroke-width="0" stroke-linecap="butt"/><path d="M233.89604,169.00243l-4.28201,-13.34244c0,0 -2.61875,-1.10653 -4.90587,-0.54016c-5.65862,1.40121 -14.78173,5.60115 -14.78173,5.60115l1.63071,-3.13112c0,0 6.44776,-3.02876 10.69746,-4.24592c4.08778,-1.17079 9.73106,-0.5539 9.73106,-0.5539l7.65762,18.13481z" data-paper-data="{&quot;origPos&quot;:null,&quot;origRot&quot;:0}" fill="url(#color-3)" stroke="#0f2c13" stroke-width="0.5" stroke-linecap="butt"/><path d="M235.75986,176.33386c0,0 -3.04246,-7.31907 0.37785,-10.63051c1.44142,0.07896 1.64694,0.80401 3.09939,0.55313c0.80414,-0.1389 -1.64455,-3.21412 -0.85147,-3.40629c1.26311,-0.30602 3.30009,0.43438 4.43558,1.06668c2.01881,1.12415 4.71667,2.44341 4.71667,2.44341c0,0 -0.88407,3.58124 -4.16559,6.7583c-1.9409,1.8791 -7.61244,3.2153 -7.61244,3.2153z" data-paper-data="{&quot;origPos&quot;:null,&quot;origRot&quot;:0}" fill="url(#color-4)" stroke="#256d2f" stroke-width="0.5" stroke-linecap="butt"/><path d="M249.4914,185.59988c0.18156,1.01541 -0.15152,1.95243 -0.74398,2.09292c-0.59246,0.14048 -1.21995,-0.56882 -1.40151,-1.58423c-0.18156,-1.01541 0.15152,-1.95243 0.74398,-2.09292c0.59246,-0.14048 1.21995,0.56882 1.40151,1.58422z" data-paper-data="{&quot;origPos&quot;:null,&quot;origRot&quot;:0}" fill="#ffffff" stroke="none" stroke-width="0" stroke-linecap="butt"/><path d="M255.40917,183.1713c0.09578,0.57625 -0.09932,1.10454 -0.4358,1.17997c-0.33644,0.07543 -0.68685,-0.33055 -0.78263,-0.9068c-0.09578,-0.57625 0.09932,-1.10454 0.4358,-1.17997c0.33644,-0.07543 0.68685,0.33056 0.78262,0.9068z" data-paper-data="{&quot;origPos&quot;:null,&quot;origRot&quot;:0}" fill="#ffffff" stroke="none" stroke-width="0" stroke-linecap="butt"/><path d="M228.76982,169.72152c0,0 -0.86687,-5.58939 -0.39251,-6.95587c0.15811,-0.45549 0.31678,-1.2873 1.26493,-1.14624c0.01033,-0.02046 1.87569,0.55534 2.19596,1.68108c0.63609,2.23573 -0.05606,0.78894 -0.05606,0.78894z" data-paper-data="{&quot;origPos&quot;:null,&quot;origRot&quot;:0}" fill="#287732" stroke="none" stroke-width="0" stroke-linecap="butt"/><path d="M240.99832,182.00919c0,0 0.62485,-5.63127 2.3055,-5.5675c3.46881,0.13167 5.56453,3.88006 5.56453,3.88006c0,0 -2.96079,-1.14702 -4.32948,-0.85357c-1.70269,0.36508 -3.54055,2.54099 -3.54055,2.54099z" data-paper-data="{&quot;origPos&quot;:null,&quot;origRot&quot;:0}" fill="#05ac26" stroke="#000000" stroke-width="0.5" stroke-linecap="butt"/><path d="M252.93624,179.10515c0,0 0.21459,-3.55874 1.85431,-4.58453c1.5469,-0.9677 4.72384,3.21672 4.72384,3.21672c0,0 -2.24061,-1.19114 -3.67735,-0.93841z" data-paper-data="{&quot;origPos&quot;:null,&quot;index&quot;:null,&quot;origRot&quot;:0}" fill="#05ac26" stroke="#000000" stroke-width="0.5" stroke-linecap="butt"/><path d="M230.15865,197.06882c-9.60087,-5.01189 -8.93008,-14.53897 -8.93008,-14.53897c0,0 1.94468,2.21234 3.67809,3.32349c3.00988,1.92939 5.43069,2.60337 8.60505,4.24817c1.10589,0.57299 3.35046,0.77263 4.36275,1.49827c1.09153,0.78247 1.30505,1.93368 2.13846,2.98682c0.60371,0.76291 1.24084,0.631 2.13213,1.02105c2.98591,1.30673 7.94151,1.49746 7.94151,1.49746c0,0 -10.32701,4.9756 -19.92789,-0.0363z" data-paper-data="{&quot;origPos&quot;:null,&quot;origRot&quot;:0}" fill="url(#color-5)" stroke="#287732" stroke-width="0" stroke-linecap="butt"/><path d="M221.34939,185.76417c0,0 -3.35377,-6.28526 -2.14831,-10.15094c1.20547,-3.86569 4.76513,-2.13408 6.34828,-3.61007c1.66305,-1.55047 1.97356,-1.57655 3.40821,-3.34047c1.09519,-1.34653 0.63383,-4.16978 1.99341,-5.24875c0.9434,-0.74868 1.84086,0.10376 3.03271,0.27698c1.30173,0.1892 1.6386,4.452 1.6386,4.452c0,0 2.84683,-0.71477 2.54234,1.47357c-0.26228,1.88498 -1.49671,1.21561 -1.29072,3.10758c0.24797,2.27761 2.60594,-0.47039 2.50899,1.81864c-0.15051,3.55321 -0.35876,5.24521 -2.42898,8.13697c0,0 -5.45729,2.39249 -8.40328,2.8991c-3.55711,0.61171 -7.2013,0.18542 -7.2013,0.18542z" data-paper-data="{&quot;origPos&quot;:null,&quot;origRot&quot;:0}" fill="url(#color-6)" stroke="#256d2f" stroke-width="0.5" stroke-linecap="butt"/><path d="M221.35843,189.79748c-0.96054,-1.9525 0.0094,-2.61802 -1.15505,-4.3715c-0.50808,-0.76508 -0.95996,-0.23955 -1.878,-0.26552c-1.24925,-0.03534 -2.83046,0.05239 -3.17976,-1.14753c-0.39131,-1.34433 1.79368,-3.34865 1.79368,-3.34865c0,0 -4.37618,-0.29078 -4.393,-3.18365c-0.01744,-2.99995 4.22829,-3.12692 4.59477,-3.83445c0.61678,-1.19082 -0.24305,-2.35749 1.04928,-2.71566c0.83077,-0.23024 2.7101,2.50256 2.58293,1.64989c-0.16474,-1.10445 3.38093,-0.07728 3.38093,-0.07728l-2.41857,1.69562c0,0 -2.26367,0.72336 -1.97788,2.67555c0.54378,3.71453 -0.13713,3.53791 2.53964,6.17009c1.32214,1.30012 3.8686,4.76396 5.66941,4.20191c0.88705,1.58365 3.31413,1.41702 4.95168,2.20012c2.12698,1.01712 5.34134,2.69471 5.34134,2.69471c0,0 -2.81733,-0.85964 -3.82915,-0.73753c-2.86001,0.34518 -2.33724,1.07455 -5.09274,0.23435c-1.18631,-0.36172 -1.51892,-1.49918 -2.72945,-1.76893c-2.76062,-0.61518 -4.28946,1.88096 -5.25002,-0.07155z" data-paper-data="{&quot;origPos&quot;:null,&quot;origRot&quot;:0}" fill="#98ff7e" stroke="#256d2f" stroke-width="1" stroke-linecap="butt"/><path d="M238.04431,180.50247c0,0 0.63002,-1.26526 0.77391,-2.05088c0.2214,-1.20904 0.35377,-3.00514 0.35377,-3.00514c0.52364,-1.20893 1.1794,-1.53977 1.95565,-2.60425c0.71071,-0.97461 1.72381,-2.68835 1.72381,-2.68835c0.86574,-1.14207 4.82032,-4.29222 4.82032,-4.29222l-3.93701,-1.66942c0,0 1.26917,-0.67685 1.97363,-0.96464c4.03551,-1.64854 9.55743,-1.50926 9.9912,1.2766c0.26444,1.69832 -3.69682,0.21363 -5.39999,2.46044c-0.71784,0.94696 1.04069,3.04766 0.12879,4.27772c-0.74496,1.0049 -3.8368,-1.56126 -4.59472,-0.5661c-0.53375,0.70082 -0.10288,3.05027 -0.73485,3.58197c-1.00028,0.84158 -0.99069,0.15257 -2.27773,-0.07624c-0.54807,-0.09745 -0.89052,0.2483 -1.25863,0.6659c-1.51968,1.72405 -0.00724,2.54532 -1.60153,4.20063c-1.1164,1.15913 -1.91659,1.45398 -1.91659,1.45398z" data-paper-data="{&quot;origPos&quot;:null,&quot;origRot&quot;:0}" fill="url(#color-7)" stroke="#256d2f" stroke-width="1" stroke-linecap="butt"/><path d="M247.69837,164.04725c0,0 3.44234,-0.03967 2.60549,0.53283c-2.7769,1.89972 -4.29694,1.97241 -6.60881,4.4169c-1.18285,1.25072 -2.10146,3.26857 -3.19836,4.59531c-3.00628,3.63623 -0.34586,5.94347 -3.92907,9.01278c-2.68284,2.29807 -10.08643,3.46131 -10.08643,3.46131" data-paper-data="{&quot;origPos&quot;:null,&quot;origRot&quot;:0}" fill="none" stroke="#287732" stroke-width="0.5" stroke-linecap="round"/><path d="M250.17944,197.05749c0,0 -2.55829,-0.21074 -4.30022,-0.58919c-1.87172,-0.40665 -3.13756,-0.85024 -4.90552,-1.58716c-3.06816,-1.27884 -0.87022,-2.12837 -3.85603,-3.58919c-4.23074,-2.06991 -9.37923,-3.61623 -13.11855,-6.47998c-2.75908,-2.11306 -5.23101,-6.12987 -3.77251,-9.23623c0.60826,-1.29552 1.48602,-1.49661 1.48602,-1.49661" data-paper-data="{&quot;origPos&quot;:null,&quot;origRot&quot;:0}" fill="none" stroke="#287732" stroke-width="0.5" stroke-linecap="round"/><path d="M211.31533,158.19868c-0.99858,5.94844 -7.10655,9.88114 -13.6425,8.78393c-6.53595,-1.09722 -11.0249,-6.80885 -10.02632,-12.75728c0.99858,-5.94844 24.66739,-1.9751 23.66879,3.97335z" data-paper-data="{&quot;origPos&quot;:null,&quot;origRot&quot;:0}" fill="#2e8149" stroke="#0f2c13" stroke-width="0.5" stroke-linecap="butt"/><path d="M188.60178,155.07196c0.16836,-5.84692 5.05197,-10.70304 10.89893,-10.53468c5.84692,0.16836 10.44305,5.29742 10.2747,11.14437c-0.16836,5.84692 -5.05198,10.70305 -10.89893,10.53469c-5.84692,-0.16836 -10.44304,-5.29742 -10.27469,-11.14437z" data-paper-data="{&quot;origPos&quot;:null,&quot;origRot&quot;:0}" fill="url(#color-8)" stroke="#000000" stroke-width="1" stroke-linecap="butt"/><path d="M206.28937,162.28037c-1.94503,1.98742 -2.5576,1.76426 -4.00736,1.69504c-2.77134,-0.13234 -6.84241,-2.35974 -6.84241,-2.35974c0,0 4.36994,-0.74994 6.53242,-2.50131c1.92781,-1.56132 2.79271,-3.61131 2.18365,-6.01611c-0.40192,-1.58688 -1.47881,-2.66659 -1.46239,-4.30352c0.00925,-0.92055 1.31609,-2.23756 1.31609,-2.23756c0,0 0.54028,0.75143 2.12732,1.71877c1.06539,0.64939 1.53445,2.21133 2.1735,3.28296c0.86829,1.456 0.72457,2.73799 0.6758,4.43255c-0.10992,3.81765 -0.87852,4.43123 -2.69662,6.28894z" data-paper-data="{&quot;origPos&quot;:null,&quot;index&quot;:null,&quot;origRot&quot;:0}" fill="#27b33c" stroke="#1c802b" stroke-width="0.5" stroke-linecap="butt"/><path d="M189.30079,155.19749c0.05919,-2.0549 0.48545,-3.60223 1.63821,-5.30436c0.84845,-1.25278 2.02135,-2.58547 3.3565,-3.29733c1.98883,-1.06038 5.03032,-1.35392 5.03032,-1.35392c0,0 -3.4564,5.14519 -3.97538,6.79001c-0.90519,2.86886 -0.00115,5.41103 2.22381,7.43572c2.49579,2.27117 7.73388,3.48401 7.73388,3.48401c0,0 -4.45156,3.95036 -8.41076,2.30592c0,0 -3.01276,-0.94498 -4.55764,-2.55888c-1.9781,-2.06646 -3.17226,-2.87176 -3.03897,-7.50121z" data-paper-data="{&quot;origPos&quot;:null,&quot;origRot&quot;:0}" fill="#27b33c" stroke="#1c802b" stroke-width="0.5" stroke-linecap="butt"/><path d="M195.00223,153.38025c0,0 3.08905,-3.39197 4.73294,-3.36002c0.87405,0.01699 0.75425,2.07207 1.42526,2.63243c0.6582,0.54964 0.78515,-0.6069 1.63046,-0.46299c0.32646,0.05559 1.22798,1.36589 1.22798,1.36589" data-paper-data="{&quot;origPos&quot;:null,&quot;origRot&quot;:0}" fill="none" stroke="#1c802b" stroke-width="0.5" stroke-linecap="round"/><path d="M201.63047,145.72983c0,0 -0.89669,0.65262 -1.09626,1.18904c-0.23083,0.62045 1.14605,1.03586 1.0482,1.6906c-0.09181,0.61448 -1.59694,1.54168 -1.59694,1.54168" data-paper-data="{&quot;origPos&quot;:null,&quot;origRot&quot;:0}" fill="none" stroke="#1c802b" stroke-width="0.5" stroke-linecap="round"/><path d="M192.10151,154.56145c0.17287,-1.33259 0.70844,-0.38702 1.43663,-1.5164c0.27669,-0.42911 -0.87718,-2.1432 -0.60731,-2.57661c0.62143,-0.99804 0.96883,-0.51136 1.86223,-1.27559c0.96024,-0.82139 -1.49651,-3.592 -0.57794,-4.45976c0.77135,-0.7287 1.31407,0.9304 2.36667,1.06465c0.72141,0.09201 0.36659,-2.92886 1.04141,-3.20003c0.58605,-0.23549 0.51049,0.91482 0.83445,1.45704c0.13145,0.22001 1.10526,-0.82606 1.27981,-0.63838c0.17944,0.1929 1.08921,0.68862 1.02098,0.94308c-0.07835,0.29213 -0.66996,-0.29341 -0.95554,-0.19382c-0.31757,0.11075 -0.51191,0.82228 -0.51191,0.82228c0,0 -2.81815,3.92467 -3.75196,6.40416c-0.79666,2.11533 -0.75865,3.17724 -0.05015,5.32373c1.09223,3.30897 5.50975,5.09996 5.50975,5.09996c0,0 -9.28236,-4.28469 -8.89713,-7.25433z" data-paper-data="{&quot;origPos&quot;:null,&quot;origRot&quot;:0}" fill="url(#color-9)" stroke="#256d2f" stroke-width="0.5" stroke-linecap="butt"/><path d="M202.85754,158.74965c0,0 2.37074,-3.26175 1.62102,-5.69168c-0.62217,-2.01645 -1.59178,-2.2495 -1.59727,-4.25384c-0.00619,-2.26392 1.44258,-2.91245 1.44258,-2.91245c0,0 -1.282,-1.78881 -1.02352,-1.33264c0.37972,0.6702 1.43264,-0.76824 1.96421,-0.21073c0.36908,0.3871 -0.01972,0.55905 0.28213,1.70859c0.09862,0.37555 0.93996,0.79325 0.90999,1.18033c-0.05809,0.75031 -1.12817,0.96159 -1.34516,1.68221c-0.30515,1.0135 2.28087,2.49238 2.26487,3.55067c-0.03104,2.05287 -0.3382,0.50769 -1.56284,1.92098c-1.09639,1.26529 1.22201,0.19925 1.03803,1.86332c-0.29001,2.62265 -3.99403,2.49519 -3.99403,2.49519z" data-paper-data="{&quot;origPos&quot;:null,&quot;origRot&quot;:0}" fill="url(#color-10)" stroke="#256d2f" stroke-width="0.5" stroke-linecap="butt"/><path d="M187.09253,155.56595c0.0391,-0.64242 0.40867,-1.93736 0.40867,-1.93736c0,0 1.31669,1.20089 1.47786,1.62465c0.4835,1.27122 0.40851,2.88303 0.40851,2.88303c0,0 0.36944,-1.6221 2.35148,-0.98294c0.6309,0.20344 0.87564,2.17701 0.87564,2.17701c0,0 2.18372,-2.08072 3.26686,-0.95894c1.31376,1.36064 1.53825,3.10607 1.53825,3.10607c0,0 1.86832,-2.46018 2.78453,-2.24607c2.07163,0.48413 3.34811,1.52603 3.34811,1.52603c0,0 -1.80451,-1.01653 -0.62677,-2.62447c0.86805,-1.18515 4.05974,-0.08645 4.05974,-0.08645c0,0 -0.56531,-1.61896 -0.10096,-2.43933c0.6141,-1.08487 1.77244,0.05956 1.77244,0.05956l0.45262,-2.01623c0,0 2.09058,2.5722 2.10324,4.00401c0.01692,1.91295 -0.87649,3.34325 -1.98495,4.90242c-2.43875,3.43042 -7.16246,5.33211 -11.3225,4.6923c-2.2164,-0.34088 -3.4698,-1.11402 -5.47653,-2.11482c0,0 -2.90657,-1.97823 -4.01539,-4.2377c-0.82413,-1.6794 -1.43816,-3.40359 -1.3209,-5.33083z" data-paper-data="{&quot;origPos&quot;:null,&quot;origRot&quot;:0}" fill="url(#color-11)" stroke="#0f2c13" stroke-width="0.5" stroke-linecap="butt"/></g></g></svg>