<svg version="1.1" xmlns="http://www.w3.org/2000/svg" xmlns:xlink="http://www.w3.org/1999/xlink" width="60.63158" height="38.30128"><defs><linearGradient x1="240.16674" y1="162.83335" x2="240.16674" y2="199.33335" gradientUnits="userSpaceOnUse" id="color-1"><stop offset="0" stop-color="#00e3ff"/><stop offset="1" stop-color="#a5f5ff"/></linearGradient><linearGradient x1="246.93982" y1="182.9003" x2="242.5558" y2="179.51127" gradientUnits="userSpaceOnUse" id="color-2"><stop offset="0" stop-color="#fff987"/><stop offset="1" stop-color="#fff300"/></linearGradient><linearGradient x1="247.93953" y1="173.39138" x2="242.71347" y2="176.68588" gradientUnits="userSpaceOnUse" id="color-3"><stop offset="0" stop-color="#fff987"/><stop offset="1" stop-color="#fff300"/></linearGradient><linearGradient x1="246.08114" y1="170.43171" x2="242.22562" y2="174.70605" gradientUnits="userSpaceOnUse" id="color-4"><stop offset="0" stop-color="#fff987"/><stop offset="1" stop-color="#fff300"/></linearGradient><linearGradient x1="227.32028" y1="186.1119" x2="231.02176" y2="181.98468" gradientUnits="userSpaceOnUse" id="color-5"><stop offset="0" stop-color="#fff987"/><stop offset="1" stop-color="#fff300"/></linearGradient><linearGradient x1="244.43955" y1="185.34769" x2="240.76269" y2="180.9245" gradientUnits="userSpaceOnUse" id="color-6"><stop offset="0" stop-color="#fff987"/><stop offset="1" stop-color="#fff300"/></linearGradient><linearGradient x1="225.62384" y1="170.13243" x2="229.30829" y2="174.59474" gradientUnits="userSpaceOnUse" id="color-7"><stop offset="0" stop-color="#fff987"/><stop offset="1" stop-color="#fff300"/></linearGradient><linearGradient x1="223.74221" y1="172.18093" x2="227.68947" y2="176.96154" gradientUnits="userSpaceOnUse" id="color-8"><stop offset="0" stop-color="#fff987"/><stop offset="1" stop-color="#fff300"/></linearGradient><linearGradient x1="240.91728" y1="187.25674" x2="237.84456" y2="182.41138" gradientUnits="userSpaceOnUse" id="color-9"><stop offset="0" stop-color="#fff987"/><stop offset="1" stop-color="#fff300"/></linearGradient><linearGradient x1="224.18643" y1="183.28297" x2="229.81796" y2="180.7988" gradientUnits="userSpaceOnUse" id="color-10"><stop offset="0" stop-color="#fff987"/><stop offset="1" stop-color="#fff300"/></linearGradient><linearGradient x1="231.03188" y1="187.13757" x2="233.72026" y2="182.29219" gradientUnits="userSpaceOnUse" id="color-11"><stop offset="0" stop-color="#fff987"/><stop offset="1" stop-color="#fff300"/></linearGradient><linearGradient x1="243.45944" y1="168.36248" x2="240.30999" y2="173.06023" gradientUnits="userSpaceOnUse" id="color-12"><stop offset="0" stop-color="#fff987"/><stop offset="1" stop-color="#fff300"/></linearGradient><linearGradient x1="228.44204" y1="168.24222" x2="231.26137" y2="173.98668" gradientUnits="userSpaceOnUse" id="color-13"><stop offset="0" stop-color="#fff987"/><stop offset="1" stop-color="#fff300"/></linearGradient><linearGradient x1="240.52818" y1="166.5463" x2="237.36756" y2="172.25088" gradientUnits="userSpaceOnUse" id="color-14"><stop offset="0" stop-color="#fff987"/><stop offset="1" stop-color="#fff300"/></linearGradient><linearGradient x1="231.29182" y1="166.14746" x2="233.50304" y2="171.8852" gradientUnits="userSpaceOnUse" id="color-15"><stop offset="0" stop-color="#fff987"/><stop offset="1" stop-color="#fff300"/></linearGradient><linearGradient x1="235.35923" y1="188.18329" x2="235.35923" y2="180.96631" gradientUnits="userSpaceOnUse" id="color-16"><stop offset="0" stop-color="#fff987"/><stop offset="1" stop-color="#fff300"/></linearGradient><linearGradient x1="222.05846" y1="178.23215" x2="229.27543" y2="178.23215" gradientUnits="userSpaceOnUse" id="color-17"><stop offset="0" stop-color="#fff987"/><stop offset="1" stop-color="#fff300"/></linearGradient><linearGradient x1="249.06895" y1="177.93513" x2="241.85196" y2="177.93513" gradientUnits="userSpaceOnUse" id="color-18"><stop offset="0" stop-color="#fff987"/><stop offset="1" stop-color="#fff300"/></linearGradient><linearGradient x1="235.58802" y1="165.50746" x2="235.58802" y2="172.72444" gradientUnits="userSpaceOnUse" id="color-19"><stop offset="0" stop-color="#fff987"/><stop offset="1" stop-color="#fff300"/></linearGradient><linearGradient x1="235.59426" y1="169.95571" x2="235.59426" y2="185.2548" gradientUnits="userSpaceOnUse" id="color-20"><stop offset="0" stop-color="#eeb054"/><stop offset="1" stop-color="#d27700"/></linearGradient></defs><g transform="translate(-209.24292,-161.85145)"><g data-paper-data="{&quot;isPaintingLayer&quot;:true}" fill="none" fill-rule="nonzero" stroke="none" stroke-width="none" stroke-linecap="none" stroke-linejoin="miter" stroke-miterlimit="10" stroke-dasharray="" stroke-dashoffset="0" font-family="none" font-weight="none" font-size="none" text-anchor="none" style="mix-blend-mode: normal"><path d="M210.50009,199.33335v-36.5h59.33333v36.5h-35.53162c-3.55039,-0.20536 -7.16454,-0.45838 -10.46478,-0.07208c-0.25993,0.03043 -0.5285,0.05239 -0.80134,0.07208z" data-paper-data="{&quot;origPos&quot;:null}" fill="url(#color-1)" stroke="none" stroke-width="0" stroke-linecap="butt"/><path d="M240.41047,195.51596c-0.00979,1.3063 -5.55677,1.26474 -5.54698,-0.04156c0.00979,-1.3063 1.25945,-2.35596 2.79121,-2.34448c1.53176,0.01147 2.76555,1.07974 2.75577,2.38604z" data-paper-data="{&quot;origPos&quot;:null,&quot;origRot&quot;:0}" fill="#26c000" stroke="#000000" stroke-width="1" stroke-linecap="butt"/><path d="M236.31751,195.39558c-0.00979,1.3063 -5.55677,1.26474 -5.54698,-0.04156c0.00979,-1.3063 1.25945,-2.35596 2.79121,-2.34448c1.53175,0.01147 2.76555,1.07974 2.75577,2.38604z" data-paper-data="{&quot;origPos&quot;:null,&quot;origRot&quot;:0}" fill="#26c000" stroke="#000000" stroke-width="1" stroke-linecap="butt"/><path d="M234.67245,194.77938l-0.67396,-3.84983c0,0 -1.80768,0.14547 -2.48442,0.16136c-0.50631,0.01189 -1.33856,-2.26082 -1.33856,-2.26082c0,0 1.49258,-0.44606 2.1586,-0.20118c0.79104,0.29086 1.42428,1.12194 1.42428,1.12194c0,0 0.11955,-0.02998 0.11955,-0.33897c0,-2.01017 0.79452,-5.15081 0.79452,-5.15081h1.98629c0,0 -0.86674,3.09308 -0.86674,4.93412c0,0.36617 0.04096,0.50377 0.04096,0.50377c0,0 1.34836,-1.02461 1.91747,-1.13336c0.7231,-0.13818 1.993,0.38066 1.993,0.38066c0,0 -1.09057,1.77942 -1.79287,2.03168c-0.56939,0.20452 -2.00512,0.01303 -2.00512,0.01303l0.71332,3.78841z" data-paper-data="{&quot;origPos&quot;:null}" fill="#2fe500" stroke="#000000" stroke-width="0.75" stroke-linecap="butt"/><path d="M242.06411,197.0413c0,1.41747 -6.47049,1.28204 -6.47049,-0.13543c0,-1.41747 1.34741,-2.56655 3.00953,-2.56655c1.66212,0 3.46096,1.28451 3.46096,2.70198z" data-paper-data="{&quot;origPos&quot;:null}" fill="#2fe500" stroke="#000000" stroke-width="1" stroke-linecap="butt"/><path d="M235.29639,196.31013c0.13469,1.44181 -6.25857,2.23943 -6.39326,0.79763c-0.13469,-1.44181 1.39754,-2.96436 3.08819,-3.12229c1.69065,-0.15793 3.17038,0.88286 3.30507,2.32467z" data-paper-data="{&quot;origPos&quot;:null,&quot;origRot&quot;:0}" fill="#2fe500" stroke="#000000" stroke-width="1" stroke-linecap="butt"/><path d="M239.56623,197.57501c0,1.58757 -6.74135,1.58757 -6.74135,0c0,-1.58757 1.5091,-2.87454 3.37067,-2.87454c1.86157,0 3.37067,1.28698 3.37067,2.87454z" data-paper-data="{&quot;origPos&quot;:null}" fill="#2fe500" stroke="#000000" stroke-width="1" stroke-linecap="butt"/><path d="M247.1832,183.07551c-0.98256,0.69673 -2.84566,-0.1372 -3.68604,-0.78293c-0.95616,-0.73469 -1.89811,-1.83439 -0.94135,-2.78132c0.62849,-0.62204 2.06295,-0.41125 3.20395,0.4708c1.14101,0.88205 2.13513,2.5888 1.42344,3.09345z" data-paper-data="{&quot;origPos&quot;:null,&quot;origRot&quot;:0,&quot;index&quot;:null}" fill="url(#color-2)" stroke="#000000" stroke-width="1" stroke-linecap="butt"/><path d="M248.21443,173.20407c0.54552,1.2347 -0.96062,2.84142 -1.9578,3.47429c-1.13455,0.72006 -2.6954,1.30128 -3.54314,0.00751c-0.55687,-0.84988 0.09433,-2.23393 1.45448,-3.09137c1.36016,-0.85744 3.65131,-1.28474 4.04644,-0.39043z" data-paper-data="{&quot;origPos&quot;:null,&quot;origRot&quot;:0,&quot;index&quot;:null}" fill="url(#color-3)" stroke="#000000" stroke-width="1" stroke-linecap="butt"/><path d="M245.45665,173.51913c-1.00347,1.11246 -2.45005,1.64386 -3.23103,1.18692c-1.1889,-0.69561 -0.43704,-1.97274 0.40479,-2.90066c0.7399,-0.81557 2.50333,-2.04662 3.66749,-1.59849c0.84322,0.32459 0.16222,2.19977 -0.84125,3.31223z" data-paper-data="{&quot;origPos&quot;:null,&quot;origRot&quot;:0}" fill="url(#color-4)" stroke="#000000" stroke-width="1" stroke-linecap="butt"/><path d="M228.04,182.81986c0.96337,-1.07418 2.29835,-1.44809 2.98176,-0.83518c1.04036,0.93305 0.29629,2.22379 -0.51162,3.11909c-0.7101,0.7869 -2.36674,1.8816 -3.39715,1.2232c-0.74634,-0.47689 -0.03635,-2.43293 0.92701,-3.5071z" data-paper-data="{&quot;origPos&quot;:null,&quot;origRot&quot;:0}" fill="url(#color-5)" stroke="#000000" stroke-width="1" stroke-linecap="butt"/><path d="M244.6474,185.58078c-1.24622,0.41362 -2.98455,-0.88116 -3.69052,-1.72527c-0.80322,-0.9604 -1.48554,-2.2692 -0.19422,-2.931c0.84826,-0.43473 2.31168,0.14608 3.26864,1.29728c0.95696,1.1512 1.51876,3.0594 0.61611,3.35899z" data-paper-data="{&quot;origPos&quot;:null,&quot;origRot&quot;:0,&quot;index&quot;:null}" fill="url(#color-6)" stroke="#000000" stroke-width="1" stroke-linecap="butt"/><path d="M228.90985,171.3872c0.95893,1.16139 1.1373,2.59745 0.39841,3.20754c-1.12483,0.92875 -2.34139,-0.03996 -3.13987,-1.01308c-0.7018,-0.8553 -1.57412,-2.73545 -0.73432,-3.69663c0.60828,-0.69619 2.51685,0.34078 3.47578,1.50216z" data-paper-data="{&quot;origPos&quot;:null,&quot;origRot&quot;:0}" fill="url(#color-7)" stroke="#000000" stroke-width="1" stroke-linecap="butt"/><path d="M227.26263,173.5252c1.02733,1.24423 1.21843,2.78273 0.42683,3.43634c-1.20507,0.995 -2.5084,-0.04281 -3.36383,-1.08534c-0.75185,-0.9163 -1.6864,-2.93057 -0.7867,-3.96031c0.65167,-0.74585 2.69637,0.36508 3.72371,1.60931z" data-paper-data="{&quot;origPos&quot;:null,&quot;origRot&quot;:0}" fill="url(#color-8)" stroke="#000000" stroke-width="1" stroke-linecap="butt"/><path d="M241.09375,187.51387c-1.3463,0.25185 -2.92593,-1.25032 -3.51672,-2.17554c-0.67218,-1.05268 -1.16461,-2.43506 0.26756,-2.92696c0.94079,-0.32312 2.35176,0.43725 3.15149,1.69833c0.79973,1.26108 1.07282,3.22175 0.09767,3.40416z" data-paper-data="{&quot;origPos&quot;:null,&quot;origRot&quot;:0,&quot;index&quot;:null}" fill="url(#color-9)" stroke="#000000" stroke-width="1" stroke-linecap="butt"/><path d="M226.4193,180.28102c1.4657,-0.64655 2.98734,-0.41473 3.39868,0.51778c0.6262,1.41956 -0.7166,2.38546 -1.94325,2.92208c-1.07813,0.47164 -3.25468,0.82209 -3.99633,-0.31503c-0.53719,-0.82364 1.07519,-2.47827 2.54089,-3.12482z" data-paper-data="{&quot;origPos&quot;:null,&quot;origRot&quot;:0}" fill="url(#color-10)" stroke="#000000" stroke-width="1" stroke-linecap="butt"/><path d="M230.96294,183.99053c0.69969,-1.26108 1.93418,-2.02146 2.75728,-1.69833c1.25304,0.49189 0.8222,1.87428 0.23409,2.92696c-0.51689,0.92522 -1.89895,2.42739 -3.07684,2.17554c-0.85317,-0.18241 -0.61424,-2.14308 0.08545,-3.40416z" data-paper-data="{&quot;origPos&quot;:null,&quot;origRot&quot;:0}" fill="url(#color-11)" stroke="#000000" stroke-width="1" stroke-linecap="butt"/><path d="M243.3185,171.49614c-0.81969,1.22266 -2.16664,1.92293 -3.0085,1.56409c-1.28157,-0.54626 -0.73578,-1.90181 -0.04731,-2.92223c0.60511,-0.89687 2.15719,-2.32833 3.37616,-2.02426c0.88292,0.22023 0.49933,2.15974 -0.32037,3.38241z" data-paper-data="{&quot;origPos&quot;:null,&quot;origRot&quot;:0}" fill="url(#color-12)" stroke="#000000" stroke-width="1" stroke-linecap="butt"/><path d="M231.41898,170.55014c0.73378,1.49509 0.66322,3.03367 -0.15762,3.43654c-1.24957,0.61328 -2.26614,-0.76204 -2.87611,-2.01322c-0.53611,-1.09968 -1.06384,-3.31071 -0.08546,-4.04524c0.70865,-0.53203 2.38542,1.12685 3.1192,2.62193z" data-paper-data="{&quot;origPos&quot;:null,&quot;origRot&quot;:0}" fill="url(#color-13)" stroke="#000000" stroke-width="1" stroke-linecap="butt"/><path d="M240.56685,170.26845c-0.8226,1.4847 -2.25497,2.37227 -3.19929,1.98242c-1.43755,-0.59346 -0.92319,-2.22413 -0.23187,-3.46344c0.60761,-1.08925 2.21964,-2.85262 3.57371,-2.54373c0.98077,0.22373 0.68006,2.54004 -0.14254,4.02475z" data-paper-data="{&quot;origPos&quot;:null,&quot;origRot&quot;:0}" fill="url(#color-14)" stroke="#000000" stroke-width="1" stroke-linecap="butt"/><path d="M234.16655,168.68333c0.57551,1.49334 0.27845,2.92686 -0.66351,3.20188c-1.43394,0.41866 -2.33125,-0.99778 -2.80845,-2.24697c-0.41942,-1.09795 -0.67013,-3.23667 0.48915,-3.80291c0.83968,-0.41013 2.40729,1.35467 2.9828,2.84801z" data-paper-data="{&quot;origPos&quot;:null,&quot;origRot&quot;:0}" fill="url(#color-15)" stroke="#000000" stroke-width="1" stroke-linecap="butt"/><path d="M233.1954,184.36734c0,-1.87834 0.96876,-3.40103 2.1638,-3.40103c1.81922,0 2.21998,1.89761 2.21516,3.46748c-0.00423,1.37979 -0.65826,3.88059 -2.22911,4.1381c-1.13779,0.18652 -2.14984,-2.32622 -2.14984,-4.20455z" data-paper-data="{&quot;origPos&quot;:null,&quot;origRot&quot;:0}" fill="url(#color-16)" stroke="#000000" stroke-width="1" stroke-linecap="butt"/><path d="M225.87438,176.06835c1.87834,0 3.40103,0.96876 3.40103,2.1638c0,1.81922 -1.89761,2.21998 -3.46748,2.21516c-1.37979,-0.00423 -3.88059,-0.65826 -4.1381,-2.22911c-0.18652,-1.13779 2.32622,-2.14984 4.20455,-2.14984z" data-paper-data="{&quot;origPos&quot;:null,&quot;origRot&quot;:0}" fill="url(#color-17)" stroke="#000000" stroke-width="1" stroke-linecap="butt"/><path d="M245.25296,180.03303c-1.87834,0 -3.40103,-0.93926 -3.40103,-2.0979c0,-1.76381 1.89761,-2.15236 3.46748,-2.14769c1.37979,0.0041 3.88059,0.63821 4.13811,2.16122c0.18652,1.10314 -2.32622,2.08436 -4.20455,2.08436z" data-paper-data="{&quot;origPos&quot;:null,&quot;origRot&quot;:0}" fill="url(#color-18)" stroke="#000000" stroke-width="1" stroke-linecap="butt"/><path d="M237.45523,169.32341c0,1.87834 -0.83599,3.40103 -1.86723,3.40103c-1.56987,0 -1.9157,-1.89761 -1.91155,-3.46748c0.00365,-1.37979 0.56804,-3.88059 1.92359,-4.1381c0.98184,-0.18652 1.85519,2.32622 1.85519,4.20455z" data-paper-data="{&quot;origPos&quot;:null}" fill="url(#color-19)" stroke="#000000" stroke-width="1" stroke-linecap="butt"/><path d="M235.90076,169.95571c3.5281,0 9.72932,4.00376 9.73587,7.53185c0.00841,4.52865 -5.53087,7.54769 -10.05463,7.75837c-4.43297,0.20645 -10.01011,-3.21904 -10.03008,-7.65678c-0.01605,-3.56771 5.26977,-7.63345 10.34883,-7.63345z" data-paper-data="{&quot;origPos&quot;:null,&quot;origRot&quot;:0}" fill="url(#color-20)" stroke="#000000" stroke-width="1" stroke-linecap="butt"/><path d="M233.91072,175.39039c0.02131,1.36714 -0.61404,2.52214 -1.41908,2.57973c-0.80504,0.05761 -1.47494,-1.004 -1.49624,-2.37114c-0.02131,-1.36714 0.61404,-2.52214 1.41908,-2.57973c0.80504,-0.05761 1.47493,1.004 1.49624,2.37113z" data-paper-data="{&quot;origPos&quot;:null,&quot;origRot&quot;:0}" fill="#000000" stroke="none" stroke-width="0" stroke-linecap="butt"/><path d="M240.40688,175.44906c0.02131,1.36714 -0.61404,2.52214 -1.41908,2.57973c-0.80504,0.05761 -1.47494,-1.004 -1.49624,-2.37114c-0.02131,-1.36714 0.61404,-2.52214 1.41908,-2.57973c0.80504,-0.05761 1.47493,1.004 1.49624,2.37113z" data-paper-data="{&quot;origPos&quot;:null,&quot;origRot&quot;:0}" fill="#000000" stroke="none" stroke-width="0" stroke-linecap="butt"/><path d="M242.3407,179.98583c0,0 -4.09299,1.82409 -6.84351,1.68355c-2.71278,-0.13861 -6.33807,-1.68355 -6.33807,-1.68355" data-paper-data="{&quot;origPos&quot;:null}" fill="none" stroke="#000000" stroke-width="0.5" stroke-linecap="round"/><path d="M232.76316,174.6987c0.00864,0.55434 -0.24897,1.02266 -0.5754,1.04601c-0.32642,0.02336 -0.59805,-0.4071 -0.60669,-0.96143c-0.00864,-0.55434 0.24897,-1.02266 0.5754,-1.04601c0.32642,-0.02336 0.59805,0.4071 0.60669,0.96143z" data-paper-data="{&quot;origPos&quot;:null,&quot;origRot&quot;:0}" fill="#ffffff" stroke="none" stroke-width="0" stroke-linecap="butt"/><path d="M239.15088,174.7512c0.00864,0.55434 -0.24897,1.02266 -0.5754,1.04601c-0.32642,0.02336 -0.59805,-0.4071 -0.60669,-0.96143c-0.00864,-0.55434 0.24897,-1.02266 0.5754,-1.04601c0.32642,-0.02336 0.59805,0.4071 0.60669,0.96143z" data-paper-data="{&quot;origPos&quot;:null,&quot;origRot&quot;:0}" fill="#ffffff" stroke="none" stroke-width="0" stroke-linecap="butt"/><path d="M210.24293,198.32859v-35.47714h58.63158v35.47714z" data-paper-data="{&quot;origPos&quot;:null}" fill="none" stroke="#d6faff" stroke-width="2" stroke-linecap="butt"/><path d="M267.97121,181.60708v15.82871h-19.13622z" data-paper-data="{&quot;origPos&quot;:null,&quot;origRot&quot;:0}" fill="#d6faff" stroke="none" stroke-width="0" stroke-linecap="butt"/><text transform="translate(254.51566,196.54398) scale(0.2887,0.2887)" font-size="40" xml:space="preserve" data-paper-data="{&quot;origPos&quot;:null}" fill="#000000" fill-rule="nonzero" stroke="none" stroke-width="1" stroke-linecap="butt" stroke-linejoin="miter" stroke-miterlimit="10" stroke-dasharray="" stroke-dashoffset="0" font-family="Sans Serif" font-weight="normal" text-anchor="start" style="mix-blend-mode: normal"><tspan x="0" dy="0">50</tspan></text><text transform="translate(254.16162,196.18994) scale(0.2887,0.2887)" font-size="40" xml:space="preserve" data-paper-data="{&quot;origPos&quot;:null}" fill="#ffffff" fill-rule="nonzero" stroke="none" stroke-width="1" stroke-linecap="butt" stroke-linejoin="miter" stroke-miterlimit="10" stroke-dasharray="" stroke-dashoffset="0" font-family="Sans Serif" font-weight="normal" text-anchor="start" style="mix-blend-mode: normal"><tspan x="0" dy="0">50</tspan></text></g></g></svg>