<svg version="1.1" xmlns="http://www.w3.org/2000/svg" xmlns:xlink="http://www.w3.org/1999/xlink" width="38.49975" height="59.33506" viewBox="0,0,38.49975,59.33506"><g transform="translate(-218.27535,-160.19666)"><g data-paper-data="{&quot;isPaintingLayer&quot;:true}" fill="none" fill-rule="nonzero" stroke="none" stroke-width="none" stroke-linecap="butt" stroke-linejoin="miter" stroke-miterlimit="10" stroke-dasharray="" stroke-dashoffset="0" font-family="none" font-weight="none" font-size="none" text-anchor="none" style="mix-blend-mode: normal"><path d="M220.36849,191.26344l-0.98299,-8.34229l19.2667,-2.27024l0.98299,8.34229z" data-paper-data="{&quot;origPos&quot;:null,&quot;origRot&quot;:0}" fill="#c07a00" stroke="#000000" stroke-width="2"/><path d="M229.47481,199.35362l2.78915,-19.80456l19.21043,2.70547l-2.78915,19.80456z" data-paper-data="{&quot;origPos&quot;:null,&quot;origRot&quot;:0}" fill="#c07a00" stroke="#000000" stroke-width="2"/><path d="M255.7751,174.84228c-0.90855,6.45128 -7.43622,10.86549 -14.57994,9.85941c-7.14372,-1.00608 -12.19832,-7.05146 -11.28977,-13.50274c0.90855,-6.45128 7.43622,-10.86549 14.57994,-9.85941c7.14372,1.00608 12.19832,7.05146 11.28977,13.50274z" data-paper-data="{&quot;origPos&quot;:null,&quot;origRot&quot;:0}" fill="#b2b2b2" stroke="#000000" stroke-width="2"/><path d="M242.79872,169.28195c-0.23106,1.64065 -1.49901,2.81849 -2.83205,2.63076c-1.33304,-0.18773 -2.22637,-1.66996 -1.99531,-3.31061c0.23106,-1.64065 1.49901,-2.81849 2.83205,-2.63076c1.33304,0.18773 2.22637,1.66996 1.99531,3.31061z" data-paper-data="{&quot;origPos&quot;:null,&quot;origRot&quot;:0}" fill="#ff0000" stroke="none" stroke-width="0"/><path d="M236.73916,168.56741c-0.207,1.46977 -1.31688,2.52856 -2.47903,2.36489c-1.16214,-0.16367 -1.93643,-1.48781 -1.72945,-2.95758c0.207,-1.46977 1.31688,-2.52856 2.47903,-2.36489c1.16214,0.16367 1.93643,1.48781 1.72945,2.95758z" data-paper-data="{&quot;origPos&quot;:null,&quot;origRot&quot;:0}" fill="#ff0000" stroke="none" stroke-width="0"/><path d="M225.78099,215.52371l5.35776,-16.55459l7.61131,2.46334l-5.35776,16.55459z" data-paper-data="{&quot;origPos&quot;:null,&quot;origRot&quot;:0}" fill="#4c517f" stroke="#000000" stroke-width="2"/><path d="M238.99501,217.81359l1.41062,-17.54338l7.97426,0.64119l-1.41062,17.54338z" data-paper-data="{&quot;origPos&quot;:null,&quot;origRot&quot;:0}" fill="#4c517f" stroke="#000000" stroke-width="2"/><path d="M222.38701,184.83488l3.19907,-7.76697l17.93802,7.38833l-3.19907,7.76697z" data-paper-data="{&quot;origPos&quot;:null,&quot;origRot&quot;:0}" fill="#c07a00" stroke="#000000" stroke-width="2"/></g></g></svg>