<svg version="1.1" xmlns="http://www.w3.org/2000/svg" xmlns:xlink="http://www.w3.org/1999/xlink" width="79.2071" height="68.49839" viewBox="0,0,79.2071,68.49839"><defs><linearGradient x1="240.19427" y1="191.00522" x2="240.19427" y2="207.40819" gradientUnits="userSpaceOnUse" id="color-1"><stop offset="0" stop-color="#24693c"/><stop offset="1" stop-color="#4ecc71"/></linearGradient><radialGradient cx="239.44776" cy="173.4348" r="21.1235" gradientUnits="userSpaceOnUse" id="color-2"><stop offset="0" stop-color="#b3fa98"/><stop offset="1" stop-color="#05ac26"/></radialGradient><radialGradient cx="230.8" cy="150.4" r="14.99911" gradientUnits="userSpaceOnUse" id="color-3"><stop offset="0" stop-color="#036617"/><stop offset="1" stop-color="#037019"/></radialGradient><radialGradient cx="240.54467" cy="172.27415" r="6.67932" gradientUnits="userSpaceOnUse" id="color-4"><stop offset="0" stop-color="#adeba3"/><stop offset="1" stop-color="#32c144"/></radialGradient><linearGradient x1="235.72659" y1="180.86405" x2="235.72659" y2="198.66525" gradientUnits="userSpaceOnUse" id="color-5"><stop offset="0" stop-color="#a8d9ab"/><stop offset="1" stop-color="#50d844"/></linearGradient><radialGradient cx="238.70778" cy="173.74051" r="11.33088" gradientUnits="userSpaceOnUse" id="color-6"><stop offset="0" stop-color="#a5f48f"/><stop offset="1" stop-color="#32c144"/></radialGradient><linearGradient x1="247.9057" y1="162.15147" x2="247.9057" y2="179.7664" gradientUnits="userSpaceOnUse" id="color-7"><stop offset="0" stop-color="#baffa7"/><stop offset="1" stop-color="#82ff63"/></linearGradient><radialGradient cx="199.94756" cy="147.41751" r="10.59119" gradientUnits="userSpaceOnUse" id="color-8"><stop offset="0" stop-color="#c8d6ca"/><stop offset="1" stop-color="#05ad27"/></radialGradient><radialGradient cx="193.8794" cy="150.78871" r="9.57427" gradientUnits="userSpaceOnUse" id="color-9"><stop offset="0" stop-color="#83dd6c"/><stop offset="1" stop-color="#28bd46"/></radialGradient><radialGradient cx="205.00436" cy="152.05291" r="7.29369" gradientUnits="userSpaceOnUse" id="color-10"><stop offset="0" stop-color="#83dd6c"/><stop offset="1" stop-color="#5dc572"/></radialGradient><linearGradient x1="198.4" y1="150.9" x2="198.4" y2="163.5" gradientUnits="userSpaceOnUse" id="color-11"><stop offset="0" stop-color="#53db7a"/><stop offset="1" stop-color="#24693c"/></linearGradient></defs><g transform="translate(-186.79737,-139.39676)"><g data-paper-data="{&quot;isPaintingLayer&quot;:true}" fill="none" fill-rule="nonzero" stroke="none" stroke-width="none" stroke-linecap="none" stroke-linejoin="miter" stroke-miterlimit="10" stroke-dasharray="" stroke-dashoffset="0" font-family="none" font-weight="none" font-size="none" text-anchor="none" style="mix-blend-mode: normal"><path d="M265.50447,196.78896c0,2.05192 -4.46233,5.3969 -5.99869,5.1516c-2.211,-0.35301 -7.33647,-4.94385 -7.33647,-4.94385c0,0 3.94658,2.47919 5.06352,4.47218c1.09713,1.95763 1.60555,5.11132 -0.57043,5.66005c-0.81875,0.20647 -2.25973,-4.07958 -3.04313,-3.76452c-0.51129,0.20562 -0.20078,0.90011 -0.39866,1.41446c-0.48513,1.26101 -0.65474,2.07082 -2.00368,2.1474c-2.54931,0.14472 -1.21167,-3.82453 -3.65419,-3.08021c-1.3397,0.40825 -1.1077,1.11468 -2.17422,2.02242c-2.09749,1.78521 -2.63345,1.52666 -5.3878,1.52666c-3.37785,0 -7.03408,-6.82012 -7.03408,-6.82012c0,0 -9.27918,5.80446 -14.23348,3.40515c-1.85279,-0.89729 1.05445,-3.69416 2.6697,-4.97045c1.36434,-1.07803 4.18869,-1.43148 4.18869,-1.43148c0,0 -4.97845,1.0473 -7.10801,0.24077c-1.79846,-0.68114 -3.59951,-2.29397 -3.59951,-4.2171c0,-1.27932 7.86551,-0.1749 7.86551,-0.1749c0,0 -3.96234,-1.47362 -2.2704,-1.93843c6.91241,-1.899 31.59011,2.37702 33.85978,2.86475c0.75656,0.16258 7.08018,-1.36996 7.557,-0.76049c0.73094,0.93429 -2.67507,3.70814 -2.67507,3.70814c0,0 6.28359,-4.13562 6.28359,-0.51203z" data-paper-data="{&quot;origPos&quot;:null}" fill="url(#color-1)" stroke="#0f2c13" stroke-width="1" stroke-linecap="butt"/><path d="M220.1034,174.6895v-2.76629h2.48966v2.76629z" data-paper-data="{&quot;origPos&quot;:null}" fill="#1c5324" stroke="none" stroke-width="0" stroke-linecap="butt"/><path d="M261.91767,179.90571c0,10.93456 -8.99461,19.79877 -21.44564,19.79877c-12.45103,0 -19.79723,-8.86421 -19.79723,-19.79877c0,-7.64184 2.01,-10.17069 5.5737,-11.53488c2.58033,-0.98775 1.24441,-4.30197 1.97099,-6.96765c0.41142,-1.50942 1.75869,-3.1986 3.09877,-2.39126c2.06409,1.24351 4.72968,3.87391 4.72968,3.87391c0,0 0.57469,-4.51695 2.76081,-2.96485c2.45507,1.74304 4.36004,2.4601 6.20977,4.22577c0,0 16.89917,4.82442 16.89917,15.75897z" data-paper-data="{&quot;origPos&quot;:null}" fill="url(#color-2)" stroke="#000000" stroke-width="1.5" stroke-linecap="butt"/><path d="M251.59719,186.03118c0.27631,2.25701 -0.57066,4.27901 -1.89177,4.51621c-1.32109,0.23722 -2.61607,-1.40018 -2.89238,-3.6572c-0.27631,-2.25701 0.57066,-4.27901 1.89177,-4.51621c1.32109,-0.23722 2.61606,1.40018 2.89236,3.65718z" data-paper-data="{&quot;origPos&quot;:null,&quot;origRot&quot;:0}" fill="#000000" stroke="none" stroke-width="0" stroke-linecap="butt"/><path d="M257.40953,184.12387c0.1873,1.70267 -0.46932,3.21789 -1.46663,3.38437c-0.99732,0.16648 -1.95762,-1.07881 -2.14493,-2.78149c-0.1873,-1.70267 0.46931,-3.21789 1.46663,-3.38437c0.99732,-0.16648 1.95764,1.07882 2.14495,2.78148z" data-paper-data="{&quot;origPos&quot;:null,&quot;origRot&quot;:0}" fill="#000000" stroke="none" stroke-width="0" stroke-linecap="butt"/><path d="M236.49967,163.71719c0.25775,-1.14166 2.08853,-1.65886 2.09998,-1.639c0.93891,-0.19312 1.14318,0.2274 1.32616,0.67349c0.54893,1.33828 4.80687,4.47894 4.80687,4.47894c0,0 -8.74491,-1.24605 -8.233,-3.51343z" data-paper-data="{&quot;origPos&quot;:null,&quot;index&quot;:null}" fill="#287732" stroke="none" stroke-width="0" stroke-linecap="butt"/><path d="M234.2181,165.03211l-4.66425,-13.21368c0,0 -2.64952,-1.03069 -4.9194,-0.39874c-5.61594,1.5635 -14.61438,6.02431 -14.61438,6.02431l1.53991,-3.17675c0,0 6.35791,-3.2131 10.57082,-4.55206c4.05239,-1.28796 9.71108,-0.83376 9.71108,-0.83376l8.17641,17.90688z" data-paper-data="{&quot;origPos&quot;:null,&quot;origRot&quot;:0}" fill="url(#color-3)" stroke="#0f2c13" stroke-width="0.5" stroke-linecap="butt"/><path d="M236.59668,175.47823c0,0 -2.63452,-7.47561 0.96309,-10.59354c1.43488,0.15828 1.60014,0.89355 3.0642,0.72308c0.81057,-0.09438 -1.46494,-3.29987 -0.66246,-3.44803c1.27805,-0.23595 3.27113,0.61558 4.37005,1.30947c1.95379,1.23368 4.57485,2.6996 4.57485,2.6996c0,0 -1.08007,3.52708 -4.53169,6.51848c-2.04149,1.76929 -7.77805,2.79093 -7.77805,2.79093z" data-paper-data="{&quot;origPos&quot;:null}" fill="url(#color-4)" stroke="#256d2f" stroke-width="0.5" stroke-linecap="butt"/><path d="M249.79674,185.48687c0.12534,1.02387 -0.25887,1.94112 -0.85818,2.04873c-0.5993,0.10761 -1.18675,-0.63518 -1.3121,-1.65905c-0.12534,-1.02387 0.25887,-1.94112 0.85818,-2.04873c0.5993,-0.10761 1.18675,0.63518 1.31209,1.65904z" data-paper-data="{&quot;origPos&quot;:null,&quot;origRot&quot;:0}" fill="#ffffff" stroke="none" stroke-width="0" stroke-linecap="butt"/><path d="M255.83935,183.38808c0.06388,0.58064 -0.16005,1.09738 -0.50016,1.15416c-0.3401,0.05678 -0.6676,-0.3679 -0.73148,-0.94855c-0.06388,-0.58064 0.16005,-1.09738 0.50016,-1.15416c0.3401,-0.05678 0.6676,0.36791 0.73147,0.94855z" data-paper-data="{&quot;origPos&quot;:null,&quot;origRot&quot;:0}" fill="#ffffff" stroke="none" stroke-width="0" stroke-linecap="butt"/><path d="M229.98163,168.49074c0,0 -0.55754,-5.62866 -0.00861,-6.96693c0.18297,-0.44609 0.38725,-1.2679 1.32616,-1.07479c0.01145,-0.01986 1.84223,0.65787 2.09998,1.79953c0.51191,2.26738 -0.09945,0.78465 -0.09945,0.78465z" data-paper-data="{&quot;origPos&quot;:null}" fill="#287732" stroke="none" stroke-width="0" stroke-linecap="butt"/><path d="M241.51442,181.43362c0,0 0.93421,-5.58829 2.6088,-5.43198c3.45629,0.32262 5.34225,4.18081 5.34225,4.18081c0,0 -2.89307,-1.30844 -4.27587,-1.09085c-1.72021,0.27069 -3.67519,2.34203 -3.67519,2.34203z" data-paper-data="{&quot;origPos&quot;:null,&quot;origRot&quot;:0}" fill="#05ac26" stroke="#000000" stroke-width="0.5" stroke-linecap="butt"/><path d="M253.59425,179.19183c0,0 0.41036,-3.54152 2.10412,-4.47537c1.59787,-0.88099 4.53939,3.47214 4.53939,3.47214c0,0 -2.17156,-1.31281 -3.62007,-1.13963z" data-paper-data="{&quot;origPos&quot;:null,&quot;index&quot;:null,&quot;origRot&quot;:0}" fill="#05ac26" stroke="#000000" stroke-width="0.5" stroke-linecap="butt"/><path d="M229.86136,195.87302c-9.31009,-5.53335 -8.11532,-15.00897 -8.11532,-15.00897c0,0 1.81981,2.31614 3.48936,3.52113c2.89898,2.09231 5.27897,2.89868 8.35787,4.71589c1.07262,0.63307 3.30279,0.95609 4.27355,1.73642c1.04675,0.84142 1.19652,2.00265 1.97062,3.10012c0.56076,0.79502 1.20418,0.69842 2.0726,1.13699c2.90936,1.46929 7.84692,1.93282 7.84692,1.93282c0,0 -10.58552,4.39896 -19.89561,-1.1344z" data-paper-data="{&quot;origPos&quot;:null}" fill="url(#color-5)" stroke="#287732" stroke-width="0" stroke-linecap="butt"/><path d="M221.68842,184.10012c0,0 -3.00232,-6.46052 -1.58566,-10.2539c1.41666,-3.79338 4.8755,-1.86825 6.53757,-3.25475c1.74595,-1.45648 2.05743,-1.46541 3.58711,-3.14758c1.16773,-1.28413 0.86266,-4.12853 2.27962,-5.13093c0.98323,-0.69556 1.83235,0.20503 3.01285,0.44367c1.28933,0.26065 1.39079,4.53554 1.39079,4.53554c0,0 2.8819,-0.5568 2.45728,1.61144c-0.36576,1.86766 -1.56142,1.1313 -1.46001,3.03173c0.12208,2.28781 2.62791,-0.32607 2.40496,1.95412c-0.34608,3.53952 -0.64725,5.21747 -2.87368,7.99074c0,0 -5.58084,2.08811 -8.55028,2.43162c-3.58542,0.41476 -7.20057,-0.2117 -7.20057,-0.2117z" data-paper-data="{&quot;origPos&quot;:null}" fill="url(#color-6)" stroke="#256d2f" stroke-width="0.5" stroke-linecap="butt"/><path d="M221.47519,188.12778c-0.85149,-2.00247 0.15365,-2.61351 -0.9124,-4.4285c-0.46515,-0.79192 -0.94529,-0.29208 -1.86052,-0.3686c-1.2454,-0.10412 -2.82906,-0.10366 -3.11169,-1.32102c-0.31664,-1.36387 1.97549,-3.24471 1.97549,-3.24471c0,0 -4.35351,-0.53149 -4.2109,-3.4209c0.14789,-2.99634 4.39419,-2.88916 4.79908,-3.57543c0.68145,-1.15502 -0.11278,-2.3673 1.19734,-2.65371c0.84219,-0.18411 2.56808,2.64809 2.48809,1.78973c-0.10361,-1.11184 3.38005,0.10913 3.38005,0.10913l-2.50833,1.55977c0,0 -2.30009,0.59751 -2.12232,2.5625c0.33825,3.73885 -0.33188,3.52498 2.19577,6.30066c1.24848,1.371 3.60019,4.96991 5.42925,4.50794c0.79843,1.63012 3.231,1.5975 4.82291,2.46963c2.0677,1.13279 5.18473,2.98496 5.18473,2.98496c0,0 -2.76568,-1.01359 -3.7827,-0.94741c-2.87468,0.18705 -2.3929,0.94412 -5.09793,-0.04664c-1.16457,-0.42654 -1.434,-1.5806 -2.62783,-1.91666c-2.72252,-0.76639 -4.3866,1.64173 -5.23809,-0.36074z" data-paper-data="{&quot;origPos&quot;:null}" fill="#98ff7e" stroke="#256d2f" stroke-width="1" stroke-linecap="butt"/><path d="M238.64795,179.76639c0,0 0.69879,-1.22861 0.88574,-2.00513c0.28768,-1.195 0.51884,-2.98108 0.51884,-2.98108c0.58946,-1.17823 1.26245,-1.47244 2.09619,-2.49252c0.76334,-0.93396 1.86932,-2.58927 1.86932,-2.58927c0.92736,-1.09263 5.04951,-4.02007 5.04951,-4.02007l-3.83903,-1.88383c0,0 1.30453,-0.60588 2.0238,-0.85441c4.12021,-1.42364 9.62608,-0.98029 9.90567,1.82523c0.17044,1.71032 -3.70296,0.00959 -5.52737,2.15914c-0.76893,0.90598 0.87117,3.10038 -0.10713,4.27832c-0.79921,0.96232 -3.74494,-1.77032 -4.55655,-0.81844c-0.57155,0.67033 -0.27083,3.03995 -0.93112,3.53602c-1.04513,0.78519 -0.99758,0.09774 -2.27006,-0.20165c-0.54188,-0.12749 -0.90285,0.19885 -1.29341,0.59554c-1.61237,1.63769 -0.14749,2.54106 -1.83057,4.106c-1.17858,1.09586 -1.99382,1.34616 -1.99382,1.34616z" data-paper-data="{&quot;origPos&quot;:null}" fill="url(#color-7)" stroke="#256d2f" stroke-width="1" stroke-linecap="butt"/><path d="M249.19411,163.86819c0,0 3.43929,0.15008 2.57216,0.6756c-2.87737,1.74381 -4.39911,1.73263 -6.84216,4.04599c-1.24998,1.18363 -2.27839,3.1478 -3.44673,4.41208c-3.2021,3.46504 -0.67287,5.91538 -4.41976,8.78257c-2.8054,2.14674 -10.26184,2.90022 -10.26184,2.90022" data-paper-data="{&quot;origPos&quot;:null}" fill="none" stroke="#287732" stroke-width="0.5" stroke-linecap="round"/><path d="M249.85235,196.96497c0,0 -2.5428,-0.35141 -4.26121,-0.82527c-1.84647,-0.50917 -3.08594,-1.02184 -4.81061,-1.85506c-2.99301,-1.44598 -0.75161,-2.17309 -3.65237,-3.79622c-4.11025,-2.2999 -9.16571,-4.12758 -12.74153,-7.19305c-2.63845,-2.26189 -4.88527,-6.40882 -3.2578,-9.43008c0.67873,-1.26003 1.56623,-1.41244 1.56623,-1.41244" data-paper-data="{&quot;origPos&quot;:null}" fill="none" stroke="#287732" stroke-width="0.5" stroke-linecap="round"/><path d="M211.3358,154.88275c-0.82696,5.97472 -6.81919,10.08159 -13.38402,9.17296c-6.56483,-0.90864 -11.2163,-6.4887 -10.38934,-12.46342c0.82696,-5.97472 24.60032,-2.68426 23.77336,3.29046z" data-paper-data="{&quot;origPos&quot;:null,&quot;origRot&quot;:0}" fill="#2e8149" stroke="#0f2c13" stroke-width="0.5" stroke-linecap="butt"/><path d="M188.54166,152.4111c0,-5.84934 4.74182,-10.84403 10.59119,-10.84403c5.84934,0 10.59119,4.99466 10.59119,10.84403c0,5.84934 -4.74182,10.84403 -10.59119,10.84403c-5.84934,0 -10.59119,-4.99466 -10.59119,-10.84403z" data-paper-data="{&quot;origPos&quot;:null}" fill="url(#color-8)" stroke="#000000" stroke-width="1" stroke-linecap="butt"/><path d="M206.42939,159.10743c-1.88703,2.04258 -2.50575,1.83714 -3.9569,1.80967c-2.774,-0.05251 -6.90749,-2.16182 -6.90749,-2.16182c0,0 4.34654,-0.87542 6.45772,-2.6883c1.88207,-1.61615 2.6876,-3.69018 2.00957,-6.07647c-0.44742,-1.57465 -1.55494,-2.62294 -1.58565,-4.25964c-0.01727,-0.92044 1.25115,-2.27453 1.25115,-2.27453c0,0 0.56169,0.73556 2.17591,1.65682c1.08365,0.61846 1.59746,2.16626 2.26709,3.21905c0.90983,1.43042 0.80309,2.716 0.80309,4.41126c0,3.81923 -0.75062,4.45467 -2.5145,6.36394z" data-paper-data="{&quot;origPos&quot;:null,&quot;index&quot;:null}" fill="#27b33c" stroke="#1c802b" stroke-width="0.5" stroke-linecap="butt"/><path d="M189.244,152.51645c0,-2.05575 0.38157,-3.6147 1.48487,-5.34931c0.81203,-1.27667 1.94611,-2.64259 3.2602,-3.39257c1.95749,-1.11719 4.98927,-1.49814 4.98927,-1.49814c0,0 -3.30688,5.24255 -3.77829,6.90164c-0.82222,2.89374 0.1546,5.40882 2.4369,7.36864c2.56013,2.19839 7.83096,3.25996 7.83096,3.25996c0,0 -4.336,4.07685 -8.3409,2.54706c0,0 -3.0387,-0.85788 -4.6294,-2.42664c-2.03676,-2.00867 -3.25361,-2.77925 -3.25361,-7.41064z" data-paper-data="{&quot;origPos&quot;:null}" fill="#27b33c" stroke="#1c802b" stroke-width="0.5" stroke-linecap="butt"/><path d="M194.89076,150.53587c0,0 2.99013,-3.47949 4.63425,-3.49486c0.87417,-0.00817 0.81357,2.04953 1.50044,2.59033c0.67373,0.53046 0.76735,-0.62924 1.61647,-0.50973c0.32793,0.04616 1.2668,1.32997 1.2668,1.32997" data-paper-data="{&quot;origPos&quot;:null}" fill="none" stroke="#1c802b" stroke-width="0.5" stroke-linecap="round"/><path d="M201.29604,142.69783c0,0 -0.87752,0.67816 -1.06158,1.22011c-0.21288,0.62683 1.17538,1.00245 1.09644,1.65972c-0.07409,0.61686 -1.5519,1.58701 -1.5519,1.58701" data-paper-data="{&quot;origPos&quot;:null}" fill="none" stroke="#1c802b" stroke-width="0.5" stroke-linecap="round"/><path d="M192.02524,151.80007c0.13444,-1.33702 0.69701,-0.40725 1.39239,-1.55711c0.26421,-0.43689 -0.93852,-2.11706 -0.68123,-2.55807c0.59245,-1.01551 0.95371,-0.53903 1.82475,-1.32867c0.9362,-0.8487 -1.59927,-3.54743 -0.70606,-4.44127c0.75007,-0.7506 1.3403,0.8922 2.39634,0.9961c0.72376,0.0712 0.28215,-2.9382 0.94888,-3.22867c0.57904,-0.25226 0.53661,0.89977 0.87605,1.43241c0.13774,0.21614 1.08101,-0.85752 1.2609,-0.67495c0.18491,0.18765 1.10858,0.65699 1.04769,0.91331c-0.06991,0.29427 -0.67812,-0.27401 -0.96073,-0.16623c-0.31426,0.11985 -0.48802,0.83667 -0.48802,0.83667c0,0 -2.70402,4.00416 -3.56608,6.5095c-0.73545,2.1374 -0.66689,3.19775 0.10311,5.32295c1.18701,3.27616 5.65425,4.93927 5.65425,4.93927c0,0 -9.40183,-4.01575 -9.10224,-6.99524z" data-paper-data="{&quot;origPos&quot;:null}" fill="url(#color-9)" stroke="#256d2f" stroke-width="0.5" stroke-linecap="butt"/><path d="M202.89736,155.67694c0,0 2.2759,-3.32863 1.45653,-5.73598c-0.67995,-1.99771 -1.65587,-2.20276 -1.71904,-4.2061c-0.07135,-2.2628 1.35815,-2.95276 1.35815,-2.95276c0,0 -1.33296,-1.75117 -1.06147,-1.30263c0.39887,0.659 1.40995,-0.80915 1.95734,-0.26717c0.38006,0.37631 -0.00362,0.55939 0.33119,1.69977c0.10938,0.37254 0.9624,0.76586 0.94359,1.15367c-0.03646,0.75168 -1.10002,0.99365 -1.29616,1.72022c-0.27586,1.02186 2.35166,2.4257 2.36612,3.48403c0.02805,2.05292 -0.32344,0.51721 -1.5069,1.96516c-1.05951,1.29631 1.22725,0.16399 1.09122,1.83267c-0.2144,2.62992 -3.92056,2.60912 -3.92056,2.60912z" data-paper-data="{&quot;origPos&quot;:null}" fill="url(#color-10)" stroke="#256d2f" stroke-width="0.5" stroke-linecap="butt"/><path d="M187.04725,152.94831c0.02058,-0.64327 0.35275,-1.94831 0.35275,-1.94831c0,0 1.35071,1.16251 1.524,1.58144c0.51989,1.25678 0.49135,2.87009 0.49135,2.87009c0,0 0.3226,-1.63206 2.32223,-1.05022c0.63649,0.1852 0.93793,2.15092 0.93793,2.15092c0,0 2.12292,-2.14272 3.23789,-1.05257c1.35236,1.32226 1.62702,3.06051 1.62702,3.06051c0,0 1.79674,-2.51295 2.71873,-2.32529c2.0847,0.42431 3.39065,1.42904 3.39065,1.42904c0,0 -1.83301,-0.96416 -0.70205,-2.60536c0.83358,-1.20964 4.05556,-0.20327 4.05556,-0.20327c0,0 -0.61168,-1.60203 -0.17113,-2.4354c0.58261,-1.10208 1.77342,0.00853 1.77342,0.00853l0.39439,-2.02842c0,0 2.16374,2.51096 2.21762,3.94181c0.07198,1.91168 -0.7799,3.36709 -1.84302,4.95753c-2.33901,3.4992 -7.00602,5.53604 -11.18276,5.01625c-2.22528,-0.27694 -3.50041,-1.01369 -5.53512,-1.95631c0,0 -2.96231,-1.89373 -4.13569,-4.12036c-0.87214,-1.65498 -1.53553,-3.36078 -1.47378,-5.29061z" data-paper-data="{&quot;origPos&quot;:null}" fill="url(#color-11)" stroke="#0f2c13" stroke-width="0.5" stroke-linecap="butt"/></g></g></svg>