<svg version="1.1" xmlns="http://www.w3.org/2000/svg" xmlns:xlink="http://www.w3.org/1999/xlink" width="58.15422" height="80.15659" viewBox="0,0,58.15422,80.15659"><defs><linearGradient x1="240.19427" y1="191.00524" x2="240.19427" y2="207.40821" gradientUnits="userSpaceOnUse" id="color-1"><stop offset="0" stop-color="#24693c"/><stop offset="1" stop-color="#4ecc71"/></linearGradient><radialGradient cx="243.97279" cy="173.11532" r="21.1235" gradientUnits="userSpaceOnUse" id="color-2"><stop offset="0" stop-color="#b3fa98"/><stop offset="1" stop-color="#05ac26"/></radialGradient><radialGradient cx="245.84026" cy="155.33327" r="14.99911" gradientUnits="userSpaceOnUse" id="color-3"><stop offset="0" stop-color="#036617"/><stop offset="1" stop-color="#037019"/></radialGradient><radialGradient cx="245.39564" cy="172.39019" r="6.67932" gradientUnits="userSpaceOnUse" id="color-4"><stop offset="0" stop-color="#adeba3"/><stop offset="1" stop-color="#32c144"/></radialGradient><linearGradient x1="237.97382" y1="178.8645" x2="231.99867" y2="195.63293" gradientUnits="userSpaceOnUse" id="color-5"><stop offset="0" stop-color="#a8d9ab"/><stop offset="1" stop-color="#50d844"/></linearGradient><radialGradient cx="243.17311" cy="173.1549" r="11.33088" gradientUnits="userSpaceOnUse" id="color-6"><stop offset="0" stop-color="#a5f48f"/><stop offset="1" stop-color="#32c144"/></radialGradient><linearGradient x1="255.72738" y1="165.32558" x2="249.81475" y2="181.91856" gradientUnits="userSpaceOnUse" id="color-7"><stop offset="0" stop-color="#baffa7"/><stop offset="1" stop-color="#82ff63"/></linearGradient><linearGradient x1="220.52865" y1="135.10132" x2="212.51067" y2="144.82099" gradientUnits="userSpaceOnUse" id="color-8"><stop offset="0" stop-color="#53db7a"/><stop offset="1" stop-color="#24693c"/></linearGradient></defs><g transform="translate(-207.85025,-127.73858)"><g data-paper-data="{&quot;isPaintingLayer&quot;:true}" fill="none" fill-rule="nonzero" stroke="none" stroke-width="none" stroke-linecap="none" stroke-linejoin="miter" stroke-miterlimit="10" stroke-dasharray="" stroke-dashoffset="0" font-family="none" font-weight="none" font-size="none" text-anchor="none" style="mix-blend-mode: normal"><path d="M265.50447,196.78898c0,2.05192 -4.46233,5.3969 -5.99869,5.1516c-2.211,-0.35301 -7.33647,-4.94385 -7.33647,-4.94385c0,0 3.94658,2.47919 5.06352,4.47218c1.09713,1.95763 1.60555,5.11132 -0.57043,5.66005c-0.81875,0.20647 -2.25973,-4.07958 -3.04313,-3.76452c-0.51129,0.20562 -0.20078,0.90011 -0.39866,1.41446c-0.48513,1.26101 -0.65474,2.07082 -2.00368,2.1474c-2.54931,0.14472 -1.21167,-3.82453 -3.65419,-3.08021c-1.3397,0.40825 -1.1077,1.11468 -2.17422,2.02242c-2.09749,1.78521 -2.63345,1.52666 -5.3878,1.52666c-3.37785,0 -7.03408,-6.82012 -7.03408,-6.82012c0,0 -9.27918,5.80446 -14.23348,3.40515c-1.85279,-0.89729 1.05445,-3.69416 2.6697,-4.97045c1.36434,-1.07803 4.18869,-1.43148 4.18869,-1.43148c0,0 -4.97845,1.0473 -7.10801,0.24077c-1.79846,-0.68114 -3.59951,-2.29397 -3.59951,-4.2171c0,-1.27932 7.86551,-0.1749 7.86551,-0.1749c0,0 -3.96234,-1.47362 -2.2704,-1.93843c6.91241,-1.899 31.59011,2.37702 33.85978,2.86475c0.75656,0.16258 7.08018,-1.36996 7.557,-0.76049c0.73094,0.93429 -2.67507,3.70814 -2.67507,3.70814c0,0 6.28359,-4.13562 6.28359,-0.51203z" data-paper-data="{&quot;origPos&quot;:null}" fill="url(#color-1)" stroke="#0f2c13" stroke-width="1" stroke-linecap="butt"/><path d="M225.32958,167.80412l0.92852,-2.60579l2.34521,0.83567l-0.92852,2.60579z" data-paper-data="{&quot;origPos&quot;:null,&quot;origRot&quot;:0}" fill="#1c5324" stroke="none" stroke-width="0" stroke-linecap="butt"/><path d="M262.96704,186.75304c-3.6703,10.30016 -15.11842,15.63098 -26.84709,11.45168c-11.72867,-4.17931 -15.67329,-14.99505 -12.00302,-25.29523c2.56506,-7.19848 5.30727,-8.90595 9.12214,-8.99481c2.76217,-0.06434 2.6162,-3.63468 4.19539,-5.90182c0.8942,-1.28376 2.73028,-2.42272 3.72165,-1.2124c1.52694,1.8642 3.15497,5.23673 3.15497,5.23673c0,0 2.0575,-4.06199 3.59583,-1.86615c1.72756,2.46598 3.28133,3.78086 4.43109,6.06497c0,0 14.29939,10.21689 10.62911,20.51705z" data-paper-data="{&quot;origPos&quot;:null,&quot;origRot&quot;:0}" fill="url(#color-2)" stroke="#000000" stroke-width="1.5" stroke-linecap="butt"/><path d="M251.18925,189.05897c-0.49729,2.21882 -1.97385,3.83922 -3.29792,3.6192c-1.32408,-0.21996 -1.99431,-2.19706 -1.497,-4.41587c0.49729,-2.21882 1.97385,-3.83922 3.29792,-3.6192c1.32408,0.21996 1.9943,2.19705 1.49698,4.41587z" data-paper-data="{&quot;origPos&quot;:null,&quot;origRot&quot;:0}" fill="#000000" stroke="none" stroke-width="0" stroke-linecap="butt"/><path d="M257.30458,189.21328c-0.39509,1.66674 -1.52222,2.87367 -2.51754,2.69573c-0.99534,-0.17794 -1.48193,-1.67332 -1.08686,-3.3401c0.39509,-1.66674 1.52221,-2.87368 2.51754,-2.69573c0.99534,0.17794 1.48197,1.67335 1.08689,3.34008z" data-paper-data="{&quot;origPos&quot;:null,&quot;origRot&quot;:0}" fill="#000000" stroke="none" stroke-width="0" stroke-linecap="butt"/><path d="M244.45755,162.97194c0.62601,-0.98891 2.52417,-0.86158 2.52829,-0.83903c0.94926,0.13323 1.00053,0.59792 1.02315,1.07956c0.06788,1.44489 3.0246,5.83256 3.0246,5.83256c0,0 -7.81932,-4.10906 -6.57604,-6.07309z" data-paper-data="{&quot;origPos&quot;:null,&quot;index&quot;:null,&quot;origRot&quot;:0}" fill="#287732" stroke="none" stroke-width="0" stroke-linecap="butt"/><path d="M239.1659,168.79562l4.81044,-13.16115c0,0 -1.38796,-2.48109 -3.54109,-3.43802c-5.32709,-2.36759 -15.10712,-4.65267 -15.10712,-4.65267l3.20941,-1.47065c0,0 6.94916,1.56725 11.05104,3.21524c3.94562,1.58519 8.02171,5.53646 8.02171,5.53646l-5.08769,19.01647z" data-paper-data="{&quot;origPos&quot;:null,&quot;origRot&quot;:0}" fill="url(#color-3)" stroke="#0f2c13" stroke-width="0.5" stroke-linecap="butt"/><path d="M240.60121,174.08321c0,0 0.02759,-7.9262 4.46302,-9.65566c1.29851,0.63072 1.20737,1.3788 2.64372,1.70966c0.79522,0.18317 -0.27231,-3.60013 0.53333,-3.47035c1.28311,0.20672 2.87474,1.67784 3.67699,2.70036c1.42634,1.81792 3.40329,4.07859 3.40329,4.07859c0,0 -2.2013,2.95991 -6.45676,4.6192c-2.51694,0.98139 -8.26359,0.01823 -8.26359,0.01823z" data-paper-data="{&quot;origPos&quot;:null,&quot;origRot&quot;:0}" fill="url(#color-4)" stroke="#256d2f" stroke-width="0.5" stroke-linecap="butt"/><path d="M249.67597,187.9419c-0.22561,1.00654 -0.89542,1.74161 -1.49608,1.64183c-0.60066,-0.09979 -0.90469,-0.99668 -0.67908,-2.00321c0.22561,-1.00654 0.89542,-1.74161 1.49608,-1.64183c0.60066,0.09979 0.90469,0.99668 0.67908,2.0032z" data-paper-data="{&quot;origPos&quot;:null,&quot;origRot&quot;:0}" fill="#ffffff" stroke="none" stroke-width="0" stroke-linecap="butt"/><path d="M256.07247,187.99313c-0.13472,0.56841 -0.51911,0.98 -0.85855,0.91933c-0.33941,-0.06067 -0.50537,-0.57064 -0.37065,-1.13905c0.13472,-0.56841 0.51911,-0.98 0.85855,-0.91933c0.33941,0.06067 0.50537,0.57065 0.37064,1.13905z" data-paper-data="{&quot;origPos&quot;:null,&quot;origRot&quot;:0}" fill="#ffffff" stroke="none" stroke-width="0" stroke-linecap="butt"/><path d="M236.71537,165.2807c0,0 1.36412,-5.48925 2.3304,-6.56561c0.32209,-0.35879 0.79034,-1.06436 1.61,-0.56729c0.01744,-0.01487 1.51454,1.23805 1.37412,2.40002c-0.27885,2.30767 -0.35705,0.70575 -0.35705,0.70575z" data-paper-data="{&quot;origPos&quot;:null,&quot;origRot&quot;:0}" fill="#287732" stroke="none" stroke-width="0" stroke-linecap="butt"/><path d="M243.23468,181.34377c0,0 2.75577,-4.9505 4.28074,-4.24118c3.14747,1.46404 3.629,5.73143 3.629,5.73143c0,0 -2.28605,-2.20362 -3.66164,-2.4628c-1.71128,-0.32241 -4.2481,0.97253 -4.2481,0.97253z" data-paper-data="{&quot;origPos&quot;:null,&quot;origRot&quot;:0}" fill="#05ac26" stroke="#000000" stroke-width="0.5" stroke-linecap="butt"/><path d="M255.36613,183.28675c0,0 1.57531,-3.1983 3.48426,-3.50946c1.80089,-0.29353 3.11058,4.7944 3.11058,4.7944c0,0 -1.60493,-1.96555 -3.0275,-2.28862z" data-paper-data="{&quot;origPos&quot;:null,&quot;index&quot;:null,&quot;origRot&quot;:0}" fill="#05ac26" stroke="#000000" stroke-width="0.5" stroke-linecap="butt"/><path d="M227.41095,191.03399c-6.91265,-8.33733 -2.6066,-16.86219 -2.6066,-16.86219c0,0 0.93679,2.79261 2.10502,4.48808c2.02849,2.94401 3.99974,4.50245 6.29005,7.24771c0.79791,0.95638 2.79026,2.00924 3.44278,3.07013c0.7036,1.14397 0.45488,2.28809 0.81571,3.58173c0.26137,0.93711 0.89989,1.06209 1.57074,1.76672c2.24739,2.3606 6.74291,4.45457 6.74291,4.45457c0,0 -11.44791,0.59062 -18.36057,-7.74673z" data-paper-data="{&quot;origPos&quot;:null,&quot;origRot&quot;:0}" fill="url(#color-5)" stroke="#287732" stroke-width="0" stroke-linecap="butt"/><path d="M223.66389,177.20078c0,0 -0.6596,-7.09346 1.94815,-10.19125c2.60776,-3.09779 5.21974,-0.12336 7.25077,-0.87153c2.13354,-0.78591 2.42995,-0.68977 4.43551,-1.76093c1.53101,-0.81767 2.19838,-3.59944 3.86961,-4.06808c1.15965,-0.32518 1.65721,0.8082 2.68911,1.42923c1.12704,0.6783 -0.2123,4.73922 -0.2123,4.73922c0,0 2.90159,0.44283 1.77382,2.34276c-0.97143,1.63654 -1.85057,0.54155 -2.39293,2.36577c-0.65293,2.19606 2.58489,0.57492 1.6095,2.64801c-1.51407,3.218 -2.361,4.69751 -5.38913,6.56257c0,0 -5.95795,0.09372 -8.8704,-0.57943c-3.51662,-0.81277 -6.71177,-2.61635 -6.71177,-2.61635z" data-paper-data="{&quot;origPos&quot;:null,&quot;origRot&quot;:0}" fill="url(#color-6)" stroke="#256d2f" stroke-width="0.5" stroke-linecap="butt"/><path d="M222.1111,180.92321c-0.12994,-2.1721 1.02199,-2.41032 0.627,-4.47783c-0.17234,-0.9021 -0.79241,-0.59244 -1.62885,-0.97172c-1.1382,-0.51612 -2.63012,-1.04724 -2.48775,-2.28884c0.15953,-1.39101 2.94999,-2.39339 2.94999,-2.39339c0,0 -3.92252,-1.96195 -2.81833,-4.63585c1.14508,-2.77287 5.10902,-1.24659 5.72079,-1.75713c1.02962,-0.85927 0.68839,-2.26782 2.01862,-2.09786c0.85513,0.10926 1.53023,3.35647 1.74301,2.52103c0.27558,-1.08213 3.14732,1.23736 3.14732,1.23736l-2.88636,0.62732c0,0 -2.36721,-0.2092 -2.85932,1.70145c-0.93634,3.63548 -1.49582,3.20907 -0.0465,6.67215c0.71587,1.71053 1.72314,5.89 3.60112,6.06879c0.20494,1.80355 2.50735,2.58934 3.71415,3.94522c1.56751,1.7611 3.88199,4.55208 3.88199,4.55208c0,0 -2.265,-1.88311 -3.24523,-2.16216c-2.77069,-0.78871 -2.57098,0.08615 -4.7865,-1.7551c-0.95384,-0.7927 -0.82025,-1.97023 -1.83203,-2.6875c-2.30733,-1.63575 -4.68316,0.07408 -4.81312,-2.09803z" data-paper-data="{&quot;origPos&quot;:null,&quot;origRot&quot;:0}" fill="#98ff7e" stroke="#256d2f" stroke-width="1" stroke-linecap="butt"/><path d="M241.09411,178.81111c0,0 1.07064,-0.92279 1.5074,-1.59148c0.67212,-1.02911 1.48936,-2.63398 1.48936,-2.63398c0.95076,-0.91202 1.68345,-0.96326 2.81121,-1.64431c1.03254,-0.62356 2.62999,-1.81159 2.62999,-1.81159c1.24031,-0.71796 6.10594,-2.09192 6.10594,-2.09192l-2.98397,-3.06315c0,0 1.43223,-0.13285 2.19316,-0.12554c4.35905,0.04193 9.39664,2.30766 8.71833,5.04426c-0.41353,1.6683 -3.49136,-1.2339 -5.93143,0.17855c-1.02841,0.59531 -0.22005,3.21291 -1.53697,3.99414c-1.07585,0.63822 -2.93344,-2.92463 -4.01747,-2.3004c-0.7634,0.4396 -1.2755,2.77269 -2.064,3.01834c-1.24805,0.38882 -0.97252,-0.24278 -2.07069,-0.95191c-0.46763,-0.30198 -0.91722,-0.11573 -1.41826,0.12684c-2.06854,1.00147 -0.99186,2.34412 -3.10258,3.25332c-1.47803,0.63667 -2.32998,0.59882 -2.32998,0.59882z" data-paper-data="{&quot;origPos&quot;:null,&quot;origRot&quot;:0}" fill="url(#color-7)" stroke="#256d2f" stroke-width="1" stroke-linecap="butt"/><path d="M256.36481,167.37516c0,0 3.18938,1.2958 2.19616,1.49977c-3.29576,0.67682 -4.72544,0.1555 -7.80328,1.51463c-1.57476,0.6954 -3.20278,2.20041 -4.72772,2.99917c-4.17939,2.18919 -2.61937,5.34634 -7.11129,6.78951c-3.36321,1.08053 -10.63998,-0.71251 -10.63998,-0.71251" data-paper-data="{&quot;origPos&quot;:null,&quot;origRot&quot;:0}" fill="none" stroke="#287732" stroke-width="0.5" stroke-linecap="round"/><path d="M245.87561,198.77276c0,0 -2.27731,-1.18452 -3.737,-2.20771c-1.56843,-1.09942 -2.56392,-1.9984 -3.90884,-3.36217c-2.33402,-2.36672 0.02141,-2.2993 -2.16625,-4.80194c-3.0998,-3.54611 -7.24848,-6.96467 -9.5879,-11.05254c-1.72614,-3.01628 -2.45067,-7.67679 0.0965,-9.9765c1.06229,-0.95911 1.94947,-0.80478 1.94947,-0.80478" data-paper-data="{&quot;origPos&quot;:null,&quot;origRot&quot;:0}" fill="none" stroke="#287732" stroke-width="0.5" stroke-linecap="round"/><path d="M227.97292,146.40529c-4.43992,4.08269 -11.67574,3.43759 -16.16166,-1.44083c-4.48591,-4.87844 -4.52322,-12.14286 -0.08332,-16.22555c4.43992,-4.08269 20.6849,13.58368 16.24497,17.66637z" data-paper-data="{&quot;origPos&quot;:null,&quot;origRot&quot;:0}" fill="#2e8149" stroke="#0f2c13" stroke-width="0.5" stroke-linecap="butt"/><path d="M210.46764,129.45711c0.42524,-0.48312 1.51191,-1.27847 1.51191,-1.27847c0,0 0.30219,1.75627 0.16928,2.18973c-0.3987,1.30031 -1.44736,2.52665 -1.44736,2.52665c0,0 1.2874,-1.05369 2.45967,0.66759c0.37314,0.54788 -0.64519,2.25606 -0.64519,2.25606c0,0 3.00114,-0.30198 3.16753,1.24848c0.20181,1.88057 -0.69245,3.39623 -0.69245,3.39623c0,0 2.98511,-0.79514 3.57693,-0.06368c1.33815,1.6539 1.70619,3.25999 1.70619,3.25999c0,0 -0.80046,-1.9102 1.11634,-2.45651c1.41279,-0.40268 3.25783,2.42395 3.25783,2.42395c0,0 0.5476,-1.62504 1.41776,-1.98758c1.15076,-0.47941 1.36259,1.13509 1.36259,1.13509l1.59502,-1.31376c0,0 0.07127,3.31386 -0.79769,4.4519c-1.16096,1.52046 -2.74426,2.1011 -4.57641,2.65144c-4.03101,1.21087 -8.92732,-0.18773 -11.81848,-3.24655c-1.54036,-1.6297 -2.05518,-3.00946 -3.02492,-5.03137c0,0 -1.08005,-3.3459 -0.56831,-5.8102c0.38039,-1.83163 0.95412,-3.56965 2.22977,-5.01902z" data-paper-data="{&quot;origPos&quot;:null,&quot;origRot&quot;:0}" fill="url(#color-8)" stroke="#0f2c13" stroke-width="0.5" stroke-linecap="butt"/></g></g></svg>