<svg version="1.1" xmlns="http://www.w3.org/2000/svg" xmlns:xlink="http://www.w3.org/1999/xlink" width="63.75047" height="59.93594"><defs><linearGradient x1="247.73895" y1="183.86903" x2="280.46756" y2="183.86903" gradientUnits="userSpaceOnUse" id="color-1"><stop offset="0" stop-color="#f39a00"/><stop offset="1" stop-color="#fdd289"/></linearGradient></defs><g transform="translate(-217.4,-159.22656)"><g data-paper-data="{&quot;isPaintingLayer&quot;:true}" fill="none" fill-rule="nonzero" stroke="none" stroke-width="none" stroke-linecap="butt" stroke-linejoin="miter" stroke-miterlimit="10" stroke-dasharray="" stroke-dashoffset="0" font-family="none" font-weight="none" font-size="none" text-anchor="none" style="mix-blend-mode: normal"><path d="M218.4,190.3625v-8.4h19.4v8.4z" data-paper-data="{&quot;origPos&quot;:null}" fill="#c07a00" stroke="#000000" stroke-width="2"/><path d="M230.4,199.9625v-20h19.4v20z" data-paper-data="{&quot;origPos&quot;:null}" fill="#c07a00" stroke="#000000" stroke-width="2"/><path d="M253.025,172.02291c0,6.51494 -5.84828,11.79635 -13.0625,11.79635c-7.21422,0 -13.0625,-5.28141 -13.0625,-11.79635c0,-6.51494 5.84828,-11.79635 13.0625,-11.79635c7.21422,0 13.0625,5.28141 13.0625,11.79635z" data-paper-data="{&quot;origPos&quot;:null}" fill="#b2b2b2" stroke="#000000" stroke-width="2"/><path d="M239.4,168.32656c0,1.65685 -1.09131,3 -2.4375,3c-1.34619,0 -2.4375,-1.34315 -2.4375,-3c0,-1.65685 1.09131,-3 2.4375,-3c1.34619,0 2.4375,1.34315 2.4375,3z" data-paper-data="{&quot;origPos&quot;:null}" fill="#ff0000" stroke="none" stroke-width="0"/><path d="M233.3,168.46406c0,1.48427 -0.95139,2.6875 -2.125,2.6875c-1.17361,0 -2.125,-1.20323 -2.125,-2.6875c0,-1.48427 0.95139,-2.6875 2.125,-2.6875c1.17361,0 2.125,1.20323 2.125,2.6875z" data-paper-data="{&quot;origPos&quot;:null}" fill="#ff0000" stroke="none" stroke-width="0"/><path d="M231,218.1625v-17.4h8v17.4z" data-paper-data="{&quot;origPos&quot;:null}" fill="#4c517f" stroke="#000000" stroke-width="2"/><path d="M241,218.1625v-17.6h8v17.6z" data-paper-data="{&quot;origPos&quot;:null}" fill="#4c517f" stroke="#000000" stroke-width="2"/><path d="M223.2,190.7625v-8.4h19.4v8.4z" data-paper-data="{&quot;origPos&quot;:null}" fill="#c07a00" stroke="#000000" stroke-width="2"/><path d="M247.73895,178.41372l2.28659,-0.99083c0,0 1.71025,1.77105 2.59571,1.46153c2.56087,-0.89511 16.60943,-5.76871 27.22006,-9.51858c0.41598,-0.147 0.83953,0.11101 0.50623,0.55997c-6.61354,8.90817 -14.90146,20.07166 -16.94635,22.82605c-0.645,0.8688 0.53495,3.23928 0.53495,3.23928l-1.45256,2.42248z" data-paper-data="{&quot;origPos&quot;:null,&quot;origRot&quot;:0}" fill="url(#color-1)" stroke="#000000" stroke-width="2"/></g></g></svg>