<svg version="1.1" xmlns="http://www.w3.org/2000/svg" xmlns:xlink="http://www.w3.org/1999/xlink" width="56.15873" height="65.73638" viewBox="0,0,56.15873,65.73638"><g transform="translate(-220.45018,-141.06538)"><g data-paper-data="{&quot;isPaintingLayer&quot;:true}" fill="none" fill-rule="nonzero" stroke="none" stroke-width="none" stroke-linecap="butt" stroke-linejoin="miter" stroke-miterlimit="10" stroke-dasharray="" stroke-dashoffset="0" font-family="none" font-weight="none" font-size="none" text-anchor="none" style="mix-blend-mode: normal"><path d="M239.85809,164.39372c-2.19732,0.72984 -6.60573,-1.40099 -8.67541,-5.86893c-2.06968,-4.46792 1.30158,-12.91253 1.30158,-12.91253c0,0 2.2848,4.21383 3.10276,4.70525c0,0 4.84859,2.23513 5.8847,4.62093c1.3642,3.14127 0.58367,8.72543 -1.61365,9.45527z" data-paper-data="{&quot;origRot&quot;:0,&quot;origPos&quot;:null}" fill="#26bd00" stroke="#000000" stroke-width="1"/><path d="M238.88538,163.05509c-0.15335,2.31497 -3.22429,5.30326 -7.33127,5.10884c-4.10698,-0.19442 -9.50171,-7.1205 -9.50171,-7.1205c0,0 3.98161,-0.11634 4.62523,-0.62658c0,0 3.29418,-3.33666 5.4648,-3.17064c2.85793,0.21858 6.8963,3.49391 6.74294,5.80888z" data-paper-data="{&quot;origRot&quot;:0,&quot;origPos&quot;:null}" fill="#26bd00" stroke="#000000" stroke-width="1"/><path d="M242.5858,158.77603c-2.26745,-0.61403 -4.89825,-4.34511 -4.28313,-8.50732c0.6151,-4.1622 8.00241,-8.31208 8.00241,-8.31208c0,0 -0.29568,4.09535 0.14121,4.8544c0,0 2.95137,4.02823 2.56388,6.21554c-0.51017,2.87991 -4.15691,6.3635 -6.42436,5.74947z" data-paper-data="{&quot;origRot&quot;:0,&quot;origPos&quot;:null}" fill="#26bd00" stroke="#000000" stroke-width="1"/><path d="M230.61393,191.3634c4.70628,0.72373 8.2405,3.1374 7.89393,5.39112c-0.34658,2.25371 -4.44273,3.49399 -9.14898,2.77027c-4.70628,-0.72373 -7.8939,-5.39113 -7.8939,-5.39113c0,0 4.44271,-3.49401 9.14896,-2.77028z" data-paper-data="{&quot;origRot&quot;:0,&quot;origPos&quot;:null,&quot;index&quot;:null}" fill="#2bd900" stroke="#000000" stroke-width="1.5"/><path d="M255.90996,195.1778c0,0 -3.48248,4.45173 -8.22567,4.86994c-4.7432,0.41821 -8.75067,-1.08407 -8.95094,-3.35547c-0.20028,-2.2714 3.48251,-4.45175 8.22568,-4.86996c4.7432,-0.41821 8.95093,3.35548 8.95093,3.35548z" data-paper-data="{&quot;origRot&quot;:0,&quot;origPos&quot;:null,&quot;index&quot;:null}" fill="#2bd900" stroke="#000000" stroke-width="1.5"/><path d="M236.50078,196.61839c0,0 2.997,-6.45684 5.41053,-10.17697c1.90543,-2.93695 5.65618,-6.88097 5.65618,-6.88097l3.77511,2.44919c0,0 -3.74322,2.70749 -5.36919,5.21367c-2.69297,4.15086 -5.69753,11.84424 -5.69753,11.84424z" data-paper-data="{&quot;origPos&quot;:null,&quot;origRot&quot;:0}" fill="#a9ff59" stroke="#000000" stroke-width="2"/><path d="M269.63067,178.0436c-2.44205,8.4355 -12.31634,12.98836 -22.05484,10.16907c-9.7385,-2.81926 -15.65344,-11.94306 -13.21139,-20.37856c2.44205,-8.4355 12.31633,-12.98835 22.05484,-10.16906c9.7385,2.81926 15.65344,11.94306 13.21139,20.37855z" data-paper-data="{&quot;origPos&quot;:null,&quot;origRot&quot;:0}" fill="#a9ff59" stroke="#000000" stroke-width="3"/><path d="M275.60891,185.12756c-1.88187,4.70458 -6.00752,7.49058 -9.2149,6.22272c-3.20737,-1.2679 -4.28188,-6.10951 -2.40002,-10.81409c1.88187,-4.70458 6.00754,-7.49059 9.2149,-6.22272c3.20736,1.26789 4.28186,6.1095 2.40002,10.81409z" data-paper-data="{&quot;origPos&quot;:null,&quot;origRot&quot;:0}" fill="#a9ff59" stroke="#000000" stroke-width="2"/><path d="M268.99418,182.39036c-0.88865,2.33312 -2.54474,3.87173 -3.69899,3.43656c-1.15423,-0.43516 -1.36953,-2.67929 -0.48087,-5.01242c0.88865,-2.33312 2.54474,-3.87173 3.69898,-3.43654c1.15423,0.43516 1.36954,2.6793 0.48088,5.01242z" data-paper-data="{&quot;origRot&quot;:0,&quot;origPos&quot;:null}" fill="#84c746" stroke="none" stroke-width="0"/><path d="M230.37732,195.47394c5.11563,-1.00495 9.65279,0.16627 10.13405,2.61602c0.48124,2.44973 -3.27567,5.25031 -8.3913,6.25527c-5.11563,1.00495 -10.13404,-2.61602 -10.13404,-2.61602c0,0 3.27566,-5.25032 8.39129,-6.25527z" data-paper-data="{&quot;origRot&quot;:0,&quot;origPos&quot;:null}" fill="#2fe500" stroke="#000000" stroke-width="2"/><path d="M256.09603,204.67454c0,0 -5.71375,2.37668 -10.46376,0.22793c-4.74999,-2.14876 -7.76648,-5.73462 -6.73749,-8.00927c1.02898,-2.27464 5.71377,-2.3767 10.46377,-0.22794c4.74999,2.14876 6.73748,8.00928 6.73748,8.00928z" data-paper-data="{&quot;origRot&quot;:0,&quot;origPos&quot;:null,&quot;index&quot;:null}" fill="#2fe500" stroke="#000000" stroke-width="2"/><path d="M258.99301,168.26478c-0.2528,2.25977 -1.54416,4.03126 -2.88432,3.95672c-1.34015,-0.07454 -2.22164,-1.96689 -1.96883,-4.22666c0.2528,-2.25977 1.54416,-4.03126 2.88432,-3.95672c1.34015,0.07454 2.22163,1.96689 1.96881,4.22664z" data-paper-data="{&quot;origPos&quot;:null,&quot;origRot&quot;:0}" fill="#000000" stroke="none" stroke-width="0"/><path d="M264.87128,169.85108c-0.19045,1.70231 -1.16322,3.03677 -2.17277,2.98062c-1.00956,-0.05616 -1.67356,-1.48166 -1.48311,-3.18398c0.19045,-1.70231 1.16321,-3.03677 2.17277,-2.98062c1.00956,0.05616 1.67357,1.48167 1.48313,3.18398z" data-paper-data="{&quot;origPos&quot;:null,&quot;origRot&quot;:0}" fill="#000000" stroke="none" stroke-width="0"/><path d="M252.08346,163.64083l0.9997,-4.46405c0,0 4.40259,1.83288 6.06391,3.45866c1.761,1.72333 0.83608,4.73334 0.83608,4.73334c0,0 -0.44524,-1.82855 -2.94282,-2.92109c-1.73939,-0.76088 -4.95687,-0.80684 -4.95687,-0.80684z" data-paper-data="{&quot;origPos&quot;:null,&quot;origRot&quot;:0}" fill="#26bd00" stroke="#000000" stroke-width="0.5"/><path d="M264.87052,166.70949c-2.04721,-0.44351 -3.20471,0.57957 -3.20471,0.57957c0,0 0.89827,-2.46769 2.80402,-2.79787c1.79787,-0.31148 5.36148,0.53303 5.36148,0.53303l-1.55819,3.48393c0,0 -1.97685,-1.48979 -3.40259,-1.79866z" data-paper-data="{&quot;origPos&quot;:null,&quot;index&quot;:null,&quot;origRot&quot;:0}" fill="#26bd00" stroke="#000000" stroke-width="0.5"/></g></g></svg>