<svg version="1.1" xmlns="http://www.w3.org/2000/svg" xmlns:xlink="http://www.w3.org/1999/xlink" width="632.25663" height="525.95903" viewBox="0,0,632.25663,525.95903"><defs><linearGradient x1="240" y1="-4.59375" x2="240" y2="364.59375" gradientUnits="userSpaceOnUse" id="color-1"><stop offset="0" stop-color="#ffed94"/><stop offset="1" stop-color="#ffe043"/></linearGradient><radialGradient cx="517.26744" cy="-45.60185" r="163.66073" gradientUnits="userSpaceOnUse" id="color-2"><stop offset="0" stop-color="#ffe900"/><stop offset="1" stop-color="#ffe900" stop-opacity="0"/></radialGradient></defs><g transform="translate(34.67295,161.36528)"><g data-paper-data="{&quot;isPaintingLayer&quot;:true}" fill="none" fill-rule="nonzero" stroke="none" stroke-width="none" stroke-linecap="none" stroke-linejoin="miter" stroke-miterlimit="10" stroke-dasharray="" stroke-dashoffset="0" font-family="none" font-weight="none" font-size="none" text-anchor="none" style="mix-blend-mode: normal"><path d="M-12,364.59375v-369.1875h504v369.1875z" data-paper-data="{&quot;origPos&quot;:null}" fill="url(#color-1)" stroke="none" stroke-width="0" stroke-linecap="butt"/><path d="M-1,31v-32h482v32z" data-paper-data="{&quot;origPos&quot;:null}" fill="#ffe24f" stroke="none" stroke-width="0" stroke-linecap="butt"/><path d="M479,34l-477,-2" data-paper-data="{&quot;origPos&quot;:null}" fill="none" stroke="#dfc43f" stroke-width="3" stroke-linecap="round"/><path d="M25.23116,234.31585l6.27148,-107.87434l66.26619,-2.75736l-3.04939,114.87434z" data-paper-data="{&quot;origRot&quot;:0,&quot;origPos&quot;:null}" fill="#fff9bd" stroke="#000000" stroke-width="4" stroke-linecap="butt"/><path d="M-5,233l3,-123l32,14l-5,114z" data-paper-data="{&quot;origPos&quot;:null}" fill="#295acc" stroke="#000000" stroke-width="4" stroke-linecap="butt"/><path d="M148.5,40.93936c0,0 3.1,5.96384 3.1,4.89031c0,-15.32729 -5.02805,-23.94697 -5.04671,-39.27426c-0.02069,-16.99805 4.94671,-43.5554 4.94671,-43.5554h26.5c0,0 6.70029,27.0245 6.82732,44.32155c0.10906,14.84935 -6.22732,23.20006 -6.22732,38.04964c0,1.13318 0.9,-4.8139 0.9,-4.8139c0,0 6.74061,6.19754 4.98066,8.05186c-3.26048,3.43532 -14.52699,5.09085 -20.08067,5.09085c0,0 -14.98874,-1.68841 -18.18016,-4.42884c-2.53492,-2.1767 2.28016,-8.33181 2.28016,-8.33181z" data-paper-data="{&quot;origPos&quot;:null}" fill="#d8d8d8" stroke="#000000" stroke-width="5" stroke-linecap="butt"/><path d="M30.50001,39.93935c0,0 3.1,5.96385 3.1,4.89031c0,-15.32729 -5.02806,-23.94697 -5.04671,-39.27425c-0.02069,-16.99806 4.94671,-43.5554 4.94671,-43.5554h26.5c0,0 6.70028,27.02449 6.82732,44.32155c0.10906,14.84935 -6.22732,23.20006 -6.22732,38.04964c0,1.13318 0.9,-4.8139 0.9,-4.8139c0,0 6.74062,6.19754 4.98067,8.05186c-3.26048,3.43532 -14.52699,5.09085 -20.08067,5.09085c0,0 -14.98874,-1.68841 -18.18015,-4.42884c-2.53492,-2.17671 2.28015,-8.33182 2.28015,-8.33182z" data-paper-data="{&quot;origPos&quot;:null}" fill="#d8d8d8" stroke="#000000" stroke-width="5" stroke-linecap="butt"/><path d="M506.74662,-140.91508c80.92379,42.88588 113.92122,139.17459 73.70182,215.06685c-40.2194,75.89226 -138.42536,102.64922 -219.34916,59.76334c-80.92379,-42.88588 -113.92122,-139.17459 -73.70182,-215.06685c40.2194,-75.89226 138.42536,-102.64922 219.34916,-59.76334z" data-paper-data="{&quot;origRot&quot;:0,&quot;origPos&quot;:null}" fill="url(#color-2)" stroke="none" stroke-width="0" stroke-linecap="butt"/><path d="M-31.98319,91.76896l17.6962,-34.75406l49.27021,28.21616l-3.6962,38.75406z" data-paper-data="{&quot;origPos&quot;:null,&quot;origRot&quot;:0}" fill="#e7e2ab" stroke="#000000" stroke-width="4" stroke-linecap="butt"/><path d="M32.63085,123.8881l4.40791,-39.0829l42.3304,0.30671c0,0 -5.873,10.3495 -11.55216,15.69361c-9.70027,9.12797 -2.85575,25.38929 -2.85575,25.38929z" data-paper-data="{&quot;origPos&quot;:null,&quot;origRot&quot;:0}" fill="#e7e2ab" stroke="#000000" stroke-width="4" stroke-linecap="butt"/><path d="M-19.98321,242.76896l17.6962,-34.75406l52.27021,28.21615l-6.6962,38.75405z" data-paper-data="{&quot;origPos&quot;:null,&quot;origRot&quot;:0}" fill="#e7e2ab" stroke="#000000" stroke-width="4" stroke-linecap="butt"/><path d="M45.63086,275.8881l4.40791,-39.0829l25.3304,-0.69329l-2.40791,40.08289z" data-paper-data="{&quot;origPos&quot;:null,&quot;origRot&quot;:0}" fill="#e7e2ab" stroke="#000000" stroke-width="4" stroke-linecap="butt"/><path d="M2,60l477,2" data-paper-data="{&quot;origPos&quot;:null}" fill="none" stroke="#c6ae37" stroke-width="4" stroke-linecap="round"/><path d="M367.6,22.17943v-9.24093h19.4v9.24093z" data-paper-data="{&quot;origPos&quot;:null}" fill="#8e7e2e" stroke="#000000" stroke-width="2" stroke-linecap="butt"/><path d="M379.6,32.74049v-22.00221h19.4v22.00221z" data-paper-data="{&quot;origPos&quot;:null}" fill="#b6a13a" stroke="#000000" stroke-width="2" stroke-linecap="butt"/><path d="M402.225,2.00385c0,7.16715 -5.84828,12.97729 -13.0625,12.97729c-7.21422,0 -13.0625,-5.81013 -13.0625,-12.97729c0,-7.16715 5.84828,-12.97729 13.0625,-12.97729c7.21422,0 13.0625,5.81013 13.0625,12.97729z" data-paper-data="{&quot;origPos&quot;:null}" fill="#b6a13a" stroke="#000000" stroke-width="2" stroke-linecap="butt"/><path d="M388.6,-2.06254c0,1.82272 -1.09131,3.30033 -2.4375,3.30033c-1.34619,0 -2.4375,-1.47761 -2.4375,-3.30033c0,-1.82272 1.09131,-3.30033 2.4375,-3.30033c1.34619,0 2.4375,1.47761 2.4375,3.30033z" data-paper-data="{&quot;origPos&quot;:null}" fill="#ff0000" stroke="none" stroke-width="0" stroke-linecap="butt"/><path d="M382.5,-1.91127c0,1.63286 -0.95139,2.95655 -2.125,2.95655c-1.17361,0 -2.125,-1.32368 -2.125,-2.95655c0,-1.63286 0.95139,-2.95655 2.125,-2.95655c1.17361,0 2.125,1.32369 2.125,2.95655z" data-paper-data="{&quot;origPos&quot;:null}" fill="#ff0000" stroke="none" stroke-width="0" stroke-linecap="butt"/><path d="M380.2,52.7625v-19.14192h8v19.14192z" data-paper-data="{&quot;origPos&quot;:null}" fill="#b6a13a" stroke="#000000" stroke-width="2" stroke-linecap="butt"/><path d="M390.2,52.76251v-19.36194h8v19.36194z" data-paper-data="{&quot;origPos&quot;:null}" fill="#b6a13a" stroke="#000000" stroke-width="2" stroke-linecap="butt"/><path d="M393.57241,15.37184l8.46269,-3.71185l7.79249,17.76618l-8.46269,3.71185z" data-paper-data="{&quot;origPos&quot;:null,&quot;origRot&quot;:0}" fill="#ccb541" stroke="#000000" stroke-width="2" stroke-linecap="butt"/><path d="M375.93836,26.2c0,0 -0.18806,-5.76794 -1.26572,-7.10799c-0.71865,-0.89362 -3.36898,0.5743 -3.39612,1.72072c-0.0724,3.05896 -0.73816,31.18726 -0.73816,31.18726" data-paper-data="{&quot;origPos&quot;:null}" fill="none" stroke="#c9b240" stroke-width="2.5" stroke-linecap="round"/></g></g></svg>