<svg version="1.1" xmlns="http://www.w3.org/2000/svg" xmlns:xlink="http://www.w3.org/1999/xlink" width="59.21727" height="71.86649" viewBox="0,0,59.21727,71.86649"><g transform="translate(-212.49247,-134.93527)"><g data-paper-data="{&quot;isPaintingLayer&quot;:true}" fill="none" fill-rule="nonzero" stroke="none" stroke-width="none" stroke-linecap="butt" stroke-linejoin="miter" stroke-miterlimit="10" stroke-dasharray="" stroke-dashoffset="0" font-family="none" font-weight="none" font-size="none" text-anchor="none" style="mix-blend-mode: normal"><path d="M231.65171,159.02596c-2.07058,1.03614 -6.7381,-0.44331 -9.4246,-4.56991c-2.68649,-4.12657 -0.5557,-12.96606 -0.5557,-12.96606c0,0 2.86312,3.84437 3.74289,4.21394c0,0 5.11808,1.51983 6.48427,3.73323c1.7988,2.91426 1.8237,8.55266 -0.24687,9.5888z" data-paper-data="{&quot;origRot&quot;:0,&quot;origPos&quot;:null}" fill="#26bd00" stroke="#000000" stroke-width="1"/><path d="M230.49782,157.83995c0.1788,2.31314 -2.43392,5.70935 -6.52657,6.1034c-4.09265,0.39406 -10.42115,-5.69065 -10.42115,-5.69065c0,0 3.92419,-0.68373 4.48835,-1.28065c0,0 2.78394,-3.77288 4.95602,-3.91854c2.85985,-0.19178 7.32456,2.47329 7.50336,4.78644z" data-paper-data="{&quot;origRot&quot;:0,&quot;origPos&quot;:null}" fill="#26bd00" stroke="#000000" stroke-width="1"/><path d="M233.54925,153.07632c-2.33189,-0.28394 -5.46854,-3.6011 -5.4541,-7.80849c0.01443,-4.20738 6.73341,-9.36966 6.73341,-9.36966c0,0 0.29218,4.0956 0.83298,4.78448c0,0 3.49636,3.56549 3.4252,5.78571c-0.09369,2.92325 -3.20558,6.8919 -5.53748,6.60796z" data-paper-data="{&quot;origRot&quot;:0,&quot;origPos&quot;:null}" fill="#26bd00" stroke="#000000" stroke-width="1"/><path d="M231.27052,191.15243c4.70339,0.74227 8.22807,3.16986 7.87262,5.42219c-0.35546,2.25233 -4.45647,3.47645 -9.15983,2.73419c-4.70339,-0.74227 -7.87259,-5.4222 -7.87259,-5.4222c0,0 4.45645,-3.47647 9.15981,-2.7342z" data-paper-data="{&quot;origRot&quot;:0,&quot;origPos&quot;:null,&quot;index&quot;:null}" fill="#2bd900" stroke="#000000" stroke-width="1.5"/><path d="M255.90996,195.17781c0,0 -3.48248,4.45173 -8.22567,4.86994c-4.7432,0.41821 -8.75067,-1.08407 -8.95094,-3.35547c-0.20028,-2.2714 3.48251,-4.45175 8.22568,-4.86996c4.7432,-0.41821 8.95093,3.35548 8.95093,3.35548z" data-paper-data="{&quot;origRot&quot;:0,&quot;origPos&quot;:null,&quot;index&quot;:null}" fill="#2bd900" stroke="#000000" stroke-width="1.5"/><path d="M237.5952,197.89505c0,0 0.5555,-7.09678 1.51918,-11.42527c0.76081,-3.41724 2.89953,-8.42216 2.89953,-8.42216l4.39245,0.97792c0,0 -2.56315,3.84349 -3.21238,6.75952c-1.07526,4.82966 -1.20635,13.08788 -1.20635,13.08788z" data-paper-data="{&quot;origPos&quot;:null,&quot;origRot&quot;:0}" fill="#a9ff59" stroke="#000000" stroke-width="2"/><path d="M263.01951,164.68142c-0.03766,8.78179 -8.28689,15.8656 -18.42518,15.8221c-10.13828,-0.04347 -18.32646,-7.19778 -18.28879,-15.97957c0.03766,-8.78179 8.28689,-15.86559 18.42518,-15.82209c10.13828,0.04347 18.32646,7.19778 18.28879,15.97956z" data-paper-data="{&quot;origPos&quot;:null,&quot;origRot&quot;:0}" fill="#a9ff59" stroke="#000000" stroke-width="3"/><path d="M270.70974,169.85659c-0.52102,5.04015 -3.72559,8.84981 -7.1576,8.50913c-3.43201,-0.34072 -5.7918,-4.70273 -5.2708,-9.74286c0.52102,-5.04015 3.7256,-8.84983 7.1576,-8.50913c3.432,0.34071 5.79178,4.70272 5.2708,9.74286z" data-paper-data="{&quot;origPos&quot;:null,&quot;origRot&quot;:0}" fill="#a9ff59" stroke="#000000" stroke-width="2"/><path d="M263.5982,169.03627c-0.21548,2.48731 -1.38671,4.42075 -2.616,4.31844c-1.22928,-0.1023 -2.05114,-2.2016 -1.83566,-4.68892c0.21548,-2.48731 1.38671,-4.42075 2.61599,-4.31842c1.22928,0.1023 2.05117,2.2016 1.83567,4.68892z" data-paper-data="{&quot;origRot&quot;:0,&quot;origPos&quot;:null}" fill="#84c746" stroke="none" stroke-width="0"/><path d="M229.73702,195.47395c5.11563,-1.00495 9.65279,0.16627 10.13405,2.61602c0.48124,2.44973 -3.27567,5.25031 -8.3913,6.25527c-5.11563,1.00495 -10.13404,-2.61602 -10.13404,-2.61602c0,0 3.27566,-5.25032 8.39129,-6.25527z" data-paper-data="{&quot;origRot&quot;:0,&quot;origPos&quot;:null}" fill="#2fe500" stroke="#000000" stroke-width="2"/><path d="M256.09603,204.67455c0,0 -5.71375,2.37668 -10.46376,0.22793c-4.74999,-2.14876 -7.76648,-5.73462 -6.73749,-8.00927c1.02898,-2.27464 5.71377,-2.3767 10.46377,-0.22794c4.74999,2.14876 6.73748,8.00928 6.73748,8.00928z" data-paper-data="{&quot;origRot&quot;:0,&quot;origPos&quot;:null,&quot;index&quot;:null}" fill="#2fe500" stroke="#000000" stroke-width="2"/><path d="M250.10986,158.19099c0.37594,2.24257 -0.38069,4.30007 -1.69,4.59552c-1.3093,0.29546 -2.67549,-1.28301 -3.05143,-3.52558c-0.37594,-2.24257 0.38069,-4.30007 1.69,-4.59552c1.3093,-0.29546 2.67548,1.28301 3.05141,3.52557z" data-paper-data="{&quot;origPos&quot;:null,&quot;origRot&quot;:0}" fill="#000000" stroke="none" stroke-width="0"/><path d="M256.19781,158.1062c0.2832,1.68936 -0.28677,3.23926 -1.27308,3.46183c-0.98632,0.22256 -2.01544,-0.96649 -2.29865,-2.65586c-0.2832,-1.68936 0.28676,-3.23926 1.27308,-3.46183c0.98632,-0.22256 2.01546,0.9665 2.29867,2.65586z" data-paper-data="{&quot;origPos&quot;:null,&quot;origRot&quot;:0}" fill="#000000" stroke="none" stroke-width="0"/><path d="M242.14427,154.78497l0.35198,-4.56106c0,0 4.61921,1.18539 6.49566,2.55727c1.98905,1.4542 1.50344,4.56543 1.50344,4.56543c0,0 -0.7018,-1.74623 -3.3298,-2.47091c-1.83022,-0.50469 -5.02128,-0.09071 -5.02128,-0.09071z" data-paper-data="{&quot;origPos&quot;:null,&quot;origRot&quot;:0}" fill="#26bd00" stroke="#000000" stroke-width="0.5"/><path d="M255.2385,155.99616c-2.08957,-0.14662 -3.0891,1.03127 -3.0891,1.03127c0,0 0.53667,-2.57068 2.37574,-3.16961c1.73496,-0.56503 5.38265,-0.23807 5.38265,-0.23807l-1.04471,3.67074c0,0 -2.16933,-1.19223 -3.62457,-1.29433z" data-paper-data="{&quot;origPos&quot;:null,&quot;index&quot;:null,&quot;origRot&quot;:0}" fill="#26bd00" stroke="#000000" stroke-width="0.5"/></g></g></svg>