<svg version="1.1" xmlns="http://www.w3.org/2000/svg" xmlns:xlink="http://www.w3.org/1999/xlink" width="56.92731" height="63.15698" viewBox="0,0,56.92731,63.15698"><g transform="translate(-220.45018,-143.64478)"><g data-paper-data="{&quot;isPaintingLayer&quot;:true}" fill="none" fill-rule="nonzero" stroke="none" stroke-width="none" stroke-linecap="butt" stroke-linejoin="miter" stroke-miterlimit="10" stroke-dasharray="" stroke-dashoffset="0" font-family="none" font-weight="none" font-size="none" text-anchor="none" style="mix-blend-mode: normal"><path d="M242.36541,166.24867c-2.25401,0.52945 -6.45313,-1.98886 -8.11298,-6.6247c-1.65985,-4.63581 2.45654,-12.74335 2.45654,-12.74335c0,0 1.89693,4.40208 2.66743,4.96501c0,0 4.62815,2.66174 5.4457,5.131c1.07643,3.25114 -0.20269,8.74258 -2.4567,9.27204z" data-paper-data="{&quot;origRot&quot;:0,&quot;origPos&quot;:null}" fill="#26bd00" stroke="#000000" stroke-width="1"/><path d="M241.51692,164.82805c-0.36074,2.29182 -3.68776,4.9921 -7.76066,4.42944c-4.07289,-0.56265 -8.82348,-7.94545 -8.82348,-7.94545c0,0 3.97596,0.24189 4.66282,-0.20845c0,0 3.58067,-3.02717 5.72759,-2.66679c2.82673,0.47448 6.55447,4.09943 6.19372,6.39125z" data-paper-data="{&quot;origRot&quot;:0,&quot;origPos&quot;:null}" fill="#26bd00" stroke="#000000" stroke-width="1"/><path d="M245.58686,160.89879c-2.2031,-0.81528 -4.48802,-4.76766 -3.5014,-8.85776c0.9866,-4.09009 8.7169,-7.55942 8.7169,-7.55942c0,0 -0.66246,4.05221 -0.29554,4.84745c0,0 2.57748,4.27713 1.99503,6.42077c-0.76688,2.82242 -4.71187,5.96425 -6.91498,5.14896z" data-paper-data="{&quot;origRot&quot;:0,&quot;origPos&quot;:null}" fill="#26bd00" stroke="#000000" stroke-width="1"/><path d="M230.61393,191.3634c4.70628,0.72373 8.2405,3.1374 7.89393,5.39112c-0.34658,2.25371 -4.44273,3.49399 -9.14898,2.77027c-4.70628,-0.72373 -7.8939,-5.39113 -7.8939,-5.39113c0,0 4.44271,-3.49401 9.14896,-2.77028z" data-paper-data="{&quot;origRot&quot;:0,&quot;origPos&quot;:null,&quot;index&quot;:null}" fill="#2bd900" stroke="#000000" stroke-width="1.5"/><path d="M255.90996,195.1778c0,0 -3.48248,4.45173 -8.22567,4.86994c-4.7432,0.41821 -8.75067,-1.08407 -8.95094,-3.35547c-0.20028,-2.2714 3.48251,-4.45175 8.22568,-4.86996c4.7432,-0.41821 8.95093,3.35548 8.95093,3.35548z" data-paper-data="{&quot;origRot&quot;:0,&quot;origPos&quot;:null,&quot;index&quot;:null}" fill="#2bd900" stroke="#000000" stroke-width="1.5"/><path d="M235.38439,195.27541c0,0 4.03397,-5.86514 7.03529,-9.12958c2.36948,-2.57719 6.72663,-5.83888 6.72663,-5.83888l3.31269,3.04567c0,0 -4.14307,2.04381 -6.16502,4.243c-3.34882,3.64241 -7.5969,10.72544 -7.5969,10.72544z" data-paper-data="{&quot;origPos&quot;:null,&quot;origRot&quot;:0}" fill="#a9ff59" stroke="#000000" stroke-width="2"/><path d="M269.70067,180.29334c-3.27056,8.15013 -13.54943,11.69627 -22.95848,7.92049c-9.40905,-3.77575 -14.38528,-13.44361 -11.11472,-21.59374c3.27056,-8.15013 13.54942,-11.69626 22.95848,-7.92048c9.40905,3.77575 14.38528,13.44361 11.11472,21.59373z" data-paper-data="{&quot;origPos&quot;:null,&quot;origRot&quot;:0}" fill="#a9ff59" stroke="#000000" stroke-width="3"/><path d="M274.94317,187.93782c-2.34135,4.49361 -6.72412,6.85459 -9.78917,5.2734c-3.06505,-1.58123 -3.6517,-6.50582 -1.31035,-10.99944c2.34135,-4.49361 6.72414,-6.85459 9.78917,-5.2734c3.06504,1.58122 3.65168,6.50581 1.31035,10.99944z" data-paper-data="{&quot;origPos&quot;:null,&quot;origRot&quot;:0}" fill="#a9ff59" stroke="#000000" stroke-width="2"/><path d="M268.63416,184.55503c-1.11674,2.23294 -2.91792,3.59885 -4.02306,3.05081c-1.10512,-0.54802 -1.0957,-2.80244 0.02106,-5.03539c1.11674,-2.23294 2.91792,-3.59885 4.02305,-3.0508c1.10512,0.54802 1.09571,2.80245 -0.02105,5.03539z" data-paper-data="{&quot;origRot&quot;:0,&quot;origPos&quot;:null}" fill="#84c746" stroke="none" stroke-width="0"/><path d="M230.37732,195.47394c5.11563,-1.00495 9.65279,0.16627 10.13405,2.61602c0.48124,2.44973 -3.27567,5.25031 -8.3913,6.25527c-5.11563,1.00495 -10.13404,-2.61602 -10.13404,-2.61602c0,0 3.27566,-5.25032 8.39129,-6.25527z" data-paper-data="{&quot;origRot&quot;:0,&quot;origPos&quot;:null}" fill="#2fe500" stroke="#000000" stroke-width="2"/><path d="M256.09603,204.67454c0,0 -5.71375,2.37668 -10.46376,0.22793c-4.74999,-2.14876 -7.76648,-5.73462 -6.73749,-8.00927c1.02898,-2.27464 5.71377,-2.3767 10.46377,-0.22794c4.74999,2.14876 6.73748,8.00928 6.73748,8.00928z" data-paper-data="{&quot;origRot&quot;:0,&quot;origPos&quot;:null,&quot;index&quot;:null}" fill="#2fe500" stroke="#000000" stroke-width="2"/><path d="M260.09052,169.50307c-0.47675,2.22333 -1.93822,3.8573 -3.26428,3.64957c-1.32605,-0.20773 -2.01456,-2.1785 -1.5378,-4.40183c0.47675,-2.22333 1.93822,-3.8573 3.26428,-3.64957c1.32605,0.20773 2.01455,2.1785 1.53779,4.40181z" data-paper-data="{&quot;origPos&quot;:null,&quot;origRot&quot;:0}" fill="#000000" stroke="none" stroke-width="0"/><path d="M265.78144,171.66729c-0.35915,1.67486 -1.46007,2.90573 -2.459,2.74925c-0.99894,-0.15649 -1.51757,-1.64107 -1.15842,-3.31593c0.35915,-1.67486 1.46006,-2.90573 2.459,-2.74925c0.99894,0.15649 1.51758,1.64108 1.15843,3.31594z" data-paper-data="{&quot;origPos&quot;:null,&quot;origRot&quot;:0}" fill="#000000" stroke="none" stroke-width="0"/><path d="M253.35898,164.0973l1.39677,-4.35617c0,0 4.22009,2.22105 5.72861,3.98952c1.59903,1.87459 0.40739,4.78931 0.40739,4.78931c0,0 -0.27914,-1.86116 -2.66845,-3.1737c-1.66399,-0.91409 -4.86432,-1.24896 -4.86432,-1.24896z" data-paper-data="{&quot;origPos&quot;:null,&quot;origRot&quot;:0}" fill="#26bd00" stroke="#000000" stroke-width="0.5"/><path d="M265.81859,168.3025c-1.99908,-0.62566 -3.24382,0.28927 -3.24382,0.28927c0,0 1.11637,-2.377 3.04407,-2.5346c1.81858,-0.14868 5.2919,1.01261 5.2919,1.01261l-1.86493,3.32983c0,0 -1.83499,-1.66139 -3.22722,-2.09712z" data-paper-data="{&quot;origPos&quot;:null,&quot;index&quot;:null,&quot;origRot&quot;:0}" fill="#26bd00" stroke="#000000" stroke-width="0.5"/></g></g></svg>