<svg version="1.1" xmlns="http://www.w3.org/2000/svg" xmlns:xlink="http://www.w3.org/1999/xlink" width="79.13457" height="66.72745" viewBox="0,0,79.13457,66.72745"><defs><linearGradient x1="240.19427" y1="191.00524" x2="240.19427" y2="207.40821" gradientUnits="userSpaceOnUse" id="color-1"><stop offset="0" stop-color="#24693c"/><stop offset="1" stop-color="#4ecc71"/></linearGradient><radialGradient cx="239.51009" cy="174.42631" r="21.1235" gradientUnits="userSpaceOnUse" id="color-2"><stop offset="0" stop-color="#b3fa98"/><stop offset="1" stop-color="#05ac26"/></radialGradient><radialGradient cx="230.80275" cy="152.8739" r="14.99911" gradientUnits="userSpaceOnUse" id="color-3"><stop offset="0" stop-color="#036617"/><stop offset="1" stop-color="#037019"/></radialGradient><radialGradient cx="240.63053" cy="173.28836" r="6.67932" gradientUnits="userSpaceOnUse" id="color-4"><stop offset="0" stop-color="#adeba3"/><stop offset="1" stop-color="#32c144"/></radialGradient><linearGradient x1="235.63763" y1="181.77783" x2="235.27324" y2="199.57529" gradientUnits="userSpaceOnUse" id="color-5"><stop offset="0" stop-color="#a8d9ab"/><stop offset="1" stop-color="#50d844"/></linearGradient><radialGradient cx="238.764" cy="174.71681" r="11.33088" gradientUnits="userSpaceOnUse" id="color-6"><stop offset="0" stop-color="#a5f48f"/><stop offset="1" stop-color="#32c144"/></radialGradient><linearGradient x1="248.19722" y1="163.31847" x2="247.83664" y2="180.92971" gradientUnits="userSpaceOnUse" id="color-7"><stop offset="0" stop-color="#baffa7"/><stop offset="1" stop-color="#82ff63"/></linearGradient><radialGradient cx="199.82475" cy="149.09321" r="10.59119" gradientUnits="userSpaceOnUse" id="color-8"><stop offset="0" stop-color="#c8d6ca"/><stop offset="1" stop-color="#05ad27"/></radialGradient><radialGradient cx="193.87808" cy="152.67435" r="9.57427" gradientUnits="userSpaceOnUse" id="color-9"><stop offset="0" stop-color="#83dd6c"/><stop offset="1" stop-color="#28bd46"/></radialGradient><radialGradient cx="205.0404" cy="153.54913" r="7.29369" gradientUnits="userSpaceOnUse" id="color-10"><stop offset="0" stop-color="#83dd6c"/><stop offset="1" stop-color="#5dc572"/></radialGradient><linearGradient x1="198.42277" y1="154.11691" x2="198.71175" y2="166.71362" gradientUnits="userSpaceOnUse" id="color-11"><stop offset="0" stop-color="#53db7a"/><stop offset="1" stop-color="#24693c"/></linearGradient></defs><g transform="translate(-186.8699,-141.16772)"><g data-paper-data="{&quot;isPaintingLayer&quot;:true}" fill="none" fill-rule="nonzero" stroke="none" stroke-width="none" stroke-linecap="none" stroke-linejoin="miter" stroke-miterlimit="10" stroke-dasharray="" stroke-dashoffset="0" font-family="none" font-weight="none" font-size="none" text-anchor="none" style="mix-blend-mode: normal"><path d="M265.50447,196.78898c0,2.05192 -4.46233,5.3969 -5.99869,5.1516c-2.211,-0.35301 -7.33647,-4.94385 -7.33647,-4.94385c0,0 3.94658,2.47919 5.06352,4.47218c1.09713,1.95763 1.60555,5.11132 -0.57043,5.66005c-0.81875,0.20647 -2.25973,-4.07958 -3.04313,-3.76452c-0.51129,0.20562 -0.20078,0.90011 -0.39866,1.41446c-0.48513,1.26101 -0.65474,2.07082 -2.00368,2.1474c-2.54931,0.14472 -1.21167,-3.82453 -3.65419,-3.08021c-1.3397,0.40825 -1.1077,1.11468 -2.17422,2.02242c-2.09749,1.78521 -2.63345,1.52666 -5.3878,1.52666c-3.37785,0 -7.03408,-6.82012 -7.03408,-6.82012c0,0 -9.27918,5.80446 -14.23348,3.40515c-1.85279,-0.89729 1.05445,-3.69416 2.6697,-4.97045c1.36434,-1.07803 4.18869,-1.43148 4.18869,-1.43148c0,0 -4.97845,1.0473 -7.10801,0.24077c-1.79846,-0.68114 -3.59951,-2.29397 -3.59951,-4.2171c0,-1.27932 7.86551,-0.1749 7.86551,-0.1749c0,0 -3.96234,-1.47362 -2.2704,-1.93843c6.91241,-1.899 31.59011,2.37702 33.85978,2.86475c0.75656,0.16258 7.08018,-1.36996 7.557,-0.76049c0.73094,0.93429 -2.67507,3.70814 -2.67507,3.70814c0,0 6.28359,-4.13562 6.28359,-0.51203z" data-paper-data="{&quot;origPos&quot;:null}" fill="url(#color-1)" stroke="#0f2c13" stroke-width="1" stroke-linecap="butt"/><path d="M220.14412,175.28479l0.05661,-2.7657l2.48912,0.05096l-0.05661,2.7657z" data-paper-data="{&quot;origPos&quot;:null,&quot;origRot&quot;:0}" fill="#1c5324" stroke="none" stroke-width="0" stroke-linecap="butt"/><path d="M261.84282,181.35581c-0.22384,10.93226 -9.398,19.61049 -21.84643,19.35564c-12.44843,-0.25488 -19.61161,-9.26759 -19.3878,-20.19985c0.15643,-7.64024 2.21776,-10.12742 5.80866,-11.41839c2.6,-0.93473 1.3322,-4.27558 2.1132,-6.92584c0.44222,-1.50069 1.82378,-3.16194 3.14708,-2.32734c2.03821,1.28551 4.64939,3.96992 4.64939,3.96992c0,0 0.66703,-4.50423 2.82093,-2.90773c2.41887,1.79293 4.30877,2.54883 6.12197,4.35199c0,0 16.79689,5.16932 16.57306,16.10158z" data-paper-data="{&quot;origPos&quot;:null,&quot;origRot&quot;:0}" fill="url(#color-2)" stroke="#000000" stroke-width="1.5" stroke-linecap="butt"/><path d="M251.39913,187.26875c0.23007,2.26219 -0.65813,4.26645 -1.98382,4.47654c-1.32568,0.21015 -2.58686,-1.45343 -2.8169,-3.71563c-0.23007,-2.26219 0.65813,-4.26645 1.98382,-4.47654c1.32568,-0.21015 2.58685,1.45344 2.81688,3.71564z" data-paper-data="{&quot;origPos&quot;:null,&quot;origRot&quot;:0}" fill="#000000" stroke="none" stroke-width="0" stroke-linecap="butt"/><path d="M257.24928,185.48081c0.15239,1.70613 -0.5351,3.20762 -1.5356,3.35364c-1.00052,0.14603 -1.93512,-1.11867 -2.08756,-2.82483c-0.15239,-1.70613 0.53509,-3.20763 1.5356,-3.35364c1.00052,-0.14603 1.93517,1.11868 2.08758,2.82481z" data-paper-data="{&quot;origPos&quot;:null,&quot;origRot&quot;:0}" fill="#000000" stroke="none" stroke-width="0" stroke-linecap="butt"/><path d="M236.76155,164.6504c0.28106,-1.13615 2.12205,-1.61576 2.13309,-1.59567c0.94267,-0.17387 1.13829,0.25075 1.31208,0.7005c0.52143,1.34923 4.71419,4.57639 4.71419,4.57639c0,0 -8.71757,-1.42478 -8.15937,-3.68124z" data-paper-data="{&quot;origPos&quot;:null,&quot;index&quot;:null,&quot;origRot&quot;:0}" fill="#287732" stroke="none" stroke-width="0" stroke-linecap="butt"/><path d="M234.55559,167.42375l-4.96614,-13.10319c0,0 -2.67246,-0.96965 -4.92723,-0.28579c-5.57859,1.69192 -14.47237,6.35794 -14.47237,6.35794l1.46663,-3.21126c0,0 6.28255,-3.35809 10.46362,-4.79333c4.02178,-1.38056 9.68941,-1.05628 9.68941,-1.05628l8.58501,17.71463z" data-paper-data="{&quot;origPos&quot;:null,&quot;origRot&quot;:0}" fill="url(#color-3)" stroke="#0f2c13" stroke-width="0.5" stroke-linecap="butt"/><path d="M236.61777,176.41096c0,0 -2.48094,-7.52798 1.17973,-10.57159c1.43134,0.18761 1.58151,0.92611 3.04876,0.78565c0.81233,-0.07777 -1.39708,-3.32916 -0.59175,-3.46087c1.28262,-0.20975 3.25785,0.6824 4.34235,1.39865c1.92813,1.27342 4.51864,2.7927 4.51864,2.7927c0,0 -1.15204,3.50423 -4.66416,6.42435c-2.07729,1.72713 -7.83354,2.63113 -7.83354,2.63113z" data-paper-data="{&quot;origPos&quot;:null,&quot;origRot&quot;:0}" fill="url(#color-4)" stroke="#256d2f" stroke-width="0.5" stroke-linecap="butt"/><path d="M249.6102,186.6877c0.10435,1.02623 -0.29856,1.93541 -0.89995,2.03076c-0.60138,0.09532 -1.17349,-0.65935 -1.27784,-1.68556c-0.10435,-1.02623 0.29856,-1.93541 0.89995,-2.03076c0.60138,-0.09532 1.17349,0.65935 1.27784,1.68555z" data-paper-data="{&quot;origPos&quot;:null,&quot;origRot&quot;:0}" fill="#ffffff" stroke="none" stroke-width="0" stroke-linecap="butt"/><path d="M255.69449,184.71304c0.05198,0.58184 -0.18247,1.09389 -0.52367,1.14369c-0.34117,0.0498 -0.65991,-0.38148 -0.71191,-0.96333c-0.05198,-0.58184 0.18247,-1.09389 0.52367,-1.14369c0.34117,-0.0498 0.65992,0.38149 0.7119,0.96333z" data-paper-data="{&quot;origPos&quot;:null,&quot;origRot&quot;:0}" fill="#ffffff" stroke="none" stroke-width="0" stroke-linecap="butt"/><path d="M230.14714,169.28952c0,0 -0.44221,-5.63889 0.13401,-6.96563c0.19206,-0.44225 0.41309,-1.2597 1.34789,-1.04742c0.01184,-0.01962 1.82838,0.69542 2.06272,1.84215c0.4654,2.27739 -0.11548,0.78245 -0.11548,0.78245z" data-paper-data="{&quot;origPos&quot;:null,&quot;origRot&quot;:0}" fill="#287732" stroke="none" stroke-width="0" stroke-linecap="butt"/><path d="M241.41259,182.46576c0,0 1.0484,-5.56799 2.71944,-5.37745c3.44895,0.39331 5.25557,4.28928 5.25557,4.28928c0,0 -2.86569,-1.36739 -4.25264,-1.17816c-1.72539,0.23544 -3.72237,2.2663 -3.72237,2.2663z" data-paper-data="{&quot;origPos&quot;:null,&quot;origRot&quot;:0}" fill="#05ac26" stroke="#000000" stroke-width="0.5" stroke-linecap="butt"/><path d="M253.53576,180.47172c0,0 0.48279,-3.53237 2.1953,-4.43137c1.61558,-0.84809 4.46738,3.56434 4.46738,3.56434c0,0 -2.14424,-1.35699 -3.59596,-1.2135z" data-paper-data="{&quot;origPos&quot;:null,&quot;index&quot;:null,&quot;origRot&quot;:0}" fill="#05ac26" stroke="#000000" stroke-width="0.5" stroke-linecap="butt"/><path d="M229.46639,196.6636c-9.19489,-5.72274 -7.8064,-15.17195 -7.8064,-15.17195c0,0 1.77201,2.35292 3.41656,3.59182c2.85555,2.15123 5.21854,3.00614 8.2596,4.886c1.05946,0.6549 3.28253,1.0235 4.23712,1.82352c1.02932,0.86268 1.15527,2.02674 1.90675,3.13982c0.54436,0.80632 1.18964,0.72291 2.04892,1.17918c2.87868,1.52853 7.80571,2.09303 7.80571,2.09303c0,0 -10.67332,4.18135 -19.86823,-1.5414z" data-paper-data="{&quot;origPos&quot;:null,&quot;origRot&quot;:0}" fill="url(#color-5)" stroke="#287732" stroke-width="0" stroke-linecap="butt"/><path d="M221.53618,184.72586c0,0 -2.86944,-6.52063 -1.37543,-10.28422c1.49401,-3.76359 4.91272,-1.76807 6.60282,-3.12026c1.77541,-1.42041 2.08701,-1.42296 3.65079,-3.0735c1.19377,-1.25995 0.94698,-4.11 2.38417,-5.0832c0.99726,-0.67529 1.82776,0.24252 3.00311,0.50526c1.28373,0.28699 1.29764,4.56304 1.29764,4.56304c0,0 2.89268,-0.4977 2.42378,1.66139c-0.40391,1.85979 -1.58426,1.09909 -1.52176,3.00121c0.07522,2.28984 2.63403,-0.27222 2.36445,2.00296c-0.41846,3.53169 -0.75392,5.20312 -3.03665,7.93025c0,0 -5.62241,1.97344 -8.59824,2.25609c-3.59315,0.3413 -7.19474,-0.35904 -7.19474,-0.35904z" data-paper-data="{&quot;origPos&quot;:null,&quot;origRot&quot;:0}" fill="url(#color-6)" stroke="#256d2f" stroke-width="0.5" stroke-linecap="butt"/><path d="M221.24053,188.74833c-0.81032,-2.01948 0.20712,-2.60983 -0.82155,-4.44625c-0.44883,-0.80128 -0.93912,-0.31138 -1.85258,-0.40662c-1.24301,-0.1296 -2.82634,-0.16154 -3.08399,-1.38442c-0.28864,-1.37005 2.04149,-3.20361 2.04149,-3.20361c0,0 -4.34171,-0.6205 -4.13998,-3.50637c0.20921,-2.9927 4.45241,-2.79861 4.87128,-3.47644c0.70497,-1.14083 -0.06428,-2.36912 1.25141,-2.62865c0.84578,-0.16684 2.51333,2.70011 2.45094,1.84027c-0.08085,-1.11374 3.37711,0.17831 3.37711,0.17831l-2.53973,1.50808c0,0 -2.31185,0.55031 -2.17433,2.51852c0.26167,3.745 -0.40397,3.51745 2.06633,6.34429c1.22016,1.39627 3.49771,5.04254 5.33583,4.61814c0.76489,1.64614 3.19764,1.6633 4.77135,2.56785c2.04407,1.17487 5.12253,3.09046 5.12253,3.09046c0,0 -2.74435,-1.06999 -3.76251,-1.02465c-2.87791,0.12818 -2.41173,0.89494 -5.09589,-0.15098c-1.1556,-0.45029 -1.40133,-1.60962 -2.58804,-1.97004c-2.70626,-0.82193 -4.41928,1.55159 -5.22963,-0.46788z" data-paper-data="{&quot;origPos&quot;:null,&quot;origRot&quot;:0}" fill="#98ff7e" stroke="#256d2f" stroke-width="1" stroke-linecap="butt"/><path d="M238.58083,180.74021c0,0 0.72378,-1.21406 0.9266,-1.98657c0.3121,-1.18887 0.57975,-2.96984 0.57975,-2.96984c0.61347,-1.16593 1.29232,-1.44628 2.14677,-2.44908c0.78229,-0.91814 1.92193,-2.55046 1.92193,-2.55046c0.94953,-1.07342 5.13076,-3.91586 5.13076,-3.91586l-3.79966,-1.96203c0,0 1.31666,-0.57906 2.04085,-0.81281c4.1485,-1.33903 9.64412,-0.78305 9.86624,2.02759c0.13541,1.71345 -3.7024,-0.0662 -5.57041,2.04553c-0.7873,0.89004 0.80751,3.11755 -0.19469,4.27523c-0.81873,0.94574 -3.7079,-1.84661 -4.53883,-0.91153c-0.58516,0.65849 -0.33299,3.03378 -1.00331,3.51622c-1.06099,0.76362 -0.99938,0.0773 -2.26547,-0.24806c-0.53913,-0.13857 -0.90673,0.18033 -1.30532,0.56893c-1.64556,1.60435 -0.19948,2.53749 -1.91423,4.06765c-1.20076,1.0715 -2.02094,1.30506 -2.02094,1.30506z" data-paper-data="{&quot;origPos&quot;:null,&quot;origRot&quot;:0}" fill="url(#color-7)" stroke="#256d2f" stroke-width="1" stroke-linecap="butt"/><path d="M249.45021,165.06119c0,0 3.43549,0.22044 2.55779,0.72811c-2.91246,1.68454 -4.43363,1.6422 -6.92355,3.9051c-1.27394,1.15781 -2.34234,3.1005 -3.53632,4.34059c-3.27236,3.39875 -0.7938,5.90036 -4.5986,8.69027c-2.84875,2.08886 -10.31906,2.68958 -10.31906,2.68958" data-paper-data="{&quot;origPos&quot;:null,&quot;origRot&quot;:0}" fill="none" stroke="#287732" stroke-width="0.5" stroke-linecap="round"/><path d="M249.43084,198.16456c0,0 -2.53506,-0.40337 -4.24345,-0.91232c-1.83565,-0.54686 -3.0644,-1.08481 -4.77163,-1.95315c-2.9628,-1.50694 -0.70697,-2.18802 -3.57392,-3.87019c-4.06231,-2.38355 -9.07929,-4.31434 -12.59162,-7.45235c-2.59158,-2.31543 -4.75307,-6.50748 -3.06409,-9.4948c0.70438,-1.24588 1.59482,-1.38009 1.59482,-1.38009" data-paper-data="{&quot;origPos&quot;:null,&quot;origRot&quot;:0}" fill="none" stroke="#287732" stroke-width="0.5" stroke-linecap="round"/><path d="M211.44649,157.80195c-0.68969,5.99211 -6.58616,10.23535 -13.17009,9.47756c-6.58394,-0.75782 -11.36219,-6.22972 -10.67249,-12.22183c0.68969,-5.99211 24.53228,-3.24785 23.84258,2.74427z" data-paper-data="{&quot;origPos&quot;:null,&quot;origRot&quot;:0}" fill="#2e8149" stroke="#0f2c13" stroke-width="0.5" stroke-linecap="butt"/><path d="M188.60025,154.48216c-0.20432,-5.84578 4.36011,-11.00302 10.20593,-11.20737c5.84578,-0.20432 10.75922,4.62163 10.96355,10.46742c0.20432,5.84578 -4.36011,11.00304 -10.20593,11.20738c-5.84578,0.20432 -10.7592,-4.62162 -10.96355,-10.46743z" data-paper-data="{&quot;origPos&quot;:null,&quot;origRot&quot;:0}" fill="url(#color-8)" stroke="#000000" stroke-width="1" stroke-linecap="butt"/><path d="M206.71099,160.54956c-1.81451,2.10725 -2.44005,1.92355 -3.89129,1.94679c-2.77415,0.04442 -6.97879,-1.9192 -6.97879,-1.9192c0,0 4.31331,-1.02671 6.35986,-2.91223c1.82446,-1.68093 2.55705,-3.78182 1.79611,-6.14296c-0.50217,-1.55807 -1.64563,-2.56699 -1.73348,-4.20165c-0.04939,-0.91927 1.17092,-2.31683 1.17092,-2.31683c0,0 0.58706,0.7155 2.23245,1.5798c1.10458,0.58023 1.67217,2.10911 2.37816,3.13789c0.95924,1.39776 0.89745,2.6863 0.9567,4.38051c0.13342,3.81689 -0.59455,4.47818 -2.29066,6.44791z" data-paper-data="{&quot;origPos&quot;:null,&quot;index&quot;:null,&quot;origRot&quot;:0}" fill="#27b33c" stroke="#1c802b" stroke-width="0.5" stroke-linecap="butt"/><path d="M189.30583,154.56295c-0.07179,-2.05449 0.25508,-3.62583 1.29708,-5.39791c0.76694,-1.30428 1.8526,-2.70896 3.1397,-3.50439c1.91727,-1.18487 4.93388,-1.67153 4.93388,-1.67153c0,0 -3.12172,5.35486 -3.5349,7.02939c-0.72065,2.92069 0.34344,5.40011 2.69283,7.279c2.63537,2.10761 7.94005,2.98441 7.94005,2.98441c0,0 -4.19094,4.22583 -8.24683,2.83686c0,0 -3.06682,-0.75121 -4.71134,-2.26345c-2.10568,-1.93629 -3.34871,-2.66393 -3.51049,-7.29246z" data-paper-data="{&quot;origPos&quot;:null,&quot;origRot&quot;:0}" fill="#27b33c" stroke="#1c802b" stroke-width="0.5" stroke-linecap="butt"/><path d="M194.87997,152.38631c0,0 2.86677,-3.5818 4.50935,-3.6546c0.87336,-0.03872 0.88467,2.01985 1.59001,2.53633c0.69188,0.5066 0.74491,-0.65566 1.59768,-0.56588c0.32933,0.0347 1.31247,1.28493 1.31247,1.28493" data-paper-data="{&quot;origPos&quot;:null,&quot;origRot&quot;:0}" fill="none" stroke="#1c802b" stroke-width="0.5" stroke-linecap="round"/><path d="M201.00756,144.32931c0,0 -0.85332,0.7084 -1.01832,1.25643c-0.19086,0.63389 1.2097,0.96077 1.15374,1.62042c-0.05248,0.61908 -1.49551,1.64025 -1.49551,1.64025" data-paper-data="{&quot;origPos&quot;:null,&quot;origRot&quot;:0}" fill="none" stroke="#1c802b" stroke-width="0.5" stroke-linecap="round"/><path d="M192.06036,153.74982c0.08766,-1.34089 0.68236,-0.43135 1.33714,-1.60481c0.24881,-0.44587 -1.01189,-2.08299 -0.77016,-2.53271c0.55661,-1.03559 0.93431,-0.572 1.77722,-1.39159c0.90598,-0.88087 -1.72221,-3.48941 -0.86075,-4.41389c0.72339,-0.77634 1.37066,0.84483 2.42965,0.91178c0.72581,0.04589 0.17932,-2.94625 0.83551,-3.25985c0.56986,-0.27233 0.56773,0.88046 0.92553,1.40096c0.1452,0.21119 1.05041,-0.89477 1.23656,-0.71858c0.19135,0.18111 1.13085,0.61785 1.07897,0.87616c-0.0596,0.29654 -0.68728,-0.25015 -0.96592,-0.13257c-0.30987,0.13075 -0.45851,0.85321 -0.45851,0.85321c0,0 -2.5625,4.09618 -3.33651,6.63009c-0.66034,2.16178 -0.55477,3.21911 0.28898,5.31613c1.30075,3.23271 5.82334,4.73873 5.82334,4.73873c0,0 -9.53637,-3.68487 -9.34104,-6.67301z" data-paper-data="{&quot;origPos&quot;:null,&quot;origRot&quot;:0}" fill="url(#color-9)" stroke="#256d2f" stroke-width="0.5" stroke-linecap="butt"/><path d="M203.06128,157.24454c0,0 2.15822,-3.40612 1.25527,-5.78336c-0.74932,-1.97273 -1.7318,-2.14358 -1.86494,-4.14348c-0.15035,-2.25893 1.25418,-2.99841 1.25418,-2.99841c0,0 -1.39331,-1.70353 -1.10632,-1.26476c0.42164,0.64467 1.38081,-0.85792 1.94679,-0.33539c0.393,0.36283 0.01594,0.55917 0.39036,1.68715c0.12234,0.3685 0.98857,0.73178 0.98331,1.11998c-0.01019,0.75249 -1.06465,1.03147 -1.23531,1.76447c-0.23998,1.03088 2.43495,2.34208 2.48639,3.39923c0.09975,2.05068 -0.30518,0.52819 -1.43733,2.0166c-1.01359,1.33254 1.23223,0.12103 1.15459,1.79343c-0.12239,2.63579 -3.82702,2.74448 -3.82702,2.74448z" data-paper-data="{&quot;origPos&quot;:null,&quot;origRot&quot;:0}" fill="url(#color-10)" stroke="#256d2f" stroke-width="0.5" stroke-linecap="butt"/><path d="M187.11995,156.42513c0.00584,-0.64358 0.30796,-1.95589 0.30796,-1.95589c0,0 1.37702,1.13121 1.55988,1.54608c0.54858,1.24451 0.55702,2.85807 0.55702,2.85807c0,0 0.28506,-1.63903 2.29752,-1.1032c0.64057,0.17055 0.98703,2.12883 0.98703,2.12883c0,0 2.07321,-2.19086 3.21292,-1.12656c1.38234,1.2909 1.69679,3.02237 1.69679,3.02237c0,0 1.73861,-2.55348 2.66467,-2.38703c2.09388,0.37637 3.42253,1.35089 3.42253,1.35089c0,0 -1.85465,-0.92187 -0.76162,-2.58854c0.80562,-1.22846 4.04984,-0.29623 4.04984,-0.29623c0,0 -0.64826,-1.58758 -0.22695,-2.43085c0.55719,-1.11518 1.77314,-0.03214 1.77314,-0.03214l0.34776,-2.03694c0,0 2.22077,2.46067 2.30744,3.88991c0.1158,1.90951 -0.70246,3.38409 -1.72883,4.99849c-2.25813,3.55191 -6.8772,5.6953 -11.06474,5.27145c-2.23106,-0.22584 -3.52278,-0.93314 -5.57855,-1.82883c0,0 -3.00497,-1.82531 -4.22912,-4.02442c-0.90985,-1.63454 -1.6122,-3.32468 -1.59475,-5.2554z" data-paper-data="{&quot;origPos&quot;:null,&quot;origRot&quot;:0}" fill="url(#color-11)" stroke="#0f2c13" stroke-width="0.5" stroke-linecap="butt"/></g></g></svg>