<svg version="1.1" xmlns="http://www.w3.org/2000/svg" xmlns:xlink="http://www.w3.org/1999/xlink" width="54.19662" height="62.88423"><defs><linearGradient x1="267.69182" y1="175.46014" x2="259.47421" y2="168.91122" gradientUnits="userSpaceOnUse" id="color-1"><stop offset="0" stop-color="#fff987"/><stop offset="1" stop-color="#fff300"/></linearGradient><linearGradient x1="269.85393" y1="157.45803" x2="259.85236" y2="163.55833" gradientUnits="userSpaceOnUse" id="color-2"><stop offset="0" stop-color="#fff987"/><stop offset="1" stop-color="#fff300"/></linearGradient><linearGradient x1="266.41321" y1="151.79401" x2="258.98278" y2="159.79063" gradientUnits="userSpaceOnUse" id="color-3"><stop offset="0" stop-color="#fff987"/><stop offset="1" stop-color="#fff300"/></linearGradient><linearGradient x1="230.40059" y1="180.9998" x2="237.53479" y2="173.27782" gradientUnits="userSpaceOnUse" id="color-4"><stop offset="0" stop-color="#fff987"/><stop offset="1" stop-color="#fff300"/></linearGradient><linearGradient x1="262.88237" y1="180.03063" x2="256.03456" y2="171.54063" gradientUnits="userSpaceOnUse" id="color-5"><stop offset="0" stop-color="#fff987"/><stop offset="1" stop-color="#fff300"/></linearGradient><linearGradient x1="227.63187" y1="150.6531" x2="234.49295" y2="159.21751" gradientUnits="userSpaceOnUse" id="color-6"><stop offset="0" stop-color="#fff987"/><stop offset="1" stop-color="#fff300"/></linearGradient><linearGradient x1="224.00667" y1="154.48459" x2="231.35716" y2="163.65988" gradientUnits="userSpaceOnUse" id="color-7"><stop offset="0" stop-color="#fff987"/><stop offset="1" stop-color="#fff300"/></linearGradient><linearGradient x1="256.15024" y1="183.55171" x2="250.45978" y2="174.27814" gradientUnits="userSpaceOnUse" id="color-8"><stop offset="0" stop-color="#fff987"/><stop offset="1" stop-color="#fff300"/></linearGradient><linearGradient x1="224.53772" y1="175.54795" x2="235.28548" y2="170.99548" gradientUnits="userSpaceOnUse" id="color-9"><stop offset="0" stop-color="#fff987"/><stop offset="1" stop-color="#fff300"/></linearGradient><linearGradient x1="237.40953" y1="183.04864" x2="242.64285" y2="173.93654" gradientUnits="userSpaceOnUse" id="color-10"><stop offset="0" stop-color="#fff987"/><stop offset="1" stop-color="#fff300"/></linearGradient><linearGradient x1="261.50008" y1="147.797" x2="255.39666" y2="156.61626" gradientUnits="userSpaceOnUse" id="color-11"><stop offset="0" stop-color="#fff987"/><stop offset="1" stop-color="#fff300"/></linearGradient><linearGradient x1="233.02851" y1="147.14804" x2="238.21335" y2="158.1193" gradientUnits="userSpaceOnUse" id="color-12"><stop offset="0" stop-color="#fff987"/><stop offset="1" stop-color="#fff300"/></linearGradient><linearGradient x1="255.99291" y1="144.27114" x2="249.84007" y2="154.99916" gradientUnits="userSpaceOnUse" id="color-13"><stop offset="0" stop-color="#fff987"/><stop offset="1" stop-color="#fff300"/></linearGradient><linearGradient x1="238.49076" y1="143.25599" x2="242.52271" y2="154.19744" gradientUnits="userSpaceOnUse" id="color-14"><stop offset="0" stop-color="#fff987"/><stop offset="1" stop-color="#fff300"/></linearGradient><linearGradient x1="245.58543" y1="185.15277" x2="245.78772" y2="171.46844" gradientUnits="userSpaceOnUse" id="color-15"><stop offset="0" stop-color="#fff987"/><stop offset="1" stop-color="#fff300"/></linearGradient><linearGradient x1="220.64437" y1="165.91128" x2="234.32872" y2="166.11358" gradientUnits="userSpaceOnUse" id="color-16"><stop offset="0" stop-color="#fff987"/><stop offset="1" stop-color="#fff300"/></linearGradient><linearGradient x1="271.86808" y1="166.10523" x2="258.18374" y2="165.90293" gradientUnits="userSpaceOnUse" id="color-17"><stop offset="0" stop-color="#fff987"/><stop offset="1" stop-color="#fff300"/></linearGradient><linearGradient x1="246.65487" y1="142.16287" x2="246.45257" y2="155.84721" gradientUnits="userSpaceOnUse" id="color-18"><stop offset="0" stop-color="#fff987"/><stop offset="1" stop-color="#fff300"/></linearGradient><linearGradient x1="246.542" y1="150.59751" x2="246.11316" y2="179.60656" gradientUnits="userSpaceOnUse" id="color-19"><stop offset="0" stop-color="#eeb054"/><stop offset="1" stop-color="#d27700"/></linearGradient></defs><g transform="translate(-219.15792,-140.67635)"><g data-paper-data="{&quot;isPaintingLayer&quot;:true}" fill="none" fill-rule="nonzero" stroke="none" stroke-width="none" stroke-linecap="none" stroke-linejoin="miter" stroke-miterlimit="10" stroke-dasharray="" stroke-dashoffset="0" font-family="none" font-weight="none" font-size="none" text-anchor="none" style="mix-blend-mode: normal"><path d="M252.93344,196.39802c-0.01856,2.47718 -10.5375,2.39838 -10.51894,-0.07881c0.01856,-2.47718 2.38834,-4.46769 5.29307,-4.44593c2.90473,0.02176 5.24442,2.04755 5.22586,4.52473z" data-paper-data="{&quot;origPos&quot;:null,&quot;origRot&quot;:0}" fill="#26c000" stroke="#000000" stroke-width="2" stroke-linecap="butt"/><path d="M245.17182,196.16974c-0.01856,2.47718 -10.5375,2.39838 -10.51894,-0.07881c0.01856,-2.47718 2.38834,-4.46769 5.29307,-4.44593c2.90472,0.02176 5.24442,2.04755 5.22586,4.52473z" data-paper-data="{&quot;origPos&quot;:null,&quot;origRot&quot;:0}" fill="#26c000" stroke="#000000" stroke-width="2" stroke-linecap="butt"/><path d="M243.02452,197.58597l-1.01016,-7.34243c0,0 -3.43577,0.15029 -4.71932,0.13345c-0.96032,-0.0126 -2.37984,-4.37725 -2.37984,-4.37725c0,0 2.85948,-0.74178 4.10465,-0.23151c1.4789,0.60606 2.62128,2.22495 2.62128,2.22495c0,0 0.22863,-0.04852 0.25006,-0.63408c0.13944,-3.8094 1.86294,-9.70602 1.86294,-9.70602l3.76414,0.13778c0,0 -1.85709,5.80148 -1.98479,9.29038c-0.0254,0.69392 0.04267,0.95751 0.04267,0.95751c0,0 2.62631,-1.84817 3.71235,-2.01478c1.37992,-0.2117 3.75047,0.85962 3.75047,0.85962c0,0 -2.19013,3.29647 -3.53854,3.7258c-1.09322,0.34807 -3.80075,-0.1144 -3.80075,-0.1144l1.089,7.22877z" data-paper-data="{&quot;origPos&quot;:null,&quot;origRot&quot;:0}" fill="#2fe500" stroke="#000000" stroke-width="1.5" stroke-linecap="butt"/><path d="M243.23542,197.90402c0.25541,2.73415 -11.86836,4.24671 -12.12377,1.51257c-0.25541,-2.73415 2.6502,-5.62143 5.85625,-5.92091c3.20605,-0.29948 6.01211,1.6742 6.26752,4.40835z" data-paper-data="{&quot;origPos&quot;:null,&quot;origRot&quot;:0}" fill="#2fe500" stroke="#000000" stroke-width="2" stroke-linecap="butt"/><path d="M256.0693,199.29058c0,2.688 -12.27022,2.43118 -12.27022,-0.25682c0,-2.688 2.55515,-4.86705 5.70708,-4.86705c3.15193,0 6.56315,2.43587 6.56315,5.12387z" data-paper-data="{&quot;origPos&quot;:null}" fill="#2fe500" stroke="#000000" stroke-width="2" stroke-linecap="butt"/><path d="M251.33242,200.30266c0,3.01056 -12.78387,3.01056 -12.78387,0c0,-3.01056 2.86177,-5.4511 6.39193,-5.4511c3.53016,0 6.39193,2.44054 6.39193,5.4511z" data-paper-data="{&quot;origPos&quot;:null}" fill="#2fe500" stroke="#000000" stroke-width="2" stroke-linecap="butt"/><path d="M268.14843,175.7992c-1.88259,1.29354 -5.39189,-0.33991 -6.96727,-1.58786c-1.79241,-1.41987 -3.54763,-3.53144 -1.70696,-5.30013c1.20913,-1.16184 3.92314,-0.72196 6.06191,0.98249c2.13877,1.70446 3.97591,4.96854 2.61233,5.90548z" data-paper-data="{&quot;origPos&quot;:null,&quot;origRot&quot;:0,&quot;index&quot;:null}" fill="url(#color-1)" stroke="#000000" stroke-width="1.5" stroke-linecap="butt"/><path d="M270.38042,157.11056c0.99976,2.35643 -1.9011,5.36077 -3.80962,6.53282c-2.17143,1.33352 -5.14731,2.39185 -6.71846,-0.08507c-1.03207,-1.62708 0.24148,-4.23317 2.84455,-5.82087c2.60307,-1.58769 6.95937,-2.33369 7.68352,-0.62689z" data-paper-data="{&quot;origPos&quot;:null,&quot;origRot&quot;:0,&quot;index&quot;:null}" fill="url(#color-2)" stroke="#000000" stroke-width="1.5" stroke-linecap="butt"/><path d="M265.1425,157.63064c-1.93389,2.08125 -4.69169,3.0483 -6.15972,2.15998c-2.2348,-1.3523 -0.77338,-3.75281 0.84883,-5.48868c1.42581,-1.52568 4.80401,-3.81048 6.99884,-2.92815c1.58975,0.6391 0.24594,4.17559 -1.68796,6.25684z" data-paper-data="{&quot;origPos&quot;:null,&quot;origRot&quot;:0}" fill="url(#color-3)" stroke="#000000" stroke-width="1" stroke-linecap="butt"/><path d="M231.85757,174.77785c1.85679,-2.00978 4.39856,-2.68135 5.67722,-1.50002c1.94651,1.79834 0.49947,4.22489 -1.05753,5.89985c-1.3685,1.47215 -4.5404,3.50141 -6.47573,2.22412c-1.40179,-0.92517 -0.00074,-4.61418 1.85604,-6.62393z" data-paper-data="{&quot;origPos&quot;:null,&quot;origRot&quot;:0}" fill="url(#color-4)" stroke="#000000" stroke-width="1.5" stroke-linecap="butt"/><path d="M263.27001,180.47842c-2.37459,0.74935 -5.63439,-1.75444 -6.94935,-3.37478c-1.49609,-1.84355 -2.75316,-4.34434 -0.28611,-5.56301c1.62059,-0.80053 4.37914,0.34178 6.1614,2.55143c1.78225,2.20965 2.79401,5.8436 1.07407,6.38635z" data-paper-data="{&quot;origPos&quot;:null,&quot;origRot&quot;:0,&quot;index&quot;:null}" fill="url(#color-5)" stroke="#000000" stroke-width="1.5" stroke-linecap="butt"/><path d="M233.82742,153.12442c1.78571,2.22902 2.08367,4.95697 0.66552,6.09309c-2.15885,1.7295 -4.43847,-0.1414 -5.92521,-2.00894c-1.30672,-1.64143 -2.90806,-5.2309 -1.28875,-7.02987c1.1729,-1.30302 4.76272,0.71671 6.54843,2.94573z" data-paper-data="{&quot;origPos&quot;:null,&quot;origRot&quot;:0}" fill="url(#color-6)" stroke="#000000" stroke-width="1.5" stroke-linecap="butt"/><path d="M230.64416,157.13218c1.91308,2.38802 2.23229,5.31056 0.713,6.52771c-2.31284,1.85287 -4.75506,-0.15149 -6.34784,-2.15223c-1.39994,-1.75849 -3.11548,-5.60401 -1.38067,-7.53132c1.25655,-1.39597 5.10244,0.76783 7.01552,3.15585z" data-paper-data="{&quot;origPos&quot;:null,&quot;origRot&quot;:0}" fill="url(#color-7)" stroke="#000000" stroke-width="1.5" stroke-linecap="butt"/><path d="M256.47758,184.0442c-2.55981,0.4398 -5.5129,-2.45278 -6.60718,-4.22368c-1.24503,-2.01486 -2.13999,-4.64984 0.58938,-5.54239c1.79293,-0.58631 4.44699,0.895 5.92802,3.3086c1.48104,2.4136 1.94389,6.13892 0.08977,6.45748z" data-paper-data="{&quot;origPos&quot;:null,&quot;origRot&quot;:0,&quot;index&quot;:null}" fill="url(#color-8)" stroke="#000000" stroke-width="1.5" stroke-linecap="butt"/><path d="M228.85566,169.91846c2.79728,-1.18485 5.676,-0.70265 6.42982,1.07704c1.14756,2.70923 -1.42563,4.50306 -3.76657,5.48616c-2.05749,0.86407 -6.19433,1.46756 -7.56872,-0.70936c-0.9955,-1.57677 2.10817,-4.66899 4.90544,-5.85384z" data-paper-data="{&quot;origPos&quot;:null,&quot;origRot&quot;:0}" fill="url(#color-9)" stroke="#000000" stroke-width="1.5" stroke-linecap="butt"/><path d="M237.36708,177.07951c1.36205,-2.37157 3.72411,-3.77873 5.27577,-3.14297c2.36214,0.96781 1.50646,3.57692 0.36182,5.55646c-1.00602,1.73985 -3.66869,4.54941 -5.89508,4.03885c-1.6126,-0.36979 -1.1046,-4.08077 0.25745,-6.45234z" data-paper-data="{&quot;origPos&quot;:null,&quot;origRot&quot;:0}" fill="url(#color-10)" stroke="#000000" stroke-width="1.5" stroke-linecap="butt"/><path d="M261.14499,153.73487c-1.58851,2.29535 -4.16213,3.58539 -5.74834,2.88139c-2.4147,-1.07169 -1.34182,-3.6267 -0.00779,-5.54226c1.17251,-1.68363 4.15557,-4.35435 6.45838,-3.74362c1.66796,0.44233 0.88625,4.10915 -0.70227,6.40449z" data-paper-data="{&quot;origPos&quot;:null,&quot;origRot&quot;:0}" fill="url(#color-11)" stroke="#000000" stroke-width="1" stroke-linecap="butt"/><path d="M238.60854,151.60759c1.34943,2.85545 1.17251,5.77082 -0.39519,6.5117c-2.38653,1.12784 -4.27554,-1.50845 -5.39704,-3.89796c-0.98571,-2.10016 -1.92438,-6.30736 -0.04867,-7.6727c1.35859,-0.98894 4.49147,2.20351 5.84091,5.05894z" data-paper-data="{&quot;origPos&quot;:null,&quot;origRot&quot;:0}" fill="url(#color-12)" stroke="#000000" stroke-width="1.5" stroke-linecap="butt"/><path d="M255.9619,151.32988c-1.60138,2.79213 -4.34222,4.43492 -6.12184,3.66925c-2.70916,-1.16557 -1.68815,-4.24312 -0.34257,-6.57362c1.18265,-2.04833 4.28869,-5.34672 6.84751,-4.72307c1.85339,0.45171 1.21829,4.8353 -0.38309,7.62746z" data-paper-data="{&quot;origPos&quot;:null,&quot;origRot&quot;:0}" fill="url(#color-13)" stroke="#000000" stroke-width="1.5" stroke-linecap="butt"/><path d="M243.87057,148.14488c1.04938,2.84769 0.44594,5.55752 -1.34785,6.05258c-2.73067,0.75364 -4.39238,-1.95725 -5.2622,-4.33928c-0.76451,-2.0936 -1.17993,-6.15594 1.03409,-7.1971c1.60364,-0.75412 4.52657,2.63611 5.57595,5.48381z" data-paper-data="{&quot;origPos&quot;:null,&quot;origRot&quot;:0}" fill="url(#color-14)" stroke="#000000" stroke-width="1.5" stroke-linecap="butt"/><path d="M241.58955,177.85656c0.05265,-3.56156 1.93223,-6.42164 4.19817,-6.38812c3.44947,0.051 4.15617,3.66033 4.10302,6.63688c-0.04671,2.61613 -1.35693,7.33964 -4.34268,7.78389c-2.16262,0.32178 -4.01117,-4.47108 -3.95851,-8.03263z" data-paper-data="{&quot;origPos&quot;:null,&quot;origRot&quot;:0}" fill="url(#color-15)" stroke="#000000" stroke-width="1.5" stroke-linecap="butt"/><path d="M227.94057,161.91539c3.56156,0.05265 6.42164,1.93223 6.38812,4.19817c-0.051,3.44947 -3.66033,4.15617 -6.63688,4.10302c-2.61613,-0.04671 -7.33964,-1.35693 -7.78389,-4.34268c-0.32178,-2.16262 4.47108,-4.01117 8.03263,-3.95851z" data-paper-data="{&quot;origPos&quot;:null,&quot;origRot&quot;:0}" fill="url(#color-16)" stroke="#000000" stroke-width="1.5" stroke-linecap="butt"/><path d="M264.57372,169.97614c-3.56156,-0.05265 -6.42246,-1.87629 -6.38998,-4.07322c0.04944,-3.3444 3.65843,-4.02796 6.63499,-3.9751c2.61613,0.04646 7.34022,1.31891 7.78581,4.21395c0.32275,2.09692 -4.46925,3.88701 -8.03081,3.83436z" data-paper-data="{&quot;origPos&quot;:null,&quot;origRot&quot;:0}" fill="url(#color-17)" stroke="#000000" stroke-width="1.5" stroke-linecap="butt"/><path d="M250.08841,149.45075c-0.05265,3.56156 -1.68047,6.42535 -3.63585,6.39644c-2.97668,-0.044 -3.57923,-3.65181 -3.52735,-6.62838c0.0456,-2.61615 1.18586,-7.34217 3.76337,-7.79246c1.86692,-0.32615 3.45247,4.46282 3.39982,8.02438z" data-paper-data="{&quot;origPos&quot;:null,&quot;origRot&quot;:0}" fill="url(#color-18)" stroke="#000000" stroke-width="1.5" stroke-linecap="butt"/><path d="M247.12315,150.6061c6.68975,0.09889 18.33582,7.86438 18.24935,14.55427c-0.111,8.58715 -10.69882,14.15637 -19.28236,14.42904c-8.41128,0.26719 -18.89023,-6.3843 -18.8037,-14.79939c0.06956,-6.76529 10.20614,-14.32629 19.83669,-14.18392z" data-paper-data="{&quot;origPos&quot;:null,&quot;origRot&quot;:0}" fill="url(#color-19)" stroke="#000000" stroke-width="2" stroke-linecap="butt"/><path d="M243.19746,160.85515c0.00208,2.59288 -1.23499,4.76508 -2.76307,4.85172c-1.52806,0.08666 -2.76854,-1.94506 -2.77061,-4.53793c-0.00208,-2.59288 1.23499,-4.76508 2.76307,-4.85172c1.52806,-0.08666 2.76852,1.94506 2.7706,4.53792z" data-paper-data="{&quot;origPos&quot;:null,&quot;origRot&quot;:0}" fill="#000000" stroke="none" stroke-width="0" stroke-linecap="butt"/><path d="M255.51343,161.14851c0.00208,2.59288 -1.23499,4.76508 -2.76307,4.85172c-1.52806,0.08666 -2.76854,-1.94506 -2.77061,-4.53793c-0.00208,-2.59288 1.23499,-4.76508 2.76307,-4.85172c1.52806,-0.08666 2.76852,1.94506 2.7706,4.53792z" data-paper-data="{&quot;origPos&quot;:null,&quot;origRot&quot;:0}" fill="#000000" stroke="none" stroke-width="0" stroke-linecap="butt"/><path d="M259.05298,169.80502c0,0 -7.81197,3.34397 -13.02338,3.0004c-5.1399,-0.33886 -11.97061,-3.36987 -11.97061,-3.36987" data-paper-data="{&quot;origPos&quot;:null,&quot;origRot&quot;:0}" fill="none" stroke="#000000" stroke-width="1.5" stroke-linecap="round"/><path d="M241.04092,159.51148c0.00086,1.05134 -0.50076,1.93212 -1.12035,1.96724c-0.6196,0.03513 -1.12256,-0.78867 -1.12341,-1.84001c-0.00086,-1.05134 0.50076,-1.93212 1.12035,-1.96724c0.6196,-0.03513 1.12256,0.78867 1.12341,1.84001z" data-paper-data="{&quot;origPos&quot;:null,&quot;origRot&quot;:0}" fill="#ffffff" stroke="none" stroke-width="0" stroke-linecap="butt"/><path d="M253.15141,159.79006c0.00086,1.05134 -0.50076,1.93212 -1.12035,1.96724c-0.6196,0.03513 -1.12256,-0.78867 -1.12341,-1.84001c-0.00086,-1.05134 0.50076,-1.93212 1.12035,-1.96724c0.6196,-0.03513 1.12256,0.78867 1.12341,1.84001z" data-paper-data="{&quot;origPos&quot;:null,&quot;origRot&quot;:0}" fill="#ffffff" stroke="none" stroke-width="0" stroke-linecap="butt"/></g></g></svg>