<svg version="1.1" xmlns="http://www.w3.org/2000/svg" xmlns:xlink="http://www.w3.org/1999/xlink" width="96.5" height="47.4"><defs><linearGradient x1="242" y1="180" x2="312.8" y2="180" gradientUnits="userSpaceOnUse" id="color-1"><stop offset="0" stop-color="#000000"/><stop offset="1" stop-color="#000000" stop-opacity="0"/></linearGradient><radialGradient cx="237.92105" cy="177.42731" r="23.7" gradientUnits="userSpaceOnUse" id="color-2"><stop offset="0" stop-color="#ffffff"/><stop offset="1" stop-color="#ffffff" stop-opacity="0"/></radialGradient><linearGradient x1="240" y1="173.3" x2="240" y2="186.7" gradientUnits="userSpaceOnUse" id="color-3"><stop offset="0" stop-color="#ffe946"/><stop offset="1" stop-color="#fadd00"/></linearGradient></defs><g transform="translate(-216.3,-156.3)"><g data-paper-data="{&quot;isPaintingLayer&quot;:true}" fill="none" fill-rule="nonzero" stroke="none" stroke-width="none" stroke-linecap="butt" stroke-linejoin="miter" stroke-miterlimit="10" stroke-dasharray="" stroke-dashoffset="0" font-family="none" font-weight="none" font-size="none" text-anchor="none" style="mix-blend-mode: normal"><path d="M242,188.32222c0,-2.78388 0,-10.30983 0,-16.90864c0,-0.82485 1.5935,-2.11358 2.61342,-2.11358c25.68349,0 63.02913,0 65.81074,0c0.9272,0 2.37584,0.96655 2.37584,1.58519c0,1.85592 0,10.63201 0,17.43704c0,0.92796 -1.15891,2.37778 -1.90067,2.37778c-2.22528,0 -40.85157,0 -66.99866,0c-0.74176,0 -1.90067,-1.44982 -1.90067,-2.37778z" data-paper-data="{&quot;origPos&quot;:null}" fill="url(#color-1)" stroke="none" stroke-width="none"/><path d="M238.02492,174.69049l20.68285,-2.93318l-17.13268,11.95219l-20.68285,2.93318z" data-paper-data="{&quot;origRot&quot;:0,&quot;origPos&quot;:null}" fill="#fff291" stroke="none" stroke-width="0"/><path d="M235.29049,180.97509l-2.93318,-20.68286l11.95219,17.13269l2.93318,20.68285z" data-paper-data="{&quot;origRot&quot;:0,&quot;origPos&quot;:null}" fill="#fff291" stroke="none" stroke-width="0"/><path d="M237.86647,183.64388l-16.69905,-12.55092l20.56612,3.66316l16.69905,12.55092z" data-paper-data="{&quot;origRot&quot;:0,&quot;origPos&quot;:null}" fill="#fff291" stroke="none" stroke-width="0"/><path d="M235.35612,177.26647l12.55092,-16.69905l-3.66316,20.56612l-12.55092,16.69905z" data-paper-data="{&quot;origRot&quot;:0,&quot;origPos&quot;:null}" fill="#fff291" stroke="none" stroke-width="0"/><path d="M216.3,180c0,-13.08915 10.61085,-23.7 23.7,-23.7c13.08915,0 23.7,10.61085 23.7,23.7c0,13.08915 -10.61085,23.7 -23.7,23.7c-13.08915,0 -23.7,-10.61085 -23.7,-23.7z" data-paper-data="{&quot;origPos&quot;:null}" fill="url(#color-2)" stroke="none" stroke-width="0"/><path d="M236.57315,176.57315l17.79517,-10.94147l-10.94147,17.79517l-17.79517,10.94147z" data-paper-data="{&quot;origRot&quot;:0,&quot;origPos&quot;:null}" fill="#ffec5f" stroke="none" stroke-width="0"/><path d="M236.57315,183.42685l-10.94147,-17.79517l17.79517,10.94147l10.94147,17.79517z" data-paper-data="{&quot;origRot&quot;:0,&quot;origPos&quot;:null}" fill="#ffec5f" stroke="none" stroke-width="0"/><path d="M240,184.8463l-20.31987,-4.8463l20.31987,-4.8463l20.31988,4.8463z" data-paper-data="{&quot;origRot&quot;:0,&quot;origPos&quot;:null}" fill="#ffec5f" stroke="none" stroke-width="0"/><path d="M235.1537,180l4.8463,-20.31987l4.8463,20.31987l-4.8463,20.31987z" data-paper-data="{&quot;origRot&quot;:0,&quot;origPos&quot;:null}" fill="#ffec5f" stroke="none" stroke-width="0"/><path d="M233.3,180c0,-3.70031 2.99969,-6.7 6.7,-6.7c3.70031,0 6.7,2.99969 6.7,6.7c0,3.70031 -2.99969,6.7 -6.7,6.7c-3.70031,0 -6.7,-2.99969 -6.7,-6.7z" data-paper-data="{&quot;origPos&quot;:null}" fill="url(#color-3)" stroke="#f4d700" stroke-width="1"/></g></g></svg>