<svg version="1.1" xmlns="http://www.w3.org/2000/svg" xmlns:xlink="http://www.w3.org/1999/xlink" width="79.00599" height="59.28511" viewBox="0,0,79.00599,59.28511"><defs><linearGradient x1="239.53374" y1="191.00523" x2="239.53374" y2="207.4082" gradientUnits="userSpaceOnUse" id="color-1"><stop offset="0" stop-color="#24693c"/><stop offset="1" stop-color="#4ecc71"/></linearGradient><radialGradient cx="239.44776" cy="176.9576" r="21.1235" gradientUnits="userSpaceOnUse" id="color-2"><stop offset="0" stop-color="#b3fa98"/><stop offset="1" stop-color="#05ac26"/></radialGradient><radialGradient cx="227.68298" cy="154.15046" r="14.99911" gradientUnits="userSpaceOnUse" id="color-3"><stop offset="0" stop-color="#036617"/><stop offset="1" stop-color="#037019"/></radialGradient><radialGradient cx="240.54467" cy="175.79695" r="6.67932" gradientUnits="userSpaceOnUse" id="color-4"><stop offset="0" stop-color="#adeba3"/><stop offset="1" stop-color="#32c144"/></radialGradient><linearGradient x1="235.72659" y1="184.38685" x2="235.72659" y2="202.18805" gradientUnits="userSpaceOnUse" id="color-5"><stop offset="0" stop-color="#a8d9ab"/><stop offset="1" stop-color="#50d844"/></linearGradient><radialGradient cx="238.70778" cy="177.26331" r="11.33088" gradientUnits="userSpaceOnUse" id="color-6"><stop offset="0" stop-color="#a5f48f"/><stop offset="1" stop-color="#32c144"/></radialGradient><linearGradient x1="247.9057" y1="165.67427" x2="247.9057" y2="183.2892" gradientUnits="userSpaceOnUse" id="color-7"><stop offset="0" stop-color="#baffa7"/><stop offset="1" stop-color="#82ff63"/></linearGradient><radialGradient cx="196.74595" cy="156.06577" r="10.59119" gradientUnits="userSpaceOnUse" id="color-8"><stop offset="0" stop-color="#c8d6ca"/><stop offset="1" stop-color="#05ad27"/></radialGradient><radialGradient cx="191.28468" cy="160.35086" r="9.57427" gradientUnits="userSpaceOnUse" id="color-9"><stop offset="0" stop-color="#83dd6c"/><stop offset="1" stop-color="#28bd46"/></radialGradient><radialGradient cx="202.46987" cy="159.84662" r="7.29369" gradientUnits="userSpaceOnUse" id="color-10"><stop offset="0" stop-color="#83dd6c"/><stop offset="1" stop-color="#5dc572"/></radialGradient><linearGradient x1="195.76635" y1="159.74857" x2="197.75139" y2="172.19122" gradientUnits="userSpaceOnUse" id="color-11"><stop offset="0" stop-color="#53db7a"/><stop offset="1" stop-color="#24693c"/></linearGradient></defs><g transform="translate(-184.57654,-148.61005)"><g data-paper-data="{&quot;isPaintingLayer&quot;:true}" fill="none" fill-rule="nonzero" stroke="none" stroke-width="none" stroke-linecap="none" stroke-linejoin="miter" stroke-miterlimit="10" stroke-dasharray="" stroke-dashoffset="0" font-family="none" font-weight="none" font-size="none" text-anchor="none" style="mix-blend-mode: normal"><path d="M263.08254,196.78897c0,2.05192 -4.15177,5.3969 -5.58121,5.1516c-2.05713,-0.35301 -6.82591,-4.94385 -6.82591,-4.94385c0,0 3.67193,2.47919 4.71112,4.47218c1.02077,1.95763 1.49382,5.11132 -0.53074,5.66005c-0.76179,0.20647 -2.10247,-4.07958 -2.83137,-3.76452c-0.47569,0.20562 -0.18681,0.90011 -0.3709,1.41446c-0.45137,1.26101 -0.60918,2.07082 -1.86424,2.1474c-2.3719,0.14472 -1.12735,-3.82453 -3.39987,-3.08021c-1.24647,0.40825 -1.03062,1.11468 -2.02291,2.02242c-1.95153,1.78521 -2.45017,1.52666 -5.01284,1.52666c-3.14278,0 -6.54456,-6.82012 -6.54456,-6.82012c0,0 -8.63342,5.80446 -13.24292,3.40515c-1.72385,-0.89729 0.98106,-3.69416 2.48391,-4.97045c1.26938,-1.07803 3.89717,-1.43148 3.89717,-1.43148c0,0 -4.63197,1.0473 -6.61334,0.24077c-1.6733,-0.68114 -3.34903,-2.29397 -3.34903,-4.2171c0,-1.27932 7.31813,-0.1749 7.31813,-0.1749c0,0 -3.68658,-1.47362 -2.1124,-1.93843c6.43137,-1.899 29.39168,2.37702 31.50338,2.86475c0.70392,0.16258 6.58746,-1.36996 7.03108,-0.76049c0.68006,0.93429 -2.4889,3.70814 -2.4889,3.70814c0,0 5.84631,-4.13562 5.84631,-0.51203z" data-paper-data="{&quot;origPos&quot;:null}" fill="url(#color-1)" stroke="#0f2c13" stroke-width="1" stroke-linecap="butt"/><path d="M220.1034,178.2123v-2.76629h2.48966v2.76629z" data-paper-data="{&quot;origPos&quot;:null}" fill="#1c5324" stroke="none" stroke-width="0" stroke-linecap="butt"/><path d="M261.91767,183.42851c0,10.93456 -8.99461,19.79877 -21.44564,19.79877c-12.45103,0 -19.79723,-8.86421 -19.79723,-19.79877c0,-7.64184 2.01,-10.17069 5.5737,-11.53488c2.58033,-0.98775 1.24441,-4.30197 1.97099,-6.96765c0.41142,-1.50942 1.75869,-3.1986 3.09877,-2.39126c2.06409,1.24351 4.72968,3.87391 4.72968,3.87391c0,0 0.57469,-4.51695 2.76081,-2.96485c2.45507,1.74304 4.36004,2.4601 6.20977,4.22577c0,0 16.89917,4.82442 16.89917,15.75897z" data-paper-data="{&quot;origPos&quot;:null}" fill="url(#color-2)" stroke="#000000" stroke-width="1.5" stroke-linecap="butt"/><path d="M251.59719,189.55398c0.27631,2.25701 -0.57066,4.27901 -1.89177,4.51621c-1.32109,0.23722 -2.61607,-1.40018 -2.89238,-3.6572c-0.27631,-2.25701 0.57066,-4.27901 1.89177,-4.51621c1.32109,-0.23722 2.61606,1.40018 2.89236,3.65718z" data-paper-data="{&quot;origPos&quot;:null,&quot;origRot&quot;:0}" fill="#000000" stroke="none" stroke-width="0" stroke-linecap="butt"/><path d="M257.40952,187.64667c0.1873,1.70267 -0.46932,3.21789 -1.46663,3.38437c-0.99732,0.16648 -1.95762,-1.07881 -2.14493,-2.78149c-0.1873,-1.70267 0.46931,-3.21789 1.46663,-3.38437c0.99732,-0.16648 1.95764,1.07882 2.14495,2.78148z" data-paper-data="{&quot;origPos&quot;:null,&quot;origRot&quot;:0}" fill="#000000" stroke="none" stroke-width="0" stroke-linecap="butt"/><path d="M236.49967,167.23998c0.25775,-1.14166 2.08853,-1.65886 2.09998,-1.639c0.93891,-0.19312 1.14318,0.2274 1.32616,0.67349c0.54893,1.33828 4.80687,4.47894 4.80687,4.47894c0,0 -8.74491,-1.24605 -8.233,-3.51343z" data-paper-data="{&quot;origPos&quot;:null,&quot;index&quot;:null}" fill="#287732" stroke="none" stroke-width="0" stroke-linecap="butt"/><path d="M233.36357,168.06134l-6.68772,-12.31385c0,0 -2.77881,-0.60041 -4.92078,0.38126c-5.29949,2.42873 -13.4828,8.25146 -13.4828,8.25146l1.02021,-3.37969c0,0 5.77231,-4.17461 9.72167,-6.16057c3.79887,-1.9103 9.45846,-2.35324 9.45846,-2.35324l10.89539,16.39514z" data-paper-data="{&quot;origPos&quot;:null,&quot;origRot&quot;:0}" fill="url(#color-3)" stroke="#0f2c13" stroke-width="0.5" stroke-linecap="butt"/><path d="M236.59668,179.00103c0,0 -2.63452,-7.47561 0.96309,-10.59354c1.43488,0.15828 1.60014,0.89355 3.0642,0.72308c0.81057,-0.09438 -1.46494,-3.29987 -0.66246,-3.44803c1.27805,-0.23595 3.27113,0.61558 4.37005,1.30947c1.95379,1.23368 4.57485,2.6996 4.57485,2.6996c0,0 -1.08007,3.52708 -4.53169,6.51848c-2.04149,1.76929 -7.77805,2.79093 -7.77805,2.79093z" data-paper-data="{&quot;origPos&quot;:null}" fill="url(#color-4)" stroke="#256d2f" stroke-width="0.5" stroke-linecap="butt"/><path d="M249.79674,189.00967c0.12534,1.02387 -0.25887,1.94112 -0.85818,2.04873c-0.5993,0.10761 -1.18675,-0.63518 -1.3121,-1.65905c-0.12534,-1.02387 0.25887,-1.94112 0.85818,-2.04873c0.5993,-0.10761 1.18675,0.63518 1.31209,1.65904z" data-paper-data="{&quot;origPos&quot;:null,&quot;origRot&quot;:0}" fill="#ffffff" stroke="none" stroke-width="0" stroke-linecap="butt"/><path d="M255.83935,186.91088c0.06388,0.58064 -0.16005,1.09738 -0.50016,1.15416c-0.3401,0.05678 -0.6676,-0.3679 -0.73148,-0.94855c-0.06388,-0.58064 0.16005,-1.09738 0.50016,-1.15416c0.3401,-0.05678 0.6676,0.36791 0.73147,0.94855z" data-paper-data="{&quot;origPos&quot;:null,&quot;origRot&quot;:0}" fill="#ffffff" stroke="none" stroke-width="0" stroke-linecap="butt"/><path d="M229.98163,172.01354c0,0 -0.55754,-5.62866 -0.00861,-6.96693c0.18297,-0.44609 0.38725,-1.2679 1.32616,-1.07479c0.01145,-0.01986 1.84223,0.65787 2.09998,1.79953c0.51191,2.26738 -0.09945,0.78465 -0.09945,0.78465z" data-paper-data="{&quot;origPos&quot;:null}" fill="#287732" stroke="none" stroke-width="0" stroke-linecap="butt"/><path d="M241.51442,184.95642c0,0 0.93421,-5.58829 2.6088,-5.43198c3.45629,0.32262 5.34225,4.18081 5.34225,4.18081c0,0 -2.89307,-1.30844 -4.27587,-1.09085c-1.72021,0.27069 -3.67519,2.34203 -3.67519,2.34203z" data-paper-data="{&quot;origPos&quot;:null,&quot;origRot&quot;:0}" fill="#05ac26" stroke="#000000" stroke-width="0.5" stroke-linecap="butt"/><path d="M253.59425,182.71463c0,0 0.41036,-3.54152 2.10412,-4.47537c1.59787,-0.88099 4.53939,3.47214 4.53939,3.47214c0,0 -2.17156,-1.31281 -3.62007,-1.13963z" data-paper-data="{&quot;origPos&quot;:null,&quot;index&quot;:null,&quot;origRot&quot;:0}" fill="#05ac26" stroke="#000000" stroke-width="0.5" stroke-linecap="butt"/><path d="M229.86136,199.39582c-9.31009,-5.53335 -8.11532,-15.00897 -8.11532,-15.00897c0,0 1.81981,2.31614 3.48936,3.52113c2.89898,2.09231 5.27897,2.89868 8.35787,4.71589c1.07262,0.63307 3.30279,0.95609 4.27355,1.73642c1.04675,0.84142 1.19652,2.00265 1.97062,3.10012c0.56076,0.79502 1.20418,0.69842 2.0726,1.13699c2.90936,1.46929 7.84692,1.93282 7.84692,1.93282c0,0 -10.58552,4.39896 -19.89561,-1.1344z" data-paper-data="{&quot;origPos&quot;:null}" fill="url(#color-5)" stroke="#287732" stroke-width="0" stroke-linecap="butt"/><path d="M221.68842,187.62292c0,0 -3.00232,-6.46052 -1.58566,-10.2539c1.41666,-3.79338 4.8755,-1.86825 6.53757,-3.25475c1.74595,-1.45648 2.05743,-1.46541 3.58711,-3.14758c1.16773,-1.28413 0.86266,-4.12853 2.27962,-5.13093c0.98323,-0.69556 1.83235,0.20503 3.01285,0.44367c1.28933,0.26065 1.39079,4.53554 1.39079,4.53554c0,0 2.8819,-0.5568 2.45728,1.61144c-0.36576,1.86766 -1.56142,1.1313 -1.46001,3.03173c0.12208,2.28781 2.62791,-0.32607 2.40496,1.95412c-0.34608,3.53952 -0.64725,5.21747 -2.87368,7.99074c0,0 -5.58084,2.08811 -8.55028,2.43162c-3.58542,0.41476 -7.20057,-0.2117 -7.20057,-0.2117z" data-paper-data="{&quot;origPos&quot;:null}" fill="url(#color-6)" stroke="#256d2f" stroke-width="0.5" stroke-linecap="butt"/><path d="M221.47519,191.65058c-0.85149,-2.00247 0.15365,-2.61351 -0.9124,-4.4285c-0.46515,-0.79192 -0.94529,-0.29208 -1.86052,-0.3686c-1.2454,-0.10412 -2.82906,-0.10366 -3.11169,-1.32102c-0.31664,-1.36387 1.97549,-3.24471 1.97549,-3.24471c0,0 -4.35351,-0.53149 -4.2109,-3.4209c0.14789,-2.99634 4.39419,-2.88916 4.79908,-3.57543c0.68145,-1.15502 -0.11278,-2.3673 1.19734,-2.65371c0.84219,-0.18411 2.56808,2.64809 2.48809,1.78973c-0.10361,-1.11184 3.38005,0.10913 3.38005,0.10913l-2.50833,1.55977c0,0 -2.30009,0.59751 -2.12232,2.5625c0.33825,3.73885 -0.33188,3.52498 2.19577,6.30066c1.24848,1.371 3.60019,4.96991 5.42925,4.50794c0.79843,1.63012 3.231,1.5975 4.82291,2.46963c2.0677,1.13279 5.18473,2.98496 5.18473,2.98496c0,0 -2.76568,-1.01359 -3.7827,-0.94741c-2.87468,0.18705 -2.3929,0.94412 -5.09793,-0.04664c-1.16457,-0.42654 -1.434,-1.5806 -2.62783,-1.91666c-2.72252,-0.76639 -4.3866,1.64173 -5.23809,-0.36074z" data-paper-data="{&quot;origPos&quot;:null}" fill="#98ff7e" stroke="#256d2f" stroke-width="1" stroke-linecap="butt"/><path d="M238.64795,183.28919c0,0 0.69879,-1.22861 0.88574,-2.00513c0.28768,-1.195 0.51884,-2.98108 0.51884,-2.98108c0.58946,-1.17823 1.26245,-1.47244 2.09619,-2.49252c0.76334,-0.93396 1.86932,-2.58927 1.86932,-2.58927c0.92736,-1.09263 5.04951,-4.02007 5.04951,-4.02007l-3.83903,-1.88383c0,0 1.30453,-0.60588 2.0238,-0.85441c4.12021,-1.42364 9.62608,-0.98029 9.90567,1.82523c0.17044,1.71032 -3.70296,0.00959 -5.52737,2.15914c-0.76893,0.90598 0.87117,3.10038 -0.10713,4.27832c-0.79921,0.96232 -3.74494,-1.77032 -4.55655,-0.81844c-0.57155,0.67033 -0.27083,3.03995 -0.93112,3.53602c-1.04513,0.78519 -0.99758,0.09774 -2.27006,-0.20165c-0.54188,-0.12749 -0.90285,0.19885 -1.29341,0.59554c-1.61237,1.63769 -0.14749,2.54106 -1.83057,4.106c-1.17858,1.09586 -1.99382,1.34616 -1.99382,1.34616z" data-paper-data="{&quot;origPos&quot;:null}" fill="url(#color-7)" stroke="#256d2f" stroke-width="1" stroke-linecap="butt"/><path d="M249.19411,167.39099c0,0 3.43929,0.15008 2.57216,0.6756c-2.87737,1.74381 -4.39911,1.73263 -6.84216,4.04599c-1.24998,1.18363 -2.27839,3.1478 -3.44673,4.41208c-3.2021,3.46504 -0.67287,5.91538 -4.41976,8.78257c-2.8054,2.14674 -10.26184,2.90022 -10.26184,2.90022" data-paper-data="{&quot;origPos&quot;:null}" fill="none" stroke="#287732" stroke-width="0.5" stroke-linecap="round"/><path d="M249.85235,200.48777c0,0 -2.5428,-0.35141 -4.26121,-0.82527c-1.84647,-0.50917 -3.08594,-1.02184 -4.81061,-1.85506c-2.99301,-1.44598 -0.75161,-2.17309 -3.65237,-3.79622c-4.11025,-2.2999 -9.16571,-4.12758 -12.74153,-7.19305c-2.63845,-2.26189 -4.88527,-6.40882 -3.2578,-9.43008c0.67873,-1.26003 1.56623,-1.41244 1.56623,-1.41244" data-paper-data="{&quot;origPos&quot;:null}" fill="none" stroke="#287732" stroke-width="0.5" stroke-linecap="round"/><path d="M209.16807,161.64365c0.12464,6.03038 -5.14575,11.03 -11.77175,11.16695c-6.626,0.13694 -12.09847,-4.64063 -12.2231,-10.67102c-0.12464,-6.03038 23.87024,-6.52633 23.99487,-0.49593z" data-paper-data="{&quot;origPos&quot;:null,&quot;origRot&quot;:0}" fill="#2e8149" stroke="#0f2c13" stroke-width="0.5" stroke-linecap="butt"/><path d="M186.26918,162.79391c-0.92152,-5.7763 2.97422,-11.45565 8.75053,-12.37717c5.7763,-0.92152 11.24579,3.26374 12.16731,9.04005c0.92152,5.7763 -2.97422,11.45565 -8.75053,12.37717c-5.7763,0.92152 -11.24579,-3.26374 -12.16731,-9.04005z" data-paper-data="{&quot;origPos&quot;:null,&quot;origRot&quot;:0}" fill="url(#color-8)" stroke="#000000" stroke-width="1" stroke-linecap="butt"/><path d="M204.98849,166.58854c-1.54166,2.31436 -2.18503,2.20897 -3.62239,2.41045c-2.74764,0.38517 -7.16181,-1.04661 -7.16181,-1.04661c0,0 4.15435,-1.54925 5.95355,-3.67209c1.60396,-1.89248 2.07268,-4.0675 1.02718,-6.31718c-0.6899,-1.4845 -1.94875,-2.34522 -2.23692,-3.95665c-0.16206,-0.90623 0.87719,-2.44324 0.87719,-2.44324c0,0 0.67056,0.63788 2.40975,1.29333c1.16756,0.44001 1.9188,1.88753 2.74591,2.82169c1.12382,1.26923 1.22094,2.55556 1.48801,4.22966c0.60169,3.77154 -0.03945,4.5173 -1.4805,6.68061z" data-paper-data="{&quot;origPos&quot;:null,&quot;index&quot;:null,&quot;origRot&quot;:0}" fill="#27b33c" stroke="#1c802b" stroke-width="0.5" stroke-linecap="butt"/><path d="M186.97935,162.78728c-0.32387,-2.03007 -0.19266,-3.62967 0.62358,-5.51643c0.60076,-1.38866 1.50549,-2.91619 2.68502,-3.86383c1.75705,-1.41163 4.69095,-2.26545 4.69095,-2.26545c0,0 -2.43966,5.69806 -2.64381,7.41069c-0.35606,2.98715 1.00478,5.31692 3.56734,6.89271c2.8745,1.76761 8.24675,1.98555 8.24675,1.98555c0,0 -3.63957,4.70903 -7.83547,3.82929c0,0 -3.13591,-0.36843 -4.95389,-1.66702c-2.32778,-1.66271 -3.65083,-2.23196 -4.38047,-6.80551z" data-paper-data="{&quot;origPos&quot;:null,&quot;origRot&quot;:0}" fill="#27b33c" stroke="#1c802b" stroke-width="0.5" stroke-linecap="butt"/><path d="M192.24358,159.94184c0,0 2.40463,-3.90712 4.02579,-4.18132c0.86197,-0.14579 1.12629,1.89577 1.8898,2.3216c0.74888,0.41769 0.65864,-0.74228 1.51597,-0.75804c0.3311,-0.00609 1.46051,1.11379 1.46051,1.11379" data-paper-data="{&quot;origPos&quot;:null,&quot;origRot&quot;:0}" fill="none" stroke="#1c802b" stroke-width="0.5" stroke-linecap="round"/><path d="M197.33405,151.19258c0,0 -0.75972,0.80793 -0.85611,1.37212c-0.11147,0.65254 1.31863,0.80475 1.34423,1.46625c0.02402,0.62084 -1.2825,1.81167 -1.2825,1.81167" data-paper-data="{&quot;origPos&quot;:null,&quot;origRot&quot;:0}" fill="none" stroke="#1c802b" stroke-width="0.5" stroke-linecap="round"/><path d="M189.61301,161.6417c-0.07788,-1.3415 0.62415,-0.51197 1.12969,-1.75702c0.19209,-0.47306 -1.26032,-1.94276 -1.07572,-2.41881c0.42507,-1.09617 0.85688,-0.68255 1.59264,-1.59955c0.7908,-0.98558 -2.13817,-3.25118 -1.39693,-4.27457c0.62246,-0.8594 1.46411,0.66991 2.52334,0.60614c0.72594,-0.04371 -0.18426,-2.94595 0.42838,-3.33784c0.53207,-0.34034 0.67166,0.80399 1.09078,1.2765c0.17006,0.19175 0.93241,-1.01712 1.13882,-0.86518c0.21217,0.15618 1.19823,0.47413 1.17849,0.73686c-0.02268,0.30161 -0.71281,-0.16375 -0.97492,-0.0128c-0.29145,0.16786 -0.35011,0.9031 -0.35011,0.9031c0,0 -2.03943,4.38017 -2.49603,6.99003c-0.38952,2.22656 -0.15477,3.26287 0.94041,5.24024c1.68832,3.04825 6.36178,3.98681 6.36178,3.98681c0,0 -9.91707,-2.48441 -10.09062,-5.4739z" data-paper-data="{&quot;origPos&quot;:null,&quot;origRot&quot;:0}" fill="url(#color-9)" stroke="#256d2f" stroke-width="0.5" stroke-linecap="butt"/><path d="M200.96011,163.75733c0,0 1.72308,-3.64562 0.53469,-5.89381c-0.98619,-1.86564 -1.98222,-1.91438 -2.36021,-3.88276c-0.42694,-2.2233 0.87601,-3.12986 0.87601,-3.12986c0,0 -1.59219,-1.5193 -1.25343,-1.11913c0.4977,0.58793 1.26487,-1.02116 1.89081,-0.5722c0.43459,0.31173 0.08455,0.55297 0.59483,1.62637c0.1667,0.35066 1.07104,0.60468 1.11355,0.99061c0.08242,0.74804 -0.92975,1.15454 -1.00897,1.90293c-0.11143,1.05256 2.70445,2.02493 2.88546,3.06775c0.35113,2.02286 -0.23791,0.56171 -1.17849,2.17802c-0.84205,1.44703 1.23776,-0.0314 1.36631,1.63787c0.2026,2.63085 -3.46056,3.19419 -3.46056,3.19419z" data-paper-data="{&quot;origPos&quot;:null,&quot;origRot&quot;:0}" fill="url(#color-10)" stroke="#256d2f" stroke-width="0.5" stroke-linecap="butt"/><path d="M184.87806,163.55984c-0.08102,-0.63848 0.0414,-1.97955 0.0414,-1.97955c0,0 1.51698,0.9352 1.75411,1.32159c0.71139,1.15919 0.93737,2.75684 0.93737,2.75684c0,0 0.06145,-1.6625 2.12777,-1.40297c0.65772,0.08261 1.26508,1.97629 1.26508,1.97629c0,0 1.75885,-2.45042 3.03163,-1.54953c1.54379,1.09269 2.08886,2.76596 2.08886,2.76596c0,0 1.37841,-2.76463 2.31845,-2.72456c2.12552,0.09058 3.57344,0.87703 3.57344,0.87703c0,0 -1.96201,-0.66335 -1.10373,-2.46222c0.6326,-1.32586 3.97289,-0.83965 3.97289,-0.83965c0,0 -0.85642,-1.48566 -0.55267,-2.37802c0.40171,-1.1801 1.75261,-0.27097 1.75261,-0.27097l0.06989,-2.06521c0,0 2.53231,2.13872 2.81093,3.54321c0.37224,1.87646 -0.23971,3.44791 -1.03898,5.18597c-1.75853,3.824 -6.04637,6.57065 -10.25285,6.71537c-2.24112,0.07709 -3.6164,-0.44957 -5.7742,-1.05987c0,0 -3.22366,-1.40339 -4.73318,-3.41736c-1.12198,-1.49693 -2.04583,-3.07691 -2.28887,-4.99237z" data-paper-data="{&quot;origPos&quot;:null,&quot;origRot&quot;:0}" fill="url(#color-11)" stroke="#0f2c13" stroke-width="0.5" stroke-linecap="butt"/></g></g></svg>