<svg version="1.1" xmlns="http://www.w3.org/2000/svg" xmlns:xlink="http://www.w3.org/1999/xlink" width="61.73614" height="69.91913" viewBox="0,0,61.73614,69.91913"><g transform="translate(-209.00544,-137.77396)"><g data-paper-data="{&quot;isPaintingLayer&quot;:true}" fill="none" fill-rule="nonzero" stroke="none" stroke-width="none" stroke-linecap="butt" stroke-linejoin="miter" stroke-miterlimit="10" stroke-dasharray="" stroke-dashoffset="0" font-family="none" font-weight="none" font-size="none" text-anchor="none" style="mix-blend-mode: normal"><path d="M227.94912,161.73495c-1.781,1.47949 -6.6626,1.09921 -10.21642,-2.30907c-3.55382,-3.40826 -3.48713,-12.50069 -3.48713,-12.50069c0,0 3.66171,3.09331 4.60243,3.25333c0,0 5.32954,0.31722 7.1629,2.16232c2.41389,2.42934 3.71922,7.91462 1.93822,9.39411z" data-paper-data="{&quot;origRot&quot;:0,&quot;origPos&quot;:null}" fill="#26bd00" stroke="#000000" stroke-width="1"/><path d="M226.99392,162.0259c0.26794,2.30452 -2.21178,5.79902 -6.28618,6.35072c-4.07439,0.5517 -10.63299,-5.28427 -10.63299,-5.28427c0,0 3.89488,-0.83466 4.43559,-1.4529c0,0 2.63627,-3.8775 4.80111,-4.10686c2.85032,-0.302 7.41455,2.1888 7.68248,4.49332z" data-paper-data="{&quot;origRot&quot;:0,&quot;origPos&quot;:null}" fill="#26bd00" stroke="#000000" stroke-width="1"/><path d="M230.12097,154.70781c-2.20578,0.808 -6.50814,-0.71905 -8.40936,-4.47241c-1.90123,-3.75334 1.73369,-11.40717 1.73369,-11.40717c0,0 2.12342,3.51431 2.91842,3.88175c0,0 4.73566,1.58454 5.68234,3.59408c1.24645,2.64585 0.2807,7.59574 -1.92508,8.40374z" data-paper-data="{&quot;origRot&quot;:0,&quot;origPos&quot;:null}" fill="#26bd00" stroke="#000000" stroke-width="1"/><path d="M229.80127,191.73725c4.75499,-0.25064 8.70698,1.39207 8.82701,3.66911c0.12002,2.27704 -3.63736,4.32613 -8.39235,4.57677c-4.75499,0.25064 -8.82699,-3.66911 -8.82699,-3.66911c0,0 3.63734,-4.32613 8.39233,-4.57677z" data-paper-data="{&quot;origRot&quot;:0,&quot;origPos&quot;:null,&quot;index&quot;:null}" fill="#2bd900" stroke="#000000" stroke-width="1.5"/><path d="M256.49775,193.55312c0,0 -2.81929,4.8987 -7.45597,5.98219c-4.63668,1.08349 -8.81607,0.16188 -9.33493,-2.05851c-0.51886,-2.22038 2.8193,-4.89871 7.45598,-5.9822c4.63668,-1.08349 9.33492,2.05852 9.33492,2.05852z" data-paper-data="{&quot;origRot&quot;:0,&quot;origPos&quot;:null,&quot;index&quot;:null}" fill="#2bd900" stroke="#000000" stroke-width="1.5"/><path d="M236.23451,197.37491c0,0 0.13868,-7.11714 0.84705,-11.49466c0.55924,-3.45593 2.40103,-8.57758 2.40103,-8.57758l4.44221,0.71884c0,0 -2.33354,3.98709 -2.81075,6.93615c-0.79039,4.88438 -0.43733,13.13609 -0.43733,13.13609z" data-paper-data="{&quot;origPos&quot;:null,&quot;origRot&quot;:0}" fill="#a9ff59" stroke="#000000" stroke-width="2"/><path d="M260.97728,162.44562c0,8.78187 -8.21877,15.90098 -18.35715,15.90098c-10.13837,0 -18.35715,-7.11911 -18.35715,-15.90098c0,-8.78187 8.21877,-15.90097 18.35715,-15.90097c10.13837,0 18.35715,7.11911 18.35715,15.90097z" data-paper-data="{&quot;origPos&quot;:null}" fill="#a9ff59" stroke="#000000" stroke-width="3"/><path d="M247.95271,157.3603c0.63467,2.1835 0.12291,4.31513 -1.14306,4.76112c-1.26596,0.44599 -2.80674,-0.96254 -3.44141,-3.14604c-0.63467,-2.1835 -0.12291,-4.31513 1.14306,-4.76112c1.26596,-0.44599 2.80673,0.96254 3.4414,3.14604z" data-paper-data="{&quot;origPos&quot;:null,&quot;origRot&quot;:0}" fill="#000000" stroke="none" stroke-width="0"/><path d="M253.98932,156.56677c0.4781,1.64486 0.09259,3.25062 -0.86107,3.58659c-0.95367,0.33597 -2.11433,-0.72509 -2.59243,-2.36995c-0.4781,-1.64486 -0.0926,-3.25062 0.86107,-3.58659c0.95367,-0.33597 2.11434,0.72509 2.59244,2.36995z" data-paper-data="{&quot;origPos&quot;:null,&quot;origRot&quot;:0}" fill="#000000" stroke="none" stroke-width="0"/><path d="M269.63764,167.78076c-0.56287,5.68305 -4.15618,9.99226 -8.0259,9.62487c-3.86972,-0.36739 -6.55045,-5.27224 -5.98758,-10.9553c0.56287,-5.68305 4.15619,-9.99226 8.0259,-9.62487c3.86971,0.36739 6.55044,5.27225 5.98757,10.9553z" data-paper-data="{&quot;origPos&quot;:null,&quot;origRot&quot;:0}" fill="#a9ff59" stroke="#000000" stroke-width="2"/><path d="M261.61859,166.89056c-0.23084,2.80439 -1.54152,4.98914 -2.9275,4.87979c-1.38597,-0.10935 -2.3224,-2.47142 -2.09156,-5.2758c0.23084,-2.80438 1.54152,-4.98914 2.92749,-4.87978c1.38597,0.10935 2.32241,2.47141 2.09157,5.2758z" data-paper-data="{&quot;origRot&quot;:0,&quot;origPos&quot;:null}" fill="#84c746" stroke="none" stroke-width="0"/><path d="M229.39176,197.54538c4.72027,-2.2133 9.40601,-2.17512 10.4659,0.0853c1.05989,2.26041 -1.90743,5.88706 -6.6277,8.10036c-4.72027,2.2133 -10.46589,-0.0853 -10.46589,-0.0853c0,0 1.90742,-5.88706 6.62769,-8.10036z" data-paper-data="{&quot;origRot&quot;:0,&quot;origPos&quot;:null}" fill="#2fe500" stroke="#000000" stroke-width="2"/><path d="M256.23902,204.81241c0,0 -5.74562,2.29859 -10.46589,0.08529c-4.72027,-2.2133 -7.68759,-5.83995 -6.6277,-8.10036c1.05989,-2.26041 5.74563,-2.2986 10.4659,-0.0853c4.72027,2.2133 6.62769,8.10037 6.62769,8.10037z" data-paper-data="{&quot;origRot&quot;:0,&quot;origPos&quot;:null,&quot;index&quot;:null}" fill="#2fe500" stroke="#000000" stroke-width="2"/><path d="M239.11267,155.87592l-0.87316,-4.49052c0,0 4.76812,-0.08519 6.94175,0.7385c2.30405,0.87312 2.66298,4.0015 2.66298,4.0015c0,0 -1.14075,-1.49684 -3.86684,-1.49684c-1.89853,0 -4.86473,1.24737 -4.86473,1.24737z" data-paper-data="{&quot;origPos&quot;:null}" fill="#26bd00" stroke="#000000" stroke-width="0.5"/><path d="M252.55773,153.56266c-2.05336,0.41413 -2.70381,1.81535 -2.70381,1.81535c0,0 -0.16601,-2.62085 1.44767,-3.68712c1.52233,-1.00591 5.12569,-1.66038 5.12569,-1.66038l-0.03132,3.81638c0,0 -2.40821,-0.57265 -3.83823,-0.28423z" data-paper-data="{&quot;origPos&quot;:null,&quot;index&quot;:null,&quot;origRot&quot;:0}" fill="#26bd00" stroke="#000000" stroke-width="0.5"/></g></g></svg>