<svg version="1.1" xmlns="http://www.w3.org/2000/svg" xmlns:xlink="http://www.w3.org/1999/xlink" width="47.4" height="47.4"><defs><radialGradient cx="237.92105" cy="177.42731" r="23.7" gradientUnits="userSpaceOnUse" id="color-1"><stop offset="0" stop-color="#ffffff"/><stop offset="1" stop-color="#ffffff" stop-opacity="0"/></radialGradient><linearGradient x1="240" y1="173.3" x2="240" y2="186.7" gradientUnits="userSpaceOnUse" id="color-2"><stop offset="0" stop-color="#ffe946"/><stop offset="1" stop-color="#fadd00"/></linearGradient></defs><g transform="translate(-216.3,-156.3)"><g data-paper-data="{&quot;isPaintingLayer&quot;:true}" fill="none" fill-rule="nonzero" stroke="none" stroke-width="none" stroke-linecap="butt" stroke-linejoin="miter" stroke-miterlimit="10" stroke-dasharray="" stroke-dashoffset="0" font-family="none" font-weight="none" font-size="none" text-anchor="none" style="mix-blend-mode: normal"><path d="M238.02492,174.69049l20.68285,-2.93318l-17.13268,11.95219l-20.68285,2.93318z" data-paper-data="{&quot;origRot&quot;:0,&quot;origPos&quot;:null}" fill="#fff291" stroke="none" stroke-width="0"/><path d="M235.29049,180.97509l-2.93318,-20.68286l11.95219,17.13269l2.93318,20.68285z" data-paper-data="{&quot;origRot&quot;:0,&quot;origPos&quot;:null}" fill="#fff291" stroke="none" stroke-width="0"/><path d="M237.86647,183.64388l-16.69905,-12.55092l20.56612,3.66316l16.69905,12.55092z" data-paper-data="{&quot;origRot&quot;:0,&quot;origPos&quot;:null}" fill="#fff291" stroke="none" stroke-width="0"/><path d="M235.35612,177.26647l12.55092,-16.69905l-3.66316,20.56612l-12.55092,16.69905z" data-paper-data="{&quot;origRot&quot;:0,&quot;origPos&quot;:null}" fill="#fff291" stroke="none" stroke-width="0"/><path d="M216.3,180c0,-13.08915 10.61085,-23.7 23.7,-23.7c13.08915,0 23.7,10.61085 23.7,23.7c0,13.08915 -10.61085,23.7 -23.7,23.7c-13.08915,0 -23.7,-10.61085 -23.7,-23.7z" data-paper-data="{&quot;origPos&quot;:null}" fill="url(#color-1)" stroke="none" stroke-width="0"/><path d="M236.57315,176.57315l17.79517,-10.94147l-10.94147,17.79517l-17.79517,10.94147z" data-paper-data="{&quot;origRot&quot;:0,&quot;origPos&quot;:null}" fill="#ffec5f" stroke="none" stroke-width="0"/><path d="M236.57315,183.42685l-10.94147,-17.79517l17.79517,10.94147l10.94147,17.79517z" data-paper-data="{&quot;origRot&quot;:0,&quot;origPos&quot;:null}" fill="#ffec5f" stroke="none" stroke-width="0"/><path d="M240,184.8463l-20.31987,-4.8463l20.31987,-4.8463l20.31988,4.8463z" data-paper-data="{&quot;origRot&quot;:0,&quot;origPos&quot;:null}" fill="#ffec5f" stroke="none" stroke-width="0"/><path d="M235.1537,180l4.8463,-20.31987l4.8463,20.31987l-4.8463,20.31987z" data-paper-data="{&quot;origRot&quot;:0,&quot;origPos&quot;:null}" fill="#ffec5f" stroke="none" stroke-width="0"/><path d="M233.3,180c0,-3.70031 2.99969,-6.7 6.7,-6.7c3.70031,0 6.7,2.99969 6.7,6.7c0,3.70031 -2.99969,6.7 -6.7,6.7c-3.70031,0 -6.7,-2.99969 -6.7,-6.7z" data-paper-data="{&quot;origPos&quot;:null}" fill="url(#color-2)" stroke="#f4d700" stroke-width="1"/></g></g></svg>