<svg version="1.1" xmlns="http://www.w3.org/2000/svg" xmlns:xlink="http://www.w3.org/1999/xlink" width="56.95416" height="66.16461" viewBox="0,0,56.95416,66.16461"><g transform="translate(-220.45018,-140.63715)"><g data-paper-data="{&quot;isPaintingLayer&quot;:true}" fill="none" fill-rule="nonzero" stroke="none" stroke-width="none" stroke-linecap="butt" stroke-linejoin="miter" stroke-miterlimit="10" stroke-dasharray="" stroke-dashoffset="0" font-family="none" font-weight="none" font-size="none" text-anchor="none" style="mix-blend-mode: normal"><path d="M241.65562,163.2867c-2.2513,0.54085 -6.46312,-1.95618 -8.14641,-6.58356c-1.68329,-4.62735 2.39202,-12.75562 2.39202,-12.75562c0,0 1.91918,4.39243 2.69253,4.95144c0,0 4.64156,2.63829 5.47159,5.10337c1.09287,3.24565 -0.15844,8.7435 -2.40974,9.28435z" data-paper-data="{&quot;origRot&quot;:0,&quot;origPos&quot;:null}" fill="#26bd00" stroke="#000000" stroke-width="1"/><path d="M240.79995,161.8704c-0.34913,2.29362 -3.66244,5.0107 -7.73814,4.46866c-4.07569,-0.54203 -8.86358,-7.90069 -8.86358,-7.90069c0,0 3.97713,0.22176 4.66171,-0.23205c0,0 3.5653,-3.04525 5.71402,-2.69575c2.8291,0.46017 6.57513,4.06621 6.22599,6.35983z" data-paper-data="{&quot;origRot&quot;:0,&quot;origPos&quot;:null}" fill="#26bd00" stroke="#000000" stroke-width="1"/><path d="M244.84995,157.92059c-2.2072,-0.80412 -4.51209,-4.74489 -3.54618,-8.83993c0.96589,-4.09503 8.67853,-7.60344 8.67853,-7.60344c0,0 -0.64195,4.05551 -0.271,4.84889c0,0 2.5991,4.26403 2.0275,6.41059c-0.75258,2.82626 -4.68163,5.98802 -6.88883,5.18389z" data-paper-data="{&quot;origRot&quot;:0,&quot;origPos&quot;:null}" fill="#26bd00" stroke="#000000" stroke-width="1"/><path d="M230.61393,191.3634c4.70628,0.72373 8.2405,3.1374 7.89393,5.39112c-0.34658,2.25371 -4.44273,3.49399 -9.14898,2.77027c-4.70628,-0.72373 -7.8939,-5.39113 -7.8939,-5.39113c0,0 4.44271,-3.49401 9.14896,-2.77028z" data-paper-data="{&quot;origRot&quot;:0,&quot;origPos&quot;:null,&quot;index&quot;:null}" fill="#2bd900" stroke="#000000" stroke-width="1.5"/><path d="M255.90996,195.1778c0,0 -3.48248,4.45173 -8.22567,4.86994c-4.7432,0.41821 -8.75067,-1.08407 -8.95094,-3.35547c-0.20028,-2.2714 3.48251,-4.45175 8.22568,-4.86996c4.7432,-0.41821 8.95093,3.35548 8.95093,3.35548z" data-paper-data="{&quot;origRot&quot;:0,&quot;origPos&quot;:null,&quot;index&quot;:null}" fill="#2bd900" stroke="#000000" stroke-width="1.5"/><path d="M235.38439,195.27541c0,0 4.03397,-5.86514 7.03529,-9.12958c2.36948,-2.57719 6.72663,-5.83888 6.72663,-5.83888l3.31269,3.04567c0,0 -4.14307,2.04381 -6.16502,4.243c-3.34882,3.64241 -7.5969,10.72544 -7.5969,10.72544z" data-paper-data="{&quot;origPos&quot;:null,&quot;origRot&quot;:0}" fill="#a9ff59" stroke="#000000" stroke-width="2"/><path d="M270.32503,176.45336c-2.32071,8.46968 -12.12863,13.16382 -21.9066,10.48461c-9.77796,-2.67918 -15.82326,-11.71714 -13.50255,-20.18682c2.32071,-8.46968 12.12862,-13.16381 21.9066,-10.4846c9.77796,2.67918 15.82326,11.71714 13.50255,20.18681z" data-paper-data="{&quot;origPos&quot;:null,&quot;origRot&quot;:0}" fill="#a9ff59" stroke="#000000" stroke-width="3"/><path d="M276.40434,183.45078c-1.81414,4.7311 -5.89938,7.57605 -9.12462,6.35436c-3.22524,-1.22173 -4.36914,-6.04741 -2.555,-10.77853c1.81414,-4.7311 5.8994,-7.57605 9.12462,-6.35436c3.22523,1.22172 4.36912,6.04741 2.555,10.77853z" data-paper-data="{&quot;origPos&quot;:null,&quot;origRot&quot;:0}" fill="#a9ff59" stroke="#000000" stroke-width="2"/><path d="M269.75101,180.80881c-0.85507,2.34563 -2.4889,3.90786 -3.64928,3.4893c-1.16036,-0.41854 -1.40785,-2.65936 -0.55277,-5.005c0.85507,-2.34563 2.4889,-3.90786 3.64927,-3.48929c1.16036,0.41854 1.40786,2.65937 0.55278,5.005z" data-paper-data="{&quot;origRot&quot;:0,&quot;origPos&quot;:null}" fill="#84c746" stroke="none" stroke-width="0"/><path d="M230.37732,195.47394c5.11563,-1.00495 9.65279,0.16627 10.13405,2.61602c0.48124,2.44973 -3.27567,5.25031 -8.3913,6.25527c-5.11563,1.00495 -10.13404,-2.61602 -10.13404,-2.61602c0,0 3.27566,-5.25032 8.39129,-6.25527z" data-paper-data="{&quot;origRot&quot;:0,&quot;origPos&quot;:null}" fill="#2fe500" stroke="#000000" stroke-width="2"/><path d="M256.09603,204.67454c0,0 -5.71375,2.37668 -10.46376,0.22793c-4.74999,-2.14876 -7.76648,-5.73462 -6.73749,-8.00927c1.02898,-2.27464 5.71377,-2.3767 10.46377,-0.22794c4.74999,2.14876 6.73748,8.00928 6.73748,8.00928z" data-paper-data="{&quot;origRot&quot;:0,&quot;origPos&quot;:null,&quot;index&quot;:null}" fill="#2fe500" stroke="#000000" stroke-width="2"/><path d="M260.31136,167.64266c-0.3511,2.24659 -1.71847,3.96009 -3.0541,3.82719c-1.33563,-0.13291 -2.13376,-2.06188 -1.78266,-4.30848c0.3511,-2.24659 1.71847,-3.96009 3.0541,-3.82719c1.33563,0.13291 2.13375,2.06188 1.78265,4.30848z" data-paper-data="{&quot;origPos&quot;:null,&quot;origRot&quot;:0}" fill="#000000" stroke="none" stroke-width="0"/><path d="M266.11487,169.48377c-0.26449,1.69238 -1.29452,2.98317 -2.30067,2.88305c-1.00614,-0.10013 -1.60737,-1.55323 -1.34288,-3.24561c0.26449,-1.69238 1.29451,-2.98317 2.30067,-2.88305c1.00614,0.10013 1.60738,1.55324 1.34288,3.24562z" data-paper-data="{&quot;origPos&quot;:null,&quot;origRot&quot;:0}" fill="#000000" stroke="none" stroke-width="0"/><path d="M253.9008,162.82337l1.3747,-4.36318c0,0 4.23128,2.19966 5.74873,3.96048c1.6085,1.86648 0.43162,4.78719 0.43162,4.78719c0,0 -0.28856,-1.85973 -2.68448,-3.16015c-1.66859,-0.90566 -4.87058,-1.22433 -4.87058,-1.22433z" data-paper-data="{&quot;origPos&quot;:null,&quot;origRot&quot;:0}" fill="#26bd00" stroke="#000000" stroke-width="0.5"/><path d="M266.38153,166.96546c-2.00222,-0.61554 -3.24232,0.30569 -3.24232,0.30569c0,0 1.10432,-2.38262 3.03121,-2.54998c1.81781,-0.15788 5.29695,0.98582 5.29695,0.98582l-1.84805,3.33923c0,0 -1.84338,-1.65208 -3.23779,-2.08076z" data-paper-data="{&quot;origPos&quot;:null,&quot;index&quot;:null,&quot;origRot&quot;:0}" fill="#26bd00" stroke="#000000" stroke-width="0.5"/></g></g></svg>