<svg version="1.1" xmlns="http://www.w3.org/2000/svg" xmlns:xlink="http://www.w3.org/1999/xlink" width="56.15077" height="60.44589" viewBox="0,0,56.15077,60.44589"><g transform="translate(-215.20384,-146.35586)"><g data-paper-data="{&quot;isPaintingLayer&quot;:true}" fill="none" fill-rule="nonzero" stroke="none" stroke-width="none" stroke-linecap="none" stroke-linejoin="miter" stroke-miterlimit="10" stroke-dasharray="" stroke-dashoffset="0" font-family="none" font-weight="none" font-size="none" text-anchor="none" style="mix-blend-mode: normal"><path d="M230.01802,191.95585c4.76146,0.03648 8.60721,1.91445 8.58974,4.19459c-0.01747,2.28014 -3.89157,4.09897 -8.653,4.06249c-4.76146,-0.03648 -8.58972,-4.1946 -8.58972,-4.1946c0,0 3.89154,-4.09898 8.65298,-4.0625z" data-paper-data="{&quot;origRot&quot;:0,&quot;origPos&quot;:null,&quot;index&quot;:null}" fill="#2bd900" stroke="#000000" stroke-width="1.5" stroke-linecap="butt"/><path d="M255.90996,195.17779c0,0 -3.48248,4.45173 -8.22567,4.86994c-4.7432,0.41821 -8.75067,-1.08407 -8.95094,-3.35547c-0.20028,-2.2714 3.48251,-4.45175 8.22568,-4.86996c4.7432,-0.41821 8.95093,3.35548 8.95093,3.35548z" data-paper-data="{&quot;origRot&quot;:0,&quot;origPos&quot;:null,&quot;index&quot;:null}" fill="#2bd900" stroke="#000000" stroke-width="1.5" stroke-linecap="butt"/><path d="M235.229,197.45954c0,0 0.56938,-7.09567 1.54152,-11.42228c0.76749,-3.41574 2.916,-8.41647 2.916,-8.41647l4.39053,0.9865c0,0 -2.57066,3.83847 -3.22559,6.75323c-1.08469,4.82755 -1.23193,13.0855 -1.23193,13.0855z" data-paper-data="{&quot;origPos&quot;:null,&quot;origRot&quot;:0}" fill="#a9ff59" stroke="#000000" stroke-width="2" stroke-linecap="butt"/><path d="M224.04351,148.52151c3.88886,1.32681 6.52633,3.9121 5.89094,5.77435c-0.63537,1.86227 -4.30299,2.29634 -8.19185,0.9695c-3.88886,-1.32681 -5.89094,-5.77435 -5.89094,-5.77435c0,0 4.30299,-2.29634 8.19185,-0.9695z" data-paper-data="{&quot;origRot&quot;:0,&quot;origPos&quot;:null}" fill="#2fe500" stroke="#000000" stroke-width="1" stroke-linecap="butt"/><path d="M262.64227,163.75683c0,8.78187 -8.21877,15.90098 -18.35715,15.90098c-10.13837,0 -18.35715,-7.11911 -18.35715,-15.90098c0,-8.78187 8.21877,-15.90097 18.35715,-15.90097c10.13837,0 18.35715,7.11911 18.35715,15.90097z" data-paper-data="{&quot;origPos&quot;:null}" fill="#a9ff59" stroke="#000000" stroke-width="3" stroke-linecap="butt"/><path d="M249.6177,158.67151c0.63467,2.1835 0.12291,4.31513 -1.14306,4.76112c-1.26596,0.44599 -2.80674,-0.96254 -3.44141,-3.14604c-0.63467,-2.1835 -0.12291,-4.31513 1.14306,-4.76112c1.26596,-0.44599 2.80673,0.96254 3.4414,3.14604z" data-paper-data="{&quot;origPos&quot;:null,&quot;origRot&quot;:0}" fill="#000000" stroke="none" stroke-width="0" stroke-linecap="butt"/><path d="M255.65431,157.87798c0.4781,1.64486 0.09259,3.25062 -0.86107,3.58659c-0.95367,0.33597 -2.11433,-0.72509 -2.59243,-2.36995c-0.4781,-1.64486 -0.0926,-3.25062 0.86107,-3.58659c0.95367,-0.33597 2.11434,0.72509 2.59244,2.36995z" data-paper-data="{&quot;origPos&quot;:null,&quot;origRot&quot;:0}" fill="#000000" stroke="none" stroke-width="0" stroke-linecap="butt"/><path d="M270.35461,168.89897c-0.4994,5.04233 -3.6876,8.86571 -7.12104,8.53976c-3.43344,-0.32598 -5.81193,-4.67783 -5.31252,-9.72018c0.4994,-5.04233 3.68762,-8.86571 7.12104,-8.53976c3.43343,0.32598 5.81191,4.67784 5.31252,9.72018z" data-paper-data="{&quot;origPos&quot;:null,&quot;origRot&quot;:0}" fill="#a9ff59" stroke="#000000" stroke-width="2" stroke-linecap="butt"/><path d="M263.23964,168.10914c-0.20482,2.48821 -1.36772,4.42666 -2.59746,4.32963c-1.22972,-0.09702 -2.06056,-2.19279 -1.85575,-4.681c0.20482,-2.48821 1.36772,-4.42666 2.59745,-4.32962c1.22972,0.09702 2.06057,2.19279 1.85576,4.681z" data-paper-data="{&quot;origRot&quot;:0,&quot;origPos&quot;:null}" fill="#84c746" stroke="none" stroke-width="0" stroke-linecap="butt"/><path d="M230.36442,195.90347c5.11262,-1.02015 9.65324,0.13758 10.14178,2.58589c0.48852,2.44829 -3.26005,5.26002 -8.37267,6.28018c-5.11262,1.02015 -10.14177,-2.58589 -10.14177,-2.58589c0,0 3.26004,-5.26003 8.37266,-6.28018z" data-paper-data="{&quot;origRot&quot;:0,&quot;origPos&quot;:null}" fill="#2fe500" stroke="#000000" stroke-width="2" stroke-linecap="butt"/><path d="M256.09603,204.67453c0,0 -5.71375,2.37668 -10.46376,0.22793c-4.74999,-2.14876 -7.76648,-5.73462 -6.73749,-8.00927c1.02898,-2.27464 5.71377,-2.3767 10.46377,-0.22794c4.74999,2.14876 6.73748,8.00928 6.73748,8.00928z" data-paper-data="{&quot;origRot&quot;:0,&quot;origPos&quot;:null,&quot;index&quot;:null}" fill="#2fe500" stroke="#000000" stroke-width="2" stroke-linecap="butt"/><path d="M246.3862,165.50615c0,0 4.6416,-0.38764 6.09847,0.87119c1.69095,1.46107 1.96738,6.0982 1.96738,6.0982" data-paper-data="{&quot;origPos&quot;:null,&quot;origRot&quot;:0}" fill="none" stroke="#000000" stroke-width="1" stroke-linecap="round"/></g></g></svg>