<svg version="1.1" xmlns="http://www.w3.org/2000/svg" xmlns:xlink="http://www.w3.org/1999/xlink" width="54.10276" height="63.18524"><defs><linearGradient x1="262.16965" y1="173.72333" x2="253.54409" y2="167.72189" gradientUnits="userSpaceOnUse" id="color-1"><stop offset="0" stop-color="#fff987"/><stop offset="1" stop-color="#fff300"/></linearGradient><linearGradient x1="263.15813" y1="155.61881" x2="253.57382" y2="162.35574" gradientUnits="userSpaceOnUse" id="color-2"><stop offset="0" stop-color="#fff987"/><stop offset="1" stop-color="#fff300"/></linearGradient><linearGradient x1="259.35684" y1="150.1902" x2="252.4614" y2="158.65247" gradientUnits="userSpaceOnUse" id="color-3"><stop offset="0" stop-color="#fff987"/><stop offset="1" stop-color="#fff300"/></linearGradient><linearGradient x1="225.31688" y1="181.67302" x2="231.93454" y2="173.50404" gradientUnits="userSpaceOnUse" id="color-4"><stop offset="0" stop-color="#fff987"/><stop offset="1" stop-color="#fff300"/></linearGradient><linearGradient x1="257.66715" y1="178.59649" x2="250.28245" y2="170.56912" gradientUnits="userSpaceOnUse" id="color-5"><stop offset="0" stop-color="#fff987"/><stop offset="1" stop-color="#fff300"/></linearGradient><linearGradient x1="220.58327" y1="151.57019" x2="227.98605" y2="159.67095" gradientUnits="userSpaceOnUse" id="color-6"><stop offset="0" stop-color="#fff987"/><stop offset="1" stop-color="#fff300"/></linearGradient><linearGradient x1="217.21455" y1="155.629" x2="225.14536" y2="164.30758" gradientUnits="userSpaceOnUse" id="color-7"><stop offset="0" stop-color="#fff987"/><stop offset="1" stop-color="#fff300"/></linearGradient><linearGradient x1="251.1779" y1="182.54734" x2="244.89722" y2="173.66288" gradientUnits="userSpaceOnUse" id="color-8"><stop offset="0" stop-color="#fff987"/><stop offset="1" stop-color="#fff300"/></linearGradient><linearGradient x1="219.11235" y1="176.61341" x2="229.54178" y2="171.3726" gradientUnits="userSpaceOnUse" id="color-9"><stop offset="0" stop-color="#fff987"/><stop offset="1" stop-color="#fff300"/></linearGradient><linearGradient x1="232.44409" y1="183.26237" x2="237.07462" y2="173.82965" gradientUnits="userSpaceOnUse" id="color-10"><stop offset="0" stop-color="#fff987"/><stop offset="1" stop-color="#fff300"/></linearGradient><linearGradient x1="254.19451" y1="146.52068" x2="248.6767" y2="155.71769" gradientUnits="userSpaceOnUse" id="color-11"><stop offset="0" stop-color="#fff987"/><stop offset="1" stop-color="#fff300"/></linearGradient><linearGradient x1="225.74089" y1="147.72205" x2="231.62728" y2="158.33345" gradientUnits="userSpaceOnUse" id="color-12"><stop offset="0" stop-color="#fff987"/><stop offset="1" stop-color="#fff300"/></linearGradient><linearGradient x1="248.47001" y1="143.3599" x2="243.02683" y2="154.46484" gradientUnits="userSpaceOnUse" id="color-13"><stop offset="0" stop-color="#fff987"/><stop offset="1" stop-color="#fff300"/></linearGradient><linearGradient x1="230.93887" y1="143.48349" x2="235.67285" y2="154.14001" gradientUnits="userSpaceOnUse" id="color-14"><stop offset="0" stop-color="#fff987"/><stop offset="1" stop-color="#fff300"/></linearGradient><linearGradient x1="240.73937" y1="184.8311" x2="240.05257" y2="171.16253" gradientUnits="userSpaceOnUse" id="color-15"><stop offset="0" stop-color="#fff987"/><stop offset="1" stop-color="#fff300"/></linearGradient><linearGradient x1="214.60141" y1="167.24993" x2="228.27" y2="166.56313" gradientUnits="userSpaceOnUse" id="color-16"><stop offset="0" stop-color="#fff987"/><stop offset="1" stop-color="#fff300"/></linearGradient><linearGradient x1="265.72958" y1="164.11695" x2="252.06099" y2="164.80376" gradientUnits="userSpaceOnUse" id="color-17"><stop offset="0" stop-color="#fff987"/><stop offset="1" stop-color="#fff300"/></linearGradient><linearGradient x1="239.01476" y1="141.8625" x2="239.70155" y2="155.53109" gradientUnits="userSpaceOnUse" id="color-18"><stop offset="0" stop-color="#fff987"/><stop offset="1" stop-color="#fff300"/></linearGradient><linearGradient x1="239.44988" y1="150.28667" x2="240.90581" y2="179.26233" gradientUnits="userSpaceOnUse" id="color-19"><stop offset="0" stop-color="#eeb054"/><stop offset="1" stop-color="#d27700"/></linearGradient></defs><g transform="translate(-213.11409,-140.37533)"><g data-paper-data="{&quot;isPaintingLayer&quot;:true}" fill="none" fill-rule="nonzero" stroke="none" stroke-width="none" stroke-linecap="none" stroke-linejoin="miter" stroke-miterlimit="10" stroke-dasharray="" stroke-dashoffset="0" font-family="none" font-weight="none" font-size="none" text-anchor="none" style="mix-blend-mode: normal"><path d="M252.93344,196.39801c-0.01856,2.47718 -10.5375,2.39838 -10.51894,-0.07881c0.01856,-2.47718 2.38834,-4.46769 5.29307,-4.44593c2.90473,0.02176 5.24442,2.04755 5.22586,4.52473z" data-paper-data="{&quot;origPos&quot;:null,&quot;origRot&quot;:0}" fill="#26c000" stroke="#000000" stroke-width="2" stroke-linecap="butt"/><path d="M245.17182,196.16973c-0.01856,2.47718 -10.5375,2.39838 -10.51894,-0.07881c0.01856,-2.47718 2.38834,-4.46769 5.29307,-4.44593c2.90472,0.02176 5.24442,2.04755 5.22586,4.52473z" data-paper-data="{&quot;origPos&quot;:null,&quot;origRot&quot;:0}" fill="#26c000" stroke="#000000" stroke-width="2" stroke-linecap="butt"/><path d="M243.48025,196.25994l-2.16234,-7.08915c0,0 -3.3684,0.69351 -4.63837,0.88055c-0.95016,0.13994 -3.04421,-3.94421 -3.04421,-3.94421c0,0 2.70556,-1.18608 4.01592,-0.87984c1.55633,0.36374 2.94109,1.78086 2.94109,1.78086c0,0 0.21803,-0.08418 0.14629,-0.66572c-0.46674,-3.78327 0.29936,-9.87865 0.29936,-9.87865l3.73832,-0.4612c0,0 -0.91309,6.02264 -0.48561,9.48761c0.08502,0.68916 0.19406,0.93861 0.19406,0.93861c0,0 2.2998,-2.24145 3.34564,-2.57828c1.32885,-0.42797 3.83935,0.25367 3.83935,0.25367c0,0 -1.63936,3.60222 -2.90257,4.24004c-1.02415,0.51712 -3.77076,0.49009 -3.77076,0.49009l2.22215,6.96442z" data-paper-data="{&quot;origPos&quot;:null,&quot;origRot&quot;:0}" fill="#2fe500" stroke="#000000" stroke-width="1.5" stroke-linecap="butt"/><path d="M243.23542,197.90401c0.25541,2.73415 -11.86836,4.24671 -12.12377,1.51257c-0.25541,-2.73415 2.6502,-5.62143 5.85625,-5.92091c3.20605,-0.29948 6.01211,1.6742 6.26752,4.40835z" data-paper-data="{&quot;origPos&quot;:null,&quot;origRot&quot;:0}" fill="#2fe500" stroke="#000000" stroke-width="2" stroke-linecap="butt"/><path d="M256.0693,199.29057c0,2.688 -12.27022,2.43118 -12.27022,-0.25682c0,-2.688 2.55515,-4.86705 5.70708,-4.86705c3.15193,0 6.56315,2.43587 6.56315,5.12387z" data-paper-data="{&quot;origPos&quot;:null}" fill="#2fe500" stroke="#000000" stroke-width="2" stroke-linecap="butt"/><path d="M251.33242,200.30265c0,3.01056 -12.78387,3.01056 -12.78387,0c0,-3.01056 2.86177,-5.4511 6.39193,-5.4511c3.53016,0 6.39193,2.44054 6.39193,5.4511z" data-paper-data="{&quot;origPos&quot;:null}" fill="#2fe500" stroke="#000000" stroke-width="2" stroke-linecap="butt"/><path d="M262.64731,174.03201c-1.79462,1.41307 -5.40259,0.01096 -7.05568,-1.13205c-1.88083,-1.30047 -3.76948,-3.29361 -2.04755,-5.1781c1.13112,-1.23791 3.86798,-0.97521 6.1129,0.58676c2.24495,1.56198 4.29018,4.69986 2.99032,5.72337z" data-paper-data="{&quot;origPos&quot;:null,&quot;origRot&quot;:0,&quot;index&quot;:null}" fill="url(#color-1)" stroke="#000000" stroke-width="1.5" stroke-linecap="butt"/><path d="M263.66095,155.23789c1.15069,2.28653 -1.54895,5.47291 -3.37733,6.76643c-2.08025,1.47172 -4.98111,2.72107 -6.7098,0.35141c-1.13556,-1.55663 -0.03393,-4.23992 2.46052,-5.99331c2.49447,-1.75339 6.79314,-2.7807 7.62659,-1.12453z" data-paper-data="{&quot;origPos&quot;:null,&quot;origRot&quot;:0,&quot;index&quot;:null}" fill="url(#color-2)" stroke="#000000" stroke-width="1.5" stroke-linecap="butt"/><path d="M258.46784,156.09702c-1.79466,2.20243 -4.48383,3.34655 -6.00645,2.55545c-2.31791,-1.20432 -1.01546,-3.69467 0.49061,-5.53222c1.32372,-1.61506 4.54641,-4.11442 6.79392,-3.37648c1.6279,0.53451 0.51658,4.15081 -1.27808,6.35325z" data-paper-data="{&quot;origPos&quot;:null,&quot;origRot&quot;:0}" fill="url(#color-3)" stroke="#000000" stroke-width="1" stroke-linecap="butt"/><path d="M226.36672,175.36959c1.72236,-2.12611 4.21514,-2.96133 5.56782,-1.86554c2.05919,1.66813 0.77278,4.18354 -0.67216,5.95608c-1.27,1.55792 -4.30343,3.78888 -6.31762,2.63997c-1.45891,-0.83218 -0.30038,-4.60438 1.42197,-6.73049z" data-paper-data="{&quot;origPos&quot;:null,&quot;origRot&quot;:0}" fill="url(#color-4)" stroke="#000000" stroke-width="1.5" stroke-linecap="butt"/><path d="M258.08306,179.01818c-2.32091,0.90197 -5.73643,-1.38484 -7.15384,-2.91636c-1.61265,-1.74251 -3.02948,-4.15638 -0.64677,-5.53269c1.56518,-0.90409 4.3921,0.05667 6.31409,2.14592c1.92199,2.08925 3.1676,5.64982 1.48653,6.30312z" data-paper-data="{&quot;origPos&quot;:null,&quot;origRot&quot;:0,&quot;index&quot;:null}" fill="url(#color-5)" stroke="#000000" stroke-width="1.5" stroke-linecap="butt"/><path d="M226.92624,153.63394c1.92669,2.10834 2.40118,4.8112 1.0598,6.037c-2.04199,1.86604 -4.43827,0.14713 -6.04315,-1.61992c-1.41055,-1.5531 -3.24162,-5.031 -1.74255,-6.93134c1.08581,-1.37644 4.79921,0.4059 6.7259,2.51425z" data-paper-data="{&quot;origPos&quot;:null,&quot;origRot&quot;:0}" fill="url(#color-6)" stroke="#000000" stroke-width="1.5" stroke-linecap="butt"/><path d="M224.00995,157.83996c2.06411,2.25875 2.57246,5.15439 1.13541,6.46763c-2.18764,1.99915 -4.75486,0.15763 -6.47421,-1.73546c-1.51118,-1.66387 -3.47284,-5.38986 -1.86686,-7.42576c1.16325,-1.47462 5.14153,0.43485 7.20565,2.69359z" data-paper-data="{&quot;origPos&quot;:null,&quot;origRot&quot;:0}" fill="url(#color-7)" stroke="#000000" stroke-width="1.5" stroke-linecap="butt"/><path d="M251.53655,183.01753c-2.52584,0.60511 -5.66055,-2.08959 -6.86752,-3.78569c-1.37326,-1.92975 -2.43745,-4.50106 0.22821,-5.56897c1.75106,-0.7015 4.49572,0.60432 6.13037,2.91664c1.63465,2.31232 2.33845,5.99973 0.50895,6.43801z" data-paper-data="{&quot;origPos&quot;:null,&quot;origRot&quot;:0,&quot;index&quot;:null}" fill="url(#color-8)" stroke="#000000" stroke-width="1.5" stroke-linecap="butt"/><path d="M223.05559,170.71539c2.71443,-1.36401 5.61839,-1.06977 6.4862,0.65721c1.32107,2.62898 -1.13019,4.58613 -3.40234,5.71919c-1.99704,0.99587 -6.08595,1.86672 -7.59881,-0.21634c-1.09579,-1.5088 1.80051,-4.79604 4.51494,-6.16005z" data-paper-data="{&quot;origPos&quot;:null,&quot;origRot&quot;:0}" fill="url(#color-9)" stroke="#000000" stroke-width="1.5" stroke-linecap="butt"/><path d="M232.01408,177.30859c1.20517,-2.45501 3.47085,-4.0126 5.06052,-3.47895c2.42,0.81237 1.73557,3.47153 0.7219,5.52122c-0.89092,1.80151 -3.3655,4.77805 -5.62035,4.41316c-1.63321,-0.2643 -1.36728,-4.00042 -0.16211,-6.45544z" data-paper-data="{&quot;origPos&quot;:null,&quot;origRot&quot;:0}" fill="url(#color-10)" stroke="#000000" stroke-width="1.5" stroke-linecap="butt"/><path d="M254.22578,152.46908c-1.4361,2.39366 -3.9205,3.84811 -5.54909,3.24862c-2.4792,-0.91262 -1.57451,-3.53191 -0.36769,-5.53005c1.0607,-1.75621 3.86402,-4.61502 6.20164,-4.15514c1.69316,0.33308 1.15123,4.04292 -0.28487,6.43658z" data-paper-data="{&quot;origPos&quot;:null,&quot;origRot&quot;:0}" fill="url(#color-11)" stroke="#000000" stroke-width="1" stroke-linecap="butt"/><path d="M231.59875,151.80982c1.53202,2.76179 1.54479,5.6825 0.02852,6.52361c-2.30825,1.28044 -4.36447,-1.22761 -5.63879,-3.53924c-1.12002,-2.03172 -2.32991,-6.16908 -0.54683,-7.65334c1.29151,-1.07507 4.62509,1.90718 6.15711,4.66896z" data-paper-data="{&quot;origPos&quot;:null,&quot;origRot&quot;:0}" fill="url(#color-12)" stroke="#000000" stroke-width="1.5" stroke-linecap="butt"/><path d="M248.89745,150.40577c-1.41667,2.89023 -4.04504,4.70754 -5.87064,4.05906c-2.77912,-0.98717 -1.96013,-4.12453 -0.76874,-6.53751c1.04713,-2.12081 3.93242,-5.61395 6.52634,-5.15778c1.87882,0.3304 1.52973,4.74598 0.11304,7.63623z" data-paper-data="{&quot;origPos&quot;:null,&quot;origRot&quot;:0}" fill="url(#color-13)" stroke="#000000" stroke-width="1.5" stroke-linecap="butt"/><path d="M236.62481,148.0127c1.2321,2.77354 0.8059,5.51683 -0.95195,6.12733c-2.67597,0.92938 -4.51021,-1.66789 -5.53288,-3.98838c-0.89885,-2.03954 -1.5772,-6.06632 0.56451,-7.24906c1.55129,-0.85667 4.68821,2.33659 5.92031,5.11013z" data-paper-data="{&quot;origPos&quot;:null,&quot;origRot&quot;:0}" fill="url(#color-14)" stroke="#000000" stroke-width="1.5" stroke-linecap="butt"/><path d="M236.27811,177.8098c-0.17875,-3.55748 1.51113,-6.53356 3.77447,-6.64728c3.4455,-0.17313 4.3851,3.38271 4.52537,6.35642c0.12328,2.61365 -0.87742,7.41227 -3.82803,8.04948c-2.13716,0.46154 -4.29306,-4.20116 -4.47181,-7.75861z" data-paper-data="{&quot;origPos&quot;:null,&quot;origRot&quot;:0}" fill="url(#color-15)" stroke="#000000" stroke-width="1.5" stroke-linecap="butt"/><path d="M221.62271,162.78865c3.55748,-0.17875 6.53356,1.51113 6.64728,3.77447c0.17313,3.4455 -3.38271,4.3851 -6.35642,4.52537c-2.61365,0.12328 -7.41227,-0.87742 -8.04948,-3.82803c-0.46154,-2.13716 4.20116,-4.29306 7.75861,-4.47181z" data-paper-data="{&quot;origPos&quot;:null,&quot;origRot&quot;:0}" fill="url(#color-16)" stroke="#000000" stroke-width="1.5" stroke-linecap="butt"/><path d="M258.70199,168.45339c-3.55748,0.17875 -6.53074,-1.45525 -6.64101,-3.64965c-0.16785,-3.34056 3.38913,-4.25703 6.36284,-4.39759c2.61363,-0.12353 7.41037,0.83945 8.04303,3.69943c0.45824,2.07153 -4.20739,4.16904 -7.76484,4.34779z" data-paper-data="{&quot;origPos&quot;:null,&quot;origRot&quot;:0}" fill="url(#color-17)" stroke="#000000" stroke-width="1.5" stroke-linecap="butt"/><path d="M242.91433,148.91202c0.17875,3.55748 -1.25965,6.52092 -3.21278,6.61905c-2.97326,0.1494 -3.80883,-3.41166 -3.95035,-6.38532c-0.12439,-2.61359 0.70655,-7.40369 3.24938,-8.02042c1.8418,-0.4467 3.73501,4.22919 3.91376,7.78666z" data-paper-data="{&quot;origPos&quot;:null,&quot;origRot&quot;:0}" fill="url(#color-18)" stroke="#000000" stroke-width="1.5" stroke-linecap="butt"/><path d="M240.03037,150.2575c6.68204,-0.33575 18.80784,6.65703 19.156,13.33842c0.4469,8.57623 -9.75691,14.82128 -18.30462,15.6508c-8.37617,0.81287 -19.26495,-5.14408 -19.72509,-13.54703c-0.36993,-6.75553 9.25423,-14.95885 18.87371,-15.44219z" data-paper-data="{&quot;origPos&quot;:null,&quot;origRot&quot;:0}" fill="url(#color-19)" stroke="#000000" stroke-width="2" stroke-linecap="butt"/><path d="M236.77853,160.73987c0.17046,2.58727 -0.92293,4.83523 -2.44217,5.02092c-1.51921,0.18572 -2.889,-1.76116 -3.05945,-4.34842c-0.17046,-2.58727 0.92293,-4.83523 2.44217,-5.02092c1.51921,-0.18572 2.88898,1.76116 3.05944,4.34841z" data-paper-data="{&quot;origPos&quot;:null,&quot;origRot&quot;:0}" fill="#000000" stroke="none" stroke-width="0" stroke-linecap="butt"/><path d="M249.08756,160.23279c0.17046,2.58727 -0.92293,4.83523 -2.44217,5.02092c-1.51921,0.18572 -2.889,-1.76116 -3.05945,-4.34842c-0.17046,-2.58727 0.92293,-4.83523 2.44217,-5.02092c1.51921,-0.18572 2.88898,1.76116 3.05944,4.34841z" data-paper-data="{&quot;origPos&quot;:null,&quot;origRot&quot;:0}" fill="#000000" stroke="none" stroke-width="0" stroke-linecap="butt"/><path d="M253.18179,168.64116c0,0 -7.57833,3.84423 -12.80104,3.83981c-5.15106,-0.00436 -12.16418,-2.58538 -12.16418,-2.58538" data-paper-data="{&quot;origPos&quot;:null,&quot;origRot&quot;:0}" fill="none" stroke="#000000" stroke-width="1.5" stroke-linecap="round"/><path d="M234.53929,159.53906c0.06913,1.04906 -0.37422,1.96056 -0.99023,2.03585c-0.61601,0.0753 -1.17141,-0.7141 -1.24052,-1.76316c-0.06913,-1.04906 0.37422,-1.96056 0.99023,-2.03585c0.61601,-0.0753 1.17141,0.7141 1.24052,1.76316z" data-paper-data="{&quot;origPos&quot;:null,&quot;origRot&quot;:0}" fill="#ffffff" stroke="none" stroke-width="0" stroke-linecap="butt"/><path d="M246.64231,159.03059c0.06913,1.04906 -0.37422,1.96056 -0.99023,2.03585c-0.61601,0.0753 -1.17141,-0.7141 -1.24052,-1.76316c-0.06913,-1.04906 0.37422,-1.96056 0.99023,-2.03585c0.61601,-0.0753 1.17141,0.7141 1.24052,1.76316z" data-paper-data="{&quot;origPos&quot;:null,&quot;origRot&quot;:0}" fill="#ffffff" stroke="none" stroke-width="0" stroke-linecap="butt"/></g></g></svg>