<svg version="1.1" xmlns="http://www.w3.org/2000/svg" xmlns:xlink="http://www.w3.org/1999/xlink" width="54.92659" height="57.90386" viewBox="0,0,54.92659,57.90386"><g transform="translate(-218.14609,-148.8979)"><g data-paper-data="{&quot;isPaintingLayer&quot;:true}" fill="none" fill-rule="nonzero" stroke="none" stroke-width="none" stroke-linecap="butt" stroke-linejoin="miter" stroke-miterlimit="10" stroke-dasharray="" stroke-dashoffset="0" font-family="none" font-weight="none" font-size="none" text-anchor="none" style="mix-blend-mode: normal"><path d="M230.61393,191.3634c4.70628,0.72373 8.2405,3.1374 7.89393,5.39112c-0.34658,2.25371 -4.44273,3.49399 -9.14898,2.77027c-4.70628,-0.72373 -7.8939,-5.39113 -7.8939,-5.39113c0,0 4.44271,-3.49401 9.14896,-2.77028z" data-paper-data="{&quot;origRot&quot;:0,&quot;origPos&quot;:null,&quot;index&quot;:null}" fill="#2bd900" stroke="#000000" stroke-width="1.5"/><path d="M255.90996,195.1778c0,0 -3.48248,4.45173 -8.22567,4.86994c-4.7432,0.41821 -8.75067,-1.08407 -8.95094,-3.35547c-0.20028,-2.2714 3.48251,-4.45175 8.22568,-4.86996c4.7432,-0.41821 8.95093,3.35548 8.95093,3.35548z" data-paper-data="{&quot;origRot&quot;:0,&quot;origPos&quot;:null,&quot;index&quot;:null}" fill="#2bd900" stroke="#000000" stroke-width="1.5"/><path d="M236.92858,197.51589c0,0 1.39769,-6.97992 2.87059,-11.16263c1.16282,-3.30215 3.88303,-8.01637 3.88303,-8.01637l4.24452,1.49466c0,0 -3.00313,3.51047 -3.99541,6.32829c-1.64343,4.667 -2.75823,12.85068 -2.75823,12.85068z" data-paper-data="{&quot;origPos&quot;:null,&quot;origRot&quot;:0}" fill="#a9ff59" stroke="#000000" stroke-width="2"/><path d="M227.01422,149.97782c3.80584,1.54893 6.28979,4.28207 5.54803,6.10456c-0.74173,1.82252 -4.42829,2.04429 -8.23414,0.49531c-3.80584,-1.54893 -5.54803,-6.10456 -5.54803,-6.10456c0,0 4.42829,-2.04429 8.23414,-0.49531z" data-paper-data="{&quot;origRot&quot;:0,&quot;origPos&quot;:null}" fill="#2fe500" stroke="#000000" stroke-width="1"/><path d="M264.66981,167.41446c-0.50661,8.76725 -9.12238,15.40039 -19.24388,14.81551c-10.12149,-0.58485 -17.9159,-8.16625 -17.40929,-16.93349c0.50661,-8.76725 9.12238,-15.40038 19.24388,-14.8155c10.12149,0.58485 17.9159,8.16625 17.40929,16.93348z" data-paper-data="{&quot;origPos&quot;:null,&quot;origRot&quot;:0}" fill="#a9ff59" stroke="#000000" stroke-width="3"/><path d="M272.07268,172.99294c-0.78945,5.00513 -4.1929,8.63821 -7.60182,8.11473c-3.40892,-0.52352 -5.53238,-5.00533 -4.74295,-10.01045c0.78945,-5.00513 4.19292,-8.63823 7.60182,-8.11473c3.40891,0.52351 5.53236,5.00532 4.74295,10.01045z" data-paper-data="{&quot;origPos&quot;:null,&quot;origRot&quot;:0}" fill="#a9ff59" stroke="#000000" stroke-width="2"/><path d="M265.0151,171.79399c-0.34801,2.47225 -1.62082,4.34038 -2.8429,4.17257c-1.22206,-0.1678 -1.93063,-2.308 -1.58262,-4.78026c0.34801,-2.47225 1.62082,-4.34038 2.84289,-4.17255c1.22206,0.1678 1.93066,2.308 1.58263,4.78026z" data-paper-data="{&quot;origRot&quot;:0,&quot;origPos&quot;:null}" fill="#84c746" stroke="none" stroke-width="0"/><path d="M230.37732,195.47394c5.11563,-1.00495 9.65279,0.16627 10.13405,2.61602c0.48124,2.44973 -3.27567,5.25031 -8.3913,6.25527c-5.11563,1.00495 -10.13404,-2.61602 -10.13404,-2.61602c0,0 3.27566,-5.25032 8.39129,-6.25527z" data-paper-data="{&quot;origRot&quot;:0,&quot;origPos&quot;:null}" fill="#2fe500" stroke="#000000" stroke-width="2"/><path d="M256.09603,204.67454c0,0 -5.71375,2.37668 -10.46376,0.22793c-4.74999,-2.14876 -7.76648,-5.73462 -6.73749,-8.00927c1.02898,-2.27464 5.71377,-2.3767 10.46377,-0.22794c4.74999,2.14876 6.73748,8.00928 6.73748,8.00928z" data-paper-data="{&quot;origRot&quot;:0,&quot;origPos&quot;:null,&quot;index&quot;:null}" fill="#2fe500" stroke="#000000" stroke-width="2"/><path d="M252.12521,160.24383c0.25564,2.25945 -0.6098,4.2736 -1.93302,4.49871c-1.32321,0.22511 -2.60315,-1.42407 -2.85879,-3.68351c-0.25564,-2.25945 0.6098,-4.2736 1.93302,-4.49871c1.32321,-0.22511 2.60314,1.42407 2.85877,3.6835z" data-paper-data="{&quot;origPos&quot;:null,&quot;origRot&quot;:0}" fill="#000000" stroke="none" stroke-width="0"/><path d="M258.209,160.4843c0.19257,1.70207 -0.45936,3.21932 -1.45615,3.3889c-0.9968,0.16957 -1.96095,-1.07275 -2.15353,-2.77483c-0.19257,-1.70207 0.45935,-3.21932 1.45615,-3.3889c0.9968,-0.16957 1.96097,1.07276 2.15355,2.77483z" data-paper-data="{&quot;origPos&quot;:null,&quot;origRot&quot;:0}" fill="#000000" stroke="none" stroke-width="0"/></g></g></svg>