<svg version="1.1" xmlns="http://www.w3.org/2000/svg" xmlns:xlink="http://www.w3.org/1999/xlink" width="71.022" height="69.40627" viewBox="0,0,71.022,69.40627"><defs><linearGradient x1="240.19427" y1="191.00524" x2="240.19427" y2="207.40821" gradientUnits="userSpaceOnUse" id="color-1"><stop offset="0" stop-color="#24693c"/><stop offset="1" stop-color="#4ecc71"/></linearGradient><radialGradient cx="240.16302" cy="173.83047" r="21.1235" gradientUnits="userSpaceOnUse" id="color-2"><stop offset="0" stop-color="#b3fa98"/><stop offset="1" stop-color="#05ac26"/></radialGradient><radialGradient cx="237.10171" cy="156.21465" r="14.99911" gradientUnits="userSpaceOnUse" id="color-3"><stop offset="0" stop-color="#036617"/><stop offset="1" stop-color="#037019"/></radialGradient><radialGradient cx="241.33366" cy="172.74423" r="6.67932" gradientUnits="userSpaceOnUse" id="color-4"><stop offset="0" stop-color="#adeba3"/><stop offset="1" stop-color="#32c144"/></radialGradient><linearGradient x1="235.96281" y1="180.99978" x2="234.7958" y2="198.76268" gradientUnits="userSpaceOnUse" id="color-5"><stop offset="0" stop-color="#a8d9ab"/><stop offset="1" stop-color="#50d844"/></linearGradient><radialGradient cx="239.40458" cy="174.08701" r="11.33088" gradientUnits="userSpaceOnUse" id="color-6"><stop offset="0" stop-color="#a5f48f"/><stop offset="1" stop-color="#32c144"/></radialGradient><linearGradient x1="249.34247" y1="163.12589" x2="248.18767" y2="180.70293" gradientUnits="userSpaceOnUse" id="color-7"><stop offset="0" stop-color="#baffa7"/><stop offset="1" stop-color="#82ff63"/></linearGradient><linearGradient x1="207.22588" y1="143.66698" x2="202.16813" y2="155.20731" gradientUnits="userSpaceOnUse" id="color-8"><stop offset="0" stop-color="#53db7a"/><stop offset="1" stop-color="#24693c"/></linearGradient></defs><g transform="translate(-194.98246,-138.4889)"><g data-paper-data="{&quot;isPaintingLayer&quot;:true}" fill="none" fill-rule="nonzero" stroke="none" stroke-width="none" stroke-linecap="none" stroke-linejoin="miter" stroke-miterlimit="10" stroke-dasharray="" stroke-dashoffset="0" font-family="none" font-weight="none" font-size="none" text-anchor="none" style="mix-blend-mode: normal"><path d="M265.50447,196.78898c0,2.05192 -4.46233,5.3969 -5.99869,5.1516c-2.211,-0.35301 -7.33647,-4.94385 -7.33647,-4.94385c0,0 3.94658,2.47919 5.06352,4.47218c1.09713,1.95763 1.60555,5.11132 -0.57043,5.66005c-0.81875,0.20647 -2.25973,-4.07958 -3.04313,-3.76452c-0.51129,0.20562 -0.20078,0.90011 -0.39866,1.41446c-0.48513,1.26101 -0.65474,2.07082 -2.00368,2.1474c-2.54931,0.14472 -1.21167,-3.82453 -3.65419,-3.08021c-1.3397,0.40825 -1.1077,1.11468 -2.17422,2.02242c-2.09749,1.78521 -2.63345,1.52666 -5.3878,1.52666c-3.37785,0 -7.03408,-6.82012 -7.03408,-6.82012c0,0 -9.27918,5.80446 -14.23348,3.40515c-1.85279,-0.89729 1.05445,-3.69416 2.6697,-4.97045c1.36434,-1.07803 4.18869,-1.43148 4.18869,-1.43148c0,0 -4.97845,1.0473 -7.10801,0.24077c-1.79846,-0.68114 -3.59951,-2.29397 -3.59951,-4.2171c0,-1.27932 7.86551,-0.1749 7.86551,-0.1749c0,0 -3.96234,-1.47362 -2.2704,-1.93843c6.91241,-1.899 31.59011,2.37702 33.85978,2.86475c0.75656,0.16258 7.08018,-1.36996 7.557,-0.76049c0.73094,0.93429 -2.67507,3.70814 -2.67507,3.70814c0,0 6.28359,-4.13562 6.28359,-0.51203z" data-paper-data="{&quot;origPos&quot;:null}" fill="url(#color-1)" stroke="#0f2c13" stroke-width="1" stroke-linecap="butt"/><path d="M220.77804,173.81431l0.18134,-2.76033l2.48429,0.16321l-0.18134,2.76033z" data-paper-data="{&quot;origPos&quot;:null,&quot;origRot&quot;:0}" fill="#1c5324" stroke="none" stroke-width="0" stroke-linecap="butt"/><path d="M262.16036,181.76053c-0.71686,10.91103 -10.27323,19.1665 -22.69748,18.35025c-12.42425,-0.81627 -19.1735,-10.143 -18.45667,-21.05403c0.50099,-7.6254 2.67244,-10.01704 6.31793,-11.14468c2.63953,-0.81647 1.52375,-4.21112 2.42353,-6.82344c0.50948,-1.47921 1.96458,-3.07643 3.24888,-2.18298c1.97813,1.37616 4.46554,4.17565 4.46554,4.17565c0,0 0.86957,-4.46955 2.94925,-2.77749c2.33551,1.90024 4.18938,2.74064 5.91938,4.62377c0,0 16.54655,5.92191 15.8297,16.83293z" data-paper-data="{&quot;origPos&quot;:null,&quot;origRot&quot;:0}" fill="url(#color-2)" stroke="#000000" stroke-width="1.5" stroke-linecap="butt"/><path d="M251.46052,187.19625c0.12777,2.27027 -0.84996,4.23241 -2.18377,4.38247c-1.33381,0.15012 -2.51865,-1.56867 -2.64639,-3.83894c-0.12777,-2.27027 0.84996,-4.23241 2.18377,-4.38247c1.33381,-0.15012 2.51864,1.56867 2.64637,3.83895z" data-paper-data="{&quot;origPos&quot;:null,&quot;origRot&quot;:0}" fill="#000000" stroke="none" stroke-width="0" stroke-linecap="butt"/><path d="M257.38538,185.67408c0.07526,1.71127 -0.67928,3.18021 -1.68535,3.28094c-1.00609,0.10074 -1.88268,-1.20484 -1.95798,-2.91614c-0.07526,-1.71127 0.67927,-3.18022 1.68535,-3.28094c1.00609,-0.10074 1.88273,1.20485 1.958,2.91612z" data-paper-data="{&quot;origPos&quot;:null,&quot;origRot&quot;:0}" fill="#000000" stroke="none" stroke-width="0" stroke-linecap="butt"/><path d="M237.85835,163.9405c0.33204,-1.12231 2.19279,-1.51837 2.20291,-1.4978c0.94955,-0.13116 1.12582,0.30185 1.27914,0.75899c0.46002,1.37138 4.50291,4.78443 4.50291,4.78443c0,0 -8.64441,-1.81665 -7.98497,-4.04563z" data-paper-data="{&quot;origPos&quot;:null,&quot;index&quot;:null,&quot;origRot&quot;:0}" fill="#287732" stroke="none" stroke-width="0" stroke-linecap="butt"/><path d="M234.35891,170.98824l1.03206,-13.97466c0,0 -2.01296,-2.00755 -4.3456,-2.33988c-5.77124,-0.82226 -15.80351,-0.34868 -15.80351,-0.34868l2.68557,-2.29147c0,0 7.11298,-0.39075 11.50903,0.07399c4.22858,0.44702 9.22905,3.13447 9.22905,3.13447l0.30081,19.68299z" data-paper-data="{&quot;origPos&quot;:null,&quot;origRot&quot;:0}" fill="url(#color-3)" stroke="#0f2c13" stroke-width="0.5" stroke-linecap="butt"/><path d="M237.1841,175.6826c0,0 -2.13876,-7.63225 1.6555,-10.5076c1.42142,0.252 1.53811,0.99652 3.01021,0.92241c0.81501,-0.04104 -1.24545,-3.3888 -0.435,-3.48404c1.29078,-0.15167 3.22374,0.82869 4.27482,1.59315c1.86871,1.35912 4.38804,2.99373 4.38804,2.99373c0,0 -1.30897,3.44868 -4.94927,6.20737c-2.1531,1.63165 -7.94428,2.27501 -7.94428,2.27501z" data-paper-data="{&quot;origPos&quot;:null,&quot;origRot&quot;:0}" fill="url(#color-4)" stroke="#256d2f" stroke-width="0.5" stroke-linecap="butt"/><path d="M249.69963,186.53507c0.05794,1.02989 -0.38558,1.91997 -0.99066,1.98809c-0.60507,0.06809 -1.14255,-0.71162 -1.20049,-1.7415c-0.05794,-1.02989 0.38558,-1.91997 0.99066,-1.98809c0.60507,-0.06809 1.14255,0.71162 1.20049,1.74149z" data-paper-data="{&quot;origPos&quot;:null,&quot;origRot&quot;:0}" fill="#ffffff" stroke="none" stroke-width="0" stroke-linecap="butt"/><path d="M255.86682,184.83694c0.02568,0.58359 -0.23164,1.08454 -0.57474,1.1189c-0.34307,0.03436 -0.64203,-0.41087 -0.66772,-0.99447c-0.02568,-0.58359 0.23164,-1.08454 0.57474,-1.1189c0.34307,-0.03436 0.64204,0.41088 0.66771,0.99447z" data-paper-data="{&quot;origPos&quot;:null,&quot;origRot&quot;:0}" fill="#ffffff" stroke="none" stroke-width="0" stroke-linecap="butt"/><path d="M231.04137,168.27647c0,0 -0.18734,-5.6531 0.44815,-6.95249c0.21182,-0.43313 0.46951,-1.23978 1.39378,-0.98554c0.01271,-0.01907 1.79514,0.77721 1.9775,1.93334c0.36217,2.29607 -0.15067,0.77644 -0.15067,0.77644z" data-paper-data="{&quot;origPos&quot;:null,&quot;origRot&quot;:0}" fill="#287732" stroke="none" stroke-width="0" stroke-linecap="butt"/><path d="M241.70086,181.94757c0,0 1.29855,-5.51502 2.95929,-5.24928c3.42769,0.54852 5.05669,4.52204 5.05669,4.52204c0,0 -2.80108,-1.49529 -4.19515,-1.36883c-1.73426,0.15735 -3.82083,2.09604 -3.82083,2.09604z" data-paper-data="{&quot;origPos&quot;:null,&quot;origRot&quot;:0}" fill="#05ac26" stroke="#000000" stroke-width="0.5" stroke-linecap="butt"/><path d="M253.90165,180.50254c0,0 0.64167,-3.50699 2.393,-4.32781c1.6522,-0.77433 4.30201,3.76227 4.30201,3.76227c0,0 -2.08083,-1.45235 -3.53755,-1.37451z" data-paper-data="{&quot;origPos&quot;:null,&quot;index&quot;:null,&quot;origRot&quot;:0}" fill="#05ac26" stroke="#000000" stroke-width="0.5" stroke-linecap="butt"/><path d="M229.12623,195.59196c-8.92732,-6.13177 -7.11391,-15.50871 -7.11391,-15.50871c0,0 1.66405,2.43047 3.25102,3.74231c2.75558,2.27788 5.07759,3.23853 8.03074,5.25369c1.02883,0.70203 3.23301,1.17056 4.15053,2.01284c0.98935,0.90824 1.06265,2.0768 1.76314,3.22265c0.50743,0.83006 1.15581,0.77585 1.99363,1.27042c2.80678,1.65686 7.70333,2.44308 7.70333,2.44308c0,0 -10.85111,3.69553 -19.77845,-2.43626z" data-paper-data="{&quot;origPos&quot;:null,&quot;origRot&quot;:0}" fill="url(#color-5)" stroke="#287732" stroke-width="0" stroke-linecap="butt"/><path d="M221.74271,183.30857c0,0 -2.57232,-6.64345 -0.91002,-10.3358c1.6623,-3.69235 4.98749,-1.54461 6.73688,-2.81917c1.83769,-1.33886 2.14909,-1.32735 3.78574,-2.90565c1.2494,-1.20481 1.13145,-4.06309 2.61109,-4.97045c1.02671,-0.62961 1.81496,0.32474 2.97726,0.64024c1.26947,0.34462 1.09044,4.61694 1.09044,4.61694c0,0 2.91219,-0.36668 2.34635,1.76906c-0.48741,1.83967 -1.63224,1.02649 -1.65562,2.92949c-0.02817,2.2909 2.64363,-0.1531 2.27167,2.1076c-0.57738,3.50921 -0.98791,5.16381 -3.39136,7.78516c0,0 -5.70572,1.71776 -8.69128,1.86585c-3.60489,0.17883 -7.17121,-0.68329 -7.17121,-0.68329z" data-paper-data="{&quot;origPos&quot;:null,&quot;origRot&quot;:0}" fill="url(#color-6)" stroke="#256d2f" stroke-width="0.5" stroke-linecap="butt"/><path d="M221.26588,187.31361c-0.71838,-2.05398 0.32466,-2.59783 -0.62011,-4.47879c-0.41222,-0.82071 -0.92411,-0.35343 -1.83235,-0.48979c-1.2359,-0.18555 -2.81617,-0.2889 -3.01839,-1.52216c-0.22653,-1.38168 2.18395,-3.10824 2.18395,-3.10824c0,0 -4.30929,-0.81576 -3.97756,-3.68959c0.34402,-2.98021 4.57414,-2.59487 5.02317,-3.25311c0.75572,-1.10786 0.04268,-2.36961 1.36874,-2.56951c0.85245,-0.12851 2.38895,2.81076 2.36541,1.94898c-0.03052,-1.11625 3.36563,0.3305 3.36563,0.3305l-2.60519,1.39196c0,0 -2.33432,0.44544 -2.28575,2.41785c0.09243,3.75299 -0.56226,3.49564 1.77798,6.43106c1.15592,1.4499 3.26664,5.19522 5.12203,4.85418c0.68984,1.67897 3.11934,1.80588 4.65063,2.78051c1.98898,1.2659 4.97788,3.31843 4.97788,3.31843c0,0 -2.69328,-1.19272 -3.71245,-1.19337c-2.88076,-0.0018 -2.44965,0.78522 -5.08389,-0.38075c-1.13411,-0.50197 -1.32728,-1.67121 -2.49652,-2.0848c-2.66642,-0.9432 -4.48479,1.35062 -5.20319,-0.70336z" data-paper-data="{&quot;origPos&quot;:null,&quot;origRot&quot;:0}" fill="#98ff7e" stroke="#256d2f" stroke-width="1" stroke-linecap="butt"/><path d="M238.94983,180.09601c0,0 0.77782,-1.18017 1.01529,-1.94274c0.36542,-1.17358 0.71315,-2.94066 0.71315,-2.94066c0.66545,-1.13706 1.35626,-1.3865 2.25508,-2.34973c0.82292,-0.88191 2.03505,-2.46115 2.03505,-2.46115c0.99699,-1.02949 5.30221,-3.68038 5.30221,-3.68038l-3.70727,-2.13147c0,0 1.34145,-0.51906 2.07544,-0.7199c4.20469,-1.15049 9.66963,-0.34712 9.76471,2.47068c0.05796,1.71781 -3.69564,-0.23318 -5.65703,1.79212c-0.82666,0.85361 0.66603,3.15081 -0.38738,4.26209c-0.86057,0.90784 -3.62081,-2.01202 -4.49308,-1.11539c-0.61427,0.63142 -0.46953,3.01567 -1.16093,3.46737c-1.09436,0.71497 -1.00185,0.03213 -2.25197,-0.35002c-0.53233,-0.16275 -0.91394,0.13924 -1.32966,0.50946c-1.71627,1.52847 -0.31376,2.52591 -2.09581,3.97714c-1.24788,1.01623 -2.07776,1.21255 -2.07776,1.21255z" data-paper-data="{&quot;origPos&quot;:null,&quot;origRot&quot;:0}" fill="url(#color-7)" stroke="#256d2f" stroke-width="1" stroke-linecap="butt"/><path d="M250.51556,164.92337c0,0 3.42205,0.37522 2.52233,0.84277c-2.9855,1.55142 -4.50321,1.44049 -7.09269,3.58874c-1.32488,1.09915 -2.47984,2.99166 -3.72856,4.17662c-3.42237,3.24765 -1.05921,5.85854 -4.98601,8.47394c-2.9401,1.9582 -10.4299,2.22126 -10.4299,2.22126" data-paper-data="{&quot;origPos&quot;:null,&quot;origRot&quot;:0}" fill="none" stroke="#287732" stroke-width="0.5" stroke-linecap="round"/><path d="M249.00263,197.99215c0,0 -2.51428,-0.51734 -4.19797,-1.10285c-1.80911,-0.62913 -3.01233,-1.22197 -4.67865,-2.16645c-2.89179,-1.63908 -0.60753,-2.21769 -3.39566,-4.0275c-3.95063,-2.56441 -8.87539,-4.71959 -12.24256,-8.01288c-2.48447,-2.43 -4.45462,-6.7153 -2.63258,-9.62338c0.75987,-1.21283 1.65546,-1.30673 1.65546,-1.30673" data-paper-data="{&quot;origPos&quot;:null,&quot;origRot&quot;:0}" fill="none" stroke="#287732" stroke-width="0.5" stroke-linecap="round"/><path d="M217.47503,152.50732c-3.15571,5.1403 -10.29253,6.49644 -15.94052,3.02907c-5.64798,-3.4674 -7.66839,-10.44531 -4.51269,-15.5856c3.15571,-5.1403 23.60892,7.41623 20.4532,12.55653z" data-paper-data="{&quot;origPos&quot;:null,&quot;origRot&quot;:0}" fill="#2e8149" stroke="#0f2c13" stroke-width="0.5" stroke-linecap="butt"/><path d="M196.00566,140.98596c0.27709,-0.58091 1.10515,-1.64287 1.10515,-1.64287c0,0 0.77048,1.60691 0.76103,2.06019c-0.02831,1.35976 -0.70207,2.82594 -0.70207,2.82594c0,0 0.95058,-1.36531 2.54849,-0.02974c0.50862,0.4251 -0.00434,2.3465 -0.00434,2.3465c0,0 2.80449,-1.11036 3.38811,0.33568c0.70787,1.75391 0.26168,3.45621 0.26168,3.45621c0,0 2.65434,-1.58037 3.42347,-1.03841c1.73906,1.22543 2.53187,2.66989 2.53187,2.66989c0,0 -1.29184,-1.61886 0.4028,-2.66803c1.24905,-0.77331 3.79609,1.44177 3.79609,1.44177c0,0 0.08283,-1.71283 0.82086,-2.29929c0.97602,-0.77554 1.62084,0.71967 1.62084,0.71967l1.17545,-1.69952c0,0 0.97385,3.16834 0.44883,4.50047c-0.70144,1.77978 -2.06589,2.77086 -3.67801,3.80078c-3.54689,2.26601 -8.63903,2.2582 -12.25583,0.10555c-1.92698,-1.14691 -2.79914,-2.33355 -4.28434,-4.01363c0,0 -1.95301,-2.92358 -2.13394,-5.43394c-0.13445,-1.86587 -0.05734,-3.69452 0.77384,-5.43724z" data-paper-data="{&quot;origPos&quot;:null,&quot;origRot&quot;:0}" fill="url(#color-8)" stroke="#0f2c13" stroke-width="0.5" stroke-linecap="butt"/></g></g></svg>