<svg version="1.1" xmlns="http://www.w3.org/2000/svg" xmlns:xlink="http://www.w3.org/1999/xlink" width="54.68968" height="64.01139" viewBox="0,0,54.68968,64.01139"><g transform="translate(-210.67355,-142.48623)"><g data-paper-data="{&quot;isPaintingLayer&quot;:true}" fill="none" fill-rule="nonzero" stroke="none" stroke-width="none" stroke-linecap="butt" stroke-linejoin="miter" stroke-miterlimit="10" stroke-dasharray="" stroke-dashoffset="0" font-family="none" font-weight="none" font-size="none" text-anchor="none" style="mix-blend-mode: normal"><path d="M229.97212,191.73172c4.76129,-0.0533 8.64178,1.75183 8.66731,4.03189c0.02552,2.28006 -3.81358,4.17162 -8.57487,4.22492c-4.76129,0.0533 -8.66729,-4.03189 -8.66729,-4.03189c0,0 3.81356,-4.17162 8.57485,-4.22492z" data-paper-data="{&quot;origRot&quot;:0,&quot;origPos&quot;:null,&quot;index&quot;:null}" fill="#2bd900" stroke="#000000" stroke-width="1.5"/><path d="M256.73338,196.58675c0,0 -4.15221,3.83468 -8.901,3.48572c-4.74879,-0.34896 -8.46298,-2.47532 -8.29588,-4.7494c0.1671,-2.27407 4.15223,-3.83469 8.90101,-3.48573c4.74879,0.34896 8.29587,4.7494 8.29587,4.7494z" data-paper-data="{&quot;origRot&quot;:0,&quot;origPos&quot;:null,&quot;index&quot;:null}" fill="#2bd900" stroke="#000000" stroke-width="1.5"/><path d="M238.54716,197.97972c0,0 -2.19826,-6.77056 -2.96158,-11.13883c-0.60262,-3.44864 -0.53849,-8.891 -0.53849,-8.891l4.43283,-0.7746c0,0 -0.90012,4.53123 -0.38589,7.47407c0.85171,4.87406 3.88596,12.55577 3.88596,12.55577z" data-paper-data="{&quot;origPos&quot;:null,&quot;origRot&quot;:0}" fill="#a9ff59" stroke="#000000" stroke-width="2"/><path d="M218.90896,145.8667c2.85298,2.95705 4.01784,6.46176 2.60179,7.82797c-1.41605,1.36622 -4.87679,0.07659 -7.72977,-2.88047c-2.85298,-2.95705 -2.60179,-7.82797 -2.60179,-7.82797c0,0 4.87679,-0.07659 7.72977,2.88047z" data-paper-data="{&quot;origRot&quot;:0,&quot;origPos&quot;:null}" fill="#2fe500" stroke="#000000" stroke-width="1"/><path d="M255.59894,163.11652c0,8.78187 -8.21877,15.90098 -18.35715,15.90098c-10.13837,0 -18.35715,-7.11911 -18.35715,-15.90098c0,-8.78187 8.21877,-15.90097 18.35715,-15.90097c10.13837,0 18.35715,7.11911 18.35715,15.90097z" data-paper-data="{&quot;origPos&quot;:null}" fill="#a9ff59" stroke="#000000" stroke-width="3"/><path d="M242.57437,158.0312c0.63467,2.1835 0.12291,4.31513 -1.14306,4.76112c-1.26596,0.44599 -2.80674,-0.96254 -3.44141,-3.14604c-0.63467,-2.1835 -0.12291,-4.31513 1.14306,-4.76112c1.26596,-0.44599 2.80673,0.96254 3.4414,3.14604z" data-paper-data="{&quot;origPos&quot;:null,&quot;origRot&quot;:0}" fill="#000000" stroke="none" stroke-width="0"/><path d="M248.61098,157.23767c0.4781,1.64486 0.09259,3.25062 -0.86107,3.58659c-0.95367,0.33597 -2.11433,-0.72509 -2.59243,-2.36995c-0.4781,-1.64486 -0.0926,-3.25062 0.86107,-3.58659c0.95367,-0.33597 2.11434,0.72509 2.59244,2.36995z" data-paper-data="{&quot;origPos&quot;:null,&quot;origRot&quot;:0}" fill="#000000" stroke="none" stroke-width="0"/><path d="M264.2593,168.45166c-0.56287,5.68305 -4.15618,9.99226 -8.0259,9.62487c-3.86972,-0.36739 -6.55045,-5.27224 -5.98758,-10.9553c0.56287,-5.68305 4.15619,-9.99226 8.0259,-9.62487c3.86971,0.36739 6.55044,5.27225 5.98757,10.9553z" data-paper-data="{&quot;origPos&quot;:null,&quot;origRot&quot;:0}" fill="#a9ff59" stroke="#000000" stroke-width="2"/><path d="M256.24025,167.56146c-0.23084,2.80439 -1.54152,4.98914 -2.9275,4.87979c-1.38597,-0.10935 -2.3224,-2.47142 -2.09156,-5.2758c0.23084,-2.80438 1.54152,-4.98914 2.92749,-4.87978c1.38597,0.10935 2.32241,2.47141 2.09157,5.2758z" data-paper-data="{&quot;origRot&quot;:0,&quot;origPos&quot;:null}" fill="#84c746" stroke="none" stroke-width="0"/><path d="M241.12031,188.28965c0,1.77518 -1.51132,3.21422 -3.37564,3.21422c-1.86432,0 -3.37563,-1.43905 -3.37563,-3.21422c0,-1.77518 1.51132,-3.21422 3.37563,-3.21422c1.86432,0 3.37564,1.43905 3.37564,3.21422z" data-paper-data="{&quot;origPos&quot;:null}" fill="#a9ff59" stroke="#000000" stroke-width="0.5"/><path d="M229.64217,196.56697c4.85511,-1.89936 9.52828,-1.55434 10.43784,0.77065c0.90955,2.32498 -2.28895,5.74948 -7.14405,7.64884c-4.85511,1.89936 -10.43783,-0.77065 -10.43783,-0.77065c0,0 2.28894,-5.74948 7.14404,-7.64884z" data-paper-data="{&quot;origRot&quot;:0,&quot;origPos&quot;:null}" fill="#2fe500" stroke="#000000" stroke-width="2"/><path d="M256.46961,204.10549c0,0 -5.60728,2.61802 -10.44454,0.67363c-4.83725,-1.94439 -8.0038,-5.39845 -7.07268,-7.71488c0.93111,-2.31643 5.60729,-2.61803 10.44455,-0.67364c4.83725,1.94439 7.07267,7.71489 7.07267,7.71489z" data-paper-data="{&quot;origRot&quot;:0,&quot;origPos&quot;:null,&quot;index&quot;:null}" fill="#2fe500" stroke="#000000" stroke-width="2"/></g></g></svg>