<svg version="1.1" xmlns="http://www.w3.org/2000/svg" xmlns:xlink="http://www.w3.org/1999/xlink" width="79.32049" height="62.70838" viewBox="0,0,79.32049,62.70838"><defs><linearGradient x1="239.97408" y1="191.00522" x2="239.97408" y2="207.40819" gradientUnits="userSpaceOnUse" id="color-1"><stop offset="0" stop-color="#24693c"/><stop offset="1" stop-color="#4ecc71"/></linearGradient><radialGradient cx="239.44776" cy="175.41637" r="21.1235" gradientUnits="userSpaceOnUse" id="color-2"><stop offset="0" stop-color="#b3fa98"/><stop offset="1" stop-color="#05ac26"/></radialGradient><radialGradient cx="228.86658" cy="152.58096" r="14.99911" gradientUnits="userSpaceOnUse" id="color-3"><stop offset="0" stop-color="#036617"/><stop offset="1" stop-color="#037019"/></radialGradient><radialGradient cx="240.54467" cy="174.25572" r="6.67932" gradientUnits="userSpaceOnUse" id="color-4"><stop offset="0" stop-color="#adeba3"/><stop offset="1" stop-color="#32c144"/></radialGradient><linearGradient x1="235.72659" y1="182.84562" x2="235.72659" y2="200.64682" gradientUnits="userSpaceOnUse" id="color-5"><stop offset="0" stop-color="#a8d9ab"/><stop offset="1" stop-color="#50d844"/></linearGradient><radialGradient cx="238.70778" cy="175.72208" r="11.33088" gradientUnits="userSpaceOnUse" id="color-6"><stop offset="0" stop-color="#a5f48f"/><stop offset="1" stop-color="#32c144"/></radialGradient><linearGradient x1="247.9057" y1="164.13304" x2="247.9057" y2="181.74797" gradientUnits="userSpaceOnUse" id="color-7"><stop offset="0" stop-color="#baffa7"/><stop offset="1" stop-color="#82ff63"/></linearGradient><radialGradient cx="197.87143" cy="152.84209" r="10.59119" gradientUnits="userSpaceOnUse" id="color-8"><stop offset="0" stop-color="#c8d6ca"/><stop offset="1" stop-color="#05ad27"/></radialGradient><radialGradient cx="192.1892" cy="156.82955" r="9.57427" gradientUnits="userSpaceOnUse" id="color-9"><stop offset="0" stop-color="#83dd6c"/><stop offset="1" stop-color="#28bd46"/></radialGradient><radialGradient cx="203.38536" cy="156.9231" r="7.29369" gradientUnits="userSpaceOnUse" id="color-10"><stop offset="0" stop-color="#83dd6c"/><stop offset="1" stop-color="#5dc572"/></radialGradient><linearGradient x1="196.69663" y1="156.46736" x2="198.01464" y2="168.99823" gradientUnits="userSpaceOnUse" id="color-11"><stop offset="0" stop-color="#53db7a"/><stop offset="1" stop-color="#24693c"/></linearGradient></defs><g transform="translate(-185.36291,-145.18677)"><g data-paper-data="{&quot;isPaintingLayer&quot;:true}" fill="none" fill-rule="nonzero" stroke="none" stroke-width="none" stroke-linecap="none" stroke-linejoin="miter" stroke-miterlimit="10" stroke-dasharray="" stroke-dashoffset="0" font-family="none" font-weight="none" font-size="none" text-anchor="none" style="mix-blend-mode: normal"><path d="M264.18341,196.78896c0,2.05192 -4.26823,5.3969 -5.73777,5.1516c-2.11483,-0.35301 -7.01737,-4.94385 -7.01737,-4.94385c0,0 3.77493,2.47919 4.84327,4.47218c1.04941,1.95763 1.53572,5.11132 -0.54563,5.66005c-0.78315,0.20647 -2.16144,-4.07958 -2.91078,-3.76452c-0.48904,0.20562 -0.19205,0.90011 -0.38131,1.41446c-0.46403,1.26101 -0.62626,2.07082 -1.91653,2.1474c-2.43843,0.14472 -1.15897,-3.82453 -3.49524,-3.08021c-1.28143,0.40825 -1.05952,1.11468 -2.07965,2.02242c-2.00626,1.78521 -2.5189,1.52666 -5.15345,1.52666c-3.23093,0 -6.72813,-6.82012 -6.72813,-6.82012c0,0 -8.87558,5.80446 -13.61438,3.40515c-1.7722,-0.89729 1.00858,-3.69416 2.55358,-4.97045c1.30499,-1.07803 4.00649,-1.43148 4.00649,-1.43148c0,0 -4.7619,1.0473 -6.79884,0.24077c-1.72024,-0.68114 -3.44296,-2.29397 -3.44296,-4.2171c0,-1.27932 7.52339,-0.1749 7.52339,-0.1749c0,0 -3.78999,-1.47362 -2.17165,-1.93843c6.61176,-1.899 30.21609,2.37702 32.38703,2.86475c0.72366,0.16258 6.77223,-1.36996 7.2283,-0.76049c0.69914,0.93429 -2.55872,3.70814 -2.55872,3.70814c0,0 6.01029,-4.13562 6.01029,-0.51203z" data-paper-data="{&quot;origPos&quot;:null}" fill="url(#color-1)" stroke="#0f2c13" stroke-width="1" stroke-linecap="butt"/><path d="M220.1034,176.67107v-2.76629h2.48966v2.76629z" data-paper-data="{&quot;origPos&quot;:null}" fill="#1c5324" stroke="none" stroke-width="0" stroke-linecap="butt"/><path d="M261.91767,181.88728c0,10.93456 -8.99461,19.79877 -21.44564,19.79877c-12.45103,0 -19.79723,-8.86421 -19.79723,-19.79877c0,-7.64184 2.01,-10.17069 5.5737,-11.53488c2.58033,-0.98775 1.24441,-4.30197 1.97099,-6.96765c0.41142,-1.50942 1.75869,-3.1986 3.09877,-2.39126c2.06409,1.24351 4.72968,3.87391 4.72968,3.87391c0,0 0.57469,-4.51695 2.76081,-2.96485c2.45507,1.74304 4.36004,2.4601 6.20977,4.22577c0,0 16.89917,4.82442 16.89917,15.75897z" data-paper-data="{&quot;origPos&quot;:null}" fill="url(#color-2)" stroke="#000000" stroke-width="1.5" stroke-linecap="butt"/><path d="M251.59719,188.01275c0.27631,2.25701 -0.57066,4.27901 -1.89177,4.51621c-1.32109,0.23722 -2.61607,-1.40018 -2.89238,-3.6572c-0.27631,-2.25701 0.57066,-4.27901 1.89177,-4.51621c1.32109,-0.23722 2.61606,1.40018 2.89236,3.65718z" data-paper-data="{&quot;origPos&quot;:null,&quot;origRot&quot;:0}" fill="#000000" stroke="none" stroke-width="0" stroke-linecap="butt"/><path d="M257.40953,186.10544c0.1873,1.70267 -0.46932,3.21789 -1.46663,3.38437c-0.99732,0.16648 -1.95762,-1.07881 -2.14493,-2.78149c-0.1873,-1.70267 0.46931,-3.21789 1.46663,-3.38437c0.99732,-0.16648 1.95764,1.07882 2.14495,2.78148z" data-paper-data="{&quot;origPos&quot;:null,&quot;origRot&quot;:0}" fill="#000000" stroke="none" stroke-width="0" stroke-linecap="butt"/><path d="M236.49967,165.69876c0.25775,-1.14166 2.08853,-1.65886 2.09998,-1.639c0.93891,-0.19312 1.14318,0.2274 1.32616,0.67349c0.54893,1.33828 4.80687,4.47894 4.80687,4.47894c0,0 -8.74491,-1.24605 -8.233,-3.51343z" data-paper-data="{&quot;origPos&quot;:null,&quot;index&quot;:null}" fill="#287732" stroke="none" stroke-width="0" stroke-linecap="butt"/><path d="M233.7965,166.77525l-6.02086,-12.65329c0,0 -2.7428,-0.74789 -4.93412,0.11804c-5.42159,2.14237 -13.90405,7.51997 -13.90405,7.51997l1.19917,-3.32041c0,0 5.98693,-3.86053 10.03667,-5.63283c3.89543,-1.70479 9.57059,-1.84499 9.57059,-1.84499l10.00467,16.95337z" data-paper-data="{&quot;origPos&quot;:null,&quot;origRot&quot;:0}" fill="url(#color-3)" stroke="#0f2c13" stroke-width="0.5" stroke-linecap="butt"/><path d="M236.59668,177.4598c0,0 -2.63452,-7.47561 0.96309,-10.59354c1.43488,0.15828 1.60014,0.89355 3.0642,0.72308c0.81057,-0.09438 -1.46494,-3.29987 -0.66246,-3.44803c1.27805,-0.23595 3.27113,0.61558 4.37005,1.30947c1.95379,1.23368 4.57485,2.6996 4.57485,2.6996c0,0 -1.08007,3.52708 -4.53169,6.51848c-2.04149,1.76929 -7.77805,2.79093 -7.77805,2.79093z" data-paper-data="{&quot;origPos&quot;:null}" fill="url(#color-4)" stroke="#256d2f" stroke-width="0.5" stroke-linecap="butt"/><path d="M249.79674,187.46844c0.12534,1.02387 -0.25887,1.94112 -0.85818,2.04873c-0.5993,0.10761 -1.18675,-0.63518 -1.3121,-1.65905c-0.12534,-1.02387 0.25887,-1.94112 0.85818,-2.04873c0.5993,-0.10761 1.18675,0.63518 1.31209,1.65904z" data-paper-data="{&quot;origPos&quot;:null,&quot;origRot&quot;:0}" fill="#ffffff" stroke="none" stroke-width="0" stroke-linecap="butt"/><path d="M255.83935,185.36965c0.06388,0.58064 -0.16005,1.09738 -0.50016,1.15416c-0.3401,0.05678 -0.6676,-0.3679 -0.73148,-0.94855c-0.06388,-0.58064 0.16005,-1.09738 0.50016,-1.15416c0.3401,-0.05678 0.6676,0.36791 0.73147,0.94855z" data-paper-data="{&quot;origPos&quot;:null,&quot;origRot&quot;:0}" fill="#ffffff" stroke="none" stroke-width="0" stroke-linecap="butt"/><path d="M229.98163,170.47231c0,0 -0.55754,-5.62866 -0.00861,-6.96693c0.18297,-0.44609 0.38725,-1.2679 1.32616,-1.07479c0.01145,-0.01986 1.84223,0.65787 2.09998,1.79953c0.51191,2.26738 -0.09945,0.78465 -0.09945,0.78465z" data-paper-data="{&quot;origPos&quot;:null}" fill="#287732" stroke="none" stroke-width="0" stroke-linecap="butt"/><path d="M241.51442,183.41519c0,0 0.93421,-5.58829 2.6088,-5.43198c3.45629,0.32262 5.34225,4.18081 5.34225,4.18081c0,0 -2.89307,-1.30844 -4.27587,-1.09085c-1.72021,0.27069 -3.67519,2.34203 -3.67519,2.34203z" data-paper-data="{&quot;origPos&quot;:null,&quot;origRot&quot;:0}" fill="#05ac26" stroke="#000000" stroke-width="0.5" stroke-linecap="butt"/><path d="M253.59425,181.1734c0,0 0.41036,-3.54152 2.10412,-4.47537c1.59787,-0.88099 4.53939,3.47214 4.53939,3.47214c0,0 -2.17156,-1.31281 -3.62007,-1.13963z" data-paper-data="{&quot;origPos&quot;:null,&quot;index&quot;:null,&quot;origRot&quot;:0}" fill="#05ac26" stroke="#000000" stroke-width="0.5" stroke-linecap="butt"/><path d="M229.86136,197.85459c-9.31009,-5.53335 -8.11532,-15.00897 -8.11532,-15.00897c0,0 1.81981,2.31614 3.48936,3.52113c2.89898,2.09231 5.27897,2.89868 8.35787,4.71589c1.07262,0.63307 3.30279,0.95609 4.27355,1.73642c1.04675,0.84142 1.19652,2.00265 1.97062,3.10012c0.56076,0.79502 1.20418,0.69842 2.0726,1.13699c2.90936,1.46929 7.84692,1.93282 7.84692,1.93282c0,0 -10.58552,4.39896 -19.89561,-1.1344z" data-paper-data="{&quot;origPos&quot;:null}" fill="url(#color-5)" stroke="#287732" stroke-width="0" stroke-linecap="butt"/><path d="M221.68842,186.08169c0,0 -3.00232,-6.46052 -1.58566,-10.2539c1.41666,-3.79338 4.8755,-1.86825 6.53757,-3.25475c1.74595,-1.45648 2.05743,-1.46541 3.58711,-3.14758c1.16773,-1.28413 0.86266,-4.12853 2.27962,-5.13093c0.98323,-0.69556 1.83235,0.20503 3.01285,0.44367c1.28933,0.26065 1.39079,4.53554 1.39079,4.53554c0,0 2.8819,-0.5568 2.45728,1.61144c-0.36576,1.86766 -1.56142,1.1313 -1.46001,3.03173c0.12208,2.28781 2.62791,-0.32607 2.40496,1.95412c-0.34608,3.53952 -0.64725,5.21747 -2.87368,7.99074c0,0 -5.58084,2.08811 -8.55028,2.43162c-3.58542,0.41476 -7.20057,-0.2117 -7.20057,-0.2117z" data-paper-data="{&quot;origPos&quot;:null}" fill="url(#color-6)" stroke="#256d2f" stroke-width="0.5" stroke-linecap="butt"/><path d="M221.47519,190.10935c-0.85149,-2.00247 0.15365,-2.61351 -0.9124,-4.4285c-0.46515,-0.79192 -0.94529,-0.29208 -1.86052,-0.3686c-1.2454,-0.10412 -2.82906,-0.10366 -3.11169,-1.32102c-0.31664,-1.36387 1.97549,-3.24471 1.97549,-3.24471c0,0 -4.35351,-0.53149 -4.2109,-3.4209c0.14789,-2.99634 4.39419,-2.88916 4.79908,-3.57543c0.68145,-1.15502 -0.11278,-2.3673 1.19734,-2.65371c0.84219,-0.18411 2.56808,2.64809 2.48809,1.78973c-0.10361,-1.11184 3.38005,0.10913 3.38005,0.10913l-2.50833,1.55977c0,0 -2.30009,0.59751 -2.12232,2.5625c0.33825,3.73885 -0.33188,3.52498 2.19577,6.30066c1.24848,1.371 3.60019,4.96991 5.42925,4.50794c0.79843,1.63012 3.231,1.5975 4.82291,2.46963c2.0677,1.13279 5.18473,2.98496 5.18473,2.98496c0,0 -2.76568,-1.01359 -3.7827,-0.94741c-2.87468,0.18705 -2.3929,0.94412 -5.09793,-0.04664c-1.16457,-0.42654 -1.434,-1.5806 -2.62783,-1.91666c-2.72252,-0.76639 -4.3866,1.64173 -5.23809,-0.36074z" data-paper-data="{&quot;origPos&quot;:null}" fill="#98ff7e" stroke="#256d2f" stroke-width="1" stroke-linecap="butt"/><path d="M238.64795,181.74796c0,0 0.69879,-1.22861 0.88574,-2.00513c0.28768,-1.195 0.51884,-2.98108 0.51884,-2.98108c0.58946,-1.17823 1.26245,-1.47244 2.09619,-2.49252c0.76334,-0.93396 1.86932,-2.58927 1.86932,-2.58927c0.92736,-1.09263 5.04951,-4.02007 5.04951,-4.02007l-3.83903,-1.88383c0,0 1.30453,-0.60588 2.0238,-0.85441c4.12021,-1.42364 9.62608,-0.98029 9.90567,1.82523c0.17044,1.71032 -3.70296,0.00959 -5.52737,2.15914c-0.76893,0.90598 0.87117,3.10038 -0.10713,4.27832c-0.79921,0.96232 -3.74494,-1.77032 -4.55655,-0.81844c-0.57155,0.67033 -0.27083,3.03995 -0.93112,3.53602c-1.04513,0.78519 -0.99758,0.09774 -2.27006,-0.20165c-0.54188,-0.12749 -0.90285,0.19885 -1.29341,0.59554c-1.61237,1.63769 -0.14749,2.54106 -1.83057,4.106c-1.17858,1.09586 -1.99382,1.34616 -1.99382,1.34616z" data-paper-data="{&quot;origPos&quot;:null}" fill="url(#color-7)" stroke="#256d2f" stroke-width="1" stroke-linecap="butt"/><path d="M249.19411,165.84976c0,0 3.43929,0.15008 2.57216,0.6756c-2.87737,1.74381 -4.39911,1.73263 -6.84216,4.04599c-1.24998,1.18363 -2.27839,3.1478 -3.44673,4.41208c-3.2021,3.46504 -0.67287,5.91538 -4.41976,8.78257c-2.8054,2.14674 -10.26184,2.90022 -10.26184,2.90022" data-paper-data="{&quot;origPos&quot;:null}" fill="none" stroke="#287732" stroke-width="0.5" stroke-linecap="round"/><path d="M249.85235,198.94654c0,0 -2.5428,-0.35141 -4.26121,-0.82527c-1.84647,-0.50917 -3.08594,-1.02184 -4.81061,-1.85506c-2.99301,-1.44598 -0.75161,-2.17309 -3.65237,-3.79622c-4.11025,-2.2999 -9.16571,-4.12758 -12.74153,-7.19305c-2.63845,-2.26189 -4.88527,-6.40882 -3.2578,-9.43008c0.67873,-1.26003 1.56623,-1.41244 1.56623,-1.41244" data-paper-data="{&quot;origPos&quot;:null}" fill="none" stroke="#287732" stroke-width="0.5" stroke-linecap="round"/><path d="M209.97808,159.07513c-0.19745,6.02844 -5.72721,10.73959 -12.35107,10.52265c-6.62386,-0.21696 -11.8335,-5.27984 -11.63605,-11.30829c0.19745,-6.02844 24.18458,-5.24281 23.98713,0.78564z" data-paper-data="{&quot;origPos&quot;:null,&quot;origRot&quot;:0}" fill="#2e8149" stroke="#0f2c13" stroke-width="0.5" stroke-linecap="butt"/><path d="M187.05044,159.00138c-0.61186,-5.81725 3.58149,-11.28055 9.39876,-11.89242c5.81725,-0.61186 11.05554,3.85939 11.6674,9.67667c0.61186,5.81725 -3.58149,11.28055 -9.39876,11.89242c-5.81725,0.61186 -11.05554,-3.85939 -11.6674,-9.67667z" data-paper-data="{&quot;origPos&quot;:null,&quot;origRot&quot;:0}" fill="url(#color-8)" stroke="#000000" stroke-width="1" stroke-linecap="butt"/><path d="M205.5405,163.78986c-1.66301,2.22876 -2.29983,2.08918 -3.7459,2.21365c-2.76428,0.23795 -7.09573,-1.42742 -7.09573,-1.42742c0,0 4.23113,-1.32528 6.14108,-3.34905c1.70269,-1.80416 2.28685,-3.95106 1.36293,-6.25334c-0.60968,-1.51921 -1.82078,-2.4459 -2.02252,-4.07041c-0.11346,-0.91359 1.00636,-2.39293 1.00636,-2.39293c0,0 0.63555,0.67277 2.33728,1.42012c1.1424,0.50171 1.8153,1.98727 2.59137,2.96424c1.05447,1.32741 1.08279,2.61709 1.26011,4.30306c0.3995,3.79828 -0.28053,4.50875 -1.83501,6.59205z" data-paper-data="{&quot;origPos&quot;:null,&quot;index&quot;:null,&quot;origRot&quot;:0}" fill="#27b33c" stroke="#1c802b" stroke-width="0.5" stroke-linecap="butt"/><path d="M187.75995,159.03268c-0.21504,-2.04447 0.00137,-3.63478 0.91717,-5.47528c0.67403,-1.35461 1.65901,-2.83167 2.88744,-3.71499c1.82989,-1.31582 4.80519,-2.01181 4.80519,-2.01181c0,0 -2.74035,5.5597 -3.03563,7.259c-0.51501,2.96388 0.71953,5.36297 3.19431,7.07331c2.77604,1.91853 8.129,2.42294 8.129,2.42294c0,0 -3.88576,4.50804 -8.02871,3.40557c0,0 -3.11177,-0.53531 -4.85784,-1.92908c-2.2357,-1.7846 -3.52648,-2.42366 -4.01094,-7.02964z" data-paper-data="{&quot;origPos&quot;:null,&quot;origRot&quot;:0}" fill="#27b33c" stroke="#1c802b" stroke-width="0.5" stroke-linecap="butt"/><path d="M193.16856,156.4723c0,0 2.60976,-3.77318 4.24325,-3.96045c0.86852,-0.09957 1.02349,1.95319 1.76317,2.41917c0.72552,0.45707 0.69732,-0.70606 1.55428,-0.67603c0.33095,0.0116 1.39897,1.19017 1.39897,1.19017" data-paper-data="{&quot;origPos&quot;:null,&quot;origRot&quot;:0}" fill="none" stroke="#1c802b" stroke-width="0.5" stroke-linecap="round"/><path d="M198.71882,148.00725c0,0 -0.80176,0.76623 -0.92813,1.32446c-0.14615,0.64566 1.27379,0.874 1.26404,1.53592c-0.00916,0.62123 -1.37738,1.74063 -1.37738,1.74063" data-paper-data="{&quot;origPos&quot;:null,&quot;origRot&quot;:0}" fill="none" stroke="#1c802b" stroke-width="0.5" stroke-linecap="round"/><path d="M190.451,158.02931c-0.00616,-1.34374 0.65058,-0.47792 1.22187,-1.69421c0.21706,-0.46213 -1.15482,-2.00727 -0.94507,-2.47278c0.48297,-1.07192 0.89209,-0.63583 1.67576,-1.51226c0.84229,-0.94197 -1.96157,-3.36068 -1.16676,-4.34305c0.66744,-0.82495 1.42627,0.74711 2.48739,0.73997c0.72724,-0.0049 -0.02674,-2.95159 0.60594,-3.31021c0.54948,-0.31145 0.62779,0.8387 1.02108,1.33291c0.15959,0.20055 0.98538,-0.96589 1.18338,-0.80315c0.20353,0.16728 1.17122,0.53742 1.13748,0.79871c-0.03875,0.29997 -0.70306,-0.20157 -0.97285,-0.06482c-0.3,0.15206 -0.39782,0.88313 -0.39782,0.88313c0,0 -2.27034,4.26505 -2.8656,6.84682c-0.50783,2.2026 -0.32873,3.24996 0.65934,5.28297c1.52319,3.13403 6.13989,4.32072 6.13989,4.32072c0,0 -9.77031,-3.01025 -9.78403,-6.00474z" data-paper-data="{&quot;origPos&quot;:null,&quot;origRot&quot;:0}" fill="url(#color-9)" stroke="#256d2f" stroke-width="0.5" stroke-linecap="butt"/><path d="M201.669,160.74765c0,0 1.91523,-3.54844 0.84854,-5.85687c-0.88519,-1.91562 -1.8772,-2.01746 -2.14958,-4.00321c-0.30765,-2.24292 1.04183,-3.07863 1.04183,-3.07863c0,0 -1.50882,-1.60213 -1.1919,-1.18445c0.46561,0.61366 1.31758,-0.95219 1.91866,-0.47045c0.41733,0.33449 0.05491,0.5567 0.50717,1.6558c0.14775,0.35906 1.03723,0.66099 1.05909,1.04864c0.04237,0.75137 -0.99005,1.10326 -1.10911,1.84636c-0.16746,1.04511 2.5925,2.1664 2.71758,3.21741c0.24264,2.03872 -0.26756,0.54821 -1.29307,2.11201c-0.9181,1.40002 1.23767,0.03472 1.27693,1.70847c0.06187,2.63792 -3.62613,3.00491 -3.62613,3.00491z" data-paper-data="{&quot;origPos&quot;:null,&quot;origRot&quot;:0}" fill="url(#color-10)" stroke="#256d2f" stroke-width="0.5" stroke-linecap="butt"/><path d="M185.62042,159.69196c-0.04682,-0.64189 0.14702,-1.97452 0.14702,-1.97452c0,0 1.4649,1.01484 1.68106,1.41334c0.6485,1.19551 0.78887,2.80295 0.78887,2.80295c0,0 0.15011,-1.65685 2.19963,-1.28738c0.65237,0.11761 1.15778,2.04101 1.15778,2.04101c0,0 1.88714,-2.35303 3.11003,-1.38549c1.48326,1.17354 1.93824,2.87353 1.93824,2.87353c0,0 1.52402,-2.68711 2.46059,-2.59692c2.11765,0.20391 3.52153,1.06653 3.52153,1.06653c0,0 -1.92381,-0.76714 -0.97073,-2.51763c0.70247,-1.2902 4.01205,-0.62638 4.01205,-0.62638c0,0 -0.7759,-1.52926 -0.42494,-2.40413c0.46414,-1.15698 1.76458,-0.17703 1.76458,-0.17703l0.18004,-2.05854c0,0 2.41453,2.27085 2.61778,3.68821c0.27155,1.89366 -0.42342,3.4302 -1.31433,5.12312c-1.96015,3.72467 -6.3885,6.23852 -10.5967,6.15849c-2.24204,-0.04265 -3.58724,-0.64198 -5.70939,-1.36659c0,0 -3.14415,-1.57347 -4.54401,-3.66515c-1.04047,-1.55468 -1.87866,-3.18173 -2.01911,-5.10743z" data-paper-data="{&quot;origPos&quot;:null,&quot;origRot&quot;:0}" fill="url(#color-11)" stroke="#0f2c13" stroke-width="0.5" stroke-linecap="butt"/></g></g></svg>