<svg version="1.1" xmlns="http://www.w3.org/2000/svg" xmlns:xlink="http://www.w3.org/1999/xlink" width="56.15077" height="59.37873" viewBox="0,0,56.15077,59.37873"><g transform="translate(-216.9113,-147.42303)"><g data-paper-data="{&quot;isPaintingLayer&quot;:true}" fill="none" fill-rule="nonzero" stroke="none" stroke-width="none" stroke-linecap="none" stroke-linejoin="miter" stroke-miterlimit="10" stroke-dasharray="" stroke-dashoffset="0" font-family="none" font-weight="none" font-size="none" text-anchor="none" style="mix-blend-mode: normal"><path d="M230.61393,191.3634c4.70628,0.72373 8.2405,3.1374 7.89393,5.39112c-0.34658,2.25371 -4.44273,3.49399 -9.14898,2.77027c-4.70628,-0.72373 -7.8939,-5.39113 -7.8939,-5.39113c0,0 4.44271,-3.49401 9.14896,-2.77028z" data-paper-data="{&quot;origRot&quot;:0,&quot;origPos&quot;:null,&quot;index&quot;:null}" fill="#2bd900" stroke="#000000" stroke-width="1.5" stroke-linecap="butt"/><path d="M255.90996,195.1778c0,0 -3.48248,4.45173 -8.22567,4.86994c-4.7432,0.41821 -8.75067,-1.08407 -8.95094,-3.35547c-0.20028,-2.2714 3.48251,-4.45175 8.22568,-4.86996c4.7432,-0.41821 8.95093,3.35548 8.95093,3.35548z" data-paper-data="{&quot;origRot&quot;:0,&quot;origPos&quot;:null,&quot;index&quot;:null}" fill="#2bd900" stroke="#000000" stroke-width="1.5" stroke-linecap="butt"/><path d="M234.92114,197.2918c0,0 1.13118,-7.02803 2.4439,-11.26375c1.03637,-3.34399 3.57529,-8.15827 3.57529,-8.15827l4.2983,1.33212c0,0 -2.86742,3.62216 -3.7518,6.47569c-1.46471,4.72614 -2.2674,12.94631 -2.2674,12.94631z" data-paper-data="{&quot;origPos&quot;:null,&quot;origRot&quot;:0}" fill="#a9ff59" stroke="#000000" stroke-width="2" stroke-linecap="butt"/><path d="M225.75097,149.58868c3.88886,1.32681 6.52633,3.9121 5.89094,5.77435c-0.63537,1.86227 -4.30299,2.29634 -8.19185,0.9695c-3.88886,-1.32681 -5.89094,-5.77435 -5.89094,-5.77435c0,0 4.30299,-2.29634 8.19185,-0.9695z" data-paper-data="{&quot;origRot&quot;:0,&quot;origPos&quot;:null}" fill="#2fe500" stroke="#000000" stroke-width="1" stroke-linecap="butt"/><path d="M264.34973,164.824c0,8.78187 -8.21877,15.90098 -18.35715,15.90098c-10.13837,0 -18.35715,-7.11911 -18.35715,-15.90098c0,-8.78187 8.21877,-15.90097 18.35715,-15.90097c10.13837,0 18.35715,7.11911 18.35715,15.90097z" data-paper-data="{&quot;origPos&quot;:null}" fill="#a9ff59" stroke="#000000" stroke-width="3" stroke-linecap="butt"/><path d="M272.06207,169.96614c-0.4994,5.04233 -3.6876,8.86571 -7.12104,8.53976c-3.43344,-0.32598 -5.81193,-4.67783 -5.31252,-9.72018c0.4994,-5.04233 3.68762,-8.86571 7.12104,-8.53976c3.43343,0.32598 5.81191,4.67784 5.31252,9.72018z" data-paper-data="{&quot;origPos&quot;:null,&quot;origRot&quot;:0}" fill="#a9ff59" stroke="#000000" stroke-width="2" stroke-linecap="butt"/><path d="M264.9471,169.17631c-0.20482,2.48821 -1.36772,4.42666 -2.59746,4.32963c-1.22972,-0.09702 -2.06056,-2.19279 -1.85575,-4.681c0.20482,-2.48821 1.36772,-4.42666 2.59745,-4.32962c1.22972,0.09702 2.06057,2.19279 1.85576,4.681z" data-paper-data="{&quot;origRot&quot;:0,&quot;origPos&quot;:null}" fill="#84c746" stroke="none" stroke-width="0" stroke-linecap="butt"/><path d="M230.36442,195.90348c5.11262,-1.02015 9.65324,0.13758 10.14178,2.58589c0.48852,2.44829 -3.26005,5.26002 -8.37267,6.28018c-5.11262,1.02015 -10.14177,-2.58589 -10.14177,-2.58589c0,0 3.26004,-5.26003 8.37266,-6.28018z" data-paper-data="{&quot;origRot&quot;:0,&quot;origPos&quot;:null}" fill="#2fe500" stroke="#000000" stroke-width="2" stroke-linecap="butt"/><path d="M256.09603,204.67454c0,0 -5.71375,2.37668 -10.46376,0.22793c-4.74999,-2.14876 -7.76648,-5.73462 -6.73749,-8.00927c1.02898,-2.27464 5.71377,-2.3767 10.46377,-0.22794c4.74999,2.14876 6.73748,8.00928 6.73748,8.00928z" data-paper-data="{&quot;origRot&quot;:0,&quot;origPos&quot;:null,&quot;index&quot;:null}" fill="#2fe500" stroke="#000000" stroke-width="2" stroke-linecap="butt"/><path d="M252.58868,157.44351l-4.26867,0.85373" fill="none" stroke="#000000" stroke-width="0.5" stroke-linecap="round"/><path d="M257.49765,156.58978l-2.77464,0.42686" fill="none" stroke="#000000" stroke-width="0.5" stroke-linecap="round"/><path d="M254.81862,164.80345c0,0 3.15888,-0.38764 4.15036,0.87119c1.15079,1.46107 1.33892,6.0982 1.33892,6.0982" data-paper-data="{&quot;origPos&quot;:null,&quot;origRot&quot;:0}" fill="none" stroke="#000000" stroke-width="1" stroke-linecap="round"/></g></g></svg>