<svg version="1.1" xmlns="http://www.w3.org/2000/svg" xmlns:xlink="http://www.w3.org/1999/xlink" width="545.64979" height="477.36529" viewBox="0,0,545.64979,477.36529"><defs><radialGradient cx="381" cy="48.8125" r="252" gradientUnits="userSpaceOnUse" id="color-1"><stop offset="0" stop-color="#30f100"/><stop offset="1" stop-color="#26c000"/></radialGradient><linearGradient x1="18" y1="24.8125" x2="329" y2="24.8125" gradientUnits="userSpaceOnUse" id="color-2"><stop offset="0" stop-color="#e6b44e"/><stop offset="1" stop-color="#e6c74e"/></linearGradient><linearGradient x1="0" y1="149.3125" x2="56" y2="149.3125" gradientUnits="userSpaceOnUse" id="color-3"><stop offset="0" stop-color="#e5dd7e"/><stop offset="1" stop-color="#e6d842"/></linearGradient><linearGradient x1="1" y1="272.8125" x2="53" y2="272.8125" gradientUnits="userSpaceOnUse" id="color-4"><stop offset="0" stop-color="#c3bc6b"/><stop offset="1" stop-color="#f8eb5e"/></linearGradient><radialGradient cx="36" cy="102.8125" r="21.30073" gradientUnits="userSpaceOnUse" id="color-5"><stop offset="0" stop-color="#5affeb"/><stop offset="1" stop-color="#96fff6"/></radialGradient><radialGradient cx="28" cy="214.8125" r="21.30073" gradientUnits="userSpaceOnUse" id="color-6"><stop offset="0" stop-color="#5affeb"/><stop offset="1" stop-color="#96fff6"/></radialGradient><radialGradient cx="449.26744" cy="0.39814" r="163.66073" gradientUnits="userSpaceOnUse" id="color-7"><stop offset="0" stop-color="#ffe900"/><stop offset="1" stop-color="#ffe900" stop-opacity="0"/></radialGradient></defs><g transform="translate(16.06611,115.36529)"><g data-paper-data="{&quot;isPaintingLayer&quot;:true}" fill="none" fill-rule="nonzero" stroke="none" stroke-width="none" stroke-linecap="none" stroke-linejoin="miter" stroke-miterlimit="10" stroke-dasharray="" stroke-dashoffset="0" font-family="none" font-weight="none" font-size="none" text-anchor="none" style="mix-blend-mode: normal"><path d="M-15,362v-369.1875h504v369.1875z" data-paper-data="{&quot;origPos&quot;:null}" fill="url(#color-1)" stroke="none" stroke-width="0" stroke-linecap="butt"/><path d="M18,40.8125v-32h311l-13,31z" data-paper-data="{&quot;origPos&quot;:null}" fill="url(#color-2)" stroke="#000000" stroke-width="5" stroke-linecap="butt"/><path d="M0,233.8125v-245l56,74l-4,247z" data-paper-data="{&quot;origPos&quot;:null}" fill="url(#color-3)" stroke="#000000" stroke-width="4" stroke-linecap="butt"/><path d="M33,184.31718v-43.50467l21,22.14019l-0.64285,42.85982z" data-paper-data="{&quot;origPos&quot;:null}" fill="#8b5d00" stroke="#000000" stroke-width="4" stroke-linecap="butt"/><path d="M53,309.8125l-52,1v-76z" data-paper-data="{&quot;origPos&quot;:null}" fill="url(#color-4)" stroke="#000000" stroke-width="4" stroke-linecap="butt"/><path d="M40.22317,87.28798c3.4767,11.60003 1.42531,22.58169 -4.5819,24.52823c-6.00721,1.94654 -13.69543,-5.87916 -17.17213,-17.4792c-3.4767,-11.60003 -1.42532,-22.58169 4.58189,-24.52823c6.00721,-1.94654 13.69544,5.87917 17.17214,17.4792z" data-paper-data="{&quot;origPos&quot;:null,&quot;origRot&quot;:0}" fill="url(#color-5)" stroke="#000000" stroke-width="4" stroke-linecap="butt"/><path d="M33.22317,218.28798c3.4767,11.60003 1.42531,22.58169 -4.5819,24.52823c-6.00721,1.94654 -13.69543,-5.87916 -17.17213,-17.4792c-3.4767,-11.60003 -1.42532,-22.58169 4.58189,-24.52823c6.00721,-1.94654 13.69544,5.87917 17.17214,17.4792z" data-paper-data="{&quot;origPos&quot;:null,&quot;origRot&quot;:0}" fill="url(#color-6)" stroke="#000000" stroke-width="4" stroke-linecap="butt"/><path d="M34.47693,232.8125l-23.6,-17.2" fill="none" stroke="#000000" stroke-width="4" stroke-linecap="round"/><path d="M21.27692,203.2125l-1,37.4" fill="none" stroke="#000000" stroke-width="4" stroke-linecap="round"/><path d="M30.07693,72.8125l-0.4,36.6" fill="none" stroke="#000000" stroke-width="4" stroke-linecap="round"/><path d="M41.27692,100.6125l-24,-17.8" data-paper-data="{&quot;origPos&quot;:null}" fill="none" stroke="#000000" stroke-width="4" stroke-linecap="round"/><path d="M43,165.3125c0,-1.933 1.56701,-3.5 3.5,-3.5c1.93299,0 3.5,1.567 3.5,3.5c0,1.933 -1.56701,3.5 -3.5,3.5c-1.93299,0 -3.5,-1.567 -3.5,-3.5z" fill="#000000" stroke="none" stroke-width="0" stroke-linecap="butt"/><path d="M-14.03939,239.39119l10.82203,-295.8021l14.98997,0.54841l-8.55525,315.89841z" data-paper-data="{&quot;origPos&quot;:null,&quot;origRot&quot;:0}" fill="#ff0000" stroke="#000000" stroke-width="4" stroke-linecap="butt"/><path d="M438.74661,-94.91509c80.92379,42.88588 113.92122,139.17459 73.70182,215.06685c-40.2194,75.89226 -138.42536,102.64922 -219.34916,59.76334c-80.92379,-42.88588 -113.92122,-139.17459 -73.70182,-215.06685c40.2194,-75.89226 138.42536,-102.64922 219.34916,-59.76334z" data-paper-data="{&quot;origRot&quot;:0,&quot;origPos&quot;:null}" fill="url(#color-7)" stroke="none" stroke-width="0" stroke-linecap="butt"/></g></g></svg>