<svg version="1.1" xmlns="http://www.w3.org/2000/svg" xmlns:xlink="http://www.w3.org/1999/xlink" width="36.75" height="36.75"><g transform="translate(-227.3125,-161.90625)"><g data-paper-data="{&quot;isPaintingLayer&quot;:true}" fill="none" fill-rule="nonzero" stroke="#000000" stroke-width="none" stroke-linecap="none" stroke-linejoin="miter" stroke-miterlimit="10" stroke-dasharray="" stroke-dashoffset="0" font-family="none" font-weight="none" font-size="none" text-anchor="none" style="mix-blend-mode: normal"><path d="M228.3125,180.28125c0,-9.59594 7.77906,-17.375 17.375,-17.375c9.59595,0 17.375,7.77906 17.375,17.375c0,9.59595 -7.77905,17.375 -17.375,17.375c-9.59594,0 -17.375,-7.77905 -17.375,-17.375z" data-paper-data="{&quot;origPos&quot;:null}" fill="#ffffff" stroke-width="2" stroke-linecap="butt"/><path d="M247.34324,169.34315c0,8.1565 0,19.18215 0,20.9c0,0.57262 -0.60903,1.09192 -0.80682,0.97968c-0.59338,-0.33669 -8.41213,-4.95296 -8.41213,-4.95296c0,0 -4.41345,-0.03867 -5.21209,-0.02757c-0.26621,0.0037 -0.68944,-0.32871 -0.69411,-0.80118c-0.04167,-4.21443 -0.09945,-9.6249 -0.10677,-10.36561c-0.00244,-0.2469 0.48437,-0.6132 0.79839,-0.60074c0.94207,0.03737 4.83207,-0.03372 4.83207,-0.03372c0,0 7.89747,-5.12893 8.8165,-5.63387c0.30634,-0.16832 0.78496,0.15848 0.78496,0.53597z" data-paper-data="{&quot;origPos&quot;:null,&quot;origRot&quot;:0}" fill="#000000" stroke-width="0" stroke-linecap="butt"/><path d="M253.17778,174.25c0,0 1.6,3.39258 1.6,5.5c0,2.38061 -1.6,6 -1.6,6" data-paper-data="{&quot;origPos&quot;:null}" fill="none" stroke-width="1.5" stroke-linecap="round"/><path d="M257.44797,171.24063c0,0 2.43739,5.16816 2.43739,8.37853c0,3.62654 -2.43739,9.14022 -2.43739,9.14022" data-paper-data="{&quot;origPos&quot;:null}" fill="none" stroke-width="2" stroke-linecap="round"/><path d="M249.68386,176.45c0,0 0.98783,2.09455 0.98783,3.39565c0,1.46976 -0.98783,3.70435 -0.98783,3.70435" data-paper-data="{&quot;origPos&quot;:null}" fill="none" stroke-width="1" stroke-linecap="round"/></g></g></svg>