<svg version="1.1" xmlns="http://www.w3.org/2000/svg" xmlns:xlink="http://www.w3.org/1999/xlink" width="56.07659" height="42.96687" viewBox="0,0,56.07659,42.96687"><g transform="translate(-213.69347,-175.87709)"><g data-paper-data="{&quot;isPaintingLayer&quot;:true}" fill="none" fill-rule="nonzero" stroke="none" stroke-width="none" stroke-linecap="butt" stroke-linejoin="miter" stroke-miterlimit="10" stroke-dasharray="" stroke-dashoffset="0" font-family="none" font-weight="none" font-size="none" text-anchor="none" style="mix-blend-mode: normal"><path d="M227.8983,196.56739l16.85563,-10.7651l10.44214,16.34997l-16.85563,10.7651z" data-paper-data="{&quot;origPos&quot;:null,&quot;origRot&quot;:0}" fill="#c07a00" stroke="#000000" stroke-width="2"/><path d="M263.62329,200.59671c-5.49068,3.5067 -13.08962,1.42062 -16.9727,-4.65939c-3.88309,-6.08001 -2.57988,-13.85158 2.9108,-17.35829c5.49068,-3.5067 13.08962,-1.42062 16.9727,4.65939c3.88309,6.08001 2.57988,13.85158 -2.9108,17.35829z" data-paper-data="{&quot;origPos&quot;:null,&quot;origRot&quot;:0}" fill="#b2b2b2" stroke="#000000" stroke-width="2"/><path d="M259.40479,187.12422c-1.39636,0.8918 -3.11574,0.69504 -3.84033,-0.43952c-0.7246,-1.13454 -0.18,-2.77725 1.21634,-3.66904c1.39636,-0.8918 3.11574,-0.69504 3.84033,0.43952c0.7246,1.13454 0.18,2.77725 -1.21634,3.66904z" data-paper-data="{&quot;origPos&quot;:null,&quot;origRot&quot;:0}" fill="#ff0000" stroke="none" stroke-width="0"/><path d="M256.00555,182.05726c-1.25093,0.79892 -2.77706,0.64475 -3.40877,-0.34436c-0.63171,-0.9891 -0.12974,-2.43855 1.12117,-3.23749c1.25093,-0.79892 2.77706,-0.64475 3.40877,0.34436c0.63171,0.9891 0.12974,2.43855 -1.12117,3.23749z" data-paper-data="{&quot;origPos&quot;:null,&quot;origRot&quot;:0}" fill="#ff0000" stroke="none" stroke-width="0"/><path d="M214.97066,195.52313l17.39173,0.53681l-0.24681,7.9962l-17.39173,-0.53681z" data-paper-data="{&quot;origPos&quot;:null,&quot;origRot&quot;:0}" fill="#4c517f" stroke="#000000" stroke-width="2"/><path d="M217.68883,209.92737l16.88525,-4.96473l2.2567,7.67511l-16.88525,4.96473z" data-paper-data="{&quot;origPos&quot;:null,&quot;origRot&quot;:0}" fill="#4c517f" stroke="#000000" stroke-width="2"/><path d="M253.62995,181.93634l6.14145,5.73084l-13.23554,14.18381l-6.14145,-5.73084z" data-paper-data="{&quot;origPos&quot;:null,&quot;origRot&quot;:0}" fill="#c07a00" stroke="#000000" stroke-width="2"/></g></g></svg>