<svg version="1.1" xmlns="http://www.w3.org/2000/svg" xmlns:xlink="http://www.w3.org/1999/xlink" width="68.89969" height="76.77413" viewBox="0,0,68.89969,76.77413"><defs><linearGradient x1="240.19427" y1="191.00523" x2="240.19427" y2="207.4082" gradientUnits="userSpaceOnUse" id="color-1"><stop offset="0" stop-color="#24693c"/><stop offset="1" stop-color="#4ecc71"/></linearGradient><radialGradient cx="241.79259" cy="173.28279" r="21.1235" gradientUnits="userSpaceOnUse" id="color-2"><stop offset="0" stop-color="#b3fa98"/><stop offset="1" stop-color="#05ac26"/></radialGradient><radialGradient cx="240.1975" cy="152.082" r="14.99911" gradientUnits="userSpaceOnUse" id="color-3"><stop offset="0" stop-color="#036617"/><stop offset="1" stop-color="#037019"/></radialGradient><radialGradient cx="243.1296" cy="172.40944" r="6.67932" gradientUnits="userSpaceOnUse" id="color-4"><stop offset="0" stop-color="#adeba3"/><stop offset="1" stop-color="#32c144"/></radialGradient><linearGradient x1="236.44388" y1="179.6414" x2="232.29903" y2="196.95333" gradientUnits="userSpaceOnUse" id="color-5"><stop offset="0" stop-color="#a8d9ab"/><stop offset="1" stop-color="#50d844"/></linearGradient><radialGradient cx="241.00175" cy="173.40779" r="11.33088" gradientUnits="userSpaceOnUse" id="color-6"><stop offset="0" stop-color="#a5f48f"/><stop offset="1" stop-color="#32c144"/></radialGradient><linearGradient x1="252.64527" y1="164.27892" x2="248.5438" y2="181.40971" gradientUnits="userSpaceOnUse" id="color-7"><stop offset="0" stop-color="#baffa7"/><stop offset="1" stop-color="#82ff63"/></linearGradient><radialGradient cx="211.83591" cy="139.57645" r="10.59119" gradientUnits="userSpaceOnUse" id="color-8"><stop offset="0" stop-color="#c8d6ca"/><stop offset="1" stop-color="#05ad27"/></radialGradient><radialGradient cx="205.01673" cy="140.87507" r="9.57427" gradientUnits="userSpaceOnUse" id="color-9"><stop offset="0" stop-color="#83dd6c"/><stop offset="1" stop-color="#28bd46"/></radialGradient><radialGradient cx="215.18434" cy="145.56362" r="7.29369" gradientUnits="userSpaceOnUse" id="color-10"><stop offset="0" stop-color="#83dd6c"/><stop offset="1" stop-color="#5dc572"/></radialGradient><linearGradient x1="209.2745" y1="142.3981" x2="205.3239" y2="154.36275" gradientUnits="userSpaceOnUse" id="color-11"><stop offset="0" stop-color="#53db7a"/><stop offset="1" stop-color="#24693c"/></linearGradient></defs><g transform="translate(-197.10478,-131.12102)"><g data-paper-data="{&quot;isPaintingLayer&quot;:true}" fill="none" fill-rule="nonzero" stroke="none" stroke-width="none" stroke-linecap="none" stroke-linejoin="miter" stroke-miterlimit="10" stroke-dasharray="" stroke-dashoffset="0" font-family="none" font-weight="none" font-size="none" text-anchor="none" style="mix-blend-mode: normal"><path d="M265.50447,196.78897c0,2.05192 -4.46233,5.3969 -5.99869,5.1516c-2.211,-0.35301 -7.33647,-4.94385 -7.33647,-4.94385c0,0 3.94658,2.47919 5.06352,4.47218c1.09713,1.95763 1.60555,5.11132 -0.57043,5.66005c-0.81875,0.20647 -2.25973,-4.07958 -3.04313,-3.76452c-0.51129,0.20562 -0.20078,0.90011 -0.39866,1.41446c-0.48513,1.26101 -0.65474,2.07082 -2.00368,2.1474c-2.54931,0.14472 -1.21167,-3.82453 -3.65419,-3.08021c-1.3397,0.40825 -1.1077,1.11468 -2.17422,2.02242c-2.09749,1.78521 -2.63345,1.52666 -5.3878,1.52666c-3.37785,0 -7.03408,-6.82012 -7.03408,-6.82012c0,0 -9.27918,5.80446 -14.23348,3.40515c-1.85279,-0.89729 1.05445,-3.69416 2.6697,-4.97045c1.36434,-1.07803 4.18869,-1.43148 4.18869,-1.43148c0,0 -4.97845,1.0473 -7.10801,0.24077c-1.79846,-0.68114 -3.59951,-2.29397 -3.59951,-4.2171c0,-1.27932 7.86551,-0.1749 7.86551,-0.1749c0,0 -3.96234,-1.47362 -2.2704,-1.93843c6.91241,-1.899 31.59011,2.37702 33.85978,2.86475c0.75656,0.16258 7.08018,-1.36996 7.557,-0.76049c0.73094,0.93429 -2.67507,3.70814 -2.67507,3.70814c0,0 6.28359,-4.13562 6.28359,-0.51203z" data-paper-data="{&quot;origPos&quot;:null}" fill="url(#color-1)" stroke="#0f2c13" stroke-width="1" stroke-linecap="butt"/><path d="M222.68778,169.99886l0.64409,-2.69025l2.42122,0.57969l-0.64409,2.69025z" data-paper-data="{&quot;origPos&quot;:null,&quot;origRot&quot;:0}" fill="#1c5324" stroke="none" stroke-width="0" stroke-linecap="butt"/><path d="M262.13822,184.80774c-2.54602,10.63401 -13.35735,17.16028 -25.46617,14.26119c-12.10882,-2.89911 -17.18914,-13.23016 -14.64315,-23.86419c1.77933,-7.4318 4.3229,-9.42314 8.10631,-9.92007c2.73939,-0.3598 2.21187,-3.89397 3.53916,-6.31721c0.75156,-1.37215 2.4551,-2.7012 3.57039,-1.60402c1.71782,1.68994 3.69769,4.8687 3.69769,4.8687c0,0 1.61062,-4.25899 3.37528,-2.24054c1.98173,2.26677 3.66739,3.40768 5.05517,5.55551c0,0 15.31139,8.62663 12.76539,19.26064z" data-paper-data="{&quot;origPos&quot;:null,&quot;origRot&quot;:0}" fill="url(#color-2)" stroke="#000000" stroke-width="1.5" stroke-linecap="butt"/><path d="M250.67514,188.36183c-0.25679,2.25932 -1.55131,4.02854 -2.89133,3.9516c-1.34002,-0.07688 -2.21815,-1.97083 -1.96134,-4.23014c0.25679,-2.25932 1.55131,-4.02854 2.89133,-3.9516c1.34002,0.07688 2.21814,1.97082 1.96132,4.23014z" data-paper-data="{&quot;origPos&quot;:null,&quot;origRot&quot;:0}" fill="#000000" stroke="none" stroke-width="0" stroke-linecap="butt"/><path d="M256.77182,187.86029c-0.21431,1.69947 -1.20569,3.02017 -2.21434,2.94986c-1.00867,-0.07031 -1.65262,-1.50498 -1.43834,-3.20448c0.21431,-1.69947 1.20568,-3.02018 2.21434,-2.94986c1.00867,0.07031 1.65266,1.505 1.43837,3.20446z" data-paper-data="{&quot;origPos&quot;:null,&quot;origRot&quot;:0}" fill="#000000" stroke="none" stroke-width="0" stroke-linecap="butt"/><path d="M241.18819,163.14583c0.51649,-1.05027 2.41737,-1.12697 2.42389,-1.10499c0.95807,0.0308 1.05881,0.48732 1.13289,0.96377c0.22224,1.42931 3.63188,5.47507 3.63188,5.47507c0,0 -8.21443,-3.24796 -7.18865,-5.33385z" data-paper-data="{&quot;origPos&quot;:null,&quot;index&quot;:null,&quot;origRot&quot;:0}" fill="#287732" stroke="none" stroke-width="0" stroke-linecap="butt"/><path d="M238.85551,167.04799l-0.28607,-14.0098c0,0 -2.19275,-1.80945 -4.54631,-1.92105c-5.82298,-0.27615 -15.76631,1.13833 -15.76631,1.13833l2.4583,-2.53375c0,0 7.04475,-1.05762 11.46503,-1.00816c4.25188,0.04757 9.48282,2.25309 9.48282,2.25309l2.14961,19.56757z" data-paper-data="{&quot;origPos&quot;:null,&quot;origRot&quot;:0}" fill="url(#color-3)" stroke="#0f2c13" stroke-width="0.5" stroke-linecap="butt"/><path d="M238.54407,174.60621c0,0 -0.82148,-7.88356 3.40321,-10.07812c1.35859,0.48802 1.3481,1.24156 2.81162,1.41668c0.81026,0.09695 -0.65633,-3.55026 0.15858,-3.50751c1.29787,0.06811 3.0379,1.3603 3.94505,2.29102c1.61284,1.6547 3.82054,3.69063 3.82054,3.69063c0,0 -1.87163,3.17865 -5.9249,5.28416c-2.39735,1.24531 -8.21411,0.90317 -8.21411,0.90317z" data-paper-data="{&quot;origPos&quot;:null,&quot;origRot&quot;:0}" fill="url(#color-4)" stroke="#256d2f" stroke-width="0.5" stroke-linecap="butt"/><path d="M249.05092,187.41326c-0.11651,1.02491 -0.70374,1.82749 -1.31163,1.79262c-0.60789,-0.03488 -1.00623,-0.89405 -0.88972,-1.91896c0.11651,-1.02491 0.70374,-1.82749 1.31163,-1.79262c0.60789,0.03488 1.00623,0.89405 0.88972,1.91895z" data-paper-data="{&quot;origPos&quot;:null,&quot;origRot&quot;:0}" fill="#ffffff" stroke="none" stroke-width="0" stroke-linecap="butt"/><path d="M255.41612,186.77912c-0.07307,0.57957 -0.41116,1.02996 -0.75515,1.00599c-0.34396,-0.02397 -0.56358,-0.51323 -0.49051,-1.0928c0.07307,-0.57957 0.41116,-1.02996 0.75515,-1.00599c0.34396,0.02397 0.56358,0.51324 0.4905,1.0928z" data-paper-data="{&quot;origPos&quot;:null,&quot;origRot&quot;:0}" fill="#ffffff" stroke="none" stroke-width="0" stroke-linecap="butt"/><path d="M233.73781,166.27052c0,0 0.76836,-5.60378 1.61381,-6.77744c0.28181,-0.39122 0.6718,-1.14288 1.53998,-0.73646c0.01575,-0.01665 1.63843,1.06872 1.62326,2.23904c-0.03009,2.32426 -0.27941,0.73993 -0.27941,0.73993z" data-paper-data="{&quot;origPos&quot;:null,&quot;origRot&quot;:0}" fill="#287732" stroke="none" stroke-width="0" stroke-linecap="butt"/><path d="M241.94001,181.54296c0,0 2.20971,-5.21717 3.80188,-4.67526c3.28617,1.11852 4.22197,5.30979 4.22197,5.30979c0,0 -2.50891,-1.9461 -3.90435,-2.05646c-1.73597,-0.13727 -4.1195,1.42192 -4.1195,1.42192z" data-paper-data="{&quot;origPos&quot;:null,&quot;origRot&quot;:0}" fill="#05ac26" stroke="#000000" stroke-width="0.5" stroke-linecap="butt"/><path d="M254.20978,182.17546c0,0 1.2237,-3.34862 3.08835,-3.86245c1.75909,-0.48472 3.60618,4.43367 3.60618,4.43367c0,0 -1.80621,-1.78235 -3.2552,-1.9512z" data-paper-data="{&quot;origPos&quot;:null,&quot;index&quot;:null,&quot;origRot&quot;:0}" fill="#05ac26" stroke="#000000" stroke-width="0.5" stroke-linecap="butt"/><path d="M227.24514,192.8722c-7.76583,-7.54902 -4.39758,-16.48603 -4.39758,-16.48603c0,0 1.2305,2.67621 2.57359,4.23681c2.33213,2.70982 4.45895,4.04817 7.03011,6.53234c0.89575,0.86542 2.9894,1.69884 3.75179,2.68374c0.82207,1.06203 0.69732,2.22621 1.19463,3.47376c0.36023,0.90373 1.00847,0.9596 1.75092,1.58833c2.48729,2.10632 7.18122,3.70677 7.18122,3.70677c0,0 -11.31881,1.81332 -19.08465,-5.73572z" data-paper-data="{&quot;origPos&quot;:null,&quot;origRot&quot;:0}" fill="url(#color-5)" stroke="#287732" stroke-width="0" stroke-linecap="butt"/><path d="M222.03807,179.51987c0,0 -1.41553,-6.98201 0.84544,-10.34128c2.26098,-3.35927 5.1765,-0.68169 7.11572,-1.64309c2.0371,-1.0099 2.3421,-0.94606 4.2214,-2.22585c1.43463,-0.97694 1.80023,-3.81419 3.41165,-4.45912c1.11815,-0.44751 1.73424,0.62606 2.82672,1.133c1.1932,0.55369 0.2965,4.7347 0.2965,4.7347c0,0 2.93233,0.12952 2.01453,2.1393c-0.79057,1.73117 -1.78192,0.73663 -2.12579,2.60845c-0.41397,2.25336 2.6316,0.29477 1.88385,2.4604c-1.16071,3.36165 -1.84431,4.92336 -4.65527,7.10201c0,0 -5.91364,0.73129 -8.88144,0.37394c-3.58344,-0.43146 -6.95338,-1.88246 -6.95338,-1.88246z" data-paper-data="{&quot;origPos&quot;:null,&quot;origRot&quot;:0}" fill="url(#color-6)" stroke="#256d2f" stroke-width="0.5" stroke-linecap="butt"/><path d="M220.89289,183.3872c-0.36183,-2.14569 0.75796,-2.50591 0.14381,-4.51923c-0.26797,-0.87845 -0.8513,-0.50416 -1.72355,-0.79168c-1.18693,-0.39125 -2.72715,-0.75953 -2.71858,-2.00923c0.00963,-1.40009 2.67669,-2.69557 2.67669,-2.69557c0,0 -4.11009,-1.53055 -3.29863,-4.30734c0.84151,-2.87956 4.94612,-1.78661 5.49969,-2.35973c0.93167,-0.9646 0.44154,-2.3285 1.78232,-2.30199c0.86191,0.01705 1.88091,3.17327 2.00299,2.31985c0.1581,-1.10542 3.26174,0.89316 3.26174,0.89316l-2.80257,0.93285c0,0 -2.376,0.04554 -2.66064,1.9979c-0.54159,3.71485 -1.14352,3.35082 0.66837,6.63875c0.89495,1.62402 2.34406,5.67157 4.23039,5.64819c0.39693,1.77123 2.77025,2.3059 4.11533,3.52473c1.74711,1.58309 4.3472,4.11013 4.3472,4.11013c0,0 -2.45366,-1.62969 -3.45813,-1.80215c-2.83923,-0.48743 -2.54697,0.36101 -4.94694,-1.23236c-1.03325,-0.68598 -1.02655,-1.87105 -2.10933,-2.47583c-2.46925,-1.37922 -4.64829,0.57523 -5.01014,-1.57047z" data-paper-data="{&quot;origPos&quot;:null,&quot;origRot&quot;:0}" fill="#98ff7e" stroke="#256d2f" stroke-width="1" stroke-linecap="butt"/><path d="M239.5405,179.25413c0,0 0.96565,-1.03215 1.32828,-1.74377c0.55803,-1.09518 1.19869,-2.77834 1.19869,-2.77834c0.84761,-1.0086 1.5706,-1.13802 2.61893,-1.93594c0.95982,-0.73056 2.42084,-2.08285 2.42084,-2.08285c1.15628,-0.84667 5.84677,-2.73385 5.84677,-2.73385l-3.29488,-2.72594c0,0 1.40976,-0.28548 2.1671,-0.35971c4.33847,-0.42517 9.58975,1.28799 9.20843,4.0815c-0.23247,1.70299 -3.60343,-0.85287 -5.87819,0.81279c-0.95874,0.70203 0.12533,3.218 -1.10035,4.13578c-1.00131,0.74978 -3.2298,-2.59363 -4.24074,-1.85689c-0.71193,0.51883 -0.9712,2.89335 -1.72886,3.22204c-1.19923,0.52025 -0.99293,-0.13722 -2.16073,-0.72466c-0.49728,-0.25016 -0.92434,-0.01683 -1.39652,0.27801c-1.94938,1.21725 -0.73509,2.43687 -2.7363,3.5669c-1.40134,0.79131 -2.25244,0.84492 -2.25244,0.84492z" data-paper-data="{&quot;origPos&quot;:null,&quot;origRot&quot;:0}" fill="url(#color-7)" stroke="#256d2f" stroke-width="1" stroke-linecap="butt"/><path d="M253.49855,166.24844c0,0 3.30982,0.94676 2.34416,1.25593c-3.20431,1.02591 -4.68161,0.66071 -7.59618,2.34167c-1.49122,0.86006 -2.94869,2.53078 -4.37931,3.48827c-3.92088,2.62422 -2.0317,5.59613 -6.34322,7.51209c-3.22814,1.43452 -10.65509,0.43115 -10.65509,0.43115" data-paper-data="{&quot;origPos&quot;:null,&quot;origRot&quot;:0}" fill="none" stroke="#287732" stroke-width="0.5" stroke-linecap="round"/><path d="M246.43243,198.58885c0,0 -2.39108,-0.9338 -3.95195,-1.79477c-1.67716,-0.92511 -2.7632,-1.7123 -4.24645,-2.92419c-2.57408,-2.10313 -0.22497,-2.28837 -2.66809,-4.54231c-3.46177,-3.19372 -7.95272,-6.14828 -10.7165,-9.96208c-2.03926,-2.81406 -3.25877,-7.37016 -0.97256,-9.92945c0.95346,-1.06737 1.85206,-1.00894 1.85206,-1.00894" data-paper-data="{&quot;origPos&quot;:null,&quot;origRot&quot;:0}" fill="none" stroke="#287732" stroke-width="0.5" stroke-linecap="round"/><path d="M220.30925,150.23592c-2.65857,5.41417 -9.63632,7.43515 -15.58522,4.514c-5.9489,-2.92116 -8.61626,-9.67826 -5.95771,-15.09242c2.65857,-5.41417 24.20149,5.16424 21.5429,10.57841z" data-paper-data="{&quot;origPos&quot;:null,&quot;origRot&quot;:0}" fill="#2e8149" stroke="#0f2c13" stroke-width="0.5" stroke-linecap="butt"/><path d="M199.43946,140.74203c1.834,-5.55439 7.90273,-8.81046 13.45716,-6.97645c5.55439,1.834 8.49113,8.06355 6.65712,13.61797c-1.834,5.55439 -7.90274,8.81047 -13.45716,6.97646c-5.55439,-1.834 -8.49112,-8.06355 -6.65711,-13.61797z" data-paper-data="{&quot;origPos&quot;:null,&quot;origRot&quot;:0}" fill="url(#color-8)" stroke="#000000" stroke-width="1" stroke-linecap="butt"/><path d="M214.32566,152.7092c-2.43229,1.34793 -2.95542,0.95885 -4.32479,0.47778c-2.61765,-0.91963 -5.88137,-4.21858 -5.88137,-4.21858c0,0 4.40185,0.53155 6.97497,-0.52799c2.2939,-0.94456 3.7091,-2.66144 3.81347,-5.13998c0.06885,-1.63554 -0.65416,-2.9782 -0.17013,-4.54201c0.27222,-0.87943 1.9012,-1.76754 1.9012,-1.76754c0,0 0.30274,0.87459 1.54671,2.25551c0.83509,0.92703 0.83771,2.55788 1.14348,3.76755c0.41547,1.64355 -0.08899,2.83084 -0.6205,4.44063c-1.19747,3.62665 -2.10948,3.99471 -4.38305,5.25466z" data-paper-data="{&quot;origPos&quot;:null,&quot;index&quot;:null,&quot;origRot&quot;:0}" fill="#27b33c" stroke="#1c802b" stroke-width="0.5" stroke-linecap="butt"/><path d="M200.07334,141.06229c0.64458,-1.95208 1.49568,-3.3128 3.0872,-4.61401c1.17138,-0.9577 2.67652,-1.89915 4.15951,-2.1993c2.20906,-0.4471 5.20741,0.14172 5.20741,0.14172c0,0 -4.78387,3.94135 -5.7517,5.36896c-1.68808,2.49001 -1.54907,5.18455 0.00368,7.76113c1.74175,2.89024 6.41396,5.55089 6.41396,5.55089c0,0 -5.39562,2.51177 -8.71892,-0.19659c0,0 -2.6165,-1.76737 -3.63512,-3.75577c-1.30426,-2.54598 -2.21813,-3.65926 -0.76602,-8.05709z" data-paper-data="{&quot;origPos&quot;:null,&quot;origRot&quot;:0}" fill="#27b33c" stroke="#1c802b" stroke-width="0.5" stroke-linecap="butt"/><path d="M206.05637,140.95206c0,0 3.93032,-2.3665 5.49636,-1.8656c0.83266,0.26632 0.12995,2.20125 0.61261,2.93015c0.47346,0.71496 0.92596,-0.35692 1.69477,0.0228c0.29691,0.14666 0.7859,1.6601 0.7859,1.6601" data-paper-data="{&quot;origPos&quot;:null,&quot;origRot&quot;:0}" fill="none" stroke="#1c802b" stroke-width="0.5" stroke-linecap="round"/><path d="M214.59621,135.51757c0,0 -1.04592,0.36882 -1.3906,0.82573c-0.39868,0.52848 0.80182,1.32043 0.52075,1.91981c-0.26376,0.56253 -1.97123,1.0204 -1.97123,1.0204" data-paper-data="{&quot;origPos&quot;:null,&quot;origRot&quot;:0}" fill="none" stroke="#1c802b" stroke-width="0.5" stroke-linecap="round"/><path d="M202.93897,141.25405c0.54687,-1.22744 0.78955,-0.16817 1.8104,-1.04203c0.38789,-0.33202 -0.2274,-2.30457 0.15518,-2.64266c0.88097,-0.77855 1.07463,-0.21282 2.14931,-0.68953c1.15509,-0.51236 -0.40637,-3.87 0.72206,-4.4387c0.94758,-0.47758 0.99299,1.26744 1.96318,1.69721c0.66494,0.29455 1.18915,-2.70158 1.91335,-2.76836c0.62892,-0.05799 0.22745,1.02263 0.38274,1.63487c0.06302,0.24842 1.29539,-0.47534 1.40895,-0.24557c0.11675,0.23618 0.84669,0.97144 0.70852,1.19574c-0.15865,0.25751 -0.55802,-0.4728 -0.86015,-0.45908c-0.33598,0.01527 -0.72575,0.64147 -0.72575,0.64147c0,0 -3.82313,2.95444 -5.42724,5.06315c-1.36852,1.79901 -1.63588,2.82742 -1.57106,5.08689c0.09996,3.48314 3.82049,6.46303 3.82049,6.46303c0,0 -7.66866,-6.7611 -6.44998,-9.49642z" data-paper-data="{&quot;origPos&quot;:null,&quot;origRot&quot;:0}" fill="url(#color-9)" stroke="#256d2f" stroke-width="0.5" stroke-linecap="butt"/><path d="M212.04732,148.34428c0,0 3.20478,-2.44722 3.18154,-4.99006c-0.0193,-2.11016 -0.88172,-2.61086 -0.31359,-4.53301c0.64172,-2.17108 2.21548,-2.37804 2.21548,-2.37804c0,0 -0.71669,-2.0808 -0.59951,-1.56975c0.17212,0.75082 1.59254,-0.32629 1.9424,0.35999c0.24292,0.47651 -0.17882,0.53004 -0.21845,1.71789c-0.01294,0.38807 0.67374,1.029 0.53429,1.39133c-0.27031,0.70233 -1.35611,0.59865 -1.77019,1.22708c-0.58234,0.88385 1.47253,3.04072 1.15444,4.0502c-0.61703,1.95819 -0.4693,0.38972 -2.04707,1.3936c-1.41254,0.89876 1.11394,0.54051 0.46159,2.0824c-1.02817,2.43008 -4.54092,1.2483 -4.54092,1.2483z" data-paper-data="{&quot;origPos&quot;:null,&quot;origRot&quot;:0}" fill="url(#color-10)" stroke="#256d2f" stroke-width="0.5" stroke-linecap="butt"/><path d="M197.85196,140.78361c0.22125,-0.60438 0.94583,-1.73948 0.94583,-1.73948c0,0 0.91811,1.52737 0.95132,1.97954c0.09963,1.35641 -0.43333,2.87941 -0.43333,2.87941c0,0 0.81804,-1.44862 2.5344,-0.26916c0.54633,0.37542 0.21625,2.33652 0.21625,2.33652c0,0 2.6877,-1.36905 3.40466,0.01572c0.8696,1.67961 0.58539,3.41631 0.58539,3.41631c0,0 2.49404,-1.82288 3.31071,-1.35561c1.84655,1.05654 2.77162,2.42007 2.77162,2.42007c0,0 -1.43829,-1.49027 0.15023,-2.69409c1.17082,-0.88729 3.9148,1.07856 3.9148,1.07856c0,0 -0.07853,-1.71302 0.6011,-2.36626c0.8988,-0.86385 1.68132,0.56413 1.68132,0.56413l1.0105,-1.80248c0,0 1.26735,3.06277 0.86988,4.43836c-0.53104,1.83784 -1.79629,2.95278 -3.30446,4.12968c-3.31819,2.58938 -8.38851,3.06024 -12.19165,1.25708c-2.02625,-0.9607 -3.00609,-2.0601 -4.64264,-3.59315c0,0 -2.21917,-2.72706 -2.63526,-5.2093c-0.30924,-1.84497 -0.40436,-3.67277 0.25934,-5.48591z" data-paper-data="{&quot;origPos&quot;:null,&quot;origRot&quot;:0}" fill="url(#color-11)" stroke="#0f2c13" stroke-width="0.5" stroke-linecap="butt"/></g></g></svg>