<svg version="1.1" xmlns="http://www.w3.org/2000/svg" xmlns:xlink="http://www.w3.org/1999/xlink" width="54.96968" height="57.82531" viewBox="0,0,54.96968,57.82531"><g transform="translate(-220.45018,-148.97644)"><g data-paper-data="{&quot;isPaintingLayer&quot;:true}" fill="none" fill-rule="nonzero" stroke="none" stroke-width="none" stroke-linecap="butt" stroke-linejoin="miter" stroke-miterlimit="10" stroke-dasharray="" stroke-dashoffset="0" font-family="none" font-weight="none" font-size="none" text-anchor="none" style="mix-blend-mode: normal"><path d="M230.61393,191.3634c4.70628,0.72373 8.2405,3.1374 7.89393,5.39112c-0.34658,2.25371 -4.44273,3.49399 -9.14898,2.77027c-4.70628,-0.72373 -7.8939,-5.39113 -7.8939,-5.39113c0,0 4.44271,-3.49401 9.14896,-2.77028z" data-paper-data="{&quot;origRot&quot;:0,&quot;origPos&quot;:null,&quot;index&quot;:null}" fill="#2bd900" stroke="#000000" stroke-width="1.5"/><path d="M255.90996,195.1778c0,0 -3.48248,4.45173 -8.22567,4.86994c-4.7432,0.41821 -8.75067,-1.08407 -8.95094,-3.35547c-0.20028,-2.2714 3.48251,-4.45175 8.22568,-4.86996c4.7432,-0.41821 8.95093,3.35548 8.95093,3.35548z" data-paper-data="{&quot;origRot&quot;:0,&quot;origPos&quot;:null,&quot;index&quot;:null}" fill="#2bd900" stroke="#000000" stroke-width="1.5"/><path d="M236.10705,196.9486c0,0 2.05973,-6.81398 3.92643,-10.83641c1.47372,-3.17561 4.6329,-7.60765 4.6329,-7.60765l4.08187,1.89428c0,0 -3.32552,3.20673 -4.5831,5.91656c-2.08283,4.48816 -3.97625,12.52746 -3.97625,12.52746z" data-paper-data="{&quot;origPos&quot;:null,&quot;origRot&quot;:0}" fill="#a9ff59" stroke="#000000" stroke-width="2"/><path d="M232.80074,150.56853c3.56758,2.03863 5.66827,5.07625 4.69201,6.78464c-0.97623,1.70842 -4.65974,1.44072 -8.22732,-0.59795c-3.56758,-2.03863 -4.69201,-6.78464 -4.69201,-6.78464c0,0 4.65974,-1.44072 8.22732,0.59795z" data-paper-data="{&quot;origRot&quot;:0,&quot;origPos&quot;:null}" fill="#2fe500" stroke="#000000" stroke-width="1"/><path d="M267.81973,172.83175c-1.66157,8.62325 -11.07887,14.05875 -21.03412,12.1405c-9.95525,-1.91822 -16.67861,-10.46379 -15.01704,-19.08704c1.66157,-8.62325 11.07886,-14.05874 21.03412,-12.14049c9.95525,1.91822 16.67861,10.46379 15.01704,19.08703z" data-paper-data="{&quot;origPos&quot;:null,&quot;origRot&quot;:0}" fill="#a9ff59" stroke="#000000" stroke-width="3"/><path d="M274.41986,179.34021c-1.44441,4.85677 -5.29843,8.00786 -8.60818,7.03817c-3.30975,-0.96973 -4.82187,-5.69299 -3.37747,-10.54976c1.44441,-4.85677 5.29845,-8.00787 8.60818,-7.03817c3.30974,0.96972 4.82185,5.69298 3.37747,10.54976z" data-paper-data="{&quot;origPos&quot;:null,&quot;origRot&quot;:0}" fill="#a9ff59" stroke="#000000" stroke-width="2"/><path d="M267.58282,177.21847c-0.67189,2.40452 -2.18057,4.08792 -3.36973,3.75997c-1.18914,-0.32794 -1.60846,-2.54304 -0.93656,-4.94757c0.67189,-2.40452 2.18057,-4.08792 3.36972,-3.75995c1.18914,0.32794 1.60848,2.54305 0.93657,4.94757z" data-paper-data="{&quot;origRot&quot;:0,&quot;origPos&quot;:null}" fill="#84c746" stroke="none" stroke-width="0"/><path d="M230.37732,195.47394c5.11563,-1.00495 9.65279,0.16627 10.13405,2.61602c0.48124,2.44973 -3.27567,5.25031 -8.3913,6.25527c-5.11563,1.00495 -10.13404,-2.61602 -10.13404,-2.61602c0,0 3.27566,-5.25032 8.39129,-6.25527z" data-paper-data="{&quot;origRot&quot;:0,&quot;origPos&quot;:null}" fill="#2fe500" stroke="#000000" stroke-width="2"/><path d="M256.09603,204.67454c0,0 -5.71375,2.37668 -10.46376,0.22793c-4.74999,-2.14876 -7.76648,-5.73462 -6.73749,-8.00927c1.02898,-2.27464 5.71377,-2.3767 10.46377,-0.22794c4.74999,2.14876 6.73748,8.00928 6.73748,8.00928z" data-paper-data="{&quot;origRot&quot;:0,&quot;origPos&quot;:null,&quot;index&quot;:null}" fill="#2fe500" stroke="#000000" stroke-width="2"/><path d="M256.33357,164.06515c-0.0454,2.27341 -1.1696,4.15542 -2.51097,4.20357c-1.34136,0.04815 -2.39196,-1.75581 -2.34656,-4.02922c0.0454,-2.27341 1.1696,-4.15542 2.51097,-4.20357c1.34136,-0.04815 2.39195,1.75581 2.34654,4.0292z" data-paper-data="{&quot;origPos&quot;:null,&quot;origRot&quot;:0}" fill="#000000" stroke="none" stroke-width="0"/><path d="M262.33213,165.10805c-0.03421,1.71259 -0.88106,3.1303 -1.89152,3.16657c-1.01047,0.03626 -1.80186,-1.32265 -1.76766,-3.03525c0.03421,-1.71259 0.88105,-3.1303 1.89152,-3.16657c1.01047,-0.03626 1.80188,1.32266 1.76768,3.03525z" data-paper-data="{&quot;origPos&quot;:null,&quot;origRot&quot;:0}" fill="#000000" stroke="none" stroke-width="0"/></g></g></svg>