<svg version="1.1" xmlns="http://www.w3.org/2000/svg" xmlns:xlink="http://www.w3.org/1999/xlink" width="53.49171" height="61.57787" viewBox="0,0,53.49171,61.57787"><g transform="translate(-212.11031,-145.22388)"><g data-paper-data="{&quot;isPaintingLayer&quot;:true}" fill="none" fill-rule="nonzero" stroke="none" stroke-width="none" stroke-linecap="none" stroke-linejoin="miter" stroke-miterlimit="10" stroke-dasharray="" stroke-dashoffset="0" font-family="none" font-weight="none" font-size="none" text-anchor="none" style="mix-blend-mode: normal"><path d="M230.01802,191.95585c4.76146,0.03648 8.60721,1.91445 8.58974,4.19459c-0.01747,2.28014 -3.89157,4.09897 -8.653,4.06249c-4.76146,-0.03648 -8.58972,-4.1946 -8.58972,-4.1946c0,0 3.89154,-4.09898 8.65298,-4.0625z" data-paper-data="{&quot;origRot&quot;:0,&quot;origPos&quot;:null,&quot;index&quot;:null}" fill="#2bd900" stroke="#000000" stroke-width="1.5" stroke-linecap="butt"/><path d="M255.90996,195.17779c0,0 -3.48248,4.45173 -8.22567,4.86994c-4.7432,0.41821 -8.75067,-1.08407 -8.95094,-3.35547c-0.20028,-2.2714 3.48251,-4.45175 8.22568,-4.86996c4.7432,-0.41821 8.95093,3.35548 8.95093,3.35548z" data-paper-data="{&quot;origRot&quot;:0,&quot;origPos&quot;:null,&quot;index&quot;:null}" fill="#2bd900" stroke="#000000" stroke-width="1.5" stroke-linecap="butt"/><path d="M236.34254,197.81196c0,0 -0.55536,-7.09678 -0.27683,-11.5225c0.2199,-3.49399 1.55394,-8.7707 1.55394,-8.7707l4.49111,0.28265c0,0 -1.93399,4.19546 -2.12164,7.17699c-0.31077,4.93814 0.84453,13.1162 0.84453,13.1162z" data-paper-data="{&quot;origPos&quot;:null,&quot;origRot&quot;:0}" fill="#a9ff59" stroke="#000000" stroke-width="2" stroke-linecap="butt"/><path d="M220.91886,146.8772c3.5405,2.0853 5.60112,5.15023 4.60252,6.84567c-0.99859,1.69545 -4.67826,1.37941 -8.21876,-0.70591c-3.5405,-2.0853 -4.60252,-6.84567 -4.60252,-6.84567c0,0 4.67826,-1.37941 8.21876,0.70591z" data-paper-data="{&quot;origRot&quot;:0,&quot;origPos&quot;:null}" fill="#2fe500" stroke="#000000" stroke-width="1" stroke-linecap="butt"/><path d="M258.80046,162.68966c0,8.78187 -8.21877,15.90098 -18.35715,15.90098c-10.13837,0 -18.35715,-7.11911 -18.35715,-15.90098c0,-8.78187 8.21877,-15.90097 18.35715,-15.90097c10.13837,0 18.35715,7.11911 18.35715,15.90097z" data-paper-data="{&quot;origPos&quot;:null}" fill="#a9ff59" stroke="#000000" stroke-width="3" stroke-linecap="butt"/><path d="M245.77589,157.60434c0.63467,2.1835 0.12291,4.31513 -1.14306,4.76112c-1.26596,0.44599 -2.80674,-0.96254 -3.44141,-3.14604c-0.63467,-2.1835 -0.12291,-4.31513 1.14306,-4.76112c1.26596,-0.44599 2.80673,0.96254 3.4414,3.14604z" data-paper-data="{&quot;origPos&quot;:null,&quot;origRot&quot;:0}" fill="#000000" stroke="none" stroke-width="0" stroke-linecap="butt"/><path d="M251.8125,156.81081c0.4781,1.64486 0.09259,3.25062 -0.86107,3.58659c-0.95367,0.33597 -2.11433,-0.72509 -2.59243,-2.36995c-0.4781,-1.64486 -0.0926,-3.25062 0.86107,-3.58659c0.95367,-0.33597 2.11434,0.72509 2.59244,2.36995z" data-paper-data="{&quot;origPos&quot;:null,&quot;origRot&quot;:0}" fill="#000000" stroke="none" stroke-width="0" stroke-linecap="butt"/><path d="M264.60202,168.92674c-0.42306,4.27154 -3.1239,7.51046 -6.03249,7.23433c-2.90859,-0.27615 -4.92349,-3.96276 -4.50043,-8.23431c0.42306,-4.27154 3.12391,-7.51046 6.03249,-7.23433c2.90858,0.27615 4.92348,3.96277 4.50043,8.23431z" data-paper-data="{&quot;origPos&quot;:null,&quot;origRot&quot;:0}" fill="#a9ff59" stroke="#000000" stroke-width="2" stroke-linecap="butt"/><path d="M258.57468,168.25765c-0.17351,2.10785 -1.15865,3.74998 -2.2004,3.66779c-1.04174,-0.08219 -1.74558,-1.85759 -1.57207,-3.96544c0.17351,-2.10785 1.15865,-3.74998 2.20039,-3.66778c1.04174,0.08219 1.74559,1.85759 1.57208,3.96544z" data-paper-data="{&quot;origRot&quot;:0,&quot;origPos&quot;:null}" fill="#84c746" stroke="none" stroke-width="0" stroke-linecap="butt"/><path d="M230.36442,195.90347c5.11262,-1.02015 9.65324,0.13758 10.14178,2.58589c0.48852,2.44829 -3.26005,5.26002 -8.37267,6.28018c-5.11262,1.02015 -10.14177,-2.58589 -10.14177,-2.58589c0,0 3.26004,-5.26003 8.37266,-6.28018z" data-paper-data="{&quot;origRot&quot;:0,&quot;origPos&quot;:null}" fill="#2fe500" stroke="#000000" stroke-width="2" stroke-linecap="butt"/><path d="M256.09603,204.67453c0,0 -5.71375,2.37668 -10.46376,0.22793c-4.74999,-2.14876 -7.76648,-5.73462 -6.73749,-8.00927c1.02898,-2.27464 5.71377,-2.3767 10.46377,-0.22794c4.74999,2.14876 6.73748,8.00928 6.73748,8.00928z" data-paper-data="{&quot;origRot&quot;:0,&quot;origPos&quot;:null,&quot;index&quot;:null}" fill="#2fe500" stroke="#000000" stroke-width="2" stroke-linecap="butt"/><path d="M238.81087,168.24869c0,0 4.48571,-1.25423 6.15345,-0.29207c1.9357,1.11674 3.07987,5.61899 3.07987,5.61899" data-paper-data="{&quot;origPos&quot;:null}" fill="none" stroke="#000000" stroke-width="1.5" stroke-linecap="round"/></g></g></svg>