<svg version="1.1" xmlns="http://www.w3.org/2000/svg" xmlns:xlink="http://www.w3.org/1999/xlink" width="57.92497" height="55.85902" viewBox="0,0,57.92497,55.85902"><g transform="translate(-220.45017,-150.94274)"><g data-paper-data="{&quot;isPaintingLayer&quot;:true}" fill="none" fill-rule="nonzero" stroke="none" stroke-width="none" stroke-linecap="butt" stroke-linejoin="miter" stroke-miterlimit="10" stroke-dasharray="" stroke-dashoffset="0" font-family="none" font-weight="none" font-size="none" text-anchor="none" style="mix-blend-mode: normal"><path d="M230.61393,191.3634c4.70628,0.72373 8.2405,3.1374 7.89393,5.39112c-0.34658,2.25371 -4.44273,3.49399 -9.14898,2.77027c-4.70628,-0.72373 -7.8939,-5.39113 -7.8939,-5.39113c0,0 4.44271,-3.49401 9.14896,-2.77028z" data-paper-data="{&quot;origRot&quot;:0,&quot;origPos&quot;:null,&quot;index&quot;:null}" fill="#2bd900" stroke="#000000" stroke-width="1.5"/><path d="M255.90996,195.1778c0,0 -3.48248,4.45173 -8.22567,4.86994c-4.7432,0.41821 -8.75067,-1.08407 -8.95094,-3.35547c-0.20028,-2.2714 3.48251,-4.45175 8.22568,-4.86996c4.7432,-0.41821 8.95093,3.35548 8.95093,3.35548z" data-paper-data="{&quot;origRot&quot;:0,&quot;origPos&quot;:null,&quot;index&quot;:null}" fill="#2bd900" stroke="#000000" stroke-width="1.5"/><path d="M235.69579,195.75071c0,0 3.5327,-6.18003 6.25241,-9.68256c2.14715,-2.76515 6.21823,-6.37759 6.21823,-6.37759l3.55429,2.75989c0,0 -3.95893,2.38098 -5.79116,4.74057c-3.0346,3.90806 -6.67948,11.31956 -6.67948,11.31956z" data-paper-data="{&quot;origPos&quot;:null,&quot;origRot&quot;:0}" fill="#a9ff59" stroke="#000000" stroke-width="2"/><path d="M232.68056,152.07328c3.78126,1.60802 6.22234,4.3795 5.45229,6.19022c-0.77003,1.81074 -4.45959,1.97508 -8.24085,0.36703c-3.78126,-1.60802 -5.45229,-6.19022 -5.45229,-6.19022c0,0 4.45959,-1.97508 8.24085,-0.36703z" data-paper-data="{&quot;origRot&quot;:0,&quot;origPos&quot;:null}" fill="#2fe500" stroke="#000000" stroke-width="1"/><path d="M270.06005,170.09417c-0.64307,8.75829 -9.36109,15.25646 -19.47225,14.51405c-10.11115,-0.7424 -17.78656,-8.44424 -17.14349,-17.20253c0.64307,-8.75829 9.36108,-15.25645 19.47225,-14.51404c10.11115,0.7424 17.78656,8.44424 17.14349,17.20252z" data-paper-data="{&quot;origPos&quot;:null,&quot;origRot&quot;:0}" fill="#a9ff59" stroke="#000000" stroke-width="3"/><path d="M277.37515,175.78725c-0.86729,4.99222 -4.32691,8.57188 -7.72726,7.99538c-3.40035,-0.57653 -5.45378,-5.09086 -4.58648,-10.0831c0.86729,-4.99222 4.32693,-8.57188 7.72726,-7.99538c3.40034,0.57652 5.45376,5.09087 4.58648,10.0831z" data-paper-data="{&quot;origPos&quot;:null,&quot;origRot&quot;:0}" fill="#a9ff59" stroke="#000000" stroke-width="2"/><path d="M270.33711,174.47854c-0.38647,2.46653 -1.6882,4.31462 -2.90753,4.1278c-1.21931,-0.18681 -1.89446,-2.33779 -1.50799,-4.80432c0.38647,-2.46653 1.6882,-4.31462 2.90752,-4.12779c1.21931,0.18681 1.89447,2.33779 1.508,4.80432z" data-paper-data="{&quot;origRot&quot;:0,&quot;origPos&quot;:null}" fill="#84c746" stroke="none" stroke-width="0"/><path d="M230.37732,195.47394c5.11563,-1.00495 9.65279,0.16627 10.13405,2.61602c0.48124,2.44973 -3.27567,5.25031 -8.3913,6.25527c-5.11563,1.00495 -10.13404,-2.61602 -10.13404,-2.61602c0,0 3.27566,-5.25032 8.39129,-6.25527z" data-paper-data="{&quot;origRot&quot;:0,&quot;origPos&quot;:null}" fill="#2fe500" stroke="#000000" stroke-width="2"/><path d="M256.09603,204.67454c0,0 -5.71375,2.37668 -10.46376,0.22793c-4.74999,-2.14876 -7.76648,-5.73462 -6.73749,-8.00927c1.02898,-2.27464 5.71377,-2.3767 10.46377,-0.22794c4.74999,2.14876 6.73748,8.00928 6.73748,8.00928z" data-paper-data="{&quot;origRot&quot;:0,&quot;origPos&quot;:null,&quot;index&quot;:null}" fill="#2fe500" stroke="#000000" stroke-width="2"/><path d="M257.9467,163.0357c0.47308,2.22411 -0.1934,4.31255 -1.48863,4.66464c-1.29522,0.35209 -2.72872,-1.16548 -3.2018,-3.3896c-0.47308,-2.22411 0.1934,-4.31255 1.48863,-4.66464c1.29522,-0.35209 2.72871,1.16548 3.20179,3.3896z" data-paper-data="{&quot;origPos&quot;:null,&quot;origRot&quot;:0}" fill="#000000" stroke="none" stroke-width="0"/><path d="M264.02521,162.68635c0.35637,1.67545 -0.14569,3.24867 -1.12139,3.51391c-0.97571,0.26523 -2.05556,-0.87797 -2.41193,-2.55342c-0.35637,-1.67545 0.14568,-3.24867 1.12139,-3.51391c0.97571,-0.26523 2.05557,0.87797 2.41194,2.55342z" data-paper-data="{&quot;origPos&quot;:null,&quot;origRot&quot;:0}" fill="#000000" stroke="none" stroke-width="0"/></g></g></svg>