<svg version="1.1" xmlns="http://www.w3.org/2000/svg" xmlns:xlink="http://www.w3.org/1999/xlink" width="33.80247" height="15.27105"><defs><linearGradient x1="240" y1="173.11447" x2="240" y2="186.88553" gradientUnits="userSpaceOnUse" id="color-1"><stop offset="0" stop-color="#af7400"/><stop offset="1" stop-color="#ff9500"/></linearGradient></defs><g transform="translate(-223.09877,-172.36447)"><g data-paper-data="{&quot;isPaintingLayer&quot;:true}" fill="none" fill-rule="nonzero" stroke="none" stroke-width="none" stroke-linecap="butt" stroke-linejoin="miter" stroke-miterlimit="10" stroke-dasharray="" stroke-dashoffset="0" font-family="none" font-weight="none" font-size="none" text-anchor="none" style="mix-blend-mode: normal"><path d="M223.84877,185.78044c0,-1.29382 0,-6.99727 0,-11.47588c0,-0.46445 0.75882,-1.19009 1.19009,-1.19009c11.67756,0 28.52894,0 29.92229,0c0.46445,0 1.19009,0.77747 1.19009,1.2751c0,1.49287 0,6.68628 0,10.96584c0,0.59715 -0.9848,1.53012 -1.61512,1.53012c-1.89097,0 -18.0374,0 -29.58226,0c-0.43127,0 -1.10508,-0.67381 -1.10508,-1.10508z" data-paper-data="{&quot;origPos&quot;:null}" fill="url(#color-1)" stroke="#000000" stroke-width="1.5"/><text transform="translate(230.13925,182.4572) scale(0.21298,0.21298)" font-size="40" xml:space="preserve" data-paper-data="{&quot;origPos&quot;:null}" fill="#ffffff" fill-rule="nonzero" stroke="none" stroke-width="1" stroke-linecap="butt" stroke-linejoin="miter" stroke-miterlimit="10" stroke-dasharray="" stroke-dashoffset="0" font-family="Sans Serif" font-weight="normal" text-anchor="start" style="mix-blend-mode: normal"><tspan x="0" dy="0">Start</tspan></text></g></g></svg>