<svg version="1.1" xmlns="http://www.w3.org/2000/svg" xmlns:xlink="http://www.w3.org/1999/xlink" width="54.19603" height="61.97918"><defs><linearGradient x1="268.24098" y1="176.50116" x2="260.03557" y2="169.93696" gradientUnits="userSpaceOnUse" id="color-1"><stop offset="0" stop-color="#fff987"/><stop offset="1" stop-color="#fff300"/></linearGradient><linearGradient x1="270.43658" y1="158.5031" x2="260.42368" y2="164.58478" gradientUnits="userSpaceOnUse" id="color-2"><stop offset="0" stop-color="#fff987"/><stop offset="1" stop-color="#fff300"/></linearGradient><linearGradient x1="267.0064" y1="152.83269" x2="259.56111" y2="160.81547" gradientUnits="userSpaceOnUse" id="color-3"><stop offset="0" stop-color="#fff987"/><stop offset="1" stop-color="#fff300"/></linearGradient><linearGradient x1="230.93951" y1="181.97143" x2="238.08806" y2="174.26274" gradientUnits="userSpaceOnUse" id="color-4"><stop offset="0" stop-color="#fff987"/><stop offset="1" stop-color="#fff300"/></linearGradient><linearGradient x1="263.42304" y1="181.06269" x2="256.59103" y2="172.55997" gradientUnits="userSpaceOnUse" id="color-5"><stop offset="0" stop-color="#fff987"/><stop offset="1" stop-color="#fff300"/></linearGradient><linearGradient x1="228.22725" y1="151.61963" x2="235.07239" y2="160.19679" gradientUnits="userSpaceOnUse" id="color-6"><stop offset="0" stop-color="#fff987"/><stop offset="1" stop-color="#fff300"/></linearGradient><linearGradient x1="224.59493" y1="155.44437" x2="231.92834" y2="164.63332" gradientUnits="userSpaceOnUse" id="color-7"><stop offset="0" stop-color="#fff987"/><stop offset="1" stop-color="#fff300"/></linearGradient><linearGradient x1="256.68437" y1="184.57124" x2="251.01117" y2="175.2871" gradientUnits="userSpaceOnUse" id="color-8"><stop offset="0" stop-color="#fff987"/><stop offset="1" stop-color="#fff300"/></linearGradient><linearGradient x1="225.08679" y1="176.50868" x2="235.843" y2="171.97621" gradientUnits="userSpaceOnUse" id="color-9"><stop offset="0" stop-color="#fff987"/><stop offset="1" stop-color="#fff300"/></linearGradient><linearGradient x1="237.94463" y1="184.03331" x2="243.19489" y2="174.93096" gradientUnits="userSpaceOnUse" id="color-10"><stop offset="0" stop-color="#fff987"/><stop offset="1" stop-color="#fff300"/></linearGradient><linearGradient x1="262.10072" y1="148.82655" x2="255.9809" y2="157.63444" gradientUnits="userSpaceOnUse" id="color-11"><stop offset="0" stop-color="#fff987"/><stop offset="1" stop-color="#fff300"/></linearGradient><linearGradient x1="233.63041" y1="148.12462" x2="238.79482" y2="159.1055" gradientUnits="userSpaceOnUse" id="color-12"><stop offset="0" stop-color="#fff987"/><stop offset="1" stop-color="#fff300"/></linearGradient><linearGradient x1="256.60012" y1="145.29045" x2="250.42733" y2="156.007" gradientUnits="userSpaceOnUse" id="color-13"><stop offset="0" stop-color="#fff987"/><stop offset="1" stop-color="#fff300"/></linearGradient><linearGradient x1="239.09989" y1="144.24274" x2="243.11147" y2="155.19167" gradientUnits="userSpaceOnUse" id="color-14"><stop offset="0" stop-color="#fff987"/><stop offset="1" stop-color="#fff300"/></linearGradient><linearGradient x1="246.1166" y1="186.15264" x2="246.34435" y2="172.46871" gradientUnits="userSpaceOnUse" id="color-15"><stop offset="0" stop-color="#fff987"/><stop offset="1" stop-color="#fff300"/></linearGradient><linearGradient x1="221.21138" y1="166.86478" x2="234.89533" y2="167.09254" gradientUnits="userSpaceOnUse" id="color-16"><stop offset="0" stop-color="#fff987"/><stop offset="1" stop-color="#fff300"/></linearGradient><linearGradient x1="272.43464" y1="167.15403" x2="258.7507" y2="166.92627" gradientUnits="userSpaceOnUse" id="color-17"><stop offset="0" stop-color="#fff987"/><stop offset="1" stop-color="#fff300"/></linearGradient><linearGradient x1="247.26602" y1="143.16481" x2="247.03826" y2="156.84875" gradientUnits="userSpaceOnUse" id="color-18"><stop offset="0" stop-color="#fff987"/><stop offset="1" stop-color="#fff300"/></linearGradient><linearGradient x1="247.13745" y1="151.59922" x2="246.65464" y2="180.60742" gradientUnits="userSpaceOnUse" id="color-19"><stop offset="0" stop-color="#eeb054"/><stop offset="1" stop-color="#d27700"/></linearGradient></defs><g transform="translate(-219.725,-141.67835)"><g data-paper-data="{&quot;isPaintingLayer&quot;:true}" fill="none" fill-rule="nonzero" stroke="none" stroke-width="none" stroke-linecap="none" stroke-linejoin="miter" stroke-miterlimit="10" stroke-dasharray="" stroke-dashoffset="0" font-family="none" font-weight="none" font-size="none" text-anchor="none" style="mix-blend-mode: normal"><path d="M252.93344,196.39802c-0.01856,2.47718 -10.5375,2.39838 -10.51894,-0.07881c0.01856,-2.47718 2.38834,-4.46769 5.29307,-4.44593c2.90473,0.02176 5.24442,2.04755 5.22586,4.52473z" data-paper-data="{&quot;origPos&quot;:null,&quot;origRot&quot;:0}" fill="#26c000" stroke="#000000" stroke-width="2" stroke-linecap="butt"/><path d="M245.17182,196.16974c-0.01856,2.47718 -10.5375,2.39838 -10.51894,-0.07881c0.01856,-2.47718 2.38834,-4.46769 5.29307,-4.44593c2.90472,0.02176 5.24442,2.04755 5.22586,4.52473z" data-paper-data="{&quot;origPos&quot;:null,&quot;origRot&quot;:0}" fill="#26c000" stroke="#000000" stroke-width="2" stroke-linecap="butt"/><path d="M241.90032,197.43334l-0.71406,-7.37711c0,0 -3.43903,0.01199 -4.72087,-0.05645c-0.95904,-0.05121 -2.20188,-4.46942 -2.20188,-4.46942c0,0 2.887,-0.62618 4.11064,-0.06625c1.45333,0.66505 2.52968,2.32857 2.52968,2.32857c0,0 0.2304,-0.03929 0.27536,-0.62351c0.29253,-3.80071 2.25177,-9.62325 2.25177,-9.62325l3.75555,0.28905c0,0 -2.0889,5.7221 -2.35681,9.20304c-0.05329,0.69234 0.00413,0.95845 0.00413,0.95845c0,0 2.69851,-1.74105 3.79037,-1.86385c1.38732,-0.15603 3.71287,1.00976 3.71287,1.00976c0,0 -2.32093,3.20572 -3.68552,3.58048c-1.10633,0.30382 -3.79307,-0.26716 -3.79307,-0.26716l0.7974,7.26672z" data-paper-data="{&quot;origPos&quot;:null,&quot;origRot&quot;:0}" fill="#2fe500" stroke="#000000" stroke-width="1.5" stroke-linecap="butt"/><path d="M243.28044,197.14076c0.59473,2.68088 -11.24538,5.69507 -11.84011,3.0142c-0.59473,-2.68088 1.92772,-5.90829 5.07131,-6.60566c3.14359,-0.69736 6.17408,0.91059 6.76881,3.59146z" data-paper-data="{&quot;origPos&quot;:null,&quot;origRot&quot;:0}" fill="#2fe500" stroke="#000000" stroke-width="2" stroke-linecap="butt"/><path d="M255.90662,199.81496c-0.2324,2.67793 -12.43447,1.36122 -12.20207,-1.31671c0.2324,-2.67793 2.96638,-4.62791 6.1065,-4.3554c3.14013,0.27251 6.32797,2.99418 6.09558,5.67212z" data-paper-data="{&quot;origPos&quot;:null,&quot;origRot&quot;:0}" fill="#2fe500" stroke="#000000" stroke-width="2" stroke-linecap="butt"/><path d="M251.46959,199.58736c0.33231,2.99216 -12.37344,4.40326 -12.70575,1.41109c-0.33231,-2.99216 2.24259,-5.73367 5.75117,-6.12334c3.50859,-0.38966 6.62226,1.72008 6.95457,4.71224z" data-paper-data="{&quot;origPos&quot;:null,&quot;origRot&quot;:0}" fill="#2fe500" stroke="#000000" stroke-width="2" stroke-linecap="butt"/><path d="M268.69696,176.84107c-1.88499,1.29004 -5.39125,-0.34994 -6.9643,-1.60082c-1.78977,-1.4232 -3.54105,-3.53803 -1.6971,-5.3033c1.21129,-1.15959 3.92448,-0.71466 6.06007,0.99377c2.1356,1.70844 3.96666,4.97593 2.60134,5.91033z" data-paper-data="{&quot;origPos&quot;:null,&quot;origRot&quot;:0,&quot;index&quot;:null}" fill="url(#color-1)" stroke="#000000" stroke-width="1.5" stroke-linecap="butt"/><path d="M270.96372,158.15661c0.99537,2.35829 -1.91107,5.35722 -3.82177,6.52572c-2.17391,1.32948 -5.15175,2.38227 -6.71829,-0.09757c-1.02904,-1.629 0.24936,-4.23271 2.85537,-5.81557c2.60602,-1.58284 6.9637,-2.32074 7.68467,-0.61259z" data-paper-data="{&quot;origPos&quot;:null,&quot;origRot&quot;:0,&quot;index&quot;:null}" fill="url(#color-2)" stroke="#000000" stroke-width="1.5" stroke-linecap="butt"/><path d="M265.72484,158.66695c-1.93776,2.07765 -4.69735,3.03957 -6.16373,2.14852c-2.23228,-1.35646 -0.7664,-3.75424 0.85904,-5.48709c1.42865,-1.52302 4.81109,-3.80154 7.00428,-2.91512c1.58856,0.64206 0.23817,4.17604 -1.6996,6.25369z" data-paper-data="{&quot;origPos&quot;:null,&quot;origRot&quot;:0}" fill="url(#color-3)" stroke="#000000" stroke-width="1" stroke-linecap="butt"/><path d="M232.40806,175.7522c1.86053,-2.00632 4.40354,-2.67316 5.68,-1.48946c1.94316,1.80196 0.49161,4.22581 -1.0685,5.89787c-1.37124,1.4696 -4.54691,3.49296 -6.47986,2.21207c-1.40007,-0.92778 0.00784,-4.61417 1.86836,-6.62047z" data-paper-data="{&quot;origPos&quot;:null,&quot;origRot&quot;:0}" fill="url(#color-4)" stroke="#000000" stroke-width="1.5" stroke-linecap="butt"/><path d="M263.80984,181.5112c-2.37598,0.74493 -5.63112,-1.76492 -6.94306,-3.3877c-1.49266,-1.84633 -2.74507,-4.34945 -0.27576,-5.56353c1.62208,-0.79751 4.3785,0.34993 6.15664,2.56289c1.77814,2.21296 2.78313,5.84879 1.06219,6.38834z" data-paper-data="{&quot;origPos&quot;:null,&quot;origRot&quot;:0,&quot;index&quot;:null}" fill="url(#color-5)" stroke="#000000" stroke-width="1.5" stroke-linecap="butt"/><path d="M234.4182,154.10247c1.78156,2.23234 2.07444,4.96084 0.65418,6.09432c-2.16206,1.72548 -4.4382,-0.14966 -5.92146,-2.01996c-1.30366,-1.64386 -2.89832,-5.2363 -1.27567,-7.03226c1.17532,-1.30084 4.76138,0.72557 6.54294,2.95791z" data-paper-data="{&quot;origPos&quot;:null,&quot;origRot&quot;:0}" fill="url(#color-6)" stroke="#000000" stroke-width="1.5" stroke-linecap="butt"/><path d="M231.22748,158.1043c1.90863,2.39158 2.22241,5.3147 0.70085,6.52903c-2.31628,1.84856 -4.75477,-0.16034 -6.34382,-2.16404c-1.39667,-1.76109 -3.10505,-5.6098 -1.36666,-7.53388c1.25914,-1.39363 5.101,0.77732 7.00964,3.1689z" data-paper-data="{&quot;origPos&quot;:null,&quot;origRot&quot;:0}" fill="url(#color-7)" stroke="#000000" stroke-width="1.5" stroke-linecap="butt"/><path d="M257.01079,185.06434c-2.56062,0.43504 -5.50833,-2.46303 -6.59931,-4.23597c-1.24128,-2.01717 -2.13134,-4.65381 0.59969,-5.54128c1.79402,-0.58297 4.44532,0.90327 5.92185,3.31962c1.47655,2.41635 1.93247,6.14253 0.07776,6.45764z" data-paper-data="{&quot;origPos&quot;:null,&quot;origRot&quot;:0,&quot;index&quot;:null}" fill="url(#color-8)" stroke="#000000" stroke-width="1.5" stroke-linecap="butt"/><path d="M229.4152,170.88723c2.79948,-1.17964 5.6773,-0.69209 6.42781,1.089c1.14252,2.71136 -1.43401,4.5004 -3.77677,5.47914c-2.05909,0.86024 -6.19705,1.45603 -7.56739,-0.72344c-0.99256,-1.57862 2.11685,-4.66506 4.91632,-5.8447z" data-paper-data="{&quot;origPos&quot;:null,&quot;origRot&quot;:0}" fill="url(#color-9)" stroke="#000000" stroke-width="1.5" stroke-linecap="butt"/><path d="M237.91328,178.06411c1.36646,-2.36903 3.73113,-3.77179 5.28161,-3.13315c2.36034,0.9722 1.4998,3.57972 0.35148,5.55712c-1.00926,1.73798 -3.67715,4.54258 -5.90258,4.02788c-1.61191,-0.37279 -1.09701,-4.08282 0.26945,-6.45185z" data-paper-data="{&quot;origPos&quot;:null,&quot;origRot&quot;:0}" fill="url(#color-10)" stroke="#000000" stroke-width="1.5" stroke-linecap="butt"/><path d="M261.73458,154.76375c-1.59278,2.29239 -4.16879,3.57764 -5.75369,2.87069c-2.4127,-1.07618 -1.33507,-3.62919 0.00252,-5.54226c1.17564,-1.68145 4.16366,-4.34661 6.46533,-3.7316c1.66713,0.44543 0.8786,4.11079 -0.71418,6.40317z" data-paper-data="{&quot;origPos&quot;:null,&quot;origRot&quot;:0}" fill="url(#color-11)" stroke="#000000" stroke-width="1" stroke-linecap="butt"/><path d="M239.20213,152.59454c1.34412,2.85796 1.16177,5.77299 -0.4073,6.51095c-2.38862,1.1234 -4.27273,-1.5164 -5.38978,-3.90799c-0.9818,-2.10199 -1.91264,-6.31093 -0.0344,-7.67278c1.36043,-0.98641 4.48736,2.21186 5.83149,5.0698z" data-paper-data="{&quot;origPos&quot;:null,&quot;origRot&quot;:0}" fill="url(#color-12)" stroke="#000000" stroke-width="1.5" stroke-linecap="butt"/><path d="M256.55598,152.34912c-1.60657,2.78915 -4.35046,4.42683 -6.12866,3.65785c-2.70699,-1.17061 -1.68025,-4.24625 -0.33034,-6.57425c1.18646,-2.04613 4.29863,-5.33873 6.85629,-4.71032c1.85255,0.45516 1.20929,4.83756 -0.39728,7.62673z" data-paper-data="{&quot;origPos&quot;:null,&quot;origRot&quot;:0}" fill="url(#color-13)" stroke="#000000" stroke-width="1.5" stroke-linecap="butt"/><path d="M244.47059,149.14163c1.04408,2.84964 0.4356,5.55834 -1.35911,6.05006c-2.73207,0.74856 -4.38873,-1.96542 -5.25412,-4.34906c-0.76061,-2.09502 -1.16848,-6.15812 1.04748,-7.19516c1.60504,-0.75114 4.52166,2.64453 5.56574,5.49417z" data-paper-data="{&quot;origPos&quot;:null,&quot;origRot&quot;:0}" fill="url(#color-14)" stroke="#000000" stroke-width="1.5" stroke-linecap="butt"/><path d="M242.1343,178.84901c0.05928,-3.56146 1.94417,-6.41803 4.21005,-6.3803c3.44937,0.05742 4.14935,3.66806 4.09067,6.6445c-0.05158,2.61604 -1.37058,7.3371 -4.35715,7.7758c-2.16321,0.31776 -4.00284,-4.47853 -3.94356,-8.03998z" data-paper-data="{&quot;origPos&quot;:null,&quot;origRot&quot;:0}" fill="url(#color-15)" stroke="#000000" stroke-width="1.5" stroke-linecap="butt"/><path d="M228.515,162.88248c3.56146,0.05928 6.41803,1.94417 6.3803,4.21005c-0.05742,3.44937 -3.66806,4.14935 -6.6445,4.09067c-2.61604,-0.05158 -7.3371,-1.37058 -7.7758,-4.35715c-0.31776,-2.16321 4.47853,-4.00284 8.03998,-3.94356z" data-paper-data="{&quot;origPos&quot;:null,&quot;origRot&quot;:0}" fill="url(#color-16)" stroke="#000000" stroke-width="1.5" stroke-linecap="butt"/><path d="M265.13309,171.01137c-3.56146,-0.05928 -6.41896,-1.88824 -6.38239,-4.0851c0.05566,-3.3443 3.66592,-4.02115 6.64237,-3.96275c2.61604,0.05133 7.33775,1.33256 7.77796,4.22843c0.31885,2.09752 -4.47647,3.87869 -8.03793,3.81941z" data-paper-data="{&quot;origPos&quot;:null,&quot;origRot&quot;:0}" fill="url(#color-17)" stroke="#000000" stroke-width="1.5" stroke-linecap="butt"/><path d="M250.68599,150.45906c-0.05928,3.56146 -1.69242,6.42221 -3.64774,6.38966c-2.97659,-0.04954 -3.57243,-3.65846 -3.51501,-6.63493c0.05047,-2.61606 1.19952,-7.33995 3.77786,-7.78544c1.86752,-0.32268 3.44416,4.46924 3.38489,8.03069z" data-paper-data="{&quot;origPos&quot;:null,&quot;origRot&quot;:0}" fill="url(#color-18)" stroke="#000000" stroke-width="1.5" stroke-linecap="butt"/><path d="M247.71859,151.60889c6.68955,0.11134 18.32116,7.89848 18.22224,14.5882c-0.12698,8.58693 -10.72514,14.13644 -19.30917,14.39314c-8.41176,0.25154 -18.87832,-6.41943 -18.77613,-14.83435c0.08215,-6.76515 10.23278,-14.30728 19.86304,-14.14699z" data-paper-data="{&quot;origPos&quot;:null,&quot;origRot&quot;:0}" fill="url(#color-19)" stroke="#000000" stroke-width="2" stroke-linecap="butt"/><path d="M243.77384,161.85062c-0.00274,2.59288 -1.24385,4.76277 -2.77209,4.84657c-1.52822,0.08382 -2.76492,-1.95021 -2.76216,-4.54308c0.00274,-2.59288 1.24385,-4.76277 2.77209,-4.84657c1.52822,-0.08382 2.7649,1.95021 2.76215,4.54307z" data-paper-data="{&quot;origPos&quot;:null,&quot;origRot&quot;:0}" fill="#000000" stroke="none" stroke-width="0" stroke-linecap="butt"/><path d="M256.08924,162.1669c-0.00274,2.59288 -1.24385,4.76277 -2.77209,4.84657c-1.52822,0.08382 -2.76492,-1.95021 -2.76216,-4.54308c0.00274,-2.59288 1.24385,-4.76277 2.77209,-4.84657c1.52822,-0.08382 2.7649,1.95021 2.76215,4.54307z" data-paper-data="{&quot;origPos&quot;:null,&quot;origRot&quot;:0}" fill="#000000" stroke="none" stroke-width="0" stroke-linecap="butt"/><path d="M259.61268,170.82998c0,0 -7.81818,3.32943 -13.02894,2.97617c-5.13926,-0.34842 -11.96432,-3.39213 -11.96432,-3.39213" data-paper-data="{&quot;origPos&quot;:null,&quot;origRot&quot;:0}" fill="none" stroke="#000000" stroke-width="1.5" stroke-linecap="round"/><path d="M241.6198,160.50294c-0.0011,1.05134 -0.50435,1.93119 -1.12401,1.96515c-0.61966,0.03398 -1.12109,-0.79076 -1.11998,-1.8421c0.0011,-1.05134 0.50435,-1.93119 1.12401,-1.96515c0.61966,-0.03398 1.12109,0.79076 1.11998,1.8421z" data-paper-data="{&quot;origPos&quot;:null,&quot;origRot&quot;:0}" fill="#ffffff" stroke="none" stroke-width="0" stroke-linecap="butt"/><path d="M253.72975,160.80405c-0.0011,1.05134 -0.50435,1.93119 -1.12401,1.96515c-0.61966,0.03398 -1.12109,-0.79076 -1.11998,-1.8421c0.0011,-1.05134 0.50435,-1.93119 1.12401,-1.96515c0.61966,-0.03398 1.12109,0.79076 1.11998,1.8421z" data-paper-data="{&quot;origPos&quot;:null,&quot;origRot&quot;:0}" fill="#ffffff" stroke="none" stroke-width="0" stroke-linecap="butt"/></g></g></svg>