<svg version="1.1" xmlns="http://www.w3.org/2000/svg" xmlns:xlink="http://www.w3.org/1999/xlink" width="81.53194" height="55.43469" viewBox="0,0,81.53194,55.43469"><defs><linearGradient x1="240.19427" y1="191.00523" x2="240.19427" y2="207.4082" gradientUnits="userSpaceOnUse" id="color-1"><stop offset="0" stop-color="#24693c"/><stop offset="1" stop-color="#4ecc71"/></linearGradient><radialGradient cx="237.76796" cy="174.32172" r="21.1235" gradientUnits="userSpaceOnUse" id="color-2"><stop offset="0" stop-color="#b3fa98"/><stop offset="1" stop-color="#05ac26"/></radialGradient><radialGradient cx="226.00835" cy="154.49604" r="14.99911" gradientUnits="userSpaceOnUse" id="color-3"><stop offset="0" stop-color="#036617"/><stop offset="1" stop-color="#037019"/></radialGradient><radialGradient cx="238.62074" cy="172.97149" r="6.67932" gradientUnits="userSpaceOnUse" id="color-4"><stop offset="0" stop-color="#adeba3"/><stop offset="1" stop-color="#32c144"/></radialGradient><linearGradient x1="235.54768" y1="182.32865" x2="238.97692" y2="199.79642" gradientUnits="userSpaceOnUse" id="color-5"><stop offset="0" stop-color="#a8d9ab"/><stop offset="1" stop-color="#50d844"/></linearGradient><radialGradient cx="237.10072" cy="174.76425" r="11.33088" gradientUnits="userSpaceOnUse" id="color-6"><stop offset="0" stop-color="#a5f48f"/><stop offset="1" stop-color="#32c144"/></radialGradient><linearGradient x1="243.89384" y1="161.62038" x2="247.2872" y2="178.90537" gradientUnits="userSpaceOnUse" id="color-7"><stop offset="0" stop-color="#baffa7"/><stop offset="1" stop-color="#82ff63"/></linearGradient><radialGradient cx="195.66149" cy="160.80769" r="10.59119" gradientUnits="userSpaceOnUse" id="color-8"><stop offset="0" stop-color="#c8d6ca"/><stop offset="1" stop-color="#05ad27"/></radialGradient><radialGradient cx="190.86779" cy="165.82846" r="9.57427" gradientUnits="userSpaceOnUse" id="color-9"><stop offset="0" stop-color="#83dd6c"/><stop offset="1" stop-color="#28bd46"/></radialGradient><radialGradient cx="201.86648" cy="163.7328" r="7.29369" gradientUnits="userSpaceOnUse" id="color-10"><stop offset="0" stop-color="#83dd6c"/><stop offset="1" stop-color="#5dc572"/></radialGradient><linearGradient x1="195.21761" y1="164.5926" x2="198.95838" y2="176.6245" gradientUnits="userSpaceOnUse" id="color-11"><stop offset="0" stop-color="#53db7a"/><stop offset="1" stop-color="#24693c"/></linearGradient></defs><g transform="translate(-184.47253,-152.46046)"><g data-paper-data="{&quot;isPaintingLayer&quot;:true}" fill="none" fill-rule="nonzero" stroke="none" stroke-width="none" stroke-linecap="none" stroke-linejoin="miter" stroke-miterlimit="10" stroke-dasharray="" stroke-dashoffset="0" font-family="none" font-weight="none" font-size="none" text-anchor="none" style="mix-blend-mode: normal"><path d="M265.50447,196.78897c0,2.05192 -4.46233,5.3969 -5.99869,5.1516c-2.211,-0.35301 -7.33647,-4.94385 -7.33647,-4.94385c0,0 3.94658,2.47919 5.06352,4.47218c1.09713,1.95763 1.60555,5.11132 -0.57043,5.66005c-0.81875,0.20647 -2.25973,-4.07958 -3.04313,-3.76452c-0.51129,0.20562 -0.20078,0.90011 -0.39866,1.41446c-0.48513,1.26101 -0.65474,2.07082 -2.00368,2.1474c-2.54931,0.14472 -1.21167,-3.82453 -3.65419,-3.08021c-1.3397,0.40825 -1.1077,1.11468 -2.17422,2.02242c-2.09749,1.78521 -2.63345,1.52666 -5.3878,1.52666c-3.37785,0 -7.03408,-6.82012 -7.03408,-6.82012c0,0 -9.27918,5.80446 -14.23348,3.40515c-1.85279,-0.89729 1.05445,-3.69416 2.6697,-4.97045c1.36434,-1.07803 4.18869,-1.43148 4.18869,-1.43148c0,0 -4.97845,1.0473 -7.10801,0.24077c-1.79846,-0.68114 -3.59951,-2.29397 -3.59951,-4.2171c0,-1.27932 7.86551,-0.1749 7.86551,-0.1749c0,0 -3.96234,-1.47362 -2.2704,-1.93843c6.91241,-1.899 31.59011,2.37702 33.85978,2.86475c0.75656,0.16258 7.08018,-1.36996 7.557,-0.76049c0.73094,0.93429 -2.67507,3.70814 -2.67507,3.70814c0,0 6.28359,-4.13562 6.28359,-0.51203z" data-paper-data="{&quot;origPos&quot;:null}" fill="url(#color-1)" stroke="#0f2c13" stroke-width="1" stroke-linecap="butt"/><path d="M219.02766,179.27943l-0.53291,-2.71447l2.44302,-0.47961l0.53291,2.71447z" data-paper-data="{&quot;origPos&quot;:null,&quot;origRot&quot;:0}" fill="#1c5324" stroke="none" stroke-width="0" stroke-linecap="butt"/><path d="M261.06356,176.34278c2.10644,10.72974 -5.01208,21.16066 -17.22989,23.55924c-12.21782,2.39858 -21.13401,-4.88441 -23.24047,-15.61415c-1.47213,-7.4987 0.01306,-10.3674 3.24721,-12.39256c2.34171,-1.46633 0.39236,-4.46111 0.59181,-7.21683c0.11293,-1.56041 1.10955,-3.47749 2.58007,-2.94342c2.26498,0.82259 5.38737,2.89022 5.38737,2.89022c0,0 -0.30622,-4.54305 2.13795,-3.44117c2.74486,1.23745 4.75229,1.5741 6.90751,2.95036c0,0 17.51203,1.47857 19.61848,12.2083z" data-paper-data="{&quot;origPos&quot;:null,&quot;origRot&quot;:0}" fill="url(#color-2)" stroke="#000000" stroke-width="1.5" stroke-linecap="butt"/><path d="M252.1164,184.34167c0.70594,2.16151 0.26434,4.3088 -0.98632,4.79604c-1.25064,0.48729 -2.8368,-0.87 -3.54273,-3.0315c-0.70594,-2.16151 -0.26434,-4.3088 0.98632,-4.79604c1.25064,-0.48729 2.83679,0.86999 3.54271,3.0315z" data-paper-data="{&quot;origPos&quot;:null,&quot;origRot&quot;:0}" fill="#000000" stroke="none" stroke-width="0" stroke-linecap="butt"/><path d="M257.45244,181.3504c0.51178,1.63469 0.15936,3.24803 -0.78719,3.60351c-0.94657,0.35549 -2.12877,-0.68149 -2.64059,-2.31619c-0.51178,-1.63469 -0.15937,-3.24803 0.78719,-3.60351c0.94657,-0.35549 2.12881,0.6815 2.64061,2.31617z" data-paper-data="{&quot;origPos&quot;:null,&quot;origRot&quot;:0}" fill="#000000" stroke="none" stroke-width="0" stroke-linecap="butt"/><path d="M233.00309,165.35404c0.03299,-1.16993 1.72984,-2.03012 1.74491,-2.01284c0.88412,-0.37038 1.16557,0.00291 1.43106,0.40541c0.79646,1.20747 5.57966,3.46904 5.57966,3.46904c0,0 -8.82115,0.46193 -8.75562,-1.86161z" data-paper-data="{&quot;origPos&quot;:null,&quot;index&quot;:null,&quot;origRot&quot;:0}" fill="#287732" stroke="none" stroke-width="0" stroke-linecap="butt"/><path d="M233.6164,167.45364l-8.37692,-11.23314c0,0 -2.83605,-0.19762 -4.81596,1.07974c-4.89856,3.1603 -12.16694,10.09148 -12.16694,10.09148l0.52735,-3.49071c0,0 5.11733,-4.9558 8.74277,-7.48515c3.4873,-2.43299 9.02571,-3.67925 9.02571,-3.67925l13.12407,14.67206z" data-paper-data="{&quot;origPos&quot;:null,&quot;origRot&quot;:0}" fill="url(#color-3)" stroke="#0f2c13" stroke-width="0.5" stroke-linecap="butt"/><path d="M235.36393,176.87611c0,0 -4.02528,-6.82807 -1.09571,-10.58064c1.43849,-0.12111 1.74229,0.56856 3.1461,0.11925c0.77721,-0.24876 -2.07318,-2.95585 -1.31429,-3.25583c1.20866,-0.47774 3.32845,-0.02611 4.54047,0.4431c2.15486,0.8342 5.00922,1.76774 5.00922,1.76774c0,0 -0.38038,3.66908 -3.19107,7.26937c-1.66242,2.12943 -7.09472,4.23702 -7.09472,4.23702z" data-paper-data="{&quot;origPos&quot;:null,&quot;origRot&quot;:0}" fill="url(#color-4)" stroke="#256d2f" stroke-width="0.5" stroke-linecap="butt"/><path d="M250.24482,184.15439c0.32022,0.98055 0.11991,1.95463 -0.44744,2.17569c-0.56734,0.22105 -1.28688,-0.39467 -1.60711,-1.37522c-0.32022,-0.98055 -0.11991,-1.95463 0.44744,-2.17569c0.56734,-0.22105 1.28688,0.39467 1.6071,1.37521z" data-paper-data="{&quot;origPos&quot;:null,&quot;origRot&quot;:0}" fill="#ffffff" stroke="none" stroke-width="0" stroke-linecap="butt"/><path d="M255.76993,180.93087c0.17454,0.55747 0.05436,1.10766 -0.26845,1.22889c-0.32278,0.12123 -0.72596,-0.2324 -0.9005,-0.78987c-0.17454,-0.55747 -0.05436,-1.10766 0.26845,-1.22889c0.32278,-0.12123 0.72596,0.23241 0.90049,0.78987z" data-paper-data="{&quot;origPos&quot;:null,&quot;origRot&quot;:0}" fill="#ffffff" stroke="none" stroke-width="0" stroke-linecap="butt"/><path d="M227.52672,171.29383c0,0 -1.63141,-5.41583 -1.35056,-6.83478c0.09361,-0.47298 0.13574,-1.31874 1.09428,-1.31014c0.0074,-0.02169 1.93446,0.29065 2.40732,1.36128c0.93912,2.1263 0.05357,0.78911 0.05357,0.78911z" data-paper-data="{&quot;origPos&quot;:null,&quot;origRot&quot;:0}" fill="#287732" stroke="none" stroke-width="0" stroke-linecap="butt"/><path d="M241.33682,181.77258c0,0 -0.15982,-5.66358 1.51351,-5.83281c3.4537,-0.34924 6.04759,3.07335 6.04759,3.07335c0,0 -3.09095,-0.7266 -4.40592,-0.24671c-1.63585,0.59701 -3.15518,3.00615 -3.15518,3.00615z" data-paper-data="{&quot;origPos&quot;:null,&quot;origRot&quot;:0}" fill="#05ac26" stroke="#000000" stroke-width="0.5" stroke-linecap="butt"/><path d="M252.75851,177.24572c0,0 -0.27956,-3.55423 1.20257,-4.79689c1.39823,-1.1723 5.12325,2.53263 5.12325,2.53263c0,0 -2.38379,-0.86988 -3.77178,-0.42091z" data-paper-data="{&quot;origPos&quot;:null,&quot;index&quot;:null,&quot;origRot&quot;:0}" fill="#05ac26" stroke="#000000" stroke-width="0.5" stroke-linecap="butt"/><path d="M232.68365,198.18639c-10.20166,-3.63619 -10.85467,-13.1645 -10.85467,-13.1645c0,0 2.23191,1.92219 4.10231,2.78298c3.24775,1.49467 5.7385,1.82743 9.1098,3.0175c1.1745,0.41457 3.42511,0.30192 4.52801,0.88062c1.18924,0.62402 1.55989,1.73465 2.53092,2.66243c0.7034,0.6721 1.31617,0.45336 2.25283,0.71642c3.13791,0.8813 8.07228,0.38497 8.07228,0.38497c0,0 -9.53981,6.35577 -19.74148,2.71957z" data-paper-data="{&quot;origPos&quot;:null,&quot;origRot&quot;:0}" fill="url(#color-5)" stroke="#287732" stroke-width="0" stroke-linecap="butt"/><path d="M222.39586,188.20844c0,0 -4.19065,-5.76114 -3.53129,-9.75637c0.65936,-3.99524 4.42427,-2.77248 5.78812,-4.4532c1.43268,-1.76553 1.7366,-1.8343 2.91357,-3.77965c0.89848,-1.48503 0.05117,-4.21737 1.24849,-5.47397c0.83081,-0.87194 1.83752,-0.15178 3.04188,-0.14503c1.31539,0.00739 2.23846,4.18266 2.23846,4.18266c0,0 2.72065,-1.10155 2.72168,1.10787c0.00088,1.90314 -1.31424,1.41089 -0.84862,3.2562c0.56052,2.22144 2.51586,-0.82621 2.73636,1.45424c0.34226,3.53989 0.36997,5.24443 -1.28051,8.39467c0,0 -5.07405,3.12411 -7.92169,4.03321c-3.43836,1.09769 -7.10648,1.1794 -7.10648,1.1794z" data-paper-data="{&quot;origPos&quot;:null,&quot;origRot&quot;:0}" fill="url(#color-6)" stroke="#256d2f" stroke-width="0.5" stroke-linecap="butt"/><path d="M222.96252,192.20175c-1.22129,-1.80093 -0.3527,-2.59417 -1.74842,-4.16979c-0.60899,-0.68748 -0.98386,-0.10451 -1.89667,-0.00329c-1.24214,0.13774 -2.79603,0.44327 -3.30789,-0.69683c-0.57344,-1.27731 1.31342,-3.5645 1.31342,-3.5645c0,0 -4.37435,0.31713 -4.79102,-2.54563c-0.43209,-2.96872 3.7553,-3.68155 4.02042,-4.43296c0.44619,-1.26467 -0.5667,-2.30124 0.66369,-2.83466c0.79095,-0.3429 3.03011,2.10378 2.78626,1.27689c-0.31587,-1.07106 3.33777,-0.54404 3.33777,-0.54404l-2.16088,2.01376c0,0 -2.1419,1.02942 -1.58892,2.92334c1.05218,3.60366 0.35339,3.52289 3.36841,5.75965c1.48921,1.10481 4.49017,4.18327 6.19597,3.37761c1.09751,1.44578 3.47823,0.94515 5.20833,1.49429c2.24719,0.71324 5.66264,1.93025 5.66264,1.93025c0,0 -2.90913,-0.46182 -3.89435,-0.20097c-2.78481,0.73733 -2.1662,1.38741 -5.01141,0.9363c-1.22493,-0.19421 -1.71163,-1.27475 -2.94783,-1.37452c-2.81917,-0.22755 -3.98817,2.45602 -5.20948,0.65508z" data-paper-data="{&quot;origPos&quot;:null,&quot;origRot&quot;:0}" fill="#98ff7e" stroke="#256d2f" stroke-width="1" stroke-linecap="butt"/><path d="M238.20285,180.68879c0,0 0.44901,-1.34022 0.48289,-2.13819c0.05209,-1.22804 -0.06516,-3.02519 -0.06516,-3.02519c0.35145,-1.26972 0.95516,-1.68806 1.57676,-2.84965c0.56912,-1.06352 1.33552,-2.90088 1.33552,-2.90088c0.6995,-1.25081 4.18051,-4.91752 4.18051,-4.91752l-4.13003,-1.10899c0,0 1.16339,-0.84584 1.82129,-1.22828c3.76879,-2.19071 9.25693,-2.81631 10.07175,-0.11719c0.49673,1.64544 -3.63177,0.72275 -5.0079,3.18349c-0.58,1.03712 1.45211,2.87448 0.71905,4.21882c-0.59885,1.09826 -4.01583,-1.01573 -4.62886,0.07467c-0.43172,0.76789 0.31988,3.03519 -0.2325,3.64917c-0.8743,0.97181 -0.96008,0.28809 -2.26639,0.23944c-0.55628,-0.02073 -0.84763,0.36905 -1.15446,0.83354c-1.26669,1.91762 0.34478,2.52187 -1.0053,4.38173c-0.9454,1.30237 -1.69713,1.70503 -1.69713,1.70503z" data-paper-data="{&quot;origPos&quot;:null,&quot;origRot&quot;:0}" fill="url(#color-7)" stroke="#256d2f" stroke-width="1" stroke-linecap="butt"/><path d="M245.48883,163.05673c0,0 3.40379,-0.51528 2.65414,0.16744c-2.48754,2.26545 -3.98293,2.54762 -5.93458,5.2883c-0.99855,1.40226 -1.62931,3.52775 -2.53222,4.99342c-2.4746,4.01699 0.47929,5.9342 -2.64509,9.46949c-2.3393,2.64696 -9.51093,4.82276 -9.51093,4.82276" data-paper-data="{&quot;origPos&quot;:null,&quot;origRot&quot;:0}" fill="none" stroke="#287732" stroke-width="0.5" stroke-linecap="round"/><path d="M252.51055,195.4068c0,0 -2.56286,0.14503 -4.34038,0.01108c-1.90997,-0.14393 -3.22499,-0.40823 -5.07786,-0.8936c-3.21552,-0.84231 -1.15616,-1.9876 -4.31528,-3.02152c-4.47632,-1.46502 -9.78917,-2.28458 -13.88855,-4.60377c-3.02476,-1.71125 -6.02837,-5.34767 -5.01341,-8.62586c0.42328,-1.36718 1.2648,-1.68771 1.2648,-1.68771" data-paper-data="{&quot;origPos&quot;:null,&quot;origRot&quot;:0}" fill="none" stroke="#287732" stroke-width="0.5" stroke-linecap="round"/><path d="M208.75259,164.55534c0.98414,5.95085 -3.51866,11.65157 -10.05725,12.73291c-6.5386,1.08133 -12.637,-2.86618 -13.62114,-8.81702c-0.98414,-5.95085 22.69424,-9.86674 23.67837,-3.91588z" data-paper-data="{&quot;origPos&quot;:null,&quot;origRot&quot;:0}" fill="#2e8149" stroke="#0f2c13" stroke-width="0.5" stroke-linecap="butt"/><path d="M186.25237,168.96238c-1.73659,-5.58561 1.30858,-11.76287 6.89423,-13.49947c5.58561,-1.73659 11.59651,1.62507 13.33312,7.21071c1.73659,5.58561 -1.30859,11.76288 -6.89423,13.49948c-5.58561,1.73659 -11.5965,-1.62508 -13.33311,-7.21072z" data-paper-data="{&quot;origPos&quot;:null,&quot;origRot&quot;:0}" fill="url(#color-8)" stroke="#000000" stroke-width="1" stroke-linecap="butt"/><path d="M205.32165,170.04616c-1.19553,2.51072 -1.84736,2.49824 -3.24124,2.90284c-2.66452,0.77341 -7.23787,-0.01361 -7.23787,-0.01361c0,0 3.89067,-2.12637 5.36844,-4.48429c1.3174,-2.10205 1.47087,-4.32173 0.11496,-6.39912c-0.89475,-1.37082 -2.26355,-2.04302 -2.77879,-3.59683c-0.28974,-0.87381 0.51946,-2.54341 0.51946,-2.54341c0,0 0.75474,0.53565 2.56969,0.93613c1.21839,0.26885 2.16857,1.59431 3.12056,2.40084c1.29348,1.0958 1.57321,2.35512 2.07653,3.97394c1.13388,3.64703 0.60576,4.47668 -0.51175,6.82354z" data-paper-data="{&quot;origPos&quot;:null,&quot;index&quot;:null,&quot;origRot&quot;:0}" fill="#27b33c" stroke="#1c802b" stroke-width="0.5" stroke-linecap="butt"/><path d="M186.95432,168.85447c-0.61031,-1.96307 -0.70879,-3.56502 -0.17023,-5.54896c0.3964,-1.4602 1.07381,-3.1012 2.106,-4.20752c1.53755,-1.64796 4.31954,-2.91184 4.31954,-2.91184c0,0 -1.60134,5.98794 -1.55895,7.71217c0.07394,3.00737 1.75343,5.11906 4.51468,6.31292c3.09737,1.33921 8.44572,0.78808 8.44572,0.78808c0,0 -2.93015,5.18034 -7.20865,4.90851c0,0 -3.15639,0.08296 -5.14111,-0.94282c-2.54127,-1.31342 -3.93203,-1.68801 -5.30703,-6.11056z" data-paper-data="{&quot;origPos&quot;:null,&quot;origRot&quot;:0}" fill="#27b33c" stroke="#1c802b" stroke-width="0.5" stroke-linecap="butt"/><path d="M191.75848,165.28673c0,0 1.82231,-4.21033 3.38775,-4.71313c0.83233,-0.26734 1.38536,1.71556 2.20182,2.02807c0.80086,0.30652 0.54594,-0.82869 1.39225,-0.96665c0.32685,-0.05327 1.60452,0.89392 1.60452,0.89392" data-paper-data="{&quot;origPos&quot;:null,&quot;origRot&quot;:0}" fill="none" stroke="#1c802b" stroke-width="0.5" stroke-linecap="round"/><path d="M195.54798,155.90045c0,0 -0.63663,0.90811 -0.65149,1.48026c-0.01718,0.66177 1.42001,0.60829 1.53974,1.25938c0.11239,0.61105 -1.01077,1.97619 -1.01077,1.97619" data-paper-data="{&quot;origPos&quot;:null,&quot;origRot&quot;:0}" fill="none" stroke="#1c802b" stroke-width="0.5" stroke-linecap="round"/><path d="M189.39749,167.34467c-0.26856,-1.31665 0.54467,-0.59582 0.86732,-1.9003c0.1226,-0.49564 -1.52472,-1.74298 -1.40996,-2.24048c0.26424,-1.14561 0.75068,-0.79787 1.34801,-1.8105c0.64203,-1.08837 -2.58036,-2.91269 -1.99278,-4.03141c0.4934,-0.93944 1.54475,0.45405 2.58401,0.23974c0.71227,-0.14688 -0.60289,-2.88949 -0.05246,-3.36481c0.47803,-0.41279 0.77954,0.69987 1.26181,1.10775c0.19569,0.1655 0.7777,-1.13981 1.00367,-1.01887c0.23229,0.1243 1.25365,0.29824 1.27161,0.56108c0.02061,0.30175 -0.7289,-0.06033 -0.96676,0.12648c-0.2645,0.20774 -0.21763,0.94384 -0.21763,0.94384c0,0 -1.39332,4.62641 -1.47271,7.27472c-0.06773,2.25936 0.31255,3.25157 1.67877,5.05236c2.10615,2.77604 6.86572,3.0379 6.86572,3.0379c0,0 -10.17016,-1.04341 -10.76864,-3.97752z" data-paper-data="{&quot;origPos&quot;:null,&quot;origRot&quot;:0}" fill="url(#color-9)" stroke="#256d2f" stroke-width="0.5" stroke-linecap="butt"/><path d="M200.93041,167.81897c0,0 1.18504,-3.85423 -0.31208,-5.90978c-1.24239,-1.70577 -2.23517,-1.61183 -2.89027,-3.5061c-0.73993,-2.1396 0.42028,-3.22285 0.42028,-3.22285c0,0 -1.79275,-1.27648 -1.40033,-0.92876c0.57652,0.51087 1.10614,-1.19127 1.78976,-0.83624c0.47466,0.24651 0.16262,0.53524 0.82089,1.5248c0.21506,0.32328 1.14638,0.44561 1.24355,0.8215c0.18834,0.72861 -0.75542,1.27544 -0.72703,2.02749c0.03996,1.05769 2.96579,1.61815 3.2938,2.62446c0.63627,1.95202 -0.15531,0.58992 -0.85553,2.32394c-0.62689,1.55243 1.22059,-0.20775 1.58613,1.42607c0.57605,2.57499 -2.96918,3.65544 -2.96918,3.65544z" data-paper-data="{&quot;origPos&quot;:null,&quot;origRot&quot;:0}" fill="url(#color-10)" stroke="#256d2f" stroke-width="0.5" stroke-linecap="butt"/><path d="M184.98484,169.91905c-0.17132,-0.62039 -0.2416,-1.9652 -0.2416,-1.9652c0,0 1.63494,0.70907 1.9248,1.05768c0.86957,1.04576 1.32126,2.59481 1.32126,2.59481c0,0 -0.17648,-1.65425 1.90572,-1.6923c0.66278,-0.01212 1.53422,1.77547 1.53422,1.77547c0,0 1.39107,-2.67637 2.77942,-1.9664c1.68396,0.86114 2.46228,2.43948 2.46228,2.43948c0,0 0.96967,-2.93306 1.9058,-3.0276c2.11668,-0.21375 3.66203,0.35796 3.66203,0.35796c0,0 -2.03662,-0.3765 -1.44389,-2.27945c0.43687,-1.40258 3.81237,-1.39814 3.81237,-1.39814c0,0 -1.05971,-1.34819 -0.88645,-2.2748c0.22915,-1.22538 1.69599,-0.51837 1.69599,-0.51837l-0.22559,-2.05406c0,0 2.81166,1.75536 3.2879,3.10571c0.63628,1.80411 0.25491,3.44682 -0.28811,5.28117c-1.19468,4.03584 -5.04656,7.36644 -9.1893,8.11008c-2.20718,0.3962 -3.64355,0.07124 -5.86637,-0.22481c0,0 -3.39097,-0.9289 -5.17251,-2.70676c-1.32415,-1.32144 -2.46407,-2.75338 -2.97805,-4.61452z" data-paper-data="{&quot;origPos&quot;:null,&quot;origRot&quot;:0}" fill="url(#color-11)" stroke="#0f2c13" stroke-width="0.5" stroke-linecap="butt"/></g></g></svg>