<svg version="1.1" xmlns="http://www.w3.org/2000/svg" xmlns:xlink="http://www.w3.org/1999/xlink" width="54.08703" height="62.55288" viewBox="0,0,54.08703,62.55288"><g transform="translate(-215.70181,-143.72439)"><g data-paper-data="{&quot;isPaintingLayer&quot;:true}" fill="none" fill-rule="nonzero" stroke="none" stroke-width="none" stroke-linecap="butt" stroke-linejoin="miter" stroke-miterlimit="10" stroke-dasharray="" stroke-dashoffset="0" font-family="none" font-weight="none" font-size="none" text-anchor="none" style="mix-blend-mode: normal"><path d="M231.27052,191.15242c4.70339,0.74227 8.22807,3.16986 7.87262,5.42219c-0.35546,2.25233 -4.45647,3.47645 -9.15983,2.73419c-4.70339,-0.74227 -7.87259,-5.4222 -7.87259,-5.4222c0,0 4.45645,-3.47647 9.15981,-2.7342z" data-paper-data="{&quot;origRot&quot;:0,&quot;origPos&quot;:null,&quot;index&quot;:null}" fill="#2bd900" stroke="#000000" stroke-width="1.5"/><path d="M256.46391,194.0852c0,0 -3.1258,4.70903 -7.82212,5.49476c-4.69632,0.78574 -8.80847,-0.4004 -9.18474,-2.64935c-0.37628,-2.24895 3.12583,-4.70905 7.82213,-5.49479c4.69632,-0.78574 9.18473,2.64936 9.18473,2.64936z" data-paper-data="{&quot;origRot&quot;:0,&quot;origPos&quot;:null,&quot;index&quot;:null}" fill="#2bd900" stroke="#000000" stroke-width="1.5"/><path d="M238.30398,198.53544c0,0 -0.73502,-7.08044 -0.56873,-11.51179c0.13129,-3.49845 1.33117,-8.80727 1.33117,-8.80727l4.49683,0.16875c0,0 -1.82704,4.24312 -1.93908,7.22845c-0.18554,4.94443 1.17662,13.09059 1.17662,13.09059z" data-paper-data="{&quot;origPos&quot;:null,&quot;origRot&quot;:0}" fill="#a9ff59" stroke="#000000" stroke-width="2"/><path d="M224.45515,145.5992c3.44479,2.23987 5.36783,5.39296 4.2952,7.04255c-1.07261,1.64962 -4.73469,1.17113 -8.17949,-1.0688c-3.44479,-2.23987 -4.2952,-7.04255 -4.2952,-7.04255c0,0 4.73469,-1.17112 8.17949,1.0688z" data-paper-data="{&quot;origRot&quot;:0,&quot;origPos&quot;:null}" fill="#2fe500" stroke="#000000" stroke-width="1"/><path d="M261.09862,162.97394c-0.03766,8.78179 -8.28689,15.8656 -18.42518,15.8221c-10.13828,-0.04347 -18.32646,-7.19778 -18.28879,-15.97957c0.03766,-8.78179 8.28689,-15.86559 18.42518,-15.82209c10.13828,0.04347 18.32646,7.19778 18.28879,15.97956z" data-paper-data="{&quot;origPos&quot;:null,&quot;origRot&quot;:0}" fill="#a9ff59" stroke="#000000" stroke-width="3"/><path d="M268.78884,168.42012c-0.52102,5.51056 -3.72559,9.67579 -7.1576,9.30331c-3.43201,-0.37252 -5.7918,-5.14165 -5.2708,-10.65219c0.52102,-5.51056 3.7256,-9.67581 7.1576,-9.30331c3.432,0.37251 5.79178,5.14164 5.2708,10.65219z" data-paper-data="{&quot;origPos&quot;:null,&quot;origRot&quot;:0}" fill="#a9ff59" stroke="#000000" stroke-width="2"/><path d="M261.67731,167.52323c-0.21548,2.71946 -1.38671,4.83335 -2.616,4.72149c-1.22928,-0.11185 -2.05114,-2.40708 -1.83566,-5.12655c0.21548,-2.71946 1.38671,-4.83335 2.61599,-4.72147c1.22928,0.11185 2.05117,2.40708 1.83567,5.12655z" data-paper-data="{&quot;origRot&quot;:0,&quot;origPos&quot;:null}" fill="#84c746" stroke="none" stroke-width="0"/><path d="M229.73702,195.47394c5.11563,-1.00495 9.65279,0.16627 10.13405,2.61602c0.48124,2.44973 -3.27567,5.25031 -8.3913,6.25527c-5.11563,1.00495 -10.13404,-2.61602 -10.13404,-2.61602c0,0 3.27566,-5.25032 8.39129,-6.25527z" data-paper-data="{&quot;origRot&quot;:0,&quot;origPos&quot;:null}" fill="#2fe500" stroke="#000000" stroke-width="2"/><path d="M257.45734,203.19135c0,0 -5.32129,3.15902 -10.32694,1.70191c-5.00563,-1.45712 -8.49786,-4.58154 -7.80007,-6.97861c0.69777,-2.39706 5.32131,-3.15904 10.32695,-1.70192c5.00563,1.45712 7.80006,6.97862 7.80006,6.97862z" data-paper-data="{&quot;origRot&quot;:0,&quot;origPos&quot;:null,&quot;index&quot;:null}" fill="#2fe500" stroke="#000000" stroke-width="2"/><path d="M248.18897,156.48351c0.37594,2.24257 -0.38069,4.30007 -1.69,4.59552c-1.3093,0.29546 -2.67549,-1.28301 -3.05143,-3.52558c-0.37594,-2.24257 0.38069,-4.30007 1.69,-4.59552c1.3093,-0.29546 2.67548,1.28301 3.05141,3.52557z" data-paper-data="{&quot;origPos&quot;:null,&quot;origRot&quot;:0}" fill="#000000" stroke="none" stroke-width="0"/><path d="M254.27692,156.39872c0.2832,1.68936 -0.28677,3.23926 -1.27308,3.46183c-0.98632,0.22256 -2.01544,-0.96649 -2.29865,-2.65586c-0.2832,-1.68936 0.28676,-3.23926 1.27308,-3.46183c0.98632,-0.22256 2.01546,0.9665 2.29867,2.65586z" data-paper-data="{&quot;origPos&quot;:null,&quot;origRot&quot;:0}" fill="#000000" stroke="none" stroke-width="0"/></g></g></svg>