<svg version="1.1" xmlns="http://www.w3.org/2000/svg" xmlns:xlink="http://www.w3.org/1999/xlink" width="55.04904" height="64.46913" viewBox="0,0,55.04904,64.46913"><g transform="translate(-214.63465,-142.01692)"><g data-paper-data="{&quot;isPaintingLayer&quot;:true}" fill="none" fill-rule="nonzero" stroke="none" stroke-width="none" stroke-linecap="butt" stroke-linejoin="miter" stroke-miterlimit="10" stroke-dasharray="" stroke-dashoffset="0" font-family="none" font-weight="none" font-size="none" text-anchor="none" style="mix-blend-mode: normal"><path d="M231.27052,191.15242c4.70339,0.74227 8.22807,3.16986 7.87262,5.42219c-0.35546,2.25233 -4.45647,3.47645 -9.15983,2.73419c-4.70339,-0.74227 -7.87259,-5.4222 -7.87259,-5.4222c0,0 4.45645,-3.47647 9.15981,-2.7342z" data-paper-data="{&quot;origRot&quot;:0,&quot;origPos&quot;:null,&quot;index&quot;:null}" fill="#2bd900" stroke="#000000" stroke-width="1.5"/><path d="M256.46703,193.89031c0,0 -3.13606,4.7022 -7.83407,5.4777c-4.69803,0.7755 -8.80757,-0.4196 -9.17894,-2.66936c-0.37138,-2.24977 3.13609,-4.70222 7.83408,-5.47773c4.69803,-0.7755 9.17893,2.66937 9.17893,2.66937z" data-paper-data="{&quot;origRot&quot;:0,&quot;origPos&quot;:null,&quot;index&quot;:null}" fill="#2bd900" stroke="#000000" stroke-width="1.5"/><path d="M238.8302,198.46069c0,0 -1.24831,-7.00818 -1.40493,-11.43988c-0.12364,-3.49873 0.68674,-8.88079 0.68674,-8.88079l4.49719,-0.15893c0,0 -1.51343,4.36483 -1.40793,7.35039c0.17476,4.94482 2.1261,12.97026 2.1261,12.97026z" data-paper-data="{&quot;origPos&quot;:null,&quot;origRot&quot;:0}" fill="#a9ff59" stroke="#000000" stroke-width="2"/><path d="M223.38798,143.89173c3.44479,2.23987 5.36783,5.39296 4.2952,7.04255c-1.07261,1.64962 -4.73469,1.17113 -8.17949,-1.0688c-3.44479,-2.23987 -4.2952,-7.04255 -4.2952,-7.04255c0,0 4.73469,-1.17112 8.17949,1.0688z" data-paper-data="{&quot;origRot&quot;:0,&quot;origPos&quot;:null}" fill="#2fe500" stroke="#000000" stroke-width="1"/><path d="M260.03145,161.26648c-0.03766,8.78179 -8.28689,15.8656 -18.42518,15.8221c-10.13828,-0.04347 -18.32646,-7.19778 -18.28879,-15.97957c0.03766,-8.78179 8.28689,-15.86559 18.42518,-15.82209c10.13828,0.04347 18.32646,7.19778 18.28879,15.97956z" data-paper-data="{&quot;origPos&quot;:null,&quot;origRot&quot;:0}" fill="#a9ff59" stroke="#000000" stroke-width="3"/><path d="M268.68368,166.82655c-0.57891,5.56937 -4.13952,9.77903 -7.95286,9.40259c-3.81332,-0.37649 -6.43531,-5.19652 -5.85642,-10.76587c0.57891,-5.56937 4.13953,-9.77906 7.95286,-9.40259c3.81331,0.37649 6.43528,5.19651 5.85642,10.76587z" data-paper-data="{&quot;origPos&quot;:null,&quot;origRot&quot;:0}" fill="#a9ff59" stroke="#000000" stroke-width="2"/><path d="M261.09811,165.58809c-0.25206,2.89356 -1.62212,5.1428 -3.0601,5.02379c-1.43797,-0.119 -2.39934,-2.56119 -2.14728,-5.45478c0.25206,-2.89356 1.62212,-5.1428 3.06009,-5.02377c1.43797,0.119 2.39938,2.56119 2.1473,5.45478z" data-paper-data="{&quot;origRot&quot;:0,&quot;origPos&quot;:null}" fill="#84c746" stroke="none" stroke-width="0"/><path d="M229.53276,196.07997c4.91137,-1.74872 9.57168,-1.25974 10.40911,1.09219c0.83741,2.35192 -2.46518,5.67615 -7.37655,7.42488c-4.91137,1.74872 -10.4091,-1.0922 -10.4091,-1.0922c0,0 2.46517,-5.67616 7.37654,-7.42488z" data-paper-data="{&quot;origRot&quot;:0,&quot;origPos&quot;:null}" fill="#2fe500" stroke="#000000" stroke-width="2"/><path d="M257.10787,204.14008c0,0 -5.62592,2.5777 -10.4491,0.59866c-4.82316,-1.97905 -7.96486,-5.45574 -7.01714,-7.76543c0.94771,-2.30968 5.62594,-2.57772 10.44912,-0.59867c4.82316,1.97905 7.01712,7.76544 7.01712,7.76544z" data-paper-data="{&quot;origRot&quot;:0,&quot;origPos&quot;:null,&quot;index&quot;:null}" fill="#2fe500" stroke="#000000" stroke-width="2"/><path d="M247.2688,155.93783c0.67656,2.17088 0.20591,4.31198 -1.05125,4.78224c-1.25714,0.47027 -2.82475,-0.90837 -3.50131,-3.07925c-0.67656,-2.17088 -0.20591,-4.31198 1.05125,-4.78224c1.25714,-0.47027 2.82474,0.90837 3.50129,3.07924z" data-paper-data="{&quot;origPos&quot;:null,&quot;origRot&quot;:0}" fill="#000000" stroke="none" stroke-width="0"/><path d="M253.28903,155.02831c0.50966,1.63536 0.15512,3.24823 -0.7919,3.60248c-0.94703,0.35425 -2.12788,-0.68427 -2.63755,-2.31964c-0.50966,-1.63536 -0.15513,-3.24823 0.7919,-3.60248c0.94703,-0.35425 2.1279,0.68428 2.63757,2.31963z" data-paper-data="{&quot;origPos&quot;:null,&quot;origRot&quot;:0}" fill="#000000" stroke="none" stroke-width="0"/></g></g></svg>