<svg version="1.1" xmlns="http://www.w3.org/2000/svg" xmlns:xlink="http://www.w3.org/1999/xlink" width="78.25883" height="53.45727" viewBox="0,0,78.25883,53.45727"><defs><linearGradient x1="238.54294" y1="191.00524" x2="238.54294" y2="207.40821" gradientUnits="userSpaceOnUse" id="color-1"><stop offset="0" stop-color="#24693c"/><stop offset="1" stop-color="#4ecc71"/></linearGradient><radialGradient cx="239.44776" cy="177.8383" r="21.1235" gradientUnits="userSpaceOnUse" id="color-2"><stop offset="0" stop-color="#b3fa98"/><stop offset="1" stop-color="#05ac26"/></radialGradient><radialGradient cx="226.3096" cy="156.62777" r="14.99911" gradientUnits="userSpaceOnUse" id="color-3"><stop offset="0" stop-color="#036617"/><stop offset="1" stop-color="#037019"/></radialGradient><radialGradient cx="240.54467" cy="176.67765" r="6.67932" gradientUnits="userSpaceOnUse" id="color-4"><stop offset="0" stop-color="#adeba3"/><stop offset="1" stop-color="#32c144"/></radialGradient><linearGradient x1="235.72659" y1="185.26755" x2="235.72659" y2="203.06875" gradientUnits="userSpaceOnUse" id="color-5"><stop offset="0" stop-color="#a8d9ab"/><stop offset="1" stop-color="#50d844"/></linearGradient><radialGradient cx="238.70778" cy="178.14401" r="11.33088" gradientUnits="userSpaceOnUse" id="color-6"><stop offset="0" stop-color="#a5f48f"/><stop offset="1" stop-color="#32c144"/></radialGradient><linearGradient x1="247.9057" y1="166.55497" x2="247.9057" y2="184.1699" gradientUnits="userSpaceOnUse" id="color-7"><stop offset="0" stop-color="#baffa7"/><stop offset="1" stop-color="#82ff63"/></linearGradient><radialGradient cx="195.7909" cy="162.04788" r="10.59119" gradientUnits="userSpaceOnUse" id="color-8"><stop offset="0" stop-color="#c8d6ca"/><stop offset="1" stop-color="#05ad27"/></radialGradient><radialGradient cx="190.85222" cy="166.92608" r="9.57427" gradientUnits="userSpaceOnUse" id="color-9"><stop offset="0" stop-color="#83dd6c"/><stop offset="1" stop-color="#28bd46"/></radialGradient><radialGradient cx="201.90756" cy="165.15347" r="7.29369" gradientUnits="userSpaceOnUse" id="color-10"><stop offset="0" stop-color="#83dd6c"/><stop offset="1" stop-color="#5dc572"/></radialGradient><linearGradient x1="195.23635" y1="165.81818" x2="198.62312" y2="177.95447" gradientUnits="userSpaceOnUse" id="color-11"><stop offset="0" stop-color="#53db7a"/><stop offset="1" stop-color="#24693c"/></linearGradient></defs><g transform="translate(-184.40886,-154.4379)"><g data-paper-data="{&quot;isPaintingLayer&quot;:true}" fill="none" fill-rule="nonzero" stroke="none" stroke-width="none" stroke-linecap="none" stroke-linejoin="miter" stroke-miterlimit="10" stroke-dasharray="" stroke-dashoffset="0" font-family="none" font-weight="none" font-size="none" text-anchor="none" style="mix-blend-mode: normal"><path d="M260.6606,196.78898c0,2.05192 -3.89945,5.3969 -5.24203,5.1516c-1.93212,-0.35301 -6.41108,-4.94385 -6.41108,-4.94385c0,0 3.44878,2.47919 4.4248,4.47218c0.95875,1.95763 1.40303,5.11132 -0.49849,5.66005c-0.7155,0.20647 -1.97469,-4.07958 -2.65931,-3.76452c-0.44677,0.20562 -0.17545,0.90011 -0.34835,1.41446c-0.42394,1.26101 -0.57215,2.07082 -1.75094,2.1474c-2.22774,0.14472 -1.05884,-3.82453 -3.19324,-3.08021c-1.17073,0.40825 -0.96797,1.11468 -1.89998,2.02242c-1.83292,1.78521 -2.30126,1.52666 -4.70819,1.52666c-2.9518,0 -6.14683,-6.82012 -6.14683,-6.82012c0,0 -8.10874,5.80446 -12.4381,3.40515c-1.61908,-0.89729 0.92145,-3.69416 2.33297,-4.97045c1.19223,-1.07803 3.66032,-1.43148 3.66032,-1.43148c0,0 -4.35046,1.0473 -6.21143,0.24077c-1.57162,-0.68114 -3.14551,-2.29397 -3.14551,-4.2171c0,-1.27932 6.87339,-0.1749 6.87339,-0.1749c0,0 -3.46253,-1.47362 -1.98402,-1.93843c6.04052,-1.899 27.60546,2.37702 29.58881,2.86475c0.66114,0.16258 6.18712,-1.36996 6.60377,-0.76049c0.63873,0.93429 -2.33764,3.70814 -2.33764,3.70814c0,0 5.49101,-4.13562 5.49101,-0.51203z" data-paper-data="{&quot;origPos&quot;:null}" fill="url(#color-1)" stroke="#0f2c13" stroke-width="1" stroke-linecap="butt"/><path d="M220.1034,179.093v-2.76629h2.48966v2.76629z" data-paper-data="{&quot;origPos&quot;:null}" fill="#1c5324" stroke="none" stroke-width="0" stroke-linecap="butt"/><path d="M261.91767,184.30921c0,10.93456 -8.99461,19.79877 -21.44564,19.79877c-12.45103,0 -19.79723,-8.86421 -19.79723,-19.79877c0,-7.64184 2.01,-10.17069 5.5737,-11.53488c2.58033,-0.98775 1.24441,-4.30197 1.97099,-6.96765c0.41142,-1.50942 1.75869,-3.1986 3.09877,-2.39126c2.06409,1.24351 4.72968,3.87391 4.72968,3.87391c0,0 0.57469,-4.51695 2.76081,-2.96485c2.45507,1.74304 4.36004,2.4601 6.20977,4.22577c0,0 16.89917,4.82442 16.89917,15.75897z" data-paper-data="{&quot;origPos&quot;:null}" fill="url(#color-2)" stroke="#000000" stroke-width="1.5" stroke-linecap="butt"/><path d="M251.59719,190.43468c0.27631,2.25701 -0.57066,4.27901 -1.89177,4.51621c-1.32109,0.23722 -2.61607,-1.40018 -2.89238,-3.6572c-0.27631,-2.25701 0.57066,-4.27901 1.89177,-4.51621c1.32109,-0.23722 2.61606,1.40018 2.89236,3.65718z" data-paper-data="{&quot;origPos&quot;:null,&quot;origRot&quot;:0}" fill="#000000" stroke="none" stroke-width="0" stroke-linecap="butt"/><path d="M257.40952,188.52737c0.1873,1.70267 -0.46932,3.21789 -1.46663,3.38437c-0.99732,0.16648 -1.95762,-1.07881 -2.14493,-2.78149c-0.1873,-1.70267 0.46931,-3.21789 1.46663,-3.38437c0.99732,-0.16648 1.95764,1.07882 2.14495,2.78148z" data-paper-data="{&quot;origPos&quot;:null,&quot;origRot&quot;:0}" fill="#000000" stroke="none" stroke-width="0" stroke-linecap="butt"/><path d="M236.49967,168.12068c0.25775,-1.14166 2.08853,-1.65886 2.09998,-1.639c0.93891,-0.19312 1.14318,0.2274 1.32616,0.67349c0.54893,1.33828 4.80687,4.47894 4.80687,4.47894c0,0 -8.74491,-1.24605 -8.233,-3.51343z" data-paper-data="{&quot;origPos&quot;:null,&quot;index&quot;:null}" fill="#287732" stroke="none" stroke-width="0" stroke-linecap="butt"/><path d="M233.53487,169.80263l-8.04432,-11.47369c0,0 -2.82906,-0.2806 -4.84553,0.93823c-4.98901,3.01549 -12.45728,9.73082 -12.45728,9.73082l0.62936,-3.47377c0,0 5.26027,-4.8038 8.95824,-7.22589c3.55705,-2.3298 9.12959,-3.41331 9.12959,-3.41331l12.6887,15.05015z" data-paper-data="{&quot;origPos&quot;:null,&quot;origRot&quot;:0}" fill="url(#color-3)" stroke="#0f2c13" stroke-width="0.5" stroke-linecap="butt"/><path d="M236.59668,179.88173c0,0 -2.63452,-7.47561 0.96309,-10.59354c1.43488,0.15828 1.60014,0.89355 3.0642,0.72308c0.81057,-0.09438 -1.46494,-3.29987 -0.66246,-3.44803c1.27805,-0.23595 3.27113,0.61558 4.37005,1.30947c1.95379,1.23368 4.57485,2.6996 4.57485,2.6996c0,0 -1.08007,3.52708 -4.53169,6.51848c-2.04149,1.76929 -7.77805,2.79093 -7.77805,2.79093z" data-paper-data="{&quot;origPos&quot;:null}" fill="url(#color-4)" stroke="#256d2f" stroke-width="0.5" stroke-linecap="butt"/><path d="M249.79674,189.89037c0.12534,1.02387 -0.25887,1.94112 -0.85818,2.04873c-0.5993,0.10761 -1.18675,-0.63518 -1.3121,-1.65905c-0.12534,-1.02387 0.25887,-1.94112 0.85818,-2.04873c0.5993,-0.10761 1.18675,0.63518 1.31209,1.65904z" data-paper-data="{&quot;origPos&quot;:null,&quot;origRot&quot;:0}" fill="#ffffff" stroke="none" stroke-width="0" stroke-linecap="butt"/><path d="M255.83935,187.79158c0.06388,0.58064 -0.16005,1.09738 -0.50016,1.15416c-0.3401,0.05678 -0.6676,-0.3679 -0.73148,-0.94855c-0.06388,-0.58064 0.16005,-1.09738 0.50016,-1.15416c0.3401,-0.05678 0.6676,0.36791 0.73147,0.94855z" data-paper-data="{&quot;origPos&quot;:null,&quot;origRot&quot;:0}" fill="#ffffff" stroke="none" stroke-width="0" stroke-linecap="butt"/><path d="M229.98163,172.89424c0,0 -0.55754,-5.62866 -0.00861,-6.96693c0.18297,-0.44609 0.38725,-1.2679 1.32616,-1.07479c0.01145,-0.01986 1.84223,0.65787 2.09998,1.79953c0.51191,2.26738 -0.09945,0.78465 -0.09945,0.78465z" data-paper-data="{&quot;origPos&quot;:null}" fill="#287732" stroke="none" stroke-width="0" stroke-linecap="butt"/><path d="M241.51442,185.83712c0,0 0.93421,-5.58829 2.6088,-5.43198c3.45629,0.32262 5.34225,4.18081 5.34225,4.18081c0,0 -2.89307,-1.30844 -4.27587,-1.09085c-1.72021,0.27069 -3.67519,2.34203 -3.67519,2.34203z" data-paper-data="{&quot;origPos&quot;:null,&quot;origRot&quot;:0}" fill="#05ac26" stroke="#000000" stroke-width="0.5" stroke-linecap="butt"/><path d="M253.59425,183.59533c0,0 0.41036,-3.54152 2.10412,-4.47537c1.59787,-0.88099 4.53939,3.47214 4.53939,3.47214c0,0 -2.17156,-1.31281 -3.62007,-1.13963z" data-paper-data="{&quot;origPos&quot;:null,&quot;index&quot;:null,&quot;origRot&quot;:0}" fill="#05ac26" stroke="#000000" stroke-width="0.5" stroke-linecap="butt"/><path d="M229.86136,200.27652c-9.31009,-5.53335 -8.11532,-15.00897 -8.11532,-15.00897c0,0 1.81981,2.31614 3.48936,3.52113c2.89898,2.09231 5.27897,2.89868 8.35787,4.71589c1.07262,0.63307 3.30279,0.95609 4.27355,1.73642c1.04675,0.84142 1.19652,2.00265 1.97062,3.10012c0.56076,0.79502 1.20418,0.69842 2.0726,1.13699c2.90936,1.46929 7.84692,1.93282 7.84692,1.93282c0,0 -10.58552,4.39896 -19.89561,-1.1344z" data-paper-data="{&quot;origPos&quot;:null}" fill="url(#color-5)" stroke="#287732" stroke-width="0" stroke-linecap="butt"/><path d="M221.68842,188.50362c0,0 -3.00232,-6.46052 -1.58566,-10.2539c1.41666,-3.79338 4.8755,-1.86825 6.53757,-3.25475c1.74595,-1.45648 2.05743,-1.46541 3.58711,-3.14758c1.16773,-1.28413 0.86266,-4.12853 2.27962,-5.13093c0.98323,-0.69556 1.83235,0.20503 3.01285,0.44367c1.28933,0.26065 1.39079,4.53554 1.39079,4.53554c0,0 2.8819,-0.5568 2.45728,1.61144c-0.36576,1.86766 -1.56142,1.1313 -1.46001,3.03173c0.12208,2.28781 2.62791,-0.32607 2.40496,1.95412c-0.34608,3.53952 -0.64725,5.21747 -2.87368,7.99074c0,0 -5.58084,2.08811 -8.55028,2.43162c-3.58542,0.41476 -7.20057,-0.2117 -7.20057,-0.2117z" data-paper-data="{&quot;origPos&quot;:null}" fill="url(#color-6)" stroke="#256d2f" stroke-width="0.5" stroke-linecap="butt"/><path d="M221.47519,192.53128c-0.85149,-2.00247 0.15365,-2.61351 -0.9124,-4.4285c-0.46515,-0.79192 -0.94529,-0.29208 -1.86052,-0.3686c-1.2454,-0.10412 -2.82906,-0.10366 -3.11169,-1.32102c-0.31664,-1.36387 1.97549,-3.24471 1.97549,-3.24471c0,0 -4.35351,-0.53149 -4.2109,-3.4209c0.14789,-2.99634 4.39419,-2.88916 4.79908,-3.57543c0.68145,-1.15502 -0.11278,-2.3673 1.19734,-2.65371c0.84219,-0.18411 2.56808,2.64809 2.48809,1.78973c-0.10361,-1.11184 3.38005,0.10913 3.38005,0.10913l-2.50833,1.55977c0,0 -2.30009,0.59751 -2.12232,2.5625c0.33825,3.73885 -0.33188,3.52498 2.19577,6.30066c1.24848,1.371 3.60019,4.96991 5.42925,4.50794c0.79843,1.63012 3.231,1.5975 4.82291,2.46963c2.0677,1.13279 5.18473,2.98496 5.18473,2.98496c0,0 -2.76568,-1.01359 -3.7827,-0.94741c-2.87468,0.18705 -2.3929,0.94412 -5.09793,-0.04664c-1.16457,-0.42654 -1.434,-1.5806 -2.62783,-1.91666c-2.72252,-0.76639 -4.3866,1.64173 -5.23809,-0.36074z" data-paper-data="{&quot;origPos&quot;:null}" fill="#98ff7e" stroke="#256d2f" stroke-width="1" stroke-linecap="butt"/><path d="M238.64795,184.16989c0,0 0.69879,-1.22861 0.88574,-2.00513c0.28768,-1.195 0.51884,-2.98108 0.51884,-2.98108c0.58946,-1.17823 1.26245,-1.47244 2.09619,-2.49252c0.76334,-0.93396 1.86932,-2.58927 1.86932,-2.58927c0.92736,-1.09263 5.04951,-4.02007 5.04951,-4.02007l-3.83903,-1.88383c0,0 1.30453,-0.60588 2.0238,-0.85441c4.12021,-1.42364 9.62608,-0.98029 9.90567,1.82523c0.17044,1.71032 -3.70296,0.00959 -5.52737,2.15914c-0.76893,0.90598 0.87117,3.10038 -0.10713,4.27832c-0.79921,0.96232 -3.74494,-1.77032 -4.55655,-0.81844c-0.57155,0.67033 -0.27083,3.03995 -0.93112,3.53602c-1.04513,0.78519 -0.99758,0.09774 -2.27006,-0.20165c-0.54188,-0.12749 -0.90285,0.19885 -1.29341,0.59554c-1.61237,1.63769 -0.14749,2.54106 -1.83057,4.106c-1.17858,1.09586 -1.99382,1.34616 -1.99382,1.34616z" data-paper-data="{&quot;origPos&quot;:null}" fill="url(#color-7)" stroke="#256d2f" stroke-width="1" stroke-linecap="butt"/><path d="M249.19411,168.27169c0,0 3.43929,0.15008 2.57216,0.6756c-2.87737,1.74381 -4.39911,1.73263 -6.84216,4.04599c-1.24998,1.18363 -2.27839,3.1478 -3.44673,4.41208c-3.2021,3.46504 -0.67287,5.91538 -4.41976,8.78257c-2.8054,2.14674 -10.26184,2.90022 -10.26184,2.90022" data-paper-data="{&quot;origPos&quot;:null}" fill="none" stroke="#287732" stroke-width="0.5" stroke-linecap="round"/><path d="M249.85235,201.36847c0,0 -2.5428,-0.35141 -4.26121,-0.82527c-1.84647,-0.50917 -3.08594,-1.02184 -4.81061,-1.85506c-2.99301,-1.44598 -0.75161,-2.17309 -3.65237,-3.79622c-4.11025,-2.2999 -9.16571,-4.12758 -12.74153,-7.19305c-2.63845,-2.26189 -4.88527,-6.40882 -3.2578,-9.43008c0.67873,-1.26003 1.56623,-1.41244 1.56623,-1.41244" data-paper-data="{&quot;origPos&quot;:null}" fill="none" stroke="#287732" stroke-width="0.5" stroke-linecap="round"/><path d="M208.76664,166.17733c0.80942,5.97711 -3.8584,11.54351 -10.42586,12.43287c-6.56747,0.88937 -12.54762,-3.23508 -13.35703,-9.21219c-0.80942,-5.97711 22.9735,-9.19782 23.78292,-3.22069z" data-paper-data="{&quot;origPos&quot;:null,&quot;origRot&quot;:0}" fill="#2e8149" stroke="#0f2c13" stroke-width="0.5" stroke-linecap="butt"/><path d="M186.14698,169.9235c-1.57225,-5.63408 1.65254,-11.71952 7.28664,-13.29177c5.63408,-1.57225 11.54393,1.96405 13.11618,7.59814c1.57225,5.63408 -1.65254,11.71952 -7.28664,13.29177c-5.63408,1.57225 -11.54393,-1.96405 -13.11618,-7.59814z" data-paper-data="{&quot;origPos&quot;:null,&quot;origRot&quot;:0}" fill="url(#color-8)" stroke="#000000" stroke-width="1" stroke-linecap="butt"/><path d="M205.17633,171.56533c-1.26854,2.47462 -1.91973,2.44306 -3.32486,2.80664c-2.68604,0.69505 -7.23437,-0.2256 -7.23437,-0.2256c0,0 3.95128,-2.01152 5.49747,-4.32514c1.37841,-2.06256 1.59681,-4.27677 0.30232,-6.393c-0.85421,-1.39643 -2.20274,-2.10846 -2.67225,-3.67669c-0.26404,-0.88193 0.59373,-2.52712 0.59373,-2.52712c0,0 0.73873,0.55751 2.54117,1.01099c1.21001,0.30441 2.12095,1.65714 3.0489,2.49121c1.26083,1.13323 1.50356,2.40018 1.95923,4.03307c1.02658,3.67868 0.47437,4.4925 -0.71139,6.80561z" data-paper-data="{&quot;origPos&quot;:null,&quot;index&quot;:null,&quot;origRot&quot;:0}" fill="#27b33c" stroke="#1c802b" stroke-width="0.5" stroke-linecap="butt"/><path d="M186.8518,169.83618c-0.55256,-1.98009 -0.60406,-3.58423 -0.00762,-5.55155c0.43898,-1.44796 1.16419,-3.06845 2.22833,-4.14404c1.58517,-1.60223 4.40298,-2.78407 4.40298,-2.78407c0,0 -1.77603,5.93848 -1.78415,7.66322c-0.01414,3.00826 1.60274,5.16822 4.32784,6.44245c3.05682,1.42935 8.41901,1.03511 8.41901,1.03511c0,0 -3.0806,5.09228 -7.34933,4.69527c0,0 -3.15747,-0.00952 -5.11129,-1.09301c-2.50172,-1.38729 -3.88091,-1.80243 -5.12578,-6.26338z" data-paper-data="{&quot;origPos&quot;:null,&quot;origRot&quot;:0}" fill="#27b33c" stroke="#1c802b" stroke-width="0.5" stroke-linecap="butt"/><path d="M191.75839,166.41069c0,0 1.94484,-4.15517 3.52431,-4.6119c0.8398,-0.24285 1.33451,1.75544 2.14149,2.0917c0.79151,0.32984 0.56998,-0.81235 1.41996,-0.92547c0.32826,-0.04369 1.57767,0.94053 1.57767,0.94053" data-paper-data="{&quot;origPos&quot;:null,&quot;origRot&quot;:0}" fill="none" stroke="#1c802b" stroke-width="0.5" stroke-linecap="round"/><path d="M195.82116,157.13943c0,0 -0.66294,0.88907 -0.69457,1.46056c-0.03655,0.66098 1.40157,0.64962 1.50222,1.30392c0.09445,0.61409 -1.06822,1.94573 -1.06822,1.94573" data-paper-data="{&quot;origPos&quot;:null,&quot;origRot&quot;:0}" fill="none" stroke="#1c802b" stroke-width="0.5" stroke-linecap="round"/><path d="M189.33814,168.3986c-0.22989,-1.32395 0.56189,-0.57961 0.92262,-1.87407c0.13707,-0.49184 -1.47302,-1.78688 -1.34374,-2.28082c0.29769,-1.13739 0.77372,-0.77554 1.40047,-1.77024c0.67362,-1.06909 -2.49392,-2.98701 -1.87385,-4.08804c0.52072,-0.9246 1.53078,0.49911 2.57589,0.31533c0.71626,-0.12596 -0.51799,-2.9059 0.04612,-3.3649c0.48993,-0.39862 0.75871,0.72242 1.22883,1.14421c0.19076,0.17117 0.81073,-1.11653 1.03307,-0.98905c0.22855,0.13105 1.24436,0.33482 1.25462,0.5981c0.01175,0.30223 -0.72681,-0.08164 -0.97005,0.09813c-0.27047,0.19991 -0.24517,0.93705 -0.24517,0.93705c0,0 -1.52823,4.58363 -1.68515,7.22849c-0.13385,2.25641 0.21718,3.25931 1.53007,5.09935c2.02392,2.83654 6.77379,3.23769 6.77379,3.23769c0,0 -10.13522,-1.34083 -10.64751,-4.29122z" data-paper-data="{&quot;origPos&quot;:null,&quot;origRot&quot;:0}" fill="url(#color-9)" stroke="#256d2f" stroke-width="0.5" stroke-linecap="butt"/><path d="M200.85219,169.21046c0,0 1.29744,-3.81789 -0.13884,-5.91639c-1.1919,-1.74143 -2.18702,-1.67661 -2.78634,-3.58926c-0.67694,-2.16035 0.5145,-3.20916 0.5145,-3.20916c0,0 -1.7546,-1.32843 -1.37254,-0.96936c0.56132,0.52754 1.14057,-1.15834 1.8135,-0.78346c0.46722,0.26029 0.14687,0.53977 0.77588,1.5482c0.20549,0.32943 1.13284,0.47899 1.21896,0.85759c0.16692,0.73382 -0.79247,1.25276 -0.78608,2.0053c0.00896,1.0584 2.91713,1.70433 3.21552,2.71981c0.57883,1.96982 -0.17251,0.58512 -0.92323,2.29788c-0.67208,1.53338 1.22617,-0.17192 1.54365,1.47192c0.50039,2.59076 -3.07498,3.56691 -3.07498,3.56691z" data-paper-data="{&quot;origPos&quot;:null,&quot;origRot&quot;:0}" fill="url(#color-10)" stroke="#256d2f" stroke-width="0.5" stroke-linecap="butt"/><path d="M184.85196,170.84262c-0.15308,-0.62513 -0.18392,-1.97142 -0.18392,-1.97142c0,0 1.61346,0.75667 1.89299,1.1136c0.83857,1.07079 1.24472,2.6324 1.24472,2.6324c0,0 -0.12796,-1.65871 1.95448,-1.63578c0.66284,0.00731 1.48156,1.81965 1.48156,1.81965c0,0 1.46886,-2.6345 2.8358,-1.88415c1.65801,0.91009 2.38978,2.51055 2.38978,2.51055c0,0 1.05516,-2.90341 1.99367,-2.97049c2.12203,-0.15165 3.64998,0.46508 3.64998,0.46508c0,0 -2.02471,-0.43599 -1.3765,-2.32078c0.47776,-1.38918 3.85167,-1.28588 3.85167,-1.28588c0,0 -1.01978,-1.37867 -0.81945,-2.29977c0.26495,-1.21812 1.71044,-0.46846 1.71044,-0.46846l-0.16535,-2.05977c0,0 2.75904,1.83696 3.19553,3.20066c0.58316,1.82197 0.15384,3.4528 -0.44265,5.27046c-1.31238,3.99913 -5.26015,7.21546 -9.42291,7.83747c-2.21783,0.33138 -3.64406,-0.03551 -5.85726,-0.39652c0,0 -3.36231,-1.0278 -5.09101,-2.85709c-1.2849,-1.35967 -2.38237,-2.82437 -2.8416,-4.69978z" data-paper-data="{&quot;origPos&quot;:null,&quot;origRot&quot;:0}" fill="url(#color-11)" stroke="#0f2c13" stroke-width="0.5" stroke-linecap="butt"/></g></g></svg>