<svg version="1.1" xmlns="http://www.w3.org/2000/svg" xmlns:xlink="http://www.w3.org/1999/xlink" width="58.43287" height="70.43698" viewBox="0,0,58.43287,70.43698"><g transform="translate(-214.6398,-136.36478)"><g data-paper-data="{&quot;isPaintingLayer&quot;:true}" fill="none" fill-rule="nonzero" stroke="none" stroke-width="none" stroke-linecap="butt" stroke-linejoin="miter" stroke-miterlimit="10" stroke-dasharray="" stroke-dashoffset="0" font-family="none" font-weight="none" font-size="none" text-anchor="none" style="mix-blend-mode: normal"><path d="M233.72986,160.26761c-2.11531,0.94145 -6.71116,-0.74754 -9.20831,-4.9914c-2.49715,-4.24383 0.03118,-12.97792 0.03118,-12.97792c0,0 2.68636,3.9699 3.54851,4.37888c0,0 5.04412,1.74971 6.30883,4.02262c1.66518,2.99262 1.4351,8.62638 -0.68021,9.56783z" data-paper-data="{&quot;origRot&quot;:0,&quot;origPos&quot;:null}" fill="#26bd00" stroke="#000000" stroke-width="1"/><path d="M232.63078,159.03063c0.07403,2.31886 -2.6896,5.59345 -6.79588,5.80204c-4.10628,0.2086 -10.15317,-6.15606 -10.15317,-6.15606c0,0 3.95109,-0.50559 4.54167,-1.07638c0,0 2.9517,-3.64314 5.12814,-3.69043c2.8656,-0.06227 7.20523,2.80197 7.27924,5.12083z" data-paper-data="{&quot;origRot&quot;:0,&quot;origPos&quot;:null}" fill="#26bd00" stroke="#000000" stroke-width="1"/><path d="M235.89449,154.40986c-2.31667,-0.38909 -5.30012,-3.84469 -5.09543,-8.04713c0.20467,-4.20242 7.1502,-9.0556 7.1502,-9.0556c0,0 0.10668,4.10462 0.61579,4.81725c0,0 3.33156,3.71994 3.16007,5.93467c-0.22577,2.91602 -3.51395,6.73989 -5.83061,6.3508z" data-paper-data="{&quot;origRot&quot;:0,&quot;origPos&quot;:null}" fill="#26bd00" stroke="#000000" stroke-width="1"/><path d="M230.61393,191.3634c4.70628,0.72373 8.2405,3.1374 7.89393,5.39112c-0.34658,2.25371 -4.44273,3.49399 -9.14898,2.77027c-4.70628,-0.72373 -7.8939,-5.39113 -7.8939,-5.39113c0,0 4.44271,-3.49401 9.14896,-2.77028z" data-paper-data="{&quot;origRot&quot;:0,&quot;origPos&quot;:null,&quot;index&quot;:null}" fill="#2bd900" stroke="#000000" stroke-width="1.5"/><path d="M255.90996,195.1778c0,0 -3.48248,4.45173 -8.22567,4.86994c-4.7432,0.41821 -8.75067,-1.08407 -8.95094,-3.35547c-0.20028,-2.2714 3.48251,-4.45175 8.22568,-4.86996c4.7432,-0.41821 8.95093,3.35548 8.95093,3.35548z" data-paper-data="{&quot;origRot&quot;:0,&quot;origPos&quot;:null,&quot;index&quot;:null}" fill="#2bd900" stroke="#000000" stroke-width="1.5"/><path d="M236.92858,197.51589c0,0 1.39769,-6.97992 2.87059,-11.16263c1.16282,-3.30215 3.88303,-8.01637 3.88303,-8.01637l4.24452,1.49466c0,0 -3.00313,3.51047 -3.99541,6.32829c-1.64343,4.667 -2.75823,12.85068 -2.75823,12.85068z" data-paper-data="{&quot;origPos&quot;:null,&quot;origRot&quot;:0}" fill="#a9ff59" stroke="#000000" stroke-width="2"/><path d="M264.66981,167.41446c-0.50661,8.76725 -9.12238,15.40039 -19.24388,14.81551c-10.12149,-0.58485 -17.9159,-8.16625 -17.40929,-16.93349c0.50661,-8.76725 9.12238,-15.40038 19.24388,-14.8155c10.12149,0.58485 17.9159,8.16625 17.40929,16.93348z" data-paper-data="{&quot;origPos&quot;:null,&quot;origRot&quot;:0}" fill="#a9ff59" stroke="#000000" stroke-width="3"/><path d="M272.07268,172.99294c-0.78945,5.00513 -4.1929,8.63821 -7.60182,8.11473c-3.40892,-0.52352 -5.53238,-5.00533 -4.74295,-10.01045c0.78945,-5.00513 4.19292,-8.63823 7.60182,-8.11473c3.40891,0.52351 5.53236,5.00532 4.74295,10.01045z" data-paper-data="{&quot;origPos&quot;:null,&quot;origRot&quot;:0}" fill="#a9ff59" stroke="#000000" stroke-width="2"/><path d="M265.0151,171.79399c-0.34801,2.47225 -1.62082,4.34038 -2.8429,4.17257c-1.22206,-0.1678 -1.93063,-2.308 -1.58262,-4.78026c0.34801,-2.47225 1.62082,-4.34038 2.84289,-4.17255c1.22206,0.1678 1.93066,2.308 1.58263,4.78026z" data-paper-data="{&quot;origRot&quot;:0,&quot;origPos&quot;:null}" fill="#84c746" stroke="none" stroke-width="0"/><path d="M230.37732,195.47394c5.11563,-1.00495 9.65279,0.16627 10.13405,2.61602c0.48124,2.44973 -3.27567,5.25031 -8.3913,6.25527c-5.11563,1.00495 -10.13404,-2.61602 -10.13404,-2.61602c0,0 3.27566,-5.25032 8.39129,-6.25527z" data-paper-data="{&quot;origRot&quot;:0,&quot;origPos&quot;:null}" fill="#2fe500" stroke="#000000" stroke-width="2"/><path d="M256.09603,204.67454c0,0 -5.71375,2.37668 -10.46376,0.22793c-4.74999,-2.14876 -7.76648,-5.73462 -6.73749,-8.00927c1.02898,-2.27464 5.71377,-2.3767 10.46377,-0.22794c4.74999,2.14876 6.73748,8.00928 6.73748,8.00928z" data-paper-data="{&quot;origRot&quot;:0,&quot;origPos&quot;:null,&quot;index&quot;:null}" fill="#2fe500" stroke="#000000" stroke-width="2"/><path d="M252.12521,160.24383c0.25564,2.25945 -0.6098,4.2736 -1.93302,4.49871c-1.32321,0.22511 -2.60315,-1.42407 -2.85879,-3.68351c-0.25564,-2.25945 0.6098,-4.2736 1.93302,-4.49871c1.32321,-0.22511 2.60314,1.42407 2.85877,3.6835z" data-paper-data="{&quot;origPos&quot;:null,&quot;origRot&quot;:0}" fill="#000000" stroke="none" stroke-width="0"/><path d="M258.209,160.4843c0.19257,1.70207 -0.45936,3.21932 -1.45615,3.3889c-0.9968,0.16957 -1.96095,-1.07275 -2.15353,-2.77483c-0.19257,-1.70207 0.45935,-3.21932 1.45615,-3.3889c0.9968,-0.16957 1.96097,1.07276 2.15355,2.77483z" data-paper-data="{&quot;origPos&quot;:null,&quot;origRot&quot;:0}" fill="#000000" stroke="none" stroke-width="0"/><path d="M244.5728,156.57145l0.55786,-4.54048c0,0 4.56088,1.39306 6.37338,2.84838c1.92125,1.54265 1.29546,4.62875 1.29546,4.62875c0,0 -0.62212,-1.77618 -3.21466,-2.61895c-1.80552,-0.58694 -5.01204,-0.31768 -5.01204,-0.31768z" data-paper-data="{&quot;origPos&quot;:null,&quot;origRot&quot;:0}" fill="#26bd00" stroke="#000000" stroke-width="0.5"/><path d="M257.59886,158.3735c-2.0808,-0.24096 -3.13257,0.89053 -3.13257,0.89053c0,0 0.65236,-2.54378 2.51663,-3.05894c1.75874,-0.486 5.38791,0.00557 5.38791,0.00557l-1.20963,3.61974c0,0 -2.1132,-1.2891 -3.56234,-1.4569z" data-paper-data="{&quot;origPos&quot;:null,&quot;index&quot;:null,&quot;origRot&quot;:0}" fill="#26bd00" stroke="#000000" stroke-width="0.5"/></g></g></svg>