<svg version="1.1" xmlns="http://www.w3.org/2000/svg" xmlns:xlink="http://www.w3.org/1999/xlink" width="65.32795" height="74.79342" viewBox="0,0,65.32795,74.79342"><defs><linearGradient x1="240.19427" y1="191.00524" x2="240.19427" y2="207.40821" gradientUnits="userSpaceOnUse" id="color-1"><stop offset="0" stop-color="#24693c"/><stop offset="1" stop-color="#4ecc71"/></linearGradient><radialGradient cx="241.49285" cy="173.91328" r="21.1235" gradientUnits="userSpaceOnUse" id="color-2"><stop offset="0" stop-color="#b3fa98"/><stop offset="1" stop-color="#05ac26"/></radialGradient><radialGradient cx="240.98136" cy="156.04075" r="14.99911" gradientUnits="userSpaceOnUse" id="color-3"><stop offset="0" stop-color="#036617"/><stop offset="1" stop-color="#037019"/></radialGradient><radialGradient cx="242.80675" cy="173.00555" r="6.67932" gradientUnits="userSpaceOnUse" id="color-4"><stop offset="0" stop-color="#adeba3"/><stop offset="1" stop-color="#32c144"/></radialGradient><linearGradient x1="236.31085" y1="180.40848" x2="232.61642" y2="197.82209" gradientUnits="userSpaceOnUse" id="color-5"><stop offset="0" stop-color="#a8d9ab"/><stop offset="1" stop-color="#50d844"/></linearGradient><radialGradient cx="240.70552" cy="174.05875" r="11.33088" gradientUnits="userSpaceOnUse" id="color-6"><stop offset="0" stop-color="#a5f48f"/><stop offset="1" stop-color="#32c144"/></radialGradient><linearGradient x1="252.10835" y1="164.63095" x2="248.45257" y2="181.86236" gradientUnits="userSpaceOnUse" id="color-7"><stop offset="0" stop-color="#baffa7"/><stop offset="1" stop-color="#82ff63"/></linearGradient><linearGradient x1="213.20623" y1="139.35088" x2="206.55062" y2="150.04961" gradientUnits="userSpaceOnUse" id="color-8"><stop offset="0" stop-color="#53db7a"/><stop offset="1" stop-color="#24693c"/></linearGradient></defs><g transform="translate(-200.67652,-133.10175)"><g data-paper-data="{&quot;isPaintingLayer&quot;:true}" fill="none" fill-rule="nonzero" stroke="none" stroke-width="none" stroke-linecap="none" stroke-linejoin="miter" stroke-miterlimit="10" stroke-dasharray="" stroke-dashoffset="0" font-family="none" font-weight="none" font-size="none" text-anchor="none" style="mix-blend-mode: normal"><path d="M265.50447,196.78898c0,2.05192 -4.46233,5.3969 -5.99869,5.1516c-2.211,-0.35301 -7.33647,-4.94385 -7.33647,-4.94385c0,0 3.94658,2.47919 5.06352,4.47218c1.09713,1.95763 1.60555,5.11132 -0.57043,5.66005c-0.81875,0.20647 -2.25973,-4.07958 -3.04313,-3.76452c-0.51129,0.20562 -0.20078,0.90011 -0.39866,1.41446c-0.48513,1.26101 -0.65474,2.07082 -2.00368,2.1474c-2.54931,0.14472 -1.21167,-3.82453 -3.65419,-3.08021c-1.3397,0.40825 -1.1077,1.11468 -2.17422,2.02242c-2.09749,1.78521 -2.63345,1.52666 -5.3878,1.52666c-3.37785,0 -7.03408,-6.82012 -7.03408,-6.82012c0,0 -9.27918,5.80446 -14.23348,3.40515c-1.85279,-0.89729 1.05445,-3.69416 2.6697,-4.97045c1.36434,-1.07803 4.18869,-1.43148 4.18869,-1.43148c0,0 -4.97845,1.0473 -7.10801,0.24077c-1.79846,-0.68114 -3.59951,-2.29397 -3.59951,-4.2171c0,-1.27932 7.86551,-0.1749 7.86551,-0.1749c0,0 -3.96234,-1.47362 -2.2704,-1.93843c6.91241,-1.899 31.59011,2.37702 33.85978,2.86475c0.75656,0.16258 7.08018,-1.36996 7.557,-0.76049c0.73094,0.93429 -2.67507,3.70814 -2.67507,3.70814c0,0 6.28359,-4.13562 6.28359,-0.51203z" data-paper-data="{&quot;origPos&quot;:null}" fill="url(#color-1)" stroke="#0f2c13" stroke-width="1" stroke-linecap="butt"/><path d="M222.30929,171.12598l0.5741,-2.70605l2.43544,0.51669l-0.5741,2.70605z" data-paper-data="{&quot;origPos&quot;:null,&quot;origRot&quot;:0}" fill="#1c5324" stroke="none" stroke-width="0" stroke-linecap="butt"/><path d="M262.13055,184.90665c-2.26935,10.69647 -12.90777,17.50096 -25.08771,14.9169c-12.17994,-2.58407 -17.5265,-12.77988 -15.25718,-23.47636c1.58598,-7.47545 4.07704,-9.53209 7.84629,-10.12699c2.72914,-0.43073 2.11013,-3.95003 3.37412,-6.40688c0.71572,-1.39118 2.38421,-2.76397 3.52759,-1.69609c1.76107,1.64482 3.82272,4.77116 3.82272,4.77116c0,0 1.49961,-4.29933 3.31603,-2.32733c2.03986,2.21461 3.75454,3.31141 5.19756,5.42252c0,0 15.52999,8.2266 13.26065,18.92306z" data-paper-data="{&quot;origPos&quot;:null,&quot;origRot&quot;:0}" fill="url(#color-2)" stroke="#000000" stroke-width="1.5" stroke-linecap="butt"/><path d="M250.76351,188.75687c-0.1981,2.26522 -1.4463,4.06742 -2.78786,4.02526c-1.34157,-0.0421 -2.26852,-1.91263 -2.07039,-4.17784c0.1981,-2.26522 1.4463,-4.06742 2.78786,-4.02526c1.34157,0.0421 2.26851,1.91262 2.07037,4.17785z" data-paper-data="{&quot;origPos&quot;:null,&quot;origRot&quot;:0}" fill="#000000" stroke="none" stroke-width="0" stroke-linecap="butt"/><path d="M256.84513,188.09736c-0.17016,1.70445 -1.12695,3.05043 -2.13709,3.0063c-1.01016,-0.04413 -1.6911,-1.46161 -1.52097,-3.1661c0.17016,-1.70445 1.12694,-3.05044 2.13709,-3.0063c1.01016,0.04413 1.69114,1.46163 1.521,3.16608z" data-paper-data="{&quot;origPos&quot;:null,&quot;origRot&quot;:0}" fill="#000000" stroke="none" stroke-width="0" stroke-linecap="butt"/><path d="M240.62573,163.79541c0.48908,-1.06331 2.38733,-1.18929 2.39441,-1.16748c0.95855,0.00594 1.0711,0.4597 1.1575,0.93406c0.25924,1.42306 3.77267,5.37903 3.77267,5.37903c0,0 -8.29591,-3.03381 -7.32458,-5.14561z" data-paper-data="{&quot;origPos&quot;:null,&quot;index&quot;:null,&quot;origRot&quot;:0}" fill="#287732" stroke="none" stroke-width="0" stroke-linecap="butt"/><path d="M236.15468,170.27048l3.01929,-13.68357c0,0 -1.70528,-2.2747 -3.96645,-2.9371c-5.59441,-1.63888 -15.59133,-2.60439 -15.59133,-2.60439l2.98558,-1.884c0,0 7.09578,0.63014 11.38024,1.71857c4.12124,1.04695 8.68614,4.42167 8.68614,4.42167l-2.51618,19.52382z" data-paper-data="{&quot;origPos&quot;:null,&quot;origRot&quot;:0}" fill="url(#color-3)" stroke="#0f2c13" stroke-width="0.5" stroke-linecap="butt"/><path d="M238.27974,175.32051c0,0 -1.02568,-7.85961 3.14067,-10.163c1.37079,0.45262 1.37985,1.20617 2.84742,1.34328c0.81251,0.0759 -0.74819,-3.53204 0.06755,-3.51044c1.2992,0.03442 3.07216,1.28105 4.00315,2.18792c1.65521,1.61231 3.91498,3.5903 3.91498,3.5903c0,0 -1.78855,3.22612 -5.78585,5.43606c-2.36425,1.30708 -8.18792,1.11592 -8.18792,1.11592z" data-paper-data="{&quot;origPos&quot;:null,&quot;origRot&quot;:0}" fill="url(#color-4)" stroke="#256d2f" stroke-width="0.5" stroke-linecap="butt"/><path d="M249.11524,187.85074c-0.08989,1.02759 -0.6561,1.84513 -1.2647,1.82604c-0.60859,-0.01911 -1.02908,-0.86765 -0.93919,-1.89523c0.08989,-1.02759 0.6561,-1.84513 1.2647,-1.82604c0.60859,0.01911 1.02908,0.86765 0.93919,1.89522z" data-paper-data="{&quot;origPos&quot;:null,&quot;origRot&quot;:0}" fill="#ffffff" stroke="none" stroke-width="0" stroke-linecap="butt"/><path d="M255.46184,187.05172c-0.05801,0.58127 -0.38431,1.04028 -0.7288,1.02524c-0.34446,-0.01504 -0.5767,-0.49844 -0.51869,-1.07971c0.05801,-0.58127 0.38431,-1.04028 0.7288,-1.02524c0.34446,0.01504 0.5767,0.49845 0.51868,1.07971z" data-paper-data="{&quot;origPos&quot;:null,&quot;origRot&quot;:0}" fill="#ffffff" stroke="none" stroke-width="0" stroke-linecap="butt"/><path d="M233.2589,167.11228c0,0 0.62276,-5.62182 1.43748,-6.81701c0.27157,-0.3984 0.64193,-1.15992 1.52036,-0.77616c0.01531,-0.01706 1.66559,1.02586 1.68079,2.19619c0.0302,2.32426 -0.26012,0.74693 -0.26012,0.74693z" data-paper-data="{&quot;origPos&quot;:null,&quot;origRot&quot;:0}" fill="#287732" stroke="none" stroke-width="0" stroke-linecap="butt"/><path d="M241.85446,182.16685c0,0 2.07365,-5.27273 3.67934,-4.7723c3.31407,1.03291 4.35827,5.1985 4.35827,5.1985c0,0 -2.55854,-1.88038 -3.95637,-1.95451c-1.73894,-0.0922 -4.08124,1.52828 -4.08124,1.52828z" data-paper-data="{&quot;origPos&quot;:null,&quot;origRot&quot;:0}" fill="#05ac26" stroke="#000000" stroke-width="0.5" stroke-linecap="butt"/><path d="M254.13651,182.4809c0,0 1.13644,-3.37923 2.98713,-3.94125c1.74593,-0.53018 3.71996,4.33865 3.71996,4.33865c0,0 -1.85183,-1.73491 -3.30471,-1.86612z" data-paper-data="{&quot;origPos&quot;:null,&quot;index&quot;:null,&quot;origRot&quot;:0}" fill="#05ac26" stroke="#000000" stroke-width="0.5" stroke-linecap="butt"/><path d="M227.45838,193.87341c-7.95902,-7.34505 -4.8237,-16.36642 -4.8237,-16.36642c0,0 1.29949,2.6434 2.68262,4.16864c2.40163,2.64842 4.56245,3.93116 7.19718,6.34781c0.9179,0.8419 3.03246,1.62073 3.82014,2.58553c0.84934,1.04035 0.75483,2.20738 1.28432,3.44161c0.38355,0.89408 1.03302,0.93312 1.79153,1.54238c2.54108,2.0411 7.27494,3.51926 7.27494,3.51926c0,0 -11.26797,2.10628 -19.227,-5.23879z" data-paper-data="{&quot;origPos&quot;:null,&quot;origRot&quot;:0}" fill="url(#color-5)" stroke="#287732" stroke-width="0" stroke-linecap="butt"/><path d="M221.90674,180.66063c0,0 -1.59614,-6.94295 0.57694,-10.35973c2.17309,-3.41678 5.15708,-0.81573 7.07071,-1.8271c2.01022,-1.06239 2.31677,-1.00648 4.16225,-2.33459c1.40881,-1.01382 1.70069,-3.8596 3.29485,-4.54611c1.10617,-0.47636 1.74989,0.58087 2.85515,1.0593c1.20716,0.52256 0.4192,4.72541 0.4192,4.72541c0,0 2.9347,0.05342 2.06934,2.08633c-0.7454,1.75109 -1.76222,0.7826 -2.05742,2.66271c-0.35539,2.26334 2.63836,0.22641 1.94703,2.41071c-1.07313,3.39062 -1.71599,4.96954 -4.4695,7.22036c0,0 -5.89269,0.88442 -8.86875,0.60417c-3.59343,-0.33837 -6.99987,-1.70148 -6.99987,-1.70148z" data-paper-data="{&quot;origPos&quot;:null,&quot;origRot&quot;:0}" fill="url(#color-6)" stroke="#256d2f" stroke-width="0.5" stroke-linecap="butt"/><path d="M220.86225,184.55636c-0.41736,-2.13558 0.69271,-2.52473 0.02655,-4.52144c-0.29066,-0.87121 -0.86409,-0.48191 -1.74351,-0.74671c-1.19668,-0.36033 -2.74594,-0.68854 -2.76978,-1.93804c-0.02668,-1.39987 2.60587,-2.76409 2.60587,-2.76409c0,0 -4.1484,-1.42344 -3.40924,-4.22033c0.76654,-2.90042 4.89812,-1.91429 5.43664,-2.50158c0.90634,-0.98844 0.381,-2.33917 1.72202,-2.34744c0.86207,-0.00532 1.96258,3.12342 2.06249,2.26712c0.12937,-1.10915 3.28381,0.80826 3.28381,0.80826l-2.77743,1.00522c0,0 -2.37402,0.10715 -2.60793,2.06624c-0.44505,3.72765 -1.05622,3.37935 0.84033,6.61918c0.93677,1.60026 2.49037,5.60886 4.37546,5.53657c0.44273,1.76034 2.82913,2.23328 4.20536,3.41681c1.78758,1.53724 4.45234,3.99599 4.45234,3.99599c0,0 -2.4951,-1.5655 -3.50371,-1.71185c-2.85091,-0.41362 -2.53674,0.42695 -4.97724,-1.10364c-1.0507,-0.65895 -1.07473,-1.84379 -2.17283,-2.42029c-2.50419,-1.31471 -4.63181,0.6956 -5.04919,-1.43999z" data-paper-data="{&quot;origPos&quot;:null,&quot;origRot&quot;:0}" fill="#98ff7e" stroke="#256d2f" stroke-width="1" stroke-linecap="butt"/><path d="M239.39639,179.94102c0,0 0.93855,-1.05685 1.2826,-1.77764c0.52944,-1.10928 1.12622,-2.8085 1.12622,-2.8085c0.82117,-1.03025 1.54055,-1.17837 2.56784,-2.00321c0.94055,-0.75521 2.366,-2.14494 2.366,-2.14494c1.13393,-0.87638 5.7739,-2.88457 5.7739,-2.88457l-3.36447,-2.63957c0,0 1.40188,-0.32195 2.15704,-0.4158c4.32598,-0.53756 9.61993,1.03883 9.3112,3.84128c-0.18822,1.70845 -3.62434,-0.75912 -5.85513,0.96498c-0.9402,0.72666 0.20875,3.21366 -0.99271,4.16293c-0.98152,0.77549 -3.29598,-2.50899 -4.28747,-1.74627c-0.69823,0.53712 -0.89583,2.91757 -1.64471,3.26579c-1.18533,0.55118 -0.99615,-0.11143 -2.1788,-0.66837c-0.5036,-0.23718 -0.92446,0.00715 -1.38884,0.31414c-1.91715,1.26741 -0.67164,2.45511 -2.64286,3.63667c-1.38034,0.82739 -2.22977,0.90306 -2.22977,0.90306z" data-paper-data="{&quot;origPos&quot;:null,&quot;origRot&quot;:0}" fill="url(#color-7)" stroke="#256d2f" stroke-width="1" stroke-linecap="butt"/><path d="M253.01242,166.57768c0,0 3.33326,0.86059 2.37594,1.19471c-3.17663,1.10867 -4.66289,0.78191 -7.53289,2.5379c-1.46841,0.89845 -2.88206,2.60641 -4.28736,3.60068c-3.8515,2.72503 -1.88587,5.64694 -6.14624,7.67409c-3.18985,1.51777 -10.64032,0.70737 -10.64032,0.70737" data-paper-data="{&quot;origPos&quot;:null,&quot;origRot&quot;:0}" fill="none" stroke="#287732" stroke-width="0.5" stroke-linecap="round"/><path d="M246.78748,199.09049c0,0 -2.41449,-0.87147 -3.99718,-1.69167c-1.70059,-0.8813 -2.80669,-1.64006 -4.32087,-2.81306c-2.62776,-2.03566 -0.28425,-2.28176 -2.785,-4.47158c-3.54344,-3.10286 -8.10951,-5.93995 -10.97128,-9.68078c-2.11156,-2.76022 -3.44884,-7.28316 -1.22977,-9.90089c0.92545,-1.09174 1.82527,-1.05664 1.82527,-1.05664" data-paper-data="{&quot;origPos&quot;:null,&quot;origRot&quot;:0}" fill="none" stroke="#287732" stroke-width="0.5" stroke-linecap="round"/><path d="M222.08628,149.56565c-3.85816,4.63636 -11.11555,4.95828 -16.20982,0.71908c-5.09426,-4.23923 -6.09635,-11.4343 -2.2382,-16.07065c3.85816,-4.63636 22.30618,10.71521 18.44801,15.35157z" data-paper-data="{&quot;origPos&quot;:null,&quot;origRot&quot;:0}" fill="#2e8149" stroke="#0f2c13" stroke-width="0.5" stroke-linecap="butt"/><path d="M202.48455,135.09335c0.35729,-0.53533 1.32866,-1.468 1.32866,-1.468c0,0 0.53284,1.70055 0.45869,2.14783c-0.22241,1.34175 -1.09886,2.69654 -1.09886,2.69654c0,0 1.136,-1.21539 2.52656,0.3349c0.44262,0.49345 -0.33975,2.32178 -0.33975,2.32178c0,0 2.93442,-0.69802 3.30532,0.8166c0.44986,1.83709 -0.23511,3.45812 -0.23511,3.45812c0,0 2.85301,-1.18467 3.53676,-0.53832c1.54601,1.46146 2.12417,3.00442 2.12417,3.00442c0,0 -1.04714,-1.78692 0.78009,-2.58304c1.34677,-0.5868 3.55098,1.96965 3.55098,1.96965c0,0 0.32685,-1.68339 1.14114,-2.15832c1.07687,-0.62804 1.50131,0.944 1.50131,0.944l1.40634,-1.51402c0,0 0.5109,3.27502 -0.19917,4.51841c-0.94867,1.66122 -2.4408,2.44706 -4.18359,3.23593c-3.83441,1.73567 -8.87313,0.99996 -12.14503,-1.64764c-1.74322,-1.41061 -2.43678,-2.70975 -3.66654,-4.5849c0,0 -1.51499,-3.17275 -1.33518,-5.68319c0.13368,-1.86593 0.47142,-3.66477 1.54321,-5.27076z" data-paper-data="{&quot;origPos&quot;:null,&quot;origRot&quot;:0}" fill="url(#color-8)" stroke="#0f2c13" stroke-width="0.5" stroke-linecap="butt"/></g></g></svg>