<svg version="1.1" xmlns="http://www.w3.org/2000/svg" xmlns:xlink="http://www.w3.org/1999/xlink" width="54.17885" height="60.50074"><defs><linearGradient x1="259.97687" y1="177.02159" x2="251.55688" y2="170.735" gradientUnits="userSpaceOnUse" id="color-1"><stop offset="0" stop-color="#fff987"/><stop offset="1" stop-color="#fff300"/></linearGradient><linearGradient x1="261.57037" y1="158.96026" x2="251.76608" y2="165.37284" gradientUnits="userSpaceOnUse" id="color-2"><stop offset="0" stop-color="#fff987"/><stop offset="1" stop-color="#fff300"/></linearGradient><linearGradient x1="257.95279" y1="153.40755" x2="250.77815" y2="161.63444" gradientUnits="userSpaceOnUse" id="color-3"><stop offset="0" stop-color="#fff987"/><stop offset="1" stop-color="#fff300"/></linearGradient><linearGradient x1="222.87882" y1="183.73416" x2="229.76602" y2="175.79111" gradientUnits="userSpaceOnUse" id="color-4"><stop offset="0" stop-color="#fff987"/><stop offset="1" stop-color="#fff300"/></linearGradient><linearGradient x1="255.31389" y1="181.74143" x2="248.20183" y2="173.47154" gradientUnits="userSpaceOnUse" id="color-5"><stop offset="0" stop-color="#fff987"/><stop offset="1" stop-color="#fff300"/></linearGradient><linearGradient x1="219.15475" y1="153.48985" x2="226.28244" y2="161.83368" gradientUnits="userSpaceOnUse" id="color-6"><stop offset="0" stop-color="#fff987"/><stop offset="1" stop-color="#fff300"/></linearGradient><linearGradient x1="215.65215" y1="157.4337" x2="223.28825" y2="166.3727" gradientUnits="userSpaceOnUse" id="color-7"><stop offset="0" stop-color="#fff987"/><stop offset="1" stop-color="#fff300"/></linearGradient><linearGradient x1="248.69612" y1="185.47301" x2="242.71613" y2="176.38344" gradientUnits="userSpaceOnUse" id="color-8"><stop offset="0" stop-color="#fff987"/><stop offset="1" stop-color="#fff300"/></linearGradient><linearGradient x1="216.847" y1="178.46985" x2="227.44589" y2="173.58083" gradientUnits="userSpaceOnUse" id="color-9"><stop offset="0" stop-color="#fff987"/><stop offset="1" stop-color="#fff300"/></linearGradient><linearGradient x1="229.94888" y1="185.56102" x2="234.89233" y2="176.28846" gradientUnits="userSpaceOnUse" id="color-10"><stop offset="0" stop-color="#fff987"/><stop offset="1" stop-color="#fff300"/></linearGradient><linearGradient x1="252.91608" y1="149.5674" x2="247.09374" y2="158.57471" gradientUnits="userSpaceOnUse" id="color-11"><stop offset="0" stop-color="#fff987"/><stop offset="1" stop-color="#fff300"/></linearGradient><linearGradient x1="224.4382" y1="149.81637" x2="229.96636" y2="160.61872" gradientUnits="userSpaceOnUse" id="color-12"><stop offset="0" stop-color="#fff987"/><stop offset="1" stop-color="#fff300"/></linearGradient><linearGradient x1="247.30051" y1="146.21692" x2="241.48893" y2="157.13358" gradientUnits="userSpaceOnUse" id="color-13"><stop offset="0" stop-color="#fff987"/><stop offset="1" stop-color="#fff300"/></linearGradient><linearGradient x1="229.77504" y1="145.75404" x2="234.14993" y2="156.56295" gradientUnits="userSpaceOnUse" id="color-14"><stop offset="0" stop-color="#fff987"/><stop offset="1" stop-color="#fff300"/></linearGradient><linearGradient x1="238.18705" y1="187.40634" x2="237.95782" y2="173.72244" gradientUnits="userSpaceOnUse" id="color-15"><stop offset="0" stop-color="#fff987"/><stop offset="1" stop-color="#fff300"/></linearGradient><linearGradient x1="212.65178" y1="168.96073" x2="226.33569" y2="168.73151" gradientUnits="userSpaceOnUse" id="color-16"><stop offset="0" stop-color="#fff987"/><stop offset="1" stop-color="#fff300"/></linearGradient><linearGradient x1="263.85613" y1="167.53966" x2="250.17221" y2="167.76889" gradientUnits="userSpaceOnUse" id="color-17"><stop offset="0" stop-color="#fff987"/><stop offset="1" stop-color="#fff300"/></linearGradient><linearGradient x1="237.90063" y1="144.40409" x2="238.12985" y2="158.08801" gradientUnits="userSpaceOnUse" id="color-18"><stop offset="0" stop-color="#fff987"/><stop offset="1" stop-color="#fff300"/></linearGradient><linearGradient x1="238.05373" y1="152.83811" x2="238.53966" y2="181.84625" gradientUnits="userSpaceOnUse" id="color-19"><stop offset="0" stop-color="#eeb054"/><stop offset="1" stop-color="#d27700"/></linearGradient></defs><g transform="translate(-211.16452,-142.91685)"><g data-paper-data="{&quot;isPaintingLayer&quot;:true}" fill="none" fill-rule="nonzero" stroke="none" stroke-width="none" stroke-linecap="none" stroke-linejoin="miter" stroke-miterlimit="10" stroke-dasharray="" stroke-dashoffset="0" font-family="none" font-weight="none" font-size="none" text-anchor="none" style="mix-blend-mode: normal"><path d="M252.93344,196.13208c-0.01856,2.47718 -10.5375,2.39838 -10.51894,-0.07881c0.01856,-2.47718 2.38834,-4.46769 5.29307,-4.44593c2.90473,0.02176 5.24442,2.04755 5.22586,4.52473z" data-paper-data="{&quot;origPos&quot;:null,&quot;origRot&quot;:0}" fill="#26c000" stroke="#000000" stroke-width="2" stroke-linecap="butt"/><path d="M245.17182,195.9038c-0.01856,2.47718 -10.5375,2.39838 -10.51894,-0.07881c0.01856,-2.47718 2.38834,-4.46769 5.29307,-4.44593c2.90472,0.02176 5.24442,2.04755 5.22586,4.52473z" data-paper-data="{&quot;origPos&quot;:null,&quot;origRot&quot;:0}" fill="#26c000" stroke="#000000" stroke-width="2" stroke-linecap="butt"/><path d="M243.56023,196.57175l-2.68059,-6.90986c0,0 -3.3079,0.94067 -4.56057,1.2211c-0.93721,0.20981 -3.32751,-3.70832 -3.32751,-3.70832c0,0 2.61046,-1.38288 3.93987,-1.17437c1.57896,0.24767 3.06472,1.55852 3.06472,1.55852c0,0 0.21121,-0.10007 0.09667,-0.67471c-0.7452,-3.7384 -0.43189,-9.87374 -0.43189,-9.87374l3.69399,-0.73635c0,0 -0.46528,6.07367 0.21723,9.49755c0.13574,0.68099 0.26293,0.92169 0.26293,0.92169c0,0 2.12777,-2.40536 3.14584,-2.8186c1.29357,-0.52505 3.8476,-0.03091 3.8476,-0.03091c0,0 -1.36852,3.71357 -2.58112,4.44305c-0.98311,0.59143 -3.7242,0.76756 -3.7242,0.76756l2.73102,6.78105z" data-paper-data="{&quot;origPos&quot;:null,&quot;origRot&quot;:0}" fill="#2fe500" stroke="#000000" stroke-width="1.5" stroke-linecap="butt"/><path d="M243.26237,196.42698c0.78957,2.63009 -10.79786,6.50376 -11.58742,3.87367c-0.78957,-2.63009 1.48961,-6.03366 4.57365,-6.95949c3.08404,-0.92583 6.2242,0.45574 7.01377,3.08583z" data-paper-data="{&quot;origPos&quot;:null,&quot;origRot&quot;:0}" fill="#2fe500" stroke="#000000" stroke-width="2" stroke-linecap="butt"/><path d="M255.91952,199.51267c-0.21612,2.6793 -12.42596,1.43678 -12.20985,-1.24252c0.21612,-2.6793 2.93819,-4.64586 6.07992,-4.39244c3.14173,0.25342 6.34606,2.95566 6.12994,5.63496z" data-paper-data="{&quot;origPos&quot;:null,&quot;origRot&quot;:0}" fill="#2fe500" stroke="#000000" stroke-width="2" stroke-linecap="butt"/><path d="M251.08294,200.8226c-0.37603,2.98698 -13.05979,1.39021 -12.68376,-1.59677c0.37603,-2.98698 3.52023,-5.05096 7.02274,-4.61003c3.50251,0.44093 6.03704,3.21981 5.661,6.2068z" data-paper-data="{&quot;origPos&quot;:null,&quot;origRot&quot;:0}" fill="#2fe500" stroke="#000000" stroke-width="2" stroke-linecap="butt"/><path d="M260.44394,177.34608c-1.84088,1.35226 -5.39993,-0.16976 -7.01387,-1.36741c-1.83628,-1.36266 -3.6572,-3.41785 -1.87321,-5.24369c1.1719,-1.19939 3.89844,-0.84529 6.08985,0.7909c2.19145,1.6362 4.13058,4.84073 2.79721,5.82019z" data-paper-data="{&quot;origPos&quot;:null,&quot;origRot&quot;:0,&quot;index&quot;:null}" fill="url(#color-1)" stroke="#000000" stroke-width="1.5" stroke-linecap="butt"/><path d="M262.08565,158.59637c1.07356,2.32374 -1.73115,5.41803 -3.60177,6.64968c-2.12831,1.40131 -5.06933,2.55293 -6.7178,0.12678c-1.08286,-1.59374 0.10791,-4.23869 2.65961,-5.90766c2.55172,-1.66897 6.88235,-2.55192 7.65994,-0.8688z" data-paper-data="{&quot;origPos&quot;:null,&quot;origRot&quot;:0,&quot;index&quot;:null}" fill="url(#color-2)" stroke="#000000" stroke-width="1.5" stroke-linecap="butt"/><path d="M256.86671,159.28132c-1.86732,2.14116 -4.59325,3.1947 -6.08857,2.35311c-2.27633,-1.28118 -0.89131,-3.72656 0.67538,-5.51272c1.377,-1.56988 4.68149,-3.96004 6.90305,-3.14735c1.60911,0.58866 0.37745,4.16577 -1.48987,6.30695z" data-paper-data="{&quot;origPos&quot;:null,&quot;origRot&quot;:0}" fill="url(#color-3)" stroke="#000000" stroke-width="1" stroke-linecap="butt"/><path d="M224.13892,177.46937c1.79251,-2.06731 4.31183,-2.81868 5.6271,-1.67826c2.00224,1.73607 0.63241,4.20705 -0.87101,5.93027c-1.3214,1.51457 -4.42776,3.64281 -6.40239,2.42718c-1.43026,-0.88052 -0.1462,-4.61185 1.6463,-6.67916z" data-paper-data="{&quot;origPos&quot;:null,&quot;origRot&quot;:0}" fill="url(#color-4)" stroke="#000000" stroke-width="1.5" stroke-linecap="butt"/><path d="M255.71546,182.17679c-2.34978,0.82383 -5.6869,-1.57594 -7.05229,-3.15402c-1.55346,-1.79548 -2.88876,-4.25538 -0.46135,-5.55123c1.59454,-0.85124 4.38774,0.20355 6.23878,2.35591c1.85104,2.15236 2.97685,5.75261 1.27487,6.34932z" data-paper-data="{&quot;origPos&quot;:null,&quot;origRot&quot;:0,&quot;index&quot;:null}" fill="url(#color-5)" stroke="#000000" stroke-width="1.5" stroke-linecap="butt"/><path d="M225.42514,155.7646c1.85509,2.1716 2.23891,4.88882 0.85727,6.06907c-2.10327,1.79669 -4.44071,-0.0014 -5.98559,-1.82115c-1.35781,-1.59941 -3.07152,-5.13661 -1.50973,-6.98575c1.13124,-1.33935 4.78295,0.5662 6.63804,2.73781z" data-paper-data="{&quot;origPos&quot;:null,&quot;origRot&quot;:0}" fill="url(#color-6)" stroke="#000000" stroke-width="1.5" stroke-linecap="butt"/><path d="M222.3698,159.87072c1.9874,2.32653 2.39861,5.23755 0.91844,6.50198c-2.25329,1.92486 -4.75748,-0.0015 -6.41254,-1.95104c-1.45468,-1.71348 -3.29062,-5.50301 -1.61743,-7.48405c1.21192,-1.43489 5.12411,0.60659 7.11152,2.9331z" data-paper-data="{&quot;origPos&quot;:null,&quot;origRot&quot;:0}" fill="url(#color-7)" stroke="#000000" stroke-width="1.5" stroke-linecap="butt"/><path d="M249.03885,185.95492c-2.54466,0.52029 -5.58749,-2.27776 -6.73705,-4.01328c-1.30794,-1.9746 -2.28553,-4.58007 0.41435,-5.55822c1.77354,-0.64253 4.47299,0.75435 6.02938,3.12006c1.55639,2.36571 2.13646,6.07459 0.29332,6.45143z" data-paper-data="{&quot;origPos&quot;:null,&quot;origRot&quot;:0,&quot;index&quot;:null}" fill="url(#color-8)" stroke="#000000" stroke-width="1.5" stroke-linecap="butt"/><path d="M220.98531,172.70702c2.75853,-1.27246 5.65103,-0.88125 6.46059,0.87379c1.23239,2.6717 -1.28296,4.54576 -3.59173,5.60219c-2.02923,0.92852 -6.14498,1.66211 -7.58732,-0.47039c-1.04471,-1.54461 1.95992,-4.73313 4.71845,-6.00558z" data-paper-data="{&quot;origPos&quot;:null,&quot;origRot&quot;:0}" fill="url(#color-9)" stroke="#000000" stroke-width="1.5" stroke-linecap="butt"/><path d="M229.71826,179.59619c1.28661,-2.41332 3.60313,-3.89426 5.17406,-3.30773c2.39147,0.89286 1.61848,3.52764 0.53682,5.54227c-0.95067,1.7707 -3.52344,4.66281 -5.76482,4.2227c-1.62346,-0.31878 -1.23271,-4.04392 0.05391,-6.45725z" data-paper-data="{&quot;origPos&quot;:null,&quot;origRot&quot;:0}" fill="url(#color-10)" stroke="#000000" stroke-width="1.5" stroke-linecap="butt"/><path d="M252.74837,155.51352c-1.51536,2.34428 -4.04702,3.71483 -5.65464,3.06119c-2.44729,-0.99503 -1.45549,-3.5826 -0.18251,-5.53925c1.11885,-1.71975 4.01623,-4.48319 6.33715,-3.94538c1.68107,0.38953 1.01536,4.07917 -0.5,6.42345z" data-paper-data="{&quot;origPos&quot;:null,&quot;origRot&quot;:0}" fill="url(#color-11)" stroke="#000000" stroke-width="1" stroke-linecap="butt"/><path d="M230.15606,154.09779c1.43878,2.81149 1.35386,5.73099 -0.1897,6.52091c-2.34979,1.20251 -4.32097,-1.37291 -5.51725,-3.72587c-1.05143,-2.06804 -2.12226,-6.24356 -0.29053,-7.66735c1.32675,-1.03127 4.55871,2.06081 5.9975,4.87229z" data-paper-data="{&quot;origPos&quot;:null,&quot;origRot&quot;:0}" fill="url(#color-12)" stroke="#000000" stroke-width="1.5" stroke-linecap="butt"/><path d="M247.49204,153.27315c-1.51255,2.84122 -4.20023,4.5696 -6.00312,3.86042c-2.74454,-1.07958 -1.82107,-4.18779 -0.54964,-6.55957c1.11748,-2.0846 4.118,-5.47928 6.69521,-4.93659c1.86672,0.39306 1.37013,4.7945 -0.14244,7.63574z" data-paper-data="{&quot;origPos&quot;:null,&quot;origRot&quot;:0}" fill="url(#color-13)" stroke="#000000" stroke-width="1.5" stroke-linecap="butt"/><path d="M235.30631,150.47092c1.13864,2.8132 0.62092,5.5407 -1.15637,6.09206c-2.70556,0.83935 -4.45189,-1.81781 -5.39637,-4.17121c-0.83013,-2.06846 -1.3734,-6.11568 0.80666,-7.22612c1.57908,-0.80431 4.60743,2.4921 5.74608,5.3053z" data-paper-data="{&quot;origPos&quot;:null,&quot;origRot&quot;:0}" fill="url(#color-14)" stroke="#000000" stroke-width="1.5" stroke-linecap="butt"/><path d="M233.96313,180.23974c-0.05966,-3.56147 1.72882,-6.47936 3.9947,-6.51731c3.44937,-0.05778 4.2695,3.52749 4.31022,6.50423c0.03579,2.61631 -1.12485,7.37877 -4.09513,7.91693c-2.1514,0.38979 -4.15013,-4.34241 -4.2098,-7.90385z" data-paper-data="{&quot;origPos&quot;:null,&quot;origRot&quot;:0}" fill="url(#color-15)" stroke="#000000" stroke-width="1.5" stroke-linecap="butt"/><path d="M219.81837,164.73679c3.56147,-0.05966 6.47936,1.72882 6.51731,3.9947c0.05778,3.44937 -3.52749,4.2695 -6.50423,4.31022c-2.61631,0.03579 -7.37877,-1.12485 -7.91693,-4.09513c-0.38979,-2.1514 4.34241,-4.15013 7.90385,-4.2098z" data-paper-data="{&quot;origPos&quot;:null,&quot;origRot&quot;:0}" fill="url(#color-16)" stroke="#000000" stroke-width="1.5" stroke-linecap="butt"/><path d="M256.68743,171.63861c-3.56147,0.05966 -6.47841,-1.67288 -6.51522,-3.86974c-0.05602,-3.34431 3.52962,-4.14128 6.50637,-4.1823c2.6163,-0.03604 7.37815,1.08685 7.91479,3.96639c0.38869,2.0857 -4.34448,4.02598 -7.90592,4.08564z" data-paper-data="{&quot;origPos&quot;:null,&quot;origRot&quot;:0}" fill="url(#color-17)" stroke="#000000" stroke-width="1.5" stroke-linecap="butt"/><path d="M241.56223,151.5801c0.05966,3.56147 -1.47706,6.47514 -3.43238,6.50788c-2.97659,0.04986 -3.69259,-3.53715 -3.73456,-6.51388c-0.0369,-2.61629 0.9538,-7.37592 3.51583,-7.90725c1.85571,-0.38485 3.59146,4.35175 3.65111,7.91322z" data-paper-data="{&quot;origPos&quot;:null,&quot;origRot&quot;:0}" fill="url(#color-18)" stroke="#000000" stroke-width="1.5" stroke-linecap="butt"/><path d="M238.63487,152.82837c6.68953,-0.11206 18.57465,7.2824 18.69914,13.97169c0.15979,8.58638 -10.2472,14.48663 -18.81788,15.02978c-8.39868,0.53224 -19.08211,-5.78558 -19.26093,-14.19922c-0.14376,-6.76413 9.7494,-14.64094 19.37967,-14.80225z" data-paper-data="{&quot;origPos&quot;:null,&quot;origRot&quot;:0}" fill="url(#color-19)" stroke="#000000" stroke-width="2" stroke-linecap="butt"/><path d="M235.03424,163.1961c0.08383,2.59152 -1.08415,4.80165 -2.60875,4.93643c-1.52457,0.1348 -2.82847,-1.8568 -2.91229,-4.44832c-0.08383,-2.59152 1.08415,-4.80165 2.60875,-4.93643c1.52457,-0.1348 2.82845,1.8568 2.91228,4.44831z" data-paper-data="{&quot;origPos&quot;:null,&quot;origRot&quot;:0}" fill="#000000" stroke="none" stroke-width="0" stroke-linecap="butt"/><path d="M247.35334,163.10103c0.08383,2.59152 -1.08415,4.80165 -2.60875,4.93643c-1.52457,0.1348 -2.82847,-1.8568 -2.91229,-4.44832c-0.08383,-2.59152 1.08415,-4.80165 2.60875,-4.93643c1.52457,-0.1348 2.82845,1.8568 2.91228,4.44831z" data-paper-data="{&quot;origPos&quot;:null,&quot;origRot&quot;:0}" fill="#000000" stroke="none" stroke-width="0" stroke-linecap="butt"/><path d="M251.16403,171.64164c0,0 -7.70267,3.5886 -12.92231,3.40948c-5.14803,-0.17666 -12.07089,-2.99081 -12.07089,-2.99081" data-paper-data="{&quot;origPos&quot;:null,&quot;origRot&quot;:0}" fill="none" stroke="#000000" stroke-width="1.5" stroke-linecap="round"/><path d="M232.83642,161.92107c0.034,1.05079 -0.43959,1.94694 -1.05777,2.00159c-0.61818,0.05465 -1.14687,-0.75288 -1.18085,-1.80366c-0.034,-1.05079 0.43959,-1.94694 1.05777,-2.00159c0.61818,-0.05465 1.14687,0.75288 1.18085,1.80366z" data-paper-data="{&quot;origPos&quot;:null,&quot;origRot&quot;:0}" fill="#ffffff" stroke="none" stroke-width="0" stroke-linecap="butt"/><path d="M244.94967,161.81771c0.034,1.05079 -0.43959,1.94694 -1.05777,2.00159c-0.61818,0.05465 -1.14687,-0.75288 -1.18085,-1.80366c-0.034,-1.05079 0.43959,-1.94694 1.05777,-2.00159c0.61818,-0.05465 1.14687,0.75288 1.18085,1.80366z" data-paper-data="{&quot;origPos&quot;:null,&quot;origRot&quot;:0}" fill="#ffffff" stroke="none" stroke-width="0" stroke-linecap="butt"/></g></g></svg>