<svg version="1.1" xmlns="http://www.w3.org/2000/svg" xmlns:xlink="http://www.w3.org/1999/xlink" width="57.54425" height="35.87503" viewBox="0,0,57.54425,35.87503"><g transform="translate(-213.21691,-184.02879)"><g data-paper-data="{&quot;isPaintingLayer&quot;:true}" fill="none" fill-rule="nonzero" stroke="none" stroke-width="none" stroke-linecap="butt" stroke-linejoin="miter" stroke-miterlimit="10" stroke-dasharray="" stroke-dashoffset="0" font-family="none" font-weight="none" font-size="none" text-anchor="none" style="mix-blend-mode: normal"><path d="M228.36053,200.98275l18.13686,-8.42934l8.17646,17.59276l-18.13686,8.42934z" data-paper-data="{&quot;origPos&quot;:null,&quot;origRot&quot;:0}" fill="#c07a00" stroke="#000000" stroke-width="2"/><path d="M263.23305,209.72447c-5.90804,2.74583 -13.16231,-0.3317 -16.20285,-6.87386c-3.04056,-6.54216 -0.716,-14.07158 5.19204,-16.81742c5.90804,-2.74583 13.16231,0.3317 16.20285,6.87386c3.04056,6.54216 0.716,14.07158 -5.19204,16.81742z" data-paper-data="{&quot;origPos&quot;:null,&quot;origRot&quot;:0}" fill="#b2b2b2" stroke="#000000" stroke-width="2"/><path d="M260.84258,195.81083c-1.5025,0.6983 -3.18047,0.27477 -3.74784,-0.94603c-0.56738,-1.22078 0.19072,-2.77653 1.69319,-3.47483c1.5025,-0.6983 3.18047,-0.27477 3.74784,0.94603c0.56738,1.22078 -0.19072,2.77653 -1.69319,3.47483z" data-paper-data="{&quot;origPos&quot;:null,&quot;origRot&quot;:0}" fill="#ff0000" stroke="none" stroke-width="0"/><path d="M258.14694,190.33703c-1.34602,0.62557 -2.83812,0.26994 -3.33276,-0.79436c-0.49465,-1.06428 0.19551,-2.43416 1.54151,-3.05976c1.34602,-0.62557 2.83812,-0.26994 3.33276,0.79436c0.49465,1.06428 -0.19551,2.43416 -1.54151,3.05976z" data-paper-data="{&quot;origPos&quot;:null,&quot;origRot&quot;:0}" fill="#ff0000" stroke="none" stroke-width="0"/><path d="M217.84047,195.86491l15.85059,7.17769l-3.30009,7.28763l-15.85059,-7.17769z" data-paper-data="{&quot;origPos&quot;:null,&quot;origRot&quot;:0}" fill="#4c517f" stroke="#000000" stroke-width="2"/><path d="M216.67138,209.81995l17.58023,0.8341l-0.37913,7.99101l-17.58023,-0.8341z" data-paper-data="{&quot;origPos&quot;:null,&quot;origRot&quot;:0}" fill="#4c517f" stroke="#000000" stroke-width="2"/><path d="M259.81325,193.46265l3.4748,7.6476l-17.66232,8.02511l-3.4748,-7.6476z" data-paper-data="{&quot;origPos&quot;:null,&quot;origRot&quot;:0}" fill="#c07a00" stroke="#000000" stroke-width="2"/></g></g></svg>