<svg version="1.1" xmlns="http://www.w3.org/2000/svg" xmlns:xlink="http://www.w3.org/1999/xlink" width="78.26422" height="57.83967" viewBox="0,0,78.26422,57.83967"><defs><linearGradient x1="239.20347" y1="191.00524" x2="239.20347" y2="207.40821" gradientUnits="userSpaceOnUse" id="color-1"><stop offset="0" stop-color="#24693c"/><stop offset="1" stop-color="#4ecc71"/></linearGradient><radialGradient cx="239.44776" cy="177.8383" r="21.1235" gradientUnits="userSpaceOnUse" id="color-2"><stop offset="0" stop-color="#b3fa98"/><stop offset="1" stop-color="#05ac26"/></radialGradient><radialGradient cx="227.34017" cy="154.97581" r="14.99911" gradientUnits="userSpaceOnUse" id="color-3"><stop offset="0" stop-color="#036617"/><stop offset="1" stop-color="#037019"/></radialGradient><radialGradient cx="240.54467" cy="176.67765" r="6.67932" gradientUnits="userSpaceOnUse" id="color-4"><stop offset="0" stop-color="#adeba3"/><stop offset="1" stop-color="#32c144"/></radialGradient><linearGradient x1="235.72659" y1="185.26755" x2="235.72659" y2="203.06875" gradientUnits="userSpaceOnUse" id="color-5"><stop offset="0" stop-color="#a8d9ab"/><stop offset="1" stop-color="#50d844"/></linearGradient><radialGradient cx="238.70778" cy="178.14401" r="11.33088" gradientUnits="userSpaceOnUse" id="color-6"><stop offset="0" stop-color="#a5f48f"/><stop offset="1" stop-color="#32c144"/></radialGradient><linearGradient x1="247.9057" y1="166.55497" x2="247.9057" y2="184.1699" gradientUnits="userSpaceOnUse" id="color-7"><stop offset="0" stop-color="#baffa7"/><stop offset="1" stop-color="#82ff63"/></linearGradient><radialGradient cx="196.44203" cy="157.44026" r="10.59119" gradientUnits="userSpaceOnUse" id="color-8"><stop offset="0" stop-color="#c8d6ca"/><stop offset="1" stop-color="#05ad27"/></radialGradient><radialGradient cx="191.05773" cy="161.82167" r="9.57427" gradientUnits="userSpaceOnUse" id="color-9"><stop offset="0" stop-color="#83dd6c"/><stop offset="1" stop-color="#28bd46"/></radialGradient><radialGradient cx="202.2322" cy="161.11886" r="7.29369" gradientUnits="userSpaceOnUse" id="color-10"><stop offset="0" stop-color="#83dd6c"/><stop offset="1" stop-color="#5dc572"/></radialGradient><linearGradient x1="195.52799" y1="161.13988" x2="197.7337" y2="173.54531" gradientUnits="userSpaceOnUse" id="color-11"><stop offset="0" stop-color="#53db7a"/><stop offset="1" stop-color="#24693c"/></linearGradient></defs><g transform="translate(-184.40346,-150.0555)"><g data-paper-data="{&quot;isPaintingLayer&quot;:true}" fill="none" fill-rule="nonzero" stroke="none" stroke-width="none" stroke-linecap="none" stroke-linejoin="miter" stroke-miterlimit="10" stroke-dasharray="" stroke-dashoffset="0" font-family="none" font-weight="none" font-size="none" text-anchor="none" style="mix-blend-mode: normal"><path d="M261.76148,196.78898c0,2.05192 -3.97709,5.3969 -5.34639,5.1516c-1.97058,-0.35301 -6.53872,-4.94385 -6.53872,-4.94385c0,0 3.51744,2.47919 4.5129,4.47218c0.97783,1.95763 1.43097,5.11132 -0.50841,5.66005c-0.72974,0.20647 -2.01401,-4.07958 -2.71225,-3.76452c-0.45567,0.20562 -0.17895,0.90011 -0.35529,1.41446c-0.43238,1.26101 -0.58355,2.07082 -1.7858,2.1474c-2.2721,0.14472 -1.07992,-3.82453 -3.25682,-3.08021c-1.19403,0.40825 -0.98725,1.11468 -1.9378,2.02242c-1.86942,1.78521 -2.34708,1.52666 -4.80193,1.52666c-3.01056,0 -6.26921,-6.82012 -6.26921,-6.82012c0,0 -8.27018,5.80446 -12.68574,3.40515c-1.65132,-0.89729 0.93979,-3.69416 2.37941,-4.97045c1.21597,-1.07803 3.7332,-1.43148 3.7332,-1.43148c0,0 -4.43708,1.0473 -6.33509,0.24077c-1.6029,-0.68114 -3.20813,-2.29397 -3.20813,-4.2171c0,-1.27932 7.01023,-0.1749 7.01023,-0.1749c0,0 -3.53147,-1.47362 -2.02352,-1.93843c6.16078,-1.899 28.15506,2.37702 30.17791,2.86475c0.6743,0.16258 6.3103,-1.36996 6.73525,-0.76049c0.65145,0.93429 -2.38418,3.70814 -2.38418,3.70814c0,0 5.60033,-4.13562 5.60033,-0.51203z" data-paper-data="{&quot;origPos&quot;:null}" fill="url(#color-1)" stroke="#0f2c13" stroke-width="1" stroke-linecap="butt"/><path d="M220.1034,179.093v-2.76629h2.48966v2.76629z" data-paper-data="{&quot;origPos&quot;:null}" fill="#1c5324" stroke="none" stroke-width="0" stroke-linecap="butt"/><path d="M261.91767,184.30921c0,10.93456 -8.99461,19.79877 -21.44564,19.79877c-12.45103,0 -19.79723,-8.86421 -19.79723,-19.79877c0,-7.64184 2.01,-10.17069 5.5737,-11.53488c2.58033,-0.98775 1.24441,-4.30197 1.97099,-6.96765c0.41142,-1.50942 1.75869,-3.1986 3.09877,-2.39126c2.06409,1.24351 4.72968,3.87391 4.72968,3.87391c0,0 0.57469,-4.51695 2.76081,-2.96485c2.45507,1.74304 4.36004,2.4601 6.20977,4.22577c0,0 16.89917,4.82442 16.89917,15.75897z" data-paper-data="{&quot;origPos&quot;:null}" fill="url(#color-2)" stroke="#000000" stroke-width="1.5" stroke-linecap="butt"/><path d="M251.59719,190.43468c0.27631,2.25701 -0.57066,4.27901 -1.89177,4.51621c-1.32109,0.23722 -2.61607,-1.40018 -2.89238,-3.6572c-0.27631,-2.25701 0.57066,-4.27901 1.89177,-4.51621c1.32109,-0.23722 2.61606,1.40018 2.89236,3.65718z" data-paper-data="{&quot;origPos&quot;:null,&quot;origRot&quot;:0}" fill="#000000" stroke="none" stroke-width="0" stroke-linecap="butt"/><path d="M257.40952,188.52737c0.1873,1.70267 -0.46932,3.21789 -1.46663,3.38437c-0.99732,0.16648 -1.95762,-1.07881 -2.14493,-2.78149c-0.1873,-1.70267 0.46931,-3.21789 1.46663,-3.38437c0.99732,-0.16648 1.95764,1.07882 2.14495,2.78148z" data-paper-data="{&quot;origPos&quot;:null,&quot;origRot&quot;:0}" fill="#000000" stroke="none" stroke-width="0" stroke-linecap="butt"/><path d="M236.49967,168.12068c0.25775,-1.14166 2.08853,-1.65886 2.09998,-1.639c0.93891,-0.19312 1.14318,0.2274 1.32616,0.67349c0.54893,1.33828 4.80687,4.47894 4.80687,4.47894c0,0 -8.74491,-1.24605 -8.233,-3.51343z" data-paper-data="{&quot;origPos&quot;:null,&quot;index&quot;:null}" fill="#287732" stroke="none" stroke-width="0" stroke-linecap="butt"/><path d="M233.26692,168.78361l-6.90536,-12.19313c0,0 -2.78904,-0.55096 -4.91323,0.46859c-5.25552,2.52247 -13.33413,8.48961 -13.33413,8.48961l0.96003,-3.39728c0,0 5.69726,-4.27647 9.61072,-6.33226c3.76434,-1.97747 9.41517,-2.52085 9.41517,-2.52085l11.18485,16.19905z" data-paper-data="{&quot;origPos&quot;:null,&quot;origRot&quot;:0}" fill="url(#color-3)" stroke="#0f2c13" stroke-width="0.5" stroke-linecap="butt"/><path d="M236.59668,179.88173c0,0 -2.63452,-7.47561 0.96309,-10.59354c1.43488,0.15828 1.60014,0.89355 3.0642,0.72308c0.81057,-0.09438 -1.46494,-3.29987 -0.66246,-3.44803c1.27805,-0.23595 3.27113,0.61558 4.37005,1.30947c1.95379,1.23368 4.57485,2.6996 4.57485,2.6996c0,0 -1.08007,3.52708 -4.53169,6.51848c-2.04149,1.76929 -7.77805,2.79093 -7.77805,2.79093z" data-paper-data="{&quot;origPos&quot;:null}" fill="url(#color-4)" stroke="#256d2f" stroke-width="0.5" stroke-linecap="butt"/><path d="M249.79674,189.89037c0.12534,1.02387 -0.25887,1.94112 -0.85818,2.04873c-0.5993,0.10761 -1.18675,-0.63518 -1.3121,-1.65905c-0.12534,-1.02387 0.25887,-1.94112 0.85818,-2.04873c0.5993,-0.10761 1.18675,0.63518 1.31209,1.65904z" data-paper-data="{&quot;origPos&quot;:null,&quot;origRot&quot;:0}" fill="#ffffff" stroke="none" stroke-width="0" stroke-linecap="butt"/><path d="M255.83935,187.79158c0.06388,0.58064 -0.16005,1.09738 -0.50016,1.15416c-0.3401,0.05678 -0.6676,-0.3679 -0.73148,-0.94855c-0.06388,-0.58064 0.16005,-1.09738 0.50016,-1.15416c0.3401,-0.05678 0.6676,0.36791 0.73147,0.94855z" data-paper-data="{&quot;origPos&quot;:null,&quot;origRot&quot;:0}" fill="#ffffff" stroke="none" stroke-width="0" stroke-linecap="butt"/><path d="M229.98163,172.89424c0,0 -0.55754,-5.62866 -0.00861,-6.96693c0.18297,-0.44609 0.38725,-1.2679 1.32616,-1.07479c0.01145,-0.01986 1.84223,0.65787 2.09998,1.79953c0.51191,2.26738 -0.09945,0.78465 -0.09945,0.78465z" data-paper-data="{&quot;origPos&quot;:null}" fill="#287732" stroke="none" stroke-width="0" stroke-linecap="butt"/><path d="M241.51442,185.83712c0,0 0.93421,-5.58829 2.6088,-5.43198c3.45629,0.32262 5.34225,4.18081 5.34225,4.18081c0,0 -2.89307,-1.30844 -4.27587,-1.09085c-1.72021,0.27069 -3.67519,2.34203 -3.67519,2.34203z" data-paper-data="{&quot;origPos&quot;:null,&quot;origRot&quot;:0}" fill="#05ac26" stroke="#000000" stroke-width="0.5" stroke-linecap="butt"/><path d="M253.59425,183.59533c0,0 0.41036,-3.54152 2.10412,-4.47537c1.59787,-0.88099 4.53939,3.47214 4.53939,3.47214c0,0 -2.17156,-1.31281 -3.62007,-1.13963z" data-paper-data="{&quot;origPos&quot;:null,&quot;index&quot;:null,&quot;origRot&quot;:0}" fill="#05ac26" stroke="#000000" stroke-width="0.5" stroke-linecap="butt"/><path d="M229.86136,200.27652c-9.31009,-5.53335 -8.11532,-15.00897 -8.11532,-15.00897c0,0 1.81981,2.31614 3.48936,3.52113c2.89898,2.09231 5.27897,2.89868 8.35787,4.71589c1.07262,0.63307 3.30279,0.95609 4.27355,1.73642c1.04675,0.84142 1.19652,2.00265 1.97062,3.10012c0.56076,0.79502 1.20418,0.69842 2.0726,1.13699c2.90936,1.46929 7.84692,1.93282 7.84692,1.93282c0,0 -10.58552,4.39896 -19.89561,-1.1344z" data-paper-data="{&quot;origPos&quot;:null}" fill="url(#color-5)" stroke="#287732" stroke-width="0" stroke-linecap="butt"/><path d="M221.68842,188.50362c0,0 -3.00232,-6.46052 -1.58566,-10.2539c1.41666,-3.79338 4.8755,-1.86825 6.53757,-3.25475c1.74595,-1.45648 2.05743,-1.46541 3.58711,-3.14758c1.16773,-1.28413 0.86266,-4.12853 2.27962,-5.13093c0.98323,-0.69556 1.83235,0.20503 3.01285,0.44367c1.28933,0.26065 1.39079,4.53554 1.39079,4.53554c0,0 2.8819,-0.5568 2.45728,1.61144c-0.36576,1.86766 -1.56142,1.1313 -1.46001,3.03173c0.12208,2.28781 2.62791,-0.32607 2.40496,1.95412c-0.34608,3.53952 -0.64725,5.21747 -2.87368,7.99074c0,0 -5.58084,2.08811 -8.55028,2.43162c-3.58542,0.41476 -7.20057,-0.2117 -7.20057,-0.2117z" data-paper-data="{&quot;origPos&quot;:null}" fill="url(#color-6)" stroke="#256d2f" stroke-width="0.5" stroke-linecap="butt"/><path d="M221.47519,192.53128c-0.85149,-2.00247 0.15365,-2.61351 -0.9124,-4.4285c-0.46515,-0.79192 -0.94529,-0.29208 -1.86052,-0.3686c-1.2454,-0.10412 -2.82906,-0.10366 -3.11169,-1.32102c-0.31664,-1.36387 1.97549,-3.24471 1.97549,-3.24471c0,0 -4.35351,-0.53149 -4.2109,-3.4209c0.14789,-2.99634 4.39419,-2.88916 4.79908,-3.57543c0.68145,-1.15502 -0.11278,-2.3673 1.19734,-2.65371c0.84219,-0.18411 2.56808,2.64809 2.48809,1.78973c-0.10361,-1.11184 3.38005,0.10913 3.38005,0.10913l-2.50833,1.55977c0,0 -2.30009,0.59751 -2.12232,2.5625c0.33825,3.73885 -0.33188,3.52498 2.19577,6.30066c1.24848,1.371 3.60019,4.96991 5.42925,4.50794c0.79843,1.63012 3.231,1.5975 4.82291,2.46963c2.0677,1.13279 5.18473,2.98496 5.18473,2.98496c0,0 -2.76568,-1.01359 -3.7827,-0.94741c-2.87468,0.18705 -2.3929,0.94412 -5.09793,-0.04664c-1.16457,-0.42654 -1.434,-1.5806 -2.62783,-1.91666c-2.72252,-0.76639 -4.3866,1.64173 -5.23809,-0.36074z" data-paper-data="{&quot;origPos&quot;:null}" fill="#98ff7e" stroke="#256d2f" stroke-width="1" stroke-linecap="butt"/><path d="M238.64795,184.16989c0,0 0.69879,-1.22861 0.88574,-2.00513c0.28768,-1.195 0.51884,-2.98108 0.51884,-2.98108c0.58946,-1.17823 1.26245,-1.47244 2.09619,-2.49252c0.76334,-0.93396 1.86932,-2.58927 1.86932,-2.58927c0.92736,-1.09263 5.04951,-4.02007 5.04951,-4.02007l-3.83903,-1.88383c0,0 1.30453,-0.60588 2.0238,-0.85441c4.12021,-1.42364 9.62608,-0.98029 9.90567,1.82523c0.17044,1.71032 -3.70296,0.00959 -5.52737,2.15914c-0.76893,0.90598 0.87117,3.10038 -0.10713,4.27832c-0.79921,0.96232 -3.74494,-1.77032 -4.55655,-0.81844c-0.57155,0.67033 -0.27083,3.03995 -0.93112,3.53602c-1.04513,0.78519 -0.99758,0.09774 -2.27006,-0.20165c-0.54188,-0.12749 -0.90285,0.19885 -1.29341,0.59554c-1.61237,1.63769 -0.14749,2.54106 -1.83057,4.106c-1.17858,1.09586 -1.99382,1.34616 -1.99382,1.34616z" data-paper-data="{&quot;origPos&quot;:null}" fill="url(#color-7)" stroke="#256d2f" stroke-width="1" stroke-linecap="butt"/><path d="M249.19411,168.27169c0,0 3.43929,0.15008 2.57216,0.6756c-2.87737,1.74381 -4.39911,1.73263 -6.84216,4.04599c-1.24998,1.18363 -2.27839,3.1478 -3.44673,4.41208c-3.2021,3.46504 -0.67287,5.91538 -4.41976,8.78257c-2.8054,2.14674 -10.26184,2.90022 -10.26184,2.90022" data-paper-data="{&quot;origPos&quot;:null}" fill="none" stroke="#287732" stroke-width="0.5" stroke-linecap="round"/><path d="M249.85235,201.36847c0,0 -2.5428,-0.35141 -4.26121,-0.82527c-1.84647,-0.50917 -3.08594,-1.02184 -4.81061,-1.85506c-2.99301,-1.44598 -0.75161,-2.17309 -3.65237,-3.79622c-4.11025,-2.2999 -9.16571,-4.12758 -12.74153,-7.19305c-2.63845,-2.26189 -4.88527,-6.40882 -3.2578,-9.43008c0.67873,-1.26003 1.56623,-1.41244 1.56623,-1.41244" data-paper-data="{&quot;origPos&quot;:null}" fill="none" stroke="#287732" stroke-width="0.5" stroke-linecap="round"/><path d="M208.96126,162.79664c0.23172,6.02722 -4.94905,11.11965 -11.57157,11.37425c-6.62252,0.2546 -12.17898,-4.42503 -12.41069,-10.45225c-0.23172,-6.02722 23.75057,-6.94924 23.98228,-0.922z" data-paper-data="{&quot;origPos&quot;:null,&quot;origRot&quot;:0}" fill="#2e8149" stroke="#0f2c13" stroke-width="0.5" stroke-linecap="butt"/><path d="M186.08641,164.35341c-1.02396,-5.75902 2.7703,-11.50667 8.52933,-12.53063c5.75902,-1.02396 11.30198,3.0635 12.32594,8.82253c1.02396,5.75902 -2.7703,11.50667 -8.52933,12.53063c-5.75902,1.02396 -11.30198,-3.0635 -12.32594,-8.82253z" data-paper-data="{&quot;origPos&quot;:null,&quot;origRot&quot;:0}" fill="url(#color-8)" stroke="#000000" stroke-width="1" stroke-linecap="butt"/><path d="M204.87016,167.81498c-1.50031,2.34137 -2.14545,2.24743 -3.57901,2.4744c-2.74037,0.43391 -7.17927,-0.91925 -7.17927,-0.91925c0,0 4.12618,-1.62279 5.88739,-3.77725c1.5701,-1.92067 2.00011,-4.10367 0.91482,-6.33443c-0.71616,-1.47201 -1.99009,-2.31024 -2.30684,-3.9163c-0.17813,-0.90321 0.83366,-2.45843 0.83366,-2.45843c0,0 0.68178,0.62587 2.43234,1.25033c1.17519,0.4192 1.95202,1.85315 2.79559,2.77248c1.14618,1.24907 1.26613,2.53347 1.56289,4.20257c0.66858,3.76026 0.04078,4.51729 -1.36162,6.70585z" data-paper-data="{&quot;origPos&quot;:null,&quot;index&quot;:null,&quot;origRot&quot;:0}" fill="#27b33c" stroke="#1c802b" stroke-width="0.5" stroke-linecap="butt"/><path d="M186.79635,164.33417c-0.35987,-2.024 -0.25709,-3.62568 0.52551,-5.52663c0.576,-1.39911 1.45346,-2.94247 2.61597,-3.91091c1.7317,-1.44261 4.64998,-2.3484 4.64998,-2.3484c0,0 -2.33808,5.74049 -2.51178,7.45648c-0.30295,2.993 1.09905,5.29824 3.68919,6.82827c2.90544,1.71628 8.28071,1.83877 8.28071,1.83877c0,0 -3.55536,4.77293 -7.76623,3.96784c0,0 -3.14196,-0.31268 -4.98271,-1.57878c-2.35694,-1.62111 -3.68989,-2.16677 -4.50064,-6.72664z" data-paper-data="{&quot;origPos&quot;:null,&quot;origRot&quot;:0}" fill="#27b33c" stroke="#1c802b" stroke-width="0.5" stroke-linecap="butt"/><path d="M192.00921,161.39568c0,0 2.33486,-3.94921 3.95089,-4.25216c0.85924,-0.16108 1.15978,1.87547 1.93073,2.28767c0.75618,0.40432 0.64535,-0.75386 1.50227,-0.78484c0.33094,-0.01197 1.48006,1.08768 1.48006,1.08768" data-paper-data="{&quot;origPos&quot;:null,&quot;origRot&quot;:0}" fill="none" stroke="#1c802b" stroke-width="0.5" stroke-linecap="round"/><path d="M196.94349,152.5574c0,0 -0.74525,0.8213 -0.83161,1.38711c-0.09986,0.65442 1.33271,0.7812 1.37006,1.44215c0.03504,0.62032 -1.25012,1.83416 -1.25012,1.83416" data-paper-data="{&quot;origPos&quot;:null,&quot;origRot&quot;:0}" fill="none" stroke="#1c802b" stroke-width="0.5" stroke-linecap="round"/><path d="M189.40925,163.14199c-0.10169,-1.33991 0.61496,-0.52297 1.09831,-1.77681c0.18366,-0.4764 -1.29462,-1.92007 -1.11851,-2.39932c0.40553,-1.10355 0.84462,-0.69766 1.56398,-1.62758c0.77317,-0.99947 -2.19557,-3.21269 -1.47263,-4.24909c0.6071,-0.87032 1.47578,0.6438 2.53371,0.56123c0.72505,-0.0566 -0.23655,-2.94221 0.36903,-3.34492c0.52594,-0.34974 0.68583,0.79193 1.11328,1.25693c0.17344,0.1887 0.9142,-1.03352 1.12327,-0.88527c0.21491,0.15239 1.20646,0.45277 1.19139,0.71581c-0.01732,0.30197 -0.71561,-0.15106 -0.97499,0.00452c-0.28842,0.17301 -0.33402,0.90918 -0.33402,0.90918c0,0 -1.96132,4.4157 -2.37149,7.03326c-0.34991,2.23313 -0.0968,3.2651 1.03333,5.22271c1.74219,3.01778 6.43158,3.8732 6.43158,3.8732c0,0 -9.95963,-2.30789 -10.18624,-5.29383z" data-paper-data="{&quot;origPos&quot;:null,&quot;origRot&quot;:0}" fill="url(#color-9)" stroke="#256d2f" stroke-width="0.5" stroke-linecap="butt"/><path d="M200.79213,165.05576c0,0 1.65806,-3.67565 0.42993,-5.90238c-1.01917,-1.84783 -2.01591,-1.87887 -2.4288,-3.84023c-0.46636,-2.21537 0.82029,-3.14492 0.82029,-3.14492c0,0 -1.61892,-1.49078 -1.27311,-1.09669c0.50806,0.579 1.24653,-1.04346 1.88035,-0.60569c0.44006,0.30396 0.09436,0.55138 0.62362,1.61555c0.1729,0.34764 1.08161,0.58556 1.13097,0.97068c0.09569,0.74646 -0.9091,1.17087 -0.97501,1.92055c-0.09272,1.05437 2.73999,1.97658 2.93949,3.01602c0.387,2.0163 -0.2279,0.56585 -1.13962,2.19861c-0.81622,1.46176 1.23701,-0.05338 1.39518,1.61335c0.24929,2.62684 -3.40329,3.25515 -3.40329,3.25515z" data-paper-data="{&quot;origPos&quot;:null,&quot;origRot&quot;:0}" fill="url(#color-10)" stroke="#256d2f" stroke-width="0.5" stroke-linecap="butt"/><path d="M184.70911,165.14392c-0.09235,-0.63694 0.00624,-1.97997 0.00624,-1.97997c0,0 1.53335,0.90811 1.7773,1.29023c0.73187,1.14637 0.98618,2.73976 0.98618,2.73976c0,0 0.03191,-1.66333 2.10252,-1.44054c0.65908,0.07092 1.29998,1.95351 1.29998,1.95351c0,0 1.71505,-2.48127 3.00363,-1.60313c1.56295,1.0651 2.13765,2.72843 2.13765,2.72843c0,0 1.32909,-2.78867 2.2697,-2.76531c2.12679,0.05282 3.58845,0.81343 3.58845,0.81343c0,0 -1.97348,-0.6284 -1.14728,-2.44223c0.60895,-1.33689 3.95735,-0.91008 3.95735,-0.91008c0,0 -0.88267,-1.47022 -0.59482,-2.36783c0.38069,-1.18705 1.74752,-0.30205 1.74752,-0.30205l0.0332,-2.06613c0,0 2.56989,2.09341 2.87341,3.49273c0.40551,1.86955 -0.17844,3.45162 -0.94671,5.2036c-1.69034,3.85463 -5.92872,6.677 -10.13197,6.8964c-2.2394,0.11688 -3.62381,-0.38527 -5.79211,-0.95715c0,0 -3.24808,-1.34592 -4.79313,-3.33276c-1.14839,-1.47677 -2.10015,-3.04009 -2.37717,-4.95093z" data-paper-data="{&quot;origPos&quot;:null,&quot;origRot&quot;:0}" fill="url(#color-11)" stroke="#0f2c13" stroke-width="0.5" stroke-linecap="butt"/></g></g></svg>