<svg version="1.1" xmlns="http://www.w3.org/2000/svg" xmlns:xlink="http://www.w3.org/1999/xlink" width="83.82543" height="53.73015" viewBox="0,0,83.82543,53.73015"><defs><linearGradient x1="240.19427" y1="191.00523" x2="240.19427" y2="207.4082" gradientUnits="userSpaceOnUse" id="color-1"><stop offset="0" stop-color="#24693c"/><stop offset="1" stop-color="#4ecc71"/></linearGradient><radialGradient cx="235.88524" cy="174.78306" r="21.1235" gradientUnits="userSpaceOnUse" id="color-2"><stop offset="0" stop-color="#b3fa98"/><stop offset="1" stop-color="#05ac26"/></radialGradient><radialGradient cx="222.17279" cy="156.2543" r="14.99911" gradientUnits="userSpaceOnUse" id="color-3"><stop offset="0" stop-color="#036617"/><stop offset="1" stop-color="#037019"/></radialGradient><radialGradient cx="236.59647" cy="173.3532" r="6.67932" gradientUnits="userSpaceOnUse" id="color-4"><stop offset="0" stop-color="#adeba3"/><stop offset="1" stop-color="#32c144"/></radialGradient><linearGradient x1="234.48968" y1="182.97409" x2="239.67535" y2="200.00323" gradientUnits="userSpaceOnUse" id="color-5"><stop offset="0" stop-color="#a8d9ab"/><stop offset="1" stop-color="#50d844"/></linearGradient><radialGradient cx="235.2664" cy="175.29107" r="11.33088" gradientUnits="userSpaceOnUse" id="color-6"><stop offset="0" stop-color="#a5f48f"/><stop offset="1" stop-color="#32c144"/></radialGradient><linearGradient x1="240.68939" y1="161.52521" x2="245.8208" y2="178.37616" gradientUnits="userSpaceOnUse" id="color-7"><stop offset="0" stop-color="#baffa7"/><stop offset="1" stop-color="#82ff63"/></linearGradient><radialGradient cx="192.62393" cy="165.61557" r="10.59119" gradientUnits="userSpaceOnUse" id="color-8"><stop offset="0" stop-color="#c8d6ca"/><stop offset="1" stop-color="#05ad27"/></radialGradient><radialGradient cx="188.36497" cy="171.09726" r="9.57427" gradientUnits="userSpaceOnUse" id="color-9"><stop offset="0" stop-color="#83dd6c"/><stop offset="1" stop-color="#28bd46"/></radialGradient><radialGradient cx="199.09393" cy="167.89533" r="7.29369" gradientUnits="userSpaceOnUse" id="color-10"><stop offset="0" stop-color="#83dd6c"/><stop offset="1" stop-color="#5dc572"/></radialGradient><linearGradient x1="192.56677" y1="169.42599" x2="197.51024" y2="181.01573" gradientUnits="userSpaceOnUse" id="color-11"><stop offset="0" stop-color="#53db7a"/><stop offset="1" stop-color="#24693c"/></linearGradient></defs><g transform="translate(-182.17904,-154.16501)"><g data-paper-data="{&quot;isPaintingLayer&quot;:true}" fill="none" fill-rule="nonzero" stroke="none" stroke-width="none" stroke-linecap="none" stroke-linejoin="miter" stroke-miterlimit="10" stroke-dasharray="" stroke-dashoffset="0" font-family="none" font-weight="none" font-size="none" text-anchor="none" style="mix-blend-mode: normal"><path d="M265.50447,196.78897c0,2.05192 -4.46233,5.3969 -5.99869,5.1516c-2.211,-0.35301 -7.33647,-4.94385 -7.33647,-4.94385c0,0 3.94658,2.47919 5.06352,4.47218c1.09713,1.95763 1.60555,5.11132 -0.57043,5.66005c-0.81875,0.20647 -2.25973,-4.07958 -3.04313,-3.76452c-0.51129,0.20562 -0.20078,0.90011 -0.39866,1.41446c-0.48513,1.26101 -0.65474,2.07082 -2.00368,2.1474c-2.54931,0.14472 -1.21167,-3.82453 -3.65419,-3.08021c-1.3397,0.40825 -1.1077,1.11468 -2.17422,2.02242c-2.09749,1.78521 -2.63345,1.52666 -5.3878,1.52666c-3.37785,0 -7.03408,-6.82012 -7.03408,-6.82012c0,0 -9.27918,5.80446 -14.23348,3.40515c-1.85279,-0.89729 1.05445,-3.69416 2.6697,-4.97045c1.36434,-1.07803 4.18869,-1.43148 4.18869,-1.43148c0,0 -4.97845,1.0473 -7.10801,0.24077c-1.79846,-0.68114 -3.59951,-2.29397 -3.59951,-4.2171c0,-1.27932 7.86551,-0.1749 7.86551,-0.1749c0,0 -3.96234,-1.47362 -2.2704,-1.93843c6.91241,-1.899 31.59011,2.37702 33.85978,2.86475c0.75656,0.16258 7.08018,-1.36996 7.557,-0.76049c0.73094,0.93429 -2.67507,3.70814 -2.67507,3.70814c0,0 6.28359,-4.13562 6.28359,-0.51203z" data-paper-data="{&quot;origPos&quot;:null}" fill="url(#color-1)" stroke="#0f2c13" stroke-width="1" stroke-linecap="butt"/><path d="M217.74539,181.61854l-0.80586,-2.64631l2.38167,-0.72526l0.80586,2.64631z" data-paper-data="{&quot;origPos&quot;:null,&quot;origRot&quot;:0}" fill="#1c5324" stroke="none" stroke-width="0" stroke-linecap="butt"/><path d="M259.26564,174.42759c3.18534,10.46031 -2.83692,21.5603 -14.74793,25.18741c-11.91102,3.62711 -21.52082,-2.71262 -24.70618,-13.17292c-2.22614,-7.3104 -1.04,-10.31511 1.97173,-12.65828c2.18067,-1.69659 -0.06277,-4.47789 -0.14425,-7.23962c-0.04614,-1.56381 0.75061,-3.5722 2.26777,-3.19025c2.33682,0.58829 5.65306,2.32809 5.65306,2.32809c0,0 -0.76606,-4.48845 1.77738,-3.64052c2.85635,0.95226 4.88759,1.08328 7.17145,2.23352c0,0 17.57164,-0.30773 20.75699,10.15256z" data-paper-data="{&quot;origPos&quot;:null,&quot;origRot&quot;:0}" fill="url(#color-2)" stroke="#000000" stroke-width="1.5" stroke-linecap="butt"/><path d="M251.17718,183.29386c0.92183,2.07863 0.70061,4.25967 -0.4941,4.87142c-1.19468,0.61179 -2.91049,-0.57737 -3.83231,-2.656c-0.92183,-2.07863 -0.70061,-4.25967 0.4941,-4.87142c1.19468,-0.61179 2.91048,0.57737 3.83229,2.656z" data-paper-data="{&quot;origPos&quot;:null,&quot;origRot&quot;:0}" fill="#000000" stroke="none" stroke-width="0" stroke-linecap="butt"/><path d="M256.18181,179.77609c0.67517,1.57426 0.48843,3.21505 -0.41712,3.66483c-0.90557,0.44979 -2.18698,-0.46175 -2.86218,-2.03601c-0.67517,-1.57426 -0.48844,-3.21505 0.41712,-3.66483c0.90557,-0.44979 2.18702,0.46176 2.8622,2.03599z" data-paper-data="{&quot;origPos&quot;:null,&quot;origRot&quot;:0}" fill="#000000" stroke="none" stroke-width="0" stroke-linecap="butt"/><path d="M230.23418,166.34571c-0.08601,-1.16723 1.5147,-2.19532 1.53145,-2.17966c0.84193,-0.45826 1.15984,-0.11549 1.46484,0.25796c0.91498,1.12033 5.90315,2.88439 5.90315,2.88439c0,0 -8.72862,1.35548 -8.89942,-0.9627z" data-paper-data="{&quot;origPos&quot;:null,&quot;index&quot;:null,&quot;origRot&quot;:0}" fill="#287732" stroke="none" stroke-width="0" stroke-linecap="butt"/><path d="M231.05757,168.37216l-9.47452,-10.32423c0,0 -2.84146,0.09145 -4.68139,1.5633c-4.55224,3.64149 -11.07905,11.27506 -11.07905,11.27506l0.17008,-3.52622c0,0 4.58752,-5.44993 7.93731,-8.33442c3.22215,-2.7746 8.60534,-4.57694 8.60534,-4.57694l14.54641,13.2632z" data-paper-data="{&quot;origPos&quot;:null,&quot;origRot&quot;:0}" fill="url(#color-3)" stroke="#0f2c13" stroke-width="0.5" stroke-linecap="butt"/><path d="M233.75308,177.56841c0,0 -4.69797,-6.38392 -2.16469,-10.41464c1.41875,-0.26659 1.79103,0.38866 3.14194,-0.20091c0.74793,-0.32641 -2.36268,-2.73 -1.63818,-3.1055c1.15389,-0.59803 3.30859,-0.36404 4.56199,-0.02036c2.22844,0.61102 5.16286,1.24982 5.16286,1.24982c0,0 -0.00575,3.68874 -2.43623,7.55589c-1.43754,2.28727 -6.62769,4.9357 -6.62769,4.9357z" data-paper-data="{&quot;origPos&quot;:null,&quot;origRot&quot;:0}" fill="url(#color-4)" stroke="#256d2f" stroke-width="0.5" stroke-linecap="butt"/><path d="M249.29626,183.29764c0.41816,0.94295 0.31782,1.93234 -0.22415,2.20988c-0.54195,0.27753 -1.32031,-0.26192 -1.73848,-1.20488c-0.41816,-0.94295 -0.31782,-1.93234 0.22415,-2.20988c0.54195,-0.27753 1.32031,0.26192 1.73847,1.20487z" data-paper-data="{&quot;origPos&quot;:null,&quot;origRot&quot;:0}" fill="#ffffff" stroke="none" stroke-width="0" stroke-linecap="butt"/><path d="M254.46539,179.52961c0.23026,0.53686 0.16658,1.09641 -0.14225,1.2498c-0.3088,0.15339 -0.74581,-0.15746 -0.97607,-0.69432c-0.23026,-0.53686 -0.16658,-1.09641 0.14225,-1.2498c0.3088,-0.15339 0.74581,0.15747 0.97606,0.69432z" data-paper-data="{&quot;origPos&quot;:null,&quot;origRot&quot;:0}" fill="#ffffff" stroke="none" stroke-width="0" stroke-linecap="butt"/><path d="M225.38942,172.81101c0,0 -2.17305,-5.22212 -2.03777,-6.66226c0.04509,-0.48004 0.0011,-1.32571 0.95555,-1.41451c0.00516,-0.02233 1.95398,0.09267 2.53313,1.10973c1.15023,2.01992 0.13344,0.77959 0.13344,0.77959z" data-paper-data="{&quot;origPos&quot;:null,&quot;origRot&quot;:0}" fill="#287732" stroke="none" stroke-width="0" stroke-linecap="butt"/><path d="M240.19241,181.83291c0,0 -0.73423,-5.61806 0.91326,-5.95637c3.40037,-0.69822 6.32847,2.44322 6.32847,2.44322c0,0 -3.14876,-0.4089 -4.40819,0.20206c-1.56675,0.76007 -2.83354,3.31107 -2.83354,3.31107z" data-paper-data="{&quot;origPos&quot;:null,&quot;origRot&quot;:0}" fill="#05ac26" stroke="#000000" stroke-width="0.5" stroke-linecap="butt"/><path d="M251.09525,176.16938c0,0 -0.63911,-3.50746 0.70914,-4.89423c1.27193,-1.30825 5.35399,1.99918 5.35399,1.99918c0,0 -2.45981,-0.62327 -3.79503,-0.03564z" data-paper-data="{&quot;origPos&quot;:null,&quot;index&quot;:null,&quot;origRot&quot;:0}" fill="#05ac26" stroke="#000000" stroke-width="0.5" stroke-linecap="butt"/><path d="M233.2511,199.04072c-10.51822,-2.58123 -12.13562,-11.99394 -12.13562,-11.99394c0,0 2.4156,1.68556 4.36376,2.35193c3.38276,1.15707 5.89443,1.23513 9.36917,2.07663c1.21053,0.29314 3.43806,-0.04752 4.59404,0.41617c1.24647,0.5 1.72801,1.56724 2.78825,2.3916c0.76803,0.59718 1.35541,0.31734 2.31394,0.4839c3.21119,0.55803 8.06964,-0.4369 8.06964,-0.4369c0,0 -8.84494,7.29184 -19.36317,4.7106z" data-paper-data="{&quot;origPos&quot;:null,&quot;origRot&quot;:0}" fill="url(#color-5)" stroke="#287732" stroke-width="0" stroke-linecap="butt"/><path d="M222.00307,190.15928c0,0 -4.75412,-5.30571 -4.50396,-9.34725c0.25016,-4.04155 4.1198,-3.20751 5.30589,-5.01806c1.24595,-1.90191 1.54131,-2.0012 2.51461,-4.05603c0.743,-1.56861 -0.37744,-4.20076 0.68606,-5.57247c0.73795,-0.95181 1.8126,-0.33763 3.01142,-0.45324c1.30934,-0.12625 2.65171,3.93367 2.65171,3.93367c0,0 2.5947,-1.37218 2.82013,0.82571c0.19417,1.89321 -1.16414,1.53708 -0.51351,3.32555c0.78325,2.15302 2.41893,-1.07747 2.86991,1.16879c0.70003,3.48682 0.90072,5.17973 -0.42126,8.48132c0,0 -4.7305,3.62331 -7.47108,4.81694c-3.30909,1.44124 -6.94994,1.89509 -6.94994,1.89509z" data-paper-data="{&quot;origPos&quot;:null,&quot;origRot&quot;:0}" fill="url(#color-6)" stroke="#256d2f" stroke-width="0.5" stroke-linecap="butt"/><path d="M222.97239,194.07438c-1.39789,-1.66757 -0.61436,-2.54493 -2.16289,-3.97064c-0.67567,-0.62207 -0.98939,-0.00404 -1.8872,0.18937c-1.22173,0.26319 -2.73655,0.72496 -3.36156,-0.35725c-0.70021,-1.21246 0.94459,-3.67947 0.94459,-3.67947c0,0 -4.31952,0.75978 -5.0248,-2.04585c-0.73138,-2.90948 3.36195,-4.04393 3.54938,-4.81838c0.31543,-1.30345 -0.7975,-2.23178 0.37235,-2.88741c0.75203,-0.42146 3.22812,1.78514 2.90154,0.98729c-0.42302,-1.03344 3.26525,-0.88024 3.26525,-0.88024l-1.94517,2.22282c0,0 -2.02627,1.24164 -1.28379,3.06961c1.41275,3.47816 0.70937,3.46878 3.93598,5.38774c1.59372,0.94784 4.89183,3.70558 6.50698,2.73083c1.23868,1.32683 3.55624,0.58699 5.33317,0.95756c2.30801,0.48131 5.82941,1.34513 5.82941,1.34513c0,0 -2.94099,-0.16396 -3.89462,0.19561c-2.69552,1.01636 -2.01408,1.60025 -4.8904,1.44046c-1.23832,-0.06879 -1.83225,-1.09431 -3.07219,-1.06801c-2.8277,0.05996 -3.71809,2.84839 -5.116,1.18081z" data-paper-data="{&quot;origPos&quot;:null,&quot;origRot&quot;:0}" fill="#98ff7e" stroke="#256d2f" stroke-width="1" stroke-linecap="butt"/><path d="M236.96457,181.07303c0,0 0.31057,-1.37889 0.26322,-2.17618c-0.07291,-1.22698 -0.37208,-3.00293 -0.37208,-3.00293c0.22067,-1.29885 0.77877,-1.77634 1.27917,-2.99506c0.45816,-1.11582 1.03398,-3.02152 1.03398,-3.02152c0.56884,-1.31539 3.65943,-5.31669 3.65943,-5.31669l-4.22131,-0.68378c0,0 1.07146,-0.95963 1.68712,-1.40691c3.52679,-2.56217 8.92301,-3.74195 10.00776,-1.13955c0.66128,1.58648 -3.53958,1.08788 -4.65866,3.67567c-0.47166,1.09067 1.73656,2.71213 1.14383,4.12397c-0.48421,1.1534 -4.09823,-0.6026 -4.59734,0.54443c-0.35149,0.80777 0.6265,2.987 0.13934,3.65391c-0.77107,1.05558 -0.92585,0.38411 -2.23035,0.46839c-0.55551,0.03588 -0.80576,0.45323 -1.06383,0.94649c-1.06537,2.03636 0.59914,2.47381 -0.55506,4.46118c-0.80823,1.39166 -1.51518,1.86859 -1.51518,1.86859z" data-paper-data="{&quot;origPos&quot;:null,&quot;origRot&quot;:0}" fill="url(#color-7)" stroke="#256d2f" stroke-width="1" stroke-linecap="butt"/><path d="M242.42202,162.79214c0,0 3.33385,-0.85833 2.65742,-0.103c-2.24458,2.50639 -3.70358,2.93898 -5.36677,5.86371c-0.85096,1.49643 -1.26258,3.67499 -2.01195,5.22479c-2.05381,4.24756 1.07953,5.85483 -1.66962,9.68918c-2.05836,2.87087 -8.97191,5.76382 -8.97191,5.76382" data-paper-data="{&quot;origPos&quot;:null,&quot;origRot&quot;:0}" fill="none" stroke="#287732" stroke-width="0.5" stroke-linecap="round"/><path d="M252.69315,194.26173c0,0 -2.53488,0.40458 -4.31681,0.45186c-1.91471,0.05081 -3.24977,-0.07856 -5.14236,-0.37323c-3.28444,-0.51136 -1.35206,-1.85989 -4.59985,-2.5676c-4.60197,-1.00279 -9.97059,-1.2785 -14.28432,-3.16934c-3.18293,-1.39518 -6.54035,-4.70773 -5.86359,-8.07205c0.28223,-1.4031 1.08684,-1.80744 1.08684,-1.80744" data-paper-data="{&quot;origPos&quot;:null,&quot;origRot&quot;:0}" fill="none" stroke="#287732" stroke-width="0.5" stroke-linecap="round"/><path d="M206.02797,168.01421c1.58346,5.82012 -2.31704,11.9487 -8.71199,13.68855c-6.39496,1.73985 -12.86276,-1.56785 -14.44622,-7.38796c-1.58346,-5.82012 21.57474,-12.12072 23.15819,-6.30059z" data-paper-data="{&quot;origPos&quot;:null,&quot;origRot&quot;:0}" fill="#2e8149" stroke="#0f2c13" stroke-width="0.5" stroke-linecap="butt"/><path d="M184.09172,174.68375c-2.29493,-5.38034 0.10709,-11.83495 5.48747,-14.12989c5.38034,-2.29493 11.7016,0.43884 13.99654,5.81921c2.29493,5.38034 -0.10709,11.83496 -5.48747,14.1299c-5.38034,2.29493 -11.70159,-0.43885 -13.99654,-5.81922z" data-paper-data="{&quot;origPos&quot;:null,&quot;origRot&quot;:0}" fill="url(#color-8)" stroke="#000000" stroke-width="1" stroke-linecap="butt"/><path d="M203.17246,173.82511c-0.93434,2.61916 -1.58407,2.67295 -2.92964,3.21703c-2.57219,1.04004 -7.20182,0.72159 -7.20182,0.72159c0,0 3.65458,-2.51054 4.88522,-5.00636c1.09709,-2.22499 1.02432,-4.44877 -0.53558,-6.3777c-1.02935,-1.27285 -2.45935,-1.80255 -3.12974,-3.29599c-0.37699,-0.83986 0.25845,-2.58302 0.25845,-2.58302c0,0 0.80524,0.45622 2.65148,0.67029c1.2394,0.14371 2.31929,1.36581 3.34827,2.07148c1.39809,0.95876 1.80428,2.18315 2.46942,3.74248c1.49844,3.513 1.05731,4.392 0.18395,6.84023z" data-paper-data="{&quot;origPos&quot;:null,&quot;index&quot;:null,&quot;origRot&quot;:0}" fill="#27b33c" stroke="#1c802b" stroke-width="0.5" stroke-linecap="butt"/><path d="M184.77908,174.5051c-0.80654,-1.89093 -1.06721,-3.47459 -0.73294,-5.50297c0.24604,-1.49291 0.75328,-3.19423 1.66776,-4.39966c1.36222,-1.7956 4.00145,-3.33551 4.00145,-3.33551c0,0 -0.98488,6.11962 -0.76758,7.83063c0.37901,2.98431 2.26429,4.9145 5.13252,5.82173c3.21737,1.01769 8.48209,-0.07381 8.48209,-0.07381c0,0 -2.38884,5.45116 -6.67283,5.61529c0,0 -3.13164,0.40312 -5.21028,-0.41577c-2.66153,-1.04852 -4.08314,-1.27991 -5.90022,-5.53994z" data-paper-data="{&quot;origPos&quot;:null,&quot;origRot&quot;:0}" fill="#27b33c" stroke="#1c802b" stroke-width="0.5" stroke-linecap="butt"/><path d="M189.19603,170.46787c0,0 1.38525,-4.37364 2.89153,-5.03284c0.80087,-0.35049 1.55244,1.56598 2.39642,1.79395c0.82785,0.22359 0.45895,-0.87985 1.28687,-1.10306c0.31975,-0.08619 1.68702,0.72633 1.68702,0.72633" data-paper-data="{&quot;origPos&quot;:null,&quot;origRot&quot;:0}" fill="none" stroke="#1c802b" stroke-width="0.5" stroke-linecap="round"/><path d="M192.01259,160.74524c0,0 -0.5411,0.96807 -0.49777,1.53877c0.05012,0.66009 1.47445,0.46092 1.65969,1.09648c0.17387,0.59647 -0.80483,2.06863 -0.80483,2.06863" data-paper-data="{&quot;origPos&quot;:null,&quot;origRot&quot;:0}" fill="none" stroke="#1c802b" stroke-width="0.5" stroke-linecap="round"/><path d="M187.05627,172.75497c-0.4009,-1.28256 0.48134,-0.64806 0.66983,-1.97856c0.07162,-0.50553 -1.69387,-1.5791 -1.63023,-2.08569c0.14652,-1.16652 0.66576,-0.86999 1.15715,-1.93805c0.52817,-1.14795 -2.86285,-2.63555 -2.39194,-3.80816c0.39543,-0.9847 1.58288,0.29481 2.595,-0.02395c0.69367,-0.21846 -0.89325,-2.81331 -0.39394,-3.34208c0.43363,-0.45921 0.84659,0.61708 1.3678,0.97386c0.21149,0.14477 0.65791,-1.2129 0.895,-1.11554c0.24371,0.10006 1.27746,0.16937 1.32202,0.42902c0.05115,0.2981 -0.73126,0.01401 -0.94891,0.22402c-0.24203,0.23353 -0.12064,0.96106 -0.12064,0.96106c0,0 -0.91622,4.744 -0.72622,7.38668c0.1621,2.25456 0.64119,3.20301 2.18324,4.85572c2.37721,2.54777 7.13877,2.32485 7.13877,2.32485c0,0 -10.22354,-0.00506 -11.11694,-2.86321z" data-paper-data="{&quot;origPos&quot;:null,&quot;origRot&quot;:0}" fill="url(#color-9)" stroke="#256d2f" stroke-width="0.5" stroke-linecap="butt"/><path d="M198.57772,172.05544c0,0 0.78745,-3.95466 -0.91071,-5.84752c-1.40922,-1.57076 -2.38732,-1.37647 -3.23143,-3.19441c-0.95342,-2.05338 0.09077,-3.24887 0.09077,-3.24887c0,0 -1.91313,-1.08779 -1.48742,-0.78173c0.62543,0.44967 0.97943,-1.29746 1.69557,-1.0137c0.49724,0.19703 0.21614,0.51596 0.97152,1.43354c0.24678,0.29977 1.18571,0.32687 1.32056,0.69095c0.26137,0.70571 -0.62197,1.34557 -0.51734,2.09085c0.14718,1.04816 3.1148,1.30855 3.54333,2.27634c0.83124,1.8773 -0.09459,0.60264 -0.61507,2.39882c-0.46597,1.60807 1.19318,-0.33065 1.72277,1.2576c0.83461,2.50317 -2.58255,3.93811 -2.58255,3.93811z" data-paper-data="{&quot;origPos&quot;:null,&quot;origRot&quot;:0}" fill="url(#color-10)" stroke="#256d2f" stroke-width="0.5" stroke-linecap="butt"/><path d="M182.92791,175.76421c-0.23345,-0.59978 -0.43995,-1.9305 -0.43995,-1.9305c0,0 1.6985,0.53935 2.02227,0.85671c0.97129,0.95203 1.57798,2.44719 1.57798,2.44719c0,0 -0.34359,-1.62777 1.72398,-1.87711c0.65812,-0.07937 1.70662,1.61046 1.70662,1.61046c0,0 1.11204,-2.80382 2.56532,-2.23853c1.76272,0.68565 2.69732,2.17678 2.69732,2.17678c0,0 0.66675,-3.01638 1.58844,-3.20551c2.08402,-0.42763 3.67945,-0.01583 3.67945,-0.01583c0,0 -2.06433,-0.1677 -1.66794,-2.12101c0.29215,-1.4397 3.65065,-1.77812 3.65065,-1.77812c0,0 -1.19116,-1.23359 -1.11291,-2.173c0.10351,-1.24232 1.63457,-0.68795 1.63457,-0.68795l-0.43305,-2.02052c0,0 2.97541,1.46071 3.58634,2.7557c0.81623,1.73015 0.60368,3.4031 0.24978,5.28312c-0.77859,4.13631 -4.27227,7.84091 -8.31806,9.00148c-2.15552,0.61833 -3.61747,0.44094 -5.85887,0.37219c0,0 -3.46778,-0.57968 -5.42068,-2.1674c-1.45152,-1.18012 -2.73098,-2.48887 -3.43133,-4.28818z" data-paper-data="{&quot;origPos&quot;:null,&quot;origRot&quot;:0}" fill="url(#color-11)" stroke="#0f2c13" stroke-width="0.5" stroke-linecap="butt"/></g></g></svg>