<svg version="1.1" xmlns="http://www.w3.org/2000/svg" xmlns:xlink="http://www.w3.org/1999/xlink" width="58.2514" height="31.7271" viewBox="0,0,58.2514,31.7271"><g transform="translate(-213.27611,-189.43948)"><g data-paper-data="{&quot;isPaintingLayer&quot;:true}" fill="none" fill-rule="nonzero" stroke="none" stroke-width="none" stroke-linecap="butt" stroke-linejoin="miter" stroke-miterlimit="10" stroke-dasharray="" stroke-dashoffset="0" font-family="none" font-weight="none" font-size="none" text-anchor="none" style="mix-blend-mode: normal"><path d="M229.65761,200.50408l19.42247,-4.77149l4.62835,18.8398l-19.42247,4.77149z" data-paper-data="{&quot;origPos&quot;:null,&quot;origRot&quot;:0}" fill="#c07a00" stroke="#000000" stroke-width="2"/><path d="M262.18816,215.81009c-6.32682,1.55429 -12.85098,-2.8651 -14.57209,-9.87099c-1.72113,-7.00589 2.01252,-13.94531 8.33935,-15.49962c6.32682,-1.55429 12.85098,2.8651 14.57209,9.87099c1.72113,7.00589 -2.01252,13.94531 -8.33935,15.49962z" data-paper-data="{&quot;origPos&quot;:null,&quot;origRot&quot;:0}" fill="#b2b2b2" stroke="#000000" stroke-width="2"/><path d="M262.5272,201.69666c-1.609,0.39528 -3.17372,-0.34406 -3.49488,-1.65139c-0.32117,-1.30731 0.72286,-2.68756 2.33183,-3.08284c1.609,-0.39528 3.17372,0.34406 3.49488,1.65139c0.32117,1.30731 -0.72286,2.68756 -2.33183,3.08284z" data-paper-data="{&quot;origPos&quot;:null,&quot;origRot&quot;:0}" fill="#ff0000" stroke="none" stroke-width="0"/><path d="M260.93837,195.8056c-1.44143,0.3541 -2.83687,-0.28274 -3.11687,-1.42248c-0.28001,-1.13972 0.6615,-2.3507 2.10292,-2.70483c1.44143,-0.3541 2.83687,0.28274 3.11687,1.42248c0.28001,1.13972 -0.6615,2.3507 -2.10292,2.70483z" data-paper-data="{&quot;origPos&quot;:null,&quot;origRot&quot;:0}" fill="#ff0000" stroke="none" stroke-width="0"/><path d="M219.12714,194.17419l14.44039,9.7075l-4.46322,6.63926l-14.44039,-9.7075z" data-paper-data="{&quot;origPos&quot;:null,&quot;origRot&quot;:0}" fill="#4c517f" stroke="#000000" stroke-width="2"/><path d="M220.34094,204.16161l15.30889,8.6832l-3.9469,6.95859l-15.30889,-8.6832z" data-paper-data="{&quot;origPos&quot;:null,&quot;origRot&quot;:0}" fill="#4c517f" stroke="#000000" stroke-width="2"/><path d="M264.37506,203.98636l-0.98957,8.34151l-19.26491,-2.28546l0.98957,-8.34151z" data-paper-data="{&quot;origPos&quot;:null,&quot;origRot&quot;:0}" fill="#c07a00" stroke="#000000" stroke-width="2"/></g></g></svg>