<svg version="1.1" xmlns="http://www.w3.org/2000/svg" xmlns:xlink="http://www.w3.org/1999/xlink" width="57.93846" height="56.58268" viewBox="0,0,57.93846,56.58268"><g transform="translate(-220.45018,-150.21908)"><g data-paper-data="{&quot;isPaintingLayer&quot;:true}" fill="none" fill-rule="nonzero" stroke="none" stroke-width="none" stroke-linecap="butt" stroke-linejoin="miter" stroke-miterlimit="10" stroke-dasharray="" stroke-dashoffset="0" font-family="none" font-weight="none" font-size="none" text-anchor="none" style="mix-blend-mode: normal"><path d="M230.61393,191.3634c4.70628,0.72373 8.2405,3.1374 7.89393,5.39112c-0.34658,2.25371 -4.44273,3.49399 -9.14898,2.77027c-4.70628,-0.72373 -7.8939,-5.39113 -7.8939,-5.39113c0,0 4.44271,-3.49401 9.14896,-2.77028z" data-paper-data="{&quot;origRot&quot;:0,&quot;origPos&quot;:null,&quot;index&quot;:null}" fill="#2bd900" stroke="#000000" stroke-width="1.5"/><path d="M255.90996,195.1778c0,0 -3.48248,4.45173 -8.22567,4.86994c-4.7432,0.41821 -8.75067,-1.08407 -8.95094,-3.35547c-0.20028,-2.2714 3.48251,-4.45175 8.22568,-4.86996c4.7432,-0.41821 8.95093,3.35548 8.95093,3.35548z" data-paper-data="{&quot;origRot&quot;:0,&quot;origPos&quot;:null,&quot;index&quot;:null}" fill="#2bd900" stroke="#000000" stroke-width="1.5"/><path d="M235.69579,195.75071c0,0 3.5327,-6.18003 6.25241,-9.68256c2.14715,-2.76515 6.21823,-6.37759 6.21823,-6.37759l3.55429,2.75989c0,0 -3.95893,2.38098 -5.79116,4.74057c-3.0346,3.90806 -6.67948,11.31956 -6.67948,11.31956z" data-paper-data="{&quot;origPos&quot;:null,&quot;origRot&quot;:0}" fill="#a9ff59" stroke="#000000" stroke-width="2"/><path d="M235.11178,151.70757c3.61402,1.95513 5.78477,4.94308 4.8485,6.67371c-0.93625,1.73065 -4.62498,1.54868 -8.239,-0.40648c-3.61402,-1.95513 -4.8485,-6.67371 -4.8485,-6.67371c0,0 4.62498,-1.54868 8.239,0.40648z" data-paper-data="{&quot;origRot&quot;:0,&quot;origPos&quot;:null}" fill="#2fe500" stroke="#000000" stroke-width="1"/><path d="M270.63896,173.15048c-1.46061,8.65955 -10.74897,14.31256 -20.74614,12.62632c-9.99716,-1.68622 -16.91741,-10.07314 -15.4568,-18.73269c1.46061,-8.65955 10.74896,-14.31255 20.74614,-12.62631c9.99716,1.68622 16.91741,10.07314 15.4568,18.73268z" data-paper-data="{&quot;origPos&quot;:null,&quot;origRot&quot;:0}" fill="#a9ff59" stroke="#000000" stroke-width="3"/><path d="M277.38864,179.50372c-1.33109,4.88903 -5.11079,8.1289 -8.44219,7.23644c-3.3314,-0.8925 -4.95295,-5.57932 -3.62186,-10.46837c1.33109,-4.88903 5.11081,-8.1289 8.44219,-7.23644c3.33139,0.89249 4.95293,5.57933 3.62186,10.46837z" data-paper-data="{&quot;origPos&quot;:null,&quot;origRot&quot;:0}" fill="#a9ff59" stroke="#000000" stroke-width="2"/><path d="M270.50413,177.54152c-0.6158,2.41949 -2.08492,4.13752 -3.28139,3.83731c-1.19645,-0.3002 -1.66716,-2.50496 -1.05135,-4.92445c0.6158,-2.41949 2.08492,-4.13752 3.28138,-3.8373c1.19645,0.3002 1.66717,2.50496 1.05136,4.92445z" data-paper-data="{&quot;origRot&quot;:0,&quot;origPos&quot;:null}" fill="#84c746" stroke="none" stroke-width="0"/><path d="M230.37732,195.47394c5.11563,-1.00495 9.65279,0.16627 10.13405,2.61602c0.48124,2.44973 -3.27567,5.25031 -8.3913,6.25527c-5.11563,1.00495 -10.13404,-2.61602 -10.13404,-2.61602c0,0 3.27566,-5.25032 8.39129,-6.25527z" data-paper-data="{&quot;origRot&quot;:0,&quot;origPos&quot;:null}" fill="#2fe500" stroke="#000000" stroke-width="2"/><path d="M256.09603,204.67454c0,0 -5.71375,2.37668 -10.46376,0.22793c-4.74999,-2.14876 -7.76648,-5.73462 -6.73749,-8.00927c1.02898,-2.27464 5.71377,-2.3767 10.46377,-0.22794c4.74999,2.14876 6.73748,8.00928 6.73748,8.00928z" data-paper-data="{&quot;origRot&quot;:0,&quot;origPos&quot;:null,&quot;index&quot;:null}" fill="#2fe500" stroke="#000000" stroke-width="2"/><path d="M259.24001,164.98841c0.26267,2.25864 -0.5965,4.27547 -1.91901,4.5047c-1.32251,0.22922 -2.60756,-1.41595 -2.87023,-3.6746c-0.26267,-2.25864 0.5965,-4.27547 1.91901,-4.5047c1.32251,-0.22922 2.60755,1.41595 2.87022,3.6746z" data-paper-data="{&quot;origPos&quot;:null,&quot;origRot&quot;:0}" fill="#000000" stroke="none" stroke-width="0"/><path d="M265.32452,165.20996c0.19787,1.70146 -0.44934,3.22074 -1.4456,3.39342c-0.99626,0.17267 -1.96429,-1.06665 -2.16215,-2.76811c-0.19787,-1.70146 0.44933,-3.22074 1.4456,-3.39342c0.99626,-0.17267 1.9643,1.06665 2.16216,2.76811z" data-paper-data="{&quot;origPos&quot;:null,&quot;origRot&quot;:0}" fill="#000000" stroke="none" stroke-width="0"/></g></g></svg>