<svg version="1.1" xmlns="http://www.w3.org/2000/svg" xmlns:xlink="http://www.w3.org/1999/xlink" width="36.40425" height="26.95548" viewBox="0,0,36.40425,26.95548"><g transform="translate(-222.3525,-165.98014)"><g data-paper-data="{&quot;isPaintingLayer&quot;:true}" fill="none" fill-rule="nonzero" stroke="none" stroke-width="none" stroke-linecap="butt" stroke-linejoin="miter" stroke-miterlimit="10" stroke-dasharray="" stroke-dashoffset="0" font-family="none" font-weight="none" font-size="none" text-anchor="none" style="mix-blend-mode: normal"><path d="M232.50503,182.83398c0,0 8.80388,-5.18016 13.38289,-7.87444c1.52634,-0.89809 3.91105,-2.30124 3.91105,-2.30124l1.65537,2.81337c0,0 -2.28408,1.34394 -3.66833,2.15843c-4.15274,2.44346 -13.62562,8.01725 -13.62562,8.01725z" data-paper-data="{&quot;index&quot;:null,&quot;origPos&quot;:null,&quot;origRot&quot;:0}" fill="#f5c300" stroke="#000000" stroke-width="1"/><path d="M240.69717,188.99717c0,0 -3.79489,2.47872 -6.80708,2.93845c-3.84226,0.58643 -8.56653,1.52725 -10.53759,-1.82265c-1.80136,-3.06148 0.70641,-6.84612 2.84764,-9.68032c2.03851,-2.69823 6.55124,-4.93966 6.55124,-4.93966z" data-paper-data="{&quot;origPos&quot;:null,&quot;origRot&quot;:0}" fill="#c5c5c5" stroke="#000000" stroke-width="2"/><path d="M256.75058,176.49367c-0.77503,0.45602 -1.93741,1.13996 -3.17745,1.8696c-0.20667,0.12161 -0.74332,-0.05167 -0.88012,-0.28417c-1.74808,-2.97093 -4.02322,-6.83762 -4.47925,-7.61264c-0.15201,-0.25834 -0.10696,-0.82821 0.07388,-0.93462c0.54252,-0.31921 1.89705,-1.11621 3.11125,-1.83065c0.31001,-0.18241 0.86085,-0.35439 1.02806,-0.07022c0.50162,0.85253 3.02091,5.13415 4.8298,8.20842c0.0608,0.10334 -0.24783,0.50228 -0.50617,0.65429z" data-paper-data="{&quot;origPos&quot;:null,&quot;origRot&quot;:0}" fill="none" stroke="#ff0000" stroke-width="3"/></g></g></svg>