<svg version="1.1" xmlns="http://www.w3.org/2000/svg" xmlns:xlink="http://www.w3.org/1999/xlink" width="79.72908" height="61.17993" viewBox="0,0,79.72908,61.17993"><defs><linearGradient x1="240.19426" y1="191.00522" x2="240.19426" y2="207.40819" gradientUnits="userSpaceOnUse" id="color-1"><stop offset="0" stop-color="#24693c"/><stop offset="1" stop-color="#4ecc71"/></linearGradient><radialGradient cx="239.44776" cy="176.07689" r="21.1235" gradientUnits="userSpaceOnUse" id="color-2"><stop offset="0" stop-color="#b3fa98"/><stop offset="1" stop-color="#05ac26"/></radialGradient><radialGradient cx="228.08548" cy="153.30892" r="14.99911" gradientUnits="userSpaceOnUse" id="color-3"><stop offset="0" stop-color="#036617"/><stop offset="1" stop-color="#037019"/></radialGradient><radialGradient cx="240.54467" cy="174.91624" r="6.67932" gradientUnits="userSpaceOnUse" id="color-4"><stop offset="0" stop-color="#adeba3"/><stop offset="1" stop-color="#32c144"/></radialGradient><linearGradient x1="235.72659" y1="183.50614" x2="235.72659" y2="201.30734" gradientUnits="userSpaceOnUse" id="color-5"><stop offset="0" stop-color="#a8d9ab"/><stop offset="1" stop-color="#50d844"/></linearGradient><radialGradient cx="238.70778" cy="176.3826" r="11.33088" gradientUnits="userSpaceOnUse" id="color-6"><stop offset="0" stop-color="#a5f48f"/><stop offset="1" stop-color="#32c144"/></radialGradient><linearGradient x1="247.9057" y1="164.79356" x2="247.9057" y2="182.40849" gradientUnits="userSpaceOnUse" id="color-7"><stop offset="0" stop-color="#baffa7"/><stop offset="1" stop-color="#82ff63"/></linearGradient><radialGradient cx="197.10465" cy="154.28667" r="10.59119" gradientUnits="userSpaceOnUse" id="color-8"><stop offset="0" stop-color="#c8d6ca"/><stop offset="1" stop-color="#05ad27"/></radialGradient><radialGradient cx="191.51614" cy="158.40445" r="9.57427" gradientUnits="userSpaceOnUse" id="color-9"><stop offset="0" stop-color="#83dd6c"/><stop offset="1" stop-color="#28bd46"/></radialGradient><radialGradient cx="202.71147" cy="158.23909" r="7.29369" gradientUnits="userSpaceOnUse" id="color-10"><stop offset="0" stop-color="#83dd6c"/><stop offset="1" stop-color="#5dc572"/></radialGradient><linearGradient x1="196.01399" y1="157.93813" x2="197.62139" y2="170.43517" gradientUnits="userSpaceOnUse" id="color-11"><stop offset="0" stop-color="#53db7a"/><stop offset="1" stop-color="#24693c"/></linearGradient></defs><g transform="translate(-184.73416,-146.71521)"><g data-paper-data="{&quot;isPaintingLayer&quot;:true}" fill="none" fill-rule="nonzero" stroke="none" stroke-width="none" stroke-linecap="none" stroke-linejoin="miter" stroke-miterlimit="10" stroke-dasharray="" stroke-dashoffset="0" font-family="none" font-weight="none" font-size="none" text-anchor="none" style="mix-blend-mode: normal"><path d="M263.96324,196.78896c0,2.05192 -4.19059,5.3969 -5.6334,5.1516c-2.07636,-0.35301 -6.88973,-4.94385 -6.88973,-4.94385c0,0 3.70627,2.47919 4.75517,4.47218c1.03032,1.95763 1.50779,5.11132 -0.53571,5.66005c-0.76891,0.20647 -2.12212,-4.07958 -2.85784,-3.76452c-0.48014,0.20562 -0.18856,0.90011 -0.37437,1.41446c-0.45559,1.26101 -0.61487,2.07082 -1.88167,2.1474c-2.39408,0.14472 -1.13789,-3.82453 -3.43166,-3.08021c-1.25812,0.40825 -1.04025,1.11468 -2.04182,2.02242c-1.96977,1.78521 -2.47308,1.52666 -5.05971,1.52666c-3.17216,0 -6.60575,-6.82012 -6.60575,-6.82012c0,0 -8.71414,5.80446 -13.36674,3.40515c-1.73996,-0.89729 0.99023,-3.69416 2.50713,-4.97045c1.28125,-1.07803 3.93361,-1.43148 3.93361,-1.43148c0,0 -4.67528,1.0473 -6.67517,0.24077c-1.68895,-0.68114 -3.38034,-2.29397 -3.38034,-4.2171c0,-1.27932 7.38655,-0.1749 7.38655,-0.1749c0,0 -3.72105,-1.47362 -2.13215,-1.93843c6.4915,-1.899 29.66648,2.37702 31.79793,2.86475c0.7105,0.16258 6.64905,-1.36996 7.09682,-0.76049c0.68642,0.93429 -2.51218,3.70814 -2.51218,3.70814c0,0 5.90097,-4.13562 5.90097,-0.51203z" data-paper-data="{&quot;origPos&quot;:null}" fill="url(#color-1)" stroke="#0f2c13" stroke-width="1" stroke-linecap="butt"/><path d="M220.1034,177.33159v-2.76629h2.48966v2.76629z" data-paper-data="{&quot;origPos&quot;:null}" fill="#1c5324" stroke="none" stroke-width="0" stroke-linecap="butt"/><path d="M261.91767,182.5478c0,10.93456 -8.99461,19.79877 -21.44564,19.79877c-12.45103,0 -19.79723,-8.86421 -19.79723,-19.79877c0,-7.64184 2.01,-10.17069 5.5737,-11.53488c2.58033,-0.98775 1.24441,-4.30197 1.97099,-6.96765c0.41142,-1.50942 1.75869,-3.1986 3.09877,-2.39126c2.06409,1.24351 4.72968,3.87391 4.72968,3.87391c0,0 0.57469,-4.51695 2.76081,-2.96485c2.45507,1.74304 4.36004,2.4601 6.20977,4.22577c0,0 16.89917,4.82442 16.89917,15.75897z" data-paper-data="{&quot;origPos&quot;:null}" fill="url(#color-2)" stroke="#000000" stroke-width="1.5" stroke-linecap="butt"/><path d="M251.59719,188.67327c0.27631,2.25701 -0.57066,4.27901 -1.89177,4.51621c-1.32109,0.23722 -2.61607,-1.40018 -2.89238,-3.6572c-0.27631,-2.25701 0.57066,-4.27901 1.89177,-4.51621c1.32109,-0.23722 2.61606,1.40018 2.89236,3.65718z" data-paper-data="{&quot;origPos&quot;:null,&quot;origRot&quot;:0}" fill="#000000" stroke="none" stroke-width="0" stroke-linecap="butt"/><path d="M257.40953,186.76596c0.1873,1.70267 -0.46932,3.21789 -1.46663,3.38437c-0.99732,0.16648 -1.95762,-1.07881 -2.14493,-2.78149c-0.1873,-1.70267 0.46931,-3.21789 1.46663,-3.38437c0.99732,-0.16648 1.95764,1.07882 2.14495,2.78148z" data-paper-data="{&quot;origPos&quot;:null,&quot;origRot&quot;:0}" fill="#000000" stroke="none" stroke-width="0" stroke-linecap="butt"/><path d="M236.49967,166.35928c0.25775,-1.14166 2.08853,-1.65886 2.09998,-1.639c0.93891,-0.19312 1.14318,0.2274 1.32616,0.67349c0.54893,1.33828 4.80687,4.47894 4.80687,4.47894c0,0 -8.74491,-1.24605 -8.233,-3.51343z" data-paper-data="{&quot;origPos&quot;:null,&quot;index&quot;:null}" fill="#287732" stroke="none" stroke-width="0" stroke-linecap="butt"/><path d="M233.34229,167.38542l-6.31183,-12.51069c0,0 -2.75936,-0.68427 -4.93007,0.2321c-5.3706,2.26716 -13.72645,7.83946 -13.72645,7.83946l1.12207,-3.34725c0,0 5.89606,-3.99793 9.90374,-5.8634c3.85497,-1.79441 9.52537,-2.06579 9.52537,-2.06579l10.394,16.7175z" data-paper-data="{&quot;origPos&quot;:null,&quot;origRot&quot;:0}" fill="url(#color-3)" stroke="#0f2c13" stroke-width="0.5" stroke-linecap="butt"/><path d="M236.59668,178.12032c0,0 -2.63452,-7.47561 0.96309,-10.59354c1.43488,0.15828 1.60014,0.89355 3.0642,0.72308c0.81057,-0.09438 -1.46494,-3.29987 -0.66246,-3.44803c1.27805,-0.23595 3.27113,0.61558 4.37005,1.30947c1.95379,1.23368 4.57485,2.6996 4.57485,2.6996c0,0 -1.08007,3.52708 -4.53169,6.51848c-2.04149,1.76929 -7.77805,2.79093 -7.77805,2.79093z" data-paper-data="{&quot;origPos&quot;:null}" fill="url(#color-4)" stroke="#256d2f" stroke-width="0.5" stroke-linecap="butt"/><path d="M249.79674,188.12896c0.12534,1.02387 -0.25887,1.94112 -0.85818,2.04873c-0.5993,0.10761 -1.18675,-0.63518 -1.3121,-1.65905c-0.12534,-1.02387 0.25887,-1.94112 0.85818,-2.04873c0.5993,-0.10761 1.18675,0.63518 1.31209,1.65904z" data-paper-data="{&quot;origPos&quot;:null,&quot;origRot&quot;:0}" fill="#ffffff" stroke="none" stroke-width="0" stroke-linecap="butt"/><path d="M255.83935,186.03017c0.06388,0.58064 -0.16005,1.09738 -0.50016,1.15416c-0.3401,0.05678 -0.6676,-0.3679 -0.73148,-0.94855c-0.06388,-0.58064 0.16005,-1.09738 0.50016,-1.15416c0.3401,-0.05678 0.6676,0.36791 0.73147,0.94855z" data-paper-data="{&quot;origPos&quot;:null,&quot;origRot&quot;:0}" fill="#ffffff" stroke="none" stroke-width="0" stroke-linecap="butt"/><path d="M229.98163,171.13283c0,0 -0.55754,-5.62866 -0.00861,-6.96693c0.18297,-0.44609 0.38725,-1.2679 1.32616,-1.07479c0.01145,-0.01986 1.84223,0.65787 2.09998,1.79953c0.51191,2.26738 -0.09945,0.78465 -0.09945,0.78465z" data-paper-data="{&quot;origPos&quot;:null}" fill="#287732" stroke="none" stroke-width="0" stroke-linecap="butt"/><path d="M241.51442,184.07571c0,0 0.93421,-5.58829 2.6088,-5.43198c3.45629,0.32262 5.34225,4.18081 5.34225,4.18081c0,0 -2.89307,-1.30844 -4.27587,-1.09085c-1.72021,0.27069 -3.67519,2.34203 -3.67519,2.34203z" data-paper-data="{&quot;origPos&quot;:null,&quot;origRot&quot;:0}" fill="#05ac26" stroke="#000000" stroke-width="0.5" stroke-linecap="butt"/><path d="M253.59425,181.83392c0,0 0.41036,-3.54152 2.10412,-4.47537c1.59787,-0.88099 4.53939,3.47214 4.53939,3.47214c0,0 -2.17156,-1.31281 -3.62007,-1.13963z" data-paper-data="{&quot;origPos&quot;:null,&quot;index&quot;:null,&quot;origRot&quot;:0}" fill="#05ac26" stroke="#000000" stroke-width="0.5" stroke-linecap="butt"/><path d="M229.86136,198.51511c-9.31009,-5.53335 -8.11532,-15.00897 -8.11532,-15.00897c0,0 1.81981,2.31614 3.48936,3.52113c2.89898,2.09231 5.27897,2.89868 8.35787,4.71589c1.07262,0.63307 3.30279,0.95609 4.27355,1.73642c1.04675,0.84142 1.19652,2.00265 1.97062,3.10012c0.56076,0.79502 1.20418,0.69842 2.0726,1.13699c2.90936,1.46929 7.84692,1.93282 7.84692,1.93282c0,0 -10.58552,4.39896 -19.89561,-1.1344z" data-paper-data="{&quot;origPos&quot;:null}" fill="url(#color-5)" stroke="#287732" stroke-width="0" stroke-linecap="butt"/><path d="M221.68842,186.74221c0,0 -3.00232,-6.46052 -1.58566,-10.2539c1.41666,-3.79338 4.8755,-1.86825 6.53757,-3.25475c1.74595,-1.45648 2.05743,-1.46541 3.58711,-3.14758c1.16773,-1.28413 0.86266,-4.12853 2.27962,-5.13093c0.98323,-0.69556 1.83235,0.20503 3.01285,0.44367c1.28933,0.26065 1.39079,4.53554 1.39079,4.53554c0,0 2.8819,-0.5568 2.45728,1.61144c-0.36576,1.86766 -1.56142,1.1313 -1.46001,3.03173c0.12208,2.28781 2.62791,-0.32607 2.40496,1.95412c-0.34608,3.53952 -0.64725,5.21747 -2.87368,7.99074c0,0 -5.58084,2.08811 -8.55028,2.43162c-3.58542,0.41476 -7.20057,-0.2117 -7.20057,-0.2117z" data-paper-data="{&quot;origPos&quot;:null}" fill="url(#color-6)" stroke="#256d2f" stroke-width="0.5" stroke-linecap="butt"/><path d="M221.47519,190.76987c-0.85149,-2.00247 0.15365,-2.61351 -0.9124,-4.4285c-0.46515,-0.79192 -0.94529,-0.29208 -1.86052,-0.3686c-1.2454,-0.10412 -2.82906,-0.10366 -3.11169,-1.32102c-0.31664,-1.36387 1.97549,-3.24471 1.97549,-3.24471c0,0 -4.35351,-0.53149 -4.2109,-3.4209c0.14789,-2.99634 4.39419,-2.88916 4.79908,-3.57543c0.68145,-1.15502 -0.11278,-2.3673 1.19734,-2.65371c0.84219,-0.18411 2.56808,2.64809 2.48809,1.78973c-0.10361,-1.11184 3.38005,0.10913 3.38005,0.10913l-2.50833,1.55977c0,0 -2.30009,0.59751 -2.12232,2.5625c0.33825,3.73885 -0.33188,3.52498 2.19577,6.30066c1.24848,1.371 3.60019,4.96991 5.42925,4.50794c0.79843,1.63012 3.231,1.5975 4.82291,2.46963c2.0677,1.13279 5.18473,2.98496 5.18473,2.98496c0,0 -2.76568,-1.01359 -3.7827,-0.94741c-2.87468,0.18705 -2.3929,0.94412 -5.09793,-0.04664c-1.16457,-0.42654 -1.434,-1.5806 -2.62783,-1.91666c-2.72252,-0.76639 -4.3866,1.64173 -5.23809,-0.36074z" data-paper-data="{&quot;origPos&quot;:null}" fill="#98ff7e" stroke="#256d2f" stroke-width="1" stroke-linecap="butt"/><path d="M238.64795,182.40848c0,0 0.69879,-1.22861 0.88574,-2.00513c0.28768,-1.195 0.51884,-2.98108 0.51884,-2.98108c0.58946,-1.17823 1.26245,-1.47244 2.09619,-2.49252c0.76334,-0.93396 1.86932,-2.58927 1.86932,-2.58927c0.92736,-1.09263 5.04951,-4.02007 5.04951,-4.02007l-3.83903,-1.88383c0,0 1.30453,-0.60588 2.0238,-0.85441c4.12021,-1.42364 9.62608,-0.98029 9.90567,1.82523c0.17044,1.71032 -3.70296,0.00959 -5.52737,2.15914c-0.76893,0.90598 0.87117,3.10038 -0.10713,4.27832c-0.79921,0.96232 -3.74494,-1.77032 -4.55655,-0.81844c-0.57155,0.67033 -0.27083,3.03995 -0.93112,3.53602c-1.04513,0.78519 -0.99758,0.09774 -2.27006,-0.20165c-0.54188,-0.12749 -0.90285,0.19885 -1.29341,0.59554c-1.61237,1.63769 -0.14749,2.54106 -1.83057,4.106c-1.17858,1.09586 -1.99382,1.34616 -1.99382,1.34616z" data-paper-data="{&quot;origPos&quot;:null}" fill="url(#color-7)" stroke="#256d2f" stroke-width="1" stroke-linecap="butt"/><path d="M249.19411,166.51028c0,0 3.43929,0.15008 2.57216,0.6756c-2.87737,1.74381 -4.39911,1.73263 -6.84216,4.04599c-1.24998,1.18363 -2.27839,3.1478 -3.44673,4.41208c-3.2021,3.46504 -0.67287,5.91538 -4.41976,8.78257c-2.8054,2.14674 -10.26184,2.90022 -10.26184,2.90022" data-paper-data="{&quot;origPos&quot;:null}" fill="none" stroke="#287732" stroke-width="0.5" stroke-linecap="round"/><path d="M249.85235,199.60706c0,0 -2.5428,-0.35141 -4.26121,-0.82527c-1.84647,-0.50917 -3.08594,-1.02184 -4.81061,-1.85506c-2.99301,-1.44598 -0.75161,-2.17309 -3.65237,-3.79622c-4.11025,-2.2999 -9.16571,-4.12758 -12.74153,-7.19305c-2.63845,-2.26189 -4.88527,-6.40882 -3.2578,-9.43008c0.67873,-1.26003 1.56623,-1.41244 1.56623,-1.41244" data-paper-data="{&quot;origPos&quot;:null}" fill="none" stroke="#287732" stroke-width="0.5" stroke-linecap="round"/><path d="M209.35219,160.2381c-0.058,6.03139 -5.47735,10.86915 -12.10446,10.80542c-6.62711,-0.06374 -11.95242,-5.00481 -11.89441,-11.03621c0.058,-6.03139 24.05689,-5.80062 23.99888,0.23079z" data-paper-data="{&quot;origPos&quot;:null,&quot;origRot&quot;:0}" fill="#2e8149" stroke="#0f2c13" stroke-width="0.5" stroke-linecap="butt"/><path d="M186.42897,160.69452c-0.74621,-5.80155 3.3197,-11.36035 9.12126,-12.10656c5.80155,-0.74621 11.14182,3.60273 11.88803,9.4043c0.74621,5.80155 -3.3197,11.36035 -9.12126,12.10656c-5.80155,0.74621 -11.14182,-3.60273 -11.88803,-9.4043z" data-paper-data="{&quot;origPos&quot;:null,&quot;origRot&quot;:0}" fill="url(#color-8)" stroke="#000000" stroke-width="1" stroke-linecap="butt"/><path d="M205.02481,165.05418c-1.61103,2.26662 -2.25091,2.1418 -3.69371,2.29967c-2.75804,0.3018 -7.12684,-1.26297 -7.12684,-1.26297c0,0 4.19935,-1.42276 6.062,-3.49015c1.66052,-1.84305 2.19488,-4.00288 1.21797,-6.28318c-0.64464,-1.50471 -1.87685,-2.40315 -2.1161,-4.02256c-0.13455,-0.91072 0.95076,-2.41556 0.95076,-2.41556c0,0 0.65094,0.65789 2.36949,1.3657c1.1537,0.47516 1.86077,1.94476 2.65922,2.90353c1.08488,1.30267 1.14301,2.59135 1.35927,4.27277c0.48722,3.78803 -0.1762,4.51403 -1.68209,6.63272z" data-paper-data="{&quot;origPos&quot;:null,&quot;index&quot;:null,&quot;origRot&quot;:0}" fill="#27b33c" stroke="#1c802b" stroke-width="0.5" stroke-linecap="butt"/><path d="M187.13902,160.7094c-0.26226,-2.03895 -0.08268,-3.63384 0.79032,-5.49502c0.64253,-1.36983 1.59309,-2.86927 2.80077,-3.78076c1.79898,-1.35778 4.75739,-2.12238 4.75739,-2.12238c0,0 -2.61106,5.62158 -2.86697,7.32725c-0.44634,2.975 0.84334,5.3449 3.35701,6.99756c2.81966,1.85383 8.18285,2.23433 8.18285,2.23433c0,0 -3.78048,4.59668 -7.94782,3.5903c0,0 -3.12332,-0.46321 -4.90115,-1.81624c-2.27637,-1.73243 -3.58158,-2.34147 -4.17241,-6.93502z" data-paper-data="{&quot;origPos&quot;:null,&quot;origRot&quot;:0}" fill="#27b33c" stroke="#1c802b" stroke-width="0.5" stroke-linecap="butt"/><path d="M192.48698,158.02465c0,0 2.52182,-3.83252 4.15054,-4.05751c0.86599,-0.11963 1.06838,1.929 1.81864,2.37775c0.73589,0.44017 0.68081,-0.722 1.53823,-0.71179c0.33113,0.00394 1.42612,1.1575 1.42612,1.1575" data-paper-data="{&quot;origPos&quot;:null,&quot;origRot&quot;:0}" fill="none" stroke="#1c802b" stroke-width="0.5" stroke-linecap="round"/><path d="M197.84002,149.43352c0,0 -0.78383,0.78456 -0.89726,1.34557c-0.13118,0.64887 1.29366,0.84431 1.29922,1.50628c0.00521,0.62128 -1.33676,1.77201 -1.33676,1.77201" data-paper-data="{&quot;origPos&quot;:null,&quot;origRot&quot;:0}" fill="none" stroke="#1c802b" stroke-width="0.5" stroke-linecap="round"/><path d="M189.80615,159.64408c-0.03723,-1.34324 0.63936,-0.49284 1.18237,-1.72201c0.20632,-0.46703 -1.20092,-1.98003 -1.00199,-2.45027c0.45806,-1.0828 0.87715,-0.65629 1.64034,-1.5506c0.82028,-0.96119 -2.03875,-3.31443 -1.26687,-4.31491c0.64819,-0.84016 1.44316,0.71393 2.50383,0.68226c0.72693,-0.02171 -0.09498,-2.95018 0.52924,-3.32334c0.54213,-0.32407 0.64701,0.82396 1.05163,1.30894c0.16418,0.19681 0.96278,-0.98842 1.16449,-0.8303c0.20734,0.16253 1.18333,0.51019 1.15564,0.7722c-0.0318,0.30079 -0.70753,-0.18526 -0.97409,-0.04231c-0.2964,0.15896 -0.37729,0.89209 -0.37729,0.89209c0,0 -2.17111,4.31641 -2.70652,6.91125c-0.45676,2.21375 -0.25349,3.25669 0.78132,5.26631c1.59525,3.09797 6.23815,4.1776 6.23815,4.1776c0,0 -9.8373,-2.78353 -9.92026,-5.7769z" data-paper-data="{&quot;origPos&quot;:null,&quot;origRot&quot;:0}" fill="url(#color-9)" stroke="#256d2f" stroke-width="0.5" stroke-linecap="butt"/><path d="M201.084,162.1023c0,0 1.83267,-3.59178 0.71289,-5.87492c-0.92925,-1.89464 -1.92335,-1.97352 -2.24157,-3.95244c-0.35943,-2.23521 0.97037,-3.1019 0.97037,-3.1019c0,0 -1.54546,-1.56681 -1.21897,-1.15657c0.47967,0.60273 1.29521,-0.9824 1.90727,-0.51469c0.42495,0.32475 0.06777,0.55528 0.54532,1.64363c0.15601,0.35555 1.05224,0.63683 1.08305,1.02387c0.05973,0.75019 -0.96428,1.12586 -1.06612,1.87151c-0.14325,1.0487 2.6419,2.10588 2.79125,3.15371c0.28972,2.03256 -0.25481,0.55425 -1.24389,2.14134c-0.88548,1.42087 1.23814,0.00609 1.31609,1.67849c0.12285,2.63578 -3.55568,3.08795 -3.55568,3.08795z" data-paper-data="{&quot;origPos&quot;:null,&quot;origRot&quot;:0}" fill="url(#color-10)" stroke="#256d2f" stroke-width="0.5" stroke-linecap="butt"/><path d="M185.0153,161.41798c-0.06165,-0.64064 0.10132,-1.97739 0.10132,-1.97739c0,0 1.48797,0.9807 1.71329,1.37409c0.67597,1.1802 0.85347,2.78396 0.85347,2.78396c0,0 0.11176,-1.65988 2.16927,-1.3379c0.65492,0.10249 1.20466,2.01369 1.20466,2.01369c0,0 1.83223,-2.39604 3.07716,-1.45703c1.51,1.13893 2.00416,2.82794 2.00416,2.82794c0,0 1.46148,-2.72163 2.39988,-2.65312c2.1218,0.15489 3.54525,0.98482 3.54525,0.98482c0,0 -1.94103,-0.72245 -1.02868,-2.49451c0.67245,-1.3061 3.99649,-0.71898 3.99649,-0.71898c0,0 -0.81105,-1.51091 -0.48042,-2.39366c0.43726,-1.1674 1.76001,-0.21778 1.76001,-0.21778l0.13239,-2.06215c0,0 2.46639,2.21441 2.70236,3.62669c0.31526,1.88687 -0.34399,3.43907 -1.19552,5.15214c-1.8735,3.769 -6.24254,6.38457 -10.45147,6.40187c-2.24243,0.0092 -3.60113,-0.55886 -5.73946,-1.23421c0,0 -3.17969,-1.50035 -4.62754,-3.5591c-1.07614,-1.53021 -1.95173,-3.13744 -2.13667,-5.05938z" data-paper-data="{&quot;origPos&quot;:null,&quot;origRot&quot;:0}" fill="url(#color-11)" stroke="#0f2c13" stroke-width="0.5" stroke-linecap="butt"/></g></g></svg>