<svg version="1.1" xmlns="http://www.w3.org/2000/svg" xmlns:xlink="http://www.w3.org/1999/xlink" width="36.625" height="59.93594"><g transform="translate(-217.4,-159.22656)"><g data-paper-data="{&quot;isPaintingLayer&quot;:true}" fill="none" fill-rule="nonzero" stroke="none" stroke-width="none" stroke-linecap="butt" stroke-linejoin="miter" stroke-miterlimit="10" stroke-dasharray="" stroke-dashoffset="0" font-family="none" font-weight="none" font-size="none" text-anchor="none" style="mix-blend-mode: normal"><path d="M218.4,190.3625v-8.4h19.4v8.4z" data-paper-data="{&quot;origPos&quot;:null}" fill="#c07a00" stroke="#000000" stroke-width="2"/><path d="M230.4,199.9625v-20h19.4v20z" data-paper-data="{&quot;origPos&quot;:null}" fill="#c07a00" stroke="#000000" stroke-width="2"/><path d="M253.025,172.02291c0,6.51494 -5.84828,11.79635 -13.0625,11.79635c-7.21422,0 -13.0625,-5.28141 -13.0625,-11.79635c0,-6.51494 5.84828,-11.79635 13.0625,-11.79635c7.21422,0 13.0625,5.28141 13.0625,11.79635z" data-paper-data="{&quot;origPos&quot;:null}" fill="#b2b2b2" stroke="#000000" stroke-width="2"/><path d="M239.4,168.32656c0,1.65685 -1.09131,3 -2.4375,3c-1.34619,0 -2.4375,-1.34315 -2.4375,-3c0,-1.65685 1.09131,-3 2.4375,-3c1.34619,0 2.4375,1.34315 2.4375,3z" data-paper-data="{&quot;origPos&quot;:null}" fill="#ff0000" stroke="none" stroke-width="0"/><path d="M233.3,168.46406c0,1.48427 -0.95139,2.6875 -2.125,2.6875c-1.17361,0 -2.125,-1.20323 -2.125,-2.6875c0,-1.48427 0.95139,-2.6875 2.125,-2.6875c1.17361,0 2.125,1.20323 2.125,2.6875z" data-paper-data="{&quot;origPos&quot;:null}" fill="#ff0000" stroke="none" stroke-width="0"/><path d="M231,218.1625v-17.4h8v17.4z" data-paper-data="{&quot;origPos&quot;:null}" fill="#4c517f" stroke="#000000" stroke-width="2"/><path d="M241,218.1625v-17.6h8v17.6z" data-paper-data="{&quot;origPos&quot;:null}" fill="#4c517f" stroke="#000000" stroke-width="2"/><path d="M223.2,190.7625v-8.4h19.4v8.4z" data-paper-data="{&quot;origPos&quot;:null}" fill="#c07a00" stroke="#000000" stroke-width="2"/></g></g></svg>