<svg version="1.1" xmlns="http://www.w3.org/2000/svg" xmlns:xlink="http://www.w3.org/1999/xlink" width="79.47381" height="66.60486" viewBox="0,0,79.47381,66.60486"><defs><linearGradient x1="240.19427" y1="191.00522" x2="240.19427" y2="207.40819" gradientUnits="userSpaceOnUse" id="color-1"><stop offset="0" stop-color="#24693c"/><stop offset="1" stop-color="#4ecc71"/></linearGradient><radialGradient cx="238.55707" cy="173.41887" r="21.1235" gradientUnits="userSpaceOnUse" id="color-2"><stop offset="0" stop-color="#b3fa98"/><stop offset="1" stop-color="#05ac26"/></radialGradient><radialGradient cx="230.3689" cy="150.70975" r="14.99911" gradientUnits="userSpaceOnUse" id="color-3"><stop offset="0" stop-color="#036617"/><stop offset="1" stop-color="#037019"/></radialGradient><radialGradient cx="239.64359" cy="172.24849" r="6.67932" gradientUnits="userSpaceOnUse" id="color-4"><stop offset="0" stop-color="#adeba3"/><stop offset="1" stop-color="#32c144"/></radialGradient><linearGradient x1="234.90226" y1="180.88099" x2="235.06092" y2="198.68148" gradientUnits="userSpaceOnUse" id="color-5"><stop offset="0" stop-color="#a8d9ab"/><stop offset="1" stop-color="#50d844"/></linearGradient><radialGradient cx="237.81984" cy="173.73116" r="11.33088" gradientUnits="userSpaceOnUse" id="color-6"><stop offset="0" stop-color="#a5f48f"/><stop offset="1" stop-color="#32c144"/></radialGradient><linearGradient x1="246.9141" y1="162.0606" x2="247.0711" y2="179.67483" gradientUnits="userSpaceOnUse" id="color-7"><stop offset="0" stop-color="#baffa7"/><stop offset="1" stop-color="#82ff63"/></linearGradient><radialGradient cx="199.41037" cy="149.18072" r="10.59119" gradientUnits="userSpaceOnUse" id="color-8"><stop offset="0" stop-color="#c8d6ca"/><stop offset="1" stop-color="#05ad27"/></radialGradient><radialGradient cx="193.50737" cy="152.83342" r="9.57427" gradientUnits="userSpaceOnUse" id="color-9"><stop offset="0" stop-color="#83dd6c"/><stop offset="1" stop-color="#28bd46"/></radialGradient><radialGradient cx="204.67946" cy="153.57331" r="7.29369" gradientUnits="userSpaceOnUse" id="color-10"><stop offset="0" stop-color="#83dd6c"/><stop offset="1" stop-color="#5dc572"/></radialGradient><linearGradient x1="198.02821" y1="152.7321" x2="198.62045" y2="165.31817" gradientUnits="userSpaceOnUse" id="color-11"><stop offset="0" stop-color="#53db7a"/><stop offset="1" stop-color="#24693c"/></linearGradient></defs><g transform="translate(-186.53066,-141.29029)"><g data-paper-data="{&quot;isPaintingLayer&quot;:true}" fill="none" fill-rule="nonzero" stroke="none" stroke-width="none" stroke-linecap="none" stroke-linejoin="miter" stroke-miterlimit="10" stroke-dasharray="" stroke-dashoffset="0" font-family="none" font-weight="none" font-size="none" text-anchor="none" style="mix-blend-mode: normal"><path d="M265.50447,196.78896c0,2.05192 -4.46233,5.3969 -5.99869,5.1516c-2.211,-0.35301 -7.33647,-4.94385 -7.33647,-4.94385c0,0 3.94658,2.47919 5.06352,4.47218c1.09713,1.95763 1.60555,5.11132 -0.57043,5.66005c-0.81875,0.20647 -2.25973,-4.07958 -3.04313,-3.76452c-0.51129,0.20562 -0.20078,0.90011 -0.39866,1.41446c-0.48513,1.26101 -0.65474,2.07082 -2.00368,2.1474c-2.54931,0.14472 -1.21167,-3.82453 -3.65419,-3.08021c-1.3397,0.40825 -1.1077,1.11468 -2.17422,2.02242c-2.09749,1.78521 -2.63345,1.52666 -5.3878,1.52666c-3.37785,0 -7.03408,-6.82012 -7.03408,-6.82012c0,0 -9.27918,5.80446 -14.23348,3.40515c-1.85279,-0.89729 1.05445,-3.69416 2.6697,-4.97045c1.36434,-1.07803 4.18869,-1.43148 4.18869,-1.43148c0,0 -4.97845,1.0473 -7.10801,0.24077c-1.79846,-0.68114 -3.59951,-2.29397 -3.59951,-4.2171c0,-1.27932 7.86551,-0.1749 7.86551,-0.1749c0,0 -3.96234,-1.47362 -2.2704,-1.93843c6.91241,-1.899 31.59011,2.37702 33.85978,2.86475c0.75656,0.16258 7.08018,-1.36996 7.557,-0.76049c0.73094,0.93429 -2.67507,3.70814 -2.67507,3.70814c0,0 6.28359,-4.13562 6.28359,-0.51203z" data-paper-data="{&quot;origPos&quot;:null}" fill="url(#color-1)" stroke="#0f2c13" stroke-width="1" stroke-linecap="butt"/><path d="M219.22466,174.84593l-0.02466,-2.76618l2.48956,-0.02219l0.02466,2.76618z" data-paper-data="{&quot;origPos&quot;:null,&quot;origRot&quot;:0}" fill="#1c5324" stroke="none" stroke-width="0" stroke-linecap="butt"/><path d="M261.08376,179.68925c0.09746,10.93413 -8.81779,19.87815 -21.26833,19.98912c-12.45054,0.11097 -19.87545,-8.68741 -19.97291,-19.62153c-0.06811,-7.64154 1.91927,-10.1882 5.47067,-11.5841c2.57142,-1.01071 1.20602,-4.31289 1.90881,-6.98494c0.39795,-1.51303 1.73011,-3.21415 3.07733,-2.41878c2.07509,1.22506 4.76402,3.8316 4.76402,3.8316c0,0 0.53441,-4.52189 2.73428,-2.98934c2.47051,1.72109 4.38179,2.42114 6.24719,4.17026c0,0 16.9415,4.67361 17.03896,15.60772z" data-paper-data="{&quot;origPos&quot;:null,&quot;origRot&quot;:0}" fill="url(#color-2)" stroke="#000000" stroke-width="1.5" stroke-linecap="butt"/><path d="M250.81828,185.90646c0.29642,2.25446 -0.5325,4.28393 -1.85144,4.53289c-1.31892,0.24899 -2.62845,-1.37681 -2.92486,-3.63128c-0.29642,-2.25446 0.5325,-4.28393 1.85144,-4.53289c1.31892,-0.24899 2.62844,1.37681 2.92484,3.63126z" data-paper-data="{&quot;origPos&quot;:null,&quot;origRot&quot;:0}" fill="#000000" stroke="none" stroke-width="0" stroke-linecap="butt"/><path d="M256.61339,183.94743c0.20247,1.70093 -0.44062,3.22195 -1.43641,3.39731c-0.9958,0.17536 -1.96716,-1.06132 -2.16964,-2.76226c-0.20247,-1.70093 0.44061,-3.22195 1.43641,-3.39731c0.9958,-0.17536 1.96718,1.06133 2.16966,2.76225z" data-paper-data="{&quot;origPos&quot;:null,&quot;origRot&quot;:0}" fill="#000000" stroke="none" stroke-width="0" stroke-linecap="butt"/><path d="M235.52248,163.72792c0.24756,-1.14391 2.07366,-1.67741 2.08529,-1.65765c0.93715,-0.20148 1.14516,0.2172 1.33211,0.66164c0.56084,1.33333 4.8466,4.43592 4.8466,4.43592c0,0 -8.75567,-1.16806 -8.26399,-3.43991z" data-paper-data="{&quot;origPos&quot;:null,&quot;index&quot;:null,&quot;origRot&quot;:0}" fill="#287732" stroke="none" stroke-width="0" stroke-linecap="butt"/><path d="M234.47097,165.16503l-5.28018,-12.97984c0,0 -2.69504,-0.90502 -4.9327,-0.16707c-5.53624,1.82574 -14.31507,6.70457 -14.31507,6.70457l1.38889,-3.24562c0,0 6.19986,-3.50839 10.34518,-5.04389c3.98737,-1.47701 9.66116,-1.28929 9.66116,-1.28929l9.00905,17.50277z" data-paper-data="{&quot;origPos&quot;:null,&quot;origRot&quot;:0}" fill="url(#color-3)" stroke="#0f2c13" stroke-width="0.5" stroke-linecap="butt"/><path d="M235.72431,175.48763c0,0 -2.70104,-7.45183 0.86863,-10.6017c1.43623,0.14548 1.60804,0.87925 3.07052,0.69574c0.8097,-0.1016 -1.49429,-3.28668 -0.69317,-3.44199c1.2759,-0.24733 3.27649,0.5864 4.38155,1.27047c1.96471,1.21622 4.59873,2.65872 4.59873,2.65872c0,0 -1.04859,3.53657 -4.47341,6.55861c-2.02564,1.78742 -7.75287,2.86014 -7.75287,2.86014z" data-paper-data="{&quot;origPos&quot;:null,&quot;origRot&quot;:0}" fill="url(#color-4)" stroke="#256d2f" stroke-width="0.5" stroke-linecap="butt"/><path d="M249.01305,185.37822c0.13446,1.02271 -0.24156,1.94335 -0.83989,2.0563c-0.59832,0.11295 -1.19236,-0.62458 -1.32683,-1.64729c-0.13446,-1.02271 0.24156,-1.94335 0.83989,-2.0563c0.59832,-0.11295 1.19236,0.62458 1.32682,1.64728z" data-paper-data="{&quot;origPos&quot;:null,&quot;origRot&quot;:0}" fill="#ffffff" stroke="none" stroke-width="0" stroke-linecap="butt"/><path d="M255.03672,183.22566c0.06905,0.58005 -0.15026,1.09876 -0.48985,1.15857c-0.33958,0.05981 -0.67085,-0.36194 -0.73991,-0.94199c-0.06905,-0.58005 0.15026,-1.09876 0.48985,-1.15857c0.33958,-0.05981 0.67085,0.36195 0.7399,0.94199z" data-paper-data="{&quot;origPos&quot;:null,&quot;origRot&quot;:0}" fill="#ffffff" stroke="none" stroke-width="0" stroke-linecap="butt"/><path d="M229.04725,168.55938c0,0 -0.60769,-5.62347 -0.0707,-6.96658c0.17899,-0.4477 0.37593,-1.2713 1.31653,-1.08657c0.01127,-0.01996 1.84802,0.64142 2.11594,1.78074c0.5321,2.26273 -0.09245,0.78551 -0.09245,0.78551z" data-paper-data="{&quot;origPos&quot;:null,&quot;origRot&quot;:0}" fill="#287732" stroke="none" stroke-width="0" stroke-linecap="butt"/><path d="M240.69494,181.39895c0,0 0.88437,-5.59639 2.56028,-5.45502c3.45903,0.2918 5.3793,4.13303 5.3793,4.13303c0,0 -2.90462,-1.2826 -4.28542,-1.0527c-1.71773,0.28601 -3.65417,2.37469 -3.65417,2.37469z" data-paper-data="{&quot;origPos&quot;:null,&quot;origRot&quot;:0}" fill="#05ac26" stroke="#000000" stroke-width="0.5" stroke-linecap="butt"/><path d="M252.7543,179.04959c0,0 0.37878,-3.54504 2.06415,-4.49395c1.58995,-0.8952 4.57016,3.43154 4.57016,3.43154c0,0 -2.18317,-1.2934 -3.63008,-1.10732z" data-paper-data="{&quot;origPos&quot;:null,&quot;index&quot;:null,&quot;origRot&quot;:0}" fill="#05ac26" stroke="#000000" stroke-width="0.5" stroke-linecap="butt"/><path d="M229.17103,195.94164c-9.35904,-5.45015 -8.24877,-14.93604 -8.24877,-14.93604c0,0 1.84038,2.29983 3.5206,3.48989c2.91751,2.06639 5.3046,2.85151 8.39957,4.64121c1.07822,0.62348 3.31118,0.92661 4.28886,1.69826c1.05421,0.83206 1.21432,1.99191 1.99817,3.08243c0.56782,0.78999 1.21036,0.68766 2.08265,1.11847c2.92234,1.4433 7.86384,1.86281 7.86384,1.86281c0,0 -10.54589,4.49313 -19.90493,-0.95703z" data-paper-data="{&quot;origPos&quot;:null,&quot;origRot&quot;:0}" fill="url(#color-5)" stroke="#287732" stroke-width="0" stroke-linecap="butt"/><path d="M220.89349,184.24205c0,0 -3.05978,-6.4335 -1.67699,-10.23936c1.38279,-3.80586 4.85865,-1.91163 6.5083,-3.31289c1.7329,-1.47198 2.04429,-1.48369 3.55891,-3.17943c1.15624,-1.29449 0.82583,-4.13605 2.2338,-5.15104c0.97699,-0.7043 1.8341,0.18869 3.01668,0.4168c1.2916,0.24915 1.43116,4.52296 1.43116,4.52296c0,0 2.87682,-0.58246 2.47154,1.58947c-0.3491,1.87085 -1.55127,1.14517 -1.43293,3.04462c0.14247,2.28663 2.6249,-0.34948 2.42228,1.93261c-0.31452,3.54246 -0.60072,5.22303 -2.80235,8.01604c0,0 -5.56201,2.13777 -8.52827,2.50773c-3.58158,0.4467 -7.20217,-0.14751 -7.20217,-0.14751z" data-paper-data="{&quot;origPos&quot;:null,&quot;origRot&quot;:0}" fill="url(#color-6)" stroke="#256d2f" stroke-width="0.5" stroke-linecap="butt"/><path d="M220.71617,188.27145c-0.8693,-1.9948 0.13035,-2.61478 -0.95183,-4.42019c-0.47219,-0.78774 -0.94786,-0.28364 -1.86373,-0.352c-1.24628,-0.09302 -2.82987,-0.07844 -3.12334,-1.29323c-0.32878,-1.36099 1.94649,-3.26219 1.94649,-3.26219c0,0 -4.35807,-0.49267 -4.24122,-3.38323c0.12118,-2.99754 4.36826,-2.92821 4.76702,-3.61806c0.67113,-1.16105 -0.13387,-2.3662 1.17364,-2.66428c0.84052,-0.19161 2.59158,2.6251 2.50394,1.76748c-0.11352,-1.11087 3.38089,0.079 3.38089,0.079l-2.49433,1.58206c0,0 -2.29467,0.61799 -2.0994,2.58131c0.37156,3.73569 -0.30045,3.5278 2.25184,6.28084c1.26065,1.35982 3.64434,4.93762 5.46921,4.45937c0.81293,1.62294 3.24511,1.56864 4.84473,2.42655c2.07771,1.11432 5.21113,2.93863 5.21113,2.93863c0,0 -2.7746,-0.9889 -3.79099,-0.91366c-2.8729,0.21266 -2.38439,0.96541 -5.09814,-0.0012c-1.16833,-0.41614 -1.44803,-1.56776 -2.64481,-1.89316c-2.72924,-0.74209 -4.37179,1.68076 -5.2411,-0.31404z" data-paper-data="{&quot;origPos&quot;:null,&quot;origRot&quot;:0}" fill="#98ff7e" stroke="#256d2f" stroke-width="1" stroke-linecap="butt"/><path d="M237.81372,179.75734c0,0 0.68781,-1.23479 0.86783,-2.01294c0.27702,-1.19752 0.49225,-2.98559 0.49225,-2.98559c0.57894,-1.18344 1.24928,-1.48363 2.07389,-2.5111c0.75499,-0.94073 1.84617,-2.60583 1.84617,-2.60583c0.91758,-1.10085 5.01348,-4.06492 5.01348,-4.06492l-3.85567,-1.84954c0,0 1.29908,-0.61748 2.0161,-0.87241c4.10736,-1.46031 9.61696,-1.06605 9.92154,1.73687c0.18568,1.70873 -3.70273,0.04259 -5.50791,2.20832c-0.76082,0.9128 0.89877,3.09249 -0.06899,4.2791c-0.7906,0.9694 -3.76057,-1.73687 -4.56366,-0.7778c-0.56555,0.6754 -0.24372,3.04224 -0.89957,3.54418c-1.03809,0.79447 -0.99667,0.10663 -2.27177,-0.18141c-0.54299,-0.12266 -0.90104,0.20689 -1.28805,0.60704c-1.59771,1.652 -0.12484,2.54227 -1.7939,4.12215c-1.16877,1.10632 -1.98174,1.36388 -1.98174,1.36388z" data-paper-data="{&quot;origPos&quot;:null,&quot;origRot&quot;:0}" fill="url(#color-7)" stroke="#256d2f" stroke-width="1" stroke-linecap="butt"/><path d="M248.21776,163.76577c0,0 3.44049,0.11942 2.57808,0.65265c-2.86171,1.76939 -4.38349,1.77177 -6.80583,4.10681c-1.23938,1.19472 -2.25024,3.16798 -3.40727,4.44262c-3.17109,3.49344 -0.62012,5.92114 -4.34131,8.82161c-2.78616,2.17166 -10.23558,2.99157 -10.23558,2.99157" data-paper-data="{&quot;origPos&quot;:null,&quot;origRot&quot;:0}" fill="none" stroke="#287732" stroke-width="0.5" stroke-linecap="round"/><path d="M249.17096,196.85537c0,0 -2.54583,-0.32873 -4.2684,-0.78726c-1.85093,-0.49269 -3.09492,-0.9943 -4.82695,-1.81211c-3.00578,-1.41925 -0.77095,-2.1663 -3.68606,-3.76352c-4.13059,-2.26317 -9.20213,-4.04572 -12.80513,-7.0792c-2.6585,-2.23828 -4.9422,-6.36502 -3.34172,-9.40067c0.66747,-1.26603 1.55358,-1.42634 1.55358,-1.42634" data-paper-data="{&quot;origPos&quot;:null,&quot;origRot&quot;:0}" fill="none" stroke="#287732" stroke-width="0.5" stroke-linecap="round"/><path d="M211.13691,156.10243c-0.54522,6.00699 -6.33779,10.39097 -12.93807,9.79191c-6.60028,-0.59907 -11.50889,-5.95433 -10.96368,-11.96131c0.54522,-6.00699 24.44696,-3.83758 23.90175,2.1694z" data-paper-data="{&quot;origPos&quot;:null,&quot;origRot&quot;:0}" fill="#2e8149" stroke="#0f2c13" stroke-width="0.5" stroke-linecap="butt"/><path d="M188.25179,154.7049c-0.27494,-5.84287 4.22688,-11.05492 10.06978,-11.32986c5.84287,-0.27494 10.81425,4.49132 11.08919,10.33423c0.27494,5.84287 -4.22688,11.05492 -10.06978,11.32986c-5.84287,0.27494 -10.81425,-4.49132 -11.08919,-10.33423z" data-paper-data="{&quot;origPos&quot;:null,&quot;origRot&quot;:0}" fill="url(#color-8)" stroke="#000000" stroke-width="1" stroke-linecap="butt"/><path d="M206.4345,160.55305c-1.78894,2.12902 -2.41663,1.95289 -3.86747,1.99366c-2.7734,0.07793 -7.00147,-1.83476 -7.00147,-1.83476c0,0 4.30059,-1.07875 6.32422,-2.98886c1.80403,-1.70283 2.51118,-3.81243 1.72174,-6.16421c-0.52094,-1.55188 -1.67651,-2.54695 -1.78411,-4.1804c-0.06051,-0.91861 1.14286,-2.33082 1.14286,-2.33082c0,0 0.59564,0.70835 2.25138,1.55271c1.11152,0.56684 1.69752,2.08878 2.41589,3.10893c0.97606,1.38607 0.92986,2.67525 1.00955,4.36864c0.17952,3.81501 -0.54041,4.48503 -2.2126,6.4751z" data-paper-data="{&quot;origPos&quot;:null,&quot;index&quot;:null,&quot;origRot&quot;:0}" fill="#27b33c" stroke="#1c802b" stroke-width="0.5" stroke-linecap="butt"/><path d="M188.9583,154.77712c-0.09663,-2.05348 0.21125,-3.62864 1.23179,-5.41319c0.75113,-1.31343 1.81975,-2.73114 3.09714,-3.54206c1.90282,-1.20796 4.91334,-1.731 4.91334,-1.731c0,0 -3.05681,5.39219 -3.44972,7.0716c-0.6853,2.92919 0.40866,5.39558 2.78056,7.24595c2.66063,2.07563 7.97553,2.88828 7.97553,2.88828c0,0 -4.13958,4.27615 -8.21196,2.93629c0,0 -3.07566,-0.7141 -4.73834,-2.20636c-2.12892,-1.91072 -3.38065,-2.62325 -3.59834,-7.24952z" data-paper-data="{&quot;origPos&quot;:null,&quot;origRot&quot;:0}" fill="#27b33c" stroke="#1c802b" stroke-width="0.5" stroke-linecap="butt"/><path d="M194.50573,152.53332c0,0 2.82328,-3.61619 4.46486,-3.70882c0.87282,-0.04925 0.909,2.00902 1.62054,2.51694c0.69792,0.49821 0.73693,-0.66461 1.59072,-0.58515c0.32974,0.0307 1.32791,1.26896 1.32791,1.26896" data-paper-data="{&quot;origPos&quot;:null,&quot;origRot&quot;:0}" fill="none" stroke="#1c802b" stroke-width="0.5" stroke-linecap="round"/><path d="M200.53552,144.40287c0,0 -0.84467,0.71866 -1.00306,1.26866c-0.18318,0.63614 1.2212,0.9461 1.17324,1.60635c-0.04501,0.61966 -1.47559,1.6582 -1.47559,1.6582" data-paper-data="{&quot;origPos&quot;:null,&quot;origRot&quot;:0}" fill="none" stroke="#1c802b" stroke-width="0.5" stroke-linecap="round"/><path d="M191.7028,153.93081c0.07145,-1.34186 0.6771,-0.43956 1.31766,-1.62084c0.24338,-0.44883 -1.03699,-2.07061 -0.80071,-2.52322c0.54406,-1.04223 0.92732,-0.58326 1.76028,-1.41297c0.89527,-0.89177 -1.76424,-3.46834 -0.91403,-4.40317c0.71396,-0.78503 1.38075,0.82822 2.44051,0.88236c0.72631,0.0371 0.14373,-2.94821 0.79607,-3.2697c0.56654,-0.2792 0.57831,0.87355 0.94241,1.38965c0.14775,0.20943 1.03951,-0.90738 1.22778,-0.73347c0.19353,0.17875 1.13824,0.60416 1.08946,0.86306c-0.056,0.29723 -0.69025,-0.24183 -0.96748,-0.12089c-0.30828,0.13449 -0.44815,0.85868 -0.44815,0.85868c0,0 -2.51282,4.12683 -3.25617,6.66992c-0.63417,2.16961 -0.51585,3.22556 0.35319,5.31222c1.33969,3.21675 5.88016,4.66804 5.88016,4.66804c0,0 -9.58019,-3.5694 -9.42098,-6.55968z" data-paper-data="{&quot;origPos&quot;:null,&quot;origRot&quot;:0}" fill="url(#color-9)" stroke="#256d2f" stroke-width="0.5" stroke-linecap="butt"/><path d="M202.74513,157.29237c0,0 2.11693,-3.43193 1.18531,-5.7981c-0.7731,-1.96354 -1.75758,-2.12249 -1.91484,-4.12065c-0.17763,-2.25695 1.21786,-3.01333 1.21786,-3.01333c0,0 -1.4138,-1.68658 -1.12152,-1.2513c0.4294,0.63952 1.37036,-0.87453 1.94262,-0.35888c0.39733,0.35803 0.02268,0.55894 0.41072,1.68232c0.12677,0.36699 0.99733,0.71978 0.99677,1.10804c-0.00109,0.75256 -1.0521,1.04426 -1.21387,1.77924c-0.22752,1.0337 2.46308,2.31248 2.52726,3.36896c0.12451,2.04933 -0.29877,0.53184 -1.41287,2.03382c-0.99741,1.34468 1.2336,0.10612 1.17616,1.77935c-0.09055,2.63709 -3.79359,2.79051 -3.79359,2.79051z" data-paper-data="{&quot;origPos&quot;:null,&quot;origRot&quot;:0}" fill="url(#color-10)" stroke="#256d2f" stroke-width="0.5" stroke-linecap="butt"/><path d="M186.78428,155.31176c-0.00968,-0.64353 0.26078,-1.96274 0.26078,-1.96274c0,0 1.40386,1.09774 1.59665,1.50806c0.57839,1.23095 0.62571,2.84382 0.62571,2.84382c0,0 0.24553,-1.64542 2.2703,-1.15821c0.64449,0.15508 1.03799,2.10446 1.03799,2.10446c0,0 2.01986,-2.24014 3.18484,-1.2036c1.41302,1.25723 1.76908,2.98065 1.76908,2.98065c0,0 1.67664,-2.59462 2.60643,-2.45051c2.10234,0.32585 3.45407,1.26809 3.45407,1.26809c0,0 -1.8763,-0.87694 -0.82373,-2.56948c0.7758,-1.24748 4.04152,-0.39367 4.04152,-0.39367c0,0 -0.6863,-1.57151 -0.28541,-2.42466c0.53016,-1.12825 1.77186,-0.07484 1.77186,-0.07484l0.29861,-2.04472c0,0 2.27937,2.40648 2.40045,3.83322c0.16176,1.90618 -0.62077,3.40003 -1.60796,5.03868c-2.17195,3.60527 -6.73807,5.85923 -10.93462,5.53633c-2.23584,-0.17204 -3.54419,-0.84804 -5.62095,-1.69398c0,0 -3.04805,-1.7524 -4.32479,-3.92142c-0.94897,-1.61216 -1.6918,-3.28489 -1.72083,-5.21549z" data-paper-data="{&quot;origPos&quot;:null,&quot;origRot&quot;:0}" fill="url(#color-11)" stroke="#0f2c13" stroke-width="0.5" stroke-linecap="butt"/></g></g></svg>