<svg version="1.1" xmlns="http://www.w3.org/2000/svg" xmlns:xlink="http://www.w3.org/1999/xlink" width="81.75614" height="59.84378" viewBox="0,0,81.75614,59.84378"><defs><linearGradient x1="240.19427" y1="191.00522" x2="240.19427" y2="207.40819" gradientUnits="userSpaceOnUse" id="color-1"><stop offset="0" stop-color="#24693c"/><stop offset="1" stop-color="#4ecc71"/></linearGradient><radialGradient cx="238.06046" cy="173.35052" r="21.1235" gradientUnits="userSpaceOnUse" id="color-2"><stop offset="0" stop-color="#b3fa98"/><stop offset="1" stop-color="#05ac26"/></radialGradient><radialGradient cx="226.945" cy="151.91499" r="14.99911" gradientUnits="userSpaceOnUse" id="color-3"><stop offset="0" stop-color="#036617"/><stop offset="1" stop-color="#037019"/></radialGradient><radialGradient cx="239.11889" cy="172.15468" r="6.67932" gradientUnits="userSpaceOnUse" id="color-4"><stop offset="0" stop-color="#adeba3"/><stop offset="1" stop-color="#32c144"/></radialGradient><linearGradient x1="234.58383" y1="180.8973" x2="235.16502" y2="198.68901" gradientUnits="userSpaceOnUse" id="color-5"><stop offset="0" stop-color="#a8d9ab"/><stop offset="1" stop-color="#50d844"/></linearGradient><radialGradient cx="237.33085" cy="173.68023" r="11.33088" gradientUnits="userSpaceOnUse" id="color-6"><stop offset="0" stop-color="#a5f48f"/><stop offset="1" stop-color="#32c144"/></radialGradient><linearGradient x1="246.14549" y1="161.79706" x2="246.7206" y2="179.4026" gradientUnits="userSpaceOnUse" id="color-7"><stop offset="0" stop-color="#baffa7"/><stop offset="1" stop-color="#82ff63"/></linearGradient><radialGradient cx="196.15364" cy="155.47319" r="10.59119" gradientUnits="userSpaceOnUse" id="color-8"><stop offset="0" stop-color="#c8d6ca"/><stop offset="1" stop-color="#05ad27"/></radialGradient><radialGradient cx="190.92803" cy="160.04272" r="9.57427" gradientUnits="userSpaceOnUse" id="color-9"><stop offset="0" stop-color="#83dd6c"/><stop offset="1" stop-color="#28bd46"/></radialGradient><radialGradient cx="202.07057" cy="158.94423" r="7.29369" gradientUnits="userSpaceOnUse" id="color-10"><stop offset="0" stop-color="#83dd6c"/><stop offset="1" stop-color="#5dc572"/></radialGradient><linearGradient x1="195.37133" y1="159.20288" x2="198.0154" y2="171.52233" gradientUnits="userSpaceOnUse" id="color-11"><stop offset="0" stop-color="#53db7a"/><stop offset="1" stop-color="#24693c"/></linearGradient></defs><g transform="translate(-184.24832,-148.05138)"><g data-paper-data="{&quot;isPaintingLayer&quot;:true}" fill="none" fill-rule="nonzero" stroke="none" stroke-width="none" stroke-linecap="none" stroke-linejoin="miter" stroke-miterlimit="10" stroke-dasharray="" stroke-dashoffset="0" font-family="none" font-weight="none" font-size="none" text-anchor="none" style="mix-blend-mode: normal"><path d="M265.50447,196.78896c0,2.05192 -4.46233,5.3969 -5.99869,5.1516c-2.211,-0.35301 -7.33647,-4.94385 -7.33647,-4.94385c0,0 3.94658,2.47919 5.06352,4.47218c1.09713,1.95763 1.60555,5.11132 -0.57043,5.66005c-0.81875,0.20647 -2.25973,-4.07958 -3.04313,-3.76452c-0.51129,0.20562 -0.20078,0.90011 -0.39866,1.41446c-0.48513,1.26101 -0.65474,2.07082 -2.00368,2.1474c-2.54931,0.14472 -1.21167,-3.82453 -3.65419,-3.08021c-1.3397,0.40825 -1.1077,1.11468 -2.17422,2.02242c-2.09749,1.78521 -2.63345,1.52666 -5.3878,1.52666c-3.37785,0 -7.03408,-6.82012 -7.03408,-6.82012c0,0 -9.27918,5.80446 -14.23348,3.40515c-1.85279,-0.89729 1.05445,-3.69416 2.6697,-4.97045c1.36434,-1.07803 4.18869,-1.43148 4.18869,-1.43148c0,0 -4.97845,1.0473 -7.10801,0.24077c-1.79846,-0.68114 -3.59951,-2.29397 -3.59951,-4.2171c0,-1.27932 7.86551,-0.1749 7.86551,-0.1749c0,0 -3.96234,-1.47362 -2.2704,-1.93843c6.91241,-1.899 31.59011,2.37702 33.85978,2.86475c0.75656,0.16258 7.08018,-1.36996 7.557,-0.76049c0.73094,0.93429 -2.67507,3.70814 -2.67507,3.70814c0,0 6.28359,-4.13562 6.28359,-0.51203z" data-paper-data="{&quot;origPos&quot;:null}" fill="url(#color-1)" stroke="#0f2c13" stroke-width="1" stroke-linecap="butt"/><path d="M218.76738,175.23612l-0.09032,-2.76482l2.48833,-0.08128l0.09032,2.76482z" data-paper-data="{&quot;origPos&quot;:null,&quot;origRot&quot;:0}" fill="#1c5324" stroke="none" stroke-width="0" stroke-linecap="butt"/><path d="M260.72966,179.08436c0.357,10.92873 -8.34341,20.08188 -20.7878,20.48839c-12.4444,0.40651 -20.07608,-8.21313 -20.43309,-19.14185c-0.2495,-7.63777 1.67687,-10.23089 5.19413,-11.71071c2.5467,-1.07147 1.10329,-4.3403 1.74245,-7.02829c0.36192,-1.52205 1.65332,-3.25432 3.01904,-2.49115c2.10359,1.17545 4.85364,3.71742 4.85364,3.71742c0,0 0.42691,-4.5333 2.66254,-3.05341c2.51067,1.66196 4.43803,2.31644 6.34443,4.02078c0,0 17.04768,4.27011 17.40468,15.19882z" data-paper-data="{&quot;origPos&quot;:null,&quot;origRot&quot;:0}" fill="url(#color-2)" stroke="#000000" stroke-width="1.5" stroke-linecap="butt"/><path d="M250.61466,185.54352c0.34986,2.24679 -0.43065,4.29536 -1.74331,4.57556c-1.31264,0.28023 -2.66039,-1.31402 -3.01024,-3.56082c-0.34986,-2.24679 0.43065,-4.29536 1.74331,-4.57556c1.31264,-0.28023 2.66038,1.31402 3.01022,3.5608z" data-paper-data="{&quot;origPos&quot;:null,&quot;origRot&quot;:0}" fill="#000000" stroke="none" stroke-width="0" stroke-linecap="butt"/><path d="M256.36163,183.44747c0.24279,1.69564 -0.36401,3.2315 -1.35535,3.43045c-0.99136,0.19895 -1.9918,-1.01432 -2.2346,-2.70998c-0.24279,-1.69564 0.364,-3.2315 1.35535,-3.43045c0.99136,-0.19895 1.99182,1.01433 2.23462,2.70996z" data-paper-data="{&quot;origPos&quot;:null,&quot;origRot&quot;:0}" fill="#000000" stroke="none" stroke-width="0" stroke-linecap="butt"/><path d="M234.79667,163.73434c0.22033,-1.14946 2.03325,-1.72617 2.04535,-1.70669c0.9321,-0.22367 1.14999,0.18995 1.34744,0.62983c0.59233,1.31964 4.95054,4.31961 4.95054,4.31961c0,0 -8.78093,-0.95987 -8.34332,-3.24276z" data-paper-data="{&quot;origPos&quot;:null,&quot;index&quot;:null,&quot;origRot&quot;:0}" fill="#287732" stroke="none" stroke-width="0" stroke-linecap="butt"/><path d="M233.35749,165.50402l-7.33325,-11.94069c0,0 -2.80682,-0.45176 -4.89354,0.64246c-5.1628,2.70717 -13.0248,8.95695 -13.0248,8.95695l0.83899,-3.42917c0,0 5.5421,-4.47574 9.38022,-6.66896c3.69188,-2.10966 9.3199,-2.85304 9.3199,-2.85304l11.75206,15.79238z" data-paper-data="{&quot;origPos&quot;:null,&quot;origRot&quot;:0}" fill="url(#color-3)" stroke="#0f2c13" stroke-width="0.5" stroke-linecap="butt"/><path d="M235.27761,175.48595c0,0 -2.87718,-7.38561 0.61671,-10.61933c1.43928,0.11134 1.62846,0.84083 3.08617,0.62265c0.80706,-0.12079 -1.57189,-3.25028 -0.77469,-3.42456c1.26967,-0.27755 3.28949,0.50845 4.41048,1.1661c1.99303,1.16924 4.66055,2.5488 4.66055,2.5488c0,0 -0.96434,3.56047 -4.31645,6.66296c-1.98264,1.835 -7.68279,3.04338 -7.68279,3.04338z" data-paper-data="{&quot;origPos&quot;:null,&quot;origRot&quot;:0}" fill="url(#color-4)" stroke="#256d2f" stroke-width="0.5" stroke-linecap="butt"/><path d="M248.7974,185.05828c0.1587,1.01923 -0.19536,1.94854 -0.79084,2.07566c-0.59547,0.12712 -1.20685,-0.5961 -1.36556,-1.61533c-0.1587,-1.01923 0.19536,-1.94854 0.79084,-2.07566c0.59547,-0.12712 1.20685,0.5961 1.36555,1.61532z" data-paper-data="{&quot;origPos&quot;:null,&quot;origRot&quot;:0}" fill="#ffffff" stroke="none" stroke-width="0" stroke-linecap="butt"/><path d="M254.76827,182.76333c0.0828,0.57825 -0.12413,1.10202 -0.46221,1.16987c-0.33806,0.06785 -0.67925,-0.34591 -0.76206,-0.92416c-0.0828,-0.57825 0.12413,-1.10202 0.46221,-1.16987c0.33806,-0.06785 0.67925,0.34592 0.76205,0.92416z" data-paper-data="{&quot;origPos&quot;:null,&quot;origRot&quot;:0}" fill="#ffffff" stroke="none" stroke-width="0" stroke-linecap="butt"/><path d="M228.43796,168.71816c0,0 -0.74102,-5.60746 -0.23606,-6.96294c0.16831,-0.45182 0.34564,-1.27987 1.29036,-1.11752c0.01079,-0.02022 1.86273,0.59737 2.15762,1.73001c0.58567,2.24946 -0.07378,0.78748 -0.07378,0.78748z" data-paper-data="{&quot;origPos&quot;:null,&quot;origRot&quot;:0}" fill="#287732" stroke="none" stroke-width="0" stroke-linecap="butt"/><path d="M240.38717,181.2776c0,0 0.75126,-5.61581 2.43006,-5.51426c3.46498,0.2096 5.4759,4.00416 5.4759,4.00416c0,0 -2.93425,-1.21328 -4.3092,-0.95067c-1.71046,0.32671 -3.59677,2.46077 -3.59677,2.46077z" data-paper-data="{&quot;origPos&quot;:null,&quot;origRot&quot;:0}" fill="#05ac26" stroke="#000000" stroke-width="0.5" stroke-linecap="butt"/><path d="M252.38736,178.64262c0,0 0.29452,-3.55303 1.95688,-4.54169c1.56825,-0.93269 4.65034,3.32208 4.65034,3.32208c0,0 -2.21326,-1.24121 -3.65534,-1.02083z" data-paper-data="{&quot;origPos&quot;:null,&quot;index&quot;:null,&quot;origRot&quot;:0}" fill="#05ac26" stroke="#000000" stroke-width="0.5" stroke-linecap="butt"/><path d="M229.21175,196.08977c-9.48579,-5.22643 -8.60102,-14.73601 -8.60102,-14.73601c0,0 1.89446,2.25549 3.60246,3.40533c2.96574,1.99655 5.3708,2.72478 8.50738,4.4405c1.09272,0.59771 3.33224,0.84774 4.32797,1.59597c1.07367,0.8068 1.26126,1.96252 2.07078,3.03413c0.58641,0.77629 1.22634,0.65873 2.10862,1.06871c2.95578,1.37352 7.90585,1.6756 7.90585,1.6756c0,0 -10.43625,4.74222 -19.92204,-0.48423z" data-paper-data="{&quot;origPos&quot;:null,&quot;origRot&quot;:0}" fill="url(#color-5)" stroke="#287732" stroke-width="0" stroke-linecap="butt"/><path d="M220.6588,184.58998c0,0 -3.21165,-6.35905 -1.9196,-10.19666c1.29205,-3.83761 4.8119,-2.02643 6.42782,-3.46646c1.69747,-1.5127 2.00849,-1.5318 3.48243,-3.26302c1.12518,-1.32157 0.72741,-4.15449 2.11089,-5.20262c0.95999,-0.72729 1.83806,0.1451 3.02572,0.34507c1.29715,0.21842 1.53813,4.48771 1.53813,4.48771c0,0 2.86218,-0.65059 2.50858,1.53035c-0.30459,1.87861 -1.52365,1.18167 -1.36025,3.07778c0.19671,2.2826 2.61586,-0.4117 2.46748,1.87456c-0.23033,3.54893 -0.47656,5.23582 -2.61126,8.08031c0,0 -5.50969,2.26921 -8.46633,2.70948c-3.56997,0.5316 -7.20364,0.02351 -7.20364,0.02351z" data-paper-data="{&quot;origPos&quot;:null,&quot;origRot&quot;:0}" fill="url(#color-6)" stroke="#256d2f" stroke-width="0.5" stroke-linecap="butt"/><path d="M220.57718,188.62245c-0.91641,-1.9736 0.06824,-2.61714 -1.0565,-4.39635c-0.49076,-0.77631 -0.95433,-0.26106 -1.87156,-0.30766c-1.24814,-0.06341 -2.83093,-0.01124 -3.15316,-1.21872c-0.361,-1.3528 1.8685,-3.30748 1.8685,-3.30748c0,0 -4.36854,-0.38907 -4.32034,-3.28159c0.04999,-2.99957 4.29751,-3.03109 4.67979,-3.73021c0.64338,-1.17666 -0.19,-2.36236 1.11006,-2.69139c0.83573,-0.21151 2.65317,2.56284 2.54519,1.70754c-0.13986,-1.10786 3.38181,-0.00128 3.38181,-0.00128l-2.45607,1.64083c0,0 -2.27935,0.67229 -2.03753,2.63042c0.46014,3.72582 -0.21662,3.53394 2.40031,6.22561c1.29258,1.32951 3.76053,4.84971 5.57353,4.32828c0.85123,1.60318 3.28143,1.49116 4.90097,2.31085c2.10358,1.06468 5.27942,2.81409 5.27942,2.81409c0,0 -2.79729,-0.92275 -3.81161,-0.82341c-2.86704,0.2808 -2.3608,1.02174 -5.09673,0.11983c-1.17788,-0.38829 -1.48484,-1.53294 -2.68901,-1.82984c-2.74609,-0.67709 -4.33066,1.78407 -5.24708,-0.18953z" data-paper-data="{&quot;origPos&quot;:null,&quot;origRot&quot;:0}" fill="#98ff7e" stroke="#256d2f" stroke-width="1" stroke-linecap="butt"/><path d="M237.46779,179.70485c0,0 0.6583,-1.25077 0.8198,-2.03297c0.24851,-1.20376 0.42123,-2.99643 0.42123,-2.99643c0.55068,-1.19685 1.21371,-1.51287 2.01369,-2.55963c0.73244,-0.95839 1.78379,-2.64892 1.78379,-2.64892c0.89119,-1.12232 4.91557,-4.18279 4.91557,-4.18279l-3.89849,-1.75749c0,0 1.28406,-0.64815 1.99482,-0.92003c4.07154,-1.55741 9.58894,-1.29405 9.95998,1.50085c0.22619,1.70384 -3.70068,0.13048 -5.45393,2.33845c-0.73894,0.9306 0.97193,3.07028 0.03261,4.27953c-0.76736,0.9879 -3.80074,-1.64711 -4.58084,-0.66924c-0.54936,0.68864 -0.17143,3.04717 -0.81518,3.56454c-1.01894,0.81889 -0.99386,0.13026 -2.27544,-0.12743c-0.54575,-0.10974 -0.89587,0.22822 -1.27328,0.63745c-1.55804,1.68946 -0.06445,2.54452 -1.69554,4.16357c-1.14218,1.13375 -1.9488,1.41054 -1.9488,1.41054z" data-paper-data="{&quot;origPos&quot;:null,&quot;origRot&quot;:0}" fill="url(#color-7)" stroke="#256d2f" stroke-width="1" stroke-linecap="butt"/><path d="M247.48927,163.4708c0,0 3.44236,0.03771 2.59285,0.59126c-2.8189,1.83683 -4.34019,1.87533 -6.70642,4.26722c-1.21067,1.22381 -2.1744,3.22051 -3.30084,4.52226c-3.08726,3.56774 -0.47938,5.93419 -4.13067,8.92218c-2.73382,2.23719 -10.16168,3.23372 -10.16168,3.23372" data-paper-data="{&quot;origPos&quot;:null,&quot;origRot&quot;:0}" fill="none" stroke="#287732" stroke-width="0.5" stroke-linecap="round"/><path d="M249.22773,196.52845c0,0 -2.55292,-0.2682 -4.28589,-0.68571c-1.8621,-0.44861 -3.11765,-0.92055 -4.86861,-1.69701c-3.03863,-1.34749 -0.82216,-2.14739 -3.77437,-3.67495c-4.18315,-2.16447 -9.29558,-3.82613 -12.96958,-6.77322c-2.71089,-2.17454 -5.09191,-6.2459 -3.56395,-9.31869c0.63723,-1.28152 1.51928,-1.46282 1.51928,-1.46282" data-paper-data="{&quot;origPos&quot;:null,&quot;origRot&quot;:0}" fill="none" stroke="#287732" stroke-width="0.5" stroke-linecap="round"/><path d="M208.85487,160.38243c0.44523,6.01523 -4.55177,11.2881 -11.1611,11.7773c-6.60933,0.4892 -12.32819,-3.99053 -12.77343,-10.00574c-0.44523,-6.01523 23.48929,-7.78679 23.93452,-1.77157z" data-paper-data="{&quot;origPos&quot;:null,&quot;origRot&quot;:0}" fill="#2e8149" stroke="#0f2c13" stroke-width="0.5" stroke-linecap="butt"/><path d="M186.04958,162.74908c-1.22747,-5.7191 2.36066,-11.59763 8.07979,-12.8251c5.7191,-1.22747 11.40348,2.66092 12.63096,8.38005c1.22747,5.7191 -2.36066,11.59763 -8.07979,12.8251c-5.7191,1.22747 -11.40348,-2.66092 -12.63096,-8.38005z" data-paper-data="{&quot;origPos&quot;:null,&quot;origRot&quot;:0}" fill="url(#color-8)" stroke="#000000" stroke-width="1" stroke-linecap="butt"/><path d="M204.94424,165.54263c-1.41638,2.39309 -2.06444,2.32206 -3.48905,2.59972c-2.72325,0.53077 -7.20734,-0.66417 -7.20734,-0.66417c0,0 4.06606,-1.76803 5.7498,-3.98357c1.50103,-1.97512 1.85339,-4.172 0.6897,-6.36288c-0.76789,-1.4457 -2.07073,-2.23823 -2.44421,-3.83205c-0.21003,-0.89632 0.746,-2.48643 0.746,-2.48643c0,0 0.70354,0.60132 2.47514,1.16332c1.1893,0.37729 2.01648,1.7828 2.89211,2.67163c1.18974,1.20764 1.35515,2.487 1.71091,4.14451c0.80146,3.73419 0.20089,4.51301 -1.12306,6.74991z" data-paper-data="{&quot;origPos&quot;:null,&quot;index&quot;:null,&quot;origRot&quot;:0}" fill="#27b33c" stroke="#1c802b" stroke-width="0.5" stroke-linecap="butt"/><path d="M186.75839,162.7047c-0.43139,-2.00998 -0.38545,-3.61429 0.32927,-5.5418c0.52605,-1.41865 1.34824,-2.99213 2.47569,-4.00118c1.67947,-1.50308 4.5638,-2.51177 4.5638,-2.51177c0,0 -2.13312,5.81976 -2.24588,7.54083c-0.19668,3.00185 1.28618,5.25595 3.92893,6.69319c2.96445,1.61221 8.34069,1.54408 8.34069,1.54408c0,0 -3.38394,4.89597 -7.62069,4.24065c0,0 -3.15106,-0.20111 -5.03554,-1.40114c-2.41292,-1.53654 -3.76438,-2.03461 -4.73627,-6.56287z" data-paper-data="{&quot;origPos&quot;:null,&quot;origRot&quot;:0}" fill="#27b33c" stroke="#1c802b" stroke-width="0.5" stroke-linecap="butt"/><path d="M191.86381,159.58327c0,0 2.1934,-4.02948 3.79769,-4.38953c0.85299,-0.19143 1.22554,1.83316 2.0106,2.21779c0.77005,0.37727 0.61822,-0.77626 1.47351,-0.8376c0.33032,-0.02368 1.51768,1.03453 1.51768,1.03453" data-paper-data="{&quot;origPos&quot;:null,&quot;origRot&quot;:0}" fill="none" stroke="#1c802b" stroke-width="0.5" stroke-linecap="round"/><path d="M196.48169,150.57562c0,0 -0.71567,0.84721 -0.78191,1.41571c-0.0766,0.65754 1.35958,0.73348 1.42031,1.39269c0.05701,0.61867 -1.18432,1.87733 -1.18432,1.87733" data-paper-data="{&quot;origPos&quot;:null,&quot;origRot&quot;:0}" fill="none" stroke="#1c802b" stroke-width="0.5" stroke-linecap="round"/><path d="M189.32739,161.42064c-0.14912,-1.33546 0.59603,-0.54445 1.03463,-1.81463c0.16665,-0.48261 -1.36188,-1.87298 -1.20286,-2.35816c0.36615,-1.11721 0.81936,-0.72716 1.5053,-1.682c0.73726,-1.02626 -2.30808,-3.13284 -1.62232,-4.19421c0.57585,-0.89129 1.49768,0.59108 2.55201,0.47105c0.72259,-0.08226 -0.34071,-2.93198 0.25022,-3.3559c0.51321,-0.36815 0.71347,0.76712 1.15713,1.21668c0.18003,0.18242 0.877,-1.06527 1.09119,-0.92452c0.22018,0.14467 1.22177,0.40973 1.21602,0.67312c-0.0066,0.30239 -0.72053,-0.12561 -0.97422,0.03907c-0.28211,0.18313 -0.30158,0.92045 -0.30158,0.92045c0,0 -1.80355,4.48243 -2.12068,7.11289c-0.27055,2.24414 0.019,3.2665 1.21782,5.1828c1.84808,2.95413 6.56484,3.64276 6.56484,3.64276c0,0 -10.03519,-1.95339 -10.3675,-4.92941z" data-paper-data="{&quot;origPos&quot;:null,&quot;origRot&quot;:0}" fill="url(#color-9)" stroke="#256d2f" stroke-width="0.5" stroke-linecap="butt"/><path d="M200.77098,162.92971c0,0 1.52672,-3.73211 0.22042,-5.91391c-1.08403,-1.81054 -2.08124,-1.80623 -2.5634,-3.75171c-0.5446,-2.19745 0.70828,-3.17201 0.70828,-3.17201c0,0 -1.67076,-1.43246 -1.31118,-1.05088c0.52827,0.56063 1.20876,-1.08701 1.85769,-0.67197c0.45057,0.28818 0.11385,0.54769 0.68051,1.59242c0.18513,0.3413 1.10168,0.54685 1.16467,0.92997c0.12209,0.74259 -0.86701,1.20236 -0.90632,1.95392c-0.05528,1.057 2.80832,1.8782 3.04455,2.90992c0.45823,2.00132 -0.2077,0.57356 -1.06097,2.23763c-0.7639,1.48979 1.23433,-0.0972 1.45151,1.56287c0.34225,2.61636 -3.28576,3.37374 -3.28576,3.37374z" data-paper-data="{&quot;origPos&quot;:null,&quot;origRot&quot;:0}" fill="url(#color-10)" stroke="#256d2f" stroke-width="0.5" stroke-linecap="butt"/><path d="M184.70118,163.58793c-0.11486,-0.63327 -0.06396,-1.97896 -0.06396,-1.97896c0,0 1.56458,0.85318 1.82193,1.22642c0.77205,1.11969 1.08268,2.70307 1.08268,2.70307c0,0 -0.02707,-1.66342 2.05013,-1.51415c0.66118,0.04752 1.36841,1.90621 1.36841,1.90621c0,0 1.62601,-2.5405 2.94492,-1.7086c1.59973,1.00903 2.23303,2.65094 2.23303,2.65094c0,0 1.2294,-2.83403 2.17024,-2.84403c2.12732,-0.02261 3.61503,0.6857 3.61503,0.6857c0,0 -1.99452,-0.55804 -1.23314,-2.40002c0.56118,-1.35763 3.92261,-1.04979 3.92261,-1.04979c0,0 -0.93423,-1.438 -0.67838,-2.34526c0.33837,-1.19981 1.73572,-0.36381 1.73572,-0.36381l-0.04005,-2.06602c0,0 2.64248,2.00099 2.99542,3.38868c0.47154,1.854 -0.05596,3.45578 -0.76166,5.2339c-1.55263,3.91212 -5.68831,6.88297 -9.88113,7.25122c-2.23385,0.1962 -3.63519,-0.25657 -5.8224,-0.75122c0,0 -3.29375,-1.22994 -4.90825,-3.16076c-1.20001,-1.43512 -2.20659,-2.96372 -2.55119,-4.86354z" data-paper-data="{&quot;origPos&quot;:null,&quot;origRot&quot;:0}" fill="url(#color-11)" stroke="#0f2c13" stroke-width="0.5" stroke-linecap="butt"/></g></g></svg>