<svg version="1.1" xmlns="http://www.w3.org/2000/svg" xmlns:xlink="http://www.w3.org/1999/xlink" width="56.09179" height="66.32582" viewBox="0,0,56.09179,66.32582"><g transform="translate(-213.39979,-141.36727)"><g data-paper-data="{&quot;isPaintingLayer&quot;:true}" fill="none" fill-rule="nonzero" stroke="none" stroke-width="none" stroke-linecap="butt" stroke-linejoin="miter" stroke-miterlimit="10" stroke-dasharray="" stroke-dashoffset="0" font-family="none" font-weight="none" font-size="none" text-anchor="none" style="mix-blend-mode: normal"><path d="M229.80127,191.73725c4.75499,-0.25064 8.70698,1.39207 8.82701,3.66911c0.12002,2.27704 -3.63736,4.32613 -8.39235,4.57677c-4.75499,0.25064 -8.82699,-3.66911 -8.82699,-3.66911c0,0 3.63734,-4.32613 8.39233,-4.57677z" data-paper-data="{&quot;origRot&quot;:0,&quot;origPos&quot;:null,&quot;index&quot;:null}" fill="#2bd900" stroke="#000000" stroke-width="1.5"/><path d="M256.49775,193.55312c0,0 -2.81929,4.8987 -7.45597,5.98219c-4.63668,1.08349 -8.81607,0.16188 -9.33493,-2.05851c-0.51886,-2.22038 2.8193,-4.89871 7.45598,-5.9822c4.63668,-1.08349 9.33492,2.05852 9.33492,2.05852z" data-paper-data="{&quot;origRot&quot;:0,&quot;origPos&quot;:null,&quot;index&quot;:null}" fill="#2bd900" stroke="#000000" stroke-width="1.5"/><path d="M237.83334,197.80209c0,0 -1,-7.0479 -1,-11.48236c0,-3.50089 1,-8.85098 1,-8.85098h4.5c0,0 -1.66667,4.30865 -1.66667,7.29608c0,4.94792 1.66667,13.03726 1.66667,13.03726z" data-paper-data="{&quot;origPos&quot;:null}" fill="#a9ff59" stroke="#000000" stroke-width="2"/><path d="M221.89556,143.97737c3.1287,2.66362 4.63099,6.03749 3.35545,7.53574c-1.27554,1.49825 -4.84588,0.55353 -7.97458,-2.1101c-3.1287,-2.66362 -3.35545,-7.53574 -3.35545,-7.53574c0,0 4.84588,-0.55353 7.97458,2.1101z" data-paper-data="{&quot;origRot&quot;:0,&quot;origPos&quot;:null}" fill="#2fe500" stroke="#000000" stroke-width="1"/><path d="M259.72728,161.44562c0,8.78187 -8.21877,15.90098 -18.35715,15.90098c-10.13837,0 -18.35715,-7.11911 -18.35715,-15.90098c0,-8.78187 8.21877,-15.90097 18.35715,-15.90097c10.13837,0 18.35715,7.11911 18.35715,15.90097z" data-paper-data="{&quot;origPos&quot;:null}" fill="#a9ff59" stroke="#000000" stroke-width="3"/><path d="M246.70271,156.3603c0.63467,2.1835 0.12291,4.31513 -1.14306,4.76112c-1.26596,0.44599 -2.80674,-0.96254 -3.44141,-3.14604c-0.63467,-2.1835 -0.12291,-4.31513 1.14306,-4.76112c1.26596,-0.44599 2.80673,0.96254 3.4414,3.14604z" data-paper-data="{&quot;origPos&quot;:null,&quot;origRot&quot;:0}" fill="#000000" stroke="none" stroke-width="0"/><path d="M252.73932,155.56677c0.4781,1.64486 0.09259,3.25062 -0.86107,3.58659c-0.95367,0.33597 -2.11433,-0.72509 -2.59243,-2.36995c-0.4781,-1.64486 -0.0926,-3.25062 0.86107,-3.58659c0.95367,-0.33597 2.11434,0.72509 2.59244,2.36995z" data-paper-data="{&quot;origPos&quot;:null,&quot;origRot&quot;:0}" fill="#000000" stroke="none" stroke-width="0"/><path d="M268.38764,166.78076c-0.56287,5.68305 -4.15618,9.99226 -8.0259,9.62487c-3.86972,-0.36739 -6.55045,-5.27224 -5.98758,-10.9553c0.56287,-5.68305 4.15619,-9.99226 8.0259,-9.62487c3.86971,0.36739 6.55044,5.27225 5.98757,10.9553z" data-paper-data="{&quot;origPos&quot;:null,&quot;origRot&quot;:0}" fill="#a9ff59" stroke="#000000" stroke-width="2"/><path d="M260.36859,165.89056c-0.23084,2.80439 -1.54152,4.98914 -2.9275,4.87979c-1.38597,-0.10935 -2.3224,-2.47142 -2.09156,-5.2758c0.23084,-2.80438 1.54152,-4.98914 2.92749,-4.87978c1.38597,0.10935 2.32241,2.47141 2.09157,5.2758z" data-paper-data="{&quot;origRot&quot;:0,&quot;origPos&quot;:null}" fill="#84c746" stroke="none" stroke-width="0"/><path d="M229.39176,197.54538c4.72027,-2.2133 9.40601,-2.17512 10.4659,0.0853c1.05989,2.26041 -1.90743,5.88706 -6.6277,8.10036c-4.72027,2.2133 -10.46589,-0.0853 -10.46589,-0.0853c0,0 1.90742,-5.88706 6.62769,-8.10036z" data-paper-data="{&quot;origRot&quot;:0,&quot;origPos&quot;:null}" fill="#2fe500" stroke="#000000" stroke-width="2"/><path d="M256.23902,204.81241c0,0 -5.74562,2.29859 -10.46589,0.08529c-4.72027,-2.2133 -7.68759,-5.83995 -6.6277,-8.10036c1.05989,-2.26041 5.74563,-2.2986 10.4659,-0.0853c4.72027,2.2133 6.62769,8.10037 6.62769,8.10037z" data-paper-data="{&quot;origRot&quot;:0,&quot;origPos&quot;:null,&quot;index&quot;:null}" fill="#2fe500" stroke="#000000" stroke-width="2"/></g></g></svg>