<svg version="1.1" xmlns="http://www.w3.org/2000/svg" xmlns:xlink="http://www.w3.org/1999/xlink" width="16.89799" height="19.0653" viewBox="0,0,16.89799,19.0653"><g transform="translate(-231.53278,-170.6262)"><g data-paper-data="{&quot;isPaintingLayer&quot;:true}" fill="none" fill-rule="nonzero" stroke="none" stroke-width="none" stroke-linecap="none" stroke-linejoin="miter" stroke-miterlimit="10" stroke-dasharray="" stroke-dashoffset="0" font-family="none" font-weight="none" font-size="none" text-anchor="none" style="mix-blend-mode: normal"><path d="M247.93012,171.1262c0,0 -0.0054,4.16304 -0.67983,6.79317c-0.61885,2.4134 -1.12428,4.37276 -3.08418,5.91101c-1.2418,0.97464 -2.32866,1.59669 -3.89672,1.77893c-1.63966,0.19056 -4.85357,-1.68847 -4.85357,-1.68847c0,0 -0.68837,1.313 -1.18714,2.38614c-0.51506,1.10817 -0.86523,2.56681 -0.86523,2.56681l-1.29358,-0.87291c0,0 0.13949,-1.03183 0.69425,-2.50687c0.41722,-1.10931 1.15998,-3.47884 1.15998,-3.47884c0,0 -0.73277,-2.509 0.57056,-4.97989c0.9408,-1.78359 4.22913,-3.33809 6.06378,-4.17495c2.80593,-1.2799 7.37167,-1.73413 7.37167,-1.73413z" data-paper-data="{&quot;origPos&quot;:null,&quot;origRot&quot;:0}" fill="#87ff00" stroke="#000000" stroke-width="1" stroke-linecap="butt"/><path d="M236.89405,182.05413c0,0 1.82513,-3.01995 3.51699,-4.48737c1.78503,-1.54824 5.3921,-3.2399 5.3921,-3.2399" data-paper-data="{&quot;origPos&quot;:null}" fill="none" stroke="#989898" stroke-width="0.5" stroke-linecap="round"/><path d="M236.43951,181.87231c0,0 2.42295,-3.47007 4.32288,-5.10923c1.71887,-1.48295 4.94985,-2.89077 4.94985,-2.89077" data-paper-data="{&quot;origPos&quot;:null}" fill="none" stroke="#000000" stroke-width="0.5" stroke-linecap="round"/></g></g></svg>