<svg version="1.1" xmlns="http://www.w3.org/2000/svg" xmlns:xlink="http://www.w3.org/1999/xlink" width="61.69787" height="64.0085" viewBox="0,0,61.69787,64.0085"><g transform="translate(-203.04371,-142.52529)"><g data-paper-data="{&quot;isPaintingLayer&quot;:true}" fill="none" fill-rule="nonzero" stroke="none" stroke-width="none" stroke-linecap="butt" stroke-linejoin="miter" stroke-miterlimit="10" stroke-dasharray="" stroke-dashoffset="0" font-family="none" font-weight="none" font-size="none" text-anchor="none" style="mix-blend-mode: normal"><path d="M222.68416,165.92729c-1.59904,1.6745 -6.49198,1.85814 -10.41419,-1.11883c-3.9222,-2.97695 -4.90162,-12.01672 -4.90162,-12.01672c0,0 3.99316,2.65168 4.94604,2.70245c0,0 5.33066,-0.2978 7.36405,1.32422c2.67726,2.13562 4.60475,7.43438 3.00571,9.10888z" data-paper-data="{&quot;origRot&quot;:0,&quot;origPos&quot;:null}" fill="#26bd00" stroke="#000000" stroke-width="1"/><path d="M221.04413,167.59635c0.11192,2.31734 -2.59781,5.63667 -6.70014,5.91235c-4.10232,0.27569 -10.25244,-5.98928 -10.25244,-5.98928c0,0 3.9423,-0.57011 4.52347,-1.15048c0,0 2.89175,-3.69089 5.06713,-3.77375c2.8642,-0.1091 7.25007,2.68382 7.36198,5.00116z" data-paper-data="{&quot;origRot&quot;:0,&quot;origPos&quot;:null}" fill="#26bd00" stroke="#000000" stroke-width="1"/><path d="M223.45249,159.96108c-2.26546,0.62132 -6.42555,-1.25905 -8.00728,-5.15783c-1.58174,-3.89876 2.67853,-11.22295 2.67853,-11.22295c0,0 1.82308,3.67908 2.58469,4.11151c0,0 4.58709,1.97378 5.36297,4.05524c1.02156,2.74054 -0.35344,7.5927 -2.6189,8.21402z" data-paper-data="{&quot;origRot&quot;:0,&quot;origPos&quot;:null}" fill="#26bd00" stroke="#000000" stroke-width="1"/><path d="M230.94207,191.835c4.64145,1.06288 7.99149,3.72633 7.4825,5.949c-0.50899,2.22266 -4.68424,3.16286 -9.32569,2.09998c-4.64145,-1.06288 -7.48248,-5.94899 -7.48248,-5.94899c0,0 4.68422,-3.16287 9.32567,-2.09999z" data-paper-data="{&quot;origRot&quot;:0,&quot;origPos&quot;:null,&quot;index&quot;:null}" fill="#2bd900" stroke="#000000" stroke-width="1.5"/><path d="M255.57113,191.77543c0,0 -2.02903,5.27529 -6.44278,7.06178c-4.41376,1.78648 -8.68533,1.5213 -9.54083,-0.59234c-0.8555,-2.11362 2.02903,-5.2753 6.44279,-7.06179c4.41376,-1.78648 9.54082,0.59235 9.54082,0.59235z" data-paper-data="{&quot;origRot&quot;:0,&quot;origPos&quot;:null,&quot;index&quot;:null}" fill="#2bd900" stroke="#000000" stroke-width="1.5"/><path d="M238.20292,199.2141c0,0 -1.92044,-6.41611 -2.52926,-10.5387c-0.48064,-3.25468 -0.26233,-8.36465 -0.26233,-8.36465l4.28775,-0.61262c0,0 -0.99652,4.23254 -0.58638,7.00987c0.67931,4.59995 3.37796,11.89349 3.37796,11.89349z" data-paper-data="{&quot;origPos&quot;:null,&quot;origRot&quot;:0}" fill="#a9ff59" stroke="#000000" stroke-width="2"/><path d="M254.97728,167.44562c0,8.78187 -8.21877,15.90098 -18.35715,15.90098c-10.13837,0 -18.35715,-7.11911 -18.35715,-15.90098c0,-8.78187 8.21877,-15.90097 18.35715,-15.90097c10.13837,0 18.35715,7.11911 18.35715,15.90097z" data-paper-data="{&quot;origPos&quot;:null}" fill="#a9ff59" stroke="#000000" stroke-width="3"/><path d="M241.95271,162.3603c0.63467,2.1835 0.12291,4.31513 -1.14306,4.76112c-1.26596,0.44599 -2.80674,-0.96254 -3.44141,-3.14604c-0.63467,-2.1835 -0.12291,-4.31513 1.14306,-4.76112c1.26596,-0.44599 2.80673,0.96254 3.4414,3.14604z" data-paper-data="{&quot;origPos&quot;:null,&quot;origRot&quot;:0}" fill="#000000" stroke="none" stroke-width="0"/><path d="M247.98932,161.56677c0.4781,1.64486 0.09259,3.25062 -0.86107,3.58659c-0.95367,0.33597 -2.11433,-0.72509 -2.59243,-2.36995c-0.4781,-1.64486 -0.0926,-3.25062 0.86107,-3.58659c0.95367,-0.33597 2.11434,0.72509 2.59244,2.36995z" data-paper-data="{&quot;origPos&quot;:null,&quot;origRot&quot;:0}" fill="#000000" stroke="none" stroke-width="0"/><path d="M263.63764,172.78076c-0.56287,5.68305 -4.15618,9.99226 -8.0259,9.62487c-3.86972,-0.36739 -6.55045,-5.27224 -5.98758,-10.9553c0.56287,-5.68305 4.15619,-9.99226 8.0259,-9.62487c3.86971,0.36739 6.55044,5.27225 5.98757,10.9553z" data-paper-data="{&quot;origPos&quot;:null,&quot;origRot&quot;:0}" fill="#a9ff59" stroke="#000000" stroke-width="2"/><path d="M255.61859,171.89056c-0.23084,2.80439 -1.54152,4.98914 -2.9275,4.87979c-1.38597,-0.10935 -2.3224,-2.47142 -2.09156,-5.2758c0.23084,-2.80438 1.54152,-4.98914 2.92749,-4.87978c1.38597,0.10935 2.32241,2.47141 2.09157,5.2758z" data-paper-data="{&quot;origRot&quot;:0,&quot;origPos&quot;:null}" fill="#84c746" stroke="none" stroke-width="0"/><path d="M230.30256,196.69111c5.09914,-1.08555 9.65422,0.01394 10.17405,2.45579c0.51983,2.44184 -3.19241,5.30135 -8.29155,6.38689c-5.09914,1.08555 -10.17404,-2.45579 -10.17404,-2.45579c0,0 3.1924,-5.30135 8.29154,-6.38689z" data-paper-data="{&quot;origRot&quot;:0,&quot;origPos&quot;:null}" fill="#2fe500" stroke="#000000" stroke-width="2"/><path d="M256.93449,202.46867c0,0 -5.15783,3.41941 -10.22967,2.2127c-5.07184,-1.20671 -8.71491,-4.15384 -8.13704,-6.58261c0.57786,-2.42877 5.15784,-3.41943 10.22968,-2.21271c5.07184,1.20671 8.13703,6.58263 8.13703,6.58263z" data-paper-data="{&quot;origRot&quot;:0,&quot;origPos&quot;:null,&quot;index&quot;:null}" fill="#2fe500" stroke="#000000" stroke-width="2"/><path d="M233.11267,160.87592l-0.87316,-4.49052c0,0 4.76812,-0.08519 6.94175,0.7385c2.30405,0.87312 2.66298,4.0015 2.66298,4.0015c0,0 -1.14075,-1.49684 -3.86684,-1.49684c-1.89853,0 -4.86473,1.24737 -4.86473,1.24737z" data-paper-data="{&quot;origPos&quot;:null}" fill="#26bd00" stroke="#000000" stroke-width="0.5"/><path d="M246.55773,158.56266c-2.05336,0.41413 -2.70381,1.81535 -2.70381,1.81535c0,0 -0.16601,-2.62085 1.44767,-3.68712c1.52233,-1.00591 5.12569,-1.66038 5.12569,-1.66038l-0.03132,3.81638c0,0 -2.40821,-0.57265 -3.83823,-0.28423z" data-paper-data="{&quot;origPos&quot;:null,&quot;index&quot;:null,&quot;origRot&quot;:0}" fill="#26bd00" stroke="#000000" stroke-width="0.5"/></g></g></svg>