<svg version="1.1" xmlns="http://www.w3.org/2000/svg" xmlns:xlink="http://www.w3.org/1999/xlink" width="36.26446" height="50.21928"><defs><radialGradient cx="236.15837" cy="167.59202" r="3.58833" gradientUnits="userSpaceOnUse" id="color-1"><stop offset="0" stop-color="#ffffff"/><stop offset="1" stop-color="#ff0000"/></radialGradient></defs><g transform="translate(-222.95806,-146.6373)"><g data-paper-data="{&quot;isPaintingLayer&quot;:true}" fill="none" fill-rule="nonzero" stroke="none" stroke-width="none" stroke-linecap="none" stroke-linejoin="miter" stroke-miterlimit="10" stroke-dasharray="" stroke-dashoffset="0" font-family="none" font-weight="none" font-size="none" text-anchor="none" style="mix-blend-mode: normal"><path d="M226.38863,188.64785c0,-7.729 6.51438,-13.99458 14.55028,-13.99458c8.0359,0 14.55028,6.26558 14.55028,13.99458c0,7.729 -29.10056,7.729 -29.10056,0z" data-paper-data="{&quot;origPos&quot;:null}" fill="#ffeeac" stroke="#000000" stroke-width="2.5" stroke-linecap="butt"/><path d="M235.93859,146.6373z" fill="#fff0a7" stroke="#000000" stroke-width="2" stroke-linecap="butt"/><path d="M238.14016,177.34526l-0.93434,-6.14236l2.16308,-0.16163l0.93433,6.14236c0,0 -0.59061,0.62897 -0.99525,0.65921c-0.43954,0.03285 -1.16783,-0.49758 -1.16783,-0.49758z" data-paper-data="{&quot;origPos&quot;:null,&quot;origRot&quot;:0}" fill="#bebebe" stroke="#000000" stroke-width="0.5" stroke-linecap="butt"/><path d="M234.51327,168.95197c0.13384,-1.97726 1.84522,-3.47164 3.82247,-3.3378c1.97726,0.13384 3.47163,1.84522 3.3378,3.82247c-0.13384,1.97726 -1.84521,3.47163 -3.82247,3.3378c-1.97726,-0.13384 -3.47164,-1.84521 -3.3378,-3.82247z" data-paper-data="{&quot;origPos&quot;:null,&quot;origRot&quot;:0}" fill="url(#color-1)" stroke="#000000" stroke-width="0.5" stroke-linecap="butt"/><path d="M245.88631,184.53764c0.38423,1.38657 0.08067,2.68104 -0.67802,2.89128c-0.75869,0.21024 -1.68521,-0.74336 -2.06945,-2.12994c-0.38423,-1.38657 -0.08067,-2.68105 0.67802,-2.89129c0.75869,-0.21024 1.68521,0.74337 2.06944,2.12995z" data-paper-data="{&quot;origPos&quot;:null,&quot;origRot&quot;:0}" fill="#000000" stroke="none" stroke-width="0" stroke-linecap="butt"/><path d="M245.51994,184.03484c0.19158,0.58918 0.11596,1.15425 -0.16892,1.2621c-0.28487,0.10786 -0.67112,-0.28233 -0.8627,-0.87151c-0.19158,-0.58918 -0.11595,-1.15424 0.16892,-1.2621c0.28487,-0.10786 0.67112,0.28233 0.8627,0.87151z" data-paper-data="{&quot;origRot&quot;:0,&quot;origPos&quot;:null}" fill="#ffffff" stroke="none" stroke-width="0" stroke-linecap="butt"/><path d="M251.39075,183.47187c0.35449,1.27922 0.07442,2.47348 -0.62553,2.66744c-0.69995,0.19396 -1.55474,-0.68581 -1.90922,-1.96504c-0.35449,-1.27922 -0.07443,-2.47348 0.62552,-2.66745c0.69995,-0.19396 1.55474,0.68582 1.90923,1.96505z" data-paper-data="{&quot;origPos&quot;:null,&quot;origRot&quot;:0}" fill="#000000" stroke="none" stroke-width="0" stroke-linecap="butt"/><path d="M250.92462,183.00799c0.17675,0.54357 0.10698,1.06488 -0.15584,1.16439c-0.26282,0.09951 -0.61916,-0.26047 -0.79591,-0.80403c-0.17675,-0.54357 -0.10698,-1.06488 0.15584,-1.16439c0.26282,-0.09951 0.61916,0.26047 0.79591,0.80403z" data-paper-data="{&quot;origRot&quot;:0,&quot;origPos&quot;:null}" fill="#ffffff" stroke="none" stroke-width="0" stroke-linecap="butt"/><path d="M251.24683,188.2117c0,0 -0.90019,0.88846 -1.58365,1.20543c-0.72292,0.33528 -2.02001,0.46585 -2.02001,0.46585" data-paper-data="{&quot;origPos&quot;:null}" fill="none" stroke="#000000" stroke-width="0.5" stroke-linecap="round"/><path d="M250.35351,190.42686l-0.35559,-0.98463l1.20052,-0.91771l0.35559,0.98463z" data-paper-data="{&quot;origRot&quot;:0,&quot;origPos&quot;:null}" fill="#ffffff" stroke="#000000" stroke-width="0.5" stroke-linecap="butt"/><path d="M237.84824,194.7677c0,1.26208 -1.09859,1.41001 -2.33381,1.41001c-0.15082,0 0.25058,0.0015 0.09978,0.00343c-0.45241,0.0058 -1.36393,-0.4197 -1.36393,-1.12171c0,-1.53387 1.91417,-2.7714 1.94484,-2.7714c0,0 0.75965,0.1095 1.11586,0.85786c0.38344,0.80559 0.53726,0.35973 0.53726,1.62181z" data-paper-data="{&quot;origPos&quot;:null}" fill="#a86f20" stroke="#000000" stroke-width="1" stroke-linecap="butt"/><path d="M240.54881,194.89931c0,0.96663 -0.84141,1.07993 -1.78748,1.07993c-0.11551,0 0.19193,0.00114 0.07642,0.00263c-0.3465,0.00444 -1.04464,-0.32145 -1.04464,-0.85913c0,-1.1748 0.61422,-1.89439 0.68461,-1.89775c0.02346,-0.00112 0.78146,-0.22488 0.80495,-0.22488c0,0 0.58182,0.08387 0.85464,0.65704c0.29368,0.61701 0.41149,0.27552 0.41149,1.24215z" data-paper-data="{&quot;origPos&quot;:null}" fill="#a86f20" stroke="#000000" stroke-width="1" stroke-linecap="butt"/><path d="M234.53687,194.28047c0,1.60283 -1.39521,1.79071 -2.96394,1.79071c-0.19154,0 0.31825,0.00189 0.12672,0.00435c-0.57457,0.00737 -1.73219,-0.53302 -1.73219,-1.42458c0,-1.94801 1.01848,-3.1412 1.13521,-3.14678c0.03891,-0.00186 1.29579,-0.37289 1.33474,-0.37289c0,0 0.96475,0.13907 1.41714,1.08949c0.48697,1.0231 0.68232,0.45686 0.68232,2.0597z" data-paper-data="{&quot;origPos&quot;:null}" fill="#a86f20" stroke="#000000" stroke-width="1" stroke-linecap="butt"/><path d="M252.51133,193.80176c0,1.33512 -1.16217,1.49162 -2.46888,1.49162c-0.15955,0 0.26509,0.00158 0.10555,0.00363c-0.4786,0.00614 -1.44287,-0.44399 -1.44287,-1.18664c0,-1.62265 0.84837,-2.61655 0.9456,-2.62119c0.03241,-0.00155 1.07936,-0.31061 1.11181,-0.31061c0,0 0.80362,0.11584 1.18044,0.90752c0.40563,0.85222 0.56836,0.38056 0.56836,1.71568z" data-paper-data="{&quot;origPos&quot;:null}" fill="#a86f20" stroke="#000000" stroke-width="1" stroke-linecap="butt"/><path d="M249.44318,195.02204c0,1.10801 -0.96448,1.23788 -2.04891,1.23788c-0.13241,0 0.22,0.00131 0.0876,0.00301c-0.39719,0.00509 -1.19743,-0.36847 -1.19743,-0.98479c0,-1.34663 0.70406,-2.17146 0.78475,-2.17531c0.0269,-0.00129 0.89576,-0.25777 0.92268,-0.25777c0,0 0.66692,0.09614 0.97964,0.75314c0.33663,0.70725 0.47168,0.31582 0.47168,1.42383z" data-paper-data="{&quot;origPos&quot;:null}" fill="#a86f20" stroke="#000000" stroke-width="1" stroke-linecap="butt"/><path d="M244.03426,194.83864c0,1.35542 -1.17984,1.5143 -2.50642,1.5143c-0.16197,0 0.26912,0.0016 0.10716,0.00368c-0.48588,0.00623 -1.46481,-0.45074 -1.46481,-1.20468c0,-1.64732 0.86127,-2.65633 0.95998,-2.66105c0.0329,-0.00157 1.09577,-0.31533 1.12871,-0.31533c0,0 0.81584,0.1176 1.19839,0.92132c0.4118,0.86517 0.577,0.38634 0.577,1.74177z" data-paper-data="{&quot;origPos&quot;:null}" fill="#a86f20" stroke="#000000" stroke-width="1" stroke-linecap="butt"/><path d="M256.49939,192.85105c0,1.46146 -1.27214,1.63276 -2.7025,1.63276c-0.17465,0 0.29017,0.00173 0.11554,0.00397c-0.52389,0.00672 -1.5794,-0.486 -1.5794,-1.29892c0,-1.77619 0.92864,-2.86413 1.03507,-2.86922c0.03548,-0.0017 1.18149,-0.34 1.21701,-0.34c0,0 0.87966,0.1268 1.29214,0.99339c0.44402,0.93286 0.62214,0.41657 0.62214,1.87802z" data-paper-data="{&quot;origPos&quot;:null}" fill="#a86f20" stroke="#000000" stroke-width="1" stroke-linecap="butt"/><path d="M228.57261,191.69611c0,1.60283 -1.56166,1.79071 -3.31754,1.79071c-0.21439,0 0.35621,0.00189 0.14184,0.00435c-0.64311,0.00737 -1.93885,-0.53302 -1.93885,-1.42458c0,-1.94801 1.13999,-3.1412 1.27064,-3.14678c0.04355,-0.00186 1.45038,-0.37289 1.49398,-0.37289c0,0 1.07985,0.13907 1.5862,1.08949c0.54507,1.0231 0.76372,0.45686 0.76372,2.0597z" data-paper-data="{&quot;origPos&quot;:null}" fill="#a86f20" stroke="#000000" stroke-width="1" stroke-linecap="butt"/><path d="M230.62883,193.42524c0,1.60283 -1.39521,1.79071 -2.96393,1.79071c-0.19154,0 0.31825,0.00189 0.12672,0.00435c-0.57457,0.00737 -1.73219,-0.53302 -1.73219,-1.42458c0,-1.94801 1.01848,-3.1412 1.1352,-3.14678c0.03891,-0.00186 1.29579,-0.37289 1.33474,-0.37289c0,0 0.96476,0.13907 1.41713,1.08949c0.48697,1.0231 0.68232,0.45686 0.68232,2.0597z" data-paper-data="{&quot;origPos&quot;:null}" fill="#a86f20" stroke="#000000" stroke-width="1" stroke-linecap="butt"/><path d="M258.72251,190.33777c0,1.35542 -1.17984,1.5143 -2.50642,1.5143c-0.16197,0 0.26912,0.0016 0.10716,0.00368c-0.48588,0.00623 -1.46481,-0.45074 -1.46481,-1.20468c0,-1.64732 0.86127,-2.65633 0.95998,-2.66105c0.0329,-0.00157 1.09577,-0.31533 1.12871,-0.31533c0,0 0.81584,0.1176 1.19839,0.92132c0.4118,0.86517 0.577,0.38634 0.577,1.74177z" data-paper-data="{&quot;origPos&quot;:null}" fill="#a86f20" stroke="#000000" stroke-width="1" stroke-linecap="butt"/><path d="M246.55522,194.75237c0,1.26208 -1.09858,1.41001 -2.33381,1.41001c-0.15081,0 0.25058,0.0015 0.09978,0.00343c-0.45242,0.0058 -1.36393,-0.4197 -1.36393,-1.12171c0,-0.67806 0.76087,-1.26748 1.17796,-1.80209c0.42684,-0.5471 0.07297,-0.96932 0.76688,-0.96932c0,0 1.65312,1.2176 1.65312,2.47967z" data-paper-data="{&quot;origPos&quot;:null}" fill="#a86f20" stroke="#000000" stroke-width="1" stroke-linecap="butt"/></g></g></svg>