<svg version="1.1" xmlns="http://www.w3.org/2000/svg" xmlns:xlink="http://www.w3.org/1999/xlink" width="55.14808" height="63.82883" viewBox="0,0,55.14808,63.82883"><g transform="translate(-215.06151,-142.65723)"><g data-paper-data="{&quot;isPaintingLayer&quot;:true}" fill="none" fill-rule="nonzero" stroke="none" stroke-width="none" stroke-linecap="butt" stroke-linejoin="miter" stroke-miterlimit="10" stroke-dasharray="" stroke-dashoffset="0" font-family="none" font-weight="none" font-size="none" text-anchor="none" style="mix-blend-mode: normal"><path d="M231.27052,191.15242c4.70339,0.74227 8.22807,3.16986 7.87262,5.42219c-0.35546,2.25233 -4.45647,3.47645 -9.15983,2.73419c-4.70339,-0.74227 -7.87259,-5.4222 -7.87259,-5.4222c0,0 4.45645,-3.47647 9.15981,-2.7342z" data-paper-data="{&quot;origRot&quot;:0,&quot;origPos&quot;:null,&quot;index&quot;:null}" fill="#2bd900" stroke="#000000" stroke-width="1.5"/><path d="M256.46703,193.89031c0,0 -3.13606,4.7022 -7.83407,5.4777c-4.69803,0.7755 -8.80757,-0.4196 -9.17894,-2.66936c-0.37138,-2.24977 3.13609,-4.70222 7.83408,-5.47773c4.69803,-0.7755 9.17893,2.66937 9.17893,2.66937z" data-paper-data="{&quot;origRot&quot;:0,&quot;origPos&quot;:null,&quot;index&quot;:null}" fill="#2bd900" stroke="#000000" stroke-width="1.5"/><path d="M238.77288,198.63264c0,0 -1.062,-7.03882 -1.10102,-11.47312c-0.0308,-3.50078 0.92204,-8.85945 0.92204,-8.85945l4.49982,-0.0396c0,0 -1.62866,4.32315 -1.60238,7.31046c0.04355,4.94772 1.78135,13.02209 1.78135,13.02209z" data-paper-data="{&quot;origPos&quot;:null,&quot;origRot&quot;:0}" fill="#a9ff59" stroke="#000000" stroke-width="2"/><path d="M223.81485,144.53203c3.44479,2.23987 5.36783,5.39296 4.2952,7.04255c-1.07261,1.64962 -4.73469,1.17113 -8.17949,-1.0688c-3.44479,-2.23987 -4.2952,-7.04255 -4.2952,-7.04255c0,0 4.73469,-1.17112 8.17949,1.0688z" data-paper-data="{&quot;origRot&quot;:0,&quot;origPos&quot;:null}" fill="#2fe500" stroke="#000000" stroke-width="1"/><path d="M260.45832,161.90678c-0.03766,8.78179 -8.28689,15.8656 -18.42518,15.8221c-10.13828,-0.04347 -18.32646,-7.19778 -18.28879,-15.97957c0.03766,-8.78179 8.28689,-15.86559 18.42518,-15.82209c10.13828,0.04347 18.32646,7.19778 18.28879,15.97956z" data-paper-data="{&quot;origPos&quot;:null,&quot;origRot&quot;:0}" fill="#a9ff59" stroke="#000000" stroke-width="3"/><path d="M269.20959,167.7942c-0.56524,5.62817 -4.04182,9.88228 -7.76515,9.50186c-3.72332,-0.38047 -6.28342,-5.25138 -5.71819,-10.87953c0.56524,-5.62817 4.04183,-9.88231 7.76515,-9.50186c3.72331,0.38046 6.28339,5.25137 5.71819,10.87953z" data-paper-data="{&quot;origPos&quot;:null,&quot;origRot&quot;:0}" fill="#a9ff59" stroke="#000000" stroke-width="2"/><path d="M261.49443,166.87818c-0.23377,2.77749 -1.50441,4.9365 -2.83805,4.82226c-1.33363,-0.11423 -2.22524,-2.45845 -1.99147,-5.23596c0.23377,-2.77749 1.50441,-4.9365 2.83804,-4.82224c1.33363,0.11423 2.22527,2.45845 1.99149,5.23596z" data-paper-data="{&quot;origRot&quot;:0,&quot;origPos&quot;:null}" fill="#84c746" stroke="none" stroke-width="0"/><path d="M229.53276,196.07997c4.91137,-1.74872 9.57168,-1.25974 10.40911,1.09219c0.83741,2.35192 -2.46518,5.67615 -7.37655,7.42488c-4.91137,1.74872 -10.4091,-1.0922 -10.4091,-1.0922c0,0 2.46517,-5.67616 7.37654,-7.42488z" data-paper-data="{&quot;origRot&quot;:0,&quot;origPos&quot;:null}" fill="#2fe500" stroke="#000000" stroke-width="2"/><path d="M257.10787,204.14008c0,0 -5.62592,2.5777 -10.4491,0.59866c-4.82316,-1.97905 -7.96486,-5.45574 -7.01714,-7.76543c0.94771,-2.30968 5.62594,-2.57772 10.44912,-0.59867c4.82316,1.97905 7.01712,7.76544 7.01712,7.76544z" data-paper-data="{&quot;origRot&quot;:0,&quot;origPos&quot;:null,&quot;index&quot;:null}" fill="#2fe500" stroke="#000000" stroke-width="2"/><path d="M247.54867,156.05664c0.37594,2.24257 -0.38069,4.30007 -1.69,4.59552c-1.3093,0.29546 -2.67549,-1.28301 -3.05143,-3.52558c-0.37594,-2.24257 0.38069,-4.30007 1.69,-4.59552c1.3093,-0.29546 2.67548,1.28301 3.05141,3.52557z" data-paper-data="{&quot;origPos&quot;:null,&quot;origRot&quot;:0}" fill="#000000" stroke="none" stroke-width="0"/><path d="M253.63662,155.97185c0.2832,1.68936 -0.28677,3.23926 -1.27308,3.46183c-0.98632,0.22256 -2.01544,-0.96649 -2.29865,-2.65586c-0.2832,-1.68936 0.28676,-3.23926 1.27308,-3.46183c0.98632,-0.22256 2.01546,0.9665 2.29867,2.65586z" data-paper-data="{&quot;origPos&quot;:null,&quot;origRot&quot;:0}" fill="#000000" stroke="none" stroke-width="0"/></g></g></svg>