<svg version="1.1" xmlns="http://www.w3.org/2000/svg" xmlns:xlink="http://www.w3.org/1999/xlink" width="53.5884" height="83.10064" viewBox="0,0,53.5884,83.10064"><defs><linearGradient x1="240.19427" y1="191.00524" x2="240.19427" y2="207.40821" gradientUnits="userSpaceOnUse" id="color-1"><stop offset="0" stop-color="#24693c"/><stop offset="1" stop-color="#4ecc71"/></linearGradient><radialGradient cx="244.30772" cy="173.39086" r="21.1235" gradientUnits="userSpaceOnUse" id="color-2"><stop offset="0" stop-color="#b3fa98"/><stop offset="1" stop-color="#05ac26"/></radialGradient><radialGradient cx="248.11678" cy="155.92147" r="14.99911" gradientUnits="userSpaceOnUse" id="color-3"><stop offset="0" stop-color="#036617"/><stop offset="1" stop-color="#037019"/></radialGradient><radialGradient cx="245.80159" cy="172.82638" r="6.67932" gradientUnits="userSpaceOnUse" id="color-4"><stop offset="0" stop-color="#adeba3"/><stop offset="1" stop-color="#32c144"/></radialGradient><linearGradient x1="237.71363" y1="178.44643" x2="229.93305" y2="194.45722" gradientUnits="userSpaceOnUse" id="color-5"><stop offset="0" stop-color="#a8d9ab"/><stop offset="1" stop-color="#50d844"/></linearGradient><radialGradient cx="243.50853" cy="173.34238" r="11.33088" gradientUnits="userSpaceOnUse" id="color-6"><stop offset="0" stop-color="#a5f48f"/><stop offset="1" stop-color="#32c144"/></radialGradient><linearGradient x1="256.8467" y1="166.93918" x2="249.14753" y2="182.78244" gradientUnits="userSpaceOnUse" id="color-7"><stop offset="0" stop-color="#baffa7"/><stop offset="1" stop-color="#82ff63"/></linearGradient><linearGradient x1="225.18023" y1="133.03208" x2="216.1433" y2="141.81239" gradientUnits="userSpaceOnUse" id="color-8"><stop offset="0" stop-color="#53db7a"/><stop offset="1" stop-color="#24693c"/></linearGradient></defs><g transform="translate(-212.41607,-124.79452)"><g data-paper-data="{&quot;isPaintingLayer&quot;:true}" fill="none" fill-rule="nonzero" stroke="none" stroke-width="none" stroke-linecap="none" stroke-linejoin="miter" stroke-miterlimit="10" stroke-dasharray="" stroke-dashoffset="0" font-family="none" font-weight="none" font-size="none" text-anchor="none" style="mix-blend-mode: normal"><path d="M265.50447,196.78898c0,2.05192 -4.46233,5.3969 -5.99869,5.1516c-2.211,-0.35301 -7.33647,-4.94385 -7.33647,-4.94385c0,0 3.94658,2.47919 5.06352,4.47218c1.09713,1.95763 1.60555,5.11132 -0.57043,5.66005c-0.81875,0.20647 -2.25973,-4.07958 -3.04313,-3.76452c-0.51129,0.20562 -0.20078,0.90011 -0.39866,1.41446c-0.48513,1.26101 -0.65474,2.07082 -2.00368,2.1474c-2.54931,0.14472 -1.21167,-3.82453 -3.65419,-3.08021c-1.3397,0.40825 -1.1077,1.11468 -2.17422,2.02242c-2.09749,1.78521 -2.63345,1.52666 -5.3878,1.52666c-3.37785,0 -7.03408,-6.82012 -7.03408,-6.82012c0,0 -9.27918,5.80446 -14.23348,3.40515c-1.85279,-0.89729 1.05445,-3.69416 2.6697,-4.97045c1.36434,-1.07803 4.18869,-1.43148 4.18869,-1.43148c0,0 -4.97845,1.0473 -7.10801,0.24077c-1.79846,-0.68114 -3.59951,-2.29397 -3.59951,-4.2171c0,-1.27932 7.86551,-0.1749 7.86551,-0.1749c0,0 -3.96234,-1.47362 -2.2704,-1.93843c6.91241,-1.899 31.59011,2.37702 33.85978,2.86475c0.75656,0.16258 7.08018,-1.36996 7.557,-0.76049c0.73094,0.93429 -2.67507,3.70814 -2.67507,3.70814c0,0 6.28359,-4.13562 6.28359,-0.51203z" data-paper-data="{&quot;origPos&quot;:null}" fill="url(#color-1)" stroke="#0f2c13" stroke-width="1" stroke-linecap="butt"/><path d="M226.36057,166.06432l1.20908,-2.48805l2.23925,1.08818l-1.20908,2.48805z" data-paper-data="{&quot;origPos&quot;:null,&quot;origRot&quot;:0}" fill="#1c5324" stroke="none" stroke-width="0" stroke-linecap="butt"/><path d="M261.68932,189.03211c-4.7793,9.83477 -16.74363,13.87606 -27.94236,8.43396c-11.19874,-5.44212 -13.93167,-16.62565 -9.15239,-26.46044c3.34011,-6.87323 6.25325,-8.26921 10.05481,-7.93857c2.75253,0.2394 2.99955,-3.32537 4.81817,-5.40537c1.02978,-1.17779 2.97984,-2.10821 3.83229,-0.79634c1.31297,2.02062 2.56077,5.55154 2.56077,5.55154c0,0 2.49116,-3.81146 3.77903,-1.45995c1.44629,2.64079 2.84625,4.11836 3.73821,6.51492c0,0 13.09083,11.7255 8.31155,21.56027z" data-paper-data="{&quot;origPos&quot;:null,&quot;origRot&quot;:0}" fill="url(#color-2)" stroke="#000000" stroke-width="1.5" stroke-linecap="butt"/><path d="M249.72953,190.03061c-0.73796,2.15078 -2.38355,3.59922 -3.67545,3.23512c-1.29191,-0.36405 -1.74096,-2.40279 -1.00298,-4.55357c0.73796,-2.15078 2.38355,-3.59922 3.67545,-3.23512c1.29191,0.36405 1.74095,2.40278 1.00296,4.55356z" data-paper-data="{&quot;origPos&quot;:null,&quot;origRot&quot;:0}" fill="#000000" stroke="none" stroke-width="0" stroke-linecap="butt"/><path d="M255.79092,190.85559c-0.57575,1.61327 -1.82861,2.68911 -2.79837,2.40294c-0.96978,-0.28618 -1.2892,-1.82595 -0.71346,-3.43926c0.57575,-1.61327 1.8286,-2.68912 2.79837,-2.40294c0.96978,0.28618 1.28923,1.82598 0.71349,3.43924z" data-paper-data="{&quot;origPos&quot;:null,&quot;origRot&quot;:0}" fill="#000000" stroke="none" stroke-width="0" stroke-linecap="butt"/><path d="M245.90353,163.36208c0.73083,-0.91418 2.60352,-0.57915 2.60514,-0.55629c0.92889,0.23668 0.92881,0.70419 0.8984,1.1854c-0.09121,1.4436 2.36575,6.12945 2.36575,6.12945c0,0 -7.32075,-4.94295 -5.86929,-6.75856z" data-paper-data="{&quot;origPos&quot;:null,&quot;index&quot;:null,&quot;origRot&quot;:0}" fill="#287732" stroke="none" stroke-width="0" stroke-linecap="butt"/><path d="M240.00431,168.56938l6.22675,-12.55324c0,0 -1.10708,-2.61851 -3.14209,-3.80612c-5.03485,-2.93831 -14.50476,-6.28365 -14.50476,-6.28365l3.35151,-1.10928c0,0 6.735,2.32095 10.63108,4.40946c3.74766,2.00892 7.36515,6.38395 7.36515,6.38395l-7.14538,18.34269z" data-paper-data="{&quot;origPos&quot;:null,&quot;origRot&quot;:0}" fill="url(#color-3)" stroke="#0f2c13" stroke-width="0.5" stroke-linecap="butt"/><path d="M240.85023,173.98262c0,0 0.89791,-7.87522 5.49645,-9.10711c1.22139,0.76951 1.04864,1.50306 2.43997,1.98966c0.77029,0.2694 0.12472,-3.60826 0.91123,-3.39079c1.25265,0.34639 2.67308,1.98341 3.35818,3.08785c1.21806,1.96357 2.93478,4.42768 2.93478,4.42768c0,0 -2.51305,2.70025 -6.925,3.88215c-2.6095,0.69903 -8.21561,-0.88942 -8.21561,-0.88942z" data-paper-data="{&quot;origPos&quot;:null,&quot;origRot&quot;:0}" fill="url(#color-4)" stroke="#256d2f" stroke-width="0.5" stroke-linecap="butt"/><path d="M248.34808,188.7541c-0.33479,0.97567 -1.08127,1.63274 -1.66734,1.46759c-0.58607,-0.16515 -0.78976,-1.09001 -0.45497,-2.06567c0.33479,-0.97567 1.08127,-1.63274 1.66734,-1.46759c0.58607,0.16515 0.78976,1.09001 0.45497,2.06566z" data-paper-data="{&quot;origPos&quot;:null,&quot;origRot&quot;:0}" fill="#ffffff" stroke="none" stroke-width="0" stroke-linecap="butt"/><path d="M254.70026,189.50751c-0.19633,0.55018 -0.6236,0.91706 -0.95432,0.81948c-0.33069,-0.09758 -0.43964,-0.62269 -0.24331,-1.17287c0.19633,-0.55018 0.6236,-0.91706 0.95432,-0.81948c0.33069,0.09758 0.43964,0.6227 0.2433,1.17287z" data-paper-data="{&quot;origPos&quot;:null,&quot;origRot&quot;:0}" fill="#ffffff" stroke="none" stroke-width="0" stroke-linecap="butt"/><path d="M237.95462,164.80659c0,0 1.95872,-5.30623 3.03736,-6.26996c0.35955,-0.32125 0.90245,-0.97112 1.66256,-0.38704c0.01897,-0.01286 1.36941,1.39689 1.10223,2.53641c-0.5306,2.26309 -0.4324,0.66227 -0.4324,0.66227z" data-paper-data="{&quot;origPos&quot;:null,&quot;origRot&quot;:0}" fill="#287732" stroke="none" stroke-width="0" stroke-linecap="butt"/><path d="M242.67039,181.48847c0,0 3.28278,-4.61791 4.72063,-3.7454c2.96764,1.80085 2.9776,6.09531 2.9776,6.09531c0,0 -2.03021,-2.44135 -3.36902,-2.85004c-1.66552,-0.5084 -4.32921,0.5001 -4.32921,0.5001z" data-paper-data="{&quot;origPos&quot;:null,&quot;origRot&quot;:0}" fill="#05ac26" stroke="#000000" stroke-width="0.5" stroke-linecap="butt"/><path d="M254.51507,184.75203c0,0 1.91703,-3.00595 3.84861,-3.10558c1.82223,-0.09397 2.56522,5.10702 2.56522,5.10702c0,0 -1.37936,-2.12992 -2.75784,-2.60727z" data-paper-data="{&quot;origPos&quot;:null,&quot;index&quot;:null,&quot;origRot&quot;:0}" fill="#05ac26" stroke="#000000" stroke-width="0.5" stroke-linecap="butt"/><path d="M225.87816,189.38225c-5.9552,-9.04607 -0.73896,-17.04646 -0.73896,-17.04646c0,0 0.62443,2.8786 1.59939,4.69211c1.6929,3.14898 3.48107,4.91448 5.45603,7.89467c0.68805,1.03822 2.55272,2.30352 3.08478,3.42966c0.57371,1.21432 0.20084,2.32421 0.41742,3.64965c0.15687,0.96015 0.7778,1.15449 1.36721,1.92854c1.97455,2.59314 6.2129,5.16816 6.2129,5.16816c0,0 -11.44353,-0.67021 -17.39873,-9.7163z" data-paper-data="{&quot;origPos&quot;:null,&quot;origRot&quot;:0}" fill="url(#color-5)" stroke="#287732" stroke-width="0" stroke-linecap="butt"/><path d="M223.67298,175.2212c0,0 0.12342,-7.12299 3.05561,-9.91565c2.9322,-2.79266 5.20171,0.45064 7.30263,-0.06995c2.20695,-0.54684 2.491,-0.41873 4.60207,-1.26315c1.61155,-0.64458 2.58039,-3.33623 4.29298,-3.6185c1.18835,-0.19586 1.55843,0.98531 2.51588,1.71591c1.04573,0.79797 -0.7315,4.68724 -0.7315,4.68724c0,0 2.83541,0.75882 1.5058,2.5234c-1.14529,1.51995 -1.89885,0.33504 -2.63827,2.08866c-0.89016,2.11107 2.50611,0.85533 1.30895,2.80875c-1.85832,3.03225 -2.86262,4.4098 -6.07726,5.93102c0,0 -5.9322,-0.56117 -8.75311,-1.55011c-3.40609,-1.19406 -6.38383,-3.33764 -6.38383,-3.33764z" data-paper-data="{&quot;origPos&quot;:null,&quot;origRot&quot;:0}" fill="url(#color-6)" stroke="#256d2f" stroke-width="0.5" stroke-linecap="butt"/><path d="M221.72077,178.75058c0.10939,-2.17323 1.28052,-2.2835 1.11498,-4.38188c-0.07223,-0.91557 -0.72255,-0.67588 -1.51228,-1.14473c-1.07463,-0.638 -2.4992,-1.32976 -2.22133,-2.54821c0.31133,-1.36508 3.195,-2.05493 3.195,-2.05493c0,0 -3.68332,-2.38087 -2.29215,-4.91733c1.44268,-2.63034 5.21502,-0.67796 5.87916,-1.11822c1.11776,-0.741 0.93329,-2.1785 2.2368,-1.86348c0.83796,0.20251 1.15235,3.50422 1.4556,2.6972c0.39276,-1.04532 2.99239,1.57553 2.99239,1.57553l-2.9378,0.30653c0,0 -2.32992,-0.46791 -3.02888,1.37714c-1.32994,3.51066 -1.8392,3.02538 -0.77898,6.62668c0.52368,1.7788 1.06585,6.04361 2.91284,6.42757c0.00563,1.81515 2.20781,2.84904 3.2584,4.32926c1.36462,1.9226 3.35858,4.95088 3.35858,4.95088c0,0 -2.04449,-2.12047 -2.98814,-2.50549c-2.66731,-1.08823 -2.56489,-0.19673 -4.56479,-2.27016c-0.86101,-0.89266 -0.59891,-2.0484 -1.5258,-2.87244c-2.11373,-1.87926 -4.66297,-0.44069 -4.55359,-2.61393z" data-paper-data="{&quot;origPos&quot;:null,&quot;origRot&quot;:0}" fill="#98ff7e" stroke="#256d2f" stroke-width="1" stroke-linecap="butt"/><path d="M240.82091,178.73605c0,0 1.16551,-0.79963 1.67306,-1.4163c0.78108,-0.94907 1.76963,-2.45448 1.76963,-2.45448c1.04517,-0.80209 1.77906,-0.77255 2.97479,-1.32563c1.09478,-0.50639 2.81304,-1.5118 2.81304,-1.5118c1.31166,-0.5774 6.29875,-1.40869 6.29875,-1.40869l-2.62951,-3.37233c0,0 1.43816,0.02525 2.19368,0.11608c4.32808,0.5204 9.08636,3.32568 8.11161,5.97123c-0.59425,1.61279 -3.33473,-1.60987 -5.91516,-0.47394c-1.08757,0.47876 -0.57157,3.16931 -1.96633,3.80118c-1.13943,0.51621 -2.5945,-3.2291 -3.74053,-2.7277c-0.80706,0.3531 -1.57229,2.61584 -2.383,2.77341c-1.2832,0.2494 -0.93997,-0.34812 -1.95362,-1.17356c-0.43164,-0.35151 -0.89896,-0.21576 -1.42361,-0.02969c-2.16601,0.76824 -1.2433,2.22101 -3.44111,2.8929c-1.53901,0.4705 -2.38165,0.33931 -2.38165,0.33931z" data-paper-data="{&quot;origPos&quot;:null,&quot;origRot&quot;:0}" fill="url(#color-7)" stroke="#256d2f" stroke-width="1" stroke-linecap="butt"/><path d="M257.25518,169.04636c0,0 3.02778,1.63823 2.01816,1.73189c-3.35016,0.31077 -4.71393,-0.36441 -7.92242,0.64848c-1.64161,0.51825 -3.42506,1.83536 -5.0285,2.46181c-4.39453,1.71695 -3.19068,5.02633 -7.81392,5.96745c-3.46153,0.70463 -10.49737,-1.87672 -10.49737,-1.87672" data-paper-data="{&quot;origPos&quot;:null,&quot;origRot&quot;:0}" fill="none" stroke="#287732" stroke-width="0.5" stroke-linecap="round"/><path d="M243.38122,199.10208c0,0 -2.13345,-1.42746 -3.47194,-2.60477c-1.4382,-1.26502 -2.32894,-2.26789 -3.51595,-3.77112c-2.05998,-2.60874 0.2738,-2.28304 -1.62578,-5.0108c-2.6916,-3.86509 -6.43975,-7.7186 -8.31607,-12.03866c-1.38444,-3.18761 -1.59275,-7.8995 1.19157,-9.90555c1.1612,-0.83664 2.02606,-0.58581 2.02606,-0.58581" data-paper-data="{&quot;origPos&quot;:null,&quot;origRot&quot;:0}" fill="none" stroke="#287732" stroke-width="0.5" stroke-linecap="round"/><path d="M231.33803,145.08523c-4.86144,3.57038 -11.98264,2.13452 -15.90566,-3.20705c-3.92301,-5.34159 -3.16228,-12.56617 1.69914,-16.13655c4.86144,-3.57038 19.06796,15.77321 14.20651,19.34359z" data-paper-data="{&quot;origPos&quot;:null,&quot;origRot&quot;:0}" fill="#2e8149" stroke="#0f2c13" stroke-width="0.5" stroke-linecap="butt"/><path d="M215.79995,126.31707c0.47573,-0.4335 1.64317,-1.10469 1.64317,-1.10469c0,0 0.10748,1.77883 -0.07223,2.19508c-0.53909,1.24866 -1.71609,2.35241 -1.71609,2.35241c0,0 1.39533,-0.90593 2.37147,0.93368c0.31071,0.58555 -0.88906,2.17156 -0.88906,2.17156c0,0 3.01615,0.02944 3.01126,1.5888c-0.00594,1.89136 -1.06125,3.29964 -1.06125,3.29964c0,0 3.05438,-0.46249 3.56229,0.32954c1.14842,1.79086 1.33784,3.42765 1.33784,3.42765c0,0 -0.58583,-1.98655 1.37937,-2.31905c1.44847,-0.24509 2.97192,2.76708 2.97192,2.76708c0,0 0.72276,-1.55507 1.62747,-1.81985c1.19645,-0.35013 1.22969,1.27787 1.22969,1.27787l1.72965,-1.13064c0,0 -0.2931,3.30164 -1.28179,4.33737c-1.32092,1.38376 -2.95841,1.78701 -4.83992,2.1328c-4.13961,0.76084 -8.8527,-1.16703 -11.39044,-4.52486c-1.35206,-1.78901 -1.71224,-3.21696 -2.45406,-5.33314c0,0 -0.70606,-3.44428 0.07323,-5.83747c0.57925,-1.77877 1.34038,-3.44327 2.76749,-4.74378z" data-paper-data="{&quot;origPos&quot;:null,&quot;origRot&quot;:0}" fill="url(#color-8)" stroke="#0f2c13" stroke-width="0.5" stroke-linecap="butt"/></g></g></svg>