<svg version="1.1" xmlns="http://www.w3.org/2000/svg" xmlns:xlink="http://www.w3.org/1999/xlink" width="56.09179" height="63.66106" viewBox="0,0,56.09179,63.66106"><g transform="translate(-215.39979,-143.86727)"><g data-paper-data="{&quot;isPaintingLayer&quot;:true}" fill="none" fill-rule="nonzero" stroke="none" stroke-width="none" stroke-linecap="butt" stroke-linejoin="miter" stroke-miterlimit="10" stroke-dasharray="" stroke-dashoffset="0" font-family="none" font-weight="none" font-size="none" text-anchor="none" style="mix-blend-mode: normal"><path d="M230.41763,190.75079c4.73926,0.46066 8.40236,2.67389 8.18177,4.9434c-0.2206,2.2695 -4.24136,3.73586 -8.98062,3.2752c-4.73926,-0.46066 -8.18175,-4.94339 -8.18175,-4.94339c0,0 4.24134,-3.73586 8.9806,-3.2752z" data-paper-data="{&quot;origRot&quot;:0,&quot;origPos&quot;:null,&quot;index&quot;:null}" fill="#2bd900" stroke="#000000" stroke-width="1.5"/><path d="M256.71259,194.82733c0,0 -3.51576,4.42551 -8.26195,4.80815c-4.74619,0.38264 -8.74229,-1.14963 -8.92553,-3.42247c-0.18324,-2.27282 3.51577,-4.42551 8.26196,-4.80816c4.74619,-0.38264 8.92552,3.42248 8.92552,3.42248z" data-paper-data="{&quot;origRot&quot;:0,&quot;origPos&quot;:null,&quot;index&quot;:null}" fill="#2bd900" stroke="#000000" stroke-width="1.5"/><path d="M235.04853,196.92225c0,0 1.22653,-7.01203 2.59665,-11.22952c1.08168,-3.3296 3.68577,-8.10894 3.68577,-8.10894l4.27981,1.39038c0,0 -2.91638,3.58289 -3.8394,6.42414c-1.52877,4.70583 -2.44303,12.91433 -2.44303,12.91433z" data-paper-data="{&quot;origPos&quot;:null,&quot;origRot&quot;:0}" fill="#a9ff59" stroke="#000000" stroke-width="2"/><path d="M223.89556,146.47737c3.1287,2.66362 4.63099,6.03749 3.35545,7.53574c-1.27554,1.49825 -4.84588,0.55353 -7.97458,-2.1101c-3.1287,-2.66362 -3.35545,-7.53574 -3.35545,-7.53574c0,0 4.84588,-0.55353 7.97458,2.1101z" data-paper-data="{&quot;origRot&quot;:0,&quot;origPos&quot;:null}" fill="#2fe500" stroke="#000000" stroke-width="1"/><path d="M261.72728,163.94562c0,8.78187 -8.21877,15.90098 -18.35715,15.90098c-10.13837,0 -18.35715,-7.11911 -18.35715,-15.90098c0,-8.78187 8.21877,-15.90097 18.35715,-15.90097c10.13837,0 18.35715,7.11911 18.35715,15.90097z" data-paper-data="{&quot;origPos&quot;:null}" fill="#a9ff59" stroke="#000000" stroke-width="3"/><path d="M248.70271,158.8603c0.63467,2.1835 0.12291,4.31513 -1.14306,4.76112c-1.26596,0.44599 -2.80674,-0.96254 -3.44141,-3.14604c-0.63467,-2.1835 -0.12291,-4.31513 1.14306,-4.76112c1.26596,-0.44599 2.80673,0.96254 3.4414,3.14604z" data-paper-data="{&quot;origPos&quot;:null,&quot;origRot&quot;:0}" fill="#000000" stroke="none" stroke-width="0"/><path d="M254.73932,158.06677c0.4781,1.64486 0.09259,3.25062 -0.86107,3.58659c-0.95367,0.33597 -2.11433,-0.72509 -2.59243,-2.36995c-0.4781,-1.64486 -0.0926,-3.25062 0.86107,-3.58659c0.95367,-0.33597 2.11434,0.72509 2.59244,2.36995z" data-paper-data="{&quot;origPos&quot;:null,&quot;origRot&quot;:0}" fill="#000000" stroke="none" stroke-width="0"/><path d="M270.38764,169.28076c-0.56287,5.68305 -4.15618,9.99226 -8.0259,9.62487c-3.86972,-0.36739 -6.55045,-5.27224 -5.98758,-10.9553c0.56287,-5.68305 4.15619,-9.99226 8.0259,-9.62487c3.86971,0.36739 6.55044,5.27225 5.98757,10.9553z" data-paper-data="{&quot;origPos&quot;:null,&quot;origRot&quot;:0}" fill="#a9ff59" stroke="#000000" stroke-width="2"/><path d="M262.36859,168.39056c-0.23084,2.80439 -1.54152,4.98914 -2.9275,4.87979c-1.38597,-0.10935 -2.3224,-2.47142 -2.09156,-5.2758c0.23084,-2.80438 1.54152,-4.98914 2.92749,-4.87978c1.38597,0.10935 2.32241,2.47141 2.09157,5.2758z" data-paper-data="{&quot;origRot&quot;:0,&quot;origPos&quot;:null}" fill="#84c746" stroke="none" stroke-width="0"/><path d="M229.66476,196.31132c4.97357,-1.56308 9.61224,-0.89946 10.36076,1.48226c0.74852,2.38171 -2.67656,5.57959 -7.65013,7.14267c-4.97357,1.56308 -10.36075,-1.48226 -10.36075,-1.48226c0,0 2.67655,-5.57959 7.65012,-7.14267z" data-paper-data="{&quot;origRot&quot;:0,&quot;origPos&quot;:null}" fill="#2fe500" stroke="#000000" stroke-width="2"/><path d="M256.05317,204.93506c0,0 -5.71572,2.37196 -10.46394,0.21928c-4.74822,-2.15269 -7.76173,-5.74104 -6.73087,-8.01484c1.03086,-2.2738 5.71573,-2.37197 10.46395,-0.21928c4.74822,2.15269 6.73085,8.01486 6.73085,8.01486z" data-paper-data="{&quot;origRot&quot;:0,&quot;origPos&quot;:null,&quot;index&quot;:null}" fill="#2fe500" stroke="#000000" stroke-width="2"/></g></g></svg>