<svg version="1.1" xmlns="http://www.w3.org/2000/svg" xmlns:xlink="http://www.w3.org/1999/xlink" width="14.94993" height="50.21928"><defs><radialGradient cx="241.21825" cy="183.14134" r="3.58833" gradientUnits="userSpaceOnUse" id="color-1"><stop offset="0" stop-color="#ffffff"/><stop offset="1" stop-color="#ff0000"/></radialGradient></defs><g transform="translate(-234.7861,-146.6373)"><g data-paper-data="{&quot;isPaintingLayer&quot;:true}" fill="none" fill-rule="nonzero" stroke="#000000" stroke-width="none" stroke-linecap="butt" stroke-linejoin="miter" stroke-miterlimit="10" stroke-dasharray="" stroke-dashoffset="0" font-family="none" font-weight="none" font-size="none" text-anchor="none" style="mix-blend-mode: normal"><path d="M245.46401,192.40941c0,1.35542 -1.17984,1.5143 -2.50642,1.5143c-0.16197,0 0.26912,0.0016 0.10716,0.00368c-0.48588,0.00623 -1.46481,-0.45074 -1.46481,-1.20468c0,-1.64732 0.86127,-2.65633 0.95998,-2.66105c0.0329,-0.00157 1.09577,-0.31533 1.12871,-0.31533c0,0 0.81584,0.1176 1.19839,0.92132c0.4118,0.86517 0.577,0.38634 0.577,1.74177z" data-paper-data="{&quot;origPos&quot;:null}" fill="#a86f20" stroke-width="1"/><path d="M241.21998,192.28016c0,1.1787 -1.14842,1.31686 -2.43966,1.31686c-0.15766,0 0.26195,0.00139 0.10431,0.0032c-0.47293,0.00542 -1.4258,-0.39197 -1.4258,-1.04761c0,-1.43253 0.83833,-2.30999 0.93441,-2.31409c0.03203,-0.00137 1.06659,-0.27422 1.09865,-0.27422c0,0 0.7941,0.10227 1.16647,0.80119c0.40084,0.75237 0.56163,0.33597 0.56163,1.51467z" data-paper-data="{&quot;origPos&quot;:null}" fill="#a86f20" stroke-width="1"/><path d="M238.81853,194.69497c0,-1.94217 1.77238,-3.51661 3.95872,-3.51661c2.18634,0 3.95872,1.57444 3.95872,3.51661c0,1.94217 -7.91744,1.94217 -7.91744,0z" data-paper-data="{&quot;origPos&quot;:null}" fill="#ffeeac" stroke-width="0.5"/><path d="M235.93859,146.6373z" fill="#fff0a7" stroke-width="2"/><path d="M241.58568,193.0871l0.07816,-6.21253l2.16053,0.1927l-0.07817,6.21252c0,0 -0.68513,0.52442 -1.0893,0.48838c-0.43902,-0.03915 -1.07124,-0.68107 -1.07124,-0.68107z" data-paper-data="{&quot;origPos&quot;:null,&quot;origRot&quot;:0}" fill="#bebebe" stroke-width="0.5"/><path d="M239.37369,184.21531c0.45397,-1.92909 2.38581,-3.1249 4.31489,-2.67093c1.92909,0.45397 3.12489,2.38581 2.67093,4.31489c-0.45397,1.92909 -2.3858,3.12489 -4.31489,2.67093c-1.92909,-0.45397 -3.1249,-2.3858 -2.67093,-4.31489z" data-paper-data="{&quot;origPos&quot;:null,&quot;origRot&quot;:0}" fill="url(#color-1)" stroke-width="0.5"/><path d="M238.88406,194.35337c0,1.26208 -1.09859,1.41001 -2.33381,1.41001c-0.15082,0 0.25058,0.0015 0.09978,0.00343c-0.45241,0.0058 -1.36393,-0.4197 -1.36393,-1.12171c0,-1.53387 1.91417,-2.7714 1.94484,-2.7714c0,0 0.75965,0.1095 1.11586,0.85786c0.38344,0.80559 0.53726,0.35973 0.53726,1.62181z" data-paper-data="{&quot;origPos&quot;:null}" fill="#a86f20" stroke-width="1"/><path d="M240.54881,194.89931c0,0.96663 -0.84141,1.07993 -1.78748,1.07993c-0.11551,0 0.19193,0.00114 0.07642,0.00263c-0.3465,0.00444 -1.04464,-0.32145 -1.04464,-0.85913c0,-1.1748 0.61422,-1.89439 0.68461,-1.89775c0.02346,-0.00112 0.78146,-0.22488 0.80495,-0.22488c0,0 0.58182,0.08387 0.85464,0.65704c0.29368,0.61701 0.41149,0.27552 0.41149,1.24215z" data-paper-data="{&quot;origPos&quot;:null}" fill="#a86f20" stroke-width="1"/><path d="M248.98954,193.18027c0,1.33512 -1.16217,1.49162 -2.46888,1.49162c-0.15955,0 0.26509,0.00158 0.10555,0.00363c-0.4786,0.00614 -1.44287,-0.44399 -1.44287,-1.18664c0,-1.62265 0.84837,-2.61655 0.9456,-2.62119c0.03241,-0.00155 1.07936,-0.31061 1.11181,-0.31061c0,0 0.80362,0.11584 1.18044,0.90752c0.40563,0.85222 0.56836,0.38056 0.56836,1.71568z" data-paper-data="{&quot;origPos&quot;:null}" fill="#a86f20" stroke-width="1"/><path d="M249.23602,194.19338c0,1.10801 -0.96448,1.23788 -2.04891,1.23788c-0.13241,0 0.22,0.00131 0.0876,0.00301c-0.39719,0.00509 -1.19743,-0.36847 -1.19743,-0.98479c0,-1.34663 0.70406,-2.17146 0.78475,-2.17531c0.0269,-0.00129 0.89576,-0.25777 0.92268,-0.25777c0,0 0.66692,0.09614 0.97964,0.75314c0.33663,0.70725 0.47168,0.31582 0.47168,1.42383z" data-paper-data="{&quot;origPos&quot;:null}" fill="#a86f20" stroke-width="1"/><path d="M244.03426,194.83864c0,1.35542 -1.17984,1.5143 -2.50642,1.5143c-0.16197,0 0.26912,0.0016 0.10716,0.00368c-0.48588,0.00623 -1.46481,-0.45074 -1.46481,-1.20468c0,-1.64732 0.86127,-2.65633 0.95998,-2.66105c0.0329,-0.00157 1.09577,-0.31533 1.12871,-0.31533c0,0 0.81584,0.1176 1.19839,0.92132c0.4118,0.86517 0.577,0.38634 0.577,1.74177z" data-paper-data="{&quot;origPos&quot;:null}" fill="#a86f20" stroke-width="1"/><path d="M246.55522,194.75237c0,1.26208 -1.09858,1.41001 -2.33381,1.41001c-0.15081,0 0.25058,0.0015 0.09978,0.00343c-0.45242,0.0058 -1.36393,-0.4197 -1.36393,-1.12171c0,-0.67806 0.76087,-1.26748 1.17796,-1.80209c0.42684,-0.5471 0.07297,-0.96932 0.76688,-0.96932c0,0 1.65312,1.2176 1.65312,2.47967z" data-paper-data="{&quot;origPos&quot;:null}" fill="#a86f20" stroke-width="1"/></g></g></svg>