<svg version="1.1" xmlns="http://www.w3.org/2000/svg" xmlns:xlink="http://www.w3.org/1999/xlink" width="59.60964" height="67.76986" viewBox="0,0,59.60964,67.76986"><g transform="translate(-213.45243,-139.0319)"><g data-paper-data="{&quot;isPaintingLayer&quot;:true}" fill="none" fill-rule="nonzero" stroke="none" stroke-width="none" stroke-linecap="none" stroke-linejoin="miter" stroke-miterlimit="10" stroke-dasharray="" stroke-dashoffset="0" font-family="none" font-weight="none" font-size="none" text-anchor="none" style="mix-blend-mode: normal"><path d="M232.2138,163.21529c-1.72063,1.54929 -6.61351,1.36384 -10.30033,-1.90013c-3.68681,-3.26394 -3.9825,-12.35181 -3.9825,-12.35181c0,0 3.78206,2.94494 4.72841,3.06734c0,0 5.33795,0.1046 7.24338,1.87518c2.50878,2.33122 4.03166,7.76012 2.31102,9.30942z" data-paper-data="{&quot;origRot&quot;:0,&quot;origPos&quot;:null}" fill="#26bd00" stroke="#000000" stroke-width="1" stroke-linecap="butt"/><path d="M230.78614,162.3787c0.78728,2.18238 -0.82862,6.15094 -4.66926,7.61877c-3.84063,1.46784 -11.55895,-2.71562 -11.55895,-2.71562c0,0 3.60123,-1.70231 3.98642,-2.42772c0,0 1.68082,-4.37718 3.73603,-5.09501c2.70597,-0.94512 7.7185,0.43719 8.50577,2.61958z" data-paper-data="{&quot;origRot&quot;:0,&quot;origPos&quot;:null}" fill="#26bd00" stroke="#000000" stroke-width="1" stroke-linecap="butt"/><path d="M232.46145,156.97529c-2.32347,0.34617 -6.22907,-2.01781 -7.3336,-6.07766c-1.10455,-4.05983 4.00037,-10.82248 4.00037,-10.82248c0,0 1.37041,3.87057 2.07489,4.3909c0,0 4.31838,2.50775 4.83998,4.667c0.68678,2.84297 -1.25816,7.49607 -3.58163,7.84224z" data-paper-data="{&quot;origRot&quot;:0,&quot;origPos&quot;:null}" fill="#26bd00" stroke="#000000" stroke-width="1" stroke-linecap="butt"/><path d="M230.61393,191.3634c4.70628,0.72373 8.2405,3.1374 7.89393,5.39112c-0.34658,2.25371 -4.44273,3.49399 -9.14898,2.77027c-4.70628,-0.72373 -7.8939,-5.39113 -7.8939,-5.39113c0,0 4.44271,-3.49401 9.14896,-2.77028z" data-paper-data="{&quot;origRot&quot;:0,&quot;origPos&quot;:null,&quot;index&quot;:null}" fill="#2bd900" stroke="#000000" stroke-width="1.5" stroke-linecap="butt"/><path d="M255.90996,195.1778c0,0 -3.48248,4.45173 -8.22567,4.86994c-4.7432,0.41821 -8.75067,-1.08407 -8.95094,-3.35547c-0.20028,-2.2714 3.48251,-4.45175 8.22568,-4.86996c4.7432,-0.41821 8.95093,3.35548 8.95093,3.35548z" data-paper-data="{&quot;origRot&quot;:0,&quot;origPos&quot;:null,&quot;index&quot;:null}" fill="#2bd900" stroke="#000000" stroke-width="1.5" stroke-linecap="butt"/><path d="M234.92114,197.2918c0,0 1.13118,-7.02803 2.4439,-11.26375c1.03637,-3.34399 3.57529,-8.15827 3.57529,-8.15827l4.2983,1.33212c0,0 -2.86742,3.62216 -3.7518,6.47569c-1.46471,4.72614 -2.2674,12.94631 -2.2674,12.94631z" data-paper-data="{&quot;origPos&quot;:null,&quot;origRot&quot;:0}" fill="#a9ff59" stroke="#000000" stroke-width="2" stroke-linecap="butt"/><path d="M264.34973,164.824c0,8.78187 -8.21877,15.90098 -18.35715,15.90098c-10.13837,0 -18.35715,-7.11911 -18.35715,-15.90098c0,-8.78187 8.21877,-15.90097 18.35715,-15.90097c10.13837,0 18.35715,7.11911 18.35715,15.90097z" data-paper-data="{&quot;origPos&quot;:null}" fill="#a9ff59" stroke="#000000" stroke-width="3" stroke-linecap="butt"/><path d="M272.06207,169.96614c-0.4994,5.04233 -3.6876,8.86571 -7.12104,8.53976c-3.43344,-0.32598 -5.81193,-4.67783 -5.31252,-9.72018c0.4994,-5.04233 3.68762,-8.86571 7.12104,-8.53976c3.43343,0.32598 5.81191,4.67784 5.31252,9.72018z" data-paper-data="{&quot;origPos&quot;:null,&quot;origRot&quot;:0}" fill="#a9ff59" stroke="#000000" stroke-width="2" stroke-linecap="butt"/><path d="M264.9471,169.17631c-0.20482,2.48821 -1.36772,4.42666 -2.59746,4.32963c-1.22972,-0.09702 -2.06056,-2.19279 -1.85575,-4.681c0.20482,-2.48821 1.36772,-4.42666 2.59745,-4.32962c1.22972,0.09702 2.06057,2.19279 1.85576,4.681z" data-paper-data="{&quot;origRot&quot;:0,&quot;origPos&quot;:null}" fill="#84c746" stroke="none" stroke-width="0" stroke-linecap="butt"/><path d="M230.36442,195.90348c5.11262,-1.02015 9.65324,0.13758 10.14178,2.58589c0.48852,2.44829 -3.26005,5.26002 -8.37267,6.28018c-5.11262,1.02015 -10.14177,-2.58589 -10.14177,-2.58589c0,0 3.26004,-5.26003 8.37266,-6.28018z" data-paper-data="{&quot;origRot&quot;:0,&quot;origPos&quot;:null}" fill="#2fe500" stroke="#000000" stroke-width="2" stroke-linecap="butt"/><path d="M256.09603,204.67454c0,0 -5.71375,2.37668 -10.46376,0.22793c-4.74999,-2.14876 -7.76648,-5.73462 -6.73749,-8.00927c1.02898,-2.27464 5.71377,-2.3767 10.46377,-0.22794c4.74999,2.14876 6.73748,8.00928 6.73748,8.00928z" data-paper-data="{&quot;origRot&quot;:0,&quot;origPos&quot;:null,&quot;index&quot;:null}" fill="#2fe500" stroke="#000000" stroke-width="2" stroke-linecap="butt"/><path d="M248.32001,158.29724l4.26867,-0.85373" fill="none" stroke="#000000" stroke-width="0.5" stroke-linecap="round"/><path d="M257.49765,156.58978l-2.77464,0.42686" fill="none" stroke="#000000" stroke-width="0.5" stroke-linecap="round"/><path d="M254.81862,164.80345c0,0 3.15888,-0.38764 4.15036,0.87119c1.15079,1.46107 1.33892,6.0982 1.33892,6.0982" data-paper-data="{&quot;origPos&quot;:null,&quot;origRot&quot;:0}" fill="none" stroke="#000000" stroke-width="1" stroke-linecap="round"/><path d="M244.36267,157.12592l-0.87316,-4.49052c0,0 4.76812,-0.08519 6.94175,0.7385c2.30405,0.87312 2.66298,4.0015 2.66298,4.0015c0,0 -1.14075,-1.49684 -3.86684,-1.49684c-1.89853,0 -4.86473,1.24737 -4.86473,1.24737z" data-paper-data="{&quot;origPos&quot;:null}" fill="#26bd00" stroke="#000000" stroke-width="0.5" stroke-linecap="butt"/><path d="M257.30773,154.81266c-2.05336,0.41413 -2.70381,1.81535 -2.70381,1.81535c0,0 -0.16601,-2.62085 1.44767,-3.68712c1.52233,-1.00591 5.12569,-1.66038 5.12569,-1.66038l-0.03132,3.81638c0,0 -2.40821,-0.57265 -3.83823,-0.28423z" data-paper-data="{&quot;origPos&quot;:null,&quot;index&quot;:null,&quot;origRot&quot;:0}" fill="#26bd00" stroke="#000000" stroke-width="0.5" stroke-linecap="butt"/></g></g></svg>