<svg version="1.1" xmlns="http://www.w3.org/2000/svg" xmlns:xlink="http://www.w3.org/1999/xlink" width="37.47951" height="59.6497" viewBox="0,0,37.47951,59.6497"><g transform="translate(-217.36098,-159.62668)"><g data-paper-data="{&quot;isPaintingLayer&quot;:true}" fill="none" fill-rule="nonzero" stroke="none" stroke-width="none" stroke-linecap="butt" stroke-linejoin="miter" stroke-miterlimit="10" stroke-dasharray="" stroke-dashoffset="0" font-family="none" font-weight="none" font-size="none" text-anchor="none" style="mix-blend-mode: normal"><path d="M218.92847,190.89736l-0.50876,-8.38458l19.36438,-1.17499l0.50876,8.38458z" data-paper-data="{&quot;origPos&quot;:null,&quot;origRot&quot;:0}" fill="#c07a00" stroke="#000000" stroke-width="2"/><path d="M229.44941,199.68903l1.29838,-19.95781l19.35908,1.25943l-1.29838,19.95781z" data-paper-data="{&quot;origPos&quot;:null,&quot;origRot&quot;:0}" fill="#c07a00" stroke="#000000" stroke-width="2"/><path d="M253.84049,173.27717c-0.42294,6.5012 -6.60175,11.3918 -13.80075,10.92346c-7.199,-0.46834 -12.69208,-6.11827 -12.26914,-12.61947c0.42294,-6.5012 6.60175,-11.3918 13.80075,-10.92346c7.199,0.46834 12.69208,6.11827 12.26914,12.61947z" data-paper-data="{&quot;origPos&quot;:null,&quot;origRot&quot;:0}" fill="#b2b2b2" stroke="#000000" stroke-width="2"/><path d="M240.48419,168.7041c-0.10756,1.65335 -1.28376,2.92282 -2.62711,2.83543c-1.34335,-0.08739 -2.34516,-1.49856 -2.2376,-3.15191c0.10756,-1.65335 1.28376,-2.92282 2.62711,-2.83543c1.34335,0.08739 2.34516,1.49856 2.2376,3.15191z" data-paper-data="{&quot;origPos&quot;:null,&quot;origRot&quot;:0}" fill="#ff0000" stroke="none" stroke-width="0"/><path d="M234.38814,168.4453c-0.09636,1.48114 -1.12385,2.62007 -2.29499,2.54388c-1.17113,-0.07619 -2.0424,-1.33864 -1.94605,-2.81978c0.09636,-1.48114 1.12385,-2.62007 2.29499,-2.54388c1.17113,0.07619 2.0424,1.33864 1.94605,2.81978z" data-paper-data="{&quot;origPos&quot;:null,&quot;origRot&quot;:0}" fill="#ff0000" stroke="none" stroke-width="0"/><path d="M228.16157,216.88583l2.71202,-17.18735l7.90223,1.24691l-2.71202,17.18735z" data-paper-data="{&quot;origPos&quot;:null,&quot;origRot&quot;:0}" fill="#4c517f" stroke="#000000" stroke-width="2"/><path d="M241,218.1625v-17.6h8v17.6z" data-paper-data="{&quot;origPos&quot;:null}" fill="#4c517f" stroke="#000000" stroke-width="2"/><path d="M221.55719,186.92953l1.85206,-8.19328l18.92258,4.27737l-1.85206,8.19328z" data-paper-data="{&quot;origPos&quot;:null,&quot;origRot&quot;:0}" fill="#c07a00" stroke="#000000" stroke-width="2"/></g></g></svg>