<svg version="1.1" xmlns="http://www.w3.org/2000/svg" xmlns:xlink="http://www.w3.org/1999/xlink" width="380.75002" height="267.13247"><g transform="translate(-96.23981,-54.12127)"><g data-paper-data="{&quot;isPaintingLayer&quot;:true}" fill="none" fill-rule="nonzero" stroke="#000000" stroke-width="4" stroke-linecap="butt" stroke-linejoin="miter" stroke-miterlimit="10" stroke-dasharray="" stroke-dashoffset="0" font-family="none" font-weight="none" font-size="none" text-anchor="none" style="mix-blend-mode: normal"><path d="M140.39479,109.25374h-42.15497v-52.88247h42.15497z" data-paper-data="{&quot;origPos&quot;:null,&quot;index&quot;:null,&quot;origRot&quot;:0}" fill="#24b200"/><path d="M182.54979,109.25374h-42.15498v-52.88247h42.15498z" data-paper-data="{&quot;origPos&quot;:null,&quot;index&quot;:null,&quot;origRot&quot;:0}" fill="#2bd800"/><path d="M224.70475,109.25374h-42.15498v-52.88247h42.15498z" data-paper-data="{&quot;origPos&quot;:null,&quot;index&quot;:null,&quot;origRot&quot;:0}" fill="#24b200"/><path d="M266.85973,109.25374h-42.15497v-52.88247h42.15497z" data-paper-data="{&quot;origPos&quot;:null,&quot;index&quot;:null,&quot;origRot&quot;:0}" fill="#2bd800"/><path d="M309.01472,109.25374h-42.15498v-52.88247h42.15498z" data-paper-data="{&quot;origPos&quot;:null,&quot;index&quot;:null,&quot;origRot&quot;:0}" fill="#24b200"/><path d="M351.16969,109.25374h-42.15498v-52.88247h42.15498z" data-paper-data="{&quot;origPos&quot;:null,&quot;index&quot;:null,&quot;origRot&quot;:0}" fill="#2bd800"/><path d="M393.54423,109.25374h-42.15497v-52.88247h42.15497z" data-paper-data="{&quot;origPos&quot;:null,&quot;index&quot;:null,&quot;origRot&quot;:0}" fill="#24b200"/><path d="M435.54762,109.25374h-42.15497v-52.88247h42.15497z" data-paper-data="{&quot;origPos&quot;:null,&quot;index&quot;:null,&quot;origRot&quot;:0}" fill="#2bd800"/><path d="M474.98984,109.00374h-42.15498v-52.88247h42.15498z" data-paper-data="{&quot;origPos&quot;:null,&quot;index&quot;:null,&quot;origRot&quot;:0}" fill="#24b200"/><path d="M140.39479,161.25374h-42.15497v-52.88247h42.15497z" data-paper-data="{&quot;origPos&quot;:null,&quot;index&quot;:null,&quot;origRot&quot;:0}" fill="#2bd800"/><path d="M182.54979,161.25374h-42.15498v-52.88247h42.15498z" data-paper-data="{&quot;origPos&quot;:null,&quot;index&quot;:null,&quot;origRot&quot;:0}" fill="#24b200"/><path d="M224.70475,161.25374h-42.15498v-52.88247h42.15498z" data-paper-data="{&quot;origPos&quot;:null,&quot;index&quot;:null,&quot;origRot&quot;:0}" fill="#2bd800"/><path d="M266.85973,161.25374h-42.15497v-52.88247h42.15497z" data-paper-data="{&quot;origPos&quot;:null,&quot;index&quot;:null,&quot;origRot&quot;:0}" fill="#24b200"/><path d="M309.01472,161.25374h-42.15498v-52.88247h42.15498z" data-paper-data="{&quot;origPos&quot;:null,&quot;index&quot;:null,&quot;origRot&quot;:0}" fill="#2bd800"/><path d="M351.16969,161.25374h-42.15498v-52.88247h42.15498z" data-paper-data="{&quot;origPos&quot;:null,&quot;index&quot;:null,&quot;origRot&quot;:0}" fill="#24b200"/><path d="M393.54423,161.25374h-42.15497v-52.88247h42.15497z" data-paper-data="{&quot;origPos&quot;:null,&quot;index&quot;:null,&quot;origRot&quot;:0}" fill="#2bd800"/><path d="M435.54762,161.25374h-42.15497v-52.88247h42.15497z" data-paper-data="{&quot;origPos&quot;:null,&quot;index&quot;:null,&quot;origRot&quot;:0}" fill="#24b200"/><path d="M474.98984,161.00374h-42.15498v-52.88247h42.15498z" data-paper-data="{&quot;origPos&quot;:null,&quot;index&quot;:null,&quot;origRot&quot;:0}" fill="#2bd800"/><path d="M140.39479,213.25374h-42.15497v-52.88247h42.15497z" data-paper-data="{&quot;origPos&quot;:null,&quot;index&quot;:null,&quot;origRot&quot;:0}" fill="#24b200"/><path d="M182.54979,213.25374h-42.15498v-52.88247h42.15498z" data-paper-data="{&quot;origPos&quot;:null,&quot;index&quot;:null,&quot;origRot&quot;:0}" fill="#2bd800"/><path d="M224.70475,213.25374h-42.15498v-52.88247h42.15498z" data-paper-data="{&quot;origPos&quot;:null,&quot;index&quot;:null,&quot;origRot&quot;:0}" fill="#24b200"/><path d="M266.85973,213.25374h-42.15497v-52.88247h42.15497z" data-paper-data="{&quot;origPos&quot;:null,&quot;index&quot;:null,&quot;origRot&quot;:0}" fill="#2bd800"/><path d="M309.01472,213.25374h-42.15498v-52.88247h42.15498z" data-paper-data="{&quot;origPos&quot;:null,&quot;index&quot;:null,&quot;origRot&quot;:0}" fill="#24b200"/><path d="M351.16969,213.25374h-42.15498v-52.88247h42.15498z" data-paper-data="{&quot;origPos&quot;:null,&quot;index&quot;:null,&quot;origRot&quot;:0}" fill="#2bd800"/><path d="M393.54423,213.25374h-42.15497v-52.88247h42.15497z" data-paper-data="{&quot;origPos&quot;:null,&quot;index&quot;:null,&quot;origRot&quot;:0}" fill="#24b200"/><path d="M435.54762,213.25374h-42.15497v-52.88247h42.15497z" data-paper-data="{&quot;origPos&quot;:null,&quot;index&quot;:null,&quot;origRot&quot;:0}" fill="#2bd800"/><path d="M474.98984,213.00374h-42.15498v-52.88247h42.15498z" data-paper-data="{&quot;origPos&quot;:null,&quot;index&quot;:null,&quot;origRot&quot;:0}" fill="#24b200"/><path d="M140.39479,266.25374h-42.15497v-52.88247h42.15497z" data-paper-data="{&quot;origPos&quot;:null,&quot;index&quot;:null,&quot;origRot&quot;:0}" fill="#2bd800"/><path d="M182.54979,266.25374h-42.15498v-52.88247h42.15498z" data-paper-data="{&quot;origPos&quot;:null,&quot;index&quot;:null,&quot;origRot&quot;:0}" fill="#24b200"/><path d="M224.70475,266.25374h-42.15498v-52.88247h42.15498z" data-paper-data="{&quot;origPos&quot;:null,&quot;index&quot;:null,&quot;origRot&quot;:0}" fill="#2bd800"/><path d="M266.85973,266.25374h-42.15497v-52.88247h42.15497z" data-paper-data="{&quot;origPos&quot;:null,&quot;index&quot;:null,&quot;origRot&quot;:0}" fill="#24b200"/><path d="M309.01472,266.25374h-42.15498v-52.88247h42.15498z" data-paper-data="{&quot;origPos&quot;:null,&quot;index&quot;:null,&quot;origRot&quot;:0}" fill="#2bd800"/><path d="M351.16969,266.25374h-42.15498v-52.88247h42.15498z" data-paper-data="{&quot;origPos&quot;:null,&quot;index&quot;:null,&quot;origRot&quot;:0}" fill="#24b200"/><path d="M393.54423,266.25374h-42.15497v-52.88247h42.15497z" data-paper-data="{&quot;origPos&quot;:null,&quot;index&quot;:null,&quot;origRot&quot;:0}" fill="#2bd800"/><path d="M435.54762,266.25374h-42.15497v-52.88247h42.15497z" data-paper-data="{&quot;origPos&quot;:null,&quot;index&quot;:null,&quot;origRot&quot;:0}" fill="#24b200"/><path d="M474.98984,266.00374h-42.15498v-52.88247h42.15498z" data-paper-data="{&quot;origPos&quot;:null,&quot;index&quot;:null,&quot;origRot&quot;:0}" fill="#2bd800"/><path d="M140.39479,319.25374h-42.15497v-52.88247h42.15497z" data-paper-data="{&quot;origPos&quot;:null,&quot;index&quot;:null,&quot;origRot&quot;:0}" fill="#24b200"/><path d="M182.54979,319.25374h-42.15498v-52.88247h42.15498z" data-paper-data="{&quot;origPos&quot;:null,&quot;index&quot;:null,&quot;origRot&quot;:0}" fill="#2bd800"/><path d="M224.70475,319.25374h-42.15498v-52.88247h42.15498z" data-paper-data="{&quot;origPos&quot;:null,&quot;index&quot;:null,&quot;origRot&quot;:0}" fill="#24b200"/><path d="M266.85973,319.25374h-42.15497v-52.88247h42.15497z" data-paper-data="{&quot;origPos&quot;:null,&quot;index&quot;:null,&quot;origRot&quot;:0}" fill="#2bd800"/><path d="M309.01472,319.25374h-42.15498v-52.88247h42.15498z" data-paper-data="{&quot;origPos&quot;:null,&quot;index&quot;:null,&quot;origRot&quot;:0}" fill="#24b200"/><path d="M351.16969,319.25374h-42.15498v-52.88247h42.15498z" data-paper-data="{&quot;origPos&quot;:null,&quot;index&quot;:null,&quot;origRot&quot;:0}" fill="#2bd800"/><path d="M393.54423,319.25374h-42.15497v-52.88247h42.15497z" data-paper-data="{&quot;origPos&quot;:null,&quot;index&quot;:null,&quot;origRot&quot;:0}" fill="#24b200"/><path d="M435.54762,319.25374h-42.15497v-52.88247h42.15497z" data-paper-data="{&quot;origPos&quot;:null,&quot;index&quot;:null,&quot;origRot&quot;:0}" fill="#2bd800"/><path d="M474.98984,319.00374h-42.15498v-52.88247h42.15498z" data-paper-data="{&quot;origPos&quot;:null,&quot;index&quot;:null,&quot;origRot&quot;:0}" fill="#24b200"/></g></g></svg>