<svg version="1.1" xmlns="http://www.w3.org/2000/svg" xmlns:xlink="http://www.w3.org/1999/xlink" width="61.42122" height="78.96452" viewBox="0,0,61.42122,78.96452"><defs><linearGradient x1="240.19427" y1="191.00524" x2="240.19427" y2="207.40821" gradientUnits="userSpaceOnUse" id="color-1"><stop offset="0" stop-color="#24693c"/><stop offset="1" stop-color="#4ecc71"/></linearGradient><radialGradient cx="240.58581" cy="173.76412" r="21.1235" gradientUnits="userSpaceOnUse" id="color-2"><stop offset="0" stop-color="#b3fa98"/><stop offset="1" stop-color="#05ac26"/></radialGradient><radialGradient cx="242.78377" cy="156.15476" r="14.99911" gradientUnits="userSpaceOnUse" id="color-3"><stop offset="0" stop-color="#036617"/><stop offset="1" stop-color="#037019"/></radialGradient><radialGradient cx="241.91636" cy="172.88097" r="6.67932" gradientUnits="userSpaceOnUse" id="color-4"><stop offset="0" stop-color="#adeba3"/><stop offset="1" stop-color="#32c144"/></radialGradient><linearGradient x1="235.28396" y1="180.16186" x2="231.26643" y2="197.50379" gradientUnits="userSpaceOnUse" id="color-5"><stop offset="0" stop-color="#a8d9ab"/><stop offset="1" stop-color="#50d844"/></linearGradient><radialGradient cx="239.79592" cy="173.89493" r="11.33088" gradientUnits="userSpaceOnUse" id="color-6"><stop offset="0" stop-color="#a5f48f"/><stop offset="1" stop-color="#32c144"/></radialGradient><linearGradient x1="251.37204" y1="164.68076" x2="247.39655" y2="181.84121" gradientUnits="userSpaceOnUse" id="color-7"><stop offset="0" stop-color="#baffa7"/><stop offset="1" stop-color="#82ff63"/></linearGradient><linearGradient x1="217.25208" y1="136.20125" x2="209.34104" y2="146.00816" gradientUnits="userSpaceOnUse" id="color-8"><stop offset="0" stop-color="#53db7a"/><stop offset="1" stop-color="#24693c"/></linearGradient></defs><g transform="translate(-204.58325,-128.93065)"><g data-paper-data="{&quot;isPaintingLayer&quot;:true}" fill="none" fill-rule="nonzero" stroke="none" stroke-width="none" stroke-linecap="none" stroke-linejoin="miter" stroke-miterlimit="10" stroke-dasharray="" stroke-dashoffset="0" font-family="none" font-weight="none" font-size="none" text-anchor="none" style="mix-blend-mode: normal"><path d="M265.50447,196.78898c0,2.05192 -4.46233,5.3969 -5.99869,5.1516c-2.211,-0.35301 -7.33647,-4.94385 -7.33647,-4.94385c0,0 3.94658,2.47919 5.06352,4.47218c1.09713,1.95763 1.60555,5.11132 -0.57043,5.66005c-0.81875,0.20647 -2.25973,-4.07958 -3.04313,-3.76452c-0.51129,0.20562 -0.20078,0.90011 -0.39866,1.41446c-0.48513,1.26101 -0.65474,2.07082 -2.00368,2.1474c-2.54931,0.14472 -1.21167,-3.82453 -3.65419,-3.08021c-1.3397,0.40825 -1.1077,1.11468 -2.17422,2.02242c-2.09749,1.78521 -2.63345,1.52666 -5.3878,1.52666c-3.37785,0 -7.03408,-6.82012 -7.03408,-6.82012c0,0 -9.27918,5.80446 -14.23348,3.40515c-1.85279,-0.89729 1.05445,-3.69416 2.6697,-4.97045c1.36434,-1.07803 4.18869,-1.43148 4.18869,-1.43148c0,0 -4.97845,1.0473 -7.10801,0.24077c-1.79846,-0.68114 -3.59951,-2.29397 -3.59951,-4.2171c0,-1.27932 7.86551,-0.1749 7.86551,-0.1749c0,0 -3.96234,-1.47362 -2.2704,-1.93843c6.91241,-1.899 31.59011,2.37702 33.85978,2.86475c0.75656,0.16258 7.08018,-1.36996 7.557,-0.76049c0.73094,0.93429 -2.67507,3.70814 -2.67507,3.70814c0,0 6.28359,-4.13562 6.28359,-0.51203z" data-paper-data="{&quot;origPos&quot;:null}" fill="url(#color-1)" stroke="#0f2c13" stroke-width="1" stroke-linecap="butt"/><path d="M221.45738,170.62066l0.62431,-2.6949l2.42542,0.56188l-0.62431,2.6949z" data-paper-data="{&quot;origPos&quot;:null,&quot;origRot&quot;:0}" fill="#1c5324" stroke="none" stroke-width="0" stroke-linecap="butt"/><path d="M261.01557,185.13927c-2.46781,10.65243 -13.2309,17.25796 -25.36069,14.44793c-12.1298,-2.81006 -17.28589,-13.1035 -14.8181,-23.75595c1.72468,-7.44467 4.25354,-9.45465 8.03321,-9.97936c2.73667,-0.37992 2.1832,-3.91012 3.49265,-6.34304c0.74147,-1.37763 2.43519,-2.71917 3.55851,-1.63022c1.73018,1.67727 3.73336,4.8414 3.73336,4.8414c0,0 1.57929,-4.27071 3.35873,-2.26527c1.99834,2.25215 3.69233,3.38064 5.09586,5.51821c0,0 15.37436,8.51389 12.90657,19.16632z" data-paper-data="{&quot;origPos&quot;:null,&quot;origRot&quot;:0}" fill="url(#color-2)" stroke="#000000" stroke-width="1.5" stroke-linecap="butt"/><path d="M249.57892,188.7775c-0.24018,2.26114 -1.52166,4.03983 -2.86221,3.97274c-1.34054,-0.06704 -2.23258,-1.95447 -1.99237,-4.21562c0.24018,-2.26114 1.52166,-4.03983 2.86221,-3.97274c1.34054,0.06704 2.23256,1.95446 1.99235,4.21561z" data-paper-data="{&quot;origPos&quot;:null,&quot;origRot&quot;:0}" fill="#000000" stroke="none" stroke-width="0" stroke-linecap="butt"/><path d="M255.67175,188.23116c-0.20182,1.701 -1.18347,3.02896 -2.19261,2.96605c-1.00916,-0.0629 -1.66364,-1.4928 -1.46185,-3.19383c0.20182,-1.701 1.18346,-3.02895 2.19261,-2.96605c1.00916,0.0629 1.66367,1.49281 1.46187,3.19381z" data-paper-data="{&quot;origPos&quot;:null,&quot;origRot&quot;:0}" fill="#000000" stroke="none" stroke-width="0" stroke-linecap="butt"/><path d="M239.90694,163.63189c0.50876,-1.05404 2.40902,-1.1447 2.4157,-1.12277c0.95827,0.02376 1.06237,0.47953 1.13994,0.95542c0.23274,1.42764 3.67201,5.44824 3.67201,5.44824c0,0 -8.23808,-3.18751 -7.22765,-5.28089z" data-paper-data="{&quot;origPos&quot;:null,&quot;index&quot;:null,&quot;origRot&quot;:0}" fill="#287732" stroke="none" stroke-width="0" stroke-linecap="butt"/><path d="M236.25727,169.6894l4.666,-13.21305c0,0 -1.41505,-2.46574 -3.57853,-3.39903c-5.3527,-2.3091 -15.15717,-4.48693 -15.15717,-4.48693l3.19311,-1.50571c0,0 6.96591,1.49104 11.08559,3.09401c3.96274,1.54187 8.08187,5.44827 8.08187,5.44827l-4.8791,19.07105z" data-paper-data="{&quot;origPos&quot;:null,&quot;origRot&quot;:0}" fill="url(#color-3)" stroke="#0f2c13" stroke-width="0.5" stroke-linecap="butt"/><path d="M237.3471,175.11139c0,0 -0.87938,-7.87731 3.32907,-10.10286c1.36215,0.47802 1.35718,1.23162 2.82196,1.39597c0.81095,0.09099 -0.6824,-3.54534 0.1328,-3.50858c1.29834,0.05857 3.04782,1.33795 3.96177,2.26197c1.62495,1.6428 3.84755,3.66245 3.84755,3.66245c0,0 -1.84822,3.19232 -5.88591,5.32755c-2.38814,1.26289 -8.20725,0.9635 -8.20725,0.9635z" data-paper-data="{&quot;origPos&quot;:null,&quot;origRot&quot;:0}" fill="url(#color-4)" stroke="#256d2f" stroke-width="0.5" stroke-linecap="butt"/><path d="M247.94777,187.84088c-0.10898,1.02573 -0.69029,1.83262 -1.29842,1.8022c-0.60814,-0.03041 -1.01278,-0.88664 -0.9038,-1.91237c0.10898,-1.02573 0.69029,-1.83262 1.29842,-1.8022c0.60814,0.03041 1.01278,0.88664 0.9038,1.91236z" data-paper-data="{&quot;origPos&quot;:null,&quot;origRot&quot;:0}" fill="#ffffff" stroke="none" stroke-width="0" stroke-linecap="butt"/><path d="M254.30814,187.15998c-0.0688,0.5801 -0.40359,1.03296 -0.74773,1.01152c-0.34411,-0.02144 -0.56734,-0.50907 -0.49852,-1.08917c0.0688,-0.5801 0.40359,-1.03296 0.74773,-1.01152c0.34411,0.02144 0.56734,0.50908 0.49851,1.08917z" data-paper-data="{&quot;origPos&quot;:null,&quot;origRot&quot;:0}" fill="#ffffff" stroke="none" stroke-width="0" stroke-linecap="butt"/><path d="M232.47972,166.81122c0,0 0.72717,-5.60926 1.56396,-6.7891c0.27893,-0.39328 0.66338,-1.14778 1.53452,-0.74775c0.01563,-0.01676 1.64623,1.05665 1.63967,2.22705c-0.01301,2.32443 -0.27397,0.74196 -0.27397,0.74196z" data-paper-data="{&quot;origPos&quot;:null,&quot;origRot&quot;:0}" fill="#287732" stroke="none" stroke-width="0" stroke-linecap="butt"/><path d="M240.79392,182.02299c0,0 2.17131,-5.23327 3.76743,-4.70307c3.2943,1.09434 4.26087,5.27862 4.26087,5.27862c0,0 -2.52314,-1.92761 -3.91936,-2.02772c-1.73693,-0.12452 -4.10894,1.45214 -4.10894,1.45214z" data-paper-data="{&quot;origPos&quot;:null,&quot;origRot&quot;:0}" fill="#05ac26" stroke="#000000" stroke-width="0.5" stroke-linecap="butt"/><path d="M253.06801,182.56532c0,0 1.19906,-3.35753 3.05988,-3.88504c1.75548,-0.49763 3.63865,4.40706 3.63865,4.40706c0,0 -1.81926,-1.76903 -3.26945,-1.92724z" data-paper-data="{&quot;origPos&quot;:null,&quot;index&quot;:null,&quot;origRot&quot;:0}" fill="#05ac26" stroke="#000000" stroke-width="0.5" stroke-linecap="butt"/><path d="M226.18269,193.45989c-7.8211,-7.49175 -4.5186,-16.45327 -4.5186,-16.45327c0,0 1.25013,2.6671 2.60466,4.21779c2.35199,2.69261 4.48858,4.0153 7.07792,6.48052c0.90209,0.85881 3.00181,1.67683 3.77142,2.65611c0.82986,1.05596 0.71366,2.22103 1.22013,3.46489c0.36686,0.90106 1.01548,0.95216 1.76255,1.57542c2.50271,2.08799 7.20825,3.65391 7.20825,3.65391c0,0 -11.30518,1.89644 -19.12628,-5.59533z" data-paper-data="{&quot;origPos&quot;:null,&quot;origRot&quot;:0}" fill="url(#color-5)" stroke="#287732" stroke-width="0" stroke-linecap="butt"/><path d="M220.87765,180.14619c0,0 -1.46679,-6.97142 0.76944,-10.34722c2.23624,-3.37579 5.17135,-0.71971 7.10346,-1.69533c2.02963,-1.02484 2.33508,-0.96324 4.20493,-2.25681c1.42742,-0.98745 1.77216,-3.82731 3.3788,-4.48408c1.11483,-0.45572 1.73879,0.6133 2.83496,1.1122c1.19725,0.5449 0.33128,4.73239 0.33128,4.73239c0,0 2.93321,0.10797 2.03019,2.12445c-0.77783,1.73693 -1.77647,0.74971 -2.10656,2.62399c-0.39741,2.25635 2.63369,0.27543 1.90188,2.44648c-1.13597,3.37009 -1.80808,4.93678 -4.60296,7.13603c0,0 -5.9081,0.77473 -8.87845,0.43919c-3.58652,-0.40511 -6.96703,-1.83132 -6.96703,-1.83132z" data-paper-data="{&quot;origPos&quot;:null,&quot;origRot&quot;:0}" fill="url(#color-6)" stroke="#256d2f" stroke-width="0.5" stroke-linecap="butt"/><path d="M219.76092,184.02183c-0.37759,-2.14297 0.73953,-2.51142 0.1106,-4.52016c-0.27442,-0.87645 -0.85498,-0.49789 -1.72932,-0.77899c-1.18977,-0.38252 -2.73267,-0.73947 -2.73327,-1.98921c-0.00066,-1.40013 2.65681,-2.71517 2.65681,-2.71517c0,0 -4.12122,-1.50031 -3.33018,-4.28299c0.82034,-2.88567 4.93285,-1.8229 5.4822,-2.40007c0.92455,-0.97143 0.42442,-2.33169 1.76535,-2.31503c0.86202,0.01071 1.90418,3.15937 2.01999,2.30506c0.14997,-1.10655 3.26822,0.86917 3.26822,0.86917l-2.79565,0.95342c0,0 -2.37561,0.063 -2.64589,2.0174c-0.51427,3.71873 -1.11886,3.35912 0.71713,6.63366c0.90686,1.61739 2.38567,5.65419 4.27177,5.61696c0.40993,1.76827 2.78711,2.28548 4.14112,3.4944c1.7587,1.57021 4.37728,4.07807 4.37728,4.07807c0,0 -2.46557,-1.61162 -3.47129,-1.7767c-2.84273,-0.46655 -2.54425,0.37972 -4.95586,-1.19598c-1.03826,-0.67838 -1.04027,-1.86346 -2.12747,-2.46025c-2.47932,-1.36105 -4.64394,0.60937 -5.02154,-1.5336z" data-paper-data="{&quot;origPos&quot;:null,&quot;origRot&quot;:0}" fill="#98ff7e" stroke="#256d2f" stroke-width="1" stroke-linecap="butt"/><path d="M238.37765,179.75185c0,0 0.95804,-1.03922 1.31543,-1.75348c0.54998,-1.09925 1.17824,-2.78708 1.17824,-2.78708c0.84018,-1.0148 1.5622,-1.14953 2.60463,-1.95513c0.95443,-0.7376 2.40547,-2.10059 2.40547,-2.10059c1.15003,-0.85515 5.82653,-2.77674 5.82653,-2.77674l-3.31482,-2.70165c0,0 1.40763,-0.29583 2.1644,-0.37563c4.33523,-0.45704 9.59895,1.21749 9.23817,4.01372c-0.21996,1.70465 -3.6096,-0.82637 -5.87206,0.85596c-0.95356,0.70905 0.14897,3.21699 -1.06994,4.14375c-0.99576,0.75712 -3.24877,-2.56983 -4.25427,-1.82568c-0.70809,0.52405 -0.94991,2.90041 -1.70513,3.23466c-1.19537,0.52904 -0.99391,-0.12993 -2.166,-0.70876c-0.49911,-0.2465 -0.92444,-0.01003 -1.39444,0.28826c-1.94038,1.23155 -0.71717,2.4422 -2.71002,3.58691c-1.39549,0.80159 -2.24617,0.86145 -2.24617,0.86145z" data-paper-data="{&quot;origPos&quot;:null,&quot;origRot&quot;:0}" fill="url(#color-7)" stroke="#256d2f" stroke-width="1" stroke-linecap="butt"/><path d="M252.23977,166.64394c0,0 3.31669,0.92241 2.35332,1.23867c-3.19669,1.04943 -4.67662,0.69509 -7.57876,2.39742c-1.48486,0.871 -2.93001,2.55238 -4.35356,3.52035c-3.90149,2.65295 -1.99052,5.61091 -6.28784,7.55849c-3.2175,1.4582 -10.65164,0.50944 -10.65164,0.50944" data-paper-data="{&quot;origPos&quot;:null,&quot;origRot&quot;:0}" fill="none" stroke="#287732" stroke-width="0.5" stroke-linecap="round"/><path d="M245.41147,199.03541c0,0 -2.39787,-0.91621 -3.96505,-1.76568c-1.68391,-0.91277 -2.77571,-1.69195 -4.26783,-2.89291c-2.58946,-2.08416 -0.24178,-2.28666 -2.70139,-4.52258c-3.48513,-3.16819 -7.99768,-6.08968 -10.78941,-9.88306c-2.05988,-2.799 -3.31284,-7.34603 -1.04549,-9.92203c0.9456,-1.07434 1.84459,-1.02252 1.84459,-1.02252" data-paper-data="{&quot;origPos&quot;:null,&quot;origRot&quot;:0}" fill="none" stroke="#287732" stroke-width="0.5" stroke-linecap="round"/><path d="M224.81972,147.42301c-4.39494,4.13107 -11.63738,3.56527 -16.17647,-1.26373c-4.53908,-4.82901 -4.65595,-12.09259 -0.26103,-16.22366c4.39494,-4.13107 20.83243,13.35631 16.43749,17.48738z" data-paper-data="{&quot;origPos&quot;:null,&quot;origRot&quot;:0}" fill="#2e8149" stroke="#0f2c13" stroke-width="0.5" stroke-linecap="butt"/><path d="M207.12986,130.66758c0.41993,-0.48775 1.49782,-1.29495 1.49782,-1.29495c0,0 0.32141,1.75285 0.19325,2.18775c-0.38443,1.3046 -1.4196,2.54235 -1.4196,2.54235c0,0 1.27578,-1.06773 2.46683,0.64061c0.37912,0.54376 -0.62044,2.263 -0.62044,2.263c0,0 2.99765,-0.33484 3.18102,1.21371c0.2224,1.87825 -0.65521,3.40361 -0.65521,3.40361c0,0 2.97622,-0.82778 3.57602,-0.10285c1.35619,1.63915 1.74179,3.24111 1.74179,3.24111c0,0 -0.82133,-1.90131 1.08937,-2.46859c1.4083,-0.41813 3.28419,2.38813 3.28419,2.38813c0,0 0.52977,-1.63094 1.39591,-2.00299c1.14544,-0.49199 1.37494,1.1201 1.37494,1.1201l1.58053,-1.33115c0,0 0.10756,3.31288 -0.74888,4.46037c-1.14424,1.53308 -2.72108,2.13104 -4.5471,2.7014c-4.01751,1.25494 -8.92884,-0.08994 -11.85333,-3.11691c-1.55812,-1.61273 -2.08802,-2.98677 -3.07985,-4.99793c0,0 -1.11664,-3.33387 -0.63191,-5.80363c0.36031,-1.83568 0.91496,-3.57988 2.17466,-5.04314z" data-paper-data="{&quot;origPos&quot;:null,&quot;origRot&quot;:0}" fill="url(#color-8)" stroke="#0f2c13" stroke-width="0.5" stroke-linecap="butt"/></g></g></svg>