<svg version="1.1" xmlns="http://www.w3.org/2000/svg" xmlns:xlink="http://www.w3.org/1999/xlink" width="39.04281" height="59.71757" viewBox="0,0,39.04281,59.71757"><g transform="translate(-219.01881,-160.75015)"><g data-paper-data="{&quot;isPaintingLayer&quot;:true}" fill="none" fill-rule="nonzero" stroke="none" stroke-width="none" stroke-linecap="butt" stroke-linejoin="miter" stroke-miterlimit="10" stroke-dasharray="" stroke-dashoffset="0" font-family="none" font-weight="none" font-size="none" text-anchor="none" style="mix-blend-mode: normal"><path d="M223.40144,194.18856l-3.08524,-7.81289l18.04405,-7.12545l3.08524,7.81289z" data-paper-data="{&quot;origPos&quot;:null,&quot;origRot&quot;:0}" fill="#c07a00" stroke="#000000" stroke-width="2"/><path d="M229.18794,198.98996l4.10135,-19.57495l18.98771,3.97831l-4.10135,19.57495z" data-paper-data="{&quot;origPos&quot;:null,&quot;origRot&quot;:0}" fill="#c07a00" stroke="#000000" stroke-width="2"/><path d="M257.06161,176.28381c-1.336,6.37649 -8.14304,10.34636 -15.20394,8.86695c-7.0609,-1.47941 -11.70184,-7.84786 -10.36585,-14.22435c1.336,-6.37649 8.14304,-10.34636 15.20394,-8.86695c7.0609,1.47941 11.70184,7.84786 10.36585,14.22435z" data-paper-data="{&quot;origPos&quot;:null,&quot;origRot&quot;:0}" fill="#b2b2b2" stroke="#000000" stroke-width="2"/><path d="M244.48417,169.87197c-0.33977,1.62163 -1.68331,2.71245 -3.0009,2.43639c-1.31759,-0.27605 -2.11026,-1.81447 -1.7705,-3.43609c0.33977,-1.62163 1.68331,-2.71245 3.0009,-2.43639c1.31759,0.27605 2.11026,1.81447 1.7705,3.43609z" data-paper-data="{&quot;origPos&quot;:null,&quot;origRot&quot;:0}" fill="#ff0000" stroke="none" stroke-width="0"/><path d="M238.48561,168.75563c-0.30438,1.45273 -1.48229,2.43529 -2.63096,2.19461c-1.14867,-0.24067 -1.83309,-1.61342 -1.52873,-3.06615c0.30438,-1.45273 1.48229,-2.43529 2.63096,-2.19461c1.14867,0.24067 1.83309,1.61342 1.52873,3.06615z" data-paper-data="{&quot;origPos&quot;:null,&quot;origRot&quot;:0}" fill="#ff0000" stroke="none" stroke-width="0"/><path d="M222.05748,213.30552l8.37139,-15.25385l7.01327,3.84892l-8.37139,15.25385z" data-paper-data="{&quot;origPos&quot;:null,&quot;origRot&quot;:0}" fill="#4c517f" stroke="#000000" stroke-width="2"/><path d="M235.19327,217.10915l4.68281,-16.96559l7.71163,2.12855l-4.68281,16.96559z" data-paper-data="{&quot;origPos&quot;:null,&quot;origRot&quot;:0}" fill="#4c517f" stroke="#000000" stroke-width="2"/><path d="M223.65128,179.83968l4.93513,-6.79738l15.69872,11.39782l-4.93513,6.79738z" data-paper-data="{&quot;origPos&quot;:null,&quot;origRot&quot;:0}" fill="#c07a00" stroke="#000000" stroke-width="2"/></g></g></svg>