<svg version="1.1" xmlns="http://www.w3.org/2000/svg" xmlns:xlink="http://www.w3.org/1999/xlink" width="82.24848" height="56.5492" viewBox="0,0,82.24848,56.5492"><defs><linearGradient x1="240.19427" y1="191.00522" x2="240.19427" y2="207.40819" gradientUnits="userSpaceOnUse" id="color-1"><stop offset="0" stop-color="#24693c"/><stop offset="1" stop-color="#4ecc71"/></linearGradient><radialGradient cx="237.38889" cy="174.3203" r="21.1235" gradientUnits="userSpaceOnUse" id="color-2"><stop offset="0" stop-color="#b3fa98"/><stop offset="1" stop-color="#05ac26"/></radialGradient><radialGradient cx="225.27305" cy="153.38244" r="14.99911" gradientUnits="userSpaceOnUse" id="color-3"><stop offset="0" stop-color="#036617"/><stop offset="1" stop-color="#037019"/></radialGradient><radialGradient cx="238.30787" cy="173.01424" r="6.67932" gradientUnits="userSpaceOnUse" id="color-4"><stop offset="0" stop-color="#adeba3"/><stop offset="1" stop-color="#32c144"/></radialGradient><linearGradient x1="234.77248" y1="182.20669" x2="237.32727" y2="199.82361" gradientUnits="userSpaceOnUse" id="color-5"><stop offset="0" stop-color="#a8d9ab"/><stop offset="1" stop-color="#50d844"/></linearGradient><radialGradient cx="236.70044" cy="174.72905" r="11.33088" gradientUnits="userSpaceOnUse" id="color-6"><stop offset="0" stop-color="#a5f48f"/><stop offset="1" stop-color="#32c144"/></radialGradient><linearGradient x1="244.1399" y1="161.93991" x2="246.66796" y2="179.37249" gradientUnits="userSpaceOnUse" id="color-7"><stop offset="0" stop-color="#baffa7"/><stop offset="1" stop-color="#82ff63"/></linearGradient><radialGradient cx="194.93527" cy="159.73756" r="10.59119" gradientUnits="userSpaceOnUse" id="color-8"><stop offset="0" stop-color="#c8d6ca"/><stop offset="1" stop-color="#05ad27"/></radialGradient><radialGradient cx="190.14877" cy="164.76519" r="9.57427" gradientUnits="userSpaceOnUse" id="color-9"><stop offset="0" stop-color="#83dd6c"/><stop offset="1" stop-color="#28bd46"/></radialGradient><radialGradient cx="201.14444" cy="162.65378" r="7.29369" gradientUnits="userSpaceOnUse" id="color-10"><stop offset="0" stop-color="#83dd6c"/><stop offset="1" stop-color="#5dc572"/></radialGradient><linearGradient x1="194.49681" y1="163.5231" x2="198.25481" y2="175.54963" gradientUnits="userSpaceOnUse" id="color-11"><stop offset="0" stop-color="#53db7a"/><stop offset="1" stop-color="#24693c"/></linearGradient></defs><g transform="translate(-183.75599,-151.34594)"><g data-paper-data="{&quot;isPaintingLayer&quot;:true}" fill="none" fill-rule="nonzero" stroke="none" stroke-width="none" stroke-linecap="none" stroke-linejoin="miter" stroke-miterlimit="10" stroke-dasharray="" stroke-dashoffset="0" font-family="none" font-weight="none" font-size="none" text-anchor="none" style="mix-blend-mode: normal"><path d="M265.50447,196.78896c0,2.05192 -4.46233,5.3969 -5.99869,5.1516c-2.211,-0.35301 -7.33647,-4.94385 -7.33647,-4.94385c0,0 3.94658,2.47919 5.06352,4.47218c1.09713,1.95763 1.60555,5.11132 -0.57043,5.66005c-0.81875,0.20647 -2.25973,-4.07958 -3.04313,-3.76452c-0.51129,0.20562 -0.20078,0.90011 -0.39866,1.41446c-0.48513,1.26101 -0.65474,2.07082 -2.00368,2.1474c-2.54931,0.14472 -1.21167,-3.82453 -3.65419,-3.08021c-1.3397,0.40825 -1.1077,1.11468 -2.17422,2.02242c-2.09749,1.78521 -2.63345,1.52666 -5.3878,1.52666c-3.37785,0 -7.03408,-6.82012 -7.03408,-6.82012c0,0 -9.27918,5.80446 -14.23348,3.40515c-1.85279,-0.89729 1.05445,-3.69416 2.6697,-4.97045c1.36434,-1.07803 4.18869,-1.43148 4.18869,-1.43148c0,0 -4.97845,1.0473 -7.10801,0.24077c-1.79846,-0.68114 -3.59951,-2.29397 -3.59951,-4.2171c0,-1.27932 7.86551,-0.1749 7.86551,-0.1749c0,0 -3.96234,-1.47362 -2.2704,-1.93843c6.91241,-1.899 31.59011,2.37702 33.85978,2.86475c0.75656,0.16258 7.08018,-1.36996 7.557,-0.76049c0.73094,0.93429 -2.67507,3.70814 -2.67507,3.70814c0,0 6.28359,-4.13562 6.28359,-0.51203z" data-paper-data="{&quot;origPos&quot;:null}" fill="url(#color-1)" stroke="#0f2c13" stroke-width="1" stroke-linecap="butt"/><path d="M218.42487,178.33827l-0.39702,-2.73766l2.46388,-0.35731l0.39702,2.73766z" data-paper-data="{&quot;origPos&quot;:null,&quot;origRot&quot;:0}" fill="#1c5324" stroke="none" stroke-width="0" stroke-linecap="butt"/><path d="M260.55488,177.49938c1.5693,10.82136 -6.06002,20.8847 -18.38215,22.67164c-12.32214,1.78694 -20.86445,-5.93119 -22.43377,-16.75254c-1.09674,-7.56273 0.52952,-10.35387 3.86054,-12.2154c2.41185,-1.34785 0.61412,-4.43602 0.9506,-7.17839c0.19053,-1.55284 1.28142,-3.4179 2.7235,-2.81123c2.22119,0.9344 5.23669,3.15501 5.23669,3.15501c0,0 -0.07952,-4.55266 2.30672,-3.33039c2.67981,1.37265 4.66797,1.80889 6.75196,3.29081c0,0 17.41662,2.34914 18.98593,13.17048z" data-paper-data="{&quot;origPos&quot;:null,&quot;origRot&quot;:0}" fill="url(#color-2)" stroke="#000000" stroke-width="1.5" stroke-linecap="butt"/><path d="M251.22034,185.04262c0.59738,2.19399 0.04936,4.31661 -1.22403,4.74095c-1.27337,0.42437 -2.78994,-1.01023 -3.38731,-3.20423c-0.59738,-2.19399 -0.04936,-4.31661 1.22403,-4.74095c1.27337,-0.42437 2.78993,1.01023 3.38729,3.20422z" data-paper-data="{&quot;origPos&quot;:null,&quot;origRot&quot;:0}" fill="#000000" stroke="none" stroke-width="0" stroke-linecap="butt"/><path d="M256.69878,182.32089c0.42972,1.65816 -0.00264,3.25194 -0.96573,3.55982c-0.96311,0.30789 -2.09218,-0.78669 -2.52192,-2.44486c-0.42972,-1.65816 0.00263,-3.25194 0.96573,-3.55982c0.96311,-0.30789 2.09221,0.7867 2.52194,2.44484z" data-paper-data="{&quot;origPos&quot;:null,&quot;origRot&quot;:0}" fill="#000000" stroke="none" stroke-width="0" stroke-linecap="butt"/><path d="M233.07667,165.12639c0.09123,-1.16683 1.82883,-1.94143 1.84302,-1.92342c0.90147,-0.32587 1.16398,0.06097 1.40909,0.47619c0.73531,1.24564 5.39992,3.7427 5.39992,3.7427c0,0 -8.83321,0.0219 -8.65201,-2.29548z" data-paper-data="{&quot;origPos&quot;:null,&quot;index&quot;:null,&quot;origRot&quot;:0}" fill="#287732" stroke="none" stroke-width="0" stroke-linecap="butt"/><path d="M232.89966,166.32912l-8.393,-11.22114c0,0 -2.83634,-0.19356 -4.81442,1.08664c-4.89402,3.16731 -12.15246,10.10891 -12.15246,10.10891l0.52235,-3.49146c0,0 5.11023,-4.96313 8.73203,-7.49767c3.4838,-2.43798 9.02043,-3.69218 9.02043,-3.69218l13.14508,14.65323z" data-paper-data="{&quot;origPos&quot;:null,&quot;origRot&quot;:0}" fill="url(#color-3)" stroke="#0f2c13" stroke-width="0.5" stroke-linecap="butt"/><path d="M234.86059,176.75176c0,0 -3.68012,-7.02012 -0.56724,-10.62209c1.44274,-0.0493 1.71181,0.65465 3.13625,0.27583c0.78864,-0.20973 -1.92336,-3.05546 -1.15046,-3.31726c1.23096,-0.41693 3.32562,0.13974 4.51275,0.66874c2.11062,0.94051 4.91493,2.01508 4.91493,2.01508c0,0 -0.56269,3.64558 -3.54925,7.10138c-1.76643,2.04397 -7.29699,3.87832 -7.29699,3.87832z" data-paper-data="{&quot;origPos&quot;:null,&quot;origRot&quot;:0}" fill="url(#color-4)" stroke="#256d2f" stroke-width="0.5" stroke-linecap="butt"/><path d="M249.36042,184.76234c0.27098,0.99528 0.02239,1.95818 -0.55527,2.15069c-0.57765,0.19251 -1.26562,-0.45829 -1.53661,-1.45357c-0.27098,-0.99528 -0.02239,-1.95818 0.55527,-2.15069c0.57765,-0.19251 1.26562,0.45829 1.5366,1.45356z" data-paper-data="{&quot;origPos&quot;:null,&quot;origRot&quot;:0}" fill="#ffffff" stroke="none" stroke-width="0" stroke-linecap="butt"/><path d="M255.03926,181.81806c0.14655,0.56547 -0.00089,1.10899 -0.32934,1.21399c-0.32843,0.105 -0.71348,-0.26828 -0.86004,-0.83375c-0.14655,-0.56547 0.00089,-1.10899 0.32934,-1.21399c0.32843,-0.105 0.71348,0.26829 0.86003,0.83375z" data-paper-data="{&quot;origPos&quot;:null,&quot;origRot&quot;:0}" fill="#ffffff" stroke="none" stroke-width="0" stroke-linecap="butt"/><path d="M227.3112,170.78599c0,0 -1.35959,-5.49038 -1.00839,-6.89358c0.11706,-0.46773 0.20127,-1.31035 1.15818,-1.254c0.00848,-0.02129 1.91758,0.38666 2.33651,1.47952c0.83203,2.17044 0.01419,0.7908 0.01419,0.7908z" data-paper-data="{&quot;origPos&quot;:null,&quot;origRot&quot;:0}" fill="#287732" stroke="none" stroke-width="0" stroke-linecap="butt"/><path d="M240.58213,181.93971c0,0 0.12252,-5.66451 1.80221,-5.75016c3.46681,-0.17676 5.88697,3.37082 5.88697,3.37082c0,0 -3.05091,-0.87968 -4.38816,-0.4659c-1.66356,0.51477 -3.30102,2.84524 -3.30102,2.84524z" data-paper-data="{&quot;origPos&quot;:null,&quot;origRot&quot;:0}" fill="#05ac26" stroke="#000000" stroke-width="0.5" stroke-linecap="butt"/><path d="M252.21516,177.98747c0,0 -0.10215,-3.56375 1.44004,-4.73103c1.45489,-1.10119 4.99072,2.78471 4.99072,2.78471c0,0 -2.33749,-0.98756 -3.74614,-0.60829z" data-paper-data="{&quot;origPos&quot;:null,&quot;index&quot;:null,&quot;origRot&quot;:0}" fill="#05ac26" stroke="#000000" stroke-width="0.5" stroke-linecap="butt"/><path d="M231.12202,197.90206c-10.00785,-4.1399 -10.18536,-13.6889 -10.18536,-13.6889c0,0 2.13338,2.03099 3.95858,2.98389c3.16925,1.6546 5.64034,2.11104 8.94816,3.46757c1.15238,0.47257 3.40581,0.47218 4.47852,1.10511c1.15668,0.68249 1.47154,1.8102 2.39514,2.78521c0.66905,0.70631 1.29195,0.51837 2.21433,0.82776c3.09011,1.03653 8.04309,0.78664 8.04309,0.78664c0,0 -9.8446,5.87263 -19.85245,1.73272z" data-paper-data="{&quot;origPos&quot;:null,&quot;origRot&quot;:0}" fill="url(#color-5)" stroke="#287732" stroke-width="0" stroke-linecap="butt"/><path d="M221.34407,187.424c0,0 -3.89844,-5.96275 -3.04087,-9.92017c0.85757,-3.95743 4.5569,-2.54863 6.00278,-4.15932c1.51885,-1.69197 1.82582,-1.74552 3.09824,-3.62981c0.97134,-1.43843 0.26121,-4.20959 1.51964,-5.40498c0.87322,-0.82947 1.8428,-0.06006 3.04533,0.00668c1.31339,0.07291 2.02732,4.28898 2.02732,4.28898c0,0 2.77215,-0.96464 2.66311,1.24209c-0.09393,1.90082 -1.38289,1.34367 -1.00979,3.20988c0.44916,2.2466 2.5539,-0.69985 2.66052,1.58874c0.16549,3.55254 0.10825,5.25635 -1.69712,8.32045c0,0 -5.22338,2.86745 -8.11278,3.63356c-3.48878,0.92504 -7.15641,0.82391 -7.15641,0.82391z" data-paper-data="{&quot;origPos&quot;:null,&quot;origRot&quot;:0}" fill="url(#color-6)" stroke="#256d2f" stroke-width="0.5" stroke-linecap="butt"/><path d="M221.71109,191.44056c-1.13006,-1.85953 -0.22303,-2.60851 -1.53852,-4.25171c-0.57399,-0.71696 -0.97743,-0.15339 -1.89416,-0.09777c-1.24746,0.07569 -2.81464,0.30343 -3.26907,-0.86076c-0.5091,-1.3043 1.48936,-3.49464 1.48936,-3.49464c0,0 -4.38472,0.09882 -4.65826,-2.78114c-0.28366,-2.98655 3.93404,-3.4899 4.23626,-4.22717c0.50863,-1.24087 -0.45135,-2.32661 0.80409,-2.79808c0.80705,-0.30307 2.92155,2.25212 2.71918,1.41411c-0.26211,-1.08546 3.36072,-0.37709 3.36072,-0.37709l-2.25851,1.90361c0,0 -2.19052,0.92143 -1.73259,2.84056c0.87134,3.65161 0.17745,3.53612 3.0773,5.9203c1.43232,1.17763 4.27619,4.40176 6.02001,3.68208c1.02412,1.49865 3.42682,1.11726 5.12742,1.75189c2.20887,0.82431 5.55945,2.20995 5.55945,2.20995c0,0 -2.88251,-0.60617 -3.87951,-0.39472c-2.81808,0.59768 -2.23263,1.27777 -5.05184,0.68549c-1.21373,-0.25499 -1.646,-1.35843 -2.8757,-1.51967c-2.80433,-0.36772 -4.10557,2.25429 -5.23564,0.39475z" data-paper-data="{&quot;origPos&quot;:null,&quot;origRot&quot;:0}" fill="#98ff7e" stroke="#256d2f" stroke-width="1" stroke-linecap="butt"/><path d="M237.50605,180.70113c0,0 0.51522,-1.31618 0.5888,-2.11148c0.1132,-1.22392 0.08563,-3.02468 0.08563,-3.02468c0.41426,-1.25063 1.03807,-1.63838 1.71676,-2.76756c0.6214,-1.03385 1.47837,-2.83075 1.47837,-2.83075c0.76095,-1.21441 4.42029,-4.70315 4.42029,-4.70315l-4.06965,-1.31336c0,0 1.20408,-0.78683 1.88022,-1.13602c3.87324,-2.00024 9.38574,-2.35166 10.06508,0.3847c0.41414,1.66815 -3.66326,0.54093 -5.16027,2.93006c-0.63094,1.00695 1.30711,2.94325 0.50799,4.2494c-0.65282,1.06706 -3.96024,-1.21453 -4.62684,-0.15602c-0.46943,0.74543 0.16827,3.04735 -0.414,3.63305c-0.92162,0.92705 -0.97323,0.2399 -2.27551,0.12623c-0.55456,-0.04841 -0.86496,0.32636 -1.19455,0.775c-1.36064,1.85214 0.21872,2.53592 -1.22234,4.32621c-1.00911,1.25366 -1.77997,1.61837 -1.77997,1.61837z" data-paper-data="{&quot;origPos&quot;:null,&quot;origRot&quot;:0}" fill="url(#color-7)" stroke="#256d2f" stroke-width="1" stroke-linecap="butt"/><path d="M245.66136,163.45395c0,0 3.42523,-0.34507 2.6425,0.29945c-2.59731,2.13872 -4.1049,2.34604 -6.19066,4.98608c-1.06717,1.35077 -1.80303,3.4422 -2.77783,4.86107c-2.67165,3.88873 0.18306,5.95071 -3.11356,9.32596c-2.46827,2.52714 -9.73937,4.34296 -9.73937,4.34296" data-paper-data="{&quot;origPos&quot;:null,&quot;origRot&quot;:0}" fill="none" stroke="#287732" stroke-width="0.5" stroke-linecap="round"/><path d="M251.06277,196.11364c0,0 -2.56691,0.01717 -4.33555,-0.20517c-1.90042,-0.2389 -3.20064,-0.56838 -5.02704,-1.14545c-3.16956,-1.00146 -1.05571,-2.04272 -4.15939,-3.23274c-4.39778,-1.68619 -9.6632,-2.76941 -13.64196,-5.28995c-2.93576,-1.85981 -5.75448,-5.64135 -4.57747,-8.8649c0.49087,-1.3444 1.34731,-1.6226 1.34731,-1.6226" data-paper-data="{&quot;origPos&quot;:null,&quot;origRot&quot;:0}" fill="none" stroke="#287732" stroke-width="0.5" stroke-linecap="round"/><path d="M208.03173,163.46645c0.99266,5.94944 -3.50196,11.6566 -10.039,12.7473c-6.53705,1.0907 -12.64109,-2.84808 -13.63376,-8.7975c-0.99266,-5.94944 22.68008,-9.89924 23.67274,-3.9498z" data-paper-data="{&quot;origPos&quot;:null,&quot;origRot&quot;:0}" fill="#2e8149" stroke="#0f2c13" stroke-width="0.5" stroke-linecap="butt"/><path d="M185.53784,167.90573c-1.7446,-5.58311 1.29173,-11.76474 6.87488,-13.50934c5.58311,-1.7446 11.59883,1.60846 13.34343,7.19161c1.7446,5.58311 -1.29173,11.76474 -6.87488,13.50934c-5.58311,1.7446 -11.59882,-1.60846 -13.34343,-7.19161z" data-paper-data="{&quot;origPos&quot;:null,&quot;origRot&quot;:0}" fill="url(#color-8)" stroke="#000000" stroke-width="1" stroke-linecap="butt"/><path d="M204.60865,168.96219c-1.19193,2.51243 -1.84377,2.50088 -3.23707,2.90747c-2.66341,0.77723 -7.23788,-0.00324 -7.23788,-0.00324c0,0 3.88762,-2.13194 5.36201,-4.49198c1.31439,-2.10394 1.46467,-4.32382 0.10578,-6.39928c-0.8967,-1.36954 -2.26647,-2.03978 -2.78394,-3.59284c-0.291,-0.87339 0.51583,-2.54416 0.51583,-2.54416c0,0 0.75551,0.53456 2.57103,0.93244c1.21878,0.26711 2.17086,1.59121 3.124,2.39637c1.29505,1.09395 1.57659,2.35286 2.08222,3.97096c1.13911,3.6454 0.61217,4.4758 -0.50198,6.82426z" data-paper-data="{&quot;origPos&quot;:null,&quot;index&quot;:null,&quot;origRot&quot;:0}" fill="#27b33c" stroke="#1c802b" stroke-width="0.5" stroke-linecap="butt"/><path d="M186.23964,167.7968c-0.61313,-1.96219 -0.71389,-3.56399 -0.17817,-5.54871c0.39431,-1.46076 1.06938,-3.10274 2.09997,-4.21053c1.53519,-1.65016 4.31536,-2.91803 4.31536,-2.91803c0,0 -1.59276,5.99023 -1.54789,7.71441c0.07826,3.00727 1.76076,5.11654 4.52372,6.30644c3.09929,1.33477 8.44684,0.77598 8.44684,0.77598c0,0 -2.92272,5.18453 -7.20161,4.91883c0,0 -3.15626,0.08748 -5.14245,-0.93545c-2.54315,-1.30978 -3.93444,-1.68236 -5.31578,-6.10295z" data-paper-data="{&quot;origPos&quot;:null,&quot;origRot&quot;:0}" fill="#27b33c" stroke="#1c802b" stroke-width="0.5" stroke-linecap="butt"/><path d="M191.03868,164.2222c0,0 1.81628,-4.21294 3.38099,-4.71798c0.83194,-0.26853 1.38781,1.71358 2.20472,2.02492c0.80129,0.30537 0.54475,-0.82947 1.39087,-0.96865c0.32677,-0.05374 1.60581,0.89162 1.60581,0.89162" data-paper-data="{&quot;origPos&quot;:null,&quot;origRot&quot;:0}" fill="none" stroke="#1c802b" stroke-width="0.5" stroke-linecap="round"/><path d="M194.81472,154.8305c0,0 -0.63532,0.90902 -0.64937,1.48119c-0.01623,0.66179 1.42087,0.60626 1.54155,1.25717c0.11327,0.61088 -1.00794,1.97764 -1.00794,1.97764" data-paper-data="{&quot;origPos&quot;:null,&quot;origRot&quot;:0}" fill="none" stroke="#1c802b" stroke-width="0.5" stroke-linecap="round"/><path d="M188.68065,166.28352c-0.27045,-1.31626 0.54382,-0.59661 0.8646,-1.90153c0.12188,-0.49581 -1.52722,-1.74079 -1.41317,-2.23846c0.2626,-1.14598 0.74954,-0.79895 1.34542,-1.81243c0.64047,-1.08929 -2.58452,-2.90899 -1.99855,-4.02854c0.49205,-0.94015 1.5454,0.45184 2.58436,0.23604c0.71206,-0.1479 -0.60703,-2.88862 -0.05728,-3.36473c0.47744,-0.41348 0.78054,0.69876 1.2634,1.10593c0.19593,0.16522 0.77606,-1.14091 1.00221,-1.0203c0.23247,0.12396 1.25408,0.29645 1.27241,0.55926c0.02104,0.30173 -0.72899,-0.05929 -0.96658,0.12787c-0.26421,0.20812 -0.21627,0.94414 -0.21627,0.94414c0,0 -1.38669,4.6284 -1.46229,7.27683c-0.06449,2.25947 0.31721,3.25112 1.68601,5.04994c2.11012,2.77302 6.87006,3.02805 6.87006,3.02805c0,0 -10.17164,-1.02884 -10.77432,-3.96208z" data-paper-data="{&quot;origPos&quot;:null,&quot;origRot&quot;:0}" fill="url(#color-9)" stroke="#256d2f" stroke-width="0.5" stroke-linecap="butt"/><path d="M200.21423,166.74128c0,0 1.17953,-3.85593 -0.32055,-5.90933c-1.24483,-1.70398 -2.23748,-1.60863 -2.89529,-3.50195c-0.74299,-2.13853 0.41566,-3.22344 0.41566,-3.22344c0,0 -1.79458,-1.2739 -1.40166,-0.92675c0.57726,0.51004 1.10444,-1.19285 1.78856,-0.83881c0.47501,0.24583 0.16339,0.53501 0.82309,1.52363c0.21553,0.32297 1.14701,0.44396 1.24472,0.81973c0.18939,0.72834 -0.75359,1.27651 -0.72411,2.02852c0.04147,1.05763 2.9681,1.6139 3.29756,2.61974c0.63907,1.95111 -0.15446,0.59013 -0.8522,2.32516c-0.62466,1.55333 1.2203,-0.2095 1.58817,1.4238c0.57974,2.57417 -2.96395,3.65969 -2.96395,3.65969z" data-paper-data="{&quot;origPos&quot;:null,&quot;origRot&quot;:0}" fill="url(#color-10)" stroke="#256d2f" stroke-width="0.5" stroke-linecap="butt"/><path d="M184.27168,168.8642c-0.17221,-0.62014 -0.24441,-1.96485 -0.24441,-1.96485c0,0 1.63595,0.70674 1.92631,1.05492c0.87107,1.04451 1.32499,2.59291 1.32499,2.59291c0,0 -0.17885,-1.65399 1.9033,-1.69503c0.66276,-0.01306 1.53676,1.77328 1.53676,1.77328c0,0 1.38723,-2.67837 2.77659,-1.97038c1.68519,0.85873 2.46578,2.43595 2.46578,2.43595c0,0 0.96546,-2.93445 1.90146,-3.03033c2.11637,-0.21678 3.66254,0.35272 3.66254,0.35272c0,0 -2.03715,-0.37357 -1.44715,-2.27738c0.43486,-1.40321 3.81036,-1.4036 3.81036,-1.4036c0,0 -1.06164,-1.34668 -0.88971,-2.27352c0.2274,-1.2257 1.69525,-0.52079 1.69525,-0.52079l-0.22854,-2.05373c0,0 2.81417,1.75133 3.29235,3.10099c0.63887,1.80319 0.25985,3.44645 -0.28053,5.28158c-1.1889,4.03755 -5.03601,7.37365 -9.17768,8.12324c-2.2066,0.39937 -3.64344,0.07646 -5.86668,-0.2164c0,0 -3.3923,-0.92403 -5.17638,-2.69934c-1.32604,-1.31954 -2.46801,-2.74984 -2.98466,-4.61025z" data-paper-data="{&quot;origPos&quot;:null,&quot;origRot&quot;:0}" fill="url(#color-11)" stroke="#0f2c13" stroke-width="0.5" stroke-linecap="butt"/></g></g></svg>