<svg version="1.1" xmlns="http://www.w3.org/2000/svg" xmlns:xlink="http://www.w3.org/1999/xlink" width="60.84049" height="38.08487"><defs><linearGradient x1="240.16673" y1="162.83335" x2="240.16673" y2="199.33335" gradientUnits="userSpaceOnUse" id="color-1"><stop offset="0" stop-color="#ffe900"/><stop offset="1" stop-color="#fff6b4"/></linearGradient><linearGradient x1="237.0645" y1="192.78861" x2="237.0645" y2="198.59501" gradientUnits="userSpaceOnUse" id="color-2"><stop offset="0" stop-color="#24693c"/><stop offset="1" stop-color="#4ecc71"/></linearGradient><radialGradient cx="236.90052" cy="183.73114" r="11.31439" gradientUnits="userSpaceOnUse" id="color-3"><stop offset="0" stop-color="#b3fa98"/><stop offset="1" stop-color="#05ac26"/></radialGradient><radialGradient cx="232.26851" cy="171.393" r="8.03398" gradientUnits="userSpaceOnUse" id="color-4"><stop offset="0" stop-color="#036617"/><stop offset="1" stop-color="#037019"/></radialGradient><radialGradient cx="237.48805" cy="183.10946" r="3.57765" gradientUnits="userSpaceOnUse" id="color-5"><stop offset="0" stop-color="#adeba3"/><stop offset="1" stop-color="#32c144"/></radialGradient><linearGradient x1="234.90734" y1="187.71048" x2="234.90734" y2="197.24534" gradientUnits="userSpaceOnUse" id="color-6"><stop offset="0" stop-color="#a8d9ab"/><stop offset="1" stop-color="#50d844"/></linearGradient><radialGradient cx="236.50416" cy="183.89489" r="6.06917" gradientUnits="userSpaceOnUse" id="color-7"><stop offset="0" stop-color="#a5f48f"/><stop offset="1" stop-color="#32c144"/></radialGradient><linearGradient x1="241.43085" y1="177.68745" x2="241.43085" y2="187.12254" gradientUnits="userSpaceOnUse" id="color-8"><stop offset="0" stop-color="#baffa7"/><stop offset="1" stop-color="#82ff63"/></linearGradient><radialGradient cx="215.86478" cy="169.79549" r="5.54104" gradientUnits="userSpaceOnUse" id="color-9"><stop offset="0" stop-color="#c8d6ca"/><stop offset="1" stop-color="#05ad27"/></radialGradient><radialGradient cx="212.49271" cy="171.60121" r="5.12828" gradientUnits="userSpaceOnUse" id="color-10"><stop offset="0" stop-color="#83dd6c"/><stop offset="1" stop-color="#28bd46"/></radialGradient><radialGradient cx="218.45158" cy="172.27835" r="3.90672" gradientUnits="userSpaceOnUse" id="color-11"><stop offset="0" stop-color="#83dd6c"/><stop offset="1" stop-color="#5dc572"/></radialGradient><linearGradient x1="215.30909" y1="171.66082" x2="215.30909" y2="178.40976" gradientUnits="userSpaceOnUse" id="color-12"><stop offset="0" stop-color="#53db7a"/><stop offset="1" stop-color="#24693c"/></linearGradient></defs><g transform="translate(-209.24292,-161.85145)"><g data-paper-data="{&quot;isPaintingLayer&quot;:true}" fill="none" fill-rule="nonzero" stroke="none" stroke-width="none" stroke-linecap="none" stroke-linejoin="miter" stroke-miterlimit="10" stroke-dasharray="" stroke-dashoffset="0" font-family="none" font-weight="none" font-size="none" text-anchor="none" style="mix-blend-mode: normal"><path d="M210.50009,199.33335v-36.5h59.33333v36.5h-35.53162c-3.55039,-0.20536 -7.16454,-0.45838 -10.46478,-0.07208c-0.25993,0.03043 -0.5285,0.05239 -0.80134,0.07208z" data-paper-data="{&quot;origPos&quot;:null}" fill="url(#color-1)" stroke="#d7faff" stroke-width="0.5" stroke-linecap="butt"/><path d="M267.97119,181.7933v15.64249h-18.91108z" data-paper-data="{&quot;origPos&quot;:null,&quot;origRot&quot;:0}" fill="#d6faff" stroke="none" stroke-width="0" stroke-linecap="butt"/><text transform="translate(248.66006,196.40244) scale(0.28271,0.28271)" font-size="40" xml:space="preserve" data-paper-data="{&quot;origPos&quot;:null}" fill="#000000" fill-rule="nonzero" stroke="none" stroke-width="1" stroke-linecap="butt" stroke-linejoin="miter" stroke-miterlimit="10" stroke-dasharray="" stroke-dashoffset="0" font-family="Sans Serif" font-weight="normal" text-anchor="start" style="mix-blend-mode: normal"><tspan x="0" dy="0">100</tspan></text><text transform="translate(248.31336,196.05574) scale(0.28271,0.28271)" font-size="40" xml:space="preserve" data-paper-data="{&quot;origPos&quot;:null}" fill="#ffffff" fill-rule="nonzero" stroke="none" stroke-width="1" stroke-linecap="butt" stroke-linejoin="miter" stroke-miterlimit="10" stroke-dasharray="" stroke-dashoffset="0" font-family="Sans Serif" font-weight="normal" text-anchor="start" style="mix-blend-mode: normal"><tspan x="0" dy="0">100</tspan></text><path d="M250.38556,194.83596c0,0.72635 -2.34858,1.91043 -3.15718,1.82359c-1.16368,-0.12496 -3.86127,-1.75005 -3.86127,-1.75005c0,0 2.07713,0.87759 2.66499,1.58308c0.57743,0.69297 0.84502,1.80934 -0.30023,2.00358c-0.43092,0.07308 -1.18931,-1.44411 -1.60163,-1.33258c-0.26909,0.07279 -0.10568,0.31863 -0.20982,0.5007c-0.25533,0.44638 -0.3446,0.73304 -1.05456,0.76014c-1.34173,0.05123 -0.63772,-1.35383 -1.92324,-1.09035c-0.7051,0.14452 -0.583,0.39459 -1.14432,0.71591c-1.10394,0.63194 -1.38601,0.54041 -2.83566,0.54041c-1.7778,0 -3.70211,-2.41422 -3.70211,-2.41422c0,0 -4.88374,2.05469 -7.49124,1.20537c-0.97514,-0.31762 0.55497,-1.30767 1.40509,-1.75946c0.71806,-0.38161 2.20455,-0.50672 2.20455,-0.50672c0,0 -2.62022,0.37072 -3.74103,0.08522c-0.94655,-0.24112 -1.89446,-0.81203 -1.89446,-1.49279c0,-0.45286 4.1397,-0.06191 4.1397,-0.06191c0,0 -2.08543,-0.52164 -1.19494,-0.68617c3.63808,-0.67222 16.62624,0.84143 17.8208,1.01408c0.39819,0.05755 3.72638,-0.48495 3.97734,-0.2692c0.3847,0.33073 -1.40792,1.31262 -1.40792,1.31262c0,0 3.30713,-1.46394 3.30713,-0.18125z" data-paper-data="{&quot;origPos&quot;:null}" fill="url(#color-2)" stroke="#0f2c13" stroke-width="0.5" stroke-linecap="butt"/><path d="M226.53908,184.4032v-1.48171h1.33354v1.48171z" data-paper-data="{&quot;origPos&quot;:null}" fill="#1c5324" stroke="none" stroke-width="0" stroke-linecap="butt"/><path d="M248.93609,187.19716c0,5.85689 -4.81779,10.60483 -11.48694,10.60483c-6.66915,0 -10.604,-4.74794 -10.604,-10.60483c0,-4.09321 1.07662,-5.44773 2.98544,-6.17844c1.3821,-0.52907 0.66654,-2.30426 1.05572,-3.73208c0.22037,-0.80849 0.942,-1.71327 1.6598,-1.28083c1.10559,0.66606 2.53336,2.07498 2.53336,2.07498c0,0 0.30782,-2.41941 1.47878,-1.58807c1.31501,0.93363 2.33537,1.31771 3.32614,2.26345c0,0 9.05172,2.58411 9.05172,8.44099z" data-paper-data="{&quot;origPos&quot;:null}" fill="url(#color-3)" stroke="#000000" stroke-width="0.75" stroke-linecap="butt"/><path d="M243.40812,190.47815c0.148,1.20892 -0.30566,2.29197 -1.01329,2.41902c-0.70762,0.12706 -1.40125,-0.74998 -1.54925,-1.95891c-0.148,-1.20892 0.30566,-2.29197 1.01329,-2.41902c0.70762,-0.12706 1.40125,0.74998 1.54924,1.9589z" data-paper-data="{&quot;origPos&quot;:null,&quot;origRot&quot;:0}" fill="#000000" stroke="none" stroke-width="0" stroke-linecap="butt"/><path d="M246.52139,189.45654c0.10032,0.912 -0.25138,1.7236 -0.78557,1.81277c-0.5342,0.08917 -1.04856,-0.57784 -1.14889,-1.48985c-0.10032,-0.912 0.25137,-1.7236 0.78557,-1.81277c0.5342,-0.08917 1.04857,0.57785 1.1489,1.48984z" data-paper-data="{&quot;origPos&quot;:null,&quot;origRot&quot;:0}" fill="#000000" stroke="none" stroke-width="0" stroke-linecap="butt"/><path d="M235.32143,178.5261c0.13806,-0.61151 1.11868,-0.88854 1.12482,-0.8779c0.50291,-0.10344 0.61232,0.1218 0.71033,0.36074c0.29403,0.71683 2.57471,2.39906 2.57471,2.39906c0,0 -4.68404,-0.66742 -4.40985,-1.8819z" data-paper-data="{&quot;origPos&quot;:null,&quot;index&quot;:null}" fill="#287732" stroke="none" stroke-width="0" stroke-linecap="butt"/><path d="M234.09935,179.23041l-2.49831,-7.07765c0,0 -1.41917,-0.55207 -2.63498,-0.21358c-3.00807,0.83746 -7.8279,3.2268 -7.8279,3.2268l0.82482,-1.70156c0,0 3.40549,-1.72103 5.66206,-2.43822c2.17058,-0.68987 5.20155,-0.44659 5.20155,-0.44659l4.37954,9.59148z" data-paper-data="{&quot;origPos&quot;:null,&quot;origRot&quot;:0}" fill="url(#color-4)" stroke="#0f2c13" stroke-width="0.25" stroke-linecap="butt"/><path d="M235.37339,184.82567c0,0 -1.41112,-4.00416 0.51586,-5.67422c0.76856,0.08478 0.85708,0.47861 1.64128,0.3873c0.43417,-0.05056 -0.78466,-1.76751 -0.35483,-1.84687c0.68456,-0.12638 1.75211,0.32972 2.34073,0.70139c1.04651,0.6608 2.45043,1.44599 2.45043,1.44599c0,0 -0.57852,1.88922 -2.42731,3.4915c-1.09348,0.94769 -4.16617,1.4949 -4.16617,1.4949z" data-paper-data="{&quot;origPos&quot;:null}" fill="url(#color-5)" stroke="#256d2f" stroke-width="0.5" stroke-linecap="butt"/><path d="M242.44375,190.1866c0.06714,0.54842 -0.13866,1.03972 -0.45967,1.09736c-0.32101,0.05764 -0.63566,-0.34022 -0.7028,-0.88863c-0.06714,-0.54842 0.13865,-1.03973 0.45967,-1.09737c0.32101,-0.05764 0.63566,0.34023 0.7028,0.88864z" data-paper-data="{&quot;origPos&quot;:null,&quot;origRot&quot;:0}" fill="#ffffff" stroke="none" stroke-width="0" stroke-linecap="butt"/><path d="M245.68035,189.06243c0.03421,0.31101 -0.08572,0.58778 -0.2679,0.6182c-0.18217,0.03042 -0.35759,-0.19706 -0.39181,-0.50807c-0.03421,-0.31101 0.08572,-0.58779 0.2679,-0.6182c0.18217,-0.03042 0.35759,0.19706 0.3918,0.50807z" data-paper-data="{&quot;origPos&quot;:null,&quot;origRot&quot;:0}" fill="#ffffff" stroke="none" stroke-width="0" stroke-linecap="butt"/><path d="M231.83017,181.08295c0,0 -0.29864,-3.01488 -0.00461,-3.7317c0.09801,-0.23894 0.20742,-0.67912 0.71033,-0.57569c0.00614,-0.01064 0.98676,0.35237 1.12482,0.96388c0.27419,1.21448 -0.05327,0.42028 -0.05327,0.42028z" data-paper-data="{&quot;origPos&quot;:null}" fill="#287732" stroke="none" stroke-width="0" stroke-linecap="butt"/><path d="M238.00748,188.01556c0,0 0.50039,-2.99326 1.39735,-2.90954c1.85129,0.17281 2.86148,2.23937 2.86148,2.23937c0,0 -1.54962,-0.70084 -2.29029,-0.58429c-0.92139,0.14499 -1.96855,1.25446 -1.96855,1.25446z" data-paper-data="{&quot;origPos&quot;:null,&quot;origRot&quot;:0}" fill="#05ac26" stroke="#000000" stroke-width="0.25" stroke-linecap="butt"/><path d="M244.47781,186.81479c0,0 0.2198,-1.89694 1.12703,-2.39714c0.85587,-0.47188 2.43143,1.85978 2.43143,1.85978c0,0 -1.16315,-0.70318 -1.93902,-0.61042z" data-paper-data="{&quot;origPos&quot;:null,&quot;index&quot;:null,&quot;origRot&quot;:0}" fill="#05ac26" stroke="#000000" stroke-width="0.25" stroke-linecap="butt"/><path d="M231.76575,195.74974c-4.98677,-2.96383 -4.34681,-8.03926 -4.34681,-8.03926c0,0 0.97475,1.24059 1.86901,1.88602c1.55278,1.1207 2.82757,1.55262 4.47673,2.52598c0.57453,0.33909 1.76907,0.51211 2.28904,0.93008c0.56067,0.45069 0.64089,1.07268 1.05552,1.66052c0.30036,0.42584 0.645,0.37409 1.11015,0.609c1.55834,0.78699 4.20305,1.03528 4.20305,1.03528c0,0 -5.66992,2.35621 -10.65669,-0.60762z" data-paper-data="{&quot;origPos&quot;:null}" fill="url(#color-6)" stroke="#287732" stroke-width="0" stroke-linecap="butt"/><path d="M227.38807,189.44382c0,0 -1.60813,-3.46045 -0.84933,-5.4923c0.7588,-2.03185 2.61146,-1.00069 3.50172,-1.74334c0.93518,-0.78014 1.10203,-0.78493 1.92137,-1.68595c0.62547,-0.68782 0.46206,-2.21137 1.22103,-2.74828c0.52665,-0.37257 0.98147,0.10982 1.61378,0.23765c0.69061,0.13961 0.74495,2.42937 0.74495,2.42937c0,0 1.54364,-0.29823 1.3162,0.86314c-0.19591,1.00037 -0.83634,0.60595 -0.78203,1.62389c0.06539,1.22542 1.40759,-0.17466 1.28817,1.04668c-0.18537,1.89587 -0.34669,2.79463 -1.53923,4.28008c0,0 -2.98927,1.11846 -4.5798,1.30245c-1.92046,0.22216 -3.85684,-0.11339 -3.85684,-0.11339z" data-paper-data="{&quot;origPos&quot;:null}" fill="url(#color-7)" stroke="#256d2f" stroke-width="0.25" stroke-linecap="butt"/><path d="M227.27386,191.60115c-0.45609,-1.07259 0.0823,-1.39988 -0.48871,-2.37204c-0.24915,-0.42417 -0.50632,-0.15644 -0.99655,-0.19743c-0.66708,-0.05577 -1.51533,-0.05553 -1.66672,-0.70758c-0.1696,-0.73053 1.05813,-1.73796 1.05813,-1.73796c0,0 -2.33187,-0.28469 -2.25548,-1.83234c0.07922,-1.60493 2.35367,-1.54753 2.57054,-1.91511c0.365,-0.61866 -0.06041,-1.268 0.64133,-1.42141c0.45111,-0.09861 1.37554,1.4184 1.3327,0.95864c-0.0555,-0.59554 1.81046,0.05846 1.81046,0.05846l-1.34354,0.83546c0,0 -1.232,0.32004 -1.13678,1.37256c0.18117,2.00264 -0.17776,1.88808 1.17613,3.37482c0.66872,0.73435 1.92837,2.66204 2.90807,2.41459c0.42766,0.87314 1.73063,0.85567 2.5833,1.32281c1.10753,0.60675 2.7771,1.59884 2.7771,1.59884c0,0 -1.48138,-0.54291 -2.02613,-0.50746c-1.53976,0.10019 -1.28171,0.5057 -2.73061,-0.02498c-0.62378,-0.22847 -0.76809,-0.84662 -1.40754,-1.02662c-1.45827,-0.4105 -2.3496,0.87936 -2.80568,-0.19323z" data-paper-data="{&quot;origPos&quot;:null}" fill="#98ff7e" stroke="#256d2f" stroke-width="0.5" stroke-linecap="butt"/><path d="M236.47211,187.12254c0,0 0.37429,-0.65808 0.47443,-1.07401c0.15409,-0.64008 0.27791,-1.59676 0.27791,-1.59676c0.31573,-0.63109 0.67621,-0.78869 1.12278,-1.33507c0.40887,-0.50026 1.00127,-1.3869 1.00127,-1.3869c0.49672,-0.58524 2.70467,-2.15327 2.70467,-2.15327l-2.0563,-1.00904c0,0 0.69875,-0.32453 1.08401,-0.45765c2.20691,-0.76254 5.15602,-0.52507 5.30578,0.97765c0.0913,0.9161 -1.98342,0.00513 -2.96063,1.1565c-0.41186,0.48527 0.46662,1.66066 -0.05738,2.2916c-0.42808,0.51545 -2.00591,-0.94824 -2.44063,-0.43838c-0.30614,0.35905 -0.14507,1.62829 -0.49874,1.894c-0.55981,0.42057 -0.53433,0.05235 -1.21591,-0.10801c-0.29024,-0.06829 -0.4836,0.10651 -0.69279,0.31899c-0.86363,0.8772 -0.079,1.36107 -0.98051,2.1993c-0.63128,0.58697 -1.06795,0.72104 -1.06795,0.72104z" data-paper-data="{&quot;origPos&quot;:null}" fill="url(#color-8)" stroke="#256d2f" stroke-width="0.5" stroke-linecap="butt"/><path d="M242.12096,178.60698c0,0 1.84219,0.08038 1.37773,0.36187c-1.5412,0.93404 -2.3563,0.92805 -3.66487,2.16716c-0.66952,0.63399 -1.22038,1.68606 -1.84618,2.36325c-1.71515,1.85598 -0.36041,3.16846 -2.36736,4.70422c-1.50266,1.14986 -5.49656,1.55344 -5.49656,1.55344" data-paper-data="{&quot;origPos&quot;:null}" fill="none" stroke="#287732" stroke-width="0.5" stroke-linecap="round"/><path d="M242.47353,196.33462c0,0 -1.362,-0.18822 -2.28243,-0.44204c-0.98902,-0.27273 -1.65293,-0.54733 -2.57671,-0.99363c-1.60315,-0.77451 -0.40258,-1.16397 -1.95632,-2.03338c-2.20157,-1.2319 -4.90944,-2.21085 -6.82476,-3.85281c-1.41323,-1.21153 -2.6167,-3.43276 -1.74498,-5.05104c0.36355,-0.67491 0.83892,-0.75654 0.83892,-0.75654" data-paper-data="{&quot;origPos&quot;:null}" fill="none" stroke="#287732" stroke-width="0.5" stroke-linecap="round"/><path d="M221.84328,173.7941c-0.42773,3.20024 -3.52705,5.40001 -6.92253,4.91332c-3.39548,-0.48669 -5.80133,-3.47555 -5.3736,-6.67579c0.42773,-3.20024 12.72386,-1.43777 12.29613,1.76247z" data-paper-data="{&quot;origPos&quot;:null,&quot;origRot&quot;:0}" fill="#2e8149" stroke="#0f2c13" stroke-width="0.5" stroke-linecap="butt"/><path d="M209.89751,172.47021c0,-3.13308 2.4808,-5.80839 5.54104,-5.80839c3.06023,0 5.54104,2.67529 5.54104,5.80839c0,3.13308 -2.4808,5.8084 -5.54104,5.8084c-3.06023,0 -5.54104,-2.6753 -5.54104,-5.8084z" data-paper-data="{&quot;origPos&quot;:null}" fill="url(#color-9)" stroke="#000000" stroke-width="1" stroke-linecap="butt"/><path d="M219.21487,176.05697c-1.01075,1.09407 -1.34215,0.98403 -2.11943,0.96932c-1.48584,-0.02812 -3.69987,-1.15794 -3.69987,-1.15794c0,0 2.32814,-0.4689 3.45895,-1.43993c1.00809,-0.86566 1.43956,-1.97657 1.07639,-3.25474c-0.23965,-0.84343 -0.83288,-1.40493 -0.84932,-2.2816c-0.00925,-0.49302 0.67015,-1.21831 0.67015,-1.21831c0,0 0.30086,0.39399 1.16549,0.88745c0.58043,0.33127 0.85565,1.16031 1.21433,1.72422c0.48734,0.76618 0.43015,1.45477 0.43015,2.36281c0,2.04569 -0.40205,2.38605 -1.34684,3.40872z" data-paper-data="{&quot;origPos&quot;:null,&quot;index&quot;:null}" fill="#27b33c" stroke="#1c802b" stroke-width="0.5" stroke-linecap="butt"/><path d="M210.00985,172.52664c0,-1.10112 0.20438,-1.93614 0.79534,-2.86525c0.43495,-0.68383 1.0424,-1.41546 1.74626,-1.81717c1.04849,-0.5984 2.6724,-0.80245 2.6724,-0.80245c0,0 -1.77127,2.80807 -2.02377,3.69673c-0.4404,1.54997 0.08281,2.89713 1.30528,3.94687c1.37129,1.17753 4.1945,1.74614 4.1945,1.74614c0,0 -2.3225,2.18368 -4.46764,1.36428c0,0 -1.62762,-0.45951 -2.47965,-1.29978c-1.09095,-1.07591 -1.74273,-1.48865 -1.74273,-3.96937z" data-paper-data="{&quot;origPos&quot;:null}" fill="#27b33c" stroke="#1c802b" stroke-width="0.5" stroke-linecap="butt"/><path d="M213.03442,171.46578c0,0 1.60161,-1.86372 2.48225,-1.87196c0.46823,-0.00438 0.43577,1.09779 0.80368,1.38746c0.36087,0.28413 0.41101,-0.33704 0.86583,-0.27302c0.17565,0.02472 0.67854,0.71237 0.67854,0.71237" data-paper-data="{&quot;origPos&quot;:null}" fill="none" stroke="#1c802b" stroke-width="0.5" stroke-linecap="round"/><path d="M216.46529,167.26748c0,0 -0.47003,0.36324 -0.56862,0.65353c-0.11402,0.33575 0.62957,0.53694 0.58729,0.88899c-0.03968,0.33041 -0.83125,0.85005 -0.83125,0.85005" data-paper-data="{&quot;origPos&quot;:null}" fill="none" stroke="#1c802b" stroke-width="0.5" stroke-linecap="round"/><path d="M211.49956,172.14292c0.07201,-0.71615 0.37335,-0.21813 0.74581,-0.83404c0.14152,-0.23401 -0.5027,-1.13396 -0.36489,-1.37018c0.31734,-0.54394 0.51084,-0.28872 0.97739,-0.71168c0.50145,-0.45459 -0.85662,-1.90011 -0.37819,-2.37888c0.40176,-0.40204 0.71791,0.47789 1.28355,0.53355c0.38767,0.03814 0.15113,-1.57379 0.50825,-1.72938c0.31015,-0.13512 0.28742,0.48194 0.46924,0.76724c0.07378,0.11577 0.57903,-0.45931 0.67538,-0.36152c0.09904,0.10051 0.59379,0.3519 0.56117,0.4892c-0.03744,0.15762 -0.36322,-0.14677 -0.5146,-0.08904c-0.16833,0.0642 -0.26139,0.44815 -0.26139,0.44815c0,0 -1.44836,2.14475 -1.91011,3.48668c-0.39393,1.14486 -0.3572,1.71282 0.05523,2.85113c0.6358,1.75481 3.02859,2.64562 3.02859,2.64562c0,0 -5.03591,-2.15096 -4.87544,-3.74686z" data-paper-data="{&quot;origPos&quot;:null}" fill="url(#color-10)" stroke="#256d2f" stroke-width="0.5" stroke-linecap="butt"/><path d="M217.323,174.21949c0,0 1.21905,-1.78292 0.78017,-3.07237c-0.3642,-1.07003 -0.88693,-1.17987 -0.92077,-2.25292c-0.03822,-1.21203 0.72746,-1.58158 0.72746,-1.58158c0,0 -0.71398,-0.93798 -0.56856,-0.69773c0.21365,0.35298 0.75521,-0.4334 1.04841,-0.1431c0.20357,0.20156 -0.00194,0.29963 0.1774,0.91045c0.05858,0.19955 0.51549,0.41021 0.50541,0.61794c-0.01953,0.40263 -0.5892,0.53223 -0.69426,0.9214c-0.14776,0.54734 1.25962,1.29927 1.26737,1.86615c0.01503,1.0996 -0.17325,0.27703 -0.80714,1.0526c-0.56751,0.69434 0.65735,0.08784 0.58449,0.98164c-0.11484,1.40867 -2.09997,1.39753 -2.09997,1.39753z" data-paper-data="{&quot;origPos&quot;:null}" fill="url(#color-11)" stroke="#256d2f" stroke-width="0.25" stroke-linecap="butt"/><path d="M209.57796,172.75795c0.01039,-0.34456 0.17808,-1.04358 0.17808,-1.04358c0,0 0.68187,0.62268 0.76935,0.84707c0.26245,0.67317 0.24805,1.53731 0.24805,1.53731c0,0 0.16286,-0.87418 1.17231,-0.56253c0.32131,0.0992 0.47348,1.1521 0.47348,1.1521c0,0 1.0717,-1.14771 1.63457,-0.56378c0.6827,0.70825 0.82136,1.6393 0.82136,1.6393c0,0 0.90704,-1.34601 1.37248,-1.2455c1.0524,0.22727 1.71167,0.76543 1.71167,0.76543c0,0 -0.92534,-0.51644 -0.35441,-1.39551c0.42081,-0.64792 2.04734,-0.10887 2.04734,-0.10887c0,0 -0.30879,-0.85809 -0.08639,-1.30447c0.29412,-0.59031 0.89527,0.00457 0.89527,0.00457l0.19909,-1.08649c0,0 1.09231,1.34495 1.11951,2.11136c0.03634,1.02396 -0.39371,1.80351 -0.9304,2.6554c-1.18078,1.87428 -3.5368,2.96528 -5.64532,2.68686c-1.12338,-0.14834 -1.76709,-0.54297 -2.79426,-1.04786c0,0 -1.49544,-1.01434 -2.08779,-2.20699c-0.44028,-0.88646 -0.77517,-1.80014 -0.744,-2.83382z" data-paper-data="{&quot;origPos&quot;:null}" fill="url(#color-12)" stroke="#0f2c13" stroke-width="0.25" stroke-linecap="butt"/><path d="M210.24293,198.32859v-35.47714h58.63158v35.47714z" data-paper-data="{&quot;origPos&quot;:null}" fill="none" stroke="#f8feff" stroke-width="2" stroke-linecap="butt"/></g></g></svg>