<svg version="1.1" xmlns="http://www.w3.org/2000/svg" xmlns:xlink="http://www.w3.org/1999/xlink" width="78.33888" height="55.33865" viewBox="0,0,78.33888,55.33865"><defs><linearGradient x1="238.76312" y1="191.00524" x2="238.76312" y2="207.40821" gradientUnits="userSpaceOnUse" id="color-1"><stop offset="0" stop-color="#24693c"/><stop offset="1" stop-color="#4ecc71"/></linearGradient><radialGradient cx="239.44776" cy="177.8383" r="21.1235" gradientUnits="userSpaceOnUse" id="color-2"><stop offset="0" stop-color="#b3fa98"/><stop offset="1" stop-color="#05ac26"/></radialGradient><radialGradient cx="226.70685" cy="155.92915" r="14.99911" gradientUnits="userSpaceOnUse" id="color-3"><stop offset="0" stop-color="#036617"/><stop offset="1" stop-color="#037019"/></radialGradient><radialGradient cx="240.54467" cy="176.67765" r="6.67932" gradientUnits="userSpaceOnUse" id="color-4"><stop offset="0" stop-color="#adeba3"/><stop offset="1" stop-color="#32c144"/></radialGradient><linearGradient x1="235.72659" y1="185.26755" x2="235.72659" y2="203.06875" gradientUnits="userSpaceOnUse" id="color-5"><stop offset="0" stop-color="#a8d9ab"/><stop offset="1" stop-color="#50d844"/></linearGradient><radialGradient cx="238.70778" cy="178.14401" r="11.33088" gradientUnits="userSpaceOnUse" id="color-6"><stop offset="0" stop-color="#a5f48f"/><stop offset="1" stop-color="#32c144"/></radialGradient><linearGradient x1="247.9057" y1="166.55497" x2="247.9057" y2="184.1699" gradientUnits="userSpaceOnUse" id="color-7"><stop offset="0" stop-color="#baffa7"/><stop offset="1" stop-color="#82ff63"/></linearGradient><radialGradient cx="195.98389" cy="160.03626" r="10.59119" gradientUnits="userSpaceOnUse" id="color-8"><stop offset="0" stop-color="#c8d6ca"/><stop offset="1" stop-color="#05ad27"/></radialGradient><radialGradient cx="190.84067" cy="164.69831" r="9.57427" gradientUnits="userSpaceOnUse" id="color-9"><stop offset="0" stop-color="#83dd6c"/><stop offset="1" stop-color="#28bd46"/></radialGradient><radialGradient cx="201.96183" cy="163.40116" r="7.29369" gradientUnits="userSpaceOnUse" id="color-10"><stop offset="0" stop-color="#83dd6c"/><stop offset="1" stop-color="#5dc572"/></radialGradient><linearGradient x1="195.26826" y1="163.77933" x2="198.13176" y2="176.04962" gradientUnits="userSpaceOnUse" id="color-11"><stop offset="0" stop-color="#53db7a"/><stop offset="1" stop-color="#24693c"/></linearGradient></defs><g transform="translate(-184.32881,-152.55651)"><g data-paper-data="{&quot;isPaintingLayer&quot;:true}" fill="none" fill-rule="nonzero" stroke="none" stroke-width="none" stroke-linecap="none" stroke-linejoin="miter" stroke-miterlimit="10" stroke-dasharray="" stroke-dashoffset="0" font-family="none" font-weight="none" font-size="none" text-anchor="none" style="mix-blend-mode: normal"><path d="M261.10096,196.78898c0,2.05192 -3.93827,5.3969 -5.29421,5.1516c-1.95135,-0.35301 -6.4749,-4.94385 -6.4749,-4.94385c0,0 3.48311,2.47919 4.46885,4.47218c0.96829,1.95763 1.417,5.11132 -0.50345,5.66005c-0.72262,0.20647 -1.99435,-4.07958 -2.68578,-3.76452c-0.45122,0.20562 -0.1772,0.90011 -0.35182,1.41446c-0.42816,1.26101 -0.57785,2.07082 -1.76837,2.1474c-2.24992,0.14472 -1.06938,-3.82453 -3.22503,-3.08021c-1.18238,0.40825 -0.97761,1.11468 -1.91889,2.02242c-1.85117,1.78521 -2.32417,1.52666 -4.75506,1.52666c-2.98118,0 -6.20802,-6.82012 -6.20802,-6.82012c0,0 -8.18946,5.80446 -12.56192,3.40515c-1.6352,-0.89729 0.93062,-3.69416 2.35619,-4.97045c1.2041,-1.07803 3.69676,-1.43148 3.69676,-1.43148c0,0 -4.39377,1.0473 -6.27326,0.24077c-1.58726,-0.68114 -3.17682,-2.29397 -3.17682,-4.2171c0,-1.27932 6.94181,-0.1749 6.94181,-0.1749c0,0 -3.497,-1.47362 -2.00377,-1.93843c6.10065,-1.899 27.88026,2.37702 29.88336,2.86475c0.66772,0.16258 6.24871,-1.36996 6.66951,-0.76049c0.64509,0.93429 -2.36091,3.70814 -2.36091,3.70814c0,0 5.54567,-4.13562 5.54567,-0.51203z" data-paper-data="{&quot;origPos&quot;:null}" fill="url(#color-1)" stroke="#0f2c13" stroke-width="1" stroke-linecap="butt"/><path d="M220.1034,179.093v-2.76629h2.48966v2.76629z" data-paper-data="{&quot;origPos&quot;:null}" fill="#1c5324" stroke="none" stroke-width="0" stroke-linecap="butt"/><path d="M261.91767,184.30921c0,10.93456 -8.99461,19.79877 -21.44564,19.79877c-12.45103,0 -19.79723,-8.86421 -19.79723,-19.79877c0,-7.64184 2.01,-10.17069 5.5737,-11.53488c2.58033,-0.98775 1.24441,-4.30197 1.97099,-6.96765c0.41142,-1.50942 1.75869,-3.1986 3.09877,-2.39126c2.06409,1.24351 4.72968,3.87391 4.72968,3.87391c0,0 0.57469,-4.51695 2.76081,-2.96485c2.45507,1.74304 4.36004,2.4601 6.20977,4.22577c0,0 16.89917,4.82442 16.89917,15.75897z" data-paper-data="{&quot;origPos&quot;:null}" fill="url(#color-2)" stroke="#000000" stroke-width="1.5" stroke-linecap="butt"/><path d="M251.59719,190.43468c0.27631,2.25701 -0.57066,4.27901 -1.89177,4.51621c-1.32109,0.23722 -2.61607,-1.40018 -2.89238,-3.6572c-0.27631,-2.25701 0.57066,-4.27901 1.89177,-4.51621c1.32109,-0.23722 2.61606,1.40018 2.89236,3.65718z" data-paper-data="{&quot;origPos&quot;:null,&quot;origRot&quot;:0}" fill="#000000" stroke="none" stroke-width="0" stroke-linecap="butt"/><path d="M257.40952,188.52737c0.1873,1.70267 -0.46932,3.21789 -1.46663,3.38437c-0.99732,0.16648 -1.95762,-1.07881 -2.14493,-2.78149c-0.1873,-1.70267 0.46931,-3.21789 1.46663,-3.38437c0.99732,-0.16648 1.95764,1.07882 2.14495,2.78148z" data-paper-data="{&quot;origPos&quot;:null,&quot;origRot&quot;:0}" fill="#000000" stroke="none" stroke-width="0" stroke-linecap="butt"/><path d="M236.49967,168.12068c0.25775,-1.14166 2.08853,-1.65886 2.09998,-1.639c0.93891,-0.19312 1.14318,0.2274 1.32616,0.67349c0.54893,1.33828 4.80687,4.47894 4.80687,4.47894c0,0 -8.74491,-1.24605 -8.233,-3.51343z" data-paper-data="{&quot;origPos&quot;:null,&quot;index&quot;:null}" fill="#287732" stroke="none" stroke-width="0" stroke-linecap="butt"/><path d="M233.36082,169.40158l-7.54517,-11.80792c0,0 -2.81443,-0.40159 -4.88129,0.72969c-5.11367,2.79889 -12.86289,9.18796 -12.86289,9.18796l0.77767,-3.4436c0,0 5.46133,-4.57393 9.25971,-6.8353c3.65364,-2.17521 9.26749,-3.01888 9.26749,-3.01888l12.032,15.58015z" data-paper-data="{&quot;origPos&quot;:null,&quot;origRot&quot;:0}" fill="url(#color-3)" stroke="#0f2c13" stroke-width="0.5" stroke-linecap="butt"/><path d="M236.59668,179.88173c0,0 -2.63452,-7.47561 0.96309,-10.59354c1.43488,0.15828 1.60014,0.89355 3.0642,0.72308c0.81057,-0.09438 -1.46494,-3.29987 -0.66246,-3.44803c1.27805,-0.23595 3.27113,0.61558 4.37005,1.30947c1.95379,1.23368 4.57485,2.6996 4.57485,2.6996c0,0 -1.08007,3.52708 -4.53169,6.51848c-2.04149,1.76929 -7.77805,2.79093 -7.77805,2.79093z" data-paper-data="{&quot;origPos&quot;:null}" fill="url(#color-4)" stroke="#256d2f" stroke-width="0.5" stroke-linecap="butt"/><path d="M249.79674,189.89037c0.12534,1.02387 -0.25887,1.94112 -0.85818,2.04873c-0.5993,0.10761 -1.18675,-0.63518 -1.3121,-1.65905c-0.12534,-1.02387 0.25887,-1.94112 0.85818,-2.04873c0.5993,-0.10761 1.18675,0.63518 1.31209,1.65904z" data-paper-data="{&quot;origPos&quot;:null,&quot;origRot&quot;:0}" fill="#ffffff" stroke="none" stroke-width="0" stroke-linecap="butt"/><path d="M255.83935,187.79158c0.06388,0.58064 -0.16005,1.09738 -0.50016,1.15416c-0.3401,0.05678 -0.6676,-0.3679 -0.73148,-0.94855c-0.06388,-0.58064 0.16005,-1.09738 0.50016,-1.15416c0.3401,-0.05678 0.6676,0.36791 0.73147,0.94855z" data-paper-data="{&quot;origPos&quot;:null,&quot;origRot&quot;:0}" fill="#ffffff" stroke="none" stroke-width="0" stroke-linecap="butt"/><path d="M229.98163,172.89424c0,0 -0.55754,-5.62866 -0.00861,-6.96693c0.18297,-0.44609 0.38725,-1.2679 1.32616,-1.07479c0.01145,-0.01986 1.84223,0.65787 2.09998,1.79953c0.51191,2.26738 -0.09945,0.78465 -0.09945,0.78465z" data-paper-data="{&quot;origPos&quot;:null}" fill="#287732" stroke="none" stroke-width="0" stroke-linecap="butt"/><path d="M241.51442,185.83712c0,0 0.93421,-5.58829 2.6088,-5.43198c3.45629,0.32262 5.34225,4.18081 5.34225,4.18081c0,0 -2.89307,-1.30844 -4.27587,-1.09085c-1.72021,0.27069 -3.67519,2.34203 -3.67519,2.34203z" data-paper-data="{&quot;origPos&quot;:null,&quot;origRot&quot;:0}" fill="#05ac26" stroke="#000000" stroke-width="0.5" stroke-linecap="butt"/><path d="M253.59425,183.59533c0,0 0.41036,-3.54152 2.10412,-4.47537c1.59787,-0.88099 4.53939,3.47214 4.53939,3.47214c0,0 -2.17156,-1.31281 -3.62007,-1.13963z" data-paper-data="{&quot;origPos&quot;:null,&quot;index&quot;:null,&quot;origRot&quot;:0}" fill="#05ac26" stroke="#000000" stroke-width="0.5" stroke-linecap="butt"/><path d="M229.86136,200.27652c-9.31009,-5.53335 -8.11532,-15.00897 -8.11532,-15.00897c0,0 1.81981,2.31614 3.48936,3.52113c2.89898,2.09231 5.27897,2.89868 8.35787,4.71589c1.07262,0.63307 3.30279,0.95609 4.27355,1.73642c1.04675,0.84142 1.19652,2.00265 1.97062,3.10012c0.56076,0.79502 1.20418,0.69842 2.0726,1.13699c2.90936,1.46929 7.84692,1.93282 7.84692,1.93282c0,0 -10.58552,4.39896 -19.89561,-1.1344z" data-paper-data="{&quot;origPos&quot;:null}" fill="url(#color-5)" stroke="#287732" stroke-width="0" stroke-linecap="butt"/><path d="M221.68842,188.50362c0,0 -3.00232,-6.46052 -1.58566,-10.2539c1.41666,-3.79338 4.8755,-1.86825 6.53757,-3.25475c1.74595,-1.45648 2.05743,-1.46541 3.58711,-3.14758c1.16773,-1.28413 0.86266,-4.12853 2.27962,-5.13093c0.98323,-0.69556 1.83235,0.20503 3.01285,0.44367c1.28933,0.26065 1.39079,4.53554 1.39079,4.53554c0,0 2.8819,-0.5568 2.45728,1.61144c-0.36576,1.86766 -1.56142,1.1313 -1.46001,3.03173c0.12208,2.28781 2.62791,-0.32607 2.40496,1.95412c-0.34608,3.53952 -0.64725,5.21747 -2.87368,7.99074c0,0 -5.58084,2.08811 -8.55028,2.43162c-3.58542,0.41476 -7.20057,-0.2117 -7.20057,-0.2117z" data-paper-data="{&quot;origPos&quot;:null}" fill="url(#color-6)" stroke="#256d2f" stroke-width="0.5" stroke-linecap="butt"/><path d="M221.47519,192.53128c-0.85149,-2.00247 0.15365,-2.61351 -0.9124,-4.4285c-0.46515,-0.79192 -0.94529,-0.29208 -1.86052,-0.3686c-1.2454,-0.10412 -2.82906,-0.10366 -3.11169,-1.32102c-0.31664,-1.36387 1.97549,-3.24471 1.97549,-3.24471c0,0 -4.35351,-0.53149 -4.2109,-3.4209c0.14789,-2.99634 4.39419,-2.88916 4.79908,-3.57543c0.68145,-1.15502 -0.11278,-2.3673 1.19734,-2.65371c0.84219,-0.18411 2.56808,2.64809 2.48809,1.78973c-0.10361,-1.11184 3.38005,0.10913 3.38005,0.10913l-2.50833,1.55977c0,0 -2.30009,0.59751 -2.12232,2.5625c0.33825,3.73885 -0.33188,3.52498 2.19577,6.30066c1.24848,1.371 3.60019,4.96991 5.42925,4.50794c0.79843,1.63012 3.231,1.5975 4.82291,2.46963c2.0677,1.13279 5.18473,2.98496 5.18473,2.98496c0,0 -2.76568,-1.01359 -3.7827,-0.94741c-2.87468,0.18705 -2.3929,0.94412 -5.09793,-0.04664c-1.16457,-0.42654 -1.434,-1.5806 -2.62783,-1.91666c-2.72252,-0.76639 -4.3866,1.64173 -5.23809,-0.36074z" data-paper-data="{&quot;origPos&quot;:null}" fill="#98ff7e" stroke="#256d2f" stroke-width="1" stroke-linecap="butt"/><path d="M238.64795,184.16989c0,0 0.69879,-1.22861 0.88574,-2.00513c0.28768,-1.195 0.51884,-2.98108 0.51884,-2.98108c0.58946,-1.17823 1.26245,-1.47244 2.09619,-2.49252c0.76334,-0.93396 1.86932,-2.58927 1.86932,-2.58927c0.92736,-1.09263 5.04951,-4.02007 5.04951,-4.02007l-3.83903,-1.88383c0,0 1.30453,-0.60588 2.0238,-0.85441c4.12021,-1.42364 9.62608,-0.98029 9.90567,1.82523c0.17044,1.71032 -3.70296,0.00959 -5.52737,2.15914c-0.76893,0.90598 0.87117,3.10038 -0.10713,4.27832c-0.79921,0.96232 -3.74494,-1.77032 -4.55655,-0.81844c-0.57155,0.67033 -0.27083,3.03995 -0.93112,3.53602c-1.04513,0.78519 -0.99758,0.09774 -2.27006,-0.20165c-0.54188,-0.12749 -0.90285,0.19885 -1.29341,0.59554c-1.61237,1.63769 -0.14749,2.54106 -1.83057,4.106c-1.17858,1.09586 -1.99382,1.34616 -1.99382,1.34616z" data-paper-data="{&quot;origPos&quot;:null}" fill="url(#color-7)" stroke="#256d2f" stroke-width="1" stroke-linecap="butt"/><path d="M249.19411,168.27169c0,0 3.43929,0.15008 2.57216,0.6756c-2.87737,1.74381 -4.39911,1.73263 -6.84216,4.04599c-1.24998,1.18363 -2.27839,3.1478 -3.44673,4.41208c-3.2021,3.46504 -0.67287,5.91538 -4.41976,8.78257c-2.8054,2.14674 -10.26184,2.90022 -10.26184,2.90022" data-paper-data="{&quot;origPos&quot;:null}" fill="none" stroke="#287732" stroke-width="0.5" stroke-linecap="round"/><path d="M249.85235,201.36847c0,0 -2.5428,-0.35141 -4.26121,-0.82527c-1.84647,-0.50917 -3.08594,-1.02184 -4.81061,-1.85506c-2.99301,-1.44598 -0.75161,-2.17309 -3.65237,-3.79622c-4.11025,-2.2999 -9.16571,-4.12758 -12.74153,-7.19305c-2.63845,-2.26189 -4.88527,-6.40882 -3.2578,-9.43008c0.67873,-1.26003 1.56623,-1.41244 1.56623,-1.41244" data-paper-data="{&quot;origPos&quot;:null}" fill="none" stroke="#287732" stroke-width="0.5" stroke-linecap="round"/><path d="M208.77072,164.71805c0.5525,6.00631 -4.3496,11.36753 -10.94915,11.9746c-6.59955,0.60707 -12.39744,-3.76989 -12.94993,-9.7762c-0.5525,-6.00631 23.3466,-8.20473 23.8991,-2.1984z" data-paper-data="{&quot;origPos&quot;:null,&quot;origRot&quot;:0}" fill="#2e8149" stroke="#0f2c13" stroke-width="0.5" stroke-linecap="butt"/><path d="M186.01129,167.49131c-1.32933,-5.69629 2.15332,-11.63792 7.84962,-12.96725c5.69629,-1.32933 11.44914,2.45701 12.77847,8.15331c1.32933,5.69629 -2.15332,11.63792 -7.84962,12.96725c-5.69629,1.32933 -11.44914,-2.45701 -12.77847,-8.15331z" data-paper-data="{&quot;origPos&quot;:null,&quot;origRot&quot;:0}" fill="url(#color-8)" stroke="#000000" stroke-width="1" stroke-linecap="butt"/><path d="M204.95279,169.94722c-1.37344,2.41798 -2.02267,2.35854 -3.4421,2.66156c-2.71336,0.57929 -7.21805,-0.53545 -7.21805,-0.53545c0,0 4.03386,-1.84032 5.67779,-4.08555c1.46554,-2.00159 1.77864,-4.2044 0.57604,-6.37417c-0.79357,-1.43176 -2.11035,-2.20093 -2.51221,-3.78784c-0.226,-0.89244 0.7015,-2.49935 0.7015,-2.49935c0,0 0.71416,0.58866 2.4955,1.11897c1.19585,0.35599 2.04798,1.74652 2.93933,2.6196c1.2111,1.18623 1.39931,2.46242 1.78457,4.11334c0.86797,3.7193 0.28139,4.5087 -1.00242,6.76887z" data-paper-data="{&quot;origPos&quot;:null,&quot;index&quot;:null,&quot;origRot&quot;:0}" fill="#27b33c" stroke="#1c802b" stroke-width="0.5" stroke-linecap="butt"/><path d="M186.7192,167.43428c-0.46719,-2.00195 -0.44989,-3.60683 0.23032,-5.54678c0.50064,-1.42781 1.29463,-3.01573 2.40389,-4.04473c1.65238,-1.53282 4.51826,-2.5928 4.51826,-2.5928c0,0 -2.02892,5.8569 -2.11095,7.57971c-0.14306,3.00489 1.37976,5.23216 4.04774,6.62202c2.99275,1.55905 8.36691,1.39499 8.36691,1.39499c0,0 -3.29602,4.95557 -7.54381,4.37597c0,0 -3.15416,-0.14484 -5.05975,-1.31107c-2.43996,-1.49324 -3.80009,-1.96711 -4.85262,-6.47731z" data-paper-data="{&quot;origPos&quot;:null,&quot;origRot&quot;:0}" fill="#27b33c" stroke="#1c802b" stroke-width="0.5" stroke-linecap="butt"/><path d="M191.7681,164.22223c0,0 2.12114,-4.068 3.71874,-4.45661c0.84944,-0.20663 1.25805,1.81102 2.04987,2.18156c0.77665,0.36346 0.60427,-0.78717 1.45832,-0.86376c0.32983,-0.02958 1.53591,1.00728 1.53591,1.00728" data-paper-data="{&quot;origPos&quot;:null,&quot;origRot&quot;:0}" fill="none" stroke="#1c802b" stroke-width="0.5" stroke-linecap="round"/><path d="M196.2245,155.13362c0,0 -0.70044,0.85984 -0.75653,1.42945c-0.06485,0.65881 1.37244,0.70909 1.44495,1.36711c0.06804,0.61757 -1.15063,1.89816 -1.15063,1.89816" data-paper-data="{&quot;origPos&quot;:null,&quot;origRot&quot;:0}" fill="none" stroke="#1c802b" stroke-width="0.5" stroke-linecap="round"/><path d="M189.26487,166.10458c-0.17293,-1.33259 0.58622,-0.55499 1.00209,-1.8328c0.15802,-0.48551 -1.39508,-1.84837 -1.24475,-2.33632c0.34616,-1.12359 0.80625,-0.74167 1.47505,-1.70859c0.71882,-1.03924 -2.36361,-3.09115 -1.69692,-4.1646c0.55987,-0.90143 1.50798,0.56426 2.56001,0.42544c0.721,-0.09515 -0.39297,-2.92543 0.1903,-3.35983c0.50656,-0.37726 0.72705,0.75427 1.17866,1.19583c0.18325,0.17919 0.85784,-1.08076 1.07451,-0.94386c0.22272,0.14072 1.22887,0.38785 1.22783,0.65132c-0.00121,0.30246 -0.72264,-0.11272 -0.97336,0.05646c-0.27879,0.18813 -0.28511,0.92568 -0.28511,0.92568c0,0 -1.72328,4.51392 -1.99341,7.14962c-0.23044,2.2486 0.07729,3.26562 1.31011,5.16024c1.90049,2.92068 6.6288,3.52504 6.6288,3.52504c0,0 -10.06844,-1.77399 -10.45381,-4.74362z" data-paper-data="{&quot;origPos&quot;:null,&quot;origRot&quot;:0}" fill="url(#color-9)" stroke="#256d2f" stroke-width="0.5" stroke-linecap="butt"/><path d="M200.73355,167.40919c0,0 1.45988,-3.75877 0.11486,-5.9169c-1.11617,-1.79091 -2.11315,-1.7688 -2.62995,-3.70538c-0.58373,-2.18738 0.65157,-3.18416 0.65157,-3.18416c0,0 -1.69605,-1.40241 -1.32973,-1.0273c0.53819,0.55111 1.18917,-1.10839 1.84541,-0.70501c0.45563,0.28008 0.1236,0.54557 0.70881,1.58003c0.19118,0.33793 1.11127,0.5271 1.18108,0.90905c0.13532,0.7403 -0.84543,1.21764 -0.8713,1.96977c-0.03641,1.05781 2.8414,1.82779 3.096,2.85513c0.49387,1.99282 -0.19743,0.57719 -1.02087,2.2562c-0.73718,1.50317 1.23241,-0.11921 1.47915,1.53673c0.38889,2.60983 -3.22503,3.43184 -3.22503,3.43184z" data-paper-data="{&quot;origPos&quot;:null,&quot;origRot&quot;:0}" fill="url(#color-10)" stroke="#256d2f" stroke-width="0.5" stroke-linecap="butt"/><path d="M184.67807,168.35408c-0.12615,-0.63112 -0.09926,-1.97749 -0.09926,-1.97749c0,0 1.57955,0.82513 1.84352,1.19371c0.79191,1.10575 1.13075,2.68333 1.13075,2.68333c0,0 -0.05675,-1.66267 2.02279,-1.55051c0.66192,0.03571 1.40221,1.88148 1.40221,1.88148c0,0 1.58042,-2.56912 2.91395,-1.76088c1.61748,0.98032 2.27998,2.61067 2.27998,2.61067c0,0 1.17863,-2.85552 2.11915,-2.88231c2.12658,-0.06056 3.62669,0.62109 3.62669,0.62109c0,0 -2.00416,-0.52237 -1.27577,-2.37764c0.53686,-1.36743 3.90324,-1.11962 3.90324,-1.11962c0,0 -0.95975,-1.42111 -0.72013,-2.33278c0.31691,-1.20565 1.72895,-0.39472 1.72895,-0.39472l-0.07692,-2.06496c0,0 2.67777,1.95352 3.05541,3.33468c0.50454,1.84529 0.00571,3.45622 -0.66813,5.24665c-1.48258,3.93921 -5.56457,6.98338 -9.75016,7.42641c-2.22999,0.23602 -3.63919,-0.19166 -5.83488,-0.6472c0,0 -3.31517,-1.17096 -4.96388,-3.07266c-1.22544,-1.41349 -2.25913,-2.92388 -2.63756,-4.81725z" data-paper-data="{&quot;origPos&quot;:null,&quot;origRot&quot;:0}" fill="url(#color-11)" stroke="#0f2c13" stroke-width="0.5" stroke-linecap="butt"/></g></g></svg>