<svg version="1.1" xmlns="http://www.w3.org/2000/svg" xmlns:xlink="http://www.w3.org/1999/xlink" width="83.31156" height="55.72363" viewBox="0,0,83.31156,55.72363"><defs><linearGradient x1="240.19427" y1="191.00523" x2="240.19427" y2="207.4082" gradientUnits="userSpaceOnUse" id="color-1"><stop offset="0" stop-color="#24693c"/><stop offset="1" stop-color="#4ecc71"/></linearGradient><radialGradient cx="237.05409" cy="174.27121" r="21.1235" gradientUnits="userSpaceOnUse" id="color-2"><stop offset="0" stop-color="#b3fa98"/><stop offset="1" stop-color="#05ac26"/></radialGradient><radialGradient cx="223.93206" cy="154.2205" r="14.99911" gradientUnits="userSpaceOnUse" id="color-3"><stop offset="0" stop-color="#036617"/><stop offset="1" stop-color="#037019"/></radialGradient><radialGradient cx="237.90279" cy="172.91842" r="6.67932" gradientUnits="userSpaceOnUse" id="color-4"><stop offset="0" stop-color="#adeba3"/><stop offset="1" stop-color="#32c144"/></radialGradient><linearGradient x1="234.85794" y1="182.2848" x2="238.3398" y2="199.74216" gradientUnits="userSpaceOnUse" id="color-5"><stop offset="0" stop-color="#a8d9ab"/><stop offset="1" stop-color="#50d844"/></linearGradient><radialGradient cx="236.38819" cy="174.71575" r="11.33088" gradientUnits="userSpaceOnUse" id="color-6"><stop offset="0" stop-color="#a5f48f"/><stop offset="1" stop-color="#32c144"/></radialGradient><linearGradient x1="243.14166" y1="161.55147" x2="246.58709" y2="178.82616" gradientUnits="userSpaceOnUse" id="color-7"><stop offset="0" stop-color="#baffa7"/><stop offset="1" stop-color="#82ff63"/></linearGradient><radialGradient cx="193.73097" cy="161.19635" r="10.59119" gradientUnits="userSpaceOnUse" id="color-8"><stop offset="0" stop-color="#c8d6ca"/><stop offset="1" stop-color="#05ad27"/></radialGradient><radialGradient cx="189.04856" cy="166.32107" r="9.57427" gradientUnits="userSpaceOnUse" id="color-9"><stop offset="0" stop-color="#83dd6c"/><stop offset="1" stop-color="#28bd46"/></radialGradient><radialGradient cx="199.99863" cy="163.98464" r="7.29369" gradientUnits="userSpaceOnUse" id="color-10"><stop offset="0" stop-color="#83dd6c"/><stop offset="1" stop-color="#5dc572"/></radialGradient><linearGradient x1="193.37022" y1="164.99009" x2="197.37403" y2="176.93703" gradientUnits="userSpaceOnUse" id="color-11"><stop offset="0" stop-color="#53db7a"/><stop offset="1" stop-color="#24693c"/></linearGradient></defs><g transform="translate(-182.69291,-152.17153)"><g data-paper-data="{&quot;isPaintingLayer&quot;:true}" fill="none" fill-rule="nonzero" stroke="none" stroke-width="none" stroke-linecap="none" stroke-linejoin="miter" stroke-miterlimit="10" stroke-dasharray="" stroke-dashoffset="0" font-family="none" font-weight="none" font-size="none" text-anchor="none" style="mix-blend-mode: normal"><path d="M265.50447,196.78897c0,2.05192 -4.46233,5.3969 -5.99869,5.1516c-2.211,-0.35301 -7.33647,-4.94385 -7.33647,-4.94385c0,0 3.94658,2.47919 5.06352,4.47218c1.09713,1.95763 1.60555,5.11132 -0.57043,5.66005c-0.81875,0.20647 -2.25973,-4.07958 -3.04313,-3.76452c-0.51129,0.20562 -0.20078,0.90011 -0.39866,1.41446c-0.48513,1.26101 -0.65474,2.07082 -2.00368,2.1474c-2.54931,0.14472 -1.21167,-3.82453 -3.65419,-3.08021c-1.3397,0.40825 -1.1077,1.11468 -2.17422,2.02242c-2.09749,1.78521 -2.63345,1.52666 -5.3878,1.52666c-3.37785,0 -7.03408,-6.82012 -7.03408,-6.82012c0,0 -9.27918,5.80446 -14.23348,3.40515c-1.85279,-0.89729 1.05445,-3.69416 2.6697,-4.97045c1.36434,-1.07803 4.18869,-1.43148 4.18869,-1.43148c0,0 -4.97845,1.0473 -7.10801,0.24077c-1.79846,-0.68114 -3.59951,-2.29397 -3.59951,-4.2171c0,-1.27932 7.86551,-0.1749 7.86551,-0.1749c0,0 -3.96234,-1.47362 -2.2704,-1.93843c6.91241,-1.899 31.59011,2.37702 33.85978,2.86475c0.75656,0.16258 7.08018,-1.36996 7.557,-0.76049c0.73094,0.93429 -2.67507,3.70814 -2.67507,3.70814c0,0 6.28359,-4.13562 6.28359,-0.51203z" data-paper-data="{&quot;origPos&quot;:null}" fill="url(#color-1)" stroke="#0f2c13" stroke-width="1" stroke-linecap="butt"/><path d="M218.3288,179.28537l-0.54109,-2.71286l2.44156,-0.48697l0.54109,2.71286z" data-paper-data="{&quot;origPos&quot;:null,&quot;origRot&quot;:0}" fill="#1c5324" stroke="none" stroke-width="0" stroke-linecap="butt"/><path d="M260.35567,176.22207c2.13876,10.72335 -4.94829,21.17567 -17.15882,23.61105c-12.21054,2.43538 -21.14864,-4.82071 -23.28742,-15.54405c-1.49472,-7.49423 -0.01818,-10.36739 3.20985,-12.40228c2.33728,-1.47338 0.37892,-4.46227 0.57006,-7.21858c0.10823,-1.56074 1.09907,-3.48082 2.57119,-2.95118c2.26745,0.81576 5.39605,2.87397 5.39605,2.87397c0,0 -0.31991,-4.5421 2.12757,-3.4476c2.74858,1.22917 4.75701,1.55977 6.91637,2.92953c0,0 17.5164,1.4258 19.65517,12.14913z" data-paper-data="{&quot;origPos&quot;:null,&quot;origRot&quot;:0}" fill="url(#color-2)" stroke="#000000" stroke-width="1.5" stroke-linecap="butt"/><path d="M251.43265,184.24789c0.71245,2.15937 0.27732,4.30798 -0.97187,4.79899c-1.24917,0.49105 -2.83941,-0.86144 -3.55185,-3.02082c-0.71245,-2.15937 -0.27732,-4.30798 0.97187,-4.79899c1.24917,-0.49105 2.8394,0.86144 3.55183,3.02081z" data-paper-data="{&quot;origPos&quot;:null,&quot;origRot&quot;:0}" fill="#000000" stroke="none" stroke-width="0" stroke-linecap="butt"/><path d="M256.75966,181.24055c0.51671,1.63314 0.16915,3.24754 -0.77633,3.60587c-0.9455,0.35834 -2.13082,-0.67507 -2.64755,-2.30822c-0.51671,-1.63314 -0.16916,-3.24754 0.77633,-3.60587c0.9455,-0.35834 2.13085,0.67508 2.64757,2.3082z" data-paper-data="{&quot;origPos&quot;:null,&quot;origRot&quot;:0}" fill="#000000" stroke="none" stroke-width="0" stroke-linecap="butt"/><path d="M232.26221,165.31793c0.02946,-1.17002 1.72372,-2.03533 1.73884,-2.01809c0.883,-0.37304 1.16558,-0.0006 1.43228,0.40109c0.80009,1.20506 5.59009,3.45221 5.59009,3.45221c0,0 -8.81972,0.4885 -8.76119,-1.83522z" data-paper-data="{&quot;origPos&quot;:null,&quot;index&quot;:null,&quot;origRot&quot;:0}" fill="#287732" stroke="none" stroke-width="0" stroke-linecap="butt"/><path d="M231.82253,167.00808l-8.62132,-11.04668c0,0 -2.83971,-0.13536 -4.79112,1.18513c-4.82805,3.267 -11.94263,10.35596 -11.94263,10.35596l0.45065,-3.50144c0,0 5.00739,-5.06687 8.57646,-7.67514c3.43308,-2.5089 8.94282,-3.87636 8.94282,-3.87636l13.44278,14.38062z" data-paper-data="{&quot;origPos&quot;:null,&quot;origRot&quot;:0}" fill="url(#color-3)" stroke="#0f2c13" stroke-width="0.5" stroke-linecap="butt"/><path d="M234.65776,176.83283c0,0 -4.04583,-6.81591 -1.12758,-10.57729c1.43812,-0.12545 1.744,0.56331 3.14644,0.10977c0.77646,-0.2511 -2.08208,-2.94959 -1.32409,-3.25185c1.20722,-0.48138 3.32836,-0.03614 4.54178,0.42941c2.15736,0.8277 5.01452,1.75263 5.01452,1.75263c0,0 -0.36932,3.67021 -3.16915,7.27896c-1.65599,2.13443 -7.08192,4.25838 -7.08192,4.25838z" data-paper-data="{&quot;origPos&quot;:null,&quot;origRot&quot;:0}" fill="url(#color-4)" stroke="#256d2f" stroke-width="0.5" stroke-linecap="butt"/><path d="M249.56052,184.06625c0.32318,0.97958 0.1258,1.95426 -0.44088,2.17702c-0.56667,0.22276 -1.28806,-0.39079 -1.61125,-1.37037c-0.32318,-0.97958 -0.1258,-1.95426 0.44088,-2.17702c0.56667,-0.22276 1.28806,0.39079 1.61124,1.37036z" data-paper-data="{&quot;origPos&quot;:null,&quot;origRot&quot;:0}" fill="#ffffff" stroke="none" stroke-width="0" stroke-linecap="butt"/><path d="M255.07589,180.82609c0.17622,0.55694 0.0577,1.10749 -0.26475,1.22969c-0.32242,0.1222 -0.72666,-0.23021 -0.90288,-0.78715c-0.17622,-0.55694 -0.0577,-1.10749 0.26475,-1.22969c0.32242,-0.1222 0.72666,0.23022 0.90287,0.78715z" data-paper-data="{&quot;origPos&quot;:null,&quot;origRot&quot;:0}" fill="#ffffff" stroke="none" stroke-width="0" stroke-linecap="butt"/><path d="M226.80376,171.2742c0,0 -1.64773,-5.41089 -1.37115,-6.83068c0.09219,-0.47326 0.13177,-1.31915 1.09032,-1.31343c0.00734,-0.02171 1.93533,0.28482 2.41141,1.35402c0.94553,2.12346 0.05595,0.78895 0.05595,0.78895z" data-paper-data="{&quot;origPos&quot;:null,&quot;origRot&quot;:0}" fill="#287732" stroke="none" stroke-width="0" stroke-linecap="butt"/><path d="M240.64538,181.71129c0,0 -0.17689,-5.66307 1.49593,-5.83734c3.45263,-0.35965 6.05682,3.05512 6.05682,3.05512c0,0 -3.09312,-0.71728 -4.40664,-0.23344c-1.63404,0.60193 -3.14611,3.01565 -3.14611,3.01565z" data-paper-data="{&quot;origPos&quot;:null,&quot;origRot&quot;:0}" fill="#05ac26" stroke="#000000" stroke-width="0.5" stroke-linecap="butt"/><path d="M252.05338,177.15003c0,0 -0.29027,-3.55338 1.18811,-4.8005c1.39469,-1.17651 5.13086,2.51718 5.13086,2.51718c0,0 -2.3864,-0.8627 -3.77304,-0.40954z" data-paper-data="{&quot;origPos&quot;:null,&quot;index&quot;:null,&quot;origRot&quot;:0}" fill="#05ac26" stroke="#000000" stroke-width="0.5" stroke-linecap="butt"/><path d="M232.04171,198.1511c-10.21257,-3.60544 -10.89428,-13.13173 -10.89428,-13.13173c0,0 2.23769,1.91546 4.11068,2.77061c3.25223,1.48487 5.74398,1.81013 9.11885,2.99003c1.17574,0.41103 3.426,0.2916 4.53065,0.86698c1.19112,0.62043 1.56511,1.72994 2.53893,2.65479c0.70543,0.66998 1.31753,0.4494 2.25497,0.70963c3.14055,0.87184 8.07341,0.36065 8.07341,0.36065c0,0 -9.52062,6.38449 -19.7332,2.77904z" data-paper-data="{&quot;origPos&quot;:null,&quot;origRot&quot;:0}" fill="url(#color-5)" stroke="#287732" stroke-width="0" stroke-linecap="butt"/><path d="M221.72389,188.2042c0,0 -4.20799,-5.74848 -3.56067,-9.74568c0.64732,-3.99721 4.4159,-2.7858 5.77468,-4.47062c1.42735,-1.76984 1.73106,-1.83953 2.90216,-3.78841c0.894,-1.48773 0.03847,-4.21751 1.23199,-5.47771c0.82818,-0.87444 1.83705,-0.15732 3.04143,-0.1542c1.31541,0.00343 2.25106,4.17589 2.25106,4.17589c0,0 2.71732,-1.10974 2.72501,1.09967c0.00661,1.90313 -1.30998,1.41485 -0.83881,3.25874c0.56721,2.21974 2.51336,-0.83379 2.74073,1.44598c0.35293,3.53884 0.38577,5.24329 -1.25521,8.39849c0,0 -5.06461,3.13938 -7.9095,4.05706c-3.43504,1.10805 -7.10289,1.20081 -7.10289,1.20081z" data-paper-data="{&quot;origPos&quot;:null,&quot;origRot&quot;:0}" fill="url(#color-6)" stroke="#256d2f" stroke-width="0.5" stroke-linecap="butt"/><path d="M222.30258,192.19577c-1.22671,-1.79724 -0.36052,-2.59309 -1.76097,-4.1645c-0.61106,-0.68564 -0.98417,-0.10154 -1.89668,0.00243c-1.24172,0.14148 -2.79468,0.45169 -3.30998,-0.68686c-0.57729,-1.27558 1.30267,-3.56844 1.30267,-3.56844c0,0 -4.37338,0.33031 -4.79867,-2.53118c-0.44103,-2.9674 3.74419,-3.69285 4.00704,-4.44505c0.44237,-1.26601 -0.57363,-2.29952 0.65515,-2.83665c0.78991,-0.34528 3.03644,2.09464 2.79009,1.26849c-0.31909,-1.0701 3.33611,-0.5541 3.33611,-0.5541l-2.1548,2.02026c0,0 -2.13879,1.03586 -1.58011,2.92812c1.06303,3.60048 0.364,3.52181 3.38575,5.74947c1.49253,1.10032 4.50275,4.16972 6.20612,3.35892c1.10186,1.44246 3.48106,0.93467 5.21281,1.47858c2.24933,0.70647 5.66843,1.91318 5.66843,1.91318c0,0 -2.91051,-0.45305 -3.89494,-0.18923c-2.78257,0.74571 -2.16201,1.39393 -5.00857,0.9514c-1.22551,-0.19052 -1.71546,-1.26958 -2.95196,-1.36563c-2.81984,-0.21906 -3.98075,2.46803 -5.20748,0.67078z" data-paper-data="{&quot;origPos&quot;:null,&quot;origRot&quot;:0}" fill="#98ff7e" stroke="#256d2f" stroke-width="1" stroke-linecap="butt"/><path d="M237.50816,180.63694c0,0 0.44497,-1.34156 0.47644,-2.13964c0.04839,-1.22819 -0.07427,-3.02498 -0.07427,-3.02498c0.34762,-1.27077 0.95007,-1.69093 1.56816,-2.85439c0.56592,-1.06523 1.32677,-2.90489 1.32677,-2.90489c0.69573,-1.25291 4.16567,-4.93009 4.16567,-4.93009l-4.13335,-1.09654c0,0 1.16083,-0.84934 1.81758,-1.23376c3.76217,-2.20206 9.2484,-2.84419 10.07135,-0.14754c0.50168,1.64394 -3.62957,0.73369 -4.99828,3.19857c-0.57687,1.03887 1.46077,2.87009 0.73176,4.21663c-0.59554,1.10006 -4.01887,-1.00363 -4.62862,0.08862c-0.4294,0.76919 0.32902,3.03421 -0.2215,3.64985c-0.87136,0.97444 -0.9592,0.29098 -2.26566,0.24626c-0.55634,-0.01905 -0.84651,0.3716 -1.15194,0.83702c-1.2609,1.92143 0.35238,2.52082 -0.99209,4.38474c-0.94147,1.30522 -1.69199,1.71014 -1.69199,1.71014z" data-paper-data="{&quot;origPos&quot;:null,&quot;origRot&quot;:0}" fill="url(#color-7)" stroke="#256d2f" stroke-width="1" stroke-linecap="butt"/><path d="M244.74097,162.98302c0,0 3.40222,-0.52553 2.65463,0.15944c-2.4807,2.27294 -3.97524,2.55961 -5.91862,5.30615c-0.99432,1.40526 -1.61867,3.53264 -2.51716,5.00103c-2.46249,4.02443 0.49716,5.93273 -2.61655,9.47742c-2.33132,2.654 -9.49635,4.85139 -9.49635,4.85139" data-paper-data="{&quot;origPos&quot;:null,&quot;origRot&quot;:0}" fill="none" stroke="#287732" stroke-width="0.5" stroke-linecap="round"/><path d="M251.86014,195.31177c0,0 -2.56242,0.15275 -4.34033,0.02415c-1.91039,-0.13817 -3.2262,-0.39851 -5.08053,-0.87829c-3.21804,-0.83262 -1.16215,-1.9841 -4.32436,-3.0085c-4.48071,-1.45152 -9.79601,-2.25507 -13.90236,-4.56191c-3.02991,-1.70213 -6.04446,-5.32948 -5.03938,-8.61071c0.41916,-1.36845 1.25971,-1.69151 1.25971,-1.69151" data-paper-data="{&quot;origPos&quot;:null,&quot;origRot&quot;:0}" fill="none" stroke="#287732" stroke-width="0.5" stroke-linecap="round"/><path d="M206.90113,164.65592c1.11444,5.92783 -3.26221,11.72596 -9.77551,12.95047c-6.51331,1.22451 -12.69683,-2.58827 -13.81128,-8.51609c-1.11444,-5.92783 22.47233,-10.36221 23.58677,-4.43438z" data-paper-data="{&quot;origPos&quot;:null,&quot;origRot&quot;:0}" fill="#2e8149" stroke="#0f2c13" stroke-width="0.5" stroke-linecap="butt"/><path d="M184.503,169.55549c-1.85871,-5.54617 1.05023,-11.78875 6.59643,-13.64746c5.54617,-1.85871 11.62937,1.37029 13.48809,6.91649c1.85871,5.54617 -1.05023,11.78876 -6.59643,13.64747c-5.54617,1.85871 -11.62936,-1.3703 -13.48809,-6.9165z" data-paper-data="{&quot;origPos&quot;:null,&quot;origRot&quot;:0}" fill="url(#color-8)" stroke="#000000" stroke-width="1" stroke-linecap="butt"/><path d="M203.59146,170.22069c-1.14016,2.53634 -1.79211,2.53816 -3.17678,2.97324c-2.64692,0.83168 -7.23642,0.14517 -7.23642,0.14517c0,0 3.84309,-2.21121 5.26878,-4.60098c1.27097,-2.13045 1.37571,-4.35295 -0.02545,-6.4001c-0.9246,-1.35086 -2.30782,-1.99287 -2.85702,-3.535c-0.30884,-0.86724 0.46355,-2.5542 0.46355,-2.5542c0,0 0.76631,0.51896 2.58961,0.87953c1.224,0.24206 2.20303,1.54636 3.17248,2.33181c1.31721,1.06716 1.6245,2.32004 2.16321,3.92743c1.21362,3.62127 0.70382,4.46231 -0.36194,6.83312z" data-paper-data="{&quot;origPos&quot;:null,&quot;index&quot;:null,&quot;origRot&quot;:0}" fill="#27b33c" stroke="#1c802b" stroke-width="0.5" stroke-linecap="butt"/><path d="M185.20242,169.4322c-0.65323,-1.94921 -0.78682,-3.54861 -0.29191,-5.54389c0.36427,-1.46854 1.00553,-3.12401 2.01319,-4.2527c1.50103,-1.68129 4.25462,-3.0059 4.25462,-3.0059c0,0 -1.4696,6.02163 -1.38939,7.74452c0.1399,3.00503 1.8653,5.07937 4.65208,6.21236c3.126,1.27094 8.46098,0.60261 8.46098,0.60261c0,0 -2.8158,5.24337 -7.09924,5.06546c0,0 -3.15381,0.15218 -5.16055,-0.82981c-2.56947,-1.25736 -3.96811,-1.60134 -5.4398,-5.99267z" data-paper-data="{&quot;origPos&quot;:null,&quot;origRot&quot;:0}" fill="#27b33c" stroke="#1c802b" stroke-width="0.5" stroke-linecap="butt"/><path d="M189.92715,165.75994c0,0 1.72951,-4.24929 3.28354,-4.78631c0.82626,-0.28553 1.42266,1.68476 2.24578,1.97928c0.80739,0.28887 0.52763,-0.84046 1.37071,-0.99696c0.3256,-0.06043 1.62375,0.85851 1.62375,0.85851" data-paper-data="{&quot;origPos&quot;:null,&quot;origRot&quot;:0}" fill="none" stroke="#1c802b" stroke-width="0.5" stroke-linecap="round"/><path d="M193.50983,156.29279c0,0 -0.61655,0.92185 -0.61886,1.49419c-0.00266,0.66198 1.43301,0.577 1.567,1.2253c0.12577,0.60843 -0.96718,1.99789 -0.96718,1.99789" data-paper-data="{&quot;origPos&quot;:null,&quot;origRot&quot;:0}" fill="none" stroke="#1c802b" stroke-width="0.5" stroke-linecap="round"/><path d="M187.61188,167.86918c-0.29738,-1.31044 0.53147,-0.60763 0.82543,-1.91886c0.11169,-0.49821 -1.56259,-1.70911 -1.45877,-2.20901c0.23905,-1.15113 0.733,-0.81415 1.30797,-1.83963c0.618,-1.10219 -2.64363,-2.85539 -2.08074,-3.98672c0.47267,-0.95004 1.55434,0.42006 2.58865,0.183c0.70888,-0.16247 -0.66613,-2.87557 -0.12626,-3.36285c0.46886,-0.42318 0.7947,0.68261 1.28581,1.0798c0.19928,0.16117 0.75251,-1.15659 0.98108,-1.04064c0.23496,0.11917 1.25989,0.27067 1.28361,0.53305c0.02722,0.30123 -0.73005,-0.04433 -0.96375,0.14766c-0.25988,0.21349 -0.19687,0.94838 -0.19687,0.94838c0,0 -1.29149,4.65586 -1.31277,7.30528c-0.01815,2.26031 0.38381,3.24393 1.7892,5.01431c2.16654,2.72917 6.93071,2.88655 6.93071,2.88655c0,0 -10.1906,-0.82006 -10.8533,-3.74033z" data-paper-data="{&quot;origPos&quot;:null,&quot;origRot&quot;:0}" fill="url(#color-9)" stroke="#256d2f" stroke-width="0.5" stroke-linecap="butt"/><path d="M199.15243,168.09036c0,0 1.10021,-3.8793 -0.44165,-5.90151c-1.27951,-1.6781 -2.26999,-1.56241 -2.96649,-3.44185c-0.78669,-2.12285 0.34948,-3.23129 0.34948,-3.23129c0,0 -1.82032,-1.23684 -1.42037,-0.89782c0.58759,0.4981 1.07975,-1.21525 1.77098,-0.8753c0.47995,0.23604 0.17432,0.53155 0.85415,1.50643c0.2221,0.31849 1.15588,0.42035 1.26127,0.79403c0.20428,0.7243 -0.72726,1.2917 -0.68237,2.04295c0.06315,1.05656 3.00057,1.5527 3.35058,2.55157c0.67894,1.93759 -0.14233,0.59318 -0.80435,2.34215c-0.59268,1.56581 1.21574,-0.23448 1.61703,1.39094c0.6324,2.56174 -2.88828,3.7197 -2.88828,3.7197z" data-paper-data="{&quot;origPos&quot;:null,&quot;origRot&quot;:0}" fill="url(#color-10)" stroke="#256d2f" stroke-width="0.5" stroke-linecap="butt"/><path d="M183.25676,170.53973c-0.18489,-0.61648 -0.28465,-1.95943 -0.28465,-1.95943c0,0 1.6501,0.67304 1.94754,1.0152c0.8923,1.02643 1.37787,2.5652 1.37787,2.5652c0,0 -0.21273,-1.64998 1.86814,-1.7337c0.66235,-0.02665 1.5728,1.74139 1.5728,1.74139c0,0 1.33202,-2.70625 2.73561,-2.0269c1.70245,0.82399 2.5152,2.38488 2.5152,2.38488c0,0 0.90509,-2.95363 1.83893,-3.06868c2.11148,-0.26013 3.669,0.27754 3.669,0.27754c0,0 -2.04439,-0.33173 -1.49355,-2.24723c0.40599,-1.41183 3.78078,-1.48143 3.78078,-1.48143c0,0 -1.08903,-1.32462 -0.93614,-2.2548c0.20222,-1.23011 1.68421,-0.55545 1.68421,-0.55545l-0.2706,-2.04861c0,0 2.84949,1.69326 3.35524,3.03283c0.67571,1.78971 0.33047,3.44039 -0.17218,5.28622c-1.10586,4.06108 -4.88375,7.47537 -9.00918,8.30972c-2.19795,0.44453 -3.64111,0.15115 -5.86989,-0.09606c0,0 -3.41053,-0.85428 -5.23064,-2.59264c-1.35282,-1.29208 -2.52388,-2.69866 -3.07856,-4.54808z" data-paper-data="{&quot;origPos&quot;:null,&quot;origRot&quot;:0}" fill="url(#color-11)" stroke="#0f2c13" stroke-width="0.5" stroke-linecap="butt"/></g></g></svg>