<svg version="1.1" xmlns="http://www.w3.org/2000/svg" xmlns:xlink="http://www.w3.org/1999/xlink" width="56.95416" height="57.2234" viewBox="0,0,56.95416,57.2234"><g transform="translate(-220.45018,-149.57836)"><g data-paper-data="{&quot;isPaintingLayer&quot;:true}" fill="none" fill-rule="nonzero" stroke="none" stroke-width="none" stroke-linecap="butt" stroke-linejoin="miter" stroke-miterlimit="10" stroke-dasharray="" stroke-dashoffset="0" font-family="none" font-weight="none" font-size="none" text-anchor="none" style="mix-blend-mode: normal"><path d="M230.61393,191.3634c4.70628,0.72373 8.2405,3.1374 7.89393,5.39112c-0.34658,2.25371 -4.44273,3.49399 -9.14898,2.77027c-4.70628,-0.72373 -7.8939,-5.39113 -7.8939,-5.39113c0,0 4.44271,-3.49401 9.14896,-2.77028z" data-paper-data="{&quot;origRot&quot;:0,&quot;origPos&quot;:null,&quot;index&quot;:null}" fill="#2bd900" stroke="#000000" stroke-width="1.5"/><path d="M255.90996,195.1778c0,0 -3.48248,4.45173 -8.22567,4.86994c-4.7432,0.41821 -8.75067,-1.08407 -8.95094,-3.35547c-0.20028,-2.2714 3.48251,-4.45175 8.22568,-4.86996c4.7432,-0.41821 8.95093,3.35548 8.95093,3.35548z" data-paper-data="{&quot;origRot&quot;:0,&quot;origPos&quot;:null,&quot;index&quot;:null}" fill="#2bd900" stroke="#000000" stroke-width="1.5"/><path d="M235.38439,195.27541c0,0 4.03397,-5.86514 7.03529,-9.12958c2.36948,-2.57719 6.72663,-5.83888 6.72663,-5.83888l3.31269,3.04567c0,0 -4.14307,2.04381 -6.16502,4.243c-3.34882,3.64241 -7.5969,10.72544 -7.5969,10.72544z" data-paper-data="{&quot;origPos&quot;:null,&quot;origRot&quot;:0}" fill="#a9ff59" stroke="#000000" stroke-width="2"/><path d="M237.12454,151.55946c3.39999,2.30732 5.26051,5.49769 4.15559,7.12583c-1.1049,1.62816 -4.75685,1.07759 -8.15684,-1.22976c-3.39999,-2.30732 -4.15559,-7.12583 -4.15559,-7.12583c0,0 4.75685,-1.07759 8.15684,1.22976z" data-paper-data="{&quot;origRot&quot;:0,&quot;origPos&quot;:null}" fill="#2fe500" stroke="#000000" stroke-width="1"/><path d="M270.32503,176.45336c-2.32071,8.46968 -12.12863,13.16382 -21.9066,10.48461c-9.77796,-2.67918 -15.82326,-11.71714 -13.50255,-20.18682c2.32071,-8.46968 12.12862,-13.16381 21.9066,-10.4846c9.77796,2.67918 15.82326,11.71714 13.50255,20.18681z" data-paper-data="{&quot;origPos&quot;:null,&quot;origRot&quot;:0}" fill="#a9ff59" stroke="#000000" stroke-width="3"/><path d="M276.40434,183.45078c-1.81414,4.7311 -5.89938,7.57605 -9.12462,6.35436c-3.22524,-1.22173 -4.36914,-6.04741 -2.555,-10.77853c1.81414,-4.7311 5.8994,-7.57605 9.12462,-6.35436c3.22523,1.22172 4.36912,6.04741 2.555,10.77853z" data-paper-data="{&quot;origPos&quot;:null,&quot;origRot&quot;:0}" fill="#a9ff59" stroke="#000000" stroke-width="2"/><path d="M269.75101,180.80881c-0.85507,2.34563 -2.4889,3.90786 -3.64928,3.4893c-1.16036,-0.41854 -1.40785,-2.65936 -0.55277,-5.005c0.85507,-2.34563 2.4889,-3.90786 3.64927,-3.48929c1.16036,0.41854 1.40786,2.65937 0.55278,5.005z" data-paper-data="{&quot;origRot&quot;:0,&quot;origPos&quot;:null}" fill="#84c746" stroke="none" stroke-width="0"/><path d="M230.37732,195.47394c5.11563,-1.00495 9.65279,0.16627 10.13405,2.61602c0.48124,2.44973 -3.27567,5.25031 -8.3913,6.25527c-5.11563,1.00495 -10.13404,-2.61602 -10.13404,-2.61602c0,0 3.27566,-5.25032 8.39129,-6.25527z" data-paper-data="{&quot;origRot&quot;:0,&quot;origPos&quot;:null}" fill="#2fe500" stroke="#000000" stroke-width="2"/><path d="M256.09603,204.67454c0,0 -5.71375,2.37668 -10.46376,0.22793c-4.74999,-2.14876 -7.76648,-5.73462 -6.73749,-8.00927c1.02898,-2.27464 5.71377,-2.3767 10.46377,-0.22794c4.74999,2.14876 6.73748,8.00928 6.73748,8.00928z" data-paper-data="{&quot;origRot&quot;:0,&quot;origPos&quot;:null,&quot;index&quot;:null}" fill="#2fe500" stroke="#000000" stroke-width="2"/><path d="M260.31136,167.64266c-0.3511,2.24659 -1.71847,3.96009 -3.0541,3.82719c-1.33563,-0.13291 -2.13376,-2.06188 -1.78266,-4.30848c0.3511,-2.24659 1.71847,-3.96009 3.0541,-3.82719c1.33563,0.13291 2.13375,2.06188 1.78265,4.30848z" data-paper-data="{&quot;origPos&quot;:null,&quot;origRot&quot;:0}" fill="#000000" stroke="none" stroke-width="0"/><path d="M266.11487,169.48377c-0.26449,1.69238 -1.29452,2.98317 -2.30067,2.88305c-1.00614,-0.10013 -1.60737,-1.55323 -1.34288,-3.24561c0.26449,-1.69238 1.29451,-2.98317 2.30067,-2.88305c1.00614,0.10013 1.60738,1.55324 1.34288,3.24562z" data-paper-data="{&quot;origPos&quot;:null,&quot;origRot&quot;:0}" fill="#000000" stroke="none" stroke-width="0"/></g></g></svg>