<svg version="1.1" xmlns="http://www.w3.org/2000/svg" xmlns:xlink="http://www.w3.org/1999/xlink" width="50.72131" height="54.98536" viewBox="0,0,50.72131,54.98536"><g transform="translate(-213.15182,-163.6675)"><g data-paper-data="{&quot;isPaintingLayer&quot;:true}" fill="none" fill-rule="nonzero" stroke="none" stroke-width="none" stroke-linecap="butt" stroke-linejoin="miter" stroke-miterlimit="10" stroke-dasharray="" stroke-dashoffset="0" font-family="none" font-weight="none" font-size="none" text-anchor="none" style="mix-blend-mode: normal"><path d="M226.38263,193.71602l-2.53502,-8.00835l18.49546,-5.85471l2.53502,8.00835z" data-paper-data="{&quot;origPos&quot;:null,&quot;origRot&quot;:0}" fill="#c07a00" stroke="#000000" stroke-width="2"/><path d="M226.71131,194.78584l11.11282,-16.62844l16.12959,10.77944l-11.11282,16.62844z" data-paper-data="{&quot;origPos&quot;:null,&quot;origRot&quot;:0}" fill="#c07a00" stroke="#000000" stroke-width="2"/><path d="M261.04662,184.12764c-3.61997,5.41667 -11.41693,6.5582 -17.41499,2.54968c-5.99806,-4.00852 -7.92588,-11.64914 -4.30592,-17.06582c3.61997,-5.41667 11.41693,-6.5582 17.41499,-2.54968c5.99806,4.00852 7.92588,11.64914 4.30592,17.06582z" data-paper-data="{&quot;origPos&quot;:null,&quot;origRot&quot;:0}" fill="#b2b2b2" stroke="#000000" stroke-width="2"/><path d="M251.77234,173.4838c-0.92061,1.37753 -2.57425,1.88789 -3.69351,1.13989c-1.11926,-0.74799 -1.28028,-2.47111 -0.35967,-3.84864c0.92061,-1.37753 2.57425,-1.88789 3.69351,-1.13989c1.11926,0.74799 1.28028,2.47111 0.35967,3.84864z" data-paper-data="{&quot;origPos&quot;:null,&quot;origRot&quot;:0}" fill="#ff0000" stroke="none" stroke-width="0"/><path d="M246.62427,170.2087c-0.82473,1.23406 -2.28429,1.70582 -3.26006,1.0537c-0.97577,-0.65211 -1.09821,-2.18112 -0.2735,-3.41519c0.82473,-1.23406 2.28429,-1.70582 3.26006,-1.0537c0.97577,0.65211 1.09821,2.18112 0.2735,3.41519z" data-paper-data="{&quot;origPos&quot;:null,&quot;origRot&quot;:0}" fill="#ff0000" stroke="none" stroke-width="0"/><path d="M214.45276,199.02164l16.14297,-6.49344l2.98549,7.42206l-16.14297,6.49344z" data-paper-data="{&quot;origPos&quot;:null,&quot;origRot&quot;:0}" fill="#4c517f" stroke="#000000" stroke-width="2"/><path d="M222.72725,211.12137l13.46954,-11.32835l5.14925,6.12252l-13.46954,11.32835z" data-paper-data="{&quot;origPos&quot;:null,&quot;origRot&quot;:0}" fill="#4c517f" stroke="#000000" stroke-width="2"/><path d="M231.93321,172.02157l7.98507,-2.6074l6.02184,18.44173l-7.98507,2.6074z" data-paper-data="{&quot;origPos&quot;:null,&quot;origRot&quot;:0}" fill="#c07a00" stroke="#000000" stroke-width="2"/></g></g></svg>