<svg version="1.1" xmlns="http://www.w3.org/2000/svg" xmlns:xlink="http://www.w3.org/1999/xlink" width="676.99996" height="552.00005"><defs><linearGradient x1="233.00007" y1="-8.18746" x2="233.00007" y2="361.00007" gradientUnits="userSpaceOnUse" id="color-1"><stop offset="0" stop-color="#5927ff"/><stop offset="1" stop-color="#e0d128"/></linearGradient><radialGradient cx="19.00001" cy="20.00002" r="211" gradientUnits="userSpaceOnUse" id="color-2"><stop offset="0" stop-color="#ffffff"/><stop offset="1" stop-color="#ffffff" stop-opacity="0"/></radialGradient><linearGradient x1="105.75574" y1="111.26352" x2="159.03177" y2="117.63168" gradientUnits="userSpaceOnUse" id="color-3"><stop offset="0" stop-color="#7dff00" stop-opacity="0"/><stop offset="1" stop-color="#7dff00"/></linearGradient><linearGradient x1="144.6884" y1="118.13786" x2="167.89606" y2="118.13786" gradientUnits="userSpaceOnUse" id="color-4"><stop offset="0" stop-color="#caff88"/><stop offset="1" stop-color="#7cff00"/></linearGradient><linearGradient x1="61.75572" y1="104.26352" x2="115.03178" y2="110.63168" gradientUnits="userSpaceOnUse" id="color-5"><stop offset="0" stop-color="#7dff00" stop-opacity="0"/><stop offset="1" stop-color="#7dff00"/></linearGradient><linearGradient x1="100.68842" y1="111.13786" x2="123.89608" y2="111.13786" gradientUnits="userSpaceOnUse" id="color-6"><stop offset="0" stop-color="#caff88"/><stop offset="1" stop-color="#7cff00"/></linearGradient><radialGradient cx="315.50003" cy="140.5" r="136.5" gradientUnits="userSpaceOnUse" id="color-7"><stop offset="0" stop-color="#ffffff"/><stop offset="1" stop-color="#ffffff" stop-opacity="0"/></radialGradient><radialGradient cx="18.46497" cy="141.7962" r="6.71781" gradientUnits="userSpaceOnUse" id="color-8"><stop offset="0" stop-color="#ffffff"/><stop offset="1" stop-color="#ff0000"/></radialGradient><linearGradient x1="471.07375" y1="226.10545" x2="392.17394" y2="207.34111" gradientUnits="userSpaceOnUse" id="color-9"><stop offset="0" stop-color="#b2b2b2" stop-opacity="0"/><stop offset="1" stop-color="#b2b2b2"/></linearGradient><linearGradient x1="141.17397" y1="221.12385" x2="220.07374" y2="236.32269" gradientUnits="userSpaceOnUse" id="color-10"><stop offset="0" stop-color="#d89940" stop-opacity="0"/><stop offset="1" stop-color="#d89940"/></linearGradient><linearGradient x1="83.55183" y1="316.02702" x2="82.69585" y2="212.41951" gradientUnits="userSpaceOnUse" id="color-11"><stop offset="0" stop-color="#fff64c" stop-opacity="0"/><stop offset="1" stop-color="#fff64c"/></linearGradient><linearGradient x1="15.31125" y1="168.31373" x2="113.93644" y2="143.13279" gradientUnits="userSpaceOnUse" id="color-12"><stop offset="0" stop-color="#7dff00" stop-opacity="0"/><stop offset="1" stop-color="#7dff00"/></linearGradient><linearGradient x1="166.40303" y1="153.53518" x2="244.84463" y2="162.91135" gradientUnits="userSpaceOnUse" id="color-13"><stop offset="0" stop-color="#7dff00" stop-opacity="0"/><stop offset="1" stop-color="#7dff00"/></linearGradient><linearGradient x1="223.72603" y1="163.65667" x2="257.89608" y2="163.65667" gradientUnits="userSpaceOnUse" id="color-14"><stop offset="0" stop-color="#caff88"/><stop offset="1" stop-color="#7cff00"/></linearGradient><linearGradient x1="133.49818" y1="247.45985" x2="113.36046" y2="231.89244" gradientUnits="userSpaceOnUse" id="color-15"><stop offset="0" stop-color="#fff987"/><stop offset="1" stop-color="#fff300"/></linearGradient><linearGradient x1="138.09031" y1="203.78095" x2="114.08469" y2="218.9141" gradientUnits="userSpaceOnUse" id="color-16"><stop offset="0" stop-color="#fff987"/><stop offset="1" stop-color="#fff300"/></linearGradient><linearGradient x1="105.83396" y1="267.47105" x2="91.71949" y2="245.21399" gradientUnits="userSpaceOnUse" id="color-17"><stop offset="0" stop-color="#fff987"/><stop offset="1" stop-color="#fff300"/></linearGradient><linearGradient x1="80.30308" y1="271.72713" x2="80.30308" y2="238.57616" gradientUnits="userSpaceOnUse" id="color-18"><stop offset="0" stop-color="#fff987"/><stop offset="1" stop-color="#fff300"/></linearGradient><linearGradient x1="129.55399" y1="190.18577" x2="111.84365" y2="209.81981" gradientUnits="userSpaceOnUse" id="color-19"><stop offset="0" stop-color="#fff987"/><stop offset="1" stop-color="#fff300"/></linearGradient><linearGradient x1="43.3764" y1="262.21224" x2="60.37907" y2="243.254" gradientUnits="userSpaceOnUse" id="color-20"><stop offset="0" stop-color="#fff987"/><stop offset="1" stop-color="#fff300"/></linearGradient><linearGradient x1="122.01323" y1="258.70187" x2="105.1237" y2="238.38411" gradientUnits="userSpaceOnUse" id="color-21"><stop offset="0" stop-color="#fff987"/><stop offset="1" stop-color="#fff300"/></linearGradient><linearGradient x1="35.58391" y1="188.81103" x2="52.50825" y2="209.30855" gradientUnits="userSpaceOnUse" id="color-22"><stop offset="0" stop-color="#fff987"/><stop offset="1" stop-color="#fff300"/></linearGradient><linearGradient x1="26.94081" y1="198.22078" x2="45.07234" y2="220.18031" gradientUnits="userSpaceOnUse" id="color-23"><stop offset="0" stop-color="#fff987"/><stop offset="1" stop-color="#fff300"/></linearGradient><linearGradient x1="28.9812" y1="249.21765" x2="54.84949" y2="237.80666" gradientUnits="userSpaceOnUse" id="color-24"><stop offset="0" stop-color="#fff987"/><stop offset="1" stop-color="#fff300"/></linearGradient><linearGradient x1="60.42555" y1="266.92359" x2="72.77452" y2="244.66653" gradientUnits="userSpaceOnUse" id="color-25"><stop offset="0" stop-color="#fff987"/><stop offset="1" stop-color="#fff300"/></linearGradient><linearGradient x1="117.51119" y1="180.68085" x2="103.04433" y2="202.25982" gradientUnits="userSpaceOnUse" id="color-26"><stop offset="0" stop-color="#fff987"/><stop offset="1" stop-color="#fff300"/></linearGradient><linearGradient x1="48.52919" y1="180.12846" x2="61.47982" y2="206.51546" gradientUnits="userSpaceOnUse" id="color-27"><stop offset="0" stop-color="#fff987"/><stop offset="1" stop-color="#fff300"/></linearGradient><linearGradient x1="104.04649" y1="172.33834" x2="89.52828" y2="198.54207" gradientUnits="userSpaceOnUse" id="color-28"><stop offset="0" stop-color="#fff987"/><stop offset="1" stop-color="#fff300"/></linearGradient><linearGradient x1="61.61953" y1="170.50624" x2="71.77675" y2="196.86232" gradientUnits="userSpaceOnUse" id="color-29"><stop offset="0" stop-color="#fff987"/><stop offset="1" stop-color="#fff300"/></linearGradient><linearGradient x1="19.20637" y1="226.01686" x2="52.3574" y2="226.01686" gradientUnits="userSpaceOnUse" id="color-30"><stop offset="0" stop-color="#fff987"/><stop offset="1" stop-color="#fff300"/></linearGradient><linearGradient x1="143.27821" y1="224.65253" x2="110.12723" y2="224.65253" gradientUnits="userSpaceOnUse" id="color-31"><stop offset="0" stop-color="#fff987"/><stop offset="1" stop-color="#fff300"/></linearGradient><linearGradient x1="81.35404" y1="167.56639" x2="81.35404" y2="200.71737" gradientUnits="userSpaceOnUse" id="color-32"><stop offset="0" stop-color="#fff987"/><stop offset="1" stop-color="#fff300"/></linearGradient><linearGradient x1="81.38268" y1="187.9993" x2="81.38268" y2="258.27519" gradientUnits="userSpaceOnUse" id="color-33"><stop offset="0" stop-color="#eeb054"/><stop offset="1" stop-color="#d27700"/></linearGradient><linearGradient x1="244.32572" y1="175.49551" x2="200.91434" y2="302.82382" gradientUnits="userSpaceOnUse" id="color-34"><stop offset="0" stop-color="#e6ae61"/><stop offset="1" stop-color="#cf8b2c"/></linearGradient><linearGradient x1="16.00002" y1="-24.29762" x2="16.00002" y2="56.29766" gradientUnits="userSpaceOnUse" id="color-35"><stop offset="0" stop-color="#ffffff"/><stop offset="1" stop-color="#bcbcbc"/></linearGradient><linearGradient x1="346.64885" y1="74.87865" x2="435.26791" y2="74.87865" gradientUnits="userSpaceOnUse" id="color-36"><stop offset="0" stop-color="#f39a00"/><stop offset="1" stop-color="#fdd289"/></linearGradient></defs><g transform="translate(191.99997,190.99998)"><g data-paper-data="{&quot;isPaintingLayer&quot;:true}" fill="none" fill-rule="nonzero" stroke="none" stroke-width="none" stroke-linecap="none" stroke-linejoin="miter" stroke-miterlimit="10" stroke-dasharray="" stroke-dashoffset="0" font-family="none" font-weight="none" font-size="none" text-anchor="none" style="mix-blend-mode: normal"><path d="M-19.00001,361.00007v-369.1875h504v369.1875z" data-paper-data="{&quot;origPos&quot;:null}" fill="url(#color-1)" stroke="none" stroke-width="0" stroke-linecap="butt"/><path d="M306.82507,200.77037l-2.14518,-12.96208l27.49203,-4.83772l2.14518,12.96208z" data-paper-data="{&quot;origPos&quot;:null,&quot;origRot&quot;:0}" fill="#c07a00" stroke="#000000" stroke-width="5" stroke-linecap="butt"/><path d="M323.3563,212.80925l-1.5178,-31.2437l27.89606,-1.05046l1.5178,31.2437z" data-paper-data="{&quot;origPos&quot;:null,&quot;origRot&quot;:0}" fill="#c07a00" stroke="#000000" stroke-width="5" stroke-linecap="butt"/><path d="M353.2485,167.51861c0.49442,10.17754 -7.51425,18.74475 -17.88787,19.13538c-10.37362,0.39063 -19.18391,-7.54323 -19.67833,-17.72078c-0.49442,-10.17754 7.51425,-18.74474 17.88787,-19.13537c10.37362,-0.39063 19.18391,7.54323 19.67833,17.72078z" data-paper-data="{&quot;origPos&quot;:null,&quot;origRot&quot;:0}" fill="#b2b2b2" stroke="#000000" stroke-width="5" stroke-linecap="butt"/><path d="M333.8969,162.90075c0.12574,2.5883 -1.34156,4.74564 -3.2773,4.81854c-1.93574,0.0729 -3.60691,-1.96627 -3.73265,-4.55457c-0.12574,-2.5883 1.34156,-4.74564 3.2773,-4.81854c1.93574,-0.0729 3.60691,1.96627 3.73265,4.55457z" data-paper-data="{&quot;origPos&quot;:null,&quot;origRot&quot;:0}" fill="#ff0000" stroke="none" stroke-width="0" stroke-linecap="butt"/><path d="M325.13591,163.44583c0.11264,2.3187 -1.16408,4.24989 -2.85167,4.31344c-1.68757,0.06355 -3.14693,-1.7646 -3.25958,-4.0833c-0.11264,-2.3187 1.16408,-4.24989 2.85167,-4.31344c1.68757,-0.06355 3.14693,1.7646 3.25958,4.0833z" data-paper-data="{&quot;origPos&quot;:null,&quot;origRot&quot;:0}" fill="#ff0000" stroke="none" stroke-width="0" stroke-linecap="butt"/><path d="M324.42232,239.75691l0.97211,-27.15434l11.51087,0.71102l-0.9721,27.15434z" data-paper-data="{&quot;origPos&quot;:null,&quot;origRot&quot;:0}" fill="#4c517f" stroke="#000000" stroke-width="5" stroke-linecap="butt"/><path d="M342.99693,239.74687l-2.9758,-27.37459l11.43985,-1.24359l2.9758,27.37459z" data-paper-data="{&quot;origPos&quot;:null,&quot;origRot&quot;:0}" fill="#4c517f" stroke="#000000" stroke-width="5" stroke-linecap="butt"/><path d="M309.91319,194.19026l1.2631,-13.03152l27.78215,3.71142l-1.26309,13.03152z" data-paper-data="{&quot;origPos&quot;:null,&quot;origRot&quot;:0}" fill="#c07a00" stroke="#000000" stroke-width="5" stroke-linecap="butt"/><path d="M-191.99996,20.00002c0,-116.53208 94.46792,-211 211,-211c116.53208,0 211,94.46792 211,211c0,116.53208 -94.46792,211 -211,211c-116.53208,0 -211,-94.46792 -211,-211z" data-paper-data="{&quot;origPos&quot;:null}" fill="url(#color-2)" stroke="none" stroke-width="0" stroke-linecap="butt"/><path d="M104.38538,122.72799l2.74072,-22.92893l53.27605,6.36814l-2.74072,22.92893z" data-paper-data="{&quot;origPos&quot;:null,&quot;origRot&quot;:0}" fill="url(#color-3)" stroke="none" stroke-width="0" stroke-linecap="butt"/><path d="M144.77155,116.76078c0.76054,-6.36267 6.53504,-10.90414 12.89775,-10.1436c6.36267,0.76054 10.90414,6.53504 10.1436,12.89775c-0.76054,6.36267 -6.53505,10.90414 -12.89775,10.1436c-6.36267,-0.76054 -10.90414,-6.53504 -10.1436,-12.89775z" data-paper-data="{&quot;origPos&quot;:null,&quot;origRot&quot;:0}" fill="url(#color-4)" stroke="#000000" stroke-width="4" stroke-linecap="butt"/><path d="M60.38537,115.72799l2.74072,-22.92894l53.27606,6.36814l-2.74072,22.92894z" data-paper-data="{&quot;origPos&quot;:null,&quot;origRot&quot;:0}" fill="url(#color-5)" stroke="none" stroke-width="0" stroke-linecap="butt"/><path d="M100.77156,109.76078c0.76054,-6.36268 6.53505,-10.90414 12.89775,-10.1436c6.36268,0.76054 10.90414,6.53505 10.1436,12.89775c-0.76054,6.36268 -6.53505,10.90414 -12.89775,10.1436c-6.36268,-0.76054 -10.90414,-6.53505 -10.1436,-12.89775z" data-paper-data="{&quot;origPos&quot;:null,&quot;origRot&quot;:0}" fill="url(#color-6)" stroke="#000000" stroke-width="4" stroke-linecap="butt"/><path d="M25.53491,93.70269c-1.99961,1.76032 -7.62664,1.48388 -11.82636,-2.31893c-4.19972,-3.80279 -4.42277,-14.26248 -4.42277,-14.26248c0,0 4.31343,3.437 5.40067,3.59003c0,0 6.14012,0.18914 8.30957,2.2508c2.85637,2.71448 4.53852,8.98025 2.5389,10.74057z" data-paper-data="{&quot;origRot&quot;:0,&quot;origPos&quot;:null}" fill="#26bd00" stroke="#000000" stroke-width="1" stroke-linecap="butt"/><path d="M23.48886,95.45271c-0.10234,2.66748 -3.53882,6.20273 -8.26872,6.11048c-4.7299,-0.09225 -11.15623,-7.88579 -11.15623,-7.88579c0,0 4.57576,-0.26117 5.29971,-0.86859c0,0 3.68211,-3.94305 6.18398,-3.82155c3.29407,0.15999 8.0436,3.79798 7.94126,6.46546z" data-paper-data="{&quot;origRot&quot;:0,&quot;origPos&quot;:null}" fill="#26bd00" stroke="#000000" stroke-width="1" stroke-linecap="butt"/><path d="M27.00939,86.94013c-2.6587,0.48676 -7.24026,-2.08273 -8.66538,-6.70926c-1.42513,-4.62653 4.18728,-12.59821 4.18728,-12.59821c0,0 1.72364,4.39874 2.55363,4.97023c0,0 5.06172,2.71903 5.74395,5.18221c0.89827,3.24312 -1.16079,8.66829 -3.81949,9.15503z" data-paper-data="{&quot;origRot&quot;:0,&quot;origPos&quot;:null}" fill="#26bd00" stroke="#000000" stroke-width="1" stroke-linecap="butt"/><path d="M25.29451,131.28635c5.47555,0.18591 9.84221,2.46224 9.75318,5.08434c-0.08903,2.6221 -4.60002,4.59702 -10.07557,4.41111c-5.47555,-0.18591 -9.75316,-5.08434 -9.75316,-5.08434c0,0 4.59999,-4.59702 10.07554,-4.41111z" data-paper-data="{&quot;origRot&quot;:0,&quot;origPos&quot;:null,&quot;index&quot;:null}" fill="#2bd900" stroke="#000000" stroke-width="1.5" stroke-linecap="butt"/><path d="M55.71577,136.02472c0,0 -3.71925,5.33477 -9.14207,6.11532c-5.42282,0.78055 -10.1219,-0.69182 -10.49569,-3.28867c-0.37379,-2.59684 3.71926,-5.33477 9.14208,-6.11532c5.42282,-0.78055 10.49568,3.28868 10.49568,3.28868z" data-paper-data="{&quot;origRot&quot;:0,&quot;origPos&quot;:null,&quot;index&quot;:null}" fill="#2bd900" stroke="#000000" stroke-width="1.5" stroke-linecap="butt"/><path d="M33.89804,139.03779c0,0 -0.44488,-8.17847 -0.00356,-13.26166c0.34841,-4.01305 2.02715,-10.04629 2.02715,-10.04629l5.15832,0.44784c0,0 -2.33929,4.7731 -2.6366,8.19757c-0.49242,5.67177 0.61302,15.11037 0.61302,15.11037z" data-paper-data="{&quot;origPos&quot;:null,&quot;origRot&quot;:0}" fill="#a9ff59" stroke="#000000" stroke-width="2" stroke-linecap="butt"/><path d="M62.06483,99.20523c-0.87398,10.06658 -11.00358,17.40924 -22.62512,16.40026c-11.62154,-1.00897 -20.33416,-9.9875 -19.46019,-20.05408c0.87398,-10.06658 11.00358,-17.40922 22.62513,-16.40024c11.62154,1.00897 20.33415,9.98748 19.46018,20.05406z" data-paper-data="{&quot;origPos&quot;:null,&quot;origRot&quot;:0}" fill="#a9ff59" stroke="#000000" stroke-width="3" stroke-linecap="butt"/><path d="M47.64096,92.07976c0.51022,2.56609 -0.28855,4.95863 -1.78411,5.34388c-1.49554,0.38525 -3.12155,-1.38268 -3.63177,-3.94877c-0.51022,-2.56609 0.28855,-4.95863 1.78411,-5.34388c1.49554,-0.38525 3.12154,1.38268 3.63176,3.94877z" data-paper-data="{&quot;origPos&quot;:null,&quot;origRot&quot;:0}" fill="#000000" stroke="none" stroke-width="0" stroke-linecap="butt"/><path d="M54.63967,91.77091c0.38434,1.93307 -0.21737,3.73537 -1.34398,4.02558c-1.12662,0.29021 -2.35148,-1.04158 -2.73582,-2.97465c-0.38434,-1.93307 0.21736,-3.73538 1.34398,-4.02559c1.12662,-0.29021 2.35149,1.04158 2.73583,2.97466z" data-paper-data="{&quot;origPos&quot;:null,&quot;origRot&quot;:0}" fill="#000000" stroke="none" stroke-width="0" stroke-linecap="butt"/><path d="M71.46119,106.18274c-1.2108,6.45842 -5.75863,11.04042 -10.1579,10.23417c-4.39927,-0.80625 -6.98403,-6.69543 -5.77324,-13.15386c1.2108,-6.45842 5.75865,-11.04042 10.1579,-10.23417c4.39925,0.80625 6.98402,6.69544 5.77323,13.15386z" data-paper-data="{&quot;origPos&quot;:null,&quot;origRot&quot;:0}" fill="#a9ff59" stroke="#000000" stroke-width="2" stroke-linecap="butt"/><path d="M62.35761,104.36425c-0.5437,3.19167 -2.26356,5.5656 -3.84141,5.30232c-1.57785,-0.26328 -2.41619,-3.0641 -1.87249,-6.25576c0.54371,-3.19166 2.26355,-5.5656 3.84139,-5.30231c1.57785,0.26328 2.4162,3.06409 1.8725,6.25576z" data-paper-data="{&quot;origRot&quot;:0,&quot;origPos&quot;:null}" fill="#84c746" stroke="none" stroke-width="0" stroke-linecap="butt"/><path d="M24.24707,137.90343c5.63108,-2.06733 10.9985,-1.55723 11.98849,1.13935c0.98998,2.69657 -2.77235,6.55846 -8.40343,8.62579c-5.63108,2.06733 -11.98848,-1.13935 -11.98848,-1.13935c0,0 2.77234,-6.55846 8.40342,-8.62579z" data-paper-data="{&quot;origRot&quot;:0,&quot;origPos&quot;:null}" fill="#2fe500" stroke="#000000" stroke-width="2" stroke-linecap="butt"/><path d="M54.29868,148.90541c0,0 -6.81492,2.06305 -12.00546,-0.9438c-5.19054,-3.00685 -8.23103,-7.45936 -6.79113,-9.94497c1.4399,-2.48561 6.81493,-2.06306 12.00547,0.94379c5.19054,3.00685 6.79112,9.94498 6.79112,9.94498z" data-paper-data="{&quot;origRot&quot;:0,&quot;origPos&quot;:null,&quot;index&quot;:null}" fill="#2fe500" stroke="#000000" stroke-width="2" stroke-linecap="butt"/><path d="M37.68029,89.21187l-0.554,-5.23434c0,0 5.47414,0.37688 7.88378,1.53738c2.55422,1.23014 2.65432,4.8519 2.65432,4.8519c0,0 -1.15866,-1.82934 -4.28356,-2.10064c-2.17626,-0.18894 -5.70054,0.94571 -5.70054,0.94571z" data-paper-data="{&quot;origPos&quot;:null,&quot;origRot&quot;:0}" fill="#26bd00" stroke="#000000" stroke-width="0.5" stroke-linecap="butt"/><path d="M53.27271,88.47142c-2.39497,0.27036 -3.28001,1.81183 -3.28001,1.81183c0,0 0.07053,-3.02078 2.02639,-4.08244c1.84516,-1.00157 6.04078,-1.39317 6.04078,-1.39317l-0.41571,4.37158c0,0 -2.70352,-0.89609 -4.37145,-0.7078z" data-paper-data="{&quot;origPos&quot;:null,&quot;index&quot;:null,&quot;origRot&quot;:0}" fill="#26bd00" stroke="#000000" stroke-width="0.5" stroke-linecap="butt"/><path d="M179.00003,140.5c0,-75.38687 61.11313,-136.5 136.5,-136.5c75.38687,0 136.5,61.11313 136.5,136.5c0,75.38687 -61.11313,136.5 -136.5,136.5c-75.38687,0 -136.5,-61.11313 -136.5,-136.5z" data-paper-data="{&quot;origPos&quot;:null}" fill="url(#color-7)" stroke="none" stroke-width="0" stroke-linecap="butt"/><path d="M-1.84733,180.76375c0.35871,-13.74031 13.18857,-24.55168 28.6563,-24.14788c15.46773,0.4038 27.71602,11.86986 27.35732,25.61017c-0.35871,13.74031 -56.37233,12.27802 -56.01362,-1.46229z" data-paper-data="{&quot;origPos&quot;:null,&quot;origRot&quot;:0}" fill="#ffeeac" stroke="#000000" stroke-width="4.5" stroke-linecap="butt"/><path d="M21.69735,160.14613l-1.44851,-11.54101l4.05608,-0.19681l1.44849,11.54101c0,0 -1.13605,1.14826 -1.89481,1.18508c-0.8242,0.04 -2.16127,-0.98827 -2.16127,-0.98827z" data-paper-data="{&quot;origPos&quot;:null,&quot;origRot&quot;:0}" fill="#bebebe" stroke="#000000" stroke-width="0.5" stroke-linecap="butt"/><path d="M15.31973,144.261c0.34708,-3.69388 3.62293,-6.40699 7.31679,-6.0599c3.69388,0.34708 6.40697,3.62293 6.0599,7.31679c-0.34708,3.69388 -3.62291,6.40697 -7.31679,6.0599c-3.69388,-0.34708 -6.40699,-3.62291 -6.0599,-7.31679z" data-paper-data="{&quot;origPos&quot;:null,&quot;origRot&quot;:0}" fill="url(#color-8)" stroke="#000000" stroke-width="0.5" stroke-linecap="butt"/><path d="M35.84279,173.98507c0.65134,2.61372 0.01998,5.02148 -1.41017,5.37788c-1.43015,0.35639 -3.11754,-1.47353 -3.76889,-4.08727c-0.65134,-2.61372 -0.01998,-5.0215 1.41017,-5.37789c1.43015,-0.35639 3.11753,1.47354 3.76887,4.08729z" data-paper-data="{&quot;origPos&quot;:null,&quot;origRot&quot;:0}" fill="#000000" stroke="none" stroke-width="0" stroke-linecap="butt"/><path d="M35.1817,173.0262c0.32975,1.112 0.16062,2.16583 -0.37779,2.35375c-0.5384,0.18794 -1.2422,-0.56117 -1.57195,-1.67317c-0.32975,-1.112 -0.16061,-2.16581 0.37779,-2.35375c0.5384,-0.18794 1.2422,0.56117 1.57195,1.67317z" data-paper-data="{&quot;origRot&quot;:0,&quot;origPos&quot;:null}" fill="#ffffff" stroke="none" stroke-width="0" stroke-linecap="butt"/><path d="M46.19637,172.25943c0.60093,2.41137 0.01843,4.63273 -1.301,4.96153c-1.31943,0.3288 -2.87617,-1.35945 -3.47708,-3.77083c-0.60093,-2.41137 -0.01845,-4.63273 1.30098,-4.96154c1.31943,-0.3288 2.87617,1.35947 3.4771,3.77085z" data-paper-data="{&quot;origPos&quot;:null,&quot;origRot&quot;:0}" fill="#000000" stroke="none" stroke-width="0" stroke-linecap="butt"/><path d="M45.34668,171.36851c0.30423,1.02592 0.14818,1.99814 -0.34854,2.17153c-0.49673,0.17339 -1.14603,-0.51772 -1.45025,-1.54362c-0.30423,-1.02592 -0.14818,-1.99814 0.34854,-2.17153c0.49673,-0.17339 1.14603,0.51772 1.45025,1.54362z" data-paper-data="{&quot;origRot&quot;:0,&quot;origPos&quot;:null}" fill="#ffffff" stroke="none" stroke-width="0" stroke-linecap="butt"/><path d="M45.69545,181.12295c0,0 -2.01968,1.61115 -3.53562,2.16519c-1.60348,0.58604 -4.45746,0.75606 -4.45746,0.75606" data-paper-data="{&quot;origPos&quot;:null,&quot;origRot&quot;:0}" fill="none" stroke="#000000" stroke-width="0.5" stroke-linecap="round"/><path d="M43.57769,185.21612l-0.71741,-1.86271l2.62927,-1.65002l0.71741,1.86271z" data-paper-data="{&quot;origRot&quot;:0,&quot;origPos&quot;:null}" fill="#ffffff" stroke="#000000" stroke-width="0.5" stroke-linecap="butt"/><path d="M20.29981,192.73781c-0.06166,2.36197 -2.12489,2.58515 -4.43659,2.5248c-0.28226,-0.00737 0.46888,0.01505 0.18657,0.01129c-0.84696,-0.01125 -2.53208,-0.8521 -2.49778,-2.16591c0.07494,-2.87062 3.71775,-5.09313 3.77515,-5.09163c0,0 1.41633,0.24204 2.04641,1.65999c0.67825,1.52639 0.9879,0.69948 0.92624,3.06145z" data-paper-data="{&quot;origPos&quot;:null,&quot;origRot&quot;:0}" fill="#a86f20" stroke="#000000" stroke-width="2" stroke-linecap="butt"/><path d="M25.34748,193.11606c-0.04723,1.80904 -1.62745,1.97997 -3.39801,1.93375c-0.21618,-0.00564 0.35914,0.01151 0.14289,0.00866c-0.64869,-0.00862 -1.93933,-0.65263 -1.91306,-1.65889c0.0574,-2.19863 1.24206,-3.51532 1.37396,-3.51817c0.04396,-0.00095 1.47348,-0.38268 1.51744,-0.38153c0,0 1.08477,0.18539 1.56735,1.2714c0.51947,1.16908 0.75664,0.53574 0.70941,2.34478z" data-paper-data="{&quot;origPos&quot;:null,&quot;origRot&quot;:0}" fill="#a86f20" stroke="#000000" stroke-width="2" stroke-linecap="butt"/><path d="M14.12642,191.66419c-0.07831,2.99968 -2.69861,3.28313 -5.63447,3.20649c-0.35847,-0.00936 0.59551,0.01909 0.23694,0.01433c-1.07566,-0.01428 -3.21573,-1.08217 -3.17218,-2.75072c0.09517,-3.64568 2.05955,-5.82896 2.27828,-5.8337c0.07291,-0.00158 2.44328,-0.63455 2.51617,-0.63265c0,0 1.79873,0.3074 2.59893,2.10821c0.86137,1.93851 1.25463,0.88835 1.17632,3.88804z" data-paper-data="{&quot;origPos&quot;:null,&quot;origRot&quot;:0}" fill="#a86f20" stroke="#000000" stroke-width="2" stroke-linecap="butt"/><path d="M47.78883,191.64646c-0.06523,2.49866 -2.24787,2.73477 -4.69336,2.67093c-0.2986,-0.0078 0.49604,0.01591 0.19736,0.01195c-0.896,-0.01189 -2.67862,-0.90142 -2.64234,-2.29128c0.07928,-3.03677 1.71555,-4.8554 1.89775,-4.85933c0.06073,-0.00132 2.03519,-0.52857 2.09592,-0.52698c0,0 1.49831,0.25606 2.16484,1.75609c0.7175,1.61474 1.04509,0.73998 0.97986,3.23865z" data-paper-data="{&quot;origPos&quot;:null,&quot;origRot&quot;:0}" fill="#a86f20" stroke="#000000" stroke-width="1" stroke-linecap="butt"/><path d="M41.9872,193.78032c-0.05413,2.07363 -1.86549,2.26956 -3.89499,2.21658c-0.2478,-0.00647 0.41166,0.0132 0.1638,0.00991c-0.74359,-0.00988 -2.22298,-0.74809 -2.19286,-1.90153c0.06579,-2.5202 1.42373,-4.02947 1.57493,-4.03273c0.05041,-0.0011 1.689,-0.43865 1.73938,-0.43733c0,0 1.24344,0.21251 1.79659,1.45736c0.59545,1.34006 0.86731,0.6141 0.81318,2.68773z" data-paper-data="{&quot;origPos&quot;:null,&quot;origRot&quot;:0}" fill="#a86f20" stroke="#000000" stroke-width="1" stroke-linecap="butt"/><path d="M31.87342,193.17279c-0.06622,2.53666 -2.28204,2.77635 -4.76472,2.71154c-0.30313,-0.00791 0.50358,0.01614 0.20037,0.01212c-0.90962,-0.01208 -2.71936,-0.91512 -2.68252,-2.32611c0.08048,-3.08294 1.74164,-4.92922 1.9266,-4.93323c0.06165,-0.00133 2.06613,-0.5366 2.12778,-0.53499c0,0 1.52109,0.25995 2.19776,1.78279c0.72841,1.63928 1.06097,0.75122 0.99475,3.2879z" data-paper-data="{&quot;origPos&quot;:null,&quot;origRot&quot;:0}" fill="#a86f20" stroke="#000000" stroke-width="2" stroke-linecap="butt"/><path d="M55.2989,190.06207c-0.0714,2.73511 -2.46057,2.99354 -5.13747,2.92366c-0.32686,-0.00853 0.54297,0.01741 0.21604,0.01307c-0.98078,-0.01302 -2.93209,-0.98671 -2.89237,-2.50808c0.08678,-3.32412 1.87787,-5.31482 2.07731,-5.31915c0.06648,-0.00145 2.22776,-0.57858 2.29423,-0.57685c0,0 1.64008,0.28028 2.36969,1.92225c0.7854,1.76753 1.14398,0.81 1.07257,3.54509z" data-paper-data="{&quot;origPos&quot;:null,&quot;origRot&quot;:0}" fill="#a86f20" stroke="#000000" stroke-width="1" stroke-linecap="butt"/><path d="M3.09063,186.53618c-0.07831,2.99968 -3.01012,3.275 -6.29623,3.18921c-0.40123,-0.01047 0.66655,0.02094 0.26524,0.01507c-1.20393,-0.01763 -3.6025,-1.09227 -3.55894,-2.76081c0.09517,-3.64568 2.28695,-5.82303 2.53173,-5.82709c0.08159,-0.00135 2.73259,-0.627 2.81419,-0.62487c0,0 2.01413,0.31303 2.91533,2.11647c0.97011,1.94135 1.40697,0.89232 1.32866,3.89202z" data-paper-data="{&quot;origPos&quot;:null,&quot;origRot&quot;:0}" fill="#a86f20" stroke="#000000" stroke-width="2" stroke-linecap="butt"/><path d="M6.85435,189.87271c-0.07831,2.99968 -2.69861,3.28313 -5.63445,3.20649c-0.35847,-0.00936 0.59551,0.01909 0.23694,0.01433c-1.07566,-0.01428 -3.21573,-1.08217 -3.17218,-2.75072c0.09517,-3.64568 2.05955,-5.82896 2.27826,-5.8337c0.07291,-0.00158 2.44328,-0.63455 2.51617,-0.63265c0,0 1.79874,0.3074 2.59892,2.10821c0.86137,1.93851 1.25463,0.88835 1.17632,3.88804z" data-paper-data="{&quot;origPos&quot;:null,&quot;origRot&quot;:0}" fill="#a86f20" stroke="#000000" stroke-width="2" stroke-linecap="butt"/><path d="M59.58224,185.4671c-0.06622,2.53666 -2.28204,2.77635 -4.76472,2.71154c-0.30313,-0.00791 0.50358,0.01614 0.20037,0.01212c-0.90962,-0.01208 -2.71936,-0.91512 -2.68252,-2.32611c0.08048,-3.08294 1.74164,-4.92922 1.9266,-4.93323c0.06165,-0.00133 2.06613,-0.5366 2.12778,-0.53499c0,0 1.52109,0.25995 2.19776,1.78279c0.72841,1.63928 1.06097,0.75122 0.99475,3.2879z" data-paper-data="{&quot;origPos&quot;:null,&quot;origRot&quot;:0}" fill="#a86f20" stroke="#000000" stroke-width="1" stroke-linecap="butt"/><path d="M36.5956,193.13452c-0.06166,2.36197 -2.12487,2.58515 -4.43659,2.5248c-0.28224,-0.00737 0.46888,0.01505 0.18657,0.01129c-0.84698,-0.01125 -2.53208,-0.8521 -2.49778,-2.16591c0.03313,-1.26898 1.48589,-2.3349 2.29259,-3.31504c0.82556,-1.00304 0.18392,-1.81051 1.48257,-1.77661c0,0 3.03431,2.35949 2.97265,4.72144z" data-paper-data="{&quot;origPos&quot;:null,&quot;origRot&quot;:0}" fill="#a86f20" stroke="#000000" stroke-width="2" stroke-linecap="butt"/><path d="M471.92979,146.02012l-1.7121,160.17065l-78.89978,-18.7643l1.7121,-160.17068z" data-paper-data="{&quot;origPos&quot;:null,&quot;origRot&quot;:0}" fill="url(#color-9)" stroke="none" stroke-width="0" stroke-linecap="butt"/><path d="M140.31788,285.9919l1.7121,-129.73612l78.89978,15.19884l-1.7121,129.73614z" data-paper-data="{&quot;origPos&quot;:null,&quot;origRot&quot;:0}" fill="url(#color-10)" stroke="none" stroke-width="0" stroke-linecap="butt"/><path d="M139.97314,315.17724l-112.84258,1.69963l-0.85598,-103.60752l112.8426,-1.69963z" data-paper-data="{&quot;origPos&quot;:null,&quot;origRot&quot;:0}" fill="url(#color-11)" stroke="none" stroke-width="0" stroke-linecap="butt"/><path d="M31.17382,193.84345l-31.72514,-51.0594l98.62518,-25.18095l31.72515,51.05941z" data-paper-data="{&quot;origPos&quot;:null,&quot;origRot&quot;:0}" fill="url(#color-12)" stroke="none" stroke-width="0" stroke-linecap="butt"/><text transform="translate(230.00007,75.00004) scale(0.5,0.5)" font-size="40" xml:space="preserve" data-paper-data="{&quot;origPos&quot;:null}" fill="#000000" fill-rule="nonzero" stroke="none" stroke-width="1" stroke-linecap="butt" stroke-linejoin="miter" stroke-miterlimit="10" stroke-dasharray="" stroke-dashoffset="0" font-family="Sans Serif" font-weight="normal" text-anchor="start" style="mix-blend-mode: normal"><tspan x="0" dy="0">vs</tspan></text><text transform="translate(92.61732,80.07749) rotate(-2.5381) scale(1.08505,1.08505)" font-size="40" xml:space="preserve" data-paper-data="{&quot;origPos&quot;:null,&quot;origRot&quot;:-2.53807}" fill="#000000" fill-rule="nonzero" stroke="none" stroke-width="1" stroke-linecap="butt" stroke-linejoin="miter" stroke-miterlimit="10" stroke-dasharray="" stroke-dashoffset="0" font-family="Sans Serif" font-weight="normal" text-anchor="start" style="mix-blend-mode: normal"><tspan x="0" dy="0">Plants</tspan></text><text transform="translate(93.61732,78.07748) rotate(-2.5381) scale(1.08505,1.08505)" font-size="40" xml:space="preserve" data-paper-data="{&quot;origPos&quot;:null,&quot;origRot&quot;:-2.53807}" fill="#2bff00" fill-rule="nonzero" stroke="none" stroke-width="1" stroke-linecap="butt" stroke-linejoin="miter" stroke-miterlimit="10" stroke-dasharray="" stroke-dashoffset="0" font-family="Sans Serif" font-weight="normal" text-anchor="start" style="mix-blend-mode: normal"><tspan x="0" dy="0">Plants</tspan></text><text transform="translate(230.00007,74.00002) scale(0.5,0.5)" font-size="40" xml:space="preserve" data-paper-data="{&quot;origPos&quot;:null}" fill="#ffe800" fill-rule="nonzero" stroke="none" stroke-width="1" stroke-linecap="butt" stroke-linejoin="miter" stroke-miterlimit="10" stroke-dasharray="" stroke-dashoffset="0" font-family="Sans Serif" font-weight="normal" text-anchor="start" style="mix-blend-mode: normal"><tspan x="0" dy="0">vs</tspan></text><path d="M164.38538,170.415l4.03533,-33.75968l78.44161,9.37621l-4.03533,33.75968z" data-paper-data="{&quot;origPos&quot;:null,&quot;origRot&quot;:0}" fill="url(#color-13)" stroke="none" stroke-width="0" stroke-linecap="butt"/><g data-paper-data="{&quot;origPos&quot;:null,&quot;origRot&quot;:0}" stroke-linecap="butt"><path d="M85.92065,190.65748c9.06084,1.55907 15.80083,6.34035 15.05424,10.67936c-0.74661,4.33899 -8.6971,6.59253 -17.75789,5.03348c-9.06084,-1.55907 -15.05418,-10.67938 -15.05418,-10.67938c0,0 8.69707,-6.59257 17.75785,-5.0335z" data-paper-data="{&quot;origRot&quot;:0,&quot;origPos&quot;:null,&quot;index&quot;:null}" fill="#2bd900" stroke="#000000" stroke-width="3.5"/><path d="M134.6248,198.89145c0,0 -6.87623,8.47453 -16.0476,9.11876c-9.17139,0.64423 -16.85637,-2.39383 -17.16487,-6.78578c-0.30853,-4.39195 6.8763,-8.47457 16.04763,-9.11881c9.17139,-0.64423 17.16485,6.78581 17.16485,6.78581z" data-paper-data="{&quot;origRot&quot;:0,&quot;origPos&quot;:null,&quot;index&quot;:null}" fill="#2bd900" stroke="#000000" stroke-width="3.5"/><path d="M94.52219,200.77907c0,0 5.04309,-12.78619 9.27249,-20.23106c3.33902,-5.87752 10.12049,-13.90586 10.12049,-13.90586l7.55487,4.29188c0,0 -6.90746,5.64406 -9.75676,10.65952c-4.71909,8.30685 -9.63621,23.47736 -9.63621,23.47736z" data-paper-data="{&quot;origPos&quot;:null,&quot;origRot&quot;:0}" fill="#a9ff59" stroke="#000000" stroke-width="4.5"/><path d="M82.46501,111.98281c7.46202,2.69524 12.46488,7.77699 11.17417,11.35032c-1.29067,3.57336 -8.38614,4.28521 -15.84816,1.58992c-7.46202,-2.69524 -11.17418,-11.35032 -11.17418,-11.35032c0,0 8.38614,-4.28521 15.84816,-1.58992z" data-paper-data="{&quot;origRot&quot;:0,&quot;origPos&quot;:null}" fill="#2fe500" stroke="#000000" stroke-width="2"/><path d="M156.45806,142.72304c-0.30205,16.95388 -16.4137,30.41502 -35.98639,30.06632c-19.57268,-0.34871 -35.19462,-14.37521 -34.89258,-31.3291c0.30205,-16.95388 16.4137,-30.41501 35.98639,-30.06631c19.57268,0.34871 35.19463,14.37523 34.89257,31.32909z" data-paper-data="{&quot;origPos&quot;:null,&quot;origRot&quot;:0}" fill="#a9ff59" stroke="#000000" stroke-width="5"/><path d="M171.17028,152.91545c-1.13755,9.71732 -7.42405,16.9889 -14.04128,16.24154c-6.61723,-0.74741 -11.05936,-9.23071 -9.92179,-18.94806c1.13755,-9.71732 7.42409,-16.9889 14.04128,-16.24155c6.61721,0.74742 11.05932,9.23073 9.92179,18.94807z" data-paper-data="{&quot;origPos&quot;:null,&quot;origRot&quot;:0}" fill="#a9ff59" stroke="#000000" stroke-width="4.5"/><path d="M157.46159,151.14595c-0.481,4.79658 -2.79271,8.49886 -5.16345,8.26925c-2.37071,-0.2296 -3.90261,-4.30417 -3.42163,-9.10075c0.481,-4.79658 2.79272,-8.49887 5.16344,-8.26923c2.37071,0.2296 3.90263,4.30417 3.42165,9.10075z" data-paper-data="{&quot;origRot&quot;:0,&quot;origPos&quot;:null}" fill="#84c746" stroke="none" stroke-width="0"/><path d="M85.32248,198.58495c9.91057,-1.76416 18.62952,0.653 19.47436,5.39893c0.8448,4.74589 -6.50445,10.02334 -16.41501,11.78752c-9.91057,1.76416 -19.47434,-5.39892 -19.47434,-5.39892c0,0 6.50442,-10.02337 16.41499,-11.78753z" data-paper-data="{&quot;origRot&quot;:0,&quot;origPos&quot;:null}" fill="#2fe500" stroke="#000000" stroke-width="4.5"/><path d="M134.6574,217.23179c0,0 -11.11245,4.39179 -20.2087,0.08013c-9.09621,-4.31168 -14.79638,-11.33813 -12.73162,-15.69407c2.06474,-4.35592 11.11249,-4.39182 20.20872,-0.08015c9.09621,4.31168 12.73159,15.69408 12.73159,15.69408z" data-paper-data="{&quot;origRot&quot;:0,&quot;origPos&quot;:null,&quot;index&quot;:null}" fill="#2fe500" stroke="#000000" stroke-width="4.5"/><path d="M132.34913,130.41198c1.15016,4.23719 0.08887,8.33482 -2.3705,9.15229c-2.45935,0.81746 -5.38546,-1.95477 -6.53562,-6.19197c-1.15016,-4.23719 -0.08887,-8.33482 2.3705,-9.15229c2.45935,-0.81746 5.38544,1.95478 6.5356,6.19197z" data-paper-data="{&quot;origPos&quot;:null,&quot;origRot&quot;:0}" fill="#000000" stroke="none" stroke-width="0"/><path d="M144.03042,129.08767c0.86642,3.19194 0.06694,6.27868 -1.78571,6.89449c-1.85267,0.61581 -4.05689,-1.47255 -4.92331,-4.66448c-0.86642,-3.19194 -0.06696,-6.27868 1.78571,-6.89449c1.85267,-0.61581 4.05691,1.47255 4.92333,4.66448z" data-paper-data="{&quot;origPos&quot;:null,&quot;origRot&quot;:0}" fill="#000000" stroke="none" stroke-width="0"/></g><path d="M223.84846,161.62911c1.11979,-9.36816 9.62195,-16.05483 18.99015,-14.93504c9.36816,1.11979 16.05483,9.62195 14.93504,18.99015c-1.11979,9.36816 -9.62195,16.05483 -18.99015,14.93504c-9.36816,-1.11979 -16.05483,-9.62195 -14.93504,-18.99015z" data-paper-data="{&quot;origPos&quot;:null,&quot;origRot&quot;:0}" fill="url(#color-14)" stroke="#000000" stroke-width="4" stroke-linecap="butt"/><path d="M320.96835,218.84685l-1.54861,-27.75966l58.94293,-3.89016l1.54861,27.75966z" data-paper-data="{&quot;origPos&quot;:null,&quot;origRot&quot;:0}" fill="#c07a00" stroke="#000000" stroke-width="5" stroke-linecap="butt"/><path d="M352.99289,247.9543l3.95212,-66.07629l58.92679,4.16972l-3.95212,66.07629z" data-paper-data="{&quot;origPos&quot;:null,&quot;origRot&quot;:0}" fill="#c07a00" stroke="#000000" stroke-width="5" stroke-linecap="butt"/><path d="M426.23653,159.50992c-1.28738,21.52416 -20.09496,37.71596 -42.00788,36.16538c-21.91292,-1.55058 -38.63322,-20.25636 -37.34584,-41.78052c1.28738,-21.52416 20.09496,-37.71595 42.00788,-36.16537c21.91292,1.55058 38.63322,20.25636 37.34584,41.78052z" data-paper-data="{&quot;origPos&quot;:null,&quot;origRot&quot;:0}" fill="#b2b2b2" stroke="#000000" stroke-width="5" stroke-linecap="butt"/><path d="M320.16392,146.64343c0,0 11.14128,29.98905 16.93604,45.58674c1.93157,5.19924 4.94941,13.32238 4.94941,13.32238l-9.58331,3.5603c0,0 -2.89049,-7.78036 -4.64227,-12.4956c-5.2553,-14.14567 -17.24318,-46.41356 -17.24318,-46.41356z" data-paper-data="{&quot;index&quot;:null,&quot;origPos&quot;:null,&quot;origRot&quot;:0}" fill="#f5c300" stroke="#000000" stroke-width="4" stroke-linecap="butt"/><path d="M296.66436,168.52118c0,0 -5.56041,-13.06161 -5.32491,-22.60181c0.30035,-12.16921 -0.008,-27.25253 11.40291,-31.4918c10.42846,-3.87429 20.72195,5.93523 28.28596,14.09295c7.20113,7.76638 11.63593,22.91118 11.63593,22.91118z" data-paper-data="{&quot;origPos&quot;:null,&quot;origRot&quot;:0}" fill="#c5c5c5" stroke="#000000" stroke-width="4" stroke-linecap="butt"/><path d="M326.40828,224.88267c-0.98079,-2.64002 -2.45178,-6.59948 -4.02106,-10.82349c-0.26156,-0.70399 0.56724,-2.26363 1.35922,-2.55785c10.12001,-3.7597 23.29129,-8.65298 25.93128,-9.6338c0.88,-0.32694 2.61244,0.1247 2.8413,0.74071c0.68654,1.84801 2.40069,6.462 3.93729,10.59799c0.39232,1.056 0.62032,2.84887 -0.34767,3.2085c-2.90401,1.07886 -17.48869,6.49725 -27.96071,10.38774c-0.35201,0.13076 -1.41275,-1.03981 -1.73969,-1.91981z" data-paper-data="{&quot;origPos&quot;:null,&quot;origRot&quot;:0}" fill="none" stroke="#ff0000" stroke-width="6" stroke-linecap="butt"/><path d="M386.58149,145.36943c-0.3274,5.47391 -3.90762,9.67687 -7.99662,9.38754c-4.089,-0.28933 -7.1384,-4.96143 -6.811,-10.43534c0.3274,-5.47391 3.90762,-9.67687 7.99662,-9.38754c4.089,0.28933 7.13839,4.96143 6.81099,10.43534z" data-paper-data="{&quot;origPos&quot;:null,&quot;origRot&quot;:0}" fill="#ff0000" stroke="none" stroke-width="0" stroke-linecap="butt"/><path d="M368.02579,144.5126c-0.29331,4.90375 -3.42087,8.67452 -6.98568,8.42228c-3.56478,-0.25225 -6.21683,-4.43197 -5.92355,-9.33572c0.29331,-4.90375 3.42087,-8.67452 6.98568,-8.42228c3.56478,0.25225 6.21683,4.43197 5.92355,9.33572z" data-paper-data="{&quot;origPos&quot;:null,&quot;origRot&quot;:0}" fill="#ff0000" stroke="none" stroke-width="0" stroke-linecap="butt"/><path d="M349.07285,304.88943l8.25508,-56.90385l24.05347,4.12827l-8.25507,56.90385z" data-paper-data="{&quot;origPos&quot;:null,&quot;origRot&quot;:0}" fill="#4c517f" stroke="#000000" stroke-width="5" stroke-linecap="butt"/><path d="M388.15156,309.11618v-58.27006h24.35107v58.27006z" data-paper-data="{&quot;origPos&quot;:null}" fill="#4c517f" stroke="#000000" stroke-width="5" stroke-linecap="butt"/><path d="M328.96986,205.71012l5.63746,-27.1263l57.59814,14.16151l-5.63745,27.1263z" data-paper-data="{&quot;origPos&quot;:null,&quot;origRot&quot;:0}" fill="#c07a00" stroke="#000000" stroke-width="5" stroke-linecap="butt"/><path d="M103.50592,305.40951c-0.04496,6.00044 -25.52484,5.80956 -25.47988,-0.1909c0.04496,-6.00044 5.78524,-10.82202 12.82133,-10.76931c7.03609,0.05271 12.70348,4.95975 12.65853,10.96019z" data-paper-data="{&quot;origPos&quot;:null,&quot;origRot&quot;:0}" fill="#26c000" stroke="#000000" stroke-width="4" stroke-linecap="butt"/><path d="M84.70505,304.85657c-0.04496,6.00044 -25.52484,5.80956 -25.47988,-0.1909c0.04496,-6.00044 5.78524,-10.82202 12.82133,-10.76931c7.03606,0.05271 12.70348,4.95975 12.65853,10.96019z" data-paper-data="{&quot;origPos&quot;:null,&quot;origRot&quot;:0}" fill="#26c000" stroke="#000000" stroke-width="4" stroke-linecap="butt"/><path d="M77.14835,302.02603l-3.09583,-17.68407c0,0 -8.30352,0.66821 -11.41209,0.7412c-2.32573,0.0546 -6.14863,-10.38499 -6.14863,-10.38499c0,0 6.85611,-2.04896 9.91546,-0.9241c3.63362,1.33604 6.54238,5.15361 6.54238,5.15361c0,0 0.54913,-0.13771 0.54913,-1.55705c0,-9.23363 3.64959,-23.66009 3.64959,-23.66009h9.12395c0,0 -3.98137,14.20797 -3.98137,22.66475c0,1.68201 0.18814,2.31403 0.18814,2.31403c0,0 6.19366,-4.7065 8.80782,-5.20605c3.32156,-0.63474 9.15479,1.74855 9.15479,1.74855c0,0 -5.0095,8.17371 -8.2355,9.33244c-2.61549,0.93944 -9.21047,0.05985 -9.21047,0.05985l3.2766,17.40194z" data-paper-data="{&quot;origPos&quot;:null}" fill="#2fe500" stroke="#000000" stroke-width="3" stroke-linecap="butt"/><path d="M80.01453,309.05746c0.61868,6.62289 -28.74856,10.28674 -29.36723,3.66388c-0.61868,-6.62289 6.41954,-13.61671 14.18551,-14.34214c7.76597,-0.72543 14.56305,4.05539 15.18172,10.67828z" data-paper-data="{&quot;origPos&quot;:null,&quot;origRot&quot;:0}" fill="#2fe500" stroke="#000000" stroke-width="4" stroke-linecap="butt"/><path d="M111.10188,312.41613c0,6.5111 -29.72198,5.88901 -29.72198,-0.62209c0,-6.5111 6.1893,-11.78939 13.82418,-11.78939c7.63487,0 15.89782,5.90037 15.89782,12.41148z" data-paper-data="{&quot;origPos&quot;:null}" fill="#2fe500" stroke="#000000" stroke-width="4" stroke-linecap="butt"/><path d="M99.62782,314.86768c0,7.29244 -30.96619,7.29244 -30.96619,0c0,-7.29244 6.93202,-13.20412 15.48308,-13.20412c8.55106,0 15.48308,5.91169 15.48308,13.20412z" data-paper-data="{&quot;origPos&quot;:null}" fill="#2fe500" stroke="#000000" stroke-width="4" stroke-linecap="butt"/><path d="M134.61622,248.2647c-4.51337,3.2004 -13.07145,-0.63021 -16.93173,-3.59637c-4.39209,-3.37478 -8.7189,-8.42621 -4.32407,-12.77591c2.88693,-2.8573 9.47608,-1.88907 14.71723,2.16259c5.24117,4.05168 9.80764,11.89156 6.53855,14.20969z" data-paper-data="{&quot;origPos&quot;:null,&quot;origRot&quot;:0,&quot;index&quot;:null}" fill="url(#color-15)" stroke="#000000" stroke-width="3.5" stroke-linecap="butt"/><path d="M139.35305,202.92054c2.50583,5.67154 -4.41256,13.05198 -8.99307,15.95904c-5.21152,3.30756 -12.38125,5.9774 -16.27529,0.03452c-2.55796,-3.90388 0.4333,-10.26148 6.68112,-14.20012c6.24785,-3.93864 16.7722,-5.90141 18.58719,-1.79344z" data-paper-data="{&quot;origPos&quot;:null,&quot;origRot&quot;:0,&quot;index&quot;:null}" fill="url(#color-16)" stroke="#000000" stroke-width="3.5" stroke-linecap="butt"/><path d="M106.64443,268.65217c-6.18417,1.15686 -13.44017,-5.74329 -16.15396,-9.99326c-3.08764,-4.83546 -5.34962,-11.18539 1.22904,-13.4449c4.3215,-1.48426 10.80274,2.00849 14.47626,7.80124c3.67352,5.79275 4.92795,14.799 0.44866,15.63692z" data-paper-data="{&quot;origPos&quot;:null,&quot;origRot&quot;:0,&quot;index&quot;:null}" fill="url(#color-17)" stroke="#000000" stroke-width="3.5" stroke-linecap="butt"/><path d="M70.36374,254.19866c0,-8.62808 4.44998,-15.62251 9.93934,-15.62251c8.35652,0 10.19739,8.7166 10.17525,15.92776c-0.01945,6.33801 -3.02372,17.82536 -10.23936,19.00826c-5.2264,0.85679 -9.87522,-10.68543 -9.87522,-19.31349z" data-paper-data="{&quot;origPos&quot;:null,&quot;origRot&quot;:0}" fill="url(#color-18)" stroke="#000000" stroke-width="3.5" stroke-linecap="butt"/><path d="M126.68528,204.36772c-4.60942,5.11005 -11.25423,7.55104 -14.84164,5.45208c-5.46116,-3.19529 -2.00752,-9.0617 1.85937,-13.3241c3.39871,-3.74631 11.49898,-9.40108 16.84651,-7.34263c3.87328,1.49099 0.74517,10.10456 -3.86425,15.21464z" data-paper-data="{&quot;origPos&quot;:null,&quot;origRot&quot;:0}" fill="url(#color-19)" stroke="#000000" stroke-width="3.5" stroke-linecap="butt"/><path d="M46.68246,247.09039c4.42523,-4.9342 10.55739,-6.65177 13.69662,-3.83637c4.77888,4.28592 1.36101,10.2149 -2.35013,14.32743c-3.2618,3.61458 -10.87156,8.64308 -15.6047,5.61873c-3.42829,-2.19057 -0.16699,-11.1756 4.25821,-16.10977z" data-paper-data="{&quot;origPos&quot;:null,&quot;origRot&quot;:0}" fill="url(#color-20)" stroke="#000000" stroke-width="3.5" stroke-linecap="butt"/><path d="M122.96814,259.77258c-5.72447,1.89994 -13.70943,-4.04757 -16.95229,-7.92497c-3.68958,-4.41156 -6.82377,-10.42351 -0.89215,-13.46348c3.89644,-1.99693 10.61862,0.671 15.01439,5.95902c4.39577,5.28802 6.97638,14.05328 2.83008,15.42943z" data-paper-data="{&quot;origPos&quot;:null,&quot;origRot&quot;:0,&quot;index&quot;:null}" fill="url(#color-21)" stroke="#000000" stroke-width="3.5" stroke-linecap="butt"/><path d="M50.67817,194.57481c4.40483,5.33479 5.22417,11.93131 1.83006,14.73375c-5.16688,4.26618 -10.75512,-0.18356 -14.42289,-4.65355c-3.22367,-3.92878 -7.23067,-12.56522 -3.37308,-16.98034c2.79413,-3.19795 11.56109,1.56535 15.96589,6.90015z" data-paper-data="{&quot;origPos&quot;:null,&quot;origRot&quot;:0}" fill="url(#color-22)" stroke="#000000" stroke-width="3.5" stroke-linecap="butt"/><path d="M43.11173,204.39564c4.719,5.71533 5.59681,12.78238 1.96062,15.78473c-5.53543,4.57049 -11.52228,-0.19664 -15.45166,-4.98548c-3.45362,-4.20899 -7.74642,-13.46149 -3.61369,-18.19158c2.99341,-3.42606 12.3857,1.677 17.10473,7.39233z" data-paper-data="{&quot;origPos&quot;:null,&quot;origRot&quot;:0}" fill="url(#color-23)" stroke="#000000" stroke-width="3.5" stroke-linecap="butt"/><path d="M39.23776,235.42829c6.73265,-2.96989 13.72225,-1.90506 15.61175,2.37839c2.87642,6.52072 -3.29167,10.95755 -8.92627,13.42247c-4.95236,2.16647 -14.95025,3.77625 -18.357,-1.44707c-2.46756,-3.78334 4.93885,-11.38387 11.67149,-14.35376z" data-paper-data="{&quot;origPos&quot;:null,&quot;origRot&quot;:0}" fill="url(#color-24)" stroke="#000000" stroke-width="3.5" stroke-linecap="butt"/><path d="M60.10901,252.46778c3.21401,-5.79275 8.88458,-9.28549 12.66548,-7.80124c5.75579,2.25948 3.77676,8.60943 1.0753,13.4449c-2.37432,4.24997 -8.72275,11.15012 -14.13338,9.99326c-3.91899,-0.83792 -2.82148,-9.84417 0.39253,-15.63692z" data-paper-data="{&quot;origPos&quot;:null,&quot;origRot&quot;:0}" fill="url(#color-25)" stroke="#000000" stroke-width="3.5" stroke-linecap="butt"/><path d="M116.86377,195.07522c-3.76523,5.61626 -9.9524,8.83291 -13.81943,7.18462c-5.88683,-2.50922 -3.37979,-8.7359 -0.2173,-13.42319c2.77957,-4.11975 9.90897,-10.69509 15.5083,-9.29838c4.05568,1.01162 2.29364,9.92071 -1.47159,15.53698z" data-paper-data="{&quot;origPos&quot;:null,&quot;origRot&quot;:0}" fill="url(#color-26)" stroke="#000000" stroke-width="3.5" stroke-linecap="butt"/><path d="M62.20381,190.7298c3.37061,6.86764 3.04646,13.93507 -0.72402,15.78562c-5.73985,2.81709 -10.40946,-3.50042 -13.21132,-9.24768c-2.46262,-5.05136 -4.88669,-15.20767 -0.39258,-18.58169c3.25514,-2.44387 10.95733,5.17613 14.32794,12.04375z" data-paper-data="{&quot;origPos&quot;:null,&quot;origRot&quot;:0}" fill="url(#color-27)" stroke="#000000" stroke-width="3.5" stroke-linecap="butt"/><path d="M104.22411,189.43586c-3.7786,6.81995 -10.35815,10.89694 -14.69586,9.1062c-6.60334,-2.72604 -4.24065,-10.21647 -1.06508,-15.90921c2.79105,-5.00345 10.19586,-13.10343 16.41571,-11.68455c4.50514,1.0277 3.12385,11.66759 -0.65477,18.48756z" data-paper-data="{&quot;origPos&quot;:null,&quot;origRot&quot;:0}" fill="url(#color-28)" stroke="#000000" stroke-width="3.5" stroke-linecap="butt"/><path d="M74.82459,182.15465c2.64359,6.8596 1.27904,13.44446 -3.04782,14.70773c-6.58678,1.9231 -10.70851,-4.58326 -12.90051,-10.32141c-1.92661,-5.04339 -3.07822,-14.86755 2.24689,-17.46856c3.85705,-1.88393 11.05783,6.22263 13.70142,13.08226z" data-paper-data="{&quot;origPos&quot;:null,&quot;origRot&quot;:0}" fill="url(#color-29)" stroke="#000000" stroke-width="3.5" stroke-linecap="butt"/><path d="M36.73485,216.07751c8.62808,0 15.62251,4.44998 15.62251,9.93934c0,8.35652 -8.7166,10.19739 -15.92776,10.17525c-6.33801,-0.01945 -17.82536,-3.02372 -19.00826,-10.23936c-0.85679,-5.2264 10.68543,-9.87522 19.31349,-9.87522z" data-paper-data="{&quot;origPos&quot;:null,&quot;origRot&quot;:0}" fill="url(#color-30)" stroke="#000000" stroke-width="3.5" stroke-linecap="butt"/><path d="M125.74972,234.2891c-8.62808,0 -15.62251,-4.31445 -15.62251,-9.63663c0,-8.10199 8.7166,-9.88678 15.92776,-9.86534c6.33801,0.01885 17.82538,2.93162 19.00828,9.9275c0.85679,5.06723 -10.68543,9.57445 -19.31349,9.57445z" data-paper-data="{&quot;origPos&quot;:null,&quot;origRot&quot;:0}" fill="url(#color-31)" stroke="#000000" stroke-width="3.5" stroke-linecap="butt"/><path d="M89.93111,185.09487c0,8.62808 -3.84007,15.62251 -8.57707,15.62251c-7.21117,0 -8.79973,-8.7166 -8.78064,-15.92776c0.01676,-6.33801 2.60929,-17.82536 8.83597,-19.00826c4.51005,-0.85679 8.52175,10.68543 8.52175,19.31349z" data-paper-data="{&quot;origPos&quot;:null}" fill="url(#color-32)" stroke="#000000" stroke-width="3.5" stroke-linecap="butt"/><path d="M82.79055,187.9993c16.20623,0 44.69134,18.39116 44.72143,34.59734c0.03864,20.80223 -25.4059,34.6701 -46.18565,35.63785c-20.36273,0.94832 -45.98111,-14.78655 -46.07284,-35.17118c-0.07373,-16.38817 24.20653,-35.06401 47.53704,-35.06401z" data-paper-data="{&quot;origPos&quot;:null,&quot;origRot&quot;:0}" fill="url(#color-33)" stroke="#000000" stroke-width="4.5" stroke-linecap="butt"/><path d="M73.64938,212.96332c0.09788,6.27992 -2.82056,11.58536 -6.51852,11.84992c-3.69791,0.26461 -6.77508,-4.61184 -6.87294,-10.89176c-0.09788,-6.27992 2.82056,-11.58536 6.51852,-11.84992c3.69791,-0.26461 6.77504,4.61184 6.87292,10.89173z" data-paper-data="{&quot;origPos&quot;:null,&quot;origRot&quot;:0}" fill="#000000" stroke="none" stroke-width="0" stroke-linecap="butt"/><path d="M103.48944,213.23285c0.09788,6.27992 -2.82056,11.58536 -6.51852,11.84992c-3.69791,0.26461 -6.77508,-4.61184 -6.87294,-10.89176c-0.09788,-6.27992 2.82056,-11.58536 6.51852,-11.84992c3.69791,-0.26461 6.77504,4.61184 6.87292,10.89173z" data-paper-data="{&quot;origPos&quot;:null,&quot;origRot&quot;:0}" fill="#000000" stroke="none" stroke-width="0" stroke-linecap="butt"/><path d="M112.37223,234.07233c0,0 -18.80103,8.37888 -31.43545,7.73332c-12.46109,-0.6367 -29.11372,-7.73332 -29.11372,-7.73332" data-paper-data="{&quot;origPos&quot;:null}" fill="none" stroke="#000000" stroke-width="2.5" stroke-linecap="round"/><path d="M68.37811,209.78609c0.0397,2.54633 -1.14366,4.69756 -2.64308,4.80482c-1.49942,0.10728 -2.74711,-1.86998 -2.78679,-4.41631c-0.0397,-2.54633 1.14366,-4.69756 2.64308,-4.80482c1.49942,-0.10728 2.74711,1.86998 2.78679,4.41631z" data-paper-data="{&quot;origPos&quot;:null,&quot;origRot&quot;:0}" fill="#ffffff" stroke="none" stroke-width="0" stroke-linecap="butt"/><path d="M97.71997,210.02721c0.0397,2.54633 -1.14366,4.69756 -2.64308,4.80482c-1.49942,0.10728 -2.74711,-1.86998 -2.78679,-4.41631c-0.0397,-2.54633 1.14366,-4.69756 2.64308,-4.80482c1.49942,-0.10728 2.74711,1.86998 2.78679,4.41631z" data-paper-data="{&quot;origPos&quot;:null,&quot;origRot&quot;:0}" fill="#ffffff" stroke="none" stroke-width="0" stroke-linecap="butt"/><path d="M269.54751,271.53346c-1.25188,3.67184 -0.28885,2.38319 -2.03912,5.84528c-1.55933,3.08443 -2.52104,5.91564 -4.49431,7.57766c-0.65776,0.554 -3.41884,5.94192 -4.06393,6.51064c-3.35299,2.95594 -4.94951,6.44817 -8.81591,8.6912c-6.00017,3.4809 -12.1852,5.89986 -19.01796,7.09658c-12.01093,2.10363 -18.66062,-0.49605 -30.202,-4.43098c-9.5283,-3.24859 -14.56126,-5.60714 -22.03596,-12.35039c-3.43696,-3.10064 -6.10903,-3.8351 -7.86749,-8.11696c-1.289,-3.13873 -3.68308,-5.54316 -4.6791,-8.78679c-1.75415,-5.71265 -0.75363,-8.40564 -1.64635,-14.31448c-0.93319,-6.17669 1.08714,-8.73424 2.8282,-14.7335c0.46354,-1.59721 2.34707,-7.1833 2.88376,-8.75745c1.50845,-4.42437 2.34157,-6.27825 4.61922,-10.36026c3.49105,-6.25667 6.31361,-9.9556 10.44688,-15.80789c3.7488,-5.30792 4.89273,-8.54675 9.1635,-13.44449c2.70081,-3.0973 2.34736,-4.77852 5.31977,-7.61618c4.10968,-3.92337 8.13014,-5.75798 13.17142,-8.37865c2.9841,-1.55126 3.74491,-3.30812 6.88471,-4.5135c8.69573,-3.33835 15.50662,-3.15357 24.32284,-0.14776c0,0 12.56933,6.21512 17.85723,12.83308c8.10533,10.14406 9.96616,19.45524 11.86092,32.30082c2.83268,19.20434 7.49142,15.74335 -4.4963,50.90409z" data-paper-data="{&quot;origPos&quot;:null,&quot;origRot&quot;:0}" fill="url(#color-34)" stroke="#000000" stroke-width="5" stroke-linecap="butt"/><path d="M194.91786,297.11672c0,0 -11.45615,-39.24455 -3.13531,-61.09198c4.97643,-13.06621 20.73163,-44.29627 33.54365,-50.31816c15.89339,-7.47016 28.96911,0.64795 28.96911,0.64795" data-paper-data="{&quot;origPos&quot;:null,&quot;origRot&quot;:0}" fill="none" stroke="#9f6f2c" stroke-width="5" stroke-linecap="round"/><path d="M216.14395,217.56971c2.15448,-6.31923 9.02376,-9.69541 15.34299,-7.54093c6.31923,2.15448 9.69541,9.02376 7.54093,15.34299c-2.15448,6.31923 -9.02376,9.69541 -15.34299,7.54093c-6.31923,-2.15448 -9.69541,-9.02376 -7.54093,-15.34299z" data-paper-data="{&quot;origPos&quot;:null,&quot;origRot&quot;:0}" fill="#ffffff" stroke="#000000" stroke-width="1.5" stroke-linecap="butt"/><path d="M249.27587,223.86218c1.65729,-4.86093 6.94136,-7.458 11.80229,-5.80071c4.86093,1.65729 7.458,6.94136 5.80071,11.80229c-1.65729,4.86093 -6.94136,7.458 -11.80229,5.80071c-4.86093,-1.65729 -7.458,-6.94136 -5.80071,-11.80229z" data-paper-data="{&quot;origPos&quot;:null,&quot;origRot&quot;:0}" fill="#ffffff" stroke="#000000" stroke-width="1.5" stroke-linecap="butt"/><path d="M246.83538,244.73543c0,0 -4.97132,2.65515 -8.26412,2.22068c-2.8224,-0.37238 -7.40531,-4.28815 -7.40531,-4.28815" data-paper-data="{&quot;origPos&quot;:null,&quot;origRot&quot;:0}" fill="none" stroke="#000000" stroke-width="1.5" stroke-linecap="round"/><path d="M229.15291,218.37574c0.41677,-1.2224 1.7456,-1.87551 2.96799,-1.45874c1.2224,0.41677 1.87551,1.7456 1.45874,2.96799c-0.41677,1.2224 -1.7456,1.87551 -2.96799,1.45874c-1.2224,-0.41677 -1.87551,-1.7456 -1.45874,-2.96799z" data-paper-data="{&quot;origPos&quot;:null,&quot;origRot&quot;:0}" fill="#000000" stroke="none" stroke-width="0.5" stroke-linecap="butt"/><path d="M257.54456,224.47077c0.41677,-1.2224 1.7456,-1.87551 2.96799,-1.45874c1.2224,0.41677 1.87551,1.7456 1.45874,2.96799c-0.41677,1.2224 -1.7456,1.87551 -2.96799,1.45874c-1.2224,-0.41677 -1.87551,-1.7456 -1.45874,-2.96799z" data-paper-data="{&quot;origPos&quot;:null,&quot;origRot&quot;:0}" fill="#000000" stroke="none" stroke-width="0.5" stroke-linecap="butt"/><text transform="translate(388.00003,353.96727) scale(0.31324,0.31324)" font-size="40" xml:space="preserve" data-paper-data="{&quot;origPos&quot;:null}" fill="#ffffff" fill-rule="nonzero" stroke="none" stroke-width="1" stroke-linecap="butt" stroke-linejoin="miter" stroke-miterlimit="10" stroke-dasharray="" stroke-dashoffset="0" font-family="Sans Serif" font-weight="normal" text-anchor="start" style="mix-blend-mode: normal"><tspan x="0" dy="0">v. 1.6.1 (Demo)</tspan></text><g data-paper-data="{&quot;origPos&quot;:null}" id="Group-4" fill="#ff2ef0" stroke="#ff2ef0" stroke-width="2" stroke-linecap="butt"><path d="M146.06984,185.64339l5.56275,21.3983" id="Shape"/><path d="M167.54938,202.90007l-5.56274,-21.3983" id="Shape"/><path d="M145.93221,185.05239l15.91351,-4.14526l1.02342,3.92925l-15.91351,4.14526z" id="Rectangle-path"/><path d="M167.37193,202.82413c0.01056,-1.12067 0.47486,-2.1313 1.2167,-2.85933c0.74184,-0.72803 1.7612,-1.17325 2.88187,-1.16269c1.12047,0.01056 2.1313,0.47486 2.85933,1.2167c0.72782,0.74184 1.17305,1.7612 1.16249,2.88187c-0.01056,1.12067 -0.47486,2.1313 -1.2167,2.85933c-0.74184,0.72803 -1.7612,1.17325 -2.88166,1.1627c-1.12067,-0.01056 -2.13151,-0.47507 -2.85954,-1.2167c-0.72782,-0.74184 -1.17305,-1.7612 -1.16249,-2.88187z" id="Oval"/><path d="M151.46553,206.99191c0.01056,-1.12067 0.47486,-2.13151 1.2167,-2.85954c0.74184,-0.72782 1.7612,-1.17305 2.88166,-1.16249c1.12067,0.01056 2.13151,0.47486 2.85954,1.2167c0.72782,0.74184 1.17305,1.7612 1.16249,2.88187c-0.01056,1.12047 -0.47486,2.1313 -1.2167,2.85933c-0.74184,0.72782 -1.7612,1.17305 -2.88187,1.16249c-1.12047,-0.01056 -2.1313,-0.47486 -2.85933,-1.2167c-0.72782,-0.74184 -1.17305,-1.7612 -1.16249,-2.88166z" id="Oval"/></g><g data-paper-data="{&quot;origPos&quot;:null,&quot;origRot&quot;:0}" id="Group-2" fill="#ffe800" stroke="#ffe800" stroke-width="4" stroke-linecap="butt"><path d="M26.20557,295.56716c0.09881,-2.00549 1.00264,-3.78198 2.38268,-5.0324c1.38012,-1.25006 3.23715,-1.97419 5.24264,-1.87538c2.00186,0.09918 3.77828,1.00266 5.03212,2.38311c1.25041,1.38004 1.97454,3.23708 1.87538,5.24264c-0.09924,2.00521 -1.00271,3.78163 -2.38311,5.03212c-1.38382,1.25009 -3.2405,1.97414 -5.24229,1.87531c-2.00557,-0.09916 -3.78198,-1.00264 -5.03247,-2.38304c-1.25006,-1.38012 -1.97411,-3.23679 -1.87495,-5.24236z" id="Oval"/><path d="M17.0545,253.24067l9.55907,43.56406" id="Shape"/><path d="M10.84203,280.23831c-3.70017,-5.90835 -3.70061,-13.41281 0.00381,-19.31945c1.62882,-2.76765 3.59519,-5.32299 5.85246,-7.60432l1.47805,7.12358c-2.6139,1.99496 -4.8234,4.47072 -6.51103,7.29515c-1.43797,4.00977 -1.7243,8.34157 -0.82329,12.50504z" id="Shape"/></g><path d="M284.77106,293.79688c0,0 2.48506,-4.11191 4.78867,-6.10992c2.43046,-2.10806 7.34179,-4.41139 7.34179,-4.41139" data-paper-data="{&quot;origPos&quot;:null}" fill="none" stroke="#989898" stroke-width="1" stroke-linecap="round"/><path d="M-24.29761,16.00001c0,-22.25578 18.04185,-40.29763 40.29763,-40.29763c22.25578,0 40.29765,18.04185 40.29765,40.29763c0,22.25578 -18.04187,40.29765 -40.29765,40.29765c-22.25578,0 -40.29763,-18.04187 -40.29763,-40.29765z" data-paper-data="{&quot;origPos&quot;:null}" fill="url(#color-35)" stroke="#dcdcdc" stroke-width="2" stroke-linecap="butt"/><path d="M346.64885,128.17164l2.39866,-8.5681c0,0 8.75777,-0.75567 9.89229,-3.90668c3.2812,-9.11303 21.38331,-59.02289 34.86444,-96.87401c0.52851,-1.48392 2.19686,-2.07745 2.69138,-0.14327c9.81213,38.37815 22.10846,86.47273 25.14238,98.33921c0.95697,3.74295 10.18321,5.80608 10.18321,5.80608l3.44671,9.47763z" data-paper-data="{&quot;origPos&quot;:null,&quot;origRot&quot;:0}" fill="url(#color-36)" stroke="#000000" stroke-width="4" stroke-linecap="butt"/><text transform="translate(256.66706,71.58549) rotate(2.98271) scale(0.8429,0.8429)" font-size="40" xml:space="preserve" data-paper-data="{&quot;origPos&quot;:null,&quot;origRot&quot;:2.98251}" fill="#000000" fill-rule="nonzero" stroke="none" stroke-width="1" stroke-linecap="butt" stroke-linejoin="miter" stroke-miterlimit="10" stroke-dasharray="" stroke-dashoffset="0" font-family="Sans Serif" font-weight="normal" text-anchor="start" style="mix-blend-mode: normal"><tspan x="0" dy="0">Zombies</tspan></text><text transform="translate(255.66708,69.58549) rotate(2.98271) scale(0.8429,0.8429)" font-size="40" xml:space="preserve" data-paper-data="{&quot;origPos&quot;:null,&quot;origRot&quot;:2.98251}" fill="#c1c1c1" fill-rule="nonzero" stroke="none" stroke-width="1" stroke-linecap="butt" stroke-linejoin="miter" stroke-miterlimit="10" stroke-dasharray="" stroke-dashoffset="0" font-family="Sans Serif" font-weight="normal" text-anchor="start" style="mix-blend-mode: normal"><tspan x="0" dy="0">Zombies</tspan></text></g></g></svg>