<svg version="1.1" xmlns="http://www.w3.org/2000/svg" xmlns:xlink="http://www.w3.org/1999/xlink" width="53.44415" height="64.14671" viewBox="0,0,53.44415,64.14671"><g transform="translate(-210.6385,-142.65504)"><g data-paper-data="{&quot;isPaintingLayer&quot;:true}" fill="none" fill-rule="nonzero" stroke="none" stroke-width="none" stroke-linecap="butt" stroke-linejoin="miter" stroke-miterlimit="10" stroke-dasharray="" stroke-dashoffset="0" font-family="none" font-weight="none" font-size="none" text-anchor="none" style="mix-blend-mode: normal"><path d="M230.88219,191.82182c4.65688,0.99311 8.04649,3.60599 7.57092,5.83605c-0.47558,2.23006 -4.63626,3.23279 -9.29312,2.23968c-4.65688,-0.99311 -7.5709,-5.83605 -7.5709,-5.83605c0,0 4.63624,-3.2328 9.2931,-2.23969z" data-paper-data="{&quot;origRot&quot;:0,&quot;origPos&quot;:null,&quot;index&quot;:null}" fill="#2bd900" stroke="#000000" stroke-width="1.5"/><path d="M256.55728,197.22044c0,0 -4.15784,3.82857 -8.90611,3.47264c-4.74828,-0.35594 -8.45934,-2.48775 -8.2889,-4.76158c0.17044,-2.27383 4.15786,-3.82858 8.90612,-3.47265c4.74828,0.35594 8.28889,4.76159 8.28889,4.76159z" data-paper-data="{&quot;origRot&quot;:0,&quot;origPos&quot;:null,&quot;index&quot;:null}" fill="#2bd900" stroke="#000000" stroke-width="1.5"/><path d="M238.54716,197.97972c0,0 -2.19826,-6.77056 -2.96158,-11.13883c-0.60262,-3.44864 -0.53849,-8.891 -0.53849,-8.891l4.43283,-0.7746c0,0 -0.90012,4.53123 -0.38589,7.47407c0.85171,4.87406 3.88596,12.55577 3.88596,12.55577z" data-paper-data="{&quot;origPos&quot;:null,&quot;origRot&quot;:0}" fill="#a9ff59" stroke="#000000" stroke-width="2"/><path d="M218.59318,147.0241c2.46233,3.28946 3.18146,6.912 1.60623,8.09113c-1.57523,1.17915 -4.84833,-0.53161 -7.31066,-3.82108c-2.46233,-3.28946 -1.60623,-8.09113 -1.60623,-8.09113c0,0 4.84833,0.53161 7.31066,3.82108z" data-paper-data="{&quot;origRot&quot;:0,&quot;origPos&quot;:null}" fill="#2fe500" stroke="#000000" stroke-width="1"/><path d="M240.48002,180.81948c0,1.77518 -1.51132,3.21422 -3.37564,3.21422c-1.86432,0 -3.37563,-1.43905 -3.37563,-3.21422c0,-1.77518 1.51132,-3.21422 3.37563,-3.21422c1.86432,0 3.37564,1.43905 3.37564,3.21422z" data-paper-data="{&quot;origPos&quot;:null}" fill="#a9ff59" stroke="#000000" stroke-width="0.5"/><path d="M254.31835,163.97026c0,8.78187 -8.21877,15.90098 -18.35715,15.90098c-10.13837,0 -18.35715,-7.11911 -18.35715,-15.90098c0,-8.78187 8.21877,-15.90097 18.35715,-15.90097c10.13837,0 18.35715,7.11911 18.35715,15.90097z" data-paper-data="{&quot;origPos&quot;:null}" fill="#a9ff59" stroke="#000000" stroke-width="3"/><path d="M241.29378,158.88494c0.63467,2.1835 0.12291,4.31513 -1.14306,4.76112c-1.26596,0.44599 -2.80674,-0.96254 -3.44141,-3.14604c-0.63467,-2.1835 -0.12291,-4.31513 1.14306,-4.76112c1.26596,-0.44599 2.80673,0.96254 3.4414,3.14604z" data-paper-data="{&quot;origPos&quot;:null,&quot;origRot&quot;:0}" fill="#000000" stroke="none" stroke-width="0"/><path d="M247.33039,158.09141c0.4781,1.64486 0.09259,3.25062 -0.86107,3.58659c-0.95367,0.33597 -2.11433,-0.72509 -2.59243,-2.36995c-0.4781,-1.64486 -0.0926,-3.25062 0.86107,-3.58659c0.95367,-0.33597 2.11434,0.72509 2.59244,2.36995z" data-paper-data="{&quot;origPos&quot;:null,&quot;origRot&quot;:0}" fill="#000000" stroke="none" stroke-width="0"/><path d="M262.97871,169.3054c-0.56287,5.68305 -4.15618,9.99226 -8.0259,9.62487c-3.86972,-0.36739 -6.55045,-5.27224 -5.98758,-10.9553c0.56287,-5.68305 4.15619,-9.99226 8.0259,-9.62487c3.86971,0.36739 6.55044,5.27225 5.98757,10.9553z" data-paper-data="{&quot;origPos&quot;:null,&quot;origRot&quot;:0}" fill="#a9ff59" stroke="#000000" stroke-width="2"/><path d="M254.95966,168.4152c-0.23084,2.80439 -1.54152,4.98914 -2.9275,4.87979c-1.38597,-0.10935 -2.3224,-2.47142 -2.09156,-5.2758c0.23084,-2.80438 1.54152,-4.98914 2.92749,-4.87978c1.38597,0.10935 2.32241,2.47141 2.09157,5.2758z" data-paper-data="{&quot;origRot&quot;:0,&quot;origPos&quot;:null}" fill="#84c746" stroke="none" stroke-width="0"/><path d="M230.36441,195.90347c5.11262,-1.02015 9.65324,0.13758 10.14178,2.58589c0.48852,2.44829 -3.26005,5.26002 -8.37267,6.28018c-5.11262,1.02015 -10.14177,-2.58589 -10.14177,-2.58589c0,0 3.26004,-5.26003 8.37266,-6.28018z" data-paper-data="{&quot;origRot&quot;:0,&quot;origPos&quot;:null}" fill="#2fe500" stroke="#000000" stroke-width="2"/><path d="M256.09603,204.67453c0,0 -5.71375,2.37668 -10.46376,0.22793c-4.74999,-2.14876 -7.76648,-5.73462 -6.73749,-8.00927c1.02898,-2.27464 5.71377,-2.3767 10.46377,-0.22794c4.74999,2.14876 6.73748,8.00928 6.73748,8.00928z" data-paper-data="{&quot;origRot&quot;:0,&quot;origPos&quot;:null,&quot;index&quot;:null}" fill="#2fe500" stroke="#000000" stroke-width="2"/></g></g></svg>