<svg version="1.1" xmlns="http://www.w3.org/2000/svg" xmlns:xlink="http://www.w3.org/1999/xlink" width="54.19019" height="65.21099"><defs><linearGradient x1="265.4948" y1="173.36936" x2="257.35198" y2="166.72767" gradientUnits="userSpaceOnUse" id="color-1"><stop offset="0" stop-color="#fff987"/><stop offset="1" stop-color="#fff300"/></linearGradient><linearGradient x1="267.86092" y1="155.39293" x2="257.79081" y2="161.37942" gradientUnits="userSpaceOnUse" id="color-2"><stop offset="0" stop-color="#fff987"/><stop offset="1" stop-color="#fff300"/></linearGradient><linearGradient x1="264.48465" y1="149.69026" x2="256.96401" y2="157.6021" gradientUnits="userSpaceOnUse" id="color-3"><stop offset="0" stop-color="#fff987"/><stop offset="1" stop-color="#fff300"/></linearGradient><linearGradient x1="228.14314" y1="178.48578" x2="235.36445" y2="170.84519" gradientUnits="userSpaceOnUse" id="color-4"><stop offset="0" stop-color="#fff987"/><stop offset="1" stop-color="#fff300"/></linearGradient><linearGradient x1="260.63382" y1="177.88502" x2="253.88273" y2="169.31791" gradientUnits="userSpaceOnUse" id="color-5"><stop offset="0" stop-color="#fff987"/><stop offset="1" stop-color="#fff300"/></linearGradient><linearGradient x1="225.71874" y1="148.10963" x2="232.48226" y2="156.75129" gradientUnits="userSpaceOnUse" id="color-6"><stop offset="0" stop-color="#fff987"/><stop offset="1" stop-color="#fff300"/></linearGradient><linearGradient x1="222.05033" y1="151.89976" x2="229.29629" y2="161.15782" gradientUnits="userSpaceOnUse" id="color-7"><stop offset="0" stop-color="#fff987"/><stop offset="1" stop-color="#fff300"/></linearGradient><linearGradient x1="253.8622" y1="181.32953" x2="248.27727" y2="171.99202" gradientUnits="userSpaceOnUse" id="color-8"><stop offset="0" stop-color="#fff987"/><stop offset="1" stop-color="#fff300"/></linearGradient><linearGradient x1="222.34248" y1="172.96779" x2="233.14117" y2="168.5375" gradientUnits="userSpaceOnUse" id="color-9"><stop offset="0" stop-color="#fff987"/><stop offset="1" stop-color="#fff300"/></linearGradient><linearGradient x1="235.1284" y1="180.61397" x2="240.46472" y2="171.5618" gradientUnits="userSpaceOnUse" id="color-10"><stop offset="0" stop-color="#fff987"/><stop offset="1" stop-color="#fff300"/></linearGradient><linearGradient x1="259.61717" y1="145.63779" x2="253.41412" y2="154.38727" gradientUnits="userSpaceOnUse" id="color-11"><stop offset="0" stop-color="#fff987"/><stop offset="1" stop-color="#fff300"/></linearGradient><linearGradient x1="231.15478" y1="144.66599" x2="236.21487" y2="155.69535" gradientUnits="userSpaceOnUse" id="color-12"><stop offset="0" stop-color="#fff987"/><stop offset="1" stop-color="#fff300"/></linearGradient><linearGradient x1="254.15034" y1="142.04971" x2="247.87623" y2="152.70725" gradientUnits="userSpaceOnUse" id="color-13"><stop offset="0" stop-color="#fff987"/><stop offset="1" stop-color="#fff300"/></linearGradient><linearGradient x1="236.66082" y1="140.83613" x2="240.56843" y2="151.82261" gradientUnits="userSpaceOnUse" id="color-14"><stop offset="0" stop-color="#fff987"/><stop offset="1" stop-color="#fff300"/></linearGradient><linearGradient x1="243.27991" y1="182.81068" x2="243.63738" y2="169.12952" gradientUnits="userSpaceOnUse" id="color-15"><stop offset="0" stop-color="#fff987"/><stop offset="1" stop-color="#fff300"/></linearGradient><linearGradient x1="218.55866" y1="163.28759" x2="232.23983" y2="163.64506" gradientUnits="userSpaceOnUse" id="color-16"><stop offset="0" stop-color="#fff987"/><stop offset="1" stop-color="#fff300"/></linearGradient><linearGradient x1="269.77688" y1="164.06241" x2="256.09571" y2="163.70495" gradientUnits="userSpaceOnUse" id="color-17"><stop offset="0" stop-color="#fff987"/><stop offset="1" stop-color="#fff300"/></linearGradient><linearGradient x1="244.8368" y1="139.83567" x2="244.47933" y2="153.51683" gradientUnits="userSpaceOnUse" id="color-18"><stop offset="0" stop-color="#fff987"/><stop offset="1" stop-color="#fff300"/></linearGradient><linearGradient x1="244.62829" y1="148.26849" x2="243.8705" y2="177.27081" gradientUnits="userSpaceOnUse" id="color-19"><stop offset="0" stop-color="#eeb054"/><stop offset="1" stop-color="#d27700"/></linearGradient></defs><g transform="translate(-217.07268,-138.34959)"><g data-paper-data="{&quot;isPaintingLayer&quot;:true}" fill="none" fill-rule="nonzero" stroke="none" stroke-width="none" stroke-linecap="none" stroke-linejoin="miter" stroke-miterlimit="10" stroke-dasharray="" stroke-dashoffset="0" font-family="none" font-weight="none" font-size="none" text-anchor="none" style="mix-blend-mode: normal"><path d="M252.93344,196.39802c-0.01856,2.47718 -10.5375,2.39838 -10.51894,-0.07881c0.01856,-2.47718 2.38834,-4.46769 5.29307,-4.44593c2.90473,0.02176 5.24442,2.04755 5.22586,4.52473z" data-paper-data="{&quot;origPos&quot;:null,&quot;origRot&quot;:0}" fill="#26c000" stroke="#000000" stroke-width="2" stroke-linecap="butt"/><path d="M245.17182,196.16974c-0.01856,2.47718 -10.5375,2.39838 -10.51894,-0.07881c0.01856,-2.47718 2.38834,-4.46769 5.29307,-4.44593c2.90472,0.02176 5.24442,2.04755 5.22586,4.52473z" data-paper-data="{&quot;origPos&quot;:null,&quot;origRot&quot;:0}" fill="#26c000" stroke="#000000" stroke-width="2" stroke-linecap="butt"/><path d="M241.65126,195.2808l-1.08694,-7.33146c0,0 -3.43401,0.18623 -4.71767,0.18283c-0.9604,-0.00255 -2.42551,-4.35211 -2.42551,-4.35211c0,0 2.85156,-0.77166 4.102,-0.27445c1.48516,0.59055 2.64442,2.1974 2.64442,2.1974c0,0 0.22811,-0.05091 0.24341,-0.63666c0.09957,-3.81065 1.76128,-9.72498 1.76128,-9.72498l3.76538,0.09838c0,0 -1.79628,5.82059 -1.88747,9.31064c-0.01814,0.69415 0.05269,0.95701 0.05269,0.95701c0,0 2.60683,-1.87555 3.69106,-2.05352c1.37763,-0.22613 3.75926,0.82033 3.75926,0.82033c0,0 -2.15552,3.31921 -3.49936,3.76262c-1.08952,0.35949 -3.80174,-0.07462 -3.80174,-0.07462l1.16458,7.21698z" data-paper-data="{&quot;origPos&quot;:null,&quot;origRot&quot;:0}" fill="#2fe500" stroke="#000000" stroke-width="1.5" stroke-linecap="butt"/><path d="M243.23542,197.90402c0.25541,2.73415 -11.86836,4.24671 -12.12377,1.51257c-0.25541,-2.73415 2.6502,-5.62143 5.85625,-5.92091c3.20605,-0.29948 6.01211,1.6742 6.26752,4.40835z" data-paper-data="{&quot;origPos&quot;:null,&quot;origRot&quot;:0}" fill="#2fe500" stroke="#000000" stroke-width="2" stroke-linecap="butt"/><path d="M256.0693,199.29058c0,2.688 -12.27022,2.43118 -12.27022,-0.25682c0,-2.688 2.55515,-4.86705 5.70708,-4.86705c3.15193,0 6.56315,2.43587 6.56315,5.12387z" data-paper-data="{&quot;origPos&quot;:null}" fill="#2fe500" stroke="#000000" stroke-width="2" stroke-linecap="butt"/><path d="M251.33242,200.30266c0,3.01056 -12.78387,3.01056 -12.78387,0c0,-3.01056 2.86177,-5.4511 6.39193,-5.4511c3.53016,0 6.39193,2.44054 6.39193,5.4511z" data-paper-data="{&quot;origPos&quot;:null}" fill="#2fe500" stroke="#000000" stroke-width="2" stroke-linecap="butt"/><path d="M265.94753,173.71358c-1.89714,1.27211 -5.38769,-0.40103 -6.94882,-1.66677c-1.77619,-1.4401 -3.50736,-3.57145 -1.64675,-5.31915c1.22222,-1.14806 3.93108,-0.67742 6.05037,1.05118c2.1193,1.72861 3.91931,5.01331 2.54519,5.93473z" data-paper-data="{&quot;origPos&quot;:null,&quot;origRot&quot;:0,&quot;index&quot;:null}" fill="url(#color-1)" stroke="#000000" stroke-width="1.5" stroke-linecap="butt"/><path d="M268.39132,155.05146c0.97298,2.36762 -1.96177,5.33887 -3.88346,6.4892c-2.18642,1.30881 -5.1741,2.33332 -6.71706,-0.16125c-1.01355,-1.63868 0.28947,-4.23016 2.91037,-5.78824c2.62091,-1.55807 6.98539,-2.25461 7.69013,-0.53971z" data-paper-data="{&quot;origPos&quot;:null,&quot;origRot&quot;:0,&quot;index&quot;:null}" fill="url(#color-2)" stroke="#000000" stroke-width="1.5" stroke-linecap="butt"/><path d="M263.14783,155.51211c-1.95737,2.05918 -4.72596,2.9949 -6.18382,2.08999c-2.21933,-1.37756 -0.73077,-3.76134 0.91102,-5.4787c1.44302,-1.50942 4.84691,-3.75576 7.0316,-2.84859c1.5824,0.65709 0.19857,4.17811 -1.75881,6.2373z" data-paper-data="{&quot;origPos&quot;:null,&quot;origRot&quot;:0}" fill="url(#color-3)" stroke="#000000" stroke-width="1" stroke-linecap="butt"/><path d="M229.67059,172.28075c1.87946,-1.98859 4.42868,-2.63129 5.69386,-1.43555c1.92599,1.8203 0.45153,4.23029 -1.12437,5.88748c-1.3851,1.45654 -4.57981,3.4497 -6.50053,2.15054c-1.39121,-0.941 0.05159,-4.61389 1.93104,-6.60246z" data-paper-data="{&quot;origPos&quot;:null,&quot;origRot&quot;:0}" fill="url(#color-4)" stroke="#000000" stroke-width="1.5" stroke-linecap="butt"/><path d="M261.01636,178.33718c-2.38293,0.72237 -5.61413,-1.81823 -6.91063,-3.45337c-1.47509,-1.8604 -2.70372,-4.37528 -0.22301,-5.56589c1.62956,-0.7821 4.37499,0.39142 6.13207,2.62114c1.75708,2.22972 2.72756,5.87491 1.00158,6.39812z" data-paper-data="{&quot;origPos&quot;:null,&quot;origRot&quot;:0,&quot;index&quot;:null}" fill="url(#color-5)" stroke="#000000" stroke-width="1.5" stroke-linecap="butt"/><path d="M231.88587,150.65105c1.76031,2.24913 2.02732,4.98029 0.59638,6.10024c-2.17833,1.7049 -4.43658,-0.19173 -5.90204,-2.07601c-1.28802,-1.65614 -2.84855,-5.26354 -1.20895,-7.04403c1.1876,-1.28964 4.75429,0.77067 6.5146,3.0198z" data-paper-data="{&quot;origPos&quot;:null,&quot;origRot&quot;:0}" fill="url(#color-6)" stroke="#000000" stroke-width="1.5" stroke-linecap="butt"/><path d="M228.65736,154.62245c1.88587,2.40956 2.17193,5.33554 0.63893,6.53538c-2.33371,1.82652 -4.75304,-0.2054 -6.32303,-2.22408c-1.3799,-1.77426 -3.05173,-5.63898 -1.29518,-7.54649c1.2723,-1.38163 5.0934,0.82564 6.97928,3.2352z" data-paper-data="{&quot;origPos&quot;:null,&quot;origRot&quot;:0}" fill="url(#color-7)" stroke="#000000" stroke-width="1.5" stroke-linecap="butt"/><path d="M254.18394,181.8257c-2.56463,0.41074 -5.48473,-2.51514 -6.55886,-4.29833c-1.2221,-2.02885 -2.08713,-4.67381 0.65219,-5.53535c1.79946,-0.56594 4.43655,0.94537 5.89012,3.37561c1.45357,2.43024 1.87415,6.16057 0.01654,6.45808z" data-paper-data="{&quot;origPos&quot;:null,&quot;origRot&quot;:0,&quot;index&quot;:null}" fill="url(#color-8)" stroke="#000000" stroke-width="1.5" stroke-linecap="butt"/><path d="M226.72398,167.38762c2.81054,-1.15305 5.68361,-0.63823 6.4172,1.14989c1.11676,2.72207 -1.4766,4.4866 -3.82854,5.4431c-2.06716,0.84068 -6.21057,1.39722 -7.56019,-0.79514c-0.97755,-1.58796 2.16098,-4.64478 4.97151,-5.79783z" data-paper-data="{&quot;origPos&quot;:null,&quot;origRot&quot;:0}" fill="url(#color-9)" stroke="#000000" stroke-width="1.5" stroke-linecap="butt"/><path d="M235.15364,174.64474c1.38886,-2.35597 3.76672,-3.73625 5.31107,-3.08294c2.35101,0.99454 1.4658,3.59377 0.29879,5.5602c-1.02569,1.72833 -3.72004,4.50751 -5.9405,3.97174c-1.6083,-0.38806 -1.05825,-4.09304 0.33061,-6.449z" data-paper-data="{&quot;origPos&quot;:null,&quot;origRot&quot;:0}" fill="url(#color-10)" stroke="#000000" stroke-width="1.5" stroke-linecap="butt"/><path d="M259.19476,151.57125c-1.61444,2.27719 -4.20252,3.53796 -5.78065,2.81602c-2.40239,-1.09901 -1.30061,-3.64168 0.05506,-5.54199c1.19153,-1.67022 4.20468,-4.30694 6.50042,-3.67014c1.66284,0.46122 0.83959,4.11894 -0.77485,6.39612z" data-paper-data="{&quot;origPos&quot;:null,&quot;origRot&quot;:0}" fill="url(#color-11)" stroke="#000000" stroke-width="1" stroke-linecap="butt"/><path d="M236.68388,149.18854c1.31697,2.87057 1.10699,5.78375 -0.46901,6.5068c-2.39917,1.1007 -4.25816,-1.55684 -5.35249,-3.95891c-0.96183,-2.11121 -1.85272,-6.32878 0.03835,-7.67276c1.36972,-0.97347 4.46619,2.2543 5.78316,5.12486z" data-paper-data="{&quot;origPos&quot;:null,&quot;origRot&quot;:0}" fill="url(#color-12)" stroke="#000000" stroke-width="1.5" stroke-linecap="butt"/><path d="M254.03928,149.10764c-1.63294,2.77379 -4.39223,4.38539 -6.16306,3.59959c-2.69576,-1.19622 -1.63992,-4.26199 -0.268,-6.57709c1.2058,-2.03479 4.34905,-5.29774 6.90063,-4.64511c1.84815,0.4727 1.16338,4.84881 -0.46957,7.62262z" data-paper-data="{&quot;origPos&quot;:null,&quot;origRot&quot;:0}" fill="url(#color-13)" stroke="#000000" stroke-width="1.5" stroke-linecap="butt"/><path d="M241.98484,145.78572c1.01702,2.85941 0.38288,5.56222 -1.4164,6.0369c-2.73905,0.72262 -4.3699,-2.00694 -5.21265,-4.39867c-0.74072,-2.10214 -1.11004,-6.16892 1.11564,-7.18491c1.61209,-0.73589 4.49638,2.68727 5.5134,5.54669z" data-paper-data="{&quot;origPos&quot;:null,&quot;origRot&quot;:0}" fill="url(#color-14)" stroke="#000000" stroke-width="1.5" stroke-linecap="butt"/><path d="M239.36703,175.46963c0.09304,-3.56074 2.00493,-6.39931 4.27035,-6.34011c3.44867,0.09011 4.11439,3.70723 4.0275,6.68299c-0.07637,2.61544 -1.44008,7.32378 -4.43067,7.73415c-2.16613,0.29723 -3.96021,-4.51628 -3.86717,-8.07701z" data-paper-data="{&quot;origPos&quot;:null,&quot;origRot&quot;:0}" fill="url(#color-15)" stroke="#000000" stroke-width="1.5" stroke-linecap="butt"/><path d="M225.89971,159.3747c3.56074,0.09304 6.39931,2.00493 6.34011,4.27035c-0.09011,3.44867 -3.70723,4.11439 -6.68299,4.0275c-2.61544,-0.07637 -7.32378,-1.44008 -7.73415,-4.43067c-0.29723,-2.16613 4.51628,-3.96021 8.07701,-3.86717z" data-paper-data="{&quot;origPos&quot;:null,&quot;origRot&quot;:0}" fill="url(#color-16)" stroke="#000000" stroke-width="1.5" stroke-linecap="butt"/><path d="M262.43909,167.85036c-3.56074,-0.09304 -6.40077,-1.949 -6.34338,-4.14542c0.08736,-3.34363 3.70388,-3.98621 6.67964,-3.8996c2.61544,0.07612 7.32479,1.40207 7.73752,4.30197c0.29895,2.10045 -4.51304,3.83608 -8.07377,3.74304z" data-paper-data="{&quot;origPos&quot;:null,&quot;origRot&quot;:0}" fill="url(#color-17)" stroke="#000000" stroke-width="1.5" stroke-linecap="butt"/><path d="M248.18747,147.16202c-0.09304,3.56074 -1.75323,6.40588 -3.70815,6.3548c-2.97599,-0.07776 -3.53759,-3.69216 -3.45195,-6.66795c0.07526,-2.61547 1.26904,-7.32825 3.8515,-7.74928c1.8705,-0.30496 3.40164,4.50169 3.3086,8.06242z" data-paper-data="{&quot;origPos&quot;:null,&quot;origRot&quot;:0}" fill="url(#color-18)" stroke="#000000" stroke-width="1.5" stroke-linecap="butt"/><path d="M245.20931,148.28367c6.68819,0.17475 18.24546,8.0718 18.08313,14.76029c-0.20837,8.58534 -10.85867,14.03413 -19.44475,14.20945c-8.41377,0.17179 -18.81661,-6.59811 -18.63466,-15.01168c0.14628,-6.76407 10.36795,-14.20963 19.99627,-13.95806z" data-paper-data="{&quot;origPos&quot;:null,&quot;origRot&quot;:0}" fill="url(#color-19)" stroke="#000000" stroke-width="2" stroke-linecap="butt"/><path d="M241.16763,158.48755c-0.02732,2.59273 -1.28895,4.75077 -2.81792,4.82008c-1.52895,0.06933 -2.7463,-1.97633 -2.71897,-4.56906c0.02732,-2.59273 1.28895,-4.75077 2.81792,-4.82008c1.52895,-0.06933 2.74628,1.97633 2.71896,4.56905z" data-paper-data="{&quot;origPos&quot;:null,&quot;origRot&quot;:0}" fill="#000000" stroke="none" stroke-width="0" stroke-linecap="butt"/><path d="M253.47949,158.92055c-0.02732,2.59273 -1.28895,4.75077 -2.81792,4.82008c-1.52895,0.06933 -2.7463,-1.97633 -2.71897,-4.56906c0.02732,-2.59273 1.28895,-4.75077 2.81792,-4.82008c1.52895,-0.06933 2.74628,1.97633 2.71896,4.56905z" data-paper-data="{&quot;origPos&quot;:null,&quot;origRot&quot;:0}" fill="#000000" stroke="none" stroke-width="0" stroke-linecap="butt"/><path d="M256.92064,167.61664c0,0 -7.84939,3.25517 -13.05656,2.85251c-5.13573,-0.39713 -11.93162,-3.50541 -11.93162,-3.50541" data-paper-data="{&quot;origPos&quot;:null,&quot;origRot&quot;:0}" fill="none" stroke="#000000" stroke-width="1.5" stroke-linecap="round"/><path d="M239.02647,157.1195c-0.01107,1.05128 -0.52263,1.92632 -1.14259,1.95441c-0.61996,0.02811 -1.11355,-0.80135 -1.10247,-1.85263c0.01107,-1.05128 0.52263,-1.92632 1.14259,-1.95441c0.61996,-0.02811 1.11355,0.80135 1.10247,1.85263z" data-paper-data="{&quot;origPos&quot;:null,&quot;origRot&quot;:0}" fill="#ffffff" stroke="none" stroke-width="0" stroke-linecap="butt"/><path d="M251.13303,157.5354c-0.01107,1.05128 -0.52263,1.92632 -1.14259,1.95441c-0.61996,0.02811 -1.11355,-0.80135 -1.10247,-1.85263c0.01107,-1.05128 0.52263,-1.92632 1.14259,-1.95441c0.61996,-0.02811 1.11355,0.80135 1.10247,1.85263z" data-paper-data="{&quot;origPos&quot;:null,&quot;origRot&quot;:0}" fill="#ffffff" stroke="none" stroke-width="0" stroke-linecap="butt"/></g></g></svg>