<svg version="1.1" xmlns="http://www.w3.org/2000/svg" xmlns:xlink="http://www.w3.org/1999/xlink" width="61.44787" height="65.53384" viewBox="0,0,61.44787,65.53384"><g transform="translate(-203.79371,-141.27529)"><g data-paper-data="{&quot;isPaintingLayer&quot;:true}" fill="none" fill-rule="nonzero" stroke="none" stroke-width="none" stroke-linecap="butt" stroke-linejoin="miter" stroke-miterlimit="10" stroke-dasharray="" stroke-dashoffset="0" font-family="none" font-weight="none" font-size="none" text-anchor="none" style="mix-blend-mode: normal"><path d="M223.43416,164.67729c-1.59904,1.6745 -6.49198,1.85814 -10.41419,-1.11883c-3.9222,-2.97695 -4.90162,-12.01672 -4.90162,-12.01672c0,0 3.99316,2.65168 4.94604,2.70245c0,0 5.33066,-0.2978 7.36405,1.32422c2.67726,2.13562 4.60475,7.43438 3.00571,9.10888z" data-paper-data="{&quot;origRot&quot;:0,&quot;origPos&quot;:null}" fill="#26bd00" stroke="#000000" stroke-width="1"/><path d="M221.79413,166.34635c0.11192,2.31734 -2.59781,5.63667 -6.70014,5.91235c-4.10232,0.27569 -10.25244,-5.98928 -10.25244,-5.98928c0,0 3.9423,-0.57011 4.52347,-1.15048c0,0 2.89175,-3.69089 5.06713,-3.77375c2.8642,-0.1091 7.25007,2.68382 7.36198,5.00116z" data-paper-data="{&quot;origRot&quot;:0,&quot;origPos&quot;:null}" fill="#26bd00" stroke="#000000" stroke-width="1"/><path d="M224.20249,158.71108c-2.26546,0.62132 -6.42555,-1.25905 -8.00728,-5.15783c-1.58174,-3.89876 2.67853,-11.22295 2.67853,-11.22295c0,0 1.82308,3.67908 2.58469,4.11151c0,0 4.58709,1.97378 5.36297,4.05524c1.02156,2.74054 -0.35344,7.5927 -2.6189,8.21402z" data-paper-data="{&quot;origRot&quot;:0,&quot;origPos&quot;:null}" fill="#26bd00" stroke="#000000" stroke-width="1"/><path d="M230.4099,191.74993c4.74005,0.45244 8.40699,2.65931 8.19033,4.92919c-0.21667,2.26988 -4.23487,3.74321 -8.97492,3.29077c-4.74005,-0.45244 -8.19031,-4.92919 -8.19031,-4.92919c0,0 4.23485,-3.74322 8.9749,-3.29078z" data-paper-data="{&quot;origRot&quot;:0,&quot;origPos&quot;:null,&quot;index&quot;:null}" fill="#2bd900" stroke="#000000" stroke-width="1.5"/><path d="M256.00198,192.48252c0,0 -2.32235,5.1529 -6.82954,6.68846c-4.5072,1.53556 -8.75711,1.03069 -9.49245,-1.1277c-0.73534,-2.15837 2.32235,-5.15291 6.82955,-6.68847c4.5072,-1.53556 9.49244,1.12771 9.49244,1.12771z" data-paper-data="{&quot;origRot&quot;:0,&quot;origPos&quot;:null,&quot;index&quot;:null}" fill="#2bd900" stroke="#000000" stroke-width="1.5"/><path d="M238.20292,199.21411c0,0 -1.92044,-6.41611 -2.52926,-10.5387c-0.48064,-3.25468 -0.26233,-8.36465 -0.26233,-8.36465l4.28775,-0.61262c0,0 -0.99652,4.23254 -0.58638,7.00987c0.67931,4.59995 3.37796,11.89349 3.37796,11.89349z" data-paper-data="{&quot;origPos&quot;:null,&quot;origRot&quot;:0}" fill="#a9ff59" stroke="#000000" stroke-width="2"/><path d="M255.47728,166.19563c0,8.78187 -8.21877,15.90098 -18.35715,15.90098c-10.13837,0 -18.35715,-7.11911 -18.35715,-15.90098c0,-8.78187 8.21877,-15.90097 18.35715,-15.90097c10.13837,0 18.35715,7.11911 18.35715,15.90097z" data-paper-data="{&quot;origPos&quot;:null}" fill="#a9ff59" stroke="#000000" stroke-width="3"/><path d="M242.45271,161.11031c0.63467,2.1835 0.12291,4.31513 -1.14306,4.76112c-1.26596,0.44599 -2.80674,-0.96254 -3.44141,-3.14604c-0.63467,-2.1835 -0.12291,-4.31513 1.14306,-4.76112c1.26596,-0.44599 2.80673,0.96254 3.4414,3.14604z" data-paper-data="{&quot;origPos&quot;:null,&quot;origRot&quot;:0}" fill="#000000" stroke="none" stroke-width="0"/><path d="M248.48932,160.31678c0.4781,1.64486 0.09259,3.25062 -0.86107,3.58659c-0.95367,0.33597 -2.11433,-0.72509 -2.59243,-2.36995c-0.4781,-1.64486 -0.0926,-3.25062 0.86107,-3.58659c0.95367,-0.33597 2.11434,0.72509 2.59244,2.36995z" data-paper-data="{&quot;origPos&quot;:null,&quot;origRot&quot;:0}" fill="#000000" stroke="none" stroke-width="0"/><path d="M264.13764,171.53077c-0.56287,5.68305 -4.15618,9.99226 -8.0259,9.62487c-3.86972,-0.36739 -6.55045,-5.27224 -5.98758,-10.9553c0.56287,-5.68305 4.15619,-9.99226 8.0259,-9.62487c3.86971,0.36739 6.55044,5.27225 5.98757,10.9553z" data-paper-data="{&quot;origPos&quot;:null,&quot;origRot&quot;:0}" fill="#a9ff59" stroke="#000000" stroke-width="2"/><path d="M256.11859,170.64057c-0.23084,2.80439 -1.54152,4.98914 -2.9275,4.87979c-1.38597,-0.10935 -2.3224,-2.47142 -2.09156,-5.2758c0.23084,-2.80438 1.54152,-4.98914 2.92749,-4.87978c1.38597,0.10935 2.32241,2.47141 2.09157,5.2758z" data-paper-data="{&quot;origRot&quot;:0,&quot;origPos&quot;:null}" fill="#84c746" stroke="none" stroke-width="0"/><path d="M229.56535,197.4568c4.81639,-1.99551 9.4955,-1.74346 10.45109,0.56299c0.95559,2.30644 -2.17419,5.79385 -6.99058,7.78935c-4.81639,1.99551 -10.45108,-0.56299 -10.45108,-0.56299c0,0 2.17418,-5.79385 6.99057,-7.78935z" data-paper-data="{&quot;origRot&quot;:0,&quot;origPos&quot;:null}" fill="#2fe500" stroke="#000000" stroke-width="2"/><path d="M256.50252,204.24206c0,0 -5.58446,2.66635 -10.43833,0.76382c-4.85387,-1.90253 -8.05013,-5.32912 -7.13905,-7.65351c0.91107,-2.32439 5.58447,-2.66636 10.43834,-0.76383c4.85387,1.90253 7.13904,7.65352 7.13904,7.65352z" data-paper-data="{&quot;origRot&quot;:0,&quot;origPos&quot;:null,&quot;index&quot;:null}" fill="#2fe500" stroke="#000000" stroke-width="2"/><path d="M233.86267,159.62592l-0.87316,-4.49052c0,0 4.76812,-0.08519 6.94175,0.7385c2.30405,0.87312 2.66298,4.0015 2.66298,4.0015c0,0 -1.14075,-1.49684 -3.86684,-1.49684c-1.89853,0 -4.86473,1.24737 -4.86473,1.24737z" data-paper-data="{&quot;origPos&quot;:null}" fill="#26bd00" stroke="#000000" stroke-width="0.5"/><path d="M247.30773,157.31266c-2.05336,0.41413 -2.70381,1.81535 -2.70381,1.81535c0,0 -0.16601,-2.62085 1.44767,-3.68712c1.52233,-1.00591 5.12569,-1.66038 5.12569,-1.66038l-0.03132,3.81638c0,0 -2.40821,-0.57265 -3.83823,-0.28423z" data-paper-data="{&quot;origPos&quot;:null,&quot;index&quot;:null,&quot;origRot&quot;:0}" fill="#26bd00" stroke="#000000" stroke-width="0.5"/></g></g></svg>