<svg version="1.1" xmlns="http://www.w3.org/2000/svg" xmlns:xlink="http://www.w3.org/1999/xlink" width="75.19491" height="70.43144" viewBox="0,0,75.19491,70.43144"><defs><linearGradient x1="240.19427" y1="191.00523" x2="240.19427" y2="207.4082" gradientUnits="userSpaceOnUse" id="color-1"><stop offset="0" stop-color="#24693c"/><stop offset="1" stop-color="#4ecc71"/></linearGradient><radialGradient cx="240.03486" cy="173.84847" r="21.1235" gradientUnits="userSpaceOnUse" id="color-2"><stop offset="0" stop-color="#b3fa98"/><stop offset="1" stop-color="#05ac26"/></radialGradient><radialGradient cx="234.83897" cy="153.23244" r="14.99911" gradientUnits="userSpaceOnUse" id="color-3"><stop offset="0" stop-color="#036617"/><stop offset="1" stop-color="#037019"/></radialGradient><radialGradient cx="241.20289" cy="172.75941" r="6.67932" gradientUnits="userSpaceOnUse" id="color-4"><stop offset="0" stop-color="#adeba3"/><stop offset="1" stop-color="#32c144"/></radialGradient><linearGradient x1="235.85189" y1="181.02784" x2="234.72753" y2="198.79349" gradientUnits="userSpaceOnUse" id="color-5"><stop offset="0" stop-color="#a8d9ab"/><stop offset="1" stop-color="#50d844"/></linearGradient><radialGradient cx="239.27703" cy="174.10682" r="11.33088" gradientUnits="userSpaceOnUse" id="color-6"><stop offset="0" stop-color="#a5f48f"/><stop offset="1" stop-color="#32c144"/></radialGradient><linearGradient x1="249.18857" y1="163.12187" x2="248.07599" y2="180.70163" gradientUnits="userSpaceOnUse" id="color-7"><stop offset="0" stop-color="#baffa7"/><stop offset="1" stop-color="#82ff63"/></linearGradient><radialGradient cx="204.75704" cy="145.7594" r="10.59119" gradientUnits="userSpaceOnUse" id="color-8"><stop offset="0" stop-color="#c8d6ca"/><stop offset="1" stop-color="#05ad27"/></radialGradient><radialGradient cx="198.26024" cy="148.20464" r="9.57427" gradientUnits="userSpaceOnUse" id="color-9"><stop offset="0" stop-color="#83dd6c"/><stop offset="1" stop-color="#28bd46"/></radialGradient><radialGradient cx="209.07969" cy="151.08602" r="7.29369" gradientUnits="userSpaceOnUse" id="color-10"><stop offset="0" stop-color="#83dd6c"/><stop offset="1" stop-color="#5dc572"/></radialGradient><linearGradient x1="202.7157" y1="148.97739" x2="200.86862" y2="161.44127" gradientUnits="userSpaceOnUse" id="color-11"><stop offset="0" stop-color="#53db7a"/><stop offset="1" stop-color="#24693c"/></linearGradient></defs><g transform="translate(-190.80956,-137.46372)"><g data-paper-data="{&quot;isPaintingLayer&quot;:true}" fill="none" fill-rule="nonzero" stroke="none" stroke-width="none" stroke-linecap="none" stroke-linejoin="miter" stroke-miterlimit="10" stroke-dasharray="" stroke-dashoffset="0" font-family="none" font-weight="none" font-size="none" text-anchor="none" style="mix-blend-mode: normal"><path d="M265.50447,196.78897c0,2.05192 -4.46233,5.3969 -5.99869,5.1516c-2.211,-0.35301 -7.33647,-4.94385 -7.33647,-4.94385c0,0 3.94658,2.47919 5.06352,4.47218c1.09713,1.95763 1.60555,5.11132 -0.57043,5.66005c-0.81875,0.20647 -2.25973,-4.07958 -3.04313,-3.76452c-0.51129,0.20562 -0.20078,0.90011 -0.39866,1.41446c-0.48513,1.26101 -0.65474,2.07082 -2.00368,2.1474c-2.54931,0.14472 -1.21167,-3.82453 -3.65419,-3.08021c-1.3397,0.40825 -1.1077,1.11468 -2.17422,2.02242c-2.09749,1.78521 -2.63345,1.52666 -5.3878,1.52666c-3.37785,0 -7.03408,-6.82012 -7.03408,-6.82012c0,0 -9.27918,5.80446 -14.23348,3.40515c-1.85279,-0.89729 1.05445,-3.69416 2.6697,-4.97045c1.36434,-1.07803 4.18869,-1.43148 4.18869,-1.43148c0,0 -4.97845,1.0473 -7.10801,0.24077c-1.79846,-0.68114 -3.59951,-2.29397 -3.59951,-4.2171c0,-1.27932 7.86551,-0.1749 7.86551,-0.1749c0,0 -3.96234,-1.47362 -2.2704,-1.93843c6.91241,-1.899 31.59011,2.37702 33.85978,2.86475c0.75656,0.16258 7.08018,-1.36996 7.557,-0.76049c0.73094,0.93429 -2.67507,3.70814 -2.67507,3.70814c0,0 6.28359,-4.13562 6.28359,-0.51203z" data-paper-data="{&quot;origPos&quot;:null}" fill="url(#color-1)" stroke="#0f2c13" stroke-width="1" stroke-linecap="butt"/><path d="M220.64989,173.87885l0.17471,-2.76076l2.48468,0.15725l-0.17471,2.76076z" data-paper-data="{&quot;origPos&quot;:null,&quot;origRot&quot;:0}" fill="#1c5324" stroke="none" stroke-width="0" stroke-linecap="butt"/><path d="M262.05119,181.72567c-0.69065,10.91272 -10.22717,19.19112 -22.65334,18.40471c-12.42618,-0.78643 -19.19781,-10.09692 -18.50719,-21.00965c0.48267,-7.62658 2.64838,-10.02343 6.29114,-11.15982c2.63756,-0.8228 1.51364,-4.21477 2.40713,-6.82924c0.50593,-1.48043 1.95719,-3.08114 3.24362,-2.19077c1.98143,1.3714 4.47556,4.16491 4.47556,4.16491c0,0 0.85884,-4.47163 2.94257,-2.78456c2.34006,1.89463 4.19595,2.73058 5.93047,4.60955c0,0 16.56073,5.88216 15.87009,16.79487z" data-paper-data="{&quot;origPos&quot;:null,&quot;origRot&quot;:0}" fill="url(#color-2)" stroke="#000000" stroke-width="1.5" stroke-linecap="butt"/><path d="M251.36442,187.18706c0.13322,2.26996 -0.83979,4.23443 -2.17324,4.3877c-1.33344,0.15333 -2.52241,-1.56263 -2.65561,-3.83258c-0.13322,-2.26996 0.83979,-4.23443 2.17324,-4.3877c1.33344,-0.15333 2.5224,1.56262 2.65559,3.83258z" data-paper-data="{&quot;origPos&quot;:null,&quot;origRot&quot;:0}" fill="#000000" stroke="none" stroke-width="0" stroke-linecap="butt"/><path d="M257.28562,185.65068c0.07937,1.71109 -0.67164,3.18182 -1.67746,3.28498c-1.00584,0.10316 -1.88557,-1.20031 -1.96497,-2.91142c-0.07937,-1.71109 0.67163,-3.18183 1.67746,-3.28498c1.00584,-0.10316 1.88561,1.20032 1.965,2.9114z" data-paper-data="{&quot;origPos&quot;:null,&quot;origRot&quot;:0}" fill="#000000" stroke="none" stroke-width="0" stroke-linecap="butt"/><path d="M237.70644,163.96405c0.32934,-1.1231 2.18913,-1.52363 2.19931,-1.50309c0.94923,-0.13344 1.12653,0.29914 1.28097,0.75592c0.46331,1.37028 4.51438,4.7736 4.51438,4.7736c0,0 -8.64875,-1.79589 -7.99465,-4.02643z" data-paper-data="{&quot;origPos&quot;:null,&quot;index&quot;:null,&quot;origRot&quot;:0}" fill="#287732" stroke="none" stroke-width="0" stroke-linecap="butt"/><path d="M236.07517,168.20754l-2.67684,-13.75467c0,0 -2.4698,-1.40796 -4.80779,-1.11558c-5.78447,0.72335 -15.33963,3.81683 -15.33963,3.81683l1.98897,-2.9167c0,0 6.76025,-2.24635 11.12392,-2.95327c4.19742,-0.67999 9.7284,0.59883 9.7284,0.59883l5.46305,18.91205z" data-paper-data="{&quot;origPos&quot;:null,&quot;origRot&quot;:0}" fill="url(#color-3)" stroke="#0f2c13" stroke-width="0.5" stroke-linecap="butt"/><path d="M237.0604,175.70774c0,0 -2.15708,-7.62708 1.63026,-10.51155c1.42202,0.24858 1.5405,0.99283 3.01241,0.91518c0.81491,-0.04299 -1.25359,-3.3858 -0.44336,-3.48299c1.29041,-0.15476 3.22573,0.82095 4.27863,1.58289c1.87197,1.35463 4.39521,2.98318 4.39521,2.98318c0,0 -1.30069,3.45182 -4.93435,6.21924c-2.14917,1.63681 -7.9388,2.29408 -7.9388,2.29408z" data-paper-data="{&quot;origPos&quot;:null,&quot;origRot&quot;:0}" fill="url(#color-4)" stroke="#256d2f" stroke-width="0.5" stroke-linecap="butt"/><path d="M249.60195,186.53012c0.06041,1.02974 -0.38097,1.92089 -0.98587,1.99045c-0.6049,0.06955 -1.14426,-0.70887 -1.20467,-1.73861c-0.06041,-1.02974 0.38097,-1.92089 0.98587,-1.99045c0.6049,-0.06955 1.14426,0.70887 1.20467,1.7386z" data-paper-data="{&quot;origPos&quot;:null,&quot;origRot&quot;:0}" fill="#ffffff" stroke="none" stroke-width="0" stroke-linecap="butt"/><path d="M255.76505,184.81718c0.02708,0.58353 -0.22903,1.08509 -0.57206,1.12027c-0.34299,0.03518 -0.64302,-0.40933 -0.6701,-0.99286c-0.02708,-0.58353 0.22903,-1.08509 0.57206,-1.12027c0.34299,-0.03518 0.64302,0.40934 0.67009,0.99286z" data-paper-data="{&quot;origPos&quot;:null,&quot;origRot&quot;:0}" fill="#ffffff" stroke="none" stroke-width="0" stroke-linecap="butt"/><path d="M230.8999,168.31639c0,0 -0.20092,-5.65264 0.43145,-6.95356c0.21078,-0.43364 0.46654,-1.2409 1.39141,-0.98888c0.01267,-0.0191 1.79701,0.7729 1.98213,1.92858c0.36769,2.29519 -0.14881,0.7768 -0.14881,0.7768z" data-paper-data="{&quot;origPos&quot;:null,&quot;origRot&quot;:0}" fill="#287732" stroke="none" stroke-width="0" stroke-linecap="butt"/><path d="M241.59219,181.96184c0,0 1.28531,-5.51812 2.94668,-5.25637c3.42901,0.54028 5.06753,4.50988 5.06753,4.50988c0,0 -2.80466,-1.48855 -4.19843,-1.35874c-1.73388,0.16151 -3.81578,2.10522 -3.81578,2.10522z" data-paper-data="{&quot;origPos&quot;:null,&quot;origRot&quot;:0}" fill="#05ac26" stroke="#000000" stroke-width="0.5" stroke-linecap="butt"/><path d="M253.78947,180.48751c0,0 0.63324,-3.50852 2.3826,-4.33355c1.65033,-0.7783 4.31103,3.75193 4.31103,3.75193c0,0 -2.08431,-1.44734 -3.54084,-1.366z" data-paper-data="{&quot;origPos&quot;:null,&quot;index&quot;:null,&quot;origRot&quot;:0}" fill="#05ac26" stroke="#000000" stroke-width="0.5" stroke-linecap="butt"/><path d="M229.05037,195.6364c-8.94202,-6.11033 -7.15114,-15.49158 -7.15114,-15.49158c0,0 1.66989,2.42646 3.25999,3.73449c2.76104,2.27125 5.08535,3.22632 8.04333,5.23438c1.03051,0.69955 3.23581,1.16279 4.15535,2.00286c0.99152,0.90586 1.06763,2.07423 1.77088,3.2184c0.50942,0.82885 1.15767,0.77308 1.99667,1.26563c2.81075,1.65011 7.70918,2.42457 7.70918,2.42457c0,0 -10.84221,3.72158 -19.78424,-2.38876z" data-paper-data="{&quot;origPos&quot;:null,&quot;origRot&quot;:0}" fill="url(#color-5)" stroke="#287732" stroke-width="0" stroke-linecap="butt"/><path d="M221.63736,183.37078c0,0 -2.58827,-6.63725 -0.93485,-10.33358c1.65343,-3.69634 4.98376,-1.55658 6.73009,-2.83534c1.83447,-1.34328 2.14589,-1.33252 3.77875,-2.91473c1.2465,-1.20781 1.12169,-4.06579 2.59914,-4.9767c1.02519,-0.63207 1.81574,0.32037 2.9788,0.63309c1.27029,0.34156 1.10153,4.61432 1.10153,4.61432c0,0 2.91131,-0.37367 2.35059,1.76342c-0.48299,1.84083 -1.62976,1.03041 -1.64858,2.93346c-0.02266,2.29096 2.64325,-0.15944 2.27673,2.10214c-0.56895,3.51059 -0.97551,5.16617 -3.37265,7.79329c0,0 -5.70158,1.73146 -8.68678,1.88672c-3.60445,0.18748 -7.17283,-0.66607 -7.17283,-0.66607z" data-paper-data="{&quot;origPos&quot;:null,&quot;origRot&quot;:0}" fill="url(#color-6)" stroke="#256d2f" stroke-width="0.5" stroke-linecap="butt"/><path d="M221.17016,187.37695c-0.72331,-2.05225 0.31842,-2.5986 -0.63087,-4.47729c-0.4142,-0.81971 -0.92496,-0.35121 -1.83352,-0.48538c-1.23634,-0.18258 -2.81685,-0.28214 -3.02204,-1.51491c-0.22986,-1.38113 2.17648,-3.11347 2.17648,-3.11347c0,0 -4.31124,-0.8054 -3.98641,-3.68003c0.33686,-2.98103 4.56789,-2.60585 5.01534,-3.26517c0.75306,-1.10967 0.03698,-2.3697 1.36256,-2.57279c0.85214,-0.13055 2.39569,2.80502 2.37008,1.94329c-0.0332,-1.11618 3.36641,0.32242 3.36641,0.32242l-2.60184,1.39822c0,0 -2.33324,0.45105 -2.27993,2.42333c0.10144,3.75275 -0.55386,3.49698 1.79343,6.42677c1.1594,1.44712 3.27911,5.18737 5.13368,4.84186c0.69388,1.6773 3.12366,1.79838 4.6573,2.76933c1.99202,1.26112 4.98584,3.30647 4.98584,3.30647c0,0 -2.69614,-1.18625 -3.7153,-1.18445c-2.88076,0.00511 -2.44776,0.7911 -5.08479,-0.36854c-1.13531,-0.49925 -1.3313,-1.66802 -2.50152,-2.0788c-2.66868,-0.9368 -4.48153,1.36139 -5.20486,-0.69087z" data-paper-data="{&quot;origPos&quot;:null,&quot;origRot&quot;:0}" fill="#98ff7e" stroke="#256d2f" stroke-width="1" stroke-linecap="butt"/><path d="M238.83672,180.1169c0,0 0.77499,-1.18203 1.01063,-1.94517c0.36259,-1.17445 0.70609,-2.94236 0.70609,-2.94236c0.66271,-1.13865 1.35294,-1.38976 2.24943,-2.35515c0.8208,-0.88389 2.02914,-2.46603 2.02914,-2.46603c0.99452,-1.03187 5.29335,-3.69311 5.29335,-3.69311l-3.71238,-2.12255c0,0 1.3402,-0.52228 2.07371,-0.72488c4.20192,-1.16057 9.66877,-0.37034 9.77061,2.44724c0.06208,1.71766 -3.69619,-0.22431 -5.65271,1.8057c-0.82462,0.85559 0.6736,3.14921 -0.37714,4.26301c-0.85839,0.90992 -3.62564,-2.00332 -4.49575,-1.1046c-0.61276,0.6329 -0.46228,3.01679 -1.1526,3.47016c-1.09264,0.7176 -1.00177,0.03454 -2.2528,-0.34462c-0.53273,-0.16147 -0.91361,0.14143 -1.32844,0.51265c-1.7126,1.53258 -0.30769,2.52666 -2.08626,3.98217c-1.24544,1.01922 -2.07484,1.21754 -2.07484,1.21754z" data-paper-data="{&quot;origPos&quot;:null,&quot;origRot&quot;:0}" fill="url(#color-7)" stroke="#256d2f" stroke-width="1" stroke-linecap="butt"/><path d="M250.36598,164.91653c0,0 3.42295,0.36701 2.52436,0.83671c-2.98176,1.55859 -4.49975,1.45131 -7.08405,3.60577c-1.32224,1.10232 -2.47265,2.99761 -3.71852,4.18557c-3.41455,3.25587 -1.04513,5.86107 -4.96565,8.48588c-2.93539,1.96526 -10.42454,2.24629 -10.42454,2.24629" data-paper-data="{&quot;origPos&quot;:null,&quot;origRot&quot;:0}" fill="none" stroke="#287732" stroke-width="0.5" stroke-linecap="round"/><path d="M248.93248,197.98883c0,0 -2.51552,-0.5113 -4.20059,-1.09276c-1.81062,-0.62478 -3.01524,-1.21472 -4.68383,-2.15521c-2.89572,-1.63213 -0.61286,-2.21622 -3.40532,-4.01934c-3.95678,-2.55492 -8.8867,-4.69826 -12.26177,-7.98345c-2.49031,-2.42402 -4.47073,-6.70458 -2.65569,-9.61702c0.75696,-1.21465 1.65232,-1.3107 1.65232,-1.3107" data-paper-data="{&quot;origPos&quot;:null,&quot;origRot&quot;:0}" fill="none" stroke="#287732" stroke-width="0.5" stroke-linecap="round"/><path d="M214.92789,154.81344c-1.69388,5.78895 -8.22343,8.97303 -14.58413,7.11185c-6.3607,-1.86119 -10.14393,-8.06284 -8.45006,-13.85178c1.69388,-5.78895 24.72806,0.95097 23.03416,6.73993z" data-paper-data="{&quot;origPos&quot;:null,&quot;origRot&quot;:0}" fill="#2e8149" stroke="#0f2c13" stroke-width="0.5" stroke-linecap="butt"/><path d="M192.74233,149.027c0.85748,-5.78615 6.28025,-10.03174 12.06644,-9.17426c5.78615,0.85748 9.7446,6.49329 8.88712,12.27947c-0.85748,5.78615 -6.28026,10.03175 -12.06644,9.17427c-5.78615,-0.85748 -9.74459,-6.49329 -8.88711,-12.27947z" data-paper-data="{&quot;origPos&quot;:null,&quot;origRot&quot;:0}" fill="url(#color-8)" stroke="#000000" stroke-width="1" stroke-linecap="butt"/><path d="M209.45519,158.27321c-2.16606,1.74389 -2.748,1.44997 -4.17945,1.21007c-2.73633,-0.4586 -6.51596,-3.15106 -6.51596,-3.15106c0,0 4.42792,-0.22877 6.78204,-1.71259c2.09866,-1.3228 3.19953,-3.25634 2.87865,-5.71623c-0.21176,-1.62323 -1.15365,-2.82253 -0.94408,-4.44607c0.11787,-0.91302 1.57105,-2.06653 1.57105,-2.06653c0,0 0.44779,0.80996 1.90952,1.9579c0.98127,0.77063 1.26265,2.37702 1.77071,3.51661c0.69032,1.54833 0.39625,2.80438 0.14776,4.48134c-0.55987,3.77797 -1.39553,4.29652 -3.42024,5.92659z" data-paper-data="{&quot;origPos&quot;:null,&quot;index&quot;:null,&quot;origRot&quot;:0}" fill="#27b33c" stroke="#1c802b" stroke-width="0.5" stroke-linecap="butt"/><path d="M193.42163,149.23418c0.30138,-2.03354 0.90734,-3.51972 2.25299,-5.07385c0.99042,-1.14385 2.31246,-2.32875 3.72231,-2.878c2.10011,-0.81816 5.15498,-0.75057 5.15498,-0.75057c0,0 -4.03967,4.70114 -4.74921,6.27318c-1.23756,2.74193 -0.63997,5.37305 1.33039,7.64626c2.2102,2.54994 7.26847,4.37271 7.26847,4.37271c0,0 -4.88681,3.39718 -8.62418,1.29681c0,0 -2.88012,-1.29406 -4.22366,-3.07906c-1.7203,-2.28554 -2.81103,-3.2262 -2.13211,-7.80753z" data-paper-data="{&quot;origPos&quot;:null,&quot;origRot&quot;:0}" fill="#27b33c" stroke="#1c802b" stroke-width="0.5" stroke-linecap="butt"/><path d="M199.29774,148.10277c0,0 3.46791,-3.00355 5.09653,-2.77774c0.86593,0.12006 0.50434,2.14663 1.1045,2.78229c0.58871,0.6235 0.85131,-0.50996 1.67372,-0.26726c0.31761,0.09374 1.05813,1.50131 1.05813,1.50131" data-paper-data="{&quot;origPos&quot;:null,&quot;origRot&quot;:0}" fill="none" stroke="#1c802b" stroke-width="0.5" stroke-linecap="round"/><path d="M206.78284,141.28839c0,0 -0.96747,0.54219 -1.22897,1.0513c-0.30247,0.58886 1.01574,1.16392 0.84128,1.80253c-0.16371,0.59934 -1.76778,1.34236 -1.76778,1.34236" data-paper-data="{&quot;origPos&quot;:null,&quot;origRot&quot;:0}" fill="none" stroke="#1c802b" stroke-width="0.5" stroke-linecap="round"/><path d="M196.27786,148.93324c0.32899,-1.30286 0.74918,-0.30067 1.60561,-1.33618c0.32542,-0.39344 -0.61802,-2.23177 -0.29887,-2.63029c0.73491,-0.91769 1.02243,-0.3934 1.9998,-1.04681c1.0505,-0.70228 -1.06197,-3.74356 -0.04737,-4.4968c0.85199,-0.63254 1.19504,1.07903 2.22442,1.33662c0.7055,0.17654 0.70981,-2.8651 1.41193,-3.0547c0.60975,-0.16465 0.39892,0.96869 0.65659,1.54537c0.10456,0.23399 1.19506,-0.68979 1.34623,-0.48282c0.15541,0.21274 1.00029,0.8124 0.9025,1.05702c-0.11229,0.28084 -0.63063,-0.37045 -0.92597,-0.30528c-0.32842,0.07248 -0.60541,0.75609 -0.60541,0.75609c0,0 -3.26179,3.56451 -4.4818,5.91641c-1.04083,2.00648 -1.12845,3.06545 -0.67833,5.28058c0.69393,3.41478 4.86911,5.71478 4.86911,5.71478c0,0 -8.71159,-5.35061 -7.97845,-8.254z" data-paper-data="{&quot;origPos&quot;:null,&quot;origRot&quot;:0}" fill="url(#color-9)" stroke="#256d2f" stroke-width="0.5" stroke-linecap="butt"/><path d="M206.4642,154.36202c0,0 2.73925,-2.95905 2.28165,-5.46049c-0.37975,-2.0758 -1.31507,-2.4217 -1.08389,-4.41267c0.26113,-2.24882 1.77634,-2.72177 1.77634,-2.72177c0,0 -1.06185,-1.92765 -0.85903,-1.44416c0.29794,0.71034 1.51332,-0.59373 1.97535,0.02264c0.3208,0.42797 -0.08558,0.55281 0.07844,1.72995c0.05359,0.38457 0.83973,0.89868 0.76427,1.27951c-0.14627,0.7382 -1.23381,0.82167 -1.53436,1.51163c-0.42267,0.97039 1.97067,2.74423 1.82983,3.79323c-0.27319,2.03485 -0.39577,0.46421 -1.7787,1.72303c-1.2381,1.127 1.18994,0.34213 0.81078,1.97284c-0.59761,2.57007 -4.26068,2.0062 -4.26068,2.0062z" data-paper-data="{&quot;origPos&quot;:null,&quot;origRot&quot;:0}" fill="url(#color-10)" stroke="#256d2f" stroke-width="0.5" stroke-linecap="butt"/><path d="M191.18531,149.33935c0.11467,-0.63331 0.63454,-1.87556 0.63454,-1.87556c0,0 1.1657,1.34794 1.27572,1.78777c0.33004,1.31941 0.06528,2.9111 0.06528,2.9111c0,0 0.55836,-1.56714 2.45108,-0.69845c0.60247,0.2765 0.6125,2.26516 0.6125,2.26516c0,0 2.4141,-1.80836 3.35723,-0.56654c1.14393,1.50623 1.16079,3.26595 1.16079,3.26595c0,0 2.14571,-2.2224 3.03023,-1.90162c1.99998,0.72532 3.14453,1.91064 3.14453,1.91064c0,0 -1.67188,-1.22246 -0.31254,-2.68011c1.0019,-1.07438 4.04155,0.39345 4.04155,0.39345c0,0 -0.37022,-1.67438 0.18774,-2.43419c0.73789,-1.00478 1.75301,0.2684 1.75301,0.2684l0.68749,-1.94869c0,0 1.77228,2.80103 1.61581,4.22432c-0.20904,1.90157 -1.26507,3.21639 -2.54985,4.63379c-2.82669,3.11851 -7.74188,4.44921 -11.79729,3.32274c-2.16065,-0.60017 -3.31401,-1.51588 -5.18855,-2.7466c0,0 -2.65269,-2.30755 -3.487,-4.68212c-0.62009,-1.76495 -1.02627,-3.54958 -0.6823,-5.44949z" data-paper-data="{&quot;origPos&quot;:null,&quot;origRot&quot;:0}" fill="url(#color-11)" stroke="#0f2c13" stroke-width="0.5" stroke-linecap="butt"/></g></g></svg>