<svg version="1.1" xmlns="http://www.w3.org/2000/svg" xmlns:xlink="http://www.w3.org/1999/xlink" width="433" height="294.24664"><g transform="translate(-82.5,-53.25336)"><g data-paper-data="{&quot;isPaintingLayer&quot;:true}" fill="none" fill-rule="nonzero" stroke="#000000" stroke-width="none" stroke-linecap="butt" stroke-linejoin="miter" stroke-miterlimit="10" stroke-dasharray="" stroke-dashoffset="0" font-family="none" font-weight="none" font-size="none" text-anchor="none" style="mix-blend-mode: normal"><path d="M85,345v-289.24664h428v289.24664z" data-paper-data="{&quot;origPos&quot;:null}" fill="#eec45e" stroke-width="5"/><path d="M140.39479,110.05182h-42.15497v-52.6815h42.15497z" data-paper-data="{&quot;origPos&quot;:null,&quot;index&quot;:null,&quot;origRot&quot;:0}" fill="#d8d8d8" stroke-width="4"/><path d="M182.54979,110.05182h-42.15498v-52.6815h42.15498z" data-paper-data="{&quot;origPos&quot;:null,&quot;index&quot;:null,&quot;origRot&quot;:0}" fill="#f4d330" stroke-width="4"/><path d="M224.70475,110.05182h-42.15498v-52.6815h42.15498z" data-paper-data="{&quot;origPos&quot;:null,&quot;index&quot;:null,&quot;origRot&quot;:0}" fill="#d8d8d8" stroke-width="4"/><path d="M266.85973,110.05182h-42.15497v-52.6815h42.15497z" data-paper-data="{&quot;origPos&quot;:null,&quot;index&quot;:null,&quot;origRot&quot;:0}" fill="#f4d330" stroke-width="4"/><path d="M309.01472,110.05182h-42.15498v-52.6815h42.15498z" data-paper-data="{&quot;origPos&quot;:null,&quot;index&quot;:null,&quot;origRot&quot;:0}" fill="#d8d8d8" stroke-width="4"/><path d="M351.16969,110.05182h-42.15498v-52.6815h42.15498z" data-paper-data="{&quot;origPos&quot;:null,&quot;index&quot;:null,&quot;origRot&quot;:0}" fill="#f4d330" stroke-width="4"/><path d="M393.54423,110.05182h-42.15497v-52.6815h42.15497z" data-paper-data="{&quot;origPos&quot;:null,&quot;index&quot;:null,&quot;origRot&quot;:0}" fill="#d8d8d8" stroke-width="4"/><path d="M435.54762,110.05182h-42.15497v-52.6815h42.15497z" data-paper-data="{&quot;origPos&quot;:null,&quot;index&quot;:null,&quot;origRot&quot;:0}" fill="#f4d330" stroke-width="4"/><path d="M474.98984,109.80277h-42.15498v-52.6815h42.15498z" data-paper-data="{&quot;origPos&quot;:null,&quot;index&quot;:null,&quot;origRot&quot;:0}" fill="#d8d8d8" stroke-width="4"/><path d="M140.39479,161.8542h-42.15497v-52.6815h42.15497z" data-paper-data="{&quot;origPos&quot;:null,&quot;index&quot;:null,&quot;origRot&quot;:0}" fill="#f4d330" stroke-width="4"/><path d="M182.54979,161.8542h-42.15498v-52.6815h42.15498z" data-paper-data="{&quot;origPos&quot;:null,&quot;index&quot;:null,&quot;origRot&quot;:0}" fill="#d8d8d8" stroke-width="4"/><path d="M224.70475,161.8542h-42.15498v-52.6815h42.15498z" data-paper-data="{&quot;origPos&quot;:null,&quot;index&quot;:null,&quot;origRot&quot;:0}" fill="#f4d330" stroke-width="4"/><path d="M266.85973,161.8542h-42.15497v-52.6815h42.15497z" data-paper-data="{&quot;origPos&quot;:null,&quot;index&quot;:null,&quot;origRot&quot;:0}" fill="#d8d8d8" stroke-width="4"/><path d="M309.01472,161.8542h-42.15498v-52.6815h42.15498z" data-paper-data="{&quot;origPos&quot;:null,&quot;index&quot;:null,&quot;origRot&quot;:0}" fill="#f4d330" stroke-width="4"/><path d="M351.16969,161.8542h-42.15498v-52.6815h42.15498z" data-paper-data="{&quot;origPos&quot;:null,&quot;index&quot;:null,&quot;origRot&quot;:0}" fill="#d8d8d8" stroke-width="4"/><path d="M393.54423,161.8542h-42.15497v-52.6815h42.15497z" data-paper-data="{&quot;origPos&quot;:null,&quot;index&quot;:null,&quot;origRot&quot;:0}" fill="#f4d330" stroke-width="4"/><path d="M435.54762,161.8542h-42.15497v-52.6815h42.15497z" data-paper-data="{&quot;origPos&quot;:null,&quot;index&quot;:null,&quot;origRot&quot;:0}" fill="#d8d8d8" stroke-width="4"/><path d="M474.98984,161.60515h-42.15498v-52.6815h42.15498z" data-paper-data="{&quot;origPos&quot;:null,&quot;index&quot;:null,&quot;origRot&quot;:0}" fill="#f4d330" stroke-width="4"/><path d="M140.39479,213.65658h-42.15497v-52.6815h42.15497z" data-paper-data="{&quot;origPos&quot;:null,&quot;index&quot;:null,&quot;origRot&quot;:0}" fill="#d8d8d8" stroke-width="4"/><path d="M182.54979,213.65658h-42.15498v-52.6815h42.15498z" data-paper-data="{&quot;origPos&quot;:null,&quot;index&quot;:null,&quot;origRot&quot;:0}" fill="#f4d330" stroke-width="4"/><path d="M224.70475,213.65658h-42.15498v-52.6815h42.15498z" data-paper-data="{&quot;origPos&quot;:null,&quot;index&quot;:null,&quot;origRot&quot;:0}" fill="#d8d8d8" stroke-width="4"/><path d="M266.85973,213.65658h-42.15497v-52.6815h42.15497z" data-paper-data="{&quot;origPos&quot;:null,&quot;index&quot;:null,&quot;origRot&quot;:0}" fill="#f4d330" stroke-width="4"/><path d="M309.01472,213.65658h-42.15498v-52.6815h42.15498z" data-paper-data="{&quot;origPos&quot;:null,&quot;index&quot;:null,&quot;origRot&quot;:0}" fill="#d8d8d8" stroke-width="4"/><path d="M351.16969,213.65658h-42.15498v-52.6815h42.15498z" data-paper-data="{&quot;origPos&quot;:null,&quot;index&quot;:null,&quot;origRot&quot;:0}" fill="#f4d330" stroke-width="4"/><path d="M393.54423,213.65658h-42.15497v-52.6815h42.15497z" data-paper-data="{&quot;origPos&quot;:null,&quot;index&quot;:null,&quot;origRot&quot;:0}" fill="#d8d8d8" stroke-width="4"/><path d="M435.54762,213.65658h-42.15497v-52.6815h42.15497z" data-paper-data="{&quot;origPos&quot;:null,&quot;index&quot;:null,&quot;origRot&quot;:0}" fill="#f4d330" stroke-width="4"/><path d="M474.98984,213.40753h-42.15498v-52.6815h42.15498z" data-paper-data="{&quot;origPos&quot;:null,&quot;index&quot;:null,&quot;origRot&quot;:0}" fill="#d8d8d8" stroke-width="4"/><path d="M140.39479,266.45516h-42.15497v-52.6815h42.15497z" data-paper-data="{&quot;origPos&quot;:null,&quot;index&quot;:null,&quot;origRot&quot;:0}" fill="#f4d330" stroke-width="4"/><path d="M182.54979,266.45516h-42.15498v-52.6815h42.15498z" data-paper-data="{&quot;origPos&quot;:null,&quot;index&quot;:null,&quot;origRot&quot;:0}" fill="#d8d8d8" stroke-width="4"/><path d="M224.70475,266.45516h-42.15498v-52.6815h42.15498z" data-paper-data="{&quot;origPos&quot;:null,&quot;index&quot;:null,&quot;origRot&quot;:0}" fill="#f4d330" stroke-width="4"/><path d="M266.85973,266.45516h-42.15497v-52.6815h42.15497z" data-paper-data="{&quot;origPos&quot;:null,&quot;index&quot;:null,&quot;origRot&quot;:0}" fill="#d8d8d8" stroke-width="4"/><path d="M309.01472,266.45516h-42.15498v-52.6815h42.15498z" data-paper-data="{&quot;origPos&quot;:null,&quot;index&quot;:null,&quot;origRot&quot;:0}" fill="#f4d330" stroke-width="4"/><path d="M351.16969,266.45516h-42.15498v-52.6815h42.15498z" data-paper-data="{&quot;origPos&quot;:null,&quot;index&quot;:null,&quot;origRot&quot;:0}" fill="#d8d8d8" stroke-width="4"/><path d="M393.54423,266.45516h-42.15497v-52.6815h42.15497z" data-paper-data="{&quot;origPos&quot;:null,&quot;index&quot;:null,&quot;origRot&quot;:0}" fill="#f4d330" stroke-width="4"/><path d="M435.54762,266.45516h-42.15497v-52.6815h42.15497z" data-paper-data="{&quot;origPos&quot;:null,&quot;index&quot;:null,&quot;origRot&quot;:0}" fill="#d8d8d8" stroke-width="4"/><path d="M474.98984,266.20611h-42.15498v-52.6815h42.15498z" data-paper-data="{&quot;origPos&quot;:null,&quot;index&quot;:null,&quot;origRot&quot;:0}" fill="#f4d330" stroke-width="4"/><path d="M140.39479,319.25374h-42.15497v-52.6815h42.15497z" data-paper-data="{&quot;origPos&quot;:null,&quot;index&quot;:null,&quot;origRot&quot;:0}" fill="#d8d8d8" stroke-width="4"/><path d="M182.54979,319.25374h-42.15498v-52.6815h42.15498z" data-paper-data="{&quot;origPos&quot;:null,&quot;index&quot;:null,&quot;origRot&quot;:0}" fill="#f4d330" stroke-width="4"/><path d="M224.70475,319.25374h-42.15498v-52.6815h42.15498z" data-paper-data="{&quot;origPos&quot;:null,&quot;index&quot;:null,&quot;origRot&quot;:0}" fill="#d8d8d8" stroke-width="4"/><path d="M266.85973,319.25374h-42.15497v-52.6815h42.15497z" data-paper-data="{&quot;origPos&quot;:null,&quot;index&quot;:null,&quot;origRot&quot;:0}" fill="#f4d330" stroke-width="4"/><path d="M309.01472,319.25374h-42.15498v-52.6815h42.15498z" data-paper-data="{&quot;origPos&quot;:null,&quot;index&quot;:null,&quot;origRot&quot;:0}" fill="#d8d8d8" stroke-width="4"/><path d="M351.16969,319.25374h-42.15498v-52.6815h42.15498z" data-paper-data="{&quot;origPos&quot;:null,&quot;index&quot;:null,&quot;origRot&quot;:0}" fill="#f4d330" stroke-width="4"/><path d="M393.54423,319.25374h-42.15497v-52.6815h42.15497z" data-paper-data="{&quot;origPos&quot;:null,&quot;index&quot;:null,&quot;origRot&quot;:0}" fill="#d8d8d8" stroke-width="4"/><path d="M435.54762,319.25374h-42.15497v-52.6815h42.15497z" data-paper-data="{&quot;origPos&quot;:null,&quot;index&quot;:null,&quot;origRot&quot;:0}" fill="#f4d330" stroke-width="4"/><path d="M474.98984,319.00469h-42.15498v-52.6815h42.15498z" data-paper-data="{&quot;origPos&quot;:null,&quot;index&quot;:null,&quot;origRot&quot;:0}" fill="#d8d8d8" stroke-width="4"/></g></g></svg>