<svg version="1.1" xmlns="http://www.w3.org/2000/svg" xmlns:xlink="http://www.w3.org/1999/xlink" width="54.19167" height="64.21222"><defs><linearGradient x1="266.5784" y1="174.33069" x2="258.42355" y2="167.70378" gradientUnits="userSpaceOnUse" id="color-1"><stop offset="0" stop-color="#fff987"/><stop offset="1" stop-color="#fff300"/></linearGradient><linearGradient x1="268.91191" y1="156.35" x2="258.85268" y2="162.35474" gradientUnits="userSpaceOnUse" id="color-2"><stop offset="0" stop-color="#fff987"/><stop offset="1" stop-color="#fff300"/></linearGradient><linearGradient x1="265.5253" y1="150.65346" x2="258.01903" y2="158.57893" gradientUnits="userSpaceOnUse" id="color-3"><stop offset="0" stop-color="#fff987"/><stop offset="1" stop-color="#fff300"/></linearGradient><linearGradient x1="229.23608" y1="179.51484" x2="236.44352" y2="171.86117" gradientUnits="userSpaceOnUse" id="color-4"><stop offset="0" stop-color="#fff987"/><stop offset="1" stop-color="#fff300"/></linearGradient><linearGradient x1="261.72562" y1="178.85516" x2="254.959" y2="170.30031" gradientUnits="userSpaceOnUse" id="color-5"><stop offset="0" stop-color="#fff987"/><stop offset="1" stop-color="#fff300"/></linearGradient><linearGradient x1="226.75659" y1="149.14314" x2="233.53577" y2="157.77252" gradientUnits="userSpaceOnUse" id="color-6"><stop offset="0" stop-color="#fff987"/><stop offset="1" stop-color="#fff300"/></linearGradient><linearGradient x1="223.09506" y1="152.93992" x2="230.3578" y2="162.18482" gradientUnits="userSpaceOnUse" id="color-7"><stop offset="0" stop-color="#fff987"/><stop offset="1" stop-color="#fff300"/></linearGradient><linearGradient x1="254.96025" y1="182.31194" x2="249.3584" y2="172.98458" gradientUnits="userSpaceOnUse" id="color-8"><stop offset="0" stop-color="#fff987"/><stop offset="1" stop-color="#fff300"/></linearGradient><linearGradient x1="223.42542" y1="174.00738" x2="234.21606" y2="169.55751" gradientUnits="userSpaceOnUse" id="color-9"><stop offset="0" stop-color="#fff987"/><stop offset="1" stop-color="#fff300"/></linearGradient><linearGradient x1="236.22519" y1="181.63036" x2="241.54508" y2="172.56853" gradientUnits="userSpaceOnUse" id="color-10"><stop offset="0" stop-color="#fff987"/><stop offset="1" stop-color="#fff300"/></linearGradient><linearGradient x1="260.65048" y1="146.60982" x2="254.46331" y2="155.37054" gradientUnits="userSpaceOnUse" id="color-11"><stop offset="0" stop-color="#fff987"/><stop offset="1" stop-color="#fff300"/></linearGradient><linearGradient x1="232.18638" y1="145.68965" x2="237.26646" y2="156.70981" gradientUnits="userSpaceOnUse" id="color-12"><stop offset="0" stop-color="#fff987"/><stop offset="1" stop-color="#fff300"/></linearGradient><linearGradient x1="255.17715" y1="143.03166" x2="248.92238" y2="153.70057" gradientUnits="userSpaceOnUse" id="color-13"><stop offset="0" stop-color="#fff987"/><stop offset="1" stop-color="#fff300"/></linearGradient><linearGradient x1="237.68546" y1="141.84981" x2="241.61299" y2="152.82918" gradientUnits="userSpaceOnUse" id="color-14"><stop offset="0" stop-color="#fff987"/><stop offset="1" stop-color="#fff300"/></linearGradient><linearGradient x1="244.38067" y1="183.81228" x2="244.71332" y2="170.1305" gradientUnits="userSpaceOnUse" id="color-15"><stop offset="0" stop-color="#fff987"/><stop offset="1" stop-color="#fff300"/></linearGradient><linearGradient x1="219.62405" y1="164.33406" x2="233.30585" y2="164.66672" gradientUnits="userSpaceOnUse" id="color-16"><stop offset="0" stop-color="#fff987"/><stop offset="1" stop-color="#fff300"/></linearGradient><linearGradient x1="270.84359" y1="165.01599" x2="257.1618" y2="164.68334" gradientUnits="userSpaceOnUse" id="color-17"><stop offset="0" stop-color="#fff987"/><stop offset="1" stop-color="#fff300"/></linearGradient><linearGradient x1="245.85961" y1="140.83452" x2="245.52696" y2="154.51631" gradientUnits="userSpaceOnUse" id="color-18"><stop offset="0" stop-color="#fff987"/><stop offset="1" stop-color="#fff300"/></linearGradient><linearGradient x1="245.6664" y1="149.2677" x2="244.96121" y2="178.27135" gradientUnits="userSpaceOnUse" id="color-19"><stop offset="0" stop-color="#eeb054"/><stop offset="1" stop-color="#d27700"/></linearGradient></defs><g transform="translate(-218.13799,-139.34836)"><g data-paper-data="{&quot;isPaintingLayer&quot;:true}" fill="none" fill-rule="nonzero" stroke="none" stroke-width="none" stroke-linecap="none" stroke-linejoin="miter" stroke-miterlimit="10" stroke-dasharray="" stroke-dashoffset="0" font-family="none" font-weight="none" font-size="none" text-anchor="none" style="mix-blend-mode: normal"><path d="M252.93344,196.39802c-0.01856,2.47718 -10.5375,2.39838 -10.51894,-0.07881c0.01856,-2.47718 2.38834,-4.46769 5.29307,-4.44593c2.90473,0.02176 5.24442,2.04755 5.22586,4.52473z" data-paper-data="{&quot;origPos&quot;:null,&quot;origRot&quot;:0}" fill="#26c000" stroke="#000000" stroke-width="2" stroke-linecap="butt"/><path d="M245.17182,196.16974c-0.01856,2.47718 -10.5375,2.39838 -10.51894,-0.07881c0.01856,-2.47718 2.38834,-4.46769 5.29307,-4.44593c2.90472,0.02176 5.24442,2.04755 5.22586,4.52473z" data-paper-data="{&quot;origPos&quot;:null,&quot;origRot&quot;:0}" fill="#26c000" stroke="#000000" stroke-width="2" stroke-linecap="butt"/><path d="M242.35785,196.25264l-1.01016,-7.34243c0,0 -3.43577,0.15029 -4.71932,0.13345c-0.96032,-0.0126 -2.37984,-4.37725 -2.37984,-4.37725c0,0 2.85948,-0.74178 4.10465,-0.23151c1.4789,0.60606 2.62128,2.22495 2.62128,2.22495c0,0 0.22863,-0.04852 0.25006,-0.63408c0.13944,-3.8094 1.86294,-9.70602 1.86294,-9.70602l3.76414,0.13778c0,0 -1.85709,5.80148 -1.98479,9.29038c-0.0254,0.69392 0.04267,0.95751 0.04267,0.95751c0,0 2.62631,-1.84817 3.71235,-2.01478c1.37992,-0.2117 3.75047,0.85962 3.75047,0.85962c0,0 -2.19013,3.29647 -3.53854,3.7258c-1.09322,0.34807 -3.80075,-0.1144 -3.80075,-0.1144l1.089,7.22877z" data-paper-data="{&quot;origPos&quot;:null,&quot;origRot&quot;:0}" fill="#2fe500" stroke="#000000" stroke-width="1.5" stroke-linecap="butt"/><path d="M243.23542,197.90402c0.25541,2.73415 -11.86836,4.24671 -12.12377,1.51257c-0.25541,-2.73415 2.6502,-5.62143 5.85625,-5.92091c3.20605,-0.29948 6.01211,1.6742 6.26752,4.40835z" data-paper-data="{&quot;origPos&quot;:null,&quot;origRot&quot;:0}" fill="#2fe500" stroke="#000000" stroke-width="2" stroke-linecap="butt"/><path d="M256.0693,199.29058c0,2.688 -12.27022,2.43118 -12.27022,-0.25682c0,-2.688 2.55515,-4.86705 5.70708,-4.86705c3.15193,0 6.56315,2.43587 6.56315,5.12387z" data-paper-data="{&quot;origPos&quot;:null}" fill="#2fe500" stroke="#000000" stroke-width="2" stroke-linecap="butt"/><path d="M251.33242,200.30266c0,3.01056 -12.78387,3.01056 -12.78387,0c0,-3.01056 2.86177,-5.4511 6.39193,-5.4511c3.53016,0 6.39193,2.44054 6.39193,5.4511z" data-paper-data="{&quot;origPos&quot;:null}" fill="#2fe500" stroke="#000000" stroke-width="2" stroke-linecap="butt"/><path d="M267.03175,174.67409c-1.89483,1.27555 -5.38841,-0.39126 -6.95183,-1.65416c-1.7788,-1.43688 -3.51383,-3.56508 -1.65639,-5.31615c1.22014,-1.15027 3.92984,-0.68455 6.05227,1.0402c2.12243,1.72476 3.9284,5.00619 2.55595,5.9301z" data-paper-data="{&quot;origPos&quot;:null,&quot;origRot&quot;:0,&quot;index&quot;:null}" fill="url(#color-1)" stroke="#000000" stroke-width="1.5" stroke-linecap="butt"/><path d="M269.44169,156.00756c0.97727,2.36585 -1.95208,5.34242 -3.87168,6.49623c-2.18404,1.31277 -5.16986,2.3427 -6.71734,-0.14907c-1.01652,-1.63684 0.2818,-4.23068 2.89987,-5.79351c2.61808,-1.56282 6.98129,-2.26728 7.68914,-0.55366z" data-paper-data="{&quot;origPos&quot;:null,&quot;origRot&quot;:0,&quot;index&quot;:null}" fill="url(#color-2)" stroke="#000000" stroke-width="1.5" stroke-linecap="butt"/><path d="M264.19905,156.47772c-1.95363,2.06273 -4.72052,3.00347 -6.18002,2.1012c-2.22182,-1.37353 -0.73759,-3.76001 0.90108,-5.48034c1.44028,-1.51203 4.84009,-3.76454 7.02642,-2.86134c1.58359,0.65422 0.20615,4.17774 -1.74749,6.24048z" data-paper-data="{&quot;origPos&quot;:null,&quot;origRot&quot;:0}" fill="url(#color-3)" stroke="#000000" stroke-width="1" stroke-linecap="butt"/><path d="M230.75227,173.30705c1.87585,-1.992 4.4239,-2.63932 5.69125,-1.44587c1.92929,1.8168 0.4592,4.22946 -1.11369,5.88951c-1.38246,1.45905 -4.57355,3.458 -6.49662,2.16233c-1.39291,-0.93848 0.04322,-4.61398 1.91906,-6.60595z" data-paper-data="{&quot;origPos&quot;:null,&quot;origRot&quot;:0}" fill="url(#color-4)" stroke="#000000" stroke-width="1.5" stroke-linecap="butt"/><path d="M262.10898,179.30662c-2.38162,0.72669 -5.61742,-1.80804 -6.91688,-3.44083c-1.47846,-1.85772 -2.71165,-4.37037 -0.2331,-5.56548c1.62814,-0.78505 4.37569,0.38348 6.13681,2.61001c1.76112,2.22653 2.73821,5.86995 1.01318,6.39629z" data-paper-data="{&quot;origPos&quot;:null,&quot;origRot&quot;:0,&quot;index&quot;:null}" fill="url(#color-5)" stroke="#000000" stroke-width="1.5" stroke-linecap="butt"/><path d="M232.92832,151.67337c1.76439,2.24593 2.03635,4.9766 0.60744,6.09915c-2.17523,1.70885 -4.43692,-0.18368 -5.9058,-2.0653c-1.29102,-1.6538 -2.85809,-5.25837 -1.22172,-7.04183c1.18526,-1.29179 4.75568,0.76205 6.52007,3.00798z" data-paper-data="{&quot;origPos&quot;:null,&quot;origRot&quot;:0}" fill="url(#color-6)" stroke="#000000" stroke-width="1.5" stroke-linecap="butt"/><path d="M229.70702,155.65062c1.89024,2.40614 2.1816,5.33159 0.65078,6.53421c-2.33039,1.83075 -4.7534,-0.19678 -6.32705,-2.21261c-1.38312,-1.77175 -3.06195,-5.63344 -1.30886,-7.54413c1.26979,-1.38394 5.09489,0.8164 6.98514,3.22254z" data-paper-data="{&quot;origPos&quot;:null,&quot;origRot&quot;:0}" fill="url(#color-7)" stroke="#000000" stroke-width="1.5" stroke-linecap="butt"/><path d="M255.28289,182.80753c-2.56388,0.41539 -5.48928,-2.50519 -6.56664,-4.28643c-1.22578,-2.02663 -2.0956,-4.67002 0.64215,-5.53652c1.79843,-0.5692 4.43826,0.93732 5.89623,3.36492c1.45798,2.4276 1.88532,6.15716 0.02825,6.45804z" data-paper-data="{&quot;origPos&quot;:null,&quot;origRot&quot;:0,&quot;index&quot;:null}" fill="url(#color-8)" stroke="#000000" stroke-width="1.5" stroke-linecap="butt"/><path d="M227.79679,168.41928c2.80844,-1.15815 5.68244,-0.64854 6.41927,1.13825c1.1217,2.72004 -1.46846,4.48927 -3.81866,5.45003c-2.06563,0.84443 -6.20803,1.40848 -7.56162,-0.78143c-0.98043,-1.58618 2.15255,-4.64869 4.96099,-5.80684z" data-paper-data="{&quot;origPos&quot;:null,&quot;origRot&quot;:0}" fill="url(#color-9)" stroke="#000000" stroke-width="1.5" stroke-linecap="butt"/><path d="M236.2396,175.66109c1.38458,-2.35849 3.75994,-3.74308 5.30547,-3.09257c2.35281,0.99027 1.47232,3.59111 0.30887,5.55965c-1.02255,1.73019 -3.71186,4.51425 -5.93329,3.98251c-1.609,-0.38514 -1.06567,-4.09111 0.31891,-6.44959z" data-paper-data="{&quot;origPos&quot;:null,&quot;origRot&quot;:0}" fill="url(#color-10)" stroke="#000000" stroke-width="1.5" stroke-linecap="butt"/><path d="M260.23883,152.54404c-1.61031,2.28011 -4.1961,3.54558 -5.77553,2.8265c-2.40438,-1.09465 -1.30721,-3.63932 0.04501,-5.54208c1.1885,-1.67238 4.19686,-4.31456 6.49375,-3.68192c1.66367,0.4582 0.84706,4.11741 -0.76325,6.39751z" data-paper-data="{&quot;origPos&quot;:null,&quot;origRot&quot;:0}" fill="url(#color-11)" stroke="#000000" stroke-width="1" stroke-linecap="butt"/><path d="M237.72367,150.20216c1.32217,2.86818 1.11748,5.78173 -0.45721,6.50764c-2.39717,1.10505 -4.26098,-1.54911 -5.35966,-3.9492c-0.96566,-2.10946 -1.8642,-6.32541 0.02443,-7.67282c1.36795,-0.97595 4.47027,2.2462 5.79245,5.11436z" data-paper-data="{&quot;origPos&quot;:null,&quot;origRot&quot;:0}" fill="url(#color-12)" stroke="#000000" stroke-width="1.5" stroke-linecap="butt"/><path d="M255.07889,150.08978c-1.62791,2.77675 -4.38427,4.39335 -6.15652,3.61076c-2.69793,-1.19133 -1.64765,-4.25901 -0.27993,-6.57659c1.20211,-2.03697 4.33943,-5.30562 6.89219,-4.65762c1.849,0.46935 1.17217,4.84669 -0.45574,7.62346z" data-paper-data="{&quot;origPos&quot;:null,&quot;origRot&quot;:0}" fill="url(#color-13)" stroke="#000000" stroke-width="1.5" stroke-linecap="butt"/><path d="M243.01845,146.78973c1.0222,2.85756 0.39297,5.56152 -1.40545,6.03946c-2.73773,0.72759 -4.37353,-1.99901 -5.22062,-4.38921c-0.74453,-2.10079 -1.12123,-6.1669 1.10261,-7.18692c1.61075,-0.73881 4.50125,2.67911 5.52345,5.53668z" data-paper-data="{&quot;origPos&quot;:null,&quot;origRot&quot;:0}" fill="url(#color-14)" stroke="#000000" stroke-width="1.5" stroke-linecap="butt"/><path d="M240.45448,176.47834c0.08658,-3.5609 1.99332,-6.40294 4.25884,-6.34784c3.44883,0.08386 4.12111,3.69976 4.03961,6.67567c-0.07163,2.61557 -1.42679,7.32638 -4.41664,7.74217c-2.16559,0.30116 -3.96839,-4.50909 -3.88181,-8.06998z" data-paper-data="{&quot;origPos&quot;:null,&quot;origRot&quot;:0}" fill="url(#color-15)" stroke="#000000" stroke-width="1.5" stroke-linecap="butt"/><path d="M226.95799,160.40786c3.5609,0.08658 6.40294,1.99332 6.34784,4.25884c-0.08386,3.44883 -3.69976,4.12111 -6.67567,4.03961c-2.61557,-0.07163 -7.32638,-1.42679 -7.74217,-4.41664c-0.30116,-2.16559 4.50909,-3.96839 8.06998,-3.88181z" data-paper-data="{&quot;origPos&quot;:null,&quot;origRot&quot;:0}" fill="url(#color-16)" stroke="#000000" stroke-width="1.5" stroke-linecap="butt"/><path d="M263.51268,168.81724c-3.5609,-0.08658 -6.40429,-1.93739 -6.35089,-4.13391c0.0813,-3.34378 3.69664,-3.99292 6.67256,-3.91171c2.61557,0.07138 7.32732,1.38878 7.74531,4.28793c0.30276,2.0999 -4.50608,3.84426 -8.06697,3.75768z" data-paper-data="{&quot;origPos&quot;:null,&quot;origRot&quot;:0}" fill="url(#color-17)" stroke="#000000" stroke-width="1.5" stroke-linecap="butt"/><path d="M249.22357,148.15478c-0.08658,3.5609 -1.74161,6.40905 -3.69662,6.36151c-2.97613,-0.07236 -3.54428,-3.68574 -3.46404,-6.66168c0.07052,-2.6156 1.25575,-7.33054 3.83744,-7.75625c1.86994,-0.30835 3.4098,4.49551 3.32322,8.05641z" data-paper-data="{&quot;origPos&quot;:null,&quot;origRot&quot;:0}" fill="url(#color-18)" stroke="#000000" stroke-width="1.5" stroke-linecap="butt"/><path d="M246.24744,149.28183c6.6885,0.16262 18.26007,8.0387 18.10987,14.72747c-0.1928,8.5857 -10.8332,14.0538 -19.41895,14.24469c-8.41344,0.18705 -18.82855,-6.56397 -18.66186,-14.97786c0.13401,-6.76432 10.34216,-14.22841 19.97092,-13.9943z" data-paper-data="{&quot;origPos&quot;:null,&quot;origRot&quot;:0}" fill="url(#color-19)" stroke="#000000" stroke-width="2" stroke-linecap="butt"/><path d="M242.22428,159.49302c-0.02262,2.59278 -1.28033,4.7531 -2.80917,4.82518c-1.52882,0.0721 -2.74988,-1.97135 -2.72725,-4.56412c0.02262,-2.59278 1.28033,-4.7531 2.80917,-4.82518c1.52882,-0.0721 2.74986,1.97135 2.72724,4.56411z" data-paper-data="{&quot;origPos&quot;:null,&quot;origRot&quot;:0}" fill="#000000" stroke="none" stroke-width="0" stroke-linecap="butt"/><path d="M254.5369,159.90369c-0.02262,2.59278 -1.28033,4.7531 -2.80917,4.82518c-1.52882,0.0721 -2.74988,-1.97135 -2.72725,-4.56412c0.02262,-2.59278 1.28033,-4.7531 2.80917,-4.82518c1.52882,-0.0721 2.74986,1.97135 2.72724,4.56411z" data-paper-data="{&quot;origPos&quot;:null,&quot;origRot&quot;:0}" fill="#000000" stroke="none" stroke-width="0" stroke-linecap="butt"/><path d="M257.99382,168.59353c0,0 -7.84347,3.2694 -13.05137,2.87619c-5.13644,-0.38781 -11.93796,-3.48376 -11.93796,-3.48376" data-paper-data="{&quot;origPos&quot;:null,&quot;origRot&quot;:0}" fill="none" stroke="#000000" stroke-width="1.5" stroke-linecap="round"/><path d="M240.08064,158.12886c-0.00916,1.0513 -0.51914,1.92726 -1.13904,1.95648c-0.61991,0.02923 -1.115,-0.79933 -1.10583,-1.85063c0.00916,-1.0513 0.51914,-1.92726 1.13904,-1.95648c0.61991,-0.02923 1.115,0.79933 1.10583,1.85063z" data-paper-data="{&quot;origPos&quot;:null,&quot;origRot&quot;:0}" fill="#ffffff" stroke="none" stroke-width="0" stroke-linecap="butt"/><path d="M252.18793,158.5228c-0.00916,1.0513 -0.51914,1.92726 -1.13904,1.95648c-0.61991,0.02923 -1.115,-0.79933 -1.10583,-1.85063c0.00916,-1.0513 0.51914,-1.92726 1.13904,-1.95648c0.61991,-0.02923 1.115,0.79933 1.10583,1.85063z" data-paper-data="{&quot;origPos&quot;:null,&quot;origRot&quot;:0}" fill="#ffffff" stroke="none" stroke-width="0" stroke-linecap="butt"/></g></g></svg>