<svg version="1.1" xmlns="http://www.w3.org/2000/svg" xmlns:xlink="http://www.w3.org/1999/xlink" width="53.44415" height="64.66341" viewBox="0,0,53.44415,64.66341"><g transform="translate(-210.85193,-142.22818)"><g data-paper-data="{&quot;isPaintingLayer&quot;:true}" fill="none" fill-rule="nonzero" stroke="none" stroke-width="none" stroke-linecap="butt" stroke-linejoin="miter" stroke-miterlimit="10" stroke-dasharray="" stroke-dashoffset="0" font-family="none" font-weight="none" font-size="none" text-anchor="none" style="mix-blend-mode: normal"><path d="M230.44787,191.75386c4.73575,0.49542 8.38251,2.73546 8.14527,5.00329c-0.23725,2.26783 -4.26866,3.70464 -9.0044,3.20922c-4.73575,-0.49542 -8.14525,-5.00329 -8.14525,-5.00329c0,0 4.26864,-3.70465 9.00438,-3.20922z" data-paper-data="{&quot;origRot&quot;:0,&quot;origPos&quot;:null,&quot;index&quot;:null}" fill="#2bd900" stroke="#000000" stroke-width="1.5"/><path d="M256.36551,198.11473c0,0 -4.61101,3.26867 -9.27545,2.31171c-4.66444,-0.95696 -8.07423,-3.54345 -7.61598,-5.77714c0.45825,-2.23368 4.61103,-3.26867 9.27546,-2.31172c4.66444,0.95696 7.61597,5.77714 7.61597,5.77714z" data-paper-data="{&quot;origRot&quot;:0,&quot;origPos&quot;:null,&quot;index&quot;:null}" fill="#2bd900" stroke="#000000" stroke-width="1.5"/><path d="M238.54716,197.97972c0,0 -2.19826,-6.77056 -2.96158,-11.13883c-0.60262,-3.44864 -0.53849,-8.891 -0.53849,-8.891l4.43283,-0.7746c0,0 -0.90012,4.53123 -0.38589,7.47407c0.85171,4.87406 3.88596,12.55577 3.88596,12.55577z" data-paper-data="{&quot;origPos&quot;:null,&quot;origRot&quot;:0}" fill="#a9ff59" stroke="#000000" stroke-width="2"/><path d="M218.80661,146.59723c2.46233,3.28946 3.18146,6.912 1.60623,8.09113c-1.57523,1.17915 -4.84833,-0.53161 -7.31066,-3.82108c-2.46233,-3.28946 -1.60623,-8.09113 -1.60623,-8.09113c0,0 4.84833,0.53161 7.31066,3.82108z" data-paper-data="{&quot;origRot&quot;:0,&quot;origPos&quot;:null}" fill="#2fe500" stroke="#000000" stroke-width="1"/><path d="M254.53178,163.54339c0,8.78187 -8.21877,15.90098 -18.35715,15.90098c-10.13837,0 -18.35715,-7.11911 -18.35715,-15.90098c0,-8.78187 8.21877,-15.90097 18.35715,-15.90097c10.13837,0 18.35715,7.11911 18.35715,15.90097z" data-paper-data="{&quot;origPos&quot;:null}" fill="#a9ff59" stroke="#000000" stroke-width="3"/><path d="M241.50721,158.45807c0.63467,2.1835 0.12291,4.31513 -1.14306,4.76112c-1.26596,0.44599 -2.80674,-0.96254 -3.44141,-3.14604c-0.63467,-2.1835 -0.12291,-4.31513 1.14306,-4.76112c1.26596,-0.44599 2.80673,0.96254 3.4414,3.14604z" data-paper-data="{&quot;origPos&quot;:null,&quot;origRot&quot;:0}" fill="#000000" stroke="none" stroke-width="0"/><path d="M247.54382,157.66454c0.4781,1.64486 0.09259,3.25062 -0.86107,3.58659c-0.95367,0.33597 -2.11433,-0.72509 -2.59243,-2.36995c-0.4781,-1.64486 -0.0926,-3.25062 0.86107,-3.58659c0.95367,-0.33597 2.11434,0.72509 2.59244,2.36995z" data-paper-data="{&quot;origPos&quot;:null,&quot;origRot&quot;:0}" fill="#000000" stroke="none" stroke-width="0"/><path d="M263.19214,168.87853c-0.56287,5.68305 -4.15618,9.99226 -8.0259,9.62487c-3.86972,-0.36739 -6.55045,-5.27224 -5.98758,-10.9553c0.56287,-5.68305 4.15619,-9.99226 8.0259,-9.62487c3.86971,0.36739 6.55044,5.27225 5.98757,10.9553z" data-paper-data="{&quot;origPos&quot;:null,&quot;origRot&quot;:0}" fill="#a9ff59" stroke="#000000" stroke-width="2"/><path d="M255.17309,167.98833c-0.23084,2.80439 -1.54152,4.98914 -2.9275,4.87979c-1.38597,-0.10935 -2.3224,-2.47142 -2.09156,-5.2758c0.23084,-2.80438 1.54152,-4.98914 2.92749,-4.87978c1.38597,0.10935 2.32241,2.47141 2.09157,5.2758z" data-paper-data="{&quot;origRot&quot;:0,&quot;origPos&quot;:null}" fill="#84c746" stroke="none" stroke-width="0"/><path d="M240.69345,186.15532c0,1.77518 -1.51132,3.21422 -3.37564,3.21422c-1.86432,0 -3.37563,-1.43905 -3.37563,-3.21422c0,-1.77518 1.51132,-3.21422 3.37563,-3.21422c1.86432,0 3.37564,1.43905 3.37564,3.21422z" data-paper-data="{&quot;origPos&quot;:null}" fill="#a9ff59" stroke="#000000" stroke-width="0.5"/><path d="M230.12042,196.39056c5.04581,-1.31127 9.64528,-0.41547 10.27322,2.00084c0.62793,2.4163 -2.95347,5.43809 -7.99927,6.74936c-5.04581,1.31127 -10.27321,-2.00084 -10.27321,-2.00084c0,0 2.95346,-5.43809 7.99926,-6.74936z" data-paper-data="{&quot;origRot&quot;:0,&quot;origPos&quot;:null}" fill="#2fe500" stroke="#000000" stroke-width="2"/><path d="M255.97692,204.91171c0,0 -5.77245,2.23034 -10.46617,-0.03874c-4.69371,-2.26908 -7.61785,-5.93064 -6.53124,-8.17833c1.0866,-2.24769 5.77246,-2.23035 10.46618,0.03873c4.69371,2.26908 6.53123,8.17834 6.53123,8.17834z" data-paper-data="{&quot;origRot&quot;:0,&quot;origPos&quot;:null,&quot;index&quot;:null}" fill="#2fe500" stroke="#000000" stroke-width="2"/></g></g></svg>