<svg version="1.1" xmlns="http://www.w3.org/2000/svg" xmlns:xlink="http://www.w3.org/1999/xlink" width="59.1517" height="65.66366" viewBox="0,0,59.1517,65.66366"><g transform="translate(-219.22346,-141.1381)"><g data-paper-data="{&quot;isPaintingLayer&quot;:true}" fill="none" fill-rule="nonzero" stroke="none" stroke-width="none" stroke-linecap="butt" stroke-linejoin="miter" stroke-miterlimit="10" stroke-dasharray="" stroke-dashoffset="0" font-family="none" font-weight="none" font-size="none" text-anchor="none" style="mix-blend-mode: normal"><path d="M238.26961,165.48581c-1.85171,1.38998 -6.70865,0.76973 -10.0903,-2.80945c-3.38164,-3.57916 -2.86721,-12.65727 -2.86721,-12.65727c0,0 3.50491,3.2699 4.43661,3.47606c0,0 5.30745,0.57933 7.04771,2.51249c2.29131,2.54529 3.32489,8.08819 1.47318,9.47817z" data-paper-data="{&quot;origRot&quot;:0,&quot;origPos&quot;:null}" fill="#26bd00" stroke="#000000" stroke-width="1"/><path d="M236.9221,164.52546c0.58989,2.2438 -1.37285,6.05276 -5.3289,7.1729c-3.95605,1.12014 -11.27134,-3.73375 -11.27134,-3.73375c0,0 3.73847,-1.37499 4.1867,-2.06324c0,0 2.06378,-4.21019 4.17472,-4.74223c2.77936,-0.70051 7.64894,1.12251 8.23883,3.36631z" data-paper-data="{&quot;origRot&quot;:0,&quot;origPos&quot;:null}" fill="#26bd00" stroke="#000000" stroke-width="1"/><path d="M239.07173,159.29263c-2.34506,0.13798 -6.02473,-2.56428 -6.76349,-6.70633c-0.73878,-4.14203 4.94784,-10.42344 4.94784,-10.42344c0,0 1.02043,3.97719 1.6758,4.55816c0,0 4.07801,2.88219 4.40535,5.0793c0.43099,2.89282 -1.92042,7.35432 -4.26548,7.4923z" data-paper-data="{&quot;origRot&quot;:0,&quot;origPos&quot;:null}" fill="#26bd00" stroke="#000000" stroke-width="1"/><path d="M230.61393,191.3634c4.70628,0.72373 8.2405,3.1374 7.89393,5.39112c-0.34658,2.25371 -4.44273,3.49399 -9.14898,2.77027c-4.70628,-0.72373 -7.8939,-5.39113 -7.8939,-5.39113c0,0 4.44271,-3.49401 9.14896,-2.77028z" data-paper-data="{&quot;origRot&quot;:0,&quot;origPos&quot;:null,&quot;index&quot;:null}" fill="#2bd900" stroke="#000000" stroke-width="1.5"/><path d="M255.90996,195.1778c0,0 -3.48248,4.45173 -8.22567,4.86994c-4.7432,0.41821 -8.75067,-1.08407 -8.95094,-3.35547c-0.20028,-2.2714 3.48251,-4.45175 8.22568,-4.86996c4.7432,-0.41821 8.95093,3.35548 8.95093,3.35548z" data-paper-data="{&quot;origRot&quot;:0,&quot;origPos&quot;:null,&quot;index&quot;:null}" fill="#2bd900" stroke="#000000" stroke-width="1.5"/><path d="M235.69579,195.75071c0,0 3.5327,-6.18003 6.25241,-9.68256c2.14715,-2.76515 6.21823,-6.37759 6.21823,-6.37759l3.55429,2.75989c0,0 -3.95893,2.38098 -5.79116,4.74057c-3.0346,3.90806 -6.67948,11.31956 -6.67948,11.31956z" data-paper-data="{&quot;origPos&quot;:null,&quot;origRot&quot;:0}" fill="#a9ff59" stroke="#000000" stroke-width="2"/><path d="M270.06005,170.09417c-0.64307,8.75829 -9.36109,15.25646 -19.47225,14.51405c-10.11115,-0.7424 -17.78656,-8.44424 -17.14349,-17.20253c0.64307,-8.75829 9.36108,-15.25645 19.47225,-14.51404c10.11115,0.7424 17.78656,8.44424 17.14349,17.20252z" data-paper-data="{&quot;origPos&quot;:null,&quot;origRot&quot;:0}" fill="#a9ff59" stroke="#000000" stroke-width="3"/><path d="M277.37515,175.78725c-0.86729,4.99222 -4.32691,8.57188 -7.72726,7.99538c-3.40035,-0.57653 -5.45378,-5.09086 -4.58648,-10.0831c0.86729,-4.99222 4.32693,-8.57188 7.72726,-7.99538c3.40034,0.57652 5.45376,5.09087 4.58648,10.0831z" data-paper-data="{&quot;origPos&quot;:null,&quot;origRot&quot;:0}" fill="#a9ff59" stroke="#000000" stroke-width="2"/><path d="M270.33711,174.47854c-0.38647,2.46653 -1.6882,4.31462 -2.90753,4.1278c-1.21931,-0.18681 -1.89446,-2.33779 -1.50799,-4.80432c0.38647,-2.46653 1.6882,-4.31462 2.90752,-4.12779c1.21931,0.18681 1.89447,2.33779 1.508,4.80432z" data-paper-data="{&quot;origRot&quot;:0,&quot;origPos&quot;:null}" fill="#84c746" stroke="none" stroke-width="0"/><path d="M230.37732,195.47394c5.11563,-1.00495 9.65279,0.16627 10.13405,2.61602c0.48124,2.44973 -3.27567,5.25031 -8.3913,6.25527c-5.11563,1.00495 -10.13404,-2.61602 -10.13404,-2.61602c0,0 3.27566,-5.25032 8.39129,-6.25527z" data-paper-data="{&quot;origRot&quot;:0,&quot;origPos&quot;:null}" fill="#2fe500" stroke="#000000" stroke-width="2"/><path d="M256.09603,204.67454c0,0 -5.71375,2.37668 -10.46376,0.22793c-4.74999,-2.14876 -7.76648,-5.73462 -6.73749,-8.00927c1.02898,-2.27464 5.71377,-2.3767 10.46377,-0.22794c4.74999,2.14876 6.73748,8.00928 6.73748,8.00928z" data-paper-data="{&quot;origRot&quot;:0,&quot;origPos&quot;:null,&quot;index&quot;:null}" fill="#2fe500" stroke="#000000" stroke-width="2"/><path d="M257.9467,163.0357c0.47308,2.22411 -0.1934,4.31255 -1.48863,4.66464c-1.29522,0.35209 -2.72872,-1.16548 -3.2018,-3.3896c-0.47308,-2.22411 0.1934,-4.31255 1.48863,-4.66464c1.29522,-0.35209 2.72871,1.16548 3.20179,3.3896z" data-paper-data="{&quot;origPos&quot;:null,&quot;origRot&quot;:0}" fill="#000000" stroke="none" stroke-width="0"/><path d="M264.02521,162.68635c0.35637,1.67545 -0.14569,3.24867 -1.12139,3.51391c-0.97571,0.26523 -2.05556,-0.87797 -2.41193,-2.55342c-0.35637,-1.67545 0.14568,-3.24867 1.12139,-3.51391c0.97571,-0.26523 2.05557,0.87797 2.41194,2.55342z" data-paper-data="{&quot;origPos&quot;:null,&quot;origRot&quot;:0}" fill="#000000" stroke="none" stroke-width="0"/><path d="M249.62276,160.88878l-0.46998,-4.55042c0,0 4.75678,0.33958 6.84846,1.35348c2.21718,1.07475 2.29622,4.22266 2.29622,4.22266c0,0 -1.00298,-1.59244 -3.71825,-1.8351c-1.89099,-0.16899 -4.95645,0.80939 -4.95645,0.80939z" data-paper-data="{&quot;origPos&quot;:null,&quot;origRot&quot;:0}" fill="#26bd00" stroke="#000000" stroke-width="0.5"/><path d="M262.72234,159.73698c-2.08207,0.22971 -2.85467,1.56747 -2.85467,1.56747c0,0 0.06794,-2.62522 1.77013,-3.54362c1.60583,-0.86641 5.25314,-1.19753 5.25314,-1.19753l-0.37091,3.79844c0,0 -2.34768,-0.78474 -3.79769,-0.62476z" data-paper-data="{&quot;origPos&quot;:null,&quot;index&quot;:null,&quot;origRot&quot;:0}" fill="#26bd00" stroke="#000000" stroke-width="0.5"/></g></g></svg>