<svg version="1.1" xmlns="http://www.w3.org/2000/svg" xmlns:xlink="http://www.w3.org/1999/xlink" width="80.08294" height="62.95757" viewBox="0,0,80.08294,62.95757"><defs><linearGradient x1="240.19427" y1="191.00524" x2="240.19427" y2="207.40821" gradientUnits="userSpaceOnUse" id="color-1"><stop offset="0" stop-color="#24693c"/><stop offset="1" stop-color="#4ecc71"/></linearGradient><radialGradient cx="239.51009" cy="174.42631" r="21.1235" gradientUnits="userSpaceOnUse" id="color-2"><stop offset="0" stop-color="#b3fa98"/><stop offset="1" stop-color="#05ac26"/></radialGradient><radialGradient cx="229.19851" cy="152.75936" r="14.99911" gradientUnits="userSpaceOnUse" id="color-3"><stop offset="0" stop-color="#036617"/><stop offset="1" stop-color="#037019"/></radialGradient><radialGradient cx="240.63053" cy="173.28836" r="6.67932" gradientUnits="userSpaceOnUse" id="color-4"><stop offset="0" stop-color="#adeba3"/><stop offset="1" stop-color="#32c144"/></radialGradient><linearGradient x1="235.63763" y1="181.77783" x2="235.27324" y2="199.57529" gradientUnits="userSpaceOnUse" id="color-5"><stop offset="0" stop-color="#a8d9ab"/><stop offset="1" stop-color="#50d844"/></linearGradient><radialGradient cx="238.764" cy="174.71681" r="11.33088" gradientUnits="userSpaceOnUse" id="color-6"><stop offset="0" stop-color="#a5f48f"/><stop offset="1" stop-color="#32c144"/></radialGradient><linearGradient x1="248.19722" y1="163.31847" x2="247.83664" y2="180.92971" gradientUnits="userSpaceOnUse" id="color-7"><stop offset="0" stop-color="#baffa7"/><stop offset="1" stop-color="#82ff63"/></linearGradient><radialGradient cx="197.99229" cy="152.44018" r="10.59119" gradientUnits="userSpaceOnUse" id="color-8"><stop offset="0" stop-color="#c8d6ca"/><stop offset="1" stop-color="#05ad27"/></radialGradient><radialGradient cx="192.47981" cy="156.6592" r="9.57427" gradientUnits="userSpaceOnUse" id="color-9"><stop offset="0" stop-color="#83dd6c"/><stop offset="1" stop-color="#28bd46"/></radialGradient><radialGradient cx="203.67026" cy="156.28971" r="7.29369" gradientUnits="userSpaceOnUse" id="color-10"><stop offset="0" stop-color="#83dd6c"/><stop offset="1" stop-color="#5dc572"/></radialGradient><linearGradient x1="197.15653" y1="157.58845" x2="198.8418" y2="170.07526" gradientUnits="userSpaceOnUse" id="color-11"><stop offset="0" stop-color="#53db7a"/><stop offset="1" stop-color="#24693c"/></linearGradient></defs><g transform="translate(-185.92153,-144.93761)"><g data-paper-data="{&quot;isPaintingLayer&quot;:true}" fill="none" fill-rule="nonzero" stroke="none" stroke-width="none" stroke-linecap="none" stroke-linejoin="miter" stroke-miterlimit="10" stroke-dasharray="" stroke-dashoffset="0" font-family="none" font-weight="none" font-size="none" text-anchor="none" style="mix-blend-mode: normal"><path d="M265.50447,196.78898c0,2.05192 -4.46233,5.3969 -5.99869,5.1516c-2.211,-0.35301 -7.33647,-4.94385 -7.33647,-4.94385c0,0 3.94658,2.47919 5.06352,4.47218c1.09713,1.95763 1.60555,5.11132 -0.57043,5.66005c-0.81875,0.20647 -2.25973,-4.07958 -3.04313,-3.76452c-0.51129,0.20562 -0.20078,0.90011 -0.39866,1.41446c-0.48513,1.26101 -0.65474,2.07082 -2.00368,2.1474c-2.54931,0.14472 -1.21167,-3.82453 -3.65419,-3.08021c-1.3397,0.40825 -1.1077,1.11468 -2.17422,2.02242c-2.09749,1.78521 -2.63345,1.52666 -5.3878,1.52666c-3.37785,0 -7.03408,-6.82012 -7.03408,-6.82012c0,0 -9.27918,5.80446 -14.23348,3.40515c-1.85279,-0.89729 1.05445,-3.69416 2.6697,-4.97045c1.36434,-1.07803 4.18869,-1.43148 4.18869,-1.43148c0,0 -4.97845,1.0473 -7.10801,0.24077c-1.79846,-0.68114 -3.59951,-2.29397 -3.59951,-4.2171c0,-1.27932 7.86551,-0.1749 7.86551,-0.1749c0,0 -3.96234,-1.47362 -2.2704,-1.93843c6.91241,-1.899 31.59011,2.37702 33.85978,2.86475c0.75656,0.16258 7.08018,-1.36996 7.557,-0.76049c0.73094,0.93429 -2.67507,3.70814 -2.67507,3.70814c0,0 6.28359,-4.13562 6.28359,-0.51203z" data-paper-data="{&quot;origPos&quot;:null}" fill="url(#color-1)" stroke="#0f2c13" stroke-width="1" stroke-linecap="butt"/><path d="M220.14412,175.28479l0.05661,-2.7657l2.48912,0.05096l-0.05661,2.7657z" data-paper-data="{&quot;origPos&quot;:null,&quot;origRot&quot;:0}" fill="#1c5324" stroke="none" stroke-width="0" stroke-linecap="butt"/><path d="M261.84282,181.35581c-0.22384,10.93226 -9.398,19.61049 -21.84643,19.35564c-12.44843,-0.25488 -19.61161,-9.26759 -19.3878,-20.19985c0.15643,-7.64024 2.21776,-10.12742 5.80866,-11.41839c2.6,-0.93473 1.3322,-4.27558 2.1132,-6.92584c0.44222,-1.50069 1.82378,-3.16194 3.14708,-2.32734c2.03821,1.28551 4.64939,3.96992 4.64939,3.96992c0,0 0.66703,-4.50423 2.82093,-2.90773c2.41887,1.79293 4.30877,2.54883 6.12197,4.35199c0,0 16.79689,5.16932 16.57306,16.10158z" data-paper-data="{&quot;origPos&quot;:null,&quot;origRot&quot;:0}" fill="url(#color-2)" stroke="#000000" stroke-width="1.5" stroke-linecap="butt"/><path d="M251.39913,187.26875c0.23007,2.26219 -0.65813,4.26645 -1.98382,4.47654c-1.32568,0.21015 -2.58686,-1.45343 -2.8169,-3.71563c-0.23007,-2.26219 0.65813,-4.26645 1.98382,-4.47654c1.32568,-0.21015 2.58685,1.45344 2.81688,3.71564z" data-paper-data="{&quot;origPos&quot;:null,&quot;origRot&quot;:0}" fill="#000000" stroke="none" stroke-width="0" stroke-linecap="butt"/><path d="M257.24928,185.48081c0.15239,1.70613 -0.5351,3.20762 -1.5356,3.35364c-1.00052,0.14603 -1.93512,-1.11867 -2.08756,-2.82483c-0.15239,-1.70613 0.53509,-3.20763 1.5356,-3.35364c1.00052,-0.14603 1.93517,1.11868 2.08758,2.82481z" data-paper-data="{&quot;origPos&quot;:null,&quot;origRot&quot;:0}" fill="#000000" stroke="none" stroke-width="0" stroke-linecap="butt"/><path d="M236.76155,164.6504c0.28106,-1.13615 2.12205,-1.61576 2.13309,-1.59567c0.94267,-0.17387 1.13829,0.25075 1.31208,0.7005c0.52143,1.34923 4.71419,4.57639 4.71419,4.57639c0,0 -8.71757,-1.42478 -8.15937,-3.68124z" data-paper-data="{&quot;origPos&quot;:null,&quot;index&quot;:null,&quot;origRot&quot;:0}" fill="#287732" stroke="none" stroke-width="0" stroke-linecap="butt"/><path d="M234.543,166.80281l-6.38974,-12.47106c0,0 -2.76357,-0.66705 -4.92851,0.26283c-5.35634,2.30062 -13.67731,7.9249 -13.67731,7.9249l1.10116,-3.3542c0,0 5.87103,-4.03462 9.86698,-5.92504c3.84371,-1.8184 9.51231,-2.12515 9.51231,-2.12515l10.49806,16.65236z" data-paper-data="{&quot;origPos&quot;:null,&quot;origRot&quot;:0}" fill="url(#color-3)" stroke="#0f2c13" stroke-width="0.5" stroke-linecap="butt"/><path d="M236.61777,176.41096c0,0 -2.48094,-7.52798 1.17973,-10.57159c1.43134,0.18761 1.58151,0.92611 3.04876,0.78565c0.81233,-0.07777 -1.39708,-3.32916 -0.59175,-3.46087c1.28262,-0.20975 3.25785,0.6824 4.34235,1.39865c1.92813,1.27342 4.51864,2.7927 4.51864,2.7927c0,0 -1.15204,3.50423 -4.66416,6.42435c-2.07729,1.72713 -7.83354,2.63113 -7.83354,2.63113z" data-paper-data="{&quot;origPos&quot;:null,&quot;origRot&quot;:0}" fill="url(#color-4)" stroke="#256d2f" stroke-width="0.5" stroke-linecap="butt"/><path d="M249.6102,186.6877c0.10435,1.02623 -0.29856,1.93541 -0.89995,2.03076c-0.60138,0.09532 -1.17349,-0.65935 -1.27784,-1.68556c-0.10435,-1.02623 0.29856,-1.93541 0.89995,-2.03076c0.60138,-0.09532 1.17349,0.65935 1.27784,1.68555z" data-paper-data="{&quot;origPos&quot;:null,&quot;origRot&quot;:0}" fill="#ffffff" stroke="none" stroke-width="0" stroke-linecap="butt"/><path d="M255.69449,184.71304c0.05198,0.58184 -0.18247,1.09389 -0.52367,1.14369c-0.34117,0.0498 -0.65991,-0.38148 -0.71191,-0.96333c-0.05198,-0.58184 0.18247,-1.09389 0.52367,-1.14369c0.34117,-0.0498 0.65992,0.38149 0.7119,0.96333z" data-paper-data="{&quot;origPos&quot;:null,&quot;origRot&quot;:0}" fill="#ffffff" stroke="none" stroke-width="0" stroke-linecap="butt"/><path d="M230.14714,169.28952c0,0 -0.44221,-5.63889 0.13401,-6.96563c0.19206,-0.44225 0.41309,-1.2597 1.34789,-1.04742c0.01184,-0.01962 1.82838,0.69542 2.06272,1.84215c0.4654,2.27739 -0.11548,0.78245 -0.11548,0.78245z" data-paper-data="{&quot;origPos&quot;:null,&quot;origRot&quot;:0}" fill="#287732" stroke="none" stroke-width="0" stroke-linecap="butt"/><path d="M241.41259,182.46576c0,0 1.0484,-5.56799 2.71944,-5.37745c3.44895,0.39331 5.25557,4.28928 5.25557,4.28928c0,0 -2.86569,-1.36739 -4.25264,-1.17816c-1.72539,0.23544 -3.72237,2.2663 -3.72237,2.2663z" data-paper-data="{&quot;origPos&quot;:null,&quot;origRot&quot;:0}" fill="#05ac26" stroke="#000000" stroke-width="0.5" stroke-linecap="butt"/><path d="M253.53576,180.47172c0,0 0.48279,-3.53237 2.1953,-4.43137c1.61558,-0.84809 4.46738,3.56434 4.46738,3.56434c0,0 -2.14424,-1.35699 -3.59596,-1.2135z" data-paper-data="{&quot;origPos&quot;:null,&quot;index&quot;:null,&quot;origRot&quot;:0}" fill="#05ac26" stroke="#000000" stroke-width="0.5" stroke-linecap="butt"/><path d="M229.46639,196.6636c-9.19489,-5.72274 -7.8064,-15.17195 -7.8064,-15.17195c0,0 1.77201,2.35292 3.41656,3.59182c2.85555,2.15123 5.21854,3.00614 8.2596,4.886c1.05946,0.6549 3.28253,1.0235 4.23712,1.82352c1.02932,0.86268 1.15527,2.02674 1.90675,3.13982c0.54436,0.80632 1.18964,0.72291 2.04892,1.17918c2.87868,1.52853 7.80571,2.09303 7.80571,2.09303c0,0 -10.67332,4.18135 -19.86823,-1.5414z" data-paper-data="{&quot;origPos&quot;:null,&quot;origRot&quot;:0}" fill="url(#color-5)" stroke="#287732" stroke-width="0" stroke-linecap="butt"/><path d="M221.53618,184.72586c0,0 -2.86944,-6.52063 -1.37543,-10.28422c1.49401,-3.76359 4.91272,-1.76807 6.60282,-3.12026c1.77541,-1.42041 2.08701,-1.42296 3.65079,-3.0735c1.19377,-1.25995 0.94698,-4.11 2.38417,-5.0832c0.99726,-0.67529 1.82776,0.24252 3.00311,0.50526c1.28373,0.28699 1.29764,4.56304 1.29764,4.56304c0,0 2.89268,-0.4977 2.42378,1.66139c-0.40391,1.85979 -1.58426,1.09909 -1.52176,3.00121c0.07522,2.28984 2.63403,-0.27222 2.36445,2.00296c-0.41846,3.53169 -0.75392,5.20312 -3.03665,7.93025c0,0 -5.62241,1.97344 -8.59824,2.25609c-3.59315,0.3413 -7.19474,-0.35904 -7.19474,-0.35904z" data-paper-data="{&quot;origPos&quot;:null,&quot;origRot&quot;:0}" fill="url(#color-6)" stroke="#256d2f" stroke-width="0.5" stroke-linecap="butt"/><path d="M221.24053,188.74833c-0.81032,-2.01948 0.20712,-2.60983 -0.82155,-4.44625c-0.44883,-0.80128 -0.93912,-0.31138 -1.85258,-0.40662c-1.24301,-0.1296 -2.82634,-0.16154 -3.08399,-1.38442c-0.28864,-1.37005 2.04149,-3.20361 2.04149,-3.20361c0,0 -4.34171,-0.6205 -4.13998,-3.50637c0.20921,-2.9927 4.45241,-2.79861 4.87128,-3.47644c0.70497,-1.14083 -0.06428,-2.36912 1.25141,-2.62865c0.84578,-0.16684 2.51333,2.70011 2.45094,1.84027c-0.08085,-1.11374 3.37711,0.17831 3.37711,0.17831l-2.53973,1.50808c0,0 -2.31185,0.55031 -2.17433,2.51852c0.26167,3.745 -0.40397,3.51745 2.06633,6.34429c1.22016,1.39627 3.49771,5.04254 5.33583,4.61814c0.76489,1.64614 3.19764,1.6633 4.77135,2.56785c2.04407,1.17487 5.12253,3.09046 5.12253,3.09046c0,0 -2.74435,-1.06999 -3.76251,-1.02465c-2.87791,0.12818 -2.41173,0.89494 -5.09589,-0.15098c-1.1556,-0.45029 -1.40133,-1.60962 -2.58804,-1.97004c-2.70626,-0.82193 -4.41928,1.55159 -5.22963,-0.46788z" data-paper-data="{&quot;origPos&quot;:null,&quot;origRot&quot;:0}" fill="#98ff7e" stroke="#256d2f" stroke-width="1" stroke-linecap="butt"/><path d="M238.58083,180.74021c0,0 0.72378,-1.21406 0.9266,-1.98657c0.3121,-1.18887 0.57975,-2.96984 0.57975,-2.96984c0.61347,-1.16593 1.29232,-1.44628 2.14677,-2.44908c0.78229,-0.91814 1.92193,-2.55046 1.92193,-2.55046c0.94953,-1.07342 5.13076,-3.91586 5.13076,-3.91586l-3.79966,-1.96203c0,0 1.31666,-0.57906 2.04085,-0.81281c4.1485,-1.33903 9.64412,-0.78305 9.86624,2.02759c0.13541,1.71345 -3.7024,-0.0662 -5.57041,2.04553c-0.7873,0.89004 0.80751,3.11755 -0.19469,4.27523c-0.81873,0.94574 -3.7079,-1.84661 -4.53883,-0.91153c-0.58516,0.65849 -0.33299,3.03378 -1.00331,3.51622c-1.06099,0.76362 -0.99938,0.0773 -2.26547,-0.24806c-0.53913,-0.13857 -0.90673,0.18033 -1.30532,0.56893c-1.64556,1.60435 -0.19948,2.53749 -1.91423,4.06765c-1.20076,1.0715 -2.02094,1.30506 -2.02094,1.30506z" data-paper-data="{&quot;origPos&quot;:null,&quot;origRot&quot;:0}" fill="url(#color-7)" stroke="#256d2f" stroke-width="1" stroke-linecap="butt"/><path d="M249.45021,165.06119c0,0 3.43549,0.22044 2.55779,0.72811c-2.91246,1.68454 -4.43363,1.6422 -6.92355,3.9051c-1.27394,1.15781 -2.34234,3.1005 -3.53632,4.34059c-3.27236,3.39875 -0.7938,5.90036 -4.5986,8.69027c-2.84875,2.08886 -10.31906,2.68958 -10.31906,2.68958" data-paper-data="{&quot;origPos&quot;:null,&quot;origRot&quot;:0}" fill="none" stroke="#287732" stroke-width="0.5" stroke-linecap="round"/><path d="M249.43084,198.16456c0,0 -2.53506,-0.40337 -4.24345,-0.91232c-1.83565,-0.54686 -3.0644,-1.08481 -4.77163,-1.95315c-2.9628,-1.50694 -0.70697,-2.18802 -3.57392,-3.87019c-4.06231,-2.38355 -9.07929,-4.31434 -12.59162,-7.45235c-2.59158,-2.31543 -4.75307,-6.50748 -3.06409,-9.4948c0.70438,-1.24588 1.59482,-1.38009 1.59482,-1.38009" data-paper-data="{&quot;origPos&quot;:null,&quot;origRot&quot;:0}" fill="none" stroke="#287732" stroke-width="0.5" stroke-linecap="round"/><path d="M210.50878,159.80526c-0.02038,6.03164 -5.40948,10.90309 -12.03684,10.88071c-6.62737,-0.02241 -11.98341,-4.93018 -11.96302,-10.96181c0.02038,-6.03164 24.02025,-5.95055 23.99986,0.0811z" data-paper-data="{&quot;origPos&quot;:null,&quot;origRot&quot;:0}" fill="#2e8149" stroke="#0f2c13" stroke-width="0.5" stroke-linecap="butt"/><path d="M187.43523,159.04161c-0.85186,-5.78699 3.11198,-11.41896 8.89901,-12.27085c5.78699,-0.85186 11.20569,3.39894 12.05756,9.18594c0.85186,5.78699 -3.11198,11.41898 -8.899,12.27086c-5.78699,0.85186 -11.20567,-3.39894 -12.05756,-9.18595z" data-paper-data="{&quot;origPos&quot;:null,&quot;origRot&quot;:0}" fill="url(#color-8)" stroke="#000000" stroke-width="1" stroke-linecap="butt"/><path d="M206.10749,163.06147c-1.56942,2.29562 -2.21149,2.18248 -3.65118,2.36664c-2.75208,0.35204 -7.14868,-1.13279 -7.14868,-1.13279c0,0 4.17271,-1.49909 5.99735,-3.6001c1.62663,-1.87304 2.12152,-4.04225 1.10323,-6.30435c-0.67199,-1.49271 -1.92037,-2.36849 -2.1891,-3.9833c-0.15111,-0.90811 0.90655,-2.43247 0.90655,-2.43247c0,0 0.66284,0.64592 2.394,1.32227c1.16215,0.45405 1.89592,1.91049 2.71173,2.85456c1.10845,1.28266 1.19005,2.5701 1.43697,4.24727c0.55622,3.7785 -0.09386,4.5165 -1.56087,6.66231z" data-paper-data="{&quot;origPos&quot;:null,&quot;index&quot;:null,&quot;origRot&quot;:0}" fill="#27b33c" stroke="#1c802b" stroke-width="0.5" stroke-linecap="butt"/><path d="M188.14542,159.04359c-0.29937,-2.03383 -0.14892,-3.63174 0.68997,-5.50852c0.61744,-1.38134 1.5405,-2.89784 2.73136,-3.8312c1.77392,-1.39034 4.71788,-2.2088 4.71788,-2.2088c0,0 -2.50811,5.66825 -2.73289,7.37829c-0.39204,2.98263 0.94066,5.32863 3.48407,6.93516c2.85301,1.8021 8.22223,2.08473 8.22223,2.08473c0,0 -3.69604,4.66486 -7.88103,3.73462c0,0 -3.13125,-0.40619 -4.93345,-1.72657c-2.30757,-1.69062 -3.62368,-2.27581 -4.29817,-6.85779z" data-paper-data="{&quot;origPos&quot;:null,&quot;origRot&quot;:0}" fill="#27b33c" stroke="#1c802b" stroke-width="0.5" stroke-linecap="butt"/><path d="M193.44355,156.26174c0,0 2.45153,-3.87785 4.07588,-4.1325c0.86367,-0.13541 1.10338,1.90918 1.86169,2.34419c0.74383,0.42668 0.66754,-0.73428 1.525,-0.73971c0.33115,-0.00207 1.44697,1.13132 1.44697,1.13132" data-paper-data="{&quot;origPos&quot;:null,&quot;origRot&quot;:0}" fill="none" stroke="#1c802b" stroke-width="0.5" stroke-linecap="round"/><path d="M198.63906,147.57444c0,0 -0.76943,0.79873 -0.87258,1.36169c-0.11933,0.65116 1.30886,0.82057 1.32646,1.48236c0.01655,0.62108 -1.30422,1.7961 -1.30422,1.7961" data-paper-data="{&quot;origPos&quot;:null,&quot;origRot&quot;:0}" fill="none" stroke="#1c802b" stroke-width="0.5" stroke-linecap="round"/><path d="M190.79269,157.92977c-0.0617,-1.34234 0.63027,-0.50442 1.15077,-1.7433c0.19779,-0.47073 -1.23682,-1.95781 -1.0465,-2.43158c0.43823,-1.09097 0.86505,-0.67216 1.61179,-1.58024c0.80262,-0.97598 -2.09885,-3.27671 -1.34532,-4.29109c0.63276,-0.85183 1.45596,0.68748 2.51584,0.63649c0.72642,-0.03495 -0.14878,-2.94795 0.46855,-3.33244c0.53611,-0.33389 0.66194,0.81201 1.0753,1.28958c0.16774,0.19377 0.94461,-1.00582 1.14917,-0.85138c0.21027,0.15875 1.19244,0.48852 1.16955,0.75099c-0.02632,0.30132 -0.7108,-0.17233 -0.97467,-0.02455c-0.29344,0.16433 -0.36098,0.89883 -0.36098,0.89883c0,0 -2.09205,4.35528 -2.58004,6.95944c-0.41633,2.22171 -0.19406,3.26079 0.87722,5.25121c1.6515,3.06837 6.3133,4.06314 6.3133,4.06314c0,0 -9.88643,-2.60369 -10.02395,-5.59505z" data-paper-data="{&quot;origPos&quot;:null,&quot;origRot&quot;:0}" fill="url(#color-9)" stroke="#256d2f" stroke-width="0.5" stroke-linecap="butt"/><path d="M202.11351,160.18194c0,0 1.76685,-3.62461 0.60564,-5.88695c-0.96364,-1.87738 -1.95901,-1.93813 -2.31329,-3.9109c-0.40013,-2.22829 0.91365,-3.11908 0.91365,-3.11908c0,0 -1.57377,-1.53837 -1.23986,-1.13416c0.49058,0.59389 1.27706,-1.00587 1.89754,-0.54939c0.43084,0.31697 0.0779,0.55395 0.5752,1.6334c0.16248,0.35265 1.06368,0.61754 1.10154,1.00393c0.07339,0.74897 -0.94359,1.14326 -1.03185,1.89067c-0.12408,1.05115 2.67985,2.05736 2.8483,3.10227c0.32673,2.02694 -0.24467,0.5588 -1.20463,2.16367c-0.85943,1.4368 1.23805,-0.01648 1.3465,1.65421c0.1709,2.63309 -3.49878,3.15227 -3.49878,3.15227z" data-paper-data="{&quot;origPos&quot;:null,&quot;origRot&quot;:0}" fill="url(#color-10)" stroke="#256d2f" stroke-width="0.5" stroke-linecap="butt"/><path d="M186.17972,161.13687c-0.06562,-0.64025 0.08898,-1.97799 0.08898,-1.97799c0,0 1.49406,0.97139 1.72184,1.3634c0.68332,1.17594 0.87079,2.77859 0.87079,2.77859c0,0 0.10139,-1.66054 2.16088,-1.35138c0.65554,0.0984 1.2172,2.00613 1.2172,2.00613c0,0 1.81725,-2.40742 3.06804,-1.47619c1.51707,1.1295 2.02175,2.81538 2.02175,2.81538c0,0 1.44447,-2.73067 2.38328,-2.66803c2.12272,0.14165 3.55132,0.96269 3.55132,0.96269c0,0 -1.94551,-0.71033 -1.04421,-2.48802c0.6643,-1.31028 3.99194,-0.74388 3.99194,-0.74388c0,0 -0.82046,-1.50582 -0.49534,-2.39064c0.42998,-1.17013 1.75862,-0.22874 1.75862,-0.22874l0.11954,-2.06295c0,0 2.48015,2.19899 2.72491,3.60978c0.32702,1.88486 -0.32253,3.44115 -1.16338,5.15949c-1.84996,3.78059 -6.20261,6.42339 -10.41132,6.46692c-2.24234,0.02317 -3.60458,-0.53639 -5.74706,-1.19839c0,0 -3.18899,-1.48052 -4.64965,-3.53018c-1.08564,-1.52346 -1.97124,-3.12521 -2.16818,-5.04593z" data-paper-data="{&quot;origPos&quot;:null,&quot;origRot&quot;:0}" fill="url(#color-11)" stroke="#0f2c13" stroke-width="0.5" stroke-linecap="butt"/></g></g></svg>