<svg version="1.1" xmlns="http://www.w3.org/2000/svg" xmlns:xlink="http://www.w3.org/1999/xlink" width="47.06722" height="59.52822"><defs><linearGradient x1="240" y1="151.23654" x2="240" y2="208.7635" gradientUnits="userSpaceOnUse" id="color-1"><stop offset="0" stop-color="#e6ae61"/><stop offset="1" stop-color="#cf8b2c"/></linearGradient></defs><g transform="translate(-217.39424,-150.23656)"><g data-paper-data="{&quot;isPaintingLayer&quot;:true}" fill="none" fill-rule="nonzero" stroke="none" stroke-width="none" stroke-linecap="none" stroke-linejoin="miter" stroke-miterlimit="10" stroke-dasharray="" stroke-dashoffset="0" font-family="none" font-weight="none" font-size="none" text-anchor="none" style="mix-blend-mode: normal"><path d="M263.46146,186.62755c0,1.65894 0.21196,1.00446 -0.01871,2.64728c-0.2055,1.46361 -0.20406,2.74226 -0.77339,3.68727c-0.18978,0.315 -0.56382,2.87679 -0.74644,3.196c-0.94922,1.65912 -1.1135,3.29292 -2.3689,4.73434c-1.94823,2.2369 -4.11782,4.06949 -6.71825,5.49676c-4.57115,2.50891 -7.62137,2.37432 -12.83577,2.37432c-4.30489,0 -6.66746,-0.2601 -10.6234,-1.95796c-1.81899,-0.7807 -3.00187,-0.70924 -4.30449,-2.19967c-0.95486,-1.09253 -2.25567,-1.73535 -3.10642,-2.91077c-1.49832,-2.07014 -1.46498,-3.2982 -2.64171,-5.56662c-1.23007,-2.37125 -0.76527,-3.68522 -0.88845,-6.35369c-0.03279,-0.71044 -0.04129,-3.23134 -0.04129,-3.94254c0,-1.99893 0.08138,-2.86426 0.43996,-4.83077c0.54961,-3.01415 1.18161,-4.9008 2.04696,-7.8399c0.78486,-2.66571 0.80092,-4.13449 1.85365,-6.70621c0.66574,-1.62634 0.29068,-2.25804 1.10218,-3.81677c1.12199,-2.15511 2.49611,-3.45248 4.17493,-5.20888c0.99375,-1.03967 1.05925,-1.85575 2.16375,-2.77691c3.05893,-2.55118 5.84115,-3.41627 9.82432,-3.41627c0,0 5.94512,0.78106 8.99866,2.72998c4.68049,2.98732 6.71857,6.49925 9.25812,11.43705c3.79666,7.38209 5.20469,5.33836 5.20469,21.22399z" data-paper-data="{&quot;origPos&quot;:null}" fill="url(#color-1)" stroke="#000000" stroke-width="2" stroke-linecap="butt"/><path d="M236.78537,207.28104c0,0 -10.0525,-14.30339 -9.69949,-24.29442c0.21113,-5.9753 2.27844,-20.78988 6.63313,-24.99526c5.40202,-5.21679 11.81471,-3.73537 11.81471,-3.73537" data-paper-data="{&quot;origPos&quot;:null}" fill="none" stroke="#9f6f2c" stroke-width="2" stroke-linecap="round"/><path d="M234.39947,172.15512c0,-2.85503 2.31445,-5.16948 5.16948,-5.16948c2.85503,0 5.16948,2.31445 5.16948,5.16948c0,2.85503 -2.31445,5.16948 -5.16948,5.16948c-2.85503,0 -5.16948,-2.31445 -5.16948,-5.16948z" data-paper-data="{&quot;origPos&quot;:null}" fill="#ffffff" stroke="#000000" stroke-width="0.5" stroke-linecap="butt"/><path d="M248.67801,170.12993c0,-2.19617 1.78035,-3.97652 3.97652,-3.97652c2.19617,0 3.97652,1.78035 3.97652,3.97652c0,2.19617 -1.78035,3.97652 -3.97652,3.97652c-2.19617,0 -3.97652,-1.78035 -3.97652,-3.97652z" data-paper-data="{&quot;origPos&quot;:null}" fill="#ffffff" stroke="#000000" stroke-width="0.5" stroke-linecap="butt"/><path d="M250.57064,178.91519c0,0 -1.64575,1.7607 -3.03847,2.03924c-1.19376,0.23876 -3.58906,-0.71373 -3.58906,-0.71373" data-paper-data="{&quot;origPos&quot;:null}" fill="none" stroke="#000000" stroke-width="0.5" stroke-linecap="round"/><path d="M241.0874,171.75747c0,-0.55228 0.44772,-1 1,-1c0.55228,0 1,0.44772 1,1c0,0.55228 -0.44772,1 -1,1c-0.55228,0 -1,-0.44772 -1,-1z" data-paper-data="{&quot;origPos&quot;:null}" fill="#000000" stroke="none" stroke-width="0.5" stroke-linecap="butt"/><path d="M253.28206,169.90174c0,-0.55228 0.44772,-1 1,-1c0.55228,0 1,0.44772 1,1c0,0.55228 -0.44772,1 -1,1c-0.55228,0 -1,-0.44772 -1,-1z" data-paper-data="{&quot;origPos&quot;:null}" fill="#000000" stroke="none" stroke-width="0.5" stroke-linecap="butt"/></g></g></svg>