<svg version="1.1" xmlns="http://www.w3.org/2000/svg" xmlns:xlink="http://www.w3.org/1999/xlink" width="59.52579" height="68.26985" viewBox="0,0,59.52579,68.26985"><g transform="translate(-204.70243,-138.5319)"><g data-paper-data="{&quot;isPaintingLayer&quot;:true}" fill="none" fill-rule="nonzero" stroke="none" stroke-width="none" stroke-linecap="none" stroke-linejoin="miter" stroke-miterlimit="10" stroke-dasharray="" stroke-dashoffset="0" font-family="none" font-weight="none" font-size="none" text-anchor="none" style="mix-blend-mode: normal"><path d="M223.4638,162.71529c-1.72063,1.54929 -6.61351,1.36384 -10.30033,-1.90013c-3.68681,-3.26394 -3.9825,-12.35181 -3.9825,-12.35181c0,0 3.78206,2.94494 4.72841,3.06734c0,0 5.33795,0.1046 7.24338,1.87518c2.50878,2.33122 4.03166,7.76012 2.31102,9.30942z" data-paper-data="{&quot;origRot&quot;:0,&quot;origPos&quot;:null}" fill="#26bd00" stroke="#000000" stroke-width="1" stroke-linecap="butt"/><path d="M222.03614,161.8787c0.78728,2.18238 -0.82862,6.15094 -4.66926,7.61877c-3.84063,1.46784 -11.55895,-2.71562 -11.55895,-2.71562c0,0 3.60123,-1.70231 3.98642,-2.42772c0,0 1.68082,-4.37718 3.73603,-5.09501c2.70597,-0.94512 7.7185,0.43719 8.50577,2.61958z" data-paper-data="{&quot;origRot&quot;:0,&quot;origPos&quot;:null}" fill="#26bd00" stroke="#000000" stroke-width="1" stroke-linecap="butt"/><path d="M223.71145,156.47529c-2.32347,0.34617 -6.22907,-2.01781 -7.3336,-6.07766c-1.10455,-4.05983 4.00037,-10.82248 4.00037,-10.82248c0,0 1.37041,3.87057 2.07489,4.3909c0,0 4.31838,2.50775 4.83998,4.667c0.68678,2.84297 -1.25816,7.49607 -3.58163,7.84224z" data-paper-data="{&quot;origRot&quot;:0,&quot;origPos&quot;:null}" fill="#26bd00" stroke="#000000" stroke-width="1" stroke-linecap="butt"/><path d="M230.88219,191.82182c4.65688,0.99311 8.04649,3.60599 7.57092,5.83605c-0.47558,2.23006 -4.63626,3.23279 -9.29312,2.23968c-4.65688,-0.99311 -7.5709,-5.83605 -7.5709,-5.83605c0,0 4.63624,-3.2328 9.2931,-2.23969z" data-paper-data="{&quot;origRot&quot;:0,&quot;origPos&quot;:null,&quot;index&quot;:null}" fill="#2bd900" stroke="#000000" stroke-width="1.5" stroke-linecap="butt"/><path d="M256.55728,197.22044c0,0 -4.15784,3.82857 -8.90611,3.47264c-4.74828,-0.35594 -8.45934,-2.48775 -8.2889,-4.76158c0.17044,-2.27383 4.15786,-3.82858 8.90612,-3.47265c4.74828,0.35594 8.28889,4.76159 8.28889,4.76159z" data-paper-data="{&quot;origRot&quot;:0,&quot;origPos&quot;:null,&quot;index&quot;:null}" fill="#2bd900" stroke="#000000" stroke-width="1.5" stroke-linecap="butt"/><path d="M237.84499,197.92445c0,0 -1.73551,-6.90368 -2.20176,-11.31356c-0.3681,-3.48149 0.06382,-8.90706 0.06382,-8.90706l4.47506,-0.47315c0,0 -1.20439,4.46001 -0.89029,7.43088c0.52025,4.92049 3.02824,12.78975 3.02824,12.78975z" data-paper-data="{&quot;origPos&quot;:null,&quot;origRot&quot;:0}" fill="#a9ff59" stroke="#000000" stroke-width="2" stroke-linecap="butt"/><path d="M255.81239,163.54339c0,8.78187 -8.21877,15.90098 -18.35715,15.90098c-10.13837,0 -18.35715,-7.11911 -18.35715,-15.90098c0,-8.78187 8.21877,-15.90097 18.35715,-15.90097c10.13837,0 18.35715,7.11911 18.35715,15.90097z" data-paper-data="{&quot;origPos&quot;:null}" fill="#a9ff59" stroke="#000000" stroke-width="3" stroke-linecap="butt"/><path d="M242.78782,158.45807c0.63467,2.1835 0.12291,4.31513 -1.14306,4.76112c-1.26596,0.44599 -2.80674,-0.96254 -3.44141,-3.14604c-0.63467,-2.1835 -0.12291,-4.31513 1.14306,-4.76112c1.26596,-0.44599 2.80673,0.96254 3.4414,3.14604z" data-paper-data="{&quot;origPos&quot;:null,&quot;origRot&quot;:0}" fill="#000000" stroke="none" stroke-width="0" stroke-linecap="butt"/><path d="M248.82443,157.66454c0.4781,1.64486 0.09259,3.25062 -0.86107,3.58659c-0.95367,0.33597 -2.11433,-0.72509 -2.59243,-2.36995c-0.4781,-1.64486 -0.0926,-3.25062 0.86107,-3.58659c0.95367,-0.33597 2.11434,0.72509 2.59244,2.36995z" data-paper-data="{&quot;origPos&quot;:null,&quot;origRot&quot;:0}" fill="#000000" stroke="none" stroke-width="0" stroke-linecap="butt"/><path d="M263.22822,169.02312c-0.50462,5.09492 -3.72606,8.95818 -7.19531,8.62881c-3.46925,-0.32937 -5.87255,-4.72662 -5.36793,-9.82155c0.50462,-5.09492 3.72607,-8.95818 7.19531,-8.62881c3.46924,0.32937 5.87254,4.72663 5.36793,9.82155z" data-paper-data="{&quot;origPos&quot;:null,&quot;origRot&quot;:0}" fill="#a9ff59" stroke="#000000" stroke-width="2" stroke-linecap="butt"/><path d="M256.03905,168.22505c-0.20695,2.51417 -1.38199,4.47282 -2.62454,4.37479c-1.24254,-0.09803 -2.08206,-2.21566 -1.87511,-4.72982c0.20695,-2.51416 1.38199,-4.47282 2.62453,-4.37478c1.24254,0.09803 2.08207,2.21565 1.87512,4.72982z" data-paper-data="{&quot;origRot&quot;:0,&quot;origPos&quot;:null}" fill="#84c746" stroke="none" stroke-width="0" stroke-linecap="butt"/><path d="M230.36441,195.90347c5.11262,-1.02015 9.65324,0.13758 10.14178,2.58589c0.48852,2.44829 -3.26005,5.26002 -8.37267,6.28018c-5.11262,1.02015 -10.14177,-2.58589 -10.14177,-2.58589c0,0 3.26004,-5.26003 8.37266,-6.28018z" data-paper-data="{&quot;origRot&quot;:0,&quot;origPos&quot;:null}" fill="#2fe500" stroke="#000000" stroke-width="2" stroke-linecap="butt"/><path d="M256.09603,204.67453c0,0 -5.71375,2.37668 -10.46376,0.22793c-4.74999,-2.14876 -7.76648,-5.73462 -6.73749,-8.00927c1.02898,-2.27464 5.71377,-2.3767 10.46377,-0.22794c4.74999,2.14876 6.73748,8.00928 6.73748,8.00928z" data-paper-data="{&quot;origRot&quot;:0,&quot;origPos&quot;:null,&quot;index&quot;:null}" fill="#2fe500" stroke="#000000" stroke-width="2" stroke-linecap="butt"/><path d="M237.22148,172.38383c0,0 2.20629,-0.59058 3.20861,-0.01232c1.16336,0.67117 2.34066,3.21382 2.34066,3.21382" data-paper-data="{&quot;origPos&quot;:null}" fill="none" stroke="#000000" stroke-width="0.5" stroke-linecap="round"/><path d="M234.36267,157.12592l-0.87316,-4.49052c0,0 4.76812,-0.08519 6.94175,0.7385c2.30405,0.87312 2.66298,4.0015 2.66298,4.0015c0,0 -1.14075,-1.49684 -3.86684,-1.49684c-1.89853,0 -4.86473,1.24737 -4.86473,1.24737z" data-paper-data="{&quot;origPos&quot;:null}" fill="#26bd00" stroke="#000000" stroke-width="0.5" stroke-linecap="butt"/><path d="M247.30773,154.81266c-2.05336,0.41413 -2.70381,1.81535 -2.70381,1.81535c0,0 -0.16601,-2.62085 1.44767,-3.68712c1.52233,-1.00591 5.12569,-1.66038 5.12569,-1.66038l-0.03132,3.81638c0,0 -2.40821,-0.57265 -3.83823,-0.28423z" data-paper-data="{&quot;origPos&quot;:null,&quot;index&quot;:null,&quot;origRot&quot;:0}" fill="#26bd00" stroke="#000000" stroke-width="0.5" stroke-linecap="butt"/></g></g></svg>