<svg version="1.1" xmlns="http://www.w3.org/2000/svg" xmlns:xlink="http://www.w3.org/1999/xlink" width="60.84049" height="38.08487"><defs><linearGradient x1="240.16675" y1="162.83335" x2="240.16675" y2="199.33335" gradientUnits="userSpaceOnUse" id="color-1"><stop offset="0" stop-color="#00e1ff"/><stop offset="1" stop-color="#a7f5ff"/></linearGradient></defs><g transform="translate(-209.24295,-161.85145)"><g data-paper-data="{&quot;isPaintingLayer&quot;:true}" fill="none" fill-rule="nonzero" stroke="none" stroke-width="none" stroke-linecap="butt" stroke-linejoin="miter" stroke-miterlimit="10" stroke-dasharray="" stroke-dashoffset="0" font-family="none" font-weight="none" font-size="none" text-anchor="none" style="mix-blend-mode: normal"><path d="M210.50011,199.33335v-36.5h59.33333v36.5h-35.53162c-3.55039,-0.20536 -7.16454,-0.45838 -10.46478,-0.07208c-0.25993,0.03043 -0.5285,0.05239 -0.80134,0.07208z" data-paper-data="{&quot;origPos&quot;:null}" fill="url(#color-1)" stroke="#d7faff" stroke-width="0.5"/><path d="M267.97119,181.7933v15.64249h-18.91108z" data-paper-data="{&quot;origPos&quot;:null,&quot;origRot&quot;:0}" fill="#d6faff" stroke="none" stroke-width="0"/><text transform="translate(248.66012,196.40244) scale(0.28271,0.28271)" font-size="40" xml:space="preserve" data-paper-data="{&quot;origPos&quot;:null}" fill="#000000" fill-rule="nonzero" stroke="none" stroke-width="1" stroke-linecap="butt" stroke-linejoin="miter" stroke-miterlimit="10" stroke-dasharray="" stroke-dashoffset="0" font-family="Sans Serif" font-weight="normal" text-anchor="start" style="mix-blend-mode: normal"><tspan x="0" dy="0">200</tspan></text><text transform="translate(248.31341,195.8695) scale(0.28271,0.28271)" font-size="40" xml:space="preserve" data-paper-data="{&quot;origPos&quot;:null}" fill="#ffffff" fill-rule="nonzero" stroke="none" stroke-width="1" stroke-linecap="butt" stroke-linejoin="miter" stroke-miterlimit="10" stroke-dasharray="" stroke-dashoffset="0" font-family="Sans Serif" font-weight="normal" text-anchor="start" style="mix-blend-mode: normal"><tspan x="0" dy="0">200</tspan></text><path d="M227.97865,176.86015c-0.85227,0.89248 -3.46013,0.99036 -5.5506,-0.59632c-2.09048,-1.58667 -2.61248,-6.40472 -2.61248,-6.40472c0,0 2.12829,1.41331 2.63616,1.44037c0,0 2.84115,-0.15872 3.92492,0.70578c1.42693,1.13825 2.45426,3.96241 1.602,4.8549z" data-paper-data="{&quot;origRot&quot;:0,&quot;origPos&quot;:null}" fill="#26bd00" stroke="#000000" stroke-width="0.5"/><path d="M227.10457,177.74973c0.05964,1.2351 -1.3846,3.00426 -3.57108,3.15119c-2.18648,0.14694 -5.46439,-3.19219 -5.46439,-3.19219c0,0 2.10118,-0.30386 2.41094,-0.61318c0,0 1.54126,-1.96719 2.7007,-2.01136c1.52658,-0.05815 3.86417,1.43044 3.92383,2.66554z" data-paper-data="{&quot;origRot&quot;:0,&quot;origPos&quot;:null}" fill="#26bd00" stroke="#000000" stroke-width="0.5"/><path d="M228.38818,173.68025c-1.20745,0.33116 -3.42472,-0.67106 -4.26775,-2.74903c-0.84304,-2.07797 1.42761,-5.98166 1.42761,-5.98166c0,0 0.97167,1.9609 1.3776,2.19137c0,0 2.44485,1.05199 2.85838,2.16137c0.54448,1.46066 -0.18838,4.0468 -1.39583,4.37795z" data-paper-data="{&quot;origRot&quot;:0,&quot;origPos&quot;:null}" fill="#26bd00" stroke="#000000" stroke-width="0.5"/><path d="M229.37354,194.21411c2.53433,-0.13358 4.64069,0.74196 4.70466,1.95558c0.06397,1.21362 -1.93866,2.30576 -4.473,2.43934c-2.53433,0.13358 -4.70465,-1.95558 -4.70465,-1.95558c0,0 1.93865,-2.30576 4.47299,-2.43934z" data-paper-data="{&quot;origRot&quot;:0,&quot;origPos&quot;:null,&quot;index&quot;:null}" fill="#2bd900" stroke="#000000" stroke-width="0.75"/><path d="M243.60238,195.18194c0,0 -1.50263,2.61093 -3.97391,3.18841c-2.47128,0.57748 -4.69883,0.08628 -4.97538,-1.09715c-0.27655,-1.18343 1.50265,-2.61094 3.97392,-3.18842c2.47128,-0.57748 4.97536,1.09716 4.97536,1.09716z" data-paper-data="{&quot;origRot&quot;:0,&quot;origPos&quot;:null,&quot;index&quot;:null}" fill="#2bd900" stroke="#000000" stroke-width="0.75"/><path d="M233.65453,197.44657c0,0 -0.53299,-3.75642 -0.53299,-6.11992c0,-1.86592 0.53299,-4.71744 0.53299,-4.71744h2.39843c0,0 -0.88831,2.29644 -0.88831,3.8887c0,2.63716 0.88831,6.94866 0.88831,6.94866z" data-paper-data="{&quot;origPos&quot;:null}" fill="#a9ff59" stroke="#000000" stroke-width="1"/><path d="M245.05717,177.93589c0,4.6806 -4.38047,8.47497 -9.78408,8.47497c-5.4036,0 -9.78408,-3.79437 -9.78408,-8.47497c0,-4.6806 4.38047,-8.47497 9.78408,-8.47497c5.4036,0 9.78408,3.79437 9.78408,8.47497z" data-paper-data="{&quot;origPos&quot;:null}" fill="#a9ff59" stroke="#000000" stroke-width="1.5"/><path d="M238.11524,175.22549c0.33827,1.16377 0.06551,2.2999 -0.60923,2.5376c-0.67474,0.23771 -1.49595,-0.51302 -1.83422,-1.67679c-0.33827,-1.16377 -0.06551,-2.2999 0.60923,-2.5376c0.67474,-0.23771 1.49594,0.51302 1.83421,1.67679z" data-paper-data="{&quot;origPos&quot;:null,&quot;origRot&quot;:0}" fill="#000000" stroke="none" stroke-width="0"/><path d="M241.33269,174.80256c0.25481,0.87668 0.04934,1.73253 -0.45894,1.91159c-0.5083,0.17907 -1.1269,-0.38646 -1.38173,-1.26314c-0.25481,-0.87668 -0.04936,-1.73253 0.45894,-1.91159c0.5083,-0.17907 1.12691,0.38646 1.38173,1.26314z" data-paper-data="{&quot;origPos&quot;:null,&quot;origRot&quot;:0}" fill="#000000" stroke="none" stroke-width="0"/><path d="M249.67301,180.77944c-0.30001,3.02897 -2.21518,5.32572 -4.27769,5.12991c-2.0625,-0.19582 -3.49129,-2.81002 -3.19129,-5.839c0.30001,-3.02897 2.21518,-5.32572 4.27769,-5.12991c2.06249,0.19582 3.49128,2.81003 3.19129,5.839z" data-paper-data="{&quot;origPos&quot;:null,&quot;origRot&quot;:0}" fill="#a9ff59" stroke="#000000" stroke-width="1"/><path d="M245.39895,180.30498c-0.12304,1.49469 -0.82161,2.65914 -1.56031,2.60085c-0.7387,-0.05829 -1.2378,-1.31723 -1.11477,-2.81193c0.12304,-1.49469 0.82161,-2.65914 1.56031,-2.60085c0.7387,0.05829 1.23781,1.31722 1.11477,2.81193z" data-paper-data="{&quot;origRot&quot;:0,&quot;origPos&quot;:null}" fill="#84c746" stroke="none" stroke-width="0"/><path d="M229.1553,196.74491c2.51584,-0.41519 5.01326,-0.40803 5.57816,0.016c0.5649,0.42403 -1.01663,1.10435 -3.53246,1.51955c-2.51584,0.41519 -5.57815,-0.016 -5.57815,-0.016c0,0 1.01662,-1.10435 3.53246,-1.51955z" data-paper-data="{&quot;origRot&quot;:0,&quot;origPos&quot;:null}" fill="#2fe500" stroke="#000000" stroke-width="1"/><path d="M243.46445,198.15657c0,0 -3.06233,0.51059 -5.57815,0.01895c-2.51584,-0.49164 -4.09737,-1.29722 -3.53246,-1.79933c0.5649,-0.5021 3.06233,-0.51059 5.57816,-0.01895c2.51584,0.49164 3.53246,1.79933 3.53246,1.79933z" data-paper-data="{&quot;origRot&quot;:0,&quot;origPos&quot;:null,&quot;index&quot;:null}" fill="#2fe500" stroke="#000000" stroke-width="1"/><path d="M233.40367,174.30109l-0.46538,-2.39338c0,0 2.54134,-0.04541 3.69985,0.39361c1.22802,0.46535 1.41933,2.13274 1.41933,2.13274c0,0 -0.60801,-0.79779 -2.06096,-0.79779c-1.01188,0 -2.59282,0.66483 -2.59282,0.66483z" data-paper-data="{&quot;origPos&quot;:null}" fill="#26bd00" stroke="#000000" stroke-width="0.25"/><path d="M240.56964,173.33465c-1.09441,0.22073 -1.44109,0.96755 -1.44109,0.96755c0,0 -0.08848,-1.39688 0.77159,-1.96518c0.81138,-0.53613 2.73191,-0.88495 2.73191,-0.88495l-0.01669,2.03407c0,0 -1.28354,-0.30521 -2.04572,-0.1515z" data-paper-data="{&quot;origPos&quot;:null,&quot;index&quot;:null,&quot;origRot&quot;:0}" fill="#26bd00" stroke="#000000" stroke-width="0.25"/><path d="M210.24295,198.32859v-35.47714h58.63158v35.47714z" data-paper-data="{&quot;origPos&quot;:null}" fill="none" stroke="#d7faff" stroke-width="2"/></g></g></svg>