<svg version="1.1" xmlns="http://www.w3.org/2000/svg" xmlns:xlink="http://www.w3.org/1999/xlink" width="79.12997" height="64.34525" viewBox="0,0,79.12997,64.34525"><defs><linearGradient x1="239.75391" y1="191.00522" x2="239.75391" y2="207.40819" gradientUnits="userSpaceOnUse" id="color-1"><stop offset="0" stop-color="#24693c"/><stop offset="1" stop-color="#4ecc71"/></linearGradient><radialGradient cx="239.44776" cy="174.75584" r="21.1235" gradientUnits="userSpaceOnUse" id="color-2"><stop offset="0" stop-color="#b3fa98"/><stop offset="1" stop-color="#05ac26"/></radialGradient><radialGradient cx="229.15504" cy="151.4984" r="14.99911" gradientUnits="userSpaceOnUse" id="color-3"><stop offset="0" stop-color="#036617"/><stop offset="1" stop-color="#037019"/></radialGradient><radialGradient cx="240.54467" cy="173.59519" r="6.67932" gradientUnits="userSpaceOnUse" id="color-4"><stop offset="0" stop-color="#adeba3"/><stop offset="1" stop-color="#32c144"/></radialGradient><linearGradient x1="235.72659" y1="182.18509" x2="235.72659" y2="199.98629" gradientUnits="userSpaceOnUse" id="color-5"><stop offset="0" stop-color="#a8d9ab"/><stop offset="1" stop-color="#50d844"/></linearGradient><radialGradient cx="238.70778" cy="175.06155" r="11.33088" gradientUnits="userSpaceOnUse" id="color-6"><stop offset="0" stop-color="#a5f48f"/><stop offset="1" stop-color="#32c144"/></radialGradient><linearGradient x1="247.9057" y1="163.47251" x2="247.9057" y2="181.08744" gradientUnits="userSpaceOnUse" id="color-7"><stop offset="0" stop-color="#baffa7"/><stop offset="1" stop-color="#82ff63"/></linearGradient><radialGradient cx="198.15938" cy="151.30637" r="10.59119" gradientUnits="userSpaceOnUse" id="color-8"><stop offset="0" stop-color="#c8d6ca"/><stop offset="1" stop-color="#05ad27"/></radialGradient><radialGradient cx="192.41946" cy="155.21033" r="9.57427" gradientUnits="userSpaceOnUse" id="color-9"><stop offset="0" stop-color="#83dd6c"/><stop offset="1" stop-color="#28bd46"/></radialGradient><radialGradient cx="203.61306" cy="155.46756" r="7.29369" gradientUnits="userSpaceOnUse" id="color-10"><stop offset="0" stop-color="#83dd6c"/><stop offset="1" stop-color="#5dc572"/></radialGradient><linearGradient x1="196.93171" y1="154.91408" x2="198.06638" y2="167.46288" gradientUnits="userSpaceOnUse" id="color-11"><stop offset="0" stop-color="#53db7a"/><stop offset="1" stop-color="#24693c"/></linearGradient></defs><g transform="translate(-185.55343,-143.5499)"><g data-paper-data="{&quot;isPaintingLayer&quot;:true}" fill="none" fill-rule="nonzero" stroke="none" stroke-width="none" stroke-linecap="none" stroke-linejoin="miter" stroke-miterlimit="10" stroke-dasharray="" stroke-dashoffset="0" font-family="none" font-weight="none" font-size="none" text-anchor="none" style="mix-blend-mode: normal"><path d="M264.18341,196.78896c0,2.05192 -4.30705,5.3969 -5.78995,5.1516c-2.13406,-0.35301 -7.08119,-4.94385 -7.08119,-4.94385c0,0 3.80926,2.47919 4.88732,4.47218c1.05895,1.95763 1.54969,5.11132 -0.55059,5.66005c-0.79027,0.20647 -2.1811,-4.07958 -2.93725,-3.76452c-0.49349,0.20562 -0.1938,0.90011 -0.38478,1.41446c-0.46825,1.26101 -0.63196,2.07082 -1.93396,2.1474c-2.46061,0.14472 -1.16951,-3.82453 -3.52703,-3.08021c-1.29308,0.40825 -1.06916,1.11468 -2.09856,2.02242c-2.02451,1.78521 -2.54181,1.52666 -5.20032,1.52666c-3.26031,0 -6.78932,-6.82012 -6.78932,-6.82012c0,0 -8.9563,5.80446 -13.7382,3.40515c-1.78832,-0.89729 1.01775,-3.69416 2.5768,-4.97045c1.31686,-1.07803 4.04293,-1.43148 4.04293,-1.43148c0,0 -4.80521,1.0473 -6.86067,0.24077c-1.73588,-0.68114 -3.47427,-2.29397 -3.47427,-4.2171c0,-1.27932 7.59181,-0.1749 7.59181,-0.1749c0,0 -3.82446,-1.47362 -2.1914,-1.93843c6.67189,-1.899 30.49089,2.37702 32.68158,2.86475c0.73024,0.16258 6.83382,-1.36996 7.29404,-0.76049c0.7055,0.93429 -2.58199,3.70814 -2.58199,3.70814c0,0 6.06495,-4.13562 6.06495,-0.51203z" data-paper-data="{&quot;origPos&quot;:null}" fill="url(#color-1)" stroke="#0f2c13" stroke-width="1" stroke-linecap="butt"/><path d="M220.1034,176.01054v-2.76629h2.48966v2.76629z" data-paper-data="{&quot;origPos&quot;:null}" fill="#1c5324" stroke="none" stroke-width="0" stroke-linecap="butt"/><path d="M261.91767,181.22675c0,10.93456 -8.99461,19.79877 -21.44564,19.79877c-12.45103,0 -19.79723,-8.86421 -19.79723,-19.79877c0,-7.64184 2.01,-10.17069 5.5737,-11.53488c2.58033,-0.98775 1.24441,-4.30197 1.97099,-6.96765c0.41142,-1.50942 1.75869,-3.1986 3.09877,-2.39126c2.06409,1.24351 4.72968,3.87391 4.72968,3.87391c0,0 0.57469,-4.51695 2.76081,-2.96485c2.45507,1.74304 4.36004,2.4601 6.20977,4.22577c0,0 16.89917,4.82442 16.89917,15.75897z" data-paper-data="{&quot;origPos&quot;:null}" fill="url(#color-2)" stroke="#000000" stroke-width="1.5" stroke-linecap="butt"/><path d="M251.59719,187.35222c0.27631,2.25701 -0.57066,4.27901 -1.89177,4.51621c-1.32109,0.23722 -2.61607,-1.40018 -2.89238,-3.6572c-0.27631,-2.25701 0.57066,-4.27901 1.89177,-4.51621c1.32109,-0.23722 2.61606,1.40018 2.89236,3.65718z" data-paper-data="{&quot;origPos&quot;:null,&quot;origRot&quot;:0}" fill="#000000" stroke="none" stroke-width="0" stroke-linecap="butt"/><path d="M257.40953,185.44491c0.1873,1.70267 -0.46932,3.21789 -1.46663,3.38437c-0.99732,0.16648 -1.95762,-1.07881 -2.14493,-2.78149c-0.1873,-1.70267 0.46931,-3.21789 1.46663,-3.38437c0.99732,-0.16648 1.95764,1.07882 2.14495,2.78148z" data-paper-data="{&quot;origPos&quot;:null,&quot;origRot&quot;:0}" fill="#000000" stroke="none" stroke-width="0" stroke-linecap="butt"/><path d="M236.49967,165.03823c0.25775,-1.14166 2.08853,-1.65886 2.09998,-1.639c0.93891,-0.19312 1.14318,0.2274 1.32616,0.67349c0.54893,1.33828 4.80687,4.47894 4.80687,4.47894c0,0 -8.74491,-1.24605 -8.233,-3.51343z" data-paper-data="{&quot;origPos&quot;:null,&quot;index&quot;:null}" fill="#287732" stroke="none" stroke-width="0" stroke-linecap="butt"/><path d="M233.87692,165.76325l-5.83523,-12.73996c0,0 -2.73157,-0.78791 -4.93532,0.04589c-5.45233,2.06288 -14.0125,7.3159 -14.0125,7.3159l1.24758,-3.30252c0,0 6.04273,-3.77259 10.11795,-5.4855c3.91994,-1.64766 9.59654,-1.70488 9.59654,-1.70488l9.75575,17.09782z" data-paper-data="{&quot;origPos&quot;:null,&quot;origRot&quot;:0}" fill="url(#color-3)" stroke="#0f2c13" stroke-width="0.5" stroke-linecap="butt"/><path d="M236.59668,176.79927c0,0 -2.63452,-7.47561 0.96309,-10.59354c1.43488,0.15828 1.60014,0.89355 3.0642,0.72308c0.81057,-0.09438 -1.46494,-3.29987 -0.66246,-3.44803c1.27805,-0.23595 3.27113,0.61558 4.37005,1.30947c1.95379,1.23368 4.57485,2.6996 4.57485,2.6996c0,0 -1.08007,3.52708 -4.53169,6.51848c-2.04149,1.76929 -7.77805,2.79093 -7.77805,2.79093z" data-paper-data="{&quot;origPos&quot;:null}" fill="url(#color-4)" stroke="#256d2f" stroke-width="0.5" stroke-linecap="butt"/><path d="M249.79674,186.80791c0.12534,1.02387 -0.25887,1.94112 -0.85818,2.04873c-0.5993,0.10761 -1.18675,-0.63518 -1.3121,-1.65905c-0.12534,-1.02387 0.25887,-1.94112 0.85818,-2.04873c0.5993,-0.10761 1.18675,0.63518 1.31209,1.65904z" data-paper-data="{&quot;origPos&quot;:null,&quot;origRot&quot;:0}" fill="#ffffff" stroke="none" stroke-width="0" stroke-linecap="butt"/><path d="M255.83935,184.70912c0.06388,0.58064 -0.16005,1.09738 -0.50016,1.15416c-0.3401,0.05678 -0.6676,-0.3679 -0.73148,-0.94855c-0.06388,-0.58064 0.16005,-1.09738 0.50016,-1.15416c0.3401,-0.05678 0.6676,0.36791 0.73147,0.94855z" data-paper-data="{&quot;origPos&quot;:null,&quot;origRot&quot;:0}" fill="#ffffff" stroke="none" stroke-width="0" stroke-linecap="butt"/><path d="M229.98163,169.81178c0,0 -0.55754,-5.62866 -0.00861,-6.96693c0.18297,-0.44609 0.38725,-1.2679 1.32616,-1.07479c0.01145,-0.01986 1.84223,0.65787 2.09998,1.79953c0.51191,2.26738 -0.09945,0.78465 -0.09945,0.78465z" data-paper-data="{&quot;origPos&quot;:null}" fill="#287732" stroke="none" stroke-width="0" stroke-linecap="butt"/><path d="M241.51442,182.75466c0,0 0.93421,-5.58829 2.6088,-5.43198c3.45629,0.32262 5.34225,4.18081 5.34225,4.18081c0,0 -2.89307,-1.30844 -4.27587,-1.09085c-1.72021,0.27069 -3.67519,2.34203 -3.67519,2.34203z" data-paper-data="{&quot;origPos&quot;:null,&quot;origRot&quot;:0}" fill="#05ac26" stroke="#000000" stroke-width="0.5" stroke-linecap="butt"/><path d="M253.59425,180.51287c0,0 0.41036,-3.54152 2.10412,-4.47537c1.59787,-0.88099 4.53939,3.47214 4.53939,3.47214c0,0 -2.17156,-1.31281 -3.62007,-1.13963z" data-paper-data="{&quot;origPos&quot;:null,&quot;index&quot;:null,&quot;origRot&quot;:0}" fill="#05ac26" stroke="#000000" stroke-width="0.5" stroke-linecap="butt"/><path d="M229.86136,197.19406c-9.31009,-5.53335 -8.11532,-15.00897 -8.11532,-15.00897c0,0 1.81981,2.31614 3.48936,3.52113c2.89898,2.09231 5.27897,2.89868 8.35787,4.71589c1.07262,0.63307 3.30279,0.95609 4.27355,1.73642c1.04675,0.84142 1.19652,2.00265 1.97062,3.10012c0.56076,0.79502 1.20418,0.69842 2.0726,1.13699c2.90936,1.46929 7.84692,1.93282 7.84692,1.93282c0,0 -10.58552,4.39896 -19.89561,-1.1344z" data-paper-data="{&quot;origPos&quot;:null}" fill="url(#color-5)" stroke="#287732" stroke-width="0" stroke-linecap="butt"/><path d="M221.68842,185.42116c0,0 -3.00232,-6.46052 -1.58566,-10.2539c1.41666,-3.79338 4.8755,-1.86825 6.53757,-3.25475c1.74595,-1.45648 2.05743,-1.46541 3.58711,-3.14758c1.16773,-1.28413 0.86266,-4.12853 2.27962,-5.13093c0.98323,-0.69556 1.83235,0.20503 3.01285,0.44367c1.28933,0.26065 1.39079,4.53554 1.39079,4.53554c0,0 2.8819,-0.5568 2.45728,1.61144c-0.36576,1.86766 -1.56142,1.1313 -1.46001,3.03173c0.12208,2.28781 2.62791,-0.32607 2.40496,1.95412c-0.34608,3.53952 -0.64725,5.21747 -2.87368,7.99074c0,0 -5.58084,2.08811 -8.55028,2.43162c-3.58542,0.41476 -7.20057,-0.2117 -7.20057,-0.2117z" data-paper-data="{&quot;origPos&quot;:null}" fill="url(#color-6)" stroke="#256d2f" stroke-width="0.5" stroke-linecap="butt"/><path d="M221.47519,189.44882c-0.85149,-2.00247 0.15365,-2.61351 -0.9124,-4.4285c-0.46515,-0.79192 -0.94529,-0.29208 -1.86052,-0.3686c-1.2454,-0.10412 -2.82906,-0.10366 -3.11169,-1.32102c-0.31664,-1.36387 1.97549,-3.24471 1.97549,-3.24471c0,0 -4.35351,-0.53149 -4.2109,-3.4209c0.14789,-2.99634 4.39419,-2.88916 4.79908,-3.57543c0.68145,-1.15502 -0.11278,-2.3673 1.19734,-2.65371c0.84219,-0.18411 2.56808,2.64809 2.48809,1.78973c-0.10361,-1.11184 3.38005,0.10913 3.38005,0.10913l-2.50833,1.55977c0,0 -2.30009,0.59751 -2.12232,2.5625c0.33825,3.73885 -0.33188,3.52498 2.19577,6.30066c1.24848,1.371 3.60019,4.96991 5.42925,4.50794c0.79843,1.63012 3.231,1.5975 4.82291,2.46963c2.0677,1.13279 5.18473,2.98496 5.18473,2.98496c0,0 -2.76568,-1.01359 -3.7827,-0.94741c-2.87468,0.18705 -2.3929,0.94412 -5.09793,-0.04664c-1.16457,-0.42654 -1.434,-1.5806 -2.62783,-1.91666c-2.72252,-0.76639 -4.3866,1.64173 -5.23809,-0.36074z" data-paper-data="{&quot;origPos&quot;:null}" fill="#98ff7e" stroke="#256d2f" stroke-width="1" stroke-linecap="butt"/><path d="M238.64795,181.08743c0,0 0.69879,-1.22861 0.88574,-2.00513c0.28768,-1.195 0.51884,-2.98108 0.51884,-2.98108c0.58946,-1.17823 1.26245,-1.47244 2.09619,-2.49252c0.76334,-0.93396 1.86932,-2.58927 1.86932,-2.58927c0.92736,-1.09263 5.04951,-4.02007 5.04951,-4.02007l-3.83903,-1.88383c0,0 1.30453,-0.60588 2.0238,-0.85441c4.12021,-1.42364 9.62608,-0.98029 9.90567,1.82523c0.17044,1.71032 -3.70296,0.00959 -5.52737,2.15914c-0.76893,0.90598 0.87117,3.10038 -0.10713,4.27832c-0.79921,0.96232 -3.74494,-1.77032 -4.55655,-0.81844c-0.57155,0.67033 -0.27083,3.03995 -0.93112,3.53602c-1.04513,0.78519 -0.99758,0.09774 -2.27006,-0.20165c-0.54188,-0.12749 -0.90285,0.19885 -1.29341,0.59554c-1.61237,1.63769 -0.14749,2.54106 -1.83057,4.106c-1.17858,1.09586 -1.99382,1.34616 -1.99382,1.34616z" data-paper-data="{&quot;origPos&quot;:null}" fill="url(#color-7)" stroke="#256d2f" stroke-width="1" stroke-linecap="butt"/><path d="M249.19411,165.18923c0,0 3.43929,0.15008 2.57216,0.6756c-2.87737,1.74381 -4.39911,1.73263 -6.84216,4.04599c-1.24998,1.18363 -2.27839,3.1478 -3.44673,4.41208c-3.2021,3.46504 -0.67287,5.91538 -4.41976,8.78257c-2.8054,2.14674 -10.26184,2.90022 -10.26184,2.90022" data-paper-data="{&quot;origPos&quot;:null}" fill="none" stroke="#287732" stroke-width="0.5" stroke-linecap="round"/><path d="M249.85235,198.28601c0,0 -2.5428,-0.35141 -4.26121,-0.82527c-1.84647,-0.50917 -3.08594,-1.02184 -4.81061,-1.85506c-2.99301,-1.44598 -0.75161,-2.17309 -3.65237,-3.79622c-4.11025,-2.2999 -9.16571,-4.12758 -12.74153,-7.19305c-2.63845,-2.26189 -4.88527,-6.40882 -3.2578,-9.43008c0.67873,-1.26003 1.56623,-1.41244 1.56623,-1.41244" data-paper-data="{&quot;origPos&quot;:null}" fill="none" stroke="#287732" stroke-width="0.5" stroke-linecap="round"/><path d="M210.17361,157.71574c-0.28556,6.02491 -5.88361,10.65471 -12.50359,10.34096c-6.61998,-0.31377 -11.75505,-5.45228 -11.46949,-11.47719c0.28556,-6.02491 24.25864,-4.88868 23.97308,1.13624z" data-paper-data="{&quot;origPos&quot;:null,&quot;origRot&quot;:0}" fill="#2e8149" stroke="#0f2c13" stroke-width="0.5" stroke-linecap="butt"/><path d="M187.2495,157.30681c-0.52675,-5.82557 3.74602,-11.22698 9.57162,-11.75374c5.82557,-0.52675 10.99794,4.0206 11.52469,9.84621c0.52675,5.82557 -3.74602,11.22698 -9.57162,11.75374c-5.82557,0.52675 -10.99794,-4.0206 -11.52469,-9.84621z" data-paper-data="{&quot;origPos&quot;:null,&quot;origRot&quot;:0}" fill="url(#color-8)" stroke="#000000" stroke-width="1" stroke-linecap="butt"/><path d="M205.66758,162.36509c-1.69542,2.20421 -2.33013,2.05533 -3.77786,2.15865c-2.76746,0.19751 -7.0741,-1.531 -7.0741,-1.531c0,0 4.25005,-1.26328 6.18939,-3.25891c1.72888,-1.77907 2.34437,-3.91721 1.4542,-6.23275c-0.5874,-1.52796 -1.78483,-2.47226 -1.9628,-4.09954c-0.10009,-0.91515 1.04124,-2.37796 1.04124,-2.37796c0,0 0.62565,0.68199 2.31627,1.45414c1.13494,0.51836 1.78605,2.0136 2.54776,3.00181c1.03495,1.34268 1.04441,2.63264 1.19707,4.32102c0.34393,3.80371 -0.34642,4.50417 -1.93119,6.56452z" data-paper-data="{&quot;origPos&quot;:null,&quot;index&quot;:null,&quot;origRot&quot;:0}" fill="#27b33c" stroke="#1c802b" stroke-width="0.5" stroke-linecap="butt"/><path d="M187.95848,157.34848c-0.18513,-2.0474 0.05451,-3.63437 0.99712,-5.46129c0.69376,-1.34461 1.70023,-2.80711 2.94144,-3.67238c1.84893,-1.28893 4.83409,-1.94135 4.83409,-1.94135c0,0 -2.82134,5.51904 -3.14143,7.21384c-0.55829,2.95603 0.64105,5.37292 3.09056,7.11925c2.7477,1.95891 8.09271,2.54152 8.09271,2.54152c0,0 -3.95125,4.45075 -8.07764,3.28783c0,0 -3.10361,-0.58075 -4.82912,-1.99989c-2.20937,-1.81709 -3.49067,-2.47496 -3.90774,-7.08753z" data-paper-data="{&quot;origPos&quot;:null,&quot;origRot&quot;:0}" fill="#27b33c" stroke="#1c802b" stroke-width="0.5" stroke-linecap="butt"/><path d="M193.40394,154.86744c0,0 2.66464,-3.73462 4.3007,-3.89799c0.86988,-0.08686 0.99483,1.96794 1.72761,2.44469c0.71876,0.46763 0.70757,-0.69579 1.564,-0.65323c0.33075,0.01644 1.38142,1.21049 1.38142,1.21049" data-paper-data="{&quot;origPos&quot;:null,&quot;origRot&quot;:0}" fill="none" stroke="#1c802b" stroke-width="0.5" stroke-linecap="round"/><path d="M199.07736,146.48444c0,0 -0.81288,0.75443 -0.94739,1.31075c-0.15557,0.64345 1.26088,0.89253 1.24145,1.55424c-0.01824,0.62103 -1.40268,1.72031 -1.40268,1.72031" data-paper-data="{&quot;origPos&quot;:null,&quot;origRot&quot;:0}" fill="none" stroke="#1c802b" stroke-width="0.5" stroke-linecap="round"/><path d="M190.66391,156.38455c0.01349,-1.34369 0.6575,-0.46836 1.24651,-1.67617c0.22379,-0.45891 -1.12535,-2.02394 -0.90882,-2.48633c0.49859,-1.06474 0.90129,-0.62272 1.69769,-1.4876c0.85597,-0.92956 -1.91223,-3.389 -1.10314,-4.35964c0.67943,-0.8151 1.4152,0.76788 2.47631,0.77626c0.72723,0.00573 0.01641,-2.95167 0.65427,-3.301c0.55397,-0.30338 0.61546,0.84779 1.00148,1.3477c0.15664,0.20286 0.9994,-0.95138 1.195,-0.78576c0.20106,0.17024 1.16324,0.55449 1.12568,0.81525c-0.04313,0.29937 -0.70004,-0.21183 -0.9718,-0.07904c-0.30219,0.14766 -0.41069,0.87722 -0.41069,0.87722c0,0 -2.33245,4.2314 -2.96539,6.80419c-0.53998,2.19494 -0.37621,3.24481 0.58204,5.29204c1.47721,3.15596 6.07607,4.41002 6.07607,4.41002c0,0 -9.72526,-3.15277 -9.6952,-6.14714z" data-paper-data="{&quot;origPos&quot;:null,&quot;origRot&quot;:0}" fill="url(#color-9)" stroke="#256d2f" stroke-width="0.5" stroke-linecap="butt"/><path d="M201.84097,159.26661c0,0 1.9669,-3.52006 0.93407,-5.84384c-0.85709,-1.92836 -1.84751,-2.04469 -2.09083,-4.03421c-0.27483,-2.24718 1.08673,-3.06307 1.08673,-3.06307c0,0 -1.48524,-1.62402 -1.17446,-1.20175c0.45659,0.6204 1.33136,-0.93283 1.92533,-0.44235c0.4124,0.34056 0.04677,0.55744 0.48291,1.66304c0.14248,0.36118 1.02746,0.67608 1.04365,1.06401c0.03138,0.75191 -1.00607,1.08867 -1.13598,1.82995c-0.18272,1.04255 2.56055,2.20407 2.67025,3.2568c0.21281,2.04205 -0.27555,0.54424 -1.32381,2.09288c-0.93847,1.38645 1.23703,0.05281 1.25182,1.72696c0.0233,2.63854 -3.66967,2.95158 -3.66967,2.95158z" data-paper-data="{&quot;origPos&quot;:null,&quot;origRot&quot;:0}" fill="url(#color-10)" stroke="#256d2f" stroke-width="0.5" stroke-linecap="butt"/><path d="M185.80954,157.97641c-0.03743,-0.64251 0.17587,-1.97216 0.17587,-1.97216c0,0 1.44991,1.03615 1.66022,1.43777c0.63095,1.20486 0.74781,2.81418 0.74781,2.81418c0,0 0.17432,-1.65448 2.21822,-1.25508c0.65058,0.12713 1.12782,2.05772 1.12782,2.05772c0,0 1.92134,-2.32519 3.12995,-1.33987c1.46594,1.1951 1.89602,2.90156 1.89602,2.90156c0,0 1.56314,-2.66454 2.49829,-2.56067c2.11444,0.23485 3.50556,1.1179 3.50556,1.1179c0,0 -1.91239,-0.79518 -0.93382,-2.53155c0.72126,-1.27979 4.02078,-0.56766 4.02078,-0.56766c0,0 -0.75346,-1.54044 -0.38975,-2.41009c0.481,-1.15007 1.76698,-0.15121 1.76698,-0.15121l0.21012,-2.05569c0,0 2.38107,2.30591 2.56358,3.72609c0.24384,1.89743 -0.47352,3.42364 -1.38909,5.10336c-2.01439,3.69562 -6.47902,6.14446 -10.6856,6.00291c-2.24118,-0.07542 -3.57747,-0.69435 -5.6888,-1.44991c0,0 -3.12081,-1.61927 -4.48994,-3.73119c-1.01763,-1.56972 -1.83194,-3.20885 -1.94423,-5.1364z" data-paper-data="{&quot;origPos&quot;:null,&quot;origRot&quot;:0}" fill="url(#color-11)" stroke="#0f2c13" stroke-width="0.5" stroke-linecap="butt"/></g></g></svg>