<svg version="1.1" xmlns="http://www.w3.org/2000/svg" xmlns:xlink="http://www.w3.org/1999/xlink" width="54.19482" height="61.1557"><defs><linearGradient x1="265.31524" y1="176.3426" x2="257.00172" y2="169.91586" gradientUnits="userSpaceOnUse" id="color-1"><stop offset="0" stop-color="#fffa99"/><stop offset="1" stop-color="#fff643"/></linearGradient><linearGradient x1="267.21102" y1="158.3105" x2="257.30071" y2="164.55797" gradientUnits="userSpaceOnUse" id="color-2"><stop offset="0" stop-color="#fffa99"/><stop offset="1" stop-color="#fff643"/></linearGradient><linearGradient x1="263.68695" y1="152.69795" x2="256.37553" y2="160.80354" gradientUnits="userSpaceOnUse" id="color-3"><stop offset="0" stop-color="#fffa99"/><stop offset="1" stop-color="#fff643"/></linearGradient><linearGradient x1="228.10997" y1="182.43288" x2="235.12924" y2="174.60628" gradientUnits="userSpaceOnUse" id="color-4"><stop offset="0" stop-color="#fffa99"/><stop offset="1" stop-color="#fff643"/></linearGradient><linearGradient x1="260.57387" y1="180.98368" x2="253.60131" y2="172.59583" gradientUnits="userSpaceOnUse" id="color-5"><stop offset="0" stop-color="#fffa99"/><stop offset="1" stop-color="#fff643"/></linearGradient><linearGradient x1="224.89298" y1="152.13042" x2="231.87991" y2="160.59246" gradientUnits="userSpaceOnUse" id="color-6"><stop offset="0" stop-color="#fffa99"/><stop offset="1" stop-color="#fff643"/></linearGradient><linearGradient x1="221.32482" y1="156.01507" x2="228.81012" y2="165.08071" gradientUnits="userSpaceOnUse" id="color-7"><stop offset="0" stop-color="#fffa99"/><stop offset="1" stop-color="#fff643"/></linearGradient><linearGradient x1="253.89453" y1="184.60389" x2="248.06761" y2="175.41544" gradientUnits="userSpaceOnUse" id="color-8"><stop offset="0" stop-color="#fffa99"/><stop offset="1" stop-color="#fff643"/></linearGradient><linearGradient x1="222.16716" y1="177.06828" x2="232.84645" y2="172.35745" gradientUnits="userSpaceOnUse" id="color-9"><stop offset="0" stop-color="#fffa99"/><stop offset="1" stop-color="#fff643"/></linearGradient><linearGradient x1="235.14843" y1="184.37789" x2="240.24649" y2="175.18943" gradientUnits="userSpaceOnUse" id="color-10"><stop offset="0" stop-color="#fffa99"/><stop offset="1" stop-color="#fff643"/></linearGradient><linearGradient x1="258.71528" y1="148.77401" x2="252.74288" y2="157.68252" gradientUnits="userSpaceOnUse" id="color-11"><stop offset="0" stop-color="#fffa99"/><stop offset="1" stop-color="#fff643"/></linearGradient><linearGradient x1="230.23722" y1="148.54596" x2="235.58367" y2="159.43939" gradientUnits="userSpaceOnUse" id="color-12"><stop offset="0" stop-color="#fffa99"/><stop offset="1" stop-color="#fff643"/></linearGradient><linearGradient x1="253.1566" y1="145.32993" x2="247.163" y2="156.14771" gradientUnits="userSpaceOnUse" id="color-13"><stop offset="0" stop-color="#fffa99"/><stop offset="1" stop-color="#fff643"/></linearGradient><linearGradient x1="235.64135" y1="144.5736" x2="239.83459" y2="155.45426" gradientUnits="userSpaceOnUse" id="color-14"><stop offset="0" stop-color="#fffa99"/><stop offset="1" stop-color="#fff643"/></linearGradient><linearGradient x1="243.35454" y1="186.36094" x2="243.35454" y2="172.67511" gradientUnits="userSpaceOnUse" id="color-15"><stop offset="0" stop-color="#fffbac"/><stop offset="1" stop-color="#fff652"/></linearGradient><linearGradient x1="218.13179" y1="167.49021" x2="231.81763" y2="167.49021" gradientUnits="userSpaceOnUse" id="color-16"><stop offset="0" stop-color="#fffa99"/><stop offset="1" stop-color="#fff643"/></linearGradient><linearGradient x1="269.35277" y1="166.92698" x2="255.66693" y2="166.92698" gradientUnits="userSpaceOnUse" id="color-17"><stop offset="0" stop-color="#fffa99"/><stop offset="1" stop-color="#fff643"/></linearGradient><linearGradient x1="243.78841" y1="143.35992" x2="243.78841" y2="157.04575" gradientUnits="userSpaceOnUse" id="color-18"><stop offset="0" stop-color="#fffa99"/><stop offset="1" stop-color="#fff643"/></linearGradient><linearGradient x1="243.80023" y1="151.79531" x2="243.80023" y2="180.80753" gradientUnits="userSpaceOnUse" id="color-19"><stop offset="0" stop-color="#edc282"/><stop offset="1" stop-color="#e89a33"/></linearGradient></defs><g transform="translate(-216.64487,-141.873)"><g data-paper-data="{&quot;isPaintingLayer&quot;:true}" fill="none" fill-rule="nonzero" stroke="none" stroke-width="none" stroke-linecap="butt" stroke-linejoin="miter" stroke-miterlimit="10" stroke-dasharray="" stroke-dashoffset="0" font-family="none" font-weight="none" font-size="none" text-anchor="none" style="mix-blend-mode: normal"><path d="M252.93344,195.86614c-0.01856,2.47718 -10.5375,2.39838 -10.51894,-0.07881c0.01856,-2.47718 2.38834,-4.46769 5.29307,-4.44593c2.90473,0.02176 5.24442,2.04755 5.22586,4.52473z" data-paper-data="{&quot;origPos&quot;:null,&quot;origRot&quot;:0}" fill="#26c000" stroke="#000000" stroke-width="2"/><path d="M245.17182,195.63787c-0.01856,2.47718 -10.5375,2.39838 -10.51894,-0.07881c0.01856,-2.47718 2.38834,-4.46769 5.29307,-4.44593c2.90472,0.02176 5.24442,2.04755 5.22586,4.52473z" data-paper-data="{&quot;origPos&quot;:null,&quot;origRot&quot;:0}" fill="#26c000" stroke="#000000" stroke-width="2"/><path d="M242.58549,196.26931l-1.27806,-7.30057c0,0 -3.42797,0.27586 -4.71129,0.30599c-0.96014,0.02254 -2.53836,-4.28727 -2.53836,-4.28727c0,0 2.83043,-0.84588 4.09343,-0.3815c1.50008,0.55156 2.70091,2.12758 2.70091,2.12758c0,0 0.2267,-0.05685 0.2267,-0.6428c0,-3.81195 1.50667,-9.76767 1.50667,-9.76767h3.76667c0,0 -1.64364,5.86552 -1.64364,9.35676c0,0.69439 0.07767,0.95531 0.07767,0.95531c0,0 2.55695,-1.943 3.63616,-2.14923c1.37125,-0.26204 3.7794,0.72186 3.7794,0.72186c0,0 -2.06809,3.37438 -3.39989,3.85274c-1.07976,0.38783 -3.80239,0.02471 -3.80239,0.02471l1.35269,7.1841z" data-paper-data="{&quot;origPos&quot;:null}" fill="#2fe500" stroke="#000000" stroke-width="1.5"/><path d="M243.23542,197.37214c0.25541,2.73415 -11.86836,4.24671 -12.12377,1.51257c-0.25541,-2.73415 2.6502,-5.62143 5.85625,-5.92091c3.20605,-0.29948 6.01211,1.6742 6.26752,4.40835z" data-paper-data="{&quot;origPos&quot;:null,&quot;origRot&quot;:0}" fill="#2fe500" stroke="#000000" stroke-width="2"/><path d="M256.0693,198.75871c0,2.688 -12.27022,2.43118 -12.27022,-0.25682c0,-2.688 2.55515,-4.86705 5.70708,-4.86705c3.15193,0 6.56315,2.43587 6.56315,5.12387z" data-paper-data="{&quot;origPos&quot;:null}" fill="#2fe500" stroke="#000000" stroke-width="2"/><path d="M251.33242,199.77078c0,3.01056 -12.78387,3.01056 -12.78387,0c0,-3.01056 2.86177,-5.4511 6.39193,-5.4511c3.53016,0 6.39193,2.44054 6.39193,5.4511z" data-paper-data="{&quot;origPos&quot;:null}" fill="#2fe500" stroke="#000000" stroke-width="2"/><path d="M265.77681,176.67487c-1.86327,1.32123 -5.39633,-0.26017 -6.98998,-1.4847c-1.8132,-1.39322 -3.59945,-3.47862 -1.78512,-5.27432c1.19182,-1.17959 3.91204,-0.77987 6.07576,0.89279c2.16373,1.67267 4.04892,4.90923 2.69933,5.86623z" data-paper-data="{&quot;origPos&quot;:null,&quot;origRot&quot;:0,&quot;index&quot;:null}" fill="url(#color-1)" stroke="#000000" stroke-width="1.5"/><path d="M267.73232,157.95529c1.03449,2.3414 -1.82165,5.38829 -3.71264,6.58842c-2.15149,1.36547 -5.11139,2.46767 -6.71898,0.01425c-1.05601,-1.61165 0.17888,-4.23628 2.75819,-5.86228c2.57932,-1.626 6.92412,-2.4363 7.67341,-0.74039z" data-paper-data="{&quot;origPos&quot;:null,&quot;origRot&quot;:0,&quot;index&quot;:null}" fill="url(#color-2)" stroke="#000000" stroke-width="1.5"/><path d="M262.50265,158.55274c-1.90292,2.1096 -4.64612,3.11732 -6.12712,2.2508c-2.25455,-1.31912 -0.82877,-3.74097 0.76761,-5.50063c1.4031,-1.5466 4.74716,-3.88108 6.9548,-3.03128c1.59902,0.61553 0.30763,4.1715 -1.59529,6.28111z" data-paper-data="{&quot;origPos&quot;:null,&quot;origRot&quot;:0}" fill="url(#color-3)" stroke="#000000" stroke-width="1"/><path d="M229.47482,176.19007c1.82688,-2.037 4.35844,-2.74607 5.65442,-1.58378c1.97288,1.76937 0.56187,4.21705 -0.97021,5.91484c-1.34658,1.49222 -4.48814,3.56815 -6.44214,2.3196c-1.41531,-0.90434 -0.06894,-4.61366 1.75793,-6.65065z" data-paper-data="{&quot;origPos&quot;:null,&quot;origRot&quot;:0}" fill="url(#color-4)" stroke="#000000" stroke-width="1.5"/><path d="M260.96809,181.4257c-2.36325,0.78436 -5.65971,-1.67097 -6.99847,-3.27169c-1.52318,-1.82124 -2.81708,-4.30317 -0.36831,-5.55817c1.60858,-0.8244 4.38372,0.27701 6.19844,2.46008c1.81472,2.18307 2.88008,5.80166 1.16835,6.36978z" data-paper-data="{&quot;origPos&quot;:null,&quot;origRot&quot;:0,&quot;index&quot;:null}" fill="url(#color-5)" stroke="#000000" stroke-width="1.5"/><path d="M231.12439,154.50989c1.81846,2.20238 2.15671,4.92564 0.75551,6.08258c-2.13306,1.76122 -4.44007,-0.07578 -5.95425,-1.92114c-1.33084,-1.62193 -2.98506,-5.18734 -1.39252,-7.01005c1.15351,-1.32022 4.7728,0.64623 6.59125,2.84861z" data-paper-data="{&quot;origPos&quot;:null,&quot;origRot&quot;:0}" fill="url(#color-6)" stroke="#000000" stroke-width="1.5"/><path d="M228.00071,158.56426c1.94816,2.35948 2.31055,5.27699 0.80941,6.51646c-2.28521,1.88685 -4.75678,-0.08118 -6.37896,-2.05817c-1.42577,-1.73761 -3.19798,-5.55735 -1.49185,-7.51009c1.23578,-1.41439 5.11323,0.69232 7.0614,3.0518z" data-paper-data="{&quot;origPos&quot;:null,&quot;origRot&quot;:0}" fill="url(#color-7)" stroke="#000000" stroke-width="1.5"/><path d="M254.22912,185.09149c-2.55303,0.47759 -5.54855,-2.37102 -6.66889,-4.12555c-1.27468,-1.99624 -2.2085,-4.6177 0.50739,-5.5505c1.78406,-0.61275 4.45973,0.82917 5.97628,3.22061c1.51655,2.39144 2.03442,6.10952 0.18522,6.45544z" data-paper-data="{&quot;origPos&quot;:null,&quot;origRot&quot;:0,&quot;index&quot;:null}" fill="url(#color-8)" stroke="#000000" stroke-width="1.5"/><path d="M226.40141,171.37557c2.77946,-1.22607 5.665,-0.78647 6.44505,0.98188c1.18748,2.69197 -1.35891,4.52364 -3.68506,5.54124c-2.0445,0.89439 -6.17196,1.55896 -7.57838,-0.5974c-1.01869,-1.56189 2.03892,-4.69964 4.81838,-5.92571z" data-paper-data="{&quot;origPos&quot;:null,&quot;origRot&quot;:0}" fill="url(#color-9)" stroke="#000000" stroke-width="1.5"/><path d="M235.01775,178.41004c1.32685,-2.39144 3.66785,-3.83336 5.22873,-3.22061c2.37618,0.93279 1.55917,3.55426 0.44392,5.5505c-0.9802,1.75453 -3.60104,4.60314 -5.83473,4.12555c-1.61789,-0.34592 -1.1648,-4.064 0.16205,-6.45544z" data-paper-data="{&quot;origPos&quot;:null,&quot;origRot&quot;:0}" fill="url(#color-10)" stroke="#000000" stroke-width="1.5"/><path d="M258.448,154.71648c-1.55441,2.31858 -4.10868,3.64652 -5.70512,2.96605c-2.43028,-1.03589 -1.39529,-3.60647 -0.08971,-5.54154c1.1475,-1.70077 4.09075,-4.41529 6.40234,-3.83868c1.67432,0.41763 0.94689,4.0956 -0.60752,6.41418z" data-paper-data="{&quot;origPos&quot;:null,&quot;origRot&quot;:0}" fill="url(#color-11)" stroke="#000000" stroke-width="1"/><path d="M235.88256,152.92255c1.3915,2.83519 1.25768,5.75286 -0.2989,6.51683c-2.3696,1.16299 -4.29737,-1.44509 -5.45407,-3.81775c-1.01665,-2.08537 -2.01739,-6.27823 -0.16207,-7.67114c1.34383,-1.00891 4.52355,2.13688 5.91505,4.97206z" data-paper-data="{&quot;origPos&quot;:null,&quot;origRot&quot;:0}" fill="url(#color-12)" stroke="#000000" stroke-width="1.5"/><path d="M253.22993,152.38837c-1.55993,2.8155 -4.27619,4.49862 -6.06694,3.75934c-2.72608,-1.1254 -1.75068,-4.2177 -0.4397,-6.56785c1.15224,-2.06559 4.20919,-5.40953 6.77695,-4.82377c1.85987,0.42427 1.28963,4.81677 -0.27031,7.63228z" data-paper-data="{&quot;origPos&quot;:null,&quot;origRot&quot;:0}" fill="url(#color-13)" stroke="#000000" stroke-width="1.5"/><path d="M241.09283,149.38244c1.09136,2.83187 0.52803,5.55032 -1.25824,6.07184c-2.71924,0.79392 -4.42083,-1.89212 -5.32576,-4.26102c-0.79537,-2.08208 -1.27079,-6.13782 0.92759,-7.2116c1.59232,-0.77775 4.56504,2.56891 5.6564,5.40079z" data-paper-data="{&quot;origPos&quot;:null,&quot;origRot&quot;:0}" fill="url(#color-14)" stroke="#000000" stroke-width="1.5"/><path d="M239.25125,179.1246c0,-3.56196 1.8371,-6.44949 4.10329,-6.44949c3.44985,0 4.20982,3.5985 4.20068,6.57551c-0.00803,2.61654 -1.24829,7.3589 -4.22715,7.84724c-2.15763,0.35371 -4.07682,-4.4113 -4.07682,-7.97325z" data-paper-data="{&quot;origPos&quot;:null,&quot;origRot&quot;:0}" fill="url(#color-15)" stroke="#000000" stroke-width="1.5"/><path d="M225.36813,163.38692c3.56196,0 6.44949,1.8371 6.44949,4.10329c0,3.44985 -3.5985,4.20982 -6.57551,4.20068c-2.61654,-0.00803 -7.3589,-1.24829 -7.84724,-4.22715c-0.35371,-2.15763 4.4113,-4.07682 7.97325,-4.07682z" data-paper-data="{&quot;origPos&quot;:null,&quot;origRot&quot;:0}" fill="url(#color-16)" stroke="#000000" stroke-width="1.5"/><path d="M262.11642,170.90529c-3.56196,0 -6.44949,-1.78115 -6.44949,-3.97832c0,-3.34477 3.5985,-4.08159 6.57551,-4.07274c2.61654,0.00778 7.35891,1.21027 7.84725,4.0984c0.35371,2.09192 -4.4113,3.95265 -7.97325,3.95265z" data-paper-data="{&quot;origPos&quot;:null,&quot;origRot&quot;:0}" fill="url(#color-17)" stroke="#000000" stroke-width="1.5"/><path d="M247.3293,150.59626c0,3.56196 -1.58531,6.44949 -3.5409,6.44949c-2.97701,0 -3.63282,-3.5985 -3.62494,-6.57551c0.00692,-2.61654 1.0772,-7.3589 3.64778,-7.84724c1.8619,-0.35371 3.51806,4.4113 3.51806,7.97325z" data-paper-data="{&quot;origPos&quot;:null}" fill="url(#color-18)" stroke="#000000" stroke-width="1.5"/><path d="M244.38145,151.79531c6.69047,0 18.45007,7.59248 18.46249,14.28293c0.01595,8.58785 -10.4884,14.31297 -19.06697,14.71249c-8.40641,0.3915 -18.98253,-6.10438 -19.0204,-14.51983c-0.03044,-6.76558 9.99326,-14.47559 19.62487,-14.47559z" data-paper-data="{&quot;origPos&quot;:null,&quot;origRot&quot;:0}" fill="url(#color-19)" stroke="#000000" stroke-width="2"/><path d="M240.60767,162.10128c0.04041,2.59256 -1.16442,4.78282 -2.69106,4.89204c-1.52662,0.10924 -2.79698,-1.90392 -2.83738,-4.49648c-0.04041,-2.59256 1.16442,-4.78282 2.69106,-4.89204c1.52662,-0.10924 2.79696,1.90392 2.83737,4.49647z" data-paper-data="{&quot;origPos&quot;:null,&quot;origRot&quot;:0}" fill="#000000" stroke="none" stroke-width="0"/><path d="M252.92664,162.21254c0.04041,2.59256 -1.16442,4.78282 -2.69106,4.89204c-1.52662,0.10924 -2.79698,-1.90392 -2.83738,-4.49648c-0.04041,-2.59256 1.16442,-4.78282 2.69106,-4.89204c1.52662,-0.10924 2.79696,1.90392 2.83737,4.49647z" data-paper-data="{&quot;origPos&quot;:null,&quot;origRot&quot;:0}" fill="#000000" stroke="none" stroke-width="0"/><path d="M238.43151,160.78962c0.01639,1.05121 -0.47214,1.93931 -1.09115,1.98359c-0.61901,0.04429 -1.1341,-0.77199 -1.15048,-1.8232c-0.01639,-1.05121 0.47214,-1.93931 1.09115,-1.98359c0.61901,-0.04429 1.1341,0.77199 1.15048,1.8232z" data-paper-data="{&quot;origPos&quot;:null,&quot;origRot&quot;:0}" fill="#ffffff" stroke="none" stroke-width="0"/><path d="M250.5448,160.88916c0.01639,1.05121 -0.47214,1.93931 -1.09115,1.98359c-0.61901,0.04429 -1.1341,-0.77199 -1.15048,-1.8232c-0.01639,-1.05121 0.47214,-1.93931 1.09115,-1.98359c0.61901,-0.04429 1.1341,0.77199 1.15048,1.8232z" data-paper-data="{&quot;origPos&quot;:null,&quot;origRot&quot;:0}" fill="#ffffff" stroke="none" stroke-width="0"/><path d="M240.13847,173.57436h6.5c0,0 -2.08173,3.0202 -3.41414,3.0202c-1.2043,0 -3.08586,-3.0202 -3.08586,-3.0202z" data-paper-data="{&quot;origPos&quot;:null}" fill="#ff0000" stroke="#000000" stroke-width="1"/></g></g></svg>