{
    "asset" : {
        "generator" : "Khronos glTF Blender I/O v1.7.33",
        "version" : "2.0"
    },
    "scene" : 0,
    "scenes" : [
        {
            "name" : "Scene",
            "nodes" : [
                0
            ]
        }
    ],
    "nodes" : [
        {
            "mesh" : 0,
            "name" : "corsa",
            "scale" : [
                0.1499907523393631,
                0.1499907523393631,
                0.1499907523393631
            ]
        }
    ],
    "materials" : [
        {
            "doubleSided" : true,
            "name" : "Material #25",
            "pbrMetallicRoughness" : {
                "baseColorTexture" : {
                    "index" : 0
                },
                "roughnessFactor" : 0.858578622341156
            }
        }
    ],
    "meshes" : [
        {
            "name" : "Mesh",
            "primitives" : [
                {
                    "attributes" : {
                        "POSITION" : 0,
                        "NORMAL" : 1,
                        "TEXCOORD_0" : 2
                    },
                    "indices" : 3,
                    "material" : 0
                }
            ]
        }
    ],
    "textures" : [
        {
            "sampler" : 0,
            "source" : 0
        }
    ],
    "images" : [
        {
            "bufferView" : 4,
            "mimeType" : "image/png",
            "name" : "corsa_test"
        }
    ],
    "accessors" : [
        {
            "bufferView" : 0,
            "componentType" : 5126,
            "count" : 1347,
            "max" : [
                11.534297943115234,
                15.05959415435791,
                22.72275733947754
            ],
            "min" : [
                -11.534303665161133,
                -0.9517629146575928,
                -20.72660255432129
            ],
            "type" : "VEC3"
        },
        {
            "bufferView" : 1,
            "componentType" : 5126,
            "count" : 1347,
            "type" : "VEC3"
        },
        {
            "bufferView" : 2,
            "componentType" : 5126,
            "count" : 1347,
            "type" : "VEC2"
        },
        {
            "bufferView" : 3,
            "componentType" : 5123,
            "count" : 1560,
            "type" : "SCALAR"
        }
    ],
    "bufferViews" : [
        {
            "buffer" : 0,
            "byteLength" : 16164,
            "byteOffset" : 0
        },
        {
            "buffer" : 0,
            "byteLength" : 16164,
            "byteOffset" : 16164
        },
        {
            "buffer" : 0,
            "byteLength" : 10776,
            "byteOffset" : 32328
        },
        {
            "buffer" : 0,
            "byteLength" : 3120,
            "byteOffset" : 43104
        },
        {
            "buffer" : 0,
            "byteLength" : 16641,
            "byteOffset" : 46224
        }
    ],
    "samplers" : [
        {
            "magFilter" : 9729,
            "minFilter" : 9987
        }
    ],
    "buffers" : [
        {
            "byteLength" : 62868,
            "uri" : "data:application/octet-stream;base64,"
        }
    ]
}
