<svg id="Layer_1" data-name="Layer 1" xmlns="http://www.w3.org/2000/svg" viewBox="0 0 100 100"><defs><style>.cls-1{fill:#9dc8dc;}.cls-2{fill:#6ab8d9;}.cls-3{fill:#ebf7fd;}</style></defs><title>water</title><path class="cls-1" d="M50,0s-.1.14-.24.36C46.89,4.61,16.91,49.51,16.91,66.91A33.09,33.09,0,0,0,49.76,100H50A33.09,33.09,0,0,0,83.09,66.91C83.09,48.63,50,0,50,0Z"/><circle class="cls-2" cx="41.05" cy="83.59" r="4.09"/><circle class="cls-2" cx="49.72" cy="76.18" r="1.51"/><circle class="cls-2" cx="52.3" cy="82.09" r="1.51"/><circle class="cls-2" cx="63.21" cy="47.15" r="2.52"/><ellipse class="cls-2" cx="74.91" cy="76.18" rx="5.25" ry="3" transform="translate(-21.46 122.31) rotate(-71.06)"/><ellipse class="cls-2" cx="43.76" cy="26.17" rx="3.07" ry="1.77" transform="translate(7.9 62.42) rotate(-76.19)"/><ellipse class="cls-3" cx="36.96" cy="51.83" rx="13.43" ry="7.71" transform="translate(-22.2 75.35) rotate(-76.19)"/></svg>