<svg id="Layer_1" data-name="Layer 1" xmlns="http://www.w3.org/2000/svg" viewBox="0 0 100 100"><defs><style>.cls-1{fill:#553734;}.cls-2{fill:#5f3f3b;}.cls-3{fill:#6d4945;}</style></defs><title>boat</title><rect class="cls-1" x="35.86" y="27.11" width="3.6" height="28.17" rx="0.9" ry="0.9" transform="translate(40.16 -14.56) rotate(45)"/><rect class="cls-1" x="22.44" y="43.28" width="9.97" height="15.77" rx="2.49" ry="2.49" transform="translate(44.21 -4.41) rotate(45)"/><path class="cls-2" d="M81.23,36.08c-6.59-.5-14.23-.92-21.76-1.24-2.73-.12-5.45-.22-8.1-.31-7.32-.25-14.1-.39-19.16-.39-1.11,0-2.17,0-3.23,0-4.06,0-7.75.19-11,.41A74.36,74.36,0,0,0,4.39,36.46C1.69,37.2.23,38.07.23,39c0,2.6-4.77,21.26,29,22.3,1,0,2,.05,3,.05,4.37,0,8.43-.1,12.26-.27s7.36-.43,10.68-.74a133.21,133.21,0,0,0,19-3.07c2.2-.54,4.21-1.12,6.06-1.72a43.63,43.63,0,0,0,13.65-6.87C99.37,44.26,100,40.13,100,39S92,36.89,81.23,36.08Z"/><path class="cls-1" d="M.23,39c0,2.6-4.77,21.26,29,22.3L4.39,36.46C1.69,37.2.23,38.07.23,39Z"/><path class="cls-1" d="M18,34.58l26.5,26.5c3.82-.17,7.36-.43,10.68-.74L29,34.17C24.92,34.22,21.23,34.36,18,34.58Z"/><path class="cls-1" d="M51.37,34.53,74.12,57.27c2.2-.54,4.21-1.12,6.06-1.72L59.47,34.84C56.74,34.72,54,34.62,51.37,34.53Z"/><path class="cls-1" d="M100,39c0-1.1-8-2.11-18.77-2.92l12.6,12.6C99.37,44.26,100,40.13,100,39Z"/><path class="cls-3" d="M100,38.64c0,2.52-51.32,4.56-70.48,4.56S0,41.16,0,38.64s10.37-4.57,29.52-4.57S100,36.12,100,38.64Z"/><path class="cls-2" d="M93.84,38.64c0,1.71-44.88,3.11-61.63,3.11S6.4,40.35,6.4,38.64s9.06-3.11,25.81-3.11S93.84,36.92,93.84,38.64Z"/><path class="cls-3" d="M37.41,38.88H29.47A3.52,3.52,0,0,0,26,42.39a4.16,4.16,0,0,0,.09.79c1.13,0,2.28,0,3.47,0,3.07,0,7-.05,11.33-.15a3.48,3.48,0,0,0-3.44-4.17Z"/><path class="cls-3" d="M68.34,38.88H60.4a3.52,3.52,0,0,0-3.51,3.51c0,.06,0,.11,0,.17,5-.19,10-.42,14.89-.69A3.53,3.53,0,0,0,68.34,38.88Z"/><circle class="cls-1" cx="14.57" cy="48.04" r="2.85"/><circle class="cls-1" cx="41.88" cy="48.35" r="4.42"/><circle class="cls-1" cx="61.62" cy="54.42" r="1.65"/><path class="cls-2" d="M37.93,47.87a10,10,0,0,1,2.46,4.49,9.16,9.16,0,0,1-7-7A10,10,0,0,1,37.93,47.87Z"/><path class="cls-2" d="M71.22,47.87a10,10,0,0,1,2.46,4.49,9.16,9.16,0,0,1-7-7A10,10,0,0,1,71.22,47.87Z"/><path class="cls-3" d="M27.86,54a54.39,54.39,0,0,1,5.2,6,53.15,53.15,0,0,1-6-5.19,53.6,53.6,0,0,1-5.19-6A53.6,53.6,0,0,1,27.86,54Z"/><path class="cls-3" d="M28.24,49.65a54.39,54.39,0,0,1,5.2,6A52.76,52.76,0,0,1,22.21,44.45,54.39,54.39,0,0,1,28.24,49.65Z"/><path class="cls-2" d="M11.52,50.13a9.52,9.52,0,0,1,2.4,5.55,9.56,9.56,0,0,1-5.56-2.4A9.55,9.55,0,0,1,6,47.73,9.52,9.52,0,0,1,11.52,50.13Z"/><path class="cls-2" d="M47.65,54.53a16.72,16.72,0,0,1,2.94,4,16.24,16.24,0,0,1-7-7A16.72,16.72,0,0,1,47.65,54.53Z"/><path class="cls-1" d="M26.35,57.89a2,2,0,0,0,2.82,2.82l5.09-5.08-2.82-2.82Z"/><path class="cls-3" d="M48.42,38.65a2,2,0,0,0-2.82,0L31.44,52.81l2.82,2.82L48.42,41.47A2,2,0,0,0,48.42,38.65Z"/><rect class="cls-3" x="20.53" y="51.99" width="11.05" height="17.47" rx="2.76" ry="2.76" transform="translate(50.57 -0.63) rotate(45)"/></svg>