<svg id="Layer_1" data-name="Layer 1" xmlns="http://www.w3.org/2000/svg" viewBox="0 0 100 100"><defs><style>.cls-1{fill:#deae38;}.cls-2{fill:#ffc63f;}.cls-3{fill:#00a69c;}</style></defs><title>desert</title><path class="cls-1" d="M65.45,34l-1.91-.42c10.89-1.06,12.68-8,12.68-8s6.16,6.64,12.67,8.05L87.12,34Z"/><path class="cls-1" d="M34.92,34,33,33.76C43.9,33.27,45.69,30,45.69,30a41.42,41.42,0,0,0,12.67,3.78L56.6,34Z"/><path class="cls-2" d="M80.67,36.44c0-.41-3.5-2.86-8.89-4.74-10.89-1.06-6.67-9-6.67-9s-12.17,7.66-18.67,9.07c-5.34,1.88-8.8,4.3-8.8,4.71Z"/><rect class="cls-1" x="28.82" y="32.71" width="71.18" height="15.74" rx="3.95" ry="3.95"/><polyline class="cls-1" points="69.09 74.79 97.54 46.34 97.54 36.58 95.81 34.1 51.73 55.5"/><path class="cls-2" d="M32.67,33.63,3,63.28H68.14L97,34.41h-.07a7.8,7.8,0,0,0-4.81-1.7H36.69a7.78,7.78,0,0,0-3.61.93"/><path class="cls-1" d="M63.31,61.6H7.87a7.87,7.87,0,0,0,0,15.74H63.31a7.87,7.87,0,1,0,0-15.74Z"/><path class="cls-3" d="M25.45,34.88a3.11,3.11,0,1,0-6.2.51l1.47,18.06H27Z"/><rect class="cls-3" x="23.3" y="39.63" width="9.45" height="4.91" rx="1.23" ry="1.23" transform="translate(-3.34 2.43) rotate(-4.68)"/><rect class="cls-3" x="28.54" y="35.93" width="4.06" height="8.4" rx="1.02" ry="1.02" transform="translate(-3.17 2.63) rotate(-4.68)"/><rect class="cls-3" x="13.76" y="43.44" width="9.45" height="4.91" rx="1.23" ry="1.23" transform="translate(40.65 90.14) rotate(175.32)"/><rect class="cls-3" x="13.62" y="40.18" width="4.06" height="8.4" rx="1.02" ry="1.02" transform="translate(34.88 87.34) rotate(175.32)"/><polygon class="cls-1" points="34.29 51.69 39.39 51.69 36.84 50.07 34.29 51.69"/><polygon class="cls-1" points="68.63 44.24 76.75 44.24 72.69 41.67 68.63 44.24"/><polygon class="cls-1" points="51.95 55.73 60.07 55.73 56.01 53.16 51.95 55.73"/><polygon class="cls-1" points="51.95 40.57 60.07 40.57 56.01 37.99 51.95 40.57"/><path class="cls-3" d="M73.06,34.33a2.11,2.11,0,1,1,4.2.35l-1,12.24H72Z"/><rect class="cls-3" x="68.1" y="37.55" width="6.41" height="3.33" rx="0.84" ry="0.84" transform="translate(139.17 84.12) rotate(-175.32)"/><rect class="cls-3" x="68.2" y="35.04" width="2.75" height="5.69" rx="0.69" ry="0.69" transform="translate(135.83 81.33) rotate(-175.32)"/><rect class="cls-3" x="74.57" y="40.14" width="6.41" height="3.33" rx="0.84" ry="0.84" transform="translate(3.67 -6.2) rotate(4.68)"/><rect class="cls-3" x="78.31" y="37.93" width="2.75" height="5.69" rx="0.69" ry="0.69" transform="translate(3.59 -6.36) rotate(4.68)"/></svg>