<svg id="Layer_1" data-name="Layer 1" xmlns="http://www.w3.org/2000/svg" viewBox="0 0 100 100"><defs><style>.cls-1{fill:#00a69c;}.cls-2{fill:#009f95;}.cls-3{fill:#00968d;}.cls-4{fill:#00948b;}.cls-5{fill:#008880;}</style></defs><title>cactus</title><polygon class="cls-1" points="43 5.3 49.42 5.3 46.21 0 43 5.3"/><polygon class="cls-2" points="31.14 73.23 31.14 66.81 25.84 70.02 31.14 73.23"/><polygon class="cls-2" points="31.14 84.06 31.14 77.64 25.84 80.85 31.14 84.06"/><polygon class="cls-2" points="31.35 14.73 35.89 10.19 29.88 8.71 31.35 14.73"/><polygon class="cls-3" points="7.78 18.93 12.32 14.39 6.31 12.92 7.78 18.93"/><polygon class="cls-2" points="88.4 49.19 88.4 55.61 93.69 52.4 88.4 49.19"/><polygon class="cls-2" points="73.14 41.92 77.68 37.38 71.66 35.9 73.14 41.92"/><rect class="cls-3" x="23.68" y="16.48" width="16.7" height="51.44" rx="4.15" ry="4.15" transform="translate(74.22 10.17) rotate(90)"/><rect class="cls-3" x="6.31" y="11.38" width="16.7" height="39.16" rx="4.15" ry="4.15" transform="translate(29.31 61.92) rotate(-180)"/><rect class="cls-2" x="54.96" y="41.09" width="16.7" height="51.44" rx="4.15" ry="4.15" transform="translate(130.11 3.5) rotate(90)"/><rect class="cls-2" x="72.33" y="35.99" width="16.7" height="39.16" rx="4.15" ry="4.15"/><path class="cls-1" d="M53.51,4.05a16.62,16.62,0,0,0-6.9-1.52c-.44,0-.85.09-1.28.12A16.64,16.64,0,0,0,29.91,19.23V88.71c0,5.09,2.32,8,5.94,9.59A25.55,25.55,0,0,0,45.33,100c.43,0,.84,0,1.28,0a37.45,37.45,0,0,0,6.9-.56c5.76-1.09,9.8-4,9.8-10.73V19.23A16.75,16.75,0,0,0,53.51,4.05Z"/><path class="cls-2" d="M53.51,4.05V99.44c5.76-1.09,9.8-4,9.8-10.73V19.23A16.75,16.75,0,0,0,53.51,4.05Z"/><path class="cls-2" d="M29.91,19.23V88.71c0,5.09,2.32,8,5.94,9.59V6.5A16.67,16.67,0,0,0,29.91,19.23Z"/><polygon class="cls-4" points="35.69 13.23 42.12 13.23 38.9 7.94 35.69 13.23"/><polygon class="cls-5" points="11.44 21.8 17.86 21.8 14.65 16.5 11.44 21.8"/><polygon class="cls-5" points="11.44 31.86 17.86 31.86 14.65 26.56 11.44 31.86"/><polygon class="cls-5" points="11.44 41.92 17.86 41.92 14.65 36.62 11.44 41.92"/><polygon class="cls-5" points="77.47 47.22 83.89 47.22 80.68 41.92 77.47 47.22"/><polygon class="cls-5" points="77.47 57.28 83.89 57.28 80.68 51.98 77.47 57.28"/><polygon class="cls-5" points="77.47 67.34 83.89 67.34 80.68 62.04 77.47 67.34"/><polygon class="cls-4" points="43.4 21.58 49.82 21.58 46.61 16.29 43.4 21.58"/><polygon class="cls-4" points="35.69 31.86 42.12 31.86 38.9 26.56 35.69 31.86"/><polygon class="cls-4" points="43.4 40.21 49.82 40.21 46.61 34.91 43.4 40.21"/><polygon class="cls-4" points="35.69 50.48 42.12 50.48 38.9 45.18 35.69 50.48"/><polygon class="cls-4" points="43.4 58.83 49.82 58.83 46.61 53.53 43.4 58.83"/><polygon class="cls-4" points="35.69 69.99 42.12 69.99 38.9 64.69 35.69 69.99"/><polygon class="cls-4" points="43.4 78.33 49.82 78.33 46.61 73.04 43.4 78.33"/><polygon class="cls-4" points="35.69 89.49 42.12 89.49 38.9 84.19 35.69 89.49"/><polygon class="cls-4" points="43.4 97.84 49.82 97.84 46.61 92.54 43.4 97.84"/></svg>