<svg id="Layer_1" data-name="Layer 1" xmlns="http://www.w3.org/2000/svg" viewBox="0 0 100 100"><defs><style>.cls-1{fill:#069274;}.cls-2{fill:#b2ae4f;}.cls-3{fill:#09a582;}.cls-4{fill:#fff;}</style></defs><title>seaweed</title><path class="cls-1" d="M39.91,100a46.91,46.91,0,0,1-11.6-7.86,49.91,49.91,0,0,1-9.21-11,42.18,42.18,0,0,1-5.45-14,29.06,29.06,0,0,1-.46-3.86L13,61.3c0-.65,0-1.31.05-2l.28-3.93.84-3.83.46-1.9.49-1.6,1-3.16c.65-2.09,1.33-4.2,1.93-6.28a124.82,124.82,0,0,0,3.21-12.38c.79-4.07,1.13-8,.11-11.58S17.3,8,13.32,5.54a30.66,30.66,0,0,1,3.5.43,17,17,0,0,1,3.47,1.19,14.21,14.21,0,0,1,5.94,5,20.4,20.4,0,0,1,3,7.33c.25,1.26.41,2.53.55,3.79S30,25.79,30,27a70.45,70.45,0,0,1-1.7,14.18c-.44,2.31-1.07,4.51-1.61,6.77l-.95,3.31-.48,1.64-.29,1.39-.68,2.76c-.08.94-.14,1.88-.25,2.82a13.21,13.21,0,0,0-.15,1.41l.05,1.42c.06,1,0,1.91.12,2.87a46,46,0,0,0,2.84,11.62C29.85,85,34.5,92.5,39.91,100Z"/><path class="cls-1" d="M56.2,100c5.41-7.5,10.06-15,13-22.79a46.82,46.82,0,0,0,2.84-11.62c.14-1,0-1.91.11-2.87l0-1.42a13.2,13.2,0,0,0-.14-1.41C72,59,71.93,58,71.85,57.07l-.68-2.76-.29-1.39-.47-1.64-1-3.31c-.54-2.26-1.16-4.46-1.61-6.77A70.45,70.45,0,0,1,66.14,27c0-1.23.1-2.5.15-3.73s.31-2.53.55-3.79a20.76,20.76,0,0,1,3-7.33,14.24,14.24,0,0,1,6-5A16.88,16.88,0,0,1,79.29,6a30.55,30.55,0,0,1,3.51-.43c-4,2.45-7.17,5.52-8.08,9.14s-.69,7.51.1,11.58A122.21,122.21,0,0,0,78,38.64c.59,2.08,1.27,4.19,1.92,6.28l1,3.16.49,1.6.47,1.9.83,3.83L83,59.34c0,.65.1,1.31.06,2l-.16,1.94a29.06,29.06,0,0,1-.46,3.86,42.18,42.18,0,0,1-5.45,14,49.87,49.87,0,0,1-9.2,11A47,47,0,0,1,56.2,100Z"/><path class="cls-2" d="M26.61,98.54a56.11,56.11,0,0,1,1.31-15.19A44.14,44.14,0,0,1,34,68.63a33.4,33.4,0,0,1,2.64-3.4,30.82,30.82,0,0,1,3.37-3c3-2.07,4.37-2.66,5.39-3.75s1-1.55.95-2.33a8.1,8.1,0,0,0-1.81-3.67,17.18,17.18,0,0,0-4-3.79,9.32,9.32,0,0,0-1.08-.7l-1.14-.67a8.49,8.49,0,0,1-1.51-1.22,8.48,8.48,0,0,1-1.2-1.9,5.87,5.87,0,0,1-.49-1.8A6,6,0,0,1,35,40.82a8.55,8.55,0,0,1,.41-2.08,12.62,12.62,0,0,1,1.14-2.62,47.48,47.48,0,0,1,4.76-6.65c1.59-2,3.21-3.8,4.79-5.64a103,103,0,0,0,8.7-11.13,21,21,0,0,0,2.79-6.06A8.76,8.76,0,0,0,56.53,0a8.54,8.54,0,0,1,2.79,2.76A10.53,10.53,0,0,1,60.7,6.7a20.49,20.49,0,0,1-.86,8.17A62.47,62.47,0,0,1,53.2,28.93c-1.3,2.15-2.64,4.25-3.94,6.28A52.25,52.25,0,0,0,46,40.91a3.46,3.46,0,0,0-.27.78c-.06.14.06-.1,0-.27,0,0,0-.34,0-.63a5.28,5.28,0,0,0-.27-.91,3,3,0,0,0-.72-1.11,3,3,0,0,0-.76-.68,2.64,2.64,0,0,0-.38-.18l.28.13.56.28a18.23,18.23,0,0,1,2.1,1.18,27.58,27.58,0,0,1,6.79,6.2,18.1,18.1,0,0,1,3.92,9.71A18.25,18.25,0,0,1,57,58.54a14.75,14.75,0,0,1-1,3,15,15,0,0,1-1.6,2.58,19.56,19.56,0,0,1-1.93,2c-.67.53-1.36,1-2,1.53a21.26,21.26,0,0,1-2.07,1.14l-1.74.89-1.2.57a26,26,0,0,0-2.36,1.61A23.5,23.5,0,0,0,40.8,74,54.71,54.71,0,0,0,33,85.23C30.66,89.44,28.66,93.91,26.61,98.54Z"/><path class="cls-3" d="M43.51,98.54c1.52-4.18,3.06-8.17,4.18-12.2a40,40,0,0,0,2-11.46,10.16,10.16,0,0,0-.89-4.32,5.59,5.59,0,0,0-.44-.76,3.88,3.88,0,0,1-.26-.31,3.55,3.55,0,0,0-.34-.44c-.62-.75-1.21-1.5-1.9-2.24-2.62-3-5.6-6-8.55-9.55a41.72,41.72,0,0,1-4.16-6.08A20.59,20.59,0,0,1,30.58,43a17.44,17.44,0,0,1,1.86-8.79,44.5,44.5,0,0,0,2.31-5.11,33.93,33.93,0,0,0-.1-23.55,24,24,0,0,1,7.52,11.35,31.41,31.41,0,0,1,1,14.25,37.57,37.57,0,0,1-1.86,7A8.31,8.31,0,0,0,41,41.94c.4,2.31,2.3,5.29,4.84,8.33s5.44,6.28,8.16,10c.68.91,1.33,1.91,2,2.89.15.21.35.53.56.9l.57,1.06a17.26,17.26,0,0,1,.82,2.2,18,18,0,0,1,.33,8.39,34.24,34.24,0,0,1-5.74,13A47.38,47.38,0,0,1,43.51,98.54Z"/><circle class="cls-4" cx="65.16" cy="82.41" r="4.02"/><circle class="cls-4" cx="84.35" cy="70.66" r="2.52"/><circle class="cls-4" cx="63.18" cy="59.01" r="4.01"/><circle class="cls-4" cx="73.42" cy="40.08" r="2.01"/><circle class="cls-4" cx="90.97" cy="36.57" r="2.01"/></svg>