<svg id="Layer_1" data-name="Layer 1" xmlns="http://www.w3.org/2000/svg" viewBox="0 0 100 100"><defs><style>.cls-1{fill:#09a582;}.cls-2{fill:#00604a;}.cls-3{fill:#038c6e;}.cls-4{fill:#ffc640;}.cls-5{fill:#ee4036;}.cls-6{fill:#01876a;}</style></defs><title>dragon</title><path class="cls-1" d="M24.78,76.23A46.49,46.49,0,0,0,13,82.7a16.63,16.63,0,0,0-1.88,1.78,7.68,7.68,0,0,1-.85,1c-.11.08-.34.26-.1.8a8.21,8.21,0,0,0,.58.89l1,1c3.42,2.56,8.5,4.38,13.46,5.77S35.5,96.3,40.73,97.25c-5.29.42-10.62.74-16,.68s-10.88-.38-16.86-2.67c-.76-.35-1.53-.76-2.29-1.17A18.44,18.44,0,0,1,3.24,92.3,10.79,10.79,0,0,1,.08,86a13.61,13.61,0,0,1,1-6.61,24.85,24.85,0,0,1,2.62-4.7,47.35,47.35,0,0,1,6.19-7c1.09-1,2.2-2,3.33-3s2.21-1.82,3.63-2.82Z"/><path class="cls-2" d="M40.73,11.49c2.48,1,5.16,2.2,7.71,3.4.42-4.25.77-8.53,1-12.83C46.46,5.14,43.45,8.24,40.73,11.49Z"/><path class="cls-2" d="M48.44,14.89c2.57,1.21,5.12,2.47,7.63,3.79.62-4.23,1.14-8.48,1.59-12.77Q52.94,10.32,48.44,14.89Z"/><path class="cls-2" d="M56.07,18.68q3.76,2,7.41,4.13c.84-4.18,1.58-8.42,2.21-12.68C62.41,12.91,59.2,15.78,56.07,18.68Z"/><path class="cls-2" d="M63.48,22.81c2.43,1.43,4.79,2.94,7.09,4.5,1.12-4.11,2.12-8.31,3-12.52C70.1,17.37,66.74,20.06,63.48,22.81Z"/><path class="cls-2" d="M70.57,27.31c2.3,1.56,4.5,3.21,6.6,4.93,1.52-4,2.85-8.08,4-12.22C77.52,22.31,74,24.77,70.57,27.31Z"/><path class="cls-2" d="M77.17,32.24a55.31,55.31,0,0,1,5.76,5.42,83.53,83.53,0,0,0,5.53-11.6A108.69,108.69,0,0,0,77.17,32.24Z"/><path class="cls-2" d="M82.93,37.66a28.6,28.6,0,0,1,4.25,5.85,44.78,44.78,0,0,0,4.26-4.7,54.53,54.53,0,0,0,3.65-5.38A64.72,64.72,0,0,0,82.93,37.66Z"/><path class="cls-2" d="M87.18,43.51a12.36,12.36,0,0,1,1.57,5.61,23.64,23.64,0,0,0,5.88-2.19A29.88,29.88,0,0,0,100,43.16a32.53,32.53,0,0,0-6.54-.45A36.42,36.42,0,0,0,87.18,43.51Z"/><path class="cls-1" d="M81.69,72.13a9.87,9.87,0,0,1,4.16,2.15,8.34,8.34,0,0,1,2.78,4.59,7,7,0,0,1-.22,3.56,7.8,7.8,0,0,1-2,3.08,11.67,11.67,0,0,1-5,2.75,19.36,19.36,0,0,1-9,.23,19.87,19.87,0,0,1-8-3.56,34.37,34.37,0,0,1,8-2.88c2.49-.65,4.93-1.11,6.84-1.66a14.35,14.35,0,0,0,2.16-.73c.35-.2.51.11.85-.43a5.69,5.69,0,0,0,.18-2.91C82.27,75.06,82,73.7,81.69,72.13Z"/><path class="cls-3" d="M31.85,11.56s-.6-2.65-6.06-7.64c0,0-3.07,8.92,2.64,15.06"/><path class="cls-2" d="M73.38,62.52S57.91,64.89,59,72.47c0,0-28.75-10.11-34.37-22.57,0,0,6.8.39,6.81-4.23,0,0,6.87,2.45,7.07-1.15,0,0,10.64,2.3,9.69-1C48.18,43.49,45.11,51.09,73.38,62.52Z"/><path class="cls-1" d="M87.37,74.31c-2.48,9.54-38.09,10.62-51.45,10.62s-24.19-8-24.19-17.85S22.56,49.23,35.92,49.23,91.84,57.05,87.37,74.31Z"/><path class="cls-1" d="M61.22,23.82a19.14,19.14,0,1,1-38.27,0C23,13.26,31.52,9.66,42.08,9.66S61.22,13.26,61.22,23.82Z"/><path class="cls-1" d="M77.29,80.07A12.28,12.28,0,0,1,72,56.71l.46-.23c-4.78-5.69-20.32-15.54-35.24-22A12.29,12.29,0,0,1,47,11.92C66,20.17,97.82,37.05,98.2,57.31c.09,5.21-1.81,14.93-15.61,21.55A12.24,12.24,0,0,1,77.29,80.07Zm-3.55-21.5h0Z"/><rect class="cls-1" x="8.87" y="17.79" width="42.86" height="25.7" rx="6.28" ry="6.28"/><rect class="cls-1" x="18.6" y="12.33" width="7.17" height="9.73" rx="1.75" ry="1.75"/><rect class="cls-1" x="34.92" y="12.33" width="7.17" height="9.73" rx="1.75" ry="1.75"/><path class="cls-2" d="M52.3,58.7S38.52,66.12,42.08,72.9c0,0-30.48.13-39.95-9.72,0,0,6.53-1.92,5-6.27,0,0,7.3,0,6.28-3.46,0,0,10.79-1.41,8.78-4.22C22.18,49.23,21.84,57.42,52.3,58.7Z"/><path class="cls-1" d="M56,14.12s.6-2.65,6.06-7.64c0,0,3.07,8.92-2.65,15.06"/><path class="cls-1" d="M62.64,73c-.28,1.56-.58,2.92-.71,4.18a5.69,5.69,0,0,0,.18,2.91c.34.54.5.23.85.43a14.78,14.78,0,0,0,2.16.73c1.91.55,4.36,1,6.84,1.66a34.37,34.37,0,0,1,8,2.88,19.68,19.68,0,0,1-8,3.56,19.19,19.19,0,0,1-9-.23,11.43,11.43,0,0,1-5-2.75,8,8,0,0,1-2-3.08,7,7,0,0,1-.22-3.56,8.28,8.28,0,0,1,2.78-4.58A9.65,9.65,0,0,1,62.64,73Z"/><path class="cls-1" d="M19.68,73c-.28,1.56-.57,2.92-.71,4.18a5.69,5.69,0,0,0,.18,2.91c.34.54.51.23.86.43a14.54,14.54,0,0,0,2.15.73c1.92.55,4.36,1,6.84,1.66s3.53,1.39,6.33,2.88c-2.52,1.91-3.59,3-6.41,3.56a19.19,19.19,0,0,1-9-.23,11.35,11.35,0,0,1-5-2.75,7.8,7.8,0,0,1-2-3.08,7,7,0,0,1-.23-3.56,8.23,8.23,0,0,1,2.79-4.58A9.56,9.56,0,0,1,19.68,73Z"/><path class="cls-4" d="M70.77,89.6h9.4s-2.1-2.91-9.4-3Z"/><path class="cls-4" d="M70.77,87.67h9.4s-2.1-2.9-9.4-3Z"/><path class="cls-4" d="M70.77,85.75h9.4s-2.1-2.91-9.4-3Z"/><path class="cls-4" d="M29.79,89.28h8.45s-1.89-2.61-8.45-2.67Z"/><path class="cls-4" d="M29.79,87.55h8.45s-1.89-2.61-8.45-2.67Z"/><path class="cls-4" d="M29.79,85.82h8.45s-1.89-2.61-8.45-2.66Z"/><path class="cls-4" d="M13.86,29.42c0,.67-1.12,1.22-2.49,1.22s-2.5-.55-2.5-1.22,2.5-13.06,2.5-13.06S13.86,28.74,13.86,29.42Z"/><path class="cls-4" d="M33.93,29.42c0,.67-1.11,1.22-2.49,1.22S29,30.09,29,29.42s2.49-13.06,2.49-13.06S33.93,28.74,33.93,29.42Z"/><rect class="cls-3" x="8.57" y="29.11" width="43.73" height="2.18" rx="0.53" ry="0.53"/><circle class="cls-2" cx="21.78" cy="15.51" r="1.38"/><circle class="cls-2" cx="38.25" cy="15.51" r="1.38"/><circle class="cls-3" cx="53.87" cy="19.88" r="2.69"/><circle class="cls-5" cx="53.92" cy="18.99" r="1.2"/><circle class="cls-6" cx="61.13" cy="68.8" r="1.72"/><circle class="cls-6" cx="72.97" cy="64.33" r="0.41"/><circle class="cls-6" cx="63.95" cy="35.47" r="0.47"/><circle class="cls-6" cx="73.83" cy="37.2" r="1.27"/><circle class="cls-6" cx="83.59" cy="46.57" r="0.66"/><circle class="cls-6" cx="40.49" cy="36.8" r="0.87"/><circle class="cls-6" cx="50.68" cy="68.41" r="0.39"/><circle class="cls-6" cx="19.77" cy="76.69" r="0.64"/></svg>