<svg id="Layer_1" data-name="Layer 1" xmlns="http://www.w3.org/2000/svg" viewBox="0 0 100 100"><defs><style>.cls-1{fill:#7d7d7d;}.cls-2{fill:#171717;}.cls-3{fill:#f37d3b;}.cls-4{fill:#d76f34;}.cls-5{fill:#09a582;}.cls-6{fill:#b95f2b;}.cls-7{fill:#909295;}.cls-8{fill:#fff;}</style></defs><title>cyclist</title><rect class="cls-1" x="32.36" y="29.87" width="6.31" height="22.7" rx="1.42" ry="1.42"/><rect class="cls-1" x="26.1" y="26.43" width="3.16" height="22.7" rx="0.71" ry="0.71" transform="translate(-18.61 30.64) rotate(-45)"/><path class="cls-2" d="M31.27,53.92V52.36a4.27,4.27,0,0,1,4.25-4.25h0a4.26,4.26,0,0,1,4.25,4.25v1.56"/><rect class="cls-2" x="31.27" y="52.81" width="2.1" height="4.99" rx="0.47" ry="0.47"/><rect class="cls-2" x="34.47" y="51.28" width="2.1" height="4.99" rx="0.47" ry="0.47"/><rect class="cls-2" x="37.67" y="52.81" width="2.1" height="4.99" rx="0.47" ry="0.47"/><rect class="cls-2" x="4.57" y="22.52" width="7.95" height="17.93" rx="1.78" ry="1.78"/><rect class="cls-2" x="8.89" y="27.56" width="14.03" height="7.74" rx="1.74" ry="1.74"/><path class="cls-2" d="M56.65,25.87c0,8.09-11.83,10.75-26.43,10.75S3.8,34,3.8,25.87,15.63,11.21,30.22,11.21,56.65,17.77,56.65,25.87Z"/><path class="cls-3" d="M56.65,24.15c0,8.1-11.83,10.76-26.43,10.76S3.8,32.25,3.8,24.15,6.66,8.22,21.26,8.22,56.65,16.06,56.65,24.15Z"/><rect class="cls-4" x="17.75" y="21.66" width="26.97" height="4.21" rx="0.94" ry="0.94"/><rect class="cls-4" x="22.5" y="14.02" width="13.95" height="4.21" rx="0.94" ry="0.94"/><rect class="cls-4" x="38.41" y="16.6" width="13.95" height="2.46" rx="0.55" ry="0.55" transform="translate(20.81 -24.29) rotate(38.3)"/><path class="cls-1" d="M68.11,69a1.37,1.37,0,0,1-.79,1.24l-5.71,2.65a1.36,1.36,0,0,1-1.15-2.47l5.71-2.65a1.36,1.36,0,0,1,1.81.66A1.47,1.47,0,0,1,68.11,69Z"/><path class="cls-5" d="M87.83,59.79A1.37,1.37,0,0,1,87,61L67.32,70.19a1.36,1.36,0,1,1-1.15-2.47L85.9,58.55a1.37,1.37,0,0,1,1.81.67A1.42,1.42,0,0,1,87.83,59.79Z"/><path class="cls-2" d="M100,78.64A13.13,13.13,0,1,1,86.87,65.51,13.15,13.15,0,0,1,100,78.64Zm-23.32,0A10.19,10.19,0,1,0,86.87,68.45,10.21,10.21,0,0,0,76.68,78.64Z"/><path class="cls-5" d="M88.23,61.05V79.63a1.33,1.33,0,0,1-.65,1.16,1.35,1.35,0,0,1-1.32.06L65.78,70.54A1.36,1.36,0,0,1,65,69.33v-28a1.37,1.37,0,0,1,2.31-1L87.81,60.06A1.38,1.38,0,0,1,88.23,61.05ZM85.51,77.42V61.63L67.75,44.51v24Z"/><path class="cls-2" d="M100,34.18A13.13,13.13,0,1,1,86.87,21.05,13.14,13.14,0,0,1,100,34.18Zm-23.32,0A10.19,10.19,0,1,0,86.87,24,10.2,10.2,0,0,0,76.68,34.18Z"/><path class="cls-5" d="M88.34,34.18a1.46,1.46,0,0,1-1,1.4L57.08,44.67a1.47,1.47,0,0,1-.85-2.82l30.22-9.08a1.48,1.48,0,0,1,1.83,1A1.59,1.59,0,0,1,88.34,34.18Z"/><path class="cls-1" d="M57.91,40.15V50.27a1.47,1.47,0,1,1-2.94,0V40.15a1.47,1.47,0,0,1,2.94,0Z"/><rect class="cls-6" x="52.98" y="48.4" width="6.95" height="3.73" rx="0.84" ry="0.84" transform="translate(6.19 106.72) rotate(-90)"/><path class="cls-6" d="M62.5,67.83v6.06c0,1.11-2.28,3.52-3.39,3.52h0a2,2,0,0,1-2-2l1.38-7.56a2,2,0,0,1,2-2h0A2,2,0,0,1,62.5,67.83Z"/><circle class="cls-7" cx="85.95" cy="59.79" r="4.59"/><rect class="cls-2" y="65.81" width="53.66" height="24.66" rx="5.53" ry="5.53"/><rect class="cls-8" x="4.57" y="75.23" width="10.19" height="2.9" rx="0.65" ry="0.65"/><rect class="cls-8" x="21.74" y="75.23" width="10.19" height="2.9" rx="0.65" ry="0.65"/><rect class="cls-8" x="38.9" y="75.23" width="10.19" height="2.9" rx="0.65" ry="0.65"/></svg>