<svg id="Layer_1" data-name="Layer 1" xmlns="http://www.w3.org/2000/svg" viewBox="0 0 100 100"><defs><style>.cls-1{fill:#6ab8d9;}.cls-2{fill:#ebf7fd;}.cls-3{fill:#6ab7d9;}.cls-4{fill:#f37d3b;}.cls-5{fill:#ffc640;}.cls-6{fill:#fff588;}.cls-7{fill:#171717;}.cls-8{fill:#faad3f;}.cls-9{fill:#bc6842;}</style></defs><title>firefighter</title><path class="cls-1" d="M85.61,28.26a3,3,0,0,1-3-3v-15a1.35,1.35,0,0,0-2.69,0,3,3,0,0,1-6,0,7.34,7.34,0,1,1,14.67,0v15A3,3,0,0,1,85.61,28.26Z"/><path class="cls-1" d="M85.61,28.26a3,3,0,0,1-3-3v-15a7.33,7.33,0,1,1,14.66,0,3,3,0,0,1-6,0,1.34,1.34,0,0,0-2.68,0v15A3,3,0,0,1,85.61,28.26Z"/><rect class="cls-2" x="84.78" y="8.93" width="1.95" height="16.82" rx="0.42" ry="0.42"/><path class="cls-3" d="M95.87,15.83a.54.54,0,0,1-1.07,0,3.65,3.65,0,0,1,.53-1.09A3.63,3.63,0,0,1,95.87,15.83Z"/><path class="cls-2" d="M94.59,18.34a1.17,1.17,0,1,1-2.34,0A7.93,7.93,0,0,1,93.42,16,7.93,7.93,0,0,1,94.59,18.34Z"/><path class="cls-2" d="M76.93,16.6a.68.68,0,0,1-.68.69.69.69,0,0,1-.69-.69,4.66,4.66,0,0,1,.69-1.39A4.68,4.68,0,0,1,76.93,16.6Z"/><path class="cls-4" d="M5.76,36.75C5.76,24,16.06,6.8,28.78,6.8s23,17.23,23,30"/><rect class="cls-4" y="34.41" width="57.69" height="6.13" rx="1.33" ry="1.33"/><circle class="cls-5" cx="46.56" cy="28.09" r="7.23"/><rect class="cls-5" x="39.32" y="16.33" width="4.83" height="14.18" rx="1.04" ry="1.04"/><rect class="cls-5" x="44.15" y="16.33" width="4.83" height="14.18" rx="1.04" ry="1.04"/><rect class="cls-5" x="48.98" y="16.33" width="4.83" height="14.18" rx="1.04" ry="1.04"/><rect class="cls-6" x="75.45" y="71.47" width="8.19" height="40.91" rx="1.77" ry="1.77" transform="translate(-12.38 171.47) rotate(-90)"/><rect class="cls-6" x="75.45" y="63.73" width="8.19" height="40.91" rx="1.77" ry="1.77" transform="translate(-4.64 163.73) rotate(-90)"/><rect class="cls-6" x="75.45" y="55.54" width="8.19" height="40.91" rx="1.77" ry="1.77" transform="translate(3.55 155.54) rotate(-90)"/><path class="cls-6" d="M81.62,78.06a4.1,4.1,0,1,0,8.19,0V34.52H81.62Z"/><path class="cls-1" d="M89.81,34.52V28a4.1,4.1,0,1,0-8.19,0v6.52Z"/><rect class="cls-7" x="78.12" y="22.32" width="15.18" height="4.81" rx="1.04" ry="1.04" transform="translate(171.43 49.46) rotate(-180)"/><rect class="cls-7" x="80.72" y="26.17" width="9.99" height="3.92" transform="translate(171.43 56.25) rotate(180)"/><path class="cls-5" d="M41.84,54.18s3.1,8.75-20.31,14.56l12.23,7.68.83.52C49,69.2,41.84,54.18,41.84,54.18Z"/><circle class="cls-7" cx="14.35" cy="66.47" r="2.65"/><path class="cls-8" d="M10.68,74.55c1,2.31,7.2,1.85,13.86-1a23.43,23.43,0,0,0,10.33-9.18C17,63.63,17.76,57.85,17.76,57.85S9.68,72.25,10.68,74.55Z"/><path class="cls-4" d="M16.06,55.9a1.93,1.93,0,1,1-3.85,0c0-1.06,1.93-3.89,1.93-3.89S16.06,54.84,16.06,55.9Z"/><path class="cls-4" d="M12.21,70.81a1.09,1.09,0,1,1-2.17,0,7.42,7.42,0,0,1,1.08-2.2A7.39,7.39,0,0,1,12.21,70.81Z"/><path class="cls-8" d="M48.36,68.09a3,3,0,1,1-6.07,0c0-1.67,3-6.14,3-6.14S48.36,66.42,48.36,68.09Z"/><circle class="cls-7" cx="18.71" cy="65.31" r="2.65"/><circle class="cls-7" cx="13.53" cy="67.68" r="1.45"/><circle class="cls-7" cx="20.97" cy="62.46" r="1.76"/><circle class="cls-7" cx="25.21" cy="59.34" r="3.32"/><circle class="cls-7" cx="26.74" cy="56.23" r="0.98"/><circle class="cls-7" cx="24.25" cy="53.89" r="1.51"/><circle class="cls-7" cx="37.99" cy="58.54" r="1.51"/><circle class="cls-7" cx="18.82" cy="51.25" r="0.48"/><circle class="cls-7" cx="40.66" cy="54.92" r="0.48"/><circle class="cls-7" cx="37.51" cy="56.86" r="0.48"/><circle class="cls-7" cx="18.65" cy="59.23" r="0.96"/><circle class="cls-7" cx="21.89" cy="55.66" r="0.67"/><path class="cls-8" d="M36.76,53.36a1.39,1.39,0,0,1-2.77,0,9.35,9.35,0,0,1,1.38-2.8S36.76,52.59,36.76,53.36Z"/><path class="cls-5" d="M35.16,67.47s7.27,5.76-9.46,23.13H41.12C49.18,76.4,35.16,67.47,35.16,67.47Z"/><path class="cls-4" d="M47.44,78A19.06,19.06,0,0,1,9.32,78c0-8.55,6.25-8.68,11.44-14.81,6.16-7.29,4.85-16.49,4.85-16.49S47.44,67.49,47.44,78Z"/><path class="cls-5" d="M26.19,83.65c0,.19.38-.07.59-.19a8.61,8.61,0,0,0,.75-.53A15,15,0,0,0,29,81.6a16.63,16.63,0,0,0,2.52-3.34,18.5,18.5,0,0,0,2.41-9,21.86,21.86,0,0,1,2.69,4.45,21.48,21.48,0,0,1,1.64,5.33A24.88,24.88,0,0,1,38.61,85,25.28,25.28,0,0,1,38.27,88c-.09.52-.19,1-.33,1.58a9.11,9.11,0,0,1-.63,1.84,6.79,6.79,0,1,1-11.12-7.81Z"/><path class="cls-9" d="M30.56,90.56a20.28,20.28,0,0,0,2.19-2.5,23.84,23.84,0,0,0,1.88-2.89A11.4,11.4,0,0,0,36.2,78.4,12.68,12.68,0,0,1,37.28,86a24.69,24.69,0,0,1-.78,3.88,24.78,24.78,0,0,1-1.37,3.85l-.06.13a2.84,2.84,0,1,1-5.16-2.37A3.1,3.1,0,0,1,30.56,90.56Z"/><path class="cls-5" d="M28.38,85.14a3.53,3.53,0,0,1-7,0c0-2,3.52-7.13,3.52-7.13S28.38,83.19,28.38,85.14Z"/><path class="cls-5" d="M18.74,78.65a1.76,1.76,0,1,1-3.52,0c0-1,1.76-3.57,1.76-3.57S18.74,77.67,18.74,78.65Z"/></svg>