<svg id="Layer_1" data-name="Layer 1" xmlns="http://www.w3.org/2000/svg" viewBox="0 0 100 100"><defs><style>.cls-1{fill:#714c48;}.cls-2{fill:#f37d3b;}.cls-3{fill:#fff;}.cls-4{fill:#5a9eba;}.cls-5{fill:#deae38;}.cls-6{fill:#ffc63f;}.cls-7{fill:#6ab8d9;}.cls-8{fill:#447d93;}.cls-9{fill:#d7a936;}.cls-10{fill:#01886b;}.cls-11{fill:#09a582;}</style></defs><title>beach</title><rect class="cls-1" x="42.8" y="25.43" width="1.51" height="15.12" rx="0.38" ry="0.38"/><path class="cls-2" d="M33.13,27.61a10.84,10.84,0,0,1,21.68,0"/><path class="cls-3" d="M36.74,27.61c0-6,3.24-10.84,7.23-10.84s7.23,4.86,7.23,10.84"/><path class="cls-2" d="M40.86,27.61c0-6,1.39-10.84,3.11-10.84s3.11,4.86,3.11,10.84"/><path class="cls-4" d="M64.3,75.36l4.79,5.32,6.2-6.2a7.78,7.78,0,0,1-3.53.88Z"/><path class="cls-5" d="M96.05,38.61H32.78a4,4,0,0,0-4,4v7.83a4,4,0,0,0,4,4H81.49L78,57.83l3.45,10.49,14-14h.63a4,4,0,0,0,4-4V42.56A4,4,0,0,0,96.05,38.61Z"/><path class="cls-6" d="M96.94,40.3a7.79,7.79,0,0,0-4.81-1.69H36.69a7.77,7.77,0,0,0-3.61.92l-2,1.41L12.53,59.62H71.76a7.77,7.77,0,0,1,4.5,1.43L96.43,40.88,97,40.3Z"/><path class="cls-3" d="M79.3,58h0l0,0,0,0h0a7.76,7.76,0,0,0-4.42-1.39H15.56l-5.08,5.11H57.77l4,4.39h0l5.57,6.19h7.46a7.89,7.89,0,0,0,3.57-.8L81.79,68a8.06,8.06,0,0,0,.82-3.6A7.83,7.83,0,0,0,79.3,58Z"/><path class="cls-4" d="M58.73,69.17l5.57,6.19h7.46a7.78,7.78,0,0,0,3.53-.88L78.76,71a7.77,7.77,0,0,0,.88-3.52,7.89,7.89,0,0,0-3.38-6.44Z"/><path class="cls-7" d="M71.76,59.62H12.53L3,69.17H68.14l8.12-8.12A7.77,7.77,0,0,0,71.76,59.62Z"/><path class="cls-8" d="M63.31,67.49H7.87a7.87,7.87,0,0,0,0,15.74H63.31a7.87,7.87,0,1,0,0-15.74Z"/><polygon class="cls-4" points="25.81 62.67 42.4 62.67 34.1 60.6 25.81 62.67"/><polygon class="cls-4" points="44.92 65.11 53.88 65.11 49.4 63.96 44.92 65.11"/><polygon class="cls-4" points="61.71 62.83 68.11 62.83 64.91 61.34 61.71 62.83"/><polygon class="cls-5" points="47.17 53.63 51.31 53.63 49.24 52.31 47.17 53.63"/><polygon class="cls-5" points="75.05 47.58 81.65 47.58 78.35 45.49 75.05 47.58"/><polygon class="cls-5" points="61.51 44.6 68.11 44.6 64.81 42.5 61.51 44.6"/><polygon class="cls-9" points="41.29 49.11 48.55 41.34 50.31 33.75 60.07 33.75 59.02 41.43 53.32 49.11 41.29 49.11"/><rect class="cls-10" x="43.3" y="45.63" width="1.8" height="3.3" rx="0.45" ry="0.45"/><rect class="cls-10" x="51.79" y="45.63" width="1.8" height="3.3" rx="0.45" ry="0.45"/><rect class="cls-10" x="57.51" y="38.91" width="1.8" height="3.3" rx="0.45" ry="0.45"/><polygon class="cls-11" points="41.92 46.29 49.19 38.51 50.94 30.92 60.71 30.92 59.65 38.6 53.96 46.29 41.92 46.29"/><rect class="cls-10" x="51.38" y="32.24" width="7.73" height="1.12" rx="0.28" ry="0.28"/><rect class="cls-10" x="51.03" y="34.49" width="7.73" height="1.12" rx="0.28" ry="0.28"/><rect class="cls-10" x="50.68" y="36.74" width="7.73" height="1.12" rx="0.28" ry="0.28"/></svg>