<svg id="Layer_1" data-name="Layer 1" xmlns="http://www.w3.org/2000/svg" viewBox="0 0 100 100"><defs><style>.cls-1{fill:#ffc640;}</style></defs><title>sun</title><circle class="cls-1" cx="50" cy="50.58" r="28.75"/><path class="cls-1" d="M42.34,16.67A17.38,17.38,0,0,1,50,15.07a23.91,23.91,0,0,1,7.66,1.6L50,0Z"/><path class="cls-1" d="M57.66,83.33A17.38,17.38,0,0,1,50,84.93a23.91,23.91,0,0,1-7.66-1.6L50,100Z"/><path class="cls-1" d="M83.33,42.34A17.38,17.38,0,0,1,84.93,50a23.91,23.91,0,0,1-1.6,7.66L100,50Z"/><path class="cls-1" d="M16.67,57.66A17.38,17.38,0,0,1,15.07,50a23.91,23.91,0,0,1,1.6-7.66L0,50Z"/><path class="cls-1" d="M68.15,21A17.19,17.19,0,0,1,74.7,25.3,23.78,23.78,0,0,1,79,31.85l6.38-17.21Z"/><path class="cls-1" d="M31.85,79A17.19,17.19,0,0,1,25.3,74.7,23.78,23.78,0,0,1,21,68.15L14.64,85.36Z"/><path class="cls-1" d="M79,68.15A17.19,17.19,0,0,1,74.7,74.7,23.78,23.78,0,0,1,68.15,79l17.21,6.38Z"/><path class="cls-1" d="M21,31.85A17.19,17.19,0,0,1,25.3,25.3,23.78,23.78,0,0,1,31.85,21L14.64,14.64Z"/></svg>