<svg id="Layer_1" data-name="Layer 1" xmlns="http://www.w3.org/2000/svg" viewBox="0 0 100 100"><defs><style>.cls-1{fill:#895e59;}.cls-2{fill:#00a69c;}</style></defs><title>palm</title><path class="cls-1" d="M44,23l13.79,5.6a3.77,3.77,0,0,1-.05,7l-9.54,3.7a3.76,3.76,0,0,1-4.78-2L39.18,28A3.76,3.76,0,0,1,44,23Z"/><path class="cls-1" d="M40.22,35.84l14.72,2.25a3.76,3.76,0,0,1,1.57,6.82L48.1,50.72A3.77,3.77,0,0,1,43,49.94l-6.3-8.06A3.77,3.77,0,0,1,40.22,35.84Z"/><path class="cls-1" d="M39.09,49.69,54,49.78a3.77,3.77,0,0,1,2.55,6.52l-7.49,7a3.76,3.76,0,0,1-5.16,0l-7.4-7.06A3.76,3.76,0,0,1,39.09,49.69Z"/><path class="cls-1" d="M38.5,61.94l14.84-1.16a3.76,3.76,0,0,1,3.08,6.28l-6.87,7.57A3.76,3.76,0,0,1,44.4,75l-8-6.42A3.76,3.76,0,0,1,38.5,61.94Z"/><path class="cls-1" d="M39,74.9l14.49-3.41a3.76,3.76,0,0,1,4,5.73l-5.63,8.54a3.77,3.77,0,0,1-5,1.18L38,81.82A3.76,3.76,0,0,1,39,74.9Z"/><path class="cls-1" d="M41.73,87.45,56.22,84a3.76,3.76,0,0,1,4,5.73l-5.64,8.54a3.77,3.77,0,0,1-5,1.18l-8.85-5.12A3.76,3.76,0,0,1,41.73,87.45Z"/><path class="cls-1" d="M50.28,9.88l12.78,8.58a3.9,3.9,0,0,1-1.53,7.08L51.09,27.27a3.89,3.89,0,0,1-4.43-3L44.31,14A3.9,3.9,0,0,1,50.28,9.88Z"/><path class="cls-2" d="M27,.67c-11.12,2-20.31,8-25.8,15.79L56.62,6.68C48.77,1.19,38.08-1.3,27,.67Z"/><path class="cls-2" d="M31.5,12c-9.75,6.29-15,17.3-15.37,29.54L64.75,10.16C53.44,5.47,41.25,5.7,31.5,12Z"/><path class="cls-2" d="M77.05,26.41A26,26,0,0,0,59.17,14.59l21,33A26,26,0,0,0,77.05,26.41Z"/><path class="cls-2" d="M81.4,13.76a32.08,32.08,0,0,0-27.16.06l44.6,20.75A32,32,0,0,0,81.4,13.76Z"/><path class="cls-2" d="M47.66,5.68a9.61,9.61,0,0,1,16.56,9.77"/></svg>