<svg id="Layer_1" data-name="Layer 1" xmlns="http://www.w3.org/2000/svg" viewBox="0 0 100 100"><defs><style>.cls-1{fill:#ffc640;}</style></defs><title>energy</title><polyline class="cls-1" points="33.81 52.69 44.77 52.69 29.99 79.74 72.48 43.42 55.2 43.42 68.9 25.64 50.78 25.64"/><path class="cls-1" d="M51.23,99.08a48.82,48.82,0,0,1-15-2.36,5.06,5.06,0,1,1,3.11-9.62,39,39,0,0,0,23.88,0,5.05,5.05,0,0,1,3.13,9.61A49.13,49.13,0,0,1,51.23,99.08Zm-35.32-18A5,5,0,0,1,11.82,79,48.43,48.43,0,0,1,2.46,50.41a5.07,5.07,0,0,1,5.05-5.07h0a5.06,5.06,0,0,1,5.05,5A38.42,38.42,0,0,0,20,73.08a5,5,0,0,1-1.1,7.06A5,5,0,0,1,15.91,81.11ZM86.61,81a5,5,0,0,1-4.08-8,38.36,38.36,0,0,0,7.36-22.71A5.13,5.13,0,0,1,95,45.17a5,5,0,0,1,5,5v.18A48.43,48.43,0,0,1,90.7,79,5,5,0,0,1,86.61,81ZM15.8,29.75a5.05,5.05,0,0,1-4.09-8A49.16,49.16,0,0,1,36,4a5.05,5.05,0,1,1,3.15,9.6,39.1,39.1,0,0,0-19.29,14.1A5,5,0,0,1,15.8,29.75Zm70.71-.21a5.06,5.06,0,0,1-4.08-2.07,39,39,0,0,0-19.36-14,5.05,5.05,0,1,1,3.08-9.62A49.07,49.07,0,0,1,90.58,21.5a5.06,5.06,0,0,1-4.07,8Z"/><path class="cls-1" d="M37.51,3.64v9.62a2.7,2.7,0,0,0,4.24,2.23l7-4.81a2.7,2.7,0,0,0,0-4.46l-7-4.82A2.71,2.71,0,0,0,37.51,3.64Z"/><path class="cls-1" d="M90.87,22l-7.78,5.68a2.71,2.71,0,0,0,.71,4.74l8,2.82a2.71,2.71,0,0,0,3.6-2.64l-.25-8.5A2.71,2.71,0,0,0,90.87,22Z"/><path class="cls-1" d="M89.24,81.22l-5.69-7.77a2.71,2.71,0,0,0-4.74.7l-2.81,8a2.71,2.71,0,0,0,2.63,3.6l8.5-.25A2.72,2.72,0,0,0,89.24,81.22Z"/><path class="cls-1" d="M34.41,95.88l4-8.76a2.71,2.71,0,0,0-2.93-3.79l-8.37,1.49a2.71,2.71,0,0,0-1.85,4.06l4.39,7.28A2.7,2.7,0,0,0,34.41,95.88Z"/><path class="cls-1" d="M2.56,49.57l9.61.54A2.71,2.71,0,0,0,14.64,46l-4.42-7.27a2.7,2.7,0,0,0-4.45-.24L.57,45.22A2.7,2.7,0,0,0,2.56,49.57Z"/></svg>