<svg id="Layer_1" data-name="Layer 1" xmlns="http://www.w3.org/2000/svg" viewBox="0 0 100 100"><defs><style>.cls-1{fill:#6ab8d9;}.cls-2{fill:#09a582;}.cls-3{fill:#ffc640;}.cls-4{fill:#f37d3b;}.cls-5{fill:#f05c38;}</style></defs><title>rainbow</title><path class="cls-1" d="M63.74,75c0-18.33-27.48-18.33-27.48,0H28c0-29.46,44-29.46,44,0Z"/><path class="cls-2" d="M71,75c0-28-42-28-42,0H20.75c0-40,58.5-39.87,58.5,0Z"/><path class="cls-3" d="M78.25,75c0-37.66-56.5-37.66-56.5,0H13.5c0-50,73-49.58,73,0Z"/><path class="cls-4" d="M85.5,75c0-47.33-71-47.33-71,0H6.25c0-60.25,87.5-59.42,87.5,0Z"/><path class="cls-5" d="M92.75,75c0-57-85.5-57-85.5,0H0C0,8.33,100,8.33,100,75Z"/></svg>