<svg id="Layer_1" data-name="Layer 1" xmlns="http://www.w3.org/2000/svg" viewBox="0 0 100 100"><defs><style>.cls-1{fill:#bf9b77;}.cls-2{fill:#553734;}.cls-3{fill:#5f3f3b;}.cls-4{fill:#6d4945;}.cls-5{fill:#fcca98;}.cls-6{fill:#e2b68a;}.cls-7{fill:#b2906e;}</style></defs><title>sailboat</title><path class="cls-1" d="M21.59,14.78a4.16,4.16,0,0,0-2.05,2.3c-.42,1.53,9.78,0,9.78,0"/><rect class="cls-2" x="16.47" y="16.64" width="66.59" height="3.76" rx="0.94" ry="0.94"/><path class="cls-3" d="M81.23,67.25C74.64,66.76,67,66.34,59.47,66c-2.73-.11-5.45-.22-8.1-.31-7.32-.24-14.1-.38-19.16-.38l-3.23,0c-4.06,0-7.75.19-11,.41A75.09,75.09,0,0,0,4.39,67.64c-2.7.74-4.16,1.6-4.16,2.53,0,2.61-4.77,21.26,29,22.3,1,0,2,0,3,0,4.37,0,8.43-.09,12.26-.26s7.36-.43,10.68-.75a131.93,131.93,0,0,0,19-3.06c2.2-.54,4.21-1.12,6.06-1.73a43.64,43.64,0,0,0,13.65-6.86c5.54-4.42,6.17-8.56,6.17-9.69S92,68.07,81.23,67.25Z"/><path class="cls-2" d="M.23,70.17c0,2.61-4.77,21.26,29,22.3L4.39,67.64C1.69,68.38.23,69.24.23,70.17Z"/><path class="cls-2" d="M18,65.75l26.5,26.51c3.82-.17,7.36-.43,10.68-.75L29,65.34C24.92,65.39,21.23,65.53,18,65.75Z"/><path class="cls-2" d="M51.37,65.7,74.12,88.45c2.2-.54,4.21-1.12,6.06-1.73L59.47,66C56.74,65.9,54,65.79,51.37,65.7Z"/><path class="cls-2" d="M100,70.17c0-1.09-8-2.1-18.77-2.92l12.6,12.61C99.37,75.44,100,71.3,100,70.17Z"/><path class="cls-4" d="M100,69.82c0,2.52-51.32,4.56-70.48,4.56S0,72.34,0,69.82s10.37-4.57,29.52-4.57S100,67.29,100,69.82Z"/><path class="cls-3" d="M93.84,69.82c0,1.71-44.88,3.1-61.63,3.1S6.4,71.53,6.4,69.82s9.06-3.11,25.81-3.11S93.84,68.1,93.84,69.82Z"/><path class="cls-4" d="M37.41,70.06H29.47A3.51,3.51,0,0,0,26,73.57a4.16,4.16,0,0,0,.09.79l3.47,0c3.07,0,7,0,11.33-.15a3.7,3.7,0,0,0,.07-.66A3.51,3.51,0,0,0,37.41,70.06Z"/><path class="cls-4" d="M68.34,70.06H60.4a3.51,3.51,0,0,0-3.51,3.51c0,.05,0,.11,0,.16,5-.19,10-.42,14.89-.68A3.52,3.52,0,0,0,68.34,70.06Z"/><circle class="cls-2" cx="14.57" cy="79.22" r="2.85"/><circle class="cls-2" cx="41.88" cy="79.53" r="4.42"/><circle class="cls-2" cx="61.62" cy="85.6" r="1.65"/><path class="cls-3" d="M37.93,79a10,10,0,0,1,2.46,4.5,9.16,9.16,0,0,1-7-7A10,10,0,0,1,37.93,79Z"/><path class="cls-3" d="M71.22,79a10,10,0,0,1,2.46,4.5,9.16,9.16,0,0,1-7-7A10,10,0,0,1,71.22,79Z"/><path class="cls-4" d="M27.86,85.18a54.39,54.39,0,0,1,5.2,6A52.76,52.76,0,0,1,21.83,80,54.39,54.39,0,0,1,27.86,85.18Z"/><path class="cls-4" d="M28.24,80.83a54.39,54.39,0,0,1,5.2,6A53.38,53.38,0,0,1,22.21,75.63,54.39,54.39,0,0,1,28.24,80.83Z"/><path class="cls-3" d="M11.52,81.3a9.56,9.56,0,0,1,2.4,5.56,9.56,9.56,0,0,1-5.56-2.4A9.57,9.57,0,0,1,6,78.91,9.55,9.55,0,0,1,11.52,81.3Z"/><path class="cls-3" d="M47.65,85.71a16.72,16.72,0,0,1,2.94,4,16.24,16.24,0,0,1-7-7A16.72,16.72,0,0,1,47.65,85.71Z"/><path class="cls-2" d="M46.29,7.48a2,2,0,0,0-2,2V72.78l4-.09V9.46A2,2,0,0,0,46.29,7.48Z"/><rect class="cls-4" x="42.21" y="13.39" width="8.16" height="1.39" rx="0.35" ry="0.35"/><rect class="cls-4" x="42.21" y="12.26" width="8.16" height="1.39" rx="0.35" ry="0.35"/><rect class="cls-4" x="42.21" y="11.13" width="8.16" height="1.39" rx="0.35" ry="0.35"/><path class="cls-5" d="M88.63,38.14c-.77-6.56-12-23.36-12-23.36h-55s10.61,15.79,12,22.75C50.5,45.4,72.11,45.38,88.63,38.14Z"/><path class="cls-6" d="M33.57,37.53a7.31,7.31,0,0,1,.15,1.3c0,6-12.13,24.06-12.13,24.06h55s12.12-18,12.12-24.06a6.2,6.2,0,0,0-.07-.69C72.11,45.38,50.5,45.4,33.57,37.53Z"/><path class="cls-6" d="M84.67,35.07a115.3,115.3,0,0,1-22.08,2.16A115.34,115.34,0,0,1,40.5,35.07a114,114,0,0,1,44.17,0Z"/><path class="cls-7" d="M75,58.49s-9.89,1.08-22.08,1.08-22.09-1.08-22.09-1.08,9.89-1.08,22.09-1.08S75,58.49,75,58.49Z"/></svg>