<svg id="Layer_1" data-name="Layer 1" xmlns="http://www.w3.org/2000/svg" viewBox="0 0 100 100"><defs><style>.cls-1{fill:#ccc;}.cls-2{fill:#9c9c9c;}.cls-3{fill:#e3e3e3;}.cls-4{fill:#fff;}.cls-5{fill:#a6a6a6;}.cls-6{fill:#ffc63f;}</style></defs><title>electricity</title><rect class="cls-1" x="45.76" y="84.7" width="8.77" height="15.3" rx="2.15" ry="2.15"/><rect class="cls-2" x="38.99" y="78.38" width="22.32" height="10.31" rx="2.52" ry="2.52"/><path class="cls-3" d="M58.36,83.74H41.64A19.64,19.64,0,0,1,22.06,64.16V39.77c0-10.77,8.82,2,19.58,2H58.36c10.76,0,19.58-12.82,19.58-2V64.16A19.64,19.64,0,0,1,58.36,83.74Z"/><path class="cls-4" d="M58.36,52.77H41.64c-10.76,0-19.58-6.15-19.58-13.66v.15c0-7.51,8.82-13.66,19.58-13.66H58.36c10.76,0,19.58,6.15,19.58,13.66v-.15C77.94,46.62,69.12,52.77,58.36,52.77Z"/><rect class="cls-2" x="32.36" y="11.56" width="6.63" height="28.1" rx="1.62" ry="1.62"/><rect class="cls-2" x="61.31" y="11.56" width="6.63" height="28.1" rx="1.62" ry="1.62"/><rect class="cls-3" x="46.93" y="25.6" width="5.78" height="27.16"/><rect class="cls-5" x="45.76" y="89.5" width="8.77" height="1.56"/><rect class="cls-5" x="45.76" y="91.86" width="8.77" height="1.56"/><rect class="cls-5" x="45.76" y="94.23" width="8.77" height="1.56"/><path class="cls-6" d="M34.37,10.49c.42-.92.86-1.82,1.33-2.7S36.63,6,37.17,5.22c.73-.61,1.36-1.33,2-2l2-2L42.44,0l1.21,1.21L51.4,9H49l7.51-7.51L57.7.24l1.21,1.21,1.93,1.94c.64.65,1.32,1.26,1.93,1.94.93,1.65,1.86,3.3,2.67,5.07C63.67,9.59,62,8.66,60.36,7.74c-.67-.62-1.28-1.3-1.94-1.93L56.49,3.87h2.42L51.4,11.38l-1.21,1.21L49,11.38,41.24,3.63h2.41l-2,2c-.66.68-1.38,1.31-2,2.05-.81.53-1.71,1-2.57,1.46S35.3,10.08,34.37,10.49Z"/></svg>