<svg id="Layer_1" data-name="Layer 1" xmlns="http://www.w3.org/2000/svg" viewBox="0 0 100 100"><defs><style>.cls-1{fill:#ffc640;}.cls-2{fill:#bcd2de;}.cls-3{fill:#dddfe0;}.cls-4{fill:#ffe5b1;}</style></defs><title>light bulb</title><ellipse class="cls-1" cx="50" cy="93.49" rx="10.83" ry="6.51"/><path class="cls-2" d="M82.83,32.83C82.83,51,68.13,75.19,50,75.19S17.17,51,17.17,32.83a32.83,32.83,0,0,1,65.66,0Z"/><ellipse class="cls-3" cx="32.69" cy="17.34" rx="10.12" ry="5.21" transform="translate(0.25 35.14) rotate(-56.7)"/><ellipse class="cls-3" cx="43.55" cy="25.55" rx="5.67" ry="4.63" transform="translate(-1.72 47.93) rotate(-56.7)"/><path class="cls-1" d="M66.79,76.73V72.51a1.67,1.67,0,0,0-1.67-1.66H34.36a1.67,1.67,0,0,0-1.67,1.66v4.22a1.67,1.67,0,0,0,1.67,1.66,1.67,1.67,0,0,0-1.67,1.67v4.22a1.67,1.67,0,0,0,1.67,1.66,1.67,1.67,0,0,0-1.67,1.67v4.21a1.67,1.67,0,0,0,1.67,1.67H65.12a1.67,1.67,0,0,0,1.67-1.67V87.61a1.67,1.67,0,0,0-1.67-1.67,1.67,1.67,0,0,0,1.67-1.66V80.06a1.67,1.67,0,0,0-1.67-1.67A1.67,1.67,0,0,0,66.79,76.73Z"/><path class="cls-4" d="M60.83,45.42C60.83,55,56,68.53,50,68.53S39.17,55,39.17,45.42,44,34,50,34,60.83,35.81,60.83,45.42Z"/></svg>