<svg id="Layer_1" data-name="Layer 1" xmlns="http://www.w3.org/2000/svg" viewBox="0 0 100 100"><defs><style>.cls-1{fill:#895e59;}.cls-2{fill:#00a69c;}.cls-3{fill:#00968d;}.cls-4{fill:#ffc640;}.cls-5{fill:#f37d3b;}.cls-6{fill:#fff;}</style></defs><title>christmas tree</title><rect class="cls-1" x="43.52" y="86.63" width="9.31" height="13.37" rx="2.29" ry="2.29"/><path class="cls-2" d="M73,71.44c-14.68,6.06-32.49,5.6-47.79.89C21.11,80.21,18.33,87,18.33,88c0,2.62,13.9,4.75,31,4.75s31-2.13,31-4.75C80.41,86.92,77.41,79.7,73,71.44Z"/><path class="cls-2" d="M73,71.44c-6.55-12.32-16.2-27-23.65-27-7.67,0-17.6,15.36-24.14,27.85C40.53,77,58.34,77.5,73,71.44Z"/><path class="cls-3" d="M68,48.35c-5.61-9.8-12.89-19.76-18.67-19.76S36.21,38.65,30.59,48.5C43.5,52.73,56.32,53,68,48.35Z"/><path class="cls-2" d="M76.85,67.1c0-1.1-3.72-9.86-8.81-18.75C56.32,53,43.5,52.73,30.59,48.5c-5,8.83-8.7,17.5-8.7,18.6,0,2.32,12.3,4.21,27.48,4.21S76.85,69.42,76.85,67.1Z"/><path class="cls-2" d="M72.81,44.55c0,2-10.49,3.59-23.44,3.59s-23.44-1.61-23.44-3.59,14-32.84,23.44-32.84S72.81,42.57,72.81,44.55Z"/><polygon class="cls-4" points="48.17 2.06 50.43 6.63 55.48 7.36 51.83 10.92 52.69 15.94 48.17 13.57 43.66 15.94 44.53 10.92 40.88 7.36 45.92 6.63 48.17 2.06"/><path class="cls-4" d="M52.69,18a2,2,0,0,1-1-.24l-3.55-1.87-3.56,1.87a2,2,0,0,1-3-2.17l.68-3.95L39.44,8.83a2.06,2.06,0,0,1,1.14-3.51l4-.57,1.78-3.6a2.06,2.06,0,0,1,3.69,0l1.78,3.6,4,.57a2.06,2.06,0,0,1,1.14,3.51L54,11.64l.67,3.95a2,2,0,0,1-.81,2A2.08,2.08,0,0,1,52.69,18Zm-4.51-6.49a2,2,0,0,1,1,.24l.82.43-.15-.91a2,2,0,0,1,.59-1.83l.66-.64-.91-.13a2,2,0,0,1-1.55-1.13l-.41-.83-.42.83a2,2,0,0,1-1.54,1.13l-.92.13.66.64a2,2,0,0,1,.59,1.83l-.15.91.82-.43A2,2,0,0,1,48.18,11.51Z"/><path class="cls-5" d="M39.33,60.43c-3.61,0-8.11-1.22-14-4.18l1.83-3.62c15,7.58,18.43,2.52,24.14-5.87,3.51-5.16,7.88-11.59,16-15.87l1.89,3.59C62,38.29,58.12,44,54.7,49,50.64,55,47,60.43,39.33,60.43Z"/><path class="cls-5" d="M35.36,86.55c-4.62,0-9.84-1.28-16-4.38l1.83-3.62C38.54,87.31,47,80,57.71,70.66c4.87-4.22,9.9-8.59,16.28-12l1.89,3.59c-6,3.15-10.81,7.37-15.51,11.44C52.84,80.26,45.6,86.55,35.36,86.55Z"/><path class="cls-5" d="M42.62,32.61a27.78,27.78,0,0,1-11.16-2.67l1.62-3.72c7.14,3.11,14.59,5,27.1-6.31l2.72,3C55,30,48.61,32.61,42.62,32.61Z"/><rect class="cls-6" x="26.6" y="34.18" width="2.79" height="7.7" rx="0.69" ry="0.69"/><path class="cls-4" d="M29.71,32.46a1.71,1.71,0,1,1-3.42,0c0-.94,1.71-3.87,1.71-3.87S29.71,31.52,29.71,32.46Z"/><rect class="cls-6" x="22.21" y="58.16" width="2.79" height="7.7" rx="0.69" ry="0.69"/><path class="cls-4" d="M25.32,56.45a1.72,1.72,0,0,1-3.43,0c0-1,1.71-3.88,1.71-3.88S25.32,55.5,25.32,56.45Z"/><rect class="cls-6" x="69.37" y="34.18" width="2.79" height="7.7" rx="0.69" ry="0.69"/><path class="cls-4" d="M72.48,32.46a1.72,1.72,0,1,1-3.43,0c0-.94,1.71-3.87,1.71-3.87S72.48,31.52,72.48,32.46Z"/><rect class="cls-6" x="46.78" y="66.52" width="2.79" height="7.7" rx="0.69" ry="0.69"/><path class="cls-4" d="M49.89,64.8a1.72,1.72,0,1,1-3.43,0c0-.94,1.72-3.87,1.72-3.87S49.89,63.86,49.89,64.8Z"/><rect class="cls-6" x="46.78" y="83.46" width="2.79" height="7.7" rx="0.69" ry="0.69"/><path class="cls-4" d="M49.89,81.75a1.72,1.72,0,0,1-3.43,0c0-1,1.72-3.87,1.72-3.87S49.89,80.8,49.89,81.75Z"/><rect class="cls-6" x="18.91" y="79.61" width="2.79" height="7.7" rx="0.69" ry="0.69"/><path class="cls-4" d="M22,77.9a1.72,1.72,0,0,1-3.43,0c0-1,1.72-3.87,1.72-3.87S22,77,22,77.9Z"/><rect class="cls-6" x="46.78" y="40.82" width="2.79" height="7.7" rx="0.69" ry="0.69"/><path class="cls-4" d="M49.89,39.1a1.72,1.72,0,1,1-3.43,0c0-.94,1.72-3.87,1.72-3.87S49.89,38.16,49.89,39.1Z"/><rect class="cls-6" x="73.54" y="59.44" width="2.79" height="7.7" rx="0.69" ry="0.69"/><path class="cls-4" d="M76.65,57.73a1.72,1.72,0,0,1-3.43,0c0-.95,1.71-3.87,1.71-3.87S76.65,56.78,76.65,57.73Z"/><rect class="cls-6" x="78.56" y="78.41" width="2.79" height="7.7" rx="0.69" ry="0.69"/><path class="cls-4" d="M81.67,76.7a1.72,1.72,0,0,1-3.43,0c0-1,1.71-3.87,1.71-3.87S81.67,75.75,81.67,76.7Z"/></svg>