<svg id="Layer_1" data-name="Layer 1" xmlns="http://www.w3.org/2000/svg" viewBox="0 0 100 100"><defs><style>.cls-1{fill:#714c48;}.cls-2{fill:#5c3d39;}.cls-3{fill:#fcca98;}.cls-4{fill:#fff;}.cls-5{fill:#895e59;}.cls-6{fill:#3e3e3f;}</style></defs><title>clock</title><path class="cls-1" d="M88.57,87.68l-36-15.62a6.42,6.42,0,0,0-5.12,0l-36,15.62A6.42,6.42,0,0,0,14,100H86a6.42,6.42,0,0,0,2.56-12.32Z"/><path class="cls-2" d="M33.61,96.36h32.8a25.7,25.7,0,0,0,20-9.62L52.56,72.06a6.42,6.42,0,0,0-5.12,0L13.61,86.73A25.67,25.67,0,0,0,33.61,96.36Z"/><rect class="cls-1" x="7.91" y="12.44" width="84.21" height="81.13" rx="12" ry="12"/><path class="cls-2" d="M66.41,12.44H33.61A25.78,25.78,0,0,0,9.43,29.54,6.4,6.4,0,0,0,14,31.46H86a6.44,6.44,0,0,0,4.58-1.93A25.79,25.79,0,0,0,66.41,12.44ZM45,18.61l5-2.19,5,2.19Z"/><polygon class="cls-1" points="13.99 22.05 86.01 22.05 50 6.43 13.99 22.05"/><path class="cls-1" d="M86,28.47H14a6.42,6.42,0,0,1-2.56-12.32L47.44.53a6.42,6.42,0,0,1,5.12,0l36,15.62A6.42,6.42,0,0,1,86,28.47ZM45,15.62h10.1l-5-2.19Z"/><circle class="cls-2" cx="50.01" cy="55.8" r="26.69"/><circle class="cls-3" cx="50.01" cy="55.8" r="22.03"/><rect class="cls-2" x="20.36" y="51.63" width="2.97" height="10.71" rx="0.69" ry="0.69"/><path class="cls-4" d="M40.27,47.83a10.69,10.69,0,0,1,2.64,6.49,10.69,10.69,0,0,1-6.49-2.64,10.66,10.66,0,0,1-2.65-6.49A10.73,10.73,0,0,1,40.27,47.83Z"/><path class="cls-4" d="M45.62,42.47A10.71,10.71,0,0,1,48.26,49a10.62,10.62,0,0,1-6.49-2.64,10.69,10.69,0,0,1-2.64-6.49A10.69,10.69,0,0,1,45.62,42.47Z"/><polygon class="cls-5" points="25 22.44 74.44 22.44 49.87 8.23 25 22.44"/><rect class="cls-6" x="66.08" y="54.72" width="5.49" height="3.41" rx="0.8" ry="0.8"/><rect class="cls-6" x="29.06" y="54.72" width="5.49" height="3.41" rx="0.8" ry="0.8"/><rect class="cls-6" x="47.57" y="73.22" width="5.49" height="3.41" rx="0.8" ry="0.8" transform="translate(125.24 24.62) rotate(90)"/><rect class="cls-6" x="47.57" y="36.21" width="5.49" height="3.41" rx="0.8" ry="0.8" transform="translate(88.23 -12.4) rotate(90)"/><path class="cls-6" d="M48.34,57.45,50.18,39.6,52,57.45a1.84,1.84,0,0,1-3.67.38A2.41,2.41,0,0,1,48.34,57.45Z"/><path class="cls-6" d="M51.61,58.75,37.69,70.08,49,56.16a1.84,1.84,0,1,1,2.85,2.32A2.23,2.23,0,0,1,51.61,58.75Z"/><rect class="cls-5" x="74.44" y="37.17" width="11.57" height="3.49" rx="0.82" ry="0.82"/><rect class="cls-5" x="57.22" y="83.94" width="11.6" height="3.56" rx="0.83" ry="0.83"/><rect class="cls-5" x="19.37" y="37.91" width="7.32" height="1.69" rx="0.39" ry="0.39"/><rect class="cls-5" x="19.37" y="12.71" width="10.08" height="2.63" rx="0.61" ry="0.61"/><rect class="cls-5" x="12.77" y="95.36" width="5.89" height="1" rx="0.23" ry="0.23"/></svg>