<svg id="Layer_1" data-name="Layer 1" xmlns="http://www.w3.org/2000/svg" viewBox="0 0 100 100"><defs><style>.cls-1{fill:#a09e46;}.cls-2{fill:#bd9975;}.cls-3{fill:#b2ae4f;}.cls-4{fill:#171717;}.cls-5{fill:#ffc640;}.cls-6{fill:#8a893c;}</style></defs><title>frankenstein&amp;apos;s monster</title><circle class="cls-1" cx="20.31" cy="42.88" r="10.64"/><circle class="cls-1" cx="79.08" cy="42.88" r="10.64"/><rect class="cls-2" x="20.92" y="87.67" width="14.82" height="9.22" rx="2.12" ry="2.12"/><rect class="cls-2" x="64.26" y="87.67" width="14.82" height="9.22" rx="2.12" ry="2.12"/><rect class="cls-1" x="28.14" y="63.78" width="43.73" height="36.22"/><rect class="cls-3" x="8.17" y="55.27" width="83.65" height="29.32" rx="6.76" ry="6.76"/><rect class="cls-3" x="15.57" y="0.43" width="68.87" height="77.83" rx="8.44" ry="8.44"/><rect class="cls-4" x="15.57" y="9.22" width="5.52" height="36.31"/><rect class="cls-4" x="78.91" y="9.22" width="5.52" height="36.31"/><circle class="cls-4" cx="26.83" cy="50.22" r="1.85"/><circle class="cls-4" cx="73.72" cy="50.22" r="1.85"/><polygon class="cls-1" points="43.45 53.52 60.26 53.52 51.85 27.91 43.45 53.52"/><path class="cls-5" d="M40.88,50.63a3.89,3.89,0,1,0-7.77,0v6.59h7.77Z"/><rect class="cls-1" x="13.68" y="55.69" width="73.81" height="3.25" rx="0.75" ry="0.75"/><rect class="cls-6" x="26.91" y="62.04" width="2.82" height="18.52" rx="0.65" ry="0.65" transform="translate(58.71 0.86) rotate(45)"/><rect class="cls-6" x="27.04" y="66.93" width="9.35" height="1.94" rx="0.45" ry="0.45" transform="translate(57.3 -2.54) rotate(45)"/><rect class="cls-6" x="23.96" y="70.02" width="9.35" height="1.94" rx="0.45" ry="0.45" transform="translate(58.58 0.55) rotate(45)"/><rect class="cls-6" x="20.87" y="73.11" width="9.35" height="1.94" rx="0.45" ry="0.45" transform="translate(59.86 3.63) rotate(45)"/><rect class="cls-6" x="59.97" y="83.03" width="2.82" height="18.52" rx="0.65" ry="0.65" transform="translate(153.68 30.9) rotate(90)"/><rect class="cls-6" x="61.52" y="91.32" width="9.35" height="1.94" rx="0.45" ry="0.45" transform="translate(158.48 26.1) rotate(90)"/><rect class="cls-6" x="57.15" y="91.32" width="9.35" height="1.94" rx="0.45" ry="0.45" transform="translate(154.12 30.46) rotate(90)"/><rect class="cls-6" x="52.79" y="91.32" width="9.35" height="1.94" rx="0.45" ry="0.45" transform="translate(149.75 34.83) rotate(90)"/><rect class="cls-6" x="64.78" y="25.83" width="2.82" height="18.52" rx="0.65" ry="0.65" transform="matrix(0, 1, -1, 0, 101.28, -31.11)"/><rect class="cls-6" x="66.33" y="34.12" width="9.35" height="1.94" rx="0.45" ry="0.45" transform="translate(106.09 -35.91) rotate(90)"/><rect class="cls-6" x="61.96" y="34.12" width="9.35" height="1.94" rx="0.45" ry="0.45" transform="translate(101.72 -31.55) rotate(90)"/><rect class="cls-6" x="57.59" y="34.12" width="9.35" height="1.94" rx="0.45" ry="0.45" transform="translate(97.36 -27.18) rotate(90)"/><polygon class="cls-4" points="15.57 0 15.57 9.21 21.09 9.21 24.3 12.11 27.52 9.21 30.73 12.11 33.94 9.21 37.15 12.11 40.36 9.21 43.58 12.11 46.79 9.21 50 12.11 53.21 9.21 56.42 12.11 59.64 9.21 62.85 12.11 66.06 9.21 69.27 12.11 72.48 9.21 75.7 12.11 78.91 9.21 84.43 9.21 84.43 0 15.57 0"/></svg>