<svg id="Layer_1" data-name="Layer 1" xmlns="http://www.w3.org/2000/svg" viewBox="0 0 100 100"><defs><style>.cls-1{fill:#f37d3b;}.cls-2{fill:#d97035;}.cls-3{fill:#b25c26;}.cls-4{fill:#6ab8d9;}.cls-5{fill:#ffc63f;}.cls-6{fill:#09a582;}</style></defs><title>wire</title><path class="cls-1" d="M45.13,82.91c-25.6,0-26.15-3.76-26.54-6.34a5.8,5.8,0,0,1-.05-.92c-1.37.71-2.82,1.42-4.4,2.11a3.66,3.66,0,1,1-2.94-6.7A91.18,91.18,0,0,0,20.84,66l1.5-.87a6.58,6.58,0,0,1-1.77-5.57c1-5,6.87-5.35,15-5.82,9.39-.54,22.25-1.28,28-9.11,2.49-3.39,3.56-8,3.19-13.61A3.66,3.66,0,0,1,74,30.5c.49,7.4-1,13.6-4.59,18.42a25.86,25.86,0,0,1-12.9,9C75.94,59,94.65,64.5,98.64,69A4.83,4.83,0,0,1,100,72.71c-.22,2.41-.81,8.81-45.62,10.06C51,82.87,47.9,82.91,45.13,82.91Zm-14.4-7.85c3,.31,6.78.48,11,.53-1.45-.47-3.67-1.23-6.13-2.24C34.29,73.8,32.48,74.42,30.73,75.06Zm57.91-3.52a5.58,5.58,0,0,1-.57.79c.58-.12,1.13-.24,1.63-.37ZM49.17,70a65.89,65.89,0,0,0,27.28-.32A89,89,0,0,0,49.17,70Z"/><path class="cls-2" d="M14.13,77.76,11.2,71.05c1.1-.48,2.15-1,3.14-1.47l3.3,6.53C16.53,76.67,15.37,77.22,14.13,77.76Z"/><path class="cls-2" d="M45.35,82.89c-2.57,0-5.05-.06-7.36-.14l.28-7.32c1,0,2.12.07,3.23.09-.77-.24-1.55-.5-2.32-.78l1.29-3.62-1.41-5.19c-.92.2-1.81.43-2.7.69l-2.1-7a42.08,42.08,0,0,1,4.81-1.13l-.33-5c2.79-.19,4.94-.39,6.95-.67l1,7.26c-1.53.21-3,.36-4.42.48l.36,3.22c1.15-.26,2.31-.49,3.47-.71l1.19,6.45.87.21-1.61,7.14-1.17-.28Zm7.33-.08-.17-7.31,1.86,0,.5-4.59a64.12,64.12,0,0,0,6.84.39l0,7.32q-.93,0-1.86,0l.19,4C57.55,82.68,55.1,82.76,52.68,82.81Zm-22.13-.54a32.58,32.58,0,0,1-8-1.54l2.6-6.84a10.71,10.71,0,0,0,1.5.42l-1.17-2.57-.9.53-.39.23-3.7-6.32.39-.23c2.06-1.2,4-2.34,6.12-3.4l.91,1.79,1.77-2.4a37,37,0,0,0,5.66,3.29l-2.52,5.22L34,73.91c-.86.29-1.9.65-3,1l.28,0Zm36.75-.12-.49-7.3,2.11-.16L68.56,71a63.66,63.66,0,0,0,6.74-1l1.51,7.16c-.84.18-1.7.34-2.57.49l.38,4C72.26,81.78,69.81,82,67.3,82.15ZM82,80.71l-1-7.26c1-.13,1.87-.26,2.73-.4l-1.63-3.62-.14,0a2.68,2.68,0,0,0,.86,2,6.36,6.36,0,0,0-1.35-.57l.47-1.4c-1.42-.4-2.91-.77-4.45-1.13l1.65-7.13c2.56.59,5,1.24,7.24,1.92l-.5,1.63c1.58.79,3.31,2.15,3.39,4.47a4.83,4.83,0,0,1-1.36,3.34l1.48,7C87.26,79.91,84.77,80.33,82,80.71Zm0-11.59s0,.11,0,.17,0,0,0,.06l0-.14ZM97.5,76.6l-2.91-4.22H92.68a2.31,2.31,0,0,0,.5,1.48,10.1,10.1,0,0,0-2.62-1.49l3-6.67c3.17,1.44,6.41,3.35,6.41,6.61l0,.39A5.23,5.23,0,0,1,97.5,76.6Zm-4.16-6a2.35,2.35,0,0,0-.65,1.48l1.78.16ZM75.06,69.43c-2.14-.29-4.45-.49-6.87-.59l.1-2.33c-1.56-.24-3.13-.46-4.68-.64l.85-7.27c2.45.29,4.92.65,7.36,1.07l-.35,2c1.58.12,3.11.28,4.57.48ZM54.29,69.3l-.44-4.2-1.53,0-2.6,0-.11-7.32h.11c.83,0,1.76,0,2.78,0l1.54,0-1.75-6.26a26.77,26.77,0,0,0,5.91-2.35l3.55,6.4a32.2,32.2,0,0,1-5.3,2.33l.61,0-.24,3.79c1.39-.1,2.79-.18,4.18-.23l.24,7.32C58.93,68.89,56.59,69.05,54.29,69.3ZM27.08,62.08l-4.65-5.65c1.91-1.62,4.88-2.14,9-2.47l.57,7.3C28.32,61.55,27.33,61.93,27.08,62.08ZM68.36,50.27l-5.55-4.78q.38-.43.72-.9a15.38,15.38,0,0,0,2.14-4.15l6.92,2.39a22.58,22.58,0,0,1-3.16,6.09C69.09,49.39,68.73,49.84,68.36,50.27Z"/><path class="cls-2" d="M74.08,34.53l-7.31-.28c0-1,0-2.14,0-3.27L74,30.5A39.11,39.11,0,0,1,74.08,34.53Z"/><path class="cls-3" d="M70.63,26.85c0,1.6.13,3.18.26,4.53l.34-.1a13.7,13.7,0,0,1,.82-4.2A4.5,4.5,0,0,0,70.63,26.85Z"/><path class="cls-3" d="M69.11,27l-.53.17a22.47,22.47,0,0,1,.66,2.63C69.18,29,69.13,28.08,69.11,27Z"/><path class="cls-3" d="M66.36,29.88a2.12,2.12,0,0,0,1.58,1.49A24.19,24.19,0,0,0,67.21,28,2.07,2.07,0,0,0,66.36,29.88Z"/><path class="cls-3" d="M73.34,28a12.54,12.54,0,0,0-.52,2.39,2,2,0,0,0,.77-1.81A1.57,1.57,0,0,0,73.34,28Z"/><path class="cls-4" d="M69.24,29.84a22.47,22.47,0,0,0-.66-2.63c-.68-2.11-1.79-4.16-3.57-4.39l-.2,1.51c1,.12,1.82,1.74,2.4,3.67a24.19,24.19,0,0,1,.73,3.37,4.64,4.64,0,0,0,1.44.21C69.34,31.18,69.29,30.58,69.24,29.84Z"/><path class="cls-5" d="M72,18.15,71,17.05c-1.7,1.61-2,6.27-1.88,10,0,1,.07,2,.13,2.8s.22,1.33.27,1.75a5.36,5.36,0,0,0,.88-.09c.17,0,.34-.08.5-.12-.13-1.35-.23-2.93-.26-4.53C70.57,23.1,70.88,19.25,72,18.15Z"/><path class="cls-5" d="M69.51,31.59c-.05-.42-.14-1-.27-1.75.05.74.1,1.34.14,1.74Z"/><path class="cls-6" d="M74.38,23.19a11.25,11.25,0,0,0-2.33,3.89,13.7,13.7,0,0,0-.82,4.2,4.71,4.71,0,0,0,1.59-.91A12.54,12.54,0,0,1,73.34,28a9.94,9.94,0,0,1,2.15-3.75Z"/><path class="cls-3" d="M8.58,76.06c1.36-.85,2.66-1.75,3.74-2.56l-.26-.24a13.46,13.46,0,0,1-4,1.46A4.54,4.54,0,0,0,8.58,76.06Z"/><path class="cls-3" d="M9.53,77.26l.42.37a23.12,23.12,0,0,1,1.91-1.92C11.2,76.17,10.41,76.71,9.53,77.26Z"/><path class="cls-3" d="M13.38,78.15A2.14,2.14,0,0,0,13.84,76a24.21,24.21,0,0,0-2.51,2.36A2.08,2.08,0,0,0,13.38,78.15Z"/><path class="cls-3" d="M8.15,73.15a12.12,12.12,0,0,0,2.31-.79,2,2,0,0,0-2,.28A1.53,1.53,0,0,0,8.15,73.15Z"/><path class="cls-4" d="M11.86,75.71A23.12,23.12,0,0,0,10,77.63C8.49,79.3,7.31,81.31,8,83l1.39-.61c-.4-.91.56-2.45,1.91-4A24.21,24.21,0,0,1,13.84,76a4.62,4.62,0,0,0-.56-1.34C13,74.93,12.46,75.29,11.86,75.71Z"/><path class="cls-5" d="M.4,79.35,0,80.81c2.26.62,6.38-1.55,9.53-3.55.88-.55,1.67-1.09,2.33-1.55s1-.88,1.35-1.14a4.85,4.85,0,0,0-.53-.71,4.08,4.08,0,0,0-.36-.36c-1.08.81-2.38,1.71-3.74,2.56C5.4,78.05,1.94,79.77.4,79.35Z"/><path class="cls-5" d="M13.21,74.57c-.33.26-.81.65-1.35,1.14.6-.42,1.09-.78,1.42-1A.75.75,0,0,0,13.21,74.57Z"/><path class="cls-6" d="M3.51,74.73a10.94,10.94,0,0,0,4.53,0,13.46,13.46,0,0,0,4-1.46,4.62,4.62,0,0,0-1.6-.9,12.12,12.12,0,0,1-2.31.79,9.87,9.87,0,0,1-4.32.1Z"/></svg>