<svg id="Layer_1" data-name="Layer 1" xmlns="http://www.w3.org/2000/svg" viewBox="0 0 100 100"><defs><style>.cls-1{fill:#9c9c9c;}.cls-2{fill:#737373;}.cls-3{fill:#3e3e3f;}.cls-4{fill:#666;}.cls-5{fill:#f37d3b;}.cls-6{fill:#be622d;}</style></defs><title>chainsaw</title><rect class="cls-1" x="28.47" y="21.92" width="75.75" height="26.84" rx="6.68" ry="6.68" transform="translate(-5.55 57.26) rotate(-45)"/><rect class="cls-1" x="28.47" y="21.92" width="75.75" height="26.84" rx="6.68" ry="6.68" transform="translate(-5.55 57.26) rotate(-45)"/><polygon class="cls-1" points="90.83 25.23 84.7 31.36 92.35 32.89 90.83 25.23"/><polygon class="cls-1" points="84.7 31.36 78.57 37.49 86.22 39.02 84.7 31.36"/><polygon class="cls-1" points="78.57 37.49 72.44 43.63 80.09 45.15 78.57 37.49"/><polygon class="cls-1" points="72.44 43.63 66.31 49.76 73.96 51.28 72.44 43.63"/><polygon class="cls-1" points="66.31 49.76 60.17 55.89 67.83 57.41 66.31 49.76"/><path class="cls-1" d="M60.18,55.89,57.11,59l-.77.77-.63.58a9.16,9.16,0,0,1-1.32,1,13.51,13.51,0,0,0,3.45,1.48c1.27.32,2.61.52,3.86.79Z"/><path class="cls-1" d="M54.39,61.27a10.31,10.31,0,0,1-6.29,1.47,14.61,14.61,0,0,0,4.74,6.09A14.1,14.1,0,0,0,54.39,61.27Z"/><path class="cls-1" d="M48.1,62.74a10.2,10.2,0,0,1-5.9-2.61,14.14,14.14,0,0,0,.12,7.73A14.52,14.52,0,0,0,48.1,62.74Z"/><path class="cls-1" d="M42.2,60.13a10.13,10.13,0,0,1-3.13-5.63,14.37,14.37,0,0,0-4.57,6.22A14.13,14.13,0,0,0,42.2,60.13Z"/><path class="cls-1" d="M39.07,54.5A10.33,10.33,0,0,1,40,48.09a14.3,14.3,0,0,0-7.39,2.24A14.42,14.42,0,0,0,39.07,54.5Z"/><path class="cls-1" d="M40,48.09a11,11,0,0,1,1.89-2.65l3.07-3.07-7.66-1.53A14.42,14.42,0,0,0,40,48.09Z"/><polygon class="cls-1" points="44.92 42.37 51.05 36.24 43.39 34.71 44.92 42.37"/><polygon class="cls-1" points="51.05 36.24 57.18 30.11 49.52 28.58 51.05 36.24"/><polygon class="cls-1" points="57.18 30.11 63.31 23.98 55.66 22.45 57.18 30.11"/><polygon class="cls-1" points="63.31 23.98 69.44 17.85 61.78 16.32 63.31 23.98"/><polygon class="cls-1" points="69.44 17.85 75.57 11.72 67.92 10.19 69.44 17.85"/><path class="cls-1" d="M75.57,11.72l.77-.77.63-.57a8.3,8.3,0,0,1,1.32-1,9.4,9.4,0,0,1,3-1.24,14.14,14.14,0,0,0-6.43-4.29,14.88,14.88,0,0,0,0,4.05C75,9.2,75.34,10.42,75.57,11.72Z"/><path class="cls-1" d="M81.31,8.17a10.11,10.11,0,0,1,6.44.59,14.42,14.42,0,0,0-2.58-7.29A14.42,14.42,0,0,0,81.31,8.17Z"/><path class="cls-1" d="M87.75,8.76a10.11,10.11,0,0,1,4.76,4.33,14.08,14.08,0,0,0,2.34-7.35A14,14,0,0,0,87.75,8.76Z"/><path class="cls-1" d="M92.51,13.09a10.25,10.25,0,0,1,1.17,6.36A14.47,14.47,0,0,0,100,15,14.43,14.43,0,0,0,92.51,13.09Z"/><path class="cls-1" d="M93.68,19.45a10.18,10.18,0,0,1-2.85,5.78,14.28,14.28,0,0,0,7.71.23A14.23,14.23,0,0,0,93.68,19.45Z"/><rect class="cls-2" x="35.57" y="29.29" width="60.93" height="13.24" rx="3.3" ry="3.3" transform="translate(-6.05 57.21) rotate(-45)"/><rect class="cls-3" x="-2.67" y="74.48" width="9.52" height="4.18" rx="1.04" ry="1.04" transform="translate(-74.48 78.66) rotate(-90)"/><rect class="cls-3" x="2.74" y="73.03" width="4.69" height="6.71" rx="1.17" ry="1.17" transform="translate(-71.3 81.47) rotate(-90)"/><circle class="cls-4" cx="61.98" cy="39.96" r="5.33"/><circle class="cls-4" cx="52.16" cy="49.77" r="5.33"/><circle class="cls-4" cx="71.97" cy="29.96" r="5.33"/><circle class="cls-4" cx="81.97" cy="19.96" r="5.33"/><rect class="cls-5" x="4.79" y="53.11" width="51.08" height="36.48" rx="9.08" ry="9.08" transform="translate(-41.57 42.34) rotate(-45)"/><path class="cls-5" d="M33.31,62.94l-7.5,7.5A11.9,11.9,0,0,1,9,53.6l7.5-7.5A11.9,11.9,0,1,1,33.31,62.94ZM12.65,57.28a6.71,6.71,0,1,0,9.49,9.48l7.5-7.49a6.71,6.71,0,0,0-9.49-9.49Z"/><rect class="cls-6" x="22.34" y="64.8" width="3.25" height="17.31" rx="0.81" ry="0.81"/><rect class="cls-6" x="28.08" y="59.06" width="3.25" height="17.31" rx="0.81" ry="0.81"/><rect class="cls-6" x="33.82" y="53.33" width="3.25" height="17.31" rx="0.81" ry="0.81"/></svg>