<svg id="Layer_1" data-name="Layer 1" xmlns="http://www.w3.org/2000/svg" viewBox="0 0 100 100"><defs><style>.cls-1{fill:#447d93;}.cls-2{fill:#7d7d7d;}.cls-3{fill:#b3b3b3;}.cls-4{fill:#895e59;}.cls-5{fill:#336377;}.cls-6{fill:#76504b;}.cls-7{fill:#f37d3b;}.cls-8{fill:#d97035;}.cls-9{fill:#b25c26;}.cls-10{fill:#6ab8d9;}.cls-11{fill:#ffc63f;}.cls-12{fill:#09a582;}.cls-13{fill:#ffc640;}</style></defs><title>electrician</title><path class="cls-1" d="M9.45,90.24a7.1,7.1,0,1,0,14.2,0v-64H9.45Z"/><path class="cls-1" d="M37.85,90.24a7.1,7.1,0,1,0,14.2,0v-64H37.85Z"/><polygon class="cls-2" points="6.65 38.39 6.71 42.23 4.98 43.27 3.21 42.28 3.16 38.45 1.02 39.74 1.11 44.24 5.05 46.42 8.91 44.09 8.82 39.59 6.65 38.39"/><path class="cls-2" d="M4.85,57.88A1.93,1.93,0,0,1,2.93,56v-.12l-2,1.22L1,61.55l2.17,1.2-.05-3.84,1.73-1,1.76,1,.06,3.83L8.79,61.4l-.08-4.5L6.77,55.83V56A1.93,1.93,0,0,1,4.85,57.88Z"/><path class="cls-2" d="M4.85,43.51a1.92,1.92,0,0,0-1.92,1.92v10.4l1.21-.73a.68.68,0,0,1,.2-.55.69.69,0,0,1,1,0,.67.67,0,0,1,.19.58l1.28.7V45.43A1.92,1.92,0,0,0,4.85,43.51Z"/><path class="cls-2" d="M5.3,55.52a.67.67,0,0,1-1,0,.72.72,0,0,1-.2-.42l-1.21.73V56a1.92,1.92,0,1,0,3.84,0v-.12l-1.28-.7A.63.63,0,0,1,5.3,55.52Z"/><rect class="cls-3" x="1.01" y="49.35" width="7.67" height="1.19" rx="0.27" ry="0.27" transform="translate(-45.1 54.79) rotate(-90)"/><path class="cls-4" d="M18.9,56.82V62.4a9.48,9.48,0,0,1-9.45,9.45h0A9.47,9.47,0,0,1,0,62.4V56.82"/><rect class="cls-1" x="13.37" y="26.24" width="38.68" height="48.49"/><circle class="cls-2" cx="16.22" cy="31.53" r="2.05"/><circle class="cls-2" cx="47" cy="31.53" r="2.05"/><path class="cls-5" d="M42.66,38.11h0a.57.57,0,0,1-.54-.59c0-.36,0-.73,0-1.1a.57.57,0,0,1,1.13,0c0,.39,0,.77,0,1.15A.56.56,0,0,1,42.66,38.11Z"/><path class="cls-5" d="M36.1,50.36H34.05a.56.56,0,0,1,0-1.12H36.1a.6.6,0,0,1,.6.55.52.52,0,0,1-.49.57Zm-4.18,0H29.79a.56.56,0,1,1,0-1.12h2.13a.56.56,0,1,1,0,1.12Zm-4.26,0H25.59l-.07-.56,0-.56h2.1a.56.56,0,1,1,0,1.12Zm-4.13-.66a.54.54,0,0,1-.31-.1A7,7,0,0,1,21.57,48a.56.56,0,0,1,.89-.67,6.07,6.07,0,0,0,1.39,1.35.56.56,0,0,1-.32,1Zm14.64,0a.55.55,0,0,1-.46-.24.56.56,0,0,1,.14-.78,5.9,5.9,0,0,0,1.38-1.36.56.56,0,0,1,.79-.11.55.55,0,0,1,.11.78,7.37,7.37,0,0,1-1.64,1.62A.62.62,0,0,1,38.17,49.68ZM20.92,46.39a.56.56,0,0,1-.51-.31,18.61,18.61,0,0,1-.83-2,.56.56,0,1,1,1.07-.35,16.16,16.16,0,0,0,.77,1.91.57.57,0,0,1-.26.75A.69.69,0,0,1,20.92,46.39Zm19.86,0a.53.53,0,0,1-.24-.06.56.56,0,0,1-.27-.74A15.07,15.07,0,0,0,41,43.65a.57.57,0,0,1,.71-.35.56.56,0,0,1,.35.71,16.35,16.35,0,0,1-.81,2A.57.57,0,0,1,40.78,46.37Zm-21.22-4a.57.57,0,0,1-.55-.44c-.15-.69-.27-1.42-.37-2.15a.57.57,0,0,1,.49-.63.55.55,0,0,1,.63.49c.09.7.2,1.39.35,2a.57.57,0,0,1-.43.67Zm22.57,0H42a.56.56,0,0,1-.43-.67c.15-.65.26-1.34.35-2a.56.56,0,0,1,1.11.14c-.09.74-.21,1.47-.36,2.15A.56.56,0,0,1,42.13,42.33Z"/><path class="cls-5" d="M19,38.11a.57.57,0,0,1-.56-.54c0-.38,0-.76,0-1.15a.56.56,0,0,1,1.12,0c0,.37,0,.74,0,1.1a.56.56,0,0,1-.53.59Z"/><rect class="cls-5" x="21.64" y="36.19" width="18.22" height="1.78" rx="0.4" ry="0.4"/><path class="cls-5" d="M15.9,72.75h-.11a5.23,5.23,0,0,1-2.24-1.07.56.56,0,1,1,.7-.87,4.28,4.28,0,0,0,1.77.85.55.55,0,0,1,.43.66A.56.56,0,0,1,15.9,72.75Zm2.22-.06a.56.56,0,0,1-.54-.41.57.57,0,0,1,.39-.69,4.2,4.2,0,0,0,1.72-.94.56.56,0,1,1,.76.83,5.36,5.36,0,0,1-2.18,1.19A.39.39,0,0,1,18.12,72.69ZM12.54,70A.56.56,0,0,1,12,69.7a5.34,5.34,0,0,1-.46-2.16v-.25a.57.57,0,0,1,1.13,0v.25a3.79,3.79,0,0,0,.36,1.7.56.56,0,0,1-.29.74A.46.46,0,0,1,12.54,70Zm8.79-.24a.64.64,0,0,1-.2,0A.57.57,0,0,1,20.8,69a4,4,0,0,0,.28-1.49V67a.56.56,0,1,1,1.12,0v.51a5.28,5.28,0,0,1-.35,1.89A.56.56,0,0,1,21.33,69.79Zm-9.2-4.18a.57.57,0,0,1-.56-.56V62.8a.57.57,0,0,1,1.13,0v2.25A.57.57,0,0,1,12.13,65.61Zm9.51-.26a.56.56,0,0,1-.56-.56V62.55a.56.56,0,0,1,1.12,0v2.24A.56.56,0,0,1,21.64,65.35Z"/><rect class="cls-5" x="13.54" y="62.35" width="6.8" height="0.81" rx="0.18" ry="0.18"/><path class="cls-5" d="M44,72.75h-.12a5.29,5.29,0,0,1-2.24-1.07.56.56,0,0,1-.08-.79.57.57,0,0,1,.79-.08,4.18,4.18,0,0,0,1.76.85.56.56,0,0,1-.11,1.1Zm2.21-.06a.56.56,0,0,1-.14-1.1,4.27,4.27,0,0,0,1.72-.94.56.56,0,1,1,.75.83,5.3,5.3,0,0,1-2.18,1.19A.39.39,0,0,1,46.18,72.69ZM40.61,70a.57.57,0,0,1-.52-.33,5.17,5.17,0,0,1-.45-2.16v-.25a.56.56,0,0,1,1.12,0v.25a4.08,4.08,0,0,0,.36,1.7.57.57,0,0,1-.28.74A.5.5,0,0,1,40.61,70Zm8.78-.24a.69.69,0,0,1-.2,0,.56.56,0,0,1-.32-.73,4.14,4.14,0,0,0,.27-1.49V67a.56.56,0,0,1,1.12,0v.51a5.07,5.07,0,0,1-.35,1.89A.54.54,0,0,1,49.39,69.79ZM40.2,65.61a.56.56,0,0,1-.56-.56V62.8a.56.56,0,0,1,1.12,0v2.25A.56.56,0,0,1,40.2,65.61Zm9.5-.26a.56.56,0,0,1-.56-.56V62.55a.56.56,0,1,1,1.12,0v2.24A.56.56,0,0,1,49.7,65.35Z"/><rect class="cls-5" x="41.6" y="62.35" width="6.8" height="0.81" rx="0.18" ry="0.18"/><rect class="cls-4" x="8.56" y="52.49" width="44.56" height="8.66"/><rect class="cls-6" x="23.65" y="52.05" width="15.07" height="9.74" rx="2.17" ry="2.17"/><path class="cls-1" d="M16.72,1.77a3.8,3.8,0,0,0-3.79,3.79V28.47h7.59V5.56A3.8,3.8,0,0,0,16.72,1.77Z"/><path class="cls-1" d="M46.48,1.77a3.8,3.8,0,0,0-3.8,3.79V27.91h7.6V5.56A3.8,3.8,0,0,0,46.48,1.77Z"/><path class="cls-7" d="M65.12,98.21c-16.28,0-16.63-2.39-16.88-4a3,3,0,0,1,0-.59c-.87.45-1.79.9-2.8,1.34a2.33,2.33,0,0,1-1.87-4.26,56,56,0,0,0,6.13-3.24l1-.56a4.18,4.18,0,0,1-1.13-3.53c.65-3.19,4.37-3.41,9.52-3.7,6-.35,14.14-.82,17.79-5.8,1.58-2.15,2.26-5.07,2-8.65a2.32,2.32,0,0,1,4.64-.3c.31,4.7-.67,8.64-2.91,11.7a16.45,16.45,0,0,1-8.21,5.72c12.35.7,24.24,4.19,26.78,7a3.1,3.1,0,0,1,.85,2.37c-.14,1.53-.52,5.6-29,6.4C68.83,98.18,66.88,98.21,65.12,98.21Zm-9.16-5c1.89.19,4.31.3,7,.33-.92-.3-2.33-.78-3.9-1.42C58.22,92.42,57.07,92.81,56,93.22ZM92.78,91a4.75,4.75,0,0,1-.36.5l1-.24Zm-25.1-1A42,42,0,0,0,85,89.78,56.5,56.5,0,0,0,67.68,90Z"/><path class="cls-8" d="M45.41,94.93l-1.86-4.26c.7-.31,1.36-.62,2-.94l2.1,4.15C46.93,94.24,46.19,94.59,45.41,94.93Z"/><path class="cls-8" d="M65.26,98.19c-1.64,0-3.21,0-4.68-.09l.17-4.65c.67,0,1.35,0,2.06.06-.49-.15-1-.32-1.48-.5l.82-2.3-.89-3.3c-.59.13-1.16.27-1.72.44l-1.33-4.46a29.48,29.48,0,0,1,3-.72l-.21-3.16c1.78-.11,3.14-.24,4.42-.42l.63,4.61c-1,.14-1.94.24-2.81.31l.23,2c.73-.17,1.47-.32,2.2-.45l.76,4.1.56.13-1,4.54-.74-.18Zm4.66,0-.11-4.66,1.18,0,.32-2.91c1.42.15,2.88.23,4.34.24l0,4.66-1.18,0L74.57,98C73,98.06,71.45,98.11,69.92,98.15ZM55.85,97.8a20.87,20.87,0,0,1-5.11-1l1.65-4.35a7.59,7.59,0,0,0,1,.27l-.73-1.63-.58.33-.25.15-2.35-4,.25-.15c1.31-.76,2.55-1.48,3.89-2.16l.58,1.14,1.12-1.53A23.1,23.1,0,0,0,58.87,87l-1.6,3.32L58,92.49c-.55.18-1.21.41-1.89.66l.18,0Zm23.36-.08-.31-4.64,1.34-.1L80,90.6A39.06,39.06,0,0,0,84.3,90l1,4.55c-.54.12-1.08.22-1.64.31l.24,2.52C82.37,97.49,80.81,97.61,79.21,97.72Zm9.32-.91-.63-4.62c.61-.08,1.19-.16,1.74-.25l-1-2.3-.09,0a1.73,1.73,0,0,0,.55,1.25,3.86,3.86,0,0,0-.86-.36l.3-.89c-.9-.25-1.85-.49-2.83-.72l1-4.53c1.62.37,3.17.79,4.6,1.22l-.32,1a3.38,3.38,0,0,1,2.16,2.84,3,3,0,0,1-.87,2.12L93.23,96C91.9,96.3,90.32,96.56,88.53,96.81Zm0-7.37v.14l0-.08Zm9.9,4.76-1.85-2.69H95.34a1.5,1.5,0,0,0,.33.94A6.59,6.59,0,0,0,94,91.51l1.92-4.24c2,.91,4.08,2.13,4.08,4.2v.25A3.35,3.35,0,0,1,98.41,94.2Zm-2.64-3.84a1.51,1.51,0,0,0-.42.94l1.14.1Zm-11.63-.72c-1.36-.19-2.83-.31-4.36-.38l.06-1.48c-1-.16-2-.29-3-.41l.55-4.62c1.55.18,3.12.41,4.67.68l-.22,1.29c1,.08,2,.18,2.91.3Zm-13.2-.09-.28-2.67-1,0-1.66,0L68,82.18H68l1.77,0,1,0-1.11-4a17.55,17.55,0,0,0,3.76-1.5l2.25,4.07a20,20,0,0,1-3.37,1.48l.39,0-.15,2.4c.88-.06,1.77-.11,2.65-.14l.16,4.65C73.89,89.29,72.4,89.4,70.94,89.55ZM53.64,85l-3-3.59c1.21-1,3.09-1.36,5.74-1.57l.36,4.64A9.71,9.71,0,0,0,53.64,85Zm26.24-7.51-3.52-3c.15-.19.31-.38.45-.58a10.1,10.1,0,0,0,1.37-2.63l4.4,1.51a14.81,14.81,0,0,1-2,3.87C80.35,76.89,80.12,77.18,79.88,77.45Z"/><path class="cls-8" d="M83.52,67.45l-4.65-.18a18.24,18.24,0,0,0,0-2.08l4.64-.3A24.55,24.55,0,0,1,83.52,67.45Z"/><path class="cls-9" d="M81.33,62.57c0,1,.08,2,.16,2.87l.22-.06a8.68,8.68,0,0,1,.52-2.67A2.83,2.83,0,0,0,81.33,62.57Z"/><path class="cls-9" d="M80.36,62.69,80,62.8a12.36,12.36,0,0,1,.42,1.67C80.41,64,80.38,63.35,80.36,62.69Z"/><path class="cls-9" d="M78.61,64.49a1.36,1.36,0,0,0,1,1,14.62,14.62,0,0,0-.47-2.14A1.32,1.32,0,0,0,78.61,64.49Z"/><path class="cls-9" d="M83.05,63.28a8.43,8.43,0,0,0-.33,1.52,1.29,1.29,0,0,0,.49-1.15A.93.93,0,0,0,83.05,63.28Z"/><path class="cls-10" d="M80.44,64.47A12.36,12.36,0,0,0,80,62.8c-.43-1.35-1.13-2.65-2.26-2.8l-.13,1c.63.08,1.15,1.11,1.52,2.34a14.62,14.62,0,0,1,.47,2.14,2.9,2.9,0,0,0,.91.13C80.51,65.32,80.47,64.93,80.44,64.47Z"/><path class="cls-11" d="M82.22,57l-.66-.7c-1.08,1-1.25,4-1.2,6.36,0,.66,0,1.27.08,1.78s.14.84.17,1.11a3.81,3.81,0,0,0,.57-.06l.31-.08c-.08-.85-.14-1.86-.16-2.87C81.29,60.18,81.49,57.73,82.22,57Z"/><path class="cls-11" d="M80.61,65.58c0-.27-.08-.66-.17-1.11,0,.46.07.85.09,1.1Z"/><path class="cls-12" d="M83.71,60.24a7.15,7.15,0,0,0-1.48,2.47,8.68,8.68,0,0,0-.52,2.67,2.91,2.91,0,0,0,1-.58,8.43,8.43,0,0,1,.33-1.52,6.27,6.27,0,0,1,1.37-2.38Z"/><path class="cls-9" d="M41.88,93.85c.86-.54,1.69-1.11,2.38-1.63l-.17-.15a8.77,8.77,0,0,1-2.56.93A2.79,2.79,0,0,0,41.88,93.85Z"/><path class="cls-9" d="M42.48,94.61a2.91,2.91,0,0,0,.27.24A14,14,0,0,1,44,93.63C43.54,93.92,43,94.26,42.48,94.61Z"/><path class="cls-9" d="M44.93,95.18a1.35,1.35,0,0,0,.29-1.35,16.09,16.09,0,0,0-1.59,1.51A1.33,1.33,0,0,0,44.93,95.18Z"/><path class="cls-9" d="M41.6,92a7.38,7.38,0,0,0,1.47-.5,1.29,1.29,0,0,0-1.24.18A1,1,0,0,0,41.6,92Z"/><path class="cls-10" d="M44,93.63a14,14,0,0,0-1.21,1.22c-.93,1.06-1.68,2.34-1.22,3.38l.88-.38c-.25-.58.36-1.56,1.22-2.51a16.09,16.09,0,0,1,1.59-1.51,2.79,2.79,0,0,0-.35-.85Z"/><path class="cls-11" d="M36.68,95.94l-.26.93c1.44.4,4.06-1,6.06-2.26.56-.35,1.06-.69,1.48-1s.65-.56.86-.72a2.79,2.79,0,0,0-.33-.46l-.23-.23c-.69.52-1.52,1.09-2.38,1.63C39.86,95.12,37.66,96.21,36.68,95.94Z"/><path class="cls-11" d="M44.82,92.91c-.21.16-.51.41-.86.72l.91-.65Z"/><path class="cls-12" d="M38.66,93a7.08,7.08,0,0,0,2.87,0,8.77,8.77,0,0,0,2.56-.93,3,3,0,0,0-1-.57,7.38,7.38,0,0,1-1.47.5,6.11,6.11,0,0,1-2.74.06Z"/><polyline class="cls-13" points="63.13 33.92 72.86 33.92 59.74 57.93 97.45 25.7 82.12 25.7 94.28 9.92 78.2 9.92"/></svg>