<svg id="Layer_1" data-name="Layer 1" xmlns="http://www.w3.org/2000/svg" viewBox="0 0 100 100"><defs><style>.cls-1{fill:#007f63;}.cls-2{fill:#09a582;}.cls-3{fill:#005c46;}.cls-4{fill:#ffc640;}</style></defs><title>electric eel</title><path class="cls-1" d="M.08,89.91a69,69,0,0,0,15.16-6.73,63.21,63.21,0,0,0,12.15-9.3C34.67,67.1,40,58.7,44.57,49.65c2.18-4.15,4.76-10.17,8-15.24l2.51-3.85c.84-1.28,1.9-2.46,2.86-3.68A42.51,42.51,0,0,1,61,23.33l3.4-3.3A41.65,41.65,0,0,1,81.18,10.7a27.49,27.49,0,0,1,9.53-.81,18.34,18.34,0,0,1,8.67,2.9,27.89,27.89,0,0,0-14.62,5.92,48.4,48.4,0,0,0-10,10.77c-1.33,2.14-2.74,4.12-3.91,6.41-.6,1.12-1.25,2.16-1.83,3.3l-1.67,3.47c-1.2,2.23-2.15,4.7-3.17,7.08l-3.69,7.91C55,68.59,46.73,78.9,35.62,85.19A48.52,48.52,0,0,1,18,91.45C11.94,92.3,5.67,92.05.08,89.91Z"/><path class="cls-2" d="M.16,89a48,48,0,0,0,15.58-4.36,50.75,50.75,0,0,0,13.14-8.73,60.62,60.62,0,0,0,5.47-5.52c.85-1,1.58-2.06,2.37-3.08A28.41,28.41,0,0,0,39,64.18a61.13,61.13,0,0,0,3.94-6.67,58.72,58.72,0,0,0,3.26-7.06c1-2.48,1.8-4.68,2.85-7.69,1-2.84,1.91-5.73,3.25-8.53l2-4.17a45.28,45.28,0,0,1,2.51-4A44.68,44.68,0,0,1,63,18.74,40.27,40.27,0,0,1,80.4,9c6.58-1.62,13.95-1.08,19.27,3l-.57,1.69a29.19,29.19,0,0,0-7.56,2.77,32.36,32.36,0,0,0-6,4.06,59.25,59.25,0,0,0-9.35,10.31c-1.33,2-2.81,3.82-4.15,5.93-.69,1-1.48,1.95-2.18,3l-2.17,3.14a71.49,71.49,0,0,0-4.32,6.52c-1.33,2.07-3,4.91-4.45,7.49a69.61,69.61,0,0,1-5,7.63,74.86,74.86,0,0,1-5.73,7.11A38.12,38.12,0,0,1,45,74.81c-1.14,1-2.2,2.11-3.39,3.07a69.58,69.58,0,0,1-7.45,5.26C23.77,89.45,11.6,92.5,0,90.8Z"/><polygon class="cls-2" points="78.05 25.95 100 23.29 81.58 15.31 78.05 25.95"/><circle class="cls-3" cx="82.33" cy="14.43" r="3.43"/><circle class="cls-4" cx="82.92" cy="13.35" r="2.1"/><circle class="cls-3" cx="71.72" cy="26.95" r="1.27"/><circle class="cls-3" cx="64.87" cy="25.95" r="1.27"/><circle class="cls-3" cx="72.56" cy="23.09" r="0.84"/><path class="cls-4" d="M63.59,18.34q-2.36-.29-4.65-.72l-1.15-.22c-.38-.1-.7-.32-1.06-.44l-2.14-.86,1.72-.91-1,4.31-.14.65-.61.25L44.25,24.74,44,22.32l8.28,1.59,1.61.31-.69,1.49L51,30.45l-.92-1.8a7.73,7.73,0,0,1,1.76.4l1.7.72c1.14.47,2.27.95,3.39,1.49-1.24.09-2.47.11-3.7.13l-1.84,0a7.68,7.68,0,0,1-1.79-.28L47.91,31l.75-1.59,2.23-4.74.91,1.79-8.28-1.59L39.37,24l3.9-1.64,10.35-4.34-.75.9,1-4.31.32-1.47,1.4.56,2.13.86a10.78,10.78,0,0,1,1.07.42l1,.63Q61.7,16.92,63.59,18.34Z"/><path class="cls-4" d="M60.79,46.53a9.35,9.35,0,0,1,2,2c.19.81.45,1.61.68,2.41l1.4,4.81.15.54-.28.48-2.13,3.53a7.81,7.81,0,0,1-1.16,1.71,19.17,19.17,0,0,1-2,1.16,18.36,18.36,0,0,1,.06-2.36,7.83,7.83,0,0,1,1-1.83L62.5,55.5l-.13,1L61,51.7c-.24-.8-.45-1.61-.72-2.4A9.35,9.35,0,0,1,60.79,46.53Z"/><path class="cls-4" d="M49.73,76.5c-2.88,1.57-5.83,3-8.75,4.44a13.32,13.32,0,0,1-2.27.88l-2.29.82-4.58,1.65-.66.23-.56-.43-10.83-8.5L21,75.8,11.42,79l-2.58.86,1-2.53,3.82-9.77.32-.81h9.37l-.92.38,3.52-3.61,1.76-1.8c.61-.58,1.12-1.26,1.76-1.8l.61-.51.49.14c3.33.91,6.67,1.73,10,2.74-3.46,0-6.9-.16-10.35-.23l1.09-.37c-.52.66-1.19,1.18-1.75,1.81l-1.76,1.8-3.52,3.61-.37.39h-9L16,68.47,12.2,78.24l-1.59-1.67,9.56-3.19.65-.22.54.43L32.2,82.08,31,81.89l4.58-1.65,2.29-.82a13.36,13.36,0,0,1,2.31-.78C43.35,77.93,46.51,77.12,49.73,76.5Z"/><path class="cls-4" d="M19.3,39.11c-.53-.26-1-.55-1.5-.84s-1.05-.54-1.18-1.05L15,34.65l-3.18-5.14-.78-1.25,1.35-.59L16,26.09l.9-.4a1.4,1.4,0,0,1,1-.17,19,19,0,0,1,2.22.16,20.21,20.21,0,0,1-1.39,1.73c-.24.28-.46.58-.81.62l-.9.39L13.44,30,14,28.17,17.2,33.3l1.59,2.57c.41.34.32,1,.42,1.52A16.09,16.09,0,0,1,19.3,39.11Z"/></svg>