<svg id="Layer_1" data-name="Layer 1" xmlns="http://www.w3.org/2000/svg" viewBox="0 0 100 100"><defs><style>.cls-1{fill:#bcd2de;}.cls-2{fill:#ffc640;}.cls-3{fill:#09a582;}.cls-4{fill:#007359;}.cls-5{fill:#5c3d39;}.cls-6{fill:#492e2a;}.cls-7{fill:#f89c3e;}</style></defs><title>oil</title><rect class="cls-1" x="24.02" y="15.87" width="51.96" height="14.72" rx="3.22" ry="3.22"/><rect class="cls-2" x="24.02" y="29.75" width="51.96" height="14.72" rx="3.22" ry="3.22"/><rect class="cls-2" x="24.02" y="43.63" width="51.96" height="14.72" rx="3.22" ry="3.22"/><rect class="cls-2" x="24.02" y="57.52" width="51.96" height="14.72" rx="3.22" ry="3.22"/><rect class="cls-2" x="24.02" y="71.4" width="51.96" height="14.72" rx="3.22" ry="3.22"/><rect class="cls-2" x="24.02" y="85.28" width="51.96" height="14.72" rx="3.22" ry="3.22"/><polygon class="cls-1" points="68.7 18.13 54.68 3.28 44.29 3.28 31.3 18.13 68.7 18.13"/><rect class="cls-3" x="39.72" width="20.27" height="7.85" rx="1.72" ry="1.72"/><rect class="cls-3" x="24.02" y="50.39" width="51.96" height="28.37"/><path class="cls-4" d="M45.78,69.52a4,4,0,1,1-5.4,5.82c-1.61-1.5-4-9.16-4-9.16S44.18,68,45.78,69.52Z"/><path class="cls-4" d="M55.36,69.52a4,4,0,0,0,5.41,5.82c1.6-1.5,4-9.16,4-9.16S57,68,55.36,69.52Z"/><path class="cls-2" d="M53.49,55.35c-.26,1.47-1.12,2.55-1.92,2.4s-1.22-1.45-1-2.92a4.15,4.15,0,0,1,1.91-2.41A4.12,4.12,0,0,1,53.49,55.35Z"/><path class="cls-2" d="M47.44,72.5C47.7,71,48.56,70,49.36,70.09s1.22,1.45,1,2.92a4.19,4.19,0,0,1-1.92,2.41A4.16,4.16,0,0,1,47.44,72.5Z"/><path class="cls-2" d="M41.89,60.9c1.47.26,2.55,1.12,2.41,1.91s-1.45,1.23-2.93,1A4.12,4.12,0,0,1,39,61.85,4.12,4.12,0,0,1,41.89,60.9Z"/><path class="cls-2" d="M58.67,60c-1.23.85-2.6,1-3.06.34s.16-1.89,1.39-2.74a4.13,4.13,0,0,1,3.06-.35A4.16,4.16,0,0,1,58.67,60Z"/><path class="cls-2" d="M42.26,67.84c1.23-.85,2.6-1,3.06-.34s-.16,1.89-1.39,2.74a4.13,4.13,0,0,1-3.06.35A4.21,4.21,0,0,1,42.26,67.84Z"/><path class="cls-2" d="M54.39,72.12c-.85-1.22-1-2.59-.35-3.05s1.9.16,2.75,1.39a4.14,4.14,0,0,1,.34,3.05A4.13,4.13,0,0,1,54.39,72.12Z"/><path class="cls-2" d="M47.26,56.33c.85,1.23,1,2.6.35,3.06s-1.9-.16-2.75-1.39a4.14,4.14,0,0,1-.34-3A4.14,4.14,0,0,1,47.26,56.33Z"/><path class="cls-2" d="M56.52,57.14c-.8,1.26-2,1.93-2.69,1.5s-.58-1.81.23-3.07a4.14,4.14,0,0,1,2.68-1.5A4.17,4.17,0,0,1,56.52,57.14Z"/><path class="cls-2" d="M57.25,70c-1.26-.81-1.93-2-1.5-2.69s1.81-.58,3.07.22a4.16,4.16,0,0,1,1.5,2.69A4.17,4.17,0,0,1,57.25,70Z"/><path class="cls-2" d="M58.38,63.81c-1.46.32-2.79-.06-3-.85s.87-1.68,2.33-2a4.16,4.16,0,0,1,3,.84A4.15,4.15,0,0,1,58.38,63.81Z"/><path class="cls-2" d="M41.39,64.44c1.46-.33,2.78,0,3,.84s-.87,1.69-2.33,2a4.17,4.17,0,0,1-3-.84A4.14,4.14,0,0,1,41.39,64.44Z"/><path class="cls-2" d="M50.88,72.53c-.33-1.46,0-2.79.84-3s1.69.87,2,2.32a4.17,4.17,0,0,1-.84,3A4.11,4.11,0,0,1,50.88,72.53Z"/><path class="cls-2" d="M50.13,55.78c.32,1.46-.05,2.78-.84,3s-1.69-.87-2-2.33a4.12,4.12,0,0,1,.84-3A4.14,4.14,0,0,1,50.13,55.78Z"/><path class="cls-2" d="M51.93,55c0,1.49-.66,2.7-1.46,2.7S49,56.44,49,55a4.14,4.14,0,0,1,1.47-2.71A4.14,4.14,0,0,1,51.93,55Z"/><path class="cls-2" d="M49,72.9c0-1.5.66-2.71,1.47-2.71s1.46,1.21,1.46,2.71a4.14,4.14,0,0,1-1.46,2.7A4.13,4.13,0,0,1,49,72.9Z"/><path class="cls-2" d="M59.44,65.38c-1.49,0-2.71-.65-2.71-1.46s1.22-1.46,2.71-1.46a4.14,4.14,0,0,1,2.71,1.46A4.14,4.14,0,0,1,59.44,65.38Z"/><path class="cls-2" d="M59.44,67c-1.49,0-2.71-.66-2.71-1.47s1.22-1.46,2.71-1.46a4.14,4.14,0,0,1,2.71,1.46A4.14,4.14,0,0,1,59.44,67Z"/><path class="cls-2" d="M41.49,62.46c1.5,0,2.71.65,2.71,1.46S43,65.38,41.49,65.38a4.17,4.17,0,0,1-2.71-1.46A4.17,4.17,0,0,1,41.49,62.46Z"/><path class="cls-2" d="M57.85,58.61c-1.06,1.06-2.38,1.45-3,.88s-.18-1.89.88-3a4.14,4.14,0,0,1,2.95-.88A4.19,4.19,0,0,1,57.85,58.61Z"/><path class="cls-2" d="M43.09,69.23c1-1,2.37-1.45,2.94-.88s.18,1.89-.88,3a4.11,4.11,0,0,1-2.94.88A4.14,4.14,0,0,1,43.09,69.23Z"/><path class="cls-2" d="M44.77,70.05c1-1,2.37-1.45,2.94-.88s.18,1.89-.88,3a4.11,4.11,0,0,1-2.94.88A4.14,4.14,0,0,1,44.77,70.05Z"/><path class="cls-2" d="M55.78,71.3c-1.06-1.06-1.45-2.38-.88-3s1.89-.17,3,.88a4.19,4.19,0,0,1,.88,3A4.14,4.14,0,0,1,55.78,71.3Z"/><path class="cls-2" d="M45.15,56.54c1.06,1.06,1.45,2.38.88,3s-1.89.18-2.94-.88a4.14,4.14,0,0,1-.88-3A4.11,4.11,0,0,1,45.15,56.54Z"/><path class="cls-2" d="M55.22,56.17c-.56,1.39-1.63,2.26-2.37,1.95s-.9-1.67-.33-3.06a4.17,4.17,0,0,1,2.38-2A4.15,4.15,0,0,1,55.22,56.17Z"/><path class="cls-2" d="M45.71,71.67c.56-1.38,1.63-2.26,2.38-2s.89,1.68.32,3.06a4.17,4.17,0,0,1-2.38,2A4.15,4.15,0,0,1,45.71,71.67Z"/><path class="cls-2" d="M58.21,68.68c-1.38-.57-2.25-1.63-2-2.38s1.68-.89,3.06-.32a4.1,4.1,0,0,1,2,2.38A4.14,4.14,0,0,1,58.21,68.68Z"/><path class="cls-2" d="M42.72,59.16c1.38.57,2.25,1.64,2,2.38s-1.68.89-3.06.33a4.12,4.12,0,0,1-2-2.38A4.12,4.12,0,0,1,42.72,59.16Z"/><path class="cls-2" d="M44.23,58.29c1.23.85,1.85,2.08,1.39,2.74s-1.83.51-3.06-.34A4.18,4.18,0,0,1,41.17,58,4.16,4.16,0,0,1,44.23,58.29Z"/><path class="cls-2" d="M59.31,61.81c-1.38.57-2.75.44-3.06-.31s.55-1.81,1.93-2.39a4.11,4.11,0,0,1,3.06.31A4.14,4.14,0,0,1,59.31,61.81Z"/><path class="cls-2" d="M41.62,66c1.38-.57,2.75-.44,3.06.31s-.55,1.81-1.93,2.39a4.13,4.13,0,0,1-3.06-.3A4.15,4.15,0,0,1,41.62,66Z"/><path class="cls-2" d="M52.58,72.77c-.58-1.38-.44-2.76.3-3.07s1.82.56,2.4,1.94A4.17,4.17,0,0,1,55,74.7,4.18,4.18,0,0,1,52.58,72.77Z"/><path class="cls-2" d="M48.35,55.08c.58,1.38.44,2.75-.3,3.06s-1.82-.56-2.39-1.94a4.13,4.13,0,0,1,.3-3.06A4.14,4.14,0,0,1,48.35,55.08Z"/><circle class="cls-5" cx="50.47" cy="64.12" r="7.04"/><circle class="cls-6" cx="45.24" cy="66.26" r="0.27"/><circle class="cls-6" cx="46.19" cy="67.83" r="0.27"/><circle class="cls-6" cx="50.47" cy="67.83" r="0.27"/><circle class="cls-6" cx="54.74" cy="67.83" r="0.27"/><circle class="cls-6" cx="47.33" cy="66.26" r="0.27"/><circle class="cls-6" cx="49.41" cy="66.26" r="0.27"/><circle class="cls-6" cx="51.5" cy="66.26" r="0.27"/><circle class="cls-6" cx="53.58" cy="66.26" r="0.27"/><circle class="cls-6" cx="55.66" cy="66.26" r="0.27"/><circle class="cls-6" cx="45.24" cy="63.34" r="0.27"/><circle class="cls-6" cx="46.19" cy="64.91" r="0.27"/><circle class="cls-6" cx="50.47" cy="64.91" r="0.27"/><circle class="cls-6" cx="54.74" cy="64.91" r="0.27"/><circle class="cls-6" cx="47.33" cy="63.34" r="0.27"/><circle class="cls-6" cx="49.41" cy="63.34" r="0.27"/><circle class="cls-6" cx="51.5" cy="63.34" r="0.27"/><circle class="cls-6" cx="53.58" cy="63.34" r="0.27"/><circle class="cls-6" cx="55.66" cy="63.34" r="0.27"/><circle class="cls-6" cx="45.24" cy="60.42" r="0.27"/><circle class="cls-6" cx="46.19" cy="61.99" r="0.27"/><circle class="cls-6" cx="50.47" cy="61.99" r="0.27"/><circle class="cls-6" cx="54.74" cy="61.99" r="0.27"/><circle class="cls-6" cx="47.33" cy="60.42" r="0.27"/><circle class="cls-6" cx="49.41" cy="60.42" r="0.27"/><circle class="cls-6" cx="51.5" cy="60.42" r="0.27"/><circle class="cls-6" cx="53.58" cy="60.42" r="0.27"/><circle class="cls-6" cx="55.66" cy="60.42" r="0.27"/><ellipse class="cls-7" cx="49.86" cy="30.33" rx="20.29" ry="2.58"/></svg>