<svg id="Layer_1" data-name="Layer 1" xmlns="http://www.w3.org/2000/svg" viewBox="0 0 100 100"><defs><style>.cls-1{fill:#ffc640;}.cls-2{fill:#4a4a4c;}.cls-3{fill:#58595b;}.cls-4{fill:#212121;}.cls-5{fill:#7696a7;}.cls-6{fill:#9dc8dc;}.cls-7{fill:#09a582;}.cls-8{fill:#00795e;}.cls-9{fill:#121212;}.cls-10{fill:#f37d3b;}.cls-11{fill:#c7672f;}</style></defs><title>day</title><circle class="cls-1" cx="76.23" cy="28.98" r="12.51"/><path class="cls-1" d="M72.9,14.23a7.53,7.53,0,0,1,3.33-.7,10.33,10.33,0,0,1,3.33.7L76.23,7Z"/><path class="cls-1" d="M79.56,43.23a7.57,7.57,0,0,1-3.33.69,10.45,10.45,0,0,1-3.33-.69l3.33,7.25Z"/><path class="cls-1" d="M90.73,25.4a7.48,7.48,0,0,1,.7,3.33,10.33,10.33,0,0,1-.7,3.33L98,28.73Z"/><path class="cls-1" d="M61.73,32.06a7.53,7.53,0,0,1-.7-3.33,10.33,10.33,0,0,1,.7-3.33l-7.25,3.33Z"/><path class="cls-1" d="M84.13,16.12A7.48,7.48,0,0,1,87,18a10.31,10.31,0,0,1,1.86,2.85l2.77-7.48Z"/><path class="cls-1" d="M68.33,41.33a7.41,7.41,0,0,1-2.84-1.86,10.47,10.47,0,0,1-1.87-2.85l-2.77,7.49Z"/><path class="cls-1" d="M88.84,36.62A7.55,7.55,0,0,1,87,39.47a10.31,10.31,0,0,1-2.85,1.86l7.48,2.78Z"/><path class="cls-1" d="M63.62,20.83A7.59,7.59,0,0,1,65.49,18a10.33,10.33,0,0,1,2.84-1.86l-7.48-2.77Z"/><rect class="cls-2" x="28.82" y="48.4" width="71.18" height="15.74" rx="3.95" ry="3.95"/><polygon class="cls-2" points="95.81 49.79 51.73 71.19 69.09 90.47 97.54 62.02 97.54 52.27 95.81 49.79"/><polygon class="cls-3" points="66.23 55.12 26.87 55.12 17.66 64.33 57.03 64.33 66.23 55.12"/><path class="cls-3" d="M96.94,50.1a7.74,7.74,0,0,0-4.81-1.7H36.69a7.77,7.77,0,0,0-3.61.92h-.41l-5.8,5.8H66.23l2.57-2.57-2.57,2.57h0L57,64.33h0l-1.5,1.49L57,64.33H17.66L3,79H68.14L97,50.1Z"/><path class="cls-2" d="M63.31,77.28H7.87A7.87,7.87,0,0,0,7.87,93H63.31a7.87,7.87,0,1,0,0-15.74Z"/><rect class="cls-4" x="23.7" y="35.1" width="16.09" height="24.47"/><rect class="cls-5" x="25.99" y="36.88" width="4.5" height="4.5" rx="0.22" ry="0.22" transform="translate(-10.89 67.37) rotate(-90)"/><rect class="cls-5" x="25.99" y="44.34" width="4.5" height="4.5" rx="0.22" ry="0.22" transform="translate(-18.35 74.83) rotate(-90)"/><rect class="cls-5" x="25.99" y="51.81" width="4.5" height="4.5" rx="0.22" ry="0.22" transform="translate(-25.81 82.3) rotate(-90)"/><rect class="cls-6" x="45.79" y="38.76" width="17.38" height="19.05"/><rect class="cls-7" x="57.05" y="35.27" width="12.24" height="25.25"/><rect class="cls-6" x="59.75" y="37.46" width="4.62" height="4.62" rx="0.22" ry="0.22" transform="translate(22.28 101.83) rotate(-90)"/><rect class="cls-6" x="59.75" y="45.97" width="4.62" height="4.62" rx="0.22" ry="0.22" transform="translate(13.77 110.35) rotate(-90)"/><rect class="cls-8" x="58.28" y="41.11" width="8.21" height="2.82"/><rect class="cls-8" x="59.75" y="43.43" width="0.87" height="1.59" rx="0.22" ry="0.22"/><rect class="cls-8" x="64.21" y="43.43" width="0.87" height="1.59" rx="0.22" ry="0.22"/><rect class="cls-4" x="65.74" y="34.04" width="15.31" height="30.45"/><ellipse class="cls-4" cx="73.4" cy="34.17" rx="6.47" ry="2.16"/><path class="cls-9" d="M79,58.55a1.66,1.66,0,0,0-1.66-1.67h-.58a1.67,1.67,0,0,0-1.67,1.67v5.94H79Z"/><rect class="cls-6" x="71.33" y="33.09" width="4.16" height="11.15" rx="0.22" ry="0.22" transform="translate(34.75 112.07) rotate(-90)"/><rect class="cls-6" x="71.33" y="39.86" width="4.16" height="11.15" rx="0.22" ry="0.22" transform="translate(27.97 118.85) rotate(-90)"/><rect class="cls-6" x="71.33" y="46.64" width="4.16" height="11.15" rx="0.22" ry="0.22" transform="translate(21.2 125.62) rotate(-90)"/><rect class="cls-6" x="68.53" y="56.21" width="4.16" height="5.56" rx="0.22" ry="0.22" transform="translate(11.63 129.6) rotate(-90)"/><polygon class="cls-4" points="80.88 66.28 15.7 66.28 18.7 63.29 83.84 63.29 80.88 66.28"/><rect class="cls-10" x="29.84" y="29.48" width="23.19" height="39.56"/><path class="cls-11" d="M51.21,57.16a3.34,3.34,0,0,0-3.34-3.34H46.72a3.33,3.33,0,0,0-3.33,3.34V69.05h7.82Z"/><rect class="cls-6" x="32.55" y="32.36" width="6.88" height="6.88" rx="0.22" ry="0.22" transform="translate(0.19 71.78) rotate(-90)"/><rect class="cls-6" x="43.39" y="32.36" width="6.88" height="6.88" rx="0.22" ry="0.22" transform="translate(11.03 82.62) rotate(-90)"/><rect class="cls-6" x="32.55" y="43.12" width="6.88" height="6.88" rx="0.22" ry="0.22" transform="translate(-10.57 82.54) rotate(-90)"/><rect class="cls-6" x="43.39" y="43.12" width="6.88" height="6.88" rx="0.22" ry="0.22" transform="translate(0.27 93.38) rotate(-90)"/><rect class="cls-6" x="32.55" y="53.88" width="6.88" height="6.88" rx="0.22" ry="0.22" transform="translate(-21.33 93.3) rotate(-90)"/></svg>