<svg id="Layer_1" data-name="Layer 1" xmlns="http://www.w3.org/2000/svg" viewBox="0 0 100 100"><defs><style>.cls-1{fill:#121212;}.cls-2{fill:#ffc640;}.cls-3{fill:#3e3e3f;}</style></defs><title>night</title><rect class="cls-1" x="61.56" y="23.37" width="12.94" height="3.79" rx="0.95" ry="0.95"/><circle class="cls-1" cx="65.48" cy="23.13" r="2.61"/><circle class="cls-1" cx="69.44" cy="23.37" r="1.7"/><rect class="cls-1" x="62.85" y="26.18" width="10.25" height="0.99" rx="0.25" ry="0.25"/><path class="cls-1" d="M63.72,25.88a1,1,0,0,1-.5.14,1,1,0,0,1-.49-.14,1,1,0,0,1,.49-.14A1,1,0,0,1,63.72,25.88Z"/><path class="cls-1" d="M65.62,25.88a1,1,0,0,1-.49.14,1,1,0,0,1-.5-.14,1,1,0,0,1,.5-.14A1,1,0,0,1,65.62,25.88Z"/><path class="cls-1" d="M67.53,25.88A1.08,1.08,0,0,1,67,26a1,1,0,0,1-.5-.14,1,1,0,0,1,.5-.14A1.08,1.08,0,0,1,67.53,25.88Z"/><path class="cls-1" d="M69.43,25.88a1.08,1.08,0,0,1-.5.14,1,1,0,0,1-.5-.14,1,1,0,0,1,.5-.14A1.08,1.08,0,0,1,69.43,25.88Z"/><path class="cls-1" d="M71.33,25.88a1,1,0,0,1-.5.14,1.08,1.08,0,0,1-.5-.14,1.08,1.08,0,0,1,.5-.14A1,1,0,0,1,71.33,25.88Z"/><path class="cls-1" d="M73.23,25.88a1,1,0,0,1-.5.14,1,1,0,0,1-.49-.14,1,1,0,0,1,.49-.14A1,1,0,0,1,73.23,25.88Z"/><path class="cls-1" d="M64.63,26.52a1.14,1.14,0,0,1-.5.13,1.09,1.09,0,0,1-.5-.13,1,1,0,0,1,.5-.14A1.08,1.08,0,0,1,64.63,26.52Z"/><path class="cls-1" d="M66.53,26.52a1.09,1.09,0,0,1-.5.13,1.14,1.14,0,0,1-.5-.13,1.08,1.08,0,0,1,.5-.14A1,1,0,0,1,66.53,26.52Z"/><path class="cls-1" d="M68.43,26.52a1.09,1.09,0,0,1-.5.13,1.14,1.14,0,0,1-.5-.13,1.08,1.08,0,0,1,.5-.14A1,1,0,0,1,68.43,26.52Z"/><path class="cls-1" d="M70.33,26.52a1.07,1.07,0,0,1-.49.13,1.09,1.09,0,0,1-.5-.13,1,1,0,0,1,.5-.14A1,1,0,0,1,70.33,26.52Z"/><path class="cls-1" d="M72.24,26.52a1.14,1.14,0,0,1-.5.13,1.09,1.09,0,0,1-.5-.13,1,1,0,0,1,.5-.14A1.08,1.08,0,0,1,72.24,26.52Z"/><path class="cls-2" d="M79.25,5.33a16.73,16.73,0,0,1-18.9,25.33A16.72,16.72,0,1,0,79.25,5.33Z"/><rect class="cls-1" x="78.8" y="34.61" width="18.64" height="5.46" rx="1.37" ry="1.37"/><circle class="cls-1" cx="86.99" cy="34.15" r="5.07"/><circle class="cls-1" cx="92.05" cy="34.61" r="3.31"/><rect class="cls-1" x="70.25" y="37.34" width="17.29" height="2.73" rx="0.69" ry="0.69"/><rect class="cls-1" x="28.82" y="48.4" width="71.18" height="15.74" rx="3.95" ry="3.95"/><polygon class="cls-1" points="95.81 49.79 51.73 71.19 69.09 90.47 97.54 62.02 97.54 52.27 95.81 49.79"/><polygon class="cls-3" points="66.23 55.12 26.87 55.12 17.66 64.33 57.03 64.33 66.23 55.12"/><path class="cls-3" d="M96.94,50.1a7.74,7.74,0,0,0-4.81-1.7H36.69a7.77,7.77,0,0,0-3.61.92h-.41l-5.8,5.8H66.23l2.57-2.57-2.57,2.57h0L57,64.33h0l-1.5,1.49L57,64.33H17.66L3,79H68.14L97,50.1Z"/><path class="cls-1" d="M63.31,77.28H7.87A7.87,7.87,0,0,0,7.87,93H63.31a7.87,7.87,0,1,0,0-15.74Z"/><rect class="cls-3" x="23.7" y="35.1" width="16.09" height="24.47"/><rect class="cls-2" x="25.99" y="36.88" width="4.5" height="4.5" rx="0.22" ry="0.22" transform="translate(-10.89 67.37) rotate(-90)"/><rect class="cls-1" x="25.99" y="44.34" width="4.5" height="4.5" rx="0.22" ry="0.22" transform="translate(-18.35 74.84) rotate(-90)"/><rect class="cls-1" x="25.99" y="51.81" width="4.5" height="4.5" rx="0.22" ry="0.22" transform="translate(-25.81 82.3) rotate(-90)"/><rect class="cls-3" x="45.79" y="38.76" width="17.38" height="19.05"/><rect class="cls-3" x="57.05" y="35.27" width="12.24" height="25.25"/><rect class="cls-2" x="59.75" y="37.46" width="4.62" height="4.62" rx="0.22" ry="0.22" transform="translate(22.28 101.84) rotate(-90)"/><rect class="cls-2" x="59.75" y="45.98" width="4.62" height="4.62" rx="0.22" ry="0.22" transform="translate(13.77 110.35) rotate(-90)"/><rect class="cls-3" x="58.28" y="41.11" width="8.21" height="2.82"/><rect class="cls-3" x="59.75" y="43.43" width="0.87" height="1.59" rx="0.22" ry="0.22"/><rect class="cls-3" x="64.21" y="43.43" width="0.87" height="1.59" rx="0.22" ry="0.22"/><rect class="cls-3" x="65.74" y="34.04" width="15.31" height="30.45"/><ellipse class="cls-3" cx="73.4" cy="34.17" rx="6.47" ry="2.16"/><path class="cls-1" d="M79,58.55a1.66,1.66,0,0,0-1.66-1.67h-.58a1.67,1.67,0,0,0-1.67,1.67v5.94H79Z"/><rect class="cls-2" x="71.33" y="33.09" width="4.16" height="11.15" rx="0.22" ry="0.22" transform="translate(34.75 112.07) rotate(-90)"/><rect class="cls-1" x="71.33" y="39.86" width="4.16" height="11.15" rx="0.22" ry="0.22" transform="translate(27.97 118.85) rotate(-90)"/><rect class="cls-2" x="71.33" y="46.64" width="4.16" height="11.15" rx="0.22" ry="0.22" transform="translate(21.2 125.62) rotate(-90)"/><rect class="cls-2" x="68.53" y="56.21" width="4.16" height="5.56" rx="0.22" ry="0.22" transform="translate(11.63 129.6) rotate(-90)"/><polygon class="cls-1" points="80.88 66.28 15.7 66.28 18.7 63.29 83.84 63.29 80.88 66.28"/><rect class="cls-3" x="29.84" y="29.48" width="23.19" height="39.56"/><path class="cls-1" d="M51.21,57.16a3.34,3.34,0,0,0-3.34-3.34H46.72a3.33,3.33,0,0,0-3.33,3.34V69.05h7.82Z"/><rect class="cls-1" x="32.55" y="32.36" width="6.88" height="6.88" rx="0.22" ry="0.22" transform="translate(0.19 71.78) rotate(-90)"/><rect class="cls-2" x="43.39" y="32.36" width="6.88" height="6.88" rx="0.22" ry="0.22" transform="translate(11.03 82.62) rotate(-90)"/><rect class="cls-2" x="32.55" y="43.12" width="6.88" height="6.88" rx="0.22" ry="0.22" transform="translate(-10.57 82.54) rotate(-90)"/><rect class="cls-2" x="43.39" y="43.12" width="6.88" height="6.88" rx="0.22" ry="0.22" transform="translate(0.27 93.38) rotate(-90)"/><rect class="cls-1" x="32.55" y="53.88" width="6.88" height="6.88" rx="0.22" ry="0.22" transform="translate(-21.33 93.3) rotate(-90)"/></svg>