<svg id="Layer_1" data-name="Layer 1" xmlns="http://www.w3.org/2000/svg" xmlns:xlink="http://www.w3.org/1999/xlink" viewBox="0 0 100 100"><defs><style>.cls-1{fill:none;}.cls-2{fill:#3e3e3f;}.cls-3{isolation:isolate;}.cls-4{clip-path:url(#clip-path);}.cls-5{fill:#cccecf;}.cls-6{fill:#447d93;}</style><clipPath id="clip-path"><polygon class="cls-1" points="17.29 78.17 0 21.83 82.71 21.83 100 78.17 17.29 78.17"/></clipPath></defs><title>solar cell</title><rect class="cls-2" x="5.26" y="34.1" width="3.95" height="35.29" rx="0.96" ry="0.96"/><g class="cls-3"><g class="cls-4"><path class="cls-5" d="M29.88,59.75h3.9a7.19,7.19,0,0,1,5.79,3.32,5.4,5.4,0,0,1,.57,1.22L42.51,72c.77,2.5-.84,4.53-3.58,4.53H24.22a7.11,7.11,0,0,1-5.42-2.77A5.66,5.66,0,0,1,17.86,72l-1.42-4.65-.94-3.06c-.77-2.49.85-4.54,3.57-4.54H29.88m29.29,0h.89a7,7,0,0,1,6.36,4.54L68.79,72c.77,2.5-.84,4.53-3.58,4.53H50.52a6.79,6.79,0,0,1-3.67-1.17A6.42,6.42,0,0,1,44.15,72l-2.37-7.71c-.77-2.49.85-4.54,3.59-4.54h13.8M76.8,76.53A7,7,0,0,1,70.45,72l-2.37-7.71c-.77-2.49.83-4.54,3.57-4.54H86.34a7.05,7.05,0,0,1,6.39,4.54L95.09,72c.77,2.5-.86,4.53-3.6,4.53H76.8M18.62,58.29a7,7,0,0,1-6.36-4.54L9.89,46c-.76-2.5.86-4.53,3.58-4.53H28.18A7.18,7.18,0,0,1,34.09,45a6.3,6.3,0,0,1,.45,1l1.73,5.62.64,2.09c.76,2.49-.84,4.54-3.58,4.54H18.62M44.29,41.51H54.46a6.18,6.18,0,0,1,1.92.32A6.93,6.93,0,0,1,60.82,46l2.37,7.71a5.19,5.19,0,0,1,.14.73,3.26,3.26,0,0,1-2.93,3.74,5.16,5.16,0,0,1-.79.07H44.93a6.92,6.92,0,0,1-1.43-.19,7,7,0,0,1-5-4.35l-1.1-3.58L36.18,46c-.77-2.5.85-4.53,3.59-4.53h4.52m29.32,0h7.13A7,7,0,0,1,87.12,46l2.37,7.71c.76,2.49-.85,4.54-3.6,4.54H71.21a7,7,0,0,1-6.37-4.54l-.25-.83L62.48,46c-.77-2.5.83-4.53,3.58-4.53h7.55M13,40a7,7,0,0,1-6.36-4.53L4.29,27.78c-.76-2.48.86-4.53,3.58-4.53H22.58a7,7,0,0,1,6.36,4.53l2.37,7.73C32.07,38,30.47,40,27.73,40H13m25.1-.13a7,7,0,0,1-5.18-4.4l-2.37-7.73c-.76-2.48.86-4.53,3.6-4.53H48.86a6.21,6.21,0,0,1,2.11.4,6.81,6.81,0,0,1,4.22,4.06l0,.07,2.37,7.73C58.35,38,56.75,40,54,40H39.32a7.1,7.1,0,0,1-1.2-.13M71,23.25h4.1a7,7,0,0,1,6.38,4.53l.82,2.68,1.55,5C84.66,38,83,40,80.29,40H65.6a7.22,7.22,0,0,1-5.52-2.91,5.45,5.45,0,0,1-.84-1.62l-2.37-7.73a3.81,3.81,0,0,1,0-2.14,3.11,3.11,0,0,1,1.43-1.81,4.22,4.22,0,0,1,2.19-.58H71m6.68-1.42H5c-2.72,0-4.34,2.05-3.57,4.55L15.9,73.62a7,7,0,0,0,6.36,4.55H95c2.74,0,4.36-2,3.59-4.55L84.1,26.38a7,7,0,0,0-6.38-4.55"/><path class="cls-2" d="M22.58,23.25H7.87c-2.72,0-4.34,2.05-3.58,4.53l2.37,7.73A7,7,0,0,0,13,40H27.73c2.74,0,4.34-2,3.58-4.53l-2.37-7.73a7,7,0,0,0-6.36-4.53"/><path class="cls-2" d="M28.18,41.51H13.47c-2.72,0-4.34,2-3.58,4.53l2.37,7.71a7,7,0,0,0,6.36,4.54h5L34.09,45a7.18,7.18,0,0,0-5.91-3.5"/><path class="cls-6" d="M34.09,45,23.59,58.29H31l5.24-6.63L34.54,46a6.3,6.3,0,0,0-.45-1"/><path class="cls-2" d="M36.27,51.66,31,58.29h2.3c2.74,0,4.34-2,3.58-4.54l-.64-2.09"/><path class="cls-2" d="M22.44,59.75H19.07c-2.72,0-4.34,2-3.57,4.54l.94,3.06,6-7.6"/><path class="cls-6" d="M29.88,59.75H22.44l-6,7.6L17.86,72a5.66,5.66,0,0,0,.94,1.76l11.08-14"/><path class="cls-2" d="M33.78,59.75h-3.9l-11.08,14a7.11,7.11,0,0,0,5.42,2.77h4.71L39.57,63.07a7.19,7.19,0,0,0-5.79-3.32"/><path class="cls-6" d="M39.57,63.07,28.93,76.53h10c2.74,0,4.35-2,3.58-4.53l-2.37-7.71a5.4,5.4,0,0,0-.57-1.22"/><path class="cls-2" d="M48.86,23.25H34.17c-2.74,0-4.36,2.05-3.6,4.53l2.37,7.73a7,7,0,0,0,5.18,4.4L51,23.65a6.21,6.21,0,0,0-2.11-.4"/><path class="cls-6" d="M51,23.65,38.12,39.91a7.1,7.1,0,0,0,1.2.13h6.13l9.74-12.33A6.81,6.81,0,0,0,51,23.65"/><path class="cls-2" d="M55.19,27.71,45.45,40H54c2.74,0,4.34-2,3.58-4.53l-2.37-7.73,0-.07"/><path class="cls-6" d="M44.29,41.51H39.77c-2.74,0-4.36,2-3.59,4.53l1.26,4.13,6.85-8.66"/><path class="cls-2" d="M54.46,41.51H44.29l-6.85,8.66,1.1,3.58a7,7,0,0,0,5,4.35L56.38,41.83a6.18,6.18,0,0,0-1.92-.32"/><path class="cls-6" d="M56.38,41.83,43.5,58.1a6.92,6.92,0,0,0,1.43.19H59.61a5.16,5.16,0,0,0,.79-.07l2.93-3.74a5.19,5.19,0,0,0-.14-.73L60.82,46a6.93,6.93,0,0,0-4.44-4.21"/><path class="cls-2" d="M63.33,54.48,60.4,58.22a3.26,3.26,0,0,0,2.93-3.74"/><path class="cls-6" d="M59.17,59.75H45.37c-2.74,0-4.36,2-3.59,4.54L44.15,72a6.42,6.42,0,0,0,2.7,3.36L59.17,59.75"/><path class="cls-2" d="M60.06,59.75h-.89L46.85,75.36a6.79,6.79,0,0,0,3.67,1.17H65.21c2.74,0,4.35-2,3.58-4.53l-2.37-7.71a7,7,0,0,0-6.36-4.54"/><path class="cls-2" d="M58.26,23.83a3.11,3.11,0,0,0-1.43,1.81l1.43-1.81"/><path class="cls-2" d="M71,23.25H60.45a4.22,4.22,0,0,0-2.19.58l-1.43,1.81a3.81,3.81,0,0,0,0,2.14l2.37,7.73a5.45,5.45,0,0,0,.84,1.62L71,23.25"/><path class="cls-6" d="M75.14,23.25H71l-11,13.88A7.22,7.22,0,0,0,65.6,40h9.15l7.59-9.58-.82-2.68a7,7,0,0,0-6.38-4.53"/><path class="cls-2" d="M82.34,30.46,74.75,40h5.54c2.74,0,4.37-2,3.6-4.53l-1.55-5"/><path class="cls-6" d="M73.61,41.51H66.06c-2.75,0-4.35,2-3.58,4.53l2.11,6.88,9-11.41"/><path class="cls-2" d="M80.74,41.51H73.61l-9,11.41.25.83a7,7,0,0,0,6.37,4.54H85.89c2.75,0,4.36-2,3.6-4.54L87.12,46a7,7,0,0,0-6.38-4.53"/><path class="cls-2" d="M86.34,59.75H71.65c-2.74,0-4.34,2-3.57,4.54L70.45,72a7,7,0,0,0,6.35,4.53H91.49c2.74,0,4.37-2,3.6-4.53l-2.36-7.71a7.05,7.05,0,0,0-6.39-4.54"/></g></g></svg>