<svg id="Layer_1" data-name="Layer 1" xmlns="http://www.w3.org/2000/svg" viewBox="0 0 100 100"><defs><style>.cls-1{fill:#9dc8dc;}.cls-2{fill:#6ab8d9;}.cls-3{fill:#fff;}.cls-4{fill:#ebf7fd;}.cls-5{fill:#a8d5eb;}</style></defs><title>rain</title><circle class="cls-1" cx="29.9" cy="54.49" r="4.75"/><ellipse class="cls-2" cx="56.19" cy="52.49" rx="10.81" ry="3.3"/><rect class="cls-3" y="23.83" width="100" height="29.32" rx="5.65" ry="5.65"/><circle class="cls-3" cx="30.28" cy="21.98" r="20.14"/><circle class="cls-3" cx="60.85" cy="23.83" r="13.14"/><path class="cls-1" d="M24.21,70.87a4.5,4.5,0,0,1-9,0c0-2.48,4.5-9.09,4.5-9.09S24.21,68.39,24.21,70.87Z"/><path class="cls-1" d="M89.89,64.07a4.5,4.5,0,0,1-9,0c0-2.48,4.5-9.09,4.5-9.09S89.89,61.59,89.89,64.07Z"/><path class="cls-2" d="M85.39,93a3.86,3.86,0,1,1-7.72,0c0-2.13,3.86-7.81,3.86-7.81S85.39,90.86,85.39,93Z"/><path class="cls-2" d="M31.14,95.79a2.36,2.36,0,0,1-4.72,0c0-1.3,2.36-4.77,2.36-4.77S31.14,94.49,31.14,95.79Z"/><path class="cls-1" d="M59.61,74.41a2.25,2.25,0,0,1-4.5,0c0-1.24,2.25-4.54,2.25-4.54S59.61,73.17,59.61,74.41Z"/><path class="cls-1" d="M44.74,61.17a1.38,1.38,0,1,1-2.76,0,9.39,9.39,0,0,1,1.38-2.79A9.39,9.39,0,0,1,44.74,61.17Z"/><path class="cls-1" d="M47.62,81.86a4.26,4.26,0,1,1-8.51,0c0-2.34,4.25-8.6,4.25-8.6S47.62,79.52,47.62,81.86Z"/><path class="cls-2" d="M76.52,61.77a2.56,2.56,0,1,1-5.11,0c0-1.41,2.56-5.17,2.56-5.17S76.52,60.36,76.52,61.77Z"/><rect class="cls-4" x="9.95" y="45.52" width="79.24" height="7.67" rx="1.48" ry="1.48"/><path class="cls-4" d="M16.69,43.2a8.14,8.14,0,0,1-3.85,1.07A8.09,8.09,0,0,1,9,43.2a8,8,0,0,1,3.85-1.08A8.09,8.09,0,0,1,16.69,43.2Z"/><path class="cls-4" d="M31.38,43.2a8.09,8.09,0,0,1-3.85,1.07,8.14,8.14,0,0,1-3.85-1.07,8.09,8.09,0,0,1,3.85-1.08A8,8,0,0,1,31.38,43.2Z"/><path class="cls-4" d="M46.08,43.2a7.46,7.46,0,0,1-7.7,0,7.4,7.4,0,0,1,7.7,0Z"/><path class="cls-4" d="M60.78,43.2a7.46,7.46,0,0,1-7.7,0,7.4,7.4,0,0,1,7.7,0Z"/><path class="cls-4" d="M75.48,43.2a7.46,7.46,0,0,1-7.7,0,7.4,7.4,0,0,1,7.7,0Z"/><path class="cls-4" d="M90.17,43.2a7.46,7.46,0,0,1-7.7,0,7.4,7.4,0,0,1,7.7,0Z"/><path class="cls-5" d="M23.68,48.12a8.09,8.09,0,0,1-3.85,1.07A8.14,8.14,0,0,1,16,48.12,8.09,8.09,0,0,1,19.83,47,8,8,0,0,1,23.68,48.12Z"/><path class="cls-5" d="M38.38,48.12a8.09,8.09,0,0,1-3.85,1.07,8.14,8.14,0,0,1-3.85-1.07A8.09,8.09,0,0,1,34.53,47,8,8,0,0,1,38.38,48.12Z"/><path class="cls-5" d="M53.08,48.12a7.46,7.46,0,0,1-7.7,0,7.4,7.4,0,0,1,7.7,0Z"/><path class="cls-5" d="M67.78,48.12a7.46,7.46,0,0,1-7.7,0,7.4,7.4,0,0,1,7.7,0Z"/><path class="cls-5" d="M82.47,48.12a7.46,7.46,0,0,1-7.7,0,7.4,7.4,0,0,1,7.7,0Z"/></svg>