<svg id="Layer_1" data-name="Layer 1" xmlns="http://www.w3.org/2000/svg" viewBox="0 0 100 100"><defs><style>.cls-1{fill:#007f63;}.cls-2{fill:#00604a;}.cls-3{fill:#09a582;}</style></defs><title>wave</title><rect class="cls-1" width="100" height="100" rx="12" ry="12"/><path class="cls-2" d="M100,51.32h-.84V49.06H100Zm-5.34,0H90.15V49.06h4.51Zm-9,0H81.13V49.06h4.51Zm-9,0H72.12V49.06h4.51Zm-9,0H63.1V49.06h4.51Zm-9,0H54.09V49.06H58.6Zm-9,0H45.07V49.06h4.51Zm-9,0H36.06V49.06h4.51Zm-9,0H27V49.06h4.51Zm-9,0H18V49.06h4.51Zm-9,0H9V49.06h4.51Zm-9,0H0V49.06H4.51Z"/><path class="cls-3" d="M91.17,56.07a9.8,9.8,0,0,1-9.23-7.36l-1-3h0c-3.08-7.2-9.78-12-17.2-12s-14.12,4.8-17.2,12h0l-1,3a9.81,9.81,0,0,1-9.23,7.36,9.8,9.8,0,0,1-9.23-7.36l-1-3h0c-3.08-7.2-9.78-12-17.2-12A17.63,17.63,0,0,0,0,36.17v14a9.65,9.65,0,0,1,8.83-6.26,9.8,9.8,0,0,1,9.23,7.36l1,3h0c3.08,7.2,9.78,12,17.2,12s14.12-4.8,17.2-12h0l1-3a9.47,9.47,0,0,1,18.46,0l1,3h0c3.08,7.2,9.78,12,17.2,12A17.63,17.63,0,0,0,100,63.83v-14A9.65,9.65,0,0,1,91.17,56.07Z"/></svg>