<svg id="Layer_1" data-name="Layer 1" xmlns="http://www.w3.org/2000/svg" viewBox="0 0 100 100"><defs><style>.cls-1{fill:#6d4945;}.cls-2{fill:#895e59;}.cls-3{fill:#5a9eba;}.cls-4{fill:#6ab8d9;}.cls-5{fill:#447d93;}.cls-6{fill:#fff;}.cls-7{fill:#ffc640;}</style></defs><title>tide</title><path class="cls-1" d="M16.69,57.66V74.79l60.42,6.3L95.18,63h.87A4,4,0,0,0,100,59V39.48a4,4,0,0,0-4-4H37.81a4,4,0,0,0-4,4v9.31Z"/><path class="cls-2" d="M96.78,37.31a8.23,8.23,0,0,0-5.07-1.79H42.15a8.2,8.2,0,0,0-3.81,1L36.26,38,16.69,57.66H70.25A8.28,8.28,0,0,1,75,59.17L96.24,37.92l.61-.61Z"/><path class="cls-3" d="M53,82.25l5.88,6.52,5,5.6,6.53-6.52,3.66-3.66a2.29,2.29,0,0,1,.1-.23l3-3a8.18,8.18,0,0,0,.92-3.71,8.31,8.31,0,0,0-3.55-6.79Z"/><path class="cls-4" d="M74.71,70.48A8.28,8.28,0,0,0,70,69H16.39l-5.34,5.38h0l-7.86,7.9H63L71.5,73.7h0Z"/><path class="cls-5" d="M57.85,80.48H8.29a8.29,8.29,0,0,0,0,16.58H57.85a8.29,8.29,0,1,0,0-16.58Z"/><polygon class="cls-3" points="27.19 75.4 44.67 75.4 35.93 73.22 27.19 75.4"/><polygon class="cls-3" points="38.48 77.97 47.93 77.97 43.2 76.76 38.48 77.97"/><polygon class="cls-3" points="10.11 77.97 19.55 77.97 14.83 76.76 10.11 77.97"/><polygon class="cls-3" points="56.17 75.57 62.91 75.57 59.54 74 56.17 75.57"/><polygon class="cls-6" points="28.27 34.05 16.32 46.01 21.58 46.01 21.58 75.32 34.97 75.32 34.97 46.01 40.23 46.01 28.27 34.05"/><polygon class="cls-6" points="61.03 63.36 61.03 34.05 47.65 34.05 47.65 63.36 42.38 63.36 54.34 75.32 66.3 63.36 61.03 63.36"/><path class="cls-7" d="M28.28,7.8A10.26,10.26,0,0,1,16.69,23.33,10.25,10.25,0,1,0,28.28,7.8Z"/><circle class="cls-7" cx="54.34" cy="18.54" r="6.6"/><path class="cls-7" d="M52.58,10.76a4,4,0,0,1,1.76-.37,5.47,5.47,0,0,1,1.76.37L54.34,6.94Z"/><path class="cls-7" d="M56.1,26.05a4,4,0,0,1-1.76.37,5.47,5.47,0,0,1-1.76-.37l1.76,3.82Z"/><path class="cls-7" d="M62,16.65a4.06,4.06,0,0,1,.36,1.76A5.49,5.49,0,0,1,62,20.16l3.82-1.75Z"/><path class="cls-7" d="M46.7,20.16a4,4,0,0,1-.37-1.75,5.47,5.47,0,0,1,.37-1.76l-3.83,1.76Z"/><path class="cls-7" d="M58.5,11.76a4,4,0,0,1,1.51,1,5.44,5.44,0,0,1,1,1.5l1.46-3.94Z"/><path class="cls-7" d="M50.18,25.05a4,4,0,0,1-1.51-1,5.44,5.44,0,0,1-1-1.5l-1.46,3.95Z"/><path class="cls-7" d="M61,22.57a4,4,0,0,1-1,1.5,5.43,5.43,0,0,1-1.51,1l4,1.47Z"/><path class="cls-7" d="M47.69,14.24a4,4,0,0,1,1-1.5,5.58,5.58,0,0,1,1.51-1l-4-1.46Z"/></svg>