<svg id="Layer_1" data-name="Layer 1" xmlns="http://www.w3.org/2000/svg" viewBox="0 0 100 100"><defs><style>.cls-1{fill:#4a4a4c;}.cls-2{fill:#3b3a3c;}.cls-3{fill:#454547;}.cls-4{fill:#58595b;}.cls-5{fill:#3e3e3f;}.cls-6{fill:#333;}.cls-7{fill:#757575;}.cls-8{fill:#714c48;}.cls-9{fill:#5c3d39;}.cls-10{fill:#895e59;}.cls-11{fill:#b3b3b3;}.cls-12{fill:#f05c38;}.cls-13{fill:#ffc640;}.cls-14{fill:#faad3f;}.cls-15{fill:#f37d3b;}.cls-16{fill:#bc6842;}</style></defs><title>fireplace</title><rect class="cls-1" x="9.6" width="80.35" height="15.24" rx="3.44" ry="3.44"/><rect class="cls-1" x="8.03" y="13.47" width="83.95" height="80.07"/><rect class="cls-2" x="17.84" y="23.32" width="65.23" height="62.22"/><rect class="cls-3" x="17.84" y="71.66" width="65.23" height="13.88"/><rect class="cls-4" x="2.33" y="8.86" width="95.34" height="10.03" rx="2.26" ry="2.26"/><rect class="cls-4" x="2.33" y="89.97" width="95.34" height="10.03" rx="2.26" ry="2.26"/><path class="cls-5" d="M28.71,78l-.85,0s0,0,0-.06a.86.86,0,0,1,.43-.74.41.41,0,0,0,.22-.37.42.42,0,0,0-.22-.37,1.67,1.67,0,0,0-.86-.24A1.72,1.72,0,0,0,25.7,78a2.3,2.3,0,0,0,0,.26,15.94,15.94,0,0,0-3,.64,1.22,1.22,0,0,0-.26-.3.31.31,0,0,0-.5.18.59.59,0,0,1-.39.47.6.6,0,0,1-.6-.11.3.3,0,0,0-.3-.05.31.31,0,0,0-.2.23,1.26,1.26,0,0,0,.05.64,1.2,1.2,0,0,0,.44.55,2.73,2.73,0,0,0,1.62,1.05.87.87,0,0,0,.83.6.89.89,0,0,0,.55-.21c.67.14,1.42.26,2.24.36-1.15.16-1.91.44-1.91.76,0,.47,1.68.85,3.81.89a.88.88,0,0,0,.73.41.9.9,0,0,0,.76-.43c.44,0,.86-.06,1.23-.12a40.94,40.94,0,0,0,4.45,1,.71.71,0,0,0,.62.38.68.68,0,0,0,.5-.21,99.36,99.36,0,0,0,14.18.94c8.61,0,17-.92,21.85-2.3.38,0,.77,0,1.19,0,2.32,0,4.21-.41,4.21-.91,0-.3-.68-.56-1.72-.73h.23c2.73,0,4.94-.56,4.94-1.24s-2-1.17-4.53-1.22l2.9-1.9a.63.63,0,0,0,.19-.87l-.92-1.41a.63.63,0,0,0-.87-.18l-2.87,1.88v0a.95.95,0,0,0-1.41-.83Z"/><path class="cls-6" d="M29.91,72.7h0a2.11,2.11,0,0,1,2.91-.61l3.79,2.48a16.46,16.46,0,0,0-5.37,1.53l-.72-.48A2.11,2.11,0,0,1,29.91,72.7Z"/><path class="cls-6" d="M42.45,77.22a.85.85,0,0,1-.86,0,.44.44,0,0,0-.43,0,.43.43,0,0,0-.2.37,1.69,1.69,0,0,0,.25.86,1.72,1.72,0,1,0,2.93-1.8,1.81,1.81,0,0,0-.65-.61.44.44,0,0,0-.64.39A.85.85,0,0,1,42.45,77.22Z"/><path class="cls-6" d="M52.76,71a.64.64,0,0,1-.2-.6.32.32,0,0,0-.09-.31.34.34,0,0,0-.32-.06,1.21,1.21,0,0,0-.55.35A1.28,1.28,0,1,0,53.5,72a1.31,1.31,0,0,0,.29-.59.29.29,0,0,0-.1-.3.32.32,0,0,0-.31-.07A.64.64,0,0,1,52.76,71Z"/><path class="cls-7" d="M60.1,75.29a.35.35,0,0,1-.27-.24.22.22,0,0,0-.14-.13.19.19,0,0,0-.18.06.8.8,0,0,0-.18.34.76.76,0,0,0,.58.89.75.75,0,0,0,.88-.58.74.74,0,0,0,0-.39.17.17,0,0,0-.14-.12.19.19,0,0,0-.18.06A.36.36,0,0,1,60.1,75.29Z"/><path class="cls-6" d="M58.18,77.59h0a1.47,1.47,0,0,0-2-.43l-2.64,1.73A11.51,11.51,0,0,1,57.25,80l.51-.33A1.47,1.47,0,0,0,58.18,77.59Z"/><circle class="cls-8" cx="66.49" cy="74.38" r="6.61"/><rect class="cls-8" x="33.51" y="67.77" width="33.88" height="13.22"/><circle class="cls-9" cx="33.51" cy="74.38" r="6.61"/><circle class="cls-10" cx="33.25" cy="74.38" r="5.69"/><circle class="cls-8" cx="33.25" cy="74.38" r="4.52"/><circle class="cls-10" cx="33.25" cy="74.38" r="3.51"/><circle class="cls-8" cx="33.25" cy="74.38" r="2.13"/><circle class="cls-10" cx="33.25" cy="74.38" r="0.73"/><rect class="cls-9" x="46.15" y="71.59" width="5.35" height="1.89" rx="0.43" ry="0.43" transform="translate(121.36 23.71) rotate(90)"/><rect class="cls-9" x="55.91" y="71.48" width="1.89" height="7.94" rx="0.94" ry="0.94"/><path class="cls-9" d="M43.4,77.86a1,1,0,0,0-.94.94V81h1.89V78.8A1,1,0,0,0,43.4,77.86Z"/><path class="cls-9" d="M40.43,71.3a.95.95,0,0,0,1.89,0V67.83s0,0,0-.06H40.44s0,0,0,.06Z"/><rect class="cls-8" x="43.08" y="65.61" width="1.7" height="4.71" rx="0.38" ry="0.38"/><rect class="cls-8" x="52.98" y="76.84" width="2.15" height="5.94" rx="0.48" ry="0.48"/><path class="cls-11" d="M35.61,67.77H67.38s.16,8.92-18.23,10.31C49.15,78.08,34.84,74.61,35.61,67.77Z"/><path class="cls-12" d="M35.61,67.77H66.87s.15,7.4-17.94,8.76C48.93,76.53,34.85,74.5,35.61,67.77Z"/><path class="cls-13" d="M64,32.4S67,41,44,46.74l12,7.55.83.52C71,47.19,64,32.4,64,32.4Z"/><circle class="cls-5" cx="36.89" cy="44.5" r="2.61"/><path class="cls-14" d="M33.27,52.45c1,2.28,7.09,1.82,13.65-1a23,23,0,0,0,10.17-9C39.53,41.7,40.25,36,40.25,36S32.29,50.18,33.27,52.45Z"/><path class="cls-15" d="M38.57,34.09a1.9,1.9,0,1,1-3.79,0c0-1.05,1.9-3.83,1.9-3.83S38.57,33,38.57,34.09Z"/><path class="cls-15" d="M34.78,48.77a1.07,1.07,0,0,1-2.14,0,7.33,7.33,0,0,1,1.07-2.17A7.33,7.33,0,0,1,34.78,48.77Z"/><path class="cls-14" d="M70.38,46.09a3,3,0,1,1-6,0c0-1.65,3-6,3-6S70.38,44.44,70.38,46.09Z"/><circle class="cls-5" cx="41.18" cy="43.35" r="2.61"/><circle class="cls-5" cx="36.08" cy="45.69" r="1.42"/><circle class="cls-5" cx="43.41" cy="40.55" r="1.74"/><circle class="cls-5" cx="47.58" cy="37.47" r="3.27"/><circle class="cls-5" cx="49.09" cy="34.41" r="0.97"/><circle class="cls-5" cx="46.63" cy="32.11" r="1.49"/><circle class="cls-5" cx="60.16" cy="36.69" r="1.49"/><circle class="cls-5" cx="41.29" cy="29.51" r="0.47"/><circle class="cls-5" cx="62.79" cy="33.12" r="0.47"/><circle class="cls-5" cx="59.69" cy="35.03" r="0.47"/><circle class="cls-5" cx="41.12" cy="37.37" r="0.95"/><circle class="cls-5" cx="44.31" cy="33.85" r="0.66"/><path class="cls-14" d="M59,31.58a1.37,1.37,0,1,1-2.73,0,9.22,9.22,0,0,1,1.37-2.75A9.25,9.25,0,0,1,59,31.58Z"/><path class="cls-13" d="M57.37,45.48s7.17,5.67-9.31,22.78H63.25C71.18,54.28,57.37,45.48,57.37,45.48Z"/><path class="cls-15" d="M43.19,41.28C49.26,34.11,48,25.05,48,25.05s21.5,20.45,21.5,30.82a18.77,18.77,0,0,1-37.53,0C31.94,47.45,38.09,47.32,43.19,41.28Z"/><path class="cls-13" d="M59.5,69.1a8.9,8.9,0,0,0,.61-1.81c.14-.53.24-1.05.33-1.56a26.33,26.33,0,0,0,.34-3,24.65,24.65,0,0,0-.36-5.79,21.18,21.18,0,0,0-1.61-5.24,21.74,21.74,0,0,0-2.66-4.39,18.17,18.17,0,0,1-2.37,8.81,16.86,16.86,0,0,1-2.48,3.3,15.7,15.7,0,0,1-1.43,1.3,7.75,7.75,0,0,1-.74.52c-.21.12-.55.38-.59.19a6.69,6.69,0,0,0,11,7.69Z"/><path class="cls-16" d="M57.35,71.31a26.22,26.22,0,0,0,1.35-3.79,25,25,0,0,0,.76-3.83,12.39,12.39,0,0,0-1.07-7.45,11.16,11.16,0,0,1-1.54,6.67A21.28,21.28,0,0,1,55,65.75a20.48,20.48,0,0,1-2.15,2.47,2.8,2.8,0,1,0,3.8,4.1,2.65,2.65,0,0,0,.63-.87Z"/><path class="cls-13" d="M50.7,62.88a3.47,3.47,0,1,1-6.94,0c0-1.92,3.47-7,3.47-7S50.7,61,50.7,62.88Z"/><path class="cls-13" d="M41.21,56.49a1.74,1.74,0,0,1-3.47,0c0-1,1.73-3.51,1.73-3.51S41.21,55.53,41.21,56.49Z"/><circle class="cls-8" cx="40.45" cy="72.43" r="5.2"/><rect class="cls-8" x="39.63" y="70.91" width="17.4" height="10.39" transform="translate(59.97 165.51) rotate(-155)"/><circle class="cls-9" cx="56.22" cy="79.79" r="5.2"/><circle class="cls-10" cx="56.4" cy="79.87" r="4.47"/><circle class="cls-8" cx="56.4" cy="79.87" r="3.55"/><circle class="cls-10" cx="56.4" cy="79.87" r="2.76"/><circle class="cls-8" cx="56.4" cy="79.87" r="1.68"/><circle class="cls-10" cx="56.4" cy="79.87" r="0.57"/><rect class="cls-9" x="42.59" y="75.27" width="4.21" height="1.48" rx="0.33" ry="0.33" transform="translate(-43.08 84.39) rotate(-65)"/><rect class="cls-9" x="36.83" y="70.53" width="6.24" height="1.48" rx="0.74" ry="0.74" transform="translate(-41.53 77.35) rotate(-65)"/><path class="cls-9" d="M50.33,74a.74.74,0,0,0,1-.36L52,72.1l-1.35-.62L50,73A.75.75,0,0,0,50.33,74Z"/><path class="cls-9" d="M50.27,79.68a.74.74,0,1,0-1.35-.63l-1.15,2.47a.11.11,0,0,0,0,0l1.32.62s0,0,0,0Z"/><rect class="cls-8" x="46" y="79.04" width="1.34" height="3.7" rx="0.3" ry="0.3" transform="translate(54.77 173.93) rotate(-155)"/><rect class="cls-8" x="42.54" y="66.76" width="1.69" height="4.67" rx="0.38" ry="0.38" transform="translate(53.51 150.05) rotate(-155)"/></svg>