<svg id="Layer_1" data-name="Layer 1" xmlns="http://www.w3.org/2000/svg" viewBox="0 0 100 100"><defs><style>.cls-1{fill:#757575;}.cls-2{fill:#9c9c9c;}.cls-3{fill:#3e3e3f;}</style></defs><title>sundial</title><path class="cls-1" d="M99.92,76.21h0V63.78H72.62A152.65,152.65,0,0,0,50,62.17a152.65,152.65,0,0,0-22.62,1.61H0V76.21H.08A4.67,4.67,0,0,0,0,77c0,8.23,22.39,14.88,50,14.88S100,85.27,100,77A4.67,4.67,0,0,0,99.92,76.21Z"/><ellipse class="cls-2" cx="50" cy="63.78" rx="50" ry="14.88"/><polyline class="cls-3" points="39.97 60.63 60.03 60.63 60.03 8.08"/><polyline class="cls-1" points="60.03 60.63 77.46 76.21 39.97 60.63"/></svg>