<svg id="Layer_1" data-name="Layer 1" xmlns="http://www.w3.org/2000/svg" viewBox="0 0 100 100"><defs><style>.cls-1{fill:#6ab8d9;}.cls-2{fill:#09a582;}.cls-3{fill:#ffc640;}.cls-4{fill:#f37d3b;}.cls-5{fill:#f05c38;}</style></defs><title>double rainbow</title><path class="cls-1" d="M63.2,75c0-17.6-26.4-17.6-26.4,0h-4c0-22.46,34.36-22.16,34.36,0Z"/><path class="cls-2" d="M66.18,75c0-21.58-32.36-21.58-32.36,0h-4c0-26.79,40.34-26.62,40.34,0Z"/><path class="cls-3" d="M69.17,75c0-25.56-38.34-25.56-38.34,0h-4c0-30.58,46.32-30.46,46.32,0Z"/><path class="cls-4" d="M72.16,75c0-29.54-44.32-29.54-44.32,0h-4c0-35,52.28-34.94,52.28,0Z"/><path class="cls-5" d="M75.14,75c0-33.52-50.28-33.52-50.28,0h-3c0-37.51,56.26-37.51,56.26,0Z"/><path class="cls-1" d="M85.07,75c0-46.76-70.14-46.76-70.14,0H11c0-52.59,78.1-52.59,78.1,0Z"/><path class="cls-2" d="M88.05,75c0-50.74-76.1-50.74-76.1,0H8C8,18.17,92,18.67,92,75Z"/><path class="cls-3" d="M91,75C91,20.28,9,20.28,9,75H5C5,13.67,95,14.71,95,75Z"/><path class="cls-4" d="M94,75C94,16.3,6,16.3,6,75H2C2,9.42,98,11.25,98,75Z"/><path class="cls-5" d="M97,75C97,12.32,3,12.32,3,75H0C0,8.33,100,8.33,100,75Z"/></svg>