<svg id="Layer_1" data-name="Layer 1" xmlns="http://www.w3.org/2000/svg" viewBox="0 0 100 100"><defs><style>.cls-1{fill:#7d7d7d;}.cls-2{fill:#9c9c9c;}.cls-3{fill:#895e59;}</style></defs><title>scythe</title><path class="cls-1" d="M92.05,48.52c-1.36-2.53-2.75-4.9-4.16-7.07-1.06-1.63-2.12-3.2-3.19-4.64-.42-.58-.85-1.14-1.27-1.69C74.33,23.4,66,18.79,66,18.79l-3.4,6.88s-3.16,3.79,1,9.45A20.36,20.36,0,0,0,65,36.81a31.24,31.24,0,0,0,5.75,4.64,58.22,58.22,0,0,0,6.16,3.47,41.18,41.18,0,0,1,5.87,3.6C93.83,56.6,100.45,69,100.45,69A110.63,110.63,0,0,0,92.05,48.52Z"/><path class="cls-2" d="M87.89,41.45H70.77a58.22,58.22,0,0,0,6.16,3.47,41.18,41.18,0,0,1,5.87,3.6h9.25C90.69,46,89.3,43.62,87.89,41.45Z"/><path class="cls-2" d="M83.43,35.12H63.58A20.36,20.36,0,0,0,65,36.81H84.7C84.28,36.23,83.85,35.67,83.43,35.12Z"/><rect class="cls-3" x="30.56" y="3.16" width="8.49" height="93.68" rx="2.1" ry="2.1" transform="translate(45.55 -9.96) rotate(45)"/><rect class="cls-3" x="26.02" y="56.8" width="21.76" height="6.97" rx="1.72" ry="1.72" transform="translate(53.44 -8.43) rotate(45)"/></svg>