<svg id="Layer_1" data-name="Layer 1" xmlns="http://www.w3.org/2000/svg" viewBox="0 0 100 100"><defs><style>.cls-1{fill:#4e4f51;}.cls-2{fill:#58595b;}.cls-3{fill:#4a4a4c;}</style></defs><title>gravestone</title><path class="cls-1" d="M88.09,35.85A36,36,0,0,0,52.24,0H47.76A36,36,0,0,0,11.91,35.85V89.63H88.09Z"/><path class="cls-2" d="M88.09,46.22A36,36,0,0,0,52.24,10.37H47.76A36,36,0,0,0,11.91,46.22V100H88.09Z"/><rect class="cls-3" x="43.97" y="23.16" width="12.07" height="31.25" rx="1.88" ry="1.88" transform="translate(88.78 -11.22) rotate(90)"/><rect class="cls-3" x="26.84" y="63.9" width="46.93" height="5.1" rx="0.79" ry="0.79"/><rect class="cls-3" x="39.42" y="71.33" width="21.95" height="3.2" rx="0.5" ry="0.5"/><rect class="cls-3" x="33.91" y="75.56" width="32.18" height="3.2" rx="0.5" ry="0.5"/><circle class="cls-3" cx="22.17" cy="87.61" r="1.33"/><circle class="cls-3" cx="26.92" cy="95.45" r="1.33"/><circle class="cls-3" cx="48.32" cy="95.45" r="1.33"/><circle class="cls-3" cx="69.71" cy="95.45" r="1.33"/><circle class="cls-3" cx="32.6" cy="87.61" r="1.33"/><circle class="cls-3" cx="53.47" cy="87.61" r="1.33"/><circle class="cls-3" cx="42.43" cy="87.61" r="1.33"/><circle class="cls-3" cx="63.9" cy="87.61" r="1.33"/><circle class="cls-3" cx="74.34" cy="87.61" r="1.33"/></svg>