<svg id="Layer_1" data-name="Layer 1" xmlns="http://www.w3.org/2000/svg" viewBox="0 0 100 100"><defs><style>.cls-1{fill:#f48d80;}.cls-2{fill:#ffc640;}.cls-3{fill:#383638;}.cls-4{fill:#f8b5a8;}.cls-5{fill:#3e3e3f;}</style></defs><title>twilight</title><path class="cls-1" d="M94.54,40.63A16.86,16.86,0,1,1,77.69,23.77,16.86,16.86,0,0,1,94.54,40.63"/><path class="cls-1" d="M98.25,37A23.14,23.14,0,1,1,75.11,13.87,23.13,23.13,0,0,1,98.25,37"/><path class="cls-2" d="M87.58,39.67A12.51,12.51,0,1,1,75.07,27.16,12.51,12.51,0,0,1,87.58,39.67"/><path class="cls-3" d="M23.7,51.4,3,72.07A7.93,7.93,0,0,0,.28,76.23c0,.06,0,.12-.05.18s-.09.4-.12.6,0,.19,0,.28a5.48,5.48,0,0,0,0,.57c0,.07,0,.15,0,.22H0v0H0v.11a7.89,7.89,0,0,0,7.87,7.87H63.42l.28,0c.17,0,.33,0,.49,0l.26,0,.56-.1.14,0a7.86,7.86,0,0,0,3.94-2.33h0l0,0,14.2-14.19L97.54,55.13v-.06a7.77,7.77,0,0,0,2-3.21v0a6.09,6.09,0,0,0,.17-.61l0-.17c0-.17.06-.34.08-.51a2.93,2.93,0,0,0,0-.29c0-.15,0-.3,0-.45s0-.21,0-.31h0v-.05h0v-.16h0v0h0c0-.08,0-.16,0-.24a5.11,5.11,0,0,0,0-.55,2.51,2.51,0,0,0,0-.27,6.18,6.18,0,0,0-.12-.62c0-.05,0-.1,0-.16A7.9,7.9,0,0,0,97,43.22h0Z"/><path class="cls-3" d="M79,51.66A1.66,1.66,0,0,0,77.32,50h-.58a1.67,1.67,0,0,0-1.67,1.67V57.6H79V51.66"/><path class="cls-2" d="M79,30.13v3.29a.44.44,0,0,1-.43.44H68.27a.44.44,0,0,1-.43-.44V30.13a.44.44,0,0,1,.43-.44H78.55a.44.44,0,0,1,.43.44"/><path class="cls-3" d="M51.21,50.27a3.34,3.34,0,0,0-3.34-3.34H46.72a3.33,3.33,0,0,0-3.33,3.34V62.16h7.82V50.27"/><path class="cls-1" d="M63.37,86.13h0m.05,0h0M0,78.19v0m0,0H0m0-.06H0M100,49.49h0m0-.06h0m0-.12v0m0-.05h0m0,0h0"/><polyline class="cls-1" points="97 43.21 97 43.21 97.01 43.21 97 43.21 97 43.21 97.01 43.21 97 43.21"/><path class="cls-1" d="M29.84,28.21h0"/><path class="cls-4" d="M78.55,29.69H68.27a.44.44,0,0,0-.43.44v3.29a.44.44,0,0,0,.43.44H78.55a.44.44,0,0,0,.43-.44V30.13a.44.44,0,0,0-.43-.44"/><path class="cls-5" d="M83.82,56.4,96.43,43.78l.55-.54,0,0h-.06l0,0a8.48,8.48,0,0,0-.94-.62l-.21-.11a6.35,6.35,0,0,0-.92-.42c-.18-.07-.37-.12-.56-.18a5.86,5.86,0,0,0-.72-.19,7.46,7.46,0,0,0-1.43-.15H81.05V27.15H79.83c-.21-1.13-3-2-6.4-2h0l-.86,0h-.06c-3,.14-5.33,1-5.52,2H65.74v1.23H57.05v3.49H53V22.59H29.84v5.62H23.7V51.4h0l-2.51,2.51-2.51,2.51-.08.08-.06.06.16-.16H29.84v3H15.72L3.05,72.05a7.81,7.81,0,0,1,4.82-1.66H63.31a7.83,7.83,0,0,1,4.84,1.68L80.83,59.39H53v-3ZM51.21,62.16H43.39V50.27a3.33,3.33,0,0,1,3.33-3.34h1.15a3.34,3.34,0,0,1,3.34,3.34ZM79,40.19a.44.44,0,0,1-.43.44H68.27a.44.44,0,0,1-.43-.44V36.9a.43.43,0,0,1,.43-.43H78.55a.43.43,0,0,1,.43.43Z"/><path class="cls-4" d="M78.55,43.24H68.27a.44.44,0,0,0-.43.44V47a.44.44,0,0,0,.43.44H78.55A.44.44,0,0,0,79,47V43.68a.44.44,0,0,0-.43-.44"/><path class="cls-4" d="M73,50H68.27a.43.43,0,0,0-.43.44v3.28a.44.44,0,0,0,.43.44H73a.44.44,0,0,0,.44-.44V50.46A.44.44,0,0,0,73,50"/><path class="cls-4" d="M63.93,39.09H60.19a.43.43,0,0,0-.44.43v3.75a.44.44,0,0,0,.44.44h3.74a.44.44,0,0,0,.44-.44V39.52a.44.44,0,0,0-.44-.43"/><path class="cls-4" d="M63.93,30.57H60.19a.44.44,0,0,0-.44.44v3.21h4.62V31a.44.44,0,0,0-.44-.44"/><path class="cls-4" d="M49.82,25.47h-6a.44.44,0,0,0-.44.44v6a.44.44,0,0,0,.44.44h6a.44.44,0,0,0,.44-.44v-6a.44.44,0,0,0-.44-.44"/><path class="cls-2" d="M39,25.47H33a.44.44,0,0,0-.44.44v6a.44.44,0,0,0,.44.44h6a.44.44,0,0,0,.44-.44v-6a.44.44,0,0,0-.44-.44"/><path class="cls-4" d="M39,36.23H33a.44.44,0,0,0-.44.44v6a.43.43,0,0,0,.44.43h6a.43.43,0,0,0,.44-.43v-6a.44.44,0,0,0-.44-.44"/><path class="cls-4" d="M49.82,36.23h-6a.44.44,0,0,0-.44.44v6a.44.44,0,0,0,.44.43h6a.43.43,0,0,0,.44-.43v-6a.44.44,0,0,0-.44-.44"/><path class="cls-2" d="M39,47H33a.44.44,0,0,0-.44.44v6a.43.43,0,0,0,.44.44h6a.43.43,0,0,0,.44-.44v-6A.44.44,0,0,0,39,47"/><path class="cls-4" d="M29.84,30H26.43a.44.44,0,0,0-.44.44v3.62a.44.44,0,0,0,.44.44h3.41V30"/><path class="cls-2" d="M29.84,37.45H26.43a.44.44,0,0,0-.44.44v3.62a.44.44,0,0,0,.44.44h3.41v-4.5"/><path class="cls-2" d="M29.84,44.92H26.43a.44.44,0,0,0-.44.44V49a.44.44,0,0,0,.44.44h3.41v-4.5"/></svg>