<svg id="Layer_1" data-name="Layer 1" xmlns="http://www.w3.org/2000/svg" viewBox="0 0 100 100"><defs><style>.cls-1{fill:#00604a;}.cls-2{fill:#09a582;}.cls-3{fill:#895e59;}.cls-4{fill:#58595b;}</style></defs><title>water pipe</title><path class="cls-1" d="M89,60.47c-2.58,0-6.29-1.58-9.74-8.81-2-4.11-4.38-6.44-7.2-6.92-4.47-.77-8.67,3.37-8.71,3.41l-1.48-1.47c.2-.19,5-4.93,10.53-4,3.53.59,6.46,3.31,8.74,8.08,2.7,5.66,5.89,8.31,9,7.47,2.48-.67,4.08-3.38,4-4.89l2.07-.17c.21,2.58-2.09,6.15-5.49,7.07A6.22,6.22,0,0,1,89,60.47Z"/><path class="cls-2" d="M63.29,48.15l-1.47-1.47s.31-.3.85-.75L64,47.53C63.56,47.89,63.31,48.14,63.29,48.15Z"/><path class="cls-2" d="M89.44,60.45l-.16-2.07A4.24,4.24,0,0,0,90.84,58l.89,1.89A6.72,6.72,0,0,1,89.44,60.45Zm-2.36-.26a7.89,7.89,0,0,1-2.08-1l1.15-1.73a5.77,5.77,0,0,0,1.53.73Zm6.56-1.66L92.22,57a5.82,5.82,0,0,0,1.09-1.33l1.77,1.08A8,8,0,0,1,93.64,58.53ZM83.3,57.8a17.62,17.62,0,0,1-1.41-1.62l1.66-1.26a12.37,12.37,0,0,0,1.22,1.4Zm-2.6-3.36c-.34-.56-.68-1.16-1-1.82l1.85-.95c.32.6.63,1.16,1,1.68Zm-1.91-3.61c-.31-.59-.63-1.14-1-1.64l1.75-1.14c.35.55.71,1.16,1,1.82Zm-2.07-3.15a10.48,10.48,0,0,0-1.29-1.29l1.34-1.59a12.44,12.44,0,0,1,1.54,1.54ZM65.51,46.43l-1.12-1.75a14.57,14.57,0,0,1,1.88-1l.87,1.88A13.71,13.71,0,0,0,65.51,46.43Zm8.45-1a6.36,6.36,0,0,0-1.62-.6l.45-2a8.73,8.73,0,0,1,2.12.78Zm-5.1-.48-.53-2a10.65,10.65,0,0,1,2.2-.33l.08,2.08A7.75,7.75,0,0,0,68.86,44.92Z"/><path class="cls-2" d="M96,54.5l-2-.41a2.8,2.8,0,0,0,.06-.74l2.07-.17A5,5,0,0,1,96,54.5Z"/><rect class="cls-3" x="55.1" y="48.11" width="9.48" height="4.07" rx="0.98" ry="0.98" transform="translate(-17.93 57) rotate(-45)"/><rect class="cls-4" x="42.38" width="15.25" height="17.16" rx="3.67" ry="3.67"/><path class="cls-2" d="M42.58,73.29H57.35c3.58,0,6.48,13.93,6.48,17.51h0a6.48,6.48,0,0,1-6.48,6.48H42.58A6.48,6.48,0,0,1,36.1,90.8h0C36.1,87.22,39,73.29,42.58,73.29Z"/><rect class="cls-2" x="36.1" y="87.87" width="27.73" height="11.22" rx="2.7" ry="2.7" transform="translate(99.93 186.96) rotate(180)"/><rect class="cls-2" x="37.16" y="51.22" width="26.21" height="8.93" rx="2.15" ry="2.15"/><rect class="cls-2" x="40.56" y="58.72" width="18.89" height="16.51"/><rect class="cls-2" x="44.84" y="34.96" width="10.33" height="23.75" rx="2.48" ry="2.48"/><rect class="cls-2" x="44.84" y="8.32" width="10.33" height="33.72" rx="2.48" ry="2.48"/><rect class="cls-2" x="40.16" y="36.5" width="19.68" height="9.8" rx="2.36" ry="2.36"/><rect class="cls-2" x="40.16" y="6.37" width="19.68" height="9.8" rx="2.36" ry="2.36"/><path class="cls-2" d="M63.77,21.46A2.93,2.93,0,0,0,61,19.56H39a2.92,2.92,0,0,0-1.92,5.13l11,9.56a2.94,2.94,0,0,0,3.83,0l11-9.56A2.92,2.92,0,0,0,63.77,21.46Z"/><path class="cls-1" d="M43.93,77.11H56.09c2.94,0,5.33,11.46,5.33,14.41h0a5.33,5.33,0,0,1-5.33,5.33H43.93a5.34,5.34,0,0,1-5.34-5.33h0C38.59,88.57,41,77.11,43.93,77.11Z"/><rect class="cls-3" x="33.6" y="95.94" width="32.44" height="4.06" rx="0.98" ry="0.98"/><rect class="cls-1" x="43.51" y="65.09" width="12.87" height="12.01"/><rect class="cls-3" x="92.53" y="48.33" width="5.07" height="6.96" rx="0.97" ry="0.97"/></svg>