<svg id="Layer_1" data-name="Layer 1" xmlns="http://www.w3.org/2000/svg" viewBox="0 0 100 100"><defs><style>.cls-1{fill:#706361;}.cls-2{fill:#786a68;}.cls-3{fill:#90807d;}.cls-4{fill:#9c8a86;}</style></defs><title>dust</title><path class="cls-1" d="M9.66,56.73s33.27-16.47,33-29.06c0,0,9.81,20.57,39.23,31.85Z"/><path class="cls-2" d="M14.66,54s9.57-6,33.56-1.38c0,0,20.39,4.4,30.29,1,0,0,2.41,5.85,19.87,10.44"/><path class="cls-3" d="M19,59.23s1.13,0,3.17-.23a63.43,63.43,0,0,0,8.31-1.29A30,30,0,0,0,35.73,56c1.7-.77,3.55-1.86,4.17-3.45s-.35-3.62-1.75-5.23L37,46c-.39-.42-.81-.72-1.21-1.1A7.39,7.39,0,0,0,33,43.41a3,3,0,0,0-2.66.64,4.11,4.11,0,0,0-1.26,2.69,3.75,3.75,0,0,0,.72,2.84,3.83,3.83,0,0,0,2.64,1.2,20.06,20.06,0,0,0,6.21-.55,32.83,32.83,0,0,0,5.42-1.73c3.25-1.36,5.77-3.08,6.91-4.8a3.69,3.69,0,0,0,.7-2.24,4.66,4.66,0,0,0-.15-.83,4.47,4.47,0,0,1,.18.83,3.74,3.74,0,0,1-.61,2.31c-1.11,1.81-3.6,3.66-6.84,5.17a32.63,32.63,0,0,1-5.44,2,20.82,20.82,0,0,1-6.49.83A4.89,4.89,0,0,1,29,50.3a5,5,0,0,1-1.12-3.66A5.42,5.42,0,0,1,29.42,43a4.55,4.55,0,0,1,3.92-1.14c2.63.61,4.69,2.56,6.15,4.23a10.47,10.47,0,0,1,2.12,3.14,5.48,5.48,0,0,1,.27,4,6.86,6.86,0,0,1-2.27,3.09,15.47,15.47,0,0,1-2.88,1.81,32,32,0,0,1-5.61,2,66.75,66.75,0,0,1-8.61,1.7c-2.09.29-3.33.38-3.33.38Z"/><path class="cls-2" d="M32.78,64.72S66,52.34,63.94,44.28c0,0,12.73,17.68,28.08,20.86"/><path class="cls-2" d="M10.76,58.11s45.52-4.39,43.1-9.54c0,0,16.47,12.08,37.11,15.51"/><path class="cls-3" d="M60.48,54S83.94,62.35,100,63.68L77.1,67.12l-21.64-1.2"/><path class="cls-3" d="M10.72,51.79S30.8,60.85,48.58,50V68.75L15.36,64.29Z"/><path class="cls-4" d="M60.45,53.2c-.44,0-.87.06-1.31.06A18.58,18.58,0,0,1,48.58,50a23.15,23.15,0,0,1-37.86,1.8C8.31,57.28,7,61.46,7,62.8c0,3.29,8.16,6.19,20.56,7.9,2.48.34,5.14.64,7.92.88,1.4.12,2.83.22,4.29.32,4.38.28,9,.43,13.87.43h0c12.87,0,24.53-1.07,33-2.8a53.44,53.44,0,0,0,8-2.19,17.91,17.91,0,0,0,3.53-1.71A5,5,0,0,0,100,63.68c-.85,0-1.7,0-2.57,0C80.43,63.73,66,59.34,60.45,53.2Z"/><circle class="cls-4" cx="16.14" cy="52.13" r="0.8"/><circle class="cls-4" cx="20.21" cy="49.13" r="0.44"/><circle class="cls-4" cx="24.56" cy="60.92" r="2.85"/><circle class="cls-4" cx="26.19" cy="47.95" r="0.34"/><circle class="cls-4" cx="34.39" cy="37.33" r="0.66"/><circle class="cls-4" cx="45.13" cy="39.97" r="0.66"/><circle class="cls-4" cx="66.73" cy="57.41" r="0.66"/><circle class="cls-4" cx="29.65" cy="55.34" r="1.7"/><circle class="cls-4" cx="34.1" cy="42.33" r="1.32"/><circle class="cls-4" cx="90.98" cy="58.07" r="1.32"/><circle class="cls-4" cx="80.96" cy="53.73" r="1.6"/><circle class="cls-4" cx="54.04" cy="42.33" r="0.57"/><circle class="cls-4" cx="58.29" cy="37.99" r="0.21"/><circle class="cls-4" cx="89.32" cy="47.95" r="0.34"/><circle class="cls-4" cx="87.59" cy="59.47" r="0.1"/><circle class="cls-3" cx="39.12" cy="43.15" r="0.45"/><circle class="cls-3" cx="44.24" cy="47.42" r="0.19"/><circle class="cls-3" cx="49.81" cy="38.72" r="0.52"/><circle class="cls-3" cx="48.22" cy="34.48" r="0.59"/><circle class="cls-3" cx="44.69" cy="36.27" r="0.21"/><circle class="cls-3" cx="51.38" cy="35.75" r="0.07"/><circle class="cls-3" cx="49.71" cy="35.85" r="0.1"/><circle class="cls-4" cx="63.75" cy="43.53" r="0.66"/><circle class="cls-4" cx="74.13" cy="39.67" r="0.66"/><circle class="cls-4" cx="83.9" cy="30.64" r="0.21"/><circle class="cls-3" cx="77.3" cy="36.02" r="0.52"/><circle class="cls-3" cx="73.6" cy="33.39" r="0.59"/><circle class="cls-3" cx="71.68" cy="36.86" r="0.21"/><circle class="cls-3" cx="76.92" cy="32.67" r="0.07"/><circle class="cls-3" cx="75.6" cy="33.69" r="0.1"/><circle class="cls-4" cx="76.66" cy="51.62" r="0.66"/><circle class="cls-4" cx="65.63" cy="53.98" r="1.32"/><circle class="cls-4" cx="89.81" cy="49.64" r="0.21"/><circle class="cls-3" cx="81.33" cy="50.38" r="0.52"/><circle class="cls-3" cx="79.75" cy="46.13" r="0.59"/><circle class="cls-3" cx="76.21" cy="47.92" r="0.21"/><circle class="cls-3" cx="82.91" cy="47.4" r="0.07"/><circle class="cls-3" cx="81.24" cy="47.5" r="0.1"/><circle class="cls-3" cx="50.99" cy="46.25" r="0.39"/><circle class="cls-3" cx="45.22" cy="49.9" r="0.08"/><circle class="cls-3" cx="31.35" cy="49.34" r="0.22"/><circle class="cls-3" cx="26.62" cy="51.12" r="0.43"/><circle class="cls-3" cx="27.44" cy="43.99" r="0.4"/><circle class="cls-3" cx="37" cy="49.77" r="0.21"/><path class="cls-4" d="M62.76,57.34l.07-.08a3.08,3.08,0,0,1,.32-.39,7.11,7.11,0,0,1,1.06-.95A9.29,9.29,0,0,1,66,54.87a12,12,0,0,1,2.41-.76,15.12,15.12,0,0,1,2.82-.23,21,21,0,0,1,3,.34,24.75,24.75,0,0,1,3,.83,31.71,31.71,0,0,1,3,1.17,42.34,42.34,0,0,1,5.36,2.88A11.16,11.16,0,0,1,87.7,61a4.73,4.73,0,0,0,1.8,1.36,27.29,27.29,0,0,0,3.44,1.18l1.34.38-1.38-.18A27.88,27.88,0,0,1,89.25,63,5.64,5.64,0,0,1,87,61.75a9.92,9.92,0,0,0-2.17-1.42,41.05,41.05,0,0,0-5.47-2c-.91-.22-1.87-.54-2.8-.68a24.5,24.5,0,0,0-2.72-.36,17.65,17.65,0,0,0-2.45.08,10.61,10.61,0,0,0-2,.45,6.85,6.85,0,0,0-1.46.71,4.83,4.83,0,0,0-.89.71,3.29,3.29,0,0,0-.4.49c0,.06,0,0,0,0l0,.07Z"/><path class="cls-4" d="M10.72,51.79s-6.9,9-10.72,9.37c0,0,9.57,6.41,19.09,8"/></svg>