<svg id="Layer_1" data-name="Layer 1" xmlns="http://www.w3.org/2000/svg" viewBox="0 0 100 100"><defs><style>.cls-1{fill:#f37d3b;}</style></defs><title>animal</title><path class="cls-1" d="M11.13,31.32c1.77,5.2.24,7-2.58,8S2.7,40,.93,34.8,0,24.6,2.81,23.64,9.35,26.12,11.13,31.32Z"/><path class="cls-1" d="M25.7,21.67c0,5.49-2.42,6.39-5.39,6.39s-5.39-.9-5.39-6.39,2.41-10,5.39-10S25.7,16.17,25.7,21.67Z"/><path class="cls-1" d="M43.77,31.17c-1.77,5.2-.49,7.47,2.33,8.43s6.1.25,7.87-5,.93-10.2-1.89-11.16S45.55,26,43.77,31.17Z"/><path class="cls-1" d="M29.72,21.67c0,5.49,2.41,6.39,5.39,6.39s5.39-.9,5.39-6.39-2.42-10-5.39-10S29.72,16.17,29.72,21.67Z"/><path class="cls-1" d="M22.91,9.77c0,.57-1.17,1-2.6,1s-2.6-.47-2.6-1,2.6-9.83,2.6-9.83S22.91,9.2,22.91,9.77Z"/><path class="cls-1" d="M37.7,9.77c0,.57-1.16,1-2.59,1s-2.6-.47-2.6-1,2.6-9.83,2.6-9.83S37.7,9.2,37.7,9.77Z"/><path class="cls-1" d="M6.77,21.82c0,.57-1.21,1-2.64.9s-2.57-.61-2.54-1.18,3.12-9.67,3.12-9.67S6.81,21.25,6.77,21.82Z"/><path class="cls-1" d="M47.52,21.67c0,.57,1.22,1,2.65.9s2.57-.61,2.54-1.18-3.13-9.67-3.13-9.67S47.49,21.1,47.52,21.67Z"/><path class="cls-1" d="M13,46a100.79,100.79,0,0,1,28.29,0c-6.31-4.09-11-7.1-14.15-10.15C24,38.9,19.27,41.91,13,46Z"/><path class="cls-1" d="M42.52,54.33c-11-5.4-16.27-5.63-28.85.2C7.33,57.55,5.76,50.71,6,49s2.23-4.19,4.65-5.84c6.26-4.26,11-7.32,14.06-10.3,1.64-1.54,3.23-1.55,4.87,0,3.08,3,7.8,6,14.06,10.3C46,44.79,48.09,47.26,48.25,49S45.52,54.89,42.52,54.33Z"/><path class="cls-1" d="M67.64,89.8a6.63,6.63,0,0,1-11-7.45c2.06-3,4.21.27,7.24,2.32S69.7,86.77,67.64,89.8Z"/><path class="cls-1" d="M84.06,95.62a6.63,6.63,0,1,1-12.51-4.39c1.21-3.45,4.13-.82,7.59.39S85.27,92.17,84.06,95.62Z"/><path class="cls-1" d="M73.32,74.6c-.51,3.63-6.18,3.82-9.21,1.77s-3-5.75-1.76-9.21c5.38-15.67,19.41-23.24,19.41-23.24S74.45,66.64,73.32,74.6Z"/><path class="cls-1" d="M79.6,77.73c-2.67,2.51.43,7.25,3.85,8.55s6.4-.89,8.55-3.85c9.73-13.42,7.85-29.25,7.85-29.25S85.47,72.23,79.6,77.73Z"/></svg>