<svg id="Layer_1" data-name="Layer 1" xmlns="http://www.w3.org/2000/svg" viewBox="0 0 100 100"><defs><style>.cls-1{fill:#09a582;}.cls-2{fill:#007f63;}.cls-3{fill:#ffc640;}.cls-4{fill:#007359;}.cls-5{fill:#f37d3b;}.cls-6{fill:#01876a;}</style></defs><title>snake</title><path class="cls-1" d="M15.69,75.7c1.37-1.29,2.77-2.45,4.14-3.69L24,68.53c2.75-2.32,5.52-4.52,8.26-6.67,6.29-2.1,12.41-4.59,18.38-7.16,3-1.3,5.9-2.66,8.68-4.11A57.19,57.19,0,0,0,66.87,46a13.68,13.68,0,0,0,2.28-2c.16-.18.2-.33,0,.15a4.24,4.24,0,0,0,.06,2.62,3.06,3.06,0,0,0,.28.63,1.51,1.51,0,0,0,.27.42c.07.16.31.31.24.29h0L69.86,48c-.06-.06-.28-.15-.44-.25a20.06,20.06,0,0,0-3.28-1.2c-.7-.17-1.34-.37-2.08-.52l-2.41-.55c-1.8-.4-3.6-.82-5.45-1.4a38.72,38.72,0,0,1-11.53-5.2,18.35,18.35,0,0,1-5.9-6.69,14.47,14.47,0,0,1-1.34-5.55,11,11,0,0,1,.18-2.77c.07-.45.15-.91.25-1.34l.38-1.16a19.37,19.37,0,0,1,2-4,27.89,27.89,0,0,1,2.32-2.94l1.21-1.28L44.94,12c.82-.77,1.64-1.35,2.46-2A69.55,69.55,0,0,1,67.91,0a61.15,61.15,0,0,1,11.5,1A39.17,39.17,0,0,1,90.18,4.38,77.93,77.93,0,0,0,72.59,14.93a54.48,54.48,0,0,0-15.8,7.58,18.5,18.5,0,0,0-2.67,2.36,11.73,11.73,0,0,0-.83,1c-.08.23-.3.5-.24.5a1.79,1.79,0,0,0-.17-1c-.1-.24.17.21.87.7a24.6,24.6,0,0,0,6.92,2.95c1.37.44,2.86.78,4.36,1.12l2.53.57c.91.19,1.89.47,2.83.71a35.11,35.11,0,0,1,6.19,2.36,18.39,18.39,0,0,1,1.75,1l.92.61,1,.8a14,14,0,0,1,2,2.1c.34.48.67,1,1,1.48A12.6,12.6,0,0,1,84,41.62a11.65,11.65,0,0,1,0,7.58,15,15,0,0,1-2.55,4.51,28,28,0,0,1-5.13,4.81,72,72,0,0,1-9.72,5.94c-3.21,1.67-6.42,3.16-9.63,4.57C50.49,71.87,44,74.24,37.59,76.72c-3.61.13-7.23.14-10.89,0l-5.47-.32C19.38,76.15,17.56,76,15.69,75.7Z"/><path class="cls-2" d="M45.78,69.44l-4.43-10.9-1.74.66c-1.39,2.4-2.81,4.81-4.27,7.2C38.78,67.47,42.25,68.49,45.78,69.44Z"/><path class="cls-2" d="M53.86,66l-2.73-6h0l-2.07-4.59c-.61.27-1.23.53-1.84.78-1.26,2.4-2.56,4.78-3.94,7.16C46.75,64.27,50.26,65.19,53.86,66Z"/><path class="cls-2" d="M51.13,60c3.5.84,7.06,1.59,10.77,2.14l-3.1-5.87h0L56.55,52c-.66.32-1.32.65-2,1-1.07,2.35-2.2,4.7-3.43,7Z"/><path class="cls-2" d="M58.8,56.22a57,57,0,0,0,11.14,1l-3.83-5.41-2.56-3.63c-.68.41-1.37.81-2.08,1.21a66.85,66.85,0,0,1-2.67,6.8Z"/><path class="cls-2" d="M69.48,47.36a1.51,1.51,0,0,0,.27.42c.06.14.21.24.22.27l0,0h0s0,0,0,0a.41.41,0,0,1-.11-.07c-.06-.06-.28-.15-.44-.25a18.85,18.85,0,0,0-2.89-1.08,3.74,3.74,0,0,1,.22.45,4.77,4.77,0,0,1,.18,1c0,.38-.09.79-.15,1.2a26.37,26.37,0,0,1-.67,2.57c.91,0,1.81,0,2.76,0,.48,0,1-.09,1.48-.17s1.12-.3,1.73-.49a13,13,0,0,0,6.53-4.88L69,45.48a3.66,3.66,0,0,0,.22,1.25A3.06,3.06,0,0,0,69.48,47.36Z"/><path class="cls-2" d="M67.63,43.41a4.74,4.74,0,0,1,4.28,2.32,6.05,6.05,0,0,0,2.34-5.38,11,11,0,0,0-3-6.57l-3.58,5.6h0l-3.62,5.67A4.2,4.2,0,0,1,67.63,43.41Z"/><path class="cls-2" d="M60.9,30.46l-2.73,13c3.12-1.58,6-3.21,9.52-4.06h0C66,36.19,63.33,33.23,60.9,30.46Z"/><path class="cls-2" d="M51.31,34.7,49.09,41a57.43,57.43,0,0,0,10.44-4,50.46,50.46,0,0,1-6-8.5L51.31,34.7Z"/><path class="cls-2" d="M51.31,34.7h0c-1.92-2.94-3.52-6.34-3.28-9l-4.24,5.1h0l-3.35,4c.37.47.73.94,1.11,1.35A24,24,0,0,0,51.31,34.7Z"/><path class="cls-2" d="M43.79,30.78h0a5.7,5.7,0,0,1,.43-4.53,3.11,3.11,0,0,1,1.45-1.15A2.84,2.84,0,0,1,47.31,25l-6.43-1.66h0l-3-.78c-.09.43-.17.87-.24,1.31a11,11,0,0,0-.18,2.77,10.84,10.84,0,0,0,.15,1.62c.17.16.31.36.49.5A9,9,0,0,0,43.79,30.78Z"/><path class="cls-2" d="M40.88,23.32h0c3-2,6.21-1.94,9.29-1.76l-4.33-5h0l-2.55-3-.77.82a25,25,0,0,0-2.2,2.78c0,.13,0,.26-.06.4A12.57,12.57,0,0,0,40.88,23.32Z"/><path class="cls-2" d="M45.84,16.53a39.59,39.59,0,0,1,10.26,1l-3.2-5.81-2.2-4c-.87.55-1.73,1.13-2.6,1.74a39.49,39.49,0,0,0-2.26,7Z"/><path class="cls-2" d="M63.06,14.36,58.78,3.46c-.7.31-1.39.63-2.09,1a63.09,63.09,0,0,0-3.79,7.34A59.05,59.05,0,0,1,63.06,14.36Z"/><path class="cls-2" d="M70.45,11.93,67.31.2,65.8.71a73.41,73.41,0,0,0-5.17,7.47A64.19,64.19,0,0,1,70.45,11.93Z"/><path class="cls-2" d="M78,10.38,76.63.51C75.51.36,74.38.26,73.24.18a69.7,69.7,0,0,0-4.51,5.34A55.92,55.92,0,0,1,78,10.38Z"/><path class="cls-2" d="M83.07,7.93c.79-.44,1.56-.91,2.38-1.33l.18-4.08A46.44,46.44,0,0,0,80,1.08c-1,.89-2,1.8-2.91,2.73A43.8,43.8,0,0,1,83.07,7.93Z"/><circle class="cls-3" cx="13.83" cy="74.61" r="4"/><circle class="cls-3" cx="53.02" cy="74.32" r="4"/><ellipse class="cls-1" cx="33.66" cy="76.03" rx="20.95" ry="15.74"/><ellipse class="cls-4" cx="29.06" cy="78.18" rx="1.28" ry="4.44"/><ellipse class="cls-4" cx="37.51" cy="78.18" rx="1.28" ry="4.44"/><rect class="cls-5" x="30.77" y="85.01" width="5.31" height="10.53"/><polyline class="cls-5" points="30.77 95.55 33.56 95.55 30.77 100"/><polyline class="cls-5" points="36.08 95.55 33.28 95.55 36.08 100"/><path class="cls-2" d="M33.42,86.07c-10,0-20.66-2.61-20.66-7.45a1.07,1.07,0,1,1,2.13,0c0,2.22,7.05,5.33,18.53,5.33S52,80.84,52,78.62a1.06,1.06,0,1,1,2.12,0C54.08,83.46,43.44,86.07,33.42,86.07Z"/><path class="cls-2" d="M41.58,61.46a27.37,27.37,0,0,0-16.19.11l8,7.13Z"/><circle class="cls-6" cx="20.52" cy="73.81" r="0.51"/><circle class="cls-6" cx="23.85" cy="78.18" r="0.87"/><circle class="cls-6" cx="44.09" cy="75.43" r="0.38"/><circle class="cls-6" cx="46.69" cy="68.37" r="0.19"/><circle class="cls-6" cx="41.05" cy="89.03" r="0.36"/><circle class="cls-6" cx="55.13" cy="65.72" r="0.27"/><circle class="cls-6" cx="72.41" cy="55.77" r="1.25"/><circle class="cls-6" cx="65.93" cy="61.14" r="0.46"/><circle class="cls-6" cx="55.94" cy="42.03" r="1.08"/><circle class="cls-6" cx="66.68" cy="32.36" r="0.56"/><circle class="cls-6" cx="59.43" cy="17.44" r="0.63"/><circle class="cls-6" cx="63.61" cy="10.66" r="0.56"/><circle class="cls-6" cx="69.08" cy="2.49" r="0.35"/></svg>