<svg id="Layer_1" data-name="Layer 1" xmlns="http://www.w3.org/2000/svg" viewBox="0 0 100 100"><defs><style>.cls-1{fill:#ffc640;}.cls-2{fill:#f37d3b;}.cls-3{fill:#fff;}.cls-4{fill:#09a582;}</style></defs><title>sickness</title><circle class="cls-1" cx="83.19" cy="62.34" r="4.39"/><circle class="cls-1" cx="89.41" cy="10.37" r="6.74"/><path class="cls-2" d="M50,22.16C50-4,0-8.27,0,32.7,0,60.16,50,91.12,50,91.12s50-31,50-58.42C100-8.27,50-4,50,22.16Z"/><circle class="cls-3" cx="11.71" cy="21.65" r="5.69"/><circle class="cls-3" cx="19.74" cy="29.48" r="3.43"/><path class="cls-4" d="M92,53.71c4.8-6.85,8-14,8-21C100,1.54,71.1-3.42,57.25,7.48a12.3,12.3,0,0,0,3.38,7.13,12.19,12.19,0,0,0-7.22,11.12,12,12,0,0,0,1.41,5.57c-.17,0-.33-.05-.51-.05A12.39,12.39,0,0,0,44.12,50.7,12.38,12.38,0,0,0,28.77,69.89a12.39,12.39,0,0,0-3.57,2.49A201.23,201.23,0,0,0,50,91.12s26.72-16.56,41.09-36.2c-.26-.33-.51-.67-.79-1C90.86,53.88,91.42,53.8,92,53.71Z"/><circle class="cls-4" cx="90.06" cy="54.14" r="3.82"/><circle class="cls-4" cx="79.37" cy="4.11" r="3.82"/><circle class="cls-4" cx="76.65" cy="72.27" r="6.54"/><circle class="cls-4" cx="61.91" cy="81.01" r="3.43"/><path class="cls-4" d="M55.33,94.37a5.33,5.33,0,1,1-10.66,0c0-2.94,5.33-14.21,5.33-14.21S55.33,91.43,55.33,94.37Z"/><path class="cls-4" d="M37.52,86.86a4.26,4.26,0,1,1-8.51,0c0-2.34,4.26-11.33,4.26-11.33S37.52,84.52,37.52,86.86Z"/><circle class="cls-1" cx="65.71" cy="59.4" r="7.33"/><circle class="cls-1" cx="40.58" cy="66.83" r="2.85"/><circle class="cls-1" cx="76.49" cy="22.13" r="5.03"/><circle class="cls-4" cx="67.81" cy="54.14" r="7.38"/></svg>