<svg id="Layer_1" data-name="Layer 1" xmlns="http://www.w3.org/2000/svg" viewBox="0 0 100 100"><defs><style>.cls-1{fill:#6ab8d9;}.cls-2{fill:#447d93;}.cls-3{fill:#ebf7fd;}.cls-4{fill:#f37d3b;}.cls-5{fill:#66addf;}.cls-6{fill:#3e3e3f;}</style></defs><title>cold</title><polygon class="cls-1" points="25.31 70.85 34.58 70.85 29.73 92.87 25.31 70.85"/><circle class="cls-1" cx="50" cy="44.27" r="40.11"/><circle class="cls-2" cx="50" cy="40.11" r="40.11"/><circle class="cls-3" cx="50" cy="36.54" r="32.99"/><path class="cls-3" d="M39.22,63A27.7,27.7,0,0,1,22.3,37.48"/><path class="cls-1" d="M38.11,65.63A30.49,30.49,0,0,1,19.45,37.48h5.7a24.82,24.82,0,0,0,15.18,22.9Z"/><path class="cls-3" d="M61.26,63A27.68,27.68,0,0,0,78.18,37.48"/><path class="cls-4" d="M62.38,65.63l-2.23-5.25a24.82,24.82,0,0,0,15.18-22.9H81A30.5,30.5,0,0,1,62.38,65.63Z"/><path class="cls-5" d="M29.94,25.68l5.27,3-3.87,1a1.66,1.66,0,1,0,.85,3.2L39,31.14a1.15,1.15,0,0,0,.23-.1l7.45,4.3h0l.05,0L39.5,39.56a1.63,1.63,0,0,0-.44-.21l-6.8-1.83a1.66,1.66,0,0,0-.86,3.21l4.16,1.11L30.11,45a1.66,1.66,0,0,0,1.66,2.87l5.27-3-1,3.88a1.65,1.65,0,0,0,2.43,1.86,1.63,1.63,0,0,0,.77-1L41,42.74a1,1,0,0,0,0-.24l7.43-4.29v8.3a1.48,1.48,0,0,0-.4.27l-5,5a1.65,1.65,0,0,0,0,2.34,1.67,1.67,0,0,0,2,.27,1.44,1.44,0,0,0,.34-.27l3-3v6.29A1.66,1.66,0,0,0,50.13,59a1.69,1.69,0,0,0,.83-.22,1.66,1.66,0,0,0,.83-1.44V51.26l2.84,2.84a1.62,1.62,0,0,0,2.34,0,1.65,1.65,0,0,0,0-2.34l-5-5a2.43,2.43,0,0,0-.2-.14V38.27L59,42.46a1,1,0,0,0,0,.24l1.82,6.8a1.65,1.65,0,0,0,2,1.17,1.4,1.4,0,0,0,.4-.16,1.67,1.67,0,0,0,.77-1.87l-1-3.87,5.27,3a1.64,1.64,0,0,0,1.66,0,1.7,1.7,0,0,0,.61-.61A1.66,1.66,0,0,0,70,44.94l-5.45-3.15,4.16-1.11a1.78,1.78,0,0,0,.4-.17,1.65,1.65,0,0,0-1.26-3L61,39.3a1.65,1.65,0,0,0-.44.22l-7.19-4.15,0,0h0l7.39-4.26c.07,0,.13.08.21.11L67.8,33a1.61,1.61,0,0,0,1.26-.17,1.6,1.6,0,0,0,.77-1,1.64,1.64,0,0,0-1.17-2l-3.87-1,5.27-3a1.66,1.66,0,0,0-1.66-2.87L63,26l1.11-4.16a1.66,1.66,0,1,0-3.2-.85L59,27.79a2,2,0,0,0,0,.49l-7.26,4.19V23.82c.06-.05.14-.1.2-.16l5-5a1.66,1.66,0,0,0-2.35-2.34l-2.83,2.84V13.09a1.66,1.66,0,0,0-3.32,0v6.29l-3-3a1.65,1.65,0,1,0-2.34,2.34l5,5a1.36,1.36,0,0,0,.4.29v8.58L41,28.24a1.72,1.72,0,0,0,0-.5l-1.83-6.8a1.65,1.65,0,1,0-3.19.86L37.05,26,31.6,22.81a1.66,1.66,0,0,0-1.66,2.87Z"/><polygon class="cls-6" points="54.27 38.09 49.1 32.83 27.7 59.01 54.27 38.09"/><polygon class="cls-1" points="39.77 81.02 49.04 81.02 44.18 100 39.77 81.02"/></svg>