<svg id="Layer_1" data-name="Layer 1" xmlns="http://www.w3.org/2000/svg" viewBox="0 0 100 100"><defs><style>.cls-1{fill:#fff;}</style></defs><title>snow</title><path class="cls-1" d="M7.84,30l11.08,6.39-8.15,2.19a3.48,3.48,0,1,0,1.8,6.72l14.3-3.83a3.58,3.58,0,0,0,.49-.2l15.66,9h.09l.09.05L27.93,59.13a3.31,3.31,0,0,0-.92-.46l-14.3-3.83a3.48,3.48,0,1,0-1.8,6.73l8.74,2.34L8.19,70.53a3.48,3.48,0,0,0,3.49,6l11.07-6.4-2.18,8.15A3.49,3.49,0,0,0,23,82.58a3.48,3.48,0,0,0,4.26-2.47l3.83-14.3a2.8,2.8,0,0,0,0-.5l15.63-9V73.73a3,3,0,0,0-.85.57L35.47,84.77a3.48,3.48,0,1,0,4.92,4.92l6.4-6.4V96.52a3.49,3.49,0,0,0,7,0V83.72l6,6a3.51,3.51,0,0,0,4.21.56,3.78,3.78,0,0,0,.72-.56,3.48,3.48,0,0,0,0-4.92L54.18,74.3a3.13,3.13,0,0,0-.42-.29V56.4L69,65.21a4.38,4.38,0,0,0,0,.51L72.87,80a3.48,3.48,0,0,0,6.73-1.8l-2.18-8.15L88.5,76.46a3.44,3.44,0,0,0,3.48,0,3.37,3.37,0,0,0,1.27-1.27A3.48,3.48,0,0,0,92,70.43L80.52,63.82l8.74-2.35a3.36,3.36,0,0,0,.85-.34,3.48,3.48,0,0,0-2.65-6.38l-14.3,3.83a3.28,3.28,0,0,0-.92.45l-15.1-8.72.1-.05h-.08l15.52-9a3.81,3.81,0,0,0,.45.23l14.3,3.83a3.48,3.48,0,0,0,4.26-2.46,3.48,3.48,0,0,0-2.46-4.27l-8.14-2.18L92.16,30a3.48,3.48,0,0,0-3.48-6L77.23,30.62l2.34-8.74a3.48,3.48,0,1,0-6.73-1.8L69,34.37a3.28,3.28,0,0,0-.07,1L53.67,44.22V26a3.39,3.39,0,0,0,.42-.33L64.56,15.24a3.48,3.48,0,0,0-4.92-4.93l-6,6V3.48a3.49,3.49,0,0,0-7,0V16.71l-6.39-6.4a3.49,3.49,0,1,0-4.93,4.93L45.85,25.7a3.51,3.51,0,0,0,.85.61v18l-15.61-9a3.74,3.74,0,0,0-.1-1L27.16,20a3.48,3.48,0,0,0-6.73,1.81l2.34,8.74L11.32,23.91a3.49,3.49,0,0,0-3.48,6Z"/></svg>