<svg id="Layer_1" data-name="Layer 1" xmlns="http://www.w3.org/2000/svg" xmlns:xlink="http://www.w3.org/1999/xlink" viewBox="0 0 100 100"><defs><style>.cls-1{fill:none;}.cls-2{clip-path:url(#clip-path);}.cls-3{fill:#58595b;}.cls-4{fill:#895e59;}.cls-5{fill:#f05c38;}.cls-6{fill:#b2e2f9;}.cls-7{fill:#3e545f;}.cls-8{fill:#6ab8d9;}.cls-9{fill:#d05030;}.cls-10{fill:#c5d1a3;}.cls-11{fill:#847a55;}.cls-12{fill:#dce3c8;}</style><clipPath id="clip-path"><path class="cls-1" d="M325.71-120H254.29A14.33,14.33,0,0,0,240-105.71v71.42A14.33,14.33,0,0,0,254.29-20h71.42A14.33,14.33,0,0,0,340-34.29v-71.42A14.33,14.33,0,0,0,325.71-120Z"/></clipPath></defs><title>seasickness</title><g class="cls-2"><path class="cls-3" d="M37,15.57c184-94.05,341-155.93,357.11-141.2l119.17-60.92c-67.42,1.13-262.4,76.19-483,189C-20.92,28.55-69.48,54.75-114.63,80.28H-84C-46.79,59.43-6.13,37.6,37,15.57Z"/><path class="cls-3" d="M537.7-179.09c-2.8-5.48-11.54-7.68-24.44-7.46L394.09-125.63c.38.34,1.09.51,1.31.95,9.5,18.58-132,109.91-317,205H180.07C398.5-38.07,553.16-148.85,537.7-179.09Z"/></g><path class="cls-4" d="M0,82.73H100a0,0,0,0,1,0,0v0A17.27,17.27,0,0,1,82.73,100H17.27A17.27,17.27,0,0,1,0,82.73v0a0,0,0,0,1,0,0Z"/><path class="cls-5" d="M17.17,0H82.83A17.17,17.17,0,0,1,100,17.17V82.73a0,0,0,0,1,0,0H0a0,0,0,0,1,0,0V17.17A17.17,17.17,0,0,1,17.17,0Z"/><path class="cls-6" d="M50,58.28A24.92,24.92,0,1,1,74.92,33.36,24.95,24.95,0,0,1,50,58.28Z"/><path class="cls-7" d="M50,11.44A21.92,21.92,0,1,1,28.08,33.36,21.91,21.91,0,0,1,50,11.44m0-6A27.92,27.92,0,1,0,77.92,33.36,28,28,0,0,0,50,5.44Z"/><path class="cls-8" d="M65.76,40.23A5.42,5.42,0,0,1,61.15,35L60.77,35A5.35,5.35,0,0,1,50.3,33.49l-.38-.05A5.35,5.35,0,0,1,39.44,32l-.38-.05a5.36,5.36,0,0,1-10.48-1.47l-.18,0a21.92,21.92,0,1,0,43.42,6.05l-.19,0A5.41,5.41,0,0,1,65.76,40.23Z"/><rect class="cls-9" y="77.01" width="100" height="5.72"/><ellipse class="cls-10" cx="55.65" cy="89.42" rx="18.2" ry="4.34"/><ellipse class="cls-10" cx="39.79" cy="92.67" rx="13.64" ry="3.25"/><ellipse class="cls-10" cx="80.46" cy="91.37" rx="2.96" ry="0.71"/><ellipse class="cls-10" cx="29.04" cy="87.04" rx="3.29" ry="0.54"/><path class="cls-11" d="M47.06,88.27c0,.68-2.46.68-2.46,0a1.23,1.23,0,0,1,2.46,0Z"/><path class="cls-11" d="M58.83,87.58c0,1-3.66,1-3.66,0a1.83,1.83,0,1,1,3.66,0Z"/><path class="cls-11" d="M66.3,90.8c0,.77-2.77.77-2.77,0a1.39,1.39,0,0,1,2.77,0Z"/><path class="cls-11" d="M41.11,93.21c0,1-3.66,1-3.66,0a1.83,1.83,0,1,1,3.66,0Z"/><ellipse class="cls-12" cx="55.17" cy="91.72" rx="1.42" ry="0.36"/><ellipse class="cls-12" cx="63.25" cy="87.96" rx="1.33" ry="0.38"/><ellipse class="cls-12" cx="50.13" cy="89.1" rx="1.13" ry="0.32"/><ellipse class="cls-12" cx="45.66" cy="93.21" rx="1.41" ry="0.54"/><ellipse class="cls-12" cx="32.33" cy="91.9" rx="1.41" ry="0.54"/></svg>