<svg id="Layer_1" data-name="Layer 1" xmlns="http://www.w3.org/2000/svg" viewBox="0 0 100 100"><defs><style>.cls-1{fill:#3e3e3f;}.cls-2{fill:#714c48;}.cls-3{fill:#fff;}.cls-4{fill:#f37d3b;}</style></defs><title>snowman</title><line class="cls-1" x1="32.77" y1="54.86" x2="15.15" y2="65.64"/><path class="cls-2" d="M15.15,67.68a2,2,0,0,1-1.07-3.78L31.71,53.13a2,2,0,1,1,2.12,3.47L16.21,67.38A2.05,2.05,0,0,1,15.15,67.68Z"/><ellipse class="cls-1" cx="57.54" cy="16.34" rx="4.2" ry="12.04" transform="translate(19.77 62.72) rotate(-66.69)"/><ellipse class="cls-1" cx="60.71" cy="9.48" rx="11.95" ry="10.37" transform="translate(27.98 61.48) rotate(-66.69)"/><path class="cls-3" d="M80.83,82.69C80.83,98.06,68.37,100,53,100S25.17,98.06,25.17,82.69a27.83,27.83,0,0,1,55.66,0Z"/><path class="cls-3" d="M76.24,59.26c0,12.84-10.4,14.46-23.24,14.46S29.75,72.1,29.75,59.26a23.25,23.25,0,1,1,46.49,0Z"/><path class="cls-3" d="M68.43,32.19c0,10.68-8.66,12-19.34,12s-19.34-1.35-19.34-12a19.34,19.34,0,0,1,38.68,0Z"/><path class="cls-4" d="M35,26.36a4.11,4.11,0,0,1,0,8.21c-2.27,0-16.12-1.84-16.12-4.11S32.75,26.36,35,26.36Z"/><circle class="cls-1" cx="55.09" cy="26.91" r="1.89"/><circle class="cls-1" cx="33.9" cy="38.43" r="1.13"/><circle class="cls-1" cx="37.47" cy="38.89" r="1.13"/><circle class="cls-1" cx="41.81" cy="38.89" r="1.13"/><circle class="cls-1" cx="36.34" cy="56.82" r="1.13"/><circle class="cls-1" cx="37.47" cy="63.73" r="1.13"/><circle class="cls-1" cx="34.33" cy="70.52" r="1.13"/><circle class="cls-1" cx="32.34" cy="77.98" r="1.13"/><circle class="cls-1" cx="46.36" cy="36.85" r="1.13"/><path class="cls-4" d="M49.83,48.87a51.33,51.33,0,0,1-16.64-2.75l1.42-3.81c.19.07,18.93,6.85,34.15-2.54l2.14,3.46A39.82,39.82,0,0,1,49.83,48.87Z"/><path class="cls-4" d="M43.11,53.9a116.37,116.37,0,0,1-13.17-.73l1-8.09c8.3,1,31.46,1.87,38.86-5.7l5.82,5.69C68.45,52.38,53.93,53.9,43.11,53.9Z"/><line class="cls-1" x1="84.56" y1="68.73" x2="67.93" y2="56.47"/><path class="cls-2" d="M84.56,70.76a2,2,0,0,1-1.21-.4L66.72,58.11a2,2,0,0,1-.43-2.84,2,2,0,0,1,2.85-.44L85.77,67.09a2,2,0,0,1-1.21,3.67Z"/><path class="cls-4" d="M71.37,66.22,64,62.86c1.5-3.32-2.18-9.49-4.21-12L66,45.72C67,46.89,75.36,57.41,71.37,66.22Z"/><path class="cls-4" d="M79.49,63.56A26.07,26.07,0,0,0,66,50.64L68.78,43a34.33,34.33,0,0,1,18.11,17.2Z"/></svg>