<svg id="Layer_1" data-name="Layer 1" xmlns="http://www.w3.org/2000/svg" viewBox="0 0 100 100"><defs><style>.cls-1{fill:#fcca98;}.cls-2{fill:#ffc63f;}.cls-3{fill:#e9bb8d;}</style></defs><title>toast</title><path class="cls-1" d="M44.11,92.69c-21.71,0-35.94,0-35.94-35.94V28.56l-1.06-1A11.54,11.54,0,0,1,3.27,19,11.71,11.71,0,0,1,15,7.31H85A11.71,11.71,0,0,1,96.73,19a11.56,11.56,0,0,1-3.84,8.58l-1.06,1V56.75c0,16.8-3.19,26.84-10.06,31.6-6.25,4.34-15.27,4.34-25.71,4.34Z"/><path class="cls-2" d="M85,10.58A8.44,8.44,0,0,1,93.46,19a8.31,8.31,0,0,1-2.78,6.17l-2.12,1.94V56.75c0,15.42-2.83,24.88-8.65,28.92-5.41,3.75-14,3.75-23.85,3.75H43.94c-9.89,0-18.44,0-23.85-3.75-5.82-4-8.65-13.5-8.65-28.92V27.12L9.32,25.18A8.32,8.32,0,0,1,6.53,19,8.44,8.44,0,0,1,15,10.58H85M85,4H15A15,15,0,0,0,0,19H0A14.86,14.86,0,0,0,4.9,30V56.75C4.9,95.91,22.45,96,43.94,96H56.06c21.49,0,39,0,39-39.21V30A14.86,14.86,0,0,0,100,19h0A15,15,0,0,0,85,4Z"/><path class="cls-2" d="M62.85,86A12.9,12.9,0,0,1,68,80.1c3.36-1.9,5.48-.67,8.31-2.89a11.21,11.21,0,0,0,3.78-7.08,13.34,13.34,0,0,0-.6-5.9c-.7-2.48-1.48-5.27-3.81-7.09-3.74-2.92-10.41-2.56-12.87.54-2.3,2.91.21,6.81-3,10.56A18.37,18.37,0,0,1,57,70.63c-3.88,2.94-5.71,3.16-6.07,4.67s1.09,3.07,2.73,4.78A25.2,25.2,0,0,0,62.85,86Z"/><path class="cls-3" d="M70.44,68.23c0,13.67-6.77,6.25-20.44,6.25S19.25,67.8,19.25,54.14,46.59,18,60.26,18,70.44,54.56,70.44,68.23Z"/><path class="cls-2" d="M34,14.36a12.77,12.77,0,0,1-3.59,7c-2.8,2.65-5.16,2-7.37,4.79a11.22,11.22,0,0,0-2,7.78,13.2,13.2,0,0,0,2,5.58c1.26,2.25,2.68,4.77,5.38,6,4.32,1.94,10.72,0,12.37-3.59,1.54-3.38-1.83-6.56.39-11a18.74,18.74,0,0,1,2.2-3c3.07-3.78,4.79-4.42,4.79-6s-1.79-2.72-3.79-4A25.08,25.08,0,0,0,34,14.36Z"/><circle class="cls-2" cx="78.15" cy="32.25" r="6.63"/><path class="cls-2" d="M13.8,85.29,22,74.88l.9-7.81,6.79,7.81,7.86,8.45,2.32-7.15,3.22-9.11,5.08,10S50,61,50.84,60.46s2.45-10.72,2.45-10.72l8.85,9.14,11.25,3.37,9.38-5.9,2,14.23,3.17,6L80.21,90.83,61.15,93H22.38"/><circle class="cls-2" cx="65.89" cy="42.23" r="7.5"/></svg>