<svg id="Layer_1" data-name="Layer 1" xmlns="http://www.w3.org/2000/svg" viewBox="0 0 100 100"><defs><style>.cls-1{fill:#8ac1db;}.cls-2{fill:#bcd2de;}.cls-3{fill:#fff;}</style></defs><title>ice</title><rect class="cls-1" x="91.74" y="49.58" width="3.39" height="10.75"/><rect class="cls-1" x="36.07" y="19.47" width="16.34" height="12.65"/><rect class="cls-1" x="83.66" y="30.48" width="16.34" height="10.58"/><path class="cls-1" d="M21.43,42.68,18.93,53.9,0,60.9H33.93l17.86,9.64L70,59.47s23.93,1.07,25,1.07S90.71,41,90.71,41"/><path class="cls-2" d="M36.07,19.47l14.29,4.67-28.93,8-2.5,11.21L0,50.36H33.93L51.79,60,70,48.93S93.93,50,95,50s-4.29-19.53-4.29-19.53H100L86.07,17.87"/><polyline class="cls-1" points="0 50.36 0 60.9 24.02 60.9 24.02 50.36"/><ellipse class="cls-3" cx="36.57" cy="44.21" rx="6.93" ry="1.84"/><ellipse class="cls-3" cx="48.81" cy="40.55" rx="3.33" ry="0.89"/><polyline class="cls-1" points="61.22 65.12 78.23 65.12 83.19 71.41 77.83 76.37 85.46 80.03 79.88 82.13 66.58 78.38 68.32 73.62 56.38 69.25"/><rect class="cls-1" x="56.38" y="63.08" width="7.52" height="6.19"/><rect class="cls-1" x="75.66" y="65.26" width="7.52" height="6.14"/><rect class="cls-1" x="77.94" y="73.94" width="7.52" height="6.14"/><rect class="cls-1" x="66.6" y="72.28" width="7.52" height="6.14"/><polyline class="cls-2" points="61.22 58.96 78.23 58.96 83.19 65.25 77.83 70.21 85.46 73.87 79.88 75.97 66.58 72.22 68.32 67.46 56.38 63.09"/></svg>