<svg id="Layer_1" data-name="Layer 1" xmlns="http://www.w3.org/2000/svg" viewBox="0 0 100 100"><defs><style>.cls-1{fill:#87898b;}.cls-2{fill:#895e59;}.cls-3{fill:#ffc640;}.cls-4{fill:#f89c3e;}</style></defs><title>sword</title><ellipse class="cls-1" cx="6.83" cy="93.08" rx="3.95" ry="8.81" transform="translate(-63.82 32.09) rotate(-45)"/><rect class="cls-2" x="13.89" y="71.35" width="22.03" height="7.51" rx="1.54" ry="1.54" transform="translate(60.4 4.39) rotate(45)"/><rect class="cls-2" x="10.17" y="75.07" width="22.03" height="7.51" rx="1.54" ry="1.54" transform="translate(61.94 8.11) rotate(45)"/><rect class="cls-2" x="6.45" y="78.79" width="22.03" height="7.51" rx="1.54" ry="1.54" transform="translate(63.48 11.82) rotate(45)"/><rect class="cls-2" x="2.74" y="82.5" width="22.03" height="7.51" rx="1.54" ry="1.54" transform="translate(65.02 15.54) rotate(45)"/><rect class="cls-2" x="-0.72" y="85.96" width="22.03" height="7.51" rx="1.54" ry="1.54" transform="translate(66.45 19) rotate(45)"/><ellipse class="cls-1" cx="29.42" cy="70.67" rx="4.97" ry="23.9" transform="translate(-41.35 41.5) rotate(-45)"/><rect class="cls-1" x="8.28" y="64.01" width="47.8" height="7.8" transform="translate(57.45 -2.86) rotate(45)"/><polygon class="cls-3" points="99.53 0.48 99.53 0.48 84.1 0.09 25.6 58.59 33.51 66.5 41.49 74.49 100 15.99 99.53 0.48"/><polygon class="cls-4" points="100 15.99 99.53 0.48 33.51 66.5 41.49 74.49 100 15.99"/></svg>