<svg id="Layer_1" data-name="Layer 1" xmlns="http://www.w3.org/2000/svg" viewBox="0 0 100 100"><defs><style>.cls-1{fill:#fff;}.cls-2{fill:#ebf7fd;}.cls-3{fill:#a8d5eb;}</style></defs><title>cloud</title><rect class="cls-1" y="46.31" width="100" height="29.32" rx="5.65" ry="5.65"/><circle class="cls-1" cx="30.28" cy="44.47" r="20.14"/><circle class="cls-1" cx="60.85" cy="46.31" r="13.14"/><rect class="cls-2" x="9.95" y="68" width="79.24" height="7.67" rx="1.48" ry="1.48"/><path class="cls-2" d="M16.69,65.68a8.14,8.14,0,0,1-3.85,1.07A8.09,8.09,0,0,1,9,65.68a8.09,8.09,0,0,1,3.85-1.07A8.14,8.14,0,0,1,16.69,65.68Z"/><path class="cls-2" d="M31.38,65.68a8.09,8.09,0,0,1-3.85,1.07,8.14,8.14,0,0,1-3.85-1.07,8.14,8.14,0,0,1,3.85-1.07A8.09,8.09,0,0,1,31.38,65.68Z"/><path class="cls-2" d="M46.08,65.68a7.46,7.46,0,0,1-7.7,0,7.46,7.46,0,0,1,7.7,0Z"/><path class="cls-2" d="M60.78,65.68a7.46,7.46,0,0,1-7.7,0,7.46,7.46,0,0,1,7.7,0Z"/><path class="cls-2" d="M75.48,65.68a7.46,7.46,0,0,1-7.7,0,7.46,7.46,0,0,1,7.7,0Z"/><path class="cls-2" d="M90.17,65.68a7.46,7.46,0,0,1-7.7,0,7.46,7.46,0,0,1,7.7,0Z"/><path class="cls-3" d="M23.68,70.6a8.09,8.09,0,0,1-3.85,1.07A8.14,8.14,0,0,1,16,70.6a8.14,8.14,0,0,1,3.85-1.07A8.09,8.09,0,0,1,23.68,70.6Z"/><path class="cls-3" d="M38.38,70.6a8.09,8.09,0,0,1-3.85,1.07,8.14,8.14,0,0,1-3.85-1.07,8.14,8.14,0,0,1,3.85-1.07A8.09,8.09,0,0,1,38.38,70.6Z"/><path class="cls-3" d="M53.08,70.6a7.46,7.46,0,0,1-7.7,0,7.46,7.46,0,0,1,7.7,0Z"/><path class="cls-3" d="M67.78,70.6a7.46,7.46,0,0,1-7.7,0,7.46,7.46,0,0,1,7.7,0Z"/><path class="cls-3" d="M82.47,70.6a7.46,7.46,0,0,1-7.7,0,7.46,7.46,0,0,1,7.7,0Z"/></svg>