<svg id="Layer_1" data-name="Layer 1" xmlns="http://www.w3.org/2000/svg" viewBox="0 0 100 100"><defs><style>.cls-1{fill:#f37d3b;}.cls-2{fill:#3e3e3f;}.cls-3{fill:#ebf7fd;}.cls-4{fill:#ffc640;}.cls-5{fill:#231f20;}</style></defs><title>penguin</title><ellipse class="cls-1" cx="38.49" cy="95.43" rx="8.68" ry="4.57"/><ellipse class="cls-1" cx="56.92" cy="95.43" rx="8.68" ry="4.57"/><path class="cls-2" d="M14.19,55.7c-4.27,11.38-3.35,22.74,2.06,25.4s13.24-4.42,17.51-15.79.16-14.24-5.24-16.9S18.46,44.33,14.19,55.7Z"/><ellipse class="cls-2" cx="45.17" cy="14.95" rx="16.21" ry="14.95"/><path class="cls-2" d="M80.06,59.36C80.06,89.44,66.6,96.59,50,96.59S20,89.44,20,59.36,33.41,4.9,50,4.9,80.06,29.29,80.06,59.36Z"/><path class="cls-3" d="M58.61,84.56C59.52,62.72,46,31.17,35.53,31.17c-6,0-11.36,5.93-14.81,15.14a114.49,114.49,0,0,0-.76,13C20,88.07,30.36,96.29,43.38,97,49.26,96.52,58,99.6,58.61,84.56Z"/><path class="cls-4" d="M37,17a4.64,4.64,0,0,1-2.67,5.62c-2.1.71-16.3.79-16.3.79s12-8.76,14.06-9.46A3.89,3.89,0,0,1,37,17Z"/><ellipse class="cls-5" cx="52.74" cy="14.95" rx="2.09" ry="2.39"/><path class="cls-2" d="M85.81,55.7c4.27,11.38,3.35,22.74-2.06,25.4S70.51,76.68,66.24,65.31s-.16-14.24,5.24-16.9S81.54,44.33,85.81,55.7Z"/></svg>