<svg id="Layer_1" data-name="Layer 1" xmlns="http://www.w3.org/2000/svg" viewBox="0 0 100 100"><defs><style>.cls-1{fill:#ffc640;}.cls-2{fill:#994d1f;}.cls-3{fill:#09a582;}.cls-4{fill:#f37d3b;}</style></defs><title>windmill</title><path class="cls-1" d="M27.37,30.15l-9,62.58A7.29,7.29,0,0,0,25.6,100H75.85a7.29,7.29,0,0,0,7.26-7.27L73.46,30.15Z"/><rect class="cls-2" x="40.68" y="8.4" width="12.13" height="5.06" rx="1.24" ry="1.24" transform="translate(-1.26 11.56) rotate(-13.91)"/><rect class="cls-2" x="33.62" y="12.97" width="12.13" height="5.06" rx="1.24" ry="1.24" transform="translate(-2.56 9.99) rotate(-13.91)"/><rect class="cls-2" x="26.56" y="17.54" width="12.13" height="5.06" rx="1.24" ry="1.24" transform="translate(-3.87 8.43) rotate(-13.91)"/><rect class="cls-2" x="19.5" y="22.11" width="12.13" height="5.06" rx="1.24" ry="1.24" transform="translate(-5.17 6.87) rotate(-13.91)"/><rect class="cls-2" x="12.44" y="26.67" width="12.13" height="5.06" rx="1.24" ry="1.24" transform="translate(-6.48 5.31) rotate(-13.91)"/><rect class="cls-2" x="47.53" y="8.4" width="12.13" height="5.06" rx="1.24" ry="1.24" transform="translate(103 34.43) rotate(-166.09)"/><rect class="cls-2" x="54.59" y="12.97" width="12.13" height="5.06" rx="1.24" ry="1.24" transform="translate(115.81 45.12) rotate(-166.09)"/><rect class="cls-2" x="61.65" y="17.54" width="12.13" height="5.06" rx="1.24" ry="1.24" transform="translate(128.62 55.82) rotate(-166.09)"/><rect class="cls-2" x="68.71" y="22.11" width="12.13" height="5.06" rx="1.24" ry="1.24" transform="translate(141.44 66.52) rotate(-166.09)"/><rect class="cls-2" x="75.77" y="26.67" width="12.13" height="5.06" rx="1.24" ry="1.24" transform="translate(154.25 77.22) rotate(-166.09)"/><polyline class="cls-2" points="17.2 31.23 84.78 31.23 49.83 9.12"/><rect class="cls-2" x="11.18" y="29.74" width="77.65" height="3.53" rx="0.87" ry="0.87"/><path class="cls-3" d="M41.18,100V76.73A9.84,9.84,0,0,1,51,66.92h0a9.84,9.84,0,0,1,9.8,9.81V100"/><path class="cls-2" d="M62.45,100H59.13V76.73a8.15,8.15,0,1,0-16.29,0V100H39.52V76.73a11.47,11.47,0,1,1,22.93,0Z"/><polygon class="cls-4" points="17.58 7.31 15.29 9.6 11.03 13.86 45.61 42.02 46.66 40.97 48.95 38.68 50 37.63 21.84 3.05 17.58 7.31"/><path class="cls-4" d="M45.61,45.07a3,3,0,0,1-1.92-.69L9.1,16.22a3,3,0,0,1-.23-4.51L19.69.89a3,3,0,0,1,4.51.23L52.36,35.71a3.05,3.05,0,0,1-.2,4.08l-4.39,4.39A3.08,3.08,0,0,1,45.61,45.07Zm-30-31.44L45.4,37.92l.5-.5L21.61,7.59,19.73,9.47h0Zm2-6.32h0Z"/><polygon class="cls-4" points="84.71 9.6 82.42 7.31 78.16 3.05 50 37.63 51.05 38.68 53.34 40.97 54.39 42.02 88.97 13.86 84.71 9.6"/><path class="cls-4" d="M54.39,45.07a3.08,3.08,0,0,1-2.16-.89l-4.39-4.39a3.05,3.05,0,0,1-.2-4.08L75.8,1.12A3,3,0,0,1,78,0a3.1,3.1,0,0,1,2.31.89l6.55,6.55h0l4.27,4.27a3,3,0,0,1-.23,4.51L56.31,44.38A3,3,0,0,1,54.39,45.07Zm-.29-7.65.5.5L84.43,13.63l-6-6Z"/><polygon class="cls-4" points="82.42 76.73 84.71 74.44 88.97 70.18 54.39 42.02 53.34 43.07 51.05 45.36 50 46.41 78.16 80.99 82.42 76.73"/><path class="cls-4" d="M78.16,84H78a3,3,0,0,1-2.2-1.11L47.64,48.33a3,3,0,0,1,.21-4.08l4.38-4.39a3.05,3.05,0,0,1,4.08-.2L90.9,67.82a3,3,0,0,1,.23,4.51l-6.55,6.55h0l-4.27,4.27A3.05,3.05,0,0,1,78.16,84Zm4.26-7.31h0ZM54.1,46.62,78.39,76.45l6-6L54.6,46.12Z"/><polygon class="cls-4" points="15.29 74.44 17.58 76.73 21.84 80.99 50 46.41 48.95 45.36 46.66 43.07 45.61 42.02 11.03 70.18 15.29 74.44"/><path class="cls-4" d="M21.84,84a3.05,3.05,0,0,1-2.15-.89L8.87,72.33a3,3,0,0,1,.23-4.51L43.69,39.66a3.05,3.05,0,0,1,4.08.2l4.38,4.39a3,3,0,0,1,.21,4.08L24.2,82.92A3,3,0,0,1,22,84ZM15.57,70.41l6,6L45.9,46.62l-.5-.5Z"/><circle class="cls-2" cx="49.75" cy="41.72" r="4.13"/></svg>