<svg id="Layer_1" data-name="Layer 1" xmlns="http://www.w3.org/2000/svg" viewBox="0 0 100 100"><defs><style>.cls-1{fill:#fff;}.cls-2{fill:#f37d3b;}.cls-3{fill:#8e3a19;}.cls-4{fill:#6ab8d9;}</style></defs><title>airplane</title><path class="cls-1" d="M100,40.87h0V27.05l-3,2-4.33,4.7H21.81A12.12,12.12,0,0,0,9.72,45.83H3a3,3,0,0,0-3,3v6.13a3,3,0,0,0,3,3H80.72a4.52,4.52,0,0,0,4.51-4.5V48.91h7.19A7.6,7.6,0,0,0,100,41.33C100,41.17,100,41,100,40.87Z"/><rect class="cls-2" x="43.11" y="58.27" width="16.26" height="5.01" rx="1.23" ry="1.23"/><ellipse class="cls-3" cx="44.47" cy="60.61" rx="0.74" ry="1.41"/><rect class="cls-2" x="52.7" y="63.62" width="16.26" height="5.01" rx="1.23" ry="1.23"/><ellipse class="cls-3" cx="54.06" cy="65.96" rx="0.74" ry="1.41"/><path class="cls-4" d="M28.09,42.67a3.17,3.17,0,0,0-3.16-3.16H11.54a11.93,11.93,0,0,0-1.82,6.32H24.93A3.17,3.17,0,0,0,28.09,42.67Z"/><circle class="cls-4" cx="35.12" cy="42.67" r="3.16"/><circle class="cls-4" cx="44.76" cy="42.67" r="3.16"/><circle class="cls-4" cx="54.4" cy="42.67" r="3.16"/><circle class="cls-4" cx="64.04" cy="42.67" r="3.16"/><circle class="cls-4" cx="73.68" cy="42.67" r="3.16"/><polygon class="cls-2" points="100 25.76 96.96 29.05 100 29.05 100 25.76"/><polygon class="cls-1" points="69.75 56.15 43.13 56.15 73.07 69.32 78.45 69.32 69.75 56.15"/><polygon class="cls-1" points="78.45 69.32 73.07 69.32 80.66 72.66 78.45 69.32"/><polygon class="cls-2" points="67.98 53.47 37.03 53.47 43.13 56.15 69.75 56.15 67.98 53.47"/><polygon class="cls-1" points="71.65 56.15 67.85 56.15 76.36 69.03 47.07 56.15 39.19 56.15 69.13 69.32 80.36 69.32 71.65 56.15"/><path class="cls-2" d="M80.36,69.32H69.13L80,74.11a1.63,1.63,0,0,0,.64.13,1.55,1.55,0,0,0,1.21-.56,1.58,1.58,0,0,0,.11-1.9Z"/><path class="cls-2" d="M44.58,55.05H67.12l.73,1.1h3.8L69.3,52.59A1.59,1.59,0,0,0,68,51.88H37a1.59,1.59,0,0,0-.64,3l2.8,1.23h7.88Z"/></svg>