<svg id="Layer_1" data-name="Layer 1" xmlns="http://www.w3.org/2000/svg" viewBox="0 0 100 100"><defs><style>.cls-1{fill:#b2ae4f;}.cls-2{fill:#09a582;}.cls-3{fill:#007359;}</style></defs><title>algae</title><path class="cls-1" d="M48.71,33.6c.36,11.34-10.55,19.21-24.32,19.87S-.19,46.31,0,33.84,11.06,10,24.3,10.52,48.36,22.3,48.71,33.6Z"/><path class="cls-2" d="M44.94,33.46c.25,9.65-9,16.53-20.56,17S3.63,44.14,3.77,33.69A20.19,20.19,0,0,1,24.31,14.21C35.51,14.53,44.69,23.86,44.94,33.46Z"/><path class="cls-3" d="M41.63,33.12c.19,8.41-7.81,14.55-17.83,15s-18-5.63-17.86-14.65,8.08-17,17.82-16.81S41.46,24.74,41.63,33.12Z"/><path class="cls-2" d="M16.61,25.07a2.53,2.53,0,0,1-2.5,2.36,2.19,2.19,0,0,1-2.48-2.09,2.57,2.57,0,0,1,2.5-2.4A2.24,2.24,0,0,1,16.61,25.07Z"/><path class="cls-2" d="M29.08,25.61c0,2.3-2.11,4.1-4.74,4.11s-4.76-1.82-4.75-4.16a4.49,4.49,0,0,1,4.73-4.24A4.65,4.65,0,0,1,29.08,25.61Z"/><path class="cls-2" d="M33.94,38.4a2.15,2.15,0,0,1-2.38,2,2.32,2.32,0,0,1-2.41-2.12,2.17,2.17,0,0,1,2.38-2A2.37,2.37,0,0,1,33.94,38.4Z"/><path class="cls-2" d="M37.4,30.72a1.52,1.52,0,0,1-1.75,1.41,1.81,1.81,0,0,1-1.79-1.63,1.54,1.54,0,0,1,1.75-1.43A1.84,1.84,0,0,1,37.4,30.72Z"/><path class="cls-2" d="M22.26,38.71c0,2.11-2,3.89-4.36,4s-4.35-1.42-4.34-3.57A4.45,4.45,0,0,1,17.92,35,3.93,3.93,0,0,1,22.26,38.71Z"/><path class="cls-1" d="M98.19,81.89C92.23,94.78,74.1,101,57.1,98.39s-27.47-16-23-32.59S58.26,38.46,76.69,44.89,104.12,69.1,98.19,81.89Z"/><path class="cls-2" d="M93.13,81.09C88.09,92,72.78,97.23,58.43,95S35.23,81.51,39.05,67.5,59.42,44.42,75,49.85,98.14,70.29,93.13,81.09Z"/><path class="cls-3" d="M88.94,80C84.57,89.43,71.3,94,58.87,92.07S38.76,80.36,42.06,68.22s17.66-20,31.14-15.3S93.28,70.63,88.94,80Z"/><path class="cls-2" d="M64,71.39c-.62,1.32-2.48,2-4.22,1.69a2.63,2.63,0,0,1-2.36-3.35,3.38,3.38,0,0,1,4.37-2.14C63.71,68.24,64.64,70.07,64,71.39Z"/><path class="cls-2" d="M75.24,67.25c-1.16,2.52-4.71,3.73-8,3.22s-5.36-3.12-4.48-6.37A6.45,6.45,0,0,1,71,60C74.63,61.26,76.4,64.75,75.24,67.25Z"/><path class="cls-2" d="M75.14,85.05c-.58,1.26-2.35,1.87-4,1.62a2.5,2.5,0,0,1-2.24-3.19,3.21,3.21,0,0,1,4.15-2C74.84,82.06,75.72,83.81,75.14,85.05Z"/><path class="cls-2" d="M82.09,70.29a2.81,2.81,0,0,1-3,1.19,1.85,1.85,0,0,1-1.66-2.36,2.39,2.39,0,0,1,3.08-1.52A2.14,2.14,0,0,1,82.09,70.29Z"/><path class="cls-2" d="M62.43,81.53c-1.06,2.29-4.28,3.4-7.3,2.93s-4.88-2.84-4.08-5.78A5.87,5.87,0,0,1,58.61,75C61.87,76.09,63.48,79.26,62.43,81.53Z"/><path class="cls-1" d="M81.81,25.6c-7.68,5.84-22.24,4.93-27-2.14s.67-15.83,7-20S74.36.71,80.62,6.12C86.73,11.47,89.62,19.78,81.81,25.6Z"/><path class="cls-2" d="M79.44,24.27C73,29,61.25,28.25,57.13,22.4s0-13.32,5.45-16.9S73.86,3.05,79,7.72,86,19.5,79.44,24.27Z"/><path class="cls-3" d="M77.66,22.92c-5.54,4-15.32,3.31-18.92-1.69s-.37-11.5,4.44-14.65S73.3,4.41,77.7,8.53,83.27,18.89,77.66,22.92Z"/><path class="cls-2" d="M70.69,8.82a1.47,1.47,0,0,1-2.07-.28,1.49,1.49,0,0,1,.3-2,1.41,1.41,0,0,1,2,.29A1.44,1.44,0,0,1,70.69,8.82Z"/><path class="cls-2" d="M69.92,22.17A2.12,2.12,0,0,1,67.4,22,1.23,1.23,0,0,1,67.78,20a2.07,2.07,0,0,1,2.44.22A1.2,1.2,0,0,1,69.92,22.17Z"/><path class="cls-2" d="M76.79,20.23A1.54,1.54,0,0,1,75,20.17a.89.89,0,0,1,.09-1.44,1.52,1.52,0,0,1,1.8.06A.87.87,0,0,1,76.79,20.23Z"/><path class="cls-2" d="M64.74,16.93a3.17,3.17,0,0,1-4.12-.66,2.49,2.49,0,0,1,1.07-3.55,3,3,0,0,1,3.86.66A2.37,2.37,0,0,1,64.74,16.93Z"/></svg>