<svg id="Layer_1" data-name="Layer 1" xmlns="http://www.w3.org/2000/svg" xmlns:xlink="http://www.w3.org/1999/xlink" viewBox="0 0 100 100"><defs><style>.cls-1{fill:none;}.cls-2{clip-path:url(#clip-path);}.cls-3{fill:#58595b;}.cls-4{fill:#efcebc;}.cls-5{fill:#f2797a;}</style><clipPath id="clip-path"><path class="cls-1" d="M205.71-120H134.29A14.33,14.33,0,0,0,120-105.71v71.42A14.33,14.33,0,0,0,134.29-20h71.42A14.33,14.33,0,0,0,220-34.29v-71.42A14.33,14.33,0,0,0,205.71-120Z"/></clipPath></defs><title>allergy</title><g class="cls-2"><path class="cls-3" d="M-83,15.57c184-94.05,341-155.93,357.11-141.2l119.17-60.92c-67.42,1.13-262.4,76.19-483,189-51.17,26.15-99.73,52.35-144.88,77.88H-204C-166.79,59.43-126.13,37.6-83,15.57Z"/><path class="cls-3" d="M417.7-179.09c-2.8-5.48-11.54-7.68-24.44-7.46L274.09-125.63c.38.34,1.09.51,1.31.95,9.5,18.58-132,109.91-317,205H60.07C278.5-38.07,433.16-148.85,417.7-179.09Z"/></g><path class="cls-4" d="M20.65,44.82a5,5,0,0,1,4.6-5.88,5.18,5.18,0,0,1,5.36,4.38L32.67,55.4c.54,3.12.24,6.06,2.08,3.5.89-1.26,1.51-5.12,1.58-6.67.22-5.67.22-5.67.22-8.87V12.25a4.35,4.35,0,0,1,4-4.42A4.18,4.18,0,0,1,44.92,12v30.3a1.37,1.37,0,0,0,1.51,1.37h0a1.4,1.4,0,0,0,1.26-1.38V5.42a4.34,4.34,0,0,1,4-4.41,4.18,4.18,0,0,1,4.41,4.17V43a1.6,1.6,0,0,0,1.18,1.55h0a1.6,1.6,0,0,0,2-1.55V12.25a4.34,4.34,0,0,1,4-4.42A4.18,4.18,0,0,1,67.7,12V48.79a1.67,1.67,0,0,0,.62,1.29l0,0a1.65,1.65,0,0,0,2.69-1.28V28.18a4.35,4.35,0,0,1,4-4.42,4.18,4.18,0,0,1,4.41,4.18V73.08h0C79.41,86.79,67.2,101,50.67,101,36,101,27.5,90.08,25.56,79.65,24,71.3,20.65,44.82,20.65,44.82Z"/><circle class="cls-5" cx="45.22" cy="59.19" r="2.36"/><circle class="cls-5" cx="50.49" cy="57.66" r="0.84"/><circle class="cls-5" cx="50.49" cy="64.06" r="2.83"/><circle class="cls-5" cx="68.19" cy="62.64" r="3.75"/><circle class="cls-5" cx="58.19" cy="81.99" r="2.17"/><circle class="cls-5" cx="43.32" cy="83.76" r="5.59"/></svg>