<svg id="Layer_1" data-name="Layer 1" xmlns="http://www.w3.org/2000/svg" viewBox="0 0 100 100"><defs><style>.cls-1{fill:#038c6e;}.cls-2{fill:#09a582;}.cls-3{fill:#ffc640;}.cls-4{fill:#00604a;}</style></defs><title>alligator</title><path class="cls-1" d="M39.23,68.82H32.38c-1,0-4.51,1-4.51,0h0c0-1,3.5-3.64,4.51-3.64h6.85A1.83,1.83,0,0,1,41.05,67h0A1.83,1.83,0,0,1,39.23,68.82Z"/><path class="cls-1" d="M38.19,67.8H31.33c-1,0-4.51,1-4.51,0h0c0-1,3.51-3.65,4.51-3.65h6.86A1.83,1.83,0,0,1,40,66h0A1.83,1.83,0,0,1,38.19,67.8Z"/><path class="cls-1" d="M40.39,69.76H33.53c-1,0-4.51,1-4.51,0h0c0-1,3.51-3.64,4.51-3.64h6.86a1.83,1.83,0,0,1,1.82,1.82h0A1.83,1.83,0,0,1,40.39,69.76Z"/><path class="cls-1" d="M40.38,69.27s5.54-.73,5.47-5.12h-7"/><path class="cls-1" d="M68.4,68.82H61.55c-1,0-4.51,1-4.51,0h0c0-1,3.51-3.64,4.51-3.64H68.4A1.83,1.83,0,0,1,70.22,67h0A1.83,1.83,0,0,1,68.4,68.82Z"/><path class="cls-1" d="M67.36,67.8H60.5c-1,0-4.5,1-4.5,0h0c0-1,3.5-3.65,4.5-3.65h6.86A1.83,1.83,0,0,1,69.18,66h0A1.83,1.83,0,0,1,67.36,67.8Z"/><path class="cls-1" d="M69.56,69.76H62.7c-1,0-4.51,1-4.51,0h0c0-1,3.51-3.64,4.51-3.64h6.86a1.83,1.83,0,0,1,1.82,1.82h0A1.83,1.83,0,0,1,69.56,69.76Z"/><path class="cls-1" d="M69.55,69.27s5.54-.73,5.47-5.12H68"/><rect class="cls-2" x="25.36" y="45.08" width="9.92" height="18.63" rx="2.06" ry="2.06"/><rect class="cls-2" x="34.47" y="45.08" width="9.92" height="18.63" rx="2.06" ry="2.06"/><rect class="cls-2" y="50.21" width="48.7" height="17.95" rx="4.28" ry="4.28"/><rect class="cls-2" x="31.85" y="50.21" width="48.7" height="17.95" rx="4.28" ry="4.28"/><rect class="cls-2" x="4.22" y="48.46" width="4.37" height="7.35" rx="1.04" ry="1.04"/><rect class="cls-2" x="10.21" y="48.46" width="4.37" height="7.35" rx="1.04" ry="1.04"/><path class="cls-2" d="M72.28,50.52c2.06.21,3.21.49,4.53.69s2.43.34,3.53.41A13.39,13.39,0,0,0,86,51a7.49,7.49,0,0,0,3.9-3.57,6.1,6.1,0,0,0,.88-2.22,4.31,4.31,0,0,0-.35-2.36,14.6,14.6,0,0,0-4.71-5.35,45.19,45.19,0,0,0-7.22-4.35A94.07,94.07,0,0,0,62,27a96.72,96.72,0,0,1,17.85,2.33,50.07,50.07,0,0,1,8.91,2.91,21.72,21.72,0,0,1,8.48,6.22,13.15,13.15,0,0,1,2.61,5.9,15.26,15.26,0,0,1-.39,6.45,19.17,19.17,0,0,1-6.5,10.4,25.6,25.6,0,0,1-11,4.93,48.57,48.57,0,0,1-5.31.77c-1.64.17-3.43.24-4.32.42Z"/><circle class="cls-1" cx="40.24" cy="51.11" r="2.42"/><ellipse class="cls-3" cx="40.31" cy="50.32" rx="0.93" ry="1.64"/><path class="cls-3" d="M2,57.92c0,.19-.41.33-.91.33s-.92-.14-.92-.33.92-3.53.92-3.53S2,57.74,2,57.92Z"/><path class="cls-3" d="M4.19,57.92c0,.19-.41.33-.92.33s-.92-.14-.92-.33.92-3.53.92-3.53S4.19,57.74,4.19,57.92Z"/><path class="cls-3" d="M6.35,57.92c0,.19-.41.33-.91.33s-.92-.14-.92-.33.92-3.53.92-3.53S6.35,57.74,6.35,57.92Z"/><path class="cls-3" d="M8.52,57.92c0,.19-.41.33-.92.33s-.92-.14-.92-.33.92-3.53.92-3.53S8.52,57.74,8.52,57.92Z"/><path class="cls-3" d="M10.68,57.92c0,.19-.41.33-.92.33s-.91-.14-.91-.33.91-3.53.91-3.53S10.68,57.74,10.68,57.92Z"/><path class="cls-3" d="M12.84,57.92c0,.19-.41.33-.91.33s-.92-.14-.92-.33.92-3.53.92-3.53S12.84,57.74,12.84,57.92Z"/><path class="cls-3" d="M15,57.92c0,.19-.41.33-.92.33s-.91-.14-.91-.33.91-3.53.91-3.53S15,57.74,15,57.92Z"/><path class="cls-3" d="M17.17,57.92c0,.19-.41.33-.91.33s-.92-.14-.92-.33.92-3.53.92-3.53S17.17,57.74,17.17,57.92Z"/><path class="cls-3" d="M19.34,57.92c0,.19-.41.33-.92.33s-.92-.14-.92-.33.92-3.53.92-3.53S19.34,57.74,19.34,57.92Z"/><path class="cls-3" d="M21.5,57.92c0,.19-.41.33-.91.33s-.92-.14-.92-.33.92-3.53.92-3.53S21.5,57.74,21.5,57.92Z"/><path class="cls-3" d="M23.67,57.92c0,.19-.41.33-.92.33s-.92-.14-.92-.33.92-3.53.92-3.53S23.67,57.74,23.67,57.92Z"/><path class="cls-3" d="M25.83,57.92c0,.19-.41.33-.92.33s-.91-.14-.91-.33.91-3.53.91-3.53S25.83,57.74,25.83,57.92Z"/><path class="cls-3" d="M28,57.92c0,.19-.41.33-.92.33s-.91-.14-.91-.33.91-3.53.91-3.53S28,57.74,28,57.92Z"/><path class="cls-3" d="M30.25,57.92c0,.19-.41.33-.91.33s-.92-.14-.92-.33.92-3.53.92-3.53S30.25,57.74,30.25,57.92Z"/><path class="cls-3" d="M32.46,57.92c0,.19-.41.33-.91.33s-.92-.14-.92-.33.92-3.53.92-3.53S32.46,57.74,32.46,57.92Z"/><path class="cls-3" d="M34.67,57.92c0,.19-.41.33-.91.33s-.92-.14-.92-.33.92-3.53.92-3.53S34.67,57.74,34.67,57.92Z"/><path class="cls-3" d="M36.89,57.92c0,.19-.42.33-.92.33s-.92-.14-.92-.33.92-3.53.92-3.53S36.89,57.74,36.89,57.92Z"/><path class="cls-3" d="M39.1,57.92c0,.19-.41.33-.92.33s-.92-.14-.92-.33.92-3.53.92-3.53S39.1,57.74,39.1,57.92Z"/><rect class="cls-1" y="57.3" width="40.31" height="1.36" rx="0.32" ry="0.32"/><circle class="cls-4" cx="6.28" cy="50.32" r="0.96"/><circle class="cls-4" cx="12.19" cy="50.32" r="0.96"/><path class="cls-2" d="M54.45,71.64H47.6c-1,0-4.51,1-4.51,0h0c0-1,3.5-3.64,4.51-3.64h6.85a1.83,1.83,0,0,1,1.82,1.82h0A1.83,1.83,0,0,1,54.45,71.64Z"/><path class="cls-2" d="M53.41,70.61H46.55c-1,0-4.51,1-4.51,0h0c0-1,3.51-3.64,4.51-3.64h6.86a1.83,1.83,0,0,1,1.82,1.82h0A1.83,1.83,0,0,1,53.41,70.61Z"/><path class="cls-2" d="M55.6,72.58H48.75c-1,0-4.51,1-4.51,0h0c0-1,3.51-3.64,4.51-3.64H55.6a1.82,1.82,0,0,1,1.83,1.82h0A1.83,1.83,0,0,1,55.6,72.58Z"/><path class="cls-2" d="M55.6,72.08s5.54-.73,5.47-5.11h-7"/><path class="cls-2" d="M81.44,69.48l-6.72,1.37c-1,.2-4.22,1.88-4.42.9h0c-.2-1,2.71-4.27,3.69-4.47l6.72-1.37a1.83,1.83,0,0,1,2.15,1.42h0A1.83,1.83,0,0,1,81.44,69.48Z"/><path class="cls-2" d="M80.21,68.68l-6.72,1.37c-1,.2-4.22,1.88-4.42.9h0c-.2-1,2.71-4.27,3.69-4.47l6.72-1.37a1.83,1.83,0,0,1,2.15,1.42h0A1.83,1.83,0,0,1,80.21,68.68Z"/><path class="cls-2" d="M82.75,70.17,76,71.54c-1,.2-4.22,1.88-4.42.9h0c-.2-1,2.71-4.27,3.69-4.47L82,66.6A1.83,1.83,0,0,1,84.18,68h0A1.83,1.83,0,0,1,82.75,70.17Z"/><path class="cls-2" d="M82.65,69.69s5.28-1.83,4.34-6.11L80.12,65"/><polygon class="cls-1" points="45.85 51.11 54.9 51.11 50.38 48.47 45.85 51.11"/><polygon class="cls-1" points="54.9 51.11 63.95 51.11 59.43 48.47 54.9 51.11"/><polygon class="cls-1" points="63.95 51.11 73.01 51.11 68.48 48.47 63.95 51.11"/><polygon class="cls-1" points="73.41 51.5 82.41 52.47 78.19 49.36 73.41 51.5"/><polygon class="cls-1" points="83.69 52.81 89.52 50.79 85.74 49.3 83.69 52.81"/><polygon class="cls-1" points="90.28 49.84 93.36 44.49 90.24 46.25 90.28 49.84"/><polygon class="cls-1" points="90.7 37.45 93.36 43.02 93.13 39.71 90.7 37.45"/><polygon class="cls-1" points="84.5 33.4 89.7 36.66 88.04 33.53 84.5 33.4"/><polygon class="cls-1" points="77.71 30.38 83.37 32.73 81.22 29.92 77.71 30.38"/><polygon class="cls-1" points="69.69 28.43 75.67 29.78 73.07 27.38 69.69 28.43"/><polygon class="cls-1" points="69.08 53.12 67.33 53.12 66.46 54.63 67.33 56.14 69.08 56.14 69.95 54.63 69.08 53.12"/><polygon class="cls-1" points="75.2 54.09 72.27 54.09 70.8 56.63 72.27 59.16 75.2 59.16 76.67 56.63 75.2 54.09"/><polygon class="cls-1" points="69.51 57.82 65.69 57.82 63.78 61.12 65.69 64.43 69.51 64.43 71.42 61.12 69.51 57.82"/><polygon class="cls-1" points="51.39 66.97 55.59 66.71 55.59 62.59 51.39 66.97"/><polygon class="cls-1" points="74.5 66.97 78.69 66.71 78.69 62.59 74.5 66.97"/></svg>