<svg id="Layer_1" data-name="Layer 1" xmlns="http://www.w3.org/2000/svg" viewBox="0 0 100 100"><defs><style>.cls-1{fill:#87898b;}.cls-2{fill:#895e59;}.cls-3{fill:#ffc640;}.cls-4{fill:#f89c3e;}.cls-5{fill:#5c5c5c;}.cls-6{fill:#707070;}</style></defs><title>warrior</title><ellipse class="cls-1" cx="82.06" cy="90.01" rx="5.75" ry="2.58"/><rect class="cls-2" x="74.91" y="70.91" width="14.39" height="4.9" rx="1.12" ry="1.12"/><rect class="cls-2" x="74.91" y="74.35" width="14.39" height="4.9" rx="1.12" ry="1.12"/><rect class="cls-2" x="74.91" y="77.78" width="14.39" height="4.9" rx="1.12" ry="1.12"/><rect class="cls-2" x="74.91" y="81.21" width="14.39" height="4.9" rx="1.12" ry="1.12"/><rect class="cls-2" x="74.91" y="84.41" width="14.39" height="4.9" rx="1.12" ry="1.12"/><ellipse class="cls-1" cx="82.14" cy="69.23" rx="15.61" ry="3.24"/><rect class="cls-1" x="66.53" y="64.14" width="31.22" height="5.09"/><polygon class="cls-3" points="82.1 4.44 74.8 11.38 74.8 65.42 82.1 65.42 82.1 4.44 82.1 4.44"/><polygon class="cls-4" points="89.48 11.38 82.1 4.44 82.1 65.42 89.48 65.42 89.48 11.38"/><circle class="cls-2" cx="30.28" cy="71.97" r="28.03"/><circle class="cls-3" cx="30.32" cy="71.97" r="9.31"/><circle class="cls-4" cx="30.32" cy="71.97" r="2.9"/><circle class="cls-1" cx="30.32" cy="50.6" r="3.07"/><circle class="cls-1" cx="30.32" cy="93.34" r="3.07"/><circle class="cls-1" cx="51.69" cy="71.97" r="3.07"/><circle class="cls-1" cx="8.95" cy="71.97" r="3.07"/><circle class="cls-1" cx="45.43" cy="56.86" r="3.07"/><circle class="cls-1" cx="15.21" cy="87.08" r="3.07"/><circle class="cls-1" cx="45.43" cy="87.08" r="3.07"/><circle class="cls-1" cx="15.21" cy="56.86" r="3.07"/><rect class="cls-5" x="13.18" y="13.18" width="33.41" height="22.32"/><path class="cls-6" d="M50.64,20.33a20.33,20.33,0,1,0-40.65,0V39.77h6.26V20.28a5.49,5.49,0,1,1,11,0v9.93h6V20.28a5.5,5.5,0,1,1,11,0V39.77h6.39Z"/></svg>