<svg id="Layer_1" data-name="Layer 1" xmlns="http://www.w3.org/2000/svg" viewBox="0 0 100 100"><defs><style>.cls-1{fill:#fff;}.cls-2{fill:#ffc63f;}</style></defs><title>angel</title><circle class="cls-1" cx="32.49" cy="63.33" r="12.1"/><path class="cls-1" d="M30.74,38.17A22.84,22.84,0,0,0,1.2,51.2l-1,2.66a2.57,2.57,0,0,0,1.45,3.3A2.55,2.55,0,0,0,4.91,55.7a2.55,2.55,0,0,0,4.75,1.84,2.54,2.54,0,1,0,4.74,1.84,2.54,2.54,0,0,0,4.74,1.84,2.54,2.54,0,0,0,4.74,1.84l1-2.66,18.86,7.31A22.84,22.84,0,0,0,30.74,38.17Z"/><circle class="cls-1" cx="67.51" cy="63.33" r="12.1"/><path class="cls-1" d="M69.26,38.17a22.84,22.84,0,0,1,29.54,13l1,2.66a2.54,2.54,0,1,1-4.74,1.84,2.55,2.55,0,0,1-4.75,1.84,2.54,2.54,0,1,1-4.74,1.84,2.54,2.54,0,0,1-4.74,1.84,2.54,2.54,0,1,1-4.74,1.84l-1-2.66L56.23,67.71A22.84,22.84,0,0,1,69.26,38.17Z"/><path class="cls-2" d="M49.84,24.57c-7.82,0-14.16,1.8-14.16,4s6.34,4,14.16,4S64,30.81,64,28.59,57.66,24.57,49.84,24.57Zm0,4c-4.76,0-8.61-.53-8.61-1.18s3.85-1.18,8.61-1.18,8.61.53,8.61,1.18S54.59,28.59,49.84,28.59Z"/></svg>