<svg id="Layer_1" data-name="Layer 1" xmlns="http://www.w3.org/2000/svg" viewBox="0 0 100 100"><defs><style>.cls-1{fill:#fff;}.cls-2{fill:#8ac1db;}.cls-3{fill:#1d437e;}.cls-4{fill:#bcd2de;}</style></defs><title>antarctica</title><path class="cls-1" d="M98.78,57.38h0Z"/><path class="cls-2" d="M39,43.51l0,0h0l-.05,0h0l-.06,0h0l0,0h0l-.06,0h0l0,0h-.07v.26h.35C39,43.55,39,43.53,39,43.51Z"/><path class="cls-2" d="M33,44.56h0v.05h0Z"/><path class="cls-2" d="M33.06,45.11h0l0,0h0L33,45h0l0,0h0v.26a.49.49,0,0,0,.17,0S33.07,45.13,33.06,45.11Z"/><path class="cls-2" d="M31.8,45.71s0,0,0,0a0,0,0,0,0,0,0h0l0,0h0l-.07,0h-.09l0,0h0s0,0,0,0h0v.25l.06,0A.69.69,0,0,0,31.8,45.71Z"/><path class="cls-2" d="M31.18,46.19v0h0v.08h0Z"/><path class="cls-1" d="M3,47.61l0,0a0,0,0,0,0,0,0Z"/><path class="cls-1" d="M2.9,47.47s0,0,0,0v0Z"/><path class="cls-1" d="M3.1,47.73a.08.08,0,0,1,0,0l0,0Z"/><path class="cls-2" d="M30.45,46.68H30.4l-.07,0h0l0,0h0a0,0,0,0,1,0,0h0a1.48,1.48,0,0,0,0,.21l.25,0Z"/><path class="cls-2" d="M4.65,49l.76-.08,1.26-.11-.53-.13a1.25,1.25,0,0,1-.31-.1.91.91,0,0,1-.22-.11l-.23-.18c-.26,0-.46-.05-.64-.08s-.33,0-.48-.08L3.81,48l-.56-.13-.13-.09,0,0h0l0,0A.6.6,0,0,1,3,47.61l0,0a0,0,0,0,1,0,0,.41.41,0,0,1-.05-.09l0,0v0s0-.06,0-.08v0c0,.27.07.54.1.81h.18l.09,0,0,0v0h0l.14,1.13c.26-.1.47-.17.65-.22A5.06,5.06,0,0,1,4.65,49Z"/><polygon class="cls-2" points="3.23 48.22 3.24 48.21 3.24 48.21 3.23 48.22"/><path class="cls-2" d="M3.18,48.26h0Z"/><polygon class="cls-2" points="3.21 48.24 3.22 48.24 3.22 48.23 3.21 48.24"/><path class="cls-3" d="M27.29,47.64l0,.41h.14Z"/><path class="cls-2" d="M81.74,48.7l0,0h0l0,0h0l-.07,0a.57.57,0,0,0-.13.08l-.05,0,0,0-.06.07.4.08.06-.49h0Z"/><path class="cls-2" d="M4.31,52.63a2.31,2.31,0,0,1,.58-.17L6,52.22a10.31,10.31,0,0,0,1-.28c.28-.1.45-.2.43-.3l.35,0h.95a3,3,0,0,1-.18-.29.33.33,0,0,1,0-.2.37.37,0,0,1,.12-.19l.27-.28H8.2L8,50.7a.44.44,0,0,0-.16.06l-.16.06-.17.07-.19,0-.2.05H6.93c-.06,0,0,0,0-.08a1.91,1.91,0,0,1,.21-.15.4.4,0,0,0,.16-.16s0-.09-.19-.13,0,0,0-.07a.73.73,0,0,1,.15-.11l.18-.13s.1-.08.1-.11H7l-.27,0a1.13,1.13,0,0,1-.22-.11.38.38,0,0,1-.13-.18H6l-.29,0-.21,0-.09,0v0a.09.09,0,0,1,0,.06.23.23,0,0,1-.11,0A.89.89,0,0,1,5,50a1.59,1.59,0,0,0-.3-.06l-.32,0c-.11,0-.22,0-.33,0a2.21,2.21,0,0,1-.35-.08c-.12,0-.14-.07-.13-.11s0-.07.08-.11,0-.07,0-.11l-.27-.07h0l-.16,0,.31,2.5.14,1.18.25,0h0l.18-.23A1.28,1.28,0,0,1,4.31,52.63Z"/><path class="cls-2" d="M82.44,49.71l0,0a.08.08,0,0,1,0,0l0,0h0l0,.05,0,0s0,0,0,.05l0,0h0a1.24,1.24,0,0,1-.18.14h0L82,50.2l-.11.09.53,0c0-.22.05-.45.07-.67h0S82.44,49.69,82.44,49.71Z"/><path class="cls-2" d="M93.35,52.74l-.1,0h0l-.07,0,0,0,0,0,0,0,0,0,0,0,0,0,0,0a0,0,0,0,0,0,0s0,0,0,0v0c0,.1.12.19.3.28l.26.15.12-.78-.17,0Z"/><path class="cls-2" d="M93.74,53.89a.05.05,0,0,1,0,0v0h0l0,0,0,0h0l-.07.07.13.05,0-.29v0Z"/><path class="cls-2" d="M3.37,54.26v0h0v0h0v.08l0,0Z"/><path class="cls-2" d="M3.94,59.76H4s0,0,.06,0h0l0,.22.12-.09a10.88,10.88,0,0,0,1-.76c.26-.23.33-.36.35-.48a2.6,2.6,0,0,1,0-.44,2.73,2.73,0,0,1,.47-1l-2.1.17c-.27-.23-.18-.38,0-.5a4,4,0,0,1,.83-.27c.22-.06.39-.11.38-.18s0,0,0,0h0l0,0h0l-.09,0h0l-.09,0-.11,0h0l-.15,0h0l-.19,0h0l-.54-.09L3.9,56a1.12,1.12,0,0,0,.19-.24.31.31,0,0,0,.07-.21v0h0l0,0h0l0,0H3.73l-.11,0-.13,0a.09.09,0,0,0-.07,0h0l0,0v0a.06.06,0,0,0,0,0v0s0,0,0,.07a.88.88,0,0,0,.05.15l0,.07-.39,0H3l-.26,0H2.6l-.28,0h0l-.3,0H1.89l-.21,0H1.59l-.19,0H1.32l-.21,0H1.06l-.16,0H.84l-.13,0h0l-.15,0h0l-.11,0,0,0-.08,0H.21l-.07,0h0l-.06-.06,0,0,0-.05v0s0,0,0-.06H0l.57,4.25a.44.44,0,0,0,.24.31,2.25,2.25,0,0,0,.63.22,9.39,9.39,0,0,0,1.05.15l1.21.08L4,60Z"/><path class="cls-2" d="M99,57.37h-.73l-.12,0h-.05l-.16,0h0l-.12,0,0,0-.07,0,0,0-.06,0,0,0,0,0,0,0,0,0h0l0,.06h0a.08.08,0,0,0,0,0v0a1.09,1.09,0,0,0,0,.18c0,.08,0,.17,0,.25a.35.35,0,0,1,0,.23.31.31,0,0,1-.16.13h-.14l-.09,0h-.82a7,7,0,0,0,1.07.64c.36.17.71.32,1,.46l.6.29v0l.45-2.73H99Z"/><path class="cls-3" d="M95.27,65.68h0Z"/><path class="cls-2" d="M98.91,61.14a3.3,3.3,0,0,0-.6.13.7.7,0,0,0-.31.2,1.87,1.87,0,0,0-.23.36l-1.86-.21a2.75,2.75,0,0,1,.28.65,1.51,1.51,0,0,0,.2.51,1.87,1.87,0,0,0,.63.51,4.07,4.07,0,0,0,.47.24c.29.14.65.29,1.1.46H95.77a1.1,1.1,0,0,0,.4.25c.17.07.36.13.57.2l.62.2a3.52,3.52,0,0,1,.55.27s-.11.12-.36.22a10.35,10.35,0,0,1-1.07.31c-.29.07-.62.14-1,.2h0l-.19,0h0l-.18,0-.17,0h0l-.22,0-.19,0-.27,0-.18,0-.31,0h-.62c0,.15.17.31.45.46a8.1,8.1,0,0,0,1.07.44l1.12.4a1.47,1.47,0,0,1,.6.3,4.31,4.31,0,0,0-1.48.36,1.73,1.73,0,0,0-.71.59,1.41,1.41,0,0,0-.23.56.82.82,0,0,0,0,.29l.31,0,.61.12a3.76,3.76,0,0,1,.59.18c.17.07.28.14.29.21L95,69.67c-.21,0-.41-.06-.61-.08l-.65,0H92.9l-.59,0a5.84,5.84,0,0,0-.78.11,2.37,2.37,0,0,0-.77.32,1.48,1.48,0,0,0-.57.64c-.36.07-.69.11-1,.15a7.59,7.59,0,0,0-.8.12,2.63,2.63,0,0,0-.65.23,1.69,1.69,0,0,0-.54.44L87,71.45l-.22-.1-.2-.06h-.18a.88.88,0,0,0-.33.06,2.28,2.28,0,0,0-.3.17l-.31.2a1.82,1.82,0,0,1-.37.18,3.75,3.75,0,0,0-.57.28L84,72.5l-.43.28a.6.6,0,0,1-.28.12.64.64,0,0,1-.06-.24c0-.11,0-.22,0-.33a2.79,2.79,0,0,1,0-.29V71.9l-3.1.31a1.22,1.22,0,0,1-.34,0,1.33,1.33,0,0,1-.24-.1L79.29,72l-.16-.16L79,71.64a1.33,1.33,0,0,0-.19-.14.72.72,0,0,0-.2-.09.52.52,0,0,0-.21,0,1.39,1.39,0,0,0-.55.19c-.2.11-.42.25-.64.39s-.44.29-.64.4a1.44,1.44,0,0,1-.54.2h-.23l-.21,0-.18,0-.17-.06L75,72.33l-.17-.06-.16,0-.17,0a.66.66,0,0,0-.4.21,2.4,2.4,0,0,0-.36.41c-.11.15-.22.31-.32.42a.49.49,0,0,1-.29.21l-.21,0-.31-.07-.37-.1-.43-.12L71.37,73l-.48-.1-.49-.07a3.55,3.55,0,0,0-.46,0c-.29,0-.56.08-.82.11L68.4,73l-.64,0-.6,0c-.39,0-.76,0-1.11,0l-1-.13c-.31-.06-.6-.12-.87-.19s-.51-.13-.74-.2l-.63-.21-.53-.18L61.86,72a1.55,1.55,0,0,0-.34-.05.66.66,0,0,0-.21,0,.39.39,0,0,0-.16.1.59.59,0,0,0-.13.17,1.18,1.18,0,0,0-.1.27l-.39-.09-.31-.06-.24,0h-.2a1,1,0,0,0-.25,0l-.27,0-.36.07-.51.07a2.07,2.07,0,0,1-.36,0l-.27-.06-.21-.09-.19-.1-.18-.1a.72.72,0,0,0-.2-.09.65.65,0,0,0-.21-.06,1,1,0,0,0-.25,0,3.36,3.36,0,0,0-.81.1,2.21,2.21,0,0,0-.47.18l-.33.19a.83.83,0,0,1-.36.08,3.19,3.19,0,0,0-1.38-.83,12,12,0,0,0-1.84-.41c-.62-.1-1.22-.17-1.69-.25a1.72,1.72,0,0,1-.93-.33l0,0v0h0s0,0,0,0h0v0c0,1.87-.05,3.75-.07,5.63v0a.08.08,0,0,0,0,0,0,0,0,0,0,0,0l0,0c.11.17.45.27.91.36s1.05.16,1.66.27a9.68,9.68,0,0,1,1.8.45,2.89,2.89,0,0,1,1.36.9.75.75,0,0,0,.35-.09l.32-.21a2.13,2.13,0,0,1,.47-.2,2.79,2.79,0,0,1,.8-.1l.24,0,.21.07L57,78l.18.11.18.11.21.09.27.07a1.92,1.92,0,0,0,.35,0,4.39,4.39,0,0,0,.5-.08l.35-.07.26-.06.25,0h.2l.23,0,.3.06.39.09a1.51,1.51,0,0,1,.1-.28.53.53,0,0,1,.13-.19.34.34,0,0,1,.16-.1.42.42,0,0,1,.2,0,1.55,1.55,0,0,1,.34,0l.42.14.51.19.62.23.73.22c.26.07.54.14.85.2s.62.1,1,.14.71,0,1.1,0h.58l.63,0,.71-.08.8-.12.46,0a4.11,4.11,0,0,1,.47.07l.47.11.46.12.42.13.37.11.3.08a.86.86,0,0,0,.21,0c.09,0,.18-.09.28-.22s.21-.29.32-.45a2.37,2.37,0,0,1,.36-.45A.6.6,0,0,1,74,78h.17l.16,0,.16.06.16.07.16.06.18.06.2,0h.24a1.35,1.35,0,0,0,.53-.21c.19-.12.41-.28.63-.44s.43-.3.63-.42a1.33,1.33,0,0,1,.54-.21.78.78,0,0,1,.21,0,1,1,0,0,1,.2.11l.18.14.17.18.16.17.18.15a1.33,1.33,0,0,0,.24.1,1.15,1.15,0,0,0,.33,0l3-.33a1.24,1.24,0,0,1,0,.15v.31c0,.12,0,.25,0,.36a.77.77,0,0,0,.06.26.68.68,0,0,0,.27-.13,5,5,0,0,0,.43-.3c.16-.12.34-.24.53-.36a3.91,3.91,0,0,1,.57-.3,1.58,1.58,0,0,0,.36-.2l.31-.22a1.22,1.22,0,0,1,.29-.17.76.76,0,0,1,.33-.08l.17,0L86,77a1.43,1.43,0,0,1,.21.11,1.48,1.48,0,0,1,.25.16,1.73,1.73,0,0,1,.54-.48,2.43,2.43,0,0,1,.64-.24,6.9,6.9,0,0,1,.78-.14c.29,0,.61-.08,1-.15a1.62,1.62,0,0,1,.57-.71,2.34,2.34,0,0,1,.76-.33,4.43,4.43,0,0,1,.77-.13l.57,0h.81l.64,0,.6.09.7.17.41-2.53.25,0,.36-2.25c.33-.09.62-.19.83-.27s.4-.19.41-.24l.17-1h.52l.52-3.13.92-.11L100,61Z"/><path class="cls-2" d="M53.64,67.91c.21-.15.25-.27.24-.39a1.36,1.36,0,0,0-.16-.35.35.35,0,0,1,0-.38,3.29,3.29,0,0,0,.36-.5.65.65,0,0,0,.1-.33.07.07,0,0,0,0,0v0s0,0,0-.05a.05.05,0,0,0,0,0,.08.08,0,0,0,0,0l0,0,0-.06s0,0,0,0l0-.06a.08.08,0,0,1,0,0l-.07-.06a.08.08,0,0,0,0,0,.3.3,0,0,0-.08-.08l0,0-.15-.12a5,5,0,0,0-.41-.38l-.81-.71c-.3-.24-.6-.49-.84-.66a1.48,1.48,0,0,0-.53-.3,1.8,1.8,0,0,0-.67.11,3.2,3.2,0,0,0-.51.29,5,5,0,0,1-.58.32,3,3,0,0,1-.91.25l-.32,0-.34,0h-.71a22.11,22.11,0,0,1-2.74-.2c-.94-.11-1.87-.26-2.71-.41l-2.2-.41A9.68,9.68,0,0,0,38,63l-.48,0-.69,0c-.26,0-.54,0-.83,0l-.87,0h-1.6l-.09,0h0l-.08,0h0l-.1,0h0l-.07,0h0s0,0,0,0l0,0v0h0a.18.18,0,0,1,0-.19,1,1,0,0,1-.29.2,1.33,1.33,0,0,1-.35.13,2.26,2.26,0,0,1-.39.07,2.75,2.75,0,0,1-.41,0c-.21,0-.42,0-.62,0l-.55-.08-.4-.08-.19,0a5.7,5.7,0,0,0-1.19.1A2.24,2.24,0,0,0,28,63a3.29,3.29,0,0,1-.46.23,2.29,2.29,0,0,1-.75.1c-.18,0-.72-.05-1.44-.08l-2.47-.08-2.39-.06-1.21,0-.23.44-3.93-.87-3.55-.42a5.35,5.35,0,0,1-1.21-.3,2.9,2.9,0,0,1-.6-.34,2,2,0,0,0-.58-.27,4.47,4.47,0,0,0-1.16-.11H7.53l-.63,0-.76,0-.9.09,1-1.18H3.67L4.26,65H5.67l.15,1.29.89-.1.74-.06.62,0h.52a4.4,4.4,0,0,1,1.15.12,1.79,1.79,0,0,1,.57.3,3.24,3.24,0,0,0,.59.36,4.53,4.53,0,0,0,1.2.33l3.5.46,3.87,1,.23-.48,1.19,0,2.36.07,2.43.09c.7,0,1.24,0,1.42.08a2.11,2.11,0,0,0,.73-.11,3.25,3.25,0,0,0,.45-.25,2.55,2.55,0,0,1,.6-.24A5.24,5.24,0,0,1,30,67.64l.19,0,.4.09.54.08a4,4,0,0,0,.61,0,2.61,2.61,0,0,0,.4,0,2.26,2.26,0,0,0,.39-.07l.34-.14a1.28,1.28,0,0,0,.26-.2v.09a.31.31,0,0,0,.18.23,1.77,1.77,0,0,0,.46.15,6,6,0,0,0,.67.07c.25,0,.52,0,.79,0h.86L37,68l.68,0h.47a8.45,8.45,0,0,1,1.25.2l2.17.44c.83.17,1.74.33,2.67.46a21.42,21.42,0,0,0,2.7.21h.7l.33,0,.31,0a3.22,3.22,0,0,0,.9-.27,4,4,0,0,0,.57-.36,2.94,2.94,0,0,1,.5-.31,1.56,1.56,0,0,1,.66-.12,1.4,1.4,0,0,1,.52.32l.3.25c.18-.07.42-.15.74-.24A4.88,4.88,0,0,0,53.64,67.91Z"/><path class="cls-2" d="M51.19,69.35V69.2h0v0s0,0,0,0h0c0,.15,0,.31,0,.47a.56.56,0,0,0,0-.21Z"/><path class="cls-4" d="M48.68,70.68h0s0,0,0,0a1.72,1.72,0,0,0,.93.33c.47.08,1.07.15,1.69.25a12,12,0,0,1,1.84.41,3.19,3.19,0,0,1,1.38.83.83.83,0,0,0,.36-.08l.33-.19a2.21,2.21,0,0,1,.47-.18,3.36,3.36,0,0,1,.81-.1,1,1,0,0,1,.25,0,.65.65,0,0,1,.21.06.72.72,0,0,1,.2.09l.18.1.19.1.21.09.27.06a2.07,2.07,0,0,0,.36,0l.51-.07.36-.07.27,0a1,1,0,0,1,.25,0H60l.24,0,.31.06.39.09a1.18,1.18,0,0,1,.1-.27.59.59,0,0,1,.13-.17.39.39,0,0,1,.16-.1.66.66,0,0,1,.21,0,1.55,1.55,0,0,1,.34.05l.43.12.53.18.63.21c.23.07.48.14.74.2s.56.13.87.19l1,.13c.35,0,.72,0,1.11,0l.6,0,.64,0,.72-.08c.26,0,.53-.06.82-.11a3.55,3.55,0,0,1,.46,0l.49.07.48.1.47.11.43.12.37.1.31.07.21,0a.49.49,0,0,0,.29-.21c.1-.11.21-.27.32-.42a2.4,2.4,0,0,1,.36-.41.66.66,0,0,1,.4-.21l.17,0,.16,0,.17.06.16.06.17.06.18,0,.21,0H76a1.44,1.44,0,0,0,.54-.2c.2-.11.42-.25.64-.4s.44-.28.64-.39a1.39,1.39,0,0,1,.55-.19.52.52,0,0,1,.21,0,.72.72,0,0,1,.2.09,1.33,1.33,0,0,1,.19.14l.18.16.16.16.19.13a1.33,1.33,0,0,0,.24.1,1.22,1.22,0,0,0,.34,0l3.1-.31V72a2.79,2.79,0,0,0,0,.29c0,.11,0,.22,0,.33a.64.64,0,0,0,.06.24.6.6,0,0,0,.28-.12L84,72.5l.54-.33a3.75,3.75,0,0,1,.57-.28,1.82,1.82,0,0,0,.37-.18l.31-.2a2.28,2.28,0,0,1,.3-.17.88.88,0,0,1,.33-.06h.18l.2.06.22.1.25.15a1.69,1.69,0,0,1,.54-.44,2.63,2.63,0,0,1,.65-.23,7.59,7.59,0,0,1,.8-.12c.29,0,.62-.08,1-.15a1.48,1.48,0,0,1,.57-.64,2.37,2.37,0,0,1,.77-.32,5.84,5.84,0,0,1,.78-.11l.59,0h.82l.65,0c.2,0,.4,0,.61.08l.72.16c0-.07-.12-.14-.29-.21a3.76,3.76,0,0,0-.59-.18l-.61-.12-.31,0a.82.82,0,0,1,0-.29,1.41,1.41,0,0,1,.23-.56,1.73,1.73,0,0,1,.71-.59,4.31,4.31,0,0,1,1.48-.36,1.47,1.47,0,0,0-.6-.3l-1.12-.4a8.1,8.1,0,0,1-1.07-.44c-.28-.15-.46-.31-.45-.46h.62l.31,0,.18,0,.27,0,.19,0,.24,0h0l.17,0,.18,0h0l.19,0h0c.35-.06.68-.13,1-.2a10.35,10.35,0,0,0,1.07-.31c.25-.1.38-.18.36-.22a3.52,3.52,0,0,0-.55-.27l-.62-.2c-.21-.07-.4-.13-.57-.2a1.1,1.1,0,0,1-.4-.25h2.82c-.45-.17-.81-.32-1.1-.46a4.07,4.07,0,0,1-.47-.24,1.87,1.87,0,0,1-.63-.51,1.51,1.51,0,0,1-.2-.51,2.75,2.75,0,0,0-.28-.65l1.86.21a1.87,1.87,0,0,1,.23-.36.7.7,0,0,1,.31-.2,3.3,3.3,0,0,1,.6-.13L100,61a3,3,0,0,0-.77-.69,2.59,2.59,0,0,0-.33-.19l-.6-.29c-.34-.14-.69-.29-1-.46a7,7,0,0,1-1.07-.64H97l.09,0h.11l0,0a.31.31,0,0,0,.16-.13.35.35,0,0,0,0-.23c0-.08,0-.17,0-.25a1.09,1.09,0,0,1,0-.18v0a.08.08,0,0,1,0,0h0l0-.06h0l0,0,0,0,0,0,0,0,.06,0h0l.07,0,0,0,.12,0h0l.16,0h.05l.12,0h1.12L98.81,57a7.13,7.13,0,0,1-.93-.72.83.83,0,0,1-.32-.53c0-.14,0-.25,0-.41a1.3,1.3,0,0,0-.41-.65,11,11,0,0,1-1.28-.09c-.42-.06-.82-.13-1.17-.21s-.63-.15-.83-.21l-.17-.06-.13-.05.07-.07,0,0,0,0v0a.08.08,0,0,0,0,0v0a.25.25,0,0,0-.07-.24.92.92,0,0,0-.24-.17l-.26-.15c-.18-.09-.32-.18-.3-.28h0s0,0,0,0a0,0,0,0,1,0,0l0,0,0,0,0,0,0,0,0,0,0,0,0,0,.07,0h0l.1,0h0l.17,0-1.5-.53a6.38,6.38,0,0,1-.84-.33.71.71,0,0,1-.35-.33,1.12,1.12,0,0,1,0-.5l-.59,0-.52,0-.46,0h-.39A7.08,7.08,0,0,1,87.64,51c-.35,0-.68-.12-1.1-.21s-1-.17-1.69-.26-1.44-.15-2.47-.21l-.53,0L82,50.2l.07-.05h0a1.24,1.24,0,0,0,.18-.14h0l0,0s0,0,0-.05l0,0,0-.05,0,0a.08.08,0,0,0,0,0l0,0s0,0,0,0h0c0-.11,0-.21-.21-.31a2,2,0,0,0-.55-.2l-.4-.08.06-.07,0,0,.05,0h0l.18-.12h0a.12.12,0,0,0,0,0h0l0,0v0h0a.16.16,0,0,0-.07-.13,3.64,3.64,0,0,0-.41-.19l-.73-.29a6.17,6.17,0,0,1-.72-.32.88.88,0,0,1-.39-.29l-.72-.21-.47-.17a2.44,2.44,0,0,1-.32-.15l-.28-.13a3.82,3.82,0,0,1-.56-.38,1.68,1.68,0,0,1-.3-.29,1.25,1.25,0,0,1-.14-.2.72.72,0,0,0-.07-.11,3.71,3.71,0,0,0-.46-.13l-.55-.12-.58-.1-.6-.08h-.15l-.14,0h-.48l-.22,0-.23,0-.29,0a.47.47,0,0,1-.16,0l-.08-.06-.13-.07a2,2,0,0,0-.33-.07h-.26l-.35,0-.32,0-.3-.06-.29-.09L70,45l-.78,0-1-.06-1.29-.1-.45,0h-.37l-.34,0h-.41l-.16,0-.15.06-.14.07a.52.52,0,0,1-.16.06l-.09,0h-.48a.84.84,0,0,0-.31-.18l-.57-.2-.58-.21a1.27,1.27,0,0,1-.37-.22l-.16,0-.12,0-.16,0-.29,0a1.63,1.63,0,0,1-.35,0l-.43-.11a3.63,3.63,0,0,0-.45-.1,2,2,0,0,0-.4,0h-.13l-.2,0-.28,0-.33,0-.39,0-.43,0-.45,0h-1.2L55.87,44a6.45,6.45,0,0,1-.66-.12,3.29,3.29,0,0,1-.58-.19H53.54l-.18,0-.17,0a1.27,1.27,0,0,0-.37-.18,3,3,0,0,0-.43-.07l-.47,0a5.06,5.06,0,0,1-.52-.08l-.52,0-.48,0-.47,0h-1l-1.24-.06-1.58,0-1.59,0-1.27,0-.13-.12L43,43l-.13-.06a.35.35,0,0,0-.14,0h-.13l0,0-.22.1-.15.09-.12.08-.08.07a.32.32,0,0,1-.15.05,1.71,1.71,0,0,1-.25,0l-.28,0H41l-.14,0-.11,0-.13,0H40.5l-.41-.11-.37-.07-.35,0h-.72q-.1,0-.09,0h.07l0,0h0l.06,0h0l0,0h0l.06,0h0l0,0h0l0,0s0,0-.06.06h-.35c-.33,0-.6,0-.83,0a4,4,0,0,0-.75.1,2,2,0,0,0-.48.18,2.41,2.41,0,0,0-.36.29h-.3a4.14,4.14,0,0,0-.45,0l-.57.1-.77.11c-.29,0-.63.07-1,.09v.11h0v.13a.42.42,0,0,1-.06.14.33.33,0,0,1-.14.11h0l0,0h0l0,0h0l0,0h0s0,0,0,.07a.49.49,0,0,1-.17,0l-.1,0-.43.06-.43.07a1,1,0,0,0-.3.1s-.06,0-.05.06,0,0,0,0h0a.05.05,0,0,0,0,0h.08l.07,0h0l0,0h0a0,0,0,0,1,0,0s0,0,0,0a.69.69,0,0,1-.19.07l-.06,0-.17.06a.37.37,0,0,0-.17.13.2.2,0,0,0,0,.16h0a.13.13,0,0,0,0,.06h0l-.14.06-.24.06-.22.06-.12,0-.07,0a.17.17,0,0,0-.1.06s0,0,0,0a0,0,0,0,0,0,0h0l0,0h0l.07,0h.05l.08,0-.25,0a3,3,0,0,0-.42.14,1.38,1.38,0,0,0-.39.23,1,1,0,0,0-.2.24,1.26,1.26,0,0,0-.08.18h-.52l-.54,0-.43,0-.29,0-.12,0,.16.4h-.14l-.95.08-.9,0-.74,0H22.91l-.14,0a5.43,5.43,0,0,1-.55.12c-.23,0-.5.06-.83.08l-1.15.06-1.51,0a2,2,0,0,0-.32,0l-.39.07-.56.07c-.22,0-.48,0-.79,0a5.33,5.33,0,0,1-.69-.13,5.12,5.12,0,0,1-.59-.21l-.61-.24a7.34,7.34,0,0,0-.78-.24l-3.06-.3a4.32,4.32,0,0,1-.57-.14l-.45-.15-.53-.14c-.2-.05-.44-.09-.75-.14l-2.2-.28a2.77,2.77,0,0,1-.8-.27,3,3,0,0,1-.53-.34,2.32,2.32,0,0,0-.44-.28,1.09,1.09,0,0,0-.53-.12H3.91l-.09,0a3.38,3.38,0,0,0-.56.5,1.09,1.09,0,0,0-.13.17,1.34,1.34,0,0,0-.22.38.93.93,0,0,0-.06.46s0,0,0,.08v0s0,0,0,0a.41.41,0,0,0,.05.09l0,0a.6.6,0,0,0,.08.08.08.08,0,0,0,0,0l0,0,.13.09.56.13.45.11c.15,0,.3.06.48.08s.38.06.64.08l.23.18a.91.91,0,0,0,.22.11,1.25,1.25,0,0,0,.31.1l.53.13-1.26.11L4.65,49A5.06,5.06,0,0,0,4,49.1c-.18,0-.39.12-.65.22l-.21.08.16,0h0l.27.07c.07,0,.06.07,0,.11s-.07.07-.08.11,0,.08.13.11a2.21,2.21,0,0,0,.35.08c.11,0,.22,0,.33,0l.32,0A1.59,1.59,0,0,1,5,50,.89.89,0,0,0,5.26,50a.23.23,0,0,0,.11,0,.09.09,0,0,0,0-.06v0l.09,0,.21,0,.29,0h.34a.38.38,0,0,0,.13.18,1.13,1.13,0,0,0,.22.11l.27,0h.59s0,.07-.1.11l-.18.13a.73.73,0,0,0-.15.11s0,.06,0,.07.2.08.19.13a.4.4,0,0,1-.16.16,1.91,1.91,0,0,0-.21.15c-.06,0-.07.07,0,.08h.22l.2-.05.19,0,.17-.07.16-.06A.44.44,0,0,1,8,50.7l.17,0h.74l-.27.28a.37.37,0,0,0-.12.19.33.33,0,0,0,0,.2,3,3,0,0,0,.18.29H7.83l-.35,0c0,.1-.15.2-.43.3a10.31,10.31,0,0,1-1,.28l-1.11.24a2.31,2.31,0,0,0-.58.17,1.28,1.28,0,0,0-.24.26l-.18.23-.18.27a4.18,4.18,0,0,0-.29.54.62.62,0,0,0-.07.28h0a.11.11,0,0,0,0,.06l0,0H2.08l-.66,0-.51,0H.67A2.31,2.31,0,0,0,0,55a.36.36,0,0,0,0,.22s0,0,0,.06v0l0,.05,0,0,.06.06h0l.07,0H.26l.08,0,0,0,.11,0h0l.15,0h0l.13,0H.9l.16,0h.05l.21,0H1.4l.19,0h.09l.21,0H2l.3,0h0l.28,0h.11l.26,0h.11l.39,0,0-.07a.88.88,0,0,1-.05-.15s0,0,0-.07v0a.06.06,0,0,1,0,0v0h0l0,0h0a.09.09,0,0,1,.07,0l.13,0,.11,0H4l0,0h0l0,0h0s0,0,0,0h0a.31.31,0,0,1-.07.21A1.12,1.12,0,0,1,3.9,56l-.12.12.54.09h0l.19,0h0l.15,0h0l.11,0,.09,0H5l.09,0h0l0,0h0s0,0,0,0-.16.12-.38.18a4,4,0,0,0-.83.27c-.21.12-.3.27,0,.5L6,57.2a2.73,2.73,0,0,0-.47,1,2.6,2.6,0,0,0,0,.44c0,.12-.09.25-.35.48a10.88,10.88,0,0,1-1,.76l-.12.09L4,60l-.28.2,0,0h2.6l-1,1.18.9-.09.76,0,.63,0h.52a4.47,4.47,0,0,1,1.16.11,2,2,0,0,1,.58.27,2.9,2.9,0,0,0,.6.34,5.35,5.35,0,0,0,1.21.3l3.55.42,3.93.87.23-.44,1.21,0,2.39.06,2.47.08c.72,0,1.26.06,1.44.08a2.29,2.29,0,0,0,.75-.1A3.29,3.29,0,0,0,28,63a2.24,2.24,0,0,1,.6-.22,5.7,5.7,0,0,1,1.19-.1l.19,0,.4.08.55.08c.2,0,.41,0,.62,0a2.75,2.75,0,0,0,.41,0,2.26,2.26,0,0,0,.39-.07,1.33,1.33,0,0,0,.35-.13,1,1,0,0,0,.29-.2.18.18,0,0,0,0,.19h0v0l0,0s0,0,0,0h0l.07,0h0l.1,0h0l.08,0h0l.09,0h.06l.09,0h1.45L36,63c.29,0,.57,0,.83,0l.69,0L38,63a9.68,9.68,0,0,1,1.27.19l2.2.41c.84.15,1.77.3,2.71.41a22.11,22.11,0,0,0,2.74.2h.71l.34,0,.32,0a3,3,0,0,0,.91-.25,5,5,0,0,0,.58-.32,3.2,3.2,0,0,1,.51-.29A1.8,1.8,0,0,1,51,63.1a1.48,1.48,0,0,1,.53.3c.24.17.54.42.84.66l.81.71a5,5,0,0,1,.41.38l.15.12,0,0a.3.3,0,0,1,.08.08.08.08,0,0,1,0,0l.07.06a.08.08,0,0,0,0,0l0,0v0s0,0,0,0l0,.06,0,0a.08.08,0,0,1,0,0,.05.05,0,0,1,0,0s0,0,0,.05v0h0v0a.65.65,0,0,1-.1.33,3.29,3.29,0,0,1-.36.5.35.35,0,0,0,0,.38,1.36,1.36,0,0,1,.16.35c0,.12,0,.24-.24.39a4.88,4.88,0,0,1-1.22.5c-.32.09-.56.17-.74.24l-.24.11c-.18.11-.25.2-.27.3s0,0,0,.06,0,0,0,0v.19h0v0a.64.64,0,0,1-.12.36,2.52,2.52,0,0,1-.68.24l-.87.18a2.43,2.43,0,0,0-.68.23c-.12.06-.18.14-.17.24h0S48.68,70.67,48.68,70.68Z"/><ellipse class="cls-4" cx="46.23" cy="48.91" rx="18.95" ry="4.91"/><path class="cls-1" d="M55.68,31.4l1.68-1.68c-3.13-5-7-9-11.13-9S38.17,24.76,35,29.84l1.55,1.56Z"/><path class="cls-4" d="M57.36,29.72,55.68,31.4h0l-.86.86.86-.86H36.58l1.07,1.07L36.58,31.4h0L35,29.84c-4.7,7.62-7.75,17.44-7.75,19.07,0,2.71,8.48,4.9,18.95,4.9s19-2.19,19-4.9C65.19,47.27,62.1,37.35,57.36,29.72Z"/><circle class="cls-1" cx="37.49" cy="31.4" r="2.91"/><circle class="cls-1" cx="43.32" cy="31.4" r="2.91"/><circle class="cls-1" cx="49.14" cy="31.4" r="2.91"/><circle class="cls-1" cx="54.97" cy="31.4" r="2.91"/><circle class="cls-1" cx="35.81" cy="36.1" r="0.53"/><circle class="cls-1" cx="37.72" cy="39.25" r="0.53"/><circle class="cls-1" cx="46.31" cy="39.25" r="0.53"/><circle class="cls-1" cx="54.9" cy="39.25" r="0.53"/><circle class="cls-1" cx="40" cy="36.1" r="0.53"/><circle class="cls-1" cx="44.19" cy="36.1" r="0.53"/><circle class="cls-1" cx="48.38" cy="36.1" r="0.53"/><circle class="cls-1" cx="52.57" cy="36.1" r="0.53"/><circle class="cls-1" cx="56.76" cy="36.1" r="0.53"/><ellipse class="cls-4" cx="29.35" cy="50.22" rx="11.06" ry="2.86"/><path class="cls-1" d="M34.86,40l1-1c-1.83-2.93-4.07-5.28-6.49-5.28s-4.71,2.39-6.54,5.35l.91.91Z"/><path class="cls-4" d="M35.84,39l-1,1h0l-.5.5.5-.5H23.72l.62.62L23.72,40h0l-.91-.91c-2.74,4.44-4.52,10.18-4.52,11.13,0,1.58,4.95,2.86,11.06,2.86s11.06-1.28,11.06-2.86C40.41,49.26,38.6,43.47,35.84,39Z"/><circle class="cls-1" cx="24.25" cy="40" r="1.7"/><circle class="cls-1" cx="27.65" cy="40" r="1.7"/><circle class="cls-1" cx="31.05" cy="40" r="1.7"/><circle class="cls-1" cx="34.45" cy="40" r="1.7"/><circle class="cls-1" cx="23.27" cy="42.74" r="0.31"/><circle class="cls-1" cx="24.38" cy="44.58" r="0.31"/><circle class="cls-1" cx="29.39" cy="44.58" r="0.31"/><circle class="cls-1" cx="34.41" cy="44.58" r="0.31"/><circle class="cls-1" cx="25.71" cy="42.74" r="0.31"/><circle class="cls-1" cx="28.16" cy="42.74" r="0.31"/><circle class="cls-1" cx="30.6" cy="42.74" r="0.31"/><circle class="cls-1" cx="33.05" cy="42.74" r="0.31"/><circle class="cls-1" cx="35.49" cy="42.74" r="0.31"/><ellipse class="cls-1" cx="74.86" cy="62.96" rx="6.91" ry="1.84"/><ellipse class="cls-1" cx="87.06" cy="59.3" rx="3.32" ry="0.88"/></svg>