<svg id="Layer_1" data-name="Layer 1" xmlns="http://www.w3.org/2000/svg" viewBox="0 0 100 100"><defs><style>.cls-1{fill:#ffc640;}.cls-2{fill:#3e3e3f;}</style></defs><title>storm</title><polyline class="cls-1" points="38.18 70.51 45.54 70.51 35.61 98.28 64.15 61 52.54 61 61.75 42.74 49.58 42.74"/><rect class="cls-2" y="23.7" width="100" height="29.32" rx="5.65" ry="5.65"/><circle class="cls-2" cx="30.28" cy="21.85" r="20.14"/><circle class="cls-2" cx="60.85" cy="23.7" r="13.14"/><path class="cls-1" d="M29.76,46.91a29.42,29.42,0,0,1-16.08,0,29.42,29.42,0,0,1,16.08,0Z"/><path class="cls-1" d="M39.46,50.13a8.09,8.09,0,0,1-3.85,1.07,8.14,8.14,0,0,1-3.85-1.07,8.14,8.14,0,0,1,3.85-1.07A8.09,8.09,0,0,1,39.46,50.13Z"/><path class="cls-1" d="M87.07,50.13a7.46,7.46,0,0,1-7.7,0,7.46,7.46,0,0,1,7.7,0Z"/></svg>