<svg id="Layer_1" data-name="Layer 1" xmlns="http://www.w3.org/2000/svg" viewBox="0 0 100 100"><defs><style>.cls-1{fill:#895e59;}.cls-2{fill:#ffc63f;}.cls-3{fill:#00a69c;}.cls-4{fill:#5a9eba;}.cls-5{fill:#6ab8d9;}.cls-6{fill:#447d93;}.cls-7{fill:#ebf7fd;}</style></defs><title>archipelago</title><path class="cls-1" d="M43.57,23.72l2.62,1.07a.71.71,0,0,1,0,1.32l-1.81.7a.72.72,0,0,1-.91-.36l-.81-1.77A.72.72,0,0,1,43.57,23.72Z"/><path class="cls-1" d="M42.85,26.16l2.79.43a.71.71,0,0,1,.3,1.29L44.34,29a.7.7,0,0,1-1-.14l-1.2-1.53A.72.72,0,0,1,42.85,26.16Z"/><path class="cls-1" d="M42.66,28.75l2.81-.28a.71.71,0,0,1,.61,1.17l-1.27,1.47a.7.7,0,0,1-1,.1L42.3,30A.72.72,0,0,1,42.66,28.75Z"/><path class="cls-1" d="M43.05,31l2.68-.87a.71.71,0,0,1,.85,1l-.93,1.7a.71.71,0,0,1-.93.3L43,32.28A.71.71,0,0,1,43.05,31Z"/><path class="cls-1" d="M44.76,21.24l2.42,1.63a.74.74,0,0,1-.29,1.34l-2,.33a.74.74,0,0,1-.84-.57L43.63,22A.74.74,0,0,1,44.76,21.24Z"/><path class="cls-2" d="M70.38,40c0-.51-3.12-3.61-7.91-6a25.51,25.51,0,0,0-11.25-2.83A25.53,25.53,0,0,0,39.9,34.06c-4.75,2.37-7.83,5.44-7.83,5.95Z"/><path class="cls-3" d="M40.15,19.3a7.54,7.54,0,0,0-4.9,3l10.52-1.86A7.56,7.56,0,0,0,40.15,19.3Z"/><path class="cls-3" d="M41.2,21.64a6.76,6.76,0,0,0-2.92,5.6l9.22-5.95A6.73,6.73,0,0,0,41.2,21.64Z"/><path class="cls-3" d="M49.84,24.38a4.94,4.94,0,0,0-3.4-2.25l4,6.27A4.94,4.94,0,0,0,49.84,24.38Z"/><path class="cls-3" d="M50.66,22a6.06,6.06,0,0,0-5.15,0L54,25.92A6.08,6.08,0,0,0,50.66,22Z"/><path class="cls-3" d="M44.26,20.45A1.82,1.82,0,1,1,47.4,22.3"/><rect class="cls-4" x="28.82" y="36.2" width="71.18" height="15.74" rx="3.95" ry="3.95"/><polyline class="cls-4" points="69.09 78.27 97.54 49.82 97.54 40.07 95.81 37.59 51.73 58.99"/><path class="cls-5" d="M32.67,37.12,3,66.76H68.14L97,37.9h-.07a7.74,7.74,0,0,0-4.81-1.7H36.69a7.66,7.66,0,0,0-3.61.93"/><path class="cls-6" d="M63.31,65.08H7.87a7.87,7.87,0,0,0,0,15.74H63.31a7.87,7.87,0,0,0,0-15.74Z"/><path class="cls-7" d="M35.84,44.61s-.46-4.4,7.28-5.83,11.57-1.15,13.57,1.57A35.87,35.87,0,0,1,47.5,43a6.18,6.18,0,0,1,3.35,4"/><path class="cls-2" d="M34.78,44.35s-.45-4.4,7.28-5.83,11.57-1.15,13.57,1.57a35.72,35.72,0,0,1-9.19,2.6,6.11,6.11,0,0,1,3.12,2.92"/><ellipse class="cls-7" cx="39.9" cy="49.84" rx="14.75" ry="2.82"/><path class="cls-2" d="M53.61,49c0-.37-2.25-2.6-5.7-4.32a18.44,18.44,0,0,0-8.11-2,18.5,18.5,0,0,0-8.16,2.06C28.22,46.44,26,48.66,26,49c0,0,0,0,0,.06a.57.57,0,0,0,0,.14C26,50.78,32.18,52,39.8,52s13.81-1.26,13.81-2.82a.33.33,0,0,0,0-.14S53.61,49,53.61,49Z"/><circle class="cls-7" cx="32.24" cy="47.16" r="0.37"/><circle class="cls-7" cx="33.57" cy="49.34" r="0.37"/><circle class="cls-7" cx="39.53" cy="49.34" r="0.37"/><circle class="cls-7" cx="45.49" cy="49.34" r="0.37"/><circle class="cls-7" cx="35.15" cy="47.16" r="0.37"/><circle class="cls-7" cx="40.97" cy="47.16" r="0.37"/><circle class="cls-7" cx="37.89" cy="47.16" r="0.37"/><circle class="cls-7" cx="43.88" cy="47.16" r="0.37"/><circle class="cls-7" cx="46.78" cy="47.16" r="0.37"/><ellipse class="cls-7" cx="54.65" cy="56.76" rx="20.75" ry="3.97"/><path class="cls-2" d="M73.93,55.6c0-.52-3.16-3.66-8-6.07a25.88,25.88,0,0,0-11.4-2.87A25.94,25.94,0,0,0,43,49.57c-4.81,2.41-7.94,5.52-7.94,6,0,0,0,0,0,.08a.73.73,0,0,0,0,.2c0,2.19,8.7,4,19.42,4s19.42-1.78,19.42-4a.73.73,0,0,0-.05-.2S73.93,55.63,73.93,55.6Z"/><circle class="cls-7" cx="43.88" cy="52.98" r="0.52"/><circle class="cls-7" cx="45.74" cy="56.05" r="0.52"/><circle class="cls-7" cx="54.13" cy="56.05" r="0.52"/><circle class="cls-7" cx="62.52" cy="56.05" r="0.52"/><circle class="cls-7" cx="47.97" cy="52.98" r="0.52"/><circle class="cls-7" cx="56.15" cy="52.98" r="0.52"/><circle class="cls-7" cx="51.82" cy="52.98" r="0.52"/><circle class="cls-7" cx="60.24" cy="52.98" r="0.52"/><circle class="cls-7" cx="64.33" cy="52.98" r="0.52"/><ellipse class="cls-7" cx="76.26" cy="42.69" rx="11.12" ry="2.13"/><path class="cls-2" d="M86.59,42.07c0-.28-1.69-2-4.3-3.25a12.9,12.9,0,0,0-12.26,0c-2.58,1.29-4.26,3-4.26,3.23,0,0,0,0,0,0a.45.45,0,0,0,0,.11c0,1.18,4.66,2.13,10.41,2.13s10.41-1,10.41-2.13c0,0,0-.07,0-.11S86.59,42.09,86.59,42.07Z"/><circle class="cls-7" cx="70.48" cy="40.66" r="0.28"/><circle class="cls-7" cx="71.48" cy="42.31" r="0.28"/><circle class="cls-7" cx="75.98" cy="42.31" r="0.28"/><circle class="cls-7" cx="80.47" cy="42.31" r="0.28"/><circle class="cls-7" cx="72.67" cy="40.66" r="0.28"/><circle class="cls-7" cx="77.06" cy="40.66" r="0.28"/><circle class="cls-7" cx="74.74" cy="40.66" r="0.28"/><circle class="cls-7" cx="79.25" cy="40.66" r="0.28"/><circle class="cls-7" cx="81.45" cy="40.66" r="0.28"/><path class="cls-1" d="M63.56,41.42l-2.62,1.06a.72.72,0,0,0,0,1.33l1.81.7a.72.72,0,0,0,.91-.37l.8-1.76A.71.71,0,0,0,63.56,41.42Z"/><path class="cls-1" d="M64.28,43.86l-2.79.43a.71.71,0,0,0-.3,1.29l1.59,1.1a.72.72,0,0,0,1-.15L65,45A.71.71,0,0,0,64.28,43.86Z"/><path class="cls-1" d="M64.47,46.45l-2.81-.29a.71.71,0,0,0-.61,1.18l1.27,1.47a.71.71,0,0,0,1,.1l1.54-1.18A.72.72,0,0,0,64.47,46.45Z"/><path class="cls-1" d="M64.08,48.66l-2.68-.88a.71.71,0,0,0-.85,1l.93,1.71a.71.71,0,0,0,.93.3L64.17,50A.71.71,0,0,0,64.08,48.66Z"/><path class="cls-1" d="M62.37,38.94,60,40.56a.74.74,0,0,0,.29,1.35l2,.32a.74.74,0,0,0,.84-.56l.44-2A.73.73,0,0,0,62.37,38.94Z"/><path class="cls-3" d="M67,37a7.59,7.59,0,0,1,4.9,3L61.36,38.14A7.55,7.55,0,0,1,67,37Z"/><path class="cls-3" d="M65.93,39.34a6.75,6.75,0,0,1,2.92,5.6L59.63,39A6.7,6.7,0,0,1,65.93,39.34Z"/><path class="cls-3" d="M57.29,42.07a5,5,0,0,1,3.39-2.24l-4,6.26A4.91,4.91,0,0,1,57.29,42.07Z"/><path class="cls-3" d="M56.47,39.67a6.1,6.1,0,0,1,5.15,0l-8.46,3.94A6.1,6.1,0,0,1,56.47,39.67Z"/><path class="cls-3" d="M62.87,38.14A1.82,1.82,0,0,0,59.73,40"/><polygon class="cls-4" points="18.4 59.08 27.36 59.08 22.89 57.93 18.4 59.08"/><polygon class="cls-4" points="33.04 62.82 42 62.82 37.52 61.66 33.04 62.82"/><polygon class="cls-4" points="53.04 63.39 57.52 63.39 55.28 62.24 53.04 63.39"/><polygon class="cls-4" points="67.4 48.94 71.88 48.94 69.64 47.78 67.4 48.94"/><polygon class="cls-4" points="35.28 38 39.76 38 37.52 36.84 35.28 38"/></svg>