<svg id="Layer_1" data-name="Layer 1" xmlns="http://www.w3.org/2000/svg" viewBox="0 0 100 100"><defs><style>.cls-1{fill:#707070;}.cls-2{fill:#545454;}.cls-3{fill:#7a7c7f;}.cls-4{fill:#895e59;}.cls-5{fill:#87898b;}</style></defs><title>armor</title><path class="cls-1" d="M13.69,27.47H86.31a13.73,13.73,0,0,1,12.46,8.06A13.58,13.58,0,0,0,100,29.91,13.73,13.73,0,0,0,86.31,16.22H13.69A13.73,13.73,0,0,0,0,29.91a13.58,13.58,0,0,0,1.23,5.62A13.73,13.73,0,0,1,13.69,27.47Z"/><path class="cls-2" d="M13.69,37.43H86.31a13.73,13.73,0,0,0,12.46-8.06,13.73,13.73,0,0,0-12.46-8.06H13.69A13.73,13.73,0,0,0,1.23,29.37,13.73,13.73,0,0,0,13.69,37.43Z"/><rect class="cls-3" x="16.71" y="31.76" width="65.89" height="63.34" rx="12" ry="12"/><rect class="cls-4" x="21.66" y="4.9" width="10.63" height="40.79" rx="1.98" ry="1.98"/><rect class="cls-4" x="71.97" y="4.9" width="10.63" height="40.79" rx="1.98" ry="1.98"/><rect class="cls-5" x="9.98" y="20.63" width="80.28" height="41.06" rx="8.27" ry="8.27"/><circle class="cls-2" cx="22.38" cy="65.24" r="1.03"/><circle class="cls-2" cx="30.43" cy="65.24" r="1.03"/><circle class="cls-2" cx="46.55" cy="65.24" r="1.03"/><circle class="cls-2" cx="38.02" cy="65.24" r="1.03"/><circle class="cls-2" cx="54.6" cy="65.24" r="1.03"/><circle class="cls-2" cx="62.66" cy="65.24" r="1.03"/><circle class="cls-2" cx="69.79" cy="65.24" r="1.03"/><circle class="cls-2" cx="26.29" cy="70.04" r="1.03"/><circle class="cls-2" cx="34.35" cy="70.04" r="1.03"/><circle class="cls-2" cx="50.46" cy="70.04" r="1.03"/><circle class="cls-2" cx="41.94" cy="70.04" r="1.03"/><circle class="cls-2" cx="58.52" cy="70.04" r="1.03"/><circle class="cls-2" cx="66.57" cy="70.04" r="1.03"/><circle class="cls-2" cx="73.71" cy="70.04" r="1.03"/><circle class="cls-2" cx="76.93" cy="65.24" r="1.03"/><circle class="cls-2" cx="22.38" cy="74.06" r="1.03"/><circle class="cls-2" cx="30.43" cy="74.06" r="1.03"/><circle class="cls-2" cx="46.55" cy="74.06" r="1.03"/><circle class="cls-2" cx="38.02" cy="74.06" r="1.03"/><circle class="cls-2" cx="54.6" cy="74.06" r="1.03"/><circle class="cls-2" cx="62.66" cy="74.06" r="1.03"/><circle class="cls-2" cx="69.79" cy="74.06" r="1.03"/><circle class="cls-2" cx="26.29" cy="78.86" r="1.03"/><circle class="cls-2" cx="34.35" cy="78.86" r="1.03"/><circle class="cls-2" cx="50.46" cy="78.86" r="1.03"/><circle class="cls-2" cx="41.94" cy="78.86" r="1.03"/><circle class="cls-2" cx="58.52" cy="78.86" r="1.03"/><circle class="cls-2" cx="66.57" cy="78.86" r="1.03"/><circle class="cls-2" cx="73.71" cy="78.86" r="1.03"/><circle class="cls-2" cx="76.93" cy="74.06" r="1.03"/><circle class="cls-2" cx="30.44" cy="82.57" r="1.03"/><circle class="cls-2" cx="46.55" cy="82.57" r="1.03"/><circle class="cls-2" cx="38.03" cy="82.57" r="1.03"/><circle class="cls-2" cx="54.61" cy="82.57" r="1.03"/><circle class="cls-2" cx="62.66" cy="82.57" r="1.03"/><circle class="cls-2" cx="69.8" cy="82.57" r="1.03"/><circle class="cls-2" cx="30.44" cy="88.37" r="1.03"/><circle class="cls-2" cx="46.55" cy="88.37" r="1.03"/><circle class="cls-2" cx="38.03" cy="88.37" r="1.03"/><circle class="cls-2" cx="54.61" cy="88.37" r="1.03"/><circle class="cls-2" cx="62.66" cy="88.37" r="1.03"/><circle class="cls-2" cx="69.8" cy="88.37" r="1.03"/><polygon class="cls-2" points="42.96 61.69 57.49 61.69 50.46 55.14 42.96 61.69"/></svg>