<svg id="Layer_1" data-name="Layer 1" xmlns="http://www.w3.org/2000/svg" viewBox="0 0 100 100"><defs><style>.cls-1{fill:#fff;}.cls-2{fill:#c1c3c5;}.cls-3{fill:#ffc640;}.cls-4{fill:#f37d3b;}.cls-5{fill:#6ab8d9;}.cls-6{fill:#bcd2de;}.cls-7{fill:#b8b8b8;}.cls-8{fill:#d6d6d6;}</style></defs><title>astronaut</title><rect class="cls-1" x="8.92" y="64.93" width="10.95" height="34.86" rx="2.4" ry="2.4"/><rect class="cls-2" x="7.94" y="82.61" width="12.9" height="3.53" rx="0.77" ry="0.77"/><rect class="cls-2" x="7.94" y="85.51" width="12.9" height="3.53" rx="0.77" ry="0.77"/><rect class="cls-2" x="7.94" y="88.4" width="12.9" height="3.53" rx="0.77" ry="0.77"/><rect class="cls-1" x="34.98" y="64.93" width="10.95" height="34.86" rx="2.4" ry="2.4" transform="translate(80.92 164.73) rotate(180)"/><rect class="cls-2" x="34.01" y="82.61" width="12.9" height="3.53" rx="0.77" ry="0.77" transform="translate(80.92 168.76) rotate(-180)"/><rect class="cls-2" x="34.01" y="85.51" width="12.9" height="3.53" rx="0.77" ry="0.77" transform="translate(80.92 174.54) rotate(180)"/><rect class="cls-2" x="34.01" y="88.4" width="12.9" height="3.53" rx="0.77" ry="0.77" transform="translate(80.92 180.33) rotate(-180)"/><circle class="cls-2" cx="43.35" cy="52.36" r="7.83"/><path class="cls-1" d="M41.43,53.1V73.26a5.48,5.48,0,1,0,11,0V53.1Z"/><rect class="cls-2" x="40.46" y="57.53" width="12.9" height="3.53" rx="0.77" ry="0.77"/><rect class="cls-2" x="40.46" y="54.64" width="12.9" height="3.53" rx="0.77" ry="0.77"/><rect class="cls-2" x="40.46" y="51.75" width="12.9" height="3.53" rx="0.77" ry="0.77"/><circle class="cls-2" cx="10.01" cy="52.36" r="7.83"/><path class="cls-1" d="M11.93,53.1V73.26a5.48,5.48,0,0,1-11,0V53.1Z"/><rect class="cls-2" y="57.53" width="12.9" height="3.53" rx="0.77" ry="0.77" transform="translate(12.9 118.59) rotate(180)"/><rect class="cls-2" y="54.64" width="12.9" height="3.53" rx="0.77" ry="0.77" transform="translate(12.9 112.81) rotate(180)"/><rect class="cls-2" y="51.75" width="12.9" height="3.53" rx="0.77" ry="0.77" transform="translate(12.9 107.02) rotate(-180)"/><rect class="cls-1" x="8.92" y="40.99" width="37.02" height="43.84" rx="8.12" ry="8.12"/><rect class="cls-3" x="31.36" y="52.83" width="9.1" height="1.77" rx="0.39" ry="0.39"/><rect class="cls-4" x="31.36" y="55.56" width="9.1" height="1.77" rx="0.39" ry="0.39"/><rect class="cls-5" x="31.36" y="58.61" width="9.1" height="1.77" rx="0.39" ry="0.39"/><rect class="cls-2" x="15.7" y="62.23" width="24.76" height="1.85" rx="0.41" ry="0.41"/><circle class="cls-1" cx="28" cy="19.29" r="19.08"/><circle class="cls-2" cx="28.21" cy="18.81" r="13.46"/><circle class="cls-6" cx="28.21" cy="18.4" r="10.13"/><path class="cls-1" d="M25.94,10.65a7.34,7.34,0,0,1-1.85,4.19,7.31,7.31,0,0,1-4.19,1.85,7.35,7.35,0,0,1,1.85-4.2A7.29,7.29,0,0,1,25.94,10.65Z"/><path class="cls-1" d="M29.56,14.26a7.31,7.31,0,0,1-1.85,4.19,7.35,7.35,0,0,1-4.2,1.85,7.34,7.34,0,0,1,1.85-4.19A7.35,7.35,0,0,1,29.56,14.26Z"/><path class="cls-7" d="M72,31.14V91.69a5.83,5.83,0,0,0,5.81,5.81h0a5.83,5.83,0,0,0,5.81-5.81V31.14c0-3.2-2.61-12.48-5.81-12.48h0C74.58,18.66,72,27.94,72,31.14Z"/><rect class="cls-7" x="76.05" y="81.28" width="3.46" height="11.62" transform="translate(-9.31 164.87) rotate(-90)"/><rect class="cls-1" x="51.91" y="50.11" width="59.19" height="19.2" rx="4.21" ry="4.21" transform="translate(21.8 141.22) rotate(-90)"/><rect class="cls-4" x="78.65" y="62.51" width="5.72" height="19.2" transform="translate(9.4 153.62) rotate(-90)"/><path class="cls-1" d="M93,24.63a10.56,10.56,0,0,0-21.12,0V72.55H93Z"/><path class="cls-1" d="M79.78,76.07V72.55H71.91v3.52a3.94,3.94,0,1,0,7.87,0Z"/><path class="cls-1" d="M93,79.84V66.1H79.78V79.84a6.63,6.63,0,0,0,13.25,0Z"/><rect class="cls-1" x="62.4" y="15.09" width="29.57" height="10.56" rx="2.32" ry="2.32" transform="translate(97.55 -56.82) rotate(90)"/><path class="cls-5" d="M85.23,30.11A2.77,2.77,0,0,0,88,27.35V15.65a10.52,10.52,0,0,0-5.52-1.58V27.35A2.77,2.77,0,0,0,85.23,30.11Z"/><rect class="cls-1" x="75.96" y="74.69" width="5.21" height="5.44" transform="translate(155.97 -1.16) rotate(90)"/><polygon class="cls-4" points="100 86.46 97.12 83.81 97.12 86.46 100 86.46"/><polygon class="cls-1" points="97.12 83.81 86.8 74.29 86.8 86.46 97.12 86.46 97.12 83.81"/><path class="cls-8" d="M72,16.72a3,3,0,0,1,2.19,1.43c2.12,2.72,3.62,8.63,3.62,11.05V88.55a9.82,9.82,0,0,1-5.12-5.13,9.56,9.56,0,0,1-.75-3.71v-63Z"/><path class="cls-1" d="M64.22,31.14V91.69A5.83,5.83,0,0,0,70,97.5h0a5.83,5.83,0,0,0,5.81-5.81V31.14c0-3.2-2.61-12.48-5.81-12.48h0C66.84,18.66,64.22,27.94,64.22,31.14Z"/><rect class="cls-4" x="68.3" y="81.28" width="3.46" height="11.62" transform="translate(-17.06 157.12) rotate(-90)"/></svg>