<svg id="Layer_1" data-name="Layer 1" xmlns="http://www.w3.org/2000/svg" viewBox="0 0 100 100"><defs><style>.cls-1{fill:#447d93;}.cls-2{fill:#6ab8d9;}.cls-3{fill:#ffc640;}.cls-4{fill:#09a582;}</style></defs><title>atmosphere</title><circle class="cls-1" cx="50" cy="50" r="50"/><circle class="cls-2" cx="49.53" cy="49.34" r="43.46"/><circle class="cls-3" cx="49.42" cy="48.79" r="36.61"/><circle class="cls-1" cx="49.48" cy="48.85" r="33.41"/><circle class="cls-2" cx="49.48" cy="48.85" r="33.41"/><path class="cls-1" d="M50.54,39.41a.35.35,0,0,0-.07.2l.07-.06C50.56,39.46,50.56,39.35,50.54,39.41Z"/><path class="cls-1" d="M36.82,35.86a.05.05,0,0,1,0,0l0,0Z"/><path class="cls-1" d="M35.66,37.24v0s0,0,0,0Z"/><path class="cls-4" d="M33.28,31.43c0-.1.11-.2.13-.32s-.06,0-.1-.09-.13.05-.12.06,0,.08,0,.15S33.34,31.22,33.28,31.43Z"/><path class="cls-4" d="M31.66,35.29s-.13,0-.17-.09S31.39,35.43,31.66,35.29Z"/><path class="cls-4" d="M32.33,32a.66.66,0,0,0,.25,0C32.43,31.83,32.42,31.94,32.33,32Z"/><path class="cls-4" d="M31.23,32.78c-.09.19-.08.33-.3.48.16,0,.16.06.43,0a2.75,2.75,0,0,0-.34.84c.1-.17.27-.36.39-.53,0,.08-.11.1-.13.2s.19-.15.22-.16-.05.1.08.13a1.53,1.53,0,0,0-.22.74c.22-.06.55-.1.87-.16-.33.28-.29.32,0,.46a2.74,2.74,0,0,0,0,.51,1,1,0,0,0-.93.3c.1,0,.18-.06.28-.06.05.34-.23.53-.61.61.09,0,.54.2.47.19a.89.89,0,0,0,.86-.1c-.3.4-1.16.67-1.62,1a14.65,14.65,0,0,1,1.68-.33,2.39,2.39,0,0,1,.43,0c.47,0,1.1-.06,1.31-.42-.17,0-.32-.05-.46-.06.14-.07.2-.19.16-.16.72-.12.45-.91-.28-.7,0-.31.16-.32-.3-.48a1.43,1.43,0,0,1,.36.06A2.14,2.14,0,0,0,32,33.62a1.79,1.79,0,0,0,.53-.13,1.5,1.5,0,0,1-.29,0c1.08-.29.69-.9-.31-.7a5.58,5.58,0,0,1,.55-.61c-.53,0-1.09,0-1,.42C31.3,32.61,31.14,32.58,31.23,32.78Z"/><path class="cls-4" d="M30.77,33.91c0-.09.19,0,.11-.19a.87.87,0,0,0-.17.09S30.78,33.79,30.77,33.91Z"/><path class="cls-4" d="M31.07,33.61c-.12,0-.09.08-.17.13S31,33.74,31.07,33.61Z"/><path class="cls-4" d="M30.69,32.84a3,3,0,0,1,.33.23C31.11,32.83,31,32.74,30.69,32.84Z"/><path class="cls-4" d="M31.05,33.37c-.16,0-.27-.17-.23.14C31,33.53,31.08,33.37,31.05,33.37Z"/><path class="cls-4" d="M31,32.22c-.37.12-.37.2-.36.37,0,0,.16-.05.19-.13S31,32.32,31,32.22Z"/><path class="cls-4" d="M49,39.55c-.35-.13-.17,0-.15,0S49.17,39.65,49,39.55Z"/><path class="cls-4" d="M41.18,33.54a6,6,0,0,0,.25-.64A.93.93,0,0,0,41.18,33.54Z"/><path class="cls-4" d="M42.31,32.61c-.33-.06-.3.14-.39.36a.27.27,0,0,1,0,.16A1.11,1.11,0,0,0,42.31,32.61Z"/><path class="cls-4" d="M34.71,43.33a1,1,0,0,0-.41.25C34.66,43.74,34.9,43.65,34.71,43.33Z"/><path class="cls-4" d="M33.91,43.88c-.08,0-.16,0-.21.12C33.85,44.06,33.8,43.94,33.91,43.88Z"/><path class="cls-4" d="M43.08,25.6c.21,0,.31,0,.49-.13A2.53,2.53,0,0,0,43.08,25.6Z"/><path class="cls-4" d="M39.87,26.81c-.13.05-.24,0-.28.14C39.67,26.93,40,26.76,39.87,26.81Z"/><path class="cls-4" d="M40.92,26.56a1.41,1.41,0,0,0-.31.08.82.82,0,0,1,.13-.37l-.31.3c-.08-.27-.12-.05-.25-.05s-.07.09.23.07a1.24,1.24,0,0,1-.4.25A1.68,1.68,0,0,0,40.92,26.56Z"/><path class="cls-4" d="M41.9,25.76a2.83,2.83,0,0,0-.32.37,1.1,1.1,0,0,0,.52-.25A.37.37,0,0,1,41.9,25.76Z"/><path class="cls-4" d="M43.38,25.69c.14.09.14,0,.28,0C43.63,25.66,43.48,25.58,43.38,25.69Z"/><path class="cls-4" d="M41,26.38a.94.94,0,0,0,.48-.15C41.27,26.09,41.14,26.1,41,26.38Z"/><path class="cls-4" d="M42.12,34.41h0l.08,0S42.14,34.4,42.12,34.41Z"/><path class="cls-4" d="M39.5,72.36a4.49,4.49,0,0,1,.45.87c.13.37,0,.57,0,.89,0,.79.64,1.24.22,2.06a5.92,5.92,0,0,0-.92,2.14c-.09.75,0,2.12.69,2.54a9.3,9.3,0,0,0,2.79.7c1,.2,1.9.36,2.87.47a34.23,34.23,0,0,0,6.24.11c-.06-.28-.39-1-.25-1.31,0,0,.39-.11.44-.16.39-.34.8-.66,1.18-1,.54-.47,1.63-1,1.83-1.74a7.13,7.13,0,0,0,0-1.2,3.48,3.48,0,0,0-.23-1.87,4.56,4.56,0,0,1-.32-2.51,9.69,9.69,0,0,1,.18-2.53c.34-1,1.37-1.39,2.18-1.88a7,7,0,0,0,2.68-2.89,15.71,15.71,0,0,0,.77-1.73c.13-.32.31-1.12.67-1.24-.12,0,0-.14-.19,0,.38-1.34-1.12-.62-1.79-.42a5.16,5.16,0,0,1-1.47.43c-.56,0-.85-.81-1.41-.67,1.3-.49-1.25-2-1.54-2.47a1.55,1.55,0,0,0,0,.21c-.38-.57-.42-1.3-.79-1.88A5.91,5.91,0,0,1,53,56.06c-.28-.74-.53-1.54-.86-2.26-.25-.55-.75-1.11-1.07-1.68s-1-1.61-.84-2.25a2.71,2.71,0,0,0,.95,1.37,8.86,8.86,0,0,1,.34-1.11,7.43,7.43,0,0,1-.13.93c.8,0,1.44,1.9,1.85,2.47a11.67,11.67,0,0,1,.88,1.68,10.76,10.76,0,0,0,1,1.49,7.25,7.25,0,0,1,1.14,3c.36,1.43,1.19.94,2.25.38a16.75,16.75,0,0,1,1.69-.71A2.86,2.86,0,0,0,61,59c.28-.24.19-.43.42-.67a2.29,2.29,0,0,1,.79-.33l.54,0a.28.28,0,0,0,.12-.31c.32-.3.93-.51,1.15-.89.13-.21.05-.51.17-.73s.22-.22.3-.34a1.37,1.37,0,0,0,.45-1.14c-.27-1.22-2-.81-1.85-2.41-.32.41-.57,1-1,1.3a1.28,1.28,0,0,1-1.47,0c-.21-.25.17-.69-.15-.89s-.35.38-.28.6c-.36-.53-.39-1.06-.78-1.53s-.58-1.08-1.11-1.34a.18.18,0,0,1,.22-.11.77.77,0,0,1-.12-.28c.34,0,.47-.19.75-.14a1.3,1.3,0,0,1,.47.3,11.71,11.71,0,0,1,.95,1,2.46,2.46,0,0,0,1.16.8c.55.15,1.06-.26,1.54-.08.29.11.3.34.5.53a1.52,1.52,0,0,0,.85.44,7.06,7.06,0,0,0,2.2.08c.69-.05,1.44-.34,1.94.22a5.09,5.09,0,0,0,.46.58c.18.16.31,0,.39.23a.85.85,0,0,1,.28-.16c-.38.57.62.77,1,.48a.65.65,0,0,1-.77.44,1.7,1.7,0,0,0,1.32.85c.21,0,.34,0,.45-.23.21-.37-.38-.61.3-.53A3.38,3.38,0,0,0,72,55l.31,0c-.34.16-.19.41-.13.74s0,.59.2.8c-.17.12,0,.25,0,.08a5.38,5.38,0,0,0,.93,2.74c.5,1.06.94,2.17,1.4,3.25,0-.08-.09-.16-.13-.24,0,.4.3,1.26.86,1s.28-.75.9-.59c-.39-.16.55-2.25.24-2.82a1.1,1.1,0,0,1,.09.14,1.33,1.33,0,0,1,.53-1.7c.72-.63,1.19-1.48,1.9-2.12h-.15s.15-.18.14-.17a.09.09,0,0,1,0,.12c.41-.08,1.33-1.24,1.13-1.67,0,.19.12.22.11.43.38-.24.09.41.28-.27a1.33,1.33,0,0,1,.1.34c0-.08.09-.1.16-.05s0-.32,0-.27A.81.81,0,0,1,81,55c0-.1,0-.2,0-.3a.69.69,0,0,1,.09.31c0-.14.11-.29.17-.43a1.23,1.23,0,0,0,0,.27.29.29,0,0,1,.13-.08.5.5,0,0,0,0,.21.8.8,0,0,0-.07-1c.12,0,.13,0,.17-.08,0,.34.09.37.31.55l.22-.11a2,2,0,0,1,.24.45,2.21,2.21,0,0,0,.11-.94s.18-1.1.21-1.39c.07-.61.12-1.23.15-1.85a.23.23,0,0,1-.07.07c.29-.16.15-1.73.15-2.11,0-.75,0-1.49-.09-2.24a33.42,33.42,0,0,0-.63-4.36A33.35,33.35,0,0,0,71.89,24.07c-.53-.48-.92-1-1.65-.93-.52.07-1-.05-1.55,0a2.72,2.72,0,0,0,.49.05c-.75.17-1.52.3-2.29.41l.26.08a2.84,2.84,0,0,1-.49.1c.22.06.43.14.65.19a2.2,2.2,0,0,0-.44,0,7.24,7.24,0,0,1,.79.25l-.48.18a3.16,3.16,0,0,0,.43.16,2,2,0,0,1-.48-.18,2,2,0,0,0,.32-.17,15.1,15.1,0,0,0-2.33.13c.21.46,1.17.73,1.57.94-.73-.06-1.56-.59-2.29-.25,0,.08.32.13.37.14a5.89,5.89,0,0,0-.84,0,3.52,3.52,0,0,0,1.48.47,2.81,2.81,0,0,1-1.5-.22c-.35-.24-.25-.63-.74-.7.41.29.09.54-.23.69.86.31.56,1.39,1.7,1.3-.29.07-.2.19-.22.28s.22.12,0,.51a1.18,1.18,0,0,1-1.84.36,2.05,2.05,0,0,1,.7,0,.12.12,0,0,0-.09.08,1.19,1.19,0,0,0,.46-.05l-.15-.15c1.34-.4-.8-1.85-1-2.3-.08-.18,0-.39,0-.53a.8.8,0,0,0-.77-.29c-.76,0-.56.74-1.19,1,.43.15.27.58.5.79a5.9,5.9,0,0,0,1,.31c-.11.51-3.21-.62-3.73-.33l.44.31a2.86,2.86,0,0,1-.41.32c.14-.11-.89-.27-1.06-.23a3.69,3.69,0,0,1-1.46.29.38.38,0,0,1,.23-.08,1,1,0,0,0-.14-.25l.26-.05a2,2,0,0,0-.79.2.4.4,0,0,1,.18.07,8.94,8.94,0,0,0-1.52.32.24.24,0,0,1,.09.11c-.6.1-.16.32-.56.42a.86.86,0,0,1-.57,0c-.52-.25-.28-.46.23-.47-.36-.45-1-.36-1.48-.44.45.1.83,1,.71,1.43-.48-.3-2.26.14-1.36.67-.53.23-1.18-.42-1.66-.09.69.56.49.87-.27.32-.44-.31-.55-1.07-1.17-1.07.21-.08-.61-.41-.71-.46.58.08,3.56,1.19,3.75.05.12-.68-2.92-1.28-3.43-1.06l.09-.19-.56-.1h.36c-.55-.3-1.12.06-1.72-.27a2.4,2.4,0,0,0,.84-.07c-.32-.2-.85-.46-1.08,0,0-.26-.08-.09-.15-.23a.8.8,0,0,0,.17-.15.85.85,0,0,0-.45,0c.16.23,0,0-.22.28a.62.62,0,0,0,0-.27c-.17.17-.41.25-.58.43.1-.11.15-.26.25-.37-.46-.18-.45.13-.78.24-.07.25-.19.26-.37.05a1,1,0,0,0-.56,0l.27.21a.67.67,0,0,0-.74.26,1.67,1.67,0,0,0,.08-.32,1.27,1.27,0,0,0-.25.27c-.14-.12-.52-.07-.33.05-.36-.05-.59.32-.89.45l.42,0c-.26.05-.47,0-.49.3-.23-.18-.16,0-.42-.08l.14,0c-.22,0-.23,0-.34.15l.37.08a2,2,0,0,1-.5.14,1.88,1.88,0,0,1,.41,0,2.3,2.3,0,0,0-.73.18.31.31,0,0,0,.13.06c-.24.08-.24.08-.34.31a2.33,2.33,0,0,1,.38,0l-.52.11.11.08s-.35.2-.34.3a.26.26,0,0,0,.29,0,4.12,4.12,0,0,0-.67.32.32.32,0,0,1,.14,0,2.22,2.22,0,0,0-.87.61.92.92,0,0,0,.8-.16c-.35.5-.84.14-1.32.28l.12.08-.21.1a.86.86,0,0,1,.2.18.61.61,0,0,0-.81.07h.58c-.28.11-.55.1-.85.19a.67.67,0,0,1,.24,0c-.15,0-1,.18-.47.29-.33,0-.21.38,0,.46a1.18,1.18,0,0,0,.83-.17c0,.14-.08.06.07.13a8.64,8.64,0,0,0-1.11.17.33.33,0,0,0,.25.13.49.49,0,0,1-.14.18.22.22,0,0,1,.14.14c-.17.13-.15.08-.25.27a1.74,1.74,0,0,1,.61-.43c-.11.11-.23.21-.35.31a1.64,1.64,0,0,1,.22,0c-.3.08-.31.13-.48.38l.56-.22c-.14.11-.15.21,0,.31-.72,0,.1.56.5.51a2,2,0,0,0,.83-.41c.25-.15.44-.19.55-.54a9.16,9.16,0,0,1,.6,1.26,2.77,2.77,0,0,1,.31.56c.06.2-.15.34.08.58s1,0,1.3-.25.79-1.44.21-1.5a1.84,1.84,0,0,0,1.05-.4l-.29,0c.69-.21.07-.46-.18-.73a.69.69,0,0,1-.22-.44,2.18,2.18,0,0,0,.08-.4c.14-.27-.06-.08.25-.26a.22.22,0,0,1-.07-.16,2.47,2.47,0,0,0,.77-.37,1.45,1.45,0,0,0,.51-.38c.1-.16.06-.52.11-.6a1.47,1.47,0,0,1,1.53-.13c.33.38-.09.45-.37.6a2.87,2.87,0,0,0-1,.81c-.45.79.55,1.2.58,1.68.2,0,.05,0,.17-.11.14.35.67.12,1,0a1.79,1.79,0,0,0,.59-.24.17.17,0,0,0,0,.12,1.87,1.87,0,0,1,1.61.31,9.71,9.71,0,0,0-2.05.21c-.16,0-.62,0-.72.15s.18.33.3.51c.62,1-.48.34-.83.38s-.57.53-.54.89c0,.18.35.9-.16.7l.15-.18a1.56,1.56,0,0,0-.59.49h0l.29,0c-.55,0-.91-.28-1.44-.16s-1,.6-1.54.32a.62.62,0,0,0,.35.18.2.2,0,0,0,0,.11c-.32-.12-.57-.48-.94-.49s-.46.3-.77.24a1.05,1.05,0,0,0,0-.19c-1,.14-.57-.85,0-1.21-.37-.12-.29-.49-.14-.75-.13.07-1,.44-1,.57l.37-.15c-.09.35-.33,0-.45.3a1.07,1.07,0,0,0,0,.56c.1.52.1.9.62,1.17-.3-.18-.45-.26-.6.1-.17-.24-.72-.25-.62.24-.31-1-1.72.64-1.4.9l-.38,0-.64.38c-.32.19-.53.68-.84.83s-1.52-.37-.93.54c-.57.11-1.09-.2-1.64.12,0,.11.1.13.25.09h-.17a.19.19,0,0,0,.12.07l-.18.08a13.53,13.53,0,0,0,1.39.5.78.78,0,0,0-.22,0,8,8,0,0,0,.73,1.32,1.31,1.31,0,0,0-.25-.32c0,.19-.08.38-.11.57l0-.06c-.11.93-.6.85-1.35.76a6.23,6.23,0,0,0-2-.09c-.57.14-.62.3-.63.77a10.92,10.92,0,0,1-.45,2.19,1.65,1.65,0,0,0,.36-.22,3.26,3.26,0,0,0-.24.4c.48-.14.14.67,0,.9a8.24,8.24,0,0,1,1.11-.16c.29.09.19.31.28.42.27.3.41.27.89.13A7.6,7.6,0,0,0,32,45.46c.54-.25.76-.85,1.27-1.11-.61-.48.15-1,.55-1.28a4.2,4.2,0,0,0,.82-.55c.18-.24.08-.32.18-.53.31-.6,1-.36,1.57-.44s1.28-.7,1.91-.14c.26.24.38.59.66.8s.76.39,1.1.65.55.38.83.59c.52.38.21.62.39,1.1.27.73.44-.19.49-.58.07-.64.19-.87.74-.28.06-.61-1.41-.72-1.13-1.22-.72.09-1.31-.56-1.61-1.14s-.53-1.34.38-1.16c-.1.38.05.27.19.33a1.38,1.38,0,0,1,.16.23c.09-.18.3.05.5.31h-.17c.2.29.46.34.74.49s1.05.48.23.25c.56.17,1.07.43,1.2,1,.09.44.09.91.42,1.15a.19.19,0,0,1-.09-.23c.08.1.63.47.63.51a.31.31,0,0,1-.19,0c.19.54.86.26,1.25.5-.29.08-.67-.27-.89.06s.19.58.27.82a.34.34,0,0,1,.09-.18c.22.39.21.29.57.37-.11-.23-.13-.49-.23-.72.15.09.21,0,.37.09l-.24-.3c.23.08.28,0,.51.15,0-.45-.42-.64-.78-.75l.25-.11a.19.19,0,0,1-.13-.14,1,1,0,0,1,.17.1c-.09-.26-.45-.6-.16-.87a.88.88,0,0,0,.25.22,1,1,0,0,0,.29.11.37.37,0,0,0-.13-.17,1.73,1.73,0,0,0,.32.11,1.23,1.23,0,0,1-.31-.37,3.6,3.6,0,0,1,1.53.07l-.27.34a4.26,4.26,0,0,1,1.39-.71,1,1,0,0,1-.79-.87,3.51,3.51,0,0,1,.61-1.37.49.49,0,0,1,0,.12c.51-.33.53-1,1.12-1.28-.07.13.12.06.16.08a2.25,2.25,0,0,0-.09-.35,2.22,2.22,0,0,0,.44.37,1.67,1.67,0,0,1-.5,0l.24.11a.23.23,0,0,1-.11,0c.3.13.64.13,1,.23l-.54.33c.5,0,.44.56.89.61s.83-.42,1.12-.6c-.36.1-1.1-.22-.74-.64,0,0,0,.09,0,.15.48-.45,1.15-.35,1.67-.65l-.1.07c.23,0,.19-.06.37,0a1.43,1.43,0,0,1-.71.26l.4.34c-.3.1-.36.58-.81.43l.11,0c-.21.19.07.22.28.36s.48.31.73.45a6.89,6.89,0,0,1,1.12.64c1,.76.11,1.33-.86,1.25s-1.71-.72-2.58-.68a8.7,8.7,0,0,0-1.39.46,4.11,4.11,0,0,0-.93.16s.56.21.38.15l-.52.14.14.07c-.42,0-1.5-.17-1.46.54l.4,0a.66.66,0,0,0,.17.69c-.26-.07-.16.11-.4-.11.1.37.47.59.65.92-.09,0-.14,0-.13.12l.5,0-.4.2c.5,0,1,.33,1.45.26s.19-.37.68-.28.64.47,1.19.33a3.78,3.78,0,0,0,1-.34c-.16.12.12.73.13.92a4.79,4.79,0,0,1-.4,1.56c-.24.68-.54,1.4-1.39.95,0,.05,0,.1-.05.12,0-.28-.64-.28-.82-.2l.18-.09c-1.48.5-2.62-.15-4-.63-.65-.22-1.41-.35-1.63.45-.13.49-.05.81-.76.83a2.91,2.91,0,0,1-1.63-.6c-.22-.18-.29-.45-.52-.62a3,3,0,0,0-1.21-.3c-.52-.12-.95-.28-1-.78a4,4,0,0,0,.15-.62,2,2,0,0,1,.18-1.19c-.39.32-.32,0-.7-.05a2.86,2.86,0,0,0-1.08.1,15.79,15.79,0,0,0-2.67.26,10.73,10.73,0,0,1-2.3.83,5.37,5.37,0,0,1-.61-.05c-.38,0-1,.31-1.08-.35-.58.09-.74,1.12-1.23,1.45a3.5,3.5,0,0,0-1,.64c-.35.45-.28,1-.42,1.46-.26.94-1.06.95-1.65,1.57S25,53.06,24.3,53.8l.1-.11a4.16,4.16,0,0,0-.76,1.89c0-.06.05-.13.08-.19.83.79.55,3.46-.49,4,.36.18.43.8.76.84a.8.8,0,0,1-.31,0,1.72,1.72,0,0,0-.06.55c.12,0,0-.1.17,0l-.19.09c.28.25.52.48.93.31l-.24.15a.9.9,0,0,1,.23.08.32.32,0,0,0-.22.12c.28.58,1.34.9,1.22,1.76l.16-.05a.24.24,0,0,1-.2.11,7.11,7.11,0,0,0,2,1.93,1.63,1.63,0,0,0,1.24.45,2.66,2.66,0,0,0,.5-.16c.1,0,1-.22.56-.14l.74,0c-.72-.16.45,0,.55,0l-.12,0c.69.35,1.21-.09,1.82-.34s1.36-.32,2-.58l-.14.1c.27-.05,1.31.45,1,.56a.14.14,0,0,0,.19,0c-.25.32.15.66.45.68s.19,0,.22-.22a1.8,1.8,0,0,1,.08.21c0-.06.05-.15.09-.2.22.13.56.21.64-.13.24.12.39.7.79.54a5,5,0,0,0,0,2.17c0-.06-.09-.07-.16,0,.15.12.18.21.37.26-.23,0-.09.08-.35-.1,0,.26,0,.61-.36.59a1.56,1.56,0,0,0,.45.62c-.13,0-.15-.08-.27-.18.13.26.26.33.15.37a2.33,2.33,0,0,0,.42.41l-.19,0ZM60.89,45.51a3.55,3.55,0,0,1-2-.16c-.46-.2-1-.93-.66-1.15,0-.35,0-.78.5-.74-.59-.33-1.92-1.38-1.74-2.19a.36.36,0,0,0-.06.2,1,1,0,0,1-.23-1.1c.18-.35.11-.16.5-.35.18-.08.3-.31.48-.45.36-.28,1.06-.5,1.43-.15s.18.68.46.93c-.37-.07-1.48.09-.72.53-.83-.1-.41.46,0,.75.18.12.5.14.63.27.28.25.12.71.39,1-.23-.62.38-.63.72-.27.54.56-.21.69-.65.37,0,.67.21.51.49.87-.49.06,0,.11.12.35a4.93,4.93,0,0,1,.35,1.37C60.87,45.53,60.68,45.6,60.89,45.51Zm4.34-18.69a2.13,2.13,0,0,0-.43-.13c.9-.07.87.76,1.63.74C65.78,27.58,65.73,27,65.23,26.82ZM66.84,26c-.12-.26-.21-.35-.06-.61.22.12.79.43.51.77C67.18,25.93,66.92,25.47,66.84,26Z"/><path class="cls-4" d="M50.54,39.55l-.07.06h0C50.49,39.71,50.52,39.64,50.54,39.55Z"/><path class="cls-4" d="M50.46,39.61h0Z"/><path class="cls-4" d="M49.68,48.67v0l.11.05Z"/><path class="cls-4" d="M39.82,73.9l0-.05v0S39.82,73.88,39.82,73.9Z"/><path class="cls-4" d="M43.29,34v0Z"/><path class="cls-4" d="M37.7,43.79c.47,0,.57-1.77-.43-.9C37.44,43.22,37.29,44.2,37.7,43.79Z"/><path class="cls-4" d="M31.46,34.82c.15-.07.07-.14.12-.2s-.16.09-.2.19S31.42,34.8,31.46,34.82Z"/><path class="cls-4" d="M29,36.12a1.07,1.07,0,0,0-.27.16c.08,0,.2-.06.29-.05s-.12,0-.16.12a1.1,1.1,0,0,0,.7-.24c.73-.11,1.41-.29,1.13-1.26.17-.06.31-.11.33-.32,0,0,.07.07.08.06,0-.18,0-.06-.17-.12,0-.35-.25-.39-.59-.26,0,0,.13-.07.13-.09-.23.06-.16-.06-.32.14,0,0,.05-.15,0-.14a1.05,1.05,0,0,0-.56.33c.1,0,.19,0,.29,0-.23.28-.61.26-.95.29.15.1,0,0,.06.17a.43.43,0,0,1,.16,0c-.2.12-.1.07-.09.17a1,1,0,0,1-.19,0s0,.07,0,.08a3.43,3.43,0,0,0,.52.12c-.22.13-.27.24-.51.38.19,0,.4,0,.54-.06a1,1,0,0,0-.49.25c-.16,0-.18,0-.3.07s.2,0,.22,0-.18.06-.23.19A1.53,1.53,0,0,0,29,36.12Z"/><path class="cls-4" d="M25,28.32c0,.05-.24.11-.31.14H25c-.29.08-.66.1-1,.18a5.54,5.54,0,0,1,1,.13,1.09,1.09,0,0,1-.24.17c.1,0,.17-.06.26,0a5.48,5.48,0,0,1-.56.16s0,0,0,0,0,.12,0,.11a1.69,1.69,0,0,1,1,0c.34.62,3.05-.41,3-.88,0,0,0-.19-.3-.11-.06-.08.24-.1-.13-.1.12-.25.05,0-.08-.2a1.23,1.23,0,0,0,.25-.14c-.56,0-1,.3-1.56.12,0,.09,0,.15,0,.23-.4-.36-1-.11-1.3.26,0-.16-.1-.13-.16-.25.31-.23-.14-.39-.51-.34.1,0,.17,0,.25,0s-.2,0-.2,0,.12.08.17.16-.08,0-.08,0a.86.86,0,0,0-.32-.08c0,.07-.05,0-.06,0v0h0s-.1,0-.11,0,.14,0,.21,0a1.93,1.93,0,0,1-.34,0s0,.15.07.12c-.12,0-.13,0-.26,0A5.55,5.55,0,0,1,25,28.32Z"/><path class="cls-4" d="M24.36,28.08s0,0,0,0S24.35,28,24.36,28.08Z"/><path class="cls-4" d="M24.38,28.06s0,0,0,0h0Z"/><path class="cls-4" d="M46.45,43.82s0,.1.17.12,0,0,0,0h0c-.08-.28-.18-.11-.3-.16S46.17,43.9,46.45,43.82Z"/><path class="cls-4" d="M46,43.32c-.08.09-.18-.08-.14.09S45.92,43.37,46,43.32Z"/><path class="cls-4" d="M45.06,44c-.14-.05-.12-.2-.31,0a3.22,3.22,0,0,1,.88.56A.89.89,0,0,0,45.06,44Z"/><path class="cls-4" d="M37.5,34.25c0-.1,0,.11-.06.15C37.7,34.34,37.5,34.36,37.5,34.25Z"/><path class="cls-4" d="M39.69,34.64l.25,0C39.85,34.34,39.84,34.57,39.69,34.64Z"/><path class="cls-4" d="M37.9,41.53c-.12.14-.34.35-.43.48a.67.67,0,0,0,.31.51A1.33,1.33,0,0,0,37.9,41.53Z"/><path class="cls-4" d="M31,30.05s-.11.11.07.21C31.08,30.1,31,30.2,31,30.05Z"/><path class="cls-4" d="M44.19,32.25a.55.55,0,0,0-.6,0c0,.13,0,.09,0,.26A5.3,5.3,0,0,0,44.19,32.25Z"/><path class="cls-4" d="M44,32c-.23-.14-.12-.13-.43-.06.09,0,.21.06.23.14S44,32,44,32Z"/><path class="cls-4" d="M38.59,34.19c-.13-.21,0-.39-.42-.23C38.2,34.28,38.37,34.16,38.59,34.19Z"/><path class="cls-4" d="M40.55,34.26s.07-.13-.13-.17C40.32,34.27,40.49,34.17,40.55,34.26Z"/><path class="cls-4" d="M38.67,34.17c-.12.08-.09.17-.12.24A1.07,1.07,0,0,0,38.67,34.17Z"/><path class="cls-4" d="M38.39,34.32l0,0,0-.06Z"/><path class="cls-4" d="M39.07,33.85c-.1-.23-.11-.06-.25,0s0,.35.27.57C39.26,34.14,39.62,33.3,39.07,33.85Z"/><path class="cls-4" d="M38.72,34.3c0,.22.15.07.24.16S39,34.33,38.72,34.3Z"/><path class="cls-4" d="M40.79,40.73c-.08-.08-.38-.25-.18-.12S40.69,40.75,40.79,40.73Z"/><path class="cls-4" d="M42.75,31.21c-.18-.12-.15,0-.18,0s-.13-.1,0,.08Z"/></svg>