<svg id="Layer_1" data-name="Layer 1" xmlns="http://www.w3.org/2000/svg" viewBox="0 0 100 100"><defs><style>.cls-1{fill:#3e3e3f;}.cls-2{fill:#242424;}.cls-3{fill:#58595b;}.cls-4{fill:#f37d3b;}.cls-5{fill:#ffc640;}</style></defs><title>atomic bomb</title><ellipse class="cls-1" cx="27.67" cy="72.24" rx="17.69" ry="23.47" transform="translate(-42.98 40.73) rotate(-45)"/><path class="cls-2" d="M21.66,54.5,45.41,78.25c1.29-.26,2.6-.58,3.91-.94L22.61,50.59C22.25,51.91,21.93,53.22,21.66,54.5Z"/><rect class="cls-2" x="25.4" y="60.9" width="21.41" height="5.81" transform="translate(-34.54 44.22) rotate(-45)"/><path class="cls-3" d="M95,5C106.7,16.71,95.42,47,83.67,58.79S36.5,86.91,24.75,75.16,29.37,28,41.12,16.25,83.2-6.79,95,5Z"/><path class="cls-4" d="M99.89,18.46C99.73,13,98.25,8.27,95,5A17.71,17.71,0,0,0,84.53.27,37,37,0,0,0,99.89,18.46Z"/><path class="cls-5" d="M84.53.27A41.88,41.88,0,0,0,69.38,1.45,25.81,25.81,0,0,0,98.46,30.53a45.72,45.72,0,0,0,1.43-12.07A37,37,0,0,1,84.53.27Z"/><path class="cls-5" d="M48.12,31.7a14.21,14.21,0,1,0,20.1,0,14.24,14.24,0,0,0-20.1,0ZM69.61,45.23,62,43a4.1,4.1,0,0,1-1,1.61,4,4,0,0,1-1.62,1l2.27,7.62a12,12,0,0,1-11.93-3l5.61-5.64-.09-.08a3.81,3.81,0,0,1-1-3.58L46.53,39a11.95,11.95,0,0,1,8.91-8.91l1.9,7.72a3.8,3.8,0,0,1,3.58,1l.09.09,5.63-5.61a12,12,0,0,1,3,11.93Z"/><path class="cls-5" d="M59.6,40.32a2,2,0,1,1-2.86,0,2,2,0,0,1,2.86,0Z"/><rect class="cls-1" x="-1.34" y="59.54" width="19.31" height="5.48" rx="1.3" ry="1.3" transform="translate(-41.61 24.12) rotate(-45)"/><rect class="cls-1" x="27.86" y="89.03" width="19.31" height="5.48" rx="1.3" ry="1.3" transform="translate(-53.91 53.4) rotate(-45)"/><rect class="cls-1" x="7.65" y="79.87" width="19.31" height="5.48" rx="1.3" ry="1.3" transform="translate(-53.35 36.43) rotate(-45)"/><rect class="cls-1" x="15.54" y="71.97" width="19.31" height="5.48" rx="1.3" ry="1.3" transform="translate(-45.45 39.7) rotate(-45)"/></svg>