<svg id="Layer_1" data-name="Layer 1" xmlns="http://www.w3.org/2000/svg" viewBox="0 0 100 100"><defs><style>.cls-1{fill:#fcca98;}.cls-2{fill:#cb8070;}.cls-3{fill:#3e3e3f;}.cls-4{fill:#f69a85;}.cls-5{fill:#935c50;}</style></defs><title>pig</title><path class="cls-1" d="M91.37,62.09a33.07,33.07,0,1,1-66.13,0c0-18.26-9.87-55,8.39-55S91.37,43.83,91.37,62.09Z"/><circle class="cls-1" cx="31.66" cy="31.37" r="24.24"/><path class="cls-2" d="M21.8,31.37c0,6-4.88,6.73-10.9,6.73S0,37.39,0,31.37a10.9,10.9,0,1,1,21.8,0Z"/><path class="cls-1" d="M55.17,15.88A5.86,5.86,0,0,1,46.48,8c2.17-2.4,12.78-5.4,12.78-5.4S57.33,13.49,55.17,15.88Z"/><path class="cls-1" d="M24.16,7.17a5.85,5.85,0,0,1-7.85,8.68C13.91,13.68,10.9,3.07,10.9,3.07S21.76,5,24.16,7.17Z"/><circle class="cls-3" cx="46.87" cy="29.46" r="1.9"/><rect class="cls-4" x="7.94" y="38.68" width="16.96" height="2.83" rx="0.69" ry="0.69"/><rect class="cls-1" x="25.32" y="62" width="6.35" height="26.08" rx="1.54" ry="1.54"/><rect class="cls-1" x="39.58" y="71" width="6.35" height="26.08" rx="1.54" ry="1.54"/><rect class="cls-1" x="76.94" y="76.72" width="8.87" height="21.58" rx="2.16" ry="2.16" transform="translate(85.71 -31.91) rotate(45)"/><path class="cls-1" d="M96.14,68.2a2.15,2.15,0,0,1-1.42-.56,6.19,6.19,0,0,1-1.45-3.46c-.75.38-1.31.61-1.51.69A1,1,0,1,1,91,63c.62-.26,1.34-.61,2.08-1-.1-3,.5-6.24,1.76-7.66a2.41,2.41,0,0,1,3.66,0,3.84,3.84,0,0,1,1.47,3.6c-.36,2.12-2.67,4-4.76,5.23.21,2.08.74,2.94,1,3,0,0,.25,0,.76-.6a1,1,0,1,1,1.53,1.37A3.17,3.17,0,0,1,96.14,68.2Zm.44-12.68h0c-.58.27-1.32,2.31-1.42,5.19,1.45-1,2.63-2.14,2.8-3.18.07-.37,0-.95-.81-1.71A1,1,0,0,0,96.58,55.52Z"/><path class="cls-5" d="M5.67,29.57a1.8,1.8,0,1,1-1.79-1.8A1.8,1.8,0,0,1,5.67,29.57Z"/><circle class="cls-5" cx="13.73" cy="29.57" r="1.8"/><ellipse class="cls-4" cx="46.22" cy="40.27" rx="7.49" ry="4.71" transform="translate(-14.65 47.54) rotate(-47.88)"/></svg>