<svg id="Layer_1" data-name="Layer 1" xmlns="http://www.w3.org/2000/svg" viewBox="0 0 100 100"><defs><style>.cls-1{fill:#069274;}.cls-2{fill:#b2ae4f;}.cls-3{opacity:0.5;}</style></defs><title>bacteria</title><path class="cls-1" d="M30.6,100a34.92,34.92,0,0,1-10.86-3.9l6.79-12.23A20.87,20.87,0,0,0,33,86.22Zm12.13-.34L39.3,86.1a10.16,10.16,0,0,0,4.75-2.64L54,93.35A24.27,24.27,0,0,1,42.73,99.66ZM10.81,89.28a38.46,38.46,0,0,1-6.67-9.06L16.5,73.67a25.32,25.32,0,0,0,4.28,5.81Zm49.67-2.74L50.22,77c1.82-2,3.89-4.24,6.1-6.75L66.83,79.5C64.53,82.12,62.37,84.49,60.48,86.54ZM73,72.27,62.2,63.36c2-2.41,3.89-4.78,5.64-7.06l11.09,8.52C77.08,67.23,75.09,69.73,73,72.27Zm-72.53-3A30.67,30.67,0,0,1,.1,64.6a27.45,27.45,0,0,1,1-7.51l13.46,3.84a13.23,13.23,0,0,0-.49,3.67,16.77,16.77,0,0,0,.19,2.53ZM84.62,57.09l-11.47-8C75,46.5,76.59,44,78,41.68L90,49C88.37,51.55,86.58,54.28,84.62,57.09Zm-67-1-10-9.77c.69-.71,1.6-1.67,2.68-2.82s2.3-2.44,3.67-3.87L24,49.26c-1.35,1.41-2.55,2.68-3.59,3.79S18.32,55.3,17.58,56.05ZM30.4,42.77l-9.84-10c2.36-2.33,4.68-4.55,6.91-6.59l9.46,10.31C34.83,38.46,32.63,40.56,30.4,42.77Zm64.36-2.5L82.18,34.14a48.14,48.14,0,0,0,3-7.5L98.6,30.53A61.66,61.66,0,0,1,94.76,40.27ZM43.65,30.64,34.7,19.89c2.62-2.18,5.2-4.19,7.66-6L50.6,25.2C48.38,26.83,46,28.66,43.65,30.64ZM57.8,20.4l-7.2-12a76.83,76.83,0,0,1,9.09-4.7l5.49,12.87A62.3,62.3,0,0,0,57.8,20.4ZM86,20.21A4.38,4.38,0,0,0,84.42,17L93.14,6l.3.25A18.47,18.47,0,0,1,99.9,18.67Zm-13.51-5.9L70.06.53A31,31,0,0,1,82,.62L79,14.29A17.15,17.15,0,0,0,72.49,14.31Z"/><path class="cls-2" d="M49,88.4c-8.06,8.06-22.84,6.35-33-3.82s-11.88-24.95-3.82-33S64.9-8.65,88.93,11.64C107.63,27.42,57.06,80.34,49,88.4Z"/><path class="cls-1" d="M36,95.79c-7.36,0-15.34-3.27-21.63-9.56C3.28,75.17,1.57,58.88,10.52,49.93c.75-.75,1.82-1.88,3.16-3.3C26.86,32.63,67-9.94,90.44,9.86a14,14,0,0,1,4.93,10.58c1,23.22-40,64.93-44.72,69.61h0A20.39,20.39,0,0,1,36,95.79ZM75.89,9.31c-20.65,0-48.49,29.55-58.82,40.51-1.38,1.47-2.48,2.63-3.25,3.4C6.68,60.36,8.4,73.69,17.64,82.93s22.57,11,29.71,3.82C62.67,71.44,91.43,37.92,90.71,20.64a9.46,9.46,0,0,0-3.28-7.22A17.35,17.35,0,0,0,75.89,9.31Z"/><circle class="cls-1" cx="26.48" cy="57.92" r="6.89"/><g class="cls-3"><circle class="cls-1" cx="67.46" cy="23.87" r="5.88"/></g><g class="cls-3"><circle class="cls-1" cx="36.31" cy="65.52" r="2.94"/></g><circle class="cls-1" cx="64" cy="51.04" r="9.45"/></svg>