<svg id="Layer_1" data-name="Layer 1" xmlns="http://www.w3.org/2000/svg" viewBox="0 0 100 100"><defs><style>.cls-1{fill:#f37d3b;}.cls-2{fill:#994d1f;}.cls-3{fill:#c7552e;}.cls-4{fill:#fff;}</style></defs><title>barn</title><path class="cls-1" d="M9.22,37.61V82.5a9.38,9.38,0,0,0,9.36,9.36H83.29a9.39,9.39,0,0,0,9.36-9.36V37.61Z"/><rect class="cls-2" x="38" y="9.6" width="15.63" height="6.51" rx="1.52" ry="1.52" transform="translate(-1.75 11.39) rotate(-13.91)"/><rect class="cls-2" x="28.91" y="15.49" width="15.63" height="6.51" rx="1.52" ry="1.52" transform="translate(-3.43 9.38) rotate(-13.91)"/><rect class="cls-2" x="19.81" y="21.37" width="15.63" height="6.51" rx="1.52" ry="1.52" transform="translate(-5.11 7.36) rotate(-13.91)"/><rect class="cls-2" x="10.72" y="27.25" width="15.63" height="6.51" rx="1.52" ry="1.52" transform="translate(-6.79 5.35) rotate(-13.91)"/><rect class="cls-2" x="1.63" y="33.13" width="15.63" height="6.51" rx="1.52" ry="1.52" transform="translate(-8.47 3.34) rotate(-13.91)"/><rect class="cls-2" x="46.82" y="9.6" width="15.63" height="6.51" rx="1.52" ry="1.52" transform="translate(104.57 38.47) rotate(-166.09)"/><rect class="cls-2" x="55.91" y="15.49" width="15.63" height="6.51" rx="1.52" ry="1.52" transform="translate(121.08 52.25) rotate(-166.09)"/><rect class="cls-2" x="65" y="21.37" width="15.63" height="6.51" rx="1.52" ry="1.52" transform="translate(137.58 66.03) rotate(-166.09)"/><rect class="cls-2" x="74.09" y="27.25" width="15.63" height="6.51" rx="1.52" ry="1.52" transform="translate(154.08 79.81) rotate(-166.09)"/><rect class="cls-2" x="83.18" y="33.13" width="15.63" height="6.51" rx="1.52" ry="1.52" transform="translate(170.58 93.58) rotate(-166.09)"/><polyline class="cls-2" points="7.75 38.99 94.79 38.99 49.78 10.52"/><rect class="cls-2" y="37.08" width="100" height="4.55" rx="1.06" ry="1.06"/><polyline class="cls-3" points="20.03 91.86 20.03 52.97 82.34 52.97 82.34 91.86"/><path class="cls-4" d="M83.41,91.86H81.27V54H21.1V91.86H19V53A1.06,1.06,0,0,1,20,51.9H82.34A1.07,1.07,0,0,1,83.41,53Z"/><line class="cls-3" x1="20.03" y1="53.88" x2="81.91" y2="86.66"/><rect class="cls-4" x="49.9" y="35.26" width="2.14" height="70.03" transform="translate(-34.99 82.41) rotate(-62.09)"/><line class="cls-3" x1="19.4" y1="87.68" x2="81.91" y2="54.57"/><rect class="cls-4" x="15.29" y="70.06" width="70.73" height="2.14" transform="translate(-27.41 31.99) rotate(-27.92)"/></svg>