<svg id="Layer_1" data-name="Layer 1" xmlns="http://www.w3.org/2000/svg" viewBox="0 0 100 100"><defs><style>.cls-1{fill:#87898b;}.cls-2{fill:#f1f1f2;}.cls-3{fill:#895e59;}</style></defs><title>bayonet</title><path class="cls-1" d="M24.2,98.71a12.1,12.1,0,1,1,12.09-12.1A12.11,12.11,0,0,1,24.2,98.71Zm0-19.43a7.34,7.34,0,1,0,7.34,7.33A7.34,7.34,0,0,0,24.2,79.28Z"/><path class="cls-2" d="M100,5.38a21.1,21.1,0,0,0-27.35,2L25.51,54.56,38.16,67.22Z"/><path class="cls-1" d="M29.55,75.83,16.89,63.18c-2.09-2.09-3.51-15.49-1.42-17.59h0a5.39,5.39,0,0,1,7.6,0L46.6,69.12a5.39,5.39,0,0,1,0,7.6h0C44.51,78.81,31.64,77.92,29.55,75.83Z"/><ellipse class="cls-1" cx="5.67" cy="86.38" rx="3.28" ry="7.31" transform="translate(-59.42 29.3) rotate(-45)"/><rect class="cls-3" x="11.52" y="68.35" width="18.27" height="6.23" rx="1.24" ry="1.24" transform="translate(56.59 6.33) rotate(45)"/><rect class="cls-3" x="8.44" y="71.44" width="18.27" height="6.23" rx="1.24" ry="1.24" transform="translate(57.86 9.41) rotate(45)"/><rect class="cls-3" x="5.35" y="74.52" width="18.27" height="6.23" rx="1.24" ry="1.24" transform="translate(59.14 12.49) rotate(45)"/><rect class="cls-3" x="2.27" y="77.6" width="18.27" height="6.23" rx="1.24" ry="1.24" transform="translate(60.42 15.58) rotate(45)"/><rect class="cls-3" x="-0.6" y="80.47" width="18.27" height="6.23" rx="1.24" ry="1.24" transform="translate(61.61 18.45) rotate(45)"/></svg>