<svg id="Layer_1" data-name="Layer 1" xmlns="http://www.w3.org/2000/svg" viewBox="0 0 100 100"><defs><style>.cls-1{fill:#545456;}.cls-2{fill:#895e59;}.cls-3{fill:#fff;}.cls-4{fill:#6d4945;}.cls-5{fill:#231f20;}</style></defs><title>beaver</title><path class="cls-1" d="M42.14,87.86A49,49,0,0,1,24.9,84.37a49.74,49.74,0,0,1-8.26-4.31,38.6,38.6,0,0,1-7.39-6.52,52.86,52.86,0,0,1-6.4-8.46A18.58,18.58,0,0,1,.56,54.62a22.73,22.73,0,0,1,3.3-9.88,19.5,19.5,0,0,1,7.87-7.24l1.89.61c1.08,1.75,1.67,3.23,2.4,4.68s1.17,2.73,1.78,4c1,2.44,2,4.49,2.64,6.36a12.76,12.76,0,0,1,1,5.46,15.27,15.27,0,0,0,1,6,31.07,31.07,0,0,0,3.24,5.79A38.19,38.19,0,0,0,30.3,76a66.39,66.39,0,0,0,12.33,9.94Z"/><ellipse class="cls-2" cx="30" cy="10" rx="4.95" ry="7.05"/><ellipse class="cls-2" cx="83.22" cy="10" rx="4.95" ry="7.05"/><rect class="cls-2" x="23.3" width="64.87" height="94.9" rx="12" ry="12"/><rect class="cls-3" x="48.6" y="28.62" width="6.44" height="14.77"/><rect class="cls-3" x="56.82" y="28.62" width="6.44" height="14.77"/><ellipse class="cls-4" cx="45.13" cy="28.29" rx="13.33" ry="9.04" transform="translate(-7.72 21.69) rotate(-24.97)"/><ellipse class="cls-4" cx="67.27" cy="28.29" rx="9.04" ry="13.33" transform="translate(17.65 81.8) rotate(-69.97)"/><circle class="cls-5" cx="30" cy="18.04" r="2.01"/><circle class="cls-5" cx="82.18" cy="18.04" r="2.01"/><rect class="cls-5" x="52.21" y="17.06" width="8.86" height="6.82" rx="1.54" ry="1.54"/><polyline class="cls-2" points="23.8 28.62 17.38 41.68 20.15 41.68 16.92 51.1 19.96 51.1 15.72 60.51 40.26 60.51"/><polyline class="cls-2" points="87.41 28.62 93.83 41.68 91.06 41.68 94.29 51.1 91.25 51.1 95.49 60.51 70.95 60.51"/><rect class="cls-2" x="33.39" y="85.97" width="6.87" height="14.03" rx="1.55" ry="1.55"/><rect class="cls-2" x="72.42" y="85.97" width="6.87" height="14.03" rx="1.55" ry="1.55"/></svg>