<svg id="Layer_1" data-name="Layer 1" xmlns="http://www.w3.org/2000/svg" viewBox="0 0 100 100"><defs><style>.cls-1{fill:#6ab8d9;}.cls-2{fill:#ebf7fd;}.cls-3{fill:#895e59;}.cls-4{fill:#6ab7d9;}.cls-5{fill:#6d4945;}</style></defs><title>geyser</title><path class="cls-1" d="M49.66,67.18a6.92,6.92,0,0,1-6.92-6.92V25.59a3.1,3.1,0,0,0-6.19,0,6.93,6.93,0,1,1-13.85,0,16.95,16.95,0,0,1,33.89,0V60.26A6.92,6.92,0,0,1,49.66,67.18Z"/><path class="cls-1" d="M49.66,67.18a6.92,6.92,0,0,1-6.92-6.92V25.59a16.94,16.94,0,0,1,33.88,0,6.93,6.93,0,1,1-13.85,0,3.09,3.09,0,0,0-6.18,0V60.26A6.92,6.92,0,0,1,49.66,67.18Z"/><rect class="cls-2" x="47.75" y="22.53" width="4.51" height="38.86" rx="0.93" ry="0.93"/><ellipse class="cls-3" cx="50" cy="81.13" rx="50" ry="10.22"/><path class="cls-4" d="M74.92,66.15l4.43-1.37C71.1,60.69,61,57.4,50,57.4s-21.27,3.34-29.55,7.48l4.1,1.27Z"/><path class="cls-3" d="M79.35,64.78l-4.43,1.37h0l-2.26.7,2.26-.7H24.55l2.81.87-2.81-.87h0l-4.1-1.27C8.05,71.09,0,79.09,0,80.42c0,2.21,22.39,4,50,4s50-1.79,50-4C100,79.09,91.86,71,79.35,64.78Z"/><circle class="cls-5" cx="22.63" cy="73.66" r="1.34"/><circle class="cls-5" cx="27.43" cy="81.57" r="1.34"/><circle class="cls-5" cx="49.02" cy="81.57" r="1.34"/><circle class="cls-5" cx="70.62" cy="81.57" r="1.34"/><circle class="cls-5" cx="33.16" cy="73.66" r="1.34"/><circle class="cls-5" cx="54.22" cy="73.66" r="1.34"/><circle class="cls-5" cx="43.08" cy="73.66" r="1.34"/><circle class="cls-5" cx="64.75" cy="73.66" r="1.34"/><circle class="cls-5" cx="75.29" cy="73.66" r="1.34"/><path class="cls-4" d="M28.24,64.88a3.89,3.89,0,0,1-7.78,0"/><path class="cls-4" d="M35.54,64.88a3.89,3.89,0,0,1-7.78,0"/><path class="cls-4" d="M42.84,64.88a3.89,3.89,0,0,1-7.78,0"/><path class="cls-4" d="M50.14,64.88a3.89,3.89,0,0,1-7.78,0"/><path class="cls-4" d="M57.44,64.88a3.89,3.89,0,0,1-7.78,0"/><path class="cls-4" d="M64.74,64.88a3.89,3.89,0,0,1-7.78,0"/><path class="cls-4" d="M72,64.88a3.89,3.89,0,0,1-7.78,0"/><path class="cls-4" d="M79.35,64.88a3.9,3.9,0,0,1-7.79,0"/><circle class="cls-2" cx="39.82" cy="58.52" r="3.26"/><circle class="cls-2" cx="53.16" cy="56.9" r="3.26"/><circle class="cls-2" cx="56.08" cy="61.39" r="3.26"/><circle class="cls-2" cx="44.29" cy="59.11" r="1.79"/><circle class="cls-2" cx="58.26" cy="56.54" r="1.79"/><circle class="cls-2" cx="48.99" cy="58.69" r="1.79"/><circle class="cls-2" cx="46.32" cy="61.91" r="1.16"/><circle class="cls-2" cx="60.16" cy="57.99" r="0.82"/><circle class="cls-2" cx="53.55" cy="52.44" r="1.79"/><circle class="cls-2" cx="46.45" cy="57.59" r="1.3"/><circle class="cls-2" cx="56.96" cy="58.2" r="1.3"/><path class="cls-4" d="M73.36,38.46a1.24,1.24,0,0,1-2.48,0A8.37,8.37,0,0,1,72.12,36,8.37,8.37,0,0,1,73.36,38.46Z"/><path class="cls-2" d="M70.4,44.26a2.71,2.71,0,0,1-5.41,0c0-1.49,2.71-5.47,2.71-5.47S70.4,42.77,70.4,44.26Z"/><path class="cls-2" d="M29.62,40.24a1.59,1.59,0,1,1-3.18,0C26.44,39.37,28,37,28,37S29.62,39.37,29.62,40.24Z"/></svg>