<svg id="Layer_1" data-name="Layer 1" xmlns="http://www.w3.org/2000/svg" viewBox="0 0 100 100"><defs><style>.cls-1{fill:#f9a63f;}.cls-2{fill:#994d1f;}.cls-3{fill:#b47a2c;}.cls-4{fill:#6ab8d9;}.cls-5{fill:#ffc63f;}.cls-6{fill:#3e3e3f;}</style></defs><title>birdhouse</title><path class="cls-1" d="M16,34.92V88.77C16,95,19.26,100,23.29,100H73.94c4,0,7.32-5,7.32-11.23V34.92Z"/><path class="cls-2" d="M48.68,7.7l-6.93,2.63c-1.36.51-2.74-.77-3.08-2.86h0c-.34-2.08.5-4.21,1.86-4.73L47.46.11C48.82-.4,50.2.88,50.54,3h0C50.88,5.05,50,7.18,48.68,7.7Z"/><path class="cls-2" d="M41.57,14.75l-6.93,2.63c-1.36.52-2.75-.76-3.09-2.85h0c-.33-2.08.5-4.21,1.86-4.73l6.93-2.63c1.36-.51,2.75.77,3.09,2.85h0C43.76,12.11,42.93,14.24,41.57,14.75Z"/><path class="cls-2" d="M34.45,21.81l-6.93,2.63c-1.36.52-2.75-.77-3.08-2.85h0c-.34-2.09.5-4.22,1.86-4.73l6.92-2.63c1.36-.52,2.75.77,3.09,2.85h0C36.65,19.17,35.81,21.3,34.45,21.81Z"/><path class="cls-2" d="M27.33,28.87,20.41,31.5c-1.36.51-2.75-.77-3.09-2.85h0c-.34-2.09.5-4.22,1.86-4.73l6.93-2.63c1.36-.52,2.75.76,3.08,2.85h0C29.53,26.22,28.69,28.35,27.33,28.87Z"/><path class="cls-2" d="M20.22,35.93l-6.93,2.63c-1.36.51-2.75-.77-3.08-2.86h0c-.34-2.08.5-4.21,1.86-4.73L19,28.34c1.36-.51,2.75.77,3.09,2.86h0C22.42,33.28,21.58,35.41,20.22,35.93Z"/><path class="cls-2" d="M47.44,7.7l6.92,2.63c1.36.51,2.75-.77,3.09-2.86h0c.34-2.08-.5-4.21-1.86-4.73L48.66.11C47.3-.4,45.91.88,45.58,3h0C45.24,5.05,46.08,7.18,47.44,7.7Z"/><path class="cls-2" d="M54.55,14.75l6.93,2.63c1.36.52,2.75-.76,3.08-2.85h0c.34-2.08-.5-4.21-1.86-4.73L55.78,7.17C54.42,6.66,53,7.94,52.69,10h0C52.35,12.11,53.19,14.24,54.55,14.75Z"/><path class="cls-2" d="M61.67,21.81l6.92,2.63c1.36.52,2.75-.77,3.09-2.85h0c.34-2.09-.5-4.22-1.86-4.73l-6.93-2.63c-1.36-.52-2.75.77-3.08,2.85h0C59.47,19.17,60.31,21.3,61.67,21.81Z"/><path class="cls-2" d="M68.78,28.87l6.93,2.63c1.36.51,2.75-.77,3.09-2.85h0c.33-2.09-.51-4.22-1.87-4.73L70,21.29c-1.36-.52-2.75.76-3.09,2.85h0C66.59,26.22,67.42,28.35,68.78,28.87Z"/><path class="cls-2" d="M75.9,35.93l6.93,2.63c1.36.51,2.74-.77,3.08-2.86h0c.34-2.08-.5-4.21-1.86-4.73l-6.93-2.63c-1.36-.51-2.74.77-3.08,2.86h0C73.7,33.28,74.54,35.41,75.9,35.93Z"/><polyline class="cls-2" points="14.82 36.58 82.94 36.58 47.71 2.41"/><rect class="cls-2" x="8.75" y="34.28" width="78.27" height="5.45" rx="1.06" ry="1.06"/><circle class="cls-3" cx="60.1" cy="61.23" r="14.6"/><rect class="cls-2" x="58.49" y="80.74" width="40.76" height="7.7" rx="1.5" ry="1.5"/><path class="cls-4" d="M60.1,52.49C54.22,52.49,49.46,59,49.46,67a18.93,18.93,0,0,0,.62,4.84,14.54,14.54,0,0,0,20,0A18.92,18.92,0,0,0,70.74,67C70.74,59,66,52.49,60.1,52.49Z"/><polygon class="cls-5" points="57.66 63.77 62.53 63.77 60.1 69.01 57.66 63.77"/><circle class="cls-6" cx="53.25" cy="62.65" r="1.02"/><circle class="cls-6" cx="67.26" cy="62.65" r="1.02"/></svg>