<svg id="Layer_1" data-name="Layer 1" xmlns="http://www.w3.org/2000/svg" viewBox="0 0 100 100"><defs><style>.cls-1{fill:#fff;}.cls-2{fill:#6d4945;}.cls-3{fill:#00a69c;}</style></defs><title>blizzard</title><rect class="cls-1" x="28.82" y="38.27" width="71.18" height="15.74" rx="3.95" ry="3.95"/><polyline class="cls-1" points="69.09 80.34 97.54 51.89 97.54 42.13 95.81 39.66 51.73 61.05"/><path class="cls-1" d="M32.67,39.19,3,68.83H68.14L97,40h-.07a7.74,7.74,0,0,0-4.81-1.7H36.69a7.77,7.77,0,0,0-3.61.92"/><path class="cls-2" d="M63.31,67.15H7.87a7.87,7.87,0,0,0,0,15.74H63.31a7.87,7.87,0,1,0,0-15.74Z"/><rect class="cls-2" x="57.05" y="55.62" width="2.83" height="4.13" rx="0.71" ry="0.71" transform="translate(-1.82 1.9) rotate(-1.84)"/><path class="cls-1" d="M66.23,56.33,57.89,39.68,56.5,43C59.57,47.94,61.68,52.77,66.23,56.33Z"/><path class="cls-3" d="M56.5,43l-6,14.28,16-.52-.19-.39C61.68,52.77,59.57,47.94,56.5,43Z"/><rect class="cls-2" x="78.49" y="39.88" width="2.83" height="4.13" rx="0.71" ry="0.71" transform="translate(-1.3 2.58) rotate(-1.84)"/><path class="cls-1" d="M83.6,32.46l-4.27-8.52L77.62,28C78.79,30.59,81.21,31.5,83.6,32.46Z"/><path class="cls-3" d="M77.62,28,72,41.24l.24.24L87.87,41,83.6,32.46C81.21,31.5,78.79,30.59,77.62,28Z"/><path class="cls-3" d="M72,41.24l-.11.25h.35Z"/><rect class="cls-2" x="63.5" y="42.15" width="1.84" height="2.69" rx="0.46" ry="0.46" transform="translate(-1.36 2.09) rotate(-1.84)"/><path class="cls-3" d="M62.18,36.21l-3,7,10.38-.33-2.77-5.55C64.57,37.32,63,37.22,62.18,36.21Z"/><path class="cls-1" d="M66.83,37.32l-2.78-5.54-1.87,4.43C63,37.22,64.57,37.32,66.83,37.32Z"/><rect class="cls-2" x="69.89" y="48.48" width="2.61" height="3.8" rx="0.66" ry="0.66" transform="translate(-1.58 2.31) rotate(-1.84)"/><path class="cls-1" d="M76,44.51,70.67,33.82l-1.18,2.76C70.05,40.21,73,42.26,76,44.51Z"/><path class="cls-3" d="M69.49,36.58,63.83,50l14.69-.47-2.5-5C73,42.26,70.05,40.21,69.49,36.58Z"/><rect class="cls-2" x="30.61" y="41.66" width="2.61" height="3.8" rx="0.66" ry="0.66" transform="translate(-1.38 1.04) rotate(-1.84)"/><path class="cls-3" d="M39.24,42.67l-4.5-9a14.19,14.19,0,0,1-4.23-4.63l-6,14.08Z"/><path class="cls-1" d="M34.74,33.69,31.38,27l-.87,2.07A14.19,14.19,0,0,0,34.74,33.69Z"/><rect class="cls-2" x="52.34" y="38.81" width="1.33" height="1.95" rx="0.33" ry="0.33" transform="translate(-1.25 1.72) rotate(-1.84)"/><path class="cls-1" d="M56.63,39.08l-3.89-7.77-1.08,2.55C52.11,37,53.58,38.57,56.63,39.08Z"/><path class="cls-3" d="M51.66,33.86l-2.42,5.71,7.51-.24-.12-.25C53.58,38.57,52.11,37,51.66,33.86Z"/><path class="cls-1" d="M5.71,38.45q11.51-.29,23-.38l23-.12,23,.11q11.51.11,23,.39-11.51.27-23,.38l-23,.11-23-.11Q17.22,38.72,5.71,38.45Z"/><path class="cls-1" d="M59.57,38.43a3.8,3.8,0,0,1-3,.34,3.48,3.48,0,0,1-2.24-2.33A3.31,3.31,0,0,1,55,33.16a2.51,2.51,0,0,1,1.67-.78,2.12,2.12,0,0,1,1.67.88A2.62,2.62,0,0,1,58.93,35a2.15,2.15,0,0,1-.83,1.63,2.93,2.93,0,0,1-3.25.31A4.73,4.73,0,0,1,53,34.38a9.48,9.48,0,0,1-.56-3c.34,1.94,1.09,4.07,2.71,5A2.18,2.18,0,0,0,57.55,36a1.5,1.5,0,0,0,0-2.11,1.2,1.2,0,0,0-1.93,0,2.55,2.55,0,0,0-.58,2.38C55.36,38.09,57.64,39.1,59.57,38.43Z"/><rect class="cls-2" x="42.69" y="49.29" width="2.45" height="3.57" rx="0.61" ry="0.61" transform="translate(-1.61 1.43) rotate(-1.84)"/><path class="cls-1" d="M50,48.59,43.42,35.53l-1.53,3.62C44.24,43.16,46.3,46.72,50,48.59Z"/><path class="cls-3" d="M50,48.59c-3.66-1.87-5.72-5.43-8.07-9.44L37,50.69l13.78-.45Z"/><path class="cls-1" d="M5.71,53.42c7-.41,14-.6,20.93-.76s14-.21,20.93-.23,14,0,20.94.23L79,52.93c3.49.17,7,.27,10.47.49-3.49.23-7,.32-10.47.49l-10.46.28c-7,.18-14,.2-20.94.23s-14-.05-20.93-.24S12.69,53.83,5.71,53.42Z"/><path class="cls-1" d="M27.86,38.78a10.75,10.75,0,0,1-9.28-.64,5,5,0,0,1-1.77-1.91,2.5,2.5,0,0,1-.24-1.5,2.22,2.22,0,0,1,.82-1.35A4.87,4.87,0,0,1,22.47,33a4.92,4.92,0,0,1,2.09,1.63,1.69,1.69,0,0,1,.18,1.69,2.47,2.47,0,0,1-1.13,1,7.56,7.56,0,0,1-4.89.26,12.25,12.25,0,0,1-7.22-5.77,12.88,12.88,0,0,0,7.4,5,6.21,6.21,0,0,0,4.18-.52,1.4,1.4,0,0,0,.59-.51c0-.12,0-.25-.13-.49A3.67,3.67,0,0,0,22,34.2a4,4,0,0,0-3.76.19c-.94.56-.13,2,1,2.81a9.28,9.28,0,0,0,4.07,1.59A12.21,12.21,0,0,0,27.86,38.78Z"/><rect class="cls-2" x="17.08" y="59.1" width="3.7" height="5.39" rx="0.93" ry="0.93" transform="translate(-1.97 0.64) rotate(-1.84)"/><path class="cls-1" d="M26.94,55.82,18.17,38.31l-2.68,6.34A29,29,0,0,0,26.94,55.82Z"/><path class="cls-3" d="M15.49,44.65l-7,16.56,20.82-.67-2.37-4.72A29,29,0,0,1,15.49,44.65Z"/><rect class="cls-2" x="36.47" y="59.34" width="2.18" height="3.18" rx="0.55" ry="0.55" transform="matrix(1, -0.03, 0.03, 1, -1.93, 1.23)"/><path class="cls-1" d="M43,58.8,37.12,47.08l-1.79,4.21C37.73,54.31,39.65,57.66,43,58.8Z"/><path class="cls-3" d="M35.33,51.29,31.4,60.58l12.28-.39L43,58.8C39.65,57.66,37.73,54.31,35.33,51.29Z"/><circle class="cls-1" cx="60.99" cy="19.41" r="0.62"/><circle class="cls-1" cx="7.87" cy="47.39" r="0.62"/><circle class="cls-1" cx="53.87" cy="24.58" r="0.27"/><circle class="cls-1" cx="47.38" cy="22.19" r="0.63"/><circle class="cls-1" cx="69.19" cy="31.84" r="0.86"/><circle class="cls-1" cx="40.91" cy="35.18" r="0.44"/><circle class="cls-1" cx="1.04" cy="43.14" r="0.44"/><circle class="cls-1" cx="42.49" cy="46.92" r="0.9"/><circle class="cls-1" cx="80.43" cy="18.51" r="1.4"/><circle class="cls-1" cx="28.82" cy="33.23" r="1.4"/><circle class="cls-1" cx="85.9" cy="24.4" r="0.46"/><circle class="cls-1" cx="74.06" cy="32" r="0.69"/><circle class="cls-1" cx="87.75" cy="35.71" r="0.51"/><path class="cls-1" d="M63.43,66.81H8A7.87,7.87,0,0,0,.6,72.09a1.89,1.89,0,0,0,1.73,1.14h0a1.85,1.85,0,0,0,1.58-.92v0a1.89,1.89,0,0,0,3.77.07,1.9,1.9,0,0,0,1.67,1A1.88,1.88,0,0,0,10.56,73a1.87,1.87,0,0,0,1.65,1,1.89,1.89,0,0,0,1.88-1.82,1.72,1.72,0,0,0,.24,0,1.81,1.81,0,0,0,1.15-.43v1a1.88,1.88,0,0,0,3.76.14,1.76,1.76,0,0,0,2.53-.62v0a1.89,1.89,0,0,0,3.77.07,1.9,1.9,0,0,0,1.67,1A1.88,1.88,0,0,0,28.42,73a1.87,1.87,0,0,0,1.65,1A1.89,1.89,0,0,0,32,72.19a1.72,1.72,0,0,0,.24,0,1.81,1.81,0,0,0,1.15-.43v1a1.88,1.88,0,0,0,3.76.14,1.76,1.76,0,0,0,2.53-.62v0a1.89,1.89,0,0,0,3.78.07,1.82,1.82,0,0,0,2.87.58,1.86,1.86,0,0,0,3.53-.79,1.72,1.72,0,0,0,.24,0,1.81,1.81,0,0,0,1.15-.43v1a1.88,1.88,0,0,0,3.76.14,1.76,1.76,0,0,0,2.53-.62v0a1.89,1.89,0,0,0,3.78.07,1.82,1.82,0,0,0,2.87.58,1.86,1.86,0,0,0,3.53-.79,2,2,0,0,0,.24,0,1.81,1.81,0,0,0,1.15-.43v1A1.9,1.9,0,0,0,71,74.68a1.76,1.76,0,0,0,.33-.07A7.89,7.89,0,0,0,63.43,66.81Z"/></svg>