<svg id="Layer_1" data-name="Layer 1" xmlns="http://www.w3.org/2000/svg" viewBox="0 0 100 100"><defs><style>.cls-1{fill:#7d7d7d;}.cls-2{fill:#fff;}.cls-3{fill:#ffc63f;}.cls-4{fill:#3e3e3f;}</style></defs><title>owl</title><polygon class="cls-1" points="37.74 83.62 45.68 83.62 41.71 100 37.74 83.62"/><polygon class="cls-1" points="56.77 83.62 64.71 83.62 60.74 100 56.77 83.62"/><ellipse class="cls-1" cx="26.45" cy="60.87" rx="11.84" ry="19.05" transform="translate(-25.23 19.23) rotate(-27.65)"/><ellipse class="cls-1" cx="73.55" cy="60.87" rx="19.05" ry="11.84" transform="translate(-14.5 97.77) rotate(-62.35)"/><rect class="cls-2" x="22.92" width="56.17" height="89.07" rx="11.25" ry="11.25"/><path class="cls-1" d="M48.12,21.42c0,6.54-1.29,11.84-7.82,11.84a11.84,11.84,0,1,1,0-23.67C46.83,9.59,48.12,14.89,48.12,21.42Z"/><path class="cls-1" d="M53.89,21.42c0,6.54,1.29,11.84,7.83,11.84a11.84,11.84,0,0,0,0-23.67C55.18,9.59,53.89,14.89,53.89,21.42Z"/><path class="cls-3" d="M42.69,21.37a4.42,4.42,0,1,1-8.84,0c0-2.44,2-2.58,4.42-2.58S42.69,18.93,42.69,21.37Z"/><path class="cls-3" d="M68.51,21.37a4.42,4.42,0,1,1-8.84,0c0-2.44,2-2.58,4.42-2.58S68.51,18.93,68.51,21.37Z"/><path class="cls-4" d="M55.51,26.77c0,2-4.46,14.92-4.46,14.92s-4.46-12.95-4.46-14.92,2-3.58,4.46-3.58S55.51,24.79,55.51,26.77Z"/><polyline class="cls-2" points="30.39 10.4 22.92 1.66 42.17 4.79"/><polyline class="cls-2" points="70.67 10.4 78.13 1.66 58.89 4.79"/><path class="cls-1" d="M23,43.68a44.42,44.42,0,0,0,6.15,4.94,64.73,64.73,0,0,1-8.39,4"/><path class="cls-1" d="M29.12,48.62a52.09,52.09,0,0,0,7,4,64.81,64.81,0,0,1-7.63,5.28"/><path class="cls-1" d="M36.12,52.6c1.2.58,2.47,1,3.7,1.5s2.53.73,3.79,1.12a55,55,0,0,1-6.53,6.61"/><path class="cls-1" d="M43.61,55.22a29.63,29.63,0,0,0,3.85.71,21,21,0,0,0,3.88.27,42.87,42.87,0,0,1-5,7.86"/><path class="cls-1" d="M51.34,56.2l1.94,0c.65,0,1.29-.15,1.93-.22A26.06,26.06,0,0,0,59,55.44a42,42,0,0,1-3,8.74"/><path class="cls-1" d="M59,55.44l3.75-1c1.24-.4,2.4-1.06,3.61-1.57a52.41,52.41,0,0,1-.91,9.31"/><path class="cls-1" d="M66.4,52.82,68.2,52a15.89,15.89,0,0,0,1.7-1l3.37-2.16A67.53,67.53,0,0,1,74.09,58"/><path class="cls-1" d="M73.27,48.8c2.17-1.59,4.16-3.5,6.26-5.21a81.89,81.89,0,0,1,2.16,8.92"/><circle class="cls-4" cx="38.29" cy="21.56" r="1.64"/><circle class="cls-4" cx="64.4" cy="21.56" r="1.64"/><circle class="cls-1" cx="34.78" cy="67.85" r="0.83"/><circle class="cls-1" cx="37.74" cy="72.72" r="0.83"/><circle class="cls-1" cx="51.05" cy="72.72" r="0.83"/><circle class="cls-1" cx="64.36" cy="72.72" r="0.83"/><circle class="cls-1" cx="41.27" cy="67.85" r="0.83"/><circle class="cls-1" cx="54.25" cy="67.85" r="0.83"/><circle class="cls-1" cx="47.39" cy="67.85" r="0.83"/><circle class="cls-1" cx="60.74" cy="67.85" r="0.83"/><circle class="cls-1" cx="67.23" cy="67.85" r="0.83"/></svg>