<svg id="Layer_1" data-name="Layer 1" xmlns="http://www.w3.org/2000/svg" viewBox="0 0 100 100"><defs><style>.cls-1{fill:#fcca98;}.cls-2{fill:#e1b589;}.cls-3{fill:#f37d3b;}.cls-4{fill:#895e59;}.cls-5{fill:#7d7d7d;}.cls-6{fill:#9c9c9c;}.cls-7{fill:#fff;}.cls-8{fill:#fbc6a4;}</style></defs><title>butcher</title><rect class="cls-1" y="11.66" width="6.5" height="44.86" rx="1.29" ry="1.29"/><rect class="cls-1" x="45.37" y="11.66" width="6.5" height="44.86" rx="1.29" ry="1.29"/><rect class="cls-1" y="35.94" width="51.87" height="58.43"/><path class="cls-2" d="M46.23,89.6h-2.6a.87.87,0,1,1,0-1.74h.87V87a.87.87,0,1,1,1.73,0Zm-6.07,0H38.43a.87.87,0,1,1,0-1.74h1.73a.87.87,0,1,1,0,1.74Zm-5.2,0H33.23a.87.87,0,1,1,0-1.74H35a.87.87,0,1,1,0,1.74Zm-5.2,0H28a.87.87,0,0,1,0-1.74h1.73a.87.87,0,1,1,0,1.74Zm-5.2,0H22.83a.87.87,0,1,1,0-1.74h1.73a.87.87,0,0,1,0,1.74Zm-5.2,0H17.63a.87.87,0,1,1,0-1.74h1.73a.87.87,0,0,1,0,1.74Zm-5.2,0H12.42a.87.87,0,0,1,0-1.74h1.74a.87.87,0,0,1,0,1.74ZM9,89.6H7.22a.87.87,0,0,1,0-1.74H9A.87.87,0,0,1,9,89.6ZM6.5,86.85A.87.87,0,0,1,5.63,86V84.25a.87.87,0,0,1,1.74,0V86A.87.87,0,0,1,6.5,86.85Zm38.87-2.43a.87.87,0,0,1-.87-.87V81.82a.87.87,0,1,1,1.73,0v1.73A.87.87,0,0,1,45.37,84.42ZM6.5,81.65a.87.87,0,0,1-.87-.87V79.05a.87.87,0,0,1,1.74,0v1.73A.87.87,0,0,1,6.5,81.65Zm38.87-2.43a.87.87,0,0,1-.87-.87V76.62a.87.87,0,1,1,1.73,0v1.73A.87.87,0,0,1,45.37,79.22ZM6.5,76.45a.87.87,0,0,1-.87-.87V73.85a.87.87,0,0,1,1.74,0v1.73A.87.87,0,0,1,6.5,76.45ZM45.37,74a.87.87,0,0,1-.87-.87V71.42a.87.87,0,1,1,1.73,0v1.73A.87.87,0,0,1,45.37,74ZM6.5,71.25a.87.87,0,0,1-.87-.87V68.65a.87.87,0,1,1,1.74,0v1.73A.87.87,0,0,1,6.5,71.25Zm38.87-2.43A.87.87,0,0,1,44.5,68V66.22a.87.87,0,1,1,1.73,0V68A.87.87,0,0,1,45.37,68.82ZM6.5,66.05a.87.87,0,0,1-.87-.87V63.45a.87.87,0,1,1,1.74,0v1.73A.87.87,0,0,1,6.5,66.05Zm38.87-2.43a.87.87,0,0,1-.87-.87V61a.87.87,0,0,1,1.73,0v1.74A.87.87,0,0,1,45.37,63.62ZM6.5,60.85A.87.87,0,0,1,5.63,60V58.24a.87.87,0,0,1,1.74,0V60A.87.87,0,0,1,6.5,60.85Zm38.87-2.44a.86.86,0,0,1-.87-.86V55.81a.87.87,0,0,1,1.73,0v1.74A.86.86,0,0,1,45.37,58.41ZM6.5,55.64a.86.86,0,0,1-.87-.86V53a.87.87,0,0,1,1.74,0v1.74A.86.86,0,0,1,6.5,55.64Zm38.87-2.43a.86.86,0,0,1-.87-.86V50.61a.87.87,0,1,1,1.73,0v1.74A.86.86,0,0,1,45.37,53.21ZM6.5,50.44a.86.86,0,0,1-.87-.86V47.84a.87.87,0,0,1,1.74,0v1.74A.86.86,0,0,1,6.5,50.44ZM45.37,48a.87.87,0,0,1-.87-.87V45.41a.87.87,0,1,1,1.73,0v1.73A.87.87,0,0,1,45.37,48ZM6.5,45.24a.87.87,0,0,1-.87-.87V42.65H7.38a.87.87,0,1,1,0,1.74h0A.87.87,0,0,1,6.5,45.24Zm37.29-.85H42.06a.87.87,0,1,1,0-1.74h1.73a.87.87,0,0,1,0,1.74Zm-5.2,0H36.85a.87.87,0,0,1,0-1.74h1.74a.87.87,0,1,1,0,1.74Zm-5.2,0H31.65a.87.87,0,0,1,0-1.74h1.74a.87.87,0,0,1,0,1.74Zm-5.2,0H26.45a.87.87,0,0,1,0-1.74h1.74a.87.87,0,0,1,0,1.74Zm-5.21,0H21.25a.87.87,0,1,1,0-1.74H23a.87.87,0,0,1,0,1.74Zm-5.2,0H16.05a.87.87,0,1,1,0-1.74h1.73a.87.87,0,0,1,0,1.74Zm-5.2,0H10.85a.87.87,0,0,1,0-1.74h1.73a.87.87,0,0,1,0,1.74Z"/><path class="cls-3" d="M14.84,43.84c-4.5-1.18-10.19,1.08-10.84,4-.49,2.22,2.21,3,4.34,8.67A16.65,16.65,0,0,1,9.78,63.2c-.17,5.43-3.89,7-2.89,10.11.86,2.63,4.61,4.49,6.79,3.61s1.16-3.41,3.61-5.77c2.81-2.7,5.68-1,8.82-3.47a9.91,9.91,0,0,0,3.46-7.8c-.12-3.32-2.87-6-8.38-11.27C16.87,44.44,15.45,44,14.84,43.84Z"/><path class="cls-3" d="M47.34,74c-1.45-.56-2.23,1.47-6.5,3.46s-6.61,1.38-8.38,3.76c-1.09,1.47-.44,2-1.44,3.61-2.61,4.14-8.89,3.46-9,4.77s5.05,2.86,10.26,3c3.36.11,7.41.25,11.27-2.45a13.5,13.5,0,0,0,5.49-8.09C49.67,79.14,49.31,74.78,47.34,74Z"/><circle class="cls-3" cx="29.79" cy="52.36" r="1.66"/><circle class="cls-3" cx="32.17" cy="79.67" r="1.66"/><circle class="cls-3" cx="38.33" cy="59.72" r="3.19"/><circle class="cls-3" cx="35.7" cy="73.94" r="3.19"/><circle class="cls-3" cx="36.98" cy="52.4" r="0.69"/><circle class="cls-3" cx="23.22" cy="48.25" r="4.12"/><rect class="cls-4" x="92.88" y="28.75" width="7.02" height="34.86" rx="1.39" ry="1.39"/><rect class="cls-5" x="72.63" y="1.55" width="27.26" height="34.8"/><polygon class="cls-6" points="88.23 1.55 72.63 17.15 72.63 21.79 92.88 1.55 88.23 1.55"/><polygon class="cls-6" points="99.89 7.53 72.63 34.79 72.63 36.35 84.29 36.35 99.89 20.75 99.89 7.53"/><path class="cls-7" d="M77.38,80.09c-5.16-.86-10.33-4.27-15.5-3.5v.25c0,3.22,2.64,4.12,5.86,3.74a24,24,0,0,1,9.62,1.06C77.63,81.05,77.77,80.48,77.38,80.09Z"/><path class="cls-3" d="M94.14,84.81c3.22-.37,5.86-4.75,5.86-8V75.07A4.61,4.61,0,0,0,99.88,74c-4.13-.66-8.77.25-11.37-2.82-6.92-1.12-13.85-5-20.77-4.06-3.22.37-5.86,4.75-5.86,8v1.52c5.17-.77,10.34,2.64,15.5,3.5.39.39.25,1,0,1.55C83,83.18,88.55,85.57,94.14,84.81Z"/><path class="cls-7" d="M99.88,74c-.54-2.33-2.91-3-5.74-2.65a19,19,0,0,1-5.63-.17C91.11,74.23,95.75,73.32,99.88,74Z"/><path class="cls-3" d="M83.47,95.75c2.61,0,4.35,2.61,6.09,1.74C91.3,95.75,93,94,92.17,91.4a1.25,1.25,0,0,0,1.65-.35c-1.06-2.33-3.17-3.67-4.92-3.42-5.31.74-10.74-.84-16.29-.08-2,.27-4.2,2.42-4.86,4.27-.11.33-.23.67-.34,1-.66,1.84.83,2.82,3.35,2.84,5.09,0,10.25,1.58,15.47,2.36A15.63,15.63,0,0,0,83.47,95.75Z"/><path class="cls-7" d="M92.17,91.4c.87,2.61-.87,4.35-2.61,6.09-1.74.87-3.48-1.74-6.09-1.74A15.63,15.63,0,0,1,86.23,98a32.11,32.11,0,0,0,5.27.42c2.63,0,4-2.72,3-5.39-.16-.49-.33-1-.49-1.47-.07-.19-.16-.36-.24-.54A1.25,1.25,0,0,1,92.17,91.4Z"/><path class="cls-8" d="M96.67,74.29A25.4,25.4,0,0,1,89,75.35a21.28,21.28,0,0,1-4-.4l-1-.22-1-.3A8.93,8.93,0,0,1,82,74l-.87-.35a15.88,15.88,0,0,0-3.35-1c-1.18-.24-2.41-.39-3.64-.53-2.48-.26-5-.39-7.59-.6a26.83,26.83,0,0,1,7.64-1.44,22,22,0,0,1,4,.12,14.19,14.19,0,0,1,4,1l.9.38a7.75,7.75,0,0,0,.79.33l.83.3.85.25c1.16.31,2.36.55,3.58.78C91.58,73.72,94.09,74,96.67,74.29Z"/><path class="cls-8" d="M99.6,75.48A9.71,9.71,0,0,1,98,77.9a12.14,12.14,0,0,1-2.23,1.92A11.24,11.24,0,0,1,93,81.14a9.51,9.51,0,0,1-3.11.43L90,79a12.92,12.92,0,0,1,2,.45,11.76,11.76,0,0,1,1.93.77,6,6,0,0,1,1.74,1.31,1.93,1.93,0,0,1,.5,2.07,1.79,1.79,0,0,0-1.17-1.22A9.21,9.21,0,0,0,93.38,82c-.59-.11-1.19-.18-1.79-.25s-1.23-.13-1.79-.16a1.26,1.26,0,0,1,0-2.52h.14a13,13,0,0,0,2.37-.38,19.1,19.1,0,0,0,2.38-.81c.8-.33,1.6-.7,2.41-1.1S98.72,75.92,99.6,75.48Z"/><path class="cls-8" d="M84.56,80.52A9.12,9.12,0,0,0,81,79a9,9,0,0,0-1.72-.16h-.43a4.4,4.4,0,0,1-.52,0c-.22,0-.44,0-.66,0s-.43-.09-.65-.14a5.5,5.5,0,0,1-1.2-.49,6.71,6.71,0,0,1-1-.72,7.27,7.27,0,0,1-1.46-1.8,8,8,0,0,1-1.14-4.17c1,1.07,1.86,2.06,2.76,2.92a6.84,6.84,0,0,0,2.74,1.75c.11,0,.22.07.34.09l.35,0c.08,0,.29,0,.49.05a5.67,5.67,0,0,1,.58,0,7,7,0,0,1,2.23.7A5.24,5.24,0,0,1,84.56,80.52Z"/><path class="cls-8" d="M70,89.8a17.34,17.34,0,0,1,5.08-1.29,14,14,0,0,1,5.42.37l.7.25.58.25,1.14.51c.75.34,1.49.66,2.23,1A16.91,16.91,0,0,0,89.92,92a8.15,8.15,0,0,1-5.29.85A15.67,15.67,0,0,1,82,92.2l-1.23-.43-.6-.24-.49-.17a30.74,30.74,0,0,0-4.65-.81C73.41,90.35,71.73,90.16,70,89.8Z"/></svg>