<svg id="Layer_1" data-name="Layer 1" xmlns="http://www.w3.org/2000/svg" viewBox="0 0 100 100"><defs><style>.cls-1{fill:#ffc640;}.cls-2{fill:#3e3e3f;}.cls-3{fill:#bcd2de;}.cls-4{fill:#f37d3b;}</style></defs><title>car</title><path class="cls-1" d="M52.19,72.59,37.84,64c-14,0-25.49-2.88-25.49-16.91V43.64c0-14-1.14-25.49,12.88-25.49h27A25.56,25.56,0,0,1,77.68,43.64v3.45A25.57,25.57,0,0,1,52.19,72.59Z"/><path class="cls-1" d="M100,57.05A15.58,15.58,0,0,0,84.46,41.52H15.54a15.52,15.52,0,0,0-.75,31,7.64,7.64,0,0,1,15.15,0H70.1a7.64,7.64,0,0,1,15.15,0A15.58,15.58,0,0,0,100,57.05Z"/><circle class="cls-2" cx="22.36" cy="70.38" r="11.47"/><circle class="cls-2" cx="77.68" cy="70.38" r="11.47"/><path class="cls-3" d="M51.57,20.53H45v21H72.9A21.4,21.4,0,0,0,51.57,20.53Z"/><rect class="cls-3" x="23.11" y="20.53" width="15.8" height="20.98"/><rect class="cls-4" x="45.94" y="48.6" width="10.45" height="3.72" rx="0.87" ry="0.87"/><rect class="cls-4" x="27.75" y="48.6" width="10.45" height="3.72" rx="0.87" ry="0.87"/><circle class="cls-4" cx="22.36" cy="70.38" r="4.71"/><circle class="cls-4" cx="77.68" cy="70.38" r="4.71"/></svg>