<svg id="Layer_1" data-name="Layer 1" xmlns="http://www.w3.org/2000/svg" viewBox="0 0 100 100"><defs><style>.cls-1{fill:#3e3e3f;}.cls-2{fill:#333;}</style></defs><title>charcoal</title><rect class="cls-1" x="22.2" y="11.78" width="10.42" height="33.91" rx="2.52" ry="2.52" transform="translate(38.71 -9.33) rotate(60.18)"/><rect class="cls-1" x="30.88" y="11.86" width="10.42" height="33.91" rx="2.52" ry="2.52" transform="translate(43.14 -16.82) rotate(60.18)"/><rect class="cls-1" x="17.24" y="19.68" width="10.42" height="33.91" rx="2.52" ry="2.52" transform="matrix(0.5, 0.87, -0.87, 0.5, 43.07, -1.06)"/><rect class="cls-1" x="32.83" y="16.74" width="10.42" height="33.91" rx="2.52" ry="2.52" transform="translate(48.36 -16.06) rotate(60.18)"/><rect class="cls-1" x="22.23" y="21.77" width="10.42" height="33.91" rx="2.52" ry="2.52" transform="translate(47.39 -4.34) rotate(60.18)"/><polyline class="cls-1" points="48.29 29.09 52.47 36.38 17.31 48.53"/><polyline class="cls-2" points="28.51 34.72 11.2 45.64 25 43.89"/><rect class="cls-1" x="43.34" y="36.03" width="8.65" height="28.17" rx="2.09" ry="2.09"/><rect class="cls-1" x="46.99" y="29.81" width="8.65" height="28.17" rx="2.09" ry="2.09"/><rect class="cls-1" x="46.99" y="42.86" width="8.65" height="28.17" rx="2.09" ry="2.09"/><rect class="cls-1" x="51.31" y="30.41" width="8.65" height="28.17" rx="2.09" ry="2.09"/><rect class="cls-1" x="50.55" y="40.13" width="8.65" height="28.17" rx="2.09" ry="2.09"/><polyline class="cls-1" points="56.55 35.21 63.54 35.21 57.77 65.57"/><polyline class="cls-2" points="47.9 40.69 48.62 57.68 50.55 38.9"/><rect class="cls-1" x="16.51" y="46.98" width="8.65" height="28.17" rx="2.09" ry="2.09" transform="translate(-7.61 118.98) rotate(-135)"/><rect class="cls-1" x="9.53" y="48.8" width="8.65" height="28.17" rx="2.09" ry="2.09" transform="translate(-20.81 117.16) rotate(-135)"/><rect class="cls-1" x="18.77" y="39.57" width="8.65" height="28.17" rx="2.09" ry="2.09" transform="translate(1.48 107.93) rotate(-135)"/><rect class="cls-1" x="6.9" y="45.32" width="8.65" height="28.17" rx="2.09" ry="2.09" transform="translate(-22.83 109.35) rotate(-135)"/><rect class="cls-1" x="14.31" y="38.98" width="8.65" height="28.17" rx="2.09" ry="2.09" transform="translate(-5.71 103.77) rotate(-135)"/><polyline class="cls-1" points="6.82 65.38 1.88 60.44 27.43 43.05"/><polyline class="cls-2" points="14.01 67.58 25.51 55.05 10.87 66.96"/><rect class="cls-1" x="38.23" y="43.8" width="8.65" height="10.96" rx="2.09" ry="2.09" transform="matrix(-1, 0.08, -0.08, -1, 89.02, 94.9)"/><rect class="cls-1" x="34.8" y="46.51" width="8.65" height="10.96" rx="2.09" ry="2.09" transform="matrix(-1, 0.08, -0.08, -1, 82.38, 100.6)"/><rect class="cls-1" x="34.38" y="41.45" width="8.65" height="10.96" rx="2.09" ry="2.09" transform="translate(81.14 90.53) rotate(175.3)"/><rect class="cls-1" x="30.47" y="46.63" width="8.65" height="10.96" rx="2.09" ry="2.09" transform="translate(73.74 101.19) rotate(175.3)"/><rect class="cls-1" x="30.91" y="42.8" width="8.65" height="10.96" rx="2.09" ry="2.09" transform="translate(74.32 93.51) rotate(175.3)"/><polyline class="cls-1" points="36.13 54.87 29.17 55.44 33.95 43.2"/><polyline class="cls-2" points="42.63 52.95 41.37 46.43 40.04 53.86"/><rect class="cls-1" x="66.58" y="29.12" width="8.65" height="10.96" rx="2.09" ry="2.09" transform="translate(94.2 109.99) rotate(-133.18)"/><rect class="cls-1" x="62.32" y="28.12" width="8.65" height="10.96" rx="2.09" ry="2.09" transform="translate(87.75 105.2) rotate(-133.18)"/><rect class="cls-1" x="66.03" y="24.65" width="8.65" height="10.96" rx="2.09" ry="2.09" transform="translate(96.52 102.05) rotate(-133.18)"/><rect class="cls-1" x="59.54" y="24.81" width="8.65" height="10.96" rx="2.09" ry="2.09" transform="translate(85.48 97.58) rotate(-133.18)"/><rect class="cls-1" x="62.81" y="22.77" width="8.65" height="10.96" rx="2.09" ry="2.09" transform="translate(92.47 96.54) rotate(-133.18)"/><polyline class="cls-1" points="62.54 33.05 57.76 27.95 70.32 24.08"/><polyline class="cls-2" points="68.08 36.94 72.4 31.9 65.75 35.48"/><rect class="cls-1" x="76.17" y="34.12" width="10.42" height="33.91" rx="2.52" ry="2.52" transform="translate(169.78 13.46) rotate(124.84)"/><rect class="cls-1" x="79.81" y="42" width="10.42" height="33.91" rx="2.52" ry="2.52" transform="translate(181.98 22.85) rotate(124.84)"/><rect class="cls-1" x="66.91" y="33.02" width="10.42" height="33.91" rx="2.52" ry="2.52" transform="translate(154.34 19.33) rotate(124.84)"/><rect class="cls-1" x="76.24" y="45.85" width="10.42" height="33.91" rx="2.52" ry="2.52" transform="translate(179.52 31.84) rotate(124.84)"/><rect class="cls-1" x="67.16" y="38.42" width="10.42" height="33.91" rx="2.52" ry="2.52" transform="translate(159.16 27.62) rotate(124.84)"/><polyline class="cls-1" points="90 70.1 85.2 77 59.17 50.42"/><polyline class="cls-2" points="76.45 54.63 59.17 43.66 66.65 55.38"/><rect class="cls-1" x="40.27" y="41.81" width="11.99" height="39.02" rx="2.9" ry="2.9" transform="translate(107.58 15.05) rotate(90)"/><rect class="cls-1" x="48.89" y="46.85" width="11.99" height="39.02" rx="2.9" ry="2.9" transform="translate(121.25 11.48) rotate(90)"/><rect class="cls-1" x="30.81" y="46.85" width="11.99" height="39.02" rx="2.9" ry="2.9" transform="translate(103.16 29.56) rotate(90)"/><rect class="cls-1" x="48.05" y="52.84" width="11.99" height="39.02" rx="2.9" ry="2.9" transform="translate(126.4 18.31) rotate(90)"/><rect class="cls-1" x="34.59" y="51.79" width="11.99" height="39.02" rx="2.9" ry="2.9" transform="translate(111.89 30.72) rotate(90)"/><polyline class="cls-1" points="66.91 73.62 66.91 83.29 24.86 75.3"/><polyline class="cls-2" points="59.32 61.63 35.79 62.63 61.8 65.31"/><polyline class="cls-2" points="88.51 57.04 96.22 63.71 86.91 60.38"/></svg>