<svg id="Layer_1" data-name="Layer 1" xmlns="http://www.w3.org/2000/svg" viewBox="0 0 100 100"><defs><style>.cls-1{fill:#ffc640;}</style></defs><title>star</title><polygon class="cls-1" points="50 12.91 62.05 37.33 89 41.24 69.5 60.25 74.1 87.09 50 74.42 25.89 87.09 30.5 60.25 11 41.24 37.95 37.33 50 12.91"/><path class="cls-1" d="M74.11,98.09A10.9,10.9,0,0,1,69,96.82l-19-10-19,10A11,11,0,0,1,15.06,85.23l3.63-21.14-15.37-15a11,11,0,0,1,6.1-18.76l21.22-3.08L40.14,8A11,11,0,0,1,59.86,8l9.5,19.24,21.22,3.08a11,11,0,0,1,6.1,18.76l-15.37,15,3.63,21.14A11,11,0,0,1,74.11,98.09ZM50,63.43a10.92,10.92,0,0,1,5.12,1.26L59.5,67l-.83-4.88a11,11,0,0,1,3.15-9.73l3.55-3.46-4.9-.71a11,11,0,0,1-8.27-6L50,37.76,47.8,42.2a11,11,0,0,1-8.27,6l-4.9.71,3.55,3.46a11,11,0,0,1,3.15,9.73L40.5,67l4.38-2.3A10.92,10.92,0,0,1,50,63.43Z"/></svg>