<svg id="Layer_1" data-name="Layer 1" xmlns="http://www.w3.org/2000/svg" viewBox="0 0 100 100"><defs><style>.cls-1{fill:#5798b4;}.cls-2{fill:#707070;}.cls-3{fill:#545454;}.cls-4{fill:#7a7c7f;}.cls-5{fill:#895e59;}.cls-6{fill:#87898b;}.cls-7{fill:#5c5c5c;}.cls-8{fill:#6ab8d9;}.cls-9{fill:#9ea0a3;}</style></defs><title>knight</title><path class="cls-1" d="M24.78,0s6.83,1.15,6.83,11.87H24.42"/><rect class="cls-2" x="7.92" y="30.84" width="6.27" height="6.59" rx="1.28" ry="1.28"/><rect class="cls-2" x="36.57" y="30.84" width="6.27" height="6.59" rx="1.28" ry="1.28"/><path class="cls-2" d="M7.18,63.45H44.39a7,7,0,0,1,6.39,4.13,7,7,0,0,0,.63-2.88,7,7,0,0,0-7-7H7.18a7,7,0,0,0-7,7,7,7,0,0,0,.63,2.88A7,7,0,0,1,7.18,63.45Z"/><path class="cls-3" d="M7.18,68.56H44.39a7.05,7.05,0,0,0,6.39-4.14,7.06,7.06,0,0,0-6.39-4.13H7.18A7.06,7.06,0,0,0,.79,64.42,7.05,7.05,0,0,0,7.18,68.56Z"/><rect class="cls-4" x="8.72" y="65.65" width="33.77" height="32.46" rx="4.98" ry="4.98"/><rect class="cls-5" x="11.26" y="51.88" width="5.45" height="20.9" rx="0.82" ry="0.82"/><rect class="cls-5" x="37.04" y="51.88" width="5.45" height="20.9" rx="0.82" ry="0.82"/><rect class="cls-6" x="5.28" y="59.94" width="41.14" height="21.04" rx="3.43" ry="3.43"/><circle class="cls-3" cx="11.63" cy="82.81" r="0.53"/><circle class="cls-3" cx="15.76" cy="82.81" r="0.53"/><circle class="cls-3" cx="24.01" cy="82.81" r="0.53"/><circle class="cls-3" cx="19.65" cy="82.81" r="0.53"/><circle class="cls-3" cx="28.14" cy="82.81" r="0.53"/><circle class="cls-3" cx="32.27" cy="82.81" r="0.53"/><circle class="cls-3" cx="35.93" cy="82.81" r="0.53"/><circle class="cls-3" cx="13.64" cy="85.26" r="0.53"/><circle class="cls-3" cx="17.76" cy="85.26" r="0.53"/><circle class="cls-3" cx="26.02" cy="85.26" r="0.53"/><circle class="cls-3" cx="21.65" cy="85.26" r="0.53"/><circle class="cls-3" cx="30.15" cy="85.26" r="0.53"/><circle class="cls-3" cx="34.28" cy="85.26" r="0.53"/><circle class="cls-3" cx="37.93" cy="85.26" r="0.53"/><circle class="cls-3" cx="39.58" cy="82.81" r="0.53"/><circle class="cls-3" cx="11.63" cy="87.32" r="0.53"/><circle class="cls-3" cx="15.76" cy="87.32" r="0.53"/><circle class="cls-3" cx="24.01" cy="87.32" r="0.53"/><circle class="cls-3" cx="19.65" cy="87.32" r="0.53"/><circle class="cls-3" cx="28.14" cy="87.32" r="0.53"/><circle class="cls-3" cx="32.27" cy="87.32" r="0.53"/><circle class="cls-3" cx="35.93" cy="87.32" r="0.53"/><circle class="cls-3" cx="13.64" cy="89.78" r="0.53"/><circle class="cls-3" cx="17.76" cy="89.78" r="0.53"/><circle class="cls-3" cx="26.02" cy="89.78" r="0.53"/><circle class="cls-3" cx="21.65" cy="89.78" r="0.53"/><circle class="cls-3" cx="30.15" cy="89.78" r="0.53"/><circle class="cls-3" cx="34.28" cy="89.78" r="0.53"/><circle class="cls-3" cx="37.93" cy="89.78" r="0.53"/><circle class="cls-3" cx="39.58" cy="87.32" r="0.53"/><circle class="cls-3" cx="15.76" cy="91.68" r="0.53"/><circle class="cls-3" cx="24.02" cy="91.68" r="0.53"/><circle class="cls-3" cx="19.65" cy="91.68" r="0.53"/><circle class="cls-3" cx="28.14" cy="91.68" r="0.53"/><circle class="cls-3" cx="32.27" cy="91.68" r="0.53"/><circle class="cls-3" cx="35.93" cy="91.68" r="0.53"/><circle class="cls-3" cx="15.76" cy="94.66" r="0.53"/><circle class="cls-3" cx="24.02" cy="94.66" r="0.53"/><circle class="cls-3" cx="19.65" cy="94.66" r="0.53"/><circle class="cls-3" cx="28.14" cy="94.66" r="0.53"/><circle class="cls-3" cx="32.27" cy="94.66" r="0.53"/><circle class="cls-3" cx="35.93" cy="94.66" r="0.53"/><polygon class="cls-3" points="22.18 80.99 29.62 80.99 26.02 77.63 22.18 80.99"/><rect class="cls-7" x="12.16" y="19.31" width="25.5" height="17.03"/><path class="cls-2" d="M40.76,24.76a15.52,15.52,0,0,0-31,0V39.6h4.78V24.72a4.19,4.19,0,0,1,8.38,0v7.59h4.6V24.72a4.19,4.19,0,0,1,8.38,0V39.6h4.89Z"/><polygon class="cls-2" points="11.66 29.34 39.39 29.34 39.39 40.02 25.52 44.55 11.66 40.17 11.66 29.34"/><rect class="cls-7" x="14.8" y="31.18" width="1.28" height="7.83" rx="0.26" ry="0.26"/><rect class="cls-7" x="18.15" y="32.14" width="1.28" height="7.83" rx="0.26" ry="0.26"/><rect class="cls-7" x="21.49" y="33.09" width="1.28" height="7.83" rx="0.26" ry="0.26"/><rect class="cls-7" x="35.34" y="31.18" width="1.28" height="7.83" rx="0.26" ry="0.26" transform="translate(71.97 70.2) rotate(-180)"/><rect class="cls-7" x="32" y="32.14" width="1.28" height="7.83" rx="0.26" ry="0.26" transform="translate(65.28 72.11) rotate(-180)"/><rect class="cls-7" x="28.65" y="33.09" width="1.28" height="7.83" rx="0.26" ry="0.26" transform="translate(58.59 74.02) rotate(-180)"/><rect class="cls-7" x="24.84" y="34.05" width="1.28" height="7.83" rx="0.26" ry="0.26"/><path class="cls-1" d="M26.24,13.29s1.66-5,5.37-2.17L29.49,7.54l-5.61-.92"/><rect class="cls-8" x="22.13" width="4.4" height="14.39" rx="0.9" ry="0.9"/><rect class="cls-1" x="22.66" y="4.71" width="3.12" height="0.71" rx="0.15" ry="0.15"/><rect class="cls-1" x="22.66" y="6.23" width="3.12" height="0.71" rx="0.15" ry="0.15"/><rect class="cls-1" x="22.66" y="7.76" width="3.12" height="0.71" rx="0.15" ry="0.15"/><rect class="cls-1" x="22.66" y="9.28" width="3.12" height="0.71" rx="0.15" ry="0.15"/><rect class="cls-1" x="22.66" y="10.8" width="3.12" height="0.71" rx="0.15" ry="0.15"/><rect class="cls-1" x="22.66" y="12.33" width="3.12" height="0.71" rx="0.15" ry="0.15"/><path class="cls-6" d="M73.52,50.53c0-3.3-6-6-6-6s-6,2.69-6,6v3.26h12Z"/><path class="cls-6" d="M86.68,50.53c0-3.3-6-6-6-6s-6,2.69-6,6v3.26h12Z"/><path class="cls-6" d="M99.84,50.53c0-3.3-6-6-6-6s-6,2.69-6,6v3.26h12Z"/><path class="cls-6" d="M61.53,52.79V77.47C61.53,88,80.69,100,80.69,100S99.84,88,99.84,77.47V52.79Z"/><path class="cls-1" d="M66.55,58.71V76.94c0,7.77,14.14,16.63,14.14,16.63s14.14-8.86,14.14-16.63V58.71Z"/><rect class="cls-6" x="63.58" y="66.2" width="34.33" height="3" rx="0.61" ry="0.61"/><rect class="cls-6" x="60.29" y="74.32" width="40.91" height="3" rx="0.61" ry="0.61" transform="translate(156.57 -4.93) rotate(90)"/><ellipse class="cls-6" cx="62.31" cy="36.95" rx="1.37" ry="3.06" transform="translate(-7.88 54.88) rotate(-45)"/><rect class="cls-5" x="64.76" y="29.42" width="7.64" height="2.6" rx="0.53" ry="0.53" transform="translate(41.81 -39.49) rotate(45)"/><rect class="cls-5" x="63.47" y="30.71" width="7.64" height="2.6" rx="0.53" ry="0.53" transform="translate(42.34 -38.2) rotate(45)"/><rect class="cls-5" x="62.18" y="32" width="7.64" height="2.6" rx="0.53" ry="0.53" transform="translate(42.88 -36.91) rotate(45)"/><rect class="cls-5" x="60.89" y="33.29" width="7.64" height="2.6" rx="0.53" ry="0.53" transform="translate(43.41 -35.63) rotate(45)"/><rect class="cls-5" x="59.69" y="34.49" width="7.64" height="2.6" rx="0.53" ry="0.53" transform="translate(43.91 -34.43) rotate(45)"/><ellipse class="cls-6" cx="70.14" cy="29.18" rx="1.72" ry="8.29" transform="translate(-0.09 58.15) rotate(-45)"/><rect class="cls-6" x="62.81" y="26.88" width="16.58" height="2.7" transform="translate(40.78 -42.01) rotate(45)"/><polygon class="cls-9" points="94.45 4.84 89.1 4.71 68.82 25 71.56 27.74 94.45 4.85 94.45 4.84"/><polygon class="cls-7" points="94.61 10.22 94.45 4.85 71.56 27.74 74.33 30.51 94.61 10.22"/></svg>