<svg id="Layer_1" data-name="Layer 1" xmlns="http://www.w3.org/2000/svg" viewBox="0 0 100 100"><defs><style>.cls-1{fill:#714c48;}.cls-2{fill:#5c3d39;}.cls-3{fill:#895e59;}.cls-4{fill:#fcca98;}.cls-5{fill:#fff;}.cls-6{fill:#3e3e3f;}.cls-7{fill:#3d2320;}.cls-8{fill:#58595b;}.cls-9{fill:#f05c38;}.cls-10{fill:#ffc640;}.cls-11{fill:#231f20;}</style></defs><title>cuckoo</title><path class="cls-1" d="M66.26,85.12,36.8,72.35a5.24,5.24,0,0,0-4.18,0L3.17,85.12A5.26,5.26,0,0,0,5.26,95.2H64.17a5.26,5.26,0,0,0,2.09-10.08Z"/><path class="cls-2" d="M21.31,92.22H48.13a21,21,0,0,0,16.36-7.86l-27.69-12a5.24,5.24,0,0,0-4.18,0L5,84.35A21,21,0,0,0,21.31,92.22Z"/><rect class="cls-1" x="0.28" y="23.59" width="68.87" height="66.36" rx="12" ry="12"/><path class="cls-2" d="M48.13,15H21.31A21.08,21.08,0,0,0,1.53,29a5.24,5.24,0,0,0,3.73,1.57H64.17A5.23,5.23,0,0,0,67.91,29,21.09,21.09,0,0,0,48.13,15ZM30.58,20l4.13-1.79L38.84,20Z"/><polygon class="cls-1" points="5.26 22.83 64.17 22.83 34.71 10.05 5.26 22.83"/><path class="cls-1" d="M64.17,28.09H5.26A5.26,5.26,0,0,1,3.17,18L32.62,5.23a5.24,5.24,0,0,1,4.18,0L66.26,18a5.26,5.26,0,0,1-2.09,10.08ZM30.58,17.58h8.26l-4.13-1.8Z"/><polygon class="cls-3" points="14.26 23.15 54.7 23.15 34.61 11.53 14.26 23.15"/><circle class="cls-2" cx="35.76" cy="65.29" r="18.71"/><circle class="cls-4" cx="35.76" cy="65.29" r="15.45"/><rect class="cls-2" x="14.97" y="62.37" width="2.08" height="7.51" rx="0.38" ry="0.38"/><path class="cls-5" d="M28.93,59.71a7.47,7.47,0,0,1,1.85,4.55,7.47,7.47,0,0,1-4.55-1.85,7.47,7.47,0,0,1-1.85-4.55A7.47,7.47,0,0,1,28.93,59.71Z"/><path class="cls-5" d="M32.68,56a7.52,7.52,0,0,1,1.86,4.55A7.49,7.49,0,0,1,30,58.65a7.47,7.47,0,0,1-1.85-4.55A7.47,7.47,0,0,1,32.68,56Z"/><rect class="cls-6" x="47.03" y="64.54" width="3.85" height="2.39" rx="0.44" ry="0.44"/><rect class="cls-6" x="21.07" y="64.54" width="3.85" height="2.39" rx="0.44" ry="0.44"/><rect class="cls-6" x="34.05" y="77.52" width="3.85" height="2.39" rx="0.44" ry="0.44" transform="translate(114.69 42.74) rotate(90)"/><rect class="cls-6" x="34.05" y="51.56" width="3.85" height="2.39" rx="0.44" ry="0.44" transform="translate(88.73 16.78) rotate(90)"/><path class="cls-6" d="M34.59,66.46l1.29-12.52,1.28,12.52a1.29,1.29,0,0,1-2.57.26A1.13,1.13,0,0,1,34.59,66.46Z"/><path class="cls-6" d="M36.88,67.37l-9.76,7.94,7.94-9.76a1.29,1.29,0,1,1,2,1.63Z"/><rect class="cls-3" x="54.7" y="43.81" width="9.46" height="2.86" rx="0.69" ry="0.69"/><rect class="cls-3" x="41.04" y="84.01" width="9.49" height="2.91" rx="0.7" ry="0.7"/><rect class="cls-3" x="7.87" y="49.45" width="5.99" height="1.38" rx="0.33" ry="0.33"/><rect class="cls-3" x="9.66" y="15.19" width="8.25" height="2.15" rx="0.52" ry="0.52"/><rect class="cls-3" x="4.26" y="91.4" width="4.82" height="0.82" rx="0.2" ry="0.2"/><path class="cls-7" d="M45.58,30.72a11.1,11.1,0,0,0-22.2,0V45.11h22.2Z"/><path class="cls-2" d="M23.32,30.85c-5.1-11.1.2-11.1-7.43-11.1-4.08,0-7.42,5-7.42,11.1V45.24l14.85-3.69Z"/><path class="cls-8" d="M22.46,34.5H35a.63.63,0,0,1,.63.63v1.34a.62.62,0,0,1-.62.62H22.46a.63.63,0,0,1-.63-.63V35.12a.62.62,0,0,1,.62-.62Z" transform="translate(-16.89 30.81) rotate(-45)"/><path class="cls-8" d="M22.46,34.5H35a.63.63,0,0,1,.63.63v1.34a.62.62,0,0,1-.62.62H22.46a.62.62,0,0,1-.62-.62V35.12a.62.62,0,0,1,.62-.62Z" transform="translate(33.73 -9.84) rotate(45)"/><path class="cls-8" d="M30.72,34.5H43.28a.63.63,0,0,1,.63.63v1.34a.62.62,0,0,1-.62.62H30.72a.62.62,0,0,1-.62-.62V35.12a.62.62,0,0,1,.62-.62Z" transform="translate(-14.47 36.64) rotate(-45)"/><rect class="cls-8" x="30.09" y="34.5" width="13.81" height="2.59" rx="0.62" ry="0.62" transform="translate(36.15 -15.68) rotate(45)"/><path class="cls-8" d="M39,34.5H51.53a.63.63,0,0,1,.63.63v1.34a.62.62,0,0,1-.62.62H39a.62.62,0,0,1-.62-.62V35.12A.62.62,0,0,1,39,34.5Z" transform="translate(-12.06 42.48) rotate(-45)"/><path class="cls-8" d="M39,34.5H51.53a.62.62,0,0,1,.62.62v1.34a.62.62,0,0,1-.62.62H39a.63.63,0,0,1-.63-.63V35.12A.62.62,0,0,1,39,34.5Z" transform="translate(38.56 -21.51) rotate(45)"/><rect class="cls-8" x="46.59" y="34.5" width="13.81" height="2.59" rx="0.62" ry="0.62" transform="translate(-9.64 48.31) rotate(-45)"/><path class="cls-8" d="M47.22,34.5H59.78a.63.63,0,0,1,.63.63v1.34a.62.62,0,0,1-.62.62H47.22a.62.62,0,0,1-.62-.62V35.12a.62.62,0,0,1,.62-.62Z" transform="translate(40.98 -27.35) rotate(45)"/><path class="cls-8" d="M55.47,34.5H68a.63.63,0,0,1,.63.63v1.34a.62.62,0,0,1-.62.62H55.47a.63.63,0,0,1-.63-.63V35.12a.62.62,0,0,1,.62-.62Z" transform="translate(-7.22 54.15) rotate(-45)"/><path class="cls-8" d="M55.47,34.5H68a.63.63,0,0,1,.63.63v1.34a.62.62,0,0,1-.62.62H55.47a.62.62,0,0,1-.62-.62V35.12a.62.62,0,0,1,.62-.62Z" transform="translate(43.4 -33.18) rotate(45)"/><rect class="cls-8" x="63.1" y="34.5" width="13.81" height="2.59" rx="0.62" ry="0.62" transform="translate(-4.81 59.98) rotate(-45)"/><path class="cls-8" d="M63.72,34.5H76.28a.63.63,0,0,1,.63.63v1.34a.62.62,0,0,1-.62.62H63.72a.63.63,0,0,1-.63-.63V35.12a.62.62,0,0,1,.62-.62Z" transform="translate(45.81 -39.02) rotate(45)"/><path class="cls-1" d="M25.65,30.85c0-6.1-3.34-11.1-7.43-11.1s-7.42,5-7.42,11.1V45.24H25.65Z"/><polygon class="cls-9" points="86.68 22.2 90.2 24.22 95.32 15.29 86.68 22.2"/><polygon class="cls-9" points="91.33 26.21 90.47 24.11 100 20.21 91.33 26.21"/><polygon class="cls-9" points="73.35 42.16 75.7 43.53 70.67 49.44 73.35 42.16"/><polygon class="cls-9" points="83.71 43.85 85.91 42.26 89.3 49.23 83.71 43.85"/><path class="cls-10" d="M88.19,37.81c-7.77,10.33-23,4-23,4s4.35-5.53,6-10.2a9,9,0,0,1,11.54-5.38C87.48,28,91.17,33.83,88.19,37.81Z"/><path class="cls-10" d="M87.27,42.69A8.28,8.28,0,0,1,73.2,33.94c2.42-3.89,13.61-14.86,17.5-12.44S89.69,38.81,87.27,42.69Z"/><circle class="cls-11" cx="85.82" cy="24.22" r="0.86"/></svg>