<svg id="Layer_1" data-name="Layer 1" xmlns="http://www.w3.org/2000/svg" viewBox="0 0 100 100"><defs><style>.cls-1{fill:#6ab8d9;}.cls-2{fill:#ebf7fd;}.cls-3{fill:#895e59;}.cls-4{fill:#ffc63f;}.cls-5{fill:#00a69c;}</style></defs><title>island</title><ellipse class="cls-1" cx="50" cy="74.66" rx="50" ry="9.57"/><ellipse class="cls-2" cx="49.74" cy="73.33" rx="46.31" ry="8.86"/><path class="cls-3" d="M33.05,28.61l7.39,3a2,2,0,0,1,0,3.75l-5.11,2a2,2,0,0,1-2.56-1l-2.28-5A2,2,0,0,1,33.05,28.61Z"/><path class="cls-3" d="M31,35.5l7.88,1.2a2,2,0,0,1,.84,3.65l-4.5,3.11A2,2,0,0,1,32.5,43l-3.37-4.31A2,2,0,0,1,31,35.5Z"/><path class="cls-3" d="M30.49,42.81,38.41,42a2,2,0,0,1,1.73,3.32l-3.58,4.14a2,2,0,0,1-2.75.28l-4.35-3.33A2,2,0,0,1,30.49,42.81Z"/><path class="cls-3" d="M31.57,49l7.58-2.46a2,2,0,0,1,2.39,2.88l-2.63,4.81a2,2,0,0,1-2.63.85l-5-2.34A2,2,0,0,1,31.57,49Z"/><path class="cls-3" d="M36.4,21.6l6.84,4.6A2.08,2.08,0,0,1,42.42,30l-5.58.93a2.08,2.08,0,0,1-2.37-1.59l-1.26-5.53A2.08,2.08,0,0,1,36.4,21.6Z"/><path class="cls-4" d="M92.77,70.75c0-1.15-7.06-8.16-17.9-13.55a57.79,57.79,0,0,0-25.45-6.4A57.88,57.88,0,0,0,23.8,57.28C13.05,62.66,6.07,69.6,6.07,70.75a.27.27,0,0,0,.06.17,1.74,1.74,0,0,0-.06.45c0,4.89,19.41,8.86,43.35,8.86s43.35-4,43.35-8.86a2.3,2.3,0,0,0,0-.45A.34.34,0,0,0,92.77,70.75Z"/><circle class="cls-2" cx="25.69" cy="64.89" r="1.16"/><circle class="cls-2" cx="29.85" cy="71.75" r="1.16"/><circle class="cls-2" cx="48.57" cy="71.75" r="1.16"/><circle class="cls-2" cx="67.3" cy="71.75" r="1.16"/><circle class="cls-2" cx="34.82" cy="64.89" r="1.16"/><circle class="cls-2" cx="53.08" cy="64.89" r="1.16"/><circle class="cls-2" cx="43.42" cy="64.89" r="1.16"/><circle class="cls-2" cx="62.21" cy="64.89" r="1.16"/><circle class="cls-2" cx="71.35" cy="64.89" r="1.16"/><path class="cls-5" d="M23.38,16.13A21.32,21.32,0,0,0,9.57,24.58l29.69-5.23A21.31,21.31,0,0,0,23.38,16.13Z"/><path class="cls-5" d="M26.35,22.73c-5.22,3.37-8,9.27-8.23,15.82l26-16.8C38.1,19.24,31.57,19.37,26.35,22.73Z"/><path class="cls-5" d="M50.73,30.45a13.88,13.88,0,0,0-9.57-6.33L52.41,41.8A13.9,13.9,0,0,0,50.73,30.45Z"/><path class="cls-5" d="M53.06,23.68a17.15,17.15,0,0,0-14.54,0L62.4,34.82A17.13,17.13,0,0,0,53.06,23.68Z"/><path class="cls-5" d="M35,19.36a5.14,5.14,0,1,1,8.86,5.22"/></svg>