<svg id="Layer_1" data-name="Layer 1" xmlns="http://www.w3.org/2000/svg" viewBox="0 0 100 100"><defs><style>.cls-1{fill:#895e59;}.cls-2{fill:#9c9a44;}.cls-3{fill:#b2ae4f;}.cls-4{fill:#231f20;}</style></defs><title>dinosaur</title><polygon class="cls-1" points="15.89 43 16.67 49.69 25.11 53.57 22.41 44.68 15.89 43"/><polygon class="cls-1" points="21.16 33.46 21.94 40.15 30.37 44.04 27.68 35.15 21.16 33.46"/><polygon class="cls-1" points="30.99 26.5 30.37 33.2 37.83 38.75 37.02 29.49 30.99 26.5"/><polygon class="cls-1" points="75.46 44.02 74.69 50.71 66.25 54.6 68.94 45.71 75.46 44.02"/><polygon class="cls-1" points="70.19 34.49 69.42 41.17 60.98 45.06 63.67 36.17 70.19 34.49"/><polygon class="cls-1" points="100 61.18 99.65 64.23 95.79 66.01 97.02 61.95 100 61.18"/><polygon class="cls-1" points="90.96 61.8 94.02 62.15 95.79 66.01 91.73 64.78 90.96 61.8"/><polygon class="cls-1" points="60.36 27.53 60.98 34.23 53.53 39.77 54.33 30.52 60.36 27.53"/><polygon class="cls-1" points="45.5 22.96 41.65 28.47 45.38 36.98 49.26 28.54 45.5 22.96"/><path class="cls-2" d="M71.81,54.13H9.7a6.19,6.19,0,0,0,0,12.38H98.76Z"/><path class="cls-2" d="M74.37,59.78c0,1.91-13.09,3.46-29.24,3.46s-29.24-1.55-29.24-3.46,13.09-28,29.24-28S74.37,57.86,74.37,59.78Z"/><path class="cls-3" d="M50.49,45.06l5.2-9.71A21.12,21.12,0,0,0,48,32.07Z"/><path class="cls-3" d="M64.53,57.85l5.37-6.94c-.49-.77-1-1.56-1.56-2.37Z"/><path class="cls-3" d="M59,37.84l-1.74,14,7.3-8.28A48.27,48.27,0,0,0,59,37.84Z"/><path class="cls-3" d="M38.27,33.32,43.13,57l2.65-25.13c-.21,0-.43,0-.65,0A17.13,17.13,0,0,0,38.27,33.32Z"/><path class="cls-3" d="M25.15,44.21c-1.42,1.74-2.7,3.52-3.83,5.22l7.86,10Z"/><path class="cls-3" d="M27,42.05,34.83,51l1.32-16.58A37.56,37.56,0,0,0,27,42.05Z"/><rect class="cls-2" y="59.43" width="12.84" height="7.07" rx="1.72" ry="1.72"/><circle class="cls-4" cx="10.76" cy="57.85" r="0.9"/><rect class="cls-2" x="23.77" y="61.18" width="6.54" height="15.87" rx="1.59" ry="1.59"/><rect class="cls-2" x="60.98" y="61.18" width="6.54" height="15.87" rx="1.59" ry="1.59"/></svg>