<svg id="Layer_1" data-name="Layer 1" xmlns="http://www.w3.org/2000/svg" viewBox="0 0 100 100"><defs><style>.cls-1{fill:#fac6b9;}.cls-2{fill:#714c48;}.cls-3{fill:#895e59;}.cls-4{fill:#f37d3b;}.cls-5{fill:#3e3e3f;}</style></defs><title>dog</title><path class="cls-1" d="M90.22,31.49a13.68,13.68,0,0,0-2.68-7.89l-1.13.23A32.17,32.17,0,0,1,84,28.64,7.06,7.06,0,0,0,90.22,31.49Z"/><path class="cls-2" d="M84,28.64c-.51.84-1,1.66-1.56,2.48l-4.26,6.64a43.23,43.23,0,0,0-3.66,7.14,76.62,76.62,0,0,1-3.39,7.6C69.79,55,68.41,57.41,67,59.84s-2.79,4.92-4.25,7.35c-2.87,4.91-5.9,9.75-8.93,14.63l.87.76c4.44-3.72,8.58-7.75,12.64-11.89,2-2.09,4-4.22,5.91-6.39s3.75-4.45,5.57-6.76,3.74-4.56,5.57-7a28.25,28.25,0,0,0,4.23-8,31.4,31.4,0,0,0,1.67-9.38q0-.84-.06-1.71A7.06,7.06,0,0,1,84,28.64Z"/><ellipse class="cls-2" cx="30.91" cy="15.84" rx="12.15" ry="3.7" transform="translate(-0.16 31.37) rotate(-53.7)"/><ellipse class="cls-2" cx="64.63" cy="15.84" rx="3.7" ry="12.15" transform="translate(3.16 41.34) rotate(-36.3)"/><path class="cls-3" d="M81.64,80.23c0,6.32-15.4,11.43-34.4,11.43s-34.4-5.11-34.4-11.43S28.24,0,47.24,0,81.64,73.92,81.64,80.23Z"/><path class="cls-2" d="M66.91,89.61a85.21,85.21,0,0,1-20.64,2.86,74.17,74.17,0,0,1-20.69-3.36c0-3.53,10.05-48,20.69-48S66.91,86.07,66.91,89.61Z"/><rect class="cls-4" x="44.55" y="24.41" width="5.77" height="9.03" rx="1.25" ry="1.25"/><ellipse class="cls-2" cx="41.28" cy="23.72" rx="8.65" ry="5.84" transform="translate(-5.41 14.43) rotate(-18.63)"/><ellipse class="cls-2" cx="54.25" cy="23.72" rx="5.84" ry="8.65" transform="translate(14.45 67.55) rotate(-71.37)"/><ellipse class="cls-5" cx="47.62" cy="18.06" rx="3.75" ry="1.83"/><ellipse class="cls-1" cx="38.86" cy="12.73" rx="6.57" ry="3.1" transform="translate(5.59 36.51) rotate(-53.7)"/><circle class="cls-5" cx="37.88" cy="12.65" r="0.97"/><circle class="cls-5" cx="56.57" cy="12.65" r="0.97"/><rect class="cls-3" x="25.58" y="42.28" width="8.93" height="56.21" rx="1.94" ry="1.94"/><rect class="cls-3" x="58.92" y="42.28" width="8.93" height="56.21" rx="1.94" ry="1.94"/><rect class="cls-3" x="73.14" y="59.02" width="12.25" height="29.67" rx="2.66" ry="2.66"/><rect class="cls-3" x="9.72" y="59.02" width="12.25" height="29.67" rx="2.66" ry="2.66"/><circle class="cls-2" cx="11.66" cy="87.24" r="1.95"/><circle class="cls-2" cx="15.02" cy="88.69" r="1.95"/><circle class="cls-2" cx="18.91" cy="87.75" r="1.95"/><circle class="cls-2" cx="76.2" cy="87.24" r="1.95"/><circle class="cls-2" cx="79.55" cy="88.69" r="1.95"/><circle class="cls-2" cx="83.44" cy="87.75" r="1.95"/><circle class="cls-2" cx="59.76" cy="96.61" r="1.95"/><circle class="cls-2" cx="63.11" cy="98.05" r="1.95"/><circle class="cls-2" cx="67" cy="97.12" r="1.95"/><circle class="cls-2" cx="26.43" cy="96.61" r="1.95"/><circle class="cls-2" cx="29.78" cy="98.05" r="1.95"/><circle class="cls-2" cx="33.67" cy="97.12" r="1.95"/></svg>