<svg id="Layer_1" data-name="Layer 1" xmlns="http://www.w3.org/2000/svg" viewBox="0 0 100 100"><defs><style>.cls-1{fill:#f37d3b;}.cls-2{fill:#ffc63f;}.cls-3{fill:#3e3e3f;}</style></defs><title>duck</title><path class="cls-1" d="M83.15,23.64A62.34,62.34,0,0,1,59.06,18.5a2.67,2.67,0,1,1,2.26-4.84c.17.08,17.34,8,33.45,3a2.67,2.67,0,0,1,1.57,5.11A45,45,0,0,1,83.15,23.64Z"/><path class="cls-1" d="M60.19,38.1a2.67,2.67,0,0,1-.09-5.34c4.41-.15,24.13-6.9,36.31-11.4a2.67,2.67,0,0,1,1.84,5c-3.18,1.18-31.28,11.5-38,11.73Z"/><polygon class="cls-1" points="58.3 16.75 46.62 27.31 58.97 36.32 95.55 23.42 87.66 21.42 58.3 16.75"/><path class="cls-2" d="M80.94,79.51c0,16.95-17.94,16.62-40.07,16.62S.8,96.46.8,79.51s17.94-30.7,40.07-30.7S80.94,62.55,80.94,79.51Z"/><path class="cls-2" d="M75.15,33.59c-4.84,10.51-26.9,36-37.41,31.14s-5.48-38.16-.64-48.67A20.95,20.95,0,0,1,75.15,33.59Z"/><circle class="cls-3" cx="44.25" cy="21.49" r="2.37"/><path class="cls-1" d="M75.83,17.72S75.3,25,70.51,25.49c0,0,4,4.08,4.2,9L83.6,23.31"/><path class="cls-2" d="M8.3,68.26S-3,62,.8,43.42c0,0,1.72,9.3,6.08,8.82a12.86,12.86,0,0,1,0-6.9s1.44,10,15.37,13.43"/></svg>