<svg id="Layer_1" data-name="Layer 1" xmlns="http://www.w3.org/2000/svg" viewBox="0 0 100 100"><defs><style>.cls-1{fill:#fff;}.cls-2{fill:#9c9c9c;}.cls-3{fill:#6ab8d9;}.cls-4{fill:#5b9fbc;}.cls-5{fill:#bf9b77;}.cls-6{fill:#91775a;}</style></defs><title>engineer</title><path class="cls-1" d="M9.82,27.6A23.07,23.07,0,0,1,56,27.6"/><path class="cls-2" d="M15.3,24.36A1.41,1.41,0,0,1,13.89,23,13.07,13.07,0,0,1,19.76,12a1.41,1.41,0,0,1,1.56,2.35A10.27,10.27,0,0,0,16.71,23,1.41,1.41,0,0,1,15.3,24.36Z"/><path class="cls-2" d="M24.86,24.36A1.41,1.41,0,0,1,23.45,23c0-4.19.91-8.12,2.44-10.51A1.41,1.41,0,1,1,28.26,14c-1.23,1.93-2,5.37-2,9A1.41,1.41,0,0,1,24.86,24.36Z"/><path class="cls-2" d="M49.94,24.36A1.41,1.41,0,0,1,48.53,23a10.27,10.27,0,0,0-4.61-8.58A1.41,1.41,0,0,1,45.47,12,13.08,13.08,0,0,1,51.35,23,1.41,1.41,0,0,1,49.94,24.36Z"/><path class="cls-2" d="M40.38,24.36A1.41,1.41,0,0,1,39,23c0-3.62-.76-7.06-2-9a1.41,1.41,0,1,1,2.38-1.52c1.52,2.39,2.44,6.32,2.44,10.51A1.41,1.41,0,0,1,40.38,24.36Z"/><path class="cls-1" d="M63,32H10a3.18,3.18,0,0,1-3.17-3.17h0A3.18,3.18,0,0,1,10,25.67H54.11L63,27.6c1.75,0,3.17,3.17,3.17,3.17h0A5.43,5.43,0,0,1,63,32Z"/><path class="cls-2" d="M32.89,24.36A1.41,1.41,0,0,1,31.48,23V13.2a1.41,1.41,0,1,1,2.82,0V23A1.41,1.41,0,0,1,32.89,24.36Z"/><path class="cls-3" d="M62.07,48.47a4.29,4.29,0,0,0-4.28-4.27H15.2a4.28,4.28,0,0,0-4.27,4.27V91.06a4.28,4.28,0,0,0,4.27,4.27H48.82L62.07,82.09Z"/><path class="cls-4" d="M62.07,82.09h-9a4.28,4.28,0,0,0-4.27,4.27v9Z"/><rect class="cls-4" x="9.92" y="44.2" width="14.13" height="50.82" rx="3.1" ry="3.1"/><rect class="cls-3" x="8.55" y="42.05" width="14.13" height="54.32" rx="3.2" ry="3.2"/><circle class="cls-4" cx="15.62" cy="88.71" r="5.99"/><circle class="cls-3" cx="15.62" cy="88.71" r="4.84"/><circle class="cls-5" cx="15.62" cy="88.71" r="3.74"/><circle class="cls-6" cx="15.62" cy="88.71" r="2.39"/><path class="cls-1" d="M37.59,71.2l-.13-.64,0-.63c.44,0,.82,0,1.16-.07l.17,1.26A9.87,9.87,0,0,1,37.59,71.2Zm-1.48-.12a7.94,7.94,0,0,1-1.32-.31l.37-1.21a7.27,7.27,0,0,0,1.14.27Zm4-.23-.35-1.22a8.63,8.63,0,0,0,1.11-.4l.51,1.16A11.31,11.31,0,0,1,40.14,70.85Zm-6.62-.58a8.44,8.44,0,0,1-1.17-.67l.7-1a8.61,8.61,0,0,0,1,.58Zm9.08-.52-.67-1.07a8,8,0,0,0,1-.7l.82,1A9.65,9.65,0,0,1,42.6,69.75Zm-11.32-1a8.71,8.71,0,0,1-.94-1l1-.81a7.3,7.3,0,0,0,.82.85ZM44.66,68l-.95-.83a7.24,7.24,0,0,0,.71-.94l1.06.69A7.31,7.31,0,0,1,44.66,68Zm-15.11-1.3a10.6,10.6,0,0,1-.62-1.21L30.09,65a10.24,10.24,0,0,0,.54,1Zm16.59-1L45,65.2a8.54,8.54,0,0,0,.41-1.1l1.22.36A9.22,9.22,0,0,1,46.14,65.73ZM28.49,64.2a9.47,9.47,0,0,1-.25-1.33l1.26-.14a7.5,7.5,0,0,0,.21,1.15ZM46.9,63.14,45.65,63a7.49,7.49,0,0,0,.09-1.17H47A8.71,8.71,0,0,1,46.9,63.14ZM29.44,61.56l-1.26,0a8.58,8.58,0,0,1,.14-1.35l1.24.22A11,11,0,0,0,29.44,61.56Zm16.27-.49a9,9,0,0,0-.19-1.16l1.23-.29A9.85,9.85,0,0,1,47,61ZM29.84,59.25l-1.2-.4a9.1,9.1,0,0,1,.51-1.25l1.14.56A6.94,6.94,0,0,0,29.84,59.25Zm15.33-.46a9.26,9.26,0,0,0-.51-1l1.1-.63a10.55,10.55,0,0,1,.59,1.22ZM30.88,57.15l-1-.72a10.82,10.82,0,0,1,.85-1l.93.86A9.46,9.46,0,0,0,30.88,57.15ZM44,56.76a8.16,8.16,0,0,0-.79-.87l.87-.91A9.55,9.55,0,0,1,45,56ZM32.48,55.44l-.79-1a9.53,9.53,0,0,1,1.11-.77l.64,1.09A7.86,7.86,0,0,0,32.48,55.44Zm9.83-.29a7.27,7.27,0,0,0-1-.62l.58-1.12a9.65,9.65,0,0,1,1.16.7Zm-7.82-.9L34,53.07a9.71,9.71,0,0,1,1.29-.42l.3,1.23A7.23,7.23,0,0,0,34.49,54.25Zm5.74-.18a8.13,8.13,0,0,0-1.13-.29l.23-1.25a9.34,9.34,0,0,1,1.31.35Zm-3.47-.39-.13-1.26a8.83,8.83,0,0,1,1.36,0l-.06,1.26h-.34A7.56,7.56,0,0,0,36.76,53.68Z"/><path class="cls-1" d="M53.21,78.47H51.67V77.21h.91v.28h.63Zm-2.81,0H49.14V77.21H50.4Zm-2.53,0H46.61V77.21h1.26Zm-2.53,0H44.08V77.21h1.26Zm-2.53,0H41.54V77.21h1.27Zm-2.53,0H39V77.21h1.27Zm-2.53,0h-1V77H38v.87h-.24Zm15.46-2.25H51.94V75h1.27ZM38,75.71H36.72V74.44H38Zm15.22-2H51.94V72.42h1.27ZM38,73.17H36.72V71.91H38Zm15.22-2H51.94V69.89h1.27ZM38,70.64H36.72V69.38H38ZM58.67,69H57.4V67.76h1.27Zm-2.53,0H54.87V67.76h1.27Zm-2.53,0h-1v-.39h-.64v-.87h1.67ZM38,68.11H36.72V66.85H38Zm21.87-.43H58.59V66.41h1.27ZM38,65.58H36.72V64.31H38Zm21.87-.44H58.59V63.88h1.27ZM38,63.05H36.72V61.78H38Zm21.87-.44H58.59V61.35h1.27Zm0-2.53H58.59V58.82h1.27Z"/><path class="cls-1" d="M54,61.35A3.4,3.4,0,1,1,57.4,58,3.41,3.41,0,0,1,54,61.35Zm0-5.54A2.14,2.14,0,1,0,56.14,58,2.13,2.13,0,0,0,54,55.81Z"/><path class="cls-1" d="M32.76,81.4H26.55V74.24h6.21Zm-4.94-1.26H31.5V75.51H27.82Z"/><rect class="cls-1" x="47.08" y="46.12" width="12.14" height="1.5" rx="0.34" ry="0.34"/><rect class="cls-1" x="47.08" y="49.08" width="12.14" height="1.5" rx="0.34" ry="0.34"/><rect class="cls-2" x="71.83" width="5.23" height="100" rx="1.19" ry="1.19"/><rect class="cls-2" x="87.94" width="5.23" height="100" rx="1.19" ry="1.19"/><rect class="cls-2" x="72.04" y="10.19" width="21.12" height="2.48" transform="translate(16.11 61.75) rotate(-45)"/><rect class="cls-2" x="72.04" y="10.19" width="21.12" height="2.48" transform="translate(16.11 61.75) rotate(-45)"/><rect class="cls-2" x="81.36" y="0.87" width="2.48" height="21.12" transform="translate(16.11 61.75) rotate(-45)"/><rect class="cls-2" x="72.04" y="24.93" width="21.12" height="2.48" transform="translate(5.69 66.07) rotate(-45)"/><rect class="cls-2" x="72.04" y="24.93" width="21.12" height="2.48" transform="translate(5.69 66.07) rotate(-45)"/><rect class="cls-2" x="81.36" y="15.61" width="2.48" height="21.12" transform="translate(5.69 66.07) rotate(-45)"/><rect class="cls-2" x="72.04" y="39.67" width="21.12" height="2.48" transform="translate(-4.74 70.39) rotate(-45)"/><rect class="cls-2" x="72.04" y="39.67" width="21.12" height="2.48" transform="translate(-4.74 70.39) rotate(-45)"/><rect class="cls-2" x="81.36" y="30.35" width="2.48" height="21.12" transform="translate(-4.74 70.39) rotate(-45)"/><rect class="cls-2" x="72.04" y="54.41" width="21.12" height="2.48" transform="translate(-15.16 74.71) rotate(-45)"/><rect class="cls-2" x="72.04" y="54.41" width="21.12" height="2.48" transform="translate(-15.16 74.71) rotate(-45)"/><rect class="cls-2" x="81.36" y="45.1" width="2.48" height="21.12" transform="translate(-15.16 74.71) rotate(-45)"/><rect class="cls-2" x="72.04" y="69.15" width="21.12" height="2.48" transform="translate(-25.58 79.02) rotate(-45)"/><rect class="cls-2" x="72.04" y="69.15" width="21.12" height="2.48" transform="translate(-25.58 79.02) rotate(-45)"/><rect class="cls-2" x="81.36" y="59.84" width="2.48" height="21.12" transform="translate(-25.58 79.02) rotate(-45)"/><rect class="cls-2" x="72.04" y="83.89" width="21.12" height="2.48" transform="translate(-36.01 83.34) rotate(-45)"/><rect class="cls-2" x="72.04" y="83.89" width="21.12" height="2.48" transform="translate(-36.01 83.34) rotate(-45)"/><rect class="cls-2" x="81.36" y="74.58" width="2.48" height="21.12" transform="translate(-36.01 83.34) rotate(-45)"/></svg>