<svg id="Layer_1" data-name="Layer 1" xmlns="http://www.w3.org/2000/svg" viewBox="0 0 100 100"><defs><style>.cls-1{fill:#895e59;}.cls-2{fill:#654440;}.cls-3{fill:#f37d3b;}.cls-4{fill:#09a582;}.cls-5{fill:#ffc640;}.cls-6{fill:#231f20;}</style></defs><title>family</title><path class="cls-1" d="M49.85,52.87c18,0,32.54,2.53,32.54,5.64h9.22c-8.94-4.81-24-8-41.14-8s-32.21,3.17-41.14,8h8C17.3,55.4,31.87,52.87,49.85,52.87Z"/><ellipse class="cls-2" cx="49.85" cy="58.51" rx="32.54" ry="5.64"/><rect class="cls-1" x="7.58" y="53.38" width="3.03" height="8.72" rx="0.73" ry="0.73" transform="translate(-27.65 12.28) rotate(-30)"/><rect class="cls-1" x="6.94" y="56.5" width="3.03" height="8.72" rx="0.73" ry="0.73" transform="translate(-29.29 12.38) rotate(-30)"/><rect class="cls-1" x="84.38" y="52.78" width="2.08" height="5.98" rx="0.5" ry="0.5" transform="translate(20.59 -22.99) rotate(17.4)"/><rect class="cls-3" x="20.03" y="24.31" width="24.5" height="52.44" rx="5.94" ry="5.94"/><rect class="cls-4" x="54.25" y="24.31" width="24.5" height="52.44" rx="5.94" ry="5.94"/><polygon class="cls-5" points="28.48 39.55 36.56 39.55 32.52 47.98 28.48 39.55"/><path class="cls-5" d="M32.52,49h0a1,1,0,0,1-.93-.58l-4-8.43a1,1,0,0,1,.06-1,1,1,0,0,1,.87-.48h8.08a1,1,0,0,1,.88.48,1,1,0,0,1,.05,1l-4,8.43A1,1,0,0,1,32.52,49Zm-2.4-8.42,2.4,5,2.4-5Z"/><circle class="cls-6" cx="22.37" cy="39.55" r="1.46"/><circle class="cls-6" cx="42.24" cy="39.55" r="1.46"/><polygon class="cls-5" points="62.67 39.55 70.76 39.55 66.71 47.98 62.67 39.55"/><path class="cls-5" d="M66.71,49a1,1,0,0,1-.93-.58l-4-8.43a1,1,0,0,1,.06-1,1,1,0,0,1,.87-.48h8.09a1,1,0,0,1,.87.48,1,1,0,0,1,.06,1l-4,8.43A1,1,0,0,1,66.71,49Zm-2.4-8.42,2.4,5,2.41-5Z"/><circle class="cls-6" cx="56.57" cy="39.55" r="1.46"/><circle class="cls-6" cx="76.43" cy="39.55" r="1.46"/><rect class="cls-5" x="33.54" y="47.2" width="17.39" height="37.22" rx="4.21" ry="4.21"/><circle class="cls-5" cx="33.58" cy="60.71" r="1.66"/><circle class="cls-5" cx="34.59" cy="59.05" r="1.66"/><circle class="cls-5" cx="32.86" cy="56.6" r="1.66"/><circle class="cls-5" cx="34.52" cy="54.94" r="1.66"/><circle class="cls-5" cx="33.94" cy="52.51" r="1.66"/><circle class="cls-5" cx="34.91" cy="50.53" r="1.66"/><circle class="cls-5" cx="36.71" cy="47.98" r="1.66"/><circle class="cls-5" cx="39.54" cy="48.33" r="1.66"/><circle class="cls-5" cx="40.78" cy="46.67" r="1.66"/><circle class="cls-5" cx="43.62" cy="46.67" r="1.66"/><circle class="cls-5" cx="45.28" cy="48.6" r="1.66"/><circle class="cls-5" cx="48.27" cy="48.33" r="1.66"/><circle class="cls-5" cx="49.31" cy="50.53" r="1.66"/><circle class="cls-5" cx="51.51" cy="52.19" r="1.66"/><circle class="cls-5" cx="50.47" cy="53.61" r="1.66"/><circle class="cls-5" cx="52.59" cy="55.83" r="1.66"/><circle class="cls-5" cx="50.64" cy="56.98" r="1.66"/><circle class="cls-5" cx="51.51" cy="57.71" r="1.66"/><circle class="cls-5" cx="50.93" cy="55.83" r="1.66"/><circle class="cls-5" cx="50.97" cy="58.89" r="1.66"/><circle class="cls-5" cx="49.59" cy="61.81" r="1.66"/><circle class="cls-5" cx="50.64" cy="61.81" r="1.66"/><circle class="cls-5" cx="50.93" cy="64" r="1.66"/><polygon class="cls-3" points="39.54 58.02 45.28 58.02 42.41 64 39.54 58.02"/><path class="cls-3" d="M42.41,64.73a.73.73,0,0,1-.66-.42l-2.87-6a.73.73,0,0,1,.66-1h5.74a.73.73,0,0,1,.66,1l-2.87,6A.73.73,0,0,1,42.41,64.73Zm-1.7-6,1.7,3.55,1.71-3.55Z"/><circle class="cls-6" cx="35.21" cy="58.01" r="1.04"/><circle class="cls-6" cx="49.31" cy="58.01" r="1.04"/><path class="cls-1" d="M91.61,58.51H82.39c0,3.12-14.57,5.65-32.54,5.65S17.3,61.63,17.3,58.51h-8C3.94,61.42.79,64.92.79,68.7c0,10,22.24,18.16,49.68,18.16s49.67-8.13,49.67-18.16C100.14,64.92,97,61.42,91.61,58.51Z"/><rect class="cls-1" x="56.11" y="82.5" width="3.03" height="8.72" rx="0.73" ry="0.73" transform="matrix(0.93, 0.36, -0.36, 0.93, 35.65, -15.03)"/><rect class="cls-1" x="14.18" y="76.96" width="3.03" height="8.72" rx="0.73" ry="0.73" transform="translate(30.74 -0.12) rotate(21.39)"/><rect class="cls-1" x="59.14" y="82.5" width="3.03" height="8.72" rx="0.73" ry="0.73" transform="translate(-21.31 19.74) rotate(-15.76)"/><rect class="cls-1" x="20.09" y="79.28" width="3.03" height="8.72" rx="0.73" ry="0.73" transform="translate(-21.91 9.01) rotate(-15.76)"/><rect class="cls-1" x="1.56" y="70.2" width="3.03" height="8.72" rx="0.73" ry="0.73" transform="translate(37.69 8.45) rotate(30)"/><rect class="cls-2" x="60.65" y="73.51" width="8.67" height="2.89" rx="0.7" ry="0.7"/><rect class="cls-2" x="11.36" y="65.81" width="8.67" height="2.89" rx="0.7" ry="0.7"/><rect class="cls-2" x="35.23" y="74.11" width="17.71" height="5.9" rx="1.43" ry="1.43"/><path class="cls-3" d="M56.91,14c0,4.74-8.64,8.59-8.64,8.59S39.64,18.71,39.64,14c0-7.07,8.63-6.33,8.63-1.82C48.27,16.9,56.91,9.23,56.91,14Z"/><path class="cls-3" d="M39.64,14c0,4.74,8.63,10.09,8.63,10.09S56.91,18.71,56.91,14c0-7.07-8.64-6.33-8.64-1.82C48.27,16.9,39.64,9.23,39.64,14Z"/></svg>