<svg id="Layer_1" data-name="Layer 1" xmlns="http://www.w3.org/2000/svg" viewBox="0 0 100 100"><defs><style>.cls-1{fill:#6d4945;}.cls-2{fill:#895e59;}.cls-3{fill:#f37d3b;}.cls-4{fill:#00a69c;}</style></defs><title>orchard</title><rect class="cls-1" x="28.82" y="33.94" width="71.18" height="15.74" rx="3.95" ry="3.95"/><polyline class="cls-1" points="69.09 76.01 97.54 47.56 97.54 37.8 95.81 35.32 51.73 56.72"/><path class="cls-2" d="M32.67,34.86,3,64.5H68.14L97,35.64h-.07a7.79,7.79,0,0,0-4.81-1.69H36.69a7.77,7.77,0,0,0-3.61.92"/><path class="cls-1" d="M63.31,62.82H7.87a7.87,7.87,0,0,0,0,15.74H63.31a7.87,7.87,0,1,0,0-15.74Z"/><circle class="cls-3" cx="32.49" cy="31.98" r="0.81"/><circle class="cls-3" cx="41.53" cy="32.24" r="0.81"/><rect class="cls-1" x="35.95" y="30.56" width="2.3" height="8.96" rx="0.58" ry="0.58"/><circle class="cls-4" cx="37.1" cy="27.66" r="6.22"/><circle class="cls-3" cx="32.3" cy="28.45" r="0.81"/><circle class="cls-3" cx="39.92" cy="30.37" r="0.81"/><circle class="cls-3" cx="41.9" cy="28.13" r="0.81"/><circle class="cls-3" cx="34.65" cy="26.1" r="0.81"/><circle class="cls-3" cx="39.74" cy="26.01" r="0.81"/><circle class="cls-3" cx="37.1" cy="23.45" r="0.81"/><circle class="cls-3" cx="57.14" cy="32.24" r="0.81"/><rect class="cls-1" x="51.55" y="30.56" width="2.3" height="8.96" rx="0.58" ry="0.58"/><circle class="cls-4" cx="52.7" cy="27.66" r="6.22"/><circle class="cls-3" cx="47.9" cy="28.45" r="0.81"/><circle class="cls-3" cx="50.26" cy="30.62" r="0.81"/><circle class="cls-3" cx="52.98" cy="31.87" r="0.81"/><circle class="cls-3" cx="50.26" cy="26.1" r="0.81"/><circle class="cls-3" cx="55.35" cy="26.01" r="0.81"/><circle class="cls-3" cx="52.7" cy="23.45" r="0.81"/><circle class="cls-3" cx="72.75" cy="32.24" r="0.81"/><rect class="cls-1" x="67.16" y="30.56" width="2.3" height="8.96" rx="0.58" ry="0.58"/><circle class="cls-4" cx="68.31" cy="27.66" r="6.22"/><circle class="cls-3" cx="63.51" cy="28.45" r="0.81"/><circle class="cls-3" cx="68.58" cy="31.87" r="0.81"/><circle class="cls-3" cx="71.13" cy="30.37" r="0.81"/><circle class="cls-3" cx="73.11" cy="28.13" r="0.81"/><circle class="cls-3" cx="65.87" cy="26.1" r="0.81"/><circle class="cls-3" cx="70.96" cy="26.01" r="0.81"/><circle class="cls-3" cx="68.31" cy="23.45" r="0.81"/><circle class="cls-3" cx="88.35" cy="32.24" r="0.81"/><rect class="cls-1" x="82.77" y="30.56" width="2.3" height="8.96" rx="0.58" ry="0.58"/><circle class="cls-4" cx="83.92" cy="27.66" r="6.22"/><circle class="cls-3" cx="79.12" cy="28.45" r="0.81"/><circle class="cls-3" cx="81.47" cy="30.62" r="0.81"/><circle class="cls-3" cx="84.19" cy="31.87" r="0.81"/><circle class="cls-3" cx="88.72" cy="28.13" r="0.81"/><circle class="cls-3" cx="81.47" cy="26.1" r="0.81"/><circle class="cls-3" cx="86.56" cy="26.01" r="0.81"/><circle class="cls-3" cx="83.92" cy="23.45" r="0.81"/><circle class="cls-3" cx="29.67" cy="42.95" r="0.86"/><rect class="cls-1" x="23.7" y="41.16" width="2.46" height="9.57" rx="0.58" ry="0.58"/><circle class="cls-4" cx="24.93" cy="38.06" r="6.64"/><circle class="cls-3" cx="22.32" cy="41.22" r="0.86"/><circle class="cls-3" cx="25.22" cy="42.56" r="0.86"/><circle class="cls-3" cx="27.94" cy="40.95" r="0.86"/><circle class="cls-3" cx="27.76" cy="36.3" r="0.86"/><circle class="cls-3" cx="24.93" cy="33.56" r="0.86"/><circle class="cls-3" cx="36.68" cy="42.68" r="0.86"/><circle class="cls-3" cx="46.33" cy="42.95" r="0.86"/><rect class="cls-1" x="40.37" y="41.16" width="2.46" height="9.57" rx="0.58" ry="0.58"/><circle class="cls-4" cx="41.6" cy="38.06" r="6.64"/><circle class="cls-3" cx="36.47" cy="38.91" r="0.86"/><circle class="cls-3" cx="38.99" cy="41.22" r="0.86"/><circle class="cls-3" cx="41.89" cy="42.56" r="0.86"/><circle class="cls-3" cx="44.61" cy="40.95" r="0.86"/><circle class="cls-3" cx="46.72" cy="38.57" r="0.86"/><circle class="cls-3" cx="41.6" cy="38.57" r="0.86"/><circle class="cls-3" cx="38.99" cy="36.4" r="0.86"/><circle class="cls-3" cx="41.6" cy="33.56" r="0.86"/><circle class="cls-3" cx="53.35" cy="42.68" r="0.86"/><circle class="cls-3" cx="63" cy="42.95" r="0.86"/><rect class="cls-1" x="57.04" y="41.16" width="2.46" height="9.57" rx="0.58" ry="0.58"/><circle class="cls-4" cx="58.26" cy="38.06" r="6.64"/><circle class="cls-3" cx="58.56" cy="42.56" r="0.86"/><circle class="cls-3" cx="61.27" cy="40.95" r="0.86"/><circle class="cls-3" cx="58.26" cy="33.56" r="0.86"/><circle class="cls-3" cx="70.01" cy="42.68" r="0.86"/><circle class="cls-3" cx="79.67" cy="42.95" r="0.86"/><rect class="cls-1" x="73.7" y="41.16" width="2.46" height="9.57" rx="0.58" ry="0.58"/><circle class="cls-4" cx="74.93" cy="38.06" r="6.64"/><circle class="cls-3" cx="69.8" cy="38.91" r="0.86"/><circle class="cls-3" cx="75.22" cy="42.56" r="0.86"/><circle class="cls-3" cx="77.94" cy="40.95" r="0.86"/><circle class="cls-3" cx="80.06" cy="38.57" r="0.86"/><circle class="cls-3" cx="77.76" cy="36.3" r="0.86"/><circle class="cls-3" cx="74.93" cy="33.56" r="0.86"/><circle class="cls-3" cx="7.21" cy="52.27" r="0.93"/><circle class="cls-3" cx="17.63" cy="52.57" r="0.93"/><rect class="cls-1" x="11.19" y="50.63" width="2.65" height="10.33" rx="0.58" ry="0.58"/><circle class="cls-4" cx="12.52" cy="47.29" r="7.17"/><circle class="cls-3" cx="6.98" cy="48.2" r="0.93"/><circle class="cls-3" cx="9.7" cy="50.7" r="0.93"/><circle class="cls-3" cx="12.83" cy="52.14" r="0.93"/><circle class="cls-3" cx="15.77" cy="50.41" r="0.93"/><circle class="cls-3" cx="18.05" cy="47.83" r="0.93"/><circle class="cls-3" cx="12.52" cy="47.83" r="0.93"/><circle class="cls-3" cx="15.57" cy="45.39" r="0.93"/><circle class="cls-3" cx="25.2" cy="52.27" r="0.93"/><circle class="cls-3" cx="35.63" cy="52.57" r="0.93"/><rect class="cls-1" x="29.19" y="50.63" width="2.65" height="10.33" rx="0.58" ry="0.58"/><circle class="cls-4" cx="30.51" cy="47.29" r="7.17"/><circle class="cls-3" cx="24.98" cy="48.2" r="0.93"/><circle class="cls-3" cx="30.83" cy="52.14" r="0.93"/><circle class="cls-3" cx="33.76" cy="50.41" r="0.93"/><circle class="cls-3" cx="30.51" cy="47.83" r="0.93"/><circle class="cls-3" cx="43.2" cy="52.27" r="0.93"/><circle class="cls-3" cx="53.62" cy="52.57" r="0.93"/><rect class="cls-1" x="47.18" y="50.63" width="2.65" height="10.33" rx="0.58" ry="0.58"/><circle class="cls-4" cx="48.51" cy="47.29" r="7.17"/><circle class="cls-3" cx="45.69" cy="50.7" r="0.93"/><circle class="cls-3" cx="51.76" cy="50.41" r="0.93"/><circle class="cls-3" cx="54.04" cy="47.83" r="0.93"/><circle class="cls-3" cx="45.69" cy="45.49" r="0.93"/><circle class="cls-3" cx="51.56" cy="45.39" r="0.93"/><circle class="cls-3" cx="48.51" cy="42.43" r="0.93"/><circle class="cls-3" cx="61.19" cy="52.27" r="0.93"/><circle class="cls-3" cx="71.62" cy="52.57" r="0.93"/><rect class="cls-1" x="65.18" y="50.63" width="2.65" height="10.33" rx="0.58" ry="0.58"/><circle class="cls-4" cx="66.5" cy="47.29" r="7.17"/><circle class="cls-3" cx="60.97" cy="48.2" r="0.93"/><circle class="cls-3" cx="63.69" cy="50.7" r="0.93"/><circle class="cls-3" cx="69.75" cy="50.41" r="0.93"/><circle class="cls-3" cx="72.04" cy="47.83" r="0.93"/><circle class="cls-3" cx="69.55" cy="45.39" r="0.93"/></svg>