<svg id="Layer_1" data-name="Layer 1" xmlns="http://www.w3.org/2000/svg" viewBox="0 0 100 100"><defs><style>.cls-1{fill:#b6a574;}.cls-2{fill:#847a55;}.cls-3{fill:#895e59;}.cls-4{fill:#c7552e;}.cls-5{fill:#f37d3b;}</style></defs><title>fireworks</title><path class="cls-1" d="M32.64,93a7.26,7.26,0,0,1-4.95-7,9,9,0,0,1,5.38-8.58c2.87-1.11,4.9-6.82,5.38-8.73l4.14,1c-.24,1-2.56,9.57-8,11.67A4.8,4.8,0,0,0,32,85.92,3,3,0,0,0,34.05,89Z"/><path class="cls-2" d="M42.26,70.88l-4.07-1.31c.17-.53.25-.87.26-.9l4.14,1.06S42.48,70.17,42.26,70.88Z"/><path class="cls-2" d="M28.91,90.13a7.41,7.41,0,0,1-1.11-2.95L32,86.52a3.33,3.33,0,0,0,.48,1.29ZM32.05,85l-4.21-.74a9.75,9.75,0,0,1,.92-2.76l3.81,1.94A5.41,5.41,0,0,0,32.05,85Zm1.44-2.82-3-3.09a7.76,7.76,0,0,1,2.54-1.63l.86,2,.74,2A3.68,3.68,0,0,0,33.49,82.13Zm3.78-2.44-2.9-3.14a8.1,8.1,0,0,0,1.19-1.39l3.5,2.47A13.18,13.18,0,0,1,37.27,79.69Zm3.11-4.27-3.79-2c.34-.65.63-1.29.88-1.89l4,1.61A23.28,23.28,0,0,1,40.38,75.42Z"/><path class="cls-2" d="M32.64,93a7.47,7.47,0,0,1-1.34-.61l2.13-3.71a3.55,3.55,0,0,0,.62.29Z"/><rect class="cls-3" x="18.51" y="43.46" width="5" height="56.33" rx="1.05" ry="1.05" transform="translate(56.8 6.13) rotate(45)"/><path class="cls-4" d="M87.83,39A13.83,13.83,0,1,0,68.27,19.4l-2,2L85.84,41Z"/><path class="cls-5" d="M66.27,21.39,36.38,51.28A13.84,13.84,0,0,0,56,70.85L85.84,41Z"/><path class="cls-5" d="M70.62,17.24a3.23,3.23,0,0,1,2-5.5l20.89-1.52A3.24,3.24,0,0,1,97,13.67L95.49,34.56a3.22,3.22,0,0,1-5.49,2Z"/><path class="cls-5" d="M93.79,13.44,92.28,34.33,72.9,15l20.89-1.52m4.56-4.56a6.4,6.4,0,0,0-5-1.87L72.43,8.53a6.44,6.44,0,0,0-4.09,11L87.72,38.89a6.45,6.45,0,0,0,11-4.09l1.51-20.9a6.4,6.4,0,0,0-1.87-5Z"/></svg>