<svg id="Layer_1" data-name="Layer 1" xmlns="http://www.w3.org/2000/svg" viewBox="0 0 100 100"><defs><style>.cls-1{fill:#3f3f40;}.cls-2{fill:#9dc7db;}.cls-3{fill:#6d4945;}.cls-4{fill:#885e59;}.cls-5{fill:#533632;}.cls-6{fill:#f27d3b;}.cls-7{fill:#9b8985;}.cls-8{fill:#6ab7d8;}.cls-9{fill:#eaf6fd;}</style></defs><title>earthquake</title><path class="cls-1" d="M68.74,31.66a2.1,2.1,0,0,0-.63-2.9l-3-1.9a2.1,2.1,0,0,0-2.9.62l-5.07,7.86,6.49,4.18Z"/><rect class="cls-2" x="62.52" y="28.46" width="1.37" height="1.37" rx="0.09" ry="0.09" transform="translate(25.88 -29.6) rotate(32.81)"/><rect class="cls-2" x="64.33" y="29.63" width="1.37" height="1.37" rx="0.09" ry="0.09" transform="translate(26.8 -30.39) rotate(32.81)"/><rect class="cls-2" x="66.15" y="30.8" width="1.37" height="1.37" rx="0.09" ry="0.09" transform="translate(27.73 -31.19) rotate(32.81)"/><rect class="cls-2" x="61.37" y="30.25" width="1.37" height="1.37" rx="0.09" ry="0.09" transform="translate(26.66 -28.69) rotate(32.81)"/><rect class="cls-2" x="63.18" y="31.42" width="1.37" height="1.37" rx="0.09" ry="0.09" transform="translate(27.59 -29.49) rotate(32.81)"/><rect class="cls-2" x="65" y="32.59" width="1.37" height="1.37" rx="0.09" ry="0.09" transform="matrix(0.84, 0.54, -0.54, 0.84, 28.51, -30.28)"/><rect class="cls-2" x="60.21" y="32.03" width="1.37" height="1.37" rx="0.09" ry="0.09" transform="translate(27.45 -27.78) rotate(32.81)"/><rect class="cls-2" x="62.03" y="33.2" width="1.37" height="1.37" rx="0.09" ry="0.09" transform="translate(28.37 -28.58) rotate(32.81)"/><rect class="cls-2" x="63.84" y="34.37" width="1.37" height="1.37" rx="0.09" ry="0.09" transform="translate(29.29 -29.37) rotate(32.81)"/><rect class="cls-2" x="59.06" y="33.82" width="1.37" height="1.37" rx="0.09" ry="0.09" transform="translate(28.23 -26.87) rotate(32.81)"/><rect class="cls-2" x="60.88" y="34.99" width="1.37" height="1.37" rx="0.09" ry="0.09" transform="translate(29.15 -27.67) rotate(32.81)"/><rect class="cls-2" x="62.69" y="36.16" width="1.37" height="1.37" rx="0.09" ry="0.09" transform="translate(30.08 -28.47) rotate(32.81)"/><path class="cls-1" d="M49.09,31.6a2.11,2.11,0,0,0-2.65-1.36l-3.33,1.07A2.11,2.11,0,0,0,41.75,34l2.86,8.89L52,40.5Z"/><rect class="cls-2" x="42.95" y="33.6" width="1.37" height="1.37" rx="0.09" ry="0.09" transform="translate(-8.39 14.99) rotate(-17.81)"/><rect class="cls-2" x="45" y="32.94" width="1.37" height="1.37" rx="0.09" ry="0.09" transform="translate(-8.09 15.59) rotate(-17.81)"/><rect class="cls-2" x="47.06" y="32.28" width="1.37" height="1.37" rx="0.09" ry="0.09" transform="matrix(0.95, -0.31, 0.31, 0.95, -7.79, 16.18)"/><rect class="cls-2" x="43.6" y="35.62" width="1.37" height="1.37" rx="0.09" ry="0.09" transform="translate(-8.98 15.28) rotate(-17.81)"/><rect class="cls-2" x="45.65" y="34.96" width="1.37" height="1.37" rx="0.09" ry="0.09" transform="translate(-8.68 15.88) rotate(-17.81)"/><rect class="cls-2" x="47.71" y="34.3" width="1.37" height="1.37" rx="0.09" ry="0.09" transform="translate(-8.38 16.48) rotate(-17.81)"/><rect class="cls-2" x="44.25" y="37.64" width="1.37" height="1.37" rx="0.09" ry="0.09" transform="matrix(0.95, -0.31, 0.31, 0.95, -9.57, 15.58)"/><rect class="cls-2" x="46.3" y="36.98" width="1.37" height="1.37" rx="0.09" ry="0.09" transform="translate(-9.27 16.18) rotate(-17.81)"/><rect class="cls-2" x="48.36" y="36.32" width="1.37" height="1.37" rx="0.09" ry="0.09" transform="translate(-8.97 16.77) rotate(-17.81)"/><rect class="cls-2" x="44.9" y="39.66" width="1.37" height="1.37" rx="0.09" ry="0.09" transform="translate(-10.16 15.88) rotate(-17.81)"/><rect class="cls-2" x="46.95" y="39" width="1.37" height="1.37" rx="0.09" ry="0.09" transform="translate(-9.86 16.47) rotate(-17.81)"/><rect class="cls-2" x="49.01" y="38.34" width="1.37" height="1.37" rx="0.09" ry="0.09" transform="translate(-9.56 17.07) rotate(-17.81)"/><rect class="cls-3" x="28.82" y="35.01" width="71.18" height="15.74" rx="3.95" ry="3.95"/><polyline class="cls-3" points="69.09 77.08 97.54 48.63 97.54 38.87 95.81 36.39 51.73 57.79"/><path class="cls-4" d="M32.67,35.93,3,65.57H68.14L97,36.7h-.07A7.79,7.79,0,0,0,92.13,35H36.69a7.77,7.77,0,0,0-3.61.92"/><path class="cls-3" d="M63.31,63.89H7.87a7.87,7.87,0,0,0,0,15.74H30.28L47.76,68.57V79.63H63.31a7.87,7.87,0,0,0,0-15.74Z"/><polygon class="cls-5" points="58.99 57.32 54.32 53.96 64.41 46.14 51.9 38.58 57.24 35.01 46.69 38.58 54.76 46.14 40.48 52.74 43.98 56.73 26.43 65.57 26.43 79.63 30.28 79.63 47.77 68.57 47.77 65.57 58.99 57.32"/><path class="cls-1" d="M38.71,24.39a5.13,5.13,0,0,0-6.09-3.9l-8.34,1.82a5.13,5.13,0,0,0-3.9,6.09l3.77,17.27H43.36Z"/><rect class="cls-2" x="23.2" y="27.96" width="3.34" height="3.34" rx="0.22" ry="0.22" transform="translate(-5.75 6) rotate(-12.33)"/><rect class="cls-2" x="28.34" y="26.84" width="3.34" height="3.34" rx="0.22" ry="0.22" transform="translate(-5.4 7.07) rotate(-12.33)"/><rect class="cls-2" x="33.47" y="25.71" width="3.34" height="3.34" rx="0.22" ry="0.22" transform="translate(-5.04 8.14) rotate(-12.33)"/><rect class="cls-2" x="24.31" y="33.01" width="3.34" height="3.34" rx="0.22" ry="0.22" transform="translate(-6.81 6.35) rotate(-12.33)"/><rect class="cls-2" x="29.44" y="31.89" width="3.34" height="3.34" rx="0.22" ry="0.22" transform="translate(-6.45 7.42) rotate(-12.33)"/><rect class="cls-2" x="34.57" y="30.76" width="3.34" height="3.34" rx="0.22" ry="0.22" transform="translate(-6.09 8.49) rotate(-12.33)"/><rect class="cls-2" x="25.41" y="38.06" width="3.34" height="3.34" rx="0.22" ry="0.22" transform="translate(-7.86 6.7) rotate(-12.33)"/><rect class="cls-2" x="30.54" y="36.93" width="3.34" height="3.34" rx="0.22" ry="0.22" transform="translate(-7.5 7.77) rotate(-12.33)"/><rect class="cls-2" x="35.68" y="35.81" width="3.34" height="3.34" rx="0.22" ry="0.22" transform="translate(-7.14 8.84) rotate(-12.33)"/><path class="cls-2" d="M30.08,45.62l-.53-2.41a.44.44,0,0,0-.52-.33l-2.41.53a.44.44,0,0,0-.33.52l.38,1.74h3.4S30.08,45.64,30.08,45.62Z"/><rect class="cls-2" x="31.65" y="41.98" width="3.34" height="3.34" rx="0.22" ry="0.22" transform="translate(-8.56 8.12) rotate(-12.33)"/><rect class="cls-2" x="36.78" y="40.86" width="3.34" height="3.34" rx="0.22" ry="0.22" transform="translate(-8.2 9.19) rotate(-12.33)"/><path class="cls-3" d="M29.65,46c0,.69-1.54,1.26-3.44,1.26s-3.44-.57-3.44-1.26a4,4,0,0,1,3.44-2.86A4,4,0,0,1,29.65,46Z"/><path class="cls-3" d="M32.76,46.4c0,.45-1,.81-2.19.81s-2.19-.36-2.19-.81a2.58,2.58,0,0,1,2.19-1.82A2.58,2.58,0,0,1,32.76,46.4Z"/><path class="cls-3" d="M40.2,46.4c0,.45-2,.81-4.42.81s-4.41-.36-4.41-.81,2-1.82,4.41-1.82S40.2,46,40.2,46.4Z"/><path class="cls-3" d="M47.08,46.4c0,.45-2,.81-4.41.81s-4.41-.36-4.41-.81,2-1.82,4.41-1.82S47.08,46,47.08,46.4Z"/><rect class="cls-6" x="70.25" y="31.29" width="9.84" height="13.14"/><path class="cls-1" d="M79.58,31.3V44.43a1.66,1.66,0,0,0,3.12.8l3.6-6.57a1.68,1.68,0,0,0,0-1.6L82.7,30.5A1.66,1.66,0,0,0,79.58,31.3Z"/><rect class="cls-2" x="73.5" y="39.5" width="3.34" height="3.34" rx="0.22" ry="0.22"/><path class="cls-4" d="M76.2,33.58h-6v3.33h6a.44.44,0,0,0,.44-.43V34A.44.44,0,0,0,76.2,33.58Z"/><rect class="cls-7" x="68.83" y="31.29" width="1.42" height="13.14"/><polyline class="cls-8" points="44.85 64.7 23.83 53.78 25.84 49.93 29.07 51.61 32.73 50.45 41.25 54.88 42.45 58.7 46.8 60.96"/><circle class="cls-1" cx="40.65" cy="62.44" r="1.82"/><circle class="cls-1" cx="27.97" cy="55.85" r="1.82"/><polygon class="cls-9" points="38.92 54.27 37.89 56.25 41.91 58.34 40.96 55.31 38.92 54.27"/><polygon class="cls-9" points="32.75 51.06 31.72 53.05 29.71 52 32.74 51.04 32.75 51.06"/><rect class="cls-9" x="33.31" y="52.52" width="4.02" height="2.25" transform="translate(28.72 -10.24) rotate(27.46)"/><path class="cls-3" d="M74.66,45.09c0,.45-2,.8-4.41.8s-4.42-.35-4.42-.8,2-1.82,4.42-1.82S74.66,44.65,74.66,45.09Z"/><path class="cls-3" d="M80.09,45.09c0,.45-2,.8-4.42.8s-4.41-.35-4.41-.8,2-1.82,4.41-1.82S80.09,44.65,80.09,45.09Z"/><path class="cls-3" d="M85.47,45.66c0,.44-2,.8-4.42.8s-4.41-.36-4.41-.8,2-1.82,4.41-1.82S85.47,45.22,85.47,45.66Z"/></svg>