<svg id="Layer_1" data-name="Layer 1" xmlns="http://www.w3.org/2000/svg" viewBox="0 0 100 100"><defs><style>.cls-1{fill:#3e3e3f;}.cls-2{fill:#9dc8dc;}.cls-3{fill:#5a9eba;}.cls-4{fill:#6ab8d9;}.cls-5{fill:#6d4945;}.cls-6{fill:#f37d3b;}.cls-7{fill:#895e59;}.cls-8{fill:#9c8a86;}.cls-9{fill:#09a582;}.cls-10{fill:#ebf7fd;}.cls-11{fill:#ffc640;}.cls-12{fill:#7d7d7d;}</style></defs><title>flood</title><path class="cls-1" d="M68.74,31.66a2.1,2.1,0,0,0-.63-2.9l-3-1.9a2.1,2.1,0,0,0-2.9.62l-5.07,7.86,6.49,4.18Z"/><rect class="cls-2" x="62.52" y="28.46" width="1.37" height="1.37" rx="0.09" ry="0.09" transform="translate(25.88 -29.6) rotate(32.81)"/><rect class="cls-2" x="64.33" y="29.63" width="1.37" height="1.37" rx="0.09" ry="0.09" transform="translate(26.8 -30.39) rotate(32.81)"/><rect class="cls-2" x="66.15" y="30.8" width="1.37" height="1.37" rx="0.09" ry="0.09" transform="translate(27.73 -31.19) rotate(32.81)"/><rect class="cls-2" x="61.37" y="30.25" width="1.37" height="1.37" rx="0.09" ry="0.09" transform="translate(26.66 -28.69) rotate(32.81)"/><rect class="cls-2" x="63.18" y="31.42" width="1.37" height="1.37" rx="0.09" ry="0.09" transform="translate(27.59 -29.49) rotate(32.81)"/><rect class="cls-2" x="65" y="32.59" width="1.37" height="1.37" rx="0.09" ry="0.09" transform="translate(28.51 -30.28) rotate(32.81)"/><rect class="cls-2" x="60.21" y="32.03" width="1.37" height="1.37" rx="0.09" ry="0.09" transform="translate(27.45 -27.78) rotate(32.81)"/><rect class="cls-2" x="62.03" y="33.2" width="1.37" height="1.37" rx="0.09" ry="0.09" transform="translate(28.37 -28.58) rotate(32.81)"/><rect class="cls-2" x="63.84" y="34.37" width="1.37" height="1.37" rx="0.09" ry="0.09" transform="matrix(0.84, 0.54, -0.54, 0.84, 29.29, -29.37)"/><rect class="cls-2" x="59.06" y="33.82" width="1.37" height="1.37" rx="0.09" ry="0.09" transform="translate(28.23 -26.87) rotate(32.81)"/><rect class="cls-2" x="60.88" y="34.99" width="1.37" height="1.37" rx="0.09" ry="0.09" transform="translate(29.15 -27.67) rotate(32.81)"/><rect class="cls-2" x="62.69" y="36.16" width="1.37" height="1.37" rx="0.09" ry="0.09" transform="translate(30.08 -28.47) rotate(32.81)"/><path class="cls-1" d="M49.09,31.6a2.11,2.11,0,0,0-2.65-1.36l-3.33,1.07A2.11,2.11,0,0,0,41.75,34l2.86,8.89L52,40.5Z"/><rect class="cls-2" x="42.95" y="33.6" width="1.37" height="1.37" rx="0.09" ry="0.09" transform="translate(-8.39 14.99) rotate(-17.81)"/><rect class="cls-2" x="45" y="32.94" width="1.37" height="1.37" rx="0.09" ry="0.09" transform="translate(-8.09 15.59) rotate(-17.81)"/><rect class="cls-2" x="47.06" y="32.28" width="1.37" height="1.37" rx="0.09" ry="0.09" transform="translate(-7.79 16.18) rotate(-17.81)"/><rect class="cls-2" x="43.6" y="35.62" width="1.37" height="1.37" rx="0.09" ry="0.09" transform="translate(-8.98 15.28) rotate(-17.81)"/><rect class="cls-2" x="45.65" y="34.96" width="1.37" height="1.37" rx="0.09" ry="0.09" transform="translate(-8.68 15.88) rotate(-17.81)"/><rect class="cls-2" x="47.71" y="34.3" width="1.37" height="1.37" rx="0.09" ry="0.09" transform="translate(-8.38 16.48) rotate(-17.81)"/><rect class="cls-2" x="44.25" y="37.64" width="1.37" height="1.37" rx="0.09" ry="0.09" transform="matrix(0.95, -0.31, 0.31, 0.95, -9.57, 15.58)"/><rect class="cls-2" x="46.3" y="36.98" width="1.37" height="1.37" rx="0.09" ry="0.09" transform="translate(-9.27 16.18) rotate(-17.81)"/><rect class="cls-2" x="48.36" y="36.32" width="1.37" height="1.37" rx="0.09" ry="0.09" transform="translate(-8.97 16.77) rotate(-17.81)"/><rect class="cls-2" x="44.9" y="39.66" width="1.37" height="1.37" rx="0.09" ry="0.09" transform="matrix(0.95, -0.31, 0.31, 0.95, -10.16, 15.88)"/><rect class="cls-2" x="46.95" y="39" width="1.37" height="1.37" rx="0.09" ry="0.09" transform="translate(-9.86 16.47) rotate(-17.81)"/><rect class="cls-2" x="49.01" y="38.34" width="1.37" height="1.37" rx="0.09" ry="0.09" transform="translate(-9.56 17.07) rotate(-17.81)"/><rect class="cls-3" x="28.82" y="35.01" width="71.18" height="15.74" rx="3.95" ry="3.95"/><polyline class="cls-3" points="69.09 77.08 97.54 48.63 97.54 38.87 95.81 36.39 51.73 57.79"/><path class="cls-4" d="M32.67,35.93,3,65.57H68.14L97,36.7h-.07A7.79,7.79,0,0,0,92.13,35H36.69a7.77,7.77,0,0,0-3.61.92"/><path class="cls-4" d="M63.31,63.89H7.87a7.87,7.87,0,0,0-6.58,3.58H69.88A7.86,7.86,0,0,0,63.31,63.89Z"/><path class="cls-5" d="M1.29,67.47A7.79,7.79,0,0,0,0,71.76a7.89,7.89,0,0,0,7.87,7.87H63.31a7.9,7.9,0,0,0,7.87-7.87,7.8,7.8,0,0,0-1.3-4.29Z"/><ellipse class="cls-3" cx="77.03" cy="41.17" rx="10.7" ry="1.67"/><ellipse class="cls-3" cx="63.13" cy="52.2" rx="3.13" ry="0.49"/><path class="cls-6" d="M76.16,33.58a.44.44,0,0,1,.44.43v2.47a.44.44,0,0,1-.44.43h-6v4.4h3.25V39.93a.43.43,0,0,1,.43-.43h2.47a.43.43,0,0,1,.43.43v1.38h2.74v-10H70.21v2.29Z"/><path class="cls-1" d="M86.26,37.06l-3.6-6.56a1.67,1.67,0,0,0-3.13.79H80v10H84.8l1.46-2.65A1.68,1.68,0,0,0,86.26,37.06Z"/><rect class="cls-1" x="79.53" y="31.29" width="0.51" height="10.02"/><path class="cls-2" d="M76.79,39.93a.43.43,0,0,0-.43-.43H73.89a.43.43,0,0,0-.43.43v1.38h3.33Z"/><path class="cls-7" d="M76.6,36.48V34a.44.44,0,0,0-.44-.43h-6v3.33h6A.44.44,0,0,0,76.6,36.48Z"/><polygon class="cls-8" points="70.2 36.91 70.2 33.58 70.2 31.29 68.78 31.29 68.78 41.31 70.2 41.31 70.2 36.91"/><ellipse class="cls-3" cx="34.05" cy="45.67" rx="10.55" ry="1.11"/><ellipse class="cls-3" cx="37.15" cy="56.84" rx="7.45" ry="0.93"/><path class="cls-1" d="M38.71,24.39a5.13,5.13,0,0,0-6.09-3.9l-8.34,1.82a5.13,5.13,0,0,0-3.9,6.09l3.77,17.27H43.36Z"/><rect class="cls-2" x="23.2" y="27.96" width="3.34" height="3.34" rx="0.22" ry="0.22" transform="translate(-5.75 6) rotate(-12.33)"/><rect class="cls-2" x="28.34" y="26.84" width="3.34" height="3.34" rx="0.22" ry="0.22" transform="translate(-5.4 7.07) rotate(-12.33)"/><rect class="cls-2" x="33.47" y="25.71" width="3.34" height="3.34" rx="0.22" ry="0.22" transform="translate(-5.04 8.14) rotate(-12.33)"/><rect class="cls-2" x="24.31" y="33.01" width="3.34" height="3.34" rx="0.22" ry="0.22" transform="translate(-6.81 6.35) rotate(-12.33)"/><rect class="cls-2" x="29.44" y="31.89" width="3.34" height="3.34" rx="0.22" ry="0.22" transform="translate(-6.45 7.42) rotate(-12.33)"/><rect class="cls-2" x="34.57" y="30.76" width="3.34" height="3.34" rx="0.22" ry="0.22" transform="translate(-6.09 8.49) rotate(-12.33)"/><rect class="cls-2" x="25.41" y="38.06" width="3.34" height="3.34" rx="0.22" ry="0.22" transform="translate(-7.86 6.7) rotate(-12.33)"/><rect class="cls-2" x="30.54" y="36.93" width="3.34" height="3.34" rx="0.22" ry="0.22" transform="translate(-7.5 7.77) rotate(-12.33)"/><rect class="cls-2" x="35.68" y="35.81" width="3.34" height="3.34" rx="0.22" ry="0.22" transform="translate(-7.14 8.84) rotate(-12.33)"/><path class="cls-2" d="M30.08,45.62l-.53-2.41a.44.44,0,0,0-.52-.33l-2.41.53a.44.44,0,0,0-.33.52l.38,1.74h3.4S30.08,45.64,30.08,45.62Z"/><rect class="cls-2" x="31.65" y="41.98" width="3.34" height="3.34" rx="0.22" ry="0.22" transform="translate(-8.56 8.12) rotate(-12.33)"/><rect class="cls-2" x="36.78" y="40.86" width="3.34" height="3.34" rx="0.22" ry="0.22" transform="translate(-8.2 9.19) rotate(-12.33)"/><polygon class="cls-9" points="40.78 56.16 39.58 52.34 31.06 47.91 27.4 49.07 24.16 47.39 22.16 51.24 33.28 57.02 42.43 57.02 40.78 56.16"/><circle class="cls-1" cx="26.3" cy="53.31" r="1.82"/><polygon class="cls-10" points="37.25 51.73 36.22 53.71 40.25 55.8 39.29 52.77 37.25 51.73"/><polygon class="cls-10" points="31.08 48.52 30.05 50.51 28.04 49.46 31.07 48.5 31.08 48.52"/><rect class="cls-10" x="31.64" y="49.98" width="4.02" height="2.25" transform="translate(27.36 -9.76) rotate(27.46)"/><polygon class="cls-3" points="36.24 49.32 52.83 49.32 44.54 47.25 36.24 49.32"/><polygon class="cls-3" points="56.72 57.41 65.68 57.41 61.2 56.26 56.72 57.41"/><polygon class="cls-3" points="54.17 39.76 58.24 39.76 56.2 39.23 54.17 39.76"/><polygon class="cls-3" points="72.14 49.48 78.54 49.48 75.34 47.99 72.14 49.48"/><ellipse class="cls-4" cx="9.51" cy="67.28" rx="5.64" ry="1.39"/><ellipse class="cls-4" cx="31.81" cy="67.28" rx="5.64" ry="1.39"/><ellipse class="cls-4" cx="19.38" cy="67.47" rx="4.48" ry="2.97"/><path class="cls-4" d="M70.16,67.47c0,1.64-2,3-4.48,3s-4.48-1.32-4.48-3,7.5-15.27,10-15.27S70.16,65.83,70.16,67.47Z"/><ellipse class="cls-4" cx="35.3" cy="66.08" rx="4.48" ry="2.97"/><path class="cls-4" d="M21.06,76.18a1.68,1.68,0,1,1-3.35,0c0-.93,1.67-3.8,1.67-3.8S21.06,75.25,21.06,76.18Z"/><rect class="cls-11" x="69.73" y="46.51" width="2.84" height="1.33" rx="0.33" ry="0.33" transform="translate(54.2 -36.49) rotate(45)"/><path class="cls-12" d="M70.84,44.23a.62.62,0,0,0-.87,0L62,52.17h1.73l7.07-7.07A.62.62,0,0,0,70.84,44.23Z"/><rect class="cls-12" x="69.1" y="44.84" width="5.13" height="2.66" rx="0.67" ry="0.67" transform="translate(53.63 -37.15) rotate(45)"/></svg>