<svg id="Layer_1" data-name="Layer 1" xmlns="http://www.w3.org/2000/svg" viewBox="0 0 100 100"><defs><style>.cls-1{fill:#ebf7fd;}.cls-2{fill:#fff;}</style></defs><title>fog</title><path class="cls-1" d="M.87,65.93a154.93,154.93,0,0,1,25-4.9,183.17,183.17,0,0,1,25.46-1.28,128.27,128.27,0,0,1,12.81.92c2.13.29,4.25.57,6.37,1l3.18.6,3,.69c4.06.89,8.13,1.77,12.22,2.31a38.32,38.32,0,0,0,6.12.47,9.36,9.36,0,0,0,1.51-.09A6.4,6.4,0,0,0,98,65.38c.9-.25,1.94-.8,1.89-1.93a1.7,1.7,0,0,1-.24,1.6,4,4,0,0,1-1.27,1.15,7,7,0,0,1-1.53.7,13.22,13.22,0,0,1-1.59.49,34.91,34.91,0,0,1-6.48.81,84.53,84.53,0,0,1-12.85-.64l-6.24-.72c-2-.29-4.09-.42-6.15-.56-4.11-.31-8.25-.48-12.4-.58s-8.31-.15-12.47-.14-8.35.1-12.53.09C17.76,65.8,9.37,66,.87,65.93Z"/><path class="cls-2" d="M0,56.85V76.54a4.32,4.32,0,0,0,4.32,4.32H95.57a4.33,4.33,0,0,0,4.32-4.32V56.85ZM34.52,73.6A2,2,0,0,0,33.46,72a3.36,3.36,0,0,0-1.9-.13,18.42,18.42,0,0,0-4,1.26c-.67.32-1.27.61-2,.9a21,21,0,0,1-2.26.81,24.83,24.83,0,0,1-4.66.8,33.34,33.34,0,0,1-9.21-.74A31.73,31.73,0,0,1,.87,71.74c3,.29,6,.6,8.9.81a61,61,0,0,0,8.65,0A25,25,0,0,0,22.6,72a11.93,11.93,0,0,0,1.69-.42l.33-.1,2.2-.65a14.37,14.37,0,0,1,4.75-.51,4.12,4.12,0,0,1,2.38.93,2.6,2.6,0,0,1,.25.33A2.21,2.21,0,0,1,34.52,73.6Z"/><path class="cls-1" d="M50.1,40.77A96.81,96.81,0,0,1,63,41.71c4.16.62,8.26,1.24,12.27,1.56,1,0,2,.11,2.93.07A20.59,20.59,0,0,0,81.1,43a10.44,10.44,0,0,1,3.74,0,25.27,25.27,0,0,1,3.25.84,102.41,102.41,0,0,1,11.8,4.83V39.8a4.33,4.33,0,0,0-6.68-3.63l0-.22H6.55l0,.16A4.33,4.33,0,0,0,0,39.8V49.88a128.26,128.26,0,0,1,24.57-6.81A137.68,137.68,0,0,1,50.1,40.77Z"/><path class="cls-1" d="M87.45,46.72a26.48,26.48,0,0,0-3-.29,6.85,6.85,0,0,0-2.53.41,17.56,17.56,0,0,1-3.34.78,33.24,33.24,0,0,1-3.39.29,103.19,103.19,0,0,1-12.9-.6c-4.08-.34-8.17-.6-12.3-.59s-8.26.05-12.41.21c-2.08,0-4.15.21-6.23.3l-6.24.44C16.82,48.31,8.47,49.11,0,49.88v8H99.89V48.71C95.69,48.14,91.54,47.26,87.45,46.72Z"/><path d="M99.94,48.72l0,0h0Z"/><path class="cls-1" d="M3,27a12.31,12.31,0,0,1,4.61-4.21,27.56,27.56,0,0,1,5.91-2.37A43.72,43.72,0,0,1,26.1,19.17a59.65,59.65,0,0,1,6.28.42l6.15.92c4,.71,7.93,1.46,11.89,2.06A103,103,0,0,0,62.07,24a19.9,19.9,0,0,0,5.35-.32,43.15,43.15,0,0,0,5.44-1.84c4.53-1.52,8.92-1.17,13.08-.32S94.11,24.13,97.09,27a28.74,28.74,0,0,0-11.54-2.65,24.55,24.55,0,0,0-10.93,1.73,31.7,31.7,0,0,1-5.89,2.6,25.59,25.59,0,0,1-6.72.9,76.42,76.42,0,0,1-12.55-1.17c-4.06-.74-8.07-1.52-12.05-2.43l-5.83-1.29c-1.94-.27-3.87-.74-5.82-.94a53.46,53.46,0,0,0-11.71-.47C10.21,23.69,6.17,24.4,3,27Z"/></svg>