<svg id="Layer_1" data-name="Layer 1" xmlns="http://www.w3.org/2000/svg" viewBox="0 0 100 100"><defs><style>.cls-1{fill:#bcd2de;}.cls-2{fill:#aecddd;}.cls-3{fill:#b0cedd;}.cls-4{fill:#a9ccdd;}.cls-5{fill:#c7d6de;}.cls-6{fill:#c2d4de;}.cls-7{fill:#96c5dc;}.cls-8{fill:#81bfda;}.cls-9{fill:#7dbdda;}.cls-10{opacity:0.32;}.cls-11{fill:#09a582;}.cls-12{fill:#079374;}.cls-13{fill:#ffc63f;}.cls-14{fill:#f37d3b;}.cls-15{fill:#00a69c;}.cls-16{fill:#f89c3e;}.cls-17{fill:#ffc640;}.cls-18{fill:#5c3d39;}.cls-19{fill:#492e2a;}</style></defs><title>garden</title><polygon class="cls-1" points="83.09 44.2 46.2 44.2 46.2 80.28 70.83 80.28 70.83 52.22 83.09 44.2"/><polygon class="cls-2" points="83.49 44.2 83.49 80.28 96.54 80.28 96.54 52.22 83.49 44.2"/><polygon class="cls-2" points="70.44 52.22 70.44 80.28 83.49 80.28 83.49 44.2 70.44 52.22"/><rect class="cls-3" x="57.42" y="52.22" width="13.02" height="28.06"/><path class="cls-4" d="M70.44,80.61h-13a.33.33,0,0,1-.33-.33V52.22a.34.34,0,0,1,.33-.34h13a.34.34,0,0,1,.34.34V80.28A.34.34,0,0,1,70.44,80.61Zm-12.68-.67H70.11V52.56H57.76Z"/><rect class="cls-5" x="70.46" y="52.22" width="13.02" height="28.06"/><path class="cls-4" d="M83.48,80.61h-13a.34.34,0,0,1-.34-.33V52.22a.34.34,0,0,1,.34-.34h13a.34.34,0,0,1,.34.34V80.28A.34.34,0,0,1,83.48,80.61ZM70.8,79.94H83.14V52.56H70.8Z"/><rect class="cls-3" x="83.55" y="52.22" width="13.02" height="28.06"/><path class="cls-4" d="M96.57,80.61h-13a.34.34,0,0,1-.34-.33V52.22a.34.34,0,0,1,.34-.34h13a.34.34,0,0,1,.34.34V80.28A.34.34,0,0,1,96.57,80.61Zm-12.68-.67H96.23V52.56H83.89Z"/><polygon class="cls-3" points="57.42 44.2 44.38 44.2 57.42 52.22 70.47 52.22 70.47 52.22 57.42 44.2"/><path class="cls-4" d="M70.47,52.56h-13a.34.34,0,0,1-.17-.05l-13-8a.33.33,0,0,1,.18-.62h13a.27.27,0,0,1,.18,0l13.05,8a.34.34,0,0,1-.18.63Zm-12.95-.68H69.28l-12-7.35H45.57Z"/><polygon class="cls-5" points="70.47 44.2 57.42 44.2 70.47 52.22 83.52 52.22 83.52 52.22 70.47 44.2"/><path class="cls-4" d="M83.52,52.56h-13a.34.34,0,0,1-.17-.05l-13-8a.34.34,0,0,1-.15-.38.33.33,0,0,1,.32-.24h13a.29.29,0,0,1,.18,0l13,8a.34.34,0,0,1,.15.38A.35.35,0,0,1,83.52,52.56Zm-13-.68H82.32L70.38,44.53H58.62Z"/><polygon class="cls-6" points="83.52 44.2 70.47 44.2 83.52 52.22 96.57 52.22 96.57 52.22 83.52 44.2"/><path class="cls-4" d="M96.57,52.56h-13a.41.41,0,0,1-.18-.05l-13-8a.34.34,0,0,1-.15-.38.33.33,0,0,1,.32-.24h13a.31.31,0,0,1,.18,0l13,8a.34.34,0,0,1,.15.38A.33.33,0,0,1,96.57,52.56Zm-12.95-.68H95.37l-12-7.35H71.67Z"/><polygon class="cls-7" points="44.38 44.2 31.33 52.22 31.33 80.28 57.42 80.28 57.42 52.22 44.38 44.2"/><path class="cls-8" d="M57.42,80.61H31.33a.34.34,0,0,1-.34-.33V52.22a.34.34,0,0,1,.16-.29l13.05-8a.32.32,0,0,1,.35,0l13.05,8a.34.34,0,0,1,.16.29V80.28A.34.34,0,0,1,57.42,80.61Zm-25.75-.67H57.09V52.41L44.38,44.59,31.67,52.41Z"/><polygon class="cls-7" points="44.38 44.2 31.33 52.22 31.33 52.22 57.42 52.22 57.42 52.22 44.38 44.2"/><path class="cls-8" d="M57.42,52.56H31.33a.34.34,0,0,1-.18-.63l13.05-8a.32.32,0,0,1,.35,0l13.05,8a.34.34,0,0,1,.15.38A.33.33,0,0,1,57.42,52.56Zm-24.9-.68H56.23L44.38,44.59Z"/><rect class="cls-9" x="37.95" y="53.5" width="12.85" height="26.78"/><path class="cls-8" d="M50.8,80.61H38a.33.33,0,0,1-.33-.33V53.5a.34.34,0,0,1,.33-.34H50.8a.34.34,0,0,1,.34.34V80.28A.34.34,0,0,1,50.8,80.61Zm-12.51-.67H50.46V53.84H38.29Z"/><g class="cls-10"><polygon class="cls-3" points="83.55 44.2 70.5 52.22 70.5 80.28 96.6 80.28 96.6 52.22 83.55 44.2"/><path class="cls-4" d="M96.6,80.61H70.5a.34.34,0,0,1-.34-.33V52.22a.34.34,0,0,1,.16-.29l13.05-8a.33.33,0,0,1,.36,0l13,8a.34.34,0,0,1,.16.29V80.28A.33.33,0,0,1,96.6,80.61Zm-25.76-.67H96.26V52.41L83.55,44.59,70.84,52.41Z"/></g><path class="cls-11" d="M69.74,75.64a3.35,3.35,0,0,1-5.42,3.93c-1.09-1.5-3.43-10.43-3.43-10.43S68.65,74.14,69.74,75.64Z"/><path class="cls-11" d="M69.33,74a5.42,5.42,0,1,0,8.77,6.36c1.76-2.42,5.55-16.88,5.55-16.88S71.08,71.54,69.33,74Z"/><path class="cls-11" d="M72.2,82.24l-4-1.16c2.71-9.24-3.15-42.37-5.64-54.35l4.06-.85C67,27.68,75.76,70.13,72.2,82.24Z"/><path class="cls-11" d="M28.07,81.43,26,81.2c1.32-11.86-2.51-29.11-2.55-29.29l2-.45C25.64,52.18,29.43,69.22,28.07,81.43Z"/><path class="cls-11" d="M29.88,88.86c-1.36-12.21,2.43-29.25,2.59-30l2,.45c0,.18-3.87,17.43-2.55,29.29Z"/><polygon class="cls-12" points="6.25 88.59 18.75 88.59 12.5 70.99 6.25 88.59"/><polygon class="cls-12" points="18.75 88.59 31.25 88.59 25 70.99 18.75 88.59"/><polygon class="cls-12" points="31.25 88.59 43.75 88.59 37.5 70.99 31.25 88.59"/><polygon class="cls-12" points="43.75 88.59 56.25 88.59 50 70.99 43.75 88.59"/><polygon class="cls-12" points="56.25 88.59 68.75 88.59 62.5 70.99 56.25 88.59"/><polygon class="cls-12" points="68.75 88.59 81.25 88.59 75 70.99 68.75 88.59"/><polygon class="cls-12" points="81.25 88.59 93.75 88.59 87.5 70.99 81.25 88.59"/><rect class="cls-12" x="3.86" y="86.63" width="93.19" height="5.63"/><polygon class="cls-11" points="0 92.27 12.5 92.27 6.25 66.2 0 92.27"/><polygon class="cls-11" points="12.5 92.27 25 92.27 18.75 66.2 12.5 92.27"/><polygon class="cls-11" points="25 92.27 37.5 92.27 31.25 66.2 25 92.27"/><polygon class="cls-11" points="37.5 92.27 50 92.27 43.75 66.2 37.5 92.27"/><polygon class="cls-11" points="50 92.27 62.5 92.27 56.25 66.2 50 92.27"/><polygon class="cls-11" points="62.5 92.27 75 92.27 68.75 66.2 62.5 92.27"/><polygon class="cls-11" points="75 92.27 87.5 92.27 81.25 66.2 75 92.27"/><polygon class="cls-11" points="87.5 92.27 100 92.27 93.75 66.2 87.5 92.27"/><path class="cls-11" d="M14.26,50c0,.84-.68,3.6-1.52,3.6s-1.51-2.76-1.51-3.6a1.52,1.52,0,0,1,3,0Z"/><path class="cls-11" d="M11.23,57.81c0-.83.68-3.59,1.51-3.59s1.52,2.76,1.52,3.59a1.52,1.52,0,0,1-3,0Z"/><path class="cls-11" d="M16.67,55.39c-.83,0-3.59-.67-3.59-1.51s2.76-1.51,3.59-1.51a1.51,1.51,0,0,1,0,3Z"/><path class="cls-11" d="M8.82,52.37c.83,0,3.59.68,3.59,1.51s-2.76,1.51-3.59,1.51a1.51,1.51,0,1,1,0-3Z"/><path class="cls-11" d="M16.59,52.17c-.59.59-3,2.06-3.61,1.47s.89-3,1.47-3.61a1.53,1.53,0,0,1,2.14,0A1.51,1.51,0,0,1,16.59,52.17Z"/><path class="cls-11" d="M8.9,55.59c.59-.59,3-2.06,3.61-1.47s-.89,3-1.48,3.61A1.51,1.51,0,0,1,8.9,55.59Z"/><path class="cls-11" d="M14.45,57.73c-.58-.59-2.06-3-1.47-3.61s3,.88,3.61,1.47a1.51,1.51,0,0,1-2.14,2.14Z"/><path class="cls-11" d="M11,50c.59.59,2.07,3,1.48,3.61s-3-.88-3.61-1.47A1.51,1.51,0,1,1,11,50Z"/><circle class="cls-13" cx="12.74" cy="54.09" r="1.64"/><path class="cls-14" d="M27.4,41.24C27.4,42.56,26.33,47,25,47s-2.4-4.39-2.4-5.71a2.4,2.4,0,0,1,4.8,0Z"/><path class="cls-14" d="M22.6,53.73C22.6,52.4,23.67,48,25,48s2.4,4.39,2.4,5.72a2.4,2.4,0,0,1-4.8,0Z"/><path class="cls-14" d="M31.24,49.88c-1.32,0-5.71-1.07-5.71-2.4s4.39-2.4,5.71-2.4a2.4,2.4,0,1,1,0,4.8Z"/><path class="cls-14" d="M18.76,45.08c1.32,0,5.71,1.08,5.71,2.4s-4.39,2.4-5.71,2.4a2.4,2.4,0,0,1,0-4.8Z"/><path class="cls-14" d="M31.11,44.77c-.93.93-4.8,3.27-5.73,2.34s1.4-4.8,2.34-5.74a2.4,2.4,0,0,1,3.39,3.4Z"/><path class="cls-14" d="M18.89,50.2c.93-.94,4.8-3.28,5.73-2.34s-1.4,4.8-2.34,5.74a2.4,2.4,0,1,1-3.39-3.4Z"/><path class="cls-14" d="M27.72,53.6c-.94-.94-3.28-4.8-2.34-5.74s4.8,1.4,5.73,2.34a2.4,2.4,0,1,1-3.39,3.4Z"/><path class="cls-14" d="M22.28,41.37c.94.94,3.28,4.8,2.34,5.74s-4.8-1.41-5.73-2.34a2.4,2.4,0,0,1,3.39-3.4Z"/><circle class="cls-13" cx="25" cy="47.81" r="2.6"/><path class="cls-15" d="M35,50.41c0,1.33-1.08,5.72-2.41,5.72s-2.4-4.39-2.4-5.72a2.41,2.41,0,0,1,4.81,0Z"/><path class="cls-15" d="M30.18,62.9c0-1.32,1.08-5.71,2.4-5.71S35,61.58,35,62.9a2.41,2.41,0,0,1-4.81,0Z"/><path class="cls-15" d="M38.83,59.06c-1.33,0-5.71-1.08-5.71-2.4s4.38-2.4,5.71-2.4a2.4,2.4,0,1,1,0,4.8Z"/><path class="cls-15" d="M26.34,54.26c1.33,0,5.71,1.07,5.71,2.4s-4.38,2.4-5.71,2.4a2.4,2.4,0,1,1,0-4.8Z"/><path class="cls-15" d="M38.7,53.94c-.94.94-4.8,3.28-5.74,2.34s1.4-4.8,2.34-5.73a2.4,2.4,0,0,1,3.4,3.39Z"/><path class="cls-15" d="M26.47,59.38c.94-.94,4.8-3.28,5.74-2.35s-1.41,4.8-2.34,5.74a2.4,2.4,0,0,1-3.4-3.39Z"/><path class="cls-15" d="M35.3,62.77C34.36,61.83,32,58,33,57s4.8,1.41,5.74,2.35a2.4,2.4,0,0,1-3.4,3.39Z"/><path class="cls-15" d="M29.87,50.55c.93.93,3.28,4.8,2.34,5.73s-4.8-1.4-5.74-2.34a2.4,2.4,0,0,1,3.4-3.39Z"/><circle class="cls-13" cx="32.58" cy="56.99" r="2.6"/><path class="cls-11" d="M19.22,84.9l-2.07-.19c1.21-13-4.48-27-4.54-27.12l1.92-.79C14.77,57.39,20.47,71.4,19.22,84.9Z"/><path class="cls-16" d="M69.7,11.83c-.35,1.95-1.48,3.37-2.53,3.18s-1.62-1.92-1.27-3.86S68.43,8,68.43,8,70.05,9.89,69.7,11.83Z"/><path class="cls-16" d="M61.71,34.46c.35-1.94,1.48-3.36,2.53-3.17s1.62,1.91,1.27,3.86S63,38.32,63,38.32,61.36,36.4,61.71,34.46Z"/><path class="cls-16" d="M54.39,19.16c1.94.34,3.36,1.48,3.17,2.53S55.65,23.3,53.71,23s-3.18-2.53-3.18-2.53S52.45,18.81,54.39,19.16Z"/><path class="cls-16" d="M76.53,18c-1.62,1.13-3.43,1.33-4,.46s.22-2.5,1.84-3.63,4-.45,4-.45A5.47,5.47,0,0,1,76.53,18Z"/><path class="cls-16" d="M54.88,28.33c1.62-1.13,3.43-1.33,4-.46s-.21,2.5-1.83,3.62-4,.46-4,.46S53.26,29.45,54.88,28.33Z"/><path class="cls-16" d="M70.88,34c-1.12-1.62-1.33-3.42-.45-4s2.49.21,3.62,1.83.45,4,.45,4A5.47,5.47,0,0,1,70.88,34Z"/><path class="cls-16" d="M61.47,13.14c1.13,1.62,1.34,3.42.46,4s-2.49-.21-3.62-1.83-.46-4-.46-4S60.35,11.52,61.47,13.14Z"/><path class="cls-16" d="M73.69,14.2c-1.06,1.66-2.64,2.55-3.54,2s-.77-2.38.29-4.05,3.55-2,3.55-2A5.49,5.49,0,0,1,73.69,14.2Z"/><path class="cls-16" d="M74.66,31.14c-1.67-1.06-2.55-2.65-2-3.55s2.38-.76,4,.3a5.5,5.5,0,0,1,2,3.54S76.32,32.2,74.66,31.14Z"/><path class="cls-16" d="M76.14,23c-1.92.42-3.67-.07-3.9-1.11s1.14-2.23,3.07-2.66,3.9,1.11,3.9,1.11S78.07,22.57,76.14,23Z"/><path class="cls-16" d="M53.73,23.83c1.92-.43,3.67.07,3.9,1.11s-1.14,2.23-3.07,2.65-3.9-1.11-3.9-1.11A5.47,5.47,0,0,1,53.73,23.83Z"/><path class="cls-16" d="M66.25,34.5c-.43-1.92.07-3.67,1.11-3.9s2.22,1.14,2.65,3.07-1.11,3.9-1.11,3.9S66.67,36.43,66.25,34.5Z"/><path class="cls-16" d="M65.26,12.4c.43,1.93-.07,3.68-1.11,3.91s-2.23-1.15-2.65-3.07,1.11-3.91,1.11-3.91A5.51,5.51,0,0,1,65.26,12.4Z"/><path class="cls-17" d="M67.63,11.31c0,2-.86,3.57-1.93,3.57s-1.92-1.6-1.92-3.57A5.48,5.48,0,0,1,65.7,7.73S67.63,9.33,67.63,11.31Z"/><path class="cls-17" d="M63.78,35c0-2,.86-3.57,1.92-3.57S67.63,33,67.63,35s-1.93,3.57-1.93,3.57A5.48,5.48,0,0,1,63.78,35Z"/><path class="cls-17" d="M77.55,25.08c-2,0-3.58-.87-3.58-1.93s1.6-1.93,3.58-1.93,3.57,1.93,3.57,1.93S79.52,25.08,77.55,25.08Z"/><path class="cls-17" d="M53.86,21.22c2,0,3.57.86,3.57,1.93s-1.6,1.93-3.57,1.93-3.57-1.93-3.57-1.93S51.89,21.22,53.86,21.22Z"/><path class="cls-17" d="M75.44,16.14c-1.39,1.39-3.13,1.91-3.89,1.16s-.23-2.49,1.17-3.89,3.88-1.16,3.88-1.16A5.45,5.45,0,0,1,75.44,16.14Z"/><path class="cls-17" d="M56,30.16c1.39-1.4,3.13-1.92,3.89-1.16s.23,2.49-1.17,3.89-3.89,1.16-3.89,1.16S54.57,31.55,56,30.16Z"/><path class="cls-17" d="M72.72,32.89c-1.4-1.4-1.92-3.14-1.17-3.89s2.5-.24,3.89,1.16,1.16,3.89,1.16,3.89S74.11,34.28,72.72,32.89Z"/><path class="cls-17" d="M58.69,13.41c1.4,1.4,1.92,3.14,1.17,3.89s-2.5.23-3.89-1.16a5.47,5.47,0,0,1-1.17-3.89S57.3,12,58.69,13.41Z"/><path class="cls-17" d="M72,12.92c-.74,1.83-2.15,3-3.14,2.58s-1.17-2.21-.42-4,3.14-2.57,3.14-2.57S72.73,11.1,72,12.92Z"/><path class="cls-17" d="M59.42,33.37c.75-1.82,2.16-3,3.14-2.57s1.18,2.21.43,4-3.14,2.57-3.14,2.57A5.52,5.52,0,0,1,59.42,33.37Z"/><path class="cls-17" d="M75.93,29.43c-1.83-.75-3-2.16-2.57-3.14s2.21-1.18,4-.43S80,29,80,29,77.75,30.18,75.93,29.43Z"/><path class="cls-17" d="M55.48,16.87c1.83.75,3,2.15,2.57,3.14s-2.21,1.17-4,.43-2.58-3.14-2.58-3.14S53.66,16.12,55.48,16.87Z"/><path class="cls-17" d="M77.37,20.36c-1.82.76-3.62.58-4-.4s.74-2.4,2.56-3.16,4,.4,4,.4S79.19,19.6,77.37,20.36Z"/><path class="cls-17" d="M54,25.94c1.83-.76,3.63-.58,4,.4s-.73,2.39-2.55,3.15-4-.4-4-.4A5.46,5.46,0,0,1,54,25.94Z"/><path class="cls-17" d="M68.49,34.82c-.76-1.82-.58-3.63.4-4s2.4.73,3.16,2.55-.4,4-.4,4S69.25,36.64,68.49,34.82Z"/><path class="cls-17" d="M62.92,11.48c.76,1.82.58,3.63-.41,4s-2.39-.73-3.15-2.55.4-4,.4-4A5.5,5.5,0,0,1,62.92,11.48Z"/><circle class="cls-18" cx="65.71" cy="23.41" r="9.29"/><circle class="cls-19" cx="58.81" cy="26.23" r="0.35"/><circle class="cls-19" cx="60.06" cy="28.3" r="0.35"/><circle class="cls-19" cx="65.7" cy="28.3" r="0.35"/><circle class="cls-19" cx="71.35" cy="28.3" r="0.35"/><circle class="cls-19" cx="61.56" cy="26.23" r="0.35"/><circle class="cls-19" cx="64.31" cy="26.23" r="0.35"/><circle class="cls-19" cx="67.06" cy="26.23" r="0.35"/><circle class="cls-19" cx="69.81" cy="26.23" r="0.35"/><circle class="cls-19" cx="72.56" cy="26.23" r="0.35"/><circle class="cls-19" cx="58.81" cy="22.38" r="0.35"/><circle class="cls-19" cx="60.06" cy="24.45" r="0.35"/><circle class="cls-19" cx="65.7" cy="24.45" r="0.35"/><circle class="cls-19" cx="71.35" cy="24.45" r="0.35"/><circle class="cls-19" cx="61.56" cy="22.38" r="0.35"/><circle class="cls-19" cx="64.31" cy="22.38" r="0.35"/><circle class="cls-19" cx="67.06" cy="22.38" r="0.35"/><circle class="cls-19" cx="69.81" cy="22.38" r="0.35"/><circle class="cls-19" cx="72.56" cy="22.38" r="0.35"/><circle class="cls-19" cx="58.81" cy="18.53" r="0.35"/><circle class="cls-19" cx="60.06" cy="20.6" r="0.35"/><circle class="cls-19" cx="65.7" cy="20.6" r="0.35"/><circle class="cls-19" cx="71.35" cy="20.6" r="0.35"/><circle class="cls-19" cx="61.56" cy="18.53" r="0.35"/><circle class="cls-19" cx="64.31" cy="18.53" r="0.35"/><circle class="cls-19" cx="67.06" cy="18.53" r="0.35"/><circle class="cls-19" cx="69.81" cy="18.53" r="0.35"/><circle class="cls-19" cx="72.56" cy="18.53" r="0.35"/></svg>