<svg id="Layer_1" data-name="Layer 1" xmlns="http://www.w3.org/2000/svg" viewBox="0 0 100 100"><defs><style>.cls-1{fill:#58595b;}.cls-2{fill:#09a582;}</style></defs><title>grenade</title><rect class="cls-1" x="53.57" y="13.04" width="32.6" height="44.18" rx="4.82" ry="4.82" transform="translate(45.31 -39.12) rotate(45)"/><path class="cls-2" d="M93.26,55.56,49.45,11.74a4.39,4.39,0,0,0-6.19,0L35,20a4.38,4.38,0,0,0,0,6.19,4.39,4.39,0,0,0-6.19,0l-8.22,8.22a4.36,4.36,0,0,0-.34,5.77,4.37,4.37,0,0,0-5.84.29L6.23,48.65a4.39,4.39,0,0,0,0,6.19L50.05,98.66a4.39,4.39,0,0,0,6.19,0l8.22-8.22a4.38,4.38,0,0,0,.34-5.77,4.39,4.39,0,0,0,5.84-.29l8.22-8.22a4.39,4.39,0,0,0,0-6.19,4.39,4.39,0,0,0,6.19,0l8.21-8.22A4.38,4.38,0,0,0,93.26,55.56Z"/><ellipse class="cls-2" cx="29.27" cy="75.9" rx="10.67" ry="23.73" transform="translate(-45.1 42.93) rotate(-45)"/><ellipse class="cls-2" cx="70.38" cy="34.79" rx="10.67" ry="23.73" transform="translate(-3.99 59.96) rotate(-45)"/><path class="cls-1" d="M73,18.88a42,42,0,0,0-7.81,3.06,70.3,70.3,0,0,0-6.9,4,85.67,85.67,0,0,0-12.16,9.94c-3.88,3.57-7.37,7.64-11.1,11.65-1.74,2.11-3.58,4.18-5.49,6.25a74.88,74.88,0,0,1-5.87,6.33,67.34,67.34,0,0,1,2.22-8.48c1-2.71,2.27-5.35,3.57-8a58.29,58.29,0,0,1,10.72-14A44.53,44.53,0,0,1,55.3,19.85a34.77,34.77,0,0,1,8.86-2A20.45,20.45,0,0,1,73,18.88Z"/><path class="cls-1" d="M68.44,18.36A9.22,9.22,0,1,1,75,15.66,9.19,9.19,0,0,1,68.44,18.36Zm0-15.55a6.34,6.34,0,1,0,4.48,1.85A6.33,6.33,0,0,0,68.44,2.81Z"/></svg>