<svg id="Layer_1" data-name="Layer 1" xmlns="http://www.w3.org/2000/svg" viewBox="0 0 100 100"><defs><style>.cls-1{fill:#fff;}.cls-2{fill:#ebf7fd;}.cls-3{fill:#a8d5eb;}</style></defs><title>hail</title><rect class="cls-1" y="25.95" width="100" height="29.32" rx="5.65" ry="5.65"/><circle class="cls-1" cx="30.28" cy="24.1" r="20.14"/><circle class="cls-1" cx="60.85" cy="25.95" r="13.14"/><rect class="cls-2" x="9.95" y="47.64" width="79.24" height="7.67" rx="1.48" ry="1.48"/><path class="cls-2" d="M16.69,45.32a8.14,8.14,0,0,1-3.85,1.07A8.09,8.09,0,0,1,9,45.32a8,8,0,0,1,3.85-1.08A8.09,8.09,0,0,1,16.69,45.32Z"/><path class="cls-2" d="M31.38,45.32a8.09,8.09,0,0,1-3.85,1.07,8.14,8.14,0,0,1-3.85-1.07,8.09,8.09,0,0,1,3.85-1.08A8,8,0,0,1,31.38,45.32Z"/><path class="cls-2" d="M46.08,45.32a7.46,7.46,0,0,1-7.7,0,7.4,7.4,0,0,1,7.7,0Z"/><path class="cls-2" d="M60.78,45.32a7.46,7.46,0,0,1-7.7,0,7.4,7.4,0,0,1,7.7,0Z"/><path class="cls-2" d="M75.48,45.32a7.46,7.46,0,0,1-7.7,0,7.4,7.4,0,0,1,7.7,0Z"/><path class="cls-2" d="M90.17,45.32a7.46,7.46,0,0,1-7.7,0,7.4,7.4,0,0,1,7.7,0Z"/><path class="cls-3" d="M23.68,50.24a8.09,8.09,0,0,1-3.85,1.07A8.14,8.14,0,0,1,16,50.24a8.09,8.09,0,0,1,3.85-1.08A8,8,0,0,1,23.68,50.24Z"/><path class="cls-3" d="M38.38,50.24a8.09,8.09,0,0,1-3.85,1.07,8.14,8.14,0,0,1-3.85-1.07,8.09,8.09,0,0,1,3.85-1.08A8,8,0,0,1,38.38,50.24Z"/><path class="cls-3" d="M53.08,50.24a7.46,7.46,0,0,1-7.7,0,7.4,7.4,0,0,1,7.7,0Z"/><path class="cls-3" d="M67.78,50.24a7.46,7.46,0,0,1-7.7,0,7.4,7.4,0,0,1,7.7,0Z"/><path class="cls-3" d="M82.47,50.24a7.46,7.46,0,0,1-7.7,0,7.4,7.4,0,0,1,7.7,0Z"/><circle class="cls-1" cx="21.38" cy="62.57" r="1.55"/><circle class="cls-1" cx="38.19" cy="73.88" r="0.76"/><circle class="cls-1" cx="58.89" cy="82.33" r="1.96"/><circle class="cls-1" cx="72.23" cy="67.83" r="1.84"/><circle class="cls-1" cx="81.66" cy="88.5" r="1.11"/><circle class="cls-1" cx="40.31" cy="92.88" r="1.92"/><circle class="cls-1" cx="63.93" cy="60.16" r="1.22"/><circle class="cls-1" cx="52.29" cy="64.44" r="1.87"/><circle class="cls-1" cx="27.4" cy="90.87" r="1.27"/><circle class="cls-1" cx="62.43" cy="94.46" r="1.58"/><circle class="cls-1" cx="84.25" cy="63.34" r="0.78"/></svg>