<svg id="Layer_1" data-name="Layer 1" xmlns="http://www.w3.org/2000/svg" viewBox="0 0 100 100"><defs><style>.cls-1{fill:#ffc63f;}.cls-2{fill:#e2b139;}</style></defs><title>hay</title><ellipse class="cls-1" cx="49.3" cy="80.19" rx="49.33" ry="12.77"/><path class="cls-1" d="M73.88,34.62l4.37-4.37C70.12,17.17,60.12,6.68,49.3,6.68s-21,10.66-29.16,23.89l4.05,4Z"/><path class="cls-1" d="M78.25,30.25l-4.37,4.37h0l-2.23,2.23,2.23-2.23H24.19L27,37.39l-2.77-2.77h0l-4.05-4C7.91,50.38,0,76,0,80.19,0,87.24,22.05,93,49.3,93s49.33-5.72,49.33-12.77C98.63,75.93,90.6,50.1,78.25,30.25Z"/><circle class="cls-1" cx="26.55" cy="34.61" r="7.58"/><circle class="cls-1" cx="41.72" cy="34.61" r="7.58"/><circle class="cls-1" cx="56.88" cy="34.61" r="7.58"/><circle class="cls-1" cx="72.05" cy="34.61" r="7.58"/><circle class="cls-1" cx="22.17" cy="46.85" r="1.39"/><circle class="cls-1" cx="27.14" cy="55.04" r="1.39"/><circle class="cls-1" cx="49.5" cy="55.04" r="1.39"/><circle class="cls-1" cx="71.87" cy="55.04" r="1.39"/><circle class="cls-1" cx="33.08" cy="46.85" r="1.39"/><circle class="cls-1" cx="43.98" cy="46.85" r="1.39"/><circle class="cls-1" cx="54.89" cy="46.85" r="1.39"/><circle class="cls-1" cx="65.8" cy="46.85" r="1.39"/><circle class="cls-1" cx="76.71" cy="46.85" r="1.39"/><rect class="cls-1" x="18.97" y="23.69" width="1.17" height="6.56" rx="0.27" ry="0.27" transform="translate(-12.01 37.62) rotate(-72.7)"/><rect class="cls-1" x="20.83" y="20.92" width="1.37" height="6.56" rx="0.29" ry="0.29" transform="translate(-6.62 8.17) rotate(-18.69)"/><rect class="cls-1" x="22.97" y="20.89" width="1.17" height="6.56" rx="0.27" ry="0.27" transform="translate(6.07 -4.7) rotate(13.06)"/><rect class="cls-1" x="19.2" y="86.4" width="1.78" height="9.99" rx="0.41" ry="0.41" transform="translate(51.65 179.49) rotate(172.69)"/><rect class="cls-1" x="13.98" y="85.44" width="2.08" height="9.99" rx="0.45" ry="0.45" transform="translate(-40.51 163.39) rotate(-133.29)"/><rect class="cls-1" x="12.79" y="82.63" width="1.78" height="9.99" rx="0.41" ry="0.41" transform="translate(-69.43 118.57) rotate(-101.55)"/><rect class="cls-2" x="23.35" y="76.35" width="1.17" height="6.56" rx="0.27" ry="0.27" transform="translate(-59.21 78.81) rotate(-72.7)"/><rect class="cls-2" x="25.4" y="73.55" width="1.17" height="6.56" rx="0.27" ry="0.27" transform="translate(-23.25 12.38) rotate(-18.69)"/><rect class="cls-2" x="27.35" y="73.55" width="1.17" height="6.56" rx="0.27" ry="0.27" transform="translate(18.08 -4.33) rotate(13.06)"/><rect class="cls-2" x="62.5" y="25.14" width="1.17" height="6.56" rx="0.27" ry="0.27" transform="translate(-3.36 9.13) rotate(-8.07)"/><rect class="cls-2" x="65.91" y="25.79" width="1.17" height="6.56" rx="0.27" ry="0.27" transform="translate(41.16 -38.93) rotate(45.95)"/><rect class="cls-2" x="66.74" y="27.56" width="1.17" height="6.56" rx="0.27" ry="0.27" transform="translate(83.11 -41.52) rotate(77.69)"/><rect class="cls-2" x="47.95" y="40.79" width="1.17" height="6.56" rx="0.27" ry="0.27" transform="translate(-7.98 77.3) rotate(-72.7)"/><rect class="cls-2" x="42.01" y="25.3" width="1.17" height="6.56" rx="0.27" ry="0.27" transform="translate(-6.91 15.15) rotate(-18.69)"/><rect class="cls-2" x="54.3" y="37.99" width="1.17" height="6.56" rx="0.27" ry="0.27" transform="translate(10.74 -11.33) rotate(13.06)"/><rect class="cls-1" x="5.4" y="61.84" width="1.17" height="6.56" rx="0.27" ry="0.27" transform="translate(-49.87 99.13) rotate(-116.08)"/><rect class="cls-1" x="4.97" y="58.4" width="1.17" height="6.56" rx="0.27" ry="0.27" transform="translate(-51.55 37.7) rotate(-62.07)"/><rect class="cls-1" x="6.39" y="57.06" width="1.17" height="6.56" rx="0.27" ry="0.27" transform="translate(-29.51 11.78) rotate(-30.32)"/><rect class="cls-1" x="52.44" y="3.6" width="1.17" height="6.56" rx="0.27" ry="0.27" transform="translate(-0.44 7.02) rotate(-7.55)"/><rect class="cls-1" x="55.84" y="4.28" width="1.17" height="6.56" rx="0.27" ry="0.27" transform="translate(23.04 -38.55) rotate(46.47)"/><rect class="cls-1" x="56.66" y="6.05" width="1.17" height="6.56" rx="0.27" ry="0.27" transform="translate(54.69 -48.61) rotate(78.21)"/><rect class="cls-1" x="65.75" y="8.61" width="1.17" height="6.56" rx="0.27" ry="0.27" transform="translate(34.63 -47.58) rotate(51.77)"/><rect class="cls-1" x="66.9" y="11.88" width="1.17" height="6.56" rx="0.27" ry="0.27" transform="translate(100.44 -45.65) rotate(105.79)"/><rect class="cls-1" x="96.2" y="68.49" width="1.17" height="6.56" rx="0.27" ry="0.27" transform="translate(192.17 -1.84) rotate(105.79)"/><rect class="cls-1" x="65.79" y="13.5" width="1.17" height="6.56" rx="0.27" ry="0.27" transform="translate(126.67 -15.67) rotate(137.53)"/></svg>