<svg id="Layer_1" data-name="Layer 1" xmlns="http://www.w3.org/2000/svg" viewBox="0 0 100 100"><defs><style>.cls-1{fill:#fff;}.cls-2{fill:#ffc63f;}.cls-3{fill:#f89c3e;}.cls-4{fill:#3f758a;}.cls-5{fill:#6ab8d9;}.cls-6{fill:#508ea8;}</style></defs><title>hero</title><circle class="cls-1" cx="14.84" cy="22.3" r="5.52"/><path class="cls-1" d="M14,10.81a10.43,10.43,0,0,0-13.48,6L.08,18a1.17,1.17,0,0,0,.66,1.5,1.16,1.16,0,0,0,1.5-.66,1.16,1.16,0,0,0,2.17.84,1.16,1.16,0,0,0,2.16.84,1.16,1.16,0,0,0,2.17.84,1.16,1.16,0,0,0,2.16.84L11.38,21,20,24.3A10.42,10.42,0,0,0,14,10.81Z"/><circle class="cls-1" cx="47.4" cy="22.3" r="5.52"/><path class="cls-1" d="M48.2,10.81a10.42,10.42,0,0,1,13.48,6L62.16,18a1.16,1.16,0,0,1-2.17.84,1.16,1.16,0,0,1-2.16.84,1.16,1.16,0,0,1-2.17.84,1.16,1.16,0,0,1-2.17.84,1.15,1.15,0,0,1-.66,1.5,1.17,1.17,0,0,1-1.5-.66L50.86,21,42.25,24.3A10.42,10.42,0,0,1,48.2,10.81Z"/><path class="cls-2" d="M31.05,11.8A15.49,15.49,0,0,0,15.61,27.24v5.25a15.43,15.43,0,0,0,7.1,13,11.25,11.25,0,0,1-3-7.59V34a11.33,11.33,0,0,1,22.66,0v3.86a11.21,11.21,0,0,1-3,7.59,15.43,15.43,0,0,0,7.1-13V27.24A15.49,15.49,0,0,0,31.05,11.8Z"/><path class="cls-3" d="M43.71,31.32C43.71,25,38,19.81,31,19.81S18.2,25,18.2,31.32v3.91a10.84,10.84,0,0,0,3.37,7.71,18.8,18.8,0,0,0,18.77,0,10.84,10.84,0,0,0,3.37-7.71Z"/><rect class="cls-2" x="25.95" y="8.75" width="10.87" height="14.58" rx="2.56" ry="2.56"/><rect class="cls-2" x="17.75" y="24.3" width="12.47" height="9.14" rx="2.15" ry="2.15"/><rect class="cls-2" x="31.89" y="24.3" width="12.47" height="9.14" rx="2.15" ry="2.15"/><rect class="cls-2" x="27.38" y="27.26" width="7.27" height="3.23" rx="0.76" ry="0.76"/><circle class="cls-3" cx="23.81" cy="28.85" r="2.24"/><circle class="cls-3" cx="38.62" cy="28.85" r="2.24"/><path class="cls-2" d="M14,61H46.44A6.11,6.11,0,0,1,52,64.63a6.07,6.07,0,0,0,.55-2.52A6.13,6.13,0,0,0,46.44,56H14a6.13,6.13,0,0,0-6.12,6.11,6.07,6.07,0,0,0,.55,2.52A6.14,6.14,0,0,1,14,61Z"/><path class="cls-3" d="M14,65.48H46.44A6.13,6.13,0,0,0,52,61.88a6.12,6.12,0,0,0-5.56-3.61H14a6.15,6.15,0,0,0-5.57,3.61A6.15,6.15,0,0,0,14,65.48Z"/><rect class="cls-2" x="15.34" y="62.94" width="29.44" height="28.3" rx="5.03" ry="5.03"/><rect class="cls-2" x="12.33" y="57.97" width="35.87" height="18.35" rx="3.47" ry="3.47"/><circle class="cls-3" cx="17.87" cy="77.9" r="0.46"/><circle class="cls-3" cx="21.47" cy="77.9" r="0.46"/><circle class="cls-3" cx="28.67" cy="77.9" r="0.46"/><circle class="cls-3" cx="24.86" cy="77.9" r="0.46"/><circle class="cls-3" cx="32.27" cy="77.9" r="0.46"/><circle class="cls-3" cx="35.87" cy="77.9" r="0.46"/><circle class="cls-3" cx="39.06" cy="77.9" r="0.46"/><circle class="cls-3" cx="19.62" cy="80.05" r="0.46"/><circle class="cls-3" cx="23.22" cy="80.05" r="0.46"/><circle class="cls-3" cx="30.42" cy="80.05" r="0.46"/><circle class="cls-3" cx="26.61" cy="80.05" r="0.46"/><circle class="cls-3" cx="34.02" cy="80.05" r="0.46"/><circle class="cls-3" cx="37.62" cy="80.05" r="0.46"/><circle class="cls-3" cx="40.81" cy="80.05" r="0.46"/><circle class="cls-3" cx="42.25" cy="77.9" r="0.46"/><circle class="cls-3" cx="17.87" cy="81.84" r="0.46"/><circle class="cls-3" cx="21.47" cy="81.84" r="0.46"/><circle class="cls-3" cx="28.67" cy="81.84" r="0.46"/><circle class="cls-3" cx="24.86" cy="81.84" r="0.46"/><circle class="cls-3" cx="32.27" cy="81.84" r="0.46"/><circle class="cls-3" cx="35.87" cy="81.84" r="0.46"/><circle class="cls-3" cx="39.06" cy="81.84" r="0.46"/><circle class="cls-3" cx="19.62" cy="83.99" r="0.46"/><circle class="cls-3" cx="23.22" cy="83.99" r="0.46"/><circle class="cls-3" cx="30.42" cy="83.99" r="0.46"/><circle class="cls-3" cx="26.61" cy="83.99" r="0.46"/><circle class="cls-3" cx="34.02" cy="83.99" r="0.46"/><circle class="cls-3" cx="37.62" cy="83.99" r="0.46"/><circle class="cls-3" cx="40.81" cy="83.99" r="0.46"/><circle class="cls-3" cx="42.25" cy="81.84" r="0.46"/><circle class="cls-3" cx="21.47" cy="85.65" r="0.46"/><circle class="cls-3" cx="28.67" cy="85.65" r="0.46"/><circle class="cls-3" cx="24.86" cy="85.65" r="0.46"/><circle class="cls-3" cx="32.27" cy="85.65" r="0.46"/><circle class="cls-3" cx="35.87" cy="85.65" r="0.46"/><circle class="cls-3" cx="39.06" cy="85.65" r="0.46"/><circle class="cls-3" cx="21.47" cy="88.24" r="0.46"/><circle class="cls-3" cx="28.67" cy="88.24" r="0.46"/><circle class="cls-3" cx="24.86" cy="88.24" r="0.46"/><circle class="cls-3" cx="32.27" cy="88.24" r="0.46"/><circle class="cls-3" cx="35.87" cy="88.24" r="0.46"/><circle class="cls-3" cx="39.06" cy="88.24" r="0.46"/><polygon class="cls-3" points="27.07 76.32 33.56 76.32 30.42 73.39 27.07 76.32"/><circle class="cls-4" cx="30.42" cy="65.92" r="5.82"/><polyline class="cls-5" points="26.68 65.75 29.33 65.75 25.76 72.29 36.03 63.52 31.85 63.52 35.16 59.22 30.78 59.22"/><path class="cls-5" d="M86.2,29.85a35.39,35.39,0,0,1-8.44.89,31.73,31.73,0,0,1-9.44-1.19L54.43,78.79c0,1.39,3.63,2.52,8.11,2.52,3.26,0,6.05-.6,7.34-1.46,1.29.86,4.08,1.46,7.34,1.46s6-.6,7.33-1.46c1.29.86,4.08,1.46,7.34,1.46,4.48,0,8.11-1.13,8.11-2.52Z"/><path class="cls-6" d="M70.07,80a10.09,10.09,0,0,0,3.12,1L72.71,56.5Z"/><path class="cls-6" d="M84.58,79.87a12.84,12.84,0,0,0,5.48,1.37l-7-31.69Z"/></svg>