<svg id="Layer_1" data-name="Layer 1" xmlns="http://www.w3.org/2000/svg" viewBox="0 0 100 100"><defs><style>.cls-1{fill:#ffc63f;}.cls-2{fill:#5a9eba;}.cls-3{fill:#f37d3b;}.cls-4{fill:#f69a85;}.cls-5{fill:#447d93;}</style></defs><title>horizon</title><circle class="cls-1" cx="51.3" cy="39.23" r="13.72"/><path class="cls-1" d="M47.64,23a8.32,8.32,0,0,1,3.66-.76A11.45,11.45,0,0,1,55,23L51.3,15.09Z"/><path class="cls-1" d="M55,54.86a8.21,8.21,0,0,1-3.65.77,11.34,11.34,0,0,1-3.66-.77l3.66,8Z"/><path class="cls-1" d="M67.2,35.3A8.21,8.21,0,0,1,68,39a11.34,11.34,0,0,1-.77,3.66L93.36,39Z"/><path class="cls-1" d="M35.39,42.61A8.23,8.23,0,0,1,34.62,39a11.24,11.24,0,0,1,.77-3.65L6.13,39Z"/><path class="cls-1" d="M60,25.12a8.2,8.2,0,0,1,3.13,2,11.31,11.31,0,0,1,2,3.13l3-8.21Z"/><path class="cls-1" d="M42.63,52.79a8.32,8.32,0,0,1-3.13-2,11.33,11.33,0,0,1-2-3.12l-3,8.21Z"/><path class="cls-1" d="M65.13,47.62a8.29,8.29,0,0,1-2,3.12,11.46,11.46,0,0,1-3.13,2l8.21,3Z"/><path class="cls-1" d="M37.46,30.29a8.36,8.36,0,0,1,2-3.13,11.31,11.31,0,0,1,3.13-2l-8.21-3Z"/><rect class="cls-2" y="60.88" width="100" height="15.79"/><path class="cls-3" d="M100,43.81a4.33,4.33,0,0,0-6.68-3.63l0-.22H6.56l0,.16A4.33,4.33,0,0,0,0,43.81v8.44H100Z"/><rect class="cls-4" y="51.72" width="100" height="10.16"/><path class="cls-5" d="M0,75.67v4.92a4.32,4.32,0,0,0,4.32,4.32H95.68A4.32,4.32,0,0,0,100,80.59V75.67Z"/><path class="cls-1" d="M0,44.55V43.28A4.33,4.33,0,0,1,4.32,39H95.68A4.33,4.33,0,0,1,100,43.28v1.27Z"/><line class="cls-3" x1="49.73" y1="84.91" x2="49.73" y2="36.76"/><path class="cls-3" d="M34.65,50.35c.31.54-.47.73-.08,1.65.3.67,2.43.68,2.77,1.51s-1.23,2.21-.9,3,2.43.74,2.75,1.52-1.19,2.27-.86,3,2.45.7,2.8,1.45S40,64.86,40.4,65.6s2.49.58,2.88,1.29-.9,2.44-.48,3.12,2.54.32,3,.95-.45,2.62.09,3.17,2.47-.38,3.12,0,1,2.52,1.83,2.52,1.07-2.08,1.83-2.52,2.48.64,3.11,0-.43-2.46.08-3.16,2.55-.21,3-.93-.88-2.38-.48-3.12,2.51-.54,2.88-1.29-1.07-2.32-.73-3.07,2.48-.71,2.8-1.46-1.16-2.29-.85-3,2.46-.8,2.76-1.54-1.19-2.31-.9-3,2.47-.83,2.76-1.51c.4-.91-.38-1.1-.08-1.64-1.22-.29-1-1.94-2.29-1.94s-1.26,2-2.51,2-1.26-2-2.53-2-1.26,2-2.52,2-1.26-2-2.51-2-1.27,2-2.53,2-1.26-2-2.53-2-1.26,2-2.52,2-1.27-2-2.53-2-1.26,2-2.53,2-1.26-2-2.53-2-1.11,1.72-2.36,2S35.88,50.06,34.65,50.35Z"/><path class="cls-1" d="M35.17,41.39c.28.47-.46.54-.11,1.13s2.28,0,2.62.59-1,2-.71,2.59,2.29,0,2.64.5-.93,2.12-.57,2.63,2.29-.17,2.67.32-.75,2.21-.35,2.67,2.27-.38,2.69,0-.46,2.3,0,2.7,2.16-.74,2.66-.4.06,2.36.6,2.62,1.82-1.33,2.4-1.17,1,2.16,1.59,2.16,1-2,1.58-2.16,1.83,1.45,2.4,1.17.08-2.26.6-2.62,2.18.82,2.65.41-.44-2.25,0-2.69,2.28.42,2.69,0-.73-2.18-.35-2.67,2.31.18,2.67-.32-.9-2.13-.57-2.64,2.33,0,2.65-.5-1-2.09-.71-2.6,2.34-.1,2.63-.6-.39-.66-.12-1.12c-1.23-.25-1.06-1.93-2.31-1.93s-1.25,1.95-2.5,1.95-1.26-1.95-2.51-1.95-1.25,1.95-2.51,1.95-1.25-1.95-2.5-1.95-1.26,1.95-2.51,1.95-1.26-1.95-2.51-1.95-1.26,1.95-2.51,1.95S46.3,39.46,45,39.46s-1.25,1.95-2.51,1.95S41.28,39.46,40,39.46s-1.1,1.69-2.33,1.94S36.41,41.14,35.17,41.39Z"/></svg>