<svg id="Layer_1" data-name="Layer 1" xmlns="http://www.w3.org/2000/svg" viewBox="0 0 100 100"><defs><style>.cls-1{fill:#7d7d7d;}.cls-2{fill:#9dc8dc;}.cls-3{fill:#87898b;}.cls-4{fill:#fff;}.cls-5{fill:#f37d3b;}</style></defs><title>hospital</title><path class="cls-1" d="M69.41,0H30.59a8.78,8.78,0,0,0-8.76,8.75v82.5A8.78,8.78,0,0,0,30.59,100H69.41a8.78,8.78,0,0,0,8.76-8.75V8.75A8.78,8.78,0,0,0,69.41,0Z"/><path class="cls-2" d="M35.3,100V82.06a7.58,7.58,0,0,1,7.56-7.56H57.14a7.58,7.58,0,0,1,7.56,7.56V100"/><path class="cls-3" d="M65.7,100h-2V82.06a6.56,6.56,0,0,0-6.56-6.56H42.86a6.56,6.56,0,0,0-6.56,6.56V100h-2V82.06a8.57,8.57,0,0,1,8.56-8.56H57.14a8.57,8.57,0,0,1,8.56,8.56Z"/><rect class="cls-3" x="49" y="74.9" width="2" height="25.1"/><path class="cls-4" d="M42.25,77.58a5.51,5.51,0,0,1-1.39,3.16,5.54,5.54,0,0,1-3.15,1.39,4.76,4.76,0,0,1,4.54-4.55Z"/><path class="cls-4" d="M45,80.3a4.76,4.76,0,0,1-4.54,4.55A4.76,4.76,0,0,1,45,80.3Z"/><path class="cls-4" d="M37.32,12.28a5.54,5.54,0,0,1-1.39,3.15,5.51,5.51,0,0,1-3.16,1.39,5.46,5.46,0,0,1,1.39-3.15A5.51,5.51,0,0,1,37.32,12.28Z"/><path class="cls-4" d="M40,15a5.54,5.54,0,0,1-1.39,3.15,5.51,5.51,0,0,1-3.16,1.39,5.46,5.46,0,0,1,1.39-3.15A5.48,5.48,0,0,1,40,15Z"/><rect class="cls-5" x="35.04" y="58" width="30.84" height="14.17" rx="3.54" ry="3.54"/><rect class="cls-4" x="44.54" y="63.48" width="10.92" height="3.2" rx="0.8" ry="0.8"/><rect class="cls-4" x="44.54" y="63.48" width="10.92" height="3.2" rx="0.8" ry="0.8" transform="translate(115.08 15.08) rotate(90)"/><rect class="cls-2" x="29.82" y="9.89" width="16.75" height="16.75" rx="2.23" ry="2.23"/><path class="cls-3" d="M42.11,27.65H34.29a5.48,5.48,0,0,1-5.47-5.47V14.36a5.48,5.48,0,0,1,5.47-5.47h7.82a5.48,5.48,0,0,1,5.47,5.47v7.82A5.48,5.48,0,0,1,42.11,27.65ZM34.29,10.89a3.48,3.48,0,0,0-3.47,3.47v7.82a3.47,3.47,0,0,0,3.47,3.46h7.82a3.47,3.47,0,0,0,3.47-3.46V14.36a3.48,3.48,0,0,0-3.47-3.47Z"/><rect class="cls-2" x="52.08" y="9.89" width="16.75" height="16.75" rx="2.23" ry="2.23"/><path class="cls-3" d="M64.36,27.65H56.55a5.48,5.48,0,0,1-5.47-5.47V14.36a5.48,5.48,0,0,1,5.47-5.47h7.81a5.48,5.48,0,0,1,5.47,5.47v7.82A5.48,5.48,0,0,1,64.36,27.65ZM56.55,10.89a3.47,3.47,0,0,0-3.47,3.47v7.82a3.46,3.46,0,0,0,3.47,3.46h7.81a3.46,3.46,0,0,0,3.47-3.46V14.36a3.47,3.47,0,0,0-3.47-3.47Z"/><rect class="cls-2" x="29.82" y="34.27" width="16.75" height="16.75" rx="2.23" ry="2.23"/><path class="cls-3" d="M42.11,52H34.29a5.48,5.48,0,0,1-5.47-5.46V38.74a5.48,5.48,0,0,1,5.47-5.47h7.82a5.48,5.48,0,0,1,5.47,5.47v7.82A5.48,5.48,0,0,1,42.11,52ZM34.29,35.27a3.48,3.48,0,0,0-3.47,3.47v7.82A3.47,3.47,0,0,0,34.29,50h7.82a3.47,3.47,0,0,0,3.47-3.46V38.74a3.48,3.48,0,0,0-3.47-3.47Z"/><rect class="cls-2" x="52.08" y="34.27" width="16.75" height="16.75" rx="2.23" ry="2.23"/><path class="cls-3" d="M64.36,52H56.55a5.47,5.47,0,0,1-5.47-5.46V38.74a5.47,5.47,0,0,1,5.47-5.47h7.81a5.47,5.47,0,0,1,5.47,5.47v7.82A5.47,5.47,0,0,1,64.36,52ZM56.55,35.27a3.47,3.47,0,0,0-3.47,3.47v7.82A3.46,3.46,0,0,0,56.55,50h7.81a3.46,3.46,0,0,0,3.47-3.46V38.74a3.47,3.47,0,0,0-3.47-3.47Z"/><rect class="cls-5" x="42.51" y="71" width="1.66" height="3.5" rx="0.42" ry="0.42"/><rect class="cls-5" x="55.7" y="71" width="1.66" height="3.5" rx="0.42" ry="0.42"/></svg>