<svg id="Layer_1" data-name="Layer 1" xmlns="http://www.w3.org/2000/svg" viewBox="0 0 100 100"><defs><style>.cls-1{fill:#069274;}.cls-2{fill:#09a582;}.cls-3{fill:#089a7a;}.cls-4{fill:#00948b;}.cls-5{fill:#00a69c;}.cls-6{fill:#009b92;}.cls-7{fill:#fff;}</style></defs><title>wind</title><path class="cls-1" d="M73.33,55.92a.87.87,0,0,0-1,0l-1.49.89c-.85.52-1.77,1.1-2.64,1.67-.55.37-1.08.73-1.55,1.08a9.15,9.15,0,0,0-1.86,1.62c-.85,1.17-.14,3.24.4,4.44a2,2,0,0,0,.61.75,2,2,0,0,0,.9.34c1.31.13,3.5.15,4.34-1s2-6.06,2.6-8.81A.9.9,0,0,0,73.33,55.92Z"/><path class="cls-2" d="M73.33,55.92a.87.87,0,0,0-1,0l-1.49.89c-.85.52-1.77,1.1-2.64,1.67-.55.37-1.08.73-1.55,1.08a9.15,9.15,0,0,0-1.86,1.62c-.85,1.17-.14,3.24.4,4.44a2,2,0,0,0,.61.75Z"/><path class="cls-3" d="M73.33,55.92a.87.87,0,0,0-1,0l-1.49.89.34,2.09Z"/><path class="cls-3" d="M68.84,62.16l-.61-3.72c-.55.37-1.08.73-1.55,1.08l.74,4.6Z"/><path class="cls-4" d="M39.89,69.59l-1.58-.73c-.91-.41-1.9-.84-2.86-1.24-.62-.25-1.22-.48-1.77-.68a9.17,9.17,0,0,0-2.39-.61c-1.44,0-2.75,1.71-3.44,2.83a2,2,0,0,0-.27.93,1.87,1.87,0,0,0,.23.94c.63,1.15,1.84,3,3.29,3s6.14-1.76,8.75-2.82a.89.89,0,0,0,.55-.8A.86.86,0,0,0,39.89,69.59Z"/><path class="cls-5" d="M40.4,70.41a.86.86,0,0,0-.51-.82l-1.58-.73c-.91-.41-1.9-.84-2.86-1.24-.62-.25-1.22-.48-1.77-.68a9.17,9.17,0,0,0-2.39-.61c-1.44,0-2.75,1.71-3.44,2.83a2,2,0,0,0-.27.93Z"/><path class="cls-6" d="M40.4,70.41a.86.86,0,0,0-.51-.82l-1.58-.73-1.53,1.46Z"/><path class="cls-6" d="M32.72,70.22l2.73-2.6c-.62-.25-1.22-.48-1.77-.68L30.3,70.16Z"/><path class="cls-7" d="M99.4,37.79,98.08,40.3l-1.6,3c-.73,1.23-1.56,2.65-2.5,4.23a117.51,117.51,0,0,1-7.45,10.73A90.64,90.64,0,0,1,74.69,70.56,53.1,53.1,0,0,1,56.74,80.81a30.8,30.8,0,0,1-11.81,1.32,26.3,26.3,0,0,1-3.11-.54L41,81.43l-.2,0-.09,0-.24-.07-.32-.1-1.29-.43a30.91,30.91,0,0,1-5.7-2.83A34.09,34.09,0,0,1,24,69.51a24.38,24.38,0,0,1-4.91-12.16L19,55.64c0-.58.06-1.15.09-1.73l.06-.86V53c0-.11,0,.09,0-.28l0-.18.08-.36.28-1.44a24.32,24.32,0,0,1,2.67-6.33,27.08,27.08,0,0,1,9.27-9.16A21.12,21.12,0,0,1,44.3,32.08l1.68.23,1.57.42a16.87,16.87,0,0,1,3.19,1.35,20,20,0,0,1,5.11,4.05,27,27,0,0,1,3.66,5.08,25.13,25.13,0,0,1,2.43,5.68l.4,1.37.29,1.55a19.18,19.18,0,0,1,.36,3,29.06,29.06,0,0,1-.21,5.91,37,37,0,0,1-9.43,19.75A34.08,34.08,0,0,1,45.43,87L43.34,88.1l-2.23,1a21.1,21.1,0,0,1-2.23.78,19.83,19.83,0,0,1-2.22.62,36.68,36.68,0,0,1-16.32.08A40.14,40.14,0,0,1,8.66,86,43.55,43.55,0,0,1,2.1,81.36L0,79.45l2.18,1.82a43.24,43.24,0,0,0,6.69,4.35,39.13,39.13,0,0,0,11.65,4,35.47,35.47,0,0,0,15.74-.7,18,18,0,0,0,2.08-.68,19.13,19.13,0,0,0,2.06-.81l2-1,2-1.22A32.55,32.55,0,0,0,51.57,79a34.2,34.2,0,0,0,8-18.55,25,25,0,0,0,0-5.26,15.79,15.79,0,0,0-.4-2.55l-.27-1.24L58.4,50a24.1,24.1,0,0,0-5.56-9,16.13,16.13,0,0,0-4.15-3,11.91,11.91,0,0,0-2.24-.86l-1.3-.3-1.24-.11a16.21,16.21,0,0,0-9.7,2.86,21.67,21.67,0,0,0-7.12,7.6,19.94,19.94,0,0,0-1.76,4.54l-.23,1.45-.05.36,0,.18c0-.31,0,0,0-.09v.68c0,.4-.05.8,0,1.2l.13,1.19c.89,6.41,6,12,11.67,15.25A24.28,24.28,0,0,0,41,73.85l1.3.38.33.09s.21.07-.07,0h.07l.14,0,.55.08a20.19,20.19,0,0,0,2.19.29,23.14,23.14,0,0,0,8.77-1.39A45,45,0,0,0,69,64a81.47,81.47,0,0,0,10.12-11.4,107.61,107.61,0,0,0,6.37-10l2.06-3.8L89,35.75l1.22-2.57A5.13,5.13,0,0,1,99.5,37.6Z"/><path class="cls-4" d="M81.17,9.65a1.89,1.89,0,0,0-3.47.11c-.41,1-.88,2.21-1.36,3.46-.76,2-1.57,4.17-2.29,6.27-.46,1.34-.89,2.65-1.24,3.86a19.7,19.7,0,0,0-1,5.17c.09,3.1,4,5.68,6.48,7a4,4,0,0,0,2,.47,3.88,3.88,0,0,0,2-.6c2.4-1.49,6.13-4.3,6-7.4S83.76,15.09,81.17,9.65Z"/><path class="cls-5" d="M79.4,8.57a1.87,1.87,0,0,0-1.7,1.19c-.41,1-.88,2.21-1.36,3.46-.76,2-1.57,4.17-2.29,6.27-.46,1.34-.89,2.65-1.24,3.86a19.7,19.7,0,0,0-1,5.17c.09,3.1,4,5.68,6.48,7a4,4,0,0,0,2,.47Z"/><path class="cls-6" d="M79.4,8.57a1.87,1.87,0,0,0-1.7,1.19c-.41,1-.88,2.21-1.36,3.46l3.31,3.1Z"/><path class="cls-6" d="M79.92,25l-5.87-5.51c-.46,1.34-.89,2.65-1.24,3.86l7.27,6.83Z"/><path class="cls-4" d="M84.85,76.17c-.45-1.46-3.52-1.91-5.43-2a4.14,4.14,0,0,0-1.48.17,4,4,0,0,0-1.32.69c-1.51,1.19-3.79,3.28-3.34,4.75S78,85,80.54,87.08a1.5,1.5,0,0,0,1.38.17,1.52,1.52,0,0,0,1-.91c.17-.58.35-1.24.54-1.93.29-1.11.59-2.31.85-3.46.16-.74.29-1.45.4-2.1A7.34,7.34,0,0,0,84.85,76.17Z"/><path class="cls-5" d="M81.92,87.25a1.52,1.52,0,0,0,1-.91c.17-.58.35-1.24.54-1.93.29-1.11.59-2.31.85-3.46.16-.74.29-1.45.4-2.1a7.34,7.34,0,0,0,.09-2.68c-.45-1.46-3.52-1.91-5.43-2a4.14,4.14,0,0,0-1.48.17Z"/><path class="cls-6" d="M81.92,87.25a1.52,1.52,0,0,0,1-.91c.17-.58.35-1.24.54-1.93l-2.71-.83Z"/><path class="cls-6" d="M79.54,79.49,84.36,81c.16-.74.29-1.45.4-2.1l-6-1.81Z"/><path class="cls-4" d="M25.12,58.18c-.32-2.13-1.17-5.6-3.38-6.47s-10.41-.73-15-.56a1.44,1.44,0,0,0-1,2.46c.6.61,1.29,1.29,2,2,1.16,1.13,2.45,2.36,3.71,3.5.8.73,1.59,1.42,2.33,2a15.64,15.64,0,0,0,3.31,2.29c2.21.86,5.19-1.09,6.88-2.43a3,3,0,0,0,.94-1.27A3.09,3.09,0,0,0,25.12,58.18Z"/><path class="cls-5" d="M5.43,52.06a1.43,1.43,0,0,0,.32,1.55c.6.61,1.29,1.29,2,2,1.16,1.13,2.45,2.36,3.71,3.5.8.73,1.59,1.42,2.33,2a15.64,15.64,0,0,0,3.31,2.29c2.21.86,5.19-1.09,6.88-2.43a3,3,0,0,0,.94-1.27Z"/><path class="cls-6" d="M5.43,52.06a1.43,1.43,0,0,0,.32,1.55c.6.61,1.29,1.29,2,2l3.17-1.38Z"/><path class="cls-6" d="M17.12,56.67l-5.64,2.45c.8.73,1.59,1.42,2.33,2l7-3Z"/><path class="cls-1" d="M29.49,18.72c-.41-.9-2.81-3.13-4.2-4.37a.59.59,0,0,0-.63-.09.56.56,0,0,0-.34.54c0,.34,0,.73,0,1.15,0,.65.05,1.37.1,2.05,0,.44.06.86.11,1.24a5.88,5.88,0,0,0,.32,1.6c.39.87,1.81,1.13,2.67,1.22a1.22,1.22,0,0,0,.63-.11,1.19,1.19,0,0,0,.49-.4C29.17,20.84,29.89,19.59,29.49,18.72Z"/><path class="cls-2" d="M24.66,14.26a.56.56,0,0,0-.34.54c0,.34,0,.73,0,1.15,0,.65.05,1.37.1,2.05,0,.44.06.86.11,1.24a5.88,5.88,0,0,0,.32,1.6c.39.87,1.81,1.13,2.67,1.22a1.22,1.22,0,0,0,.63-.11Z"/><path class="cls-3" d="M24.66,14.26a.56.56,0,0,0-.34.54c0,.34,0,.73,0,1.15l1.31.48Z"/><path class="cls-3" d="M26.76,18.87,24.44,18c0,.44.06.86.11,1.24l2.88,1.08Z"/><path class="cls-7" d="M28.17,32.37a10.09,10.09,0,0,1,1.14-.95,22.68,22.68,0,0,1,3.33-2,18.31,18.31,0,0,1,2.43-1,22.07,22.07,0,0,1,2.84-.81,21.45,21.45,0,0,1,3.17-.4l1.64,0c.55,0,1.11.1,1.66.15a18.45,18.45,0,0,1,3.24.67,20.09,20.09,0,0,1,3,1.18,23.72,23.72,0,0,1,2.54,1.53,13.51,13.51,0,0,1,2,1.67,10.45,10.45,0,0,1,1.56,1.57l1.07,1.33c.58.73.89,1.17.89,1.17s-.45-.32-1.18-.9l-1.29-1a18.65,18.65,0,0,0-1.77-1.21A20,20,0,0,0,52.33,32c-.8-.36-1.59-.85-2.48-1.19a28.08,28.08,0,0,0-2.77-.91,17,17,0,0,0-2.94-.55c-.5-.05-1-.14-1.5-.16h-1.5c-1,0-2,.12-2.92.19s-1.87.26-2.72.51-1.68.41-2.42.64a31.44,31.44,0,0,0-3.57,1.3C28.65,32.13,28.17,32.37,28.17,32.37Z"/><path class="cls-7" d="M67.84,79.92A9.94,9.94,0,0,1,67,81.1a21.36,21.36,0,0,1-2.76,2.78,18.67,18.67,0,0,1-2.11,1.57,23.1,23.1,0,0,1-2.57,1.47,22.42,22.42,0,0,1-3,1.13L55,88.47c-.54.12-1.1.17-1.65.25a18.33,18.33,0,0,1-3.31.12,20.51,20.51,0,0,1-3.17-.44A21.85,21.85,0,0,1,44,87.52a13.84,13.84,0,0,1-2.38-1.14,10.39,10.39,0,0,1-1.89-1.15l-1.35-1c-.74-.57-1.14-.92-1.14-.92s.51.2,1.35.59l1.51.7a17.37,17.37,0,0,0,2,.74,18.31,18.31,0,0,0,2.37.76c.87.16,1.76.45,2.7.57s1.91.26,2.9.23a16.67,16.67,0,0,0,3-.17c.5-.07,1-.1,1.5-.19L56,86.14c1-.21,1.88-.59,2.79-.88s1.76-.7,2.52-1.14,1.53-.8,2.2-1.2a32.36,32.36,0,0,0,3.16-2.1C67.43,80.26,67.84,79.92,67.84,79.92Z"/><path class="cls-4" d="M58.65,85.32c-.15-.41-.33-.88-.52-1.38-.3-.78-.64-1.64-1-2.45-.22-.51-.45-1-.66-1.46a8,8,0,0,0-1.07-1.79c-.85-.89-2.68-.61-3.76-.34a1.46,1.46,0,0,0-.71.39,1.59,1.59,0,0,0-.43.7c-.31,1.07-.65,2.89.19,3.77s4.75,2.6,6.95,3.51a.75.75,0,0,0,1-1Z"/><path class="cls-5" d="M58.46,86.12a.75.75,0,0,0,.19-.8c-.15-.41-.33-.88-.52-1.38-.3-.78-.64-1.64-1-2.45-.22-.51-.45-1-.66-1.46a8,8,0,0,0-1.07-1.79c-.85-.89-2.68-.61-3.76-.34a1.46,1.46,0,0,0-.71.39Z"/><path class="cls-6" d="M58.46,86.12a.75.75,0,0,0,.19-.8c-.15-.41-.33-.88-.52-1.38l-1.79,0Z"/><path class="cls-6" d="M54,81.43l3.19.06c-.22-.51-.45-1-.66-1.46l-4-.08Z"/></svg>