<svg id="Layer_1" data-name="Layer 1" xmlns="http://www.w3.org/2000/svg" viewBox="0 0 100 100"><defs><style>.cls-1{fill:#f37d3b;}.cls-2{fill:#ffc63f;}.cls-3{fill:#fff;}.cls-4{fill:#daab37;}.cls-5{fill:#6ab8d9;}</style></defs><title>ice cream</title><rect class="cls-1" x="73.43" y="47.11" width="1.26" height="5.04" rx="0.31" ry="0.31" transform="translate(154.08 10.31) rotate(120)"/><path class="cls-2" d="M71.68,31.55a5,5,0,0,0-4-2H32.35A5.05,5.05,0,0,0,27.51,36L45.16,96.37a5,5,0,0,0,9.68,0L72.49,36A5.07,5.07,0,0,0,71.68,31.55Z"/><rect class="cls-3" x="21.43" y="24.24" width="57.14" height="16.41" rx="4.09" ry="4.09" transform="translate(-3.65 6.47) rotate(-7.14)"/><rect class="cls-3" x="24.17" y="37.93" width="53" height="15.22" rx="3.79" ry="3.79" transform="translate(-5.27 6.66) rotate(-7.14)"/><polygon class="cls-4" points="43.19 59.5 39.17 59.5 37.16 62.98 39.17 66.47 43.19 66.47 45.2 62.98 43.19 59.5"/><polygon class="cls-4" points="52.01 59.5 47.99 59.5 45.98 62.98 47.99 66.47 52.01 66.47 54.02 62.98 52.01 59.5"/><polygon class="cls-4" points="52.01 76.31 47.99 76.31 45.98 79.79 47.99 83.27 52.01 83.27 54.02 79.79 52.01 76.31"/><polygon class="cls-4" points="48.91 73.4 48.91 69.37 45.43 67.36 41.95 69.37 41.95 73.4 45.43 75.41 48.91 73.4"/><polygon class="cls-4" points="58 73.4 58 69.37 54.52 67.36 51.03 69.37 51.03 73.4 54.52 75.41 58 73.4"/><polygon class="cls-4" points="60.83 59.5 56.81 59.5 54.8 62.98 56.81 66.47 60.83 66.47 62.84 62.98 60.83 59.5"/><rect class="cls-3" x="30.02" y="47.98" width="5.38" height="15" rx="1.34" ry="1.34"/><rect class="cls-3" x="33.64" y="40.73" width="9.85" height="17.8" rx="2.45" ry="2.45"/><path class="cls-3" d="M69.19,21.77C75.84,31.05,61.42,49.63,50,49.63A20.68,20.68,0,0,1,29.32,29C29.32,17.53,63.5,0,63.5,0S55.54,2.75,69.19,21.77Z"/><rect class="cls-1" x="46.96" y="7.01" width="1.26" height="5.04" rx="0.31" ry="0.31"/><rect class="cls-1" x="64.55" y="13.72" width="1.26" height="5.04" rx="0.31" ry="0.31" transform="translate(1.56 37.8) rotate(-32.71)"/><rect class="cls-1" x="66.73" y="29.92" width="1.26" height="5.04" rx="0.31" ry="0.31" transform="translate(68.85 -42.31) rotate(65.43)"/><rect class="cls-1" x="48.74" y="27.01" width="1.26" height="5.04" rx="0.31" ry="0.31" transform="translate(-7.81 23.2) rotate(-24.57)"/><rect class="cls-1" x="43.68" y="15.94" width="1.26" height="5.04" rx="0.31" ry="0.31" transform="translate(7.21 48.91) rotate(-62)"/><rect class="cls-5" x="56.66" y="16.91" width="1.26" height="5.04" rx="0.31" ry="0.31" transform="translate(86.89 -33.32) rotate(100.56)"/><rect class="cls-5" x="31.53" y="22.94" width="1.26" height="5.04" rx="0.31" ry="0.31" transform="translate(-8.82 23.56) rotate(-35.71)"/><rect class="cls-5" x="54.36" y="25.18" width="1.26" height="5.04" rx="0.31" ry="0.31" transform="translate(41.45 -32.36) rotate(50.56)"/><rect class="cls-5" x="36.16" y="22.61" width="1.26" height="5.04" rx="0.31" ry="0.31" transform="translate(74.01 0.63) rotate(112.31)"/></svg>