<svg id="Layer_1" data-name="Layer 1" xmlns="http://www.w3.org/2000/svg" viewBox="0 0 100 100"><defs><style>.cls-1{fill:#58595b;}.cls-2{fill:#4a4a4c;}.cls-3{fill:#fff;}</style></defs><title>mountain</title><path class="cls-1" d="M20.85,37.64C8.63,57.44.69,83,.69,87.23.69,94.28,22.76,100,50,100s49.31-5.72,49.31-12.77c0-4.25-8-30.07-20.37-49.91Z"/><circle class="cls-2" cx="22.88" cy="53.91" r="1.39"/><circle class="cls-2" cx="27.85" cy="62.1" r="1.39"/><circle class="cls-2" cx="50.21" cy="62.1" r="1.39"/><circle class="cls-2" cx="72.56" cy="62.1" r="1.39"/><circle class="cls-2" cx="33.78" cy="53.91" r="1.39"/><circle class="cls-2" cx="44.69" cy="53.91" r="1.39"/><circle class="cls-2" cx="55.59" cy="53.91" r="1.39"/><circle class="cls-2" cx="66.49" cy="53.91" r="1.39"/><circle class="cls-2" cx="77.4" cy="53.91" r="1.39"/><path class="cls-2" d="M78.94,37.32h0C70.81,24.24,50,0,50,0S29.26,24.14,21,37.41a1.4,1.4,0,0,0-.1.16l0,.07h0a7.57,7.57,0,1,0,14,4h0a7.58,7.58,0,0,0,15.16,0h0a7.58,7.58,0,0,0,15.16,0h0a7.58,7.58,0,1,0,13.78-4.37Z"/><path class="cls-3" d="M90.18,21.26H82a1.56,1.56,0,0,0,.39-1c0-.86-.89-1.68-2.48-2.43-.49-.23-1.08-.46-1.71-.68a4.17,4.17,0,1,0-8-2.28,2.63,2.63,0,0,0-4.5-.16c-1.19-.13-2.44-.24-3.72-.34l.6.73c6.45.58,11,1.57,11.76,2.73a.65.65,0,0,1,.12.36c0,.37-.38.73-1.1,1.07a2,2,0,0,0-.63.26l-.79.27a3.12,3.12,0,0,0-6,1.13c-2.13.27-4.58.49-7.26.64a4.29,4.29,0,0,0-6.63.22l-2.08,0c-13.53,0-24.5-1.62-24.5-3.61a.65.65,0,0,1,.12-.36c.43-.64,2-1.23,4.45-1.73l.9-.06s0-.07,0-.11c1.84-.34,4.1-.62,6.63-.84.2-.24.4-.49.59-.74-2.64.21-5.12.47-7.37.8a1.38,1.38,0,0,0-.08-.29,3.86,3.86,0,0,0-7.44,1.8,23,23,0,0,0-3.26,1.17,5.76,5.76,0,0,0-2.07,1.45,1.82,1.82,0,0,0-.52-.08,2,2,0,0,0-1.74,1A3.12,3.12,0,0,0,9.46,21a2.71,2.71,0,0,0,0,.4,2.26,2.26,0,0,0,.32,4.41.71.71,0,0,0,.2,0H33.77l.07,0h0a148.6,148.6,0,0,0,16,.83,147.59,147.59,0,0,0,16.29-.86h0a.65.65,0,0,0,.2,0H90.18l.07,0a2.27,2.27,0,0,0-.07-4.54Zm-20-5.94.2,0h.06Z"/></svg>