<svg id="Layer_1" data-name="Layer 1" xmlns="http://www.w3.org/2000/svg" viewBox="0 0 100 100"><defs><style>.cls-1{fill:#bcd2de;}.cls-2{fill:#fff;}</style></defs><title>glacier</title><path class="cls-1" d="M20.85,37.64C8.63,57.44.69,83,.69,87.23.69,94.28,22.76,100,50,100s49.31-5.72,49.31-12.77c0-4.25-8-30.07-20.37-49.91Z"/><circle class="cls-2" cx="22.88" cy="59.39" r="1.39"/><circle class="cls-2" cx="27.85" cy="67.58" r="1.39"/><circle class="cls-2" cx="50.21" cy="67.58" r="1.39"/><circle class="cls-2" cx="72.56" cy="67.58" r="1.39"/><circle class="cls-2" cx="33.78" cy="59.39" r="1.39"/><circle class="cls-2" cx="44.69" cy="59.39" r="1.39"/><circle class="cls-2" cx="55.59" cy="59.39" r="1.39"/><circle class="cls-2" cx="66.49" cy="59.39" r="1.39"/><circle class="cls-2" cx="77.4" cy="59.39" r="1.39"/><path class="cls-2" d="M72.74,55.29s7.58-9.43,7.58-13.61a7.61,7.61,0,0,0-1.38-4.36h0C70.81,24.24,50,0,50,0S29.26,24.14,21,37.41a1.4,1.4,0,0,0-.1.16l0,.07h0a7.53,7.53,0,0,0-1.18,4c0,4.18,7.58,13.61,7.58,13.61s7.57-9.41,7.58-13.6h0c0,4.19,7.58,13.6,7.58,13.6S50,45.88,50,41.69h0c0,4.19,7.58,13.6,7.58,13.6s7.57-9.41,7.58-13.6h0C65.17,45.88,72.74,55.29,72.74,55.29Z"/></svg>