<svg id="Layer_1" data-name="Layer 1" xmlns="http://www.w3.org/2000/svg" viewBox="0 0 100 100"><defs><style>.cls-1{fill:#007359;}.cls-2{fill:#b6a574;}.cls-3{fill:#994d1f;}.cls-4{fill:#844115;}.cls-5{fill:#fac6b9;}.cls-6{fill:#fff;}</style></defs><title>alcohol</title><rect class="cls-1" x="31" y="30.91" width="38" height="69.09" rx="8.81" ry="8.81"/><rect class="cls-1" x="42.46" y="4.49" width="14.93" height="42.07" rx="3.74" ry="3.74"/><path class="cls-2" d="M55.18,6.6c0,1.61-2.4,2.92-5.37,2.92S44.44,8.21,44.44,6.6c0-7.73,2.4-6.51,5.37-6.51S55.18-1.26,55.18,6.6Z"/><path class="cls-3" d="M36.19,45.06V83.47A12.65,12.65,0,0,0,48.8,96.08h2A12.65,12.65,0,0,0,63.43,83.47V45.06Z"/><ellipse class="cls-4" cx="49.81" cy="45.2" rx="13.62" ry="4.53"/><path class="cls-5" d="M69,75.6V53.7a41.8,41.8,0,0,1-38,0V75.6A62.11,62.11,0,0,0,69,75.6Z"/><rect class="cls-6" x="37.79" y="60.26" width="13.86" height="1.93" rx="0.88" ry="0.88"/><rect class="cls-6" x="37.79" y="65.18" width="13.86" height="1.93" rx="0.88" ry="0.88"/><rect class="cls-6" x="37.79" y="70.09" width="14.05" height="3.58" rx="1.21" ry="1.21"/><path class="cls-6" d="M63.92,60.73a5,5,0,1,1-10.07,0"/><path class="cls-6" d="M55.74,73.23c0-.73,1.4-1.32,3.14-1.32S62,72.5,62,73.23"/><rect class="cls-6" x="58.18" y="63.79" width="1.27" height="8.99" rx="0.32" ry="0.32"/></svg>