<svg id="Layer_1" data-name="Layer 1" xmlns="http://www.w3.org/2000/svg" viewBox="0 0 100 100"><defs><style>.cls-1{fill:#895e59;}.cls-2{fill:#9dc8dc;}.cls-3{fill:#f37d3b;}.cls-4{fill:#fff;}.cls-5{fill:#fcca98;}.cls-6{fill:#aa5726;}.cls-7{fill:#dcb287;}.cls-8{fill:#6ab8d9;}.cls-9{fill:#5798b4;}.cls-10{fill:#b3b3b3;}.cls-11{fill:#8a8a8a;}.cls-12{fill:#09a582;}.cls-13{fill:#ffc640;}.cls-14{fill:#58595b;}.cls-15{fill:#7d7d7d;}</style></defs><title>hacker</title><rect class="cls-1" x="39.3" y="6.53" width="2.76" height="4.95" rx="0.62" ry="0.62"/><rect class="cls-1" x="3.02" y="6.53" width="2.76" height="4.95" rx="0.62" ry="0.62"/><path class="cls-2" d="M11.5,31.46a8.19,8.19,0,0,1-8.18-8.18V18.45A1.07,1.07,0,0,1,4.4,17.38H18.6a1.07,1.07,0,0,1,1.07,1.07v4.83A8.18,8.18,0,0,1,11.5,31.46Z"/><path class="cls-3" d="M18.6,18.45v4.83a7.1,7.1,0,0,1-14.2,0V18.45H18.6m0-2.15H4.4a2.15,2.15,0,0,0-2.15,2.15v4.83a9.25,9.25,0,0,0,18.5,0V18.45A2.15,2.15,0,0,0,18.6,16.3Z"/><path class="cls-2" d="M33.81,31.46a8.19,8.19,0,0,1-8.17-8.18V18.45a1.07,1.07,0,0,1,1.07-1.07h14.2A1.07,1.07,0,0,1,42,18.45v4.83A8.19,8.19,0,0,1,33.81,31.46Z"/><path class="cls-3" d="M40.91,18.45v4.83a7.1,7.1,0,1,1-14.2,0V18.45h14.2m0-2.15H26.71a2.14,2.14,0,0,0-2.14,2.15v4.83a9.25,9.25,0,1,0,18.49,0V18.45a2.15,2.15,0,0,0-2.15-2.15Z"/><rect class="cls-3" x="19.44" y="19.89" width="6.75" height="1.86" rx="0.42" ry="0.42"/><rect class="cls-3" x="2.22" y="5.33" width="1.57" height="14.56" rx="0.35" ry="0.35"/><rect class="cls-3" x="41.45" y="5.33" width="1.57" height="14.56" rx="0.35" ry="0.35"/><path class="cls-4" d="M9.11,19.37a4.2,4.2,0,0,1-1.06,2.41,4.22,4.22,0,0,1-2.42,1.06A4.25,4.25,0,0,1,6.7,20.43,4.2,4.2,0,0,1,9.11,19.37Z"/><path class="cls-4" d="M11.19,21.45a4.2,4.2,0,0,1-1.06,2.41,4.22,4.22,0,0,1-2.42,1.06,4.25,4.25,0,0,1,1.07-2.41A4.2,4.2,0,0,1,11.19,21.45Z"/><path class="cls-4" d="M31.15,19.37a4.25,4.25,0,0,1-1.07,2.41,4.2,4.2,0,0,1-2.41,1.06,4.2,4.2,0,0,1,1.06-2.41A4.22,4.22,0,0,1,31.15,19.37Z"/><path class="cls-4" d="M33.23,21.45a4.25,4.25,0,0,1-1.07,2.41,4.2,4.2,0,0,1-2.41,1.06,4.2,4.2,0,0,1,1.06-2.41A4.22,4.22,0,0,1,33.23,21.45Z"/><rect class="cls-5" x="54.24" y="84.9" width="26.64" height="7.51"/><path class="cls-3" d="M80.26,94.67H57.77a5.95,5.95,0,1,1,0-11.89H80.26a1.64,1.64,0,0,1,0,3.28H57.77a2.67,2.67,0,1,0,0,5.33H80.26a1.64,1.64,0,1,1,0,3.28Z"/><path class="cls-3" d="M57.77,86.06H80.26a1.64,1.64,0,0,0,0-3.28H57.77a5.94,5.94,0,0,0-1.48.21v3.52A2.59,2.59,0,0,1,57.77,86.06Z"/><path class="cls-3" d="M80.26,91.39H57.77a2.67,2.67,0,0,1-1.48-.45v3.52a5.94,5.94,0,0,0,1.48.21H80.26a1.64,1.64,0,1,0,0-3.28Z"/><path class="cls-6" d="M55.1,88.72a2.65,2.65,0,0,1,1.19-2.21V83a5.91,5.91,0,0,0,0,11.47V90.94A2.65,2.65,0,0,1,55.1,88.72Z"/><path class="cls-7" d="M57.78,87a.29.29,0,0,0-.28.28.28.28,0,0,0,.28.28h23.1V87Z"/><path class="cls-7" d="M57.78,88.38a.28.28,0,0,0-.28.28.29.29,0,0,0,.28.28h23.1v-.56Z"/><path class="cls-7" d="M57.78,89.79a.28.28,0,0,0-.28.28.29.29,0,0,0,.28.28h23.1v-.56Z"/><rect class="cls-5" x="43.49" y="73.22" width="26.64" height="7.51" transform="translate(113.61 153.96) rotate(-180)"/><path class="cls-3" d="M66.6,83H44.1a1.64,1.64,0,1,1,0-3.28H66.6a2.67,2.67,0,0,0,0-5.33H44.1a1.64,1.64,0,0,1,0-3.28H66.6A5.95,5.95,0,0,1,66.6,83Z"/><path class="cls-3" d="M66.6,74.38H44.1a1.64,1.64,0,0,1,0-3.28H66.6a5.93,5.93,0,0,1,1.47.21v3.52A2.66,2.66,0,0,0,66.6,74.38Z"/><path class="cls-3" d="M44.1,79.71H66.6a2.66,2.66,0,0,0,1.47-.45v3.52A5.93,5.93,0,0,1,66.6,83H44.1a1.64,1.64,0,1,1,0-3.28Z"/><path class="cls-6" d="M69.26,77a2.65,2.65,0,0,0-1.19-2.21V71.31a5.91,5.91,0,0,1,0,11.47V79.26A2.65,2.65,0,0,0,69.26,77Z"/><path class="cls-7" d="M66.58,75.29a.28.28,0,0,1,.28.28.27.27,0,0,1-.28.28H43.49v-.56Z"/><path class="cls-7" d="M66.58,76.7a.28.28,0,0,1,.28.28.27.27,0,0,1-.28.28H43.49V76.7Z"/><path class="cls-7" d="M66.58,78.11a.27.27,0,0,1,.28.28.28.28,0,0,1-.28.28H43.49v-.56Z"/><rect class="cls-5" x="72.22" y="75" width="26.64" height="7.51" transform="translate(90.34 194.92) rotate(-135)"/><path class="cls-3" d="M92.42,91.66a5.93,5.93,0,0,1-4.21-1.74L72.31,74a1.64,1.64,0,0,1,2.32-2.32l15.9,15.9a2.67,2.67,0,0,0,4.55-1.88,2.61,2.61,0,0,0-.78-1.88L78.39,67.93a1.64,1.64,0,0,1,2.32-2.32L96.62,81.52a5.94,5.94,0,0,1-4.2,10.14Z"/><path class="cls-8" d="M94.3,83.84,78.4,67.93a1.64,1.64,0,0,1,2.31-2.32L96.62,81.52a6,6,0,0,1,.9,1.19L95,85.2A2.6,2.6,0,0,0,94.3,83.84Z"/><path class="cls-8" d="M74.63,71.7l15.9,15.9a2.67,2.67,0,0,0,1.37.73l-2.49,2.49a5.71,5.71,0,0,1-1.2-.9L72.31,74a1.64,1.64,0,0,1,2.32-2.32Z"/><path class="cls-9" d="M94.3,87.6A2.65,2.65,0,0,0,95,85.2l2.49-2.49a5.92,5.92,0,0,1-8.11,8.11l2.49-2.49A2.63,2.63,0,0,0,94.3,87.6Z"/><path class="cls-7" d="M93.65,84.47a.28.28,0,0,1-.4.4L76.92,68.54l.4-.4Z"/><path class="cls-7" d="M92.65,85.47a.27.27,0,0,1,0,.39.28.28,0,0,1-.4,0L75.92,69.53l.4-.4Z"/><path class="cls-7" d="M91.65,86.46a.28.28,0,0,1,0,.4.27.27,0,0,1-.39,0L74.93,70.53l.39-.4Z"/><rect class="cls-10" x="55.21" y="6.62" width="42.51" height="32.51" rx="3.86" ry="3.86"/><rect class="cls-11" x="55.21" y="34.23" width="42.51" height="13.07" rx="2.44" ry="2.44"/><rect class="cls-10" x="55.21" y="31.83" width="42.51" height="13.07" rx="2.44" ry="2.44"/><rect class="cls-12" x="59.09" y="10.73" width="34.74" height="21.52" rx="1.9" ry="1.9"/><rect class="cls-13" x="61.23" y="13.02" width="2.61" height="4.72" rx="0.59" ry="0.59"/><rect class="cls-14" x="58.12" y="34.8" width="36.48" height="8.13" rx="1.83" ry="1.83"/><rect class="cls-3" x="60.3" y="35.72" width="4.45" height="2.65" rx="0.32" ry="0.32"/><rect class="cls-10" x="65.7" y="35.72" width="4.45" height="2.65" rx="0.32" ry="0.32"/><rect class="cls-10" x="71.1" y="35.72" width="4.45" height="2.65" rx="0.32" ry="0.32"/><rect class="cls-10" x="76.5" y="35.72" width="4.45" height="2.65" rx="0.32" ry="0.32"/><rect class="cls-10" x="81.89" y="35.72" width="4.45" height="2.65" rx="0.32" ry="0.32"/><rect class="cls-10" x="87.29" y="35.72" width="4.45" height="2.65" rx="0.32" ry="0.32"/><rect class="cls-10" x="60.3" y="39.44" width="4.45" height="2.65" rx="0.32" ry="0.32"/><rect class="cls-10" x="65.7" y="39.44" width="4.45" height="2.65" rx="0.32" ry="0.32"/><rect class="cls-10" x="71.1" y="39.44" width="4.45" height="2.65" rx="0.32" ry="0.32"/><rect class="cls-10" x="76.5" y="39.44" width="4.45" height="2.65" rx="0.32" ry="0.32"/><rect class="cls-10" x="81.89" y="39.44" width="4.45" height="2.65" rx="0.32" ry="0.32"/><rect class="cls-10" x="87.29" y="39.44" width="4.45" height="2.65" rx="0.32" ry="0.32"/><path class="cls-15" d="M49.64,59.57l-1.56-5.43L42,60.42,37.52,59.3l-1.25-4.43,6.07-6.26-5.5-1.36-7.12,7.39L31,59.21a4,4,0,0,0-.31.27L14,76.24,8.76,75,1.64,82.34l1.57,5.43L9.3,81.49l4.46,1.12L15,87,8.94,93.31l5.51,1.36,7.12-7.4-1.4-4.83L36.93,65.68,37,65.6,42.53,67ZM19.25,79.24a1.58,1.58,0,0,1-.95.33A1.56,1.56,0,0,1,17.11,77a1.53,1.53,0,0,1,1.19-.57A1.56,1.56,0,0,1,19.86,78,1.54,1.54,0,0,1,19.25,79.24Z"/><rect class="cls-10" x="17.81" y="68.49" width="17.49" height="2.71" rx="1.31" ry="1.31" transform="translate(-41.61 39.23) rotate(-45)"/></svg>