<svg id="Layer_1" data-name="Layer 1" xmlns="http://www.w3.org/2000/svg" viewBox="0 0 100 100"><defs><style>.cls-1{fill:#553734;}.cls-2{fill:#5f3f3b;}.cls-3{fill:#3e3e3f;}.cls-4{fill:#6d4945;}</style></defs><title>cart</title><path class="cls-1" d="M70.18,42.53H0V53.45A10.62,10.62,0,0,0,10,64c.23,0,.44.07.67.07H73.45A10.65,10.65,0,0,0,84.07,53.45V42.53Z"/><path class="cls-2" d="M58.07,42.53H40.23V58a10.21,10.21,0,0,0-1.43-4.81,9.21,9.21,0,0,0,0,9.92,10.21,10.21,0,0,0,1.43-4.81v5.79h30V42.53Z"/><rect class="cls-3" x="86.85" y="24.81" width="2.62" height="21.31" rx="0.65" ry="0.65" transform="translate(50.9 -51.95) rotate(45)"/><rect class="cls-1" x="90.54" y="26.07" width="9.74" height="4.55" rx="1.13" ry="1.13" transform="translate(47.99 -59.17) rotate(45)"/><path class="cls-2" d="M10,42.53V64c.23,0,.44.07.67.07H26.44V42.53Z"/><path class="cls-4" d="M73.45,36.5H10.62C4.78,36.5,0,39.59,0,43.38v.09c0,3.79,4.78,6.88,10.62,6.88H73.45c5.84,0,10.62-3.09,10.62-6.88v-.09C84.07,39.59,79.29,36.5,73.45,36.5Z"/><rect class="cls-2" x="4.73" y="39.52" width="75.27" height="6.31" rx="1.56" ry="1.56"/><circle class="cls-1" cx="26.44" cy="57.41" r="2.88"/><circle class="cls-1" cx="68.58" cy="57.5" r="4.45"/><circle class="cls-1" cx="40.46" cy="55.24" r="1.67"/><path class="cls-2" d="M72.63,55.81a14.69,14.69,0,0,1-.72,4.48,14.27,14.27,0,0,1,0-8.95A14.66,14.66,0,0,1,72.63,55.81Z"/><path class="cls-2" d="M31.42,57.5a10.08,10.08,0,0,1-1.45,5,9.21,9.21,0,0,1,0-9.92A10.08,10.08,0,0,1,31.42,57.5Z"/><path class="cls-4" d="M46.16,58.13a34.85,34.85,0,0,1-.39,5.18,35.5,35.5,0,0,1,0-10.36A34.85,34.85,0,0,1,46.16,58.13Z"/><path class="cls-4" d="M48.34,56.3A35.74,35.74,0,0,1,48,61.48a34.6,34.6,0,0,1,0-10.36A35.74,35.74,0,0,1,48.34,56.3Z"/><path class="cls-2" d="M7.76,56.88a8.66,8.66,0,0,1-2,5.09,8.68,8.68,0,0,1-2-5.09,8.67,8.67,0,0,1,2-5.08A8.65,8.65,0,0,1,7.76,56.88Z"/><path class="cls-2" d="M67.7,58.13a16.82,16.82,0,0,1-.77,5,16.36,16.36,0,0,1,0-9.92A16.82,16.82,0,0,1,67.7,58.13Z"/><rect class="cls-4" x="17.43" y="54.71" width="1.63" height="19.2"/><rect class="cls-4" x="17.43" y="54.71" width="1.63" height="19.2" transform="translate(82.55 46.06) rotate(90)"/><rect class="cls-4" x="17.43" y="54.71" width="1.63" height="19.2" transform="translate(50.81 5.93) rotate(45)"/><rect class="cls-4" x="17.43" y="54.71" width="1.63" height="19.2" transform="translate(76.62 96.87) rotate(135)"/><path class="cls-4" d="M18.25,75.63A11.14,11.14,0,1,1,29.39,64.5,11.15,11.15,0,0,1,18.25,75.63Zm0-20.15a9,9,0,1,0,9,9A9,9,0,0,0,18.25,55.48Z"/><rect class="cls-4" x="16.51" y="52.76" width="3.44" height="1.65" rx="0.41" ry="0.41"/><rect class="cls-4" x="16.51" y="74.59" width="3.44" height="1.65" rx="0.41" ry="0.41"/><rect class="cls-4" x="27.42" y="63.68" width="3.44" height="1.65" rx="0.41" ry="0.41" transform="translate(93.65 35.36) rotate(90)"/><rect class="cls-4" x="5.6" y="63.68" width="3.44" height="1.65" rx="0.41" ry="0.41" transform="translate(71.82 57.19) rotate(90)"/><rect class="cls-4" x="24.23" y="55.96" width="3.44" height="1.65" rx="0.41" ry="0.41" transform="translate(47.75 -1.72) rotate(45)"/><rect class="cls-4" x="8.79" y="71.39" width="3.44" height="1.65" rx="0.41" ry="0.41" transform="translate(54.15 13.72) rotate(45)"/><rect class="cls-4" x="24.23" y="71.39" width="3.44" height="1.65" rx="0.41" ry="0.41" transform="translate(95.36 104.94) rotate(135)"/><rect class="cls-4" x="8.79" y="55.96" width="3.44" height="1.65" rx="0.41" ry="0.41" transform="translate(58.1 89.51) rotate(135)"/><rect class="cls-4" x="20.77" y="53.63" width="3.44" height="1.65" rx="0.41" ry="0.41" transform="translate(23.05 -4.46) rotate(22.98)"/><rect class="cls-4" x="12.25" y="73.72" width="3.44" height="1.65" rx="0.41" ry="0.41" transform="translate(30.22 0.46) rotate(22.98)"/><rect class="cls-4" x="26.56" y="67.94" width="3.44" height="1.65" rx="0.41" ry="0.41" transform="translate(102.63 69.58) rotate(112.98)"/><rect class="cls-4" x="6.46" y="59.42" width="3.44" height="1.65" rx="0.41" ry="0.41" transform="translate(66.84 76.23) rotate(112.98)"/><rect class="cls-4" x="26.74" y="59.87" width="3.44" height="1.65" rx="0.41" ry="0.41" transform="translate(75.44 12.87) rotate(69.6)"/><rect class="cls-4" x="6.28" y="67.48" width="3.44" height="1.65" rx="0.41" ry="0.41" transform="translate(69.24 37) rotate(69.6)"/><rect class="cls-4" x="20.31" y="73.91" width="3.44" height="1.65" rx="0.41" ry="0.41" transform="translate(68.73 137.1) rotate(159.6)"/><rect class="cls-4" x="12.71" y="53.45" width="3.44" height="1.65" rx="0.41" ry="0.41" transform="translate(46.87 100.12) rotate(159.6)"/><circle class="cls-4" cx="18.25" cy="64.3" r="2.59"/><circle class="cls-3" cx="18.32" cy="64.3" r="1.25"/><rect class="cls-4" x="65.34" y="54.71" width="1.63" height="19.2"/><rect class="cls-4" x="65.34" y="54.71" width="1.63" height="19.2" transform="translate(130.46 -1.86) rotate(90)"/><rect class="cls-4" x="65.34" y="54.71" width="1.63" height="19.2" transform="translate(64.85 -27.95) rotate(45)"/><rect class="cls-4" x="65.34" y="54.71" width="1.63" height="19.2" transform="translate(158.41 62.99) rotate(135)"/><path class="cls-4" d="M66.16,75.63A11.14,11.14,0,1,1,77.3,64.5,11.15,11.15,0,0,1,66.16,75.63Zm0-20.15a9,9,0,1,0,9,9A9,9,0,0,0,66.16,55.48Z"/><rect class="cls-4" x="64.42" y="52.76" width="3.44" height="1.65" rx="0.41" ry="0.41"/><rect class="cls-4" x="64.42" y="74.59" width="3.44" height="1.65" rx="0.41" ry="0.41"/><rect class="cls-4" x="75.33" y="63.68" width="3.44" height="1.65" rx="0.41" ry="0.41" transform="translate(141.56 -12.55) rotate(90)"/><rect class="cls-4" x="53.51" y="63.68" width="3.44" height="1.65" rx="0.41" ry="0.41" transform="translate(119.73 9.28) rotate(90)"/><rect class="cls-4" x="72.14" y="55.96" width="3.44" height="1.65" rx="0.41" ry="0.41" transform="translate(61.79 -35.59) rotate(45)"/><rect class="cls-4" x="56.7" y="71.39" width="3.44" height="1.65" rx="0.41" ry="0.41" transform="translate(68.18 -20.16) rotate(45)"/><rect class="cls-4" x="72.14" y="71.39" width="3.44" height="1.65" rx="0.41" ry="0.41" transform="translate(177.15 71.06) rotate(135)"/><rect class="cls-4" x="56.7" y="55.96" width="3.44" height="1.65" rx="0.41" ry="0.41" transform="translate(139.89 55.63) rotate(135)"/><rect class="cls-4" x="68.68" y="53.63" width="3.44" height="1.65" rx="0.41" ry="0.41" transform="translate(26.85 -23.17) rotate(22.98)"/><rect class="cls-4" x="60.16" y="73.72" width="3.44" height="1.65" rx="0.41" ry="0.41" transform="translate(34.02 -18.24) rotate(22.98)"/><rect class="cls-4" x="74.47" y="67.94" width="3.44" height="1.65" rx="0.41" ry="0.41" transform="translate(169.24 25.47) rotate(112.98)"/><rect class="cls-4" x="54.37" y="59.42" width="3.44" height="1.65" rx="0.41" ry="0.41" transform="translate(133.46 32.12) rotate(112.98)"/><rect class="cls-4" x="74.65" y="59.87" width="3.44" height="1.65" rx="0.41" ry="0.41" transform="translate(106.65 -32.04) rotate(69.6)"/><rect class="cls-4" x="54.19" y="67.48" width="3.44" height="1.65" rx="0.41" ry="0.41" transform="translate(100.45 -7.91) rotate(69.6)"/><rect class="cls-4" x="68.22" y="73.91" width="3.44" height="1.65" rx="0.41" ry="0.41" transform="translate(161.55 120.4) rotate(159.6)"/><rect class="cls-4" x="60.62" y="53.45" width="3.44" height="1.65" rx="0.41" ry="0.41" transform="translate(139.68 83.42) rotate(159.6)"/><circle class="cls-4" cx="66.16" cy="64.3" r="2.59"/><circle class="cls-3" cx="66.23" cy="64.3" r="1.25"/></svg>