<svg id="Layer_1" data-name="Layer 1" xmlns="http://www.w3.org/2000/svg" viewBox="0 0 100 100"><defs><style>.cls-1{fill:#979797;}.cls-2{fill:#9dc7db;}.cls-3{fill:#fff;}.cls-4{fill:#e8e8e8;}.cls-5{fill:#ffc640;}.cls-6{fill:#6ab8d9;}.cls-7{fill:#171717;}.cls-8{fill:#c2c2c2;}.cls-9{fill:#9c9c9c;}.cls-10{fill:#696969;}</style></defs><title>doctor</title><path class="cls-1" d="M95.24,8.71H92.93l-.18,2.4h1.87L93,27.13a10,10,0,0,1-5.32,2.06,10.11,10.11,0,0,1-6.81-2.06l-1.63-16H81.1l-.18-2.4H78.63a1.8,1.8,0,0,0-1.84,2L79,28.06a1.66,1.66,0,0,0,1.72,1.2,10.46,10.46,0,0,0,6.82,2.12,10.3,10.3,0,0,0,5.6-2.12,2,2,0,0,0,1.16-.35,1.27,1.27,0,0,0,.57-.85l2.21-17.3A1.8,1.8,0,0,0,95.24,8.71Z"/><path class="cls-2" d="M93.46,19.41,92.14,34.62a11.6,11.6,0,0,1-5,1.26,11.74,11.74,0,0,1-5.49-1.26q-.5-7.68-1-15.35l-3.18.08,1.37,16.51c.08.67,5,3.39,8.47,3.27a17.47,17.47,0,0,0,7.14-2.42,1.26,1.26,0,0,0,.58-.85l1.38-16.41Z"/><rect class="cls-2" x="80.3" y="8.03" width="2.74" height="3.62" rx="0.52" ry="0.52"/><rect class="cls-2" x="90.74" y="8.03" width="2.74" height="3.62" rx="0.52" ry="0.52"/><path class="cls-2" d="M79.05,51.29a6.89,6.89,0,0,1-3.14-.71C70.89,48,71.35,39.75,71.84,31a76.27,76.27,0,0,0,.07-12.16c-.43-3.67-1.51-6-3.31-7a5.72,5.72,0,0,0-4.82-.35,6.2,6.2,0,0,0-3.07,3.73,18,18,0,0,0-.88,7.48l-2.78.19C56.58,16,58.74,10.62,62.68,8.93A8.4,8.4,0,0,1,70,9.42c5.66,3.3,5.13,12.68,4.62,21.74-.42,7.47-.85,15.19,2.56,16.94a5.59,5.59,0,0,0,4.62-.22c4.41-2.18,4-10.45,4-10.53l2.78-.16a23.39,23.39,0,0,1-.47,5.51c-.8,3.78-2.56,6.43-5.09,7.67A9.26,9.26,0,0,1,79.05,51.29Z"/><circle class="cls-1" cx="58.16" cy="22.36" r="3.84"/><circle class="cls-2" cx="58.16" cy="22.36" r="2.69"/><rect class="cls-3" x="13.73" y="9.5" width="24.74" height="4.45"/><path class="cls-3" d="M0,29.16V62.45a25.89,25.89,0,0,0,14.24,23V13.33C5.82,14.93,0,19.12,0,29.16Z"/><path class="cls-3" d="M37.37,13.32v72.2a25.89,25.89,0,0,0,14.3-23.07V29.16C51.67,19.09,45.82,14.91,37.37,13.32Z"/><path class="cls-4" d="M25.83,12.44a67.56,67.56,0,0,0-11.59.83V80.35a27.16,27.16,0,0,0,23.13,0V13.26A68,68,0,0,0,25.83,12.44Z"/><polygon class="cls-3" points="13.73 9.5 7.62 12.06 14.23 25.29 18.8 23.4 13.73 9.5"/><polygon class="cls-3" points="38.4 9.5 44.52 12.06 37.9 25.29 33.34 23.4 38.4 9.5"/><rect class="cls-5" x="40.78" y="27.65" width="3.71" height="9.47" rx="0.86" ry="0.86"/><rect class="cls-6" x="35.56" y="33.81" width="14.15" height="9.92" rx="0.71" ry="0.71"/><rect class="cls-3" x="40.24" y="35.44" width="8.77" height="1.19" rx="0.28" ry="0.28"/><rect class="cls-3" x="40.24" y="38.45" width="8.77" height="1.19" rx="0.28" ry="0.28"/><rect class="cls-3" x="40.24" y="41.46" width="8.77" height="1.19" rx="0.28" ry="0.28"/><rect class="cls-3" x="36.35" y="35.12" width="3.17" height="7.12" rx="0.74" ry="0.74"/><circle class="cls-7" cx="42.58" cy="29" r="0.76"/><circle class="cls-8" cx="39.77" cy="47.65" r="1.29"/><circle class="cls-8" cx="39.77" cy="56.45" r="1.29"/><circle class="cls-8" cx="39.77" cy="65.25" r="1.29"/><path class="cls-9" d="M94.42,63.07,66.54,91a3.49,3.49,0,0,1-4.92,0h0a3.49,3.49,0,0,1,0-4.93L94.77,52.88c1.35-1.35-.93,3.15.42,4.5L96.58,56C97.93,57.35,95.78,61.72,94.42,63.07Z"/><polyline class="cls-9" points="86.01 61.64 100 47.65 96.39 61.11 90.93 66.56"/><rect class="cls-10" x="60.1" y="80.5" width="19.99" height="3.96" rx="0.92" ry="0.92" transform="translate(-37.79 73.72) rotate(-45)"/><rect class="cls-9" x="63.9" y="86.4" width="1.06" height="3.13" rx="0.25" ry="0.25"/><rect class="cls-9" x="65.77" y="84.53" width="1.06" height="3.13" rx="0.25" ry="0.25"/><rect class="cls-9" x="67.64" y="82.66" width="1.06" height="3.13" rx="0.25" ry="0.25"/><rect class="cls-9" x="69.5" y="80.79" width="1.06" height="3.13" rx="0.25" ry="0.25"/><rect class="cls-9" x="71.37" y="78.93" width="1.06" height="3.13" rx="0.25" ry="0.25"/><rect class="cls-9" x="73.24" y="77.06" width="1.06" height="3.13" rx="0.25" ry="0.25"/><rect class="cls-9" x="75.11" y="75.19" width="1.06" height="3.13" rx="0.25" ry="0.25"/></svg>