<svg id="Layer_1" data-name="Layer 1" xmlns="http://www.w3.org/2000/svg" viewBox="0 0 100 100"><defs><style>.cls-1{fill:#cfcfcf;}.cls-2{fill:#8a8c8f;}.cls-3{fill:#d3d4d6;}.cls-4{fill:#b2b4b7;}.cls-5{fill:#96999b;}.cls-6{fill:#90807d;}.cls-7{fill:#3e3e3f;}</style></defs><title>newspaper</title><path class="cls-1" d="M100,71.76V17.24H18.87L12.51,84.53H87.44A12.8,12.8,0,0,0,100,71.76Z"/><rect class="cls-2" x="9.02" y="18.14" width="12.03" height="58.8"/><path class="cls-3" d="M12.78,84.54A12.79,12.79,0,0,1,0,71.76V17.24H3.61V71.76a9.17,9.17,0,0,0,18.34,0V17.24h3.61V71.76A12.79,12.79,0,0,1,12.78,84.54Z"/><path class="cls-4" d="M12.78,82.08a10,10,0,0,1-10-10V17.24H7.57V72.05a5.21,5.21,0,1,0,10.42,0V17.24h4.82V72.05A10,10,0,0,1,12.78,82.08Z"/><path class="cls-5" d="M12.78,77.63a7.07,7.07,0,0,1-7.06-7.06V18.84H9.11V70.57a3.67,3.67,0,0,0,7.34,0V15.46h3.39V70.57A7.07,7.07,0,0,1,12.78,77.63Z"/><rect class="cls-6" x="29.47" y="26.31" width="30.48" height="25.86"/><rect class="cls-7" x="64.56" y="26.31" width="29.87" height="6.01" rx="1.45" ry="1.45"/><rect class="cls-7" x="64.56" y="34.23" width="29.87" height="3.01" rx="0.72" ry="0.72"/><rect class="cls-7" x="64.56" y="39.79" width="29.87" height="3.01" rx="0.72" ry="0.72"/><rect class="cls-7" x="30.07" y="60.85" width="44.01" height="2.16" rx="0.52" ry="0.52"/><rect class="cls-7" x="30.07" y="68.37" width="44.01" height="2.16" rx="0.52" ry="0.52"/><rect class="cls-7" x="30.07" y="75.88" width="44.01" height="2.16" rx="0.52" ry="0.52"/><rect class="cls-7" x="64.56" y="45.36" width="29.87" height="3.01" rx="0.72" ry="0.72"/><rect class="cls-5" x="28.35" y="54.93" width="66.09" height="1.05" rx="0.25" ry="0.25"/></svg>