<svg id="Layer_1" data-name="Layer 1" xmlns="http://www.w3.org/2000/svg" viewBox="0 0 100 100"><defs><style>.cls-1{fill:#bcd2de;}.cls-2{fill:#fff;}.cls-3{fill:#a8bcc8;}.cls-4{fill:#e6e7e8;}.cls-5{fill:#7d7d7d;}.cls-6{fill:#8c8c8c;}.cls-7{fill:#4f4f4f;}</style></defs><title>salt</title><path class="cls-1" d="M76.14,32.66a19,19,0,0,0-19-18.95H42.81a19,19,0,0,0-19,18.95v3.26H76.14Z"/><path class="cls-2" d="M23.86,35.92V81.05a19,19,0,0,0,19,19H57.19a19,19,0,0,0,19-19V35.92Z"/><rect class="cls-3" x="32" y="28.03" width="3.97" height="53.16" rx="0.98" ry="0.98"/><rect class="cls-3" x="42.82" y="28.03" width="3.97" height="53.16" rx="0.98" ry="0.98"/><rect class="cls-3" x="53.63" y="28.03" width="3.97" height="53.16" rx="0.98" ry="0.98"/><rect class="cls-3" x="64.45" y="28.03" width="3.97" height="53.16" rx="0.98" ry="0.98"/><path class="cls-4" d="M34,81.18h0a2,2,0,0,0,2-2V35.92H32V79.2A2,2,0,0,0,34,81.18Z"/><path class="cls-4" d="M44.8,81.18a2,2,0,0,0,2-2V35.92h-4V79.2A2,2,0,0,0,44.8,81.18Z"/><path class="cls-4" d="M55.62,81.18a2,2,0,0,0,2-2V35.92h-4V79.2A2,2,0,0,0,55.62,81.18Z"/><path class="cls-4" d="M66.43,81.18a2,2,0,0,0,2-2V35.92h-4V79.2A2,2,0,0,0,66.43,81.18Z"/><path class="cls-5" d="M56.64,20.82H43.36c-8.33,0-15.15,9-15.15.62h0A15.19,15.19,0,0,1,43.36,6.3H56.64A15.19,15.19,0,0,1,71.79,21.44h0C71.79,29.78,65,20.82,56.64,20.82Z"/><rect class="cls-5" x="30.98" y="2.43" width="37.44" height="9.53" rx="2.34" ry="2.34"/><ellipse class="cls-6" cx="49.7" cy="5.98" rx="18.57" ry="5.98"/><ellipse class="cls-7" cx="40.64" cy="2.76" rx="1.4" ry="0.39"/><ellipse class="cls-7" cx="40.64" cy="7.37" rx="1.4" ry="0.39"/><ellipse class="cls-7" cx="35.48" cy="4.77" rx="1.4" ry="0.39"/><ellipse class="cls-7" cx="58.21" cy="2.76" rx="1.4" ry="0.39"/><ellipse class="cls-7" cx="58.21" cy="7.37" rx="1.4" ry="0.39"/><ellipse class="cls-7" cx="63.61" cy="4.77" rx="1.4" ry="0.39"/><ellipse class="cls-7" cx="55.41" cy="4.77" rx="1.4" ry="0.39"/><ellipse class="cls-7" cx="49.7" cy="4.77" rx="1.4" ry="0.39"/><ellipse class="cls-7" cx="43.44" cy="4.77" rx="1.4" ry="0.39"/><ellipse class="cls-7" cx="46.64" cy="1.57" rx="1.4" ry="0.39"/><ellipse class="cls-7" cx="46.64" cy="8.52" rx="1.4" ry="0.39"/><ellipse class="cls-7" cx="52.79" cy="1.57" rx="1.4" ry="0.39"/><ellipse class="cls-7" cx="52.79" cy="8.52" rx="1.4" ry="0.39"/><rect class="cls-2" x="26.28" y="35.07" width="2.5" height="2.5" rx="0.61" ry="0.61"/><rect class="cls-2" x="37.92" y="34.77" width="2.41" height="2.41" rx="0.59" ry="0.59"/><rect class="cls-2" x="48.37" y="35.45" width="1.35" height="1.35" rx="0.33" ry="0.33"/><rect class="cls-2" x="47.23" y="35.07" width="2.12" height="2.12" rx="0.52" ry="0.52"/><rect class="cls-2" x="52.1" y="35.45" width="0.68" height="0.68" rx="0.17" ry="0.17"/><rect class="cls-2" x="58.24" y="35.07" width="2.12" height="2.12" rx="0.52" ry="0.52"/><rect class="cls-2" x="60.99" y="35.07" width="1.44" height="1.44" rx="0.35" ry="0.35"/><rect class="cls-2" x="48.71" y="35.07" width="1.63" height="1.63" rx="0.4" ry="0.4"/><rect class="cls-2" x="50.34" y="26.86" width="0.86" height="0.86" rx="0.21" ry="0.21"/><rect class="cls-2" x="61.37" y="29.82" width="1.06" height="1.06" rx="0.26" ry="0.26"/><rect class="cls-2" x="69.71" y="34.77" width="1.93" height="1.93" rx="0.47" ry="0.47"/><rect class="cls-2" x="68.42" y="35.07" width="1.74" height="1.74" rx="0.43" ry="0.43"/><rect class="cls-2" x="36.9" y="35.07" width="1.44" height="1.44" rx="0.35" ry="0.35"/><rect class="cls-2" x="27.76" y="33.04" width="0.64" height="0.64" rx="0.16" ry="0.16"/></svg>