<svg id="Layer_1" data-name="Layer 1" xmlns="http://www.w3.org/2000/svg" viewBox="0 0 100 100"><defs><style>.cls-1{fill:#964c1e;}.cls-2{fill:#fff;}.cls-3{fill:#f37d3b;}</style></defs><title>vampire</title><rect class="cls-1" x="6.83" y="28.83" width="85.73" height="20.63"/><rect class="cls-2" x="18" y="25.23" width="10.02" height="13.46" rx="2" ry="2"/><rect class="cls-2" x="27.49" y="25.23" width="10.02" height="13.46" rx="2" ry="2"/><rect class="cls-2" x="36.98" y="25.23" width="10.02" height="13.46" rx="2" ry="2"/><rect class="cls-2" x="46.48" y="25.23" width="10.02" height="13.46" rx="2" ry="2"/><rect class="cls-2" x="55.97" y="25.23" width="10.02" height="13.46" rx="2" ry="2"/><rect class="cls-2" x="65.47" y="25.23" width="10.02" height="13.46" rx="2" ry="2"/><rect class="cls-2" x="74.96" y="25.23" width="10.02" height="13.46" rx="2" ry="2"/><rect class="cls-2" x="18" y="41.04" width="10.02" height="13.46" rx="2" ry="2"/><rect class="cls-2" x="27.49" y="41.04" width="10.02" height="13.46" rx="2" ry="2"/><rect class="cls-2" x="36.98" y="41.04" width="10.02" height="13.46" rx="2" ry="2"/><rect class="cls-2" x="46.48" y="41.04" width="10.02" height="13.46" rx="2" ry="2"/><rect class="cls-2" x="55.97" y="41.04" width="10.02" height="13.46" rx="2" ry="2"/><rect class="cls-2" x="65.47" y="41.04" width="10.02" height="13.46" rx="2" ry="2"/><rect class="cls-2" x="74.96" y="41.04" width="10.02" height="13.46" rx="2" ry="2"/><rect class="cls-3" y="43.91" width="100" height="11.11" rx="2.22" ry="2.22"/><path class="cls-2" d="M20.92,34.71c0,4.69-8.5,38-8.5,38s-8.51-33.33-8.51-38a8.51,8.51,0,1,1,17,0Z"/><path class="cls-2" d="M95.41,34.71c0,4.69-8.5,38-8.5,38s-8.51-33.33-8.51-38a8.51,8.51,0,1,1,17,0Z"/><rect class="cls-3" y="21.77" width="100" height="11.11" rx="2.22" ry="2.22"/><path class="cls-3" d="M94,89.22a7.2,7.2,0,0,1-14.4,0c0-4,7.2-16.49,7.2-16.49S94,85.24,94,89.22Z"/><path class="cls-3" d="M10.56,22.94s24.73-2.71,29.89-6.51S50,22.94,50,22.94"/><path class="cls-3" d="M88.68,22.94S64,20.23,58.79,16.43s-9.55,6.51-9.55,6.51"/></svg>