<svg id="Layer_1" data-name="Layer 1" xmlns="http://www.w3.org/2000/svg" viewBox="0 0 100 100"><defs><style>.cls-1{fill:#895e59;}.cls-2{fill:#3e3e3f;}.cls-3{fill:#09a582;}.cls-4{fill:#fff;}</style></defs><title>sunglasses</title><rect class="cls-1" x="90.79" y="19.64" width="6.75" height="12.11" rx="1.53" ry="1.53"/><rect class="cls-1" x="1.95" y="19.64" width="6.75" height="12.11" rx="1.53" ry="1.53"/><path class="cls-2" d="M22.71,80.67a20,20,0,0,1-20-20V48.82a2.63,2.63,0,0,1,2.63-2.63H40.1a2.63,2.63,0,0,1,2.63,2.63V60.65A20,20,0,0,1,22.71,80.67Z"/><path class="cls-3" d="M40.09,48.82V60.65a17.39,17.39,0,1,1-34.77,0V48.82H40.09m0-5.26H5.32A5.26,5.26,0,0,0,.06,48.82V60.65a22.65,22.65,0,1,0,45.29,0V48.82a5.25,5.25,0,0,0-5.26-5.26Z"/><path class="cls-2" d="M77.35,80.67a20,20,0,0,1-20-20V48.82A2.63,2.63,0,0,1,60,46.19H94.74a2.63,2.63,0,0,1,2.63,2.63V60.65A20,20,0,0,1,77.35,80.67Z"/><path class="cls-3" d="M94.74,48.82V60.65a17.39,17.39,0,1,1-34.77,0V48.82H94.74m0-5.26H60a5.25,5.25,0,0,0-5.26,5.26V60.65a22.65,22.65,0,1,0,45.29,0V48.82a5.25,5.25,0,0,0-5.26-5.26Z"/><rect class="cls-3" x="42.17" y="52.35" width="16.52" height="4.54" rx="1.03" ry="1.03"/><rect class="cls-3" y="16.7" width="3.85" height="35.65" rx="0.87" ry="0.87"/><rect class="cls-3" x="96.06" y="16.7" width="3.85" height="35.65" rx="0.87" ry="0.87"/><path class="cls-4" d="M16.86,51.06A10.37,10.37,0,0,1,14.26,57a10.33,10.33,0,0,1-5.91,2.6A10.33,10.33,0,0,1,11,53.67,10.3,10.3,0,0,1,16.86,51.06Z"/><path class="cls-4" d="M22,56.16a10.3,10.3,0,0,1-2.61,5.91,10.33,10.33,0,0,1-5.91,2.6A10.33,10.33,0,0,1,16,58.76,10.37,10.37,0,0,1,22,56.16Z"/><path class="cls-4" d="M70.82,51.06A10.37,10.37,0,0,1,68.22,57a10.33,10.33,0,0,1-5.91,2.6,10.33,10.33,0,0,1,2.6-5.91A10.3,10.3,0,0,1,70.82,51.06Z"/><path class="cls-4" d="M75.92,56.16a10.38,10.38,0,0,1-2.61,5.91,10.33,10.33,0,0,1-5.91,2.6A10.33,10.33,0,0,1,70,58.76,10.37,10.37,0,0,1,75.92,56.16Z"/></svg>