<svg id="Layer_1" data-name="Layer 1" xmlns="http://www.w3.org/2000/svg" viewBox="0 0 100 100"><defs><style>.cls-1{fill:#fff;}.cls-2{fill:#bcd2de;}</style></defs><title>igloo</title><path class="cls-1" d="M42.06,87.84h0C0,87.84,0,84.13,0,61V54.22A42.19,42.19,0,0,1,42.06,12.16h0A42.19,42.19,0,0,1,84.13,54.22V61C84.13,84.13,84.13,87.84,42.06,87.84Z"/><path class="cls-1" d="M79.77,87.84h-18c-20.23,0-20.23-1.78-20.23-12.91V71.67A20.28,20.28,0,0,1,61.74,51.44h18A20.29,20.29,0,0,1,100,71.67v3.26C100,86.06,100,87.84,79.77,87.84Z"/><path class="cls-1" d="M79.77,87.84h0c-20.24,0-20.24-1.78-20.24-12.91V71.67A20.29,20.29,0,0,1,79.77,51.44h0A20.29,20.29,0,0,1,100,71.67v3.26C100,86.06,100,87.84,79.77,87.84Z"/><path class="cls-2" d="M82.25,84.13h0c-14,0-14-1.24-14-8.92V73a14,14,0,0,1,14-14h0a14,14,0,0,1,14,14v2.25C96.22,82.89,96.22,84.13,82.25,84.13Z"/><polygon class="cls-2" points="24.5 22.81 19.09 22.81 16.39 27.49 19.09 32.17 24.5 32.17 27.2 27.49 24.5 22.81"/><polygon class="cls-2" points="14.85 30.07 9.45 30.07 6.74 34.75 9.45 39.43 14.85 39.43 17.56 34.75 14.85 30.07"/><polygon class="cls-2" points="25.67 35.29 20.26 35.29 17.56 39.97 20.26 44.65 25.67 44.65 28.37 39.97 25.67 35.29"/></svg>