<svg id="Layer_1" data-name="Layer 1" xmlns="http://www.w3.org/2000/svg" viewBox="0 0 100 100"><defs><style>.cls-1{fill:#deae38;}.cls-2{fill:#ffc63f;}.cls-3{fill:#cba034;}.cls-4{fill:#00a69c;}</style></defs><title>sandstorm</title><path class="cls-1" d="M65.47,34.88l-1.91-.41c10.89-1.06,12.67-8,12.67-8s6.16,6.63,12.67,8.05l-1.77.38Z"/><path class="cls-1" d="M35,34.88l-1.91-.19c10.89-.5,12.67-3.77,12.67-3.77A41.42,41.42,0,0,0,58.39,34.7l-1.77.18Z"/><ellipse class="cls-2" cx="40.83" cy="35.64" rx="8.01" ry="2"/><path class="cls-2" d="M82.43,37.57c0,1.71-11.37,3.1-23.25,3.1s-21.51-1.39-21.51-3.1,9.63-3.09,21.51-3.09S82.43,35.86,82.43,37.57Z"/><path class="cls-2" d="M69.9,33l1.9-.42c-10.88-1.06-6.67-9-6.67-9S53,31.24,46.47,32.65l1.76.39Z"/><path class="cls-2" d="M71.8,32.62,69.9,33h0l-1,.21,1-.21H48.23l1.21.26L48.23,33h0l-1.76-.39c-5.33,1.88-8.8,4.31-8.8,4.71,0,.67,9.63,1.21,21.51,1.21s21.5-.54,21.5-1.21C80.68,37,77.18,34.51,71.8,32.62Z"/><circle class="cls-2" cx="37.61" cy="36.5" r="0.73"/><circle class="cls-2" cx="39.87" cy="38.49" r="0.81"/><circle class="cls-2" cx="42.31" cy="40.2" r="0.47"/><circle class="cls-2" cx="45.27" cy="41.12" r="0.45"/><circle class="cls-2" cx="46.14" cy="39.4" r="0.62"/><circle class="cls-2" cx="48.54" cy="40.58" r="0.84"/><circle class="cls-2" cx="42.23" cy="41.96" r="0.39"/><circle class="cls-2" cx="55.83" cy="41.97" r="0.21"/><circle class="cls-2" cx="35.05" cy="36.55" r="0.79"/><circle class="cls-2" cx="36.76" cy="35.19" r="0.92"/><ellipse class="cls-2" cx="82.06" cy="36.11" rx="4.39" ry="1.1"/><ellipse class="cls-2" cx="79.64" cy="37.85" rx="3.74" ry="0.81"/><ellipse class="cls-2" cx="39.58" cy="38.14" rx="3.74" ry="0.81"/><rect class="cls-1" x="28.86" y="33.64" width="71.14" height="15.73" rx="3.95" ry="3.95"/><polyline class="cls-1" points="69.11 75.69 97.54 47.25 97.54 37.5 95.82 35.02 51.75 56.41"/><path class="cls-2" d="M32.71,34.56,3.08,64.18H68.16L97,35.34H97a7.84,7.84,0,0,0-4.82-1.69H36.73a7.74,7.74,0,0,0-3.61.92"/><path class="cls-1" d="M63.33,62.5H7.92a7.87,7.87,0,0,0,0,15.74H63.33a7.87,7.87,0,0,0,0-15.74Z"/><polygon class="cls-1" points="34.33 52.6 39.42 52.6 36.88 50.99 34.33 52.6"/><polygon class="cls-1" points="68.64 45.16 76.76 45.16 72.7 42.59 68.64 45.16"/><polygon class="cls-1" points="51.97 56.64 60.09 56.64 56.03 54.07 51.97 56.64"/><polygon class="cls-1" points="51.97 41.49 60.09 41.49 56.03 38.91 51.97 41.49"/><path class="cls-3" d="M5.77,53.6c7-.41,13.94-.6,20.91-.76s14-.21,20.92-.23,13.95,0,20.92.23L79,53.12c3.49.16,7,.26,10.46.48-3.48.23-7,.33-10.46.49l-10.46.28c-7,.18-13.94.2-20.92.23s-13.94-.05-20.92-.24S12.74,54,5.77,53.6Z"/><path class="cls-3" d="M5.77,38.64q11.49-.28,23-.38l23-.12,23,.11q11.49.11,23,.39-11.49.27-23,.38l-23,.11-23-.11Q17.26,38.92,5.77,38.64Z"/><path class="cls-3" d="M9.1,27.25c7.37-.18,14.75-.32,22.12-.38l22.12-.12,22.13.11q11.06.11,22.12.39-11.06.27-22.12.38l-22.13.11-22.12-.11Q20.17,27.53,9.1,27.25Z"/><path class="cls-3" d="M59.6,38.62a3.82,3.82,0,0,1-3.06.34,3.47,3.47,0,0,1-2.23-2.33A3.29,3.29,0,0,1,55,33.35a2.53,2.53,0,0,1,1.67-.78,2.14,2.14,0,0,1,1.68.88A2.75,2.75,0,0,1,59,35.16a2.21,2.21,0,0,1-.83,1.64,3,3,0,0,1-3.26.3A4.71,4.71,0,0,1,53,34.57a9.16,9.16,0,0,1-.56-3c.34,1.95,1.08,4.08,2.71,5a2.18,2.18,0,0,0,2.42-.43,1.5,1.5,0,0,0,0-2.11,1.2,1.2,0,0,0-1.93,0,2.56,2.56,0,0,0-.59,2.38C55.38,38.28,57.67,39.29,59.6,38.62Z"/><path class="cls-3" d="M37.26,53.14A10.78,10.78,0,0,1,28,52.51a5,5,0,0,1-1.77-1.91A2.5,2.5,0,0,1,26,49.1a2.24,2.24,0,0,1,.83-1.35,4.88,4.88,0,0,1,5.07-.38A5,5,0,0,1,34,49a1.69,1.69,0,0,1,.17,1.69,2.45,2.45,0,0,1-1.12,1,7.59,7.59,0,0,1-4.9.26A12.25,12.25,0,0,1,20.9,46.2a12.82,12.82,0,0,0,7.4,5,6.21,6.21,0,0,0,4.18-.51,1.43,1.43,0,0,0,.58-.51c0-.12,0-.25-.12-.49a3.7,3.7,0,0,0-1.59-1.11,4,4,0,0,0-3.76.19c-.94.56-.12,2,1,2.81a9.28,9.28,0,0,0,4.07,1.59A12.27,12.27,0,0,0,37.26,53.14Z"/><path class="cls-3" d="M46.13,27.74A7.39,7.39,0,0,1,44,27a6.88,6.88,0,0,1-1.78-1.34,7.22,7.22,0,0,1-1.91-3.85,6.75,6.75,0,0,0,5.93,5h0a.5.5,0,0,1-.09,1Z"/><path class="cls-3" d="M40.51,39.25a7.41,7.41,0,0,1-2.22.53,7,7,0,0,1-5.93-2.29,6.75,6.75,0,0,0,7.7.89l0,0a.49.49,0,0,1,.47.87Z"/><path class="cls-4" d="M73.07,35.25a2.11,2.11,0,0,1,4.2.35l-1,12.24H72Z"/><rect class="cls-4" x="68.12" y="38.47" width="6.4" height="3.33" rx="0.84" ry="0.84" transform="matrix(-1, -0.08, 0.08, -1, 139.13, 85.96)"/><rect class="cls-4" x="68.22" y="35.96" width="2.75" height="5.69" rx="0.69" ry="0.69" transform="translate(135.79 83.17) rotate(-175.32)"/><rect class="cls-4" x="74.58" y="41.06" width="6.4" height="3.33" rx="0.84" ry="0.84" transform="translate(3.74 -6.2) rotate(4.68)"/><rect class="cls-4" x="78.33" y="38.85" width="2.75" height="5.69" rx="0.69" ry="0.69" transform="translate(3.67 -6.36) rotate(4.68)"/><path class="cls-4" d="M50,41.4a3.11,3.11,0,1,0-6.2.5L45.31,60h6.24Z"/><rect class="cls-4" x="47.89" y="46.15" width="9.45" height="4.91" rx="1.23" ry="1.23" transform="translate(-3.79 4.45) rotate(-4.68)"/><rect class="cls-4" x="53.13" y="42.45" width="4.06" height="8.4" rx="1.02" ry="1.02" transform="translate(-3.62 4.65) rotate(-4.68)"/><rect class="cls-4" x="38.35" y="49.96" width="9.45" height="4.91" rx="1.23" ry="1.23" transform="translate(90.27 101.14) rotate(175.32)"/><rect class="cls-4" x="38.21" y="46.7" width="4.06" height="8.4" rx="1.02" ry="1.02" transform="translate(84.5 98.34) rotate(175.32)"/><circle class="cls-3" cx="62.03" cy="49.41" r="0.33"/><circle class="cls-3" cx="61.67" cy="43.67" r="0.48"/><circle class="cls-3" cx="68.51" cy="49.64" r="0.31"/><circle class="cls-3" cx="65.47" cy="47.01" r="1.04"/><circle class="cls-3" cx="54.63" cy="48.03" r="0.52"/><circle class="cls-3" cx="45.95" cy="45.75" r="0.23"/><circle class="cls-3" cx="46.75" cy="42.56" r="0.61"/><circle class="cls-3" cx="43.79" cy="39.27" r="0.46"/><circle class="cls-3" cx="38.96" cy="29.89" r="0.62"/><circle class="cls-3" cx="47.81" cy="24.05" r="0.46"/><circle class="cls-3" cx="45.49" cy="29.5" r="0.22"/><circle class="cls-3" cx="63.77" cy="25.17" r="0.66"/><circle class="cls-3" cx="70.57" cy="25.35" r="0.18"/><circle class="cls-3" cx="70.95" cy="29.69" r="0.2"/><circle class="cls-3" cx="69.13" cy="30.2" r="0.31"/><circle class="cls-3" cx="67.49" cy="29.93" r="0.99"/><circle class="cls-3" cx="82.96" cy="31.57" r="0.9"/><circle class="cls-3" cx="88.91" cy="31.04" r="0.53"/><circle class="cls-3" cx="85.82" cy="30.27" r="0.99"/><circle class="cls-3" cx="92.31" cy="29.99" r="0.27"/><circle class="cls-3" cx="69.48" cy="50.18" r="1.27"/><circle class="cls-3" cx="17.13" cy="44.43" r="0.28"/><circle class="cls-3" cx="15.44" cy="43.67" r="0.5"/><circle class="cls-3" cx="21.55" cy="41.35" r="1.21"/><circle class="cls-3" cx="23.11" cy="32.27" r="0.35"/><circle class="cls-3" cx="23.28" cy="30.52" r="0.52"/><path class="cls-3" d="M0,58.86c7.37-.82,14.75-1.25,22.12-1.54s14.75-.41,22.13-.44S59,57,66.37,57.31,81.12,58,88.5,58.86c-7.38.83-14.75,1.26-22.13,1.56s-14.75.4-22.12.43-14.75-.12-22.13-.44S7.37,59.69,0,58.86Z"/><circle class="cls-3" cx="74.71" cy="37.59" r="0.26"/><circle class="cls-3" cx="79.97" cy="37.3" r="0.27"/><circle class="cls-3" cx="65.47" cy="35.04" r="1.04"/><circle class="cls-3" cx="74.73" cy="42.59" r="0.13"/><circle class="cls-3" cx="82.69" cy="46.38" r="0.63"/><circle class="cls-3" cx="83.3" cy="43.53" r="0.34"/><circle class="cls-3" cx="83.3" cy="41.9" r="0.34"/><circle class="cls-3" cx="85.8" cy="41.77" r="0.65"/><circle class="cls-3" cx="87.19" cy="39.09" r="0.18"/><circle class="cls-3" cx="86.4" cy="37.29" r="0.61"/></svg>