<svg id="Layer_1" data-name="Layer 1" xmlns="http://www.w3.org/2000/svg" viewBox="0 0 100 100"><defs><style>.cls-1{fill:#deae38;}.cls-2{fill:#ffc63f;}.cls-3{fill:#6ab8d9;}.cls-4{fill:#895e59;}.cls-5{fill:#00a69c;}</style></defs><title>oasis</title><path class="cls-1" d="M65.45,35.66l-1.91-.41c10.89-1.06,12.68-8,12.68-8s6.16,6.64,12.67,8.05l-1.77.38Z"/><path class="cls-1" d="M34.92,35.66,33,35.47c10.89-.5,12.68-3.76,12.68-3.76a41.56,41.56,0,0,0,12.67,3.77l-1.76.18Z"/><path class="cls-2" d="M71.78,33.41c-10.89-1.06-6.67-9-6.67-9S52.94,32,46.44,33.44c-5.34,1.88-8.8,4.3-8.8,4.7h43C80.67,37.74,77.17,35.29,71.78,33.41Z"/><rect class="cls-1" x="28.82" y="34.42" width="71.18" height="15.74" rx="3.95" ry="3.95"/><polyline class="cls-1" points="69.09 76.49 97.54 48.04 97.54 38.29 95.81 35.81 51.73 57.21"/><path class="cls-2" d="M32.67,35.34,3,65H68.14L97,36.12h-.07a7.74,7.74,0,0,0-4.81-1.7H36.69a7.66,7.66,0,0,0-3.61.93"/><path class="cls-1" d="M63.31,63.3H7.87A7.87,7.87,0,0,0,7.87,79H63.31a7.87,7.87,0,1,0,0-15.74Z"/><polygon class="cls-1" points="34.29 53.4 39.39 53.4 36.84 51.78 34.29 53.4"/><polygon class="cls-1" points="68.63 45.95 76.75 45.95 72.69 43.37 68.63 45.95"/><polygon class="cls-1" points="51.95 57.44 60.07 57.44 56.01 54.86 51.95 57.44"/><polygon class="cls-1" points="51.95 39.41 60.07 39.41 56.01 36.83 51.95 39.41"/><path class="cls-3" d="M45.69,52.28c-3.5,0-5.73-.6-6.83-1.83a4.4,4.4,0,0,1-.75-3.67c0-.31.06-.6.06-.86,0-2.71,8.3-4.13,16.5-4.13s16.49,1.42,16.49,4.13S53.68,52.28,45.69,52.28Z"/><path class="cls-1" d="M54.67,42.29c8.83,0,16,1.63,16,3.64s-16.15,5.85-25,5.85-7-3.85-7-5.85,7.16-3.64,16-3.64m0-1c-6.31,0-17,1-17,4.63,0,.24,0,.51-.07.8a4.8,4.8,0,0,0,.88,4.05c1.21,1.36,3.5,2,7.2,2,7.07,0,26-3.34,26-6.85S61,41.3,54.67,41.3Z"/><path class="cls-4" d="M33.9,29.31l4.8,2a1.31,1.31,0,0,1,0,2.44L35.36,35a1.32,1.32,0,0,1-1.67-.68l-1.48-3.24A1.31,1.31,0,0,1,33.9,29.31Z"/><path class="cls-4" d="M32.57,33.79l5.13.79A1.31,1.31,0,0,1,38.25,37l-2.93,2a1.33,1.33,0,0,1-1.78-.27l-2.2-2.81A1.32,1.32,0,0,1,32.57,33.79Z"/><path class="cls-4" d="M32.22,38.55,37.38,38a1.31,1.31,0,0,1,1.13,2.16l-2.33,2.69a1.31,1.31,0,0,1-1.79.19L31.56,40.9A1.31,1.31,0,0,1,32.22,38.55Z"/><path class="cls-4" d="M32.93,42.61,37.86,41a1.32,1.32,0,0,1,1.56,1.88L37.71,46a1.32,1.32,0,0,1-1.71.55L32.78,45A1.31,1.31,0,0,1,32.93,42.61Z"/><path class="cls-4" d="M36.08,24.75l4.45,3A1.35,1.35,0,0,1,40,30.2l-3.64.61a1.35,1.35,0,0,1-1.54-1L34,26.18A1.36,1.36,0,0,1,36.08,24.75Z"/><path class="cls-5" d="M27.6,21.19a13.88,13.88,0,0,0-9,5.5l19.32-3.41A13.83,13.83,0,0,0,27.6,21.19Z"/><path class="cls-5" d="M29.53,25.49a12.37,12.37,0,0,0-5.35,10.29L41.12,24.85A12.34,12.34,0,0,0,29.53,25.49Z"/><path class="cls-5" d="M45.4,30.51a9,9,0,0,0-6.23-4.12L46.5,37.9A9.06,9.06,0,0,0,45.4,30.51Z"/><path class="cls-5" d="M46.92,26.1a11.17,11.17,0,0,0-9.46,0L53,33.35A11.21,11.21,0,0,0,46.92,26.1Z"/><path class="cls-5" d="M35.17,23.29a3.34,3.34,0,0,1,5.76,3.4"/></svg>