<svg id="Layer_1" data-name="Layer 1" xmlns="http://www.w3.org/2000/svg" viewBox="0 0 100 100"><defs><style>.cls-1{fill:#6ab8d9;}.cls-2{fill:#7d7d7d;}.cls-3{fill:#595959;}.cls-4{fill:#deae38;}</style></defs><title>robot</title><rect class="cls-1" x="31.73" y="88.18" width="5.91" height="9.61" rx="1.27" ry="1.27"/><rect class="cls-1" x="63.67" y="88.18" width="5.91" height="9.61" rx="1.27" ry="1.27"/><path class="cls-2" d="M96.24,49.15H90.3C90.3,31.48,74.2,24.31,73.52,24l2.34-5.47C76.69,18.9,96.24,27.49,96.24,49.15Z"/><path class="cls-3" d="M75,24.77c-.88-.49-1.44-.73-1.5-.76l2.34-5.47s.77.33,2,1Z"/><path class="cls-3" d="M89.68,43.34a24.83,24.83,0,0,0-1.17-3.82L94,37.32a30.94,30.94,0,0,1,1.46,4.74Zm-2.94-7.43a29.36,29.36,0,0,0-2.31-3.31L89,28.85a35.2,35.2,0,0,1,2.82,4Zm-5.1-6.3A35.09,35.09,0,0,0,78.47,27L82,22.18a39.81,39.81,0,0,1,3.73,3.1Z"/><path class="cls-3" d="M96.24,49.15H90.3q0-.91-.06-1.8L96.17,47C96.22,47.69,96.24,48.41,96.24,49.15Z"/><rect class="cls-1" x="95.81" y="50.68" width="3.03" height="8.62" rx="0.65" ry="0.65" transform="translate(194.65 109.97) rotate(-180)"/><rect class="cls-1" x="85.88" y="50.68" width="3.03" height="8.62" rx="0.65" ry="0.65" transform="translate(174.79 109.97) rotate(180)"/><rect class="cls-3" x="84.72" y="48.14" width="15.28" height="5.62" rx="1.2" ry="1.2" transform="translate(184.72 101.9) rotate(180)"/><path class="cls-2" d="M9.7,49.15H3.76c0-21.66,19.55-30.25,20.38-30.61L26.48,24l-1.17-2.73L26.48,24C25.8,24.31,9.7,31.48,9.7,49.15Z"/><path class="cls-3" d="M25,24.77l-2.88-5.2c1.25-.7,2-1,2-1L26.48,24C26.42,24,25.86,24.28,25,24.77Z"/><path class="cls-3" d="M10.32,43.35,4.51,42.06A32.06,32.06,0,0,1,6,37.32l5.53,2.2A26.11,26.11,0,0,0,10.32,43.35Zm2.94-7.44-5.12-3a34.09,34.09,0,0,1,2.82-4l4.62,3.75A26.74,26.74,0,0,0,13.26,35.91Zm5.1-6.3-4.07-4.33A38.56,38.56,0,0,1,18,22.18L21.53,27A33.76,33.76,0,0,0,18.36,29.61Z"/><path class="cls-3" d="M9.7,49.15H3.76c0-.74,0-1.46.07-2.17l5.93.37Q9.7,48.24,9.7,49.15Z"/><rect class="cls-2" x="28.37" y="25.54" width="43.34" height="50.25" rx="8.87" ry="8.87"/><rect class="cls-1" x="34.69" y="54.22" width="30.56" height="5.08" rx="1.09" ry="1.09"/><rect class="cls-1" x="34.69" y="61.85" width="30.56" height="5.08" rx="1.09" ry="1.09"/><rect class="cls-1" x="37.21" y="0.01" width="26.58" height="18.83" rx="2.71" ry="2.71"/><rect class="cls-2" x="19.07" y="11.53" width="62.85" height="44.54" rx="6.41" ry="6.41"/><circle class="cls-4" cx="40.37" cy="6.8" r="1.41"/><circle class="cls-4" cx="60.16" cy="6.8" r="1.41"/><rect class="cls-1" x="1.16" y="50.68" width="3.03" height="8.62" rx="0.65" ry="0.65"/><rect class="cls-1" x="11.09" y="50.68" width="3.03" height="8.62" rx="0.65" ry="0.65"/><rect class="cls-3" y="48.14" width="15.28" height="5.62" rx="1.2" ry="1.2"/><rect class="cls-3" x="27.36" y="69.48" width="14.65" height="23.02" rx="1.8" ry="1.8"/><rect class="cls-3" x="59.31" y="69.48" width="14.65" height="23.02" rx="1.8" ry="1.8"/><rect class="cls-2" x="22.98" y="94.73" width="23.02" height="5.26" rx="1.12" ry="1.12"/><rect class="cls-2" x="55.12" y="94.73" width="23.02" height="5.26" rx="1.12" ry="1.12"/><rect class="cls-3" x="57.27" y="20.25" width="15.28" height="5.29" rx="1.13" ry="1.13"/><rect class="cls-3" x="56.88" y="30.33" width="15.67" height="0.8" rx="0.17" ry="0.17"/></svg>