<svg id="Layer_1" data-name="Layer 1" xmlns="http://www.w3.org/2000/svg" viewBox="0 0 100 100"><defs><style>.cls-1{fill:#3e3e3f;}.cls-2{fill:#ebf7fd;}.cls-3{fill:#f37d3b;}.cls-4{fill:#09a582;}.cls-5{fill:#fac6b9;}</style></defs><title>sushi</title><rect class="cls-1" x="40.07" y="9.93" width="21.56" height="80.15"/><path class="cls-1" d="M59.93,85.69A35.69,35.69,0,1,1,95.62,50,35.73,35.73,0,0,1,59.93,85.69Z"/><path class="cls-1" d="M59.93,18.7A31.3,31.3,0,1,1,28.62,50,31.3,31.3,0,0,1,59.93,18.7m0-8.77A40.07,40.07,0,1,0,100,50,40.12,40.12,0,0,0,59.93,9.93Z"/><path class="cls-2" d="M40.07,85.69A35.69,35.69,0,1,1,75.76,50,35.73,35.73,0,0,1,40.07,85.69Z"/><path class="cls-1" d="M40.07,18.7A31.3,31.3,0,1,1,8.77,50a31.3,31.3,0,0,1,31.3-31.3m0-8.77A40.07,40.07,0,1,0,80.15,50,40.11,40.11,0,0,0,40.07,9.93Z"/><rect class="cls-2" x="32.25" y="15.96" width="4.93" height="7.95" rx="2.47" ry="2.47" transform="translate(-2.17 4.39) rotate(-7.02)"/><rect class="cls-2" x="17.39" y="21.71" width="4.93" height="7.95" rx="2.47" ry="2.47" transform="translate(-12.49 22.9) rotate(-47.37)"/><rect class="cls-2" x="20.49" y="18.34" width="4.93" height="7.95" rx="2.47" ry="2.47" transform="translate(-4.27 5.47) rotate(-12.45)"/><rect class="cls-2" x="66.12" y="57.62" width="4.93" height="7.95" rx="2.47" ry="2.47" transform="translate(-11.67 16.23) rotate(-12.45)"/><rect class="cls-2" x="62.33" y="31.81" width="7.95" height="4.93" rx="2.47" ry="2.47" transform="translate(3.46 74.56) rotate(-60)"/><rect class="cls-2" x="8.01" y="61.64" width="7.95" height="4.93" rx="2.47" ry="2.47" transform="translate(-49.53 42.44) rotate(-60)"/><rect class="cls-2" x="27.52" y="75.07" width="7.95" height="4.93" rx="2.47" ry="2.47" transform="translate(-51.4 66.04) rotate(-60)"/><path class="cls-3" d="M37.33,48.9H50.85a13.52,13.52,0,1,1-23.93-8.62Z"/><path class="cls-4" d="M38.63,46.83,37,33.41A13.52,13.52,0,0,1,51.85,44Z"/><path class="cls-5" d="M35.47,41.93,23,36.81A13.53,13.53,0,0,1,29.1,30Z"/></svg>