<svg id="Layer_1" data-name="Layer 1" xmlns="http://www.w3.org/2000/svg" viewBox="0 0 100 100"><defs><style>.cls-1{fill:#00948b;}.cls-2{fill:#009b92;}.cls-3{fill:#895e59;}.cls-4{fill:#00a69c;}.cls-5{fill:#76504b;}.cls-6{fill:#c2d4de;}.cls-7{fill:#714c48;}.cls-8{fill:#b6a574;}</style></defs><title>treehouse</title><path class="cls-1" d="M42.9,41.22a10.35,10.35,0,0,1-3.07,14.3c-2,1.3-14-2.59-14.31-3.07-3.1-4.8.26-18.66.26-18.66S39.8,36.42,42.9,41.22Z"/><path class="cls-2" d="M44.28,62.13a5.06,5.06,0,1,1-9.6-3.22c.89-2.65,7.49-6.39,7.49-6.39S45.17,59.48,44.28,62.13Z"/><path class="cls-1" d="M71,22.59a8,8,0,1,1-13.39-8.68C60,10.22,70.8,8.2,70.8,8.2S73.38,18.89,71,22.59Z"/><path class="cls-1" d="M36.29,22.23a4.32,4.32,0,0,1-7.06,5c-1.37-1.95-.2-7.79-.2-7.79S34.92,20.28,36.29,22.23Z"/><rect class="cls-3" x="43.81" y="41.28" width="9.44" height="58.72" rx="2.36" ry="2.36"/><rect class="cls-3" x="44.56" y="61.8" width="22.75" height="2.81" rx="0.7" ry="0.7" transform="translate(111.86 126.4) rotate(-180)"/><path class="cls-2" d="M69.77,35.4a21.24,21.24,0,0,1-42.48,0C27.29,23.67,48.53,0,48.53,0S69.77,23.67,69.77,35.4Z"/><path class="cls-4" d="M68.47,43.78A4.7,4.7,0,0,1,62,45.26c-2.2-1.38-1.48-6.48-1.48-6.48S64.79,35.92,67,37.3A4.7,4.7,0,0,1,68.47,43.78Z"/><path class="cls-4" d="M79.94,60.59s-2,11.12-7.58,12.47A10.32,10.32,0,1,1,67.46,53C73,51.66,79.94,60.59,79.94,60.59Z"/><rect class="cls-5" x="45.43" y="59.05" width="3.65" height="1.29" rx="0.32" ry="0.32"/><rect class="cls-5" x="47.69" y="67.47" width="4.76" height="1.68" rx="0.42" ry="0.42"/><rect class="cls-5" x="45.43" y="92.14" width="7.3" height="2.57" rx="0.64" ry="0.64"/><path class="cls-5" d="M43.81,84.74h2.87A1.29,1.29,0,0,1,48,86h0a1.29,1.29,0,0,1-1.28,1.29H43.81"/><path class="cls-5" d="M53.42,81.89H50.55a1.28,1.28,0,0,1-1.29-1.28h0a1.29,1.29,0,0,1,1.29-1.29h2.87"/><path class="cls-2" d="M57,80.1a5.07,5.07,0,1,1-6.9-7.42c2-1.91,9.63-2,9.63-2S59.09,78.19,57,80.1Z"/><path class="cls-2" d="M53.37,13.57a1.14,1.14,0,0,1,1.25.25c.49.47,1.05,1,1.63,1.61L55.16,18Z"/><path class="cls-4" d="M55.16,18l1.09-2.56c.92.93,1.92,2,2.85,3l-2,4.56Z"/><path class="cls-2" d="M57.15,23l2-4.56c.59.64,1.15,1.27,1.65,1.87l-2.41,5.65Z"/><path class="cls-4" d="M60.75,20.26a12.33,12.33,0,0,1,1.86,2.65c.71,1.77-.84,4.19-1.91,5.56a2.47,2.47,0,0,1-1,.76l-1.34-3.32Z"/><path class="cls-2" d="M42.9,13.29a2,2,0,0,0-2,1.06c-.58,1.06-1.23,2.28-1.92,3.57l3.17,3.78Z"/><path class="cls-4" d="M42.16,21.7,39,17.92c-1.08,2-2.24,4.3-3.29,6.48l5.64,6.72Z"/><path class="cls-2" d="M41.34,31.12,35.7,24.4c-.67,1.4-1.29,2.75-1.83,4l7,8.33Z"/><path class="cls-4" d="M33.87,28.41a21.7,21.7,0,0,0-1.79,5.46c-.29,3.36,3.59,6.65,6.1,8.42a4.47,4.47,0,0,0,2.12.77l.55-6.32Z"/><path class="cls-2" d="M77.71,61.41a1.11,1.11,0,0,0-.78-1c-.63-.21-1.35-.44-2.11-.67l-1.71,2.09Z"/><path class="cls-4" d="M73.11,61.87l1.71-2.09C73.6,59.4,72.27,59,71,58.67l-3,3.72Z"/><path class="cls-2" d="M68,62.39l3-3.72c-.82-.22-1.61-.42-2.35-.58L64.87,62.7Z"/><path class="cls-4" d="M68.64,58.09a12,12,0,0,0-3.12-.41c-1.84.19-3.22,2.62-3.91,4.15a2.46,2.46,0,0,0-.2,1.22l3.46-.35Z"/><rect class="cls-3" x="21.62" y="29.04" width="27.96" height="29.28" rx="3.13" ry="3.13"/><polygon class="cls-3" points="20.06 31.55 51.35 31.55 36.46 21.7 20.06 31.55"/><path class="cls-2" d="M40.29,25.47a4.07,4.07,0,0,1,6.13,5.35c-1.48,1.69-7.08,1.93-7.08,1.93S38.81,27.16,40.29,25.47Z"/><path class="cls-2" d="M50.28,34.37a2.37,2.37,0,0,1-.21,4.73c-1.3-.06-3.44-2.52-3.44-2.52S49,34.31,50.28,34.37Z"/><path class="cls-6" d="M30.15,54.91l-1.61,0a4.47,4.47,0,0,1-2.19-.4,2.28,2.28,0,0,1-1-2.15v-9a4.82,4.82,0,1,1,9.63,0v9c0,2.55-2.08,2.55-3.2,2.55Z"/><path class="cls-7" d="M30.15,39.1a4.27,4.27,0,0,1,4.26,4.26v9c0,1.78-1.09,2-2.64,2l-1.62,0-1.61,0c-1.55,0-2.65-.21-2.65-2v-9a4.28,4.28,0,0,1,4.26-4.26m0-1.12a5.39,5.39,0,0,0-5.38,5.38v9c0,3.11,2.74,3.11,3.77,3.11h3.23c1,0,3.77,0,3.77-3.11v-9A5.4,5.4,0,0,0,30.15,38Z"/><rect class="cls-8" x="26.68" y="54.98" width="0.87" height="45.02" rx="0.22" ry="0.22"/><rect class="cls-8" x="32.86" y="54.98" width="0.87" height="45.02" rx="0.22" ry="0.22"/><rect class="cls-3" x="25.54" y="60.39" width="9.57" height="1.33" rx="0.33" ry="0.33"/><rect class="cls-3" x="25.54" y="63.78" width="9.57" height="1.33" rx="0.33" ry="0.33"/><rect class="cls-3" x="25.54" y="67.16" width="9.57" height="1.33" rx="0.33" ry="0.33"/><rect class="cls-3" x="25.54" y="70.55" width="9.57" height="1.33" rx="0.33" ry="0.33"/><rect class="cls-3" x="25.54" y="73.94" width="9.57" height="1.33" rx="0.33" ry="0.33"/><rect class="cls-3" x="25.54" y="77.32" width="9.57" height="1.33" rx="0.33" ry="0.33"/><rect class="cls-3" x="25.54" y="80.71" width="9.57" height="1.33" rx="0.33" ry="0.33"/><rect class="cls-3" x="25.54" y="84.09" width="9.57" height="1.33" rx="0.33" ry="0.33"/><rect class="cls-3" x="25.54" y="87.48" width="9.57" height="1.33" rx="0.33" ry="0.33"/><rect class="cls-3" x="25.54" y="90.86" width="9.57" height="1.33" rx="0.33" ry="0.33"/><rect class="cls-3" x="25.54" y="94.25" width="9.57" height="1.33" rx="0.33" ry="0.33"/><rect class="cls-3" x="25.54" y="97.64" width="9.57" height="1.33" rx="0.33" ry="0.33"/><circle class="cls-6" cx="43.33" cy="43.94" r="3.58"/><path class="cls-7" d="M43.33,40.92a3,3,0,1,1-3,3,3,3,0,0,1,3-3m0-1.12a4.14,4.14,0,1,0,4.14,4.14,4.14,4.14,0,0,0-4.14-4.14Z"/><rect class="cls-7" x="42.76" y="40.22" width="1.14" height="7.44" rx="0.28" ry="0.28"/><rect class="cls-7" x="42.76" y="40.22" width="1.14" height="7.44" rx="0.28" ry="0.28" transform="translate(87.27 0.6) rotate(90)"/></svg>