<svg id="Layer_1" data-name="Layer 1" xmlns="http://www.w3.org/2000/svg" viewBox="0 0 100 100"><defs><style>.cls-1{fill:#c4cfd5;}.cls-2{fill:#bbbdbf;}.cls-3{fill:#ebf7fd;}.cls-4{fill:#7d7d7d;}.cls-5{fill:#3e3e3f;}.cls-6{fill:#ffc640;}.cls-7{fill:#f05c38;}.cls-8{fill:#6ab8d9;}</style></defs><title>unicorn</title><polyline class="cls-1" points="19.39 54.74 24.83 92.99 32.03 54.74"/><polyline class="cls-1" points="23.33 88.36 24.8 98.36 26.75 88.36"/><rect class="cls-1" x="22.67" y="84.2" width="4.35" height="2.86" rx="0.72" ry="0.72"/><rect class="cls-1" x="22.67" y="86.13" width="4.35" height="2.86" rx="0.72" ry="0.72"/><polygon class="cls-1" points="58.83 58.01 46.92 62.24 59.68 86.58 62.88 83.83 58.83 58.01"/><polyline class="cls-1" points="58.5 86.83 56.69 96.78 61.74 87.93"/><rect class="cls-1" x="58.65" y="83.3" width="4.35" height="2.86" rx="0.72" ry="0.72" transform="translate(30.42 -15.04) rotate(18.72)"/><rect class="cls-1" x="58.03" y="85.13" width="4.35" height="2.86" rx="0.72" ry="0.72" transform="translate(30.97 -14.74) rotate(18.72)"/><path class="cls-2" d="M69.3,61.26a15.44,15.44,0,0,1,.5-3.09,18.7,18.7,0,0,1,1.06-3,15.69,15.69,0,0,1,1.67-2.85,11.64,11.64,0,0,1,2.56-2.54A8.6,8.6,0,0,1,79,48.27a8.79,8.79,0,0,1,4.31.6,10,10,0,0,1,.94.42l.87.49a17.58,17.58,0,0,1,1.46,1,13.73,13.73,0,0,1,2.62,2.7A11.82,11.82,0,0,1,90.94,57a13.23,13.23,0,0,1,.56,3.69,27.53,27.53,0,0,1-.18,3.19,22.29,22.29,0,0,0-.18,2.25c0,.24,0,.4,0,.55a.42.42,0,0,0,0,.12.66.66,0,0,0,0,.11.37.37,0,0,1,0,.09s0,.06,0,.08a.37.37,0,0,0,.28.28,1.61,1.61,0,0,0,.84,0,4.64,4.64,0,0,0,2-1.14,3.52,3.52,0,0,0,.74-1,1.39,1.39,0,0,0,0-1.3,1.49,1.49,0,0,1,.66.5,2.36,2.36,0,0,1,.35.85,4.09,4.09,0,0,1-.13,1.81,6.29,6.29,0,0,1-2,3,5.09,5.09,0,0,1-1.91,1,4.39,4.39,0,0,1-2.6-.11,3.23,3.23,0,0,1-.63-.27,3.62,3.62,0,0,1-.57-.35,4,4,0,0,1-.49-.39,4.78,4.78,0,0,1-.45-.45,6.28,6.28,0,0,1-1.21-2.09,13.9,13.9,0,0,1-.64-3.63c-.07-1-.12-1.92-.23-2.71a7.94,7.94,0,0,0-1.42-3.8,9.9,9.9,0,0,0-1.44-1.56c-.28-.26-.6-.5-.91-.74l-.39-.28c-.13-.1-.25-.15-.38-.24a4,4,0,0,0-1.42-.5,3.62,3.62,0,0,0-1.71.22A13.48,13.48,0,0,0,73.47,57C72.06,58.29,70.72,59.74,69.3,61.26Z"/><path class="cls-2" d="M31.67,13V49.26l16.08,4L43.16,24.56S40.7,10.78,31.67,13Z"/><path class="cls-3" d="M50.42,75.75c-17,0-26.56-4.92-27.87-5.64L33.87,49.59l-.21-.11c.43.21,10.75,5.19,30.88,1.45A11.72,11.72,0,0,1,68.82,74,101.26,101.26,0,0,1,50.42,75.75Z"/><path class="cls-3" d="M42.54,78l-.29.1-.13,0-.07,0-.27.09-.48.13-.44.12-.4.09c-.54.12-1,.21-1.55.3s-1,.15-1.55.2l-.78.07-.81.06a26.64,26.64,0,0,1-7.41-.64c-.33-.07-.7-.17-1.07-.28l-1.08-.34-.54-.19-.57-.22c-.38-.15-.75-.31-1.12-.48l-.54-.26-.57-.3c-.37-.21-.74-.42-1.1-.64a19,19,0,0,1-2.11-1.51,20.19,20.19,0,0,1-5.75-7.52,21.3,21.3,0,0,1-1.67-6.58c0-.47-.08-.94-.1-1.41s0-.83,0-1.24l0-1.23c0-.39.07-.74.1-1.1a33.18,33.18,0,0,1,.69-4l.47-1.74c.08-.29.16-.59.25-.86l.27-.8.55-1.58.59-1.49c.2-.48.4-1,.61-1.45l.64-1.39c.41-.94.87-1.81,1.31-2.68l.68-1.3.7-1.26c.46-.83.92-1.68,1.41-2.47l1.44-2.39c.86-1.28,1.66-2.55,2.38-3.79s1.34-2.43,1.8-3.41a11.08,11.08,0,0,1,.55-1.13c.16-.24.28-.24.64,0a1.3,1.3,0,0,1,.14.12l.18.1a.62.62,0,0,0,.19.12l.2.1a.9.9,0,0,0,.21.08l.19.05a.94.94,0,0,0,.33,0c.36-.06.21-.32-.16-.47a4.53,4.53,0,0,0-1.61-.28,14.28,14.28,0,0,0-2.12.1,33.78,33.78,0,0,0-4.69.93c-1.6.42-3.21.92-4.82,1.48a101.88,101.88,0,0,0-9.59,3.89q3.48-3.9,7.4-7.52c1.32-1.21,2.68-2.38,4.12-3.51a42.36,42.36,0,0,1,4.68-3.23,22.38,22.38,0,0,1,2.77-1.4,15.51,15.51,0,0,1,3.44-1l.5-.08.55-.05a8.54,8.54,0,0,1,1.15,0h.3l.32,0,.66.07a6.38,6.38,0,0,1,.69.13,6.46,6.46,0,0,1,.7.17,10.06,10.06,0,0,1,1.48.58c.24.13.49.25.73.4s.48.31.71.48a5.78,5.78,0,0,1,.67.53l.62.59.55.63a6.92,6.92,0,0,1,.49.65c.15.21.29.43.42.65l.2.34.17.32a15.64,15.64,0,0,1,1,2.47l.16.58.08.29.06.27a24.94,24.94,0,0,1,.51,4,45,45,0,0,1-.25,6.61c-.22,2.05-.52,4-.86,5.92L39.39,41c-.11.8-.17,1.58-.25,2.37L39,44.54,39,45.68c0,.77-.09,1.53-.09,2.25V49c0,.36,0,.69,0,1l0,1L39,52l0,.46c0,.15.06.28.09.42l.16.79.23.64,0,.15a.63.63,0,0,0,.07.12l.14.2c0,.05.08.14.13.17l.14,0s.09,0,.13,0l.12-.14a2.36,2.36,0,0,0-.1-1.74,4.14,4.14,0,0,0-.33-.82l-.23-.45a3.82,3.82,0,0,0-.29-.48c-.1-.16-.21-.3-.33-.47a6.12,6.12,0,0,0-.39-.5c-.14-.16-.29-.31-.44-.46s-.31-.32-.47-.46a12.59,12.59,0,0,0-1-.81,5,5,0,0,0-.54-.35l-.28-.16a2,2,0,0,0-.25-.14,5,5,0,0,0-.51-.27l-.27-.11-.23-.11c-.15-.06-.3-.13-.46-.18l-.44-.15a22.36,22.36,0,0,0-2.31-.6l-.18,0-.15,0-.3-.07a2.16,2.16,0,0,0-.32-.05h-.23a.48.48,0,0,0-.17,0l-.13,0h0l-.09,0-.22.07A16.95,16.95,0,0,1,42.54,78Z"/><path class="cls-3" d="M40.35,47S31.86,50.88,63,51.24l-5.5,14.33L22.69,61.43"/><path class="cls-4" d="M8,21.44a6.2,6.2,0,0,0-3.27,8.13l.12.29A6.22,6.22,0,0,0,13,33.14l2-.87L9.07,21Z"/><path class="cls-3" d="M30.5,18.94l-.13-.29a6.21,6.21,0,0,0-8.12-3.28L9.07,21,15,32.27l12.22-5.2A6.22,6.22,0,0,0,30.5,18.94Z"/><path class="cls-3" d="M31.56,13.33a2.19,2.19,0,0,1-4.37,0c0-1.21,2.18-7.06,2.18-7.06S31.56,12.12,31.56,13.33Z"/><circle class="cls-4" cx="6.18" cy="22.54" r="2.42"/><circle class="cls-5" cx="34.33" cy="20.48" r="0.73"/><circle class="cls-5" cx="5.44" cy="22.54" r="0.73"/><circle class="cls-4" cx="9.62" cy="24.96" r="2.42"/><circle class="cls-5" cx="8.89" cy="24.96" r="0.73"/><path class="cls-2" d="M33,12.74s-6.68-1.34-10.49,1.39l7,3s4.27-2.32,6.49-1.39c.12.05,4.21,4,4.33,4,2.36,1.23-1.52-3.31-1.52-3.31Z"/><path class="cls-3" d="M37.42,15.31a2.19,2.19,0,1,1-4.38,0c0-1.21,2.19-7,2.19-7S37.42,14.1,37.42,15.31Z"/><polyline class="cls-3" points="31.66 53.93 37.1 92.18 44.3 53.93"/><polyline class="cls-3" points="35.59 87.56 37.07 97.56 39.01 87.56"/><rect class="cls-3" x="34.94" y="83.39" width="4.35" height="2.86" rx="0.72" ry="0.72"/><rect class="cls-3" x="34.94" y="85.32" width="4.35" height="2.86" rx="0.72" ry="0.72"/><polygon class="cls-5" points="20.15 100 28.68 100 24.42 94.3 20.15 100"/><polygon class="cls-5" points="32.85 100 41.38 100 37.12 94.3 32.85 100"/><polygon class="cls-5" points="53.03 100 61.56 100 57.3 94.3 53.03 100"/><polygon class="cls-3" points="71.12 58.01 59.21 62.24 71.97 86.58 75.16 83.83 71.12 58.01"/><polyline class="cls-3" points="70.79 86.83 68.97 96.78 74.02 87.93"/><rect class="cls-3" x="70.93" y="83.3" width="4.35" height="2.86" rx="0.72" ry="0.72" transform="translate(31.07 -18.98) rotate(18.72)"/><rect class="cls-3" x="70.31" y="85.13" width="4.35" height="2.86" rx="0.72" ry="0.72" transform="translate(31.62 -18.69) rotate(18.72)"/><polygon class="cls-5" points="65.32 100 73.85 100 69.59 94.3 65.32 100"/><circle class="cls-6" cx="68.83" cy="55.94" r="0.88"/><circle class="cls-7" cx="73.25" cy="59.74" r="1.37"/><circle class="cls-8" cx="66.48" cy="59.72" r="0.52"/><path class="cls-6" d="M29.75,13.3,25.87,16c-.49.35-1.05.31-1.24-.1h0a1.12,1.12,0,0,1,.47-1.3l3.58-2.54a1.12,1.12,0,0,1,1.38,0h0C30.38,12.41,30.24,13,29.75,13.3Z"/><path class="cls-6" d="M28.68,12.1,25.1,14.64a.76.76,0,0,1-1.17-.15h0a1.07,1.07,0,0,1,.4-1.26l3.27-2.32a1.08,1.08,0,0,1,1.32,0h0C29.24,11.26,29.13,11.78,28.68,12.1Z"/><path class="cls-6" d="M27.6,10.91l-3.27,2.32a.71.71,0,0,1-1.1-.2h0a1,1,0,0,1,.33-1.21l3-2.11a1,1,0,0,1,1.25.1h0A.7.7,0,0,1,27.6,10.91Z"/><path class="cls-6" d="M26.53,9.71l-3,2.11a.67.67,0,0,1-1-.25h0a1,1,0,0,1,.26-1.16l2.67-1.89a1,1,0,0,1,1.18.14h0A.66.66,0,0,1,26.53,9.71Z"/><path class="cls-6" d="M25.46,8.52l-2.67,1.89a.63.63,0,0,1-1-.3h0A.91.91,0,0,1,22,9l2.36-1.67a.93.93,0,0,1,1.12.18h0A.64.64,0,0,1,25.46,8.52Z"/><path class="cls-6" d="M24.38,7.33,22,9a.61.61,0,0,1-.89-.35h0a.88.88,0,0,1,.12-1.06l2.06-1.46a.89.89,0,0,1,1,.24h0A.61.61,0,0,1,24.38,7.33Z"/><path class="cls-6" d="M23.31,6.13,21.25,7.59c-.27.19-.63,0-.82-.39h0c-.19-.41-.17-.86.05-1l1.76-1.24c.22-.16.65,0,1,.28h0C23.53,5.54,23.57,5.94,23.31,6.13Z"/><path class="cls-6" d="M22.24,4.94,20.48,6.18c-.23.16-.57,0-.76-.44h0c-.19-.4-.19-.84,0-1l1.45-1c.18-.13.59,0,.91.34h0C22.39,4.39,22.46,4.78,22.24,4.94Z"/><path class="cls-6" d="M21.16,3.74l-1.45,1c-.19.14-.5-.08-.69-.49h0c-.19-.4-.22-.81-.08-.91l1.15-.82c.14-.1.52.07.84.38h0C21.24,3.25,21.35,3.61,21.16,3.74Z"/><path class="cls-6" d="M20.09,2.55l-1.15.82c-.15.1-.43-.14-.62-.55h0c-.19-.4-.26-.79-.15-.86L19,1.35c.1-.07.45.13.76.44h0C20.1,2.1,20.24,2.44,20.09,2.55Z"/><ellipse class="cls-6" cx="27.87" cy="14.72" rx="3" ry="1.26" transform="translate(-3.62 15.91) rotate(-30)"/><polyline class="cls-6" points="18.26 2.14 17.5 0 19.43 1.71"/><polyline class="cls-2" points="31.41 13.4 23.86 15.51 25.56 17.5 31.68 15.45"/></svg>