<svg id="Layer_1" data-name="Layer 1" xmlns="http://www.w3.org/2000/svg" viewBox="0 0 100 100"><defs><style>.cls-1{fill:#fff;}.cls-2{fill:#f37d3b;}.cls-3{fill:#fbc6a4;}</style></defs><title>bacon</title><path class="cls-1" d="M43.14,59.34C40.88,72.9,31.93,86.45,34,100h.66c8.45,0,10.8-6.91,9.82-15.37-1.14-8.41.45-16.82,2.77-25.24C45.67,58.68,44.17,58.31,43.14,59.34Z"/><path class="cls-2" d="M55.53,15.37C54.55,6.91,43.07,0,34.62,0H30a12.75,12.75,0,0,0-2.87.31c-1.72,10.84.67,23-7.39,29.84C16.77,48.31,6.61,66.47,9.06,84.63,10,93.09,21.52,100,30,100h4c-2-13.55,6.92-27.1,9.18-40.66,1-1,2.53-.66,4.07,0C51.25,44.72,57.51,30,55.53,15.37Z"/><path class="cls-1" d="M27.11.31C21,1.74,19.29,8,20.15,15.37a49.87,49.87,0,0,1-.43,14.78C27.78,23.33,25.39,11.15,27.11.31Z"/><path class="cls-2" d="M84.22,43.37c0-6.85,6.85-11.42,4.57-16-4.57-4.57-9.13-9.13-16-6.85,1.06-2.12.15-3.25-.9-4.32-6.12,2.78-9.63,8.3-9,12.91,1.93,13.92-2.2,28.16-.21,42.73.71,5.24,6.36,11,11.19,12.74l2.67.91C81.41,87.25,84,83.31,84,76.7c-.1-13.34,4.15-26.87,6.21-40.58A41.49,41.49,0,0,0,84.22,43.37Z"/><path class="cls-1" d="M72.81,20.54c6.85-2.28,11.41,2.28,16,6.85,2.28,4.56-4.57,9.13-4.57,16a41.49,41.49,0,0,1,6-7.25,87.65,87.65,0,0,0,1.08-13.81c0-6.9-7.13-10.54-14.15-8l-3.84,1.3c-.5.18-.94.42-1.41.63C73,17.29,73.87,18.42,72.81,20.54Z"/><path class="cls-3" d="M27.92,8.75A66,66,0,0,1,30.7,29a56.58,56.58,0,0,1-1,10.4L29.08,42l-.79,2.59c-.24.87-.68,1.71-1,2.56l-.93,2.27a41.35,41.35,0,0,0-2.52,8.81c-.62,3.1-1,6.3-1.38,9.54-.68,6.5-1,13.12-1.57,19.91a69.28,69.28,0,0,1-3.77-20.05,56.7,56.7,0,0,1,.3-10.4,38,38,0,0,1,2.64-10.49l1-2.35c.28-.7.64-1.34.87-2.08l.78-2.16.65-2.25c.83-3,1.46-6.17,2-9.37C26.43,22.1,27.13,15.51,27.92,8.75Z"/><path class="cls-3" d="M31.06,1.05a24.77,24.77,0,0,1,6.33,4.28,32.18,32.18,0,0,1,5,5.84,30,30,0,0,1,3.46,7.15A25.53,25.53,0,0,1,47,26.46l-6.64-.33a33.23,33.23,0,0,1,1.17-5.3,28.85,28.85,0,0,1,2-5.07A15.83,15.83,0,0,1,47,11.21C48.4,9.86,50.8,9,52.46,9.89A4.64,4.64,0,0,0,49.27,13a25.28,25.28,0,0,0-1.17,4.41c-.29,1.53-.47,3.12-.66,4.69s-.32,3.22-.42,4.69a3.31,3.31,0,0,1-6.61.05l0-.38a33.42,33.42,0,0,0-1-6.21A50.05,50.05,0,0,0,37.28,14c-.87-2.1-1.84-4.2-2.89-6.33S32.2,3.35,31.06,1.05Z"/><path class="cls-3" d="M44.28,40.51a24.45,24.45,0,0,0-3.9,9.22A26.63,26.63,0,0,0,40,54.24l0,1.14c0,.36,0,.71,0,1.37s-.07,1.16-.11,1.74-.25,1.13-.38,1.69a15.82,15.82,0,0,1-1.27,3.16A18.05,18.05,0,0,1,36.34,66a18.45,18.45,0,0,1-4.7,3.84,21.16,21.16,0,0,1-10.95,3c2.8-2.57,5.41-4.87,7.65-7.24s4-4.79,4.59-7.19c.07-.3.19-.59.24-.89s0-.61.09-.92a9.25,9.25,0,0,0,.12-1.28c0-.51,0-1,.13-1.53a18.8,18.8,0,0,1,1.84-5.86A13.77,13.77,0,0,1,44.28,40.51Z"/><path class="cls-3" d="M68.63,78.74a45,45,0,0,1-3.39-13.33,36.77,36.77,0,0,1,1-14.23l.67-1.84.65-1.52,1.33-3c.89-2,1.73-3.9,2.5-5.84a44.13,44.13,0,0,0,3-12.55c2.4,4,3,9.16,2.23,13.88a40.77,40.77,0,0,1-1.64,6.83c-.36,1.1-.75,2.16-1.14,3.22l-.62,1.57-.43,1.3a78.18,78.18,0,0,0-2.13,12.2C70.06,69.77,69.56,74.18,68.63,78.74Z"/></svg>