<svg id="Layer_1" data-name="Layer 1" xmlns="http://www.w3.org/2000/svg" viewBox="0 0 100 100"><defs><style>.cls-1{fill:#3e3e3f;}.cls-2{fill:#ffc640;}.cls-3{fill:#cfa335;}.cls-4{fill:#fff;}.cls-5{fill:#f37d3b;}</style></defs><title>cigarette</title><circle class="cls-1" cx="67.7" cy="59.96" r="2.81"/><circle class="cls-1" cx="58.41" cy="33.4" r="5.09"/><circle class="cls-1" cx="73.63" cy="35.81" r="1.87"/><circle class="cls-1" cx="83.13" cy="33.55" r="1.98"/><circle class="cls-1" cx="47.83" cy="17.02" r="3.5"/><circle class="cls-1" cx="83.3" cy="57.59" r="3.43"/><circle class="cls-1" cx="82.41" cy="55.78" r="6.24"/><circle class="cls-1" cx="71.75" cy="67.35" r="11.17"/><circle class="cls-1" cx="80.6" cy="64.39" r="4.43"/><circle class="cls-1" cx="81.98" cy="49.54" r="5.96"/><circle class="cls-1" cx="86.28" cy="63.79" r="5.14"/><circle class="cls-1" cx="96.67" cy="34.89" r="3.33"/><circle class="cls-1" cx="88.11" cy="52.66" r="3.87"/><circle class="cls-1" cx="68.82" cy="32.37" r="8.05"/><circle class="cls-1" cx="74.07" cy="19.15" r="1.82"/><circle class="cls-1" cx="81.98" cy="30.7" r="9.73"/><circle class="cls-1" cx="90.99" cy="24.32" r="3.81"/><circle class="cls-1" cx="68.82" cy="69.03" r="8.05"/><circle class="cls-1" cx="74.07" cy="55.81" r="1.82"/><circle class="cls-1" cx="64.89" cy="46.49" r="12.56"/><circle class="cls-1" cx="72.94" cy="55.78" r="12.56"/><circle class="cls-1" cx="90.99" cy="60.98" r="3.81"/><rect class="cls-2" y="71.5" width="30.12" height="13.88" rx="2.93" ry="2.93"/><circle class="cls-3" cx="13.25" cy="81.01" r="0.87"/><circle class="cls-3" cx="9.6" cy="75.87" r="0.87"/><circle class="cls-3" cx="16.43" cy="75.87" r="0.87"/><path class="cls-4" d="M23.92,71.5a5.85,5.85,0,0,0-5.83,5.83v2.22a5.85,5.85,0,0,0,5.83,5.83H64.28V71.5Z"/><path class="cls-1" d="M71,71.5H64.28V85.38H71a5.85,5.85,0,0,0,5.83-5.83V77.33A5.85,5.85,0,0,0,71,71.5Z"/><path class="cls-1" d="M62.54,71.5h6.75V85.38H62.54a5.84,5.84,0,0,1-5.83-5.83V77.33A5.84,5.84,0,0,1,62.54,71.5Z"/><rect class="cls-1" x="61.2" y="70.29" width="4.86" height="16.19" rx="1.22" ry="1.22"/><rect class="cls-1" x="64.03" y="70.29" width="4.86" height="16.19" rx="1.22" ry="1.22"/><rect class="cls-1" x="66.86" y="70.29" width="4.86" height="16.19" rx="1.22" ry="1.22"/><rect class="cls-1" x="69.69" y="70.29" width="4.86" height="16.19" rx="1.22" ry="1.22"/><ellipse class="cls-5" cx="72.17" cy="78.69" rx="3.28" ry="5.31"/><circle class="cls-3" cx="2.76" cy="75.87" r="0.87"/><circle class="cls-3" cx="5.87" cy="81.01" r="0.87"/></svg>