<svg id="Layer_1" data-name="Layer 1" xmlns="http://www.w3.org/2000/svg" viewBox="0 0 100 100"><defs><style>.cls-1{fill:#e3e4e5;}.cls-2{fill:#fff;}.cls-3{fill:#d3d4d6;}.cls-4{fill:#ffc640;}.cls-5{fill:#f89c3e;}.cls-6{fill:#6ab8d9;}.cls-7{fill:#171717;}.cls-8{fill:#895e59;}.cls-9{fill:#09a582;}.cls-10{fill:#008569;}</style></defs><title>pilot</title><rect class="cls-1" x="18.11" y="0.96" width="19.03" height="1.74"/><path class="cls-2" d="M17.37,4.47h19.1a7.26,7.26,0,0,1,7.26,7.26v39.1a4,4,0,0,1-4,4H14.11a4,4,0,0,1-4-4V11.72a7.26,7.26,0,0,1,7.26-7.26Z"/><rect class="cls-2" x="1.15" y="1.82" width="51.46" height="16.99" rx="3.67" ry="3.67"/><rect class="cls-2" x="1.15" y="6.26" width="9.34" height="29.6" rx="2.02" ry="2.02"/><path class="cls-1" d="M10.49,31.19V14.77l-.18,0A2.61,2.61,0,0,0,7.7,17.36v18.1A4.69,4.69,0,0,0,10.49,31.19Z"/><rect class="cls-2" x="43.26" y="6.26" width="9.34" height="29.6" rx="2.02" ry="2.02" transform="translate(95.87 42.12) rotate(-180)"/><path class="cls-1" d="M43.26,31.19V14.77l.19,0a2.62,2.62,0,0,1,2.61,2.61v18.1A4.69,4.69,0,0,1,43.26,31.19Z"/><path class="cls-2" d="M17.37,1.82h19.1a7.26,7.26,0,0,1,7.26,7.26v39.1a4,4,0,0,1-4,4H14.11a4,4,0,0,1-4-4V9.08a7.26,7.26,0,0,1,7.26-7.26Z"/><ellipse class="cls-3" cx="27.41" cy="4.58" rx="10.56" ry="2.34"/><path class="cls-1" d="M3,32.39a1.83,1.83,0,1,0,0,3.66h7.13V32.39Z"/><path class="cls-1" d="M50.86,32.39a1.83,1.83,0,0,1,0,3.66H43.73V32.39Z"/><rect class="cls-4" x="44.22" y="85.55" width="14.71" height="4.53" rx="0.98" ry="0.98" transform="translate(103.14 175.62) rotate(180)"/><ellipse class="cls-5" cx="57.7" cy="87.67" rx="0.67" ry="1.27"/><rect class="cls-4" x="35.54" y="90.39" width="14.71" height="4.53" rx="0.98" ry="0.98" transform="translate(85.8 185.3) rotate(-180)"/><ellipse class="cls-5" cx="49.02" cy="92.51" rx="0.67" ry="1.27"/><path class="cls-2" d="M78.19,63.36a10.94,10.94,0,1,1,0,21.87H28.55V63.36Z"/><path class="cls-2" d="M24.9,77.08h3.65v8.15H24.9a4.08,4.08,0,1,1,0-8.15Z"/><path class="cls-2" d="M14.32,63.36H28.55V77.08H14.32a6.86,6.86,0,0,1,0-13.72Z"/><rect class="cls-2" x="67.29" y="74.3" width="30.64" height="10.94" rx="2.36" ry="2.36" transform="translate(165.22 159.53) rotate(180)"/><path class="cls-6" d="M72.51,71.44a2.87,2.87,0,0,1,2.86-2.86H87.49a10.85,10.85,0,0,1,1.64,5.72H75.37A2.87,2.87,0,0,1,72.51,71.44Z"/><circle class="cls-6" cx="66.16" cy="71.44" r="2.86"/><circle class="cls-6" cx="57.43" cy="71.44" r="2.86"/><circle class="cls-6" cx="48.71" cy="71.44" r="2.86"/><circle class="cls-6" cx="39.99" cy="71.44" r="2.86"/><circle class="cls-6" cx="31.27" cy="71.44" r="2.86"/><rect class="cls-2" x="20.82" y="75.52" width="5.39" height="5.64" transform="translate(47.04 156.68) rotate(-180)"/><polygon class="cls-4" points="7.46 56.13 10.21 59.11 7.46 59.11 7.46 56.13"/><polygon class="cls-2" points="10.21 59.11 20.07 69.81 7.46 69.81 7.46 59.11 10.21 59.11"/><polygon class="cls-2" points="34.83 83.63 58.91 83.63 31.82 95.54 26.95 95.54 34.83 83.63"/><polygon class="cls-2" points="26.95 95.54 31.82 95.54 24.96 98.56 26.95 95.54"/><polygon class="cls-4" points="36.43 81.2 64.43 81.2 58.91 83.63 34.83 83.63 36.43 81.2"/><polygon class="cls-2" points="33.1 83.63 36.55 83.63 28.84 95.28 55.34 83.63 62.48 83.63 35.39 95.54 25.23 95.54 33.1 83.63"/><path class="cls-4" d="M25.23,95.54H35.39l-9.85,4.34A1.51,1.51,0,0,1,25,100a1.44,1.44,0,0,1-1.2-2.23Z"/><path class="cls-4" d="M57.6,82.64H37.2l-.65,1H33.11l2.12-3.22a1.45,1.45,0,0,1,1.2-.64h28a1.42,1.42,0,0,1,1.4,1.14A1.44,1.44,0,0,1,65,82.52l-2.53,1.11H55.34Z"/><path class="cls-1" d="M18.11,2.24s5.72,5.82,7.17,5.3L22,12S13.55,5.62,14.27,3.1Z"/><path class="cls-1" d="M37.14,2.24S31.42,8.06,30,7.54L33.23,12S41.7,5.62,41,3.1Z"/><rect class="cls-7" x="3.46" y="1.65" width="10.13" height="3.69" rx="0.8" ry="0.8" transform="translate(-0.41 1.24) rotate(-8.12)"/><rect class="cls-4" x="5.08" y="2.37" width="1.27" height="2.83" rx="0.27" ry="0.27" transform="translate(-0.48 0.84) rotate(-8.12)"/><rect class="cls-4" x="6.86" y="2.11" width="1.27" height="2.83" rx="0.27" ry="0.27" transform="translate(-0.42 1.09) rotate(-8.12)"/><rect class="cls-4" x="8.64" y="1.86" width="1.27" height="2.83" rx="0.27" ry="0.27" transform="translate(-0.37 1.34) rotate(-8.12)"/><rect class="cls-4" x="10.42" y="1.6" width="1.27" height="2.83" rx="0.27" ry="0.27" transform="translate(-0.32 1.59) rotate(-8.12)"/><rect class="cls-7" x="41.39" y="1.65" width="10.13" height="3.69" rx="0.8" ry="0.8" transform="translate(91.95 13.51) rotate(-171.88)"/><rect class="cls-4" x="48.63" y="2.37" width="1.27" height="2.83" rx="0.27" ry="0.27" transform="translate(97.5 14.49) rotate(-171.88)"/><rect class="cls-4" x="46.85" y="2.11" width="1.27" height="2.83" rx="0.27" ry="0.27" transform="translate(93.99 13.73) rotate(-171.88)"/><rect class="cls-4" x="45.07" y="1.86" width="1.27" height="2.83" rx="0.27" ry="0.27" transform="matrix(-0.99, -0.14, 0.14, -0.99, 90.49, 12.97)"/><rect class="cls-4" x="43.29" y="1.6" width="1.27" height="2.83" rx="0.27" ry="0.27" transform="translate(86.98 12.22) rotate(-171.88)"/><path class="cls-7" d="M29.58,10l-1.75.9L26.09,10a1.89,1.89,0,0,1-1.88-1.88h0a1.88,1.88,0,0,1,1.88-1.87h3.49a1.87,1.87,0,0,1,1.87,1.87h0A1.88,1.88,0,0,1,29.58,10Z"/><path class="cls-2" d="M18.11,1s5.72,5.82,7.17,5.3L22,10.73s-8.47-6.38-7.75-8.91Z"/><path class="cls-2" d="M37.14,1S31.42,6.78,30,6.26l3.26,4.47S41.7,4.35,41,1.82Z"/><polygon class="cls-7" points="27.86 45.45 31.56 41.26 29.41 9.74 27.86 9.74 27.81 9.74 26.26 9.74 24.11 41.26 27.81 45.45 27.81 45.5 27.83 45.47 27.86 45.5 27.86 45.45"/><path class="cls-7" d="M27.86,46.66a1.16,1.16,0,0,1-.42-.08h0a1.18,1.18,0,0,1-.6-.52l-3.56-4a1.15,1.15,0,0,1-.29-.85L25.1,9.66a1.17,1.17,0,0,1,1.16-1.08h3.15a1.17,1.17,0,0,1,1.16,1.08l2.15,31.52a1.19,1.19,0,0,1-.29.85l-3.55,4a1.1,1.1,0,0,1-.61.55A1.15,1.15,0,0,1,27.86,46.66Zm-2.57-5.8,2.54,2.87,2.54-2.87-2-30h-1Z"/><rect class="cls-8" x="95.53" y="1.06" width="2.44" height="4.37" rx="0.53" ry="0.53"/><rect class="cls-8" x="63.49" y="1.06" width="2.44" height="4.37" rx="0.53" ry="0.53"/><path class="cls-7" d="M71,23.07a7.23,7.23,0,0,1-7.22-7.22V11.58a1,1,0,0,1,.95-.95H77.25a1,1,0,0,1,1,.95v4.27A7.23,7.23,0,0,1,71,23.07Z"/><path class="cls-7" d="M77.25,11.58v4.27a6.27,6.27,0,1,1-12.54,0V11.58H77.25m0-1.89H64.71a1.9,1.9,0,0,0-1.9,1.89v4.27a8.17,8.17,0,1,0,16.34,0V11.58a1.9,1.9,0,0,0-1.9-1.89Z"/><path class="cls-7" d="M90.69,23.07a7.23,7.23,0,0,1-7.22-7.22V11.58a1,1,0,0,1,1-.95H97a1,1,0,0,1,1,.95v4.27A7.23,7.23,0,0,1,90.69,23.07Z"/><path class="cls-7" d="M97,11.58v4.27a6.27,6.27,0,1,1-12.54,0V11.58H97m0-1.89H84.42a1.9,1.9,0,0,0-1.9,1.89v4.27a8.17,8.17,0,1,0,16.33,0V11.58A1.89,1.89,0,0,0,97,9.69Z"/><rect class="cls-7" x="78" y="12.86" width="5.96" height="1.64" rx="0.35" ry="0.35"/><rect class="cls-7" x="76.04" y="9.69" width="9.84" height="1.64" rx="0.35" ry="0.35"/><rect class="cls-7" x="62.79" width="1.39" height="12.86" rx="0.3" ry="0.3"/><rect class="cls-7" x="97.43" width="1.39" height="12.86" rx="0.3" ry="0.3"/><path class="cls-2" d="M68.87,12.39a3.7,3.7,0,0,1-.94,2.13,3.7,3.7,0,0,1-2.13.94,3.72,3.72,0,0,1,.94-2.13A3.72,3.72,0,0,1,68.87,12.39Z"/><path class="cls-2" d="M70.71,14.23a3.72,3.72,0,0,1-.94,2.13,3.72,3.72,0,0,1-2.13.94,3.72,3.72,0,0,1,.94-2.13A3.72,3.72,0,0,1,70.71,14.23Z"/><path class="cls-2" d="M88.33,12.39a3.7,3.7,0,0,1-.94,2.13,3.7,3.7,0,0,1-2.13.94,3.72,3.72,0,0,1,.94-2.13A3.72,3.72,0,0,1,88.33,12.39Z"/><path class="cls-2" d="M90.17,14.23a3.72,3.72,0,0,1-.94,2.13,3.72,3.72,0,0,1-2.13.94A3.72,3.72,0,0,1,88,15.17,3.7,3.7,0,0,1,90.17,14.23Z"/><circle class="cls-9" cx="80.82" cy="42.17" r="15.25"/><circle class="cls-9" cx="80.82" cy="42.17" r="15.25"/><circle class="cls-9" cx="80.82" cy="41.98" r="9.46"/><path class="cls-10" d="M80.82,52.22A10.25,10.25,0,1,1,91.07,42,10.25,10.25,0,0,1,80.82,52.22Zm0-18.92A8.68,8.68,0,1,0,89.5,42,8.68,8.68,0,0,0,80.82,33.3Z"/><path class="cls-10" d="M95.42,43H93.85V41.39h1.57Zm-3.14,0H90.71V41.39h1.57Zm-3.14,0H87.57V41.39h1.57ZM86,43H84.42V41.39H86Zm-3.15,0H81.28V41.39h1.57Zm-3.14,0H78.14V41.39h1.57Zm-3.14,0H75V41.39h1.57Zm-3.15,0H71.85V41.39h1.57Zm-3.14,0H68.71V41.39h1.57Zm-3.14,0H65.57V41.39h1.57Z"/><path class="cls-10" d="M81.61,56.77H80V55.2h1.57Zm0-3.14H80V52.06h1.57Zm0-3.14H80V48.92h1.57Zm0-3.15H80V45.77h1.57Zm0-3.14H80V42.63h1.57Zm0-3.14H80V39.49h1.57Zm0-3.14H80V36.34h1.57Zm0-3.15H80V33.2h1.57Zm0-3.14H80V30.06h1.57Zm0-3.14H80V26.92h1.57Z"/><polyline class="cls-4" points="80.55 41.66 86.98 29 89.9 29.91 95.09 36.78 95.51 38.03"/><path class="cls-10" d="M80.82,58.21a16,16,0,1,1,16-16A16.06,16.06,0,0,1,80.82,58.21Zm0-30.51A14.47,14.47,0,1,0,95.29,42.17,14.48,14.48,0,0,0,80.82,27.7Z"/><circle class="cls-4" cx="84.74" cy="46.87" r="0.83"/><circle class="cls-4" cx="75.57" cy="37.47" r="0.83"/><circle class="cls-4" cx="72.62" cy="51.44" r="0.83"/></svg>