<svg id="Layer_1" data-name="Layer 1" xmlns="http://www.w3.org/2000/svg" viewBox="0 0 100 100"><defs><style>.cls-1{fill:#ffc640;}.cls-2{fill:#ffc63f;}.cls-3{fill:#231f20;}.cls-4{fill:#deae38;}</style></defs><title>seahorse</title><rect class="cls-1" x="41.91" y="37.05" width="37.23" height="20.88" rx="9.05" ry="9.05" transform="translate(2.11 97.54) rotate(-78.71)"/><path class="cls-2" d="M60.64,67.67l-.19-3a7.46,7.46,0,0,0,1.87-.36l.93,2.88A10.64,10.64,0,0,1,60.64,67.67ZM58,67.49,58.27,66,58,67.49,55.7,67l.59-3,2.24.45L58.27,66Zm-4.73-1.16A10.08,10.08,0,0,1,50.91,65l1.83-2.39a8,8,0,0,0,1.65.95ZM65.65,66,64,63.49a7.4,7.4,0,0,0,1.47-1.21l2.2,2.07A10.14,10.14,0,0,1,65.65,66ZM49,63.13a10.72,10.72,0,0,1-1.37-2.27l2.75-1.23a7.55,7.55,0,0,0,1,1.63Zm20.25-.93-2.64-1.45a8,8,0,0,0,.7-1.77l2.92.75A10.52,10.52,0,0,1,69.27,62.2ZM46.88,58.31a10,10,0,0,1-.15-1.73c0-.31,0-.62.05-.93l3,.26c0,.23,0,.45,0,.67a7.3,7.3,0,0,0,.11,1.23Zm23.85-.9-3-.59.45-2.24,3,.59ZM50.15,53.83l-3-.59L47.64,51l3,.59Zm21.47-.9-3-.59.45-2.25,3,.6ZM51.05,49.34l-3-.59.45-2.24,3,.59Zm21.47-.9-3-.59L70,45.61l3,.59ZM52,44.86l-3-.59L49.43,42l3,.6ZM73.41,44l-3-.59.45-2.25,3,.6ZM52.84,40.37l-3-.59.45-2.24,3,.59ZM74.28,39.3l-3-.26c0-.22,0-.44,0-.65a7.44,7.44,0,0,0-.1-1.25l3-.5a10.25,10.25,0,0,1,.15,1.75C74.32,38.69,74.31,39,74.28,39.3ZM53.73,36l-2.92-.75a10.35,10.35,0,0,1,1-2.47l2.64,1.46A7.27,7.27,0,0,0,53.73,36Zm16.91-.64a7.67,7.67,0,0,0-1-1.63L72,31.82a10.76,10.76,0,0,1,1.38,2.27ZM55.55,32.67,53.36,30.6a10.73,10.73,0,0,1,2-1.69L57,31.46A8.17,8.17,0,0,0,55.55,32.67Zm12.75-.31a7.65,7.65,0,0,0-1.64-.94l1.16-2.79A10.65,10.65,0,0,1,70.13,30Zm-3.55-1.48-2.27-.45L62.8,29,63,27.46l.1,0,2.23.44Zm-6-.22-.93-2.87a10.65,10.65,0,0,1,2.62-.5l.17,3A7,7,0,0,0,58.75,30.66Z"/><path class="cls-1" d="M31.92,24.59a3.42,3.42,0,0,1-.86-6.74l17.13-4.46A3.43,3.43,0,0,1,49.92,20L32.78,24.48A3.22,3.22,0,0,1,31.92,24.59Z"/><path class="cls-1" d="M70.82,11.53c-7-8.46-21.06-3.78-25.68-2.24A6.89,6.89,0,0,0,49.07,22.5c.84,1.78,3.63,3.1,7,3.1a11.37,11.37,0,0,0,3.29-.47,31.71,31.71,0,0,1-2.27,5.4,6.9,6.9,0,0,0,12.08,6.66C70.66,34.41,78,20.11,70.82,11.53Z"/><path class="cls-2" d="M62,42.19a8.41,8.41,0,0,1-2.63-.79l1.33-2.71a5.51,5.51,0,0,0,1.69.51Zm2.75-.1-.61-3a5.32,5.32,0,0,0,1.65-.63l1.52,2.61A8.65,8.65,0,0,1,64.77,42.09Zm-7.61-2.28a8.24,8.24,0,0,1-1.61-2.23l2.71-1.34a5.37,5.37,0,0,0,1,1.43Zm12.29-.46-2.29-2a5.45,5.45,0,0,0,.65-.92l.37-.7,2.68,1.4-.41.76A8.93,8.93,0,0,1,69.45,39.35Zm2.43-4.3-2.74-1.26c.3-.66.59-1.33.86-2l2.8,1.12C72.52,33.62,72.21,34.34,71.88,35.05ZM54.75,35a10.34,10.34,0,0,1-.07-1.11,8.83,8.83,0,0,1,.16-1.63l3,.58a5.33,5.33,0,0,0-.1,1.05,5.52,5.52,0,0,0,0,.71Zm3.7-3.84-2.66-1.43c.32-.6.64-1.25.93-1.93L59.49,29C59.16,29.72,58.81,30.44,58.45,31.11Zm15.16-.41-2.85-1c.23-.7.45-1.4.63-2.08l2.91.8C74.1,29.18,73.87,29.94,73.61,30.7ZM56,27.11a13.26,13.26,0,0,1-2.54-.24l.57-3a9.82,9.82,0,0,0,2,.19Zm2.53-.24-.15-.81-.88-.32c.13-.36.25-.71.36-1.06l.27.08L58,23.91c.3-.06.61-.14.9-.22l2.73-.82-.86,2.72c-.12.38-.26.77-.4,1.17l-.62-.22v0C59.36,26.69,59,26.79,58.55,26.87Zm16.3-.73-3-.59c.15-.72.26-1.43.35-2.12l3,.36C75.14,24.55,75,25.35,74.85,26.14ZM51,26.09a7.76,7.76,0,0,1-2.33-1.58l2.17-2.11a4.5,4.5,0,0,0,1.41.94Zm-3.68-1.86a8.09,8.09,0,0,1-1.9-.22l.69-2.93a5.55,5.55,0,0,0,1.21.14,4.63,4.63,0,0,0,.54,0l.3,3C47.87,24.22,47.61,24.22,47.31,24.23ZM42.87,23a8.49,8.49,0,0,1-2.06-1.81l2.34-1.91a5.22,5.22,0,0,0,1.32,1.16ZM75.4,21.39l-3-.07V20.9a14.89,14.89,0,0,0-.08-1.66l3-.29q.09.94.09,1.95C75.41,21.06,75.41,21.22,75.4,21.39ZM39.45,18.77a2.31,2.31,0,0,1-.1-.28,8.32,8.32,0,0,1-.43-2.42l3-.09a5.22,5.22,0,0,0,.27,1.56l.06.16ZM72,17.21a12.55,12.55,0,0,0-.62-1.91l2.78-1.17a15.07,15.07,0,0,1,.78,2.38Zm-29.8-3-2.89-.89a8.73,8.73,0,0,1,1.23-2.46L43,12.67A5.49,5.49,0,0,0,42.18,14.24Zm28.25-.71c-.24-.36-.5-.71-.77-1a11,11,0,0,0-1.41-1.41l2-2.31A14.17,14.17,0,0,1,73,11.89Zm-26.21-2.1L42.48,9a8.33,8.33,0,0,1,2.19-1.1l.23-.08,1,2.86-.23.08A5.43,5.43,0,0,0,44.22,11.43ZM48,10l-.88-2.89c.69-.21,1.44-.43,2.24-.64l.76,2.93C49.33,9.56,48.62,9.77,48,10Zm18.65,0a13.19,13.19,0,0,0-1.82-.85l1-2.83a15.21,15.21,0,0,1,2.27,1.06ZM52.23,8.86,51.6,5.91c.79-.17,1.57-.31,2.32-.42l.45,3C53.68,8.58,53,8.71,52.23,8.86Zm10.6-.34a18.17,18.17,0,0,0-2.06-.31l.29-3a20.24,20.24,0,0,1,2.41.36Zm-6.31-.3-.26-3c.82-.07,1.62-.11,2.39-.11v3C58,8.12,57.25,8.15,56.52,8.22Z"/><path class="cls-1" d="M49.49,8.25s5.42-6,3.44-8.25h9.85a9.32,9.32,0,0,0,4.35,9.47"/><rect class="cls-1" x="40.99" y="4.73" width="8.46" height="12.42" rx="2.08" ry="2.08"/><path class="cls-1" d="M65.57,59.69a1.3,1.3,0,0,0-.11.25l-.14.34c-.09.24-.18.48-.26.74-.19.5-.34,1-.51,1.55-.32,1-.62,2.12-.87,3.21a48.76,48.76,0,0,0-1.09,6.54,32.73,32.73,0,0,0,0,6.49,13.65,13.65,0,0,0,.21,1.58l.14.78.06.39,0,.1,0,.18.09.35a10.88,10.88,0,0,1-.1,5.75,12.34,12.34,0,0,1-2.49,4.52,15.43,15.43,0,0,1-3.46,3,18.85,18.85,0,0,1-8,2.93,12.09,12.09,0,0,1-4.31-.21A6.56,6.56,0,0,1,41,95.83a6.36,6.36,0,0,1-1.14-4,13.27,13.27,0,0,1,.73-3.75,13.06,13.06,0,0,0,.21,3.66,4.85,4.85,0,0,0,1.59,2.79c1.57,1.24,3.87.94,5.85.17a14,14,0,0,0,5.25-3.63,7.07,7.07,0,0,0,2.13-4.63,2.78,2.78,0,0,0-.56-1.6L55,84.78l0,0L55,84.61l-.22-.49-.46-1a21.36,21.36,0,0,1-.82-2,43,43,0,0,1-2.16-8.23,61.55,61.55,0,0,1-.76-8.33c0-1.39,0-2.78,0-4.18,0-.71.06-1.41.13-2.12,0-.36,0-.72.09-1.09l.07-.57c0-.2,0-.37.09-.66l1.32-7.24a9.88,9.88,0,1,1,13.3,11Z"/><path class="cls-2" d="M41.76,89.59l-1.29-.36H39.08c0-.12,0-.24,0-.36l-.24-.07c.1-.35.2-.7.31-1L42.6,76.21l-.47,12c0,.4,0,.75,0,1.1h-.24C41.83,89.36,41.8,89.48,41.76,89.59Z"/><path class="cls-2" d="M47,100a12.54,12.54,0,0,1-2.57-.34l.68-2.76h0a6.43,6.43,0,0,1-2-.29l-1.22,2a7.38,7.38,0,0,1-2.12-1.91l2.43-1.8a3.94,3.94,0,0,0,.78.8l.85-2a3.3,3.3,0,0,0,1.23.21h.33l.2,3a8.83,8.83,0,0,0,1.48.15Zm2.51-.13-.39-3a15.8,15.8,0,0,0,2-.4L52,99.39A19.54,19.54,0,0,1,49.53,99.87Zm4.76-1.25-1.12-2.8a18.24,18.24,0,0,0,1.9-.9l1.44,2.65A19.49,19.49,0,0,1,54.29,98.62Zm-6-2.28-1-2.86.46-.17a11.4,11.4,0,0,0,1.38-.64l1.45,2.64a13.73,13.73,0,0,1-1.74.82Zm10.36-.06-1.75-2.46a14.38,14.38,0,0,0,1.59-1.31l2.08,2.18A16.37,16.37,0,0,1,58.6,96.28ZM40.31,94.43c-.12-.2-.24-.41-.35-.63l-1.34.32a8.7,8.7,0,0,1-.24-2.07v-.24c0-.1,0-.24,0-.38l2.2.11,1.65-.35c0,.06,0,.13,0,.19a4.43,4.43,0,0,0,.56,1.42Zm12.36-.5-1.86-2.38a13,13,0,0,0,1.5-1.37l2.21,2A15.81,15.81,0,0,1,52.67,93.93Zm9.53-1.1L59.81,91a12.34,12.34,0,0,0,1.08-1.69l2.68,1.38A14.15,14.15,0,0,1,62.2,92.83Zm-6.11-2.69-2.62-1.51A5.12,5.12,0,0,0,54.11,87l3,.53A8.19,8.19,0,0,1,56.09,90.14Zm8.43-1.83-2.9-.87a8.76,8.76,0,0,0,.34-1.9l3,.2A11.91,11.91,0,0,1,64.52,88.31ZM53.94,85.87a.57.57,0,0,0-.08-.13l-.27-.49-.73-1.57,2.73-1.29.77,1.66a1.58,1.58,0,0,1,.15.24Zm7.94-2.29a6.69,6.69,0,0,0-.2-1l-.23-1.14,3-.55.2,1a11.73,11.73,0,0,1,.25,1.31ZM52,81.44c-.27-.73-.53-1.48-.76-2.23l2.89-.89c.21.7.45,1.4.7,2.08ZM61.1,79V79c-.08-.76-.13-1.53-.15-2.29l3-.1c0,.7.06,1.4.13,2.1Zm-10.53-2.1c-.19-.76-.36-1.53-.51-2.3l3-.58c.14.72.29,1.44.47,2.15ZM64,74.39l-3-.11c0-.7.07-1.41.14-2.11l0-.26,3,.3,0,.25C64,73.11,64,73.75,64,74.39ZM49.67,72.32c-.11-.77-.21-1.54-.3-2.32l3-.32c.08.73.18,1.47.29,2.2ZM64.4,70l-3-.45c.12-.77.25-1.55.41-2.32l3,.59C64.63,68.58,64.5,69.31,64.4,70ZM49.17,67.68c-.06-.78-.1-1.55-.12-2.33l3-.1q0,1.11.12,2.22Zm16.08-2L62.32,65c.17-.68.36-1.4.61-2.27l2.9.85C65.59,64.38,65.41,65.05,65.25,65.69ZM52,63H49c0-.77,0-1.55,0-2.32l3,.09C52,61.54,52,62.28,52,63ZM66.5,61.45l-2.85-1c.08-.26.17-.5.26-.74l.18-.44a1.67,1.67,0,0,1,.93-1,7.45,7.45,0,0,0,.7-.32l1.36,2.7-.36.17C66.65,61,66.58,61.24,66.5,61.45Zm2.77-2.21-1.93-2.32a8.39,8.39,0,0,0,1.33-1.4l2.41,1.83A12,12,0,0,1,69.27,59.24Zm-17.09-.65-3-.24,0-.21c0-.34.06-.72.1-1.11l.09-.73c0-.1,0-.2,0-.32l3,.45-.11.92c0,.35-.07.7-.09,1Zm20.23-3.5-2.76-1.22A8.52,8.52,0,0,0,70.22,52l3,.55A12,12,0,0,1,72.41,55.09ZM52.8,54.23l-3-.54.41-2.24,3,.54Zm17.56-4.12a8.67,8.67,0,0,0-.31-1.9l2.9-.82A11.3,11.3,0,0,1,73.37,50Zm-16.75-.36-3-.54.14-.76a10.52,10.52,0,0,1,.44-1.67l2.85,1A10.09,10.09,0,0,0,53.75,49Zm15.7-3.32a8.17,8.17,0,0,0-1.12-1.57l2.24-2A10.94,10.94,0,0,1,72,45ZM54.9,46l-2.55-1.61a11.46,11.46,0,0,1,1.64-2l2.12,2.15A8.29,8.29,0,0,0,54.9,46Zm11.85-2.43a8.38,8.38,0,0,0-1.7-.9l1.1-2.81a11.39,11.39,0,0,1,2.31,1.23Zm-9.12-.25-1.57-2.58a10.86,10.86,0,0,1,2.37-1.1l1,2.87A8.17,8.17,0,0,0,57.63,43.34Zm5.55-1.14a8.23,8.23,0,0,0-1.92-.06l-.26-3a11.51,11.51,0,0,1,2.62.08Z"/><path class="cls-1" d="M31.53,17.72a18.87,18.87,0,0,1-6.94-.07s1.71,7.51,4.1,9.77a7.52,7.52,0,0,1,4.58-3.07"/><circle class="cls-3" cx="45.04" cy="10.72" r="1.35"/><rect class="cls-4" x="53.94" y="34.41" width="18.01" height="1.88" rx="0.46" ry="0.46" transform="translate(8.48 -12.03) rotate(11.7)"/><rect class="cls-4" x="52.92" y="39.3" width="18.01" height="1.88" rx="0.46" ry="0.46" transform="translate(9.45 -11.72) rotate(11.7)"/><rect class="cls-4" x="51.91" y="44.19" width="18.01" height="1.88" rx="0.46" ry="0.46" transform="translate(10.42 -11.42) rotate(11.7)"/><rect class="cls-4" x="50.9" y="49.08" width="18.01" height="1.88" rx="0.46" ry="0.46" transform="translate(11.39 -11.11) rotate(11.7)"/><rect class="cls-4" x="49.89" y="53.97" width="18.01" height="1.88" rx="0.46" ry="0.46" transform="translate(12.36 -10.8) rotate(11.7)"/><rect class="cls-4" x="48.87" y="58.86" width="18.01" height="1.88" rx="0.46" ry="0.46" transform="translate(13.33 -10.5) rotate(11.7)"/></svg>