<svg id="Layer_1" data-name="Layer 1" xmlns="http://www.w3.org/2000/svg" viewBox="0 0 100 100"><defs><style>.cls-1{fill:#ffc640;}.cls-2{fill:#c7552e;}.cls-3{fill:#f37d3b;}.cls-4{fill:#fff;}</style></defs><title>ring</title><ellipse class="cls-1" cx="49.48" cy="24.22" rx="13.46" ry="8.83"/><polyline class="cls-2" points="40.37 20.86 32.26 5.13 49.48 0 64.99 14.36 57.21 20.86 46.61 24.22"/><path class="cls-1" d="M50,100A36.5,36.5,0,1,1,86.5,63.5,36.54,36.54,0,0,1,50,100Zm0-62.75A26.25,26.25,0,1,0,76.24,63.5,26.28,26.28,0,0,0,50,37.25Z"/><polyline class="cls-3" points="40.37 20.86 32.26 5.13 49.48 0 64.99 14.36 57.21 20.86 46.61 24.22 50.63 14.79 37.81 8.12 41.74 21.45"/><polygon class="cls-4" points="51.74 8.03 53.96 12.11 55.08 6.84 51.74 8.03"/></svg>