<svg id="Layer_1" data-name="Layer 1" xmlns="http://www.w3.org/2000/svg" viewBox="0 0 100 100"><defs><style>.cls-1{fill:#7d7d7d;}.cls-2{fill:#3e3e3f;}.cls-3{fill:#fff;}.cls-4{fill:#bbbdbf;}.cls-5{fill:#ffc640;}.cls-6{fill:#f05c38;}.cls-7{fill:#6ab8d9;}.cls-8{fill:#eeefef;}</style></defs><title>pegasus</title><polygon class="cls-1" points="59.39 57.53 46.64 57.53 51.12 88.96 53.48 88.96 59.39 57.53"/><polyline class="cls-1" points="53.43 91.81 63.59 90.86 53.62 88.36"/><rect class="cls-1" x="49.95" y="87.24" width="4.39" height="2.88" rx="0.72" ry="0.72"/><rect class="cls-1" x="49.95" y="89.19" width="4.39" height="2.88" rx="0.72" ry="0.72"/><polygon class="cls-2" points="65.82 95.24 66.28 86.65 60.31 90.64 65.82 95.24"/><polygon class="cls-3" points="71.64 57.53 58.9 57.53 63.37 88.96 65.73 88.96 71.64 57.53"/><polyline class="cls-3" points="65.69 91.81 75.84 90.86 65.87 88.36"/><rect class="cls-3" x="62.21" y="87.24" width="4.39" height="2.88" rx="0.72" ry="0.72"/><rect class="cls-3" x="62.21" y="89.19" width="4.39" height="2.88" rx="0.72" ry="0.72"/><polygon class="cls-2" points="78.07 95.24 78.53 86.65 72.56 90.64 78.07 95.24"/><polygon class="cls-1" points="24.32 57.53 11.57 57.53 16.05 88.96 18.41 88.96 24.32 57.53"/><polyline class="cls-1" points="18.36 91.81 28.52 90.86 18.55 88.36"/><rect class="cls-1" x="14.88" y="87.24" width="4.39" height="2.88" rx="0.72" ry="0.72"/><rect class="cls-1" x="14.88" y="89.19" width="4.39" height="2.88" rx="0.72" ry="0.72"/><polygon class="cls-2" points="30.75 95.24 31.21 86.65 25.24 90.64 30.75 95.24"/><path class="cls-4" d="M66.11,64.92a15.05,15.05,0,0,1,.51-3.12,18.92,18.92,0,0,1,1.06-3,16.65,16.65,0,0,1,1.69-2.88A11.45,11.45,0,0,1,72,53.35a8.63,8.63,0,0,1,3.9-1.53,8.82,8.82,0,0,1,4.35.6,9.1,9.1,0,0,1,1,.42l.88.5a15.74,15.74,0,0,1,1.47,1,13.71,13.71,0,0,1,2.65,2.72,12,12,0,0,1,1.78,3.56,13.51,13.51,0,0,1,.56,3.73,24.11,24.11,0,0,1-.18,3.21,19.63,19.63,0,0,0-.17,2.27,4.28,4.28,0,0,0,0,.56.53.53,0,0,0,0,.12s0,.09,0,.11a.37.37,0,0,1,0,.09.31.31,0,0,1,0,.08.37.37,0,0,0,.29.28,1.61,1.61,0,0,0,.84,0,4.78,4.78,0,0,0,2.07-1.15,3.28,3.28,0,0,0,.75-1,1.39,1.39,0,0,0,0-1.31,1.54,1.54,0,0,1,.67.51,2.15,2.15,0,0,1,.36.85,4,4,0,0,1-.14,1.82,6.27,6.27,0,0,1-2,3.07,5.36,5.36,0,0,1-1.93,1,4.47,4.47,0,0,1-3.26-.39,3.62,3.62,0,0,1-.57-.35,4,4,0,0,1-.5-.4,4.78,4.78,0,0,1-.45-.45,6.23,6.23,0,0,1-1.22-2.11,14.09,14.09,0,0,1-.64-3.66c-.08-1-.13-1.94-.24-2.74A7.92,7.92,0,0,0,80.82,61a9.7,9.7,0,0,0-1.46-1.58c-.27-.26-.6-.5-.91-.75l-.39-.28c-.13-.1-.26-.15-.38-.24a3.91,3.91,0,0,0-1.44-.51,3.85,3.85,0,0,0-1.73.23,13.82,13.82,0,0,0-4.2,2.81C68.9,61.93,67.54,63.38,66.11,64.92Z"/><path class="cls-4" d="M28.16,16.22v36.6l16.21,4L39.74,27.9S37.26,14,28.16,16.22Z"/><path class="cls-3" d="M47.07,79.53c-17.17,0-26.79-5-28.11-5.69l11.41-20.7L30.16,53c.44.22,10.84,5.24,31.15,1.47a11.82,11.82,0,1,1,4.31,23.25A102.06,102.06,0,0,1,47.07,79.53Z"/><path class="cls-3" d="M39.12,81.76l-.29.11-.13,0-.07,0-.28.08c-.2.07-.33.1-.48.14l-.44.11-.4.1c-.55.12-1.05.21-1.57.3s-1,.15-1.56.2l-.79.08-.82,0a26.77,26.77,0,0,1-7.48-.64c-.33-.07-.7-.18-1.07-.28l-1.09-.35-.55-.18-.57-.23-1.13-.49-.55-.26-.57-.3c-.38-.21-.75-.43-1.11-.65A19.17,19.17,0,0,1,16,78.11a20.45,20.45,0,0,1-5.8-7.59,21.52,21.52,0,0,1-1.68-6.64c-.05-.48-.08-1-.11-1.42s0-.84,0-1.26l0-1.24c0-.39.07-.74.11-1.11a33.72,33.72,0,0,1,.69-4.05L9.77,53c.08-.28.16-.58.25-.86l.27-.8.55-1.6.6-1.5c.21-.49.4-1,.62-1.47l.64-1.4c.42-.94.88-1.82,1.33-2.7l.68-1.32.7-1.27c.47-.84.93-1.69,1.43-2.49l1.45-2.41c.87-1.29,1.68-2.57,2.41-3.82S22,29,22.5,28a12.25,12.25,0,0,1,.56-1.14c.16-.24.28-.24.64,0a.79.79,0,0,1,.15.12l.18.11.19.12.2.1a.81.81,0,0,0,.22.07.6.6,0,0,0,.19.06.94.94,0,0,0,.33,0c.36-.07.22-.33-.16-.48a4.63,4.63,0,0,0-1.62-.28,14.67,14.67,0,0,0-2.15.1,34.24,34.24,0,0,0-4.72.94c-1.62.42-3.24.93-4.87,1.49A101,101,0,0,0,2,33.15a104.71,104.71,0,0,1,7.47-7.59c1.33-1.22,2.7-2.4,4.15-3.54a42.15,42.15,0,0,1,4.72-3.26,24.2,24.2,0,0,1,2.79-1.41,16,16,0,0,1,3.47-1.06l.51-.08.55-.06a10.77,10.77,0,0,1,1.16,0h.31l.32,0,.66.07a6.11,6.11,0,0,1,.7.13,4.93,4.93,0,0,1,.71.18,9.53,9.53,0,0,1,1.49.58c.25.13.49.25.74.4s.48.31.71.48a7.18,7.18,0,0,1,.67.54q.33.28.63.6a6.53,6.53,0,0,1,.55.63,5.66,5.66,0,0,1,.5.65c.15.22.29.44.43.67s.14.22.2.33l.17.32A12.94,12.94,0,0,1,36.16,23a11.67,11.67,0,0,1,.42,1.21l.16.59.08.29.06.27a24.17,24.17,0,0,1,.51,4,43.21,43.21,0,0,1-.25,6.67c-.22,2.07-.52,4-.87,6L36,44.48c-.12.81-.18,1.6-.26,2.39l-.12,1.18-.07,1.16c0,.77-.1,1.53-.09,2.26l0,1.1c0,.36,0,.7,0,1l0,1,.11,1,.05.46c0,.15.06.28.09.42l.16.81.24.64.05.15c0,.06,0,.08.07.12l.14.2a1.4,1.4,0,0,0,.12.18l.15,0a.61.61,0,0,0,.13,0l.12-.15a2.38,2.38,0,0,0-.1-1.75,4.48,4.48,0,0,0-.33-.83l-.23-.46c-.09-.16-.19-.32-.29-.48l-.34-.47a6.25,6.25,0,0,0-.4-.5,4.89,4.89,0,0,0-.44-.47c-.15-.15-.31-.32-.47-.47-.33-.3-.71-.56-1-.81a5.49,5.49,0,0,0-.54-.35l-.29-.16-.25-.15a4.2,4.2,0,0,0-.52-.26l-.26-.12-.24-.11a3.66,3.66,0,0,0-.46-.18l-.45-.16a23,23,0,0,0-2.32-.6l-.18,0-.16,0-.3-.07A2.4,2.4,0,0,0,27,50h-.23a.5.5,0,0,0-.18,0l-.13,0h0l-.09,0-.22.07a17.1,17.1,0,1,1,13,31.61Z"/><path class="cls-3" d="M36.92,50.55s-8.58,3.9,22.79,4.26L54.17,69.27,19.09,65.09"/><path class="cls-1" d="M4.28,24.75A6.27,6.27,0,0,0,1,33l.13.3a6.26,6.26,0,0,0,8.19,3.3l2-.87-6-11.39Z"/><path class="cls-3" d="M27,22.23l-.13-.3a6.28,6.28,0,0,0-8.2-3.3L5.36,24.29l6,11.39,12.33-5.25A6.28,6.28,0,0,0,27,22.23Z"/><path class="cls-3" d="M28,16.57a2.21,2.21,0,0,1-4.41,0c0-1.22,2.21-7.12,2.21-7.12S28,15.35,28,16.57Z"/><circle class="cls-1" cx="2.44" cy="25.86" r="2.44"/><circle class="cls-2" cx="30.83" cy="23.78" r="0.74"/><circle class="cls-2" cx="1.7" cy="25.86" r="0.74"/><circle class="cls-1" cx="5.92" cy="28.3" r="2.44"/><circle class="cls-2" cx="5.18" cy="28.3" r="0.74"/><path class="cls-4" d="M29.54,16S22.8,14.63,19,17.38l7.07,3S30.33,18,32.57,19c.12.05,4.25,4,4.37,4.08,2.38,1.24-1.53-3.34-1.53-3.34Z"/><path class="cls-3" d="M34,18.57a2.21,2.21,0,0,1-4.41,0c0-1.22,2.21-7.12,2.21-7.12S34,17.35,34,18.57Z"/><polygon class="cls-3" points="40.89 57.53 28.15 57.53 32.62 88.96 34.98 88.96 40.89 57.53"/><polyline class="cls-3" points="34.94 91.81 45.09 90.86 35.12 88.36"/><rect class="cls-3" x="31.46" y="87.24" width="4.39" height="2.88" rx="0.72" ry="0.72"/><rect class="cls-3" x="31.46" y="89.19" width="4.39" height="2.88" rx="0.72" ry="0.72"/><polygon class="cls-2" points="47.32 95.24 47.78 86.65 41.81 90.64 47.32 95.24"/><circle class="cls-5" cx="65.63" cy="59.55" r="0.89"/><circle class="cls-6" cx="70.09" cy="63.38" r="1.38"/><circle class="cls-7" cx="63.26" cy="63.36" r="0.52"/><polyline class="cls-4" points="27.9 16.64 20.27 18.77 21.99 20.77 28.16 18.71"/><path class="cls-3" d="M43.06,56.78s10.76-19.26,5.65-24.53S32.82,12.2,44.22,5.3,100,59.55,100,59.55L85.71,51.43l2.86,6.28L71.84,47.37"/><path class="cls-8" d="M43.06,56.78l12.69-.21C59,50.86,75,49.32,75,49.32l-9.61-5.94L60,39.9S57.5,49.85,43.06,56.78Z"/></svg>