<svg id="Layer_1" data-name="Layer 1" xmlns="http://www.w3.org/2000/svg" viewBox="0 0 100 100"><defs><style>.cls-1{fill:#9dc8dc;}.cls-2{fill:#ebf7fd;}.cls-3{fill:#ffc640;}.cls-4{fill:#3e3e3f;}</style></defs><title>shark</title><path class="cls-1" d="M81.16,51.52C80.05,45.15,76.61,35.9,66,35.9,49.91,35.9,12.4,49.44,12.4,49.44s2.29.83,6,2.07C39.3,55.13,60.23,57.94,81.16,51.52Z"/><path class="cls-2" d="M81.16,51.52c-19.19-3.89-42.82-3.58-62.79,0C29.62,55.31,53.89,63,66,63c16.12,0,15.65-5.58,15.65-5.58A34.27,34.27,0,0,0,81.16,51.52Z"/><path class="cls-1" d="M48.06,56.92,42.74,61.4l2.15,1.06-8,6.59s19.17-.88,22.78-11.52"/><polygon class="cls-3" points="72.81 56.8 75.47 56.8 74.14 60.7 72.81 56.8"/><polygon class="cls-3" points="68.91 56.55 71.57 56.55 70.24 60.45 68.91 56.55"/><polygon class="cls-3" points="75.22 56.2 77.89 56.2 76.56 60.1 75.22 56.2"/><polygon class="cls-3" points="77.89 55.91 80.56 55.91 79.22 59.81 77.89 55.91"/><polygon class="cls-3" points="80.36 55.3 83.02 55.3 81.69 59.2 80.36 55.3"/><path class="cls-1" d="M100,46.88c.8,7.59-22,11-30.66,11s-15.59-4.92-15.59-11,7-11,15.59-11S99.23,39.78,100,46.88Z"/><circle class="cls-4" cx="69.1" cy="47.63" r="1.14"/><path class="cls-1" d="M56.52,37.2c.46,1.36-1.37,3.21-4.1,4.14s-5.31.59-5.77-.76.8-5.52.28-9C46.49,28.77,56.06,35.85,56.52,37.2Z"/><path class="cls-1" d="M19.26,49.13S0,35.2,0,35.4,7.87,49.13,7.87,49.13L3.12,57.57l15.62-6.13"/></svg>