<svg id="Layer_1" data-name="Layer 1" xmlns="http://www.w3.org/2000/svg" viewBox="0 0 100 100"><defs><style>.cls-1{fill:#3e3e3f;}.cls-2{fill:#aed2c4;}.cls-3{fill:#09a582;}.cls-4{fill:#ffc640;}.cls-5{fill:#6ab8d9;}.cls-6{fill:#ebf7fd;}</style></defs><title>space</title><path class="cls-1" d="M85.71,0H14.29A14.33,14.33,0,0,0,0,14.29V85.71A14.33,14.33,0,0,0,14.29,100H85.71A14.33,14.33,0,0,0,100,85.71V14.29A14.33,14.33,0,0,0,85.71,0Z"/><path class="cls-2" d="M26.44,66.08c8.64-4.41,16-7.32,16.77-6.63l5.59-2.86c-3.16,0-12.32,3.58-22.68,8.87S7.54,76.12,5.64,78.65l5.6-2.86C11.12,74.77,17.8,70.5,26.44,66.08Z"/><circle class="cls-3" cx="27.3" cy="68.52" r="13.76"/><path class="cls-2" d="M48.8,56.59l-5.59,2.86s0,0,.06,0c.45.88-6.35,5.26-15.2,9.78s-16.38,7.47-16.83,6.59c0,0,0-.05,0-.08l-5.6,2.86c-.36.49-.52.88-.39,1.14.82,1.6,11.49-2.22,23.83-8.52S50.77,58.54,50,56.94C49.82,56.68,49.41,56.58,48.8,56.59Z"/><circle class="cls-4" cx="46.31" cy="47.21" r="0.81"/><circle class="cls-4" cx="22.64" cy="47.21" r="0.81"/><circle class="cls-4" cx="50" cy="35.1" r="0.81"/><circle class="cls-4" cx="69.47" cy="29.12" r="0.81"/><circle class="cls-4" cx="81.54" cy="86.87" r="0.81"/><circle class="cls-4" cx="72.53" cy="44.04" r="0.69"/><circle class="cls-4" cx="12.84" cy="18.94" r="0.69"/><circle class="cls-4" cx="65.78" cy="54.7" r="0.34"/><circle class="cls-4" cx="91.91" cy="22.12" r="0.34"/><circle class="cls-4" cx="36.4" cy="14.29" r="0.34"/><circle class="cls-4" cx="53.02" cy="39.63" r="0.34"/><circle class="cls-4" cx="63.43" cy="15.78" r="0.34"/><circle class="cls-4" cx="60.72" cy="83.18" r="0.34"/><path class="cls-4" d="M55.34,18.94s-12.88,2.3-14.15,2.3a2.3,2.3,0,1,1,0-4.6C42.46,16.64,55.34,18.94,55.34,18.94Z"/><circle class="cls-4" cx="41.19" cy="18.94" r="2.3"/><path class="cls-4" d="M94.77,46.14S70,50.57,67.51,50.57a4.43,4.43,0,0,1,0-8.86C70,41.71,94.77,46.14,94.77,46.14Z"/><circle class="cls-4" cx="67.51" cy="46.14" r="4.43"/><circle class="cls-5" cx="77.07" cy="24.16" r="13.76"/><path class="cls-2" d="M33.36,93c19.94-10.19,37-16.9,38.7-15.3L85,71.09c-7.31.12-28.44,8.25-52.34,20.47-5.54,2.84-10.81,5.67-15.7,8.44h3.32C24.28,97.74,28.69,95.38,33.36,93Z"/><path class="cls-2" d="M87.62,71.9c-.31-.6-1.25-.84-2.65-.81l-12.91,6.6s.11,0,.14.1c1,2-14.3,11.91-34.36,22.21h11C72.53,87.18,89.29,75.17,87.62,71.9Z"/><circle class="cls-6" cx="62.79" cy="89.54" r="6.7"/></svg>