<svg id="Layer_1" data-name="Layer 1" xmlns="http://www.w3.org/2000/svg" viewBox="0 0 100 100"><defs><style>.cls-1{fill:#9dc8dc;}.cls-2{fill:#86aabc;}.cls-3{fill:#fff;}.cls-4{fill:#c5c7c9;}.cls-5{fill:#ffc640;}.cls-6{fill:#fcca98;}.cls-7{fill:#e1b589;}.cls-8{fill:#3e3e3f;}.cls-9{fill:#231f20;}.cls-10{fill:#b3b3b3;}</style></defs><title>yogurt</title><ellipse class="cls-1" cx="50.28" cy="89.6" rx="31.37" ry="9.42"/><polygon class="cls-1" points="81.65 89.84 89.33 39.48 50.28 39.48 11.23 39.48 18.9 89.84 81.65 89.84"/><line x1="53.45" y1="39.48" x2="53.45" y2="100"/><ellipse class="cls-2" cx="50.28" cy="35.55" rx="41.05" ry="12.33"/><path class="cls-2" d="M50.28,58.12a113,113,0,0,1-37.19-6.45L17.1,78a137.5,137.5,0,0,0,33.18,4.18,137.49,137.49,0,0,0,33.14-4l4-26.25A113.28,113.28,0,0,1,50.28,58.12Z"/><path class="cls-3" d="M12.35,40.27c6.17,4.46,20.82,7.61,37.93,7.61,16.76,0,31.15-3,37.53-7.35C83.13,36.85,68,34.16,49.92,34.16,32.31,34.16,17.41,36.72,12.35,40.27Z"/><path class="cls-1" d="M50.28,49.11C29.78,49.11,8,44.36,8,35.55S29.78,22,50.28,22s42.28,4.75,42.28,13.56S70.77,49.11,50.28,49.11Zm0-24.66c-23.47,0-39.82,5.85-39.82,11.1s16.35,11.1,39.82,11.1S90.1,40.8,90.1,35.55,73.74,24.45,50.28,24.45Z"/><path class="cls-3" d="M55.24,63.39a1.84,1.84,0,0,0,1.84,1.85c1,0,4.06-.83,4.06-1.85s-3-1.85-4.06-1.85A1.84,1.84,0,0,0,55.24,63.39Z"/><path class="cls-4" d="M55.33,63.39a1.2,1.2,0,0,0,1.2,1.2c.66,0,2.63-.53,2.63-1.2s-2-1.2-2.63-1.2A1.2,1.2,0,0,0,55.33,63.39Z"/><rect class="cls-3" x="32.25" y="66.01" width="35.06" height="19.52" rx="3.97" ry="3.97"/><path class="cls-5" d="M55.76,58.24a1.55,1.55,0,0,0,1.08.19,2.38,2.38,0,0,0,1.27-.63,6.76,6.76,0,0,0,1.67-3.3,7.47,7.47,0,0,1-.24,4.21,4.52,4.52,0,0,1-1.56,2,4.67,4.67,0,0,1-2.74.9l-1.16,0a2.14,2.14,0,1,1,1.68-3.39Z"/><rect class="cls-3" x="37.91" y="57.08" width="20.01" height="15.61" rx="2.08" ry="2.08"/><path class="cls-6" d="M71,74.58a9.73,9.73,0,1,1-19.45,0c0-5.37,4.35-6.19,9.72-6.19S71,69.21,71,74.58Z"/><rect class="cls-7" x="50.93" y="74.02" width="21.45" height="2.55" rx="0.52" ry="0.52"/><rect class="cls-7" x="50.93" y="76.57" width="21.45" height="2.55" rx="0.52" ry="0.52"/><circle class="cls-6" cx="67.31" cy="69.56" r="2.74"/><ellipse class="cls-7" cx="68.55" cy="69.56" rx="1.18" ry="1.8"/><circle class="cls-6" cx="60.38" cy="69.56" r="2.74"/><ellipse class="cls-7" cx="60.9" cy="69.56" rx="1.18" ry="1.8"/><path class="cls-3" d="M42.39,58.06s3-1.48,3.06-2.8h3.19v4.3"/><path class="cls-3" d="M53.82,58.06s-3-1.48-3.06-2.8H47.57v4.3"/><path class="cls-5" d="M38.56,61.61a4.62,4.62,0,0,1-2.73-.9,4.54,4.54,0,0,1-1.57-2A7.46,7.46,0,0,1,34,54.5a6.6,6.6,0,0,0,1.67,3.3,2.35,2.35,0,0,0,1.27.63A1.51,1.51,0,0,0,38,58.24a2.13,2.13,0,1,1,1.7,3.39Z"/><path class="cls-3" d="M38.89,63.39A1.85,1.85,0,0,1,37,65.24c-1,0-4-.83-4-1.85s3-1.85,4-1.85A1.85,1.85,0,0,1,38.89,63.39Z"/><path class="cls-4" d="M38.79,63.39a1.19,1.19,0,0,1-1.2,1.2c-.66,0-2.63-.53-2.63-1.2s2-1.2,2.63-1.2A1.2,1.2,0,0,1,38.79,63.39Z"/><path class="cls-8" d="M46.66,64.89c0,2.14-2.66,7.67-4.8,7.67s-3-5.53-3-7.67a3.89,3.89,0,1,1,7.77,0Z"/><circle class="cls-3" cx="42.48" cy="64.4" r="1.94"/><circle class="cls-9" cx="42.41" cy="64.05" r="0.9"/><rect class="cls-10" x="79.75" y="-3.68" width="6.64" height="37.08" rx="1.35" ry="1.35" transform="translate(35.09 -54.56) rotate(45.21)"/><path class="cls-10" d="M72.39,25.46c-4.2-4.23-15.22-.09-19.45,4.11A10.75,10.75,0,0,0,50.77,41.7h19.8C73.7,36.6,75.76,28.85,72.39,25.46Z"/></svg>