<svg id="Layer_1" data-name="Layer 1" xmlns="http://www.w3.org/2000/svg" xmlns:xlink="http://www.w3.org/1999/xlink" viewBox="0 0 100 100"><defs><style>.cls-1{fill:none;}.cls-2{fill:#696e72;}.cls-3{fill:#09a380;}.cls-4{fill:#654440;}.cls-5{fill:#9da5aa;}.cls-6{fill:#d1dce3;}.cls-7{fill:#e3eaee;}.cls-8{fill:#00604a;}.cls-9{fill:#7696a7;}.cls-10{clip-path:url(#clip-path);}.cls-11{fill:#58595b;}</style><clipPath id="clip-path"><path class="cls-1" d="M-34.29,120h-71.42A14.33,14.33,0,0,0-120,134.29v71.42A14.33,14.33,0,0,0-105.71,220h71.42A14.33,14.33,0,0,0-20,205.71V134.29A14.33,14.33,0,0,0-34.29,120Z"/></clipPath></defs><title>tornado</title><path class="cls-2" d="M60.62,73.18A9.4,9.4,0,0,0,53.08,86a3.64,3.64,0,0,0-2.91,4,3.59,3.59,0,0,0,3.89,3.31,3.56,3.56,0,0,0,3-2.47A8.74,8.74,0,0,0,62.41,92a9.12,9.12,0,0,0,7.42-5.67,7.18,7.18,0,0,0,4.52,1.18,7.6,7.6,0,0,0,6.47-5.59,4.49,4.49,0,0,0,2.85.74,4.92,4.92,0,0,0,1.47-9.33,12.47,12.47,0,0,0,2.53-8.8,13,13,0,0,0-.45-2.28,10.74,10.74,0,0,0,9.37-11.85,10.55,10.55,0,0,0-11.41-9.73c-.31,0-.6.13-.9.19A4.56,4.56,0,0,0,76,39.49l-.07-.09a8.07,8.07,0,0,0,1.4-2.58,3.27,3.27,0,0,0,1,.1,3.59,3.59,0,0,0,3.13-4,3.52,3.52,0,0,0-3.81-3.24,3.22,3.22,0,0,0-1,.32,7.69,7.69,0,0,0-7.42-3.93l-.09,0a11.08,11.08,0,0,0,.31-3.7A10.56,10.56,0,0,0,58,12.71L31.81,5.52A10.25,10.25,0,0,0,17.58,1.4a11.06,11.06,0,0,0-4,14.76A10.72,10.72,0,0,0,15.9,19l-.08,0a8.16,8.16,0,0,0-3.91,7.64,3.7,3.7,0,0,0-1,.34,3.69,3.69,0,0,0-1.33,4.93,3.42,3.42,0,0,0,4.75,1.38,3.53,3.53,0,0,0,.76-.68,7.77,7.77,0,0,0,2.57,1.29.41.41,0,0,1,0,.11,4.54,4.54,0,0,0-3.91.3,4.94,4.94,0,0,0-2.12,5.72,9,9,0,0,0-.84.38,11.06,11.06,0,0,0-4,14.76A10.24,10.24,0,0,0,21,59.33a13.2,13.2,0,0,0,.9,2.13,11.76,11.76,0,0,0,6.94,5.7,5,5,0,0,0-.12,4.9,4.67,4.67,0,0,0,6.48,1.87,4.81,4.81,0,0,0,1.93-2.3,7.29,7.29,0,0,0,8.38.73,7.51,7.51,0,0,0,3.05-3.66,8.79,8.79,0,0,0,9.22.23Z"/><path class="cls-2" d="M53,75.77a1.8,1.8,0,0,0,.65-2.4,1.68,1.68,0,0,0-2.32-.68,1.81,1.81,0,0,0-.65,2.41A1.68,1.68,0,0,0,53,75.77Z"/><ellipse class="cls-3" cx="47.98" cy="97.16" rx="16.31" ry="2.84"/><polygon class="cls-3" points="96.67 66.94 88.17 76.51 75.9 55.91 96.67 66.94"/><polygon class="cls-4" points="96.67 75.69 93.6 78.43 90.96 75.25 94.03 72.51 96.67 75.69"/><polygon class="cls-4" points="7.73 20.06 2.28 23.43 6.8 27.36 7.73 20.06"/><polygon class="cls-4" points="61.97 54.08 60.46 59.3 65.61 59.3 61.97 54.08"/><polygon class="cls-4" points="96.67 11.63 94.09 20.06 98.55 18.71 96.67 11.63"/><polygon class="cls-3" points="96.67 45.36 100 49.13 100 44.88 96.67 45.36"/><polygon class="cls-3" points="12.58 47.01 6.8 44.49 7.73 50.31 12.58 47.01"/><polygon class="cls-3" points="38.79 52.35 40.91 55.18 42.73 49.13 38.79 52.35"/><polygon class="cls-3" points="34.4 20.06 35.76 24.84 30.61 20.75 34.4 20.06"/><polygon class="cls-3" points="73.61 27.59 64.69 32.62 60.46 13.51 73.61 27.59"/><polygon class="cls-4" points="72.16 32.28 69.28 33.91 67.71 30.92 70.59 29.29 72.16 32.28"/><path class="cls-5" d="M47.73,97.16s7.85-11.64,8.62-23.74-37.71-21.54-43-40.88S24.09,0,24.09,0H89.48S53.64,25.15,55.61,35.69,74.72,54.37,74.7,69,47.73,97.16,47.73,97.16Z"/><path class="cls-6" d="M48.08,97.16s6.42-11.64,7.05-23.74S24.31,51.88,20,32.54,28.76,0,28.76,0H82.21S52.91,25.15,54.52,35.69,70.15,54.37,70.13,69,48.08,97.16,48.08,97.16Z"/><path class="cls-7" d="M48.16,97.16a130.85,130.85,0,0,0,3-23.74c.27-12.11-13.18-21.54-15-40.88S39.9,0,39.9,0H62.76S50.23,25.15,50.91,35.69,57.6,54.37,57.59,69,48.16,97.16,48.16,97.16Z"/><polygon class="cls-3" points="20.78 65.81 13.49 58.47 29.81 48.58 20.78 65.81"/><polygon class="cls-4" points="16.79 67.81 14.43 65.44 16.72 63 19.07 65.37 16.79 67.81"/><path class="cls-6" d="M52.26,94.84c-.81,0-1.32,0-1.39,0L51,93.54a28.15,28.15,0,0,0,11.84-2l.25-.12a34.74,34.74,0,0,0-3.63-.65C54.38,90,47.48,89,47,85.13a2.43,2.43,0,0,1,.53-1.84c2-2.54,9.71-3.07,17.85-3.64,6.16-.42,12.54-.86,15.25-2.24l.26-.14C79.26,76.34,70.29,75.61,63,75c-10.47-.85-21.3-1.73-25.22-3.54-.39-.18-1.43-.66-1.29-1.54.24-1.51,3.7-2,17.21-3.29,12.14-1.16,28.77-2.75,34.46-6.36.84-.54.92-.81.92-.81-1-1.56-17.8-.75-30-.16-18,.87-29,1.27-31.1-.51a1.14,1.14,0,0,1-.43-1.2c.51-1.88,7.13-3,24.49-5.6,14.46-2.13,32.45-4.79,34.46-7.87a.27.27,0,0,0,0-.12c-.9-1.77-18.53-1-32.69-.3-20.41.93-43.55,2-49.46-1.53C3.4,41.62,3,41,3.13,40.28c.54-2.57,10.36-3.79,32.64-5.94,17.52-1.7,39.34-3.82,41.14-7.3a.66.66,0,0,0,0-.65C74.57,21.91,53,22.78,35.71,23.48c-16.52.67-25.95.95-27.57-1.19a1.41,1.41,0,0,1-.23-1.24C8.75,18,19.82,17.9,43.13,18.4c13.4.28,31.75.68,32.66-1.54,0-.08-.05-.29-.32-.57C72.27,13,49.35,12.5,30.94,12.13,9,11.68,3.43,11.32,3.27,9.47c-.09-1,.71-2,11.46-4.27,40.85-8.64,68.3-3,68.57-3l-.24,1.24c-.27-.06-27.5-5.61-68.09,3C7.44,8,5.26,8.92,4.64,9.35c2.12,1,15,1.29,26.32,1.52,19.6.39,41.82.84,45.37,4.53a1.76,1.76,0,0,1,.58,2c-1.11,2.7-11.66,2.77-33.8,2.29-14.08-.3-33.36-.71-34,1.75a.11.11,0,0,0,0,.11c1.32,1.74,14.74,1.2,26.58.72C58.86,21.28,75.48,21,78,25.8a1.92,1.92,0,0,1,0,1.83c-2,3.8-18,5.62-42.1,8-13.08,1.26-31,3-31.57,5h0A1.75,1.75,0,0,0,5,41.1c5.61,3.35,28.56,2.29,48.8,1.36,22.59-1,32.61-1.26,33.82,1a1.32,1.32,0,0,1-.12,1.4c-2.14,3.29-16,5.56-35.29,8.42-9.81,1.45-22,3.24-23.41,4.6,2.3,1.55,17.12.84,30.23.21,21.2-1,30.56-1.23,31.25,1.11.32,1.06-1,1.87-1.45,2.18-5.92,3.77-22,5.3-35,6.54-6.8.65-14.45,1.38-16,2.21l.42.22C42,72.05,53.22,73,63.11,73.76,77.92,75,82,75.52,82.25,77.08c.16.84-.77,1.31-1.07,1.46C78.25,80,72,80.45,65.47,80.91c-7.18.5-15.31,1.06-17,3.18a1.16,1.16,0,0,0-.26.88c.36,2.93,7.25,4,11.37,4.57,3.72.55,4.91.77,5,1.71s-.87,1.24-1.34,1.45A28.19,28.19,0,0,1,52.26,94.84Z"/><path class="cls-5" d="M66.08,86.84a12.2,12.2,0,0,1-3.2-.39l.31-1.22a14.84,14.84,0,0,0,8.25-.6,4.89,4.89,0,0,0,.52-.26c-1.35-.65-6.84-1.24-11.32-1.72-10.35-1.12-17.82-2.07-19.59-4.27A1.29,1.29,0,0,1,40.8,77c.74-1.82,6.38-2.43,19.09-3.4,8.87-.68,21-1.61,22-3.64-.81-1.45-14.61-1.93-24.68-2.28-16.53-.57-27.51-1.11-29.41-3.41a1.46,1.46,0,0,1-.36-1.11c.31-2.79,9-4.13,27.29-6.34,10.54-1.27,25-3,25.66-5,0-.11-.13-.29-.2-.36-2.87-3-22.05-2-37.46-1.2-16.82.86-26.39,1.24-27.76-.76a1,1,0,0,1-.11-1C15.64,46.55,24,45,42.79,42.06c12.51-2,29.61-4.7,30.48-6.63l-.06-.06C70.78,33.09,50.4,33.45,34,33.73,11.9,34.12,5.38,34,4.79,32.32a1.07,1.07,0,0,1,.44-1.21C7.48,29.2,20.63,28.19,42,26.74c15.2-1,35.95-2.43,37.58-4.32a1.9,1.9,0,0,0-.25-.19C74.89,19.28,47.81,19.1,28,19c-21.41-.14-24.68-.33-25-1.45a.79.79,0,0,1,.34-.9c1.61-1.19,16.25-2,40-3.13,17.91-.88,39.87-2,44.34-3.21-4.62-1.19-27.5-1.43-46.15-1.63C6.94,8.29.34,7.93,0,6.44c0-.24,0-.69.63-1C4.07,3.68,29,3.57,61.24,3.56c9.79,0,19.23,0,25.06-.12-17-1.09-63.41-1.16-63.95-1.16V1c2.59,0,63.56.1,69.92,1.83.56.15.82.44.77.85-.12,1-.12,1.1-31.8,1.11-22.37,0-52.51,0-59.07,1.42C7,7,25.25,7.22,41.58,7.4,69,7.69,87.12,8,89.15,9.56a.85.85,0,0,1,.35.95c-.47,1.62-9.08,2.41-46.07,4.23C28.12,15.49,11,16.33,5.68,17.22c3.8.37,13.21.43,22.36.49,21,.14,47.21.31,52,3.45.85.56.91,1.14.82,1.52-.61,2.49-12.27,3.53-38.72,5.31C26.54,29.05,8.94,30.24,6.17,32c2.38,1,15.87.72,27.84.52,21.8-.39,37.43-.47,40,2a1.31,1.31,0,0,1,.43,1.33C73.75,38.17,63.84,40,43,43.3c-11.37,1.8-25.44,4-26.93,5.57,1.61,1.4,15.45.69,26.61.13,17.27-.88,35.12-1.79,38.37,1.55a1.57,1.57,0,0,1,.49,1.67c-.87,2.64-10.7,4-26.66,5.88-10.35,1.24-26,3.13-26.22,5.23,0,0,0,.06.06.15,1.71,2.05,16.59,2.56,28.54,3,17,.58,24.6,1,25.7,3a1.19,1.19,0,0,1,0,1.13c-1.2,2.49-9.49,3.3-23,4.33-7.33.56-17.35,1.33-18.06,2.62,0,0,0,0,.06.07,1.59,2,11.53,3.05,18.78,3.83,9.91,1.06,12.42,1.5,12.6,2.83.12.89-1,1.36-1.46,1.56A16.54,16.54,0,0,1,66.08,86.84Z"/><polygon class="cls-8" points="28.18 20.75 24.65 26.1 37.07 20.75 28.18 20.75"/><polygon class="cls-8" points="55.17 5.87 60 10.69 62.76 6.6 55.17 5.87"/><polygon class="cls-8" points="62.76 53.66 57.58 61 62.76 60.16 62.76 53.66"/><polygon class="cls-8" points="58.08 79.13 59.7 86.21 61.82 83.32 58.08 79.13"/><polygon class="cls-9" points="32.98 39.3 28.69 43.08 33.74 42.34 32.98 39.3"/><polygon class="cls-9" points="80.3 14.9 84.85 20.75 84.85 14.9 80.3 14.9"/><polygon class="cls-9" points="24.65 6.29 29.2 2.1 26.92 11.41 24.65 6.29"/><polygon class="cls-9" points="40.78 82.67 37.07 77.77 42.73 80.22 40.78 82.67"/><polygon class="cls-9" points="5.46 12.14 0.61 14.9 4.45 14.9 5.46 12.14"/><polygon class="cls-9" points="48.42 28.72 50.5 31.02 52.83 28.72 48.42 28.72"/><g class="cls-10"><path class="cls-11" d="M-323,255.57c184-94,341-155.93,357.11-141.2L153.26,53.45c-67.42,1.13-262.4,76.19-483,189-51.17,26.15-99.73,52.35-144.88,77.88H-444C-406.79,299.43-366.13,277.6-323,255.57Z"/><path class="cls-11" d="M177.7,60.91c-2.8-5.48-11.54-7.68-24.44-7.46L34.09,114.37c.38.34,1.09.51,1.31.95,9.5,18.58-132,109.91-317,205h101.71C38.5,201.93,193.16,91.15,177.7,60.91Z"/></g></svg>