<svg id="Layer_1" data-name="Layer 1" xmlns="http://www.w3.org/2000/svg" viewBox="0 0 100 100"><defs><style>.cls-1{fill:#bf9b77;}.cls-2{fill:#9f8163;}.cls-3{fill:#fff;}.cls-4{fill:#7b544f;}.cls-5{fill:#895e59;}.cls-6{fill:#ad7771;}.cls-7{fill:#3e3e3f;}</style></defs><title>mouse</title><path class="cls-1" d="M76,51.2a18.52,18.52,0,0,0,1,3.59,25.39,25.39,0,0,0,1.71,3.62A22,22,0,0,0,91.35,68.53a27.17,27.17,0,0,0,4.23,1c1.45.22,2.93.25,4.42.39-1.47.16-3,.42-4.46.49A30.28,30.28,0,0,1,91,70.27a24.19,24.19,0,0,1-9-2.73,26.05,26.05,0,0,1-7.58-6,31.66,31.66,0,0,1-2.94-3.93A24.32,24.32,0,0,1,69.16,53Z"/><polygon class="cls-2" points="76 51.2 76.22 52.33 69.89 54.73 69.16 53 76 51.2"/><polygon class="cls-2" points="77.01 54.81 78.08 57.24 73.4 60.3 71.51 57.63 77.01 54.81"/><polygon class="cls-2" points="79.42 59.56 81.02 61.72 77.96 64.91 75.56 62.74 79.42 59.56"/><polygon class="cls-2" points="82.89 63.69 85.01 65.43 83.41 68.25 80.59 66.76 82.89 63.69"/><polygon class="cls-2" points="87.37 66.91 89.93 68.09 89.38 70.08 86.36 69.36 87.37 66.91"/><polygon class="cls-2" points="92.66 68.97 95.5 69.56 95.45 70.45 92.43 70.44 92.66 68.97"/><polygon class="cls-2" points="98.48 69.88 100 69.94 98.49 70.18 98.48 69.88"/><rect class="cls-3" x="9.08" y="55.07" width="1.74" height="3.54" rx="0.43" ry="0.43"/><circle class="cls-4" cx="22.12" cy="36.49" r="6.94"/><rect class="cls-4" x="24.65" y="57.88" width="3.7" height="12.18" rx="0.92" ry="0.92"/><rect class="cls-4" x="59.53" y="57.88" width="3.7" height="12.18" rx="0.92" ry="0.92"/><path class="cls-5" d="M76,49.63A17.65,17.65,0,0,1,58.33,67.28c-9.75,0-56.14-7.9-56.14-17.65S48.58,32,58.33,32A17.66,17.66,0,0,1,76,49.63Z"/><circle class="cls-5" cx="35.35" cy="40.26" r="9.36"/><circle class="cls-6" cx="35.81" cy="39.84" r="5.27"/><circle class="cls-7" cx="27.11" cy="48.59" r="2.46"/><circle class="cls-7" cx="2.49" cy="46.59" r="2.49"/><rect class="cls-5" x="32.11" y="57.88" width="3.7" height="12.18" rx="0.92" ry="0.92"/><rect class="cls-5" x="66.99" y="57.88" width="3.7" height="12.18" rx="0.92" ry="0.92"/></svg>