<svg id="Layer_1" data-name="Layer 1" xmlns="http://www.w3.org/2000/svg" viewBox="0 0 100 100"><defs><style>.cls-1{fill:#fff;}.cls-2{fill:#d9dbdc;}.cls-3{fill:#78524d;}.cls-4{fill:#fcca98;}.cls-5{fill:#895e59;}.cls-6{fill:#6e4a46;}.cls-7{fill:#e9bb8d;}.cls-8{fill:#09a582;}.cls-9{fill:#d6ad83;}</style></defs><title>baker</title><path class="cls-1" d="M16.78,7.09H42.67a9,9,0,0,1,9,9V40.6A4.67,4.67,0,0,1,47,45.26H14.45A6.65,6.65,0,0,1,7.8,38.61V16.08A9,9,0,0,1,16.78,7.09Z"/><circle class="cls-1" cx="13.66" cy="8.37" r="6.88"/><circle class="cls-1" cx="29.73" cy="8.37" r="6.88"/><circle class="cls-1" cx="45.8" cy="8.37" r="6.88"/><rect class="cls-2" x="11.49" y="16.12" width="2.91" height="21.15" rx="0.6" ry="0.6"/><rect class="cls-2" x="22.45" y="16.12" width="2.91" height="21.15" rx="0.6" ry="0.6"/><rect class="cls-2" x="33.42" y="16.12" width="2.91" height="21.15" rx="0.6" ry="0.6"/><rect class="cls-2" x="44.38" y="16.12" width="2.91" height="21.15" rx="0.6" ry="0.6"/><path class="cls-3" d="M45.35,98.49H41c-8,0,.81-6.53.81-14.51V71.21c0-8-8.79-5-.81-5h4.36c8,0,14.51-3,14.51,5V84C59.86,99.63,53.33,98.49,45.35,98.49Z"/><rect class="cls-3" x="39.99" y="64.47" width="21.69" height="11.08" rx="2.27" ry="2.27"/><rect class="cls-3" x="18.06" y="64.47" width="29.11" height="34.02"/><path class="cls-4" d="M16.32,97.28c-8,0-13.3,0-13.3-13.3V73.55l-.39-.36A4.28,4.28,0,0,1,1.21,70a4.33,4.33,0,0,1,4.33-4.33H31.47A4.34,4.34,0,0,1,35.81,70a4.29,4.29,0,0,1-1.43,3.18l-.39.36V84c0,6.22-1.18,9.93-3.72,11.7-2.32,1.6-5.65,1.6-9.52,1.6Z"/><path class="cls-5" d="M31.47,66.89A3.12,3.12,0,0,1,34.59,70a3.08,3.08,0,0,1-1,2.29l-.78.71V84c0,12.09-4,12.09-12.09,12.09H16.27c-8,0-12,0-12-12.09V73l-.78-.72a3,3,0,0,1-1-2.28,3.12,3.12,0,0,1,3.12-3.12H31.47m0-2.42H5.54A5.55,5.55,0,0,0,0,70H0a5.55,5.55,0,0,0,1.81,4.07V84c0,14.49,6.5,14.51,14.46,14.51h4.48c8,0,14.45,0,14.45-14.51v-9.9A5.51,5.51,0,0,0,37,70h0a5.55,5.55,0,0,0-5.54-5.54Z"/><rect class="cls-6" x="35.77" y="73.88" width="23.86" height="1.8" rx="0.35" ry="0.35"/><circle class="cls-6" cx="36.8" cy="78.03" r="0.56"/><circle class="cls-6" cx="38.8" cy="81.34" r="0.56"/><circle class="cls-6" cx="47.83" cy="81.34" r="0.56"/><circle class="cls-6" cx="56.86" cy="81.34" r="0.56"/><circle class="cls-6" cx="41.2" cy="78.03" r="0.56"/><circle class="cls-6" cx="45.6" cy="78.03" r="0.56"/><circle class="cls-6" cx="50.01" cy="78.03" r="0.56"/><circle class="cls-6" cx="54.41" cy="78.03" r="0.56"/><circle class="cls-6" cx="58.81" cy="78.03" r="0.56"/><circle class="cls-7" cx="8.96" cy="73.77" r="1.91"/><circle class="cls-7" cx="16.23" cy="85.07" r="1.1"/><circle class="cls-7" cx="26.71" cy="77.46" r="1.1"/><circle class="cls-7" cx="25.9" cy="91.97" r="0.55"/><rect class="cls-8" x="82.92" y="7.84" width="11.2" height="22.39" rx="2.29" ry="2.29"/><rect class="cls-4" x="77.03" y="21.96" width="22.97" height="60.23" rx="4.71" ry="4.71"/><circle class="cls-9" cx="88.52" cy="72" r="7.32"/><rect class="cls-4" x="85.04" y="69.35" width="6.95" height="17.36" rx="1.42" ry="1.42"/><rect class="cls-8" x="82.92" y="72.44" width="11.2" height="22.39" rx="2.29" ry="2.29"/></svg>