<svg id="Layer_1" data-name="Layer 1" xmlns="http://www.w3.org/2000/svg" viewBox="0 0 100 100"><defs><style>.cls-1{fill:#f69a85;}.cls-2{fill:#f89c3e;}.cls-3{fill:#ffc640;}.cls-4{fill:#3e3e3f;}.cls-5{fill:#bf9b77;}.cls-6{fill:#7d7d7d;}</style></defs><title>pencil</title><rect class="cls-1" x="1.12" y="81.99" width="19.01" height="14.82" rx="3.35" ry="3.35" transform="translate(66.33 18.67) rotate(45)"/><rect class="cls-2" x="-0.73" y="50.91" width="100.11" height="10.97" transform="translate(-25.43 51.4) rotate(-45)"/><rect class="cls-3" x="-6.95" y="45.44" width="100.11" height="9.46" transform="translate(-22.85 45.18) rotate(-45)"/><polygon class="cls-4" points="99.97 0 99.97 0 94.23 2.64 94.15 5.82 99.97 0"/><polygon class="cls-5" points="94.23 2.64 75.19 11.4 75.16 11.43 81.56 18.41 94.15 5.82 94.23 2.64"/><polygon class="cls-4" points="99.97 0 94.15 5.82 93.96 13.17 99.97 0"/><polygon class="cls-5" points="93.96 13.17 94.15 5.82 81.56 18.41 88.6 24.88 88.63 24.85 93.96 13.17"/><path class="cls-5" d="M79.64,15.91a3.17,3.17,0,0,1-4.48-4.48"/><path class="cls-5" d="M84.12,20.4a3.17,3.17,0,1,1-4.48-4.49"/><path class="cls-5" d="M88.6,24.88a3.17,3.17,0,1,1-4.48-4.48"/><rect class="cls-6" x="7.47" y="71.05" width="17.79" height="25.45" rx="1.9" ry="1.9" transform="translate(-54.44 36.11) rotate(-45)"/></svg>