<svg id="Layer_1" data-name="Layer 1" xmlns="http://www.w3.org/2000/svg" viewBox="0 0 100 100"><defs><style>.cls-1{fill:#ffc640;}.cls-2{fill:#f37d3b;}</style></defs><title>starfish</title><path class="cls-1" d="M60.69,3.63l-1,32.68a4,4,0,0,0,3.67,4.11L96,43.06a3.51,3.51,0,0,1,.7,6.87L65.26,59.08a4,4,0,0,0-2.77,4.76l7.56,31.82a3.51,3.51,0,0,1-6.32,2.79l-18.4-27a4,4,0,0,0-5.39-1.17L12,87.27a3.51,3.51,0,0,1-4.61-5.15l20-25.85a4,4,0,0,0-.55-5.48L2.06,29.5a3.52,3.52,0,0,1,3.48-6L36.31,34.57a4,4,0,0,0,5-2.22L53.93,2.17A3.52,3.52,0,0,1,60.69,3.63Z"/><path class="cls-2" d="M56.41,8.7,49.24,47.45A2.14,2.14,0,0,0,51.54,50L90,46.28a.34.34,0,0,1,.09.67L51.74,53a2.14,2.14,0,0,0-1.63,2.95L64.73,90.53a.34.34,0,0,1-.62.28L47.31,57.1a2.14,2.14,0,0,0-3.26-.71L14.83,80.16a.34.34,0,0,1-.45-.51L42,54.18a2.14,2.14,0,0,0-.28-3.36L9.27,29.49a.34.34,0,0,1,.36-.58L43.14,48.15a2.14,2.14,0,0,0,3.14-1.34L55.75,8.56A.34.34,0,0,1,56.41,8.7Z"/></svg>