<svg id="Layer_1" data-name="Layer 1" xmlns="http://www.w3.org/2000/svg" viewBox="0 0 100 100"><defs><style>.cls-1{fill:#bcd2de;}.cls-2{fill:#f05c38;}.cls-3{fill:#d45131;}.cls-4{fill:#fff;}</style></defs><title>wine</title><path class="cls-1" d="M19.71,0V18.63a30.3,30.3,0,0,0,26.2,30V88.7c-9.73.51-17.07,2.82-17.07,5.6,0,3.15,9.47,5.7,21.15,5.7s21.14-2.55,21.14-5.7c0-2.78-7.34-5.09-17.06-5.6V48.65a30.3,30.3,0,0,0,26.22-30V0Z"/><path class="cls-2" d="M24.2,10.11V21.55c0,12.88,11.55,23.32,25.8,23.32S75.8,34.43,75.8,21.55V10.11Z"/><ellipse class="cls-3" cx="50" cy="9.85" rx="25.8" ry="5.7"/><path class="cls-4" d="M39,24.33a11.48,11.48,0,0,1-2.89,6.56,11.48,11.48,0,0,1-6.56,2.89,11.48,11.48,0,0,1,2.89-6.56A11.48,11.48,0,0,1,39,24.33Z"/><path class="cls-4" d="M44.69,30a11.5,11.5,0,0,1-2.89,6.57,11.43,11.43,0,0,1-6.56,2.88,11.48,11.48,0,0,1,2.89-6.56A11.48,11.48,0,0,1,44.69,30Z"/></svg>