<svg id="Layer_1" data-name="Layer 1" xmlns="http://www.w3.org/2000/svg" viewBox="0 0 100 100"><defs><style>.cls-1{fill:#7d7d7d;}.cls-2{fill:#ffc63f;}.cls-3{fill:#9dc8dc;}</style></defs><title>telescope</title><rect class="cls-1" x="34.3" y="54.34" width="4.95" height="38.29" rx="1.08" ry="1.08" transform="translate(27.62 -8.18) rotate(20.19)"/><rect class="cls-1" x="52.06" y="54.32" width="4.95" height="38.91" rx="1.17" ry="1.17" transform="translate(131.18 124.2) rotate(159.81)"/><rect class="cls-1" x="43.72" y="54.38" width="4.95" height="45.61" rx="1.17" ry="1.17"/><rect class="cls-1" x="43.72" y="29.33" width="4.95" height="45.61" rx="1.17" ry="1.17"/><rect class="cls-2" x="38.91" y="51.3" width="14.56" height="8.73" rx="2.06" ry="2.06"/><rect class="cls-2" x="0.57" y="36.51" width="20.87" height="9.1" rx="2.15" ry="2.15" transform="translate(-14.2 6.83) rotate(-21.36)"/><rect class="cls-2" x="11.85" y="26" width="36.77" height="15.09" rx="3.56" ry="3.56" transform="translate(-10.14 13.31) rotate(-21.36)"/><rect class="cls-2" x="20.85" y="12.61" width="79.58" height="18.09" rx="4.27" ry="4.27" transform="translate(-3.72 23.57) rotate(-21.36)"/><circle class="cls-3" cx="89.75" cy="10.27" r="6.72"/><rect class="cls-2" x="10.84" y="26.39" width="3.57" height="13.54" rx="0.84" ry="0.84" transform="translate(-11.21 6.87) rotate(-21.36)"/><rect class="cls-2" x="12.65" y="9.42" width="7.28" height="27.61" rx="1.72" ry="1.72" transform="translate(31.99 -0.4) rotate(68.64)"/><rect class="cls-2" x="24.32" y="21.12" width="3.57" height="13.54" rx="0.84" ry="0.84" transform="translate(-8.36 11.42) rotate(-21.36)"/><circle class="cls-3" cx="25.77" cy="19.52" r="2.73"/></svg>