<svg id="Layer_1" data-name="Layer 1" xmlns="http://www.w3.org/2000/svg" viewBox="0 0 100 100"><defs><style>.cls-1{fill:#ffc640;}.cls-2{fill:#e6b43b;}.cls-3{fill:#f37d3b;}.cls-4{fill:#09a582;}.cls-5{fill:#09a380;}.cls-6{fill:#f05c38;}.cls-7{fill:#f7a895;}</style></defs><title>pizza</title><circle class="cls-1" cx="49.98" cy="49.95" r="44.83"/><path class="cls-2" d="M50,7.2A42.76,42.76,0,1,1,7.22,50,42.8,42.8,0,0,1,50,7.2m0-4.15A46.91,46.91,0,1,0,96.89,50,46.9,46.9,0,0,0,50,3.05Z"/><path class="cls-2" d="M49,100h-.07a50.09,50.09,0,0,1-6.6-.57,3.12,3.12,0,0,1-2.6-3.56s0,0,0-.08a.31.31,0,0,0,0,.08,3.12,3.12,0,0,1-3.87,2.11,51.11,51.11,0,0,1-6.23-2.3A3.12,3.12,0,0,1,28,91.52a.47.47,0,0,1,.05-.1l-.06.1a3.13,3.13,0,0,1-4.29,1,51,51,0,0,1-5.4-3.86,3.11,3.11,0,0,1-.43-4.38l.05-.07-.06.06a3.11,3.11,0,0,1-4.4-.14A51.7,51.7,0,0,1,9.25,79,3.13,3.13,0,0,1,10,74.66h0a3.12,3.12,0,0,1-4.21-1.29,49.77,49.77,0,0,1-2.71-6.06,3.11,3.11,0,0,1,1.84-4l.05,0H4.89A3.12,3.12,0,0,1,1.17,61a50,50,0,0,1-1-6.56A3.13,3.13,0,0,1,3,51H3a3.12,3.12,0,0,1-3-3.25,52.07,52.07,0,0,1,.72-6.59,3.1,3.1,0,0,1,3.61-2.52H4.4l-.06,0a3.11,3.11,0,0,1-2-3.92,48.84,48.84,0,0,1,2.44-6.17A3.1,3.1,0,0,1,8.9,27.07l.11.05-.1-.06A3.13,3.13,0,0,1,8,22.75a49,49,0,0,1,4-5.31,3.12,3.12,0,0,1,4.39-.35l0,0,0,0a3.13,3.13,0,0,1,.24-4.4A51.33,51.33,0,0,1,21.82,8.6a3.12,3.12,0,0,1,4.33.82v0a3.11,3.11,0,0,1,1.39-4.18,50.35,50.35,0,0,1,6.11-2.58,3.11,3.11,0,0,1,4,1.92l0,.08s0,0,0-.08A3.12,3.12,0,0,1,40.06.92,50,50,0,0,1,46.64,0,3.11,3.11,0,0,1,50,2.94V3A3.13,3.13,0,0,1,53.27,0a48.37,48.37,0,0,1,6.58.87,3.11,3.11,0,0,1,2.44,3.66l0,.12s0-.08,0-.12a3.12,3.12,0,0,1,4-1.93,49.83,49.83,0,0,1,6.12,2.58A3.11,3.11,0,0,1,73.77,9.4a.41.41,0,0,0,0,.09.41.41,0,0,0,0-.09,3.12,3.12,0,0,1,4.33-.82,51.45,51.45,0,0,1,5.23,4.09,3.12,3.12,0,0,1,.24,4.4s0,0,0,.05l.06-.05a3.13,3.13,0,0,1,4.39.34,50.24,50.24,0,0,1,4,5.31A3.12,3.12,0,0,1,91,27h0a3.11,3.11,0,0,1,4.15,1.48,48.25,48.25,0,0,1,2.44,6.17,3.1,3.1,0,0,1-2,3.91l-.08,0,.08,0a3.12,3.12,0,0,1,3.61,2.52,50.28,50.28,0,0,1,.73,6.6,3,3,0,0,1-.16,1.12A3,3,0,0,1,100,50a52.19,52.19,0,0,1-.43,6.62,3.12,3.12,0,0,1-3.5,2.68H96l.07,0a3.11,3.11,0,0,1,2.19,3.82,51.71,51.71,0,0,1-2.16,6.28A3.12,3.12,0,0,1,92,71l-.11,0L92,71a3.12,3.12,0,0,1,1.11,4.26,52.07,52.07,0,0,1-3.74,5.49,3.12,3.12,0,0,1-4.37.53l-.05,0,0,0a3.12,3.12,0,0,1,0,4.41,50.37,50.37,0,0,1-5,4.31,3.11,3.11,0,0,1-4.36-.63l0,0a.08.08,0,0,1,0,0,3.1,3.1,0,0,1-1.2,4.23,49,49,0,0,1-6,2.85,3.12,3.12,0,0,1-4-1.75l0-.07a.19.19,0,0,1,0,.07A3.1,3.1,0,0,1,62,98.51a49.88,49.88,0,0,1-6.53,1.16,3.11,3.11,0,0,1-3.44-2.75.06.06,0,0,0,0,0v0A3.11,3.11,0,0,1,49,100Zm-6.2-6.78a3.88,3.88,0,0,1,.48,0,43,43,0,0,0,5.79.51,3.11,3.11,0,0,1,3,2.81,3.12,3.12,0,0,1,2.77-3.07,43.87,43.87,0,0,0,5.72-1,3.12,3.12,0,0,1,3.67,1.94,3.12,3.12,0,0,1,1.86-3.71,44.94,44.94,0,0,0,5.25-2.49,3.1,3.1,0,0,1,4,.88,3.12,3.12,0,0,1,.83-4,43,43,0,0,0,4.42-3.78,3.13,3.13,0,0,1,4.14-.19,3.12,3.12,0,0,1-.27-4.13,44.35,44.35,0,0,0,3.28-4.81,3.12,3.12,0,0,1,4-1.24,3.11,3.11,0,0,1-1.39-4,44.47,44.47,0,0,0,1.89-5.49,3.12,3.12,0,0,1,3.48-2.27,3.11,3.11,0,0,1-2.34-3.42A45.11,45.11,0,0,0,93.77,50a3.19,3.19,0,0,1,.16-1,3,3,0,0,1-.2-1,44.82,44.82,0,0,0-.64-5.78,3.12,3.12,0,0,1,2.18-3.53,3.12,3.12,0,0,1-3.58-2.1,43.31,43.31,0,0,0-2.14-5.4,3.12,3.12,0,0,1,1.13-4,3.12,3.12,0,0,1-4-1.1,45.15,45.15,0,0,0-3.48-4.66,3.11,3.11,0,0,1,.09-4.15,3.12,3.12,0,0,1-4.16,0,45,45,0,0,0-4.57-3.58,3.11,3.11,0,0,1-1-4.05,3.13,3.13,0,0,1-4,1.11,42.66,42.66,0,0,0-5.35-2.26,3.12,3.12,0,0,1-2-3.66A3.11,3.11,0,0,1,58.62,7a45.82,45.82,0,0,0-5.76-.76,3.11,3.11,0,0,1-2.91-3,3.11,3.11,0,0,1-2.9,3A44.28,44.28,0,0,0,41.29,7a3.1,3.1,0,0,1-3.58-2.11,3.13,3.13,0,0,1-2,3.64,42.6,42.6,0,0,0-5.35,2.25,3.12,3.12,0,0,1-4-1,3.13,3.13,0,0,1-1,4,43.62,43.62,0,0,0-4.57,3.58,3.11,3.11,0,0,1-4.14,0,3.11,3.11,0,0,1,.08,4.14,43.63,43.63,0,0,0-3.48,4.65,3.11,3.11,0,0,1-4.05,1.07,3.1,3.1,0,0,1,1.21,4,44,44,0,0,0-2.13,5.41,3.13,3.13,0,0,1-3.57,2.11,3.11,3.11,0,0,1,2.18,3.53A42.78,42.78,0,0,0,6.23,48a3.11,3.11,0,0,1-2.91,3,3.11,3.11,0,0,1,3,2.84,42.58,42.58,0,0,0,.9,5.74,3.12,3.12,0,0,1-2,3.62,3.11,3.11,0,0,1,3.65,2,43.34,43.34,0,0,0,2.38,5.3,3.12,3.12,0,0,1-1,4,3.11,3.11,0,0,1,4,.94A43.91,43.91,0,0,0,18,79.88,3.11,3.11,0,0,1,18.09,84a3.12,3.12,0,0,1,4.16-.19A42.37,42.37,0,0,0,27,87.23a3.13,3.13,0,0,1,1.16,4,3.1,3.1,0,0,1,4-1.3,42.94,42.94,0,0,0,5.45,2,3.14,3.14,0,0,1,2.19,3.54A3.11,3.11,0,0,1,42.75,93.19Z"/><circle class="cls-3" cx="49.98" cy="50" r="37.28"/><path class="cls-1" d="M62.85,88.63c0,1.24-2.48,2.24-5.53,2.24s-5.53-1-5.53-2.24S56.16,70,59.22,70,62.85,87.39,62.85,88.63Z"/><rect class="cls-4" x="32.35" y="26.75" width="4.58" height="10.9" rx="1.1" ry="1.1"/><rect class="cls-5" x="32.35" y="11.87" width="4.58" height="10.9" rx="1.1" ry="1.1" transform="translate(51.97 -17.33) rotate(90)"/><rect class="cls-5" x="47.71" y="11.87" width="4.58" height="10.9" rx="1.1" ry="1.1"/><rect class="cls-5" x="47.71" y="26.75" width="4.58" height="10.9" rx="1.1" ry="1.1" transform="translate(82.2 -17.8) rotate(90)"/><path class="cls-1" d="M62.2,14.13C62.2,16.68,47.8,35,42.94,35S44.6,16.68,44.6,14.13s3.94-4.62,8.8-4.62S62.2,11.58,62.2,14.13Z"/><rect class="cls-5" x="62.85" y="11.87" width="4.58" height="10.9" rx="1.1" ry="1.1" transform="translate(82.46 -47.82) rotate(90)"/><rect class="cls-5" x="78.2" y="26.75" width="4.58" height="10.9" rx="1.1" ry="1.1" transform="translate(112.69 -48.29) rotate(90)"/><rect class="cls-5" x="17.21" y="40.81" width="4.58" height="10.9" rx="1.1" ry="1.1"/><rect class="cls-5" x="32.35" y="55.69" width="4.58" height="10.9" rx="1.1" ry="1.1"/><rect class="cls-5" x="17.21" y="55.69" width="4.58" height="10.9" rx="1.1" ry="1.1" transform="translate(80.64 41.63) rotate(90)"/><path class="cls-1" d="M21.36,58.35c2-3.78,5.26-6,7.39-4.85s2.26,5,.31,8.83S18.46,73.81,16.34,72.71,19.41,62.12,21.36,58.35Z"/><rect class="cls-5" x="47.71" y="40.81" width="4.58" height="10.9" rx="1.1" ry="1.1"/><rect class="cls-5" x="62.85" y="55.69" width="4.58" height="10.9" rx="1.1" ry="1.1"/><rect class="cls-5" x="47.71" y="55.69" width="4.58" height="10.9" rx="1.1" ry="1.1" transform="translate(111.14 11.14) rotate(90)"/><rect class="cls-5" x="78.2" y="40.81" width="4.58" height="10.9" rx="1.1" ry="1.1"/><rect class="cls-5" x="78.2" y="55.69" width="4.58" height="10.9" rx="1.1" ry="1.1" transform="translate(141.63 -19.36) rotate(90)"/><rect class="cls-4" x="47.71" y="69.74" width="4.58" height="10.9" rx="1.1" ry="1.1"/><rect class="cls-5" x="62.85" y="69.74" width="4.58" height="10.9" rx="1.1" ry="1.1" transform="translate(140.33 10.05) rotate(90)"/><circle class="cls-6" cx="41.77" cy="74.42" r="13.36"/><circle class="cls-7" cx="41.77" cy="74.42" r="11.47"/><path class="cls-6" d="M35.05,81.15a9.31,9.31,0,0,0,12.32.73L34.31,68.82A9.32,9.32,0,0,0,35.05,81.15Z"/><path class="cls-6" d="M48.27,67.92A9.31,9.31,0,0,0,36,67.18L49,80.23A9.32,9.32,0,0,0,48.27,67.92Z"/><path class="cls-7" d="M33.84,71.23a5.39,5.39,0,0,1,1.65.83,5.39,5.39,0,0,1-1.65.83.83.83,0,1,1,0-1.66Z"/><path class="cls-7" d="M35.05,79.31a5.33,5.33,0,0,1,1.76-.58,5.47,5.47,0,0,1-.58,1.75.83.83,0,1,1-1.18-1.17Z"/><path class="cls-7" d="M33.6,75.22a5.46,5.46,0,0,1,1.82.32s-.91,1.14-1.35,1.27a.83.83,0,1,1-.47-1.59Z"/><path class="cls-7" d="M44.6,82a5.39,5.39,0,0,0-.83-1.65A5.39,5.39,0,0,0,42.94,82a.83.83,0,0,0,1.66,0Z"/><path class="cls-7" d="M40.61,82.23a5.46,5.46,0,0,0-.32-1.82s-1.14.91-1.27,1.35a.83.83,0,1,0,1.59.47Z"/><path class="cls-7" d="M38.28,66.8a5.51,5.51,0,0,0,.83,1.65,5.51,5.51,0,0,0,.83-1.65.83.83,0,0,0-1.66,0Z"/><path class="cls-7" d="M46.35,68a5.4,5.4,0,0,0-.57,1.75,5.3,5.3,0,0,0,1.75-.58A.83.83,0,1,0,46.35,68Z"/><path class="cls-7" d="M42.27,66.55a5.46,5.46,0,0,0,.32,1.82s1.14-.91,1.27-1.34a.84.84,0,0,0-.56-1A.83.83,0,0,0,42.27,66.55Z"/><path class="cls-7" d="M49,77.55a5.39,5.39,0,0,1-1.65-.83A5.39,5.39,0,0,1,49,75.89a.83.83,0,0,1,0,1.66Z"/><path class="cls-7" d="M49.28,73.56a5.46,5.46,0,0,1-1.82-.32s.9-1.14,1.34-1.27a.84.84,0,0,1,1,.56A.83.83,0,0,1,49.28,73.56Z"/><circle class="cls-6" cx="69.16" cy="40.17" r="13.36"/><circle class="cls-7" cx="69.16" cy="40.17" r="11.47"/><path class="cls-6" d="M62.44,46.89a9.32,9.32,0,0,0,12.32.74L61.7,34.57A9.32,9.32,0,0,0,62.44,46.89Z"/><path class="cls-6" d="M75.66,33.67a9.32,9.32,0,0,0-12.31-.75L76.41,46A9.32,9.32,0,0,0,75.66,33.67Z"/><path class="cls-7" d="M61.24,37a5.39,5.39,0,0,1,1.65.83,5.39,5.39,0,0,1-1.65.83.83.83,0,0,1,0-1.66Z"/><path class="cls-7" d="M62.45,45.05a5.47,5.47,0,0,1,1.75-.58,5.33,5.33,0,0,1-.58,1.76.83.83,0,1,1-1.17-1.18Z"/><path class="cls-7" d="M61,41a5.21,5.21,0,0,1,1.82.32s-.9,1.13-1.34,1.27a.84.84,0,0,1-1-.56A.83.83,0,0,1,61,41Z"/><path class="cls-7" d="M72,47.73a5.37,5.37,0,0,0-.84-1.65,5.39,5.39,0,0,0-.83,1.65.84.84,0,0,0,1.67,0Z"/><path class="cls-7" d="M68,48a5.21,5.21,0,0,0-.32-1.82s-1.13.9-1.27,1.34a.84.84,0,0,0,.56,1A.83.83,0,0,0,68,48Z"/><path class="cls-7" d="M65.67,32.54a5.39,5.39,0,0,0,.83,1.65,5.39,5.39,0,0,0,.83-1.65.83.83,0,1,0-1.66,0Z"/><path class="cls-7" d="M73.75,33.75a5.33,5.33,0,0,0-.58,1.76,5.47,5.47,0,0,0,1.75-.58.83.83,0,1,0-1.17-1.18Z"/><path class="cls-7" d="M69.66,32.29A5.46,5.46,0,0,0,70,34.11s1.14-.9,1.27-1.34a.83.83,0,0,0-1.59-.48Z"/><path class="cls-7" d="M76.43,43.3a5.39,5.39,0,0,1-1.65-.83,5.39,5.39,0,0,1,1.65-.83.83.83,0,0,1,0,1.66Z"/><path class="cls-7" d="M76.67,39.31A5.44,5.44,0,0,1,74.86,39s.9-1.14,1.34-1.27a.83.83,0,0,1,.47,1.59Z"/><rect class="cls-5" x="17.21" y="26.75" width="4.58" height="10.9" rx="1.1" ry="1.1" transform="translate(51.71 12.69) rotate(90)"/><rect class="cls-4" x="32.35" y="69.74" width="4.58" height="10.9" rx="1.1" ry="1.1" transform="translate(109.84 40.55) rotate(90)"/><path class="cls-2" d="M50,96.87A46.67,46.67,0,1,1,96.66,50.2,46.72,46.72,0,0,1,50,96.87ZM50,5.62A44.59,44.59,0,1,0,94.59,50.2,44.63,44.63,0,0,0,50,5.62Z"/><rect class="cls-2" x="48.96" y="50.2" width="2.08" height="45.62"/><rect class="cls-2" x="70.66" y="34.44" width="2.08" height="45.62" transform="translate(-4.91 107.75) rotate(-72)"/><rect class="cls-2" x="40.6" y="30.71" width="45.62" height="2.08" transform="translate(0.44 64.36) rotate(-53.98)"/><rect class="cls-2" x="5.49" y="56.22" width="45.62" height="2.08" transform="translate(-16.29 11.53) rotate(-17.97)"/><circle class="cls-6" cx="30.25" cy="35.81" r="13.36"/><circle class="cls-7" cx="30.25" cy="35.81" r="11.47"/><path class="cls-6" d="M23.53,42.53a9.32,9.32,0,0,0,12.32.74L22.79,30.2A9.34,9.34,0,0,0,23.53,42.53Z"/><path class="cls-6" d="M36.75,29.3a9.32,9.32,0,0,0-12.31-.74L37.5,41.62A9.33,9.33,0,0,0,36.75,29.3Z"/><path class="cls-7" d="M22.33,32.61a5.39,5.39,0,0,1,1.65.83,5.39,5.39,0,0,1-1.65.83.83.83,0,1,1,0-1.66Z"/><path class="cls-7" d="M23.54,40.69a5.47,5.47,0,0,1,1.75-.58,5.33,5.33,0,0,1-.58,1.76.83.83,0,1,1-1.17-1.18Z"/><path class="cls-7" d="M22.08,36.6a5.46,5.46,0,0,1,1.82.32s-.9,1.14-1.34,1.27a.83.83,0,0,1-1-.55A.84.84,0,0,1,22.08,36.6Z"/><path class="cls-7" d="M33.09,43.37a5.39,5.39,0,0,0-.83-1.65,5.39,5.39,0,0,0-.83,1.65.83.83,0,1,0,1.66,0Z"/><path class="cls-7" d="M29.09,43.62a5.21,5.21,0,0,0-.32-1.82s-1.13.9-1.27,1.34a.83.83,0,0,0,.56,1A.81.81,0,0,0,29.09,43.62Z"/><path class="cls-7" d="M26.76,28.18a5.39,5.39,0,0,0,.83,1.65,5.39,5.39,0,0,0,.83-1.65.83.83,0,1,0-1.66,0Z"/><path class="cls-7" d="M34.84,29.39a5.23,5.23,0,0,0-.58,1.75A5.23,5.23,0,0,0,36,30.56a.82.82,0,0,0,0-1.17A.83.83,0,0,0,34.84,29.39Z"/><path class="cls-7" d="M30.75,27.93a5.46,5.46,0,0,0,.32,1.82s1.14-.9,1.27-1.34a.83.83,0,0,0-.56-1A.82.82,0,0,0,30.75,27.93Z"/><path class="cls-7" d="M37.52,38.94a5.39,5.39,0,0,1-1.65-.83,5.39,5.39,0,0,1,1.65-.83.83.83,0,0,1,0,1.66Z"/><path class="cls-7" d="M37.76,35A5.4,5.4,0,0,1,36,34.62s.9-1.13,1.34-1.26a.81.81,0,0,1,1,.55A.84.84,0,0,1,37.76,35Z"/><path class="cls-1" d="M88.32,66.08a5,5,0,0,1-9.94,0c0-2.45,3.93-36.93,6.68-36.93S88.32,63.63,88.32,66.08Z"/><rect class="cls-2" x="35.55" y="8.94" width="2.08" height="45.62" transform="translate(-11.67 27.57) rotate(-36)"/></svg>