<svg id="Layer_1" data-name="Layer 1" xmlns="http://www.w3.org/2000/svg" viewBox="0 0 100 100"><defs><style>.cls-1{fill:#3e3e3f;}.cls-2{fill:#ffc640;}.cls-3{fill:#58595b;}.cls-4{fill:#f69a85;}</style></defs><title>cat</title><path class="cls-1" d="M80,81.09C80,90.4,67.65,98,52.38,98S24.73,90.4,24.73,81.09s12.38-54.9,27.65-54.9S80,71.77,80,81.09Z"/><path class="cls-1" d="M24.73,17.4c0-3.49,12.38-6.32,27.65-6.32S80,13.91,80,17.4,67.65,47.5,52.38,47.5,24.73,20.9,24.73,17.4Z"/><path class="cls-1" d="M36.68,16.19a6,6,0,0,1-11.95,0c0-3.3,6-16.19,6-16.19S36.68,12.89,36.68,16.19Z"/><path class="cls-1" d="M80,16.19a6,6,0,0,1-11.94,0c0-3.3,6-16.19,6-16.19S80,12.89,80,16.19Z"/><circle class="cls-2" cx="73.13" cy="27.36" r="1.39"/><circle class="cls-2" cx="31.5" cy="27.36" r="1.39"/><ellipse class="cls-3" cx="49.36" cy="32.65" rx="4.61" ry="2.62" transform="translate(-9.76 35.21) rotate(-35.96)"/><ellipse class="cls-3" cx="55.96" cy="32.65" rx="2.62" ry="4.61" transform="translate(-3.33 58.77) rotate(-54.04)"/><path class="cls-4" d="M55.82,29.69c0,.68-3,2.36-3,2.36s-3-1.68-3-2.36,1.36-1.24,3-1.24S55.82,29,55.82,29.69Z"/><path class="cls-1" d="M36.23,89.39a34.24,34.24,0,0,1-17.16-.27A19.08,19.08,0,0,1,10.77,84a18.71,18.71,0,0,1-4.36-9.38,36.65,36.65,0,0,1-.43-5V65.3a39.72,39.72,0,0,1,.86-7.74c.52-2.52,1.19-5,1.87-7.51.3-1.23.73-2.5,1-3.75a23,23,0,0,0,.73-3.79l.06-.53a.44.44,0,0,1,.49-.39.33.33,0,0,1,.14,0c1.92.91,2.7,2.34,3.62,3.73a23.58,23.58,0,0,1,1.87,4.35A33.61,33.61,0,0,1,18,58.47,27.8,27.8,0,0,1,17,66.92l-1.11,3.7a15,15,0,0,0-.52,3.18,10.48,10.48,0,0,0,1.33,5.65A12.2,12.2,0,0,0,21.31,84c4.12,2.5,9.5,3.76,14.82,4.3h0a.56.56,0,0,1,.5.62A.56.56,0,0,1,36.23,89.39Z"/><rect class="cls-1" x="30.71" y="85.3" width="8.4" height="14.7" rx="2.11" ry="2.11"/><rect class="cls-1" x="67.54" y="85.3" width="8.4" height="14.7" rx="2.11" ry="2.11"/></svg>