<svg id="Layer_1" data-name="Layer 1" xmlns="http://www.w3.org/2000/svg" viewBox="0 0 100 100"><defs><style>.cls-1{fill:#ffc640;}.cls-2{fill:#fff;}</style></defs><title>sound</title><polygon class="cls-1" points="43.74 78.53 43.74 21.12 18.74 49.82 43.74 78.53"/><path class="cls-1" d="M43.74,86.86A5,5,0,0,1,40,85L15,56.26a10.59,10.59,0,0,1,0-12.87L40,14.68a4.65,4.65,0,0,1,6.32-1.09c2.09,1.37,3.41,4.3,3.41,7.53V78.53c0,3.22-1.32,6.15-3.41,7.53A4.55,4.55,0,0,1,43.74,86.86Zm-15.61-37,9.65,11.09V38.73Z"/><rect class="cls-1" y="35.57" width="45.96" height="28.51" rx="6.47" ry="6.47"/><path class="cls-2" d="M57.57,69.45a2.3,2.3,0,0,1,0-4.59,14.82,14.82,0,0,0,0-29.64,2.3,2.3,0,0,1,0-4.59,19.41,19.41,0,0,1,0,38.82Z"/><path class="cls-2" d="M63,87.21a4.37,4.37,0,0,1,0-8.74A28.23,28.23,0,1,0,63,22a4.37,4.37,0,0,1,0-8.74,37,37,0,1,1,0,73.93Z"/></svg>