<svg id="Layer_1" data-name="Layer 1" xmlns="http://www.w3.org/2000/svg" viewBox="0 0 100 100"><defs><style>.cls-1{fill:#069274;}.cls-2{fill:#09a582;}.cls-3{fill:#089a7a;}</style></defs><title>plant</title><path class="cls-1" d="M81.6,60.63a85.45,85.45,0,0,0-9.85.53c-4,.48-7.75,1.36-9.79,3a13.83,13.83,0,0,0-2.32,19.42,1.31,1.31,0,0,1,.11.12,13.82,13.82,0,0,0,19.3,2.21c6-4.69,9.44-24.77,9.48-25v0S85.58,60.63,81.6,60.63Z"/><path class="cls-1" d="M36.85,100c-7-8.72-1.22-39.58-.54-43.07l5.33,1C39.28,70.2,37,91.51,41.1,96.61Z"/><path class="cls-1" d="M46.87,86.19a46.82,46.82,0,0,1-11.58-1.42L36,82.15c.15,0,15.16,4.11,26.7-2.42,5.84-3.31,9.85-8.8,11.92-16.33l2.62.72C75,72.38,70.54,78.43,64,82.1A34.87,34.87,0,0,1,46.87,86.19Z"/><path class="cls-2" d="M88.53,60.85v0s-3-.2-6.93-.2a85.45,85.45,0,0,0-9.85.53c-4,.48-7.75,1.36-9.79,3a13.83,13.83,0,0,0-2.32,19.42,1.31,1.31,0,0,1,.11.12Z"/><path class="cls-1" d="M37.56,0S31.4,6.84,25.06,15.51c-2,2.76-4.06,5.71-5.92,8.68-1.17,1.87-2.25,3.75-3.24,5.6-2.63,5-4.43,9.71-4.43,13.48a26.1,26.1,0,0,0,52.19,0C63.66,28.86,37.56,0,37.56,0Z"/><path class="cls-2" d="M37.56,0S31.4,6.84,25.06,15.51c-2,2.76-4.06,5.71-5.92,8.68-1.17,1.87-2.25,3.75-3.24,5.6-2.63,5-4.43,9.71-4.43,13.48A26.16,26.16,0,0,0,37.56,69.36Z"/><path class="cls-3" d="M37.56,42.61,19.14,24.19c-1.17,1.87-2.25,3.75-3.24,5.6L37.56,51.44Z"/><path class="cls-3" d="M37.56,0S31.4,6.84,25.06,15.51L37.56,28Z"/><path class="cls-3" d="M81.6,60.63a85.45,85.45,0,0,0-9.85.53v13l9.85-7.81Z"/></svg>