<svg id="Layer_1" data-name="Layer 1" xmlns="http://www.w3.org/2000/svg" viewBox="0 0 100 100"><defs><style>.cls-1{fill:#f37d3b;}.cls-2{fill:#9c9c9c;}.cls-3{fill:#fff;}.cls-4{fill:#3e3e3f;}</style></defs><title>light sword</title><path class="cls-1" d="M35.1,75.7a10.51,10.51,0,0,1-7.48-3.1l-.23-.23a10.6,10.6,0,0,1,0-15L81.71,3.11a10.58,10.58,0,0,1,15,0l.22.22a10.58,10.58,0,0,1,0,15L42.58,72.6A10.51,10.51,0,0,1,35.1,75.7ZM32,68.21a4.37,4.37,0,0,0,6.16,0L92.49,13.89a4.36,4.36,0,0,0,0-6.16l-.22-.22a4.36,4.36,0,0,0-6.16,0L31.8,61.82a4.37,4.37,0,0,0,0,6.16Z"/><rect class="cls-2" x="10.68" y="61.47" width="15.25" height="40.45" rx="3.37" ry="3.37" transform="translate(63.13 10.98) rotate(45)"/><rect class="cls-3" x="54.52" y="-8.02" width="15.25" height="91.75" rx="3.37" ry="3.37" transform="translate(44.97 -32.86) rotate(45)"/><ellipse class="cls-4" cx="18.93" cy="72.27" rx="5.81" ry="2.33" transform="translate(-45.56 34.55) rotate(-45)"/><ellipse class="cls-2" cx="17.92" cy="71.34" rx="3.55" ry="1.43" transform="translate(-45.2 33.56) rotate(-45)"/><rect class="cls-1" x="4.74" y="86.51" width="14.7" height="2.8" rx="0.63" ry="0.63" transform="translate(65.7 17.2) rotate(45)"/></svg>