<svg id="Layer_1" data-name="Layer 1" xmlns="http://www.w3.org/2000/svg" viewBox="0 0 100 100"><defs><style>.cls-1{fill:#6ab8d9;}.cls-2{fill:#9c9c9c;}.cls-3{fill:#fff;}.cls-4{fill:#171717;}.cls-5{fill:#69b7d9;}.cls-6{fill:#e2b68a;}.cls-7{fill:#cba47e;}.cls-8{fill:#987c5e;}.cls-9{fill:#895e59;}.cls-10{fill:#7d7d7d;}</style></defs><title>force knight</title><path class="cls-1" d="M89.62,75.58h-.23a7.78,7.78,0,0,1-7.77-7.77V11.38a7.89,7.89,0,0,1,15.77,0V67.81A7.78,7.78,0,0,1,89.62,75.58Zm0-67.4a3.26,3.26,0,0,0-3.43,3.2V67.81a3.21,3.21,0,0,0,3.2,3.2h.23a3.21,3.21,0,0,0,3.2-3.2V11.38A3.2,3.2,0,0,0,89.62,8.18Z"/><rect class="cls-2" x="83.9" y="70.28" width="11.2" height="29.72" rx="2.16" ry="2.16"/><rect class="cls-3" x="83.9" y="5.89" width="11.2" height="67.4" rx="2.16" ry="2.16"/><ellipse class="cls-4" cx="84.93" cy="79.92" rx="1.71" ry="4.27"/><ellipse class="cls-2" cx="83.92" cy="79.96" rx="1.05" ry="2.61"/><rect class="cls-5" x="84.1" y="90.57" width="10.8" height="2.06" rx="0.41" ry="0.41"/><rect class="cls-6" x="17.25" width="33.05" height="54.68" rx="6.51" ry="6.51"/><rect class="cls-6" x="2.61" y="25.35" width="61.06" height="20.16" rx="3.97" ry="3.97"/><rect class="cls-6" x="2.61" y="30.61" width="11.09" height="20.86" rx="2.18" ry="2.18"/><path class="cls-7" d="M13.7,45.93V40.71l-.22,0a3.1,3.1,0,0,0-3.09,3.09V51A5.56,5.56,0,0,0,13.7,45.93Z"/><rect class="cls-6" x="52.59" y="30.61" width="11.09" height="20.86" rx="2.18" ry="2.18" transform="translate(116.26 82.09) rotate(180)"/><path class="cls-7" d="M52.59,45.93V40.71l.21,0a3.1,3.1,0,0,1,3.1,3.09V51A5.54,5.54,0,0,1,52.59,45.93Z"/><path class="cls-6" d="M38.19,99.41h0c-11,0-29.23,3.37-29.23-7.59l4.29-46.53A20,20,0,0,1,33.19,25.35h0A20,20,0,0,1,53.13,45.29l5,43.12C58.13,99.38,49.16,99.41,38.19,99.41Z"/><path class="cls-8" d="M36,99.42h0c-6.73,0-17.93,3.3-17.93-7.43l2.63-45.14c0-10.73,5.51-19.51,12.24-19.51h0c6.73,0,12.23,8.78,12.23,19.51l3.06,41.81C48.22,99.39,42.72,99.42,36,99.42Z"/><path class="cls-8" d="M46.3,28.61c0,1.54-5.6,2.78-12.52,2.78s-12.53-1.24-12.53-2.78,5.61-23.4,12.53-23.4S46.3,27.08,46.3,28.61Z"/><path class="cls-3" d="M45.16,46.85A26.52,26.52,0,0,0,41.81,33.5H36.64L33.13,45.85l.78,3.45-.78-3.45-.79,2.82.79-2.82L30.35,33.5h-6.3a26.52,26.52,0,0,0-3.36,13.35l-1.16,20H46.62Z"/><polygon class="cls-3" points="19.6 65.52 18.7 80.98 30.52 80.98 33.95 77.16 32.83 75.86 33.95 77.16 34.72 76.31 33.95 77.16 37.46 81.25 47.68 81.25 46.53 65.52 19.6 65.52"/><polygon class="cls-9" points="19.78 62.56 19.53 66.81 46.62 66.81 46.31 62.56 19.78 62.56"/><rect class="cls-10" x="28.48" y="61.74" width="10.11" height="6.11" rx="1.2" ry="1.2"/></svg>