<svg id="Layer_1" data-name="Layer 1" xmlns="http://www.w3.org/2000/svg" viewBox="0 0 100 100"><defs><style>.cls-1{fill:#7d7d7d;}.cls-2{fill:#616161;}.cls-3{fill:#fac6b9;}.cls-4{fill:#3e3e3f;}.cls-5{fill:#fff;}</style></defs><title>wolf</title><path class="cls-1" d="M99.34,23.52a12,12,0,0,0-2.38-7l-1,.2A27.27,27.27,0,0,1,93.79,21,6.28,6.28,0,0,0,99.34,23.52Z"/><path class="cls-1" d="M93.79,21c-.45.75-.91,1.48-1.38,2.21l-3.78,5.88a39.42,39.42,0,0,0-3.25,6.34,67.31,67.31,0,0,1-3,6.74c-1.15,2.19-2.37,4.36-3.62,6.52S76.27,53,75,55.18c-2.55,4.35-5.23,8.65-7.92,13l.77.67C71.77,65.53,75.44,62,79,58.29c1.77-1.86,3.52-3.74,5.24-5.67s3.33-3.95,4.94-6,3.32-4,4.94-6.17a25,25,0,0,0,3.76-7.1A28,28,0,0,0,99.4,25c0-.5,0-1-.06-1.52A6.28,6.28,0,0,1,93.79,21Z"/><path class="cls-1" d="M78.39,82.46c0,5.61-13.66,10.15-30.51,10.15S17.37,88.07,17.37,82.46,31,11.3,47.88,11.3,78.39,76.86,78.39,82.46Z"/><path class="cls-2" d="M65.33,90.79A75.77,75.77,0,0,1,47,93.32a65.75,65.75,0,0,1-18.35-3c0-3.13,8.91-42.55,18.35-42.55S65.33,87.65,65.33,90.79Z"/><ellipse class="cls-3" cx="40.45" cy="22.59" rx="5.83" ry="2.75" transform="translate(-1.71 41.81) rotate(-53.7)"/><circle class="cls-4" cx="39.58" cy="22.52" r="0.86"/><circle class="cls-4" cx="56.16" cy="22.52" r="0.86"/><rect class="cls-1" x="28.67" y="48.8" width="7.92" height="49.86" rx="1.65" ry="1.65"/><rect class="cls-1" x="58.24" y="48.8" width="7.92" height="49.86" rx="1.65" ry="1.65"/><rect class="cls-1" x="70.85" y="63.65" width="10.87" height="26.31" rx="2.27" ry="2.27"/><rect class="cls-1" x="14.6" y="63.65" width="10.87" height="26.31" rx="2.27" ry="2.27"/><circle class="cls-1" cx="16.33" cy="88.69" r="1.73"/><circle class="cls-1" cx="19.3" cy="89.96" r="1.73"/><circle class="cls-1" cx="22.75" cy="89.13" r="1.73"/><circle class="cls-1" cx="73.57" cy="88.69" r="1.73"/><circle class="cls-1" cx="76.54" cy="89.96" r="1.73"/><circle class="cls-1" cx="79.99" cy="89.13" r="1.73"/><circle class="cls-1" cx="58.99" cy="97" r="1.73"/><circle class="cls-1" cx="61.96" cy="98.27" r="1.73"/><circle class="cls-1" cx="65.41" cy="97.44" r="1.73"/><circle class="cls-1" cx="29.42" cy="97" r="1.73"/><circle class="cls-1" cx="32.4" cy="98.27" r="1.73"/><circle class="cls-1" cx="35.85" cy="97.44" r="1.73"/><path class="cls-1" d="M71.4,25.81c0,11.51-23.86,17.57-23.86,17.57S23.68,37.32,23.68,25.81,34.36,5,47.54,5,71.4,14.29,71.4,25.81Z"/><path class="cls-5" d="M70.43,32c0,4.34-10.05,7.87-22.45,7.87S25.52,36.38,25.52,32,20.58,5.81,48,30.81C57.14,39.17,70.43,27.69,70.43,32Z"/><path class="cls-5" d="M25.17,32c0,4.34,10.06,7.87,22.46,7.87S70.08,36.38,70.08,32s5-26.23-22.45-1.23C38.47,39.17,25.17,27.69,25.17,32Z"/><polyline class="cls-5" points="29.36 34.34 26.45 41.76 30.34 39.47 30.34 47.22 34.08 42.77 37.5 45 40.13 43.38 42.74 49.21 44.81 48.02 47.86 51.07 47.86 39.21"/><polyline class="cls-5" points="66.13 34.34 69.03 41.76 65.14 39.47 65.14 47.22 61.4 42.77 57.98 45 55.36 43.38 52.74 49.21 50.67 48.02 47.62 51.07 47.62 39.21"/><polyline class="cls-5" points="41.06 38.09 41.9 38.09 41.48 40.2"/><polyline class="cls-5" points="41.9 38.85 42.75 38.85 42.33 40.97"/><polyline class="cls-5" points="42.75 39.62 43.59 39.62 43.17 41.73"/><polyline class="cls-5" points="43.59 40.38 44.43 40.38 44.01 42.5"/><path class="cls-1" d="M34.1,8.68a5.35,5.35,0,1,1-9.32,5.24C23.33,11.35,23.08,0,23.08,0S32.65,6.1,34.1,8.68Z"/><path class="cls-1" d="M62,8.68a5.35,5.35,0,1,0,9.32,5.24C72.77,11.35,73,0,73,0S63.44,6.1,62,8.68Z"/><rect class="cls-1" x="42.46" y="21.52" width="10.02" height="26.58" rx="2.35" ry="2.35"/><path class="cls-4" d="M51.79,46.7c0,1.52-1.9,5.55-4.25,5.55s-4.25-4-4.25-5.55,1.9-2.76,4.25-2.76S51.79,45.18,51.79,46.7Z"/><circle class="cls-4" cx="64.39" cy="23.1" r="0.98"/><circle class="cls-4" cx="31.01" cy="23.1" r="0.98"/></svg>