<svg id="Layer_1" data-name="Layer 1" xmlns="http://www.w3.org/2000/svg" viewBox="0 0 100 100"><defs><style>.cls-1{fill:#513430;}.cls-2{fill:#714c48;}.cls-3{fill:#fff;}.cls-4{fill:#f05a2b;}.cls-5{fill:#221f1f;}</style></defs><title>werewolf</title><rect class="cls-1" x="22.51" y="32.71" width="5.5" height="21.52" rx="1.32" ry="1.32"/><rect class="cls-1" x="72.18" y="32.71" width="5.5" height="21.52" rx="1.32" ry="1.32"/><path class="cls-1" d="M39.25,100h0c-2.29,0-5.65-1.88-5.65-4.18l1.48-8.42c0-2.29,1.88-11,4.17-11h0c2.3,0,4.18,8.75,4.18,11L45,95.82C45,98.12,41.55,100,39.25,100Z"/><rect class="cls-1" x="37.87" y="45.69" width="24.27" height="31.09" rx="4.38" ry="4.38"/><rect class="cls-2" x="22.51" y="24.65" width="55.17" height="16.12" rx="3.88" ry="3.88"/><rect class="cls-2" x="34.26" y="9.26" width="31.47" height="38.9" rx="4.38" ry="4.38"/><rect class="cls-2" x="28.77" y="30.4" width="41.9" height="24.84" rx="4.38" ry="4.38"/><rect class="cls-1" x="56.69" y="64.97" width="8.35" height="23.64" rx="2.01" ry="2.01"/><path class="cls-1" d="M60.87,100h0c-2.3,0-5.66-1.88-5.66-4.18l1.48-8.42c0-2.29,1.88-11,4.18-11h0c2.29,0,4.17,8.75,4.17,11l1.55,8.42C66.59,98.12,63.16,100,60.87,100Z"/><rect class="cls-1" x="35.08" y="64.97" width="8.35" height="23.64" rx="2.01" ry="2.01"/><path class="cls-1" d="M23,77.6h0s-1.64-3.49-1.64-4.39V63.64A1.65,1.65,0,0,1,23,62h0a1.65,1.65,0,0,1,1.64,1.64v9.57C24.59,74.11,23,77.6,23,77.6Z"/><path class="cls-1" d="M27.38,77.6h0s-1.65-3.49-1.65-4.39V63.64A1.65,1.65,0,0,1,27.38,62h0A1.65,1.65,0,0,1,29,63.64v9.57C29,74.11,27.38,77.6,27.38,77.6Z"/><path class="cls-1" d="M25.38,80h0s-1.64-3.48-1.64-4.39V66a1.64,1.64,0,0,1,1.64-1.65h0A1.65,1.65,0,0,1,27,66v9.56C27,76.47,25.38,80,25.38,80Z"/><path class="cls-1" d="M72.59,77.19h0S71,73.7,71,72.8V63.23a1.65,1.65,0,0,1,1.64-1.64h0a1.65,1.65,0,0,1,1.65,1.64V72.8C74.24,73.7,72.59,77.19,72.59,77.19Z"/><path class="cls-1" d="M77,77.19h0s-1.64-3.49-1.64-4.39V63.23A1.65,1.65,0,0,1,77,61.59h0a1.65,1.65,0,0,1,1.64,1.64V72.8C78.66,73.7,77,77.19,77,77.19Z"/><path class="cls-1" d="M75,79.54h0s-1.64-3.48-1.64-4.39V65.58A1.65,1.65,0,0,1,75,63.94h0a1.64,1.64,0,0,1,1.64,1.64v9.57C76.66,76.06,75,79.54,75,79.54Z"/><rect class="cls-2" x="20.04" y="47.15" width="10.24" height="23" rx="2.46" ry="2.46"/><rect class="cls-2" x="69.72" y="47.15" width="10.24" height="23" rx="2.46" ry="2.46"/><path class="cls-2" d="M39.64,15.8a4.68,4.68,0,1,1-9.36,0C30.28,13.22,35,0,35,0S39.64,13.22,39.64,15.8Z"/><path class="cls-2" d="M70.41,15.8a4.68,4.68,0,1,1-9.35,0c0-2.58,4.68-15.8,4.68-15.8S70.41,13.22,70.41,15.8Z"/><path class="cls-1" d="M56.57,25.72H43.43a5.58,5.58,0,0,1-5.56-5.57h0a5.58,5.58,0,0,1,5.56-5.57l6.29,6.15,6.85-6.15a5.58,5.58,0,0,1,5.56,5.57h0A5.58,5.58,0,0,1,56.57,25.72Z"/><path class="cls-3" d="M40.6,31.27c0-.63.89-1.15,2-1.15s2,.52,2,1.15-2,10-2,10S40.6,31.91,40.6,31.27Z"/><path class="cls-3" d="M43.94,35.22c0-.64.89-1.15,2-1.15s2,.51,2,1.15-2,10-2,10S43.94,35.86,43.94,35.22Z"/><path class="cls-3" d="M55.09,31.27c0-.63.89-1.15,2-1.15s2,.52,2,1.15-2,10-2,10S55.09,31.91,55.09,31.27Z"/><path class="cls-3" d="M52.08,35.22c0-.64.89-1.15,2-1.15s2,.51,2,1.15-2,10-2,10S52.08,35.86,52.08,35.22Z"/><path class="cls-1" d="M49.72,42.82h0c-3.07,0-11.85-14.92-11.85-18h0a5.58,5.58,0,0,1,5.56-5.57H56.57a5.58,5.58,0,0,1,5.56,5.57h0C62.13,27.9,52.78,42.82,49.72,42.82Z"/><circle class="cls-4" cx="40" cy="19.48" r="1"/><circle class="cls-5" cx="50" cy="41.73" r="2.08"/><circle class="cls-4" cx="60.06" cy="19.48" r="1"/><polygon class="cls-2" points="31.7 53.22 36.06 53.22 33.88 59.9 31.7 53.22"/><polygon class="cls-2" points="34.26 53.22 38.62 53.22 36.44 59.9 34.26 53.22"/><polygon class="cls-2" points="36.82 53.22 41.18 53.22 39 59.9 36.82 53.22"/><polygon class="cls-2" points="39.38 53.22 43.74 53.22 41.56 59.9 39.38 53.22"/><polygon class="cls-2" points="41.94 53.22 46.3 53.22 44.12 59.9 41.94 53.22"/><polygon class="cls-2" points="44.5 53.22 48.86 53.22 46.68 59.9 44.5 53.22"/><polygon class="cls-2" points="47.06 53.22 51.42 53.22 49.24 59.9 47.06 53.22"/><polygon class="cls-2" points="49.62 53.22 53.98 53.22 51.8 59.9 49.62 53.22"/><polygon class="cls-2" points="52.18 53.22 56.54 53.22 54.36 59.9 52.18 53.22"/><polygon class="cls-2" points="54.74 53.22 59.1 53.22 56.92 59.9 54.74 53.22"/><polygon class="cls-2" points="57.3 53.22 61.66 53.22 59.48 59.9 57.3 53.22"/><polygon class="cls-2" points="59.86 53.22 64.22 53.22 62.04 59.9 59.86 53.22"/><polygon class="cls-2" points="62.42 53.22 66.78 53.22 64.6 59.9 62.42 53.22"/></svg>