<svg id="Layer_1" data-name="Layer 1" xmlns="http://www.w3.org/2000/svg" viewBox="0 0 100 100"><defs><style>.cls-1{fill:#171717;}.cls-2{fill:#ffc640;}.cls-3{fill:#7d7d7d;}.cls-4{fill:#9c9c9c;}.cls-5{fill:#895e59;}</style></defs><title>grim reaper</title><rect class="cls-1" x="14.57" y="1.1" width="32.35" height="53.54" rx="7.07" ry="7.07"/><path class="cls-1" d="M63.93,64.79c-4.18,0-6.67-4.63-11.27-16.88-2.63-7-4.89-13.92-5-14.21a5,5,0,1,1,9.45-3.07c2.24,6.88,5.06,14.67,7.23,19.84l.37,0A4.94,4.94,0,0,1,69.9,55.2c.11,2.56.35,8.55-4.79,9.48A7,7,0,0,1,63.93,64.79Z"/><rect class="cls-1" x="0.23" y="25.91" width="59.78" height="19.74" rx="4.31" ry="4.31"/><path class="cls-1" d="M11.09,46.06V41l-.21,0a3,3,0,0,0-3,3V51A5.44,5.44,0,0,0,11.09,46.06Z"/><path class="cls-1" d="M49.16,46.06V41l.21,0a3,3,0,0,1,3,3V51A5.44,5.44,0,0,1,49.16,46.06Z"/><path class="cls-1" d="M35.07,98.42h0c-10.74,0-28.62,3.31-28.62-7.43l4.2-45.55A19.59,19.59,0,0,1,30.17,25.91h0A19.59,19.59,0,0,1,49.7,45.44l4.89,42.22C54.59,98.4,45.8,98.42,35.07,98.42Z"/><path class="cls-1" d="M32.92,98.43h0c-6.59,0-17.56,3.24-17.56-7.27L17.94,47c0-10.51,5.39-19.1,12-19.1h0c6.59,0,12,8.59,12,19.1l3,40.93C44.89,98.41,39.5,98.43,32.92,98.43Z"/><path class="cls-1" d="M41.89,47a26,26,0,0,0-3.28-13.08H33.55L30.12,46l.76,3.37L30.12,46l-.78,2.76L30.12,46l-2.73-12.1H21.22A26,26,0,0,0,17.94,47L16.8,66.51H43.32Z"/><polygon class="cls-1" points="17.04 62.34 16.8 66.51 43.32 66.51 43.02 62.34 17.04 62.34"/><rect class="cls-1" x="25.56" y="61.54" width="9.9" height="5.98" rx="1.31" ry="1.31"/><path d="M43,29.11c0,1.5-5.49,30.76-12.26,30.76S18.48,30.61,18.48,29.11,24,6.2,30.75,6.2,43,27.61,43,29.11Z"/><circle class="cls-2" cx="22.67" cy="20.65" r="1.06"/><circle class="cls-2" cx="38.63" cy="20.65" r="1.06"/><path class="cls-3" d="M74.36,22.21,71.8,27.38s-2.37,2.85.75,7.1h14.9C80.62,25.68,74.36,22.21,74.36,22.21Z"/><path class="cls-3" d="M90.81,39.23c-.8-1.23-1.6-2.4-2.4-3.48H73.63A23.59,23.59,0,0,0,78,39.23Z"/><path class="cls-4" d="M90.81,39.23H78a44.31,44.31,0,0,0,4.62,2.61A30.53,30.53,0,0,1,87,44.54h6.94C92.91,42.64,91.86,40.86,90.81,39.23Z"/><path class="cls-3" d="M100.23,60a82,82,0,0,0-6.3-15.41H87C95.26,50.6,100.23,60,100.23,60Z"/><path class="cls-4" d="M87.45,34.48H72.55a14.38,14.38,0,0,0,1.08,1.27H88.41C88.09,35.31,87.77,34.89,87.45,34.48Z"/><rect class="cls-5" x="35.44" y="5.38" width="6.37" height="105.18" rx="1.39" ry="1.39" transform="translate(52.3 -10.33) rotate(45)"/><rect class="cls-5" x="44.34" y="50.76" width="16.34" height="5.23" rx="1.14" ry="1.14" transform="translate(53.12 -21.5) rotate(45)"/><path class="cls-1" d="M33.13,79a5.12,5.12,0,0,1-.67,0C5.8,75.38-.1,48.57.51,34.89a5,5,0,0,1,9.93.44c0,1.33-.9,30.52,23.33,33.74a5,5,0,0,1-.64,9.9Z"/><path class="cls-1" d="M65,59.49a5,5,0,0,1-5-4.91c-.06-5.55-1-11.81-2.05-13.33a5,5,0,0,1,6.16-7.8c4.92,3.67,5.77,14.74,5.83,21a5,5,0,0,1-4.91,5Zm-6.8-18.08h0Z"/></svg>