<svg id="Layer_1" data-name="Layer 1" xmlns="http://www.w3.org/2000/svg" viewBox="0 0 100 100"><defs><style>.cls-1{fill:#4b869f;}.cls-2{fill:#fff;}.cls-3{fill:#e3e4e5;}.cls-4{fill:#d3d4d6;}.cls-5{fill:#6ab8d9;}.cls-6{fill:#e6b43b;}.cls-7{fill:#bf9b77;}.cls-8{fill:#553734;}.cls-9{fill:#6d4945;}.cls-10{fill:#fcca98;}.cls-11{fill:#e2b68a;}.cls-12{fill:#b2906e;}</style></defs><title>sailor</title><rect class="cls-1" x="14.65" y="41.41" width="20.03" height="3.18"/><path class="cls-2" d="M15.7,45.77H32.85A7.26,7.26,0,0,1,40.1,53V89.2a4,4,0,0,1-4,4H15.7a7.26,7.26,0,0,1-7.26-7.26V53A7.26,7.26,0,0,1,15.7,45.77Z"/><rect class="cls-2" y="43.28" width="48.47" height="16" rx="3.67" ry="3.67"/><rect class="cls-2" y="47.46" width="8.8" height="27.88" rx="2.02" ry="2.02"/><path class="cls-3" d="M8.8,70.94V55.47l-.17,0a2.47,2.47,0,0,0-2.46,2.46V75A4.42,4.42,0,0,0,8.8,70.94Z"/><rect class="cls-2" x="39.67" y="47.46" width="8.8" height="27.88" rx="2.02" ry="2.02" transform="translate(88.14 122.8) rotate(180)"/><path class="cls-3" d="M39.67,70.94V55.47l.17,0a2.47,2.47,0,0,1,2.46,2.46V75A4.42,4.42,0,0,1,39.67,70.94Z"/><rect class="cls-2" x="8.45" y="43.28" width="31.66" height="47.43" rx="7.26" ry="7.26"/><ellipse class="cls-4" cx="24.74" cy="45.87" rx="9.94" ry="2.2"/><path class="cls-3" d="M1.72,72.07a1.73,1.73,0,0,0,0,3.45H8.45V72.07Z"/><path class="cls-3" d="M46.83,72.07a1.73,1.73,0,0,1,0,3.45H40.1V72.07Z"/><path class="cls-3" d="M14.65,43.75s6,10.66,7.54,9.7l-3.42,8.19S9.86,50,10.62,45.33Z"/><path class="cls-3" d="M34.68,43.75s-6,10.66-7.54,9.7l3.43,8.19S39.48,50,38.72,45.33Z"/><path class="cls-5" d="M14.65,41.41s6,10.66,7.54,9.71L18.77,59.3S9.86,47.61,10.62,43Z"/><path class="cls-5" d="M34.68,41.41s-6,10.66-7.54,9.71l3.43,8.18S39.48,47.61,38.72,43Z"/><path class="cls-2" d="M11,42.84a50.24,50.24,0,0,0,8.4,15l.48-1.16A49.1,49.1,0,0,1,12,42.44Z"/><path class="cls-2" d="M14,41.68l-1,.4A49.29,49.29,0,0,0,20.3,55.64l.5-1.18A48.06,48.06,0,0,1,14,41.68Z"/><path class="cls-2" d="M37.16,42.38A48.85,48.85,0,0,1,29.4,56.52l.48,1.15a49.86,49.86,0,0,0,8.31-14.89Z"/><path class="cls-2" d="M35.21,41.62a48.18,48.18,0,0,1-6.73,12.69L29,55.49A49.07,49.07,0,0,0,36.24,42Z"/><rect class="cls-5" x="19.51" y="53.72" width="11.13" height="4.36" rx="1" ry="1"/><path class="cls-5" d="M18,71.08l-3.19-5.72c4.44-2.47,5.66-9.57,5.67-9.64l6.47,1C26.86,57.15,25.25,67,18,71.08Z"/><path class="cls-5" d="M31.46,71.08c-7.27-4-8.88-13.93-8.95-14.35l6.47-1c.32,2,2,7.59,5.67,9.65Z"/><polygon class="cls-2" points="28.58 13.16 20.23 13.16 7.79 13.16 13.18 25.19 20.23 25.19 28.58 25.19 35.63 25.19 41.02 13.16 28.58 13.16"/><path class="cls-2" d="M35.63,27.21H13.18A2,2,0,0,1,11.34,26L6,14a2,2,0,0,1,1.84-2.85H41A2,2,0,0,1,42.86,14L37.47,26A2,2,0,0,1,35.63,27.21Zm-21.14-4H34.32l3.58-8h-27Z"/><rect class="cls-2" x="13.01" y="6.8" width="23.32" height="16.29" rx="2.11" ry="2.11"/><path class="cls-5" d="M22.21,25.24a2.9,2.9,0,0,1-2.9-2.9.7.7,0,0,1,.7-.71.71.71,0,0,1,.71.71,1.49,1.49,0,1,0,3,0,.71.71,0,0,1,.71-.71.7.7,0,0,1,.7.71A2.9,2.9,0,0,1,22.21,25.24Z"/><path class="cls-5" d="M26.6,25.24a2.9,2.9,0,0,1-2.9-2.9.71.71,0,0,1,.71-.71.7.7,0,0,1,.7.71,1.49,1.49,0,1,0,3,0,.71.71,0,0,1,.71-.71.7.7,0,0,1,.7.71A2.9,2.9,0,0,1,26.6,25.24Z"/><path class="cls-5" d="M24.41,22.75A.71.71,0,0,1,23.7,22V16a.71.71,0,0,1,.71-.71.7.7,0,0,1,.7.71V22A.7.7,0,0,1,24.41,22.75Z"/><path class="cls-5" d="M24.44,16.65a2.28,2.28,0,1,1,2.28-2.28A2.29,2.29,0,0,1,24.44,16.65Zm0-3.15a.87.87,0,1,0,.86.87A.87.87,0,0,0,24.44,13.5Z"/><polygon class="cls-5" points="18.91 21.93 21.11 21.93 20.01 20.14 18.91 21.93"/><path class="cls-5" d="M21.11,22.5h-2.2a.57.57,0,0,1-.5-.29.6.6,0,0,1,0-.58l1.1-1.79a.6.6,0,0,1,1,0l1.1,1.79a.57.57,0,0,1,0,.58A.6.6,0,0,1,21.11,22.5Zm-1.17-1.15h.14L20,21.24Z"/><polygon class="cls-5" points="27.7 21.93 29.9 21.93 28.8 20.14 27.7 21.93"/><path class="cls-5" d="M29.9,22.5H27.7a.6.6,0,0,1-.51-.29.57.57,0,0,1,0-.58l1.1-1.79a.6.6,0,0,1,1,0l1.1,1.79a.57.57,0,0,1-.49.87Zm-1.17-1.15h.14l-.07-.11Z"/><rect class="cls-6" x="57.46" y="14.42" width="7.03" height="21.55" rx="1.61" ry="1.61" transform="translate(86.17 -35.79) rotate(90)"/><rect class="cls-6" x="66.06" y="11.6" width="8.87" height="27.18" rx="2.03" ry="2.03" transform="translate(95.69 -45.3) rotate(90)"/><rect class="cls-6" x="74.95" y="9.43" width="10.29" height="31.53" rx="2.36" ry="2.36" transform="translate(105.29 -54.91) rotate(90)"/><circle class="cls-5" cx="91.84" cy="25.19" r="3.56"/><path class="cls-7" d="M56.55,54a2.7,2.7,0,0,0-1.33,1.49c-.27,1,6.33,0,6.33,0"/><rect class="cls-8" x="53.23" y="55.23" width="43.11" height="2.43" rx="0.56" ry="0.56"/><path class="cls-8" d="M72.54,49.29a1.29,1.29,0,0,0-1.29,1.29v41l2.58,0V50.58A1.29,1.29,0,0,0,72.54,49.29Z"/><rect class="cls-9" x="69.9" y="53.12" width="5.28" height="0.9" rx="0.21" ry="0.21"/><rect class="cls-9" x="69.9" y="52.39" width="5.28" height="0.9" rx="0.21" ry="0.21"/><rect class="cls-9" x="69.9" y="51.66" width="5.28" height="0.9" rx="0.21" ry="0.21"/><path class="cls-10" d="M100,69.15C99.45,64.9,92.15,54,92.15,54H56.55s6.87,10.22,7.75,14.73A45.21,45.21,0,0,0,100,69.15Z"/><path class="cls-11" d="M64.3,68.75a4.64,4.64,0,0,1,.1.85c0,3.89-7.85,15.57-7.85,15.57h35.6S100,73.49,100,69.6a3.64,3.64,0,0,0,0-.45A45.21,45.21,0,0,1,64.3,68.75Z"/><path class="cls-11" d="M97.39,67.16a74.55,74.55,0,0,1-14.3,1.4,74.55,74.55,0,0,1-14.3-1.4,73.73,73.73,0,0,1,28.6,0Z"/><path class="cls-12" d="M91.12,82.32s-6.4.7-14.3.7-14.3-.7-14.3-.7,6.41-.7,14.3-.7S91.12,82.32,91.12,82.32Z"/></svg>