<svg id="Layer_1" data-name="Layer 1" xmlns="http://www.w3.org/2000/svg" viewBox="0 0 100 100"><defs><style>.cls-1{fill:#e2b13a;}.cls-2{fill:#ffc640;}.cls-3{fill:#3e3e3f;}.cls-4{fill:#f37d3b;}</style></defs><title>camel</title><path class="cls-1" d="M35.67,69.66l5.48-29.13H28.67l4.14,29.09h-.2a.71.71,0,0,0-.7.7v1.42A.7.7,0,0,0,32,72a.6.6,0,0,0-.05.24v1.42a.71.71,0,0,0,.7.7h0L34,83.61l1.82-9.35a.71.71,0,0,0,.38-.61V72.23a.85.85,0,0,0-.05-.24,1,1,0,0,0,.05-.25V70.32A.69.69,0,0,0,35.67,69.66Z"/><path class="cls-1" d="M76.73,69.34l.09-.08-4-25.51L61.07,47.93l11.53,22-.07.2a.66.66,0,0,0,0,.24.68.68,0,0,0-.12.22l-.46,1.34a.7.7,0,0,0,.44.89h0L70.71,82l4.72-8.27a.71.71,0,0,0,.56-.46L76.44,72a.77.77,0,0,0,0-.25.72.72,0,0,0,.12-.21l.46-1.35A.71.71,0,0,0,76.73,69.34Z"/><path class="cls-2" d="M99.24,64.13C92.57,62.57,88.7,57.9,86.46,53.3L86.26,52a11.55,11.55,0,0,0-5.77-14.25V35.1c0-6.17-6.47-11.4-10.79-13-4.07,1.52-10,6.25-10.72,12-.68-5.7-6.65-10.43-10.72-12h0c-4,1.5-9.82,6.09-10.67,11.66a12.39,12.39,0,0,0-3.57,1l-.4-.67-.42-.74c-.27-.51-.56-1-.82-1.53l-.8-1.58c-.58-1.29-1.21-2.58-1.92-3.9a32.1,32.1,0,0,0-2.57-4.05,16.88,16.88,0,0,0-1.94-2.17L25,20l-.17-.14-.33-.28c-.21-.18-.49-.37-.74-.55a10,10,0,0,0-.87-.53l-.23-.12-.26-.12L21.88,18c-.17-.07-.37-.13-.56-.19s-.39-.11-.59-.15-.41-.07-.61-.09a4.32,4.32,0,0,0-.62-.05h-.62l-.6.07a6.33,6.33,0,0,0-1.12.26,4.81,4.81,0,0,0-.5.18l-.47.21-.42.23-.2.11-.18.13c-.24.16-.48.33-.68.49l-.3.26-.27.26a10.15,10.15,0,0,0-.84.94l-7.46.37-1,.05A5.14,5.14,0,0,0,0,26.49v.27a5.14,5.14,0,0,0,5.37,4.87l1.83-.09L18.05,31c0,.82.08,1.67.09,2.54l.12,2c0,.68.11,1.37.17,2.06l.1,1,.13,1.06c.09.71.18,1.41.32,2.15L19.17,43c.06.36.15.74.23,1.12l.26,1.13L20,46.38l.17.59c.06.2.13.41.2.62l.44,1.24A23.13,23.13,0,0,0,22,51.51c.13.23.24.46.39.7l.48.75.51.75c.21.26.42.53.64.79a15.56,15.56,0,0,0,3.71,3.26,14.72,14.72,0,0,0,8.41,2.16c.31,0,.62,0,.92-.07l.47-.05.43-.07.87-.17.43-.1.4-.11.79-.25.25-.08c.9.24,1.86.47,2.9.69l1.56,11h-.46a.7.7,0,0,0-.71.7v1.42a.71.71,0,0,0,.71.7h0l1.36,9.26,1.82-9.35a.7.7,0,0,0,.38-.61V71.43a.7.7,0,0,0-.7-.7h-.19l1.9-10.07a80.38,80.38,0,0,0,10,.61,100.28,100.28,0,0,0,18.17-1.74,13.6,13.6,0,0,0,1.58-.43l5.8,11.09a.64.64,0,0,0-.35.4l-.46,1.34a.71.71,0,0,0,.44.89h0L82.84,82l4.73-8.27a.68.68,0,0,0,.55-.46L88.58,72a.71.71,0,0,0-.44-.89l-.93-.32L89,69.26,87.25,58.37A19.74,19.74,0,0,0,98.79,66a.93.93,0,0,0,.23,0,1,1,0,0,0,.22-1.93Z"/><circle class="cls-3" cx="19.54" cy="23.11" r="0.61"/><circle class="cls-4" cx="3.05" cy="22.33" r="0.61"/><rect class="cls-2" x="44.02" y="68.83" width="4.3" height="2.82" rx="0.7" ry="0.7"/><polygon class="cls-4" points="29.42 85.22 37.84 85.22 33.63 79.59 29.42 85.22"/><polygon class="cls-4" points="41.96 85.22 50.38 85.22 46.17 79.59 41.96 85.22"/><polygon class="cls-4" points="67.1 85.22 75.53 85.22 71.31 79.59 67.1 85.22"/><rect class="cls-2" x="84.78" y="68.74" width="4.3" height="2.82" rx="0.7" ry="0.7" transform="translate(27.12 -24.19) rotate(18.72)"/><polygon class="cls-4" points="79.24 85.22 87.66 85.22 83.45 79.59 79.24 85.22"/><ellipse class="cls-2" cx="25.42" cy="18.26" rx="2.59" ry="1.7" transform="translate(-5.87 17.62) rotate(-34.52)"/><path class="cls-4" d="M19.78,14.78a6.59,6.59,0,0,0-6.59,6.58l1.1,1.44,1.1-1.44,1.1,1.44,1.1-1.44,1.09,1.44,1.1-1.44,1.1,1.44L22,21.36l1.1,1.44,1.09-1.44,1.1,1.44,1.1-1.44A6.59,6.59,0,0,0,19.78,14.78Z"/><path class="cls-4" d="M48.26,19.19a8.4,8.4,0,0,0-8.39,8.4l1.4,1.83,1.4-1.83,1.39,1.83,1.4-1.83,1.4,1.83,1.4-1.83,1.4,1.83,1.4-1.83,1.4,1.83,1.4-1.83,1.4,1.83,1.4-1.83A8.4,8.4,0,0,0,48.26,19.19Z"/><path class="cls-4" d="M69.7,19.19a8.4,8.4,0,0,0-8.4,8.4l1.4,1.83,1.4-1.83,1.4,1.83,1.4-1.83,1.4,1.83,1.4-1.83,1.4,1.83,1.4-1.83,1.4,1.83,1.4-1.83,1.39,1.83,1.4-1.83A8.39,8.39,0,0,0,69.7,19.19Z"/></svg>