<svg id="Layer_1" data-name="Layer 1" xmlns="http://www.w3.org/2000/svg" viewBox="0 0 100 100"><defs><style>.cls-1{fill:#b95f2b;}.cls-2{fill:#a35323;}</style></defs><title>wall</title><path class="cls-1" d="M100,39.52A17.19,17.19,0,0,0,82.86,22.38H17.14A17.19,17.19,0,0,0,0,39.52v38.1H100Z"/><rect class="cls-2" x="5.83" y="30.24" width="17.64" height="8.08"/><rect class="cls-2" x="29.31" y="30.24" width="17.64" height="8.08"/><rect class="cls-2" x="52.92" y="30.24" width="17.64" height="8.08"/><rect class="cls-2" x="76.53" y="30.24" width="17.64" height="8.08"/><rect class="cls-2" x="17.38" y="42.69" width="17.64" height="8.08"/><rect class="cls-2" x="40.12" y="42.69" width="17.64" height="8.08"/><rect class="cls-2" x="62.86" y="42.69" width="17.64" height="8.08"/><rect class="cls-2" x="5.83" y="54.34" width="17.64" height="8.08"/><rect class="cls-2" x="29.31" y="54.34" width="17.64" height="8.08"/><rect class="cls-2" x="52.92" y="54.34" width="17.64" height="8.08"/><rect class="cls-2" x="76.53" y="54.34" width="17.64" height="8.08"/><rect class="cls-2" x="17.38" y="66.8" width="17.64" height="8.08"/><rect class="cls-2" x="40.12" y="66.8" width="17.64" height="8.08"/><rect class="cls-2" x="62.86" y="66.8" width="17.64" height="8.08"/></svg>