<svg id="Layer_1" data-name="Layer 1" xmlns="http://www.w3.org/2000/svg" viewBox="0 0 100 100"><defs><style>.cls-1{fill:#3e3e3f;}.cls-2{fill:#aed2c4;}.cls-3{fill:#09a582;}.cls-4{fill:#059072;}.cls-5{fill:#007f63;}.cls-6{fill:#7d7d7d;}</style></defs><title>planet</title><path class="cls-1" d="M85.71,0H14.29A14.33,14.33,0,0,0,0,14.29V85.71A14.33,14.33,0,0,0,14.29,100H85.71A14.33,14.33,0,0,0,100,85.71V14.29A14.33,14.33,0,0,0,85.71,0Z"/><path class="cls-2" d="M46.48,44C25.86,50.78,9.17,58.26,4.94,62.38l11.14-3.64c.08-1.91,13.61-7.85,30.8-13.48S78.5,36.42,79.7,37.91l11.13-3.64C85,33.45,67.1,37.28,46.48,44Z"/><path class="cls-3" d="M39.79,25.61a25.56,25.56,0,0,0-15.4,13.87l34.49-12.6A25.56,25.56,0,0,0,39.79,25.61Z"/><path class="cls-4" d="M58.88,26.88,24.39,39.48a25.74,25.74,0,0,0-2.08,13.76L69.13,35.82A25.73,25.73,0,0,0,58.88,26.88Z"/><path class="cls-5" d="M73.33,47.94a24.91,24.91,0,0,0-4.2-12.12L22.31,53.24A25.1,25.1,0,0,0,23.38,58a25.53,25.53,0,0,0,3.09,6.31Z"/><path class="cls-4" d="M73.33,47.94,26.47,64.29a25.72,25.72,0,0,0,9.34,8.39L71.53,59.61A25.58,25.58,0,0,0,73.33,47.94Z"/><path class="cls-3" d="M35.81,72.68A25.57,25.57,0,0,0,71.53,59.61Z"/><path class="cls-2" d="M92.84,35.24c-.16-.51-.89-.82-2-1L79.7,37.91s.08.06.1.1c.57,1.76-13.23,7.86-30.83,13.62s-32.34,9-32.92,7.25c0,0,0-.1,0-.14L4.94,62.38c-.81.79-1.21,1.47-1.05,2,1.05,3.19,21.81-.74,46.37-8.78S93.89,38.43,92.84,35.24Z"/><polygon class="cls-6" points="81.17 40.06 78.18 41 77.07 42.92 78.18 44.84 80.39 44.84 81.5 42.92 81.17 40.06"/><polygon class="cls-1" points="77.32 33.52 79.02 37.62 81.87 38.94 84.43 37.14 84.16 34.02 81.31 32.69 77.32 33.52"/><polygon class="cls-6" points="92.89 39.86 93.67 41.73 94.97 42.34 96.14 41.51 96.02 40.08 94.71 39.48 92.89 39.86"/><polygon class="cls-6" points="20.48 57.83 21.26 59.7 22.56 60.31 23.74 59.48 23.61 58.05 22.31 57.45 20.48 57.83"/><polygon class="cls-1" points="63.65 50.63 67.07 52.22 69.61 51.42 70.18 48.81 68.22 47.02 65.67 47.82 63.65 50.63"/></svg>