<svg id="Layer_1" data-name="Layer 1" xmlns="http://www.w3.org/2000/svg" viewBox="0 0 100 100"><defs><style>.cls-1{fill:#f37d3b;}.cls-2{fill:#fff;}.cls-3{fill:#c7552e;}.cls-4{fill:#6ab8d9;}</style></defs><title>rocket</title><polyline class="cls-1" points="36.39 44.23 31.26 39.1 19.79 39.1 0.02 58.87 10.88 69.73"/><polyline class="cls-1" points="55.8 63.63 60.92 68.76 60.92 80.23 41.15 100 30.29 89.14"/><rect class="cls-2" x="34.89" y="4.05" width="36.36" height="85.72" rx="7.65" ry="7.65" transform="translate(48.71 -23.79) rotate(45)"/><rect class="cls-3" x="39.46" y="52.72" width="7.48" height="8.11" transform="translate(52.8 -13.92) rotate(45)"/><rect class="cls-1" x="24.11" y="54.47" width="7.48" height="35.32" transform="translate(59.16 1.44) rotate(45)"/><path class="cls-1" d="M87.57,38.12c-3.31,3.31-11.74.23-18.84-6.87S58.55,15.72,61.86,12.41,90.92-5.14,98,2,90.87,34.82,87.57,38.12Z"/><rect class="cls-4" x="57.57" y="31.84" width="10.13" height="11.01" rx="1.11" ry="1.11" transform="translate(44.75 -33.35) rotate(45)"/></svg>