<svg id="Layer_1" data-name="Layer 1" xmlns="http://www.w3.org/2000/svg" viewBox="0 0 100 100"><defs><style>.cls-1{fill:#3e3e3f;}</style></defs><title>gunpowder</title><path class="cls-1" d="M86.35,55.37A.73.73,0,1,0,85,55.05h0l-2.78-.66a1.39,1.39,0,0,0,.14-.6,1.42,1.42,0,0,0-1.42-1.41,1.4,1.4,0,0,0-1.4,1.32L76,52.78a3.57,3.57,0,0,0-1.73-3.28l-.94-.6a1,1,0,1,0-1.1-.93,1,1,0,0,0,.05.25c-.68-.46-1.35-.91-2-1.37a1.71,1.71,0,0,0,.41-1.1,1.68,1.68,0,0,0-3.11-.9c-1.06-.81-2-1.62-3-2.43h0a.92.92,0,0,0-.92-.92l-.11,0c-.93-.83-1.8-1.64-2.62-2.45a2,2,0,0,0,.06-.5,2.2,2.2,0,0,0-2.2-2.2,2.3,2.3,0,0,0-.45.05A67.12,67.12,0,0,1,54,31.17a3.68,3.68,0,0,0-6,.23c-.27.4-.55.8-.86,1.19a3.83,3.83,0,0,0-4.47,4.81l-.84.77a2.42,2.42,0,0,0-.54-.07,2.45,2.45,0,0,0-2.45,2.45s0,.06,0,.09l-.48.38-.09,0a1,1,0,0,0-1,.81c-.47.36-1,.72-1.44,1.07a1.4,1.4,0,0,0-.78-.23H35A1,1,0,0,0,33,43a1,1,0,0,0,0,.17,1.65,1.65,0,0,0-.89,1.46,1.57,1.57,0,0,0,.15.68L31,46.17a.68.68,0,0,0-.66-.54.69.69,0,0,0-.42,1.23l-1.58,1a3.77,3.77,0,0,0-1.31,1.36,46.52,46.52,0,0,1-5-.46,1.33,1.33,0,0,0-2.58-.44l-.13,0a5,5,0,0,0-1.53,0s0,0,0-.06a.74.74,0,0,0-.74-.74.75.75,0,0,0-.75.74.76.76,0,0,0,.15.42,4.77,4.77,0,0,0-2.12,1.85,6.68,6.68,0,0,0-6,2.33L8,53a1.41,1.41,0,0,0-2.53.81A33.06,33.06,0,0,1,0,55.07s2,1.36,5.15,3a2.13,2.13,0,0,0-.09.58,2,2,0,0,0,3.67,1.15,44.55,44.55,0,0,0,10.36,3.33h0c2.5.56,5.33,1.06,8.42,1.49,2.48.34,5.14.64,7.92.88,1.4.12,2.83.23,4.29.32,4.38.28,9,.43,13.87.43h0c5.78,0,11.31-.22,16.42-.61a2.78,2.78,0,0,0,5.53-.37s0-.06,0-.09a1,1,0,0,0,.42.09,1,1,0,0,0,.68-.27c3.64-.42,7-.94,9.93-1.54a54.55,54.55,0,0,0,8-2.2,17.91,17.91,0,0,0,3.53-1.71A4.9,4.9,0,0,0,100,57.59,107,107,0,0,1,86.35,55.37Z"/><path class="cls-1" d="M15.88,65.54a2.19,2.19,0,1,0,2.19,2.19A2.19,2.19,0,0,0,15.88,65.54Z"/><path class="cls-1" d="M30.9,66.24a1.24,1.24,0,1,0,1.24,1.23A1.23,1.23,0,0,0,30.9,66.24Z"/><circle class="cls-1" cx="40.51" cy="69.51" r="0.8"/><circle class="cls-1" cx="78.79" cy="66.25" r="0.71"/><circle class="cls-1" cx="86.5" cy="66.67" r="0.8"/></svg>