<svg id="Layer_1" data-name="Layer 1" xmlns="http://www.w3.org/2000/svg" viewBox="0 0 100 100"><defs><style>.cls-1{fill:#007359;}.cls-2{fill:#09a582;}.cls-3{fill:#231f20;}</style></defs><title>swordfish</title><path class="cls-1" d="M30,73.36s-6.42,8.86-14,9c0,0,13-13.89,9.51-19.21"/><path class="cls-1" d="M37.88,72.58s6.42,8.86,14,9.06c0,0-13-13.9-9.51-19.22"/><path class="cls-1" d="M6.94,26.6,13.57,9.92l-.64,8.34S10.65,23,13,24.61c0,0-2.14,5.63,2.21,8.12v5s-4.35-6.27-7.34-6.2"/><path class="cls-2" d="M9.67,27.34a23,23,0,0,0,0,9.24,11,11,0,0,0,3.57,6.27A16.12,16.12,0,0,0,19.05,46a41.14,41.14,0,0,0,7.55,1.69c2.67.45,5.78,0,8.71-.29a18.51,18.51,0,0,1,8.78,1.22,48.42,48.42,0,0,1,9,4.71,46,46,0,0,1,9.66,8.55l0,0a2.08,2.08,0,0,1,0,2.7,32.54,32.54,0,0,1-10.58,8,33.51,33.51,0,0,1-11.15,3.17,22.42,22.42,0,0,1-5.67-.16,24.2,24.2,0,0,1-5.55-1.72c-1.83-.89-3.58-1.7-5.39-2.76L19.07,68.2A47.05,47.05,0,0,1,8.58,60.83,28.2,28.2,0,0,1,1,49.07,21.89,21.89,0,0,1,1.09,35.7a23.87,23.87,0,0,1,6.27-9.83A1.39,1.39,0,0,1,9.7,27.13Z"/><polygon class="cls-2" points="51.97 64.82 48.74 72.28 100 90.08 51.97 64.82"/><path class="cls-1" d="M23,49.37l23.45,7.45s-7.8-29.48-16.59-36.73C29.84,20.09,31,44.53,23,49.37Z"/><ellipse class="cls-3" cx="34.88" cy="69.26" rx="1.43" ry="2.77"/></svg>