<svg id="Layer_1" data-name="Layer 1" xmlns="http://www.w3.org/2000/svg" viewBox="0 0 100 100"><defs><style>.cls-1{fill:#09a582;}.cls-2{fill:#f69a85;}.cls-3{fill:#f2797a;}.cls-4{fill:#bcd2de;}.cls-5{fill:#f05c38;}.cls-6{fill:#fff;}.cls-7{fill:#d45131;}</style></defs><title>drunk</title><path class="cls-1" d="M39.59,64.11a24.61,24.61,0,0,1-19.16,6.54A23.47,23.47,0,0,1,3.32,60.73,19.22,19.22,0,0,1,2.09,41.21a17.75,17.75,0,0,1,6.78-7.32A15.35,15.35,0,0,1,18.69,32a15,15,0,0,1,8.7,4.47,12.12,12.12,0,0,1,3.4,9.2,11.83,11.83,0,0,1-4.41,8.49,9.5,9.5,0,0,1-9.32,1.34,9.13,9.13,0,0,1-3.82-2.85,7.52,7.52,0,0,1-1.54-4.51c0-3.17,2.17-6.35,5.36-6.86a5.71,5.71,0,0,1,4.36,1.1,4.59,4.59,0,0,1,1.9,3.92,4.21,4.21,0,0,1-2.25,3.55,3.37,3.37,0,0,1-3.9-.74,3.2,3.2,0,0,0,3.74.44,3.72,3.72,0,0,0,1.73-3.26c0-2.66-3-4.32-5.32-3.67A5.11,5.11,0,0,0,13.74,48,5.72,5.72,0,0,0,18,52.92a6.46,6.46,0,0,0,6.23-1.39,8.12,8.12,0,0,0,2.5-6,7.68,7.68,0,0,0-2.64-5.67,10,10,0,0,0-6-2.47,9.67,9.67,0,0,0-6,1.69,11.49,11.49,0,0,0-3.85,5A11.75,11.75,0,0,0,9.94,56a14.43,14.43,0,0,0,5,3.82A14.65,14.65,0,0,0,21,61.15,14.39,14.39,0,0,0,31.9,56.41a5.45,5.45,0,1,1,8.16,7.23c-.1.11-.21.23-.32.33Z"/><path class="cls-2" d="M48.48,41.66a11.12,11.12,0,0,0-8.28.28h0a11.17,11.17,0,0,0-6,5.66c-.86,2.16-.54,4.08.67,5.26-1.18-1.2-3.1-1.53-5.26-.66a11.77,11.77,0,0,0-5.94,14.33c.93,2.14,2.5,3.26,4.2,3.24-1.7,0-3.27,1.1-4.2,3.25a11.77,11.77,0,0,0,5.94,14.33c2.16.86,4.08.54,5.26-.67-1.21,1.18-1.53,3.1-.67,5.26a11.17,11.17,0,0,0,6,5.66h0a11.12,11.12,0,0,0,8.28.28c2.15-.93,3.26-2.5,3.25-4.2V45.86C51.74,44.16,50.63,42.59,48.48,41.66Zm-3.19,34h0Zm0-11.8v0h0Z"/><path class="cls-3" d="M40.45,52.32a4.32,4.32,0,0,0,2.6-.89c.56-.36.79-.48,1.13-.46a1.75,1.75,0,0,1,1.35.87,2.85,2.85,0,0,1-1.31,3c-.71.38-1.63.07-3-.47-1.58-.61-3.55-1.36-5.41-.16A5.65,5.65,0,0,0,34,61.27c.89,1.43,2.59,2.15,5.32,2.15,2.89,0,7-.82,12.37-2.45V57.43c-13.34,4.12-14.75,2.14-14.81,2a2.38,2.38,0,0,1,.68-2.41c.41-.27,1.4.11,2.36.48,1.57.6,3.72,1.42,5.85.3,2.33-1.24,4-4.76,2.79-7.45a5.13,5.13,0,0,0-4.16-2.81,5,5,0,0,0-3.22,1c-.18.11-.38.24-.53.31a14.79,14.79,0,0,1-3.37-5.15l-.3.12a10.86,10.86,0,0,0-2.21,2.5C36.12,49,38.33,52.26,40.45,52.32Z"/><path class="cls-3" d="M33,77.38a3.37,3.37,0,0,0,.9-.12c1.56-.41,2.22-1.79,2.81-3,.12-.26.25-.52.39-.79a6.23,6.23,0,0,0-1.31-1.22l1.87-2.82a9.13,9.13,0,0,1,1.58,1.33c.15-.13.31-.25.48-.37,1.73-1.17,4.29-2,5.39-1.26.29.2.42.49.72,1.26a9.34,9.34,0,0,0,2.11,3.53,10.23,10.23,0,0,0,3.83,2.42V72.61a6.25,6.25,0,0,1-1.4-1.07A6,6,0,0,1,49,69.18a5.31,5.31,0,0,0-2-2.89c-2.9-1.92-7.13-.1-9.16,1.29a11.9,11.9,0,0,0-4.17,5.21A7.88,7.88,0,0,1,33,74c-.51-.12-3.09-1.39-9.54-14.37a10.85,10.85,0,0,0,.19,6.94c.93,2.14,2.5,3.26,4.2,3.24a3.85,3.85,0,0,0-2.26.73C29.05,76,31.25,77.38,33,77.38Z"/><path class="cls-3" d="M36.67,83.79c2.36-1.19,3.89-2.65,4.56-4.36a8,8,0,0,0-.31-6.09,8.65,8.65,0,0,0-1.72-2.59,7.91,7.91,0,0,0-2.14,2.71,5.37,5.37,0,0,1,.75,1.22,4.68,4.68,0,0,1,.26,3.52,5.85,5.85,0,0,1-2.93,2.56A18.76,18.76,0,0,1,24.3,82.15a12.33,12.33,0,0,0,2.76,3.61h.57A20.15,20.15,0,0,0,36.67,83.79Z"/><path class="cls-3" d="M37.62,69.42l-1.87,2.82a6.23,6.23,0,0,1,1.31,1.22,7.91,7.91,0,0,1,2.14-2.71A9.13,9.13,0,0,0,37.62,69.42Z"/><path class="cls-3" d="M51.73,80.81a1.82,1.82,0,0,0-.56.51c-.91,1.36-1.67,1.8-2,1.8-.12,0-.24-.08-.6-.34a4.66,4.66,0,0,0-2.12-1c-2-.31-4.12,1-6.35,4a1.7,1.7,0,0,0,2.73,2c2-2.73,3-2.67,3.11-2.66a1.84,1.84,0,0,1,.63.37,4,4,0,0,0,5.14.11V80.81Z"/><path class="cls-2" d="M54.65,45.86V93.68c0,1.7,1.1,3.27,3.24,4.2a11.15,11.15,0,0,0,8.29-.28h0a11.1,11.1,0,0,0,6-5.66c.87-2.16.54-4.08-.66-5.26,1.18,1.21,3.1,1.53,5.26.67A11.77,11.77,0,0,0,82.76,73c-.93-2.15-2.5-3.26-4.2-3.25,1.7,0,3.27-1.1,4.2-3.24A11.77,11.77,0,0,0,76.82,52.2c-2.16-.87-4.08-.54-5.26.66,1.2-1.18,1.53-3.1.66-5.26a11.1,11.1,0,0,0-6-5.66h0a11.15,11.15,0,0,0-8.29-.28C55.75,42.59,54.63,44.16,54.65,45.86ZM61.1,75.69h0Zm-.27-11.83h.27v0Z"/><path class="cls-3" d="M65.93,52.32a4.32,4.32,0,0,1-2.6-.89c-.56-.36-.79-.48-1.14-.46a1.75,1.75,0,0,0-1.34.87,2.86,2.86,0,0,0,1.3,3c.72.38,1.64.07,3.06-.47,1.58-.61,3.55-1.36,5.41-.16a5.65,5.65,0,0,1,1.72,7.05c-.89,1.43-2.59,2.15-5.32,2.15-2.89,0-6.95-.82-12.37-2.45V57.43c13.34,4.12,14.75,2.14,14.81,2a2.38,2.38,0,0,0-.68-2.41c-.41-.27-1.4.11-2.36.48-1.57.6-3.72,1.42-5.85.3-2.33-1.24-4.06-4.76-2.79-7.45a5.11,5.11,0,0,1,4.16-2.81,5,5,0,0,1,3.22,1c.18.11.38.24.53.31a14.94,14.94,0,0,0,3.37-5.15l.29.12a10.68,10.68,0,0,1,2.22,2.5C70.26,49,68.05,52.26,65.93,52.32Z"/><path class="cls-3" d="M73.42,77.38a3.44,3.44,0,0,1-.91-.12c-1.55-.41-2.21-1.79-2.8-3-.12-.26-.25-.52-.39-.79a6.23,6.23,0,0,1,1.31-1.22l-1.87-2.82a8.78,8.78,0,0,0-1.58,1.33c-.15-.13-.31-.25-.48-.37-1.74-1.17-4.29-2-5.39-1.26-.3.2-.42.49-.72,1.26a9.34,9.34,0,0,1-2.11,3.53,10.23,10.23,0,0,1-3.83,2.42V72.61a6.49,6.49,0,0,0,1.4-1.07,6,6,0,0,0,1.37-2.36,5.34,5.34,0,0,1,2-2.89c2.91-1.92,7.13-.1,9.17,1.29a11.9,11.9,0,0,1,4.17,5.21A7.05,7.05,0,0,0,73.41,74c.51-.12,3.09-1.39,9.54-14.37a10.92,10.92,0,0,1-.19,6.94c-.93,2.14-2.5,3.26-4.2,3.24a3.85,3.85,0,0,1,2.26.73C77.33,76,75.13,77.38,73.42,77.38Z"/><path class="cls-3" d="M69.71,83.79c-2.36-1.19-3.9-2.65-4.56-4.36a8,8,0,0,1,.31-6.09,8.47,8.47,0,0,1,1.72-2.59,7.91,7.91,0,0,1,2.14,2.71,5.37,5.37,0,0,0-.75,1.22,4.68,4.68,0,0,0-.26,3.52,5.85,5.85,0,0,0,2.93,2.56,18.76,18.76,0,0,0,10.84,1.39,12.33,12.33,0,0,1-2.76,3.61h-.57A20.12,20.12,0,0,1,69.71,83.79Z"/><path class="cls-3" d="M68.76,69.42l1.87,2.82a6.23,6.23,0,0,0-1.31,1.22,7.91,7.91,0,0,0-2.14-2.71A8.78,8.78,0,0,1,68.76,69.42Z"/><path class="cls-3" d="M54.65,80.81a1.94,1.94,0,0,1,.56.51c.91,1.36,1.67,1.8,2,1.8.11,0,.24-.08.59-.34a4.71,4.71,0,0,1,2.12-1c2.06-.31,4.13,1,6.35,4a1.68,1.68,0,0,1-.35,2.37,1.72,1.72,0,0,1-1,.33,1.69,1.69,0,0,1-1.36-.68c-2-2.73-3-2.67-3.12-2.66a1.92,1.92,0,0,0-.62.37,4.36,4.36,0,0,1-2.45,1,4.31,4.31,0,0,1-2.69-.88V80.81Z"/><path class="cls-4" d="M76.85,7.87A14.75,14.75,0,1,1,56,28.72"/><path class="cls-4" d="M76.85,7.87A14.75,14.75,0,1,1,56,28.72"/><rect class="cls-4" x="48.46" y="10.55" width="29.5" height="9.07" transform="translate(7.85 49.12) rotate(-45)"/><rect class="cls-4" x="81.21" y="22.01" width="3.97" height="26.15" rx="0.91" ry="0.91" transform="translate(-0.44 69.11) rotate(-45)"/><ellipse class="cls-4" cx="92.46" cy="44.35" rx="10.29" ry="2.78" transform="translate(-4.28 78.37) rotate(-45)"/><path class="cls-5" d="M69.24,17.48l-10.7,10.7c4.43,4.43,12,4,16.91-.85a13,13,0,0,0,3.87-9.85Z"/><polygon class="cls-5" points="69.24 17.48 53.7 17.48 50.77 20.41 58.54 28.18 69.24 17.48"/><path class="cls-6" d="M68.78,7.87A5.57,5.57,0,0,1,70,11.12a5.57,5.57,0,0,1-1.26,3.25,5.57,5.57,0,0,1-1.26-3.25A5.57,5.57,0,0,1,68.78,7.87Z"/><path class="cls-6" d="M72.67,7.87a5.57,5.57,0,0,1,1.26,3.25,5.57,5.57,0,0,1-1.26,3.25,5.57,5.57,0,0,1-1.26-3.25A5.57,5.57,0,0,1,72.67,7.87Z"/><path class="cls-5" d="M50.14,54.12a2.18,2.18,0,0,1-1-4.13,3.41,3.41,0,0,0,1.94-2,6.19,6.19,0,0,0-.81-4.2,2.12,2.12,0,0,1-.11-.21c-.37-.81-3.56-8.06-.39-12.63,1.26-1.8-.25-7.3-1.66-10.44a2.2,2.2,0,0,1,.16-2.08,2.17,2.17,0,0,1,1.83-1h6.92a2.18,2.18,0,1,1,0,4.35H53.31c1.13,3.38,2.25,8.52.08,11.65-1.37,2-.13,6.32.72,8.23.44.76,2.18,4.11,1.19,7.52a7.58,7.58,0,0,1-4.2,4.71A2.09,2.09,0,0,1,50.14,54.12Z"/><path class="cls-7" d="M79.32,17.68c0,1.53-7,2.78-15.63,2.78s-15.63,0-15.63-1.57,7-4,15.63-4S79.32,16.15,79.32,17.68Z"/><path class="cls-5" d="M51.73,58.22V45.86c0-1.7-1.1-3.27-3.24-4.2a11.15,11.15,0,0,0-8.29.28h0a11.17,11.17,0,0,0-6,5.66,6.9,6.9,0,0,0-.43,1.83c2.22,3.92,5,5.62,6.61,12,0,2.18,6.53-4.35,8.7-2.17,2.18,4.35-2.17,15.23,2.18,15.23.18.08.34.13.52.2V58.22Z"/><path class="cls-5" d="M73,57.11c0,6.58,4,9.17,9.06,10.68a6.61,6.61,0,0,0,.73-1.26A11.77,11.77,0,0,0,76.82,52.2c-2.16-.87-4.08-.54-5.26.66,1.2-1.18,1.53-3.1.66-5.26a11.1,11.1,0,0,0-6-5.66h0a11.15,11.15,0,0,0-8.29-.28c-2.14.93-3.26,2.5-3.24,4.2V75.58C65.81,77.51,63,59.1,73,57.11ZM61.1,63.85v0h0Z"/><path class="cls-5" d="M34.68,32.3c1,1,2.79,6.3,2.79,6.3s-5.33-1.82-6.3-2.79a2.48,2.48,0,1,1,3.51-3.51Z"/><path class="cls-5" d="M62.1,37.28c-1,1-6.3,2.79-6.3,2.79s1.82-5.33,2.79-6.3a2.48,2.48,0,0,1,3.51,3.51Z"/><path class="cls-5" d="M47.69,40.37c0,1.37-2.48,6.42-2.48,6.42s-2.49-5-2.49-6.42a2.49,2.49,0,1,1,5,0Z"/></svg>