<svg id="Layer_1" data-name="Layer 1" xmlns="http://www.w3.org/2000/svg" viewBox="0 0 100 100"><defs><style>.cls-1{fill:#09a582;}.cls-2{fill:#6ab8d9;}.cls-3{fill:#f37d3b;}.cls-4{fill:#c7552e;}.cls-5{fill:#ffc640;}</style></defs><title>music</title><path class="cls-1" d="M25.62,66a13.62,13.62,0,0,1-9.82-4.44c-2.26-2.25-4.53-3.33-6.64-3.2a8.44,8.44,0,0,0-5.44,3,2.08,2.08,0,0,1-2.91.36,2.06,2.06,0,0,1-.38-2.9A12.59,12.59,0,0,1,8.85,54.2c3.39-.22,6.74,1.26,9.89,4.41,6.89,6.89,13.77.7,14.53,0a12.9,12.9,0,0,1,8.4-3.92,12,12,0,0,1,8.8,4,2.08,2.08,0,0,1-2.94,2.94,8.07,8.07,0,0,0-5.74-2.73,8.86,8.86,0,0,0-5.53,2.65A16,16,0,0,1,25.62,66Z"/><path class="cls-2" d="M26.11,62.64a13.66,13.66,0,0,1-9.82-4.43C14,56,11.85,54.88,9.65,55a8.48,8.48,0,0,0-5.44,3A2.08,2.08,0,0,1,.92,55.47c.13-.17,3.34-4.28,8.42-4.61,3.41-.22,6.74,1.26,9.89,4.41,6.89,6.89,13.77.7,14.53,0a12.91,12.91,0,0,1,8.41-3.92c3.12-.07,6.08,1.24,8.79,4A2.08,2.08,0,0,1,48,58.21c-1.86-1.86-3.78-2.79-5.71-2.74a8.85,8.85,0,0,0-5.56,2.66A16,16,0,0,1,26.11,62.64Z"/><path class="cls-3" d="M26.6,59.3a13.64,13.64,0,0,1-9.82-4.44c-2.26-2.25-4.53-3.32-6.64-3.2a8.48,8.48,0,0,0-5.43,3,2.08,2.08,0,0,1-3.3-2.54c.14-.18,3.34-4.28,8.42-4.61,3.42-.22,6.74,1.25,9.89,4.4,6.89,6.9,13.78.71,14.54,0A12.87,12.87,0,0,1,42.66,48a12.14,12.14,0,0,1,8.79,4,2.08,2.08,0,1,1-2.94,2.94,8,8,0,0,0-5.74-2.73,8.82,8.82,0,0,0-5.52,2.65A16,16,0,0,1,26.6,59.3Z"/><path class="cls-4" d="M27.1,56a13.64,13.64,0,0,1-9.83-4.43c-2.26-2.26-4.49-3.35-6.67-3.2a8.49,8.49,0,0,0-5.4,3,2.08,2.08,0,0,1-3.3-2.54c.14-.17,3.34-4.28,8.43-4.61,3.39-.22,6.73,1.26,9.88,4.41,6.9,6.89,13.77.7,14.54,0a12.87,12.87,0,0,1,8.4-3.92c3.11-.08,6.09,1.24,8.79,3.95A2.08,2.08,0,0,1,49,51.52a7.94,7.94,0,0,0-5.71-2.74,8.81,8.81,0,0,0-5.56,2.67A16.06,16.06,0,0,1,27.1,56Z"/><path class="cls-5" d="M27.59,52.61a13.68,13.68,0,0,1-9.83-4.43c-2.25-2.26-4.5-3.33-6.64-3.2a8.44,8.44,0,0,0-5.43,3A2.08,2.08,0,0,1,2.4,45.44c.13-.17,3.33-4.28,8.42-4.61,3.4-.23,6.74,1.26,9.88,4.41,7.07,7.06,14.23.27,14.54,0a12.94,12.94,0,0,1,8.4-3.93c3.08-.08,6.09,1.25,8.8,4a2.08,2.08,0,0,1-2.94,2.94c-1.87-1.87-3.81-2.79-5.75-2.74a8.91,8.91,0,0,0-5.52,2.65A16,16,0,0,1,27.59,52.61Z"/><path class="cls-1" d="M72.58,66a13.67,13.67,0,0,1-9.83-4.43c-2.26-2.27-4.5-3.36-6.67-3.2a8.51,8.51,0,0,0-5.4,3,2.08,2.08,0,1,1-3.3-2.53c.13-.17,3.34-4.28,8.43-4.61,3.39-.22,6.73,1.26,9.88,4.41,6.89,6.89,13.77.7,14.53,0a12.91,12.91,0,0,1,8.41-3.92c3.12-.07,6.09,1.24,8.79,3.95a2.08,2.08,0,1,1-2.94,2.94c-1.86-1.86-3.77-2.79-5.71-2.74a8.85,8.85,0,0,0-5.56,2.66A16,16,0,0,1,72.58,66Z"/><path class="cls-2" d="M73.07,62.68a13.64,13.64,0,0,1-9.83-4.44C61,56,58.72,54.92,56.6,55a8.48,8.48,0,0,0-5.43,3,2.08,2.08,0,0,1-3.3-2.54c.14-.18,3.34-4.28,8.43-4.61,3.4-.23,6.73,1.25,9.88,4.4,6.89,6.9,13.77.71,14.54,0a12.94,12.94,0,0,1,8.4-3.93,12.09,12.09,0,0,1,8.79,3.95A2.08,2.08,0,0,1,95,58.24a8.14,8.14,0,0,0-5.74-2.73,8.82,8.82,0,0,0-5.52,2.65A16,16,0,0,1,73.07,62.68Z"/><path class="cls-3" d="M73.56,59.33a13.7,13.7,0,0,1-9.83-4.43c-2.25-2.25-4.5-3.33-6.64-3.2a8.49,8.49,0,0,0-5.43,3,2.08,2.08,0,0,1-3.29-2.54c.13-.17,3.33-4.27,8.42-4.61,3.39-.22,6.74,1.26,9.89,4.41,6.89,6.9,13.77.7,14.53,0A12.9,12.9,0,0,1,89.61,48c3.11-.08,6.09,1.24,8.8,4a2.08,2.08,0,0,1-2.94,2.94,8,8,0,0,0-5.71-2.74,8.82,8.82,0,0,0-5.57,2.67A16,16,0,0,1,73.56,59.33Z"/><path class="cls-4" d="M74.05,56a13.65,13.65,0,0,1-9.82-4.43c-2.26-2.26-4.54-3.34-6.64-3.2a8.48,8.48,0,0,0-5.44,3,2.08,2.08,0,0,1-3.29-2.54c.13-.17,3.34-4.28,8.42-4.61,3.4-.23,6.74,1.26,9.89,4.41,6.89,6.89,13.77.7,14.53,0a12.94,12.94,0,0,1,8.41-3.93c3.13-.07,6.08,1.25,8.79,4A2.08,2.08,0,1,1,96,51.56a8,8,0,0,0-5.71-2.74,8.85,8.85,0,0,0-5.56,2.66A16,16,0,0,1,74.05,56Z"/><path class="cls-5" d="M74.54,52.65a13.68,13.68,0,0,1-9.82-4.44C62.46,46,60.2,44.89,58.08,45a8.46,8.46,0,0,0-5.43,3,2.08,2.08,0,0,1-3.3-2.53c.14-.18,3.34-4.28,8.42-4.62,3.41-.22,6.74,1.26,9.89,4.41,6.89,6.89,13.77.7,14.54,0a12.83,12.83,0,0,1,8.4-3.92,12.12,12.12,0,0,1,8.79,4,2.08,2.08,0,0,1-2.94,2.94,8,8,0,0,0-5.74-2.73,8.76,8.76,0,0,0-5.52,2.65A16.07,16.07,0,0,1,74.54,52.65Z"/><circle class="cls-5" cx="27.89" cy="37.84" r="2.8"/><rect class="cls-5" x="26.7" y="26.87" width="2.34" height="11.96" rx="0.59" ry="0.59" transform="translate(-9.26 11.01) rotate(-19.23)"/><rect class="cls-5" x="29.71" y="20.72" width="2.34" height="11.96" rx="0.59" ry="0.59" transform="translate(45.91 -11.25) rotate(70.77)"/><circle class="cls-5" cx="37.14" cy="34.61" r="2.8"/><rect class="cls-5" x="35.95" y="23.64" width="2.34" height="11.96" rx="0.59" ry="0.59" transform="translate(-7.68 13.88) rotate(-19.23)"/><circle class="cls-1" cx="81.75" cy="73.49" r="2.21"/><rect class="cls-1" x="82.37" y="65.12" width="1.85" height="9.46" rx="0.47" ry="0.47" transform="translate(5.16 -5.72) rotate(4.06)"/><rect class="cls-1" x="86.48" y="61.6" width="1.85" height="9.46" rx="0.47" ry="0.47" transform="translate(159.76 -16.16) rotate(94.06)"/><circle class="cls-1" cx="89.49" cy="74.04" r="2.21"/><rect class="cls-1" x="90.11" y="65.67" width="1.85" height="9.46" rx="0.47" ry="0.47" transform="translate(5.22 -6.27) rotate(4.06)"/><circle class="cls-4" cx="64.26" cy="35.64" r="2.8"/><rect class="cls-4" x="66.34" y="25.86" width="2.34" height="11.96" rx="0.59" ry="0.59" transform="translate(16.52 -22.67) rotate(21.66)"/><circle class="cls-5" cx="49.57" cy="38.01" r="1.63"/><rect class="cls-5" x="51.18" y="32.73" width="1.36" height="6.96" rx="0.34" ry="0.34" transform="translate(27.84 -22.3) rotate(32.76)"/><circle class="cls-2" cx="80.41" cy="51.56" r="2.8"/><rect class="cls-2" x="79.71" y="40.61" width="2.34" height="11.96" rx="1.17" ry="1.17" transform="translate(-8.68 20.3) rotate(-13.58)"/><path class="cls-2" d="M79.94,40.75A9.35,9.35,0,0,0,83,40.61a5.7,5.7,0,0,0,2.86-1.49,6.28,6.28,0,0,1-2.47,2.46,10.63,10.63,0,0,1-1.64.76,9.57,9.57,0,0,1-1.81.49h0A1,1,0,0,1,78.74,42a1.06,1.06,0,0,1,.86-1.22A1,1,0,0,1,79.94,40.75Z"/></svg>