<svg id="Layer_1" data-name="Layer 1" xmlns="http://www.w3.org/2000/svg" viewBox="0 0 100 100"><defs><style>.cls-1{fill:#3e3e3f;}.cls-2{fill:#7d7d7d;}.cls-3{fill:#c7552e;}.cls-4{fill:#4a4a4c;}.cls-5{fill:#58595b;}.cls-6{fill:#212121;}.cls-7{fill:#7696a7;}.cls-8{fill:#9dc8dc;}.cls-9{fill:#09a582;}.cls-10{fill:#00795e;}.cls-11{fill:#f37d3b;}.cls-12{fill:#c7672f;}</style></defs><title>smog</title><circle class="cls-1" cx="39.42" cy="34.28" r="4.72"/><circle class="cls-1" cx="96.17" cy="35.68" r="0.55"/><circle class="cls-1" cx="98.18" cy="25.47" r="0.44"/><circle class="cls-1" cx="90.69" cy="14.31" r="1.95"/><path class="cls-1" d="M77.43,6.14a1.07,1.07,0,1,0-1.07-1.06A1.06,1.06,0,0,0,77.43,6.14Z"/><circle class="cls-1" cx="90.69" cy="35.81" r="1.95"/><path class="cls-1" d="M89.09,39.82a2.21,2.21,0,0,0-.57.11A2.28,2.28,0,0,0,87,36.15a5.57,5.57,0,0,0,.61-1.56,3.5,3.5,0,0,0,2.1-.91,1,1,0,0,0,.68-.89,3.49,3.49,0,0,0,.44-1.67,3.55,3.55,0,0,0-.06-.56,2,2,0,0,0,1.55-1.95,2,2,0,0,0-3.88-.89,2.1,2.1,0,0,0-1.11-.34,2.21,2.21,0,0,0-1.46.58l-.25.13a3.55,3.55,0,0,0,.3-1.14,2.25,2.25,0,0,0,2-2.21,2.28,2.28,0,0,0-2.27-2.28,2.25,2.25,0,0,0-1.73.84,3.29,3.29,0,0,0-.76-.28,7.29,7.29,0,0,0-3.92-3.36,7.38,7.38,0,0,0-1.7-3.38,4.58,4.58,0,0,0,.42-.46,5.7,5.7,0,0,0,9.8-4,5.57,5.57,0,0,0-.24-1.54,2.22,2.22,0,1,0-2.2-3.13A5.66,5.66,0,0,0,77.13,9a4.65,4.65,0,0,0-2.78-.93A4.72,4.72,0,0,0,70,11a2.93,2.93,0,0,0-1.75-.57A3,3,0,0,0,66.75,16a7.31,7.31,0,0,0-2.07,5.11,7.23,7.23,0,0,0,.14,1.4h0a6.55,6.55,0,1,0,0,13.1c.17,0,.34,0,.51,0a3,3,0,0,0,2.09,2.22,2.3,2.3,0,0,0,.32.85,2.15,2.15,0,0,0-1.06,1.83,2.19,2.19,0,0,0,2.19,2.18,2.27,2.27,0,0,0,.63-.12,4.07,4.07,0,0,0,.35.65c-.81.39-1.31.83-1.31,1.3,0,1.52,4.68,2.75,10.45,2.75S89.43,46,89.43,44.48a.92.92,0,0,0-.18-.47,2.1,2.1,0,0,0-.16-4.19Z"/><rect class="cls-2" x="80.99" y="34.79" width="2.56" height="8.84" rx="0.64" ry="0.64"/><rect class="cls-2" x="85.04" y="34.79" width="2.56" height="8.84" rx="0.64" ry="0.64"/><rect class="cls-3" x="68.1" y="41.91" width="20.7" height="9.34"/><rect class="cls-4" x="28.82" y="51.36" width="71.18" height="15.74" rx="3.95" ry="3.95"/><polygon class="cls-4" points="95.81 52.75 51.73 74.15 69.09 93.44 97.54 64.99 97.54 55.23 95.81 52.75"/><polygon class="cls-5" points="66.23 58.09 26.87 58.09 17.66 67.29 57.03 67.29 66.23 58.09"/><path class="cls-5" d="M96.94,53.06a7.8,7.8,0,0,0-4.81-1.7H36.69a7.78,7.78,0,0,0-3.61.93h-.41l-5.8,5.8H66.23l2.57-2.57-2.57,2.57h0L57,67.29h0l-1.5,1.49L57,67.29H17.66L3,81.93H68.14L97,53.06Z"/><path class="cls-4" d="M63.31,80.25H7.87A7.87,7.87,0,0,0,7.87,96H63.31a7.87,7.87,0,1,0,0-15.74Z"/><rect class="cls-6" x="23.7" y="38.06" width="16.09" height="24.47"/><rect class="cls-7" x="25.99" y="39.84" width="4.5" height="4.5" rx="0.22" ry="0.22" transform="translate(-13.85 70.34) rotate(-90)"/><rect class="cls-7" x="25.99" y="47.31" width="4.5" height="4.5" rx="0.22" ry="0.22" transform="translate(-21.32 77.8) rotate(-90)"/><rect class="cls-7" x="25.99" y="54.77" width="4.5" height="4.5" rx="0.22" ry="0.22" transform="translate(-28.78 85.26) rotate(-90)"/><rect class="cls-8" x="45.79" y="41.72" width="17.38" height="19.05"/><rect class="cls-9" x="57.05" y="38.23" width="12.24" height="25.25"/><rect class="cls-8" x="59.75" y="40.43" width="4.62" height="4.62" rx="0.22" ry="0.22" transform="translate(19.32 104.8) rotate(-90)"/><rect class="cls-8" x="59.75" y="48.94" width="4.62" height="4.62" rx="0.22" ry="0.22" transform="translate(10.81 113.31) rotate(-90)"/><rect class="cls-10" x="58.28" y="44.07" width="8.21" height="2.82"/><rect class="cls-10" x="59.75" y="46.39" width="0.87" height="1.59" rx="0.22" ry="0.22"/><rect class="cls-10" x="64.21" y="46.39" width="0.87" height="1.59" rx="0.22" ry="0.22"/><path class="cls-10" d="M65.5,57.54a1.66,1.66,0,0,0-1.66-1.66h-.58a1.66,1.66,0,0,0-1.67,1.66v6H65.5Z"/><polygon class="cls-6" points="80.88 69.24 15.7 69.24 18.7 66.25 83.84 66.25 80.88 69.24"/><rect class="cls-3" x="81" y="36.63" width="2.55" height="0.54"/><rect class="cls-3" x="85.04" y="36.63" width="2.55" height="0.54"/><circle class="cls-1" cx="43" cy="63.41" r="0.55"/><circle class="cls-1" cx="53.22" cy="65.42" r="0.44"/><path class="cls-1" d="M71.58,58.83a2,2,0,1,0,2,2A1.95,1.95,0,0,0,71.58,58.83Z"/><path class="cls-1" d="M70.57,56.83a2.23,2.23,0,0,0,.93-4.25,5.66,5.66,0,0,0-1.86-8.21,4.65,4.65,0,0,0,.93-2.78,4.71,4.71,0,0,0-2.92-4.36,2.94,2.94,0,0,0,.58-1.75A3,3,0,0,0,62.67,34a7.31,7.31,0,0,0-5.1-2.07,7.15,7.15,0,0,0-1.4.14h0a6.56,6.56,0,0,0-13.11,0,4.43,4.43,0,0,0,.06.51,3,3,0,0,0-1.4,5.1h0a5,5,0,0,0-1.42-1,2.06,2.06,0,0,0,.12-.6,2.19,2.19,0,1,0-4.37,0,2,2,0,0,0,.13.63,4.87,4.87,0,0,0-2.82,4.42v.05a6.41,6.41,0,0,0-2.2-.41,6.55,6.55,0,1,0,0,13.1,6.17,6.17,0,0,0,1.44-.17A2.8,2.8,0,0,0,34.9,55a2.85,2.85,0,0,0,.29,0,2.09,2.09,0,0,0-.55,1.39,2.12,2.12,0,1,0,4.23,0,2.23,2.23,0,0,0-.12-.57,2.33,2.33,0,0,0,1.49.57,2.31,2.31,0,0,0,2.29-2.07,5.69,5.69,0,0,0,1.56.61A3.51,3.51,0,0,0,45,57a1,1,0,0,0,.89.68,3.15,3.15,0,0,0,2.22.38,2,2,0,0,0,2,1.55A2,2,0,0,0,51,55.7a2.1,2.1,0,0,0,.34-1.11,2.25,2.25,0,0,0-.57-1.46,2,2,0,0,0-.14-.25,3.62,3.62,0,0,0,1.14.3,2.25,2.25,0,0,0,2.22,2,2.27,2.27,0,0,0,2.27-2.27,2.25,2.25,0,0,0-.84-1.73,3.85,3.85,0,0,0,.29-.76A7.31,7.31,0,0,0,59,46.5a7.33,7.33,0,0,0,3.38-1.7,4.58,4.58,0,0,0,.46.42,5.7,5.7,0,0,0,4,9.8,5.57,5.57,0,0,0,1.54-.24A2.22,2.22,0,0,0,70.57,56.83Z"/><path class="cls-1" d="M42.87,56a2,2,0,1,0,2,2A1.95,1.95,0,0,0,42.87,56Z"/><path class="cls-1" d="M73.6,43.6a1.07,1.07,0,1,0,1.07,1.07A1.07,1.07,0,0,0,73.6,43.6Z"/><path class="cls-1" d="M55.1,30.49a.3.3,0,0,0,0,.59.3.3,0,1,0,0-.59Z"/><path class="cls-1" d="M60.61,31.63a.24.24,0,0,0,0,.48.24.24,0,1,0,0-.48Z"/><path class="cls-1" d="M70.52,28.31a1.06,1.06,0,1,0,0,2.11,1.06,1.06,0,0,0,0-2.11Z"/><path class="cls-1" d="M70,27.24a1.2,1.2,0,0,0,.5-2.3,3.05,3.05,0,0,0-1-4.44A2.49,2.49,0,0,0,70,19a2.54,2.54,0,0,0-1.6-2.36,1.56,1.56,0,0,0,.34-.94,1.59,1.59,0,0,0-3-.79A4,4,0,0,0,63,13.8a4.77,4.77,0,0,0-.76.07h0a3.53,3.53,0,0,0-7.06,0,3,3,0,0,0,0,.31,1.56,1.56,0,0,0-.71,2.74l0,0a2.78,2.78,0,0,0-.8-.55.93.93,0,0,0,.07-.33,1.18,1.18,0,0,0-2.36,0,1.36,1.36,0,0,0,.07.35,2.63,2.63,0,0,0-1.52,2.37v0a3.64,3.64,0,0,0-1.19-.22,3.54,3.54,0,1,0,0,7.07,3.58,3.58,0,0,0,.8-.1,1.47,1.47,0,0,0,1.22.67,1,1,0,0,0,.17,0,1.11,1.11,0,0,0-.31.77,1.14,1.14,0,0,0,2.28,0,1.07,1.07,0,0,0-.06-.31,1.26,1.26,0,0,0,.8.31,1.25,1.25,0,0,0,1.24-1.12,3.22,3.22,0,0,0,.86.34,1.85,1.85,0,0,0,.53,1.18.5.5,0,0,0,.44.31h0a1.86,1.86,0,0,0,.87.24,2.65,2.65,0,0,0,.3-.06,1.08,1.08,0,0,0,1,.86,1.1,1.1,0,0,0,.49-2.09,1.24,1.24,0,0,0,.18-.6,1.18,1.18,0,0,0-.37-.86l-.07-.11a2.08,2.08,0,0,0,.67.19,1.21,1.21,0,0,0,1.2,1.1,1.23,1.23,0,0,0,1.22-1.23,1.21,1.21,0,0,0-.46-.94,2.43,2.43,0,0,0,.13-.38,3.93,3.93,0,0,0,1.84-2.13,3.94,3.94,0,0,0,1.83-.93,1.78,1.78,0,0,0,.26.22A3.08,3.08,0,0,0,68,26.26a2.88,2.88,0,0,0,.83-.13A1.19,1.19,0,0,0,70,27.24Z"/><path class="cls-1" d="M55,26.78a1,1,0,1,0,1,1A1,1,0,0,0,55,26.78Z"/><path class="cls-1" d="M71.61,20.1a.58.58,0,1,0,0,1.15.58.58,0,0,0,0-1.15Z"/><path class="cls-1" d="M44.83,37.85a.39.39,0,0,0-.09.54.39.39,0,1,0,.63-.46A.38.38,0,0,0,44.83,37.85Z"/><path class="cls-1" d="M39.88,43.3a.31.31,0,1,0,.43.07A.31.31,0,0,0,39.88,43.3Z"/><path class="cls-1" d="M48.91,21.35a4.63,4.63,0,0,0-6.46-1,4.4,4.4,0,0,0-1.09,1.15l0,0a3.46,3.46,0,0,0-3.44-1.35,1.53,1.53,0,1,0-2.69,1.4,1.81,1.81,0,0,0,.32.3,3.54,3.54,0,0,0-.41,1.14h0a2.06,2.06,0,0,0-2.89-2.3c-.07-.11-.12-.23-.2-.35a4.62,4.62,0,1,0-7.48,5.44h0a4.94,4.94,0,0,0-.86.5,5.18,5.18,0,0,0-2.06,3.33,2.08,2.08,0,0,0-2.08.19,2.11,2.11,0,0,0-.47,2.94,2.05,2.05,0,0,0,1.07.73,3.33,3.33,0,0,0,1.81,4.94,4,4,0,0,0,.4,4,4,4,0,0,0,1.95,1.43,1.57,1.57,0,1,0,2.7,0,3.72,3.72,0,0,0,1-.5A4,4,0,0,0,26.17,36c0-.15.07-.29.09-.44a5,5,0,0,0,2.63-.43,5.16,5.16,0,0,0,3.6.84,2.67,2.67,0,0,0,.43.32,1.58,1.58,0,0,0,.23,1.34,1.6,1.6,0,0,0,2.24.35,1.58,1.58,0,0,0,.43-2.08,2.7,2.7,0,0,0,.56-.71v.17a1.57,1.57,0,0,0,.28,1.19,1.5,1.5,0,0,0,.65.5,1.42,1.42,0,0,0,.1,1.52,1.43,1.43,0,0,0,2.48-1.41,2.83,2.83,0,0,0,.36-.16A2.49,2.49,0,0,0,41,36.1h0a.65.65,0,0,0,.22-.66,2.43,2.43,0,0,0-.34-1.67,4.41,4.41,0,0,0,.65-1A1.63,1.63,0,0,0,43.7,33a1.69,1.69,0,0,0,.61-.95,1.84,1.84,0,0,0,.17.38,1.5,1.5,0,0,0,2.42-1.76,1.48,1.48,0,0,0-.92-.58.88.88,0,0,0,.2-.09A1.92,1.92,0,0,0,47,28.33a4.25,4.25,0,0,0,.93-.52A4.62,4.62,0,0,0,48.91,21.35Z"/><path class="cls-1" d="M26.84,47.4a1.38,1.38,0,1,0,1.92.31A1.38,1.38,0,0,0,26.84,47.4Z"/><path class="cls-1" d="M42.05,33.86a1.38,1.38,0,1,0,1.92.31A1.39,1.39,0,0,0,42.05,33.86Z"/><path class="cls-1" d="M19.36,39.55a.75.75,0,0,0-.17,1.05.76.76,0,0,0,1.06.17.76.76,0,0,0-.89-1.22Z"/><rect class="cls-11" x="29.84" y="32.45" width="23.19" height="39.56"/><path class="cls-12" d="M51.21,60.12a3.34,3.34,0,0,0-3.34-3.33H46.72a3.33,3.33,0,0,0-3.33,3.33V72h7.82Z"/><rect class="cls-8" x="32.55" y="35.32" width="6.88" height="6.88" rx="0.22" ry="0.22" transform="translate(-2.78 74.75) rotate(-90)"/><rect class="cls-8" x="43.39" y="35.32" width="6.88" height="6.88" rx="0.22" ry="0.22" transform="translate(8.06 85.59) rotate(-90)"/><rect class="cls-8" x="32.55" y="46.08" width="6.88" height="6.88" rx="0.22" ry="0.22" transform="translate(-13.54 85.51) rotate(-90)"/><rect class="cls-8" x="43.39" y="46.08" width="6.88" height="6.88" rx="0.22" ry="0.22" transform="translate(-2.7 96.35) rotate(-90)"/><rect class="cls-8" x="32.55" y="56.84" width="6.88" height="6.88" rx="0.22" ry="0.22" transform="translate(-24.29 96.26) rotate(-90)"/><circle class="cls-1" cx="52.78" cy="44.07" r="2.27"/><circle class="cls-1" cx="49.83" cy="46.31" r="2.27"/><circle class="cls-1" cx="44.95" cy="43.34" r="1.07"/><circle class="cls-1" cx="54.26" cy="40.99" r="2.27"/><circle class="cls-1" cx="50.5" cy="35.25" r="4.72"/><circle class="cls-1" cx="43.74" cy="26.58" r="2.27"/><rect class="cls-1" x="80.83" y="45.48" width="3.05" height="5.77"/><rect class="cls-1" x="84.53" y="45.48" width="3.05" height="5.77"/></svg>