<svg id="Layer_1" data-name="Layer 1" xmlns="http://www.w3.org/2000/svg" viewBox="0 0 100 100"><defs><style>.cls-1{fill:#9dc8dc;}.cls-2{fill:#f9a93f;}.cls-3{fill:#ffc640;}.cls-4{fill:#f5853c;}.cls-5{fill:#fff;}</style></defs><title>beer</title><path class="cls-1" d="M73.64,78.8A26.37,26.37,0,1,1,100,52.44,26.4,26.4,0,0,1,73.64,78.8Zm0-43.53A17.17,17.17,0,1,0,90.81,52.44,17.19,17.19,0,0,0,73.64,35.27Z"/><rect class="cls-1" y="1.83" width="74.38" height="96.34" rx="30.26" ry="30.26"/><path class="cls-2" d="M42.62,36.74H31.76A23.75,23.75,0,0,1,10.52,23.47,23.48,23.48,0,0,0,8.06,33.9v36a23.77,23.77,0,0,0,23.7,23.7H42.62a23.76,23.76,0,0,0,23.7-23.7v-36a23.48,23.48,0,0,0-2.46-10.43A23.75,23.75,0,0,1,42.62,36.74Z"/><path class="cls-3" d="M42.62,10.2H31.76A23.77,23.77,0,0,0,10.52,23.47,23.75,23.75,0,0,0,31.76,36.74H42.62A23.75,23.75,0,0,0,63.86,23.47,23.77,23.77,0,0,0,42.62,10.2Z"/><rect class="cls-4" x="13.71" y="38.39" width="6.15" height="43.49" rx="3.07" ry="3.07"/><rect class="cls-4" x="27.26" y="43.7" width="6.15" height="43.49" rx="3.07" ry="3.07"/><rect class="cls-4" x="56.26" y="38.39" width="6.15" height="43.49" rx="3.07" ry="3.07"/><rect class="cls-4" x="42.71" y="43.7" width="6.15" height="43.49" rx="3.07" ry="3.07"/><circle class="cls-5" cx="24.12" cy="18.02" r="1.06"/><circle class="cls-5" cx="45.56" cy="21.57" r="1.06"/><circle class="cls-5" cx="43.98" cy="25.82" r="1.06"/><circle class="cls-5" cx="33.3" cy="27.91" r="2.76"/><circle class="cls-5" cx="50.17" cy="27.91" r="2.76"/></svg>