<svg id="Layer_1" data-name="Layer 1" xmlns="http://www.w3.org/2000/svg" viewBox="0 0 100 100"><defs><style>.cls-1{fill:#6ab8d9;}.cls-2{fill:#589ab6;}.cls-3{fill:#f37d3b;}.cls-4{fill:#069274;}.cls-5{fill:#09a582;}.cls-6{fill:#089a7a;}.cls-7{fill:#ffc63f;}.cls-8{fill:#e6b43b;}.cls-9{fill:#569ab6;}</style></defs><title>juice</title><polygon class="cls-1" points="42.66 35.22 24.36 8.93 3.66 16.76 1.17 10.18 27 0.41 48.44 31.2 42.66 35.22"/><rect class="cls-2" x="41.02" y="30.01" width="7.04" height="3.52" transform="translate(-10.16 31.17) rotate(-34.87)"/><path class="cls-2" d="M37.48,27.78l-3.17-4.55,5.77-4,3.17,4.55Zm-6.34-9.11L28,14.12l5.77-4,3.18,4.55Z"/><polygon class="cls-2" points="24.8 9.57 24.36 8.93 23.63 9.21 21.14 2.62 27 0.41 30.57 5.54 24.8 9.57"/><rect class="cls-2" x="11.07" y="5.55" width="5.94" height="7.04" transform="translate(-2.3 5.55) rotate(-20.7)"/><rect class="cls-2" x="2.3" y="9.33" width="3.52" height="7.04" transform="translate(-4.29 2.27) rotate(-20.75)"/><rect class="cls-3" x="31.78" y="22" width="67.05" height="78" rx="4.18" ry="4.18"/><path class="cls-4" d="M64,54.27c-3.5,0-9.07-2.21-9.82-2.51l.57-1.4c3.2,1.3,8.88,3,10.49,2.2l.69,1.34A4.21,4.21,0,0,1,64,54.27Z"/><path class="cls-4" d="M61.66,53.52,61,53.18s1.93-3.91.76-7.4a7.1,7.1,0,0,0-3.81-4.11l.34-.67a7.85,7.85,0,0,1,4.19,4.55C63.73,49.34,61.75,53.35,61.66,53.52Z"/><path class="cls-5" d="M57.46,45.16a3.85,3.85,0,0,0,5.16,1.67l0,0L60.71,43l-3.53-.69A6,6,0,0,0,57.46,45.16Z"/><path class="cls-6" d="M57.56,39.63a23.59,23.59,0,0,0-.38,2.71l3.53.69-1.6-3.1Z"/><path class="cls-5" d="M58,37.75s-.21.79-.42,1.88l1.55.3L58,37.75Z"/><path class="cls-4" d="M62.66,46.8a3.83,3.83,0,0,0,1.63-5.14c-1-1.87-6.24-3.88-6.3-3.91Z"/><path class="cls-5" d="M57.59,52.08l-4.88-.95-7,4.74a8.78,8.78,0,0,0,3.43,1.92,7.06,7.06,0,0,0,1.51.13l6.54-4.4A7.31,7.31,0,0,0,57.59,52.08Z"/><path class="cls-5" d="M57.15,53.52l-6.54,4.4A7.23,7.23,0,0,0,57.15,53.52Z"/><path class="cls-6" d="M50.31,50.66l-6,4c.44.42.9.81,1.35,1.18l7-4.74Z"/><path class="cls-5" d="M46.34,49.88l-4.07,2.74c.64.69,1.34,1.4,2,2.07l6-4Z"/><path class="cls-6" d="M38.71,48.39s1.54,2,3.56,4.23l4.07-2.74Z"/><path class="cls-4" d="M51.88,43.59c-3.93-.77-13.17,4.8-13.17,4.8l18.88,3.69A7.24,7.24,0,0,0,51.88,43.59Z"/><path class="cls-7" d="M69.79,58.76H85.05a15.25,15.25,0,1,1-7.86-13.34Z"/><circle class="cls-8" cx="59.48" cy="62.95" r="0.52"/><circle class="cls-8" cx="61.36" cy="66.04" r="0.52"/><circle class="cls-8" cx="69.82" cy="66.04" r="0.52"/><circle class="cls-8" cx="78.27" cy="66.04" r="0.52"/><circle class="cls-8" cx="63.61" cy="62.95" r="0.52"/><circle class="cls-8" cx="67.73" cy="62.95" r="0.52"/><circle class="cls-8" cx="71.85" cy="62.95" r="0.52"/><circle class="cls-8" cx="75.98" cy="62.95" r="0.52"/><circle class="cls-8" cx="80.1" cy="62.95" r="0.52"/><rect class="cls-9" x="18.46" y="1.18" width="6.32" height="10.12" rx="1.35" ry="1.35" transform="translate(-0.8 8.14) rotate(-20.94)"/><rect class="cls-9" x="21.21" y="0.13" width="6.32" height="10.12" rx="1.35" ry="1.35" transform="translate(-0.33 1.91) rotate(-4.45)"/><rect class="cls-9" x="23.94" y="0.46" width="6.32" height="10.12" rx="1.35" ry="1.35" transform="translate(1.75 -5.53) rotate(12.04)"/><rect class="cls-9" x="25.47" y="3.34" width="6.32" height="10.12" rx="1.35" ry="1.35" transform="translate(20.1 -20.19) rotate(57.04)"/></svg>