<svg id="Layer_1" data-name="Layer 1" xmlns="http://www.w3.org/2000/svg" viewBox="0 0 100 100"><defs><style>.cls-1{fill:#09a582;}.cls-2{fill:#028a6d;}.cls-3{fill:#895e59;}.cls-4{fill:#ffc640;}.cls-5{fill:#994d1f;}.cls-6{fill:#f37d3b;}.cls-7{fill:#c2d4de;}.cls-8{fill:#6ab8d9;}.cls-9{fill:#5596b2;}.cls-10{fill:#6d4945;}.cls-11{fill:#00a69c;}</style></defs><title>village</title><rect class="cls-1" x="28.82" y="36.21" width="71.18" height="15.74" rx="3.95" ry="3.95"/><polyline class="cls-1" points="69.09 78.28 97.54 49.83 97.54 40.08 95.81 37.6 51.73 59"/><path class="cls-1" d="M31.18,38.48,3,66.77H68.14L97,37.91h-.07a7.74,7.74,0,0,0-4.81-1.7H36.69a7.66,7.66,0,0,0-3.61.93"/><path class="cls-2" d="M63.31,65.09H7.87a7.87,7.87,0,0,0,0,15.74H63.31a7.87,7.87,0,1,0,0-15.74Z"/><polygon class="cls-3" points="87.96 46.95 22.75 46.95 17.46 52.27 82.65 52.27 86.87 48.05 87.96 46.95"/><path class="cls-1" d="M86.87,48.05,88,47H81.84a7.77,7.77,0,0,1,4.6,1.53Z"/><path class="cls-3" d="M83.66,47H76.54l-7.76,3.77h9.13a7.89,7.89,0,0,1,7.87,7.87,7.67,7.67,0,0,1-1.13,4h.15L91.41,56a7.23,7.23,0,0,0,.12-1.15A7.9,7.9,0,0,0,83.66,47Z"/><polygon class="cls-1" points="79.94 49.93 77.25 52.31 74.55 49.93 71.86 52.31 69.16 49.93 66.46 52.31 63.77 49.93 61.07 52.31 58.38 49.93 55.68 52.31 52.98 49.93 50.29 52.31 47.59 49.93 44.9 52.31 42.2 49.93 39.5 52.31 36.81 49.93 34.11 52.31 31.42 49.93 28.72 52.31 26.02 49.93 23.33 52.31 20.63 49.93 17.94 52.31 17.94 53.06 82.64 53.06 82.64 52.31 79.94 49.93"/><path class="cls-4" d="M28.19,31.74V41.83a2.11,2.11,0,0,0,2.1,2.1H44.83a2.11,2.11,0,0,0,2.1-2.1V31.74Z"/><rect class="cls-5" x="34.65" y="25.45" width="3.51" height="1.46" rx="0.37" ry="0.37" transform="translate(-5.23 9.52) rotate(-13.91)"/><rect class="cls-5" x="32.61" y="26.77" width="3.51" height="1.46" rx="0.37" ry="0.37" transform="translate(-5.6 9.07) rotate(-13.91)"/><rect class="cls-5" x="30.57" y="28.09" width="3.51" height="1.46" rx="0.37" ry="0.37" transform="translate(-5.98 8.62) rotate(-13.91)"/><rect class="cls-5" x="28.53" y="29.42" width="3.51" height="1.46" rx="0.37" ry="0.37" transform="translate(-6.36 8.16) rotate(-13.91)"/><rect class="cls-5" x="26.49" y="30.74" width="3.51" height="1.46" rx="0.37" ry="0.37" transform="translate(-6.74 7.71) rotate(-13.91)"/><rect class="cls-5" x="36.64" y="25.45" width="3.51" height="1.46" rx="0.37" ry="0.37" transform="translate(69.36 60.83) rotate(-166.09)"/><rect class="cls-5" x="38.68" y="26.77" width="3.51" height="1.46" rx="0.37" ry="0.37" transform="translate(73.07 63.92) rotate(-166.09)"/><rect class="cls-5" x="40.72" y="28.09" width="3.51" height="1.46" rx="0.37" ry="0.37" transform="translate(76.78 67.02) rotate(-166.09)"/><rect class="cls-5" x="42.76" y="29.42" width="3.51" height="1.46" rx="0.37" ry="0.37" transform="translate(80.49 70.11) rotate(-166.09)"/><rect class="cls-5" x="44.81" y="30.74" width="3.51" height="1.46" rx="0.37" ry="0.37" transform="translate(84.19 73.21) rotate(-166.09)"/><polyline class="cls-5" points="27.86 32.05 47.41 32.05 37.3 25.66"/><rect class="cls-5" x="26.12" y="31.62" width="22.47" height="1.02" rx="0.26" ry="0.26"/><path class="cls-6" d="M31,43.93V37.2a2.85,2.85,0,0,1,2.84-2.84h0a2.85,2.85,0,0,1,2.84,2.84v6.73"/><path class="cls-5" d="M37.14,43.93h-1V37.2a2.36,2.36,0,0,0-4.72,0v6.73h-1V37.2a3.32,3.32,0,0,1,6.64,0Z"/><path class="cls-7" d="M41.9,40.48A3.07,3.07,0,1,1,45,37.41,3.07,3.07,0,0,1,41.9,40.48Z"/><path class="cls-5" d="M41.9,34.83a2.59,2.59,0,1,1,0,5.17h0a2.59,2.59,0,1,1,0-5.17h0m0-1a3.55,3.55,0,1,0,3.55,3.55,3.56,3.56,0,0,0-3.55-3.55Z"/><rect class="cls-5" x="41.41" y="34.23" width="0.98" height="6.38" rx="0.25" ry="0.25"/><rect class="cls-5" x="41.41" y="34.23" width="0.98" height="6.38" rx="0.25" ry="0.25" transform="translate(79.32 -4.49) rotate(90)"/><path class="cls-6" d="M63.82,25.78v16a2.11,2.11,0,0,0,2.1,2.1H80.46a2.11,2.11,0,0,0,2.1-2.1v-16Z"/><rect class="cls-5" x="70.28" y="19.49" width="3.51" height="1.46" rx="0.37" ry="0.37" transform="translate(-2.75 17.91) rotate(-13.91)"/><rect class="cls-5" x="68.24" y="20.81" width="3.51" height="1.46" rx="0.37" ry="0.37" transform="translate(-3.13 17.46) rotate(-13.91)"/><rect class="cls-5" x="66.2" y="22.13" width="3.51" height="1.46" rx="0.37" ry="0.37" transform="translate(-3.5 17) rotate(-13.91)"/><rect class="cls-5" x="64.15" y="23.45" width="3.51" height="1.46" rx="0.37" ry="0.37" transform="translate(-3.88 16.55) rotate(-13.91)"/><rect class="cls-5" x="62.11" y="24.78" width="3.51" height="1.46" rx="0.37" ry="0.37" transform="translate(-4.26 16.1) rotate(-13.91)"/><rect class="cls-5" x="72.26" y="19.49" width="3.51" height="1.46" rx="0.37" ry="0.37" transform="translate(141.01 57.64) rotate(-166.09)"/><rect class="cls-5" x="74.31" y="20.81" width="3.51" height="1.46" rx="0.37" ry="0.37" transform="translate(144.71 60.74) rotate(-166.09)"/><rect class="cls-5" x="76.35" y="22.13" width="3.51" height="1.46" rx="0.37" ry="0.37" transform="translate(148.42 63.83) rotate(-166.09)"/><rect class="cls-5" x="78.39" y="23.45" width="3.51" height="1.46" rx="0.37" ry="0.37" transform="translate(152.13 66.93) rotate(-166.09)"/><rect class="cls-5" x="80.43" y="24.78" width="3.51" height="1.46" rx="0.37" ry="0.37" transform="translate(155.84 70.02) rotate(-166.09)"/><polyline class="cls-5" points="63.49 26.09 83.04 26.09 72.93 19.7"/><rect class="cls-5" x="61.74" y="25.66" width="22.47" height="1.02" rx="0.26" ry="0.26"/><path class="cls-8" d="M70.35,43.93V37.2a2.85,2.85,0,0,1,2.84-2.84h0A2.85,2.85,0,0,1,76,37.2v6.73"/><path class="cls-5" d="M76.51,43.93h-1V37.2a2.36,2.36,0,0,0-4.72,0v6.73h-1V37.2a3.32,3.32,0,0,1,6.64,0Z"/><path class="cls-7" d="M73.26,33.55a3.07,3.07,0,1,1,3.07-3.07A3.07,3.07,0,0,1,73.26,33.55Z"/><path class="cls-5" d="M73.26,27.89a2.59,2.59,0,1,1-2.58,2.59,2.59,2.59,0,0,1,2.58-2.59m0-1a3.55,3.55,0,1,0,3.55,3.55,3.56,3.56,0,0,0-3.55-3.55Z"/><rect class="cls-5" x="72.78" y="27.29" width="0.98" height="6.38" rx="0.25" ry="0.25"/><rect class="cls-5" x="72.78" y="27.29" width="0.98" height="6.38" rx="0.25" ry="0.25" transform="translate(103.74 -42.79) rotate(90)"/><polygon class="cls-3" points="45.33 60.11 42.63 60.11 42.63 54.88 43.98 53.05 45.33 54.88 45.33 60.11"/><polygon class="cls-3" points="50.59 60.11 47.9 60.11 47.9 54.88 49.25 53.05 50.59 54.88 50.59 60.11"/><polygon class="cls-3" points="55.86 60.11 53.17 60.11 53.17 54.88 54.52 53.05 55.86 54.88 55.86 60.11"/><polygon class="cls-3" points="61.13 60.11 58.44 60.11 58.44 54.88 59.78 53.05 61.13 54.88 61.13 60.11"/><polygon class="cls-3" points="66.4 60.11 63.71 60.11 63.71 54.88 65.05 53.05 66.4 54.88 66.4 60.11"/><polygon class="cls-3" points="71.67 60.11 68.97 60.11 68.97 54.88 70.32 53.05 71.67 54.88 71.67 60.11"/><rect class="cls-3" x="41.41" y="56.35" width="31.51" height="1.46"/><path class="cls-8" d="M19.82,46.72V58.19a2.4,2.4,0,0,0,2.39,2.4H38.76a2.4,2.4,0,0,0,2.39-2.4V46.72Z"/><rect class="cls-5" x="27.18" y="39.55" width="4" height="1.66" rx="0.42" ry="0.42" transform="translate(-8.85 8.2) rotate(-13.91)"/><rect class="cls-5" x="24.85" y="41.06" width="4" height="1.66" rx="0.42" ry="0.42" transform="translate(-9.28 7.68) rotate(-13.91)"/><rect class="cls-5" x="22.53" y="42.56" width="4" height="1.66" rx="0.42" ry="0.42" transform="translate(-9.71 7.17) rotate(-13.91)"/><rect class="cls-5" x="20.2" y="44.07" width="4" height="1.66" rx="0.42" ry="0.42" transform="translate(-10.14 6.65) rotate(-13.91)"/><rect class="cls-5" x="17.88" y="45.57" width="4" height="1.66" rx="0.42" ry="0.42" transform="translate(-10.57 6.14) rotate(-13.91)"/><rect class="cls-5" x="29.43" y="39.55" width="4" height="1.66" rx="0.42" ry="0.42" transform="translate(52.23 87.14) rotate(-166.09)"/><rect class="cls-5" x="31.76" y="41.06" width="4" height="1.66" rx="0.42" ry="0.42" transform="translate(56.45 90.67) rotate(-166.09)"/><rect class="cls-5" x="34.08" y="42.56" width="4" height="1.66" rx="0.42" ry="0.42" transform="translate(60.67 94.19) rotate(-166.09)"/><rect class="cls-5" x="36.41" y="44.07" width="4" height="1.66" rx="0.42" ry="0.42" transform="translate(64.89 97.71) rotate(-166.09)"/><rect class="cls-5" x="38.73" y="45.57" width="4" height="1.66" rx="0.42" ry="0.42" transform="translate(69.11 101.24) rotate(-166.09)"/><polyline class="cls-5" points="19.44 47.07 41.7 47.07 30.19 39.79"/><rect class="cls-5" x="17.46" y="46.58" width="25.57" height="1.16" rx="0.29" ry="0.29"/><path class="cls-7" d="M23,60.59V52.92a3.24,3.24,0,0,1,3.23-3.23h0a3.25,3.25,0,0,1,3.23,3.23v7.67"/><path class="cls-9" d="M30,60.59h-1.1V52.92a2.68,2.68,0,0,0-5.36,0v7.67h-1.1V52.92a3.78,3.78,0,0,1,7.56,0Z"/><path class="cls-7" d="M35.42,56.66a3.49,3.49,0,1,1,3.5-3.49A3.5,3.5,0,0,1,35.42,56.66Z"/><path class="cls-9" d="M35.43,50.22a2.95,2.95,0,1,1-3,3,3,3,0,0,1,3-3m0-1.09a4,4,0,1,0,4,4,4,4,0,0,0-4-4Z"/><rect class="cls-9" x="34.87" y="49.54" width="1.11" height="7.26" rx="0.56" ry="0.56"/><rect class="cls-9" x="31.8" y="52.61" width="7.26" height="1.11" rx="0.56" ry="0.56"/><circle class="cls-6" cx="50.88" cy="34.92" r="0.65"/><circle class="cls-6" cx="58.1" cy="35.13" r="0.65"/><rect class="cls-10" x="53.64" y="33.79" width="1.84" height="7.15" rx="0.4" ry="0.4"/><circle class="cls-11" cx="54.56" cy="31.47" r="4.96"/><circle class="cls-6" cx="52.61" cy="33.84" r="0.65"/><circle class="cls-6" cx="56.81" cy="33.63" r="0.65"/><circle class="cls-6" cx="58.39" cy="31.85" r="0.65"/><circle class="cls-6" cx="52.61" cy="30.23" r="0.65"/><circle class="cls-6" cx="56.67" cy="30.16" r="0.65"/><circle class="cls-6" cx="54.56" cy="28.11" r="0.65"/></svg>