<svg id="Layer_1" data-name="Layer 1" xmlns="http://www.w3.org/2000/svg" viewBox="0 0 100 100"><defs><style>.cls-1{fill:#7d7d7d;}.cls-2{fill:#09a582;}.cls-3{fill:#3e3e3f;}</style></defs><title>scissors</title><path class="cls-1" d="M42.65,75.51a184,184,0,0,1-.84-19.92c0-3.33.18-6.66.33-10s.54-6.67,1-10l1.06-10.17a31.67,31.67,0,0,1,3-9.88l1.2-2.33c.46-.76.94-1.52,1.44-2.26s1-1.48,1.54-2.19A16.82,16.82,0,0,1,53.1,6.64a37.83,37.83,0,0,1,4-3.79A28.47,28.47,0,0,1,62,0l1.12.86a44.69,44.69,0,0,1-.5,5.3c-.17,1.67-.33,3.33-.59,4.87s-.4,3.16-.7,4.66l-.86,4.55a43.32,43.32,0,0,1-2.85,8.81,93.74,93.74,0,0,0-3.5,8.89c-1,3-1.86,6.12-2.75,9.22s-1.79,6.22-2.59,9.36c-1.71,6.29-3.24,12.66-4.75,19.07Z"/><path class="cls-1" d="M24,55.54c6.4-1.52,12.78-3,19.06-4.75,3.15-.81,6.26-1.7,9.36-2.6s6.2-1.74,9.23-2.75a94.62,94.62,0,0,0,8.88-3.5,43.29,43.29,0,0,1,8.81-2.84l4.55-.86c1.5-.3,3.15-.42,4.67-.71s3.19-.41,4.86-.59a44.67,44.67,0,0,1,5.31-.5l.85,1.12a28.47,28.47,0,0,1-2.85,4.92,36.75,36.75,0,0,1-3.78,4,17.67,17.67,0,0,1-2.1,1.73c-.71.54-1.45,1-2.19,1.54s-1.5,1-2.26,1.44l-2.33,1.2a32,32,0,0,1-9.88,3L64,56.48c-3.35.43-6.69.68-10,1s-6.68.29-10,.33A186.66,186.66,0,0,1,24.08,57Z"/><path class="cls-2" d="M4.39,71.8a13.61,13.61,0,1,1,19.25,0A13.62,13.62,0,0,1,4.39,71.8Zm16.4-16.4a9.58,9.58,0,1,0,0,13.55A9.6,9.6,0,0,0,20.79,55.4Z"/><path class="cls-2" d="M28.61,96a13.61,13.61,0,1,1,19.25,0A13.62,13.62,0,0,1,28.61,96ZM45,79.62a9.58,9.58,0,1,0,0,13.55A9.58,9.58,0,0,0,45,79.62Z"/><circle class="cls-3" cx="46.46" cy="53.15" r="2.02"/></svg>