<svg id="Layer_1" data-name="Layer 1" xmlns="http://www.w3.org/2000/svg" viewBox="0 0 100 100"><defs><style>.cls-1{fill:#f05c38;}.cls-2{fill:#f37d3b;}.cls-3{fill:#ffc640;}.cls-4{fill:#09a582;}.cls-5{fill:#6ab8d9;}.cls-6{fill:#069172;}.cls-7{fill:#ac8c6b;}.cls-8{fill:#bf9b77;}.cls-9{fill:#aa7562;}</style></defs><title>story</title><path class="cls-1" d="M74.24,49.24c0-30.77-47.24-31.2-47.44,0H21.61c0-38.55,57.82-38.55,57.82,0Z"/><path class="cls-2" d="M70,49.24c0-25.92-39.13-25.07-39,0H25.8c0-33,49.44-33,49.44,0Z"/><path class="cls-3" d="M65.85,49.24c0-20-30.66-19.89-30.66,0H30c0-27.37,41-27.37,41,0Z"/><path class="cls-4" d="M61.66,49.24c0-14.36-22.28-14.53-22.28,0H34.19c0-21.78,32.66-21.78,32.66,0Z"/><path class="cls-5" d="M58.47,49.24c0-10.6-15.9-10.6-15.9,0H38.38c0-16.19,24.28-16.19,24.28,0Z"/><path class="cls-4" d="M23.36,55.09,1.2,77.25H44v.24a2.19,2.19,0,0,0,2.19,2.18h7.31a2.19,2.19,0,0,0,2.19-2.18v-.24H98.57L76.42,55.09Z"/><path class="cls-6" d="M24.79,53,3.73,74H44a4.46,4.46,0,0,0,4.39,3.81h2.77A4.46,4.46,0,0,0,55.57,74h40.7L75.21,53Z"/><path class="cls-7" d="M82.61,55.15c-24.1-10.69-32.61.9-32.61.9s-8.51-11.59-32.61-.9L0,76.34s20.65.91,27.36-5.07,22.64,6,22.64,6,15.94-12,22.64-6S100,76.34,100,76.34Z"/><path class="cls-8" d="M82.61,53.77c-24.1-10.69-32.61.9-32.61.9s-8.51-11.59-32.61-.9L0,75s20.65.91,27.36-5.07,22.64,6,22.64,6,15.94-12,22.64-6S100,75,100,75Z"/><path class="cls-7" d="M82.61,52.29C58.51,41.6,50,53.2,50,53.2s-8.51-11.6-32.61-.91L0,73.49s20.65.9,27.36-5.07,22.64,6,22.64,6,15.94-12,22.64-6S100,73.49,100,73.49Z"/><path class="cls-8" d="M82.61,50.44c-24.1-10.69-32.61.9-32.61.9s-8.51-11.59-32.61-.9L0,71.63s20.65.91,27.36-5.07,22.64,6,22.64,6,15.94-12,22.64-6S100,71.63,100,71.63Z"/><rect class="cls-7" x="49.8" y="51.46" width="0.72" height="20.71" rx="0.18" ry="0.18"/><path class="cls-7" d="M18,51.92c1.16-.73,2.34-1.34,3.51-2,1.26-.3,2.5-.64,3.74-1s2.46-.72,3.67-1.12c.61-.19,1.2-.41,1.79-.63l.89-.34c.38-.12.77-.24,1.15-.33,3-.41,5.63.42,8.16,1.23,1.26.43,2.49.93,3.71,1.45a31.32,31.32,0,0,1,3.06,2.69c-1.35-.22-2.62-.52-3.94-.7-1.16-.5-2.34-1-3.53-1.39-2.36-.78-4.9-1.46-7.07-1.14l-.73.21c-.28.09-.62.24-.92.35-.63.24-1.26.46-1.88.67-1.26.41-2.51.79-3.77,1.14l-3.79,1A32.34,32.34,0,0,1,18,51.92Z"/><path class="cls-7" d="M16.15,57c1.16-.72,2.34-1.34,3.51-2,1.26-.3,2.5-.64,3.74-1s2.46-.71,3.67-1.11c.61-.2,1.2-.42,1.79-.64l.9-.34c.37-.11.76-.24,1.14-.32,3-.41,5.63.41,8.16,1.22,1.27.43,2.49.93,3.71,1.46A30,30,0,0,1,45.83,57c-1.35-.22-2.62-.52-3.94-.69-1.16-.51-2.34-1-3.53-1.39-2.35-.79-4.9-1.46-7.07-1.14l-.73.2c-.28.09-.62.24-.92.36-.63.23-1.25.45-1.88.66-1.26.41-2.51.79-3.77,1.15l-3.79,1A32.42,32.42,0,0,1,16.15,57Z"/><path class="cls-7" d="M16.15,66.14c1.16-.73,2.34-1.34,3.51-2,1.26-.29,2.5-.64,3.74-1s2.46-.72,3.67-1.12c.61-.19,1.2-.41,1.79-.63l.9-.34c.37-.12.76-.24,1.14-.33,3-.41,5.63.42,8.16,1.23,1.27.43,2.49.93,3.71,1.45a31.32,31.32,0,0,1,3.06,2.69c-1.35-.22-2.62-.52-3.94-.7-1.16-.5-2.34-1-3.53-1.39-2.35-.78-4.9-1.46-7.07-1.14l-.73.21c-.28.09-.62.24-.92.35-.63.24-1.25.46-1.88.67-1.26.41-2.51.79-3.77,1.14l-3.79,1A32.42,32.42,0,0,1,16.15,66.14Z"/><path class="cls-7" d="M12.64,62.93c.78-.8,1.59-1.49,2.4-2.19.94-.38,1.86-.81,2.79-1.23s1.82-.87,2.71-1.33l1.31-.72.65-.38c.29-.14.59-.3.89-.41A14.37,14.37,0,0,1,30,56.58c1,.18,2.08.42,3.09.68a18,18,0,0,1,2.68,1.93l-3.22.17c-1-.24-1.94-.47-2.92-.63a12.61,12.61,0,0,0-5.54,0l-.51.23-.67.4-1.39.76c-.93.48-1.87.93-2.81,1.37l-2.83,1.28A23.56,23.56,0,0,1,12.64,62.93Z"/><path class="cls-7" d="M81.85,51.92a32.42,32.42,0,0,1-4,.16l-3.79-1c-1.26-.35-2.52-.73-3.77-1.14-.63-.21-1.25-.43-1.88-.67-.3-.11-.64-.26-.92-.35l-.73-.21c-2.17-.32-4.72.36-7.07,1.14-1.19.41-2.37.89-3.53,1.39-1.32.18-2.6.48-4,.7a32.65,32.65,0,0,1,3.07-2.69c1.21-.52,2.44-1,3.71-1.45,2.53-.81,5.15-1.64,8.16-1.23.38.09.76.21,1.14.33l.9.34c.59.22,1.18.44,1.79.63,1.2.4,2.43.77,3.67,1.12s2.48.68,3.73,1C79.51,50.58,80.69,51.19,81.85,51.92Z"/><path class="cls-7" d="M83.73,57a32.49,32.49,0,0,1-4,.16l-3.79-1c-1.26-.36-2.52-.74-3.77-1.15-.63-.21-1.25-.43-1.88-.66-.31-.12-.64-.27-.92-.36l-.73-.2c-2.17-.32-4.72.35-7.07,1.14-1.19.4-2.37.88-3.54,1.39-1.31.17-2.59.47-3.94.69a30.06,30.06,0,0,1,3.07-2.68c1.21-.53,2.44-1,3.7-1.46C63.35,52,66,51.19,69,51.6c.38.08.76.21,1.14.32l.89.34c.59.22,1.19.44,1.79.64,1.21.4,2.44.77,3.68,1.11s2.48.69,3.73,1C81.38,55.62,82.56,56.24,83.73,57Z"/><path class="cls-9" d="M58.44,58.12s6.93-3.8,12.5-2.08,12.66,4.35,14.87,4l6.11,9.33s-15.49-3.83-20.29-6.81c0,0-5.27-2.25-13.19,2.55Z"/></svg>