<svg id="Layer_1" data-name="Layer 1" xmlns="http://www.w3.org/2000/svg" viewBox="0 0 100 100"><defs><style>.cls-1{fill:#3e3e3f;}.cls-2{fill:#f37d3b;}.cls-3{fill:#ffc640;}.cls-4{fill:#fff;}</style></defs><title>explosion</title><circle class="cls-1" cx="60.63" cy="30.77" r="6.62"/><circle class="cls-1" cx="65.35" cy="21.31" r="4.74"/><circle class="cls-1" cx="66.63" cy="9.21" r="1.94"/><circle class="cls-1" cx="55.27" cy="22.32" r="4.74"/><circle class="cls-1" cx="57.28" cy="16.08" r="2.82"/><circle class="cls-1" cx="53.92" cy="12.74" r="2.82"/><circle class="cls-1" cx="37.87" cy="31.35" r="7.41"/><circle class="cls-1" cx="27.63" cy="36.65" r="7.41"/><polyline class="cls-2" points="24.6 68.97 49.18 0 68.76 55.4"/><polyline class="cls-2" points="43.97 65.5 68.63 25.69 73.41 62.97"/><polyline class="cls-2" points="25.85 72.3 26.88 25.48 49.93 55.16"/><circle class="cls-1" cx="22.88" cy="74.33" r="6.27"/><circle class="cls-1" cx="76.54" cy="72.51" r="3.54"/><path class="cls-3" d="M76.82,69.09a27.18,27.18,0,0,1-54.35,0c0-15,27.18-38.32,27.18-38.32S76.82,54.08,76.82,69.09Z"/><path class="cls-3" d="M82.37,52.35l-2-.27-2.23-.31-.67-.09H77l-1.19,0a12.86,12.86,0,0,0-2.81.07,21.52,21.52,0,0,0-6.66,1.64l-1.73.76c-.55.29-1.08.65-1.63,1a23.5,23.5,0,0,0-3.15,2.3A35.59,35.59,0,0,0,57,60.13a36.14,36.14,0,0,0-4.11,5.74,33.8,33.8,0,0,0-3,6.41,34.37,34.37,0,0,1,1.38-7.08,35.34,35.34,0,0,1,5.13-10.75,29.1,29.1,0,0,1,3-3.55c.56-.55,1.1-1.14,1.69-1.66L63,47.78A26.07,26.07,0,0,1,67,45.3,27.71,27.71,0,0,1,71,43.56a21.08,21.08,0,0,1,4-1.09,30.59,30.59,0,0,1,3.37-.61l2.24-.22,2-.2h0a5.5,5.5,0,1,1,1.1,10.94A5.73,5.73,0,0,1,82.37,52.35Z"/><path class="cls-4" d="M56.74,74.22a6.82,6.82,0,0,1-13.63,0c0-3.77,3-10.23,6.82-10.23S56.74,70.45,56.74,74.22Z"/><polyline class="cls-4" points="46.68 67.61 40.89 65.5 46.63 70.19 40.29 70.19 47.49 71.63"/><circle class="cls-3" cx="25.25" cy="55.4" r="8.64"/><circle class="cls-3" cx="14.62" cy="13.07" r="5.26"/><circle class="cls-3" cx="11.61" cy="77.43" r="3.89"/><circle class="cls-3" cx="84.41" cy="31.53" r="1.95"/><path class="cls-3" d="M11.38,31.92l1.95.24,2.24.28a28.07,28.07,0,0,1,3.36.68,20.72,20.72,0,0,1,3.94,1.17,25.88,25.88,0,0,1,4,1.83,24.93,24.93,0,0,1,3.9,2.56l1.84,1.49c.58.54,1.11,1.14,1.65,1.71a28.75,28.75,0,0,1,2.9,3.6,40.22,40.22,0,0,1,2.21,3.78,39.24,39.24,0,0,1,2.69,7.08,34,34,0,0,1,1.22,7.11A33.22,33.22,0,0,0,40.48,57a36.35,36.35,0,0,0-4-5.83,35.19,35.19,0,0,0-2.69-2.78A23.35,23.35,0,0,0,30.7,46c-.55-.34-1.07-.71-1.62-1l-1.7-.79A18.94,18.94,0,0,0,24,43a18.58,18.58,0,0,0-3.26-.6,13,13,0,0,0-2.8-.13H16.2l-.67.08-2.24.27-1.95.23a5.5,5.5,0,1,1,0-10.92Z"/><circle class="cls-1" cx="27.63" cy="84.44" r="8.39"/><circle class="cls-1" cx="39.91" cy="91.86" r="8.14"/><circle class="cls-1" cx="50.12" cy="89.94" r="3.49"/><circle class="cls-1" cx="50.12" cy="95.25" r="4.35"/><circle class="cls-1" cx="37.89" cy="62.32" r="5.4"/><circle class="cls-1" cx="50.72" cy="80.6" r="4.6"/><circle class="cls-1" cx="54.94" cy="84.22" r="2.65"/><circle class="cls-1" cx="36.02" cy="68.97" r="2.65"/><circle class="cls-1" cx="33.6" cy="56.46" r="1.6"/><circle class="cls-1" cx="37.87" cy="51.55" r="0.8"/><circle class="cls-1" cx="58.65" cy="91.92" r="5.86"/><circle class="cls-1" cx="64.97" cy="88.02" r="5.41"/><circle class="cls-1" cx="45.73" cy="7.63" r="2.31"/><circle class="cls-1" cx="75.38" cy="84.49" r="6.62"/><path class="cls-1" d="M69.87,60.34a6.57,6.57,0,0,0-9.8-5.77c3.94,3,6.11,7,6,11.72A6.6,6.6,0,0,0,69.87,60.34Z"/><path class="cls-3" d="M80.14,65.26a6.62,6.62,0,0,0-5.31-7.71,6.47,6.47,0,0,0-3.28.26c3.32,3.72,4.74,8,3.8,12.62A6.61,6.61,0,0,0,80.14,65.26Z"/><circle class="cls-1" cx="78.92" cy="78.02" r="3.54"/><polyline class="cls-4" points="47.49 66.32 52.29 66.32 49.98 13.39 47.49 67.16"/></svg>