<svg id="Layer_1" data-name="Layer 1" xmlns="http://www.w3.org/2000/svg" viewBox="0 0 100 100"><defs><style>.cls-1{fill:#714c48;}.cls-2{fill:#583936;}.cls-3{fill:#805853;}</style></defs><title>coconut</title><path class="cls-1" d="M98.79,54.48C98.79,79.62,77,100,50,100,.16,100,1.21,54.48,1.21,54.48S9.39,9,50,9C77,9,98.79,29.33,98.79,54.48Z"/><path class="cls-1" d="M47.23,14.08,57.87,0,52.55,11.46l9.61-6.22-1.31,5.57s7.2-7.78,8-7.53-1.35,10-1.35,10"/><polygon class="cls-2" points="39.39 33.73 50.29 28.33 48.57 31.93 61.79 28.33 57.02 31.03 78.07 29.48 62.65 34.55 39.39 33.73"/><rect class="cls-2" x="1.67" y="52.4" width="97.12" height="3.63" rx="0.6" ry="0.6"/><rect class="cls-2" x="13.74" y="31.44" width="11.91" height="8.08" rx="1.33" ry="1.33"/><rect class="cls-3" x="31.61" y="19.43" width="11.91" height="8.08" rx="1.33" ry="1.33"/><rect class="cls-2" x="52.77" y="41.27" width="11.91" height="8.08" rx="1.33" ry="1.33"/><rect class="cls-3" x="31.61" y="59.17" width="11.91" height="8.08" rx="1.33" ry="1.33"/><rect class="cls-2" x="76.65" y="71.8" width="11.91" height="8.08" rx="1.33" ry="1.33"/><path class="cls-3" d="M67,71.8H55.2c-1.66,0-3,1.82-3,4s1.36,4,3,4H67c1.66,0,3-1.82,3-4S68.69,71.8,67,71.8Z"/><path class="cls-2" d="M34.55,76.49H22.72c-1.67,0-3,1.82-3,4s1.35,4,3,4H34.55c1.66,0,3-1.81,3-4S36.21,76.49,34.55,76.49Z"/></svg>