<svg id="Layer_1" data-name="Layer 1" xmlns="http://www.w3.org/2000/svg" viewBox="0 0 100 100"><defs><style>.cls-1{fill:#714c48;}.cls-2{fill:#805853;}.cls-3{fill:#583936;}.cls-4{fill:#452a27;}.cls-5{fill:#fff;}</style></defs><title>coconut milk</title><path class="cls-1" d="M100,26.56c0,16.17-14,29.28-31.39,29.28-32.06,0-31.38-29.28-31.38-29.28"/><rect class="cls-2" x="56.78" y="29.58" width="7.66" height="5.2" rx="1.05" ry="1.05"/><rect class="cls-3" x="85.76" y="37.7" width="7.66" height="5.2" rx="1.05" ry="1.05"/><path class="cls-2" d="M79.57,37.7H72c-1.07,0-1.94,1.17-1.94,2.6s.87,2.6,1.94,2.6h7.61c1.07,0,1.94-1.17,1.94-2.6S80.64,37.7,79.57,37.7Z"/><path class="cls-4" d="M68.61,31.09c-17.72,0-28.27-2.8-29.63-4.48,1.36-1.68,11.91-4.47,29.63-4.47s28.28,2.79,29.64,4.47C96.89,28.29,86.33,31.09,68.61,31.09Z"/><path class="cls-3" d="M68.61,23.82c12.94,0,21.7,1.47,25.84,2.79-4.14,1.32-12.9,2.79-25.84,2.79s-21.69-1.47-25.84-2.79c4.15-1.32,12.91-2.79,25.84-2.79m0-3.37c-17.33,0-31.38,2.76-31.38,6.16s14.05,6.17,31.38,6.17S100,30,100,26.61s-14-6.16-31.39-6.16Z"/><path class="cls-1" d="M88.75,38.14c0,22.87-19.86,41.41-44.37,41.41C-.95,79.55,0,38.14,0,38.14"/><rect class="cls-2" x="27.65" y="42.41" width="10.83" height="7.35" rx="1.49" ry="1.49"/><rect class="cls-3" x="68.61" y="53.9" width="10.83" height="7.35" rx="1.49" ry="1.49"/><path class="cls-2" d="M59.87,53.9H49.11c-1.51,0-2.75,1.65-2.75,3.67s1.24,3.68,2.75,3.68H59.87c1.51,0,2.74-1.65,2.74-3.68S61.38,53.9,59.87,53.9Z"/><path class="cls-3" d="M30.32,58.17H19.56c-1.51,0-2.74,1.65-2.74,3.67s1.23,3.68,2.74,3.68H30.32c1.51,0,2.75-1.65,2.75-3.68S31.83,58.17,30.32,58.17Z"/><path class="cls-5" d="M44.38,44.56c-25.06,0-40-4-41.9-6.33,1.92-2.38,16.85-6.33,41.9-6.33s40,4,41.89,6.33C84.36,40.6,69.43,44.56,44.38,44.56Z"/><path class="cls-3" d="M44.38,34.28c18.29,0,30.67,2.08,36.53,3.95-5.86,1.86-18.24,3.94-36.53,3.94S13.71,40.09,7.84,38.23c5.87-1.87,18.25-3.95,36.54-3.95m0-4.77C19.87,29.51,0,33.41,0,38.23s19.87,8.71,44.38,8.71S88.75,43,88.75,38.23s-19.86-8.72-44.37-8.72Z"/><rect class="cls-5" x="48.7" y="40.12" width="4.02" height="24.55" rx="2.01" ry="2.01"/><path class="cls-5" d="M52.48,39.05V54a3.49,3.49,0,0,0,7,0V39.05Z"/></svg>