<svg id="Layer_1" data-name="Layer 1" xmlns="http://www.w3.org/2000/svg" viewBox="0 0 100 100"><defs><style>.cls-1{fill:#fff;}.cls-2{fill:#cfdae0;}</style></defs><title>sugar</title><path class="cls-1" d="M83.53,62.14a6.07,6.07,0,0,1,3.2-5.34,5.08,5.08,0,0,1-.12-1,4.69,4.69,0,0,1,3.14-4.42V21.52A21.58,21.58,0,0,0,68.23,0H22.42A21.58,21.58,0,0,0,.9,21.52V67.33A21.58,21.58,0,0,0,22.42,88.85H68.23A21.57,21.57,0,0,0,89.7,68.25h0A6.12,6.12,0,0,1,83.53,62.14Z"/><circle class="cls-2" cx="10.68" cy="13.81" r="1.74"/><circle class="cls-2" cx="16.89" cy="24.05" r="1.74"/><circle class="cls-2" cx="44.83" cy="24.05" r="1.74"/><circle class="cls-2" cx="72.78" cy="24.05" r="1.74"/><circle class="cls-2" cx="24.31" cy="13.81" r="1.74"/><circle class="cls-2" cx="51.57" cy="13.81" r="1.74"/><circle class="cls-2" cx="36.82" cy="13.81" r="1.74"/><circle class="cls-2" cx="65.2" cy="13.81" r="1.74"/><circle class="cls-2" cx="78.83" cy="13.81" r="1.74"/><circle class="cls-1" cx="87.96" cy="87.84" r="1.78"/><circle class="cls-1" cx="97.52" cy="85.33" r="1.58"/><circle class="cls-1" cx="84.51" cy="94.14" r="1.84"/><circle class="cls-1" cx="97.82" cy="98.97" r="1.03"/><circle class="cls-1" cx="90.67" cy="82.16" r="1.58"/><circle class="cls-1" cx="69.22" cy="92.54" r="0.92"/><circle class="cls-1" cx="80.53" cy="85.71" r="1.97"/></svg>