<svg id="Layer_1" data-name="Layer 1" xmlns="http://www.w3.org/2000/svg" viewBox="0 0 100 100"><defs><style>.cls-1{fill:#3e3e3f;}.cls-2{fill:#f37d3b;}.cls-3{fill:#231f20;}.cls-4{fill:#fff;}</style></defs><title>bat</title><rect class="cls-1" x="38.83" y="24.57" width="22.86" height="50.84" rx="11.43" ry="11.43"/><path class="cls-1" d="M45.61,29.26a6.78,6.78,0,0,1-13.56,0c0-3.74.74-13.44.74-13.44S45.61,25.52,45.61,29.26Z"/><path class="cls-1" d="M56.11,29.26a6.78,6.78,0,0,0,13.56,0c0-3.74-.74-13.44-.74-13.44S56.11,25.52,56.11,29.26Z"/><path class="cls-1" d="M6.46,58.74a8.72,8.72,0,0,1,6.27,2.66,8.72,8.72,0,0,1,12.54,0,8.72,8.72,0,0,1,12.54,0,8.66,8.66,0,0,1,11.52-.87A24.68,24.68,0,0,0,0,61.62,8.7,8.7,0,0,1,6.46,58.74Z"/><path class="cls-1" d="M57.13,58.74A8.7,8.7,0,0,1,63.4,61.4a8.72,8.72,0,0,1,12.54,0,8.72,8.72,0,0,1,12.54,0A8.66,8.66,0,0,1,100,60.53a24.68,24.68,0,0,0-49.33,1.09A8.72,8.72,0,0,1,57.13,58.74Z"/><polygon class="cls-1" points="42.76 72.06 45.49 72.06 44.12 84.18 42.76 72.06"/><polygon class="cls-1" points="54.74 72.06 57.48 72.06 56.11 84.18 54.74 72.06"/><circle class="cls-2" cx="42.57" cy="33.26" r="1.15"/><circle class="cls-2" cx="58.11" cy="33.26" r="1.15"/><circle class="cls-3" cx="47.7" cy="37.08" r="0.72"/><circle class="cls-3" cx="52.47" cy="37.08" r="0.72"/><polygon class="cls-4" points="43.72 42.28 45.49 42.28 44.6 44.54 43.72 42.28"/><polygon class="cls-4" points="55.25 42.28 57.02 42.28 56.13 44.54 55.25 42.28"/></svg>