<svg id="Layer_1" data-name="Layer 1" xmlns="http://www.w3.org/2000/svg" viewBox="0 0 100 100"><defs><style>.cls-1{fill:#f37d3b;}.cls-2{fill:#3e3e3f;}.cls-3{fill:#fff;}.cls-4{fill:#c7552e;}</style></defs><title>squirrel</title><path class="cls-1" d="M83.38,70.7a21.1,21.1,0,1,1-42.19,0C41.19,59.05,76,5.42,75.4,17.05,73.5,55.39,83.38,59.05,83.38,70.7Z"/><path class="cls-1" d="M91.34,30.92C87.28,39.61,73,51.86,64.3,47.8s-8.47-22.88-4.42-31.57A17.36,17.36,0,0,1,91.34,30.92Z"/><path class="cls-1" d="M95.85,17c3.47,3.8-4.75,17-8.54,20.45A9.31,9.31,0,1,1,74.73,23.73C78.52,20.26,92.38,13.23,95.85,17Z"/><circle class="cls-2" cx="95.44" cy="16.18" r="2.47"/><path class="cls-1" d="M45.91,79.49C42,72.71,38.3,65.93,34.41,59.35q-2.77-5-5.74-9.76c-1.87-3.22-3.79-6.36-5.71-9.42A55,55,0,0,0,16.18,32a22.2,22.2,0,0,1-4.83-7.26c-.87-2.4-1.29-4,.2-5.43a1.76,1.76,0,0,0,.36-.79,1.72,1.72,0,0,0,.05-.77,1,1,0,0,0-.41-.78,5.71,5.71,0,0,0-.83-.7A11.51,11.51,0,0,0,8,15.71c-1,0-2.27,0-3.64.11L2.16,14.17A17.33,17.33,0,0,1,2.27,10a18.22,18.22,0,0,1,1.64-4.2,23.61,23.61,0,0,1,1.72-2A7.85,7.85,0,0,1,7.88,2.06,19.66,19.66,0,0,1,10.73.71a21.33,21.33,0,0,1,3.2-.6,13.5,13.5,0,0,1,3.17,0,21.87,21.87,0,0,1,3,.47,26,26,0,0,1,5,1.82,29.23,29.23,0,0,1,4,2.35,35.91,35.91,0,0,1,3.27,2.59A25.6,25.6,0,0,1,40,19.13c1.27,4.24,2,8.48,3,12.4s2,7.87,2.68,11.8S47,51.22,47.44,55.14a187.43,187.43,0,0,1,1.13,23.7Z"/><polyline class="cls-1" points="42.96 37.2 44.55 29.73 45.18 34.6 46.89 33.97 46.45 39.74 48.03 38.09 47.02 47.02 48.35 44.23 46.58 55.45"/><polyline class="cls-1" points="40.43 68.63 31.43 62.73 34.09 62.73 27 56.59 30.61 56.59 22.37 48.6 26.74 50.38 18.13 41.95 22.56 43.09 11.67 32.51 15.4 33.84 11.67 28.65 13.25 28.96 4.89 21.74 9.26 22.06 8.31 20.29 16.54 22.25"/><circle class="cls-2" cx="66.14" cy="18.69" r="1.44"/><path class="cls-3" d="M85.41,29.35v3a1.78,1.78,0,1,0,3.55,0v-3Z"/><path class="cls-3" d="M89,29.35v3a1.78,1.78,0,1,0,3.55,0v-3Z"/><ellipse class="cls-1" cx="62.35" cy="9.4" rx="3.6" ry="5.46" transform="translate(0.6 22.16) rotate(-20.25)"/><ellipse class="cls-4" cx="61.74" cy="9.95" rx="2.4" ry="3.64" transform="translate(0.37 21.98) rotate(-20.25)"/><ellipse class="cls-1" cx="82.54" cy="9.4" rx="5.46" ry="3.6" transform="translate(46.91 84.45) rotate(-71.1)"/><path class="cls-1" d="M73.9,59.74a3.48,3.48,0,0,1-2.36-6.05c1.56-1.43,9.67-8.46,16.38-6.46,2.14.64,5,2.44,6.19,7.37a3.48,3.48,0,1,1-6.75,1.69c-.2-.79-.65-2.16-1.44-2.39-2.11-.63-7,2.51-9.67,4.92A3.49,3.49,0,0,1,73.9,59.74Z"/><path class="cls-1" d="M61.39,100a3.47,3.47,0,0,1-2.65-1.22L46.57,84.5A3.48,3.48,0,0,1,51.87,80L64,94.26A3.48,3.48,0,0,1,61.39,100Z"/><path class="cls-1" d="M77.47,98.11a3.47,3.47,0,0,1-2.65-1.22L62.65,82.61A3.48,3.48,0,1,1,68,78.1L80.12,92.37a3.48,3.48,0,0,1-2.65,5.74Z"/></svg>