<svg id="Layer_1" data-name="Layer 1" xmlns="http://www.w3.org/2000/svg" viewBox="0 0 100 100"><defs><style>.cls-1{fill:#bf9b77;}.cls-2{fill:#714c48;}</style></defs><title>cookie</title><circle class="cls-1" cx="49.53" cy="50.08" r="45.62"/><circle class="cls-1" cx="50" cy="10.17" r="10.17"/><circle class="cls-1" cx="50" cy="89.83" r="10.17"/><circle class="cls-1" cx="89.83" cy="50" r="10.17"/><circle class="cls-1" cx="10.17" cy="50" r="10.17"/><circle class="cls-1" cx="78.17" cy="21.83" r="10.17"/><circle class="cls-1" cx="21.83" cy="78.17" r="10.17"/><circle class="cls-1" cx="78.17" cy="78.17" r="10.17"/><circle class="cls-1" cx="21.83" cy="21.83" r="10.17"/><circle class="cls-1" cx="65.85" cy="13.46" r="10.17"/><circle class="cls-1" cx="34.19" cy="86.49" r="10.17"/><circle class="cls-1" cx="86.54" cy="65.85" r="10.17"/><circle class="cls-1" cx="13.46" cy="34.15" r="10.17"/><circle class="cls-1" cx="87.05" cy="35.37" r="10.17"/><circle class="cls-1" cx="12.95" cy="64.63" r="10.17"/><circle class="cls-1" cx="64.63" cy="87.05" r="10.17"/><circle class="cls-1" cx="35.37" cy="12.95" r="10.17"/><circle class="cls-2" cx="35.61" cy="21.7" r="3.61"/><circle class="cls-2" cx="69.46" cy="44.76" r="3.61"/><circle class="cls-2" cx="59.44" cy="32" r="3.61"/><circle class="cls-1" cx="59.44" cy="35.61" r="3.61"/><circle class="cls-2" cx="77.83" cy="80.44" r="3.61"/><circle class="cls-1" cx="74.22" cy="80.44" r="3.61"/><circle class="cls-2" cx="25.2" cy="52.35" r="3.61"/><circle class="cls-2" cx="55.83" cy="75" r="4.98"/></svg>