<svg id="Layer_1" data-name="Layer 1" xmlns="http://www.w3.org/2000/svg" viewBox="0 0 100 100"><defs><style>.cls-1{fill:#5a9eba;}.cls-2{fill:#6ab8d9;}.cls-3{fill:#447d93;}.cls-4{fill:#895e59;}.cls-5{fill:#fff;}.cls-6{fill:#bcd2de;}</style></defs><title>iceberg</title><path class="cls-1" d="M92.13,51.76H36.69c-4.32,0-5.27-3.55-5.27-7.87h1.06c0-4.33-.11-7.88,4.21-7.88H92.13A7.9,7.9,0,0,1,100,43.89h0A7.9,7.9,0,0,1,92.13,51.76Z"/><polyline class="cls-1" points="69.09 78.09 97.54 49.64 97.54 39.88 95.81 37.4 51.73 58.8"/><path class="cls-2" d="M33.08,36.93,3,66.58H68.14L97,37.71h-.07A7.8,7.8,0,0,0,92.13,36H36.69a7.78,7.78,0,0,0-3.61.93"/><path class="cls-3" d="M63.31,64.9H7.87a7.87,7.87,0,0,0,0,15.74H63.31a7.87,7.87,0,1,0,0-15.74Z"/><polygon class="cls-1" points="18.4 58.9 27.36 58.9 22.89 57.74 18.4 58.9"/><polygon class="cls-1" points="33.04 62.63 42 62.63 37.52 61.48 33.04 62.63"/><polygon class="cls-1" points="53.04 63.21 57.52 63.21 55.28 62.05 53.04 63.21"/><polygon class="cls-1" points="73.45 45.2 77.93 45.2 75.69 44.05 73.45 45.2"/><polygon class="cls-1" points="66.28 39.77 76.71 39.77 71.49 38.69 66.28 39.77"/><ellipse class="cls-4" cx="53.05" cy="49.11" rx="16.82" ry="4.35"/><ellipse class="cls-5" cx="53.12" cy="49.66" rx="18.96" ry="4.91"/><path class="cls-5" d="M61.43,33.58l1.49-1.49c-2.77-4.46-9.87-12.73-9.87-12.73S45.9,27.69,43.11,32.2l1.38,1.38Z"/><path class="cls-6" d="M62.92,32.09l-1.49,1.49h0l-.76.76.76-.76H44.49l.95.94-.95-.94h0L43.11,32.2C39,39,36.24,47.66,36.24,49.11c0,2.4,7.53,4.35,16.81,4.35s16.82-2,16.82-4.35C69.87,47.66,67.13,38.85,62.92,32.09Z"/><path class="cls-5" d="M47.88,33.57c0,1.43-2.58,4.65-2.58,4.65S42.72,35,42.72,33.57a2.58,2.58,0,0,1,5.16,0Z"/><path class="cls-5" d="M53.05,33.57c0,1.43-2.58,4.65-2.58,4.65S47.88,35,47.88,33.57a2.59,2.59,0,0,1,5.17,0Z"/><path class="cls-5" d="M58.22,33.57c0,1.43-2.58,4.65-2.58,4.65S53.05,35,53.05,33.57a2.59,2.59,0,0,1,5.17,0Z"/><path class="cls-5" d="M63.39,33.57c0,1.43-2.58,4.65-2.58,4.65S58.22,35,58.22,33.57a2.59,2.59,0,0,1,5.17,0Z"/><circle class="cls-5" cx="43.81" cy="39.61" r="0.47"/><circle class="cls-5" cx="45.5" cy="42.41" r="0.47"/><circle class="cls-5" cx="53.12" cy="42.41" r="0.47"/><circle class="cls-5" cx="60.75" cy="42.41" r="0.47"/><circle class="cls-5" cx="47.52" cy="39.61" r="0.47"/><circle class="cls-5" cx="51.24" cy="39.61" r="0.47"/><circle class="cls-5" cx="54.96" cy="39.61" r="0.47"/><circle class="cls-5" cx="58.68" cy="39.61" r="0.47"/><circle class="cls-5" cx="62.39" cy="39.61" r="0.47"/></svg>