<svg id="Layer_1" data-name="Layer 1" xmlns="http://www.w3.org/2000/svg" viewBox="0 0 100 100"><defs><style>.cls-1{fill:#f69a85;}.cls-2{fill:#3e3e3f;}.cls-3{fill:#bf9b77;}</style></defs><title>vulture</title><polyline class="cls-1" points="38.54 70.49 44.55 70.49 41.53 91.89"/><rect class="cls-2" x="36.32" y="67.08" width="10.82" height="12.48" rx="2.66" ry="2.66"/><polyline class="cls-1" points="44.66 74.26 50.67 74.26 47.66 95.66"/><polyline class="cls-2" points="26.63 40.71 30.68 27.92 30.19 41.67"/><polyline class="cls-2" points="26.25 52.57 12.84 52.37 26.14 48.88"/><polyline class="cls-2" points="27.51 55.59 14.1 55.39 27.41 51.91"/><polyline class="cls-2" points="28.65 58.56 15.24 58.36 28.55 54.88"/><polyline class="cls-2" points="29.62 40.71 33.68 27.92 33.18 41.67"/><polyline class="cls-2" points="34.14 39.79 38.2 27 37.7 40.75"/><path class="cls-1" d="M40.46,58.38a6.06,6.06,0,0,1-1.67-.23c-2.08-.59-20.47-6.1-25.06-18C12.4,36.7,11.64,31.28,15.58,25c3.43-5.49,4.35-8.47,4.59-9.76A6.12,6.12,0,0,1,26.1,5a8.52,8.52,0,0,1,5.64,5.27c2,5,.15,11.73-5.76,21.2-1.53,2.44-1,3.72-.82,4.27,1.72,4.46,11.14,9,17,10.63a6.13,6.13,0,0,1-1.67,12ZM23,16.83h0Zm0,0h0Z"/><path class="cls-1" d="M31.26,11.71a7.37,7.37,0,0,1-7.38,7.38c-4.07,0-17.32-3.3-17.32-7.38S19.81,4.34,23.88,4.34A7.37,7.37,0,0,1,31.26,11.71Z"/><ellipse class="cls-2" cx="49.68" cy="55.96" rx="21.94" ry="26.56" transform="translate(-16.53 90.82) rotate(-76.17)"/><path class="cls-2" d="M9.91,15.71a15,15,0,0,0-2.46-.5,20.54,20.54,0,0,0-2.6-.2,10.4,10.4,0,0,0-2.56.26A4.11,4.11,0,0,0,0,16.55a5,5,0,0,1,1.25-2.8,12.72,12.72,0,0,1,2.33-2.19A25.77,25.77,0,0,1,6.24,9.83,22.35,22.35,0,0,1,9.18,8.4l.58-.22a4,4,0,1,1,.15,7.53Z"/><circle class="cls-2" cx="23.38" cy="10.91" r="0.94"/><path class="cls-3" d="M60.79,82.15a21.38,21.38,0,0,0,1.08,2.3,22.88,22.88,0,0,0,1.38,2.22A10.6,10.6,0,0,0,65,88.59a4.28,4.28,0,0,0,2.37,1.1,4.82,4.82,0,0,1-2.91,0,12,12,0,0,1-2.79-1.16,23,23,0,0,1-2.52-1.62,24.33,24.33,0,0,1-2.37-2l-.1-.1a2.53,2.53,0,0,1,3.5-3.66A2.6,2.6,0,0,1,60.79,82.15Z"/><rect class="cls-2" x="45.45" y="46.61" width="7.96" height="40.42" rx="1.95" ry="1.95" transform="translate(-26.32 32.61) rotate(-29.2)"/><path class="cls-3" d="M67.13,79.76a18.23,18.23,0,0,0,1.08,2.31,19.55,19.55,0,0,0,1.38,2.22,10.55,10.55,0,0,0,1.73,1.92,4.28,4.28,0,0,0,2.38,1.1,4.93,4.93,0,0,1-2.92,0A12.11,12.11,0,0,1,68,86.15a24.69,24.69,0,0,1-2.53-1.62,25.77,25.77,0,0,1-2.36-2l-.11-.1a2.53,2.53,0,1,1,4.13-2.71Z"/><rect class="cls-2" x="51.78" y="44.22" width="7.96" height="40.42" rx="1.95" ry="1.95" transform="translate(-24.35 35.4) rotate(-29.2)"/><path class="cls-3" d="M73.46,77.38a21.5,21.5,0,0,0,1.08,2.31,22.73,22.73,0,0,0,1.38,2.21,10,10,0,0,0,1.74,1.92A4.28,4.28,0,0,0,80,84.92a4.82,4.82,0,0,1-2.91,0,12,12,0,0,1-2.79-1.15,24.64,24.64,0,0,1-2.52-1.63,24.33,24.33,0,0,1-2.37-2l-.1-.1a2.53,2.53,0,0,1,3.5-3.66A2.68,2.68,0,0,1,73.46,77.38Z"/><rect class="cls-2" x="58.12" y="41.84" width="7.96" height="40.42" rx="1.95" ry="1.95" transform="translate(-22.38 38.19) rotate(-29.2)"/><path class="cls-3" d="M79.8,75a22,22,0,0,0,2.46,4.52A10.93,10.93,0,0,0,84,81.44a4.28,4.28,0,0,0,2.38,1.1,4.85,4.85,0,0,1-2.92,0,12.11,12.11,0,0,1-2.78-1.16,23.1,23.1,0,0,1-2.53-1.62,24.24,24.24,0,0,1-2.36-2l-.1-.1A2.53,2.53,0,1,1,79.8,75Z"/><rect class="cls-2" x="64.45" y="39.46" width="7.96" height="40.42" rx="1.95" ry="1.95" transform="translate(-20.41 40.98) rotate(-29.2)"/><path class="cls-3" d="M86.13,72.61a21.5,21.5,0,0,0,1.08,2.31,21.17,21.17,0,0,0,1.39,2.22,10.19,10.19,0,0,0,1.73,1.92,4.27,4.27,0,0,0,2.37,1.09,4.89,4.89,0,0,1-2.91,0A12,12,0,0,1,87,79a23.05,23.05,0,0,1-2.52-1.63,24.1,24.1,0,0,1-2.36-2l-.11-.1a2.53,2.53,0,0,1,3.5-3.66A2.56,2.56,0,0,1,86.13,72.61Z"/><rect class="cls-2" x="70.79" y="37.07" width="7.96" height="40.42" rx="1.95" ry="1.95" transform="translate(-18.44 43.76) rotate(-29.2)"/><path class="cls-2" d="M62.1,39S143,82.44,68.44,63.6"/><rect class="cls-2" x="42.45" y="70.85" width="10.82" height="12.48" rx="2.66" ry="2.66"/></svg>