<svg id="Layer_1" data-name="Layer 1" xmlns="http://www.w3.org/2000/svg" viewBox="0 0 100 100"><defs><style>.cls-1{fill:#069274;}.cls-2{fill:#4a4a4c;}.cls-3{fill:#58595b;}</style></defs><title>stone</title><ellipse class="cls-1" cx="46.53" cy="65.85" rx="46.18" ry="11.96"/><path class="cls-2" d="M68.42,35l4.18-1.39c-7.42-7.21-16.4-12.73-26.07-12.73-20.17,0-31.69,5.43-38.23,12.55l4.54,1.39Z"/><path class="cls-3" d="M72.6,33.62l-4,1.58h0l.38,2-.38-2-55.19-1,.13.13-.13-.13h0L8.3,33.44c-10.84,11.81-8,28.29-8,32.41,0,6.61,20.68,12,46.18,12s46.18-5.35,46.18-12C92.71,61.75,84.74,45.42,72.6,33.62Z"/><path class="cls-3" d="M99.56,71.84c-3.8,4.62-8.9,7.27-19.88,7.27S59.8,77.82,59.8,71.84,68.7,61,79.68,61,102.45,68.3,99.56,71.84Z"/><path class="cls-2" d="M90.85,67.92l7.6-.17c-4.23-4.11-9.3-7.26-14.82-7.26-11.51,0-18.09,3.1-21.82,7.16l6.68.65Z"/><path class="cls-2" d="M72.6,34c0,1.67-14.4,5.47-32.15,5.47S8.3,35.1,8.3,33.44s14.39,0,32.15,0S72.6,32.33,72.6,34Z"/><path class="cls-2" d="M98.45,67.75c0,.74-8,2.56-18.18,2.56s-18.46-1.74-18.46-2.48,8.27-.18,18.46-.18S98.45,67.43,98.45,67.75Z"/><circle class="cls-2" cx="19.74" cy="43.26" r="1.12"/><circle class="cls-2" cx="23.75" cy="49.86" r="1.12"/><circle class="cls-2" cx="41.77" cy="49.86" r="1.12"/><circle class="cls-2" cx="59.8" cy="49.86" r="1.12"/><circle class="cls-2" cx="28.53" cy="43.26" r="1.12"/><circle class="cls-2" cx="46.11" cy="43.26" r="1.12"/><circle class="cls-2" cx="36.82" cy="43.26" r="1.12"/><circle class="cls-2" cx="54.9" cy="43.26" r="1.12"/><circle class="cls-2" cx="63.7" cy="43.26" r="1.12"/></svg>