<svg id="Layer_1" data-name="Layer 1" xmlns="http://www.w3.org/2000/svg" viewBox="0 0 100 100"><defs><style>.cls-1{fill:#ffc63f;}.cls-2{fill:#deae38;}</style></defs><title>sand</title><ellipse class="cls-1" cx="14.93" cy="61.69" rx="14.93" ry="3.73"/><path class="cls-1" d="M92.51,62.85c0,4.53-21.21,8.2-43.36,8.2S9,67.38,9,62.85s18-8.19,40.11-8.19S92.51,58.33,92.51,62.85Z"/><path class="cls-1" d="M71.5,45.12c-4.4-1.35-8-3.47-12-3.87-5.74-.57-12.45-2.74-17.29-2.71-6.92.05-12.38,6-17.92,7.67C14.35,51.18,9,61.22,9,62.28c0,1.77,18,3.21,40.11,3.21s40.1-1.44,40.1-3.21C89.25,61.21,82.21,48.43,71.5,45.12Z"/><circle class="cls-2" cx="27.54" cy="56.63" r="1.08"/><circle class="cls-2" cx="31.39" cy="62.98" r="1.08"/><circle class="cls-2" cx="48.71" cy="62.98" r="1.08"/><circle class="cls-2" cx="66.03" cy="62.98" r="1.08"/><circle class="cls-2" cx="35.99" cy="56.63" r="1.08"/><circle class="cls-2" cx="52.88" cy="56.63" r="1.08"/><circle class="cls-2" cx="43.95" cy="56.63" r="1.08"/><circle class="cls-2" cx="61.33" cy="56.63" r="1.08"/><circle class="cls-2" cx="69.78" cy="56.63" r="1.08"/><circle class="cls-1" cx="8.92" cy="63.28" r="1.37"/><circle class="cls-1" cx="13.15" cy="67" r="1.5"/><circle class="cls-1" cx="17.69" cy="70.18" r="0.87"/><circle class="cls-1" cx="23.21" cy="71.89" r="0.84"/><circle class="cls-1" cx="24.84" cy="68.69" r="1.16"/><circle class="cls-1" cx="29.32" cy="70.89" r="1.57"/><circle class="cls-1" cx="17.55" cy="73.46" r="0.73"/><circle class="cls-1" cx="42.9" cy="73.48" r="0.39"/><circle class="cls-1" cx="4.16" cy="63.37" r="1.47"/><circle class="cls-1" cx="7.33" cy="60.83" r="1.71"/><ellipse class="cls-1" cx="91.82" cy="62.56" rx="8.18" ry="2.04"/><ellipse class="cls-1" cx="87.31" cy="65.8" rx="6.98" ry="1.5"/><ellipse class="cls-1" cx="12.61" cy="66.34" rx="6.98" ry="1.5"/></svg>