<svg id="Layer_1" data-name="Layer 1" xmlns="http://www.w3.org/2000/svg" viewBox="0 0 100 100"><defs><style>.cls-1{fill:#616161;}.cls-2{fill:#3e3e3f;}.cls-3{fill:#7d7d7d;}.cls-4{fill:#714c48;}.cls-5{fill:#4f4f4f;}</style></defs><title>castle</title><rect class="cls-1" x="13.81" y="14.41" width="25.97" height="44.23"/><rect class="cls-1" x="13.81" y="10.18" width="6.62" height="12.88" rx="1.29" ry="1.29"/><rect class="cls-1" x="23.49" y="10.18" width="6.62" height="12.88" rx="1.29" ry="1.29"/><rect class="cls-1" x="33.16" y="10.18" width="6.62" height="12.88" rx="1.29" ry="1.29"/><path class="cls-2" d="M30.64,25a3.85,3.85,0,0,0-3.84-3.84h0A3.86,3.86,0,0,0,23,25v3.94h7.69Z"/><path class="cls-2" d="M30.64,40.37a3.85,3.85,0,0,0-3.84-3.84h0A3.86,3.86,0,0,0,23,40.37v3.94h7.69Z"/><rect class="cls-1" x="52.84" y="6.51" width="36.24" height="61.72"/><rect class="cls-1" x="52.84" y="0.6" width="9.24" height="17.98" rx="1.8" ry="1.8"/><rect class="cls-1" x="66.34" y="0.6" width="9.24" height="17.98" rx="1.8" ry="1.8"/><rect class="cls-1" x="79.85" y="0.6" width="9.24" height="17.98" rx="1.8" ry="1.8"/><path class="cls-3" d="M0,56.15V88A11.25,11.25,0,0,0,11.22,99.23H88.78A11.25,11.25,0,0,0,100,88V56.15Z"/><path class="cls-2" d="M76.74,18.5A5.8,5.8,0,0,0,71,12.72h0a5.8,5.8,0,0,0-5.78,5.78v5.92H76.74Z"/><path class="cls-2" d="M76.74,40.19A5.8,5.8,0,0,0,71,34.41h0a5.8,5.8,0,0,0-5.78,5.78v5.92H76.74Z"/><path class="cls-4" d="M66.16,99.4V83.2A6.85,6.85,0,0,1,73,76.37h0a6.85,6.85,0,0,1,6.83,6.83V99.4"/><path class="cls-2" d="M81,99.4H78.66V83.2a5.67,5.67,0,0,0-11.34,0V99.4H65V83.2a8,8,0,1,1,16,0Z"/><rect class="cls-3" y="47.73" width="10.92" height="21.25" rx="2.13" ry="2.13"/><rect class="cls-3" x="17.82" y="47.73" width="10.92" height="21.25" rx="2.13" ry="2.13"/><rect class="cls-3" x="35.63" y="47.73" width="10.92" height="21.25" rx="2.13" ry="2.13"/><rect class="cls-3" x="53.45" y="47.73" width="10.92" height="21.25" rx="2.13" ry="2.13"/><rect class="cls-3" x="71.27" y="47.73" width="10.92" height="21.25" rx="2.13" ry="2.13"/><rect class="cls-3" x="89.08" y="47.73" width="10.92" height="21.25" rx="2.13" ry="2.13"/><rect class="cls-1" x="12.14" y="63.2" width="14.65" height="5.77" rx="1.12" ry="1.12"/><rect class="cls-1" x="45.52" y="77.69" width="14.65" height="5.77" rx="1.12" ry="1.12"/><rect class="cls-1" x="36.8" y="65.34" width="10.21" height="5.77" rx="1.12" ry="1.12"/><rect class="cls-5" x="55.95" y="37.61" width="6.83" height="3.86" rx="0.75" ry="0.75"/><rect class="cls-5" x="29.83" y="29.36" width="5.8" height="3.28" rx="0.64" ry="0.64"/><rect class="cls-5" x="16.44" y="16.64" width="5.8" height="3.28" rx="0.64" ry="0.64"/><rect class="cls-5" x="72.62" y="28.78" width="14.93" height="3.86" rx="0.75" ry="0.75"/><rect class="cls-1" x="84.33" y="87.89" width="10.21" height="5.77" rx="1.12" ry="1.12"/><rect class="cls-1" x="17.12" y="82.6" width="14.65" height="5.77" rx="1.12" ry="1.12"/></svg>