<svg id="Layer_1" data-name="Layer 1" xmlns="http://www.w3.org/2000/svg" viewBox="0 0 100 100"><defs><style>.cls-1{fill:#7c5550;}.cls-2{fill:#171717;}.cls-3{fill:#60403c;}.cls-4{fill:#714c48;}.cls-5{fill:#895e59;}.cls-6{fill:#ffc640;}</style></defs><title>centaur</title><rect class="cls-1" x="6.01" y="23.28" width="4.45" height="32.56" rx="1.03" ry="1.03"/><rect class="cls-1" x="4.72" y="53.07" width="7.2" height="12.17" rx="1.67" ry="1.67"/><path class="cls-2" d="M24.26,7.92a8.48,8.48,0,0,1,.3-1.87,11.26,11.26,0,0,1,.64-1.82,9.86,9.86,0,0,1,1-1.73A7.13,7.13,0,0,1,27.77,1,5.11,5.11,0,0,1,30.13,0,5.2,5.2,0,0,1,32.74.4a4.91,4.91,0,0,1,.57.25l.53.3c.31.2.6.4.89.63a8.5,8.5,0,0,1,1.59,1.63A7.12,7.12,0,0,1,37.4,5.36a8.21,8.21,0,0,1,.33,2.24,14.22,14.22,0,0,1-.11,1.94,12.12,12.12,0,0,0-.1,1.36,2.82,2.82,0,0,0,0,.34.19.19,0,0,0,0,.07s0,.06,0,.07,0,0,0,0a.07.07,0,0,0,0,.05.22.22,0,0,0,.17.17,1,1,0,0,0,.51,0A2.86,2.86,0,0,0,39.53,11a2,2,0,0,0,.45-.6.85.85,0,0,0,0-.79,1,1,0,0,1,.4.31,1.35,1.35,0,0,1,.21.51,2.4,2.4,0,0,1-.08,1.1,3.81,3.81,0,0,1-1.23,1.85,3.18,3.18,0,0,1-1.16.6,2.69,2.69,0,0,1-1.58-.07,2.54,2.54,0,0,1-.38-.16,3,3,0,0,1-.35-.21,3.61,3.61,0,0,1-.3-.25,3.44,3.44,0,0,1-.27-.27,3.64,3.64,0,0,1-.73-1.27,8.45,8.45,0,0,1-.39-2.2c0-.62-.08-1.17-.14-1.65a4.84,4.84,0,0,0-.86-2.3,5.94,5.94,0,0,0-.88-1,6.3,6.3,0,0,0-.55-.45L31.45,4c-.08-.06-.16-.09-.23-.14a2.47,2.47,0,0,0-.87-.31,2.25,2.25,0,0,0-1,.14,8.21,8.21,0,0,0-2.53,1.69C25.93,6.12,25.12,7,24.26,7.92Z"/><polyline class="cls-3" points="16.81 51.01 22.7 92.41 30.49 51.01"/><polyline class="cls-3" points="21.07 87.41 22.66 98.23 24.77 87.41"/><rect class="cls-3" x="20.36" y="82.9" width="4.71" height="3.09" rx="0.72" ry="0.72"/><rect class="cls-3" x="20.36" y="84.98" width="4.71" height="3.09" rx="0.72" ry="0.72"/><polygon class="cls-3" points="59.5 54.54 46.61 59.12 60.42 85.48 63.88 82.5 59.5 54.54"/><polyline class="cls-3" points="59.15 85.75 57.18 96.51 62.65 86.94"/><rect class="cls-3" x="59.3" y="81.93" width="4.71" height="3.09" rx="0.72" ry="0.72" transform="translate(30.06 -15.37) rotate(18.72)"/><rect class="cls-3" x="58.63" y="83.9" width="4.71" height="3.09" rx="0.72" ry="0.72" transform="translate(30.65 -15.05) rotate(18.72)"/><path class="cls-2" d="M70.84,58.07a15.21,15.21,0,0,1,.54-3.35,19.41,19.41,0,0,1,1.14-3.23,17.07,17.07,0,0,1,1.81-3.09,12.11,12.11,0,0,1,2.78-2.75A9.21,9.21,0,0,1,81.3,44a9.41,9.41,0,0,1,4.67.64,10.52,10.52,0,0,1,1,.46l.94.53c.54.35,1.06.7,1.58,1.11a15.46,15.46,0,0,1,2.84,2.92,12.91,12.91,0,0,1,1.91,3.82,14.4,14.4,0,0,1,.6,4A27.67,27.67,0,0,1,94.67,61a20.87,20.87,0,0,0-.19,2.42,4.64,4.64,0,0,0,0,.61.61.61,0,0,0,0,.13.84.84,0,0,1,0,.12.94.94,0,0,0,0,.09.2.2,0,0,0,0,.09c0,.11.08.23.31.3a1.73,1.73,0,0,0,.9,0,5,5,0,0,0,2.21-1.23,3.48,3.48,0,0,0,.81-1.07,1.53,1.53,0,0,0,0-1.41,1.76,1.76,0,0,1,.71.55,2.34,2.34,0,0,1,.38.92,4.14,4.14,0,0,1-.14,2,6.76,6.76,0,0,1-2.19,3.3,5.68,5.68,0,0,1-2.08,1.07,4.76,4.76,0,0,1-2.81-.11,3.79,3.79,0,0,1-.68-.3,4.28,4.28,0,0,1-.62-.38,4.52,4.52,0,0,1-.53-.43,3.63,3.63,0,0,1-.48-.48,6.51,6.51,0,0,1-1.32-2.27,14.93,14.93,0,0,1-.68-3.92c-.08-1.11-.14-2.08-.26-2.94a8.45,8.45,0,0,0-1.54-4.11,10.11,10.11,0,0,0-1.56-1.69c-.29-.28-.65-.53-1-.8l-.43-.3c-.14-.11-.27-.16-.41-.26a4,4,0,0,0-1.54-.54,4,4,0,0,0-1.85.24,14.72,14.72,0,0,0-4.51,3C73.83,54.85,72.37,56.42,70.84,58.07Z"/><path class="cls-4" d="M50.39,73.74c-18.41,0-28.74-5.31-30.16-6.1L32.48,45.43a1.53,1.53,0,0,0-.22-.12c.46.23,11.63,5.62,33.42,1.58a12.68,12.68,0,1,1,4.63,24.94A109,109,0,0,1,50.39,73.74Z"/><path class="cls-4" d="M38,41.12v.08c0,.83-.1,1.65-.1,2.43v1.18c0,.39,0,.75,0,1.13l0,.75.16.21c.13.18.25.32.36.5a5.48,5.48,0,0,1,.31.52l.25.49a4.61,4.61,0,0,1,.36.89,2.56,2.56,0,0,1,.1,1.88.87.87,0,0,1-.13.15s-.08,0-.13,0l-.16,0a1.56,1.56,0,0,1-.14-.19l-.15-.22a.63.63,0,0,1-.07-.12l-.06-.17-.25-.69L38.22,49c0-.15-.07-.29-.09-.45l-.06-.5L38,47v-.35l-.26-.34c-.15-.17-.31-.34-.48-.5s-.33-.34-.51-.5c-.35-.32-.76-.6-1.11-.87-.19-.14-.39-.26-.59-.38l-.3-.17-.27-.16a5.68,5.68,0,0,0-.55-.28l-.29-.13a1.45,1.45,0,0,1-.25-.11l-.5-.2c-.17-.06-.35-.11-.48-.17-1.21-.39-2-.51-2.5-.64l-.19-.05-.17,0-.32-.08a2.66,2.66,0,0,0-.35,0h-.24l-.19,0-.14,0h0l-.33.12.23-.08.1,0h0a18.3,18.3,0,0,1,9.77-1L38.06,40l.12-1.27c.09-.84.16-1.69.28-2.56l.31-2.29H15.14l-.2.39c-.49.94-1,1.89-1.43,2.9l-.69,1.5c-.23.5-.43,1-.65,1.58l-.65,1.6-.59,1.72-.3.87c-.09.29-.17.61-.26.92l-.52,1.89a38.41,38.41,0,0,0-.73,4.34c0,.4-.1.77-.12,1.2l0,1.33c0,.45,0,.88,0,1.34s.07,1,.12,1.53a22.89,22.89,0,0,0,1.81,7.12,21.79,21.79,0,0,0,6.22,8.15,20.59,20.59,0,0,0,2.28,1.62c.39.24.79.47,1.2.7l.61.32.59.28,1.21.53.61.24.59.2,1.17.37c.4.11.8.22,1.16.3a28.41,28.41,0,0,0,8,.69l.88-.06.85-.08c.57,0,1.12-.13,1.68-.22s1.09-.19,1.68-.32l.43-.1.48-.12.51-.15.3-.09.08,0,.14,0,.31-.12a18.33,18.33,0,0,0-3.88-35Z"/><path class="cls-4" d="M28.22,42.1h0l.14,0,.19,0h.24a2.66,2.66,0,0,1,.35,0l.32.08.17,0,.19.05c.52.13,1.29.25,2.5.64.13.06.31.11.48.17l.5.2a1.45,1.45,0,0,0,.25.11l.29.13a5.68,5.68,0,0,1,.55.28l.27.16.3.17c.2.12.4.24.59.38.35.27.76.55,1.11.87.18.16.35.34.51.5s.33.33.48.5l.26.34,0-.75c0-.38,0-.74,0-1.13V43.63c0-.78,0-1.6.1-2.43v-.08A18.3,18.3,0,0,0,28.22,42.1Z"/><path class="cls-4" d="M39.5,42.64S30.3,46.83,64,47.22L58,62.73,20.38,58.25"/><polyline class="cls-4" points="30.09 50.13 35.98 91.54 43.77 50.13"/><polyline class="cls-4" points="34.35 86.53 35.94 97.36 38.05 86.53"/><rect class="cls-4" x="33.64" y="82.02" width="4.71" height="3.09" rx="0.72" ry="0.72"/><rect class="cls-4" x="33.64" y="84.11" width="4.71" height="3.09" rx="0.72" ry="0.72"/><polygon class="cls-2" points="17.64 100 26.87 100 22.25 93.83 17.64 100"/><polygon class="cls-2" points="31.38 100 40.61 100 36 93.83 31.38 100"/><polygon class="cls-2" points="53.23 100 62.46 100 57.84 93.83 53.23 100"/><polygon class="cls-4" points="72.8 54.54 59.91 59.12 73.72 85.48 77.18 82.5 72.8 54.54"/><polyline class="cls-4" points="72.44 85.75 70.48 96.51 75.95 86.94"/><rect class="cls-4" x="72.6" y="81.93" width="4.71" height="3.09" rx="0.72" ry="0.72" transform="translate(30.76 -19.64) rotate(18.72)"/><rect class="cls-4" x="71.93" y="83.9" width="4.71" height="3.09" rx="0.72" ry="0.72" transform="translate(31.36 -19.32) rotate(18.72)"/><polygon class="cls-2" points="66.53 100 75.76 100 71.14 93.83 66.53 100"/><circle class="cls-3" cx="70.32" cy="52.3" r="0.95"/><circle class="cls-3" cx="75.11" cy="56.42" r="1.48"/><circle class="cls-3" cx="67.78" cy="56.4" r="0.56"/><rect class="cls-5" x="9.46" y="19.85" width="29.59" height="38.05" rx="6.88" ry="6.88"/><rect class="cls-5" x="7.41" y="16.98" width="33.54" height="15.78" rx="3.67" ry="3.67"/><rect class="cls-5" x="10.46" y="1.19" width="19.19" height="25.65" rx="4.22" ry="4.22"/><circle class="cls-2" cx="25.36" cy="9.86" r="0.91"/><polygon class="cls-4" points="16.56 7.01 12.93 13.39 17.79 13.39 16.56 7.01"/><rect class="cls-6" x="12.54" y="17.24" width="1.62" height="3.61" rx="0.38" ry="0.38"/><rect class="cls-6" x="14.97" y="17.24" width="1.62" height="3.61" rx="0.38" ry="0.38"/><rect class="cls-6" x="17.4" y="17.24" width="1.62" height="3.61" rx="0.38" ry="0.38"/><rect class="cls-6" x="19.83" y="17.24" width="1.62" height="3.61" rx="0.38" ry="0.38"/><rect class="cls-4" x="11.92" y="19.85" width="11.73" height="1.28" rx="0.3" ry="0.3"/><circle class="cls-4" cx="12.63" cy="29.17" r="0.72"/><circle class="cls-4" cx="30.09" cy="29.17" r="0.72"/><rect class="cls-5" x="36.93" y="23.28" width="4.45" height="32.56" rx="1.03" ry="1.03"/><rect class="cls-5" x="35.86" y="53.07" width="7.2" height="12.17" rx="1.67" ry="1.67"/></svg>