<svg id="Layer_1" data-name="Layer 1" xmlns="http://www.w3.org/2000/svg" viewBox="0 0 100 100"><defs><style>.cls-1{fill:#895e59;}.cls-2{fill:#654440;}.cls-3{fill:#fcca98;}.cls-4{fill:#f9b48f;}.cls-5{fill:#e4ae90;}.cls-6{fill:#f48d80;}.cls-7{fill:#c5e0a9;}.cls-8{fill:#c5d1a3;}.cls-9{fill:#afc9a3;}.cls-10{fill:#c4ae94;}</style></defs><title>nest</title><path class="cls-1" d="M49.85,44.64c17.92,0,32.45,2.52,32.45,5.63h9.19c-8.91-4.81-24-8-41-8s-32.12,3.15-41,8h8C17.4,47.16,31.93,44.64,49.85,44.64Z"/><ellipse class="cls-2" cx="49.85" cy="50.27" rx="32.45" ry="5.63"/><path class="cls-3" d="M53.76,44.92a17.22,17.22,0,0,1-33.51,8c-2.19-9.26,0-33.48,9.24-35.67S51.56,35.67,53.76,44.92Z"/><ellipse class="cls-4" cx="27.51" cy="36.42" rx="3.53" ry="5.42" transform="translate(-2.21 1.78) rotate(-3.56)"/><ellipse class="cls-4" cx="32.04" cy="41.04" rx="3.33" ry="4.04" transform="translate(-4.79 4.24) rotate(-7.04)"/><ellipse class="cls-5" cx="29.77" cy="22.68" rx="2.38" ry="2.89" transform="translate(-2.56 3.82) rotate(-7.04)"/><ellipse class="cls-5" cx="47.86" cy="49.13" rx="5.08" ry="5.92" transform="translate(-13.08 17.66) rotate(-18.44)"/><path class="cls-6" d="M39.82,22.7c-1.65,1-1.72,3.92-.14,6.46s4.19,3.77,5.85,2.75a2.7,2.7,0,0,0,1.16-1.74,51.72,51.72,0,0,0-6.2-7.76A2.47,2.47,0,0,0,39.82,22.7Z"/><path class="cls-6" d="M31.37,57.67c-3.17-1.52-6.64-.88-7.75,1.43a2.9,2.9,0,0,0-.16.41,17.25,17.25,0,0,0,10.6,6.35,3.49,3.49,0,0,0,1.06-1.26C36.22,62.29,34.55,59.19,31.37,57.67Z"/><path class="cls-7" d="M81.26,53.58a13.2,13.2,0,0,1-26-4.77c1.31-7.17,10.32-23.5,17.49-22.18S82.58,46.4,81.26,53.58Z"/><ellipse class="cls-8" cx="65.46" cy="39.5" rx="4.15" ry="2.71" transform="translate(5.8 87.31) rotate(-69.81)"/><ellipse class="cls-8" cx="67.21" cy="44.14" rx="3.1" ry="2.55" transform="translate(5.61 95.83) rotate(-73.29)"/><ellipse class="cls-9" cx="71.29" cy="30.56" rx="2.22" ry="1.82" transform="translate(21.53 90.06) rotate(-73.29)"/><ellipse class="cls-9" cx="75.82" cy="54.7" rx="4.54" ry="3.9" transform="translate(14.34 125.14) rotate(-84.69)"/><path class="cls-10" d="M78.34,33.67c-1.48.21-2.41,2.22-2.09,4.49s1.78,4,3.26,3.74A2.06,2.06,0,0,0,80.85,41a39.27,39.27,0,0,0-1.95-7.36A2.09,2.09,0,0,0,78.34,33.67Z"/><path class="cls-10" d="M61.61,55.61c-1.76-2-4.39-2.67-5.88-1.39a2.72,2.72,0,0,0-.24.24A13.26,13.26,0,0,0,61,62.19a2.62,2.62,0,0,0,1.13-.56C63.59,60.35,63.37,57.66,61.61,55.61Z"/><path class="cls-1" d="M91.49,50.27H82.3c0,3.1-14.53,5.62-32.45,5.62S17.4,53.37,17.4,50.27h-8C4.07,53.16.93,56.66.93,60.42c0,10,22.18,18.11,49.54,18.11S100,70.42,100,60.42C100,56.66,96.86,53.16,91.49,50.27Z"/><rect class="cls-1" x="7.7" y="45.14" width="3.02" height="8.69" rx="0.73" ry="0.73" transform="translate(-23.51 11.24) rotate(-30)"/><rect class="cls-1" x="7.06" y="48.25" width="3.02" height="8.69" rx="0.73" ry="0.73" transform="translate(-25.15 11.33) rotate(-30)"/><rect class="cls-1" x="56.09" y="74.19" width="3.02" height="8.69" rx="0.73" ry="0.73" transform="translate(32.62 -15.6) rotate(21.39)"/><rect class="cls-1" x="14.28" y="68.66" width="3.02" height="8.69" rx="0.73" ry="0.73" transform="translate(27.72 -0.73) rotate(21.39)"/><rect class="cls-1" x="59.11" y="74.19" width="3.02" height="8.69" rx="0.73" ry="0.73" transform="translate(-19.05 19.42) rotate(-15.76)"/><rect class="cls-1" x="20.18" y="70.97" width="3.02" height="8.69" rx="0.73" ry="0.73" transform="translate(-19.64 8.72) rotate(-15.76)"/><rect class="cls-1" x="1.7" y="61.92" width="3.02" height="8.69" rx="0.73" ry="0.73" transform="translate(33.56 7.27) rotate(30)"/><rect class="cls-1" x="84.28" y="44.55" width="2.07" height="5.97" rx="0.5" ry="0.5" transform="translate(18.12 -23.34) rotate(17.4)"/><rect class="cls-2" x="60.62" y="65.22" width="8.64" height="2.88" rx="0.7" ry="0.7"/><rect class="cls-2" x="11.47" y="57.54" width="8.64" height="2.88" rx="0.7" ry="0.7"/><rect class="cls-2" x="35.28" y="65.82" width="17.66" height="5.89" rx="1.43" ry="1.43"/></svg>