<svg id="Layer_1" data-name="Layer 1" xmlns="http://www.w3.org/2000/svg" viewBox="0 0 100 100"><defs><style>.cls-1{fill:#ffc640;}.cls-2{fill:#b95f2b;}.cls-3{fill:#3e3e3f;}.cls-4{fill:#deae38;}</style></defs><title>lion</title><rect class="cls-1" x="37.85" y="57.99" width="5.67" height="33" rx="1.29" ry="1.29"/><rect class="cls-1" x="66.37" y="57.99" width="5.67" height="33" rx="1.29" ry="1.29"/><rect class="cls-1" x="78.12" y="57.99" width="5.67" height="33" rx="1.29" ry="1.29"/><path class="cls-1" d="M83.5,53.08c7.73,7.91,7,21.19-1.69,29.67s-22,9-29.7,1S20.31,37.25,29,28.77,75.76,45.18,83.5,53.08Z"/><rect class="cls-1" x="47.72" y="57.99" width="5.67" height="33" rx="1.29" ry="1.29"/><circle class="cls-1" cx="7.69" cy="21.26" r="5.36"/><circle class="cls-1" cx="55.13" cy="21.26" r="5.36"/><path class="cls-2" d="M26.77,71.08a3.45,3.45,0,0,1-.64,0,4.1,4.1,0,0,1-3.44-3.66l-.12-1.28-.85,1a4.09,4.09,0,0,1-7.06-3.6l.28-1.26-1.11.66a4.09,4.09,0,0,1-5.6-5.61l.65-1.11-1.25.28A4.09,4.09,0,0,1,4,49.36l1-.85-1.28-.12a4.09,4.09,0,0,1-1.24-7.83l1.18-.51-1.18-.51a4.09,4.09,0,0,1,1.24-7.83L5,31.59l-1-.85a4.09,4.09,0,0,1,3.6-7.07L8.88,24l-.65-1.1a4.09,4.09,0,0,1,5.6-5.61l1.11.66-.28-1.26A4.09,4.09,0,0,1,21.72,13l.85,1,.12-1.29a4.1,4.1,0,0,1,7.84-1.24L31,12.67l.51-1.19a4.09,4.09,0,0,1,7.83,1.24L39.5,14l.85-1a4.09,4.09,0,0,1,7.06,3.6l-.28,1.26,1.11-.66a4.09,4.09,0,0,1,5.6,5.61L53.19,24l1.25-.28A4.09,4.09,0,0,1,58,30.74l-1,.85,1.28.12a4.09,4.09,0,0,1,1.24,7.83l-1.18.51,1.18.51a4.09,4.09,0,0,1-1.24,7.83l-1.28.12,1,.85a4.09,4.09,0,0,1-3.6,7.06l-1.25-.28.65,1.11a4.09,4.09,0,0,1-5.6,5.61l-1.11-.66.28,1.26a4.09,4.09,0,0,1-7.06,3.6l-.85-1-.12,1.28a4.09,4.09,0,0,1-7.83,1.24L31,67.43l-.51,1.18A4.1,4.1,0,0,1,26.77,71.08Zm-1-18.91a4.2,4.2,0,0,1,1.26.2,4.07,4.07,0,0,1,1.86,1.25,4.18,4.18,0,0,1,4.29,0A4.13,4.13,0,0,1,35,52.37a4,4,0,0,1,2.23-.08,4.07,4.07,0,0,1,1.38-1.76,4.2,4.2,0,0,1,2.1-.77,4,4,0,0,1,.77-2.1,4.2,4.2,0,0,1,1.75-1.38A4.1,4.1,0,0,1,44.6,42.2,4.13,4.13,0,0,1,44,40.05a4.08,4.08,0,0,1,.61-2.15,4.13,4.13,0,0,1-1.33-4.09,4,4,0,0,1-1.75-1.38,4,4,0,0,1-.77-2.09,4.2,4.2,0,0,1-2.1-.77,4.07,4.07,0,0,1-1.38-1.76A4.14,4.14,0,0,1,35,27.72a4,4,0,0,1-1.86-1.24,4.07,4.07,0,0,1-2.14.61h0a4.08,4.08,0,0,1-2.15-.61A4,4,0,0,1,27,27.72a4.14,4.14,0,0,1-2.23.09,4.07,4.07,0,0,1-1.38,1.76,4.2,4.2,0,0,1-2.1.77,4,4,0,0,1-.77,2.09,4,4,0,0,1-1.75,1.38A4.13,4.13,0,0,1,18.71,36a4.06,4.06,0,0,1-1.24,1.86,4.08,4.08,0,0,1,.61,2.15,4.13,4.13,0,0,1-.61,2.15,4,4,0,0,1,1.24,1.85,4.14,4.14,0,0,1,.09,2.23,4.2,4.2,0,0,1,1.75,1.38,4,4,0,0,1,.77,2.1,4.09,4.09,0,0,1,3.48,2.53A3.91,3.91,0,0,1,25.77,52.17Z"/><circle class="cls-1" cx="31.04" cy="38.83" r="16.68"/><circle class="cls-3" cx="19.88" cy="32.44" r="1.33"/><circle class="cls-3" cx="42.46" cy="32.44" r="1.33"/><ellipse class="cls-4" cx="25.87" cy="41.52" rx="6.89" ry="4.65" transform="translate(-11.91 10.44) rotate(-18.63)"/><ellipse class="cls-4" cx="36.2" cy="41.52" rx="4.65" ry="6.89" transform="translate(-14.71 62.56) rotate(-71.37)"/><path class="cls-3" d="M33.89,36.8a3.42,3.42,0,0,1-3.15,2.38c-1.74,0-3.16-1.66-3.16-2.38s1.42-1.33,3.16-1.33S33.89,36.07,33.89,36.8Z"/><path class="cls-1" d="M84.74,60.18a2.2,2.2,0,0,1-2-1.36c-1.79-4.35-2.69-13.72,6.8-18a8,8,0,0,0,4.67-4.48c1.09-3.13-.58-6.49-.6-6.52a2.2,2.2,0,0,1,3.9-2c.1.21,2.56,5.05.84,10-1.07,3.06-3.42,5.43-7,7-8,3.61-4.69,11.95-4.54,12.31A2.19,2.19,0,0,1,85.58,60,2.07,2.07,0,0,1,84.74,60.18Z"/><path class="cls-2" d="M100,26.91a4.21,4.21,0,0,1-8.41,0c0-2.32,4.21-10,4.21-10S100,24.59,100,26.91Z"/></svg>