<svg id="Layer_1" data-name="Layer 1" xmlns="http://www.w3.org/2000/svg" viewBox="0 0 100 100"><defs><style>.cls-1{fill:#714c48;}.cls-2{fill:#994d1f;}.cls-3{fill:#4e322e;}.cls-4{fill:#fcca98;}.cls-5{fill:#09a582;}</style></defs><title>doghouse</title><path class="cls-1" d="M13.29,26.88v59a8.61,8.61,0,0,0,8.59,8.59H81.24a8.61,8.61,0,0,0,8.58-8.59v-59Z"/><rect class="cls-2" x="39.69" y="1.18" width="14.34" height="5.97" rx="1.3" ry="1.3" transform="translate(0.37 11.39) rotate(-13.91)"/><rect class="cls-2" x="31.35" y="6.58" width="14.34" height="5.97" rx="1.3" ry="1.3" transform="translate(-1.17 9.54) rotate(-13.91)"/><rect class="cls-2" x="23.01" y="11.98" width="14.34" height="5.97" rx="1.3" ry="1.3" transform="translate(-2.71 7.69) rotate(-13.91)"/><rect class="cls-2" x="14.67" y="17.37" width="14.34" height="5.97" rx="1.3" ry="1.3" transform="translate(-4.25 5.85) rotate(-13.91)"/><rect class="cls-2" x="6.33" y="22.77" width="14.34" height="5.97" rx="1.3" ry="1.3" transform="translate(-5.8 4) rotate(-13.91)"/><rect class="cls-2" x="47.78" y="1.18" width="14.34" height="5.97" rx="1.3" ry="1.3" transform="translate(107.29 21.43) rotate(-166.09)"/><rect class="cls-2" x="56.12" y="6.58" width="14.34" height="5.97" rx="1.3" ry="1.3" transform="translate(122.43 34.07) rotate(-166.09)"/><rect class="cls-2" x="64.46" y="11.98" width="14.34" height="5.97" rx="1.3" ry="1.3" transform="translate(137.56 46.7) rotate(-166.09)"/><rect class="cls-2" x="72.8" y="17.37" width="14.34" height="5.97" rx="1.3" ry="1.3" transform="translate(152.7 59.34) rotate(-166.09)"/><rect class="cls-2" x="81.14" y="22.77" width="14.34" height="5.97" rx="1.3" ry="1.3" transform="translate(167.84 71.98) rotate(-166.09)"/><polyline class="cls-2" points="11.95 28.15 91.79 28.15 50.5 2.02"/><rect class="cls-2" x="4.83" y="26.39" width="91.74" height="4.17" rx="0.91" ry="0.91"/><path class="cls-3" d="M34.35,94.48V59.84A17.68,17.68,0,0,1,52,42.21h0A17.68,17.68,0,0,1,69.59,59.84V94.48"/><rect class="cls-4" x="8.22" y="81.05" width="26.79" height="6.31" rx="1.37" ry="1.37" transform="translate(-22.64 159.03) rotate(-135)"/><circle class="cls-4" cx="33.15" cy="91.76" r="3.23"/><circle class="cls-4" cx="29.26" cy="95.65" r="3.23"/><circle class="cls-4" cx="14.84" cy="73.44" r="3.23"/><circle class="cls-4" cx="10.94" cy="77.33" r="3.23"/><rect class="cls-5" x="3.43" y="85.34" width="39.12" height="14.84" rx="3.22" ry="3.22" transform="translate(45.98 185.52) rotate(180)"/></svg>