<svg id="Layer_1" data-name="Layer 1" xmlns="http://www.w3.org/2000/svg" viewBox="0 0 100 100"><defs><style>.cls-1{fill:#7d7d7d;}.cls-2{fill:#9dc8dc;}.cls-3{fill:#87898b;}.cls-4{fill:#fff;}</style></defs><title>skyscraper</title><path class="cls-1" d="M62.67,0H37.33a5.74,5.74,0,0,0-5.72,5.71V94.29A5.74,5.74,0,0,0,37.33,100H62.67a5.74,5.74,0,0,0,5.72-5.71V5.71A5.74,5.74,0,0,0,62.67,0Z"/><path class="cls-2" d="M40.4,100V88.29a5,5,0,0,1,4.94-4.94h9.32a5,5,0,0,1,4.94,4.94V100"/><path class="cls-3" d="M60.25,100H58.94V88.29A4.28,4.28,0,0,0,54.66,84H45.34a4.28,4.28,0,0,0-4.28,4.28V100H39.75V88.29a5.6,5.6,0,0,1,5.59-5.59h9.32a5.6,5.6,0,0,1,5.59,5.59Z"/><rect class="cls-3" x="49.35" y="83.62" width="1.31" height="16.38"/><path class="cls-4" d="M44.94,85.36a3.08,3.08,0,0,1-3,3,3.57,3.57,0,0,1,.9-2.06A3.62,3.62,0,0,1,44.94,85.36Z"/><path class="cls-4" d="M46.72,87.14a3.12,3.12,0,0,1-3,3,3.12,3.12,0,0,1,3-3Z"/><path class="cls-4" d="M42.16,53.67a3.12,3.12,0,0,1-3,3,3.12,3.12,0,0,1,3-3Z"/><path class="cls-4" d="M43.93,55.45a3.08,3.08,0,0,1-3,3,3.08,3.08,0,0,1,3-3Z"/><rect class="cls-2" x="37.27" y="52.12" width="10.94" height="10.94" rx="1.46" ry="1.46"/><path class="cls-3" d="M45.29,63.7h-5.1a3.57,3.57,0,0,1-3.57-3.57V55a3.57,3.57,0,0,1,3.57-3.57h5.1A3.57,3.57,0,0,1,48.86,55v5.1A3.57,3.57,0,0,1,45.29,63.7Zm-5.1-10.93A2.27,2.27,0,0,0,37.92,55v5.1a2.27,2.27,0,0,0,2.27,2.27h5.1a2.27,2.27,0,0,0,2.26-2.27V55a2.26,2.26,0,0,0-2.26-2.26Z"/><rect class="cls-2" x="51.8" y="52.12" width="10.94" height="10.94" rx="1.46" ry="1.46"/><path class="cls-3" d="M59.82,63.7H54.71a3.57,3.57,0,0,1-3.57-3.57V55a3.57,3.57,0,0,1,3.57-3.57h5.11A3.57,3.57,0,0,1,63.38,55v5.1A3.57,3.57,0,0,1,59.82,63.7ZM54.71,52.77A2.26,2.26,0,0,0,52.45,55v5.1a2.27,2.27,0,0,0,2.26,2.27h5.11a2.27,2.27,0,0,0,2.26-2.27V55a2.26,2.26,0,0,0-2.26-2.26Z"/><rect class="cls-2" x="37.27" y="68.03" width="10.94" height="10.94" rx="1.46" ry="1.46"/><path class="cls-3" d="M45.29,79.62h-5.1a3.57,3.57,0,0,1-3.57-3.57V71a3.57,3.57,0,0,1,3.57-3.57h5.1A3.57,3.57,0,0,1,48.86,71v5.1A3.57,3.57,0,0,1,45.29,79.62Zm-5.1-10.94A2.27,2.27,0,0,0,37.92,71v5.1a2.27,2.27,0,0,0,2.27,2.26h5.1a2.26,2.26,0,0,0,2.26-2.26V71a2.27,2.27,0,0,0-2.26-2.27Z"/><rect class="cls-2" x="51.8" y="68.03" width="10.94" height="10.94" rx="1.46" ry="1.46"/><path class="cls-3" d="M59.82,79.62H54.71a3.57,3.57,0,0,1-3.57-3.57V71a3.57,3.57,0,0,1,3.57-3.57h5.11A3.57,3.57,0,0,1,63.38,71v5.1A3.57,3.57,0,0,1,59.82,79.62ZM54.71,68.68A2.27,2.27,0,0,0,52.45,71v5.1a2.26,2.26,0,0,0,2.26,2.26h5.11a2.26,2.26,0,0,0,2.26-2.26V71a2.27,2.27,0,0,0-2.26-2.27Z"/><path class="cls-4" d="M42.16,21.7a3.62,3.62,0,0,1-.91,2.06,3.62,3.62,0,0,1-2.06.91,3.62,3.62,0,0,1,.91-2.06A3.62,3.62,0,0,1,42.16,21.7Z"/><path class="cls-4" d="M43.93,23.48a3.57,3.57,0,0,1-.9,2.06,3.57,3.57,0,0,1-2.06.9,3.08,3.08,0,0,1,3-3Z"/><rect class="cls-2" x="37.27" y="20.14" width="10.94" height="10.94" rx="1.46" ry="1.46"/><path class="cls-3" d="M45.29,31.73h-5.1a3.57,3.57,0,0,1-3.57-3.57v-5.1a3.57,3.57,0,0,1,3.57-3.57h5.1a3.57,3.57,0,0,1,3.57,3.57v5.1A3.57,3.57,0,0,1,45.29,31.73ZM40.19,20.8a2.27,2.27,0,0,0-2.27,2.26v5.1a2.27,2.27,0,0,0,2.27,2.27h5.1a2.27,2.27,0,0,0,2.26-2.27v-5.1a2.26,2.26,0,0,0-2.26-2.26Z"/><rect class="cls-2" x="51.8" y="20.14" width="10.94" height="10.94" rx="1.46" ry="1.46"/><path class="cls-3" d="M59.82,31.73H54.71a3.57,3.57,0,0,1-3.57-3.57v-5.1a3.57,3.57,0,0,1,3.57-3.57h5.11a3.57,3.57,0,0,1,3.56,3.57v5.1A3.57,3.57,0,0,1,59.82,31.73ZM54.71,20.8a2.26,2.26,0,0,0-2.26,2.26v5.1a2.27,2.27,0,0,0,2.26,2.27h5.11a2.27,2.27,0,0,0,2.26-2.27v-5.1a2.26,2.26,0,0,0-2.26-2.26Z"/><path class="cls-4" d="M42.16,5.84a3.62,3.62,0,0,1-.91,2.06,3.62,3.62,0,0,1-2.06.91,3.62,3.62,0,0,1,.91-2.06A3.62,3.62,0,0,1,42.16,5.84Z"/><path class="cls-4" d="M43.93,7.61A3.57,3.57,0,0,1,43,9.67a3.62,3.62,0,0,1-2.06.91,3.57,3.57,0,0,1,.9-2.06A3.62,3.62,0,0,1,43.93,7.61Z"/><rect class="cls-2" x="37.27" y="4.28" width="10.94" height="10.94" rx="1.46" ry="1.46"/><path class="cls-3" d="M45.29,15.87h-5.1a3.57,3.57,0,0,1-3.57-3.57V7.2a3.57,3.57,0,0,1,3.57-3.57h5.1A3.57,3.57,0,0,1,48.86,7.2v5.1A3.57,3.57,0,0,1,45.29,15.87ZM40.19,4.93A2.27,2.27,0,0,0,37.92,7.2v5.1a2.27,2.27,0,0,0,2.27,2.27h5.1a2.27,2.27,0,0,0,2.26-2.27V7.2a2.27,2.27,0,0,0-2.26-2.27Z"/><rect class="cls-2" x="51.8" y="4.28" width="10.94" height="10.94" rx="1.46" ry="1.46"/><path class="cls-3" d="M59.82,15.87H54.71a3.57,3.57,0,0,1-3.57-3.57V7.2a3.57,3.57,0,0,1,3.57-3.57h5.11A3.57,3.57,0,0,1,63.38,7.2v5.1A3.57,3.57,0,0,1,59.82,15.87ZM54.71,4.93A2.27,2.27,0,0,0,52.45,7.2v5.1a2.27,2.27,0,0,0,2.26,2.27h5.11a2.27,2.27,0,0,0,2.26-2.27V7.2a2.27,2.27,0,0,0-2.26-2.27Z"/><rect class="cls-2" x="37.27" y="36.06" width="10.94" height="10.94" rx="1.46" ry="1.46"/><path class="cls-3" d="M45.29,47.65h-5.1a3.57,3.57,0,0,1-3.57-3.57V39a3.57,3.57,0,0,1,3.57-3.56h5.1A3.57,3.57,0,0,1,48.86,39v5.11A3.57,3.57,0,0,1,45.29,47.65Zm-5.1-10.94A2.27,2.27,0,0,0,37.92,39v5.11a2.27,2.27,0,0,0,2.27,2.26h5.1a2.26,2.26,0,0,0,2.26-2.26V39a2.26,2.26,0,0,0-2.26-2.26Z"/><rect class="cls-2" x="51.8" y="36.06" width="10.94" height="10.94" rx="1.46" ry="1.46"/><path class="cls-3" d="M59.82,47.65H54.71a3.57,3.57,0,0,1-3.57-3.57V39a3.57,3.57,0,0,1,3.57-3.56h5.11A3.57,3.57,0,0,1,63.38,39v5.11A3.57,3.57,0,0,1,59.82,47.65ZM54.71,36.71A2.26,2.26,0,0,0,52.45,39v5.11a2.26,2.26,0,0,0,2.26,2.26h5.11a2.26,2.26,0,0,0,2.26-2.26V39a2.27,2.27,0,0,0-2.26-2.26Z"/></svg>