<svg id="Layer_1" data-name="Layer 1" xmlns="http://www.w3.org/2000/svg" viewBox="0 0 100 100"><defs><style>.cls-1{fill:#f37d3b;}.cls-2{fill:#c7552e;}.cls-3{fill:#b6a574;}.cls-4{fill:#847a55;}</style></defs><title>dynamite</title><rect class="cls-1" x="28.53" y="-3.21" width="38.4" height="106.43" rx="8.75" ry="8.75" transform="translate(49.34 -19.11) rotate(45)"/><ellipse class="cls-2" cx="75.59" cy="23.18" rx="10.32" ry="12.71" transform="translate(5.75 60.24) rotate(-45)"/><path class="cls-3" d="M76.5,26.3a2.22,2.22,0,0,1-2-1.25A7.54,7.54,0,0,1,76,16.26,9.38,9.38,0,0,1,86.27,13.9c2.6,1.15,7.74-.9,10.38-2.46a2.22,2.22,0,0,1,2.27,3.82C98,15.79,90,20.4,84.49,18a5,5,0,0,0-5.27,1.37,3.16,3.16,0,0,0-.72,3.78,2.22,2.22,0,0,1-2,3.18Z"/><path class="cls-4" d="M97.83,15.85l-2-3.94c.52-.27.84-.46.87-.47l2.25,3.82S98.51,15.5,97.83,15.85Z"/><path class="cls-4" d="M78.21,21.11l-4.34-.91a7.74,7.74,0,0,1,1.36-3l3.58,2.62A3.59,3.59,0,0,0,78.21,21.11ZM80,18.69l-2.54-3.64a10.16,10.16,0,0,1,2.7-1.34l1.36,4.22A6.18,6.18,0,0,0,80,18.69Zm8.14,0H87.7l.16-4.44h.27a8.88,8.88,0,0,0,1.63-.16l.76,4.38A13.53,13.53,0,0,1,88.13,18.68ZM84.53,18a3.57,3.57,0,0,0-1.41-.3l.1-4.45a8.17,8.17,0,0,1,3,.66Zm8.57-.17-1.32-4.24a21.63,21.63,0,0,0,2-.75l1.72,4.1C94.79,17.24,94,17.55,93.1,17.82Z"/><path class="cls-4" d="M74.5,25.05A9.11,9.11,0,0,1,74,23.61l4.29-1.15a3.56,3.56,0,0,0,.25.66Z"/></svg>