<svg id="Layer_1" data-name="Layer 1" xmlns="http://www.w3.org/2000/svg" viewBox="0 0 100 100"><defs><style>.cls-1{fill:#9a7e5f;}.cls-2{fill:#3e3e3f;}.cls-3{fill:#91775a;}.cls-4{fill:#454547;}.cls-5{fill:#bf9b77;}</style></defs><title>goat</title><polyline class="cls-1" points="56.53 54.41 52.09 85.63 46.22 54.41"/><polyline class="cls-1" points="53.32 81.85 52.12 90.02 50.53 81.85"/><rect class="cls-1" x="50.3" y="78.46" width="3.55" height="2.33" rx="0.58" ry="0.58" transform="translate(104.15 159.25) rotate(180)"/><rect class="cls-1" x="50.3" y="80.03" width="3.55" height="2.33" rx="0.58" ry="0.58" transform="translate(104.15 162.39) rotate(-180)"/><polygon class="cls-1" points="24.34 57.08 34.06 60.53 23.65 80.4 21.04 78.16 24.34 57.08"/><polyline class="cls-1" points="24.61 80.6 26.09 88.72 21.97 81.5"/><rect class="cls-1" x="20.94" y="77.72" width="3.55" height="2.33" rx="0.58" ry="0.58" transform="translate(69.55 146.31) rotate(161.28)"/><rect class="cls-1" x="21.45" y="79.21" width="3.55" height="2.33" rx="0.58" ry="0.58" transform="translate(71.01 149.05) rotate(161.28)"/><polygon class="cls-2" points="55.91 91.35 48.95 91.35 52.43 86.7 55.91 91.35"/><polygon class="cls-2" points="29.07 91.35 22.11 91.35 25.59 86.7 29.07 91.35"/><polygon class="cls-3" points="82.84 35.2 90.88 35.2 86.86 48.4 82.84 35.2"/><path class="cls-2" d="M71.58,22.11a3.24,3.24,0,0,0-.3-.91,12.11,12.11,0,0,0-.57-1.14,16.78,16.78,0,0,0-1.53-2.24A23.11,23.11,0,0,0,65,13.88a31.12,31.12,0,0,0-5.21-3.06c-.92-.44-1.89-.79-2.86-1.19l-3-1,3.17.1c1.05.12,2.12.18,3.19.36a34.06,34.06,0,0,1,6.36,1.6,27.46,27.46,0,0,1,6.09,3.13,21.15,21.15,0,0,1,2.8,2.26,16.91,16.91,0,0,1,1.29,1.37c.21.25.42.48.62.77a6.81,6.81,0,0,1,.66,1Z"/><path class="cls-4" d="M71.58,22.11a5.56,5.56,0,0,1-.18-.65l5.74-3.65c.34.47.67.94,1,1.44Z"/><polygon class="cls-4" points="70.47 19.63 69.21 17.84 72.81 13.86 75.06 15.64 70.47 19.63"/><polygon class="cls-4" points="67.69 16.16 65.97 14.6 67.96 11.21 70.42 12.39 67.69 16.16"/><polygon class="cls-4" points="64.06 13.19 62.01 11.93 62.89 9.59 65.44 10.29 64.06 13.19"/><polygon class="cls-4" points="59.82 10.81 57.53 9.84 57.77 8.8 60.33 9.11 59.82 10.81"/><polygon class="cls-4" points="55.11 9 53.95 8.65 55.17 8.66 55.11 9"/><path class="cls-5" d="M49.51,69.43H20.35A16.31,16.31,0,0,1,4.09,53.16h0A16.31,16.31,0,0,1,20.35,36.89H49.51c37.19,0,10.61,7.32,10.61,16.27h0C60.12,62.11,61,68,49.51,69.43Z"/><path class="cls-5" d="M56.4,50.77a9,9,0,0,1-6.54-15.11l14-14.88A9,9,0,0,1,70.38,18h8.45a9,9,0,0,1,0,18H74.26L62.94,48A8.94,8.94,0,0,1,56.4,50.77Z"/><path class="cls-5" d="M95.05,35.9H78a5,5,0,0,1-5-4.94h0c0-2.73-6.62-11.57-3.9-11.57H81.4c2.72,0,18.6,8.84,18.6,11.57h0A5,5,0,0,1,95.05,35.9Z"/><path class="cls-3" d="M66.59,23.08c0-2.51,1.4-4.55,3.11-4.55s3.11,2,3.11,4.55-.06,11.78-3.11,11.78S66.59,25.59,66.59,23.08Z"/><polygon class="cls-5" points="59.27 46.39 63.84 46.39 61.56 53.9 59.27 46.39"/><polygon class="cls-5" points="62.11 43.55 66.69 43.55 64.4 51.06 62.11 43.55"/><polygon class="cls-5" points="64.96 40.7 69.53 40.7 67.25 48.21 64.96 40.7"/><polygon class="cls-5" points="67.8 37.86 72.38 37.86 70.09 45.37 67.8 37.86"/><polygon class="cls-5" points="70.65 35.01 75.22 35.01 72.94 42.52 70.65 35.01"/><circle class="cls-2" cx="76.33" cy="24.01" r="1.1"/><polyline class="cls-5" points="46.52 53.75 42.08 84.97 36.2 53.75"/><polyline class="cls-5" points="43.31 81.19 42.11 89.36 40.52 81.19"/><rect class="cls-5" x="40.29" y="77.8" width="3.55" height="2.33" rx="0.58" ry="0.58" transform="translate(84.13 157.93) rotate(-180)"/><rect class="cls-5" x="40.29" y="79.37" width="3.55" height="2.33" rx="0.58" ry="0.58" transform="translate(84.13 161.07) rotate(180)"/><polygon class="cls-2" points="45.55 91.35 38.58 91.35 42.06 86.7 45.55 91.35"/><polygon class="cls-5" points="14.31 57.08 24.03 60.53 13.62 80.4 11.01 78.16 14.31 57.08"/><polyline class="cls-5" points="14.58 80.6 16.06 88.72 11.94 81.5"/><rect class="cls-5" x="10.91" y="77.72" width="3.55" height="2.33" rx="0.58" ry="0.58" transform="translate(50.02 149.53) rotate(161.28)"/><rect class="cls-5" x="11.42" y="79.21" width="3.55" height="2.33" rx="0.58" ry="0.58" transform="translate(51.49 152.27) rotate(161.28)"/><polygon class="cls-2" points="19.04 91.35 12.08 91.35 15.56 86.7 19.04 91.35"/><path class="cls-5" d="M13.11,39.94a3.5,3.5,0,0,1-3.5,3.5c-1.94,0-9.61-3.5-9.61-3.5s7.67-3.51,9.61-3.51A3.51,3.51,0,0,1,13.11,39.94Z"/></svg>