<svg id="Layer_1" data-name="Layer 1" xmlns="http://www.w3.org/2000/svg" viewBox="0 0 100 100"><defs><style>.cls-1{fill:#333;}.cls-2{fill:#757575;}.cls-3{fill:#3e3e3f;}</style></defs><title>ash</title><path class="cls-1" d="M15.57,44.56h0a3.47,3.47,0,0,1,4.79-1l6.24,4.08a26.92,26.92,0,0,0-8.83,2.5l-1.2-.78A3.48,3.48,0,0,1,15.57,44.56Z"/><path class="cls-2" d="M61.1,41h0a3.49,3.49,0,0,1,4.8-1l6.23,4.08a27,27,0,0,0-8.83,2.5l-1.19-.78A3.48,3.48,0,0,1,61.1,41Z"/><ellipse class="cls-3" cx="15.55" cy="56.94" rx="14.82" ry="3.7"/><path class="cls-3" d="M92.57,58.11c0,4.49-21.06,8.13-43,8.13S9.71,62.6,9.71,58.11,27.54,50,49.52,50,92.57,53.61,92.57,58.11Z"/><path class="cls-3" d="M72.89,45.09C52.74,42.3,49.09,37,49.09,37S38,41.46,26,45.17C16.12,50.11,9.71,56.48,9.71,57.54c0,1.76,17.83,3.18,39.81,3.18s39.81-1.42,39.81-3.18C89.33,56.48,82.85,50,72.89,45.09Z"/><circle class="cls-3" cx="9.6" cy="58.52" r="1.36"/><circle class="cls-3" cx="13.79" cy="62.22" r="1.49"/><circle class="cls-3" cx="25.39" cy="63.9" r="1.15"/><circle class="cls-3" cx="4.87" cy="58.62" r="1.46"/><circle class="cls-3" cx="8.02" cy="56.1" r="1.69"/><ellipse class="cls-3" cx="91.88" cy="57.81" rx="8.12" ry="2.03"/><ellipse class="cls-3" cx="87.4" cy="61.03" rx="6.93" ry="1.49"/><ellipse class="cls-3" cx="13.25" cy="61.57" rx="6.93" ry="1.49"/><path class="cls-3" d="M12.19,53.24A1.42,1.42,0,0,1,12.9,52a.69.69,0,0,0,.35-.61.71.71,0,0,0-.35-.61,2.79,2.79,0,0,0-1.42-.39,2.83,2.83,0,0,0,0,5.66,2.79,2.79,0,0,0,1.42-.39.71.71,0,0,0,.35-.61.69.69,0,0,0-.35-.61A1.42,1.42,0,0,1,12.19,53.24Z"/><path class="cls-3" d="M1.85,55.3a1,1,0,0,1-1-.19A.53.53,0,0,0,.36,55a.53.53,0,0,0-.33.38,2.06,2.06,0,0,0,.09,1.05,2,2,0,1,0,3.8-1.38,2,2,0,0,0-.61-.86.51.51,0,0,0-.49-.08.49.49,0,0,0-.33.38A1,1,0,0,1,1.85,55.3Z"/><path class="cls-3" d="M17.37,51.16a1.4,1.4,0,0,1,1.36.36.72.72,0,0,0,.69.17.71.71,0,0,0,.49-.5,2.82,2.82,0,1,0-5.45.05,2.78,2.78,0,0,0,.75,1.26.72.72,0,0,0,.69.17.71.71,0,0,0,.49-.5A1.39,1.39,0,0,1,17.37,51.16Z"/><path class="cls-3" d="M30.88,46.78a1.41,1.41,0,0,1,1.36.36.71.71,0,0,0,.68.17.72.72,0,0,0,.5-.5,2.83,2.83,0,1,0-5.46,0,2.89,2.89,0,0,0,.76,1.26.71.71,0,0,0,1.18-.33A1.39,1.39,0,0,1,30.88,46.78Z"/><path class="cls-3" d="M32.09,44.12a1.2,1.2,0,0,1,1.17.31.61.61,0,0,0,.58.15.63.63,0,0,0,.43-.44,2.34,2.34,0,0,0,0-1.26,2.43,2.43,0,1,0-4.68,1.31,2.47,2.47,0,0,0,.65,1.08.61.61,0,0,0,.59.15.59.59,0,0,0,.42-.43A1.22,1.22,0,0,1,32.09,44.12Z"/><path class="cls-3" d="M21.44,47a1.41,1.41,0,0,1-1.4.15.7.7,0,0,0-1,.71,2.68,2.68,0,0,0,.52,1.38A2.83,2.83,0,1,0,23,45a.7.7,0,0,0-.7.07.74.74,0,0,0-.29.65A1.37,1.37,0,0,1,21.44,47Z"/><path class="cls-3" d="M26.31,43.4a1.39,1.39,0,0,1-.47-1.32.72.72,0,0,0-.25-.66.69.69,0,0,0-.69-.12,2.71,2.71,0,0,0-1.21.83A2.83,2.83,0,0,0,28,45.76a2.9,2.9,0,0,0,.61-1.33.72.72,0,0,0-.25-.67.71.71,0,0,0-.69-.12A1.38,1.38,0,0,1,26.31,43.4Z"/><path class="cls-3" d="M38.16,39.88a1.62,1.62,0,0,1-1.57.41.83.83,0,0,0-.78.21.8.8,0,0,0-.21.79,3.21,3.21,0,0,0,.83,1.47A3.26,3.26,0,0,0,41,38.15a3.21,3.21,0,0,0-1.47-.83.81.81,0,0,0-1,1A1.61,1.61,0,0,1,38.16,39.88Z"/><path class="cls-3" d="M75.06,47a1.62,1.62,0,0,1-1.57.41.83.83,0,0,0-.78.21.8.8,0,0,0-.21.79,3.21,3.21,0,0,0,.83,1.47,3.26,3.26,0,0,0,4.6-4.61,3.18,3.18,0,0,0-1.46-.83.81.81,0,0,0-1,1A1.61,1.61,0,0,1,75.06,47Z"/><path class="cls-3" d="M57,42.49a1.37,1.37,0,0,1,.59,1.28.7.7,0,0,0,1,.7,2.83,2.83,0,1,0-3.5-4.18,2.77,2.77,0,0,0-.49,1.38.7.7,0,0,0,1,.7A1.4,1.4,0,0,1,57,42.49Z"/><path class="cls-3" d="M62.27,43.86a1.19,1.19,0,0,1,.51,1.1.61.61,0,0,0,.86.6,2.4,2.4,0,0,0,1-.81,2.43,2.43,0,1,0-4-2.78,2.4,2.4,0,0,0-.42,1.18.61.61,0,0,0,.86.61A1.17,1.17,0,0,1,62.27,43.86Z"/><path class="cls-3" d="M68.38,42.94A1.6,1.6,0,0,1,67.07,42a.81.81,0,0,0-1.4-.13,3.11,3.11,0,0,0-.6,1.58,3.26,3.26,0,0,0,6.48.63,3.35,3.35,0,0,0-.29-1.67.82.82,0,0,0-.66-.47.8.8,0,0,0-.74.34A1.61,1.61,0,0,1,68.38,42.94Z"/><path class="cls-3" d="M45.61,38.26a2.09,2.09,0,0,1-.44,2,1,1,0,0,0-.22,1,1,1,0,0,0,.78.69,4.09,4.09,0,0,0,2.17-.1A4.18,4.18,0,0,0,45.31,34a4.06,4.06,0,0,0-1.81,1.2,1.05,1.05,0,0,0-.22,1,1.07,1.07,0,0,0,.77.7A2.07,2.07,0,0,1,45.61,38.26Z"/><path class="cls-3" d="M53.19,36.43a1.63,1.63,0,0,1-.8-1.42.82.82,0,0,0-.4-.7.79.79,0,0,0-.81,0A3.05,3.05,0,0,0,50,35.49,3.25,3.25,0,1,0,56,37.14a.81.81,0,0,0-1.21-.71A1.62,1.62,0,0,1,53.19,36.43Z"/><path class="cls-3" d="M84.56,50.28A3.09,3.09,0,0,1,83,47.58a1.55,1.55,0,0,0-2.32-1.36,6.12,6.12,0,0,0-2.31,2.26,6.22,6.22,0,1,0,10.74,6.28A6.15,6.15,0,0,0,90,51.64a1.56,1.56,0,0,0-2.33-1.36A3.05,3.05,0,0,1,84.56,50.28Z"/><path class="cls-3" d="M75.18,44.3a1.61,1.61,0,0,1,1.36-.88.79.79,0,0,0,.68-.44.83.83,0,0,0,0-.81A3.18,3.18,0,0,0,75.93,41a3.26,3.26,0,1,0-1.3,6.14.81.81,0,0,0,.64-1.25A1.6,1.6,0,0,1,75.18,44.3Z"/><path class="cls-1" d="M36.19,52a1.39,1.39,0,0,1-1.41,0,.7.7,0,0,0-.7,0,.71.71,0,0,0-.34.62,2.73,2.73,0,0,0,.41,1.41,2.83,2.83,0,1,0,4.82-3,2.89,2.89,0,0,0-1.07-1,.75.75,0,0,0-.71,0,.7.7,0,0,0-.33.62A1.39,1.39,0,0,1,36.19,52Z"/><path class="cls-1" d="M53.14,41.68a1.07,1.07,0,0,1-.32-1,.51.51,0,0,0-.16-.5.5.5,0,0,0-.51-.11,2,2,0,0,0-.92.59,2.1,2.1,0,0,0,3.12,2.81,2.07,2.07,0,0,0,.49-1,.53.53,0,0,0-.16-.5.56.56,0,0,0-.51-.11A1,1,0,0,1,53.14,41.68Z"/><path class="cls-2" d="M65.21,48.82a.6.6,0,0,1-.45-.41.3.3,0,0,0-.23-.2.3.3,0,0,0-.29.1,1.21,1.21,0,0,0-.29.56,1.23,1.23,0,0,0,2.4.5,1.13,1.13,0,0,0,0-.63.29.29,0,0,0-.23-.21.33.33,0,0,0-.29.1A.6.6,0,0,1,65.21,48.82Z"/><path class="cls-2" d="M19.44,58.68a.76.76,0,0,1,.7-.31.38.38,0,0,0,.34-.16.37.37,0,0,0,0-.38,1.48,1.48,0,0,0-.49-.61A1.53,1.53,0,1,0,19,60a.36.36,0,0,0,.35-.15.4.4,0,0,0,0-.38A.77.77,0,0,1,19.44,58.68Z"/><rect class="cls-3" x="30.63" y="35.35" width="4.83" height="10.29" rx="1.21" ry="1.21" transform="translate(-19.12 43.84) rotate(-54.45)"/><path class="cls-1" d="M62.06,52.6h0a2.41,2.41,0,0,0-3.34-.7l-4.35,2.84a18.69,18.69,0,0,1,6.16,1.74l.83-.54A2.42,2.42,0,0,0,62.06,52.6Z"/><rect class="cls-3" x="90.16" y="47.76" width="4.83" height="10.29" rx="1.21" ry="1.21" transform="translate(86.19 -53.53) rotate(56.82)"/></svg>