<svg id="Layer_1" data-name="Layer 1" xmlns="http://www.w3.org/2000/svg" viewBox="0 0 100 100"><defs><style>.cls-1{fill:#de7336;}.cls-2{fill:#f37d3b;}.cls-3{fill:#d56e33;}.cls-4{fill:#fff;}.cls-5{fill:#ffc640;}.cls-6{fill:#ffe5b1;}</style></defs><title>cereal</title><path class="cls-1" d="M89.5,44.72c0,17.56-17.68,24.83-39.5,24.83S10.5,49.29,10.5,44.72,28.18,36.46,50,36.46,89.5,40.16,89.5,44.72Z"/><path class="cls-1" d="M10.5,44.72c0,17.56,17.68,24.83,39.5,24.83S89.5,49.29,89.5,44.72,71.82,36.46,50,36.46,10.5,40.16,10.5,44.72Z"/><ellipse class="cls-2" cx="50" cy="42.54" rx="50" ry="10.46"/><path class="cls-3" d="M90,40.12a3.15,3.15,0,0,1-1.27,2.32,11.18,11.18,0,0,1-2.28,1.46,32.72,32.72,0,0,1-5,2,84,84,0,0,1-10.51,2.26,143.12,143.12,0,0,1-21.38,1.53,144.49,144.49,0,0,1-21.39-1.52,86.15,86.15,0,0,1-10.5-2.27,33.84,33.84,0,0,1-5-2,11.67,11.67,0,0,1-2.28-1.47,3.13,3.13,0,0,1-1.26-2.32,3,3,0,0,0,1.46,2.06,11.62,11.62,0,0,0,2.32,1.21,32.6,32.6,0,0,0,5.06,1.47A85.09,85.09,0,0,0,28.34,46.5a207.64,207.64,0,0,0,21.17,1,207.77,207.77,0,0,0,21.17-1,85.72,85.72,0,0,0,10.45-1.65,31.42,31.42,0,0,0,5.05-1.47,11.36,11.36,0,0,0,2.32-1.21A3,3,0,0,0,90,40.12Z"/><ellipse class="cls-4" cx="49.51" cy="40.84" rx="40.46" ry="7.75"/><path class="cls-5" d="M22.94,40.05,21.32,42.2c-.33,1-5-.8-5-5.74h0c0-4.94,4.7-6.73,5-5.75l1.62,2.16c.42.82-.32,2.24-.2,3.59h0C22.62,37.8,23.36,39.23,22.94,40.05Z"/><path class="cls-5" d="M43.66,40.86,45,43.22c.76.71-2.78,4.23-7.3,2.23h0c-4.5-2.05-4.22-7-3.18-6.94l2.63-.59c.92-.05,1.91,1.21,3.19,1.65h0C41.48,40.24,43.08,40.14,43.66,40.86Z"/><path class="cls-5" d="M75.44,43,73,41.89c-1-.13-.24-5.06,4.59-6.1h0c4.84-1,7.55,3.21,6.65,3.74l-1.78,2c-.71.57-2.26.14-3.55.54h0C77.57,42.25,76.32,43.27,75.44,43Z"/><path class="cls-6" d="M62.86,45.75l-2.12-1c-.9-.11-.21-4.4,4-5.3h0c4.2-.86,6.55,2.79,5.78,3.25L69,44.47c-.62.5-2,.13-3.08.47h0C64.71,45.08,63.63,46,62.86,45.75Z"/><path class="cls-6" d="M59.13,36.88l-.79-1c-.41-.26.9-2.16,3.12-1.63h0c2.22.55,2.51,2.84,2,2.88l-1.14.49c-.42.1-1-.39-1.59-.48h0C60.17,37,59.45,37.16,59.13,36.88Z"/><path class="cls-6" d="M28.15,38.32l-.79-1c-.41-.26.91-2.16,3.13-1.63h0c2.21.55,2.5,2.84,2,2.88l-1.14.49c-.41.1-1-.39-1.59-.48h0C29.19,38.42,28.47,38.6,28.15,38.32Z"/><path class="cls-5" d="M57.33,40.05,55.71,42.2c-.33,1-5-.8-5-5.74h0c0-4.94,4.7-6.73,5-5.75l1.62,2.16c.42.82-.32,2.24-.2,3.59h0C57,37.8,57.75,39.23,57.33,40.05Z"/><path class="cls-5" d="M42.44,31.26c-4.93-.29-7,4.25-6.06,4.65l0,0H48.11C48.05,34.54,46.33,31.53,42.44,31.26Z"/><polyline class="cls-4" points="14.47 39.52 30 39.52 30 45.2 16.29 45.2"/></svg>