<svg id="Layer_1" data-name="Layer 1" xmlns="http://www.w3.org/2000/svg" viewBox="0 0 100 100"><defs><style>.cls-1{fill:#3e3e3f;}.cls-2{fill:#231f20;}.cls-3{fill:#aed2c4;}.cls-4{fill:#09a582;}.cls-5{fill:#ffc640;}.cls-6{fill:#6ab8d9;}</style></defs><title>black hole</title><path class="cls-1" d="M85.71,0H14.29A14.33,14.33,0,0,0,0,14.29V85.71A14.33,14.33,0,0,0,14.29,100H85.71A14.33,14.33,0,0,0,100,85.71V14.29A14.33,14.33,0,0,0,85.71,0Z"/><path class="cls-2" d="M54.69,51.41a6.43,6.43,0,0,0,1.69-4.76,6.32,6.32,0,0,0-.68-2.43,6.94,6.94,0,0,0-.7-1.06,6,6,0,0,0-.75-.76,4.25,4.25,0,0,0-5.18-.1c-.87.7-.73.83-.89,1.2a1.5,1.5,0,0,0,0,.9,1.54,1.54,0,0,0,.45.69c.32.29.09-.08,0-.18a1.39,1.39,0,0,0-1.19-.47,1.63,1.63,0,0,0-.73.21,5.1,5.1,0,0,0-2.06,4.69,6,6,0,0,0,.48,1.85A5,5,0,0,0,46.39,53,10.18,10.18,0,0,0,51,55.72a10.69,10.69,0,0,0,5.64,0,9.93,9.93,0,0,0,2.67-1.13,11.47,11.47,0,0,0,2.44-2,16.23,16.23,0,0,0,3.7-5.88,17.22,17.22,0,0,0-1.26-14.05c-.3-.54-.68-1-1-1.57L62,29.61a27.13,27.13,0,0,0-3-2.77,24.54,24.54,0,0,0-7.23-3.9,24.82,24.82,0,0,0-16.63.38,23.8,23.8,0,0,0-7.42,4.42,14.68,14.68,0,0,0-1.63,1.54c-.53.55-1.11,1.07-1.6,1.65a35.09,35.09,0,0,0-2.75,3.67,34,34,0,0,0-5.57,17.57,38.08,38.08,0,0,0,1,9.43,36.22,36.22,0,0,0,3.57,8.88,34.28,34.28,0,0,0,5.93,7.7,32.35,32.35,0,0,0,3.69,3.33l1.95,1.56,2.1,1.36a46,46,0,0,0,18.82,6.9A47.76,47.76,0,0,0,91.52,79.05,49.39,49.39,0,0,1,53,94.55a50,50,0,0,1-21-5.94l-2.44-1.33-2.29-1.56a38.06,38.06,0,0,1-4.41-3.4,42.68,42.68,0,0,1-4.06-3.91c-.66-.68-1.2-1.47-1.81-2.2a23.85,23.85,0,0,1-1.69-2.3,43,43,0,0,1-5.07-10.28A45.51,45.51,0,0,1,8.14,52.25a42.83,42.83,0,0,1,5.32-22.61,43.85,43.85,0,0,1,3.19-5c.59-.81,1.26-1.54,1.89-2.31a23.62,23.62,0,0,1,2-2.23A34.77,34.77,0,0,1,30.67,13a37,37,0,0,1,24.62-2.46A37.63,37.63,0,0,1,67,15.65a41.47,41.47,0,0,1,5.08,4c.78.81,1.58,1.61,2.33,2.46s1.43,1.76,2.07,2.71a32.47,32.47,0,0,1-1.88,38.9,28.51,28.51,0,0,1-5.33,5.1,27.57,27.57,0,0,1-6.68,3.64,28.81,28.81,0,0,1-29.12-5.08,26.29,26.29,0,0,1-2.94-2.87A26.9,26.9,0,0,1,28,61a26,26,0,0,1-3.16-8,26.35,26.35,0,0,1,2.16-17,26.94,26.94,0,0,1,5.23-7.15,23.41,23.41,0,0,1,8.26-5.13,23.71,23.71,0,0,1,19.2,1.37,23.35,23.35,0,0,1,7.84,6.74,21.69,21.69,0,0,1,4,10.49,21.92,21.92,0,0,1-1.77,11.16,21.31,21.31,0,0,1-7.62,9.14,20.39,20.39,0,0,1-24.73-1.75,17.85,17.85,0,0,1-2.53-2.69,18.11,18.11,0,0,1-2-3.31A19.12,19.12,0,0,1,31,47.43a19.31,19.31,0,0,1,5.46-14.3Z"/><path class="cls-2" d="M56.86,54.66a10.11,10.11,0,0,1-13.89.8,8.84,8.84,0,0,1,.37-13.55,10.24,10.24,0,0,1,13.54.23A8.81,8.81,0,0,1,56.86,54.66Z"/><path class="cls-3" d="M26.9,53c7.53-5.69,12-3.2,12.15-2.69a22.32,22.32,0,0,1,4,.9C41.38,50,36,45.6,26.9,52.33c-9.26,7.08-19.33,22.75-21.22,26,2-2.33,4.05-4.79,6-7.19C11.57,70.34,19.31,58.83,26.9,53Z"/><path class="cls-4" d="M36.06,50.93c-1.52,5.94-1.57,15.51-5.68,22.45-4.52,6.73-13,1.25-14.9-5.78-2.54-6.53,2.61-17.79,11-22.81C34.79,40.27,37.46,44.8,36.06,50.93Z"/><path class="cls-3" d="M43,51.16a23.22,23.22,0,0,0-4-.9s0,0,0,.06c-.3,1-5,0-12.06,6.1S12.06,72.34,11.69,71.23c0,0,0-.06,0-.09-2,2.4-4,4.86-6,7.19-.4.76-.56,1.26-.42,1.43.81,1.91,12.5-11.15,21.94-20.94,9.18-8.77,15.58-5.09,16.21-6.89C43.47,51.72,43.32,51.46,43,51.16Z"/><path class="cls-5" d="M47.45,45.8a.6.6,0,0,1-.83-.07.54.54,0,0,1,.11-.78.62.62,0,0,1,.84.07A.54.54,0,0,1,47.45,45.8Z"/><path class="cls-5" d="M34.07,27.12c0,.29-.49.47-1.1.43s-1.11-.31-1.11-.61.51-.52,1.12-.46S34.08,26.83,34.07,27.12Z"/><path class="cls-5" d="M32.48,37.88a1.6,1.6,0,0,1-1.13.56c-.45,0-.69-.17-.53-.47A1.55,1.55,0,0,1,32,37.39C32.44,37.37,32.66,37.6,32.48,37.88Z"/><path class="cls-5" d="M53.45,36.35a.44.44,0,0,1-.72.08.76.76,0,0,1-.22-.87.45.45,0,0,1,.72-.1A.76.76,0,0,1,53.45,36.35Z"/><path class="cls-5" d="M69,42.38a1.26,1.26,0,0,1-.88.8c-.3,0-.38-.32-.2-.75s.55-.78.85-.8S69.2,41.94,69,42.38Z"/><path class="cls-5" d="M81.68,86.8c.35.48.3.88-.14.88A2.43,2.43,0,0,1,80,86.77c-.4-.49-.32-.88.17-.86A2.26,2.26,0,0,1,81.68,86.8Z"/><path class="cls-5" d="M64.72,53.82a1.17,1.17,0,0,1-.94.43c-.35,0-.49-.22-.32-.46a1.23,1.23,0,0,1,.92-.42C64.72,53.38,64.88,53.57,64.72,53.82Z"/><path class="cls-5" d="M20.57,18.26c.11.32-.32.57-1,.57s-1.25-.26-1.34-.59.35-.6,1-.59S20.47,17.93,20.57,18.26Z"/><path class="cls-5" d="M49.17,49.19a.54.54,0,0,1-.71-.06.46.46,0,0,1,.09-.67.52.52,0,0,1,.71.06A.46.46,0,0,1,49.17,49.19Z"/><path class="cls-5" d="M54.22,58.37a.37.37,0,0,1-.4.05c-.15-.07-.22-.21-.15-.3a.33.33,0,0,1,.4,0C54.22,58.14,54.29,58.27,54.22,58.37Z"/><path class="cls-5" d="M92.26,22.12a1.28,1.28,0,0,1-.46.73c-.25.21-.44.22-.44,0a1.32,1.32,0,0,1,.45-.72C92.05,21.94,92.25,21.93,92.26,22.12Z"/><path class="cls-5" d="M46.35,18.62c.13.22.08.37-.09.31a1.15,1.15,0,0,1-.55-.49c-.12-.22-.09-.38.09-.32A1.09,1.09,0,0,1,46.35,18.62Z"/><path class="cls-5" d="M54.61,45.6a.25.25,0,0,1-.35,0,.24.24,0,0,1,0-.34.25.25,0,0,1,.35,0A.24.24,0,0,1,54.61,45.6Z"/><path class="cls-5" d="M40.4,36.7a.39.39,0,0,1-.42.08c-.15-.05-.2-.17-.11-.27a.41.41,0,0,1,.42-.09C40.44,36.47,40.49,36.61,40.4,36.7Z"/><path class="cls-5" d="M50.94,47.56a.27.27,0,0,1-.36,0,.24.24,0,0,1,.05-.34.27.27,0,0,1,.36,0A.24.24,0,0,1,50.94,47.56Z"/><path class="cls-5" d="M67.63,26c0,.3-.09.53-.22.52s-.25-.25-.26-.54.08-.54.22-.53S67.62,25.69,67.63,26Z"/><path class="cls-5" d="M55.64,80.51c.19.27.21.49,0,.46a1.45,1.45,0,0,1-.69-.56c-.19-.28-.2-.48,0-.45A1.35,1.35,0,0,1,55.64,80.51Z"/><path class="cls-5" d="M43.08,8.36C43,8.65,53.33,5,54.78,4.79c1.31,0,3.31,2.49,4.2,5.15s.57,4.52-.52,4.36C57.79,14.1,43.46,8.22,43.08,8.36Z"/><path class="cls-5" d="M54.63,9.55c-1.12-2.57-1.17-4.82.15-4.76S58.09,7.28,59,9.94s.57,4.52-.52,4.36S55.76,12.12,54.63,9.55Z"/><path class="cls-5" d="M74.49,63.18c-.89.59-11.1,8.67-10.63,9.11-.8.63-2.66.36-4.2-.65s-2.11-2.25-1.29-2.73C58,69,73.37,64.21,74.49,63.18Z"/><path class="cls-5" d="M62.58,69.6c1.51.86,2.07,2.06,1.28,2.69s-2.66.36-4.2-.65-2.11-2.25-1.29-2.73S61.06,68.75,62.58,69.6Z"/><path class="cls-6" d="M88.91,20.5c4,3.62.07,16.1-10.31,24.27-10.23,7.49-15,4.63-13.57-1.43,1.49-5.81,2.79-16.63,7.61-24.17C78,12.06,85.76,16.4,88.91,20.5Z"/></svg>