<svg id="Layer_1" data-name="Layer 1" xmlns="http://www.w3.org/2000/svg" viewBox="0 0 100 100"><defs><style>.cls-1{fill:#895e59;}.cls-2{fill:#6d4945;}</style></defs><title>earth</title><ellipse class="cls-1" cx="50" cy="80.78" rx="50" ry="12.95"/><path class="cls-2" d="M74.92,34.6l4.43-4.43C71.1,16.91,61,6.28,50,6.28S28.73,17.08,20.45,30.49l4.1,4.11Z"/><path class="cls-1" d="M79.35,30.17,74.92,34.6h0l-2.26,2.26,2.26-2.26H24.55l2.81,2.81L24.55,34.6h0l-4.1-4.11C8.05,50.57,0,76.49,0,80.78c0,7.15,22.39,12.94,50,12.94s50-5.79,50-12.94C100,76.46,91.86,50.29,79.35,30.17Z"/><circle class="cls-2" cx="26.95" cy="34.59" r="7.68"/><circle class="cls-2" cx="42.32" cy="34.59" r="7.68"/><circle class="cls-2" cx="57.68" cy="34.59" r="7.68"/><circle class="cls-2" cx="73.05" cy="34.59" r="7.68"/><circle class="cls-2" cx="22.5" cy="46.99" r="1.41"/><circle class="cls-2" cx="27.54" cy="55.29" r="1.41"/><circle class="cls-2" cx="50.21" cy="55.29" r="1.41"/><circle class="cls-2" cx="72.88" cy="55.29" r="1.41"/><circle class="cls-2" cx="33.56" cy="46.99" r="1.41"/><circle class="cls-2" cx="44.61" cy="46.99" r="1.41"/><circle class="cls-2" cx="55.67" cy="46.99" r="1.41"/><circle class="cls-2" cx="66.72" cy="46.99" r="1.41"/><circle class="cls-2" cx="77.78" cy="46.99" r="1.41"/></svg>