<svg id="Layer_1" data-name="Layer 1" xmlns="http://www.w3.org/2000/svg" viewBox="0 0 100 100"><defs><style>.cls-1{fill:#121212;}.cls-2{fill:#3e3e3f;}</style></defs><title>coal</title><rect class="cls-1" x="13.62" y="42.47" width="16.91" height="23.41" rx="3.36" ry="3.36" transform="translate(-33.11 73.59) rotate(-87.21)"/><rect class="cls-1" x="32.71" y="29.95" width="8.43" height="11.67" rx="1.67" ry="1.67" transform="translate(-14.49 36.59) rotate(-45)"/><rect class="cls-1" x="81.91" y="48.59" width="13.06" height="18.08" rx="2.59" ry="2.59" transform="translate(26.57 143.16) rotate(-87.21)"/><rect class="cls-1" x="74.64" y="36.51" width="13.06" height="18.08" rx="2.59" ry="2.59" transform="translate(-11.63 38.34) rotate(-24.85)"/><path class="cls-2" d="M58.36,34.72A5.44,5.44,0,0,0,55,30.8l-3.91-1.48a5.43,5.43,0,0,0-3.87,10.15L51.13,41a5.42,5.42,0,0,0,7.23-6.24Z"/><path class="cls-2" d="M62.43,21.34a7,7,0,0,0-3.54-1.95,7.09,7.09,0,0,0-8.4,5.43l-1.14,5.32a7.07,7.07,0,0,0,13.83,3l1.14-5.32A7.07,7.07,0,0,0,62.43,21.34Z"/><path class="cls-2" d="M78.45,28l-3.92-3.2A6.58,6.58,0,1,0,66.22,35l3.92,3.2a6.59,6.59,0,0,0,9.25-.95,6.47,6.47,0,0,0,1.43-3.48A6.54,6.54,0,0,0,78.45,28Z"/><path class="cls-2" d="M80.05,42.75a11.37,11.37,0,0,0-8.78-6.33l-8.71-1.11a11.41,11.41,0,1,0-2.89,22.63l8.71,1.11a11.45,11.45,0,0,0,12.76-9.87A11.3,11.3,0,0,0,80.05,42.75Z"/><path class="cls-2" d="M50.16,46.7a9.58,9.58,0,0,0-5.74-7l-6.79-2.77a9.54,9.54,0,1,0-7.21,17.66l6.79,2.77a9.57,9.57,0,0,0,12.44-5.22A9.44,9.44,0,0,0,50.16,46.7Z"/><rect class="cls-2" x="41.31" y="48.43" width="18.48" height="25.59" rx="3.67" ry="3.67" transform="translate(129.94 62.59) rotate(130.52)"/><rect class="cls-2" x="61.84" y="44.71" width="24.94" height="34.53" rx="4.95" ry="4.95" transform="translate(78.32 158.66) rotate(-132.21)"/><rect class="cls-2" x="79.6" y="53.79" width="16.91" height="23.41" rx="3.36" ry="3.36" transform="translate(18.35 150.26) rotate(-87.21)"/><path class="cls-2" d="M44.63,57.32a12.46,12.46,0,0,0-10.4-5.65H24.64a12.47,12.47,0,0,0,0,24.94h9.59A12.5,12.5,0,0,0,46.7,64.14,12.3,12.3,0,0,0,44.63,57.32Z"/><path class="cls-2" d="M51.56,38.75,49.19,35l-.2-.33a6.32,6.32,0,0,0-8.69-2A6.22,6.22,0,0,0,38.16,35l0,0,0,.07a6.29,6.29,0,0,0,.2,6.25l2.57,4.11a6.3,6.3,0,1,0,10.69-6.68Z"/><path class="cls-2" d="M14.07,53.8a6.26,6.26,0,0,0-2.76-1.53h-.05l-.08,0a6.28,6.28,0,0,0-6,1.69L1.78,57.4a6.3,6.3,0,1,0,9,8.79L13.92,63l.27-.27A6.33,6.33,0,0,0,14.07,53.8Z"/><rect class="cls-1" x="40.81" y="40.4" width="9.29" height="12.87" rx="1.84" ry="1.84" transform="translate(22.07 107.77) rotate(-114.85)"/><path class="cls-2" d="M45.53,44.81a4.83,4.83,0,0,0-2.47-1.37,5,5,0,0,0-5.87,3.79L36.39,51a5,5,0,0,0,3.8,5.87A5,5,0,0,0,46.06,53l.8-3.72A4.94,4.94,0,0,0,45.53,44.81Z"/><rect class="cls-1" x="67.36" y="53.11" width="12.15" height="16.82" rx="2.41" ry="2.41" transform="translate(37.72 -27.37) rotate(28.16)"/><path class="cls-2" d="M81.75,54.6l-2.09-4.51a6.46,6.46,0,0,0-11.72,5.44L70,60A6.47,6.47,0,0,0,75,63.7a6.4,6.4,0,0,0,3.66-.52A6.48,6.48,0,0,0,81.75,54.6Z"/><rect class="cls-1" x="33.16" y="63.87" width="12.45" height="17.24" rx="2.47" ry="2.47" transform="translate(-38.12 100.78) rotate(-81.53)"/></svg>