<svg id="Layer_1" data-name="Layer 1" xmlns="http://www.w3.org/2000/svg" viewBox="0 0 100 100"><defs><style>.cls-1{fill:#f37d3b;}.cls-2{fill:#ffc63f;}.cls-3{fill:#ebf7fd;}.cls-4{fill:#b25c29;}</style></defs><title>lighthouse</title><path class="cls-1" d="M32.19,11.56V30.27H67V11.56ZM57.34,28.28h-15a7.29,7.29,0,1,1,0-14.57h15a7.29,7.29,0,1,1,0,14.57Z"/><path class="cls-2" d="M57.34,13.71h-15a7.29,7.29,0,1,0,0,14.57h15a7.29,7.29,0,1,0,0-14.57Z"/><path class="cls-3" d="M31.71,34.22V91.15a9,9,0,0,0,8.93,8.92H59.36a9,9,0,0,0,8.93-8.92V34.22Z"/><rect class="cls-4" x="25.15" y="30.27" width="49.69" height="5.35" rx="1.31" ry="1.31"/><rect class="cls-4" x="44.97" y="0.49" width="6.06" height="2.53" rx="0.62" ry="0.62" transform="translate(0.99 11.59) rotate(-13.91)"/><rect class="cls-4" x="41.44" y="2.77" width="6.06" height="2.53" rx="0.62" ry="0.62" transform="translate(0.33 10.81) rotate(-13.91)"/><rect class="cls-4" x="37.91" y="5.06" width="6.06" height="2.53" rx="0.62" ry="0.62" transform="translate(-0.32 10.03) rotate(-13.91)"/><rect class="cls-4" x="34.39" y="7.34" width="6.06" height="2.53" rx="0.62" ry="0.62" transform="translate(-0.97 9.25) rotate(-13.91)"/><rect class="cls-4" x="30.86" y="9.62" width="6.06" height="2.53" rx="0.62" ry="0.62" transform="translate(-1.62 8.47) rotate(-13.91)"/><rect class="cls-4" x="48.39" y="0.49" width="6.06" height="2.53" rx="0.62" ry="0.62" transform="translate(100.91 15.82) rotate(-166.09)"/><rect class="cls-4" x="51.92" y="2.77" width="6.06" height="2.53" rx="0.62" ry="0.62" transform="translate(107.31 21.17) rotate(-166.09)"/><rect class="cls-4" x="55.44" y="5.06" width="6.06" height="2.53" rx="0.62" ry="0.62" transform="translate(113.71 26.51) rotate(-166.09)"/><rect class="cls-4" x="58.97" y="7.34" width="6.06" height="2.53" rx="0.62" ry="0.62" transform="translate(120.11 31.85) rotate(-166.09)"/><rect class="cls-4" x="62.5" y="9.62" width="6.06" height="2.53" rx="0.62" ry="0.62" transform="translate(126.52 37.2) rotate(-166.09)"/><polyline class="cls-4" points="33.23 11.89 67 11.89 49.54 0.85"/><rect class="cls-4" x="30.23" y="11.15" width="38.79" height="1.76" rx="0.43" ry="0.43"/><polygon class="cls-1" points="68.28 46.07 31.71 52.7 31.71 43.4 68.28 36.77 68.28 46.07"/><polygon class="cls-1" points="68.28 64.17 31.71 70.79 31.71 61.49 68.28 54.87 68.28 64.17"/><polygon class="cls-1" points="68.28 82.26 31.71 88.89 31.71 79.58 68.28 72.96 68.28 82.26"/><rect class="cls-4" x="25.15" y="23.9" width="49.69" height="1.59" rx="0.39" ry="0.39"/><rect class="cls-4" x="27.87" y="24.7" width="1.59" height="7.17"/><rect class="cls-4" x="34.69" y="24.7" width="1.59" height="7.17"/><rect class="cls-4" x="41.5" y="24.7" width="1.59" height="7.17"/><rect class="cls-4" x="48.32" y="24.7" width="1.59" height="7.17"/><rect class="cls-4" x="55.14" y="24.7" width="1.59" height="7.17"/><rect class="cls-4" x="61.95" y="24.7" width="1.59" height="7.17"/><rect class="cls-4" x="68.77" y="24.7" width="1.59" height="7.17"/></svg>