<svg id="Layer_1" data-name="Layer 1" xmlns="http://www.w3.org/2000/svg" viewBox="0 0 100 100"><defs><style>.cls-1{fill:#6ab8d9;}.cls-2{fill:#ebf7fd;}.cls-3{fill:#ffc640;}.cls-4{fill:#fbb340;}.cls-5{fill:#f89c3e;}.cls-6{fill:#09a582;}.cls-7{fill:#008065;}.cls-8{fill:#fff;}</style></defs><title>surfer</title><path class="cls-1" d="M20.77,61.51a13.21,13.21,0,0,1,21.85-10S81.49,86.17,76.35,100H22.27C37.55,80.35,20.77,61.51,20.77,61.51Z"/><circle class="cls-2" cx="19.12" cy="54.03" r="6.04"/><circle class="cls-2" cx="25.16" cy="59.76" r="4.12"/><circle class="cls-2" cx="17.43" cy="61.7" r="5.36"/><circle class="cls-2" cx="12.15" cy="57.72" r="4.66"/><circle class="cls-2" cx="22.4" cy="49.05" r="4.34"/><circle class="cls-2" cx="26.63" cy="47.23" r="4.4"/><circle class="cls-2" cx="30.42" cy="47.49" r="4.67"/><circle class="cls-2" cx="35.47" cy="47.49" r="4.14"/><circle class="cls-2" cx="39.61" cy="50.52" r="2.66"/><circle class="cls-2" cx="22.79" cy="67.68" r="2.66"/><circle class="cls-2" cx="42.9" cy="53.18" r="2.05"/><circle class="cls-2" cx="23.82" cy="70.57" r="2.05"/><circle class="cls-2" cx="20.18" cy="67.07" r="2.05"/><path class="cls-3" d="M92.51,56c0,24.24-7.05,43.89-15.75,43.89S61,80.22,61,56,68.06,0,76.76,0,92.51,31.73,92.51,56Z"/><path class="cls-4" d="M92.51,56c0-24.25-7.05-56-15.75-56V99.87C85.46,99.87,92.51,80.22,92.51,56Z"/><path class="cls-5" d="M63.89,90.61H76.76v-13A13.06,13.06,0,0,0,63.89,90.61Z"/><path class="cls-5" d="M69,70.21h7.79v-7.9A7.91,7.91,0,0,0,69,70.21Z"/><path class="cls-6" d="M18.27,10.66H47.74a2,2,0,0,1,2,2v9.11a5.94,5.94,0,0,1-5.94,5.94H18.27a4,4,0,0,1-4-4V14.63a4,4,0,0,1,4-4Z"/><path class="cls-6" d="M30.14,29.25V22.88A8,8,0,0,0,22.22,15c-4.35,0-7.92-2.9-7.92,1.45V29.25a7.79,7.79,0,0,0,.61,3H29.54A8,8,0,0,0,30.14,29.25Z"/><path class="cls-6" d="M49.74,29.25V15.34c0-4.36-3.56-.39-7.92-.39a8,8,0,0,0-7.92,7.93v6.37a7.79,7.79,0,0,0,.61,3H49.14A8,8,0,0,0,49.74,29.25Z"/><circle class="cls-7" cx="28.74" cy="12.67" r="1.01"/><circle class="cls-7" cx="34.91" cy="12.67" r="1.01"/><path class="cls-8" d="M28.74,21.4a.54.54,0,0,1-.54-.54V13a.54.54,0,1,1,1.07,0v7.82A.54.54,0,0,1,28.74,21.4Z"/><path class="cls-8" d="M34.91,21.4a.54.54,0,0,1-.54-.54V13a.54.54,0,1,1,1.08,0v7.82A.54.54,0,0,1,34.91,21.4Z"/><rect class="cls-7" x="27.81" y="19.67" width="1.84" height="3.28" rx="0.43" ry="0.43"/><rect class="cls-7" x="33.99" y="19.67" width="1.84" height="3.28" rx="0.43" ry="0.43"/></svg>