<svg id="Layer_1" data-name="Layer 1" xmlns="http://www.w3.org/2000/svg" viewBox="0 0 100 100"><defs><style>.cls-1{fill:#674541;}.cls-2{fill:#714c48;}.cls-3{fill:#9a7e5f;}.cls-4{fill:#bf9b77;}.cls-5{fill:#3e3e3f;}</style></defs><title>monkey</title><path class="cls-1" d="M35.17,81.85c-5.86,0-11.54-3.51-16.9-10.43-5.49-7.11-8.48-8.11-9.17-7.9-1.09.34-2.2,3.9-2.36,6.59A3.37,3.37,0,1,1,0,69.72C.11,67.94.94,59,7.1,57.08S19.5,62,23.61,67.29s8.31,8.06,12.16,7.79c6.25-.46,10.71-8.28,10.75-8.35A3.37,3.37,0,0,1,52.42,70c-.25.45-6.23,11-16.12,11.8C35.93,81.83,35.55,81.85,35.17,81.85Z"/><ellipse class="cls-2" cx="53.55" cy="56.23" rx="17.6" ry="21.85"/><ellipse class="cls-3" cx="53.69" cy="57.28" rx="6.85" ry="12.02"/><path class="cls-2" d="M94.49,19.74c0,5.14-6.88,12.54-12,12.54s-6.59-4.16-6.59-9.3a9.29,9.29,0,0,1,9.3-9.29C90.33,13.69,94.49,14.61,94.49,19.74Z"/><path class="cls-4" d="M89.73,23.67c0,2.67-4.07,6.51-7.12,6.51S78.7,28,78.7,25.35s2.47-4.83,5.52-4.83S89.73,21,89.73,23.67Z"/><path class="cls-2" d="M12.93,19.74c0,5.14,6.88,12.54,12,12.54s6.59-4.16,6.59-9.3a9.29,9.29,0,0,0-9.3-9.29C17.1,13.69,12.93,14.61,12.93,19.74Z"/><path class="cls-4" d="M17.69,23.67c0,2.67,4.08,6.51,7.12,6.51s3.91-2.16,3.91-4.83-2.47-4.83-5.52-4.83S17.69,21,17.69,23.67Z"/><ellipse class="cls-2" cx="55.13" cy="25.48" rx="30.42" ry="21.64"/><ellipse class="cls-4" cx="55.13" cy="22.24" rx="24.27" ry="11.06"/><ellipse class="cls-4" cx="54.36" cy="30.18" rx="14.97" ry="13.42"/><circle class="cls-5" cx="34.11" cy="21.93" r="1.84"/><circle class="cls-5" cx="76.46" cy="21.93" r="1.84"/><rect class="cls-3" x="40.13" y="27.57" width="28.46" height="2.06" rx="0.46" ry="0.46"/><circle class="cls-3" cx="48.58" cy="25.09" r="1.32"/><circle class="cls-3" cx="61.16" cy="25.09" r="1.32"/><path class="cls-2" d="M37.54,96.17a3.39,3.39,0,0,1-2.4-1c-6.69-6.73-9.32-13.09-7.82-18.9,2.32-9,13.76-12.43,14.24-12.57a3.37,3.37,0,1,1,1.9,6.47c-2.29.68-8.49,3.41-9.61,7.8-1.06,4.17,2.72,9.07,6.08,12.44a3.37,3.37,0,0,1,0,4.77A3.32,3.32,0,0,1,37.54,96.17Z"/><path class="cls-2" d="M76.45,94.67a3.38,3.38,0,0,1-2.82-5.22c1.93-3,2.49-5.68,1.71-8.35-1.63-5.58-8.9-9.89-11.56-11.08a3.38,3.38,0,0,1,2.74-6.17c.51.23,12.42,5.61,15.28,15.32,1.37,4.62.52,9.32-2.52,14A3.38,3.38,0,0,1,76.45,94.67Z"/><path class="cls-2" d="M31.88,56.13c-5.35,0-12.16-.92-16.73-4.86-3.48-3-5.2-7.36-5-12.61a3.32,3.32,0,0,1,3.51-3.23,3.37,3.37,0,0,1,3.23,3.51c-.13,3.2.74,5.56,2.65,7.22,4.87,4.22,15.53,3.35,19.22,2.66A3.37,3.37,0,0,1,40,55.45,48.83,48.83,0,0,1,31.88,56.13Z"/><circle class="cls-4" cx="13.51" cy="38.86" r="2.13"/><path class="cls-2" d="M96.45,66.28l-.41,0A3.37,3.37,0,0,1,93.1,62.5c.5-4.17-.22-7-2.16-8.49-5-3.8-17.7.17-21.74,1.86a3.37,3.37,0,0,1-2.61-6.22c2-.82,19.37-7.85,28.41-1,4,3,5.61,7.95,4.8,14.68A3.39,3.39,0,0,1,96.45,66.28Z"/></svg>