<svg id="Layer_1" data-name="Layer 1" xmlns="http://www.w3.org/2000/svg" viewBox="0 0 100 100"><defs><style>.cls-1{fill:#f69a85;}.cls-2{fill:#f2797a;}.cls-3{fill:#ffc640;}.cls-4{fill:#bcd2de;}.cls-5{fill:#dddfe0;}.cls-6{fill:#ffe5b1;}</style></defs><title>idea</title><path class="cls-1" d="M45.53,45.92a10.66,10.66,0,0,0-7.88.26h0a10.56,10.56,0,0,0-5.74,5.39c-.83,2-.52,3.87.63,5-1.13-1.15-2.95-1.46-5-.63a11.17,11.17,0,0,0-5.65,13.62c.88,2,2.38,3.1,4,3.08-1.61,0-3.11,1-4,3.09a11.17,11.17,0,0,0,5.65,13.62c2.05.83,3.87.52,5-.63-1.15,1.12-1.46,3-.63,5a10.54,10.54,0,0,0,5.74,5.38h0a10.61,10.61,0,0,0,7.88.27c2-.89,3.1-2.38,3.08-4V49.91C48.63,48.3,47.56,46.81,45.53,45.92Zm-3,32.33h.25l-.26,0Zm0-11.21v0h.26Z"/><path class="cls-2" d="M37.89,56.05a4.1,4.1,0,0,0,2.47-.84c.53-.34.75-.46,1.08-.44a1.66,1.66,0,0,1,1.28.83,2.71,2.71,0,0,1-1.24,2.86c-.69.36-1.55.07-2.91-.45s-3.37-1.29-5.14-.15a5.36,5.36,0,0,0-1.64,6.7c.85,1.36,2.47,2,5.06,2,2.75,0,6.61-.78,11.76-2.32V60.91c-12.68,3.92-14,2-14.07,2a2.22,2.22,0,0,1,.64-2.29c.39-.25,1.33.1,2.24.45,1.5.58,3.54,1.36,5.57.29,2.21-1.17,3.85-4.52,2.65-7.08a4.88,4.88,0,0,0-4-2.67,4.66,4.66,0,0,0-3.06.94,5.68,5.68,0,0,1-.5.29,14,14,0,0,1-3.21-4.9l-.28.13a10,10,0,0,0-2.1,2.37C33.78,52.87,35.87,56,37.89,56.05Z"/><path class="cls-2" d="M30.76,79.88a3.1,3.1,0,0,0,.87-.12c1.48-.39,2.11-1.7,2.66-2.86l.37-.75A5.34,5.34,0,0,0,33.42,75l1.78-2.69a9.19,9.19,0,0,1,1.5,1.26,5.48,5.48,0,0,1,.46-.34c1.65-1.12,4.07-1.9,5.12-1.2.28.18.4.46.68,1.2a9,9,0,0,0,2,3.35,9.84,9.84,0,0,0,3.64,2.3V75.34a5.83,5.83,0,0,1-1.33-1A5.68,5.68,0,0,1,46,72.09a5.06,5.06,0,0,0-1.92-2.75c-2.76-1.83-6.77-.1-8.71,1.22a11.32,11.32,0,0,0-4,5,7.74,7.74,0,0,1-.61,1.12c-.49-.11-2.94-1.32-9.07-13.66a10.34,10.34,0,0,0,.18,6.59c.88,2,2.38,3.1,4,3.08a3.73,3.73,0,0,0-2.15.7C27.05,78.58,29.14,79.88,30.76,79.88Z"/><path class="cls-2" d="M34.29,86a8.34,8.34,0,0,0,4.34-4.14,7.64,7.64,0,0,0-.29-5.8,8.37,8.37,0,0,0-1.64-2.46,7.62,7.62,0,0,0-2,2.58,5.08,5.08,0,0,1,.72,1.16,4.48,4.48,0,0,1,.25,3.35,5.6,5.6,0,0,1-2.79,2.43,17.77,17.77,0,0,1-10.31,1.32,11.61,11.61,0,0,0,2.63,3.43h.54A19,19,0,0,0,34.29,86Z"/><path class="cls-2" d="M35.2,72.31,33.42,75a5.34,5.34,0,0,1,1.24,1.15,7.62,7.62,0,0,1,2-2.58A9.19,9.19,0,0,0,35.2,72.31Z"/><path class="cls-2" d="M48.61,83.14a1.65,1.65,0,0,0-.53.49c-.87,1.28-1.59,1.7-1.88,1.71-.11,0-.23-.08-.57-.33a4.43,4.43,0,0,0-2-.93c-2-.29-3.93.94-6,3.79a1.61,1.61,0,0,0,.33,2.25,1.58,1.58,0,0,0,1,.32,1.6,1.6,0,0,0,1.3-.65c1.92-2.59,2.86-2.54,3-2.52a1.64,1.64,0,0,1,.6.35,4.18,4.18,0,0,0,2.33.94,4.06,4.06,0,0,0,2.55-.84V83.14Z"/><path class="cls-1" d="M51.39,49.91V95.38c0,1.61,1,3.1,3.08,4a10.61,10.61,0,0,0,7.88-.27h0a10.54,10.54,0,0,0,5.74-5.38c.83-2,.52-3.88-.63-5,1.13,1.15,3,1.46,5,.63a11.17,11.17,0,0,0,5.65-13.62c-.88-2-2.38-3.1-4-3.09,1.61,0,3.11-1,4-3.08a11.17,11.17,0,0,0-5.65-13.62c-2-.83-3.87-.52-5,.63,1.15-1.13,1.46-3,.63-5a10.56,10.56,0,0,0-5.74-5.39h0a10.66,10.66,0,0,0-7.88-.26C52.44,46.81,51.37,48.3,51.39,49.91Zm6.13,28.37-.26,0h.25ZM57.26,67h.26v0Z"/><path class="cls-2" d="M62.11,56.05a4.1,4.1,0,0,1-2.47-.84c-.53-.34-.75-.46-1.08-.44a1.66,1.66,0,0,0-1.28.83,2.71,2.71,0,0,0,1.24,2.86c.69.36,1.55.07,2.91-.45s3.37-1.29,5.14-.15a5.36,5.36,0,0,1,1.64,6.7c-.85,1.36-2.47,2-5.06,2-2.75,0-6.61-.78-11.76-2.32V60.91c12.68,3.92,14,2,14.07,2a2.22,2.22,0,0,0-.64-2.29c-.39-.25-1.33.1-2.24.45-1.5.58-3.54,1.36-5.57.29-2.21-1.17-3.85-4.52-2.65-7.08a4.88,4.88,0,0,1,4-2.67,4.66,4.66,0,0,1,3.06.94,5.68,5.68,0,0,0,.5.29,14,14,0,0,0,3.21-4.9l.28.13a10,10,0,0,1,2.1,2.37C66.22,52.87,64.13,56,62.11,56.05Z"/><path class="cls-2" d="M69.24,79.88a3.1,3.1,0,0,1-.87-.12c-1.48-.39-2.11-1.7-2.66-2.86l-.37-.75A5.34,5.34,0,0,1,66.58,75L64.8,72.31a9.19,9.19,0,0,0-1.5,1.26,5.48,5.48,0,0,0-.46-.34c-1.65-1.12-4.07-1.9-5.12-1.2-.28.18-.4.46-.68,1.2a9,9,0,0,1-2,3.35,9.84,9.84,0,0,1-3.64,2.3V75.34a5.83,5.83,0,0,0,1.33-1A5.68,5.68,0,0,0,54,72.09a5.06,5.06,0,0,1,1.92-2.75c2.76-1.83,6.77-.1,8.71,1.22a11.32,11.32,0,0,1,4,5,7.74,7.74,0,0,0,.61,1.12c.49-.11,2.94-1.32,9.07-13.66a10.34,10.34,0,0,1-.18,6.59c-.88,2-2.38,3.1-4,3.08a3.73,3.73,0,0,1,2.15.7C73,78.58,70.86,79.88,69.24,79.88Z"/><path class="cls-2" d="M65.71,86a8.34,8.34,0,0,1-4.34-4.14,7.64,7.64,0,0,1,.29-5.8,8.37,8.37,0,0,1,1.64-2.46,7.62,7.62,0,0,1,2,2.58,5.08,5.08,0,0,0-.72,1.16,4.48,4.48,0,0,0-.25,3.35,5.6,5.6,0,0,0,2.79,2.43,17.77,17.77,0,0,0,10.31,1.32,11.61,11.61,0,0,1-2.63,3.43H74.3A19,19,0,0,1,65.71,86Z"/><path class="cls-2" d="M64.8,72.31,66.58,75a5.34,5.34,0,0,0-1.24,1.15,7.62,7.62,0,0,0-2-2.58A9.19,9.19,0,0,1,64.8,72.31Z"/><path class="cls-2" d="M51.39,83.14a1.65,1.65,0,0,1,.53.49c.87,1.28,1.59,1.7,1.88,1.71.11,0,.23-.08.57-.33a4.43,4.43,0,0,1,2-.93c2-.29,3.93.94,6,3.79a1.61,1.61,0,0,1-.33,2.25,1.58,1.58,0,0,1-1,.32,1.6,1.6,0,0,1-1.3-.65c-1.92-2.59-2.86-2.54-3-2.52a1.64,1.64,0,0,0-.6.35,4.18,4.18,0,0,1-2.33.94,4.06,4.06,0,0,1-2.55-.84V83.14Z"/><ellipse class="cls-3" cx="50" cy="39.44" rx="4.57" ry="2.75"/><path class="cls-4" d="M63.85,13.85c0,7.65-6.2,17.86-13.85,17.86S36.15,21.5,36.15,13.85a13.85,13.85,0,0,1,27.7,0Z"/><ellipse class="cls-5" cx="42.7" cy="7.32" rx="4.27" ry="2.2" transform="translate(13.14 38.99) rotate(-56.7)"/><ellipse class="cls-5" cx="47.28" cy="10.78" rx="2.39" ry="1.95" transform="matrix(0.55, -0.84, 0.84, 0.55, 12.31, 44.38)"/><rect class="cls-3" x="42.7" y="29.88" width="14.38" height="3.18" rx="0.77" ry="0.77"/><rect class="cls-3" x="42.7" y="33.07" width="14.38" height="3.18" rx="0.77" ry="0.77"/><rect class="cls-3" x="42.7" y="36.25" width="14.38" height="3.18" rx="0.77" ry="0.77"/><path class="cls-6" d="M54.57,19.16c0,4.05-2,9.75-4.57,9.75s-4.57-5.7-4.57-9.75,2-4.84,4.57-4.84S54.57,15.1,54.57,19.16Z"/><circle class="cls-1" cx="40.55" cy="46.55" r="2.82"/><circle class="cls-1" cx="46.36" cy="45.76" r="2.51"/><circle class="cls-1" cx="54.09" cy="47.4" r="2.11"/><circle class="cls-1" cx="58.45" cy="46.02" r="1.87"/><circle class="cls-1" cx="59.59" cy="40.83" r="0.62"/><circle class="cls-1" cx="62.93" cy="38.23" r="1.55"/><circle class="cls-1" cx="60.02" cy="32.44" r="0.43"/><circle class="cls-1" cx="41.11" cy="40.7" r="0.92"/><circle class="cls-1" cx="32.14" cy="38.21" r="1.74"/><circle class="cls-1" cx="34.12" cy="34.21" r="0.71"/><circle class="cls-1" cx="29.14" cy="24.83" r="2.54"/></svg>