<svg id="Layer_1" data-name="Layer 1" xmlns="http://www.w3.org/2000/svg" viewBox="0 0 100 100"><defs><style>.cls-1{fill:#3e3e3f;}.cls-2{fill:#ffc63f;}.cls-3{fill:#fff;}.cls-4{fill:#ffc640;}</style></defs><title>galaxy</title><path class="cls-1" d="M85.71,0H14.29A14.33,14.33,0,0,0,0,14.29V85.71A14.33,14.33,0,0,0,14.29,100H85.71A14.33,14.33,0,0,0,100,85.71V14.29A14.33,14.33,0,0,0,85.71,0Z"/><path class="cls-2" d="M50.88,47.21a2.42,2.42,0,0,0,.6-1.78,2.27,2.27,0,0,0-.79-1.52.94.94,0,0,0-1.18.08c-.23.21,0,0,.07,0a.72.72,0,0,0,.18-.36c0-.3.08-.51-.7-1.1a2.81,2.81,0,0,0-2.31-.41,2.89,2.89,0,0,0-1.14.56A5.75,5.75,0,0,0,44.46,44a5.82,5.82,0,0,0-.74,3.57A5.65,5.65,0,0,0,45.49,51a8.78,8.78,0,0,0,8.77,2.13,9.09,9.09,0,0,0,4.16-2.66,12.69,12.69,0,0,0,2.83-4.67,13.39,13.39,0,0,0-1.16-10.9c-.23-.42-.53-.79-.79-1.2l-.92-1.12a21,21,0,0,0-2.28-2,18.16,18.16,0,0,0-17.8-2.41,17.45,17.45,0,0,0-5.44,3.33,23.19,23.19,0,0,0-4.3,5.05,24.87,24.87,0,0,0-.49,25.92c4.78,7.93,13.74,13.5,23.28,14.64a33.75,33.75,0,0,0,26.93-8.9,34.5,34.5,0,0,1-53.15-3.9,29.79,29.79,0,0,1-3.45-7.11,31.06,31.06,0,0,1-1.36-7.84,29.33,29.33,0,0,1,3.76-15.49A28.82,28.82,0,0,1,29,27.32a23.44,23.44,0,0,1,6.88-4.79A25,25,0,0,1,52.52,21a25.44,25.44,0,0,1,7.85,3.52,28.58,28.58,0,0,1,3.4,2.7c.52.55,1,1.08,1.55,1.65s.94,1.18,1.36,1.82a21.51,21.51,0,0,1-1.36,25.78,18.47,18.47,0,0,1-7.88,5.69,18.75,18.75,0,0,1-18.92-3.38A16.38,16.38,0,0,1,33,49.55a16.85,16.85,0,0,1,1.41-10.82A17.28,17.28,0,0,1,37.8,34.2,14.56,14.56,0,0,1,43,31a14.79,14.79,0,0,1,12,.9,14.54,14.54,0,0,1,4.87,4.19,13.38,13.38,0,0,1,1.34,13.31A13,13,0,0,1,56.56,55a12.32,12.32,0,0,1-14.93-1.08A11.39,11.39,0,0,1,41,37.37Z"/><path class="cls-2" d="M51.24,45.08a1.62,1.62,0,0,0,0-2.37,2.84,2.84,0,0,0-3.42-.36A4.28,4.28,0,0,0,46,46.16,4.8,4.8,0,0,0,48.54,50a6.25,6.25,0,0,0,5.09.55,6.39,6.39,0,0,0,2.29-1.31A9,9,0,0,0,57.7,47a8.76,8.76,0,0,0-1.89-10.72,11.67,11.67,0,0,0-11.68-2.48c-4,1.28-7.13,5-8.46,9.2A15.75,15.75,0,0,0,37.33,55.8,17.15,17.15,0,0,0,42,60.68,20.1,20.1,0,0,0,61.7,63,22.26,22.26,0,0,0,72,53.75a26.11,26.11,0,0,0,0-27.21A32.72,32.72,0,0,0,48,11.93a34,34,0,0,0-27,9.4A34.36,34.36,0,0,1,48.07,11.19,33.85,33.85,0,0,1,73.34,25.75a29.1,29.1,0,0,1,3.21,6.9,30.51,30.51,0,0,1,1.2,7.54A28.21,28.21,0,0,1,74,54.9,27.29,27.29,0,0,1,69.21,61a21.91,21.91,0,0,1-6.47,4.37,23,23,0,0,1-22.59-2.09,20.23,20.23,0,0,1-5.64-5.65A19.07,19.07,0,0,1,36,34.74a15.94,15.94,0,0,1,22.84-1.8,13.37,13.37,0,0,1,4.41,7.55A13.68,13.68,0,0,1,62,49.24a13.82,13.82,0,0,1-2.72,3.62A11.36,11.36,0,0,1,46,54.55a11.09,11.09,0,0,1-3.66-3.19,9.77,9.77,0,0,1,2.42-13.72,8.55,8.55,0,0,1,10.32.79,7.48,7.48,0,0,1,.38,10.87Z"/><circle class="cls-3" cx="49.71" cy="45.58" r="6.89"/><circle class="cls-3" cx="93.56" cy="65.25" r="1.38"/><circle class="cls-4" cx="96.27" cy="72.03" r="0.47"/><circle class="cls-3" cx="87.09" cy="69.49" r="0.91"/><circle class="cls-4" cx="91.12" cy="77.06" r="0.84"/><circle class="cls-4" cx="86.1" cy="81.61" r="0.4"/><circle class="cls-4" cx="80.63" cy="81.69" r="0.17"/><circle class="cls-4" cx="78.38" cy="88.05" r="0.28"/><circle class="cls-4" cx="54.4" cy="85.36" r="0.06"/><circle class="cls-4" cx="48.9" cy="92.3" r="1.03"/><circle class="cls-4" cx="45.31" cy="85.23" r="0.37"/><circle class="cls-4" cx="39.05" cy="88.83" r="0.23"/><circle class="cls-3" cx="32.99" cy="84.32" r="0.96"/><circle class="cls-4" cx="24.8" cy="82.59" r="0.84"/><circle class="cls-4" cx="17.9" cy="80.46" r="0.65"/><circle class="cls-4" cx="19.2" cy="71.25" r="1.34"/><circle class="cls-4" cx="10.8" cy="71.49" r="0.85"/><circle class="cls-4" cx="10.53" cy="63.06" r="0.97"/><circle class="cls-4" cx="8.01" cy="54.21" r="1.18"/><circle class="cls-4" cx="17.86" cy="47.38" r="1.18"/><circle class="cls-3" cx="5.86" cy="46.45" r="0.25"/><circle class="cls-3" cx="9.56" cy="40.78" r="0.26"/><circle class="cls-4" cx="9.48" cy="35.32" r="0.36"/><circle class="cls-4" cx="13.51" cy="31.94" r="0.17"/><circle class="cls-4" cx="17.36" cy="25.02" r="1.45"/><circle class="cls-3" cx="22.29" cy="17.89" r="0.97"/><circle class="cls-4" cx="27.75" cy="12.27" r="0.28"/><circle class="cls-3" cx="38.51" cy="10.93" r="2.21"/><circle class="cls-4" cx="48.64" cy="11.37" r="0.42"/><circle class="cls-4" cx="55.1" cy="10.34" r="0.4"/><circle class="cls-3" cx="57.21" cy="17.96" r="0.8"/><circle class="cls-4" cx="65.64" cy="17.24" r="1.92"/><circle class="cls-4" cx="65.19" cy="26.15" r="0.31"/><circle class="cls-3" cx="75.47" cy="21.65" r="0.41"/><circle class="cls-4" cx="74.61" cy="28.33" r="0.88"/><circle class="cls-4" cx="81.55" cy="30.98" r="0.34"/><circle class="cls-4" cx="78.82" cy="37.85" r="0.94"/><circle class="cls-4" cx="79.13" cy="45.03" r="0.49"/><circle class="cls-4" cx="71.12" cy="45.93" r="0.13"/><circle class="cls-4" cx="75.11" cy="52.25" r="0.63"/><circle class="cls-4" cx="65.82" cy="56.94" r="2.99"/><circle class="cls-4" cx="56.84" cy="63.64" r="0.18"/><circle class="cls-4" cx="49.05" cy="63.53" r="0.14"/><circle class="cls-4" cx="44.22" cy="67.03" r="0.15"/><circle class="cls-4" cx="37.22" cy="63.03" r="1.58"/><circle class="cls-3" cx="29.68" cy="58.26" r="0.66"/><circle class="cls-3" cx="37.22" cy="77.4" r="0.66"/><circle class="cls-4" cx="25.18" cy="54.98" r="0.48"/><circle class="cls-3" cx="28" cy="47.04" r="0.84"/><circle class="cls-4" cx="26.05" cy="40.55" r="0.13"/><circle class="cls-4" cx="31.13" cy="38.31" r="0.09"/><circle class="cls-4" cx="31.33" cy="32.11" r="0.21"/><circle class="cls-4" cx="37.64" cy="27" r="1.21"/><circle class="cls-4" cx="45.61" cy="29.16" r="0.74"/><circle class="cls-4" cx="50.84" cy="26.14" r="0.03"/><circle class="cls-4" cx="53.93" cy="30.23" r="0.17"/></svg>