<svg id="Layer_1" data-name="Layer 1" xmlns="http://www.w3.org/2000/svg" viewBox="0 0 100 100"><defs><style>.cls-1{fill:#7d7d7d;}.cls-2{fill:#09a582;}.cls-3{fill:#ffc640;}</style></defs><title>lamp</title><polygon class="cls-1" points="36.43 86.26 2.45 19.6 54.25 6.61 56.05 13.79 13.27 24.52 43.03 82.89 36.43 86.26"/><path class="cls-2" d="M41.39,80.74c-14.54,0-26.32,6.9-26.32,15.41H67.71C67.71,87.64,55.93,80.74,41.39,80.74Z"/><path class="cls-2" d="M67.71,98.18H15.07a2,2,0,0,1-2-2c0-9.78,12.45-17.44,28.34-17.44s28.35,7.66,28.35,17.44A2,2,0,0,1,67.71,98.18ZM17.39,94.13h48c-1.84-6.34-12.08-11.37-24-11.37S19.22,87.79,17.39,94.13Z"/><polygon class="cls-2" points="63.23 50.65 93.01 20.87 59.55 17.19 63.23 50.65"/><path class="cls-2" d="M98,25.81,68.17,55.59a7,7,0,0,1-11.89-4.18L52.6,18a7,7,0,0,1,2-5.7h0a7,7,0,0,1,5.71-2l33.45,3.68A7,7,0,0,1,98,25.81ZM68.59,35.4l9.17-9.17L67.45,25.09Z"/><rect class="cls-2" x="48.88" y="2.33" width="12.54" height="19.74" rx="2.54" ry="2.54" transform="translate(24.78 -35.43) rotate(45)"/><rect class="cls-2" x="2.77" y="14.2" width="12.54" height="19.74" rx="2.54" ry="2.54" transform="translate(-9.37 6.13) rotate(-25.15)"/><ellipse class="cls-3" cx="81.52" cy="37.74" rx="19.28" ry="7.56" transform="translate(-2.81 68.7) rotate(-45)"/></svg>