<svg id="Layer_1" data-name="Layer 1" xmlns="http://www.w3.org/2000/svg" viewBox="0 0 100 100"><defs><style>.cls-1{fill:#895e59;}.cls-2{fill:#bcd2de;}.cls-3{fill:#dddfe0;}</style></defs><title>mirror</title><path class="cls-1" d="M80.76,50c2.91,0,5.37-2.81,5-6.36h0c-.27-3.54-3.26-6-6.11-5.39,2.93-.48,4.78-3.76,3.81-7.27h0c-1-3.51-4.41-5.37-7.1-4.21,2.76-1.05,3.9-4.75,2-8.11a8.17,8.17,0,0,0-1.72-2.1,6.71,6.71,0,0,0-2.2-1.17,4.44,4.44,0,0,0-4.16.69A4.44,4.44,0,0,0,72,12.17a7.14,7.14,0,0,0-2.54-4.81h0a8.45,8.45,0,0,0-2.65-1.55,6.15,6.15,0,0,0-2.71-.43A4.22,4.22,0,0,0,60.38,7.6a4,4,0,0,0-.45-4.33,6.62,6.62,0,0,0-2.11-2A11.27,11.27,0,0,0,54.59.09,8.38,8.38,0,0,0,48.4,1.4a4,4,0,0,0-1.84,4,4.06,4.06,0,0,0-3-3.17,6.16,6.16,0,0,0-2.89-.29,9.27,9.27,0,0,0-3.19.92,10.51,10.51,0,0,0-2.56,2,6.79,6.79,0,0,0-1.34,2.38,4.19,4.19,0,0,0,.77,4.22A4.41,4.41,0,0,0,30.29,10a7.39,7.39,0,0,0-4.59,2.77,7.07,7.07,0,0,0-1.5,5,4.64,4.64,0,0,0,2.31,3.55c-2.56-1.52-6.19,0-7.6,3.47s.2,7,3,7.7c-2.84-.86-5.95,1.31-6.6,4.85s1.57,6.6,4.49,6.81a4.89,4.89,0,0,0-3.93,1.5,6.49,6.49,0,0,0,0,8.78,4.89,4.89,0,0,0,3.93,1.5c-2.92.21-5.15,3.28-4.49,6.81s3.76,5.71,6.6,4.85c-2.8.75-4.43,4.25-3,7.7s5,5,7.6,3.47a4.64,4.64,0,0,0-2.31,3.55,7.07,7.07,0,0,0,1.5,5A7.39,7.39,0,0,0,30.29,90a4.41,4.41,0,0,0,4.05-1.38,4.19,4.19,0,0,0-.77,4.22,6.79,6.79,0,0,0,1.34,2.38,10.51,10.51,0,0,0,2.56,2,9.27,9.27,0,0,0,3.19.92,6.16,6.16,0,0,0,2.89-.29,4.06,4.06,0,0,0,3-3.17,4,4,0,0,0,1.84,4,8.38,8.38,0,0,0,6.19,1.31,11.27,11.27,0,0,0,3.23-1.2,6.62,6.62,0,0,0,2.11-2,4,4,0,0,0,.45-4.33,4.22,4.22,0,0,0,3.72,2.22,6.15,6.15,0,0,0,2.71-.43,8.45,8.45,0,0,0,2.65-1.55A7.14,7.14,0,0,0,72,87.83a4.44,4.44,0,0,0-1.64-3.91,4.44,4.44,0,0,0,4.16.69,6.71,6.71,0,0,0,2.2-1.17,8.17,8.17,0,0,0,1.72-2.1c1.87-3.36.73-7.06-2-8.11,2.69,1.16,6.11-.7,7.1-4.21s-.88-6.79-3.81-7.27c2.85.57,5.84-1.85,6.11-5.39S83.67,50,80.76,50ZM63,63.17c-.62,2.24.85,4.87,3.57,6-2.73-1-5.68-.19-6.72,1.66a3.07,3.07,0,0,0-.41,1.55,4.49,4.49,0,0,0,.24,1.66A7,7,0,0,0,62,77.38c-2.39-1.79-5.3-1.89-6.53-.83a2.12,2.12,0,0,0-.67,1,6,6,0,0,0-.16,1.49,9.5,9.5,0,0,0,1,3.82,11.29,11.29,0,0,0-2.47-3,7.5,7.5,0,0,0-1.12-.8,1,1,0,0,0-.88-.21c-.52,0-.93.74-1.45,1.59a12.79,12.79,0,0,0-1.33,3.69,11.91,11.91,0,0,0-.1-3.92,6.72,6.72,0,0,0-.39-1.33,1.36,1.36,0,0,0-.67-.74,1.4,1.4,0,0,0-1.1-.14,5.25,5.25,0,0,0-1.46.34,9,9,0,0,0-3.26,2.25A7.81,7.81,0,0,0,43.06,77a3.47,3.47,0,0,0-.53-2.93,3.87,3.87,0,0,0-2.84-1.37,6.64,6.64,0,0,0-3.91.79c2.52-1.48,3.74-4.23,2.9-6.3h0c-.88-2.07-3.65-3.34-6.53-2.57,2.79-.84,4.6-3.39,4.16-5.73s-3-4.16-5.91-3.94A6,6,0,0,0,34,53.28a4.39,4.39,0,0,0,0-6.56A6,6,0,0,0,30.4,45c3,.22,5.47-1.6,5.91-3.94s-1.37-4.89-4.16-5.73c2.88.77,5.65-.5,6.53-2.57s-.38-4.82-2.9-6.3a6.64,6.64,0,0,0,3.91.79,3.87,3.87,0,0,0,2.84-1.37A3.47,3.47,0,0,0,43.06,23a7.81,7.81,0,0,0-1.73-3.58,9,9,0,0,0,3.26,2.25,5.25,5.25,0,0,0,1.46.34,1.4,1.4,0,0,0,1.1-.14,1.36,1.36,0,0,0,.67-.74,6.72,6.72,0,0,0,.39-1.33,11.91,11.91,0,0,0,.1-3.92,12.79,12.79,0,0,0,1.33,3.69c.52.85.93,1.61,1.45,1.59a1,1,0,0,0,.88-.21,7.5,7.5,0,0,0,1.12-.8,11.29,11.29,0,0,0,2.47-3.05,9.5,9.5,0,0,0-1,3.82,6,6,0,0,0,.16,1.49,2.12,2.12,0,0,0,.67,1.05c1.23,1.06,4.14,1,6.53-.83a7,7,0,0,0-2.3,3.29,4.49,4.49,0,0,0-.24,1.66,3.07,3.07,0,0,0,.41,1.55c1,1.85,4,2.71,6.72,1.66-2.72,1.18-4.19,3.81-3.57,6s3.37,3.78,6.25,3.32c-2.92.58-4.85,2.94-4.69,5.36h0c.23,2.41,2.6,4.45,5.58,4.49-3,0-5.35,2.08-5.58,4.49s1.77,4.78,4.69,5.36C66.35,59.39,63.6,60.92,63,63.17Z"/><path class="cls-2" d="M68.24,30.23a38.57,38.57,0,0,0-1.68-3.54,27,27,0,0,0-7-8.53A16,16,0,0,0,52.73,15a13.53,13.53,0,0,0-2.39-.22c-9.3,0-17.2,9.53-20.28,22.9a55.17,55.17,0,0,0-1.37,11.4c0,.32,0,.63,0,1a54.89,54.89,0,0,0,1.55,13c.34,1.39.75,2.73,1.19,4C35.1,77.9,42.18,85.25,50.34,85.25,62.31,85.25,72,69.47,72,50A51.56,51.56,0,0,0,68.24,30.23Z"/><path class="cls-3" d="M52.73,15,30.06,37.65a55.17,55.17,0,0,0-1.37,11.4L59.58,18.16A16,16,0,0,0,52.73,15Z"/><path class="cls-3" d="M66.56,26.69,30.21,63c.34,1.39.75,2.73,1.19,4L68.24,30.23A38.57,38.57,0,0,0,66.56,26.69Z"/></svg>