<svg id="Layer_1" data-name="Layer 1" xmlns="http://www.w3.org/2000/svg" viewBox="0 0 100 100"><defs><style>.cls-1{fill:#80726f;}.cls-2{fill:#90807d;}.cls-3{fill:#685c5a;}</style></defs><title>meteoroid</title><ellipse class="cls-1" cx="74.13" cy="86.65" rx="13.87" ry="7.35" transform="matrix(0.85, -0.52, 0.52, 0.85, -34.38, 51.59)"/><circle class="cls-2" cx="51.42" cy="47.88" r="47.88"/><circle class="cls-2" cx="44.24" cy="59.3" r="40.7"/><circle class="cls-2" cx="41.4" cy="41.71" r="40.7"/><ellipse class="cls-1" cx="83.14" cy="22.14" rx="9.32" ry="17.6" transform="translate(1.73 49.98) rotate(-33.79)"/><ellipse class="cls-1" cx="21.24" cy="26.37" rx="16.07" ry="8.07" transform="translate(-10.18 38.97) rotate(-73)"/><polyline class="cls-1" points="9.8 28.66 12.6 36.26 24.01 26.92 22.87 11.17 15.95 13.48"/><ellipse class="cls-3" cx="15.44" cy="22.59" rx="9.58" ry="5.76" transform="translate(-10.68 30.75) rotate(-73)"/><polyline class="cls-1" points="77.01 6.63 82.79 7.74 96.37 27.58 95.29 33.21"/><ellipse class="cls-3" cx="86.61" cy="19.82" rx="7.35" ry="13.87" transform="translate(3.61 51.52) rotate(-33.79)"/><path class="cls-3" d="M62.53,72.27a18.28,18.28,0,0,0-1.69-2.12v1.46c-1.56,3.12-4.64,4-8.12,4.74.31.59.66,1.19,1.05,1.78,3.06,4.57,7.49,7,9.91,5.34S65.58,76.84,62.53,72.27Z"/><ellipse class="cls-1" cx="25.35" cy="84.8" rx="4.11" ry="9.99" transform="translate(-54.81 47.27) rotate(-48.26)"/><polyline class="cls-1" points="21.36 79.11 31.86 65.62 23.66 82.41"/><circle class="cls-3" cx="76.74" cy="53.43" r="1.8"/><circle class="cls-3" cx="84.17" cy="59.3" r="2.08"/><circle class="cls-3" cx="91.35" cy="46.97" r="2.4"/><path class="cls-1" d="M53.51,7.26c-14,6.13-13.19,11.86-13.19,11.86s-4.67,15.57,10.52,4.52,10-15.31,10-15.31Z"/></svg>