<svg id="Layer_1" data-name="Layer 1" xmlns="http://www.w3.org/2000/svg" viewBox="0 0 100 100"><defs><style>.cls-1{fill:#ffc640;}.cls-2{fill:#80726f;}.cls-3{fill:#90807d;}.cls-4{fill:#685c5a;}</style></defs><title>meteor</title><path class="cls-1" d="M11.29,57.12,99.34,0,43.76,89A23.32,23.32,0,0,1,4.2,64.33,23.69,23.69,0,0,1,11.29,57.12Z"/><ellipse class="cls-2" cx="27.05" cy="91.25" rx="5.33" ry="2.83" transform="translate(-1.85 0.57) rotate(-1.17)"/><circle class="cls-3" cx="27.05" cy="73.98" r="18.41"/><circle class="cls-3" cx="22.45" cy="76.37" r="15.65"/><circle class="cls-3" cx="24.93" cy="69.98" r="15.65"/><ellipse class="cls-2" cx="42.58" cy="71.61" rx="3.59" ry="6.77" transform="translate(-4.19 2.66) rotate(-3.41)"/><ellipse class="cls-2" cx="21.23" cy="60.97" rx="6.18" ry="3.1" transform="translate(-35.68 30.48) rotate(-42.62)"/><polyline class="cls-2" points="16.98 59.51 16.44 62.57 22.04 61.7 24.72 56.25 21.98 55.67"/><ellipse class="cls-4" cx="20.03" cy="58.59" rx="3.68" ry="2.21" transform="translate(-34.38 29.04) rotate(-42.62)"/><polyline class="cls-2" points="43.56 65.27 45.26 66.76 45.91 75.98 44.46 77.64"/><ellipse class="cls-4" cx="44.18" cy="71.51" rx="2.83" ry="5.33" transform="matrix(1, -0.06, 0.06, 1, -4.18, 2.76)"/><path class="cls-4" d="M26,84.23a6.69,6.69,0,0,0-.14-1l-.29.49c-1.12.73-2.3.41-3.61,0a7.12,7.12,0,0,0,0,.8c.13,2.11,1.13,3.76,2.25,3.69S26.12,86.34,26,84.23Z"/><ellipse class="cls-2" cx="11.23" cy="81.16" rx="1.58" ry="3.84" transform="translate(-24.38 7.37) rotate(-17.89)"/><polyline class="cls-2" points="11.01 78.49 17.11 76.06 11.13 80.03"/><circle class="cls-4" cx="34.37" cy="80.74" r="0.69"/><circle class="cls-4" cx="35.7" cy="84.13" r="0.8"/><circle class="cls-4" cx="40.47" cy="81.44" r="0.92"/><path class="cls-2" d="M35.64,60.91C29.81,60.22,29,62.28,29,62.28s-4.57,4.26,2.62,3.54,6.29-3.13,6.29-3.13Z"/><path class="cls-1" d="M26.76,78.17a1.33,1.33,0,0,0,1.88,0,9.12,9.12,0,0,0,1-2.85,9,9,0,0,0-2.85,1A1.34,1.34,0,0,0,26.76,78.17Z"/><path class="cls-1" d="M17.87,66.26a1,1,0,0,0,1.36,0,6.66,6.66,0,0,0,.69-2.05,6.66,6.66,0,0,0-2.05.69A1,1,0,0,0,17.87,66.26Z"/><path class="cls-1" d="M21.39,86.56a.75.75,0,0,0,1,0A5.05,5.05,0,0,0,23,84.92s-.48.1-.93.24C23.48,81.7,25,76.4,25,76.4s-1,1.25-3.95.11a16,16,0,0,1,5.56-9.4,108.92,108.92,0,0,0-13.48.64C12.91,63.84,15,62.82,15,62.82a14.85,14.85,0,0,0-6.12,4.6c.37-1.22.61-2.5.61-2.5S5.8,65.62,5,66.44a2.1,2.1,0,0,0,0,3,12.61,12.61,0,0,0-3.89,1.94L19.66,89.92A6.66,6.66,0,0,0,21.39,86.56Z"/><path class="cls-1" d="M18.09,85.29C10.46,79.4,6.3,71,6.29,63l-.61-.47a22.55,22.55,0,0,0,34.5,29A29.6,29.6,0,0,1,18.09,85.29Z"/><polygon class="cls-3" points="32.65 49.36 31.61 50.99 33.06 52.03 33.55 53.29 37.14 53.56 37.14 49.63 34.77 48.23 32.52 45.43 32.65 49.36"/><polygon class="cls-4" points="46.2 50.36 45.61 52.66 46.38 54.02 49 54.47 48.77 53.34 51.17 51.71 46.2 50.36"/><polygon class="cls-3" points="61.42 66.66 57.27 68.56 57.72 69.12 58.71 71.22 62.32 70.72 63.68 72.31 61.42 66.66"/></svg>