<svg id="Layer_1" data-name="Layer 1" xmlns="http://www.w3.org/2000/svg" viewBox="0 0 100 100"><defs><style>.cls-1{fill:#bcd2de;}.cls-2{fill:#dddfe0;}.cls-3{fill:#a9ccdd;}.cls-4{fill:#b9d1de;}.cls-5{fill:#93c4db;}</style></defs><title>diamond</title><polygon class="cls-1" points="0 36.89 99.99 36.89 49.99 86.95 0 36.89"/><polygon class="cls-2" points="49.99 17.18 16.75 17.18 0 36.89 50.12 36.89 50.12 17.18 49.99 17.18"/><polygon class="cls-1" points="83.23 17.18 50.12 17.18 50.12 36.89 99.99 36.89 83.23 17.18"/><polygon class="cls-3" points="83.25 17.18 83.25 17.18 83.25 17.18 66.49 36.89 100 36.89 83.25 17.18"/><polygon class="cls-4" points="16.75 17.18 16.75 17.18 16.75 17.18 0 36.89 33.51 36.89 16.75 17.18"/><polygon class="cls-5" points="49.99 17.18 49.99 17.18 49.99 17.18 33.24 36.89 66.75 36.89 49.99 17.18"/><polygon class="cls-5" points="33.51 36.89 49.99 86.95 0 36.89 33.51 36.89"/><polygon class="cls-5" points="66.48 36.89 49.99 86.95 99.99 36.89 66.48 36.89"/><ellipse class="cls-5" cx="50" cy="17.18" rx="33.25" ry="4.13"/></svg>