<svg id="Layer_1" data-name="Layer 1" xmlns="http://www.w3.org/2000/svg" viewBox="0 0 100 100"><defs><style>.cls-1{fill:#3e3e3f;}.cls-2{fill:#714c48;}.cls-3{fill:#fff;}.cls-4{fill:#bf9b77;}</style></defs><title>platypus</title><path class="cls-1" d="M39,76.76S32.47,92.59,12,86.88s-7.28-12-7.28-12,5.12-4.56,15.39-2.63S24.44,82.55,40,75.06"/><path class="cls-1" d="M24.9,98c2.28-.35,3.74-.8,3.72-1.24s-1.51-.77-3.8-1c2.27-.35,3.74-.8,3.72-1.24s-1.51-.78-3.8-1c2.27-.35,3.74-.79,3.72-1.23s-1.51-.78-3.81-1a15.35,15.35,0,0,0,3-.68l4-.15c16.8-.64,14.76.74,14.82,2.33l.13,3.44c.06,1.59,2.2,2.81-14.6,3.44L26,100c1.7-.32,2.76-.7,2.75-1.08S27.2,98.15,24.9,98Z"/><rect class="cls-2" x="33.85" y="76.51" width="13.7" height="19.91" rx="3.19" ry="3.19" transform="translate(75.03 175.65) rotate(-175.85)"/><path class="cls-1" d="M81.66,98c-2.27-.35-3.74-.8-3.72-1.24s1.51-.77,3.8-1C79.47,95.43,78,95,78,94.54s1.51-.78,3.81-1c-2.28-.35-3.74-.79-3.73-1.23s1.51-.78,3.81-1a15.35,15.35,0,0,1-3-.68l-4-.15c-16.8-.64-14.76.74-14.82,2.33l-.13,3.44c-.06,1.59-2.2,2.81,14.6,3.44l6.08.23c-1.71-.32-2.77-.7-2.76-1.08S79.37,98.15,81.66,98Z"/><rect class="cls-2" x="60.04" y="76.51" width="13.7" height="19.91" rx="3.19" ry="3.19" transform="translate(127.33 177.55) rotate(-175.85)"/><path class="cls-1" d="M80.07,66.62c0-2,.35-3.39,1.13-3.59S83,63.85,84,65.59c0-2,.34-3.38,1.12-3.59s1.8.82,2.76,2.57c0-2,.35-3.39,1.13-3.6s1.79.83,2.75,2.57a7.47,7.47,0,0,1,.36-2.73l-.87-3.3c-3.64-13.75-5.49-11.44-8.3-10.69l-6.09,1.61c-2.81.74-5.56-.36-1.93,13.39l1.31,5c.09-1.53.45-2.56,1.12-2.74S79.11,64.88,80.07,66.62Z"/><rect class="cls-2" x="71.89" y="38.91" width="11.59" height="16.84" rx="2.7" ry="2.7" transform="translate(-10.72 68.79) rotate(-45)"/><path class="cls-2" d="M80.29,67.6a25.92,25.92,0,0,1-51.84,0C28.45,53.29,25.37,0,54.37,0,82.71,0,80.29,53.29,80.29,67.6Z"/><circle class="cls-1" cx="42.87" cy="12.7" r="2.54"/><rect class="cls-3" x="40.95" y="16" width="4.19" height="1.21" rx="0.28" ry="0.28"/><path class="cls-1" d="M29.19,68.82c.09-2-.23-3.39-1-3.63s-1.82.76-2.85,2.47c.1-2-.23-3.39-1-3.63s-1.82.76-2.84,2.47c.09-2-.23-3.39-1-3.63s-1.82.76-2.85,2.47a7.25,7.25,0,0,0-.26-2.74l1-3.27C22.48,45.72,24.25,48.1,27,48.94l6,1.81c2.78.84,5.57-.16,1.46,13.46l-1.48,4.92c0-1.53-.36-2.58-1-2.78S30.21,67.11,29.19,68.82Z"/><rect class="cls-2" x="26.14" y="41.05" width="11.59" height="16.84" rx="2.7" ry="2.7" transform="translate(19.53 107.02) rotate(-135)"/><ellipse class="cls-4" cx="62.09" cy="56.01" rx="14.33" ry="29.06"/><ellipse class="cls-1" cx="59.81" cy="21.23" rx="15.14" ry="14.83"/><path class="cls-1" d="M90.26,31.13,60,29.35c-1.56-.38-1.22-7.39-.79-9.14h0a3.12,3.12,0,0,1,3.61-2.48l29,7a3.14,3.14,0,0,1,2.07,3.88h0A3.14,3.14,0,0,1,90.26,31.13Z"/><path class="cls-1" d="M85.11,26a42.76,42.76,0,0,1-16.6-8.5,2.37,2.37,0,0,1-.24-3.13A1.92,1.92,0,0,1,71.13,14c.11.09,11.1,9.58,23.87,8.38a2,2,0,0,1,2.09,2,2.31,2.31,0,0,1-2,2.42A30.49,30.49,0,0,1,85.11,26Z"/><path class="cls-1" d="M65.44,33.79a2.26,2.26,0,0,1,1-4.38c3.26.65,19-1.36,28.83-2.88a2,2,0,0,1,2.19,1.9A2.32,2.32,0,0,1,95.61,31c-2.56.4-25.17,3.85-30.1,2.85Z"/><path class="cls-1" d="M80.93,19.89s-1.83,5.86-5.44,5.41a13.77,13.77,0,0,1,1.29,8.12l8.72-7.57"/><rect class="cls-1" x="50.47" y="6.86" width="25.03" height="13.03" rx="3.04" ry="3.04"/></svg>