<svg id="Layer_1" data-name="Layer 1" xmlns="http://www.w3.org/2000/svg" viewBox="0 0 100 100"><defs><style>.cls-1{fill:#171717;}.cls-2{fill:#fff;}.cls-3{fill:#87898b;}.cls-4{fill:#714c48;}.cls-5{fill:#fcca98;}.cls-6{fill:#f37d3b;}.cls-7{fill:#e9bb8d;}.cls-8{fill:#d8af84;}.cls-9{fill:#bd9975;}.cls-10{fill:#f05c38;}.cls-11{fill:#ffc63f;}.cls-12{fill:#6ab8d9;}.cls-13{fill:#ffc640;}</style></defs><title>pirate</title><path class="cls-1" d="M54.88,35.06c0,11.23-9.11,11.64-20.33,11.64s-20.33-.41-20.33-11.64S23.32,9,34.55,9,54.88,23.83,54.88,35.06Z"/><path class="cls-1" d="M65.5,28s-23.15,6.76-30.95,6.76S3.59,28,3.59,28L22.48,43.11H46.61Z"/><path class="cls-1" d="M46.61,46.7H22.48a3.6,3.6,0,0,1-2.24-.79L1.34,30.77A3.59,3.59,0,0,1,4.6,24.52c6.3,1.84,24-8.54,29.95-8.54s23.64,10.38,30,8.54a3.59,3.59,0,0,1,3.25,6.25L48.86,45.91A3.61,3.61,0,0,1,46.61,46.7ZM23.74,39.52H45.35l4.7-3.76c-5.92,1.38-12,2.56-15.5,2.56S25,37.14,19,35.76Z"/><rect class="cls-2" x="29.49" y="27.78" width="11.72" height="11.72" rx="2.7" ry="2.7"/><rect class="cls-2" x="30.99" y="34.06" width="2.1" height="7.72" rx="0.48" ry="0.48"/><rect class="cls-2" x="33.09" y="34.06" width="2.1" height="7.72" rx="0.48" ry="0.48"/><rect class="cls-2" x="35.19" y="34.06" width="2.1" height="7.72" rx="0.48" ry="0.48"/><rect class="cls-2" x="37.29" y="34.06" width="2.1" height="7.72" rx="0.48" ry="0.48"/><circle class="cls-1" cx="31.44" cy="33.5" r="0.82"/><circle class="cls-1" cx="39.16" cy="33.5" r="0.82"/><polygon class="cls-1" points="34.09 36.39 36.6 36.39 35.35 32.82 34.09 36.39"/><path class="cls-2" d="M28.63,25.84a1.48,1.48,0,0,0-.38,1.39,1.47,1.47,0,1,0,.57,2.56l.35.35a4.36,4.36,0,0,1,2.16-1.9l-.48-.48a1.47,1.47,0,0,0-2.22-1.92Z"/><path class="cls-2" d="M41.85,25.84a1.46,1.46,0,0,1,.38,1.39,1.46,1.46,0,1,1-.56,2.56l-.35.35a4.36,4.36,0,0,0-2.16-1.9l.48-.48a1.47,1.47,0,0,1,2.21-1.92Z"/><path class="cls-2" d="M43.73,40.1a1.45,1.45,0,0,0-.1-1.44,1.47,1.47,0,1,0-1.38-2.23l-.44-.21a4.41,4.41,0,0,1-1.41,2.51L41,39a1.47,1.47,0,0,0,2.72,1.08Z"/><path class="cls-2" d="M26.91,40.1a1.48,1.48,0,0,1,.1-1.44,1.47,1.47,0,1,1,1.38-2.23l.44-.21a4.47,4.47,0,0,0,1.41,2.51l-.61.29a1.47,1.47,0,0,1-2.72,1.08Z"/><path class="cls-3" d="M46.73,82.16a3.11,3.11,0,1,1,0-6.22,4,4,0,1,0,0-8,3.11,3.11,0,1,1,0-6.22,10.21,10.21,0,1,1,0,20.41Z"/><path class="cls-3" d="M46.73,82.16A10.21,10.21,0,0,1,36.53,72a3.11,3.11,0,0,1,6.22,0,4,4,0,0,0,4,4,3.11,3.11,0,1,1,0,6.22Z"/><path class="cls-3" d="M39.52,74.93H21.81a3.11,3.11,0,1,1,0-6.22H39.52a3.11,3.11,0,1,1,0,6.22Z"/><path class="cls-4" d="M13.11,61.88H26.58a2.1,2.1,0,0,1,2.1,2.1V78.83a4.06,4.06,0,0,1-4.06,4.06H15.07A4.06,4.06,0,0,1,11,78.83V64A2.1,2.1,0,0,1,13.11,61.88Z" transform="translate(-52.54 92.23) rotate(-90)"/><path class="cls-5" d="M97.15,55.63A6.76,6.76,0,0,0,92.78,54H71a6.78,6.78,0,0,0-6.76,6.76V82.54A6.78,6.78,0,0,0,71,89.3H92.78a6.78,6.78,0,0,0,6.76-6.76V60.77A6.76,6.76,0,0,0,97.15,55.63Z"/><rect class="cls-6" x="89.92" y="76.1" width="2.55" height="6.9" rx="0.59" ry="0.59" transform="translate(82.96 -41.18) rotate(45)"/><path class="cls-6" d="M88.75,77.11h0a1.28,1.28,0,0,1,1.81,0l3.07,3.07a1.27,1.27,0,0,1,0,1.8h0a1.27,1.27,0,0,1-1.8,0l-3.08-3.07A1.29,1.29,0,0,1,88.75,77.11Z"/><path class="cls-7" d="M76,59c-1.73.57-2.73,3-2.66,4.88,0,.42.14,2.67,1.7,3.62.85.51,1.62.34,3.61.1,4.19-.49,6.3-.73,7.22,0,1.26,1,.45,2.35,2.13,4.14.32.35,1.82,2,3.29,1.6s2.1-2.66,2.34-3.61a11.12,11.12,0,0,0-.22-5.21,28.48,28.48,0,0,0-1.8-5.31c-.85-2.12-1.1-2.37-1.38-2.55-1.41-.88-3.58.1-5.74,1.06-2.53,1.14-2.6,1.75-4,1.92C78.21,59.89,77.54,58.49,76,59Z"/><path class="cls-8" d="M88.53,58.15c-1-.36-1.61,1.27-3.82,2.23s-3.36-.06-6.91,1.06c-1.13.36-2.36.76-2.44,1.49s1.07,1.68,2.23,2c2.11.61,3.07-1.07,6.37-1.38,1.23-.12,3.52-.34,4.68.95,1.49,1.67,0,4.6.84,5,.71.33,2.67-1.18,2.87-3S91,64.44,89.8,61.12C89.12,59.28,89.21,58.4,88.53,58.15Z"/><path class="cls-9" d="M88,59c-.37-.06-.48.83-1.41,1.56-.6.47-.89.37-2.76,1-1.37.46-2.23.74-2.2,1S83,63,83.86,63c1.24,0,1.43-.54,2.4-.43a6,6,0,0,1,1.77.64c1.07.5,1.39.84,1.56.71s-.28-1-.78-2.62C88.36,59.82,88.37,59.09,88,59Z"/><polygon class="cls-9" points="77.87 73.02 80.21 73.02 79.04 71.25 77.87 73.02"/><polygon class="cls-9" points="77.87 72.13 80.21 72.13 79.04 70.36 77.87 72.13"/><polygon class="cls-9" points="77.87 71.25 80.21 71.25 79.04 69.48 77.87 71.25"/><polygon class="cls-9" points="80.73 72.02 83.06 72.02 81.89 70.25 80.73 72.02"/><polygon class="cls-9" points="80.73 71.13 83.06 71.13 81.89 69.36 80.73 71.13"/><polygon class="cls-9" points="80.73 70.25 83.06 70.25 81.89 68.48 80.73 70.25"/><polygon class="cls-9" points="80.73 75.38 83.06 75.38 81.89 73.61 80.73 75.38"/><polygon class="cls-9" points="80.73 74.5 83.06 74.5 81.89 72.73 80.73 74.5"/><polygon class="cls-9" points="80.73 73.61 83.06 73.61 81.89 71.84 80.73 73.61"/><path class="cls-7" d="M66.22,78.75c.85-1,3-.62,4.36.32,2,1.37,1.15,3.27,2.87,4.36s3.12-.43,6.16.64c.36.12,2.71,1,2.65,1.91s-3.18,2-6,1.8c-1.59-.14-3.11-.94-6.16-2.55-2.14-1.12-2.79-1.69-3.29-2.44C66.15,81.72,65.37,79.73,66.22,78.75Z"/><path class="cls-8" d="M67.57,79.64c-.33.25-.19,1.1.14,1.7.49.89,1.18.81,2.55,1.91.89.72.75.88,1.56,1.49A9.07,9.07,0,0,0,74.44,86c2.36.84,3.84,1.37,4.46.71A1.35,1.35,0,0,0,79,85.09c-.55-.66-1.74.07-3.82-.21A5.72,5.72,0,0,1,72.53,84c-1.55-1-1.25-2.36-3-3.68C69.31,80.22,68,79.28,67.57,79.64Z"/><path class="cls-6" d="M86,81.21a.85.85,0,0,1-.19-1.67c.38-.09.77-.2,1.18-.32a.84.84,0,0,1,1.06.56.85.85,0,0,1-.57,1.06c-.44.13-.86.25-1.28.35A.65.65,0,0,1,86,81.21Z"/><path class="cls-6" d="M81.77,81.73q-.57,0-1.08,0a.86.86,0,0,1-.8-.9.84.84,0,0,1,.9-.8,16.79,16.79,0,0,0,2.53,0,.82.82,0,0,1,.92.76.85.85,0,0,1-.76.93C82.87,81.71,82.3,81.73,81.77,81.73Zm-3.66-.41h-.17a12.17,12.17,0,0,1-2.74-.84.85.85,0,0,1-.39-1.14A.86.86,0,0,1,76,78.94a10,10,0,0,0,2.33.7.85.85,0,0,1,.66,1A.84.84,0,0,1,78.11,81.32Zm-4.23-2.7a.85.85,0,0,1-.83-.66,3.61,3.61,0,0,1-.07-.75,7.16,7.16,0,0,1,0-.8c0-.23,0-.46,0-.71a3.37,3.37,0,0,0,0-.44.84.84,0,0,1,.71-1,.83.83,0,0,1,1,.7,4.39,4.39,0,0,1,0,.71,8.48,8.48,0,0,1-.06.89c0,.21,0,.41,0,.62a2.22,2.22,0,0,0,0,.38.85.85,0,0,1-.64,1A.65.65,0,0,1,73.88,78.62Zm-1.19-5a.87.87,0,0,1-.64-.29,4.65,4.65,0,0,0-1.33-1.07,3,3,0,0,0-.46-.19A.86.86,0,0,1,69.73,71a.84.84,0,0,1,1.08-.53,4.51,4.51,0,0,1,.69.3,6.3,6.3,0,0,1,1.83,1.45.84.84,0,0,1-.08,1.19A.81.81,0,0,1,72.69,73.64Zm-4-3.14a.85.85,0,0,1-.83-.67,5.89,5.89,0,0,1-.11-1.17,15.7,15.7,0,0,1,.13-1.75.85.85,0,0,1,1.69.19,12.38,12.38,0,0,0-.12,1.56,3.81,3.81,0,0,0,.07.81.85.85,0,0,1-.65,1Z"/><path class="cls-6" d="M69.23,65.2a.85.85,0,0,1-.82-1.08c.11-.4.25-.83.42-1.28a.85.85,0,1,1,1.59.6c-.15.4-.27.78-.38,1.14A.83.83,0,0,1,69.23,65.2Z"/><rect class="cls-9" x="63.67" y="87.82" width="36.33" height="3.57" rx="0.82" ry="0.82"/><rect class="cls-9" x="63.67" y="53.29" width="36.33" height="3.57" rx="0.82" ry="0.82"/><circle class="cls-6" cx="71.19" cy="59.54" r="2.11"/><path class="cls-10" d="M75.19,25.17c-1.52-.31-3.23,1.4-4.33,4.07a14.64,14.64,0,0,0,6.67,1.31C77.58,27.7,76.7,25.49,75.19,25.17Z"/><path class="cls-11" d="M77.21,33.34a14,14,0,0,0,.32-2.79,14.64,14.64,0,0,1-6.67-1.31,14.78,14.78,0,0,0-.79,2.61c-.11.5-.18,1-.24,1.47a16.16,16.16,0,0,0,6.78,2.15A14.72,14.72,0,0,0,77.21,33.34Z"/><path class="cls-12" d="M69.83,33.32c-.38,3.47.53,6.33,2.26,6.7s3.44-1.6,4.52-4.55A16.16,16.16,0,0,1,69.83,33.32Z"/><circle class="cls-10" cx="71.45" cy="29.66" r="0.93"/><circle class="cls-10" cx="72.85" cy="30.28" r="0.93"/><circle class="cls-10" cx="74.55" cy="30.67" r="0.93"/><circle class="cls-10" cx="76.01" cy="30.96" r="0.93"/><circle class="cls-10" cx="77.56" cy="31.2" r="0.93"/><circle class="cls-11" cx="70.5" cy="33.67" r="0.93"/><circle class="cls-11" cx="71.9" cy="34.28" r="0.93"/><circle class="cls-11" cx="73.6" cy="34.67" r="0.93"/><circle class="cls-11" cx="75.06" cy="34.96" r="0.93"/><circle class="cls-11" cx="76.6" cy="35.21" r="0.93"/><path class="cls-10" d="M93.78,25.17c1.52-.31,3.23,1.4,4.33,4.07a14.61,14.61,0,0,1-6.67,1.31C91.39,27.7,92.28,25.49,93.78,25.17Z"/><path class="cls-11" d="M91.76,33.34a14,14,0,0,1-.32-2.79,14.61,14.61,0,0,0,6.67-1.31,14.78,14.78,0,0,1,.79,2.61c.11.5.18,1,.24,1.47a16.16,16.16,0,0,1-6.78,2.15A14.72,14.72,0,0,1,91.76,33.34Z"/><path class="cls-12" d="M99.14,33.32c.38,3.47-.53,6.33-2.26,6.7s-3.44-1.6-4.52-4.55A16.16,16.16,0,0,0,99.14,33.32Z"/><circle class="cls-10" cx="97.52" cy="29.66" r="0.93"/><circle class="cls-10" cx="96.12" cy="30.28" r="0.93"/><circle class="cls-10" cx="94.42" cy="30.67" r="0.93"/><circle class="cls-10" cx="92.96" cy="30.96" r="0.93"/><circle class="cls-10" cx="91.41" cy="31.2" r="0.93"/><circle class="cls-11" cx="98.47" cy="33.67" r="0.93"/><circle class="cls-11" cx="97.07" cy="34.28" r="0.93"/><circle class="cls-11" cx="95.37" cy="34.67" r="0.93"/><circle class="cls-11" cx="93.91" cy="34.96" r="0.93"/><circle class="cls-11" cx="92.37" cy="35.21" r="0.93"/><path class="cls-1" d="M81,18.91a5.53,5.53,0,0,1-5-3.11,5.53,5.53,0,1,0,9.94,0A5.54,5.54,0,0,1,81,18.91Z"/><path class="cls-13" d="M78.2,18a5.55,5.55,0,0,1,5,3.1,5.46,5.46,0,0,0,.57-2.42,5.54,5.54,0,1,0-11.08,0,5.46,5.46,0,0,0,.57,2.42A5.53,5.53,0,0,1,78.2,18Z"/><polyline class="cls-11" points="80.19 40.89 82.09 40.89 81.14 46.47"/><polyline class="cls-11" points="85.89 40.89 87.79 40.89 86.84 46.47"/><path class="cls-10" d="M94.94,32.85c0,6.88-4.73,9.25-10.57,9.25s-10.58-2.37-10.58-9.25,4.74-12.46,10.58-12.46S94.94,26,94.94,32.85Z"/><path class="cls-10" d="M92.88,29.08a8.69,8.69,0,1,1-17.38,0c0-4.8,3.89-20.47,8.69-20.47S92.88,24.28,92.88,29.08Z"/><rect class="cls-10" x="77.77" y="8.61" width="8.62" height="4.7" rx="1.08" ry="1.08"/><path class="cls-2" d="M86.09,14.65c0,2.51-4.17,6.6-6.68,6.6s-2-3.24-2-5.75A4.55,4.55,0,0,1,82,11C84.46,11,86.09,12.14,86.09,14.65Z"/><circle class="cls-1" cx="83.81" cy="13.09" r="0.56"/></svg>