<svg id="Layer_1" data-name="Layer 1" xmlns="http://www.w3.org/2000/svg" viewBox="0 0 100 100"><defs><style>.cls-1{fill:#ffc640;}.cls-2{fill:#f37d3b;}.cls-3{fill:#56707d;}</style></defs><title>lava lamp</title><path class="cls-1" d="M50.14,78.41h0c-6.7,0-16.81-6.59-16.81-14.65L38,25.64C38,17.59,43.44.2,50.14.2h0C56.83.2,62.3,17.59,62.3,25.64l4.37,38.12C66.67,71.82,56.83,78.41,50.14,78.41Z"/><path class="cls-2" d="M44.68,26.21c-1.18-.18-2.3,1.23-2.81,2.25-.15.29-1.13,2.27-.47,3.57s2.12.33,4.52,1.69c1.74,1,2,2.08,3,1.88C50,35.35,51,33.45,50.76,32s-1.84-1.19-4.06-3.76C45.63,27,45.45,26.32,44.68,26.21Z"/><path class="cls-2" d="M36.25,66.39c0-1.67,2-3.29,3.12-3.94,1.75-1,2.51-.21,4.84-.94,1.6-.51,4.74-2,4.83-3.95.09-1.66-2.07-1.93-3.12-4.88-.62-1.77-.89-4.61.47-6.57s4.38-2.63,5.15-1.5-1.37,3.54-.47,6.19c.4,1.18,1,1.07,2.65,3s1.46,2.39,3.59,5.26a25.58,25.58,0,0,0,3.75,4.32c2.06,1.8,2.92,1.74,3.11,2.62.45,2-3.28,5.67-7,7.33C48,77.41,36.17,70.56,36.25,66.39Z"/><path class="cls-2" d="M52.48,38c-.7.72-1.35,1.4-1.25,2.25a2.14,2.14,0,0,0,2,1.69,2.39,2.39,0,0,0,2.18-1.5c.63-1.38.23-3.36-.62-3.76S53.16,37.32,52.48,38Z"/><path class="cls-2" d="M46.24,4.43c-1.11,1.35-1.06,4.06-.16,5.63s2,1.1,2.65,2.63-.16,2.46.47,4.13a4.94,4.94,0,0,0,3.43,2.82c1.76.39,4.13-.23,4.68-1.88.29-.87-.16-1.29-.78-4-.8-3.44-.34-4-1.09-5.63A7.42,7.42,0,0,0,52.16,4.8C51.48,4.41,47.92,2.37,46.24,4.43Z"/><path class="cls-3" d="M59.51,100h-19c-3.94,0-7.16-3.88-7.16-8.62h0c0-4.74,3.22-21.52,7.16-21.52L50,70.92l9.51-1.06c3.94,0,7.16,16.78,7.16,21.52h0C66.67,96.12,63.45,100,59.51,100Z"/><path class="cls-3" d="M33.4,61.6l-.27,2.19c0,8.15,10.24,14.81,17,14.81s16.73-6.66,16.73-14.81l-.13-1.09c-3.77,3-9.56,4.89-16,4.89C43.43,67.59,37.07,65.2,33.4,61.6Z"/><path class="cls-3" d="M50.11,0C46.38,0,43,5.24,40.7,11.38a37.55,37.55,0,0,0,9.45,1.17,37,37,0,0,0,9.38-1.16C57.22,5.25,53.86,0,50.11,0Z"/></svg>