<svg id="Layer_1" data-name="Layer 1" xmlns="http://www.w3.org/2000/svg" viewBox="0 0 100 100"><defs><style>.cls-1{fill:#09a582;}.cls-2{fill:#f89c3e;}.cls-3{fill:#f05c38;}.cls-4{fill:#007359;}.cls-5{fill:#c7552e;}.cls-6{fill:#fff;}</style></defs><title>hamburger</title><rect class="cls-1" x="22.93" y="54.36" width="45.68" height="21.23"/><path class="cls-1" d="M7.47,74a1.25,1.25,0,0,0,.1-.37L0,72.33c.48-2.71,5.2-15.93,51.2-9.44L50.13,70.5C12.32,65.16,7.51,73.94,7.47,74Z"/><path class="cls-1" d="M92.53,74c0-.09-4.85-8.87-42.66-3.53L48.8,62.89c46-6.49,50.72,6.73,51.2,9.44l-7.57,1.33A1.25,1.25,0,0,0,92.53,74Z"/><rect class="cls-2" x="3.79" y="27.19" width="94.23" height="13.6" rx="3.38" ry="3.38"/><path class="cls-2" d="M4,33.22C4,24.6,25,17.61,50.9,17.61s46.92,7,46.92,15.61Z"/><rect class="cls-2" x="3.79" y="68.79" width="94.23" height="13.6" rx="3.38" ry="3.38"/><rect class="cls-3" x="11.55" y="40.79" width="36.2" height="7.13" rx="1.77" ry="1.77"/><rect class="cls-4" x="7.48" y="61.66" width="18.58" height="7.13" rx="1.27" ry="1.27"/><rect class="cls-4" x="30.08" y="61.66" width="18.58" height="7.13" rx="1.27" ry="1.27"/><rect class="cls-4" x="52.68" y="61.66" width="18.58" height="7.13" rx="1.27" ry="1.27"/><rect class="cls-4" x="75.28" y="61.66" width="18.58" height="7.13" rx="1.27" ry="1.27"/><rect class="cls-3" x="51.96" y="40.79" width="36.2" height="7.13" rx="1.77" ry="1.77"/><rect class="cls-5" x="6.21" y="47.91" width="90.35" height="13.85" rx="2.82" ry="2.82"/><path class="cls-6" d="M24.41,27.07a5.31,5.31,0,0,1-2.51,1.31,5.17,5.17,0,0,1,1.31-2.51,5.26,5.26,0,0,1,2.5-1.31A5.2,5.2,0,0,1,24.41,27.07Z"/><path class="cls-6" d="M36,27.07a5.26,5.26,0,0,1-2.5,1.31,5.2,5.2,0,0,1,1.3-2.51,5.31,5.31,0,0,1,2.51-1.31A5.17,5.17,0,0,1,36,27.07Z"/><path class="cls-6" d="M47.5,27.07A5.26,5.26,0,0,1,45,28.38a5.2,5.2,0,0,1,1.3-2.51,5.31,5.31,0,0,1,2.51-1.31A5.17,5.17,0,0,1,47.5,27.07Z"/><path class="cls-6" d="M59.05,27.07a5.26,5.26,0,0,1-2.5,1.31,5.2,5.2,0,0,1,1.3-2.51,5.27,5.27,0,0,1,2.51-1.31A5.17,5.17,0,0,1,59.05,27.07Z"/><path class="cls-6" d="M70.6,27.07a5.27,5.27,0,0,1-2.51,1.31,4.72,4.72,0,0,1,3.82-3.82A5.27,5.27,0,0,1,70.6,27.07Z"/><path class="cls-6" d="M82.15,27.07a5.27,5.27,0,0,1-2.51,1.31,4.72,4.72,0,0,1,3.82-3.82A5.27,5.27,0,0,1,82.15,27.07Z"/></svg>