<svg id="Layer_1" data-name="Layer 1" xmlns="http://www.w3.org/2000/svg" viewBox="0 0 100 100"><defs><style>.cls-1{fill:#b3b3b3;}.cls-2{fill:#8a8a8a;}.cls-3{fill:#09a582;}.cls-4{fill:#58595b;}.cls-5{fill:#f37d3b;}.cls-6{fill:#ebf7fd;}.cls-7{fill:#d1dce3;}.cls-8{fill:#ffc640;}</style></defs><title>email</title><rect class="cls-1" y="2.16" width="100" height="76.47" rx="8.64" ry="8.64"/><rect class="cls-2" y="67.1" width="100" height="30.74" rx="5.48" ry="5.48"/><rect class="cls-1" y="61.46" width="100" height="30.74" rx="5.48" ry="5.48"/><rect class="cls-3" x="9.14" y="11.82" width="81.72" height="50.63" rx="4.27" ry="4.27"/><rect class="cls-4" x="6.86" y="68.43" width="85.81" height="19.12" rx="4.09" ry="4.09"/><rect class="cls-5" x="11.99" y="70.6" width="10.46" height="6.23" rx="0.72" ry="0.72"/><rect class="cls-1" x="24.68" y="70.6" width="10.46" height="6.23" rx="0.72" ry="0.72"/><rect class="cls-1" x="37.38" y="70.6" width="10.46" height="6.23" rx="0.72" ry="0.72"/><rect class="cls-1" x="50.08" y="70.6" width="10.46" height="6.23" rx="0.72" ry="0.72"/><rect class="cls-1" x="62.77" y="70.6" width="10.46" height="6.23" rx="0.72" ry="0.72"/><rect class="cls-1" x="75.47" y="70.6" width="10.46" height="6.23" rx="0.72" ry="0.72"/><rect class="cls-1" x="11.99" y="79.35" width="10.46" height="6.23" rx="0.72" ry="0.72"/><rect class="cls-1" x="24.68" y="79.35" width="10.46" height="6.23" rx="0.72" ry="0.72"/><rect class="cls-1" x="37.38" y="79.35" width="10.46" height="6.23" rx="0.72" ry="0.72"/><rect class="cls-1" x="50.08" y="79.35" width="10.46" height="6.23" rx="0.72" ry="0.72"/><rect class="cls-1" x="62.77" y="79.35" width="10.46" height="6.23" rx="0.72" ry="0.72"/><rect class="cls-1" x="75.47" y="79.35" width="10.46" height="6.23" rx="0.72" ry="0.72"/><rect class="cls-6" x="27.32" y="22.4" width="44" height="29.33" rx="2.51" ry="2.51"/><path class="cls-6" d="M69.33,23.89a5.81,5.81,0,0,0-3.88-1.49H33.18a5.85,5.85,0,0,0-3.88,1.49l20,15Z"/><path class="cls-7" d="M70.77,25.81a6,6,0,0,0-1.83-2.24,4.16,4.16,0,0,1,.39.32l-20,15-20-15h0A4.07,4.07,0,0,0,28,25.59L49.51,41.75Z"/><circle class="cls-8" cx="71.32" cy="22.4" r="9.24"/><path class="cls-3" d="M71.09,30h0a1.87,1.87,0,0,1-1.86-1.87h0a1.87,1.87,0,0,1,1.86-1.86h0A1.87,1.87,0,0,1,73,28.16h0A1.87,1.87,0,0,1,71.09,30Z"/><rect class="cls-3" x="69.23" y="14.47" width="3.73" height="10.88" rx="0.8" ry="0.8"/></svg>