<svg id="Layer_1" data-name="Layer 1" xmlns="http://www.w3.org/2000/svg" viewBox="0 0 100 100"><defs><style>.cls-1{fill:#ffc640;}.cls-2{fill:#bcd2de;}.cls-3{fill:#a9ccdd;}.cls-4{fill:#ffdb91;}.cls-5{fill:#f37d3b;}.cls-6{fill:#f05c38;}.cls-7{fill:#09a582;}.cls-8{fill:#6ab8d9;}</style></defs><title>prism</title><rect class="cls-1" y="39.81" width="49.96" height="9.48"/><polygon class="cls-2" points="0 73.74 36.32 87.03 72.64 73.74 36.32 12.97 0 73.74"/><polygon class="cls-3" points="36.32 12.97 0 73.74 36.32 87.03 36.32 12.97"/><polyline class="cls-4" points="49.96 39.81 20.28 39.81 14.61 49.29 49.96 49.29 49.96 39.81"/><path class="cls-1" d="M99.73,38.47a72.82,72.82,0,0,0-2.06-12.14L38.5,41.65a11.82,11.82,0,0,1,.34,2,13.09,13.09,0,0,1,0,2,11.82,11.82,0,0,1-.34,2L97.67,62.87a73,73,0,0,0,2.06-12.14A71.71,71.71,0,0,0,99.73,38.47Z"/><path class="cls-5" d="M37.84,39.75a11.54,11.54,0,0,1,.66,1.9,11.82,11.82,0,0,1,.34,2l60.89-5.14a72.82,72.82,0,0,0-2.06-12.14c-.37-1.42-.78-2.83-1.24-4.24Z"/><path class="cls-6" d="M97.67,26.33,38.5,41.65a11.54,11.54,0,0,0-.66-1.9L93.53,14.6A72.72,72.72,0,0,1,97.67,26.33Z"/><path class="cls-7" d="M96.61,66.56c.38-1.22.74-2.45,1.06-3.69a73,73,0,0,0,2.06-12.14L38.84,45.59a11.82,11.82,0,0,1-.34,2,11.54,11.54,0,0,1-.66,1.9Z"/><path class="cls-8" d="M93.53,74.6,37.84,49.45a11.54,11.54,0,0,0,.66-1.9L97.67,62.87A72.72,72.72,0,0,1,93.53,74.6Z"/></svg>