<svg id="Layer_1" data-name="Layer 1" xmlns="http://www.w3.org/2000/svg" viewBox="0 0 100 100"><defs><style>.cls-1{fill:#c7672f;}.cls-2{fill:#994d1f;}.cls-3{fill:#fcca98;}.cls-4{fill:#b6a574;}</style></defs><title>sandpaper</title><path class="cls-1" d="M100,8.36A8.38,8.38,0,0,0,91.64,0H8.36A8.38,8.38,0,0,0,0,8.36V91.64A8.38,8.38,0,0,0,8.36,100H74.1L100,74.1Z"/><circle class="cls-2" cx="7.39" cy="5.75" r="0.98"/><circle class="cls-2" cx="19.1" cy="5.75" r="0.98"/><circle class="cls-2" cx="30.8" cy="5.75" r="0.98"/><circle class="cls-2" cx="42.51" cy="5.75" r="0.98"/><circle class="cls-2" cx="54.21" cy="5.75" r="0.98"/><circle class="cls-2" cx="65.92" cy="5.75" r="0.98"/><circle class="cls-2" cx="77.62" cy="5.75" r="0.98"/><circle class="cls-2" cx="89.33" cy="5.75" r="0.98"/><circle class="cls-2" cx="14.22" cy="11.68" r="0.98"/><circle class="cls-2" cx="2.32" cy="11.68" r="0.98"/><circle class="cls-2" cx="25.93" cy="11.68" r="0.98"/><circle class="cls-2" cx="37.63" cy="11.68" r="0.98"/><circle class="cls-2" cx="49.34" cy="11.68" r="0.98"/><circle class="cls-2" cx="61.04" cy="11.68" r="0.98"/><circle class="cls-2" cx="72.75" cy="11.68" r="0.98"/><circle class="cls-2" cx="84.45" cy="11.68" r="0.98"/><circle class="cls-2" cx="96.16" cy="11.68" r="0.98"/><circle class="cls-2" cx="7.39" cy="17.82" r="0.98"/><circle class="cls-2" cx="19.1" cy="17.82" r="0.98"/><circle class="cls-2" cx="30.8" cy="17.82" r="0.98"/><circle class="cls-2" cx="42.51" cy="17.82" r="0.98"/><circle class="cls-2" cx="54.21" cy="17.82" r="0.98"/><circle class="cls-2" cx="65.92" cy="17.82" r="0.98"/><circle class="cls-2" cx="77.62" cy="17.82" r="0.98"/><circle class="cls-2" cx="89.33" cy="17.82" r="0.98"/><circle class="cls-2" cx="14.22" cy="23.75" r="0.98"/><circle class="cls-2" cx="2.32" cy="23.75" r="0.98"/><circle class="cls-2" cx="25.93" cy="23.75" r="0.98"/><circle class="cls-2" cx="37.63" cy="23.75" r="0.98"/><circle class="cls-2" cx="49.34" cy="23.75" r="0.98"/><circle class="cls-2" cx="61.04" cy="23.75" r="0.98"/><circle class="cls-2" cx="72.75" cy="23.75" r="0.98"/><circle class="cls-2" cx="84.45" cy="23.75" r="0.98"/><circle class="cls-2" cx="96.16" cy="23.75" r="0.98"/><circle class="cls-2" cx="7.39" cy="29.88" r="0.98"/><circle class="cls-2" cx="19.1" cy="29.88" r="0.98"/><circle class="cls-2" cx="30.8" cy="29.88" r="0.98"/><circle class="cls-2" cx="42.51" cy="29.88" r="0.98"/><circle class="cls-2" cx="54.21" cy="29.88" r="0.98"/><circle class="cls-2" cx="65.92" cy="29.88" r="0.98"/><circle class="cls-2" cx="77.62" cy="29.88" r="0.98"/><circle class="cls-2" cx="89.33" cy="29.88" r="0.98"/><circle class="cls-2" cx="14.22" cy="35.81" r="0.98"/><circle class="cls-2" cx="2.32" cy="35.81" r="0.98"/><circle class="cls-2" cx="25.93" cy="35.81" r="0.98"/><circle class="cls-2" cx="37.63" cy="35.81" r="0.98"/><circle class="cls-2" cx="49.34" cy="35.81" r="0.98"/><circle class="cls-2" cx="61.04" cy="35.81" r="0.98"/><circle class="cls-2" cx="72.75" cy="35.81" r="0.98"/><circle class="cls-2" cx="84.45" cy="35.81" r="0.98"/><circle class="cls-2" cx="96.16" cy="35.81" r="0.98"/><circle class="cls-2" cx="7.39" cy="41.95" r="0.98"/><circle class="cls-2" cx="19.1" cy="41.95" r="0.98"/><circle class="cls-2" cx="30.8" cy="41.95" r="0.98"/><circle class="cls-2" cx="42.51" cy="41.95" r="0.98"/><circle class="cls-2" cx="54.21" cy="41.95" r="0.98"/><circle class="cls-2" cx="65.92" cy="41.95" r="0.98"/><circle class="cls-2" cx="77.62" cy="41.95" r="0.98"/><circle class="cls-2" cx="89.33" cy="41.95" r="0.98"/><circle class="cls-2" cx="14.22" cy="47.88" r="0.98"/><circle class="cls-2" cx="2.32" cy="47.88" r="0.98"/><circle class="cls-2" cx="25.93" cy="47.88" r="0.98"/><circle class="cls-2" cx="37.63" cy="47.88" r="0.98"/><circle class="cls-2" cx="49.34" cy="47.88" r="0.98"/><circle class="cls-2" cx="61.04" cy="47.88" r="0.98"/><circle class="cls-2" cx="72.75" cy="47.88" r="0.98"/><circle class="cls-2" cx="84.45" cy="47.88" r="0.98"/><circle class="cls-2" cx="96.16" cy="47.88" r="0.98"/><circle class="cls-2" cx="7.39" cy="54.02" r="0.98"/><circle class="cls-2" cx="19.1" cy="54.02" r="0.98"/><circle class="cls-2" cx="30.8" cy="54.02" r="0.98"/><circle class="cls-2" cx="42.51" cy="54.02" r="0.98"/><circle class="cls-2" cx="54.21" cy="54.02" r="0.98"/><circle class="cls-2" cx="65.92" cy="54.02" r="0.98"/><circle class="cls-2" cx="77.62" cy="54.02" r="0.98"/><circle class="cls-2" cx="89.33" cy="54.02" r="0.98"/><circle class="cls-2" cx="14.22" cy="59.94" r="0.98"/><circle class="cls-2" cx="2.32" cy="59.94" r="0.98"/><circle class="cls-2" cx="25.93" cy="59.94" r="0.98"/><circle class="cls-2" cx="37.63" cy="59.94" r="0.98"/><circle class="cls-2" cx="49.34" cy="59.94" r="0.98"/><circle class="cls-2" cx="61.04" cy="59.94" r="0.98"/><circle class="cls-2" cx="72.75" cy="59.94" r="0.98"/><circle class="cls-2" cx="84.45" cy="59.94" r="0.98"/><circle class="cls-2" cx="96.16" cy="59.94" r="0.98"/><circle class="cls-2" cx="7.39" cy="66.08" r="0.98"/><circle class="cls-2" cx="19.1" cy="66.08" r="0.98"/><circle class="cls-2" cx="30.8" cy="66.08" r="0.98"/><circle class="cls-2" cx="42.51" cy="66.08" r="0.98"/><circle class="cls-2" cx="54.21" cy="66.08" r="0.98"/><circle class="cls-2" cx="65.92" cy="66.08" r="0.98"/><circle class="cls-2" cx="77.62" cy="66.08" r="0.98"/><circle class="cls-2" cx="89.33" cy="66.08" r="0.98"/><circle class="cls-2" cx="14.22" cy="72.01" r="0.98"/><circle class="cls-2" cx="2.32" cy="72.01" r="0.98"/><circle class="cls-2" cx="25.93" cy="72.01" r="0.98"/><circle class="cls-2" cx="37.63" cy="72.01" r="0.98"/><circle class="cls-2" cx="49.34" cy="72.01" r="0.98"/><circle class="cls-2" cx="61.04" cy="72.01" r="0.98"/><circle class="cls-2" cx="72.75" cy="72.01" r="0.98"/><circle class="cls-2" cx="84.45" cy="72.01" r="0.98"/><circle class="cls-2" cx="96.16" cy="72.01" r="0.98"/><circle class="cls-2" cx="7.39" cy="78.15" r="0.98"/><circle class="cls-2" cx="19.1" cy="78.15" r="0.98"/><circle class="cls-2" cx="30.8" cy="78.15" r="0.98"/><circle class="cls-2" cx="42.51" cy="78.15" r="0.98"/><circle class="cls-2" cx="54.21" cy="78.15" r="0.98"/><circle class="cls-2" cx="65.92" cy="78.15" r="0.98"/><circle class="cls-2" cx="77.62" cy="78.15" r="0.98"/><circle class="cls-2" cx="14.22" cy="84.08" r="0.98"/><circle class="cls-2" cx="2.32" cy="84.08" r="0.98"/><circle class="cls-2" cx="25.93" cy="84.08" r="0.98"/><circle class="cls-2" cx="37.63" cy="84.08" r="0.98"/><circle class="cls-2" cx="49.34" cy="84.08" r="0.98"/><circle class="cls-2" cx="61.04" cy="84.08" r="0.98"/><circle class="cls-2" cx="72.75" cy="84.08" r="0.98"/><circle class="cls-2" cx="7.39" cy="90.21" r="0.98"/><circle class="cls-2" cx="19.1" cy="90.21" r="0.98"/><circle class="cls-2" cx="30.8" cy="90.21" r="0.98"/><circle class="cls-2" cx="42.51" cy="90.21" r="0.98"/><circle class="cls-2" cx="54.21" cy="90.21" r="0.98"/><circle class="cls-2" cx="65.92" cy="90.21" r="0.98"/><circle class="cls-2" cx="77.62" cy="90.21" r="0.98"/><circle class="cls-2" cx="14.22" cy="96.14" r="0.98"/><circle class="cls-2" cx="25.93" cy="96.14" r="0.98"/><circle class="cls-2" cx="37.63" cy="96.14" r="0.98"/><circle class="cls-2" cx="49.34" cy="96.14" r="0.98"/><circle class="cls-2" cx="61.04" cy="96.14" r="0.98"/><circle class="cls-2" cx="72.75" cy="96.14" r="0.98"/><path class="cls-3" d="M100,74.1H82.46a8.38,8.38,0,0,0-8.36,8.36V100Z"/><path class="cls-4" d="M78.6,79.28a1.34,1.34,0,0,0,1.34,1.34H93.48l2.68-2.68H79.94A1.34,1.34,0,0,0,78.6,79.28Z"/><path class="cls-4" d="M86.21,83.1a1.34,1.34,0,1,0,0,2.68h2.11L91,83.1Z"/><path class="cls-4" d="M81.39,90.21a1.32,1.32,0,0,0,1.19,1.31l2.65-2.65h-2.5A1.35,1.35,0,0,0,81.39,90.21Z"/></svg>