<svg id="Layer_1" data-name="Layer 1" xmlns="http://www.w3.org/2000/svg" viewBox="0 0 100 100"><defs><style>.cls-1{fill:#b6a574;}.cls-2{fill:#09a582;}.cls-3{fill:#dd7236;}.cls-4{fill:#079374;}.cls-5{fill:#f37d3b;}.cls-6{fill:#714c48;}</style></defs><title>kite</title><path class="cls-1" d="M38.7,98.27a7.85,7.85,0,0,1-4.21-1.11c-1.85-1.14-2.37-2.77-2.91-4.49a13.71,13.71,0,0,0-2.77-5.33,31.19,31.19,0,0,0-2.6-2.67,19.55,19.55,0,0,1-6.32,1.25c-3.18.07-5.69-.81-7.14-2.46-1.68-1.9-2.33-5.37-.66-7a3.7,3.7,0,0,1,2.85-.88c3.12.14,7.76,2.55,11.79,5.9a13.85,13.85,0,0,0,4.79-3.63c4.32-5.27,3.55-14.22-1.85-21.27l2.18-1.67C38,63,38.77,73.36,33.64,79.6a15.93,15.93,0,0,1-4.73,3.84c.7.69,1.37,1.4,2,2.12a16.25,16.25,0,0,1,3.3,6.28c.51,1.6.79,2.4,1.73,3,2.87,1.77,8.26.14,15.6-4.7l1.52,2.29C47.11,96.33,42.36,98.27,38.7,98.27ZM14.65,78.33c-.42,0-.61.08-.64.12-.31.29-.2,2.07.8,3.19s2.78,1.56,5,1.54a16.37,16.37,0,0,0,3.87-.58c-3.39-2.54-6.87-4.17-8.9-4.27Z"/><path class="cls-2" d="M41.9,69.7a34.92,34.92,0,0,0,4.47,2.59.67.67,0,0,0,.63,0,.7.7,0,0,0,.32-.55,30.77,30.77,0,0,1,.91-4.7,1.23,1.23,0,0,0-.06-.73,1.18,1.18,0,0,0-.46-.57A37.63,37.63,0,0,1,43.79,63a.65.65,0,0,0-.6-.17.64.64,0,0,0-.45.44,40.24,40.24,0,0,0-1.45,4.93,1.43,1.43,0,0,0,.09.86A1.51,1.51,0,0,0,41.9,69.7Z"/><path class="cls-2" d="M48.28,79.47a13,13,0,0,0,5.5.2.65.65,0,0,0,.5-.39.68.68,0,0,0-.09-.61,9.58,9.58,0,0,1-1.26-4.24.84.84,0,0,0-.26-.57,1.07,1.07,0,0,0-.57-.29,16.79,16.79,0,0,1-4.48-1.28.63.63,0,0,0-.93.56A20.33,20.33,0,0,0,47,78.13a1.55,1.55,0,0,0,.47.84A1.72,1.72,0,0,0,48.28,79.47Z"/><path class="cls-2" d="M61,82.79a14.66,14.66,0,0,0,3.12-4.41.68.68,0,0,0,0-.62.65.65,0,0,0-.54-.33,10.84,10.84,0,0,1-4.35-1.27.94.94,0,0,0-.56-.09.72.72,0,0,0-.47.3,6.87,6.87,0,0,1-3.43,2.49.74.74,0,0,0-.47.42.63.63,0,0,0,.13.62A10.5,10.5,0,0,0,59,83.18a2.15,2.15,0,0,0,1,.07A1.83,1.83,0,0,0,61,82.79Z"/><path class="cls-2" d="M70.59,78.77a35.8,35.8,0,0,1,3-3.76.67.67,0,0,0,.2-.6.66.66,0,0,0-.42-.46,36.64,36.64,0,0,0-4.86-1.71,1.5,1.5,0,0,0-.86.05,1.55,1.55,0,0,0-.72.49,33.72,33.72,0,0,0-2.8,4.35.68.68,0,0,0,0,.63.71.71,0,0,0,.53.34,31.25,31.25,0,0,1,4.65,1.12,1.14,1.14,0,0,0,.73,0A1.12,1.12,0,0,0,70.59,78.77Z"/><path class="cls-2" d="M79.81,77.1a29.29,29.29,0,0,1,3.85-2.81.69.69,0,0,0,.36-.52.67.67,0,0,0-.27-.57,34.14,34.14,0,0,0-4.26-3,1.57,1.57,0,0,0-.85-.17,1.53,1.53,0,0,0-.82.29A37.38,37.38,0,0,0,74,73.82a.67.67,0,0,0-.21.59.69.69,0,0,0,.41.48,33.35,33.35,0,0,1,4.22,2.31,1.17,1.17,0,0,0,.71.17A1.13,1.13,0,0,0,79.81,77.1Z"/><path class="cls-2" d="M88.55,78.24A11,11,0,0,1,93,77.43a.67.67,0,0,0,.58-.23.62.62,0,0,0,.1-.62A14.45,14.45,0,0,0,91,71.84a1.83,1.83,0,0,0-.79-.54,1.89,1.89,0,0,0-.94,0,21.8,21.8,0,0,0-4.88,2,.62.62,0,0,0-.11,1.08,17.62,17.62,0,0,1,3.09,3.51,1,1,0,0,0,.54.39A.88.88,0,0,0,88.55,78.24Z"/><path class="cls-2" d="M93.28,83a8.53,8.53,0,0,1,3,3.17.63.63,0,0,0,.49.36.67.67,0,0,0,.59-.25,12.52,12.52,0,0,0,2.54-4.9,1.72,1.72,0,0,0-.06-1.07,2.2,2.2,0,0,0-.58-.91A10.46,10.46,0,0,0,94.16,77a.68.68,0,0,0-.61.2.7.7,0,0,0-.11.61A6.83,6.83,0,0,1,93,82a.6.6,0,0,0,0,.52A.94.94,0,0,0,93.28,83Z"/><path class="cls-2" d="M92.05,90.85a31,31,0,0,1,.94,4.7.63.63,0,0,0,1,.53,34.69,34.69,0,0,0,4.45-2.62,1.3,1.3,0,0,0,.53-.71,1.65,1.65,0,0,0,.08-.9,20.24,20.24,0,0,0-.72-2.58,16.77,16.77,0,0,0-1-2.4.66.66,0,0,0-.49-.39.73.73,0,0,0-.59.24,14,14,0,0,1-1.79,1.57,15.54,15.54,0,0,1-1.9,1.3,1.11,1.11,0,0,0-.43.55A1.33,1.33,0,0,0,92.05,90.85Z"/><path class="cls-3" d="M1,42.52c-.14,1.87-.56,3.84.5,5.52a9.24,9.24,0,0,0,4.34,3.72L39.59,64.7a4.8,4.8,0,0,0,6.88-4.35l2.75-36a9.18,9.18,0,0,0-1.5-5.52c-1.06-1.67-4.59-1-6.34-1.72Z"/><path class="cls-4" d="M16.25,38.72l8.37-5.3,23.1-14.61a9.24,9.24,0,0,0-4.34-3.72L9.65,2.15A5.1,5.1,0,0,0,5,2.42Z"/><path class="cls-2" d="M5,2.42A5.12,5.12,0,0,0,2.77,6.5L0,42.52A9.25,9.25,0,0,0,1.52,48l23.1-14.62Z"/><path class="cls-5" d="M1.52,48a9.24,9.24,0,0,0,4.34,3.72L39.59,64.7a5.12,5.12,0,0,0,4.65-.27l-19.62-31Z"/><rect class="cls-6" x="36.97" y="86.88" width="24.55" height="5.61" rx="1.29" ry="1.29"/><path class="cls-1" d="M53.51,86.25h-.65s-.07,0-.11,0-.06,0-.1,0H52s-.07,0-.11,0-.06,0-.1,0h-.65s-.07,0-.1,0-.07,0-.11,0h-.65s-.07,0-.1,0-.07,0-.11,0h-.65s-.07,0-.1,0-.07,0-.11,0h-.65s-.07,0-.1,0-.07,0-.11,0H47.7s-.07,0-.1,0-.07,0-.11,0h-.65s-.07,0-.1,0-.07,0-.11,0H46s-.07,0-.1,0-.06,0-.1,0h-.66s-.07,0-.1,0-.06,0-.1,0h-.66s-.06,0-.1,0-.06,0-.1,0h-.65s-.07,0-.11,0-.06,0-.1,0h-.65s-.07,0-.11,0-.06,0-.1,0h-.65s-.07,0-.11,0-.06,0-.1,0h-.65s-.07,0-.11,0-.06,0-.1,0H40a.29.29,0,0,0-.28.28v6.21A.28.28,0,0,0,40,93h.65s.07,0,.1,0,.07,0,.11,0h.65s.07,0,.1,0,.07,0,.11,0h.65s.07,0,.1,0,.07,0,.11,0h.65s.07,0,.1,0,.06,0,.11,0h.65s.07,0,.1,0,.06,0,.1,0h.66s.07,0,.1,0,.06,0,.1,0h.66s.06,0,.1,0,.06,0,.1,0h.65s.07,0,.11,0,.06,0,.1,0h.65s.07,0,.11,0,.06,0,.1,0h.65s.07,0,.11,0,.06,0,.1,0h.65s.07,0,.11,0,.06,0,.1,0h.65s.07,0,.11,0,.06,0,.1,0h.65S51,93,51,93s.06,0,.1,0h.65s.07,0,.1,0S52,93,52,93h.65s.07,0,.1,0,.07,0,.11,0h.65a.27.27,0,0,0,.27-.27V86.53A.28.28,0,0,0,53.51,86.25Z"/></svg>