<svg id="Layer_1" data-name="Layer 1" xmlns="http://www.w3.org/2000/svg" viewBox="0 0 100 100"><defs><style>.cls-1{fill:#fff;}.cls-2{fill:#e0e0e0;}.cls-3{fill:#ffc640;}.cls-4{fill:#f37d3b;}</style></defs><title>statue</title><rect class="cls-1" x="21.85" y="90.33" width="52" height="9.67" rx="2.43" ry="2.43"/><rect class="cls-1" x="21.85" y="73.09" width="52" height="22.08"/><rect class="cls-2" x="21.85" y="68.88" width="52" height="9.67" rx="2.43" ry="2.43"/><path class="cls-1" d="M36.14,36.47l-.09,0h0l-.06,0-.15.06c.12,0,.24-.07.36-.11Z"/><path class="cls-1" d="M82.15,49.57A1.44,1.44,0,0,0,81.9,49a1,1,0,0,0-.46-.36,1,1,0,0,1,0,.91,2.28,2.28,0,0,1-.52.68,3.24,3.24,0,0,1-1.42.8,1.27,1.27,0,0,1-.58,0c-.15-.05-.19-.13-.2-.19a.13.13,0,0,1,0-.06.11.11,0,0,1,0-.06l0-.08a.19.19,0,0,1,0-.08,2.18,2.18,0,0,1,0-.39,12,12,0,0,1,.12-1.56,18.58,18.58,0,0,0,.12-2.22,9.12,9.12,0,0,0-.39-2.57,8,8,0,0,0-1.23-2.46,9.3,9.3,0,0,0-1.82-1.88c-.34-.26-.67-.49-1-.71l-.6-.35a6.58,6.58,0,0,0-.66-.29,6.05,6.05,0,0,0-3-.41,6,6,0,0,0-2.69,1.05,8.13,8.13,0,0,0-1.79,1.77v0A8.19,8.19,0,0,0,64.48,40a1.22,1.22,0,0,0,.06-.26V32.24A2.08,2.08,0,0,0,64,30.81a1.7,1.7,0,0,0,.58-1.26V23.5a1.72,1.72,0,0,0-1.71-1.71,1.64,1.64,0,0,0-1,.36,2.84,2.84,0,0,0-2.16-1h-.47L59,21a8.22,8.22,0,0,0,3.82-6.92v-.84l.08,0a1.38,1.38,0,0,0,1.38-1.39,1.45,1.45,0,0,0-.09-.46A1.56,1.56,0,1,0,62.83,8.7V6.8H60.08V0L56.44,3.17,54.61,0,52.79,3.17,49.15,0V6.8H46.39V8.64a1.56,1.56,0,0,0-2.56,1.22,1.56,1.56,0,0,0,1.28,1.52,1.23,1.23,0,0,0-.1.46,1.38,1.38,0,0,0,1.38,1.38v.83A8.24,8.24,0,0,0,50.21,21l-.2.15h-.47a2.89,2.89,0,0,0-2.08.91,1.63,1.63,0,0,0-.81-.24,1.68,1.68,0,0,0-1.23.54l-.18-1.12s-1-5.52-4.22-7.51c-.43-1.5-1.3-3.84-1.3-3.84s-.64,1.71-1.09,3.15h-.39l0,0s-.46-.08-1.13-.14c-.32-1.39-1.43-4.36-1.43-4.36s-1.11,3-1.43,4.36A6.89,6.89,0,0,0,30.89,14l.78.32c-.41.21-.84.4-1.22.63l-.06,0-8.87,3.78-.59.25a1.65,1.65,0,0,0-1.43-.85,1.68,1.68,0,0,0-1.68,1.69,1.66,1.66,0,0,0,.76,1.37,4.27,4.27,0,0,0-.09,3.52l.09.2a4.32,4.32,0,0,0,5.65,2.28l1.42-.6,6.27-2.67c-.46.77-1,1.56-1.49,2.36l-1,1.66c-.34.55-.65,1.14-1,1.72l-.49.87-.47.91c-.31.61-.62,1.21-.91,1.86l-.45,1c-.15.32-.28.68-.42,1l-.41,1-.38,1.1-.19.56c-.06.19-.12.39-.17.59l-.34,1.22a25.28,25.28,0,0,0-.47,2.79c0,.26-.06.49-.07.77l0,.85c0,.29,0,.57,0,.87s0,.65.07,1a15.06,15.06,0,0,0,1.16,4.58,14.19,14.19,0,0,0,4,5.23,13.19,13.19,0,0,0,1.47,1l.48.28.8,5.61a1,1,0,0,0-.65.93,1,1,0,0,0,.27.67,1,1,0,0,0,.23,1.51l.59,4-2.84,3.8h5.93l-2.32-3.11,1-5h0a.93.93,0,0,0,.2-.56,1,1,0,0,0-.27-.67,1,1,0,0,0,.27-.67,1,1,0,0,0-.41-.79l.8-4.28.54.14a17.92,17.92,0,0,0,4.8.45l.42,3a1,1,0,0,0-.64.92,1,1,0,0,0,.27.68,1,1,0,0,0-.27.67,1,1,0,0,0,.49.83l.71,4.83-2.66,3.56H44l-2.64-3.54,1-5.12h0a1,1,0,0,0,.2-.56,1,1,0,0,0-.27-.67,1,1,0,0,0,.27-.68,1,1,0,0,0-.42-.78l.66-3.47c.19,0,.37-.06.57-.11l.28-.06.31-.08.33-.09.19-.06.05,0,.09,0,.2-.07a11.74,11.74,0,0,0,2.69-1.62c.9.05,1.82.08,2.79.08.79,0,1.62,0,2.47-.06l3.33,6.36a.67.67,0,0,0,0,.19,1,1,0,0,0-.47.55,1,1,0,0,0,.2.95L54.93,70l-2.82,3.77h5.94L55.4,70.17l2.77-4.85h0a.95.95,0,0,0,.32-1.19,1,1,0,0,0,.47-.55,1,1,0,0,0-.19-.95l.19-.16-1-6.11c.93-.11,1.89-.24,2.87-.39l3.76,7.17a.67.67,0,0,0,0,.19,1,1,0,0,0-.47.55,1,1,0,0,0,.2.95L63.48,70l-2.82,3.77H66.6L64,70.17l2.77-4.85h0a1,1,0,0,0,.37-.47,1,1,0,0,0,0-.72,1,1,0,0,0,.48-.55,1,1,0,0,0-.2-.95l.19-.16-1.28-8.18A8,8,0,0,0,68,42.54a5.89,5.89,0,0,1,1.26-.66,2.5,2.5,0,0,1,1.19-.16,2.68,2.68,0,0,1,1,.35l.27.17.27.19c.21.17.44.34.63.52a7.12,7.12,0,0,1,1,1.08,5.57,5.57,0,0,1,1,2.64c.07.56.11,1.18.16,1.89a10,10,0,0,0,.44,2.53A4.16,4.16,0,0,0,76,52.54a1.87,1.87,0,0,0,.31.32,3.1,3.1,0,0,0,.34.27,2.7,2.7,0,0,0,.4.25,3.25,3.25,0,0,0,.43.18,3.05,3.05,0,0,0,1.81.08A3.69,3.69,0,0,0,80.65,53a4.37,4.37,0,0,0,1.41-2.12A2.81,2.81,0,0,0,82.15,49.57ZM36,36.51l.06,0h0l.09,0h0c-.12,0-.24.06-.36.11Z"/><rect class="cls-3" x="34.33" y="80.9" width="28.03" height="14.93" rx="1.58" ry="1.58"/><rect class="cls-4" x="39.96" y="84.84" width="16.78" height="0.53" rx="0.13" ry="0.13"/><rect class="cls-4" x="39.96" y="86.85" width="16.78" height="0.53" rx="0.13" ry="0.13"/><rect class="cls-4" x="39.96" y="90.39" width="16.78" height="0.53" rx="0.13" ry="0.13"/></svg>