<svg id="Layer_1" data-name="Layer 1" xmlns="http://www.w3.org/2000/svg" viewBox="0 0 100 100"><defs><style>.cls-1{fill:#714c48;}.cls-2{fill:#583936;}.cls-3{fill:#457f95;}.cls-4{fill:#5393ae;}.cls-5{fill:#6ab8d9;}.cls-6{fill:#fff;}</style></defs><title>chocolate</title><path class="cls-1" d="M61.46,27.5V71.89H86.54v0a4.3,4.3,0,0,1,.24-1.35,4.47,4.47,0,0,1,1.14-1.8,4.27,4.27,0,0,1-1-2.76,4.32,4.32,0,0,1,4.32-4.32,4.71,4.71,0,0,1,.54,0,4.3,4.3,0,0,1,6.89-1.48l.19.17a4.57,4.57,0,0,1,1.12-.52V27.5Z"/><path class="cls-2" d="M86.77,70.51h-.24V58.42H85.16V71.89h1.38v0A4.3,4.3,0,0,1,86.77,70.51Z"/><path class="cls-1" d="M100,59.84V57.05h-.06v2.8Z"/><rect class="cls-2" x="85.16" y="28.74" width="13.47" height="13.47"/><rect class="cls-1" x="86.53" y="27.36" width="13.47" height="13.47"/><rect class="cls-2" x="85.16" y="43.58" width="13.47" height="13.47"/><rect class="cls-1" x="86.53" y="42.21" width="13.47" height="13.47"/><rect class="cls-2" x="70.32" y="28.74" width="13.47" height="13.47"/><rect class="cls-1" x="71.69" y="27.36" width="13.47" height="13.47"/><rect class="cls-2" x="70.32" y="43.58" width="13.47" height="13.47"/><rect class="cls-1" x="71.69" y="42.21" width="13.47" height="13.47"/><rect class="cls-2" x="70.32" y="58.42" width="13.47" height="13.47"/><rect class="cls-1" x="71.69" y="57.05" width="13.47" height="13.47"/><circle class="cls-3" cx="5.65" cy="32.11" r="5.65"/><circle class="cls-3" cx="5.65" cy="40.61" r="5.65"/><circle class="cls-3" cx="5.65" cy="50" r="5.65"/><circle class="cls-3" cx="5.65" cy="58.5" r="5.65"/><circle class="cls-3" cx="5.65" cy="67.89" r="5.65"/><rect class="cls-4" x="6.19" y="26.46" width="4.1" height="47.07"/><polygon class="cls-5" points="75.11 45.06 75.11 26.46 10.29 26.46 10.29 73.54 68.57 73.54 74.6 56.3 71.37 47.73 75.11 45.06"/><path class="cls-4" d="M12.19,63.75a9.38,9.38,0,0,1,1-1.38c.3-.36.59-.64.89-1a17.62,17.62,0,0,1,1.84-1.57,21.4,21.4,0,0,1,3.88-2.32,28.77,28.77,0,0,1,8.06-2.36c5.33-.84,10.65-.29,15.44.38a50.64,50.64,0,0,0,14.12.23,19,19,0,0,0,6.64-2.11c2-1.11,3.9-3,3.81-5.52.53,2.51-1.19,5-3.13,6.5A20.72,20.72,0,0,1,58,58.09,54.05,54.05,0,0,1,43.05,60.3c-4.9.11-9.42.45-13.61,1.83a20.83,20.83,0,0,0-5.59,2.68,13.56,13.56,0,0,0-2.12,1.8,11.22,11.22,0,0,0-.79,1c-.08.15-.2.31-.27.44s-.19.39,0,.14Z"/><rect class="cls-6" x="21.09" y="33.46" width="44.34" height="4.3" rx="1.03" ry="1.03"/><rect class="cls-6" x="21.09" y="41.26" width="31.88" height="3.09" rx="0.74" ry="0.74"/><rect class="cls-6" x="21.09" y="48.45" width="31.88" height="3.09" rx="0.74" ry="0.74"/></svg>