<svg id="Layer_1" data-name="Layer 1" xmlns="http://www.w3.org/2000/svg" viewBox="0 0 100 100"><defs><style>.cls-1{fill:#bcd2de;}.cls-2{fill:#714c48;}.cls-3{fill:#946660;}.cls-4{fill:#6ab8d9;}.cls-5{fill:#589ab6;}.cls-6{fill:#569ab6;}</style></defs><title>chocolate milk</title><ellipse class="cls-1" cx="49.47" cy="27.72" rx="27.64" ry="8.42"/><path class="cls-1" d="M21.82,27.72V81.8c0,15.2,12.44,18.3,27.65,18.3S77.11,97,77.11,81.8V27.72Z"/><path class="cls-2" d="M26.42,35.87V79.1c0,12.72,10.41,15.32,23.12,15.32s23.13-2.6,23.13-15.32V35.87Z"/><ellipse class="cls-3" cx="49.54" cy="36.11" rx="23.12" ry="6.22"/><polygon class="cls-4" points="33.3 37.85 27.68 8.22 6.89 6.99 7.28 0.38 33.23 1.92 39.81 36.62 33.3 37.85"/><rect class="cls-5" x="32.94" y="33.95" width="6.63" height="3.31" transform="translate(-6.01 7.39) rotate(-10.75)"/><path class="cls-5" d="M31.72,29.47l-1-5.13,6.51-1.24,1,5.13ZM29.77,19.21l-1-5.13,6.51-1.24,1,5.13Z"/><polygon class="cls-5" points="27.82 8.94 27.68 8.22 26.95 8.18 27.35 1.57 33.23 1.92 34.33 7.71 27.82 8.94"/><rect class="cls-5" x="15.46" y="1.58" width="6.62" height="5.6" transform="translate(13.29 22.86) rotate(-86.6)"/><rect class="cls-5" x="5.43" y="2.13" width="6.62" height="3.31" transform="translate(4.45 12.28) rotate(-86.62)"/><rect class="cls-6" x="23.39" y="0.1" width="5.95" height="9.53" rx="1.34" ry="1.34" transform="translate(0.31 -1.45) rotate(3.17)"/><rect class="cls-6" x="26.16" y="0.25" width="5.95" height="9.53" rx="1.34" ry="1.34" transform="translate(3.38 -9.51) rotate(19.65)"/><rect class="cls-6" x="28.38" y="1.58" width="5.95" height="9.53" rx="1.34" ry="1.34" transform="translate(9.77 -17.27) rotate(36.14)"/><rect class="cls-6" x="28.59" y="4.65" width="5.95" height="9.53" rx="1.34" ry="1.34" transform="translate(36 -23.22) rotate(81.14)"/><rect class="cls-3" x="31.35" y="35.25" width="10.54" height="3.61"/><path class="cls-2" d="M58.16,32.07c0,.71-1.62,1.28-3.62,1.28s-3.61-.57-3.61-1.28,1.62-2.54,3.61-2.54S58.16,31.36,58.16,32.07Z"/><ellipse class="cls-2" cx="45.89" cy="37.11" rx="2.12" ry="0.63"/><path class="cls-2" d="M69,37.49c0,.55-1.2,1-2.68,1s-2.67-.46-2.67-1,1.2-1.62,2.67-1.62S69,36.93,69,37.49Z"/></svg>