<svg id="Layer_1" data-name="Layer 1" xmlns="http://www.w3.org/2000/svg" viewBox="0 0 100 100"><defs><style>.cls-1{fill:#714c48;}.cls-2{fill:#bf9b77;}.cls-3{fill:#aa8a69;}</style></defs><title>cookie dough</title><circle class="cls-1" cx="5.44" cy="37.3" r="4.41"/><circle class="cls-1" cx="69.41" cy="28.84" r="4.41"/><circle class="cls-2" cx="22.87" cy="50.63" r="22.87"/><circle class="cls-2" cx="42.5" cy="41.12" r="19.17"/><circle class="cls-2" cx="45.74" cy="58.88" r="19.17"/><circle class="cls-2" cx="69.41" cy="45.07" r="19.17"/><circle class="cls-2" cx="72.04" cy="58.88" r="19.17"/><circle class="cls-2" cx="80.83" cy="52.06" r="19.17"/><path class="cls-3" d="M77.51,34.13c1.07,2-11.18,6.85-27.36,2.59S21.71,35,22.79,34.13c1.07-2,13.32-6.37,27.36-2.58S76.43,33.32,77.51,34.13Z"/><circle class="cls-1" cx="23.47" cy="55.61" r="3.2"/><circle class="cls-1" cx="43.88" cy="25.64" r="3.2"/><circle class="cls-2" cx="20.28" cy="54.23" r="3.2"/><circle class="cls-1" cx="75.93" cy="58.69" r="3.2"/><circle class="cls-2" cx="75.93" cy="61.89" r="3.2"/><circle class="cls-1" cx="50.6" cy="64.82" r="3.2"/><circle class="cls-1" cx="61.67" cy="48.48" r="4.41"/></svg>