<svg id="Layer_1" data-name="Layer 1" xmlns="http://www.w3.org/2000/svg" viewBox="0 0 100 100"><defs><style>.cls-1{fill:#bcd2de;}.cls-2{fill:#ffc63f;}.cls-3{fill:#895e59;}.cls-4{fill:#deae38;}</style></defs><title>hourglass</title><rect class="cls-1" x="29.99" y="10.85" width="40.05" height="40.05" rx="8.82" ry="8.82"/><rect class="cls-1" x="29.99" y="2.69" width="40.05" height="34.68" rx="2.93" ry="2.93"/><circle class="cls-2" cx="50.01" cy="35.14" r="13.16"/><path class="cls-2" d="M36.85,21.79V35a4.39,4.39,0,0,0,4.38,4.38H58.8A4.39,4.39,0,0,0,63.18,35V21.79Z"/><rect class="cls-1" x="29.99" y="49.82" width="40.05" height="40.05" rx="8.82" ry="8.82" transform="translate(100.03 139.68) rotate(180)"/><rect class="cls-1" x="29.99" y="63.34" width="40.05" height="34.68" rx="2.93" ry="2.93" transform="translate(100.03 161.37) rotate(180)"/><rect class="cls-3" x="24.55" width="50.89" height="8.87" rx="1.95" ry="1.95"/><rect class="cls-3" x="24.55" y="91.13" width="50.89" height="8.87" rx="1.95" ry="1.95"/><ellipse class="cls-2" cx="50.01" cy="21.53" rx="13.16" ry="5.28"/><rect class="cls-2" x="48.56" y="45.45" width="2.91" height="40.47" rx="0.64" ry="0.64"/><path class="cls-2" d="M33.23,91.13S49.06,85.79,50,75.1c0,0,3.9,8,14.63,16Z"/><circle class="cls-4" cx="41.29" cy="19.62" r="0.46"/><circle class="cls-4" cx="42.93" cy="22.32" r="0.46"/><circle class="cls-4" cx="50.29" cy="22.32" r="0.46"/><circle class="cls-4" cx="57.66" cy="22.32" r="0.46"/><circle class="cls-4" cx="44.88" cy="19.62" r="0.46"/><circle class="cls-4" cx="52.07" cy="19.62" r="0.46"/><circle class="cls-4" cx="48.27" cy="19.62" r="0.46"/><circle class="cls-4" cx="55.66" cy="19.62" r="0.46"/><circle class="cls-4" cx="59.26" cy="19.62" r="0.46"/></svg>