<svg id="Layer_1" data-name="Layer 1" xmlns="http://www.w3.org/2000/svg" viewBox="0 0 100 100"><defs><style>.cls-1{fill:#4a4a4c;}.cls-2{fill:#58595b;}.cls-3{fill:#212121;}.cls-4{fill:#7696a7;}.cls-5{fill:#9dc8dc;}.cls-6{fill:#09a582;}.cls-7{fill:#00795e;}.cls-8{fill:#121212;}.cls-9{fill:#f37d3b;}.cls-10{fill:#c7672f;}</style></defs><title>city</title><rect class="cls-1" x="28.82" y="37.15" width="71.18" height="15.74" rx="3.95" ry="3.95"/><polygon class="cls-1" points="95.81 38.53 51.73 59.93 69.09 79.22 97.54 50.77 97.54 41.01 95.81 38.53"/><polygon class="cls-2" points="66.23 43.87 26.87 43.87 17.66 53.07 57.03 53.07 66.23 43.87"/><path class="cls-2" d="M96.94,38.84a7.79,7.79,0,0,0-4.81-1.69H36.69a7.77,7.77,0,0,0-3.61.92h-.41l-5.8,5.8H66.23L68.8,41.3l-2.57,2.57h0L57,53.07h0l-1.5,1.5,1.5-1.5H17.66L3,67.71H68.14L97,38.85Z"/><path class="cls-1" d="M63.31,66H7.87a7.87,7.87,0,0,0,0,15.74H63.31a7.87,7.87,0,0,0,0-15.74Z"/><rect class="cls-3" x="23.7" y="23.84" width="16.09" height="24.47"/><rect class="cls-4" x="25.99" y="25.63" width="4.5" height="4.5" rx="0.22" ry="0.22" transform="translate(0.37 56.12) rotate(-90)"/><rect class="cls-4" x="25.99" y="33.09" width="4.5" height="4.5" rx="0.22" ry="0.22" transform="translate(-7.1 63.58) rotate(-90)"/><rect class="cls-4" x="25.99" y="40.56" width="4.5" height="4.5" rx="0.22" ry="0.22" transform="translate(-14.56 71.05) rotate(-90)"/><rect class="cls-5" x="45.79" y="27.51" width="17.38" height="19.05"/><rect class="cls-6" x="57.05" y="24.02" width="12.24" height="25.25"/><rect class="cls-5" x="59.75" y="26.21" width="4.62" height="4.62" rx="0.22" ry="0.22" transform="translate(33.54 90.58) rotate(-90)"/><rect class="cls-5" x="59.75" y="34.72" width="4.62" height="4.62" rx="0.22" ry="0.22" transform="translate(25.03 99.09) rotate(-90)"/><rect class="cls-7" x="58.28" y="29.85" width="8.21" height="2.82"/><rect class="cls-7" x="59.75" y="32.17" width="0.87" height="1.59" rx="0.22" ry="0.22"/><rect class="cls-7" x="64.21" y="32.17" width="0.87" height="1.59" rx="0.22" ry="0.22"/><rect class="cls-3" x="65.74" y="22.79" width="15.31" height="30.45"/><ellipse class="cls-3" cx="73.4" cy="22.92" rx="6.47" ry="2.16"/><path class="cls-8" d="M79,47.29a1.66,1.66,0,0,0-1.66-1.66h-.58a1.66,1.66,0,0,0-1.67,1.66v6H79Z"/><rect class="cls-5" x="71.33" y="21.84" width="4.16" height="11.15" rx="0.22" ry="0.22" transform="translate(46 100.82) rotate(-90)"/><rect class="cls-5" x="71.33" y="28.61" width="4.16" height="11.15" rx="0.22" ry="0.22" transform="translate(39.22 107.59) rotate(-90)"/><rect class="cls-5" x="71.33" y="35.39" width="4.16" height="11.15" rx="0.22" ry="0.22" transform="translate(32.45 114.37) rotate(-90)"/><rect class="cls-5" x="68.53" y="44.96" width="4.16" height="5.56" rx="0.22" ry="0.22" transform="translate(22.88 118.35) rotate(-90)"/><polygon class="cls-3" points="80.88 55.02 15.7 55.02 18.7 52.04 83.84 52.04 80.88 55.02"/><rect class="cls-9" x="29.84" y="18.23" width="23.19" height="39.56"/><path class="cls-10" d="M51.21,45.9a3.34,3.34,0,0,0-3.34-3.33H46.72a3.33,3.33,0,0,0-3.33,3.33V57.79h7.82Z"/><rect class="cls-5" x="32.55" y="21.11" width="6.88" height="6.88" rx="0.22" ry="0.22" transform="translate(11.44 60.53) rotate(-90)"/><rect class="cls-5" x="43.39" y="21.11" width="6.88" height="6.88" rx="0.22" ry="0.22" transform="translate(22.28 71.37) rotate(-90)"/><rect class="cls-5" x="32.55" y="31.87" width="6.88" height="6.88" rx="0.22" ry="0.22" transform="translate(0.68 71.29) rotate(-90)"/><rect class="cls-5" x="43.39" y="31.87" width="6.88" height="6.88" rx="0.22" ry="0.22" transform="translate(11.52 82.13) rotate(-90)"/><rect class="cls-5" x="32.55" y="42.62" width="6.88" height="6.88" rx="0.22" ry="0.22" transform="translate(-10.08 82.05) rotate(-90)"/></svg>