<svg id="Layer_1" data-name="Layer 1" xmlns="http://www.w3.org/2000/svg" viewBox="0 0 100 100"><defs><style>.cls-1{fill:#989a9d;}.cls-2{fill:#fff;}.cls-3{fill:#ffc63f;}.cls-4{fill:#714c48;}.cls-5{fill:#231f20;}.cls-6{fill:#ffc640;}</style></defs><title>eagle</title><path class="cls-1" d="M66.68,75.25H63.21a1.45,1.45,0,0,0-1.35.93,1.44,1.44,0,0,0-1.34-.93H57.05a1.45,1.45,0,0,0-1.35.93,1.44,1.44,0,0,0-1.34-.93H50.89a1.45,1.45,0,0,0-1.35.93,1.44,1.44,0,0,0-1.34-.93H44.72a1.45,1.45,0,0,0-1.34.93A1.44,1.44,0,0,0,42,75.25H38.56a1.45,1.45,0,0,0-1.34.93,1.44,1.44,0,0,0-1.34-.93H32.4A1.43,1.43,0,0,0,31,76.69V95.84a1.43,1.43,0,0,0,1.43,1.44h3.48a1.44,1.44,0,0,0,1.34-.93,1.45,1.45,0,0,0,1.34.93H42a1.44,1.44,0,0,0,1.34-.93,1.45,1.45,0,0,0,1.34.93H48.2a1.44,1.44,0,0,0,1.34-.93,1.45,1.45,0,0,0,1.35.93h3.47a1.44,1.44,0,0,0,1.34-.93,1.45,1.45,0,0,0,1.35.93h3.47a1.44,1.44,0,0,0,1.34-.93,1.45,1.45,0,0,0,1.35.93h3.47a1.44,1.44,0,0,0,1.44-1.44V76.69A1.44,1.44,0,0,0,66.68,75.25Z"/><path class="cls-2" d="M16,57.86,7.37,75.6A15.92,15.92,0,0,0,19.79,62.81L13.07,84s7-6.44,10.56-13.52l-4.21,18A24.65,24.65,0,0,0,30.09,71.73"/><path class="cls-2" d="M84,56.26,92.63,74A15.9,15.9,0,0,1,80.21,61.22l6.72,21.15s-7-6.44-10.56-13.52l4.21,18A24.65,24.65,0,0,1,69.91,70.14"/><polyline class="cls-3" points="37.79 85.28 42.81 85.28 40.3 100"/><polyline class="cls-3" points="52.85 85.28 57.87 85.28 55.36 100"/><path class="cls-4" d="M81.27,64c0,18.18-14.73,24.43-32.91,24.43S15.45,82.22,15.45,64a32.91,32.91,0,1,1,65.82,0Z"/><ellipse class="cls-4" cx="74.67" cy="49.14" rx="9.64" ry="20.02" transform="translate(-8.46 16.27) rotate(-11.77)"/><ellipse class="cls-4" cx="22.16" cy="48.76" rx="20.02" ry="9.64" transform="translate(-30.1 60.51) rotate(-78.23)"/><path class="cls-2" d="M64.38,37.59a16.07,16.07,0,0,1-32.13,0C32.25,28.78,39.45,0,48.32,0S64.38,28.78,64.38,37.59Z"/><circle class="cls-5" cx="48.36" cy="13.32" r="1.48"/><path class="cls-6" d="M69.26,26.64s-.42-3.18-11.56-3.18a5.07,5.07,0,0,1,0-10.14C73.6,13.32,69.26,26.64,69.26,26.64Z"/><path class="cls-2" d="M60.36,46.18a3.71,3.71,0,0,1-1.64,2.58,15.61,15.61,0,0,0,9.75,3.33C66.64,48.78,63.61,46.48,60.36,46.18Z"/><path class="cls-2" d="M58.72,48.76A13,13,0,0,1,54,51.14a31.43,31.43,0,0,0,7,7.7A23.28,23.28,0,0,0,58.72,48.76Z"/><path class="cls-2" d="M54,51.14A21.57,21.57,0,0,1,48,52a42.09,42.09,0,0,0,4.33,9.43A37.42,37.42,0,0,0,54,51.14Z"/><path class="cls-2" d="M48,52a21.5,21.5,0,0,1-5.93-.82,37,37,0,0,0,1.6,10.25A41.65,41.65,0,0,0,48,52Z"/><path class="cls-2" d="M42.09,51.14a13.1,13.1,0,0,1-4.77-2.38,23.14,23.14,0,0,0-2.19,10.08A31.43,31.43,0,0,0,42.09,51.14Z"/><path class="cls-2" d="M37.32,48.76a3.69,3.69,0,0,1-1.63-2.58c-3.26.3-6.28,2.6-8.12,5.91A15.61,15.61,0,0,0,37.32,48.76Z"/><path class="cls-2" d="M35.69,46.18a3.72,3.72,0,0,1,1.63-2.58,15.67,15.67,0,0,0-9.75-3.33C29.41,43.59,32.43,45.88,35.69,46.18Z"/><path class="cls-2" d="M37.32,43.6a13.09,13.09,0,0,1,4.77-2.37,31.25,31.25,0,0,0-7-7.7A23.06,23.06,0,0,0,37.32,43.6Z"/><path class="cls-2" d="M42.09,41.23A21.13,21.13,0,0,1,48,40.41,41.45,41.45,0,0,0,43.69,31,37,37,0,0,0,42.09,41.23Z"/><path class="cls-2" d="M48,40.41a21.2,21.2,0,0,1,5.94.82A37.36,37.36,0,0,0,52.35,31,41.89,41.89,0,0,0,48,40.41Z"/><path class="cls-2" d="M54,41.23a13,13,0,0,1,4.76,2.37,23.21,23.21,0,0,0,2.2-10.07A31.25,31.25,0,0,0,54,41.23Z"/><path class="cls-2" d="M58.72,43.6a3.75,3.75,0,0,1,1.64,2.58c3.25-.3,6.28-2.59,8.11-5.91A15.67,15.67,0,0,0,58.72,43.6Z"/></svg>