<svg id="Layer_1" data-name="Layer 1" xmlns="http://www.w3.org/2000/svg" viewBox="0 0 100 100"><defs><style>.cls-1{fill:#038c6e;}.cls-2{fill:#09a582;}.cls-3{fill:#fcca98;}.cls-4{fill:#fff;}.cls-5{fill:#3e3e3f;}.cls-6{fill:#7d7d7d;}.cls-7{fill:#909295;}.cls-8{fill:#00604a;}</style></defs><title>watch</title><path class="cls-1" d="M62.69,78.53V75.78a1.38,1.38,0,0,0-1.37-1.37H39.51a1.38,1.38,0,0,0-1.38,1.37v2.75a1.38,1.38,0,0,0,1.38,1.37,1.38,1.38,0,0,0-1.38,1.38V84a1.38,1.38,0,0,0,1.38,1.38,1.38,1.38,0,0,0-1.38,1.37v2.75a1.38,1.38,0,0,0,1.38,1.37,1.38,1.38,0,0,0-1.38,1.38V95a1.38,1.38,0,0,0,1.38,1.38h4.66L50.41,100l6.48-3.61h4.43A1.38,1.38,0,0,0,62.69,95V92.27a1.38,1.38,0,0,0-1.37-1.38,1.38,1.38,0,0,0,1.37-1.37V86.77a1.38,1.38,0,0,0-1.37-1.37A1.38,1.38,0,0,0,62.69,84V81.28a1.38,1.38,0,0,0-1.37-1.38A1.38,1.38,0,0,0,62.69,78.53Z"/><path class="cls-1" d="M62.69,12V9.22a1.38,1.38,0,0,0-1.37-1.37H39.51a1.38,1.38,0,0,0-1.38,1.37V12a1.38,1.38,0,0,0,1.38,1.37,1.38,1.38,0,0,0-1.38,1.38v2.74a1.38,1.38,0,0,0,1.38,1.38,1.37,1.37,0,0,0-1.38,1.37V23a1.38,1.38,0,0,0,1.38,1.37,1.38,1.38,0,0,0-1.38,1.38v2.74a1.38,1.38,0,0,0,1.38,1.38H61.32a1.38,1.38,0,0,0,1.37-1.38V25.71a1.38,1.38,0,0,0-1.37-1.38A1.38,1.38,0,0,0,62.69,23V20.21a1.37,1.37,0,0,0-1.37-1.37,1.38,1.38,0,0,0,1.37-1.38V14.72a1.38,1.38,0,0,0-1.37-1.38A1.38,1.38,0,0,0,62.69,12Z"/><circle class="cls-2" cx="50" cy="51.77" r="24.89"/><circle class="cls-3" cx="50" cy="51.77" r="20.55"/><path class="cls-4" d="M40.91,44.34a10,10,0,0,1,2.46,6,10,10,0,0,1-6-2.46,10,10,0,0,1-2.47-6.06A10,10,0,0,1,40.91,44.34Z"/><path class="cls-4" d="M45.91,39.34a10,10,0,0,1,2.46,6.06,10,10,0,0,1-6.06-2.47,10,10,0,0,1-2.46-6A10,10,0,0,1,45.91,39.34Z"/><rect class="cls-5" x="64.99" y="50.76" width="5.12" height="3.18" rx="0.8" ry="0.8"/><rect class="cls-5" x="30.39" y="50.76" width="5.12" height="3.18" rx="0.8" ry="0.8"/><rect class="cls-5" x="47.72" y="68.03" width="5.12" height="3.18" rx="0.8" ry="0.8" transform="translate(119.9 19.34) rotate(90)"/><rect class="cls-5" x="47.72" y="33.5" width="5.12" height="3.18" rx="0.8" ry="0.8" transform="translate(85.37 -15.19) rotate(90)"/><path class="cls-5" d="M48.44,53.32l1.71-16.66,1.71,16.66a1.72,1.72,0,0,1-3.42.35A2,2,0,0,1,48.44,53.32Z"/><path class="cls-5" d="M51.49,54.52l-13,10.57,10.56-13a1.72,1.72,0,0,1,2.67,2.17A1.88,1.88,0,0,1,51.49,54.52Z"/><path class="cls-6" d="M59.22,9.49H41.88a4.75,4.75,0,1,1,0-9.49H59.22a4.75,4.75,0,0,1,0,9.49ZM41.88,2a2.75,2.75,0,1,0,0,5.49H59.22a2.75,2.75,0,0,0,0-5.49Z"/><rect class="cls-7" x="49.16" y="3.27" width="2.08" height="5.22" rx="0.52" ry="0.52"/><circle class="cls-8" cx="50.17" cy="95.17" r="0.88"/><circle class="cls-8" cx="50.17" cy="90.89" r="0.88"/></svg>