<svg id="Layer_1" data-name="Layer 1" xmlns="http://www.w3.org/2000/svg" viewBox="0 0 100 100"><defs><style>.cls-1{fill:#fff;}.cls-2{fill:#3e3e3f;}.cls-3{fill:#bcd2de;}.cls-4{fill:#f37d3b;}.cls-5{fill:#6ab8d9;}</style></defs><title>ambulance</title><path class="cls-1" d="M52.62,77,23.86,70.06C9.83,70.06,0,75.47,0,61.45V48c0-14-1.14-25.5,12.88-25.5H52.62A25.57,25.57,0,0,1,78.11,48v3.45A25.56,25.56,0,0,1,52.62,77Z"/><path class="cls-1" d="M100,61.45A15.58,15.58,0,0,0,84.46,45.91H15.54a15.52,15.52,0,0,0-.75,31,7.64,7.64,0,0,1,15.15,0H70.1a7.64,7.64,0,0,1,15.15,0A15.57,15.57,0,0,0,100,61.45Z"/><circle class="cls-2" cx="22.36" cy="74.78" r="11.47"/><circle class="cls-2" cx="77.68" cy="74.78" r="11.47"/><path class="cls-3" d="M51.57,24.93H45v21H72.9A21.4,21.4,0,0,0,51.57,24.93Z"/><rect class="cls-4" x="45.94" y="52.99" width="10.45" height="3.72" rx="0.87" ry="0.87"/><rect class="cls-4" x="27.75" y="52.99" width="10.45" height="3.72" rx="0.87" ry="0.87"/><rect class="cls-4" x="6.4" y="34.02" width="16.58" height="5.9" rx="1.39" ry="1.39" transform="translate(51.66 22.28) rotate(90)"/><rect class="cls-4" x="6.4" y="34.02" width="16.58" height="5.9" rx="1.39" ry="1.39" transform="translate(29.39 73.94) rotate(-180)"/><circle class="cls-4" cx="22.36" cy="74.78" r="4.71"/><circle class="cls-4" cx="77.68" cy="74.78" r="4.71"/><path class="cls-5" d="M51.5,19.78a6,6,0,0,0-12.06,0v2.76H51.5Z"/></svg>