<svg id="Layer_1" data-name="Layer 1" xmlns="http://www.w3.org/2000/svg" viewBox="0 0 100 100"><defs><style>.cls-1{fill:#9bc5da;}.cls-2{fill:#b2e2f9;}.cls-3{fill:#a7d4ea;}.cls-4{fill:#7191a0;}.cls-5{fill:#3e3e3f;}</style></defs><title>manatee</title><ellipse class="cls-1" cx="39.94" cy="83.27" rx="17.7" ry="12.12" transform="translate(-52.4 81.52) rotate(-63.29)"/><ellipse class="cls-1" cx="23.14" cy="40.9" rx="10.65" ry="4.84" transform="translate(-23.85 40.57) rotate(-60.1)"/><path class="cls-1" d="M29.23,35.15S34.9,35.85,35,34s-4.5-4.49-4.5-4.49-3.65,1.14-4.59,3.13"/><path class="cls-2" d="M43.47,3a30.91,30.91,0,0,1,7.3,3.1,39.17,39.17,0,0,1,5.78,4,41,41,0,0,1,8.36,9.69,41.2,41.2,0,0,1,5.94,22.83A40.51,40.51,0,0,1,63.2,65.48,39.4,39.4,0,0,1,59,70.37a46.21,46.21,0,0,1-5.26,4.24c-1,.63-1.89,1.27-3,1.82S48.63,77.51,47.44,78a33.77,33.77,0,0,1-7.6,2.13A145,145,0,0,1,29.76,57.53l-1.24-4.32c-.36-1.4-.57-2.73-.78-4.07a39.88,39.88,0,0,1-.51-7.9A49,49,0,0,1,31,24.63,102.36,102.36,0,0,1,43.47,3Z"/><path class="cls-2" d="M46.93,7.34s.36-8.91-12.37-7.1S18.38,24.8,30.92,33.71"/><path class="cls-2" d="M28.65,3S14.37,17.16,20,26.16c1.68,2.68,16.4,1.73,19.7,2.52,7.8,1.87,6.3,1.12,10.13-7.88"/><ellipse class="cls-3" cx="23.83" cy="19.52" rx="9.03" ry="5.09" transform="translate(-6.82 22.57) rotate(-45)"/><ellipse class="cls-3" cx="32.56" cy="19.52" rx="5.09" ry="9.03" transform="translate(-4.27 28.74) rotate(-45)"/><path class="cls-1" d="M27.8,13.23a16,16,0,0,1,0,3.86c-.14,1.25-.29,2.4-.57,3.77A5.63,5.63,0,0,1,26.34,17,6.92,6.92,0,0,1,27.8,13.23Z"/><path class="cls-4" d="M28.48,14a1.16,1.16,0,0,1,1.39-.6,1.18,1.18,0,0,1,.87,1.24,2.24,2.24,0,0,1-1.27.15A2.26,2.26,0,0,1,28.48,14Z"/><path class="cls-4" d="M24.18,14.48a1.17,1.17,0,0,1,1-1.13,1.18,1.18,0,0,1,1.31.77,2.29,2.29,0,0,1-1.09.67A2.33,2.33,0,0,1,24.18,14.48Z"/><circle class="cls-5" cx="47.08" cy="9.55" r="1.06"/><path class="cls-1" d="M32.31,17.32a1.39,1.39,0,0,1-.24.73,1.39,1.39,0,0,1-.24-.73,1.35,1.35,0,0,1,.24-.73A1.35,1.35,0,0,1,32.31,17.32Z"/><path class="cls-1" d="M34.1,18.22a1.39,1.39,0,0,1-.24.73,1.27,1.27,0,0,1,0-1.46A1.39,1.39,0,0,1,34.1,18.22Z"/><path class="cls-1" d="M35.9,19.12a1.35,1.35,0,0,1-.24.73,1.35,1.35,0,0,1-.24-.73,1.39,1.39,0,0,1,.24-.73A1.39,1.39,0,0,1,35.9,19.12Z"/><path class="cls-1" d="M35.9,22.34a1.39,1.39,0,0,1-.24.73,1.23,1.23,0,0,1,0-1.46A1.39,1.39,0,0,1,35.9,22.34Z"/><path class="cls-1" d="M33.11,20.58a1.35,1.35,0,0,1-.24.73,1.35,1.35,0,0,1-.24-.73,1.39,1.39,0,0,1,.24-.73A1.39,1.39,0,0,1,33.11,20.58Z"/><path class="cls-1" d="M30.9,20.58a1.35,1.35,0,0,1-.24.73,1.35,1.35,0,0,1-.24-.73,1.39,1.39,0,0,1,.24-.73A1.39,1.39,0,0,1,30.9,20.58Z"/><path class="cls-1" d="M37.94,23.67a1.35,1.35,0,0,1-.24.73,1.35,1.35,0,0,1-.24-.73,1.39,1.39,0,0,1,.24-.73A1.39,1.39,0,0,1,37.94,23.67Z"/><path class="cls-1" d="M23.48,16.68a1.39,1.39,0,0,0,.24.73,1.39,1.39,0,0,0,.24-.73,1.35,1.35,0,0,0-.24-.73A1.35,1.35,0,0,0,23.48,16.68Z"/><path class="cls-1" d="M21.69,17.58a1.39,1.39,0,0,0,.24.73,1.23,1.23,0,0,0,0-1.46A1.39,1.39,0,0,0,21.69,17.58Z"/><path class="cls-1" d="M19.9,18.48a1.35,1.35,0,0,0,.24.73,1.35,1.35,0,0,0,.24-.73,1.39,1.39,0,0,0-.24-.73A1.39,1.39,0,0,0,19.9,18.48Z"/><path class="cls-1" d="M19.9,21.7a1.35,1.35,0,0,0,.24.73,1.35,1.35,0,0,0,.24-.73,1.39,1.39,0,0,0-.24-.73A1.39,1.39,0,0,0,19.9,21.7Z"/><path class="cls-1" d="M22.69,19.94a1.35,1.35,0,0,0,.24.73,1.35,1.35,0,0,0,.24-.73,1.39,1.39,0,0,0-.24-.73A1.39,1.39,0,0,0,22.69,19.94Z"/><path class="cls-1" d="M24.89,19.94a1.35,1.35,0,0,0,.24.73,1.35,1.35,0,0,0,.24-.73,1.39,1.39,0,0,0-.24-.73A1.39,1.39,0,0,0,24.89,19.94Z"/><path class="cls-1" d="M17.86,23a1.35,1.35,0,0,0,.24.73,1.35,1.35,0,0,0,.24-.73,1.39,1.39,0,0,0-.24-.73A1.39,1.39,0,0,0,17.86,23Z"/><ellipse class="cls-2" cx="76.86" cy="40.9" rx="4.84" ry="10.65" transform="translate(-10.16 43.76) rotate(-29.9)"/><path class="cls-2" d="M70.77,35.15S65.1,35.85,65,34s4.5-4.49,4.5-4.49,3.65,1.14,4.59,3.13"/></svg>