<svg id="Layer_1" data-name="Layer 1" xmlns="http://www.w3.org/2000/svg" viewBox="0 0 100 100"><defs><style>.cls-1{fill:#f9a63f;}.cls-2{fill:#ffc640;}.cls-3{fill:#f37d3b;}.cls-4{fill:#6ab8d9;}.cls-5{fill:#ffc63f;}.cls-6{fill:#fff;}.cls-7{fill:#09a582;}.cls-8{fill:#faab3f;}</style></defs><title>ski goggles</title><path class="cls-1" d="M92.44,72.06a5.88,5.88,0,0,1-2.51-.56h0c-.14-.07-14.39-6.66-29.74-3.63a5.86,5.86,0,1,1-2.27-11.5c19.26-3.8,36.33,4.2,37.05,4.54a5.86,5.86,0,0,1-2.53,11.15Z"/><path class="cls-2" d="M94.13,72.06a5.76,5.76,0,0,1-2.79-.71c-8.74-4.74-10.24-13.06-11.14-18-.13-.71-.29-1.59-.45-2.27a5.86,5.86,0,0,1,1.78-11.44c8.09,0,9.52,7.85,10.2,11.62.88,4.83,1.66,7.9,5.2,9.82a5.86,5.86,0,0,1-2.8,11ZM81.53,51.33h0Z"/><rect class="cls-3" y="33.94" width="6.21" height="25.94" rx="3.11" ry="3.11"/><path d="M64.68,29H22A12.82,12.82,0,0,0,9.22,41.73V58.27A12.82,12.82,0,0,0,22,71.05h7.8L43,57.85l13.2,13.2h8.47A12.82,12.82,0,0,0,77.47,58.27V41.73A12.82,12.82,0,0,0,64.68,29Z"/><path class="cls-4" d="M64.68,73.72H56.21a2.65,2.65,0,0,1-1.88-.78L43,61.62,31.69,72.94a2.65,2.65,0,0,1-1.88.78H22A15.47,15.47,0,0,1,6.56,58.27V41.73A15.47,15.47,0,0,1,22,26.28H64.68A15.47,15.47,0,0,1,80.13,41.73V58.27A15.47,15.47,0,0,1,64.68,73.72Zm-7.37-5.33h7.37A10.13,10.13,0,0,0,74.8,58.27V41.73A10.13,10.13,0,0,0,64.68,31.61H22A10.13,10.13,0,0,0,11.89,41.73V58.27A10.13,10.13,0,0,0,22,68.39h6.7L41.13,56a2.66,2.66,0,0,1,3.76,0Z"/><path class="cls-4" d="M66.44,29H23.77A12.82,12.82,0,0,0,11,41.73V58.27A12.82,12.82,0,0,0,23.77,71.05h7.8l13.2-13.2L58,71.05h8.47A12.82,12.82,0,0,0,79.23,58.27V41.73A12.82,12.82,0,0,0,66.44,29Z"/><path class="cls-4" d="M66.44,73.72H58a2.65,2.65,0,0,1-1.88-.78L44.77,61.62,33.46,72.94a2.67,2.67,0,0,1-1.89.78h-7.8A15.47,15.47,0,0,1,8.32,58.27V41.73A15.47,15.47,0,0,1,23.77,26.28H66.44A15.47,15.47,0,0,1,81.89,41.73V58.27A15.47,15.47,0,0,1,66.44,73.72Zm-7.37-5.33h7.37A10.13,10.13,0,0,0,76.56,58.27V41.73A10.13,10.13,0,0,0,66.44,31.61H23.77A10.13,10.13,0,0,0,13.65,41.73V58.27A10.13,10.13,0,0,0,23.77,68.39h6.7L42.89,56a2.67,2.67,0,0,1,3.77,0Z"/><path class="cls-5" d="M59.94,29H17.27A12.82,12.82,0,0,0,4.68,39.59H72.53A12.82,12.82,0,0,0,59.94,29Z"/><path class="cls-6" d="M72.72,41.73a12.61,12.61,0,0,0-.19-2.14H4.68a12.62,12.62,0,0,0-.2,2.14V44H72.72Z"/><rect class="cls-3" x="4.48" y="43.98" width="68.24" height="5.86"/><path class="cls-7" d="M4.48,49.84v8.43A12.82,12.82,0,0,0,17.27,71.05h7.8l13.2-13.2,13.2,13.2h8.47A12.82,12.82,0,0,0,72.72,58.27V49.84Z"/><path class="cls-4" d="M59.94,73.72H51.47a2.67,2.67,0,0,1-1.89-.78L38.27,61.62,27,72.94a2.67,2.67,0,0,1-1.88.78h-7.8A15.47,15.47,0,0,1,1.82,58.27V41.73A15.47,15.47,0,0,1,17.27,26.28H59.94A15.47,15.47,0,0,1,75.39,41.73V58.27A15.47,15.47,0,0,1,59.94,73.72Zm-7.37-5.33h7.37A10.13,10.13,0,0,0,70.06,58.27V41.73A10.13,10.13,0,0,0,59.94,31.61H17.27A10.13,10.13,0,0,0,7.15,41.73V58.27A10.13,10.13,0,0,0,17.27,68.39H24L36.38,56a2.67,2.67,0,0,1,1.89-.78h0a2.67,2.67,0,0,1,1.88.78Z"/><rect class="cls-3" x="76.63" y="33.94" width="6.21" height="25.94" rx="3.11" ry="3.11"/><path class="cls-8" d="M92.44,68.42a1.06,1.06,0,0,1-.59-.17c-8.2-5.4-8.45-13.07-8.46-13.39a1.08,1.08,0,0,1,1-1.09h0a1.06,1.06,0,0,1,1.06,1c0,.28.28,6.9,7.51,11.66a1.06,1.06,0,0,1-.59,2Z"/></svg>