<svg id="Layer_1" data-name="Layer 1" xmlns="http://www.w3.org/2000/svg" viewBox="0 0 100 100"><defs><style>.cls-1{fill:#fff;}.cls-2{fill:#9dc8dc;}.cls-3{fill:#3e3e3f;}</style></defs><title>swim goggles</title><rect class="cls-1" y="52.04" width="9.91" height="3.21"/><rect class="cls-1" x="5.47" y="44.11" width="3.21" height="9.91" transform="translate(-39.82 32.99) rotate(-62.87)"/><rect class="cls-1" x="90.09" y="57.18" width="9.91" height="3.21"/><rect class="cls-1" x="87.96" y="52.6" width="9.91" height="3.21" transform="translate(-14.5 48.34) rotate(-27.13)"/><path class="cls-1" d="M89.39,59.19l-1.73-2.7c4.23-2.7,6.41-5.18,6.32-7.17-.15-3.18-5.93-6.14-11-8.76C78.4,38.22,74.09,36,72.51,33.17a5.38,5.38,0,0,0-5.05-3.06,4.18,4.18,0,0,0-3.54,1.77,1.33,1.33,0,0,0,.3,1.5,3.35,3.35,0,0,1,0,4.31c-3.53,4.55-20.11,6.43-35.79-.34-4.08-1.76-7.4-1.81-9.89-.15-6.22,4.14-6.14,17.41-6.14,17.54l-3.21,0c0-.62-.11-15.14,7.57-20.26,3.45-2.29,7.8-2.34,12.94-.12,13.22,5.7,26.22,4.67,30.84,2.17,1.09-.58,1.24-1,1.25-1a1.38,1.38,0,0,0-.11-.17A4.56,4.56,0,0,1,61,30.52c1-2.07,3.52-3.53,6.34-3.63a8.59,8.59,0,0,1,8,4.72c1.1,2,5.17,4.07,9.1,6.09C90.58,40.86,97,44.13,97.19,49.17,97.35,52.47,94.8,55.74,89.39,59.19Z"/><path class="cls-1" d="M56,63.73a14.49,14.49,0,0,0-14.47,0q-6.8-4.11,0-8.22a14.54,14.54,0,0,0,14.47,0Q62.8,59.62,56,63.73Z"/><ellipse class="cls-2" cx="23.61" cy="59.23" rx="14.95" ry="11.75"/><path class="cls-3" d="M23.61,49.62c7.08,0,12.82,4.3,12.82,9.61s-5.74,9.61-12.82,9.61S10.8,64.54,10.8,59.23s5.73-9.61,12.81-9.61m0-4.27C14,45.35,6.53,51.44,6.53,59.23S14,73.11,23.61,73.11,40.7,67,40.7,59.23,33.19,45.35,23.61,45.35Z"/><path class="cls-1" d="M18.24,52.89a6,6,0,0,1-1.51,3.44,6,6,0,0,1-3.43,1.51,6,6,0,0,1,1.51-3.44A6,6,0,0,1,18.24,52.89Z"/><path class="cls-1" d="M21.2,55.85a6,6,0,0,1-1.51,3.44,6.06,6.06,0,0,1-3.44,1.51,6,6,0,0,1,1.52-3.44A6,6,0,0,1,21.2,55.85Z"/><path class="cls-2" d="M73.92,71c-8.25,0-15-5.27-15-11.75s6.7-11.75,15-11.75,15,5.27,15,11.75S82.16,71,73.92,71Z"/><path class="cls-3" d="M73.92,49.62c7.08,0,12.81,4.3,12.81,9.61S81,68.84,73.92,68.84,61.1,64.54,61.1,59.23s5.74-9.61,12.82-9.61m0-4.27c-9.58,0-17.09,6.09-17.09,13.88s7.51,13.88,17.09,13.88S91,67,91,59.23,83.5,45.35,73.92,45.35Z"/><path class="cls-1" d="M68.55,52.89a5.17,5.17,0,0,1-4.95,5,5.17,5.17,0,0,1,4.95-5Z"/><path class="cls-1" d="M71.51,55.85a5.17,5.17,0,0,1-5,4.95,5.17,5.17,0,0,1,5-4.95Z"/></svg>