<svg id="Layer_1" data-name="Layer 1" xmlns="http://www.w3.org/2000/svg" viewBox="0 0 100 100"><defs><style>.cls-1{fill:#f37d3b;}.cls-2{fill:#9c9c9c;}.cls-3{fill:#fff;}.cls-4{fill:#d76f34;}.cls-5{fill:#757575;}.cls-6{fill:gray;}.cls-7{fill:#4d4d4d;}.cls-8{fill:#f69a85;}.cls-9{fill:#f2797a;}</style></defs><title>cyborg</title><rect class="cls-1" y="30.63" width="9.69" height="7.65" rx="1.61" ry="1.61"/><rect class="cls-1" x="47.32" y="30.63" width="9.69" height="7.65" rx="1.61" ry="1.61"/><path class="cls-2" d="M45.73,25.73H11.94a8.73,8.73,0,1,0,0,17.45H24l3.88-3.3a1.48,1.48,0,0,1,1.9,0l3.89,3.3H45.73a8.73,8.73,0,0,0,0-17.45Z"/><path class="cls-2" d="M8.23,37.9V24.63a20,20,0,0,1,20-20h0a20,20,0,0,1,20,20V37.9"/><rect class="cls-1" x="8.6" y="29.65" width="40.22" height="9.61" rx="2.03" ry="2.03"/><rect class="cls-3" x="11.57" y="32.85" width="34.53" height="2.16" rx="0.45" ry="0.45"/><path class="cls-1" d="M91.18,57.47a2,2,0,0,1-1.42-3.4c13.79-14,.57-27.5,0-28.07a2,2,0,0,1,2.83-2.82c.17.16,16.57,17,0,33.7A2,2,0,0,1,91.18,57.47Z"/><path class="cls-4" d="M92.6,56.88l-2.84-2.81c.58-.6,1.13-1.19,1.62-1.79l3.07,2.56C93.89,55.52,93.27,56.2,92.6,56.88ZM97,51.32l-3.44-2A19.35,19.35,0,0,0,95.06,46l3.76,1.34A21.58,21.58,0,0,1,97,51.32Zm2.89-8.26-4-.5a17,17,0,0,0,.12-2c0-.53,0-1-.07-1.57l4-.37c.06.63.09,1.28.09,1.93A19.41,19.41,0,0,1,99.84,43.06Zm-4.61-7.59a21.4,21.4,0,0,0-1.34-3.42l3.6-1.75a26.87,26.87,0,0,1,1.58,4ZM92,28.85A22.87,22.87,0,0,0,89.76,26l2.83-2.82a24.45,24.45,0,0,1,2.74,3.41Z"/><rect class="cls-5" x="85.99" y="18" width="6.5" height="13.17" rx="1.37" ry="1.37"/><rect class="cls-5" x="85.99" y="48.89" width="6.5" height="13.17" rx="1.37" ry="1.37"/><rect class="cls-2" x="69.16" y="79.41" width="5.2" height="12.93" rx="1.1" ry="1.1"/><rect class="cls-6" x="69.84" y="71.5" width="3.83" height="13.42" rx="0.81" ry="0.81"/><rect class="cls-6" x="67.8" y="64.96" width="3.83" height="13.42" rx="0.81" ry="0.81" transform="translate(71.1 -28.31) rotate(45)"/><rect class="cls-2" x="75" y="81" width="5.2" height="12.93" rx="1.1" ry="1.1"/><rect class="cls-2" x="80.83" y="81" width="5.2" height="12.93" rx="1.1" ry="1.1"/><rect class="cls-2" x="86.66" y="81" width="5.2" height="12.93" rx="1.1" ry="1.1"/><rect class="cls-6" x="75.68" y="71.5" width="3.83" height="13.42" rx="0.81" ry="0.81"/><rect class="cls-6" x="81.51" y="71.5" width="3.83" height="13.42" rx="0.81" ry="0.81"/><rect class="cls-6" x="87.34" y="71.5" width="3.83" height="13.42" rx="0.81" ry="0.81"/><rect class="cls-2" x="69.57" y="65.14" width="21.89" height="13.78" rx="2.9" ry="2.9"/><rect class="cls-2" x="63.7" y="71.75" width="5.2" height="12.93" rx="1.1" ry="1.1"/><rect class="cls-2" x="71.76" y="40.67" width="16.48" height="29.61" rx="3.47" ry="3.47"/><rect class="cls-2" x="69.09" y="5.7" width="20.48" height="36.8" rx="4.32" ry="4.32"/><rect class="cls-1" x="76.46" y="57.09" width="1.92" height="13.83" rx="0.4" ry="0.4"/><rect class="cls-1" x="81.62" y="57.09" width="1.92" height="13.83" rx="0.4" ry="0.4"/><rect class="cls-1" x="76.46" y="34.34" width="1.92" height="13.83" rx="0.4" ry="0.4"/><rect class="cls-1" x="81.62" y="34.34" width="1.92" height="13.83" rx="0.4" ry="0.4"/><ellipse class="cls-7" cx="79.34" cy="12.65" rx="7.16" ry="4.13"/><path class="cls-8" d="M27.35,51.41a8.66,8.66,0,0,0-6.4.22h0A8.55,8.55,0,0,0,16.29,56a3.59,3.59,0,0,0,.51,4.06,3.6,3.6,0,0,0-4.06-.52A9.11,9.11,0,0,0,8.15,70.61a3.63,3.63,0,0,0,3.24,2.5,3.63,3.63,0,0,0-3.24,2.51,9.09,9.09,0,0,0,4.59,11.06,3.6,3.6,0,0,0,4.06-.51,3.59,3.59,0,0,0-.51,4.06A8.58,8.58,0,0,0,21,94.6h0a8.6,8.6,0,0,0,6.4.21,3.61,3.61,0,0,0,2.5-3.24V54.65A3.61,3.61,0,0,0,27.35,51.41ZM24.88,77.67h0Zm0-9.11v0h0Z"/><path class="cls-9" d="M21.14,59.64a3.33,3.33,0,0,0,2-.69c.43-.27.61-.37.88-.35a1.36,1.36,0,0,1,1,.67,2.21,2.21,0,0,1-1,2.32c-.56.3-1.26.06-2.36-.36s-2.74-1-4.17-.12a4.34,4.34,0,0,0-1.33,5.44c.68,1.1,2,1.66,4.1,1.66a36.41,36.41,0,0,0,9.55-1.89V63.59c-10.3,3.17-11.39,1.65-11.43,1.58A1.84,1.84,0,0,1,19,63.3c.31-.2,1.08.09,1.82.37,1.21.47,2.87,1.11,4.51.24,1.8-1,3.13-3.67,2.16-5.75A4,4,0,0,0,24.23,56a3.78,3.78,0,0,0-2.49.76,3.87,3.87,0,0,1-.41.24,11.41,11.41,0,0,1-2.6-4l-.23.1A8.05,8.05,0,0,0,16.79,55C17.81,57.06,19.51,59.59,21.14,59.64Z"/><path class="cls-9" d="M15.36,79a2.63,2.63,0,0,0,.7-.1c1.2-.31,1.71-1.38,2.16-2.32l.31-.61a4.52,4.52,0,0,0-1-.94L19,72.84a6.93,6.93,0,0,1,1.22,1l.37-.28c1.34-.9,3.31-1.53,4.16-1,.23.15.33.37.56,1A7.09,7.09,0,0,0,26.9,76.3a7.72,7.72,0,0,0,3,1.87V75.3a4.88,4.88,0,0,1-1.08-.82,4.94,4.94,0,0,1-1.06-1.82,4.07,4.07,0,0,0-1.55-2.23c-2.24-1.49-5.5-.08-7.08,1a9.31,9.31,0,0,0-3.22,4,5.26,5.26,0,0,1-.49.91C15,76.26,13,75.27,8,65.26a8.43,8.43,0,0,0,.14,5.35,3.63,3.63,0,0,0,3.24,2.5,3,3,0,0,0-1.74.57C12.35,77.94,14,79,15.36,79Z"/><path class="cls-9" d="M18.22,83.94a6.81,6.81,0,0,0,3.53-3.37,6.19,6.19,0,0,0-.24-4.7,6.82,6.82,0,0,0-1.33-2A6.1,6.1,0,0,0,18.53,76a4.29,4.29,0,0,1,.58.94,3.65,3.65,0,0,1,.2,2.72,4.58,4.58,0,0,1-2.26,2,14.4,14.4,0,0,1-8.37,1.06,9.29,9.29,0,0,0,2.13,2.79h.44A15.49,15.49,0,0,0,18.22,83.94Z"/><path class="cls-9" d="M19,72.84,17.51,75a4.52,4.52,0,0,1,1,.94,6.1,6.1,0,0,1,1.65-2.1A6.93,6.93,0,0,0,19,72.84Z"/><path class="cls-9" d="M29.85,81.64a1.32,1.32,0,0,0-.43.39c-.7,1-1.29,1.39-1.53,1.39s-.19-.07-.46-.26a3.54,3.54,0,0,0-1.63-.76c-1.59-.24-3.19.77-4.91,3.08a1.3,1.3,0,0,0,.28,1.83,1.29,1.29,0,0,0,.77.25A1.33,1.33,0,0,0,23,87C24.56,84.93,25.32,85,25.4,85a1.21,1.21,0,0,1,.49.28,3,3,0,0,0,4,.08V81.64Z"/><path class="cls-8" d="M32.11,54.65V91.57a3.62,3.62,0,0,0,2.5,3.24A8.6,8.6,0,0,0,41,94.6h0a8.55,8.55,0,0,0,4.66-4.37,3.59,3.59,0,0,0-.51-4.06,3.6,3.6,0,0,0,4.06.51,9.09,9.09,0,0,0,4.59-11.06,3.62,3.62,0,0,0-3.24-2.51,3.62,3.62,0,0,0,3.24-2.5,9.11,9.11,0,0,0-4.59-11.07,3.6,3.6,0,0,0-4.06.52A3.59,3.59,0,0,0,45.67,56,8.52,8.52,0,0,0,41,51.63h0a8.66,8.66,0,0,0-6.4-.22A3.62,3.62,0,0,0,32.11,54.65Zm5,23h0Zm-.21-9.14h.21v0Z"/><path class="cls-9" d="M40.82,59.64a3.33,3.33,0,0,1-2-.69c-.43-.27-.61-.37-.88-.35a1.36,1.36,0,0,0-1,.67,2.21,2.21,0,0,0,1,2.32c.56.3,1.26.06,2.36-.36s2.74-1,4.17-.12a4.34,4.34,0,0,1,1.33,5.44c-.68,1.1-2,1.66-4.1,1.66a36.41,36.41,0,0,1-9.55-1.89V63.59c10.3,3.17,11.39,1.65,11.43,1.58A1.84,1.84,0,0,0,43,63.3c-.31-.2-1.08.09-1.81.37-1.22.47-2.88,1.11-4.52.24-1.8-1-3.13-3.67-2.16-5.75A4,4,0,0,1,37.73,56a3.78,3.78,0,0,1,2.49.76,3.87,3.87,0,0,0,.41.24,11.41,11.41,0,0,0,2.6-4l.23.1A8.05,8.05,0,0,1,45.17,55C44.16,57.06,42.45,59.59,40.82,59.64Z"/><path class="cls-9" d="M46.6,79a2.69,2.69,0,0,1-.7-.1c-1.2-.31-1.71-1.38-2.16-2.32L43.43,76a4.52,4.52,0,0,1,1-.94L43,72.84a6.93,6.93,0,0,0-1.22,1l-.37-.28c-1.34-.9-3.31-1.53-4.16-1-.23.15-.33.37-.55,1a7.27,7.27,0,0,1-1.64,2.72,7.64,7.64,0,0,1-3,1.87V75.3a4.88,4.88,0,0,0,1.08-.82,4.81,4.81,0,0,0,1.06-1.82,4.07,4.07,0,0,1,1.55-2.23c2.24-1.49,5.51-.08,7.08,1a9.31,9.31,0,0,1,3.22,4,5.26,5.26,0,0,0,.49.91C47,76.26,49,75.27,54,65.26a8.36,8.36,0,0,1-.14,5.35,3.62,3.62,0,0,1-3.24,2.5,3,3,0,0,1,1.74.57C49.61,77.94,47.92,79,46.6,79Z"/><path class="cls-9" d="M43.74,83.94a6.81,6.81,0,0,1-3.53-3.37,6.19,6.19,0,0,1,.24-4.7,6.82,6.82,0,0,1,1.33-2A6.1,6.1,0,0,1,43.43,76a4.29,4.29,0,0,0-.58.94,3.65,3.65,0,0,0-.2,2.72,4.58,4.58,0,0,0,2.26,2,14.4,14.4,0,0,0,8.37,1.06,9.29,9.29,0,0,1-2.13,2.79h-.44A15.49,15.49,0,0,1,43.74,83.94Z"/><path class="cls-9" d="M43,72.84,44.45,75a4.52,4.52,0,0,0-1,.94,6.1,6.1,0,0,0-1.65-2.1A6.93,6.93,0,0,1,43,72.84Z"/><path class="cls-9" d="M32.11,81.64a1.32,1.32,0,0,1,.43.39c.7,1,1.29,1.39,1.53,1.39.09,0,.19-.07.46-.26a3.54,3.54,0,0,1,1.63-.76c1.59-.24,3.19.77,4.91,3.08a1.3,1.3,0,0,1-.28,1.83,1.29,1.29,0,0,1-.77.25A1.33,1.33,0,0,1,39,87C37.4,84.93,36.64,85,36.56,85a1.21,1.21,0,0,0-.49.28,3,3,0,0,1-4,.08V81.64Z"/></svg>