<svg id="Layer_1" data-name="Layer 1" xmlns="http://www.w3.org/2000/svg" viewBox="0 0 100 100"><defs><style>.cls-1{fill:#9dc8dc;}.cls-2{fill:#09a582;}.cls-3{fill:#079374;}.cls-4{fill:#171717;}.cls-5{fill:#87acbe;}</style></defs><title>mermaid</title><rect class="cls-1" x="36.69" y="32.84" width="54.48" height="5.32" rx="1.26" ry="1.26" transform="translate(43.83 -34.81) rotate(45)"/><rect class="cls-2" x="60.57" y="15.23" width="27.43" height="19.39" transform="translate(39.38 -45.23) rotate(45)"/><circle class="cls-2" cx="71.52" cy="10.57" r="2.66"/><circle class="cls-2" cx="75.44" cy="8.13" r="2.66"/><circle class="cls-2" cx="75.06" cy="4.75" r="2.66"/><circle class="cls-2" cx="78.19" cy="5.88" r="2.66"/><circle class="cls-2" cx="81.01" cy="3.98" r="2.66"/><circle class="cls-2" cx="82.29" cy="6.97" r="2.66"/><circle class="cls-2" cx="84.77" cy="6.19" r="2.66"/><circle class="cls-2" cx="87.97" cy="6.29" r="2.66"/><circle class="cls-2" cx="88.93" cy="9.09" r="2.66"/><circle class="cls-2" cx="91.73" cy="10.06" r="2.66"/><circle class="cls-2" cx="90.98" cy="11.9" r="2.66"/><circle class="cls-2" cx="93.07" cy="13.99" r="2.66"/><circle class="cls-2" cx="97.34" cy="14.99" r="2.66"/><circle class="cls-2" cx="93.25" cy="17.93" r="2.66"/><circle class="cls-2" cx="95.09" cy="19.02" r="2.66"/><circle class="cls-2" cx="92.59" cy="21.52" r="2.66"/><circle class="cls-2" cx="90.46" cy="24.48" r="2.66"/><circle class="cls-2" cx="91.29" cy="26.58" r="2.66"/><circle class="cls-2" cx="88.34" cy="28.19" r="2.66"/><path class="cls-3" d="M21.8,78.64c0,3.8-4.88,6.87-10.9,6.87S0,78.64,0,78.64s4.88-6.86,10.9-6.86S21.8,74.85,21.8,78.64Z"/><path class="cls-3" d="M20,76.88c-3.79,0-6.87,4.88-6.87,10.9S20,98.68,20,98.68s6.87-4.88,6.87-10.9S23.83,76.88,20,76.88Z"/><path class="cls-2" d="M59.77,59.26C57.91,61.12,21.51,88.42,15.89,82.8s21.67-42,23.53-43.89,7.92,1.2,13.54,6.82S61.63,57.41,59.77,59.26Z"/><polygon class="cls-3" points="40.92 41.61 45.33 46.02 40.17 46.77 40.92 41.61"/><polygon class="cls-3" points="46.79 47.48 51.2 51.89 46.04 52.64 46.79 47.48"/><polygon class="cls-3" points="52.66 53.35 57.07 57.76 51.91 58.51 52.66 53.35"/><polygon class="cls-3" points="31.52 51.02 35.92 55.42 30.77 56.17 31.52 51.02"/><polygon class="cls-3" points="37.39 56.89 41.8 61.29 36.64 62.04 37.39 56.89"/><polygon class="cls-3" points="43.26 62.76 47.67 67.17 42.51 67.91 43.26 62.76"/><polygon class="cls-3" points="39 49.41 43.4 53.81 38.25 54.56 39 49.41"/><polygon class="cls-3" points="44.87 55.28 49.27 59.69 44.12 60.44 44.87 55.28"/><polygon class="cls-3" points="28.5 59.9 32.91 64.31 27.75 65.06 28.5 59.9"/><polygon class="cls-3" points="34.37 65.77 38.78 70.18 33.62 70.93 34.37 65.77"/><polygon class="cls-3" points="26.46 67.82 30.86 72.22 25.71 72.97 26.46 67.82"/><polygon class="cls-3" points="20.46 73.81 24.87 78.22 19.71 78.97 20.46 73.81"/><rect class="cls-1" x="41.65" y="21.62" width="29" height="42.13" rx="6.84" ry="6.84" transform="translate(46.63 -27.2) rotate(45)"/><rect class="cls-2" x="60.03" y="21.17" width="4.43" height="30.84" rx="2.22" ry="2.22" transform="translate(-7.64 54.73) rotate(-45)"/><rect class="cls-2" x="49.72" y="24.81" width="4.63" height="6.94" rx="1.09" ry="1.09" transform="translate(35.23 -28.51) rotate(45)"/><rect class="cls-2" x="50.48" y="29.56" width="4.63" height="6.94" rx="1.09" ry="1.09" transform="translate(38.82 -27.66) rotate(45)"/><rect class="cls-2" x="54.11" y="30.6" width="4.63" height="6.94" rx="1.09" ry="1.09" transform="translate(40.62 -29.92) rotate(45)"/><rect class="cls-2" x="55.03" y="35.03" width="4.63" height="6.94" rx="1.09" ry="1.09" transform="translate(44.02 -29.27) rotate(45)"/><rect class="cls-2" x="57.19" y="35.46" width="4.63" height="6.94" rx="1.09" ry="1.09" transform="translate(44.95 -30.68) rotate(45)"/><rect class="cls-2" x="59.14" y="38.86" width="4.63" height="6.94" rx="1.09" ry="1.09" transform="translate(47.93 -31.05) rotate(45)"/><rect class="cls-2" x="68.15" y="43.45" width="4.63" height="6.94" rx="1.09" ry="1.09" transform="translate(53.81 -36.08) rotate(45)"/><rect class="cls-2" x="66.19" y="41.28" width="4.63" height="6.94" rx="1.09" ry="1.09" transform="translate(51.71 -35.33) rotate(45)"/><rect class="cls-2" x="62.71" y="39.72" width="4.63" height="6.94" rx="1.09" ry="1.09" transform="translate(49.58 -33.33) rotate(45)"/><rect class="cls-1" x="65.99" y="5.67" width="23.52" height="31.38" rx="5.55" ry="5.55" transform="translate(37.88 -48.72) rotate(45)"/><circle class="cls-4" cx="75.13" cy="13.63" r="1.11"/><circle class="cls-4" cx="85.55" cy="24.05" r="1.11"/><polygon class="cls-2" points="74.91 20.77 78.35 24.21 81.89 17.05 74.91 20.77"/><path class="cls-2" d="M86.71,7.18,78.22,5.36S77.78,12.78,87.07,20c0,0-4.17-6.27-2.15-8.52,0,0,1.64,8.69,7,13.14l2.41-7.77L92,11.55"/><rect class="cls-5" x="70.18" y="24.9" width="7.55" height="1.47" rx="0.35" ry="0.35" transform="translate(39.79 -44.79) rotate(45)"/><circle class="cls-2" cx="58.44" cy="31.51" r="4.16"/><circle class="cls-2" cx="67.99" cy="41.06" r="4.16"/></svg>