<svg id="Layer_1" data-name="Layer 1" xmlns="http://www.w3.org/2000/svg" viewBox="0 0 100 100"><defs><style>.cls-1{fill:#6ab8d9;}.cls-2{fill:#a9ccdd;}.cls-3{fill:#c2d4de;}.cls-4{fill:#8cc2db;}.cls-5{fill:#93c4db;}.cls-6{fill:#bcd2de;}.cls-7{fill:#b2ae4f;}.cls-8{fill:#fff;}.cls-9{fill:#069274;}.cls-10{fill:#ffc640;}.cls-11{fill:#231f20;}.cls-12{fill:#f37d3b;}.cls-13{fill:#b18348;}</style></defs><title>aquarium</title><path class="cls-1" d="M95.92,72.18V84.24H4.08V72.18H95.92m0-4.08H4.08A4.08,4.08,0,0,0,0,72.18V84.24a4.08,4.08,0,0,0,4.08,4.08H95.92A4.08,4.08,0,0,0,100,84.24V72.18a4.08,4.08,0,0,0-4.08-4.08Z"/><rect class="cls-2" x="4.08" y="43.88" width="91.84" height="40.36"/><rect class="cls-3" x="4.08" y="15.76" width="91.84" height="12.06"/><rect class="cls-4" x="4.08" y="31.82" width="91.84" height="12.06"/><rect class="cls-5" x="4.08" y="71.37" width="91.84" height="12.87"/><rect class="cls-1" x="4.08" y="43.88" width="91.84" height="40.36"/><rect class="cls-6" x="4.08" y="27.82" width="91.84" height="4"/><path class="cls-1" d="M95.92,15.76V27.82H4.08V15.76H95.92m0-4.08H4.08A4.08,4.08,0,0,0,0,15.76V27.82A4.08,4.08,0,0,0,4.08,31.9H95.92A4.08,4.08,0,0,0,100,27.82V15.76a4.08,4.08,0,0,0-4.08-4.08Z"/><rect class="cls-7" x="4.08" y="72.18" width="91.84" height="12.06"/><circle class="cls-7" cx="14.97" cy="73.87" r="7.39"/><circle class="cls-7" cx="23.19" cy="73.87" r="5.8"/><circle class="cls-7" cx="56.84" cy="73.87" r="5.8"/><circle class="cls-7" cx="66.11" cy="72.12" r="7.55"/><circle class="cls-8" cx="14.11" cy="59.35" r="2.08"/><circle class="cls-8" cx="18.53" cy="55.57" r="0.77"/><circle class="cls-8" cx="19.85" cy="58.58" r="0.77"/><circle class="cls-8" cx="25.4" cy="46.87" r="1.28"/><line class="cls-9" x1="85.58" y1="54.71" x2="85.58" y2="54.8"/><path class="cls-9" d="M84.5,50.5,81.62,53a.64.64,0,0,0,0,1l2.88,2.52A.66.66,0,0,0,85.58,56V56a.63.63,0,0,1-.48-.58.62.62,0,0,1,.48-.57v-.09a.58.58,0,0,1,0-1.15v-.09a.58.58,0,0,1,0-1.15v-.09a.62.62,0,0,1-.48-.57.63.63,0,0,1,.48-.58V51A.66.66,0,0,0,84.5,50.5Z"/><line class="cls-9" x1="78.07" y1="49.26" x2="78.07" y2="49.35"/><path class="cls-9" d="M77,45.06l-2.89,2.51a.66.66,0,0,0,0,1L77,51.06a.65.65,0,0,0,1.07-.49V50.5a.61.61,0,0,1-.47-.57.62.62,0,0,1,.47-.58v-.09a.61.61,0,0,1-.47-.57.62.62,0,0,1,.47-.58V48a.61.61,0,0,1-.47-.57.62.62,0,0,1,.47-.58v-.09a.61.61,0,0,1-.47-.57.63.63,0,0,1,.47-.58v-.09A.64.64,0,0,0,77,45.06Z"/><circle class="cls-10" cx="75.98" cy="53.5" r="6.44"/><circle class="cls-11" cx="73.92" cy="52.32" r="0.52"/><rect class="cls-10" x="67.72" y="53.27" width="3.11" height="1.45" rx="0.36" ry="0.36"/><rect class="cls-10" x="67.72" y="54.72" width="3.11" height="1.45" rx="0.36" ry="0.36"/><rect class="cls-9" x="75.98" y="54.97" width="3.41" height="2.55" rx="0.62" ry="0.62"/><circle class="cls-9" cx="73.04" cy="53.48" r="0.27"/><circle class="cls-9" cx="73.92" cy="53.48" r="0.27"/><circle class="cls-9" cx="74.81" cy="53.48" r="0.27"/><path class="cls-9" d="M79.68,48.25v0a6.12,6.12,0,0,0-1.41-.74L77,49.34Z"/><path class="cls-9" d="M79.71,48.24h0l-1.3,1.92,2.38-1A6.78,6.78,0,0,0,79.71,48.24Z"/><path class="cls-9" d="M79.73,51l1.81-.73a7.65,7.65,0,0,0-.67-.94Z"/><path class="cls-10" d="M41.41,58.91,43,60.26a.35.35,0,0,1,0,.53l-1.55,1.35a.35.35,0,0,1-.58-.27v0a.35.35,0,0,0,.26-.31.33.33,0,0,0-.26-.31v0a.33.33,0,0,0,.26-.31.35.35,0,0,0-.26-.31v0a.35.35,0,0,0,.26-.31.33.33,0,0,0-.26-.31v0a.33.33,0,0,0,.26-.31.35.35,0,0,0-.26-.31v0A.35.35,0,0,1,41.41,58.91Z"/><path class="cls-10" d="M45.44,56,47,57.33a.35.35,0,0,1,0,.53l-1.55,1.35a.35.35,0,0,1-.58-.26v0a.32.32,0,0,0,.26-.31.34.34,0,0,0-.26-.31v0a.31.31,0,0,0,0-.61v-.05a.31.31,0,0,0,0-.62v-.05a.32.32,0,0,0,.26-.31.34.34,0,0,0-.26-.31v0A.35.35,0,0,1,45.44,56Z"/><circle class="cls-12" cx="45.99" cy="60.52" r="3.46"/><circle class="cls-11" cx="47.1" cy="59.89" r="0.28"/><rect class="cls-12" x="48.76" y="60.4" width="1.67" height="0.78" rx="0.19" ry="0.19" transform="translate(99.19 121.58) rotate(-180)"/><rect class="cls-12" x="48.76" y="61.18" width="1.67" height="0.78" rx="0.19" ry="0.19" transform="translate(99.19 123.14) rotate(180)"/><rect class="cls-10" x="44.16" y="61.31" width="1.83" height="1.37" rx="0.34" ry="0.34" transform="translate(90.15 123.99) rotate(-180)"/><circle class="cls-10" cx="47.57" cy="60.51" r="0.15"/><circle class="cls-10" cx="47.1" cy="60.51" r="0.15"/><circle class="cls-10" cx="46.62" cy="60.51" r="0.15"/><path class="cls-10" d="M44,57.7h0a4,4,0,0,1,.77-.4l.67,1Z"/><path class="cls-10" d="M44,57.7h0l.7,1-1.28-.52A3.06,3.06,0,0,1,44,57.7Z"/><path class="cls-10" d="M44,59.18l-1-.4a3.75,3.75,0,0,1,.36-.5Z"/><path class="cls-13" d="M33.62,74.31c0-2.06-.88-3.73-2-3.73s-2,1.67-2,3.73a7.28,7.28,0,0,0,.12,1.26,20.18,20.18,0,0,1,3.56.58A6.59,6.59,0,0,0,33.62,74.31Z"/><path class="cls-13" d="M33.9,66.52c-1-1.79-6.38-.74-12.09,2.35-4.81,2.61-8.25,5.82-8.64,7.84,4-.23,8-.89,11.77-1.14.13-.07.26-.12.4-.2C31,72.28,34.88,68.32,33.9,66.52Z"/><ellipse class="cls-13" cx="57.32" cy="80.06" rx="2.29" ry="1.21"/><ellipse class="cls-13" cx="65.73" cy="77.66" rx="3.09" ry="1.51"/><ellipse class="cls-13" cx="86.04" cy="79.45" rx="1.27" ry="0.61"/><rect class="cls-1" x="2.04" y="28.97" width="4.08" height="55.27"/><rect class="cls-1" x="93.88" y="28.97" width="4.08" height="55.27"/><path class="cls-8" d="M11.28,37.4a2.46,2.46,0,1,1,4.92,0"/><path class="cls-8" d="M33.62,42.4a1.55,1.55,0,0,1,3.1,0"/></svg>