<svg id="Layer_1" data-name="Layer 1" xmlns="http://www.w3.org/2000/svg" viewBox="0 0 100 100"><defs><style>.cls-1{fill:#3e545f;}.cls-2{fill:#56707d;}.cls-3{fill:#09a582;}.cls-4{fill:#ffc63f;}.cls-5{fill:#069172;}.cls-6{fill:#f37d3b;}</style></defs><title>alien</title><polyline class="cls-1" points="33.76 82.63 26.56 86.12 27.43 96.22 30.49 88.37 37.9 85.97"/><polyline class="cls-1" points="38.05 84.52 30.85 88.01 31.72 98.11 34.77 90.26 42.19 87.86"/><polyline class="cls-1" points="42.33 86.41 35.14 89.9 36.01 100 39.06 92.15 46.48 89.75"/><polyline class="cls-1" points="68.88 82.63 76.08 86.12 75.2 96.22 72.15 88.37 64.74 85.97"/><polyline class="cls-1" points="64.59 84.52 71.79 88.01 70.92 98.11 67.86 90.26 60.45 87.86"/><polyline class="cls-1" points="60.31 86.41 67.5 89.9 66.63 100 63.58 92.15 56.16 89.75"/><ellipse class="cls-2" cx="50.77" cy="67.05" rx="13.5" ry="15.07"/><ellipse class="cls-2" cx="50.47" cy="80.8" rx="18.86" ry="11.21"/><path class="cls-3" d="M75.33,24.85c0,13.73-11.13,38.81-24.86,38.81S25.62,38.58,25.62,24.85a24.86,24.86,0,0,1,49.71,0Z"/><ellipse class="cls-3" cx="72.64" cy="30.38" rx="6.76" ry="10.9"/><ellipse class="cls-4" cx="76.64" cy="30.69" rx="4.36" ry="7.36"/><path class="cls-3" d="M76.64,39.21c-3.1,0-5.53-3.74-5.53-8.52s2.43-8.52,5.53-8.52,5.52,3.74,5.52,8.52S79.73,39.21,76.64,39.21Zm0-14.72c-1.52,0-3.2,2.55-3.2,6.2s1.68,6.19,3.2,6.19,3.19-2.54,3.19-6.19S78.15,24.49,76.64,24.49Z"/><ellipse class="cls-3" cx="27.36" cy="30.43" rx="6.76" ry="10.9"/><ellipse class="cls-4" cx="23.36" cy="30.74" rx="4.36" ry="7.36"/><path class="cls-3" d="M23.36,39.26c-3.09,0-5.52-3.74-5.52-8.52s2.43-8.52,5.52-8.52,5.53,3.74,5.53,8.52S26.46,39.26,23.36,39.26Zm0-14.72c-1.51,0-3.19,2.55-3.19,6.2s1.68,6.19,3.19,6.19,3.2-2.54,3.2-6.19S24.88,24.54,23.36,24.54Z"/><ellipse class="cls-5" cx="44.95" cy="36.59" rx="0.87" ry="5.85"/><ellipse class="cls-5" cx="55.85" cy="36.59" rx="0.87" ry="5.85"/><path class="cls-2" d="M63.78,62.37A3,3,0,1,0,60,67l7.68,6.25L71.94,69Z"/><path class="cls-3" d="M73.81,70.54,71.94,69l-4.27,4.27L70,75.2a3,3,0,0,0,3.79-4.66Z"/><path class="cls-3" d="M28.23,70.54A3,3,0,1,0,32,75.2l4.07-3.32-4.27-4.27Z"/><path class="cls-2" d="M42.48,62.8a3,3,0,0,0-4.22-.43l-6.44,5.24,4.27,4.27,6-4.85A3,3,0,0,0,42.48,62.8Z"/><polygon class="cls-6" points="61.81 21.56 39.13 21.56 39.13 8.58 41.46 8.58 41.46 19.23 59.48 19.23 59.48 10.9 44.37 10.9 44.37 14.29 50.11 14.29 50.11 11.48 55.27 11.48 55.27 15.75 52.94 15.75 52.94 13.81 52.44 13.81 52.44 16.62 42.04 16.62 42.04 8.58 61.81 8.58 61.81 21.56"/><rect class="cls-6" x="46.31" y="24.56" width="8.14" height="2.33"/><rect class="cls-6" x="49.21" y="25.73" width="2.33" height="11.24"/><rect class="cls-6" x="49.21" y="40.75" width="2.33" height="5.62"/><rect class="cls-6" x="49.21" y="50.44" width="2.33" height="2.57"/><rect class="cls-6" x="41.56" y="27.52" width="2.52" height="2.33"/><rect class="cls-6" x="56.72" y="27.52" width="2.52" height="2.33"/><circle class="cls-1" cx="47.78" cy="65.26" r="0.94"/><circle class="cls-1" cx="47.78" cy="70.75" r="0.94"/><circle class="cls-1" cx="47.78" cy="76.23" r="0.94"/><circle class="cls-1" cx="47.78" cy="81.72" r="0.94"/><rect class="cls-1" x="50.38" y="64.68" width="0.86" height="19.04" rx="0.18" ry="0.18"/><ellipse class="cls-5" cx="62.1" cy="50.47" rx="1.07" ry="2.14"/><ellipse class="cls-5" cx="64.87" cy="28.58" rx="0.54" ry="1.07"/></svg>