<svg id="Layer_1" data-name="Layer 1" xmlns="http://www.w3.org/2000/svg" viewBox="0 0 100 100"><defs><style>.cls-1{fill:#008367;}.cls-2{fill:#d0d2d3;}.cls-3{fill:#fff;}.cls-4{fill:#714c48;}.cls-5{fill:#09a582;}.cls-6{fill:#007359;}</style></defs><title>book</title><rect class="cls-1" x="14.39" width="78.3" height="100" rx="3.04" ry="3.04"/><rect class="cls-2" x="13.42" y="1.15" width="76.6" height="97.71" rx="2.97" ry="2.97"/><rect class="cls-3" x="11.52" y="1.15" width="76.6" height="97.71" rx="2.97" ry="2.97"/><rect class="cls-2" x="9.95" y="1.15" width="76.6" height="97.71" rx="2.97" ry="2.97"/><rect class="cls-3" x="8.05" y="1.15" width="76.6" height="97.71" rx="2.97" ry="2.97"/><path class="cls-4" d="M10.57,0C8.78,0,7.31,2.93,7.31,6.51v87c0,3.58,1.47,6.51,3.26,6.51H14.5V0Z"/><path class="cls-5" d="M71.91,0H14.5V100H71.91a6.52,6.52,0,0,0,6.51-6.51v-87A6.52,6.52,0,0,0,71.91,0Z"/><path class="cls-5" d="M74.49,0H17.08V100H74.49A6.53,6.53,0,0,0,81,93.49v-87A6.53,6.53,0,0,0,74.49,0Z"/><rect class="cls-6" x="21.37" y="15.05" width="47.22" height="14.16" rx="1.39" ry="1.39"/><rect class="cls-6" x="22.64" y="91.41" width="41.23" height="2.17" rx="0.51" ry="0.51"/><rect class="cls-6" x="22.64" y="86.8" width="26.4" height="2.17" rx="0.41" ry="0.41"/></svg>