<svg id="Layer_1" data-name="Layer 1" xmlns="http://www.w3.org/2000/svg" viewBox="0 0 100 100"><defs><style>.cls-1{fill:#6d4945;}.cls-2{fill:#5a9eba;}.cls-3{fill:#6ab8d9;}.cls-4{fill:#616161;}.cls-5{fill:#7d7d7d;}.cls-6{fill:#447d93;}.cls-7{fill:#ebf7fd;}</style></defs><title>dam</title><path class="cls-1" d="M93.12,42.8l-20,23.65c2.14,1.5,4.12,4,4.12,6.78,0,1.34.39,3.14-.18,4.26l18.07-18.1h.87a4,4,0,0,0,4-4V39.83Z"/><path class="cls-2" d="M96.05,6.53H37.81a4,4,0,0,0-4,4v8.67c0,2.18,42.46,45,42.46,45L95.18,45.26h.87a4,4,0,0,0,4-4V10.49A4,4,0,0,0,96.05,6.53Z"/><path class="cls-3" d="M96.78,8.32a8.23,8.23,0,0,0-5.07-1.79H42.15a8.08,8.08,0,0,0-3.81,1L36.26,9,16.69,28.67H70.25A8.28,8.28,0,0,1,75,30.18L96.24,8.93l.61-.61Z"/><path class="cls-4" d="M77.16,29.23a5,5,0,0,0-5-5h-49c-2.73,0-6.9,3.29-6.9,6l1.93,23.2L75,72.8h2.17Z"/><path class="cls-5" d="M75.14,31.25a5,5,0,0,0-5-5h-49a5,5,0,0,0-5,5V68.59h59Z"/><path class="cls-2" d="M53,78.65,64,90.78,77.27,77.33a8.15,8.15,0,0,0,.92-3.71,8.28,8.28,0,0,0-3.55-6.78Z"/><path class="cls-3" d="M74.71,66.89A8.2,8.2,0,0,0,70,65.38H16.39l-5.32,5.36L3.19,78.65H63L71.5,70.1h0Z"/><path class="cls-6" d="M57.85,76.88H8.29a8.3,8.3,0,0,0,0,16.59H57.85a8.3,8.3,0,1,0,0-16.59Z"/><polygon class="cls-2" points="27.19 71.81 44.67 71.81 35.93 69.62 27.19 71.81"/><polygon class="cls-2" points="47.43 21.27 64.91 21.27 56.17 19.09 47.43 21.27"/><polygon class="cls-2" points="38.48 74.38 47.93 74.38 43.2 73.16 38.48 74.38"/><polygon class="cls-2" points="10.11 74.38 19.55 74.38 14.83 73.16 10.11 74.38"/><polygon class="cls-2" points="56.17 71.97 62.91 71.97 59.54 70.41 56.17 71.97"/><polygon class="cls-2" points="39.83 11.68 46.58 11.68 43.2 10.12 39.83 11.68"/><path class="cls-3" d="M23.52,31.93a4,4,0,0,0-4,4V66.14h8V35.91A4,4,0,0,0,23.52,31.93Z"/><path class="cls-3" d="M37.05,31.93a4,4,0,0,0-4,4V66.14h8V35.91A4,4,0,0,0,37.05,31.93Z"/><path class="cls-3" d="M50.57,31.93a4,4,0,0,0-4,4V66.14h7.95V35.91A4,4,0,0,0,50.57,31.93Z"/><path class="cls-3" d="M64.1,31.93a4,4,0,0,0-4,4V66.14h7.95V35.91A4,4,0,0,0,64.1,31.93Z"/><circle class="cls-7" cx="22.68" cy="64.41" r="2.78"/><circle class="cls-7" cx="22.78" cy="60.58" r="1.9"/><circle class="cls-7" cx="19.63" cy="62.46" r="2.47"/><circle class="cls-7" cx="19.21" cy="65.48" r="2.14"/><circle class="cls-7" cx="25.37" cy="64.96" r="2"/><circle class="cls-7" cx="27.34" cy="64.18" r="2.03"/><circle class="cls-7" cx="28.49" cy="62.86" r="2.15"/><circle class="cls-7" cx="30.13" cy="61.21" r="1.9"/><circle class="cls-7" cx="30.49" cy="58.88" r="1.22"/><circle class="cls-7" cx="19.43" cy="58.77" r="1.22"/><circle class="cls-7" cx="30.7" cy="56.94" r="0.94"/><circle class="cls-7" cx="18.83" cy="57.49" r="0.94"/><circle class="cls-7" cx="18.78" cy="59.82" r="0.94"/><circle class="cls-7" cx="35.75" cy="63.87" r="2.78"/><circle class="cls-7" cx="36.44" cy="60.58" r="1.9"/><circle class="cls-7" cx="32.7" cy="65.82" r="2.47"/><circle class="cls-7" cx="32.28" cy="62.8" r="2.14"/><circle class="cls-7" cx="38.44" cy="63.32" r="2"/><circle class="cls-7" cx="40.41" cy="64.1" r="2.03"/><circle class="cls-7" cx="41.56" cy="65.42" r="2.15"/><circle class="cls-7" cx="43.2" cy="67.07" r="1.9"/><circle class="cls-7" cx="36.21" cy="57.89" r="1.22"/><circle class="cls-7" cx="40.41" cy="56.35" r="0.94"/><circle class="cls-7" cx="32.7" cy="52.49" r="0.94"/><circle class="cls-7" cx="35.93" cy="56" r="0.94"/><circle class="cls-7" cx="50.13" cy="64.41" r="2.78"/><circle class="cls-7" cx="50.03" cy="60.58" r="1.9"/><circle class="cls-7" cx="53.18" cy="62.46" r="2.47"/><circle class="cls-7" cx="53.6" cy="65.48" r="2.14"/><circle class="cls-7" cx="47.44" cy="64.96" r="2"/><circle class="cls-7" cx="45.47" cy="64.18" r="2.03"/><circle class="cls-7" cx="44.32" cy="62.86" r="2.15"/><circle class="cls-7" cx="47.93" cy="67.19" r="1.9"/><circle class="cls-7" cx="45.47" cy="61.04" r="1.22"/><circle class="cls-7" cx="48.13" cy="58.88" r="1.22"/><circle class="cls-7" cx="49.07" cy="52.49" r="0.94"/><circle class="cls-7" cx="52.87" cy="56.94" r="0.94"/><circle class="cls-7" cx="54.03" cy="59.82" r="0.94"/><circle class="cls-7" cx="64.08" cy="64.41" r="2.78"/><circle class="cls-7" cx="63.98" cy="60.58" r="1.9"/><circle class="cls-7" cx="67.13" cy="62.46" r="2.47"/><circle class="cls-7" cx="67.56" cy="65.48" r="2.14"/><circle class="cls-7" cx="61.39" cy="64.96" r="2"/><circle class="cls-7" cx="59.42" cy="64.18" r="2.03"/><circle class="cls-7" cx="58.28" cy="62.86" r="2.15"/><circle class="cls-7" cx="61.88" cy="67.19" r="1.9"/><circle class="cls-7" cx="59.42" cy="61.04" r="1.22"/><circle class="cls-7" cx="62.08" cy="58.88" r="1.22"/><circle class="cls-7" cx="63.02" cy="52.49" r="0.94"/><circle class="cls-7" cx="66.82" cy="56.94" r="0.94"/><circle class="cls-7" cx="67.98" cy="59.82" r="0.94"/></svg>