<svg id="Layer_1" data-name="Layer 1" xmlns="http://www.w3.org/2000/svg" viewBox="0 0 100 100"><defs><style>.cls-1{fill:#ffc640;}.cls-2{fill:#6ab8d9;}.cls-3{fill:#447d93;}.cls-4{fill:#09a582;}.cls-5{fill:none;}.cls-6{fill:#b3b3b3;}.cls-7{fill:#8a8a8a;}.cls-8{fill:#58595b;}.cls-9{fill:#f37d3b;}</style></defs><title>internet</title><path class="cls-1" d="M47.33,92.26a41.64,41.64,0,0,1-6.88-1l.5-2.17a40.67,40.67,0,0,0,6.52,1Zm7-.13-.23-2.21a40.44,40.44,0,0,0,6.48-1.21l.58,2.15A42.79,42.79,0,0,1,54.29,92.13Zm-20.47-3a42.58,42.58,0,0,1-6.18-3.2l1.18-1.88a40.08,40.08,0,0,0,5.86,3Zm33.84-.65-.94-2a39.41,39.41,0,0,0,5.73-3.24l1.26,1.84A43,43,0,0,1,67.66,88.48ZM22.08,81.76a42.3,42.3,0,0,1-4.82-5L19,75.34a41.08,41.08,0,0,0,4.56,4.76Zm57-1.09-1.54-1.61a40,40,0,0,0,4.37-4.93l1.79,1.33A41.57,41.57,0,0,1,79.11,80.67ZM13.34,71a41.32,41.32,0,0,1-2.92-6.3l2.09-.77a39.85,39.85,0,0,0,2.76,6Zm74.09-1.42-2-1A40.27,40.27,0,0,0,88,62.47l2.12.68A42.38,42.38,0,0,1,87.43,69.58ZM8.58,58a41.11,41.11,0,0,1-.71-6.92l2.22,0a41.09,41.09,0,0,0,.67,6.56Zm83.11-1.61-2.21-.33a40.32,40.32,0,0,0,.43-5.83v-.74l2.22-.24v1A43.47,43.47,0,0,1,91.69,56.38ZM10.5,44.45l-2.2-.32a42.7,42.7,0,0,1,1.56-6.78L12,38A40.37,40.37,0,0,0,10.5,44.45Zm78.71-1.69a38.78,38.78,0,0,0-1.75-6.35l2.09-.77a41.92,41.92,0,0,1,1.85,6.71ZM14.5,31.94l-2-1A43.39,43.39,0,0,1,16.21,25L18,26.35A41.14,41.14,0,0,0,14.5,31.94Zm70.18-1.5A40.48,40.48,0,0,0,81,25l1.73-1.41a43.45,43.45,0,0,1,3.93,5.74Zm-62.32-9-1.54-1.6a42.86,42.86,0,0,1,5.39-4.39l1.26,1.84A39.1,39.1,0,0,0,22.36,21.41Zm54-1.15a39.74,39.74,0,0,0-5.28-3.93l1.17-1.89a42.06,42.06,0,0,1,5.58,4.15ZM33.19,14l-.94-2a42,42,0,0,1,6.54-2.4l.58,2.15A39.13,39.13,0,0,0,33.19,14Zm32.05-.69a39.54,39.54,0,0,0-6.28-2l.5-2.17a41.59,41.59,0,0,1,6.63,2.12Zm-19.39-2.8L45.62,8.3c1.2-.13,2.41-.2,3.61-.22H50c.86,0,1.71,0,2.56.08l-.13,2.22c-.81,0-1.62-.07-2.43-.07h-.74C48.13,10.32,47,10.39,45.85,10.51Z"/><path class="cls-2" d="M83.48,49.58A33.66,33.66,0,0,1,23.91,71.07,33.66,33.66,0,0,1,56.54,16.6a33.65,33.65,0,0,1,26.94,33Z"/><path class="cls-3" d="M37,31.88a.36.36,0,0,1,.21-.21C37.29,31.65,36.82,31.88,37,31.88Z"/><path class="cls-4" d="M33.49,32c.11-.39,0-.5-.13-.21C33.46,31.92,33.55,31.84,33.49,32Z"/><path class="cls-4" d="M31.86,35.92s-.13-.05-.17-.09S31.59,36.07,31.86,35.92Z"/><path class="cls-4" d="M32.53,32.56a.71.71,0,0,0,.26,0C32.64,32.44,32.63,32.55,32.53,32.56Z"/><path class="cls-4" d="M31.43,33.39c-.09.2-.12.36-.31.49.18,0,.25,0,.44,0a2.91,2.91,0,0,0-.34.84,6.55,6.55,0,0,1,.39-.53,1.48,1.48,0,0,0-.13.21,1.12,1.12,0,0,1,.22-.16c.08.26-.13.51-.14.86.29-.07.59-.1.88-.15-.31.26-.16.14-.16.37l.2.09a3,3,0,0,0,0,.52,1,1,0,0,0-.94.3c.65,0,0,.48-.33.55.45.18.88.39,1.34.09-.38.51-1.12.65-1.63,1a9.13,9.13,0,0,1,2-.36c.44-.05,1.17,0,1.45-.42L33.91,37c.18-.09.57-.28.58-.5s-.43-.44-.71-.36c.06-.33,0-.37-.29-.49a1.53,1.53,0,0,1,.36.07,2,2,0,0,0-1.69-1.48,1.65,1.65,0,0,0,.53-.13l-.3,0c1-.29.54-.88-.3-.72a4.52,4.52,0,0,1,.55-.61,1.9,1.9,0,0,0-.95.17A1.64,1.64,0,0,0,31.43,33.39Z"/><path class="cls-4" d="M31,34.53c0-.09.35-.26-.06-.09Q31,34.42,31,34.53Z"/><path class="cls-4" d="M31.27,34.23c-.12.05-.09.08-.17.13S31.21,34.36,31.27,34.23Z"/><path class="cls-4" d="M30.89,33.45a2.91,2.91,0,0,1,.32.24C31.31,33.45,31.17,33.36,30.89,33.45Z"/><path class="cls-4" d="M31.25,34c-.16,0-.27-.17-.24.14C31.19,34.15,31.27,34,31.25,34Z"/><path class="cls-4" d="M30.59,33.49c0,.1.06.25,0,0Z"/><path class="cls-4" d="M31.2,32.83c-.21.07-.37.13-.37.38C31,33.19,31.15,33,31.2,32.83Z"/><path class="cls-4" d="M49.32,40.22c-.36-.13-.18,0-.16,0S49.5,40.32,49.32,40.22Z"/><path class="cls-4" d="M41.46,34.16c.08-.2.19-.47.25-.64A.85.85,0,0,0,41.46,34.16Z"/><path class="cls-4" d="M42.6,33.22c-.33,0-.43.28-.35.53A1.44,1.44,0,0,0,42.6,33.22Z"/><path class="cls-4" d="M35.35,44l.16,0Z"/><path class="cls-4" d="M34.94,44a.82.82,0,0,0-.42.25C34.89,44.44,35.13,44.35,34.94,44Z"/><path class="cls-4" d="M34.12,44.58c-.07.05-.16,0-.2.12C34.07,44.76,34,44.64,34.12,44.58Z"/><path class="cls-4" d="M39.61,28.62h0Z"/><path class="cls-4" d="M39.61,28.62Z"/><path class="cls-4" d="M43.37,26.16c.21,0,.31.05.49-.13A2.53,2.53,0,0,0,43.37,26.16Z"/><path class="cls-4" d="M40.14,27.38c-.13.05-.24,0-.28.14C39.93,27.5,40.27,27.33,40.14,27.38Z"/><path class="cls-4" d="M41.19,27.13a1.11,1.11,0,0,0-.31.09.82.82,0,0,1,.13-.38l-.31.3c-.05-.16-.29-.11-.29-.05a.24.24,0,0,0,.27.07,1.33,1.33,0,0,1-.41.25A1.77,1.77,0,0,0,41.19,27.13Z"/><path class="cls-4" d="M42.18,26.33a1.89,1.89,0,0,0-.32.37,1.1,1.1,0,0,0,.52-.25A.45.45,0,0,1,42.18,26.33Z"/><path class="cls-4" d="M31.2,25.94,31,26Z"/><path class="cls-4" d="M31.26,25.92l.22-.08A.29.29,0,0,0,31.26,25.92Z"/><path class="cls-4" d="M43.67,26.25c.14.1.14,0,.29,0C43.92,26.22,43.77,26.14,43.67,26.25Z"/><path class="cls-4" d="M41.29,26.94a.91.91,0,0,0,.48-.14C41.54,26.66,41.42,26.67,41.29,26.94Z"/><path class="cls-4" d="M45.42,44.05a.64.64,0,0,0-.15-.13S45.42,44.11,45.42,44.05Z"/><path class="cls-5" d="M60.68,44.74c.21-.19-.2-.13.2-.18-.28-.36-.53-.2-.5-.88.45.33,1.21.2.66-.37-.34-.35-1-.36-.73.27-.26-.27-.1-.72-.34-1s-.5-.17-.68-.28c-.42-.28-.89-.87,0-.76-.75-.44.36-.61.73-.54-.28-.25-.2-.69-.46-.93s-1.08-.13-1.44.14c-.13.1-.27.37-.38.44a3,3,0,0,0-.43.1q-.28,0-.18.27a1,1,0,0,0,.23,1.11.36.36,0,0,1,.06-.2c-.18.82,1.16,1.88,1.76,2.2-.45,0-.52.41-.51.75a.51.51,0,0,0,0,.56,1.24,1.24,0,0,0,.69.6,3.72,3.72,0,0,0,2,.16c-.21.09,0,0,0,.07C61.24,45.91,61.29,44.72,60.68,44.74Z"/><path class="cls-5" d="M37.07,32.15a.36.36,0,0,1,.21-.21C37.39,31.92,36.93,32.15,37.07,32.15Z"/><path class="cls-5" d="M35.68,37.42s.16-.09.14-.1S35.63,37.43,35.68,37.42Z"/><path class="cls-5" d="M66.3,27.64a1.09,1.09,0,0,0-1-.38c.69.07.93.91,1.64.74C66.69,28,66.14,28,66.3,27.64Z"/><path class="cls-5" d="M67.24,25.9c-.15.27-.06.35.07.61.07-.46.33,0,.44.16C68,26.34,67.46,26,67.24,25.9Z"/><path class="cls-4" d="M83.06,54.65c.16-1.11.27-2.22.33-3.34a.13.13,0,0,1-.07.06c.29-.15.16-1.76.15-2.11,0-.75,0-1.49-.09-2.24a35.29,35.29,0,0,0-.61-4.35A33.53,33.53,0,0,0,80,34.59a34,34,0,0,0-4.65-7,34.48,34.48,0,0,0-2.93-3c-.5-.45-.87-.92-1.52-.94s-1.11,0-1.69,0a2.05,2.05,0,0,0,.49.06c-.76.17-1.53.3-2.3.41l.25.08a2.66,2.66,0,0,1-.49.1c.22.06.44.14.66.19a2.13,2.13,0,0,0-.44,0c.28,0,.52.19.79.25a4.68,4.68,0,0,1-.48.18,3.2,3.2,0,0,0,.43.17,1.84,1.84,0,0,1-.49-.19,1.68,1.68,0,0,0,.33-.16,14.18,14.18,0,0,0-2.35.12c.22.46,1.18.74,1.59,1-.75-.07-1.58-.6-2.32-.26,0,.08.33.13.38.14a5.89,5.89,0,0,0-.84,0,3.48,3.48,0,0,0,1.49.47A2.89,2.89,0,0,1,64.35,26c-.35-.24-.25-.63-.74-.71.41.29.09.55-.24.7.87.31.57,1.4,1.71,1.31-.29.07-.19.19-.22.29s.23.11,0,.5a1.18,1.18,0,0,1-1.85.36,2.35,2.35,0,0,1,.7,0,.12.12,0,0,0-.09.08,1.19,1.19,0,0,0,.46-.05L64,28.34c1.34-.4-.79-1.87-1-2.32-.08-.18,0-.38,0-.54a.78.78,0,0,0-.78-.28c-.76,0-.55.74-1.2,1,.44.16.28.58.51.8a6,6,0,0,0,1.06.31c-.11.52-3.22-.63-3.76-.33l.44.31a2.86,2.86,0,0,1-.41.32c.14-.1-.89-.27-1.07-.23a3.79,3.79,0,0,1-1.47.3.36.36,0,0,1,.24-.09,1,1,0,0,0-.15-.25l.26-.05a1.86,1.86,0,0,0-.79.21.43.43,0,0,1,.18.06,8,8,0,0,0-1.53.33.22.22,0,0,1,.09.1c-.6.11-.17.33-.56.43a.89.89,0,0,1-.58,0c-.52-.25-.28-.46.23-.48-.36-.45-1-.36-1.49-.44.46.1.84,1,.71,1.44-.48-.3-2.27.15-1.36.68-.54.23-1.18-.43-1.67-.09.54.44.69.86-.14.39-.5-.29-.68-1.14-1.31-1.15.2-.08-.62-.41-.72-.46.59.08,3.59,1.19,3.78.05.12-.68-3-1.29-3.46-1.07l.09-.19-.57-.11h.37c-.55-.3-1.13.06-1.73-.28a2.16,2.16,0,0,0,.84-.06c-.32-.2-.86-.47-1.09,0,0-.26-.07-.09-.15-.22a.44.44,0,0,0,.17-.16.77.77,0,0,0-.45,0c.16.23,0,0-.22.28a.66.66,0,0,0,0-.28c-.17.17-.41.26-.58.43.1-.1.15-.26.25-.36-.47-.18-.46.12-.79.24-.07.24-.19.26-.37.05a.89.89,0,0,0-.56,0,1.71,1.71,0,0,1,.26.21.67.67,0,0,0-.74.26,1.16,1.16,0,0,0,.08-.32,1.27,1.27,0,0,0-.25.27c-.14-.12-.52-.07-.33.05-.37-.05-.6.32-.9.45l.43,0c-.27.05-.48,0-.5.3-.23-.17-.16,0-.42-.08l.14,0c-.22,0-.23,0-.34.15L41,28a2.1,2.1,0,0,1-.5.13,2.68,2.68,0,0,1,.4,0,2.37,2.37,0,0,0-.73.18.38.38,0,0,0,.13.06c-.24.08-.24.08-.34.31l.38,0-.52.11.11.08s-.35.21-.34.31a.3.3,0,0,0,.29,0,3.18,3.18,0,0,0-.67.32.32.32,0,0,1,.14,0,2.25,2.25,0,0,0-.88.61.91.91,0,0,0,.81-.16c-.36.5-.85.14-1.33.28l.12.09a.51.51,0,0,0-.21.1.86.86,0,0,1,.2.18.61.61,0,0,0-.82.07h.59c-.28.1-.56.09-.86.18a1,1,0,0,1,.25,0c-.16,0-1,.18-.48.29-.34,0-.22.38-.06.47a1.18,1.18,0,0,0,.85-.18c0,.15-.09.06.06.13a9,9,0,0,0-1.12.18.33.33,0,0,0,.25.12.46.46,0,0,1-.13.18.24.24,0,0,1,.14.14c-.17.13-.15.09-.25.28a1.61,1.61,0,0,1,.62-.43l-.36.3.22,0c-.31.08-.32.13-.48.38L37,32.5c-.14.11-.15.21,0,.31-.73,0,.11.57.5.52a2,2,0,0,0,.84-.42c.25-.15.45-.19.55-.54a7.85,7.85,0,0,1,.61,1.27,3.06,3.06,0,0,1,.31.56c.07.2-.15.35.09.59s1,0,1.3-.26.79-1.45.21-1.51a1.87,1.87,0,0,0,1.06-.4l-.3,0c.71-.21.08-.46-.17-.74a.63.63,0,0,1-.22-.44,4,4,0,0,0,.08-.4c.14-.27-.06-.08.25-.27A.22.22,0,0,1,42,30.6a2.45,2.45,0,0,0,.78-.38,1.4,1.4,0,0,0,.52-.38c.1-.16,0-.52.11-.6.23-.3,1.3-.42,1.54-.13s-.09.45-.38.6a2.79,2.79,0,0,0-1,.82c-.46.79.55,1.21.59,1.69.2,0,0,0,.17-.11.14.35.67.11,1,0a1.84,1.84,0,0,0,.59-.25.19.19,0,0,0,0,.13,1.87,1.87,0,0,1,1.62.31,9.27,9.27,0,0,0-2.07.21c-.16,0-.62,0-.72.15s.18.34.3.52c.63,1-.48.33-.83.38s-.58.53-.55.89c0,.19.36.91-.16.71l.15-.18a1.67,1.67,0,0,0-.6.49c.13,0,.14,0,0,0l.3,0c-.56,0-.92-.28-1.45-.16s-1,.61-1.55.32c.15.11.15.15.34.19a.52.52,0,0,0,0,.11c-.32-.13-.58-.49-.95-.5s-.46.31-.77.24c0-.06,0-.12.05-.19-1.06.15-.58-.86,0-1.22-.38-.12-.3-.49-.15-.75-.12.07-1,.44-1,.57s.46-.19.37-.15c-.09.35-.34,0-.45.3a.9.9,0,0,0,0,.56c.09.53.09.91.62,1.19-.3-.19-.45-.27-.61.09-.17-.26-.72-.22-.62.25-.3-1-1.73.64-1.4.91l-.4-.05a1.7,1.7,0,0,0,.37.1s-.15.12-.16.11l.16-.11c-.91-.14-1.2.72-1.82,1.1-.46.27-1.56-.36-1,.56-.58.12-1.11-.2-1.66.13,0,.1.1.13.25.09h-.17a.24.24,0,0,0,.12.07l-.18.08a14.69,14.69,0,0,0,1.4.51.78.78,0,0,0-.22,0c.18.35.36.47.43.85a3.72,3.72,0,0,1-.06.73l0-.07c-.11.94-.6.87-1.36.77a6.3,6.3,0,0,0-2-.09c-.58.14-.63.3-.64.78a11.93,11.93,0,0,1-.45,2.2,2,2,0,0,0,.37-.22,2.42,2.42,0,0,0-.25.4c.48-.14.14.68,0,.91A8.61,8.61,0,0,1,29.8,46c.29.09.19.31.28.42.28.3.42.27.9.14a8.79,8.79,0,0,0,1.23-.39c.55-.25.77-.85,1.29-1.11-.62-.49.14-1,.55-1.3a3.92,3.92,0,0,0,.82-.55c.19-.24.08-.33.19-.53.31-.61,1-.37,1.58-.45s1.29-.71,1.92-.14c.27.24.38.59.67.8s.76.4,1.1.67.56.37.84.58c.52.39.21.63.39,1.12.27.72.45-.2.5-.59.07-.65.19-.88.75-.28.06-.61-1.43-.73-1.15-1.23-.71.09-1.31-.55-1.61-1.13s-.56-1.38.38-1.19c-.11.38,0,.28.19.34a.87.87,0,0,1,.16.23c.09-.18.3.05.5.31h-.17c.2.3.46.35.75.51s1,.48.23.25c.56.17,1.07.42,1.21,1,.09.44.09.92.42,1.16a.21.21,0,0,1-.1-.24c.09.11.65.48.65.52a.25.25,0,0,1-.19,0c.18.54.86.26,1.26.5-.3.09-.68-.27-.9.06s.19.59.27.84a.34.34,0,0,1,.09-.19c.22.39.21.29.57.37-.11-.23-.13-.49-.23-.73.16.09.21.05.37.1l-.24-.3c.23.08.29,0,.51.14,0-.45-.42-.64-.78-.75l.25-.11a.16.16,0,0,1-.12-.14l.16.1c-.08-.26-.45-.62-.16-.88a.92.92,0,0,0,.25.23,1.45,1.45,0,0,0,.29.11.32.32,0,0,0-.12-.18,1.21,1.21,0,0,0,.32.11,1.14,1.14,0,0,1-.32-.37,3.55,3.55,0,0,1,1.55.08c-.1.11-.19.22-.28.34a4,4,0,0,1,1.4-.71,1.1,1.1,0,0,1-.8-.89A3.61,3.61,0,0,1,48,41.31v.11c.51-.32.52-1,1.12-1.29-.07.13.12.07.16.08a2.14,2.14,0,0,0-.09-.34,2.48,2.48,0,0,0,.44.36,1.67,1.67,0,0,1-.5,0l.24.1a.21.21,0,0,1-.11,0c.31.12.64.13,1,.23-.18.11-.36.22-.53.34.5,0,.43.56.89.61s.84-.43,1.13-.61c-.37.1-1.11-.22-.75-.64,0,0,0,.08,0,.14.47-.45,1.15-.35,1.67-.64l-.09.07c.23,0,.19-.07.37,0a1.55,1.55,0,0,1-.71.27,4.47,4.47,0,0,0,.4.34c-.3.1-.37.58-.82.44l.12,0c-.22.18.06.21.28.35a8,8,0,0,0,.73.45,7.89,7.89,0,0,1,1.13.65c1,.77.1,1.34-.87,1.26s-1.72-.73-2.6-.68a9.16,9.16,0,0,0-1.4.46,4.76,4.76,0,0,0-.93.16c-.06,0,.56.21.38.15a5.18,5.18,0,0,1-.53.14l.14.07c-.42,0-1.5-.17-1.46.55a2.57,2.57,0,0,1,.4,0,.66.66,0,0,0,.17.69c-.27-.06-.17.11-.4-.11.09.37.47.6.65.93-.1,0-.14,0-.14.12a4.36,4.36,0,0,0,.51,0l-.4.2c.5,0,1,.34,1.46.26.33,0,.19-.37.69-.28s.64.48,1.2.34a5,5,0,0,0,1-.34c-.16.12.12.72.13.91a4.6,4.6,0,0,1-.4,1.58c-.24.68-.55,1.41-1.4,1,0,.05,0,.09,0,.12,0-.29-.64-.28-.83-.2l.19-.1c-1.5.51-2.65-.15-4-.63-.66-.22-1.43-.35-1.65.46-.13.49-.05.81-.76.83a2.94,2.94,0,0,1-1.65-.6c-.21-.18-.28-.46-.52-.63a3,3,0,0,0-1.21-.3c-.53-.12-1-.28-1-.79a5.17,5.17,0,0,0,.15-.62,2,2,0,0,1,.18-1.2c-.4.32-.33,0-.71-.06a3.71,3.71,0,0,0-1.09.11,13.6,13.6,0,0,0-2.78.3,8.47,8.47,0,0,1-2.29.81H31.5c-.36,0-.88.16-.93-.4C30,47,29.82,48,29.33,48.34a3.51,3.51,0,0,0-1,.65c-.35.44-.27,1-.41,1.46-.27.95-1.07.95-1.67,1.58s-1.1,1.79-1.83,2.54l.1-.11a4.12,4.12,0,0,0-.76,1.91c0-.07.05-.13.07-.2.84.79.56,3.49-.49,4,.36.18.44.8.76.84a.85.85,0,0,1-.31,0,1.51,1.51,0,0,0-.05.56c.12,0,0-.1.16,0l-.19.09c.28.26.53.49.94.31a1.67,1.67,0,0,1-.24.16.9.9,0,0,1,.23.08.32.32,0,0,0-.22.12c.28.58,1.34.91,1.23,1.77l.16-.05a.24.24,0,0,1-.2.11,7.36,7.36,0,0,0,2,2,1.7,1.7,0,0,0,1.25.45,3,3,0,0,0,.51-.16c.09,0,1-.22.56-.14l.74,0c-.72-.16.46,0,.56,0l-.12,0c.69.35,1.22-.09,1.84-.35s1.37-.32,2-.58l-.15.1c.28,0,1.32.45,1,.57A.14.14,0,0,0,36,66c-.24.33.15.67.46.69s.19,0,.22-.22a1.8,1.8,0,0,1,.08.21c0-.06.05-.15.09-.2.22.13.57.21.65-.13.24.12.39.7.79.54a5.06,5.06,0,0,0,0,2.19c0-.06-.09-.07-.16,0,.15.12.18.21.38.26-.24,0-.1.08-.36-.1,0,.27,0,.62-.36.59a1.6,1.6,0,0,0,.45.63.54.54,0,0,1-.27-.18c.13.26.26.33.15.37a2.33,2.33,0,0,0,.42.41c-.31,0-.05.12.11.33s.38.55.58.82.64,1.06,1,.93l-.44.16a4.91,4.91,0,0,1,.46.88c.12.37,0,.57,0,.89,0,.88.66,1.3.16,2.18a5.05,5.05,0,0,0-.87,2.22c-.07.81.09,2.11.88,2.45A20.83,20.83,0,0,0,46.09,83a33.6,33.6,0,0,0,6.1.09c0-.23-.4-1.11-.25-1.32a4.72,4.72,0,0,1,.45-.16,7.72,7.72,0,0,0,1.27-1.08c.5-.44,1.6-1,1.75-1.68a11.28,11.28,0,0,0,0-1.53,3.27,3.27,0,0,0-.31-1.66A5,5,0,0,1,54.82,73a7.59,7.59,0,0,1,.24-2.48c.43-1,1.58-1.37,2.4-1.9a7.23,7.23,0,0,0,2.58-3c.25-.51.73-2.52,1.3-2.71-.12,0,0-.14-.19,0,.38-1.34-1.13-.62-1.81-.42a4.86,4.86,0,0,1-1.47.43c-.57,0-.86-.81-1.43-.67,1.31-.5-1.25-2.05-1.55-2.49a.76.76,0,0,0,0,.21c-.39-.57-.43-1.31-.8-1.89a6,6,0,0,1-.73-1.19c-.28-.75-.53-1.55-.86-2.28-.26-.55-.76-1.11-1.08-1.69s-1-1.62-.85-2.27a2.79,2.79,0,0,0,1,1.39,8.66,8.66,0,0,1,.34-1.13,5.92,5.92,0,0,1-.14.94c.82,0,1.46,1.92,1.88,2.49A11.78,11.78,0,0,1,54.46,56a9.63,9.63,0,0,0,1,1.5,7.39,7.39,0,0,1,1.14,3c.37,1.45,1.2,1,2.27.39a15.74,15.74,0,0,1,1.7-.72,2.78,2.78,0,0,0,.76-.35c.28-.24.19-.44.42-.68a2.55,2.55,0,0,1,.8-.33l.54,0a.26.26,0,0,0,.13-.31c.31-.3.93-.51,1.16-.9.12-.21,0-.51.16-.73s.22-.23.31-.34a1.4,1.4,0,0,0,.45-1.15c-.27-1.23-2-.82-1.86-2.43-.33.42-.58,1-1,1.31a1.28,1.28,0,0,1-1.47,0c-.21-.25.17-.7-.15-.9s-.35.38-.28.61c-.37-.54-.4-1.07-.79-1.54s-.59-1.09-1.12-1.36a.19.19,0,0,1,.22-.11.66.66,0,0,1-.12-.27c.34,0,.47-.2.76-.15a1.41,1.41,0,0,1,.54.37c.39.34.66.78,1,1.14a2.17,2.17,0,0,0,1.24.69c.52.07,1-.33,1.47-.07.23.13.27.4.45.57a1.76,1.76,0,0,0,.93.39,8,8,0,0,0,2.13,0c.66,0,1.3-.28,1.82.14.21.17.32.48.53.67s.31,0,.39.23a1,1,0,0,1,.28-.16c-.38.57.63.78,1,.48a.65.65,0,0,1-.78.45,1.76,1.76,0,0,0,1.32.85.47.47,0,0,0,.44-.2c.23-.35-.32-.64.33-.56a1.35,1.35,0,0,0-.11.34l.3,0c-.34.17-.19.42-.13.74s0,.6.21.82c-.18.11,0,.25,0,.07a5.14,5.14,0,0,0,.88,2.66c.54,1.1,1,2.26,1.46,3.38l-.13-.24c.06.4.3,1.27.87,1,.42-.16.28-.75.9-.59-.39-.16.56-2.27.24-2.84a.71.71,0,0,1,.1.14,1.33,1.33,0,0,1,.46-1.66c.74-.66,1.25-1.53,2-2.19h-.15a1.15,1.15,0,0,1,.14-.17.08.08,0,0,1,0,.12c.42-.08,1.34-1.25,1.14-1.68,0,.19.12.22.11.43.38-.25.1.41.29-.27a3.37,3.37,0,0,1,.1.34.09.09,0,0,1,.16-.05c-.06,0,0-.32,0-.27a.69.69,0,0,1,.19.19c0-.1,0-.21,0-.31a.73.73,0,0,1,.09.32c.06-.14.11-.29.17-.44a1.27,1.27,0,0,0,0,.28.29.29,0,0,1,.13-.08.74.74,0,0,0,0,.21.84.84,0,0,0-.07-1c.12,0,.12,0,.16-.08,0,.35.09.37.32.55l.22-.11a1.83,1.83,0,0,1,.24.46M37.07,32.15c-.14,0,.32-.23.21-.21A.36.36,0,0,0,37.07,32.15ZM35.73,37.4m25.58,8.82a3.63,3.63,0,0,1-2-.16c-.46-.2-1-.94-.66-1.16,0-.35.06-.79.51-.75-.6-.32-1.94-1.38-1.76-2.2a.36.36,0,0,0-.06.2A1,1,0,0,1,57.1,41c.18-.35.11-.16.5-.35.18-.08.3-.31.49-.46.36-.27,1.06-.49,1.44-.14s.18.68.46.93c-.37-.07-1.49.1-.73.54-.83-.11-.41.46,0,.76.17.11.5.13.63.26s.12.72.39,1c-.23-.62.38-.63.73-.27.55.56-.21.7-.66.37,0,.68.22.52.5.88-.5.06,0,.11.12.35a5,5,0,0,1,.35,1.38C61.29,46.24,61.1,46.31,61.31,46.22Zm4.37-18.83a2.13,2.13,0,0,0-.43-.13c.91-.07.87.77,1.64.74C66.24,28.16,66.19,27.58,65.68,27.39Zm1.63-.88c-.13-.26-.22-.34-.07-.61.22.12.8.44.51.77C67.64,26.49,67.38,26,67.31,26.51Z"/><path class="cls-4" d="M43.58,34.63v0Z"/><path class="cls-4" d="M38,44.49c.47,0,.57-1.78-.44-.91C37.69,43.92,37.54,44.9,38,44.49Z"/><path class="cls-4" d="M31.66,35.45a.24.24,0,0,0,.12-.21C31.69,35.36,31.53,35.38,31.66,35.45Z"/><path class="cls-4" d="M29.16,36.76l-.27.16.29-.05A.61.61,0,0,0,29,37a3.17,3.17,0,0,0,1.78-.67c.21-.31,0-.57.06-.84a1.38,1.38,0,0,1,.41-.26.57.57,0,0,0-.76-.38l.13-.09c-.19,0-.18,0-.32.14a.11.11,0,0,0,0-.14,1.08,1.08,0,0,0-.56.33l.29,0a1.26,1.26,0,0,1-.95.29c.18.13-.08.1.21.17-.27.15.1.09-.27.19a1.19,1.19,0,0,0,.53.21c-.19.1-.33.27-.52.38l.55-.07a3.54,3.54,0,0,0-.8.33H29a1.37,1.37,0,0,0-.23.19A1.42,1.42,0,0,0,29.16,36.76Z"/><path class="cls-4" d="M25.17,28.9a1.3,1.3,0,0,1-.32.14c.09,0,.23,0,.31,0-.33.09-.67.1-1,.17a6.69,6.69,0,0,1,1,.14l-.24.17a1.09,1.09,0,0,1,.25,0,2.66,2.66,0,0,0-.58.31c.6-.16.86.16,1.36.22a3,3,0,0,0,1.26-.22,2.81,2.81,0,0,0,1.15-.56c.13-.15.4-.53-.09-.41-.08-.11.32-.1-.12-.1.11-.23,0-.05-.08-.2a1.23,1.23,0,0,0,.25-.14c-.33,0-.63.15-.95.17s-.51-.17-.61.18c-.41-.36-1-.08-1.32.26,0-.39-.13-.67-.67-.59l.25,0a.69.69,0,0,0-.2,0,.55.55,0,0,1,.18.16c-.18-.09-.77-.09-.39.1-1.25.05-.1-.07-.27.11a.75.75,0,0,0-.26,0A5.68,5.68,0,0,1,25.17,28.9Z"/><path class="cls-4" d="M24.51,28.66l0,0C24.54,28.52,24.5,28.62,24.51,28.66Z"/><path class="cls-4" d="M46.76,44.52a.2.2,0,0,0,.17.12s0,0,0,0c-.07-.28-.13-.09-.29-.16a.41.41,0,0,0,0,.09Z"/><path class="cls-4" d="M46.28,44c-.09.08-.18-.09-.14.08S46.23,44.07,46.28,44Z"/><path class="cls-4" d="M45.36,44.73c-.16-.06-.13-.19-.31,0a3,3,0,0,1,.88.57A.91.91,0,0,0,45.36,44.73Z"/><path class="cls-4" d="M37.74,34.88c0-.1-.05.11-.05.15C37.94,35,37.74,35,37.74,34.88Z"/><path class="cls-4" d="M40,35.27l.26,0C40.12,35,40.1,35.2,40,35.27Z"/><path class="cls-4" d="M38.15,42.21c-.31.36-.64.6-.12,1A1.36,1.36,0,0,0,38.15,42.21Z"/><path class="cls-4" d="M31.17,30.65s-.11.11.07.2C31.28,30.69,31.23,30.79,31.17,30.65Z"/><path class="cls-4" d="M44.48,32.86c-.45-.17-.53,0-.57.31A3.91,3.91,0,0,0,44.48,32.86Z"/><path class="cls-4" d="M44.32,32.64c-.2-.12-.18-.12-.43-.06C44.16,32.62,44.05,32.69,44.32,32.64Z"/><path class="cls-4" d="M38.85,34.81c-.13-.2,0-.39-.43-.22C38.46,34.91,38.62,34.79,38.85,34.81Z"/><path class="cls-4" d="M40.82,34.89s.07-.13-.13-.18C40.58,34.9,40.76,34.8,40.82,34.89Z"/><path class="cls-4" d="M38.92,34.8c-.12.08-.09.17-.12.24A1.34,1.34,0,0,0,38.92,34.8Z"/><path class="cls-4" d="M38.92,33.53Z"/><path class="cls-4" d="M39.32,34.48c-.09-.25-.4.15,0,.55,0-.07.38-.72.24-.74A.52.52,0,0,0,39.32,34.48Z"/><path class="cls-4" d="M39,34.93c0,.22.16.07.25.16S39.24,35,39,34.93Z"/><path class="cls-4" d="M41.06,41.4c-.08-.07-.38-.24-.18-.12S41,41.42,41.06,41.4Z"/><path class="cls-4" d="M43,31.82c-.06,0-.25,0-.26,0C42.82,32,42.94,31.85,43,31.82Z"/><rect class="cls-6" x="38.58" width="20.53" height="15.7" rx="1.86" ry="1.86"/><rect class="cls-7" x="38.58" y="13.33" width="20.53" height="6.31" rx="1.18" ry="1.18"/><rect class="cls-6" x="38.58" y="12.18" width="20.53" height="6.31" rx="1.18" ry="1.18"/><rect class="cls-4" x="40.46" y="1.98" width="16.78" height="10.4" rx="0.92" ry="0.92"/><rect class="cls-8" x="39.99" y="13.61" width="17.62" height="3.93" rx="0.88" ry="0.88"/><rect class="cls-9" x="41.05" y="14.05" width="2.15" height="1.28" rx="0.16" ry="0.16"/><rect class="cls-6" x="43.65" y="14.05" width="2.15" height="1.28" rx="0.16" ry="0.16"/><rect class="cls-6" x="46.26" y="14.05" width="2.15" height="1.28" rx="0.16" ry="0.16"/><rect class="cls-6" x="48.87" y="14.05" width="2.15" height="1.28" rx="0.16" ry="0.16"/><rect class="cls-6" x="51.47" y="14.05" width="2.15" height="1.28" rx="0.16" ry="0.16"/><rect class="cls-6" x="54.08" y="14.05" width="2.15" height="1.28" rx="0.16" ry="0.16"/><rect class="cls-6" x="41.05" y="15.85" width="2.15" height="1.28" rx="0.16" ry="0.16"/><rect class="cls-6" x="43.65" y="15.85" width="2.15" height="1.28" rx="0.16" ry="0.16"/><rect class="cls-6" x="46.26" y="15.85" width="2.15" height="1.28" rx="0.16" ry="0.16"/><rect class="cls-6" x="48.87" y="15.85" width="2.15" height="1.28" rx="0.16" ry="0.16"/><rect class="cls-6" x="51.47" y="15.85" width="2.15" height="1.28" rx="0.16" ry="0.16"/><rect class="cls-6" x="54.08" y="15.85" width="2.15" height="1.28" rx="0.16" ry="0.16"/><rect class="cls-6" x="38.58" y="84.3" width="20.53" height="15.7" rx="1.86" ry="1.86" transform="translate(97.7 184.3) rotate(180)"/><rect class="cls-7" x="38.58" y="80.35" width="20.53" height="6.31" rx="1.18" ry="1.18" transform="translate(97.7 167.02) rotate(180)"/><rect class="cls-6" x="38.58" y="81.51" width="20.53" height="6.31" rx="1.18" ry="1.18" transform="translate(97.7 169.33) rotate(180)"/><rect class="cls-4" x="40.46" y="87.62" width="16.78" height="10.4" rx="0.92" ry="0.92" transform="translate(97.7 185.64) rotate(180)"/><rect class="cls-8" x="40.09" y="82.47" width="17.62" height="3.93" rx="0.88" ry="0.88" transform="translate(97.8 168.86) rotate(180)"/><rect class="cls-9" x="54.51" y="84.67" width="2.15" height="1.28" rx="0.16" ry="0.16" transform="translate(111.17 170.61) rotate(180)"/><rect class="cls-6" x="51.9" y="84.67" width="2.15" height="1.28" rx="0.16" ry="0.16" transform="translate(105.95 170.61) rotate(180)"/><rect class="cls-6" x="49.29" y="84.67" width="2.15" height="1.28" rx="0.16" ry="0.16" transform="translate(100.74 170.61) rotate(180)"/><rect class="cls-6" x="46.69" y="84.67" width="2.15" height="1.28" rx="0.16" ry="0.16" transform="translate(95.52 170.61) rotate(180)"/><rect class="cls-6" x="44.08" y="84.67" width="2.15" height="1.28" rx="0.16" ry="0.16" transform="translate(90.31 170.61) rotate(180)"/><rect class="cls-6" x="41.47" y="84.67" width="2.15" height="1.28" rx="0.16" ry="0.16" transform="translate(85.09 170.61) rotate(180)"/><rect class="cls-6" x="54.51" y="82.87" width="2.15" height="1.28" rx="0.16" ry="0.16" transform="translate(111.17 167.02) rotate(180)"/><rect class="cls-6" x="51.9" y="82.87" width="2.15" height="1.28" rx="0.16" ry="0.16" transform="translate(105.95 167.02) rotate(180)"/><rect class="cls-6" x="49.29" y="82.87" width="2.15" height="1.28" rx="0.16" ry="0.16" transform="translate(100.74 167.02) rotate(180)"/><rect class="cls-6" x="46.69" y="82.87" width="2.15" height="1.28" rx="0.16" ry="0.16" transform="translate(95.52 167.02) rotate(180)"/><rect class="cls-6" x="44.08" y="82.87" width="2.15" height="1.28" rx="0.16" ry="0.16" transform="translate(90.31 167.02) rotate(180)"/><rect class="cls-6" x="41.47" y="82.87" width="2.15" height="1.28" rx="0.16" ry="0.16" transform="translate(85.09 167.02) rotate(180)"/><circle class="cls-1" cx="49.67" cy="57.52" r="6.82"/><path class="cls-1" d="M59.49,52a11.29,11.29,0,0,0-19.81,0l-3.9-2.15a15.75,15.75,0,0,1,27.61,0Z"/><path class="cls-1" d="M65.17,45.36a17.58,17.58,0,0,0-30.84,0l-3.9-2.14a22,22,0,0,1,38.64,0Z"/></svg>