<svg id="Layer_1" data-name="Layer 1" xmlns="http://www.w3.org/2000/svg" viewBox="0 0 100 100"><defs><style>.cls-1{fill:#3e3e3f;}.cls-2{fill:#09a582;}.cls-3{fill:#7d7d7d;}.cls-4{fill:#b95f2b;}.cls-5{fill:#079676;}.cls-6{fill:#ffc640;}.cls-7{fill:#58595b;}.cls-8{fill:#909295;}.cls-9{fill:#a6a8ab;}.cls-10{fill:#5c5c5c;}</style></defs><title>motorcycle</title><path class="cls-1" d="M81.84,77A14.27,14.27,0,1,1,96.11,62.76,14.28,14.28,0,0,1,81.84,77Zm0-25.34A11.07,11.07,0,1,0,92.91,62.76,11.09,11.09,0,0,0,81.84,51.69Z"/><path class="cls-1" d="M20.36,80.76A18.16,18.16,0,1,1,38.51,62.6,18.17,18.17,0,0,1,20.36,80.76Zm0-32.25A14.1,14.1,0,1,0,34.45,62.6,14.11,14.11,0,0,0,20.36,48.51Z"/><path class="cls-1" d="M20.36,76.87A14.27,14.27,0,1,1,34.62,62.6,14.28,14.28,0,0,1,20.36,76.87Zm0-25.34A11.08,11.08,0,1,0,31.43,62.6,11.09,11.09,0,0,0,20.36,51.53Z"/><path class="cls-2" d="M44.69,64.49H19a1.89,1.89,0,0,1-1.69-2.73L31.55,33.44a1.91,1.91,0,0,1,1.69-1H72a1.89,1.89,0,0,1,1.36,3.2L46.05,63.91A1.9,1.9,0,0,1,44.69,64.49ZM22,60.72H43.89L67.56,36.17H34.4Z"/><path class="cls-1" d="M81.84,80.76A18.16,18.16,0,1,1,100,62.6,18.18,18.18,0,0,1,81.84,80.76Zm0-32.25A14.1,14.1,0,1,0,95.94,62.6,14.1,14.1,0,0,0,81.84,48.51Z"/><path class="cls-2" d="M66,62.6a15.84,15.84,0,0,1,27.8-10.39L97,49A20.4,20.4,0,0,0,61.41,62.6c0,.06,0,.11,0,.16H66Z"/><path class="cls-2" d="M37,64.2A18.86,18.86,0,0,0,3.85,51.82L0,48A24.29,24.29,0,0,1,42.41,64.2c0,.06,0,.12,0,.18H37C37,64.32,37,64.26,37,64.2Z"/><path class="cls-2" d="M81.84,64.64a2,2,0,0,1-1.94-1.45l-12-40.51a2,2,0,0,1,3.9-1.17L83.79,62a2,2,0,0,1-1.36,2.53A2.06,2.06,0,0,1,81.84,64.64Z"/><path class="cls-3" d="M74.11,23.83h-14a2,2,0,1,1,0-4.06h14a2,2,0,1,1,0,4.06Z"/><rect class="cls-4" x="55.32" y="19.24" width="9.61" height="5.16" rx="1.27" ry="1.27"/><rect class="cls-2" x="13.66" y="32.69" width="18.04" height="11.18" rx="2.75" ry="2.75"/><rect class="cls-5" x="34.58" y="39.86" width="18.04" height="11.18" rx="2.75" ry="2.75"/><path class="cls-2" d="M65.15,40.88H54.71c-3.52,0-13.47-2.88-13.47-6.4h0c0-3.52,9.95-6.4,13.47-6.4H65.15a6.42,6.42,0,0,1,6.4,6.4h0A6.42,6.42,0,0,1,65.15,40.88Z"/><path class="cls-6" d="M81.87,29.16h-2V39h2a4.91,4.91,0,0,0,0-9.81Z"/><path class="cls-2" d="M80.13,26.83a7,7,0,1,0,0,14.05H82.2V26.83Z"/><path class="cls-7" d="M49.44,60.09l-.12-2c8.52-.53,10.31-2.44,10.62-3.53.63-2.25-3.26-5.57-4.67-6.56l1.17-1.66c.68.47,6.59,4.74,5.46,8.77C61.08,58,57,59.62,49.44,60.09Z"/><path class="cls-7" d="M53.79,60.09l-.12-2c8.53-.53,10.32-2.44,10.62-3.53C64.93,52.28,61,49,59.63,48l1.16-1.66c.68.47,6.59,4.74,5.46,8.77C65.43,58,61.36,59.62,53.79,60.09Z"/><rect class="cls-8" x="42.74" y="40.73" width="19.17" height="13.41" rx="3.3" ry="3.3"/><rect class="cls-8" x="46.21" y="37.08" width="12.23" height="8.55" rx="2.1" ry="2.1"/><rect class="cls-7" x="46.62" y="42.88" width="11.72" height="0.99" rx="0.24" ry="0.24"/><rect class="cls-7" x="46.62" y="45.63" width="11.72" height="0.99" rx="0.24" ry="0.24"/><rect class="cls-7" x="46.62" y="48.37" width="11.72" height="0.99" rx="0.24" ry="0.24"/><path class="cls-3" d="M54.37,66.67H3.08a2,2,0,1,1,0-4.06H52.91l4.27-12.93A2,2,0,1,1,61,51L56.3,65.28A2,2,0,0,1,54.37,66.67Z"/><rect class="cls-3" x="15.56" y="58.95" width="23.83" height="10.54" rx="2.59" ry="2.59"/><path class="cls-4" d="M38.8,36.15h-17c-3.12,0-9.88-3.16-9.88-4.7h0c0-1.53,2.55-2.79,5.67-2.79l21.21,1.9c3.12,0,5.67,1.26,5.67,2.8h0C44.47,34.89,41.92,36.15,38.8,36.15Z"/><rect class="cls-9" x="19.94" y="61.13" width="15.17" height="2.03" rx="0.5" ry="0.5"/><rect class="cls-10" x="36.18" y="50.84" width="18.71" height="9.13" rx="2.25" ry="2.25" transform="translate(33.8 -15.34) rotate(30)"/></svg>