<svg id="Layer_1" data-name="Layer 1" xmlns="http://www.w3.org/2000/svg" viewBox="0 0 100 100"><defs><style>.cls-1{fill:#6d4945;}.cls-2{fill:#00a69c;}.cls-3{fill:#895e59;}.cls-4{fill:#fff;}.cls-5{fill:#58595b;}</style></defs><title>avalanche</title><rect class="cls-1" x="91.86" y="48.86" width="1.08" height="1.58" rx="0.25" ry="0.25" transform="translate(61.27 149.83) rotate(-100.99)"/><path class="cls-2" d="M93.31,52.28c-.27-1.78-.55-3.55-.82-5.33,5.61.16,8.32,5.24,7.06,8.78C98.8,51.87,95,51,93.31,52.28Z"/><ellipse class="cls-3" cx="48.95" cy="86.95" rx="48.95" ry="12.67"/><path class="cls-4" d="M73.34,41.75l4.33-4.34C69.61,24.43,49,.37,49,.37S28.12,24.6,20,37.73l4,4Z"/><path class="cls-5" d="M77.67,37.41l-4.33,4.34h0L71.13,44l2.21-2.21H24l2.75,2.75L24,41.75h0l-4-4C7.88,57.38,0,82.76,0,87c0,7,21.91,12.68,49,12.68S97.89,94,97.89,87C97.89,82.73,89.92,57.11,77.67,37.41Z"/><circle class="cls-4" cx="26.38" cy="41.74" r="7.52"/><circle class="cls-4" cx="41.42" cy="41.74" r="7.52"/><circle class="cls-4" cx="56.47" cy="41.74" r="7.52"/><circle class="cls-4" cx="87.95" cy="72.59" r="7.52"/><circle class="cls-4" cx="22.03" cy="53.88" r="1.38"/><circle class="cls-4" cx="26.96" cy="62.01" r="1.38"/><circle class="cls-4" cx="49.15" cy="62.01" r="1.38"/><circle class="cls-4" cx="71.34" cy="62.01" r="1.38"/><circle class="cls-4" cx="32.85" cy="53.88" r="1.38"/><circle class="cls-4" cx="43.67" cy="53.88" r="1.38"/><circle class="cls-4" cx="54.5" cy="53.88" r="1.38"/><circle class="cls-4" cx="65.32" cy="53.88" r="1.38"/><circle class="cls-4" cx="76.14" cy="53.88" r="1.38"/><path class="cls-4" d="M80.7,74.58c-4.77-17.37-20.38-35.22-20.54-35.4l11.28-9.93c.73.83,18.07,20.67,23.75,41.36Z"/><circle class="cls-4" cx="88.78" cy="76.44" r="4.17"/><circle class="cls-4" cx="88.63" cy="70.69" r="2.84"/><circle class="cls-4" cx="93.36" cy="73.52" r="3.7"/><circle class="cls-4" cx="93.99" cy="78.04" r="3.21"/><circle class="cls-4" cx="84.76" cy="77.27" r="2.99"/><circle class="cls-4" cx="81.8" cy="76.09" r="3.04"/><circle class="cls-4" cx="80.08" cy="74.11" r="3.22"/><circle class="cls-4" cx="77.62" cy="71.65" r="2.85"/><circle class="cls-4" cx="77.07" cy="68.15" r="1.83"/><circle class="cls-4" cx="93.65" cy="67.99" r="1.83"/><circle class="cls-4" cx="76.77" cy="65.25" r="1.41"/><circle class="cls-4" cx="94.56" cy="66.07" r="1.41"/><circle class="cls-4" cx="94.63" cy="69.56" r="1.41"/><circle class="cls-4" cx="95.73" cy="59.81" r="1.17"/><circle class="cls-4" cx="99.31" cy="64.82" r="0.69"/><circle class="cls-4" cx="93.67" cy="61.77" r="0.32"/><rect class="cls-1" x="75.92" y="34.05" width="2" height="2.92" rx="0.47" ry="0.47" transform="translate(131.42 100.39) rotate(-154.81)"/><polygon class="cls-2" points="81.82 38.37 71.61 33.56 71.51 47.03 81.82 38.37"/><rect class="cls-1" x="86.74" y="72.17" width="1.07" height="1.56" rx="0.25" ry="0.25" transform="translate(109.8 -38.54) rotate(61.53)"/><polygon class="cls-2" points="86.07 70.18 88.94 75.47 93.24 69.72 86.07 70.18"/><polyline class="cls-4" points="67.37 34.22 79.37 48.98 69.96 50.23"/></svg>