<svg id="Layer_1" data-name="Layer 1" xmlns="http://www.w3.org/2000/svg" viewBox="0 0 100 100"><defs><style>.cls-1{fill:#714c48;}.cls-2{fill:#ad7771;}.cls-3{fill:#5b3c38;}</style></defs><title>leather</title><path class="cls-1" d="M93.16,14.19c0-4-3.25-4.34-7.22-2.59C62,22.48,38-8.53,14.06,2.35c-4,1.76-7.22,7.88-7.22,11.84V86.08c0,4,3.25,4.35,7.22,2.59C33,80.08,51.89,97.59,70.8,100c7.45-6.5,14.91-15.35,22.36-29.06Z"/><path class="cls-2" d="M93.16,70.94A27.89,27.89,0,0,1,78,77.74c-4,.44-7.22,3.13-7.22,7.12V100C78.25,93.5,85.71,84.65,93.16,70.94Z"/><rect class="cls-3" x="23.82" y="4.64" width="2.05" height="77.41" rx="0.5" ry="0.5"/><circle class="cls-3" cx="18.96" cy="10.52" r="1.58"/><circle class="cls-3" cx="30.31" cy="10.52" r="1.58"/><circle class="cls-3" cx="18.96" cy="19.67" r="1.58"/><circle class="cls-3" cx="30.31" cy="19.67" r="1.58"/><circle class="cls-3" cx="18.96" cy="28.82" r="1.58"/><circle class="cls-3" cx="30.31" cy="28.82" r="1.58"/><circle class="cls-3" cx="18.96" cy="37.97" r="1.58"/><circle class="cls-3" cx="30.31" cy="37.97" r="1.58"/><circle class="cls-3" cx="18.96" cy="47.12" r="1.58"/><circle class="cls-3" cx="30.31" cy="47.12" r="1.58"/><circle class="cls-3" cx="18.96" cy="56.28" r="1.58"/><circle class="cls-3" cx="30.31" cy="56.28" r="1.58"/><circle class="cls-3" cx="18.96" cy="65.43" r="1.58"/><circle class="cls-3" cx="30.31" cy="65.43" r="1.58"/><circle class="cls-3" cx="18.96" cy="74.58" r="1.58"/><circle class="cls-3" cx="30.31" cy="74.58" r="1.58"/></svg>