<svg id="Layer_1" data-name="Layer 1" xmlns="http://www.w3.org/2000/svg" viewBox="0 0 100 100"><defs><style>.cls-1{fill:#fff;}.cls-2{fill:#f37d3b;}.cls-3{fill:#ffc640;}.cls-4{fill:#6ab8d9;}.cls-5{fill:#5fa6c3;}</style></defs><title>wizard</title><rect class="cls-1" x="28.58" y="74.29" width="61.63" height="6.07" rx="3.03" ry="3.03" transform="translate(-37.28 64.65) rotate(-45)"/><polygon class="cls-2" points="79.2 61.81 70.62 61.81 66.97 65.45 75.56 65.45 79.2 61.81"/><polygon class="cls-2" points="72.21 68.8 63.63 68.8 59.98 72.44 68.57 72.44 72.21 68.8"/><polygon class="cls-2" points="52.99 79.43 61.58 79.43 65.22 75.79 56.64 75.79 52.99 79.43"/><polygon class="cls-2" points="46.01 86.42 54.59 86.42 58.24 82.78 49.65 82.78 46.01 86.42"/><polygon class="cls-2" points="39.02 93.41 47.6 93.41 51.25 89.76 42.66 89.76 39.02 93.41"/><path class="cls-2" d="M37.6,99.11a3,3,0,0,0,4.3,0l2.36-2.36H36.74A3,3,0,0,0,37.6,99.11Z"/><path class="cls-3" d="M98.84,63.13a4.07,4.07,0,0,0-.37-4.29l-4.55-6.1,2.44-7.21a4.08,4.08,0,0,0-5.17-5.18L84,42.8l-6.1-4.56a4.08,4.08,0,0,0-6.52,3.33l.09,7.61-6.21,4.4a4.08,4.08,0,0,0,1.14,7.23l7.27,2.26,2.26,7.27a4.08,4.08,0,0,0,7.23,1.14l4.4-6.21,7.61.09A4.08,4.08,0,0,0,98.84,63.13Z"/><path class="cls-4" d="M7.57,41.48S20.71.93,54.79,0c0,0-19,29.14-5,42.22"/><path class="cls-3" d="M44.68,13.58a1,1,0,0,0-.1-1.11L43.4,10.88,44,9a1.06,1.06,0,0,0-.26-1.09,1.07,1.07,0,0,0-1.09-.25l-1.88.63L39.23,7.11a1.07,1.07,0,0,0-1.7.86l0,2L35.94,11.1a1,1,0,0,0-.43,1,1,1,0,0,0,.73.85l1.89.58.59,1.9a1.06,1.06,0,0,0,.26.43,1.06,1.06,0,0,0,1.62-.14l1.14-1.61,2,0A1.05,1.05,0,0,0,44.68,13.58Z"/><path class="cls-3" d="M36.89,21.84a1,1,0,0,0-.41-1l-1.59-1.17.06-2a1.06,1.06,0,0,0-.56-1,1.08,1.08,0,0,0-1.12.07L31.66,17.9l-1.86-.67a1.06,1.06,0,0,0-1.37,1.32l.6,1.89L27.81,22a1.06,1.06,0,0,0-.11,1.12,1,1,0,0,0,.94.59l2,0,1.11,1.64a1.12,1.12,0,0,0,.38.34,1.11,1.11,0,0,0,.65.11,1.05,1.05,0,0,0,.86-.71l.62-1.88,1.9-.55A1.07,1.07,0,0,0,36.89,21.84Z"/><path class="cls-3" d="M32.36,33.06a1.08,1.08,0,0,0-.74-.85l-1.89-.58-.6-1.88a1,1,0,0,0-.85-.73,1.06,1.06,0,0,0-1,.44l-1.14,1.62h-2a1.06,1.06,0,0,0-.85,1.7l1.19,1.58-.63,1.87a1.07,1.07,0,0,0,.26,1.09,1,1,0,0,0,1.09.25l1.88-.64,1.59,1.17a1,1,0,0,0,.47.2,1.06,1.06,0,0,0,.65-.11,1,1,0,0,0,.57-1l0-2,1.61-1.15A1.08,1.08,0,0,0,32.36,33.06Z"/><rect class="cls-5" x="0.72" y="39.63" width="56.67" height="9.07" rx="2.04" ry="2.04"/></svg>