<svg id="Layer_1" data-name="Layer 1" xmlns="http://www.w3.org/2000/svg" viewBox="0 0 100 100"><defs><style>.cls-1{fill:#bcd2de;}.cls-2{fill:#aecddd;}.cls-3{fill:#b0cedd;}.cls-4{fill:#a9ccdd;}.cls-5{fill:#c7d6de;}.cls-6{fill:#c2d4de;}.cls-7{fill:#96c5dc;}.cls-8{fill:#81bfda;}.cls-9{fill:#7dbdda;}.cls-10{opacity:0.32;}.cls-11{opacity:0.49;}.cls-12{fill:#069274;}.cls-13{fill:#09a582;}.cls-14{fill:#089a7a;}</style></defs><title>greenhouse</title><polygon class="cls-1" points="79.01 22.64 23.06 22.64 23.06 77.36 60.42 77.36 60.42 34.81 79.01 22.64"/><polygon class="cls-2" points="79.61 22.64 79.61 77.36 99.4 77.36 99.4 34.81 79.61 22.64"/><polygon class="cls-2" points="59.83 34.81 59.83 77.36 79.61 77.36 79.61 22.64 59.83 34.81"/><rect class="cls-3" x="40.09" y="34.81" width="19.74" height="42.55"/><path class="cls-4" d="M59.83,77.87H40.08a.51.51,0,0,1-.51-.51V34.81a.51.51,0,0,1,.51-.51H59.83a.51.51,0,0,1,.51.51V77.36A.51.51,0,0,1,59.83,77.87Zm-19.23-1H59.32V35.32H40.6Z"/><rect class="cls-5" x="59.85" y="34.81" width="19.74" height="42.55"/><path class="cls-4" d="M79.59,77.87H59.85a.51.51,0,0,1-.51-.51V34.81a.51.51,0,0,1,.51-.51H79.59a.51.51,0,0,1,.52.51V77.36A.51.51,0,0,1,79.59,77.87Zm-19.23-1H79.08V35.32H60.36Z"/><rect class="cls-3" x="79.7" y="34.81" width="19.74" height="42.55"/><path class="cls-4" d="M99.44,77.87H79.7a.51.51,0,0,1-.51-.51V34.81a.51.51,0,0,1,.51-.51H99.44a.51.51,0,0,1,.52.51V77.36A.51.51,0,0,1,99.44,77.87Zm-19.23-1H98.93V35.32H80.21Z"/><polygon class="cls-3" points="40.09 22.64 20.3 22.64 40.09 34.81 59.87 34.81 59.87 34.81 40.09 22.64"/><path class="cls-4" d="M59.87,35.32H40.08a.48.48,0,0,1-.26-.07L20,23.08a.51.51,0,0,1-.22-.58.5.5,0,0,1,.49-.37H40.08a.5.5,0,0,1,.27.08L60.14,34.37a.52.52,0,0,1,.23.58A.53.53,0,0,1,59.87,35.32Zm-19.64-1H58.06L39.94,23.16H22.11Z"/><polygon class="cls-5" points="59.87 22.64 40.09 22.64 59.87 34.81 79.66 34.81 79.66 34.81 59.87 22.64"/><path class="cls-4" d="M79.66,35.32H59.87a.52.52,0,0,1-.27-.07L39.82,23.08a.51.51,0,0,1,.26-.95H59.87a.5.5,0,0,1,.27.08L79.93,34.37a.53.53,0,0,1,.22.58A.5.5,0,0,1,79.66,35.32ZM60,34.3H77.84L59.73,23.16H41.9Z"/><polygon class="cls-6" points="79.66 22.64 59.87 22.64 79.66 34.81 99.44 34.81 99.44 34.81 79.66 22.64"/><path class="cls-4" d="M99.44,35.32H79.66a.5.5,0,0,1-.27-.07L59.6,23.08a.53.53,0,0,1-.22-.58.5.5,0,0,1,.49-.37H79.66a.53.53,0,0,1,.27.08L99.71,34.37a.52.52,0,0,1,.23.58A.53.53,0,0,1,99.44,35.32Zm-19.64-1H97.63L79.51,23.16H61.68Z"/><polygon class="cls-7" points="20.3 22.64 0.51 34.81 0.51 77.36 40.09 77.36 40.09 34.81 20.3 22.64"/><path class="cls-8" d="M40.08,77.87H.51A.51.51,0,0,1,0,77.36V34.81a.52.52,0,0,1,.24-.44L20,22.21a.48.48,0,0,1,.54,0L40.35,34.37a.51.51,0,0,1,.25.44V77.36A.51.51,0,0,1,40.08,77.87Zm-39-1H39.57V35.1L20.3,23.25,1,35.1Z"/><polygon class="cls-7" points="20.3 22.64 0.51 34.81 0.51 34.81 40.09 34.81 40.09 34.81 20.3 22.64"/><path class="cls-8" d="M40.08,35.32H.51A.5.5,0,0,1,0,35a.53.53,0,0,1,.22-.58L20,22.21a.48.48,0,0,1,.54,0L40.35,34.37a.51.51,0,0,1-.27,1Zm-37.75-1H38.27l-18-11Z"/><rect class="cls-9" x="10.56" y="36.75" width="19.48" height="40.61"/><path class="cls-8" d="M30,77.87H10.56a.51.51,0,0,1-.51-.51V36.75a.51.51,0,0,1,.51-.52H30a.51.51,0,0,1,.51.52V77.36A.51.51,0,0,1,30,77.87Zm-19-1H29.53V37.26H11.07Z"/><g class="cls-10"><polygon class="cls-3" points="79.7 22.64 59.91 34.81 59.91 77.36 99.49 77.36 99.49 34.81 79.7 22.64"/><path class="cls-4" d="M99.49,77.87H59.91a.51.51,0,0,1-.51-.51V34.81a.51.51,0,0,1,.25-.44L79.43,22.21a.48.48,0,0,1,.54,0L99.76,34.37a.52.52,0,0,1,.24.44V77.36A.51.51,0,0,1,99.49,77.87Zm-39.06-1H99V35.1L79.7,23.25,60.43,35.1Z"/></g><g class="cls-11"><path class="cls-12" d="M58.55,74a19.19,19.19,0,0,1-4.72-.58l.3-1.07c.06,0,6.18,1.68,10.88-1a10.43,10.43,0,0,0,4.86-6.65l1.06.3a11.48,11.48,0,0,1-5.38,7.32A14.29,14.29,0,0,1,58.55,74Z"/><path class="cls-13" d="M64.7,65a5.64,5.64,0,0,0-1,7.91l0,0,4.89-3.87V63.81A8.6,8.6,0,0,0,64.7,65Z"/><path class="cls-14" d="M72.7,63.59a35.47,35.47,0,0,0-4,.22V69.1l4-3.18Z"/><path class="cls-13" d="M75.52,63.67s-1.2-.08-2.82-.08v2.33l2.82-2.24Z"/><path class="cls-12" d="M63.8,73a5.62,5.62,0,0,0,7.86.9c2.43-1.91,3.85-10.08,3.86-10.19Z"/><path class="cls-12" d="M56.42,62.51l-2.17-.42c-.24,1.24-2,11-.62,15.78H56C54.65,75.28,55.51,67.23,56.42,62.51Z"/><path class="cls-13" d="M54.76,67.15v-7.3L45.94,51a12.8,12.8,0,0,0-1.81,5.49,10.69,10.69,0,0,0,.24,2.21l8.18,8.19A10.76,10.76,0,0,0,54.76,67.15Z"/><path class="cls-13" d="M52.55,66.92l-8.18-8.19A10.63,10.63,0,0,0,52.55,66.92Z"/><path class="cls-14" d="M54.76,56.26l-7.5-7.51c-.48.76-.92,1.53-1.32,2.28l8.82,8.82Z"/><path class="cls-13" d="M54.76,50.31l-5.09-5.1c-.82,1.13-1.65,2.33-2.41,3.54l7.5,7.51Z"/><path class="cls-14" d="M54.76,38.9s-2.51,2.78-5.09,6.31l5.09,5.1Z"/><path class="cls-12" d="M65.39,56.52c0-5.87-10.63-17.62-10.63-17.62V67.15A10.63,10.63,0,0,0,65.39,56.52Z"/></g></svg>