<svg id="Layer_1" data-name="Layer 1" xmlns="http://www.w3.org/2000/svg" viewBox="0 0 100 100"><defs><style>.cls-1{fill:#6d4945;}.cls-2{fill:#bf9b77;}.cls-3{fill:#6f4b47;}.cls-4{fill:#171717;}.cls-5{fill:#454547;}.cls-6{fill:#967a5d;}.cls-7{fill:#895e59;}</style></defs><title>faun</title><path class="cls-1" d="M59.79,58.91a75.66,75.66,0,0,0,4.47,8.42A40.93,40.93,0,0,0,70,74.84C72.21,77,75,78.93,78,78.31a7.59,7.59,0,0,0,3.87-2.42,20.07,20.07,0,0,0,2.77-4,20,20,0,0,1-2.32,4.37,8.42,8.42,0,0,1-4,3.17A7.91,7.91,0,0,1,73,79.21,17.71,17.71,0,0,1,68.5,76.6a43.84,43.84,0,0,1-7.09-7.26A79.29,79.29,0,0,1,55.64,61a2.34,2.34,0,0,1,4-2.4l.12.23Z"/><polygon class="cls-2" points="60.48 47.78 45.67 53.04 61.54 83.32 65.51 79.9 60.48 47.78"/><rect class="cls-3" x="25.58" y="30.49" width="8.46" height="24.46" rx="2.09" ry="2.09" transform="translate(-8.21 7.11) rotate(-11.97)"/><rect class="cls-3" x="29.39" y="46.87" width="6.75" height="19.5" rx="1.67" ry="1.67" transform="translate(-11.03 8.03) rotate(-11.97)"/><path class="cls-4" d="M31,8.81c.05-.07-.25,0-.42.1a4.58,4.58,0,0,0-.63.25,10.83,10.83,0,0,0-1.32.66A18.17,18.17,0,0,0,26,11.6a26.33,26.33,0,0,0-4.57,4.83,35.7,35.7,0,0,0-3.54,6c-.52,1.07-.92,2.2-1.39,3.32l-1.13,3.46.12-3.68c.14-1.21.21-2.46.41-3.69a39.13,39.13,0,0,1,1.86-7.38A32.32,32.32,0,0,1,21.4,7.44,25.72,25.72,0,0,1,24,4.2a20.6,20.6,0,0,1,1.58-1.5c.29-.24.57-.49.9-.72a8,8,0,0,1,1.16-.76Z"/><path class="cls-5" d="M31,8.81a6.73,6.73,0,0,1-.75.21L26,2.36c.54-.39,1.09-.77,1.66-1.14Z"/><polygon class="cls-5" points="28.12 10.1 26.05 11.56 21.43 7.39 23.49 4.77 28.12 10.1"/><polygon class="cls-5" points="24.09 13.31 22.29 15.32 18.36 13.01 19.73 10.15 24.09 13.31"/><polygon class="cls-5" points="20.65 17.53 19.19 19.92 16.48 18.89 17.28 15.94 20.65 17.53"/><polygon class="cls-5" points="17.89 22.46 16.77 25.11 15.57 24.83 15.91 21.87 17.89 22.46"/><polygon class="cls-5" points="15.8 27.9 15.39 29.25 15.4 27.83 15.8 27.9"/><path class="cls-4" d="M52.47,1.22A7.69,7.69,0,0,1,53.64,2c.33.23.61.48.9.72a20.6,20.6,0,0,1,1.58,1.5,25.72,25.72,0,0,1,2.63,3.24,32.32,32.32,0,0,1,3.62,7.06,39.91,39.91,0,0,1,1.86,7.38c.2,1.23.27,2.48.41,3.69l.12,3.68-1.13-3.46c-.47-1.12-.87-2.25-1.39-3.32a35.7,35.7,0,0,0-3.54-6,26.67,26.67,0,0,0-4.57-4.83,19.37,19.37,0,0,0-2.6-1.78,11.6,11.6,0,0,0-1.32-.66,4.58,4.58,0,0,0-.63-.25c-.17-.06-.48-.17-.43-.1Z"/><path class="cls-5" d="M52.47,1.22c.57.37,1.13.75,1.67,1.14L49.91,9a7.6,7.6,0,0,1-.76-.21Z"/><polygon class="cls-5" points="56.66 4.77 58.72 7.39 54.1 11.56 52.03 10.1 56.66 4.77"/><polygon class="cls-5" points="60.42 10.15 61.79 13.01 57.86 15.32 56.06 13.31 60.42 10.15"/><polygon class="cls-5" points="62.87 15.94 63.67 18.89 60.96 19.92 59.5 17.53 62.87 15.94"/><polygon class="cls-5" points="64.23 21.87 64.58 24.83 63.38 25.11 62.26 22.46 64.23 21.87"/><polygon class="cls-5" points="64.75 27.83 64.76 29.25 64.35 27.9 64.75 27.83"/><polygon class="cls-6" points="47.37 47.78 32.56 53.04 48.43 83.32 52.4 79.9 47.37 47.78"/><polyline class="cls-6" points="46.96 83.63 44.7 95.99 50.99 84.99"/><rect class="cls-6" x="47.14" y="79.24" width="5.41" height="3.55" rx="0.88" ry="0.88" transform="translate(28.64 -11.71) rotate(18.72)"/><rect class="cls-6" x="46.37" y="81.5" width="5.41" height="3.55" rx="0.88" ry="0.88" transform="translate(29.33 -11.35) rotate(18.72)"/><path class="cls-2" d="M34.82,61.3A14.56,14.56,0,0,0,62.3,53C55.62,61.24,45.12,61.78,34.82,61.3Z"/><path class="cls-7" d="M62.3,53a15.07,15.07,0,0,0-1-3.76C56.59,38,54.88,34.56,54.39,34h-.17a6.19,6.19,0,0,0,.56,1.83l.07,0s0,0-.07,0c-3-1.35-2-1.74-.56-1.83,0-.11.06-.13.17,0a19.19,19.19,0,0,1,2.13,0l-23.6-3c-.54,1.78-8.84-8-4.37,12.67,1.42,6.55,2.51,8.69,5.86,16.71.13.29.27.57.41.85C45.12,61.78,55.62,61.24,62.3,53Z"/><path class="cls-7" d="M54.85,35.87l-.07,0S54.84,35.91,54.85,35.87Z"/><path class="cls-7" d="M54.22,34h.17C54.28,33.88,54.23,33.9,54.22,34Z"/><polygon class="cls-4" points="40.16 100 50.77 100 45.47 92.91 40.16 100"/><polyline class="cls-2" points="60.07 83.63 57.81 95.99 64.1 84.99"/><rect class="cls-2" x="60.25" y="79.24" width="5.41" height="3.55" rx="0.88" ry="0.88" transform="translate(29.34 -15.92) rotate(18.72)"/><rect class="cls-2" x="59.48" y="81.5" width="5.41" height="3.55" rx="0.88" ry="0.88" transform="translate(30.02 -15.55) rotate(18.72)"/><polygon class="cls-4" points="53.27 100 63.88 100 58.58 92.91 53.27 100"/><rect class="cls-7" x="25.09" y="25.86" width="34.78" height="17.12" rx="4.23" ry="4.23"/><rect class="cls-7" x="27.23" y="1.12" width="25.23" height="32.03" rx="6.24" ry="6.24"/><rect class="cls-1" x="25.09" width="30.63" height="12.01" rx="2.97" ry="2.97"/><rect class="cls-1" x="34.4" y="5.38" width="8.08" height="16.95" rx="2" ry="2"/><rect class="cls-4" x="29.05" y="12.81" width="1.64" height="1.64" rx="0.4" ry="0.4"/><rect class="cls-4" x="46.77" y="12.81" width="1.64" height="1.64" rx="0.4" ry="0.4"/><rect class="cls-1" x="32.56" y="23.29" width="12.27" height="1.24" rx="0.31" ry="0.31"/><polyline class="cls-2" points="35.51 30.67 41.38 30.67 38.44 40.18"/><polyline class="cls-2" points="33.91 30.67 38.44 30.67 36.18 38.01"/><polyline class="cls-2" points="38.44 30.67 42.98 30.67 40.71 38.01"/><path class="cls-3" d="M54.78,35.84A6.19,6.19,0,0,1,54.22,34a3.36,3.36,0,0,0-1.11.21c-.08.12-.17.24-.24.37C53,34.86,53.52,35.26,54.78,35.84Z"/><path class="cls-3" d="M60.29,48.51a3.88,3.88,0,0,1,.66-.14C56.52,37.81,54.87,34.55,54.39,34h-.17a6.19,6.19,0,0,0,.56,1.83l.07,0s0,0-.07,0c-1.26-.58-1.81-1-1.91-1.25a4.22,4.22,0,0,0-.35,3.31l4.8,15.26a4.19,4.19,0,0,0,1.57,2.15l-.81-2.57A3.39,3.39,0,0,1,60.29,48.51Z"/><path class="cls-3" d="M61.3,49.19,61,48.37a3.88,3.88,0,0,0-.66.14,3.39,3.39,0,0,0-2.21,4.23l.81,2.57a4.25,4.25,0,0,0,3.48.67A14.51,14.51,0,0,0,61.3,49.19Z"/><path class="cls-2" d="M37.73,61.22a1.9,1.9,0,0,1-3.79,0c0-1-1-4,0-4S37.73,60.17,37.73,61.22Z"/><path class="cls-2" d="M41.38,61.7a1.9,1.9,0,1,1-3.79,0c0-1-1-4,0-4S41.38,60.66,41.38,61.7Z"/><path class="cls-2" d="M45,62.19a1.9,1.9,0,0,1-3.79,0c0-1-1-4,0-4S45,61.14,45,62.19Z"/><path class="cls-2" d="M48.68,62.67a1.9,1.9,0,1,1-3.79,0c0-1-1-4,0-4S48.68,61.63,48.68,62.67Z"/><path class="cls-2" d="M51.2,61.22a1.89,1.89,0,0,1-3.78,0c0-1-1.05-4,0-4S51.2,60.17,51.2,61.22Z"/><path class="cls-2" d="M54.1,60.64a1.9,1.9,0,1,1-3.79,0c0-1-1.05-4,0-4S54.1,59.6,54.1,60.64Z"/><path class="cls-2" d="M57.72,60a1.9,1.9,0,1,1-3.79,0c0-1-1-4,0-4S57.72,58.92,57.72,60Z"/><path class="cls-2" d="M59.84,58.85a1.89,1.89,0,1,1-3.78,0c0-1.05-1.05-4,0-4S59.84,57.8,59.84,58.85Z"/><path class="cls-2" d="M61.11,57.68a1.9,1.9,0,1,1-3.79,0c0-1-1-4,0-4S61.11,56.64,61.11,57.68Z"/><rect class="cls-7" x="55.42" y="29.98" width="8.46" height="24.46" rx="2.09" ry="2.09" transform="translate(-9.91 19.82) rotate(-17.44)"/><rect class="cls-7" x="60.54" y="46.01" width="6.75" height="19.5" rx="1.67" ry="1.67" transform="translate(-13.77 21.72) rotate(-17.44)"/></svg>