<svg id="Layer_1" data-name="Layer 1" xmlns="http://www.w3.org/2000/svg" viewBox="0 0 100 100"><defs><style>.cls-1{fill:#ffc63f;}.cls-2{fill:#e6b43b;}.cls-3{fill:#fff;}</style></defs><title>gold</title><path class="cls-1" d="M99.74,59.83l-9.2-22.29a3.44,3.44,0,0,0-3.19-2.14h-17a3.44,3.44,0,0,0-3.19,2.14L58,59.83a3.45,3.45,0,0,0,3.19,4.77H96.55a3.45,3.45,0,0,0,3.19-4.77Z"/><rect class="cls-1" x="21.16" y="35.4" width="58.79" height="29.2"/><path class="cls-2" d="M42.05,59.83,32.86,37.54a3.44,3.44,0,0,0-3.19-2.14h-17a3.44,3.44,0,0,0-3.19,2.14L.26,59.83A3.45,3.45,0,0,0,3.45,64.6H38.86a3.45,3.45,0,0,0,3.19-4.77Z"/><path class="cls-3" d="M45.77,42.26a8.85,8.85,0,0,1-.43,6A8.84,8.84,0,0,1,41.14,44a8.84,8.84,0,0,1,.44-6A8.89,8.89,0,0,1,45.77,42.26Z"/><path class="cls-3" d="M55.09,42.26a8.89,8.89,0,0,1-.44,6A8.8,8.8,0,0,1,50.46,44a8.87,8.87,0,0,1,.43-6A8.9,8.9,0,0,1,55.09,42.26Z"/></svg>