<svg id="Layer_1" data-name="Layer 1" xmlns="http://www.w3.org/2000/svg" viewBox="0 0 100 100"><defs><style>.cls-1{fill:#09a582;}.cls-2{fill:#069274;}.cls-3{fill:#58595b;}.cls-4{fill:#4a4a4c;}</style></defs><title>moss</title><path class="cls-1" d="M75.53,37.58c0,4.54-15.21,8.21-34,8.21s-34-3.67-34-8.21,15.2-11.91,34-11.91S75.53,33.05,75.53,37.58Z"/><path class="cls-1" d="M9.11,37.65a1,1,0,0,1-.93-.6c-.15-.34-1.46-3.42-.51-5.66a2.63,2.63,0,0,0-.54-2.52,1,1,0,0,1,1.51-1.35,4.66,4.66,0,0,1,.9,4.66c-.52,1.22.2,3.39.5,4a1,1,0,0,1-.52,1.34A1,1,0,0,1,9.11,37.65Z"/><path class="cls-1" d="M10.17,36.13a1,1,0,0,1-.94-.65,4.53,4.53,0,0,1-.17-3.35,4.39,4.39,0,0,1,1.35-1.74c.43-.37.58-.52.61-.76a1.34,1.34,0,0,0-.14-.66A1.52,1.52,0,0,1,11,27.25c.84-.9,2.47-.31,3.35.41a4.23,4.23,0,0,1,1.27,1.83,5.85,5.85,0,0,1,.45,2,11,11,0,0,0,1.66-1.1A5,5,0,0,0,19.66,28a1.2,1.2,0,0,1-.82-.85,2.36,2.36,0,0,1,.24-1.91,3.7,3.7,0,0,1,2.28-1.81,3.2,3.2,0,0,1,3.12.82c1,1.13.62,2.73.31,3.93l.41-.29C27,26.64,27.88,26,28,25.18a1.22,1.22,0,0,0-.16-.76,2.48,2.48,0,0,1-.19-1.83,3.59,3.59,0,0,1,1.84-2.06A4.64,4.64,0,0,1,33,20.14,4.41,4.41,0,0,1,36.12,24a3.89,3.89,0,0,1-.29,1.44,2.47,2.47,0,0,0-.22,1.17,2.23,2.23,0,0,0,.25,1.06c.25.37,1,.43,2.68.53.56,0,1.22.07,2,.13,1.08.09,1.89.19,2.52.26a7.53,7.53,0,0,0,1.33.11c.24-.34-.46-2.51-.76-3.43-.09-.29-.19-.55-.27-.78a3.77,3.77,0,0,1-.26-2.87,3.47,3.47,0,0,1,1.86-1.81,1,1,0,1,1,.86,1.84,1.51,1.51,0,0,0-.84.72c-.11.28,0,.6.28,1.43.09.25.19.53.29.84.67,2.05,1.35,4.16.28,5.43-.69.82-1.53.72-3,.53-.6-.07-1.39-.17-2.44-.26l-1.92-.12c-2.13-.13-3.42-.2-4.24-1.42a4,4,0,0,1-.59-2.05,4.45,4.45,0,0,1,.34-2,1.91,1.91,0,0,0,.17-.69,2.45,2.45,0,0,0-1.69-2,2.67,2.67,0,0,0-2,.23,1.69,1.69,0,0,0-.85.86c0,.09,0,.11.11.44a3.16,3.16,0,0,1,.3,1.86c-.24,1.7-1.58,2.65-3.62,4.1-1.38,1-2.3,1.63-3.21,1s-.63-1.76-.36-2.78c.19-.73.47-1.84.15-2.21a1.26,1.26,0,0,0-1.1-.19,1.72,1.72,0,0,0-1.08,1,1.81,1.81,0,0,1,.74.78C22.43,29.15,19.6,31.53,19,32c-1.89,1.51-3.32,1.94-4.26,1.25a1.86,1.86,0,0,1-.68-1.56,4,4,0,0,0-.3-1.4,2.27,2.27,0,0,0-.67-1L13,29.17a2.48,2.48,0,0,1,0,.72,3.09,3.09,0,0,1-1.29,2,2.43,2.43,0,0,0-.79.95,2.56,2.56,0,0,0,.17,1.88,1,1,0,0,1-.58,1.31A1.21,1.21,0,0,1,10.17,36.13Z"/><path class="cls-1" d="M18.4,32.2a1,1,0,0,1-.58-.18A7,7,0,0,1,15,27.91a5,5,0,0,1,0-2.84,4.45,4.45,0,0,1,.6-1.13,5.9,5.9,0,0,0-1.15-.27,1,1,0,0,1-.85-1.15,1,1,0,0,1,1.15-.85c1.28.19,2.77.57,3,1.8A1.88,1.88,0,0,1,17.32,25a2.51,2.51,0,0,0-.41.72,3,3,0,0,0,0,1.72,5.06,5.06,0,0,0,2,2.9,1,1,0,0,1-.58,1.84Z"/><path class="cls-1" d="M32.34,29.82a1,1,0,0,1-.91-.57,8.36,8.36,0,0,1-.49-6.15,6.67,6.67,0,0,1,2.47-3.48,6.46,6.46,0,0,1,3.38-1.13,1,1,0,1,1,.09,2,4.36,4.36,0,0,0-2.31.76,4.65,4.65,0,0,0-1.71,2.47,6.3,6.3,0,0,0,.39,4.61,1,1,0,0,1-.46,1.36A1,1,0,0,1,32.34,29.82Z"/><path class="cls-1" d="M25.57,31a1,1,0,0,1-1-.78c-.59-2.49-.44-4.5.42-6a4.88,4.88,0,0,0,.44-.82.31.31,0,0,1-.13-.05,7.24,7.24,0,0,1-.93-.6,6.73,6.73,0,0,1-1-1,1,1,0,0,1,1.52-1.34,5.22,5.22,0,0,0,.74.69,5.64,5.64,0,0,0,.69.44,2.15,2.15,0,0,1,1,.93,2.75,2.75,0,0,1-.46,2.59,6.23,6.23,0,0,0-.29,4.65A1,1,0,0,1,25.8,31,.85.85,0,0,1,25.57,31Z"/><path class="cls-1" d="M37.41,27.6a1,1,0,0,1-1-1,4.37,4.37,0,0,1,.76-2.78A4.27,4.27,0,0,1,38,23c.26-.22.34-.29.41-.47a.91.91,0,0,0,0-.34c0-.18,0-.4,0-.72,0-1.41,0-2.87,1.08-3.46s2.27,0,3.63,1.38a1,1,0,1,1-1.45,1.41A4.47,4.47,0,0,0,40.48,20a11.8,11.8,0,0,0-.1,1.59c0,.26,0,.44,0,.59a2.5,2.5,0,0,1-.13,1.14,2.91,2.91,0,0,1-1,1.32,2,2,0,0,0-.83,2,1,1,0,0,1-1,1Z"/><path class="cls-1" d="M51.94,32a4.64,4.64,0,0,1-2.76-1.28,1,1,0,0,1,1.29-1.56A4.66,4.66,0,0,0,51.7,30a10.64,10.64,0,0,0-.07-1.59c0-.26-.05-.44-.08-.59a2.64,2.64,0,0,1,0-1.15,2.93,2.93,0,0,1,.86-1.42,2.21,2.21,0,0,0,.4-.49A2.39,2.39,0,0,0,53,23.15a1,1,0,0,1,2-.27,4.4,4.4,0,0,1-.46,2.84,4.13,4.13,0,0,1-.7.88,1.14,1.14,0,0,0-.36.51c0,.08,0,.09,0,.35s.07.4.1.7c.13,1.42.26,2.87-.72,3.57A1.67,1.67,0,0,1,51.94,32Z"/><path class="cls-1" d="M60.49,32.69a1.14,1.14,0,0,1-.57-.14c-.85-.43-.68-1.34-.54-2.15a16,16,0,0,0,.31-3.23,15.81,15.81,0,0,0-.18-2.46c0,.06-.09.11-.13.16-.25.29-.55.64-.92,1-1.9,2-4.49,4.14-6.13,3.3-1.09-.56-1.06-1.85-1-3,0-.87.05-1.85-.37-2.16s-1.16-.08-1.68.05l-.22.05c-2.67.63-3.72,3.7-3.76,3.83a1,1,0,1,1-1.92-.64c.14-.44,1.52-4.29,5.22-5.16l.2-.05a4,4,0,0,1,3.35.28c1.29.94,1.24,2.62,1.21,3.85a9.37,9.37,0,0,0,0,1.07A12.1,12.1,0,0,0,57,24.5c.34-.36.62-.68.85-.95.65-.76,1.27-1.48,2.22-1.23,1.48.38,1.63,2.69,1.65,4.83a17.94,17.94,0,0,1-.12,2.25,9.33,9.33,0,0,0,1.54-3.34,8.26,8.26,0,0,0,0-3.5,1,1,0,1,1,2-.41,10.4,10.4,0,0,1,0,4.34c-.67,3.05-2.71,5.47-3.92,6A1.51,1.51,0,0,1,60.49,32.69Z"/><path class="cls-1" d="M51.53,34.66a1.26,1.26,0,0,1-.57-.13c-.84-.43-.68-1.35-.53-2.15a16.23,16.23,0,0,0,.3-3.24,13.44,13.44,0,0,0-.18-2.45l-.13.15c-.25.3-.55.65-.92,1-1.54,1.62-4.38,4.19-6.13,3.31-1.09-.56-1-1.85-1-3,0-.86,0-1.85-.38-2.16s-1.15-.08-1.67,0l-.22.05c-2.68.63-3.72,3.7-3.77,3.83a1,1,0,0,1-1.92-.64c.14-.43,1.52-4.29,5.22-5.16l.2-.05a4,4,0,0,1,3.35.28c1.29.94,1.25,2.63,1.21,3.86a7.5,7.5,0,0,0,0,1.07A12.4,12.4,0,0,0,48,26.47c.35-.35.62-.68.85-.95.65-.76,1.28-1.47,2.23-1.23,1.48.39,1.62,2.69,1.65,4.83a17.62,17.62,0,0,1-.13,2.25A9.16,9.16,0,0,0,54.17,28a8.26,8.26,0,0,0,0-3.5,1,1,0,1,1,2-.41,10.29,10.29,0,0,1,0,4.35c-.68,3.05-2.71,5.46-3.92,6A1.55,1.55,0,0,1,51.53,34.66Z"/><path class="cls-1" d="M63,34.12a1,1,0,0,1-.56-1.85,24.44,24.44,0,0,0,4.13-3.46c1-1.07,1.23-1.53,1.31-2.06a3.07,3.07,0,0,0-.5-2.1,1,1,0,0,1,1.74-1,5.18,5.18,0,0,1,.77,3.46,5.87,5.87,0,0,1-1.85,3.14A25.53,25.53,0,0,1,63.6,34,1,1,0,0,1,63,34.12Z"/><path class="cls-1" d="M70.51,36.53a1,1,0,0,1-.28-2c1.88-.53,3-1.8,2.94-2.72,0-1.3-2.44-2.23-3.34-2.57a8.6,8.6,0,0,0-4.89-.33,10.24,10.24,0,0,0-5.3,2.88,1,1,0,1,1-1.43-1.43,12.22,12.22,0,0,1,6.34-3.44,10.8,10.8,0,0,1,6,.42c1.36.53,4.54,1.76,4.63,4.4.07,2-1.78,4-4.41,4.74A.84.84,0,0,1,70.51,36.53Z"/><path class="cls-1" d="M9.83,37.69a1.35,1.35,0,0,1-.28,0,1,1,0,0,1-.69-1.26,12.18,12.18,0,0,1,3.51-5.62c2.47-2.21,5.45-2.45,8.34-2.68.66-.05,1.33-.11,2-.19a17.55,17.55,0,0,0,7.7-2.35,10.88,10.88,0,0,1,5.8-1.7c4.69-.18,8.84,1.61,12.11,3,3.74,1.61,5.94,2.46,7.66,1.21a4,4,0,0,0,.69-.67,3.15,3.15,0,0,1,1.62-1.16c2.18-.69,4.05.53,11.6,5.79,2,1.37,3.25,2.27,4.94,2.18a5.4,5.4,0,0,0,2.77-1,1,1,0,0,1,1.15,1.68A7.43,7.43,0,0,1,75,36.25c-2.34.16-4-1-6.16-2.51-7-4.84-8.69-5.92-9.88-5.55a1.26,1.26,0,0,0-.68.53,6.06,6.06,0,0,1-1,1c-2.73,2-5.93.61-9.65-1-3.25-1.4-6.92-3-11.25-2.87a9.11,9.11,0,0,0-4.88,1.44,19.38,19.38,0,0,1-8.46,2.61c-.7.08-1.39.13-2.07.19-2.78.22-5.19.41-7.15,2.17A10.18,10.18,0,0,0,10.8,37,1,1,0,0,1,9.83,37.69Z"/><ellipse class="cls-2" cx="46.53" cy="68.9" rx="46.18" ry="11.96"/><path class="cls-1" d="M68.42,38.06l4.18-1.4c-7.42-7.21-16.4-12.73-26.07-12.73-20.17,0-31.69,5.43-38.23,12.55l4.54,1.4Z"/><path class="cls-3" d="M72.6,36.66l-4,1.59h0l.38,2-.38-2-55.19-1,.13.12-.13-.12h0L8.3,36.48C-2.54,48.3.35,64.77.35,68.9.35,75.5,21,80.85,46.53,80.85S92.71,75.5,92.71,68.9C92.71,64.8,84.74,48.46,72.6,36.66Z"/><path class="cls-3" d="M99.56,74.88c-3.8,4.62-8.9,7.27-19.88,7.27S59.8,80.86,59.8,74.88s8.9-10.83,19.88-10.83S102.45,71.35,99.56,74.88Z"/><path class="cls-4" d="M90.85,71l7.6-.16c-4.23-4.12-9.3-7.27-14.82-7.27-11.51,0-18.09,3.1-21.82,7.17l6.68.65Z"/><path class="cls-1" d="M72.6,37c0,1.66-14.4,5.47-32.15,5.47S8.3,38.15,8.3,36.48s14.39,0,32.15,0S72.6,35.37,72.6,37Z"/><path class="cls-4" d="M98.45,70.8c0,.73-8,2.56-18.18,2.56s-18.46-1.75-18.46-2.48,8.27-.18,18.46-.18S98.45,70.47,98.45,70.8Z"/><circle class="cls-4" cx="19.74" cy="46.3" r="1.12"/><circle class="cls-4" cx="23.75" cy="52.91" r="1.12"/><circle class="cls-4" cx="41.77" cy="52.91" r="1.12"/><circle class="cls-4" cx="59.8" cy="52.91" r="1.12"/><circle class="cls-4" cx="28.53" cy="46.3" r="1.12"/><circle class="cls-4" cx="46.11" cy="46.3" r="1.12"/><circle class="cls-4" cx="36.82" cy="46.3" r="1.12"/><circle class="cls-4" cx="54.9" cy="46.3" r="1.12"/><circle class="cls-4" cx="63.7" cy="46.3" r="1.12"/></svg>