<svg id="Layer_1" data-name="Layer 1" xmlns="http://www.w3.org/2000/svg" viewBox="0 0 100 100"><defs><style>.cls-1{fill:#fff;}.cls-2{fill:#f37d3b;}.cls-3{fill:#ffc640;}</style></defs><title>egg timer</title><path class="cls-1" d="M93.17,71.69C93.17,95.54,73.84,100,50,100S6.83,95.54,6.83,71.69,26.16,0,50,0,93.17,47.85,93.17,71.69Z"/><rect class="cls-2" x="15.36" y="50.92" width="2.75" height="11.24" rx="0.64" ry="0.64"/><rect class="cls-2" x="26.89" y="52.45" width="2.75" height="11.24" rx="0.64" ry="0.64"/><rect class="cls-2" x="38.41" y="53.46" width="2.75" height="11.24" rx="0.64" ry="0.64"/><rect class="cls-2" x="48.74" y="53.46" width="2.75" height="11.24" rx="0.64" ry="0.64"/><rect class="cls-2" x="82.11" y="50.92" width="2.75" height="11.24" rx="0.64" ry="0.64" transform="translate(166.97 113.07) rotate(-180)"/><rect class="cls-2" x="70.58" y="52.45" width="2.75" height="11.24" rx="0.64" ry="0.64" transform="translate(143.92 116.14) rotate(-180)"/><rect class="cls-2" x="59.06" y="53.46" width="2.75" height="11.24" rx="0.64" ry="0.64" transform="translate(120.87 118.16) rotate(-180)"/><rect class="cls-2" x="48.74" y="53.46" width="2.75" height="11.24" rx="0.64" ry="0.64" transform="translate(100.22 118.16) rotate(180)"/><path class="cls-2" d="M51.49,57.34c-20.38,0-34.56-1.77-42.13-3.64-.21.88-.42,1.75-.61,2.61,11.13,2.88,30.62,3.78,42.74,3.78,11.14,0,28.52-.76,39.9-3.12-.19-.87-.39-1.76-.61-2.65C82.74,55.94,69.55,57.34,51.49,57.34Z"/><polygon class="cls-2" points="46.1 74.89 55.27 74.89 50.69 68 46.1 74.89"/><path class="cls-2" d="M55.27,76.26H46.1A1.38,1.38,0,0,1,45,74.12l4.59-6.88a1.44,1.44,0,0,1,2.29,0l4.59,6.88a1.38,1.38,0,0,1-1.15,2.14Zm-6.6-2.75h4l-2-3Z"/><path class="cls-3" d="M50.23,17.63a13.2,13.2,0,1,0,13.19,13.2A13.2,13.2,0,0,0,50.23,17.63ZM41.55,31.68h-1a.85.85,0,0,1,0-1.7h1a.85.85,0,0,1,0,1.7Zm9.54,8.84a.85.85,0,1,1-1.69,0v-1a.85.85,0,0,1,1.69,0ZM51,31.85a1.14,1.14,0,0,1-.11.11.79.79,0,0,1-.36.29L44,37.6l5.31-6.53L50.12,23a.84.84,0,0,1-.72-.83v-1a.85.85,0,0,1,1.69,0v1a.85.85,0,0,1-.85.85h0L51,30.73A.9.9,0,0,1,51,31.85Zm8.92-.17h-1a.85.85,0,0,1,0-1.7h1a.85.85,0,0,1,0,1.7Z"/><path class="cls-3" d="M43.24,14.69c1.56,1.56-1,3.2-3.56,5.77S35.47,25.58,33.91,24s-.73-4.91,1.85-7.49S41.69,13.14,43.24,14.69Z"/><path class="cls-3" d="M56.76,14.69c-1.56,1.56,1,3.2,3.56,5.77s4.21,5.12,5.77,3.57.73-4.91-1.85-7.49S58.31,13.14,56.76,14.69Z"/></svg>