<svg id="Layer_1" data-name="Layer 1" xmlns="http://www.w3.org/2000/svg" viewBox="0 0 100 100"><defs><style>.cls-1{fill:#6ab8d9;}.cls-2{fill:#fff;}.cls-3{fill:#c5c7c9;}.cls-4{fill:#ffc640;}.cls-5{fill:#fcca98;}.cls-6{fill:#e1b589;}.cls-7{fill:#3e3e3f;}.cls-8{fill:#231f20;}.cls-9{fill:#fcc991;}</style></defs><title>butter</title><polyline class="cls-1" points="68.95 29.3 62.79 22.52 82.17 22.52 89.28 29.64"/><polyline class="cls-1" points="62.52 70.7 56.36 77.47 75.73 77.47 82.85 70.36"/><path class="cls-1" d="M77.51,29H0V71.36H77.51a14.06,14.06,0,0,0,14-14V43A14.06,14.06,0,0,0,77.51,29Z"/><path class="cls-2" d="M39.83,43.1a1.48,1.48,0,0,0,1.48,1.48c.82,0,3.25-.66,3.25-1.48s-2.43-1.48-3.25-1.48A1.48,1.48,0,0,0,39.83,43.1Z"/><path class="cls-3" d="M39.9,43.1a1,1,0,0,0,1,1c.53,0,2.11-.43,2.11-1s-1.58-1-2.11-1A1,1,0,0,0,39.9,43.1Z"/><rect class="cls-2" x="21.4" y="45.2" width="28.12" height="15.65" rx="3.85" ry="3.85"/><path class="cls-4" d="M40.25,39a1.27,1.27,0,0,0,.86.14,1.81,1.81,0,0,0,1-.5A5.3,5.3,0,0,0,43.47,36a6,6,0,0,1-.19,3.39A3.65,3.65,0,0,1,42,41a3.8,3.8,0,0,1-2.2.72H38.9a1.71,1.71,0,1,1-.06-3.42A1.74,1.74,0,0,1,40.25,39Z"/><rect class="cls-2" x="25.93" y="38.04" width="16.05" height="12.52" rx="2.02" ry="2.02"/><path class="cls-5" d="M52.46,52.07a7.8,7.8,0,0,1-15.6,0c0-4.3,3.49-5,7.8-5S52.46,47.77,52.46,52.07Z"/><rect class="cls-6" x="36.38" y="51.62" width="17.2" height="2.05" rx="0.5" ry="0.5"/><rect class="cls-6" x="36.38" y="53.67" width="17.2" height="2.05" rx="0.5" ry="0.5"/><circle class="cls-5" cx="49.51" cy="48.05" r="2.2"/><ellipse class="cls-6" cx="50.51" cy="48.05" rx="0.94" ry="1.44"/><circle class="cls-5" cx="43.96" cy="48.05" r="2.2"/><ellipse class="cls-6" cx="44.37" cy="48.05" rx="0.94" ry="1.44"/><path class="cls-2" d="M29.52,38.82s2.4-1.19,2.46-2.25h2.56V40"/><path class="cls-2" d="M38.69,38.82s-2.4-1.19-2.45-2.25H33.68V40"/><path class="cls-4" d="M26.46,41.67A3.76,3.76,0,0,1,23,39.35,6.11,6.11,0,0,1,22.82,36a5.3,5.3,0,0,0,1.34,2.65,1.81,1.81,0,0,0,1,.5A1.27,1.27,0,0,0,26,39a1.71,1.71,0,1,1,1.36,2.71Z"/><path class="cls-2" d="M26.72,43.1a1.49,1.49,0,0,1-1.49,1.48c-.81,0-3.25-.66-3.25-1.48s2.44-1.48,3.25-1.48A1.49,1.49,0,0,1,26.72,43.1Z"/><path class="cls-3" d="M26.64,43.1a1,1,0,0,1-1,1c-.53,0-2.11-.43-2.11-1s1.58-1,2.11-1A1,1,0,0,1,26.64,43.1Z"/><path class="cls-7" d="M33,44.3c0,1.72-2.13,6.15-3.85,6.15S26.72,46,26.72,44.3a3.12,3.12,0,1,1,6.23,0Z"/><circle class="cls-2" cx="29.6" cy="43.9" r="1.55"/><circle class="cls-8" cx="29.54" cy="43.63" r="0.73"/><rect class="cls-4" x="69.61" y="28.97" width="19.19" height="42.39"/><polygon class="cls-9" points="95.42 71.36 76.33 71.36 76.33 28.97 100 28.97 95.42 71.36"/><polyline class="cls-4" points="70.77 34.8 65.26 41.02 70.26 49.71 67.55 54.68 70.77 57.26 62.46 71.36 71.71 71.36"/><circle class="cls-4" cx="80.95" cy="36.02" r="1.21"/><circle class="cls-4" cx="93.26" cy="45.73" r="3.97"/><circle class="cls-4" cx="83.51" cy="57.13" r="1.34"/><circle class="cls-4" cx="89.7" cy="60.23" r="0.72"/><rect class="cls-4" x="13.44" y="62.58" width="44.54" height="3.36" rx="0.83" ry="0.83"/></svg>