<svg id="Layer_1" data-name="Layer 1" xmlns="http://www.w3.org/2000/svg" viewBox="0 0 100 100"><defs><style>.cls-1{fill:#7fa1b2;}.cls-2{fill:#9dc8dc;}.cls-3{fill:#6ab8d9;}</style></defs><title>oxygen</title><path class="cls-1" d="M7,48.77c-2.14-2.65-1.16-7.26,2.84-13.33,3.73-5.65,9.68-11.9,16.76-17.6S41,7.65,47.33,5.2C54.11,2.58,58.82,2.6,61,5.26L59.32,6.58C57.87,4.79,53.68,5,48.09,7.17,42,9.54,34.8,13.91,27.89,19.48S15.19,31.13,11.57,36.6c-3.3,5-4.4,9.06-3,10.85Z"/><path class="cls-1" d="M67.78,34.6l-2-.46c.5-2.25-2.28-5.4-7.45-8.42-5.67-3.32-13.55-6.21-22.21-8.15-18.73-4.2-32.9-2.14-33.9,2.33l-2-.46c1.67-7.47,20-7.6,36.41-3.92,8.86,2,17,5,22.81,8.38C65.61,27.57,68.53,31.27,67.78,34.6Z"/><circle class="cls-2" cx="34.66" cy="30.05" r="23.27"/><path class="cls-1" d="M50.82,40.87a90.84,90.84,0,0,1-19.45-2.35C15,34.85-1.56,26.91.12,19.44l2.05.46c-1,4.47,10.94,12.37,29.66,16.57,8.67,1.94,17,2.68,23.57,2.1,6-.53,9.82-2.19,10.33-4.43l2,.46c-.74,3.33-5,5.43-12.2,6.07C54.08,40.81,52.49,40.87,50.82,40.87Z"/><path class="cls-1" d="M12.14,50.81a6.29,6.29,0,0,1-5.17-2l1.64-1.32C11.48,51,25.1,46.6,40,34.55s22.15-24.4,19.28-28L61,5.26c4.81,6-6.51,20.39-19.6,30.93C31.37,44.25,19.39,50.81,12.14,50.81Z"/><circle class="cls-3" cx="13.09" cy="49.42" r="3.81"/><circle class="cls-3" cx="61.51" cy="38.58" r="3.81"/><circle class="cls-3" cx="68.2" cy="32.01" r="3.81"/><circle class="cls-3" cx="8.58" cy="14.99" r="3.81"/><path class="cls-1" d="M71.26,78.9c-2.16,0-4.37-.07-6.61-.21C55.58,78.12,47.11,76.46,40.8,74c-6.77-2.64-10.23-5.84-10-9.24l2.11.13c-.15,2.29,3.1,5,8.68,7.14,6.11,2.38,14.35,4,23.21,4.56S82,76.57,88.38,75c5.81-1.46,9.36-3.71,9.51-6l2.1.13c-.21,3.4-4,6.14-11.1,7.91A73.89,73.89,0,0,1,71.26,78.9Z"/><path class="cls-1" d="M82.25,96.25c-2.66,0-6.08-1.56-10.11-4.64C66.76,87.5,60.93,81.13,55.73,73.68S46.57,58.57,44.56,52.1c-2.15-6.94-1.8-11.64,1-13.6l1.21,1.73c-1.89,1.32-2,5.52-.18,11.24,1.94,6.27,5.8,13.73,10.88,21S68.21,86,73.42,89.93c4.76,3.64,8.73,5,10.62,3.71l1.2,1.72A5,5,0,0,1,82.25,96.25Z"/><circle class="cls-2" cx="66.92" cy="64.22" r="23.27"/><path class="cls-1" d="M85.24,95.36,84,93.64c3.75-2.62.28-16.51-10.7-32.25-5.08-7.27-10.75-13.47-16-17.46-4.76-3.63-8.73-5-10.62-3.7L45.55,38.5c2.81-2,7.34-.65,13.11,3.76C64,46.37,69.87,52.74,75.07,60.19,84.69,74,91.52,91,85.24,95.36Z"/><path class="cls-1" d="M100,69.1,97.89,69c.28-4.57-12.75-10.5-31.9-11.71-8.85-.55-17.23,0-23.6,1.62-5.81,1.47-9.36,3.71-9.5,6l-2.11-.13c.22-3.41,4-6.15,11.1-7.92,6.56-1.65,15.17-2.25,24.24-1.68C82.9,56.21,100.47,61.46,100,69.1Z"/><circle class="cls-3" cx="95.91" cy="64.49" r="3.81"/><circle class="cls-3" cx="52.87" cy="39.8" r="3.81"/><circle class="cls-3" cx="43.5" cy="40.13" r="3.81"/><circle class="cls-3" cx="75.99" cy="92.94" r="3.81"/></svg>