<svg id="Layer_1" data-name="Layer 1" xmlns="http://www.w3.org/2000/svg" viewBox="0 0 100 100"><defs><style>.cls-1{fill:#ffc63f;}.cls-2{fill:#f89c3e;}.cls-3{fill:#f5893c;}.cls-4{fill:#a15b23;}</style></defs><title>pyramid</title><path class="cls-1" d="M98.4,64,56.86,6.36A8.45,8.45,0,0,0,50,2.85h-.09l-6.1,8.57-6.5,14.48,3.77,53.41-5.5,9.37,14.33,8.46h0a8.46,8.46,0,0,0,3.62-.81L95.16,76.62A8.46,8.46,0,0,0,98.4,64Z"/><path class="cls-2" d="M43.14,6.36,1.6,64A8.45,8.45,0,0,0,4.83,76.61L46.28,96.33a8.4,8.4,0,0,0,3.63.82V2.86A8.46,8.46,0,0,0,43.14,6.36Z"/><rect class="cls-3" x="6.91" y="65.17" width="11.62" height="5.44" rx="1.12" ry="1.12" transform="translate(31.08 1.3) rotate(26.03)"/><rect class="cls-3" x="23.83" y="63.31" width="11.62" height="5.44" rx="1.12" ry="1.12" transform="translate(31.98 -6.31) rotate(26.03)"/><rect class="cls-3" x="19.9" y="44.12" width="11.62" height="5.44" rx="1.12" ry="1.12" transform="translate(23.16 -6.53) rotate(26.03)"/><rect class="cls-3" x="35.26" y="27.14" width="11.62" height="5.44" rx="1.12" ry="1.12" transform="translate(17.27 -15) rotate(26.03)"/><rect class="cls-2" x="81.94" y="65.17" width="11.62" height="5.44" rx="1.12" ry="1.12" transform="translate(196.39 90.38) rotate(153.97)"/><rect class="cls-2" x="55.51" y="56.49" width="11.62" height="5.44" rx="1.12" ry="1.12" transform="translate(142.39 85.5) rotate(153.97)"/><rect class="cls-2" x="68.95" y="44.12" width="11.62" height="5.44" rx="1.12" ry="1.12" transform="translate(162.49 56.13) rotate(153.97)"/><rect class="cls-2" x="53.58" y="27.14" width="11.62" height="5.44" rx="1.12" ry="1.12" transform="translate(125.86 30.62) rotate(153.97)"/><path class="cls-4" d="M81.42,73.77a5.6,5.6,0,0,0-10.69,2.38v12L82,82.87V76.15A5.41,5.41,0,0,0,81.42,73.77Z"/></svg>