<svg id="Layer_1" data-name="Layer 1" xmlns="http://www.w3.org/2000/svg" viewBox="0 0 100 100"><defs><style>.cls-1{fill:#ffc63f;}.cls-2{fill:#deae38;}</style></defs><title>sand castle</title><rect class="cls-1" x="42.49" y="45.22" width="37.79" height="31.4"/><rect class="cls-1" x="18.13" y="20.77" width="24.36" height="55.38" rx="6.08" ry="6.08"/><ellipse class="cls-1" cx="14.93" cy="73.19" rx="14.93" ry="3.73"/><path class="cls-1" d="M92.51,74.36c0,4.53-21.21,8.2-43.36,8.2S9,78.89,9,74.36s18-8.19,40.11-8.19S92.51,69.84,92.51,74.36Z"/><path class="cls-1" d="M69.13,62.35l3.56-1.1c-20.3-2.81-12.43-9.38-12.43-9.38s-22.69,5.72-34.82,9.46l3.3,1Z"/><path class="cls-1" d="M72.69,61.25l-3.56,1.1h0l-1.81.56,1.81-.56H28.74l2.25.7-2.25-.7h0l-3.3-1C15.5,66.31,9,72.73,9,73.79,9,75.56,27,77,49.15,77s40.1-1.44,40.1-3.21C89.25,72.72,82.72,66.24,72.69,61.25Z"/><circle class="cls-2" cx="27.54" cy="68.14" r="1.08"/><circle class="cls-2" cx="31.39" cy="74.49" r="1.08"/><circle class="cls-2" cx="48.71" cy="74.49" r="1.08"/><circle class="cls-2" cx="66.03" cy="74.49" r="1.08"/><circle class="cls-2" cx="35.99" cy="68.14" r="1.08"/><circle class="cls-2" cx="52.88" cy="68.14" r="1.08"/><circle class="cls-2" cx="43.95" cy="68.14" r="1.08"/><circle class="cls-2" cx="61.33" cy="68.14" r="1.08"/><circle class="cls-2" cx="69.78" cy="68.14" r="1.08"/><circle class="cls-1" cx="8.92" cy="74.78" r="1.37"/><circle class="cls-1" cx="13.15" cy="78.5" r="1.5"/><circle class="cls-1" cx="17.69" cy="81.69" r="0.87"/><circle class="cls-1" cx="23.21" cy="83.4" r="0.84"/><circle class="cls-1" cx="24.84" cy="80.2" r="1.16"/><circle class="cls-1" cx="29.32" cy="82.39" r="1.57"/><circle class="cls-1" cx="17.55" cy="84.97" r="0.73"/><circle class="cls-1" cx="42.9" cy="84.99" r="0.39"/><circle class="cls-1" cx="4.16" cy="74.88" r="1.47"/><circle class="cls-1" cx="7.33" cy="72.34" r="1.71"/><ellipse class="cls-1" cx="91.82" cy="74.07" rx="8.18" ry="2.04"/><ellipse class="cls-1" cx="87.31" cy="77.31" rx="6.98" ry="1.5"/><ellipse class="cls-1" cx="12.61" cy="77.85" rx="6.98" ry="1.5"/><rect class="cls-1" x="18.13" y="19.3" width="24.36" height="18.52"/><rect class="cls-1" x="18.13" y="14.3" width="5.25" height="12.51" rx="1.31" ry="1.31"/><rect class="cls-1" x="28.06" y="14.3" width="5.25" height="12.51" rx="1.31" ry="1.31"/><rect class="cls-1" x="37.24" y="14.3" width="5.25" height="12.51" rx="1.31" ry="1.31"/><rect class="cls-1" x="45.85" y="40.22" width="5.25" height="12.51" rx="1.31" ry="1.31"/><rect class="cls-1" x="55.78" y="40.22" width="5.25" height="12.51" rx="1.31" ry="1.31"/><rect class="cls-1" x="64.96" y="40.22" width="5.25" height="12.51" rx="1.31" ry="1.31"/><rect class="cls-1" x="75.03" y="40.22" width="5.25" height="12.51" rx="1.31" ry="1.31"/><path class="cls-2" d="M34.91,29.66a4.23,4.23,0,1,0-8.45,0v4.95h8.45Z"/><path class="cls-2" d="M56,54.25a4.23,4.23,0,0,0-8.45,0v5H56Z"/><path class="cls-2" d="M73.4,54.25a4.22,4.22,0,0,0-8.44,0v5H73.4Z"/></svg>