<svg id="Layer_1" data-name="Layer 1" xmlns="http://www.w3.org/2000/svg" viewBox="0 0 100 100"><defs><style>.cls-1{fill:#3e3e3f;}.cls-2{fill:#b95f2b;}.cls-3{fill:#6ab8d9;}</style></defs><title>umbrella</title><rect class="cls-1" x="8.45" y="57.82" width="70.52" height="6.87" transform="translate(-30.52 48.85) rotate(-45)"/><path class="cls-2" d="M3.3,91.73a11.26,11.26,0,0,1,0-15.93,4.13,4.13,0,0,1,5.83,5.84,3,3,0,0,0,4.26,4.25l8.7-8.69A4.13,4.13,0,0,1,27.93,83l-8.7,8.69A11.26,11.26,0,0,1,3.3,91.73Z"/><path class="cls-3" d="M86.16,18.81a47.26,47.26,0,0,0-66.83,0A7.88,7.88,0,0,0,30.47,30,7.88,7.88,0,0,0,41.61,41.1,7.88,7.88,0,0,0,52.76,52.24,7.88,7.88,0,0,0,63.9,63.39a7.87,7.87,0,0,0,11,11.27,7.87,7.87,0,0,0,11.27,11A47.26,47.26,0,0,0,86.16,18.81Z"/></svg>