<svg id="Layer_1" data-name="Layer 1" xmlns="http://www.w3.org/2000/svg" viewBox="0 0 100 100"><defs><style>.cls-1{fill:#9c9c9c;}.cls-2{fill:#7d7d7d;}.cls-3{fill:#454545;}</style></defs><title>metal</title><path class="cls-1" d="M0,80.84A19.25,19.25,0,0,0,19.16,100H80.84A19.21,19.21,0,0,0,100,80.84V19.16A19.25,19.25,0,0,0,80.84,0H19.16A19.21,19.21,0,0,0,0,19.16Z"/><path class="cls-2" d="M19.16,0A19.21,19.21,0,0,0,0,19.16V40.25L40.25,0Z"/><polygon class="cls-2" points="52.89 0 0 52.89 0 71.75 71.75 0 52.89 0"/><path class="cls-2" d="M93.24,4.6,4.6,93.24A19.13,19.13,0,0,0,19.16,100H80.84A19.21,19.21,0,0,0,100,80.84V19.16A19.13,19.13,0,0,0,93.24,4.6Z"/><rect class="cls-3" x="83.85" y="8.07" width="6.72" height="6.72" rx="1.4" ry="1.4"/><rect class="cls-3" x="83.85" y="45.58" width="6.72" height="6.72" rx="1.4" ry="1.4"/><rect class="cls-3" x="83.85" y="83.08" width="6.72" height="6.72" rx="1.4" ry="1.4"/><rect class="cls-3" x="9.06" y="8.07" width="6.72" height="6.72" rx="1.4" ry="1.4"/><rect class="cls-3" x="9.06" y="45.58" width="6.72" height="6.72" rx="1.4" ry="1.4"/><rect class="cls-3" x="9.06" y="83.08" width="6.72" height="6.72" rx="1.4" ry="1.4"/></svg>