<svg id="Layer_1" data-name="Layer 1" xmlns="http://www.w3.org/2000/svg" viewBox="0 0 100 100"><defs><style>.cls-1{fill:#6ab8d9;}.cls-2{fill:#09a582;}.cls-3{fill:#e2ddb9;}.cls-4{fill:#ffc63f;}.cls-5{fill:#fffacf;}.cls-6{fill:#f37d3b;}.cls-7{fill:#3e3e3f;}</style></defs><title>pond</title><ellipse class="cls-1" cx="66.37" cy="54.36" rx="32.52" ry="6.8"/><ellipse class="cls-1" cx="32.52" cy="55.7" rx="32.52" ry="8.45"/><ellipse class="cls-1" cx="62.12" cy="64.83" rx="37.88" ry="8.08"/><ellipse class="cls-1" cx="48.97" cy="48.31" rx="32.52" ry="6.8"/><path class="cls-1" d="M48,61.75c0,.71-.89,1.28-2,1.28s-2-.57-2-1.28.89-3.07,2-3.07S48,61,48,61.75Z"/><path class="cls-1" d="M50.17,60.09c0,.71-.89,1.28-2,1.28s-2-.57-2-1.28.89-3.06,2-3.06S50.17,59.38,50.17,60.09Z"/><path class="cls-1" d="M55.33,62.26c0,.71-2.17,1.29-4.85,1.29s-4.85-.58-4.85-1.29,2.17-3.06,4.85-3.06S55.33,61.55,55.33,62.26Z"/><polygon class="cls-1" points="63.86 70.91 67.68 70.91 65.77 64.83 63.86 70.91"/><polygon class="cls-1" points="66.73 70.91 70.56 70.91 68.64 64.83 66.73 70.91"/><polygon class="cls-1" points="69.61 70.91 73.43 70.91 71.52 64.83 69.61 70.91"/><path class="cls-2" d="M63.62,52.09c-2.31,0,.13-.53.13-1.18s-2.44-1.18-.13-1.18,6.5.53,6.5,1.18S65.92,52.09,63.62,52.09Z"/><path class="cls-2" d="M54.13,58c4.59,0-.26-1-.26-2.19s4.85-2.19.26-2.19-13,1-13,2.19S49.54,58,54.13,58Z"/><path class="cls-3" d="M69.87,60.38a3.17,3.17,0,0,0,6.23,0C76.1,58.94,74.7,54,73,54S69.87,58.94,69.87,60.38Z"/><path class="cls-3" d="M67.29,60.88A3.17,3.17,0,0,0,73,58.47c-.56-1.32-3.76-5.37-5.34-4.7S66.74,59.55,67.29,60.88Z"/><path class="cls-3" d="M73.48,59.27a3.16,3.16,0,0,0,5.87,2.08c.48-1.35.83-6.5-.79-7.07S74,57.92,73.48,59.27Z"/><rect class="cls-4" x="68.74" y="54.91" width="0.92" height="6.72" rx="0.23" ry="0.23"/><rect class="cls-4" x="69.95" y="54.32" width="0.92" height="6.72" rx="0.23" ry="0.23"/><rect class="cls-4" x="71.76" y="55.24" width="0.92" height="6.72" rx="0.23" ry="0.23"/><rect class="cls-4" x="73.38" y="53.69" width="0.92" height="6.72" rx="0.23" ry="0.23"/><rect class="cls-4" x="74.82" y="54.61" width="0.92" height="6.72" rx="0.23" ry="0.23"/><rect class="cls-4" x="76.1" y="55.24" width="0.92" height="6.72" rx="0.23" ry="0.23"/><path class="cls-5" d="M81.54,62.56c1.41-1.79,3.81-6,2.73-7.05S78.62,57.06,77,58.42c-.56-1.45-1.35-2.72-2.22-2.72s-1.42.92-2,2.09c-.53-1.17-1.21-2.09-1.95-2.09s-1.4.89-1.93,2c-2-1.4-5.39-3.18-6.35-2.22s1.38,5.37,2.78,7.11A34.75,34.75,0,0,0,81.54,62.56Z"/><path class="cls-6" d="M40.87,32.07a15.94,15.94,0,0,1-6.07-1.29.67.67,0,0,1,.57-1.22s4.37,2,8.43.75a.67.67,0,1,1,.39,1.28A11.11,11.11,0,0,1,40.87,32.07Z"/><path class="cls-6" d="M35.08,35.71a.67.67,0,0,1,0-1.34c1.11,0,6.08-1.74,9.15-2.87a.67.67,0,0,1,.46,1.26c-.8.3-7.88,2.9-9.56,3Z"/><polygon class="cls-6" points="34.61 30.34 31.67 33 34.78 35.27 43.99 32.02 42.01 31.51 34.61 30.34"/><path class="cls-4" d="M40.31,46.14c0,4.28-4.52,4.19-10.09,4.19s-10.1.09-10.1-4.19,4.52-7.73,10.1-7.73S40.31,41.87,40.31,46.14Z"/><path class="cls-4" d="M38.85,34.58c-1.21,2.65-6.77,9.06-9.42,7.84s-1.38-9.61-.16-12.26a5.28,5.28,0,0,1,9.58,4.42Z"/><circle class="cls-7" cx="31.07" cy="31.53" r="0.6"/><path class="cls-6" d="M39,30.58s-.14,1.83-1.35,2a3.86,3.86,0,0,1,1.06,2.27L41,32"/><path class="cls-4" d="M22,43.31s-2.86-1.57-1.89-6.26c0,0,.44,2.35,1.54,2.23a3.22,3.22,0,0,1,0-1.74s.36,2.52,3.87,3.38"/></svg>