<svg id="Layer_1" data-name="Layer 1" xmlns="http://www.w3.org/2000/svg" viewBox="0 0 100 100"><defs><style>.cls-1{fill:#fff;}.cls-2{fill:#fffacd;}</style></defs><title>wool</title><circle class="cls-1" cx="19.74" cy="66.32" r="13.61"/><circle class="cls-1" cx="29.39" cy="49.18" r="13.61"/><circle class="cls-1" cx="19.74" cy="37.67" r="13.61"/><circle class="cls-1" cx="36.42" cy="66.94" r="13.61"/><circle class="cls-1" cx="46.96" cy="49.18" r="13.61"/><circle class="cls-1" cx="34.61" cy="32.14" r="13.61"/><circle class="cls-1" cx="48.22" cy="18.53" r="13.61"/><circle class="cls-1" cx="54.96" cy="33.1" r="13.61"/><circle class="cls-1" cx="68.56" cy="36.68" r="13.61"/><circle class="cls-1" cx="66.02" cy="50.29" r="13.61"/><circle class="cls-1" cx="56.61" cy="66.94" r="13.61"/><circle class="cls-1" cx="77.05" cy="74" r="13.61"/><circle class="cls-1" cx="48.22" cy="81.47" r="13.61"/><circle class="cls-1" cx="33.35" cy="79.93" r="13.61"/><circle class="cls-1" cx="75.44" cy="53.62" r="13.61"/><circle class="cls-1" cx="60.57" cy="77.51" r="13.61"/><circle class="cls-1" cx="86.39" cy="36.68" r="13.61"/><circle class="cls-1" cx="86.39" cy="62.01" r="13.61"/><circle class="cls-1" cx="68.56" cy="24.06" r="13.61"/><path class="cls-1" d="M69.65,14.32A21.62,21.62,0,0,1,71.41,11a13.59,13.59,0,0,1,2.44-3A5.81,5.81,0,0,1,75.6,6.9a3.51,3.51,0,0,1,2.12-.18,3.79,3.79,0,0,1,1.67.93A7.75,7.75,0,0,1,80.51,9a4.37,4.37,0,0,0-2.9-1,2.63,2.63,0,0,0-1.84,1.64,10.58,10.58,0,0,0-.9,2.82,16.86,16.86,0,0,0-.35,3,2.56,2.56,0,0,1-5.11,0,2.48,2.48,0,0,1,.19-1Z"/><path class="cls-1" d="M8.77,60.75a17.21,17.21,0,0,0-2.29-2,11.06,11.06,0,0,0-2.57-1.46,2.68,2.68,0,0,0-2.47,0A4.41,4.41,0,0,0,0,60.08a7.59,7.59,0,0,1-.08-1.73,3.76,3.76,0,0,1,.59-1.82,3.53,3.53,0,0,1,1.68-1.31,6.12,6.12,0,0,1,2-.38,13.84,13.84,0,0,1,3.8.52,21.46,21.46,0,0,1,3.57,1.26l.1,0a2.56,2.56,0,1,1-2.92,4.09Z"/><path class="cls-2" d="M34.05,43.11a3.83,3.83,0,0,1,1.58.34c0-.12,0-.22,0-.34a3.93,3.93,0,1,0-5.51,3.6A3.93,3.93,0,0,1,34.05,43.11Z"/><path class="cls-2" d="M74,66.22a3.91,3.91,0,0,1-.33,1.57c.11,0,.22,0,.33,0a3.93,3.93,0,1,0-3.59-5.51A3.91,3.91,0,0,1,74,66.22Z"/><path class="cls-2" d="M69.43,41.77a6.94,6.94,0,0,1-.61,2.85c.21,0,.4.07.61.07a7.13,7.13,0,1,0-6.52-10A7.09,7.09,0,0,1,69.43,41.77Z"/><path class="cls-2" d="M58.6,64.2a7.09,7.09,0,0,1,2.85.6,5.79,5.79,0,0,0,.07-.6,7.13,7.13,0,1,0-10,6.52A7.09,7.09,0,0,1,58.6,64.2Z"/></svg>