<svg id="Layer_1" data-name="Layer 1" xmlns="http://www.w3.org/2000/svg" viewBox="0 0 100 100"><defs><style>.cls-1{fill:#c1632d;}.cls-2{fill:#714c48;}.cls-3{fill:#f37d3b;}.cls-4{fill:#90807d;}.cls-5{fill:#7e706d;}.cls-6{fill:#171717;}.cls-7{fill:#ffc640;}</style></defs><title>scarecrow</title><path class="cls-1" d="M17.17,42.61s13,21.45,9.09,25.14c0,0,44.78-9,53.51-25.14"/><rect class="cls-2" x="10.41" y="41.51" width="79.18" height="5.75" rx="1.39" ry="1.39"/><rect class="cls-2" x="9.94" y="57.54" width="79.18" height="5.75" rx="1.39" ry="1.39" transform="translate(109.94 10.88) rotate(90)"/><polygon class="cls-3" points="17.17 41.51 49.38 77.16 66.08 58.45 65.13 55.61 63.68 55.47 65.13 55.61 64.84 54.76 65.13 55.61 68.33 55.92 70.31 53.71 67.67 46.27 65.29 45.13 67.67 46.27 67.3 45.2 67.67 46.27 74.17 49.37 81.18 41.51 17.17 41.51"/><rect class="cls-4" x="38.57" y="12.8" width="28.78" height="24.52" rx="12.26" ry="12.26" transform="matrix(0.38, -0.93, 0.93, 0.38, 9.84, 64.73)"/><circle class="cls-5" cx="44.81" cy="19.71" r="0.48"/><circle class="cls-5" cx="45.34" cy="22.97" r="0.48"/><circle class="cls-5" cx="52.5" cy="25.88" r="0.48"/><circle class="cls-5" cx="59.66" cy="28.78" r="0.48"/><circle class="cls-5" cx="48.3" cy="21.12" r="0.48"/><circle class="cls-5" cx="55.28" cy="23.95" r="0.48"/><circle class="cls-5" cx="51.51" cy="22.42" r="0.48"/><circle class="cls-5" cx="58.78" cy="25.37" r="0.48"/><circle class="cls-5" cx="62.27" cy="26.78" r="0.48"/><circle class="cls-5" cx="42.88" cy="24.46" r="0.48"/><circle class="cls-5" cx="43.41" cy="27.73" r="0.48"/><circle class="cls-5" cx="50.57" cy="30.63" r="0.48"/><circle class="cls-5" cx="57.73" cy="33.53" r="0.48"/><circle class="cls-5" cx="46.37" cy="25.87" r="0.48"/><circle class="cls-5" cx="53.36" cy="28.7" r="0.48"/><circle class="cls-5" cx="49.58" cy="27.17" r="0.48"/><circle class="cls-5" cx="56.85" cy="30.12" r="0.48"/><circle class="cls-5" cx="60.34" cy="31.54" r="0.48"/><circle class="cls-5" cx="40.96" cy="29.21" r="0.48"/><circle class="cls-5" cx="48.64" cy="35.38" r="0.48"/><circle class="cls-5" cx="44.45" cy="30.63" r="0.48"/><circle class="cls-5" cx="51.43" cy="33.46" r="0.48"/><circle class="cls-5" cx="47.65" cy="31.92" r="0.48"/><circle class="cls-5" cx="54.92" cy="34.87" r="0.48"/><circle class="cls-5" cx="58.41" cy="36.29" r="0.48"/><rect class="cls-6" x="46.22" y="20.38" width="1.16" height="3.62" rx="0.28" ry="0.28" transform="translate(11.76 -15.96) rotate(22.07)"/><rect class="cls-6" x="46.22" y="20.38" width="1.16" height="3.62" rx="0.28" ry="0.28" transform="matrix(-0.38, 0.93, -0.93, -0.38, 84.94, -12.85)"/><rect class="cls-6" x="59.87" y="25.91" width="1.16" height="3.62" rx="0.28" ry="0.28" transform="translate(14.84 -20.68) rotate(22.07)"/><rect class="cls-6" x="59.87" y="25.91" width="1.16" height="3.62" rx="0.28" ry="0.28" transform="translate(108.85 -17.89) rotate(112.07)"/><ellipse class="cls-7" cx="59.5" cy="17.66" rx="5.64" ry="25.93" transform="translate(6.92 50.63) rotate(-48.62)"/><ellipse class="cls-7" cx="62.88" cy="13.82" rx="7.43" ry="11.84" transform="translate(10.94 51.87) rotate(-48.62)"/><rect class="cls-7" x="47.11" y="0.01" width="1.29" height="5.34" rx="0.31" ry="0.31" transform="translate(2.18 -11.82) rotate(14.44)"/><rect class="cls-7" x="61.67" y="3.37" width="1.29" height="5.34" rx="0.31" ry="0.31" transform="translate(3.47 -15.34) rotate(14.44)"/><rect class="cls-7" x="64.39" y="4.07" width="1.29" height="5.34" rx="0.31" ry="0.31" transform="translate(26.32 -45.95) rotate(47.78)"/><rect class="cls-7" x="71.08" y="21.13" width="1.29" height="5.34" rx="0.31" ry="0.31" transform="translate(41.15 -45.31) rotate(47.78)"/><rect class="cls-7" x="77.2" y="25.23" width="1.29" height="5.34" rx="0.31" ry="0.31" transform="translate(113.47 -46.73) rotate(95.79)"/><polygon class="cls-1" points="35.83 49.49 40.58 55.92 44.2 55.21 52.89 58.05 45.84 53.34 41.8 52.76 35.83 49.49"/></svg>