<svg id="Layer_1" data-name="Layer 1" xmlns="http://www.w3.org/2000/svg" viewBox="0 0 100 100"><defs><style>.cls-1{fill:#7fa1b2;}.cls-2{fill:#9dc8dc;}.cls-3{fill:#6ab8d9;}.cls-4{fill:#4a4a4c;}.cls-5{fill:#58595b;}.cls-6{fill:#434345;}</style></defs><title>carbon dioxide</title><path class="cls-1" d="M6.31,41.44c-1.94-2.41-1-6.58,2.57-12.07A74.7,74.7,0,0,1,24.05,13.44,74.43,74.43,0,0,1,42.84,2C49-.37,53.23-.35,55.18,2.06L53.69,3.25c-1.31-1.62-5.11-1.42-10.16.54C38,5.93,31.5,9.89,25.24,14.93A72.91,72.91,0,0,0,10.47,30.42c-3,4.53-4,8.2-2.68,9.82Z"/><path class="cls-1" d="M61.35,28.61l-1.86-.42c.45-2-2.07-4.88-6.75-7.62a73,73,0,0,0-20.1-7.37C15.69,9.4,2.87,11.26,2,15.31L.11,14.89c1.51-6.76,18.11-6.88,33-3.55,8,1.8,15.36,4.49,20.65,7.59C59.38,22.25,62,25.6,61.35,28.61Z"/><circle class="cls-2" cx="31.37" cy="24.49" r="21.06"/><path class="cls-1" d="M46,34.29a82.33,82.33,0,0,1-17.6-2.13C13.55,28.84-1.41,21.65.11,14.89L2,15.31c-.91,4,9.89,11.19,26.84,15a72.83,72.83,0,0,0,21.33,1.91c5.4-.48,8.89-2,9.35-4l1.86.42c-.67,3-4.49,4.92-11,5.5C49,34.23,47.51,34.29,46,34.29Z"/><path class="cls-1" d="M11,43.28a5.68,5.68,0,0,1-4.68-1.84l1.48-1.2c2.6,3.23,14.92-.77,28.45-11.67s20-22.09,17.45-25.32l1.49-1.19c4.34,5.39-5.9,18.45-17.74,28C28.39,37.34,17.55,43.28,11,43.28Z"/><circle class="cls-3" cx="11.84" cy="42.03" r="3.45"/><circle class="cls-3" cx="55.68" cy="32.21" r="3.45"/><circle class="cls-3" cx="61.73" cy="26.27" r="3.45"/><circle class="cls-3" cx="7.77" cy="10.86" r="3.45"/><path class="cls-4" d="M37.65,33c2.1-.61,4.27-1.17,6.49-1.66,9-2,17.68-2.76,24.5-2.14C76,29.88,80.24,32,81,35.39l-2.09.46c-.5-2.27-4.41-4-10.45-4.5-6.61-.6-15.08.14-23.85,2.09s-16.76,4.87-22.49,8.21c-5.24,3.06-8.07,6.24-7.56,8.52l-2.08.46c-.75-3.37,2.21-7.11,8.56-10.82A75.21,75.21,0,0,1,37.65,33Z"/><path class="cls-4" d="M22.09,19.24c2.58-.75,6.34-.19,11.13,1.67,6.39,2.48,13.84,7,21,12.82S67.38,45.85,71.15,51.57c4,6.15,5,10.81,2.85,13.5l-1.66-1.34c1.47-1.81.36-5.92-3-11C65.71,47.2,59.86,41,52.87,35.39S38.63,25.3,32.44,22.9c-5.65-2.2-9.9-2.43-11.36-.62l-1.66-1.34A5.18,5.18,0,0,1,22.09,19.24Z"/><circle class="cls-5" cx="45.99" cy="46.07" r="23.55"/><path class="cls-4" d="M19.42,20.94l1.66,1.34c-2.91,3.61,4.37,16.13,19.47,28.35,7,5.64,14.24,10.08,20.43,12.48,5.65,2.2,9.9,2.43,11.36.62L74,65.07c-2.17,2.69-6.94,2.7-13.79,0-6.39-2.48-13.85-7-21-12.81C26,41.59,14.55,27,19.42,20.94Z"/><path class="cls-4" d="M12.47,50.63l2.08-.46c1,4.52,15.34,6.62,34.3,2.41,8.77-2,16.76-4.87,22.5-8.22,5.23-3,8.06-6.23,7.55-8.51L81,35.39c.75,3.37-2.22,7.11-8.57,10.82-5.92,3.45-14.12,6.45-23.1,8.45C32.71,58.35,14.15,58.2,12.47,50.63Z"/><circle class="cls-6" cx="17.73" cy="53.96" r="3.86"/><circle class="cls-6" cx="66.53" cy="65.87" r="3.86"/><circle class="cls-6" cx="75.54" cy="62.91" r="3.86"/><circle class="cls-6" cx="29.1" cy="20.7" r="3.86"/><path class="cls-1" d="M53.09,69c.33-2.16.74-4.36,1.22-6.58,2-9,4.93-17.2,8.36-23.14,3.68-6.37,7.41-9.34,10.78-8.6L73,32.78c-2.28-.5-5.45,2.34-8.48,7.59-3.32,5.75-6.21,13.75-8.13,22.52s-2.62,17.25-2,23.86c.57,6,2.27,9.94,4.55,10.44l-.46,2.08c-3.37-.73-5.52-5-6.21-12.32A74.45,74.45,0,0,1,53.09,69Z"/><path class="cls-1" d="M34,77.35c.41-2.65,2.5-5.84,6.2-9.4,4.94-4.75,12.2-9.6,20.45-13.66S77.22,47.44,84,46.43c7.28-1.09,11.93,0,13.45,3.08l-1.91.94c-1-2.09-5.22-2.81-11.22-1.91-6.57,1-14.62,3.7-22.68,7.66S46.5,64.89,41.72,69.49c-4.37,4.2-6.37,8-5.34,10.05l-1.91.95A5.25,5.25,0,0,1,34,77.35Z"/><circle class="cls-2" cx="68.44" cy="66.94" r="23.55"/><path class="cls-1" d="M34.47,80.49l1.91-.95c2,4.16,16.47,2.82,33.9-5.75,8.06-4,15.14-8.68,19.92-13.29,4.37-4.2,6.37-8,5.34-10l1.91-.94C99,52.61,97,56.94,91.68,62c-4.94,4.75-12.2,9.6-20.45,13.66C56,83.21,37.89,87.44,34.47,80.49Z"/><path class="cls-1" d="M58.48,99.27l.46-2.08c4.53,1,12.46-11.14,16.6-30.12,1.92-8.77,2.63-17.24,2-23.86-.57-6-2.27-9.93-4.55-10.43l.45-2.08c3.38.73,5.53,5,6.22,12.31.64,6.83-.08,15.53-2,24.52C74,84.15,66.06,100.93,58.48,99.27Z"/><circle class="cls-3" cx="63.72" cy="95.9" r="3.86"/><circle class="cls-3" cx="95.03" cy="56.62" r="3.86"/><circle class="cls-3" cx="96.14" cy="47.2" r="3.86"/><circle class="cls-3" cx="38.32" cy="71.6" r="3.86"/></svg>