<svg id="Layer_1" data-name="Layer 1" xmlns="http://www.w3.org/2000/svg" viewBox="0 0 100 100"><defs><style>.cls-1{fill:#ffc640;}.cls-2{fill:#f37d3b;}.cls-3{fill:#6ab8d9;}.cls-4{fill:#616161;}.cls-5{fill:#171717;}.cls-6{fill:#7d7d7d;}.cls-7{fill:#714c48;}.cls-8{fill:#4f4f4f;}</style></defs><title>monarch</title><polygon class="cls-1" points="38.48 25.25 31.32 11.18 24.16 25.25 11.19 12.51 11.19 25.45 11.19 27.49 11.19 38.78 51.45 38.78 51.45 27.49 51.45 25.45 51.45 12.51 38.48 25.25"/><path class="cls-1" d="M51.45,41.22H11.19a2.44,2.44,0,0,1-2.44-2.44V12.51a2.44,2.44,0,0,1,4.15-1.74l10.59,10.4,5.66-11.09a2.54,2.54,0,0,1,4.35,0l5.65,11.09,10.59-10.4a2.44,2.44,0,0,1,4.15,1.74V38.78A2.44,2.44,0,0,1,51.45,41.22ZM13.63,36.34H49v-18L40.19,27a2.42,2.42,0,0,1-2.1.66,2.4,2.4,0,0,1-1.78-1.3l-5-9.79-5,9.79a2.4,2.4,0,0,1-1.78,1.3,2.43,2.43,0,0,1-2.1-.66l-8.82-8.66Z"/><rect class="cls-2" x="12.58" y="30.3" width="6.71" height="6.71" transform="translate(28.46 -1.41) rotate(45)"/><rect class="cls-3" x="26.82" y="28.53" width="9" height="9" transform="translate(32.53 -12.47) rotate(45)"/><rect class="cls-2" x="43.35" y="30.3" width="6.71" height="6.71" transform="translate(37.48 -23.17) rotate(45)"/><rect class="cls-1" x="73.32" y="24.22" width="9.56" height="75.78" rx="2.14" ry="2.14"/><rect class="cls-1" x="67.78" y="6.9" width="20.89" height="40.11" rx="4.67" ry="4.67"/><rect class="cls-2" x="65.03" y="11.9" width="26.38" height="36.75" rx="5.9" ry="5.9"/><rect class="cls-1" x="64" y="44.15" width="28.44" height="6.02" rx="1.35" ry="1.35"/><rect class="cls-1" x="75.48" y="10.22" width="5.26" height="36.14" rx="1.18" ry="1.18"/><rect class="cls-3" x="76.85" y="14.29" width="2.51" height="2.51" transform="translate(33.87 -50.68) rotate(45)"/><rect class="cls-3" x="76.85" y="19.51" width="2.51" height="2.51" transform="translate(37.56 -49.15) rotate(45)"/><rect class="cls-3" x="76.85" y="24.74" width="2.51" height="2.51" transform="translate(41.26 -47.62) rotate(45)"/><rect class="cls-3" x="76.85" y="29.96" width="2.51" height="2.51" transform="translate(44.95 -46.09) rotate(45)"/><rect class="cls-3" x="76.85" y="35.19" width="2.51" height="2.51" transform="translate(48.65 -44.56) rotate(45)"/><rect class="cls-3" x="76.85" y="40.41" width="2.51" height="2.51" transform="translate(52.34 -43.03) rotate(45)"/><rect class="cls-1" x="76.42" width="2.85" height="9.71" rx="0.64" ry="0.64"/><rect class="cls-1" x="76.42" y="-1.02" width="2.85" height="9.71" rx="0.64" ry="0.64" transform="translate(81.68 -74) rotate(90)"/><rect class="cls-4" x="14.7" y="55.54" width="13.42" height="22.86"/><rect class="cls-4" x="14.7" y="53.35" width="3.42" height="6.66" rx="0.77" ry="0.77"/><rect class="cls-4" x="19.7" y="53.35" width="3.42" height="6.66" rx="0.77" ry="0.77"/><rect class="cls-4" x="24.7" y="53.35" width="3.42" height="6.66" rx="0.77" ry="0.77"/><path class="cls-5" d="M23.39,61a2,2,0,0,0-2-2h0a2,2,0,0,0-2,2v2h4Z"/><path class="cls-5" d="M23.39,69a2,2,0,0,0-2-2h0a2,2,0,0,0-2,2v2h4Z"/><rect class="cls-4" x="34.87" y="51.45" width="18.73" height="31.9"/><rect class="cls-4" x="34.87" y="48.4" width="4.77" height="9.29" rx="1.07" ry="1.07"/><rect class="cls-4" x="41.85" y="48.4" width="4.77" height="9.29" rx="1.07" ry="1.07"/><rect class="cls-4" x="48.82" y="48.4" width="4.77" height="9.29" rx="1.07" ry="1.07"/><path class="cls-6" d="M7.56,77.11V93.57a5.82,5.82,0,0,0,5.8,5.8H53.44a5.82,5.82,0,0,0,5.8-5.8V77.11Z"/><path class="cls-5" d="M47.22,57.65a3,3,0,0,0-3-3h0a3,3,0,0,0-3,3v3.06h6Z"/><path class="cls-5" d="M47.22,68.86a3,3,0,0,0-3-3h0a3,3,0,0,0-3,3v3.06h6Z"/><path class="cls-7" d="M41.75,99.46V91.09a3.54,3.54,0,0,1,3.53-3.53h0a3.54,3.54,0,0,1,3.53,3.53v8.37"/><path class="cls-5" d="M49.41,99.46h-1.2V91.09a2.93,2.93,0,0,0-5.86,0v8.37H41.16V91.09a4.13,4.13,0,1,1,8.25,0Z"/><rect class="cls-6" x="7.56" y="72.76" width="5.64" height="10.98" rx="1.26" ry="1.26"/><rect class="cls-6" x="16.77" y="72.76" width="5.64" height="10.98" rx="1.26" ry="1.26"/><rect class="cls-6" x="25.97" y="72.76" width="5.64" height="10.98" rx="1.26" ry="1.26"/><rect class="cls-6" x="35.18" y="72.76" width="5.64" height="10.98" rx="1.26" ry="1.26"/><rect class="cls-6" x="44.39" y="72.76" width="5.64" height="10.98" rx="1.26" ry="1.26"/><rect class="cls-6" x="53.6" y="72.76" width="5.64" height="10.98" rx="1.26" ry="1.26"/><rect class="cls-4" x="13.83" y="80.75" width="7.57" height="2.98" rx="0.67" ry="0.67"/><rect class="cls-4" x="31.08" y="88.24" width="7.57" height="2.98" rx="0.67" ry="0.67"/><rect class="cls-4" x="26.58" y="81.86" width="5.28" height="2.98" rx="0.67" ry="0.67"/><rect class="cls-8" x="36.48" y="67.52" width="3.53" height="2" rx="0.45" ry="0.45"/><rect class="cls-8" x="22.98" y="63.26" width="3" height="1.69" rx="0.38" ry="0.38"/><rect class="cls-8" x="16.06" y="56.69" width="3" height="1.69" rx="0.38" ry="0.38"/><rect class="cls-8" x="45.09" y="62.96" width="7.72" height="2" rx="0.45" ry="0.45"/><rect class="cls-4" x="51.14" y="93.51" width="5.28" height="2.98" rx="0.67" ry="0.67"/><rect class="cls-4" x="16.41" y="90.78" width="7.57" height="2.98" rx="0.67" ry="0.67"/></svg>