<svg id="Layer_1" data-name="Layer 1" xmlns="http://www.w3.org/2000/svg" viewBox="0 0 100 100"><defs><style>.cls-1{fill:#cb6930;}.cls-2{fill:#f37d3b;}</style></defs><title>bridge</title><rect class="cls-1" x="84.55" y="16.26" width="2.3" height="40.56" transform="translate(-5.7 54.6) rotate(-34.27)"/><path class="cls-1" d="M50.79,29c-11.95,0-24.64-3.23-24.64-9.2h2.3c0,3.26,9.17,6.9,22.34,6.9S73.13,23,73.13,19.78h2.3C75.43,25.75,62.74,29,50.79,29Z"/><rect class="cls-1" x="37.86" y="26.87" width="2.3" height="25.65"/><rect class="cls-1" x="43.53" y="26.87" width="2.3" height="25.65"/><rect class="cls-1" x="49.21" y="26.87" width="2.3" height="25.65"/><rect class="cls-1" x="54.89" y="26.87" width="2.3" height="25.65"/><rect class="cls-1" x="60.56" y="26.87" width="2.3" height="25.65"/><rect class="cls-1" x="-6.2" y="35.39" width="40.56" height="2.3" transform="translate(-24.05 27.61) rotate(-55.75)"/><polygon class="cls-1" points="18.03 61.85 36.57 61.85 27.3 70.33 18.03 61.85"/><polygon class="cls-1" points="64.1 61.85 82.64 61.85 73.37 70.33 64.1 61.85"/><rect class="cls-1" x="20.83" y="41.16" width="12.64" height="41.38" rx="3.06" ry="3.06"/><rect class="cls-1" x="67.05" y="41.16" width="12.64" height="41.38" rx="3.06" ry="3.06"/><rect class="cls-2" y="49.78" width="100" height="13.36" rx="3.24" ry="3.24"/><rect class="cls-2" x="20.83" y="17.46" width="12.64" height="41.38" rx="3.06" ry="3.06"/><rect class="cls-2" x="67.05" y="17.46" width="12.64" height="41.38" rx="3.06" ry="3.06"/><polygon class="cls-1" points="8.23 53.02 13.18 53.02 10.7 55.85 8.23 53.02"/><polygon class="cls-1" points="8.23 60.78 13.18 60.78 10.7 57.94 8.23 60.78"/><polygon class="cls-1" points="16.83 53.02 21.78 53.02 19.31 55.85 16.83 53.02"/><polygon class="cls-1" points="16.83 60.78 21.78 60.78 19.31 57.94 16.83 60.78"/><polygon class="cls-1" points="14.99 54.44 12.73 56.91 14.99 59.39 17.26 56.91 14.99 54.44"/><polygon class="cls-1" points="6.5 54.44 4.24 56.91 6.5 59.39 8.77 56.91 6.5 54.44"/><polygon class="cls-1" points="25.45 53.02 30.41 53.02 27.93 55.85 25.45 53.02"/><polygon class="cls-1" points="25.45 60.78 30.41 60.78 27.93 57.94 25.45 60.78"/><polygon class="cls-1" points="34.05 53.02 39.01 53.02 36.53 55.85 34.05 53.02"/><polygon class="cls-1" points="34.05 60.78 39.01 60.78 36.53 57.94 34.05 60.78"/><polygon class="cls-1" points="32.22 54.44 29.96 56.91 32.22 59.39 34.48 56.91 32.22 54.44"/><polygon class="cls-1" points="23.73 54.44 21.46 56.91 23.73 59.39 25.99 56.91 23.73 54.44"/><polygon class="cls-1" points="42.67 53.02 47.63 53.02 45.15 55.85 42.67 53.02"/><polygon class="cls-1" points="42.67 60.78 47.63 60.78 45.15 57.94 42.67 60.78"/><polygon class="cls-1" points="51.28 53.02 56.23 53.02 53.76 55.85 51.28 53.02"/><polygon class="cls-1" points="51.28 60.78 56.23 60.78 53.76 57.94 51.28 60.78"/><polygon class="cls-1" points="49.44 54.44 47.18 56.91 49.44 59.39 51.71 56.91 49.44 54.44"/><polygon class="cls-1" points="40.95 54.44 38.69 56.91 40.95 59.39 43.22 56.91 40.95 54.44"/><polygon class="cls-1" points="59.9 53.02 64.86 53.02 62.38 55.85 59.9 53.02"/><polygon class="cls-1" points="59.9 60.78 64.86 60.78 62.38 57.94 59.9 60.78"/><polygon class="cls-1" points="68.5 53.02 73.46 53.02 70.98 55.85 68.5 53.02"/><polygon class="cls-1" points="68.5 60.78 73.46 60.78 70.98 57.94 68.5 60.78"/><polygon class="cls-1" points="66.67 54.44 64.41 56.91 66.67 59.39 68.93 56.91 66.67 54.44"/><polygon class="cls-1" points="58.18 54.44 55.91 56.91 58.18 59.39 60.44 56.91 58.18 54.44"/><polygon class="cls-1" points="77.12 53.02 82.08 53.02 79.6 55.85 77.12 53.02"/><polygon class="cls-1" points="77.12 60.78 82.08 60.78 79.6 57.94 77.12 60.78"/><polygon class="cls-1" points="85.72 53.02 90.68 53.02 88.2 55.85 85.72 53.02"/><polygon class="cls-1" points="85.72 60.78 90.68 60.78 88.2 57.94 85.72 60.78"/><polygon class="cls-1" points="83.89 54.44 81.63 56.91 83.89 59.39 86.16 56.91 83.89 54.44"/><polygon class="cls-1" points="92.61 54.44 90.35 56.91 92.61 59.39 94.87 56.91 92.61 54.44"/><polygon class="cls-1" points="75.4 54.44 73.14 56.91 75.4 59.39 77.66 56.91 75.4 54.44"/></svg>