<svg id="Layer_1" data-name="Layer 1" xmlns="http://www.w3.org/2000/svg" viewBox="0 0 100 100"><defs><style>.cls-1{fill:#714c48;}.cls-2{fill:#909295;}.cls-3{fill:#ffc640;}.cls-4{fill:#fbb340;}</style></defs><title>broom</title><rect class="cls-1" x="60.92" y="-10.45" width="9.74" height="89.32" rx="1.98" ry="1.98" transform="translate(43.46 -36.5) rotate(45)"/><rect class="cls-2" x="37.62" y="51.11" width="17.1" height="5.44" rx="1.1" ry="1.1" transform="translate(51.59 -16.88) rotate(45)"/><rect class="cls-2" x="40.67" y="48.06" width="17.1" height="5.44" rx="1.1" ry="1.1" transform="translate(50.32 -19.93) rotate(45)"/><path class="cls-3" d="M46.28,88.15A24.35,24.35,0,0,0,11.85,53.72L4.93,60.64,39.36,95.07Z"/><rect class="cls-3" x="4.27" y="54.88" width="3.25" height="14.17" rx="0.66" ry="0.66" transform="translate(45.54 13.98) rotate(45)"/><rect class="cls-4" x="5.76" y="57.98" width="3.25" height="14.17" rx="0.66" ry="0.66" transform="translate(48.17 13.84) rotate(45)"/><rect class="cls-3" x="8.86" y="59.47" width="3.25" height="14.17" rx="0.66" ry="0.66" transform="translate(50.13 12.08) rotate(45)"/><rect class="cls-4" x="10.35" y="62.57" width="3.25" height="14.17" rx="0.66" ry="0.66" transform="translate(52.76 11.93) rotate(45)"/><rect class="cls-3" x="13.45" y="64.07" width="3.25" height="14.17" rx="0.66" ry="0.66" transform="translate(54.73 10.18) rotate(45)"/><rect class="cls-4" x="14.94" y="67.17" width="3.25" height="14.17" rx="0.66" ry="0.66" transform="translate(57.35 10.03) rotate(45)"/><rect class="cls-3" x="18.04" y="68.66" width="3.25" height="14.17" rx="0.66" ry="0.66" transform="translate(59.32 8.28) rotate(45)"/><rect class="cls-4" x="19.53" y="71.76" width="3.25" height="14.17" rx="0.66" ry="0.66" transform="translate(61.95 8.13) rotate(45)"/><rect class="cls-3" x="22.64" y="73.25" width="3.25" height="14.17" rx="0.66" ry="0.66" transform="translate(63.91 6.38) rotate(45)"/><rect class="cls-4" x="24.13" y="76.35" width="3.25" height="14.17" rx="0.66" ry="0.66" transform="translate(66.54 6.23) rotate(45)"/><rect class="cls-3" x="27.23" y="77.84" width="3.25" height="14.17" rx="0.66" ry="0.66" transform="translate(68.5 4.47) rotate(45)"/><rect class="cls-4" x="28.72" y="80.94" width="3.25" height="14.17" rx="0.66" ry="0.66" transform="translate(71.13 4.33) rotate(45)"/><rect class="cls-3" x="31.82" y="82.43" width="3.25" height="14.17" rx="0.66" ry="0.66" transform="translate(73.09 2.57) rotate(45)"/><rect class="cls-4" x="33.31" y="85.53" width="3.25" height="14.17" rx="0.66" ry="0.66" transform="translate(75.72 2.43) rotate(45)"/><rect class="cls-3" x="36.41" y="87.02" width="3.25" height="14.17" rx="0.66" ry="0.66" transform="translate(77.68 0.67) rotate(45)"/></svg>