<svg id="Layer_1" data-name="Layer 1" xmlns="http://www.w3.org/2000/svg" viewBox="0 0 100 100"><defs><style>.cls-1{fill:#fff;}.cls-2{fill:#d3d4d6;}.cls-3{fill:#b3b3b3;}.cls-4{fill:#7d7d7d;}.cls-5{fill:#3e3e3f;}.cls-6{fill:#09a582;}.cls-7{fill:#f37d3b;}</style></defs><title>printer</title><polygon class="cls-1" points="66.01 0 18.03 0 18.03 80.51 81.97 80.51 81.97 15.96 66.01 0"/><polygon class="cls-2" points="66.01 15.96 66.01 0 81.97 15.96 66.01 15.96"/><rect class="cls-3" x="1.91" y="31.72" width="96.17" height="56.23" rx="5.6" ry="5.6"/><rect class="cls-4" x="16.6" y="67.75" width="68.99" height="5.12" rx="1.19" ry="1.19"/><rect class="cls-1" x="18.03" y="69.9" width="63.95" height="30.1"/><rect class="cls-5" x="23.09" y="72.87" width="53.18" height="1.98" rx="0.46" ry="0.46"/><rect class="cls-5" x="23.09" y="79.52" width="53.18" height="1.98" rx="0.46" ry="0.46"/><rect class="cls-5" x="23.09" y="86.17" width="53.18" height="1.98" rx="0.46" ry="0.46"/><rect class="cls-5" x="23.09" y="92.83" width="53.18" height="1.98" rx="0.46" ry="0.46"/><circle class="cls-6" cx="84.9" cy="43.42" r="3.17"/><circle class="cls-7" cx="70.83" cy="43.42" r="3.17"/></svg>