<svg id="Layer_1" data-name="Layer 1" xmlns="http://www.w3.org/2000/svg" viewBox="0 0 100 100"><defs><style>.cls-1{fill:#994d1f;}.cls-2{fill:#813f13;}.cls-3{fill:#a85625;}.cls-4{fill:#652e01;}.cls-5{fill:#ab6457;}</style></defs><title>rust</title><path class="cls-1" d="M99.7,16c-3.27,2-5.54,4.41-5.54,3.06A23.18,23.18,0,0,0,89,8.81C86.63,6,83.61,3.61,80,0H19.16A19.21,19.21,0,0,0,0,19.16V31.72a18.36,18.36,0,0,1,5.43,3.1,41.77,41.77,0,0,1,6.06,6.58,71.24,71.24,0,0,0,5.63,6.5c-4.82,0-9.63,4.82-14.45,2.41a5.17,5.17,0,0,0,4.82,4.81,43.45,43.45,0,0,1-7.49,6V80.84A19.25,19.25,0,0,0,19.16,100H29.89c8.61-2.54,17.42-6.35,28.16-6.35a4.82,4.82,0,0,1-1.47,3.26c4.59-1.56,7.93,0,10.4,3.09H80.84A19.21,19.21,0,0,0,100,80.84V19.16A18.88,18.88,0,0,0,99.7,16Z"/><path class="cls-2" d="M94.16,19A23.18,23.18,0,0,0,89,8.81L4.6,93.24A19.13,19.13,0,0,0,19.16,100H29.89c8.61-2.54,17.42-6.35,28.16-6.35a4.82,4.82,0,0,1-1.47,3.26c4.59-1.56,7.93,0,10.4,3.09H80.84A19.21,19.21,0,0,0,100,80.84V19.16A18.88,18.88,0,0,0,99.7,16C96.43,17.93,94.16,20.36,94.16,19Z"/><path class="cls-2" d="M71.75,0H52.89L11.49,41.4a71.24,71.24,0,0,0,5.63,6.5c-4.82,0-9.63,4.82-14.45,2.41a5.17,5.17,0,0,0,4.82,4.81,43.45,43.45,0,0,1-7.49,6V71.75Z"/><path class="cls-2" d="M19.16,0A19.21,19.21,0,0,0,0,19.16V31.72a18.36,18.36,0,0,1,5.43,3.1L40.25,0Z"/><path class="cls-3" d="M0,61.74V58.13L4,55.2s-2.18,0-1.28-4.89l8.13,4.06V59"/><rect class="cls-4" x="83.85" y="8.07" width="6.72" height="6.72" rx="1.4" ry="1.4"/><rect class="cls-4" x="83.85" y="45.58" width="6.72" height="6.72" rx="1.4" ry="1.4"/><rect class="cls-4" x="83.85" y="83.08" width="6.72" height="6.72" rx="1.4" ry="1.4"/><rect class="cls-4" x="9.06" y="8.07" width="6.72" height="6.72" rx="1.4" ry="1.4"/><rect class="cls-4" x="9.06" y="83.08" width="6.72" height="6.72" rx="1.4" ry="1.4"/><path class="cls-3" d="M49,41.51c-3.37-2.16-5.06-3.24-6-4.62-2.82-4-.45-9.38-1.8-9.83s-2.64,4.36-7,5.62c-2.09.6-4.5.3-4.82-.6-.45-1.25,3.49-2.58,4.21-6.22.4-2-.28-4.11-1-4.22-1.12-.15-1.62,4.65-3.81,5s-5.08-6.15-9.2-7.37c-.87-.26,1,1.8-5.65,2.55-3.42.4-5.13.59-5.42.61-3.16.17-6.7-1.76-8.51-2.56v11c7.88,2.89,11.76,10.32,18.41,17-4.82,0-9.63,4.82-14.45,2.41a5.17,5.17,0,0,0,4.82,4.81,43.45,43.45,0,0,1-7.49,6V76.68a11.18,11.18,0,0,0,2,.14c4-.22,5.49-3.26,11.23-6.82,7.45-4.62,8.32-5.35,11.24-6.62,6.15-2.68,7.2-1.58,10.63-4,4.26-3,3.24-5.14,7.63-8.62,5-4,9.89-4,9.83-5.82C53.83,44,52.6,43.78,49,41.51Z"/><path class="cls-5" d="M47.75,41.51c-3.37-2.16-5.06-3.24-6-4.62-2.82-4-.45-9.38-1.8-9.83s-2.64,4.36-7,5.62c-2.09.6-4.5.3-4.82-.6-.45-1.25,3.49-2.58,4.21-6.22.4-2-.28-4.11-1-4.22-1.12-.15-1.62,4.65-3.81,5s-2.91-4.2-7-5.42c-.87-.25-1.19-.15-7.83.6-3.42.4-5.13.59-5.42.61A14.82,14.82,0,0,1,0,21.05V31.72c7.88,2.89,10.47,9.53,17.12,16.18-4.82,0-9.63,4.82-14.45,2.41a5.17,5.17,0,0,0,4.82,4.81,43.45,43.45,0,0,1-7.49,6V76.68a11.18,11.18,0,0,0,2,.14C6,76.6,7.5,73.56,13.24,70c7.45-4.62,8.32-5.35,11.24-6.62,6.15-2.68,7.2-1.58,10.63-4,4.26-3,3.24-5.14,7.63-8.62,5-4,9.89-4,9.83-5.82C52.54,44,51.31,43.78,47.75,41.51Z"/><path class="cls-3" d="M80.56,45.34c-2,0-3.57-2.83-5.27-7.07-.46-1.15-.76-2.09-1-2.85-.41-1.33-.57-1.77-.91-1.91s-.68,0-1.42.25a4.43,4.43,0,0,1-3.56.2c-1.55-.67-2.19-2.11-2.87-3.62a9.82,9.82,0,0,1-.94-3.84,3.36,3.36,0,0,0-.37-1.64c-.68-1.23-2-1.67-3.23-2.09s-2.79-.93-3.07-2.49.8-2.36,1.94-3.28a15.65,15.65,0,0,0,2.94-2.92A14.85,14.85,0,0,0,65.13,9c.49-1.66,1-3.23,2.7-3.68,2.09-.53,4.32,1.13,5.51,2.9s1.16,3.83,1,5.7c0,.56-.08,1.14-.08,1.75,0,4,1.46,6.89,3.33,10.59A26.8,26.8,0,0,0,81.54,32c1.57,1.86,2.94,3.46,2.84,6.35-.09,2.74-1.32,6.87-3.68,7ZM73.09,31a3.1,3.1,0,0,1,1.22.25c1.4.58,1.79,1.83,2.28,3.41.23.72.5,1.6.93,2.67,1.89,4.71,2.81,5.47,3.11,5.57A9.06,9.06,0,0,0,82,38.23c.07-2-.76-2.94-2.27-4.71a28.94,28.94,0,0,1-4.22-6.14c-1.94-3.84-3.61-7.14-3.59-11.69,0-.66,0-1.29.08-1.9.11-1.72.2-3-.63-4.19s-2.09-2.13-2.91-1.92c-.38.1-.59.67-1,2a17.28,17.28,0,0,1-2.71,5.79h0a17.5,17.5,0,0,1-3.36,3.36,5.29,5.29,0,0,0-1.09,1,6.55,6.55,0,0,0,1.47.6,7.33,7.33,0,0,1,4.57,3.2A5.69,5.69,0,0,1,67,26.34a7.85,7.85,0,0,0,.73,3c.61,1.34,1,2.11,1.64,2.4s1,.06,1.75-.24A5.7,5.7,0,0,1,73.09,31Z"/><path class="cls-5" d="M63,14.79c-2.39,3.23-4.93,3.79-4.66,5.27.34,1.88,4.5,1.19,6.17,4.21.93,1.7,0,2.66,1.35,5.57.63,1.4,1.14,2.53,2.26,3,1.89.82,3.3-1.14,5-.45,1.32.55,1.24,2.11,2.56,5.42.74,1.83,2.58,6.43,4.22,6.32,1.32-.09,2.47-3.28,2.55-5.87.15-4.28-3.35-5-6.62-11.44C73.9,23.08,72.32,20,72.34,15.7c0-2.64.64-4.71-.75-6.77-.87-1.29-2.68-2.81-4.21-2.41C65.25,7.07,66.09,10.65,63,14.79Z"/><path class="cls-5" d="M71.39,68.52a2,2,0,1,1-2-2A2,2,0,0,1,71.39,68.52Z"/><circle class="cls-5" cx="81.53" cy="75.18" r="3.42"/><circle class="cls-3" cx="76.08" cy="67.74" r="1.18"/><path class="cls-3" d="M5.65,33.17c0,.58,1.11.7.52.7s-2.65-.12-2.65-.7a1.07,1.07,0,1,1,2.13,0Z"/><circle class="cls-3" cx="17.33" cy="38.63" r="0.72"/><path class="cls-3" d="M31.35,42.23a.78.78,0,0,1-.78.78c-.43,0-3.26,1.33-3.26.9s2.69-4.56,3.12-4.56S31.35,41.8,31.35,42.23Z"/><circle class="cls-3" cx="20.48" cy="29.49" r="0.6"/><circle class="cls-3" cx="24.99" cy="41.03" r="0.25"/><path class="cls-3" d="M27.57,49.44c0,.21-2.25-1-2.45-1a.38.38,0,1,1,0-.75A10.73,10.73,0,0,1,27.57,49.44Z"/><path class="cls-3" d="M26.14,52.57a.85.85,0,0,1-1.7,0c0-.48-.68-1.55-.21-1.55S26.14,52.09,26.14,52.57Z"/><circle class="cls-3" cx="47.61" cy="44.24" r="2.01" transform="matrix(0.16, -0.99, 0.99, 0.16, -3.68, 84.15)"/><path class="cls-3" d="M24.74,49.89c0,.56-7.57,2.42-8.13,2.42a1,1,0,0,1,0-2C17.17,50.31,24.74,49.34,24.74,49.89Z"/><path class="cls-3" d="M22.4,61.14a3.31,3.31,0,0,1-3.31,3.31c-1.83,0-3.31-.43-3.31-2.25s-2.67-7.11-.85-7.11S22.4,59.31,22.4,61.14Z"/><path class="cls-3" d="M37.44,91.18a3.32,3.32,0,0,1-3.32,3.31c-1.82,0-3.31-.43-3.31-2.26s-2.67-7.11-.84-7.11S37.44,89.35,37.44,91.18Z"/><path class="cls-3" d="M8.12,65.47A1.77,1.77,0,1,1,6.36,63.7,1.76,1.76,0,0,1,8.12,65.47Z"/><path class="cls-3" d="M37.15,75.26c-2.15,1.6-1.79,6.88-.15,7.52s3.13-4,9-6.32A23.31,23.31,0,0,1,52.12,75c4.47-.44,6.67.66,7.3-.38.74-1.22-1.3-4.38-3.76-6.24s-4.77-2-5-3.46,1.51-2.12,1.2-3.24c-.44-1.6-4.83-2.82-7.15-1.13s-2.3,6.33-2.25,8.81S43,73.28,42,74.2C40.77,75.49,38.71,74.09,37.15,75.26Z"/><circle class="cls-3" cx="49.79" cy="58.04" r="0.17"/><circle class="cls-3" cx="52.71" cy="58.73" r="0.41"/><circle class="cls-3" cx="52.01" cy="56.95" r="0.29"/><circle class="cls-3" cx="54.76" cy="60.68" r="0.74"/><path class="cls-3" d="M54.19,64.07a.25.25,0,0,1-.25.25.26.26,0,0,1-.26-.25.26.26,0,0,1,.26-.26A.26.26,0,0,1,54.19,64.07Z"/><circle class="cls-3" cx="56.49" cy="65.9" r="0.51"/><circle class="cls-3" cx="59.51" cy="60.47" r="1.5"/><circle class="cls-3" cx="61.9" cy="63.57" r="0.24"/><path class="cls-3" d="M80.41,90.26c-.55-.69-2.09-.53-3.81-.07a30.48,30.48,0,0,1-6.24,2.39,46.52,46.52,0,0,1,6.24-2.39c1.47-.83,4,0,4-1.21.15-2-4-5.93-6.72-6.61-3.21-.81-4.76.83-8.82,1.7-7,1.49-14.81-.38-16.46-4.76-.68-1.83.24-1.62-.71-2s-3.26-.5-6.5,1.46a4.54,4.54,0,0,1-2.68.54,6.92,6.92,0,0,1-4.59-.76,1.91,1.91,0,0,1-.75-.81c-.33-.79.28-1.51-.95-2.21-1.52-.88-4.3.25-5.88,2-2.25,2.5-1,5-3.09,6.65-1.88,1.42-3.73.1-5.1,1.24-2.23,1.84-.76,8.1,1.08,11.29.23.39,2.13,2.87,2.41,3.24l6.59-2.11c8.85-2.61,17.91-6.53,29-6.53,0,1.22,4.54,0,3.64.93,4.71-1.6,3,2.46,5.54,5.6h8.47c2.05-1.23,5.18,1.86,6,.5C81.43,97.8,81.16,91.19,80.41,90.26Z"/><path class="cls-5" d="M80.42,92.58c-.53-.67-2-.52-3.71-.07a29.52,29.52,0,0,1-6.07,2.32,45.29,45.29,0,0,1,6.07-2.32c1.43-.81,2.57-1.8,2.66-2.94.14-1.92-2.66-4-5.27-4.67-3.12-.79-4.62.81-8.58,1.66-6.77,1.44-15.4-.41-17-4.67-.67-1.78,0-4.18-.91-4.51s-2,2.15-5.11,4.06c-.64.39-4.44,2.7-6.47,1.36-1.65-1.09-.66-3.6-2.26-4.52s-4.18.25-5.72,2c-2.19,2.43-.94,4.9-3,6.47-1.82,1.38-3.63.09-5,1.2-2.17,1.79-.74,7.89,1.05,11a11.25,11.25,0,0,0,.75,1.1h8c8.61-2.54,17.42-6.35,28.16-6.35a4.82,4.82,0,0,1-1.47,3.26c4.59-1.56,7.93,0,10.4,3.09h8.24a12.45,12.45,0,0,0,4.3-3.81C79.86,95.61,81.14,93.48,80.42,92.58Z"/></svg>