<svg id="Layer_1" data-name="Layer 1" xmlns="http://www.w3.org/2000/svg" viewBox="0 0 100 100"><defs><style>.cls-1{fill:#714c48;}.cls-2{fill:#5b3c38;}.cls-3{fill:#3e3e3f;}</style></defs><title>scorpion</title><path class="cls-1" d="M99.82,44.67a4.7,4.7,0,0,0-.62-1.25,1.76,1.76,0,0,0-1.64-.94,1.57,1.57,0,0,0,1.22-1.31,4.27,4.27,0,0,0,.13-1.28,4.36,4.36,0,0,0-.33-1.43A4.75,4.75,0,0,0,97,36.26a1.77,1.77,0,0,0-1.71-.39,1.53,1.53,0,0,0,.77-1.47A4.48,4.48,0,0,0,95.3,32,6.25,6.25,0,0,0,94.45,31a3.93,3.93,0,0,0-1-.7,1.63,1.63,0,0,0-1.6-.15,1.38,1.38,0,0,0,.43-1.46A3.71,3.71,0,0,0,92,27.57a6.31,6.31,0,0,0-.74-1.08A6,6,0,0,0,89.35,25a1.44,1.44,0,0,0-1.48-.07c.66-.52.17-2-1.1-3.36a5.93,5.93,0,0,0-1.94-1.39c-.61-.26-1.1-.3-1.37-.06.27-.24.25-.72,0-1.3A5.64,5.64,0,0,0,82,16.93,5.4,5.4,0,0,0,79.2,15.4a.72.72,0,0,0-.7-.59H75.41a.74.74,0,0,0-.54.24,5.06,5.06,0,0,0-3,1.06c-1.55,1-2.65,2.08-2.46,2.45-.2-.38-1.64.1-3.19,1.08s-2.7,2-2.56,2.26l0,.05H63a.42.42,0,0,0-.42.41V24.3a.42.42,0,0,0,.42.41h.33a16.51,16.51,0,0,0,1.8,2.76,16.66,16.66,0,0,0,2.5,2.88,13.56,13.56,0,0,0,2.1,3.15c.58.77,1.12,1.47,1.63,2.12l.66.89-.56-.95L70.1,33.23h0A13.34,13.34,0,0,0,68,30.08a15.87,15.87,0,0,0-1.69-3.42h0a12.12,12.12,0,0,0-2.08-2.93v-.8A7.47,7.47,0,0,0,67.45,22c1.67-.75,2.86-1.69,2.66-2.07.19.36,1.72,0,3.39-.71a7.39,7.39,0,0,0,2.21-1.43h1.5a6.35,6.35,0,0,0,1.39,2.44,7.25,7.25,0,0,0,1.69,1.48c.53.29,1,.34,1.27.1-.27.24-.28.73-.1,1.34a7.62,7.62,0,0,0,1.07,2c1,1.4,2.34,2.11,3,1.59-.33.26-.38.77-.3,1.41a5.38,5.38,0,0,0,.82,2.11,5.22,5.22,0,0,0,1.53,1.57A1.4,1.4,0,0,0,89,32a1.61,1.61,0,0,0-.57,1.43,5.85,5.85,0,0,0,.5,2.15,4.15,4.15,0,0,0,1.33,1.64,1.53,1.53,0,0,0,1.53.25,1.87,1.87,0,0,0-.94,1.35,5,5,0,0,0,0,2.07,3.58,3.58,0,0,0,.92,1.69,2,2,0,0,0,1.59.54,2.53,2.53,0,0,0-1.49.94,2.83,2.83,0,0,0-.45.79,2.45,2.45,0,0,0-.31.84,4.44,4.44,0,0,0,0,.82,1.8,1.8,0,0,0,.29.75,2.52,2.52,0,0,0,1.3,1.13,2.87,2.87,0,0,0-1.81,0,3.77,3.77,0,0,0-.82.3,4.19,4.19,0,0,0-.63.5,1.87,1.87,0,0,0-.38.69,2,2,0,0,0-.14.83,2.88,2.88,0,0,0,.66,1.77,3.11,3.11,0,0,0-1.75-1,3,3,0,0,0-1.91.21,2,2,0,0,0-.76.59,2.27,2.27,0,0,0-.51.83,2.88,2.88,0,0,0,0,2.06,3.14,3.14,0,0,0-1.52-1.53,3.17,3.17,0,0,0-2.12-.26,2.67,2.67,0,0,0-1.69,1.21A2.91,2.91,0,0,0,79,56.77a3.43,3.43,0,0,0-.72-1.36,4.56,4.56,0,0,0-4.51-4.06H31.45a4.48,4.48,0,0,0-1.64.32L22.2,44.05a.81.81,0,0,0-1.14,0l-1.17,1.17a.84.84,0,0,0-.21.47L15.33,50a.8.8,0,0,0,0,1.13l1.17,1.17a.8.8,0,0,0,1.13,0l4.12-4.12,5.65,5.64a4.43,4.43,0,0,0-.51,2v2.77H21.53a1,1,0,0,0-1,.95v2a1,1,0,0,0,1,1h5.36v1.36H24.26a1,1,0,0,0-1,1v2a1,1,0,0,0,1,1h3.38a4.56,4.56,0,0,0,3.81,2.08h7.12l2.62,2.62-4.12,4.12a.8.8,0,0,0,0,1.13l1.17,1.17a.81.81,0,0,0,1.14,0l4.35-4.35a.78.78,0,0,0,.46-.21l1.17-1.17a.81.81,0,0,0,0-1.14l-2.18-2.17h5.4l3.58,3.57v5.32a.8.8,0,0,0,.8.8h1.65a.8.8,0,0,0,.8-.8V73.1a.78.78,0,0,0,0-1V72a.8.8,0,0,0-.8-.8h-.14l-1.28-1.28h4.45l3.58,3.57v5.32a.8.8,0,0,0,.8.8h1.66a.8.8,0,0,0,.8-.8V73.1a.78.78,0,0,0,0-1V72a.8.8,0,0,0-.8-.8h-.15l-1.28-1.28h4.46l3.58,3.57v5.32a.8.8,0,0,0,.8.8h1.66a.8.8,0,0,0,.8-.8V73.1a.78.78,0,0,0,0-1V72a.8.8,0,0,0-.8-.8H72.6l-1.28-1.28h2.49A4.56,4.56,0,0,0,78.3,66a3.22,3.22,0,0,0,2-3.48,2.47,2.47,0,0,0,1.48,1.74,3.6,3.6,0,0,0,2.68,0,4.52,4.52,0,0,0,1.28-.76,3.55,3.55,0,0,0,.88-1,2.47,2.47,0,0,0,.22-2.25,2.15,2.15,0,0,0,1.76,1.27A3.57,3.57,0,0,0,90,61.38a5.09,5.09,0,0,0,1.41-.65,4.51,4.51,0,0,0,1.16-1.1,3.84,3.84,0,0,0,.68-1.25,2.17,2.17,0,0,0-.29-2.15,1.87,1.87,0,0,0,2,.48,4.3,4.3,0,0,0,1.28-.65,3.27,3.27,0,0,0,.6-.58,6.61,6.61,0,0,0,.54-.71h0a4.25,4.25,0,0,0,.7-1.61,4.75,4.75,0,0,0,.15-1.5A2,2,0,0,0,97.1,49.9a1.35,1.35,0,0,0,1,0,2,2,0,0,0,.94-.66A4.61,4.61,0,0,0,99.7,48a4.25,4.25,0,0,0,.3-1.65A6.26,6.26,0,0,0,99.82,44.67Z"/><path class="cls-2" d="M19.78,49.6l-1.94,1.94C14.84,49,9,50.39,4.57,54.83,0,59.41-1.38,65.49,1.53,68.39l1.94-1.94c3,2.56,8.83,1.15,13.27-3.29S22.69,52.5,19.78,49.6Z"/><circle class="cls-3" cx="34.92" cy="52.84" r="1.15"/><circle class="cls-3" cx="38.33" cy="56.26" r="1.15"/><path class="cls-2" d="M37.41,77.75c-.32-3.93-5.43-7-11.72-7C19.21,70.7,14,74,14,78.14h2.74c.32,3.93,5.43,7,11.71,7,6.49,0,11.75-3.33,11.75-7.44Z"/><path class="cls-2" d="M70.49,56l-5.78-5.79a1.06,1.06,0,0,0-1.48,0l-1.1,1.11h-2L59,50.24a1.06,1.06,0,0,0-1.48,0l-1.11,1.11h-2l-1.11-1.11a1.06,1.06,0,0,0-1.48,0l-1.1,1.11h-2l-1.1-1.11a1.06,1.06,0,0,0-1.48,0l-1.53,1.53a1,1,0,0,0,0,1.48L50.46,59a1,1,0,0,0,1.48,0l1.53-1.52a1.07,1.07,0,0,0,.29-.86L56.14,59a1,1,0,0,0,1.48,0l1.53-1.52a1.06,1.06,0,0,0,.28-.86L61.81,59a1,1,0,0,0,1.48,0l1.53-1.52a1,1,0,0,0,.28-.86L67.48,59A1.06,1.06,0,0,0,69,59l1.52-1.52A1,1,0,0,0,70.49,56Z"/></svg>