<svg id="Layer_1" data-name="Layer 1" xmlns="http://www.w3.org/2000/svg" viewBox="0 0 100 100"><defs><style>.cls-1{fill:#6e4a46;}.cls-2{fill:#f37d3b;}.cls-3{fill:#fcca98;}.cls-4{fill:#fff;}.cls-5{fill:#231f20;}.cls-6{fill:#ffc640;}</style></defs><title>santa</title><path class="cls-1" d="M96.05,67.75a16.47,16.47,0,0,1-32.93,0c0-9.1-14.63-49.56-5.54-49.56S96.05,58.65,96.05,67.75Z"/><path class="cls-2" d="M31.45,39.54a4.08,4.08,0,0,1-3.82-2.65L22,21.7a4.08,4.08,0,0,1,3.64-5.5l23.23-1a4.08,4.08,0,0,1,.37,8.15l-17.64.78L35.27,34a4.06,4.06,0,0,1-2.39,5.24A4,4,0,0,1,31.45,39.54Z"/><path class="cls-2" d="M53.58,7.76S56,1.24,64.4,2.6c0,0,.29-2.89,3.35-1.92,0,0,5.32-2.21,8.55,1.36,0,0,9.52,3.28,10.09,11.38,0,0-7.42-4.07-8.9-2.21s-5.15,13.94-5.15,13.94"/><circle class="cls-3" cx="52.11" cy="26.55" r="15.99"/><circle class="cls-2" cx="44.97" cy="52.33" r="28.22"/><path class="cls-4" d="M36.56,19.8s-12.75,11.81-13,22.73c0,0,.17-1.23,3-2.25,0,0-2.64,6.55-2.38,9.94,0,0,5.69-9.17,8.5-9.09,0,0-5.53,11.3-4.08,14.45,0,0,10.54-10.62,15.21-12.07,0,0-2.89,1.7-2.55,12.92,0,0,13.6-17.76,16.91-17.25,0,0-1.67,5.8-2.46,8,0,0,8.84-11.31,8.75-18.79l4.42-7.31L66,18.68l-5.08,6S39.7,8.5,36.56,19.8Z"/><circle class="cls-5" cx="60.84" cy="18.44" r="1.08"/><polygon class="cls-3" points="48.75 11.53 42.24 9.83 44.54 16.03 48.75 11.53"/><rect class="cls-3" x="38.74" y="18.01" width="7.46" height="3.12" rx="0.66" ry="0.66"/><path class="cls-4" d="M70.06,28.16a2.73,2.73,0,0,1-2.7-2.43C66.13,14.12,51.87,12.05,51.26,12A2.72,2.72,0,0,1,52,6.57c6.6.87,19.44,5.88,20.79,18.59a2.72,2.72,0,0,1-2.42,3Z"/><circle class="cls-3" cx="69.7" cy="28.47" r="3.31"/><circle class="cls-6" cx="34.86" cy="53.54" r="1.27"/><circle class="cls-6" cx="34.46" cy="61.7" r="1.27"/><circle class="cls-6" cx="37.4" cy="70.2" r="1.27"/><rect class="cls-2" x="12.16" y="57.28" width="7.48" height="28.22" rx="1.59" ry="1.59" transform="translate(55.14 9.66) rotate(45)"/><rect class="cls-2" x="48.37" y="71.78" width="7.48" height="28.22" rx="1.59" ry="1.59"/></svg>