<svg id="Layer_1" data-name="Layer 1" xmlns="http://www.w3.org/2000/svg" viewBox="0 0 100 100"><defs><style>.cls-1{fill:#fffacd;}.cls-2{fill:#bf9b77;}.cls-3{fill:#895e59;}.cls-4{fill:#6f4b47;}.cls-5{fill:#171717;}.cls-6{fill:#9b6b65;}</style></defs><title>reindeer</title><path class="cls-1" d="M97.08,48.23S88.3,53,85.66,53a4.77,4.77,0,0,1,0-9.53C88.3,43.47,97.08,48.23,97.08,48.23Z"/><path class="cls-2" d="M31.83,18.61a1.79,1.79,0,0,1-1.55-2.67L37.22,3.81a1.78,1.78,0,1,1,3.1,1.77L33.38,17.71A1.78,1.78,0,0,1,31.83,18.61Z"/><path class="cls-2" d="M46.62,6.48H38.89a1.79,1.79,0,1,1,0-3.57h7.73a1.79,1.79,0,1,1,0,3.57Z"/><path class="cls-2" d="M41,9.62H37.44a1.19,1.19,0,1,1,0-2.38H41a1.19,1.19,0,0,1,0,2.38Z"/><path class="cls-2" d="M38,4.9a1.19,1.19,0,0,1-.84-.34L34.6,2A1.2,1.2,0,0,1,36.29.35l2.52,2.52a1.19,1.19,0,0,1-.84,2Z"/><path class="cls-2" d="M46.86,4.9a1.19,1.19,0,0,1-.84-2L48.54.35A1.2,1.2,0,1,1,50.23,2L47.71,4.56A1.21,1.21,0,0,1,46.86,4.9Z"/><path class="cls-2" d="M39,12.7H35.45a1.19,1.19,0,1,1,0-2.38H39a1.19,1.19,0,0,1,0,2.38Z"/><path class="cls-2" d="M21.67,18.61a1.78,1.78,0,0,1-1.55-.9L13.18,5.58a1.78,1.78,0,1,1,3.1-1.77l6.94,12.13a1.78,1.78,0,0,1-.66,2.43A1.8,1.8,0,0,1,21.67,18.61Z"/><path class="cls-2" d="M14.62,6.48H6.88a1.79,1.79,0,0,1,0-3.57h7.74a1.79,1.79,0,0,1,0,3.57Z"/><path class="cls-2" d="M16.06,9.62H12.5a1.19,1.19,0,0,1,0-2.38h3.56a1.19,1.19,0,1,1,0,2.38Z"/><path class="cls-2" d="M15.53,4.9a1.19,1.19,0,0,1-.84-.34,1.21,1.21,0,0,1,0-1.69L17.21.35A1.2,1.2,0,1,1,18.9,2L16.38,4.56A1.21,1.21,0,0,1,15.53,4.9Z"/><path class="cls-2" d="M6.64,4.9a1.17,1.17,0,0,1-.84-.34L3.27,2A1.2,1.2,0,0,1,5,.35L7.48,2.87a1.19,1.19,0,0,1-.84,2Z"/><path class="cls-2" d="M18.06,12.7H14.49a1.19,1.19,0,0,1,0-2.38h3.57a1.19,1.19,0,1,1,0,2.38Z"/><path class="cls-3" d="M39.86,21.58a3.08,3.08,0,0,1-4.35-4.35c1.2-1.2,6.45-4.5,7.65-3.29S41.06,20.38,39.86,21.58Z"/><path class="cls-4" d="M38.26,21a1.84,1.84,0,1,1-2.6-2.6c.72-.72,3.85-2.69,4.57-2S39,20.3,38.26,21Z"/><path class="cls-3" d="M14.66,21.58A3.08,3.08,0,1,0,19,17.23c-1.2-1.2-6.44-4.5-7.64-3.29S13.46,20.38,14.66,21.58Z"/><path class="cls-4" d="M16.26,21a1.84,1.84,0,0,0,2.6-2.6c-.71-.72-3.85-2.69-4.57-2S15.54,20.3,16.26,21Z"/><polyline class="cls-4" points="34.29 47.09 40.65 91.8 49.06 47.09"/><polyline class="cls-4" points="38.89 86.4 40.61 98.09 42.88 86.4"/><rect class="cls-4" x="38.13" y="81.53" width="5.08" height="3.34" rx="0.76" ry="0.76"/><rect class="cls-4" x="38.13" y="83.78" width="5.08" height="3.34" rx="0.76" ry="0.76"/><polygon class="cls-4" points="72.29 50.91 58.37 55.86 73.28 84.32 77.02 81.1 72.29 50.91"/><polyline class="cls-4" points="71.9 84.61 69.78 96.23 75.68 85.89"/><rect class="cls-4" x="72.07" y="80.48" width="5.08" height="3.34" rx="0.76" ry="0.76" transform="matrix(0.95, 0.32, -0.32, 0.95, 30.32, -19.6)"/><rect class="cls-4" x="71.35" y="82.61" width="5.08" height="3.34" rx="0.76" ry="0.76" transform="translate(30.96 -19.26) rotate(18.72)"/><path class="cls-3" d="M61.27,71.65c-19.89,0-21.75-5.74-23.29-6.59L50.31,40.68s.82.34.66.26c.5.25-1.72,6.07,21.82,1.7a13.7,13.7,0,1,1,5,26.94C69.76,71.07,67.57,71.65,61.27,71.65Z"/><path class="cls-3" d="M18.57,21.31l.21-.14L19,21l.49-.27c.17-.09.37-.17.55-.25s.38-.15.59-.21A7.83,7.83,0,0,1,22,20l.71-.08c.24,0,.49,0,.73,0a6.13,6.13,0,0,1,.74.05l.73.11.69.18c.22.07.47.14.66.22l.62.26.31.14.27.14a10.57,10.57,0,0,1,1,.62,9.35,9.35,0,0,1,.89.66l.39.33.2.17.17.16a20,20,0,0,1,2.3,2.57,37.13,37.13,0,0,1,3,4.8c.85,1.55,1.59,3.08,2.28,4.61l.95,1.87c.3.62.64,1.21,1,1.8l.49.89.51.84c.33.57.67,1.13,1,1.64l.52.77c.17.26.36.48.53.72l.53.7.53.61.26.3.26.26.51.48.47.34.11.09.11,0,.19.08a.76.76,0,0,0,.18.06l.12,0a.21.21,0,0,0,.11,0,.86.86,0,0,0,0-.16c0-.16-.25-.68-.91-1.18a4.31,4.31,0,0,0-.63-.42l-.39-.21-.44-.2L43.29,44a4.51,4.51,0,0,0-.52-.17,5,5,0,0,0-.53-.11c-.18,0-.37-.08-.56-.1a11,11,0,0,0-1.13-.07,5.09,5.09,0,0,0-.55,0l-.27,0h-.25l-.49.07-.24,0-.22,0a3.15,3.15,0,0,0-.42.09l-.38.11a20.26,20.26,0,0,0-1.93.7.35.35,0,0,0-.14.06l-.13,0-.25.1A1.39,1.39,0,0,0,35,45L35,45l-.09.08a.44.44,0,0,0-.12.1l-.07.08,0,0-.05.07-.11.16a14.56,14.56,0,0,1,24.4,15.9l-.15.21-.07.1,0,0L58.5,62l-.27.33-.26.29-.24.26c-.32.35-.63.66-.95,1s-.65.6-1,.9l-.52.43-.55.43a22.64,22.64,0,0,1-5.55,3.16c-.27.11-.58.22-.89.32l-.94.29-.47.13-.51.12-1,.2-.51.08-.55.07-1.09.08A16.51,16.51,0,0,1,41,70a17.32,17.32,0,0,1-7.74-2.53,18.49,18.49,0,0,1-4.39-3.84c-.25-.32-.51-.63-.75-1s-.41-.59-.61-.88l-.57-.89c-.17-.29-.31-.55-.46-.83A28.45,28.45,0,0,1,25,56.91l-.51-1.46c-.08-.24-.18-.49-.25-.73L24,54l-.39-1.39-.3-1.35c-.09-.44-.2-.89-.28-1.32l-.22-1.29c-.16-.87-.27-1.71-.37-2.54l-.16-1.25-.12-1.23C22.1,42.84,22,42,22,41.22l-.15-2.39c0-1.33-.06-2.62-.15-3.85s-.24-2.37-.4-3.29a9.47,9.47,0,0,1-.15-1.07c0-.24.08-.3.47-.27,0,0,.1,0,.16,0h.37l.19,0,.18,0,.17-.05a.71.71,0,0,0,.23-.16c.23-.22,0-.33-.34-.26a4.15,4.15,0,0,0-1.28.59,12.2,12.2,0,0,0-1.45,1.11"/><polyline class="cls-3" points="48.63 46.15 54.99 90.86 63.4 46.15"/><polyline class="cls-3" points="53.23 85.45 54.95 97.14 57.22 85.45"/><rect class="cls-3" x="52.47" y="80.59" width="5.08" height="3.34" rx="0.76" ry="0.76"/><rect class="cls-3" x="52.47" y="82.84" width="5.08" height="3.34" rx="0.76" ry="0.76"/><polygon class="cls-5" points="35.18 100 45.15 100 40.16 93.34 35.18 100"/><polygon class="cls-5" points="50.02 100 59.99 100 55.01 93.34 50.02 100"/><polygon class="cls-5" points="65.51 100 75.48 100 70.5 93.34 65.51 100"/><polygon class="cls-3" points="86.65 50.91 72.73 55.86 87.64 84.32 91.38 81.1 86.65 50.91"/><polyline class="cls-3" points="86.26 84.61 84.14 96.23 90.05 85.89"/><rect class="cls-3" x="86.43" y="80.48" width="5.08" height="3.34" rx="0.76" ry="0.76" transform="translate(31.08 -24.21) rotate(18.72)"/><rect class="cls-3" x="85.71" y="82.61" width="5.08" height="3.34" rx="0.76" ry="0.76" transform="translate(31.72 -23.87) rotate(18.72)"/><polygon class="cls-5" points="79.87 100 89.84 100 84.86 93.34 79.87 100"/><ellipse class="cls-3" cx="44.71" cy="46.16" rx="5.11" ry="3.37"/><rect class="cls-3" x="16.91" y="14.92" width="20.76" height="26.58" rx="4.74" ry="4.74"/><path class="cls-1" d="M23.78,53V63.46L25.47,59l-.25,8.52L27,64.76l.6,7.19,1.34-4.22,1.54,3.57.34-3.07,1.44,2.43.85-6.44L34,67.09S35.19,52.09,23.78,53Z"/><circle class="cls-5" cx="19.06" cy="25.45" r="0.69"/><circle class="cls-5" cx="35.3" cy="24.75" r="0.69"/><rect class="cls-6" x="20.9" y="26.52" width="12.15" height="14.13" rx="2.78" ry="2.78"/><path class="cls-5" d="M32.28,28.31c0,1.17-2.38,4-5.31,4s-5.3-2.79-5.3-4S24,26.2,27,26.2,32.28,27.15,32.28,28.31Z"/><rect class="cls-3" x="19.75" y="14.5" width="5.26" height="5.99" rx="0.97" ry="0.97"/><rect class="cls-3" x="29.01" y="14.5" width="5.26" height="5.99" rx="0.97" ry="0.97"/></svg>