<svg id="Layer_1" data-name="Layer 1" xmlns="http://www.w3.org/2000/svg" viewBox="0 0 100 100"><defs><style>.cls-1{fill:#ffc640;}.cls-2{fill:#c7552e;}.cls-3{fill:#f37d3b;}</style></defs><title>sleigh</title><rect class="cls-1" x="32.06" y="63.37" width="7.91" height="14.5" rx="1.75" ry="1.75"/><rect class="cls-1" x="67.36" y="63.37" width="7.91" height="14.5" rx="1.75" ry="1.75"/><rect class="cls-1" x="25.27" y="61.07" width="21.11" height="9.39" rx="2.08" ry="2.08"/><rect class="cls-1" x="60.76" y="61.07" width="21.11" height="9.39" rx="2.08" ry="2.08"/><path class="cls-2" d="M80.64,60.07A19.38,19.38,0,0,1,61.28,40.7V39.24a19.36,19.36,0,1,1,38.72,0V40.7a5.65,5.65,0,0,1-11.3,0V39.24a8.07,8.07,0,1,0-16.13,0V40.7a8.08,8.08,0,0,0,8.07,8.07,5.65,5.65,0,1,1,0,11.3Z"/><path class="cls-3" d="M14.5,35.56V50.68A16.29,16.29,0,0,0,30.74,66.93H78.11A16.29,16.29,0,0,0,94.35,50.68V35.56Z"/><rect class="cls-2" x="12.24" y="33.11" width="85.7" height="5.98" rx="1.32" ry="1.32"/><rect class="cls-3" x="66.93" y="25.52" width="27.43" height="28.9" rx="6.07" ry="6.07"/><path class="cls-1" d="M93.37,80.13l-81.4,0c-.31,0-7.78-1-11.81-11.2a2.26,2.26,0,0,1,4.2-1.66c2.78,7,7.38,8.22,8.06,8.36h81a2.26,2.26,0,0,1,0,4.52Z"/></svg>