<svg id="Layer_1" data-name="Layer 1" xmlns="http://www.w3.org/2000/svg" viewBox="0 0 100 100"><defs><style>.cls-1{fill:#f37d3b;}.cls-2{fill:#fff;}</style></defs><title>candy cane</title><path class="cls-1" d="M23.08,100a10.56,10.56,0,0,1-7.47-18L64.29,33.29A7.13,7.13,0,0,0,54.2,23.2,10.56,10.56,0,0,1,39.26,8.26a28.26,28.26,0,0,1,40,40L30.55,96.91A10.56,10.56,0,0,1,23.08,100Z"/><path class="cls-2" d="M54.2,23.2,39.26,8.26A28.28,28.28,0,0,1,57.34.07l1.41,21.08A7,7,0,0,0,54.2,23.2Z"/><path class="cls-2" d="M53.52,73.93,38.58,59l14-14L67.52,59.93Zm29-29.7L65.11,32.29a7,7,0,0,0,1.24-4.05,7.24,7.24,0,0,0-.92-3.54L83.8,14.26a28.37,28.37,0,0,1-1.26,30Z"/><rect class="cls-2" x="21.22" y="74.39" width="12.68" height="21.13" transform="translate(-52 44.37) rotate(-45)"/></svg>