<svg id="Layer_1" data-name="Layer 1" xmlns="http://www.w3.org/2000/svg" viewBox="0 0 100 100"><defs><style>.cls-1{fill:#895e59;}.cls-2{fill:#f37d3b;}.cls-3{fill:#fff;}.cls-4{fill:#3e3e3f;}</style></defs><title>christmas stocking</title><rect class="cls-1" x="56.75" y="0.03" width="9.41" height="28.13" rx="2.12" ry="2.12"/><path class="cls-2" d="M39,42.86H58.94a9.52,9.52,0,0,1,9.52,9.52V98.05a9.52,9.52,0,0,1-9.52,9.52H39a6.76,6.76,0,0,1-6.76-6.76V49.62A6.76,6.76,0,0,1,39,42.86Z" transform="translate(106.24 4.01) rotate(71.93)"/><path class="cls-2" d="M27.91,38.56,41.79,81.1c3.61,11.07,13.72,11.34,24.78,7.73S85.64,79,82,68L68.15,25.43Z"/><circle class="cls-3" cx="30.49" cy="37.89" r="5.15"/><circle class="cls-3" cx="37.53" cy="35.6" r="5.15"/><circle class="cls-3" cx="44.56" cy="33.3" r="5.15"/><circle class="cls-3" cx="51.6" cy="31.01" r="5.15"/><circle class="cls-3" cx="58.64" cy="28.71" r="5.15"/><circle class="cls-3" cx="65.68" cy="26.41" r="5.15"/><circle class="cls-4" cx="61.37" cy="3.75" r="1.79"/></svg>