<svg id="Layer_1" data-name="Layer 1" xmlns="http://www.w3.org/2000/svg" viewBox="0 0 100 100"><defs><style>.cls-1{fill:#3e3e3f;}.cls-2{fill:#b95f2b;}.cls-3{fill:#a35323;}</style></defs><title>chimney</title><circle class="cls-1" cx="42.33" cy="39.97" r="2.42"/><circle class="cls-1" cx="34.34" cy="17.11" r="4.38"/><circle class="cls-1" cx="47.43" cy="19.18" r="1.61"/><circle class="cls-1" cx="55.61" cy="17.23" r="1.71"/><circle class="cls-1" cx="25.23" cy="3.01" r="3.01"/><circle class="cls-1" cx="55.75" cy="37.93" r="2.96"/><circle class="cls-1" cx="54.99" cy="36.37" r="5.37"/><circle class="cls-1" cx="45.82" cy="46.33" r="9.61"/><circle class="cls-1" cx="53.43" cy="43.78" r="3.81"/><circle class="cls-1" cx="54.62" cy="30.99" r="5.13"/><circle class="cls-1" cx="58.32" cy="43.26" r="4.42"/><circle class="cls-1" cx="67.27" cy="18.39" r="2.86"/><circle class="cls-1" cx="59.9" cy="33.69" r="3.33"/><circle class="cls-1" cx="43.29" cy="16.22" r="6.93"/><circle class="cls-1" cx="47.81" cy="4.84" r="1.56"/><circle class="cls-1" cx="54.62" cy="14.78" r="8.37"/><circle class="cls-1" cx="62.37" cy="9.29" r="3.28"/><circle class="cls-1" cx="43.29" cy="47.77" r="6.93"/><circle class="cls-1" cx="47.81" cy="36.39" r="1.56"/><circle class="cls-1" cx="39.91" cy="28.37" r="10.81"/><circle class="cls-1" cx="46.84" cy="36.37" r="10.81"/><circle class="cls-1" cx="62.37" cy="40.84" r="3.28"/><path class="cls-2" d="M75,55.35c0-6.07-5-4.4-11-4.4H36.48c-6.07,0-11-1.67-11,4.4V100H75Z"/><rect class="cls-3" x="29.2" y="75.35" width="11.36" height="5.2"/><rect class="cls-3" x="44.32" y="75.35" width="11.36" height="5.2"/><rect class="cls-3" x="59.52" y="75.35" width="11.36" height="5.2"/><rect class="cls-3" x="36.64" y="83.37" width="11.36" height="5.2"/><rect class="cls-3" x="51.28" y="83.37" width="11.36" height="5.2"/><rect class="cls-3" x="29.2" y="59.39" width="11.36" height="5.2"/><rect class="cls-3" x="44.32" y="59.39" width="11.36" height="5.2"/><rect class="cls-3" x="59.52" y="59.39" width="11.36" height="5.2"/><rect class="cls-3" x="36.64" y="67.41" width="11.36" height="5.2"/><rect class="cls-3" x="51.28" y="67.41" width="11.36" height="5.2"/><rect class="cls-3" x="29.2" y="90.87" width="11.36" height="5.2"/><rect class="cls-3" x="44.32" y="90.87" width="11.36" height="5.2"/><rect class="cls-3" x="59.52" y="90.87" width="11.36" height="5.2"/><rect class="cls-2" x="18.82" y="46.33" width="62.35" height="11.88" rx="2.93" ry="2.93"/></svg>