<svg id="Layer_1" data-name="Layer 1" xmlns="http://www.w3.org/2000/svg" viewBox="0 0 100 100"><defs><style>.cls-1{fill:#00817a;}.cls-2{fill:#00a69c;}.cls-3{fill:#00968d;}.cls-4{fill:#6ab8d9;}</style></defs><title>sweater</title><rect class="cls-1" x="18.29" y="4.99" width="63.41" height="95.01" rx="13.13" ry="13.13"/><rect class="cls-2" x="1.37" width="97.1" height="32.06" rx="6.64" ry="6.64"/><rect class="cls-2" x="1.37" y="8.37" width="17.63" height="55.85" rx="3.65" ry="3.65"/><path class="cls-3" d="M19,55.41v-31c-.11,0-.23,0-.34,0a4.94,4.94,0,0,0-4.93,4.92V63.46A8.81,8.81,0,0,0,19,55.41Z"/><rect class="cls-2" x="80.84" y="8.37" width="17.63" height="55.85" rx="3.65" ry="3.65" transform="translate(179.3 72.6) rotate(180)"/><path class="cls-3" d="M80.84,55.41v-31c.11,0,.22,0,.34,0a4.94,4.94,0,0,1,4.92,4.92V63.46A8.82,8.82,0,0,1,80.84,55.41Z"/><rect class="cls-2" x="18.29" width="63.41" height="95.01" rx="13.13" ry="13.13"/><ellipse class="cls-1" cx="50.93" cy="5.2" rx="19.92" ry="4.41"/><path class="cls-1" d="M4.83,57.67a3.46,3.46,0,1,0,0,6.91H18.29V57.67Z"/><path class="cls-1" d="M95.17,57.67a3.46,3.46,0,1,1,0,6.91H81.71V57.67Z"/><rect class="cls-4" x="20.15" y="35.41" width="8.96" height="8.96" transform="translate(35.42 -5.73) rotate(45)"/><rect class="cls-4" x="32.83" y="35.41" width="8.96" height="8.96" transform="translate(39.14 -14.7) rotate(45)"/><rect class="cls-4" x="45.52" y="35.41" width="8.96" height="8.96" transform="translate(42.85 -23.67) rotate(45)"/><rect class="cls-4" x="58.21" y="35.41" width="8.96" height="8.96" transform="translate(46.57 -32.64) rotate(45)"/><rect class="cls-4" x="70.9" y="35.41" width="8.96" height="8.96" transform="translate(50.28 -41.61) rotate(45)"/></svg>