<svg id="Layer_1" data-name="Layer 1" xmlns="http://www.w3.org/2000/svg" viewBox="0 0 100 100"><defs><style>.cls-1{fill:#f37d3b;}.cls-2{fill:#09a582;}</style></defs><title>gift</title><path class="cls-1" d="M66.45,34.49a26.42,26.42,0,0,1-9-1.66l4.83-13.44c9.4,3.37,14.12-5.71,14.62-6.76l12.86,6.22C86.78,25,78.65,34.49,66.45,34.49Z"/><circle class="cls-1" cx="37.19" cy="19.54" r="12.81"/><circle class="cls-1" cx="62.81" cy="19.54" r="12.81"/><rect class="cls-2" y="21.01" width="100" height="72.26" rx="6.38" ry="6.38"/><rect class="cls-1" x="42.63" y="20.96" width="14.73" height="72.26"/><rect class="cls-1" x="42.63" y="7.09" width="14.73" height="100" transform="translate(107.09 7.09) rotate(90)"/><rect class="cls-1" x="48.14" y="19.54" width="3.87" height="5.01"/><path class="cls-1" d="M20.59,46.38,17.43,27.59c7-1.18,7.55-7.85,7.44-10.66l19-1.06C44.45,25,40.3,43.05,20.59,46.38Z"/></svg>