<svg id="Layer_1" data-name="Layer 1" xmlns="http://www.w3.org/2000/svg" viewBox="0 0 100 100"><defs><style>.cls-1{fill:#9c9c9c;}.cls-2{fill:#454545;}.cls-3{fill:#363636;}.cls-4{fill:#7d7d7d;}.cls-5{fill:#b3b3b3;}.cls-6{fill:#87898b;}.cls-7{fill:#ebf7fd;}.cls-8{fill:#b8c2c8;}.cls-9{fill:#ee4036;}.cls-10{fill:#f37d3b;}.cls-11{fill:#525252;}</style></defs><title>boiler</title><path class="cls-1" d="M15.74,71.63H9.16a2.29,2.29,0,0,1-2.29-2.29V28.21a2.29,2.29,0,0,1,2.29-2.29h7.15a2.29,2.29,0,1,1,0,4.58H11.45V67.05h4.29a2.29,2.29,0,0,1,0,4.58Z"/><rect class="cls-2" x="22.32" y="86.12" width="5.15" height="13.88" rx="1.12" ry="1.12"/><rect class="cls-2" x="71.52" y="86.12" width="5.15" height="13.88" rx="1.12" ry="1.12"/><rect class="cls-3" x="65.23" y="85.79" width="4" height="10.79" rx="0.87" ry="0.87"/><rect class="cls-3" x="30.04" y="85.79" width="4" height="10.79" rx="0.87" ry="0.87"/><path class="cls-1" d="M90.24,71.58h-6a2.29,2.29,0,0,1,0-4.58H88V59.06a2.29,2.29,0,0,1,4.58,0V69.29A2.28,2.28,0,0,1,90.24,71.58Z"/><rect class="cls-2" x="75.74" y="62.58" width="9.13" height="13.42" rx="1.99" ry="1.99"/><rect class="cls-2" x="13.11" y="62.58" width="9.13" height="13.42" rx="1.99" ry="1.99"/><rect class="cls-2" x="13.11" y="21.5" width="9.13" height="13.42" rx="1.99" ry="1.99"/><rect class="cls-4" x="17.68" width="62.69" height="94" rx="6.78" ry="6.78"/><rect class="cls-5" x="24.41" y="11.09" width="8.77" height="29.57" rx="1.92" ry="1.92"/><rect class="cls-5" x="24.41" y="44.03" width="8.77" height="9.64" rx="1.92" ry="1.92"/><circle class="cls-6" cx="90.26" cy="56.06" r="8.87"/><circle class="cls-7" cx="90.26" cy="55.27" r="7.29"/><rect class="cls-8" x="89.67" y="48.59" width="1.14" height="1.99" rx="0.25" ry="0.25"/><rect class="cls-9" x="95.45" y="54.38" width="1.14" height="1.99" rx="0.25" ry="0.25" transform="translate(151.4 -40.66) rotate(90)"/><rect class="cls-8" x="83.89" y="54.38" width="1.14" height="1.99" rx="0.25" ry="0.25" transform="translate(139.83 -29.09) rotate(90)"/><rect class="cls-8" x="93.76" y="50.29" width="1.14" height="1.99" rx="0.25" ry="0.25" transform="translate(63.89 -51.68) rotate(45)"/><rect class="cls-8" x="85.58" y="58.47" width="1.14" height="1.99" rx="0.25" ry="0.25" transform="translate(67.28 -43.5) rotate(45)"/><rect class="cls-9" x="93.76" y="58.47" width="1.14" height="1.99" rx="0.25" ry="0.25" transform="translate(203.08 34.8) rotate(135)"/><rect class="cls-8" x="85.58" y="50.29" width="1.14" height="1.99" rx="0.25" ry="0.25" transform="translate(183.33 26.62) rotate(135)"/><polygon class="cls-10" points="89.55 54.66 90.08 56.2 96.83 52.98 89.55 54.66"/><ellipse class="cls-11" cx="49.64" cy="1.64" rx="18.59" ry="1.64"/><rect class="cls-10" x="62.94" y="80.37" width="8.58" height="6.86"/><rect class="cls-10" x="62.94" y="77.7" width="8.58" height="1.37"/></svg>