<svg id="Layer_1" data-name="Layer 1" xmlns="http://www.w3.org/2000/svg" viewBox="0 0 100 100"><defs><style>.cls-1{fill:#6ab8d9;}.cls-2{fill:#5ca1be;}.cls-3{fill:#ffc640;}.cls-4{fill:#daab38;}</style></defs><title>snowboard</title><rect class="cls-1" x="31.5" y="-7.25" width="37" height="114.5" rx="9.35" ry="9.35" transform="translate(50 -20.71) rotate(45)"/><rect class="cls-2" x="19.45" y="52.41" width="34.68" height="21.6" rx="5.46" ry="5.46" transform="translate(55.47 -7.5) rotate(45)"/><rect class="cls-3" x="24.28" y="53.03" width="25.72" height="17.11" rx="4.32" ry="4.32" transform="translate(54.43 -8.22) rotate(45)"/><rect class="cls-3" x="25.29" y="44.94" width="15.36" height="20.87" rx="3.88" ry="3.88"/><circle class="cls-4" cx="33.14" cy="49.98" r="4"/><path class="cls-2" d="M28.17,69.16c-.28,1.51,3.27.76,2.56,1.81-.1.15,0,1.49.19,1.49a2.8,2.8,0,0,0,2.74-2.27c.1-.49,2.44-11.83,12.7-12.29L41.6,53.08C33,55.69,29.09,64.25,28.17,69.16Z"/><rect class="cls-2" x="46.9" y="25.11" width="34.68" height="21.6" rx="5.46" ry="5.46" transform="translate(44.21 -34.91) rotate(45)"/><rect class="cls-3" x="51.74" y="25.74" width="25.72" height="17.11" rx="4.32" ry="4.32" transform="translate(43.17 -35.63) rotate(45)"/><rect class="cls-3" x="52.74" y="17.65" width="15.36" height="20.87" rx="3.88" ry="3.88"/><circle class="cls-4" cx="60.59" cy="22.68" r="4"/><path class="cls-2" d="M55.62,41.86c-.28,1.51,3.27.76,2.56,1.81-.1.15,0,1.49.19,1.49a2.8,2.8,0,0,0,2.74-2.26c.1-.5,2.44-11.84,12.7-12.29l-4.76-4.83C60.48,28.39,56.54,37,55.62,41.86Z"/></svg>