<svg id="Layer_1" data-name="Layer 1" xmlns="http://www.w3.org/2000/svg" viewBox="0 0 100 100"><defs><style>.cls-1{fill:#d2aa81;}.cls-2{fill:#fcca98;}.cls-3{fill:#171717;}</style></defs><title>armadillo</title><path class="cls-1" d="M87.49,44.26a41.21,41.21,0,0,1,7.81,7c2.21,2.66,4.35,5.86,4.67,9.8a9.61,9.61,0,0,1-1.26,5.51,12.68,12.68,0,0,1-3.53,3.87,30.66,30.66,0,0,1-8.75,4.33,29.83,29.83,0,0,0,7.51-5.68C96,66.85,97.09,64,96.34,61.6S93.67,57,91.42,55.18A35.63,35.63,0,0,0,84,50.69Z"/><rect class="cls-1" x="28.9" y="58.55" width="4.08" height="12.14" rx="1" ry="1"/><rect class="cls-1" x="34.98" y="59.26" width="4.08" height="12.14" rx="1" ry="1"/><rect class="cls-1" x="67.99" y="58.55" width="4.08" height="12.14" rx="1" ry="1"/><rect class="cls-1" x="74.07" y="59.26" width="4.08" height="12.14" rx="1" ry="1"/><polygon class="cls-1" points="5.06 55.69 20.42 40.33 73.07 40.33 73.07 55.69 5.06 55.69"/><path class="cls-1" d="M73.07,60.75h-68a5.06,5.06,0,0,1-3.58-8.64L16.84,36.75a5.06,5.06,0,0,1,3.58-1.48H73.07a5.07,5.07,0,0,1,5.06,5.06V55.69A5.07,5.07,0,0,1,73.07,60.75ZM17.29,50.62H68V45.39H22.52Z"/><rect class="cls-2" x="26.08" y="30.33" width="13.8" height="34.28" rx="3.38" ry="3.38"/><rect class="cls-2" x="38.02" y="28.23" width="13.8" height="38.48" rx="3.38" ry="3.38"/><rect class="cls-2" x="49.96" y="28.23" width="13.8" height="38.48" rx="3.38" ry="3.38"/><rect class="cls-2" x="61.9" y="30.33" width="13.8" height="34.28" rx="3.38" ry="3.38"/><rect class="cls-2" x="71.23" y="32.48" width="12.5" height="31.06" rx="3.06" ry="3.06"/><path class="cls-1" d="M25.27,34.64a3.91,3.91,0,1,1-7.81,0c0-2.15,1.75-9.41,3.9-9.41S25.27,32.49,25.27,34.64Z"/><circle class="cls-3" cx="18.81" cy="43.78" r="1.35"/><ellipse class="cls-2" cx="81" cy="48.14" rx="7.93" ry="10.41"/><rect class="cls-1" x="37.5" y="36.1" width="2.04" height="22.45" rx="0.5" ry="0.5"/><rect class="cls-1" x="49.96" y="36.1" width="2.04" height="22.45" rx="0.5" ry="0.5"/><rect class="cls-1" x="62.41" y="36.1" width="2.04" height="22.45" rx="0.5" ry="0.5"/><rect class="cls-1" x="74.87" y="36.1" width="2.04" height="22.45" rx="0.5" ry="0.5"/></svg>