<svg id="Layer_1" data-name="Layer 1" xmlns="http://www.w3.org/2000/svg" viewBox="0 0 100 100"><defs><style>.cls-1{fill:#ffc63f;}.cls-2{fill:#171717;}.cls-3{fill:#fff;}.cls-4{fill:#e3e3e3;}.cls-5{fill:#231f20;}.cls-6{fill:#909295;}.cls-7{fill:#c4c4c4;}.cls-8{fill:#09a582;}</style></defs><title>pigeon</title><polygon class="cls-1" points="30.85 70.55 38.45 70.55 34.65 92.8 30.85 70.55"/><polygon class="cls-1" points="42.25 69.93 49.84 69.93 46.05 92.18 42.25 69.93"/><path class="cls-2" d="M70.59,51.07s38.85,29.17,27.25,27.37-45.32-1.79-45.32-1.79Z"/><path class="cls-2" d="M16.46,21a4.69,4.69,0,0,1-3.88,5.39C10,26.84,0,27.26,0,27.26s8.51-9.69,11.07-10.11A4.7,4.7,0,0,1,16.46,21Z"/><rect class="cls-3" x="7.88" y="16.84" width="4.52" height="6.66" rx="0.97" ry="0.97" transform="translate(-8.09 6.85) rotate(-27.15)"/><path class="cls-4" d="M28.82,39.36c-3.55,5.43-10.75,5.3-17,6.28-.15.34-.32.65-.47,1a26.09,26.09,0,0,0-1.94,8.11,21.08,21.08,0,0,0,3.11,12.67,22.8,22.8,0,0,0,5.68,6.14,27.14,27.14,0,0,0,6.51,3.54,40,40,0,0,0,10.62,2.33,66.88,66.88,0,0,0,8.24.2c2.53-.1,4.92-.3,7.26-.58,1.17-.15,2.32-.31,3.49-.51l1.79-.33a16.11,16.11,0,0,0,2.15-.56A23.35,23.35,0,0,0,37.62,35.78Z"/><path class="cls-5" d="M32.22,42.47c-.24.57-.16,1,.78,1.76.34.27.93.75,1.55,1.33a34.8,34.8,0,0,1,.1-6l-.93,1A9.38,9.38,0,0,0,32.22,42.47Z"/><path class="cls-5" d="M30.59,15.77l.15,0C30.68,15.73,30.62,15.73,30.59,15.77Z"/><path class="cls-6" d="M36.26,18.2c0-6.07-5.88-11-13.13-11S10,12.13,10,18.2s5.64,10.78,12.69,11c-.6.84-1.2,1.69-1.82,2.53-1.18,1.68-2.72,3.6-4.24,5.71-.77,1.07-1.53,2.17-2.24,3.34a44.4,44.4,0,0,0-2.53,4.88c6.2-1,13.4-.86,17-6.27A21.54,21.54,0,0,0,35,37.09c.44-3.44.84-6.91,1.08-10.45.12-1.79.19-3.61.18-5.47,0-.62,0-1.22-.06-1.84A10.55,10.55,0,0,0,36.26,18.2Zm-14.95,21h0Zm-2.85-.94-.4-.17Zm1.45.54-.36-.12Z"/><path class="cls-7" d="M53.63,37.8C42.18,31.87,29.83,33,26.06,40.24c-3.25,6.29,1,15.14,9.55,21.25L57.19,39.92A36.73,36.73,0,0,0,53.63,37.8Z"/><path class="cls-2" d="M57.19,39.92,35.61,61.49A36.26,36.26,0,0,0,40,64.17c.44.22.87.42,1.31.62L62.08,44A33,33,0,0,0,57.19,39.92Z"/><path class="cls-7" d="M62.08,44,41.28,64.79a33.9,33.9,0,0,0,8.77,2.76l14-21.37A28.86,28.86,0,0,0,62.08,44Z"/><path class="cls-2" d="M64.07,46.18l-14,21.37a27.36,27.36,0,0,0,5.26.37L66.68,50.06A24,24,0,0,0,64.07,46.18Z"/><path class="cls-7" d="M66.68,50.06,55.31,67.92c2.86-.08,10.31,2.74,17.2,5a66.18,66.18,0,0,0,1.3-14.64C70.42,54.68,67.45,51.52,66.68,50.06Z"/><path class="cls-2" d="M73.81,58.28a66.18,66.18,0,0,1-1.3,14.64c6.62,2.16,12.71,3.81,13.71,1.87C87.36,72.6,79.89,64.72,73.81,58.28Z"/><circle class="cls-2" cx="18.8" cy="15.73" r="1.46"/><path class="cls-6" d="M25.64,29.54q-1.17,3.06-2.36,6.12"/><path class="cls-8" d="M22.52,35.17c.62,1.24,6.68,1.06,9-2.85.89-1.5,1.47-4,.56-4.65C30.11,26.34,21.65,33.44,22.52,35.17Z"/></svg>