<svg id="Layer_1" data-name="Layer 1" xmlns="http://www.w3.org/2000/svg" viewBox="0 0 100 100"><defs><style>.cls-1{fill:#d7a936;}.cls-2{fill:#ca8031;}.cls-3{fill:#ffc63f;}.cls-4{fill:#f79b3d;}.cls-5{fill:#6ab8d9;}.cls-6{fill:#fff;}.cls-7{fill:#3e3e3f;}</style></defs><title>seaplane</title><rect class="cls-1" x="31.11" y="48.78" width="3.59" height="15.15" rx="0.86" ry="0.86"/><path class="cls-2" d="M87.2,61.42A12.12,12.12,0,0,1,75.11,73.51h-54A12.12,12.12,0,0,1,9.06,61.42Z"/><rect class="cls-1" x="41.93" y="50.73" width="3.59" height="16.34" rx="0.86" ry="0.86"/><path class="cls-3" d="M100,39.17h0V26.61H96.78l-4.61,5H75.25l-42-3.76A12.87,12.87,0,0,0,20.37,40.67H13.13a3.1,3.1,0,0,0-3.08,3.09v6.67a3.09,3.09,0,0,0,3.08,3.08H79.54a4.79,4.79,0,0,0,4.78-4.78,4.92,4.92,0,0,0-.12-1H92a8.07,8.07,0,0,0,8-8.05C100,39.49,100,39.33,100,39.17Z"/><path class="cls-4" d="M98,64.79A12.12,12.12,0,0,1,85.93,76.88H32A12.12,12.12,0,0,1,19.88,64.79Z"/><path class="cls-5" d="M39.87,37.32A3.37,3.37,0,0,0,36.52,34H22.3a12.76,12.76,0,0,0-1.93,6.71H36.52A3.36,3.36,0,0,0,39.87,37.32Z"/><circle class="cls-5" cx="47.33" cy="37.32" r="3.35"/><rect class="cls-3" x="77.99" y="42.11" width="6.33" height="6.62"/><polygon class="cls-6" points="100 23.12 96.78 26.61 100 26.61 100 23.12"/><polygon class="cls-3" points="44.87 51.62 76.65 65.6 86 68 88.57 65.6 79.33 51.62 59.84 48.85 44.87 51.62"/><polygon class="cls-6" points="86.55 65.6 80.83 65.6 88.89 69.15 86.55 65.6"/><path class="cls-6" d="M88.57,65.6H76.65l11.57,5.09a1.63,1.63,0,0,0,.67.15,1.69,1.69,0,0,0,1.41-2.62Z"/><path class="cls-6" d="M76.84,47.85a1.69,1.69,0,0,0-1.41-.76H42.58a1.69,1.69,0,0,0-.68,3.23l3,1.3H79.33Z"/><path class="cls-7" d="M3.94,34.11c.9.9,8.44,9.9,7.54,10.8S1.58,38.27.68,37.37a2.29,2.29,0,0,1,0-3.26A2.31,2.31,0,0,1,3.94,34.11Z"/><path class="cls-7" d="M20,56.73c-.9-.9-8.44-9.91-7.54-10.81s9.9,6.65,10.8,7.55A2.31,2.31,0,0,1,20,56.73Z"/><path class="cls-7" d="M23.29,37.37c-.9.9-9.9,8.45-10.8,7.54S19.13,35,20,34.11a2.31,2.31,0,1,1,3.26,3.26Z"/><path class="cls-7" d="M.68,53.47c.9-.9,9.9-8.45,10.8-7.55S4.84,55.83,3.94,56.73a2.31,2.31,0,0,1-3.26,0A2.29,2.29,0,0,1,.68,53.47Z"/><circle class="cls-7" cx="12.06" cy="45.49" r="2.4"/></svg>