<svg id="Layer_1" data-name="Layer 1" xmlns="http://www.w3.org/2000/svg" viewBox="0 0 100 100"><defs><style>.cls-1{fill:#6ab8d9;}.cls-2{fill:#5a9eba;}.cls-3{fill:#231f20;}</style></defs><title>narwhal</title><path class="cls-1" d="M99.79,46.14A15.72,15.72,0,0,0,96.35,39a31.72,31.72,0,0,0-7.16-6.19,87.53,87.53,0,0,0-12.37-6.56c-4-1.78-7.95-3.33-11.92-4.77q-3-1.08-6-2.07c-2.05-.67-3.91-1.29-6.24-1.92l-1.49-.41a18,18,0,0,0-20.61,9.25h0a1.81,1.81,0,0,0-2,1.23,1.39,1.39,0,0,0-1.22-1.72,1.74,1.74,0,0,0-2,1.06,1.33,1.33,0,0,0-1.26-1.56,1.67,1.67,0,0,0-1.91.9c.16-.64-.42-1.27-1.31-1.39s-1.73.2-1.87.73c.15-.55-.46-1.1-1.35-1.23s-1.71.13-1.82.57c.12-.46-.51-.94-1.4-1.06s-1.69.05-1.78.4c.1-.36-.55-.77-1.44-.9s-1.67,0-1.73.25c.07-.28-.6-.62-1.48-.74s-1.65-.1-1.7.08c.05-.19-.64-.45-1.52-.58a4.61,4.61,0,0,0-1.65-.08,3.52,3.52,0,0,0-1.57-.41L0,21.66l1.52.57a3.5,3.5,0,0,0,1.57.41,4.35,4.35,0,0,0,1.48.74c.84.33,1.56.44,1.61.25,0,.17.6.58,1.44.9s1.58.36,1.65.08c-.07.27.56.75,1.39,1.07s1.6.29,1.7-.08c-.09.35.51.91,1.35,1.23s1.62.21,1.74-.25c-.12.45.47,1.08,1.31,1.4s1.63.14,1.78-.41c-.14.53.43,1.23,1.26,1.56s1.66.07,1.83-.57c-.17.62.38,1.39,1.22,1.72a1.34,1.34,0,0,0,1.87-.74,1.73,1.73,0,0,0,1.18,1.89,1.39,1.39,0,0,0,1.91-.9,1.78,1.78,0,0,0,1,2,17.77,17.77,0,0,0,0,4.31A18,18,0,0,0,48.92,52.27c1.5-.19,3.47-.3,5.23-.41,1.12-.06,2.23-.1,3.35-.14v6a1.87,1.87,0,0,0,1.86,1.86h3.93a1.87,1.87,0,0,0,1.86-1.86V51.56c1.73,0,3.45,0,5.14.11,2.84.11,5.65.34,8,.67a86,86,0,0,1-9.09,6.06C65.15,60.79,60.9,63,56.58,65.19a12,12,0,0,0-13.86-5c-6.34,2,3.24,4.62,5.29,11s-4.22,14,2.12,12A12.06,12.06,0,0,0,58,68.36c4.69-.44,9.39-1,14.14-1.73A95.73,95.73,0,0,0,84.29,64a40.82,40.82,0,0,0,6.47-2.49l1.74-1c.6-.4,1.2-.77,1.82-1.25A15.48,15.48,0,0,0,98.21,55a18.39,18.39,0,0,0,.88-1.78,16.41,16.41,0,0,0,.65-2.16A13.17,13.17,0,0,0,99.79,46.14Z"/><path class="cls-2" d="M42.17,22.82a6.31,6.31,0,0,0,5-2.47,6.28,6.28,0,0,0,10,1.52,6.3,6.3,0,0,0,10.6,3.35c0,.05,0,.08,0,.13a6.31,6.31,0,0,0,6.32,6.32,6.23,6.23,0,0,0,3-.78,6.25,6.25,0,0,0,9.18,4.54,6.27,6.27,0,0,0,10.29,3.83c-.06-.07-.12-.16-.17-.23a31.72,31.72,0,0,0-7.16-6.19,87.53,87.53,0,0,0-12.37-6.56c-4-1.78-7.95-3.33-11.92-4.77q-3-1.08-6-2.07c-2.05-.67-3.91-1.29-6.24-1.92l-1.49-.41a18,18,0,0,0-6.93-.44,17.77,17.77,0,0,0-7.6,2.87A6.29,6.29,0,0,0,42.17,22.82Z"/><circle class="cls-3" cx="40.52" cy="29.92" r="2.04"/><rect class="cls-2" x="27.76" y="34.94" width="14.81" height="3.34" rx="0.81" ry="0.81"/></svg>