<svg id="Layer_1" data-name="Layer 1" xmlns="http://www.w3.org/2000/svg" viewBox="0 0 100 100"><defs><style>.cls-1{fill:#00968d;}.cls-2{fill:#00a69c;}.cls-3{fill:#fff;}.cls-4{fill:#f37d3b;}</style></defs><title>piranha</title><line class="cls-1" x1="75.57" y1="42.94" x2="75.57" y2="43.49"/><line class="cls-1" x1="75.57" y1="27.78" x2="75.57" y2="28.32"/><line class="cls-1" x1="75.57" y1="35.36" x2="75.57" y2="35.9"/><path class="cls-1" d="M69,17.21,51.33,32.58a4,4,0,0,0,0,6L69,53.93a4,4,0,0,0,6.57-3v-.41a3.59,3.59,0,0,1,0-7v-.55a3.59,3.59,0,0,1,0-7v-.54a3.59,3.59,0,0,1,0-7v-.54a3.78,3.78,0,0,1-2.89-3.52,3.78,3.78,0,0,1,2.89-3.53V20.2A4,4,0,0,0,69,17.21Z"/><line class="cls-1" x1="100" y1="60.66" x2="100" y2="61.2"/><line class="cls-1" x1="100" y1="45.49" x2="100" y2="46.04"/><line class="cls-1" x1="100" y1="53.08" x2="100" y2="53.62"/><path class="cls-1" d="M93.43,34.92,75.76,50.29a4,4,0,0,0,0,6L93.43,71.65a4,4,0,0,0,6.57-3v-.41a3.59,3.59,0,0,1,0-7v-.54a3.59,3.59,0,0,1,0-7v-.54a3.59,3.59,0,0,1,0-7v-.55a3.59,3.59,0,0,1,0-7v-.54A4,4,0,0,0,93.43,34.92Z"/><ellipse class="cls-2" cx="47.88" cy="53.29" rx="37.4" ry="30.49"/><polygon class="cls-3" points="4.27 49.78 10.48 49.78 7.37 40.96 4.27 49.78"/><polygon class="cls-3" points="14.14 49.78 20.36 49.78 17.25 40.96 14.14 49.78"/><polygon class="cls-3" points="24.02 49.78 30.23 49.78 27.13 40.96 24.02 49.78"/><path class="cls-2" d="M55.26,77.5,42.8,51.5a4.14,4.14,0,0,0-3.74-2.35H4.14A4.13,4.13,0,0,0,0,53.77C.17,55,4,83.43,50.74,83.43h.82a4.14,4.14,0,0,0,3.7-5.93Z"/><path class="cls-4" d="M55.26,77.5a4.14,4.14,0,0,1-3.7,5.93h-.82a94.93,94.93,0,0,1-13.37-.9,45,45,0,0,0,10.51,1.25c16.07,0,29.73-8.28,35-19.88-7.81,4.16-18.47,7-30.45,7.72Z"/><path class="cls-4" d="M13.91,66A38.85,38.85,0,0,1,1,57.76c2.41,7,10.44,21.11,36.35,24.77C26.92,80,18.39,73.93,13.91,66Z"/><path class="cls-4" d="M51.56,83.43a4.14,4.14,0,0,0,3.7-5.93l-2.81-5.88q-3.08.19-6.25.2c-12.31,0-23.57-2.2-32.29-5.84,4.48,8,13,14.06,23.46,16.55a94.93,94.93,0,0,0,13.37.9Z"/><circle class="cls-1" cx="37.24" cy="62.35" r="1.55"/><circle class="cls-1" cx="46.41" cy="55.17" r="1.55"/><circle class="cls-1" cx="67.71" cy="63.29" r="1.55"/><circle class="cls-1" cx="79.66" cy="44.79" r="1.55"/><circle class="cls-1" cx="29.51" cy="31.44" r="1.55"/><circle class="cls-1" cx="42.57" cy="45.76" r="4.24"/><circle class="cls-4" cx="42.57" cy="44.79" r="2.29"/></svg>