<svg id="Layer_1" data-name="Layer 1" xmlns="http://www.w3.org/2000/svg" xmlns:xlink="http://www.w3.org/1999/xlink" viewBox="0 0 100 100"><defs><style>.cls-1{fill:none;}.cls-2{clip-path:url(#clip-path);}.cls-3{fill:#58595b;}.cls-4{fill:#457f95;}.cls-5{fill:#ffc640;}.cls-6{fill:#0d2542;}.cls-7{fill:#fff;}.cls-8{fill:#f05c38;}.cls-9{fill:#6ab8d9;}</style><clipPath id="clip-path"><path class="cls-1" d="M85.71-120H14.29A14.33,14.33,0,0,0,0-105.71v71.42A14.33,14.33,0,0,0,14.29-20H85.71A14.33,14.33,0,0,0,100-34.29v-71.42A14.33,14.33,0,0,0,85.71-120Z"/></clipPath></defs><title>titanic</title><g class="cls-2"><path class="cls-3" d="M-203,15.57c184-94.05,341-155.93,357.11-141.2l119.17-60.92c-67.42,1.13-262.4,76.19-483,189-51.17,26.15-99.73,52.35-144.88,77.88H-324C-286.79,59.43-246.13,37.6-203,15.57Z"/><path class="cls-3" d="M297.7-179.09c-2.8-5.48-11.54-7.68-24.44-7.46L154.09-125.63c.38.34,1.09.51,1.31.95,9.5,18.58-132,109.91-317,205H-59.93C158.5-38.07,313.16-148.85,297.7-179.09Z"/></g><path class="cls-4" d="M87.57,52.88a12.29,12.29,0,0,1-12-10.26h-.87a12.17,12.17,0,0,1-24.05.07h-.87a12.16,12.16,0,0,1-24,.07h-.87a12.29,12.29,0,0,1-12,10.34,12.29,12.29,0,0,1-12-10.27H.33c0,2.09-.52,5.4-.26,7.42C3.18,74.86,24.88,92.6,50.31,92.52,76.11,92.45,97.25,75.09,99.74,50c.16-1.68.26-5.69.26-7.42h-.44A12.28,12.28,0,0,1,87.57,52.88Z"/><rect class="cls-5" x="50.08" y="12.77" width="12" height="19.13" transform="translate(31.56 -32.82) rotate(44.32)"/><rect class="cls-6" x="54.82" y="14.7" width="12" height="5.55" transform="translate(29.51 -37.52) rotate(44.32)"/><rect class="cls-5" x="71.45" y="32.1" width="12" height="19.13" transform="translate(51.14 -42.26) rotate(44.32)"/><rect class="cls-6" x="76.19" y="34.03" width="12" height="5.55" transform="translate(49.1 -46.95) rotate(44.32)"/><path class="cls-6" d="M75,70.81,9.88,5.73l.1.46a23.14,23.14,0,0,1-5.36,20.6c-.11.13-.2.22-.26.28L2.78,28.64a5.6,5.6,0,0,0,0,7.91l48.8,48.8,6.65-6.65Z"/><path class="cls-7" d="M-4,33.56H93.12a0,0,0,0,1,0,0v5a0,0,0,0,1,0,0H-4a1.75,1.75,0,0,1-1.75-1.75V35.31A1.75,1.75,0,0,1-4,33.56Z" transform="translate(38.28 -20.34) rotate(45)"/><path class="cls-8" d="M4.66,26.72c-.1.12-.19.24-.3.35L2.78,28.64a5.6,5.6,0,0,0,0,7.91l48.8,48.8,5.86-5.86Z"/><path class="cls-7" d="M21.09,34.54H95a0,0,0,0,1,0,0V44.1a0,0,0,0,1,0,0H19.46a0,0,0,0,1,0,0V36.16a1.62,1.62,0,0,1,1.62-1.62Z" transform="translate(44.57 -28.95) rotate(45)"/><rect class="cls-6" x="32.1" y="14.16" width="3.76" height="3.76" transform="translate(21.3 -19.33) rotate(45)"/><rect class="cls-6" x="37.5" y="19.56" width="3.76" height="3.76" transform="translate(26.69 -21.57) rotate(45)"/><rect class="cls-6" x="42.89" y="24.95" width="3.76" height="3.76" transform="translate(32.09 -23.8) rotate(45)"/><rect class="cls-6" x="48.29" y="30.35" width="3.76" height="3.76" transform="translate(37.48 -26.03) rotate(45)"/><rect class="cls-6" x="53.68" y="35.74" width="3.76" height="3.76" transform="translate(42.88 -28.27) rotate(45)"/><rect class="cls-6" x="59.08" y="41.14" width="3.76" height="3.76" transform="translate(48.27 -30.5) rotate(45)"/><rect class="cls-6" x="64.47" y="46.53" width="3.76" height="3.76" transform="translate(53.67 -32.74) rotate(45)"/><rect class="cls-6" x="69.87" y="51.93" width="3.76" height="3.76" transform="translate(59.06 -34.97) rotate(45)"/><path class="cls-9" d="M87.31,60.3A12.3,12.3,0,0,1,75.25,50h-.87a12.16,12.16,0,0,1-24,.07h-.87a12.17,12.17,0,0,1-24,.07h-.87a12.29,12.29,0,0,1-12,10.34,12.28,12.28,0,0,1-12-10.27H.07A49.84,49.84,0,1,0,99.74,50H99.3A12.29,12.29,0,0,1,87.31,60.3Z"/></svg>