<svg id="Layer_1" data-name="Layer 1" xmlns="http://www.w3.org/2000/svg" viewBox="0 0 100 100"><defs><style>.cls-1{fill:#caa37d;}.cls-2{fill:#3e3e3f;}.cls-3{fill:#fcca98;}.cls-4{fill:#efc091;}.cls-5{fill:#ffc640;}</style></defs><title>mummy</title><rect class="cls-1" x="55.64" y="80.51" width="16.03" height="6.05" transform="translate(54.38 -21.08) rotate(32.24)"/><rect class="cls-2" x="36.75" y="2.24" width="26.9" height="37.98" rx="6.28" ry="6.28"/><rect class="cls-2" x="31.47" y="26.97" width="37.47" height="54.71" rx="8.75" ry="8.75"/><rect class="cls-2" x="38.49" y="58.69" width="23.43" height="40.25" rx="5.47" ry="5.47"/><rect class="cls-3" x="34.47" y="17.17" width="31.04" height="7.16" transform="translate(3.82 -7.5) rotate(8.92)"/><rect class="cls-3" x="34.47" y="24.73" width="31.04" height="7.16" transform="translate(4.99 -7.4) rotate(8.92)"/><rect class="cls-3" x="36.09" y="7.05" width="28.97" height="7.16" transform="translate(-0.79 4.92) rotate(-5.53)"/><rect class="cls-3" x="32.02" y="32.48" width="35.93" height="7.46" transform="translate(-2.25 3.34) rotate(-3.74)"/><rect class="cls-4" x="28.2" y="41.43" width="42.03" height="8.93" transform="translate(-2.89 3.31) rotate(-3.74)"/><rect class="cls-3" x="30.44" y="37.93" width="40.33" height="5.62" transform="translate(1.89 -2.25) rotate(2.59)"/><rect class="cls-3" x="30.44" y="49.89" width="40.33" height="5.62" transform="translate(2.43 -2.23) rotate(2.59)"/><rect class="cls-4" x="28.2" y="54.55" width="42.03" height="8.93" transform="translate(-3.74 3.33) rotate(-3.74)"/><rect class="cls-3" x="30.44" y="63" width="40.33" height="5.62" transform="translate(3.03 -2.22) rotate(2.59)"/><rect class="cls-3" x="30.48" y="66.68" width="40.33" height="7.67" transform="translate(-2.61 1.95) rotate(-2.15)"/><rect class="cls-3" x="35.4" y="72.93" width="30.4" height="7.07" transform="translate(-2.83 1.95) rotate(-2.15)"/><rect class="cls-4" x="37.17" y="78.05" width="26.03" height="6.05" transform="translate(3.72 -2.19) rotate(2.59)"/><rect class="cls-3" x="37.17" y="83" width="26.03" height="6.05" transform="translate(3.94 -2.18) rotate(2.59)"/><rect class="cls-3" x="36.49" y="87.35" width="26.03" height="6.05" transform="matrix(1, -0.07, 0.07, 1, -5.78, 3.42)"/><rect class="cls-3" x="40.41" y="91.94" width="20.48" height="4.76" transform="translate(4.32 -2.19) rotate(2.59)"/><rect class="cls-4" x="42.33" y="95.34" width="16.55" height="4.29" transform="translate(4.46 -2.19) rotate(2.59)"/><rect class="cls-4" x="36.09" y="20.89" width="28.97" height="7.16" transform="translate(-2.12 4.98) rotate(-5.53)"/><rect class="cls-3" x="41.5" y="0.75" width="15.83" height="4.69" transform="translate(-0.07 4.77) rotate(-5.53)"/><circle class="cls-5" cx="59.44" cy="16.36" r="1.2"/><rect class="cls-4" x="39.15" y="3.85" width="21.99" height="4.69" transform="translate(-0.36 4.86) rotate(-5.53)"/></svg>