<svg id="Layer_1" data-name="Layer 1" xmlns="http://www.w3.org/2000/svg" viewBox="0 0 100 100"><defs><style>.cls-1{fill:#09a582;}.cls-2{fill:#007f63;}.cls-3{fill:#00634d;}.cls-4{fill:#ffc640;}.cls-5{fill:#c7d6de;}</style></defs><title>money</title><rect class="cls-1" x="40.26" y="23.26" width="35.94" height="67.27" transform="translate(31.93 -20.15) rotate(26.81)"/><rect class="cls-2" x="55.13" y="24.46" width="4.39" height="9.41" rx="1.01" ry="1.01" transform="translate(19.32 -22.72) rotate(26.81)"/><rect class="cls-2" x="56.04" y="82.06" width="4.39" height="9.41" rx="1.01" ry="1.01" transform="translate(45.4 -16.94) rotate(26.81)"/><rect class="cls-2" x="40.77" y="47.87" width="35.94" height="16.05" transform="translate(31.53 -20.49) rotate(26.81)"/><circle class="cls-1" cx="58.63" cy="55.91" r="5.82"/><path class="cls-2" d="M81.09,36.38a7,7,0,1,0-6.33,12.53L80.85,52l6.33-12.53Z"/><circle class="cls-2" cx="68.62" cy="37.64" r="5.13"/><rect class="cls-3" x="34.04" y="14.32" width="35.94" height="67.27" transform="translate(49.14 -22.73) rotate(45)"/><rect class="cls-3" x="57.62" y="16.62" width="4.39" height="9.41" rx="1.01" ry="1.01" transform="translate(32.6 -36.05) rotate(45)"/><rect class="cls-3" x="40.5" y="71.62" width="4.39" height="9.41" rx="1.01" ry="1.01" transform="translate(66.48 -7.84) rotate(45)"/><rect class="cls-3" x="34.84" y="39.13" width="35.94" height="16.05" transform="translate(48.81 -23.53) rotate(45)"/><circle class="cls-3" cx="52.7" cy="47.14" r="5.82"/><path class="cls-3" d="M80.14,35.6a7,7,0,1,0-9.93,9.93L75,50.35,85,40.42Z"/><circle class="cls-3" cx="67.9" cy="32.9" r="5.13"/><rect class="cls-1" x="33.36" y="11.1" width="35.94" height="67.27" transform="translate(46.67 -23.19) rotate(45)"/><rect class="cls-2" x="56.93" y="13.4" width="4.39" height="9.41" rx="1.01" ry="1.01" transform="translate(30.12 -36.5) rotate(45)"/><rect class="cls-2" x="39.82" y="68.41" width="4.39" height="9.41" rx="1.01" ry="1.01" transform="translate(64 -8.29) rotate(45)"/><rect class="cls-2" x="34.16" y="35.91" width="35.94" height="16.05" transform="translate(46.34 -23.99) rotate(45)"/><circle class="cls-1" cx="52.01" cy="43.92" r="5.82"/><path class="cls-2" d="M79.45,32.38a7,7,0,0,0-9.92,9.93l4.82,4.82,9.93-9.92Z"/><circle class="cls-2" cx="67.22" cy="29.68" r="5.13"/><rect class="cls-3" x="20.03" y="5.62" width="35.94" height="67.27" transform="translate(58.97 -11.2) rotate(66.63)"/><rect class="cls-3" x="52.88" y="12.67" width="4.39" height="9.41" rx="1.01" ry="1.01" transform="translate(49.17 -40.07) rotate(66.63)"/><rect class="cls-3" x="16.69" y="57.5" width="4.39" height="9.41" rx="1.01" ry="1.01" transform="translate(68.49 20.19) rotate(66.63)"/><rect class="cls-3" x="21.07" y="30.79" width="35.94" height="16.05" transform="translate(59.18 -12.42) rotate(66.63)"/><circle class="cls-3" cx="38.94" cy="38.75" r="5.82"/><path class="cls-3" d="M68.7,38.14a7,7,0,0,0-12.89,5.57L58.52,50,71.41,44.4Z"/><circle class="cls-3" cx="58.32" cy="31.12" r="5.13"/><rect class="cls-1" x="22.5" y="1.18" width="35.94" height="67.27" transform="translate(56.38 -16.15) rotate(66.63)"/><rect class="cls-2" x="55.34" y="8.23" width="4.39" height="9.41" rx="1.01" ry="1.01" transform="translate(46.59 -45.01) rotate(66.63)"/><rect class="cls-2" x="19.16" y="53.06" width="4.39" height="9.41" rx="1.01" ry="1.01" transform="translate(65.91 15.25) rotate(66.63)"/><rect class="cls-2" x="23.54" y="26.35" width="35.94" height="16.05" transform="translate(56.59 -17.37) rotate(66.63)"/><circle class="cls-1" cx="41.41" cy="34.31" r="5.82"/><path class="cls-2" d="M71.17,33.7a7,7,0,0,0-12.89,5.57L61,45.53,73.88,40Z"/><circle class="cls-2" cx="60.79" cy="26.68" r="5.13"/><circle class="cls-4" cx="77.99" cy="82.05" r="6.58"/><circle class="cls-5" cx="80.95" cy="67.12" r="5.04"/><circle class="cls-5" cx="94.96" cy="86.77" r="5.04"/></svg>