<svg id="Layer_1" data-name="Layer 1" xmlns="http://www.w3.org/2000/svg" viewBox="0 0 100 100"><defs><style>.cls-1{fill:#e18e38;}.cls-2{fill:#f89c3e;}.cls-3{fill:#ffc640;}</style></defs><title>bullet</title><path class="cls-1" d="M26.7,99.73c-1.46,1.47-8.55-3.25-15.83-10.53S-1.14,74.82.33,73.36s31-19.18,38.27-11.9S28.17,98.27,26.7,99.73Z"/><path class="cls-2" d="M31.84,94.48C30.38,95.94,23.28,91.22,16,83.94S4,69.56,5.46,68.1s31-19.18,38.27-11.89S33.3,93,31.84,94.48Z"/><rect class="cls-2" x="27.04" y="15.74" width="37.3" height="77.01" transform="translate(51.74 -16.42) rotate(45)"/><path class="cls-3" d="M86.29,40c-1.46,1.46-8.55-3.26-15.83-10.54s-12-14.37-10.54-15.84,31-19.17,38.27-11.89S87.76,38.56,86.29,40Z"/><rect class="cls-3" x="46.12" y="25.13" width="5.35" height="18.02" rx="0.96" ry="0.96" transform="translate(38.43 -24.5) rotate(45)"/><rect class="cls-3" x="36.22" y="41.1" width="5.35" height="5.87" rx="0.96" ry="0.96" transform="translate(42.53 -14.61) rotate(45)"/></svg>