<svg id="Layer_1" data-name="Layer 1" xmlns="http://www.w3.org/2000/svg" viewBox="0 0 100 100"><defs><style>.cls-1{fill:#e0e0e0;}.cls-2{fill:#d0d2d3;}.cls-3{fill:#447d93;}.cls-4{fill:#3e3e3f;}.cls-5{fill:#b9bbbd;}</style></defs><title>flying fish</title><line class="cls-1" x1="100" y1="51.34" x2="100" y2="51.81"/><line class="cls-1" x1="100" y1="38.29" x2="100" y2="38.76"/><line class="cls-1" x1="100" y1="44.82" x2="100" y2="45.28"/><path class="cls-1" d="M94.35,29.2,79.14,42.42a3.42,3.42,0,0,0,0,5.15L94.35,60.8A3.41,3.41,0,0,0,100,58.22v-.35a3.09,3.09,0,0,1,0-6.06v-.47a3.09,3.09,0,0,1,0-6.06v-.46a3.09,3.09,0,0,1,0-6.06v-.47a3.09,3.09,0,0,1,0-6.06v-.46A3.41,3.41,0,0,0,94.35,29.2Z"/><line class="cls-1" x1="73.79" y1="41.48" x2="73.79" y2="41.9"/><line class="cls-1" x1="73.79" y1="29.54" x2="73.79" y2="29.96"/><line class="cls-1" x1="73.79" y1="35.51" x2="73.79" y2="35.93"/><path class="cls-1" d="M68.62,21.21,54.71,33.32a3.12,3.12,0,0,0,0,4.71l13.91,12.1a3.12,3.12,0,0,0,5.17-2.36v-.32a2.83,2.83,0,0,1,0-5.55v-.42a2.83,2.83,0,0,1,0-5.55v-.42a2.83,2.83,0,0,1,0-5.55v-.42a2.83,2.83,0,0,1,0-5.55v-.42A3.12,3.12,0,0,0,68.62,21.21Z"/><path class="cls-1" d="M31.47,51.55V21c11.57,0,21,30.52,21,30.52Z"/><rect class="cls-1" x="32.85" y="23.72" width="0.95" height="27.27" rx="0.23" ry="0.23"/><rect class="cls-1" x="34.83" y="23.72" width="0.95" height="27.27" rx="0.23" ry="0.23"/><rect class="cls-1" x="36.81" y="25.01" width="0.95" height="25.98" rx="0.23" ry="0.23"/><rect class="cls-1" x="38.79" y="27.18" width="0.95" height="23.81" rx="0.22" ry="0.22"/><rect class="cls-1" x="40.77" y="29.59" width="0.95" height="21.4" rx="0.21" ry="0.21"/><rect class="cls-1" x="42.75" y="32.21" width="0.95" height="18.78" rx="0.19" ry="0.19"/><rect class="cls-1" x="44.73" y="35.67" width="0.95" height="15.32" rx="0.17" ry="0.17"/><rect class="cls-1" x="46.71" y="40.1" width="0.95" height="10.89" rx="0.15" ry="0.15"/><rect class="cls-1" x="48.69" y="45.17" width="0.95" height="5.82" rx="0.11" ry="0.11"/><path class="cls-2" d="M92.21,43.93c0,19-7.47,5.8-16.61,8.08-9.72,2.43-21.45,5.42-32.78,5.42-22,0-47.49-11.7-39.79-15.77,15.9-8.39,17.81-10.34,39.79-10.34,11.33,0,22.71,3.13,32.43,5.33C84.39,38.71,92.19,27.66,92.21,43.93Z"/><path class="cls-3" d="M92,39.82c-1.37-10-8.5-1.32-16.72-3.17-9.72-2.2-21.1-5.33-32.43-5.33-22,0-23.89,2-39.79,10.34A2.48,2.48,0,0,0,1.7,43c13-6.85,27.57-6.93,40.41-8.77C59.27,34.25,76.43,42.86,92,39.82Z"/><circle class="cls-4" cx="15.29" cy="42.17" r="1.22"/><rect class="cls-5" x="22.8" y="36.57" width="2.91" height="16.79" rx="0.71" ry="0.71"/><polygon class="cls-5" points="33.35 42.06 34.59 42.06 36.25 39.17 34.59 36.29 33.35 36.29 35.02 39.17 33.35 42.06"/><polygon class="cls-5" points="37.97 42.06 39.63 44.95 37.97 47.83 39.2 47.83 40.86 44.95 39.2 42.06 38.58 42.06 37.97 42.06"/><polygon class="cls-5" points="41.91 42.06 43.15 42.06 44.81 39.17 43.15 36.29 41.91 36.29 43.58 39.17 41.91 42.06"/><polygon class="cls-5" points="49.42 44.95 47.76 42.06 46.53 42.06 48.19 44.95 46.53 47.83 47.76 47.83 49.42 44.95"/><polygon class="cls-5" points="52.16 42.06 53.39 42.06 55.05 39.17 53.39 36.29 52.16 36.29 53.82 39.17 52.16 42.06"/><polygon class="cls-5" points="58.03 42.06 56.8 42.06 58.46 44.95 56.8 47.83 58.03 47.83 59.7 44.95 58.03 42.06"/><polygon class="cls-5" points="52.19 48.48 53.85 51.37 52.19 54.26 53.42 54.26 55.08 51.37 53.42 48.48 52.19 48.48"/><path class="cls-1" d="M31.47,49V79.56c11.57,0,21-30.52,21-30.52Z"/><rect class="cls-1" x="32.85" y="49.59" width="0.95" height="27.27" rx="0.23" ry="0.23"/><rect class="cls-1" x="34.83" y="49.59" width="0.95" height="27.27" rx="0.23" ry="0.23"/><rect class="cls-1" x="36.81" y="49.59" width="0.95" height="25.98" rx="0.23" ry="0.23"/><rect class="cls-1" x="38.79" y="49.59" width="0.95" height="23.81" rx="0.22" ry="0.22"/><rect class="cls-1" x="40.77" y="49.59" width="0.95" height="21.4" rx="0.21" ry="0.21"/><rect class="cls-1" x="42.75" y="49.59" width="0.95" height="18.78" rx="0.19" ry="0.19"/><rect class="cls-1" x="44.73" y="49.59" width="0.95" height="15.32" rx="0.17" ry="0.17"/><rect class="cls-1" x="46.71" y="49.59" width="0.95" height="10.89" rx="0.15" ry="0.15"/><rect class="cls-1" x="48.69" y="49.59" width="0.95" height="5.82" rx="0.11" ry="0.11"/></svg>