<svg id="Layer_1" data-name="Layer 1" xmlns="http://www.w3.org/2000/svg" viewBox="0 0 100 100"><defs><style>.cls-1{fill:#008569;}.cls-2{fill:#3e3e3f;}.cls-3{fill:#007359;}.cls-4{fill:#005d48;}.cls-5{fill:#004f3b;}</style></defs><title>tank</title><rect class="cls-1" x="42.91" y="37.02" width="57.24" height="7.77" rx="1.85" ry="1.85" transform="translate(-10.44 32.52) rotate(-23.92)"/><rect class="cls-1" x="93.51" y="23.87" width="4.84" height="11.98" rx="1.15" ry="1.15" transform="translate(-3.87 41.46) rotate(-23.92)"/><circle class="cls-2" cx="37.83" cy="28.55" r="2.25"/><rect class="cls-3" x="37.81" y="23.34" width="18" height="6.36" rx="1.51" ry="1.51"/><rect class="cls-1" x="33.31" y="26.66" width="26.66" height="19.95" rx="4.73" ry="4.73"/><rect class="cls-3" x="13.75" y="35.68" width="65.05" height="32.52" rx="7.72" ry="7.72"/><rect class="cls-2" x="-0.2" y="50.42" width="93.75" height="26.24" rx="6.23" ry="6.23"/><rect class="cls-4" x="5.26" y="54.82" width="82.26" height="17.44" rx="4.14" ry="4.14"/><circle class="cls-5" cx="15.83" cy="62.61" r="4.11"/><circle class="cls-5" cx="35.45" cy="62.61" r="4.11"/><circle class="cls-5" cx="55.07" cy="62.61" r="4.11"/><circle class="cls-5" cx="74.69" cy="62.61" r="4.11"/></svg>