<svg id="Layer_1" data-name="Layer 1" xmlns="http://www.w3.org/2000/svg" viewBox="0 0 100 100"><defs><style>.cls-1{fill:#3e3e3f;}.cls-2{fill:#ffc640;}.cls-3{fill:#555658;}.cls-4{fill:#6ab8d9;}.cls-5{fill:#b95f2b;}.cls-6{fill:#aed2c4;}.cls-7{fill:#09a582;}.cls-8{fill:#059072;}.cls-9{fill:#007f63;}.cls-10{fill:#7d7d7d;}</style></defs><title>solar system</title><path class="cls-1" d="M85.71,0H14.29A14.33,14.33,0,0,0,0,14.29V85.71A14.33,14.33,0,0,0,14.29,100H85.71A14.33,14.33,0,0,0,100,85.71V14.29A14.33,14.33,0,0,0,85.71,0Z"/><circle class="cls-2" cx="50.95" cy="48.82" r="12.49"/><path class="cls-2" d="M47.63,34.08A7.55,7.55,0,0,1,51,33.39a10.45,10.45,0,0,1,3.33.69L51,26.84Z"/><path class="cls-2" d="M54.28,63.05a7.48,7.48,0,0,1-3.33.7,10.23,10.23,0,0,1-3.32-.7L51,70.29Z"/><path class="cls-2" d="M65.44,45.24a7.57,7.57,0,0,1,.69,3.33,10.44,10.44,0,0,1-.69,3.32l7.24-3.32Z"/><path class="cls-2" d="M36.47,51.89a7.46,7.46,0,0,1-.7-3.32,10.33,10.33,0,0,1,.7-3.33l-7.24,3.33Z"/><path class="cls-2" d="M58.84,36a7.64,7.64,0,0,1,2.85,1.86,10.31,10.31,0,0,1,1.86,2.85l2.77-7.48Z"/><path class="cls-2" d="M43.07,61.16a7.64,7.64,0,0,1-2.85-1.86,10.31,10.31,0,0,1-1.86-2.85l-2.77,7.48Z"/><path class="cls-2" d="M63.55,56.45a7.64,7.64,0,0,1-1.86,2.85,10.31,10.31,0,0,1-2.85,1.86l7.48,2.77Z"/><path class="cls-2" d="M38.36,40.68a7.64,7.64,0,0,1,1.86-2.85A10.31,10.31,0,0,1,43.07,36L35.59,33.2Z"/><path class="cls-3" d="M50.93,78.17A29.26,29.26,0,1,1,80.19,48.91,29.29,29.29,0,0,1,50.93,78.17Zm0-57.52A28.27,28.27,0,1,0,79.19,48.91,28.3,28.3,0,0,0,50.93,20.65Z"/><path class="cls-3" d="M50.93,92.94A42.94,42.94,0,1,1,93.86,50,43,43,0,0,1,50.93,92.94Zm0-84.88A41.94,41.94,0,1,0,92.87,50,42,42,0,0,0,50.93,8.06Z"/><circle class="cls-4" cx="13.05" cy="30.93" r="4.57"/><circle class="cls-5" cx="69.06" cy="26.36" r="4.57"/><path class="cls-6" d="M81.52,77.46c-5.47,1.79-9.89,3.77-11,4.87l3-1c0-.51,3.61-2.08,8.17-3.57s8.38-2.35,8.7-2l3-1C91.73,74.65,87,75.67,81.52,77.46Z"/><path class="cls-7" d="M79.75,72.57a6.8,6.8,0,0,0-4.09,3.68l9.15-3.34A6.83,6.83,0,0,0,79.75,72.57Z"/><path class="cls-8" d="M84.81,72.91l-9.15,3.34a6.85,6.85,0,0,0-.55,3.65l12.42-4.62A6.9,6.9,0,0,0,84.81,72.91Z"/><path class="cls-9" d="M88.64,78.5a6.71,6.71,0,0,0-1.11-3.22L75.11,79.9a7.12,7.12,0,0,0,.28,1.26,7,7,0,0,0,.82,1.67Z"/><path class="cls-8" d="M88.64,78.5,76.21,82.83a6.88,6.88,0,0,0,2.48,2.23l9.47-3.47A6.75,6.75,0,0,0,88.64,78.5Z"/><path class="cls-7" d="M78.69,85.06a6.78,6.78,0,0,0,9.47-3.47Z"/><path class="cls-6" d="M93.82,75.13c0-.14-.24-.22-.54-.26l-3,1,0,0c.15.47-3.51,2.09-8.18,3.61s-8.58,2.39-8.73,1.93c0,0,0,0,0,0l-3,1c-.21.21-.32.39-.27.52.27.85,5.78-.2,12.29-2.33S94.09,76,93.82,75.13Z"/><polygon class="cls-10" points="90.72 76.41 89.93 76.66 89.63 77.17 89.93 77.67 90.51 77.67 90.81 77.17 90.72 76.41"/><polygon class="cls-1" points="89.7 74.67 90.15 75.76 90.91 76.11 91.58 75.63 91.51 74.8 90.76 74.45 89.7 74.67"/><polygon class="cls-10" points="93.83 76.35 94.03 76.85 94.38 77.01 94.69 76.79 94.66 76.41 94.31 76.25 93.83 76.35"/><polygon class="cls-10" points="74.63 81.12 74.83 81.62 75.18 81.78 75.49 81.56 75.46 81.18 75.11 81.02 74.63 81.12"/><polygon class="cls-1" points="86.07 79.21 86.98 79.63 87.65 79.42 87.81 78.73 87.28 78.25 86.61 78.47 86.07 79.21"/></svg>