<svg id="Layer_1" data-name="Layer 1" xmlns="http://www.w3.org/2000/svg" viewBox="0 0 100 100"><defs><style>.cls-1{fill:#714c48;}.cls-2{fill:#ffc640;}.cls-3{fill:#e4b23a;}</style></defs><title>banana</title><path class="cls-1" d="M8.62,78.71,6.34,83a50.65,50.65,0,0,0,5.55,5.41l4.75-2.7-2.25-5.25A51.29,51.29,0,0,1,8.62,78.71Z"/><path class="cls-2" d="M69.71,7.54a49.57,49.57,0,0,1,6.48,24.57A49.85,49.85,0,0,1,26.34,82a49.52,49.52,0,0,1-11.95-1.5l-2.5,8A49.85,49.85,0,1,0,69.71,7.54Z"/><circle class="cls-3" cx="82.32" cy="44.44" r="1.9"/><circle class="cls-3" cx="63.38" cy="70.93" r="1.9"/><circle class="cls-3" cx="46.05" cy="94.79" r="1.9"/><circle class="cls-3" cx="82.87" cy="69.03" r="4.7"/><polygon class="cls-1" points="75.21 16.62 63.38 6.06 78.17 0 77.32 15.63 75.21 16.62"/></svg>