<svg id="Layer_1" data-name="Layer 1" xmlns="http://www.w3.org/2000/svg" viewBox="0 0 100 100"><defs><style>.cls-1{fill:#ffc63f;}.cls-2{fill:#fcb93f;}.cls-3{fill:#f9a83e;}</style></defs><title>sandstone</title><path class="cls-1" d="M79.49,30.47l-.07-.11-.06-.09C71.13,17,61,26.07,50,26.07s-21.13-9-29.38,4.3l0,.06-.1.16C8.14,50.65,9.45,72.6,9.45,76.89L5.89,80.24c0,3.57-.21,7.4,8.83,9.74,1.69.43,3.51.84,5.43,1.21,3.21.63,6.71,1.15,10.45,1.56l2.27.23c5.35.51,11.14.78,17.17.78h0c15.52,0,29.39-1.83,38.55-4.7A42,42,0,0,0,94,87c.53-.25,1-.51,1.47-.77,2.92-1.64,4.56-3.47,4.56-5.4h0C100,76.54,91.92,50.55,79.49,30.47Z"/><path class="cls-1" d="M97.36,37.88l-.63.6.63-.6L95.9,36.7l1.46,1.18L100,35.39v-2.7C100,18.23,88.06,4.59,73.71,6.4,62,7.87,39.32,15.21,27.58,16.48,13.2,18,.09,18.23.09,32.69L12,64.77c0-3.1-.06,26.83,14.4,26.83H73.71C88.17,91.6,100,75.36,100,81.2V40Z"/><path class="cls-2" d="M57.84,23.05S92,14.76,84.54,8A20.38,20.38,0,0,0,73.71,6.4C62,7.87,39.32,15.21,27.58,16.48c-8,.86-15.54,1.31-20.71,4C15.23,26,36.66,37.21,57.84,23.05Z"/><path class="cls-2" d="M99.06,25.72A28.52,28.52,0,0,0,96.88,20L4.45,44.44l1.8,4.87Z"/><polygon class="cls-2" points="99.4 39.54 97.36 37.88 96.73 38.48 97.36 37.88 96.77 37.4 10.54 60.86 11.79 64.23 99.4 39.54"/><path class="cls-2" d="M100,53.65V48.27l-86.42,28c.21.91.46,1.84.73,2.75Z"/><path class="cls-2" d="M17.69,86.47A12.88,12.88,0,0,0,21,89.93l79-23.88V60.9Z"/><path class="cls-3" d="M23.88,66.82c6.71-12.32,14.79-28.57,11.5-36.88L16.9,17.68C7.31,19.09.09,22,.09,32.69c0,0,3.1,17.24,2.45,32.86l1.93-.46,1-1.21-1,1.21.19,0-.19,0L2.4,67.57c-.07,1-.11,2-.21,3l5,1.88,2.76,0-2.76,0,.23.09-.23-.09L2,72.45A42.54,42.54,0,0,1,.09,80.83C-1.2,84.49,11.92,92.22,26.38,92.22l1.26.19C25.36,89.29,18.17,77.31,23.88,66.82Z"/></svg>