<svg id="Layer_1" data-name="Layer 1" xmlns="http://www.w3.org/2000/svg" viewBox="0 0 100 100"><defs><style>.cls-1{fill:#f05c38;}.cls-2{fill:#ffc63f;}.cls-3{fill:#6ab8d9;}.cls-4{fill:#3e3e3f;}.cls-5{fill:#ffc640;}.cls-6{fill:#fff;}</style></defs><title>parrot</title><path class="cls-1" d="M25.44,43.76c-4-.84-8.53,3.67-11.42,10.74C19.1,57.24,25.24,57.84,31.63,58,31.76,50.43,29.42,44.59,25.44,43.76Z"/><path class="cls-2" d="M30.8,65.33A39.81,39.81,0,0,0,31.63,58C25.24,57.84,19.1,57.24,14,54.5a39.72,39.72,0,0,0-2.1,6.89c-.28,1.32-.48,2.63-.62,3.9A42.85,42.85,0,0,0,29.2,71,41.49,41.49,0,0,0,30.8,65.33Z"/><path class="cls-3" d="M11.3,65.29c-1,9.16,1.4,16.72,6,17.67,4.26.89,9.07-4.21,11.93-12A42.85,42.85,0,0,1,11.3,65.29Z"/><circle class="cls-1" cx="15.58" cy="55.62" r="2.45"/><circle class="cls-1" cx="19.27" cy="57.24" r="2.45"/><circle class="cls-1" cx="23.75" cy="58.27" r="2.45"/><circle class="cls-1" cx="27.63" cy="59.03" r="2.45"/><circle class="cls-1" cx="31.7" cy="59.69" r="2.45"/><circle class="cls-2" cx="13.07" cy="66.2" r="2.45"/><circle class="cls-2" cx="16.76" cy="67.82" r="2.45"/><circle class="cls-2" cx="21.24" cy="68.85" r="2.45"/><circle class="cls-2" cx="25.11" cy="69.61" r="2.45"/><circle class="cls-2" cx="29.18" cy="70.26" r="2.45"/><path class="cls-1" d="M74.56,43.76c4-.84,8.53,3.67,11.42,10.74C80.9,57.24,74.76,57.84,68.37,58,68.24,50.43,70.58,44.59,74.56,43.76Z"/><path class="cls-2" d="M69.2,65.33A39.81,39.81,0,0,1,68.37,58c6.39-.12,12.53-.72,17.61-3.46a39.72,39.72,0,0,1,2.1,6.89c.28,1.32.48,2.63.62,3.9A42.85,42.85,0,0,1,70.8,71,41.49,41.49,0,0,1,69.2,65.33Z"/><path class="cls-3" d="M88.7,65.29c1,9.16-1.4,16.72-6,17.67-4.26.89-9.07-4.21-11.93-12A42.85,42.85,0,0,0,88.7,65.29Z"/><circle class="cls-1" cx="84.42" cy="55.62" r="2.45"/><circle class="cls-1" cx="80.73" cy="57.24" r="2.45"/><circle class="cls-1" cx="76.25" cy="58.27" r="2.45"/><circle class="cls-1" cx="72.37" cy="59.03" r="2.45"/><circle class="cls-1" cx="68.3" cy="59.69" r="2.45"/><circle class="cls-2" cx="86.93" cy="66.2" r="2.45"/><circle class="cls-2" cx="83.24" cy="67.82" r="2.45"/><circle class="cls-2" cx="78.76" cy="68.85" r="2.45"/><circle class="cls-2" cx="74.89" cy="69.61" r="2.45"/><circle class="cls-2" cx="70.82" cy="70.26" r="2.45"/><path class="cls-4" d="M40.89,27.21A14.61,14.61,0,0,1,27.77,19,14.63,14.63,0,1,0,54,19,14.62,14.62,0,0,1,40.89,27.21Z"/><path class="cls-5" d="M33.4,24.67a14.59,14.59,0,0,1,13.12,8.21,14.62,14.62,0,1,0-26.25,0A14.61,14.61,0,0,1,33.4,24.67Z"/><polyline class="cls-2" points="38.65 85.28 43.67 85.28 41.16 100"/><polyline class="cls-2" points="53.71 85.28 58.73 85.28 56.22 100"/><path class="cls-1" d="M77.62,64c0,18.18-12.51,24.43-27.93,24.43S21.76,82.22,21.76,64,34.27,31.13,49.69,31.13,77.62,45.87,77.62,64Z"/><path class="cls-1" d="M72.16,54.08a22.95,22.95,0,0,1-45.89,0C26.27,41.41,36.54,0,49.22,0S72.16,41.41,72.16,54.08Z"/><rect class="cls-1" x="32.26" width="22.76" height="12.41" rx="2.81" ry="2.81"/><path class="cls-6" d="M54.24,16c0,6.63-11,17.43-17.66,17.43S31.3,24.83,31.3,18.2a12,12,0,0,1,12-12C49.93,6.2,54.24,9.34,54.24,16Z"/><circle class="cls-4" cx="48.21" cy="11.84" r="1.48"/></svg>