<svg id="Layer_1" data-name="Layer 1" xmlns="http://www.w3.org/2000/svg" viewBox="0 0 100 100"><defs><style>.cls-1{fill:#fff;}.cls-2{fill:#e9f6fd;}</style></defs><title>dry ice</title><path class="cls-1" d="M79,67.86a.41.41,0,0,0-.07-.11.31.31,0,0,0,0-.1c-8.09-13-18-4.11-28.79-4.11S29.29,54.7,21.2,67.75a.21.21,0,0,0,0,.06l-.1.16C8.9,87.66,10.19,79.22,10.19,83.43L6.7,86.72c0,3.51-.21,7.26,8.66,9.56q2.51.64,5.34,1.2C23.85,98.09,27.29,98.6,31,99l2.23.23c5.26.5,10.94.77,16.86.77h0c15.24,0,28.85-1.8,37.85-4.62a41,41,0,0,0,5.28-2c.51-.24,1-.49,1.44-.75,2.87-1.61,4.48-3.41,4.48-5.3h0C99.09,83.09,91.15,87.56,79,67.86Z"/><path class="cls-1" d="M96.49,75.13l-.62.58.62-.58L95.07,74l1.42,1.16,2.6-2.45V70c0-14.2-11.73-27.59-25.81-25.81-11.5,1.45-33.77,8.65-45.29,9.9C13.88,55.64,1,55.83,1,70l11.68,1.5c0-3-.07,26.35,14.13,26.35H73.28c14.19,0,25.81-15.95,25.81-10.22V77.23Z"/><path class="cls-2" d="M57.7,60.57s33.52-8.14,26.21-14.75a20,20,0,0,0-10.63-1.6c-11.5,1.45-33.77,8.65-45.29,9.9C20.17,55,12.74,55.41,7.65,58,15.86,63.51,36.9,74.47,57.7,60.57Z"/><path class="cls-2" d="M24.36,73.55c6.59-12.1,14.52,1.94,11.29-6.22L17.5,55.3C8.09,56.68,1,59.5,1,70c0,0,2.41.58,2.41,2.27l1.89-.45,1-1.19-1,1.19.19,0-.19,0-2,2.44c-.06,1-.11,2-.21,3L8,79.11l2.71,0L8,79.11l.23.08L8,79.11l-5.12,0A41,41,0,0,1,1,87.3C-.26,90.89,12.61,98.48,26.81,98.48l1.24.19C25.81,95.61,18.76,83.84,24.36,73.55Z"/><circle class="cls-1" cx="36.32" cy="56.21" r="2.64"/><circle class="cls-1" cx="27.58" cy="31.22" r="4.79"/><circle class="cls-1" cx="41.9" cy="33.48" r="1.76"/><circle class="cls-1" cx="50.84" cy="31.35" r="1.87"/><circle class="cls-1" cx="17.62" cy="15.8" r="3.29"/><circle class="cls-1" cx="51" cy="53.98" r="3.23"/><circle class="cls-1" cx="50.16" cy="52.27" r="5.87"/><circle class="cls-1" cx="40.13" cy="63.17" r="10.51"/><circle class="cls-1" cx="48.46" cy="60.38" r="4.17"/><circle class="cls-1" cx="49.76" cy="46.4" r="5.61"/><circle class="cls-1" cx="53.81" cy="59.81" r="4.84"/><circle class="cls-1" cx="63.59" cy="32.61" r="3.13"/><circle class="cls-1" cx="89.41" cy="49.34" r="3.13"/><circle class="cls-1" cx="88.08" cy="3.13" r="3.13"/><circle class="cls-1" cx="55.53" cy="49.34" r="3.65"/><circle class="cls-1" cx="37.37" cy="30.25" r="7.58"/><circle class="cls-1" cx="42.31" cy="17.8" r="1.71"/><circle class="cls-1" cx="72.33" cy="10.8" r="1.71"/><circle class="cls-1" cx="86.28" cy="42.5" r="1.71"/><circle class="cls-1" cx="49.76" cy="28.67" r="9.16"/><circle class="cls-1" cx="58.24" cy="22.67" r="3.58"/><circle class="cls-1" cx="37.37" cy="64.75" r="7.58"/><circle class="cls-1" cx="42.31" cy="52.3" r="1.71"/><circle class="cls-1" cx="33.67" cy="43.53" r="11.82"/><circle class="cls-1" cx="41.25" cy="52.27" r="11.82"/><circle class="cls-1" cx="58.24" cy="57.17" r="3.58"/></svg>