<svg id="Layer_1" data-name="Layer 1" xmlns="http://www.w3.org/2000/svg" viewBox="0 0 100 100"><defs><style>.cls-1{fill:#f37d3b;}.cls-2{fill:#909295;}.cls-3{fill:#de7336;}.cls-4{fill:#ffc63f;}</style></defs><title>flashlight</title><rect class="cls-1" x="16.61" y="46.08" width="18.86" height="10.54" rx="2.44" ry="2.44" transform="translate(-28.68 33.45) rotate(-45)"/><rect class="cls-2" x="15.09" y="47.56" width="29.32" height="13.47" rx="3.12" ry="3.12" transform="translate(-29.68 36.94) rotate(-45)"/><rect class="cls-1" x="-3.88" y="48.11" width="82.45" height="29.09" rx="5.1" ry="5.1" transform="translate(-33.37 44.76) rotate(-45)"/><rect class="cls-2" x="54.58" y="16.9" width="17.94" height="39.09" rx="4.16" ry="4.16" transform="translate(-7.16 55.61) rotate(-45)"/><rect class="cls-3" x="0.4" y="57.8" width="56.92" height="2.29" rx="0.53" ry="0.53" transform="translate(-33.23 37.67) rotate(-45)"/><rect class="cls-3" x="5.69" y="63.09" width="56.92" height="2.29" rx="0.53" ry="0.53" transform="translate(-35.42 42.96) rotate(-45)"/><rect class="cls-3" x="10.98" y="68.38" width="56.92" height="2.29" rx="0.53" ry="0.53" transform="translate(-37.61 48.25) rotate(-45)"/><path class="cls-1" d="M61.24,1.37A26.44,26.44,0,0,0,98.63,38.76a4.58,4.58,0,0,0,0-6.48L67.72,1.37A4.58,4.58,0,0,0,61.24,1.37Z"/><ellipse class="cls-4" cx="82.46" cy="17.97" rx="7.5" ry="22.45" transform="translate(11.45 63.57) rotate(-45)"/></svg>