<svg id="Layer_1" data-name="Layer 1" xmlns="http://www.w3.org/2000/svg" viewBox="0 0 100 100"><defs><style>.cls-1{fill:#02896c;}.cls-2{fill:#09a582;}.cls-3{fill:#9dc8dc;}.cls-4{fill:#6ab8d9;}.cls-5{fill:#ebf7fd;}</style></defs><title>dew</title><path class="cls-1" d="M61.62,78.84a32.36,32.36,0,0,0,2.21-3.07Q65,74,66.05,72.23c1.46-2.4,2.8-4.9,4.09-7.45a109,109,0,0,0,6.42-16A84.25,84.25,0,0,0,80,31.65a73.33,73.33,0,0,0-.59-18,75.89,75.89,0,0,1,6.19,17.58,92.93,92.93,0,0,1,2.06,19.05,121.92,121.92,0,0,1-1.45,19.4c-.51,3.23-1.12,6.45-1.89,9.68q-.56,2.41-1.25,4.84c-.48,1.68-.89,3.15-1.65,5.13L81,90.52a11.5,11.5,0,0,1-21.49-8.18A11.76,11.76,0,0,1,61.62,78.84Z"/><path class="cls-1" d="M44.41,90.16a11.77,11.77,0,0,1-.9-1.25q-.46-.69-.9-1.44c-.6-1-1.14-2-1.67-3a44.32,44.32,0,0,1-2.61-6.5,33.87,33.87,0,0,1-1.4-7,29.48,29.48,0,0,1,.24-7.31,31,31,0,0,0-2.52,7.16,37.7,37.7,0,0,0-.84,7.75,50,50,0,0,0,.59,7.89c.21,1.31.46,2.63.77,3.94.15.65.32,1.31.51,2a21.48,21.48,0,0,0,.67,2.09l.18.46a4.67,4.67,0,0,0,8.74-3.32A5,5,0,0,0,44.41,90.16Z"/><path class="cls-2" d="M54.79,82.8c.28-2,.5-4.49.69-6.77s.36-4.69.49-7c.26-4.7.41-9.42.4-14.12A143.47,143.47,0,0,0,54.1,27.25a48.88,48.88,0,0,0-4-12.32c-1.86-3.64-4.28-6.46-7.72-7.5s-8.1,0-12.31,2A64.15,64.15,0,0,0,18,17.51a65.93,65.93,0,0,1,10-11.18A31.51,31.51,0,0,1,34.72,2a19.53,19.53,0,0,1,8.56-2,18.69,18.69,0,0,1,9,2.61,28.45,28.45,0,0,1,6.91,5.75,60.46,60.46,0,0,1,9,13.92A161.12,161.12,0,0,1,78.61,51.9c1.3,5,2.44,10,3.46,15.08.5,2.53,1,5.06,1.42,7.62s.86,5,1.22,7.89l.06.52a15.12,15.12,0,0,1-30,3.74A15.81,15.81,0,0,1,54.79,82.8Z"/><path class="cls-3" d="M18,17.41l-.09.13C16.94,19,6.33,34.93,6.33,41.09A11.7,11.7,0,0,0,18,52.79H18A11.71,11.71,0,0,0,29.75,41.09C29.75,34.62,18,17.41,18,17.41Z"/><circle class="cls-4" cx="14.87" cy="46.99" r="1.45"/><circle class="cls-4" cx="17.94" cy="44.37" r="0.53"/><circle class="cls-4" cx="18.85" cy="46.46" r="0.53"/><circle class="cls-4" cx="22.71" cy="34.1" r="0.89"/><ellipse class="cls-4" cx="26.85" cy="44.37" rx="1.86" ry="1.06" transform="translate(-23.83 55.37) rotate(-71.06)"/><ellipse class="cls-4" cx="15.83" cy="26.67" rx="1.09" ry="0.63" transform="translate(-13.85 35.68) rotate(-76.19)"/><ellipse class="cls-5" cx="13.42" cy="35.75" rx="4.75" ry="2.73" transform="translate(-24.5 40.26) rotate(-76.19)"/></svg>