<svg id="Layer_1" data-name="Layer 1" xmlns="http://www.w3.org/2000/svg" viewBox="0 0 100 100"><defs><style>.cls-1{fill:#ebf7fd;}</style></defs><title>air</title><polygon class="cls-1" points="14.52 20.79 31.09 20.79 22.81 8.74 14.52 20.79"/><polygon class="cls-1" points="42.33 20.79 58.9 20.79 50.62 8.74 42.33 20.79"/><polygon class="cls-1" points="70.14 20.79 86.71 20.79 78.43 8.74 70.14 20.79"/><polygon class="cls-1" points="0 38.41 16.57 38.41 8.29 26.36 0 38.41"/><polygon class="cls-1" points="27.81 38.41 44.38 38.41 36.09 26.36 27.81 38.41"/><polygon class="cls-1" points="55.62 38.41 72.19 38.41 63.91 26.36 55.62 38.41"/><polygon class="cls-1" points="14.52 56.02 31.09 56.02 22.81 43.98 14.52 56.02"/><polygon class="cls-1" points="42.33 56.02 58.9 56.02 50.62 43.98 42.33 56.02"/><polygon class="cls-1" points="70.14 56.02 86.71 56.02 78.43 43.98 70.14 56.02"/><polygon class="cls-1" points="83.43 38.41 100 38.41 91.72 26.36 83.43 38.41"/><polygon class="cls-1" points="0 73.64 16.57 73.64 8.29 61.59 0 73.64"/><polygon class="cls-1" points="27.81 73.64 44.38 73.64 36.09 61.59 27.81 73.64"/><polygon class="cls-1" points="55.62 73.64 72.19 73.64 63.91 61.59 55.62 73.64"/><polygon class="cls-1" points="14.52 91.26 31.09 91.26 22.81 79.21 14.52 91.26"/><polygon class="cls-1" points="42.33 91.26 58.9 91.26 50.62 79.21 42.33 91.26"/><polygon class="cls-1" points="70.14 91.26 86.71 91.26 78.43 79.21 70.14 91.26"/><polygon class="cls-1" points="83.43 73.64 100 73.64 91.72 61.59 83.43 73.64"/></svg>