<svg xmlns="http://www.w3.org/2000/svg" viewBox="0 0 100 100"><defs><style>.cls-1{isolation:isolate;}.cls-2{fill:#a3a3a3;}.cls-3{fill:#c4c4c4;}.cls-4{fill:#454545;}.cls-5{mix-blend-mode:screen;}.cls-6{fill:#b3b3b3;}</style></defs><title>steel</title><g class="cls-1"><g id="Layer_1" data-name="Layer 1"><path class="cls-2" d="M19.16,0A19.21,19.21,0,0,0,0,19.16V40.25L40.25,0Z"/><polygon class="cls-2" points="52.89 0 0 52.89 0 71.75 71.75 0 52.89 0"/><path class="cls-2" d="M93.24,4.6,4.6,93.24A19.13,19.13,0,0,0,19.16,100H80.84A19.21,19.21,0,0,0,100,80.84V19.16A19.13,19.13,0,0,0,93.24,4.6Z"/><path class="cls-3" d="M70.9,10.84a13.62,13.62,0,0,1-3.42-7.71,13.62,13.62,0,0,1,7.71,3.42,13.62,13.62,0,0,1,3.42,7.71A13.62,13.62,0,0,1,70.9,10.84Z"/><path class="cls-3" d="M52.16,10.84a13.59,13.59,0,0,1-3.43-7.71,13.59,13.59,0,0,1,7.71,3.42,13.59,13.59,0,0,1,3.43,7.71A13.59,13.59,0,0,1,52.16,10.84Z"/><path class="cls-3" d="M84.16,20.27a13.59,13.59,0,0,1-7.71,3.43A13.59,13.59,0,0,1,79.87,16a13.61,13.61,0,0,1,7.72-3.43A13.64,13.64,0,0,1,84.16,20.27Z"/><path class="cls-3" d="M70.9,29a13.62,13.62,0,0,1-3.42-7.71,13.62,13.62,0,0,1,7.71,3.42,13.64,13.64,0,0,1,3.42,7.72A13.67,13.67,0,0,1,70.9,29Z"/><path class="cls-3" d="M89.86,29a13.62,13.62,0,0,1-3.42-7.71,13.62,13.62,0,0,1,7.71,3.42,13.69,13.69,0,0,1,3.43,7.72A13.69,13.69,0,0,1,89.86,29Z"/><path class="cls-3" d="M89.86,48a13.59,13.59,0,0,1-3.42-7.71,13.59,13.59,0,0,1,7.71,3.43,13.64,13.64,0,0,1,3.43,7.71A13.61,13.61,0,0,1,89.86,48Z"/><path class="cls-3" d="M89.86,66.12a13.59,13.59,0,0,1-3.42-7.71,13.59,13.59,0,0,1,7.71,3.43,13.64,13.64,0,0,1,3.43,7.71A13.61,13.61,0,0,1,89.86,66.12Z"/><path class="cls-3" d="M89.86,84.33a13.59,13.59,0,0,1-3.42-7.71,13.59,13.59,0,0,1,7.71,3.43,13.64,13.64,0,0,1,3.43,7.71A13.61,13.61,0,0,1,89.86,84.33Z"/><path class="cls-3" d="M65.41,20.27A13.56,13.56,0,0,1,57.7,23.7,13.56,13.56,0,0,1,61.13,16a13.56,13.56,0,0,1,7.71-3.43A13.56,13.56,0,0,1,65.41,20.27Z"/><path class="cls-3" d="M52.16,29a13.59,13.59,0,0,1-3.43-7.71,13.59,13.59,0,0,1,7.71,3.42,13.61,13.61,0,0,1,3.43,7.72A13.64,13.64,0,0,1,52.16,29Z"/><path class="cls-3" d="M84.16,39.21a13.59,13.59,0,0,1-7.71,3.43,13.59,13.59,0,0,1,3.42-7.71,13.61,13.61,0,0,1,7.72-3.43A13.64,13.64,0,0,1,84.16,39.21Z"/><path class="cls-3" d="M70.9,48a13.59,13.59,0,0,1-3.42-7.71,13.59,13.59,0,0,1,7.71,3.43,13.59,13.59,0,0,1,3.42,7.71A13.59,13.59,0,0,1,70.9,48Z"/><path class="cls-3" d="M65.41,39.21a13.56,13.56,0,0,1-7.71,3.43,13.56,13.56,0,0,1,3.43-7.71,13.56,13.56,0,0,1,7.71-3.43A13.56,13.56,0,0,1,65.41,39.21Z"/><path class="cls-3" d="M52.16,48a13.56,13.56,0,0,1-3.43-7.71,13.56,13.56,0,0,1,7.71,3.43,13.56,13.56,0,0,1,3.43,7.71A13.56,13.56,0,0,1,52.16,48Z"/><path class="cls-3" d="M84.16,57.38a13.59,13.59,0,0,1-7.71,3.43,13.59,13.59,0,0,1,3.42-7.71,13.61,13.61,0,0,1,7.72-3.43A13.64,13.64,0,0,1,84.16,57.38Z"/><path class="cls-3" d="M70.9,66.12a13.59,13.59,0,0,1-3.42-7.71,13.59,13.59,0,0,1,7.71,3.43,13.59,13.59,0,0,1,3.42,7.71A13.59,13.59,0,0,1,70.9,66.12Z"/><path class="cls-3" d="M65.41,57.38a13.56,13.56,0,0,1-7.71,3.43,13.56,13.56,0,0,1,3.43-7.71,13.56,13.56,0,0,1,7.71-3.43A13.56,13.56,0,0,1,65.41,57.38Z"/><path class="cls-3" d="M52.16,66.12a13.56,13.56,0,0,1-3.43-7.71,13.56,13.56,0,0,1,7.71,3.43,13.56,13.56,0,0,1,3.43,7.71A13.56,13.56,0,0,1,52.16,66.12Z"/><path class="cls-3" d="M84.16,76.32a13.59,13.59,0,0,1-7.71,3.43A13.62,13.62,0,0,1,79.87,72a13.61,13.61,0,0,1,7.72-3.43A13.64,13.64,0,0,1,84.16,76.32Z"/><path class="cls-3" d="M70.9,85.06a13.59,13.59,0,0,1-3.42-7.71,13.59,13.59,0,0,1,7.71,3.43,13.59,13.59,0,0,1,3.42,7.71A13.59,13.59,0,0,1,70.9,85.06Z"/><path class="cls-3" d="M65.41,76.32a13.56,13.56,0,0,1-7.71,3.43A13.59,13.59,0,0,1,61.13,72a13.56,13.56,0,0,1,7.71-3.43A13.56,13.56,0,0,1,65.41,76.32Z"/><path class="cls-3" d="M52.16,85.06a13.56,13.56,0,0,1-3.43-7.71,13.56,13.56,0,0,1,7.71,3.43,13.56,13.56,0,0,1,3.43,7.71A13.56,13.56,0,0,1,52.16,85.06Z"/><path class="cls-3" d="M84.16,94.5a13.62,13.62,0,0,1-7.71,3.42,13.62,13.62,0,0,1,3.42-7.71,13.64,13.64,0,0,1,7.72-3.42A13.67,13.67,0,0,1,84.16,94.5Z"/><path class="cls-3" d="M65.41,94.5a13.59,13.59,0,0,1-7.71,3.42,13.59,13.59,0,0,1,3.43-7.71,13.59,13.59,0,0,1,7.71-3.42A13.59,13.59,0,0,1,65.41,94.5Z"/><path class="cls-3" d="M33.58,10.84a13.59,13.59,0,0,1-3.43-7.71,13.59,13.59,0,0,1,7.71,3.42,13.59,13.59,0,0,1,3.43,7.71A13.59,13.59,0,0,1,33.58,10.84Z"/><path class="cls-3" d="M14.83,10.84a13.62,13.62,0,0,1-3.42-7.71,13.62,13.62,0,0,1,7.71,3.42,13.62,13.62,0,0,1,3.42,7.71A13.62,13.62,0,0,1,14.83,10.84Z"/><path class="cls-3" d="M46.83,20.27a13.56,13.56,0,0,1-7.71,3.43A13.56,13.56,0,0,1,42.55,16a13.56,13.56,0,0,1,7.71-3.43A13.56,13.56,0,0,1,46.83,20.27Z"/><path class="cls-3" d="M33.58,29a13.59,13.59,0,0,1-3.43-7.71,13.59,13.59,0,0,1,7.71,3.42,13.61,13.61,0,0,1,3.43,7.72A13.64,13.64,0,0,1,33.58,29Z"/><path class="cls-3" d="M28.09,20.27a13.59,13.59,0,0,1-7.71,3.43A13.59,13.59,0,0,1,23.8,16a13.59,13.59,0,0,1,7.71-3.43A13.59,13.59,0,0,1,28.09,20.27Z"/><path class="cls-3" d="M14.83,29a13.62,13.62,0,0,1-3.42-7.71,13.62,13.62,0,0,1,7.71,3.42,13.64,13.64,0,0,1,3.42,7.72A13.67,13.67,0,0,1,14.83,29Z"/><path class="cls-3" d="M46.83,39.21a13.56,13.56,0,0,1-7.71,3.43,13.56,13.56,0,0,1,3.43-7.71,13.56,13.56,0,0,1,7.71-3.43A13.56,13.56,0,0,1,46.83,39.21Z"/><path class="cls-3" d="M33.58,48a13.56,13.56,0,0,1-3.43-7.71,13.56,13.56,0,0,1,7.71,3.43,13.56,13.56,0,0,1,3.43,7.71A13.56,13.56,0,0,1,33.58,48Z"/><path class="cls-3" d="M28.09,39.21a13.59,13.59,0,0,1-7.71,3.43,13.59,13.59,0,0,1,3.42-7.71,13.59,13.59,0,0,1,7.71-3.43A13.59,13.59,0,0,1,28.09,39.21Z"/><path class="cls-3" d="M14.83,48a13.59,13.59,0,0,1-3.42-7.71,13.59,13.59,0,0,1,7.71,3.43,13.59,13.59,0,0,1,3.42,7.71A13.59,13.59,0,0,1,14.83,48Z"/><path class="cls-3" d="M46.83,57.38a13.56,13.56,0,0,1-7.71,3.43,13.56,13.56,0,0,1,3.43-7.71,13.56,13.56,0,0,1,7.71-3.43A13.56,13.56,0,0,1,46.83,57.38Z"/><path class="cls-3" d="M33.58,66.12a13.56,13.56,0,0,1-3.43-7.71,13.56,13.56,0,0,1,7.71,3.43,13.56,13.56,0,0,1,3.43,7.71A13.56,13.56,0,0,1,33.58,66.12Z"/><path class="cls-3" d="M28.09,57.38a13.59,13.59,0,0,1-7.71,3.43A13.59,13.59,0,0,1,23.8,53.1a13.59,13.59,0,0,1,7.71-3.43A13.59,13.59,0,0,1,28.09,57.38Z"/><path class="cls-3" d="M14.83,66.12a13.59,13.59,0,0,1-3.42-7.71,13.59,13.59,0,0,1,7.71,3.43,13.59,13.59,0,0,1,3.42,7.71A13.59,13.59,0,0,1,14.83,66.12Z"/><path class="cls-3" d="M46.83,76.32a13.56,13.56,0,0,1-7.71,3.43A13.59,13.59,0,0,1,42.55,72a13.56,13.56,0,0,1,7.71-3.43A13.56,13.56,0,0,1,46.83,76.32Z"/><path class="cls-3" d="M33.58,85.06a13.56,13.56,0,0,1-3.43-7.71,13.56,13.56,0,0,1,7.71,3.43,13.56,13.56,0,0,1,3.43,7.71A13.56,13.56,0,0,1,33.58,85.06Z"/><path class="cls-3" d="M28.09,76.32a13.59,13.59,0,0,1-7.71,3.43A13.62,13.62,0,0,1,23.8,72a13.59,13.59,0,0,1,7.71-3.43A13.59,13.59,0,0,1,28.09,76.32Z"/><path class="cls-3" d="M9,20.27A13.56,13.56,0,0,1,1.28,23.7,13.56,13.56,0,0,1,4.71,16a13.56,13.56,0,0,1,7.71-3.43A13.56,13.56,0,0,1,9,20.27Z"/><path class="cls-3" d="M9,39.21a13.56,13.56,0,0,1-7.71,3.43,13.56,13.56,0,0,1,3.43-7.71,13.56,13.56,0,0,1,7.71-3.43A13.56,13.56,0,0,1,9,39.21Z"/><path class="cls-3" d="M9,57.38a13.56,13.56,0,0,1-7.71,3.43A13.56,13.56,0,0,1,4.71,53.1a13.56,13.56,0,0,1,7.71-3.43A13.56,13.56,0,0,1,9,57.38Z"/><path class="cls-3" d="M9,76.32a13.56,13.56,0,0,1-7.71,3.43A13.59,13.59,0,0,1,4.71,72a13.56,13.56,0,0,1,7.71-3.43A13.56,13.56,0,0,1,9,76.32Z"/><path class="cls-3" d="M14.83,85.06a13.59,13.59,0,0,1-3.42-7.71,13.59,13.59,0,0,1,7.71,3.43,13.59,13.59,0,0,1,3.42,7.71A13.59,13.59,0,0,1,14.83,85.06Z"/><path class="cls-3" d="M46.83,94.5a13.59,13.59,0,0,1-7.71,3.42,13.59,13.59,0,0,1,3.43-7.71,13.59,13.59,0,0,1,7.71-3.42A13.59,13.59,0,0,1,46.83,94.5Z"/><path class="cls-3" d="M28.09,94.5a13.62,13.62,0,0,1-7.71,3.42,13.62,13.62,0,0,1,3.42-7.71,13.62,13.62,0,0,1,7.71-3.42A13.62,13.62,0,0,1,28.09,94.5Z"/><rect class="cls-4" x="83.85" y="45.58" width="6.72" height="6.72" rx="1.4" ry="1.4"/><rect class="cls-4" x="83.85" y="83.08" width="6.72" height="6.72" rx="1.4" ry="1.4"/><rect class="cls-4" x="9.06" y="8.07" width="6.72" height="6.72" rx="1.4" ry="1.4"/><rect class="cls-4" x="9.06" y="45.58" width="6.72" height="6.72" rx="1.4" ry="1.4"/><rect class="cls-4" x="83.85" y="8.07" width="6.72" height="6.72" rx="1.4" ry="1.4"/><rect class="cls-4" x="9.06" y="83.08" width="6.72" height="6.72" rx="1.4" ry="1.4"/><g class="cls-5"><polygon class="cls-6" points="40.25 0 0 40.25 0 52.89 52.89 0 40.25 0"/></g><g class="cls-5"><path class="cls-6" d="M80.84,0H71.75L0,71.75v9.09a19.05,19.05,0,0,0,4.6,12.4L93.24,4.6A19.05,19.05,0,0,0,80.84,0Z"/></g></g></g></svg>