<svg id="Layer_1" data-name="Layer 1" xmlns="http://www.w3.org/2000/svg" viewBox="0 0 100 100"><defs><style>.cls-1,.cls-5,.cls-6,.cls-7{fill:none;stroke:#069274;stroke-miterlimit:10;}.cls-1{stroke-width:2.54px;}.cls-2{fill:#09a582;}.cls-3{fill:#089a7a;}.cls-4{fill:#069274;}.cls-5{stroke-width:2.42px;}.cls-6{stroke-width:2.1px;}.cls-7{stroke-width:2.05px;}.cls-8{fill:#8c7aa1;}.cls-9{fill:#9a85b0;}.cls-10{fill:#736384;}</style></defs><title>catnip</title><path class="cls-1" d="M52.21,82.38s-4.87,2-9.06,1.3"/><path class="cls-2" d="M48.13,83.66A9,9,0,0,0,48.45,81c-.13-4.89-4.45-8.72-11-9.73A21.8,21.8,0,0,0,33.89,71a32.68,32.68,0,0,0-9.7,2.2c-1.37.48-2.78,1-4.2,1.59-2.25.91-4.51,1.91-6.64,2.9C6.66,80.82,1.23,83.84,1.23,83.84l27.94,5.93Z"/><path class="cls-3" d="M30.05,83.73,20,74.81c1.42-.58,2.83-1.11,4.2-1.59L36,83.71Z"/><path class="cls-3" d="M1.23,83.84s5.43-3,12.12-6.13l6.82,6.06Z"/><path class="cls-4" d="M27.09,96.44c-9.75,0-25.86-12.6-25.86-12.6l46.9-.18C46.26,90.68,36.83,96.4,27.09,96.44Z"/><path class="cls-5" d="M49.78,17a51.13,51.13,0,0,0-3.49,27.68c1.42,8.53,4.47,12.14,6.28,19.43C54.53,72,54.88,83.64,47,99.4"/><path class="cls-2" d="M39,1s-.72,2.9-1.21,6.35c-.16,1.1-.29,2.26-.37,3.39,0,.72-.08,1.42-.08,2.1a10.45,10.45,0,0,0,.79,4.54,8.32,8.32,0,0,0,1,1.46,8.47,8.47,0,0,0,8.83,2.69,7.93,7.93,0,0,0,1.64-.66l-1.66-9.74Z"/><path class="cls-3" d="M45.46,13.21l-8.09-2.47c0,.72-.08,1.42-.08,2.1l9.51,2.9Z"/><path class="cls-3" d="M39,1s-.72,2.9-1.21,6.35L43.23,9Z"/><path class="cls-4" d="M53,9.41C50.83,5.29,39,1,39,1L49.54,20.87A8.47,8.47,0,0,0,53,9.41Z"/><path class="cls-5" d="M47.29,47s12.3-.47,15.16-2.69"/><path class="cls-2" d="M95.49,29.19s-4.8-1.46-10.55-2.59c-1.84-.36-3.76-.68-5.67-.91-1.19-.15-2.37-.25-3.51-.31-3.06-.15-5.83.06-7.69.93a14.08,14.08,0,0,0-2.54,1.54,14.26,14.26,0,0,0-4.31,17.4L81.07,44.1Z"/><path class="cls-3" d="M74.44,39.05l4.83-13.36c-1.19-.15-2.37-.25-3.51-.31L70.07,41.1Z"/><path class="cls-3" d="M95.49,29.19s-4.8-1.46-10.55-2.59l-3.29,9.07Z"/><path class="cls-4" d="M80.15,52.1c7.13-3.33,15.34-22.91,15.34-22.91L61.22,45.25A14.23,14.23,0,0,0,80.15,52.1Z"/><path class="cls-6" d="M53.75,68.77a18.23,18.23,0,0,0,7.85,1.3"/><path class="cls-2" d="M72.6,76,99.91,71.8s-3.93-2.42-9-5c-1.61-.81-3.33-1.63-5.08-2.38-1.1-.48-2.21-.92-3.3-1.33a28.64,28.64,0,0,0-8.12-2A27.09,27.09,0,0,0,71,61.2c-6.31.49-11.58,3.14-13.38,6.72a6.17,6.17,0,0,0-.61,1.94Z"/><path class="cls-3" d="M73.58,70.61l12.26-6.15c-1.1-.48-2.21-.92-3.3-1.33L68.12,70.36Z"/><path class="cls-3" d="M99.91,71.8s-3.93-2.42-9-5L82.6,71Z"/><path class="cls-4" d="M71.93,80c8.9.4,28-8.24,28-8.24L57.05,69.86C56.36,75.08,63,79.64,71.93,80Z"/><path class="cls-2" d="M91.67,83.56a116.6,116.6,0,0,0-8.34-8.26c-1.5-1.33-3.1-2.68-4.74-3.92-1-.77-2.06-1.5-3.09-2.15-2.76-1.76-5.45-3-7.69-3a14.75,14.75,0,0,0-3.25.32c-6.11,1.27-11.34,6.31-13.3,12.8a19.39,19.39,0,0,0-.71,3.5L68.17,92Z"/><path class="cls-3" d="M66.41,83.11,78.59,71.38c-1-.77-2.06-1.5-3.09-2.15L61.17,83Z"/><path class="cls-3" d="M91.67,83.56a116.6,116.6,0,0,0-8.34-8.26l-8.27,8Z"/><path class="cls-4" d="M64.22,100c8.54.15,27.45-16.44,27.45-16.44l-41.12-.73C49.56,92.16,55.68,99.85,64.22,100Z"/><path class="cls-7" d="M48.81,54.72s-11.1-3.89-14.41-5"/><path class="cls-2" d="M37.2,51.15A7.48,7.48,0,0,0,37.47,49c0-4-3.44-7.73-8.59-9.33A17.84,17.84,0,0,0,26,39a23.38,23.38,0,0,0-7.69.66c-1.09.24-2.21.52-3.34.82-1.79.49-3.58,1-5.28,1.62C4.41,43.92.09,45.77.09,45.77l20,9.17Z"/><path class="cls-3" d="M22.89,49.08,15,40.52c1.13-.3,2.25-.58,3.34-.82l9.27,10.06Z"/><path class="cls-2" d="M15.08,47.94l-5.35-5.8c1.7-.57,3.49-1.13,5.28-1.62l7.88,8.56Z"/><path class="cls-3" d="M.09,45.77s4.32-1.85,9.64-3.63l5.35,5.8Z"/><path class="cls-4" d="M20.44,59.22C12.73,58.1.09,45.77.09,45.77L37.2,51.15C35.65,56.73,28.15,60.34,20.44,59.22Z"/><path class="cls-8" d="M64.7,8.49,61.19,5a2.12,2.12,0,0,0-3,0l-1,1-.9-.89a2.86,2.86,0,0,0-4,0l-.19.19L50.43,3.7a1.33,1.33,0,0,0-1.9,0l-.67.66-.57-.57a1.85,1.85,0,0,0-2.6,0l-6.25,6.26a1.83,1.83,0,0,0,0,2.6l.89.89,2.19,2.19.28.29a2.88,2.88,0,0,0,.69,2.9l1.4,1.4h0l.63.63H43.31a1.84,1.84,0,0,0-1.84,1.84V32.9a1.84,1.84,0,0,0,1.84,1.84h4.35A1.84,1.84,0,0,0,49.5,32.9V29.48h3.55l.59.58a2.86,2.86,0,0,0,4,0l4.8-4.8a2.86,2.86,0,0,0,0-4.05l-3.77-3.77,6-6A2.09,2.09,0,0,0,64.7,8.49Z"/><rect class="cls-9" x="34.54" y="13.73" width="9.53" height="6.11" rx="1.4" ry="1.4"/><rect class="cls-9" x="30.25" y="15.75" width="9.53" height="6.11" rx="1.4" ry="1.4"/><rect class="cls-9" x="35.66" y="17.87" width="9.53" height="6.11" rx="1.4" ry="1.4" transform="translate(26.64 -22.45) rotate(45)"/><rect class="cls-10" x="37.06" y="13.99" width="4.49" height="1.76" rx="0.4" ry="0.4"/><rect class="cls-9" x="57.6" y="13.19" width="9.53" height="6.11" rx="1.4" ry="1.4" transform="translate(6.78 48.86) rotate(-45)"/><rect class="cls-9" x="55.99" y="17.65" width="9.53" height="6.11" rx="1.4" ry="1.4" transform="translate(3.15 49.03) rotate(-45)"/><rect class="cls-9" x="61.32" y="15.33" width="9.53" height="6.11" rx="1.4" ry="1.4"/><rect class="cls-10" x="58.76" y="14.01" width="4.49" height="1.76" rx="0.4" ry="0.4" transform="translate(7.34 47.5) rotate(-45)"/><rect class="cls-9" x="51.77" width="12.53" height="8.03" rx="1.84" ry="1.84" transform="translate(116.06 8.03) rotate(-180)"/><rect class="cls-9" x="57.41" y="2.65" width="12.53" height="8.03" rx="1.84" ry="1.84" transform="translate(127.34 13.33) rotate(180)"/><rect class="cls-9" x="50.3" y="5.44" width="12.53" height="8.03" rx="1.84" ry="1.84" transform="translate(103.24 -23.85) rotate(135)"/><rect class="cls-10" x="55.08" y="0.34" width="5.9" height="2.31" rx="0.53" ry="0.53" transform="translate(116.06 2.99) rotate(180)"/><rect class="cls-9" x="49.35" y="21.97" width="12.53" height="8.03" rx="1.84" ry="1.84" transform="translate(111.22 51.97) rotate(-180)"/><rect class="cls-9" x="54.99" y="24.62" width="9.17" height="5.88" rx="1.35" ry="1.35" transform="translate(119.15 55.12) rotate(180)"/><rect class="cls-9" x="47.1" y="25.48" width="12.53" height="8.03" rx="1.84" ry="1.84" transform="translate(82.86 -23.87) rotate(90)"/><rect class="cls-10" x="52.66" y="22.31" width="5.9" height="2.31" rx="0.53" ry="0.53" transform="translate(111.22 46.93) rotate(180)"/><rect class="cls-9" x="46.91" y="13.61" width="9.53" height="6.11" rx="1.4" ry="1.4" transform="translate(26.92 -31.66) rotate(45)"/><rect class="cls-9" x="42.45" y="12" width="9.53" height="6.11" rx="1.4" ry="1.4" transform="translate(24.47 -28.97) rotate(45)"/><rect class="cls-9" x="44.77" y="17.33" width="9.53" height="6.11" rx="1.4" ry="1.4" transform="translate(69.92 -29.15) rotate(90)"/><rect class="cls-10" x="50.78" y="14.43" width="4.49" height="1.76" rx="0.4" ry="0.4" transform="translate(26.36 -33.01) rotate(45)"/><path class="cls-2" d="M56.66,32.26l7-10.77s-3-.14-6.47.06c-1.11.06-2.27.15-3.4.3-.71.09-1.4.2-2.07.34a10.18,10.18,0,0,0-4.29,1.66,8.19,8.19,0,0,0-1.24,1.26,8.48,8.48,0,0,0-.91,9.18,8.76,8.76,0,0,0,1,1.48Z"/><path class="cls-3" d="M53,30.26l.83-8.41c-.71.09-1.4.2-2.07.34l-1,9.89Z"/><path class="cls-3" d="M63.69,21.49s-3-.14-6.47.06l-.56,5.71Z"/><path class="cls-4" d="M58.2,36.94c3.62-3,5.49-15.45,5.49-15.45L46.28,35.77A8.47,8.47,0,0,0,58.2,36.94Z"/></svg>