<svg id="Layer_1" data-name="Layer 1" xmlns="http://www.w3.org/2000/svg" viewBox="0 0 100 100"><defs><style>.cls-1{fill:#9c9c9c;}.cls-2{fill:#696969;}</style></defs><title>scalpel</title><path class="cls-1" d="M82.64,11.8,62.88,31.56l-55,55A7.86,7.86,0,1,0,19,97.71l55-55h0l12.3-12.3L94.45,0Z"/><rect class="cls-2" x="4.43" y="74.11" width="45.1" height="8.93" rx="1.99" ry="1.99" transform="translate(-47.66 42.09) rotate(-45)"/><rect class="cls-1" x="12.99" y="87.42" width="2.39" height="7.07" rx="0.53" ry="0.53"/><rect class="cls-1" x="17.21" y="83.21" width="2.39" height="7.07" rx="0.53" ry="0.53"/><rect class="cls-1" x="21.42" y="79" width="2.39" height="7.07" rx="0.53" ry="0.53"/><rect class="cls-1" x="25.64" y="74.78" width="2.39" height="7.07" rx="0.53" ry="0.53"/><rect class="cls-1" x="29.85" y="70.57" width="2.39" height="7.07" rx="0.53" ry="0.53"/><rect class="cls-1" x="34.07" y="66.35" width="2.39" height="7.07" rx="0.53" ry="0.53"/><rect class="cls-1" x="38.28" y="62.14" width="2.39" height="7.07" rx="0.53" ry="0.53"/></svg>