<svg id="Layer_1" data-name="Layer 1" xmlns="http://www.w3.org/2000/svg" viewBox="0 0 100 100"><defs><style>.cls-1{fill:#fcca98;}.cls-2{fill:#cfa880;}.cls-3{fill:#171717;}.cls-4{fill:#805853;}</style></defs><title>skateboard</title><ellipse class="cls-1" cx="88.29" cy="50.55" rx="8.82" ry="6.41" transform="translate(-9.89 77.24) rotate(-45)"/><ellipse class="cls-2" cx="89.91" cy="52.17" rx="4.08" ry="2.96" transform="translate(-10.56 78.86) rotate(-45)"/><ellipse class="cls-3" cx="89.4" cy="51.66" rx="1.84" ry="1.33" transform="translate(-10.35 78.35) rotate(-45)"/><ellipse class="cls-1" cx="47.2" cy="91.65" rx="8.82" ry="6.41" transform="translate(-50.98 60.22) rotate(-45)"/><ellipse class="cls-2" cx="48.82" cy="93.27" rx="4.08" ry="2.96" transform="translate(-51.65 61.84) rotate(-45)"/><ellipse class="cls-3" cx="48.31" cy="92.76" rx="1.84" ry="1.33" transform="translate(-51.44 61.33) rotate(-45)"/><rect class="cls-3" x="28.18" y="-4.06" width="43.64" height="108.13" rx="9.72" ry="9.72" transform="translate(50 -20.71) rotate(45)"/><path class="cls-4" d="M72.8.38a9.68,9.68,0,0,1,6.87,2.83L96.79,20.33a9.74,9.74,0,0,1,0,13.74L34.07,96.79a9.75,9.75,0,0,1-13.74,0L3.21,79.67a9.74,9.74,0,0,1,0-13.74L65.93,3.21A9.68,9.68,0,0,1,72.8.38m0-1.11a10.75,10.75,0,0,0-7.66,3.16L2.43,65.14a10.85,10.85,0,0,0,0,15.32L19.54,97.57a10.86,10.86,0,0,0,15.32,0L97.57,34.86a10.85,10.85,0,0,0,0-15.32L80.46,2.43A10.75,10.75,0,0,0,72.8-.73Z"/><circle cx="31.02" cy="75.47" r="1.6"/><circle cx="41.75" cy="78.1" r="1.6"/><circle cx="59.98" cy="59.87" r="1.6"/><circle cx="78.2" cy="41.64" r="1.6"/><circle cx="39.91" cy="66.58" r="1.6"/><circle cx="48.8" cy="57.69" r="1.6"/><circle cx="57.69" cy="48.8" r="1.6"/><circle cx="66.58" cy="39.91" r="1.6"/><circle cx="75.47" cy="31.02" r="1.6"/><circle cx="18.79" cy="63.23" r="1.6"/><circle cx="29.52" cy="65.86" r="1.6"/><circle cx="47.74" cy="47.64" r="1.6"/><circle cx="65.97" cy="29.41" r="1.6"/><circle cx="27.68" cy="54.34" r="1.6"/><circle cx="36.57" cy="45.46" r="1.6"/><circle cx="45.46" cy="36.57" r="1.6"/><circle cx="54.34" cy="27.68" r="1.6"/><circle cx="63.23" cy="18.79" r="1.6"/></svg>