<svg id="Layer_1" data-name="Layer 1" xmlns="http://www.w3.org/2000/svg" viewBox="0 0 100 100"><defs><style>.cls-1{fill:#f37d3b;}.cls-2{fill:#c7552e;}.cls-3{fill:#fcca98;}.cls-4{fill:#fff;}.cls-5{fill:#3e3e3f;}.cls-6{fill:#ffc640;}</style></defs><title>alarm clock</title><circle class="cls-1" cx="48.83" cy="53.47" r="39.68"/><circle class="cls-2" cx="48.83" cy="51.72" r="28.6"/><circle class="cls-3" cx="48.83" cy="51.72" r="23.62"/><path class="cls-4" d="M38.38,43.18c2.7,2.71,2.83,7,2.83,7s-4.25-.13-7-2.83-2.83-7-2.83-7S35.68,40.48,38.38,43.18Z"/><path class="cls-4" d="M44.12,37.44c2.7,2.71,2.83,7,2.83,7s-4.25-.13-7-2.83-2.83-7-2.83-7S41.42,34.74,44.12,37.44Z"/><rect class="cls-5" x="66.05" y="50.57" width="5.88" height="3.66" rx="0.8" ry="0.8"/><rect class="cls-5" x="26.37" y="50.57" width="5.88" height="3.66" rx="0.8" ry="0.8"/><rect class="cls-5" x="46.21" y="70.41" width="5.88" height="3.66" rx="0.8" ry="0.8" transform="translate(121.38 23.09) rotate(90)"/><rect class="cls-5" x="46.21" y="30.73" width="5.88" height="3.66" rx="0.8" ry="0.8" transform="translate(81.71 -16.59) rotate(90)"/><path class="cls-5" d="M47,53.5l2-19.13L51,53.5a2,2,0,1,1-3.93.4A1.78,1.78,0,0,1,47,53.5Z"/><path class="cls-5" d="M50.54,54.89,35.62,67,47.76,52.11a2,2,0,0,1,3.06,2.5A1.85,1.85,0,0,1,50.54,54.89Z"/><path class="cls-6" d="M68.16,9c-3.79,3.79-.37,13.34,7.63,21.33S93.34,41.74,97.12,38,102,20.13,94,12.14,71.94,5.21,68.16,9Z"/><path class="cls-6" d="M31.84,9c3.79,3.79.37,13.34-7.63,21.33S6.66,41.74,2.88,38-2,20.13,6,12.14,28.06,5.21,31.84,9Z"/><path class="cls-1" d="M15.68,74.38h3.56a1.38,1.38,0,0,1,1.38,1.38V93.92a1.37,1.37,0,0,1-1.37,1.37H15.68a1.37,1.37,0,0,1-1.37-1.37V75.75A1.37,1.37,0,0,1,15.68,74.38Z" transform="translate(65.1 12.5) rotate(45)"/><path class="cls-1" d="M80.93,74.38h3.56a1.37,1.37,0,0,1,1.37,1.37V93.92a1.37,1.37,0,0,1-1.37,1.37H80.93a1.37,1.37,0,0,1-1.37-1.37V75.75A1.38,1.38,0,0,1,80.93,74.38Z" transform="translate(201.18 86.34) rotate(135)"/></svg>