<svg id="Layer_1" data-name="Layer 1" xmlns="http://www.w3.org/2000/svg" viewBox="0 0 100 100"><defs><style>.cls-1{fill:#09a582;}.cls-2{fill:#cb6930;}.cls-3{fill:none;}.cls-4{fill:#ffc640;}.cls-5{fill:#6ab8d9;}.cls-6{fill:#f37d3b;}</style></defs><title>water gun</title><rect class="cls-1" x="84.59" y="48.59" width="13.94" height="5.55" rx="1.34" ry="1.34"/><rect class="cls-2" x="45.5" y="59.25" width="4.59" height="10.55" rx="1.11" ry="1.11"/><rect class="cls-2" x="37.46" y="66.35" width="12.17" height="3.46" rx="0.83" ry="0.83"/><path class="cls-3" d="M21.91,46a1.66,1.66,0,0,1,1.71-1.12,1.66,1.66,0,0,1-1.71-1.12,1.69,1.69,0,0,1,1.32-1.55,1.65,1.65,0,0,1-1.94-.59,1.66,1.66,0,0,1,.82-1.85,1.67,1.67,0,0,1-2,0,1.67,1.67,0,0,1,.27-2,1.66,1.66,0,0,1-2,.55,1.66,1.66,0,0,1-.31-2c-.38.78-1.15,1.25-1.71,1.07a1.64,1.64,0,0,1-.87-1.83c-.14.86-.75,1.53-1.34,1.51s-1.2-.65-1.35-1.51a1.64,1.64,0,0,1-.87,1.83c-.56.18-1.33-.29-1.71-1.07a1.66,1.66,0,0,1-.31,2A1.64,1.64,0,0,1,8,37.76a1.67,1.67,0,0,1,.26,2,1.67,1.67,0,0,1-2,0A1.65,1.65,0,0,1,7,41.65a1.65,1.65,0,0,1-1.94.59A1.67,1.67,0,0,1,6.4,43.79a1.66,1.66,0,0,1-1.71,1.12A1.66,1.66,0,0,1,6.4,46a1.67,1.67,0,0,1-1.32,1.55A1.65,1.65,0,0,1,7,48.17,1.65,1.65,0,0,1,6.2,50a1.67,1.67,0,0,1,2,0,1.67,1.67,0,0,1-.26,2,1.64,1.64,0,0,1,2-.55,1.66,1.66,0,0,1,.31,2c.38-.78,1.15-1.25,1.71-1.07a1.64,1.64,0,0,1,.87,1.83c.15-.86.75-1.53,1.35-1.51s1.2.65,1.34,1.51a1.64,1.64,0,0,1,.87-1.83c.56-.18,1.33.29,1.71,1.07a1.66,1.66,0,0,1,.31-2,1.66,1.66,0,0,1,2,.55,1.67,1.67,0,0,1-.27-2,1.67,1.67,0,0,1,2,0,1.66,1.66,0,0,1-.82-1.85,1.65,1.65,0,0,1,1.94-.59A1.69,1.69,0,0,1,21.91,46Z"/><path class="cls-1" d="M26.83,44.91a1.81,1.81,0,0,0-.52-3.57,1.8,1.8,0,0,0-1.5-3.28,1.8,1.8,0,0,0-2.36-2.72,1.64,1.64,0,0,0-.57-2.44,1.65,1.65,0,0,0-2.46.49,1.66,1.66,0,0,0-1.24-2.19A1.66,1.66,0,0,0,16,32.38a1.66,1.66,0,0,0-1.8-1.76,1.65,1.65,0,0,0-1.8,1.76,1.67,1.67,0,0,0-2.23-1.18,1.66,1.66,0,0,0-1.24,2.19,1.65,1.65,0,0,0-2.46-.49,1.65,1.65,0,0,0-.57,2.44,1.64,1.64,0,0,0-2.49.22,1.64,1.64,0,0,0,.13,2.5A1.65,1.65,0,0,0,1.17,39,1.64,1.64,0,0,0,2,41.34a1.65,1.65,0,0,0-2,1.54,1.65,1.65,0,0,0,1.46,2,1.65,1.65,0,0,0-1.46,2,1.65,1.65,0,0,0,2,1.54,1.64,1.64,0,0,0-.83,2.36,1.65,1.65,0,0,0,2.33.92,1.64,1.64,0,0,0-.13,2.5,1.64,1.64,0,0,0,2.49.22,1.65,1.65,0,0,0,.57,2.44,1.65,1.65,0,0,0,2.46-.49,1.66,1.66,0,0,0,1.24,2.19,1.66,1.66,0,0,0,2.23-1.18,1.65,1.65,0,0,0,1.8,1.76A1.66,1.66,0,0,0,16,57.44a1.65,1.65,0,0,0,2.22,1.18,1.66,1.66,0,0,0,1.24-2.19,1.65,1.65,0,0,0,2.46.49,1.64,1.64,0,0,0,.57-2.44,1.8,1.8,0,0,0,2.36-2.72,1.8,1.8,0,0,0,1.5-3.28,1.81,1.81,0,0,0,.52-3.57Zm-5.54,3.26A1.66,1.66,0,0,0,22.11,50a1.67,1.67,0,0,0-2,0,1.67,1.67,0,0,0,.27,2,1.66,1.66,0,0,0-2-.55,1.66,1.66,0,0,0-.31,2c-.38-.78-1.15-1.25-1.71-1.07a1.64,1.64,0,0,0-.87,1.83c-.14-.86-.75-1.53-1.34-1.51s-1.2.65-1.35,1.51a1.64,1.64,0,0,0-.87-1.83c-.56-.18-1.33.29-1.71,1.07a1.66,1.66,0,0,0-.31-2A1.64,1.64,0,0,0,8,52.06a1.67,1.67,0,0,0,.26-2,1.67,1.67,0,0,0-2,0A1.65,1.65,0,0,0,7,48.17a1.65,1.65,0,0,0-1.94-.59A1.67,1.67,0,0,0,6.4,46a1.66,1.66,0,0,0-1.71-1.12A1.66,1.66,0,0,0,6.4,43.79a1.67,1.67,0,0,0-1.32-1.55A1.65,1.65,0,0,0,7,41.65,1.65,1.65,0,0,0,6.2,39.8a1.67,1.67,0,0,0,2,0,1.67,1.67,0,0,0-.26-2,1.64,1.64,0,0,0,2,.55,1.66,1.66,0,0,0,.31-2c.38.78,1.15,1.25,1.71,1.07a1.64,1.64,0,0,0,.87-1.83c.15.86.75,1.53,1.35,1.51s1.2-.65,1.34-1.51a1.64,1.64,0,0,0,.87,1.83c.56.18,1.33-.29,1.71-1.07a1.66,1.66,0,0,0,.31,2,1.66,1.66,0,0,0,2-.55,1.67,1.67,0,0,0-.27,2,1.67,1.67,0,0,0,2,0,1.66,1.66,0,0,0-.82,1.85,1.65,1.65,0,0,0,1.94.59,1.69,1.69,0,0,0-1.32,1.55,1.66,1.66,0,0,0,1.71,1.12A1.66,1.66,0,0,0,21.91,46a1.69,1.69,0,0,0,1.32,1.55A1.65,1.65,0,0,0,21.29,48.17Z"/><rect class="cls-4" x="13.85" y="24.49" width="39.55" height="19.69" rx="4.75" ry="4.75"/><path class="cls-5" d="M15.9,32.88a7.86,7.86,0,0,0-.15,1.46,8.15,8.15,0,0,0,8.13,8.12h18.9a8.14,8.14,0,0,0,8.12-8.12,7.86,7.86,0,0,0-.15-1.46Z"/><path class="cls-5" d="M15.9,32.88c4-1.48,7.39-2.19,9.6-2.1,2.71.12,4.06.68,7.25.8,3.63.13,4.77-.58,7.83-.74,2.36-.12,6,.65,10.17,2"/><rect class="cls-6" x="41.7" y="35.91" width="21.53" height="10.72" rx="2.59" ry="2.59"/><rect class="cls-6" x="28.65" y="54.56" width="10.64" height="23.12" rx="2.57" ry="2.57"/><rect class="cls-6" x="12.38" y="44.19" width="82.03" height="15.98" rx="3.86" ry="3.86"/><rect class="cls-6" x="34.64" y="53.97" width="43.3" height="9.37" rx="2.26" ry="2.26"/><rect class="cls-6" x="30.89" y="22.32" width="5.46" height="28.05" rx="1.32" ry="1.32"/><rect class="cls-4" x="56.86" y="56.53" width="5.71" height="9.21" rx="1.38" ry="1.38"/><rect class="cls-4" x="62.57" y="56.53" width="5.71" height="9.21" rx="1.38" ry="1.38"/><rect class="cls-4" x="68.28" y="56.53" width="5.71" height="9.21" rx="1.38" ry="1.38"/><rect class="cls-4" x="73.99" y="56.53" width="5.71" height="9.21" rx="1.38" ry="1.38"/><rect class="cls-2" x="40.88" y="46.58" width="2.17" height="7.58" rx="0.52" ry="0.52" transform="translate(47.91 -14.92) rotate(45)"/><rect class="cls-2" x="46.45" y="46.58" width="2.17" height="7.58" rx="0.52" ry="0.52" transform="translate(49.54 -18.86) rotate(45)"/><rect class="cls-2" x="52.01" y="46.58" width="2.17" height="7.58" rx="0.52" ry="0.52" transform="translate(51.17 -22.79) rotate(45)"/><rect class="cls-2" x="57.58" y="46.58" width="2.17" height="7.58" rx="0.52" ry="0.52" transform="translate(52.8 -26.73) rotate(45)"/><path class="cls-5" d="M100,65.61a2.8,2.8,0,1,1-5.59,0c0-1.54,2.8-7.32,2.8-7.32S100,64.07,100,65.61Z"/></svg>