<svg id="Layer_1" data-name="Layer 1" xmlns="http://www.w3.org/2000/svg" viewBox="0 0 100 100"><defs><style>.cls-1{fill:#ffc640;}.cls-2{fill:#7d7d7d;}.cls-3{fill:#007f63;}.cls-4{fill:#09a582;}.cls-5{fill:#bababa;}</style></defs><title>wind turbine</title><path class="cls-1" d="M37.27,86.66c-.06,1.26-.11,2.44-.15,3.49H49c0-1.05-.09-2.23-.15-3.49Z"/><path class="cls-2" d="M43.07,23.58c-2.67,0-4.94,43.32-5.8,63.08h11.6C48,66.9,45.74,23.58,43.07,23.58Z"/><path class="cls-3" d="M37.12,90.15c-.07,1.72-.12,3.16-.16,4.19H49.18c0-1-.09-2.47-.16-4.19Z"/><path class="cls-4" d="M37,94.34c0,1.07-.06,1.76-.06,1.93,0,2.06,2.76,3.73,6.17,3.73s6.17-1.67,6.17-3.73c0-.17,0-.86-.06-1.93Z"/><rect class="cls-2" x="33.41" y="14.92" width="19.75" height="14.34" rx="3.21" ry="3.21"/><path class="cls-5" d="M70.4,13.59A97,97,0,0,0,87.47,0,95.48,95.48,0,0,0,50.69,23,96.65,96.65,0,0,0,70.4,13.59Z"/><path class="cls-5" d="M53.66,44.66a97.37,97.37,0,0,1-2,21.74,97.7,97.7,0,0,1-3-21.61,97.23,97.23,0,0,1,2-21.73A96.84,96.84,0,0,1,53.66,44.66Z"/><path class="cls-5" d="M32.79,10.48A97.19,97.19,0,0,1,50.69,23a97,97,0,0,1-20.26-8.09A96.63,96.63,0,0,1,12.53,2.39,97,97,0,0,1,32.79,10.48Z"/><path class="cls-4" d="M56.45,22.37c0,2.23-4,4-5.85,4s-3.32-1.84-3.3-4.07,1.52-4,3.36-4S56.47,20.13,56.45,22.37Z"/></svg>