<svg id="Layer_1" data-name="Layer 1" xmlns="http://www.w3.org/2000/svg" viewBox="0 0 100 100"><defs><style>.cls-1{fill:#6ab8d9;}.cls-2{fill:#5292ac;}.cls-3{fill:#3e3e3f;}.cls-4{fill:#ffc640;}</style></defs><title>piggy bank</title><rect class="cls-1" x="9.25" y="29.84" width="90.75" height="54.83" rx="12" ry="12"/><circle class="cls-1" cx="11.69" cy="57.92" r="11.69"/><rect class="cls-2" x="2.29" y="51.7" width="4.95" height="11.11" rx="1.1" ry="1.1"/><rect class="cls-2" x="10.78" y="51.7" width="4.95" height="11.11" rx="1.1" ry="1.1"/><circle class="cls-3" cx="34" cy="48.01" r="1.79"/><path class="cls-1" d="M23.88,27.57A6.38,6.38,0,0,1,15.32,37c-2.61-2.37-5.89-13.93-5.89-13.93S21.26,25.21,23.88,27.57Z"/><path class="cls-1" d="M40.17,27.57A6.38,6.38,0,0,1,31.62,37c-2.62-2.37-5.9-13.93-5.9-13.93S37.56,25.21,40.17,27.57Z"/><rect class="cls-2" x="48.18" y="30.9" width="25.49" height="4.83" rx="1.08" ry="1.08"/><circle class="cls-4" cx="60.92" cy="16.37" r="9.66"/><rect class="cls-1" x="34" y="77.88" width="6.76" height="15.41" rx="1.51" ry="1.51"/><rect class="cls-1" x="21.67" y="76.02" width="6.76" height="15.41" rx="1.51" ry="1.51"/><rect class="cls-1" x="79.8" y="77.88" width="6.76" height="15.41" rx="1.51" ry="1.51"/><rect class="cls-1" x="67.47" y="76.02" width="6.76" height="15.41" rx="1.51" ry="1.51"/></svg>