<svg id="Layer_1" data-name="Layer 1" xmlns="http://www.w3.org/2000/svg" viewBox="0 0 100 100"><defs><style>.cls-1{fill:#895e59;}.cls-2{fill:#fcca98;}.cls-3{fill:#3e3e3f;}.cls-4{fill:#fff;}.cls-5{fill:none;stroke:#3e3e3f;stroke-linecap:round;stroke-miterlimit:10;stroke-width:0.75px;}</style></defs><title>sloth</title><path class="cls-1" d="M81.47,67.92C81.47,80.75,67.4,91.14,50,91.14S18.62,80.75,18.62,67.92,26.47,0,50,0C74.25,0,81.47,55.1,81.47,67.92Z"/><rect class="cls-2" x="32.24" y="10.2" width="35.6" height="19.82" rx="4.52" ry="4.52"/><path class="cls-3" d="M41.47,14a3.56,3.56,0,0,1,0,5c-1.39,1.4-7,4.79-8.44,3.39s2-7,3.39-8.44A3.56,3.56,0,0,1,41.47,14Z"/><circle class="cls-4" cx="39.67" cy="15.96" r="0.91"/><path class="cls-3" d="M58.22,14a3.56,3.56,0,0,0,0,5c1.39,1.4,7,4.79,8.44,3.39s-2-7-3.39-8.44A3.56,3.56,0,0,0,58.22,14Z"/><circle class="cls-4" cx="60.02" cy="15.96" r="0.91"/><rect class="cls-3" x="44.99" y="20.33" width="9.71" height="5.58" rx="1.27" ry="1.27"/><path class="cls-5" d="M56.49,25.13h0c0,1.53-1.72,2.79-3.82,2.79H47c-2.1,0-3.82-1.26-3.82-2.79h0"/><path class="cls-1" d="M88.42,29.94C85,29.68,81.86,31,79.14,32.4a48.32,48.32,0,0,0-7.53,5.06,63.79,63.79,0,0,0-6.7,6.19l13.2,7.84a46.77,46.77,0,0,1,2.46-6.8,39.57,39.57,0,0,1,3.48-6.39,13.1,13.1,0,0,1,4.45-4.36V30Z"/><path class="cls-2" d="M92.9,31.79A7.71,7.71,0,0,0,88.5,30l-1,1.76,1,2.22a3,3,0,0,1,.3-.18A4.87,4.87,0,0,1,92,33.47a9,9,0,0,1,3.37,1.83A10,10,0,0,0,92.9,31.79Z"/><path class="cls-1" d="M11.58,29.94C15,29.68,18.14,31,20.86,32.4a48.32,48.32,0,0,1,7.53,5.06,63.79,63.79,0,0,1,6.7,6.19l-13.2,7.84a46.77,46.77,0,0,0-2.46-6.8A39.57,39.57,0,0,0,16,38.3a13.1,13.1,0,0,0-4.45-4.36V30Z"/><path class="cls-2" d="M7.1,31.79A7.71,7.71,0,0,1,11.5,30l1.05,1.76L11.5,33.94a3,3,0,0,0-.3-.18A4.87,4.87,0,0,0,8,33.47,9,9,0,0,0,4.65,35.3,10,10,0,0,1,7.1,31.79Z"/><path class="cls-1" d="M45.8,99.94c-3.44-.46-6.2-2.4-8.57-4.33a47.22,47.22,0,0,1-6.31-6.51,60.74,60.74,0,0,1-5.28-7.44l14.53-4.93a48.87,48.87,0,0,0,1,7.16,40.19,40.19,0,0,0,2.07,7,13.16,13.16,0,0,0,3.46,5.19l-.83,3.89Z"/><path class="cls-2" d="M50.57,99.06a7.7,7.7,0,0,1-4.69.88L45.22,98l1.49-2c.09.07.16.17.25.23a4.8,4.8,0,0,0,3,.94,9,9,0,0,0,3.68-1.08A10,10,0,0,1,50.57,99.06Z"/><path class="cls-1" d="M87.8,91.88c.72-3.4-.17-6.65-1.18-9.53a49.26,49.26,0,0,0-4-8.14,61.69,61.69,0,0,0-5.22-7.47l-9.55,12a47.23,47.23,0,0,1,6.41,3.37,39.31,39.31,0,0,1,5.86,4.3,13.21,13.21,0,0,1,3.72,5l3.94.54Z"/><path class="cls-2" d="M85.36,96.07A7.74,7.74,0,0,0,87.77,92l-1.61-1.28-2.33.74c0,.11.1.21.13.32a4.83,4.83,0,0,1-.14,3.19A8.94,8.94,0,0,1,81.56,98,9.85,9.85,0,0,0,85.36,96.07Z"/></svg>