<svg id="Layer_1" data-name="Layer 1" xmlns="http://www.w3.org/2000/svg" viewBox="0 0 100 100"><defs><style>.cls-1{fill:#bcd2de;}.cls-2{fill:#acc1cc;}.cls-3{fill:#e6e6e6;}.cls-4{fill:#dddfe0;}.cls-5{fill:#f8b5a8;}.cls-6{fill:#e3a69b;}</style></defs><title>marshmallows</title><path class="cls-1" d="M15.81,27.82H39.08a7,7,0,0,1,7,7v34a9.47,9.47,0,0,1-9.47,9.47H18.28a9.47,9.47,0,0,1-9.47-9.47v-34a7,7,0,0,1,7-7Z" transform="translate(-18.12 91.72) rotate(-102.96)"/><path class="cls-1" d="M19.89,26.88H43.16a7,7,0,0,1,7,7v34a9.47,9.47,0,0,1-9.47,9.47H22.36a9.47,9.47,0,0,1-9.47-9.47v-34a7,7,0,0,1,7-7Z" transform="translate(75.25 9.71) rotate(77.04)"/><ellipse class="cls-2" cx="11.71" cy="56.69" rx="7.38" ry="15.47" transform="translate(-12.42 4.07) rotate(-12.96)"/><path class="cls-3" d="M65.51,21.33H88.78a7,7,0,0,1,7,7v34a9.47,9.47,0,0,1-9.47,9.47H68a9.47,9.47,0,0,1-9.47-9.47v-34A7,7,0,0,1,65.51,21.33Z" transform="translate(-8.37 18.14) rotate(-12.73)"/><path class="cls-3" d="M68.91,25.41H89.7a7,7,0,0,1,7,7v34a9.47,9.47,0,0,1-9.47,9.47H68.91a9.47,9.47,0,0,1-9.47-9.47V34.89a9.47,9.47,0,0,1,9.47-9.47Z" transform="translate(165.38 82.89) rotate(167.27)"/><ellipse class="cls-4" cx="73.59" cy="30.83" rx="15.47" ry="7.38" transform="translate(-4.98 16.97) rotate(-12.73)"/><rect class="cls-5" x="35.02" y="36.9" width="37.27" height="50.51" rx="9.47" ry="9.47" transform="translate(115.81 8.5) rotate(90)"/><path class="cls-5" d="M37.83,36.9H61.1a7,7,0,0,1,7,7v34a9.47,9.47,0,0,1-9.47,9.47H40.3a9.47,9.47,0,0,1-9.47-9.47v-34A7,7,0,0,1,37.83,36.9Z" transform="translate(-12.69 111.62) rotate(-90)"/><ellipse class="cls-6" cx="69.8" cy="62.15" rx="7.38" ry="15.47"/></svg>