<svg id="Layer_1" data-name="Layer 1" xmlns="http://www.w3.org/2000/svg" viewBox="0 0 100 100"><defs><style>.cls-1{fill:#09a582;}.cls-2{fill:#ffc640;}.cls-3{fill:#f7953e;}.cls-4{fill:#3e3e3f;}.cls-5{fill:#fff;}.cls-6{fill:#c96730;}.cls-7{fill:#f37d3b;}</style></defs><title>time</title><path class="cls-1" d="M8.45,72.57c-2-4.13.7-9.86,7.78-16.58,6.61-6.25,16.3-12.62,27.29-17.92s22-8.93,31-10.2c9.67-1.36,15.83.1,17.82,4.23l-2.55,1.23c-1.34-2.79-6.9-3.78-14.87-2.65-8.73,1.23-19.45,4.76-30.18,9.94S24.58,52,18.18,58.05C12.34,63.58,9.66,68.55,11,71.34Z"/><rect class="cls-2" x="38.39" y="12.23" width="24" height="11.54" rx="3.06" ry="3.06"/><rect class="cls-3" x="41.44" y="19.72" width="17.9" height="4.06" rx="1.07" ry="1.07"/><rect class="cls-3" x="46.64" y="20.72" width="7.95" height="9.07" rx="2.1" ry="2.1"/><path class="cls-1" d="M92.34,72.57l-2.55-1.23c1.34-2.79-1.34-7.76-7.18-13.29C76.21,52,66.77,45.8,56,40.62s-21.45-8.71-30.18-9.94c-8-1.13-13.53-.14-14.87,2.65L8.43,32.1c2-4.13,8.15-5.59,17.82-4.23,9,1.27,20,4.9,31,10.2S78,49.74,84.56,56C91.64,62.71,94.33,68.44,92.34,72.57Z"/><circle class="cls-2" cx="50.38" cy="56.51" r="31.26"/><circle class="cls-3" cx="50.38" cy="54.51" r="20.71"/><circle class="cls-4" cx="50.38" cy="56.99" r="20.71"/><path class="cls-5" d="M48.5,57,50.38,38.6,52.27,57a1.9,1.9,0,1,1-3.77.39A1.27,1.27,0,0,1,48.5,57Z"/><path class="cls-5" d="M51.86,58.33,37.52,70,49.19,55.66a1.89,1.89,0,1,1,2.94,2.39A1.79,1.79,0,0,1,51.86,58.33Z"/><path class="cls-1" d="M80.94,77.29a46.56,46.56,0,0,1-6.42-.49c-9-1.28-20-4.9-31-10.2S22.82,54.93,16.21,48.67C9.13,42,6.44,36.23,8.43,32.1L11,33.33c-1.34,2.78,1.34,7.75,7.18,13.29C24.56,52.68,34,58.87,44.74,64.05S66.19,72.76,74.92,74c8,1.13,13.53.13,14.87-2.65l2.55,1.23C90.83,75.69,86.94,77.29,80.94,77.29Z"/><path class="cls-1" d="M19.85,77.29c-6,0-9.89-1.6-11.4-4.72L11,71.34c1.34,2.78,6.91,3.78,14.87,2.65,8.73-1.23,19.45-4.76,30.18-9.94S76.23,52.68,82.63,46.62c5.84-5.54,8.52-10.51,7.18-13.29l2.55-1.23c2,4.13-.7,9.86-7.78,16.57C78,54.93,68.28,61.3,57.29,66.6s-22,8.92-31,10.2A46.56,46.56,0,0,1,19.85,77.29Z"/><path class="cls-6" d="M21.9,77.56,20.34,77a.34.34,0,0,0,0,.2c-.21-.6-3.11-2.68-8.91-4.78s-9.37-2.36-9.91-2a.32.32,0,0,0,.11-.16L.07,69.67C1,67.05,10.15,70.21,12,70.86a43.21,43.21,0,0,1,7.1,3.24C21.39,75.49,22.26,76.56,21.9,77.56Z"/><circle class="cls-7" cx="11.44" cy="73.18" r="6.82"/><path class="cls-6" d="M19.45,78.58c-3.11,0-8.16-1.75-9.46-2.22C8.17,75.7-.88,72.28.07,69.67l1.55.56a.3.3,0,0,0,0-.2c.2.6,3.11,2.68,8.91,4.78s9.37,2.36,9.91,2a.32.32,0,0,0-.12.16l1.56.56C21.63,78.31,20.69,78.58,19.45,78.58Z"/><path class="cls-7" d="M66.86,57.55a1.93,1.93,0,1,1-1.93-1.93A1.92,1.92,0,0,1,66.86,57.55Z"/><circle class="cls-7" cx="72.18" cy="53.4" r="3.02"/><circle class="cls-7" cx="79.25" cy="47.39" r="4.52"/><circle class="cls-7" cx="85.75" cy="37.01" r="5.8"/></svg>