<svg id="Layer_1" data-name="Layer 1" xmlns="http://www.w3.org/2000/svg" viewBox="0 0 100 100"><defs><style>.cls-1{fill:#6f7073;}.cls-2{fill:#87898b;}.cls-3{fill:#f37d3b;}.cls-4{fill:#b5b7b9;}.cls-5{fill:#171717;}</style></defs><title>seal</title><rect class="cls-1" x="3.2" y="52.76" width="18.05" height="6.79" rx="1.62" ry="1.62" transform="translate(2.45 -0.48) rotate(2.49)"/><rect class="cls-1" x="0.03" y="58.47" width="18.05" height="6.79" rx="1.62" ry="1.62" transform="matrix(1, 0.04, -0.04, 1, 2.69, -0.33)"/><rect class="cls-1" x="3.17" y="60.94" width="18.05" height="6.79" rx="1.62" ry="1.62" transform="translate(2.8 -0.47) rotate(2.49)"/><rect class="cls-1" x="12.04" y="57.13" width="18.05" height="6.79" rx="1.62" ry="1.62" transform="translate(2.65 -0.86) rotate(2.49)"/><rect class="cls-1" x="4.19" y="62.24" width="18.05" height="6.79" rx="1.62" ry="1.62" transform="translate(-9.83 2.77) rotate(-8.75)"/><rect class="cls-1" x="2.19" y="68.45" width="18.05" height="6.79" rx="1.62" ry="1.62" transform="translate(-10.8 2.54) rotate(-8.75)"/><rect class="cls-1" x="5.75" y="70.27" width="18.05" height="6.79" rx="1.62" ry="1.62" transform="translate(-11.03 3.1) rotate(-8.75)"/><rect class="cls-1" x="13.71" y="64.8" width="18.05" height="6.79" rx="1.62" ry="1.62" transform="translate(-10.11 4.25) rotate(-8.75)"/><path class="cls-2" d="M82.77,17.14c40,6.89,1.91,66-27.15,66-19.52,0-35.34-20.3-35.34-20.3s15.82-20.3,35.34-20.3S61.84,13.53,82.77,17.14Z"/><rect class="cls-3" x="78.53" y="33.17" width="4" height="4.51" rx="0.95" ry="0.95" transform="translate(9.12 -15.96) rotate(11.99)"/><rect class="cls-4" x="78.07" y="24.75" width="6.83" height="12.37" rx="1.48" ry="1.48" transform="translate(34.3 104.22) rotate(-78.01)"/><circle class="cls-4" cx="78.31" cy="31.2" r="4.34"/><circle class="cls-4" cx="84.42" cy="32.5" r="4.34"/><circle class="cls-5" cx="72.09" cy="24.46" r="0.57"/><circle class="cls-5" cx="92.04" cy="28.7" r="0.57"/><path class="cls-5" d="M83.86,28.31a1.77,1.77,0,1,1-3.47-.74c.2-1,1-1,2-.78S84.07,27.35,83.86,28.31Z"/><circle class="cls-2" cx="75.51" cy="29.87" r="0.28"/><circle class="cls-2" cx="77.03" cy="28.88" r="0.28"/><circle class="cls-2" cx="76.5" cy="31.39" r="0.28"/><circle class="cls-2" cx="78.02" cy="30.4" r="0.28"/><circle class="cls-2" cx="77.49" cy="32.9" r="0.28"/><circle class="cls-2" cx="79" cy="31.92" r="0.28"/><circle class="cls-2" cx="87.21" cy="32.35" r="0.28"/><circle class="cls-2" cx="86.23" cy="30.83" r="0.28"/><circle class="cls-2" cx="85.7" cy="33.34" r="0.28"/><circle class="cls-2" cx="84.71" cy="31.82" r="0.28"/><circle class="cls-2" cx="84.18" cy="34.33" r="0.28"/><circle class="cls-2" cx="83.19" cy="32.81" r="0.28"/><path class="cls-1" d="M58.87,45c1.49,3.52,1.28,10.51,1.28,10.51S43.59,49.17,43.59,45a7.64,7.64,0,0,1,7.64-7.64C55.45,37.31,57.23,41.06,58.87,45Z"/><path class="cls-1" d="M71.53,46.7c-3.19-2.1-10.1-3.16-10.1-3.16S64.6,61,68.75,61.73a7.64,7.64,0,0,0,8.91-6.12C78.43,51.46,75.06,49,71.53,46.7Z"/></svg>