<svg id="Layer_1" data-name="Layer 1" xmlns="http://www.w3.org/2000/svg" viewBox="0 0 100 100"><defs><style>.cls-1{fill:#b87566;}.cls-2{fill:#9c9c9c;}.cls-3{fill:#b07062;}.cls-4,.cls-7{fill:#f69a85;}.cls-5{fill:#bcd2de;}.cls-6{fill:#58595b;}.cls-7{stroke:#f69a85;stroke-linecap:round;stroke-linejoin:round;stroke-width:2px;}.cls-8{fill:#ffc640;}</style></defs><title>helicopter</title><rect class="cls-1" x="53.31" y="17.69" width="5.29" height="16.32" rx="1.23" ry="1.23"/><rect class="cls-2" x="42.91" y="65.75" width="4.66" height="20.8" rx="1.08" ry="1.08"/><rect class="cls-2" x="68.19" y="65.75" width="4.66" height="20.8" rx="1.08" ry="1.08"/><rect class="cls-3" x="26.41" y="81.8" width="66.17" height="11.12" rx="2.58" ry="2.58"/><rect class="cls-4" x="26.41" y="29.44" width="66.17" height="44.65" rx="10.37" ry="10.37"/><rect class="cls-4" x="4.17" y="36.43" width="38.74" height="8.61" rx="2" ry="2"/><path class="cls-5" d="M70,34.75A17.27,17.27,0,0,1,87.24,52h0A17.27,17.27,0,0,1,70,69.2"/><polygon class="cls-4" points="87.69 51.98 55.41 51.98 55.41 70.1 78.97 70.1 87.69 61.38 87.69 51.98"/><rect class="cls-5" x="48.82" y="34.75" width="14.79" height="17.22"/><path class="cls-6" d="M99.1,12.48,56.65,13.71l-.56.12.56-.12-1.19,0,1.19,0L81.12,8.28a241.55,241.55,0,0,0-24.9-1.2c-24.18,0-43.78,3-43.78,6.76S32,20.6,56.22,20.6s43.78-3,43.78-6.76A1.85,1.85,0,0,0,99.1,12.48Z"/><polyline class="cls-7" points="7.64 40.47 7.64 27.55 15.58 38.4"/><path class="cls-6" d="M8.11,41.6,8,41.81l.08-.21-.53.21.53-.21,3.1-7.5a8.1,8.1,0,1,0,5,7.48,8,8,0,0,0-.58-2.94Z"/><rect class="cls-8" x="70.52" y="55.24" width="11.24" height="4" rx="0.87" ry="0.87"/><rect class="cls-8" x="48.82" y="55.24" width="11.24" height="4" rx="0.87" ry="0.87"/></svg>