<svg id="Layer_1" data-name="Layer 1" xmlns="http://www.w3.org/2000/svg" xmlns:xlink="http://www.w3.org/1999/xlink" viewBox="0 0 100 100"><defs><style>.cls-1{fill:none;}.cls-2{fill:#fffacb;}.cls-3{fill:#f37d3b;}.cls-4{opacity:0.46;fill:url(#New_Pattern_Swatch_3);}.cls-5{fill:#e37537;}.cls-6{fill:#805853;}.cls-7{fill:#09a582;}.cls-8{fill:#895e59;}.cls-9{fill:#f05c38;}.cls-10{fill:#714c48;}.cls-11{fill:#ffc640;}.cls-12{fill:#e4b23a;}</style><pattern id="New_Pattern_Swatch_3" data-name="New Pattern Swatch 3" width="13.31" height="7.02" patternTransform="translate(9.85 -36.9) scale(2.07)" patternUnits="userSpaceOnUse" viewBox="0 0 13.31 7.02"><rect class="cls-1" width="13.31" height="7.02"/><polygon class="cls-2" points="6.66 1.74 9.98 3.49 13.31 1.74 9.98 0 6.66 1.74"/><polygon class="cls-2" points="6.66 5.28 9.98 7.02 13.31 5.28 9.98 3.53 6.66 5.28"/><polygon class="cls-2" points="0 1.74 3.33 3.49 6.66 1.74 3.33 0 0 1.74"/><polygon class="cls-2" points="0 5.28 3.33 7.02 6.66 5.28 3.33 3.53 0 5.28"/></pattern></defs><title>picnic</title><path class="cls-3" d="M50,83.9a2.91,2.91,0,0,1-1.38-.34L4.58,60.5a3,3,0,0,1,0-5.28l44-23.06A2.91,2.91,0,0,1,50,31.82a3,3,0,0,1,1.39.34l44,23.06a3,3,0,0,1,0,5.28l-44,23.06A3,3,0,0,1,50,83.9Z"/><path class="cls-4" d="M50,83.9a2.91,2.91,0,0,1-1.38-.34L4.58,60.5a3,3,0,0,1,0-5.28l44-23.06A2.91,2.91,0,0,1,50,31.82a3,3,0,0,1,1.39.34l44,23.06a3,3,0,0,1,0,5.28l-44,23.06A3,3,0,0,1,50,83.9Z"/><path class="cls-5" d="M50,34.8,94,57.86,50,80.92,6,57.86,50,34.8m0-6a6,6,0,0,0-2.77.68L3.2,52.58a6,6,0,0,0,0,10.56l44,23.06a5.91,5.91,0,0,0,5.54,0l44-23.06a6,6,0,0,0,0-10.56l-44-23.07A6,6,0,0,0,50,28.83Z"/><path class="cls-6" d="M70.2,54C64,54,60.82,43.72,60.82,33.56S64,13.11,70.2,13.11s9.38,10.29,9.38,20.45S76.36,54,70.2,54Zm0-36.85c-2.13,0-5.34,6.55-5.34,16.41S68.07,50,70.2,50s5.34-6.54,5.34-16.4S72.33,17.15,70.2,17.15Z"/><rect class="cls-7" x="52.7" y="26.46" width="6.65" height="13.88" rx="1.6" ry="1.6"/><rect class="cls-7" x="54.72" y="22.48" width="2.64" height="8.86" rx="0.64" ry="0.64"/><rect class="cls-6" x="55.14" y="21.22" width="1.88" height="2.72" rx="0.45" ry="0.45"/><rect class="cls-7" x="62.07" y="29" width="6.65" height="13.88" rx="1.6" ry="1.6" transform="translate(16.41 -20.35) rotate(20.18)"/><rect class="cls-7" x="66.32" y="25.42" width="2.64" height="8.86" rx="0.64" ry="0.64" transform="translate(14.44 -21.5) rotate(20.17)"/><rect class="cls-6" x="68.24" y="24.44" width="1.88" height="2.72" rx="0.45" ry="0.45" transform="translate(13.14 -22.28) rotate(20.18)"/><path class="cls-6" d="M49.07,35.38c0,.45-.07.89-.07,1.35v1.12A16.2,16.2,0,0,0,65.15,54H73.9A16.2,16.2,0,0,0,90.06,37.85V36.73c0-.46,0-.9-.07-1.35Z"/><path class="cls-2" d="M54.44,35.44S66.67,45.87,64.87,49.23c0,0,15.37-5.6,17.39-14.3"/><rect class="cls-8" x="45.8" y="32.41" width="48.79" height="5.05" rx="1.22" ry="1.22"/><rect class="cls-7" x="17.89" y="44.41" width="6.65" height="13.88" rx="1.6" ry="1.6" transform="translate(72.56 30.14) rotate(90)"/><rect class="cls-7" x="26.38" y="46.93" width="2.64" height="8.86" rx="0.64" ry="0.64" transform="translate(79.06 23.66) rotate(90)"/><rect class="cls-6" x="31.09" y="50.04" width="1.88" height="2.72" rx="0.45" ry="0.45" transform="translate(83.44 19.37) rotate(90)"/><circle class="cls-9" cx="43.34" cy="58.69" r="8.23"/><path class="cls-10" d="M41.77,58.94l-1,.32a11,11,0,0,0,0,1.72l1.17.32.47-1.18A10.25,10.25,0,0,1,41.77,58.94Z"/><path class="cls-11" d="M62.5,57.36A11.06,11.06,0,0,1,44,62.23a11.24,11.24,0,0,1-1.63-2.11L40.76,61A11,11,0,1,0,62.5,57.36Z"/><circle class="cls-12" cx="58.69" cy="65.12" r="0.42"/><circle class="cls-12" cx="51.57" cy="66.31" r="0.42"/><circle class="cls-12" cx="45.12" cy="67.33" r="0.42"/><circle class="cls-12" cx="54.92" cy="69.06" r="1.04"/><polygon class="cls-10" points="61.94 59.65 61.74 56.14 65 57.51 62.42 59.83 61.94 59.65"/><polygon class="cls-10" points="46.13 52.36 45.93 48.85 49.2 50.22 46.62 52.54 46.13 52.36"/><path class="cls-7" d="M47.86,55.79c0,1.9-1.93,3.44-1.93,3.44S44,57.69,44,55.79s.86-3.45,1.92-3.45S47.86,53.88,47.86,55.79Z"/></svg>