<svg id="Layer_1" data-name="Layer 1" xmlns="http://www.w3.org/2000/svg" viewBox="0 0 100 100"><defs><style>.cls-1{fill:none;stroke:#376a7e;stroke-linecap:round;stroke-miterlimit:10;stroke-width:0.6px;}.cls-2{fill:#376a7e;}.cls-3{fill:#02896c;}.cls-4{fill:#ffc640;}.cls-5{fill:#6ab8d9;}.cls-6{fill:#09a582;}.cls-7{fill:#5ca1be;}.cls-8{fill:#fff;}.cls-9{fill:#ffc63f;}.cls-10{fill:#231f20;}</style></defs><title>peacock</title><path class="cls-1" d="M41.11,15.83s-.58-2.77-1.88-3.87"/><path class="cls-1" d="M42.94,10.23s.63-8.1-4-4.81"/><path class="cls-1" d="M56.73,15.83s.57-2.77,1.88-3.87"/><path class="cls-1" d="M54.9,10.23s-.63-8.1,4-4.81"/><path class="cls-2" d="M48.9,4.46c4.05,0,7.33,9.39,7.33,13.43a7.33,7.33,0,0,1-14.65,0c0-4,3.28-13.43,7.32-13.43m0-.6c-4.57,0-7.92,9.85-7.92,14a7.92,7.92,0,0,0,15.84,0c0-4.18-3.34-14-7.92-14Z"/><rect class="cls-2" x="48.33" y="24.46" width="1.15" height="23.33" rx="0.27" ry="0.27"/><rect class="cls-2" x="38.6" y="27.48" width="12.55" height="1.15" rx="0.27" ry="0.27" transform="translate(32.98 -23.51) rotate(45)"/><rect class="cls-2" x="38.6" y="31.84" width="12.55" height="1.15" rx="0.27" ry="0.27" transform="translate(36.06 -22.24) rotate(45)"/><rect class="cls-2" x="38.6" y="36.19" width="12.55" height="1.15" rx="0.27" ry="0.27" transform="translate(39.14 -20.96) rotate(45)"/><rect class="cls-2" x="38.6" y="40.55" width="12.55" height="1.15" rx="0.27" ry="0.27" transform="translate(42.22 -19.68) rotate(45)"/><rect class="cls-2" x="46.66" y="27.48" width="12.55" height="1.15" rx="0.27" ry="0.27" transform="translate(110.2 10.46) rotate(135)"/><rect class="cls-2" x="46.66" y="31.84" width="12.55" height="1.15" rx="0.27" ry="0.27" transform="translate(113.28 17.9) rotate(135)"/><rect class="cls-2" x="46.66" y="36.19" width="12.55" height="1.15" rx="0.27" ry="0.27" transform="translate(116.36 25.34) rotate(135)"/><rect class="cls-2" x="46.66" y="40.55" width="12.55" height="1.15" rx="0.27" ry="0.27" transform="translate(119.45 32.78) rotate(135)"/><path class="cls-3" d="M56.23,17.89a7.33,7.33,0,0,1-14.65,0c0-4,3.28-13.43,7.32-13.43S56.23,13.85,56.23,17.89Z"/><path class="cls-4" d="M54,18.17a5.09,5.09,0,0,1-10.18,0c0-2.81,2.28-9.34,5.09-9.34S54,15.36,54,18.17Z"/><path class="cls-5" d="M52.17,19.47a3.27,3.27,0,1,1-6.53,0c0-1.81,1.46-6,3.26-6S52.17,17.66,52.17,19.47Z"/><path class="cls-2" d="M50.75,20.58a1.85,1.85,0,0,1-3.69,0c0-1,.83-3.38,1.84-3.38S50.75,19.56,50.75,20.58Z"/><path class="cls-1" d="M48.33,3.87S44.23,2.48,46,0"/><path class="cls-1" d="M49.48,3.87S53.58,2.48,51.8,0"/><path class="cls-1" d="M61.77,16.82s.84-2.71.22-4.3"/><path class="cls-1" d="M66.08,12.8S70.54,6,64.92,6.67"/><path class="cls-1" d="M75.46,24.35S77.3,22.2,79,21.87"/><path class="cls-1" d="M76.55,18.57s3.36-7.41,5.8-2.3"/><path class="cls-2" d="M72.61,10.27a3,3,0,0,1,1.47.35c3.55,2,1.89,11.75-.06,15.3a7.32,7.32,0,0,1-12.83-7.07c1.71-3.1,7.6-8.58,11.42-8.58m0-.6h0c-4.14,0-10.22,5.77-11.94,8.89A7.92,7.92,0,1,0,74.55,26.2a23.23,23.23,0,0,0,2.16-8.49c.27-3.93-.56-6.63-2.34-7.61a3.5,3.5,0,0,0-1.76-.43Z"/><rect class="cls-2" x="58.24" y="26.69" width="1.15" height="23.33" rx="0.27" ry="0.27" transform="translate(25.79 -23.61) rotate(28.84)"/><rect class="cls-2" x="52.9" y="28.77" width="12.55" height="1.15" rx="0.27" ry="0.27" transform="translate(70.89 -35.66) rotate(73.84)"/><rect class="cls-2" x="50.8" y="32.58" width="12.55" height="1.15" rx="0.27" ry="0.27" transform="translate(73.04 -30.89) rotate(73.84)"/><rect class="cls-2" x="48.7" y="36.4" width="12.55" height="1.15" rx="0.27" ry="0.27" transform="translate(75.19 -26.11) rotate(73.84)"/><rect class="cls-2" x="46.59" y="40.22" width="12.55" height="1.15" rx="0.27" ry="0.27" transform="translate(77.34 -21.34) rotate(73.84)"/><rect class="cls-2" x="59.96" y="32.65" width="12.55" height="1.15" rx="0.27" ry="0.27" transform="translate(139.11 46.71) rotate(163.84)"/><rect class="cls-2" x="57.86" y="36.47" width="12.55" height="1.15" rx="0.27" ry="0.27" transform="translate(136.05 54.78) rotate(163.84)"/><rect class="cls-2" x="55.76" y="40.29" width="12.55" height="1.15" rx="0.27" ry="0.27" transform="translate(132.99 62.85) rotate(163.84)"/><rect class="cls-2" x="53.65" y="44.11" width="12.55" height="1.15" rx="0.27" ry="0.27" transform="translate(129.93 70.92) rotate(163.84)"/><path class="cls-3" d="M74,25.92a7.32,7.32,0,0,1-12.83-7.07c2-3.54,9.35-10.18,12.89-8.23S76,22.37,74,25.92Z"/><path class="cls-4" d="M71.93,25.08A5.09,5.09,0,1,1,63,20.17c1.36-2.46,6.5-7.08,9-5.72S73.29,22.62,71.93,25.08Z"/><path class="cls-5" d="M69.71,25.34A3.27,3.27,0,1,1,64,22.19c.87-1.58,4.18-4.54,5.76-3.67S70.58,23.76,69.71,25.34Z"/><path class="cls-2" d="M67.93,25.63a1.84,1.84,0,0,1-3.23-1.78c.49-.89,2.35-2.56,3.24-2.07S68.42,24.74,67.93,25.63Z"/><path class="cls-1" d="M73.87,9.83S71,6.63,73.7,5.32"/><path class="cls-1" d="M74.87,10.38s4.27.75,3.9-2.27"/><path class="cls-1" d="M35.93,16.82s-.83-2.71-.22-4.3"/><path class="cls-1" d="M31.63,12.8S27.17,6,32.79,6.67"/><path class="cls-1" d="M22.25,24.35s-1.84-2.15-3.52-2.48"/><path class="cls-1" d="M21.15,18.57s-3.36-7.41-5.8-2.3"/><path class="cls-2" d="M25.1,10.27c3.81,0,9.7,5.48,11.41,8.58a7.32,7.32,0,1,1-12.83,7.07c-1.95-3.55-3.6-13.35-.06-15.3a3.05,3.05,0,0,1,1.48-.35m0-.6a3.54,3.54,0,0,0-1.77.43c-1.78,1-2.61,3.68-2.34,7.61a23,23,0,0,0,2.17,8.49A7.92,7.92,0,1,0,37,18.56c-1.72-3.12-7.8-8.89-11.93-8.89Z"/><rect class="cls-2" x="38.31" y="26.69" width="1.15" height="23.33" rx="0.27" ry="0.27" transform="translate(91.46 53.2) rotate(151.16)"/><rect class="cls-2" x="32.25" y="28.77" width="12.55" height="1.15" rx="0.27" ry="0.27" transform="translate(77.43 0.5) rotate(106.16)"/><rect class="cls-2" x="34.35" y="32.58" width="12.55" height="1.15" rx="0.27" ry="0.27" transform="matrix(-0.28, 0.96, -0.96, -0.28, 83.79, 3.37)"/><rect class="cls-2" x="36.46" y="36.4" width="12.55" height="1.15" rx="0.27" ry="0.27" transform="translate(90.14 6.23) rotate(106.16)"/><rect class="cls-2" x="38.56" y="40.22" width="12.55" height="1.15" rx="0.27" ry="0.27" transform="translate(96.5 9.09) rotate(106.16)"/><rect class="cls-2" x="25.19" y="32.65" width="12.55" height="1.15" rx="0.27" ry="0.27" transform="translate(10.49 -7.45) rotate(16.16)"/><rect class="cls-2" x="27.29" y="36.47" width="12.55" height="1.15" rx="0.27" ry="0.27" transform="translate(11.64 -7.88) rotate(16.16)"/><rect class="cls-2" x="29.39" y="40.29" width="12.55" height="1.15" rx="0.27" ry="0.27" transform="translate(12.78 -8.31) rotate(16.16)"/><rect class="cls-2" x="31.5" y="44.11" width="12.55" height="1.15" rx="0.27" ry="0.27" transform="translate(13.93 -8.75) rotate(16.16)"/><path class="cls-3" d="M23.68,25.92a7.32,7.32,0,0,0,12.83-7.07c-1.95-3.54-9.35-10.18-12.89-8.23S21.73,22.37,23.68,25.92Z"/><path class="cls-4" d="M25.77,25.08a5.09,5.09,0,1,0,8.92-4.91c-1.36-2.46-6.5-7.08-9-5.72S24.41,22.62,25.77,25.08Z"/><path class="cls-5" d="M28,25.34a3.27,3.27,0,1,0,5.73-3.15c-.87-1.58-4.17-4.54-5.75-3.67S27.12,23.76,28,25.34Z"/><path class="cls-2" d="M29.78,25.63A1.84,1.84,0,0,0,33,23.85c-.49-.89-2.36-2.56-3.25-2.07S29.29,24.74,29.78,25.63Z"/><path class="cls-1" d="M23.84,9.83s2.91-3.2.16-4.51"/><path class="cls-1" d="M22.83,10.38s-4.26.75-3.9-2.27"/><path class="cls-1" d="M10.7,42.34s-2.37-1.55-4.07-1.4"/><path class="cls-1" d="M8,37.09s-5.29-6.18-6.22-.59"/><path class="cls-1" d="M21.74,31.3s-1.55-2.37-1.4-4.07"/><path class="cls-1" d="M16.49,28.64s-6.17-5.29-.59-6.22"/><path class="cls-2" d="M11,27.85c3.86,0,9.66,3.06,11.85,5.26A7.32,7.32,0,0,1,12.49,43.47C9.63,40.61,5.31,31.65,8.17,28.79A3.89,3.89,0,0,1,11,27.85m0-.59h0a4.41,4.41,0,0,0-3.24,1.11c-3.24,3.24,1.36,12.56,4.32,15.52a7.92,7.92,0,0,0,11.2-11.2c-2.22-2.22-8.1-5.43-12.28-5.43Z"/><rect class="cls-2" x="29.99" y="39.52" width="1.15" height="23.33" rx="0.27" ry="0.27" transform="translate(-27.24 36.6) rotate(-45)"/><rect class="cls-2" x="15.73" y="47.75" width="12.55" height="1.15" rx="0.27" ry="0.27"/><rect class="cls-2" x="18.81" y="50.83" width="12.55" height="1.15" rx="0.27" ry="0.27"/><rect class="cls-2" x="21.89" y="53.91" width="12.55" height="1.15" rx="0.27" ry="0.27"/><rect class="cls-2" x="24.97" y="56.99" width="12.55" height="1.15" rx="0.27" ry="0.27"/><rect class="cls-2" x="21.43" y="42.05" width="12.55" height="1.15" rx="0.27" ry="0.27" transform="translate(70.33 14.92) rotate(90)"/><rect class="cls-2" x="24.51" y="45.13" width="12.55" height="1.15" rx="0.27" ry="0.27" transform="translate(76.49 14.92) rotate(90)"/><rect class="cls-2" x="27.59" y="48.21" width="12.55" height="1.15" rx="0.27" ry="0.27" transform="translate(82.65 14.92) rotate(90)"/><rect class="cls-2" x="30.67" y="51.29" width="12.55" height="1.15" rx="0.27" ry="0.27" transform="translate(88.82 14.92) rotate(90)"/><path class="cls-3" d="M22.84,33.11A7.32,7.32,0,0,1,12.49,43.47C9.63,40.61,5.31,31.65,8.17,28.79S20,30.25,22.84,33.11Z"/><path class="cls-4" d="M21.46,34.89a5.09,5.09,0,0,1-7.2,7.19c-2-2-5-8.21-3-10.2S19.48,32.9,21.46,34.89Z"/><path class="cls-5" d="M21.09,37.09a3.27,3.27,0,1,1-4.62,4.62c-1.27-1.27-3.2-5.27-1.92-6.54S19.82,35.82,21.09,37.09Z"/><path class="cls-2" d="M20.87,38.89a1.84,1.84,0,0,1-2.6,2.6c-.72-.72-1.81-3-1.09-3.69S20.15,38.17,20.87,38.89Z"/><path class="cls-1" d="M7.35,28.78S3.46,30.69,3,27.68"/><path class="cls-1" d="M8.16,28s1.91-3.89-1.1-4.38"/><path class="cls-1" d="M89.3,42.34s2.37-1.55,4.07-1.4"/><path class="cls-1" d="M92,37.09s5.29-6.18,6.22-.59"/><path class="cls-1" d="M78.26,31.3s1.55-2.37,1.4-4.07"/><path class="cls-1" d="M83.51,28.64s6.17-5.29.59-6.22"/><path class="cls-2" d="M89,27.85a3.89,3.89,0,0,1,2.82.94c2.86,2.86-1.46,11.82-4.32,14.68A7.32,7.32,0,0,1,77.16,33.11c2.19-2.2,8-5.26,11.85-5.26m0-.59c-4.18,0-10.06,3.21-12.28,5.43a7.92,7.92,0,1,0,11.2,11.2,23.33,23.33,0,0,0,4.45-7.55c1.35-3.71,1.3-6.54-.13-8A4.41,4.41,0,0,0,89,27.26Z"/><rect class="cls-2" x="68.86" y="39.52" width="1.15" height="23.33" rx="0.27" ry="0.27" transform="translate(82.35 136.47) rotate(-135)"/><rect class="cls-2" x="71.72" y="47.75" width="12.55" height="1.15" rx="0.27" ry="0.27" transform="translate(155.99 96.65) rotate(180)"/><rect class="cls-2" x="68.64" y="50.83" width="12.55" height="1.15" rx="0.27" ry="0.27" transform="translate(149.83 102.81) rotate(-180)"/><rect class="cls-2" x="65.56" y="53.91" width="12.55" height="1.15" rx="0.27" ry="0.27" transform="translate(143.67 108.97) rotate(-180)"/><rect class="cls-2" x="62.47" y="56.99" width="12.55" height="1.15" rx="0.27" ry="0.27" transform="translate(137.5 115.14) rotate(180)"/><rect class="cls-2" x="66.02" y="42.05" width="12.55" height="1.15" rx="0.27" ry="0.27" transform="translate(114.92 -29.67) rotate(90)"/><rect class="cls-2" x="62.94" y="45.13" width="12.55" height="1.15" rx="0.27" ry="0.27" transform="translate(114.92 -23.51) rotate(90)"/><rect class="cls-2" x="59.86" y="48.21" width="12.55" height="1.15" rx="0.27" ry="0.27" transform="translate(114.92 -17.35) rotate(90)"/><rect class="cls-2" x="56.78" y="51.29" width="12.55" height="1.15" rx="0.27" ry="0.27" transform="translate(114.92 -11.18) rotate(90)"/><path class="cls-3" d="M77.16,33.11A7.32,7.32,0,0,0,87.51,43.47c2.86-2.86,7.18-11.82,4.32-14.68S80,30.25,77.16,33.11Z"/><path class="cls-4" d="M78.54,34.89a5.09,5.09,0,0,0,7.2,7.19c2-2,5-8.21,3-10.2S80.52,32.9,78.54,34.89Z"/><path class="cls-5" d="M78.91,37.09a3.27,3.27,0,1,0,4.62,4.62c1.27-1.27,3.2-5.27,1.92-6.54S80.18,35.82,78.91,37.09Z"/><path class="cls-2" d="M79.13,38.89a1.84,1.84,0,0,0,2.6,2.6c.72-.72,1.81-3,1.09-3.69S79.85,38.17,79.13,38.89Z"/><path class="cls-1" d="M92.65,28.78s3.89,1.91,4.38-1.1"/><path class="cls-1" d="M91.84,28s-1.91-3.89,1.1-4.38"/><path class="cls-1" d="M41.11,37.52s-.58-2.77-1.88-3.87"/><path class="cls-1" d="M42.94,31.92s.63-8.1-4-4.81"/><path class="cls-1" d="M56.73,37.52s.57-2.77,1.88-3.87"/><path class="cls-1" d="M54.9,31.92s-.63-8.1,4-4.81"/><path class="cls-2" d="M48.9,26.15c4.05,0,7.33,9.39,7.33,13.43a7.33,7.33,0,0,1-14.65,0c0-4,3.28-13.43,7.32-13.43m0-.6c-4.57,0-7.92,9.85-7.92,14a7.92,7.92,0,0,0,15.84,0c0-4.18-3.34-14-7.92-14Z"/><rect class="cls-6" x="48.33" y="46.15" width="1.15" height="23.33" rx="0.27" ry="0.27"/><rect class="cls-6" x="38.6" y="49.17" width="12.55" height="1.15" rx="0.27" ry="0.27" transform="translate(48.32 -17.16) rotate(45)"/><rect class="cls-6" x="38.6" y="53.53" width="12.55" height="1.15" rx="0.27" ry="0.27" transform="translate(51.4 -15.88) rotate(45)"/><rect class="cls-6" x="38.6" y="57.88" width="12.55" height="1.15" rx="0.27" ry="0.27" transform="translate(54.48 -14.61) rotate(45)"/><rect class="cls-6" x="38.6" y="62.24" width="12.55" height="1.15" rx="0.27" ry="0.27" transform="translate(57.56 -13.33) rotate(45)"/><rect class="cls-6" x="46.66" y="49.17" width="12.55" height="1.15" rx="0.27" ry="0.27" transform="translate(125.54 47.48) rotate(135)"/><rect class="cls-6" x="46.66" y="53.53" width="12.55" height="1.15" rx="0.27" ry="0.27" transform="translate(128.62 54.92) rotate(135)"/><rect class="cls-6" x="46.66" y="57.88" width="12.55" height="1.15" rx="0.27" ry="0.27" transform="translate(131.7 62.37) rotate(135)"/><rect class="cls-6" x="46.66" y="62.24" width="12.55" height="1.15" rx="0.27" ry="0.27" transform="translate(134.78 69.81) rotate(135)"/><path class="cls-3" d="M56.23,39.58a7.33,7.33,0,0,1-14.65,0c0-4,3.28-13.43,7.32-13.43S56.23,35.54,56.23,39.58Z"/><path class="cls-4" d="M54,39.86a5.09,5.09,0,0,1-10.18,0c0-2.81,2.28-9.34,5.09-9.34S54,37.05,54,39.86Z"/><path class="cls-5" d="M52.17,41.16a3.27,3.27,0,1,1-6.53,0c0-1.81,1.46-6,3.26-6S52.17,39.35,52.17,41.16Z"/><path class="cls-6" d="M50.75,42.27a1.85,1.85,0,0,1-3.69,0c0-1,.83-3.38,1.84-3.38S50.75,41.25,50.75,42.27Z"/><path class="cls-1" d="M48.33,25.56s-4.1-1.39-2.32-3.87"/><path class="cls-1" d="M49.48,25.56s4.1-1.39,2.32-3.87"/><path class="cls-1" d="M61.77,38.51s.84-2.71.22-4.3"/><path class="cls-1" d="M66.08,34.49s4.46-6.8-1.16-6.13"/><path class="cls-1" d="M75.46,46S77.3,43.89,79,43.56"/><path class="cls-1" d="M76.55,40.26s3.36-7.41,5.8-2.3"/><path class="cls-2" d="M72.61,32a3,3,0,0,1,1.47.35C77.63,34.26,76,44.06,74,47.61a7.32,7.32,0,0,1-12.83-7.07C62.9,37.44,68.79,32,72.61,32m0-.6h0c-4.14,0-10.22,5.77-11.94,8.89a7.92,7.92,0,1,0,13.88,7.64,23.23,23.23,0,0,0,2.16-8.49c.27-3.93-.56-6.63-2.34-7.61a3.5,3.5,0,0,0-1.76-.43Z"/><rect class="cls-6" x="58.24" y="48.38" width="1.15" height="23.33" rx="0.27" ry="0.27" transform="translate(36.26 -20.92) rotate(28.84)"/><rect class="cls-6" x="52.9" y="50.46" width="12.55" height="1.15" rx="0.27" ry="0.27" transform="translate(91.72 -20.01) rotate(73.84)"/><rect class="cls-6" x="50.8" y="54.27" width="12.55" height="1.15" rx="0.27" ry="0.27" transform="translate(93.87 -15.24) rotate(73.84)"/><rect class="cls-6" x="48.7" y="58.09" width="12.55" height="1.15" rx="0.27" ry="0.27" transform="translate(96.02 -10.46) rotate(73.84)"/><rect class="cls-6" x="46.59" y="61.91" width="12.55" height="1.15" rx="0.27" ry="0.27" transform="translate(98.17 -5.69) rotate(73.84)"/><rect class="cls-6" x="59.96" y="54.34" width="12.55" height="1.15" rx="0.27" ry="0.27" transform="translate(145.14 89.23) rotate(163.84)"/><rect class="cls-6" x="57.86" y="58.16" width="12.55" height="1.15" rx="0.27" ry="0.27" transform="translate(142.08 97.3) rotate(163.84)"/><rect class="cls-6" x="55.76" y="61.98" width="12.55" height="1.15" rx="0.27" ry="0.27" transform="translate(139.03 105.37) rotate(163.84)"/><rect class="cls-6" x="53.65" y="65.8" width="12.55" height="1.15" rx="0.27" ry="0.27" transform="translate(135.97 113.44) rotate(163.84)"/><path class="cls-3" d="M74,47.61a7.32,7.32,0,0,1-12.83-7.07c2-3.54,9.35-10.18,12.89-8.23S76,44.06,74,47.61Z"/><path class="cls-4" d="M71.93,46.77A5.09,5.09,0,1,1,63,41.86c1.36-2.46,6.5-7.08,9-5.72S73.29,44.31,71.93,46.77Z"/><path class="cls-5" d="M69.71,47A3.27,3.27,0,0,1,64,43.88c.87-1.58,4.18-4.54,5.76-3.67S70.58,45.45,69.71,47Z"/><path class="cls-6" d="M67.93,47.32a1.84,1.84,0,0,1-3.23-1.78c.49-.89,2.35-2.56,3.24-2.07S68.42,46.43,67.93,47.32Z"/><path class="cls-1" d="M73.87,31.52S71,28.32,73.7,27"/><path class="cls-1" d="M74.87,32.07s4.27.75,3.9-2.27"/><path class="cls-1" d="M35.93,38.51s-.83-2.71-.22-4.3"/><path class="cls-1" d="M31.63,34.49s-4.46-6.8,1.16-6.13"/><path class="cls-1" d="M22.25,46s-1.84-2.15-3.52-2.48"/><path class="cls-1" d="M21.15,40.26s-3.36-7.41-5.8-2.3"/><path class="cls-2" d="M25.1,32c3.81,0,9.7,5.48,11.41,8.58a7.32,7.32,0,1,1-12.83,7.07c-1.95-3.55-3.6-13.35-.06-15.3A3.05,3.05,0,0,1,25.1,32m0-.6a3.54,3.54,0,0,0-1.77.43c-1.78,1-2.61,3.68-2.34,7.61a23,23,0,0,0,2.17,8.49A7.92,7.92,0,1,0,37,40.25c-1.72-3.12-7.8-8.89-11.93-8.89Z"/><rect class="cls-6" x="38.31" y="48.38" width="1.15" height="23.33" rx="0.27" ry="0.27" transform="translate(101.92 93.89) rotate(151.16)"/><rect class="cls-6" x="32.25" y="50.46" width="12.55" height="1.15" rx="0.27" ry="0.27" transform="translate(98.27 28.23) rotate(106.16)"/><rect class="cls-6" x="34.35" y="54.27" width="12.55" height="1.15" rx="0.27" ry="0.27" transform="translate(104.62 31.09) rotate(106.16)"/><rect class="cls-6" x="36.46" y="58.09" width="12.55" height="1.15" rx="0.27" ry="0.27" transform="translate(110.97 33.95) rotate(106.16)"/><rect class="cls-6" x="38.56" y="61.91" width="12.55" height="1.15" rx="0.27" ry="0.27" transform="translate(117.33 36.82) rotate(106.16)"/><rect class="cls-6" x="25.19" y="54.34" width="12.55" height="1.15" rx="0.27" ry="0.27" transform="translate(16.53 -6.59) rotate(16.16)"/><rect class="cls-6" x="27.29" y="58.16" width="12.55" height="1.15" rx="0.27" ry="0.27" transform="translate(17.68 -7.02) rotate(16.16)"/><rect class="cls-6" x="29.39" y="61.98" width="12.55" height="1.15" rx="0.27" ry="0.27" transform="translate(18.82 -7.46) rotate(16.16)"/><rect class="cls-6" x="31.5" y="65.8" width="12.55" height="1.15" rx="0.27" ry="0.27" transform="translate(19.97 -7.89) rotate(16.16)"/><path class="cls-3" d="M23.68,47.61a7.32,7.32,0,0,0,12.83-7.07C34.56,37,27.16,30.36,23.62,32.31S21.73,44.06,23.68,47.61Z"/><path class="cls-4" d="M25.77,46.77a5.09,5.09,0,1,0,8.92-4.91c-1.36-2.46-6.5-7.08-9-5.72S24.41,44.31,25.77,46.77Z"/><path class="cls-5" d="M28,47a3.27,3.27,0,0,0,5.73-3.15c-.87-1.58-4.17-4.54-5.75-3.67S27.12,45.45,28,47Z"/><path class="cls-6" d="M29.78,47.32A1.84,1.84,0,0,0,33,45.54c-.49-.89-2.36-2.56-3.25-2.07S29.29,46.43,29.78,47.32Z"/><path class="cls-1" d="M23.84,31.52s2.91-3.2.16-4.51"/><path class="cls-1" d="M22.83,32.07s-4.26.75-3.9-2.27"/><path class="cls-1" d="M10.7,64s-2.37-1.55-4.07-1.4"/><path class="cls-1" d="M8,58.78s-5.29-6.18-6.22-.59"/><path class="cls-1" d="M21.74,53s-1.55-2.37-1.4-4.07"/><path class="cls-1" d="M16.49,50.33S10.32,45,15.9,44.11"/><path class="cls-2" d="M11,49.54c3.86,0,9.66,3.06,11.85,5.26A7.32,7.32,0,0,1,12.49,65.16C9.63,62.3,5.31,53.34,8.17,50.48A3.89,3.89,0,0,1,11,49.54M11,49h0a4.41,4.41,0,0,0-3.24,1.11C4.51,53.3,9.11,62.62,12.07,65.58a7.92,7.92,0,1,0,11.2-11.2C21.05,52.16,15.17,49,11,49Z"/><rect class="cls-6" x="29.99" y="61.21" width="1.15" height="23.33" rx="0.27" ry="0.27" transform="translate(-42.58 42.95) rotate(-45)"/><rect class="cls-6" x="15.73" y="69.44" width="12.55" height="1.15" rx="0.27" ry="0.27"/><rect class="cls-6" x="18.81" y="72.52" width="12.55" height="1.15" rx="0.27" ry="0.27"/><rect class="cls-6" x="21.89" y="75.6" width="12.55" height="1.15" rx="0.27" ry="0.27"/><rect class="cls-6" x="24.97" y="78.68" width="12.55" height="1.15" rx="0.27" ry="0.27"/><rect class="cls-6" x="21.43" y="63.74" width="12.55" height="1.15" rx="0.27" ry="0.27" transform="translate(92.02 36.61) rotate(90)"/><rect class="cls-6" x="24.51" y="66.82" width="12.55" height="1.15" rx="0.27" ry="0.27" transform="translate(98.18 36.61) rotate(90)"/><rect class="cls-6" x="27.59" y="69.9" width="12.55" height="1.15" rx="0.27" ry="0.27" transform="translate(104.34 36.61) rotate(90)"/><rect class="cls-6" x="30.67" y="72.98" width="12.55" height="1.15" rx="0.27" ry="0.27" transform="translate(110.51 36.61) rotate(90)"/><path class="cls-3" d="M22.84,54.8A7.32,7.32,0,0,1,12.49,65.16C9.63,62.3,5.31,53.34,8.17,50.48S20,51.94,22.84,54.8Z"/><path class="cls-4" d="M21.46,56.58a5.09,5.09,0,0,1-7.2,7.19c-2-2-5-8.21-3-10.2S19.48,54.59,21.46,56.58Z"/><path class="cls-5" d="M21.09,58.78a3.27,3.27,0,1,1-4.62,4.62c-1.27-1.27-3.2-5.27-1.92-6.54S19.82,57.51,21.09,58.78Z"/><path class="cls-6" d="M20.87,60.58a1.84,1.84,0,0,1-2.6,2.6c-.72-.72-1.81-3-1.09-3.69S20.15,59.86,20.87,60.58Z"/><path class="cls-1" d="M7.35,50.47S3.46,52.38,3,49.37"/><path class="cls-1" d="M8.16,49.66s1.91-3.89-1.1-4.38"/><path class="cls-1" d="M89.3,64s2.37-1.55,4.07-1.4"/><path class="cls-1" d="M92,58.78s5.29-6.18,6.22-.59"/><path class="cls-1" d="M78.26,53s1.55-2.37,1.4-4.07"/><path class="cls-1" d="M83.51,50.33s6.17-5.29.59-6.22"/><path class="cls-2" d="M89,49.54a3.89,3.89,0,0,1,2.82.94c2.86,2.86-1.46,11.82-4.32,14.68A7.32,7.32,0,0,1,77.16,54.8c2.19-2.2,8-5.26,11.85-5.26M89,49C84.83,49,79,52.16,76.73,54.38a7.92,7.92,0,1,0,11.2,11.2A23.33,23.33,0,0,0,92.38,58c1.35-3.71,1.3-6.54-.13-8A4.41,4.41,0,0,0,89,49Z"/><rect class="cls-6" x="68.86" y="61.21" width="1.15" height="23.33" rx="0.27" ry="0.27" transform="translate(67.01 173.5) rotate(-135)"/><rect class="cls-6" x="71.72" y="69.44" width="12.55" height="1.15" rx="0.27" ry="0.27" transform="translate(155.99 140.03) rotate(180)"/><rect class="cls-6" x="68.64" y="72.52" width="12.55" height="1.15" rx="0.27" ry="0.27" transform="translate(149.83 146.19) rotate(-180)"/><rect class="cls-6" x="65.56" y="75.6" width="12.55" height="1.15" rx="0.27" ry="0.27" transform="translate(143.67 152.35) rotate(-180)"/><rect class="cls-6" x="62.47" y="78.68" width="12.55" height="1.15" rx="0.27" ry="0.27" transform="translate(137.5 158.52) rotate(180)"/><rect class="cls-6" x="66.02" y="63.74" width="12.55" height="1.15" rx="0.27" ry="0.27" transform="translate(136.61 -7.98) rotate(90)"/><rect class="cls-6" x="62.94" y="66.82" width="12.55" height="1.15" rx="0.27" ry="0.27" transform="translate(136.61 -1.82) rotate(90)"/><rect class="cls-6" x="59.86" y="69.9" width="12.55" height="1.15" rx="0.27" ry="0.27" transform="translate(136.61 4.34) rotate(90)"/><rect class="cls-6" x="56.78" y="72.98" width="12.55" height="1.15" rx="0.27" ry="0.27" transform="translate(136.61 10.51) rotate(90)"/><path class="cls-3" d="M77.16,54.8A7.32,7.32,0,0,0,87.51,65.16c2.86-2.86,7.18-11.82,4.32-14.68S80,51.94,77.16,54.8Z"/><path class="cls-4" d="M78.54,56.58a5.09,5.09,0,0,0,7.2,7.19c2-2,5-8.21,3-10.2S80.52,54.59,78.54,56.58Z"/><path class="cls-5" d="M78.91,58.78a3.27,3.27,0,1,0,4.62,4.62c1.27-1.27,3.2-5.27,1.92-6.54S80.18,57.51,78.91,58.78Z"/><path class="cls-6" d="M79.13,60.58a1.84,1.84,0,0,0,2.6,2.6c.72-.72,1.81-3,1.09-3.69S79.85,59.86,79.13,60.58Z"/><path class="cls-1" d="M92.65,50.47s3.89,1.91,4.38-1.1"/><path class="cls-1" d="M91.84,49.66s-1.91-3.89,1.1-4.38"/><rect class="cls-6" x="43.2" y="29.78" width="1.1" height="6" rx="0.26" ry="0.26" transform="translate(-2.83 61.41) rotate(-68.42)"/><circle class="cls-2" cx="39.61" cy="31.15" r="2.29"/><rect class="cls-6" x="42.06" y="32.51" width="1.1" height="6" rx="0.26" ry="0.26" transform="translate(2.3 73.61) rotate(-83.19)"/><circle class="cls-7" cx="38.19" cy="34.98" r="2.29"/><rect class="cls-6" x="40.88" y="29.02" width="1.1" height="9.7" rx="0.26" ry="0.26" transform="matrix(0.25, -0.97, 0.97, 0.25, -1.86, 65.32)"/><circle class="cls-7" cx="35.33" cy="32.26" r="2.29"/><rect class="cls-6" x="45.34" y="29.39" width="1.1" height="6" rx="0.26" ry="0.26" transform="matrix(0.69, -0.72, 0.72, 0.69, -9.23, 43.18)"/><circle class="cls-7" cx="42.68" cy="29.31" r="2.29"/><rect class="cls-6" x="43.26" y="31.48" width="1.1" height="6" rx="0.26" ry="0.26" transform="translate(-7.56 56.13) rotate(-61.06)"/><circle class="cls-7" cx="39.91" cy="32.32" r="2.29"/><rect class="cls-6" x="42.78" y="27.66" width="1.1" height="9.7" rx="0.26" ry="0.26" transform="translate(-8.68 47.67) rotate(-53.13)"/><circle class="cls-7" cx="38.29" cy="28.73" r="2.29"/><path class="cls-8" d="M30.67,75.91,25.73,86.05a9.07,9.07,0,0,0,7.09-7.3L29,90.84a32.86,32.86,0,0,0,6-7.73l-2.41,10.3a14.07,14.07,0,0,0,6.1-9.57"/><path class="cls-8" d="M66.35,75l4.94,10.14a9.08,9.08,0,0,1-7.09-7.31L68,89.92a32.86,32.86,0,0,1-6-7.72l2.41,10.3a14.07,14.07,0,0,1-6.1-9.57"/><polyline class="cls-9" points="43.11 91.59 45.98 91.59 44.55 100"/><polyline class="cls-9" points="51.72 91.59 54.59 91.59 53.15 100"/><path class="cls-7" d="M68,79.45c0,10.39-8.42,14-18.81,14s-18.81-3.57-18.81-14a18.81,18.81,0,1,1,37.62,0Z"/><path class="cls-7" d="M58.31,64.51c0,8-4.11,14.4-9.18,14.4S40,72.47,40,64.51s4.11-33.93,9.18-33.93S58.31,56.56,58.31,64.51Z"/><circle class="cls-10" cx="49.15" cy="35.11" r="0.85"/><path class="cls-7" d="M56,69.24a2.15,2.15,0,0,1-.93,1.48,8.88,8.88,0,0,0,5.57,1.9A6.2,6.2,0,0,0,56,69.24Z"/><path class="cls-7" d="M55.08,70.72a7.51,7.51,0,0,1-2.73,1.35,18,18,0,0,0,4,4.41A13.24,13.24,0,0,0,55.08,70.72Z"/><path class="cls-7" d="M52.35,72.07a12.28,12.28,0,0,1-3.39.47,23.36,23.36,0,0,0,2.48,5.39A21.34,21.34,0,0,0,52.35,72.07Z"/><path class="cls-7" d="M49,72.54a12.23,12.23,0,0,1-3.39-.47,21.34,21.34,0,0,0,.91,5.86A23.36,23.36,0,0,0,49,72.54Z"/><path class="cls-7" d="M45.57,72.07a7.51,7.51,0,0,1-2.73-1.35,13.24,13.24,0,0,0-1.25,5.76A18,18,0,0,0,45.57,72.07Z"/><path class="cls-7" d="M42.84,70.72a2.15,2.15,0,0,1-.93-1.48,6.2,6.2,0,0,0-4.64,3.38A8.88,8.88,0,0,0,42.84,70.72Z"/><path class="cls-7" d="M41.91,69.24a2.14,2.14,0,0,1,.93-1.47,9,9,0,0,0-5.57-1.91A6.2,6.2,0,0,0,41.91,69.24Z"/><path class="cls-7" d="M42.84,67.77a7.52,7.52,0,0,1,2.73-1.36,18,18,0,0,0-4-4.4A13.27,13.27,0,0,0,42.84,67.77Z"/><path class="cls-7" d="M45.57,66.41A12.23,12.23,0,0,1,49,65.94a23.55,23.55,0,0,0-2.48-5.39A21.4,21.4,0,0,0,45.57,66.41Z"/><path class="cls-7" d="M49,65.94a12.28,12.28,0,0,1,3.39.47,21.4,21.4,0,0,0-.91-5.86A23.55,23.55,0,0,0,49,65.94Z"/><path class="cls-7" d="M52.35,66.41a7.52,7.52,0,0,1,2.73,1.36A13.27,13.27,0,0,0,56.33,62,18,18,0,0,0,52.35,66.41Z"/><path class="cls-7" d="M55.08,67.77A2.14,2.14,0,0,1,56,69.24a6.2,6.2,0,0,0,4.64-3.38A9,9,0,0,0,55.08,67.77Z"/><path class="cls-8" d="M61.34,37.85S53.61,40,52.45,40a2.11,2.11,0,1,1,0-4.21C53.61,35.75,61.34,37.85,61.34,37.85Z"/></svg>