<svg id="Layer_1" data-name="Layer 1" xmlns="http://www.w3.org/2000/svg" viewBox="0 0 100 100"><defs><style>.cls-1{fill:#09a582;}.cls-2{fill:#f37d3b;}.cls-3{fill:#dd7236;}.cls-4{fill:none;stroke:#f37d3b;stroke-linecap:round;stroke-miterlimit:10;stroke-width:0.6px;}</style></defs><title>rose</title><path class="cls-1" d="M46,29.8A7,7,0,1,1,39.9,42.33c-3.46-1.68-13.21-14.15-13.21-14.15S42.53,28.11,46,29.8Z"/><path class="cls-1" d="M54,29.8A7,7,0,1,0,60.1,42.33c3.46-1.68,13.21-14.15,13.21-14.15S57.47,28.11,54,29.8Z"/><rect class="cls-1" x="47.23" y="35.6" width="5.71" height="64.4" rx="1.33" ry="1.33"/><polyline class="cls-2" points="38.3 7.57 60.69 0 60.69 17.11"/><path class="cls-2" d="M70.59,19.37a20,20,0,0,1-39.91,0c0-11,8.94-13.82,20-13.82S70.59,8.35,70.59,19.37Z"/><ellipse class="cls-3" cx="51.08" cy="12.19" rx="14.58" ry="4.74"/><path class="cls-4" d="M65.47,13.79C61.62,16.7,52,17.93,44,16.53c-6.42-1.12-9.11-3.92-6-6.26,2.46-1.86,8.62-2.65,13.75-1.75,4.1.72,5.83,2.51,3.86,4-1.58,1.2-5.52,1.7-8.8,1.13C44.14,13.19,43,12,44.3,11.08c1-.76,3.53-1.08,5.63-.71,1.68.29,2.39,1,1.58,1.64a5.61,5.61,0,0,1-3.6.46"/><path class="cls-1" d="M49.7,52.73a4.72,4.72,0,1,1-7.42,5.85C40.67,56.53,38.41,46,38.41,46S48.09,50.68,49.7,52.73Z"/><path class="cls-1" d="M56.64,80.55A4.72,4.72,0,0,1,53,71.84c2.41-1,13.12-.39,13.12-.39S59.05,79.54,56.64,80.55Z"/><rect class="cls-1" x="49.49" y="43.13" width="7.39" height="2.62" rx="0.61" ry="0.61"/><rect class="cls-1" x="42.69" y="45.41" width="7.39" height="2.62" rx="0.61" ry="0.61"/><rect class="cls-1" x="50.72" y="62.68" width="7.39" height="2.62" rx="0.61" ry="0.61"/><rect class="cls-1" x="45.07" y="66.97" width="7.39" height="2.62" rx="0.61" ry="0.61"/><rect class="cls-1" x="41.71" y="83.16" width="7.39" height="2.62" rx="0.61" ry="0.61"/><rect class="cls-1" x="51.71" y="92.74" width="7.39" height="2.62" rx="0.61" ry="0.61"/></svg>