<svg id="Layer_1" data-name="Layer 1" xmlns="http://www.w3.org/2000/svg" viewBox="0 0 100 100"><defs><style>.cls-1{fill:#09a582;}.cls-2{fill:#fff;}.cls-3{fill:#ffc640;}</style></defs><title>flower</title><path class="cls-1" d="M82.74,83.06A14.27,14.27,0,0,1,62.56,62.88C68.13,57.31,100,45.62,100,45.62S88.31,77.48,82.74,83.06Z"/><path class="cls-1" d="M17.26,83.06A14.27,14.27,0,0,0,37.44,62.88C31.87,57.31,0,45.62,0,45.62S11.69,77.48,17.26,83.06Z"/><circle class="cls-2" cx="49.8" cy="24.43" r="11.67"/><circle class="cls-2" cx="49.8" cy="72.95" r="11.67"/><circle class="cls-2" cx="74.06" cy="48.69" r="11.67"/><circle class="cls-2" cx="25.54" cy="48.69" r="11.67"/><circle class="cls-2" cx="66.95" cy="31.54" r="11.67"/><circle class="cls-2" cx="32.65" cy="65.84" r="11.67"/><circle class="cls-2" cx="66.95" cy="65.84" r="11.67"/><circle class="cls-2" cx="32.65" cy="31.54" r="11.67"/><rect class="cls-2" x="29.19" y="28.13" width="40.11" height="40.11"/><circle class="cls-3" cx="49.8" cy="48.69" r="11.67"/></svg>