<svg id="Layer_1" data-name="Layer 1" xmlns="http://www.w3.org/2000/svg" viewBox="0 0 100 100"><defs><style>.cls-1{fill:#447d93;}.cls-2{fill:#6ab8d9;}.cls-3{fill:#09a582;}.cls-4{fill:#171717;}</style></defs><title>hummingbird</title><path class="cls-1" d="M81.15,47.53l-2.69,1,2.69-1-3.46.14,3.46-.14L100,40.38V35.64C91,35.64,70.51,43,70.51,52S91,68.3,100,68.3V46.79Z"/><path class="cls-1" d="M18.85,47.53l2.69,1-2.69-1,3.46.14-3.46-.14L0,40.38V35.64C9,35.64,29.49,43,29.49,52S9,68.3,0,68.3V46.79Z"/><rect class="cls-2" x="29.19" y="59.32" width="13.79" height="27.67" rx="3.18" ry="3.18"/><rect class="cls-2" x="54.55" y="59.32" width="13.79" height="27.67" rx="3.18" ry="3.18"/><rect class="cls-2" x="41.93" y="66.82" width="13.79" height="27.67" rx="3.18" ry="3.18"/><path class="cls-2" d="M72,32.56a23.24,23.24,0,1,0-46.48,0v5.57H72Z"/><path class="cls-3" d="M25.53,38.13v17.4a23.24,23.24,0,1,0,46.48,0V38.13Z"/><circle class="cls-2" cx="29.49" cy="39.08" r="4.91"/><circle class="cls-2" cx="39.3" cy="39.08" r="4.91"/><circle class="cls-2" cx="49.12" cy="39.08" r="4.91"/><circle class="cls-2" cx="58.94" cy="39.08" r="4.91"/><circle class="cls-2" cx="68.75" cy="39.08" r="4.91"/><path class="cls-4" d="M96.79,5.65c.68,1.61-30.05,16.22-31.66,16.91a3.17,3.17,0,0,1-2.48-5.83C64.26,16.05,96.1,4,96.79,5.65Z"/><circle class="cls-4" cx="36.09" cy="29.08" r="1.79"/></svg>