<svg id="Layer_1" data-name="Layer 1" xmlns="http://www.w3.org/2000/svg" viewBox="0 0 100 100"><defs><style>.cls-1{fill:#048d6f;}.cls-2{fill:#09a582;}.cls-3{fill:#007d62;}.cls-4{fill:#018f73;}.cls-5{fill:#007f65;}.cls-6{fill:#3e3e3f;}.cls-7{fill:#ffc640;}</style></defs><title>chameleon</title><rect class="cls-1" x="29.94" y="51.47" width="2.91" height="9.06" rx="0.7" ry="0.7"/><path class="cls-1" d="M26.54,64.86l-1.08-1.08a.68.68,0,0,1,0-1l5.44-5.43a.69.69,0,0,1,1,0L33,58.46a.68.68,0,0,1,0,1l-5.44,5.43A.69.69,0,0,1,26.54,64.86Z"/><rect class="cls-1" x="22.51" y="58.72" width="2.9" height="9.08" rx="0.7" ry="0.7" transform="translate(87.22 39.29) rotate(90)"/><path class="cls-1" d="M22.2,69.2l-1.08-1.08a.68.68,0,0,1,0-1l5.44-5.44a.71.71,0,0,1,1,0l1.08,1.08a.7.7,0,0,1,0,1L23.17,69.2A.7.7,0,0,1,22.2,69.2Z"/><rect class="cls-2" x="59.12" y="51.47" width="2.91" height="9.06" rx="0.7" ry="0.7"/><path class="cls-2" d="M55.73,64.86l-1.08-1.08a.68.68,0,0,1,0-1l5.44-5.43a.69.69,0,0,1,1,0l1.07,1.08a.68.68,0,0,1,0,1L56.7,64.86A.68.68,0,0,1,55.73,64.86Z"/><rect class="cls-2" x="51.7" y="58.72" width="2.9" height="9.08" rx="0.7" ry="0.7" transform="translate(116.4 10.11) rotate(90)"/><path class="cls-2" d="M51.38,69.2,50.3,68.12a.7.7,0,0,1,0-1l5.45-5.44a.7.7,0,0,1,1,0l1.08,1.08a.68.68,0,0,1,0,1L52.36,69.2A.71.71,0,0,1,51.38,69.2Z"/><path class="cls-2" d="M44.59,59.35l-1.08,1.08a.68.68,0,0,1-1,0L37.09,55a.68.68,0,0,1,0-1L38.17,53a.69.69,0,0,1,1,0l5.44,5.43A.68.68,0,0,1,44.59,59.35Z"/><rect class="cls-2" x="41.47" y="57.32" width="2.91" height="9.06" rx="0.7" ry="0.7"/><path class="cls-2" d="M38.06,70.8,37,69.72a.68.68,0,0,1,0-1l5.44-5.43a.69.69,0,0,1,1,0l1.08,1.07a.71.71,0,0,1,0,1L39,70.8A.68.68,0,0,1,38.06,70.8Z"/><rect class="cls-2" x="41.47" y="63.45" width="2.91" height="9.06" rx="0.7" ry="0.7"/><path class="cls-1" d="M74.83,59.35l-1.08,1.08a.69.69,0,0,1-1,0L67.33,55a.68.68,0,0,1,0-1L68.41,53a.69.69,0,0,1,1,0l5.44,5.43A.68.68,0,0,1,74.83,59.35Z"/><rect class="cls-1" x="71.71" y="57.32" width="2.91" height="9.06" rx="0.7" ry="0.7"/><path class="cls-1" d="M68.3,70.8l-1.08-1.08a.68.68,0,0,1,0-1l5.44-5.43a.69.69,0,0,1,1,0l1.07,1.07a.69.69,0,0,1,0,1L69.27,70.8A.68.68,0,0,1,68.3,70.8Z"/><rect class="cls-1" x="71.71" y="63.45" width="2.91" height="9.06" rx="0.7" ry="0.7"/><path class="cls-2" d="M32,36.59l-8,8a1.82,1.82,0,0,1-2.54,0l-4.42-4.42a1.79,1.79,0,0,1,0-2.53l8-8a1.8,1.8,0,0,1,2.53,0L32,34.06A1.79,1.79,0,0,1,32,36.59Z"/><path class="cls-2" d="M84,50.66c0,3.4-15.79,6.16-35.27,6.16s-35.28-2.76-35.28-6.16,15.8-18.91,35.28-18.91S84,47.26,84,50.66Z"/><ellipse class="cls-1" cx="21.66" cy="59.2" rx="3.39" ry="4.07"/><ellipse class="cls-1" cx="16.68" cy="56.21" rx="3.39" ry="4.07"/><ellipse class="cls-1" cx="26.39" cy="54.39" rx="3.39" ry="4.08" transform="translate(-30.84 34.9) rotate(-45.31)"/><ellipse class="cls-1" cx="29.31" cy="49.04" rx="3.38" ry="4.08" transform="matrix(0.28, -0.96, 0.96, 0.28, -25.92, 63.65)"/><path class="cls-2" d="M26.84,47.67a10.92,10.92,0,0,1-10.93,10.9c-6,0-14.53-4.88-14.53-10.9s8.5-10.9,14.53-10.9A10.92,10.92,0,0,1,26.84,47.67Z"/><rect class="cls-3" y="46.16" width="15.31" height="2.23" rx="0.54" ry="0.54"/><ellipse class="cls-4" cx="22.56" cy="45.6" rx="4.28" ry="4.27"/><ellipse class="cls-5" cx="22.11" cy="45.6" rx="3.17" ry="3.16"/><circle class="cls-6" cx="21.67" cy="45.6" r="1.61"/><path class="cls-2" d="M51.22,40.39a207.11,207.11,0,0,0,23.85,6,79,79,0,0,0,12,1.4,24,24,0,0,0,5.7-.46,7.16,7.16,0,0,0,2.26-.88,2.45,2.45,0,0,0,1.11-1.38,4.33,4.33,0,0,0-.11-2.2A12.78,12.78,0,0,0,95,40.36a35.57,35.57,0,0,0-3.38-5,29.91,29.91,0,0,0-4.13-4.35,11,11,0,0,0-5-2.63,4.49,4.49,0,0,0-2.57.33A4.89,4.89,0,0,0,78,30.62a7.16,7.16,0,0,0-.67,5.59A4.39,4.39,0,0,0,79,38.53a4.47,4.47,0,0,0,2.78.79,12.45,12.45,0,0,0,5.76-2,12.62,12.62,0,0,1-5.74,2.49,5.08,5.08,0,0,1-3.17-.67,5.3,5.3,0,0,1-2.09-2.58,8.09,8.09,0,0,1-.5-3.27A7.65,7.65,0,0,1,76.85,30a6.17,6.17,0,0,1,2.34-2.58,6,6,0,0,1,3.49-.74,12.71,12.71,0,0,1,6.16,2.65,32.2,32.2,0,0,1,4.8,4.37,38.77,38.77,0,0,1,4,5.11,16.12,16.12,0,0,1,1.55,3.11,7.67,7.67,0,0,1,.4,4,6.16,6.16,0,0,1-2.35,3.66,11,11,0,0,1-3.41,1.67,27.26,27.26,0,0,1-6.68,1,83.38,83.38,0,0,1-12.88-.56,215.37,215.37,0,0,1-25-4.49Z"/><path class="cls-2" d="M66.74,47.7l.43.09v-.22A1.26,1.26,0,0,1,66.74,47.7Z"/><path class="cls-7" d="M40.39,32.66l-1,.23-.74.19c-.66.17-1.32.36-2,.56v10a1.35,1.35,0,0,0,2,1.21v1a1.36,1.36,0,0,0,2.72,0V45a1.1,1.1,0,0,0,.37.06,1.36,1.36,0,0,0,1.36-1.36V32.17c-.59.08-1.16.18-1.73.29Z"/><path class="cls-7" d="M50.65,31.81c-.33,0-.66,0-1,0l-.74,0h-.25c-.58,0-1.15,0-1.72,0v10a1.36,1.36,0,0,0,1.35,1.35,1.32,1.32,0,0,0,.62-.15v1a1.36,1.36,0,0,0,1.35,1.36h0a1.37,1.37,0,0,0,1.34-1.1,2.11,2.11,0,0,0,0-.26v-.85a1.58,1.58,0,0,0,.38.05h0a1.36,1.36,0,0,0,1.35-1.35V32.05c-.57-.07-1.15-.13-1.73-.18C51.3,31.85,51,31.82,50.65,31.81Z"/><path class="cls-7" d="M59.52,33.31q-.5-.15-1-.27l-.74-.19c-.65-.15-1.31-.29-2-.42V43a1.35,1.35,0,0,0,2,1.21v.95a1.28,1.28,0,0,0,.17.64,1.35,1.35,0,0,0,1.19.71,1.35,1.35,0,0,0,1.35-1.35v-.86a1.21,1.21,0,0,0,.38.06A1.37,1.37,0,0,0,62.24,43V34.17q-.85-.3-1.74-.57Z"/><path class="cls-7" d="M69.88,37.64l-1-.54-1-.51-.74-.36c-.64-.31-1.3-.61-2-.9v11a1.34,1.34,0,0,0,.68,1.17,1.31,1.31,0,0,0,.68.19l.18,0a1.26,1.26,0,0,0,.43-.13v1a1.36,1.36,0,0,0,2.71,0v-.86a1.21,1.21,0,0,0,.38.06,1.37,1.37,0,0,0,1.36-1.36V38.65C71.05,38.3,70.48,38,69.88,37.64Z"/><circle class="cls-7" cx="18.72" cy="50.52" r="1.19"/><circle class="cls-7" cx="20.68" cy="54.88" r="0.94"/><circle class="cls-7" cx="16.53" cy="53.94" r="0.68"/></svg>