<svg id="Layer_1" data-name="Layer 1" xmlns="http://www.w3.org/2000/svg" viewBox="0 0 100 100"><defs><style>.cls-1{fill:#f37d3b;}.cls-2{fill:#fff;}.cls-3{fill:#3e3e3f;}</style></defs><title>fox</title><path class="cls-1" d="M60.8,80.35a19.65,19.65,0,0,1-39.3,0c0-10.85,8.8-50.18,19.65-50.18S60.8,69.5,60.8,80.35Z"/><path class="cls-1" d="M18.28,46.94c0-6,10.24-10.95,22.87-10.95S64,40.89,64,46.94s-10.24,28-22.87,28S18.28,53,18.28,46.94Z"/><path class="cls-2" d="M28.33,45.76c0-6.3,5.74-11.41,12.82-11.41S54,39.46,54,45.76,48.23,74.89,41.15,74.89,28.33,52.06,28.33,45.76Z"/><path class="cls-1" d="M28.08,14a7.21,7.21,0,1,1-14,3.38C13.13,13.5,12,.25,12,.25S27.15,10.12,28.08,14Z"/><path class="cls-2" d="M24.73,14.78a4.18,4.18,0,1,1-8.12,2c-.54-2.25-1.22-9.92-1.22-9.92S24.19,12.54,24.73,14.78Z"/><path class="cls-1" d="M55.93,14a7.21,7.21,0,1,0,14,3.38C70.88,13.5,72.06.25,72.06.25S56.86,10.12,55.93,14Z"/><path class="cls-2" d="M59.28,14.78a4.18,4.18,0,1,0,8.12,2c.54-2.25,1.22-9.92,1.22-9.92S59.82,12.54,59.28,14.78Z"/><path class="cls-2" d="M61.61,31.88c-3.73,8.46-9.18,16.75-20.5,16.75S24.16,40.42,20.62,31.88C12.21,11.59,29.79,16,41.11,16S70.23,12.3,61.61,31.88Z"/><path class="cls-1" d="M61.61,31.88c-3.73,8.46-9.18-3.18-20.5-3.18S24.16,40.42,20.62,31.88C12.21,11.59,29.79,16,41.11,16S70.23,12.3,61.61,31.88Z"/><polygon class="cls-1" points="26.79 19.29 55.65 19.29 41.22 44.94 26.79 19.29"/><path class="cls-1" d="M41.22,48.67A3.73,3.73,0,0,1,38,46.77L23.53,21.12a3.74,3.74,0,0,1,3.26-5.57H55.64a3.74,3.74,0,0,1,3.26,5.57L44.48,46.77A3.73,3.73,0,0,1,41.22,48.67ZM33.19,23l8,14.28,8-14.28Z"/><path class="cls-3" d="M45.12,45.2a3.9,3.9,0,0,1-7.8,0c0-2.15,1.75-2.73,3.9-2.73S45.12,43.05,45.12,45.2Z"/><circle class="cls-3" cx="23.62" cy="27.32" r="1.45"/><circle class="cls-3" cx="58.96" cy="27.32" r="1.45"/><rect class="cls-1" x="57.92" y="44.94" width="5.97" height="52.6" rx="1.32" ry="1.32"/><rect class="cls-1" x="18.59" y="44.94" width="5.97" height="52.6" rx="1.32" ry="1.32"/><rect class="cls-1" x="62.32" y="58.3" width="12.13" height="28.94" rx="2.68" ry="2.68"/><rect class="cls-1" x="62.32" y="76.17" width="6.06" height="23.83" rx="1.34" ry="1.34"/><rect class="cls-1" x="8.52" y="57.62" width="12.13" height="28.94" rx="2.68" ry="2.68" transform="translate(29.16 144.18) rotate(180)"/><rect class="cls-1" x="14.58" y="75.49" width="6.06" height="23.83" rx="1.34" ry="1.34" transform="translate(35.22 174.82) rotate(-180)"/><path class="cls-1" d="M46.71,72.74s1.14-.79,3-2.33,4.61-3.74,7.59-6.58a82.55,82.55,0,0,0,9.19-10.14A40.78,40.78,0,0,0,73.2,41.21,14.47,14.47,0,0,0,73.68,35a25.35,25.35,0,0,0-.49-2.75c-.11-.43-.17-.86-.3-1.29q-.09-.32-.15-.63l-.14-.8a36.3,36.3,0,0,1-.54-7.89,38.7,38.7,0,0,1,.86-7.57A30.45,30.45,0,0,1,75,7.58,23.07,23.07,0,0,1,76.4,4.86a20.36,20.36,0,0,1,1.71-2.27A7.6,7.6,0,0,1,81.76.12a3.42,3.42,0,0,1,1.89,0L83.57,2c.13,0,0,.27,0,.76a11.84,11.84,0,0,0,.56,2.2c.3,1,.83,2.22,1.37,3.66s1.2,3.12,1.9,4.93l1,2.87,1,3.07a43,43,0,0,1,1.73,7.1l.12,1.16c0,.44.08.89.11,1.34a17.81,17.81,0,0,1,0,2.73,15.86,15.86,0,0,1-.31,2.73,24.42,24.42,0,0,1-.57,2.7,42.07,42.07,0,0,1-4.08,9.86,45.05,45.05,0,0,1-5.75,8,46.13,46.13,0,0,1-6.64,6.13,72.66,72.66,0,0,1-13,8c-2,1-3.83,1.74-5.46,2.41s-3.09,1.18-4.3,1.58c-2.4.79-3.81,1.15-3.81,1.15Z"/><path class="cls-2" d="M83.52,23.89c-1.69,6.76,2.93,11,6.32,15.54.25-.74.48-1.48.68-2.23a24.42,24.42,0,0,0,.57-2.7,15.86,15.86,0,0,0,.31-2.73,17.81,17.81,0,0,0,0-2.73c0-.45-.06-.9-.11-1.34l-.12-1.16a43,43,0,0,0-1.73-7.1l-1-3.07-1-2.87c-.7-1.81-1.34-3.46-1.9-4.93s-1.07-2.71-1.37-3.66a11.84,11.84,0,0,1-.56-2.2c0-.49.09-.76,0-.76l.08-1.8a3.42,3.42,0,0,0-1.89,0,7.6,7.6,0,0,0-3.65,2.47A20.36,20.36,0,0,0,76.4,4.86,23.07,23.07,0,0,0,75,7.58a30.45,30.45,0,0,0-2.06,6.53c-.14.64-.22,1.3-.32,1.95.87,6.33,3.39,11.61,8.66,16.88C83.52,30.68,79,26.15,83.52,23.89Z"/></svg>