<svg id="Layer_1" data-name="Layer 1" xmlns="http://www.w3.org/2000/svg" viewBox="0 0 100 100"><defs><style>.cls-1{fill:#00948b;}.cls-2{fill:#805752;}.cls-3{fill:#009b92;}.cls-4{fill:#895e59;}.cls-5{fill:#00a69c;}.cls-6{fill:#76504b;}</style></defs><title>tree</title><path class="cls-1" d="M46.58,41.22A10.35,10.35,0,0,1,29.2,52.45c-3.1-4.8.25-18.66.25-18.66S43.47,36.42,46.58,41.22Z"/><rect class="cls-2" x="35.13" y="72.41" width="21.49" height="4.5" rx="1.13" ry="1.13"/><path class="cls-3" d="M34,64.11a9.72,9.72,0,1,1-3.31,19.15c-5.29-.91-14.31-12.33-14.31-12.33S28.71,63.2,34,64.11Z"/><path class="cls-3" d="M48,62.13a5.06,5.06,0,1,1-9.6-3.22c.89-2.65,7.49-6.39,7.49-6.39S48.85,59.48,48,62.13Z"/><path class="cls-1" d="M74.66,22.59a8,8,0,1,1-13.39-8.68c2.4-3.69,13.21-5.71,13.21-5.71S77.06,18.89,74.66,22.59Z"/><path class="cls-1" d="M40,22.23a4.32,4.32,0,0,1-7.06,5c-1.37-1.95-.21-7.79-.21-7.79S38.6,20.28,40,22.23Z"/><rect class="cls-4" x="47.48" y="41.28" width="9.44" height="58.72" rx="2.36" ry="2.36"/><rect class="cls-4" x="48.23" y="61.8" width="22.75" height="2.81" rx="0.7" ry="0.7" transform="translate(119.22 126.4) rotate(-180)"/><path class="cls-3" d="M73.45,35.4A21.25,21.25,0,0,1,31,35.4C31,23.67,52.2,0,52.2,0S73.45,23.67,73.45,35.4Z"/><path class="cls-5" d="M72.15,43.78a4.7,4.7,0,0,1-6.48,1.48c-2.2-1.38-1.49-6.48-1.49-6.48s4.29-2.86,6.49-1.48A4.71,4.71,0,0,1,72.15,43.78Z"/><path class="cls-5" d="M83.62,60.59s-2,11.12-7.58,12.47A10.32,10.32,0,1,1,71.14,53C76.68,51.66,83.62,60.59,83.62,60.59Z"/><rect class="cls-6" x="49.1" y="59.05" width="3.65" height="1.29" rx="0.32" ry="0.32"/><rect class="cls-6" x="51.36" y="67.47" width="4.76" height="1.68" rx="0.42" ry="0.42"/><rect class="cls-6" x="49.1" y="92.14" width="7.3" height="2.57" rx="0.64" ry="0.64"/><path class="cls-6" d="M47.48,84.74h2.87A1.29,1.29,0,0,1,51.64,86h0a1.29,1.29,0,0,1-1.29,1.29H47.48"/><path class="cls-6" d="M57.09,81.89H54.22a1.28,1.28,0,0,1-1.28-1.28h0a1.29,1.29,0,0,1,1.28-1.29h2.87"/><path class="cls-3" d="M60.72,80.1a5.07,5.07,0,1,1-6.9-7.42c2-1.91,9.63-2,9.63-2S62.76,78.19,60.72,80.1Z"/><path class="cls-3" d="M57.05,13.57a1.14,1.14,0,0,1,1.25.25c.49.47,1,1,1.63,1.61L58.83,18Z"/><path class="cls-5" d="M58.83,18l1.1-2.56c.92.93,1.91,2,2.84,3L60.83,23Z"/><path class="cls-3" d="M60.83,23l1.94-4.56c.6.64,1.16,1.27,1.66,1.87L62,25.91Z"/><path class="cls-5" d="M64.43,20.26a12.33,12.33,0,0,1,1.86,2.65c.71,1.77-.85,4.19-1.91,5.56a2.61,2.61,0,0,1-1,.76L62,25.91Z"/><path class="cls-3" d="M46.58,13.29a2,2,0,0,0-2,1.06c-.58,1.06-1.24,2.28-1.92,3.57l3.17,3.78Z"/><path class="cls-5" d="M45.84,21.7l-3.17-3.78c-1.08,2-2.24,4.3-3.29,6.48L45,31.12Z"/><path class="cls-3" d="M45,31.12,39.38,24.4c-.67,1.4-1.3,2.75-1.84,4l7,8.33Z"/><path class="cls-5" d="M37.54,28.41a21.58,21.58,0,0,0-1.78,5.46c-.3,3.36,3.59,6.65,6.1,8.42a4.47,4.47,0,0,0,2.11.77l.56-6.32Z"/><path class="cls-3" d="M81.39,61.41a1.11,1.11,0,0,0-.78-1c-.63-.21-1.35-.44-2.12-.67l-1.71,2.09Z"/><path class="cls-5" d="M76.78,61.87l1.71-2.09C77.28,59.4,76,59,74.67,58.67l-3,3.72Z"/><path class="cls-3" d="M71.62,62.39l3-3.72c-.82-.22-1.62-.42-2.35-.58L68.55,62.7Z"/><path class="cls-5" d="M72.32,58.09a12,12,0,0,0-3.12-.41c-1.84.19-3.22,2.62-3.91,4.15a2.35,2.35,0,0,0-.2,1.22l3.46-.35Z"/></svg>