<svg id="Layer_1" data-name="Layer 1" xmlns="http://www.w3.org/2000/svg" viewBox="0 0 100 100"><defs><style>.cls-1{fill:#cda134;}.cls-2{fill:#674541;}.cls-3{fill:#714c48;}.cls-4{fill:#e2b68a;}.cls-5{fill:#aa8a69;}.cls-6{fill:none;stroke:#714c48;stroke-linecap:round;stroke-miterlimit:10;stroke-width:3.48px;}.cls-7{fill:#ffc640;}.cls-8{fill:#3e3e3f;}.cls-9{fill:#8a5f5a;}</style></defs><title>wild boar</title><path class="cls-1" d="M8.78,57.33c0,1.64-1.74,3-3.88,3S1,59,1,57.33,2.75,38.56,4.9,38.56,8.78,55.7,8.78,57.33Z"/><rect class="cls-2" x="62.16" y="71.03" width="8.7" height="23.15" rx="2.03" ry="2.03"/><rect class="cls-3" x="78.4" y="71.03" width="8.7" height="23.15" rx="2.03" ry="2.03"/><rect class="cls-2" x="27.35" y="71.03" width="8.7" height="23.15" rx="2.03" ry="2.03"/><rect class="cls-3" x="5.98" y="13.06" width="89.82" height="70.24" rx="13.91" ry="13.91"/><rect class="cls-2" y="53.47" width="38.46" height="17.56" rx="4.09" ry="4.09"/><rect class="cls-2" x="11.11" y="62.25" width="32.48" height="17.56" rx="4.09" ry="4.09"/><circle class="cls-4" cx="17.48" cy="50.98" r="14.61"/><rect class="cls-5" x="8.78" y="41.27" width="4.66" height="16.32" rx="1.09" ry="1.09"/><rect class="cls-5" x="18.83" y="41.27" width="4.66" height="16.32" rx="1.09" ry="1.09"/><path class="cls-3" d="M19,11.13A7.67,7.67,0,0,1,8.19,22C5.2,19,2.87,5.82,2.87,5.82S16,8.14,19,11.13Z"/><rect class="cls-3" x="43.59" y="71.03" width="8.7" height="23.15" rx="2.03" ry="2.03"/><path class="cls-6" d="M87.1,24.22A10.58,10.58,0,0,1,95.8,28"/><path class="cls-7" d="M37.53,57.33c0,1.64-1.74,3-3.89,3s-3.88-1.32-3.88-3,1.74-18.77,3.88-18.77S37.53,55.7,37.53,57.33Z"/><circle class="cls-8" cx="45.74" cy="35.01" r="1.75"/><path class="cls-2" d="M29.76,13.06S7.74,14.8,4.9,31.4l8.71-7.18,2.16,8.11,6.37-6.24,6.22,10.28,5.28-7.15,4.82,8.71,10.66-4.67,10.17,3.5,7.22-3.5,10.34,5.3,3.57-2.19,6.68.39L89.28,34l4.81,5.44,1.71-2.72,4.2,2.72S91.76,16.17,73,13.06,29.76,13.06,29.76,13.06Z"/><path class="cls-3" d="M47.54,11.13A7.67,7.67,0,0,0,58.38,22c3-3,5.32-16.15,5.32-16.15S50.54,8.14,47.54,11.13Z"/><path class="cls-9" d="M50.44,12.75a4.48,4.48,0,0,0,6.33,6.33c1.75-1.75,3.1-9.44,3.1-9.44S52.18,11,50.44,12.75Z"/></svg>