<svg id="Layer_1" data-name="Layer 1" xmlns="http://www.w3.org/2000/svg" viewBox="0 0 100 100"><defs><style>.cls-1{fill:#f37d3b;}.cls-2{fill:#7d7d7d;}.cls-3{fill:#bcd2de;}.cls-4{fill:#b55d29;}.cls-5{fill:#171717;}.cls-6{fill:#fff588;}.cls-7{fill:#6ab8d9;}</style></defs><title>firetruck</title><rect class="cls-1" x="42.57" y="15.88" width="18.55" height="5.01" rx="1.2" ry="1.2"/><rect class="cls-1" x="57.9" y="13.01" width="7.34" height="10.88" rx="1.76" ry="1.76"/><circle class="cls-2" cx="43.07" cy="25.44" r="12.43"/><rect class="cls-1" x="9.95" y="25.44" width="59.38" height="54.51" rx="5.31" ry="5.31"/><rect class="cls-1" x="64.77" y="25.44" width="35.23" height="54.51" rx="5.31" ry="5.31"/><rect class="cls-3" x="71.99" y="31.44" width="22.29" height="21.25" rx="1.71" ry="1.71"/><rect class="cls-4" x="71.99" y="55.54" width="7.01" height="2.66" rx="0.64" ry="0.64"/><circle class="cls-5" cx="23.49" cy="78.46" r="8.53"/><circle class="cls-1" cx="23.49" cy="78.46" r="3.51"/><circle class="cls-5" cx="82.38" cy="78.46" r="8.53"/><circle class="cls-1" cx="82.38" cy="78.46" r="3.51"/><rect class="cls-4" x="18.57" y="33.98" width="39.72" height="28.02" rx="5.31" ry="5.31"/><path class="cls-6" d="M53.3,37a2.2,2.2,0,0,0-1.95,1.2v-.15A1,1,0,0,0,50.3,37H48A1.06,1.06,0,0,0,47,38.09,1,1,0,0,0,45.91,37H43.63a1,1,0,0,0-.93.58,1.05,1.05,0,0,0-.93-.58H39.48a1,1,0,0,0-1,1.05,1,1,0,0,0-1-1.05H35.09a1.05,1.05,0,0,0-.93.58,1,1,0,0,0-.92-.58H31a1,1,0,0,0-1.05,1.05,1.06,1.06,0,0,0-1-1.05H26.56a1,1,0,0,0-.93.58A1,1,0,0,0,24.7,37H22.42a1.06,1.06,0,0,0-1.06,1.05V57.9A1.06,1.06,0,0,0,22.42,59H24.7a1,1,0,0,0,.93-.58,1,1,0,0,0,.93.58h2.29a1.06,1.06,0,0,0,1-1.05A1,1,0,0,0,31,59h2.29a1,1,0,0,0,.92-.58,1.05,1.05,0,0,0,.93.58h2.29a1,1,0,0,0,1-1.05,1,1,0,0,0,1,1.05h2.29a1.05,1.05,0,0,0,.93-.58,1,1,0,0,0,.93.58h2.28A1,1,0,0,0,47,57.9,1.06,1.06,0,0,0,48,59H50.3a1,1,0,0,0,.81-.4v4H55.5V39.23A2.2,2.2,0,0,0,53.3,37Z"/><path class="cls-7" d="M51.11,62.55v3.5a2.2,2.2,0,0,0,4.39,0v-3.5Z"/><rect class="cls-5" x="49.23" y="66.51" width="8.13" height="2.58" rx="0.62" ry="0.62"/><rect class="cls-5" x="50.63" y="64.93" width="5.35" height="2.1"/><rect class="cls-2" x="6.59" y="29.05" width="3.36" height="43.53" rx="0.81" ry="0.81"/><rect class="cls-2" y="29.05" width="3.36" height="43.53" rx="0.81" ry="0.81"/><rect class="cls-2" x="0.57" y="32.54" width="8.51" height="2.2" rx="0.53" ry="0.53"/><rect class="cls-2" x="0.57" y="37.76" width="8.51" height="2.2" rx="0.53" ry="0.53"/><rect class="cls-2" x="0.57" y="42.98" width="8.51" height="2.2" rx="0.53" ry="0.53"/><rect class="cls-2" x="0.57" y="48.19" width="8.51" height="2.2" rx="0.53" ry="0.53"/><rect class="cls-2" x="0.57" y="53.41" width="8.51" height="2.2" rx="0.53" ry="0.53"/><rect class="cls-2" x="0.57" y="58.63" width="8.51" height="2.2" rx="0.53" ry="0.53"/><rect class="cls-2" x="0.57" y="63.84" width="8.51" height="2.2" rx="0.53" ry="0.53"/></svg>