<svg id="Layer_1" data-name="Layer 1" xmlns="http://www.w3.org/2000/svg" viewBox="0 0 100 100"><defs><style>.cls-1{fill:#02a280;}.cls-2{fill:#9bc5d9;}.cls-3{fill:#ffc43f;}.cls-4{fill:#82a9b8;}.cls-5{fill:#f07d3c;}.cls-6{fill:#009174;}</style></defs><title>medusa</title><path class="cls-1" d="M26.11,36.54c-2.73,0-4.36-.77-5.22-2.32-1.15-2.08,0-4.23.88-5.95.61-1.16,1.37-2.6,1.07-3.29s-1.26-1.11-2.71-1.47a2.53,2.53,0,0,1,1.21-4.92c3.16.78,5.23,2.25,6.15,4.39,1.25,2.91-.19,5.64-1.24,7.64l-.44.87c1.27,0,4.16-.22,10.44-2a2.53,2.53,0,0,1,1.4,4.87C32.52,35.8,28.78,36.54,26.11,36.54Z"/><path class="cls-1" d="M38.14,31.25a2.53,2.53,0,0,1-1.85-.8c-2.26-2.41-5.1-6-3.64-9.38a4.74,4.74,0,0,1,1.16-1.61c-4,1.89-5.39,1.58-6.52.16-.57-.73-1.06-2-.09-4.05,1.1-2.29,3.64-4.78,6.64-4.8a5.92,5.92,0,0,1,3.35,1c1.37-.83,3-1.83,4.88-3A2.53,2.53,0,0,1,44.8,13c-1.57,1-3,1.89-4.27,2.68A6.09,6.09,0,0,1,41,19.78a5,5,0,0,1-3,3,6.75,6.75,0,0,0-.66.35c.07.35.44,1.51,2.65,3.87a2.53,2.53,0,0,1-.12,3.58A2.49,2.49,0,0,1,38.14,31.25Z"/><path class="cls-1" d="M46.52,24.53a2.53,2.53,0,0,1-1.76-4.35,25.83,25.83,0,0,1,9.46-5.95,33.9,33.9,0,0,1,4.59-1.18l.35-.07a25.41,25.41,0,0,0-2.37-1.44,2.53,2.53,0,1,1,2.44-4.43c3.79,2.08,7.05,4.24,5.47,7.82-.63,2.23-2.8,2.66-4.9,3.08a27.83,27.83,0,0,0-3.91,1,20.79,20.79,0,0,0-7.61,4.81A2.55,2.55,0,0,1,46.52,24.53Z"/><path class="cls-1" d="M54,31.81a2.54,2.54,0,0,1-2.09-4c2.35-3.43,6-7.89,10.17-7.07A6.15,6.15,0,0,1,66,23.84a5.28,5.28,0,0,0,2,2c2.48,1.26,6.29.16,6.78-.69a3.18,3.18,0,0,0-.59-1.37,4.84,4.84,0,0,0-3-2,2.57,2.57,0,0,1-2.38-2.63l.07-2.23,2.24-.22c.16,0,3.64-.31,4.7,1.7A10,10,0,0,1,78.39,21a6.9,6.9,0,0,1,1.28,5.39,6.13,6.13,0,0,1-3.66,4,12.42,12.42,0,0,1-10.31,0,10,10,0,0,1-3.85-3.66,5.23,5.23,0,0,0-.74-1s-1.56,0-5,5A2.52,2.52,0,0,1,54,31.81Z"/><rect class="cls-2" x="34.33" y="19.84" width="28.1" height="37.49" rx="6.88" ry="6.88"/><circle class="cls-3" cx="39.63" cy="34.27" r="1.32"/><circle class="cls-3" cx="57.25" cy="34.27" r="1.32"/><polygon class="cls-1" points="45.47 40.49 51.29 40.49 48.24 31.45 45.47 40.49"/><rect class="cls-4" x="44.28" y="44.53" width="9.02" height="1.76" rx="0.43" ry="0.43"/><rect class="cls-2" x="32.82" y="53.17" width="25.81" height="37.49" rx="6.32" ry="6.32" transform="translate(28.35 -11.51) rotate(20.68)"/><path class="cls-1" d="M52.07,91.57c.14-.09.1-.09.09-.11a.1.1,0,0,0-.07,0,.59.59,0,0,0-.19,0h-.43a1.65,1.65,0,0,1-.66,0c-.18-.05-.19-.21-.09-.56s.11-.39.37-.91a6.4,6.4,0,0,0,.23-.7,6,6,0,0,0,.31-1.1c0-.3.18-.9.21-1.42a11.88,11.88,0,0,0,0-1.67,7.08,7.08,0,0,0-.37-1.83,8.45,8.45,0,0,0-.62-1.56c-.14-.24-.28-.48-.44-.7L50,80.46a6,6,0,0,0-.77-.82L49,79.38l-.23-.17a4.11,4.11,0,0,0-.51-.27c-.36-.15-.69-.07-.54.13s0,.18.14.3l.4.36a24.14,24.14,0,0,0,5.57,2.93c2.27.86,4.67,1.69,7.14,2.42A315.56,315.56,0,0,0,92,92.15,320,320,0,0,1,60,99c-2.78.41-5.62.72-8.58.93a45.47,45.47,0,0,1-9.84-.37l-1.47-.28c-.49-.1-1.12-.32-1.67-.49a17.32,17.32,0,0,1-4-1.83c-.43-.29-.84-.6-1.25-.92l-.61-.49-.29-.25L32,94.9c-.48-.51-.94-1.05-1.37-1.61A9.23,9.23,0,0,1,30,92.4c-.22-.37-.43-.76-.63-1.16a16.19,16.19,0,0,1-1-2.48,17.24,17.24,0,0,1-.48-2.8,13,13,0,0,1,0-2.65,13.85,13.85,0,0,1,.42-2.38,18.32,18.32,0,0,1,.66-2c.23-.59.45-1,.71-1.57a20.46,20.46,0,0,1,1.5-2.52,30.06,30.06,0,0,1,2.7-3.34c.87-.93,1.66-1.67,2.49-2.41l1.23-1,.66-.52.36-.27c.13-.09.24-.17.52-.34Z"/><path class="cls-1" d="M56.1,79.52A13.51,13.51,0,0,1,42.6,93c-7.46,0-16.32-1.58-14.53-8.81C33.08,64,35.14,66,42.6,66A13.5,13.5,0,0,1,56.1,79.52Z"/><polygon class="cls-5" points="13.36 22.04 7.97 22.04 9.09 21.07 7.97 20.09 13.36 20.09 13.36 22.04"/><ellipse class="cls-1" cx="16.4" cy="20.58" rx="5.35" ry="3.45"/><circle class="cls-3" cx="17.95" cy="19.47" r="0.62"/><polygon class="cls-5" points="47.3 5.72 49.48 0.79 48.13 1.42 47.69 0 45.51 4.93 47.3 5.72"/><ellipse class="cls-1" cx="44.72" cy="7.91" rx="5.35" ry="3.45" transform="translate(19.39 45.6) rotate(-66.12)"/><circle class="cls-3" cx="43.08" cy="8.87" r="0.62"/><polygon class="cls-5" points="55.22 8.89 50.71 5.94 52.18 5.73 51.77 4.31 56.29 7.26 55.22 8.89"/><ellipse class="cls-1" cx="58.57" cy="9.32" rx="3.45" ry="5.35" transform="translate(18.72 53.25) rotate(-56.83)"/><circle class="cls-3" cx="60.47" cy="9.25" r="0.62"/><polygon class="cls-5" points="70.15 19.18 65.64 16.23 67.11 16.02 66.71 14.6 71.22 17.55 70.15 19.18"/><ellipse class="cls-1" cx="73.5" cy="19.61" rx="3.45" ry="5.35" transform="translate(16.87 70.41) rotate(-56.83)"/><circle class="cls-3" cx="75.4" cy="19.54" r="0.62"/><rect class="cls-2" x="23.32" y="59.2" width="50.19" height="4.96" rx="1.21" ry="1.21"/><path class="cls-1" d="M34.33,39.56a2.54,2.54,0,0,1-2.53-2.43c0-.46-.38-11.24,5.82-16.8,3-2.68,6.87-3.69,11.55-3C66.69,20,64.81,34.49,64.79,34.63a2.53,2.53,0,0,1-5-.7c.13-1,.88-9.74-11.36-11.57-3.16-.48-5.59.09-7.42,1.74-3.69,3.3-4.24,10.38-4.14,12.83a2.53,2.53,0,0,1-2.43,2.63Z"/><path class="cls-6" d="M35,69.3,38.49,71a22.52,22.52,0,0,0-3.56,5.54A22,22,0,0,1,35,69.3Z"/><path class="cls-6" d="M39.65,71.5l3.5,1.65a17.35,17.35,0,0,0-3.28,4.14A16.9,16.9,0,0,1,39.65,71.5Z"/><path class="cls-6" d="M44.32,73.7l3.5,1.66a12.09,12.09,0,0,0-3,2.73A12.14,12.14,0,0,1,44.32,73.7Z"/><path class="cls-6" d="M35.66,89.51l3.21-1.34a18,18,0,0,0,1.71,5.17A23.44,23.44,0,0,1,35.66,89.51Z"/><path class="cls-6" d="M39.93,87.73l3.21-1.34a13.58,13.58,0,0,0,1,4.28A19.13,19.13,0,0,1,39.93,87.73Z"/><path class="cls-6" d="M44.21,85.94l3.2-1.34A9.38,9.38,0,0,0,47.64,88,14.22,14.22,0,0,1,44.21,85.94Z"/><path class="cls-6" d="M35.41,80.42l3.68,0a15.92,15.92,0,0,0-.8,5.07A19,19,0,0,1,35.41,80.42Z"/><path class="cls-6" d="M40.31,80.38l3.68,0a11.71,11.71,0,0,0-1.13,3.9A14.63,14.63,0,0,1,40.31,80.38Z"/><path class="cls-6" d="M45.29,96.48,47.23,94a16.76,16.76,0,0,0,3.55,3.36A21.43,21.43,0,0,1,45.29,96.48Z"/><path class="cls-6" d="M47.88,93.13l1.94-2.52a12.17,12.17,0,0,0,2.51,3A16.85,16.85,0,0,1,47.88,93.13Z"/><path class="cls-6" d="M54.23,97.58l.6-2.9A12.93,12.93,0,0,0,59,96.09,18,18,0,0,1,54.23,97.58Z"/><path class="cls-6" d="M64.17,95.85c-.34-.82-.69-1.64-1-2.47a13.64,13.64,0,0,0,4.77-1.75A21,21,0,0,1,64.17,95.85Z"/></svg>