<svg id="Layer_1" data-name="Layer 1" xmlns="http://www.w3.org/2000/svg" viewBox="0 0 100 100"><defs><style>.cls-1{fill:#d6ae83;}.cls-2{fill:#fcca98;}.cls-3{fill:#bf9c75;}.cls-4{fill:#171717;}.cls-5{fill:#fff;}</style></defs><title>flying squirrel</title><path class="cls-1" d="M8.85,11.37s11.26,21.8,0,68.48L44.29,54.39l1-11.85L35.74,30.35"/><path class="cls-2" d="M8.69,12.42l29.06,22A2.29,2.29,0,0,0,41,34h0a2.3,2.3,0,0,0-.46-3.21l-29.06-22a2.29,2.29,0,0,0-3.21.46h0A2.29,2.29,0,0,0,8.69,12.42Z"/><path class="cls-2" d="M8.69,77.52l29.06-22A2.29,2.29,0,0,1,41,56h0a2.29,2.29,0,0,1-.46,3.21l-29.06,22a2.29,2.29,0,0,1-3.21-.46h0A2.3,2.3,0,0,1,8.69,77.52Z"/><path class="cls-1" d="M91.15,11.37s-11.26,21.8,0,68.48L55.71,54.39l-1-11.85,9.53-12.19"/><ellipse class="cls-2" cx="37.4" cy="4.82" rx="3.29" ry="5" transform="translate(0.64 13.24) rotate(-20.25)"/><ellipse class="cls-3" cx="36.84" cy="5.33" rx="2.19" ry="3.33" transform="translate(0.43 13.08) rotate(-20.25)"/><ellipse class="cls-2" cx="62.6" cy="4.82" rx="5" ry="3.29" transform="translate(36.41 61.89) rotate(-69.75)"/><ellipse class="cls-3" cx="63.16" cy="5.33" rx="3.33" ry="2.19" transform="translate(36.31 62.74) rotate(-69.75)"/><ellipse class="cls-2" cx="50" cy="43.41" rx="14.19" ry="20.18"/><path class="cls-2" d="M62.6,14.44c0,9.9-5.64,17.92-12.6,17.92s-12.6-8-12.6-17.92S43,3.64,50,3.64,62.6,4.55,62.6,14.44Z"/><ellipse class="cls-2" cx="50" cy="59.25" rx="14.19" ry="7.69"/><circle class="cls-4" cx="50" cy="24.57" r="2.26"/><circle class="cls-4" cx="40.19" cy="16.68" r="1.32"/><circle class="cls-4" cx="60.3" cy="16.68" r="1.32"/><path class="cls-5" d="M46.76,28.18V30.9a1.62,1.62,0,1,0,3.24,0V28.18Z"/><path class="cls-5" d="M50,28.18V30.9a1.62,1.62,0,0,0,3.24,0V28.18Z"/><path class="cls-2" d="M91.31,12.42l-29.06,22A2.29,2.29,0,0,1,59,34h0a2.3,2.3,0,0,1,.46-3.21l29.06-22a2.29,2.29,0,0,1,3.21.46h0A2.29,2.29,0,0,1,91.31,12.42Z"/><path class="cls-2" d="M91.31,77.52l-29.06-22A2.29,2.29,0,0,0,59,56h0a2.29,2.29,0,0,0,.46,3.21l29.06,22a2.29,2.29,0,0,0,3.21-.46h0A2.3,2.3,0,0,0,91.31,77.52Z"/><path class="cls-2" d="M49.56,52.19c1.17,4.25,2.2,8.46,3.37,12.58.53,2.07,1.11,4.11,1.72,6.12s1.15,4,1.76,5.93a30.1,30.1,0,0,0,2.51,5.41,12.38,12.38,0,0,1,1.59,4.64c.13,1.43.13,2.34-.89,2.92a.92.92,0,0,0-.3.38.86.86,0,0,0-.14.41.59.59,0,0,0,.11.48,3.87,3.87,0,0,0,.35.5,6.62,6.62,0,0,0,1.41.69c.57.13,1.23.3,2,.46l1,1.21a9.83,9.83,0,0,1-.65,2.26,10.55,10.55,0,0,1-1.5,2,12.24,12.24,0,0,1-1.21.83,4.45,4.45,0,0,1-1.47.63,12.16,12.16,0,0,1-1.74.32,11.51,11.51,0,0,1-1.83-.13,7,7,0,0,1-1.72-.44,11.54,11.54,0,0,1-1.59-.69A14.28,14.28,0,0,1,49.81,97,17.76,17.76,0,0,1,48,95.19a22.36,22.36,0,0,1-1.41-1.87,14.45,14.45,0,0,1-2.43-7.51c-.08-2.48.15-4.88.12-7.17s0-4.55.23-6.79.47-4.45.78-6.65a103.39,103.39,0,0,1,2.77-13Z"/><polyline class="cls-2" points="45.12 75.58 43.2 79.41 43.55 76.67 42.53 76.77 43.59 73.7 42.5 74.37 44.32 69.67 43.2 70.99 45.77 65.16"/><polyline class="cls-2" points="50.99 58.88 55.03 63.36 53.59 62.98 56.56 67.33 54.6 66.82 57.93 72.33 55.81 70.74 59.29 76.55 57.04 75.29 61.45 82.6 59.61 81.34 60.9 84.69 60.08 84.3 63.59 89.41 61.26 88.62 61.53 89.72 57.33 87.47"/></svg>