<svg id="Layer_1" data-name="Layer 1" xmlns="http://www.w3.org/2000/svg" viewBox="0 0 100 100"><defs><style>.cls-1{fill:#e6b43b;}.cls-2{fill:#171717;}.cls-3{fill:#bd9530;}.cls-4{fill:#09a582;}.cls-5{fill:#bcd2de;}</style></defs><title>electric car</title><path class="cls-1" d="M52.19,72.59,13.47,64C-.55,64,0,61.12,0,47.09V43.64c0-14-1.14-25.49,12.88-25.49H52.19A25.56,25.56,0,0,1,77.68,43.64v3.45A25.57,25.57,0,0,1,52.19,72.59Z"/><path class="cls-1" d="M100,57.05A15.58,15.58,0,0,0,84.46,41.52H15.54a15.52,15.52,0,0,0-.75,31,7.64,7.64,0,0,1,15.15,0H70.1a7.64,7.64,0,0,1,15.15,0A15.58,15.58,0,0,0,100,57.05Z"/><circle class="cls-2" cx="22.36" cy="70.38" r="11.47"/><circle class="cls-2" cx="77.68" cy="70.38" r="11.47"/><rect class="cls-3" x="45.94" y="48.6" width="10.45" height="3.72" rx="0.87" ry="0.87"/><circle class="cls-4" cx="22.36" cy="70.38" r="4.71"/><circle class="cls-4" cx="77.68" cy="70.38" r="4.71"/><polyline class="cls-4" points="11.68 42.32 15.17 42.32 10.46 50.92 23.99 39.37 18.49 39.37 22.85 33.71 17.08 33.71"/><path class="cls-4" d="M17.23,57.08a15.4,15.4,0,0,1-4.77-.75,1.61,1.61,0,1,1,1-3.06,12.48,12.48,0,0,0,7.6,0,1.6,1.6,0,0,1,1,3.05A15.67,15.67,0,0,1,17.23,57.08Z"/><path class="cls-4" d="M6,51.38a1.6,1.6,0,0,1-1.3-.66,15.35,15.35,0,0,1-3-9.1A1.61,1.61,0,0,1,3.31,40h0a1.61,1.61,0,0,1,1.61,1.6,12.24,12.24,0,0,0,2.37,7.22,1.61,1.61,0,0,1-.35,2.25A1.63,1.63,0,0,1,6,51.38Z"/><path class="cls-4" d="M28.48,51.33a1.59,1.59,0,0,1-.94-.3,1.61,1.61,0,0,1-.36-2.25,12.15,12.15,0,0,0,2.35-7.22,1.65,1.65,0,0,1,1.61-1.66,1.56,1.56,0,0,1,1.6,1.55v.11a15.41,15.41,0,0,1-3,9.11A1.6,1.6,0,0,1,28.48,51.33Z"/><path class="cls-4" d="M5.93,35a1.66,1.66,0,0,1-.94-.3,1.61,1.61,0,0,1-.36-2.25,15.68,15.68,0,0,1,7.72-5.67,1.61,1.61,0,1,1,1,3.05,12.45,12.45,0,0,0-6.12,4.5A1.6,1.6,0,0,1,5.93,35Z"/><path class="cls-4" d="M12.86,26.71v3.06a.86.86,0,0,0,1.35.71L16.44,29a.87.87,0,0,0,0-1.42L14.21,26A.86.86,0,0,0,12.86,26.71Z"/><path class="cls-4" d="M29.32,51.4l-1.81-2.48a.86.86,0,0,0-1.51.23l-.89,2.55A.85.85,0,0,0,26,52.84l2.7-.07A.86.86,0,0,0,29.32,51.4Z"/><path class="cls-4" d="M11.87,56.06l1.27-2.79a.86.86,0,0,0-.93-1.2l-2.67.47A.85.85,0,0,0,9,53.83l1.39,2.32A.86.86,0,0,0,11.87,56.06Z"/><path class="cls-4" d="M1.74,41.32l3.06.17a.86.86,0,0,0,.78-1.3L4.17,37.87a.86.86,0,0,0-1.41-.07L1.1,39.94A.86.86,0,0,0,1.74,41.32Z"/><path class="cls-3" d="M8,69.49c0-7.14,6.6-12.92,14.75-12.92s14.74,5.78,14.74,12.92"/><path class="cls-3" d="M62.93,69.49c0-7.14,6.61-12.92,14.75-12.92s14.75,5.78,14.75,12.92"/><path class="cls-5" d="M51.57,20.53H45v21H72.9A21.4,21.4,0,0,0,51.57,20.53Z"/><rect class="cls-5" x="23.11" y="20.53" width="15.8" height="20.98"/></svg>