<svg id="Layer_1" data-name="Layer 1" xmlns="http://www.w3.org/2000/svg" viewBox="0 0 100 100"><defs><style>.cls-1{fill:#ffc63f;}.cls-2{fill:#fff;}.cls-3{fill:#171717;}.cls-4{fill:#bf9b77;}.cls-5{fill:#ffc640;}.cls-6{fill:#cfa335;}</style></defs><title>ostrich</title><rect class="cls-1" x="33.58" y="84.46" width="5.69" height="1.92" rx="0.45" ry="0.45"/><rect class="cls-1" x="33.58" y="86.15" width="5.69" height="1.92" rx="0.45" ry="0.45"/><rect class="cls-1" x="34.8" y="75.09" width="3.25" height="23.58" rx="0.77" ry="0.77"/><rect class="cls-1" x="60.42" y="84.46" width="5.69" height="1.92" rx="0.45" ry="0.45"/><rect class="cls-1" x="60.42" y="86.15" width="5.69" height="1.92" rx="0.45" ry="0.45"/><rect class="cls-1" x="61.65" y="75.09" width="3.25" height="23.58" rx="0.77" ry="0.77"/><ellipse class="cls-2" cx="33.09" cy="56.81" rx="8.08" ry="14.34" transform="translate(-12.61 9.54) rotate(-13.81)"/><ellipse class="cls-2" cx="33.09" cy="56.81" rx="8.08" ry="14.34" transform="translate(-12.61 9.54) rotate(-13.81)"/><ellipse class="cls-2" cx="26.61" cy="56.81" rx="3.88" ry="13.81" transform="translate(-12.79 8) rotate(-13.81)"/><ellipse class="cls-2" cx="66.12" cy="56.81" rx="14.34" ry="8.08" transform="translate(-4.84 107.45) rotate(-76.19)"/><ellipse class="cls-2" cx="66.12" cy="56.81" rx="14.34" ry="8.08" transform="translate(-4.84 107.45) rotate(-76.19)"/><ellipse class="cls-2" cx="72.59" cy="56.81" rx="13.81" ry="3.88" transform="translate(0.09 113.74) rotate(-76.19)"/><ellipse class="cls-3" cx="38.83" cy="56.81" rx="17.07" ry="14.17"/><ellipse class="cls-3" cx="61.32" cy="56.81" rx="17.07" ry="14.17"/><ellipse class="cls-3" cx="50.02" cy="60.56" rx="25.1" ry="20.84"/><path class="cls-4" d="M50.08,60.56h0a8,8,0,0,1-7.93-7.92l3.47-30.33L42.15,7.92A8,8,0,0,1,50.08,0h0A8,8,0,0,1,58,7.92L54.8,22.31,58,52.64A7.94,7.94,0,0,1,50.08,60.56Z"/><rect class="cls-4" x="41.14" y="6.62" width="17.95" height="3.89" rx="0.92" ry="0.92"/><path class="cls-5" d="M55.1,12.8l-5,4.84-5-4.84a1.34,1.34,0,0,1-1.35-1.35h0a1.35,1.35,0,0,1,1.35-1.35l5-2.7,5,2.7a1.36,1.36,0,0,1,1.35,1.35h0A1.35,1.35,0,0,1,55.1,12.8Z"/><rect class="cls-5" x="44.45" y="12.61" width="11.48" height="2.07" rx="0.49" ry="0.49"/><rect class="cls-6" x="47.5" y="9.67" width="1.46" height="2.37" rx="0.34" ry="0.34"/><rect class="cls-6" x="51.19" y="9.67" width="1.46" height="2.37" rx="0.34" ry="0.34"/><circle class="cls-3" cx="42.99" cy="8.74" r="0.92"/><circle class="cls-3" cx="57.37" cy="8.74" r="0.92"/><ellipse class="cls-1" cx="34.13" cy="98.21" rx="3.43" ry="1.79"/><ellipse class="cls-1" cx="38.77" cy="98.21" rx="3.43" ry="1.79"/><ellipse class="cls-1" cx="61.89" cy="98.21" rx="3.43" ry="1.79"/><ellipse class="cls-1" cx="66.53" cy="98.21" rx="3.43" ry="1.79"/></svg>