<svg id="Layer_1" data-name="Layer 1" xmlns="http://www.w3.org/2000/svg" viewBox="0 0 100 100"><defs><style>.cls-1{fill:#bcd2de;}.cls-2{fill:#fbc295;}.cls-3{fill:#f69a85;}.cls-4{fill:#6ab8d9;}.cls-5{fill:#589ab6;}.cls-6{fill:#569ab6;}.cls-7{fill:#fff;}</style></defs><title>milk shake</title><ellipse class="cls-1" cx="52.35" cy="93.61" rx="21.58" ry="6.46"/><ellipse class="cls-1" cx="52.35" cy="23.56" rx="23.51" ry="7.16"/><path class="cls-1" d="M75.86,23.56c0,4-10.52,72.41-23.51,72.41S28.84,27.52,28.84,23.56,39.37,16.4,52.35,16.4,75.86,19.61,75.86,23.56Z"/><path class="cls-2" d="M72,32c0,3.26-8.81,59.65-19.67,59.65S32.68,35.28,32.68,32s8.81-5.9,19.67-5.9S72,28.76,72,32Z"/><ellipse class="cls-3" cx="52.42" cy="30.7" rx="19.67" ry="5.29"/><polygon class="cls-4" points="38.61 32.18 33.83 6.98 16.14 5.93 16.47 0.31 38.54 1.61 44.14 31.13 38.61 32.18"/><rect class="cls-5" x="38.29" y="28.86" width="5.63" height="2.82" transform="translate(-4.93 8.21) rotate(-10.76)"/><path class="cls-5" d="M37.25,25.05l-.83-4.37L42,19.63,42.79,24ZM35.6,16.32,34.77,12l5.53-1,.83,4.37Z"/><polygon class="cls-5" points="33.94 7.59 33.83 6.98 33.2 6.94 33.54 1.32 38.54 1.61 39.48 6.54 33.94 7.59"/><rect class="cls-5" x="23.43" y="1.33" width="5.63" height="4.76" transform="translate(20.99 29.69) rotate(-86.61)"/><rect class="cls-5" x="14.89" y="1.79" width="5.63" height="2.82" transform="translate(13.47 20.69) rotate(-86.62)"/><rect class="cls-6" x="30.17" y="0.07" width="5.06" height="8.1" rx="1.25" ry="1.25" transform="translate(0.28 -1.8) rotate(3.17)"/><rect class="cls-6" x="32.53" y="0.2" width="5.06" height="8.1" rx="1.25" ry="1.25" transform="translate(3.47 -11.54) rotate(19.65)"/><rect class="cls-6" x="34.41" y="1.33" width="5.06" height="8.1" rx="1.25" ry="1.25" transform="matrix(0.81, 0.59, -0.59, 0.81, 10.28, -20.75)"/><rect class="cls-6" x="34.59" y="3.94" width="5.06" height="8.1" rx="1.25" ry="1.25" transform="translate(39.3 -29.92) rotate(81.14)"/><rect class="cls-3" x="36.94" y="29.97" width="8.97" height="3.07"/><path class="cls-2" d="M59.74,27.26c0,.6-1.37,1.09-3.07,1.09s-3.08-.49-3.08-1.09S55,25.1,56.67,25.1,59.74,26.65,59.74,27.26Z"/><path class="cls-2" d="M50.58,28.28c0,.61-1.38,1.1-3.08,1.1s-3.07-.49-3.07-1.1,1.38-2.16,3.07-2.16S50.58,27.68,50.58,28.28Z"/><ellipse class="cls-2" cx="49.31" cy="31.54" rx="1.8" ry="0.53"/><path class="cls-2" d="M69,31.87c0,.47-1,.86-2.27.86s-2.28-.39-2.28-.86,1-1.38,2.28-1.38S69,31.4,69,31.87Z"/><rect class="cls-7" x="49.34" y="22.98" width="20.81" height="7.72" rx="1.91" ry="1.91"/><rect class="cls-7" x="54.08" y="20.02" width="14.68" height="5.45" rx="1.35" ry="1.35"/><rect class="cls-7" x="56.56" y="17.12" width="9.9" height="3.67" rx="0.91" ry="0.91"/><path class="cls-7" d="M59.74,17.71s2.21-5-.51-6.44a7.16,7.16,0,0,1,5.14,7"/><circle class="cls-3" cx="42.2" cy="46.03" r="1.57"/><circle class="cls-3" cx="55.7" cy="57.53" r="2.66"/><circle class="cls-3" cx="45.97" cy="61.72" r="1.54"/><circle class="cls-3" cx="61.04" cy="46.83" r="1.3"/><circle class="cls-3" cx="58.96" cy="78.63" r="1.54"/><ellipse class="cls-7" cx="41.37" cy="54.87" rx="2.45" ry="6.92" transform="translate(-10.1 9.34) rotate(-11.49)"/><ellipse class="cls-7" cx="52.63" cy="73.77" rx="2.45" ry="9.37" transform="translate(-13.64 11.96) rotate(-11.49)"/></svg>