<svg id="Layer_1" data-name="Layer 1" xmlns="http://www.w3.org/2000/svg" viewBox="0 0 100 100"><defs><style>.cls-1{fill:#87c1ac;}.cls-2{fill:#e8ba8c;}.cls-3{fill:#d7ae83;}.cls-4{fill:#bb9775;}.cls-5{fill:#ffc640;}.cls-6{fill:#7cb19d;}.cls-7{fill:#3e3e3f;}.cls-8{fill:#547d70;}</style></defs><title>map</title><polygon class="cls-1" points="97.58 0 2.43 0 2.43 99.96 84.91 99.96 97.58 87.29 97.58 0"/><path class="cls-2" d="M70.69,7.12a5.6,5.6,0,0,1,3.09.8c.43.26,1,.63,3.43,6.64C80,21.48,81.39,25,82.26,29.36c1.06,5.39,1.82,9.28.61,14.21-.57,2.31-2.08,8.45-5.73,9.33a3.69,3.69,0,0,1-1,.12c-2.08,0-4.63-1.52-7.2-4.27a12.35,12.35,0,0,1-3.22-6.46c-.45-1.86-.9-3.78-2.92-5.39-1.37-1.08-3.41-1.57-6.61-1.57a141.92,141.92,0,0,0-14.71,1.32l-1.77.22a40.52,40.52,0,0,1-4.62.42,5.32,5.32,0,0,1-3.06-.77c-3.8-2.32-4.2-8.1-4.23-9.23-.18-4.95,2.33-11.19,6.69-12.64a4.57,4.57,0,0,1,1.51-.26,8.83,8.83,0,0,1,3.21.85,15,15,0,0,0,6,1.36,13.23,13.23,0,0,0,1.64-.1,11.49,11.49,0,0,0,5.61-2.19A45.22,45.22,0,0,1,58.69,11c4.24-1.91,8.63-3.88,12-3.88m0-1.2c-3.63,0-8.07,2-12.49,4-7.18,3.22-7.37,4.95-11.42,5.41a13.68,13.68,0,0,1-1.51.09c-4.29,0-6.36-2.21-9.22-2.21a5.81,5.81,0,0,0-1.89.32c-4.9,1.62-7.71,8.37-7.52,13.82.05,1.18.41,7.54,4.81,10.22a6.65,6.65,0,0,0,3.69,1c1.58,0,3.58-.3,6.53-.65a142.47,142.47,0,0,1,14.57-1.32c2.8,0,4.68.38,5.86,1.32,3.57,2.82,1.27,6.63,6,11.72.81.87,4.34,4.65,8.08,4.65a5.32,5.32,0,0,0,1.24-.15c4.35-1,5.94-7.52,6.61-10.21,1.27-5.19.45-9.35-.6-14.73-.89-4.52-2.3-8-5.11-15-2.42-6-3.11-6.71-3.91-7.21a6.87,6.87,0,0,0-3.73-1Z"/><path class="cls-3" d="M68.83,12.16a1,1,0,0,1,.37.07c.62.23.86.94,1.44,3.08.34,1.22.75,2.74,1.45,4.62a38.14,38.14,0,0,0,5,9.33c1.53,2.19,2.37,3.4,2.14,5.45-.47,4.15-4.75,7.47-6.29,7.47h-.11c-.27-.37-.1-2.14,0-3.31.31-3.14.73-7.44-2-10.53C68.78,26.07,65.58,25,61,25c-1.68,0-3.27.15-4.43.26a31.87,31.87,0,0,0-10,2.75,14,14,0,0,1-5.4,1.53A7.82,7.82,0,0,1,39,29.18c-3-.89-5.59-3.21-5.45-4.42s3.86-2.5,6.08-3.2A31.44,31.44,0,0,1,50.25,20h.57a19,19,0,0,0,8.45-1.48A25,25,0,0,0,66,14c1.18-1,2.11-1.83,2.79-1.83m0-1.2c-2.38,0-4.37,4-10,6.45a17.9,17.9,0,0,1-8,1.39h-.57a32.74,32.74,0,0,0-11,1.62c-3.21,1-6.67,2.14-6.91,4.2s3,4.77,6.31,5.71a8.78,8.78,0,0,0,2.53.38c4.42,0,7.58-3.53,15.5-4.28,1.18-.11,2.7-.26,4.32-.26,3.17,0,6.74.55,8.9,3,4.22,4.71-.06,13,2.41,14.13a1.57,1.57,0,0,0,.63.12c2.35,0,7-3.93,7.48-8.54s-3.73-5.93-7.21-15.32c-1.94-5.23-1.67-7.7-3.61-8.42a2.22,2.22,0,0,0-.78-.14Z"/><path class="cls-4" d="M66.83,16.6c0,.16.08.33.12.48.19.8.42,1.8.79,3,.46,1.51.92,2.72,1.28,3.62-.39-.21-.85-.44-1.39-.69a13.82,13.82,0,0,0-4.41-1.56,6.73,6.73,0,0,0-.74-.05,6.41,6.41,0,0,0-2.36.5,6.9,6.9,0,0,1-2.54.51h-.23c-.63,0-1.23,0-1.76-.08L58,21.55c1.57-.52,2.65-.82,3.44-1a7.74,7.74,0,0,0,3.22-1.41,9.32,9.32,0,0,0,2.2-2.5m.21-2c-.8,0-1.08,1.95-3.15,3.56-1.36,1.06-2,.84-6.3,2.26-3.12,1-5.06,1.69-5,2.26s2.78,1,4.76,1h.24c2.56,0,3.17-1,4.89-1l.6,0a13.09,13.09,0,0,1,4,1.46c2.08,1,2.92,1.68,3.36,1.68a.34.34,0,0,0,.19-.07c.55-.42-.64-2.19-1.78-6-1-3.39-1-5-1.77-5.17Z"/><path class="cls-2" d="M11,69h0a13.2,13.2,0,0,1,7.16,2.31c2.52,1.75,3.2,3.82,3.92,6s1.51,4.6,4.23,6.32A8.7,8.7,0,0,0,31.17,85a26.75,26.75,0,0,0,3-.23,29.62,29.62,0,0,1,3.68-.28A17.63,17.63,0,0,1,44,85.56c4.22,1.48,6.77,3.33,6.72,4.19-.1,1.4-5.72,4.09-13.16,4.09-.81,0-1.6,0-2.36-.1-4.28-.38-8.52-2.62-17-7.08-5.94-3.13-7.59-4.59-8.88-6.51-1.91-2.86-3.76-7.85-1.9-10A4.72,4.72,0,0,1,11,69m0-1.2A5.81,5.81,0,0,0,6.51,69.4c-2.43,2.75-.21,8.4,1.8,11.42,1.43,2.13,3.27,3.72,9.32,6.91,8.61,4.53,12.91,6.8,17.43,7.21.81.07,1.64.11,2.47.11,7.1,0,14.18-2.57,14.35-5.22s-6.47-5-7.51-5.41a19.18,19.18,0,0,0-6.49-1.14c-2.62,0-4.73.51-6.71.51a7.49,7.49,0,0,1-4.23-1.17c-4.85-3.07-2.55-8.46-8.11-12.32A14.52,14.52,0,0,0,11,67.78Z"/><path class="cls-4" d="M11.1,72.87c.6,0,2,.62,3.91,2a14.13,14.13,0,0,1,4.31,5.25,13.34,13.34,0,0,0,4.34,5.2,17.52,17.52,0,0,0,7.93,2.6,23.33,23.33,0,0,0,3,.2,32.46,32.46,0,0,0,3.82-.26c.76-.08,1.41-.15,1.94-.15.88,0,1.12.2,1.28.38a2.67,2.67,0,0,1-.15,3,1.92,1.92,0,0,1-1.51.46c-2.05,0-5.48-1.22-9.84-2.77a25.32,25.32,0,0,1-7.09-3.43,10.24,10.24,0,0,1-1.93-1.83,16.61,16.61,0,0,0-2.45-2.36,27.31,27.31,0,0,0-4.18-2.75,5.59,5.59,0,0,1-2.73-2.3A5.38,5.38,0,0,1,11,72.88h.09m0-1.2a1.24,1.24,0,0,0-.78.23c-.92.72-.53,3.12.4,4.81,1.39,2.53,3.35,2.3,7.21,5.41,2.52,2,2.13,2.49,4.41,4.2.86.65,2.69,1.93,7.41,3.61s8,2.84,10.24,2.84a3.08,3.08,0,0,0,2.38-.84,3.82,3.82,0,0,0,.2-4.6,2.61,2.61,0,0,0-2.2-.82c-1.39,0-3.28.4-5.76.4a22.73,22.73,0,0,1-2.86-.18,16.27,16.27,0,0,1-7.41-2.41c-4.37-3-3.53-6.66-8.61-10.42-.42-.3-3-2.23-4.63-2.23Z"/><polygon class="cls-5" points="67.58 63.95 61 70.53 61 80.78 55.7 86.08 65 95.38 76.9 95.38 85.85 86.43 85.85 68.76 92.57 62.05 69.69 62.05 67.58 63.95"/><polygon class="cls-5" points="26.52 65.46 40.37 79.3 51.83 67.84 38.99 55 26.52 65.46"/><rect class="cls-6" x="4.95" width="1" height="99.96"/><rect class="cls-6" x="31.84" width="1" height="99.96"/><rect class="cls-6" x="58.73" width="1" height="99.96"/><rect class="cls-6" x="85.62" width="1" height="96.19"/><path class="cls-7" d="M15.15,3.47,14,3.26q.21-1.15.45-2.37l1.18.23C15.43,1.92,15.29,2.7,15.15,3.47Z"/><path class="cls-7" d="M68.23,61.51l-1.06,0,0-1.2A31.24,31.24,0,0,0,72,60.08l.14,1.19A32.77,32.77,0,0,1,68.23,61.51Zm-6-.71a14.09,14.09,0,0,1-4.62-2.07l.69-1a13,13,0,0,0,4.23,1.89ZM77,60.39l-.29-1.17a37.52,37.52,0,0,0,4.57-1.45l.44,1.11A37.73,37.73,0,0,1,77,60.39Zm9.21-3.54-.55-1.07a16.5,16.5,0,0,0,3.89-2.62l.83.88A17.85,17.85,0,0,1,86.2,56.85ZM54.35,54.74c-.13-.34-.23-.67-.32-1a7.11,7.11,0,0,0-1.62-3.07l.83-.87.08.08a8.24,8.24,0,0,1,1.86,3.52c.09.3.17.6.29.91Zm38.75-5-1.16-.34a6.86,6.86,0,0,0,.28-2,9.67,9.67,0,0,0-.37-2.54l1.16-.3a11.09,11.09,0,0,1,.42,2.84A8.13,8.13,0,0,1,93.1,49.7ZM48.63,47.94a20.24,20.24,0,0,0-4.54-1.29l.22-1.18a21,21,0,0,1,4.8,1.37Zm-9.34-2.07-.66-.1c-1.32-.23-2.72-.52-4.16-.85l.27-1.17c1.41.33,2.8.6,4.1.83l.64.11Zm-9.58-2.18c-1.68-.49-3.25-1-4.67-1.54L25.46,41c1.4.52,2.94,1,4.59,1.51Zm60.68-3.44a31.1,31.1,0,0,1-1-4.46l-.05-.39,1.19-.15,0,.37a30.26,30.26,0,0,0,1,4.28Zm-69.87-.14a16.2,16.2,0,0,1-1.67-1.06,12.41,12.41,0,0,1-2.26-2.15l.94-.76a11.27,11.27,0,0,0,2,1.94,16.61,16.61,0,0,0,1.54,1Zm-6.41-7.6a25.86,25.86,0,0,1-1.29-4.81L14,27.49a24.3,24.3,0,0,0,1.22,4.59Zm76.2-2-1.2-.06a32.81,32.81,0,0,1,.63-4.92l1.18.24A30.31,30.31,0,0,0,90.31,30.49Zm-78-7.7q-.06-1.27-.06-2.67c0-.73,0-1.48,0-2.25l1.2,0c0,.76,0,1.5,0,2.21q0,1.36.06,2.61Zm1.5-9.71L12.6,13c.15-1.55.35-3.19.58-4.87l1.19.17C14.14,9.93,13.94,11.55,13.8,13.08Z"/><path class="cls-7" d="M92.23,21l-1.13-.39q.39-1.11.87-2.28l1.11.46C92.77,19.57,92.48,20.31,92.23,21Z"/><path class="cls-7" d="M29.82,45l-.46-1.11c1.38-.56,2.3-.85,2.3-.85L32,44.22S31.13,44.51,29.82,45Z"/><path class="cls-7" d="M9.2,66.65,9,65.46a29,29,0,0,0,4.08-.86l.35,1.15A30.14,30.14,0,0,1,9.2,66.65Zm8.28-2.8-.73-1a3.49,3.49,0,0,0,1.58-2.84c0-.09,0-.18,0-.28l1.2-.09c0,.13,0,.24,0,.36A4.69,4.69,0,0,1,17.48,63.85Zm-.16-8.22v-.21a7.32,7.32,0,0,1,1.38-4.13l1,.67a6.15,6.15,0,0,0-1.16,3.46v.17Zm5.2-6.56-.74-1a27.06,27.06,0,0,1,3.67-2.35l.57,1A25.53,25.53,0,0,0,22.52,49.07Z"/><path class="cls-7" d="M2.67,67.11H2.42l0-1.2s.94,0,2.36-.06l0,1.2C3.83,67.1,3.05,67.11,2.67,67.11Z"/><polygon class="cls-8" points="97.54 87.33 84.87 100 84.87 87.33 97.54 87.33"/></svg>