<svg id="Layer_1" data-name="Layer 1" xmlns="http://www.w3.org/2000/svg" viewBox="0 0 100 100"><defs><style>.cls-1{fill:#7d7d7d;}.cls-2{fill:#f37d3b;}.cls-3{fill:#6b6b6b;}.cls-4{fill:#c96730;}.cls-5{fill:#171717;}.cls-6{fill:#d97035;}</style></defs><title>lawn mower</title><rect class="cls-1" x="76.77" y="11.64" width="5.6" height="65.33" rx="1.33" ry="1.33" transform="translate(23.67 -27.6) rotate(23.03)"/><rect class="cls-1" x="21.44" y="47.87" width="40.34" height="25.99" rx="6.17" ry="6.17"/><rect class="cls-1" x="19.18" y="60.86" width="44.86" height="5.52" rx="1.31" ry="1.31"/><rect class="cls-1" x="19.18" y="58.1" width="44.86" height="5.52" rx="1.31" ry="1.31"/><rect class="cls-1" x="19.18" y="55.34" width="44.86" height="5.52" rx="1.31" ry="1.31"/><rect class="cls-2" x="4.87" y="64.41" width="74.7" height="20.34" rx="4.83" ry="4.83"/><rect class="cls-3" x="23.87" y="46.39" width="35.18" height="4.6" rx="1.09" ry="1.09"/><rect class="cls-4" x="51.69" y="66.6" width="15.78" height="2.72" rx="0.65" ry="0.65"/><path class="cls-5" d="M100,17.85c0,3.54-2.87,3.4-6.4,3.4s-6.4.14-6.4-3.4a6.4,6.4,0,0,1,12.8,0Z"/><rect class="cls-6" y="78.35" width="84.44" height="6.4" rx="1.52" ry="1.52"/><circle class="cls-5" cx="14.37" cy="79.04" r="9.5"/><circle class="cls-2" cx="14.37" cy="79.04" r="3.91"/><circle class="cls-5" cx="70.07" cy="79.04" r="9.5"/><circle class="cls-2" cx="70.07" cy="79.04" r="3.91"/><rect class="cls-5" x="37.48" y="59.41" width="9.21" height="2.28" rx="0.54" ry="0.54"/><rect class="cls-5" x="39" y="60.86" width="6.18" height="3.55"/><circle class="cls-5" cx="55.01" cy="56.69" r="3.32"/></svg>