<svg id="Layer_1" data-name="Layer 1" xmlns="http://www.w3.org/2000/svg" viewBox="0 0 100 100"><defs><style>.cls-1{fill:#069274;}.cls-2{fill:#2b3514;}.cls-3{fill:#b2ae4f;}.cls-4{fill:#d5b949;}.cls-5{fill:#586337;}.cls-6{fill:#6d7a45;}.cls-7{fill:#faaf40;}.cls-8{fill:#895e59;}.cls-9{fill:#09a582;}.cls-10{fill:#089a7a;}</style></defs><title>swamp</title><ellipse class="cls-1" cx="66.37" cy="59.39" rx="32.52" ry="6.8"/><ellipse class="cls-1" cx="32.52" cy="60.73" rx="32.52" ry="8.45"/><ellipse class="cls-1" cx="62.12" cy="69.86" rx="37.88" ry="8.08"/><ellipse class="cls-1" cx="48.97" cy="53.34" rx="32.52" ry="6.8"/><path class="cls-2" d="M16.56,60.54l-.42,0c-2.19.19-4.09-2.08-4.23-5l-.3-6.48c-.14-3,1.53-5.54,3.72-5.73l.42,0c2.18-.19,4.09,2.08,4.23,5.05l.3,6.47C20.42,57.78,18.75,60.35,16.56,60.54Z"/><polyline class="cls-2" points="11.54 47.76 11.16 39.61 13.43 43.4 15.34 39.23 17.64 43.07 19.53 38.94 19.92 47.03"/><ellipse class="cls-3" cx="31.02" cy="59.77" rx="27.21" ry="6.43"/><ellipse class="cls-3" cx="52.94" cy="53.34" rx="23.05" ry="3.66"/><ellipse class="cls-3" cx="63.54" cy="68.06" rx="32.52" ry="6.8"/><path class="cls-4" d="M28.94,61.68a24.27,24.27,0,0,1-12.36,0,6.18,6.18,0,1,1,12.36,0Z"/><path class="cls-4" d="M66.61,66.9a11,11,0,0,1-5.88,0,2.95,2.95,0,1,1,5.88,0Z"/><path class="cls-1" d="M44.47,66c0,1.16-1.45,2.1-3.24,2.1S38,67.12,38,66s1.45-5,3.24-5S44.47,64.8,44.47,66Z"/><path class="cls-1" d="M48,66.78c0,.71-.89,1.28-2,1.28s-2-.57-2-1.28.89-3.07,2-3.07S48,66.07,48,66.78Z"/><path class="cls-1" d="M47.08,64.91c0,.71-.89,1.29-2,1.29s-2-.58-2-1.29.89-3.06,2-3.06S47.08,64.2,47.08,64.91Z"/><path class="cls-1" d="M50.17,65.12c0,.71-.89,1.28-2,1.28s-2-.57-2-1.28.89-3.07,2-3.07S50.17,64.41,50.17,65.12Z"/><path class="cls-1" d="M55.33,67.29c0,.71-2.17,1.29-4.85,1.29s-4.85-.58-4.85-1.29,2.17-3.06,4.85-3.06S55.33,66.58,55.33,67.29Z"/><polyline class="cls-2" points="24.87 43.53 20.35 41.8 22.99 40.52 22.47 38.02 23.91 36.24 22.16 33.28 26.65 35.01"/><path class="cls-2" d="M67,49.16,30.65,35.24c-2.11-.81-4.33.87-4.92,3.72l-.12.55c-.59,2.85.64,5.85,2.75,6.66l14.19,5.44H69.28A4.43,4.43,0,0,0,67,49.16Z"/><ellipse class="cls-5" cx="25.04" cy="39.2" rx="4.59" ry="1.67" transform="translate(-18.04 56.75) rotate(-79.6)"/><ellipse class="cls-6" cx="25.04" cy="39.2" rx="3.77" ry="1.37" transform="translate(-18.04 56.75) rotate(-79.6)"/><ellipse class="cls-5" cx="25.01" cy="39.32" rx="3.16" ry="1.15" transform="translate(-18.18 56.82) rotate(-79.6)"/><ellipse class="cls-6" cx="24.95" cy="39.28" rx="2.6" ry="0.83" transform="translate(-18.3 56.46) rotate(-79.25)"/><ellipse class="cls-5" cx="24.93" cy="39.36" rx="2.18" ry="0.7" transform="translate(-18.39 56.51) rotate(-79.25)"/><polyline class="cls-2" points="28.01 46.04 21.87 43.68 25.43 42.11 24.68 38.87 26.61 36.62 24.19 32.77 30.3 35.11"/><path class="cls-7" d="M60.58,59.09c-3.55-5.34-1.3-16.74-1.2-17.22l2.46.5c-.61,3-1.64,11.62.83,15.33Z"/><path class="cls-8" d="M61,43h0a3.71,3.71,0,0,1-3.16-4.23l2.35-13.62a3.85,3.85,0,0,1,4.42-3h0a3.72,3.72,0,0,1,3.16,4.24L65.38,40A3.83,3.83,0,0,1,61,43Z"/><path class="cls-7" d="M62.81,59.47C61,54.49,64.4,45.33,64.54,45l1.9.71c0,.09-3.29,8.84-1.73,13.12Z"/><path class="cls-8" d="M65.62,46.1h0A3.24,3.24,0,0,1,63.9,42L67.75,31a2.88,2.88,0,0,1,3.77-1.85h0a3.24,3.24,0,0,1,1.72,4.06L69.4,44.25A2.89,2.89,0,0,1,65.62,46.1Z"/><path class="cls-9" d="M63.25,59.82l1.46-2.26-.18-4.19a5.86,5.86,0,0,0-1.5,1.4,6.36,6.36,0,0,0-.39.72l.17,3.89A2,2,0,0,0,63.25,59.82Z"/><path class="cls-9" d="M62.81,59.38l-.17-3.89A3.88,3.88,0,0,0,62.81,59.38Z"/><path class="cls-10" d="M65.43,56.45l-.15-3.57c-.26.16-.51.32-.75.49l.18,4.19Z"/><path class="cls-9" d="M66.62,54.61l-.1-2.42c-.41.21-.83.44-1.24.69l.15,3.57Z"/><path class="cls-10" d="M68.91,51.07s-1.11.45-2.39,1.12l.1,2.42Z"/><path class="cls-1" d="M67.73,58.29c1.17-1.82,1.18-7.22,1.18-7.22l-5.66,8.75C64.54,60.79,66.55,60.1,67.73,58.29Z"/><path class="cls-9" d="M61.24,59.78,59.9,57.65l-3.46-1.24a6,6,0,0,0,.63,1.88,4,4,0,0,0,.46.6L60.74,60A2.17,2.17,0,0,0,61.24,59.78Z"/><path class="cls-9" d="M60.74,60l-3.21-1.15A3,3,0,0,0,60.74,60Z"/><path class="cls-10" d="M59.24,56.6l-3-1.05c.05.29.09.58.15.86l3.46,1.24Z"/><path class="cls-9" d="M58.14,54.86l-2-.71c0,.45.08.93.14,1.4l3,1.05Z"/><path class="cls-10" d="M56,51.53s0,1.2.11,2.62l2,.71Z"/><path class="cls-1" d="M61.5,55.06C60.42,53.35,56,51.53,56,51.53l5.2,8.25C62.46,58.89,62.58,56.77,61.5,55.06Z"/><polyline class="cls-2" points="38.35 39.94 41.64 35.26 40 31.35 43.11 34.95 42.28 40.63"/><path class="cls-3" d="M46.2,52.47a7.1,7.1,0,0,1-4.7,0c0-1.76,1-3.19,2.35-3.19S46.2,50.71,46.2,52.47Z"/><path class="cls-3" d="M53.83,51.91a4.23,4.23,0,0,1-2.81,0c0-1,.63-1.91,1.4-1.91S53.83,50.86,53.83,51.91Z"/><path class="cls-4" d="M47.76,48.34a9.9,9.9,0,0,1-5.6,1.5,9.9,9.9,0,0,1-5.6-1.5,6.77,6.77,0,0,0-1.64,4.37,30.22,30.22,0,0,0,14.48,0A6.77,6.77,0,0,0,47.76,48.34Z"/><ellipse class="cls-4" cx="36.61" cy="45.89" rx="0.56" ry="0.54"/><ellipse class="cls-4" cx="41.69" cy="43.33" rx="1.25" ry="1.21"/><ellipse class="cls-4" cx="44.74" cy="46.72" rx="0.3" ry="0.29"/><ellipse class="cls-4" cx="42.02" cy="47.71" rx="0.33" ry="0.32"/><ellipse class="cls-4" cx="52.64" cy="45.02" rx="0.92" ry="0.89"/><polygon class="cls-1" points="63.86 75.94 67.68 75.94 65.77 69.86 63.86 75.94"/><polygon class="cls-1" points="66.73 75.94 70.56 75.94 68.64 69.86 66.73 75.94"/><polygon class="cls-1" points="69.61 75.94 73.43 75.94 71.52 69.86 69.61 75.94"/><polyline class="cls-2" points="81.76 60.3 83.7 57.44 84.16 59.48 85.98 59.53 86.98 60.82 89.32 60.08 87.39 62.93"/><path class="cls-2" d="M86.58,65.66c.9-1.33.1-3.14-1.78-4l-.36-.17c-1.89-.88-4.17-.51-5.08.82l-3.48,5.12h9.51Z"/><ellipse class="cls-5" cx="84.74" cy="61.12" rx="1.19" ry="3.27" transform="translate(-5.2 114.29) rotate(-66.39)"/><ellipse class="cls-6" cx="84.74" cy="61.12" rx="0.98" ry="2.69" transform="translate(-5.2 114.29) rotate(-66.39)"/><ellipse class="cls-5" cx="84.66" cy="61.08" rx="0.82" ry="2.26" transform="translate(-5.22 114.19) rotate(-66.39)"/><ellipse class="cls-6" cx="84.7" cy="61.04" rx="0.59" ry="1.85" transform="translate(-5.48 113.65) rotate(-66.04)"/><ellipse class="cls-5" cx="84.65" cy="61.02" rx="0.5" ry="1.55" transform="translate(-5.49 113.59) rotate(-66.04)"/><polyline class="cls-2" points="79.51 62.07 82.15 58.19 82.66 60.92 85.03 60.93 86.28 62.63 89.35 61.58 86.73 65.44"/></svg>