<svg id="Layer_1" data-name="Layer 1" xmlns="http://www.w3.org/2000/svg" viewBox="0 0 100 100"><defs><style>.cls-1{fill:#6f4b47;}.cls-2{fill:#895e59;}.cls-3{fill:#7d7d7d;}.cls-4{fill:#58595b;}.cls-5{fill:#f9a63f;}.cls-6{fill:#ffc640;}.cls-7{fill:#f6923d;}</style></defs><title>mousetrap</title><rect class="cls-1" x="22" y="7.67" width="56.01" height="88.1" rx="6.95" ry="6.95" transform="translate(51.22 -20.21) rotate(45)"/><rect class="cls-2" x="22" y="4.22" width="56.01" height="88.1" rx="6.95" ry="6.95" transform="translate(48.78 -21.22) rotate(45)"/><path class="cls-3" d="M66.4,61.62a14.28,14.28,0,0,1-10.2-4.21L40.86,42.07a14.42,14.42,0,0,1,0-20.38l8.43-8.43a14.42,14.42,0,0,1,20.39,0L85,28.6A14.42,14.42,0,0,1,85,49l-8.43,8.43A14.28,14.28,0,0,1,66.4,61.62Zm-6.91-50a11.82,11.82,0,0,0-8.39,3.46l-8.43,8.43a11.87,11.87,0,0,0,0,16.78L58,55.61a11.88,11.88,0,0,0,16.77,0l8.43-8.43a11.87,11.87,0,0,0,0-16.78L67.87,15.06A11.82,11.82,0,0,0,59.49,11.6Z"/><path class="cls-4" d="M61.55,52.94,60.3,51.69a.77.77,0,0,0-.53-.21.77.77,0,0,0-.21-.53L58.31,49.7a.77.77,0,0,0-.53-.21.77.77,0,0,0-.21-.53l-1.25-1.25a.76.76,0,0,0-.53-.21.73.73,0,0,0-.21-.53l-1.25-1.25a.76.76,0,0,0-.53-.21.69.69,0,0,0-.21-.53l-1.25-1.24a.71.71,0,0,0-.53-.22A.69.69,0,0,0,51.6,43l-1.25-1.24a.66.66,0,0,0-.52-.21.71.71,0,0,0-.22-.53l-1.24-1.25a.69.69,0,0,0-.53-.21.74.74,0,0,0-.21-.53l-1.25-1.25a.69.69,0,0,0-.53-.21.76.76,0,0,0-.21-.53l-1.25-1.25a.73.73,0,0,0-.53-.21.76.76,0,0,0-.21-.53L42.4,33.79a.75.75,0,0,0-1,0l-5.74,5.74a.75.75,0,0,0,0,1l1.25,1.25a.77.77,0,0,0,.53.21.77.77,0,0,0,.21.53l1.25,1.24a.74.74,0,0,0,.53.22.73.73,0,0,0,.21.53l1.25,1.24a.73.73,0,0,0,.53.22.66.66,0,0,0,.21.52l1.25,1.25a.68.68,0,0,0,.53.21.67.67,0,0,0,.21.53l1.25,1.25a.67.67,0,0,0,.53.21.68.68,0,0,0,.21.53l1.24,1.25a.73.73,0,0,0,.53.21.73.73,0,0,0,.22.53l1.24,1.25a.77.77,0,0,0,.53.21.77.77,0,0,0,.21.53l1.25,1.25a.77.77,0,0,0,.53.21.77.77,0,0,0,.21.53l1.25,1.25a.77.77,0,0,0,.53.21.77.77,0,0,0,.21.53l1.25,1.25a.75.75,0,0,0,1,0L61.55,54A.74.74,0,0,0,61.55,52.94Z"/><rect class="cls-3" x="26.38" y="49.98" width="11.25" height="22.48" rx="2.55" ry="2.55" transform="translate(52.67 -4.7) rotate(45)"/><polygon class="cls-5" points="25.66 53.2 16.99 62.85 32.8 79.43 32.6 64.68 25.66 53.2"/><polygon class="cls-6" points="25.66 53.2 32.8 79.43 39.31 61.85 25.66 53.2"/><circle class="cls-7" cx="23.56" cy="60.51" r="1.23"/><circle class="cls-7" cx="35.27" cy="64.2" r="0.98"/><circle class="cls-7" cx="27.31" cy="69.55" r="0.93"/><circle class="cls-7" cx="33.76" cy="70.93" r="1.39"/><path class="cls-3" d="M38.94,55.57A1.28,1.28,0,0,1,38,55.2a1.3,1.3,0,0,1,0-1.81L75.21,16.22A1.28,1.28,0,1,1,77,18L39.84,55.2A1.26,1.26,0,0,1,38.94,55.57Z"/></svg>