<svg id="Layer_1" data-name="Layer 1" xmlns="http://www.w3.org/2000/svg" viewBox="0 0 100 100"><defs><style>.cls-1{fill:#09a582;}.cls-2{fill:#895e59;}.cls-3{fill:#f37d3b;}.cls-4{fill:#048d6f;}.cls-5{fill:#6a4743;}</style></defs><title>thread</title><path class="cls-1" d="M10.83,100a1.22,1.22,0,0,1-.94-2c3.46-4.16,3.2-5.78,2.92-6.28-.65-1.18-3.57-1.23-4.89-1.07-.41.08-4.78.84-6.65-1.89-1.51-2.2-.75-5.64,2.32-10.53,8.41-13.4,32.55-4.43,33.58-4a1.22,1.22,0,0,1-.87,2.29c-.23-.09-23.29-8.65-30.63,3-3.35,5.33-2.78,7.26-2.38,7.84.84,1.23,3.57,1,4.25.86s5.8-.64,7.42,2.31c1.16,2.11.11,5.06-3.18,9A1.24,1.24,0,0,1,10.83,100Z"/><ellipse class="cls-2" cx="55.81" cy="82.85" rx="31.68" ry="8.98"/><ellipse class="cls-2" cx="55.81" cy="90.31" rx="31.68" ry="8.98"/><rect class="cls-2" x="24.13" y="82.85" width="63.35" height="7.46"/><ellipse class="cls-1" cx="55.57" cy="80.25" rx="25.46" ry="7.22"/><ellipse class="cls-3" cx="55.57" cy="14.88" rx="25.46" ry="7.22"/><rect class="cls-1" x="30.11" y="14.88" width="50.92" height="65.36"/><path class="cls-4" d="M55.57,30.26c-13.26,0-26.69-2.9-26.69-8.44a1.23,1.23,0,0,1,2.46,0c0,2.44,9.44,6,24.23,6s24.23-3.55,24.23-6a1.23,1.23,0,0,1,2.46,0C82.26,27.36,68.83,30.26,55.57,30.26Z"/><path class="cls-4" d="M55.57,47.07c-13.26,0-26.69-2.9-26.69-8.45a1.23,1.23,0,0,1,2.46,0c0,2.45,9.44,6,24.23,6s24.23-3.55,24.23-6a1.23,1.23,0,0,1,2.46,0C82.26,44.17,68.83,47.07,55.57,47.07Z"/><path class="cls-4" d="M55.57,56c-13.26,0-26.69-2.9-26.69-8.44a1.23,1.23,0,0,1,2.46,0c0,2.44,9.44,6,24.23,6,13.64,0,24.23-11.92,24.23-14.94a1.23,1.23,0,0,1,2.46,0C82.26,43.39,70.14,56,55.57,56Z"/><path class="cls-4" d="M55.57,83.23c-13.26,0-26.69-2.9-26.69-8.44a1.23,1.23,0,0,1,2.46,0c0,2.44,9.44,6,24.23,6s24.23-3.55,24.23-6a1.23,1.23,0,0,1,2.46,0C82.26,80.33,68.83,83.23,55.57,83.23Z"/><path class="cls-4" d="M55.57,74.53c-13.26,0-26.69-2.9-26.69-8.45a1.23,1.23,0,0,1,2.46,0c0,2.45,9.44,6,24.23,6s24.23-3.55,24.23-6a1.23,1.23,0,0,1,2.46,0C82.26,71.63,68.83,74.53,55.57,74.53Z"/><path class="cls-4" d="M55.57,78.14c-13.26,0-26.69-2.9-26.69-8.45a1.23,1.23,0,0,1,2.46,0c0,2.45,9.44,6,24.23,6s24.23-3.55,24.23-6a1.23,1.23,0,0,1,2.46,0C82.26,75.24,68.83,78.14,55.57,78.14Z"/><ellipse class="cls-2" cx="55.81" cy="8.98" rx="31.68" ry="8.98"/><ellipse class="cls-2" cx="55.81" cy="16.44" rx="31.68" ry="8.98"/><rect class="cls-2" x="24.13" y="8.98" width="63.35" height="7.46"/><ellipse class="cls-5" cx="55.57" cy="7.46" rx="11.14" ry="3.16"/></svg>