<svg id="Layer_1" data-name="Layer 1" xmlns="http://www.w3.org/2000/svg" viewBox="0 0 100 100"><defs><style>.cls-1{fill:#6ab8d9;}.cls-2{fill:#5da2bf;}.cls-3{fill:#bf9b77;}.cls-4{fill:#91775a;}</style></defs><title>fabric</title><path class="cls-1" d="M97.7,14.9c0-3.91-3.2-4.08-7.11-2.22C67,24.17,43.32-8.59,19.69,2.9c-3.91,1.86-7.11,8.1-7.11,12V85.8c0,3.92,3.2,4.08,7.11,2.23C38.35,79,57,97.46,75.65,100c7.35-6.35,14.7-15.17,22-29.13Z"/><path class="cls-2" d="M97.7,70.87c-5,4.48-10,6.6-14.93,7.19-3.91.46-7.11,3.07-7.12,7V100C83,93.65,90.35,84.83,97.7,70.87Z"/><rect class="cls-2" x="4.58" y="3.58" width="23.53" height="84.6" rx="5.4" ry="5.4"/><rect class="cls-1" x="2.3" width="23.53" height="90.42" rx="5.58" ry="5.58"/><circle class="cls-2" cx="14.06" cy="77.68" r="9.96"/><circle class="cls-1" cx="14.06" cy="77.68" r="8.05"/><circle class="cls-3" cx="14.06" cy="77.68" r="6.22"/><circle class="cls-4" cx="14.06" cy="77.68" r="3.98"/></svg>