<svg id="Layer_1" data-name="Layer 1" xmlns="http://www.w3.org/2000/svg" viewBox="0 0 100 100"><defs><style>.cls-1{fill:#dab085;}.cls-2{fill:#fcca98;}.cls-3{fill:#b89572;}.cls-4{fill:#09a582;}.cls-5{fill:#007f63;}.cls-6{fill:#00634d;}.cls-7{fill:#ffc640;}.cls-8{fill:#c7d6de;}.cls-9{fill:#7d7d7d;}.cls-10{fill:#9dc8dc;}.cls-11{fill:#87898b;}.cls-12{fill:#fff;}.cls-13{fill:#999;}</style></defs><title>bank</title><path class="cls-1" d="M23.74,79.92A7.1,7.1,0,0,1,11.22,73.2c1.86-3.46,10.22-4.46,13.68-2.61S25.6,76.47,23.74,79.92Z"/><path class="cls-1" d="M30.05,71.17c-.48.44-3.72,1.49-4.9.21s.16-4.43.64-4.87.54,1.43,1.72,2.71S30.53,70.73,30.05,71.17Z"/><path class="cls-1" d="M30.07,71.15c-.4.37-1.68-.38-2.85-1.66s-1.81-2.63-1.41-3,1,.52,2.13,1.8S30.47,70.79,30.07,71.15Z"/><path class="cls-2" d="M17.28,82.2A8.56,8.56,0,0,1,5.48,94.6C2.05,91.34,3.55,81.31,6.8,77.89S13.85,78.94,17.28,82.2Z"/><path class="cls-2" d="M9.12,72.08c.36.7.54,4.8-1.33,5.76s-5.08-1.6-5.44-2.3S4.18,75.37,6,74.42,8.76,71.38,9.12,72.08Z"/><path class="cls-3" d="M9.1,72.05c.3.58-1,1.83-2.84,2.79s-3.63,1.26-3.92.67.9-.94,2.77-1.89S8.81,71.47,9.1,72.05Z"/><path class="cls-2" d="M90,58.32a8.56,8.56,0,0,1-16.64-4c1.1-4.59,10.53-8.33,15.13-7.22S91.05,53.73,90,58.32Z"/><path class="cls-2" d="M94.62,46.19c-.43.66-3.88,2.88-5.65,1.74s-1.16-5.2-.74-5.86,1.06,1.5,2.83,2.63S95,45.54,94.62,46.19Z"/><path class="cls-3" d="M94.64,46.17c-.36.54-2.07.07-3.84-1.07S87.89,42.59,88.25,42s1.27.32,3,1.46S95,45.62,94.64,46.17Z"/><rect class="cls-4" x="81.31" y="66.1" width="10.76" height="20.13" transform="translate(89.07 -39.2) rotate(49.88)"/><rect class="cls-5" x="89.03" y="67.01" width="1.31" height="2.82" rx="0.31" ry="0.31" transform="translate(84.21 -44.25) rotate(49.88)"/><rect class="cls-5" x="82.53" y="82.98" width="1.31" height="2.82" rx="0.31" ry="0.31" transform="translate(94.11 -33.6) rotate(49.88)"/><rect class="cls-5" x="81.56" y="73.55" width="10.76" height="4.8" transform="translate(88.99 -39.48) rotate(49.88)"/><circle class="cls-4" cx="86.91" cy="75.94" r="1.74"/><path class="cls-5" d="M95.38,73.2a2.1,2.1,0,1,0-3.21,2.7l1.32,1.57,3.21-2.71Z"/><circle class="cls-5" cx="91.8" cy="72.08" r="1.54"/><rect class="cls-6" x="80.64" y="62.91" width="10.76" height="20.13" transform="translate(121.58 -34.08) rotate(68.06)"/><rect class="cls-6" x="90.63" y="65.15" width="1.31" height="2.82" rx="0.31" ry="0.31" transform="translate(118.93 -42.99) rotate(68.06)"/><rect class="cls-6" x="79.47" y="78.29" width="1.31" height="2.82" rx="0.31" ry="0.31" transform="translate(124.12 -24.4) rotate(68.06)"/><rect class="cls-6" x="80.96" y="70.45" width="10.76" height="4.8" transform="translate(121.66 -34.45) rotate(68.06)"/><circle class="cls-6" cx="86.31" cy="72.83" r="1.74"/><path class="cls-6" d="M95.21,72.87a2.1,2.1,0,0,0-3.89,1.57l.76,1.89L96,74.76Z"/><circle class="cls-6" cx="92.16" cy="70.69" r="1.54"/><rect class="cls-4" x="80.83" y="61.94" width="10.76" height="20.13" transform="translate(120.8 -34.86) rotate(68.06)"/><rect class="cls-5" x="90.82" y="64.18" width="1.31" height="2.82" rx="0.31" ry="0.31" transform="translate(118.15 -43.77) rotate(68.06)"/><rect class="cls-5" x="79.66" y="77.32" width="1.31" height="2.82" rx="0.31" ry="0.31" transform="translate(123.34 -25.18) rotate(68.06)"/><rect class="cls-5" x="81.15" y="69.48" width="10.76" height="4.8" transform="translate(120.88 -35.23) rotate(68.06)"/><circle class="cls-4" cx="86.49" cy="71.86" r="1.74"/><path class="cls-5" d="M95.4,71.9a2.1,2.1,0,0,0-3.9,1.57l.77,1.9,3.89-1.57Z"/><circle class="cls-5" cx="92.35" cy="69.73" r="1.54"/><rect class="cls-6" x="77.81" y="58.87" width="10.76" height="20.13" transform="translate(151.68 -14.61) rotate(89.69)"/><rect class="cls-6" x="89.79" y="63.5" width="1.31" height="2.82" rx="0.31" ry="0.31" transform="translate(154.88 -25.88) rotate(89.69)"/><rect class="cls-6" x="74.57" y="71.6" width="1.31" height="2.82" rx="0.31" ry="0.31" transform="translate(147.84 -2.61) rotate(89.69)"/><rect class="cls-6" x="78.14" y="66.53" width="10.76" height="4.8" transform="translate(152.01 -14.95) rotate(89.69)"/><circle class="cls-6" cx="83.5" cy="68.91" r="1.74"/><path class="cls-6" d="M91.77,72.23a2.1,2.1,0,1,0-4.2,0v2l4.2,0Z"/><circle class="cls-6" cx="89.73" cy="69.08" r="1.54"/><rect class="cls-4" x="74.62" y="55.15" width="10.76" height="20.13" transform="translate(144.78 -15.12) rotate(89.69)"/><rect class="cls-5" x="86.6" y="59.78" width="1.31" height="2.82" rx="0.31" ry="0.31" transform="translate(147.98 -26.39) rotate(89.69)"/><rect class="cls-5" x="71.38" y="67.88" width="1.31" height="2.82" rx="0.31" ry="0.31" transform="translate(140.95 -3.12) rotate(89.69)"/><rect class="cls-5" x="74.95" y="62.81" width="10.76" height="4.8" transform="translate(145.12 -15.46) rotate(89.69)"/><circle class="cls-4" cx="80.31" cy="65.19" r="1.74"/><path class="cls-5" d="M88.58,68.51a2.1,2.1,0,1,0-4.2,0v2l4.2,0Z"/><circle class="cls-5" cx="86.54" cy="65.36" r="1.54"/><circle class="cls-7" cx="89.17" cy="85.41" r="1.97"/><circle class="cls-8" cx="91.74" cy="81.64" r="1.51"/><circle class="cls-8" cx="93.29" cy="88.69" r="1.51"/><circle class="cls-7" cx="87.94" cy="91.86" r="1.97"/><circle class="cls-7" cx="89.91" cy="89.58" r="1.97"/><circle class="cls-7" cx="91.02" cy="91.86" r="1.97"/><circle class="cls-7" cx="92.58" cy="89.58" r="1.97"/><circle class="cls-7" cx="88.64" cy="87.24" r="1.97"/><circle class="cls-7" cx="87.47" cy="84.77" r="1.97"/><circle class="cls-7" cx="86.67" cy="82.8" r="1.97"/><circle class="cls-7" cx="86.67" cy="79.65" r="1.97"/><circle class="cls-7" cx="89.05" cy="81.62" r="1.97"/><circle class="cls-7" cx="91.02" cy="85.27" r="1.97"/><circle class="cls-7" cx="91.88" cy="88.33" r="1.97"/><circle class="cls-7" cx="84.7" cy="77.37" r="1.97"/><circle class="cls-7" cx="84.31" cy="80.32" r="1.97"/><circle class="cls-7" cx="84.31" cy="86.09" r="1.97"/><circle class="cls-7" cx="87.11" cy="95.31" r="1.97"/><circle class="cls-7" cx="89.08" cy="93.03" r="1.97"/><circle class="cls-7" cx="90.96" cy="92.4" r="1.97"/><circle class="cls-7" cx="92.06" cy="94.68" r="1.97"/><circle class="cls-7" cx="93.63" cy="92.4" r="1.97"/><circle class="cls-7" cx="92.93" cy="91.15" r="1.97"/><circle class="cls-7" cx="90.13" cy="95.84" r="1.97"/><circle class="cls-7" cx="89.17" cy="94.37" r="1.97"/><circle class="cls-7" cx="90.28" cy="96.65" r="1.97"/><circle class="cls-7" cx="91.84" cy="94.37" r="1.97"/><circle class="cls-7" cx="91.14" cy="93.12" r="1.97"/><circle class="cls-7" cx="88.34" cy="97.81" r="1.97"/><circle class="cls-7" cx="87.81" cy="90.68" r="1.97"/><circle class="cls-7" cx="86.64" cy="88.22" r="1.97"/><circle class="cls-7" cx="85.84" cy="86.25" r="1.97"/><circle class="cls-7" cx="85.84" cy="83.1" r="1.97"/><circle class="cls-7" cx="88.22" cy="85.07" r="1.97"/><circle class="cls-7" cx="83.87" cy="80.81" r="1.97"/><circle class="cls-7" cx="83.48" cy="83.77" r="1.97"/><circle class="cls-7" cx="83.48" cy="89.54" r="1.97"/><circle class="cls-7" cx="84.09" cy="91.37" r="1.97"/><circle class="cls-7" cx="86.06" cy="89.09" r="1.97"/><circle class="cls-7" cx="84.79" cy="86.75" r="1.97"/><circle class="cls-7" cx="83.62" cy="84.28" r="1.97"/><circle class="cls-7" cx="82.82" cy="82.31" r="1.97"/><circle class="cls-7" cx="82.82" cy="79.16" r="1.97"/><circle class="cls-7" cx="85.2" cy="81.13" r="1.97"/><circle class="cls-7" cx="80.85" cy="76.88" r="1.97"/><circle class="cls-7" cx="80.46" cy="79.83" r="1.97"/><circle class="cls-7" cx="80.46" cy="85.6" r="1.97"/><circle class="cls-7" cx="85.62" cy="97.93" r="1.97"/><circle class="cls-7" cx="87.59" cy="95.65" r="1.97"/><circle class="cls-7" cx="86.32" cy="93.31" r="1.97"/><circle class="cls-7" cx="85.15" cy="90.84" r="1.97"/><circle class="cls-7" cx="84.35" cy="88.87" r="1.97"/><circle class="cls-7" cx="84.35" cy="85.72" r="1.97"/><circle class="cls-7" cx="86.73" cy="87.69" r="1.97"/><circle class="cls-7" cx="82.38" cy="83.44" r="1.97"/><circle class="cls-7" cx="81.99" cy="86.39" r="1.97"/><circle class="cls-7" cx="81.99" cy="92.16" r="1.97"/><circle class="cls-7" cx="84.01" cy="95.47" r="1.97"/><circle class="cls-7" cx="85.98" cy="93.18" r="1.97"/><circle class="cls-7" cx="84.71" cy="90.84" r="1.97"/><circle class="cls-7" cx="83.54" cy="88.37" r="1.97"/><circle class="cls-7" cx="82.74" cy="86.4" r="1.97"/><circle class="cls-7" cx="82.74" cy="83.25" r="1.97"/><circle class="cls-7" cx="85.12" cy="85.22" r="1.97"/><circle class="cls-7" cx="80.77" cy="80.97" r="1.97"/><circle class="cls-7" cx="80.38" cy="83.92" r="1.97"/><circle class="cls-7" cx="80.38" cy="89.69" r="1.97"/><circle class="cls-7" cx="9.81" cy="91.86" r="1.97"/><circle class="cls-7" cx="7.84" cy="89.58" r="1.97"/><circle class="cls-7" cx="6.73" cy="91.86" r="1.97"/><circle class="cls-7" cx="5.17" cy="89.58" r="1.97"/><circle class="cls-7" cx="9.11" cy="87.24" r="1.97"/><circle class="cls-7" cx="10.28" cy="84.77" r="1.97"/><circle class="cls-7" cx="11.08" cy="82.8" r="1.97"/><circle class="cls-7" cx="11.08" cy="79.65" r="1.97"/><circle class="cls-7" cx="8.7" cy="81.62" r="1.97"/><circle class="cls-7" cx="6.73" cy="85.27" r="1.97"/><circle class="cls-7" cx="5.87" cy="88.33" r="1.97"/><circle class="cls-7" cx="13.05" cy="77.37" r="1.97"/><circle class="cls-7" cx="13.44" cy="80.32" r="1.97"/><circle class="cls-7" cx="13.44" cy="86.09" r="1.97"/><circle class="cls-7" cx="10.64" cy="95.31" r="1.97"/><circle class="cls-7" cx="8.67" cy="93.03" r="1.97"/><circle class="cls-7" cx="6.79" cy="92.4" r="1.97"/><circle class="cls-7" cx="5.69" cy="94.68" r="1.97"/><circle class="cls-7" cx="4.12" cy="92.4" r="1.97"/><circle class="cls-7" cx="4.82" cy="91.15" r="1.97"/><circle class="cls-7" cx="7.62" cy="95.84" r="1.97"/><circle class="cls-7" cx="8.58" cy="94.37" r="1.97"/><circle class="cls-7" cx="7.47" cy="96.65" r="1.97"/><circle class="cls-7" cx="5.9" cy="94.37" r="1.97"/><circle class="cls-7" cx="6.61" cy="93.12" r="1.97"/><circle class="cls-7" cx="9.4" cy="97.81" r="1.97"/><circle class="cls-7" cx="9.94" cy="90.68" r="1.97"/><circle class="cls-7" cx="11.11" cy="88.22" r="1.97"/><circle class="cls-7" cx="11.91" cy="86.25" r="1.97"/><circle class="cls-7" cx="11.91" cy="83.1" r="1.97"/><circle class="cls-7" cx="9.53" cy="85.07" r="1.97"/><circle class="cls-7" cx="13.88" cy="80.81" r="1.97"/><circle class="cls-7" cx="14.27" cy="83.77" r="1.97"/><circle class="cls-7" cx="14.27" cy="89.54" r="1.97"/><circle class="cls-7" cx="13.66" cy="91.37" r="1.97"/><circle class="cls-7" cx="11.69" cy="89.09" r="1.97"/><circle class="cls-7" cx="12.96" cy="86.75" r="1.97"/><circle class="cls-7" cx="14.13" cy="84.28" r="1.97"/><circle class="cls-7" cx="14.93" cy="82.31" r="1.97"/><circle class="cls-7" cx="14.93" cy="79.16" r="1.97"/><circle class="cls-7" cx="12.55" cy="81.13" r="1.97"/><circle class="cls-7" cx="16.9" cy="76.88" r="1.97"/><circle class="cls-7" cx="17.29" cy="79.83" r="1.97"/><circle class="cls-7" cx="17.29" cy="85.6" r="1.97"/><circle class="cls-7" cx="12.13" cy="97.93" r="1.97"/><circle class="cls-7" cx="10.16" cy="95.65" r="1.97"/><circle class="cls-7" cx="11.43" cy="93.31" r="1.97"/><circle class="cls-7" cx="12.6" cy="90.84" r="1.97"/><circle class="cls-7" cx="13.4" cy="88.87" r="1.97"/><circle class="cls-7" cx="13.4" cy="85.72" r="1.97"/><circle class="cls-7" cx="11.02" cy="87.69" r="1.97"/><circle class="cls-7" cx="15.36" cy="83.44" r="1.97"/><circle class="cls-7" cx="15.76" cy="86.39" r="1.97"/><circle class="cls-7" cx="15.76" cy="92.16" r="1.97"/><circle class="cls-7" cx="13.74" cy="95.47" r="1.97"/><circle class="cls-7" cx="11.77" cy="93.18" r="1.97"/><circle class="cls-7" cx="13.04" cy="90.84" r="1.97"/><circle class="cls-7" cx="14.21" cy="88.37" r="1.97"/><circle class="cls-7" cx="15.01" cy="86.4" r="1.97"/><circle class="cls-7" cx="15.01" cy="83.25" r="1.97"/><circle class="cls-7" cx="12.63" cy="85.22" r="1.97"/><circle class="cls-7" cx="16.98" cy="80.97" r="1.97"/><circle class="cls-7" cx="17.37" cy="83.92" r="1.97"/><circle class="cls-7" cx="17.37" cy="89.69" r="1.97"/><rect class="cls-4" x="10.98" y="44.22" width="10.76" height="20.13" transform="translate(67.25 29.29) rotate(80.62)"/><rect class="cls-5" x="22.24" y="47.76" width="1.31" height="2.82" rx="0.31" ry="0.31" transform="translate(67.67 18.56) rotate(80.62)"/><rect class="cls-5" x="8.49" y="58.16" width="1.31" height="2.82" rx="0.31" ry="0.31" transform="translate(66.43 40.83) rotate(80.62)"/><rect class="cls-5" x="11.32" y="51.83" width="10.76" height="4.8" transform="translate(67.48 28.92) rotate(80.62)"/><circle class="cls-4" cx="16.67" cy="54.21" r="1.74"/><path class="cls-5" d="M25.35,56.18a2.1,2.1,0,1,0-4.14.69l.33,2,4.15-.68Z"/><circle class="cls-5" cx="22.85" cy="53.39" r="1.54"/><rect class="cls-6" x="12.04" y="41.14" width="10.76" height="20.13" transform="translate(70.69 41.82) rotate(98.8)"/><rect class="cls-6" x="24.57" y="46.97" width="1.31" height="2.82" rx="0.31" ry="0.31" transform="matrix(-0.15, 0.99, -0.99, -0.15, 76.9, 30.85)"/><rect class="cls-6" x="8.27" y="52.56" width="1.31" height="2.82" rx="0.31" ry="0.31" transform="translate(63.62 53.41) rotate(98.8)"/><rect class="cls-6" x="12.38" y="48.85" width="10.76" height="4.8" transform="translate(71.12 41.55) rotate(98.8)"/><circle class="cls-6" cx="17.74" cy="51.22" r="1.74"/><path class="cls-6" d="M25.37,55.81a2.1,2.1,0,1,0-4.15-.64l-.31,2,4.15.64Z"/><circle class="cls-6" cx="23.86" cy="52.38" r="1.54"/><rect class="cls-4" x="12.7" y="40.4" width="10.76" height="20.13" transform="matrix(-0.15, 0.99, -0.99, -0.15, 70.72, 40.33)"/><rect class="cls-5" x="25.23" y="46.24" width="1.31" height="2.82" rx="0.31" ry="0.31" transform="translate(76.93 29.36) rotate(98.8)"/><rect class="cls-5" x="8.92" y="51.83" width="1.31" height="2.82" rx="0.31" ry="0.31" transform="translate(63.65 51.92) rotate(98.8)"/><rect class="cls-5" x="13.03" y="48.12" width="10.76" height="4.8" transform="translate(71.16 40.06) rotate(98.8)"/><circle class="cls-4" cx="18.4" cy="50.49" r="1.74"/><path class="cls-5" d="M26,55.08a2.1,2.1,0,1,0-4.15-.64l-.31,2,4.15.65Z"/><circle class="cls-5" cx="24.52" cy="51.65" r="1.54"/><rect class="cls-6" x="11.67" y="36.22" width="10.76" height="20.13" transform="translate(65.59 55.03) rotate(120.43)"/><rect class="cls-6" x="24.69" y="45.13" width="1.31" height="2.82" rx="0.31" ry="0.31" transform="translate(78.31 48.26) rotate(120.43)"/><rect class="cls-6" x="7.47" y="44.31" width="1.31" height="2.82" rx="0.31" ry="0.31" transform="translate(51.66 61.87) rotate(120.43)"/><rect class="cls-6" x="11.96" y="44.05" width="10.76" height="4.8" transform="translate(66.17 55.04) rotate(120.43)"/><circle class="cls-6" cx="17.33" cy="46.42" r="1.74"/><path class="cls-6" d="M22.74,53.5a2.1,2.1,0,1,0-3.62-2.13l-1,1.76,3.63,2.13Z"/><circle class="cls-6" cx="22.6" cy="49.75" r="1.54"/><rect class="cls-4" x="10.83" y="31.39" width="10.76" height="20.13" transform="translate(60.16 48.48) rotate(120.43)"/><rect class="cls-5" x="23.85" y="40.3" width="1.31" height="2.82" rx="0.31" ry="0.31" transform="translate(72.88 41.71) rotate(120.43)"/><rect class="cls-5" x="6.63" y="39.48" width="1.31" height="2.82" rx="0.31" ry="0.31" transform="translate(46.23 55.32) rotate(120.43)"/><rect class="cls-5" x="11.12" y="39.23" width="10.76" height="4.8" transform="translate(60.74 48.49) rotate(120.43)"/><circle class="cls-4" cx="16.49" cy="41.59" r="1.74"/><path class="cls-5" d="M21.9,48.67a2.1,2.1,0,0,0-3.62-2.13l-1,1.76,3.63,2.13Z"/><circle class="cls-5" cx="21.76" cy="44.92" r="1.54"/><circle class="cls-7" cx="13.78" cy="63.5" r="1.97"/><circle class="cls-8" cx="17.91" cy="61.58" r="1.51"/><circle class="cls-8" cx="15.64" cy="68.43" r="1.51"/><path class="cls-2" d="M20.94,63.54a8.55,8.55,0,1,1-17-1.49c.41-4.71,9.18-9.8,13.89-9.39S21.36,58.83,20.94,63.54Z"/><path class="cls-2" d="M23.77,50.86c-.32.71-3.41,3.41-5.32,2.55s-1.93-5-1.6-5.69S18.12,49,20,49.91,24.1,50.14,23.77,50.86Z"/><path class="cls-3" d="M23.79,50.83c-.27.59-2,.37-3.95-.49s-3.25-2.05-3-2.65,1.3.13,3.21,1S24.06,50.23,23.79,50.83Z"/><path class="cls-9" d="M76,27.35H24.35A6.4,6.4,0,0,0,18,33.72V93.78a6.4,6.4,0,0,0,6.38,6.37H76a6.39,6.39,0,0,0,6.37-6.37V33.72A6.39,6.39,0,0,0,76,27.35Z"/><path class="cls-10" d="M39.12,100.15V87.09a5.52,5.52,0,0,1,5.5-5.5H55a5.52,5.52,0,0,1,5.5,5.5v13.06"/><path class="cls-11" d="M61.26,100.15H59.8V87.09A4.79,4.79,0,0,0,55,82.31H44.63a4.79,4.79,0,0,0-4.78,4.78v13.06H38.39V87.09a6.24,6.24,0,0,1,6.24-6.23H55a6.24,6.24,0,0,1,6.24,6.23Z"/><rect class="cls-11" x="49.1" y="81.88" width="1.46" height="18.27"/><path class="cls-12" d="M44.19,83.83a3.48,3.48,0,0,1-3.31,3.31,4,4,0,0,1,1-2.3A4,4,0,0,1,44.19,83.83Z"/><path class="cls-12" d="M46.17,85.81a3.48,3.48,0,0,1-3.31,3.31,4,4,0,0,1,1-2.3A4,4,0,0,1,46.17,85.81Z"/><path class="cls-12" d="M41.42,36.29a3.48,3.48,0,0,1-3.31,3.31,4,4,0,0,1,1-2.3A4,4,0,0,1,41.42,36.29Z"/><path class="cls-12" d="M43.4,38.27a3.48,3.48,0,0,1-3.31,3.31,4,4,0,0,1,1-2.3A4,4,0,0,1,43.4,38.27Z"/><rect class="cls-10" x="35.96" y="34.55" width="12.2" height="12.2" rx="1.56" ry="1.56"/><path class="cls-11" d="M44.91,47.48H39.22a4,4,0,0,1-4-4V37.8a4,4,0,0,1,4-4h5.69a4,4,0,0,1,4,4v5.69A4,4,0,0,1,44.91,47.48Zm-5.69-12.2a2.52,2.52,0,0,0-2.53,2.52v5.69A2.53,2.53,0,0,0,39.22,46h5.69a2.52,2.52,0,0,0,2.52-2.53V37.8a2.52,2.52,0,0,0-2.52-2.52Z"/><rect class="cls-10" x="52.17" y="34.55" width="12.2" height="12.2" rx="1.56" ry="1.56"/><path class="cls-11" d="M61.11,47.48H55.42a4,4,0,0,1-4-4V37.8a4,4,0,0,1,4-4h5.69a4,4,0,0,1,4,4v5.69A4,4,0,0,1,61.11,47.48Zm-5.69-12.2a2.53,2.53,0,0,0-2.53,2.52v5.69A2.53,2.53,0,0,0,55.42,46h5.69a2.52,2.52,0,0,0,2.52-2.53V37.8a2.52,2.52,0,0,0-2.52-2.52Z"/><rect class="cls-10" x="35.96" y="53.98" width="12.2" height="12.2" rx="1.56" ry="1.56"/><path class="cls-11" d="M44.91,66.91H39.22a4,4,0,0,1-4-4v-5.7a4,4,0,0,1,4-4h5.69a4,4,0,0,1,4,4v5.7A4,4,0,0,1,44.91,66.91Zm-5.69-12.2a2.52,2.52,0,0,0-2.53,2.52v5.7a2.52,2.52,0,0,0,2.53,2.52h5.69a2.52,2.52,0,0,0,2.52-2.52v-5.7a2.52,2.52,0,0,0-2.52-2.52Z"/><rect class="cls-10" x="52.17" y="53.98" width="12.2" height="12.2" rx="1.56" ry="1.56"/><path class="cls-11" d="M61.11,66.91H55.42a4,4,0,0,1-4-4v-5.7a4,4,0,0,1,4-4h5.69a4,4,0,0,1,4,4v5.7A4,4,0,0,1,61.11,66.91Zm-5.69-12.2a2.53,2.53,0,0,0-2.53,2.52v5.7a2.53,2.53,0,0,0,2.53,2.52h5.69a2.52,2.52,0,0,0,2.52-2.52v-5.7a2.52,2.52,0,0,0-2.52-2.52Z"/><rect class="cls-13" x="15.87" y="30.53" width="12.43" height="67.86" rx="2.98" ry="2.98"/><path class="cls-13" d="M33.06,99.47a11,11,0,0,0-22,0v.68h22Z"/><path class="cls-13" d="M11.11,28.06a11,11,0,1,0,22,0v-.68h-22Z"/><rect class="cls-13" x="13.84" y="34.17" width="17.04" height="5.97" rx="1.43" ry="1.43"/><rect class="cls-13" x="13.84" y="86.72" width="17.04" height="5.97" rx="1.43" ry="1.43"/><rect class="cls-9" x="17.62" y="41.2" width="1.04" height="44.02" rx="0.25" ry="0.25"/><rect class="cls-9" x="21.48" y="41.2" width="1.04" height="44.02" rx="0.25" ry="0.25"/><path class="cls-9" d="M26.21,85.21h0c-.28,0-.51-.23-.88-.51v-43c.37-.29.6-.52.88-.52h0a.52.52,0,0,1,.52.52v43A.51.51,0,0,1,26.21,85.21Z"/><rect class="cls-13" x="70.98" y="30.53" width="12.43" height="67.86" rx="2.98" ry="2.98"/><path class="cls-13" d="M88.17,99.47a11,11,0,0,0-22,0v.68h22Z"/><path class="cls-13" d="M66.22,28.06a11,11,0,1,0,22,0v-.68h-22Z"/><rect class="cls-13" x="68.94" y="34.17" width="17.04" height="5.97" rx="1.43" ry="1.43"/><rect class="cls-13" x="68.94" y="86.72" width="17.04" height="5.97" rx="1.43" ry="1.43"/><rect class="cls-9" x="72.72" y="41.2" width="1.04" height="44.02" rx="0.25" ry="0.25"/><rect class="cls-9" x="76.58" y="41.2" width="1.04" height="44.02" rx="0.25" ry="0.25"/><path class="cls-9" d="M81.32,85.21h0c-.29,0-.52-.23-.88-.51v-43c.36-.29.59-.52.88-.52h0a.52.52,0,0,1,.52.52v43A.52.52,0,0,1,81.32,85.21Z"/><rect class="cls-11" x="40" y="1.08" width="13.23" height="5.51" rx="1.32" ry="1.32" transform="translate(0.44 11.32) rotate(-13.91)"/><rect class="cls-11" x="32.3" y="6.06" width="13.23" height="5.51" rx="1.32" ry="1.32" transform="translate(-0.98 9.61) rotate(-13.91)"/><rect class="cls-11" x="24.61" y="11.04" width="13.23" height="5.51" rx="1.32" ry="1.32" transform="translate(-2.4 7.91) rotate(-13.91)"/><rect class="cls-11" x="16.91" y="16.02" width="13.23" height="5.51" rx="1.32" ry="1.32" transform="translate(-3.82 6.21) rotate(-13.91)"/><rect class="cls-11" x="9.21" y="21" width="13.23" height="5.51" rx="1.32" ry="1.32" transform="translate(-5.25 4.5) rotate(-13.91)"/><rect class="cls-11" x="47.47" y="1.08" width="13.23" height="5.51" rx="1.32" ry="1.32" transform="translate(105.66 20.56) rotate(-166.09)"/><rect class="cls-11" x="55.17" y="6.06" width="13.23" height="5.51" rx="1.32" ry="1.32" transform="translate(119.63 32.22) rotate(-166.09)"/><rect class="cls-11" x="62.86" y="11.04" width="13.23" height="5.51" rx="1.32" ry="1.32" transform="translate(133.61 43.89) rotate(-166.09)"/><rect class="cls-11" x="70.56" y="16.02" width="13.23" height="5.51" rx="1.32" ry="1.32" transform="translate(147.58 55.55) rotate(-166.09)"/><rect class="cls-11" x="78.26" y="21" width="13.23" height="5.51" rx="1.32" ry="1.32" transform="translate(161.55 67.22) rotate(-166.09)"/><polyline class="cls-11" points="14.39 25.96 88.08 25.96 49.98 1.85"/><rect class="cls-11" x="7.83" y="24.34" width="84.67" height="3.85" rx="0.92" ry="0.92"/><rect class="cls-4" x="44.45" y="63.55" width="10.76" height="20.13" transform="translate(123.17 23.4) rotate(89.69)"/><rect class="cls-5" x="56.43" y="68.18" width="1.31" height="2.82" rx="0.31" ry="0.31" transform="translate(126.37 12.13) rotate(89.69)"/><rect class="cls-5" x="41.21" y="76.28" width="1.31" height="2.82" rx="0.31" ry="0.31" transform="translate(119.34 35.41) rotate(89.69)"/><rect class="cls-5" x="44.78" y="71.21" width="10.76" height="4.8" transform="matrix(0.01, 1, -1, 0.01, 123.51, 23.06)"/><circle class="cls-4" cx="50.14" cy="73.59" r="1.74"/><path class="cls-5" d="M58.41,76.91a2.1,2.1,0,1,0-4.2,0v2l4.2,0Z"/><circle class="cls-5" cx="56.37" cy="73.76" r="1.54"/></svg>