<svg id="Layer_1" data-name="Layer 1" xmlns="http://www.w3.org/2000/svg" viewBox="0 0 100 100"><defs><style>.cls-1{fill:#ffc640;}.cls-2{fill:#f89c3e;}.cls-3{fill:#87898b;}.cls-4{fill:#895e59;}.cls-5{fill:#09a582;}.cls-6{fill:#7d7d7d;}</style></defs><title>excalibur</title><polygon class="cls-1" points="50.03 80.14 56.1 74.37 56.1 29.5 50.03 29.5 50.03 80.14 50.03 80.14"/><polygon class="cls-2" points="43.9 74.37 50.03 80.14 50.03 29.5 43.9 29.5 43.9 74.37"/><ellipse class="cls-3" cx="50.07" cy="2.14" rx="4.78" ry="2.14"/><rect class="cls-4" x="44.06" y="20.86" width="11.95" height="4.07" rx="0.95" ry="0.95" transform="translate(100.06 45.79) rotate(180)"/><rect class="cls-4" x="44.06" y="18.01" width="11.95" height="4.07" rx="0.95" ry="0.95" transform="translate(100.06 40.09) rotate(-180)"/><rect class="cls-4" x="44.06" y="15.16" width="11.95" height="4.07" rx="0.95" ry="0.95" transform="translate(100.06 34.39) rotate(-180)"/><rect class="cls-4" x="44.06" y="12.31" width="11.95" height="4.07" rx="0.95" ry="0.95" transform="translate(100.06 28.69) rotate(180)"/><rect class="cls-4" x="44.06" y="9.65" width="11.95" height="4.07" rx="0.95" ry="0.95" transform="translate(100.06 23.38) rotate(180)"/><rect class="cls-4" x="44.06" y="7.32" width="11.95" height="4.07" rx="0.95" ry="0.95" transform="translate(100.06 18.71) rotate(180)"/><rect class="cls-4" x="44.06" y="4.99" width="11.95" height="4.07" rx="0.95" ry="0.95" transform="translate(100.06 14.05) rotate(180)"/><rect class="cls-4" x="44.06" y="2.66" width="11.95" height="4.07" rx="0.95" ry="0.95" transform="translate(100.06 9.38) rotate(180)"/><ellipse class="cls-1" cx="50" cy="26.33" rx="12.96" ry="2.69"/><rect class="cls-1" x="34.69" y="26.33" width="30.62" height="4.23" transform="translate(100 56.89) rotate(180)"/><circle class="cls-1" cx="50.16" cy="25.41" r="3.33"/><circle class="cls-5" cx="50.07" cy="25.41" r="2.31"/><polyline class="cls-1" points="34.69 30.36 38.96 30.36 34.69 36.93"/><polyline class="cls-1" points="65.31 30.36 61.04 30.36 65.31 36.93"/><rect class="cls-6" x="24.94" y="72.46" width="50.11" height="24.52" rx="5.75" ry="5.75"/><rect class="cls-6" x="16.59" y="83.47" width="66.82" height="16.53" rx="3.87" ry="3.87"/><rect class="cls-1" x="40.03" y="85.83" width="21.01" height="4.93" rx="1.16" ry="1.16"/></svg>