<svg id="Layer_1" data-name="Layer 1" xmlns="http://www.w3.org/2000/svg" viewBox="0 0 100 100"><defs><style>.cls-1{fill:#171717;}.cls-2{fill:#f37d3b;}.cls-3{fill:#ffc63f;}.cls-4{fill:#fff;}</style></defs><title>woodpecker</title><path class="cls-1" d="M67.85,24.71c-4.18,0-4.52-1.55-4.52-3.46s.34-3.47,4.52-3.47,26.68,3.47,26.68,3.47S72,24.71,67.85,24.71Z"/><path class="cls-2" d="M58,5.14c2.28,5.24-5.09,12.24-16.48,15.64S13.68,7.84,13.68,7.84s8.15-2.61,19.54-6S55.68-.09,58,5.14Z"/><polyline class="cls-3" points="38.79 82.08 46.18 82.08 42.49 100"/><polyline class="cls-3" points="48.54 82.08 55.94 82.08 52.24 100"/><path class="cls-1" d="M24.65,22.26a93.79,93.79,0,0,0-4.44,29c0,19.78,12.32,35.82,27.52,35.82A21.85,21.85,0,0,0,57,85c-3.85-15.77,3.26-36.64,13.21-46.42C61,28.59,39.19,26,24.65,22.26Z"/><path class="cls-4" d="M72.44,37c-7-22.14-7.75-36-24.71-36-11.86,0-19,9.48-23.08,21.3C39.19,26,56.2,31.94,65.41,41.91A25.8,25.8,0,0,1,72.44,37Z"/><path class="cls-1" d="M50.81,58.71c0,26.7-38.13,27.7-38.13,27.7s6.21-15.3,6.21-27.7,7.15-22.46,16-22.46S50.81,46.31,50.81,58.71Z"/><path class="cls-1" d="M44.74,67.43C36.19,88.72,5.47,81.15,5.47,81.15s9.85-10.83,13.82-20.72S32.18,44.1,39.2,46,48.71,57.54,44.74,67.43Z"/><path class="cls-1" d="M44.74,60.3C36.19,81.58,5.47,74,5.47,74S15.32,63.19,19.29,53.3,32.18,37,39.2,38.9,48.71,50.41,44.74,60.3Z"/><path class="cls-1" d="M64.59,12H29.51a45.43,45.43,0,0,0-4.29,8.73H67.78A71.55,71.55,0,0,0,64.59,12Z"/><path class="cls-2" d="M33.07,81.55a23,23,0,0,0,14.66,5.54A21.85,21.85,0,0,0,57,85c-1.72-7-1.25-15,.66-22.65C48.72,68.51,41.66,76.15,33.07,81.55Z"/><path class="cls-2" d="M57,85C67.61,80,75.25,66.83,75.25,51.27c0-3.9-1.09-8.87-2.81-14.32C56.64,44.44,52.32,66,57,85Z"/><path class="cls-2" d="M47.75.69C41.92.69,33.8,2,33.45,7A168.52,168.52,0,0,1,59.74,5C56.89,2.38,53.16.69,47.75.69Z"/><circle class="cls-4" cx="38.34" cy="16.52" r="1.83"/></svg>