<svg id="Layer_1" data-name="Layer 1" xmlns="http://www.w3.org/2000/svg" viewBox="0 0 100 100"><defs><style>.cls-1{fill:#fff;}.cls-2{fill:#f37d3b;}.cls-3{fill:#ffc640;}</style></defs><title>wand</title><rect class="cls-1" x="-13.01" y="58.91" width="98.51" height="9.7" rx="4.85" ry="4.85" transform="translate(-34.47 44.3) rotate(-45)"/><polygon class="cls-2" points="67.9 38.96 54.18 38.96 48.35 44.79 62.07 44.79 67.9 38.96"/><polygon class="cls-2" points="56.73 50.13 43.01 50.13 37.18 55.96 50.9 55.96 56.73 50.13"/><polygon class="cls-2" points="26.02 67.13 39.73 67.13 45.56 61.3 31.84 61.3 26.02 67.13"/><polygon class="cls-2" points="14.85 78.3 28.57 78.3 34.39 72.47 20.67 72.47 14.85 78.3"/><polygon class="cls-2" points="3.67 89.47 17.39 89.47 23.22 83.64 9.5 83.64 3.67 89.47"/><path class="cls-2" d="M1.41,98.59a4.88,4.88,0,0,0,6.86,0l3.78-3.78H0A4.88,4.88,0,0,0,1.41,98.59Z"/><path class="cls-3" d="M99.29,41.08a6.54,6.54,0,0,0-.58-6.87l-7.29-9.75,3.91-11.52a6.52,6.52,0,0,0-8.27-8.27L75.54,8.58,65.79,1.29A6.53,6.53,0,0,0,55.36,6.61l.16,12.16-9.94,7a6.53,6.53,0,0,0,1.83,11.56L59,41l3.61,11.62A6.53,6.53,0,0,0,74.2,54.42l7-9.94,12.16.16A6.53,6.53,0,0,0,99.29,41.08Z"/></svg>