<svg id="Layer_1" data-name="Layer 1" xmlns="http://www.w3.org/2000/svg" viewBox="0 0 100 100"><defs><style>.cls-1{fill:#171717;}.cls-2{fill:#553734;}.cls-3{fill:#5f3f3b;}.cls-4{fill:#6d4945;}.cls-5{fill:#434345;}.cls-6{fill:#402623;}.cls-7{fill:#4a4a4c;}.cls-8{fill:#fff;}</style></defs><title>pirate ship</title><path class="cls-1" d="M21.59,14.78a4.16,4.16,0,0,0-2.05,2.3c-.42,1.53,9.78,0,9.78,0"/><rect class="cls-2" x="16.47" y="16.64" width="66.59" height="3.76" rx="0.94" ry="0.94"/><path class="cls-2" d="M81.23,67.25C74.64,66.76,67,66.34,59.47,66c-2.73-.11-5.45-.22-8.1-.31-7.32-.24-14.1-.38-19.16-.38l-3.23,0c-4.06,0-7.75.19-11,.41A75.09,75.09,0,0,0,4.39,67.64c-2.7.74-4.16,1.6-4.16,2.53,0,2.61-4.77,21.26,29,22.3,1,0,2,0,3,0,4.37,0,8.43-.09,12.26-.26s7.36-.43,10.68-.75a131.93,131.93,0,0,0,19-3.06c2.2-.54,4.21-1.12,6.06-1.73a43.64,43.64,0,0,0,13.65-6.86c5.54-4.42,6.17-8.56,6.17-9.69S92,68.07,81.23,67.25Z"/><path class="cls-3" d="M81.23,67.25C74.64,66.76,67,66.34,59.47,66L80.18,86.72a43.64,43.64,0,0,0,13.65-6.86Z"/><path class="cls-3" d="M32.21,65.32l-3.23,0L55.15,91.51a131.93,131.93,0,0,0,19-3.06L51.37,65.7C44.05,65.46,37.27,65.32,32.21,65.32Z"/><path class="cls-3" d="M4.39,67.64,29.22,92.47c1,0,2,0,3,0,4.37,0,8.43-.09,12.26-.26L18,65.75A75.09,75.09,0,0,0,4.39,67.64Z"/><path class="cls-4" d="M100,69.82c0,2.52-51.32,4.56-70.48,4.56S0,72.34,0,69.82s10.37-4.57,29.52-4.57S100,67.29,100,69.82Z"/><path class="cls-3" d="M93.84,69.82c0,1.71-44.88,3.1-61.63,3.1S6.4,71.53,6.4,69.82s9.06-3.11,25.81-3.11S93.84,68.1,93.84,69.82Z"/><path class="cls-4" d="M37.41,70.06H29.47A3.51,3.51,0,0,0,26,73.57a4.16,4.16,0,0,0,.09.79l3.47,0c3.07,0,7,0,11.33-.15a3.7,3.7,0,0,0,.07-.66A3.51,3.51,0,0,0,37.41,70.06Z"/><path class="cls-4" d="M68.34,70.06H60.4a3.51,3.51,0,0,0-3.51,3.51c0,.05,0,.11,0,.16,5-.19,10-.42,14.89-.68A3.52,3.52,0,0,0,68.34,70.06Z"/><circle class="cls-2" cx="14.57" cy="79.22" r="2.85"/><circle class="cls-2" cx="41.88" cy="79.53" r="4.42"/><circle class="cls-2" cx="61.62" cy="85.6" r="1.65"/><path class="cls-3" d="M37.93,79a10,10,0,0,1,2.46,4.5,9.16,9.16,0,0,1-7-7A10,10,0,0,1,37.93,79Z"/><path class="cls-3" d="M71.22,79a10,10,0,0,1,2.46,4.5,9.16,9.16,0,0,1-7-7A10,10,0,0,1,71.22,79Z"/><path class="cls-4" d="M27.86,85.18a54.39,54.39,0,0,1,5.2,6A52.76,52.76,0,0,1,21.83,80,54.39,54.39,0,0,1,27.86,85.18Z"/><path class="cls-4" d="M28.24,80.83a54.39,54.39,0,0,1,5.2,6A53.38,53.38,0,0,1,22.21,75.63,54.39,54.39,0,0,1,28.24,80.83Z"/><path class="cls-3" d="M11.52,81.3a9.56,9.56,0,0,1,2.4,5.56,9.56,9.56,0,0,1-5.56-2.4A9.57,9.57,0,0,1,6,78.91,9.55,9.55,0,0,1,11.52,81.3Z"/><path class="cls-3" d="M47.65,85.71a16.72,16.72,0,0,1,2.94,4,16.24,16.24,0,0,1-7-7A16.72,16.72,0,0,1,47.65,85.71Z"/><path class="cls-2" d="M46.29,7.48a2,2,0,0,0-2,2V72.78l4-.09V9.46A2,2,0,0,0,46.29,7.48Z"/><path class="cls-4" d="M50.37,11.48a.35.35,0,0,0-.34-.35H42.56a.35.35,0,0,0-.35.35v.7a.33.33,0,0,0,.09.21.34.34,0,0,0-.09.22v.69a.34.34,0,0,0,.09.22.33.33,0,0,0-.09.21v.7a.35.35,0,0,0,.35.35H50a.35.35,0,0,0,.34-.35v-.7a.32.32,0,0,0-.08-.21.33.33,0,0,0,.08-.22v-.69a.33.33,0,0,0-.08-.22.32.32,0,0,0,.08-.21Z"/><path class="cls-1" d="M88.63,38.14c-.77-6.56-12-23.36-12-23.36h-55s10.61,15.79,12,22.75a7.31,7.31,0,0,1,.15,1.3c0,6-12.13,24.06-12.13,24.06h55s12.12-18,12.12-24.06A6.2,6.2,0,0,0,88.63,38.14Z"/><path class="cls-5" d="M75,58.49s-9.89,1.08-22.08,1.08-22.09-1.08-22.09-1.08,9.89-1.08,22.09-1.08S75,58.49,75,58.49Z"/><rect class="cls-6" x="16.13" y="76.38" width="11.39" height="11.39" rx="1.18" ry="1.18"/><rect class="cls-1" x="17.61" y="77.85" width="8.44" height="8.44" rx="2.11" ry="2.11"/><path class="cls-7" d="M21.83,87.3a5.23,5.23,0,1,1,5.22-5.23A5.23,5.23,0,0,1,21.83,87.3Zm0-8.45a3.22,3.22,0,1,0,3.22,3.22A3.22,3.22,0,0,0,21.83,78.85Z"/><rect class="cls-6" x="34.16" y="76.38" width="11.39" height="11.39" rx="1.18" ry="1.18"/><rect class="cls-1" x="35.63" y="77.85" width="8.44" height="8.44" rx="2.11" ry="2.11"/><path class="cls-7" d="M39.85,87.3a5.23,5.23,0,1,1,5.22-5.23A5.23,5.23,0,0,1,39.85,87.3Zm0-8.45a3.22,3.22,0,1,0,3.22,3.22A3.23,3.23,0,0,0,39.85,78.85Z"/><rect class="cls-6" x="52.18" y="76.38" width="11.39" height="11.39" rx="1.18" ry="1.18"/><rect class="cls-1" x="53.66" y="77.85" width="8.44" height="8.44" rx="2.11" ry="2.11"/><path class="cls-7" d="M57.88,87.3a5.23,5.23,0,1,1,5.22-5.23A5.24,5.24,0,0,1,57.88,87.3Zm0-8.45a3.22,3.22,0,1,0,3.22,3.22A3.22,3.22,0,0,0,57.88,78.85Z"/><rect class="cls-6" x="70.21" y="74.29" width="11.39" height="11.39" rx="1.18" ry="1.18"/><rect class="cls-1" x="71.68" y="75.76" width="8.44" height="8.44" rx="2.11" ry="2.11"/><path class="cls-7" d="M75.9,85.21A5.23,5.23,0,1,1,81.12,80,5.23,5.23,0,0,1,75.9,85.21Zm0-8.45A3.22,3.22,0,1,0,79.12,80,3.22,3.22,0,0,0,75.9,76.76Z"/><rect class="cls-8" x="51.28" y="28.36" width="17.53" height="17.53" rx="4.38" ry="4.38"/><rect class="cls-8" x="53.53" y="37.76" width="3.14" height="11.55" rx="0.78" ry="0.78"/><rect class="cls-8" x="56.67" y="37.76" width="3.14" height="11.55" rx="0.78" ry="0.78"/><rect class="cls-8" x="59.81" y="37.76" width="3.14" height="11.55" rx="0.78" ry="0.78"/><rect class="cls-8" x="62.95" y="37.76" width="3.14" height="11.55" rx="0.78" ry="0.78"/><circle class="cls-1" cx="54.2" cy="36.92" r="1.23"/><circle class="cls-1" cx="65.75" cy="36.92" r="1.23"/><polygon class="cls-1" points="58.17 41.24 61.92 41.24 60.05 35.9 58.17 41.24"/><path class="cls-8" d="M50,25.47a2.2,2.2,0,0,0-.58,2.08,2.17,2.17,0,0,0-2.07.57,2.19,2.19,0,0,0,2.92,3.26l.52.52A6.56,6.56,0,0,1,54,29.05l-.71-.72A2.19,2.19,0,0,0,50,25.47Z"/><path class="cls-8" d="M69.78,25.47a2.2,2.2,0,0,1,.57,2.08,2.19,2.19,0,1,1-.85,3.83L69,31.9a6.56,6.56,0,0,0-3.23-2.85l.72-.72a2.19,2.19,0,0,1,3.31-2.86Z"/><path class="cls-8" d="M72.59,46.79a2.17,2.17,0,0,0-.15-2.15,2.19,2.19,0,1,0-2.06-3.33L69.72,41a6.62,6.62,0,0,1-2.11,3.75l.91.44a2.19,2.19,0,0,0,4.07,1.61Z"/><path class="cls-8" d="M47.43,46.79a2.17,2.17,0,0,1,.15-2.15,2.19,2.19,0,1,1,2.06-3.33L50.3,41a6.57,6.57,0,0,0,2.11,3.75l-.91.44a2.19,2.19,0,0,1-4.07,1.61Z"/></svg>