<svg id="Layer_1" data-name="Layer 1" xmlns="http://www.w3.org/2000/svg" viewBox="0 0 100 100"><defs><style>.cls-1{fill:#09a582;}.cls-2{fill:#f37d3b;}.cls-3{fill:#ffc640;}</style></defs><title>life</title><rect class="cls-1" x="47.04" y="40.61" width="5.59" height="41.79" rx="1.35" ry="1.35" transform="translate(-11.68 111.34) rotate(-90)"/><rect class="cls-2" x="47.04" y="14.57" width="5.59" height="41.79" rx="1.35" ry="1.35" transform="translate(14.36 85.3) rotate(-90)"/><rect class="cls-2" x="47.04" y="-6.32" width="5.59" height="41.79" rx="1.35" ry="1.35" transform="translate(35.25 64.41) rotate(-90)"/><rect class="cls-2" x="46.21" y="25.63" width="5.59" height="54.39" rx="1.35" ry="1.35" transform="translate(-3.83 101.83) rotate(-90)"/><rect class="cls-1" x="46.21" y="16.95" width="5.59" height="54.39" rx="1.35" ry="1.35" transform="translate(4.85 93.15) rotate(-90)"/><rect class="cls-1" x="46.21" y="-22.09" width="5.59" height="54.39" rx="1.35" ry="1.35" transform="translate(43.89 54.11) rotate(-90)"/><rect class="cls-2" x="47.04" y="61.82" width="5.59" height="41.79" rx="1.35" ry="1.35" transform="translate(132.55 32.89) rotate(90)"/><rect class="cls-1" x="46.21" y="64.99" width="5.59" height="54.39" rx="1.35" ry="1.35" transform="translate(141.19 43.19) rotate(90)"/><path class="cls-3" d="M79.18,100a3.37,3.37,0,0,1-.77-.09,3.49,3.49,0,0,1-2.65-4.17s1.73-12.13-25.91-20.37c-33.56-10-32.78-24.19-32.59-25.77a3.5,3.5,0,0,1,7,.73c0,.46.54,10.25,27.63,18.33,34.43,10.27,30.9,27.86,30.74,28.61A3.51,3.51,0,0,1,79.18,100Z"/><path class="cls-3" d="M20.79,53.49a3.44,3.44,0,0,1-3.38-2.69c-.16-.74-3.69-18.33,30.74-28.6C75.76,14,75.78,4,75.78,3.86a3.44,3.44,0,0,1,3-3.84,3.57,3.57,0,0,1,3.92,3.12c.19,1.58,1,15.75-32.59,25.77C22.51,37.15,24.24,49.23,24.26,49.35a3.55,3.55,0,0,1-2.77,4.07A3.33,3.33,0,0,1,20.79,53.49Z"/><path class="cls-3" d="M20.79,100a3.45,3.45,0,0,1-3.38-2.69c-.16-.75-3.69-18.34,30.74-28.61,27.61-8.23,27.63-18.24,27.63-18.34a3.43,3.43,0,0,1,3-3.83,3.56,3.56,0,0,1,3.92,3.11c.19,1.58,1,15.76-32.59,25.77C22.51,83.61,24.24,95.7,24.26,95.82a3.55,3.55,0,0,1-2.77,4.07A4.15,4.15,0,0,1,20.79,100Z"/><path class="cls-3" d="M79.18,53.54a3.37,3.37,0,0,1-.77-.09,3.5,3.5,0,0,1-2.65-4.18s1.73-12.12-25.91-20.36C16.29,18.89,17.07,4.72,17.26,3.14a3.5,3.5,0,0,1,7,.73c0,.46.54,10.25,27.63,18.33,34.43,10.27,30.9,27.86,30.74,28.6A3.51,3.51,0,0,1,79.18,53.54Z"/></svg>