<svg id="Layer_1" data-name="Layer 1" xmlns="http://www.w3.org/2000/svg" viewBox="0 0 100 100"><defs><style>.cls-1{fill:#171717;}.cls-2{fill:#fff;}.cls-3{fill:#ffc640;}</style></defs><title>constellation</title><path class="cls-1" d="M85.71,0H14.29A14.33,14.33,0,0,0,0,14.29V85.71A14.33,14.33,0,0,0,14.29,100H85.71A14.33,14.33,0,0,0,100,85.71V14.29A14.33,14.33,0,0,0,85.71,0Z"/><polygon class="cls-2" points="12.34 42.51 11.85 41.64 13.59 40.67 14.07 41.54 12.34 42.51"/><path class="cls-2" d="M16.85,40l-.49-.87,2.78-1.55.48.87Zm5.55-3.1L21.91,36l2.78-1.54.48.86Z"/><polygon class="cls-2" points="30.9 33.84 29.43 32.98 27.95 33.8 27.46 32.94 29.45 31.83 31.41 32.99 30.9 33.84"/><path class="cls-2" d="M54.06,42.76,50,41.86l.22-1,4.06.91ZM45.93,41l-4.06-.9.22-1,4.06.9Zm-7.87-2.87L34.48,36l.51-.85,3.58,2.11Z"/><polygon class="cls-2" points="59.99 45.65 59.05 45.33 59.52 43.98 58.12 43.66 58.34 42.69 60.83 43.25 59.99 45.65"/><path class="cls-2" d="M55.46,58.75l-.94-.33,1.14-3.27.94.32Zm2.27-6.55-.94-.33,1.13-3.27.94.33Z"/><polygon class="cls-2" points="55.01 64.72 52.57 64.08 53.39 61.7 54.33 62.02 53.86 63.39 55.26 63.75 55.01 64.72"/><path class="cls-2" d="M79.19,71l-4-1,.25-1,4,1Zm-8.06-2.08-4-1,.25-1,4,1ZM63.07,66.8l-4-1,.25-1,4,1Z"/><polygon class="cls-2" points="85.61 72.62 83.22 72.01 83.47 71.04 84.93 71.42 85.37 69.97 86.33 70.26 85.61 72.62"/><path class="cls-2" d="M87.35,66.88l-.95-.29,1-3.38.95.29Zm2.06-6.76-1-.29,1-3.38,1,.29Z"/><polygon class="cls-2" points="91.46 53.36 90.51 53.07 90.94 51.67 89.52 51.31 89.76 50.35 92.19 50.96 91.46 53.36"/><path class="cls-2" d="M85.68,50.35l-3.84-1,.24-1,3.84,1ZM78,48.43l-3.84-1,.24-1,3.84,1ZM70.32,46.5l-3.84-1,.24-1,3.84,1Z"/><rect class="cls-2" x="61.3" y="42.86" width="0.99" height="1.99" transform="translate(4.25 93.15) rotate(-75.94)"/><circle class="cls-3" cx="12.09" cy="42.08" r="2.1"/><circle class="cls-3" cx="29.44" cy="32.4" r="2.1"/><circle class="cls-3" cx="41.29" cy="39.41" r="2.1"/><circle class="cls-3" cx="60.17" cy="43.61" r="2.1"/><circle class="cls-3" cx="73.71" cy="25.02" r="1.22"/><circle class="cls-3" cx="9.99" cy="89.63" r="1.22"/><circle class="cls-3" cx="41.29" cy="54.64" r="1.22"/><circle class="cls-3" cx="72.49" cy="89.63" r="1.22"/><circle class="cls-3" cx="18.73" cy="87.19" r="1.22"/><circle class="cls-3" cx="7.55" cy="26.24" r="1.22"/><circle class="cls-3" cx="83.17" cy="12.87" r="1.22"/><circle class="cls-3" cx="50" cy="12.87" r="1.22"/><circle class="cls-3" cx="91.57" cy="51.31" r="2.1"/><circle class="cls-3" cx="85.27" cy="72.02" r="2.1"/><circle class="cls-3" cx="53.21" cy="63.74" r="2.1"/></svg>