<svg id="Layer_1" data-name="Layer 1" xmlns="http://www.w3.org/2000/svg" viewBox="0 0 100 100"><defs><style>.cls-1{fill:#171717;}.cls-2{fill:#fff;}.cls-3{fill:#f6933d;}.cls-4{fill:#7d7d7d;}</style></defs><title>computer mouse</title><rect class="cls-1" x="73.34" y="40.45" width="6.34" height="2.26" rx="0.56" ry="0.56" transform="translate(51.81 -41.92) rotate(45)"/><rect class="cls-1" x="74.64" y="39.14" width="6.34" height="2.26" rx="0.56" ry="0.56" transform="translate(51.27 -43.23) rotate(45)"/><rect class="cls-1" x="75.95" y="37.84" width="6.34" height="2.26" rx="0.56" ry="0.56" transform="translate(50.73 -44.53) rotate(45)"/><rect class="cls-1" x="77.25" y="36.53" width="6.34" height="2.26" rx="0.56" ry="0.56" transform="translate(50.19 -45.84) rotate(45)"/><rect class="cls-2" x="30.36" y="31.54" width="43.77" height="67.25" rx="10.87" ry="10.87" transform="translate(61.38 -17.86) rotate(45)"/><path class="cls-3" d="M70,43.5a14,14,0,0,0-19.63-.11l9.93,9.93L70,43.56Z"/><path class="cls-3" d="M59.09,54.51l-9.92-9.92a1.67,1.67,0,0,1-.49-1.21,1.7,1.7,0,0,1,.5-1.2,15.72,15.72,0,0,1,22,.13,1.07,1.07,0,0,1,.14.16,1.73,1.73,0,0,1-.09,2.29l-9.76,9.75A1.69,1.69,0,0,1,59.09,54.51Zm-6.24-11,7.44,7.44,7.29-7.3A12.35,12.35,0,0,0,52.85,43.49Z"/><path class="cls-3" d="M74.59,48.1a14,14,0,0,1,.11,19.63L64.77,57.8,74.53,48Z"/><path class="cls-3" d="M73.5,68.92,63.58,59a1.69,1.69,0,0,1,0-2.39l9.75-9.76a1.69,1.69,0,0,1,2.3-.08l.15.13a15.72,15.72,0,0,1,.13,22,1.7,1.7,0,0,1-1.2.5A1.65,1.65,0,0,1,73.5,68.92ZM67.16,57.8l7.44,7.44a12.35,12.35,0,0,0-.14-14.73Z"/><rect class="cls-1" x="65.36" y="44.43" width="4.11" height="12.49" rx="1.02" ry="1.02" transform="translate(55.58 -32.82) rotate(45)"/><path class="cls-1" d="M81.42,38.6l-1.93-1.93a19.83,19.83,0,0,0-14-33.85,19.66,19.66,0,0,0-14,5.81L49.52,6.7a22.56,22.56,0,0,1,31.9,31.9Z"/><rect class="cls-1" x="20.32" y="18.8" width="35.34" height="2.72" transform="translate(-3.13 32.77) rotate(-45)"/><rect class="cls-4" x="13.78" y="37.02" width="6.48" height="7.76" transform="translate(-23.93 24.02) rotate(-45)"/><rect class="cls-1" x="14.44" y="29.48" width="17.61" height="10.38" rx="2.58" ry="2.58" transform="translate(-17.71 26.59) rotate(-45)"/></svg>