<svg id="Layer_1" data-name="Layer 1" xmlns="http://www.w3.org/2000/svg" viewBox="0 0 100 100"><defs><style>.cls-1{fill:#ffc640;}.cls-2{fill:#faad3f;}</style></defs><title>pasta</title><path class="cls-1" d="M3.18,69.91a21.09,21.09,0,0,1,6.74-29A8.91,8.91,0,0,1,19.34,56a3.25,3.25,0,1,0,3.44,5.51A8.91,8.91,0,0,1,32.2,76.65,21.1,21.1,0,0,1,3.18,69.91Z"/><circle class="cls-2" cx="16.06" cy="47.23" r="5.18"/><circle class="cls-2" cx="29.05" cy="68.07" r="5.18"/><path class="cls-1" d="M43.81,55.14a21.11,21.11,0,0,1-28-10.28A8.91,8.91,0,1,1,32,37.38a3.25,3.25,0,0,0,5.9-2.73,8.91,8.91,0,0,1,16.17-7.48A21.1,21.1,0,0,1,43.81,55.14Z"/><circle class="cls-1" cx="22.89" cy="39.55" r="5.18"/><circle class="cls-1" cx="45.18" cy="29.24" r="5.18"/><path class="cls-1" d="M67.6,48.5a21.08,21.08,0,0,1,29.79,0,8.91,8.91,0,0,1-12.6,12.6,3.25,3.25,0,1,0-4.59,4.59,8.91,8.91,0,1,1-12.6,12.6A21.08,21.08,0,0,1,67.6,48.5Z"/><circle class="cls-2" cx="92.61" cy="55.91" r="5.18"/><circle class="cls-2" cx="75.24" cy="73.27" r="5.18"/><path class="cls-1" d="M73.89,50.48a21.08,21.08,0,0,1-29.53,3.88A8.91,8.91,0,1,1,55.21,40.23a3.25,3.25,0,0,0,4-5.15A8.91,8.91,0,0,1,70,20.94,21.09,21.09,0,0,1,73.89,50.48Z"/><circle class="cls-2" cx="48.13" cy="46.39" r="5.18"/><circle class="cls-2" cx="63.09" cy="26.91" r="5.18"/><path class="cls-1" d="M49.78,79.83A21.09,21.09,0,0,1,28.71,58.76a8.91,8.91,0,0,1,17.82,0,3.25,3.25,0,0,0,6.5,0,8.91,8.91,0,1,1,17.82,0A21.1,21.1,0,0,1,49.78,79.83Z"/><circle class="cls-2" cx="37.34" cy="56.9" r="5.18"/><circle class="cls-2" cx="61.89" cy="56.9" r="5.18"/></svg>