<svg id="Layer_1" data-name="Layer 1" xmlns="http://www.w3.org/2000/svg" viewBox="0 0 100 100"><defs><style>.cls-1{fill:#7d7d7d;}.cls-2{fill:#9c9c9c;}</style></defs><title>shuriken</title><path class="cls-1" d="M99.79,38.4A4.66,4.66,0,0,0,95,35.29H71.2a6.76,6.76,0,0,0-6.3,5,3.28,3.28,0,0,1-6.42-1,3.31,3.31,0,0,1,1.17-2.52,7.39,7.39,0,0,0,2.68-5.19,5.92,5.92,0,0,0-.28-2.29l-1.91-5.88L58.9,19.55,54.45,5.85A4.65,4.65,0,0,0,50,2.24h0a4.66,4.66,0,0,0-4.45,3.61L38,29.05a7.82,7.82,0,0,0,1.8,7.33,3.23,3.23,0,0,1,.75,1.52,3.11,3.11,0,0,1,.06.62,3.29,3.29,0,0,1-3.29,3.29,3,3,0,0,1-.59-.09,3.24,3.24,0,0,1-2.4-1.93A7.14,7.14,0,0,0,28,35.29H5a4.55,4.55,0,0,0-2.75,8.47L21,57.41l1.58,1.15a6.15,6.15,0,0,0,1.55.8,7.88,7.88,0,0,0,6-.4,3.4,3.4,0,0,1,1.4-.31,3.28,3.28,0,1,1,0,6.56,2.35,2.35,0,0,1-.47,0,4.82,4.82,0,0,0-2.76.33,6.39,6.39,0,0,0-3.17,3.17,9,9,0,0,0-.39,1L17.75,91.41a4.82,4.82,0,0,0,.49,4.52,4.35,4.35,0,0,0,1,1,4.4,4.4,0,0,0,2.55.81,5.25,5.25,0,0,0,3.15-1.12L44.46,82.46a6.79,6.79,0,0,0,2.39-7.41,3.57,3.57,0,0,1-.14-.94,3.29,3.29,0,1,1,6.45.89,6.85,6.85,0,0,0,2.39,7.48L75,96.62a4.74,4.74,0,0,0,5.73.33,4.66,4.66,0,0,0,1.49-5.54l-7-21.6c-1-3.15-3.32-5-5.87-4.62l-.34,0a3.28,3.28,0,1,1,0-6.56,3.11,3.11,0,0,1,1.21.24,7.86,7.86,0,0,0,7.5-.59l20-14.55A4.67,4.67,0,0,0,99.79,38.4Zm-54,9.67a6.39,6.39,0,1,1-.54.54A6.88,6.88,0,0,1,45.81,48.07Z"/><path class="cls-2" d="M24.17,59.36l36-36L58.9,19.55,40.55,37.9a3.11,3.11,0,0,1,.06.62,3.29,3.29,0,0,1-3.29,3.29,3,3,0,0,1-.59-.09L21,57.41l1.58,1.15A6.15,6.15,0,0,0,24.17,59.36Z"/><path class="cls-2" d="M71.2,35.29a6.76,6.76,0,0,0-6.3,5,3.28,3.28,0,0,1-6.42-1,3.31,3.31,0,0,1,1.17-2.52,7.39,7.39,0,0,0,2.68-5.19L45.81,48.07a6.39,6.39,0,1,1-.54.54L34.09,59.8a3.26,3.26,0,0,1-2.48,5.41,2.35,2.35,0,0,1-.47,0,4.82,4.82,0,0,0-2.76.33l-3.17,3.17a9,9,0,0,0-.39,1L17.75,91.41a4.82,4.82,0,0,0,.49,4.52L78.87,35.29Z"/></svg>