<svg id="Layer_1" data-name="Layer 1" xmlns="http://www.w3.org/2000/svg" viewBox="0 0 100 100"><defs><style>.cls-1{fill:#231f20;}.cls-2{fill:#fac6b9;}.cls-3{fill:#3e3e3f;}</style></defs><title>ninja</title><path class="cls-1" d="M38.41,20a28.49,28.49,0,0,1-7.26,11.2,26.21,26.21,0,0,1-12.28,7.05,16.65,16.65,0,0,1-4.53.35,12.15,12.15,0,0,1-5.25-1.67A10.88,10.88,0,0,1,5.28,32.8l-.49-1.12a7.69,7.69,0,0,1-.35-1l-.33-1.4c-.43-1.85-.82-3.74-1.29-5.5A19.63,19.63,0,0,0,2,21.31a2.85,2.85,0,0,0-.65-1A1.43,1.43,0,0,0,0,20a2,2,0,0,1,1.43-1.37,4.63,4.63,0,0,1,2.22,0,10.5,10.5,0,0,1,3.58,1.75,23.94,23.94,0,0,1,4.93,5l1,1.38a1.16,1.16,0,0,0,.34.39l.24.22c.35.14.48.17.58.09s.23,0,.62-.11a7.54,7.54,0,0,0,1.55-.24,78.8,78.8,0,0,0,9.79-3.39A77.86,77.86,0,0,1,38.41,20Z"/><rect class="cls-1" x="26.08" width="50.42" height="60.15" rx="11.09" ry="11.09"/><rect class="cls-2" x="31.76" y="22.03" width="40.34" height="12.78" rx="2.81" ry="2.81"/><circle class="cls-3" cx="38.41" cy="28.39" r="1.68"/><circle class="cls-3" cx="64.45" cy="28.39" r="1.68"/><rect class="cls-1" x="40.72" y="43.95" width="22.42" height="24.81" rx="4.93" ry="4.93"/><rect class="cls-1" x="12.16" y="61.79" width="78.54" height="38.21" rx="8.41" ry="8.41"/><path class="cls-1" d="M29.9,33.67A21.37,21.37,0,0,1,30,40.79a17.45,17.45,0,0,1-1.6,5,16.17,16.17,0,0,1-2.83,3.87A52.35,52.35,0,0,0,21,54.34C18.23,53,17.14,50,16.89,47.52a12.32,12.32,0,0,1,1.39-6.91,12.73,12.73,0,0,1,4.4-4.9A12.32,12.32,0,0,1,29.9,33.67Z"/></svg>