<svg id="Layer_1" data-name="Layer 1" xmlns="http://www.w3.org/2000/svg" viewBox="0 0 100 100"><defs><style>.cls-1{fill:#63423e;}.cls-2{fill:#ffc640;}.cls-3{fill:#714c48;}</style></defs><title>saddle</title><rect class="cls-1" x="39.9" y="37.2" width="8.39" height="49.71" rx="1.69" ry="1.69"/><path class="cls-2" d="M48.23,100H40a8.84,8.84,0,1,1,0-17.67h8.27a8.84,8.84,0,1,1,0,17.67ZM40,87.7a3.47,3.47,0,1,0,0,6.93h8.27a3.47,3.47,0,1,0,0-6.93Z"/><path class="cls-3" d="M11.11,14.14a38.84,38.84,0,0,0,77.68,0Z"/><path class="cls-3" d="M50,59.19a45.11,45.11,0,0,1-45.06-45,6.23,6.23,0,0,1,6.22-6.22H88.79A6.22,6.22,0,0,1,95,14.14,45.1,45.1,0,0,1,50,59.19Zm-32-38.84a32.63,32.63,0,0,0,64.06,0Z"/><rect class="cls-3" x="61.76" width="33.35" height="25.79" rx="5.19" ry="5.19"/><path class="cls-1" d="M11.42,20.34a1.24,1.24,0,0,1-1.23-1.08,41.65,41.65,0,0,1-.32-5.12,1.24,1.24,0,1,1,2.48,0,38.43,38.43,0,0,0,.31,4.8,1.25,1.25,0,0,1-1.08,1.39Z"/><path class="cls-1" d="M49.92,54.22a41.38,41.38,0,0,1-5.23-.34A1.25,1.25,0,0,1,45,51.41a38.31,38.31,0,0,0,4.91.32h0a38.26,38.26,0,0,0,4.9-.31,1.24,1.24,0,0,1,.32,2.46A28.6,28.6,0,0,1,49.92,54.22Zm14.9-2.95a1.24,1.24,0,0,1-.48-2.39A37.79,37.79,0,0,0,72.85,44a1.24,1.24,0,1,1,1.51,2,40,40,0,0,1-9.06,5.26A1.36,1.36,0,0,1,64.82,51.27Zm-29.77,0a1.18,1.18,0,0,1-.48-.1,39.66,39.66,0,0,1-9.06-5.26,1.24,1.24,0,1,1,1.51-2,37.46,37.46,0,0,0,8.51,4.93,1.24,1.24,0,0,1-.48,2.39ZM80.78,39a1.25,1.25,0,0,1-1-2,37.29,37.29,0,0,0,4.91-8.52,1.24,1.24,0,0,1,2.3.95,40.09,40.09,0,0,1-5.24,9.08A1.25,1.25,0,0,1,80.78,39ZM19.09,39a1.26,1.26,0,0,1-1-.49,40,40,0,0,1-5.22-9.08,1.24,1.24,0,0,1,2.29-.95A37.29,37.29,0,0,0,20.08,37a1.24,1.24,0,0,1-.23,1.74A1.21,1.21,0,0,1,19.09,39Z"/><path class="cls-1" d="M88.47,20.34h-.16a1.23,1.23,0,0,1-1.07-1.39,38.3,38.3,0,0,0,.3-4.8,1.25,1.25,0,1,1,2.49,0,41.52,41.52,0,0,1-.32,5.12A1.24,1.24,0,0,1,88.47,20.34Z"/></svg>