<svg id="Layer_1" data-name="Layer 1" xmlns="http://www.w3.org/2000/svg" viewBox="0 0 100 100"><defs><style>.cls-1{fill:#fff;}.cls-2{fill:#171717;}.cls-3{fill:#dfe0e1;}.cls-4{fill:#d3d4d6;}</style></defs><title>sheet music</title><polygon class="cls-1" points="69.89 0 10.29 0 10.29 100 89.71 100 89.71 19.82 69.89 0"/><rect class="cls-2" x="21.09" y="26.86" width="57.83" height="2.14" rx="0.4" ry="0.4"/><rect class="cls-2" x="21.09" y="11.87" width="57.83" height="2.14" rx="0.4" ry="0.4"/><rect class="cls-3" x="21.09" y="19.43" width="57.32" height="1.7" rx="0.32" ry="0.32"/><circle class="cls-2" cx="23.71" cy="23.04" r="1.9"/><rect class="cls-2" x="24.09" y="15.78" width="1.59" height="8.14" rx="0.3" ry="0.3" transform="translate(0.44 -0.53) rotate(1.24)"/><rect class="cls-2" x="27.48" y="12.57" width="1.59" height="8.14" rx="0.3" ry="0.3" transform="translate(45.53 -11.26) rotate(91.24)"/><circle class="cls-2" cx="30.39" cy="23.19" r="1.9"/><rect class="cls-2" x="30.77" y="15.92" width="1.59" height="8.14" rx="0.3" ry="0.3" transform="translate(0.44 -0.68) rotate(1.24)"/><circle class="cls-2" cx="65.12" cy="23.04" r="1.9"/><rect class="cls-2" x="65.5" y="15.78" width="1.59" height="8.14" rx="0.3" ry="0.3" transform="translate(0.44 -1.43) rotate(1.24)"/><rect class="cls-2" x="68.88" y="12.57" width="1.59" height="8.14" rx="0.3" ry="0.3" transform="translate(87.82 -52.65) rotate(91.24)"/><circle class="cls-2" cx="71.79" cy="23.19" r="1.9"/><rect class="cls-2" x="72.17" y="15.92" width="1.59" height="8.14" rx="0.3" ry="0.3" transform="translate(0.45 -1.57) rotate(1.24)"/><circle class="cls-2" cx="43.77" cy="23.7" r="2"/><rect class="cls-2" x="44.03" y="16.03" width="1.67" height="8.54" rx="0.31" ry="0.31" transform="matrix(1, -0.02, 0.02, 1, -0.4, 0.91)"/><circle class="cls-2" cx="54.99" cy="16.01" r="1.86"/><rect class="cls-2" x="55.1" y="8.82" width="1.56" height="7.95" rx="0.78" ry="0.78" transform="translate(-0.69 3.51) rotate(-3.57)"/><path class="cls-2" d="M55.93,8.87a5.55,5.55,0,0,0,1,.22,7.38,7.38,0,0,0,1,.05,3.73,3.73,0,0,0,2-.65,4.14,4.14,0,0,1-1.89,1.32,6.72,6.72,0,0,1-1.17.31,6.86,6.86,0,0,1-1.24.12h0a.71.71,0,1,1,0-1.41A.78.78,0,0,1,55.93,8.87Z"/><rect class="cls-2" x="26.96" y="32.89" width="8.85" height="2.06" rx="0.38" ry="0.38"/><rect class="cls-2" x="43.06" y="32.89" width="8.85" height="2.06" rx="0.38" ry="0.38"/><rect class="cls-2" x="59.15" y="32.89" width="8.85" height="2.06" rx="0.38" ry="0.38"/><rect class="cls-2" x="21.09" y="55.42" width="57.83" height="2.14" rx="0.4" ry="0.4"/><rect class="cls-2" x="21.09" y="40.44" width="57.83" height="2.14" rx="0.4" ry="0.4"/><rect class="cls-3" x="21.09" y="48" width="57.32" height="1.7" rx="0.32" ry="0.32"/><circle class="cls-2" cx="34.2" cy="45.18" r="1.9"/><rect class="cls-2" x="34.58" y="37.92" width="1.59" height="8.14" rx="0.3" ry="0.3" transform="translate(0.92 -0.76) rotate(1.24)"/><rect class="cls-2" x="37.96" y="34.71" width="1.59" height="8.14" rx="0.3" ry="0.3" transform="translate(78.38 0.87) rotate(91.24)"/><circle class="cls-2" cx="40.88" cy="45.33" r="1.9"/><rect class="cls-2" x="41.26" y="38.06" width="1.59" height="8.14" rx="0.3" ry="0.3" transform="translate(0.92 -0.9) rotate(1.24)"/><circle class="cls-2" cx="47.15" cy="45.18" r="1.9"/><rect class="cls-2" x="47.53" y="37.92" width="1.59" height="8.14" rx="0.3" ry="0.3" transform="translate(0.92 -1.04) rotate(1.24)"/><rect class="cls-2" x="50.92" y="34.71" width="1.59" height="8.14" rx="0.3" ry="0.3" transform="translate(91.61 -12.08) rotate(91.24)"/><circle class="cls-2" cx="53.83" cy="45.33" r="1.9"/><rect class="cls-2" x="54.21" y="38.06" width="1.59" height="8.14" rx="0.3" ry="0.3" transform="translate(0.92 -1.18) rotate(1.24)"/><circle class="cls-2" cx="25.62" cy="52.26" r="2"/><rect class="cls-2" x="25.88" y="44.6" width="1.67" height="8.54" rx="0.31" ry="0.31" transform="translate(-0.98 0.55) rotate(-1.16)"/><circle class="cls-2" cx="61.58" cy="52.26" r="2"/><rect class="cls-2" x="61.84" y="44.6" width="1.67" height="8.54" rx="0.31" ry="0.31" transform="matrix(1, -0.02, 0.02, 1, -0.97, 1.27)"/><circle class="cls-2" cx="70.36" cy="44.97" r="2"/><rect class="cls-2" x="70.62" y="37.3" width="1.67" height="8.54" rx="0.31" ry="0.31" transform="translate(-0.82 1.45) rotate(-1.16)"/><rect class="cls-2" x="26.96" y="61.45" width="8.85" height="2.06" rx="0.38" ry="0.38"/><rect class="cls-2" x="43.06" y="61.45" width="8.85" height="2.06" rx="0.38" ry="0.38"/><rect class="cls-2" x="59.15" y="61.45" width="8.85" height="2.06" rx="0.38" ry="0.38"/><rect class="cls-2" x="21.09" y="83.99" width="57.83" height="2.14" rx="0.4" ry="0.4"/><rect class="cls-2" x="21.09" y="69" width="57.83" height="2.14" rx="0.4" ry="0.4"/><rect class="cls-3" x="21.09" y="76.56" width="57.32" height="1.7" rx="0.32" ry="0.32"/><circle class="cls-2" cx="65.12" cy="80.17" r="1.9"/><rect class="cls-2" x="65.5" y="72.91" width="1.59" height="8.14" rx="0.3" ry="0.3" transform="matrix(1, 0.02, -0.02, 1, 1.68, -1.42)"/><rect class="cls-2" x="68.88" y="69.7" width="1.59" height="8.14" rx="0.3" ry="0.3" transform="translate(144.94 5.71) rotate(91.24)"/><circle class="cls-2" cx="71.79" cy="80.32" r="1.9"/><rect class="cls-2" x="72.17" y="73.05" width="1.59" height="8.14" rx="0.3" ry="0.3" transform="translate(1.69 -1.56) rotate(1.24)"/><circle class="cls-2" cx="43.77" cy="80.83" r="2"/><rect class="cls-2" x="44.03" y="73.16" width="1.67" height="8.54" rx="0.31" ry="0.31" transform="translate(-1.55 0.92) rotate(-1.16)"/><circle class="cls-2" cx="54.99" cy="73.14" r="1.86"/><rect class="cls-2" x="55.1" y="65.96" width="1.56" height="7.95" rx="0.78" ry="0.78" transform="translate(-4.25 3.62) rotate(-3.57)"/><path class="cls-2" d="M55.93,66a5.55,5.55,0,0,0,1,.22,7.38,7.38,0,0,0,1,0,3.73,3.73,0,0,0,2-.65A4.23,4.23,0,0,1,58.12,67a7.72,7.72,0,0,1-1.17.3,6.86,6.86,0,0,1-1.24.12h0a.71.71,0,1,1,0-1.41A.78.78,0,0,1,55.93,66Z"/><circle class="cls-2" cx="28.82" cy="73.14" r="1.86"/><rect class="cls-2" x="28.93" y="65.96" width="1.56" height="7.95" rx="0.78" ry="0.78" transform="translate(-4.3 1.99) rotate(-3.57)"/><path class="cls-2" d="M29.76,66a5.55,5.55,0,0,0,1,.22,7.38,7.38,0,0,0,1.05,0,3.73,3.73,0,0,0,2-.65A4.23,4.23,0,0,1,32,67a7.72,7.72,0,0,1-1.17.3,6.86,6.86,0,0,1-1.24.12h0a.71.71,0,1,1,0-1.41A.78.78,0,0,1,29.76,66Z"/><rect class="cls-2" x="26.96" y="90.02" width="8.85" height="2.06" rx="0.38" ry="0.38"/><rect class="cls-2" x="43.06" y="90.02" width="8.85" height="2.06" rx="0.38" ry="0.38"/><rect class="cls-2" x="59.15" y="90.02" width="8.85" height="2.06" rx="0.38" ry="0.38"/><polygon class="cls-4" points="69.89 19.82 69.89 0 89.71 19.82 69.89 19.82"/></svg>