<svg id="Layer_1" data-name="Layer 1" xmlns="http://www.w3.org/2000/svg" viewBox="0 0 100 100"><defs><style>.cls-1{fill:#fcca98;}.cls-2{fill:#f69a85;}.cls-3{fill:#6ab8d9;}.cls-4{fill:#09a582;}.cls-5{fill:#f37d3b;}</style></defs><title>donut</title><path class="cls-1" d="M50,30.65C22.39,30.65,0,34.89,0,50S22.39,77.35,50,77.35,100,65.11,100,50,77.61,30.65,50,30.65Zm0,13.11c-7.94,0-16.37-2.66-16.37-4.7s8.43-4.7,16.37-4.7S65.37,37,65.37,39.06,57.94,43.76,50,43.76Z"/><path class="cls-2" d="M88.13,52a7.63,7.63,0,0,0,.31.84A5,5,0,0,0,88.13,52Z"/><path class="cls-2" d="M99.72,47.11a16.91,16.91,0,0,0-.84-2.85C94.05,31.91,74,22.65,50,22.65,24.86,22.65,4.12,32.81.59,46c0,.15-.09.3-.13.45a14.28,14.28,0,0,0,.39,8.45,5.67,5.67,0,0,0,8.59-2.11A7.25,7.25,0,0,1,9.72,52l0-.06a.19.19,0,0,0,0,.07,5.87,5.87,0,0,1-.3.77A5.72,5.72,0,1,0,20.5,55.68h0a5.92,5.92,0,0,0-.21,1.46,5.71,5.71,0,0,0,11.38.72l.15,0a6.15,6.15,0,0,0-.07.75A5.71,5.71,0,0,0,43.18,59h0a5.72,5.72,0,0,0,11.43.13h.07a5.71,5.71,0,0,0,11.41-.46c0-.12,0-.23,0-.35h.15a5.73,5.73,0,0,0,11.34-1.14,4.78,4.78,0,0,0-.08-.76l.09,0a5.72,5.72,0,0,0,11.1-1.94,6,6,0,0,0-.15-1.28c0-.11-.07-.22-.11-.33l.17.31A5.7,5.7,0,0,0,99.3,50.71a5,5,0,0,0,.57.64A12.1,12.1,0,0,0,100,50,15.47,15.47,0,0,0,99.72,47.11ZM50,42.76c-7.94,0-14.37-1.66-14.37-3.7s6.43-3.7,14.37-3.7S64.37,37,64.37,39.06,57.94,42.76,50,42.76Z"/><rect class="cls-3" x="14.84" y="36.11" width="2.25" height="7.05" rx="0.55" ry="0.55" transform="translate(-25.55 29.52) rotate(-54.36)"/><rect class="cls-3" x="65.56" y="26.18" width="2.25" height="7.05" rx="0.55" ry="0.55" transform="translate(-4.42 46.24) rotate(-37.1)"/><rect class="cls-3" x="55.08" y="45.47" width="2.25" height="7.05" rx="0.55" ry="0.55" transform="translate(61.3 123.38) rotate(-135)"/><rect class="cls-4" x="18.78" y="46.18" width="2.25" height="7.05" rx="0.55" ry="0.55" transform="translate(40.97 0.49) rotate(45)"/><rect class="cls-4" x="55.08" y="25.5" width="2.25" height="7.05" rx="0.55" ry="0.55" transform="translate(111.17 -2.29) rotate(123.01)"/><rect class="cls-4" x="28.72" y="28.61" width="2.25" height="7.05" rx="0.55" ry="0.55" transform="translate(73.05 24.61) rotate(123.01)"/><rect class="cls-5" x="74.65" y="45.47" width="2.25" height="7.05" rx="0.55" ry="0.55" transform="translate(-14.22 55.63) rotate(-37.1)"/><rect class="cls-5" x="48.16" y="27.62" width="2.25" height="7.05" rx="0.55" ry="0.55" transform="translate(19.32 -18.87) rotate(26.79)"/><rect class="cls-5" x="82.78" y="39.68" width="2.25" height="7.05" rx="0.55" ry="0.55" transform="translate(28.47 -33.18) rotate(26.79)"/></svg>