<svg id="Layer_1" data-name="Layer 1" xmlns="http://www.w3.org/2000/svg" viewBox="0 0 100 100"><defs><style>.cls-1{fill:#7d7d7d;}.cls-2{fill:#bf9b77;}.cls-3{fill:#171717;}.cls-4{fill:#714c48;}.cls-5{fill:#9dc8dc;}.cls-6{fill:#069274;}.cls-7{fill:#ffc640;}.cls-8{fill:#231f20;}</style></defs><title>fishing rod</title><line class="cls-1" x1="32.14" y1="69.3" x2="91.17" y2="10.28"/><rect class="cls-2" x="19.92" y="38.85" width="83.48" height="1.88" transform="translate(-10.08 55.25) rotate(-45)"/><path class="cls-3" d="M88,16.1a4.27,4.27,0,1,1,3-7.29h0a4.27,4.27,0,0,1-3,7.29Zm0-6.66a2.39,2.39,0,1,0,1.69.7A2.38,2.38,0,0,0,88,9.44Z"/><path class="cls-3" d="M73.75,30.36a4.27,4.27,0,1,1,3-7.29h0a4.27,4.27,0,0,1-3,7.29Zm0-6.66a2.42,2.42,0,0,0-1.69.7,2.39,2.39,0,1,0,3.38,0h0A2.42,2.42,0,0,0,73.75,23.7Z"/><path class="cls-3" d="M59.49,44.62a4.26,4.26,0,0,1-3-7.29,4.29,4.29,0,0,1,6,0h0a4.27,4.27,0,0,1-3,7.29Zm0-6.65a2.39,2.39,0,0,0-2.4,2.38A2.34,2.34,0,0,0,57.8,42a2.39,2.39,0,0,0,4.08-1.69A2.37,2.37,0,0,0,59.49,38Z"/><path class="cls-3" d="M45.22,58.89a4.27,4.27,0,1,1,3-1.25A4.29,4.29,0,0,1,45.22,58.89Zm0-6.66a2.39,2.39,0,1,0,1.69.7A2.38,2.38,0,0,0,45.22,52.23Z"/><rect class="cls-1" x="3.25" y="38.58" width="98.76" height="6" rx="1.38" ry="1.38" transform="translate(-13.98 49.4) rotate(-45)"/><rect class="cls-4" x="-2.23" y="74.57" width="31.75" height="11.99" rx="2.76" ry="2.76" transform="translate(-52.98 33.25) rotate(-45)"/><rect class="cls-5" x="17.58" y="66.86" width="17.01" height="11.95" rx="2.75" ry="2.75" transform="translate(-43.86 39.78) rotate(-45)"/><circle class="cls-3" cx="26.03" cy="73.24" r="3.62"/><rect class="cls-1" x="27.62" y="70.07" width="2.93" height="12.65" rx="0.68" ry="0.68" transform="translate(-45.5 42.94) rotate(-45)"/><rect class="cls-1" x="27.21" y="79.64" width="8.4" height="3.32" rx="0.77" ry="0.77" transform="translate(-48.29 46.03) rotate(-45)"/><rect class="cls-2" x="90.23" y="10.28" width="1.88" height="63.25"/><path class="cls-6" d="M84.4,91.11l4.33-5a1.1,1.1,0,0,1,1.68,0l4.34,5A1.12,1.12,0,0,1,93.9,93h-.11a1.07,1.07,0,0,0-1-.82,1.08,1.08,0,0,0-1,.82h-.15a1,1,0,0,0-2,0h-.16a1,1,0,0,0-2,0h-.16a1,1,0,0,0-2,0h-.15A1.12,1.12,0,0,1,84.4,91.11Z"/><line class="cls-6" x1="82.25" y1="80.02" x2="82.41" y2="80.02"/><line class="cls-6" x1="77.98" y1="80.02" x2="78.13" y2="80.02"/><path class="cls-6" d="M75,78.17l4.33-5a1.12,1.12,0,0,1,1.69,0l4.33,5A1.12,1.12,0,0,1,84.51,80h-.12a1,1,0,0,0-2,0h-.16a1,1,0,0,0-2,0h-.15a1.08,1.08,0,0,0-1-.82,1.06,1.06,0,0,0-1,.82H78a1,1,0,0,0-2,0h-.15A1.12,1.12,0,0,1,75,78.17Z"/><circle class="cls-7" cx="89.57" cy="76.41" r="11.1"/><circle class="cls-8" cx="87.53" cy="72.85" r="0.89"/><rect class="cls-7" x="87.74" y="63.58" width="5.36" height="2.5" rx="0.58" ry="0.58" transform="translate(155.26 -25.59) rotate(90)"/><rect class="cls-7" x="90.25" y="63.58" width="5.36" height="2.5" rx="0.58" ry="0.58" transform="translate(157.76 -28.09) rotate(90)"/><rect class="cls-6" x="91.36" y="77.15" width="5.88" height="4.4" rx="1.01" ry="1.01" transform="translate(173.65 -14.95) rotate(90)"/><circle class="cls-6" cx="89.52" cy="71.33" r="0.47"/><circle class="cls-6" cx="89.52" cy="72.85" r="0.47"/><circle class="cls-6" cx="89.52" cy="74.38" r="0.47"/><path class="cls-6" d="M80.51,82.78l0,0a11.3,11.3,0,0,1-1.27-2.44l3.18-2.17Z"/><path class="cls-6" d="M80.49,82.83l0,0,3.3-2.24-1.68,4.12A11.46,11.46,0,0,1,80.49,82.83Z"/><path class="cls-6" d="M85.24,82.88,84,86a10.71,10.71,0,0,1-1.61-1.15Z"/></svg>