<svg id="Layer_1" data-name="Layer 1" xmlns="http://www.w3.org/2000/svg" viewBox="0 0 100 100"><defs><style>.cls-1{fill:#09a582;}.cls-2{fill:#f37d3b;}.cls-3{fill:#ffc640;}.cls-4{fill:#bd8b21;}.cls-5{fill:#007c59;}.cls-6{fill:#6ab8d9;}</style></defs><title>plankton</title><path class="cls-1" d="M13,41.88a1.86,1.86,0,0,1-.57,1.72,3.63,3.63,0,0,1-.93.64,9,9,0,0,1-1.26.38L3.65,46.24a2.79,2.79,0,0,1-2.53-.9,3.87,3.87,0,0,1-1-2.93C.24,40,2,38.3,3.67,38.52l6,.64A4,4,0,0,1,13,41.88Z"/><path class="cls-1" d="M12.79,37.09a2.22,2.22,0,0,1-.28.88,2.67,2.67,0,0,1-.67.67,3.18,3.18,0,0,1-2.13.52l-6-.64C2,38.39,1,36.35,1.79,34.08a4.86,4.86,0,0,1,2-2.47,2.44,2.44,0,0,1,2.29-.27l4.79,2.29a3.5,3.5,0,0,1,1.49,1.51A3.38,3.38,0,0,1,12.79,37.09Z"/><path class="cls-1" d="M14.12,32.58a3.21,3.21,0,0,1-.54.74,2,2,0,0,1-.8.43,2.61,2.61,0,0,1-1.93-.12L6.06,31.34A1.94,1.94,0,0,1,5,29.48a4.54,4.54,0,0,1,1.17-2.76,5.63,5.63,0,0,1,2.62-1.63,2.18,2.18,0,0,1,2,.45l3.1,3.32a2.59,2.59,0,0,1,.6,1.77A3.49,3.49,0,0,1,14.12,32.58Z"/><path class="cls-1" d="M17.28,28.66a3.19,3.19,0,0,1-1.75.79,1.93,1.93,0,0,1-1.61-.59l-3.1-3.32a1.69,1.69,0,0,1-.17-1.9,4.14,4.14,0,0,1,2-2h0A4.7,4.7,0,0,1,15.45,21a1.8,1.8,0,0,1,1.6.82l1.62,3.43A2.06,2.06,0,0,1,18.53,27a4,4,0,0,1-.55.86A6.24,6.24,0,0,1,17.28,28.66Z"/><path class="cls-1" d="M22,25.59A3.59,3.59,0,0,1,20,26a1.39,1.39,0,0,1-1.29-.74l-1.62-3.43a1.5,1.5,0,0,1,.46-1.62,5.23,5.23,0,0,1,2.34-1.13,7.67,7.67,0,0,1,1.43-.2,4.08,4.08,0,0,1,1,.12,1.59,1.59,0,0,1,1.23.8l1.06,2.85c.15.39-.08.9-.6,1.45A6.35,6.35,0,0,1,23,25,5.34,5.34,0,0,1,22,25.59Z"/><path class="cls-1" d="M28.38,22.21a5,5,0,0,1-2.44,1c-.7,0-1.2-.17-1.35-.56l-1.06-2.85A1.15,1.15,0,0,1,24,18.61a6.28,6.28,0,0,1,1.75-1c.79-.23,1.44-.45,2-.56s1-.07,1.26.16l1.53,1.68c.21.23.1.72-.27,1.37a8.23,8.23,0,0,1-.76,1.05A5.67,5.67,0,0,1,28.38,22.21Z"/><path class="cls-1" d="M33.5,16.36a3.84,3.84,0,0,1-.78,1.33,6.1,6.1,0,0,1-.89.88c-.55.47-1,.52-1.27.28L29,17.17c-.21-.23-.11-.61.07-1.1s.73-.93,1.08-1.56c.2-.29.45-.56.67-.82a7.15,7.15,0,0,1,.51-.76c.35-.44.64-.74.82-.71l1.5.23c.23,0,.37.46.37,1.18a9.71,9.71,0,0,1,0,1.27A10.12,10.12,0,0,1,33.5,16.36Z"/><path class="cls-1" d="M34.06,8.88a12.7,12.7,0,0,1,.21,1.39,3.67,3.67,0,0,1-.06,1.17c-.12.66-.32,1-.53,1l-1.5-.23c-.21,0-.35-.4-.37-.93s-.06-1.26,0-2.1,0-1.64-.09-2.23,0-1,.05-1l.72-.25c.1,0,.33.29.66.84a5.14,5.14,0,0,1,.47,1A9.69,9.69,0,0,1,34.06,8.88Z"/><path class="cls-1" d="M31.11,2.62c1.09,1.53,1.59,3,1.37,3.08L31.76,6c-.21.08-.66-1.28-1.32-3h0A20.3,20.3,0,0,0,29,0,27.84,27.84,0,0,1,31.11,2.62Z"/><circle class="cls-2" cx="88.82" cy="31.63" r="9.15"/><circle class="cls-3" cx="49.3" cy="58.41" r="6.45"/><circle class="cls-4" cx="29.64" cy="42.91" r="2.04"/><rect class="cls-2" x="16.45" y="64.53" width="10.92" height="21.77" rx="2.19" ry="2.19" transform="translate(35.66 -1.9) rotate(26.28)"/><rect class="cls-2" x="27.75" y="66.96" width="3.16" height="4.34" rx="0.63" ry="0.63" transform="translate(-24.92 17.21) rotate(-23.27)"/><rect class="cls-2" x="20.67" y="63.64" width="3.16" height="4.34" rx="0.63" ry="0.63" transform="translate(-36.1 103.49) rotate(-104.17)"/><rect class="cls-2" x="31.73" y="65.25" width="1.61" height="5.58" rx="0.32" ry="0.32" transform="translate(86.54 15.39) rotate(71.28)"/><rect class="cls-2" x="20.35" y="59.63" width="1.61" height="5.58" rx="0.32" ry="0.32" transform="translate(61.23 114.76) rotate(161.28)"/><rect class="cls-1" x="59.5" y="16.78" width="8.31" height="16.57" rx="1.66" ry="1.66" transform="translate(-3.91 35.79) rotate(-30.51)"/><rect class="cls-1" x="61.55" y="16.07" width="2.41" height="3.3" rx="0.48" ry="0.48" transform="translate(34.47 76.47) rotate(-80.06)"/><rect class="cls-1" x="56.48" y="19.19" width="2.41" height="3.3" rx="0.48" ry="0.48" transform="translate(105.41 59.36) rotate(-160.96)"/><rect class="cls-1" x="62.78" y="13.1" width="1.23" height="4.25" rx="0.25" ry="0.25" transform="translate(5.82 -15.37) rotate(14.49)"/><rect class="cls-1" x="54.46" y="18" width="1.23" height="4.25" rx="0.25" ry="0.25" transform="translate(88.34 -28.16) rotate(104.49)"/><rect class="cls-5" x="67.73" y="69.56" width="2.57" height="5.12" rx="0.51" ry="0.51" transform="translate(-27.06 45.02) rotate(-30.51)"/><rect class="cls-5" x="68.36" y="69.34" width="0.74" height="1.02" rx="0.15" ry="0.15" transform="translate(-11.93 125.49) rotate(-80.06)"/><rect class="cls-5" x="66.79" y="70.3" width="0.74" height="1.02" rx="0.15" ry="0.15" transform="translate(107.56 159.66) rotate(-160.96)"/><rect class="cls-5" x="68.74" y="68.42" width="0.38" height="1.31" rx="0.08" ry="0.08" transform="translate(19.47 -15.05) rotate(14.49)"/><rect class="cls-5" x="66.17" y="69.93" width="0.38" height="1.31" rx="0.08" ry="0.08" transform="translate(151.31 24) rotate(104.49)"/><path class="cls-6" d="M83.72,68.66c1.77-.31,2.16-2.42,7.2.26,4.85,2.59,3.45,4.21,4.23,5.83,1.17,2.44,5.18-.77,4.7-3.43L98,61.06a3.23,3.23,0,0,0-4.47-2.38l-9.56,4.17C81.47,63.93,81.06,69.14,83.72,68.66Z"/><path class="cls-6" d="M68,91.4l-1-.05a8.86,8.86,0,0,1,6.18-8.44c3-1.1,10.64-4.71,10.18-8-.64-4.61,3.72-8.9,3.91-9.08l.69.72s-4.18,4.11-3.61,8.22c.64,4.68-9.7,8.66-10.88,9.1C73.22,83.93,68.34,85.22,68,91.4Z"/><path class="cls-6" d="M89.68,100l-.88-.46a5.43,5.43,0,0,0-1.18-7.69c-1-1-2.09-2-2.19-3.74a4.27,4.27,0,0,1,.71-2.81,4.76,4.76,0,0,1,3.43-1.68,4.14,4.14,0,0,0,2.84-1.26,3.54,3.54,0,0,0,.57-3,2.51,2.51,0,0,0-.88-1.17A2.81,2.81,0,0,1,91,76.52a4.3,4.3,0,0,1,1.62-4,4.87,4.87,0,0,1,3.72-1.06l-.13,1a3.91,3.91,0,0,0-2.94.84,3.33,3.33,0,0,0-1.3,3,1.89,1.89,0,0,0,.78,1.09A3.53,3.53,0,0,1,93.93,79a4.57,4.57,0,0,1-.73,4,5,5,0,0,1-3.46,1.63c-1.15.2-2.15.37-2.79,1.27a3.34,3.34,0,0,0-.53,2.18c.08,1.35.92,2.15,1.89,3.08a7.59,7.59,0,0,1,2.27,3.16A7.45,7.45,0,0,1,89.68,100Z"/><rect class="cls-1" x="1.84" y="44.16" width="1.72" height="7.8" rx="0.34" ry="0.34"/><rect class="cls-1" x="10.44" y="42.39" width="2.01" height="9.57" rx="0.4" ry="0.4" transform="translate(-11.31 4.3) rotate(-14.32)"/><path class="cls-5" d="M77,45.87a.54.54,0,0,1,.32-.44,1.06,1.06,0,0,1,.33-.1,2.77,2.77,0,0,1,.4,0l2,.15a.86.86,0,0,1,.65.49,1.18,1.18,0,0,1,0,.94,1.13,1.13,0,0,1-1.38.79L77.66,47A1.2,1.2,0,0,1,77,45.87Z"/><path class="cls-5" d="M76.58,47.27a.63.63,0,0,1,.16-.23.88.88,0,0,1,.92-.08l1.67.75c.48.19.58.87.13,1.45a1.55,1.55,0,0,1-.8.53.74.74,0,0,1-.68-.14l-1.17-1.1a1,1,0,0,1-.28-.58A.94.94,0,0,1,76.58,47.27Z"/><path class="cls-5" d="M75.77,48.44a.87.87,0,0,1,.23-.16.76.76,0,0,1,.27-.05.74.74,0,0,1,.54.22L78,49.55a.57.57,0,0,1,.13.63,1.36,1.36,0,0,1-.59.69,1.71,1.71,0,0,1-.91.22.65.65,0,0,1-.54-.31l-.58-1.25a.77.77,0,0,1,0-.56A1.1,1.1,0,0,1,75.77,48.44Z"/><path class="cls-5" d="M74.5,49.28a1,1,0,0,1,.58-.07.6.6,0,0,1,.41.32l.58,1.25a.52.52,0,0,1-.13.56,1.22,1.22,0,0,1-.76.37h0a1.34,1.34,0,0,1-.86-.07c-.23-.09-.37-.23-.39-.38l-.14-1.14a.62.62,0,0,1,.19-.47,1.59,1.59,0,0,1,.24-.2A1.61,1.61,0,0,1,74.5,49.28Z"/><path class="cls-5" d="M72.85,49.72a1.1,1.1,0,0,1,.64.07.41.41,0,0,1,.3.33l.14,1.14a.44.44,0,0,1-.28.42,1.65,1.65,0,0,1-.78.11,2.74,2.74,0,0,1-.43-.08,1.2,1.2,0,0,1-.28-.13.52.52,0,0,1-.28-.34l0-.92c0-.12.11-.25.31-.36a1.5,1.5,0,0,1,.36-.15A1.69,1.69,0,0,1,72.85,49.72Z"/><path class="cls-5" d="M70.71,50.1a1.42,1.42,0,0,1,.8-.06c.2.05.33.15.33.28l0,.92c0,.12-.09.23-.25.3a2,2,0,0,1-.6.14c-.25,0-.45,0-.63,0a.44.44,0,0,1-.34-.16l-.29-.63c0-.08,0-.21.21-.36a2.09,2.09,0,0,1,.31-.24A2.61,2.61,0,0,1,70.71,50.1Z"/><path class="cls-5" d="M68.7,51.31A1,1,0,0,1,69,51a1.34,1.34,0,0,1,.34-.17c.2-.09.35-.06.39,0l.29.63c0,.08,0,.19-.13.31s-.29.2-.45.35l-.27.17a1.09,1.09,0,0,1-.22.17c-.14.1-.25.16-.3.13l-.41-.21c-.06,0-.06-.16,0-.37a2.9,2.9,0,0,1,.14-.36A2.77,2.77,0,0,1,68.7,51.31Z"/><path class="cls-5" d="M67.84,53.41a4.08,4.08,0,0,1,.07-.42,1.27,1.27,0,0,1,.12-.33c.1-.18.19-.27.25-.25l.41.21c.06,0,.06.15,0,.3s-.1.37-.19.61-.14.47-.18.65-.08.28-.11.28H68s-.07-.12-.11-.31a1.44,1.44,0,0,1,0-.33A2.94,2.94,0,0,1,67.84,53.41Z"/><path class="cls-5" d="M68.11,55.48c-.18-.54-.18-1-.11-1h.23c.07,0,.07.43.1,1h0a6.86,6.86,0,0,0,.13,1A7.74,7.74,0,0,1,68.11,55.48Z"/><rect class="cls-5" x="80.24" y="43.88" width="0.52" height="2.36" rx="0.1" ry="0.1" transform="translate(143.24 112.68) rotate(-162.09)"/><rect class="cls-5" x="77.6" y="43.05" width="0.61" height="2.89" rx="0.12" ry="0.12" transform="translate(152.86 93.78) rotate(-176.41)"/></svg>