<svg id="Layer_1" data-name="Layer 1" xmlns="http://www.w3.org/2000/svg" viewBox="0 0 100 100"><defs><style>.cls-1{fill:#bcd2de;}.cls-2{fill:#ffc640;}.cls-3{fill:#fdddbd;}.cls-4{fill:#ffe7d0;}.cls-5{fill:#589ab6;}</style></defs><title>mayonnaise</title><path class="cls-1" d="M82.64,26.4c0,5.49-14.61,9.94-32.64,9.94S17.36,31.89,17.36,26.4,32,8.48,50,8.48,82.64,20.91,82.64,26.4Z"/><path class="cls-1" d="M17.36,26.4v52C17.36,96.34,32.05,100,50,100s32.64-3.66,32.64-21.62v-52Z"/><path class="cls-2" d="M22.79,36V75.21c0,15,12.28,18.08,27.3,18.08S77.4,90.22,77.4,75.21V36Z"/><path class="cls-3" d="M22.79,36V75.21c0,15,12.28,18.08,27.3,18.08S77.4,90.22,77.4,75.21V36Z"/><ellipse class="cls-4" cx="50.09" cy="36.3" rx="27.3" ry="7.35"/><ellipse class="cls-5" cx="50.45" cy="14.94" rx="29.38" ry="7.47"/><ellipse class="cls-5" cx="50.45" cy="7.47" rx="29.38" ry="7.47"/><rect class="cls-5" x="21.06" y="7.47" width="58.77" height="7.47"/><path class="cls-5" d="M50,57c-18,0-32.64-3.66-32.64-21.62V53.27c0,17.95,14.69,21.61,32.64,21.61s32.64-3.66,32.64-21.61V35.35C82.64,53.31,68,57,50,57Z"/><rect class="cls-2" x="36.46" y="58.63" width="27.09" height="3.12" rx="0.59" ry="0.59"/><circle class="cls-2" cx="41.63" cy="67.88" r="5.17"/><rect class="cls-2" x="48.19" y="64.56" width="15.35" height="2.84" rx="0.54" ry="0.54"/><rect class="cls-2" x="48.19" y="70.21" width="15.35" height="2.84" rx="0.54" ry="0.54"/></svg>