<svg id="Layer_1" data-name="Layer 1" xmlns="http://www.w3.org/2000/svg" viewBox="0 0 100 100"><defs><style>.cls-1{fill:#e6b43b;}.cls-2{fill:#6ab8d9;}.cls-3{fill:#f37d3b;}.cls-4{fill:#09a582;}</style></defs><title>confetti</title><rect class="cls-1" x="23.3" y="42.43" width="6.33" height="12.56" rx="1.39" ry="1.39"/><rect class="cls-2" x="87.37" y="49.47" width="6.33" height="12.56" rx="1.39" ry="1.39"/><rect class="cls-2" x="90.54" y="83.72" width="6.33" height="12.56" rx="1.39" ry="1.39" transform="translate(91.08 -39.9) rotate(45)"/><rect class="cls-3" x="64.65" y="23.38" width="6.33" height="12.56" rx="1.39" ry="1.39" transform="translate(104.69 -34.51) rotate(96.26)"/><rect class="cls-4" x="59.59" y="81.24" width="6.33" height="12.56" rx="1.39" ry="1.39" transform="translate(80.27 -18.74) rotate(45)"/><rect class="cls-1" x="64.65" y="3.72" width="6.33" height="12.56" rx="1.39" ry="1.39" transform="translate(122.83 -30.87) rotate(135)"/><rect class="cls-1" x="90.54" y="12.97" width="6.33" height="12.56" rx="1.39" ry="1.39" transform="translate(48.96 -65.3) rotate(50.51)"/><rect class="cls-1" x="27.98" y="61.73" width="6.33" height="12.56" rx="1.39" ry="1.39" transform="translate(63.82 0.72) rotate(50.51)"/><rect class="cls-2" x="9.88" y="48.53" width="6.33" height="12.56" rx="1.39" ry="1.39" transform="translate(61.03 84.34) rotate(135)"/><rect class="cls-3" x="44.33" y="60.64" width="6.33" height="12.56" rx="1.39" ry="1.39" transform="translate(-19.43 114.41) rotate(-90)"/><rect class="cls-4" x="7.06" y="6.41" width="6.33" height="12.56" rx="1.39" ry="1.39" transform="translate(20.44 25.39) rotate(-180)"/><rect class="cls-4" x="3.21" y="82.15" width="6.33" height="12.56" rx="1.39" ry="1.39" transform="translate(80.91 136.44) rotate(126.91)"/><path class="cls-1" d="M44.09,28.57a10.7,10.7,0,0,1-9.92-6.7A8.77,8.77,0,0,1,39,10.46a7.26,7.26,0,0,1,9.43,4,6,6,0,0,1-3.34,7.84,5,5,0,0,1-6.57-2.8A4.26,4.26,0,0,1,40.91,14a3.63,3.63,0,0,1,4.74,2,3.13,3.13,0,0,1-1.74,4.08,2.72,2.72,0,0,1-1.82.08l.06,0a2.75,2.75,0,0,0,2.11,0,3.75,3.75,0,0,0,2.08-4.87,5,5,0,0,0-6.46-2.75A6.5,6.5,0,0,0,36.28,21a8.43,8.43,0,0,0,10.93,4.66,1.14,1.14,0,0,1,.85,2.11A10.51,10.51,0,0,1,44.09,28.57ZM41.4,17a1.13,1.13,0,0,1,1.06.72.46.46,0,0,0,.6.25.84.84,0,0,0,.47-1.11,1.35,1.35,0,0,0-1.76-.76,2,2,0,0,0-1.14,1.21,1,1,0,0,1,.35-.22A1,1,0,0,1,41.4,17Z"/><path class="cls-2" d="M73.52,73.1a7.23,7.23,0,0,1-5-2,6,6,0,0,1-.22-8.52,5.06,5.06,0,0,1,7.14-.19,4.28,4.28,0,0,1,1.32,3,4.22,4.22,0,0,1-1.17,3,3.65,3.65,0,0,1-5.15.13,3.15,3.15,0,0,1-.11-4.44A2.68,2.68,0,0,1,72,63.3a2.8,2.8,0,0,0-2,.86,3.76,3.76,0,0,0,.14,5.29,4.88,4.88,0,0,0,3.55,1.36,4.94,4.94,0,0,0,3.47-1.54,6.48,6.48,0,0,0-.24-9.17,8.23,8.23,0,0,0-6-2.31A8.38,8.38,0,0,0,65,60.4a1.14,1.14,0,1,1-1.65-1.57,10.69,10.69,0,0,1,15.1-.39,8.78,8.78,0,0,1,.31,12.4,7.17,7.17,0,0,1-5.06,2.26Zm-1.18-7.52a.49.49,0,0,0-.34.12.85.85,0,0,0,0,1.21,1.29,1.29,0,0,0,1,.38,1.34,1.34,0,0,0,.95-.43,2,2,0,0,0,.54-1.41.76.76,0,0,0,0-.15,1.24,1.24,0,0,1-.22.34,1.14,1.14,0,0,1-1.62,0A.45.45,0,0,0,72.34,65.58Z"/></svg>