<svg id="Layer_1" data-name="Layer 1" xmlns="http://www.w3.org/2000/svg" viewBox="0 0 100 100"><defs><style>.cls-1{fill:#171717;}.cls-2{fill:#714c48;}.cls-3{fill:#909295;}.cls-4{fill:#ffc640;}.cls-5{fill:#fbb340;}</style></defs><title>witch</title><rect class="cls-1" x="5.19" y="45.81" width="52.63" height="11.94" rx="2.64" ry="2.64"/><polygon class="cls-1" points="12.01 49.1 51.24 49.1 31.63 2.81 12.01 49.1"/><path class="cls-1" d="M51.24,52H12A2.93,2.93,0,0,1,9.32,48L28.94,1.67a2.92,2.92,0,0,1,5.38,0L53.93,48A2.92,2.92,0,0,1,51.24,52ZM16.43,46.17h30.4L31.63,10.3Z"/><rect class="cls-2" x="70.65" y="31.71" width="6.03" height="55.33" rx="1.34" ry="1.34" transform="translate(63.56 -34.7) rotate(45)"/><rect class="cls-3" x="56.21" y="69.85" width="10.59" height="3.37" rx="0.75" ry="0.75" transform="translate(68.6 -22.54) rotate(45)"/><rect class="cls-3" x="58.1" y="67.96" width="10.59" height="3.37" rx="0.75" ry="0.75" transform="translate(67.82 -24.43) rotate(45)"/><path class="cls-4" d="M61.58,92.8A15.08,15.08,0,1,0,40.25,71.47L36,75.75,57.29,97.09Z"/><rect class="cls-4" x="35.55" y="72.19" width="2.01" height="8.78" rx="0.45" ry="0.45" transform="translate(64.85 -3.42) rotate(45)"/><rect class="cls-5" x="36.48" y="74.11" width="2.01" height="8.78" rx="0.45" ry="0.45" transform="translate(66.48 -3.51) rotate(45)"/><rect class="cls-4" x="38.4" y="75.03" width="2.01" height="8.78" rx="0.45" ry="0.45" transform="translate(67.7 -4.6) rotate(45)"/><rect class="cls-5" x="39.32" y="76.95" width="2.01" height="8.78" rx="0.45" ry="0.45" transform="translate(69.33 -4.69) rotate(45)"/><rect class="cls-4" x="41.24" y="77.88" width="2.01" height="8.78" rx="0.45" ry="0.45" transform="translate(70.54 -5.78) rotate(45)"/><rect class="cls-5" x="42.17" y="79.8" width="2.01" height="8.78" rx="0.45" ry="0.45" transform="translate(72.17 -5.87) rotate(45)"/><rect class="cls-4" x="44.09" y="80.72" width="2.01" height="8.78" rx="0.45" ry="0.45" transform="translate(73.39 -6.96) rotate(45)"/><rect class="cls-5" x="45.01" y="82.64" width="2.01" height="8.78" rx="0.45" ry="0.45" transform="translate(75.02 -7.05) rotate(45)"/><rect class="cls-4" x="46.93" y="83.57" width="2.01" height="8.78" rx="0.45" ry="0.45" transform="translate(76.23 -8.14) rotate(45)"/><rect class="cls-5" x="47.86" y="85.49" width="2.01" height="8.78" rx="0.45" ry="0.45" transform="translate(77.86 -8.23) rotate(45)"/><rect class="cls-4" x="49.78" y="86.41" width="2.01" height="8.78" rx="0.45" ry="0.45" transform="translate(79.08 -9.31) rotate(45)"/><rect class="cls-5" x="50.7" y="88.33" width="2.01" height="8.78" rx="0.45" ry="0.45" transform="translate(80.71 -9.4) rotate(45)"/><rect class="cls-4" x="52.62" y="89.25" width="2.01" height="8.78" rx="0.45" ry="0.45" transform="translate(81.92 -10.49) rotate(45)"/><rect class="cls-5" x="53.54" y="91.17" width="2.01" height="8.78" rx="0.45" ry="0.45" transform="translate(83.55 -10.58) rotate(45)"/><rect class="cls-4" x="55.46" y="92.1" width="2.01" height="8.78" rx="0.45" ry="0.45" transform="translate(84.77 -11.67) rotate(45)"/></svg>