<svg id="Layer_1" data-name="Layer 1" xmlns="http://www.w3.org/2000/svg" viewBox="0 0 100 100"><defs><style>.cls-1{fill:#fff;}.cls-2{fill:#221f1f;}</style></defs><title>skeleton</title><rect class="cls-1" x="45.04" y="38.86" width="8.88" height="48.7" rx="1.83" ry="1.83"/><rect class="cls-1" x="22.53" width="54.93" height="46.63" rx="4.58" ry="4.58"/><path class="cls-1" d="M67.8,25.47H62a2.06,2.06,0,0,0-2,2.06,2.07,2.07,0,0,0-2.06-2.06H52.05a2.06,2.06,0,0,0-2,2.06,2.06,2.06,0,0,0-2-2.06H42.13a2.07,2.07,0,0,0-2.06,2.06,2.06,2.06,0,0,0-2-2.06H32.2a2.06,2.06,0,0,0-2.05,2.06V52.05A2.06,2.06,0,0,0,32.2,54.1H38a2.06,2.06,0,0,0,2-2.05,2.07,2.07,0,0,0,2.06,2.05H48a2.06,2.06,0,0,0,2-2.05,2.06,2.06,0,0,0,2,2.05h5.82a2.07,2.07,0,0,0,2.06-2.05,2.06,2.06,0,0,0,2,2.05H67.8a2.06,2.06,0,0,0,2-2.05V27.53A2.06,2.06,0,0,0,67.8,25.47Z"/><circle class="cls-2" cx="30.61" cy="35.17" r="1.79"/><circle class="cls-2" cx="69.39" cy="35.17" r="1.79"/><rect class="cls-1" x="35.42" y="57.33" width="28.23" height="7.5" rx="1.55" ry="1.55"/><rect class="cls-1" x="39.14" y="66.21" width="20.78" height="7.5" rx="1.55" ry="1.55"/><rect class="cls-1" x="39.14" y="75.1" width="20.78" height="7.5" rx="1.55" ry="1.55"/><path class="cls-1" d="M49.48,92.35h0c-2.07,0-10.34-1.68-10.34-3.75h0a3.76,3.76,0,0,1,3.75-3.75H56.17a3.77,3.77,0,0,1,3.76,3.75h0C59.93,90.67,51.54,92.35,49.48,92.35Z"/><rect class="cls-1" x="62.41" y="59.06" width="4.96" height="27.81" rx="1.03" ry="1.03"/><rect class="cls-1" x="56.41" y="84.85" width="4.96" height="15.15" rx="1.03" ry="1.03"/><rect class="cls-1" x="37.59" y="84.85" width="4.96" height="15.15" rx="1.03" ry="1.03"/><rect class="cls-1" x="31.48" y="59.06" width="4.96" height="27.81" rx="1.03" ry="1.03"/></svg>