<svg id="Layer_1" data-name="Layer 1" xmlns="http://www.w3.org/2000/svg" viewBox="0 0 100 100"><defs><style>.cls-1{fill:#ad7771;}.cls-2{fill:#875d58;}.cls-3{fill:#895e59;}.cls-4{fill:#231f20;}</style></defs><title>spider</title><path class="cls-1" d="M20.74,48.57,4.48,29.11l8-3.3L8.77,66.64l0,.18a.78.78,0,0,1-.27.52L0,74.42l7.08-8.48-.29.7L3.12,25.81A4.47,4.47,0,0,1,10.42,22l.65.54L30.53,38.77a7,7,0,0,1-8.91,10.68A6.65,6.65,0,0,1,20.74,48.57Z"/><polygon class="cls-2" points="20.74 48.57 14.79 41.45 23.41 32.83 30.53 38.77 20.74 48.57"/><path class="cls-2" d="M8.85,34.33,4.48,29.11l8-3.3-.22,2.46H3.34l-.22-2.46A4.47,4.47,0,0,1,10.42,22l.65.54,5.23,4.36Z"/><polygon class="cls-2" points="11.38 37.51 10.55 46.75 5 46.75 4.17 37.51 11.38 37.51"/><polygon class="cls-2" points="9.72 55.98 8.89 65.22 6.66 65.22 5.83 55.98 9.72 55.98"/><polygon class="cls-2" points="2.45 72.37 0 74.42 2.05 71.96 2.45 72.37"/><path class="cls-1" d="M41.28,21.83,60.74,5.58l.64-.53a4.46,4.46,0,0,1,7.31,3.82L65,49.7l-.29-.7,7.08,8.48L63.33,50.4a.8.8,0,0,1-.27-.52V49.7L59.38,8.87l7.95,3.3L51.08,31.63A7,7,0,0,1,40.4,22.71,8.12,8.12,0,0,1,41.28,21.83Z"/><polygon class="cls-2" points="41.28 21.83 48.4 15.89 57.02 24.51 51.08 31.63 41.28 21.83"/><path class="cls-2" d="M55.52,9.94l5.22-4.36.64-.53a4.46,4.46,0,0,1,7.31,3.82l-.22,2.46H59.6l-.22-2.46,7.95,3.3L63,17.39Z"/><polygon class="cls-2" points="67.64 20.57 66.81 29.8 61.26 29.8 60.43 20.57 67.64 20.57"/><polygon class="cls-2" points="65.98 39.04 65.15 48.28 62.92 48.28 62.09 39.04 65.98 39.04"/><polygon class="cls-2" points="69.76 55.02 71.81 57.48 69.36 55.43 69.76 55.02"/><path class="cls-1" d="M51.17,32.4,70.63,16.15l.64-.53a4.46,4.46,0,0,1,7.31,3.82L74.91,60.27l-.29-.7,7.08,8.48L73.23,61a.77.77,0,0,1-.28-.52v-.18L69.27,19.44l8,3.3L61,42.2a7,7,0,1,1-10.68-8.92A8.12,8.12,0,0,1,51.17,32.4Z"/><polygon class="cls-2" points="51.17 32.4 58.29 26.46 66.91 35.08 60.97 42.2 51.17 32.4"/><path class="cls-2" d="M65.41,20.51l5.22-4.36.64-.53a4.46,4.46,0,0,1,7.31,3.82l-.22,2.46H69.49l-.22-2.46,8,3.3L72.86,28Z"/><polygon class="cls-2" points="77.53 31.14 76.7 40.38 71.15 40.38 70.32 31.14 77.53 31.14"/><polygon class="cls-2" points="75.87 49.61 75.04 58.85 72.81 58.85 71.98 49.61 75.87 49.61"/><polygon class="cls-2" points="79.65 65.59 81.7 68.05 79.25 66 79.65 65.59"/><path class="cls-1" d="M58.26,40.25,77.72,24l.64-.54a4.47,4.47,0,0,1,7.31,3.83L82,68.11l-.29-.69,7.08,8.47-8.47-7.08a.73.73,0,0,1-.28-.52v-.18L76.36,27.29l8,3.29L68.06,50a7,7,0,0,1-10.68-8.91A6.65,6.65,0,0,1,58.26,40.25Z"/><polygon class="cls-2" points="58.26 40.25 65.38 34.3 74 42.92 68.06 50.04 58.26 40.25"/><path class="cls-2" d="M72.5,28.36,77.72,24l.64-.54a4.47,4.47,0,0,1,7.31,3.83l-.22,2.46H76.58l-.22-2.46,8,3.29L80,35.81Z"/><polygon class="cls-2" points="84.62 38.98 83.79 48.22 78.24 48.22 77.41 38.98 84.62 38.98"/><polygon class="cls-2" points="82.96 57.46 82.13 66.69 79.9 66.69 79.07 57.46 82.96 57.46"/><polygon class="cls-2" points="86.74 73.44 88.79 75.89 86.34 73.84 86.74 73.44"/><path class="cls-1" d="M69.47,42.51,88.93,26.26l.64-.53a4.46,4.46,0,0,1,7.31,3.82L93.21,70.38l-.29-.7L100,78.16l-8.48-7.08a.8.8,0,0,1-.27-.52l0-.18L87.56,29.55l8,3.3L79.26,52.31a7,7,0,1,1-10.67-8.92A7.31,7.31,0,0,1,69.47,42.51Z"/><polygon class="cls-2" points="69.47 42.51 76.59 36.57 85.21 45.19 79.26 52.31 69.47 42.51"/><path class="cls-2" d="M83.7,30.62l5.23-4.36.64-.53a4.46,4.46,0,0,1,7.31,3.82L96.66,32H87.78l-.22-2.46,8,3.3-4.37,5.22Z"/><polygon class="cls-2" points="95.83 41.25 95 50.48 89.44 50.48 88.61 41.25 95.83 41.25"/><polygon class="cls-2" points="94.17 59.72 93.34 68.96 91.11 68.96 90.28 59.72 94.17 59.72"/><polygon class="cls-2" points="97.95 75.7 100 78.16 97.55 76.11 97.95 75.7"/><path class="cls-3" d="M27.5,60.29a26.16,26.16,0,0,1,37-37c10.21,10.21,23.26,39.82,13,50S37.71,70.51,27.5,60.29Z"/><path class="cls-1" d="M54,23.1c2.77,3.16,20,23.24,15.52,23.24S37.92,25.42,37.92,23.1s3.6-4.22,8-4.22S52.48,21.35,54,23.1Z"/><circle class="cls-1" cx="53.92" cy="42.09" r="3.05"/><circle class="cls-1" cx="68.89" cy="36.89" r="2.17"/><path class="cls-1" d="M27.75,58.85,11.5,39.39l8-3.3L15.78,76.92v.18a.79.79,0,0,1-.28.52L7,84.7l7.08-8.48-.29.7L10.14,36.09a4.47,4.47,0,0,1,7.3-3.83l.65.54L37.55,49.05a7,7,0,0,1-8.92,10.68A8.12,8.12,0,0,1,27.75,58.85Z"/><polygon class="cls-2" points="27.75 58.85 21.81 51.73 30.43 43.11 37.55 49.05 27.75 58.85"/><path class="cls-2" d="M15.86,44.61,11.5,39.39l8-3.3-.22,2.46H10.36l-.22-2.46a4.47,4.47,0,0,1,7.3-3.83l.65.54,5.22,4.36Z"/><polygon class="cls-2" points="18.4 47.79 17.57 57.02 12.02 57.02 11.19 47.79 18.4 47.79"/><polygon class="cls-2" points="16.74 66.26 15.91 75.5 13.68 75.5 12.85 66.26 16.74 66.26"/><polygon class="cls-2" points="9.47 82.65 7.02 84.7 9.07 82.24 9.47 82.65"/><path class="cls-1" d="M36.16,66.15,19.91,46.69l8-3.3L24.19,84.22l0,.17a.78.78,0,0,1-.27.53L15.42,92l7.08-8.48-.29.7L18.54,43.39a4.47,4.47,0,0,1,7.3-3.83l.65.54L46,56.35A7,7,0,0,1,37,67,6.65,6.65,0,0,1,36.16,66.15Z"/><polygon class="cls-2" points="36.16 66.15 30.21 59.03 38.84 50.41 45.95 56.35 36.16 66.15"/><path class="cls-2" d="M24.27,51.91l-4.36-5.22,8-3.3-.22,2.46H18.76l-.22-2.46a4.47,4.47,0,0,1,7.3-3.83l.65.54,5.23,4.36Z"/><polygon class="cls-2" points="26.81 55.09 25.98 64.33 20.42 64.33 19.59 55.09 26.81 55.09"/><polygon class="cls-2" points="25.15 73.56 24.32 82.8 22.08 82.8 21.25 73.56 25.15 73.56"/><polygon class="cls-2" points="17.88 89.95 15.42 92 17.47 89.54 17.88 89.95"/><path class="cls-1" d="M45.84,70.14,29.59,50.68l8-3.29L33.87,88.21l0,.18a.76.76,0,0,1-.27.52L25.1,96l7.08-8.47-.29.69L28.22,47.39a4.47,4.47,0,0,1,7.3-3.84l.65.55L55.63,60.35A7,7,0,1,1,46.72,71,6.1,6.1,0,0,1,45.84,70.14Z"/><polygon class="cls-2" points="45.84 70.14 39.89 63.02 48.52 54.4 55.63 60.35 45.84 70.14"/><path class="cls-2" d="M34,55.91l-4.36-5.23,8-3.29-.22,2.46H28.44l-.22-2.46a4.47,4.47,0,0,1,7.3-3.84l.65.55,5.23,4.36Z"/><polygon class="cls-2" points="36.49 59.08 35.66 68.32 30.1 68.32 29.27 59.08 36.49 59.08"/><polygon class="cls-2" points="34.83 77.56 34 86.79 31.76 86.79 30.93 77.56 34.83 77.56"/><polygon class="cls-2" points="27.56 93.94 25.1 95.99 27.15 93.54 27.56 93.94"/><circle class="cls-4" cx="95.78" cy="58.76" r="4.08"/><circle class="cls-3" cx="74.44" cy="65.55" r="23.9"/><circle class="cls-4" cx="68.71" cy="58.76" r="4.08"/><circle class="cls-4" cx="79.84" cy="58.76" r="5.48"/><circle class="cls-4" cx="91.49" cy="58.76" r="5.48"/><path class="cls-1" d="M78.93,94.9h0s-6.13-5.24-6.13-8.62V75.59a6.15,6.15,0,0,1,6.13-6.13h0a6.15,6.15,0,0,1,6.13,6.13V86.28C85.06,89.66,78.93,94.9,78.93,94.9Z"/><path class="cls-1" d="M91.2,94.11h0s-6.14-5.24-6.14-8.62V74.81a6.15,6.15,0,0,1,6.14-6.14h0a6.15,6.15,0,0,1,6.13,6.14V85.49C97.33,88.87,91.2,94.11,91.2,94.11Z"/></svg>