<svg id="Layer_1" data-name="Layer 1" xmlns="http://www.w3.org/2000/svg" viewBox="0 0 100 100"><defs><style>.cls-1{fill:#fff;}</style></defs><title>web</title><path class="cls-1" d="M62.48,6.57a28.65,28.65,0,0,1-26.81,0c-.08-.27-.17-.54-.25-.81a29.16,29.16,0,0,0,27.32,0C62.65,6,62.57,6.3,62.48,6.57Z"/><path class="cls-1" d="M59.32,16.57a21.91,21.91,0,0,1-20.49,0l-.25-.81a22.43,22.43,0,0,0,21,0C59.49,16,59.41,16.3,59.32,16.57Z"/><path class="cls-1" d="M56.17,26.56a15.14,15.14,0,0,1-14.18,0c-.08-.27-.17-.54-.25-.81a15.64,15.64,0,0,0,14.68,0C56.34,26,56.25,26.29,56.17,26.56Z"/><path class="cls-1" d="M53,36.56a8.41,8.41,0,0,1-7.86,0c-.09-.27-.17-.54-.26-.81a8.92,8.92,0,0,0,8.37,0Z"/><path class="cls-1" d="M51.43,41.56a5.07,5.07,0,0,1-4.7,0c-.09-.27-.17-.54-.26-.81a5.58,5.58,0,0,0,5.21,0C51.6,41,51.51,41.29,51.43,41.56Z"/><path class="cls-1" d="M47.25,43.71a.65.65,0,0,1-.63-.45L32.87,2.34a.66.66,0,1,1,1.26-.42L47.88,42.84a.66.66,0,0,1-.42.84A.76.76,0,0,1,47.25,43.71Z"/><path class="cls-1" d="M50.75,43.71a.76.76,0,0,1-.21,0,.66.66,0,0,1-.42-.84L63.87,1.92a.66.66,0,0,1,.84-.42.67.67,0,0,1,.42.84L51.38,43.26A.66.66,0,0,1,50.75,43.71Z"/><path class="cls-1" d="M85.18,22.17A28.65,28.65,0,0,1,63.28,6.71c.08-.27.17-.54.25-.81A29.21,29.21,0,0,0,85.86,21.66Z"/><path class="cls-1" d="M76.84,28.51A21.88,21.88,0,0,1,60.1,16.7l.25-.81A22.43,22.43,0,0,0,77.51,28Z"/><path class="cls-1" d="M72.67,31.69a18.54,18.54,0,0,1-14.17-10c.09-.27.18-.53.26-.8A19.07,19.07,0,0,0,73.34,31.17Z"/><path class="cls-1" d="M68.5,34.86a15.17,15.17,0,0,1-11.59-8.17c.09-.27.18-.54.26-.81a15.67,15.67,0,0,0,12,8.47Z"/><path class="cls-1" d="M64.32,38a11.77,11.77,0,0,1-9-6.35l.26-.81A12.31,12.31,0,0,0,65,37.52Z"/><path class="cls-1" d="M60.15,41.21a8.41,8.41,0,0,1-6.42-4.53c.09-.27.17-.54.26-.81a8.92,8.92,0,0,0,6.84,4.82Z"/><path class="cls-1" d="M56,44.38a5,5,0,0,1-3.84-2.71c.09-.27.17-.54.26-.81a5.57,5.57,0,0,0,4.25,3Z"/><path class="cls-1" d="M54.56,45.87A.65.65,0,0,1,54,45.6a.66.66,0,0,1,.14-.93L89,19.17a.65.65,0,0,1,.92.14.66.66,0,0,1-.14.93L55,45.74A.66.66,0,0,1,54.56,45.87Z"/><path class="cls-1" d="M94.49,48.15A28.62,28.62,0,0,1,86.05,22.7l.69-.5a29.17,29.17,0,0,0,8.59,25.93Z"/><path class="cls-1" d="M89.25,48.22A25.26,25.26,0,0,1,81.8,25.77l.69-.49a25.82,25.82,0,0,0,7.6,22.93Z"/><path class="cls-1" d="M78.77,48.37a18.49,18.49,0,0,1-5.46-16.45l.69-.5a19.07,19.07,0,0,0,5.61,16.94Z"/><path class="cls-1" d="M68.28,48.52a11.79,11.79,0,0,1-3.46-10.46l.68-.5A12.32,12.32,0,0,0,69.13,48.5Z"/><path class="cls-1" d="M63,48.59a8.4,8.4,0,0,1-2.47-7.46l.69-.49a8.94,8.94,0,0,0,2.63,7.94Z"/><path class="cls-1" d="M57.8,48.66a5,5,0,0,1-1.48-4.46l.69-.49a5.55,5.55,0,0,0,1.64,4.94Z"/><path class="cls-1" d="M13.69,25.25a29.86,29.86,0,0,0,21.49-17l-.3-.8A30.4,30.4,0,0,1,13,24.78Z"/><path class="cls-1" d="M22.42,31.09a22.84,22.84,0,0,0,16.43-13l-.3-.8A23.4,23.4,0,0,1,21.71,30.62Z"/><path class="cls-1" d="M31.15,36.93a15.77,15.77,0,0,0,11.36-9c-.1-.26-.19-.53-.29-.8a16.36,16.36,0,0,1-11.78,9.31Z"/><path class="cls-1" d="M39.88,42.76a8.72,8.72,0,0,0,6.3-5l-.3-.79a9.3,9.3,0,0,1-6.7,5.3Z"/><path class="cls-1" d="M44.23,45.7A4.38,4.38,0,0,0,47.65,43l-.31-.78a4.84,4.84,0,0,1-3.8,3Z"/><path class="cls-1" d="M45.51,47.25a.61.61,0,0,1-.36-.11L9,23.58a.67.67,0,1,1,.72-1.12L45.87,46a.66.66,0,0,1,.2.92A.66.66,0,0,1,45.51,47.25Z"/><path class="cls-1" d="M5.81,51.7a28.63,28.63,0,0,0,7-25.87l-.71-.46A29.21,29.21,0,0,1,5,51.74Z"/><path class="cls-1" d="M21.52,51.06a18.51,18.51,0,0,0,4.55-16.72l-.71-.46A19.08,19.08,0,0,1,20.67,51.1Z"/><path class="cls-1" d="M32,50.64A11.75,11.75,0,0,0,34.88,40l-.71-.46a12.31,12.31,0,0,1-3,11.12Z"/><path class="cls-1" d="M37.23,50.43a8.4,8.4,0,0,0,2.06-7.58l-.71-.46a8.92,8.92,0,0,1-2.2,8.07Z"/><path class="cls-1" d="M42.47,50.22a5.07,5.07,0,0,0,1.23-4.54c-.24-.15-.48-.3-.71-.46a5.59,5.59,0,0,1-1.37,5Z"/><path class="cls-1" d="M99.33,49.33h0l-43.16-.18a.66.66,0,0,1-.66-.66.67.67,0,0,1,.66-.67h0L99.34,48a.66.66,0,0,1,.66.66A.67.67,0,0,1,99.33,49.33Z"/><path class="cls-1" d="M86.83,74.6A28.62,28.62,0,0,1,94.6,49h.85a29.17,29.17,0,0,0-7.92,26.14Z"/><path class="cls-1" d="M78.18,68.68a21.91,21.91,0,0,1,5.94-19.61H85a22.43,22.43,0,0,0-6.09,20.1Z"/><path class="cls-1" d="M69.53,62.76a15.16,15.16,0,0,1,4.11-13.57h.85a15.68,15.68,0,0,0-4.26,14.06Z"/><path class="cls-1" d="M60.88,56.83a8.38,8.38,0,0,1,2.28-7.51H64a8.91,8.91,0,0,0-2.43,8Z"/><path class="cls-1" d="M56.56,53.87a5,5,0,0,1,1.36-4.49h.85a5.56,5.56,0,0,0-1.52,5Z"/><path class="cls-1" d="M90.49,78.48a.66.66,0,0,1-.38-.12l-35.17-25a.66.66,0,1,1,.77-1.08l35.17,25a.67.67,0,0,1,.16.93A.66.66,0,0,1,90.49,78.48Z"/><path class="cls-1" d="M66,92.07A28.65,28.65,0,0,1,87.4,75.87l.69.49A29.21,29.21,0,0,0,66.32,92.87C66.23,92.6,66.13,92.34,66,92.07Z"/><path class="cls-1" d="M64.28,87.13A25.25,25.25,0,0,1,83.12,72.84l.69.49a25.82,25.82,0,0,0-19.25,14.6C64.47,87.67,64.37,87.4,64.28,87.13Z"/><path class="cls-1" d="M62.51,82.2A21.91,21.91,0,0,1,78.84,69.81l.69.49A22.46,22.46,0,0,0,62.8,83C62.7,82.73,62.61,82.46,62.51,82.2Z"/><path class="cls-1" d="M57.23,67.39A11.76,11.76,0,0,1,66,60.73l.7.49a12.33,12.33,0,0,0-9.19,7C57.42,67.92,57.32,67.66,57.23,67.39Z"/><path class="cls-1" d="M53.7,57.52a5,5,0,0,1,3.75-2.84l.69.49A5.54,5.54,0,0,0,54,58.32C53.89,58.05,53.8,57.78,53.7,57.52Z"/><path class="cls-1" d="M67.12,97.49a.67.67,0,0,1-.63-.45L52.71,56.13a.66.66,0,0,1,.42-.84.67.67,0,0,1,.85.42l13.77,40.9a.68.68,0,0,1-.42.85A.76.76,0,0,1,67.12,97.49Z"/><path class="cls-1" d="M38.53,93.36a28.65,28.65,0,0,1,26.79-.92c.09.27.19.53.28.8a29.17,29.17,0,0,0-27.3.94C38.38,93.91,38.45,93.63,38.53,93.36Z"/><path class="cls-1" d="M41.34,83.26a21.91,21.91,0,0,1,20.48-.7l.28.8a22.45,22.45,0,0,0-21,.72C41.19,83.81,41.26,83.54,41.34,83.26Z"/><path class="cls-1" d="M42.75,78.22a18.51,18.51,0,0,1,17.32-.6c.09.27.19.53.28.8A19.08,19.08,0,0,0,42.52,79C42.59,78.76,42.67,78.49,42.75,78.22Z"/><path class="cls-1" d="M44.15,73.17a15.16,15.16,0,0,1,14.17-.49c.09.26.19.53.28.8a15.67,15.67,0,0,0-14.68.5C44,73.71,44.08,73.44,44.15,73.17Z"/><path class="cls-1" d="M47,63.07a8.36,8.36,0,0,1,7.85-.27c.09.26.19.53.28.8a8.93,8.93,0,0,0-8.36.28Z"/><path class="cls-1" d="M48.37,58a5,5,0,0,1,4.7-.16c.09.26.19.53.28.8a5.56,5.56,0,0,0-5.21.18C48.22,58.56,48.3,58.29,48.37,58Z"/><path class="cls-1" d="M36.67,98.53a.58.58,0,0,1-.19,0,.67.67,0,0,1-.45-.83L48.36,56.31a.67.67,0,0,1,.83-.44.66.66,0,0,1,.45.82L37.3,98.06A.65.65,0,0,1,36.67,98.53Z"/><path class="cls-1" d="M15.41,78.29a28.62,28.62,0,0,1,22.1,15.17l-.24.81A29.23,29.23,0,0,0,14.75,78.81Z"/><path class="cls-1" d="M19.54,75.06A25.26,25.26,0,0,1,39,88.45c-.08.27-.16.54-.25.81A25.8,25.8,0,0,0,18.88,75.58Z"/><path class="cls-1" d="M23.68,71.84a21.88,21.88,0,0,1,16.89,11.6l-.25.81A22.44,22.44,0,0,0,23,72.36Z"/><path class="cls-1" d="M31.94,65.38a15.14,15.14,0,0,1,11.68,8l-.24.81a15.68,15.68,0,0,0-12.11-8.31Z"/><path class="cls-1" d="M36.07,62.16a11.77,11.77,0,0,1,9.08,6.23l-.25.81a12.33,12.33,0,0,0-9.5-6.52Z"/><path class="cls-1" d="M40.2,58.93a8.42,8.42,0,0,1,6.48,4.45c-.09.27-.17.54-.25.81a9,9,0,0,0-6.9-4.74Z"/><path class="cls-1" d="M44.33,55.71a5,5,0,0,1,3.87,2.66l-.24.81a5.57,5.57,0,0,0-4.3-3Z"/><path class="cls-1" d="M11.24,81.47a.66.66,0,0,1-.4-1.19l34.5-25.95a.67.67,0,0,1,.93.13.66.66,0,0,1-.14.93l-34.49,26A.66.66,0,0,1,11.24,81.47Z"/><path class="cls-1" d="M5.53,52.58a28.67,28.67,0,0,1,9.31,25.14l-.67.52A29.21,29.21,0,0,0,4.68,52.62Z"/><path class="cls-1" d="M10.76,52.33A25.26,25.26,0,0,1,19,74.51l-.67.52A25.83,25.83,0,0,0,9.92,52.37Z"/><path class="cls-1" d="M21.23,51.82a18.5,18.5,0,0,1,6,16.25l-.67.52a19,19,0,0,0-6.19-16.73Z"/><path class="cls-1" d="M26.47,51.56a15.18,15.18,0,0,1,4.92,13.3l-.67.52a15.66,15.66,0,0,0-5.1-13.77Z"/><path class="cls-1" d="M31.7,51.31a11.78,11.78,0,0,1,3.83,10.33l-.67.52a12.32,12.32,0,0,0-4-10.81Z"/><path class="cls-1" d="M36.94,51.06a8.41,8.41,0,0,1,2.73,7.36l-.67.52a8.93,8.93,0,0,0-2.91-7.84Z"/><path class="cls-1" d="M42.17,50.8a5,5,0,0,1,1.64,4.41l-.67.52a5.6,5.6,0,0,0-1.81-4.89Z"/><path class="cls-1" d="M.67,52.9a.67.67,0,0,1,0-1.33l43.14-1.31a.64.64,0,0,1,.68.64.66.66,0,0,1-.64.69L.69,52.9Z"/><path class="cls-1" d="M50.42,58.8A8.55,8.55,0,1,1,59,50.25,8.56,8.56,0,0,1,50.42,58.8Zm0-13.77a5.22,5.22,0,1,0,5.22,5.22A5.22,5.22,0,0,0,50.42,45Z"/></svg>