<svg id="Layer_1" data-name="Layer 1" xmlns="http://www.w3.org/2000/svg" xmlns:xlink="http://www.w3.org/1999/xlink" viewBox="0 0 100 100"><defs><style>.cls-1{fill:none;}.cls-2{clip-path:url(#clip-path);}.cls-3{fill:#58595b;}.cls-4{fill:#88c057;}.cls-5{fill:#659c35;}.cls-6{fill:#09a380;}.cls-7{fill:#f05c38;}.cls-8{fill:#f7a895;}.cls-9{fill:#079676;}.cls-10{fill:#00795e;}</style><clipPath id="clip-path"><path class="cls-1" d="M-34.29-120h-71.42A14.33,14.33,0,0,0-120-105.71v71.42A14.33,14.33,0,0,0-105.71-20h71.42A14.33,14.33,0,0,0-20-34.29v-71.42A14.33,14.33,0,0,0-34.29-120Z"/></clipPath></defs><title>vegetable</title><g class="cls-2"><path class="cls-3" d="M-323,15.57C-139-78.48,18-140.36,34.09-125.63l119.17-60.92c-67.42,1.13-262.4,76.19-483,189-51.17,26.15-99.73,52.35-144.88,77.88H-444C-406.79,59.43-366.13,37.6-323,15.57Z"/><path class="cls-3" d="M177.7-179.09c-2.8-5.48-11.54-7.68-24.44-7.46L34.09-125.63c.38.34,1.09.51,1.31.95,9.5,18.58-132,109.91-317,205h101.71C38.5-38.07,193.16-148.85,177.7-179.09Z"/></g><path class="cls-4" d="M48.11,32.91A9.28,9.28,0,0,0,52.57,29a10.13,10.13,0,0,0-.31-11,9.91,9.91,0,0,0-11-3.69,7.71,7.71,0,0,0-10.47-1.16s0,0,0,0a4.8,4.8,0,0,0-1.28-1.44A5,5,0,0,0,24,11.39,5,5,0,0,0,21.53,15a5.5,5.5,0,0,0-4.93,8.78l0,0a7.16,7.16,0,0,0-1,9.68,6.72,6.72,0,0,0,1.16,1.22,8.26,8.26,0,0,0,1.95,14,6.06,6.06,0,0,0,7.69,7.24c6.21,8.83,13.1,11.63,24.2,14l.6.13.13,0c4.56.93,8.56-5.38,4.72-8C35.53,48,57.39,36,57.39,36s-3.7-6.13-9-2.58c-.09-.15-.2-.3-.3-.44a.05.05,0,0,0,0,0Zm0,0"/><path class="cls-5" d="M51.32,70.11l-.13,0-.6-.13c-11.1-2.41-18-5.21-24.2-14a6.06,6.06,0,0,1-7.69-7.24,8.26,8.26,0,0,1-1.95-14,6.72,6.72,0,0,1-1.16-1.22,7.15,7.15,0,0,1-.4-8,9.69,9.69,0,0,0-1.57-1c-2.86-1.43-6-1.35-7.6.34-1.34,1.39-1.48,3.44-.69,5.46A5.6,5.6,0,0,0,.78,32.54c-2,3,.06,7.63,4.38,10.13l0,0c-1.93,3.65.44,8.49,5.2,10.91a12.72,12.72,0,0,0,2.1.83c-2.29,3.83-.06,8.63,4.72,10.7a11.39,11.39,0,0,0,4.65.93,5.24,5.24,0,0,0,3.19,3.48,6.84,6.84,0,0,0,6.63-.74c7.59,3.74,13.12,3.27,20.65,1.43l.24-.06a4.46,4.46,0,0,1-1.26-.06Zm0,0"/><path class="cls-5" d="M32.71,40.49a1.3,1.3,0,0,0-.2-.43,25.24,25.24,0,0,1-.88-6,17.13,17.13,0,0,1,7.8-5.09,1,1,0,0,0,.43-.2,1.17,1.17,0,0,0-1-2.08,18.29,18.29,0,0,0-7.1,3.92A18.55,18.55,0,0,1,33.3,25c.88-1.67,3.5-2.32,4.44-2.42a1.14,1.14,0,0,0,.57-.22,1.18,1.18,0,0,0-.83-2.11,10.1,10.1,0,0,0-5.15,2.23,7,7,0,0,1-.49-2.33,1.17,1.17,0,1,0-2.33,0,8.14,8.14,0,0,0,1.39,4.55,25.37,25.37,0,0,0-1,14c.07.38.16.77.26,1.16a6.66,6.66,0,0,1-5.85-3.44,1.18,1.18,0,0,0-2.08,1.1,8.92,8.92,0,0,0,8.57,4.64,35,35,0,0,0,4.13,8.43.92.92,0,0,0,.19.28,47,47,0,0,0,5.35,6.5,5.86,5.86,0,0,1-3-.36,1.18,1.18,0,0,0-1.56.56A1.17,1.17,0,0,0,36.39,59a8.31,8.31,0,0,0,6,.16,76.75,76.75,0,0,0,13.2,9.69A6,6,0,0,0,57,67s0,0,0,0a75,75,0,0,1-13.6-10L43.36,57a45.43,45.43,0,0,1-6.29-7.27c-.36-3.22,3.44-6.19,3.47-6.22a1.17,1.17,0,0,0-1.41-1.87h0a13.4,13.4,0,0,0-3.91,5.09,29.5,29.5,0,0,1-2.48-5.88,1.17,1.17,0,0,0,0-.32Zm0,0"/><path class="cls-6" d="M88.43,22a7,7,0,0,0,.4-1.72,6.66,6.66,0,0,0-1.72-.4,10,10,0,0,0-9.85,6.14,6.47,6.47,0,0,0-.39,1.71,6.49,6.49,0,0,0,1.71.4A10,10,0,0,0,88.43,22Zm0,0"/><path class="cls-6" d="M71,16.18a7,7,0,0,0-1.72-.4,7.09,7.09,0,0,0-.4,1.72A10,10,0,0,0,75,27.35a6.92,6.92,0,0,0,1.71.4,6.66,6.66,0,0,0,.4-1.72A10,10,0,0,0,71,16.18Zm0,0"/><path class="cls-6" d="M80.81,15.53a6.46,6.46,0,0,0-1-1.47,6.5,6.5,0,0,0-1.47,1A10,10,0,0,0,76,26.37a6.89,6.89,0,0,0,1,1.48,6.86,6.86,0,0,0,1.47-1,10,10,0,0,0,2.4-11.36Zm0,0"/><path class="cls-7" d="M99.29,55.3a28.8,28.8,0,1,1-56.11-13c3.6-15.49,18.3-21.8,33.8-18.2S102.89,39.81,99.29,55.3Z"/><path class="cls-8" d="M60.67,35.46a4.36,4.36,0,1,1-3.26-5.24,4.37,4.37,0,0,1,3.26,5.24Zm0,0"/><rect class="cls-9" x="39.47" y="38.82" width="28.35" height="69.26" rx="14.18" ry="14.18" transform="translate(-15.34 132.73) rotate(-94.53)"/><rect class="cls-10" x="44.87" y="38.82" width="17.55" height="69.26" rx="8.78" ry="8.78" transform="translate(-15.34 132.73) rotate(-94.53)"/><circle class="cls-6" cx="27.47" cy="79.86" r="2.09"/><circle class="cls-6" cx="30.31" cy="69.93" r="1.52"/><circle class="cls-6" cx="38.35" cy="74.47" r="2.57"/><circle class="cls-6" cx="52.66" cy="78.53" r="0.75"/><circle class="cls-6" cx="74.43" cy="67.47" r="2.36"/><circle class="cls-6" cx="82.48" cy="71.59" r="1.96"/><path class="cls-10" d="M14.88,69.4a5.44,5.44,0,0,0-1.22,0,5.05,5.05,0,0,0,.05,1.22,6.92,6.92,0,0,0,5.91,5.44,4.91,4.91,0,0,0,1.22,0,5.07,5.07,0,0,0-.05-1.22,6.92,6.92,0,0,0-5.91-5.44Zm0,0"/><path class="cls-10" d="M14.18,82.09a5.42,5.42,0,0,0,.05,1.22,4.59,4.59,0,0,0,1.22,0,6.91,6.91,0,0,0,5.44-5.9,4.89,4.89,0,0,0-.05-1.22,5.07,5.07,0,0,0-1.22,0,6.91,6.91,0,0,0-5.44,5.9Zm0,0"/><path class="cls-10" d="M12,75.68a4.91,4.91,0,0,0-.81.92,5.53,5.53,0,0,0,.91.81,6.92,6.92,0,0,0,8-.5,4.51,4.51,0,0,0,.8-.91,4.49,4.49,0,0,0-.91-.81,6.92,6.92,0,0,0-8,.49Zm0,0"/></svg>