<svg id="Layer_1" data-name="Layer 1" xmlns="http://www.w3.org/2000/svg" viewBox="0 0 100 100"><defs><style>.cls-1{fill:#00a69c;}.cls-2{fill:#ffc63f;}.cls-3{fill:#96be9c;}.cls-4{fill:#231f20;}.cls-5{fill:#008e85;}</style></defs><title>bird</title><path class="cls-1" d="M37.07,36.38A22.29,22.29,0,0,0,79.35,50.5c3.89-11.68-8-46.37-8-46.37S41,24.71,37.07,36.38Z"/><polyline class="cls-2" points="42.67 84.47 47.97 84.47 45.32 100"/><polyline class="cls-2" points="58.56 84.47 63.87 84.47 61.22 100"/><path class="cls-3" d="M63.18,87A31,31,0,0,0,83.82,57.75c0-3.38-1.23-7.69-3.17-12.42C64,28.53,49,84.66,63.18,87Z"/><path class="cls-1" d="M80.65,45.33C72.75,26.14,52.76,0,52.76,0s-31,40.6-31,57.75A31,31,0,0,0,63.18,87C58,70.52,62.82,51.83,80.65,45.33Z"/><path class="cls-1" d="M69.4,36.38A22.28,22.28,0,1,1,27.13,50.5c-3.9-11.68,8-46.37,8-46.37S65.5,24.71,69.4,36.38Z"/><path class="cls-2" d="M71.34,39.36c-3.31,0-3.59-2.69-3.59-6s.28-6,3.59-6,21.17,6,21.17,6S74.66,39.36,71.34,39.36Z"/><circle class="cls-4" cx="46.35" cy="33.35" r="2.1"/><path class="cls-5" d="M40,57.25c0,23.15-27.35,24-27.35,24s4.45-13.26,4.45-24,5.13-19.47,11.45-19.47S40,46.5,40,57.25Z"/><path class="cls-5" d="M35.66,64.81C29.53,83.26,7.49,76.71,7.49,76.71s7.07-9.39,9.92-18,9.24-14.16,14.28-12.49S38.51,56.24,35.66,64.81Z"/><path class="cls-5" d="M35.66,58.63C29.53,77.08,7.49,70.52,7.49,70.52s7.07-9.39,9.92-18S26.65,38.4,31.69,40.07,38.51,50.05,35.66,58.63Z"/></svg>