<svg id="Layer_1" data-name="Layer 1" xmlns="http://www.w3.org/2000/svg" viewBox="0 0 100 100"><defs><style>.cls-1{fill:#714c48;}.cls-2{fill:#f89e3e;}.cls-3{fill:#faad3f;}.cls-4{fill:#ffc640;}</style></defs><title>jack-o-lantern</title><polyline class="cls-1" points="40.07 23.8 51.55 2.01 62.39 3.21 59.47 32.36"/><rect class="cls-2" y="25.75" width="25.14" height="64.41" rx="5.98" ry="5.98"/><rect class="cls-2" x="74.86" y="25.75" width="25.14" height="64.41" rx="5.98" ry="5.98"/><rect class="cls-3" x="17.34" y="17.93" width="25.14" height="80.06" rx="5.98" ry="5.98"/><rect class="cls-3" x="57.51" y="17.93" width="25.14" height="80.06" rx="5.98" ry="5.98"/><rect class="cls-2" x="37.43" y="17.93" width="25.14" height="80.06" rx="5.98" ry="5.98"/><ellipse class="cls-4" cx="20.59" cy="47.71" rx="15.64" ry="9.6" transform="translate(-19.38 14.51) rotate(-26.94)"/><ellipse class="cls-4" cx="80.27" cy="47.71" rx="9.6" ry="15.64" transform="translate(1.36 97.65) rotate(-63.06)"/><polygon class="cls-4" points="50.47 40.44 42.8 63.44 58.05 63.44 50.47 40.44"/><rect class="cls-4" x="9.59" y="65.63" width="81.15" height="15.6" rx="3.71" ry="3.71"/><rect class="cls-3" x="19.47" y="64.14" width="8.15" height="7.23"/><rect class="cls-3" x="32.42" y="64.14" width="8.15" height="7.23"/><rect class="cls-2" x="37.41" y="64.14" width="3.16" height="7.23"/><rect class="cls-2" x="45.37" y="64.14" width="8.15" height="7.23"/><rect class="cls-3" x="58.31" y="64.14" width="8.15" height="7.23"/><rect class="cls-2" x="58.31" y="64.14" width="4.24" height="7.23"/><rect class="cls-3" x="71.26" y="64.14" width="8.15" height="7.23"/><rect class="cls-3" x="26.37" y="75.71" width="8.15" height="7.23"/><rect class="cls-3" x="13.27" y="75.71" width="8.15" height="7.23"/><rect class="cls-2" x="13.27" y="75.71" width="4.07" height="7.23"/><rect class="cls-2" x="39.32" y="75.71" width="8.15" height="7.23"/><rect class="cls-2" x="52.27" y="75.71" width="8.15" height="7.23"/><rect class="cls-3" x="65.22" y="75.71" width="8.15" height="7.23"/><rect class="cls-3" x="78.16" y="75.71" width="8.15" height="7.23"/><rect class="cls-2" x="82.66" y="75.71" width="3.65" height="7.23"/></svg>