<svg id="Layer_1" data-name="Layer 1" xmlns="http://www.w3.org/2000/svg" viewBox="0 0 100 100"><defs><style>.cls-1{fill:#fff;}.cls-2{fill:#171717;}.cls-3{fill:#ffc63f;}</style></defs><title>bee</title><path class="cls-1" d="M51,9.94c3.73-4.18,7.81-3.8,9.12.85s-.66,11.82-4.39,16S42.92,44.42,42.92,44.42,47.26,14.12,51,9.94Z"/><path class="cls-1" d="M54.67,28.28c3.13.13,5.63,3.41,5.59,7.32s-2.62,7-5.75,6.84S43.16,44,43.16,44,51.53,28.15,54.67,28.28Z"/><path class="cls-2" d="M64.34,73.09c0,3.35-3.84,10.36-3.84,10.36s-3.84-7-3.84-10.36S58.38,67,60.5,67,64.34,69.73,64.34,73.09Z"/><path class="cls-2" d="M59.2,89.56c-2.37,2.37-10,4.61-10,4.61s2.23-7.67,4.61-10,5.51-3.08,7-1.58S61.57,87.19,59.2,89.56Z"/><path class="cls-2" d="M71.35,48.17A2.14,2.14,0,0,1,69.21,46V36.2a2.15,2.15,0,0,1,.63-1.51l7-7a2.15,2.15,0,0,1,3,3L73.5,37.09V46A2.14,2.14,0,0,1,71.35,48.17Z"/><path class="cls-2" d="M82.29,48.17A2.14,2.14,0,0,1,80.15,46V36.2a2.15,2.15,0,0,1,.63-1.51l7-7a2.15,2.15,0,0,1,3,3l-6.34,6.34V46A2.14,2.14,0,0,1,82.29,48.17Z"/><rect class="cls-3" x="9.64" y="39.51" width="55.37" height="41.08" rx="9.09" ry="9.09"/><path class="cls-3" d="M77.69,80.59H70.1a19.08,19.08,0,0,1-19-19h0a19.08,19.08,0,0,1,19-19h7.59a19.08,19.08,0,0,1,19,19l3.28,2.3C100,74.33,88.16,80.59,77.69,80.59Z"/><circle class="cls-2" cx="72.42" cy="56.66" r="2.41"/><circle class="cls-2" cx="93.59" cy="56.66" r="2.41"/><path class="cls-2" d="M13.84,60.05A20.6,20.6,0,0,1,34.38,39.51h-4.2a20.54,20.54,0,0,0,0,41.08h4.2A20.6,20.6,0,0,1,13.84,60.05Z"/><path class="cls-2" d="M21.79,60.05A20.6,20.6,0,0,1,42.33,39.51h-4.2a20.54,20.54,0,0,0,0,41.08h4.2A20.6,20.6,0,0,1,21.79,60.05Z"/><path class="cls-2" d="M17.86,73.09c0,3.35-3.84,10.36-3.84,10.36s-3.84-7-3.84-10.36S11.9,67,14,67,17.86,69.73,17.86,73.09Z"/><path class="cls-2" d="M12.71,89.56c-2.37,2.37-10,4.61-10,4.61s2.24-7.67,4.61-10,5.51-3.08,7-1.58S15.08,87.19,12.71,89.56Z"/><path class="cls-2" d="M32.73,73.09c0,3.35-3.84,10.36-3.84,10.36s-3.84-7-3.84-10.36S26.77,67,28.89,67,32.73,69.73,32.73,73.09Z"/><path class="cls-2" d="M27.58,89.56c-2.37,2.37-10,4.61-10,4.61s2.24-7.67,4.61-10,5.51-3.08,7-1.58S30,87.19,27.58,89.56Z"/><path class="cls-2" d="M47.6,73.09c0,3.35-3.84,10.36-3.84,10.36s-3.84-7-3.84-10.36S41.64,67,43.76,67,47.6,69.73,47.6,73.09Z"/><path class="cls-2" d="M42.45,89.56c-2.37,2.37-10,4.61-10,4.61s2.24-7.67,4.61-10,5.51-3.08,7-1.58S44.82,87.19,42.45,89.56Z"/><path class="cls-1" d="M19,8.73C11.58,4.55,3.42,4.93.81,9.59s1.31,11.82,8.77,16S35.17,43.21,35.17,43.21,26.49,12.92,19,8.73Z"/><path class="cls-1" d="M11.68,27.07C5.42,27.21.41,30.48.49,34.39s5.23,7,11.49,6.84,22.7,1.6,22.7,1.6S17.94,26.94,11.68,27.07Z"/><polyline class="cls-2" points="11.11 54.24 0.49 58.44 11.11 62.19"/></svg>