<svg id="Layer_1" data-name="Layer 1" xmlns="http://www.w3.org/2000/svg" viewBox="0 0 100 100"><defs><style>.cls-1{fill:#447d93;}.cls-2{fill:#6ab8d9;}.cls-3{fill:#f37d3b;}</style></defs><title>butterfly</title><circle class="cls-1" cx="42.27" cy="27.98" r="4.14"/><path class="cls-1" d="M49.75,57.3l-3.68-.21c.55-9.33-4.69-26.44-4.75-26.61l3.52-1.09C45.06,30.12,50.34,47.31,49.75,57.3Z"/><circle class="cls-1" cx="57.69" cy="27.98" r="4.14"/><path class="cls-1" d="M50.21,57.3c-.58-10,4.69-27.18,4.91-27.91l3.52,1.09c-.06.17-5.3,17.28-4.75,26.61Z"/><rect class="cls-1" x="40.6" y="42.53" width="17.76" height="45.51" rx="2.82" ry="2.82"/><path class="cls-2" d="M40.25,82.07c0,6.7-6.3,12.12-14.07,12.12S12.1,88.77,12.1,82.07,36.8,52.61,44.58,52.61,40.25,75.38,40.25,82.07Z"/><path class="cls-2" d="M44.58,52.61c0,9.58-9,17.34-20.14,17.34S4.31,62.19,4.31,52.61s-10.25-46.8.87-46.8S44.58,43,44.58,52.61Z"/><path class="cls-1" d="M17.8,19.26C19.76,22,25.66,35,22.91,37S9.8,29.11,7.84,26.36a6.12,6.12,0,1,1,10-7.1Z"/><path class="cls-1" d="M21.65,81.7c1.89-2.8,12-12.9,14.77-11s-2.72,15-4.61,17.83A6.12,6.12,0,1,1,21.65,81.7Z"/><path class="cls-1" d="M13.06,36.33c2.36.94,11.4,6.76,10.46,9.13S12,45.84,9.64,44.9a4.61,4.61,0,0,1,3.42-8.57Z"/><circle class="cls-1" cx="29.67" cy="42.47" r="4.1"/><circle class="cls-3" cx="15.76" cy="59.61" r="2.92"/><circle class="cls-3" cx="29.67" cy="60.02" r="6.08"/><path class="cls-2" d="M59.75,82.07c0,6.7,6.3,12.12,14.07,12.12S87.9,88.77,87.9,82.07,63.2,52.61,55.42,52.61,59.75,75.38,59.75,82.07Z"/><path class="cls-2" d="M55.42,52.61c0,9.58,9,17.34,20.14,17.34s20.13-7.76,20.13-17.34,10.25-46.8-.87-46.8S55.42,43,55.42,52.61Z"/><path class="cls-1" d="M82.2,19.26C80.24,22,74.34,35,77.09,37S90.2,29.11,92.16,26.36a6.12,6.12,0,1,0-10-7.1Z"/><path class="cls-1" d="M78.35,81.7c-1.89-2.8-12-12.9-14.77-11s2.72,15,4.61,17.83A6.12,6.12,0,0,0,78.35,81.7Z"/><path class="cls-1" d="M86.94,36.33c-2.36.94-11.4,6.76-10.46,9.13s11.51.38,13.88-.56a4.61,4.61,0,0,0-3.42-8.57Z"/><circle class="cls-1" cx="70.33" cy="42.47" r="4.1"/><circle class="cls-3" cx="84.24" cy="59.61" r="2.92"/><circle class="cls-3" cx="70.33" cy="60.02" r="6.08"/></svg>