<svg id="Layer_1" data-name="Layer 1" xmlns="http://www.w3.org/2000/svg" viewBox="0 0 100 100"><defs><style>.cls-1{fill:#ffc640;}.cls-2{fill:#e2b13a;}.cls-3{fill:#fff;}.cls-4{fill:#171717;}</style></defs><title>beehive</title><path class="cls-1" d="M75.71,24.2c0,4.07-10.46,7.36-23.36,7.36S29,28.27,29,24.2,52.35,9.08,52.35,9.08,75.71,20.14,75.71,24.2Z"/><path class="cls-1" d="M29,89.61c0-4.07,10.46-7.36,23.37-7.36s23.36,3.29,23.36,7.36S59.3,97,52.35,97,29,93.67,29,89.61Z"/><rect class="cls-1" x="17.12" y="21.38" width="68.99" height="20.36" rx="4.34" ry="4.34"/><rect class="cls-1" x="13.17" y="37.93" width="75.41" height="20.36" rx="4.34" ry="4.34"/><rect class="cls-1" x="13.17" y="54.49" width="75.41" height="20.36" rx="4.34" ry="4.34"/><rect class="cls-1" x="17.12" y="71.04" width="68.99" height="20.36" rx="4.34" ry="4.34"/><polygon class="cls-2" points="36.51 43.5 29.68 43.5 26.26 49.41 29.68 55.33 36.51 55.33 39.92 49.41 36.51 43.5"/><polygon class="cls-2" points="48.14 36.53 41.31 36.53 37.9 42.45 41.31 48.36 48.14 48.36 51.55 42.45 48.14 36.53"/><polygon class="cls-2" points="61.8 57.69 54.97 57.69 51.55 63.61 54.97 69.52 61.8 69.52 65.21 63.61 61.8 57.69"/><polygon class="cls-2" points="36.51 29.88 29.68 29.88 26.26 35.8 29.68 41.71 36.51 41.71 39.92 35.8 36.51 29.88"/><rect class="cls-1" x="85.64" y="3.99" width="8.59" height="15.17" rx="1.83" ry="1.83" transform="translate(34.52 -60.2) rotate(45)"/><ellipse class="cls-3" cx="96.17" cy="17.73" rx="3.06" ry="4.47" transform="translate(15.63 73.2) rotate(-45)"/><ellipse class="cls-3" cx="83.77" cy="5.34" rx="3.06" ry="4.47" transform="translate(20.76 60.8) rotate(-45)"/><path class="cls-4" d="M83.91,11.75a4.27,4.27,0,0,0,5.84,5.85Z"/><rect class="cls-4" x="88" y="8.44" width="1.54" height="8.59" transform="translate(17 66.5) rotate(-45)"/><rect class="cls-1" x="11.22" y="6.78" width="6.4" height="11.29" rx="1.36" ry="1.36" transform="translate(-4.43 9.78) rotate(-32.77)"/><ellipse class="cls-3" cx="19.88" cy="8.86" rx="3.33" ry="2.28" transform="translate(-1.63 12.17) rotate(-32.77)"/><ellipse class="cls-3" cx="8.91" cy="15.92" rx="3.33" ry="2.28" transform="translate(-7.2 7.35) rotate(-32.77)"/><path class="cls-4" d="M13.6,16.84a3.18,3.18,0,0,0,5.17-3.33Z"/><rect class="cls-4" x="11.88" y="12.88" width="6.4" height="1.14" transform="translate(-4.88 10.3) rotate(-32.77)"/><rect class="cls-1" x="7.82" y="74.67" width="11.65" height="20.56" rx="2.49" ry="2.49" transform="translate(-56.07 34.53) rotate(-45)"/><ellipse class="cls-3" cx="22" cy="76.5" rx="6.06" ry="4.15" transform="translate(-47.65 37.96) rotate(-45)"/><ellipse class="cls-3" cx="5.19" cy="93.3" rx="6.06" ry="4.15" transform="translate(-64.45 31) rotate(-45)"/><path class="cls-4" d="M13.89,93.12a5.79,5.79,0,0,0,7.93-7.93Z"/><rect class="cls-4" x="9.4" y="85.48" width="11.65" height="2.09" transform="translate(-56.72 36.11) rotate(-45)"/></svg>