<svg id="Layer_1" data-name="Layer 1" xmlns="http://www.w3.org/2000/svg" viewBox="0 0 100 100"><defs><style>.cls-1{fill:#bcd2de;}.cls-2{fill:#faaf40;}.cls-3{fill:#ffc640;}.cls-4{fill:#f37d3b;}.cls-5{fill:#ffc63f;}</style></defs><title>honey</title><path class="cls-1" d="M88,40.51A30.85,30.85,0,0,0,57.26,9.75H42.74A30.85,30.85,0,0,0,12,40.51v28H88Z"/><path class="cls-2" d="M12,52.63V69.24A30.85,30.85,0,0,0,42.74,100H57.26A30.85,30.85,0,0,0,88,69.24V52.63Z"/><rect class="cls-1" x="14.75" y="7.82" width="70.71" height="11.75" rx="2.29" ry="2.29"/><circle class="cls-3" cx="43.38" cy="11.56" r="6.62"/><circle class="cls-3" cx="54.19" cy="11.91" r="8.46"/><circle class="cls-3" cx="59.73" cy="20.37" r="5.7"/><circle class="cls-3" cx="53.32" cy="22.06" r="5.7"/><path class="cls-3" d="M57.94,37.73a4.62,4.62,0,0,1-9.23,0c0-2.55,4.61-10,4.61-10S57.94,35.18,57.94,37.73Z"/><circle class="cls-3" cx="62.9" cy="6.89" r="4.78"/><circle class="cls-3" cx="72.46" cy="7.58" r="7.02"/><rect class="cls-4" x="16.62" width="66.97" height="7.85" rx="1.53" ry="1.53"/><ellipse class="cls-5" cx="50" cy="52.23" rx="38.02" ry="6.49"/></svg>