<svg id="Layer_1" data-name="Layer 1" xmlns="http://www.w3.org/2000/svg" viewBox="0 0 100 100"><defs><style>.cls-1{fill:#de9438;}.cls-2{fill:#faab3e;}.cls-3{fill:#ffc63f;}</style></defs><title>wax</title><polygon class="cls-1" points="24.67 33.78 12.43 33.78 6.3 44.38 12.43 54.99 24.67 54.99 30.79 44.38 24.67 33.78"/><path class="cls-2" d="M24.67,61.29H12.42A6.28,6.28,0,0,1,7,58.14L.84,47.53a6.33,6.33,0,0,1,0-6.3L7,30.63a6.28,6.28,0,0,1,5.45-3.15H24.67a6.31,6.31,0,0,1,5.46,3.15l6.12,10.6a6.28,6.28,0,0,1,0,6.3L30.13,58.14A6.31,6.31,0,0,1,24.67,61.29ZM16.06,48.68h5l2.48-4.3L21,40.08h-5l-2.48,4.3Z"/><polygon class="cls-1" points="45.53 21.29 33.28 21.29 27.16 31.89 33.28 42.5 45.53 42.5 51.65 31.89 45.53 21.29"/><path class="cls-2" d="M45.53,48.8H33.28a6.31,6.31,0,0,1-5.46-3.15L21.7,35a6.33,6.33,0,0,1,0-6.3l6.12-10.6A6.31,6.31,0,0,1,33.28,15H45.53A6.31,6.31,0,0,1,51,18.14l6.12,10.6a6.33,6.33,0,0,1,0,6.3L51,45.65A6.31,6.31,0,0,1,45.53,48.8ZM36.92,36.19h5l2.48-4.3-2.48-4.3h-5l-2.48,4.3Z"/><polygon class="cls-1" points="24.67 9.36 12.43 9.36 6.3 19.97 12.43 30.57 24.67 30.57 30.79 19.97 24.67 9.36"/><path class="cls-2" d="M24.67,36.87H12.42A6.28,6.28,0,0,1,7,33.72L.84,23.12a6.33,6.33,0,0,1,0-6.3L7,6.21a6.28,6.28,0,0,1,5.45-3.15H24.67a6.31,6.31,0,0,1,5.46,3.15l6.12,10.61a6.28,6.28,0,0,1,0,6.3l-6.12,10.6A6.31,6.31,0,0,1,24.67,36.87Zm-8.61-12.6h5L23.51,20,21,15.67h-5L13.58,20Z"/><polygon class="cls-1" points="45.86 69.71 33.62 69.71 27.49 80.31 33.62 90.92 45.86 90.92 51.98 80.31 45.86 69.71"/><path class="cls-2" d="M45.86,97.22H33.61a6.31,6.31,0,0,1-5.46-3.15L22,83.47a6.35,6.35,0,0,1,0-6.31l6.12-10.6a6.31,6.31,0,0,1,5.46-3.15H45.86a6.31,6.31,0,0,1,5.46,3.15l6.12,10.6a6.3,6.3,0,0,1,0,6.31l-6.12,10.6A6.31,6.31,0,0,1,45.86,97.22Zm-8.61-12.6h5l2.48-4.31L42.22,76h-5l-2.48,4.3Z"/><polygon class="cls-1" points="66.72 57.22 54.47 57.22 48.35 67.83 54.47 78.43 66.72 78.43 72.84 67.83 66.72 57.22"/><path class="cls-2" d="M66.72,84.73H54.47A6.31,6.31,0,0,1,49,81.58L42.89,71a6.35,6.35,0,0,1,0-6.31L49,54.07a6.31,6.31,0,0,1,5.46-3.15H66.72a6.31,6.31,0,0,1,5.46,3.15l6.12,10.6a6.35,6.35,0,0,1,0,6.31l-6.12,10.6A6.31,6.31,0,0,1,66.72,84.73Zm-8.61-12.6h5l2.48-4.31-2.48-4.3h-5l-2.48,4.3Z"/><polygon class="cls-1" points="45.86 45.3 33.62 45.3 27.49 55.9 33.62 66.5 45.86 66.5 51.98 55.9 45.86 45.3"/><path class="cls-2" d="M45.86,72.8H33.61a6.31,6.31,0,0,1-5.46-3.15L22,59.05a6.33,6.33,0,0,1,0-6.3l6.12-10.61A6.31,6.31,0,0,1,33.61,39H45.86a6.31,6.31,0,0,1,5.46,3.15l6.12,10.61a6.28,6.28,0,0,1,0,6.3l-6.12,10.6A6.31,6.31,0,0,1,45.86,72.8ZM37.25,60.2h5l2.48-4.3-2.48-4.3h-5l-2.48,4.3Z"/><polygon class="cls-1" points="66.72 33.5 54.47 33.5 48.35 44.1 54.47 54.7 66.72 54.7 72.84 44.1 66.72 33.5"/><path class="cls-2" d="M66.72,61H54.47A6.31,6.31,0,0,1,49,57.86L42.89,47.25a6.33,6.33,0,0,1,0-6.3L49,30.35a6.31,6.31,0,0,1,5.46-3.15H66.72a6.31,6.31,0,0,1,5.46,3.15L78.3,41a6.33,6.33,0,0,1,0,6.3L72.18,57.86A6.31,6.31,0,0,1,66.72,61ZM58.11,48.4h5l2.48-4.3-2.48-4.3h-5l-2.48,4.3Z"/><polygon class="cls-1" points="87.58 21.01 75.33 21.01 69.21 31.61 75.33 42.22 87.58 42.22 93.7 31.61 87.58 21.01"/><path class="cls-2" d="M87.58,48.52H75.33a6.31,6.31,0,0,1-5.46-3.15L63.75,34.76a6.28,6.28,0,0,1,0-6.3l6.12-10.6a6.32,6.32,0,0,1,5.46-3.16H87.58A6.29,6.29,0,0,1,93,17.86l6.13,10.6a6.33,6.33,0,0,1,0,6.3L93,45.37A6.28,6.28,0,0,1,87.58,48.52ZM79,35.91h5l2.48-4.3-2.48-4.3H79l-2.48,4.3Z"/><polygon class="cls-1" points="66.72 9.08 54.47 9.08 48.35 19.68 54.47 30.29 66.72 30.29 72.84 19.68 66.72 9.08"/><path class="cls-2" d="M66.72,36.59H54.47A6.31,6.31,0,0,1,49,33.44l-6.12-10.6a6.35,6.35,0,0,1,0-6.31L49,5.93a6.31,6.31,0,0,1,5.46-3.15H66.72a6.31,6.31,0,0,1,5.46,3.15l6.12,10.6a6.35,6.35,0,0,1,0,6.31l-6.12,10.6A6.31,6.31,0,0,1,66.72,36.59ZM58.11,24h5l2.48-4.3-2.48-4.31h-5l-2.48,4.31Z"/><polygon class="cls-3" points="24.67 33.78 12.43 33.78 6.3 44.38 12.43 54.99 24.67 54.99 30.79 44.38 24.67 33.78"/><polygon class="cls-3" points="45.53 21.29 33.28 21.29 27.16 31.89 33.28 42.5 45.53 42.5 51.65 31.89 45.53 21.29"/><polygon class="cls-3" points="24.67 9.36 12.43 9.36 6.3 19.97 12.43 30.57 24.67 30.57 30.79 19.97 24.67 9.36"/><polygon class="cls-3" points="45.86 69.71 33.62 69.71 27.49 80.31 33.62 90.92 45.86 90.92 51.98 80.31 45.86 69.71"/><polygon class="cls-3" points="66.72 57.22 54.47 57.22 48.35 67.83 54.47 78.43 66.72 78.43 72.84 67.83 66.72 57.22"/><polygon class="cls-3" points="45.86 45.3 33.62 45.3 27.49 55.9 33.62 66.5 45.86 66.5 51.98 55.9 45.86 45.3"/><polygon class="cls-3" points="66.72 33.5 54.47 33.5 48.35 44.1 54.47 54.7 66.72 54.7 72.84 44.1 66.72 33.5"/><polygon class="cls-3" points="87.58 21.01 75.33 21.01 69.21 31.61 75.33 42.22 87.58 42.22 93.7 31.61 87.58 21.01"/><polygon class="cls-3" points="66.72 9.08 54.47 9.08 48.35 19.68 54.47 30.29 66.72 30.29 72.84 19.68 66.72 9.08"/></svg>