<svg id="Layer_1" data-name="Layer 1" xmlns="http://www.w3.org/2000/svg" viewBox="0 0 100 100"><defs><style>.cls-1{fill:#fff;}.cls-2{fill:#ffc63f;}.cls-3{fill:#714c48;}</style></defs><title>candle</title><rect class="cls-1" x="33.72" y="28.32" width="18.3" height="67.61" rx="4.15" ry="4.15"/><path class="cls-2" d="M53.4,19a10,10,0,0,1-20,0c0-5.53,10-19,10-19S53.4,13.44,53.4,19Z"/><rect class="cls-1" x="33.72" y="23.41" width="4.21" height="15.7" rx="0.95" ry="0.95"/><rect class="cls-1" x="37.51" y="26.3" width="4.21" height="15.7" rx="0.95" ry="0.95"/><path class="cls-1" d="M56,47.13a4,4,0,1,1-8,0c0-2.22,4-10.28,4-10.28S56,44.91,56,47.13Z"/><path class="cls-1" d="M39.84,65.62a4,4,0,0,1-8,0c0-2.22,4-10.29,4-10.29S39.84,63.4,39.84,65.62Z"/><ellipse class="cls-1" cx="34.13" cy="88.41" rx="9.38" ry="6.16"/><circle class="cls-1" cx="51.72" cy="86.78" r="4.99"/><rect class="cls-3" x="11.6" y="86.02" width="63.82" height="13.98" rx="3.17" ry="3.17"/><path class="cls-3" d="M77.63,94.19A10.77,10.77,0,1,1,88.4,83.42,10.79,10.79,0,0,1,77.63,94.19Zm0-16.71a5.94,5.94,0,1,0,5.94,5.94A5.95,5.95,0,0,0,77.63,77.48Z"/></svg>