<svg id="Layer_1" data-name="Layer 1" xmlns="http://www.w3.org/2000/svg" viewBox="0 0 100 100"><defs><style>.cls-1{fill:#09a582;}.cls-2{fill:#e2ddb9;}.cls-3{fill:#ffc63f;}.cls-4{fill:#fffacf;}</style></defs><title>water lily</title><path class="cls-1" d="M37.32,65c13.21,0-.75-2.82-.75-6.3s14-6.3.75-6.3S0,55.22,0,58.7,24.11,65,37.32,65Z"/><path class="cls-1" d="M62.68,65c-13.21,0,.75-2.82.75-6.3s-14-6.3-.75-6.3S100,55.22,100,58.7,75.89,65,62.68,65Z"/><path class="cls-1" d="M68.3,54.47c0-9.22-9,.52-20,.52s-20-9.74-20-.52,9,26,20.05,26S68.3,63.69,68.3,54.47Z"/><path class="cls-2" d="M36.41,48.91c0,5.47,5.3,9.91,11.84,9.91S60.1,54.38,60.1,48.91,54.8,24.54,48.25,24.54,36.41,43.44,36.41,48.91Z"/><path class="cls-2" d="M26.6,50.82c2.11,5,8.72,7.09,14.76,4.57s9.22-8.66,7.11-13.71S34.17,21.24,28.14,23.77,24.49,45.77,26.6,50.82Z"/><path class="cls-2" d="M50.16,44.72C48.33,49.87,51.85,55.83,58,58s12.65-.22,14.48-5.38,3.14-24.74-3-26.92S52,39.56,50.16,44.72Z"/><rect class="cls-3" x="32.12" y="28.11" width="3.48" height="25.58" rx="0.83" ry="0.83"/><rect class="cls-3" x="36.71" y="25.87" width="3.48" height="25.58" rx="0.83" ry="0.83"/><rect class="cls-3" x="43.6" y="29.37" width="3.48" height="25.58" rx="0.83" ry="0.83"/><rect class="cls-3" x="49.77" y="23.49" width="3.48" height="25.58" rx="0.83" ry="0.83"/><rect class="cls-3" x="55.25" y="26.97" width="3.48" height="25.58" rx="0.83" ry="0.83"/><rect class="cls-3" x="60.1" y="29.37" width="3.48" height="25.58" rx="0.83" ry="0.83"/><path class="cls-4" d="M80.82,57.21C86.17,50.42,95.29,34.5,91.19,30.4c-4.3-4.3-21.5,5.89-27.64,11.08C61.4,36,58.4,31.11,55.08,31.11c-2.82,0-5.41,3.52-7.44,8-2-4.44-4.62-8-7.45-8s-5.31,3.4-7.33,7.72C25.23,33.52,12.34,26.76,8.71,30.4,4.55,34.56,14,50.84,19.29,57.46,30,60.28,51.41,63.65,80.82,57.21Z"/><ellipse class="cls-4" cx="23.4" cy="56.47" rx="6.25" ry="12.47" transform="translate(-37.01 65.85) rotate(-76.32)"/><ellipse class="cls-4" cx="47.35" cy="59.01" rx="14.49" ry="5.33"/><ellipse class="cls-4" cx="71.56" cy="57.25" rx="12.47" ry="6.25" transform="translate(-9.6 14.68) rotate(-10.98)"/></svg>