<svg id="Layer_1" data-name="Layer 1" xmlns="http://www.w3.org/2000/svg" viewBox="0 0 100 100"><defs><style>.cls-1{fill:#87acbe;}.cls-2{fill:#9dc8dc;}.cls-3{fill:#171717;}</style></defs><title>hippo</title><rect class="cls-1" x="53.09" y="53.09" width="9.1" height="24.1" rx="2.17" ry="2.17"/><rect class="cls-1" x="22.86" y="49.35" width="9.1" height="24.1" rx="2.17" ry="2.17"/><circle class="cls-2" cx="96.69" cy="54.03" r="2.43"/><circle class="cls-3" cx="83.36" cy="38.2" r="1.32"/><circle class="cls-2" cx="81.22" cy="39.52" r="2.87"/><path class="cls-2" d="M76.17,70.22l-9.86-5.69A16.11,16.11,0,0,1,60.43,42.6h0c4.42-7.65,12.5-11.28,20.15-6.86l10.6,12.38c7.65,4.42,11.34,8.57,6.92,16.22h0A16.1,16.1,0,0,1,76.17,70.22Z"/><path class="cls-2" d="M85.32,44c0,14.46-44.65,26.19-59.12,26.19a26.2,26.2,0,1,1,0-52.39C40.67,17.81,85.32,29.54,85.32,44Z"/><path class="cls-2" d="M77.92,32a2.22,2.22,0,0,1-3.39-2.88c.8-.93,2.21-3.19,3.15-2.39S78.71,31,77.92,32Z"/><path class="cls-2" d="M71,33a2.22,2.22,0,1,1-3.38-2.87c.79-.93,2.2-3.19,3.14-2.4S71.83,32.11,71,33Z"/><path class="cls-2" d="M67.77,32.29a3.77,3.77,0,0,1-7.53.54c-.15-2.08-1.11-6.5,1-6.65S67.62,30.21,67.77,32.29Z"/><circle class="cls-3" cx="74.01" cy="42.07" r="1.32"/><circle class="cls-1" cx="88.9" cy="58.83" r="1.29"/><circle class="cls-1" cx="97.14" cy="53.79" r="0.94"/><rect class="cls-2" x="9.1" y="54.35" width="9.1" height="24.1" rx="2.17" ry="2.17"/><rect class="cls-2" x="39.33" y="58.09" width="9.1" height="24.1" rx="2.17" ry="2.17"/><path class="cls-1" d="M70.31,32.41a1.27,1.27,0,1,1-1.94-1.65c.46-.53,1.27-1.83,1.8-1.37A3.23,3.23,0,0,1,70.31,32.41Z"/></svg>