<svg id="Layer_1" data-name="Layer 1" xmlns="http://www.w3.org/2000/svg" viewBox="0 0 100 100"><defs><style>.cls-1{fill:#f37d3b;}.cls-2{fill:#3e3e3f;}.cls-3{fill:#faad3f;}.cls-4{fill:#ffc63f;}</style></defs><title>phoenix</title><polygon class="cls-1" points="40.17 82.7 60.7 82.7 50.44 57.93 40.17 82.7"/><circle class="cls-2" cx="30.01" cy="30.5" r="4.39"/><circle class="cls-2" cx="5.7" cy="29.54" r="3.5"/><path class="cls-3" d="M.85,40.21c1.32,3,12.42,8.55,21.21,4.75S45.44,38,45.22,38c-15.63-2.17-35-19.85-35-19.85S-.47,37.17.85,40.21Z"/><path class="cls-1" d="M8,15.59a2.55,2.55,0,0,1-5.09,0c0-1.41,2.55-5.15,2.55-5.15S8,14.18,8,15.59Z"/><path class="cls-1" d="M30.48,35.94a4.86,4.86,0,0,1-9.72,0c0-2.68,4.86-9.83,4.86-9.83S30.48,33.26,30.48,35.94Z"/><path class="cls-1" d="M2.87,35.27a1.44,1.44,0,0,1-2.87,0c0-.79,1.44-2.9,1.44-2.9S2.87,34.48,2.87,35.27Z"/><circle class="cls-2" cx="11.46" cy="28.01" r="3.5"/><circle class="cls-2" cx="4.62" cy="31.14" r="1.91"/><circle class="cls-2" cx="14.44" cy="24.25" r="2.33"/><circle class="cls-2" cx="20.04" cy="20.12" r="4.39"/><circle class="cls-2" cx="34.75" cy="34.54" r="3.05"/><circle class="cls-2" cx="22.06" cy="16.01" r="1.3"/><circle class="cls-2" cx="30.52" cy="23.47" r="1.3"/><circle class="cls-2" cx="36.88" cy="17.11" r="1.3"/><circle class="cls-2" cx="18.77" cy="12.92" r="2"/><circle class="cls-2" cx="11.6" cy="9.44" r="0.63"/><circle class="cls-2" cx="11.38" cy="19.98" r="1.27"/><circle class="cls-2" cx="15.65" cy="15.26" r="0.89"/><circle class="cls-2" cx="60.7" cy="34.89" r="4.26"/><circle class="cls-2" cx="81.23" cy="25.76" r="4.39"/><circle class="cls-2" cx="71.42" cy="33.46" r="4.39"/><circle class="cls-2" cx="94.3" cy="29.54" r="3.5"/><path class="cls-3" d="M99.15,40.21c-1.32,3-12.42,8.55-21.21,4.75S54.56,38,54.78,38c15.63-2.17,35-19.85,35-19.85S100.47,37.17,99.15,40.21Z"/><path class="cls-1" d="M70.42,23.22a2.55,2.55,0,0,0,5.09,0c0-1.41-2.54-5.15-2.54-5.15S70.42,21.81,70.42,23.22Z"/><path class="cls-1" d="M60.33,39.19a4.86,4.86,0,0,0,9.72,0c0-2.69-4.86-9.83-4.86-9.83S60.33,36.5,60.33,39.19Z"/><path class="cls-1" d="M97.13,35.27a1.44,1.44,0,0,0,2.87,0c0-.79-1.44-2.9-1.44-2.9S97.13,34.48,97.13,35.27Z"/><circle class="cls-2" cx="88.54" cy="28.01" r="3.5"/><circle class="cls-2" cx="95.38" cy="31.14" r="1.91"/><circle class="cls-2" cx="85.56" cy="24.25" r="2.33"/><circle class="cls-2" cx="77.94" cy="16.01" r="1.3"/><circle class="cls-2" cx="67.64" cy="24.25" r="1.3"/><circle class="cls-2" cx="63.12" cy="28.01" r="1.3"/><circle class="cls-2" cx="93.47" cy="17.78" r="2"/><circle class="cls-2" cx="94.3" cy="7.34" r="0.63"/><circle class="cls-2" cx="88.62" cy="19.98" r="1.27"/><circle class="cls-2" cx="84.35" cy="15.26" r="0.89"/><polyline class="cls-4" points="54.11 25.48 59.16 10.72 50.29 24.17"/><polyline class="cls-4" points="53.77 25.25 67.64 18.1 55.62 28.84"/><path class="cls-1" d="M63.71,46.35c0,7.41-13.42,29.38-13.42,29.38s-13.41-22-13.41-29.38a13.42,13.42,0,0,1,26.83,0Z"/><circle class="cls-1" cx="50.29" cy="29.16" r="8.85"/><path class="cls-2" d="M49.88,26.58c0,1.08-.88,4-2,4s-2-2.93-2-4a2,2,0,0,1,3.93,0Z"/><circle class="cls-4" cx="47.78" cy="26.43" r="0.95"/><path class="cls-1" d="M44.4,17.1h2.71a2.76,2.76,0,0,1,2.76,2.76v2.71a0,0,0,0,1,0,0H44.4a0,0,0,0,1,0,0V17.1A0,0,0,0,1,44.4,17.1Z" transform="translate(-3.93 22.58) rotate(-25.9)"/><path class="cls-1" d="M41,19.39h2.71a2.76,2.76,0,0,1,2.76,2.76v2.71a0,0,0,0,1,0,0H41a0,0,0,0,1,0,0V19.39A0,0,0,0,1,41,19.39Z" transform="translate(2.72 48.96) rotate(-60)"/><path class="cls-1" d="M38.16,23.38h2.71a2.76,2.76,0,0,1,2.76,2.76v2.71a0,0,0,0,1,0,0H38.16a0,0,0,0,1,0,0V23.38A0,0,0,0,1,38.16,23.38Z" transform="translate(7.21 61.04) rotate(-78.59)"/><path class="cls-1" d="M38,28.41h2.71a2.76,2.76,0,0,1,2.76,2.76v2.71a0,0,0,0,1,0,0H38a0,0,0,0,1,0,0V28.41A0,0,0,0,1,38,28.41Z" transform="translate(17.16 76.69) rotate(-99.98)"/><path class="cls-1" d="M57.9,39s18.58,3.54,27.21-14.38c0,0,19.47,9.07,13,30.75,0,0,4.73-11.5-43.43-3.1"/><path class="cls-1" d="M99.07,51.36c0,2.89-5.22,15.52-5.22,15.52s-5.23-12.63-5.23-15.52a5.23,5.23,0,1,1,10.45,0Z"/><path class="cls-1" d="M91.82,50.17c0,2.34-4.23,12.55-4.23,12.55s-4.22-10.21-4.22-12.55a4.23,4.23,0,0,1,8.45,0Z"/><path class="cls-1" d="M85.84,47.74c0,2.33-4.22,12.54-4.22,12.54s-4.23-10.21-4.23-12.54a4.23,4.23,0,1,1,8.45,0Z"/><path class="cls-1" d="M79.87,46c0,2.33-4.23,12.54-4.23,12.54S71.42,48.3,71.42,46a4.23,4.23,0,1,1,8.45,0Z"/><path class="cls-1" d="M73.65,45.39c0,2.33-4.23,12.54-4.23,12.54s-4.23-10.21-4.23-12.54a4.23,4.23,0,0,1,8.46,0Z"/><path class="cls-1" d="M67.64,49.18c0,2.34-4.23,12.55-4.23,12.55s-4.23-10.21-4.23-12.55a4.23,4.23,0,0,1,8.46,0Z"/><path class="cls-1" d="M42.05,39S23.46,42.54,14.83,24.62c0,0-19.47,9.07-13,30.75,0,0-4.73-11.5,43.44-3.1"/><path class="cls-1" d="M.87,51.36c0,2.89,5.22,15.52,5.22,15.52s5.23-12.63,5.23-15.52a5.23,5.23,0,1,0-10.45,0Z"/><path class="cls-1" d="M8.12,50.17c0,2.34,4.23,12.55,4.23,12.55s4.23-10.21,4.23-12.55a4.23,4.23,0,0,0-8.46,0Z"/><path class="cls-1" d="M14.1,47.74c0,2.33,4.22,12.54,4.22,12.54s4.23-10.21,4.23-12.54a4.23,4.23,0,1,0-8.45,0Z"/><path class="cls-1" d="M20.07,46c0,2.33,4.23,12.54,4.23,12.54S28.52,48.3,28.52,46a4.23,4.23,0,1,0-8.45,0Z"/><path class="cls-1" d="M26.29,45.39c0,2.33,4.23,12.54,4.23,12.54s4.23-10.21,4.23-12.54a4.23,4.23,0,1,0-8.46,0Z"/><path class="cls-1" d="M32.31,49.18c0,2.34,4.22,12.55,4.22,12.55s4.23-10.21,4.23-12.55a4.23,4.23,0,0,0-8.45,0Z"/><path class="cls-4" d="M56.75,47.77c0,4.67-6.46,18.5-6.46,18.5s-6.46-13.83-6.46-18.5,2.89-8.45,6.46-8.45S56.75,43.1,56.75,47.77Z"/><path class="cls-1" d="M40.17,83.14c0,1.89,3.42,10.16,3.42,10.16S47,85,47,83.14a3.42,3.42,0,1,0-6.84,0Z"/><path class="cls-1" d="M47,83.14C47,85,50.44,93.3,50.44,93.3S53.86,85,53.86,83.14a3.43,3.43,0,0,0-6.85,0Z"/><path class="cls-1" d="M53.86,83.14c0,1.89,3.42,10.16,3.42,10.16S60.7,85,60.7,83.14a3.42,3.42,0,0,0-6.84,0Z"/></svg>