<svg id="Layer_1" data-name="Layer 1" xmlns="http://www.w3.org/2000/svg" viewBox="0 0 100 100"><defs><style>.cls-1{fill:#e5b88b;}.cls-2{fill:#fcca98;}.cls-3{fill:#bf9b77;}.cls-4{fill:#3e3e3f;}.cls-5{fill:#f37d3b;}.cls-6{fill:#ffc640;}.cls-7{fill:#6ab8d9;}</style></defs><title>pinocchio</title><rect class="cls-1" x="28.32" y="52.65" width="7.06" height="11.47" rx="1.55" ry="1.55"/><rect class="cls-2" x="38.75" y="62.82" width="22.11" height="7.53" rx="1.66" ry="1.66" transform="translate(-21.04 23.06) rotate(-21.64)"/><rect class="cls-2" x="48.41" y="53.33" width="22.11" height="7.53" rx="1.66" ry="1.66" transform="translate(-16.53 89.05) rotate(-66.64)"/><circle class="cls-3" cx="56.04" cy="64.11" r="1.59"/><circle class="cls-2" cx="31.85" cy="34.27" r="22.82"/><rect class="cls-2" x="41.84" y="30.77" width="56.01" height="10.23" rx="2.25" ry="2.25"/><circle class="cls-4" cx="30.62" cy="30.32" r="2.13"/><rect class="cls-5" x="16.7" y="58.33" width="29.69" height="38.92" rx="6.53" ry="6.53"/><rect class="cls-2" x="4.42" y="69.56" width="22.11" height="7.53" rx="1.66" ry="1.66" transform="translate(81.13 109.47) rotate(130.75)"/><rect class="cls-2" x="0.26" y="82.45" width="22.11" height="7.53" rx="1.66" ry="1.66" transform="matrix(0.07, 1, -1, 0.07, 96.45, 68.54)"/><circle class="cls-3" cx="10.85" cy="79.37" r="1.59"/><circle class="cls-2" cx="10.42" cy="39.83" r="6.78"/><path class="cls-4" d="M42.65,22.15S57.9,11,40,12.3,7,27,7,27l13.54,9.85.38-13.54L37.63,16S49,11.36,42.65,22.15Z"/><path class="cls-6" d="M7.11,29.63s23-18.75,40.13-20.38c0,0-26.21-10.65-31.6-9.09A25.77,25.77,0,0,0,6,6S2.28,19.48,7.11,29.63Z"/><polygon class="cls-6" points="5.48 33.04 2.14 23.1 47.24 6.2 50.23 12.45 5.48 33.04"/><path class="cls-7" d="M43,81.91v0H40v0H28.92v0H25.65v0H16.7v.49a14.85,14.85,0,1,0,29.69,0v-.49Z"/><path class="cls-7" d="M25.65,59.56V81.91h3.27V58.58A14.9,14.9,0,0,0,25.65,59.56Z"/><path class="cls-7" d="M40,61V81.91h3V63.78A15.11,15.11,0,0,0,40,61Z"/><path class="cls-2" d="M59.08,79.16a3.77,3.77,0,0,0-5.3-.52l-9.36,7.69,5.35,5.34,8.79-7.21A3.78,3.78,0,0,0,59.08,79.16Z"/><rect class="cls-2" x="49.7" y="83.42" width="22.11" height="7.53" rx="1.66" ry="1.66" transform="translate(89.59 -15.1) rotate(50.61)"/><rect class="cls-2" x="27.26" y="84.97" width="22.11" height="7.53" rx="1.66" ry="1.66" transform="translate(-47.6 44.47) rotate(-39.39)"/><path class="cls-7" d="M30.29,90.45a3.77,3.77,0,1,0,4.78,5.82l5.8-4.76-4.66-5.92Z"/><rect class="cls-2" x="37.49" y="85.98" width="22.11" height="7.53" rx="1.66" ry="1.66" transform="translate(87.1 -4.72) rotate(50.61)"/><circle class="cls-3" cx="43.73" cy="84.29" r="1.59"/><circle class="cls-3" cx="56.04" cy="82.3" r="1.59"/></svg>