<svg id="Layer_1" data-name="Layer 1" xmlns="http://www.w3.org/2000/svg" viewBox="0 0 100 100"><defs><style>.cls-1{fill:#09a582;}.cls-2{fill:#fff;}.cls-3{fill:#ffc640;}.cls-4{fill:#6ab8d9;}.cls-5{fill:#f37d3b;}.cls-6{fill:#069172;}.cls-7{fill:#bf9b77;}.cls-8{fill:#91775a;}</style></defs><title>wrapping paper</title><path class="cls-1" d="M99.26,11.82A7.89,7.89,0,0,0,91.39,4H13a7.89,7.89,0,0,0-7.87,7.86V90.23A7.89,7.89,0,0,0,13,98.1H74.88L99.26,73.72Z"/><circle class="cls-2" cx="40.18" cy="11.27" r="1.78"/><circle class="cls-2" cx="40.18" cy="18.68" r="1.78"/><circle class="cls-2" cx="43.88" cy="14.97" r="1.78"/><circle class="cls-2" cx="36.47" cy="14.97" r="1.78"/><circle class="cls-2" cx="42.8" cy="12.35" r="1.78"/><circle class="cls-2" cx="37.56" cy="17.59" r="1.78"/><circle class="cls-2" cx="42.8" cy="17.59" r="1.78"/><circle class="cls-2" cx="37.56" cy="12.35" r="1.78"/><rect class="cls-2" x="37.03" y="11.83" width="6.13" height="6.13"/><circle class="cls-3" cx="40.18" cy="14.97" r="1.78"/><circle class="cls-2" cx="63.48" cy="11.27" r="1.78"/><circle class="cls-2" cx="63.48" cy="18.68" r="1.78"/><circle class="cls-2" cx="67.18" cy="14.97" r="1.78"/><circle class="cls-2" cx="59.77" cy="14.97" r="1.78"/><circle class="cls-2" cx="66.1" cy="12.35" r="1.78"/><circle class="cls-2" cx="60.86" cy="17.59" r="1.78"/><circle class="cls-2" cx="66.1" cy="17.59" r="1.78"/><circle class="cls-2" cx="60.86" cy="12.35" r="1.78"/><rect class="cls-2" x="60.33" y="11.83" width="6.13" height="6.13"/><circle class="cls-3" cx="63.48" cy="14.97" r="1.78"/><circle class="cls-2" cx="86.78" cy="11.27" r="1.78"/><circle class="cls-2" cx="86.78" cy="18.68" r="1.78"/><circle class="cls-2" cx="90.49" cy="14.97" r="1.78"/><circle class="cls-2" cx="83.07" cy="14.97" r="1.78"/><circle class="cls-2" cx="89.4" cy="12.35" r="1.78"/><circle class="cls-2" cx="84.16" cy="17.59" r="1.78"/><circle class="cls-2" cx="89.4" cy="17.59" r="1.78"/><circle class="cls-2" cx="84.16" cy="12.35" r="1.78"/><rect class="cls-2" x="83.63" y="11.83" width="6.13" height="6.13"/><circle class="cls-3" cx="86.78" cy="14.97" r="1.78"/><circle class="cls-4" cx="52.31" cy="22.32" r="1.18"/><circle class="cls-4" cx="52.31" cy="27.23" r="1.18"/><circle class="cls-4" cx="54.77" cy="24.77" r="1.18"/><circle class="cls-4" cx="49.85" cy="24.77" r="1.18"/><circle class="cls-4" cx="54.05" cy="23.04" r="1.18"/><circle class="cls-4" cx="50.57" cy="26.51" r="1.18"/><circle class="cls-4" cx="54.05" cy="26.51" r="1.18"/><circle class="cls-4" cx="50.57" cy="23.04" r="1.18"/><rect class="cls-4" x="50.22" y="22.69" width="4.07" height="4.07"/><circle class="cls-3" cx="52.31" cy="24.77" r="1.18"/><circle class="cls-5" cx="75.61" cy="22.32" r="1.18"/><circle class="cls-5" cx="75.61" cy="27.23" r="1.18"/><circle class="cls-5" cx="78.07" cy="24.77" r="1.18"/><circle class="cls-5" cx="73.15" cy="24.77" r="1.18"/><circle class="cls-5" cx="77.35" cy="23.04" r="1.18"/><circle class="cls-5" cx="73.87" cy="26.51" r="1.18"/><circle class="cls-5" cx="77.35" cy="26.51" r="1.18"/><circle class="cls-5" cx="73.87" cy="23.04" r="1.18"/><rect class="cls-5" x="73.52" y="22.69" width="4.07" height="4.07"/><circle class="cls-3" cx="75.61" cy="24.77" r="1.18"/><circle class="cls-2" cx="40.18" cy="29.91" r="1.78"/><circle class="cls-2" cx="40.18" cy="37.32" r="1.78"/><circle class="cls-2" cx="43.88" cy="33.61" r="1.78"/><circle class="cls-2" cx="36.47" cy="33.61" r="1.78"/><circle class="cls-2" cx="42.8" cy="30.99" r="1.78"/><circle class="cls-2" cx="37.56" cy="36.23" r="1.78"/><circle class="cls-2" cx="42.8" cy="36.23" r="1.78"/><circle class="cls-2" cx="37.56" cy="30.99" r="1.78"/><rect class="cls-2" x="37.03" y="30.47" width="6.13" height="6.13"/><circle class="cls-3" cx="40.18" cy="33.61" r="1.78"/><circle class="cls-2" cx="63.48" cy="29.91" r="1.78"/><circle class="cls-2" cx="63.48" cy="37.32" r="1.78"/><circle class="cls-2" cx="67.18" cy="33.61" r="1.78"/><circle class="cls-2" cx="59.77" cy="33.61" r="1.78"/><circle class="cls-2" cx="66.1" cy="30.99" r="1.78"/><circle class="cls-2" cx="60.86" cy="36.23" r="1.78"/><circle class="cls-2" cx="66.1" cy="36.23" r="1.78"/><circle class="cls-2" cx="60.86" cy="30.99" r="1.78"/><rect class="cls-2" x="60.33" y="30.47" width="6.13" height="6.13"/><circle class="cls-3" cx="63.48" cy="33.61" r="1.78"/><circle class="cls-2" cx="86.78" cy="29.91" r="1.78"/><circle class="cls-2" cx="86.78" cy="37.32" r="1.78"/><circle class="cls-2" cx="90.49" cy="33.61" r="1.78"/><circle class="cls-2" cx="83.07" cy="33.61" r="1.78"/><circle class="cls-2" cx="89.4" cy="30.99" r="1.78"/><circle class="cls-2" cx="84.16" cy="36.23" r="1.78"/><circle class="cls-2" cx="89.4" cy="36.23" r="1.78"/><circle class="cls-2" cx="84.16" cy="30.99" r="1.78"/><rect class="cls-2" x="83.63" y="30.47" width="6.13" height="6.13"/><circle class="cls-3" cx="86.78" cy="33.61" r="1.78"/><circle class="cls-4" cx="52.31" cy="40.96" r="1.18"/><circle class="cls-4" cx="52.31" cy="45.87" r="1.18"/><circle class="cls-4" cx="54.77" cy="43.42" r="1.18"/><circle class="cls-4" cx="49.85" cy="43.42" r="1.18"/><circle class="cls-4" cx="54.05" cy="41.68" r="1.18"/><circle class="cls-4" cx="50.57" cy="45.15" r="1.18"/><circle class="cls-4" cx="54.05" cy="45.15" r="1.18"/><circle class="cls-4" cx="50.57" cy="41.68" r="1.18"/><rect class="cls-4" x="50.22" y="41.33" width="4.07" height="4.07"/><circle class="cls-3" cx="52.31" cy="43.42" r="1.18"/><circle class="cls-5" cx="75.61" cy="40.96" r="1.18"/><circle class="cls-5" cx="75.61" cy="45.87" r="1.18"/><circle class="cls-5" cx="78.07" cy="43.42" r="1.18"/><circle class="cls-5" cx="73.15" cy="43.42" r="1.18"/><circle class="cls-5" cx="77.35" cy="41.68" r="1.18"/><circle class="cls-5" cx="73.87" cy="45.15" r="1.18"/><circle class="cls-5" cx="77.35" cy="45.15" r="1.18"/><circle class="cls-5" cx="73.87" cy="41.68" r="1.18"/><rect class="cls-5" x="73.52" y="41.33" width="4.07" height="4.07"/><circle class="cls-3" cx="75.61" cy="43.42" r="1.18"/><circle class="cls-2" cx="40.18" cy="48.55" r="1.78"/><circle class="cls-2" cx="40.18" cy="55.96" r="1.78"/><circle class="cls-2" cx="43.88" cy="52.25" r="1.78"/><circle class="cls-2" cx="36.47" cy="52.25" r="1.78"/><circle class="cls-2" cx="42.8" cy="49.63" r="1.78"/><circle class="cls-2" cx="37.56" cy="54.87" r="1.78"/><circle class="cls-2" cx="42.8" cy="54.87" r="1.78"/><circle class="cls-2" cx="37.56" cy="49.63" r="1.78"/><rect class="cls-2" x="37.03" y="49.11" width="6.13" height="6.13"/><circle class="cls-3" cx="40.18" cy="52.25" r="1.78"/><circle class="cls-2" cx="63.48" cy="48.55" r="1.78"/><circle class="cls-2" cx="63.48" cy="55.96" r="1.78"/><circle class="cls-2" cx="67.18" cy="52.25" r="1.78"/><circle class="cls-2" cx="59.77" cy="52.25" r="1.78"/><circle class="cls-2" cx="66.1" cy="49.63" r="1.78"/><circle class="cls-2" cx="60.86" cy="54.87" r="1.78"/><circle class="cls-2" cx="66.1" cy="54.87" r="1.78"/><circle class="cls-2" cx="60.86" cy="49.63" r="1.78"/><rect class="cls-2" x="60.33" y="49.11" width="6.13" height="6.13"/><circle class="cls-3" cx="63.48" cy="52.25" r="1.78"/><circle class="cls-2" cx="86.78" cy="48.55" r="1.78"/><circle class="cls-2" cx="86.78" cy="55.96" r="1.78"/><circle class="cls-2" cx="90.49" cy="52.25" r="1.78"/><circle class="cls-2" cx="83.07" cy="52.25" r="1.78"/><circle class="cls-2" cx="89.4" cy="49.63" r="1.78"/><circle class="cls-2" cx="84.16" cy="54.87" r="1.78"/><circle class="cls-2" cx="89.4" cy="54.87" r="1.78"/><circle class="cls-2" cx="84.16" cy="49.63" r="1.78"/><rect class="cls-2" x="83.63" y="49.11" width="6.13" height="6.13"/><circle class="cls-3" cx="86.78" cy="52.25" r="1.78"/><circle class="cls-4" cx="52.31" cy="59.6" r="1.18"/><circle class="cls-4" cx="52.31" cy="64.52" r="1.18"/><circle class="cls-4" cx="54.77" cy="62.06" r="1.18"/><circle class="cls-4" cx="49.85" cy="62.06" r="1.18"/><circle class="cls-4" cx="54.05" cy="60.32" r="1.18"/><circle class="cls-4" cx="50.57" cy="63.79" r="1.18"/><circle class="cls-4" cx="54.05" cy="63.79" r="1.18"/><circle class="cls-4" cx="50.57" cy="60.32" r="1.18"/><rect class="cls-4" x="50.22" y="59.97" width="4.07" height="4.07"/><circle class="cls-3" cx="52.31" cy="62.06" r="1.18"/><circle class="cls-5" cx="75.61" cy="59.6" r="1.18"/><circle class="cls-5" cx="75.61" cy="64.52" r="1.18"/><circle class="cls-5" cx="78.07" cy="62.06" r="1.18"/><circle class="cls-5" cx="73.15" cy="62.06" r="1.18"/><circle class="cls-5" cx="77.35" cy="60.32" r="1.18"/><circle class="cls-5" cx="73.87" cy="63.79" r="1.18"/><circle class="cls-5" cx="77.35" cy="63.79" r="1.18"/><circle class="cls-5" cx="73.87" cy="60.32" r="1.18"/><rect class="cls-5" x="73.52" y="59.97" width="4.07" height="4.07"/><circle class="cls-3" cx="75.61" cy="62.06" r="1.18"/><circle class="cls-2" cx="40.18" cy="67.19" r="1.78"/><circle class="cls-2" cx="40.18" cy="74.6" r="1.78"/><circle class="cls-2" cx="43.88" cy="70.89" r="1.78"/><circle class="cls-2" cx="36.47" cy="70.89" r="1.78"/><circle class="cls-2" cx="42.8" cy="68.27" r="1.78"/><circle class="cls-2" cx="37.56" cy="73.52" r="1.78"/><circle class="cls-2" cx="42.8" cy="73.52" r="1.78"/><circle class="cls-2" cx="37.56" cy="68.27" r="1.78"/><rect class="cls-2" x="37.03" y="67.75" width="6.13" height="6.13"/><circle class="cls-3" cx="40.18" cy="70.89" r="1.78"/><circle class="cls-2" cx="63.48" cy="67.19" r="1.78"/><circle class="cls-2" cx="63.48" cy="74.6" r="1.78"/><circle class="cls-2" cx="67.18" cy="70.89" r="1.78"/><circle class="cls-2" cx="59.77" cy="70.89" r="1.78"/><circle class="cls-2" cx="66.1" cy="68.27" r="1.78"/><circle class="cls-2" cx="60.86" cy="73.52" r="1.78"/><circle class="cls-2" cx="66.1" cy="73.52" r="1.78"/><circle class="cls-2" cx="60.86" cy="68.27" r="1.78"/><rect class="cls-2" x="60.33" y="67.75" width="6.13" height="6.13"/><circle class="cls-3" cx="63.48" cy="70.89" r="1.78"/><circle class="cls-2" cx="40.18" cy="85.83" r="1.78"/><circle class="cls-2" cx="40.18" cy="93.24" r="1.78"/><circle class="cls-2" cx="43.88" cy="89.54" r="1.78"/><circle class="cls-2" cx="36.47" cy="89.54" r="1.78"/><circle class="cls-2" cx="42.8" cy="86.91" r="1.78"/><circle class="cls-2" cx="37.56" cy="92.16" r="1.78"/><circle class="cls-2" cx="42.8" cy="92.16" r="1.78"/><circle class="cls-2" cx="37.56" cy="86.91" r="1.78"/><rect class="cls-2" x="37.03" y="86.39" width="6.13" height="6.13"/><circle class="cls-3" cx="40.18" cy="89.54" r="1.78"/><circle class="cls-2" cx="63.48" cy="85.83" r="1.78"/><circle class="cls-2" cx="63.48" cy="93.24" r="1.78"/><circle class="cls-2" cx="67.18" cy="89.54" r="1.78"/><circle class="cls-2" cx="59.77" cy="89.54" r="1.78"/><circle class="cls-2" cx="66.1" cy="86.91" r="1.78"/><circle class="cls-2" cx="60.86" cy="92.16" r="1.78"/><circle class="cls-2" cx="66.1" cy="92.16" r="1.78"/><circle class="cls-2" cx="60.86" cy="86.91" r="1.78"/><rect class="cls-2" x="60.33" y="86.39" width="6.13" height="6.13"/><circle class="cls-3" cx="63.48" cy="89.54" r="1.78"/><circle class="cls-2" cx="86.78" cy="67.19" r="1.78"/><circle class="cls-2" cx="86.78" cy="74.6" r="1.78"/><circle class="cls-2" cx="90.49" cy="70.89" r="1.78"/><circle class="cls-2" cx="83.07" cy="70.89" r="1.78"/><circle class="cls-2" cx="89.4" cy="68.27" r="1.78"/><circle class="cls-2" cx="84.16" cy="73.52" r="1.78"/><circle class="cls-2" cx="89.4" cy="73.52" r="1.78"/><circle class="cls-2" cx="84.16" cy="68.27" r="1.78"/><rect class="cls-2" x="83.63" y="67.75" width="6.13" height="6.13"/><circle class="cls-3" cx="86.78" cy="70.89" r="1.78"/><circle class="cls-4" cx="52.31" cy="78.24" r="1.18"/><circle class="cls-4" cx="52.31" cy="83.16" r="1.18"/><circle class="cls-4" cx="54.77" cy="80.7" r="1.18"/><circle class="cls-4" cx="49.85" cy="80.7" r="1.18"/><circle class="cls-4" cx="54.05" cy="78.96" r="1.18"/><circle class="cls-4" cx="50.57" cy="82.44" r="1.18"/><circle class="cls-4" cx="54.05" cy="82.44" r="1.18"/><circle class="cls-4" cx="50.57" cy="78.96" r="1.18"/><rect class="cls-4" x="50.22" y="78.61" width="4.07" height="4.07"/><circle class="cls-3" cx="52.31" cy="80.7" r="1.18"/><circle class="cls-5" cx="27.95" cy="22.32" r="1.18"/><circle class="cls-5" cx="27.95" cy="27.23" r="1.18"/><circle class="cls-5" cx="30.41" cy="24.77" r="1.18"/><circle class="cls-5" cx="25.5" cy="24.77" r="1.18"/><circle class="cls-5" cx="29.69" cy="23.04" r="1.18"/><circle class="cls-5" cx="26.22" cy="26.51" r="1.18"/><circle class="cls-5" cx="29.69" cy="26.51" r="1.18"/><circle class="cls-5" cx="26.22" cy="23.04" r="1.18"/><rect class="cls-5" x="25.87" y="22.69" width="4.07" height="4.07"/><circle class="cls-5" cx="27.95" cy="24.77" r="1.18"/><circle class="cls-5" cx="27.95" cy="40.96" r="1.18"/><circle class="cls-5" cx="27.95" cy="45.87" r="1.18"/><circle class="cls-5" cx="30.41" cy="43.42" r="1.18"/><circle class="cls-5" cx="25.5" cy="43.42" r="1.18"/><circle class="cls-5" cx="29.69" cy="41.68" r="1.18"/><circle class="cls-5" cx="26.22" cy="45.15" r="1.18"/><circle class="cls-5" cx="29.69" cy="45.15" r="1.18"/><circle class="cls-5" cx="26.22" cy="41.68" r="1.18"/><rect class="cls-5" x="25.87" y="41.33" width="4.07" height="4.07"/><circle class="cls-5" cx="27.95" cy="43.42" r="1.18"/><circle class="cls-5" cx="27.95" cy="59.6" r="1.18"/><circle class="cls-5" cx="27.95" cy="64.52" r="1.18"/><circle class="cls-5" cx="30.41" cy="62.06" r="1.18"/><circle class="cls-5" cx="25.5" cy="62.06" r="1.18"/><circle class="cls-5" cx="29.69" cy="60.32" r="1.18"/><circle class="cls-5" cx="26.22" cy="63.79" r="1.18"/><circle class="cls-5" cx="29.69" cy="63.79" r="1.18"/><circle class="cls-5" cx="26.22" cy="60.32" r="1.18"/><rect class="cls-5" x="25.87" y="59.97" width="4.07" height="4.07"/><circle class="cls-5" cx="27.95" cy="62.06" r="1.18"/><circle class="cls-5" cx="27.95" cy="78.24" r="1.18"/><circle class="cls-5" cx="27.95" cy="83.16" r="1.18"/><circle class="cls-5" cx="30.41" cy="80.7" r="1.18"/><circle class="cls-5" cx="25.5" cy="80.7" r="1.18"/><circle class="cls-5" cx="29.69" cy="78.96" r="1.18"/><circle class="cls-5" cx="26.22" cy="82.44" r="1.18"/><circle class="cls-5" cx="29.69" cy="82.44" r="1.18"/><circle class="cls-5" cx="26.22" cy="78.96" r="1.18"/><rect class="cls-5" x="25.87" y="78.61" width="4.07" height="4.07"/><circle class="cls-5" cx="27.95" cy="80.7" r="1.18"/><circle class="cls-5" cx="75.61" cy="78.24" r="1.18"/><circle class="cls-5" cx="75.61" cy="83.16" r="1.18"/><circle class="cls-5" cx="78.07" cy="80.7" r="1.18"/><circle class="cls-5" cx="73.15" cy="80.7" r="1.18"/><circle class="cls-5" cx="77.35" cy="78.96" r="1.18"/><circle class="cls-5" cx="73.87" cy="82.44" r="1.18"/><circle class="cls-5" cx="77.35" cy="82.44" r="1.18"/><circle class="cls-5" cx="73.87" cy="78.96" r="1.18"/><rect class="cls-5" x="73.52" y="78.61" width="4.07" height="4.07"/><circle class="cls-3" cx="75.61" cy="80.7" r="1.18"/><path class="cls-6" d="M99.26,73.72H82.75a7.89,7.89,0,0,0-7.87,7.86V98.1Z"/><rect class="cls-6" x="3.26" y="3.96" width="26.02" height="93.57" rx="5.4" ry="5.4"/><rect class="cls-1" x="0.74" width="26.02" height="100" rx="5.58" ry="5.58"/><circle class="cls-6" cx="13.75" cy="85.91" r="11.02"/><circle class="cls-1" cx="13.75" cy="85.91" r="8.91"/><circle class="cls-7" cx="13.75" cy="85.91" r="6.88"/><circle class="cls-8" cx="13.75" cy="85.91" r="4.41"/><path class="cls-2" d="M15.29,6.72c0,.75-.88,1.24-2,1.29s-2-.38-2-1.13a1.92,1.92,0,0,1,2-1.59A1.76,1.76,0,0,1,15.29,6.72Z"/><path class="cls-2" d="M15.29,12.38c0,.76-.88,1.25-2,1.3s-2-.38-2-1.13a1.93,1.93,0,0,1,2-1.6A1.76,1.76,0,0,1,15.29,12.38Z"/><path class="cls-2" d="M17.38,11.33c-1.05-.3-1.93-1-1.93-1.76s.88-1.27,1.93-1a2.56,2.56,0,0,1,1.85,2.07C19.23,11.42,18.44,11.63,17.38,11.33Z"/><path class="cls-2" d="M9.3,11.67c-1,.39-1.78.26-1.78-.5A2.84,2.84,0,0,1,9.3,8.94c1-.39,1.89.06,1.89.81S10.32,11.27,9.3,11.67Z"/><path class="cls-2" d="M17.57,9a3.23,3.23,0,0,1-2.75-.51,1.09,1.09,0,0,1,0-1.93,2.31,2.31,0,0,1,2.75.52C18.3,7.83,18.3,8.7,17.57,9Z"/><path class="cls-2" d="M11.81,12.6a3.34,3.34,0,0,1-2.69.75c-.71-.23-.71-1.1,0-1.93a2.33,2.33,0,0,1,2.69-.75C12.57,11.1,12.57,12,11.81,12.6Z"/><path class="cls-2" d="M14.82,12.47a1.09,1.09,0,0,1,0-1.92,2.32,2.32,0,0,1,2.75.51c.73.77.73,1.64,0,1.93A3.24,3.24,0,0,1,14.82,12.47Z"/><path class="cls-2" d="M9.12,9.34c-.71-.23-.71-1.09,0-1.93a2.33,2.33,0,0,1,2.69-.74c.76.42.76,1.29,0,1.92A3.3,3.3,0,0,1,9.12,9.34Z"/><path class="cls-2" d="M16.6,12.05a12.78,12.78,0,0,0-6.72.33V7.7a12.78,12.78,0,0,1,6.72-.33Z"/><path class="cls-3" d="M11.92,10.58c-.76-.41-.77-1.26,0-1.93a2.3,2.3,0,0,1,2.79-.11,1.09,1.09,0,0,1,0,1.92A3.15,3.15,0,0,1,11.92,10.58Z"/><path class="cls-4" d="M3.91,20.31a6.9,6.9,0,0,1-.67,2.15c-.33.72-.52,1-.52.47a6.78,6.78,0,0,1,.52-2.28C3.57,19.92,3.91,19.81,3.91,20.31Z"/><path class="cls-4" d="M3.91,24.07a6.9,6.9,0,0,1-.67,2.15c-.33.72-.52,1-.52.47a6.68,6.68,0,0,1,.52-2.28C3.57,23.68,3.91,23.57,3.91,24.07Z"/><path class="cls-4" d="M4.78,21.89c-.48.58-.81.7-.81.2a3.79,3.79,0,0,1,.81-2c.48-.58.93-.57.93-.07A3.69,3.69,0,0,1,4.78,21.89Z"/><path class="cls-4" d="M2.33,27.36c-.14.87-.17,1.25-.17.75a19,19,0,0,1,.17-2.56c.15-.88.36-1.12.36-.62A21.4,21.4,0,0,1,2.33,27.36Z"/><path class="cls-4" d="M4.87,20.2a4.21,4.21,0,0,1-1.13,1.58c-.27.12-.27-.45,0-1.28S4.52,19,4.87,18.92,5.22,19.46,4.87,20.2Z"/><path class="cls-4" d="M2.83,26.44c-.2.9-.43,1.86-.52,2.14s-.09-.29,0-1.28a5.27,5.27,0,0,1,.52-2.14C3,25,3,25.55,2.83,26.44Z"/><path class="cls-4" d="M3.74,24.44c-.27.13-.27-.45,0-1.28s.78-1.54,1.13-1.58.35.53,0,1.28A4.21,4.21,0,0,1,3.74,24.44Z"/><path class="cls-4" d="M2.31,25.92c-.09.28-.09-.29,0-1.28a5.16,5.16,0,0,1,.52-2.13c.2-.2.2.38,0,1.27S2.4,25.64,2.31,25.92Z"/><path class="cls-4" d="M4.44,22.94a11,11,0,0,0-2,4.54V24.37a11,11,0,0,1,2-4.54Z"/><path class="cls-3" d="M2.86,25c-.19.21-.19-.36,0-1.27A3.22,3.22,0,0,1,3.7,21.9c.28-.12.28.46,0,1.28A7.94,7.94,0,0,1,2.86,25Z"/><path class="cls-5" d="M25,22.93c0,.51-.19.26-.52-.47a6.75,6.75,0,0,1-.67-2.15c0-.5.34-.39.67.34A6.78,6.78,0,0,1,25,22.93Z"/><path class="cls-5" d="M25,26.69c0,.51-.19.25-.52-.47a6.82,6.82,0,0,1-.67-2.15c0-.51.34-.39.67.34A6.78,6.78,0,0,1,25,26.69Z"/><path class="cls-5" d="M25.36,27.36A21,21,0,0,1,25,24.93c0-.5.2-.26.35.62a17.34,17.34,0,0,1,.17,2.56C25.53,28.61,25.51,28.23,25.36,27.36Z"/><path class="cls-5" d="M22.91,21.89A3.66,3.66,0,0,1,22,20c0-.51.44-.5.92.07a3.71,3.71,0,0,1,.81,2C23.72,22.59,23.4,22.47,22.91,21.89Z"/><path class="cls-5" d="M25.38,25.92c-.08-.28-.32-1.24-.52-2.14s-.19-1.46,0-1.27a5,5,0,0,1,.52,2.13C25.47,25.63,25.47,26.2,25.38,25.92Z"/><path class="cls-5" d="M24,24.44a4.21,4.21,0,0,1-1.12-1.58c-.35-.74-.35-1.32,0-1.28s.86.75,1.12,1.58S24.22,24.56,24,24.44Z"/><path class="cls-5" d="M24.86,26.44c-.19-.9-.19-1.47,0-1.28a5.06,5.06,0,0,1,.52,2.14c.09,1,.09,1.56,0,1.28S25.06,27.34,24.86,26.44Z"/><path class="cls-5" d="M22.83,20.2c-.35-.75-.35-1.32,0-1.28s.86.75,1.12,1.58.27,1.41,0,1.28A4.13,4.13,0,0,1,22.83,20.2Z"/><path class="cls-5" d="M25.24,27.33a11.37,11.37,0,0,0-2.06-4.5v-3.1a11.26,11.26,0,0,1,2.06,4.49Z"/><path class="cls-3" d="M24,23.18c-.28-.82-.28-1.4,0-1.28a3.24,3.24,0,0,1,.85,1.86c.18.9.18,1.48,0,1.27A7.46,7.46,0,0,1,24,23.18Z"/><path class="cls-2" d="M15.29,21c0,.76-.88,1.25-2,1.3s-2-.38-2-1.13a1.94,1.94,0,0,1,2-1.6A1.77,1.77,0,0,1,15.29,21Z"/><path class="cls-2" d="M15.29,26.63c0,.76-.88,1.25-2,1.29s-2-.37-2-1.13a1.93,1.93,0,0,1,2-1.59A1.76,1.76,0,0,1,15.29,26.63Z"/><path class="cls-2" d="M17.38,25.58c-1.05-.31-1.93-1-1.93-1.76s.88-1.27,1.93-1a2.55,2.55,0,0,1,1.85,2.06C19.23,25.67,18.44,25.87,17.38,25.58Z"/><path class="cls-2" d="M9.3,25.92c-1,.39-1.78.25-1.78-.5A2.83,2.83,0,0,1,9.3,23.19c1-.4,1.89,0,1.89.8S10.32,25.52,9.3,25.92Z"/><path class="cls-2" d="M17.57,23.23a3.24,3.24,0,0,1-2.75-.52,1.09,1.09,0,0,1,0-1.92,2.32,2.32,0,0,1,2.75.51C18.3,22.08,18.3,22.94,17.57,23.23Z"/><path class="cls-2" d="M11.81,26.85a3.33,3.33,0,0,1-2.69.74c-.71-.22-.71-1.08,0-1.93a2.34,2.34,0,0,1,2.69-.74C12.57,25.34,12.57,26.21,11.81,26.85Z"/><path class="cls-2" d="M14.82,26.72a1.09,1.09,0,0,1,0-1.93,2.32,2.32,0,0,1,2.75.52c.73.77.73,1.63,0,1.92A3.27,3.27,0,0,1,14.82,26.72Z"/><path class="cls-2" d="M9.12,23.58c-.71-.23-.71-1.09,0-1.92a2.33,2.33,0,0,1,2.69-.75c.76.42.76,1.29,0,1.93A3.29,3.29,0,0,1,9.12,23.58Z"/><path class="cls-2" d="M16.6,26.3a12.78,12.78,0,0,0-6.72.33V21.94a13,13,0,0,1,6.72-.33Z"/><path class="cls-3" d="M11.92,24.82c-.76-.4-.77-1.26,0-1.92a2.3,2.3,0,0,1,2.79-.12c.77.61.77,1.46,0,1.93A3.15,3.15,0,0,1,11.92,24.82Z"/><path class="cls-4" d="M3.91,34.55a6.75,6.75,0,0,1-.67,2.15c-.33.73-.52,1-.52.48a6.68,6.68,0,0,1,.52-2.28C3.57,34.17,3.91,34.05,3.91,34.55Z"/><path class="cls-4" d="M3.91,38.31a6.75,6.75,0,0,1-.67,2.15c-.33.73-.52,1-.52.48a6.68,6.68,0,0,1,.52-2.28C3.57,37.93,3.91,37.82,3.91,38.31Z"/><path class="cls-4" d="M4.78,36.14c-.48.57-.81.7-.81.2a3.82,3.82,0,0,1,.81-2c.48-.58.93-.56.93-.06A3.73,3.73,0,0,1,4.78,36.14Z"/><path class="cls-4" d="M2.33,41.6c-.14.88-.17,1.26-.17.76a18.74,18.74,0,0,1,.17-2.56c.15-.88.36-1.12.36-.63A21.08,21.08,0,0,1,2.33,41.6Z"/><path class="cls-4" d="M4.87,34.45A4.12,4.12,0,0,1,3.74,36c-.27.12-.27-.45,0-1.28s.78-1.54,1.13-1.58S5.22,33.7,4.87,34.45Z"/><path class="cls-4" d="M2.83,40.69c-.2.89-.43,1.86-.52,2.13s-.09-.29,0-1.27a5.17,5.17,0,0,1,.52-2.14C3,39.21,3,39.79,2.83,40.69Z"/><path class="cls-4" d="M3.74,38.68c-.27.13-.27-.44,0-1.28s.78-1.54,1.13-1.58.35.53,0,1.28A4.12,4.12,0,0,1,3.74,38.68Z"/><path class="cls-4" d="M2.31,40.17c-.09.28-.09-.29,0-1.28a5.22,5.22,0,0,1,.52-2.14c.2-.19.2.38,0,1.28S2.4,39.89,2.31,40.17Z"/><path class="cls-4" d="M4.44,37.18a11.08,11.08,0,0,0-2,4.54v-3.1a11,11,0,0,1,2-4.54Z"/><path class="cls-3" d="M2.86,39.28c-.19.2-.19-.36,0-1.28a3.22,3.22,0,0,1,.84-1.86c.28-.11.28.46,0,1.28A8.08,8.08,0,0,1,2.86,39.28Z"/><path class="cls-5" d="M25,37.18c0,.5-.19.25-.52-.48a6.75,6.75,0,0,1-.67-2.15c0-.49.34-.38.67.35A6.68,6.68,0,0,1,25,37.18Z"/><path class="cls-5" d="M25,40.94c0,.5-.19.25-.52-.48a6.75,6.75,0,0,1-.67-2.15c0-.5.34-.38.67.35A6.68,6.68,0,0,1,25,40.94Z"/><path class="cls-5" d="M25.36,41.6A20.71,20.71,0,0,1,25,39.17c0-.5.2-.26.35.63a17.26,17.26,0,0,1,.17,2.56C25.53,42.86,25.51,42.48,25.36,41.6Z"/><path class="cls-5" d="M22.91,36.14A3.66,3.66,0,0,1,22,34.27c0-.5.44-.51.92.06a3.74,3.74,0,0,1,.81,2C23.72,36.84,23.4,36.71,22.91,36.14Z"/><path class="cls-5" d="M25.38,40.17c-.08-.29-.32-1.24-.52-2.14s-.19-1.48,0-1.28a5.06,5.06,0,0,1,.52,2.14C25.47,39.88,25.47,40.45,25.38,40.17Z"/><path class="cls-5" d="M24,38.68a4.13,4.13,0,0,1-1.12-1.58c-.35-.74-.35-1.32,0-1.28s.86.75,1.12,1.58S24.22,38.81,24,38.68Z"/><path class="cls-5" d="M24.86,40.69c-.19-.9-.19-1.47,0-1.28a5,5,0,0,1,.52,2.14c.09,1,.09,1.56,0,1.27S25.06,41.58,24.86,40.69Z"/><path class="cls-5" d="M22.83,34.45c-.35-.75-.35-1.33,0-1.28s.86.75,1.12,1.58.27,1.4,0,1.28A4.21,4.21,0,0,1,22.83,34.45Z"/><path class="cls-5" d="M25.24,41.57a11.33,11.33,0,0,0-2.06-4.49V34a11.37,11.37,0,0,1,2.06,4.5Z"/><path class="cls-3" d="M24,37.42c-.28-.82-.28-1.39,0-1.28A3.27,3.27,0,0,1,24.84,38c.18.92.18,1.49,0,1.28A7.58,7.58,0,0,1,24,37.42Z"/><path class="cls-2" d="M15.29,35.21c0,.76-.88,1.25-2,1.29s-2-.37-2-1.12a1.94,1.94,0,0,1,2-1.6A1.76,1.76,0,0,1,15.29,35.21Z"/><path class="cls-2" d="M15.29,40.88c0,.75-.88,1.24-2,1.29s-2-.38-2-1.13a1.94,1.94,0,0,1,2-1.6A1.78,1.78,0,0,1,15.29,40.88Z"/><path class="cls-2" d="M17.38,39.82c-1.05-.31-1.93-1-1.93-1.76s.88-1.28,1.93-1a2.53,2.53,0,0,1,1.85,2.06C19.23,39.92,18.44,40.12,17.38,39.82Z"/><path class="cls-2" d="M9.3,40.16c-1,.39-1.78.26-1.78-.5A2.83,2.83,0,0,1,9.3,37.44c1-.4,1.89.05,1.89.8S10.32,39.77,9.3,40.16Z"/><path class="cls-2" d="M17.57,37.47A3.23,3.23,0,0,1,14.82,37a1.09,1.09,0,0,1,0-1.93,2.31,2.31,0,0,1,2.75.52C18.3,36.32,18.3,37.18,17.57,37.47Z"/><path class="cls-2" d="M11.81,41.09a3.34,3.34,0,0,1-2.69.75c-.71-.23-.71-1.09,0-1.93a2.33,2.33,0,0,1,2.69-.75C12.57,39.59,12.57,40.45,11.81,41.09Z"/><path class="cls-2" d="M14.82,41a1.09,1.09,0,0,1,0-1.93,2.32,2.32,0,0,1,2.75.51c.73.77.73,1.63,0,1.93A3.27,3.27,0,0,1,14.82,41Z"/><path class="cls-2" d="M9.12,37.83c-.71-.22-.71-1.09,0-1.93a2.33,2.33,0,0,1,2.69-.74c.76.42.76,1.29,0,1.93A3.33,3.33,0,0,1,9.12,37.83Z"/><path class="cls-2" d="M16.6,40.54a13,13,0,0,0-6.72.33V36.19a12.78,12.78,0,0,1,6.72-.33Z"/><path class="cls-3" d="M11.92,39.07c-.76-.4-.77-1.26,0-1.93A2.31,2.31,0,0,1,14.71,37a1.09,1.09,0,0,1,0,1.93A3.19,3.19,0,0,1,11.92,39.07Z"/><path class="cls-4" d="M3.91,48.8A6.82,6.82,0,0,1,3.24,51c-.33.72-.52,1-.52.48a6.73,6.73,0,0,1,.52-2.29C3.57,48.42,3.91,48.3,3.91,48.8Z"/><path class="cls-4" d="M3.91,52.56a6.82,6.82,0,0,1-.67,2.15c-.33.72-.52,1-.52.47a6.78,6.78,0,0,1,.52-2.28C3.57,52.17,3.91,52.06,3.91,52.56Z"/><path class="cls-4" d="M4.78,50.39c-.48.57-.81.7-.81.2a3.76,3.76,0,0,1,.81-2c.48-.57.93-.57.93-.07A3.75,3.75,0,0,1,4.78,50.39Z"/><path class="cls-4" d="M2.33,55.85c-.14.88-.17,1.26-.17.75A18.94,18.94,0,0,1,2.33,54c.15-.88.36-1.12.36-.62A21.4,21.4,0,0,1,2.33,55.85Z"/><path class="cls-4" d="M4.87,48.69a4.12,4.12,0,0,1-1.13,1.58c-.27.13-.27-.44,0-1.28s.78-1.54,1.13-1.58S5.22,47.94,4.87,48.69Z"/><path class="cls-4" d="M2.83,54.93c-.2.91-.43,1.86-.52,2.14s-.09-.29,0-1.28a5.16,5.16,0,0,1,.52-2.13C3,53.46,3,54,2.83,54.93Z"/><path class="cls-4" d="M3.74,52.93c-.27.13-.27-.45,0-1.28s.78-1.54,1.13-1.58.35.53,0,1.28A4.21,4.21,0,0,1,3.74,52.93Z"/><path class="cls-4" d="M2.31,54.41c-.09.28-.09-.29,0-1.28A5.16,5.16,0,0,1,2.83,51c.2-.2.2.38,0,1.28S2.4,54.13,2.31,54.41Z"/><path class="cls-4" d="M4.44,51.43a11,11,0,0,0-2,4.54V52.86a11.08,11.08,0,0,1,2-4.54Z"/><path class="cls-3" d="M2.86,53.53c-.19.2-.19-.37,0-1.28a3.22,3.22,0,0,1,.84-1.86c.28-.12.28.46,0,1.28A8.3,8.3,0,0,1,2.86,53.53Z"/><path class="cls-5" d="M25,51.43c0,.5-.19.24-.52-.48a6.82,6.82,0,0,1-.67-2.15c0-.5.34-.39.67.34A6.73,6.73,0,0,1,25,51.43Z"/><path class="cls-5" d="M25,55.18c0,.51-.19.25-.52-.47a6.82,6.82,0,0,1-.67-2.15c0-.5.34-.39.67.34A6.73,6.73,0,0,1,25,55.18Z"/><path class="cls-5" d="M25.36,55.85A21,21,0,0,1,25,53.42c0-.5.2-.26.35.62a17.42,17.42,0,0,1,.17,2.56C25.53,57.1,25.51,56.73,25.36,55.85Z"/><path class="cls-5" d="M22.91,50.39A3.73,3.73,0,0,1,22,48.51c0-.5.44-.5.92.07a3.71,3.71,0,0,1,.81,2C23.72,51.09,23.4,51,22.91,50.39Z"/><path class="cls-5" d="M25.38,54.41c-.08-.28-.32-1.23-.52-2.13s-.19-1.47,0-1.28a5,5,0,0,1,.52,2.13C25.47,54.12,25.47,54.69,25.38,54.41Z"/><path class="cls-5" d="M24,52.93a4.21,4.21,0,0,1-1.12-1.58c-.35-.75-.35-1.32,0-1.28s.86.75,1.12,1.58S24.22,53.06,24,52.93Z"/><path class="cls-5" d="M24.86,54.93c-.19-.89-.19-1.47,0-1.27a5,5,0,0,1,.52,2.13c.09,1,.09,1.56,0,1.28S25.06,55.83,24.86,54.93Z"/><path class="cls-5" d="M22.83,48.69c-.35-.74-.35-1.32,0-1.28s.86.75,1.12,1.58.27,1.41,0,1.28A4,4,0,0,1,22.83,48.69Z"/><path class="cls-5" d="M25.24,55.82a11.26,11.26,0,0,0-2.06-4.49V48.22a11.33,11.33,0,0,1,2.06,4.49Z"/><path class="cls-3" d="M24,51.67c-.28-.83-.28-1.4,0-1.28a3.24,3.24,0,0,1,.85,1.86c.18.91.18,1.48,0,1.28A7.58,7.58,0,0,1,24,51.67Z"/><path class="cls-2" d="M15.29,49.46c0,.75-.88,1.25-2,1.29s-2-.37-2-1.13a1.91,1.91,0,0,1,2-1.59A1.75,1.75,0,0,1,15.29,49.46Z"/><path class="cls-2" d="M15.29,55.12c0,.76-.88,1.25-2,1.3s-2-.38-2-1.13a1.93,1.93,0,0,1,2-1.6A1.77,1.77,0,0,1,15.29,55.12Z"/><path class="cls-2" d="M17.38,54.07c-1.05-.31-1.93-1-1.93-1.76s.88-1.27,1.93-1a2.55,2.55,0,0,1,1.85,2.06C19.23,54.16,18.44,54.37,17.38,54.07Z"/><path class="cls-2" d="M9.3,54.41c-1,.39-1.78.25-1.78-.5A2.84,2.84,0,0,1,9.3,51.68c1-.4,1.89.06,1.89.81S10.32,54,9.3,54.41Z"/><path class="cls-2" d="M17.57,51.72a3.27,3.27,0,0,1-2.75-.51,1.09,1.09,0,0,1,0-1.93,2.32,2.32,0,0,1,2.75.51C18.3,50.57,18.3,51.44,17.57,51.72Z"/><path class="cls-2" d="M11.81,55.34a3.29,3.29,0,0,1-2.69.74c-.71-.22-.71-1.09,0-1.92a2.32,2.32,0,0,1,2.69-.75C12.57,53.83,12.57,54.7,11.81,55.34Z"/><path class="cls-2" d="M14.82,55.21a1.09,1.09,0,0,1,0-1.92,2.32,2.32,0,0,1,2.75.51c.73.77.73,1.64,0,1.93A3.24,3.24,0,0,1,14.82,55.21Z"/><path class="cls-2" d="M9.12,52.08c-.71-.23-.71-1.09,0-1.93a2.33,2.33,0,0,1,2.69-.75c.76.43.76,1.29,0,1.93A3.3,3.3,0,0,1,9.12,52.08Z"/><path class="cls-2" d="M16.6,54.79a12.78,12.78,0,0,0-6.72.33V50.44a12.89,12.89,0,0,1,6.72-.34Z"/><path class="cls-3" d="M11.92,53.32c-.76-.4-.77-1.27,0-1.93a2.31,2.31,0,0,1,2.79-.12,1.09,1.09,0,0,1,0,1.93A3.15,3.15,0,0,1,11.92,53.32Z"/><path class="cls-2" d="M15.29,63.7c0,.76-.88,1.25-2,1.3s-2-.38-2-1.13a1.94,1.94,0,0,1,2-1.6A1.77,1.77,0,0,1,15.29,63.7Z"/><path class="cls-2" d="M15.29,69.37c0,.75-.88,1.24-2,1.29s-2-.37-2-1.13a1.93,1.93,0,0,1,2-1.59A1.76,1.76,0,0,1,15.29,69.37Z"/><path class="cls-2" d="M17.38,68.31c-1.05-.3-1.93-1-1.93-1.76s.88-1.26,1.93-1a2.55,2.55,0,0,1,1.85,2.06C19.23,68.41,18.44,68.62,17.38,68.31Z"/><path class="cls-2" d="M9.3,68.65c-1,.39-1.78.26-1.78-.49A2.83,2.83,0,0,1,9.3,65.93c1-.4,1.89,0,1.89.8S10.32,68.26,9.3,68.65Z"/><path class="cls-2" d="M17.57,66a3.24,3.24,0,0,1-2.75-.52,1.09,1.09,0,0,1,0-1.92,2.32,2.32,0,0,1,2.75.51C18.3,64.81,18.3,65.67,17.57,66Z"/><path class="cls-2" d="M11.81,69.58a3.3,3.3,0,0,1-2.69.75c-.71-.23-.71-1.09,0-1.93a2.33,2.33,0,0,1,2.69-.74C12.57,68.08,12.57,69,11.81,69.58Z"/><path class="cls-2" d="M14.82,69.46a1.09,1.09,0,0,1,0-1.93,2.32,2.32,0,0,1,2.75.52c.73.77.73,1.63,0,1.92A3.27,3.27,0,0,1,14.82,69.46Z"/><path class="cls-2" d="M9.12,66.32c-.71-.22-.71-1.08,0-1.92a2.32,2.32,0,0,1,2.69-.75c.76.43.76,1.29,0,1.93A3.33,3.33,0,0,1,9.12,66.32Z"/><path class="cls-2" d="M16.6,69a12.89,12.89,0,0,0-6.72.34V64.68a12.78,12.78,0,0,1,6.72-.33Z"/><path class="cls-3" d="M11.92,67.56c-.76-.4-.77-1.26,0-1.92a2.3,2.3,0,0,1,2.79-.12,1.09,1.09,0,0,1,0,1.93A3.19,3.19,0,0,1,11.92,67.56Z"/><path class="cls-4" d="M3.91,63.05a6.9,6.9,0,0,1-.67,2.15c-.33.72-.52,1-.52.47a6.68,6.68,0,0,1,.52-2.28C3.57,62.67,3.91,62.55,3.91,63.05Z"/><path class="cls-4" d="M3.91,66.8A6.87,6.87,0,0,1,3.24,69c-.33.72-.52,1-.52.47a6.73,6.73,0,0,1,.52-2.28C3.57,66.42,3.91,66.31,3.91,66.8Z"/><path class="cls-4" d="M4.78,64.63c-.48.57-.81.7-.81.2a3.82,3.82,0,0,1,.81-2c.48-.57.93-.56.93-.06A3.69,3.69,0,0,1,4.78,64.63Z"/><path class="cls-4" d="M2.33,70.1c-.14.87-.17,1.25-.17.75a18.84,18.84,0,0,1,.17-2.56c.15-.88.36-1.12.36-.62A21.73,21.73,0,0,1,2.33,70.1Z"/><path class="cls-4" d="M4.87,62.94a4,4,0,0,1-1.13,1.58c-.27.13-.27-.44,0-1.28s.78-1.54,1.13-1.58S5.22,62.19,4.87,62.94Z"/><path class="cls-4" d="M2.83,69.18c-.2.9-.43,1.85-.52,2.14s-.09-.3,0-1.28a5.22,5.22,0,0,1,.52-2.14C3,67.71,3,68.28,2.83,69.18Z"/><path class="cls-4" d="M3.74,67.18c-.27.12-.27-.45,0-1.28s.78-1.55,1.13-1.58.35.53,0,1.28A4.21,4.21,0,0,1,3.74,67.18Z"/><path class="cls-4" d="M2.31,68.66c-.09.28-.09-.29,0-1.28a5.22,5.22,0,0,1,.52-2.14c.2-.19.2.39,0,1.28S2.4,68.38,2.31,68.66Z"/><path class="cls-4" d="M4.44,65.68a11,11,0,0,0-2,4.53v-3.1a11,11,0,0,1,2-4.54Z"/><path class="cls-3" d="M2.86,67.77c-.19.21-.19-.36,0-1.28a3.18,3.18,0,0,1,.84-1.85c.28-.12.28.45,0,1.28A7.94,7.94,0,0,1,2.86,67.77Z"/><path class="cls-5" d="M25,65.67c0,.5-.19.25-.52-.47a6.82,6.82,0,0,1-.67-2.15c0-.5.34-.39.67.34A6.68,6.68,0,0,1,25,65.67Z"/><path class="cls-5" d="M25,69.43c0,.51-.19.25-.52-.47a6.87,6.87,0,0,1-.67-2.16c0-.49.34-.38.67.35A6.68,6.68,0,0,1,25,69.43Z"/><path class="cls-5" d="M25.36,70.1A21,21,0,0,1,25,67.67c0-.5.2-.27.35.62a17.5,17.5,0,0,1,.17,2.56C25.53,71.35,25.51,71,25.36,70.1Z"/><path class="cls-5" d="M22.91,64.63A3.66,3.66,0,0,1,22,62.76c0-.5.44-.51.92.06a3.74,3.74,0,0,1,.81,2C23.72,65.33,23.4,65.2,22.91,64.63Z"/><path class="cls-5" d="M25.38,68.66c-.08-.28-.32-1.24-.52-2.14s-.19-1.47,0-1.28a5.06,5.06,0,0,1,.52,2.14C25.47,68.36,25.47,68.94,25.38,68.66Z"/><path class="cls-5" d="M24,67.18a4.21,4.21,0,0,1-1.12-1.58c-.35-.75-.35-1.33,0-1.28s.86.75,1.12,1.58S24.22,67.3,24,67.18Z"/><path class="cls-5" d="M24.86,69.18c-.19-.9-.19-1.47,0-1.28A5,5,0,0,1,25.38,70c.09,1,.09,1.56,0,1.28S25.06,70.08,24.86,69.18Z"/><path class="cls-5" d="M22.83,62.94c-.35-.74-.35-1.32,0-1.28s.86.75,1.12,1.58.27,1.4,0,1.28A4.13,4.13,0,0,1,22.83,62.94Z"/><path class="cls-5" d="M25.24,70.07a11.37,11.37,0,0,0-2.06-4.5v-3.1A11.26,11.26,0,0,1,25.24,67Z"/><path class="cls-3" d="M24,65.92c-.28-.83-.28-1.4,0-1.28a3.27,3.27,0,0,1,.85,1.85c.18.91.18,1.48,0,1.28A7.46,7.46,0,0,1,24,65.92Z"/></svg>