<svg id="Layer_1" data-name="Layer 1" xmlns="http://www.w3.org/2000/svg" viewBox="0 0 100 100"><defs><style>.cls-1{fill:#7d7d7d;}.cls-2{fill:#9c9c9c;}.cls-3{fill:#454547;}.cls-4{fill:#3e3e3f;}.cls-5{fill:#895e59;}.cls-6{fill:#7c5550;}.cls-7{fill:#171717;}.cls-8{fill:#9b6b65;}.cls-9{fill:#f37d3b;}.cls-10{fill:#e17437;}.cls-11{fill:#714c48;}</style></defs><title>minotaur</title><path class="cls-1" d="M68.57,64.72s23.51-9.4,15.86-22.49c0,0,7.67,5.07,7.67,22.49"/><path class="cls-1" d="M68.14,68S81.8,86.6,67.4,98.19L92.1,92.1V68Z"/><path class="cls-2" d="M84.43,68H79.32L72,75.25a32.53,32.53,0,0,1,1.25,3.87Z"/><path class="cls-2" d="M92.1,68H90.79L74,84.76c0,.53,0,1.06-.08,1.59L92.1,68.17Z"/><path class="cls-2" d="M91.92,60.46a42.89,42.89,0,0,0-.58-4.53l-8.8,8.79h5.12Z"/><rect class="cls-3" x="1.86" y="64.08" width="96.28" height="5.19" rx="1.17" ry="1.17"/><path class="cls-4" d="M59.61,4.73a19.4,19.4,0,0,1,3.24,2.16,17.93,17.93,0,0,1,2.76,2.69,12.48,12.48,0,0,1,2.11,3.57,13.25,13.25,0,0,1,.49,2.16,17.57,17.57,0,0,1-.1,2.19c-.62,2.87-2.48,4.53-4.1,6-.91.61-1.75,1.28-2.68,1.79l-2.79,1.46,2.08-2.3c.67-.76,1.19-1.64,1.77-2.42.94-1.67,1.67-3.48,1.35-4.79a4.55,4.55,0,0,0-2.57-2.8A10.83,10.83,0,0,0,59,13.49,10.23,10.23,0,0,0,56.7,13a4.56,4.56,0,1,1,2.19-8.62Z"/><polygon class="cls-3" points="59.61 4.73 61.27 5.72 57.73 13.14 56.7 12.98 59.61 4.73"/><path class="cls-3" d="M64.22,8.08a15.45,15.45,0,0,1,2.54,3.08L62.09,15a9.68,9.68,0,0,0-2-1.08Z"/><path class="cls-3" d="M68.21,15.26a7.86,7.86,0,0,1-.75,4.15l-3.64-1.15a3.37,3.37,0,0,0-.41-1.94Z"/><polygon class="cls-3" points="65.29 22.35 62.69 24.43 61.58 23.25 63.1 20.74 65.29 22.35"/><polygon class="cls-3" points="59.9 26.06 58.54 26.72 59.58 25.64 59.9 26.06"/><rect class="cls-5" x="54.87" y="0.95" width="3.73" height="14.11" rx="0.84" ry="0.84"/><polygon class="cls-6" points="36.09 59.24 51.03 63.34 35.03 86.98 31.02 84.31 36.09 59.24"/><polyline class="cls-6" points="36.51 87.22 38.79 96.87 32.45 88.28"/><path class="cls-6" d="M33.29,86.73l1.77-.47c.93-.24,1.44-1,1.12-1.76h0a2,2,0,0,0-2.27-.87l-1.78.47A1.35,1.35,0,0,0,31,85.86h0A2,2,0,0,0,33.29,86.73Z"/><path class="cls-6" d="M34.06,88.5,35.83,88c.94-.24,1.44-1,1.13-1.76h0a2,2,0,0,0-2.28-.87l-1.77.47c-.93.24-1.44,1-1.12,1.76h0A2,2,0,0,0,34.06,88.5Z"/><polygon class="cls-4" points="43.37 100 32.66 100 38.02 94.47 43.37 100"/><polygon class="cls-5" points="26.04 59.24 40.98 63.34 24.97 86.98 20.96 84.31 26.04 59.24"/><polyline class="cls-5" points="26.45 87.22 28.73 96.87 22.39 88.28"/><path class="cls-5" d="M23.23,86.73,25,86.26c.93-.24,1.44-1,1.12-1.76h0a2,2,0,0,0-2.27-.87l-1.77.47c-.94.24-1.44,1-1.12,1.76h0A2,2,0,0,0,23.23,86.73Z"/><path class="cls-5" d="M24,88.5,25.78,88c.93-.24,1.44-1,1.12-1.76h0a2,2,0,0,0-2.27-.87l-1.78.47c-.93.24-1.44,1-1.12,1.76h0A2,2,0,0,0,24,88.5Z"/><polygon class="cls-4" points="33.31 100 22.61 100 27.96 94.47 33.31 100"/><rect class="cls-6" x="51.61" y="25.82" width="9.94" height="36.14" rx="1.58" ry="1.58" transform="translate(113.15 87.78) rotate(180)"/><rect class="cls-6" x="48.35" y="58.89" width="16.08" height="13.51" rx="2.56" ry="2.56" transform="translate(112.78 131.3) rotate(-180)"/><rect class="cls-5" x="21.45" y="25.13" width="32.85" height="42.24" rx="7.42" ry="7.42" transform="translate(75.74 92.5) rotate(-180)"/><rect class="cls-5" x="19.34" y="21.95" width="37.23" height="17.52" rx="3.96" ry="3.96" transform="translate(75.91 61.42) rotate(180)"/><rect class="cls-5" x="31.88" y="4.43" width="21.3" height="28.47" rx="4.56" ry="4.56" transform="translate(85.07 37.33) rotate(-180)"/><path class="cls-4" d="M31.93,13a10.23,10.23,0,0,0-2.28.51,10.83,10.83,0,0,0-2.19.92,4.57,4.57,0,0,0-2.58,2.8c-.31,1.31.42,3.12,1.36,4.79.57.78,1.1,1.66,1.76,2.42l2.08,2.3L27.3,25.26c-.93-.51-1.77-1.18-2.69-1.79-1.62-1.44-3.47-3.1-4.09-6a17.57,17.57,0,0,1-.1-2.19,12.28,12.28,0,0,1,.49-2.16A12.26,12.26,0,0,1,23,9.58a17.93,17.93,0,0,1,2.76-2.69A19,19,0,0,1,29,4.73l.69-.36a4.56,4.56,0,1,1,4.2,8.1A4.73,4.73,0,0,1,31.93,13Z"/><polygon class="cls-3" points="31.93 12.98 30.9 13.14 27.35 5.72 29.02 4.73 31.93 12.98"/><path class="cls-3" d="M28.53,13.88a9.85,9.85,0,0,0-2,1.08l-4.68-3.8A16.17,16.17,0,0,1,24.4,8.08Z"/><path class="cls-3" d="M25.22,16.32a3.37,3.37,0,0,0-.41,1.94l-3.64,1.15a7.77,7.77,0,0,1-.75-4.15Z"/><polygon class="cls-3" points="25.52 20.74 27.05 23.25 25.93 24.43 23.33 22.35 25.52 20.74"/><polygon class="cls-3" points="29.05 25.64 30.08 26.72 28.73 26.06 29.05 25.64"/><circle class="cls-7" cx="36.65" cy="15.06" r="1.01"/><rect class="cls-5" x="32.86" width="24.8" height="14.03" rx="3.17" ry="3.17"/><rect class="cls-8" x="40.24" y="12.37" width="23.89" height="15.97" rx="3.61" ry="3.61"/><rect class="cls-8" x="50.77" y="10.8" width="3.51" height="6.12" rx="0.79" ry="0.79"/><rect class="cls-8" x="56.73" y="10.8" width="3.51" height="6.12" rx="0.79" ry="0.79"/><rect class="cls-5" x="31.09" y="0.95" width="3.73" height="14.11" rx="0.84" ry="0.84"/><rect class="cls-5" x="43.03" y="19.86" width="21.8" height="2.19" rx="0.49" ry="0.49"/><circle class="cls-7" cx="52.53" cy="12.59" r="0.86"/><circle class="cls-7" cx="58.49" cy="12.59" r="0.86"/><rect class="cls-9" x="32.19" y="59.24" width="19.24" height="18.6"/><rect class="cls-10" x="35.54" y="61.96" width="2.33" height="12.79" rx="0.53" ry="0.53"/><rect class="cls-10" x="41.37" y="61.96" width="2.33" height="12.79" rx="0.53" ry="0.53"/><rect class="cls-10" x="47.2" y="61.96" width="2.33" height="12.79" rx="0.53" ry="0.53"/><rect class="cls-9" x="22.39" y="59.24" width="13.15" height="2.01" rx="0.45" ry="0.45"/><rect class="cls-6" x="15.3" y="34.69" width="9.94" height="30.96" rx="1.46" ry="1.46" transform="translate(40.55 100.34) rotate(180)"/><rect class="cls-6" x="56.71" y="28.41" width="7.06" height="15.73" rx="1.6" ry="1.6"/><rect class="cls-8" x="37.05" y="40.01" width="7.37" height="5.28" rx="1.19" ry="1.19"/><rect class="cls-8" x="31.56" y="31" width="12.19" height="8.72" rx="1.97" ry="1.97"/><rect class="cls-8" x="36.44" y="31" width="12.19" height="8.72" rx="1.97" ry="1.97"/><rect class="cls-8" x="35.89" y="31" width="12.19" height="8.72" rx="1.97" ry="1.97"/><rect class="cls-8" x="40.77" y="31" width="12.19" height="8.72" rx="1.97" ry="1.97"/><rect class="cls-8" x="44.68" y="40.01" width="7.37" height="5.28" rx="1.19" ry="1.19"/><rect class="cls-8" x="37.05" y="45.29" width="7.37" height="5.28" rx="1.19" ry="1.19"/><rect class="cls-8" x="44.68" y="45.29" width="7.37" height="5.28" rx="1.19" ry="1.19"/><rect class="cls-8" x="37.05" y="50.57" width="7.37" height="5.28" rx="1.19" ry="1.19"/><rect class="cls-8" x="44.68" y="50.57" width="7.37" height="5.28" rx="1.19" ry="1.19"/><circle class="cls-11" cx="35.17" cy="35.48" r="0.79"/><circle class="cls-11" cx="50.77" cy="35.48" r="0.79"/><rect class="cls-5" x="13.37" y="22.53" width="9.94" height="36.14" rx="1.58" ry="1.58" transform="translate(36.67 81.2) rotate(180)"/><rect class="cls-5" x="10.11" y="55.6" width="16.08" height="13.51" rx="2.56" ry="2.56" transform="translate(36.31 124.72) rotate(-180)"/><rect class="cls-5" x="11.28" y="27.57" width="7.06" height="15.73" rx="1.6" ry="1.6"/><rect class="cls-3" x="57.82" y="64.08" width="16.23" height="5.19" rx="1.17" ry="1.17"/></svg>