<svg id="Layer_1" data-name="Layer 1" xmlns="http://www.w3.org/2000/svg" viewBox="0 0 100 100"><defs><style>.cls-1{fill:#089b7b;}.cls-2{fill:#09a582;}.cls-3{fill:#059072;}</style></defs><title>vase</title><ellipse class="cls-1" cx="50" cy="95.23" rx="12.32" ry="4.77"/><path class="cls-2" d="M65.21,44.17c4.32,8.48,6.82,19.7,4.27,35.59C67.17,94.55,59.81,97.47,50,96.82c-9.81.65-17.17-2.27-19.48-17.06C28,63.87,30.47,52.65,34.79,44.17,44.92,27.28,48.42,8.18,50,8.26,51.58,8.18,55.08,27.28,65.21,44.17Z"/><path class="cls-2" d="M41.75,15.18A9.65,9.65,0,0,1,39.43,4.93C40.68.68,44.68-.16,50,0c5.32-.18,9.32.66,10.57,4.91a9.65,9.65,0,0,1-2.32,10.25C52.76,20,50.86,25.54,50,25.52S47.24,20,41.75,15.18Z"/><ellipse class="cls-3" cx="50" cy="3.38" rx="6.98" ry="1.81"/><rect class="cls-2" x="43.72" y="18.17" width="12.16" height="3.13" rx="0.55" ry="0.55"/><rect class="cls-2" x="42.58" y="20.74" width="14.41" height="3.7" rx="0.65" ry="0.65"/><rect class="cls-2" x="42.58" y="23.66" width="14.41" height="3.7" rx="0.65" ry="0.65"/><path class="cls-1" d="M70.48,65.9a56.35,56.35,0,0,0-.82-8.26c-17.11,12.15-35.93,2-39.32,0a55.83,55.83,0,0,0-.81,8.2,45.32,45.32,0,0,0,21.64,6A34.53,34.53,0,0,0,70.48,65.9Z"/><path class="cls-1" d="M31.82,75.79a42,42,0,0,1-1.91-4.39,35.38,35.38,0,0,0,4.42-1.25,38.91,38.91,0,0,0,2,4.11A39.31,39.31,0,0,1,31.82,75.79Z"/><path class="cls-1" d="M40.76,78.68A41.31,41.31,0,0,1,38,74.8a34.61,34.61,0,0,0,4-2.16,38.67,38.67,0,0,0,2.77,3.59A39.42,39.42,0,0,1,40.76,78.68Z"/><path class="cls-1" d="M50,79.65a40.82,40.82,0,0,1-3.44-3.23,38.27,38.27,0,0,0,3.44-3,38,38,0,0,0,3.44,3A39.34,39.34,0,0,1,50,79.65Z"/><path class="cls-1" d="M59.25,78.68a38.52,38.52,0,0,1-4-2.45A37,37,0,0,0,58,72.64a35.46,35.46,0,0,0,4,2.16A41.19,41.19,0,0,1,59.25,78.68Z"/><path class="cls-1" d="M68.18,75.79a38.51,38.51,0,0,1-4.51-1.53,38.81,38.81,0,0,0,2-4.11,35.87,35.87,0,0,0,4.42,1.25A42,42,0,0,1,68.18,75.79Z"/></svg>