<svg id="Layer_1" data-name="Layer 1" xmlns="http://www.w3.org/2000/svg" viewBox="0 0 100 100"><defs><style>.cls-1{fill:#c5c7c9;}.cls-2{fill:#e3e4e5;}.cls-3{fill:#171717;}.cls-4{fill:#fff;}.cls-5{fill:#87898b;}.cls-6{fill:#bcd2de;}.cls-7{fill:#f37d3b;}</style></defs><title>space station</title><rect class="cls-1" x="26.55" y="52.06" width="12.07" height="2.7" rx="0.43" ry="0.43" transform="translate(93.38 68.14) rotate(135)"/><rect class="cls-1" x="40.52" y="66.03" width="12.07" height="2.7" rx="0.43" ry="0.43" transform="translate(127.11 82.11) rotate(135)"/><rect class="cls-2" x="27.78" y="67.53" width="12.14" height="33.36" rx="0.73" ry="0.73" transform="translate(69.46 0.73) rotate(45)"/><rect class="cls-3" x="19.92" y="89.57" width="4.69" height="4.55" rx="0.66" ry="0.66" transform="translate(71.46 11.15) rotate(45)"/><rect class="cls-3" x="23.79" y="93.43" width="4.69" height="4.55" rx="0.66" ry="0.66" transform="translate(75.33 9.55) rotate(45)"/><rect class="cls-3" x="23.85" y="85.64" width="4.69" height="4.55" rx="0.66" ry="0.66" transform="translate(69.84 7.23) rotate(45)"/><rect class="cls-3" x="27.71" y="89.51" width="4.69" height="4.55" rx="0.66" ry="0.66" transform="translate(73.7 5.63) rotate(45)"/><rect class="cls-3" x="27.78" y="81.72" width="4.69" height="4.55" rx="0.66" ry="0.66" transform="translate(68.21 3.3) rotate(45)"/><rect class="cls-3" x="31.64" y="85.58" width="4.69" height="4.55" rx="0.66" ry="0.66" transform="translate(72.07 1.7) rotate(45)"/><rect class="cls-3" x="31.7" y="77.79" width="4.69" height="4.55" rx="0.66" ry="0.66" transform="translate(66.59 -0.62) rotate(45)"/><rect class="cls-3" x="35.56" y="81.65" width="4.69" height="4.55" rx="0.66" ry="0.66" transform="translate(70.45 -2.22) rotate(45)"/><rect class="cls-3" x="35.63" y="73.86" width="4.69" height="4.55" rx="0.66" ry="0.66" transform="translate(64.96 -4.55) rotate(45)"/><rect class="cls-3" x="39.49" y="77.73" width="4.69" height="4.55" rx="0.66" ry="0.66" transform="translate(68.82 -6.15) rotate(45)"/><rect class="cls-2" x="9.72" y="49.47" width="12.14" height="33.36" rx="0.73" ry="0.73" transform="translate(51.4 8.21) rotate(45)"/><rect class="cls-3" x="1.86" y="71.5" width="4.69" height="4.55" rx="0.66" ry="0.66" transform="translate(53.4 18.64) rotate(45)"/><rect class="cls-3" x="5.72" y="75.37" width="4.69" height="4.55" rx="0.66" ry="0.66" transform="translate(57.26 17.04) rotate(45)"/><rect class="cls-3" x="5.78" y="67.58" width="4.69" height="4.55" rx="0.66" ry="0.66" transform="translate(51.77 14.71) rotate(45)"/><rect class="cls-3" x="9.65" y="71.44" width="4.69" height="4.55" rx="0.66" ry="0.66" transform="translate(55.64 13.11) rotate(45)"/><rect class="cls-3" x="9.71" y="63.65" width="4.69" height="4.55" rx="0.66" ry="0.66" transform="translate(50.15 10.78) rotate(45)"/><rect class="cls-3" x="13.57" y="67.51" width="4.69" height="4.55" rx="0.66" ry="0.66" transform="translate(54.01 9.18) rotate(45)"/><rect class="cls-3" x="13.64" y="59.73" width="4.69" height="4.55" rx="0.66" ry="0.66" transform="translate(48.52 6.86) rotate(45)"/><rect class="cls-3" x="17.5" y="63.59" width="4.69" height="4.55" rx="0.66" ry="0.66" transform="translate(52.38 5.26) rotate(45)"/><rect class="cls-3" x="17.56" y="55.8" width="4.69" height="4.55" rx="0.66" ry="0.66" transform="translate(46.89 2.93) rotate(45)"/><rect class="cls-3" x="21.43" y="59.66" width="4.69" height="4.55" rx="0.66" ry="0.66" transform="translate(50.76 1.33) rotate(45)"/><rect class="cls-1" x="47.38" y="31.23" width="12.07" height="2.7" rx="0.43" ry="0.43" transform="translate(-7.39 47.31) rotate(-45)"/><rect class="cls-1" x="61.35" y="45.2" width="12.07" height="2.7" rx="0.43" ry="0.43" transform="translate(-13.18 61.28) rotate(-45)"/><path class="cls-4" d="M36.36,72.1a.72.72,0,0,1-.7.18L29.77,70.7a.7.7,0,0,1-.51-.51L27.68,64.3a.72.72,0,0,1,.18-.7l4.32-4.31a.7.7,0,0,1,.7-.19l29.3-21.83a.71.71,0,0,1,.51.51L40.86,67.08a.72.72,0,0,1-.18.7Z"/><path class="cls-4" d="M32.69,59.8,62,38,40.16,67.27l-4.31,4.31L30,70l-1.58-5.9,4.31-4.31m-1-1-4.32,4.32a1.44,1.44,0,0,0-.37,1.4l1.58,5.89a1.42,1.42,0,0,0,1,1L35.47,73a1.44,1.44,0,0,0,1.4-.37l4.32-4.32a1.43,1.43,0,0,0,.37-1.39L63.39,37.59a1.42,1.42,0,0,0-1-1L33.07,58.4a1.47,1.47,0,0,0-1.4.37Z"/><path class="cls-4" d="M67.52,40.94a.73.73,0,0,1-.7.19L37.52,63a.74.74,0,0,1-.52-.51L58.83,33.14a.76.76,0,0,1,.19-.7l4.31-4.31a.76.76,0,0,1,.7-.19l5.9,1.58a.73.73,0,0,1,.51.51L72,35.93a.73.73,0,0,1-.19.7Z"/><path class="cls-4" d="M63.85,28.64l5.89,1.58,1.58,5.89L67,40.43,37.7,62.26,59.53,33l4.32-4.32m-1-1-4.31,4.31a1.45,1.45,0,0,0-.38,1.4L36.3,62.63a1.48,1.48,0,0,0,1,1l29.3-21.83a1.45,1.45,0,0,0,1.4-.38l4.31-4.31a1.45,1.45,0,0,0,.38-1.4l-1.58-5.89a1.48,1.48,0,0,0-1-1l-5.89-1.58a1.45,1.45,0,0,0-1.4.38Z"/><rect class="cls-4" x="27.69" y="43.08" width="44.9" height="13.46" transform="translate(-20.54 50.05) rotate(-45)"/><path class="cls-4" d="M68.48,54.65a1.21,1.21,0,0,1,.31,1.16l-2.62,9.78a1.2,1.2,0,0,1-.85.84l-9.78,2.62a1.19,1.19,0,0,1-1.16-.31l-7.15-7.15a1.19,1.19,0,0,1-.31-1.16l2.62-9.78a1.2,1.2,0,0,1,.85-.85l9.77-2.62a1.21,1.21,0,0,1,1.16.31Z"/><path class="cls-4" d="M48.08,60.74,50.7,51l9.77-2.62,7.16,7.16L65,65.27l-9.78,2.62-7.15-7.15m-1.7,1.7,7.16,7.15a2.36,2.36,0,0,0,2.31.62l9.78-2.62a2.4,2.4,0,0,0,1.7-1.69L70,56.12a2.42,2.42,0,0,0-.62-2.32l-7.16-7.15A2.4,2.4,0,0,0,59.85,46l-9.77,2.62a2.41,2.41,0,0,0-1.7,1.7l-2.62,9.78a2.4,2.4,0,0,0,.62,2.32Z"/><path class="cls-4" d="M55.63,41.8A1.21,1.21,0,0,1,55.94,43l-2.62,9.78a1.2,1.2,0,0,1-.85.84L42.69,56.2a1.17,1.17,0,0,1-1.16-.31l-7.15-7.15a1.22,1.22,0,0,1-.31-1.16l2.62-9.78a1.2,1.2,0,0,1,.85-.85l9.77-2.62a1.21,1.21,0,0,1,1.16.31Z"/><path class="cls-4" d="M35.23,47.89l2.62-9.78,9.77-2.62,7.16,7.16-2.62,9.78L42.38,55l-7.15-7.15m-1.7,1.7,7.16,7.15a2.37,2.37,0,0,0,2.32.62l9.77-2.62a2.38,2.38,0,0,0,1.7-1.69l2.62-9.78A2.42,2.42,0,0,0,56.48,41L49.32,33.8A2.4,2.4,0,0,0,47,33.17l-9.77,2.62a2.41,2.41,0,0,0-1.7,1.7l-2.62,9.78a2.4,2.4,0,0,0,.62,2.32Z"/><rect class="cls-4" x="41.15" y="40.03" width="19.57" height="22.33" transform="translate(50.75 123.42) rotate(-135)"/><path class="cls-2" d="M52.66,64.71l2.88,2.88a1,1,0,0,0,1,.26l8.17-2.19a1,1,0,0,0,.71-.71l2.19-8.18a1,1,0,0,0-.26-1l-2.87-2.88Z"/><path class="cls-1" d="M61.34,49.82a1,1,0,0,0-1-.26L52.2,51.75a1,1,0,0,0-.71.71L49.3,60.64a1,1,0,0,0,.26,1l3.1,3.1L64.45,52.93Z"/><rect class="cls-1" x="52.13" y="62.17" width="2.82" height="2.85" rx="0.32" ry="0.32" transform="translate(-29.29 56.49) rotate(-45)"/><rect class="cls-1" x="54.58" y="59.72" width="2.82" height="2.85" rx="0.32" ry="0.32" transform="translate(-26.84 57.5) rotate(-45)"/><rect class="cls-1" x="57.03" y="57.27" width="2.82" height="2.85" rx="0.32" ry="0.32" transform="translate(-24.39 58.51) rotate(-45)"/><rect class="cls-1" x="59.47" y="54.83" width="2.82" height="2.85" rx="0.32" ry="0.32" transform="translate(-21.95 59.53) rotate(-45)"/><rect class="cls-1" x="61.92" y="52.38" width="2.82" height="2.85" rx="0.32" ry="0.32" transform="translate(-19.5 60.54) rotate(-45)"/><circle class="cls-5" cx="56.3" cy="66.62" r="0.37"/><circle class="cls-5" cx="66.58" cy="56.35" r="0.37"/><circle class="cls-5" cx="50.69" cy="61.01" r="0.37"/><circle class="cls-5" cx="60.96" cy="50.73" r="0.37"/><circle class="cls-2" cx="33.16" cy="66.84" r="3.36"/><circle class="cls-6" cx="33.16" cy="66.84" r="2.49"/><circle class="cls-2" cx="38.94" cy="61.06" r="3.36"/><circle class="cls-6" cx="38.94" cy="61.06" r="2.49"/><circle class="cls-2" cx="60.67" cy="39.33" r="3.36"/><circle class="cls-6" cx="60.67" cy="39.33" r="2.49"/><circle class="cls-2" cx="66.44" cy="33.56" r="3.36"/><circle class="cls-6" cx="66.44" cy="33.56" r="2.49"/><rect class="cls-2" x="78.14" y="17.17" width="12.14" height="33.36" rx="0.73" ry="0.73" transform="translate(48.6 -49.63) rotate(45)"/><rect class="cls-3" x="89.5" y="20" width="4.69" height="4.55" rx="0.66" ry="0.66" transform="translate(42.65 -58.42) rotate(45)"/><rect class="cls-3" x="93.36" y="23.86" width="4.69" height="4.55" rx="0.66" ry="0.66" transform="translate(46.51 -60.02) rotate(45)"/><rect class="cls-3" x="85.57" y="23.92" width="4.69" height="4.55" rx="0.66" ry="0.66" transform="translate(44.27 -54.49) rotate(45)"/><rect class="cls-3" x="89.43" y="27.78" width="4.69" height="4.55" rx="0.66" ry="0.66" transform="translate(48.14 -56.09) rotate(45)"/><rect class="cls-3" x="81.64" y="27.85" width="4.69" height="4.55" rx="0.66" ry="0.66" transform="translate(45.9 -50.57) rotate(45)"/><rect class="cls-3" x="85.51" y="31.71" width="4.69" height="4.55" rx="0.66" ry="0.66" transform="translate(49.76 -52.17) rotate(45)"/><rect class="cls-3" x="77.72" y="31.77" width="4.69" height="4.55" rx="0.66" ry="0.66" transform="translate(47.53 -46.64) rotate(45)"/><rect class="cls-3" x="81.58" y="35.64" width="4.69" height="4.55" rx="0.66" ry="0.66" transform="translate(51.39 -48.24) rotate(45)"/><rect class="cls-3" x="73.79" y="35.7" width="4.69" height="4.55" rx="0.66" ry="0.66" transform="translate(49.15 -42.72) rotate(45)"/><rect class="cls-3" x="77.66" y="39.56" width="4.69" height="4.55" rx="0.66" ry="0.66" transform="translate(53.01 -44.32) rotate(45)"/><rect class="cls-2" x="60.08" y="-0.89" width="12.14" height="33.36" rx="0.73" ry="0.73" transform="translate(30.54 -42.15) rotate(45)"/><rect class="cls-3" x="71.43" y="1.93" width="4.69" height="4.55" rx="0.66" ry="0.66" transform="translate(24.58 -50.94) rotate(45)"/><rect class="cls-3" x="75.3" y="5.79" width="4.69" height="4.55" rx="0.66" ry="0.66" transform="translate(28.44 -52.54) rotate(45)"/><rect class="cls-3" x="67.51" y="5.86" width="4.69" height="4.55" rx="0.66" ry="0.66" transform="translate(26.21 -47.01) rotate(45)"/><rect class="cls-3" x="71.37" y="9.72" width="4.69" height="4.55" rx="0.66" ry="0.66" transform="translate(30.07 -48.61) rotate(45)"/><rect class="cls-3" x="63.58" y="9.78" width="4.69" height="4.55" rx="0.66" ry="0.66" transform="translate(27.83 -43.09) rotate(45)"/><rect class="cls-3" x="67.44" y="13.65" width="4.69" height="4.55" rx="0.66" ry="0.66" transform="translate(31.7 -44.68) rotate(45)"/><rect class="cls-3" x="59.65" y="13.71" width="4.69" height="4.55" rx="0.66" ry="0.66" transform="translate(29.46 -39.16) rotate(45)"/><rect class="cls-3" x="63.52" y="17.57" width="4.69" height="4.55" rx="0.66" ry="0.66" transform="translate(33.32 -40.76) rotate(45)"/><rect class="cls-3" x="55.73" y="17.64" width="4.69" height="4.55" rx="0.66" ry="0.66" transform="translate(31.09 -35.23) rotate(45)"/><rect class="cls-3" x="59.59" y="21.5" width="4.69" height="4.55" rx="0.66" ry="0.66" transform="translate(34.95 -36.83) rotate(45)"/><rect class="cls-7" x="36.59" y="45.5" width="1.04" height="6.35" rx="0.25" ry="0.25" transform="translate(-23.55 40.5) rotate(-45)"/><rect class="cls-7" x="37.1" y="43.47" width="1.04" height="6.35" rx="0.25" ry="0.25" transform="translate(-21.96 40.26) rotate(-45)"/></svg>