<svg id="Layer_1" data-name="Layer 1" xmlns="http://www.w3.org/2000/svg" viewBox="0 0 100 100"><defs><style>.cls-1{fill:#fff;}.cls-2{fill:#f38692;}.cls-3{fill:#ef6183;}</style></defs><title>soap</title><circle class="cls-1" cx="17.11" cy="74.01" r="4.84"/><rect class="cls-2" x="9.3" y="24.49" width="88.62" height="51.01" rx="7.3" ry="7.3" transform="translate(-19.65 52.55) rotate(-45)"/><rect class="cls-3" x="19.45" y="28.96" width="70.19" height="40.4" rx="5.78" ry="5.78" transform="translate(-18.79 52.97) rotate(-45)"/><rect class="cls-2" x="15.97" y="28.87" width="70.19" height="40.4" rx="5.78" ry="5.78" transform="translate(-19.74 50.48) rotate(-45)"/><rect class="cls-3" x="14.46" y="39.35" width="58.07" height="4.91" rx="1.17" ry="1.17" transform="translate(-16.82 43) rotate(-45)"/><rect class="cls-3" x="21.93" y="46.82" width="58.07" height="4.91" rx="1.17" ry="1.17" transform="translate(-19.91 50.47) rotate(-45)"/><rect class="cls-3" x="29.39" y="54.28" width="58.07" height="4.91" rx="1.17" ry="1.17" transform="translate(-23.01 57.93) rotate(-45)"/><circle class="cls-1" cx="9.91" cy="60.99" r="4.84"/><circle class="cls-1" cx="15.44" cy="66.53" r="4.84"/><circle class="cls-1" cx="10.41" cy="70.35" r="4.84"/><circle class="cls-1" cx="10.71" cy="54.33" r="3.65"/><circle class="cls-1" cx="15.78" cy="57.72" r="3.65"/><circle class="cls-1" cx="17.42" cy="61.66" r="3.65"/><circle class="cls-1" cx="20.02" cy="47.52" r="2.76"/><circle class="cls-1" cx="22.52" cy="59.3" r="2.76"/><circle class="cls-1" cx="23.64" cy="55.68" r="1.64"/><circle class="cls-1" cx="20.21" cy="71.3" r="2.76"/><circle class="cls-1" cx="2.11" cy="62.93" r="2.05"/></svg>