<svg id="Layer_1" data-name="Layer 1" xmlns="http://www.w3.org/2000/svg" viewBox="0 0 100 100"><defs><style>.cls-1{fill:#6ab8d9;}.cls-2{fill:#fff;}.cls-3{fill:#69b7d9;}.cls-4{fill:#58595b;}.cls-5{fill:#f37d3b;}.cls-6{fill:#ffc63f;}.cls-7{fill:#171717;}.cls-8{fill:#4a4a4c;}</style></defs><title>fountain</title><path class="cls-1" d="M49.46,61.89A6.43,6.43,0,0,1,43,55.46V23.23a2.88,2.88,0,1,0-5.75,0,6.44,6.44,0,0,1-12.87,0,15.75,15.75,0,0,1,31.5,0V55.46A6.44,6.44,0,0,1,49.46,61.89Z"/><path class="cls-1" d="M49.46,61.89A6.43,6.43,0,0,1,43,55.46V23.23a15.75,15.75,0,1,1,31.5,0,6.44,6.44,0,0,1-12.87,0,2.88,2.88,0,1,0-5.75,0V55.46A6.44,6.44,0,0,1,49.46,61.89Z"/><rect class="cls-2" x="47.68" y="20.38" width="4.2" height="32.98" rx="0.93" ry="0.93"/><path class="cls-3" d="M77,32.31a1.41,1.41,0,0,1-2.82,0c0-.78,1.41-2.85,1.41-2.85S77,31.53,77,32.31Z"/><path class="cls-3" d="M73.59,38.93a3.09,3.09,0,1,1-6.17,0c0-1.7,3.08-6.23,3.08-6.23S73.59,37.23,73.59,38.93Z"/><path class="cls-3" d="M27.07,34.35a1.82,1.82,0,0,1-3.63,0c0-1,1.82-3.67,1.82-3.67S27.07,33.35,27.07,34.35Z"/><rect class="cls-4" x="22.56" y="54.94" width="54.44" height="15.41" rx="3.42" ry="3.42"/><circle class="cls-3" cx="34.32" cy="59.17" r="1.85"/><circle class="cls-3" cx="36.38" cy="57.54" r="1.85"/><circle class="cls-3" cx="33.28" cy="61.01" r="1.26"/><path class="cls-3" d="M42.55,54.94h-12a3.12,3.12,0,0,0,6,1.74,3.12,3.12,0,0,0,6-1.74Z"/><path class="cls-5" d="M12.76,58.63a12.17,12.17,0,0,0,4.71-1,.52.52,0,0,0,.25-.69.51.51,0,0,0-.69-.25,10.46,10.46,0,0,1-6.55.58.53.53,0,0,0-.65.34.53.53,0,0,0,.35.66A8.7,8.7,0,0,0,12.76,58.63Z"/><path class="cls-5" d="M17.25,61.46a.53.53,0,0,0,.52-.51.52.52,0,0,0-.5-.54,50.51,50.51,0,0,1-7.11-2.23.52.52,0,0,0-.36,1c.62.23,6.12,2.25,7.43,2.3Z"/><polygon class="cls-5" points="17.62 57.28 19.91 59.35 17.49 61.11 10.33 58.59 11.88 58.19 17.62 57.28"/><path class="cls-6" d="M13.19,69.56c0,3.32,3.51,3.25,7.84,3.25s7.84.07,7.84-3.25-3.51-6-7.84-6S13.19,66.24,13.19,69.56Z"/><path class="cls-6" d="M14.32,60.58c.95,2.05,5.27,7,7.32,6.09s1.07-7.47.13-9.53a4.1,4.1,0,0,0-7.45,3.44Z"/><circle class="cls-7" cx="20.37" cy="58.21" r="0.46"/><path class="cls-5" d="M14.19,57.47s.1,1.42,1,1.52a3,3,0,0,0-.82,1.76l-1.74-2.19"/><path class="cls-6" d="M27.4,67.36s2.22-1.22,1.47-4.86c0,0-.34,1.82-1.19,1.72a2.48,2.48,0,0,0,0-1.35s-.28,2-3,2.63"/><rect class="cls-3" x="58.77" y="54.94" width="6.31" height="14.09"/><rect class="cls-3" x="48.72" y="54.94" width="3.16" height="14.09"/><rect class="cls-4" y="69.03" width="100" height="23.5" rx="5.21" ry="5.21"/><circle class="cls-8" cx="21.57" cy="76.5" r="1.45"/><circle class="cls-8" cx="26.75" cy="85.05" r="1.45"/><circle class="cls-8" cx="50.07" cy="85.05" r="1.45"/><circle class="cls-8" cx="73.39" cy="85.05" r="1.45"/><circle class="cls-8" cx="32.94" cy="76.5" r="1.45"/><circle class="cls-8" cx="44.31" cy="76.5" r="1.45"/><circle class="cls-8" cx="55.69" cy="76.5" r="1.45"/><circle class="cls-8" cx="67.06" cy="76.5" r="1.45"/><circle class="cls-8" cx="78.43" cy="76.5" r="1.45"/></svg>