<svg id="Layer_1" data-name="Layer 1" xmlns="http://www.w3.org/2000/svg" viewBox="0 0 100 100"><defs><style>.cls-1{fill:#7d7d7d;}</style></defs><title>needle</title><path class="cls-1" d="M6.35,100a6.33,6.33,0,0,1-4.62-1.73c-1.18-1.19-2.84-4-.68-9.44A32.08,32.08,0,0,1,8.22,78.48a32.16,32.16,0,0,1,10.34-7.16c5.45-2.16,8.25-.5,9.44.68s2.85,4,.68,9.44a31.89,31.89,0,0,1-7.17,10.34A31.94,31.94,0,0,1,11.17,99,13.18,13.18,0,0,1,6.35,100Zm17-24.9a8.64,8.64,0,0,0-3.06.71,27.65,27.65,0,0,0-8.71,6.09,27.65,27.65,0,0,0-6.09,8.71c-.9,2.28-.84,3.79-.39,4.24s2,.51,4.24-.39a27.65,27.65,0,0,0,8.71-6.09,27.76,27.76,0,0,0,6.09-8.71c.9-2.28.84-3.8.39-4.24h0A1.66,1.66,0,0,0,23.4,75.1Z"/><polygon class="cls-1" points="21.52 71.21 100 0 28.79 78.48 21.52 71.21"/></svg>