<svg id="Layer_1" data-name="Layer 1" xmlns="http://www.w3.org/2000/svg" viewBox="0 0 100 100"><defs><style>.cls-1{fill:#7d7d7d;}.cls-2{fill:#fcca98;}.cls-3{fill:#895e59;}.cls-4{fill:#f37d3b;}</style></defs><title>drum</title><path class="cls-1" d="M53.87,14.16c-17.13,0-46.13,3.48-46.13,16.5h0V69.34h0v0c.07,13,29,16.46,46.13,16.46S99.93,82.37,100,69.38v0h0V30.66C100,17.64,71,14.16,53.87,14.16Z"/><ellipse class="cls-2" cx="53.87" cy="30.66" rx="41.63" ry="12"/><rect class="cls-3" x="7.65" y="27.37" width="53.23" height="5.44" rx="1.21" ry="1.21"/><ellipse class="cls-3" cx="62.83" cy="30.09" rx="9.05" ry="4.7"/><rect class="cls-3" y="18.65" width="48.31" height="4.94" rx="1.1" ry="1.1"/><ellipse class="cls-3" cx="50.08" cy="21.12" rx="8.21" ry="4.27"/><path class="cls-4" d="M35.94,49.38a5.74,5.74,0,0,1,1-3.25c-2.56-.31-5.11-.71-7.59-1.2a6.1,6.1,0,0,1,.11,1.13A5.68,5.68,0,0,1,26,51.29V69.83a5.68,5.68,0,0,1,3.45,5.23,5.61,5.61,0,0,1-1.38,3.69c2.51.57,5.23,1.07,8.16,1.46a5.55,5.55,0,0,1-.31-1.84,5.7,5.7,0,0,1,3.44-5.23V54.61A5.7,5.7,0,0,1,35.94,49.38Z"/><path class="cls-4" d="M18.08,46.06a5.64,5.64,0,0,1,1.45-3.78,28.3,28.3,0,0,1-7.29-3.78V69.34a4.12,4.12,0,0,0,.85,2.42,7.59,7.59,0,0,0,1,1.15,15,15,0,0,0,3.15,2.15l.85.41c0-.14,0-.27,0-.41a5.69,5.69,0,0,1,3.44-5.23V51.29A5.69,5.69,0,0,1,18.08,46.06Z"/><path class="cls-4" d="M79,46.61a5.77,5.77,0,0,1,.32-1.86c-2.56.53-5.2,1-7.86,1.3a5.7,5.7,0,0,1-2.37,8.56V73.14a5.69,5.69,0,0,1,3.44,5.23,5.75,5.75,0,0,1-.26,1.73c2.73-.39,5.3-.86,7.65-1.4a5.68,5.68,0,0,1,2.53-8.32V51.84A5.68,5.68,0,0,1,79,46.61Z"/><path class="cls-4" d="M61.11,49.38a5.68,5.68,0,0,1,.56-2.44c-2.76.15-5.4.22-7.8.22-2.19,0-4.58,0-7.08-.18a5.67,5.67,0,0,1-2.91,7.63V73.14a5.69,5.69,0,0,1,2.72,8c2.36.12,4.79.18,7.27.18q4.08,0,8-.23a5.61,5.61,0,0,1-.71-2.74,5.69,5.69,0,0,1,3.45-5.23V54.61A5.69,5.69,0,0,1,61.11,49.38Z"/><path class="cls-4" d="M88.32,42.24a5.69,5.69,0,0,1-1.4,9.6V70.38a5.67,5.67,0,0,1,3.41,4.75l.14-.07a14.84,14.84,0,0,0,3.16-2.15,7.59,7.59,0,0,0,1-1.15,4.12,4.12,0,0,0,.85-2.42V38.5A28.28,28.28,0,0,1,88.32,42.24Z"/></svg>