<svg id="Layer_1" data-name="Layer 1" xmlns="http://www.w3.org/2000/svg" viewBox="0 0 100 100"><defs><style>.cls-1{fill:#fff;}.cls-2{fill:#eaebec;}.cls-3{fill:#fcca98;}</style></defs><title>batter</title><path class="cls-1" d="M99.33,25.77C99.33,73.5,79,87.46,53.81,87.46S8.28,73.5,8.28,25.77"/><path class="cls-2" d="M99.3,27.92c0-.72,0-1.42,0-2.15h-91c0,1.95.05,3.81.12,5.65,9,2.38,24.24,3.95,41.6,3.95C74.88,35.37,95.46,32.14,99.3,27.92Z"/><ellipse class="cls-1" cx="50" cy="24.4" rx="50" ry="8.88"/><ellipse class="cls-2" cx="54.33" cy="24.8" rx="35.6" ry="4.6"/><path class="cls-3" d="M68.59,21.59c-.3,0-.6,0-.9.05a8.06,8.06,0,0,0,.13-1.1,4.68,4.68,0,0,0,.07-.54A7.44,7.44,0,0,0,53,19.23a11.1,11.1,0,0,0-4.16-.82,10.83,10.83,0,0,0-6.33,2.05,11.28,11.28,0,0,0-3.26,3.61,9,9,0,0,0-12.23,3.69A194.33,194.33,0,0,0,54.33,29.4a188,188,0,0,0,28-1.76A18.53,18.53,0,0,0,68.59,21.59Z"/><rect class="cls-3" x="63.01" y="24.4" width="9.05" height="19.7" rx="1.9" ry="1.9"/><rect class="cls-3" x="69.78" y="24.4" width="9.05" height="35.15" rx="1.9" ry="1.9"/></svg>