<svg id="Layer_1" data-name="Layer 1" xmlns="http://www.w3.org/2000/svg" viewBox="0 0 100 100"><defs><style>.cls-1{fill:#7d7d7d;}.cls-2{fill:#ffc640;}.cls-3{fill:#bcd2de;}.cls-4{fill:#f37d3b;}.cls-5{fill:#171717;}.cls-6{fill:#c96730;}.cls-7{fill:#575757;}</style></defs><title>snowmobile</title><rect class="cls-1" x="70.05" y="58.24" width="5.33" height="15.72" rx="1.33" ry="1.33" transform="translate(-25.44 70.78) rotate(-45)"/><rect class="cls-2" x="86.04" y="43.32" width="2.65" height="8.14" rx="0.66" ry="0.66"/><rect class="cls-1" x="51.27" y="37.07" width="1.88" height="9.25" rx="0.47" ry="0.47" transform="translate(-14.19 49.13) rotate(-45)"/><rect class="cls-3" x="57.62" y="24.82" width="8.81" height="19.9" rx="2.2" ry="2.2" transform="matrix(0.96, -0.27, 0.27, 0.96, -7.01, 17.73)"/><path class="cls-4" d="M70.49,64.85H12.87a9.21,9.21,0,0,1-9.18-9.18h0a9.21,9.21,0,0,1,9.18-9.18h36l9.25-7.8H70.49c5,0,19.69,11.93,19.69,17h0C90.18,60.72,75.53,64.85,70.49,64.85Z"/><rect class="cls-5" x="6.14" y="40.88" width="15.77" height="11.22" rx="2.8" ry="2.8"/><rect class="cls-5" x="17.71" y="40.88" width="15.77" height="11.22" rx="2.8" ry="2.8"/><rect class="cls-5" x="29.28" y="40.88" width="15.77" height="11.22" rx="2.8" ry="2.8"/><circle class="cls-5" cx="49.26" cy="38.73" r="2.32"/><path class="cls-4" d="M86,42.72a5,5,0,1,0,0,10h1.16v-10Z"/><rect class="cls-6" x="58.17" y="46.49" width="2.56" height="11.66" rx="0.64" ry="0.64"/><rect class="cls-6" x="63.3" y="46.49" width="2.56" height="11.66" rx="0.64" ry="0.64"/><rect class="cls-6" x="68.43" y="46.49" width="2.56" height="11.66" rx="0.64" ry="0.64"/><rect class="cls-5" y="59.7" width="45.05" height="15.78" rx="3.95" ry="3.95"/><rect class="cls-1" x="3.29" y="62.35" width="38.14" height="10.49" rx="2.62" ry="2.62"/><circle class="cls-7" cx="9.64" cy="67.04" r="2.48"/><circle class="cls-7" cx="21.44" cy="67.04" r="2.48"/><circle class="cls-7" cx="33.25" cy="67.04" r="2.48"/><path class="cls-6" d="M88,75.36H60.27a3.16,3.16,0,1,1,0-6.31H88c.19,0,5-.1,5.81-3.45a3.16,3.16,0,0,1,6.13,1.52C98.3,73.63,91.65,75.36,88,75.36Z"/></svg>