<svg id="Layer_1" data-name="Layer 1" xmlns="http://www.w3.org/2000/svg" viewBox="0 0 100 100"><defs><style>.cls-1{fill:#e3e4e5;}.cls-2{fill:#ffc540;}.cls-3{fill:#fff;}.cls-4{fill:#3e3e3f;}.cls-5{fill:#fcca98;}.cls-6{fill:#f37d3b;}.cls-7{fill:#f9a63f;}.cls-8{fill:#447d93;}.cls-9{fill:#ffc640;}.cls-10{fill:#b95f2b;}</style></defs><title>sphinx</title><path class="cls-1" d="M42.26,51.25s3.4-10.73.3-12.83-10-8.39-5-13S71,46.77,71,46.77l-8-2.58L65.09,47l-9.42-3.44"/><path class="cls-1" d="M42.26,51.25l6.32-1.41c1.06-3.19,8.86-5.6,8.86-5.6l-5.41-2-3-1.19S48.76,46.3,42.26,51.25Z"/><polyline class="cls-1" points="42.81 26.4 55.07 29.29 49.23 30.26 64.33 37.21 57.42 36.8"/><rect class="cls-2" x="26.2" y="59.33" width="5.15" height="30" rx="2.58" ry="2.58"/><rect class="cls-2" x="52.13" y="59.33" width="5.15" height="30" rx="2.58" ry="2.58"/><rect class="cls-2" x="62.81" y="59.33" width="5.15" height="30" rx="2.58" ry="2.58"/><path class="cls-2" d="M67.7,54.87c7,7.19,6.35,19.27-1.53,27s-20,8.13-27,1-28.91-42.32-21-50S60.67,47.69,67.7,54.87Z"/><rect class="cls-2" x="35.18" y="59.33" width="5.15" height="30" rx="2.58" ry="2.58"/><path class="cls-3" d="M48.65,51.24s6.66-12.17,3.42-15.45-10.1-12.53-3-16.93S84.47,52.68,84.47,52.68l-9-5,1.83,3.93L66.69,45.17"/><path class="cls-1" d="M48.65,51.24l8-.2c2-3.61,12.05-4.66,12.05-4.66L62.61,42.7l-3.38-2.17S57.69,46.81,48.65,51.24Z"/><polyline class="cls-3" points="55.24 21.31 69.38 27.74 62.09 27.51 78.7 39.52 70.43 37.38"/><rect class="cls-4" y="42.57" width="10.27" height="7.72" rx="3.86" ry="3.86"/><rect class="cls-4" x="31.6" y="42.57" width="10.27" height="7.72" rx="3.86" ry="3.86"/><rect class="cls-4" x="3.33" y="23.27" width="7.42" height="27.03" rx="3.71" ry="3.71"/><rect class="cls-4" x="31.06" y="23.27" width="7.42" height="27.03" rx="3.71" ry="3.71"/><path class="cls-4" d="M34.27,20.32c0,3.48-6,6.31-13.47,6.31S7.32,23.8,7.32,20.32s6-9.65,13.48-9.65S34.27,16.84,34.27,20.32Z"/><ellipse class="cls-4" cx="12.73" cy="22.49" rx="9.87" ry="4.66" transform="translate(-5.1 3.78) rotate(-14.11)"/><ellipse class="cls-4" cx="28.78" cy="22.49" rx="4.66" ry="9.87" transform="translate(-0.05 44.91) rotate(-75.89)"/><path class="cls-5" d="M5.21,23.28v13.9a15.77,15.77,0,1,0,31.53,0V23.28Z"/><circle class="cls-5" cx="38.77" cy="29.14" r="3.04"/><circle class="cls-5" cx="36.88" cy="32.94" r="2.65"/><circle class="cls-5" cx="3.33" cy="29.14" r="3.04"/><circle class="cls-5" cx="5.22" cy="32.94" r="2.65"/><polygon class="cls-6" points="24.09 32.42 17.86 32.42 20.98 43.8 24.09 32.42"/><rect class="cls-6" x="19.72" y="42.58" width="2.93" height="5.48" rx="1.46" ry="1.46" transform="translate(66.5 24.14) rotate(90)"/><circle class="cls-7" cx="6.32" cy="20.08" r="2.41"/><circle class="cls-7" cx="10.84" cy="18.39" r="2.98"/><circle class="cls-7" cx="16.19" cy="17.19" r="3.45"/><circle class="cls-7" cx="34.51" cy="20.08" r="2.41"/><circle class="cls-7" cx="29.99" cy="18.39" r="2.98"/><circle class="cls-7" cx="24.64" cy="17.19" r="3.45"/><circle class="cls-7" cx="20.46" cy="17.19" r="3.45"/><path class="cls-8" d="M9.92,32.3a5.35,5.35,0,0,0-1.11-1.42c-.15-.12-.19-.22-.28-.29s-.14,0-.25,0-.22.16-.36.25A6.36,6.36,0,0,0,6.7,33.07a26.34,26.34,0,0,0-.78,2.78,25.37,25.37,0,0,1-.42-2.94,8.17,8.17,0,0,1,.32-3.26,7.26,7.26,0,0,1,.47-.92,3.86,3.86,0,0,1,.9-.85,3.88,3.88,0,0,1,2.51-.52A8.15,8.15,0,0,1,13.41,29l.35.25a2.57,2.57,0,1,1-3.84,3.1Z"/><path class="cls-8" d="M28.54,29.37a8.14,8.14,0,0,1,3.71-1.58,3.81,3.81,0,0,1,2.51.51,3.86,3.86,0,0,1,.9.85,7.26,7.26,0,0,1,.47.92,8.19,8.19,0,0,1,.32,3.26A25.37,25.37,0,0,1,36,36.27a26.34,26.34,0,0,0-.78-2.78A6.45,6.45,0,0,0,34,31.26c-.14-.09-.25-.19-.36-.25s-.18-.05-.25,0-.13.17-.28.3A5,5,0,0,0,32,32.73a2.57,2.57,0,1,1-3.85-3.1Z"/><circle class="cls-4" cx="9.48" cy="31.35" r="1.27"/><circle class="cls-4" cx="33.12" cy="31.39" r="1.27"/><path class="cls-9" d="M85.84,73.65a10.39,10.39,0,0,1-2.44-.28c-3-.72-5.53-2.75-7.42-6-4.11-7.15-11.38-3.58-12.2-3.15a2.11,2.11,0,0,1-2-3.72c4-2.14,12.86-3.91,17.85,4.76a7.74,7.74,0,0,0,4.71,4c3.11.76,6.18-1.18,6.21-1.2a2.11,2.11,0,0,1,2.3,3.53A14,14,0,0,1,85.84,73.65Z"/><path class="cls-10" d="M93,73.1a4.16,4.16,0,0,1-3.6-7.49c2.07-1,10.57-.47,10.57-.47S95.09,72.11,93,73.1Z"/></svg>