<svg id="Layer_1" data-name="Layer 1" xmlns="http://www.w3.org/2000/svg" xmlns:xlink="http://www.w3.org/1999/xlink" viewBox="0 0 100 100"><defs><style>.cls-1{fill:none;}.cls-2{fill:#09a582;}.cls-3{fill:#ffc640;}.cls-4{fill:#f37d3b;}.cls-5{fill:#dd7236;}.cls-6{fill:#c96730;}.cls-7{fill:#714c48;}.cls-8{fill:#e77738;}.cls-9{clip-path:url(#clip-path);}.cls-10{fill:#fffacb;}.cls-11{fill:#fcca98;}.cls-12{fill:#696a6c;}</style><clipPath id="clip-path"><ellipse class="cls-1" cx="51.37" cy="7.47" rx="29.38" ry="7.47"/></clipPath></defs><title>jam</title><path class="cls-2" d="M83.56,26.4c0,5.49-14.61,9.94-32.64,9.94S18.28,31.89,18.28,26.4,32.89,8.48,50.92,8.48,83.56,20.91,83.56,26.4Z"/><path class="cls-2" d="M18.28,26.4v52C18.28,96.34,33,100,50.92,100s32.64-3.66,32.64-21.62v-52Z"/><path class="cls-3" d="M23.71,36V75.21c0,15,12.28,18.08,27.3,18.08s27.31-3.07,27.31-18.08V36Z"/><path class="cls-4" d="M23.71,36V75.21c0,15,12.28,18.08,27.3,18.08s27.31-3.07,27.31-18.08V36Z"/><ellipse class="cls-5" cx="51.01" cy="36.3" rx="27.3" ry="7.35"/><path class="cls-5" d="M31.81,51.24a6.75,6.75,0,0,1,1.58,4.41A6.71,6.71,0,0,1,29,54.07a6.73,6.73,0,0,1-1.58-4.41A6.71,6.71,0,0,1,31.81,51.24Z"/><path class="cls-5" d="M40.26,79.6a6.73,6.73,0,0,1-4.41,1.58,6.67,6.67,0,0,1,1.58-4.41,6.71,6.71,0,0,1,4.41-1.59A6.71,6.71,0,0,1,40.26,79.6Z"/><path class="cls-5" d="M43.26,52.1a6.67,6.67,0,0,1-4.41,1.58,6.69,6.69,0,0,1,1.58-4.41,6.67,6.67,0,0,1,4.41-1.58A6.67,6.67,0,0,1,43.26,52.1Z"/><path class="cls-6" d="M51.88,38.4A6.77,6.77,0,0,1,47.46,40a6.74,6.74,0,0,1,1.59-4.42A6.73,6.73,0,0,1,53.46,34,6.71,6.71,0,0,1,51.88,38.4Z"/><path class="cls-6" d="M31.85,35.6A4.85,4.85,0,0,1,33,38.81a4.92,4.92,0,0,1-3.21-1.15,4.89,4.89,0,0,1-1.14-3.21A4.89,4.89,0,0,1,31.85,35.6Z"/><path class="cls-5" d="M58.09,62.34a6.72,6.72,0,0,1-2,4.24,6.73,6.73,0,0,1-2-4.24,6.73,6.73,0,0,1,2-4.24A6.72,6.72,0,0,1,58.09,62.34Z"/><path class="cls-5" d="M71.77,81.63a6.72,6.72,0,0,1-2,4.24,6.73,6.73,0,0,1-2-4.24,6.73,6.73,0,0,1,2-4.24A6.72,6.72,0,0,1,71.77,81.63Z"/><path class="cls-5" d="M70.18,48.64a6.71,6.71,0,0,1,1.58,4.42,6.72,6.72,0,0,1-4.41-1.59,6.67,6.67,0,0,1-1.58-4.41A6.67,6.67,0,0,1,70.18,48.64Z"/><path class="cls-4" d="M21.27,18.48s-1,4.87-3.88,5.64.66,5.93,10.72,4.1,9.42-.82,9.42-.82,1.36,1.26,5.69.88S51,34,51,34s8.79-4.1,12.78-5.37,11,3.23,9.85-3.18c0,0,2.79,4.76,5.91,1.86s5.4-5.71.82-7.77"/><ellipse class="cls-4" cx="51.37" cy="14.94" rx="29.38" ry="7.47"/><rect class="cls-4" x="21.98" y="7.47" width="58.77" height="7.47"/><ellipse class="cls-4" cx="51.37" cy="14.94" rx="29.38" ry="7.47"/><rect class="cls-4" x="21.98" y="7.47" width="58.77" height="7.47"/><path class="cls-7" d="M51.26,19.52c-17.92,0-30.09-4.95-30.27-5a1.32,1.32,0,1,1,1-2.43c.26.11,26.72,10.83,59,0a1.31,1.31,0,0,1,.84,2.49A95.7,95.7,0,0,1,51.26,19.52Z"/><path class="cls-7" d="M51.26,22C33.34,22,21.17,17.05,21,17a1.32,1.32,0,1,1,1-2.43c.26.11,26.72,10.83,59,0A1.31,1.31,0,0,1,81.83,17,95.7,95.7,0,0,1,51.26,22Z"/><path class="cls-7" d="M51.26,24.48c-17.92,0-30.09-4.95-30.27-5A1.31,1.31,0,1,1,22,17c.26.1,26.72,10.82,59,0a1.31,1.31,0,0,1,.84,2.49A95.7,95.7,0,0,1,51.26,24.48Z"/><ellipse class="cls-8" cx="51.37" cy="7.47" rx="29.38" ry="7.47"/><g class="cls-9"><rect class="cls-1" x="62.37" y="-12.86" width="34.97" height="18.44"/><polygon class="cls-10" points="79.86 1 88.6 5.58 97.34 1 88.6 -3.57 79.86 1"/><polygon class="cls-10" points="62.37 1 71.11 5.58 79.86 1 71.11 -3.57 62.37 1"/><rect class="cls-1" x="62.37" y="5.58" width="34.97" height="18.44"/><polygon class="cls-10" points="79.86 10.16 88.6 14.74 97.34 10.16 88.6 5.58 79.86 10.16"/><polygon class="cls-10" points="79.86 19.44 88.6 24.02 97.34 19.44 88.6 14.86 79.86 19.44"/><polygon class="cls-10" points="62.37 10.16 71.11 14.74 79.86 10.16 71.11 5.58 62.37 10.16"/><polygon class="cls-10" points="62.37 19.44 71.11 24.02 79.86 19.44 71.11 14.86 62.37 19.44"/><rect class="cls-1" x="27.41" y="-12.86" width="34.97" height="18.44"/><polygon class="cls-10" points="44.89 1 53.63 5.58 62.37 1 53.63 -3.57 44.89 1"/><polygon class="cls-10" points="27.41 1 36.15 5.58 44.89 1 36.15 -3.57 27.41 1"/><rect class="cls-1" x="27.41" y="5.58" width="34.97" height="18.44"/><polygon class="cls-10" points="44.89 10.16 53.63 14.74 62.37 10.16 53.63 5.58 44.89 10.16"/><polygon class="cls-10" points="44.89 19.44 53.63 24.02 62.37 19.44 53.63 14.86 44.89 19.44"/><polygon class="cls-10" points="27.41 10.16 36.15 14.74 44.89 10.16 36.15 5.58 27.41 10.16"/><polygon class="cls-10" points="27.41 19.44 36.15 24.02 44.89 19.44 36.15 14.86 27.41 19.44"/><rect class="cls-1" x="-7.56" y="-12.86" width="34.97" height="18.44"/><polygon class="cls-10" points="9.92 1 18.66 5.58 27.41 1 18.66 -3.57 9.92 1"/><polygon class="cls-10" points="-7.56 1 1.18 5.58 9.92 1 1.18 -3.57 -7.56 1"/><rect class="cls-1" x="-7.56" y="5.58" width="34.97" height="18.44"/><polygon class="cls-10" points="9.92 10.16 18.66 14.74 27.41 10.16 18.66 5.58 9.92 10.16"/><polygon class="cls-10" points="9.92 19.44 18.66 24.02 27.41 19.44 18.66 14.86 9.92 19.44"/><polygon class="cls-10" points="-7.56 10.16 1.18 14.74 9.92 10.16 1.18 5.58 -7.56 10.16"/><polygon class="cls-10" points="-7.56 19.44 1.18 24.02 9.92 19.44 1.18 14.86 -7.56 19.44"/></g><rect class="cls-11" x="28.17" y="47.06" width="46.62" height="26.04" rx="4.96" ry="4.96"/><rect class="cls-12" x="37.09" y="52.03" width="28.68" height="2.46" rx="0.47" ry="0.47"/><rect class="cls-12" x="37.09" y="58.84" width="28.68" height="2.46" rx="0.47" ry="0.47"/><rect class="cls-12" x="37.09" y="65.66" width="28.68" height="2.46" rx="0.47" ry="0.47"/></svg>