<svg id="Layer_1" data-name="Layer 1" xmlns="http://www.w3.org/2000/svg" viewBox="0 0 100 100"><defs><style>.cls-1{fill:#09a582;}.cls-2{fill:#f89c3e;}.cls-3{fill:#007359;}.cls-4{fill:#c7552e;}.cls-5{fill:#ffc640;}.cls-6{fill:#fff;}</style></defs><title>cheeseburger</title><rect class="cls-1" x="22.93" y="51.96" width="45.68" height="21.23"/><path class="cls-1" d="M7.47,71.64a1.81,1.81,0,0,0,.09-.37L0,69.93C.48,67.22,5.19,54,51.2,60.49L50.13,68.1C12.33,62.77,7.51,71.55,7.47,71.64Z"/><path class="cls-1" d="M92.53,71.64c0-.09-4.85-8.87-42.66-3.54L48.8,60.49c46-6.48,50.72,6.73,51.2,9.44l-7.56,1.34A1.81,1.81,0,0,0,92.53,71.64Z"/><rect class="cls-2" x="3.79" y="29.58" width="94.23" height="13.6" rx="3.38" ry="3.38"/><path class="cls-2" d="M4,35.62C4,27,25,20,50.9,20s46.92,7,46.92,15.61"/><rect class="cls-2" x="3.79" y="66.39" width="94.23" height="13.6" rx="3.38" ry="3.38"/><rect class="cls-3" x="7.48" y="59.27" width="18.58" height="7.13" rx="1.27" ry="1.27"/><rect class="cls-3" x="30.08" y="59.27" width="18.58" height="7.13" rx="1.27" ry="1.27"/><rect class="cls-3" x="52.68" y="59.27" width="18.58" height="7.13" rx="1.27" ry="1.27"/><rect class="cls-3" x="75.28" y="59.27" width="18.58" height="7.13" rx="1.27" ry="1.27"/><rect class="cls-4" x="6.21" y="45.51" width="90.35" height="13.85" rx="2.82" ry="2.82"/><rect class="cls-5" x="6.21" y="42.89" width="91.04" height="2.62" rx="0.65" ry="0.65"/><path class="cls-6" d="M24.41,29.47a5.24,5.24,0,0,1-2.51,1.3A4.73,4.73,0,0,1,25.71,27,5.24,5.24,0,0,1,24.41,29.47Z"/><path class="cls-6" d="M36,29.47a5.19,5.19,0,0,1-2.5,1.3A4.7,4.7,0,0,1,37.26,27,5.21,5.21,0,0,1,36,29.47Z"/><path class="cls-6" d="M47.5,29.47a5.19,5.19,0,0,1-2.5,1.3A4.7,4.7,0,0,1,48.81,27,5.21,5.21,0,0,1,47.5,29.47Z"/><path class="cls-6" d="M59.05,29.47a5.19,5.19,0,0,1-2.5,1.3A4.7,4.7,0,0,1,60.36,27,5.31,5.31,0,0,1,59.05,29.47Z"/><path class="cls-6" d="M70.6,29.47a5.2,5.2,0,0,1-2.51,1.3,5.26,5.26,0,0,1,1.31-2.5A5.17,5.17,0,0,1,71.91,27,5.31,5.31,0,0,1,70.6,29.47Z"/><path class="cls-6" d="M82.15,29.47a5.2,5.2,0,0,1-2.51,1.3A5.26,5.26,0,0,1,81,28.27,5.17,5.17,0,0,1,83.46,27,5.31,5.31,0,0,1,82.15,29.47Z"/><rect class="cls-5" x="56.86" y="50.06" width="6.99" height="15.95" rx="1.74" ry="1.74"/><rect class="cls-5" x="24.8" y="44.46" width="6.99" height="15.95" rx="1.74" ry="1.74"/><rect class="cls-5" x="29.95" y="50.06" width="6.99" height="15.95" rx="1.74" ry="1.74"/><rect class="cls-5" x="29.95" y="43.99" width="6.99" height="15.95" rx="1.74" ry="1.74"/><rect class="cls-5" x="35.87" y="43.99" width="6.99" height="15.95" rx="1.74" ry="1.74"/><path class="cls-5" d="M62.94,45.33v9.45a4.49,4.49,0,1,0,9,0V45.33Z"/><path class="cls-5" d="M55.87,45.33v9.45a4.49,4.49,0,1,0,9,0V45.33Z"/><path class="cls-5" d="M49.33,45.33v9.45a4.49,4.49,0,1,0,9,0V45.33Z"/><path class="cls-5" d="M41.29,43.09v9.45a4.49,4.49,0,1,0,9,0V43.09Z"/><path class="cls-5" d="M18.45,43.09v9.45a4.49,4.49,0,1,0,9,0V43.09Z"/><path class="cls-5" d="M71.25,45v9.46a4.49,4.49,0,0,0,9,0V45Z"/><path class="cls-5" d="M79.64,44.09v9.46a4.49,4.49,0,0,0,9,0V44.09Z"/><path class="cls-5" d="M88,44.24v6.2a2.94,2.94,0,1,0,5.88,0v-6.2Z"/><path class="cls-5" d="M10.48,44.09v9.46a4.49,4.49,0,0,0,9,0V44.09Z"/></svg>