<svg id="Layer_1" data-name="Layer 1" xmlns="http://www.w3.org/2000/svg" viewBox="0 0 100 100"><defs><style>.cls-1{fill:#454547;}.cls-2{fill:#171717;}.cls-3{fill:#fff;}</style></defs><title>crow</title><polyline class="cls-1" points="39.14 85.32 44.15 85.32 41.64 100"/><polyline class="cls-1" points="54.16 85.32 59.17 85.32 56.66 100"/><path class="cls-2" d="M78,64.14C78,82.27,65.53,88.5,50.15,88.5S22.3,82.27,22.3,64.14,34.77,31.32,50.15,31.32,78,46,78,64.14Z"/><path class="cls-2" d="M72.56,54.2a22.88,22.88,0,1,1-45.76,0C26.8,41.57,37,.27,49.68.27S72.56,41.57,72.56,54.2Z"/><path class="cls-2" d="M57.35,9.74c0,6.61-11,17.38-17.61,17.38S34.47,18.58,34.47,12a12,12,0,0,1,12-12C53.05,0,57.35,3.13,57.35,9.74Z"/><circle class="cls-2" cx="48.67" cy="12.08" r="1.48"/><path class="cls-2" d="M36,62.07c0,12.17-.79,33-.79,33s-21.4-20.81-21.4-33,5-22,11.09-22S36,49.91,36,62.07Z"/><path class="cls-2" d="M64,62.07c0,12.17.79,33,.79,33s21.4-20.81,21.4-33-5-22-11.09-22S64,49.91,64,62.07Z"/><path class="cls-1" d="M45.05,10.6c0,3.36-3.63,6.08-8.11,6.08S16.13,10.6,16.13,10.6,32.45,4.53,36.94,4.53,45.05,7.25,45.05,10.6Z"/><rect class="cls-2" x="38.31" y="82.59" width="6.51" height="8.3" rx="1.48" ry="1.48"/><rect class="cls-2" x="53.41" y="82.59" width="6.51" height="8.3" rx="1.48" ry="1.48"/><circle class="cls-3" cx="52.39" cy="10.6" r="1.33"/><polyline class="cls-2" points="30.51 73.12 49.69 97.52 68.85 73.12"/><circle class="cls-1" cx="61.83" cy="30.99" r="1.97"/></svg>