<svg id="Layer_1" data-name="Layer 1" xmlns="http://www.w3.org/2000/svg" viewBox="0 0 100 100"><defs><style>.cls-1{fill:#f37d3b;}.cls-2{fill:#56707d;}.cls-3{fill:#475e69;}.cls-4{fill:#9c9c9c;}.cls-5{fill:#ffc63f;}.cls-6{fill:#506975;}</style></defs><title>stun gun</title><rect class="cls-1" x="72.27" y="43.64" width="9.37" height="17.33" rx="2.28" ry="2.28"/><path class="cls-2" d="M53.79,100H43A24.73,24.73,0,0,1,18.35,75.35V33.75c0-13.55,11.1-15.92,24.65-15.92H53.79c13.55,0,24.65,2.37,24.65,15.92v41.6A24.73,24.73,0,0,1,53.79,100Z"/><path class="cls-3" d="M53.79,17.83H43c-9.25,0-17.35,1.11-21.56,6.12,4.21,5,12.31,6.12,21.56,6.12H53.79C63,30.07,71.14,29,75.35,24,71.14,18.94,63,17.83,53.79,17.83Z"/><rect class="cls-4" x="30.51" y="11.62" width="6.67" height="15.2" rx="1.62" ry="1.62"/><rect class="cls-4" x="59.62" y="11.62" width="6.67" height="15.2" rx="1.62" ry="1.62"/><path class="cls-5" d="M32.53,10.55c.42-.93.87-1.84,1.34-2.72s.94-1.77,1.47-2.59c.74-.61,1.37-1.33,2.07-2l2-2L40.65,0l1.22,1.22L49.66,9H47.23l7.54-7.55L56,.24l1.22,1.22,1.94,2c.64.66,1.32,1.27,1.94,1.94C62,7,63,8.68,63.77,10.46c-1.78-.81-3.44-1.75-5.1-2.68-.68-.62-1.29-1.31-2-1.94L54.77,3.89h2.44l-7.55,7.55-1.22,1.22-1.21-1.22L39.44,3.65h2.43l-2,2c-.66.69-1.39,1.32-2,2.06-.82.54-1.72,1-2.59,1.48S33.46,10.13,32.53,10.55Z"/><path class="cls-6" d="M62.17,46.5H34.35A1.62,1.62,0,0,1,33.2,46L27.08,39.9a1.62,1.62,0,1,1,2.3-2.29L35,43.25H61.5l5.43-5.42a1.62,1.62,0,1,1,2.29,2.29L63.32,46A1.59,1.59,0,0,1,62.17,46.5Z"/><path class="cls-6" d="M68.07,78.81a1.58,1.58,0,0,1-1.14-.47l-5.65-5.65H34.8l-5.42,5.43a1.63,1.63,0,1,1-2.3-2.3l5.9-5.9a1.65,1.65,0,0,1,1.15-.47H62a1.61,1.61,0,0,1,1.14.47L69.22,76a1.62,1.62,0,0,1-1.15,2.77Z"/></svg>