<svg id="Layer_1" data-name="Layer 1" xmlns="http://www.w3.org/2000/svg" viewBox="0 0 100 100"><defs><style>.cls-1{fill:#bf9b77;}.cls-2{fill:#967a5d;}.cls-3{fill:#58595b;}.cls-4{fill:#5f3f3b;}.cls-5{fill:#553734;}.cls-6{fill:#6d4945;}.cls-7{fill:#171717;}</style></defs><title>cannon</title><path class="cls-1" d="M18.93,40.57a2,2,0,0,1-1.84-1.21c-.22-.5-2.27-4.66-7.75-3.3a2,2,0,1,1-1-3.9c7.18-1.79,11.26,2.88,12.43,5.61a2,2,0,0,1-1.86,2.8Z"/><path class="cls-2" d="M17.09,39.36A6.79,6.79,0,0,0,16.16,38l3.06-2.62a10.86,10.86,0,0,1,1.57,2.42l-3.71,1.58,1.85-.79Z"/><path class="cls-2" d="M14.74,36.72A5.83,5.83,0,0,0,13.07,36l1-3.89a9.5,9.5,0,0,1,2.84,1.25Z"/><path class="cls-2" d="M9.34,36.06l-1-3.9A12.94,12.94,0,0,1,11,31.77l.15,4A8.89,8.89,0,0,0,9.34,36.06Z"/><rect class="cls-3" x="5.78" y="31.65" width="91.49" height="17.4" rx="4.25" ry="4.25" transform="translate(-8.67 14.66) rotate(-14.95)"/><rect class="cls-3" x="85.5" y="16.14" width="12" height="26.05" rx="2.93" ry="2.93" transform="matrix(0.97, -0.26, 0.26, 0.97, -4.43, 24.6)"/><path class="cls-4" d="M70.61,75.32H12.5A12.54,12.54,0,0,1,0,62.82H0a12.54,12.54,0,0,1,12.5-12.5H46L56.84,36.8H77.59c6.88,0,5.52,19.14,5.52,26h0A12.54,12.54,0,0,1,70.61,75.32Z"/><path class="cls-5" d="M12.5,50.32a12.5,12.5,0,0,0,0,25h1.84v-25Z"/><polygon class="cls-5" points="56.84 36.8 56.43 37.3 56.43 75.32 69.95 75.32 69.95 36.8 56.84 36.8"/><rect class="cls-5" x="30.14" y="50.32" width="6.29" height="25"/><path class="cls-4" d="M70.93,55.62a16.58,16.58,0,0,1-.82,5.07,16.05,16.05,0,0,1,0-10.13A16.55,16.55,0,0,1,70.93,55.62Z"/><path class="cls-4" d="M46.55,63.31a11.41,11.41,0,0,1-1.64,5.62,10.49,10.49,0,0,1,0-11.23A11.4,11.4,0,0,1,46.55,63.31Z"/><path class="cls-4" d="M38.11,62.6a11.4,11.4,0,0,1-1.64,5.61,10.47,10.47,0,0,1,0-11.22A11.4,11.4,0,0,1,38.11,62.6Z"/><path class="cls-6" d="M51.57,63.31a40.57,40.57,0,0,1-.43,5.87,39.31,39.31,0,0,1,0-11.73A40.52,40.52,0,0,1,51.57,63.31Z"/><path class="cls-6" d="M54.05,61.24a39.45,39.45,0,0,1-.44,5.86,39.31,39.31,0,0,1,0-11.73A39.67,39.67,0,0,1,54.05,61.24Z"/><path class="cls-4" d="M9.78,61.9a9.79,9.79,0,0,1-2.29,5.76A9.79,9.79,0,0,1,5.2,61.9a9.75,9.75,0,0,1,2.29-5.75A9.75,9.75,0,0,1,9.78,61.9Z"/><rect class="cls-6" x="14.02" y="59.92" width="1.85" height="21.73"/><rect class="cls-6" x="14.02" y="59.92" width="1.85" height="21.73" transform="translate(85.73 55.85) rotate(90)"/><rect class="cls-6" x="14.02" y="59.92" width="1.85" height="21.73" transform="translate(54.43 10.17) rotate(45)"/><rect class="cls-6" x="14.02" y="59.92" width="1.85" height="21.73" transform="translate(75.56 110.28) rotate(135)"/><path class="cls-6" d="M14.94,83.61A12.61,12.61,0,1,1,27.55,71,12.62,12.62,0,0,1,14.94,83.61Zm0-22.82A10.22,10.22,0,1,0,25.15,71,10.22,10.22,0,0,0,14.94,60.79Z"/><rect class="cls-6" x="12.97" y="57.72" width="3.9" height="1.87" rx="0.46" ry="0.46"/><rect class="cls-6" x="12.97" y="82.43" width="3.9" height="1.87" rx="0.46" ry="0.46"/><rect class="cls-6" x="25.33" y="70.08" width="3.9" height="1.87" rx="0.46" ry="0.46" transform="translate(98.29 43.74) rotate(90)"/><rect class="cls-6" x="0.62" y="70.08" width="3.9" height="1.87" rx="0.46" ry="0.46" transform="translate(73.58 68.45) rotate(90)"/><rect class="cls-6" x="21.71" y="61.34" width="3.9" height="1.87" rx="0.46" ry="0.46" transform="translate(50.97 1.51) rotate(45)"/><rect class="cls-6" x="4.24" y="78.81" width="3.9" height="1.87" rx="0.46" ry="0.46" transform="translate(58.2 18.99) rotate(45)"/><rect class="cls-6" x="21.71" y="78.81" width="3.9" height="1.87" rx="0.46" ry="0.46" transform="translate(96.78 119.41) rotate(135)"/><rect class="cls-6" x="4.24" y="61.34" width="3.9" height="1.87" rx="0.46" ry="0.46" transform="translate(54.59 101.94) rotate(135)"/><rect class="cls-6" x="17.8" y="58.7" width="3.9" height="1.87" rx="0.46" ry="0.46" transform="translate(24.85 -2.98) rotate(22.98)"/><rect class="cls-6" x="8.15" y="81.45" width="3.9" height="1.87" rx="0.46" ry="0.46" transform="translate(32.97 2.6) rotate(22.98)"/><rect class="cls-6" x="24.35" y="74.9" width="3.9" height="1.87" rx="0.46" ry="0.46" transform="translate(106.38 81.24) rotate(112.98)"/><rect class="cls-6" x="1.6" y="65.25" width="3.9" height="1.87" rx="0.46" ry="0.46" transform="translate(65.87 88.77) rotate(112.98)"/><rect class="cls-6" x="24.55" y="65.77" width="3.9" height="1.87" rx="0.46" ry="0.46" transform="translate(79.79 18.62) rotate(69.6)"/><rect class="cls-6" x="1.39" y="74.38" width="3.9" height="1.87" rx="0.46" ry="0.46" transform="translate(72.77 45.94) rotate(69.6)"/><rect class="cls-6" x="17.28" y="81.66" width="3.9" height="1.87" rx="0.46" ry="0.46" transform="translate(66.03 153.31) rotate(159.6)"/><rect class="cls-6" x="8.67" y="58.5" width="3.9" height="1.87" rx="0.46" ry="0.46" transform="translate(41.28 111.44) rotate(159.6)"/><circle class="cls-6" cx="14.94" cy="70.79" r="2.93"/><circle class="cls-7" cx="15.02" cy="70.79" r="1.42"/><rect class="cls-6" x="68.26" y="59.92" width="1.85" height="21.73"/><rect class="cls-6" x="68.26" y="59.92" width="1.85" height="21.73" transform="translate(139.97 1.6) rotate(90)"/><rect class="cls-6" x="68.26" y="59.92" width="1.85" height="21.73" transform="translate(70.32 -28.19) rotate(45)"/><rect class="cls-6" x="68.26" y="59.92" width="1.85" height="21.73" transform="translate(168.16 71.92) rotate(135)"/><path class="cls-6" d="M69.19,83.61A12.61,12.61,0,1,1,81.79,71,12.62,12.62,0,0,1,69.19,83.61Zm0-22.82A10.22,10.22,0,1,0,79.4,71,10.22,10.22,0,0,0,69.19,60.79Z"/><rect class="cls-6" x="67.22" y="57.72" width="3.9" height="1.87" rx="0.46" ry="0.46"/><rect class="cls-6" x="67.22" y="82.43" width="3.9" height="1.87" rx="0.46" ry="0.46"/><rect class="cls-6" x="79.57" y="70.08" width="3.9" height="1.87" rx="0.46" ry="0.46" transform="translate(152.53 -10.51) rotate(90)"/><rect class="cls-6" x="54.86" y="70.08" width="3.9" height="1.87" rx="0.46" ry="0.46" transform="translate(127.82 14.2) rotate(90)"/><rect class="cls-6" x="75.95" y="61.34" width="3.9" height="1.87" rx="0.46" ry="0.46" transform="translate(66.85 -36.84) rotate(45)"/><rect class="cls-6" x="58.48" y="78.81" width="3.9" height="1.87" rx="0.46" ry="0.46" transform="translate(74.09 -19.37) rotate(45)"/><rect class="cls-6" x="75.95" y="78.81" width="3.9" height="1.87" rx="0.46" ry="0.46" transform="translate(189.38 81.06) rotate(135)"/><rect class="cls-6" x="58.48" y="61.34" width="3.9" height="1.87" rx="0.46" ry="0.46" transform="translate(147.19 63.58) rotate(135)"/><rect class="cls-6" x="72.04" y="58.7" width="3.9" height="1.87" rx="0.46" ry="0.46" transform="translate(29.16 -24.15) rotate(22.98)"/><rect class="cls-6" x="62.39" y="81.45" width="3.9" height="1.87" rx="0.46" ry="0.46" transform="translate(37.27 -18.58) rotate(22.98)"/><rect class="cls-6" x="78.59" y="74.9" width="3.9" height="1.87" rx="0.46" ry="0.46" transform="translate(181.8 31.3) rotate(112.98)"/><rect class="cls-6" x="55.84" y="65.25" width="3.9" height="1.87" rx="0.46" ry="0.46" transform="translate(141.29 38.83) rotate(112.98)"/><rect class="cls-6" x="78.8" y="65.77" width="3.9" height="1.87" rx="0.46" ry="0.46" transform="translate(115.13 -32.22) rotate(69.6)"/><rect class="cls-6" x="55.63" y="74.38" width="3.9" height="1.87" rx="0.46" ry="0.46" transform="translate(108.11 -4.9) rotate(69.6)"/><rect class="cls-6" x="71.52" y="81.66" width="3.9" height="1.87" rx="0.46" ry="0.46" transform="translate(171.12 134.41) rotate(159.6)"/><rect class="cls-6" x="62.91" y="58.5" width="3.9" height="1.87" rx="0.46" ry="0.46" transform="translate(146.36 92.54) rotate(159.6)"/><circle class="cls-6" cx="69.18" cy="70.79" r="2.93"/><circle class="cls-7" cx="69.26" cy="70.79" r="1.42"/><circle class="cls-5" cx="38.11" cy="55.56" r="1.89"/><rect class="cls-3" x="11.57" y="36.84" width="14.72" height="6.29" rx="1.53" ry="1.53" transform="translate(-9.68 6.24) rotate(-14.95)"/></svg>