<svg id="Layer_1" data-name="Layer 1" xmlns="http://www.w3.org/2000/svg" viewBox="0 0 100 100"><defs><style>.cls-1{fill:#09a582;}.cls-2{fill:#028a6d;}.cls-3{fill:#bcd2de;}.cls-4{fill:#7d7d7d;}</style></defs><title>blender</title><path class="cls-1" d="M32.41,56.56H67.62A2.41,2.41,0,0,1,70,59V69.08a6.46,6.46,0,0,1-6.46,6.46H36.45A6.46,6.46,0,0,1,30,69.08V59a2.41,2.41,0,0,1,2.41-2.41Z" transform="translate(100.03 132.1) rotate(-180)"/><rect class="cls-1" x="29.99" y="63.62" width="40.05" height="34.4" rx="3.88" ry="3.88" transform="translate(100.03 161.65) rotate(180)"/><rect class="cls-2" x="24.55" y="91.13" width="50.89" height="8.87" rx="2.07" ry="2.07"/><rect class="cls-3" x="29.99" y="10.85" width="40.05" height="47.6" rx="9.36" ry="9.36"/><rect class="cls-3" x="29.99" y="2.69" width="40.05" height="47.22" rx="3.11" ry="3.11"/><rect class="cls-2" x="24.55" width="50.89" height="8.87" rx="2.07" ry="2.07"/><circle class="cls-2" cx="50.33" cy="74.85" r="9.8"/><path class="cls-1" d="M48.86,66.65h2.56a1.12,1.12,0,0,1,1.12,1.12v13.7a1.12,1.12,0,0,1-1.12,1.12H48.86a1.13,1.13,0,0,1-1.13-1.13V67.78a1.12,1.12,0,0,1,1.12-1.12Z" transform="translate(67.45 -13.59) rotate(45)"/><path class="cls-4" d="M50.14,47.83a3.09,3.09,0,0,0-3.08,3.07v7.44c1,.07,1.95.11,2.95.11h0c1.09,0,2.15-.05,3.19-.13V50.9A3.08,3.08,0,0,0,50.14,47.83Z"/><ellipse class="cls-4" cx="44.86" cy="48.42" rx="5.81" ry="1.58"/><ellipse class="cls-4" cx="55.95" cy="48.42" rx="5.81" ry="1.58"/><ellipse class="cls-4" cx="50.33" cy="47.83" rx="2.45" ry="5.81"/></svg>