<svg id="Layer_1" data-name="Layer 1" xmlns="http://www.w3.org/2000/svg" viewBox="0 0 100 100"><defs><style>.cls-1{fill:#515254;}.cls-2{fill:#171717;}.cls-3{fill:#678493;}.cls-4{fill:#56707d;}.cls-5{fill:#ffc640;}</style></defs><title>bulletproof vest</title><path class="cls-1" d="M32.15,7.09H67.85A13.16,13.16,0,0,1,81,20.25V86.84A13.16,13.16,0,0,1,67.85,100H26.25A7.26,7.26,0,0,1,19,92.74V20.25A13.16,13.16,0,0,1,32.15,7.09Z"/><rect class="cls-1" x="2.44" y="2.21" width="94.95" height="31.35" rx="6.65" ry="6.65"/><path class="cls-1" d="M19.69,19A8.63,8.63,0,0,0,2.44,19V33.54H19.69Z"/><path class="cls-1" d="M97.4,19a8.62,8.62,0,0,0-17.24,0V33.54H97.4Z"/><rect class="cls-1" x="18.99" y="2.21" width="62.02" height="92.91" rx="13.16" ry="13.16"/><ellipse class="cls-2" cx="50.91" cy="7.29" rx="19.48" ry="4.32"/><path class="cls-2" d="M5.82,30a3.38,3.38,0,0,0,0,6.76H19V30Z"/><path class="cls-2" d="M94.18,30a3.38,3.38,0,0,1,0,6.76H81V30Z"/><rect class="cls-1" x="20.81" y="36.84" width="8.76" height="8.76" transform="translate(36.52 -5.74) rotate(45)"/><rect class="cls-1" x="33.21" y="36.84" width="8.76" height="8.76" transform="translate(40.15 -14.51) rotate(45)"/><rect class="cls-1" x="45.62" y="36.84" width="8.76" height="8.76" transform="translate(43.79 -23.28) rotate(45)"/><rect class="cls-1" x="58.03" y="36.84" width="8.76" height="8.76" transform="translate(47.42 -32.06) rotate(45)"/><rect class="cls-1" x="70.43" y="36.84" width="8.76" height="8.76" transform="translate(51.06 -40.83) rotate(45)"/><rect class="cls-3" x="16.21" width="13.69" height="42.26" rx="2.91" ry="2.91"/><rect class="cls-3" x="72.27" width="13.69" height="42.26" rx="2.91" ry="2.91"/><rect class="cls-4" x="14.73" y="16.83" width="73.01" height="77.28" rx="5.67" ry="5.67"/><rect class="cls-3" x="20.09" y="26.87" width="62.29" height="11.78" rx="2.5" ry="2.5"/><rect class="cls-3" x="20.09" y="38.65" width="62.29" height="11.78" rx="2.5" ry="2.5"/><rect class="cls-3" x="20.09" y="50.43" width="62.29" height="11.78" rx="2.5" ry="2.5"/><rect class="cls-3" x="20.09" y="62.21" width="62.29" height="11.78" rx="2.5" ry="2.5"/><rect class="cls-3" x="20.09" y="73.99" width="62.29" height="11.78" rx="2.5" ry="2.5"/><circle class="cls-5" cx="70.47" cy="45.02" r="6.08"/><rect class="cls-5" x="64.38" y="35.13" width="4.06" height="11.93" rx="0.86" ry="0.86"/><rect class="cls-5" x="68.45" y="35.13" width="4.06" height="11.93" rx="0.86" ry="0.86"/><rect class="cls-5" x="72.51" y="35.13" width="4.06" height="11.93" rx="0.86" ry="0.86"/></svg>