<svg id="Layer_1" data-name="Layer 1" xmlns="http://www.w3.org/2000/svg" viewBox="0 0 100 100"><defs><style>.cls-1{fill:#fcca98;}.cls-2{fill:#f9b48f;}.cls-3{fill:#e4ae90;}.cls-4{fill:#f48d80;}</style></defs><title>egg</title><path class="cls-1" d="M84.58,65.42a34.58,34.58,0,1,1-69.16,0C15.42,46.32,30.9,0,50,0S84.58,46.32,84.58,65.42Z"/><ellipse class="cls-2" cx="37.23" cy="36.63" rx="10.88" ry="7.09" transform="translate(-5.2 67.09) rotate(-80.21)"/><ellipse class="cls-2" cx="43.93" cy="47.76" rx="8.12" ry="6.69" transform="matrix(0.11, -0.99, 0.99, 0.11, -8.36, 86.18)"/><ellipse class="cls-3" cx="48.02" cy="10.83" rx="5.8" ry="4.78" transform="translate(31.98 57.36) rotate(-83.69)"/><ellipse class="cls-3" cx="71.1" cy="70.89" rx="10.21" ry="11.88" transform="matrix(1, -0.09, 0.09, 1, -6.01, 6.59)"/><path class="cls-4" d="M67.66,15.52c-3.72,1.23-5.18,6.86-3.28,12.56s6.45,9.32,10.16,8.08a5.47,5.47,0,0,0,3.07-2.85,104.6,104.6,0,0,0-8.52-18A4.67,4.67,0,0,0,67.66,15.52Z"/><path class="cls-4" d="M34.92,79.94c-5.5-4.44-12.58-4.8-15.8-.8a5.88,5.88,0,0,0-.51.72A34.65,34.65,0,0,0,36.37,97.2a7,7,0,0,0,2.66-2C42.26,91.23,40.42,84.39,34.92,79.94Z"/></svg>