<svg id="Layer_1" data-name="Layer 1" xmlns="http://www.w3.org/2000/svg" viewBox="0 0 100 100"><defs><style>.cls-1{fill:#895e59;}.cls-2{fill:#9c9c9c;}</style></defs><title>pitchfork</title><rect class="cls-1" x="33.63" y="11.09" width="9.18" height="101.37" rx="2.1" ry="2.1" transform="translate(54.88 -8.93) rotate(45)"/><rect class="cls-2" x="44.33" y="29.08" width="44.03" height="9.16" rx="2.09" ry="2.09" transform="translate(43.23 -37.05) rotate(45)"/><polygon class="cls-2" points="52.31 18.94 57.28 23.91 74.53 1.68 52.31 18.94"/><path class="cls-2" d="M56.09,25.1l-5-5a1.7,1.7,0,0,1-.49-1.3,1.66,1.66,0,0,1,.65-1.22L73.5.36a1.68,1.68,0,0,1,2.36,2.35L58.6,24.94a1.67,1.67,0,0,1-2.51.16Zm-1.25-6,2.28,2.28L65,11.19Z"/><polygon class="cls-2" points="76.09 42.72 81.06 47.69 98.32 25.47 76.09 42.72"/><path class="cls-2" d="M79.87,48.88l-5-5a1.67,1.67,0,0,1,.16-2.51L97.29,24.14a1.68,1.68,0,0,1,2.35,2.36L82.39,48.72a1.66,1.66,0,0,1-1.22.65A1.7,1.7,0,0,1,79.87,48.88Zm-1.25-6,2.28,2.28L88.81,35Z"/><polygon class="cls-2" points="65.38 29.64 70.36 34.62 93.28 6.71 65.38 29.64"/><path class="cls-2" d="M68.83,36.14l-5-5a1.53,1.53,0,0,1-.38-1.41,2.67,2.67,0,0,1,.92-1.49L92.3,5.35a1.88,1.88,0,0,1,2.51-.16,1.88,1.88,0,0,1-.16,2.51L71.73,35.6a2.67,2.67,0,0,1-1.49.92A1.53,1.53,0,0,1,68.83,36.14Zm-.57-6.68,2.28,2.28L81.05,19Z"/><path class="cls-2" d="M61.48,28.61,53,37.14a7,7,0,0,0,9.91,9.91l8.53-8.53Z"/></svg>