<svg id="Layer_1" data-name="Layer 1" xmlns="http://www.w3.org/2000/svg" viewBox="0 0 100 100"><defs><style>.cls-1{fill:#49839b;}.cls-2{fill:#589ab6;}.cls-3{fill:#bcd2de;}</style></defs><title>ufo</title><ellipse class="cls-1" cx="49.76" cy="69.69" rx="21.41" ry="5.72"/><ellipse class="cls-2" cx="50" cy="57.46" rx="50" ry="13.35"/><path class="cls-3" d="M78.49,48.56c0,4.23-12.86,7.67-28.73,7.67S21,52.79,21,48.56s12.86-24,28.72-24S78.49,44.32,78.49,48.56Z"/><ellipse class="cls-1" cx="10.95" cy="55.5" rx="5.08" ry="3.87" transform="translate(-24.03 11.04) rotate(-27.03)"/><ellipse class="cls-1" cx="24.16" cy="61.12" rx="5.08" ry="3.87" transform="translate(-40.23 47.98) rotate(-56.9)"/><ellipse class="cls-1" cx="40.28" cy="63.1" rx="5.08" ry="3.87" transform="translate(-30.59 87.21) rotate(-76.23)"/><ellipse class="cls-1" cx="87.61" cy="55.5" rx="3.87" ry="5.08" transform="translate(-1.65 108.32) rotate(-62.97)"/><ellipse class="cls-1" cx="74.4" cy="61.12" rx="3.87" ry="5.08" transform="translate(-21.3 50.55) rotate(-33.1)"/><ellipse class="cls-1" cx="58.28" cy="63.1" rx="3.87" ry="5.08" transform="translate(-13.34 15.68) rotate(-13.77)"/><path class="cls-1" d="M9.9,58.52A2.64,2.64,0,0,1,7.44,57.3a2.36,2.36,0,0,1,.09-2.11,4.82,4.82,0,0,1,2.18-2.12A5.05,5.05,0,0,1,12,52.49a2.64,2.64,0,0,1,2.46,1.22c.67,1.32-.37,3.26-2.27,4.23A5.05,5.05,0,0,1,9.9,58.52Z"/><path class="cls-1" d="M12,53.63h0a1.6,1.6,0,0,1,1.45.6c.33.66-.37,2-1.77,2.7a4.08,4.08,0,0,1-1.78.45,1.58,1.58,0,0,1-1.45-.6c-.34-.66.37-2,1.77-2.7A3.91,3.91,0,0,1,12,53.63m0-2.28a6.16,6.16,0,0,0-2.81.71c-2.5,1.27-3.74,3.85-2.76,5.75A3.72,3.72,0,0,0,9.9,59.65a6.14,6.14,0,0,0,2.81-.7c2.5-1.27,3.73-3.85,2.76-5.75A3.73,3.73,0,0,0,12,51.35Z"/><path class="cls-1" d="M23.12,64.73A2.06,2.06,0,0,1,22,64.42c-1.24-.81-1.31-3-.14-4.8A4.3,4.3,0,0,1,25.2,57.5a2.06,2.06,0,0,1,1.11.31c1.24.81,1.31,3,.14,4.8A4.3,4.3,0,0,1,23.12,64.73Z"/><path class="cls-1" d="M25.2,58.64a.91.91,0,0,1,.49.12c.62.41.67,1.9-.19,3.23a3.17,3.17,0,0,1-2.38,1.6.91.91,0,0,1-.49-.12,1.33,1.33,0,0,1-.46-1,3.75,3.75,0,0,1,.65-2.22,3.17,3.17,0,0,1,2.38-1.6m0-2.28A5.4,5.4,0,0,0,20.92,59c-1.53,2.35-1.32,5.2.47,6.37a3.09,3.09,0,0,0,1.73.5,5.4,5.4,0,0,0,4.28-2.64c1.53-2.35,1.32-5.2-.47-6.37a3.09,3.09,0,0,0-1.73-.5Z"/><path class="cls-1" d="M39.79,67a1.74,1.74,0,0,1-.45-.06c-1.44-.35-2.22-2.4-1.71-4.48.45-1.84,1.8-3.23,3.15-3.23a1.72,1.72,0,0,1,.44.06,2.33,2.33,0,0,1,1.53,1.44,4.77,4.77,0,0,1,.19,3C42.49,65.6,41.13,67,39.79,67Z"/><path class="cls-1" d="M40.78,60.36h0a.5.5,0,0,1,.17,0c.72.17,1.26,1.57.88,3.1s-1.34,2.37-2,2.37l-.18,0c-.71-.18-1.26-1.57-.88-3.11s1.34-2.36,2.05-2.36m0-2.27c-1.85,0-3.67,1.68-4.26,4.09-.67,2.73.48,5.35,2.55,5.86a3.53,3.53,0,0,0,.72.08c1.85,0,3.66-1.68,4.25-4.1.67-2.72-.47-5.34-2.55-5.85a2.92,2.92,0,0,0-.71-.08Z"/><path class="cls-1" d="M88.66,58.52a5.05,5.05,0,0,1-2.29-.58c-1.9-1-2.94-2.91-2.27-4.23a2.64,2.64,0,0,1,2.46-1.22,5.05,5.05,0,0,1,2.29.58A4.82,4.82,0,0,1,91,55.19a2.36,2.36,0,0,1,.09,2.11,2.64,2.64,0,0,1-2.46,1.22Z"/><path class="cls-1" d="M86.56,53.63a3.91,3.91,0,0,1,1.78.45A3.73,3.73,0,0,1,90,55.68a1.33,1.33,0,0,1,.11,1.1,1.58,1.58,0,0,1-1.45.6,4.08,4.08,0,0,1-1.78-.45,3.73,3.73,0,0,1-1.66-1.6,1.33,1.33,0,0,1-.11-1.1,1.6,1.6,0,0,1,1.45-.6m0-2.28a3.73,3.73,0,0,0-3.47,1.85c-1,1.9.26,4.48,2.76,5.75a6.17,6.17,0,0,0,2.81.7,3.72,3.72,0,0,0,3.47-1.84c1-1.9-.26-4.48-2.76-5.75a6.16,6.16,0,0,0-2.81-.71Z"/><path class="cls-1" d="M75.44,64.73a4.3,4.3,0,0,1-3.33-2.12,4.77,4.77,0,0,1-.83-2.92,2.36,2.36,0,0,1,1-1.88,2.06,2.06,0,0,1,1.11-.31,4.3,4.3,0,0,1,3.33,2.12,4.77,4.77,0,0,1,.83,2.92,2.33,2.33,0,0,1-1,1.88,2,2,0,0,1-1.11.31Z"/><path class="cls-1" d="M73.36,58.64a3.17,3.17,0,0,1,2.38,1.6,3.75,3.75,0,0,1,.65,2.22,1.33,1.33,0,0,1-.46,1,.91.91,0,0,1-.49.12A3.19,3.19,0,0,1,73.06,62c-.86-1.33-.81-2.82-.19-3.22a.83.83,0,0,1,.49-.13m0-2.28a3.09,3.09,0,0,0-1.73.5c-1.79,1.17-2,4-.47,6.37a5.4,5.4,0,0,0,4.28,2.64,3.09,3.09,0,0,0,1.73-.5c1.79-1.17,2-4,.47-6.37a5.4,5.4,0,0,0-4.28-2.64Z"/><path class="cls-1" d="M58.77,67c-1.34,0-2.7-1.39-3.15-3.24a4.77,4.77,0,0,1,.19-3,2.33,2.33,0,0,1,1.53-1.44,1.72,1.72,0,0,1,.44-.06c1.35,0,2.7,1.39,3.15,3.23.51,2.08-.27,4.13-1.71,4.48A1.74,1.74,0,0,1,58.77,67Z"/><path class="cls-1" d="M57.78,60.36c.71,0,1.69.9,2,2.36s-.17,2.93-.88,3.11l-.18,0c-.7,0-1.69-.9-2-2.37s.16-2.93.88-3.1a.52.52,0,0,1,.17,0m0-2.27a2.92,2.92,0,0,0-.71.08C55,58.68,53.85,61.3,54.52,64c.59,2.42,2.4,4.1,4.25,4.1a3.53,3.53,0,0,0,.72-.08c2.07-.51,3.22-3.13,2.55-5.86-.59-2.41-2.41-4.09-4.26-4.09Z"/></svg>