<svg id="Layer_1" data-name="Layer 1" xmlns="http://www.w3.org/2000/svg" viewBox="0 0 100 100"><defs><style>.cls-1{fill:#9dc8dc;}.cls-2{fill:#ffc63f;}.cls-3{fill:#f69a85;}.cls-4{fill:#c5e0a9;}.cls-5{fill:#fcca98;}.cls-6{fill:#fff;}.cls-7{fill:#6ab8d9;}.cls-8{fill:#09a582;}.cls-9{fill:#f37d3b;}.cls-10{fill:#deb387;}</style></defs><title>cake</title><rect class="cls-1" x="16.78" y="21.19" width="8.13" height="30.04" rx="4.07" ry="4.07"/><path class="cls-2" d="M25.53,17a4.45,4.45,0,0,1-8.89,0c0-2.45,4.44-8.43,4.44-8.43S25.53,14.58,25.53,17Z"/><rect class="cls-1" x="16.78" y="19" width="1.87" height="6.97" rx="0.93" ry="0.93"/><rect class="cls-1" x="18.47" y="20.29" width="1.87" height="6.97" rx="0.93" ry="0.93"/><path class="cls-1" d="M26.7,29.54a1.79,1.79,0,1,1-3.57,0c0-1,1.78-4.57,1.78-4.57S26.7,28.56,26.7,29.54Z"/><path class="cls-1" d="M19.5,37.76a1.79,1.79,0,0,1-3.57,0c0-1,1.79-4.57,1.79-4.57S19.5,36.77,19.5,37.76Z"/><circle class="cls-1" cx="24.78" cy="47.16" r="2.22"/><rect class="cls-3" x="48.11" y="21.19" width="8.13" height="30.04" rx="1.77" ry="1.77"/><path class="cls-2" d="M56.85,17A4.45,4.45,0,0,1,48,17c0-2.45,4.45-8.43,4.45-8.43S56.85,14.58,56.85,17Z"/><rect class="cls-3" x="49.79" y="20.29" width="1.87" height="6.97" rx="0.41" ry="0.41"/><path class="cls-3" d="M58,33.28a1.79,1.79,0,1,1-3.57,0c0-1,1.79-4.57,1.79-4.57S58,32.29,58,33.28Z"/><path class="cls-3" d="M50.83,29.54a1.79,1.79,0,1,1-3.57,0C47.26,28.56,49,25,49,25S50.83,28.56,50.83,29.54Z"/><ellipse class="cls-1" cx="48.29" cy="47.88" rx="4.17" ry="2.74"/><circle class="cls-1" cx="56.1" cy="47.16" r="2.22"/><rect class="cls-4" x="74.43" y="21.19" width="8.13" height="30.04" rx="1.77" ry="1.77" transform="translate(156.98 72.41) rotate(180)"/><path class="cls-2" d="M73.81,17a4.45,4.45,0,0,0,8.89,0c0-2.45-4.44-8.43-4.44-8.43S73.81,14.58,73.81,17Z"/><rect class="cls-4" x="80.69" y="19" width="1.87" height="6.97" rx="0.41" ry="0.41" transform="translate(163.24 44.98) rotate(-180)"/><rect class="cls-4" x="79" y="20.29" width="1.87" height="6.97" rx="0.41" ry="0.41" transform="translate(159.87 47.55) rotate(-180)"/><path class="cls-4" d="M79.84,37.76a1.79,1.79,0,0,0,3.57,0c0-1-1.79-4.57-1.79-4.57S79.84,36.77,79.84,37.76Z"/><ellipse class="cls-1" cx="82.37" cy="47.88" rx="4.17" ry="2.74"/><circle class="cls-1" cx="74.56" cy="47.16" r="2.22"/><path class="cls-5" d="M97.32,61V84.56a6.84,6.84,0,0,1-6.84,6.84H10.28a6.83,6.83,0,0,1-6.83-6.84V58.81L50.88,39.29Z"/><path class="cls-6" d="M69.73,39.29H31A27.68,27.68,0,0,0,4,61.61H96.8A27.69,27.69,0,0,0,69.73,39.29Z"/><circle class="cls-6" cx="7.33" cy="61.61" r="7.33"/><circle class="cls-6" cx="21.55" cy="61.61" r="7.33"/><circle class="cls-6" cx="35.78" cy="61.61" r="7.33"/><circle class="cls-6" cx="50" cy="61.61" r="7.33"/><circle class="cls-6" cx="64.22" cy="61.61" r="7.33"/><circle class="cls-6" cx="78.45" cy="61.61" r="7.33"/><circle class="cls-6" cx="92.67" cy="61.61" r="7.33"/><rect class="cls-7" x="22.99" y="48.54" width="1.75" height="5.5" rx="0.38" ry="0.38" transform="translate(-31.72 40.8) rotate(-54.36)"/><rect class="cls-7" x="62.52" y="40.79" width="1.75" height="5.5" rx="0.38" ry="0.38" transform="translate(-13.43 47.06) rotate(-37.1)"/><rect class="cls-7" x="54.35" y="55.83" width="1.75" height="5.5" rx="0.38" ry="0.38" transform="translate(52.85 139.05) rotate(-135)"/><rect class="cls-8" x="26.05" y="56.38" width="1.75" height="5.5" rx="0.38" ry="0.38" transform="translate(49.7 -1.72) rotate(45)"/><rect class="cls-8" x="54.35" y="40.27" width="1.75" height="5.5" rx="0.38" ry="0.38" transform="translate(121.38 20.14) rotate(123.01)"/><rect class="cls-8" x="33.8" y="42.69" width="1.75" height="5.5" rx="0.38" ry="0.38" transform="matrix(-0.54, 0.84, -0.84, -0.54, 91.67, 41.1)"/><rect class="cls-9" x="69.6" y="55.83" width="1.75" height="5.5" rx="0.38" ry="0.38" transform="translate(-21.07 54.37) rotate(-37.1)"/><rect class="cls-9" x="48.96" y="41.92" width="1.75" height="5.5" rx="0.38" ry="0.38" transform="translate(25.48 -17.67) rotate(26.79)"/><rect class="cls-9" x="75.94" y="51.32" width="1.75" height="5.5" rx="0.38" ry="0.38" transform="translate(32.61 -28.82) rotate(26.79)"/><circle class="cls-10" cx="21.85" cy="72.95" r="1.48"/><circle class="cls-10" cx="27.13" cy="81.66" r="1.48"/><circle class="cls-10" cx="50.9" cy="81.66" r="1.48"/><circle class="cls-10" cx="74.66" cy="81.66" r="1.48"/><circle class="cls-10" cx="33.44" cy="72.95" r="1.48"/><circle class="cls-10" cx="45.03" cy="72.95" r="1.48"/><circle class="cls-10" cx="56.62" cy="72.95" r="1.48"/><circle class="cls-10" cx="68.21" cy="72.95" r="1.48"/><circle class="cls-10" cx="79.8" cy="72.95" r="1.48"/></svg>