<svg id="Layer_1" data-name="Layer 1" xmlns="http://www.w3.org/2000/svg" viewBox="0 0 100 100"><defs><style>.cls-1{fill:#714c48;}.cls-2{fill:#171717;}.cls-3{fill:#515254;}</style></defs><title>bbq</title><path class="cls-1" d="M50,3.41a7.53,7.53,0,1,1-7.53,7.52A7.53,7.53,0,0,1,50,3.41M50,0A10.94,10.94,0,1,0,60.93,10.93,10.94,10.94,0,0,0,50,0Z"/><rect class="cls-2" x="18.13" y="7.75" width="63.74" height="47.77" rx="23.88" ry="23.88"/><rect class="cls-2" x="13.09" y="26.71" width="73.82" height="7.24" rx="1.56" ry="1.56"/><rect class="cls-2" x="3.33" y="62.59" width="60.3" height="6.01" rx="3" ry="3" transform="translate(-37.88 83.77) rotate(-77.25)"/><rect class="cls-2" x="65.22" y="35.44" width="6.01" height="60.3" rx="3" ry="3" transform="translate(-12.79 16.67) rotate(-12.75)"/><circle class="cls-3" cx="23.54" cy="92.96" r="7.04"/><circle class="cls-2" cx="23.54" cy="92.96" r="3"/><circle class="cls-3" cx="77.86" cy="92.96" r="7.04"/><circle class="cls-2" cx="77.86" cy="92.96" r="3"/><path class="cls-2" d="M70.81,71.58c0,4.16-8.88,7.53-19.84,7.53s-19.85-3.37-19.85-7.53"/></svg>