<svg id="Layer_1" data-name="Layer 1" xmlns="http://www.w3.org/2000/svg" viewBox="0 0 100 100"><defs><style>.cls-1{fill:#fff;}.cls-2{fill:#9dc8dc;}.cls-3{fill:#3e3e3f;}.cls-4{fill:#f37d3b;}.cls-5{fill:#d36d33;}.cls-6{fill:#a45423;}.cls-7{fill:#6ab8d9;}</style></defs><title>swimmer</title><rect class="cls-1" y="54.15" width="4.69" height="1.52"/><rect class="cls-1" x="2.59" y="50.4" width="1.52" height="4.69" transform="translate(-45.12 31.68) rotate(-62.88)"/><rect class="cls-1" x="42.61" y="56.58" width="4.69" height="1.52"/><rect class="cls-1" x="41.61" y="54.42" width="4.69" height="1.52" transform="translate(-20.32 26.11) rotate(-27.13)"/><path class="cls-1" d="M42.28,57.54l-.81-1.29c2-1.27,3-2.44,3-3.38-.07-1.51-2.8-2.91-5.21-4.15-2.16-1.1-4.2-2.15-4.94-3.49a2.56,2.56,0,0,0-2.39-1.45,1.94,1.94,0,0,0-1.67.84.61.61,0,0,0,.14.71,1.59,1.59,0,0,1,0,2c-1.68,2.16-9.52,3-16.93-.16-1.93-.83-3.5-.85-4.68-.07-2.94,2-2.9,8.24-2.9,8.3l-1.52,0c0-.29,0-7.16,3.58-9.58,1.63-1.09,3.68-1.11,6.12-.06,6.25,2.7,12.4,2.21,14.59,1,.53-.28.59-.48.59-.49A2.21,2.21,0,0,1,28.86,44a3.4,3.4,0,0,1,3-1.71,4,4,0,0,1,3.77,2.23c.52.94,2.44,1.92,4.3,2.88,2.92,1.49,5.93,3,6,5.43C46.05,54.35,44.84,55.9,42.28,57.54Z"/><path class="cls-1" d="M26.49,59.68a6.85,6.85,0,0,0-6.84,0q-3.22-1.93,0-3.89a6.85,6.85,0,0,0,6.84,0Q29.7,57.74,26.49,59.68Z"/><path class="cls-2" d="M11.17,63.11c-3.9,0-7.07-2.49-7.07-5.56S7.27,52,11.17,52s7.07,2.49,7.07,5.55S15.07,63.11,11.17,63.11Z"/><path class="cls-3" d="M11.17,53c3.35,0,6.06,2,6.06,4.54s-2.71,4.55-6.06,4.55-6.06-2-6.06-4.55S7.82,53,11.17,53m0-2c-4.53,0-8.08,2.88-8.08,6.56s3.55,6.57,8.08,6.57,8.08-2.88,8.08-6.57S15.7,51,11.17,51Z"/><path class="cls-1" d="M8.63,54.55a2.85,2.85,0,0,1-.72,1.63,2.81,2.81,0,0,1-1.62.72A2.88,2.88,0,0,1,7,55.27,2.85,2.85,0,0,1,8.63,54.55Z"/><path class="cls-1" d="M10,56a2.85,2.85,0,0,1-.72,1.63,2.81,2.81,0,0,1-1.62.72,2.88,2.88,0,0,1,.71-1.63A2.85,2.85,0,0,1,10,56Z"/><path class="cls-2" d="M35,63.11c-3.9,0-7.07-2.49-7.07-5.56S31.06,52,35,52,42,54.49,42,57.55,38.86,63.11,35,63.11Z"/><path class="cls-3" d="M35,53C38.31,53,41,55,41,57.55S38.31,62.1,35,62.1s-6.06-2-6.06-4.55S31.62,53,35,53m0-2c-4.53,0-8.08,2.88-8.08,6.56s3.55,6.57,8.08,6.57,8.09-2.88,8.09-6.57S39.5,51,35,51Z"/><path class="cls-1" d="M32.42,54.55a2.81,2.81,0,0,1-.71,1.63,2.85,2.85,0,0,1-1.63.72,2.47,2.47,0,0,1,2.34-2.35Z"/><path class="cls-1" d="M33.82,56a2.81,2.81,0,0,1-.71,1.63,2.85,2.85,0,0,1-1.63.72A2.47,2.47,0,0,1,33.82,56Z"/><path class="cls-4" d="M45.22,27.73c0,3.29-9.38,5.95-20.94,5.95S3.35,31,3.35,27.73,4.55,6.27,24.28,6.27C43.33,6.27,45.22,24.45,45.22,27.73Z"/><path class="cls-1" d="M24.42,6.28h-.14a28.92,28.92,0,0,0-3.16.18C27.22,9,40.54,16.19,41.37,31.16c.54-.22,1-.45,1.47-.68C41.8,17.07,31.3,9.68,24.42,6.28Z"/><path class="cls-1" d="M44.16,21.2c-3.55-7.26-10-11.82-15-14.44a24.8,24.8,0,0,0-4.66-.48c5.57,2.23,18.33,8.78,20.43,22.43a2,2,0,0,0,.31-1A25.76,25.76,0,0,0,44.16,21.2Z"/><path class="cls-4" d="M92.15,65.86c3,0,5.36,1.78,5.36,4,0-7.72-7.19-62.13-16.07-62.13S65.38,62.12,65.38,69.84c0-2.2,2.4-4,5.35-4s5.36,1.78,5.36,4c0-2.2,2.4-4,5.35-4s5.36,1.78,5.36,4C86.8,67.64,89.2,65.86,92.15,65.86Z"/><path class="cls-5" d="M81.44,10.89c-3.93,0-7.47,12.73-9.93,25.71H91.38C88.92,23.62,85.38,10.89,81.44,10.89Z"/><ellipse class="cls-6" cx="81.37" cy="20.73" rx="3.51" ry="8.17"/><path class="cls-5" d="M76.47,64.3h-.09a1.14,1.14,0,0,1-1-1.23l1.4-17.55A1.13,1.13,0,1,1,79,45.7L77.6,63.25A1.13,1.13,0,0,1,76.47,64.3Z"/><path class="cls-5" d="M86.26,64.3a1.14,1.14,0,0,1-1.13-1L83.74,45.7A1.14,1.14,0,1,1,86,45.52L87.4,63.07a1.14,1.14,0,0,1-1.05,1.23Z"/><path class="cls-4" d="M79.47,58.81c3,0,5.36,1.78,5.36,4,0-7.72-7.2-62.13-16.07-62.13S52.69,55.07,52.69,62.79c0-2.2,2.4-4,5.36-4s5.35,1.78,5.35,4c0-2.2,2.4-4,5.36-4s5.36,1.78,5.36,4C74.12,60.59,76.51,58.81,79.47,58.81Z"/><path class="cls-5" d="M68.76,3.83c-3.93,0-7.47,12.74-9.94,25.71H78.7C76.23,16.57,72.69,3.83,68.76,3.83Z"/><ellipse class="cls-6" cx="68.68" cy="13.67" rx="3.51" ry="8.17"/><path class="cls-5" d="M63.78,57.25h-.09a1.13,1.13,0,0,1-1-1.22L64,38.46a1.14,1.14,0,0,1,2.27.18L64.92,56.2A1.15,1.15,0,0,1,63.78,57.25Z"/><path class="cls-5" d="M73.58,57.25a1.13,1.13,0,0,1-1.13-1l-1.4-17.56a1.14,1.14,0,0,1,2.27-.18L74.71,56a1.13,1.13,0,0,1-1,1.22Z"/><path class="cls-7" d="M27.33,83.81v3.54H4.44L15,78.19A7.43,7.43,0,0,1,27.33,83.81Z"/><path class="cls-7" d="M50.22,83.81v3.54H27.33l10.59-9.16A7.43,7.43,0,0,1,50.22,83.81Z"/><path class="cls-7" d="M73.12,83.81v3.54H50.22l10.59-9.16A7.44,7.44,0,0,1,73.12,83.81Z"/><path class="cls-7" d="M96,83.81v3.54H73.12L83.7,78.19A7.44,7.44,0,0,1,96,83.81Z"/><rect class="cls-7" x="0.28" y="86.76" width="99.72" height="12.58" rx="2.77" ry="2.77"/></svg>