<svg id="Layer_1" data-name="Layer 1" xmlns="http://www.w3.org/2000/svg" viewBox="0 0 100 100"><defs><style>.cls-1{fill:#7d7d7d;}.cls-2{fill:#be9a77;}.cls-3{fill:#171717;}.cls-4{fill:#714d49;}.cls-5{fill:#9dc7db;}.cls-6{fill:#059174;}.cls-7{fill:#ffc540;}.cls-8{fill:#221f1f;}.cls-9{fill:#3e3e3f;}.cls-10{fill:#836c52;}</style></defs><title>angler</title><line class="cls-1" x1="47.11" y1="75.66" x2="92.67" y2="30.1"/><rect class="cls-2" x="37.68" y="52.15" width="64.42" height="1.45" transform="translate(-16.92 64.91) rotate(-45)"/><path class="cls-3" d="M90.23,34.6A3.3,3.3,0,1,1,92.56,29h0a3.3,3.3,0,0,1-2.33,5.63Zm0-5.14a1.84,1.84,0,1,0,1.31,3.14,1.84,1.84,0,0,0-1.31-3.14Z"/><path class="cls-3" d="M79.22,45.6A3.29,3.29,0,1,1,81.55,40h0a3.28,3.28,0,0,1,0,4.66A3.28,3.28,0,0,1,79.22,45.6Zm0-5.14a1.84,1.84,0,1,0,1.31.54h0A1.84,1.84,0,0,0,79.22,40.46Z"/><path class="cls-3" d="M68.22,56.61A3.3,3.3,0,1,1,70.55,51h0a3.3,3.3,0,0,1-2.33,5.63Zm0-5.14a1.84,1.84,0,1,0,1.3.54A1.84,1.84,0,0,0,68.22,51.47Z"/><path class="cls-3" d="M57.21,67.62a3.25,3.25,0,0,1-2.33-1,3.28,3.28,0,1,1,2.33,1Zm0-5.14a1.85,1.85,0,1,0,1.3.54A1.83,1.83,0,0,0,57.21,62.48Z"/><rect class="cls-1" x="24.82" y="51.95" width="76.22" height="4.63" rx="1" ry="1" transform="translate(-19.94 60.39) rotate(-45)"/><rect class="cls-4" x="20.59" y="79.72" width="24.5" height="9.26" rx="2.01" ry="2.01" transform="translate(-50.03 47.93) rotate(-45)"/><rect class="cls-5" x="35.88" y="73.77" width="13.13" height="9.22" rx="2" ry="2" transform="translate(-42.99 52.97) rotate(-45)"/><circle class="cls-3" cx="42.39" cy="78.7" r="2.79"/><rect class="cls-1" x="43.62" y="76.25" width="2.26" height="9.76" rx="0.49" ry="0.49" transform="translate(-44.26 55.41) rotate(-45)"/><rect class="cls-1" x="43.31" y="83.64" width="6.48" height="2.56" rx="0.56" ry="0.56" transform="translate(-46.41 57.79) rotate(-45)"/><rect class="cls-2" x="91.94" y="30.1" width="1.45" height="48.81"/><path class="cls-6" d="M87.44,92.48l3.34-3.84a.85.85,0,0,1,1.3,0l3.35,3.84a.86.86,0,0,1-.65,1.43h-.09a.78.78,0,0,0-1.53,0H93a.78.78,0,0,0-1.53,0h-.12a.78.78,0,0,0-1.53,0h-.12a.78.78,0,0,0-1.53,0h-.12A.86.86,0,0,1,87.44,92.48Z"/><line class="cls-6" x1="85.79" y1="83.92" x2="85.9" y2="83.92"/><line class="cls-6" x1="82.49" y1="83.92" x2="82.6" y2="83.92"/><path class="cls-6" d="M80.19,82.5l3.34-3.85a.87.87,0,0,1,1.3,0l3.35,3.85a.86.86,0,0,1-.65,1.42h-.09a.79.79,0,0,0-1.54,0h-.11a.83.83,0,0,0-.77-.63.84.84,0,0,0-.77.63h-.11a.83.83,0,0,0-.77-.63.84.84,0,0,0-.77.63h-.11a.83.83,0,0,0-.77-.63.85.85,0,0,0-.77.63h-.11A.86.86,0,0,1,80.19,82.5Z"/><circle class="cls-7" cx="91.43" cy="81.14" r="8.57"/><circle class="cls-8" cx="89.86" cy="78.4" r="0.69"/><rect class="cls-7" x="90.02" y="71.24" width="4.14" height="1.93" rx="0.42" ry="0.42" transform="translate(164.3 -19.88) rotate(90)"/><rect class="cls-7" x="91.96" y="71.24" width="4.14" height="1.93" rx="0.42" ry="0.42" transform="translate(166.23 -21.82) rotate(90)"/><rect class="cls-6" x="92.81" y="81.71" width="4.54" height="3.39" rx="0.74" ry="0.74" transform="translate(178.49 -11.67) rotate(90)"/><circle class="cls-6" cx="91.4" cy="77.22" r="0.36"/><circle class="cls-6" cx="91.4" cy="78.4" r="0.36"/><circle class="cls-6" cx="91.4" cy="79.57" r="0.36"/><path class="cls-6" d="M84.44,86.06l0,0a8.46,8.46,0,0,1-1-1.89l2.46-1.67Z"/><path class="cls-6" d="M84.43,86.1v0L87,84.33l-1.3,3.17A8,8,0,0,1,84.43,86.1Z"/><path class="cls-6" d="M88.09,86.13l-1,2.41a9,9,0,0,1-1.24-.89Z"/><path class="cls-9" d="M25.68,47.78A13.43,13.43,0,0,1,12.26,34.36V25.3a13.42,13.42,0,0,1,26.84,0v9.06A13.43,13.43,0,0,1,25.68,47.78Zm0-34.75A12.28,12.28,0,0,0,13.41,25.3v9.06a12.27,12.27,0,0,0,24.54,0V25.3A12.28,12.28,0,0,0,25.68,13Z"/><path class="cls-2" d="M44.36,16.59c0-10.35-8.46-12-18.81-12S6.73,6.24,6.73,16.59v6.56H44.36Z"/><circle class="cls-10" cx="12.83" cy="10.82" r="1.11"/><circle class="cls-10" cx="20.86" cy="10.82" r="1.11"/><circle class="cls-10" cx="28.89" cy="10.82" r="1.11"/><circle class="cls-10" cx="36.91" cy="10.82" r="1.11"/><rect class="cls-10" x="16.34" y="10.82" width="1.01" height="8.12" rx="0.22" ry="0.22"/><rect class="cls-10" x="24.37" y="10.82" width="1.01" height="8.12" rx="0.22" ry="0.22"/><rect class="cls-10" x="32.4" y="10.82" width="1.01" height="8.12" rx="0.22" ry="0.22"/><path class="cls-2" d="M45.72,31.07a77.66,77.66,0,0,0-38.9,0A5,5,0,0,1,.83,28c-.21-.63-.42-1.27-.62-1.91-.82-2.41.86-5.18,3.78-5.94a89.15,89.15,0,0,1,44.55,0c2.93.76,4.61,3.53,3.79,5.94-.2.64-.41,1.28-.62,1.91A5,5,0,0,1,45.72,31.07Z"/><path class="cls-9" d="M20.6,54.27A2.26,2.26,0,0,1,19,53.65c-1.16-1.16-.66-3.47,1.13-5.27s4.11-2.29,5.27-1.13.66,3.47-1.14,5.26h0a6.06,6.06,0,0,1-2.72,1.64A3.72,3.72,0,0,1,20.6,54.27Zm3.11-6.49a4.33,4.33,0,0,0-2.8,1.42c-1.4,1.4-1.72,3-1.13,3.63a1.48,1.48,0,0,0,1.43.2,4.94,4.94,0,0,0,2.2-1.33c1.4-1.41,1.72-3.05,1.13-3.64A1.15,1.15,0,0,0,23.71,47.78Z"/><path class="cls-9" d="M30.49,54.27a3.74,3.74,0,0,1-.91-.12,6.6,6.6,0,0,1-4.36-4.36,2.53,2.53,0,0,1,.51-2.54c1.15-1.16,3.47-.66,5.26,1.13s2.29,4.11,1.13,5.27A2.23,2.23,0,0,1,30.49,54.27Zm-3.12-6.49a1.19,1.19,0,0,0-.83.28,1.5,1.5,0,0,0-.2,1.44,5.08,5.08,0,0,0,1.34,2.2A5,5,0,0,0,29.87,53a1.5,1.5,0,0,0,1.44-.2c.59-.59.27-2.23-1.14-3.63A4.33,4.33,0,0,0,27.37,47.78Z"/></svg>