<svg id="Layer_1" data-name="Layer 1" xmlns="http://www.w3.org/2000/svg" viewBox="0 0 100 100"><defs><style>.cls-1{fill:#f37d3b;}.cls-2{fill:#994d1f;}.cls-3{fill:#c7552e;}.cls-4{fill:#fff;}.cls-5{fill:#6d4945;}.cls-6{fill:#895e59;}.cls-7{fill:#09a582;}.cls-8{fill:#6ab8d9;}.cls-9{fill:#171717;}.cls-10{fill:#ebf7fd;}.cls-11{fill:#231f20;}.cls-12{fill:#ffc640;}.cls-13{fill:#dfe0e1;}.cls-14{fill:#454547;}</style></defs><title>farm</title><path class="cls-1" d="M36.39,25.13V39a2.91,2.91,0,0,0,2.9,2.89h20A2.9,2.9,0,0,0,62.22,39V25.13Z"/><rect class="cls-2" x="45.3" y="16.46" width="4.84" height="2.02" rx="0.51" ry="0.51" transform="translate(-2.8 11.98) rotate(-13.91)"/><rect class="cls-2" x="42.49" y="18.28" width="4.84" height="2.02" rx="0.51" ry="0.51" transform="translate(-3.32 11.36) rotate(-13.91)"/><rect class="cls-2" x="39.67" y="20.1" width="4.84" height="2.02" rx="0.51" ry="0.51" transform="translate(-3.84 10.74) rotate(-13.91)"/><rect class="cls-2" x="36.86" y="21.92" width="4.84" height="2.02" rx="0.51" ry="0.51" transform="translate(-4.36 10.11) rotate(-13.91)"/><rect class="cls-2" x="34.04" y="23.74" width="4.84" height="2.02" rx="0.51" ry="0.51" transform="translate(-4.88 9.49) rotate(-13.91)"/><rect class="cls-2" x="48.03" y="16.46" width="4.84" height="2.02" rx="0.51" ry="0.51" transform="translate(95.23 46.54) rotate(-166.09)"/><rect class="cls-2" x="50.85" y="18.28" width="4.84" height="2.02" rx="0.51" ry="0.51" transform="translate(100.34 50.81) rotate(-166.09)"/><rect class="cls-2" x="53.66" y="20.1" width="4.84" height="2.02" rx="0.51" ry="0.51" transform="translate(105.45 55.08) rotate(-166.09)"/><rect class="cls-2" x="56.48" y="21.92" width="4.84" height="2.02" rx="0.51" ry="0.51" transform="translate(110.56 59.34) rotate(-166.09)"/><rect class="cls-2" x="59.29" y="23.74" width="4.84" height="2.02" rx="0.51" ry="0.51" transform="translate(115.67 63.61) rotate(-166.09)"/><polyline class="cls-2" points="35.94 25.56 62.88 25.56 48.95 16.74"/><rect class="cls-2" x="33.54" y="24.96" width="30.96" height="1.41" rx="0.35" ry="0.35"/><polyline class="cls-3" points="39.74 41.92 39.74 29.88 59.03 29.88 59.03 41.92"/><path class="cls-4" d="M59.36,41.92H58.7V30.21H40.07V41.92h-.66v-12a.33.33,0,0,1,.33-.33H59a.33.33,0,0,1,.33.33Z"/><line class="cls-3" x1="39.74" y1="30.16" x2="58.9" y2="40.31"/><polygon class="cls-4" points="58.74 40.6 39.58 30.46 39.9 29.87 59.05 40.02 58.74 40.6"/><line class="cls-3" x1="39.55" y1="40.63" x2="58.9" y2="30.38"/><polygon class="cls-4" points="39.7 40.92 39.39 40.34 58.74 30.09 59.05 30.67 39.7 40.92"/><rect class="cls-5" x="28.82" y="39.37" width="71.18" height="15.74" rx="3.95" ry="3.95"/><polyline class="cls-5" points="69.09 81.44 97.54 52.99 97.54 43.23 95.81 40.75 51.73 62.15"/><path class="cls-6" d="M31.18,41.63,3,69.93H68.14L97,41.06h-.07a7.79,7.79,0,0,0-4.81-1.69H36.69a7.77,7.77,0,0,0-3.61.92"/><path class="cls-7" d="M11.28,61.64,3,69.93H22.1l8.46-8.46h0a2.33,2.33,0,0,0-1.41-.5H12.89a2.26,2.26,0,0,0-1.06.28"/><path class="cls-7" d="M17.46,55.46,9.21,63.75H28.29l8.45-8.46h0a2.24,2.24,0,0,0-1.41-.5H19.07a2.38,2.38,0,0,0-1.06.27"/><path class="cls-7" d="M23.64,49.27l-8.25,8.29H34.47l8.46-8.45h0a2.26,2.26,0,0,0-1.41-.5H25.26a2.22,2.22,0,0,0-1.06.27"/><path class="cls-7" d="M29.82,43.09l-8.24,8.29H40.65l8.46-8.46h0a2.32,2.32,0,0,0-1.41-.49H31.44a2.25,2.25,0,0,0-1.06.27"/><path class="cls-5" d="M63.31,68.25H7.87A7.87,7.87,0,0,0,7.87,84H63.31a7.87,7.87,0,0,0,0-15.74Z"/><rect class="cls-8" x="74.3" y="27.02" width="10.04" height="14.5" transform="translate(158.65 68.55) rotate(-180)"/><rect class="cls-9" x="69.33" y="32.03" width="1.05" height="3.38" rx="0.26" ry="0.26" transform="translate(139.72 67.43) rotate(180)"/><rect class="cls-9" x="66.83" y="31.35" width="1.05" height="3.38" rx="0.26" ry="0.26" transform="translate(134.72 66.09) rotate(180)"/><rect class="cls-8" x="65.82" y="34.17" width="10.84" height="7.36" transform="translate(142.48 75.7) rotate(-180)"/><rect class="cls-10" x="75.98" y="28.16" width="5.46" height="5.02" transform="translate(157.43 61.34) rotate(-180)"/><circle class="cls-9" cx="81.3" cy="39.87" r="5.12"/><circle class="cls-11" cx="81.3" cy="39.87" r="2.56"/><rect class="cls-9" x="79.35" y="33.77" width="3.89" height="2.63" rx="0.66" ry="0.66" transform="translate(162.59 70.18) rotate(-180)"/><rect class="cls-9" x="79.35" y="43.33" width="3.89" height="2.63" rx="0.66" ry="0.66" transform="translate(162.59 89.29) rotate(180)"/><rect class="cls-9" x="74.57" y="38.55" width="3.89" height="2.63" rx="0.66" ry="0.66" transform="matrix(0, 1, -1, 0, 116.38, -36.65)"/><rect class="cls-9" x="84.13" y="38.55" width="3.89" height="2.63" rx="0.66" ry="0.66" transform="translate(125.94 -46.21) rotate(90)"/><rect class="cls-9" x="75.97" y="35.17" width="3.89" height="2.63" rx="0.66" ry="0.66" transform="translate(158.81 7.19) rotate(135)"/><rect class="cls-9" x="82.73" y="41.93" width="3.89" height="2.63" rx="0.66" ry="0.66" transform="translate(175.13 13.95) rotate(135)"/><rect class="cls-9" x="75.97" y="41.93" width="3.89" height="2.63" rx="0.66" ry="0.66" transform="translate(53.4 -42.43) rotate(45)"/><rect class="cls-9" x="82.73" y="35.17" width="3.89" height="2.63" rx="0.66" ry="0.66" transform="translate(50.6 -49.19) rotate(45)"/><circle class="cls-9" cx="67.98" cy="41.81" r="3.56"/><circle class="cls-11" cx="67.98" cy="41.81" r="1.78"/><rect class="cls-9" x="66.63" y="37.58" width="2.7" height="1.83" rx="0.46" ry="0.46" transform="translate(135.97 76.98) rotate(180)"/><rect class="cls-9" x="66.63" y="44.22" width="2.7" height="1.83" rx="0.46" ry="0.46" transform="translate(135.97 90.26) rotate(-180)"/><rect class="cls-9" x="63.31" y="40.9" width="2.7" height="1.83" rx="0.46" ry="0.46" transform="matrix(0, 1, -1, 0, 106.47, -22.85)"/><rect class="cls-9" x="69.95" y="40.9" width="2.7" height="1.83" rx="0.46" ry="0.46" transform="translate(113.11 -29.49) rotate(90)"/><rect class="cls-9" x="64.28" y="38.55" width="2.7" height="1.83" rx="0.46" ry="0.46" transform="translate(139.95 20.96) rotate(135)"/><rect class="cls-9" x="68.98" y="43.24" width="2.7" height="1.83" rx="0.46" ry="0.46" transform="translate(151.29 25.65) rotate(135)"/><rect class="cls-9" x="64.28" y="43.24" width="2.7" height="1.83" rx="0.46" ry="0.46" transform="translate(50.45 -33.48) rotate(45)"/><rect class="cls-9" x="68.98" y="38.55" width="2.7" height="1.83" rx="0.46" ry="0.46" transform="translate(48.5 -38.17) rotate(45)"/><rect class="cls-7" x="56.05" y="47.27" width="0.68" height="3.91" rx="0.17" ry="0.17"/><rect class="cls-12" x="55.13" y="41.44" width="2.49" height="6.34" rx="0.62" ry="0.62"/><path class="cls-7" d="M57.38,47.31a1.72,1.72,0,0,1-.53,2c-.56.36-1.24.05-1.51-.69a31.06,31.06,0,0,1-.4-4.47A22.82,22.82,0,0,1,57.38,47.31Z"/><path class="cls-7" d="M55.37,47.31a1.72,1.72,0,0,0,.52,2,1,1,0,0,0,1.52-.69,31.06,31.06,0,0,0,.4-4.47A22.07,22.07,0,0,0,55.37,47.31Z"/><path class="cls-7" d="M68.66,50.15a.85.85,0,0,1-.27,1,.51.51,0,0,1-.75-.34,15.35,15.35,0,0,1-.2-2.22A11.11,11.11,0,0,1,68.66,50.15Z"/><path class="cls-7" d="M67.65,50.15a.87.87,0,0,0,.26,1c.29.18.62,0,.76-.34a15.35,15.35,0,0,0,.2-2.22A11.11,11.11,0,0,0,67.65,50.15Z"/><path class="cls-7" d="M74.77,50.15a.87.87,0,0,1-.26,1c-.29.18-.62,0-.76-.34a15.35,15.35,0,0,1-.2-2.22A11.11,11.11,0,0,1,74.77,50.15Z"/><path class="cls-7" d="M73.77,50.15a.85.85,0,0,0,.26,1,.51.51,0,0,0,.75-.34,15.35,15.35,0,0,0,.2-2.22A10.47,10.47,0,0,0,73.77,50.15Z"/><path class="cls-7" d="M79.15,50.15a.85.85,0,0,1-.26,1c-.28.18-.62,0-.76-.34a16.63,16.63,0,0,1-.19-2.22A10.47,10.47,0,0,1,79.15,50.15Z"/><path class="cls-7" d="M78.15,50.15a.85.85,0,0,0,.26,1c.28.18.62,0,.76-.34a16.94,16.94,0,0,0,.2-2.22A11.11,11.11,0,0,0,78.15,50.15Z"/><path class="cls-7" d="M65.63,55.76a.87.87,0,0,1-.26,1c-.29.18-.62,0-.76-.35a15.24,15.24,0,0,1-.2-2.22A11.31,11.31,0,0,1,65.63,55.76Z"/><path class="cls-7" d="M64.63,55.76a.86.86,0,0,0,.26,1c.28.18.62,0,.75-.35a15.24,15.24,0,0,0,.2-2.22A10.65,10.65,0,0,0,64.63,55.76Z"/><path class="cls-7" d="M62.2,60.77a.85.85,0,0,1-.27,1,.51.51,0,0,1-.75-.34A15.35,15.35,0,0,1,61,59.2,11.73,11.73,0,0,1,62.2,60.77Z"/><path class="cls-7" d="M61.19,60.77a.86.86,0,0,0,.26,1c.29.18.62,0,.76-.34a15.35,15.35,0,0,0,.2-2.22A11.73,11.73,0,0,0,61.19,60.77Z"/><path class="cls-7" d="M49.8,50.15a.85.85,0,0,1-.26,1,.51.51,0,0,1-.75-.34,15.35,15.35,0,0,1-.2-2.22A10.47,10.47,0,0,1,49.8,50.15Z"/><path class="cls-7" d="M48.8,50.15a.87.87,0,0,0,.26,1c.29.18.62,0,.76-.34a15.35,15.35,0,0,0,.2-2.22A11.11,11.11,0,0,0,48.8,50.15Z"/><rect class="cls-5" x="32.27" y="61.11" width="35.49" height="2.02" rx="0.51" ry="0.51"/><rect class="cls-5" x="38.57" y="55.5" width="35.49" height="2.02" rx="0.51" ry="0.51"/><rect class="cls-5" x="44.87" y="49.9" width="35.49" height="2.02" rx="0.51" ry="0.51"/><rect class="cls-7" x="39.86" y="57.93" width="0.68" height="3.91" rx="0.17" ry="0.17"/><rect class="cls-12" x="38.94" y="52.1" width="2.49" height="6.34" rx="0.62" ry="0.62"/><path class="cls-7" d="M41.19,58a1.72,1.72,0,0,1-.53,2,1,1,0,0,1-1.52-.68,32.3,32.3,0,0,1-.39-4.47A23.24,23.24,0,0,1,41.19,58Z"/><path class="cls-7" d="M39.18,58a1.72,1.72,0,0,0,.52,2,1,1,0,0,0,1.52-.68,32.3,32.3,0,0,0,.39-4.47A22.53,22.53,0,0,0,39.18,58Z"/><rect class="cls-7" x="54.15" y="57.93" width="0.68" height="3.91" rx="0.17" ry="0.17"/><rect class="cls-12" x="53.23" y="52.1" width="2.49" height="6.34" rx="0.62" ry="0.62"/><path class="cls-7" d="M55.47,58A1.72,1.72,0,0,1,55,60a1,1,0,0,1-1.52-.68A32.3,32.3,0,0,1,53,54.8,22.53,22.53,0,0,1,55.47,58Z"/><path class="cls-7" d="M53.46,58A1.72,1.72,0,0,0,54,60a1,1,0,0,0,1.52-.68,32.3,32.3,0,0,0,.39-4.47A23.24,23.24,0,0,0,53.46,58Z"/><rect class="cls-7" x="48.66" y="58.89" width="0.51" height="2.92" rx="0.13" ry="0.13" transform="translate(8.92 -6.25) rotate(8.04)"/><rect class="cls-12" x="48.45" y="54.58" width="1.86" height="4.73" rx="0.47" ry="0.47" transform="translate(8.45 -6.35) rotate(8.04)"/><path class="cls-7" d="M49.84,59a1.28,1.28,0,0,1-.59,1.41c-.46.21-.93-.09-1-.67a23,23,0,0,1,.17-3.33A16,16,0,0,1,49.84,59Z"/><path class="cls-7" d="M48.36,58.83a1.28,1.28,0,0,0,.18,1.52A.77.77,0,0,0,49.73,60a23.71,23.71,0,0,0,.76-3.25A16.44,16.44,0,0,0,48.36,58.83Z"/><polyline class="cls-4" points="30.68 48.8 29.64 56.05 28.28 48.8"/><polyline class="cls-4" points="29.93 55.17 29.65 57.06 29.28 55.17"/><rect class="cls-4" x="29.23" y="54.38" width="0.82" height="0.54" rx="0.14" ry="0.14" transform="translate(59.28 109.3) rotate(180)"/><rect class="cls-4" x="29.23" y="54.75" width="0.82" height="0.54" rx="0.14" ry="0.14" transform="translate(59.28 110.03) rotate(-180)"/><polygon class="cls-4" points="23.2 49.42 25.46 50.22 23.04 54.83 22.44 54.31 23.2 49.42"/><polyline class="cls-4" points="23.27 54.88 23.61 56.76 22.66 55.09"/><rect class="cls-4" x="22.42" y="54.21" width="0.82" height="0.54" rx="0.14" ry="0.14" transform="translate(61.94 98.75) rotate(161.28)"/><rect class="cls-4" x="22.53" y="54.56" width="0.82" height="0.54" rx="0.14" ry="0.14" transform="translate(62.28 99.39) rotate(161.28)"/><polygon class="cls-9" points="30.53 57.37 28.91 57.37 29.72 56.29 30.53 57.37"/><polygon class="cls-9" points="24.3 57.37 22.69 57.37 23.5 56.29 24.3 57.37"/><polygon class="cls-13" points="36.78 44.34 38.65 44.34 37.71 47.41 36.78 44.34"/><path class="cls-9" d="M34.17,41.31a2.85,2.85,0,0,0-.56-1,5,5,0,0,0-1-.91,8.3,8.3,0,0,0-2.56-1.22,8.72,8.72,0,0,1,3,.48,6.11,6.11,0,0,1,1.41.73,4.12,4.12,0,0,1,1.25,1.25Z"/><polygon class="cls-14" points="34.17 41.31 34.13 41.16 35.46 40.31 35.69 40.64 34.17 41.31"/><polygon class="cls-14" points="33.92 40.74 33.63 40.33 34.47 39.4 34.98 39.81 33.92 40.74"/><polygon class="cls-14" points="33.28 39.94 32.88 39.58 33.35 38.79 33.92 39.06 33.28 39.94"/><polygon class="cls-14" points="32.45 39.25 31.98 38.95 32.18 38.41 32.77 38.57 32.45 39.25"/><polygon class="cls-14" points="31.47 38.69 30.94 38.47 31 38.23 31.59 38.3 31.47 38.69"/><polygon class="cls-14" points="30.35 38.26 30.08 38.18 30.36 38.19 30.35 38.26"/><path class="cls-4" d="M29.05,52.29H22.28a3.78,3.78,0,0,1-3.77-3.78h0a3.77,3.77,0,0,1,3.77-3.77h6.77c8.63,0,2.46,1.69,2.46,3.77h0C31.51,50.59,31.72,52,29.05,52.29Z"/><path class="cls-4" d="M30.65,48a2.09,2.09,0,0,1-1.52-3.51L32.37,41a2.09,2.09,0,0,1,1.52-.66h2a2.08,2.08,0,1,1,0,4.16H34.79l-2.63,2.8A2.06,2.06,0,0,1,30.65,48Z"/><path class="cls-4" d="M39.61,44.51h-4a1.16,1.16,0,0,1-1.15-1.15h0c0-.63-1.53-2.69-.9-2.69h2.84c.63,0,4.31,2.06,4.31,2.69h0A1.15,1.15,0,0,1,39.61,44.51Z"/><path class="cls-13" d="M33,41.53c0-.58.32-1.05.72-1.05s.72.47.72,1.05,0,2.73-.72,2.73S33,42.11,33,41.53Z"/><polygon class="cls-4" points="31.31 46.94 32.37 46.94 31.84 48.68 31.31 46.94"/><polygon class="cls-4" points="31.97 46.28 33.03 46.28 32.5 48.02 31.97 46.28"/><polygon class="cls-4" points="32.63 45.62 33.69 45.62 33.16 47.36 32.63 45.62"/><polygon class="cls-4" points="33.29 44.96 34.35 44.96 33.82 46.7 33.29 44.96"/><polygon class="cls-4" points="33.95 44.3 35.01 44.3 34.48 46.04 33.95 44.3"/><circle class="cls-9" cx="35.27" cy="41.75" r="0.26"/><polyline class="cls-4" points="28.35 48.65 27.32 55.89 25.96 48.65"/><polyline class="cls-4" points="27.61 55.02 27.33 56.91 26.96 55.02"/><rect class="cls-4" x="26.91" y="54.23" width="0.82" height="0.54" rx="0.14" ry="0.14" transform="translate(54.64 109) rotate(180)"/><rect class="cls-4" x="26.91" y="54.59" width="0.82" height="0.54" rx="0.14" ry="0.14" transform="translate(54.64 109.73) rotate(180)"/><polygon class="cls-9" points="28.13 57.37 26.51 57.37 27.32 56.29 28.13 57.37"/><polygon class="cls-4" points="20.88 49.42 23.13 50.22 20.72 54.83 20.11 54.31 20.88 49.42"/><polyline class="cls-4" points="20.94 54.88 21.28 56.76 20.33 55.09"/><rect class="cls-4" x="20.09" y="54.21" width="0.82" height="0.54" rx="0.14" ry="0.14" transform="translate(57.41 99.5) rotate(161.28)"/><rect class="cls-4" x="20.21" y="54.56" width="0.82" height="0.54" rx="0.14" ry="0.14" transform="matrix(-0.95, 0.32, -0.32, -0.95, 57.74, 100.14)"/><polygon class="cls-9" points="21.98 57.37 20.36 57.37 21.17 56.29 21.98 57.37"/><path class="cls-4" d="M20.6,45.44a.82.82,0,0,1-.81.82,11.93,11.93,0,0,1-2.23-.82,12,12,0,0,1,2.23-.81A.81.81,0,0,1,20.6,45.44Z"/><polygon class="cls-1" points="10.6 68.25 7.9 68.25 7.9 63.02 9.25 61.19 10.6 63.02 10.6 68.25"/><polygon class="cls-1" points="15.87 68.25 13.17 68.25 13.17 63.02 14.52 61.19 15.87 63.02 15.87 68.25"/><polygon class="cls-1" points="21.14 68.25 18.44 68.25 18.44 63.02 19.79 61.19 21.14 63.02 21.14 68.25"/><polygon class="cls-1" points="26.41 68.25 23.71 68.25 23.71 63.02 25.06 61.19 26.41 63.02 26.41 68.25"/><polygon class="cls-1" points="31.67 68.25 28.98 68.25 28.98 63.02 30.33 61.19 31.67 63.02 31.67 68.25"/><polygon class="cls-1" points="36.94 68.25 34.25 68.25 34.25 63.02 35.59 61.19 36.94 63.02 36.94 68.25"/><polygon class="cls-1" points="42.11 68.25 39.41 68.25 39.41 63.02 40.76 61.19 42.11 63.02 42.11 68.25"/><polygon class="cls-1" points="47.28 68.25 44.58 68.25 44.58 63.02 45.93 61.19 47.28 63.02 47.28 68.25"/><polygon class="cls-1" points="52.45 68.25 49.75 68.25 49.75 63.02 51.1 61.19 52.45 63.02 52.45 68.25"/><polygon class="cls-1" points="57.61 68.25 54.92 68.25 54.92 63.02 56.27 61.19 57.61 63.02 57.61 68.25"/><polygon class="cls-1" points="62.78 68.25 60.09 68.25 60.09 63.02 61.43 61.19 62.78 63.02 62.78 68.25"/><rect class="cls-1" x="6.69" y="64.49" width="57.55" height="1.46"/></svg>