<svg id="Layer_1" data-name="Layer 1" xmlns="http://www.w3.org/2000/svg" viewBox="0 0 100 100"><defs><style>.cls-1{fill:#616161;}.cls-2{fill:#171717;}.cls-3{fill:#4f4f4f;}.cls-4{fill:#7d7d7d;}</style></defs><title>ruins</title><polygon class="cls-1" points="33.92 67.53 11.3 54.5 19.37 40.5 43.69 21.86 56.1 29.01 33.92 67.53"/><rect class="cls-1" x="40.36" y="17.94" width="6.65" height="12.95" rx="1.29" ry="1.29" transform="translate(18.02 -18.55) rotate(29.94)"/><rect class="cls-1" x="48.79" y="22.8" width="6.65" height="12.95" rx="1.29" ry="1.29" transform="translate(21.56 -22.1) rotate(29.94)"/><path class="cls-2" d="M42.85,33.62a3.87,3.87,0,0,0-1.42-5.27h0a3.87,3.87,0,0,0-5.28,1.42l-2,3.42,6.69,3.86Z"/><path class="cls-2" d="M35.12,47a3.87,3.87,0,0,0-1.42-5.27h0a3.87,3.87,0,0,0-5.27,1.42l-2,3.42,6.69,3.86Z"/><rect class="cls-3" x="38.73" y="38.27" width="5.83" height="3.29" rx="0.64" ry="0.64" transform="translate(25.48 -15.46) rotate(29.94)"/><polygon class="cls-1" points="86.98 54.47 86.12 55.33 86.98 54.47 86.31 53.8 86.98 54.47 88.97 52.48 87.6 51.11 86.95 51.76 87.6 51.11 86.53 50.04 87.6 51.11 89.52 49.2 89.52 44.78 53.1 34.19 53.1 79.58 89.52 79.58 89.52 57 86.98 54.47"/><path class="cls-2" d="M77.12,51.41a5.83,5.83,0,0,0-5.81-5.81h0a5.82,5.82,0,0,0-5.81,5.81v6H77.12Z"/><rect class="cls-3" x="56.22" y="48.81" width="6.87" height="3.88" rx="0.75" ry="0.75"/><polygon class="cls-1" points="89.52 22.88 80.41 32.25 73.64 32.25 61.83 39.2 89.52 48.81 89.52 22.88"/><path class="cls-4" d="M71.05,64.31l-3.74-3.75H63.22l-2.76-2.75H46.32l-6.24,6.25-6.19-6.19V50.22L27.8,44.13H8.58L6.65,42.19H0V71.1A11.3,11.3,0,0,0,11.27,82.38H89.21A11.28,11.28,0,0,0,100,74.19H80.94Z"/><rect class="cls-1" x="12.2" y="47.57" width="11.2" height="4.41" rx="0.86" ry="0.86"/><rect class="cls-1" x="45.74" y="60.74" width="14.72" height="5.8" rx="1.12" ry="1.12"/><rect class="cls-1" x="17.2" y="65.67" width="14.72" height="5.8" rx="1.12" ry="1.12"/></svg>