<svg id="Layer_1" data-name="Layer 1" xmlns="http://www.w3.org/2000/svg" viewBox="0 0 100 100"><defs><style>.cls-1{fill:#a65524;}.cls-2{fill:#cb6930;}.cls-3{fill:#d97035;}</style></defs><title>steak</title><path class="cls-1" d="M72.94,7a42.39,42.39,0,0,0-21.61,1c-3.89,1.27-14.83,5.5-21.27,16.12-6.22,10.27-.67,14-6.17,24.7C17.19,61.88.8,54.12.53,67.62.47,70.37-1.41,84.29,2.27,90.38,9.64,102.57,41.66,101,63.68,88,89,73,107.57,39.06,97,21.43,90.66,11,74.79,7.41,72.94,7Z"/><path class="cls-2" d="M71.8,2.12A46.58,46.58,0,0,0,50.53,3C46.7,4.14,35.93,7.86,29.6,17.19c-6.12,9-.67,12.31-6.08,21.7-6.59,11.43-17,10.48-21.27,21.7-.69,1.79-3.63,9.42,0,14.77C9.49,86.07,41,84.69,62.69,73.25c24.91-13.16,43.2-43,32.75-58.47C89.24,5.59,73.62,2.46,71.8,2.12Z"/><ellipse class="cls-3" cx="42.91" cy="61.94" rx="8" ry="12.29"/><path class="cls-1" d="M7.56,53.08H86.74q1.53-1.95,2.9-3.95H13.07A51.32,51.32,0,0,0,7.56,53.08Z"/><path class="cls-1" d="M.59,70.57H67.31C69.25,69.35,71.13,68,73,66.63H.63A16.7,16.7,0,0,0,.59,70.57Z"/><ellipse class="cls-3" cx="31.99" cy="41.58" rx="4.54" ry="2.96" transform="translate(-19.11 53.45) rotate(-65.5)"/><ellipse class="cls-3" cx="77.65" cy="33.5" rx="5.95" ry="9.14" transform="translate(-2.89 7.71) rotate(-5.58)"/><ellipse class="cls-3" cx="56.86" cy="14.92" rx="12.29" ry="8" transform="translate(9.83 50.18) rotate(-51.57)"/><path class="cls-1" d="M25.1,35.58H96.59a36.48,36.48,0,0,0,1.1-3.94H26.08A17.54,17.54,0,0,1,25.1,35.58Z"/><path class="cls-1" d="M95.44,14.78c-.15-.22-.33-.43-.49-.64H32a28.24,28.24,0,0,0-2.39,3.05c-.22.31-.38.6-.56.9H97.15A16.74,16.74,0,0,0,95.44,14.78Z"/></svg>