<svg id="Layer_1" data-name="Layer 1" xmlns="http://www.w3.org/2000/svg" viewBox="0 0 100 100"><defs><style>.cls-1{fill:#171717;}.cls-2{fill:#9c9c9c;}.cls-3{fill:#b8b8b8;}.cls-4{fill:#fff;}.cls-5{fill:#f37d3b;}.cls-6{fill:#6ab8d9;}.cls-7{fill:#d6d6d6;}</style></defs><title>spaceship</title><circle class="cls-1" cx="47.04" cy="87.55" r="1.85"/><circle class="cls-1" cx="26.45" cy="96.6" r="3.35"/><circle class="cls-1" cx="30.64" cy="88.04" r="1.24"/><circle class="cls-1" cx="27.53" cy="82.4" r="1.31"/><circle class="cls-1" cx="42.78" cy="78.05" r="2.27"/><circle class="cls-1" cx="41.79" cy="78.94" r="4.12"/><circle class="cls-1" cx="51.02" cy="83.67" r="7.37"/><circle class="cls-1" cx="47.58" cy="78.57" r="2.92"/><circle class="cls-1" cx="37.89" cy="80.31" r="3.93"/><circle class="cls-1" cx="46.2" cy="75.06" r="3.39"/><circle class="cls-1" cx="25.99" cy="73.55" r="2.19"/><circle class="cls-1" cx="38.8" cy="75.86" r="2.56"/><circle class="cls-1" cx="29.3" cy="91.7" r="5.31"/><circle class="cls-1" cx="19.97" cy="90.69" r="1.2"/><circle class="cls-1" cx="25.92" cy="83.63" r="6.42"/><circle class="cls-1" cx="20.28" cy="79.02" r="2.51"/><circle class="cls-1" cx="52.61" cy="85.24" r="5.31"/><circle class="cls-1" cx="43.27" cy="84.23" r="1.2"/><circle class="cls-1" cx="38.97" cy="91.71" r="8.28"/><circle class="cls-1" cx="43.46" cy="84.96" r="8.28"/><circle class="cls-1" cx="43.58" cy="72.56" r="2.51"/><rect class="cls-2" x="54.34" y="33.32" width="10.62" height="27.33" rx="2.48" ry="2.48"/><path class="cls-3" d="M52.58,26.14V81a5.27,5.27,0,0,1-5.26,5.26h0A5.28,5.28,0,0,1,42.06,81V26.14c0-2.9,2.37-11.3,5.26-11.3h0C50.22,14.84,52.58,23.24,52.58,26.14Z"/><rect class="cls-3" x="45.75" y="71.54" width="3.14" height="10.52" transform="translate(-29.48 124.12) rotate(-90)"/><rect class="cls-4" x="17.15" y="43.32" width="53.6" height="17.38" rx="4.06" ry="4.06" transform="translate(-8.06 95.95) rotate(-90)"/><rect class="cls-5" x="41.35" y="54.54" width="5.18" height="17.38" transform="translate(-19.29 107.18) rotate(-90)"/><path class="cls-4" d="M33.52,20.25a9.56,9.56,0,0,1,19.12,0V63.64H33.52Z"/><path class="cls-4" d="M45.51,66.83V63.64h7.13v3.19a3.57,3.57,0,0,1-7.13,0Z"/><path class="cls-4" d="M33.52,70.23V57.8h12V70.23a6,6,0,1,1-12,0Z"/><rect class="cls-4" x="34.47" y="11.6" width="26.78" height="9.56" rx="2.23" ry="2.23" transform="translate(64.24 -31.47) rotate(90)"/><path class="cls-6" d="M40.58,25.21a2.5,2.5,0,0,1-2.5-2.5V12.12a9.5,9.5,0,0,1,5-1.43v12A2.51,2.51,0,0,1,40.58,25.21Z"/><rect class="cls-4" x="44.25" y="65.57" width="4.71" height="4.93" transform="translate(114.64 21.42) rotate(90)"/><polygon class="cls-5" points="27.2 76.23 29.8 73.83 29.8 76.23 27.2 76.23"/><polygon class="cls-4" points="29.8 73.83 39.15 65.21 39.15 76.23 29.8 76.23 29.8 73.83"/><path class="cls-7" d="M52.58,13.08a2.71,2.71,0,0,0-2,1.3c-1.92,2.46-3.28,7.81-3.28,10V78.12a8.53,8.53,0,0,0,2.36-1.5,8.6,8.6,0,0,0,3-6.5v-57Z"/><path class="cls-4" d="M59.6,26.14V81a5.28,5.28,0,0,1-5.26,5.26h0A5.28,5.28,0,0,1,49.07,81V26.14c0-2.9,2.37-11.3,5.27-11.3h0C57.23,14.84,59.6,23.24,59.6,26.14Z"/><rect class="cls-5" x="52.77" y="71.54" width="3.14" height="10.52" transform="translate(-22.46 131.14) rotate(-90)"/><rect class="cls-2" x="61.51" width="5.08" height="97.08" rx="1.19" ry="1.19"/><rect class="cls-2" x="77.15" width="5.08" height="97.08" rx="1.19" ry="1.19"/><rect class="cls-2" x="61.71" y="9.89" width="20.5" height="2.41" transform="translate(13.23 54.14) rotate(-45)"/><rect class="cls-2" x="61.71" y="9.89" width="20.5" height="2.41" transform="translate(13.23 54.14) rotate(-45)"/><rect class="cls-2" x="70.76" y="0.85" width="2.41" height="20.5" transform="translate(13.23 54.14) rotate(-45)"/><rect class="cls-2" x="61.71" y="24.2" width="20.5" height="2.41" transform="translate(3.11 58.33) rotate(-45)"/><rect class="cls-2" x="61.71" y="24.2" width="20.5" height="2.41" transform="translate(3.11 58.33) rotate(-45)"/><rect class="cls-2" x="70.76" y="15.16" width="2.41" height="20.5" transform="translate(3.11 58.33) rotate(-45)"/><rect class="cls-2" x="61.71" y="38.51" width="20.5" height="2.41" transform="translate(-7.01 62.52) rotate(-45)"/><rect class="cls-2" x="61.71" y="38.51" width="20.5" height="2.41" transform="translate(-7.01 62.52) rotate(-45)"/><rect class="cls-2" x="70.76" y="29.47" width="2.41" height="20.5" transform="translate(-7.01 62.52) rotate(-45)"/><rect class="cls-2" x="61.71" y="52.82" width="20.5" height="2.41" transform="translate(-17.13 66.71) rotate(-45)"/><rect class="cls-2" x="61.71" y="52.82" width="20.5" height="2.41" transform="translate(-17.13 66.71) rotate(-45)"/><rect class="cls-2" x="70.76" y="43.78" width="2.41" height="20.5" transform="translate(-17.13 66.71) rotate(-45)"/><rect class="cls-2" x="61.71" y="67.13" width="20.5" height="2.41" transform="translate(-27.25 70.9) rotate(-45)"/><rect class="cls-2" x="61.71" y="67.13" width="20.5" height="2.41" transform="translate(-27.25 70.9) rotate(-45)"/><rect class="cls-2" x="70.76" y="58.09" width="2.41" height="20.5" transform="translate(-27.25 70.9) rotate(-45)"/><rect class="cls-2" x="61.71" y="81.45" width="20.5" height="2.41" transform="translate(-37.37 75.09) rotate(-45)"/><rect class="cls-2" x="61.71" y="81.45" width="20.5" height="2.41" transform="translate(-37.37 75.09) rotate(-45)"/><rect class="cls-2" x="70.76" y="72.4" width="2.41" height="20.5" transform="translate(-37.37 75.09) rotate(-45)"/></svg>