<svg id="Layer_1" data-name="Layer 1" xmlns="http://www.w3.org/2000/svg" viewBox="0 0 100 100"><defs><style>.cls-1{fill:#895e59;}.cls-2{fill:#805752;}.cls-3{fill:#714c48;}.cls-4{fill:#6a4743;}</style></defs><title>clay</title><path class="cls-1" d="M5.89,80.24c0,3.57-.21,7.4,8.83,9.74,1.69.43,3.51.84,5.43,1.21,3.21.63,6.71,1.15,10.45,1.56l2.27.23c5.35.51,11.14.78,17.17.78h0c15.52,0,29.39-1.83,38.55-4.7A42,42,0,0,0,94,87c.53-.25,1-.51,1.47-.77,2.92-1.64,4.56-3.47,4.56-5.4h0c0-4.29-8.08-30.28-20.51-50.36Z"/><path class="cls-1" d="M97.36,37.88l-.63.6.63-.6L95.9,36.7l1.46,1.18L100,35.39v-2.7C100,18.23,88.06,4.59,73.71,6.4,62,7.87,39.32,15.21,27.58,16.48,13.2,18,.09,18.23.09,32.69L12,64.77c0-3.1-.06,26.83,14.4,26.83H73.71C88.17,91.6,100,75.36,100,81.2V40Z"/><path class="cls-2" d="M57.84,23.05S92,14.76,84.54,8A20.38,20.38,0,0,0,73.71,6.4C62,7.87,39.32,15.21,27.58,16.48c-8,.86-15.54,1.31-20.71,4C15.23,26,36.66,37.21,57.84,23.05Z"/><path class="cls-3" d="M23.88,66.82c6.71-12.32,14.79-28.57,11.5-36.88L16.9,17.68C7.31,19.09.09,22,.09,32.69c0,0,3.1,17.24,2.45,32.86l1.93-.46,1-1.21-1,1.21.19,0-.19,0L2.4,67.57c-.07,1-.11,2-.21,3l5,1.88,2.76,0-2.76,0,.23.09-.23-.09L2,72.45A42.54,42.54,0,0,1,.09,80.83C-1.2,84.49,11.92,92.22,26.38,92.22l1.26.19C25.36,89.29,18.17,77.31,23.88,66.82Z"/><path class="cls-2" d="M58.66,33.28c-1,3.41-2.12,6.78-3.28,10.13l-.18-.81c2.09,1.85,4.17,3.7,6.21,5.59l1.09,1-1.39.64c-2,.92-4,1.77-6,2.64l.15-.08c-2.82,1.79-5.64,3.56-8.5,5.27l.46-.84c0,2.37-.12,4.74-.22,7.12l-.18-.5q3.44,4.55,6.65,9.26c-2.7-2.69-5.3-5.46-7.84-8.27l-.17-.18V64c-.09-2.38-.18-4.75-.22-7.12V56.3L45.7,56c2.78-1.85,5.59-3.64,8.41-5.41l.08,0,.08,0c2-.83,4-1.7,6-2.49L60,49.64c-2-2-3.91-4-5.84-6l-.37-.39.19-.42C55.49,39.64,57,36.43,58.66,33.28Z"/><path class="cls-2" d="M64.41,62.82a24.47,24.47,0,0,1-.84-4.41l.37.69a41.27,41.27,0,0,1-5.06-3.17l.35.15c-1.32-.35-2.61-.79-3.89-1.27l-.85-.32.31-.64a23.75,23.75,0,0,1,1.79-3.17,24.13,24.13,0,0,1-.37,3.63l-.53-1a39.09,39.09,0,0,1,4,.66l.16,0,.19.12a41.4,41.4,0,0,1,4.81,3.55l.4.34,0,.35A23.63,23.63,0,0,1,64.41,62.82Z"/><path class="cls-2" d="M95.4,52.35c-1,2-2.09,3.87-3.22,5.74l.11-.23c-.65,3-1.4,5.93-2.23,8.85L90,67l-.18.19c-2.56,2.74-5.18,5.42-8,7.94l0-1c1.32,1.39,2.6,2.82,3.81,4.34-1.64-1-3.2-2.16-4.72-3.33l-.51-.38.46-.59c2.33-3,4.82-5.75,7.38-8.49l-.25.44c.87-2.92,1.82-5.81,2.88-8.67l.06-.18,0,0C92.38,55.55,93.83,53.9,95.4,52.35Z"/><path class="cls-2" d="M89.77,63.8a93.43,93.43,0,0,1,7.06,6.4l.63.62-.72.65Q90.56,77.07,83.88,82l.23-.29c-1.61,2.8-3.29,5.57-5.18,8.22a94.18,94.18,0,0,1,3.58-9l.06-.13.17-.16q6.18-5.58,12.88-10.53l-.09,1.28C93.51,69,91.56,66.45,89.77,63.8Z"/><path class="cls-4" d="M11,28.16c-.76,3.81-1.7,7.55-2.77,11.25l-.05-.71q2.14,3.9,4.16,7.87l.12.23v.26l0,3.62-1.75-.8q2.92-2.45,5.94-4.78l1.1-.85.17,1.29c.22,1.68.44,3.37.58,5.06l0,.25-.14.11c-.92.69-1.83,1.38-2.79,2,.73-.89,1.51-1.74,2.27-2.59l-.11.35c-.51-1.63-.94-3.27-1.37-4.91l1.27.44c-1.82,1.77-3.68,3.49-5.56,5.19L10.31,53l0-2.35,0-3.62.12.49C9,44.9,7.74,42.23,6.5,39.54l-.17-.39.12-.33C7.82,35.22,9.3,31.66,11,28.16Z"/></svg>