<svg id="Layer_1" data-name="Layer 1" xmlns="http://www.w3.org/2000/svg" viewBox="0 0 100 100"><defs><style>.cls-1{fill:#3f3f40;}.cls-2{fill:#9dc7db;}.cls-3{fill:#6d4945;}.cls-4{fill:#885e59;}.cls-5{fill:#f27d3b;}.cls-6{fill:#9b8985;}.cls-7{fill:#77514d;}.cls-8{fill:#747431;}.cls-9{fill:#f37d3b;}.cls-10{fill:#9c9a44;}.cls-11{fill:#3e3e3f;}.cls-12{fill:#fff;}.cls-13{fill:#6ab7d8;}.cls-14{fill:#eaf6fd;}</style></defs><title>kaiju</title><path class="cls-1" d="M68.74,39.88A2.11,2.11,0,0,0,68.11,37l-3-1.9a2.1,2.1,0,0,0-2.9.63l-5.07,7.85,6.49,4.18Z"/><rect class="cls-2" x="62.52" y="36.68" width="1.37" height="1.37" rx="0.09" ry="0.09" transform="translate(30.33 -28.29) rotate(32.81)"/><rect class="cls-2" x="64.33" y="37.85" width="1.37" height="1.37" rx="0.09" ry="0.09" transform="translate(31.25 -29.08) rotate(32.81)"/><rect class="cls-2" x="66.15" y="39.02" width="1.37" height="1.37" rx="0.09" ry="0.09" transform="translate(32.18 -29.88) rotate(32.81)"/><rect class="cls-2" x="61.37" y="38.46" width="1.37" height="1.37" rx="0.09" ry="0.09" transform="translate(31.11 -27.38) rotate(32.81)"/><rect class="cls-2" x="63.18" y="39.63" width="1.37" height="1.37" rx="0.09" ry="0.09" transform="translate(32.04 -28.18) rotate(32.81)"/><rect class="cls-2" x="65" y="40.8" width="1.37" height="1.37" rx="0.09" ry="0.09" transform="translate(32.96 -28.97) rotate(32.81)"/><rect class="cls-2" x="60.21" y="40.25" width="1.37" height="1.37" rx="0.09" ry="0.09" transform="translate(31.9 -26.47) rotate(32.81)"/><rect class="cls-2" x="62.03" y="41.42" width="1.37" height="1.37" rx="0.09" ry="0.09" transform="translate(32.82 -27.27) rotate(32.81)"/><rect class="cls-2" x="63.84" y="42.59" width="1.37" height="1.37" rx="0.09" ry="0.09" transform="translate(33.75 -28.06) rotate(32.81)"/><rect class="cls-2" x="59.06" y="42.03" width="1.37" height="1.37" rx="0.09" ry="0.09" transform="translate(32.68 -25.56) rotate(32.81)"/><rect class="cls-2" x="60.88" y="43.2" width="1.37" height="1.37" rx="0.09" ry="0.09" transform="translate(33.6 -26.36) rotate(32.81)"/><rect class="cls-2" x="62.69" y="44.37" width="1.37" height="1.37" rx="0.09" ry="0.09" transform="translate(34.53 -27.16) rotate(32.81)"/><path class="cls-1" d="M49.09,39.81a2.11,2.11,0,0,0-2.65-1.36l-3.33,1.08a2.09,2.09,0,0,0-1.36,2.64l2.86,8.9L52,48.71Z"/><rect class="cls-2" x="42.95" y="41.81" width="1.37" height="1.37" rx="0.09" ry="0.09" transform="translate(-10.91 15.38) rotate(-17.81)"/><rect class="cls-2" x="45" y="41.15" width="1.37" height="1.37" rx="0.09" ry="0.09" transform="translate(-10.61 15.98) rotate(-17.81)"/><rect class="cls-2" x="47.06" y="40.49" width="1.37" height="1.37" rx="0.09" ry="0.09" transform="translate(-10.31 16.58) rotate(-17.81)"/><rect class="cls-2" x="43.6" y="43.83" width="1.37" height="1.37" rx="0.09" ry="0.09" transform="translate(-11.49 15.68) rotate(-17.81)"/><rect class="cls-2" x="45.65" y="43.17" width="1.37" height="1.37" rx="0.09" ry="0.09" transform="translate(-11.19 16.27) rotate(-17.81)"/><rect class="cls-2" x="47.71" y="42.51" width="1.37" height="1.37" rx="0.09" ry="0.09" transform="translate(-10.89 16.87) rotate(-17.81)"/><rect class="cls-2" x="44.25" y="45.86" width="1.37" height="1.37" rx="0.09" ry="0.09" transform="translate(-12.08 15.97) rotate(-17.81)"/><rect class="cls-2" x="46.3" y="45.2" width="1.37" height="1.37" rx="0.09" ry="0.09" transform="translate(-11.78 16.57) rotate(-17.81)"/><rect class="cls-2" x="48.36" y="44.54" width="1.37" height="1.37" rx="0.09" ry="0.09" transform="translate(-11.48 17.17) rotate(-17.81)"/><rect class="cls-2" x="44.9" y="47.88" width="1.37" height="1.37" rx="0.09" ry="0.09" transform="translate(-12.67 16.27) rotate(-17.81)"/><rect class="cls-2" x="46.95" y="47.22" width="1.37" height="1.37" rx="0.09" ry="0.09" transform="translate(-12.37 16.87) rotate(-17.81)"/><rect class="cls-2" x="49.01" y="46.56" width="1.37" height="1.37" rx="0.09" ry="0.09" transform="translate(-12.07 17.46) rotate(-17.81)"/><rect class="cls-3" x="28.82" y="43.22" width="71.18" height="15.74" rx="3.95" ry="3.95"/><polyline class="cls-3" points="69.09 85.29 97.54 56.84 97.54 47.09 95.81 44.61 51.73 66.01"/><path class="cls-4" d="M32.67,44.14,3,73.78H68.14L97,44.92h-.07a7.74,7.74,0,0,0-4.81-1.7H36.69a7.78,7.78,0,0,0-3.61.93"/><path class="cls-3" d="M63.31,72.1H7.87a7.87,7.87,0,0,0,0,15.74H63.31a7.87,7.87,0,0,0,0-15.74Z"/><path class="cls-1" d="M38.71,32.61a5.13,5.13,0,0,0-6.09-3.91l-8.34,1.83a5.13,5.13,0,0,0-3.9,6.09l3.77,17.26H43.36Z"/><rect class="cls-2" x="23.2" y="36.17" width="3.34" height="3.34" rx="0.22" ry="0.22" transform="translate(-7.51 6.19) rotate(-12.33)"/><rect class="cls-2" x="28.34" y="35.05" width="3.34" height="3.34" rx="0.22" ry="0.22" transform="translate(-7.15 7.26) rotate(-12.33)"/><rect class="cls-2" x="33.47" y="33.93" width="3.34" height="3.34" rx="0.22" ry="0.22" transform="translate(-6.79 8.33) rotate(-12.33)"/><rect class="cls-2" x="24.31" y="41.22" width="3.34" height="3.34" rx="0.22" ry="0.22" transform="translate(-8.56 6.54) rotate(-12.33)"/><rect class="cls-2" x="29.44" y="40.1" width="3.34" height="3.34" rx="0.22" ry="0.22" transform="translate(-8.2 7.61) rotate(-12.33)"/><rect class="cls-2" x="34.57" y="38.98" width="3.34" height="3.34" rx="0.22" ry="0.22" transform="translate(-7.85 8.68) rotate(-12.33)"/><rect class="cls-2" x="25.41" y="46.27" width="3.34" height="3.34" rx="0.22" ry="0.22" transform="translate(-9.62 6.89) rotate(-12.33)"/><rect class="cls-2" x="30.54" y="45.15" width="3.34" height="3.34" rx="0.22" ry="0.22" transform="translate(-9.26 7.96) rotate(-12.33)"/><rect class="cls-2" x="35.68" y="44.03" width="3.34" height="3.34" rx="0.22" ry="0.22" transform="translate(-8.9 9.03) rotate(-12.33)"/><path class="cls-2" d="M30.08,53.84l-.53-2.41A.43.43,0,0,0,29,51.1l-2.41.52a.44.44,0,0,0-.33.52l.38,1.74h3.4S30.08,53.85,30.08,53.84Z"/><rect class="cls-2" x="31.65" y="50.2" width="3.34" height="3.34" rx="0.22" ry="0.22" transform="translate(-10.31 8.31) rotate(-12.33)"/><rect class="cls-2" x="36.78" y="49.08" width="3.34" height="3.34" rx="0.22" ry="0.22" transform="translate(-9.95 9.38) rotate(-12.33)"/><path class="cls-3" d="M29.65,54.16c0,.7-1.54,1.26-3.44,1.26s-3.44-.56-3.44-1.26a4.06,4.06,0,0,1,3.44-2.86A4.06,4.06,0,0,1,29.65,54.16Z"/><path class="cls-3" d="M32.76,54.62c0,.44-1,.8-2.19.8s-2.19-.36-2.19-.8a2.58,2.58,0,0,1,2.19-1.82A2.58,2.58,0,0,1,32.76,54.62Z"/><path class="cls-3" d="M40.2,54.62c0,.44-2,.8-4.42.8s-4.41-.36-4.41-.8,2-1.82,4.41-1.82S40.2,54.18,40.2,54.62Z"/><path class="cls-3" d="M47.08,54.62c0,.44-2,.8-4.41.8s-4.41-.36-4.41-.8,2-1.82,4.41-1.82S47.08,54.18,47.08,54.62Z"/><rect class="cls-5" x="70.25" y="39.51" width="9.84" height="13.14"/><path class="cls-1" d="M79.58,39.51V52.64a1.66,1.66,0,0,0,3.12.8l3.6-6.56a1.68,1.68,0,0,0,0-1.6l-3.6-6.57A1.66,1.66,0,0,0,79.58,39.51Z"/><rect class="cls-2" x="73.5" y="47.71" width="3.34" height="3.34" rx="0.22" ry="0.22"/><path class="cls-4" d="M76.2,41.79h-6v3.34h6a.44.44,0,0,0,.44-.44V42.23A.44.44,0,0,0,76.2,41.79Z"/><rect class="cls-6" x="68.83" y="39.51" width="1.42" height="13.14"/><path class="cls-3" d="M74.66,53.31c0,.44-2,.8-4.41.8s-4.42-.36-4.42-.8,2-1.82,4.42-1.82S74.66,52.87,74.66,53.31Z"/><path class="cls-3" d="M80.09,53.31c0,.44-2,.8-4.42.8s-4.41-.36-4.41-.8,2-1.82,4.41-1.82S80.09,52.87,80.09,53.31Z"/><path class="cls-3" d="M85.47,53.87c0,.45-2,.8-4.42.8s-4.41-.35-4.41-.8,2-1.82,4.41-1.82S85.47,53.43,85.47,53.87Z"/><ellipse class="cls-7" cx="59.66" cy="60.92" rx="16.42" ry="2.41"/><ellipse class="cls-7" cx="36.24" cy="60.92" rx="8.54" ry="1.89"/><polygon class="cls-8" points="56.05 16.42 63.89 21.33 64.18 12.15 56.05 16.42"/><polygon class="cls-8" points="61.47 19.65 66.07 27.68 70.66 19.72 61.47 19.65"/><polygon class="cls-8" points="66.28 25.05 68.32 34.07 75.03 27.81 66.28 25.05"/><rect class="cls-9" x="36.77" y="21.93" width="16.23" height="6.23"/><path class="cls-10" d="M84.41,54.78A52,52,0,0,1,75.13,51a11.85,11.85,0,0,1-4.8-4.34A13.93,13.93,0,0,1,69.05,42c0-.48,0-.95,0-1.41,0-.23,0-.46-.05-.69a3.92,3.92,0,0,1,.06-.75c.06-.51.08-1,.11-1.53v-.79l0-1.15A22.24,22.24,0,0,0,69.06,31l-.4-2.37c-.21-.81-.49-1.63-.78-2.44L67.44,25a11.91,11.91,0,0,0-.64-1.22,22.19,22.19,0,0,0-1.45-2.4c-.63-.79-1.28-1.56-2-2.31S61.74,17.62,60.9,17a23.68,23.68,0,0,0-3-1.8,27.2,27.2,0,0,0-3.35-1.34A30.67,30.67,0,0,0,51,13a24.23,24.23,0,0,0-3.59-.17,19.66,19.66,0,0,0-6.54,1.3,9.67,9.67,0,0,0-4.49,3.3,18.46,18.46,0,0,1,5.27.52,16.62,16.62,0,0,1,2.13.7c.33.15.65.23.95.38l.84.47a8.56,8.56,0,0,1,3.95,4.15c1.36,2.94,1.5,7,1.3,11.42v2l.07,2.43a10.21,10.21,0,0,0,.39,2.49c.21.85.42,1.69.67,2.52A19.34,19.34,0,0,0,59.67,54a24.57,24.57,0,0,0,13.12,3.55A28.69,28.69,0,0,0,79,56.8,19.84,19.84,0,0,0,84.41,54.78Z"/><rect class="cls-10" x="32.14" y="16.69" width="19.62" height="8.6" rx="2.16" ry="2.16" transform="translate(83.9 41.98) rotate(180)"/><rect class="cls-10" x="32.24" y="26.16" width="22.84" height="5.19" rx="1.3" ry="1.3" transform="translate(87.32 57.51) rotate(180)"/><rect class="cls-10" x="34.42" y="14.49" width="1.73" height="5.15" rx="0.43" ry="0.43" transform="translate(70.57 34.12) rotate(-180)"/><circle class="cls-11" cx="47.35" cy="15.93" r="0.82"/><circle class="cls-11" cx="40.33" cy="15.93" r="0.82"/><polygon class="cls-12" points="35.5 26.16 37.44 26.16 36.47 24.08 35.5 26.16"/><polygon class="cls-12" points="37.44 26.16 39.37 26.16 38.4 24.08 37.44 26.16"/><polygon class="cls-12" points="39.37 26.16 41.3 26.16 40.33 24.08 39.37 26.16"/><polygon class="cls-12" points="41.3 26.16 43.23 26.16 42.27 24.08 41.3 26.16"/><polygon class="cls-12" points="43.23 26.16 45.17 26.16 44.2 24.08 43.23 26.16"/><polygon class="cls-12" points="45.17 26.16 47.1 26.16 46.13 24.08 45.17 26.16"/><polygon class="cls-12" points="47.1 26.16 49.03 26.16 48.07 24.08 47.1 26.16"/><rect class="cls-10" x="40.69" y="33.72" width="12.82" height="3.23" rx="0.81" ry="0.81"/><rect class="cls-10" x="44.2" y="38.39" width="12.82" height="3.23" rx="0.81" ry="0.81"/><rect class="cls-10" x="46.25" y="50.92" width="12.82" height="3.23" rx="0.81" ry="0.81" transform="translate(-21.72 52.62) rotate(-45)"/><rect class="cls-10" x="61.11" y="54.29" width="12.82" height="3.23" rx="0.81" ry="0.81" transform="translate(39.51 138.97) rotate(-111)"/><polyline class="cls-13" points="32.15 35.87 45.97 55.1 42.45 57.63 40.32 54.67 36.54 54.05 30.93 46.26 31.57 42.3 28.72 38.33"/><circle class="cls-1" cx="34.87" cy="39.78" r="1.82"/><circle class="cls-1" cx="43.21" cy="51.38" r="1.82"/><polygon class="cls-14" points="32.73 47.85 34.54 46.55 31.89 42.87 31.38 46.01 32.73 47.85"/><polygon class="cls-14" points="36.79 53.5 38.6 52.2 39.93 54.04 36.79 53.52 36.79 53.5"/><rect class="cls-14" x="33.65" y="48.91" width="4.02" height="2.25" transform="translate(15.86 108.19) rotate(-125.72)"/></svg>