<svg id="Layer_1" data-name="Layer 1" xmlns="http://www.w3.org/2000/svg" viewBox="0 0 100 100"><defs><style>.cls-1{fill:none;}.cls-2{fill:#7d7d7d;}.cls-3{fill:#9c9c9c;}.cls-4{fill:#6ab8d9;}</style></defs><title>horseshoe</title><circle class="cls-1" cx="16.27" cy="78.44" r="4.76"/><circle class="cls-1" cx="21.37" cy="35.23" r="4.76"/><circle class="cls-1" cx="38.82" cy="20.42" r="4.76"/><circle class="cls-1" cx="62.08" cy="20.42" r="4.76"/><circle class="cls-1" cx="16.27" cy="57.21" r="4.76"/><circle class="cls-1" cx="84.62" cy="78.44" r="4.76"/><circle class="cls-1" cx="84.62" cy="57.21" r="4.76"/><circle class="cls-1" cx="79.53" cy="35.23" r="4.76"/><path class="cls-2" d="M50,1.8a50.05,50.05,0,0,0-50,50V81.6a16.61,16.61,0,0,0,33.21,0V51.8a16.79,16.79,0,1,1,33.58,0V81.6a16.61,16.61,0,0,0,33.21,0V51.8A50.05,50.05,0,0,0,50,1.8ZM38.82,25.19a4.77,4.77,0,1,1,4.76-4.77A4.77,4.77,0,0,1,38.82,25.19Zm-22.55,58A4.76,4.76,0,1,1,21,78.44,4.76,4.76,0,0,1,16.27,83.2Zm0-30.75a4.77,4.77,0,1,1-4.76,4.76A4.77,4.77,0,0,1,16.27,52.45ZM21.37,40a4.77,4.77,0,1,1,4.76-4.77A4.78,4.78,0,0,1,21.37,40ZM62.08,25.19a4.77,4.77,0,1,1,4.76-4.77A4.78,4.78,0,0,1,62.08,25.19Zm22.54,58a4.76,4.76,0,1,1,4.77-4.76A4.76,4.76,0,0,1,84.62,83.2ZM79.53,30.47a4.77,4.77,0,1,1-4.77,4.76A4.76,4.76,0,0,1,79.53,30.47ZM84.62,62a4.77,4.77,0,1,1,4.77-4.77A4.77,4.77,0,0,1,84.62,62Z"/><path class="cls-3" d="M62.59,25.13a4.43,4.43,0,0,1-.51.06,4.78,4.78,0,0,1-4.77-4.77,4.4,4.4,0,0,1,0-.51L40.27,2.81a52.37,52.37,0,0,0-6.4,1.71L82.38,53a4.62,4.62,0,0,1,2.24-.59,4.72,4.72,0,0,1,4.18,7L100,70.66V62.54Z"/><path class="cls-3" d="M38.82,25.19a4.77,4.77,0,0,1-4.76-4.77v0L23.29,9.61a50.6,50.6,0,0,0-7.64,5.94L39.12,39a16.73,16.73,0,0,1,9.67-3.92l-9.93-9.93Z"/><path class="cls-4" d="M114.48,71.48a81.77,81.77,0,0,1-65,0V48.91a81.77,81.77,0,0,0,65,0Z"/></svg>