<svg id="Layer_1" data-name="Layer 1" xmlns="http://www.w3.org/2000/svg" viewBox="0 0 100 100"><defs><style>.cls-1{fill:#999;}.cls-2{fill:#ef6183;}.cls-3{fill:#231f20;}.cls-4{fill:#bababa;}.cls-5{fill:#8f8f8f;}.cls-6{fill:#6b6b6b;}.cls-7{fill:#5a9eba;}.cls-8{fill:#fff;}.cls-9{fill:#ce5373;}</style></defs><title>soda</title><ellipse class="cls-1" cx="50" cy="89.78" rx="30.72" ry="10.22"/><rect class="cls-2" x="17.52" y="5.52" width="64.95" height="91.07" rx="10.89" ry="10.89"/><ellipse class="cls-3" cx="50" cy="10.78" rx="29.02" ry="9.65"/><ellipse class="cls-1" cx="50" cy="10.22" rx="30.72" ry="10.22"/><ellipse class="cls-4" cx="50" cy="8.88" rx="23.74" ry="6"/><path class="cls-5" d="M44.87,3.75h-9c-4.06,0-7.38,2.11-7.38,4.69s3.32,4.69,7.38,4.69h9c4.06,0,7.38-2.11,7.38-4.69S48.93,3.75,44.87,3.75ZM39,11.62H36.07c-2.92,0-5.31-1.52-5.31-3.37s2.39-3.37,5.31-3.37H39Z"/><path class="cls-6" d="M46.22,6.9c-1.34,0-2.43.69-2.43,1.55S44.88,10,46.22,10s2.44-.69,2.44-1.54S47.57,6.9,46.22,6.9Z"/><circle class="cls-7" cx="50.5" cy="55.05" r="22.68"/><path class="cls-2" d="M40.32,68.44a2,2,0,0,1-1.6-3.18c3.35-4.5,12-17.63,12-24.17a2,2,0,0,1,4,0c0,9.19-12.3,25.84-12.82,26.55A2,2,0,0,1,40.32,68.44Z"/><path class="cls-2" d="M56.72,74.71l-.27,0a2,2,0,0,1-1.7-2.24c.82-6.13,2.19-23.44-1.32-29.78a2,2,0,1,1,3.48-1.92C61.77,49.53,58.82,72,58.69,73A2,2,0,0,1,56.72,74.71Z"/><path class="cls-8" d="M54.38,36.88a5.37,5.37,0,0,1,0,7.58C52.28,46.56,40.3,51,40.3,51s4.4-12,6.49-14.08A5.38,5.38,0,0,1,54.38,36.88Z"/><path class="cls-8" d="M55.3,36.2a4.38,4.38,0,0,0,0,6.21c1.71,1.71,11.53,5.32,11.53,5.32s-3.61-9.82-5.32-11.53A4.38,4.38,0,0,0,55.3,36.2Z"/><circle class="cls-9" cx="38.1" cy="64.58" r="7.62"/><circle class="cls-9" cx="53.59" cy="72.1" r="8.38"/></svg>