<svg id="Layer_1" data-name="Layer 1" xmlns="http://www.w3.org/2000/svg" viewBox="0 0 100 100"><defs><style>.cls-1{fill:#404041;}.cls-2{fill:#f37d3b;}.cls-3{fill:#bcd2de;}.cls-4{fill:#b65e2a;}.cls-5{fill:#171717;}.cls-6{fill:#231f20;}.cls-7{fill:#7d7d7d;}.cls-8{fill:#616161;}</style></defs><title>tractor</title><rect class="cls-1" x="79.6" y="22.67" width="7.33" height="29.46" rx="1.79" ry="1.79"/><rect class="cls-1" x="67.65" y="28.71" width="7.33" height="29.46" rx="1.79" ry="1.79"/><rect class="cls-2" x="14.16" y="12.16" width="42.92" height="42.65"/><rect class="cls-2" x="12.44" y="8.71" width="46.2" height="6.33" rx="1.55" ry="1.55"/><rect class="cls-3" x="19.06" y="15.04" width="32.96" height="27.16"/><rect class="cls-2" x="14.16" y="42.2" width="85.84" height="31.95" rx="6.75" ry="6.75"/><rect class="cls-2" x="14.16" y="42.2" width="15.79" height="14.2"/><rect class="cls-3" x="40" y="27.73" width="12.02" height="28.07" rx="2.93" ry="2.93"/><rect class="cls-4" x="29.07" y="44" width="8.92" height="2.88" rx="0.7" ry="0.7"/><circle class="cls-5" cx="21.59" cy="69.27" r="18.13"/><circle class="cls-6" cx="21.59" cy="69.27" r="9.06"/><rect class="cls-5" x="14.7" y="47.68" width="13.78" height="9.33" rx="2.28" ry="2.28"/><rect class="cls-5" x="14.7" y="81.54" width="13.78" height="9.33" rx="2.28" ry="2.28"/><rect class="cls-5" x="31.63" y="64.61" width="13.78" height="9.33" rx="2.28" ry="2.28" transform="translate(107.79 30.76) rotate(90)"/><rect class="cls-5" x="-2.23" y="64.61" width="13.78" height="9.33" rx="2.28" ry="2.28" transform="translate(73.94 64.61) rotate(90)"/><rect class="cls-5" x="26.67" y="52.64" width="13.78" height="9.33" rx="2.28" ry="2.28" transform="translate(50.35 -6.95) rotate(45)"/><rect class="cls-5" x="2.73" y="76.58" width="13.78" height="9.33" rx="2.28" ry="2.28" transform="translate(60.26 16.99) rotate(45)"/><rect class="cls-5" x="26.67" y="76.58" width="13.78" height="9.33" rx="2.28" ry="2.28" transform="translate(114.74 114.96) rotate(135)"/><rect class="cls-5" x="2.73" y="52.64" width="13.78" height="9.33" rx="2.28" ry="2.28" transform="translate(56.94 91.02) rotate(135)"/><circle class="cls-5" cx="82.45" cy="76.29" r="12.6"/><circle class="cls-6" cx="82.45" cy="76.29" r="6.3"/><rect class="cls-5" x="77.66" y="61.28" width="9.58" height="6.48" rx="1.58" ry="1.58"/><rect class="cls-5" x="77.66" y="84.81" width="9.58" height="6.48" rx="1.58" ry="1.58"/><rect class="cls-5" x="89.42" y="73.05" width="9.58" height="6.48" rx="1.58" ry="1.58" transform="translate(170.5 -17.92) rotate(90)"/><rect class="cls-5" x="65.89" y="73.05" width="9.58" height="6.48" rx="1.58" ry="1.58" transform="translate(146.97 5.61) rotate(90)"/><rect class="cls-5" x="85.98" y="64.73" width="9.58" height="6.48" rx="1.58" ry="1.58" transform="translate(74.65 -44.27) rotate(45)"/><rect class="cls-5" x="69.34" y="81.37" width="9.58" height="6.48" rx="1.58" ry="1.58" transform="translate(81.54 -27.64) rotate(45)"/><rect class="cls-5" x="85.98" y="81.37" width="9.58" height="6.48" rx="1.58" ry="1.58" transform="translate(214.77 80.25) rotate(135)"/><rect class="cls-5" x="69.34" y="64.73" width="9.58" height="6.48" rx="1.58" ry="1.58" transform="translate(174.61 63.62) rotate(135)"/><rect class="cls-1" x="66.26" y="24.98" width="10.31" height="7.3" rx="1.78" ry="1.78"/><rect class="cls-1" x="78.11" y="19.8" width="10.31" height="7.3" rx="1.78" ry="1.78"/><rect class="cls-7" x="62.23" y="45.44" width="26.52" height="10.96" rx="2.67" ry="2.67"/><rect class="cls-8" x="68.93" y="46.24" width="1.76" height="8.58" rx="0.43" ry="0.43"/><rect class="cls-8" x="74.61" y="46.24" width="1.76" height="8.58" rx="0.43" ry="0.43"/><rect class="cls-8" x="80.29" y="46.24" width="1.76" height="8.58" rx="0.43" ry="0.43"/></svg>