<svg id="Layer_1" data-name="Layer 1" xmlns="http://www.w3.org/2000/svg" viewBox="0 0 100 100"><defs><style>.cls-1{fill:#069172;}.cls-2{fill:#09a582;}.cls-3{fill:#ffc640;}.cls-4{fill:#171717;}.cls-5{fill:#00604a;}</style></defs><title>frog</title><ellipse class="cls-1" cx="11.15" cy="59.04" rx="9.11" ry="21.62" transform="translate(-18.74 6.92) rotate(-19.14)"/><circle class="cls-1" cx="13.87" cy="83.87" r="3.45"/><circle class="cls-1" cx="19.54" cy="81.9" r="3.45"/><circle class="cls-1" cx="25.21" cy="79.93" r="3.45"/><ellipse class="cls-1" cx="18.02" cy="77.78" rx="5.18" ry="6" transform="matrix(0.94, -0.33, 0.33, 0.94, -24.51, 10.21)"/><ellipse class="cls-1" cx="88.85" cy="59.04" rx="21.62" ry="9.11" transform="translate(3.94 123.62) rotate(-70.86)"/><circle class="cls-1" cx="86.13" cy="83.87" r="3.45"/><circle class="cls-1" cx="80.46" cy="81.9" r="3.45"/><circle class="cls-1" cx="74.79" cy="79.93" r="3.45"/><ellipse class="cls-1" cx="81.98" cy="77.78" rx="6" ry="5.18" transform="translate(-18.38 129.72) rotate(-70.86)"/><rect class="cls-2" x="21.41" y="42.33" width="10.01" height="47.82" rx="2.09" ry="2.09"/><rect class="cls-2" x="68.63" y="42.33" width="10.01" height="47.82" rx="2.09" ry="2.09"/><ellipse class="cls-2" cx="51.41" cy="53.69" rx="45.9" ry="23.32"/><path class="cls-3" d="M81,45.86C81,54.1,67.83,76.37,51.6,76.37S22.21,54.1,22.21,45.86,35.37,30.93,51.6,30.93,81,37.61,81,45.86Z"/><ellipse class="cls-2" cx="51.6" cy="26.47" rx="35.5" ry="24.53"/><circle class="cls-2" cx="18.29" cy="10.07" r="8.13"/><circle class="cls-2" cx="83.24" cy="10.07" r="8.13"/><circle class="cls-4" cx="17" cy="8.56" r="2.82"/><circle class="cls-4" cx="84.28" cy="8.56" r="2.82"/><rect class="cls-5" x="40.77" y="19.07" width="2.73" height="2.73" rx="0.57" ry="0.57"/><rect class="cls-5" x="59.11" y="19.07" width="2.73" height="2.73" rx="0.57" ry="0.57"/><circle class="cls-2" cx="18.42" cy="93.46" r="4.6"/><circle class="cls-2" cx="26.42" cy="93.46" r="4.6"/><circle class="cls-2" cx="34.41" cy="93.46" r="4.6"/><ellipse class="cls-2" cx="26.3" cy="87.61" rx="6.9" ry="7.99"/><circle class="cls-2" cx="65.64" cy="93.46" r="4.6"/><circle class="cls-2" cx="73.63" cy="93.46" r="4.6"/><circle class="cls-2" cx="80" cy="93.46" r="4.6"/><ellipse class="cls-2" cx="73.52" cy="87.61" rx="6.9" ry="7.99"/><ellipse class="cls-2" cx="51.5" cy="34.31" rx="37.68" ry="10.53"/><path class="cls-1" d="M83.89,29.49a166.5,166.5,0,0,0-64,0,1.43,1.43,0,0,1-1.78-1.44h0a2.3,2.3,0,0,1,1.78-2.15,166.5,166.5,0,0,1,64,0,2.29,2.29,0,0,1,1.78,2.15h0A1.43,1.43,0,0,1,83.89,29.49Z"/><circle class="cls-1" cx="16.1" cy="59.27" r="2.57"/><circle class="cls-1" cx="52.47" cy="38.89" r="0.59"/><circle class="cls-1" cx="71.89" cy="13.85" r="1.16"/><circle class="cls-1" cx="95.36" cy="62.28" r="0.72"/><circle class="cls-1" cx="81.15" cy="66.02" r="2.36"/><circle class="cls-1" cx="47.84" cy="42.33" r="2.36"/><circle class="cls-1" cx="71.84" cy="79.26" r="1.11"/></svg>