<svg id="Layer_1" data-name="Layer 1" xmlns="http://www.w3.org/2000/svg" viewBox="0 0 100 100"><defs><style>.cls-1{fill:#7e5651;}.cls-2{fill:#3e3e3f;}.cls-3{fill:#396d81;}.cls-4{fill:#ffc640;}.cls-5{fill:#895e59;}.cls-6{fill:#714c48;}.cls-7{fill:#fff;}.cls-8{fill:#d4d6d7;}.cls-9{fill:#dddfe0;}.cls-10{fill:#f37d3b;}</style></defs><title>mailman</title><rect class="cls-1" x="77.09" y="22.38" width="5.11" height="71.77" rx="1.12" ry="1.12"/><ellipse class="cls-2" cx="32.74" cy="23.7" rx="17.98" ry="10.18"/><path class="cls-3" d="M46,16.34c0,6.29-10.29,11.39-23,11.39S0,22.63,0,16.34,23,5,35.67,5,46,10.05,46,16.34Z"/><path class="cls-4" d="M23,30.11a48.38,48.38,0,0,1-5.55-.32A2.38,2.38,0,1,1,18,25.07a43.32,43.32,0,0,0,5,.29c11.66,0,20-4.46,20.55-8.61a2.38,2.38,0,1,1,4.72.57C47.36,24.61,36.5,30.11,23,30.11Z"/><rect class="cls-4" x="33.58" y="11.78" width="6.24" height="9.31" rx="1.37" ry="1.37"/><path class="cls-5" d="M4.12,60.47H44a5.1,5.1,0,0,1,5.1,5.1V85.73a5.1,5.1,0,0,1-5.1,5.1H6.12A5.1,5.1,0,0,1,1,85.73V63.56A3.09,3.09,0,0,1,4.12,60.47Z"/><rect class="cls-6" x="5.11" y="61.79" width="39.96" height="3.12" rx="0.69" ry="0.69"/><rect class="cls-7" x="10.44" y="50.08" width="29.29" height="16.85" transform="translate(-23.66 17.56) rotate(-26.76)"/><polygon class="cls-8" points="8.22 57.57 34.37 44.38 25.92 60.15 8.22 57.57"/><rect class="cls-5" x="3.57" y="64.92" width="44.1" height="10.25"/><path class="cls-1" d="M44.28,95.05c-7.32,0-13.07-1.86-16.81-5.55a27.12,27.12,0,0,1-2.52-3,16.3,16.3,0,0,0-6-5.42,16.64,16.64,0,0,0-4.46-1.49,15.8,15.8,0,0,1-5.37-2C5.28,75.21,2.51,71,.88,65.2A2.27,2.27,0,1,1,5.26,64c1.31,4.71,3.42,8,6.25,9.75a11.25,11.25,0,0,0,4,1.44A21,21,0,0,1,21,77.05a20.68,20.68,0,0,1,7.56,6.7,23,23,0,0,0,2.1,2.51c3.29,3.25,9,4.64,16.47,4.14-4.17-4.24-5-13.26-2.45-26.85a2.27,2.27,0,0,1,4.47.84C46.82,76.77,47.49,85.27,51,87.73a8.65,8.65,0,0,0,5.78,1.18c1.47-.34,3-.74,4.51-1.18a2.74,2.74,0,0,1,2.55.08l.89.57L65,90.9l-1.3.79a18.71,18.71,0,0,1-6.37,1.74A59.78,59.78,0,0,1,44.28,95.05Z"/><rect class="cls-7" x="56.07" y="33.87" width="43.93" height="18.4" rx="4.05" ry="4.05"/><circle class="cls-9" cx="65.83" cy="43.07" r="8.53"/><rect class="cls-10" x="72.92" y="28.35" width="3.03" height="9.56" rx="0.67" ry="0.67"/><rect class="cls-10" x="69.27" y="28.35" width="5.4" height="3.55"/></svg>