<svg id="Layer_1" data-name="Layer 1" xmlns="http://www.w3.org/2000/svg" viewBox="0 0 100 100"><defs><style>.cls-1{fill:#fdddbd;}.cls-2{fill:#dec3a8;}</style></defs><title>bandage</title><path class="cls-1" d="M100,92.41c-24.51-19.83-49,19.83-73.53,0V16.13C51,36,75.49-3.7,100,16.13Z"/><path class="cls-2" d="M26.47,16.13V92.41c8.91,7.21,17.82,6.55,26.74,3.75V19.87C44.29,22.68,35.38,23.34,26.47,16.13Z"/><rect class="cls-1" y="1.86" width="46.74" height="95.9" rx="9.03" ry="9.03"/><circle class="cls-2" cx="23.37" cy="75.93" r="17.14"/><circle class="cls-2" cx="6.98" cy="17.25" r="2.04"/><circle class="cls-2" cx="6.98" cy="33.51" r="2.04"/><circle class="cls-2" cx="6.98" cy="49.76" r="2.04"/><circle class="cls-2" cx="23.83" cy="17.25" r="2.04"/><circle class="cls-2" cx="23.83" cy="33.51" r="2.04"/><circle class="cls-2" cx="23.83" cy="49.76" r="2.04"/><circle class="cls-2" cx="15.67" cy="8.56" r="2.04"/><circle class="cls-2" cx="15.67" cy="24.81" r="2.04"/><circle class="cls-2" cx="15.67" cy="41.07" r="2.04"/><circle class="cls-2" cx="39.76" cy="17.25" r="2.04"/><circle class="cls-2" cx="39.76" cy="33.51" r="2.04"/><circle class="cls-2" cx="39.76" cy="49.76" r="2.04"/><circle class="cls-2" cx="31.6" cy="8.56" r="2.04"/><circle class="cls-2" cx="31.6" cy="24.81" r="2.04"/><circle class="cls-2" cx="31.6" cy="41.07" r="2.04"/><circle class="cls-2" cx="59.86" cy="30.06" r="2.04"/><circle class="cls-2" cx="59.86" cy="46.32" r="2.04"/><circle class="cls-2" cx="59.86" cy="62.57" r="2.04"/><circle class="cls-2" cx="76.72" cy="30.06" r="2.04"/><circle class="cls-2" cx="76.72" cy="46.32" r="2.04"/><circle class="cls-2" cx="76.72" cy="62.57" r="2.04"/><circle class="cls-2" cx="68.55" cy="21.37" r="2.04"/><circle class="cls-2" cx="68.55" cy="37.62" r="2.04"/><circle class="cls-2" cx="68.55" cy="53.88" r="2.04"/><circle class="cls-2" cx="92.65" cy="30.06" r="2.04"/><circle class="cls-2" cx="92.65" cy="46.32" r="2.04"/><circle class="cls-2" cx="92.65" cy="62.57" r="2.04"/><circle class="cls-2" cx="84.48" cy="21.37" r="2.04"/><circle class="cls-2" cx="84.48" cy="37.62" r="2.04"/><circle class="cls-2" cx="84.48" cy="53.88" r="2.04"/><circle class="cls-2" cx="59.86" cy="80.28" r="2.04"/><circle class="cls-2" cx="76.72" cy="80.28" r="2.04"/><circle class="cls-2" cx="68.55" cy="71.59" r="2.04"/><circle class="cls-2" cx="92.65" cy="80.28" r="2.04"/><circle class="cls-2" cx="84.48" cy="71.59" r="2.04"/></svg>