<svg id="Layer_1" data-name="Layer 1" xmlns="http://www.w3.org/2000/svg" viewBox="0 0 100 100"><defs><style>.cls-1{fill:#5f3f3b;}.cls-2{fill:#6d4945;}.cls-3{fill:#553734;}.cls-4{fill:#533632;}.cls-5{fill:#9dc8dc;}</style></defs><title>log cabin</title><path class="cls-1" d="M94.7,39.82H8.42v7.61a1.78,1.78,0,0,0-1.78,1.78v4A1.78,1.78,0,0,0,8.42,55V70.26A1.78,1.78,0,0,0,6.64,72v4a1.78,1.78,0,0,0,1.78,1.78v7.61a1.78,1.78,0,0,0-1.78,1.78v4a1.78,1.78,0,0,0,1.78,1.78H94.7a1.78,1.78,0,0,0,1.78-1.78v-4a1.78,1.78,0,0,0-1.78-1.78V77.87a1.78,1.78,0,0,0,1.78-1.78V72a1.78,1.78,0,0,0-1.78-1.78V55a1.78,1.78,0,0,0,1.78-1.78v-4a1.78,1.78,0,0,0-1.78-1.78Z"/><rect class="cls-2" x="6.64" y="39.82" width="89.84" height="7.61" rx="1.78" ry="1.78"/><rect class="cls-3" x="6.64" y="55.04" width="89.84" height="7.61" rx="1.78" ry="1.78"/><rect class="cls-2" x="6.64" y="62.65" width="89.84" height="7.61" rx="1.78" ry="1.78"/><rect class="cls-2" x="6.64" y="77.87" width="89.84" height="7.61" rx="1.78" ry="1.78"/><path class="cls-4" d="M98.94,35.85h-.06l.12-.49a1.53,1.53,0,0,0-1.11-1.85l-8.46-2.09.48-2a1.53,1.53,0,0,0-1.11-1.84l-8.47-2.09.49-1.95a1.52,1.52,0,0,0-1.12-1.84l-8.46-2.1.49-1.94a1.52,1.52,0,0,0-1.12-1.84l-8.46-2.1.48-1.94A1.52,1.52,0,0,0,61.52,10L52.9,7.85A1.53,1.53,0,0,0,51.13,7l-.91.22L49.31,7a1.51,1.51,0,0,0-1.76.89L38.92,10a1.53,1.53,0,0,0-1.11,1.85l.48,1.94-8.46,2.1a1.53,1.53,0,0,0-1.11,1.84l.48,1.94-8.46,2.1a1.53,1.53,0,0,0-1.11,1.84l.48,1.95-8.46,2.09a1.51,1.51,0,0,0-1.11,1.84l.48,2L2.56,33.51a1.52,1.52,0,0,0-1.11,1.85l.12.49H1.06A1.07,1.07,0,0,0,0,36.91v2.42A1.07,1.07,0,0,0,1.06,40.4H98.94A1.07,1.07,0,0,0,100,39.33V36.91A1.07,1.07,0,0,0,98.94,35.85Z"/><path class="cls-1" d="M41,52.52a12.46,12.46,0,0,0-5.52-2q-.62-.06-1.23-.06h0A12.67,12.67,0,0,0,21.66,63.12v30H46.92v-30A12.6,12.6,0,0,0,41,52.52Z"/><path class="cls-2" d="M35.52,50.55V93.09H41V52.52A12.46,12.46,0,0,0,35.52,50.55Z"/><path class="cls-4" d="M49.06,93.09H44.78v-30a10.49,10.49,0,0,0-21,0v30H19.52v-30a14.77,14.77,0,0,1,29.54,0Z"/><path class="cls-5" d="M70.25,75.28A13.66,13.66,0,1,1,83.91,61.62,13.67,13.67,0,0,1,70.25,75.28Z"/><path class="cls-4" d="M70.25,50.1A11.52,11.52,0,1,1,58.73,61.62,11.56,11.56,0,0,1,70.25,50.1m0-4.28a15.8,15.8,0,1,0,15.8,15.8,15.81,15.81,0,0,0-15.8-15.8Z"/><rect class="cls-4" x="68.08" y="47.43" width="4.34" height="28.39" rx="1.02" ry="1.02"/><rect class="cls-4" x="68.08" y="47.43" width="4.34" height="28.39" rx="1.02" ry="1.02" transform="translate(131.88 -8.63) rotate(90)"/></svg>