<svg id="Layer_1" data-name="Layer 1" xmlns="http://www.w3.org/2000/svg" viewBox="0 0 100 100"><defs><style>.cls-1{fill:#ffc63f;}.cls-2{fill:#6ab8d9;}.cls-3{fill:#bcd2de;}.cls-4{fill:#171717;}.cls-5{fill:#f37d3b;}.cls-6{fill:#5595b0;}</style></defs><title>bus</title><rect class="cls-1" x="95.35" y="47.34" width="4.65" height="9.4" rx="1.14" ry="1.14"/><rect class="cls-2" y="21.41" width="94.83" height="49.5" rx="6.52" ry="6.52"/><path class="cls-3" d="M91.42,38.11A13.33,13.33,0,0,0,78.13,24.82H61.65V44.25H91.42Z"/><circle class="cls-4" cx="12.07" cy="70.61" r="7.98"/><circle class="cls-5" cx="12.07" cy="70.61" r="3.28"/><circle class="cls-4" cx="28.67" cy="70.61" r="7.98"/><circle class="cls-5" cx="28.67" cy="70.61" r="3.28"/><circle class="cls-4" cx="80.9" cy="70.61" r="7.98"/><circle class="cls-5" cx="80.9" cy="70.61" r="3.28"/><rect class="cls-3" x="34.8" y="24.82" width="19.24" height="19.24"/><rect class="cls-3" x="8.79" y="24.82" width="19.24" height="19.24"/><rect class="cls-6" x="61.65" y="47.82" width="8.26" height="2.87" rx="0.7" ry="0.7"/><rect class="cls-6" x="34.8" y="47.82" width="8.26" height="2.87" rx="0.7" ry="0.7"/><path class="cls-2" d="M97.75,57.78h0A5.83,5.83,0,0,1,91.94,52h0a5.82,5.82,0,0,1,5.81-5.81h0"/><rect class="cls-2" x="86.35" y="53.06" width="11.4" height="4.72"/></svg>