<svg id="Layer_1" data-name="Layer 1" xmlns="http://www.w3.org/2000/svg" viewBox="0 0 100 100"><defs><style>.cls-1{fill:#fff;}.cls-2{fill:#714c48;}.cls-3{fill:#e6e7e8;}.cls-4{fill:#171717;}</style></defs><title>alpaca</title><ellipse class="cls-1" cx="59.5" cy="12.86" rx="4.94" ry="2.94"/><ellipse class="cls-1" cx="89.95" cy="12.86" rx="4.94" ry="2.94"/><path class="cls-2" d="M18.75,95.71v1.07a3.22,3.22,0,0,0,6.44,0V95.71Z"/><path class="cls-3" d="M25.19,77.6a3.22,3.22,0,0,0-6.44,0V95.71h6.44Z"/><path class="cls-2" d="M60.83,95.71v1.07a3.22,3.22,0,0,0,6.44,0V95.71Z"/><path class="cls-3" d="M67.27,77.6a3.22,3.22,0,0,0-6.44,0V95.71h6.44Z"/><rect class="cls-1" x="8.37" y="46.93" width="74.26" height="28.14" rx="6.59" ry="6.59"/><rect class="cls-1" x="12.1" y="38.9" width="17.75" height="42.83" rx="4.15" ry="4.15"/><rect class="cls-1" x="28.45" y="38.9" width="17.75" height="42.83" rx="4.15" ry="4.15"/><rect class="cls-1" x="44.79" y="38.9" width="17.75" height="42.83" rx="4.15" ry="4.15"/><rect class="cls-1" x="61.14" y="38.9" width="17.75" height="42.83" rx="4.15" ry="4.15"/><rect class="cls-1" x="64.91" y="4.15" width="19.63" height="59.94" rx="4.59" ry="4.59"/><rect class="cls-1" x="15.43" y="71.56" width="13.08" height="3.52" rx="0.82" ry="0.82"/><rect class="cls-1" x="15.43" y="75.08" width="13.08" height="3.52" rx="0.82" ry="0.82"/><rect class="cls-1" x="15.43" y="78.61" width="13.08" height="3.52" rx="0.82" ry="0.82"/><rect class="cls-1" x="15.43" y="82.13" width="13.08" height="3.52" rx="0.82" ry="0.82"/><rect class="cls-1" x="15.43" y="85.33" width="13.08" height="3.52" rx="0.82" ry="0.82"/><rect class="cls-1" x="15.43" y="88.54" width="13.08" height="3.52" rx="0.82" ry="0.82"/><rect class="cls-1" x="57.51" y="71.56" width="13.08" height="3.52" rx="0.82" ry="0.82"/><rect class="cls-1" x="57.51" y="75.08" width="13.08" height="3.52" rx="0.82" ry="0.82"/><rect class="cls-1" x="57.51" y="78.61" width="13.08" height="3.52" rx="0.82" ry="0.82"/><rect class="cls-1" x="57.51" y="82.13" width="13.08" height="3.52" rx="0.82" ry="0.82"/><rect class="cls-1" x="57.51" y="85.04" width="13.08" height="3.52" rx="0.82" ry="0.82"/><rect class="cls-1" x="57.51" y="87.96" width="13.08" height="3.52" rx="0.82" ry="0.82"/><path class="cls-1" d="M16.29,53.21,11.79,59c-1.26,1.62-3.62,7.88-5.24,6.62h0a3.75,3.75,0,0,1-.65-5.24l4.5-11.75A3.75,3.75,0,0,1,15.64,48h0A3.74,3.74,0,0,1,16.29,53.21Z"/><rect class="cls-1" x="56.57" y="7.29" width="27.27" height="12.68" rx="2.97" ry="2.97" transform="translate(83.84 -56.57) rotate(90)"/><rect class="cls-1" x="65.7" y="7.29" width="27.27" height="12.68" rx="2.97" ry="2.97" transform="translate(92.97 -65.7) rotate(90)"/><rect class="cls-3" x="63.86" y="6.49" width="21.81" height="18.7" rx="9.35" ry="9.35"/><rect class="cls-3" x="63.2" y="13.63" width="23.14" height="15.91" rx="6.15" ry="6.15"/><rect class="cls-1" x="61.14" y="2.84" width="27.27" height="9.62" rx="2.25" ry="2.25"/><circle class="cls-4" cx="65.79" cy="14.37" r="0.88"/><circle class="cls-4" cx="82.75" cy="14.37" r="0.88"/><path class="cls-4" d="M78.33,15.22c0,1.3-3.29,4-3.29,4s-3.3-2.75-3.3-4,1.48-2.36,3.3-2.36S78.33,13.91,78.33,15.22Z"/><path class="cls-4" d="M72.2,22.12a.53.53,0,0,1,0-1.06,2.31,2.31,0,0,0,2.3-2.31.54.54,0,0,1,1.07,0A3.37,3.37,0,0,1,72.2,22.12Z"/><path class="cls-4" d="M77.88,22.12a3.38,3.38,0,0,1-3.38-3.37.54.54,0,0,1,1.07,0,2.32,2.32,0,0,0,2.31,2.31.53.53,0,0,1,0,1.06Z"/></svg>