<svg id="Layer_1" data-name="Layer 1" xmlns="http://www.w3.org/2000/svg" viewBox="0 0 100 100"><defs><style>.cls-1{fill:#805752;}.cls-2{fill:#895e59;}.cls-3{fill:#714c48;}.cls-4{fill:#fff;}</style></defs><title>golem</title><rect class="cls-1" x="54.68" y="43.69" width="15.72" height="56.31" rx="3.86" ry="3.86"/><rect class="cls-1" x="32.08" y="43.69" width="15.72" height="56.31" rx="3.86" ry="3.86"/><rect class="cls-1" x="72.23" y="33.45" width="11.35" height="44.99" rx="2.79" ry="2.79"/><rect class="cls-1" x="16.43" y="33.45" width="11.35" height="44.99" rx="2.79" ry="2.79"/><rect class="cls-2" x="24" y="18.84" width="53.05" height="69.94" rx="13.03" ry="13.03"/><path class="cls-1" d="M23.16,13.57V37.72a27.37,27.37,0,0,0,54.74,0V13.57Z"/><path class="cls-2" d="M23.16,7V31.11a27.37,27.37,0,0,0,54.74,0V7Z"/><rect class="cls-3" x="32.78" y="38.33" width="36.64" height="5.36" rx="0.8" ry="0.8"/><rect class="cls-2" x="23.16" width="54.74" height="14.07" rx="3.46" ry="3.46"/><path class="cls-4" d="M32.78,23.16a4.39,4.39,0,0,1-8.78,0c0-2.42,4.39-12.7,4.39-12.7S32.78,20.74,32.78,23.16Z"/><path class="cls-4" d="M26.19,19.1a1.33,1.33,0,0,1-2.65,0,22.51,22.51,0,0,1,1.32-3.84A22.4,22.4,0,0,1,26.19,19.1Z"/><path class="cls-4" d="M33.06,10.19a1.33,1.33,0,1,1-2.65,0,22.83,22.83,0,0,1,1.32-3.84A22.71,22.71,0,0,1,33.06,10.19Z"/><path class="cls-4" d="M27.93,5.71a1.33,1.33,0,1,1-2.65,0A22.83,22.83,0,0,1,26.6,1.87,22.71,22.71,0,0,1,27.93,5.71Z"/><path class="cls-4" d="M67.75,23.16a4.39,4.39,0,1,0,8.77,0c0-2.42-4.38-12.7-4.38-12.7S67.75,20.74,67.75,23.16Z"/><path class="cls-4" d="M74.34,19.1a1.33,1.33,0,0,0,2.65,0,22.4,22.4,0,0,0-1.33-3.84A22.51,22.51,0,0,0,74.34,19.1Z"/><path class="cls-4" d="M67.47,10.19a1.33,1.33,0,1,0,2.65,0,22.71,22.71,0,0,0-1.33-3.84A22.83,22.83,0,0,0,67.47,10.19Z"/><path class="cls-4" d="M72.6,5.71a1.33,1.33,0,1,0,2.65,0,22.83,22.83,0,0,0-1.32-3.84A22.71,22.71,0,0,0,72.6,5.71Z"/><path class="cls-3" d="M31.94,62.34c-.28.9-.55,1.81-.88,2.7l0-.21c.56.49,1.12,1,1.66,1.49l.28.27-.36.16-1.6.71,0,0c-.74.48-1.51.93-2.27,1.4l.12-.22c0,.64,0,1.27-.06,1.9l0-.12c.62.8,1.2,1.63,1.78,2.46-.71-.72-1.42-1.45-2.09-2.21l0-.05v-.08c0-.63-.05-1.26-.05-1.9v-.14l.13-.08c.74-.48,1.48-1,2.24-1.45h0l1.62-.66-.08.43c-.54-.52-1.05-1.06-1.56-1.6L30.66,65l.05-.11C31.08,64,31.52,63.19,31.94,62.34Z"/><path class="cls-3" d="M33.48,70.22a6,6,0,0,1-.22-1.17l.09.18A13.2,13.2,0,0,1,32,68.38l.09,0c-.35-.11-.71-.2-1-.34L30.85,68l.07-.16a6.48,6.48,0,0,1,.47-.85,7.57,7.57,0,0,1-.11,1l-.13-.25a10.13,10.13,0,0,1,1.08.18h0l.06,0a11.68,11.68,0,0,1,1.28.94l.11.09v.1A8,8,0,0,1,33.48,70.22Z"/><path class="cls-3" d="M55.24,18.09A12.61,12.61,0,0,1,54.86,16l.17.32a17.33,17.33,0,0,1-2.36-1.48l.16.07a14.21,14.21,0,0,1-1.81-.6l-.37-.15.13-.28a9.93,9.93,0,0,1,.82-1.49,10.41,10.41,0,0,1-.19,1.69l-.24-.42a13.27,13.27,0,0,1,1.89.29l.08,0,.08.05a18.28,18.28,0,0,1,2.24,1.66l.19.16,0,.16A11.66,11.66,0,0,1,55.24,18.09Z"/><path class="cls-3" d="M68.79,34.46a12.42,12.42,0,0,1-.38-2.06l.17.32a18,18,0,0,1-2.36-1.48l.16.08a16.74,16.74,0,0,1-1.81-.61l-.37-.15.13-.28a10.25,10.25,0,0,1,.82-1.48A11.52,11.52,0,0,1,65,30.48l-.24-.42a15,15,0,0,1,1.88.29l.08,0,.09.05A19,19,0,0,1,69,32.08l.19.17,0,.15A11.49,11.49,0,0,1,68.79,34.46Z"/><path class="cls-3" d="M59.07,67.53c-.46.91-1,1.8-1.51,2.66l0-.1c-.28,1.39-.64,2.77-1,4.13l0,.11-.09.09c-1.19,1.28-2.41,2.53-3.71,3.7l0-.44c.62.63,1.2,1.32,1.78,2-.76-.49-1.5-1-2.2-1.55L52.09,78l.2-.26c1.08-1.39,2.24-2.69,3.43-4l-.11.21c.4-1.36.84-2.71,1.35-4l0-.08,0,0C57.66,69,58.35,68.26,59.07,67.53Z"/><path class="cls-3" d="M56.45,72.86c1.16.94,2.22,2,3.28,3l.3.28-.34.31a76.36,76.36,0,0,1-6,4.92l.1-.14c-.76,1.3-1.52,2.6-2.41,3.83.48-1.44,1.08-2.82,1.67-4.2l0-.06.08-.08c1.92-1.73,3.92-3.37,6-4.9l0,.59C58.2,75.25,57.28,74.1,56.45,72.86Z"/><path class="cls-3" d="M48.83,8.93c1.16.94,2.22,2,3.29,3l.29.28-.34.31a76.36,76.36,0,0,1-6,4.92l.11-.14c-.77,1.3-1.53,2.6-2.42,3.84.48-1.45,1.08-2.83,1.68-4.21l0-.06.08-.08a76.42,76.42,0,0,1,6-4.9l-.05.59C50.59,11.32,49.66,10.17,48.83,8.93Z"/><circle class="cls-3" cx="37.44" cy="4.38" r="0.67"/><circle class="cls-3" cx="39.83" cy="8.32" r="0.67"/><circle class="cls-3" cx="50.56" cy="8.32" r="0.67"/><circle class="cls-3" cx="61.3" cy="8.32" r="0.67"/><circle class="cls-3" cx="42.68" cy="4.38" r="0.67"/><circle class="cls-3" cx="47.91" cy="4.38" r="0.67"/><circle class="cls-3" cx="53.15" cy="4.38" r="0.67"/><circle class="cls-3" cx="58.38" cy="4.38" r="0.67"/><circle class="cls-3" cx="63.62" cy="4.38" r="0.67"/></svg>