<svg id="Layer_1" data-name="Layer 1" xmlns="http://www.w3.org/2000/svg" viewBox="0 0 100 100"><defs><style>.cls-1{fill:#714c48;}.cls-2{fill:#895e59;}.cls-3{fill:#5c3d39;}</style></defs><title>rope</title><path class="cls-1" d="M39.82,80.64c-28.07,0-28.68-4.13-29.1-7a5.88,5.88,0,0,1-.06-1c-1.5.78-3.1,1.55-4.83,2.31a4,4,0,1,1-3.22-7.35,97.29,97.29,0,0,0,10.57-5.59l1.65-1c-1.57-1.89-2.38-3.93-1.94-6.1,1.11-5.51,7.53-5.88,16.42-6.38C39.6,48,53.71,47.2,60,38.61c2.73-3.72,3.9-8.74,3.5-14.93a4,4,0,0,1,8-.52c.53,8.12-1.16,14.91-5,20.2-3.63,5-8.66,8-14.16,9.85,21.3,1.21,41.81,7.24,46.19,12.16A5.3,5.3,0,0,1,100,69.45c-.24,2.65-.89,9.67-50,11C46.23,80.59,42.86,80.64,39.82,80.64ZM24,72c3.26.34,7.43.52,12.11.58-1.59-.51-4-1.35-6.73-2.45C27.93,70.65,25.94,71.32,24,72Zm63.51-3.86a6.41,6.41,0,0,1-.62.87c.64-.14,1.23-.27,1.79-.41C88.34,68.48,88,68.32,87.54,68.17ZM44.25,66.45a72.56,72.56,0,0,0,29.92-.35A97.37,97.37,0,0,0,44.25,66.45Z"/><path class="cls-2" d="M5.83,75,2.61,67.64C3.82,67.11,5,66.57,6.05,66l3.62,7.17C8.45,73.8,7.18,74.4,5.83,75Z"/><path class="cls-2" d="M40.06,80.62c-2.82,0-5.53-.06-8.06-.16l.29-8,3.55.1c-.84-.27-1.69-.55-2.55-.86l1.42-4L33.17,62c-1,.22-2,.47-3,.76l-2.3-7.7a47,47,0,0,1,5.27-1.24l-.36-5.45c3-.2,5.41-.43,7.62-.73l1.09,8c-1.69.23-3.36.4-4.85.53l.39,3.53c1.26-.28,2.53-.54,3.8-.78L42.18,66l1,.22L41.36,74c-.42-.09-.85-.19-1.27-.3Zm8-.09-.18-8,2-.05.55-5a74.24,74.24,0,0,0,7.5.42l0,8-2,0,.2,4.42C53.44,80.38,50.75,80.47,48.1,80.53Zm-24.27-.59A36.4,36.4,0,0,1,15,78.25l2.85-7.5a13.35,13.35,0,0,0,1.65.45l-1.28-2.81-1,.58-.43.25-4.05-6.93L13.2,62c2.26-1.32,4.39-2.57,6.71-3.74l1,2,1.94-2.64a40.85,40.85,0,0,0,6.21,3.6L26.29,67l1.29,3.8c-.94.32-2.09.71-3.26,1.15l.31,0Zm40.31-.13-.55-8,2.32-.16-.39-4.11a67.47,67.47,0,0,0,7.39-1.11l1.66,7.86c-.92.19-1.87.37-2.83.53l.43,4.35C69.58,79.4,66.89,79.62,64.14,79.81Zm16.07-1.59-1.08-8c1-.14,2.05-.29,3-.44l-1.79-4-.16,0A3,3,0,0,0,81.12,68a6.49,6.49,0,0,0-1.47-.63l.51-1.53c-1.55-.43-3.19-.85-4.88-1.23l1.81-7.83c2.8.65,5.47,1.36,7.93,2.11l-.54,1.79c1.73.87,3.63,2.35,3.72,4.9a5.32,5.32,0,0,1-1.49,3.66l1.62,7.65C86,77.34,83.29,77.8,80.21,78.22Zm0-12.71v.25l0-.14Zm17.07,8.21-3.19-4.63H92a2.54,2.54,0,0,0,.55,1.62,11.06,11.06,0,0,0-2.87-1.63L93,61.77c3.48,1.58,7,3.67,7,7.24l0,.43A5.74,5.74,0,0,1,97.25,73.72ZM92.7,67.11A2.56,2.56,0,0,0,92,68.73l2,.17Zm-20-1.25c-2.35-.32-4.88-.54-7.54-.65l.11-2.56c-1.71-.27-3.43-.5-5.13-.7L61,54c2.68.31,5.39.71,8.06,1.17l-.38,2.23c1.73.13,3.41.3,5,.52Zm-22.78-.15-.49-4.6-1.67-.06-2.86,0-.12-8h.12c.92,0,1.94,0,3.06,0l1.69,0-1.93-6.86a30.07,30.07,0,0,0,6.49-2.59l3.89,7a35.11,35.11,0,0,1-5.81,2.55l.66,0-.25,4.16c1.52-.12,3.05-.2,4.57-.25l.27,8C55,65.26,52.39,65.44,49.87,65.71ZM20,57.79,14.93,51.6c2.1-1.78,5.34-2.35,9.91-2.71l.62,8C21.38,57.21,20.3,57.63,20,57.79ZM65.3,44.84,59.21,39.6c.28-.31.54-.65.79-1a16.89,16.89,0,0,0,2.35-4.55l7.59,2.62a25.05,25.05,0,0,1-3.46,6.68C66.1,43.87,65.71,44.37,65.3,44.84Z"/><path class="cls-2" d="M71.58,27.58l-8-.31a33.42,33.42,0,0,0,0-3.59l8-.52A43.91,43.91,0,0,1,71.58,27.58Z"/><ellipse class="cls-3" cx="66.72" cy="21.79" rx="4.05" ry="2.22" transform="translate(-3.45 20.08) rotate(-16.69)"/><ellipse class="cls-3" cx="2.35" cy="71.87" rx="2.22" ry="4.05" transform="translate(-15.75 2.28) rotate(-12.7)"/></svg>