<svg id="Layer_1" data-name="Layer 1" xmlns="http://www.w3.org/2000/svg" viewBox="0 0 100 100"><defs><style>.cls-1{fill:#6ab8d9;}.cls-2{fill:#fff;}.cls-3{fill:#ffc640;}.cls-4{fill:#daab38;}</style></defs><title>puddle</title><ellipse class="cls-1" cx="50" cy="52.09" rx="50" ry="12.5"/><ellipse class="cls-1" cx="65.06" cy="63.24" rx="27.16" ry="7.55"/><ellipse class="cls-1" cx="37.3" cy="75.51" rx="10.72" ry="3.67"/><ellipse class="cls-1" cx="71.98" cy="83.2" rx="6.5" ry="1.64"/><ellipse class="cls-2" cx="51.05" cy="49.74" rx="23.66" ry="3.1"/><path class="cls-2" d="M50.93,56.28c-14.32,0-29.54-2.25-29.54-6.42s15.22-6.42,29.54-6.42,29.53,2.25,29.53,6.42S65.25,56.28,50.93,56.28Zm0-11.65c-17.56,0-28.35,3-28.35,5.23s10.79,5.23,28.35,5.23,28.34-3,28.34-5.23S68.49,44.63,50.93,44.63Z"/><rect class="cls-3" x="30.46" y="15.17" width="22.73" height="32.89" rx="5.37" ry="5.37"/><path class="cls-3" d="M70.49,43.46A11.3,11.3,0,0,0,59.23,32.2H44.06V43.46Z"/><rect class="cls-4" x="30.46" y="43.46" width="40.03" height="3.67"/><rect class="cls-4" x="30.46" y="43.59" width="5" height="7.09" rx="1.18" ry="1.18"/><rect class="cls-4" x="35.46" y="43.59" width="5" height="7.09" rx="1.18" ry="1.18"/><rect class="cls-4" x="40.47" y="43.59" width="5" height="7.09" rx="1.18" ry="1.18"/><rect class="cls-4" x="45.47" y="43.59" width="5" height="7.09" rx="1.18" ry="1.18"/><rect class="cls-4" x="50.47" y="43.59" width="5" height="7.09" rx="1.18" ry="1.18"/><rect class="cls-4" x="55.48" y="43.59" width="5" height="7.09" rx="1.18" ry="1.18"/><rect class="cls-4" x="60.48" y="43.59" width="5" height="7.09" rx="1.18" ry="1.18"/><rect class="cls-4" x="65.48" y="43.59" width="5" height="7.09" rx="1.18" ry="1.18"/><ellipse class="cls-4" cx="41.86" cy="18.05" rx="8.35" ry="1.43"/><rect class="cls-2" x="30.46" y="50.14" width="40.74" height="1.07"/><path class="cls-1" d="M20.49,34.77c1,1,1.76,5.28,1.76,5.28S17.94,39.27,17,38.3a2.49,2.49,0,1,1,3.52-3.53Z"/><path class="cls-1" d="M23.24,26.5c1,1,1.75,5.28,1.75,5.28S20.69,31,19.71,30a2.5,2.5,0,0,1,3.53-3.53Z"/><path class="cls-1" d="M79,37.92c-1.18,1.18-6.42,2.13-6.42,2.13s1-5.23,2.13-6.42A3,3,0,1,1,79,37.92Z"/><path class="cls-1" d="M74,30.07c-1.19,1.19-6.43,2.13-6.43,2.13s.95-5.23,2.14-6.42A3,3,0,0,1,74,30.07Z"/><circle class="cls-4" cx="50.67" cy="23.05" r="0.92"/><circle class="cls-4" cx="50.67" cy="27.11" r="0.92"/><circle class="cls-4" cx="50.67" cy="31.18" r="0.92"/></svg>