<svg id="Layer_1" data-name="Layer 1" xmlns="http://www.w3.org/2000/svg" viewBox="0 0 100 100"><defs><style>.cls-1{fill:#ad7771;}.cls-2{fill:#ffc63f;}.cls-3{fill:#a16f69;}</style></defs><title>grilled cheese</title><polyline class="cls-1" points="5.3 65.56 22.56 50.96 98.38 50.96 77.53 71.81"/><rect class="cls-1" x="19.63" y="40.8" width="80.37" height="15.34" rx="3.73" ry="3.73"/><rect class="cls-1" x="19.63" y="26.34" width="80.37" height="15.34" rx="3.73" ry="3.73"/><rect class="cls-2" x="21.09" y="38.47" width="77.29" height="5.3" rx="1.29" ry="1.29"/><circle class="cls-2" cx="27.99" cy="43.86" r="3.06"/><circle class="cls-2" cx="94.2" cy="43.86" r="3.06"/><circle class="cls-2" cx="33.9" cy="44.89" r="5.37"/><rect class="cls-2" x="37.49" y="38.88" width="5.62" height="16.89" rx="1.37" ry="1.37"/><path class="cls-2" d="M42.19,40.62v7.23a2.81,2.81,0,1,0,5.62,0V40.62Z"/><path class="cls-2" d="M75.27,43.45v7.24a2.81,2.81,0,0,0,5.62,0V43.45Z"/><path class="cls-2" d="M86.32,43.45v7.24a2.81,2.81,0,0,0,5.62,0V43.45Z"/><path class="cls-2" d="M81.44,42.63v7.23a2.81,2.81,0,1,0,5.61,0V42.63Z"/><path class="cls-2" d="M81.44,45.23v7.24a2.81,2.81,0,0,0,5.61,0V45.23Z"/><path class="cls-2" d="M78.74,50.25v7.24a2.81,2.81,0,1,0,5.62,0V50.25Z"/><path class="cls-2" d="M75.27,54.91v7.24a2.81,2.81,0,1,0,5.62,0V54.91Z"/><path class="cls-2" d="M79.15,46v7.24a2.81,2.81,0,0,0,5.62,0V46Z"/><circle class="cls-2" cx="48.35" cy="43.86" r="3.06"/><circle class="cls-2" cx="54.27" cy="44.89" r="5.37"/><circle class="cls-2" cx="72.71" cy="44.89" r="5.37"/><path class="cls-2" d="M62.55,40.62v7.23a2.81,2.81,0,1,0,5.62,0V40.62Z"/><rect class="cls-1" y="58.32" width="80.37" height="15.34" rx="3.73" ry="3.73"/><rect class="cls-1" y="43.86" width="80.37" height="15.34" rx="3.73" ry="3.73"/><rect class="cls-2" x="1.45" y="56" width="77.29" height="5.3" rx="1.29" ry="1.29"/><circle class="cls-2" cx="8.36" cy="61.38" r="3.06"/><circle class="cls-2" cx="74.57" cy="61.38" r="3.06"/><circle class="cls-2" cx="14.27" cy="62.41" r="5.37"/><rect class="cls-2" x="17.85" y="56.4" width="5.62" height="16.89" rx="1.37" ry="1.37"/><path class="cls-2" d="M22.56,58.14v7.24a2.81,2.81,0,1,0,5.61,0V58.14Z"/><path class="cls-2" d="M55.64,61v7.24a2.81,2.81,0,1,0,5.61,0V61Z"/><path class="cls-2" d="M66.69,61v7.24a2.81,2.81,0,1,0,5.61,0V61Z"/><circle class="cls-2" cx="28.72" cy="61.38" r="3.06"/><circle class="cls-2" cx="34.63" cy="62.41" r="5.37"/><circle class="cls-2" cx="53.08" cy="62.41" r="5.37"/><path class="cls-2" d="M42.92,58.14v7.24a2.81,2.81,0,0,0,5.62,0V58.14Z"/><polyline class="cls-1" points="5.3 45.64 22.56 31.03 98.38 31.03 77.53 51.88"/><polygon class="cls-3" points="12.56 43.86 26.62 31.03 91.55 31.03 78.4 44.18 12.56 43.86"/><circle class="cls-1" cx="27.37" cy="33.46" r="1.41"/><circle class="cls-1" cx="32.4" cy="41.76" r="1.41"/><circle class="cls-1" cx="55.06" cy="41.76" r="1.41"/><circle class="cls-1" cx="77.72" cy="41.76" r="1.41"/><circle class="cls-1" cx="38.42" cy="33.46" r="1.41"/><circle class="cls-1" cx="49.47" cy="33.46" r="1.41"/><circle class="cls-1" cx="60.52" cy="33.46" r="1.41"/><circle class="cls-1" cx="71.57" cy="33.46" r="1.41"/><circle class="cls-1" cx="82.62" cy="33.46" r="1.41"/></svg>