<svg id="Layer_1" data-name="Layer 1" xmlns="http://www.w3.org/2000/svg" viewBox="0 0 100 100"><defs><style>.cls-1{fill:#09a582;}.cls-2{fill:#007f63;}.cls-3{fill:#038c6e;}.cls-4{fill:#171717;}</style></defs><title>pterodactyl</title><polygon class="cls-1" points="52.03 62.26 60.3 62.26 56.17 81.38 52.03 62.26"/><path class="cls-1" d="M50.62,67.89,86.12,57l10,5.94a2.56,2.56,0,0,0,3.65-3.22L90,37a2.57,2.57,0,0,0-2.23-1.54l-20.2-1a2.68,2.68,0,0,0-1.46.38L51.3,43.94,54,48.29l14.1-8.66,17.82.85,6.07,14L87.75,52a2.51,2.51,0,0,0-2-.24L49.12,63Z"/><polyline class="cls-2" points="52.63 46.12 67.4 37.04 87.6 38 97.44 60.69 86.45 54.17 49.87 65.45"/><polygon class="cls-1" points="96.87 61.11 82 40.89 69.31 40.89 57.48 48.11 56.74 46.9 68.91 39.47 82.71 39.47 98.02 60.27 96.87 61.11"/><polygon class="cls-1" points="85.94 55.65 80.03 45.47 68.84 40.83 69.38 39.52 81.01 44.34 87.17 54.94 85.94 55.65"/><polygon class="cls-1" points="76.03 58.28 75.12 48.04 68.6 41.11 69.63 40.13 76.49 47.43 77.44 58.16 76.03 58.28"/><polygon class="cls-1" points="41.83 62.26 50.11 62.26 45.97 81.38 41.83 62.26"/><path class="cls-1" d="M49.38,67.89,13.88,57l-10,5.94A2.56,2.56,0,0,1,.21,59.67L10.05,37a2.57,2.57,0,0,1,2.23-1.54l20.2-1a2.68,2.68,0,0,1,1.46.38L48.7,43.94,46,48.29l-14.1-8.66-17.82.85L8,54.46,12.25,52a2.51,2.51,0,0,1,2.05-.24L50.88,63Z"/><polyline class="cls-2" points="47.37 46.12 32.6 37.04 12.4 38 2.56 60.69 13.55 54.17 50.13 65.45"/><path class="cls-1" d="M42,18.62c-18,0-36.1,3-36.1,6.8H42"/><polyline class="cls-1" points="41.97 32.22 5.87 25.42 41.97 25.42"/><path class="cls-1" d="M42,25.42c12.53,0,22.69-3.05,22.69-6.8H42"/><circle class="cls-1" cx="41.97" cy="28.15" r="4.06"/><path class="cls-1" d="M40.74,25.18S52,28.82,52,46.88"/><path class="cls-1" d="M52,52.55a5.67,5.67,0,0,1-5.68-5.67c0-13.35-7.13-16.23-7.43-16.35l1.88-5.35,1.74-5.4c.62.2,15.16,5.16,15.16,27.1A5.67,5.67,0,0,1,52,52.55Z"/><path class="cls-1" d="M40.27,45.58c0-4.72,4.83-8.54,10.8-8.54s10.79,3.82,10.79,8.54S57,71.1,51.07,71.1,40.27,50.29,40.27,45.58Z"/><path class="cls-3" d="M43.85,49.06c0-3.15,3.23-5.7,7.22-5.7s7.22,2.55,7.22,5.7-3.24,17.07-7.22,17.07S43.85,52.22,43.85,49.06Z"/><circle class="cls-4" cx="42.89" cy="23.81" r="1.29"/><polygon class="cls-1" points="3.13 61.11 1.99 60.27 17.29 39.47 31.09 39.47 43.27 46.9 42.52 48.11 30.69 40.89 18 40.89 3.13 61.11"/><polygon class="cls-1" points="14.06 55.65 12.84 54.94 18.98 44.34 30.62 39.52 31.16 40.83 19.97 45.47 14.06 55.65"/><polygon class="cls-1" points="23.97 58.28 22.55 58.16 23.51 47.43 30.37 40.13 31.4 41.11 24.88 48.04 23.97 58.28"/><circle class="cls-2" cx="43.72" cy="28.23" r="0.83"/><circle class="cls-2" cx="48.26" cy="28.23" r="0.83"/><circle class="cls-2" cx="45.84" cy="26.11" r="0.83"/><rect class="cls-2" x="4.91" y="24.48" width="33.52" height="1.33" rx="0.33" ry="0.33"/></svg>