<svg id="Layer_1" data-name="Layer 1" xmlns="http://www.w3.org/2000/svg" viewBox="0 0 100 100"><defs><style>.cls-1{fill:#bcd2de;}.cls-2{fill:#171717;}.cls-3{fill:#714c48;}.cls-4{fill:#fff;}.cls-5{fill:#f37d3b;}.cls-6{fill:#dddfe0;}</style></defs><title>snow globe</title><circle class="cls-1" cx="50" cy="38.14" r="38.14"/><line class="cls-2" x1="38.28" y1="51.65" x2="28.52" y2="57.61"/><path class="cls-3" d="M28.53,58.73a1.16,1.16,0,0,1-1-.53,1.13,1.13,0,0,1,.38-1.55l9.75-6a1.13,1.13,0,0,1,1.18,1.93l-9.76,6A1.1,1.1,0,0,1,28.53,58.73Z"/><ellipse class="cls-2" cx="51.98" cy="30.33" rx="2.32" ry="6.66" transform="translate(3.56 66.07) rotate(-66.69)"/><ellipse class="cls-2" cx="53.73" cy="26.53" rx="6.61" ry="5.74" transform="translate(8.1 65.38) rotate(-66.69)"/><path class="cls-4" d="M64.87,67c0,8.51-6.9,9.58-15.4,9.58S34.07,75.55,34.07,67a15.4,15.4,0,0,1,30.8,0Z"/><path class="cls-4" d="M62.33,54.08c0,7.1-5.76,8-12.86,8s-12.86-.9-12.86-8a12.86,12.86,0,1,1,25.72,0Z"/><path class="cls-4" d="M58,39.1c0,5.91-4.79,6.65-10.7,6.65S36.61,45,36.61,39.1a10.7,10.7,0,1,1,21.4,0Z"/><path class="cls-5" d="M39.52,35.87a2.27,2.27,0,0,1,0,4.54c-1.25,0-8.92-1-8.92-2.27S38.27,35.87,39.52,35.87Z"/><circle class="cls-2" cx="50.62" cy="36.18" r="1.04"/><circle class="cls-2" cx="38.9" cy="42.55" r="0.63"/><circle class="cls-2" cx="40.88" cy="42.8" r="0.63"/><circle class="cls-2" cx="43.28" cy="42.8" r="0.63"/><circle class="cls-2" cx="40.25" cy="52.73" r="0.63"/><circle class="cls-2" cx="40.88" cy="56.55" r="0.63"/><circle class="cls-2" cx="39.14" cy="60.31" r="0.63"/><circle class="cls-2" cx="38.04" cy="64.44" r="0.63"/><circle class="cls-2" cx="45.8" cy="41.68" r="0.63"/><path class="cls-5" d="M47.72,48.33a28.61,28.61,0,0,1-9.21-1.52l.79-2.11c.1,0,10.47,3.79,18.89-1.41l1.18,1.92A22,22,0,0,1,47.72,48.33Z"/><path class="cls-5" d="M44,51.11a64.45,64.45,0,0,1-7.29-.4l.53-4.48c4.59.54,17.41,1,21.5-3.15L62,46.22C58,50.27,50,51.11,44,51.11Z"/><line class="cls-2" x1="66.93" y1="59.32" x2="57.73" y2="52.54"/><path class="cls-3" d="M66.93,60.44a1.12,1.12,0,0,1-.67-.22l-9.2-6.78a1.13,1.13,0,1,1,1.34-1.81l9.2,6.78a1.12,1.12,0,0,1-.67,2Z"/><path class="cls-5" d="M59.64,57.93l-4.11-1.86c.83-1.84-1.21-5.25-2.33-6.62l3.48-2.87C57.21,47.23,61.84,53.05,59.64,57.93Z"/><path class="cls-5" d="M64.12,56.46a14.69,14.69,0,0,0-7.45-7.16l1.53-4.24a19.05,19.05,0,0,1,10,9.52Z"/><rect class="cls-3" x="13.41" y="72.19" width="73.18" height="27.81" rx="6.35" ry="6.35"/><ellipse class="cls-6" cx="30.18" cy="15.29" rx="9.28" ry="4.78" transform="translate(0.84 32.12) rotate(-56.7)"/><ellipse class="cls-6" cx="40.14" cy="22.82" rx="5.2" ry="4.24" transform="translate(-0.97 43.84) rotate(-56.7)"/><circle class="cls-4" cx="24.09" cy="15.91" r="1.31"/><circle class="cls-4" cx="38.28" cy="25.45" r="0.64"/><circle class="cls-4" cx="73.8" cy="55.93" r="1.66"/><circle class="cls-4" cx="67" cy="20.34" r="1.55"/><circle class="cls-4" cx="17.21" cy="48.83" r="1.55"/><circle class="cls-4" cx="74.96" cy="37.79" r="0.93"/><circle class="cls-4" cx="25.4" cy="31.13" r="1.62"/><circle class="cls-4" cx="59.99" cy="13.87" r="1.03"/><circle class="cls-4" cx="45.8" cy="5.44" r="1.03"/><circle class="cls-4" cx="50.18" cy="17.49" r="1.58"/><circle class="cls-4" cx="29.17" cy="39.79" r="1.07"/><circle class="cls-4" cx="63.66" cy="36.18" r="1.33"/><circle class="cls-4" cx="77.14" cy="16.56" r="0.65"/></svg>