<svg id="Layer_1" data-name="Layer 1" xmlns="http://www.w3.org/2000/svg" viewBox="0 0 100 100"><defs><style>.cls-1{fill:#5e5e5e;}.cls-2{fill:#7d7d7d;}.cls-3{fill:#a3a3a3;}.cls-4{fill:#f37d3b;}.cls-5{fill:#ffc63f;}.cls-6{fill:#ffc640;}</style></defs><title>flamethrower</title><rect class="cls-1" x="22.74" y="34.95" width="9.48" height="22.86" rx="2.23" ry="2.23" transform="translate(-24.74 33.01) rotate(-45)"/><rect class="cls-2" x="76.4" y="14.4" width="13.84" height="4.82" rx="1.14" ry="1.14" transform="translate(36.29 -53.99) rotate(45)"/><rect class="cls-3" x="30.59" y="39.4" width="30.31" height="8.35" rx="1.97" ry="1.97" transform="translate(-17.41 45.11) rotate(-45)"/><rect class="cls-2" x="-0.21" y="55.57" width="53.24" height="14.66" rx="3.46" ry="3.46" transform="translate(-36.74 37.1) rotate(-45)"/><rect class="cls-2" x="41.18" y="14.25" width="47.83" height="19.94" rx="4.7" ry="4.7" transform="translate(1.94 53.12) rotate(-45)"/><circle class="cls-1" cx="50.72" cy="30.56" r="2.51"/><circle class="cls-1" cx="57.16" cy="24.11" r="2.51"/><circle class="cls-1" cx="63.61" cy="17.67" r="2.51"/><circle class="cls-1" cx="57.97" cy="31.22" r="2.51"/><circle class="cls-1" cx="64.41" cy="24.77" r="2.51"/><circle class="cls-1" cx="70.86" cy="18.33" r="2.51"/><circle class="cls-1" cx="77.56" cy="11.62" r="2.51"/><circle class="cls-1" cx="70.05" cy="11.22" r="2.51"/><circle class="cls-1" cx="58.75" cy="38.6" r="2.51"/><circle class="cls-1" cx="65.2" cy="32.15" r="2.51"/><circle class="cls-1" cx="71.65" cy="25.71" r="2.51"/><circle class="cls-1" cx="78.09" cy="19.26" r="2.51"/><rect class="cls-4" x="21.68" y="59.75" width="42.79" height="15.19" rx="3.58" ry="3.58" transform="translate(-35 50.19) rotate(-45)"/><rect class="cls-5" x="33.74" y="67.2" width="3.78" height="15.19" transform="translate(-42.45 47.1) rotate(-45)"/><rect class="cls-2" x="4.92" y="68.94" width="17.3" height="31.06" rx="4.08" ry="4.08"/><rect class="cls-1" x="7.44" y="74.09" width="12.99" height="23.32" rx="3.06" ry="3.06"/><rect class="cls-2" x="83.12" y="14.05" width="13.84" height="4.82" rx="1.14" ry="1.14" transform="translate(14.73 68.49) rotate(-45)"/><path class="cls-6" d="M94.65,7.45a3.58,3.58,0,1,1-7.16,0c0-2,3.58-7.45,3.58-7.45S94.65,5.48,94.65,7.45Z"/><rect class="cls-2" x="89.11" y="9.74" width="7.22" height="2.59" rx="0.61" ry="0.61" transform="translate(19.35 68.8) rotate(-45)"/><rect class="cls-2" x="9.19" y="79.65" width="1.62" height="13.2" rx="0.38" ry="0.38"/><rect class="cls-2" x="13.13" y="79.65" width="1.62" height="13.2" rx="0.38" ry="0.38"/><rect class="cls-2" x="17.07" y="79.65" width="1.62" height="13.2" rx="0.38" ry="0.38"/></svg>