<svg id="Layer_1" data-name="Layer 1" xmlns="http://www.w3.org/2000/svg" viewBox="0 0 100 100"><defs><style>.cls-1{fill:#09a582;}.cls-2{fill:#028a6d;}.cls-3{fill:#9c9c9c;}.cls-4{fill:#6ab8d9;}.cls-5{fill:#447d93;}.cls-6{fill:#c5c7c9;}.cls-7{fill:#8a8a8a;}.cls-8{fill:#a6a8ab;}.cls-9{fill:#ebf7fd;}.cls-10{fill:#b2e2f9;}</style></defs><title>waterfall</title><rect class="cls-1" x="28.82" y="52.42" width="71.18" height="15.74" rx="3.95" ry="3.95"/><polyline class="cls-1" points="69.09 94.49 97.54 66.04 97.54 56.28 95.81 53.81 51.73 75.2"/><path class="cls-1" d="M31.18,54.69,3,83H68.14L97,54.12h-.07a7.74,7.74,0,0,0-4.81-1.7H36.69a7.77,7.77,0,0,0-3.61.92"/><path class="cls-2" d="M63.31,81.3H7.87A7.87,7.87,0,0,0,7.87,97H63.31a7.87,7.87,0,1,0,0-15.74Z"/><path class="cls-1" d="M86.87,64.26,88,63.16H81.84a7.83,7.83,0,0,1,4.6,1.52Z"/><polygon class="cls-3" points="21.99 63.92 21.13 32.62 28.82 5.63 51.73 10.13 55.5 14.29 71.18 14.29 72.5 8.29 81 2.96 91.33 5.46 90.83 60.29 81.84 64.68 71.18 60.29 55.92 60.29 46.5 63.92 35.59 61.63 21.99 63.92"/><polygon class="cls-4" points="55.5 14.29 55.92 60.29 71.18 60.29 71.18 14.29 55.5 14.29"/><path class="cls-4" d="M71.18,60.29S60.17,66,55.5,71.79s0,9.51,0,9.51h-21s-1.83-12.85,21.42-21"/><rect class="cls-5" x="34.5" y="81.3" width="21" height="15.74"/><polygon class="cls-6" points="28.82 5.63 45.83 17.63 51.73 10.13 28.82 5.63"/><polygon class="cls-6" points="72.5 8.29 80.5 8.29 81 2.96 72.5 8.29"/><polygon class="cls-7" points="91.33 5.46 80.5 8.29 81.84 64.68 90.83 60.29 91.33 5.46"/><polygon class="cls-8" points="35.59 61.63 46.5 63.92 45.83 17.63 28.82 5.63 35.59 61.63"/><circle class="cls-9" cx="58.72" cy="59.09" r="2.78"/><circle class="cls-9" cx="58.62" cy="55.26" r="1.9"/><circle class="cls-9" cx="61.77" cy="57.15" r="2.47"/><circle class="cls-9" cx="62.2" cy="60.16" r="2.14"/><circle class="cls-9" cx="56.04" cy="59.65" r="2"/><circle class="cls-9" cx="54.07" cy="58.86" r="2.03"/><circle class="cls-9" cx="52.92" cy="57.54" r="2.15"/><circle class="cls-9" cx="56.52" cy="61.88" r="1.9"/><circle class="cls-9" cx="54.07" cy="55.73" r="1.22"/><circle class="cls-9" cx="56.72" cy="53.57" r="1.22"/><circle class="cls-9" cx="57.67" cy="47.17" r="0.94"/><circle class="cls-9" cx="62.89" cy="49.62" r="0.94"/><circle class="cls-9" cx="62.62" cy="54.51" r="0.94"/><circle class="cls-9" cx="65.67" cy="60.35" r="2.78"/><circle class="cls-9" cx="65.77" cy="56.52" r="1.9"/><circle class="cls-9" cx="62.62" cy="58.4" r="2.47"/><circle class="cls-9" cx="62.2" cy="61.42" r="2.14"/><circle class="cls-9" cx="68.36" cy="60.9" r="2"/><circle class="cls-9" cx="70.33" cy="60.12" r="2.03"/><circle class="cls-9" cx="69.33" cy="58.2" r="2.15"/><circle class="cls-9" cx="70.45" cy="55.25" r="1.9"/><circle class="cls-9" cx="68.1" cy="53.16" r="1.22"/><circle class="cls-9" cx="62.42" cy="54.71" r="1.22"/><circle class="cls-9" cx="73.47" cy="57.57" r="0.94"/><circle class="cls-9" cx="61.2" cy="52.42" r="0.94"/><circle class="cls-9" cx="58.98" cy="64.87" r="0.94"/><circle class="cls-9" cx="66.23" cy="48.68" r="0.94"/><circle class="cls-9" cx="61.77" cy="55.76" r="0.94"/><polygon class="cls-10" points="71.18 22.92 55.64 32.92 55.64 29.35 71.18 19.35 71.18 22.92"/><polygon class="cls-10" points="71.27 35.29 55.73 45.29 55.73 34.73 71.27 24.73 71.27 35.29"/><polygon class="cls-5" points="37.13 78.61 41.94 76.48 44.69 78.29 37.13 78.61"/><polygon class="cls-5" points="50.2 72.17 52.51 70.79 53.88 72.17 50.2 72.17"/><polygon class="cls-5" points="46.03 67.7 50.22 67.7 48.67 66.34 46.03 67.7"/><ellipse class="cls-2" cx="22.13" cy="75.42" rx="1" ry="0.5"/><ellipse class="cls-2" cx="32.69" cy="71.83" rx="1.06" ry="0.34"/><ellipse class="cls-2" cx="26.38" cy="67.84" rx="2.44" ry="0.82"/><ellipse class="cls-2" cx="59.61" cy="73.98" rx="1.58" ry="0.69"/><ellipse class="cls-2" cx="69.85" cy="70.39" rx="3.62" ry="1.09"/><ellipse class="cls-2" cx="67.45" cy="66.24" rx="1.09" ry="0.43"/></svg>