<svg id="Layer_1" data-name="Layer 1" xmlns="http://www.w3.org/2000/svg" viewBox="0 0 100 100"><defs><style>.cls-1{fill:#09a582;}.cls-2{fill:#fff;}.cls-3{fill:#447d93;}.cls-4{fill:#6ab8d9;}.cls-5{fill:none;}.cls-6{fill:#ffc640;}</style></defs><title>ozone</title><circle class="cls-1" cx="36.97" cy="62.11" r="36.97"/><circle class="cls-2" cx="36.88" cy="61.64" r="31.14"/><circle class="cls-3" cx="36.93" cy="61.69" r="28.42"/><circle class="cls-4" cx="36.93" cy="61.69" r="28.42"/><path class="cls-3" d="M37.83,53.66a.35.35,0,0,0-.06.17l.06,0C37.85,53.7,37.85,53.61,37.83,53.66Z"/><path class="cls-3" d="M50.94,49.16s.23-.06,0,0Z"/><path class="cls-3" d="M47.6,50.45a.19.19,0,0,1,.08-.15.23.23,0,0,0-.09.12S47.6,50.44,47.6,50.45Z"/><path class="cls-3" d="M48.63,49.63s.26-.08,0,0Z"/><path class="cls-3" d="M48.41,49.69s.14,0,0,0Z"/><path class="cls-3" d="M51.56,41.46c-.14.25-.1.22,0,.53.06-.42.26-.06.38.13C52.18,41.89,51.93,41.67,51.56,41.46Z"/><path class="cls-3" d="M49.05,49.59a.08.08,0,0,1,0-.07h0S49,49.57,49.05,49.59Z"/><path class="cls-3" d="M50.76,42.94a.86.86,0,0,0-.89-.32,1.14,1.14,0,0,1,.37.11c.45.17.38.67,1,.51C50.93,43.25,50.65,43.18,50.76,42.94Z"/><path class="cls-3" d="M53.62,49.69v-.07a.11.11,0,0,1,0,.08Z"/><path class="cls-3" d="M42.49,51.68v0a.05.05,0,0,1,0,0Z"/><path class="cls-3" d="M54.13,50.07l.14.08-.08,0Z"/><path class="cls-3" d="M54.32,64.05l.08,0,0,0Z"/><path class="cls-3" d="M52.78,50a.13.13,0,0,0-.08,0C52.49,50,52.74,50,52.78,50Z"/><path class="cls-3" d="M52.43,49.76s0,0,0,0Z"/><path class="cls-3" d="M52.05,49.72h0Z"/><path class="cls-3" d="M52.47,49.78a0,0,0,0,0,0,0h0S52.47,49.77,52.47,49.78Z"/><path class="cls-3" d="M46.89,51.29a.23.23,0,0,1,.1.07l0,0Z"/><path class="cls-3" d="M45.36,51.3h0S45.35,51.3,45.36,51.3Z"/><path class="cls-3" d="M45.11,51.25l0,0,.06.05Z"/><path class="cls-3" d="M45.3,51.42a.3.3,0,0,0-.08-.08.28.28,0,0,1,.11.13Z"/><path class="cls-3" d="M44.73,51.06h0Z"/><path class="cls-3" d="M42.49,52.68l.08,0h0Z"/><path class="cls-3" d="M44.57,51.05h0Z"/><path class="cls-3" d="M47.57,51.38l0,0,0,0Z"/><path class="cls-3" d="M42.77,56h0a.24.24,0,0,1-.14-.05A.21.21,0,0,0,42.77,56Z"/><path class="cls-3" d="M42.7,51.67l-.07-.05a.81.81,0,0,1,.14.12Z"/><path class="cls-3" d="M54.38,50.24l.16.13-.06,0Z"/><path class="cls-3" d="M47.56,49.77l0,0S47.64,49.73,47.56,49.77Z"/><path class="cls-3" d="M43.72,56.22h0a.21.21,0,0,0-.11.07A.15.15,0,0,1,43.72,56.22Z"/><path class="cls-3" d="M43.07,53H43l.1,0Z"/><path class="cls-3" d="M43.3,56.34h0a.2.2,0,0,0-.12-.13A.17.17,0,0,1,43.3,56.34Z"/><path class="cls-3" d="M43.76,50.94h0Z"/><path class="cls-3" d="M53.39,49.65a.07.07,0,0,1,.06,0h0Z"/><path class="cls-3" d="M58.06,61.54l0,0,0-.05Z"/><path class="cls-3" d="M58.08,61.07h0Z"/><path class="cls-3" d="M58.12,61l0,0h0Z"/><path class="cls-3" d="M58.47,52h0C58.4,52.1,58.44,52.05,58.47,52Z"/><path class="cls-3" d="M57.88,61.15l0,.05-.06-.06Z"/><path class="cls-3" d="M57.77,60.2l0,0v-.07Z"/><path class="cls-3" d="M57.85,61.1v0a.08.08,0,0,1,0,0Z"/><path class="cls-3" d="M58.52,52s.07-.06,0,0Z"/><path class="cls-3" d="M59,62.68a.34.34,0,0,1,0-.1,1.09,1.09,0,0,0,0,.18A.08.08,0,0,0,59,62.68Z"/><path class="cls-3" d="M59.11,62.29l0,0h0Z"/><path class="cls-3" d="M58.63,52.05l.16.13a.52.52,0,0,1-.11-.1Z"/><path class="cls-3" d="M59.35,52.09s.13,0,0,0Z"/><path class="cls-3" d="M59.64,52.05s0,0,0,0h0Z"/><path class="cls-3" d="M59.33,63.13l.06,0L59.15,63Z"/><path class="cls-3" d="M58.91,52.22h-.06C59,52.27,59.07,52.34,58.91,52.22Z"/><path class="cls-3" d="M57.62,59.9l.07,0-.12,0Z"/><path class="cls-3" d="M59,62.07h0l-.07,0Z"/><path class="cls-3" d="M56.9,59.67v0s0,.06,0,.07Z"/><path class="cls-3" d="M54.87,50.67c.27.24.54.52.81.76-.23-.21-.46-.45-.7-.66Z"/><path class="cls-3" d="M55.77,60.63v0l0,0Z"/><path class="cls-3" d="M56,62.25v0h0S56,62.24,56,62.25Z"/><path class="cls-3" d="M55.08,65l0,0,0-.06Z"/><path class="cls-3" d="M55,65.37c.06,0,0,0,0,0Z"/><path class="cls-3" d="M56,60.88s.1-.08,0,0Z"/><path class="cls-3" d="M54.66,65.41h0S54.52,65.43,54.66,65.41Z"/><path class="cls-3" d="M54.9,64.62a.17.17,0,0,1,0,.07v-.07Z"/><path class="cls-3" d="M56.79,59.78v0s0,0,0,.06Z"/><path class="cls-3" d="M56.86,51.33s.12,0,0,0Z"/><path class="cls-3" d="M54.58,64.14l0,0h0Z"/><path class="cls-3" d="M57,51.31l.13,0h0Z"/><path class="cls-3" d="M57.27,51.45a.39.39,0,0,0,.1.08l0,0A.13.13,0,0,1,57.27,51.45Z"/><path class="cls-3" d="M56.17,61.34s0,0,0,0h0Z"/><path class="cls-3" d="M56.15,61.41s0,0,0,.05,0-.06,0-.09Z"/><path class="cls-3" d="M56.22,51.4l0-.07Z"/><path class="cls-3" d="M57.82,51.79l0,0a.15.15,0,0,1,.06.09Z"/><path class="cls-3" d="M33.75,42.66h0Z"/><path class="cls-3" d="M25.51,51.16a.05.05,0,0,1,0,0l0,0Z"/><path class="cls-3" d="M25.64,52.07l.05,0h-.05Z"/><path class="cls-3" d="M25.66,51.24a0,0,0,0,0,0,0s0,0,0,0Z"/><path class="cls-3" d="M26.12,54.23v.05a.11.11,0,0,1,0-.08Z"/><path class="cls-3" d="M25.72,53.81l0,0s0,0,0,0h0Z"/><path class="cls-3" d="M25.75,50.94s0,0,0,0,0,0,0,0Z"/><path class="cls-3" d="M25.72,53.6h0l0,0Z"/><path class="cls-3" d="M42.4,51.89l.07-.06,0,0Z"/><path class="cls-3" d="M25.62,52.06l.05,0h0Z"/><path class="cls-3" d="M26,54.52h0Z"/><path class="cls-3" d="M26,54l.06,0a.05.05,0,0,0,0,0A.14.14,0,0,1,26,54Z"/><path class="cls-3" d="M26,54.72l0-.08,0,0S26,54.71,26,54.72Z"/><path class="cls-3" d="M26.13,54.86l.07,0-.12-.06Z"/><path class="cls-3" d="M26.27,53.14l0,0a.1.1,0,0,1-.05,0Z"/><path class="cls-3" d="M25.92,54.37s0,0,0,0h0Z"/><path class="cls-3" d="M25.91,53.66a.11.11,0,0,1,.08,0h-.08Z"/><path class="cls-3" d="M26.16,50.64s0,0,0,0,0,0,0,0Z"/><path class="cls-3" d="M59.55,52.07h0l0,0Z"/><path class="cls-3" d="M34,42.48h0a.26.26,0,0,1,0,.09A.24.24,0,0,1,34,42.48Z"/><path class="cls-3" d="M26.08,46.74c.06-.1.07-.13.18-.17l-.18,0S26.07,46.74,26.08,46.74Z"/><path class="cls-3" d="M24.91,51.2l.11-.07s0,0,0,0l-.13.09Z"/><path class="cls-3" d="M34,42.48h0Z"/><path class="cls-3" d="M33.81,42.61h0Z"/><path class="cls-3" d="M24.42,51.43l0,0a.18.18,0,0,1-.07-.05Z"/><path class="cls-3" d="M25.17,51.82v0s0,0,0,0Z"/><path class="cls-3" d="M23.81,55.7h0s0,0,0,0Z"/><path class="cls-3" d="M34.49,42.34v0S34.45,42.4,34.49,42.34Z"/><path class="cls-3" d="M34.39,44.33s0,0,0,0h0Z"/><path class="cls-3" d="M34.36,43.89l0,0a.46.46,0,0,1,.07.07Z"/><path class="cls-3" d="M22.68,55.5h0a.28.28,0,0,1-.13,0Z"/><path class="cls-3" d="M25.74,50.89h0Z"/><path class="cls-3" d="M39,53.13a.13.13,0,0,1,0,.06,0,0,0,0,0,0,0Z"/><path class="cls-3" d="M39,53.22h0a0,0,0,0,1,0,0Z"/><path class="cls-3" d="M39.65,52.16a.07.07,0,0,1,0,.05h0Z"/><path class="cls-3" d="M38.8,51.84v0a0,0,0,0,1,0,0Z"/><path class="cls-3" d="M39.2,51.9h0C39.12,51.93,39.19,51.9,39.2,51.9Z"/><path class="cls-3" d="M37.06,51s0,0,0,0h0a.07.07,0,0,0,0,.06c0-.06,0-.1.07-.12l-.07,0Z"/><path class="cls-3" d="M26.35,52.88v-.06A.07.07,0,0,1,26.35,52.88Z"/><path class="cls-3" d="M37.1,51.18h0Z"/><path class="cls-3" d="M38.18,51.69l0,0a.1.1,0,0,1-.05,0Z"/><path class="cls-3" d="M41.9,55.64l.07,0h0Z"/><path class="cls-3" d="M41.27,55.4a.08.08,0,0,1,.06,0h0S41.29,55.41,41.27,55.4Z"/><path class="cls-3" d="M42.42,52.37l0-.06,0,0S42.43,52.37,42.42,52.37Z"/><path class="cls-3" d="M39.61,52.68s0,0,0,0l0-.07S39.62,52.67,39.61,52.68Z"/><path class="cls-3" d="M40.72,55.36l.2,0a.68.68,0,0,1-.28-.07Z"/><path class="cls-3" d="M37.33,51.22h.06a.17.17,0,0,1-.12,0Z"/><path class="cls-3" d="M34.65,48.81l.08,0h0Z"/><path class="cls-3" d="M34.2,47.13h0l0,0S34.18,47.13,34.2,47.13Z"/><path class="cls-3" d="M34.31,48.47a.38.38,0,0,1,.09.15l0-.11A0,0,0,0,1,34.31,48.47Z"/><path class="cls-3" d="M34.88,48.81h0l0,0Z"/><path class="cls-3" d="M34.07,48.05l.07.06,0,0L34.06,48Z"/><path class="cls-3" d="M34,47.7v0h0Z"/><path class="cls-3" d="M34,48h0l0,0Z"/><path class="cls-3" d="M36.72,50.63h0Z"/><path class="cls-3" d="M34.88,48.89l0,0s0,0,0,0Z"/><path class="cls-3" d="M35.52,49.19l0,0h0Z"/><path class="cls-3" d="M36.15,50.24l.07,0a.15.15,0,0,1-.11,0Z"/><path class="cls-3" d="M35.2,45.4h0l0,0Z"/><path class="cls-3" d="M36.33,50.06a.14.14,0,0,1,0,.06,0,0,0,0,0,0-.06Z"/><path class="cls-3" d="M35,48.9h0C34.92,49,35,48.93,35,48.9Z"/><path class="cls-3" d="M34.56,44.62l0,0h0S34.58,44.61,34.56,44.62Z"/><path class="cls-3" d="M34.76,44.84s0,0,0,.06v0l0-.05Z"/><path class="cls-3" d="M34.89,45.82l0,0-.19.19Z"/><path class="cls-3" d="M47.42,50.85l.1,0a.12.12,0,0,1-.1,0Z"/><path class="cls-5" d="M67.81,52.16a.44.44,0,0,1,.16,0l-.1,0Z"/><path class="cls-5" d="M67.33,52a.38.38,0,0,1,.13.06l-.06,0Z"/><path class="cls-5" d="M66.69,63.81a.05.05,0,0,0,0,0,.29.29,0,0,1-.12-.1A.23.23,0,0,1,66.69,63.81Z"/><path class="cls-5" d="M68.08,52.21l.18,0h0Z"/><path class="cls-5" d="M66,64.56a.1.1,0,0,1,0-.09s0,.07,0,.11Z"/><path class="cls-5" d="M65.89,65V65a.78.78,0,0,1-.08.23A1,1,0,0,0,65.89,65Z"/><path class="cls-5" d="M65.2,62.9s0,0,0,0h0Z"/><path class="cls-3" d="M65.17,63l0,0h0l-.06.06Z"/><path class="cls-5" d="M65.89,64.69l0-.06a.24.24,0,0,1-.1.1A.1.1,0,0,1,65.89,64.69Z"/><path class="cls-3" d="M64.88,65.05a0,0,0,0,0,0,0S64.83,65.07,64.88,65.05Z"/><path class="cls-5" d="M65.39,65.62l0,0a.31.31,0,0,1,0-.12Z"/><path class="cls-3" d="M59.52,52.09s0,0,0,0h0Z"/><path class="cls-5" d="M65.86,62.77l-.06.06h0A.1.1,0,0,1,65.86,62.77Z"/><path class="cls-5" d="M65.7,65.57s0,0,0,0,0,0,0,0Z"/><path class="cls-3" d="M64.76,65.28v0s0,0,0,.05Z"/><path class="cls-5" d="M64.92,65.77v0l0-.07h0Z"/><path class="cls-3" d="M64.91,65.74Z"/><path class="cls-3" d="M62.7,51.87l.06,0H62.7Z"/><path class="cls-3" d="M62.93,51.44l0,0s0,0,0,0Z"/><path class="cls-3" d="M62.49,64.22h.07C62.75,64.2,62.56,64.21,62.49,64.22Z"/><path class="cls-3" d="M63,50.74c-.07,0,0,0,0,0Z"/><path class="cls-3" d="M62.71,63.39h0Z"/><path class="cls-3" d="M62.82,64.41a.24.24,0,0,1,.06-.09l0,0A.08.08,0,0,0,62.82,64.41Z"/><path class="cls-3" d="M63.12,65.32h.05a.16.16,0,0,1-.13-.06A.16.16,0,0,0,63.12,65.32Z"/><path class="cls-3" d="M62.81,64.5l0,0a.08.08,0,0,1,0-.07Z"/><path class="cls-3" d="M63,63.78a.07.07,0,0,1,0,.06l0,0A.17.17,0,0,0,63,63.78Z"/><path class="cls-3" d="M60.2,51.6s.16,0,.06,0Z"/><path class="cls-3" d="M59.77,63.42h0l0,0Z"/><path class="cls-3" d="M60,51.73l.08,0h0Z"/><path class="cls-3" d="M62.35,64.23c.13.08,0,0-.05,0A.06.06,0,0,0,62.35,64.23Z"/><path class="cls-3" d="M63.09,64.87h0Z"/><path class="cls-3" d="M64.69,65.92l0,0s0,0,0-.06Z"/><path class="cls-3" d="M59.54,63.28a.55.55,0,0,0,.14.09.8.8,0,0,1-.19-.13Z"/><path class="cls-3" d="M61.91,51.82l0,0C61.74,51.77,61.89,51.82,61.91,51.82Z"/><path class="cls-3" d="M62.2,51.84s0,0,0,0h0Z"/><path class="cls-3" d="M60.83,63.66h0l0,0Z"/><path class="cls-3" d="M61.41,64h0l0,0S61.41,64,61.41,64Z"/><path class="cls-3" d="M62.8,51.92h0C62.85,52,62.88,52,62.8,51.92Z"/><path class="cls-3" d="M64.38,64l0,0h0Z"/><path class="cls-5" d="M64.24,51.08h0Z"/><path class="cls-3" d="M64.55,64.88h0Z"/><path class="cls-5" d="M64,51l.06,0,0,0Z"/><path class="cls-3" d="M63.86,64.87l.08,0-.2-.06C63.56,64.78,63.83,64.86,63.86,64.87Z"/><path class="cls-3" d="M64.39,65.68v0a.34.34,0,0,1,0-.1Z"/><path class="cls-3" d="M62.88,64.55a2.79,2.79,0,0,0,.32.23,2,2,0,0,1-.3-.23Z"/><path class="cls-3" d="M64.68,66l0,0S64.61,66.07,64.68,66Z"/><path class="cls-3" d="M63.58,64.05c.05,0,.08,0,.1,0a.16.16,0,0,1-.14,0Z"/><path class="cls-3" d="M64.5,66a0,0,0,0,0,0,0,.08.08,0,0,1,0-.09Z"/><path class="cls-3" d="M64.49,63.77a.28.28,0,0,0,0,.09h0A.17.17,0,0,1,64.49,63.77Z"/><path class="cls-3" d="M63.48,64.33s0,.07,0,.11v0S63.46,64.35,63.48,64.33Z"/><path class="cls-3" d="M63.39,66.06v0a0,0,0,0,1,0,0Z"/><path class="cls-5" d="M63.25,50.85h0Z"/><path class="cls-3" d="M63.24,64.87a0,0,0,0,0,0,0,0,0,0,0,1,0,0Z"/><path class="cls-3" d="M63.63,64.77v0a.15.15,0,0,1,0-.07Z"/><path class="cls-3" d="M63.29,65.87s0,0,0,0,0,0,0,0Z"/><path class="cls-5" d="M63.68,50.94l.24.07-.14,0A.17.17,0,0,0,63.68,50.94Z"/><path class="cls-3" d="M63.43,66.23a.31.31,0,0,1,0,.1.55.55,0,0,1-.06-.18A.11.11,0,0,1,63.43,66.23Z"/><path class="cls-1" d="M23.14,46.88c0-.1.1-.18.12-.28s-.06,0-.09-.08-.11,0-.1.06,0,.06,0,.12S23.2,46.7,23.14,46.88Z"/><path class="cls-1" d="M21.77,50.16s-.11,0-.15-.08S21.54,50.28,21.77,50.16Z"/><path class="cls-1" d="M22.34,47.32c.05,0,.13,0,.21,0C22.42,47.21,22.41,47.31,22.34,47.32Z"/><path class="cls-1" d="M21.41,48c-.08.16-.08.28-.26.41.14,0,.14,0,.36,0a2.6,2.6,0,0,0-.29.71c.09-.15.23-.3.34-.45,0,.07-.09.09-.11.17a.75.75,0,0,1,.18-.13s0,.08.07.1a1.45,1.45,0,0,0-.19.63c.19,0,.48-.08.75-.13-.28.23-.25.27,0,.39a2,2,0,0,0,0,.43.84.84,0,0,0-.79.26,2,2,0,0,1,.23-.06c.05.29-.19.46-.51.53a2.28,2.28,0,0,1,.4.16.77.77,0,0,0,.73-.09c-.26.34-1,.57-1.38.85a12.43,12.43,0,0,1,1.43-.28,2.73,2.73,0,0,1,.37,0c.39,0,.93,0,1.11-.35a3.42,3.42,0,0,1-.39,0c.11-.06.17-.16.14-.14.61-.1.38-.77-.25-.59.05-.27.14-.28-.25-.42a2.65,2.65,0,0,1,.3.06A1.79,1.79,0,0,0,22,48.74a2.12,2.12,0,0,0,.45-.11l-.25,0c.92-.25.58-.76-.26-.6a4.07,4.07,0,0,1,.47-.52c-.46,0-.93,0-.85.36C21.46,47.88,21.32,47.85,21.41,48Z"/><path class="cls-1" d="M21,49c0-.07.16,0,.08-.16a.87.87,0,0,0-.14.08S21,48.88,21,49Z"/><path class="cls-1" d="M21.27,48.73c-.11,0-.08.06-.15.11S21.22,48.84,21.27,48.73Z"/><path class="cls-1" d="M21,48.07a1.72,1.72,0,0,1,.27.2C21.3,48.06,21.19,48,21,48.07Z"/><path class="cls-1" d="M21.25,48.52c-.14,0-.23-.14-.2.12C21.2,48.66,21.27,48.52,21.25,48.52Z"/><path class="cls-1" d="M20.7,48.1c0,.08.05.21,0,0Z"/><path class="cls-1" d="M21.21,47.55c-.32.1-.31.17-.31.31s.13,0,.17-.11S21.18,47.63,21.21,47.55Z"/><path class="cls-1" d="M36.51,53.78c-.31-.11-.15,0-.13,0S36.67,53.87,36.51,53.78Z"/><path class="cls-1" d="M29.87,48.66a4.6,4.6,0,0,0,.21-.54C30,48.3,29.84,48.44,29.87,48.66Z"/><path class="cls-1" d="M30.83,47.87c-.28,0-.25.12-.33.31a.25.25,0,0,1,0,.14A.91.91,0,0,0,30.83,47.87Z"/><path class="cls-1" d="M24.71,57l.14,0Z"/><path class="cls-1" d="M24.36,57a.68.68,0,0,0-.34.21C24.33,57.35,24.52,57.27,24.36,57Z"/><path class="cls-1" d="M23.68,57.47c-.06,0-.14,0-.17.09S23.59,57.52,23.68,57.47Z"/><path class="cls-1" d="M28.31,44h0Z"/><path class="cls-1" d="M28.31,44Z"/><path class="cls-1" d="M31.48,41.91c.18,0,.27.05.42-.11A2.93,2.93,0,0,0,31.48,41.91Z"/><path class="cls-1" d="M28.76,42.94c-.11.05-.21,0-.24.12C28.58,43,28.87,42.9,28.76,42.94Z"/><path class="cls-1" d="M29.65,42.73a1.54,1.54,0,0,0-.27.07.94.94,0,0,1,.11-.32l-.26.26c-.07-.23-.1,0-.21-.05s-.06.09.2.06a1.23,1.23,0,0,1-.35.22A1.49,1.49,0,0,0,29.65,42.73Z"/><path class="cls-1" d="M30.48,42.05a2.11,2.11,0,0,0-.27.32,1,1,0,0,0,.44-.22A.3.3,0,0,1,30.48,42.05Z"/><path class="cls-1" d="M21.21,41.73l-.16.05Z"/><path class="cls-1" d="M21.26,41.71l-.05,0a1.85,1.85,0,0,0,.23-.09A.24.24,0,0,0,21.26,41.71Z"/><path class="cls-1" d="M31.74,42c.12.08.12,0,.24,0C32,42,31.83,41.89,31.74,42Z"/><path class="cls-1" d="M26.84,45.06Z"/><path class="cls-1" d="M29.73,42.57a.7.7,0,0,0,.4-.12C29.94,42.33,29.84,42.34,29.73,42.57Z"/><path class="cls-1" d="M25.53,50.08l0,0h0Z"/><path class="cls-1" d="M33.22,57a.69.69,0,0,0-.13-.11S33.22,57.07,33.22,57Z"/><path class="cls-1" d="M30.66,49.41h0l.07,0S30.69,49.4,30.66,49.41Z"/><path class="cls-1" d="M63.25,50.85h0Zm.43.09a.17.17,0,0,1,.1,0l.14,0ZM64,51h0l0,0Zm.17,0h0Zm1,15.5,0,0Zm.24-.95,0-.07a.31.31,0,0,0,0,.12Zm.11-2.9.11.05Zm.2,2.85h0s0,0,0,0S65.73,65.57,65.7,65.57Zm.16-2.8a.1.1,0,0,0,0,0h0Zm0,2.24a1,1,0,0,1-.07.18A.78.78,0,0,0,65.9,65Zm0-.32a.1.1,0,0,0,0,0,.24.24,0,0,0,.1-.1Zm.07-.13v0s0-.08,0-.11A.1.1,0,0,0,66,64.56Zm.43-1.4a.09.09,0,0,1,.12,0A.09.09,0,0,0,66.39,63.16Zm.3.65a.23.23,0,0,0-.07-.07.29.29,0,0,0,.12.1A.05.05,0,0,1,66.69,63.81ZM67.33,52l.07,0,.06,0A.38.38,0,0,0,67.33,52Zm.48.12h.06l.1,0A.44.44,0,0,0,67.81,52.16Zm.27.05.14,0h0Z"/><path class="cls-5" d="M39.7,52.91s0,0,0,0a.59.59,0,0,1,0-.08S39.71,52.89,39.7,52.91Z"/><path class="cls-5" d="M39.29,52.12h0C39.2,52.15,39.28,52.13,39.29,52.12Z"/><path class="cls-5" d="M39.73,52.38a.06.06,0,0,1,0,.06h0A0,0,0,0,0,39.73,52.38Z"/><path class="cls-5" d="M39.11,53.35a.13.13,0,0,1,0,.06,0,0,0,0,0,0,0Z"/><path class="cls-5" d="M39.1,53.44h0s0,0,0,0Z"/><path class="cls-5" d="M42,55.86l.07,0,0,0Z"/><path class="cls-5" d="M42.49,52.12l.07-.07,0,0Z"/><path class="cls-5" d="M42.51,52.6l.05-.06,0,0A0,0,0,0,0,42.51,52.6Z"/><path class="cls-5" d="M40.81,55.59H41a.94.94,0,0,1-.29-.06Z"/><path class="cls-5" d="M35,46l0,0-.19.18Z"/><path class="cls-5" d="M41.35,55.62s.06,0,.07,0h0Z"/><path class="cls-5" d="M35.29,45.62h0l0,0S35.29,45.61,35.29,45.62Z"/><path class="cls-5" d="M36.24,50.47l.07,0a.21.21,0,0,1-.11,0Z"/><path class="cls-5" d="M38.27,51.92l0,0,0,0Z"/><path class="cls-5" d="M35.61,49.41l0,0h0Z"/><path class="cls-5" d="M42.58,51.9v0a.08.08,0,0,1,0,0Z"/><path class="cls-5" d="M35.11,49.12h0C35,49.17,35,49.16,35.11,49.12Z"/><path class="cls-5" d="M36.42,50.28a.14.14,0,0,1,0,.06s0,0,0-.05Z"/><path class="cls-5" d="M36.81,50.85h0Z"/><path class="cls-5" d="M37.42,51.44h.06a.13.13,0,0,1-.12,0Z"/><path class="cls-5" d="M37.15,51.19s0,0,0,0h0a.18.18,0,0,0,0,.06c0-.06,0-.11.08-.13l-.07,0Z"/><path class="cls-5" d="M37.19,51.4h0Z"/><path class="cls-5" d="M38.88,52.07v0s0,0,0,0Z"/><path class="cls-5" d="M47.51,51.08l.1,0s-.08,0-.1,0Z"/><path class="cls-5" d="M47.66,51.61a.05.05,0,0,1,.05,0l0,0Z"/><path class="cls-5" d="M47.65,50h0Z"/><path class="cls-5" d="M47,51.51l.1.07,0,0Z"/><path class="cls-5" d="M46.1,57.6s0-.25,0-.19.16,0,.16,0c-.2-.26-.13-.17-.26-.12a.76.76,0,0,1-.16-.62c.25.18.78.29.74,0s-1.1-.89-.8-.06c-.26-.27-.1-.59-.28-.82,0-.06-.42-.11-.52-.19-.38-.34-.93-.81-.08-.7-.67-.38.22-.53.61-.45-.4-.35-.07-1.05-1-.92a1.28,1.28,0,0,0-.92.63c-.17,0-.38.11-.51.11,0,.61-.32.53.2,1.13,0-.07,0-.12,0-.17-.12.56.46.76.53,1.17.19-.08.65.52,1,.69-.4,0-.44.32-.43.64,0,0,0-.12-.06-.07-.27,1.21,1.56,1.32,2.32,1.18-.18.08,0,0,0,.06C46.56,58.52,46.58,57.58,46.1,57.6Z"/><path class="cls-5" d="M48.5,49.91h0Z"/><path class="cls-5" d="M49.13,49.81a.1.1,0,0,1,0-.07h0A.13.13,0,0,0,49.13,49.81Z"/><path class="cls-5" d="M48.71,49.86s.27-.08,0,0Z"/><path class="cls-5" d="M43.81,56.45l0,0a.23.23,0,0,0-.11.07A.19.19,0,0,1,43.81,56.45Z"/><path class="cls-5" d="M47.69,50.68a.19.19,0,0,1,.08-.16.23.23,0,0,0-.09.12Z"/><path class="cls-5" d="M42.58,52.91s.05,0,.08,0v0Z"/><path class="cls-5" d="M43.38,56.56h0a.2.2,0,0,0-.11-.13A.17.17,0,0,1,43.38,56.56Z"/><path class="cls-5" d="M45.2,51.47l0,0,.06,0Z"/><path class="cls-5" d="M45.45,51.52l0,0h0Z"/><path class="cls-5" d="M42.79,51.9l-.07,0,.14.11Z"/><path class="cls-5" d="M42.86,56.21h0a.25.25,0,0,1-.14-.06A.15.15,0,0,0,42.86,56.21Z"/><path class="cls-5" d="M45.39,51.64a.3.3,0,0,0-.08-.08.26.26,0,0,1,.11.14Z"/><path class="cls-5" d="M43.16,53.21h-.08a.12.12,0,0,1,.09,0Z"/><path class="cls-5" d="M44.82,51.28h0Z"/><path class="cls-5" d="M43.85,51.16c-.1,0,0,0,0,0Z"/><path class="cls-5" d="M51,49.38s.23-.05,0,0Z"/><path class="cls-5" d="M44.66,51.28h0Z"/><path class="cls-5" d="M25,51.4a.08.08,0,0,0,.07,0,.23.23,0,0,1-.1.07Z"/><path class="cls-5" d="M25.26,52v0a0,0,0,0,1,0,0Z"/><path class="cls-5" d="M25.75,51.47h0s0,0,0,0Z"/><path class="cls-5" d="M23.9,55.92h0s0,0,0,0Z"/><path class="cls-5" d="M26.25,50.87s0,0,0,0h0Z"/><path class="cls-5" d="M25.84,51.17a.14.14,0,0,1,0-.06v0Z"/><path class="cls-5" d="M25.81,53.82h0l0,0Z"/><path class="cls-5" d="M25.82,51.11h0Z"/><path class="cls-5" d="M26.21,54.45l0,.06a.25.25,0,0,1,0-.09Z"/><path class="cls-5" d="M22.77,55.72h0a.19.19,0,0,1-.13,0Z"/><path class="cls-5" d="M24.51,51.66l0,0-.07,0Z"/><path class="cls-5" d="M34.58,42.56v0C34.55,42.59,34.54,42.63,34.58,42.56Z"/><path class="cls-5" d="M33.83,42.89h0Z"/><path class="cls-5" d="M26.17,47c.06-.11.07-.14.18-.18l-.18.06S26.16,47,26.17,47Z"/><path class="cls-5" d="M25,51.42l.1-.07s0,0,0,0l-.13.09Z"/><path class="cls-5" d="M33.9,42.84l.06,0H33.9Z"/><path class="cls-5" d="M34.47,44.56s.05,0,.05,0h-.05Z"/><path class="cls-5" d="M34.1,42.7h0a.41.41,0,0,1,0,.09A.21.21,0,0,1,34.1,42.7Z"/><path class="cls-5" d="M34.45,44.11l0,0,.08.06Z"/><path class="cls-5" d="M34.07,42.71h0Z"/><path class="cls-5" d="M35,49l0,0s0,0,0,0Z"/><path class="cls-5" d="M34.4,48.7a.22.22,0,0,1,.08.14l0-.1S34.4,48.72,34.4,48.7Z"/><path class="cls-5" d="M34.28,47.35h0l0,0Z"/><path class="cls-5" d="M34.16,48.28l.07,0,.05,0-.13-.09Z"/><path class="cls-5" d="M34.11,47.9h0A0,0,0,0,0,34.11,47.9Z"/><path class="cls-5" d="M34.13,48.25h0l0,0Z"/><path class="cls-5" d="M34.65,44.85l0,0s0,0,0,0S34.66,44.84,34.65,44.85Z"/><path class="cls-5" d="M35,49.12l0,0a0,0,0,0,1,0,0Z"/><path class="cls-5" d="M34.85,45.06a.15.15,0,0,1,0,.07v0s0,0,0-.06Z"/><path class="cls-5" d="M26.44,53.1a.22.22,0,0,1,0-.08v0A.13.13,0,0,1,26.44,53.1Z"/><path class="cls-5" d="M34.74,49l.07,0h0Z"/><path class="cls-5" d="M26,53.89a.11.11,0,0,1,.08,0H26Z"/><path class="cls-5" d="M26.36,53.36l0,0a.05.05,0,0,1-.05,0Z"/><path class="cls-5" d="M25.6,51.39s0,0,0,0l0,0Z"/><path class="cls-5" d="M25.81,54l0,0s0,0,0,0h0Z"/><path class="cls-5" d="M25.71,52.28a.05.05,0,0,0,.05,0h0Z"/><path class="cls-5" d="M25.73,52.3l.05,0h-.05Z"/><path class="cls-5" d="M26,54.59s0,0,0,0h0Z"/><path class="cls-5" d="M26.21,55.08l.07,0-.12,0Z"/><path class="cls-5" d="M26.08,54.23a.13.13,0,0,0,.06,0s0,0,0,0,0,0-.07.05S26.08,54.22,26.08,54.23Z"/><path class="cls-5" d="M26.1,55l0-.09,0,0S26.08,54.93,26.1,55Z"/><path class="cls-5" d="M26.13,54.74l0,0h0Z"/><path class="cls-5" d="M58.15,61.77h0a.11.11,0,0,0,0-.05Z"/><path class="cls-5" d="M62.28,52.06a0,0,0,0,1,0,0h0Z"/><path class="cls-5" d="M63.12,64a.14.14,0,0,1,0,.06l0,0A.25.25,0,0,0,63.12,64Z"/><path class="cls-5" d="M62.44,64.45c.13.08,0,0,0,0A0,0,0,0,0,62.44,64.45Z"/><path class="cls-5" d="M62.91,64.64a.19.19,0,0,1,.05-.09l0,0A.09.09,0,0,0,62.91,64.64Z"/><path class="cls-5" d="M63,51.67l0-.06s0,0,0,0Z"/><path class="cls-5" d="M62.57,64.44h.08C62.84,64.42,62.65,64.44,62.57,64.44Z"/><path class="cls-5" d="M62.89,52.14h0C62.94,52.18,63,52.2,62.89,52.14Z"/><path class="cls-5" d="M62.9,64.72s0,0,0,0,0,0,0-.06Z"/><path class="cls-5" d="M62.8,63.62h0Z"/><path class="cls-5" d="M62.79,52.1a0,0,0,0,1,.05,0l0,0Z"/><path class="cls-5" d="M63.05,51c-.07,0,0,0,0,0Z"/><path class="cls-5" d="M59.63,63.51l.14.09a.85.85,0,0,1-.19-.14A.12.12,0,0,0,59.63,63.51Z"/><path class="cls-5" d="M59.44,52.31s.13,0,0,0Z"/><path class="cls-5" d="M59.86,63.65h0l0,0Z"/><path class="cls-5" d="M59.2,62.51l0,0h0Z"/><path class="cls-5" d="M59.42,63.35l.06,0-.24-.14Z"/><path class="cls-5" d="M61.5,64.25h0l0-.05A.05.05,0,0,1,61.5,64.25Z"/><path class="cls-5" d="M60.92,63.89l0,0-.05,0Z"/><path class="cls-5" d="M62,52.05a.05.05,0,0,0,0,0C61.83,52,62,52,62,52.05Z"/><path class="cls-5" d="M60.07,52l.08,0h0Z"/><path class="cls-5" d="M59.06,62.3h0l-.06,0Z"/><path class="cls-5" d="M60.29,51.83s.16,0,.06,0Z"/><path class="cls-5" d="M64.59,66.2l0,0a.11.11,0,0,1,0-.09Z"/><path class="cls-5" d="M64.59,65.11h0Z"/><path class="cls-5" d="M64.47,64.23h0Z"/><path class="cls-5" d="M64.58,64a.19.19,0,0,0,0,.08h0A.14.14,0,0,1,64.58,64Z"/><path class="cls-5" d="M64.77,66.25l0,0S64.69,66.3,64.77,66.25Z"/><path class="cls-5" d="M64.48,65.9v0Z"/><path class="cls-5" d="M64.78,66.14l0,.06a.19.19,0,0,1,0-.07Z"/><path class="cls-5" d="M65,65.27s0,0,0,0S64.91,65.3,65,65.27Z"/><path class="cls-5" d="M64.85,65.51v-.05s0,0,0,.05Z"/><path class="cls-5" d="M63.48,66.29h0s0,0,0,0Z"/><path class="cls-5" d="M63.32,65.09a0,0,0,0,0,0,0s0,0,0,0Z"/><path class="cls-5" d="M63.94,65.1H64a1.46,1.46,0,0,1-.2,0C63.65,65,63.92,65.09,63.94,65.1Z"/><path class="cls-5" d="M63.18,65.09h0Z"/><path class="cls-5" d="M63,64.77l.31.24a2.82,2.82,0,0,1-.29-.24Z"/><path class="cls-5" d="M63.56,64.56v.06A0,0,0,0,1,63.56,64.56Z"/><path class="cls-5" d="M63.38,66.1a0,0,0,0,0,0,0,.05.05,0,0,1,0,0Z"/><path class="cls-5" d="M63.67,64.28s.08,0,.1,0a.18.18,0,0,1-.14,0Z"/><path class="cls-5" d="M63.72,65v0a.2.2,0,0,1,0-.07Z"/><path class="cls-5" d="M63.52,66.45a.37.37,0,0,1,0,.11.64.64,0,0,1-.06-.18A.17.17,0,0,1,63.52,66.45Z"/><path class="cls-5" d="M63.21,65.54h0a.16.16,0,0,1-.13-.07A.16.16,0,0,0,63.21,65.54Z"/><path class="cls-5" d="M55.07,65.59c.07,0,0,0,0,0Z"/><path class="cls-5" d="M55.17,65.25l0,0,0-.07Z"/><path class="cls-5" d="M50.85,43.16a.88.88,0,0,0-.89-.32,2,2,0,0,1,.37.11c.45.17.38.67,1,.52C51,43.48,50.74,43.4,50.85,43.16Z"/><path class="cls-5" d="M55,64.85s0,0,0,.07v-.06Z"/><path class="cls-5" d="M56.26,61.56l0,0,0,0Z"/><path class="cls-5" d="M54.75,65.63h0S54.61,65.65,54.75,65.63Z"/><path class="cls-5" d="M56.09,61.1l0,0Z"/><path class="cls-5" d="M54.67,64.36l0,0s0,0,0,0Z"/><path class="cls-5" d="M56.23,61.64s0,0,0,0,0-.07,0-.1S56.23,61.62,56.23,61.64Z"/><path class="cls-5" d="M56.1,62.46h0a0,0,0,0,1,0,0Z"/><path class="cls-5" d="M55.86,60.86h0l0,0Z"/><path class="cls-5" d="M55,50.89c.28.25.55.52.82.76-.23-.2-.46-.44-.7-.65Z"/><path class="cls-5" d="M54.47,50.47l.15.13,0-.05Z"/><path class="cls-5" d="M52.51,50l0,0Z"/><path class="cls-5" d="M52.56,50v0h0Z"/><path class="cls-5" d="M51.65,41.69c-.15.25-.1.21.05.52.06-.42.26-.06.37.13C52.27,42.12,52,41.9,51.65,41.69Z"/><path class="cls-5" d="M52.14,49.94l.09,0h-.09Z"/><path class="cls-5" d="M52.86,50.23s0,0-.07,0C52.58,50.17,52.83,50.22,52.86,50.23Z"/><path class="cls-5" d="M53.47,49.88a.09.09,0,0,1,.07,0h0Z"/><path class="cls-5" d="M54.41,64.28l.07,0,0,0Z"/><path class="cls-5" d="M54.22,50.29a.67.67,0,0,1,.14.09l-.08-.06Z"/><path class="cls-5" d="M53.71,49.92v-.07a.22.22,0,0,1,0,.08Z"/><path class="cls-5" d="M58.21,61.26a.05.05,0,0,1,0,0v0Z"/><path class="cls-5" d="M59.6,52.32h0Z"/><path class="cls-5" d="M59.72,52.27s0,0,0,0h0Z"/><path class="cls-5" d="M59.64,52.3h0Z"/><path class="cls-5" d="M58,61.37l0,.05a.12.12,0,0,1,0-.05Z"/><path class="cls-5" d="M58.17,61.29h0Z"/><path class="cls-5" d="M59.05,62.9a.34.34,0,0,1,0-.1A.61.61,0,0,0,59,63,.09.09,0,0,0,59.05,62.9Z"/><path class="cls-5" d="M59,52.45l-.06,0C59,52.5,59.16,52.57,59,52.45Z"/><path class="cls-5" d="M58.56,52.24l0,0C58.49,52.32,58.53,52.28,58.56,52.24Z"/><path class="cls-5" d="M58.71,52.27a1.09,1.09,0,0,1,.17.13l-.11-.09Z"/><path class="cls-5" d="M58.6,52.19s.08,0,0,0Z"/><path class="cls-5" d="M57.71,60.13l.07,0-.12,0Z"/><path class="cls-5" d="M57,59.9v0a.06.06,0,0,1-.05.07Z"/><path class="cls-5" d="M57,51.55s.12,0,0,0Z"/><path class="cls-5" d="M57.91,52h0a.13.13,0,0,1,.07.09Z"/><path class="cls-5" d="M56.87,60l0,0a.1.1,0,0,1,0,.06Z"/><path class="cls-5" d="M57.05,51.53l.13,0,0,0Z"/><path class="cls-5" d="M57.36,51.68l.09.07,0,0A.18.18,0,0,1,57.36,51.68Z"/><path class="cls-5" d="M57.86,60.42l0,0s0,0,0-.06Z"/><path class="cls-5" d="M57.94,61.33v0s0,0,0-.05Z"/><path class="cls-5" d="M56.31,51.63a.22.22,0,0,0-.05-.08S56.3,51.6,56.31,51.63Z"/><path class="cls-1" d="M65.35,61.69A28.36,28.36,0,0,0,55,39.77c-.28,0-.6.1-.84.11-.11-.14-.6-.09-.91-.08a2,2,0,0,0,.42.05c-.62.14-1.36.26-1.95.35l.22.07a2.84,2.84,0,0,1-.42.08c.14,0,.38.12.56.16a1.5,1.5,0,0,0-.38,0,5.35,5.35,0,0,1,.68.21c-.12,0-.28.13-.41.15a1.92,1.92,0,0,0,.36.14,1.35,1.35,0,0,1-.41-.16c.09,0,.2-.06.28-.14a14.93,14.93,0,0,0-2,.11c.12.25.82.52,1.34.81-.62-.06-1.37-.49-2-.22v0l.31.08a5.61,5.61,0,0,0-.71,0,3,3,0,0,0,1.26.39,3.07,3.07,0,0,1-1.35-.21c-.31-.2,0-.48-.56-.57.38.26.13.45-.2.59.72.26.39.74.89,1a.89.89,0,0,0,.56.07l-.11,0c-.41.26.18.17.08.38-.27.58-.78,1.21-1.7.56a2.4,2.4,0,0,1,.6,0s-.11,0-.08.07a1,1,0,0,0,.39,0s-.13-.12-.13-.13c1.1-.33-.6-1.6-.91-2-.07-.1.2-.32-.11-.53a1.51,1.51,0,0,0-.84,0c-.32.14-.19.61-.68.78a.76.76,0,0,1,.42.67c.27-.06.58.2.9.27-.1.45-2.61-.59-3.18-.28a4.17,4.17,0,0,1,.38.27c-.09.14-.15.1-.3.12,0,.26-.12.15-.19,0-.55-.36-1.39.33-2,.21,0-.06.14,0,.2-.08s-.12-.2-.12-.21.15,0,.22,0A1.46,1.46,0,0,0,42,43s.12,0,.15.05a11.41,11.41,0,0,0-1.29.28s.08.07.08.08-.21,0-.32,0c.09.82-1.77-.08-.45-.12-.32-.4-.8-.3-1.26-.37.38.08.69.92.6,1.21-.44-.28-2,.09-1.15.57-.45.2-1.05-.32-1.41-.07.62.5.65.73-.23.27-.46-.23-.37-.91-1-.91l.08-.06-.68-.33c.66.09,1.21.36,2,.43s1.9-.44.65-.88c-.6,0-1.56-.75-2.35-.41a1.19,1.19,0,0,1,.08-.16c-.17,0-.27-.06-.48-.09.09,0,.21,0,.3,0a1.35,1.35,0,0,0-.36-.14,1,1,0,0,1-.7.05,1.59,1.59,0,0,1-.4-.14,1.72,1.72,0,0,0,.72-.06c-.29-.17-.72-.4-.92,0,0-.2-.1-.14-.13-.19a.54.54,0,0,0,.14-.13.61.61,0,0,0-.38,0,.17.17,0,0,0,.12.05,1.14,1.14,0,0,0-.3.18.59.59,0,0,0,0-.23c-.13.13-.37.24-.49.37a2.43,2.43,0,0,1,.21-.31c-.41-.16-.61.08-.77.36a.7.7,0,0,0-.69-.11,2.31,2.31,0,0,1,.23.18c-.34-.09-.38-.08-.4.14-.05,0-.2,0-.23.08a1.19,1.19,0,0,0,.07-.27c-.11.08-.11.12-.21.23-.18-.16-.05-.09-.35,0,0,0,0,0,.07.07-.32,0-.42.24-.76.38l.36,0c-.36.06-.41,0-.42.25-.26-.2-.05,0-.35-.07l.11,0c-.13,0-.15,0-.28.07a.06.06,0,0,1,0,.06c.07,0,.13,0,.19,0s0,.06.12.1c0,0-.05,0,0,.08a.9.9,0,0,0-.4,0,2,2,0,0,1,.35,0,1.67,1.67,0,0,0-.62.16s.11,0,.11,0c-.27.09-.19,0-.29.26a1.82,1.82,0,0,1,.32,0c-.14,0-.28.08-.43.09s.1.06.08.07c-.25.17-.46.34,0,.28a4.43,4.43,0,0,0-.58.27s.1-.05.12,0a1.75,1.75,0,0,0-.74.52.76.76,0,0,0,.68-.14l0,0s0,0,0,0a1.07,1.07,0,0,1-.82.16.34.34,0,0,0-.27,0c0,.06.08,0,.1.08a.63.63,0,0,0-.17.08.77.77,0,0,1,.16.15.5.5,0,0,0-.69.06c.16,0,.35,0,.5,0a.48.48,0,0,0-.17.08,1.5,1.5,0,0,0-.55.07.76.76,0,0,1,.21,0,1.34,1.34,0,0,0-.6.21l.19,0c-.17,0-.28,0-.11.22-.2.33.62.14.78,0,0,.13-.09,0,0,.11a.9.9,0,0,0-.21.12c-.26-.12-1.13,0-.52.13a.5.5,0,0,1-.11.15s.05,0,.11.12c-.21.16-.09,0-.21.24a1.35,1.35,0,0,1,.52-.37c-.08.09-.2.17-.3.26a.58.58,0,0,0,.19,0c-.35.09-.24.07-.41.32.14-.07.34-.11.48-.19a.79.79,0,0,1-.1.17s0,0,.07.1c-.6,0-.07.37.06.43.35.1,1.07-.16,1.14-.49.3,0,.31,0,.4-.31.12.15.16.2.29.34-.22.36.77,1.3.43,1.36.06.18.12.29.16.44a3.47,3.47,0,0,0,1.19-.39c.3-.3.21-.9.33-1.13a1.91,1.91,0,0,0-.28-.07,1.62,1.62,0,0,0,.9-.34l-.25,0c1-.3-.81-.64-.24-1.12,0-.18,0-.25,0-.4s.12,0,.22,0-.08-.08-.06-.13.13,0,.15-.06c.45-.27,1.21-.45,1-1.09.16-.07,1.42-.63,1.4.21a3.29,3.29,0,0,0-1.41,1c-.06.34.26,1.11.64,1.1,0,.06,0,.08,0,.17s0,0,.14-.09a.76.76,0,0,1,0,.19,3.46,3.46,0,0,0,1.09-.32c.19,0,.1,0,.23-.07s0,.07,0,.1a7.06,7.06,0,0,1,.77-.1c0,.13.39.25.6.36a1.91,1.91,0,0,0-.77,0c-.1.23-2,0-1.59.48.08.06.08.24.35.24.1,1-.45.23-.8.3-.56.12-.55.83-.32,1.2-.11.1-.05.24-.28.15,0-.06.11-.09.13-.15a1.24,1.24,0,0,0-.5.41h.1l.16,0c-.27,0-.53,0-.72-.16-.6-.2-1.19.61-1.81.3.12.08.07.1.29.15,0,0,0,.08,0,.09-.31-.12-.46-.38-.8-.42s-.38.26-.66.21a.73.73,0,0,0,0-.16,2.22,2.22,0,0,1-.45,0,1.2,1.2,0,0,0-.16-.28,1.4,1.4,0,0,1,.58-.7c-.31-.1-.27-.38-.12-.64-.3.17-1.35.73-.52.36l0,.15c-.81-.09,0,.87-.24,1.17a1.44,1.44,0,0,0,.46.4c-.33-.2-.38-.22-.51.08-.06-.07-.09-.12-.16,0-.23-.17-.45-.14-.37.24-.25-.8-1.12.35-1.27.65,0,0,0,0,0,.06s.09.05.1.06-.27,0-.33,0a1.57,1.57,0,0,0,.31.08s0,0,0,0l-.1.07h0l.13-.09a1.4,1.4,0,0,0-.34.06.33.33,0,0,0-.34.13c-.29,0-.9.79-.9.79-.42.21-1.33-.43-.77.43-.48.09-.88-.2-1.4.1,0,0,0,0,0,0a.4.4,0,0,1,.19,0h-.14s.09,0,.1.06-.11,0-.15.07a8.58,8.58,0,0,0,1.18.42,1.08,1.08,0,0,0-.19,0c.14.26.5.49.37.72.09.12.16.28.25.4a1.09,1.09,0,0,0-.21-.27c0,.16-.08.31-.09.48l0-.05a1.84,1.84,0,0,1-.31.72c-.84,0-2.72-.57-3.16.23,0-.09.1.62.1.65a9.11,9.11,0,0,1-.42,1.49,1.45,1.45,0,0,0,.31-.18,2.08,2.08,0,0,0-.2.33c.13,0,.13,0,.23,0-.06.12-.08.49-.2.75a2.2,2.2,0,0,0,1-.14l.27.2c-.23.72.88.2,1.29.09a1.59,1.59,0,0,0,.91-.44c.15-.14.34-.49.65-.64-.92-.73,1.54-1.46,1.34-1.88-.26-.82,1.46-.27,1.82-.67,1.05-.46,1,0,1.57.68a4.17,4.17,0,0,1,1.4.94c.17.07.54.2.65.43s-.08,1,.11.94c.67-.06-.07-2.12,1-1,.06-.59-1.22-.58-1-1-1,.13-1.77-1.4-1.57-1.91a1.13,1.13,0,0,1,.52,0c-.11.4.15.28.17.3s0,0,.07,0,0,.08,0,.08.11.19.05-.06l.12.09a2.38,2.38,0,0,1,.32.3s-.12,0-.14,0c.3.46.75.34,1.12.72l-.29-.08c.87.26,1.11.64,1,1.35a2.62,2.62,0,0,1,.28.3s-.19,0,.08.2a.17.17,0,0,1-.08-.2.87.87,0,0,0,.53.38.13.13,0,0,1,0,.06s-.11,0-.16,0c.18.5.63.16,1.07.42-.18,0-.53-.17-.72,0s.08.42.18.77c0,0,.07-.15.08-.16s.14.21.19.31-.05-.07.3,0c-.09-.18-.13-.45-.2-.61.18.1.16,0,.32.08l-.21-.25c.22.07.17,0,.43.12,0-.39-.31-.54-.66-.64a1.33,1.33,0,0,1,.21-.09s-.12-.1-.1-.12a.75.75,0,0,1,.14.08c-.07-.19-.38-.51-.14-.74a.8.8,0,0,0,.21.2h0c.1,0,.16.1.25.1s-.09-.12-.11-.15l.27.09c-.17-.09-.17-.21-.26-.31.49-.18.81,0,1.3.06-.1.1-.15.21-.23.29a3.07,3.07,0,0,1,1.18-.6c-.35-.08-.53-.38-.72-.64a11.9,11.9,0,0,1,.57-1.27.32.32,0,0,0,0,.1c.39-.25.34-.82,1-1.09-.06.11.1,0,.13.07a1.53,1.53,0,0,0-.07-.29,1.49,1.49,0,0,0,.37.31,1.76,1.76,0,0,1-.42,0c0,.06.15,0,.2.08s-.1,0-.1,0c.27.1.59.12.81.19-.17.07-.29.21-.45.28.56,0,.29.5.75.52.21,0,.82-.43.95-.51-.3.08-.76-.07-.7-.37h0a.29.29,0,0,1,.06-.16s0,0,0,.12a2.9,2.9,0,0,1,1.19-.49s.16,0,.22-.06l-.08.06c.26,0,.15-.06.31,0-.27.14-.29.22-.6.22.12.08.21.21.34.29-.07,0-.14,0-.16.08a.42.42,0,0,1-.53.29l.1,0a.21.21,0,0,1-.13.05,7.36,7.36,0,0,0,1.56.9c.3.32,1.22.58.6,1.16-.41.38-1.49.11-1.93,0S38,56,37.22,56.27c-.22.06-.4.23-.61.29s-.47,0-.56.08c-.28.12-.77,0-.11.21-.12,0-.32.1-.44.12s.12.05.12.06A4.4,4.4,0,0,1,35,57c-.13,0-.69,0-.66.49a2,2,0,0,1,.34,0,.51.51,0,0,0,.14.58.47.47,0,0,0-.2.06s-.13-.14-.14-.15c.08.31.36.43.55.79-.09-.07-.11.07-.11.1s.29,0,.43,0a3.59,3.59,0,0,1-.34.17c.48,0,.7.22,1.23.22.25,0,0-.32.48-.27s.45.38.9.36.5-.24.78-.27c.55-.06.18-.16.31.15a2.33,2.33,0,0,1-.17,1.71c-.23.66-.41,1.44-1.24,1,.06,0,0,.1-.05.11s-.12-.09-.15-.11a.2.2,0,0,0,0-.08.76.76,0,0,0-.59,0l.16-.08a2.28,2.28,0,0,1-1.69.08,18.18,18.18,0,0,1-2-.69,1,1,0,0,0-.89,0c-.52.32-.1.56-.28.84-.4.62-1.42.14-2-.21-.2-.11-.2-.38-.44-.53a1.82,1.82,0,0,0-.51-.18,4.29,4.29,0,0,1-1-.22c-.07-.1-.24-.16-.28-.23-.29-.54.08,0,.07-.56a2.12,2.12,0,0,1,.14-1.27,2.75,2.75,0,0,1-.28.19.33.33,0,0,0-.25-.22,7,7,0,0,0-1.18.1c-.54.06-1,.07-1.59.08s-2.61,1.18-2.88.75c-.34.16-.95.23-1-.26-.51.07-.43.69-.78,1s-.79.34-1.09.74c-.44.59-.15,1.17-.56,1.73-.27.38-.72.43-1,.69a3.68,3.68,0,0,0-.54.67,18.06,18.06,0,0,1-1.17,1.63s.05-.08.08-.09A3.62,3.62,0,0,0,15,67.42s0-.12.06-.17c.45.43.61,2.88-.41,3.38.12.05.31.29.41.37a.25.25,0,0,0,.23.34.53.53,0,0,1-.26,0,1.45,1.45,0,0,0-.05.48c.11,0,0-.1.14,0l-.16.08a1.8,1.8,0,0,0,.25.12c0,.24.25.27.54.14a1.13,1.13,0,0,1-.2.13s.2,0,.2.07-.14,0-.19.1.12.11.19.14,0,.14,0,.18.31.35.61.46a2.66,2.66,0,0,0,.28.56c0,.09,0,0-.06.16,0,0,.13,0,.13,0s-.05.07-.17.09c.13.21.17.31.36.39.08.31,1.07,1,1.41,1.29,1,.72,1,.16,2,.1a.37.37,0,0,0-.15,0l.63,0c-.08,0-.18,0-.27,0,.25,0,.51,0,.68-.06,0,.1,0,.08.06.11s-.08,0-.11,0c.62.3,1,0,1.56-.29s1.17-.28,1.7-.5l-.12.09a1.23,1.23,0,0,1,.88.38c0,.06,0,0,.06,0l-.12,0c.09.07,0,0,.16,0a.36.36,0,0,0,.34.55s0,.09.14,0,0,.11.13.06a.41.41,0,0,1,0-.19,1,1,0,0,1,.07.18A1.56,1.56,0,0,0,26,76c.24.14.49.16.55-.11.13.06.13.09.15.21s.3.34.52.25a7.38,7.38,0,0,0,0,1.84s-.09,0-.13,0c.13.13.1.17.31.22-.07,0-.1,0-.1.08a1.3,1.3,0,0,0-.2-.15c0,.33,0,.51-.31.49.1.23.15.31.3.39,0,.13,0,.09.09.14-.14,0-.08,0-.23-.15a1.16,1.16,0,0,0,.21.35s-.06,0-.09,0a1.92,1.92,0,0,0,.36.34l-.16,0c.38.38,1.22,1.93,1.57,1.8-.11,0-.27.11-.37.13.22.38.68,1.11.38,1.5,0,.37.33.74.34,1.12,0,.61-.39.85-.61,1.35a3.34,3.34,0,0,0-.1,2.73l.22.49a28.51,28.51,0,0,0,8.26,1.23c.68,0,1.34-.06,2-.1a5.68,5.68,0,0,1-.22-1.12c.47,0,1.34-1,1.86-1.38.33-.21,1.39-1.07,1-1.35a11.21,11.21,0,0,0,0-2c-.09-.3-.32-.5-.44-.93s.1-2.48.07-2.84c-.13-1.87,1.49-1.89,2.94-3.16a7.31,7.31,0,0,0,1.75-2.73c.17-.39.5-1.46.76-1.55-.08,0,0-.11-.16,0,.34-1.22-.75-.51-1.52-.36a5.74,5.74,0,0,1-1.39.37c-.46-.1-.6-.69-1.07-.57,1.13-.43-1-1.64-1.31-2.1,0,.06,0,.11,0,.18-.32-.48-.34-1.11-.67-1.6s-.46-.42-.61-1a16.29,16.29,0,0,1-.74-2.06c-.46-.37-1.78-2.68-1.62-3.2a2.31,2.31,0,0,0,.81,1.17,9.5,9.5,0,0,1,.28-.95,4.18,4.18,0,0,1-.11.79c.63,0,1,1.27,1.27,1.69a4.81,4.81,0,0,1,.9,1.46c.39,1.23,2,2.19,1.88,3.63.14.29.14,1.34.7,1.4A5.7,5.7,0,0,0,45,71a10.76,10.76,0,0,0,1.87-.82c.13-.09,0-.3.17-.44a3.36,3.36,0,0,1,.68-.28c.15-.08.31,0,.45,0s0-.28.17-.4.76-.33.92-.62,0-.65.28-.87c.14.11,1-.94.16-1.49s-1.32-.45-1.24-1.56c-.24.3-.62,1-1,1.19a1.1,1.1,0,0,1-1.24-.27c.44-.67-.5-1-.22-.09a1.48,1.48,0,0,1-.38-1c-.45-.36-.77-1.22-1.23-1.45,0-.11.12-.07.18-.09s-.11-.14-.09-.23a.54.54,0,0,0,.49-.18c1.07.3,1.4,2.08,2.92,1.92.41,0,.39-.32.84-.07.28.16.22.51.66.68a5.17,5.17,0,0,0,1.81.2c.59,0,1.13-.13,1.8-.13.33.18.55.89.95.9l0,0,0,.11a.63.63,0,0,1,.24-.14c-.33.48.51.67.82.41a.55.55,0,0,1-.66.37c.49.8,1.83,1.1,1.48.06l.29,0a.81.81,0,0,0-.1.29,1.15,1.15,0,0,1,.26,0,1.7,1.7,0,0,0-.22.15c.22.24,0,.89.28,1.16-.08,0-.11,0,0,.16a.11.11,0,0,0,0-.1,5,5,0,0,0,.84,2.43c.38.89.77,1.79,1.14,2.67l-.11-.21c0,.26.21.83.48.9.56.16.33-.68,1-.51-.4-.16.07-.73.15-1A3.83,3.83,0,0,0,60,71.18a.36.36,0,0,1,.08.12c-.28-1,0-1.08.53-1.51s1-1.22,1.54-1.75c0,0-.08,0-.13,0s.13-.17.12-.15,0,.06,0,.11a.84.84,0,0,0,.32-.19,2.71,2.71,0,0,0,.64-1.23c0,.19.11.11.1.36,0,0,.16,0,.24,0a.7.7,0,0,1,0-.25,2.29,2.29,0,0,1,.08.28.09.09,0,0,1,.14,0s-.07-.15-.07-.15.07,0,0-.08c.24.18.11.27.18-.1a.65.65,0,0,1,.08.27c0-.12.11-.25.14-.37a1.79,1.79,0,0,0,0,.23s.1-.08.11-.07a.48.48,0,0,0,0,.18.67.67,0,0,0-.06-.87c.13,0,.1.06.15-.07,0,.34.16.62.45.38a1.25,1.25,0,0,1,.2.38c.05-.24.08-.49.12-.73s0-.07,0,0c.14-.92.23-1.86.28-2.81l0,0,0,0a.17.17,0,0,0,.06-.06C65.3,62.66,65.35,62.18,65.35,61.69ZM26.17,47s0-.12,0-.12l.18-.06C26.24,46.83,26.23,46.86,26.17,47Zm7.66-4.08h0Zm.07,0H34Zm.2-.14h0a.21.21,0,0,0-.08.1.41.41,0,0,0,0-.09h0Zm.35,1.41,0,0-.08-.06Zm0,.45h.05S34.5,44.55,34.47,44.56Zm.1-2v0C34.54,42.63,34.55,42.59,34.57,42.54ZM22.77,55.72l-.09,0a.19.19,0,0,0,.13,0Zm1.13.2h0s0,0,0,0Zm.61-4.26,0,0,.07,0ZM25,51.4l0,0a.23.23,0,0,0,.1-.07A.08.08,0,0,1,25,51.4Zm.23.64h0a0,0,0,0,0,0,0Zm1-1.17v0h0S26.25,50.88,26.25,50.87Zm0,3.58,0,0a.25.25,0,0,0,0,.09Zm-.39-3.34a.14.14,0,0,0,0,.06l0,0v0h0Zm0,2.71,0,0,0,0Zm-.06-2.35v0s0,0,0,0Zm-.15-.08h0l0,0S25.62,51.39,25.6,51.39Zm.13.91h0a.05.05,0,0,1-.05,0l.06,0h0ZM25.84,54l0,0,0,0h0S25.86,54,25.84,54Zm.17.58v0h0S26,54.58,26,54.59Zm0-.7h.08A.11.11,0,0,0,26,53.89ZM26.1,55s0,0,0-.05l0,0Zm0-.21h0Zm0-.55a.13.13,0,0,1-.06,0s0,0,0,0,.06,0,.07-.05S26.15,54.18,26.14,54.19Zm.07.89-.05,0,.12,0Zm.15-1.72h0a.05.05,0,0,0,.05,0Zm.08-.26a.13.13,0,0,0,0-.06v0A.22.22,0,0,0,26.44,53.1Zm7.67-5.2a0,0,0,0,1,0,0h0Zm0,.35,0,0,0,0Zm.1.08-.07,0h0l.13.09Zm.05-1,0,0,0,0Zm.12,1.35s0,0,0,0l0,.1A.22.22,0,0,0,34.4,48.7Zm.34.34.06,0h0ZM35,49h0s0,0,0,0Zm0,.08h0a0,0,0,0,0,0,0Zm-.15-4a.15.15,0,0,0,0-.07v0s0,0,0,.06Zm-.17-.28s0,0,0,0,0,0,0,0ZM35,46l-.16.16L35,46Zm.12,3.08h0C35,49.16,35,49.17,35.1,49.12Zm.19-3.5s0,0,0,0l0,0Zm.32,3.79,0,0h0Zm.63,1.06h0a.21.21,0,0,0,.11,0Zm.18-.19h0s0,0,0,.05A.14.14,0,0,0,36.42,50.28Zm.39.57h0Zm.38.55Zm0-.12a.18.18,0,0,1,0-.06h0s0,0,0,0v0l.07,0C37.15,51.17,37.13,51.22,37.15,51.28Zm.31.15h-.1a.13.13,0,0,0,.12,0Zm.81.49,0,0,0,0Zm.61.15h0s0,0,0,0Zm.23,1.28v0a0,0,0,0,1,0,0A.13.13,0,0,0,39.11,53.35Zm0,.09h0s0,0,0,0Zm.18-1.32h0S39.2,52.15,39.28,52.12Zm.45.26a0,0,0,0,1,0,0h0A.06.06,0,0,0,39.73,52.38Zm0,.53s0,0,0,0a.59.59,0,0,0,0,.08S39.7,52.93,39.7,52.91Zm1.11,2.68-.09-.05a.94.94,0,0,0,.29.06Zm.54,0,.07,0h0S41.38,55.63,41.35,55.62Zm.64.24h0l0,0Zm.52-3.26a0,0,0,0,1,0,0l0,0Zm0-.48,0,0,0,0Zm.08-.19v0h0A.08.08,0,0,0,42.57,51.93Zm0,1,.07,0v0S42.61,52.91,42.58,52.91Zm.21-1,.07.06-.14-.11Zm.07,4.31a.15.15,0,0,1-.13-.05.25.25,0,0,0,.14.06Zm2.59-4.69,0,0h0Zm-.06.12,0,.06a.26.26,0,0,0-.11-.14A.3.3,0,0,1,45.39,51.64Zm-.19-.17,0,0-.06,0Zm-.38-.19h0Zm-.16,0h0Zm-.81-.12,0,0S43.75,51.14,43.85,51.16Zm-.69,2.05v0a.12.12,0,0,0-.09,0Zm.22,3.35a.17.17,0,0,0-.1-.12.2.2,0,0,1,.11.13Zm.43-.11a.19.19,0,0,0-.09,0,.23.23,0,0,1,.11-.07Zm2.83,2.4c-.76.14-2.59,0-2.32-1.18,0-.05,0,.07.06.07,0-.32,0-.67.43-.64-.31-.17-.77-.77-1-.69-.07-.41-.65-.61-.53-1.17,0,0-.06.1,0,.17-.52-.6-.16-.52-.2-1.13.13,0,.34-.1.51-.11a1.28,1.28,0,0,1,.92-.63c.94-.13.61.57,1,.92-.39-.08-1.28.07-.61.45-.85-.11-.3.36.08.7.1.08.48.13.52.19.18.23,0,.55.28.82-.3-.83.76-.33.8.06s-.49.21-.74,0a.76.76,0,0,0,.16.62c.13,0,.06-.14.26.12,0,0-.19,0-.16,0s0,.21,0,.19c.48,0,.46.92.57,1.31C46.62,58.87,46.46,58.93,46.64,58.85ZM47,51.51l.05,0,0,0Zm.53-.43h0s.05,0,.1,0ZM47.65,50h0Zm0,1.61h0l0,0A.05.05,0,0,0,47.66,51.61Zm0-.93v0a.23.23,0,0,1,.09-.12A.19.19,0,0,0,47.69,50.68Zm.81-.77h0Zm.21,0,0,0C49,49.78,48.76,49.84,48.71,49.86Zm.42,0a.13.13,0,0,1,0-.06h0A.1.1,0,0,0,49.13,49.81Zm1.9-.43h0C51.26,49.33,51.07,49.37,51,49.38ZM50.33,43a2,2,0,0,0-.37-.11.88.88,0,0,1,.89.32c-.11.24.17.32.49.31C50.71,43.62,50.78,43.12,50.33,43Zm1.37-.74c-.15-.31-.2-.27-.05-.52.37.21.62.43.42.65C52,42.15,51.76,41.79,51.7,42.21Zm.44,7.73h.09Zm.33.08,0,0Zm.09,0,0,0h0Zm.23.19s.05,0,.07,0S52.58,50.17,52.79,50.2Zm.68-.32,0,0h0A.09.09,0,0,0,53.47,49.88Zm.24,0h0a.22.22,0,0,0,0-.08Zm.51.37.06,0,.08.06A.67.67,0,0,0,54.22,50.29Zm.19,14h0l0,0Zm.06-13.81.1.08,0,.05Zm.2,13.89h0s0,0,0,0Zm.08,1.27c-.14,0,0,0,0,0Zm.24-.78h0v.06S55,64.87,55,64.85Zm.08.74h0S55.14,65.61,55.07,65.59Zm.1-.34,0,0,0,.07ZM55,50.89l.12.11c.24.21.47.45.7.65C55.5,51.41,55.23,51.14,55,50.89Zm.91,10h0l0,0Zm.24,1.6v0a0,0,0,0,0,0,0Zm0-1.36,0,0Zm.14.54s0,0,0,0,0,.07,0,.1S56.25,61.65,56.23,61.64Zm0-.08h0l0,0Zm0-10a.22.22,0,0,1,.05.08S56.22,51.51,56.26,51.55ZM56.87,60l0,0a.1.1,0,0,0,0-.06ZM57,59.9l0,0a.06.06,0,0,0,.05-.07Zm0-8.35h0C57.07,51.51,57,51.54,57,51.55Zm.1,0,.1,0,0,0Zm.86.48,0,.08a.13.13,0,0,0-.07-.09Zm-.55-.33a.18.18,0,0,0,.07,0l0,0Zm.35,8.45h-.05l.12,0Zm.15.29,0,0s0,0,0,.06Zm.08.91v0s0,0,0,.05Zm0,0h0a.12.12,0,0,0,0,.05Zm.19.4v0a.11.11,0,0,1,0,.05Zm0-.48h0Zm0,0v0A.05.05,0,0,0,58.21,61.26Zm1.51-9h0S59.73,52.28,59.72,52.27Zm-.08,0h0Zm0,0h0Zm-1.06-.06,0,0S58.49,52.32,58.54,52.26Zm.06-.07,0,0S58.61,52.19,58.6,52.19Zm.11.08.06,0,.11.09A1.09,1.09,0,0,0,58.71,52.27Zm.29.18c.16.12,0,0-.06,0Zm0,10.45A.09.09,0,0,1,59,63a.61.61,0,0,1,0-.19A.34.34,0,0,0,59.05,62.9Zm0-.6,0,0,.06,0Zm.14.21,0,0h0Zm.22.84-.18-.1.24.14Zm0-11h0C59.57,52.3,59.45,52.31,59.44,52.31Zm.19,11.2a.12.12,0,0,1-.05,0,.85.85,0,0,0,.19.14Zm.23.14,0,0,0,0ZM60.07,52l0,0h0Zm.22-.13.06,0C60.45,51.79,60.31,51.82,60.29,51.83Zm.63,12.06h0l.05,0Zm.58.36a.05.05,0,0,0,0,0l0,.05ZM62,52a.05.05,0,0,1,0,0S61.83,52,62,52Zm1.17,12a.25.25,0,0,1,0,.09l0,0A.14.14,0,0,0,63.12,64Zm-.07-13,0,0S63,50.94,63.05,51Zm0,.7,0,0s0,0,0,0Zm-.74.39,0,0h0A0,0,0,0,0,62.28,52.06Zm.16,12.39a0,0,0,0,1,0,0S62.57,64.53,62.44,64.45Zm.21,0h-.08C62.65,64.44,62.84,64.42,62.65,64.45Zm.15-.83h0Zm0-11.52h0l0,0A0,0,0,0,0,62.79,52.1Zm.1,0c.08.06,0,0,0,0Zm0,12.58v0s0,0,0,.06S62.9,64.74,62.9,64.72Zm0-.08a.09.09,0,0,1,0-.07l0,0A.19.19,0,0,0,62.91,64.64Zm.3.9a.16.16,0,0,1-.08-.06.16.16,0,0,0,.13.07Zm-.08-.45h0ZM63,64.77h0a2.82,2.82,0,0,0,.29.24Zm.35.32h0s0,0,0,0A0,0,0,0,1,63.32,65.09Zm.06,1v0a.05.05,0,0,0,0,0A0,0,0,0,1,63.38,66.1Zm.18-1.54a0,0,0,0,0,0,.06v-.06Zm-.08,1.73h0s0,0,0,0Zm0,.16a.17.17,0,0,0,0-.07.64.64,0,0,0,.06.18A.37.37,0,0,0,63.52,66.45Zm.2-1.46v0a.2.2,0,0,0,0,.07Zm0-.71h0a.18.18,0,0,0,.14,0S63.72,64.29,63.67,64.28Zm.27.82s-.29-.09-.11,0a1.46,1.46,0,0,0,.2,0Zm.64-1.1a.14.14,0,0,0,0,.09h0A.19.19,0,0,1,64.58,64Zm-.1,1.9v0Zm0-1.67h0Zm.12,2,0-.07a.11.11,0,0,0,0,.09Zm0-1.09h0Zm.18,1.14c-.08,0,0,0,0,0Zm0-.11h0a.19.19,0,0,0,0,.07Zm.07-.63h0s0,0,0-.05Zm.12-.24c-.06,0,0,0,0,0S65,65.27,65,65.27Z"/><path class="cls-1" d="M25,51.18a.18.18,0,0,0,.07,0l-.11.07Z"/><path class="cls-1" d="M37.83,53.78l-.06,0h0C37.79,53.92,37.81,53.86,37.83,53.78Z"/><polygon class="cls-1" points="37.76 53.83 37.77 53.84 37.77 53.83 37.76 53.83"/><path class="cls-1" d="M37.1,61.54a0,0,0,0,0,0,0l.09,0Z"/><path class="cls-1" d="M28.71,83s0,0,0,0v0S28.71,83,28.71,83Z"/><path class="cls-1" d="M31.66,49.06v0Z"/><path class="cls-1" d="M26.91,57.39c.39,0,.48-1.51-.37-.77C26.69,56.91,26.56,57.74,26.91,57.39Z"/><path class="cls-1" d="M21.6,49.76c.13-.06.06-.12.1-.18s-.13.09-.17.17S21.57,49.74,21.6,49.76Z"/><path class="cls-1" d="M19.49,50.86a1.09,1.09,0,0,0-.23.14c.07,0,.17,0,.25,0s-.11,0-.14.1a1,1,0,0,0,.6-.21c.61-.09,1.2-.25,1-1.07.15-.05.27-.09.28-.27,0,0,.07.06.07.05s0-.05-.14-.1c0-.3-.22-.33-.5-.22,0,0,.11-.06.11-.08-.2.05-.14,0-.27.12,0,0,0-.12,0-.12a.91.91,0,0,0-.48.28c.09,0,.16,0,.24,0-.19.24-.51.22-.8.25.13.08,0,0,0,.14h.14c-.17.09-.09.06-.08.13s-.11,0-.16,0a0,0,0,0,1,0,.07,2.2,2.2,0,0,0,.45.1c-.19.11-.23.21-.43.33.15,0,.33,0,.46-.06a1,1,0,0,0-.43.22c-.13,0-.15,0-.25.06s.17,0,.19,0-.15.06-.19.17A1.77,1.77,0,0,0,19.49,50.86Z"/><path class="cls-1" d="M16.12,44.23a1.09,1.09,0,0,1-.27.11h.26c-.25.07-.57.08-.84.15a5,5,0,0,1,.84.11,1.24,1.24,0,0,1-.21.15c.08,0,.14-.06.22,0a3.47,3.47,0,0,1-.48.13l0,0s0,.1,0,.09a1.44,1.44,0,0,1,.81,0c.29.53,2.6-.34,2.55-.75,0,0,0-.16-.25-.09,0-.07.2-.09-.11-.09.1-.21.05,0-.06-.17a.82.82,0,0,0,.2-.12c-.47,0-.86.26-1.32.11a.41.41,0,0,1,0,.19c-.35-.31-.82-.09-1.11.22,0-.13-.09-.11-.13-.21.26-.2-.12-.33-.44-.29.08,0,.14,0,.21,0s-.17,0-.17,0,.11.07.15.13l-.07,0a.77.77,0,0,0-.27-.07c0,.06,0,0-.05,0v0h0s-.09,0-.09,0,.12,0,.18.05h-.3s0,.13.07.1-.11,0-.22,0A4.76,4.76,0,0,1,16.12,44.23Z"/><path class="cls-1" d="M15.56,44h0C15.58,43.9,15.55,44,15.56,44Z"/><path class="cls-1" d="M15.58,44h0Z"/><path class="cls-1" d="M34.35,57.41s0,.09.15.11,0,0,0,0h0c-.06-.24-.15-.09-.25-.14S34.12,57.48,34.35,57.41Z"/><path class="cls-1" d="M33.94,57c-.07.07-.15-.07-.11.07S33.9,57,33.94,57Z"/><path class="cls-1" d="M33.16,57.59c-.11,0-.09-.17-.26,0a2.67,2.67,0,0,1,.75.48A.72.72,0,0,0,33.16,57.59Z"/><path class="cls-1" d="M26.73,49.28c0-.09,0,.09,0,.12C26.9,49.35,26.73,49.37,26.73,49.28Z"/><path class="cls-1" d="M28.6,49.6a1,1,0,0,0,.22,0C28.74,49.35,28.72,49.54,28.6,49.6Z"/><path class="cls-1" d="M27.08,55.46c-.11.12-.29.3-.37.41a.53.53,0,0,0,.26.43A1.08,1.08,0,0,0,27.08,55.46Z"/><path class="cls-1" d="M21.18,45.7s-.09.1.06.18C21.28,45.74,21.23,45.82,21.18,45.7Z"/><path class="cls-1" d="M32.43,47.57a.49.49,0,0,0-.51,0c0,.12,0,.08,0,.23A4,4,0,0,0,32.43,47.57Z"/><path class="cls-1" d="M32.29,47.38c-.19-.11-.1-.11-.36-.05a.24.24,0,0,1,.19.13C32.14,47.41,32.25,47.39,32.29,47.38Z"/><path class="cls-1" d="M27.67,49.22c-.11-.17,0-.33-.36-.19C27.34,49.3,27.47,49.2,27.67,49.22Z"/><path class="cls-1" d="M29.33,49.28s.06-.11-.11-.15C29.13,49.29,29.28,49.21,29.33,49.28Z"/><path class="cls-1" d="M27.73,49.21c-.1.07-.07.14-.1.2S27.71,49.28,27.73,49.21Z"/><path class="cls-1" d="M27.49,49.33l0,0,0-.06Z"/><path class="cls-1" d="M27.72,48.14Z"/><path class="cls-1" d="M28.07,48.93c-.08-.2-.09,0-.21,0s0,.29.23.48C28.24,49.18,28.54,48.46,28.07,48.93Z"/><path class="cls-1" d="M27.77,49.31c0,.19.13.06.21.14S28,49.34,27.77,49.31Z"/><path class="cls-1" d="M30.12,55.3l.08,0Z"/><path class="cls-1" d="M30.17,55.51a1.48,1.48,0,0,1,.21,0A.37.37,0,0,0,30.17,55.51Z"/><path class="cls-1" d="M30,55.37a1,1,0,0,0,.34,0A2.75,2.75,0,0,0,30,55.37Z"/><path class="cls-1" d="M29.54,54.78c-.07-.06-.33-.21-.15-.1S29.45,54.8,29.54,54.78Z"/><path class="cls-1" d="M31.21,46.69c-.16-.11-.14,0-.16,0s-.11-.08,0,.07A.87.87,0,0,1,31.21,46.69Z"/><circle class="cls-6" cx="83.56" cy="17.55" r="9.45"/><path class="cls-6" d="M81,6.4a5.67,5.67,0,0,1,2.52-.53,7.8,7.8,0,0,1,2.52.53L83.56.92Z"/><path class="cls-6" d="M86.08,28.32a5.67,5.67,0,0,1-2.52.53A7.8,7.8,0,0,1,81,28.32l2.52,5.48Z"/><path class="cls-6" d="M94.52,14.84a5.67,5.67,0,0,1,.53,2.52,7.8,7.8,0,0,1-.53,2.52L100,17.36Z"/><path class="cls-6" d="M72.6,19.88a5.67,5.67,0,0,1-.53-2.52,7.8,7.8,0,0,1,.53-2.52l-5.48,2.52Z"/><path class="cls-6" d="M89.53,7.83a5.6,5.6,0,0,1,2.15,1.41,7.89,7.89,0,0,1,1.41,2.15l2.09-5.65Z"/><path class="cls-6" d="M93.09,23.33a5.6,5.6,0,0,1-1.41,2.15,7.89,7.89,0,0,1-2.15,1.41L95.18,29Z"/><path class="cls-6" d="M74,11.39a5.6,5.6,0,0,1,1.41-2.15,7.89,7.89,0,0,1,2.15-1.41L71.93,5.74Z"/><path class="cls-6" d="M57.7,33.89a1.55,1.55,0,0,0,2.19,2.2l.24-.24-2.2-2.2Z"/><rect class="cls-6" x="59.5" y="32.19" width="1.06" height="3.11" transform="translate(-6.28 52.33) rotate(-45)"/><path class="cls-6" d="M75.8,18a1.55,1.55,0,0,0-2.2,0L60.33,31.25l2.2,2.2L75.8,20.18A1.56,1.56,0,0,0,75.8,18Z"/><path class="cls-6" d="M65,41.14a1.55,1.55,0,0,0,0,2.2,1.57,1.57,0,0,0,2.2,0l.23-.24-2.19-2.2Z"/><rect class="cls-6" x="66.75" y="39.45" width="1.06" height="3.11" transform="translate(-9.28 59.59) rotate(-45)"/><path class="cls-6" d="M83.05,25.24a1.55,1.55,0,0,0-2.2,0L67.58,38.51l2.2,2.19L83.05,27.44A1.57,1.57,0,0,0,83.05,25.24Z"/><rect class="cls-6" x="44.46" y="34.62" width="41.02" height="3.11" rx="0.74" ry="0.74" transform="translate(-6.55 56.54) rotate(-45)"/><circle class="cls-1" cx="58.15" cy="36.63" r="0.91"/><circle class="cls-1" cx="57.04" cy="34.69" r="0.74"/><circle class="cls-1" cx="58.39" cy="30.71" r="0.62"/><circle class="cls-1" cx="57.33" cy="27.55" r="1.59"/><circle class="cls-1" cx="60.18" cy="29.54" r="0.15"/><circle class="cls-1" cx="63.78" cy="33.55" r="0.4"/><circle class="cls-1" cx="60.99" cy="35.06" r="0.66"/><circle class="cls-1" cx="68.4" cy="42.72" r="0.7"/><circle class="cls-1" cx="65.07" cy="42.75" r="1.29"/><circle class="cls-1" cx="66.12" cy="40.39" r="0.61"/><circle class="cls-1" cx="66.86" cy="38.23" r="0.5"/><circle class="cls-1" cx="71.77" cy="44.27" r="1.44"/></svg>