<svg id="Layer_1" data-name="Layer 1" xmlns="http://www.w3.org/2000/svg" viewBox="0 0 100 100"><defs><style>.cls-1{fill:#d76f34;}.cls-2{fill:#b25c29;}.cls-3{fill:#3e3e3f;}.cls-4{fill:#f37d3b;}.cls-5{fill:#171717;}</style></defs><title>ant</title><path class="cls-1" d="M99.45,23.73c-7.72,6.28-.09,10-6.1,14.56s-13,5.56-15.64,2.12.1-9.95,6.1-14.56S102.81,21,99.45,23.73Z"/><path class="cls-2" d="M72.49,89.69a2.25,2.25,0,0,1-2.25-2.25V54.16H64.61a2.26,2.26,0,0,1,0-4.51h7.88a2.26,2.26,0,0,1,2.26,2.25V87.44A2.26,2.26,0,0,1,72.49,89.69Z"/><path class="cls-2" d="M63.14,89.69a2.25,2.25,0,0,1-2.25-2.25V54.16H55.26a2.26,2.26,0,1,1,0-4.51h7.88a2.25,2.25,0,0,1,2.25,2.25V87.44A2.25,2.25,0,0,1,63.14,89.69Z"/><path class="cls-3" d="M42.17,58.58c1.82,8-5.59,16.51-16.54,19S0,68.79,0,68.79s8.09-17.7,19.05-20.18S40.36,50.59,42.17,58.58Z"/><ellipse class="cls-4" cx="76.34" cy="40.75" rx="17.03" ry="13.25" transform="translate(-10.04 45.99) rotate(-31.56)"/><ellipse class="cls-4" cx="47.12" cy="57.46" rx="7.46" ry="13.76" transform="translate(-11.56 11.86) rotate(-12.79)"/><ellipse class="cls-4" cx="59.2" cy="54.72" rx="7.46" ry="13.76" transform="translate(-10.65 14.47) rotate(-12.79)"/><path class="cls-1" d="M32.32,89.69a2.25,2.25,0,0,1-2.25-2.25V60.15a2.25,2.25,0,0,1,2.25-2.25h7.89a2.26,2.26,0,0,1,0,4.51H34.57v25A2.25,2.25,0,0,1,32.32,89.69Z"/><path class="cls-1" d="M43.17,89.69a2.25,2.25,0,0,1-2.25-2.25v-31a2.25,2.25,0,0,1,2.25-2.25h7.89a2.25,2.25,0,0,1,0,4.5H45.43V87.44A2.26,2.26,0,0,1,43.17,89.69Z"/><path class="cls-1" d="M53.25,89.69A2.25,2.25,0,0,1,51,87.44V51.9a2.25,2.25,0,0,1,2.25-2.25h7.89a2.26,2.26,0,0,1,0,4.51H55.51V87.44A2.26,2.26,0,0,1,53.25,89.69Z"/><path class="cls-4" d="M68.06,33.91a1.76,1.76,0,0,1-1.28-.53l-9-9a1.8,1.8,0,0,1,0-2.56l11-11A1.81,1.81,0,0,1,71.4,13.4l-9.74,9.75,7.67,7.68a1.79,1.79,0,0,1,0,2.55A1.75,1.75,0,0,1,68.06,33.91Z"/><path class="cls-4" d="M77,33.91a1.76,1.76,0,0,1-1.28-.53l-9-9a1.84,1.84,0,0,1-.49-1.67,1.82,1.82,0,0,1,1.14-1.31L83,15.61A1.81,1.81,0,1,1,84.3,19l-13,4.86,7,7A1.81,1.81,0,0,1,77,33.91Z"/><circle class="cls-5" cx="68.66" cy="35.83" r="1.3"/></svg>