<svg id="Layer_1" data-name="Layer 1" xmlns="http://www.w3.org/2000/svg" xmlns:xlink="http://www.w3.org/1999/xlink" viewBox="0 0 100 100"><defs><style>.cls-1{fill:none;}.cls-2{clip-path:url(#clip-path);}.cls-3{fill:#58595b;}.cls-4{fill:#c5c7c9;}.cls-5{fill:#5393ae;}.cls-6{fill:#f05c38;}.cls-7{fill:#3e545f;}.cls-8{fill:#d0d2d3;}.cls-9{fill:#f37d60;}</style><clipPath id="clip-path"><path class="cls-1" d="M-154.29-120h-71.42A14.33,14.33,0,0,0-240-105.71v71.42A14.33,14.33,0,0,0-225.71-20h71.42A14.33,14.33,0,0,0-140-34.29v-71.42A14.33,14.33,0,0,0-154.29-120Z"/></clipPath></defs><title>paint</title><g class="cls-2"><path class="cls-3" d="M-443,15.57c184-94.05,341-155.93,357.11-141.2L33.26-186.55c-67.42,1.13-262.4,76.19-483,189-51.17,26.15-99.73,52.35-144.88,77.88H-564C-526.79,59.43-486.13,37.6-443,15.57Z"/><path class="cls-3" d="M57.7-179.09c-2.8-5.48-11.54-7.68-24.44-7.46L-85.91-125.63c.38.34,1.09.51,1.31.95,9.5,18.58-132,109.91-317,205h101.71C-81.5-38.07,73.16-148.85,57.7-179.09Z"/></g><path class="cls-4" d="M90.18,91.08V8.59H9.75V91.41h0c0,4.74,18,8.59,40.22,8.59s40.22-3.85,40.22-8.59A1.86,1.86,0,0,0,90.18,91.08Z"/><path class="cls-5" d="M9.75,8.59v9.76c0,4.74,18,8.59,40.21,8.59s40.22-3.85,40.22-8.59V8.59Z"/><path class="cls-6" d="M90.18,8.59C90.18,3.85,72.17,0,50,0S9.75,3.85,9.75,8.59s18,8.59,40.21,8.59h1V44A6.05,6.05,0,1,0,63,44V57.4a6.05,6.05,0,0,0,12.1,0V29.7a6.06,6.06,0,0,0,12.11,0V11.81C89.13,10.81,90.18,9.73,90.18,8.59Z"/><path class="cls-6" d="M76.12,78.58a6.25,6.25,0,0,1-12.49,0c0-3.45,6.24-10.93,6.24-10.93S76.12,75.13,76.12,78.58Z"/><path class="cls-7" d="M50,52.21c-22.18,0-40.23-16.73-40.23-37.3h0a3.23,3.23,0,0,0-3.23,3.5C8.44,39.24,27.17,55.59,50,55.59S91.56,39.24,93.46,18.41a3.23,3.23,0,0,0-3.23-3.5h0C90.23,35.48,72.18,52.21,50,52.21Z"/><ellipse class="cls-8" cx="19.25" cy="77.57" rx="5.99" ry="15.49"/><ellipse class="cls-9" cx="73.45" cy="6.26" rx="7.74" ry="2.33"/><circle class="cls-8" cx="16.51" cy="56.49" r="3.25"/></svg>