<svg id="Layer_1" data-name="Layer 1" xmlns="http://www.w3.org/2000/svg" viewBox="0 0 100 100"><defs><style>.cls-1{fill:#714c48;}.cls-2{fill:#895e59;}.cls-3{fill:#744f4a;}</style></defs><title>pottery</title><ellipse class="cls-1" cx="50" cy="95.23" rx="20.76" ry="4.77"/><path class="cls-2" d="M75.62,44.17c7.29,8.48,11.49,19.7,7.19,35.59C78.92,94.55,66.52,97.47,50,96.82c-16.52.65-28.92-2.27-32.81-17.06-4.3-15.89-.1-27.11,7.19-35.59,17.06-16.89,23-36,25.62-35.91C52.66,8.18,58.56,27.28,75.62,44.17Z"/><path class="cls-2" d="M36.09,15.18c-4-2.44-6.24-5.67-3.9-10.25C34.3.68,41-.16,50,0c9-.18,15.7.66,17.81,4.91,2.34,4.58,0,7.81-3.9,10.25C54.65,20,51.44,25.54,50,25.52S45.35,20,36.09,15.18Z"/><ellipse class="cls-1" cx="50" cy="3.38" rx="11.77" ry="1.81"/><rect class="cls-2" x="39.41" y="18.17" width="20.49" height="3.13" rx="0.71" ry="0.71"/><rect class="cls-2" x="37.49" y="20.74" width="24.27" height="3.7" rx="0.84" ry="0.84"/><rect class="cls-2" x="37.49" y="23.66" width="24.27" height="3.7" rx="0.84" ry="0.84"/><path class="cls-3" d="M84.5,65.9a34.62,34.62,0,0,0-1.37-8.26c-28.84,12.15-60.54,2-66.25,0a34.79,34.79,0,0,0-1.37,8.2,117.65,117.65,0,0,0,36.45,6A89.1,89.1,0,0,0,84.5,65.9Z"/></svg>