<svg id="Layer_1" data-name="Layer 1" xmlns="http://www.w3.org/2000/svg" viewBox="0 0 100 100"><defs><style>.cls-1{fill:#fcca98;}.cls-2{fill:#f37d3b;}.cls-3{fill:#e9bb8d;}.cls-4{fill:#d8af84;}.cls-5{fill:#bd9975;}</style></defs><title>treasure map</title><path class="cls-1" d="M90.2,6.15A17.67,17.67,0,0,0,78.71,1.89H21.59A17.81,17.81,0,0,0,3.84,19.64V76.76A17.82,17.82,0,0,0,21.59,94.51H78.71A17.81,17.81,0,0,0,96.46,76.76V19.64A17.72,17.72,0,0,0,90.2,6.15Z"/><rect class="cls-2" x="71.2" y="59.85" width="6.69" height="18.1" rx="1.5" ry="1.5" transform="translate(70.56 -32.53) rotate(45)"/><path class="cls-2" d="M68.15,62.5h0a3.36,3.36,0,0,1,4.73,0L81,70.57a3.37,3.37,0,0,1,0,4.74h0a3.36,3.36,0,0,1-4.73,0l-8.07-8.07A3.37,3.37,0,0,1,68.15,62.5Z"/><path class="cls-3" d="M34.67,15c-4.54,1.51-7.15,7.77-7,12.82,0,1.1.38,7,4.46,9.48,2.22,1.36,4.24.9,9.48.28,11-1.3,16.54-1.92,19,0,3.31,2.62,1.18,6.15,5.58,10.87.83.9,4.77,5.12,8.64,4.18,4-1,5.52-7,6.13-9.47,1.18-4.81.42-8.67-.56-13.66-.82-4.2-2.13-7.45-4.74-13.94C73.4,10,72.76,9.31,72,8.85c-3.69-2.31-9.39.25-15,2.79-6.66,3-6.83,4.59-10.59,5C40.49,17.32,38.71,13.64,34.67,15Z"/><path class="cls-4" d="M67.56,12.75c-2.57-.95-4.21,3.34-10,5.86-6.12,2.64-8.81-.15-18.12,2.78-3,.94-6.19,2-6.41,3.91s2.82,4.41,5.85,5.29c5.53,1.61,8.06-2.8,16.72-3.62,3.22-.31,9.24-.88,12.27,2.51,3.91,4.36-.06,12.06,2.23,13.1,1.86.84,7-3.1,7.53-7.81.49-4.39-3.46-5.5-6.69-14.21C69.11,15.71,69.36,13.42,67.56,12.75Z"/><path class="cls-5" d="M66.26,15.08c-1-.16-1.26,2.17-3.72,4.08-1.56,1.23-2.33,1-7.24,2.61-3.6,1.19-5.83,1.94-5.76,2.6S53,25.51,55.3,25.48c3.26,0,3.77-1.41,6.31-1.11A14.58,14.58,0,0,1,66.26,26c2.8,1.31,3.64,2.2,4.09,1.86.63-.48-.73-2.53-2-6.88C67.13,17.13,67.15,15.22,66.26,15.08Z"/><polygon class="cls-5" points="39.59 51.78 45.73 51.78 42.66 47.13 39.59 51.78"/><polygon class="cls-5" points="39.59 49.45 45.73 49.45 42.66 44.81 39.59 49.45"/><polygon class="cls-5" points="39.59 47.13 45.73 47.13 42.66 42.48 39.59 47.13"/><polygon class="cls-5" points="47.08 49.15 53.22 49.15 50.15 44.51 47.08 49.15"/><polygon class="cls-5" points="47.08 46.83 53.22 46.83 50.15 42.18 47.08 46.83"/><polygon class="cls-5" points="47.08 44.51 53.22 44.51 50.15 39.86 47.08 44.51"/><polygon class="cls-5" points="47.08 57.98 53.22 57.98 50.15 53.33 47.08 57.98"/><polygon class="cls-5" points="47.08 55.66 53.22 55.66 50.15 51.01 47.08 55.66"/><polygon class="cls-5" points="47.08 53.33 53.22 53.33 50.15 48.69 47.08 53.33"/><path class="cls-3" d="M9,66.83c2.22-2.51,7.89-1.63,11.43.84,5.16,3.58,3,8.58,7.53,11.42S36.19,78,44.15,80.77c1,.34,7.12,2.58,7,5-.17,2.75-8.34,5.4-15.6,4.74-4.19-.37-8.18-2.48-16.17-6.69-5.62-3-7.32-4.43-8.64-6.41C8.83,74.62,6.77,69.38,9,66.83Z"/><path class="cls-4" d="M12.56,69.15c-.86.67-.5,2.89.37,4.46,1.29,2.35,3.1,2.13,6.69,5,2.34,1.88,2,2.31,4.08,3.9a24.53,24.53,0,0,0,6.88,3.35c6.2,2.2,10.07,3.58,11.71,1.86a3.56,3.56,0,0,0,.18-4.28c-1.45-1.75-4.55.18-10-.56a15,15,0,0,1-6.88-2.23c-4-2.75-3.28-6.18-8-9.66C17.12,70.67,13.77,68.2,12.56,69.15Z"/><path class="cls-2" d="M61,73.29a2.23,2.23,0,0,1-.52-4.4c1-.24,2-.52,3.09-.85a2.23,2.23,0,1,1,1.31,4.27c-1.15.35-2.27.65-3.36.91A1.91,1.91,0,0,1,61,73.29Z"/><path class="cls-2" d="M49.83,74.63c-1,0-1.94,0-2.83-.08a2.23,2.23,0,0,1-2.09-2.36,2.2,2.2,0,0,1,2.36-2.09A43.79,43.79,0,0,0,53.9,70a2.23,2.23,0,1,1,.41,4.44C52.82,74.56,51.31,74.63,49.83,74.63Zm-9.6-1.06a2.3,2.3,0,0,1-.45,0,29.77,29.77,0,0,1-7.2-2.2,2.22,2.22,0,1,1,2-4,26.17,26.17,0,0,0,6.13,1.82,2.23,2.23,0,0,1-.45,4.42ZM29.12,66.48A2.22,2.22,0,0,1,27,64.74a8.38,8.38,0,0,1-.21-2,19,19,0,0,1,.15-2.1A17.9,17.9,0,0,0,27,58.82a6.7,6.7,0,0,0-.09-1.16,2.23,2.23,0,1,1,4.4-.71,11.12,11.12,0,0,1,.15,1.87,21.32,21.32,0,0,1-.16,2.33,15.08,15.08,0,0,0-.12,1.63,4.16,4.16,0,0,0,.1,1,2.23,2.23,0,0,1-1.69,2.67A2,2,0,0,1,29.12,66.48ZM26,53.4a2.22,2.22,0,0,1-1.67-.76,12.18,12.18,0,0,0-3.51-2.79,9,9,0,0,0-1.19-.52A2.23,2.23,0,0,1,21,45.11a12,12,0,0,1,1.84.79,16.78,16.78,0,0,1,4.78,3.8,2.21,2.21,0,0,1-.2,3.14A2.18,2.18,0,0,1,26,53.4ZM15.52,45.15a2.22,2.22,0,0,1-2.17-1.77,14,14,0,0,1-.29-3.05,41,41,0,0,1,.33-4.62,2.23,2.23,0,0,1,4.43.51,37.63,37.63,0,0,0-.3,4.11,10,10,0,0,0,.19,2.12A2.23,2.23,0,0,1,16,45.1,2.42,2.42,0,0,1,15.52,45.15Z"/><path class="cls-2" d="M16.91,31.27a2.2,2.2,0,0,1-.61-.09,2.23,2.23,0,0,1-1.54-2.75c.3-1.06.66-2.18,1.09-3.35A2.23,2.23,0,1,1,20,26.63c-.39,1.05-.71,2.06-1,3A2.23,2.23,0,0,1,16.91,31.27Z"/><rect class="cls-5" x="2.33" y="90.62" width="95.33" height="9.38" rx="2.1" ry="2.1"/><rect class="cls-5" x="2.33" width="95.33" height="9.38" rx="2.1" ry="2.1"/><circle class="cls-2" cx="22.06" cy="16.41" r="5.53"/></svg>