<svg id="Layer_1" data-name="Layer 1" xmlns="http://www.w3.org/2000/svg" xmlns:xlink="http://www.w3.org/1999/xlink" viewBox="0 0 100 100"><defs><style>.cls-1{fill:none;}.cls-2{fill:#5c3f3b;}.cls-3{fill:#34201d;}.cls-4{fill:#f9a63f;}.cls-5{fill:#714c48;}.cls-6{fill:#7b544f;}.cls-7{fill:#452a27;}.cls-8{fill:#ffc640;}.cls-9{clip-path:url(#clip-path);}</style><clipPath id="clip-path"><path class="cls-1" d="M4.75,46.36h90.5a0,0,0,0,1,0,0V92.48A7.52,7.52,0,0,1,87.73,100H12.27a7.52,7.52,0,0,1-7.52-7.52V46.36a0,0,0,0,1,0,0Z"/></clipPath></defs><title>treasure</title><path class="cls-2" d="M9.57,41.54V8.89a2,2,0,0,1,2-2H88.41a2,2,0,0,1,2,2V41.54Z"/><path class="cls-3" d="M85.6,11.7v25H14.4v-25H85.6m2.81-9.64H11.59A6.83,6.83,0,0,0,4.75,8.89V46.36h90.5V8.89a6.83,6.83,0,0,0-6.84-6.83Z"/><circle class="cls-4" cx="51.47" cy="40.03" r="12.13"/><circle class="cls-4" cx="63.79" cy="46.36" r="12.13"/><circle class="cls-4" cx="77.35" cy="52.16" r="12.13"/><circle class="cls-4" cx="37.72" cy="47.04" r="12.13"/><circle class="cls-4" cx="25.59" cy="50.35" r="12.13"/><path class="cls-5" d="M4.75,46.36h90.5a0,0,0,0,1,0,0V92.48A7.52,7.52,0,0,1,87.73,100H12.27a7.52,7.52,0,0,1-7.52-7.52V46.36a0,0,0,0,1,0,0Z"/><path class="cls-6" d="M12.27,95.18a2.7,2.7,0,0,1-2.7-2.7V51.18H90.43v41.3a2.7,2.7,0,0,1-2.7,2.7Z"/><path class="cls-7" d="M85.6,56V90.36H14.4V56H85.6m9.65-9.64H4.75V92.48A7.52,7.52,0,0,0,12.27,100H87.73a7.52,7.52,0,0,0,7.52-7.52V46.36Z"/><ellipse class="cls-8" cx="22.12" cy="43.01" rx="3.47" ry="1.09"/><ellipse class="cls-8" cx="36.38" cy="39.58" rx="2.96" ry="1.36" transform="translate(-12.33 16.83) rotate(-22.37)"/><ellipse class="cls-8" cx="60.77" cy="41.52" rx="4.45" ry="1.49" transform="translate(-4.9 8.3) rotate(-7.51)"/><ellipse class="cls-8" cx="53.92" cy="34.91" rx="3.31" ry="1.66" transform="translate(-10.23 31.64) rotate(-30)"/><ellipse class="cls-8" cx="79.01" cy="43.19" rx="2.56" ry="0.9" transform="translate(-11.01 41.04) rotate(-27.3)"/><ellipse class="cls-8" cx="67.48" cy="37.66" rx="1.09" ry="2.26" transform="translate(5.66 84.02) rotate(-66.03)"/><ellipse class="cls-8" cx="47.66" cy="42.29" rx="1.31" ry="3.22" transform="translate(-13.49 60.18) rotate(-57.89)"/><rect class="cls-8" x="49.92" y="16.79" width="3.09" height="6.55" rx="1.54" ry="1.54"/><rect class="cls-4" x="63.67" y="20.93" width="3.09" height="6.55" rx="1.54" ry="1.54" transform="translate(20.84 -29.37) rotate(30)"/><rect class="cls-4" x="31.05" y="21.54" width="3.09" height="6.55" rx="1.54" ry="1.54" transform="translate(-7.75 17.71) rotate(-27.3)"/><rect class="cls-8" x="78.21" y="29.14" width="3.09" height="6.55" rx="1.54" ry="1.54" transform="translate(56.4 -50.45) rotate(52.13)"/><rect class="cls-8" x="18.46" y="29.14" width="3.09" height="6.55" rx="1.54" ry="1.54" transform="translate(-16.52 21.61) rotate(-41.83)"/><rect class="cls-7" x="12.16" y="64.98" width="75.31" height="3.62"/><rect class="cls-7" x="12.34" y="76.84" width="75.31" height="3.62"/><g class="cls-9"><circle class="cls-4" cx="89.48" cy="94.22" r="14.41"/><circle class="cls-4" cx="9.79" cy="94.22" r="14.41"/></g><path class="cls-3" d="M51.55,71.57h-3.1a9.37,9.37,0,0,1-9.37-9.37V46.36H60.92V62.2A9.37,9.37,0,0,1,51.55,71.57Z"/><rect class="cls-7" x="39.08" width="21.85" height="4.43"/><circle class="cls-4" cx="50" cy="58.76" r="2.34"/><circle class="cls-7" cx="88.09" cy="92.44" r="2.34"/><circle class="cls-7" cx="12.16" cy="92.44" r="2.34"/><rect class="cls-4" x="49.1" y="58.97" width="1.8" height="5.49" rx="0.9" ry="0.9"/></svg>