<svg id="Layer_1" data-name="Layer 1" xmlns="http://www.w3.org/2000/svg" viewBox="0 0 100 100"><defs><style>.cls-1{fill:#a6a8ab;}.cls-2{fill:#f05c38;}.cls-3{fill:#d0d2d3;}</style></defs><title>hammer</title><path class="cls-1" d="M55.87,27.49,3.07,86.59a5.15,5.15,0,0,0-.18,7.33L5.28,96.3a5.13,5.13,0,0,0,7.32-.17L69.54,32.55Z"/><path class="cls-2" d="M46.59,56.74l-8.3-8a2.42,2.42,0,0,0-3.49.13L2,85.57a7,7,0,0,0-2,5.06,6,6,0,0,0,1.7,4.14c.06.06.11.12.17.17l2.39,2.38a6.56,6.56,0,0,0,9.42-.23l33-37A2.42,2.42,0,0,0,46.59,56.74Z"/><path class="cls-3" d="M55.88,27.56c3.92-3.92,4.43-10,.35-14.14-8-8-12.61-7.15-21.64-7.15C48.22.3,58.1-1.06,68,3.54c4.26,1.87,6,3.58,9.37,7l6.13,6.14a10.51,10.51,0,0,1,2.89,5.62c.51,3.23-.34,3.92,1.88,6.3a1.64,1.64,0,0,0,2.38,0,1.66,1.66,0,0,1,2.39,0l6,6a3.3,3.3,0,0,1,0,4.77L86.88,51.4a3.27,3.27,0,0,1-4.76,0l-5.63-5.79a1.64,1.64,0,0,1,0-2.38,1.84,1.84,0,0,0,0-2.56c-2.38-2.38-3.06-1.53-6.3-1.87a9.93,9.93,0,0,1-5.62-2.9l-8.69-8.34"/></svg>