<svg id="Layer_1" data-name="Layer 1" xmlns="http://www.w3.org/2000/svg" viewBox="0 0 100 100"><defs><style>.cls-1{fill:#a6a8ab;}.cls-2{fill:#909295;}.cls-3{fill:#87898b;}.cls-4{fill:#a69997;}.cls-5{fill:#4f4f4f;}.cls-6{fill:#ebf7fd;}</style></defs><title>mountain range</title><polygon class="cls-1" points="59.24 33.08 55.2 37.59 49.74 40.15 40.17 73.97 90.37 73.1 66.58 41.89 59.24 33.08"/><polygon class="cls-2" points="55.53 76.29 60.14 61.74 63.09 60.12 65.5 46.43 70.76 44.74 73.49 37.88 86.2 47.19 90.58 62.2 97.81 66.8 100 76.29 55.53 76.29"/><polyline class="cls-3" points="56.68 76.29 14.88 76.29 16.55 60.7 20.33 58.39 24.05 44.74 31.03 39.35 41.68 23.71 44.69 24.29 50.18 51.22 54.59 47.37 59.71 55.45 78.44 76.29"/><polygon class="cls-4" points="20.33 58.39 25.01 59.93 16.55 60.7 20.33 58.39"/><polygon class="cls-5" points="0 76.29 1.75 63.95 8 59.55 13.69 41.63 18.07 43.03 27.27 54.64 31.76 76.29 0 76.29"/><polygon class="cls-6" points="32.17 37.68 35.83 46.22 42.8 38.88 48.82 44.53 44.69 24.29 41.68 23.71 32.17 37.68"/><polygon class="cls-3" points="8 59.55 12.89 60.7 3.66 64.21 1.75 63.95 8 59.55"/><polygon class="cls-2" points="24.05 44.74 30.67 46.22 24.55 51.2 22.86 49.08 24.05 44.74"/><polygon class="cls-1" points="86.2 47.19 78.44 48.91 90.37 61.88 86.2 47.19"/><polygon class="cls-6" points="59.24 33.08 55.2 37.59 49.74 40.15 53.58 44.13 59.24 42.52 65.77 45.14 67.19 42.7 59.24 33.08"/><polygon class="cls-6" points="73.49 37.88 70.76 44.74 65.5 46.43 71.21 47.97 74.4 46.22 81.27 47.19 83.82 45.45 73.49 37.88"/><polygon class="cls-6" points="13.69 41.63 11.8 47.59 14.88 46.22 24 50.47 18.07 43.03 13.69 41.63"/><polygon class="cls-1" points="49.29 53.53 46.66 57.79 35.99 54.85 49.29 53.53"/><polygon class="cls-5" points="86.84 76.29 82.26 69.11 73.99 66.77 70.58 59.55 63.39 67.22 59.8 67.92 55.53 76.29 86.84 76.29"/><circle class="cls-6" cx="67.51" cy="49.43" r="0.8"/><circle class="cls-6" cx="73.94" cy="48.85" r="0.6"/><circle class="cls-6" cx="72.17" cy="52.08" r="0.67"/><circle class="cls-6" cx="62.33" cy="45.58" r="0.87"/><circle class="cls-6" cx="57.65" cy="45.44" r="0.73"/><circle class="cls-6" cx="61.7" cy="49.24" r="0.99"/><circle class="cls-6" cx="44.13" cy="43.08" r="1.17"/><circle class="cls-6" cx="40.77" cy="46.6" r="1.02"/><circle class="cls-6" cx="31.42" cy="42.67" r="0.75"/><circle class="cls-6" cx="16.44" cy="49.81" r="1.02"/><circle class="cls-6" cx="12.94" cy="52.6" r="0.73"/><circle class="cls-6" cx="21.6" cy="54.35" r="0.82"/></svg>