<svg id="Layer_1" data-name="Layer 1" xmlns="http://www.w3.org/2000/svg" xmlns:xlink="http://www.w3.org/1999/xlink" viewBox="0 0 100 100"><defs><style>.cls-1{fill:none;}.cls-2{fill:#5b3c38;}.cls-3{fill:#09a380;}.cls-4{clip-path:url(#clip-path);}.cls-5{fill:#f05c38;}.cls-6{fill:#fbd2bc;}.cls-7{fill:#654440;}.cls-8{clip-path:url(#clip-path-2);}.cls-9{fill:#6ab8d9;}.cls-10{clip-path:url(#clip-path-3);}.cls-11{fill:#f2797a;}.cls-12{fill:#f5853c;}.cls-13{clip-path:url(#clip-path-4);}.cls-14{fill:#ffc63f;}.cls-15{fill:#c5c7c9;}.cls-16{clip-path:url(#clip-path-5);}.cls-17{fill:#9a85b0;}.cls-18{fill:#e0e0e0;}.cls-19{clip-path:url(#clip-path-6);}.cls-20{fill:#3e545f;}.cls-21{fill:#dddfe0;}.cls-22{clip-path:url(#clip-path-7);}.cls-23{fill:#00604a;}</style><clipPath id="clip-path"><circle class="cls-1" cx="50" cy="23.42" r="8.55"/></clipPath><clipPath id="clip-path-2"><circle class="cls-1" cx="24.08" cy="49.78" r="8.55"/></clipPath><clipPath id="clip-path-3"><circle class="cls-1" cx="75.92" cy="49.78" r="8.55"/></clipPath><clipPath id="clip-path-4"><circle class="cls-1" cx="91.45" cy="76.58" r="8.55"/></clipPath><clipPath id="clip-path-5"><circle class="cls-1" cx="39.61" cy="76.28" r="8.55"/></clipPath><clipPath id="clip-path-6"><circle class="cls-1" cx="8.55" cy="76.28" r="8.55"/></clipPath><clipPath id="clip-path-7"><circle class="cls-1" cx="60.39" cy="76.28" r="8.55"/></clipPath></defs><title>family tree</title><path class="cls-2" d="M40.46,50.69H25.92V48.86H40.46a8.63,8.63,0,0,0,8.62-8.62V23.42h1.84V40.24A10.47,10.47,0,0,1,40.46,50.69Z"/><path class="cls-2" d="M74.08,50.69H59.54A10.47,10.47,0,0,1,49.08,40.24V23.42h1.84V40.24a8.63,8.63,0,0,0,8.62,8.62H74.08Z"/><path class="cls-2" d="M66.38,77.5H51.83V75.67H66.38A8.63,8.63,0,0,0,75,67.05V50.22h1.83V67.05A10.46,10.46,0,0,1,66.38,77.5Z"/><path class="cls-2" d="M100,77.5H85.45A10.46,10.46,0,0,1,75,67.05V50.22h1.83V67.05a8.63,8.63,0,0,0,8.62,8.62H100Z"/><path class="cls-2" d="M14.55,77.2H0V75.36H14.55a8.63,8.63,0,0,0,8.62-8.62V49.92H25V66.74A10.47,10.47,0,0,1,14.55,77.2Z"/><path class="cls-2" d="M48.17,77.2H33.62A10.47,10.47,0,0,1,23.17,66.74V49.92H25V66.74a8.63,8.63,0,0,0,8.62,8.62H48.17Z"/><circle class="cls-3" cx="50" cy="23.42" r="8.55"/><circle class="cls-3" cx="24.08" cy="49.78" r="8.55"/><circle class="cls-3" cx="75.92" cy="49.78" r="8.55"/><circle class="cls-3" cx="8.55" cy="76.28" r="8.55"/><circle class="cls-3" cx="39.61" cy="76.28" r="8.55"/><circle class="cls-3" cx="60.39" cy="76.14" r="8.55"/><circle class="cls-3" cx="91.45" cy="76.58" r="8.55"/><g class="cls-4"><circle class="cls-5" cx="50.23" cy="32.45" r="6.98"/><circle class="cls-6" cx="50" cy="22.25" r="4.36"/><path class="cls-7" d="M49.54,19.47s4,1.86,5.28.37c0,0-2.09-3.41-5-2.58S49.54,19.47,49.54,19.47Z"/></g><g class="cls-8"><circle class="cls-9" cx="24.31" cy="58.81" r="6.98"/><circle class="cls-6" cx="24.08" cy="48.62" r="4.36"/><path class="cls-7" d="M24.84,51.33s2.87,1.82,4,.81c0,0-1.27-2.82-3.61-2.48S24.84,51.33,24.84,51.33Z"/><path class="cls-7" d="M22.73,49.79s-3.32.73-3.41,2.25c0,0,2.88,1.11,4.3-.79S22.73,49.79,22.73,49.79Z"/></g><g class="cls-10"><circle class="cls-11" cx="76.15" cy="58.81" r="6.98"/><circle class="cls-6" cx="75.92" cy="48.62" r="4.36"/><path class="cls-12" d="M74,45.48s3.55,4.09,5.59,3.38A6.91,6.91,0,0,1,78,53h2.87S84.12,40.89,74,43.67c0,0-5.59.59-3.35,9.31h2.81S71.55,45.31,74,45.48Z"/></g><g class="cls-13"><circle class="cls-14" cx="91.67" cy="85.62" r="6.98"/><circle class="cls-6" cx="91.45" cy="75.42" r="4.36"/><path class="cls-15" d="M89.43,70.25l4.43.27s3.89,4.62,1.63,6.52-5.34-4.53-5.34-4.53-.9,5.15-3.06,4.73S86.91,70.9,89.43,70.25Z"/><circle class="cls-15" cx="91.18" cy="69.73" r="1.34"/></g><g class="cls-16"><circle class="cls-17" cx="39.84" cy="85.32" r="6.98"/><circle class="cls-6" cx="39.61" cy="75.12" r="4.36"/><path class="cls-18" d="M37.68,72s3.55,4.1,5.58,3.38a6.87,6.87,0,0,1-1.54,4.12h2.86s3.24-12.08-6.9-9.3c0,0-5.59.58-3.35,9.3h2.8S35.24,71.81,37.68,72Z"/></g><g class="cls-19"><circle class="cls-20" cx="8.78" cy="85.32" r="6.98"/><circle class="cls-6" cx="8.55" cy="75.12" r="4.36"/><path class="cls-21" d="M9.31,77.83s2.87,1.83,4,.81c0,0-1.26-2.82-3.61-2.47S9.31,77.83,9.31,77.83Z"/><path class="cls-21" d="M7.2,76.29S3.88,77,3.79,78.54c0,0,2.88,1.11,4.3-.78S7.2,76.29,7.2,76.29Z"/></g><g class="cls-22"><circle class="cls-23" cx="60.62" cy="85.32" r="6.98"/><circle class="cls-6" cx="60.39" cy="75.12" r="4.36"/><path class="cls-18" d="M63.94,73.14s0,2.45,1,2.77c0,0,1.27-1.83.18-3.15S63.94,73.14,63.94,73.14Z"/><path class="cls-18" d="M56.76,75.14s.77-2.34-.14-3c0,0-1.75,1.38-1.09,3S56.76,75.14,56.76,75.14Z"/></g></svg>