<svg id="Layer_1" data-name="Layer 1" xmlns="http://www.w3.org/2000/svg" viewBox="0 0 100 100"><defs><style>.cls-1{fill:#3e545f;}.cls-2{fill:#fff;}.cls-3{fill:#b2e2f9;}.cls-4{fill:#ebf7fd;}.cls-5{fill:#5596b2;}.cls-6{fill:#3e3e3f;}.cls-7{fill:#c5c7c9;}</style></defs><title>rv</title><rect class="cls-1" x="14.05" y="20.04" width="28.28" height="9.14" rx="4.57" ry="4.57"/><path class="cls-2" d="M92.7,52.59H65.45v19H94.72A5.27,5.27,0,0,0,100,66.31V59.78a1.91,1.91,0,0,0-.64-1.42Z"/><polygon class="cls-3" points="92.7 52.59 65.45 52.59 65.45 33.89 85.4 33.89 92.7 52.59"/><polygon class="cls-4" points="75.18 33.89 70.03 33.89 77.33 52.59 82.48 52.59 75.18 33.89"/><path class="cls-5" d="M90.47,24.25H2.74A2.75,2.75,0,0,0,0,27V68.84a2.75,2.75,0,0,0,2.74,2.75H65.45V34.11h25a2.83,2.83,0,0,0,2.82-2.83V27.07A2.82,2.82,0,0,0,90.47,24.25Z"/><rect class="cls-2" x="4.2" y="33.89" width="20.53" height="37.7"/><rect class="cls-3" x="28.74" y="34" width="30.38" height="18.74" rx="4.3" ry="4.3"/><circle class="cls-6" cx="80.51" cy="71.59" r="8.37"/><circle class="cls-7" cx="80.51" cy="71.59" r="2.37"/><polygon class="cls-4" points="40.78 34 35.63 34 42.93 52.7 48.08 52.7 40.78 34"/><circle class="cls-6" cx="7" cy="52.29" r="1.16"/><circle class="cls-6" cx="36.17" cy="71.59" r="8.37"/><circle class="cls-7" cx="36.17" cy="71.59" r="2.37"/></svg>