<svg id="Layer_1" data-name="Layer 1" xmlns="http://www.w3.org/2000/svg" viewBox="0 0 100 100"><defs><style>.cls-1{fill:none;stroke:#e5ead3;stroke-miterlimit:10;stroke-width:8px;}.cls-2{fill:#adc654;}.cls-3{fill:#c5d1a3;}.cls-4{fill:#c5e0a9;}.cls-5{fill:#212121;}</style></defs><title>mold</title><path class="cls-1" d="M47,42.75a19.14,19.14,0,0,0-9.59-16.56,10.38,10.38,0,1,0-19.52-5,9.85,9.85,0,0,0,.31,2.45A9.13,9.13,0,0,0,4,31.21a9,9,0,0,0,4.65,7.88A19.33,19.33,0,1,0,47,42.75Z"/><path class="cls-1" d="M85.94,22.16a8,8,0,1,0-10.71-11A17.51,17.51,0,1,0,86.81,27.56,17.21,17.21,0,0,0,85.94,22.16Z"/><path class="cls-1" d="M62.61,49.53A16.87,16.87,0,0,0,45.68,66.34,16.52,16.52,0,0,0,46.35,71,11.48,11.48,0,1,0,62.47,83.14h.14a16.81,16.81,0,1,0,0-33.62Z"/><ellipse class="cls-1" cx="22.23" cy="74.56" rx="7.91" ry="7.85"/><ellipse class="cls-1" cx="49.17" cy="12.88" rx="4.43" ry="4.4"/><ellipse class="cls-1" cx="90.74" cy="46.6" rx="5.26" ry="5.22"/><ellipse class="cls-2" cx="27.63" cy="42.75" rx="19.34" ry="19.2"/><ellipse class="cls-2" cx="69.13" cy="27.56" rx="17.67" ry="17.54"/><ellipse class="cls-2" cx="28.27" cy="21.23" rx="10.4" ry="10.32"/><ellipse class="cls-2" cx="62.61" cy="66.34" rx="16.93" ry="16.81"/><ellipse class="cls-2" cx="51.06" cy="81.44" rx="11.55" ry="11.46"/><ellipse class="cls-2" cx="22.23" cy="74.56" rx="7.91" ry="7.85"/><ellipse class="cls-2" cx="13.12" cy="31.21" rx="9.12" ry="9.05"/><ellipse class="cls-2" cx="49.17" cy="12.88" rx="4.43" ry="4.4"/><ellipse class="cls-2" cx="90.74" cy="46.6" rx="5.26" ry="5.22"/><ellipse class="cls-2" cx="82.21" cy="15.08" rx="8.05" ry="7.99"/><ellipse class="cls-3" cx="66.09" cy="20.09" rx="3.48" ry="3.46"/><ellipse class="cls-3" cx="66.09" cy="74.56" rx="3.18" ry="3.15"/><ellipse class="cls-3" cx="18.97" cy="52.83" rx="3.32" ry="3.3"/><ellipse class="cls-3" cx="29.04" cy="19.67" rx="3.06" ry="3.03"/><ellipse class="cls-4" cx="35.38" cy="39.33" rx="3.28" ry="3.26"/><ellipse class="cls-3" cx="19.62" cy="33.29" rx="1.75" ry="1.74"/><ellipse class="cls-3" cx="73.6" cy="37.03" rx="3" ry="2.97"/><ellipse class="cls-5" cx="46.17" cy="81.55" rx="3" ry="2.98"/><ellipse class="cls-5" cx="63.5" cy="34.13" rx="2.6" ry="2.58"/><ellipse class="cls-5" cx="75.56" cy="19.23" rx="1.96" ry="1.95"/><ellipse class="cls-5" cx="32.3" cy="54.16" rx="4.03" ry="4"/><ellipse class="cls-5" cx="10.02" cy="29.84" rx="1.73" ry="1.71"/><ellipse class="cls-5" cx="72.26" cy="61.95" rx="4.33" ry="4.3"/></svg>