<svg id="Layer_1" data-name="Layer 1" xmlns="http://www.w3.org/2000/svg" viewBox="0 0 100 100"><defs><style>.cls-1{fill:#ffeac1;}.cls-2{fill:#fd8162;}.cls-3{fill:#fff;}.cls-4{fill:#b2e2f9;}.cls-5{fill:#946660;}.cls-6{fill:#f05c38;}.cls-7{fill:#e0e0e0;}.cls-8{fill:#09a582;}.cls-9{fill:#5a9eba;}.cls-10{fill:none;stroke:#fff;stroke-miterlimit:10;stroke-width:0.93px;}.cls-11{fill:#faaf40;}.cls-12{fill:#ffdb91;}.cls-13{fill:#ebf7fd;}</style></defs><title>bakery</title><rect class="cls-1" x="2.27" y="11.89" width="95.24" height="79.4"/><circle class="cls-2" cx="9.06" cy="40" r="4.57"/><circle class="cls-3" cx="18.2" cy="40" r="4.57" transform="translate(-25.72 41.51) rotate(-67.5)"/><circle class="cls-2" cx="27.35" cy="40" r="4.57" transform="translate(-20.07 49.96) rotate(-67.5)"/><circle class="cls-3" cx="36.5" cy="40" r="4.57"/><circle class="cls-2" cx="45.65" cy="40" r="4.57" transform="translate(-8.78 66.87) rotate(-67.5)"/><circle class="cls-3" cx="54.8" cy="40" r="4.57" transform="matrix(0.38, -0.92, 0.92, 0.38, -3.13, 75.32)"/><circle class="cls-2" cx="63.94" cy="40" r="4.57" transform="matrix(0.38, -0.92, 0.92, 0.38, 2.52, 83.77)"/><circle class="cls-3" cx="73.09" cy="40" r="4.57" transform="matrix(0.38, -0.92, 0.92, 0.38, 8.16, 92.22)"/><circle class="cls-2" cx="82.24" cy="40" r="4.57"/><circle class="cls-3" cx="91.39" cy="40" r="4.57" transform="translate(19.46 109.12) rotate(-67.5)"/><rect class="cls-4" x="47.73" y="49.31" width="41.54" height="27.89"/><path class="cls-5" d="M88,50.54V76H49V50.54H88m2.47-2.47h-44V78.43h44V48.07Z"/><rect class="cls-4" x="17.15" y="49.42" width="23.35" height="40.51"/><path class="cls-5" d="M39.15,50.78V88.59H18.5V50.78H39.15m2.7-2.71h-26V91.29H41.85V48.07Z"/><rect class="cls-2" x="4.48" y="29.93" width="91.48" height="4.07"/><rect class="cls-6" x="4.48" y="33.26" width="9.15" height="6.75"/><rect class="cls-7" x="13.63" y="33.26" width="9.15" height="6.75"/><rect class="cls-6" x="22.78" y="33.26" width="9.15" height="6.75"/><rect class="cls-7" x="31.93" y="33.26" width="9.15" height="6.75"/><rect class="cls-6" x="41.07" y="33.26" width="9.15" height="6.75"/><rect class="cls-7" x="50.22" y="33.26" width="9.15" height="6.75"/><rect class="cls-6" x="59.37" y="33.26" width="9.15" height="6.75"/><rect class="cls-7" x="68.52" y="33.26" width="9.15" height="6.75"/><rect class="cls-6" x="77.66" y="33.26" width="9.15" height="6.75"/><rect class="cls-7" x="86.81" y="33.26" width="9.15" height="6.75"/><path class="cls-8" d="M13,79.19c0-1.73-.89-3.31-2.61-3.31h-.14c-.28-1.41-1.1-2.72-2.48-2.72-1.62,0-3.71,1.24-3.95,2.82a3.72,3.72,0,0,0-.79-.1c-1.73,0-2.61,1.58-2.61,3.31a3.13,3.13,0,0,0,3,3.13H10A3.13,3.13,0,0,0,13,79.19Z"/><rect class="cls-6" x="1.86" y="81.55" width="9.73" height="9.73"/><path class="cls-8" d="M100,79.29c0-1.73-.89-3.31-2.61-3.31h-.14c-.28-1.41-1.1-2.73-2.48-2.73-1.62,0-3.71,1.24-4,2.83A3.17,3.17,0,0,0,90,76c-1.73,0-2.61,1.58-2.61,3.31a3.12,3.12,0,0,0,3,3.12H97A3.12,3.12,0,0,0,100,79.29Z"/><rect class="cls-6" x="88.84" y="81.65" width="9.73" height="9.73"/><rect class="cls-5" x="16.85" y="75.33" width="22.87" height="3.1"/><rect class="cls-9" x="21.93" y="64.43" width="14.42" height="4.71"/><rect class="cls-3" x="21.93" y="63.35" width="14.42" height="4.71"/><line class="cls-10" x1="23.86" y1="64.01" x2="28.83" y2="56.97"/><line class="cls-10" x1="33.79" y1="64.01" x2="28.83" y2="56.97"/><circle class="cls-9" cx="28.83" cy="56.97" r="0.79"/><rect class="cls-6" y="8.62" width="99.37" height="3.27"/><path class="cls-5" d="M69.9,18.54H68.42v-.39c0-2.49-1.63-4.51-3.64-4.51H36.17c-2,0-3.64,2-3.64,4.51v.39H31.06a2.18,2.18,0,0,0-1.92,2.37,2.18,2.18,0,0,0,1.92,2.37h1.47v.39c0,2.49,1.63,4.51,3.64,4.51H64.78c2,0,3.64-2,3.64-4.51v-.39H69.9a2.18,2.18,0,0,0,1.92-2.37A2.18,2.18,0,0,0,69.9,18.54Z"/><path class="cls-11" d="M52.8,15.94h-4a7.27,7.27,0,0,0-7.26,7.26,2.63,2.63,0,0,0,2.62,2.63H57.44a2.62,2.62,0,0,0,2.62-2.63A7.27,7.27,0,0,0,52.8,15.94Z"/><path class="cls-12" d="M46.39,19.42a.55.55,0,0,0,.54.51h0a.53.53,0,0,0,.51-.57c0-.64,0-2.48.71-3.21a1,1,0,0,1,.28-.2,7.45,7.45,0,0,0-1.58.26,5.77,5.77,0,0,0-.43,1.71A9.27,9.27,0,0,0,46.39,19.42Z"/><path class="cls-12" d="M50,15.94a5.35,5.35,0,0,0-.56,2,9.27,9.27,0,0,0-.06,1.5.55.55,0,0,0,.54.51h0a.53.53,0,0,0,.51-.57,6.85,6.85,0,0,1,.4-2.72,2,2,0,0,1,.31-.49,1,1,0,0,1,.3-.21Z"/><path class="cls-12" d="M52.27,19.42a.53.53,0,0,0,.54.51h0a.53.53,0,0,0,.51-.57c0-.68,0-2.67.8-3.29a7.47,7.47,0,0,0-1.26-.13,5,5,0,0,0-.53,1.74A9.19,9.19,0,0,0,52.27,19.42Z"/><polygon class="cls-13" points="71.5 75.96 67.25 75.96 79.25 50.54 83.5 50.54 71.5 75.96"/><polygon class="cls-13" points="64.21 75.96 61.96 75.96 73.96 50.54 76.21 50.54 64.21 75.96"/></svg>