<svg id="Layer_1" data-name="Layer 1" xmlns="http://www.w3.org/2000/svg" viewBox="0 0 100 100"><defs><style>.cls-1{fill:#b2e2f9;}.cls-2{fill:#ffdb91;}.cls-3{fill:#ffc640;}.cls-4{fill:#447d93;}.cls-5{fill:#ebf7fd;}.cls-6{fill:#6ab8d9;}.cls-7{fill:#fff;}.cls-8{fill:#f59495;}.cls-9{fill:#f2797a;}.cls-10{fill:#ab89b1;}.cls-11{fill:#4f8da6;}.cls-12{fill:#f69a85;}.cls-13{fill:#f9bfbf;}.cls-14{fill:#f7d0fe;}.cls-15{fill:#fff1d3;}</style></defs><title>ice cream truck</title><circle class="cls-1" cx="27.93" cy="33.17" r="10.34"/><circle class="cls-1" cx="15.34" cy="35.07" r="10.34"/><circle class="cls-1" cx="10.9" cy="23.71" r="10.34"/><circle class="cls-1" cx="34.76" cy="20.6" r="10.34"/><circle class="cls-1" cx="26.37" cy="15.52" r="10.34"/><circle class="cls-1" cx="14.8" cy="14.64" r="10.34"/><path class="cls-2" d="M2.8,85.92A1.81,1.81,0,0,1,1,84.12V48.6H64V68H92l6.7,5.81a1,1,0,0,1,.33.73v6.85a4.53,4.53,0,0,1-4.53,4.54Z"/><path class="cls-3" d="M63,49.6V69H91.6L98,74.53v6.85a3.54,3.54,0,0,1-3.53,3.54H2.8a.8.8,0,0,1-.8-.8V49.6H63m2-2H0V84.12a2.8,2.8,0,0,0,2.8,2.8H94.47A5.54,5.54,0,0,0,100,81.38V74.53a2,2,0,0,0-.68-1.48l-7-6.06H65V47.6Z"/><rect class="cls-3" x="13.64" y="83.67" width="67.52" height="3.25"/><circle class="cls-4" cx="12.94" cy="86.92" r="8.78"/><circle class="cls-5" cx="12.94" cy="86.92" r="2.48"/><polygon class="cls-1" points="92.34 66.99 63.76 66.99 63.76 47.38 84.69 47.38 92.34 66.99"/><polygon class="cls-5" points="73.97 47.38 68.56 47.38 76.22 66.99 81.62 66.99 73.97 47.38"/><path class="cls-3" d="M2.42,39.38H84.75a2.49,2.49,0,0,1,2.49,2.49v3.24a2.49,2.49,0,0,1-2.49,2.49H0a0,0,0,0,1,0,0V41.81A2.42,2.42,0,0,1,2.42,39.38Z"/><rect class="cls-6" x="7.52" y="48.54" width="48.56" height="22.49" rx="5.31" ry="5.31"/><path class="cls-7" d="M50.76,49.59A4.27,4.27,0,0,1,55,53.85V65.71A4.28,4.28,0,0,1,50.76,70H12.83a4.27,4.27,0,0,1-4.26-4.27V53.85a4.26,4.26,0,0,1,4.26-4.26H50.76m0-2.1H12.83a6.36,6.36,0,0,0-6.36,6.36V65.71a6.37,6.37,0,0,0,6.36,6.37H50.76a6.37,6.37,0,0,0,6.36-6.37V53.85a6.36,6.36,0,0,0-6.36-6.36Z"/><rect class="cls-3" x="62.67" y="47.49" width="2.34" height="39.43"/><rect class="cls-3" x="63.76" y="66.99" width="28.58" height="2.26"/><circle class="cls-4" cx="79.56" cy="86.92" r="8.78"/><circle class="cls-5" cx="79.56" cy="86.92" r="2.48"/><rect class="cls-8" x="3.01" y="44.41" width="57.57" height="3.49"/><rect class="cls-9" x="3.01" y="47.91" width="9.6" height="7.08"/><rect class="cls-7" x="12.6" y="47.91" width="9.6" height="7.08"/><rect class="cls-9" x="22.2" y="47.91" width="9.6" height="7.08"/><rect class="cls-7" x="31.8" y="47.91" width="9.6" height="7.08"/><rect class="cls-9" x="41.39" y="47.91" width="9.6" height="7.08"/><rect class="cls-7" x="50.99" y="47.91" width="9.6" height="7.08"/><path class="cls-8" d="M7.81,59.78A4.79,4.79,0,0,0,12.6,55H3A4.8,4.8,0,0,0,7.81,59.78Z"/><path class="cls-7" d="M17.4,59.78A4.8,4.8,0,0,0,22.2,55H12.6A4.8,4.8,0,0,0,17.4,59.78Z"/><path class="cls-8" d="M27,59.78A4.8,4.8,0,0,0,31.8,55H22.2A4.8,4.8,0,0,0,27,59.78Z"/><path class="cls-7" d="M36.59,59.78a4.8,4.8,0,0,0,4.8-4.8H31.8A4.79,4.79,0,0,0,36.59,59.78Z"/><path class="cls-8" d="M46.19,59.78A4.8,4.8,0,0,0,51,55h-9.6A4.8,4.8,0,0,0,46.19,59.78Z"/><path class="cls-7" d="M55.78,59.78a4.8,4.8,0,0,0,4.8-4.8H51A4.79,4.79,0,0,0,55.78,59.78Z"/><circle class="cls-2" cx="16.65" cy="13.84" r="5.33"/><circle class="cls-10" cx="25.34" cy="17.94" r="8.65"/><polygon class="cls-7" points="25.14 29.48 26.83 25.49 26.37 25.49 15.64 32.6 16.7 35.07 25.14 29.48"/><polygon class="cls-11" points="25.14 29.48 16.7 35.07 17.74 37.51 23.28 33.84 25.14 29.48"/><polygon class="cls-7" points="17.74 37.51 18.29 38.8 22.3 36.15 23.28 33.84 17.74 37.51"/><polygon class="cls-11" points="19.72 42.18 22.3 36.15 18.29 38.8 19.72 42.18"/><polygon class="cls-11" points="26.37 25.49 12.62 25.49 15.64 32.6 26.37 25.49"/><circle class="cls-12" cx="14.29" cy="22.15" r="7.69"/><path class="cls-10" d="M21.24,25.46h2.88a0,0,0,0,1,0,0v4a1.44,1.44,0,0,1-1.44,1.44h0a1.44,1.44,0,0,1-1.44-1.44v-4A0,0,0,0,1,21.24,25.46Z"/><circle class="cls-13" cx="11.5" cy="20.6" r="2.23"/><circle class="cls-14" cx="29.61" cy="14.64" r="1.67"/><circle class="cls-15" cx="14.55" cy="12.03" r="1.35"/></svg>