<svg id="Layer_1" data-name="Layer 1" xmlns="http://www.w3.org/2000/svg" viewBox="0 0 100 100"><defs><style>.cls-1{fill:#60a8c6;}.cls-2{fill:#aa8a69;}.cls-3{fill:#e6e7e8;}.cls-4{fill:#e6b43b;}.cls-5{fill:#ffc540;}.cls-6{fill:#6ab8d9;}.cls-7{fill:#bf9b77;}.cls-8{fill:#fff;}.cls-9{fill:#ffc640;}.cls-10{fill:#f37d3b;}.cls-11{fill:#d76f34;}.cls-12{fill:#6d4945;}.cls-13{fill:#069274;}.cls-14{fill:#09a582;}.cls-15{fill:#089a7a;}</style></defs><title>gardener</title><rect class="cls-1" x="19.91" y="60.04" width="16.49" height="18.53" transform="translate(97.45 41.15) rotate(90)"/><rect class="cls-2" x="45.77" y="56.64" width="4.84" height="13.69" rx="1.06" ry="1.06" transform="translate(111.67 15.29) rotate(90)"/><rect class="cls-2" x="45.77" y="62.46" width="4.84" height="13.69" rx="1.06" ry="1.06" transform="translate(117.49 21.12) rotate(90)"/><rect class="cls-2" x="45.77" y="68.28" width="4.84" height="13.69" rx="1.06" ry="1.06" transform="translate(123.31 26.94) rotate(90)"/><rect class="cls-2" x="27.33" y="60.04" width="16.49" height="18.53" transform="translate(104.87 33.74) rotate(90)"/><circle class="cls-3" cx="22.47" cy="62.92" r="0.73"/><circle class="cls-3" cx="22.47" cy="64.99" r="0.73"/><circle class="cls-3" cx="23.5" cy="63.95" r="0.73"/><circle class="cls-3" cx="21.43" cy="63.95" r="0.73"/><circle class="cls-4" cx="22.47" cy="63.95" r="0.73"/><circle class="cls-3" cx="22.47" cy="68.37" r="0.73"/><circle class="cls-3" cx="22.47" cy="70.44" r="0.73"/><circle class="cls-3" cx="23.5" cy="69.41" r="0.73"/><circle class="cls-3" cx="21.43" cy="69.41" r="0.73"/><circle class="cls-4" cx="22.47" cy="69.41" r="0.73"/><circle class="cls-3" cx="22.47" cy="73.83" r="0.73"/><circle class="cls-3" cx="22.47" cy="75.9" r="0.73"/><circle class="cls-3" cx="23.5" cy="74.86" r="0.73"/><circle class="cls-3" cx="21.43" cy="74.86" r="0.73"/><circle class="cls-4" cx="22.47" cy="74.86" r="0.73"/><rect class="cls-2" x="26.61" y="56.8" width="11.71" height="5.78" rx="1.13" ry="1.13" transform="translate(-32.7 40.44) rotate(-45)"/><ellipse class="cls-5" cx="36.6" cy="30.54" rx="40" ry="8.7" transform="translate(-9.35 17.87) rotate(-24.42)"/><ellipse class="cls-5" cx="33.34" cy="23.36" rx="18.26" ry="11.47" transform="translate(-6.68 15.88) rotate(-24.42)"/><rect class="cls-5" x="7.1" y="33.48" width="1.99" height="8.24" rx="0.43" ry="0.43" transform="translate(-26.32 20.45) rotate(-51.36)"/><rect class="cls-5" x="21.04" y="15.1" width="1.99" height="8.24" rx="0.43" ry="0.43" transform="matrix(0.62, -0.78, 0.78, 0.62, -6.74, 24.43)"/><rect class="cls-5" x="23.74" y="11.73" width="1.99" height="8.24" rx="0.43" ry="0.43" transform="translate(-3.69 8.43) rotate(-18.02)"/><rect class="cls-5" x="51.97" y="13.1" width="1.99" height="8.24" rx="0.43" ry="0.43" transform="translate(-2.73 17.23) rotate(-18.02)"/><rect class="cls-5" x="61.62" y="7.08" width="1.99" height="8.24" rx="0.43" ry="0.43" transform="translate(13.99 -29.81) rotate(30)"/><rect class="cls-6" x="3.77" y="68.95" width="16.49" height="18.53" transform="translate(90.23 66.2) rotate(90)"/><rect class="cls-7" x="29.63" y="65.55" width="4.84" height="13.69" rx="1.06" ry="1.06" transform="translate(104.45 40.34) rotate(90)"/><rect class="cls-7" x="29.63" y="71.37" width="4.84" height="13.69" rx="1.06" ry="1.06" transform="translate(110.27 46.16) rotate(90)"/><rect class="cls-7" x="29.63" y="77.19" width="4.84" height="13.69" rx="1.06" ry="1.06" transform="translate(116.09 51.98) rotate(90)"/><rect class="cls-7" x="11.19" y="68.95" width="16.49" height="18.53" transform="translate(97.65 58.78) rotate(90)"/><circle class="cls-8" cx="6.33" cy="71.83" r="0.73"/><circle class="cls-8" cx="6.33" cy="73.9" r="0.73"/><circle class="cls-8" cx="7.37" cy="72.86" r="0.73"/><circle class="cls-8" cx="5.3" cy="72.86" r="0.73"/><circle class="cls-9" cx="6.33" cy="72.86" r="0.73"/><circle class="cls-8" cx="6.33" cy="77.28" r="0.73"/><circle class="cls-8" cx="6.33" cy="79.36" r="0.73"/><circle class="cls-8" cx="7.37" cy="78.32" r="0.73"/><circle class="cls-8" cx="5.3" cy="78.32" r="0.73"/><circle class="cls-9" cx="6.33" cy="78.32" r="0.73"/><circle class="cls-8" cx="6.33" cy="82.74" r="0.73"/><circle class="cls-8" cx="6.33" cy="84.81" r="0.73"/><circle class="cls-8" cx="7.37" cy="83.78" r="0.73"/><circle class="cls-8" cx="5.3" cy="83.78" r="0.73"/><circle class="cls-9" cx="6.33" cy="83.78" r="0.73"/><rect class="cls-7" x="10.48" y="65.71" width="11.71" height="5.78" rx="1.13" ry="1.13" transform="translate(-43.72 31.64) rotate(-45)"/><rect class="cls-10" x="85.54" y="24.8" width="5.4" height="11.7" rx="1.18" ry="1.18"/><path class="cls-10" d="M98.15,26.93c0,5.5-4.46.78-10,.78s-10,4.72-10-.78S82.69.49,88.19.49,98.15,21.43,98.15,26.93Z"/><rect class="cls-11" x="86.59" y="13.24" width="3.15" height="14.09" rx="0.69" ry="0.69"/><rect class="cls-12" x="83.77" y="32.01" width="8.98" height="22.47" rx="1.96" ry="1.96"/><path class="cls-13" d="M72.44,99.51c-3.71-4.65-.65-21.11-.29-23l2.84.55C73.73,83.62,72.54,95,74.7,97.71Z"/><path class="cls-13" d="M77.78,92.15a25,25,0,0,1-6.17-.76L72,90c.09,0,8.09,2.2,14.24-1.29A13.61,13.61,0,0,0,92.59,80l1.4.39a15.05,15.05,0,0,1-7,9.59A18.7,18.7,0,0,1,77.78,92.15Z"/><path class="cls-14" d="M100,78.63h0s-1.57-.11-3.7-.11a48.84,48.84,0,0,0-5.25.29c-2.14.26-4.13.72-5.22,1.58a7.37,7.37,0,0,0-1.24,10.35l.06.07,10.4-1.08Z"/><path class="cls-15" d="M96.3,78.51a48.84,48.84,0,0,0-5.25.29v6.92l5.25-4.16Z"/><path class="cls-13" d="M84.65,90.8A7.36,7.36,0,0,0,94.94,92c3.19-2.5,5-13.2,5.06-13.34Z"/><path class="cls-14" d="M78.82,67.12l-6-20.94s-3.29,3.65-6.67,8.27c-1.08,1.48-2.16,3-3.16,4.64-.62,1-1.2,2-1.72,3-1.41,2.65-2.37,5.18-2.37,7.19A14,14,0,0,0,72.82,83.17Z"/><path class="cls-15" d="M72.82,68.91,63,59.09c-.62,1-1.2,2-1.72,3L72.82,73.62Z"/><path class="cls-15" d="M72.82,46.18s-3.29,3.65-6.67,8.27l6.67,6.67Z"/><path class="cls-13" d="M86.73,69.26c0-7.69-13.91-23.08-13.91-23.08v37A13.91,13.91,0,0,0,86.73,69.26Z"/></svg>