<svg id="Layer_1" data-name="Layer 1" xmlns="http://www.w3.org/2000/svg" viewBox="0 0 100 100"><defs><style>.cls-1{fill:#7d7d7d;}.cls-2{fill:#b3b3b3;}</style></defs><title>tool</title><path class="cls-1" d="M100,26.27,96.74,15,84.05,28.05l-9.3-2.33L72.13,16.5,84.79,3.44,73.32.6,58.49,16l2.75,9.51a8.6,8.6,0,0,0-.64.58L25.69,61,14.82,58.32,0,73.73,3.26,85,16,72l9.3,2.33,2.62,9.22L15.21,96.56,26.68,99.4,41.51,84,38.6,73.93,73.51,39a1.37,1.37,0,0,0,.16-.18l11.51,2.85Zm-63.33,41a3.19,3.19,0,0,1-2,.68,3.26,3.26,0,0,1-3.25-3.25,3.3,3.3,0,0,1,3.25-3.24,3.23,3.23,0,0,1,2,5.81Z"/><rect class="cls-2" x="33.68" y="44.86" width="36.43" height="5.65" rx="1.31" ry="1.31" transform="translate(-18.52 50.66) rotate(-45)"/></svg>