<svg id="Layer_1" data-name="Layer 1" xmlns="http://www.w3.org/2000/svg" viewBox="0 0 100 100"><defs><style>.cls-1{fill:#6ab8d9;}.cls-2{fill:#ffc640;}</style></defs><title>supernova</title><polygon class="cls-1" points="46.51 42.14 49.66 95.08 50 40.04 46.51 42.14"/><polygon class="cls-1" points="36.1 52.25 15.38 92.73 45.9 64.97 36.1 52.25"/><path class="cls-1" d="M50,41.16c-27.61,0-50,5-50,11.09S22.39,63.34,50,63.34s50-5,50-11.09S77.61,41.16,50,41.16Zm0,19.27c-25.24,0-45.7-4.1-45.7-9.16S24.76,42.11,50,42.11s45.7,4.1,45.7,9.16S75.24,60.43,50,60.43Z"/><circle class="cls-1" cx="51.33" cy="50.93" r="21.91"/><path class="cls-2" d="M41.62,31.23a18.9,18.9,0,0,0,.64-6.68A21.9,21.9,0,0,0,22,46.38,21.56,21.56,0,0,0,22.3,50a79.38,79.38,0,0,0,8.07-4.84C35.72,41.42,40,37,41.62,31.23Z"/><path class="cls-2" d="M38,63.72A19.29,19.29,0,0,0,30,53.3,77.31,77.31,0,0,1,22,58.15,21.92,21.92,0,0,0,39.46,76,34.89,34.89,0,0,0,38,63.72Z"/><path class="cls-2" d="M64.06,38.26c2.55.27,5.16.37,7.71.45A21.9,21.9,0,0,0,51.92,26c-.55,0-1.09,0-1.62.08a19.13,19.13,0,0,1-.64,6.68C53.58,36.35,58.71,37.69,64.06,38.26Z"/><path class="cls-2" d="M95.48,28.35a21.73,21.73,0,0,0-6.55-3.79c-1.86,1.75-3.77,3.52-5.77,5.13a34.74,34.74,0,0,0,5.47,4.39A24.83,24.83,0,0,1,95.48,28.35Z"/><path class="cls-2" d="M74.59,57.59a46.28,46.28,0,0,0,5.68,14.26A21.73,21.73,0,0,0,83.6,60.28c0-.64,0-1.27-.11-1.9A24.94,24.94,0,0,0,74.59,57.59Z"/><path class="cls-2" d="M44.6,58.77a34.91,34.91,0,0,1,1.48,12.32,21.83,21.83,0,0,0,22.67-10,46.28,46.28,0,0,1-5.68-14.26C55,47.59,47.31,52,44.6,58.77Z"/><polygon class="cls-1" points="54.17 41.2 86.6 4.92 63.32 44.41 54.17 41.2"/><polygon class="cls-1" points="37.48 48.95 14.24 10.68 48.67 37.28 37.48 48.95"/><path class="cls-2" d="M45.32,5.55A21.91,21.91,0,0,0,38,7.5c-.08,2.55-.18,5.16-.46,7.71a35.35,35.35,0,0,0,7-.76A24.52,24.52,0,0,1,45.32,5.55Z"/><path class="cls-2" d="M45.32,46.1A21.9,21.9,0,0,0,38,48c-.08,2.56-.18,5.16-.46,7.72a36.92,36.92,0,0,0,7-.76A24.52,24.52,0,0,1,45.32,46.1Z"/><path class="cls-2" d="M75.69,83c-6.74.16-13.15.62-19,1.35a20.36,20.36,0,0,1-1.19,5.36c6.16,0,12.2-.21,18.13-.53C72.94,87.07,73.56,85,75.69,83Z"/></svg>