<svg id="Layer_1" data-name="Layer 1" xmlns="http://www.w3.org/2000/svg" viewBox="0 0 100 100"><defs><style>.cls-1{fill:#ffc640;}.cls-2{fill:#cda134;}.cls-3{fill:#fff;}.cls-4{fill:#231f20;}</style></defs><title>doge</title><path class="cls-1" d="M69.65,11.85c-2,4.74-.86,9.81,2.64,11.32s8-1.12,10-5.87S85.69,1.68,82.19.18,71.69,7.1,69.65,11.85Z"/><path class="cls-2" d="M73.16,13.72c-1.6,3.72-1.48,7.34.27,8.09s4.47-1.64,6.07-5.36S82.93,4.57,81.18,3.82,74.75,10,73.16,13.72Z"/><rect class="cls-1" x="14.03" y="7.14" width="71.93" height="92.86" rx="13.91" ry="13.91"/><path class="cls-3" d="M84.7,32.28A7.69,7.69,0,0,0,86,47.56V41.34A33.89,33.89,0,0,0,84.7,32.28Z"/><ellipse class="cls-2" cx="68.91" cy="60.3" rx="14.22" ry="4.68"/><ellipse class="cls-3" cx="53.54" cy="53.4" rx="18.41" ry="11.58"/><circle class="cls-2" cx="61.7" cy="49.39" r="0.98"/><circle class="cls-2" cx="56.06" cy="49.39" r="0.98"/><circle class="cls-2" cx="58.91" cy="52.59" r="0.98"/><circle class="cls-2" cx="52.73" cy="52.59" r="0.98"/><path class="cls-3" d="M70.93,53.4c0,5.67,6.48,10.38,15,11.37V42C77.41,43,70.93,47.73,70.93,53.4Z"/><path class="cls-4" d="M77.76,45.26c0,3.41-6.17,6.18-6.17,6.18s-6.18-2.77-6.18-6.18,2.76-3.44,6.18-3.44S77.76,41.85,77.76,45.26Z"/><circle class="cls-4" cx="83.58" cy="38.17" r="1.69"/><circle class="cls-3" cx="43.46" cy="39.86" r="7.7"/><circle class="cls-4" cx="42.16" cy="38.17" r="1.69"/><path class="cls-1" d="M29.23,11.85c2,4.74.85,9.81-2.65,11.32s-8-1.12-10-5.87S13.19,1.68,16.69.18,27.18,7.1,29.23,11.85Z"/><path class="cls-2" d="M25.72,13.72c1.6,3.72,1.47,7.34-.28,8.09S21,20.17,19.38,16.45,16,4.57,17.7,3.82,24.12,10,25.72,13.72Z"/></svg>