<svg id="Layer_1" data-name="Layer 1" xmlns="http://www.w3.org/2000/svg" viewBox="0 0 100 100"><defs><style>.cls-1{fill:#ffc540;}.cls-2{fill:#f89b3f;}</style></defs><title>the one ring</title><path class="cls-1" d="M31.13,31.13C5.57,56.7-6.71,85.87,3.71,96.29S43.3,94.43,68.87,68.87,106.71,14.13,96.29,3.71,56.7,5.57,31.13,31.13Zm15.8,15.8C31.74,62.13,17.47,72.49,15.06,70.09s8-16.68,23.16-31.87S67.68,12.66,70.09,15.06,62.13,31.74,46.93,46.93Z"/><path class="cls-2" d="M18.38,95.77a2.5,2.5,0,0,1-3.78-3.26h0c0-.06,4-5.41,1.13-8.24-2.16-2.15-1.89-3.8-1.28-4.81s1.82-3,11.52,0a2.5,2.5,0,0,1-1.47,4.78c-1.15-.35-2.36-.67-3.44-.91,1.92,4.35-.42,9.47-2.45,12.18A2,2,0,0,1,18.38,95.77Z"/><circle class="cls-2" cx="32.17" cy="85.16" r="2.56"/><circle class="cls-2" cx="56.31" cy="45.61" r="2.56"/><circle class="cls-2" cx="84.03" cy="25.13" r="2.56"/><circle class="cls-2" cx="85.86" cy="15.24" r="2.56"/><path class="cls-2" d="M41.45,86.12a2.5,2.5,0,0,1-4-2.82,11.69,11.69,0,0,0-4.17-14.13,2.5,2.5,0,1,1,3-4A16.62,16.62,0,0,1,42,85.41,2.59,2.59,0,0,1,41.45,86.12Z"/><path class="cls-2" d="M50.1,79.52a2.5,2.5,0,0,1-4-2.82,11.68,11.68,0,0,0-4.18-14.13,2.5,2.5,0,1,1,3-4,16.62,16.62,0,0,1,5.7,20.23A2.59,2.59,0,0,1,50.1,79.52Z"/><path class="cls-2" d="M61.79,67.83a2.58,2.58,0,0,1-1.28.69,2.5,2.5,0,0,1-2.94-2l-1.85-9.21a2.51,2.51,0,0,1,.53-2.09,2.47,2.47,0,0,1,2-.9l2.66,0-2.33-2.33a2.5,2.5,0,1,1,3.54-3.53l6.71,6.7A2.5,2.5,0,0,1,67,59.5l-5.74-.1,1.23,6.17A2.5,2.5,0,0,1,61.79,67.83Z"/><path class="cls-2" d="M74.27,52.15a2.5,2.5,0,0,1-4.14-2.57c0-.08,1-3.06-.28-5.22a5.83,5.83,0,0,0-4.12-2.44l-.12,0a2.5,2.5,0,0,1,1-4.91l.09,0c3.21.61,7,.54,7.68-.16h0c.39-1.9-1.32-6-2.66-8.28A2.5,2.5,0,1,1,76,26c.44.73,4.24,7.29,3.2,12-.53,2.45-2.51,3.63-4.83,4.13,2.16,4,.7,8.55.52,9.06A2.39,2.39,0,0,1,74.27,52.15Z"/><path class="cls-2" d="M38.22,38.22C53.41,23,67.68,12.66,70.09,15.06a1.26,1.26,0,0,1,.25.49,4.27,4.27,0,0,0-.86-1.35C64.66,9.38,48.4,17.84,33.16,33.08S9.46,64.59,14.27,69.4a3.48,3.48,0,0,0,.7.51C13.07,67.13,23.3,53.13,38.22,38.22Z"/></svg>