<svg id="Layer_1" data-name="Layer 1" xmlns="http://www.w3.org/2000/svg" viewBox="0 0 100 100"><defs><style>.cls-1{fill:#6d4945;}.cls-2{fill:#079676;}.cls-3{fill:#da7135;}.cls-4{fill:#09a582;}.cls-5{fill:#f37d3b;}.cls-6{fill:#3e3e3f;}.cls-7{fill:#ffc640;}.cls-8{fill:#7d7d7d;}</style></defs><title>ninja turtle</title><rect class="cls-1" x="28.62" y="23.85" width="43.5" height="55.43" rx="10.1" ry="10.1"/><rect class="cls-2" x="10.89" y="37.34" width="78.3" height="10.17" rx="2.36" ry="2.36"/><rect class="cls-2" x="1.19" y="55.76" width="78.3" height="10.17" rx="2.36" ry="2.36" transform="translate(101.19 20.51) rotate(90)"/><rect class="cls-2" x="21.94" y="55.76" width="78.3" height="10.17" rx="2.36" ry="2.36" transform="translate(121.94 -0.24) rotate(90)"/><rect class="cls-2" x="32.43" y="27.45" width="35.55" height="54.7" rx="8.25" ry="8.25"/><path class="cls-3" d="M39.22,9a16,16,0,0,1-6.78,4.44,22,22,0,0,1-9.78,1.3,17.3,17.3,0,0,1-3.28-.7,11.65,11.65,0,0,1-3.52-1.9,7.18,7.18,0,0,1-2.13-2.89l-.19-.69A3.18,3.18,0,0,1,13.43,8l0-.8c0-1.05-.05-2.12-.14-3.13A8.72,8.72,0,0,0,13,2.64,1.61,1.61,0,0,0,12.71,2a1.36,1.36,0,0,0-.92-.44A1.38,1.38,0,0,1,13,1.12a4.54,4.54,0,0,1,1.58.44,9.32,9.32,0,0,1,2.31,1.6,16.21,16.21,0,0,1,2.8,3.6l.5.91a.7.7,0,0,0,.19.27l.14.17c.23.14.32.18.4.15s.17,0,.46.07a7.19,7.19,0,0,0,1.14.17A70,70,0,0,0,30,8.64,71.87,71.87,0,0,1,39.22,9Z"/><path class="cls-3" d="M31.19,14.53a8.47,8.47,0,0,1-1,3.74,7.69,7.69,0,0,1-1.86,2.31,9.18,9.18,0,0,1-2.57,1.47,36.5,36.5,0,0,0-3.9,1.56,4.47,4.47,0,0,1-2-4.37,5.24,5.24,0,0,1,2-3.34,8.25,8.25,0,0,1,3.85-1.71A11.59,11.59,0,0,1,31.19,14.53Z"/><rect class="cls-4" x="29.74" width="40.61" height="26.26" rx="6.1" ry="6.1"/><rect class="cls-4" x="25.18" y="13.13" width="50.06" height="21.44" rx="4.98" ry="4.98"/><path class="cls-5" d="M70.92,13.13A12.81,12.81,0,0,0,69.11,6.6h-38a12.81,12.81,0,0,0-1.81,6.53,12.64,12.64,0,0,0,.12,1.63H70.8A12.64,12.64,0,0,0,70.92,13.13Z"/><circle class="cls-6" cx="37.92" cy="10.95" r="1.41"/><circle class="cls-6" cx="62.51" cy="10.95" r="1.41"/><rect class="cls-7" x="37" y="38.94" width="15.35" height="13.97" rx="3.24" ry="3.24"/><rect class="cls-7" x="47.81" y="38.94" width="15.35" height="13.97" rx="3.24" ry="3.24"/><rect class="cls-7" x="37" y="48.94" width="15.35" height="13.97" rx="3.24" ry="3.24"/><rect class="cls-7" x="47.81" y="48.94" width="15.35" height="13.97" rx="3.24" ry="3.24"/><rect class="cls-7" x="37" y="58.95" width="15.35" height="13.97" rx="3.24" ry="3.24"/><rect class="cls-7" x="47.81" y="58.95" width="15.35" height="13.97" rx="3.24" ry="3.24"/><rect class="cls-7" x="42.54" y="65.31" width="15.35" height="13.97" rx="3.24" ry="3.24"/><rect class="cls-1" x="31.89" y="56.52" width="37.27" height="7.54"/><rect class="cls-1" x="72.12" y="36.2" width="3.77" height="12.35" rx="0.88" ry="0.88"/><rect class="cls-1" x="75.24" y="36.2" width="3.77" height="12.35" rx="0.88" ry="0.88"/><rect class="cls-1" x="21.73" y="36.2" width="3.77" height="12.35" rx="0.88" ry="0.88"/><rect class="cls-1" x="24.85" y="36.2" width="3.77" height="12.35" rx="0.88" ry="0.88"/><circle class="cls-1" cx="50.11" cy="60.37" r="5.57"/><rect class="cls-3" x="85.83" y="32.3" width="4.64" height="11.76" rx="1.08" ry="1.08"/><rect class="cls-8" x="86.64" y="10.84" width="3.26" height="21.89" rx="0.76" ry="0.76"/><rect class="cls-8" x="79.73" y="22.24" width="3.26" height="10.49" rx="0.76" ry="0.76"/><rect class="cls-8" x="86.53" y="22.74" width="3.26" height="16.72" rx="0.76" ry="0.76" transform="translate(119.25 -57.06) rotate(90)"/><rect class="cls-8" x="93.44" y="22.24" width="3.26" height="10.49" rx="0.76" ry="0.76"/><rect class="cls-3" x="9.41" y="32.3" width="4.64" height="11.76" rx="1.08" ry="1.08"/><rect class="cls-8" x="10.22" y="10.84" width="3.26" height="21.89" rx="0.76" ry="0.76"/><rect class="cls-8" x="3.3" y="22.24" width="3.26" height="10.49" rx="0.76" ry="0.76"/><rect class="cls-8" x="10.1" y="22.74" width="3.26" height="16.72" rx="0.76" ry="0.76" transform="translate(42.83 19.37) rotate(90)"/><rect class="cls-8" x="17.02" y="22.24" width="3.26" height="10.49" rx="0.76" ry="0.76"/><rect class="cls-2" x="30.69" y="24.31" width="38.81" height="1.31" rx="0.31" ry="0.31"/><circle class="cls-2" cx="44.69" cy="18.25" r="0.97"/><circle class="cls-2" cx="55.48" cy="18.25" r="0.97"/></svg>