<svg id="Layer_1" data-name="Layer 1" xmlns="http://www.w3.org/2000/svg" xmlns:xlink="http://www.w3.org/1999/xlink" viewBox="0 0 100 100"><defs><style>.cls-1{fill:none;}.cls-2{fill:#7b544f;}.cls-3{fill:#e4ae90;}.cls-4{fill:#946660;}.cls-5{fill:#fff;}.cls-6{clip-path:url(#clip-path);}</style><clipPath id="clip-path"><path class="cls-1" d="M76.59,34.31h-19a18.49,18.49,0,1,0-19,0h-19a8.54,8.54,0,0,0-8.66,8.06,8.31,8.31,0,0,0,8.31,8.57h6.9a5.36,5.36,0,0,1,5.36,5.36h0A71.29,71.29,0,0,1,25.6,84.69L24.14,88A8.55,8.55,0,0,0,28.07,99.2,8.32,8.32,0,0,0,39.25,95L47,77.14a1.17,1.17,0,0,1,2.15,0L56.8,94.68a8.55,8.55,0,0,0,10.85,4.73,8.32,8.32,0,0,0,4.54-11l-1.6-3.67A71.12,71.12,0,0,1,64.68,56.3h0A5.36,5.36,0,0,1,70,50.94h6.9a8.31,8.31,0,0,0,8.31-8.57A8.54,8.54,0,0,0,76.59,34.31Z"/></clipPath></defs><title>gingerbread man</title><path class="cls-2" d="M80.4,34.31h-19a18.49,18.49,0,1,0-19,0h-19a8.54,8.54,0,0,0-8.66,8.06,8.31,8.31,0,0,0,8.31,8.57H30a5.36,5.36,0,0,1,5.36,5.36h0a71.12,71.12,0,0,1-5.91,28.39L28,88A8.55,8.55,0,0,0,31.88,99.2,8.32,8.32,0,0,0,43.06,95l7.77-17.86a1.17,1.17,0,0,1,2.15,0l7.63,17.54a8.55,8.55,0,0,0,10.85,4.73,8.32,8.32,0,0,0,4.54-11l-1.6-3.67A71.29,71.29,0,0,1,68.49,56.3h0a5.36,5.36,0,0,1,5.36-5.36h6.9a8.31,8.31,0,0,0,8.31-8.57A8.54,8.54,0,0,0,80.4,34.31Z"/><path class="cls-3" d="M76.59,34.31h-19a18.49,18.49,0,1,0-19,0h-19a8.54,8.54,0,0,0-8.66,8.06,8.31,8.31,0,0,0,8.31,8.57h6.9a5.36,5.36,0,0,1,5.36,5.36h0A71.29,71.29,0,0,1,25.6,84.69L24.14,88A8.55,8.55,0,0,0,28.07,99.2,8.32,8.32,0,0,0,39.25,95L47,77.14a1.17,1.17,0,0,1,2.15,0L56.8,94.68a8.55,8.55,0,0,0,10.85,4.73,8.32,8.32,0,0,0,4.54-11l-1.6-3.67A71.12,71.12,0,0,1,64.68,56.3h0A5.36,5.36,0,0,1,70,50.94h6.9a8.31,8.31,0,0,0,8.31-8.57A8.54,8.54,0,0,0,76.59,34.31Z"/><circle class="cls-4" cx="31.17" cy="80.28" r="1.7"/><circle class="cls-4" cx="61.11" cy="71.38" r="2.18"/><circle class="cls-5" cx="39.41" cy="13.66" r="2.27"/><circle class="cls-5" cx="56.66" cy="13.66" r="2.27"/><path class="cls-5" d="M48.33,28.45h-.14c-5.76-.08-9.85-4.91-10-5.11a.94.94,0,0,1,1.45-1.21s3.72,4.38,8.61,4.44c2.94.08,5.73-1.47,8.36-4.46A.94.94,0,0,1,58,23.36C55,26.74,51.77,28.45,48.33,28.45Z"/><circle class="cls-5" cx="48.94" cy="41.41" r="4.21"/><circle class="cls-5" cx="48.94" cy="53.04" r="4.01"/><circle class="cls-5" cx="48.94" cy="64.46" r="4.01"/><g class="cls-6"><path class="cls-5" d="M17.85,57.54a16.85,16.85,0,0,1-3.91-.45l.56-2.16c.07,0,6.86,1.71,10-2.29,1.71-2.2.63-4.74-.62-7.69-1-2.29-2-4.65-1.7-7.09.64-5.68,6.26-9.1,6.5-9.25l1.15,1.92c-.05,0-4.92,3-5.43,7.58-.21,1.86.64,3.85,1.53,6,1.33,3.14,2.84,6.7.33,9.93C24,56.89,20.53,57.54,17.85,57.54Z"/><path class="cls-5" d="M12.84,56.14a16.76,16.76,0,0,1-3.91-.45l.56-2.15c.07,0,6.86,1.7,10-2.29,1.71-2.2.63-4.75-.62-7.7-1-2.28-2-4.65-1.7-7.09.63-5.68,6.26-9.1,6.5-9.25l1.15,1.92c-.05,0-4.92,3-5.43,7.58-.21,1.86.64,3.86,1.53,6,1.33,3.14,2.84,6.7.33,9.94C19,55.49,15.52,56.14,12.84,56.14Z"/><path class="cls-5" d="M70.6,55.71l-1.3-1.8s4.65-3.43,4.77-8c.05-1.87-1-3.79-2-5.82-1.59-3-3.4-6.44-1.16-9.87,3.56-5.48,11.64-4.16,12-4.11l-.37,2.2c-.07,0-7-1.12-9.74,3.13C71.23,33.75,72.52,36.2,74,39c1.16,2.2,2.36,4.47,2.29,6.92C76.15,51.66,70.83,55.55,70.6,55.71Z"/><path class="cls-5" d="M75.72,56.68l-1.31-1.8s4.65-3.43,4.77-8c0-1.87-1-3.79-2-5.82-1.59-3-3.39-6.43-1.16-9.87,3.57-5.48,11.64-4.16,12-4.11l-.37,2.2c-.07,0-7-1.12-9.74,3.13-1.52,2.33-.23,4.78,1.26,7.61,1.16,2.2,2.36,4.47,2.29,6.92C81.26,52.63,75.94,56.52,75.72,56.68Z"/><path class="cls-5" d="M58.3,99.41a6.33,6.33,0,0,1-1.4-.16c-6.39-1.36-8.06-9.37-8.13-9.71L51,89.1c0,.07,1.46,6.91,6.41,8,2.72.58,4.54-1.5,6.65-3.91,1.64-1.86,3.33-3.8,5.64-4.61,5.39-1.9,10.93,1.67,11.16,1.82L79.6,92.24s-4.86-3.12-9.19-1.59c-1.77.62-3.2,2.26-4.71,4C63.73,96.89,61.52,99.41,58.3,99.41Z"/><path class="cls-5" d="M57.38,94.29A6.42,6.42,0,0,1,56,94.13c-6.39-1.36-8-9.37-8.12-9.71L50,84c0,.07,1.45,6.91,6.4,8,2.73.58,4.55-1.5,6.66-3.9,1.63-1.87,3.32-3.8,5.64-4.62,5.39-1.9,10.92,1.67,11.15,1.82l-1.22,1.87S73.81,84,69.48,85.53c-1.76.62-3.19,2.26-4.7,4C62.8,91.77,60.6,94.29,57.38,94.29Z"/><path class="cls-5" d="M43.69,97.12c0-.05-2.43-5.23-6.9-6.26-1.82-.43-3.91.19-6.11.83-3.27,1-7,2-9.91-.82C16.11,86.29,19,78.63,19.13,78.31l2.08.81c0,.06-2.48,6.61,1.13,10.16,2,2,4.64,1.17,7.71.27,2.38-.7,4.85-1.42,7.24-.87C42.85,90,45.61,96,45.72,96.21Z"/><path class="cls-5" d="M45.66,92.31S43.23,87.07,38.75,86c-1.82-.42-3.9.19-6.1.84-3.28,1-7,2.05-9.91-.83C18.08,81.47,21,73.82,21.1,73.49l2.08.81c0,.06-2.49,6.61,1.12,10.16,2,2,4.64,1.18,7.72.28,2.38-.7,4.84-1.43,7.23-.87,5.57,1.28,8.33,7.27,8.44,7.52Z"/></g><circle class="cls-4" cx="30.96" cy="39.46" r="1.49"/><circle class="cls-4" cx="69.48" cy="45.62" r="1.67"/></svg>