<svg id="Layer_1" data-name="Layer 1" xmlns="http://www.w3.org/2000/svg" viewBox="0 0 100 100"><defs><style>.cls-1{fill:#7b544f;}.cls-2{fill:#946660;}.cls-3{fill:#e4ae90;}.cls-4{fill:#fff;}.cls-5{fill:#faaf40;}.cls-6{fill:#f05c38;}.cls-7{fill:#09a582;}.cls-8{fill:#ffc640;}.cls-9{fill:#09a380;}</style></defs><title>gingerbread house</title><rect class="cls-1" x="69.49" y="3.57" width="14.5" height="21.42" transform="translate(5.41 -17.41) rotate(13.41)"/><ellipse class="cls-2" cx="79.23" cy="3.87" rx="1.67" ry="7.25" transform="translate(57.08 80.03) rotate(-76.59)"/><polygon class="cls-2" points="84.64 12.39 69.84 11.95 70.53 9.07 85.33 9.52 84.64 12.39"/><polygon class="cls-2" points="82.96 19.45 68.16 19 68.85 16.13 83.65 16.58 82.96 19.45"/><polygon class="cls-3" points="50.51 2.81 11.62 31.05 11.62 98.58 89.41 98.58 89.41 31.05 50.51 2.81"/><rect class="cls-1" x="11.62" y="82.99" width="77.79" height="15.58"/><path class="cls-4" d="M34.65,98.57A3.43,3.43,0,0,0,34.7,98a3.05,3.05,0,0,0-3-3.14,2.9,2.9,0,0,0-1.72.59,6,6,0,0,0-4.52-2.07,5.84,5.84,0,0,0-2.75.69,3.79,3.79,0,0,0-5.25-.22,6,6,0,0,0-4.47-2,6.43,6.43,0,0,0-6.23,6.62v.1Z"/><path class="cls-4" d="M93.19,98.57v-.1A6.43,6.43,0,0,0,87,91.85a6,6,0,0,0-4.47,2,3.79,3.79,0,0,0-5.25.22,5.84,5.84,0,0,0-2.75-.69A6,6,0,0,0,70,95.46a2.9,2.9,0,0,0-1.72-.59,3.05,3.05,0,0,0-3,3.14,3.43,3.43,0,0,0,0,.56Z"/><polygon class="cls-4" points="50.52 5.13 11.81 30.38 11.81 35.58 50.52 10.32 89.31 35.64 89.31 30.44 50.52 5.13"/><path class="cls-5" d="M24.61,63.58V71.7H23.47V63.58h-8.3v6.07a2.05,2.05,0,0,0,2,2H30.86a2.05,2.05,0,0,0,2-2V63.58Z"/><path class="cls-4" d="M30.86,72.73H17.22a3.08,3.08,0,0,1-3.08-3.08v-7.1h19.8v7.1A3.08,3.08,0,0,1,30.86,72.73Zm-5.22-2.07h5.22a1,1,0,0,0,1-1v-5H25.64Zm-9.44-6v5a1,1,0,0,0,1,1h5.22v-6Z"/><path class="cls-5" d="M24.61,55.47v8.11H23.47V55.47H17.22a2.05,2.05,0,0,0-2,2.05v6.06H32.91V57.52a2.05,2.05,0,0,0-2-2.05Z"/><path class="cls-4" d="M33.94,64.62H14.14v-7.1a3.08,3.08,0,0,1,3.08-3.08H30.86a3.08,3.08,0,0,1,3.08,3.08Zm-8.3-2.07h6.24v-5a1,1,0,0,0-1-1H25.64Zm-9.44,0h6.24v-6H17.22a1,1,0,0,0-1,1Z"/><path class="cls-5" d="M78,63.58V71.7H76.84V63.58h-8.3V69.5a2.21,2.21,0,0,0,2.2,2.2H84.09a2.21,2.21,0,0,0,2.2-2.2V63.58Z"/><path class="cls-4" d="M84.09,72.73H70.74a3.23,3.23,0,0,1-3.23-3.23v-7H87.32v7A3.23,3.23,0,0,1,84.09,72.73ZM79,70.66h5.07a1.16,1.16,0,0,0,1.16-1.16V64.62H79Zm-9.44-6V69.5a1.16,1.16,0,0,0,1.16,1.16h5.07v-6Z"/><path class="cls-5" d="M78,55.47v8.11H76.84V55.47h-6.1a2.21,2.21,0,0,0-2.2,2.2v5.91H86.29V57.67a2.21,2.21,0,0,0-2.2-2.2Z"/><path class="cls-4" d="M87.32,64.62H67.51v-7a3.23,3.23,0,0,1,3.23-3.23H84.09a3.23,3.23,0,0,1,3.23,3.23ZM79,62.55h6.23V57.67a1.17,1.17,0,0,0-1.16-1.17H79Zm-9.44,0h6.23v-6H70.74a1.17,1.17,0,0,0-1.16,1.17Z"/><path class="cls-6" d="M37.79,97.57V61.18a12.72,12.72,0,0,1,25.44,0V97.57Z"/><path class="cls-4" d="M50.51,49.46A11.74,11.74,0,0,1,62.23,61.18V96.57H38.79V61.18A11.74,11.74,0,0,1,50.51,49.46m0-2h0A13.72,13.72,0,0,0,36.79,61.18V97.67a.9.9,0,0,0,.91.9H63.32a.9.9,0,0,0,.91-.9V61.18A13.72,13.72,0,0,0,50.51,47.46Z"/><rect class="cls-3" x="33.97" y="94.39" width="33.09" height="5.61"/><circle class="cls-4" cx="58" cy="74.42" r="2.19"/><polygon class="cls-6" points="50.51 0 8.71 27.28 8.71 32.89 50.51 5.61 92.41 32.95 92.41 27.34 50.51 0"/><rect class="cls-4" x="15.62" y="71.7" width="2.44" height="5.44" rx="1.22" ry="1.22"/><rect class="cls-4" x="20.5" y="71.08" width="2.44" height="7.63" rx="1.22" ry="1.22"/><rect class="cls-4" x="70.06" y="71.61" width="2.44" height="4.37" rx="1.22" ry="1.22"/><rect class="cls-4" x="81.25" y="71.61" width="2.44" height="7.53" rx="1.22" ry="1.22"/><rect class="cls-4" x="18.06" y="71.08" width="2.44" height="11.19" rx="1.22" ry="1.22"/><rect class="cls-4" x="29.03" y="22.11" width="2.44" height="6.82" rx="1.22" ry="1.22"/><rect class="cls-4" x="14.4" y="30.67" width="2.44" height="5.44" rx="1.22" ry="1.22"/><rect class="cls-4" x="19.28" y="26.85" width="2.44" height="7.63" rx="1.22" ry="1.22"/><rect class="cls-4" x="11.81" y="31.13" width="2.44" height="7.63" rx="1.22" ry="1.22"/><rect class="cls-4" x="33.9" y="17.91" width="2.44" height="7.63" rx="1.22" ry="1.22"/><rect class="cls-4" x="16.84" y="29.36" width="2.44" height="11.19" rx="1.22" ry="1.22"/><rect class="cls-4" x="36.34" y="16.42" width="2.44" height="5.44" rx="1.22" ry="1.22"/><rect class="cls-4" x="43.65" y="11.7" width="2.44" height="5.44" rx="1.22" ry="1.22"/><rect class="cls-4" x="48.34" y="8.61" width="2.44" height="5.44" rx="1.22" ry="1.22"/><rect class="cls-4" x="46.09" y="10.18" width="2.44" height="8.96" rx="1.22" ry="1.22"/><rect class="cls-4" x="41.22" y="12.6" width="2.44" height="7.63" rx="1.22" ry="1.22"/><rect class="cls-4" x="38.78" y="15.11" width="2.44" height="11.19" rx="1.22" ry="1.22"/><rect class="cls-4" x="31.47" y="18.86" width="2.44" height="11.19" rx="1.22" ry="1.22"/><rect class="cls-4" x="21.72" y="25.54" width="2.44" height="5.44" rx="1.22" ry="1.22"/><rect class="cls-4" x="26.59" y="21.73" width="2.44" height="12.75" rx="1.22" ry="1.22"/><rect class="cls-4" x="24.15" y="24.92" width="2.44" height="7.43" rx="1.22" ry="1.22"/><rect class="cls-4" x="69.89" y="22.55" width="2.44" height="6.82" rx="1.22" ry="1.22" transform="translate(142.21 51.92) rotate(-180)"/><rect class="cls-4" x="84.51" y="31.1" width="2.44" height="5.44" rx="1.22" ry="1.22" transform="translate(171.46 67.65) rotate(-180)"/><rect class="cls-4" x="79.64" y="27.29" width="2.44" height="7.63" rx="1.22" ry="1.22" transform="translate(161.71 62.2) rotate(-180)"/><rect class="cls-4" x="87.11" y="31.57" width="2.44" height="7.63" rx="1.22" ry="1.22" transform="translate(176.65 70.77) rotate(180)"/><rect class="cls-4" x="65.01" y="18.35" width="2.44" height="7.63" rx="1.22" ry="1.22" transform="translate(132.46 44.32) rotate(-180)"/><rect class="cls-4" x="82.07" y="29.79" width="2.44" height="11.19" rx="1.22" ry="1.22" transform="translate(166.59 70.77) rotate(-180)"/><rect class="cls-4" x="62.57" y="16.85" width="2.44" height="5.44" rx="1.22" ry="1.22" transform="translate(127.59 39.15) rotate(180)"/><rect class="cls-4" x="55.26" y="12.13" width="2.44" height="5.44" rx="1.22" ry="1.22" transform="translate(112.96 29.71) rotate(-180)"/><rect class="cls-4" x="50.57" y="9.05" width="2.44" height="5.44" rx="1.22" ry="1.22" transform="translate(103.59 23.54) rotate(-180)"/><rect class="cls-4" x="52.82" y="10.62" width="2.44" height="8.96" rx="1.22" ry="1.22" transform="translate(108.09 30.19) rotate(-180)"/><rect class="cls-4" x="57.7" y="13.04" width="2.44" height="7.63" rx="1.22" ry="1.22" transform="translate(117.84 33.7) rotate(180)"/><rect class="cls-4" x="60.14" y="15.54" width="2.44" height="11.19" rx="1.22" ry="1.22" transform="translate(122.71 42.27) rotate(180)"/><rect class="cls-4" x="67.45" y="19.29" width="2.44" height="11.19" rx="1.22" ry="1.22" transform="translate(137.34 49.77) rotate(180)"/><rect class="cls-4" x="77.2" y="25.98" width="2.44" height="5.44" rx="1.22" ry="1.22" transform="translate(156.84 57.4) rotate(180)"/><rect class="cls-4" x="72.32" y="22.16" width="2.44" height="12.75" rx="1.22" ry="1.22" transform="translate(147.09 57.08) rotate(-180)"/><rect class="cls-4" x="74.76" y="25.36" width="2.44" height="7.43" rx="1.22" ry="1.22" transform="translate(151.96 58.14) rotate(180)"/><path class="cls-6" d="M60.34,33.83a4.9,4.9,0,0,0-9.78-.36,4.9,4.9,0,0,0-9.78.36c0,6.81,8.9,10,9.74,10.31v0h.07v0C51.44,43.85,60.34,40.64,60.34,33.83Z"/><path class="cls-7" d="M50.56,70.75a8.83,8.83,0,1,1,8.82-8.83A8.83,8.83,0,0,1,50.56,70.75Zm0-13.65a4.83,4.83,0,1,0,4.82,4.82A4.82,4.82,0,0,0,50.56,57.1Z"/><circle class="cls-8" cx="48.25" cy="54.2" r="1.1"/><circle class="cls-8" cx="53.07" cy="56.41" r="0.94"/><circle class="cls-8" cx="58.51" cy="60.22" r="1.62"/><circle class="cls-8" cx="53.88" cy="64.99" r="0.81"/><circle class="cls-8" cx="47.14" cy="69.68" r="1.01"/><circle class="cls-8" cx="42.61" cy="59.53" r="1.82"/><circle class="cls-8" cx="56.69" cy="67.86" r="1.82"/><circle class="cls-8" cx="46.64" cy="64.58" r="1"/><circle class="cls-6" cx="16.61" cy="50.88" r="1.45"/><circle class="cls-9" cx="16.61" cy="46.84" r="1.45"/><circle class="cls-6" cx="16.61" cy="42.63" r="1.45"/><circle class="cls-9" cx="85.24" cy="46.28" r="1.45"/><circle class="cls-6" cx="85.24" cy="42.06" r="1.45"/><circle class="cls-9" cx="20.72" cy="50.88" r="1.45"/><circle class="cls-6" cx="24.75" cy="50.88" r="1.45"/><circle class="cls-6" cx="33.61" cy="50.88" r="1.45"/><circle class="cls-9" cx="28.97" cy="50.88" r="1.45"/><circle class="cls-6" cx="68.25" cy="50.88" r="1.45"/><circle class="cls-9" cx="72.35" cy="50.88" r="1.45"/><circle class="cls-6" cx="76.39" cy="50.88" r="1.45"/><circle class="cls-6" cx="85.24" cy="50.88" r="1.45"/><circle class="cls-9" cx="80.6" cy="50.88" r="1.45"/><circle class="cls-6" cx="68.7" cy="85.49" r="1.45"/><circle class="cls-9" cx="72.81" cy="85.49" r="1.45"/><circle class="cls-6" cx="76.84" cy="85.49" r="1.45"/><circle class="cls-6" cx="85.69" cy="85.49" r="1.45"/><circle class="cls-9" cx="81.06" cy="85.49" r="1.45"/><circle class="cls-6" cx="16.26" cy="85.83" r="1.45"/><circle class="cls-9" cx="20.37" cy="85.83" r="1.45"/><circle class="cls-6" cx="24.4" cy="85.83" r="1.45"/><circle class="cls-6" cx="33.25" cy="85.83" r="1.45"/><circle class="cls-9" cx="28.62" cy="85.83" r="1.45"/></svg>