<svg id="Layer_1" data-name="Layer 1" xmlns="http://www.w3.org/2000/svg" viewBox="0 0 100 100"><defs><style>.cls-1{fill:#9dc8dc;}.cls-2{fill:#b2e2f9;}.cls-3{fill:#3e545f;}</style></defs><title>safety glasses</title><path class="cls-1" d="M67.06,67.38a10,10,0,0,1-10-10v-.85a6.94,6.94,0,1,0-13.88,0v.85a10,10,0,0,1-10,10H12a6.2,6.2,0,0,1-6.19-6.19V38.81A6.2,6.2,0,0,1,12,32.62H88.27a6.2,6.2,0,0,1,6.19,6.19V61.19a6.2,6.2,0,0,1-6.19,6.19Z"/><path class="cls-2" d="M88.27,34.68a4.14,4.14,0,0,1,4.14,4.13V61.19a4.14,4.14,0,0,1-4.14,4.13H67.06a8,8,0,0,1-8-7.95v-.85a9,9,0,0,0-18,0v.85a8,8,0,0,1-7.95,7.95H12a4.14,4.14,0,0,1-4.14-4.13V38.81A4.14,4.14,0,0,1,12,34.68H88.27m0-4.11H12a8.24,8.24,0,0,0-8.24,8.24V61.19A8.24,8.24,0,0,0,12,69.43H33.17A12.06,12.06,0,0,0,45.23,57.37v-.85a4.89,4.89,0,1,1,9.77,0v.85A12.06,12.06,0,0,0,67.06,69.43H88.27a8.24,8.24,0,0,0,8.24-8.24V38.81a8.24,8.24,0,0,0-8.24-8.24Z"/><polygon class="cls-2" points="19.83 65.33 13.42 65.33 28.8 34.64 35.22 34.64 19.83 65.33"/><polygon class="cls-2" points="30 65.33 25.64 65.33 41.03 34.64 45.39 34.64 30 65.33"/><rect class="cls-3" y="39" width="3.76" height="13.85"/><rect class="cls-3" x="96.24" y="39" width="3.76" height="13.85"/></svg>