<svg id="Layer_1" data-name="Layer 1" xmlns="http://www.w3.org/2000/svg" viewBox="0 0 100 100"><defs><style>.cls-1{fill:#faaf40;}.cls-2{fill:#ffc969;}.cls-3{fill:#ffdb91;}.cls-4{fill:#f89c3e;}</style></defs><title>hay bale</title><rect class="cls-1" x="22.09" y="27.4" width="57.25" height="47.74"/><ellipse class="cls-1" cx="79.34" cy="51.26" rx="20.66" ry="23.87"/><ellipse class="cls-2" cx="22.95" cy="51.26" rx="20.66" ry="23.87"/><ellipse class="cls-3" cx="22.95" cy="51.26" rx="14.08" ry="16.27"/><ellipse class="cls-2" cx="22.95" cy="51.26" rx="6.37" ry="7.36"/><path class="cls-2" d="M18.75,31.79h0a1.11,1.11,0,0,1-1.25-1L17,27.24a1.25,1.25,0,0,1,.88-1.45h0a1.11,1.11,0,0,1,1.25,1l.55,3.55A1.25,1.25,0,0,1,18.75,31.79Z"/><path class="cls-4" d="M47.64,31.45h0a1.1,1.1,0,0,1-1.25-1l-.55-3.55a1.24,1.24,0,0,1,.87-1.44h0a1.1,1.1,0,0,1,1.25,1L48.51,30A1.24,1.24,0,0,1,47.64,31.45Z"/><path class="cls-4" d="M70.37,30.64h0a1.31,1.31,0,0,1-.66-1.59l1.05-3.39a1.05,1.05,0,0,1,1.38-.76h0a1.31,1.31,0,0,1,.66,1.59l-1,3.4A1.05,1.05,0,0,1,70.37,30.64Z"/><path class="cls-4" d="M63.7,59.45h0a1.05,1.05,0,0,1,1.38-.75L68,59.91a1.3,1.3,0,0,1,.66,1.59h0a1.05,1.05,0,0,1-1.38.76l-2.94-1.21A1.31,1.31,0,0,1,63.7,59.45Z"/><path class="cls-2" d="M43.88,39.34h0A1.34,1.34,0,0,1,43.42,41l-2.76,1.66a1,1,0,0,1-1.46-.53h0a1.35,1.35,0,0,1,.46-1.68l2.77-1.66A1,1,0,0,1,43.88,39.34Z"/><path class="cls-2" d="M5.45,47.39h0a1.11,1.11,0,0,1-1.27,1l-3.06-.7a1.24,1.24,0,0,1-.85-1.46h0a1.08,1.08,0,0,1,1.27-1l3.06.69A1.26,1.26,0,0,1,5.45,47.39Z"/><path class="cls-2" d="M5.27,52.63h0a1.2,1.2,0,0,1-1,1.33l-3.11.23A1.14,1.14,0,0,1,0,53H0a1.19,1.19,0,0,1,1-1.32l3.11-.24A1.15,1.15,0,0,1,5.27,52.63Z"/><path class="cls-3" d="M38.77,58.38h0a1,1,0,0,1-1.42.64l-2.86-1.43A1.33,1.33,0,0,1,33.93,56h0a1,1,0,0,1,1.42-.65l2.86,1.44A1.32,1.32,0,0,1,38.77,58.38Z"/><path class="cls-2" d="M38.18,71.54h0a1,1,0,0,1-1.52-.15l-2-2.75a1.4,1.4,0,0,1,.13-1.76h0a1,1,0,0,1,1.52.15l2,2.75A1.39,1.39,0,0,1,38.18,71.54Z"/><path class="cls-1" d="M95,31.6h0a1.39,1.39,0,0,1,.13,1.76l-2,2.76a1,1,0,0,1-1.52.15h0a1.39,1.39,0,0,1-.14-1.76l2-2.75A1,1,0,0,1,95,31.6Z"/><path class="cls-1" d="M98.4,36.86h0a1.29,1.29,0,0,1-.74,1.54l-3,1a1.08,1.08,0,0,1-1.34-.86h0A1.29,1.29,0,0,1,94.06,37l3-1A1.07,1.07,0,0,1,98.4,36.86Z"/><path class="cls-4" d="M46.75,27.36H34.38v.09c11.18.32,20.15,10.87,20.15,23.85s-9,23.54-20.15,23.86H46.75c11.42,0,20.67-10.68,20.67-23.87S58.17,27.36,46.75,27.36Z"/><path class="cls-4" d="M71.15,27.36H58.78v.09C70,27.77,78.93,38.32,78.93,51.3S70,74.84,58.78,75.16H71.15c11.41,0,20.66-10.68,20.66-23.87S82.56,27.36,71.15,27.36Z"/></svg>