<svg id="Layer_1" data-name="Layer 1" xmlns="http://www.w3.org/2000/svg" viewBox="0 0 100 100"><defs><style>.cls-1{fill:#dddfe0;}.cls-2{fill:#ffc63f;}.cls-3{fill:#faaf40;}.cls-4{fill:#ffdb91;}</style></defs><title>harp</title><path class="cls-1" d="M44.85,89.59,36.18,12l2.54-.28,8.67,77.64Zm0,0"/><path class="cls-1" d="M50.18,81.08l-8-71.34,2.54-.28,7.95,71.33Zm0,0"/><path class="cls-1" d="M55.08,70.86l-5.62-49L52,21.59l5.62,49Zm0,0"/><path class="cls-1" d="M60.19,61.27l-3-27.47,2.54-.27,3,27.46Zm0,0"/><path class="cls-1" d="M65.31,51.48,62.88,31.05l2.53-.31,2.44,20.44Zm0,0"/><path class="cls-2" d="M30.52,2.5l1.69-.33A19,19,0,0,1,50.41,11L60,26.22a3.19,3.19,0,0,0,5.27.19l4-5.45a6.12,6.12,0,0,1,11,3.63,6.23,6.23,0,0,1-.44,2.27l-27,67.37v.2h6L64.31,100H34.77l-.57-5.57L24.92,3.13a2.81,2.81,0,0,1,2.14-3A3,3,0,0,1,27.72,0a2.83,2.83,0,0,1,2.8,2.5ZM32.4,19.38h0L40.73,94l4.94-9.5,5.08-9.78L55.82,65l5.09-9.77h0L66,45.43,75.7,26.75a1.74,1.74,0,0,0-.86-2.4,1.62,1.62,0,0,0-.86-.12,1.71,1.71,0,0,0-1.3.8L69,31a9,9,0,0,1-4.19,3.59,9.26,9.26,0,0,1-6.14.33,9,9,0,0,1-5-3.8l-1.9-3-7.5-11.63-.47-.73A6.14,6.14,0,0,0,38.53,13a4.49,4.49,0,0,0-.64,0l-.3,0a6.13,6.13,0,0,0-5.19,6.07Zm0,0"/><polygon class="cls-3" points="65.36 100 34.77 100 34.2 94.43 59.97 94.43 65.36 100"/><path class="cls-2" d="M30,2.83S20.47,5.64,19.81,13.26c-.63,7.17,3.47,8.85,9,6.45s5.29-6.62,5.29-6.62"/><ellipse class="cls-4" cx="27.93" cy="8.2" rx="6.37" ry="2.01" transform="translate(-0.36 15.07) rotate(-30)"/></svg>