<svg id="Layer_1" data-name="Layer 1" xmlns="http://www.w3.org/2000/svg" viewBox="0 0 100 100"><defs><style>.cls-1{fill:#a0a2a4;}.cls-2{fill:#b95f2b;}.cls-3{fill:#87898b;}.cls-4{fill:#58595b;}.cls-5{fill:#a35323;}.cls-6{fill:#6d6e70;}.cls-7{fill:#3e3e3f;}</style></defs><title>steam engine</title><rect class="cls-1" x="69.32" y="19.35" width="8.46" height="35.46" rx="1.92" ry="1.92"/><path class="cls-1" d="M82.95,10.63h6.18a1.14,1.14,0,0,1,1.14,1.14v32.4a1.92,1.92,0,0,1-1.92,1.92H83.72a1.92,1.92,0,0,1-1.92-1.92V11.77a1.14,1.14,0,0,1,1.14-1.14Z"/><rect class="cls-2" x="49.38" y="40.71" width="46.98" height="44.07"/><path class="cls-2" d="M31.61,61.84a8.2,8.2,0,0,0-8-8.35,8.2,8.2,0,0,0-8,8.35V84.78h16Z"/><rect class="cls-3" x="22.06" y="43.1" width="2.9" height="34.08"/><rect class="cls-3" x="22.06" y="43.1" width="2.9" height="34.08" transform="translate(83.65 36.64) rotate(90)"/><rect class="cls-3" x="22.06" y="43.1" width="2.9" height="34.08" transform="translate(49.41 0.99) rotate(45)"/><rect class="cls-3" x="22.06" y="43.1" width="2.9" height="34.08" transform="translate(82.66 86.05) rotate(135)"/><path class="cls-4" d="M23.51,80.25A19.77,19.77,0,1,1,43.28,60.48,19.79,19.79,0,0,1,23.51,80.25Zm0-35.78a16,16,0,1,0,16,16A16,16,0,0,0,23.51,44.47Z"/><rect class="cls-4" x="20.42" y="39.66" width="6.11" height="2.93" rx="0.66" ry="0.66"/><rect class="cls-4" x="20.42" y="78.4" width="6.11" height="2.93" rx="0.66" ry="0.66"/><rect class="cls-4" x="39.79" y="59.03" width="6.11" height="2.93" rx="0.66" ry="0.66" transform="translate(103.35 17.65) rotate(90)"/><rect class="cls-4" x="1.05" y="59.03" width="6.11" height="2.93" rx="0.66" ry="0.66" transform="translate(64.6 56.4) rotate(90)"/><rect class="cls-4" x="34.12" y="45.33" width="6.11" height="2.93" rx="0.66" ry="0.66" transform="translate(43.98 -12.58) rotate(45)"/><rect class="cls-4" x="6.72" y="72.73" width="6.11" height="2.93" rx="0.66" ry="0.66" transform="translate(55.33 14.82) rotate(45)"/><rect class="cls-4" x="34.12" y="72.73" width="6.11" height="2.93" rx="0.66" ry="0.66" transform="translate(115.92 100.38) rotate(135)"/><rect class="cls-4" x="6.72" y="45.33" width="6.11" height="2.93" rx="0.66" ry="0.66" transform="translate(49.78 72.98) rotate(135)"/><rect class="cls-4" x="27.98" y="41.19" width="6.11" height="2.93" rx="0.66" ry="0.66" transform="translate(19.12 -8.73) rotate(22.98)"/><rect class="cls-4" x="12.85" y="76.87" width="6.11" height="2.93" rx="0.66" ry="0.66" transform="translate(31.85 0.01) rotate(22.98)"/><rect class="cls-4" x="38.26" y="66.59" width="6.11" height="2.93" rx="0.66" ry="0.66" transform="translate(120.1 56.6) rotate(112.98)"/><rect class="cls-4" x="2.58" y="51.47" width="6.11" height="2.93" rx="0.66" ry="0.66" transform="translate(56.57 68.41) rotate(112.98)"/><rect class="cls-4" x="38.58" y="52.28" width="6.11" height="2.93" rx="0.66" ry="0.66" transform="translate(77.5 -4.01) rotate(69.6)"/><rect class="cls-4" x="2.26" y="65.78" width="6.11" height="2.93" rx="0.66" ry="0.66" transform="translate(66.5 38.83) rotate(69.6)"/><rect class="cls-4" x="27.17" y="77.19" width="6.11" height="2.93" rx="0.66" ry="0.66" transform="translate(85.97 141.85) rotate(159.6)"/><rect class="cls-4" x="13.67" y="40.87" width="6.11" height="2.93" rx="0.66" ry="0.66" transform="translate(47.15 76.19) rotate(159.6)"/><circle class="cls-3" cx="23.51" cy="60.14" r="4.6"/><circle class="cls-4" cx="23.62" cy="60.14" r="2.22"/><path class="cls-2" d="M96.35,83H3.65C1.76,83,.2,85.78,0,89.37H100C99.8,85.78,98.24,83,96.35,83Z"/><rect class="cls-3" x="45.38" y="33.74" width="54.15" height="16.01" rx="3.63" ry="3.63"/><rect class="cls-1" x="53.21" y="36.29" width="39.41" height="1.71" rx="0.39" ry="0.39"/><rect class="cls-5" x="52.67" y="52.16" width="8.07" height="3.69"/><rect class="cls-5" x="63.41" y="52.16" width="8.07" height="3.69"/><rect class="cls-5" x="74.21" y="52.16" width="8.07" height="3.69"/><rect class="cls-5" x="85" y="52.16" width="8.07" height="3.69"/><rect class="cls-5" x="57.96" y="57.85" width="8.07" height="3.69"/><rect class="cls-5" x="68.35" y="57.85" width="8.07" height="3.69"/><rect class="cls-5" x="78.75" y="57.85" width="8.07" height="3.69"/><rect class="cls-5" x="52.67" y="63.18" width="8.07" height="3.69"/><rect class="cls-5" x="63.41" y="63.18" width="8.07" height="3.69"/><rect class="cls-5" x="52.67" y="74.71" width="8.07" height="3.69"/><rect class="cls-5" x="63.41" y="74.71" width="8.07" height="3.69"/><rect class="cls-5" x="57.96" y="68.88" width="8.07" height="3.69"/><rect class="cls-5" x="68.35" y="68.88" width="8.07" height="3.69"/><rect class="cls-3" x="78.04" y="63.91" width="17.56" height="17.56" rx="1.15" ry="1.15"/><rect class="cls-4" x="79.53" y="70.5" width="5.21" height="2.55" rx="0.58" ry="0.58"/><ellipse class="cls-6" cx="47.7" cy="41.57" rx="3.82" ry="6.07"/><rect class="cls-6" x="60.74" y="62.6" width="7.9" height="7.9" rx="1.79" ry="1.79"/><rect class="cls-7" x="46.13" y="28.95" width="2.21" height="43.52" transform="translate(-17.36 75.82) rotate(-68.28)"/><rect class="cls-7" x="27.78" y="75.34" width="40.13" height="2.21" transform="translate(-5.97 4.08) rotate(-4.59)"/><rect class="cls-3" x="22.06" y="43.1" width="2.9" height="34.08"/><rect class="cls-3" x="22.06" y="43.1" width="2.9" height="34.08" transform="translate(83.65 36.64) rotate(90)"/><rect class="cls-3" x="22.06" y="43.1" width="2.9" height="34.08" transform="translate(49.41 0.99) rotate(45)"/><rect class="cls-3" x="22.06" y="43.1" width="2.9" height="34.08" transform="translate(82.66 86.05) rotate(135)"/><path class="cls-4" d="M23.51,80.25A19.77,19.77,0,1,1,43.28,60.48,19.79,19.79,0,0,1,23.51,80.25Zm0-35.78a16,16,0,1,0,16,16A16,16,0,0,0,23.51,44.47Z"/><rect class="cls-4" x="20.42" y="39.66" width="6.11" height="2.93" rx="0.66" ry="0.66"/><rect class="cls-4" x="20.42" y="78.4" width="6.11" height="2.93" rx="0.66" ry="0.66"/><rect class="cls-4" x="39.79" y="59.03" width="6.11" height="2.93" rx="0.66" ry="0.66" transform="translate(103.35 17.65) rotate(90)"/><rect class="cls-4" x="1.05" y="59.03" width="6.11" height="2.93" rx="0.66" ry="0.66" transform="translate(64.6 56.4) rotate(90)"/><rect class="cls-4" x="34.12" y="45.33" width="6.11" height="2.93" rx="0.66" ry="0.66" transform="translate(43.98 -12.58) rotate(45)"/><rect class="cls-4" x="6.72" y="72.73" width="6.11" height="2.93" rx="0.66" ry="0.66" transform="translate(55.33 14.82) rotate(45)"/><rect class="cls-4" x="34.12" y="72.73" width="6.11" height="2.93" rx="0.66" ry="0.66" transform="translate(115.92 100.38) rotate(135)"/><rect class="cls-4" x="6.72" y="45.33" width="6.11" height="2.93" rx="0.66" ry="0.66" transform="translate(49.78 72.98) rotate(135)"/><rect class="cls-4" x="27.98" y="41.19" width="6.11" height="2.93" rx="0.66" ry="0.66" transform="translate(19.12 -8.73) rotate(22.98)"/><rect class="cls-4" x="12.85" y="76.87" width="6.11" height="2.93" rx="0.66" ry="0.66" transform="translate(31.85 0.01) rotate(22.98)"/><rect class="cls-4" x="38.26" y="66.59" width="6.11" height="2.93" rx="0.66" ry="0.66" transform="translate(120.1 56.6) rotate(112.98)"/><rect class="cls-4" x="2.58" y="51.47" width="6.11" height="2.93" rx="0.66" ry="0.66" transform="translate(56.57 68.41) rotate(112.98)"/><rect class="cls-4" x="38.58" y="52.28" width="6.11" height="2.93" rx="0.66" ry="0.66" transform="translate(77.5 -4.01) rotate(69.6)"/><rect class="cls-4" x="2.26" y="65.78" width="6.11" height="2.93" rx="0.66" ry="0.66" transform="translate(66.5 38.83) rotate(69.6)"/><rect class="cls-4" x="27.17" y="77.19" width="6.11" height="2.93" rx="0.66" ry="0.66" transform="translate(85.97 141.85) rotate(159.6)"/><rect class="cls-4" x="13.67" y="40.87" width="6.11" height="2.93" rx="0.66" ry="0.66" transform="translate(47.15 76.19) rotate(159.6)"/><circle class="cls-3" cx="23.51" cy="60.14" r="4.6"/><circle class="cls-4" cx="23.62" cy="60.14" r="2.22"/><rect class="cls-3" x="64.03" y="58.77" width="1.35" height="15.88"/><rect class="cls-3" x="64.03" y="58.77" width="1.35" height="15.88" transform="translate(131.41 2) rotate(90)"/><rect class="cls-3" x="64.03" y="58.77" width="1.35" height="15.88" transform="translate(66.12 -26.22) rotate(45)"/><rect class="cls-3" x="64.03" y="58.77" width="1.35" height="15.88" transform="translate(157.63 68.12) rotate(135)"/><path class="cls-4" d="M64.71,76.08a9.22,9.22,0,1,1,9.21-9.21A9.23,9.23,0,0,1,64.71,76.08Zm0-16.68a7.47,7.47,0,1,0,7.46,7.47A7.48,7.48,0,0,0,64.71,59.4Z"/><rect class="cls-4" x="63.27" y="57.16" width="2.85" height="1.37" rx="0.31" ry="0.31"/><rect class="cls-4" x="63.27" y="75.22" width="2.85" height="1.37" rx="0.31" ry="0.31"/><rect class="cls-4" x="72.29" y="66.19" width="2.85" height="1.37" rx="0.31" ry="0.31" transform="translate(140.59 -6.85) rotate(90)"/><rect class="cls-4" x="54.24" y="66.19" width="2.85" height="1.37" rx="0.31" ry="0.31" transform="translate(122.54 11.21) rotate(90)"/><rect class="cls-4" x="69.65" y="59.81" width="2.85" height="1.37" rx="0.31" ry="0.31" transform="translate(63.59 -32.54) rotate(45)"/><rect class="cls-4" x="56.88" y="72.57" width="2.85" height="1.37" rx="0.31" ry="0.31" transform="translate(68.88 -19.77) rotate(45)"/><rect class="cls-4" x="69.65" y="72.57" width="2.85" height="1.37" rx="0.31" ry="0.31" transform="translate(173.13 74.8) rotate(135)"/><rect class="cls-4" x="56.88" y="59.81" width="2.85" height="1.37" rx="0.31" ry="0.31" transform="translate(142.31 62.03) rotate(135)"/><rect class="cls-4" x="66.79" y="57.88" width="2.85" height="1.37" rx="0.31" ry="0.31" transform="translate(28.28 -21.99) rotate(22.98)"/><rect class="cls-4" x="59.74" y="74.5" width="2.85" height="1.37" rx="0.31" ry="0.31" transform="translate(34.21 -17.91) rotate(22.98)"/><rect class="cls-4" x="71.58" y="69.71" width="2.85" height="1.37" rx="0.31" ry="0.31" transform="translate(166.31 30.67) rotate(112.98)"/><rect class="cls-4" x="54.96" y="62.66" width="2.85" height="1.37" rx="0.31" ry="0.31" transform="translate(136.71 36.18) rotate(112.98)"/><rect class="cls-4" x="71.73" y="63.04" width="2.85" height="1.37" rx="0.31" ry="0.31" transform="translate(107.39 -27.05) rotate(69.6)"/><rect class="cls-4" x="54.81" y="69.34" width="2.85" height="1.37" rx="0.31" ry="0.31" transform="translate(102.26 -7.09) rotate(69.6)"/><rect class="cls-4" x="66.41" y="74.65" width="2.85" height="1.37" rx="0.31" ry="0.31" transform="translate(157.68 122.3) rotate(159.6)"/><rect class="cls-4" x="60.12" y="57.73" width="2.85" height="1.37" rx="0.31" ry="0.31" transform="translate(139.59 91.71) rotate(159.6)"/><circle class="cls-3" cx="64.71" cy="66.71" r="2.14"/><circle class="cls-4" cx="64.76" cy="66.71" r="1.03"/><rect class="cls-6" x="85.74" y="43.57" width="4.97" height="14.85" rx="1.12" ry="1.12"/></svg>