<svg id="Layer_1" data-name="Layer 1" xmlns="http://www.w3.org/2000/svg" viewBox="0 0 100 100"><defs><style>.cls-1{fill:#c2d4de;}.cls-2{fill:#7696a7;}.cls-3{fill:#f6cc80;}.cls-4{fill:#f8d699;}</style></defs><title>fortune cookie</title><rect class="cls-1" x="24.64" y="17.95" width="61.28" height="31.79" rx="1.81" ry="1.81" transform="translate(65.21 -30.21) rotate(67.34)"/><rect class="cls-2" x="37.79" y="29.23" width="48.63" height="3.94" rx="1.8" ry="1.8" transform="translate(66.97 -38.13) rotate(67.34)"/><rect class="cls-2" x="30.79" y="32.15" width="48.63" height="3.94" rx="1.8" ry="1.8" transform="translate(65.36 -29.87) rotate(67.34)"/><rect class="cls-2" x="32.44" y="40.84" width="36.14" height="3.94" rx="1.8" ry="1.8" transform="translate(70.55 -20.29) rotate(67.34)"/><path class="cls-3" d="M51.39,63v0c0-2.84-1.39-40.16-36-47.93a49.53,49.53,0,1,0,69.78.47C51.68,24.24,51.36,60.23,51.39,63Z"/><circle class="cls-4" cx="11.49" cy="51.23" r="3.9"/><circle class="cls-4" cx="79.88" cy="34.9" r="4.5"/><circle class="cls-4" cx="91.46" cy="43.07" r="2.36"/><circle class="cls-4" cx="83.4" cy="46.06" r="1.94"/><circle class="cls-4" cx="65.73" cy="88.33" r="3.91"/></svg>