<svg id="Layer_1" data-name="Layer 1" xmlns="http://www.w3.org/2000/svg" viewBox="0 0 100 100"><defs><style>.cls-1{fill:#b95f2b;}.cls-2{fill:#c77f55;}</style></defs><title>chicken wing</title><path class="cls-1" d="M89.2,41.66s7.37-8.47,8.6-12,2.58-13.14-3.57-20.39S82.32,1.05,78.14,1.05,66.84-.35,60,11.32,50.87,46.7,50.87,46.7,43.13,23.36,40.55,19.92,34,7.27,25.44,7.39,6,30.85,4.55,35.4,3.2,45.84,11.19,41.54c0,0-6.14,32.92-8.6,38s-2.83,12.9,7.74,5,18.43-29,18.43-29S36.85,101.24,50,101,87.23,61.07,89.2,41.66Z"/><ellipse class="cls-2" cx="68.44" cy="20.17" rx="14.5" ry="6.88" transform="translate(25.61 77.23) rotate(-69.53)"/></svg>