<svg id="Layer_1" data-name="Layer 1" xmlns="http://www.w3.org/2000/svg" xmlns:xlink="http://www.w3.org/1999/xlink" viewBox="0 0 100 100"><defs><style>.cls-1{fill:none;}.cls-2{clip-path:url(#clip-path);}.cls-3{fill:#09a582;}.cls-4{fill:#ffe5b1;}.cls-5{fill:#bf9b77;}.cls-6{fill:#654440;}.cls-7{fill:#aa7562;}.cls-8{fill:#88c057;}.cls-9{fill:#659c35;}.cls-10{fill:#09a380;}.cls-11{fill:#f05c38;}.cls-12{fill:#f7a895;}.cls-13{fill:#079676;}.cls-14{fill:#00795e;}.cls-15{fill:#ecd2ad;}.cls-16{fill:#c5d1a3;}.cls-17{fill:#b2e2f9;}.cls-18{fill:#6ab8d9;}</style><clipPath id="clip-path"><path class="cls-1" d="M24-26c0,3.23,8.53,6,25.9,6S76-22.74,76-26l9.69-81.17H14.3Z"/></clipPath></defs><title>recipe</title><g class="cls-2"><rect class="cls-3" x="19.89" y="-40.39" width="119.66" height="10.5" transform="translate(48.2 46.08) rotate(-45)"/></g><polygon class="cls-4" points="12.25 0 12.25 100 87.75 100 87.75 12.33 75.42 0 12.25 0"/><polygon class="cls-5" points="75.42 0 75.42 12.33 87.75 12.33 75.42 0"/><rect class="cls-6" x="35.9" y="6.16" width="28.37" height="4.41" rx="2.21" ry="2.21"/><rect class="cls-7" x="21.58" y="21.1" width="23.01" height="1.93" rx="0.97" ry="0.97"/><rect class="cls-7" x="21.58" y="25.53" width="23.01" height="1.93" rx="0.97" ry="0.97"/><rect class="cls-7" x="21.58" y="29.95" width="23.01" height="1.93" rx="0.97" ry="0.97"/><circle class="cls-7" cx="22.64" cy="84.14" r="1.12"/><circle class="cls-7" cx="54.36" cy="42.96" r="1.12"/><rect class="cls-7" x="53.11" y="46.47" width="23.01" height="1.93" rx="0.97" ry="0.97"/><rect class="cls-7" x="53.11" y="51" width="23.01" height="1.93" rx="0.97" ry="0.97"/><rect class="cls-7" x="53.11" y="55.52" width="23.01" height="1.93" rx="0.97" ry="0.97"/><rect class="cls-7" x="21.58" y="63.91" width="23.01" height="1.93" rx="0.97" ry="0.97"/><rect class="cls-7" x="21.58" y="68.43" width="23.01" height="1.93" rx="0.97" ry="0.97"/><rect class="cls-7" x="21.58" y="72.95" width="23.01" height="1.93" rx="0.97" ry="0.97"/><rect class="cls-7" x="21.58" y="78.28" width="23.01" height="1.93" rx="0.97" ry="0.97"/><rect class="cls-7" x="21.58" y="87.32" width="23.01" height="1.93" rx="0.97" ry="0.97"/><rect class="cls-7" x="21.52" y="90.86" width="23.01" height="1.93" rx="0.97" ry="0.97"/><path class="cls-8" d="M33.53,43.08a2.76,2.76,0,0,0,1.31-1.15,3,3,0,0,0-.09-3.23,2.91,2.91,0,0,0-3.25-1.09,2.28,2.28,0,0,0-3.09-.34h0a1.53,1.53,0,0,0-.38-.43,1.51,1.51,0,0,0-1.61-.11,1.45,1.45,0,0,0-.72,1.06,1.54,1.54,0,0,0-1.12.31,1.62,1.62,0,0,0-.33,2.27h0A2.11,2.11,0,0,0,24,43.24a2.9,2.9,0,0,0,.34.36,2.43,2.43,0,0,0,.58,4.12,1.78,1.78,0,0,0,2.26,2.13C29,52.45,31,53.28,34.26,54l.17,0h0c1.34.28,2.52-1.58,1.39-2.36-6-4.14.4-7.69.4-7.69s-1.09-1.8-2.65-.76l-.09-.13Zm0,0"/><path class="cls-9" d="M34.47,54h0l-.17,0c-3.27-.71-5.3-1.54-7.13-4.14a1.79,1.79,0,0,1-2-.63,1.81,1.81,0,0,1-.3-1.5,2.43,2.43,0,0,1-.58-4.12,2.9,2.9,0,0,1-.34-.36,2.1,2.1,0,0,1-.11-2.35,3.7,3.7,0,0,0-.47-.29,2,2,0,0,0-2.23.1,1.48,1.48,0,0,0-.21,1.61,1.64,1.64,0,0,0-1.34.66c-.6.89,0,2.25,1.29,3h0c-.56,1.07.13,2.5,1.53,3.21a6.19,6.19,0,0,0,.62.25c-.67,1.12,0,2.54,1.39,3.15a3.35,3.35,0,0,0,1.37.27,1.53,1.53,0,0,0,.94,1,2,2,0,0,0,2-.21,7.88,7.88,0,0,0,6.08.42l.07,0a1.17,1.17,0,0,1-.37,0Zm0,0"/><path class="cls-9" d="M29,45.31a.33.33,0,0,0,0-.12,7.71,7.71,0,0,1-.27-1.78,5.07,5.07,0,0,1,2.3-1.5.31.31,0,0,0,.13-.06.36.36,0,0,0,.13-.35.34.34,0,0,0-.41-.26,5.31,5.31,0,0,0-2.1,1.15,5.33,5.33,0,0,1,.45-1.65,1.85,1.85,0,0,1,1.3-.71.43.43,0,0,0,.17-.06.35.35,0,0,0,.14-.32.34.34,0,0,0-.38-.3,2.91,2.91,0,0,0-1.52.65,2,2,0,0,1-.14-.68.35.35,0,0,0-.69,0,2.39,2.39,0,0,0,.41,1.34,7.46,7.46,0,0,0-.31,4.11c0,.11.05.22.08.34a2,2,0,0,1-1.73-1,.34.34,0,0,0-.46-.14.35.35,0,0,0-.15.47,2.63,2.63,0,0,0,2.53,1.36,10.25,10.25,0,0,0,1.21,2.49.42.42,0,0,0,.06.08,12.84,12.84,0,0,0,1.57,1.91,1.79,1.79,0,0,1-.89-.1.34.34,0,0,0-.29.62,2.44,2.44,0,0,0,1.76,0,23.1,23.1,0,0,0,3.89,2.85,1.86,1.86,0,0,0,.43-.54h0a21.73,21.73,0,0,1-4-2.94l0,0A13.27,13.27,0,0,1,30.28,48c-.11-1,1-1.83,1-1.83a.35.35,0,0,0,.06-.49.34.34,0,0,0-.48-.06h0a3.92,3.92,0,0,0-1.15,1.5A9.08,9.08,0,0,1,29,45.41a.31.31,0,0,0,0-.1Zm0,0"/><path class="cls-10" d="M45.4,39.88a2.36,2.36,0,0,0,.12-.51,2.11,2.11,0,0,0-.51-.12,2.94,2.94,0,0,0-2.9,1.81,2.36,2.36,0,0,0-.12.51,2.1,2.1,0,0,0,.51.11,2.93,2.93,0,0,0,2.9-1.8Zm0,0"/><path class="cls-10" d="M40.27,38.15a1.88,1.88,0,0,0-.5-.11,1.93,1.93,0,0,0-.12.5,2.93,2.93,0,0,0,1.81,2.9,1.91,1.91,0,0,0,.5.12,2,2,0,0,0,.12-.51,3,3,0,0,0-1.81-2.9Zm0,0"/><path class="cls-10" d="M43.15,38a1.88,1.88,0,0,0-.28-.43,1.86,1.86,0,0,0-.43.28,3,3,0,0,0-.71,3.35,2.65,2.65,0,0,0,.28.43,1.91,1.91,0,0,0,.44-.28,3,3,0,0,0,.7-3.35Zm0,0"/><path class="cls-11" d="M48.6,49.67a8.49,8.49,0,0,1-16.53-3.84c1.06-4.56,5.39-6.42,10-5.36S49.66,45.11,48.6,49.67Z"/><path class="cls-12" d="M37.23,43.83a1.29,1.29,0,1,1-1-1.54,1.29,1.29,0,0,1,1,1.54Zm0,0"/><rect class="cls-13" x="30.98" y="44.82" width="8.35" height="20.39" rx="4.17" ry="4.17" transform="translate(-16.91 94.41) rotate(-94.53)"/><rect class="cls-14" x="32.57" y="44.82" width="5.17" height="20.39" rx="2.58" ry="2.58" transform="matrix(-0.08, -1, 1, -0.08, -16.91, 94.41)"/><circle class="cls-10" cx="27.45" cy="56.9" r="0.62"/><circle class="cls-10" cx="28.29" cy="53.98" r="0.45"/><circle class="cls-10" cx="30.65" cy="55.32" r="0.76"/><circle class="cls-10" cx="34.87" cy="56.51" r="0.22"/><circle class="cls-10" cx="41.28" cy="53.26" r="0.7"/><circle class="cls-10" cx="43.65" cy="54.47" r="0.58"/><path class="cls-14" d="M23.74,53.82a1.35,1.35,0,0,0-.35,0,1.47,1.47,0,0,0,0,.36,2,2,0,0,0,1.74,1.6,1.43,1.43,0,0,0,.36,0,1.4,1.4,0,0,0,0-.35,2,2,0,0,0-1.74-1.61Zm0,0"/><path class="cls-14" d="M23.54,57.56a1.42,1.42,0,0,0,0,.36,1.09,1.09,0,0,0,.36,0,2,2,0,0,0,1.6-1.73,1.42,1.42,0,0,0,0-.36,1.45,1.45,0,0,0-.36,0,2,2,0,0,0-1.6,1.74Zm0,0"/><path class="cls-14" d="M22.88,55.67a1.94,1.94,0,0,0-.24.27,1.55,1.55,0,0,0,.27.24A2,2,0,0,0,25.27,56a1.94,1.94,0,0,0,.24-.27,1.55,1.55,0,0,0-.27-.24,2,2,0,0,0-2.36.14Zm0,0"/><ellipse class="cls-15" cx="64.38" cy="36.44" rx="12.77" ry="1.34"/><path class="cls-3" d="M63.36,18.81a4.09,4.09,0,0,1,7.85,1.44A4.09,4.09,0,1,1,72,28a4.27,4.27,0,0,1-1.66-.71L69,35.1l-8.73-1.59,1.41-7.78a4,4,0,0,1-1.8.08,4.08,4.08,0,1,1,1.46-8,4.16,4.16,0,0,1,2.06,1Z"/><path class="cls-3" d="M56.14,31a1.79,1.79,0,0,1,3.22-1.35,1.84,1.84,0,0,1,.79-.63,1.78,1.78,0,1,1,1.37,3.29,1.75,1.75,0,0,1-.77.14l1.33,3.19-3.58,1.5-1.34-3.19a1.87,1.87,0,0,1-.64.46,1.78,1.78,0,1,1-1.38-3.29,1.84,1.84,0,0,1,1-.12Z"/><path class="cls-16" d="M70.36,27.41l-.26,1.4L69,35.1l-8.74-1.59,1.33-7.31.07-.38,0-.14,8.73,1.59Z"/><path class="cls-16" d="M60.78,32.51l.24.57,1.08,2.58-3.66,1.53-1.26-3L57.12,34l0-.06,3.67-1.53Z"/><circle class="cls-7" cx="22.7" cy="17.64" r="1.12"/><rect class="cls-8" x="63.06" y="69.21" width="5.41" height="5.41" transform="translate(-25.13 36.78) rotate(-26.42)"/><rect class="cls-14" x="57.51" y="70.17" width="5.41" height="5.41" transform="translate(73.35 -20.74) rotate(47.55)"/><rect class="cls-3" x="71.66" y="70.17" width="5.41" height="5.41" transform="translate(-21.87 33.12) rotate(-21.97)"/><rect class="cls-16" x="59.01" y="64.32" width="3.04" height="3.04" transform="translate(50.98 -23.09) rotate(36.47)"/><rect class="cls-11" x="64.11" y="61.04" width="1.59" height="1.59" transform="translate(-24.72 60.02) rotate(-42.45)"/><rect class="cls-8" x="67.15" y="64.11" width="1.99" height="1.99" transform="translate(-18.03 26.94) rotate(-19.8)"/><rect class="cls-13" x="67.68" y="69.7" width="5.41" height="5.41" transform="translate(-30.49 76.92) rotate(-48.38)"/><rect class="cls-11" x="52.5" y="71.14" width="5.22" height="5.22" transform="translate(-25.46 29.2) rotate(-24.29)"/><polygon class="cls-17" points="64.61 89.82 58.07 89.82 58.07 91.82 64.61 91.82 71.16 91.82 71.16 89.82 64.61 89.82"/><path class="cls-18" d="M64.61,73.7h-16v1.49a16,16,0,0,0,9.49,14.63H71.16a16.07,16.07,0,0,0,9.48-14.63V73.7Z"/><ellipse class="cls-17" cx="73.4" cy="81.76" rx="6.6" ry="3.37" transform="translate(-35.94 70.98) rotate(-42.45)"/><circle class="cls-17" cx="52.64" cy="78.58" r="1.57"/></svg>