<svg id="Layer_1" data-name="Layer 1" xmlns="http://www.w3.org/2000/svg" viewBox="0 0 100 100"><defs><style>.cls-1{fill:#f9a63f;}.cls-2{fill:#fbca8c;}.cls-3{fill:#f05c38;}.cls-4{fill:#d05030;}</style></defs><title>french fries</title><rect class="cls-1" x="17.99" y="9.92" width="12" height="73.35" transform="translate(-8.74 5.66) rotate(-11.4)"/><rect class="cls-1" x="28.3" y="0.11" width="12" height="73.35" transform="translate(-0.74 0.7) rotate(-1.16)"/><rect class="cls-1" x="39.3" y="5.58" width="12" height="73.35" transform="translate(-0.84 0.92) rotate(-1.16)"/><rect class="cls-1" x="49.1" y="1.51" width="12" height="73.35" transform="translate(10 -11.41) rotate(13)"/><rect class="cls-1" x="69.04" y="9.92" width="12" height="73.35" transform="translate(12.4 -15.69) rotate(13)"/><rect class="cls-2" x="59.23" y="16.27" width="12" height="73.35" transform="translate(8.15 -8.7) rotate(8.14)"/><rect class="cls-2" x="51.7" y="19.33" width="12" height="38.92" transform="translate(-6.53 12.17) rotate(-11.4)"/><rect class="cls-2" x="20.19" y="17.25" width="12" height="32.43" transform="translate(-1.86 1.54) rotate(-3.26)"/><rect class="cls-2" x="34.13" y="11.82" width="12" height="60.4" transform="matrix(1, 0.09, -0.09, 1, 3.98, -3.47)"/><path class="cls-3" d="M58.39,41.86a9.21,9.21,0,0,1-18.33,0H14.75l4.71,50.66A8.25,8.25,0,0,0,27.67,100H70.78A8.24,8.24,0,0,0,79,92.52l4.72-50.66Z"/><path class="cls-4" d="M18.24,79.38l1.22,13.14A8.25,8.25,0,0,0,27.67,100H70.78A8.24,8.24,0,0,0,79,92.52l1.23-13.14Z"/></svg>