<svg id="Layer_1" data-name="Layer 1" xmlns="http://www.w3.org/2000/svg" viewBox="0 0 100 100"><defs><style>.cls-1{fill:#fcc991;}.cls-2{fill:#bf9b77;}</style></defs><title>ruler</title><rect class="cls-1" x="-9.62" y="38.91" width="119.24" height="22.18" transform="translate(-20.71 50) rotate(-45)"/><rect class="cls-2" x="7.65" y="77.55" width="1.73" height="8.46" transform="translate(-55.33 29.97) rotate(-45)"/><rect class="cls-2" x="20.87" y="64.33" width="1.73" height="8.46" transform="translate(-42.11 35.45) rotate(-45)"/><rect class="cls-2" x="34.09" y="51.11" width="1.73" height="8.46" transform="translate(-28.89 40.92) rotate(-45)"/><rect class="cls-2" x="47.31" y="37.89" width="1.73" height="8.46" transform="translate(-15.68 46.4) rotate(-45)"/><rect class="cls-2" x="60.52" y="24.68" width="1.73" height="8.46" transform="translate(-2.46 51.87) rotate(-45)"/><rect class="cls-2" x="73.74" y="11.46" width="1.73" height="8.46" transform="translate(10.76 57.35) rotate(-45)"/><rect class="cls-2" x="12.77" y="71.56" width="1.73" height="4.23" transform="translate(-48.1 31.22) rotate(-45)"/><rect class="cls-2" x="25.99" y="58.34" width="1.73" height="4.23" transform="translate(-34.88 36.69) rotate(-45)"/><rect class="cls-2" x="39.2" y="45.12" width="1.73" height="4.23" transform="translate(-21.67 42.17) rotate(-45)"/><rect class="cls-2" x="52.42" y="31.9" width="1.73" height="4.23" transform="translate(-8.45 47.64) rotate(-45)"/><rect class="cls-2" x="65.64" y="18.69" width="1.73" height="4.23" transform="translate(4.77 53.12) rotate(-45)"/><circle class="cls-2" cx="86.52" cy="13.48" r="3.75"/></svg>