<svg id="Layer_1" data-name="Layer 1" xmlns="http://www.w3.org/2000/svg" viewBox="0 0 100 100"><defs><style>.cls-1{fill:#fff;}.cls-2{fill:#f89c3e;}.cls-3{fill:#b2e2f9;}.cls-4{fill:#6ab8d9;}.cls-5{fill:#ffda79;}.cls-6{fill:#ffc63f;}</style></defs><title>chicken soup</title><path class="cls-1" d="M11.77,25a.08.08,0,0,0,0,0L25.49,40.05l4.91-4.46L16.73,20.53l.05,0a4.24,4.24,0,1,0-7.07-2.75A4.23,4.23,0,1,0,11.77,25Z"/><path class="cls-2" d="M30.88,65.3c7.38,5.1,16.13,5.11,21.91-.13s6.6-14,2.23-21.79c-3.71-6.66-14.56-11-28.09-11.62L29,34.64l-4.5-.6.17,4.53L22,36.23C21.38,49.76,24.61,61,30.88,65.3Z"/><polygon class="cls-3" points="50 90.44 29.58 90.44 29.58 96.66 50 96.66 70.42 96.66 70.42 90.44 50 90.44"/><path class="cls-4" d="M50,40.14H0v4.63A50.13,50.13,0,0,0,29.58,90.43H70.42A50.13,50.13,0,0,0,100,44.77V40.14Z"/><ellipse class="cls-3" cx="77.43" cy="65.29" rx="20.59" ry="10.51" transform="translate(-23.77 69.38) rotate(-42.45)"/><circle class="cls-3" cx="12.64" cy="55.34" r="4.9"/><path class="cls-5" d="M56.05,32.52a2.71,2.71,0,0,1-1-5.23,3.66,3.66,0,0,0,0-6.84,9.07,9.07,0,0,1,0-16.93,2.71,2.71,0,1,1,2,5.05,3.66,3.66,0,0,0,0,6.84,9.07,9.07,0,0,1,0,16.93,2.78,2.78,0,0,1-1,.18Zm0,0"/><path class="cls-6" d="M70.65,32.52a2.71,2.71,0,0,1-1-5.23,3.66,3.66,0,0,0,0-6.84,9.07,9.07,0,0,1,0-16.93,2.71,2.71,0,1,1,2,5.05,3.66,3.66,0,0,0,0,6.84,9.07,9.07,0,0,1,0,16.93,2.77,2.77,0,0,1-1,.18Zm0,0"/></svg>