<svg id="Layer_1" data-name="Layer 1" xmlns="http://www.w3.org/2000/svg" viewBox="0 0 100 100"><defs><style>.cls-1{fill:#bcd2de;}.cls-2{fill:#895234;}.cls-3{fill:#9e715a;}.cls-4{fill:#ebf7fd;}.cls-5{fill:#a7d4ea;}.cls-6{fill:#ffdb91;}.cls-7{fill:#ffc640;}</style></defs><title>iced tea</title><ellipse class="cls-1" cx="49.79" cy="18.41" rx="31.16" ry="9.49"/><path class="cls-1" d="M18.62,18.41v61c0,17.14,14,20.64,31.17,20.64S81,96.5,81,79.36V18.41Z"/><path class="cls-2" d="M23.81,27.6V76.33c0,14.34,11.73,17.26,26.06,17.26s26.07-2.92,26.07-17.26V27.6Z"/><ellipse class="cls-3" cx="49.87" cy="27.87" rx="26.07" ry="7.02"/><rect class="cls-4" x="32.26" y="48.78" width="19.35" height="19.35" transform="translate(34.85 -13.13) rotate(30)"/><rect class="cls-5" x="53.04" y="61.74" width="14.84" height="14.84" transform="matrix(-0.99, 0.15, -0.15, -0.99, 130.48, 128.6)"/><circle class="cls-3" cx="60.81" cy="47.37" r="2.72"/><circle class="cls-3" cx="31.69" cy="39.67" r="1.6"/><circle class="cls-3" cx="44.66" cy="83.45" r="2.72"/><path class="cls-6" d="M80.8,17.2,64,20.71A17.2,17.2,0,1,1,80.88,34.4Z"/><path class="cls-7" d="M77.74,17,67.5,18.86A.9.9,0,0,1,66.43,18c0-1.91.24-5.86,1.72-7.87a.89.89,0,0,1,1.18-.2l8.72,5.42A.9.9,0,0,1,77.74,17Z"/><path class="cls-7" d="M79.76,14.16l-7.5-7.53a.91.91,0,0,1,.13-1.41C74,4.13,77.46,2,80,2.13a.9.9,0,0,1,.85.88l.47,10.46A.92.92,0,0,1,79.76,14.16Z"/><path class="cls-7" d="M82.47,14.23,84.78,3.7A.93.93,0,0,1,86.05,3c1.81.77,5.5,2.56,6.82,4.79A.92.92,0,0,1,92.59,9l-8.66,6.15A.94.94,0,0,1,82.47,14.23Z"/><path class="cls-7" d="M84.44,16.41l10.75-2.72a1,1,0,0,1,1.2.86c.12,2,.16,6.25-1.28,8.49a1,1,0,0,1-1.24.3l-9.65-5.15A1,1,0,0,1,84.44,16.41Z"/><path class="cls-7" d="M84,19.75,91.59,28a1,1,0,0,1-.19,1.48c-1.74,1.09-5.46,3.19-8.15,3a1,1,0,0,1-.87-1l-.12-11.07A1,1,0,0,1,84,19.75Z"/></svg>