<svg id="Layer_1" data-name="Layer 1" xmlns="http://www.w3.org/2000/svg" viewBox="0 0 100 100"><defs><style>.cls-1{fill:#09a582;}.cls-2{fill:#f37d3b;}.cls-3{fill:#ffc640;}.cls-4{fill:#231f20;}.cls-5{fill:#069172;}.cls-6{fill:#038c6e;}</style></defs><title>tyrannosaurus rex</title><rect class="cls-1" x="51.34" y="18.16" width="48.66" height="24.72" rx="6.08" ry="6.08"/><path class="cls-1" d="M77.82,32.61c-.6,1.35-1.07,2.22-1.62,3.25s-1.06,2-1.61,2.92Q73,41.65,71.22,44.39c-2.3,3.69-4.84,7.22-7.46,10.67a93.05,93.05,0,0,1-18.6,18.53,46.07,46.07,0,0,1-5.61,3.64l-2.91,1.63-3.13,1.31a25.56,25.56,0,0,1-3.13,1.19l-3.26.86a49,49,0,0,1-6.21,1.11,55,55,0,0,1-12.52.41,13.7,13.7,0,0,1-6.2-2,4.89,4.89,0,0,1-2-2.66A4.65,4.65,0,0,1,.36,76,3.8,3.8,0,0,0,3,80.2a11.69,11.69,0,0,0,5.3,0A51.39,51.39,0,0,0,19,76.57,39.11,39.11,0,0,0,24,74l2.22-1.37A18.55,18.55,0,0,0,28.32,71l2-1.65,1.81-1.92a33.67,33.67,0,0,0,3.37-4,76.49,76.49,0,0,0,10-18.9c1.25-3.41,2.43-6.84,3.36-10.35.48-1.74.92-3.5,1.3-5.24.2-.87.39-1.74.54-2.59A19.38,19.38,0,0,0,51.09,24c-.11-3.21,7.12-8.4,15.1-8S80.34,17.36,80,25.34a14.31,14.31,0,0,1-1.22,5.2Z"/><ellipse class="cls-1" cx="57.08" cy="57.27" rx="16.64" ry="11.97" transform="translate(-21.06 78.07) rotate(-60)"/><rect class="cls-1" x="45.22" y="59.95" width="6.86" height="24.09" rx="1.69" ry="1.69"/><rect class="cls-1" x="57.08" y="59.47" width="6.86" height="24.09" rx="1.69" ry="1.69"/><path class="cls-1" d="M76.55,55.81a2,2,0,0,1-1.73-1c-2-3.24-3.28-3.81-3.58-3.79s-1,1-1.21,1.67a2,2,0,1,1-3.87-1.24c.13-.41,1.4-4.09,4.59-4.47,2.54-.3,5,1.57,7.54,5.71a2,2,0,0,1-1.74,3.1Z"/><path class="cls-1" d="M74,62.66a2,2,0,0,1-1.74-1c-2-3.24-3.33-3.82-3.58-3.8s-1,.91-1.21,1.69a2,2,0,0,1-3.86-1.25c.13-.42,1.39-4.09,4.58-4.47,2.53-.3,5,1.56,7.54,5.71a2,2,0,0,1-.68,2.79A1.91,1.91,0,0,1,74,62.66Z"/><path class="cls-2" d="M99.7,27.85H72.85a3.75,3.75,0,1,0,0,7.49H99a12.11,12.11,0,0,0,1-4.82A12.34,12.34,0,0,0,99.7,27.85Z"/><polygon class="cls-3" points="72.85 27.85 76.06 27.85 74.45 32.53 72.85 27.85"/><polygon class="cls-3" points="76.06 27.85 79.28 27.85 77.67 32.53 76.06 27.85"/><polygon class="cls-3" points="79.28 27.85 82.5 27.85 80.89 32.53 79.28 27.85"/><polygon class="cls-3" points="82.5 27.85 85.72 27.85 84.11 32.53 82.5 27.85"/><polygon class="cls-3" points="85.72 27.85 88.94 27.85 87.33 32.53 85.72 27.85"/><polygon class="cls-3" points="88.94 27.85 92.16 27.85 90.55 32.53 88.94 27.85"/><polygon class="cls-3" points="92.16 27.85 95.38 27.85 93.77 32.53 92.16 27.85"/><polygon class="cls-3" points="95.38 27.85 98.6 27.85 96.99 32.53 95.38 27.85"/><polygon class="cls-3" points="96.99 35.34 93.77 35.34 95.38 30.66 96.99 35.34"/><polygon class="cls-3" points="93.77 35.34 90.55 35.34 92.16 30.66 93.77 35.34"/><polygon class="cls-3" points="90.54 35.34 87.32 35.34 88.93 30.67 90.54 35.34"/><polygon class="cls-3" points="87.32 35.34 84.1 35.34 85.71 30.67 87.32 35.34"/><polygon class="cls-3" points="84.1 35.34 80.89 35.34 82.49 30.67 84.1 35.34"/><polygon class="cls-3" points="80.89 35.34 77.67 35.34 79.28 30.67 80.89 35.34"/><polygon class="cls-3" points="77.67 35.34 74.45 35.34 76.06 30.67 77.67 35.34"/><rect class="cls-4" x="56.53" y="26.96" width="2.7" height="2.7" rx="0.66" ry="0.66"/><rect class="cls-5" x="85.72" y="21.02" width="2.29" height="5.21" rx="0.56" ry="0.56"/><rect class="cls-5" x="92.62" y="21.02" width="2.29" height="5.21" rx="0.56" ry="0.56"/><polygon class="cls-6" points="55.36 34.2 53.58 34.2 52.69 35.74 53.58 37.28 55.36 37.28 56.25 35.74 55.36 34.2"/><polygon class="cls-6" points="61.6 35.19 58.61 35.19 57.12 37.77 58.61 40.37 61.6 40.37 63.1 37.77 61.6 35.19"/><polygon class="cls-6" points="55.8 38.99 51.91 38.99 49.96 42.36 51.91 45.73 55.8 45.73 57.75 42.36 55.8 38.99"/></svg>