<svg id="Layer_1" data-name="Layer 1" xmlns="http://www.w3.org/2000/svg" viewBox="0 0 100 100"><defs><style>.cls-1{fill:#05b58a;}.cls-2{fill:#09a481;}.cls-3{fill:#01896d;}.cls-4{fill:#9dc7db;}.cls-5{fill:#885e59;}.cls-6{fill:#6ab7d8;}</style></defs><title>lake</title><path class="cls-1" d="M44.37,28.05c-.07.66-.88,1.14-1.91,1.2a3.5,3.5,0,0,1-1.71.85,3.55,3.55,0,0,1-1.25.06,1.22,1.22,0,0,1-.73.41c-.55.12-1-.07-1.12-.41v-.08c-.72.28-1.3.3-1.5,0a.62.62,0,0,1,0-.57,2.18,2.18,0,0,1,.19-.37,2,2,0,0,1-1.85-1.34A1.82,1.82,0,0,1,35.33,26a1.07,1.07,0,0,1-.13-.31c-.14-.7.5-1.43,1.48-1.75a1.83,1.83,0,0,1,3.39-.39,1,1,0,0,1,.37-.16A1.39,1.39,0,0,1,42,24.65v0l.14.06a1.16,1.16,0,0,1,1.1.1c.44.33.48,1.06.19,1.86a2,2,0,0,1,.84.75A1,1,0,0,1,44.37,28.05Z"/><path class="cls-1" d="M67.06,28.14v.17A1.49,1.49,0,0,1,66,29.48v.05a.94.94,0,0,1-.94.94.93.93,0,0,1-.89-.64,2.73,2.73,0,0,1-.72.09,2,2,0,0,1-2-1.1,1.09,1.09,0,0,1,0-.26v-.07a1.1,1.1,0,0,1-.87-.94.81.81,0,0,1,.2-.52.82.82,0,0,1-.36-.62c0-.47.54-.87,1.3-1a1.1,1.1,0,0,1,0-.18,1,1,0,0,1,1-1h.06a.9.9,0,0,1,.75-.47,1,1,0,0,1,.88.78,1.91,1.91,0,0,1,.38-.31,1.59,1.59,0,0,1,2.21.3,1.27,1.27,0,0,1,.16,1,1.31,1.31,0,0,1,0,2.61Z"/><rect class="cls-2" x="28.82" y="32.76" width="71.18" height="15.74" rx="4.47" ry="4.47"/><polyline class="cls-2" points="69.09 74.83 97.54 46.39 97.54 36.63 95.81 34.15 51.73 55.55"/><path class="cls-2" d="M31.18,35,3,63.33H68.14L97,34.46h-.07a7.74,7.74,0,0,0-4.81-1.7H36.69a7.78,7.78,0,0,0-3.61.93"/><path class="cls-3" d="M63.31,61.65H7.87a7.87,7.87,0,0,0,0,15.74H63.31a7.87,7.87,0,1,0,0-15.74Z"/><path class="cls-2" d="M86.87,44.6,88,43.51H81.84A7.76,7.76,0,0,1,86.44,45Z"/><polygon class="cls-2" points="77.28 48.82 82.72 48.82 80 46.42 77.28 48.82"/><path class="cls-4" d="M53.69,35c-6.9.15-20.91,4.08-24.86,6.29-3.21,1.79-1.81,3.61,3.82,2.5,5.24-1,10.34-3.88,12.05-3.86,3.07,0-14.21,10.47-13.11,16,1.13,5.7,19.42,1.8,31-2.51,18.77-7,27.82-17,23.68-18.55-3-1.13-11.26,2.43-21.8,2.29C57,37,59.19,34.88,53.69,35Z"/><path class="cls-5" d="M39,27.54l.49,0a.18.18,0,0,1,.18.16l.63,6.63c0,.35-.09.65-.27.66l-1,0c-.18,0-.33-.29-.32-.64l.13-6.66A.18.18,0,0,1,39,27.54Z"/><path class="cls-5" d="M64,27.54l.49,0a.18.18,0,0,1,.18.16l.63,6.63c0,.35-.09.65-.27.66l-1,0c-.19,0-.33-.29-.33-.64l.13-6.66A.18.18,0,0,1,64,27.54Z"/><path class="cls-1" d="M78.74,26l.12.07.08.06a2.08,2.08,0,0,1,.79,1.89l.06,0c.63.44.9,1.14.6,1.57a1.05,1.05,0,0,1-1.28.19,1.9,1.9,0,0,1-.31.66,2,2,0,0,1-2.45.7A1.63,1.63,0,0,1,76,31L75.93,31a1.57,1.57,0,0,1-1.64-.08,1.52,1.52,0,0,1-.5-.6,1.37,1.37,0,0,1-1-.23,1.69,1.69,0,0,1-.5-1.93,1.58,1.58,0,0,1-.24-.15c-.63-.43-.9-1.14-.6-1.57a.1.1,0,0,0,0,0,.93.93,0,0,1-.14-1c.24-.34.83-.35,1.44-.07a1.86,1.86,0,0,1-.15-.56,1.29,1.29,0,0,1,1.62-1.57,2.62,2.62,0,0,1,1.28.7A2.14,2.14,0,0,1,78.74,26Z"/><path class="cls-5" d="M75.46,28.08l.5,0a.18.18,0,0,1,.18.16l.63,6.64c0,.34-.09.65-.28.65l-1,0c-.19,0-.33-.28-.32-.63l.13-6.66A.18.18,0,0,1,75.46,28.08Z"/><path class="cls-1" d="M84.82,42.42c-.07.66-.88,1.14-1.91,1.2a3.51,3.51,0,0,1-1.71.86,3.8,3.8,0,0,1-1.25.05,1.28,1.28,0,0,1-.73.42c-.55.11-1-.08-1.12-.42v-.08c-.72.28-1.3.31-1.5,0a.62.62,0,0,1,0-.57,1.86,1.86,0,0,1,.19-.37,2,2,0,0,1-1.85-1.34,1.83,1.83,0,0,1,.86-1.78,1,1,0,0,1-.13-.3c-.14-.7.5-1.44,1.48-1.76A1.8,1.8,0,0,1,78.52,37a1.83,1.83,0,0,1,2,.93.93.93,0,0,1,.37-.15A1.38,1.38,0,0,1,82.41,39v0l.14.06a1.16,1.16,0,0,1,1.1.1c.44.34.48,1.06.19,1.87a1.93,1.93,0,0,1,.84.74A1,1,0,0,1,84.82,42.42Z"/><path class="cls-1" d="M39.47,41.71c-.26.61-1.18.83-2.18.57a3.53,3.53,0,0,1-1.88.32,4.12,4.12,0,0,1-1.22-.32,1.3,1.3,0,0,1-.82.17c-.55-.05-1-.38-.94-.73a.19.19,0,0,1,0-.07c-.77.05-1.33-.1-1.44-.44a.63.63,0,0,1,.16-.55,2.47,2.47,0,0,1,.28-.29,2,2,0,0,1-1.36-1.83,1.82,1.82,0,0,1,1.34-1.44,1.22,1.22,0,0,1,0-.33c.07-.71.9-1.23,1.93-1.24a1.84,1.84,0,0,1,3.36.64,1,1,0,0,1,.39,0,1.4,1.4,0,0,1,1.09,1.62v0l.12.1a1.15,1.15,0,0,1,1,.42c.31.45.14,1.16-.38,1.83a2,2,0,0,1,.58,1A1,1,0,0,1,39.47,41.71Z"/><path class="cls-6" d="M45.59,49.67c2.23-3,3.59-3.41,4.42-3.22s1.08.95,2.4,1.83a8.3,8.3,0,0,0,3.27,1.25,5.62,5.62,0,0,1-3.6-.53C51,48.4,50.81,47.72,50,47.46S47.89,47.39,45.59,49.67Z"/><path class="cls-6" d="M64.79,43.28c2.23,1.81,3.59,2.07,4.42,2s1.08-.58,2.4-1.11a11.64,11.64,0,0,1,3.27-.76,8.8,8.8,0,0,0-3.6.32c-1.06.36-1.27.78-2.07.93S67.09,44.66,64.79,43.28Z"/><path class="cls-6" d="M60.54,42.61c-2.23-3-3.59-3.41-4.42-3.22s-1.08,1-2.4,1.83a8.35,8.35,0,0,1-3.27,1.25,5.62,5.62,0,0,0,3.6-.53c1.06-.6,1.27-1.28,2.07-1.54S58.24,40.33,60.54,42.61Z"/><path class="cls-5" d="M79.43,41.91l.49,0a.18.18,0,0,1,.18.16l.63,6.64c0,.34-.09.64-.27.65l-1,0c-.18,0-.33-.29-.32-.63l.13-6.67A.18.18,0,0,1,79.43,41.91Z"/><path class="cls-5" d="M34.79,39.71l.49,0a.18.18,0,0,1,.18.16l.63,6.64c0,.34-.09.64-.27.65l-1,0c-.18,0-.33-.29-.32-.63l.13-6.67A.18.18,0,0,1,34.79,39.71Z"/></svg>