<svg id="Layer_1" data-name="Layer 1" xmlns="http://www.w3.org/2000/svg" viewBox="0 0 100 100"><defs><style>.cls-1{fill:#f27d3b;}.cls-2{fill:#ffc53f;}.cls-3{fill:#3f3f40;}.cls-4{opacity:0.43;}.cls-5{fill:#885e59;}</style></defs><title>duckling</title><path class="cls-1" d="M83.15,23.64a62.05,62.05,0,0,1-24.09-5.15,2.67,2.67,0,1,1,2.26-4.83c.17.08,17.34,7.94,33.45,3a2.67,2.67,0,0,1,1.57,5.1A44.67,44.67,0,0,1,83.15,23.64Z"/><path class="cls-1" d="M60.19,38.1a2.67,2.67,0,0,1-.1-5.34c4.42-.15,24.14-6.9,36.32-11.4a2.67,2.67,0,0,1,1.84,5c-3.18,1.17-31.29,11.5-38,11.72Z"/><polygon class="cls-1" points="58.3 16.74 46.62 27.31 58.96 36.32 95.55 23.42 87.66 21.41 58.3 16.74"/><path class="cls-2" d="M80.94,79.51c0,16.95-17.94,16.62-40.07,16.62-15.76,0-29.39.16-35.94-5.86C2.29,87.84.8,84.39.8,79.51A25.06,25.06,0,0,1,5.14,65.58a33.91,33.91,0,0,1,10-9.61,47.74,47.74,0,0,1,25.63-7.16h.08C63,48.81,80.94,62.55,80.94,79.51Z"/><path class="cls-2" d="M75.43,33c-.09.21-.18.43-.28.64-4.84,10.51-26.9,36-37.41,31.14s-5.48-38.16-.64-48.67a20.58,20.58,0,0,1,2.84-4.54A20.95,20.95,0,0,1,75.43,33Z"/><circle class="cls-3" cx="44.25" cy="21.49" r="2.37"/><path class="cls-2" d="M22.25,58.77,8.3,68.26a13.68,13.68,0,0,1-3.16-2.68C2.11,62.21-1.67,55.36.8,43.42c0,0,1.71,9.3,6.08,8.82a12.86,12.86,0,0,1,0-6.9S7.79,51.65,15.16,56A26.72,26.72,0,0,0,22.25,58.77Z"/><g class="cls-4"><path class="cls-5" d="M75.43,33A33.22,33.22,0,0,0,53.61,11.68a26.64,26.64,0,0,0-13.67-.16A20.95,20.95,0,0,1,75.43,33Z"/></g><g class="cls-4"><path class="cls-5" d="M36.33,17.91a27.68,27.68,0,0,1,7.47-.12c3.47.42,4.66,1.24,13,4.05,13.5,4.56,17.06,4.65,17,5.67-.13,2.38-19.86,2.94-27.14-.2a44.18,44.18,0,0,1-7-3.85c-1.76-1.23-2-1.59-2.94-2.15a8.34,8.34,0,0,0-1.27-.58Z"/></g><path class="cls-1" d="M75.83,17.72S75.3,25,70.5,25.48c0,0,4,4.09,4.21,9L83.6,23.31"/><g class="cls-4"><path class="cls-5" d="M63.56,78.37c-3,2.34-14.41-12.9-23-9.72-4.69,1.73-4,7.28-8.26,12.31C27,87.22,15.64,90.83,4.93,90.27,2.29,87.84.8,84.39.8,79.51A25.06,25.06,0,0,1,5.14,65.58C2.11,62.21-1.67,55.36.8,43.42c0,0,1.71,9.3,6.08,8.82a12.86,12.86,0,0,1,0-6.9S7.79,51.65,15.16,56a47.74,47.74,0,0,1,25.63-7.16C47.77,52,54.27,56.37,59,63.46,63.08,69.51,65.44,76.92,63.56,78.37Z"/></g></svg>