<svg id="Layer_1" data-name="Layer 1" xmlns="http://www.w3.org/2000/svg" viewBox="0 0 100 100"><defs><style>.cls-1{fill:#ffc540;}.cls-2{fill:#f27d3b;}.cls-3{fill:#ffc53f;}.cls-4{fill:#3f3f40;}.cls-5{fill:#fff;}.cls-6{fill:#b0d4e0;}</style></defs><title>toucan</title><path class="cls-1" d="M96.41,38.32c0,1,0,2.08-.13,3.11A35.62,35.62,0,0,1,92.75,54,35.73,35.73,0,0,0,28.5,54,35.77,35.77,0,0,1,84.7,11.84a36.35,36.35,0,0,1,7.61,9.83A35.64,35.64,0,0,1,96.41,38.32Z"/><path class="cls-2" d="M96.41,38.32A35.61,35.61,0,0,1,92.75,54,35.72,35.72,0,0,0,42.57,38.83c-4.39-11.26-5.82-20.72-3.28-23,5.15-4.56,27.87,19.61,42,11.32,4.54-2.66,5.87-7.29,7.15-11.33A35.55,35.55,0,0,1,96.41,38.32Z"/><polyline class="cls-3" points="53.21 85.28 48.18 85.28 50.7 100"/><polyline class="cls-3" points="38.15 85.28 33.12 85.28 35.64 100"/><path class="cls-4" d="M14.24,64c0,18.18,12.5,24.43,27.92,24.43S70.09,82.22,70.09,64,57.59,31.13,42.16,31.13,14.24,45.87,14.24,64Z"/><path class="cls-4" d="M19.69,54.08a22.95,22.95,0,0,0,45.89,0C65.58,41.41,55.31,0,42.64,0S19.69,41.41,19.69,54.08Z"/><path class="cls-5" d="M31.4,18.84C30.74,26.19,34.2,32,35.47,34c.91,1.47,6.85,11.07,12.35,9.52.64-.18,2.29-.79,4.33-4.31,5-8.64,6.28-24.31-1.12-30.14A12.26,12.26,0,0,0,41.8,6.89a12.08,12.08,0,0,0-8.56,5.51A14.28,14.28,0,0,0,31.4,18.84Z"/><ellipse class="cls-6" cx="42.84" cy="17.51" rx="10.04" ry="7.61" transform="translate(-3.35 14.68) rotate(-18.72)"/><circle class="cls-4" cx="46.98" cy="16.06" r="1.48"/><path class="cls-4" d="M36.07,42c-4.83-4.45-14.33-.65-15.06-.35C3.75,48.78,3.57,82.08,3.59,85.1c5.45-1.95,31.2-11.65,34.64-30C38.67,52.68,40,45.61,36.07,42Z"/><path class="cls-4" d="M48.91,61.49c-2-3.32-11-.4-11.7-.17C20.76,66.8,7.2,91.87,6,94.14c5.07-1.51,29.23-9,39.34-22.84C46.65,69.51,50.53,64.18,48.91,61.49Z"/><path class="cls-4" d="M52.59,67.35c-2-3.32-11-.4-11.7-.17C24.44,72.67,10.88,97.73,9.68,100,14.75,98.5,38.91,91,49,77.17,50.33,75.38,54.21,70.05,52.59,67.35Z"/><path class="cls-4" d="M96.41,38.32c0,1,0,2.08-.13,3.11l-.23-.22c-8.11-8.06-7.68-18.3-3.74-19.54A35.64,35.64,0,0,1,96.41,38.32Z"/></svg>