<svg id="Layer_1" data-name="Layer 1" xmlns="http://www.w3.org/2000/svg" viewBox="0 0 100 100"><defs><style>.cls-1{fill:#979797;}.cls-2{fill:#9dc7db;}</style></defs><title>stethoscope</title><path class="cls-1" d="M95.14,1.56H89.8l-.41,5.57h4.33L90,44.14a23,23,0,0,1-12.29,4.78,23.35,23.35,0,0,1-15.74-4.78l-3.76-37h4.28L62,1.56H56.75A4.15,4.15,0,0,0,52.5,6.3l5.1,40c.2,1.54,2,2.77,4,2.77A23.91,23.91,0,0,0,77.35,54a23.6,23.6,0,0,0,13-4.9A4.45,4.45,0,0,0,93,48.25a2.92,2.92,0,0,0,1.32-2l5.1-40A4.15,4.15,0,0,0,95.14,1.56Z"/><path class="cls-2" d="M91,26.31,88,61.46a26.77,26.77,0,0,1-24.3,0Q62.56,43.72,61.42,26l-7.35.21,3.16,38.14c.2,1.55,11.48,7.84,19.58,7.56,7.06-.25,15.3-4.77,16.51-5.59a2.93,2.93,0,0,0,1.34-2l3.18-37.93Z"/><rect class="cls-2" x="60.62" width="6.33" height="8.37" rx="1.2" ry="1.2"/><rect class="cls-2" x="84.75" width="6.33" height="8.37" rx="1.2" ry="1.2"/><path class="cls-2" d="M57.73,100a15.81,15.81,0,0,1-7.27-1.66c-11.6-5.94-10.53-25-9.4-45.23.55-9.77,1.12-19.87.16-28.09-1-8.5-3.5-13.81-7.65-16.23A13.17,13.17,0,0,0,22.43,8c-3,1.29-5.45,4.27-7.09,8.61-1.79,4.72-2.49,10.7-2,17.31l-6.42.43c-1.09-16,3.89-28.34,13-32.26A19.44,19.44,0,0,1,36.81,3.23c13.07,7.61,11.85,29.28,10.68,50.24-1,17.26-2,35.11,5.9,39.15,3.24,1.66,7.81.89,10.68-.52,10.2-5,9.26-24.14,9.25-24.33l6.42-.36a53.43,53.43,0,0,1-1.07,12.72C76.82,88.86,72.75,95,66.91,97.87A21.49,21.49,0,0,1,57.73,100Z"/><circle class="cls-1" cx="9.44" cy="33.13" r="8.87"/><circle class="cls-2" cx="9.44" cy="33.13" r="6.22"/></svg>