<svg id="Layer_1" data-name="Layer 1" xmlns="http://www.w3.org/2000/svg" viewBox="0 0 100 100"><defs><style>.cls-1{fill:#f27d3b;}.cls-2{opacity:0.6;}.cls-3{fill:#c95f2a;}.cls-4{fill:#ffc540;}.cls-5{fill:#ffdfa0;}</style></defs><title>mac and cheese</title><path class="cls-1" d="M76.36,83H23.64c-8.1,0-16.49-8.22-18.86-19.28l-1.35-6.3c-2.82-13.13,3-25.11,13.23-25.11H83.34c10.24,0,16,12,13.23,25.11l-1.35,6.3C92.85,74.75,84.46,83,76.36,83Z"/><g class="cls-2"><rect class="cls-3" y="19.55" width="100" height="50.69" rx="7.54" ry="7.54"/></g><rect class="cls-1" y="17.03" width="100" height="50.69" rx="7.54" ry="7.54"/><rect class="cls-4" x="5.84" y="22.42" width="88.32" height="36.93" rx="5.7" ry="5.7"/><path class="cls-5" d="M30.39,34a7.38,7.38,0,0,0,4.3,9.5l1.85-5.05A2.06,2.06,0,0,1,38,34.54l1.86-5.06A7.39,7.39,0,0,0,30.39,34Z"/><path class="cls-5" d="M43.28,47.41A7.39,7.39,0,0,0,33,49.32l4.47,3a2.06,2.06,0,0,1,2.84-.53,2,2,0,0,1,.58,2.83l4.47,3A7.38,7.38,0,0,0,43.28,47.41Z"/><path class="cls-5" d="M52,39.55a7.37,7.37,0,0,0-9.35-4.62L44.45,40a2.06,2.06,0,0,1,1.36,3.89L47.59,49A7.37,7.37,0,0,0,52,39.55Z"/><path class="cls-5" d="M53.8,47.54A7.37,7.37,0,0,0,52.63,57.9l4.18-3.39a2.06,2.06,0,0,1,3.2-2.6l4.18-3.4A7.39,7.39,0,0,0,53.8,47.54Z"/><path class="cls-5" d="M59.47,42.55a7.36,7.36,0,0,0,10.07-2.69l-4.68-2.65a2.06,2.06,0,0,1-3.59-2l-4.69-2.65A7.38,7.38,0,0,0,59.47,42.55Z"/><path class="cls-5" d="M50.7,31.75a7.38,7.38,0,0,0,6.88-7.84l-5.37.4a2.06,2.06,0,0,1-4.11.3l-5.37.4A7.39,7.39,0,0,0,50.7,31.75Z"/><path class="cls-5" d="M18.94,46.36a7.38,7.38,0,0,0-3.88-9.69l-2.07,5a2.06,2.06,0,0,1-1.59,3.8l-2.07,5A7.37,7.37,0,0,0,18.94,46.36Z"/><path class="cls-5" d="M22.17,49.48a7.38,7.38,0,0,0,5.89,8.61l.94-5.3a2.06,2.06,0,0,1,.72-4.06l1-5.3A7.37,7.37,0,0,0,22.17,49.48Z"/><path class="cls-5" d="M21.56,25.7A7.37,7.37,0,0,0,13,31.64l5.3.91a2.07,2.07,0,0,1,4.07.7l5.3.91A7.36,7.36,0,0,0,21.56,25.7Z"/><path class="cls-5" d="M88.61,34.72a7.38,7.38,0,0,0-10.14-2.47l2.84,4.57a2.06,2.06,0,0,1,2.18,3.5l2.84,4.58A7.38,7.38,0,0,0,88.61,34.72Z"/><path class="cls-5" d="M70.85,24.69a7.37,7.37,0,0,0-4.48,9.42l5-1.85a2.06,2.06,0,0,1,3.87-1.42L80.35,29A7.37,7.37,0,0,0,70.85,24.69Z"/><path class="cls-5" d="M76.29,49.31a7.38,7.38,0,0,0-1-10.38L71.9,43.11a2.06,2.06,0,0,1-2.59,3.21l-3.38,4.19A7.38,7.38,0,0,0,76.29,49.31Z"/><path class="cls-5" d="M80,47.8A7.38,7.38,0,0,0,80,58.23l3.75-3.86a2.06,2.06,0,0,1,2.88-2.95l3.75-3.86A7.38,7.38,0,0,0,80,47.8Z"/></svg>