<svg id="Layer_1" data-name="Layer 1" xmlns="http://www.w3.org/2000/svg" viewBox="0 0 100 100"><defs><style>.cls-1{fill:#008b6e;}.cls-2{fill:#09a481;}.cls-3{fill:#9dc7db;}.cls-4{fill:#01604a;}.cls-5{fill:#3f3f40;}.cls-6{opacity:0.41;}.cls-7{fill:#6ab7d8;}</style></defs><title>nessie</title><path class="cls-1" d="M61.86,10l8.48,3.86-5.47,4.89C63.87,15.88,62.86,13,61.86,10Z"/><path class="cls-1" d="M55.29,13.92l9.3.57L61.24,21Z"/><path class="cls-1" d="M51.54,21.53l9.3-.53-2.57,6.87Z"/><path class="cls-1" d="M48.92,31.73,58,29.61l-1.34,7.2Z"/><path class="cls-1" d="M48.55,41.49l8.68-3.38-.31,7.32Z"/><path class="cls-1" d="M49.05,50.59l8.18-4.46.63,7.3Z"/><path class="cls-1" d="M49.64,58.34l8.3-4.21.42,7.31Z"/><path class="cls-1" d="M24.34,16.73l5.26,6.48L23.27,25C23.63,22.21,24,19.47,24.34,16.73Z"/><path class="cls-1" d="M9.5,31.56l7.63.46-2.75,5.35C12.75,35.43,11.12,33.5,9.5,31.56Z"/><path class="cls-1" d="M13.65,24.49l7.27,2.36-4,4.49Z"/><path class="cls-1" d="M34.91,15.28l2.7,8.91-7.28-.87Q32.63,19.3,34.91,15.28Z"/><path class="cls-1" d="M45.13,19.2l-2.07,9.08-5.89-4.36Z"/><path class="cls-1" d="M7.36,39.82l7.31-2.23-.71,6Z"/><path class="cls-1" d="M7.6,49.32l5.63-5.18,1.95,5.69Z"/><path class="cls-2" d="M50.35,84.37a12.65,12.65,0,0,1-4.89-1,12.36,12.36,0,0,1-6.14-5.8,24.2,24.2,0,0,1-2.22-7c-1.18-5.23-2.64-6.13-3.59-8.52a18.4,18.4,0,0,1-.6-2.09c-.89-4.25,3.27-9.87,3.36-16.9,0-2.06.08-5.6-2.32-7.46a6.78,6.78,0,0,0-6.4-.65c-3.93,1.55-5.16,6.42-5.83,9.08C18.94,55,24.53,66,27.23,70.6L14.77,73.46C8.93,48,12.65,28.8,24.49,23.32c1.68-.78,7.65-3.09,13.84-.14a15.42,15.42,0,0,1,6.89,6.62A27.15,27.15,0,0,1,48,38.09c1,5.38,1,11.5,1.06,17.41A110.63,110.63,0,0,0,49.51,67a13.79,13.79,0,0,0,1.08,4.61,10,10,0,0,0,5.55-3.51c1.88-2.38,1.55-5.46.29-12.44-1.4-7.72-3.14-17.34.7-29.32C58.58,21.8,61.28,14.22,69,9.92c8.9-5,18.38-2,20.43-1.33L81,24.8c-1.37-.14-6.74-.56-8.85,2.51-1.18,1.72-.85,4.49.62,9.75,5,18,6.86,18.46,6.13,22.4C78.4,62.32,74.33,66.88,66.18,76a25.36,25.36,0,0,1-8.63,6.7A17.34,17.34,0,0,1,50.35,84.37Z"/><path class="cls-3" d="M99.24,67.09c-1,16-29,29.28-52.88,28.92C27.12,95.73,1,86.43,0,72c-.62-9.42,9.08-20.72,19.58-22.46a17.33,17.33,0,0,1,4.68-.15C35.5,50.58,41.43,63,55.26,63c14.46,0,20.18-14.93,29.63-14.75a9.26,9.26,0,0,1,2.27.32C94.22,50.49,99.72,59.53,99.24,67.09Z"/><path class="cls-1" d="M86.17,8.05S86.49,6.64,89.4,4C89.4,4,91,8.73,88,12"/><path class="cls-2" d="M73.1,15.21c.18,3.82,3.71,6.87,7,7.79C86,24.65,93,20,93.48,15.21a6.5,6.5,0,0,0-1.18-4.16c-3-4.51-10.14-3.47-11.31-3.3-1.9.28-4.95.73-6.71,3.3A7.11,7.11,0,0,0,73.1,15.21Z"/><path class="cls-2" d="M81,24.8l12.12.6A6.86,6.86,0,0,0,100,18.56h0a6.86,6.86,0,0,0-6.84-6.84H84a6.86,6.86,0,0,0-6.85,6.84h0a7.89,7.89,0,0,0,2,4.83A7.09,7.09,0,0,0,81,24.8Z"/><rect class="cls-2" x="95.21" y="10.87" width="3.82" height="5.18" rx="0.72" ry="0.72" transform="translate(194.23 26.92) rotate(-180)"/><rect class="cls-2" x="91.95" y="10.66" width="3.82" height="5.18" rx="0.72" ry="0.72" transform="translate(187.71 26.49) rotate(-180)"/><path class="cls-2" d="M75.58,8.05S75.27,6.64,72.36,4c0,0-1.64,4.75,1.41,8"/><rect class="cls-1" x="77.85" y="18.03" width="22.15" height="1.16" rx="0.21" ry="0.21" transform="translate(177.85 37.21) rotate(-180)"/><circle class="cls-4" cx="97.33" cy="12.57" r="0.73"/><circle class="cls-4" cx="93.99" cy="12.35" r="0.73"/><circle class="cls-1" cx="77.01" cy="13.11" r="1.43"/><circle class="cls-5" cx="76.99" cy="12.64" r="0.64"/><g class="cls-6"><path class="cls-7" d="M84.89,48.28C81.09,62,61.2,73,47.44,68.56c-6.86-2.21-7.15-6.42-14.53-13.12a41.69,41.69,0,0,0-8.62-6.06C35.5,50.58,41.43,63,55.26,63,69.72,63.08,75.44,48.1,84.89,48.28Z"/></g></svg>