<svg id="Layer_1" data-name="Layer 1" xmlns="http://www.w3.org/2000/svg" viewBox="0 0 100 100"><defs><style>.cls-1{fill:#885e59;}.cls-2{fill:#ffc540;}.cls-3{fill:#b67c77;}.cls-4{fill:#805852;}.cls-5{fill:#ffdfa0;}</style></defs><title>banana bread</title><path class="cls-1" d="M96,22.41H29.29V77.56H73.53c12.94,0,23.53,1.84,23.53-23.52V40.19A4,4,0,0,0,100,36.32V26.46A4.06,4.06,0,0,0,96,22.41Z"/><path class="cls-2" d="M51,22.41H9a9,9,0,0,0-9,9H0A8.93,8.93,0,0,0,2.94,38V54c0,23.55,10.59,23.52,23.53,23.52h7.07c12.94,0,23.53,0,23.53-23.52V38A8.93,8.93,0,0,0,60,31.39h0A9,9,0,0,0,51,22.41Z"/><path class="cls-3" d="M51,26.33a5.07,5.07,0,0,1,5.06,5.06,5,5,0,0,1-1.67,3.7l-1.27,1.17V54c0,9.25-1.7,14.93-5.19,17.35-3.25,2.25-8.38,2.25-14.32,2.25H26.37c-5.94,0-11.07,0-14.32-2.25C8.56,69,6.86,63.29,6.86,54V36.26L5.59,35.09a5,5,0,0,1-1.67-3.7A5.07,5.07,0,0,1,9,26.33H51m0-3.92H9a9,9,0,0,0-9,9H0A8.93,8.93,0,0,0,2.94,38V54c0,23.49,10.54,23.52,23.43,23.52h7.27c12.9,0,23.43,0,23.43-23.52V38A8.93,8.93,0,0,0,60,31.39h0a9,9,0,0,0-9-9Z"/><rect class="cls-4" x="58" y="37.66" width="38.69" height="2.92" rx="0.62" ry="0.62"/><circle class="cls-4" cx="59.66" cy="44.39" r="0.91"/><circle class="cls-4" cx="62.91" cy="49.76" r="0.91"/><circle class="cls-4" cx="77.55" cy="49.76" r="0.91"/><circle class="cls-4" cx="92.19" cy="49.76" r="0.91"/><circle class="cls-4" cx="66.8" cy="44.39" r="0.91"/><circle class="cls-4" cx="73.94" cy="44.39" r="0.91"/><circle class="cls-4" cx="81.08" cy="44.39" r="0.91"/><circle class="cls-4" cx="88.21" cy="44.39" r="0.91"/><circle class="cls-4" cx="95.35" cy="44.39" r="0.91"/><circle class="cls-5" cx="14.53" cy="37.48" r="3.09"/><circle class="cls-5" cx="26.31" cy="55.8" r="1.79"/><circle class="cls-5" cx="43.3" cy="43.47" r="1.79"/><circle class="cls-5" cx="42" cy="66.99" r="0.9"/></svg>