<svg id="Layer_1" data-name="Layer 1" xmlns="http://www.w3.org/2000/svg" viewBox="0 0 100 100"><defs><style>.cls-1{fill:#c8754b;}.cls-2{fill:#f27d3b;}.cls-3{fill:gray;}.cls-4{fill:#3f3f40;}.cls-5{fill:#cbcbca;}.cls-6{opacity:0.1;}</style></defs><title>drone</title><path class="cls-1" d="M59.53,57.88l27.34-4.17c.37-.06.67-.9.67-1.88v-2c0-1-.3-1.83-.67-1.89L59.53,43.73A4,4,0,0,0,55,48v5.66A4,4,0,0,0,59.53,57.88Z"/><path class="cls-1" d="M39.63,44.81,12.29,49c-.37.05-.67.9-.67,1.88v2c0,1,.3,1.83.67,1.88L39.63,59a4,4,0,0,0,4.5-4.24V49.05A4,4,0,0,0,39.63,44.81Z"/><path class="cls-1" d="M56.59,61.16,52.42,88.5c-.05.37-.9.67-1.88.67h-2c-1,0-1.83-.3-1.89-.67L42.45,61.16a4,4,0,0,1,4.24-4.5h5.66A4,4,0,0,1,56.59,61.16Z"/><path class="cls-1" d="M43.18,40.92l4.17-27.34c0-.37.9-.67,1.88-.67h2c1,0,1.83.3,1.88.67l4.17,27.34a4,4,0,0,1-4.24,4.5H47.42A4,4,0,0,1,43.18,40.92Z"/><circle class="cls-2" cx="88.31" cy="50.66" r="7.72"/><circle class="cls-2" cx="50.3" cy="12.65" r="7.72"/><circle class="cls-2" cx="49.7" cy="89.28" r="7.72"/><circle class="cls-2" cx="11.69" cy="51.27" r="7.72"/><circle class="cls-3" cx="50.36" cy="12.42" r="4.13"/><circle class="cls-3" cx="88.45" cy="50.5" r="4.13"/><circle class="cls-3" cx="11.59" cy="51.19" r="4.13"/><circle class="cls-3" cx="49.67" cy="89.28" r="4.13"/><path class="cls-2" d="M60.4,60.82c-6.67,4.82-20.77,11.43-26.69,5.77l-.11-.11c-5.63-5.63.87-19.92,5.67-26.8C42,35.8,45.75,30.39,52.51,29.4A15.74,15.74,0,0,1,66.07,34c.34.36.65.73.94,1.1,4.52,5.86,2.83,13.09,2.57,14.11C68.08,55.16,63.75,58.4,60.4,60.82Z"/><path class="cls-4" d="M61.82,25.36C61.07,24,55,12.91,52.59,12.46a2.18,2.18,0,0,0-1.6.22,2.26,2.26,0,0,0-.72,1.64C50.06,16.78,60.29,24.26,61.82,25.36Z"/><path class="cls-4" d="M38.34,0c1.31.85,11.89,7.8,12.15,10.19a2.14,2.14,0,0,1-.35,1.58,2.22,2.22,0,0,1-1.68.6C46,12.39,39.32,1.6,38.34,0Z"/><circle class="cls-5" cx="50.36" cy="12.45" r="2.06"/><path class="cls-4" d="M95.2,66.42c-.27-1.54-2.54-14-4.64-15.16A2.19,2.19,0,0,0,89,51a2.25,2.25,0,0,0-1.2,1.32C86.78,54.55,94.11,64.89,95.2,66.42Z"/><path class="cls-4" d="M81,34.92c1,1.22,8.79,11.17,8.28,13.52a2.12,2.12,0,0,1-.83,1.39,2.23,2.23,0,0,1-1.78,0C84.31,49.09,81.42,36.75,81,34.92Z"/><circle class="cls-5" cx="88.44" cy="50.54" r="2.06"/><path class="cls-4" d="M7.25,34.46c0,1.56.44,14.21,2.35,15.68a2.15,2.15,0,0,0,1.53.54,2.24,2.24,0,0,0,1.38-1.13C13.82,47.45,8.1,36.14,7.25,34.46Z"/><path class="cls-4" d="M16.62,67.72c-.77-1.35-7-12.35-6.18-14.59a2.15,2.15,0,0,1,1-1.26,2.27,2.27,0,0,1,1.77.24C15.45,53.22,16.48,65.85,16.62,67.72Z"/><circle class="cls-5" cx="11.58" cy="51.17" r="2.06"/><path class="cls-4" d="M63.23,100c-1-1.22-8.93-11.06-11.34-11.09a2.16,2.16,0,0,0-1.54.5,2.26,2.26,0,0,0-.42,1.74C50.15,93.61,61.53,99.18,63.23,100Z"/><path class="cls-4" d="M35.68,79.13c1.44.62,13.07,5.6,13.74,7.91a2.14,2.14,0,0,1-.06,1.62,2.27,2.27,0,0,1-1.55.88C45.37,90,36.93,80.54,35.68,79.13Z"/><circle class="cls-5" cx="49.69" cy="89.29" r="2.06"/><g class="cls-6"><path class="cls-4" d="M60.4,60.82c-6.67,4.82-20.77,11.43-26.69,5.77,11-3,22.49-7.38,29-18.76A35.22,35.22,0,0,0,66.88,35.2l.13-.08c4.52,5.86,2.83,13.09,2.57,14.11C68.08,55.16,63.75,58.4,60.4,60.82Z"/></g><path class="cls-4" d="M38.74,49c1.08.16-.66,6.43,3.09,10s9.45,1.55,9.6,2.49c.22,1.31-10.82,7.88-15.65,3S37.3,48.77,38.74,49Z"/></svg>