<svg id="Layer_1" data-name="Layer 1" xmlns="http://www.w3.org/2000/svg" viewBox="0 0 100 100"><defs><style>.cls-1{fill:#80472f;}.cls-2{fill:#713d27;}.cls-3{fill:#9c573c;}.cls-4{fill:#76402a;}.cls-5{fill:#8e4f36;}.cls-6{fill:#7f462e;}.cls-7{fill:#ab6044;}.cls-8{fill:#844931;}</style></defs><title>jerky</title><path class="cls-1" d="M53.1,30.81a106,106,0,0,1,20.26-6.43c2.28-.47,3.52-2.84,2.77-5.42s-3.32-4.3-5.72-3.69l-.19,0a4.78,4.78,0,0,0,.26-3.53A4.76,4.76,0,0,0,64.6,8.42c-1.77.55-3.54,1.14-5.29,1.78a4.41,4.41,0,0,0-.24-1.42A4.48,4.48,0,0,0,53,6.11,128.92,128.92,0,0,0,2.57,44.87C.84,47.08.59,50.18,2,51.63a2.46,2.46,0,0,0,.89.6c-.52.69-1,1.39-1.55,2.1C-.31,56.56-.42,59.56,1,60.88s3.73.61,5.31-1.45c.72-1,1.46-1.9,2.21-2.83a3.61,3.61,0,0,0,.88,2.81q-3.06,3.81-5.83,7.92c-1.46,2.16-1.44,5,0,6.08s3.62.33,5.07-1.66A107.77,107.77,0,0,1,51.2,36.39,4.07,4.07,0,0,0,53.1,30.81Z"/><path class="cls-2" d="M53,6.11A128.92,128.92,0,0,0,2.57,44.87c-1.55,2-1.9,4.66-1,6.24A125.63,125.63,0,0,1,58.73,8,4.48,4.48,0,0,0,53,6.11Z"/><path class="cls-2" d="M76.13,19c-.74-2.57-3.32-4.3-5.72-3.69l-.19,0a4.68,4.68,0,0,0,.46-2.09A118.55,118.55,0,0,0,1.84,61.39c1.36.46,3.14-.29,4.42-2,.72-1,1.46-1.9,2.21-2.83a3.61,3.61,0,0,0,.88,2.81q-3.06,3.81-5.83,7.92c-.08.12-.14.25-.21.37C20.85,41.47,47.56,24.31,76.14,19A.06.06,0,0,0,76.13,19Z"/><path class="cls-3" d="M43.51,18.81a20.63,20.63,0,0,1-5.15,1.9,16.32,16.32,0,0,1,4.38-3.54A14.78,14.78,0,0,1,48,15.5,19.83,19.83,0,0,1,43.51,18.81Z"/><path class="cls-3" d="M24.53,48.35a21.74,21.74,0,0,1-4.3,2.9,17,17,0,0,1,3.34-4.12A14.83,14.83,0,0,1,28,44.43,21.1,21.1,0,0,1,24.53,48.35Z"/><path class="cls-3" d="M36.79,28.7a8.11,8.11,0,0,1-2.35,1A8,8,0,0,1,36.37,28a7.12,7.12,0,0,1,2.37-1A8.58,8.58,0,0,1,36.79,28.7Z"/><path class="cls-4" d="M58.06,26.87a7.38,7.38,0,0,1-2.42.44,6.22,6.22,0,0,1,4.48-1.68A6.78,6.78,0,0,1,58.06,26.87Z"/><path class="cls-4" d="M32.62,37.47a8.38,8.38,0,0,1-2.24,1.12,7.82,7.82,0,0,1,1.79-1.81,7.2,7.2,0,0,1,2.26-1.07A8.39,8.39,0,0,1,32.62,37.47Z"/><path class="cls-4" d="M17.7,45.55a9.45,9.45,0,0,1-2.07,1.52,9.33,9.33,0,0,1,1.59-2.13,7.73,7.73,0,0,1,2.1-1.48A10.6,10.6,0,0,1,17.7,45.55Z"/><path class="cls-4" d="M23.91,31.52A17.14,17.14,0,0,1,20,33.92a15.52,15.52,0,0,1,3.13-3.61,13,13,0,0,1,4-2.26A17.7,17.7,0,0,1,23.91,31.52Z"/><path class="cls-3" d="M19.87,39.23a9.35,9.35,0,0,1-2.15,1.47,9.15,9.15,0,0,1,1.68-2.11,7.65,7.65,0,0,1,2.19-1.42A10.15,10.15,0,0,1,19.87,39.23Z"/><path class="cls-5" d="M81.31,41.16,98.57,23.9A4.89,4.89,0,0,0,91.66,17l-.14.14a4.88,4.88,0,0,0-8.33-3.38l-4.1,4.1a5,5,0,0,0-.86-1.2,4.88,4.88,0,0,0-6.91,0L26.54,61.42a4.9,4.9,0,0,0,0,6.91,4.54,4.54,0,0,0,1.21.86L25.93,71a4.89,4.89,0,0,0,6.91,6.91l2.63-2.63a4.86,4.86,0,0,0,1.41,3.39l-7.26,7.26a4.89,4.89,0,0,0,6.91,6.91L81.31,48.07A4.9,4.9,0,0,0,81.31,41.16Z"/><path class="cls-6" d="M71.32,16.65,26.54,61.42A4.89,4.89,0,0,0,26,67.68L77.58,16.11A4.9,4.9,0,0,0,71.32,16.65Z"/><path class="cls-6" d="M98.57,17a4.9,4.9,0,0,0-6.91,0l-.14.14A4.85,4.85,0,0,0,91,15L27.13,78.77a4.88,4.88,0,0,0,5.71-.85l2.63-2.63a4.86,4.86,0,0,0,1.41,3.39l-7.26,7.26c-.1.1-.18.22-.27.33L98.6,17S98.59,17,98.57,17Z"/><path class="cls-7" d="M67,32.08a17.25,17.25,0,0,1-4.7,3.3,16.7,16.7,0,0,1,8-8A17.39,17.39,0,0,1,67,32.08Z"/><path class="cls-7" d="M54.29,67.49a17.37,17.37,0,0,1-4.71,3.3,16.7,16.7,0,0,1,8-8A17.21,17.21,0,0,1,54.29,67.49Z"/><path class="cls-7" d="M63.24,44A7.72,7.72,0,0,1,61,45.59a8.12,8.12,0,0,1,1.56-2.26,8,8,0,0,1,2.26-1.56A8,8,0,0,1,63.24,44Z"/><path class="cls-8" d="M84.87,34.8a7.86,7.86,0,0,1-2.26,1.56,7.48,7.48,0,0,1,3.81-3.81A7.83,7.83,0,0,1,84.87,34.8Z"/><path class="cls-8" d="M61.18,54.36a8,8,0,0,1-2.26,1.56,8,8,0,0,1,1.56-2.26,8.12,8.12,0,0,1,2.26-1.56A7.72,7.72,0,0,1,61.18,54.36Z"/><path class="cls-8" d="M45.45,64.17a7.72,7.72,0,0,1-2.26,1.56A7.62,7.62,0,0,1,47,61.91,7.72,7.72,0,0,1,45.45,64.17Z"/><path class="cls-8" d="M49.64,48.88a13.92,13.92,0,0,1-3.93,2.71A13.21,13.21,0,0,1,52.35,45,13.77,13.77,0,0,1,49.64,48.88Z"/><path class="cls-7" d="M46.78,57.28a7.75,7.75,0,0,1-2.25,1.56,7.8,7.8,0,0,1,1.55-2.26A8.12,8.12,0,0,1,48.34,55,7.72,7.72,0,0,1,46.78,57.28Z"/></svg>