<svg id="Layer_1" data-name="Layer 1" xmlns="http://www.w3.org/2000/svg" viewBox="0 0 100 100"><defs><style>.cls-1{fill:#05b58a;}.cls-2{fill:#fcca97;}.cls-3{opacity:0.24;}.cls-4{fill:#885e59;}.cls-5{fill:#9dc7db;}.cls-6{fill:#6ab7d8;}.cls-7{fill:#c3ced4;}.cls-8{fill:#babcbe;}.cls-9{fill:#eaf6fd;}.cls-10{fill:#7d7d7d;}.cls-11{fill:#3f3f40;}.cls-12{fill:#171717;}.cls-13{fill:#ffc540;}.cls-14{fill:#f05c37;}</style></defs><title>fairy tale</title><path class="cls-1" d="M46.68,72.73H1.76A1.69,1.69,0,0,1,.14,70.3L14.89,28.44A2.29,2.29,0,0,1,17,27.27H47.73c.93,0,1.68.53,1.68,1.17L49.16,70.3A2.48,2.48,0,0,1,46.68,72.73Z"/><path class="cls-1" d="M98.24,72.73H53.32a2.48,2.48,0,0,1-2.48-2.43l-.25-41.86c0-.64.75-1.17,1.68-1.17H83a2.29,2.29,0,0,1,2.1,1.17L99.86,70.3A1.69,1.69,0,0,1,98.24,72.73Z"/><path class="cls-1" d="M53.39,28.46l1.42,41.81A2.45,2.45,0,0,1,54.18,72a2.27,2.27,0,0,1-1.64.73,5.72,5.72,0,0,0-5.23,0,2.32,2.32,0,0,1-2.26-2.46l1.46-41.81c0-.66.76-1.19,1.65-1.19a5.41,5.41,0,0,0,1.92.3,5.34,5.34,0,0,0,1.66-.3,2.07,2.07,0,0,1,1.15.35A1.08,1.08,0,0,1,53.39,28.46Z"/><path class="cls-2" d="M50.09,29.63l0,34.62a2.41,2.41,0,0,1-.19.93,2.26,2.26,0,0,1-2.06,1.43H7.17a1.63,1.63,0,0,1-1.49-2.36L16.89,29.63a2.21,2.21,0,0,1,2.05-1.28H48.45a1.7,1.7,0,0,1,1.5.76A1,1,0,0,1,50.09,29.63Z"/><path class="cls-2" d="M83,29.63,94.18,64.25a1.63,1.63,0,0,1-1.49,2.36H52a2.26,2.26,0,0,1-2.06-1.43,2.41,2.41,0,0,1-.19-.93l.07-34.62a1,1,0,0,1,.14-.52,1.69,1.69,0,0,1,1.49-.76H81A2.21,2.21,0,0,1,83,29.63Z"/><g class="cls-3"><path class="cls-4" d="M51.93,28.35l.74,38.26H52a2.26,2.26,0,0,1-2.06-1.43,2.26,2.26,0,0,1-2.06,1.43H47.4l.71-38.26h.34a1.7,1.7,0,0,1,1.5.76,1.69,1.69,0,0,1,1.49-.76Z"/></g><path class="cls-1" d="M70.32,52c-.18.83-1.47,1.24-3.06,1a5.55,5.55,0,0,1-2.74.65,6.57,6.57,0,0,1-1.93-.27,2,2,0,0,1-1.2.34c-.85,0-1.57-.38-1.6-.85a.17.17,0,0,1,0-.1c-1.14.16-2,0-2.26-.39a.7.7,0,0,1,.11-.74,2.24,2.24,0,0,1,.36-.42c-1.39-.4-2.36-1.22-2.41-2.15s.63-1.51,1.66-1.92a1.12,1.12,0,0,1-.1-.4c0-.85,1-1.55,2.48-1.68A2.47,2.47,0,0,1,61.85,44a3,3,0,0,1,2.69,1.54,1.92,1.92,0,0,1,.55-.09,2.12,2.12,0,0,1,2,1.8s0,0,0,.05l.2.11a2.11,2.11,0,0,1,1.6.39A1.78,1.78,0,0,1,69,50.09a3.48,3.48,0,0,1,1.19,1.16A1.18,1.18,0,0,1,70.32,52Z"/><polygon class="cls-5" points="80.29 54.38 63.7 54.38 63.44 37.84 74.83 37.84 80.29 54.38"/><path class="cls-5" d="M64.76,40H62.65A1.41,1.41,0,0,1,61.17,39l-.24-2.4c0-.54.49-1,1.22-1h2a1.42,1.42,0,0,1,1.46,1L66,39C66.05,39.54,65.51,40,64.76,40Z"/><path class="cls-5" d="M70.57,40H68.45A1.49,1.49,0,0,1,66.93,39l-.37-2.4c-.08-.54.44-1,1.16-1h2a1.52,1.52,0,0,1,1.51,1l.46,2.4C71.84,39.54,71.32,40,70.57,40Z"/><path class="cls-5" d="M76.37,40H74.26A1.6,1.6,0,0,1,72.68,39l-.49-2.4c-.11-.54.39-1,1.11-1h2a1.62,1.62,0,0,1,1.56,1l.59,2.4C77.62,39.54,77.12,40,76.37,40Z"/><path class="cls-6" d="M73.41,47.61H67.85c-.5-3.41.29-6,1.75-6S72.74,44.2,73.41,47.61Z"/><path class="cls-1" d="M89.72,56.83c0,.9-1.33,1.34-3,1.11a4.93,4.93,0,0,1-2.74.71,7.58,7.58,0,0,1-2-.29,1.8,1.8,0,0,1-1.19.36c-.88,0-1.69-.41-1.8-.92a.36.36,0,0,1,0-.1c-1.16.17-2.09,0-2.4-.43a.74.74,0,0,1,0-.79A2,2,0,0,1,76.8,56c-1.5-.43-2.64-1.32-2.83-2.32s.41-1.62,1.42-2.07a1.38,1.38,0,0,1-.17-.42c-.19-.92.82-1.67,2.3-1.81a2.15,2.15,0,0,1,2.13-1.25,3.65,3.65,0,0,1,3,1.65,1.63,1.63,0,0,1,.55-.1,2.71,2.71,0,0,1,2.4,1.93s0,0,0,.06l.23.11a2.41,2.41,0,0,1,1.72.42,2.06,2.06,0,0,1,.45,2.5A4.46,4.46,0,0,1,89.45,56,1.49,1.49,0,0,1,89.72,56.83Z"/><path class="cls-1" d="M78.91,56.9l0,.1a.17.17,0,0,1,0,.07c.06.53-.56,1-1.55,1.23a.07.07,0,0,0,0,.05c.11.56-.5,1-1.38,1a2,2,0,0,1-1.63-.68,7.25,7.25,0,0,1-1.18.09c-1.64,0-3.09-.5-3.5-1.16a.73.73,0,0,1-.1-.28s0,0,0-.06c-.87-.19-1.51-.56-1.57-1a.62.62,0,0,1,.25-.53c-.39-.18-.64-.4-.67-.63-.07-.48.75-.88,2-1a.64.64,0,0,1-.06-.18c-.08-.52.53-.93,1.37-.93H71a1.42,1.42,0,0,1,1.13-.46,1.85,1.85,0,0,1,1.54.76,2.73,2.73,0,0,1,.54-.3,4,4,0,0,1,3.62.29,1,1,0,0,1,.47,1c1.19.18,2.14.7,2.28,1.32S80,56.71,78.91,56.9Z"/><polyline class="cls-7" points="39.32 45.57 36.4 56.67 35.24 45.57"/><polyline class="cls-7" points="37.07 55.22 36.23 58.4 35.88 55.22"/><path class="cls-7" d="M36.32,54.82h.52a.54.54,0,0,0,.55-.44h0a.43.43,0,0,0-.46-.44h-.51a.53.53,0,0,0-.54.44h0A.41.41,0,0,0,36.32,54.82Z"/><path class="cls-7" d="M36.26,55.42h.52a.54.54,0,0,0,.55-.45h0a.43.43,0,0,0-.46-.44h-.51a.54.54,0,0,0-.55.44h0A.42.42,0,0,0,36.26,55.42Z"/><polygon class="cls-7" points="26.4 46.44 30.09 47.59 24.48 54.67 23.54 53.83 26.4 46.44"/><polyline class="cls-7" points="24.87 54.75 24.9 57.89 23.67 55.09"/><path class="cls-7" d="M24,54.59l.52-.15a.53.53,0,0,0,.42-.55h0a.43.43,0,0,0-.57-.27l-.52.14a.54.54,0,0,0-.42.56h0A.42.42,0,0,0,24,54.59Z"/><path class="cls-7" d="M24.11,55.15l.52-.14a.54.54,0,0,0,.43-.56h0a.44.44,0,0,0-.58-.28l-.52.15a.55.55,0,0,0-.43.56h0A.43.43,0,0,0,24.11,55.15Z"/><path class="cls-8" d="M22.79,47.33a3.41,3.41,0,0,0,0-.84,3.55,3.55,0,0,0-.16-.8,2.93,2.93,0,0,0-.36-.76,2.34,2.34,0,0,0-.67-.66,2.4,2.4,0,0,0-1.13-.39,3.81,3.81,0,0,0-1.42.15l-.33.11-.31.13q-.27.12-.54.27a5.75,5.75,0,0,0-1,.7,4.65,4.65,0,0,0-.84.94,4.08,4.08,0,0,0-.47,1,7.44,7.44,0,0,0-.19.88,3.77,3.77,0,0,1-.12.62.59.59,0,0,1-.06.16l0,0s0,0,0,0V49A.19.19,0,0,1,15,49a.68.68,0,0,1-.28,0,1.12,1.12,0,0,1-.58-.32.56.56,0,0,1-.17-.27.35.35,0,0,1,.12-.36.64.64,0,0,0-.27.14.8.8,0,0,0-.18.23,1,1,0,0,0-.11.51,1.22,1.22,0,0,0,.42.86,1.34,1.34,0,0,0,.56.28,1.77,1.77,0,0,0,.88,0l.23-.08.22-.1.2-.11.18-.13a2.42,2.42,0,0,0,.57-.59,4.34,4.34,0,0,0,.49-1c.1-.28.18-.53.28-.75a2.64,2.64,0,0,1,.74-1,3.24,3.24,0,0,1,.57-.42l.35-.2.14-.07.14-.07a2.06,2.06,0,0,1,.5-.13,1.46,1.46,0,0,1,.53.06,3.33,3.33,0,0,1,1.17.74A13.44,13.44,0,0,1,22.79,47.33Z"/><path class="cls-8" d="M36.61,35.44l-1.08,8.69-5.3,1,2.58-7.1S34,35,36.61,35.44Z"/><path class="cls-9" d="M28.27,51.42a24.57,24.57,0,0,0,9.61-1.63l-3.06-5.57.07,0c-.15.05-3.65,1.36-9.94.38a4.93,4.93,0,0,0-5,2.5c-.83,1.76.14,3.49,2.21,3.84A37.52,37.52,0,0,0,28.27,51.42Z"/><path class="cls-9" d="M30.84,52.07l.09,0,.05,0h0l.09,0,.16,0,.14,0,.13,0,.52.09.52.06.27,0h.27a10.81,10.81,0,0,0,2.56-.18l.37-.09.38-.1L36.6,52l.2-.07.4-.14.19-.08.2-.09.4-.18a8.15,8.15,0,0,0,.75-.44,6.78,6.78,0,0,0,2.11-2.15A5.51,5.51,0,0,0,41.53,47l.06-.38c0-.11,0-.22,0-.33V46c0-.11,0-.2,0-.3a7.64,7.64,0,0,0-.14-1.05l-.12-.46L41.29,44l-.08-.21-.14-.4L40.91,43c0-.12-.1-.25-.16-.37l-.17-.35c-.11-.23-.24-.45-.36-.67L40,41.27,39.85,41c-.13-.2-.25-.41-.38-.6l-.39-.58c-.24-.3-.45-.61-.64-.9a7.16,7.16,0,0,1-.46-.8,2.62,2.62,0,0,0-.14-.26c0-.06-.08-.06-.19,0s0,0,0,0l-.06,0-.06,0-.06,0-.07,0h-.16c-.1,0,0-.07.06-.11a2.13,2.13,0,0,1,.5-.06,4.7,4.7,0,0,1,.64,0,11.77,11.77,0,0,1,1.39.22c.48.1,1,.21,1.43.34,1,.27,1.92.57,2.87.92-.68-.61-1.39-1.2-2.14-1.76-.38-.28-.76-.55-1.17-.8A10.44,10.44,0,0,0,39.44,36c-.24-.11-.5-.22-.79-.32a5.8,5.8,0,0,0-1-.23l-.15,0h-.68l-.2,0-.21,0-.21,0a3.81,3.81,0,0,0-.45.13l-.23.09-.23.11a1.13,1.13,0,0,0-.21.12,1.37,1.37,0,0,0-.2.13l-.19.14c-.05.05-.12.1-.16.15l-.15.15a.46.46,0,0,0-.07.07l-.06.07c-.08.1-.16.2-.22.29a2,2,0,0,0-.16.28l-.07.13,0,.07,0,.06a5.31,5.31,0,0,0-.29.92A8.2,8.2,0,0,0,33.3,40c0,.5,0,1,.06,1.45V42c0,.2,0,.4,0,.6v.29l0,.29c0,.2,0,.39-.05.58l0,.28a2.56,2.56,0,0,1,0,.27l-.05.26-.07.25L33,45a.49.49,0,0,1,0,.11l-.08.21-.1.17,0,0,0,0-.05,0,0,.05h-.09l0,0s0-.22.1-.46a1.2,1.2,0,0,1,.13-.21l.09-.12.12-.13.12-.12.14-.13.16-.12.17-.12c.11-.08.24-.14.36-.21l.18-.09.09,0,.09,0,.17-.07.09,0,.08,0,.15-.05.15,0c.36-.09.59-.12.75-.15h.11l.09,0h.31l.07,0a6.76,6.76,0,0,0-7.46,2.41A4,4,0,0,0,30.84,52.07Z"/><path class="cls-9" d="M32.84,43.55s2.58,1-7.4,1.1l1,3.87,11.63-1.15"/><path class="cls-10" d="M43.49,37.35a1.29,1.29,0,0,1,.89,1.9l0,.07a2.24,2.24,0,0,1-2.55.78l-.61-.21,2-2.65Z"/><path class="cls-9" d="M36.79,36.78l.05-.07a2.29,2.29,0,0,1,2.5-.74l3.83,1.27-2,2.65-3.62-1.23A1.22,1.22,0,0,1,36.79,36.78Z"/><path class="cls-9" d="M36.63,35.51c0,.27.23.49.59.49a.68.68,0,0,0,.71-.49A8.18,8.18,0,0,0,37.46,34,11.46,11.46,0,0,0,36.63,35.51Z"/><path class="cls-10" d="M43.3,37.6c0,.31.29.56.69.56a.7.7,0,0,0,.76-.56c0-.31-.29-.56-.69-.56A.7.7,0,0,0,43.3,37.6Z"/><path class="cls-11" d="M35.38,37.13c0,.09.08.16.2.16s.23-.07.24-.16-.07-.17-.2-.17A.23.23,0,0,0,35.38,37.13Z"/><path class="cls-12" d="M44,37.6c0,.09.08.17.21.17a.22.22,0,0,0,.23-.17c0-.09-.09-.17-.22-.17A.2.2,0,0,0,44,37.6Z"/><path class="cls-10" d="M42.22,38.16c0,.31.29.57.7.57a.71.71,0,0,0,.76-.57c0-.31-.29-.56-.69-.56A.71.71,0,0,0,42.22,38.16Z"/><path class="cls-12" d="M43,38.16c0,.1.09.17.21.17s.23-.07.23-.17-.08-.17-.21-.17A.22.22,0,0,0,43,38.16Z"/><path class="cls-8" d="M36.21,35.38a6.1,6.1,0,0,1,3.07.31l-2.16.67A3.63,3.63,0,0,0,35.23,36L33.81,37c-.75.28.56-.75.56-.75Z"/><path class="cls-9" d="M34.84,36c0,.27.22.49.58.49a.7.7,0,0,0,.72-.49,8.47,8.47,0,0,0-.44-1.56A11,11,0,0,0,34.84,36Z"/><polyline class="cls-9" points="35.38 45.36 32.09 56.42 31.31 45.36"/><polyline class="cls-9" points="32.82 54.97 31.87 58.14 31.63 54.97"/><path class="cls-9" d="M32.09,54.57h.51a.56.56,0,0,0,.56-.44h0a.4.4,0,0,0-.44-.43h-.51a.56.56,0,0,0-.56.43h0A.4.4,0,0,0,32.09,54.57Z"/><path class="cls-9" d="M32,55.16h.52a.56.56,0,0,0,.56-.44h0a.4.4,0,0,0-.44-.44h-.51a.56.56,0,0,0-.56.44h0A.4.4,0,0,0,32,55.16Z"/><polygon class="cls-12" points="37.84 58.94 34.77 58.94 36.5 57.09 37.84 58.94"/><polygon class="cls-12" points="33.27 58.94 30.2 58.94 31.99 57.09 33.27 58.94"/><polygon class="cls-12" points="26.01 58.94 22.94 58.94 24.84 57.09 26.01 58.94"/><polygon class="cls-9" points="22.4 46.44 26.05 47.59 20.2 54.67 19.29 53.83 22.4 46.44"/><polyline class="cls-9" points="20.59 54.75 20.52 57.89 19.38 55.09"/><path class="cls-9" d="M19.74,54.59l.52-.15a.54.54,0,0,0,.44-.55h0a.41.41,0,0,0-.56-.27l-.52.14a.57.57,0,0,0-.45.56h0C19.2,54.55,19.46,54.67,19.74,54.59Z"/><path class="cls-9" d="M19.82,55.15l.53-.14a.57.57,0,0,0,.44-.56h0a.43.43,0,0,0-.57-.28l-.52.15a.57.57,0,0,0-.45.56h0C19.28,55.11,19.54,55.23,19.82,55.15Z"/><polygon class="cls-12" points="21.59 58.94 18.52 58.94 20.48 57.09 21.59 58.94"/><path class="cls-13" d="M23,45.89c0,.13.07.23.23.23a.34.34,0,0,0,.34-.23c0-.13-.08-.24-.23-.24A.35.35,0,0,0,23,45.89Z"/><path class="cls-14" d="M21.15,46.91c0,.21.11.37.36.37a.53.53,0,0,0,.53-.37c.05-.2-.11-.37-.35-.37A.56.56,0,0,0,21.15,46.91Z"/><path class="cls-6" d="M23.64,46.91a.13.13,0,0,0,.14.14.21.21,0,0,0,.2-.14c0-.08,0-.15-.14-.15A.22.22,0,0,0,23.64,46.91Z"/><path class="cls-9" d="M37.17,35.51l1.08.61a.29.29,0,0,0,.37,0h0c.07-.09,0-.22-.11-.29l-1-.57a.43.43,0,0,0-.41,0h0C37,35.31,37,35.43,37.17,35.51Z"/><path class="cls-9" d="M37.52,35.24l1,.57a.28.28,0,0,0,.35,0h0c.07-.09,0-.21-.09-.28L37.86,35a.41.41,0,0,0-.39,0h0C37.37,35.06,37.39,35.17,37.52,35.24Z"/><path class="cls-9" d="M37.86,35l.91.51a.25.25,0,0,0,.33,0h0a.18.18,0,0,0-.07-.27l-.82-.46a.38.38,0,0,0-.37,0h0C37.74,34.81,37.75,34.91,37.86,35Z"/><path class="cls-9" d="M38.21,34.72l.82.46a.24.24,0,0,0,.31-.06h0a.16.16,0,0,0-.05-.25l-.74-.41a.34.34,0,0,0-.35,0h0A.12.12,0,0,0,38.21,34.72Z"/><path class="cls-9" d="M38.55,34.46l.74.41a.23.23,0,0,0,.29-.07h0a.16.16,0,0,0,0-.24l-.66-.36a.34.34,0,0,0-.33,0h0C38.46,34.31,38.46,34.4,38.55,34.46Z"/><path class="cls-9" d="M38.89,34.2l.66.36a.23.23,0,0,0,.27-.07h0a.17.17,0,0,0,0-.24l-.57-.31a.33.33,0,0,0-.31.05h0C38.82,34.06,38.81,34.15,38.89,34.2Z"/><path class="cls-9" d="M39.23,33.94l.57.31a.2.2,0,0,0,.25-.08h0c.06-.09.07-.19,0-.22l-.49-.27a.37.37,0,0,0-.29.06h0C39.18,33.81,39.16,33.9,39.23,33.94Z"/><path class="cls-9" d="M39.57,33.68l.49.27a.2.2,0,0,0,.22-.1h0c.07-.08.08-.18,0-.2l-.4-.22a.31.31,0,0,0-.27.07h0C39.54,33.56,39.51,33.65,39.57,33.68Z"/><path class="cls-9" d="M39.91,33.43l.4.22s.14,0,.21-.11h0c.06-.09.08-.17,0-.19l-.32-.18s-.15,0-.25.08h0C39.89,33.32,39.85,33.4,39.91,33.43Z"/><path class="cls-9" d="M40.24,33.17l.32.18s.12,0,.19-.12h0c.06-.09.09-.17.06-.18l-.24-.13s-.13,0-.23.09h0C40.25,33.08,40.2,33.15,40.24,33.17Z"/><path class="cls-9" d="M37,35.49c-.12.13.11.39.51.58s.83.23,1,.09-.11-.4-.52-.58S37.08,35.36,37,35.49Z"/><polyline class="cls-9" points="40.78 33.08 41.03 32.63 40.45 32.99"/><polyline class="cls-8" points="36.67 35.53 38.86 36 38.31 36.45 36.54 35.99"/></svg>