<svg id="Layer_1" data-name="Layer 1" xmlns="http://www.w3.org/2000/svg" viewBox="0 0 100 100"><defs><style>.cls-1{fill:#544741;}.cls-2{fill:#09a481;}.cls-3{opacity:0.46;}.cls-4{fill:#009173;}</style></defs><title>ivy</title><path class="cls-1" d="M100,75.39a6.58,6.58,0,0,1-.06.87,7,7,0,0,1-.17.89A6.72,6.72,0,0,1,99,78.9a7.15,7.15,0,0,1-2.62,2.47,11,11,0,0,1-2.88,1.08,18.6,18.6,0,0,1-2.77.42A39.51,39.51,0,0,1,80.43,82c-.84-.17-1.65-.35-2.52-.58s-1.66-.49-2.47-.78a37.7,37.7,0,0,1-4.72-2,24.61,24.61,0,0,1-2.26-1.32,12.29,12.29,0,0,1-2.16-1.75,5,5,0,0,1-1-1.35,2.87,2.87,0,0,1-.17-.47l-.07-.27,0-.29A2.23,2.23,0,0,1,65.3,72c0-.09.08-.17.13-.26l.16-.21a2,2,0,0,1,.33-.37,4.19,4.19,0,0,1,.34-.28l.34-.23a6.27,6.27,0,0,1,1.33-.57,15.19,15.19,0,0,1,2.55-.56c.85-.12,1.68-.21,2.51-.25a48.54,48.54,0,0,1,5,0l0,.45c-1.62.27-3.23.55-4.81.91-.79.18-1.57.36-2.34.59a14.16,14.16,0,0,0-2.16.8,6.89,6.89,0,0,0-.87.52.87.87,0,0,0-.35.43s0,0,0,0,0,0,0,0v0s0,0,0,0a.68.68,0,0,0,.06.09,2.92,2.92,0,0,0,.56.57A10.82,10.82,0,0,0,70,74.78c.66.34,1.38.65,2.09,1a38.73,38.73,0,0,0,4.46,1.46c.76.2,1.52.38,2.28.53s1.53.26,2.3.37c1.57.21,3.14.36,4.7.42a27.38,27.38,0,0,0,4.55-.12A13,13,0,0,0,92.42,78a6.33,6.33,0,0,0,1.68-.68,2.66,2.66,0,0,0,.94-.86,2.24,2.24,0,0,0,.28-1.17,6.43,6.43,0,0,0-.26-1.73,14.18,14.18,0,0,0-.74-1.94A27.85,27.85,0,0,0,92,67.74a57.63,57.63,0,0,0-6-7.32A76.26,76.26,0,0,0,79,53.93c-.62-.5-1.25-1-1.9-1.48s-1.28-1-1.92-1.42a36,36,0,0,0-4-2.45,29.42,29.42,0,0,0-4.29-1.83c-.73-.25-1.48-.46-2.24-.64-.37-.09-.77-.2-1.12-.26s-.76-.14-1.15-.19a37.26,37.26,0,0,0-9-.19,4.41,4.41,0,0,1,.17,1,5.32,5.32,0,0,1-.3,2.14,21,21,0,0,1-1.69,3.32A27.9,27.9,0,0,0,49.92,55a15.56,15.56,0,0,0-1,3.29,16.51,16.51,0,0,0-.24,3.44,17.82,17.82,0,0,0,.44,3.48l-.32.09A18.86,18.86,0,0,1,48,61.75,17,17,0,0,1,48,58.11a16.41,16.41,0,0,1,.72-3.6A26.63,26.63,0,0,1,50,51.12,19.51,19.51,0,0,0,51.34,48a2.8,2.8,0,0,0-.22-2.24,31.4,31.4,0,0,0-7.36,2.15A28.24,28.24,0,0,0,35.81,53a29.33,29.33,0,0,0-5.89,7.48,31.07,31.07,0,0,0-3.28,9.05A34.15,34.15,0,0,0,26,79.24l-.44.05a34.58,34.58,0,0,1,.13-9.9,33.91,33.91,0,0,1,1.13-4.86,33.27,33.27,0,0,1,1.86-4.66,30.58,30.58,0,0,1,14.14-14,32.81,32.81,0,0,1,5.61-2.07,17.58,17.58,0,0,0-3-.83q-.84-.16-1.71-.3l-.44-.07-.41-.06L42,42.45a21.52,21.52,0,0,0-3.31,0,30.12,30.12,0,0,0-6.44,1.28c-.52.17-1,.34-1.55.55s-1,.43-1.53.65a28.37,28.37,0,0,0-2.95,1.62,34.26,34.26,0,0,0-5.45,4.31l-.27-.19a18.79,18.79,0,0,1,4.29-6,21.62,21.62,0,0,1,3-2.32,22,22,0,0,1,3.37-1.76,19.45,19.45,0,0,1,7.45-1.44,22.92,22.92,0,0,1,3.79.34c.32,0,.63.11.94.18l.47.1.43.11c.59.14,1.17.28,1.77.44a19.48,19.48,0,0,1,3.57,1.25c.3.13.59.3.88.46s.58.36.86.58a5,5,0,0,1,.43.37l.81-.13a39.77,39.77,0,0,1,10.17-.23l1.29.18c.45.07.85.16,1.28.25.84.18,1.67.39,2.5.64a31.92,31.92,0,0,1,4.81,1.87,39.89,39.89,0,0,1,4.46,2.55c.71.47,1.4,1,2.08,1.43.45.33.91.65,1.36,1a9.18,9.18,0,0,0,2.91-2.91,8.13,8.13,0,0,0,.85-5.27A18.81,18.81,0,0,0,82.59,37a14.57,14.57,0,0,0-3.4-4.7,10.61,10.61,0,0,0-2.36-1.61,8.29,8.29,0,0,0-2.7-.76,12.14,12.14,0,0,0-2.94.09c-1,.13-2,.35-3.12.53a9.28,9.28,0,0,1-3.41,0A4.22,4.22,0,0,1,63,29.78a4.58,4.58,0,0,1-1.16-1.33A7,7,0,0,1,61,25.22,15.72,15.72,0,0,1,61.21,22l.3,0a15.44,15.44,0,0,0,.1,3.12,6.33,6.33,0,0,0,1,2.78,3.72,3.72,0,0,0,1,1,3.11,3.11,0,0,0,1.26.44A7.74,7.74,0,0,0,67.78,29a23.24,23.24,0,0,1,6.48-1.12,10.29,10.29,0,0,1,3.45.73,12.74,12.74,0,0,1,3,1.77,18.75,18.75,0,0,1,4.48,5.16,14.56,14.56,0,0,1,2,6.6,10.92,10.92,0,0,1-.4,3.58A8.18,8.18,0,0,1,85.1,49a8.39,8.39,0,0,1-2.86,2,7.61,7.61,0,0,1-.79.31q1.86,1.41,3.64,2.93c1.27,1.09,2.53,2.2,3.74,3.36a63.15,63.15,0,0,1,6.83,7.55c.52.69,1,1.41,1.49,2.15.24.37.46.77.69,1.14s.44.79.63,1.21a17.81,17.81,0,0,1,1.06,2.63A10.1,10.1,0,0,1,100,75.39Z"/><path class="cls-2" d="M34.7,52a2.31,2.31,0,0,1-.64.82c-1.78,1.49-5.91,1.4-6.59,1.37-1.53-.08-2.51-.41-3.67.23s-1.31,1.51-2.18,2.87A20.1,20.1,0,0,1,20,59.49c-1,1.16-2.36,2.25-3.64,2.06-1.71-.25-2.58-2.9-2.73-3.35a6.63,6.63,0,0,1-.2-3.27v0h0a8.32,8.32,0,0,1,.5-1.38,4.1,4.1,0,0,0,.3-.85,2.41,2.41,0,0,0-.41-1.6,4.65,4.65,0,0,0-2.93-1.69,20,20,0,0,1-5.51-2.44C3.88,46.1,2.13,45,0,43.54a17.3,17.3,0,0,1,9-2.3c1.41.06,2.64.31,3.23-.4.87-1-.8-3.08-1.49-6.38a15.05,15.05,0,0,1-.06-5.71c0-.24.08-.46.12-.67a15,15,0,0,1,6.47,4.69C19,35,19.62,37.3,21,37.3c1,0,1.52-1.06,2.75-2.25a12.71,12.71,0,0,1,6.6-3.23l.22-.05a25.16,25.16,0,0,1-1.65,7.73c-.75,1.92-1.89,4.13-1,5.37a4.66,4.66,0,0,0,1.5,1.1,15.2,15.2,0,0,0,2,.85,5.58,5.58,0,0,1,2.89,2.45A3.39,3.39,0,0,1,34.7,52Z"/><g class="cls-3"><path class="cls-4" d="M30.37,31.82c-2.77,5.76-6.86,10.36-8.81,10-1.13-.22-.76-1.94-2.86-5.43-2.69-4.46-5.77-5.75-8-7.63,0-.24.08-.46.12-.67a15,15,0,0,1,6.47,4.69C19,35,19.62,37.3,21,37.3c1,0,1.52-1.06,2.75-2.25A12.71,12.71,0,0,1,30.37,31.82Z"/></g><g class="cls-3"><path class="cls-4" d="M13.56,54.57l-.17.33a8.32,8.32,0,0,1,.5-1.38,4.1,4.1,0,0,0,.3-.85,2.41,2.41,0,0,0-.41-1.6,4.65,4.65,0,0,0-2.93-1.69,20,20,0,0,1-5.51-2.44c5.64-.35,10.64.65,11.29,2.32C17.05,50.33,15.4,50.94,13.56,54.57Z"/></g><g class="cls-3"><path class="cls-4" d="M34.06,52.79c-1.78,1.49-5.91,1.4-6.59,1.37-1.53-.08-2.51-.41-3.67.23s-1.31,1.51-2.18,2.87A20.1,20.1,0,0,1,20,59.49l.4-2c.33-1.7.7-3.24,2-4.33,1.71-1.43,4-1.23,8.08-.79C31.89,52.5,33.07,52.62,34.06,52.79Z"/></g><path class="cls-2" d="M41.11,47.43a2.41,2.41,0,0,1,1-.32c2.3-.26,5.68,2.12,6.23,2.52,1.23.92,1.87,1.74,3.18,1.85s1.93-.53,3.41-1.17a18.87,18.87,0,0,1,2.62-.93c1.5-.4,3.21-.56,4.17.31,1.28,1.15.53,3.84.4,4.3a6.6,6.6,0,0,1-1.64,2.83l0,0h0a7.85,7.85,0,0,1-1.18.87,4.67,4.67,0,0,0-.72.54A2.4,2.4,0,0,0,58,59.81a4.67,4.67,0,0,0,1.49,3,20.19,20.19,0,0,1,3.23,5.1c.74,1.5,1.58,3.4,2.55,5.79a17.33,17.33,0,0,1-8.78-3.1c-1.14-.84-2-1.73-2.91-1.46-1.3.38-1,3-2.3,6.13a15,15,0,0,1-3.13,4.78c-.16.18-.32.33-.47.48a15.08,15.08,0,0,1-2.78-7.49c-.19-2.82.59-5.06-.57-5.84-.83-.56-1.86,0-3.55.35a12.81,12.81,0,0,1-7.28-1l-.21-.09A25.4,25.4,0,0,1,39,61c1.69-1.18,3.87-2.38,3.81-3.91a4.85,4.85,0,0,0-.63-1.75A16.15,16.15,0,0,0,41,53.54a5.65,5.65,0,0,1-1-3.64A3.38,3.38,0,0,1,41.11,47.43Z"/><g class="cls-3"><path class="cls-4" d="M33.5,66.6C39,63.34,45,61.79,46.38,63.19c.82.8-.45,2-.64,6.1-.24,5.2,1.6,8,2.41,10.79-.16.18-.32.33-.47.48a15.08,15.08,0,0,1-2.78-7.49c-.19-2.82.59-5.06-.57-5.84-.83-.56-1.86,0-3.55.35A12.81,12.81,0,0,1,33.5,66.6Z"/></g><g class="cls-3"><path class="cls-4" d="M60.12,57l.33-.19a7.85,7.85,0,0,1-1.18.87,4.67,4.67,0,0,0-.72.54A2.4,2.4,0,0,0,58,59.81a4.67,4.67,0,0,0,1.49,3,20.19,20.19,0,0,1,3.23,5.1c-4.89-2.85-8.49-6.46-8.1-8.21C54.87,58.61,56.58,59,60.12,57Z"/></g><g class="cls-3"><path class="cls-4" d="M42.1,47.11c2.3-.26,5.68,2.12,6.23,2.52,1.23.92,1.87,1.74,3.18,1.85s1.93-.53,3.41-1.17a18.87,18.87,0,0,1,2.62-.93c-.47.46-.95.95-1.45,1.46-1.23,1.22-2.39,2.29-4.09,2.48-2.21.24-4-1.19-7.15-3.84C43.74,48.56,42.83,47.8,42.1,47.11Z"/></g><path class="cls-2" d="M18.62,65.81a1.68,1.68,0,0,1,.81-.1c1.81.17,4,2.53,4.36,2.93.79.9,1.14,1.63,2.13,1.93s1.58-.1,2.82-.37a15.38,15.38,0,0,1,2.17-.3c1.22-.07,2.56.07,3.15.9.79,1.09-.24,3-.41,3.38A5.28,5.28,0,0,1,31.9,76.1h0a6,6,0,0,1-1.05.48,4.59,4.59,0,0,0-.64.3A2,2,0,0,0,29.5,78a3.56,3.56,0,0,0,.64,2.57A15.43,15.43,0,0,1,31.75,85c.32,1.28.65,2.87,1,4.86a13.45,13.45,0,0,1-6.22-3.77c-.74-.83-1.26-1.65-2-1.59-1.06.09-1.31,2.15-2.8,4.36a12.4,12.4,0,0,1-3.21,3.2l-.45.29a11.83,11.83,0,0,1-.87-6.21c.33-2.21,1.31-3.81.55-4.59-.54-.57-1.43-.27-2.78-.29a9.86,9.86,0,0,1-5.43-1.91l-.15-.1a20.28,20.28,0,0,1,5.29-3.35c1.49-.64,3.38-1.22,3.59-2.41a3.83,3.83,0,0,0-.19-1.45,11.31,11.31,0,0,0-.6-1.57,4.39,4.39,0,0,1-.18-3A2.74,2.74,0,0,1,18.62,65.81Z"/><g class="cls-3"><path class="cls-4" d="M9.53,79.37c4.78-1.64,9.62-1.89,10.47-.59.49.75-.69,1.49-1.52,4.6-1.07,4-.13,6.41,0,8.7l-.45.29a11.83,11.83,0,0,1-.87-6.21c.33-2.21,1.31-3.81.55-4.59-.54-.57-1.43-.27-2.78-.29A9.86,9.86,0,0,1,9.53,79.37Z"/></g><g class="cls-3"><path class="cls-4" d="M31.6,76.2l.28-.09a6,6,0,0,1-1.05.48,4.59,4.59,0,0,0-.64.3A2,2,0,0,0,29.5,78a3.56,3.56,0,0,0,.64,2.57A15.43,15.43,0,0,1,31.75,85c-3.27-3-5.43-6.32-4.83-7.61C27.3,76.59,28.54,77.18,31.6,76.2Z"/></g><g class="cls-3"><path class="cls-4" d="M19.43,65.71c1.81.17,4,2.53,4.36,2.93.79.9,1.14,1.63,2.13,1.93s1.58-.1,2.82-.37a15.38,15.38,0,0,1,2.17-.3l-1.36.89A5.5,5.5,0,0,1,26,72.06c-1.74-.16-2.85-1.54-4.85-4.08C20.44,67.09,19.87,66.36,19.43,65.71Z"/></g><path class="cls-2" d="M70.7,47a1.58,1.58,0,0,1,.43-.66C72.37,45,75.5,44.84,76,44.82c1.17,0,1.93.14,2.77-.42s.89-1.23,1.45-2.31a14.48,14.48,0,0,1,1.11-1.79C82,39.35,83,38.44,84,38.49c1.3.08,2.14,2,2.28,2.36a5,5,0,0,1,.37,2.46v0h0a5.66,5.66,0,0,1-.29,1.07,3.77,3.77,0,0,0-.17.66,1.84,1.84,0,0,0,.42,1.19,3.49,3.49,0,0,0,2.32,1.08,15,15,0,0,1,4.33,1.49c1.16.53,2.56,1.25,4.26,2.21a13.18,13.18,0,0,1-6.66,2.34c-1.08.05-2-.06-2.42.52-.59.84.81,2.27,1.55,4.72a11.54,11.54,0,0,1,.43,4.31q0,.27-.06.51a11.51,11.51,0,0,1-5.2-3.11c-1.46-1.58-2.06-3.27-3.12-3.19-.75.07-1.07.91-1.93,1.89A9.6,9.6,0,0,1,75.3,61.9l-.16.05a19.06,19.06,0,0,1,.73-6c.44-1.5,1.16-3.25.4-4.13a3.75,3.75,0,0,0-1.21-.73,11.12,11.12,0,0,0-1.55-.51A4.23,4.23,0,0,1,71.17,49,2.55,2.55,0,0,1,70.7,47Z"/><g class="cls-3"><path class="cls-4" d="M75.3,61.9c1.71-4.54,4.5-8.28,6-8.13.86.09.7,1.41,2.52,3.91,2.32,3.19,4.74,4,6.56,5.24q0,.27-.06.51a11.51,11.51,0,0,1-5.2-3.11c-1.46-1.58-2.06-3.27-3.12-3.19-.75.07-1.07.91-1.93,1.89A9.6,9.6,0,0,1,75.3,61.9Z"/></g><g class="cls-3"><path class="cls-4" d="M86.51,43.59c0-.08.07-.17.1-.26a5.66,5.66,0,0,1-.29,1.07,3.77,3.77,0,0,0-.17.66,1.84,1.84,0,0,0,.42,1.19,3.49,3.49,0,0,0,2.32,1.08,15,15,0,0,1,4.33,1.49c-4.24.63-8.09.21-8.69-1C84.14,47,85.35,46.46,86.51,43.59Z"/></g><g class="cls-3"><path class="cls-4" d="M71.13,46.29C72.37,45,75.5,44.84,76,44.82c1.17,0,1.93.14,2.77-.42s.89-1.23,1.45-2.31a14.48,14.48,0,0,1,1.11-1.79c0,.49-.11,1-.17,1.55a5.24,5.24,0,0,1-1.23,3.41c-1.2,1.19-2.92,1.18-6.06,1.13C72.79,46.37,71.89,46.35,71.13,46.29Z"/></g><path class="cls-2" d="M78.71,26a2.24,2.24,0,0,1-.4,1C77,28.86,73,29.88,72.34,30c-1.5.34-2.54.28-3.48,1.21s-.86,1.81-1.33,3.35a18.12,18.12,0,0,1-1,2.59c-.68,1.4-1.66,2.81-3,3-1.71.21-3.26-2.1-3.53-2.5A6.66,6.66,0,0,1,59,34.55v0h0a7.9,7.9,0,0,1,.12-1.46,4.14,4.14,0,0,0,0-.9,2.4,2.4,0,0,0-.82-1.43,4.6,4.6,0,0,0-3.27-.84,20.31,20.31,0,0,1-6-.88c-1.63-.41-3.62-1-6.06-1.84a17.38,17.38,0,0,1,8.07-4.64c1.38-.32,2.63-.4,3-1.25.55-1.23-1.6-2.75-3.15-5.74a14.93,14.93,0,0,1-1.6-5.49c0-.23,0-.46-.06-.67a15.07,15.07,0,0,1,7.5,2.77c2.27,1.69,3.46,3.74,4.81,3.37,1-.26,1.17-1.43,2-2.91a12.69,12.69,0,0,1,5.48-4.89l.21-.1a25.41,25.41,0,0,1,.48,7.89c-.2,2-.71,4.49.49,5.44a4.83,4.83,0,0,0,1.74.66,16.05,16.05,0,0,0,2.13.28,5.68,5.68,0,0,1,3.44,1.58A3.39,3.39,0,0,1,78.71,26Z"/><g class="cls-3"><path class="cls-4" d="M69.12,7.73c-1.11,6.3-3.81,11.82-5.8,12-1.14.1-1.25-1.66-4.21-4.45-3.78-3.58-7.1-4-9.76-5.21,0-.23,0-.46-.06-.67a15.07,15.07,0,0,1,7.5,2.77c2.27,1.69,3.46,3.74,4.81,3.37,1-.26,1.17-1.43,2-2.91A12.69,12.69,0,0,1,69.12,7.73Z"/></g><g class="cls-3"><path class="cls-4" d="M59,34.16c0,.12,0,.25-.07.37a7.9,7.9,0,0,1,.12-1.46,4.14,4.14,0,0,0,0-.9,2.4,2.4,0,0,0-.82-1.43,4.6,4.6,0,0,0-3.27-.84,20.31,20.31,0,0,1-6-.88c5.34-1.85,10.43-2.23,11.5-.79C61.27,29.15,59.84,30.17,59,34.16Z"/></g><g class="cls-3"><path class="cls-4" d="M78.31,27C77,28.86,73,29.88,72.34,30c-1.5.34-2.54.28-3.48,1.21s-.86,1.81-1.33,3.35a18.12,18.12,0,0,1-1,2.59c0-.65-.1-1.33-.16-2-.13-1.72-.19-3.3.78-4.71,1.26-1.83,3.48-2.24,7.57-2.93C76.14,27.25,77.31,27.05,78.31,27Z"/></g></svg>