<svg id="Layer_1" data-name="Layer 1" xmlns="http://www.w3.org/2000/svg" viewBox="0 0 100 100"><defs><style>.cls-1{fill:#714c48;}.cls-2{fill:#5c3d39;}.cls-3{fill:#895e59;}</style></defs><title>wood</title><circle class="cls-1" cx="81.31" cy="50.52" r="18.69"/><rect class="cls-1" x="18.69" y="31.83" width="62.61" height="37.39"/><circle class="cls-2" cx="18.69" cy="50.52" r="18.69"/><circle class="cls-3" cx="17.97" cy="50.52" r="16.1"/><circle class="cls-1" cx="17.97" cy="50.52" r="12.79"/><circle class="cls-3" cx="17.97" cy="50.52" r="9.92"/><circle class="cls-1" cx="17.97" cy="50.52" r="6.04"/><circle class="cls-3" cx="17.97" cy="50.52" r="2.05"/><rect class="cls-2" x="54.45" y="42.64" width="15.14" height="5.33" rx="1.31" ry="1.31" transform="translate(107.32 -16.71) rotate(90)"/><rect class="cls-2" x="82.04" y="42.33" width="5.33" height="22.44" rx="2.67" ry="2.67"/><path class="cls-2" d="M46.68,60.37A2.67,2.67,0,0,0,44,63v6.18h5.33V63A2.67,2.67,0,0,0,46.68,60.37Z"/><path class="cls-2" d="M38.27,41.82a2.67,2.67,0,0,0,5.33,0V32c0-.07,0-.12,0-.18H38.31a1,1,0,0,0,0,.18Z"/><rect class="cls-1" x="45.75" y="25.73" width="4.82" height="13.31" rx="1.19" ry="1.19"/><rect class="cls-1" x="73.76" y="57.48" width="6.08" height="16.79" rx="1.5" ry="1.5"/></svg>