<svg id="Layer_1" data-name="Layer 1" xmlns="http://www.w3.org/2000/svg" viewBox="0 0 100 100"><defs><style>.cls-1{fill:#fff;}.cls-2{fill:#c8754b;}.cls-3{fill:#f27d3b;}.cls-4{fill:#fcca97;}.cls-5{fill:#3f3f40;}</style></defs><title>hamster</title><rect class="cls-1" x="3.56" y="59.06" width="2.49" height="5.08" rx="0.48" ry="0.48"/><circle class="cls-2" cx="30.21" cy="27.23" r="7.15"/><rect class="cls-2" x="25.9" y="63.1" width="5.31" height="17.47" rx="1.03" ry="1.03"/><rect class="cls-2" x="75.93" y="63.1" width="5.31" height="17.47" rx="1.03" ry="1.03"/><path class="cls-3" d="M91.94,74.78c-5.72,3.93-12.66,2.62-17.72,1.81-5.39-.87-10.41-1.47-15.08-1.87-3.43-.3-6.68-.49-9.74-.61-25.61-1-38.68,3-44.47-6.88-3.5-6-1.89-12.82-1.44-14.74C6,41.83,16.11,32.88,29,27.62c13.94-5.73,31.11-7.12,45.27-1.68,1.82.7,12,4.62,19,12.72a26.7,26.7,0,0,1,6.28,12.6C101,59.12,99.05,69.88,91.94,74.78Z"/><rect class="cls-2" x="36.6" y="63.1" width="5.31" height="17.47" rx="1.03" ry="1.03"/><rect class="cls-2" x="86.63" y="63.1" width="5.31" height="17.47" rx="1.03" ry="1.03"/><path class="cls-4" d="M49.4,74.11c-25.61-1-38.68,3-44.47-6.88-3.5-6-1.89-12.82-1.44-14.74C6,41.83,16.11,32.88,29,27.62,25,36,18.3,47.27,23.05,53.25c5.78,7.28,22-1.52,27.09,5.35C52.55,61.84,52,67.91,49.4,74.11Z"/><path class="cls-4" d="M91.94,74.78c-5.72,3.93-12.66,2.62-17.72,1.81-5.39-.87-10.41-1.47-15.08-1.87,4.94-2.57,14.71-2.61,23.45-12.1,8.11-8.81,7.94-17.74,10.67-24a26.7,26.7,0,0,1,6.28,12.6C101,59.12,99.05,69.88,91.94,74.78Z"/><circle class="cls-3" cx="40.82" cy="29.07" r="9.64"/><circle class="cls-2" cx="41.3" cy="28.64" r="5.42"/><circle class="cls-5" cx="29.43" cy="49.77" r="3.53"/><circle class="cls-5" cx="3.56" cy="60.31" r="3.56"/></svg>