<svg id="Layer_1" data-name="Layer 1" xmlns="http://www.w3.org/2000/svg" viewBox="0 0 100 100"><defs><style>.cls-1{fill:#979797;}.cls-2{fill:#3f3f40;}.cls-3{fill:#cbcbca;}.cls-4{fill:gray;}</style></defs><title>mountain goat</title><polyline class="cls-1" points="60.26 55.37 55.53 88.65 49.27 55.37"/><polyline class="cls-1" points="56.84 84.62 55.56 93.32 53.86 84.62"/><rect class="cls-1" x="53.62" y="81" width="3.78" height="2.49" rx="0.55" ry="0.55" transform="translate(111.03 164.49) rotate(180)"/><rect class="cls-1" x="53.62" y="82.68" width="3.78" height="2.49" rx="0.55" ry="0.55" transform="translate(111.03 167.84) rotate(-180)"/><polygon class="cls-1" points="25.95 58.21 36.3 61.89 25.21 83.07 22.43 80.68 25.95 58.21"/><polyline class="cls-1" points="26.23 83.29 27.81 91.94 23.42 84.24"/><rect class="cls-1" x="22.32" y="80.22" width="3.78" height="2.49" rx="0.55" ry="0.55" transform="translate(73.3 150.84) rotate(161.28)"/><rect class="cls-1" x="22.86" y="81.81" width="3.78" height="2.49" rx="0.55" ry="0.55" transform="translate(74.85 153.76) rotate(161.28)"/><polygon class="cls-2" points="59.6 94.75 52.18 94.75 55.89 89.79 59.6 94.75"/><polygon class="cls-2" points="30.99 94.75 23.57 94.75 27.28 89.79 30.99 94.75"/><polygon class="cls-1" points="81.71 39.81 90.28 39.81 86 53.89 81.71 39.81"/><path class="cls-3" d="M52.78,71.37H21.7A17.39,17.39,0,0,1,4.36,54h0A17.38,17.38,0,0,1,21.7,36.7H52.78c39.65,0,11.31,7.8,11.31,17.33h0C64.09,63.57,65,69.89,52.78,71.37Z"/><path class="cls-3" d="M48.81,62.28c-.05-3.07,1.71-4.94.56-6.81-.62-1-1.57-1.16-2.4-1.65-1.78-1-3.46-4-2.87-12.2L61.46,24.44a9.56,9.56,0,0,1,7-3h9a9.57,9.57,0,0,1,0,19.13l-4.84,10.2c-.41,2.08-3,14.62-12.13,18.14-1.49.58-5.14,2-8.05.22A8.45,8.45,0,0,1,48.81,62.28Z"/><path class="cls-3" d="M94.73,40.56H76.57a5.28,5.28,0,0,1-5.27-5.27h0c0-2.9-7.07-12.33-4.17-12.33H80.18C83.08,23,100,32.39,100,35.29h0A5.28,5.28,0,0,1,94.73,40.56Z"/><polygon class="cls-3" points="66.5 54.55 71.19 53.2 71.06 61.57 66.5 54.55"/><polygon class="cls-3" points="68.57 50.8 73.26 49.45 73.14 57.82 68.57 50.8"/><polygon class="cls-3" points="70.65 47.04 75.34 45.69 75.21 54.06 70.65 47.04"/><polygon class="cls-3" points="72.72 43.29 77.41 41.94 77.28 50.31 72.72 43.29"/><polygon class="cls-3" points="74.8 39.54 79.48 38.19 79.36 46.56 74.8 39.54"/><circle class="cls-2" cx="74.77" cy="27.89" r="1.18"/><polyline class="cls-3" points="49.59 54.66 44.85 87.94 38.59 54.66"/><polyline class="cls-3" points="46.16 83.92 44.88 92.62 43.19 83.92"/><rect class="cls-3" x="42.95" y="80.3" width="3.78" height="2.49" rx="0.55" ry="0.55" transform="translate(89.68 163.08) rotate(-180)"/><rect class="cls-3" x="42.95" y="81.97" width="3.78" height="2.49" rx="0.55" ry="0.55" transform="translate(89.68 166.43) rotate(180)"/><polygon class="cls-2" points="48.55 94.75 41.13 94.75 44.84 89.79 48.55 94.75"/><polygon class="cls-3" points="15.26 58.21 25.61 61.89 14.52 83.07 11.73 80.68 15.26 58.21"/><polyline class="cls-3" points="15.54 83.29 17.12 91.94 12.73 84.24"/><rect class="cls-3" x="11.63" y="80.22" width="3.78" height="2.49" rx="0.55" ry="0.55" transform="matrix(-0.95, 0.32, -0.32, -0.95, 52.48, 154.27)"/><rect class="cls-3" x="12.17" y="81.81" width="3.78" height="2.49" rx="0.55" ry="0.55" transform="translate(54.04 157.19) rotate(161.28)"/><polygon class="cls-2" points="20.3 94.75 12.88 94.75 16.59 89.79 20.3 94.75"/><path class="cls-3" d="M14,39.94a3.73,3.73,0,0,1-3.74,3.73C8.18,43.67,0,39.94,0,39.94S8.18,36.2,10.24,36.2A3.74,3.74,0,0,1,14,39.94Z"/><path class="cls-4" d="M64.32,5.38c3,1.49,6.47,3.81,6.86,7.09.44,3.76-3.47,6.17-2.32,8.74,1,2.26,5.24,3.35,7.66,1.94,3.32-1.95,3.16-8.47.72-12.45S69.72,4.72,64.32,5.38Z"/><path class="cls-1" d="M64.39,26.89c0-2.67,1.48-4.84,3.31-4.84S71,24.22,71,26.89,71,39.45,67.7,39.45,64.39,29.57,64.39,26.89Z"/></svg>