<svg id="Layer_1" data-name="Layer 1" xmlns="http://www.w3.org/2000/svg" viewBox="0 0 100 100"><defs><style>.cls-1{fill:#09a481;}.cls-2{fill:#f27d3b;}.cls-3{opacity:0.5;}.cls-4{fill:#ac5d2a;}</style></defs><title>carrot</title><path class="cls-1" d="M99.69,30.93a5.09,5.09,0,0,1-2.72,1L66.83,34.37c-.22,0-.54-.25-.8-.63l-.14-.13-.18-.18a2.71,2.71,0,0,1-.41-.53c-.5-.3-.87-.74-.83-1L69.63,3.06A4.2,4.2,0,0,1,71.55,0L73,2.89,76,2.37a6.33,6.33,0,0,1,.12,4.48l-7.8,21.57L82.08,11.7a4.17,4.17,0,0,1,4.34-1.5l-.23,2.93,3.08.65a4.34,4.34,0,0,1-1.65,3.46L71,30.85l22.59-5.58a6.76,6.76,0,0,1,5.31.92l-2.41,1.87Z"/><path class="cls-2" d="M.92,99.87a.79.79,0,0,1-.23-.16c-4.95-4.38,40-65.45,61-71.63,6.22-1.83,10.61,1.08,10.15,6.61a9.86,9.86,0,0,1-.28,1.7C66.91,56.05,7.32,102.83.92,99.87Z"/><g class="cls-3"><path class="cls-4" d="M.92,99.87l11.21-7.11L7.27,86.53,13.15,91l11-7.94-7.61-8.72L24.84,81l3.08-2.15L24.08,75l6.41,2.28,11.32-9.57-6.39-9.41,7.89,6.52,8.17-7.5L42.83,46.76l10.24,8.32,7.48-6.82-4.06-5.43L61.83,46,67.16,37l-5.09-5.63,8.46,2.27,1.33,1a9.86,9.86,0,0,1-.28,1.7C66.91,56.05,7.32,102.83.92,99.87Z"/></g></svg>