<svg id="Layer_1" data-name="Layer 1" xmlns="http://www.w3.org/2000/svg" viewBox="0 0 100 100"><defs><style>.cls-1{fill:#8acae0;}.cls-2{fill:#b0d4e0;}.cls-3{fill:#eaf6fd;}.cls-4{opacity:0.05;}.cls-5{fill:#3f3f40;}</style></defs><title>penicillin</title><rect class="cls-1" x="21.08" width="57.84" height="14.71" rx="2.09" ry="2.09"/><path class="cls-2" d="M83.54,32.82V97.14A2.87,2.87,0,0,1,80.68,100H19.32a2.87,2.87,0,0,1-2.86-2.86V32.82a13.82,13.82,0,0,1,.84-2,14.22,14.22,0,0,1,6.38-6V17.12H22.22A1.14,1.14,0,0,1,21.08,16v-.11a1.14,1.14,0,0,1,1.14-1.14H77.78a1.14,1.14,0,0,1,1.14,1.14V16a1.14,1.14,0,0,1-1.14,1.14H76.32v7.67a14.22,14.22,0,0,1,6.38,6A13.82,13.82,0,0,1,83.54,32.82Z"/><rect class="cls-3" x="43.12" y="33.16" width="37.2" height="60.05" rx="0.67" ry="0.67"/><path class="cls-2" d="M54,47.36H65a23.26,23.26,0,0,1,6.07.68A6.59,6.59,0,0,1,74.92,51a9.18,9.18,0,0,1,1.42,5q0,4.47-2.83,6.78c-1.89,1.54-4.63,2.32-8.21,2.32H57.88V76.85H54Zm3.91,14.21h7.46c2.51,0,4.29-.48,5.36-1.42a5.09,5.09,0,0,0,1.6-4.06A5.75,5.75,0,0,0,71.42,53a3.81,3.81,0,0,0-2.25-1.72,15.57,15.57,0,0,0-3.91-.37H57.88Z"/><g class="cls-4"><path class="cls-5" d="M67,14.71A66,66,0,0,1,68.43,0h8.4a2.1,2.1,0,0,1,2.09,2.09V12.61a2.1,2.1,0,0,1-2.09,2.1Z"/></g><g class="cls-4"><path class="cls-5" d="M83.54,32.82V97.14A2.87,2.87,0,0,1,80.68,100H58.76a29,29,0,0,0,5.86-6.79c9-14.33,6.84-36.5,4.09-60l-.33-2.83c-.19-1.64-.41-3.38-.62-5.22L40.94,16.26H67l0,.06c0-.52,0-1.05,0-1.59H77.78a1.14,1.14,0,0,1,1.14,1.14V16a1.14,1.14,0,0,1-1.14,1.14H76.32v7.67a14.22,14.22,0,0,1,6.38,6A13.82,13.82,0,0,1,83.54,32.82Z"/></g></svg>