<svg id="Layer_1" data-name="Layer 1" xmlns="http://www.w3.org/2000/svg" viewBox="0 0 100 100"><defs><style>.cls-1{fill:#3f3f40;}.cls-2{fill:#885e59;}.cls-3{fill:#f27d3b;}.cls-4{opacity:0.6;}.cls-5{fill:#c95f2a;}.cls-6{fill:gray;}</style></defs><title>vacuum cleaner</title><path class="cls-1" d="M54,75.16a24.4,24.4,0,0,1-13.63-6.9,19.59,19.59,0,0,1-5.77-12.8,19.48,19.48,0,0,1,4.54-13A21,21,0,0,1,50,35.28c6.21-1.6,10.81,1,15.26,3.47,4.14,2.32,8.06,4.51,13.64,3.86a22.91,22.91,0,0,0,11-4.6c3.07-2.39,4.93-5.19,5.1-7.68.39-6-8.93-12.95-25.59-19.15A85.64,85.64,0,0,0,42.8,5.88c-9.19-.19-15.56,1.91-17.94,5.91A10.25,10.25,0,0,0,23.69,18l-5,.43a15.18,15.18,0,0,1,1.86-9.23C28.19-3.67,55.63.69,71.12,6.46A99.32,99.32,0,0,1,87.35,14c8.76,5.28,13,10.89,12.63,16.67-.58,8.64-11.29,15.87-20.54,17-7.2.85-12.24-2-16.68-4.46-4.07-2.28-7.29-4.08-11.55-3-5.81,1.49-11.84,7.91-11.55,15.1s6.81,13.61,15.15,14.92Z"/><path class="cls-2" d="M59.32,67c-.51-1.81-3.13-3-5.18-2.82-1.42.14-2.77,1.54-5.4,4.33-3.94,4.19-4.11,5.4-4,6.22a3.69,3.69,0,0,0,1.68,2.86C50.21,79.54,60.53,71.23,59.32,67Z"/><path class="cls-2" d="M86.93,58.72A3.79,3.79,0,0,1,90.8,56.2a4.36,4.36,0,0,1,3.68,4.53,3.87,3.87,0,0,1-4.36,2.69A4,4,0,0,1,86.93,58.72Z"/><path class="cls-3" d="M98.36,82.73a16.27,16.27,0,0,1-3.75,8.75C90.44,96.05,83.85,96.12,75,96.22c-3.61,0-31,.33-33.61-8.94a7.44,7.44,0,0,1,0-3.69c3-12.71,31.44-34.85,46.34-26.76C95.32,61,99.71,73.16,98.36,82.73Z"/><g class="cls-4"><path class="cls-5" d="M98.36,82.73a16.27,16.27,0,0,1-3.75,8.75C90.44,96.05,83.85,96.12,75,96.22c-3.61,0-31,.33-33.61-8.94a7.44,7.44,0,0,1,0-3.69,204.09,204.09,0,0,0,36.47,1.29C86,84.43,92.79,83.59,98.36,82.73Z"/></g><circle class="cls-2" cx="83.05" cy="87.63" r="11.54"/><circle class="cls-3" cx="83.05" cy="87.63" r="10.26"/><path class="cls-1" d="M41.68,94.26v1a2.21,2.21,0,0,1-.21,1H.21a2.21,2.21,0,0,1-.21-1v-1a2.34,2.34,0,0,1,2.34-2.33h8.74a25.38,25.38,0,0,1,3.67-4c1.16-1,2.09-1.85,2.93-2.46l.14-.1V18.9a2.34,2.34,0,0,1,2.34-2.33h1.95a2.34,2.34,0,0,1,2.33,2.33V85.48a34.1,34.1,0,0,1,7,6.18,2.56,2.56,0,0,1,.23.27h7.66A2.34,2.34,0,0,1,41.68,94.26Z"/><path class="cls-6" d="M24.44,18.9V85.43H17.68l.14-.1V18.9a2.34,2.34,0,0,1,2.34-2.33h1.95A2.34,2.34,0,0,1,24.44,18.9Z"/></svg>