<svg id="Layer_1" data-name="Layer 1" xmlns="http://www.w3.org/2000/svg" viewBox="0 0 100 100"><defs><style>.cls-1{fill:#bcd5df;}.cls-2{fill:#eaf6fd;}.cls-3{fill:#9dc7db;}.cls-4{fill:#3f3f40;}.cls-5{fill:#6ab7d8;}</style></defs><title>yeti</title><rect class="cls-1" x="53.17" y="54.87" width="12.6" height="45.13" rx="1.67" ry="1.67"/><rect class="cls-1" x="35.05" y="54.87" width="12.6" height="45.13" rx="1.67" ry="1.67"/><rect class="cls-2" x="28.58" y="34.95" width="42.52" height="56.06" rx="5.65" ry="5.65"/><path class="cls-3" d="M27.91,25.43V44.79a21.94,21.94,0,0,0,43.88,0V25.43Z"/><circle class="cls-4" cx="33.85" cy="36.66" r="1.77"/><circle class="cls-4" cx="66.75" cy="36.72" r="1.77"/><circle class="cls-3" cx="22.97" cy="33.45" r="5.78"/><circle class="cls-3" cx="26.55" cy="40.7" r="5.05"/><circle class="cls-3" cx="77.15" cy="33.45" r="5.78"/><circle class="cls-3" cx="73.56" cy="40.7" r="5.05"/><polygon class="cls-5" points="42.59 49.63 57.1 49.63 49.85 38.91 42.59 49.63"/><rect class="cls-3" x="27.91" y="19.85" width="43.88" height="11.28" rx="1.5" ry="1.5"/><polygon class="cls-2" points="28.42 34.7 29.24 21.63 41.35 25.38 46.32 21.63 49.42 25.49 43.15 2.77 38.58 15.85 26.13 9.62 27.62 15.71 17.07 19.85 22.09 21.63 20.66 37.68 28.42 34.7"/><polygon class="cls-2" points="70.23 34.7 69.41 21.63 57.3 25.38 52.33 21.63 49.23 25.49 55.5 2.77 60.08 15.85 72.52 9.62 71.04 15.71 81.58 19.85 76.57 21.63 78 37.68 70.23 34.7"/><polygon class="cls-2" points="47.97 0 44.22 17.9 49.45 24.85 56.13 14.93 47.97 0"/><polygon class="cls-2" points="38.16 44.27 31.01 46.66 31.01 43.07 28.42 34.7 20.66 37.68 19.33 44.27 21.62 42.34 21.93 51.37 25.14 47.99 26.55 57.47 31.01 57.47 31.4 65.09 35.62 62.98 38.53 68.85 41.35 66.16 44.84 70.9 47.65 66.72 51.4 69.29 50.79 57.47 47.65 59.28 44.84 53.64 39.8 60.97 37.05 53.49 38.16 44.27"/><polygon class="cls-2" points="60.48 44.27 67.64 46.66 67.64 43.07 70.23 34.7 78 37.68 79.32 44.27 77.03 42.34 76.72 51.37 73.51 47.99 72.1 57.47 67.64 57.47 67.25 65.09 63.03 62.98 60.12 68.85 57.3 66.16 53.81 70.9 51 66.72 47.25 69.29 47.86 57.47 51 59.28 53.81 53.64 58.85 60.97 61.6 53.49 60.48 44.27"/><rect class="cls-1" x="67.24" y="57.47" width="9.09" height="25.25" rx="1.21" ry="1.21"/><rect class="cls-2" x="67.24" y="46.66" width="9.09" height="25.25" rx="1.21" ry="1.21"/><rect class="cls-1" x="22.51" y="57.47" width="9.09" height="25.25" rx="1.21" ry="1.21"/><rect class="cls-2" x="22.51" y="46.66" width="9.09" height="25.25" rx="1.21" ry="1.21"/></svg>