<svg id="Layer_1" data-name="Layer 1" xmlns="http://www.w3.org/2000/svg" xmlns:xlink="http://www.w3.org/1999/xlink" viewBox="0 0 100 100"><defs><style>.cls-1{fill:none;}.cls-2{fill:#3f3f40;}.cls-3{fill:#09a481;}.cls-4{opacity:0.26;}.cls-5{clip-path:url(#clip-path);}.cls-6{fill:#b8529e;}.cls-7{fill:#b7539e;}.cls-8{fill:#b6539f;}.cls-9{fill:#b5549f;}.cls-10{fill:#b454a0;}.cls-11{fill:#b355a0;}.cls-12{fill:#b256a1;}.cls-13{fill:#b156a1;}.cls-14{fill:#b057a2;}.cls-15{fill:#af58a2;}.cls-16{fill:#ae58a3;}.cls-17{fill:#ad59a3;}.cls-18{fill:#ac59a4;}.cls-19{fill:#ab5aa4;}.cls-20{fill:#aa5ba5;}.cls-21{fill:#a95ba5;}.cls-22{fill:#a85ca6;}.cls-23{fill:#a75ca6;}.cls-24{fill:#a65da6;}.cls-25{fill:#a55ea7;}.cls-26{fill:#a45ea7;}.cls-27{fill:#a35fa8;}.cls-28{fill:#a25fa8;}.cls-29{fill:#a160a9;}.cls-30{fill:#a061a9;}.cls-31{fill:#9f61aa;}.cls-32{fill:#9e62aa;}.cls-33{fill:#9d63ab;}.cls-34{fill:#9c63ab;}.cls-35{fill:#9b64ac;}.cls-36{fill:#9a64ac;}.cls-37{fill:#9965ad;}.cls-38{fill:#9866ad;}.cls-39{fill:#9766ae;}.cls-40{fill:#9667ae;}.cls-41{fill:#9567af;}.cls-42{fill:#9468af;}.cls-43{fill:#9369af;}.cls-44{fill:#9269b0;}.cls-45{fill:#916ab0;}.cls-46{fill:#906bb1;}.cls-47{fill:#8f6bb1;}.cls-48{fill:#8e6cb2;}.cls-49{fill:#8d6cb2;}.cls-50{fill:#8c6db3;}.cls-51{fill:#8b6eb3;}.cls-52{fill:#8a6eb4;}.cls-53{fill:#896fb4;}.cls-54{fill:#886fb5;}.cls-55{fill:#8770b5;}.cls-56{fill:#8671b6;}.cls-57{fill:#8571b6;}.cls-58{fill:#8472b7;}.cls-59{fill:#8372b7;}.cls-60{fill:#8273b7;}.cls-61{fill:#8174b8;}.cls-62{fill:#8074b8;}.cls-63{fill:#7f75b9;}.cls-64{fill:#7e76b9;}.cls-65{fill:#7d76ba;}.cls-66{fill:#7c77ba;}.cls-67{fill:#7b77bb;}.cls-68{fill:#7a78bb;}.cls-69{fill:#7979bc;}.cls-70{fill:#7879bc;}.cls-71{fill:#777abd;}.cls-72{fill:#767abd;}.cls-73{fill:#757bbe;}.cls-74{fill:#747cbe;}.cls-75{fill:#737cbf;}.cls-76{fill:#727dbf;}.cls-77{fill:#717ec0;}.cls-78{fill:#6f7ec0;}.cls-79{fill:#6e7fc0;}.cls-80{fill:#6d7fc1;}.cls-81{fill:#6c80c1;}.cls-82{fill:#6b81c2;}.cls-83{fill:#6a81c2;}.cls-84{fill:#6982c3;}.cls-85{fill:#6882c3;}.cls-86{fill:#6783c4;}.cls-87{fill:#6684c4;}.cls-88{fill:#6584c5;}.cls-89{fill:#6485c5;}.cls-90{fill:#6385c6;}.cls-91{fill:#6286c6;}.cls-92{fill:#6187c7;}.cls-93{fill:#6087c7;}.cls-94{fill:#5f88c8;}.cls-95{fill:#5e89c8;}.cls-96{fill:#5d89c8;}.cls-97{fill:#5c8ac9;}.cls-98{fill:#5b8ac9;}.cls-99{fill:#5a8bca;}.cls-100{fill:#598cca;}.cls-101{fill:#588ccb;}.cls-102{fill:#578dcb;}.cls-103{fill:#568dcc;}.cls-104{fill:#558ecc;}.cls-105{fill:#548fcd;}.cls-106{fill:#538fcd;}.cls-107{fill:#5290ce;}.cls-108{fill:#5190ce;}.cls-109{fill:#5091cf;}.cls-110{fill:#4f92cf;}.cls-111{fill:#4e92d0;}.cls-112{fill:#4d93d0;}.cls-113{fill:#4c94d0;}.cls-114{fill:#4b94d1;}.cls-115{fill:#4a95d1;}.cls-116{fill:#4995d2;}.cls-117{fill:#4896d2;}.cls-118{fill:#4797d3;}.cls-119{fill:#4697d3;}.cls-120{fill:#4598d4;}.cls-121{fill:#4498d4;}.cls-122{fill:#4399d5;}.cls-123{fill:#429ad5;}.cls-124{fill:#419ad6;}.cls-125{fill:#409bd6;}.cls-126{fill:#3f9cd7;}.cls-127{fill:#3e9cd7;}.cls-128{fill:#3d9dd8;}.cls-129{fill:#3c9dd8;}.cls-130{fill:#3b9ed9;}.cls-131{fill:#3a9fd9;}.cls-132{fill:#399fd9;}.cls-133{fill:#38a0da;}.cls-134{fill:#37a0da;}.cls-135{fill:#36a1db;}.cls-136{fill:#35a2db;}.cls-137{fill:#34a2dc;}.cls-138{fill:#33a3dc;}.cls-139{fill:#32a3dd;}.cls-140{fill:#31a4dd;}.cls-141{fill:#30a5de;}.cls-142{fill:#2fa5de;}.cls-143{fill:#2ea6df;}.cls-144{fill:#2da7df;}.cls-145{fill:#2ca7e0;}.cls-146{fill:#2ba8e0;}.cls-147{fill:#2aa8e1;}.cls-148{opacity:0.3;}.cls-149{fill:#22b473;}</style><clipPath id="clip-path"><path class="cls-1" d="M100,21V46.93l-.13-.06C82.28,39.85,69.8,38,63,41.38l-.56.29L62,42h0l-.22.15h0l-.1.08-.11.08h0l-.2.15,0,0h0c-.15.11-.28.22-.42.34h0l-.09.08-.29.27-.16.16,0,0a2.09,2.09,0,0,0-.2.22.52.52,0,0,0-.1.11l-.17.19c-.11.13-.22.25-.31.38l0,0,0,0a.86.86,0,0,0-.07.1l-.12.16-.19.27-.14.2a2.12,2.12,0,0,0-.12.2l0,0a1,1,0,0,0-.11.17l0,0-.06.1a2.91,2.91,0,0,0-.17.3l-.18.3,0,.1,0,.06-.5.94a15.09,15.09,0,0,1-2.38,3.6l-.12.12-.39.36-.46.36-.24.17-.13.08-.26.17-.42.22-.29.15a9.93,9.93,0,0,1-2.27.72,13,13,0,0,1-3.39.24l-.28,0H46.9l-.12,0-.26,0L46,53.31l-.13,0h0l-.26-.05h0l-.34-.06h0l-.32-.07L44.47,53h0l-.35-.09-.34-.09-.06,0c-.24-.06-.47-.14-.71-.21l-.37-.12-.37-.13-.74-.27-.74-.29-.09,0-.18-.07-.11-.05-.11,0-.18-.08-.13,0-.32-.15-.37-.16L38.88,51l-.37-.17-.38-.18-.88-.42L37,50.07l-.36-.18a1.63,1.63,0,0,1-.19-.09l-.2-.1-.38-.19,0,0-.34-.17-.38-.19-.51-.25h0l-.13-.07-.11-.05-.11-.06-.17-.08h0l-.26-.13-.27-.13-.39-.2L33,48.1h0l-.53-.26c-.54-.26-1.08-.52-1.64-.77l-.64-.29h0c-.51-.23-1-.46-1.56-.68q-1.59-.66-3.27-1.23L25,44.75l-.36-.12-1-.29c-.39-.1-.78-.21-1.18-.3l-1.19-.28a31.92,31.92,0,0,0-3.75-.55A28.73,28.73,0,0,0,5.7,44.61h0l-.16.06-.3.11h0L4.77,45A30,30,0,0,0,0,47.27V21.79a32.47,32.47,0,0,1,14-2c8.41.59,15.29,4.1,20.78,6.9l1.23.63.63.32.12.06.38.19,1.49.72.36.17c.88.4,1.72.76,2.53,1l.35.12.25.08.33.11.27.08.41.11.29.07.27.07.14,0,.21.05h.07l.22,0,.19,0,.18,0,.31,0,.31,0,.31,0c.18,0,.37,0,.55,0l.44,0h0l.41-.05h.07l.43-.07.23,0a5.6,5.6,0,0,0,2.7-1.44,7.57,7.57,0,0,0,1.1-1.39l.35-.61.23-.42.16-.33c.12-.23.23-.45.34-.69s.11-.23.17-.35.1-.22.16-.33a4.39,4.39,0,0,1,.21-.44c.14-.3.3-.61.46-.92l.18-.34c.06-.11.12-.23.19-.34s.13-.23.2-.35a3.13,3.13,0,0,1,.21-.34l.1-.17.23-.35.12-.17a2.62,2.62,0,0,1,.24-.34,1.09,1.09,0,0,1,.13-.17,10.7,10.7,0,0,1,.69-.85L56.1,20c.11-.12.22-.25.34-.36l.17-.17a11.7,11.7,0,0,1,1.1-1L58,18.3c.18-.13.36-.27.56-.4l.18-.12.69-.43.34-.2c3.93-2.18,9.24-3,15.77-2.45C82.29,15.29,90.53,17.41,100,21Z"/></clipPath></defs><title>aurora</title><rect class="cls-2" width="100" height="100" rx="2.38" ry="2.38"/><path class="cls-3" d="M100,21V46.93l-.13-.06C82.28,39.85,69.8,38,63,41.38l-.56.29L62,42h0l-.22.15h0l-.1.08-.11.08h0l-.2.15,0,0h0c-.15.11-.28.22-.42.34h0l-.09.08-.29.27-.16.16,0,0a2.09,2.09,0,0,0-.2.22.52.52,0,0,0-.1.11l-.17.19-.31.38,0,0,0,0a.86.86,0,0,0-.07.1l-.12.16-.19.27-.14.2-.12.2,0,0h0a1,1,0,0,0-.11.17l0,0h0l-.06.1a2.91,2.91,0,0,0-.17.3l-.18.3,0,.1h0l0,.06-.5.94a15.09,15.09,0,0,1-2.38,3.6l-.12.12-.39.36-.46.36-.24.17-.13.08-.26.17-.42.22-.29.15a9.93,9.93,0,0,1-2.27.72,13,13,0,0,1-3.39.24l-.28,0H46.9l-.12,0-.26,0L46,53.31l-.13,0h0l-.26-.05h-.07l-.3,0h0l-.32-.07L44.47,53h0l-.35-.09-.34-.09-.06,0c-.24-.06-.47-.14-.71-.21l-.37-.12-.37-.13-.74-.27-.74-.29h0l-.09,0-.18-.07-.11-.05-.29-.12-.13,0-.32-.15-.37-.16L38.88,51l-.37-.17-.38-.18-.88-.42a1.92,1.92,0,0,0-.25-.12h0l-.36-.18a1.63,1.63,0,0,1-.19-.09l-.2-.1h0l-.38-.19h0l0,0-.34-.17h0l-.38-.19-.51-.25-.13-.07-.11-.05-.11-.06-.17-.08-.26-.13-.27-.13-.39-.2L33,48.1l-.53-.26c-.54-.26-1.08-.52-1.64-.77l-.64-.29h0c-.51-.23-1-.46-1.56-.68q-1.59-.66-3.27-1.23L25,44.75l-.36-.12-1-.29c-.39-.1-.78-.21-1.18-.3l-1.19-.28a31.92,31.92,0,0,0-3.75-.55A28.73,28.73,0,0,0,5.7,44.61h0l-.16.06-.3.11h0L4.77,45A30,30,0,0,0,0,47.27V21.79a32.47,32.47,0,0,1,14-2c8.41.59,15.29,4.1,20.78,6.9l1.23.63.63.32.12.06.38.19,1.49.72.36.17c.88.4,1.72.76,2.53,1l.35.12.25.08.33.11.27.08.41.11.29.07.27.07.14,0,.21.05h.07l.22,0,.19,0,.18,0,.31,0,.31,0,.31,0c.18,0,.37,0,.55,0l.44,0h0l.41-.05h.07l.43-.07.23,0a5.6,5.6,0,0,0,2.7-1.44,7.57,7.57,0,0,0,1.1-1.39l.35-.61.23-.42.16-.33c.12-.23.23-.45.34-.69l.17-.35c.05-.11.1-.22.16-.33a4.39,4.39,0,0,1,.21-.44c.14-.3.3-.61.46-.92l.18-.34c.06-.11.12-.23.19-.34s.13-.23.2-.35a3.13,3.13,0,0,1,.21-.34l.1-.17.23-.35.12-.17a2.62,2.62,0,0,1,.24-.34,1.09,1.09,0,0,1,.13-.17,10.7,10.7,0,0,1,.69-.85L56.1,20c.11-.12.22-.25.34-.36l.17-.17a11.7,11.7,0,0,1,1.1-1L58,18.3c.18-.13.36-.27.56-.4l.18-.12.69-.43.34-.2c3.93-2.18,9.24-3,15.77-2.45C82.29,15.29,90.53,17.41,100,21Z"/><g class="cls-4"><g class="cls-5"><rect class="cls-6" y="14.13" width="0.54" height="39.38"/><rect class="cls-7" x="0.54" y="14.13" width="0.71" height="39.38"/><rect class="cls-8" x="1.25" y="14.13" width="0.71" height="39.38"/><rect class="cls-9" x="1.96" y="14.13" width="0.71" height="39.38"/><rect class="cls-10" x="2.67" y="14.13" width="0.71" height="39.38"/><rect class="cls-11" x="3.37" y="14.13" width="0.71" height="39.38"/><rect class="cls-12" x="4.08" y="14.13" width="0.71" height="39.38"/><rect class="cls-13" x="4.79" y="14.13" width="0.71" height="39.38"/><rect class="cls-14" x="5.5" y="14.13" width="0.71" height="39.38"/><rect class="cls-15" x="6.2" y="14.13" width="0.71" height="39.38"/><rect class="cls-16" x="6.91" y="14.13" width="0.71" height="39.38"/><rect class="cls-17" x="7.62" y="14.13" width="0.71" height="39.38"/><rect class="cls-18" x="8.33" y="14.13" width="0.71" height="39.38"/><rect class="cls-19" x="9.04" y="14.13" width="0.71" height="39.38"/><rect class="cls-20" x="9.74" y="14.13" width="0.71" height="39.38"/><rect class="cls-21" x="10.45" y="14.13" width="0.71" height="39.38"/><rect class="cls-22" x="11.16" y="14.13" width="0.71" height="39.38"/><rect class="cls-23" x="11.87" y="14.13" width="0.71" height="39.38"/><rect class="cls-24" x="12.57" y="14.13" width="0.71" height="39.38"/><rect class="cls-25" x="13.28" y="14.13" width="0.71" height="39.38"/><rect class="cls-26" x="13.99" y="14.13" width="0.71" height="39.38"/><rect class="cls-27" x="14.7" y="14.13" width="0.71" height="39.38"/><rect class="cls-28" x="15.41" y="14.13" width="0.71" height="39.38"/><rect class="cls-29" x="16.11" y="14.13" width="0.71" height="39.38"/><rect class="cls-30" x="16.82" y="14.13" width="0.71" height="39.38"/><rect class="cls-31" x="17.53" y="14.13" width="0.71" height="39.38"/><rect class="cls-32" x="18.24" y="14.13" width="0.71" height="39.38"/><rect class="cls-33" x="18.95" y="14.13" width="0.71" height="39.38"/><rect class="cls-34" x="19.65" y="14.13" width="0.71" height="39.38"/><rect class="cls-35" x="20.36" y="14.13" width="0.71" height="39.38"/><rect class="cls-36" x="21.07" y="14.13" width="0.71" height="39.38"/><rect class="cls-37" x="21.78" y="14.13" width="0.71" height="39.38"/><rect class="cls-38" x="22.48" y="14.13" width="0.71" height="39.38"/><rect class="cls-39" x="23.19" y="14.13" width="0.71" height="39.38"/><rect class="cls-40" x="23.9" y="14.13" width="0.71" height="39.38"/><rect class="cls-41" x="24.61" y="14.13" width="0.71" height="39.38"/><rect class="cls-42" x="25.32" y="14.13" width="0.71" height="39.38"/><rect class="cls-43" x="26.02" y="14.13" width="0.71" height="39.38"/><rect class="cls-44" x="26.73" y="14.13" width="0.71" height="39.38"/><rect class="cls-45" x="27.44" y="14.13" width="0.71" height="39.38"/><rect class="cls-46" x="28.15" y="14.13" width="0.71" height="39.38"/><rect class="cls-47" x="28.85" y="14.13" width="0.71" height="39.38"/><rect class="cls-48" x="29.56" y="14.13" width="0.71" height="39.38"/><rect class="cls-49" x="30.27" y="14.13" width="0.71" height="39.38"/><rect class="cls-50" x="30.98" y="14.13" width="0.71" height="39.38"/><rect class="cls-51" x="31.69" y="14.13" width="0.71" height="39.38"/><rect class="cls-52" x="32.39" y="14.13" width="0.71" height="39.38"/><rect class="cls-53" x="33.1" y="14.13" width="0.71" height="39.38"/><rect class="cls-54" x="33.81" y="14.13" width="0.71" height="39.38"/><rect class="cls-55" x="34.52" y="14.13" width="0.71" height="39.38"/><rect class="cls-56" x="35.23" y="14.13" width="0.71" height="39.38"/><rect class="cls-57" x="35.93" y="14.13" width="0.71" height="39.38"/><rect class="cls-58" x="36.64" y="14.13" width="0.71" height="39.38"/><rect class="cls-59" x="37.35" y="14.13" width="0.71" height="39.38"/><rect class="cls-60" x="38.06" y="14.13" width="0.71" height="39.38"/><rect class="cls-61" x="38.76" y="14.13" width="0.71" height="39.38"/><rect class="cls-62" x="39.47" y="14.13" width="0.71" height="39.38"/><rect class="cls-63" x="40.18" y="14.13" width="0.71" height="39.38"/><rect class="cls-64" x="40.89" y="14.13" width="0.71" height="39.38"/><rect class="cls-65" x="41.6" y="14.13" width="0.71" height="39.38"/><rect class="cls-66" x="42.3" y="14.13" width="0.71" height="39.38"/><rect class="cls-67" x="43.01" y="14.13" width="0.71" height="39.38"/><rect class="cls-68" x="43.72" y="14.13" width="0.71" height="39.38"/><rect class="cls-69" x="44.43" y="14.13" width="0.71" height="39.38"/><rect class="cls-70" x="45.13" y="14.13" width="0.71" height="39.38"/><rect class="cls-71" x="45.84" y="14.13" width="0.71" height="39.38"/><rect class="cls-72" x="46.55" y="14.13" width="0.71" height="39.38"/><rect class="cls-73" x="47.26" y="14.13" width="0.71" height="39.38"/><rect class="cls-74" x="47.97" y="14.13" width="0.71" height="39.38"/><rect class="cls-75" x="48.67" y="14.13" width="0.71" height="39.38"/><rect class="cls-76" x="49.38" y="14.13" width="0.71" height="39.38"/><rect class="cls-77" x="50.09" y="14.13" width="0.71" height="39.38"/><rect class="cls-78" x="50.8" y="14.13" width="0.71" height="39.38"/><rect class="cls-79" x="51.51" y="14.13" width="0.71" height="39.38"/><rect class="cls-80" x="52.21" y="14.13" width="0.71" height="39.38"/><rect class="cls-81" x="52.92" y="14.13" width="0.71" height="39.38"/><rect class="cls-82" x="53.63" y="14.13" width="0.71" height="39.38"/><rect class="cls-83" x="54.34" y="14.13" width="0.71" height="39.38"/><rect class="cls-84" x="55.04" y="14.13" width="0.71" height="39.38"/><rect class="cls-85" x="55.75" y="14.13" width="0.71" height="39.38"/><rect class="cls-86" x="56.46" y="14.13" width="0.71" height="39.38"/><rect class="cls-87" x="57.17" y="14.13" width="0.71" height="39.38"/><rect class="cls-88" x="57.88" y="14.13" width="0.71" height="39.38"/><rect class="cls-89" x="58.58" y="14.13" width="0.71" height="39.38"/><rect class="cls-90" x="59.29" y="14.13" width="0.71" height="39.38"/><rect class="cls-91" x="60" y="14.13" width="0.71" height="39.38"/><rect class="cls-92" x="60.71" y="14.13" width="0.71" height="39.38"/><rect class="cls-93" x="61.41" y="14.13" width="0.71" height="39.38"/><rect class="cls-94" x="62.12" y="14.13" width="0.71" height="39.38"/><rect class="cls-95" x="62.83" y="14.13" width="0.71" height="39.38"/><rect class="cls-96" x="63.54" y="14.13" width="0.71" height="39.38"/><rect class="cls-97" x="64.25" y="14.13" width="0.71" height="39.38"/><rect class="cls-98" x="64.95" y="14.13" width="0.71" height="39.38"/><rect class="cls-99" x="65.66" y="14.13" width="0.71" height="39.38"/><rect class="cls-100" x="66.37" y="14.13" width="0.71" height="39.38"/><rect class="cls-101" x="67.08" y="14.13" width="0.71" height="39.38"/><rect class="cls-102" x="67.79" y="14.13" width="0.71" height="39.38"/><rect class="cls-103" x="68.49" y="14.13" width="0.71" height="39.38"/><rect class="cls-104" x="69.2" y="14.13" width="0.71" height="39.38"/><rect class="cls-105" x="69.91" y="14.13" width="0.71" height="39.38"/><rect class="cls-106" x="70.62" y="14.13" width="0.71" height="39.38"/><rect class="cls-107" x="71.32" y="14.13" width="0.71" height="39.38"/><rect class="cls-108" x="72.03" y="14.13" width="0.71" height="39.38"/><rect class="cls-109" x="72.74" y="14.13" width="0.71" height="39.38"/><rect class="cls-110" x="73.45" y="14.13" width="0.71" height="39.38"/><rect class="cls-111" x="74.16" y="14.13" width="0.71" height="39.38"/><rect class="cls-112" x="74.86" y="14.13" width="0.71" height="39.38"/><rect class="cls-113" x="75.57" y="14.13" width="0.71" height="39.38"/><rect class="cls-114" x="76.28" y="14.13" width="0.71" height="39.38"/><rect class="cls-115" x="76.99" y="14.13" width="0.71" height="39.38"/><rect class="cls-116" x="77.69" y="14.13" width="0.71" height="39.38"/><rect class="cls-117" x="78.4" y="14.13" width="0.71" height="39.38"/><rect class="cls-118" x="79.11" y="14.13" width="0.71" height="39.38"/><rect class="cls-119" x="79.82" y="14.13" width="0.71" height="39.38"/><rect class="cls-120" x="80.53" y="14.13" width="0.71" height="39.38"/><rect class="cls-121" x="81.23" y="14.13" width="0.71" height="39.38"/><rect class="cls-122" x="81.94" y="14.13" width="0.71" height="39.38"/><rect class="cls-123" x="82.65" y="14.13" width="0.71" height="39.38"/><rect class="cls-124" x="83.36" y="14.13" width="0.71" height="39.38"/><rect class="cls-125" x="84.06" y="14.13" width="0.71" height="39.38"/><rect class="cls-126" x="84.77" y="14.13" width="0.71" height="39.38"/><rect class="cls-127" x="85.48" y="14.13" width="0.71" height="39.38"/><rect class="cls-128" x="86.19" y="14.13" width="0.71" height="39.38"/><rect class="cls-129" x="86.9" y="14.13" width="0.71" height="39.38"/><rect class="cls-130" x="87.6" y="14.13" width="0.71" height="39.38"/><rect class="cls-131" x="88.31" y="14.13" width="0.71" height="39.38"/><rect class="cls-132" x="89.02" y="14.13" width="0.71" height="39.38"/><rect class="cls-133" x="89.73" y="14.13" width="0.71" height="39.38"/><rect class="cls-134" x="90.44" y="14.13" width="0.71" height="39.38"/><rect class="cls-135" x="91.14" y="14.13" width="0.71" height="39.38"/><rect class="cls-136" x="91.85" y="14.13" width="0.71" height="39.38"/><rect class="cls-137" x="92.56" y="14.13" width="0.71" height="39.38"/><rect class="cls-138" x="93.27" y="14.13" width="0.71" height="39.38"/><rect class="cls-139" x="93.97" y="14.13" width="0.71" height="39.38"/><rect class="cls-140" x="94.68" y="14.13" width="0.71" height="39.38"/><rect class="cls-141" x="95.39" y="14.13" width="0.71" height="39.38"/><rect class="cls-142" x="96.1" y="14.13" width="0.71" height="39.38"/><rect class="cls-143" x="96.81" y="14.13" width="0.71" height="39.38"/><rect class="cls-144" x="97.51" y="14.13" width="0.71" height="39.38"/><rect class="cls-145" x="98.22" y="14.13" width="0.71" height="39.38"/><rect class="cls-146" x="98.93" y="14.13" width="0.71" height="39.38"/><rect class="cls-147" x="99.64" y="14.13" width="0.36" height="39.38"/></g></g><g class="cls-148"><path class="cls-149" d="M100,43.5v3.43l-.13-.06C82.28,39.85,69.8,38,63,41.38l-.56.29L62,42h0l-.22.15h0l-.1.08-.11.08h0l-.2.15,0,0h0c-.15.11-.28.22-.42.34h0l-.09.08-.29.27-.16.16,0,0a2.09,2.09,0,0,0-.2.22.52.52,0,0,0-.1.11l-.17.19-.31.38,0,0,0,0-.19.26-.19.27-.14.2-.12.2,0,0c0,.05-.07.11-.11.17l0,0-.06.1a2.91,2.91,0,0,0-.17.3c-.08.13-.16.26-.23.4l0,.06-.5.94a15.09,15.09,0,0,1-2.38,3.6l-.12.12-.39.36-.46.36-.24.17-.13.08-.26.17-.42.22-.29.15a9.93,9.93,0,0,1-2.27.72,13,13,0,0,1-3.39.24l-.28,0H46.9l-.12,0-.26,0L46,53.31l-.13,0h0l-.26-.05h-.07l-.3,0h0l-.32-.07L44.47,53h0l-.35-.09-.34-.09-.06,0c-.24-.06-.47-.14-.71-.21l-.37-.12-.37-.13-.74-.27-.74-.29-.09,0-.18-.07-.11-.05-.11,0-1-.44L38.88,51l-.37-.17-.38-.18-.88-.42a1.92,1.92,0,0,0-.25-.12l-.36-.19a1.63,1.63,0,0,1-.19-.09l-.2-.1-.38-.19,0,0-.34-.17-.38-.19-.51-.25-.13-.07-.11-.05-.11-.06-.17-.08-.26-.13-.27-.13L33,48.1l-.53-.26c-.54-.26-1.08-.52-1.64-.77l-.64-.29h0c-.51-.23-1-.46-1.56-.68q-1.59-.66-3.27-1.23L25,44.75l-.36-.12-1-.29c-.39-.1-.78-.21-1.18-.3l-1.19-.28a31.92,31.92,0,0,0-3.75-.55A28.73,28.73,0,0,0,5.7,44.61h0l-.16.06-.3.11h0L4.77,45A30,30,0,0,0,0,47.27v-3.8a32.23,32.23,0,0,1,17.16-3.13c8,.67,14.47,3.93,19.66,6.52,4.89,2.45,8.74,4.38,12.32,3.63,2.73-.57,3.64-2.33,4.8-4.58s2.63-5.14,6.56-7.12c3.71-1.87,8.72-2.52,14.87-1.9C82.12,37.57,90.42,39.79,100,43.5Z"/></g></svg>