<svg id="Layer_1" data-name="Layer 1" xmlns="http://www.w3.org/2000/svg" viewBox="0 0 100 100"><defs><style>.cls-1{fill:#09a481;}.cls-2{fill:#1e7a64;}.cls-3{fill:#6ab7d8;}.cls-4{fill:#885e59;}.cls-5{fill:#6d4945;}.cls-6{fill:#9dc7db;}</style></defs><title>bonsai tree</title><path class="cls-1" d="M44.56,61.55c-.71,2.17-3.75,3.21-7.25,2.67A12,12,0,0,1,31,65.9a12.84,12.84,0,0,1-4.25-.7,4.26,4.26,0,0,1-2.73.87c-1.9,0-3.44-1-3.44-2.18a1.15,1.15,0,0,1,0-.26c-2.6.42-4.55.1-5-1a2.12,2.12,0,0,1,.35-1.92,6.77,6.77,0,0,1,.87-1.11c-3.11-1.06-5.24-3.25-5.24-5.79,0-2.22,1.63-4.18,4.11-5.34a3.56,3.56,0,0,1-.19-1.12c0-2.45,2.67-4.47,6.18-4.85a6.28,6.28,0,0,1,11.65,1.08,3.54,3.54,0,0,1,1.33-.26c2.35,0,4.25,2.31,4.25,5.15v.15l.44.29A4,4,0,0,1,42.92,50c1.22,1.43.87,3.9-.68,6.38a6.87,6.87,0,0,1,2.3,3.1A3.45,3.45,0,0,1,44.56,61.55Z"/><path class="cls-2" d="M44.56,61.55c-.71,2.17-3.75,3.21-7.25,2.67A12,12,0,0,1,31,65.9a12.84,12.84,0,0,1-4.25-.7,4.26,4.26,0,0,1-2.73.87c-1.9,0-3.44-1-3.44-2.18a1.15,1.15,0,0,1,0-.26c-2.6.42-4.55.1-5-1a2.12,2.12,0,0,1,.35-1.92,5.3,5.3,0,0,1,4.07,0,5.4,5.4,0,0,1,2.87,3.19,4.08,4.08,0,0,1,2.49-1.47,4,4,0,0,1,2.55.45,16.57,16.57,0,0,1,3.26-1,17.06,17.06,0,0,1,4.78-.32,10.77,10.77,0,0,1,4.09-2,10.66,10.66,0,0,1,4.52-.1A3.45,3.45,0,0,1,44.56,61.55Z"/><rect class="cls-3" x="14.79" y="90.99" width="64.27" height="9.01" rx="1.87" ry="1.87"/><path class="cls-4" d="M47.92,68c-.24,3.12,2.26,6,5.36,8.65C58.38,81,65.14,84.6,64,87.29a1.28,1.28,0,0,1-.53.56c-1.81,1.13-7.8,1-18.41.59-3.87-.13-6.69-.3-8.76-.52-4-.44-5.21-1.11-5.78-2.26-1.46-2.9,3-5.3,4.38-12.69,1.63-8.54-2.88-11.73-.36-15.53S43,55.68,56.75,52.66C60.68,51.8,71,49.54,71,46.76c0-3-12.22-2.11-20-11C45.48,29.58,44.41,21,45.71,20.36c.9-.45,2.53,3.07,5.82,7.42A39.74,39.74,0,0,0,59.75,36c6.42,4.68,13.53,6.36,19.48,7,7,.79,12.35.2,13.13,1.47a.64.64,0,0,1,.1.24C93.14,49.25,48.87,55.34,47.92,68Z"/><path class="cls-5" d="M47.92,68c-.24,3.12,2.26,6,5.36,8.65,1.77,4.18,6.46,8,10.22,11.23-1.81,1.13-7.8,1-18.41.59-3.87-.13-6.69-.3-8.76-.52a30,30,0,0,0,3.25-9.3c1.63-9.92-2.88-13.62-.36-18C41.84,56,47.64,58.55,61.4,55c3.92-1,14.23-3.62,14.24-6.84,0-3.52-12.22-2.46-20-12.72a29,29,0,0,1-4.09-7.7A39.74,39.74,0,0,0,59.75,36c6.42,4.68,13.53,6.36,19.48,7a68.93,68.93,0,0,0,13.13,1.47.64.64,0,0,1,.1.24C93.14,49.25,48.87,55.34,47.92,68Z"/><path class="cls-1" d="M76.08,23.84c0,.89-.71,1.71-1.94,2.4a14.77,14.77,0,0,1-3.93,1.39,2.05,2.05,0,0,1,.64,1.44c0,1.5-1.91,2.72-4.27,2.72a6.51,6.51,0,0,1-1.64-.21,15.56,15.56,0,0,1-9.45,2.9,18,18,0,0,1-4.44-.54,11.84,11.84,0,0,1-5.64,3.13,16.56,16.56,0,0,1-4.18.52,16.77,16.77,0,0,1-2.49-.18c-4.25-.62-7.64-2.83-8.73-5.65-.33,0-.65,0-1,0-4.43,0-8.28-1.68-10.28-4.17a6.13,6.13,0,0,1-1.46-3.88c0-3.85,4-7.08,9.25-7.86a5.43,5.43,0,0,1,3.12-4.3c.32-2.47,2.86-4.53,6.28-5.27C37,2.69,40.88,0,45.52,0A10.33,10.33,0,0,1,54,4.11a4.41,4.41,0,0,1,1.87-.42c2.92,0,5.29,2.88,5.29,6.41a6.41,6.41,0,0,1-.07,1c6.21.17,11.16,3,11.16,6.37a4.18,4.18,0,0,1-1.2,2.81C74.12,21.08,76.08,22.38,76.08,23.84Z"/><path class="cls-2" d="M70.21,27.63a2.05,2.05,0,0,1,.64,1.44c0,1.5-1.91,2.72-4.27,2.72a6.51,6.51,0,0,1-1.64-.21,15.56,15.56,0,0,1-9.45,2.9,18,18,0,0,1-4.44-.54,11.84,11.84,0,0,1-5.64,3.13,16.56,16.56,0,0,1-4.18.52,16.77,16.77,0,0,1-2.49-.18c-4.25-.62-7.64-2.83-8.73-5.65-.33,0-.65,0-1,0-4.43,0-8.28-1.68-10.28-4.17a6.42,6.42,0,0,1,6.78,2,7.21,7.21,0,0,1,.62.77c4.7-4.07,10.22-5.35,12.53-2.83a4.13,4.13,0,0,1,1,2.88c2.07-1.08,3.88-1.56,5.08-1.29a9.76,9.76,0,0,1,6.53-1,4.48,4.48,0,0,1,1.1-1.57c2.15-2,5.84-1.45,8.23,1.16a6.53,6.53,0,0,1,.62.77c4.69-4.07,10.22-5.35,12.53-2.84a3.43,3.43,0,0,1,.36.49A14.77,14.77,0,0,1,70.21,27.63Z"/><path class="cls-1" d="M90.82,50.68c0,.11,0,.23,0,.34a2.09,2.09,0,0,1,0,.25c-.13,1.84-1.7,3.42-4,4.22,0,.06,0,.12,0,.18a3.4,3.4,0,0,1-6.62,1.1,10.49,10.49,0,0,1-2.56.32c-3.53,0-6.47-1.7-7.13-4a3.42,3.42,0,0,1-.13-1V52c-1.84-.64-3.11-1.92-3.11-3.41a2.86,2.86,0,0,1,.72-1.84,2.92,2.92,0,0,1-1.29-2.26c0-1.69,1.93-3.14,4.67-3.71a3.08,3.08,0,0,1-.07-.68,3.4,3.4,0,0,1,3.4-3.4H75a3.17,3.17,0,0,1,2.7-1.7,3.45,3.45,0,0,1,3.16,2.79,7,7,0,0,1,1.35-1.1c2.87-1.82,6.45-1.34,8,1.07a4.69,4.69,0,0,1,.56,3.55c2.54.65,4.38,2.52,4.38,4.72S93.33,50,90.82,50.68Z"/><path class="cls-6" d="M86.82,79.56H6.67c-1.58,0-2.25,1.49-1.5,3.24l5,11.72a4,4,0,0,0,3.39,2.36H79.94a4,4,0,0,0,3.39-2.36l5-11.72C89.07,81.05,88.41,79.56,86.82,79.56Z"/><path class="cls-2" d="M86.88,55.49c0,.06,0,.12,0,.18a3.4,3.4,0,0,1-6.62,1.1,10.49,10.49,0,0,1-2.56.32c-3.53,0-6.47-1.7-7.13-4a15.31,15.31,0,0,1,4.8,2,4.06,4.06,0,0,1,3-1.46c1.52.05,2.81,1.35,3.13,1s-.2-.61-.06-1,1.24-.69,4.34-.19a3.55,3.55,0,0,1,2.76-2.83,3.34,3.34,0,0,1,2.28.51C90.7,53.11,89.13,54.69,86.88,55.49Z"/></svg>