<svg id="Layer_1" data-name="Layer 1" xmlns="http://www.w3.org/2000/svg" viewBox="0 0 100 100"><defs><style>.cls-1{fill:#bcc6cb;}.cls-2{fill:#f05c37;}.cls-3{fill:#3f3f40;}.cls-4{fill:#6ab7d8;}</style></defs><title>fire extinguisher</title><path class="cls-1" d="M24.62,89.52c-.09.15-.16.37.39,2.6,0,0,.53,2.14,1.08,2.37a.63.63,0,0,0,.23.05.87.87,0,0,0,.23-.06c.44-.22.86-2.44.86-2.44.37-2,.53-2.29.32-2.59s-.64-.29-1.51-.28S24.83,89.2,24.62,89.52Z"/><path class="cls-2" d="M59.64,100H37.51a5.66,5.66,0,0,1-5.65-5.65V22.87a11.72,11.72,0,0,1,1.66-4c4.17-6.37,13.18-6.26,14.27-6.24H50c1.11,0,9.62.07,13.64,6.24a11.72,11.72,0,0,1,1.66,4V94.35A5.66,5.66,0,0,1,59.64,100Z"/><rect class="cls-2" x="45.28" y="6.84" width="6.59" height="11.3" rx="1.36" ry="1.36"/><path class="cls-3" d="M27.82,89.83l-3.27-.16c1.48-11.52-1.13-71,5.76-77.74A20.16,20.16,0,0,1,36.24,8a17.78,17.78,0,0,1,7.49-1.21l-.39,3.14a12.07,12.07,0,0,0-5.41.81A14.11,14.11,0,0,0,32.61,15C26.88,22.42,29,78.09,27.82,89.83Z"/><path class="cls-1" d="M52.29,7c-3-1.07-4.79-1.56-6.18-.63s-2.12,3-1.46,4.12c.41.71,2.22.9,5.81,1.25,1.33.13,3.86.35,6.29.72.29,0,.75.11,1.34.24a24.71,24.71,0,0,1,3.24,1c6.88,2.41,11.32,6.67,11.59,6.34s-3.55-5.13-9.7-8.79C61.64,10.33,58.52,9.23,52.29,7Z"/><path class="cls-1" d="M48.21,3.65c-3.34,1-5.47,1.75-6,3.53a3.49,3.49,0,0,0,1.24,3.7c1.51,1,3.76-.07,6.31-1.34a31.71,31.71,0,0,0,6.08-3.93c7.15-6,19.55-3.1,19.6-3.93,0-.62-6.82-2.25-14.59-1.48C58.82.4,55.28,1.48,48.21,3.65Z"/><rect class="cls-4" x="47.4" y="7.23" width="7.06" height="7.06" rx="1.46" ry="1.46"/></svg>