<svg id="Layer_1" data-name="Layer 1" xmlns="http://www.w3.org/2000/svg" viewBox="0 0 100 100"><defs><style>.cls-1{fill:#3f3f40;}.cls-2{fill:#fcca97;}.cls-3{fill:#6ab7d8;}.cls-4{fill:#f27d3b;}.cls-5{fill:#f05c37;}.cls-6{fill:gray;}.cls-7{fill:#979797;}.cls-8{fill:#885e59;}</style></defs><title>gnome</title><rect class="cls-1" x="52.24" y="69.53" width="8.51" height="30.47" rx="1.67" ry="1.67"/><rect class="cls-1" x="40.01" y="69.53" width="8.51" height="30.47" rx="1.67" ry="1.67"/><rect class="cls-2" x="61.74" y="71.29" width="6.14" height="17.05" rx="1.21" ry="1.21"/><rect class="cls-2" x="31.54" y="71.29" width="6.14" height="17.05" rx="1.21" ry="1.21"/><path class="cls-3" d="M64.35,59.42V92.84a3.26,3.26,0,0,1-3.14,3.34H38.79a3.26,3.26,0,0,1-3.15-3.34V59.42a3.26,3.26,0,0,1,3.15-3.34H61.21A3.25,3.25,0,0,1,64.35,59.42Z"/><path class="cls-2" d="M35.19,49.66V62.72a14.81,14.81,0,0,0,29.62,0V49.66Z"/><circle class="cls-1" cx="39.2" cy="57.24" r="1.19"/><circle class="cls-1" cx="61.41" cy="57.27" r="1.19"/><ellipse class="cls-2" cx="31.71" cy="55.66" rx="3.9" ry="5.48"/><circle class="cls-2" cx="34.27" cy="59.96" r="3.41"/><ellipse class="cls-2" cx="68.29" cy="55.79" rx="3.9" ry="5.48"/><circle class="cls-2" cx="66.01" cy="59.96" r="3.41"/><rect class="cls-4" x="40.39" y="66.87" width="19.83" height="1.08" rx="0.21" ry="0.21"/><rect class="cls-2" x="35.19" y="45.89" width="29.62" height="7.62" rx="1.5" ry="1.5"/><path class="cls-5" d="M49.46,0a2.46,2.46,0,0,0-1.69,1.16c-2.32,3.13-7.08,25.47-10.5,35.57C33.78,47,29.65,50.54,31.53,53.37s6.62.3,19.15.18c11.68-.12,16,2,17.78-.75,1.91-2.94-2.25-6.58-5.95-17.12C59.2,26.24,53.72,4,51.22,1.06A2.46,2.46,0,0,0,49.46,0Z"/><rect class="cls-3" x="61.74" y="63.99" width="6.14" height="17.05" rx="1.21" ry="1.21"/><rect class="cls-3" x="31.54" y="63.99" width="6.14" height="17.05" rx="1.21" ry="1.21"/><path class="cls-6" d="M63.13,69.41c0,3.83-2.54,6.61-5.62,10-3.23,3.54-4.91,5.38-7.42,5.42-2.88,0-4.94-2.31-8.07-5.86-2.76-3.15-5.59-6.37-5.2-10.53.25-2.71,1.83-5.39,3-5.35s.84,2.22,3.28,4.15a11.7,11.7,0,0,0,6.72,2.18,11.22,11.22,0,0,0,6.57-2.18c2.66-2,2.52-4.19,3.63-4.2C61.37,63,63.14,66.19,63.13,69.41Z"/><path class="cls-7" d="M49.91,63.53c-.61,2.52,2.7,5.49,5.71,5.86,5.92.73,10.89-8.56,10.06-9.31-.49-.44-2.7,2.25-6.22,2-2.57-.22-3.26-1.8-5.48-1.57C52.15,60.66,50.29,62,49.91,63.53Z"/><path class="cls-7" d="M49.94,63.53c.61,2.52-2.7,5.49-5.72,5.86-5.91.73-10.89-8.56-10-9.31.49-.44,2.7,2.25,6.22,2,2.56-.22,3.26-1.8,5.48-1.57C47.69,60.66,49.56,62,49.94,63.53Z"/><polygon class="cls-4" points="47.08 64.32 52.92 64.32 50 53.63 47.08 64.32"/><rect class="cls-8" x="35.64" y="85.91" width="28.71" height="3.68"/></svg>