<svg id="Layer_1" data-name="Layer 1" xmlns="http://www.w3.org/2000/svg" viewBox="0 0 100 100"><defs><style>.cls-1{fill:#9c9c9c;}.cls-2{fill:#87898b;}.cls-3{fill:#7d7d7d;}.cls-4{fill:#895e59;}</style></defs><title>axe</title><path class="cls-1" d="M97.59,51.47l-4.38-4.38-3.64-3.63-2.3-2.3-19-19L53.41,37.57c1.14,1.21,2.2,2.4,3.22,3.59.66.77,1.29,1.53,1.91,2.3,1,1.22,2,2.44,2.83,3.63,1.09,1.5,2.07,2.95,3,4.38C74.6,67.38,74.68,79.21,74.68,79.21L100,53.88Z"/><ellipse class="cls-2" cx="5.03" cy="78.64" rx="3.27" ry="7.3" transform="translate(-45.07 17.81) rotate(-35.82)"/><rect class="cls-3" x="50.32" y="17.35" width="17.33" height="21.67" rx="4.34" ry="4.34" transform="translate(37.21 -33.45) rotate(45)"/><path class="cls-3" d="M87.27,41.16l-19-19L53.41,37.57c1.14,1.21,2.2,2.4,3.22,3.59Z"/><path class="cls-3" d="M93.21,47.09l-3.64-3.63h-31c1,1.22,2,2.44,2.83,3.63Z"/><path class="cls-3" d="M97.59,51.47H64.36C74.6,67.38,74.68,79.21,74.68,79.21L100,53.88Z"/><path class="cls-4" d="M7.77,79.39l-.66.66c2.26,2.26,4,4.17,6.3,1.91L73,27.22c2.26-2.26-.17-8.38-2.42-10.64h0a5.83,5.83,0,0,0-8.22,0L5.19,73.75C2.93,76,5.51,77.13,7.77,79.39Z"/><path class="cls-4" d="M26.25,52.69S7.11,70.38,2.49,70.85,9.38,85.11,9.38,85.11a143.82,143.82,0,0,0,25.2-22.6"/></svg>