<svg id="Layer_1" data-name="Layer 1" xmlns="http://www.w3.org/2000/svg" viewBox="0 0 100 100"><defs><style>.cls-1{fill:#eaf6fd;}.cls-2{opacity:0.2;}.cls-3{fill:#fff;}.cls-4{opacity:0.09;}.cls-5{fill:#4d4e4e;}.cls-6{opacity:0.5;}</style></defs><title>granite</title><polygon class="cls-1" points="100 62.47 57.07 91.05 14.73 87.66 7.41 65.14 0 42.36 19.96 8.95 20.85 9.17 86.36 25.64 86.52 25.68 86.75 26.31 100 62.47"/><g class="cls-2"><polygon points="100 62.47 57.07 91.05 14.73 87.66 7.41 65.14 41.05 62.45 56.85 79.68 79.82 53.05 71.24 38.17 86.75 26.31 100 62.47"/></g><polygon class="cls-3" points="86.75 26.31 71.24 38.17 43.7 37 20.85 9.17 86.36 25.64 86.75 26.31"/><g class="cls-4"><polygon class="cls-5" points="43.7 37 41.05 62.45 56.85 79.68 79.82 53.05 71.24 38.17 43.7 37"/></g><g class="cls-6"><ellipse cx="29.73" cy="74.94" rx="4.62" ry="7.22" transform="translate(-48.96 92.5) rotate(-80.93)"/><ellipse cx="31.93" cy="81.77" rx="4.38" ry="2.79"/><ellipse cx="37.49" cy="74.94" rx="5.66" ry="3.71" transform="translate(-34.72 32.42) rotate(-32.93)"/></g><g class="cls-6"><ellipse cx="55.66" cy="28.6" rx="2.87" ry="7.19" transform="translate(5.49 66) rotate(-63.89)"/><ellipse cx="55.22" cy="23.86" rx="1.73" ry="4.38" transform="translate(12.28 65.99) rotate(-67.82)"/><ellipse cx="48.48" cy="25.67" rx="2.46" ry="5.28" transform="translate(16.19 70.02) rotate(-81.84)"/></g><g class="cls-6"><ellipse cx="19.49" cy="35.32" rx="5.55" ry="8.33" transform="translate(-16.76 53.03) rotate(-87.14)"/><ellipse cx="24.07" cy="31.35" rx="5.04" ry="3.36" transform="translate(-3.76 3.28) rotate(-7.24)"/><ellipse cx="14.18" cy="40.64" rx="6.6" ry="4.4" transform="translate(-23.96 20.7) rotate(-43.16)"/></g><g class="cls-6"><ellipse cx="86.47" cy="45.58" rx="3.56" ry="5.34" transform="translate(-1.41 2.78) rotate(-1.83)"/><ellipse cx="89.24" cy="48.3" rx="2.16" ry="3.23" transform="translate(-8.05 19.47) rotate(-11.92)"/><ellipse cx="82.79" cy="42.47" rx="2.82" ry="4.23" transform="translate(-4.26 75.34) rotate(-47.84)"/></g><g class="cls-6"><ellipse cx="56.32" cy="54.48" rx="4.19" ry="6.28" transform="translate(-11.56 93.62) rotate(-74.01)"/><ellipse cx="59.59" cy="58.67" rx="5.45" ry="3.64" transform="translate(-20.41 34.33) rotate(-27.63)"/><ellipse cx="61.64" cy="50.25" rx="3.13" ry="4.69" transform="translate(-10.79 83.1) rotate(-63.58)"/></g></svg>