<svg id="Layer_1" data-name="Layer 1" xmlns="http://www.w3.org/2000/svg" viewBox="0 0 100 100"><defs><style>.cls-1{fill:#885e59;}.cls-2{fill:#09a481;}.cls-3{fill:#05b58a;}.cls-4{fill:#009173;}</style></defs><title>hedge</title><path class="cls-1" d="M17.2,67.82h0c1.59,0,2.59,2.63,2.3,5.19L18.06,85.8c0,.3-.42.53-.86.53h0c-.44,0-.82-.23-.86-.53L14.9,73C14.61,70.45,15.61,67.82,17.2,67.82Z"/><path class="cls-1" d="M83.85,67.82h0c1.59,0,2.59,2.63,2.3,5.19L84.71,85.8c0,.3-.42.53-.86.53h0c-.43,0-.82-.23-.85-.53L81.55,73C81.27,70.45,82.27,67.82,83.85,67.82Z"/><path class="cls-2" d="M31.87,63.24a9,9,0,0,1,.49,3,9.2,9.2,0,0,1-.31,2.44,10,10,0,0,1,1.19,5.06c0,3.53-1.38,6.4-3.08,6.4a1.73,1.73,0,0,1-1.05-.39,2,2,0,0,1-1.52,1c-.85,0-1.6-.83-2.12-2.16-.35.67-.76,1.06-1.2,1.06s-.89-.41-1.24-1.13c-.54,1.91-1.49,3.18-2.57,3.18s-2-1.28-2.57-3.21a1.63,1.63,0,0,1-1.12.49,1.37,1.37,0,0,1-.45-.07c-.59,1.93-1.72,3.23-3,3.23-1,0-2-.82-2.6-2.12-.43,1.26-1.2,2.1-2.07,2.1a1.68,1.68,0,0,1-1.11-.48,2.32,2.32,0,0,1-1.8,1.1c-1.13,0-2.13-1.18-2.78-3-1.16-.92-2-3.25-2-6A10.35,10.35,0,0,1,2,69a6.91,6.91,0,0,1-.52-2.7A7.11,7.11,0,0,1,2,63.46,10.08,10.08,0,0,1,.5,57.66a10,10,0,0,1,1.55-5.81,12.18,12.18,0,0,1-.24-2.54q0-.51,0-1A13.1,13.1,0,0,1,.29,41.48a15.16,15.16,0,0,1,1-5.85,9.5,9.5,0,0,1-1-4.69,12.78,12.78,0,0,1,.23-2.49A15.08,15.08,0,0,1,0,24.38c0-4.44,1.73-8,3.87-8l.22,0a3.39,3.39,0,0,1,2.43-1.12A4.14,4.14,0,0,1,10,17.86c.68-1.59,1.78-2.62,3-2.62a2.76,2.76,0,0,1,2,1c.37-1.52,1-2.53,1.76-2.53s1.2.75,1.58,1.92c.55-1.19,1.29-1.92,2.11-1.92,1,0,1.92,1.13,2.47,2.86a1.66,1.66,0,0,1,1.34-1,1.42,1.42,0,0,1,1.08.64c.52-1.51,1.33-2.48,2.24-2.48s1.86,1.15,2.37,2.88c1.44.93,2.53,4.89,2.53,9.63A21.49,21.49,0,0,1,31.23,34a16.38,16.38,0,0,1,1.26,6.84A20.78,20.78,0,0,1,32,45.34a6.26,6.26,0,0,1,1.21,4,6.71,6.71,0,0,1-.92,3.58,11.71,11.71,0,0,1,.92,4.77A10.5,10.5,0,0,1,31.87,63.24Z"/><path class="cls-3" d="M32.49,26.18c0,.2,0,.4,0,.59-.69-2.73-2.06-4.59-3.63-4.59a2.76,2.76,0,0,0-2.09,1.2,2,2,0,0,0-1.28-.52c-1,0-1.9.91-2.4,2.27a3.65,3.65,0,0,0-3-2.3c-1.51,0-2.82,1.42-3.51,3.51a1.81,1.81,0,0,0-.51-.08,2,2,0,0,0-1.31.54c-.62-2.1-1.72-3.49-3-3.49s-2.35,1.38-3,3.46c-.41-.78-.9-1.24-1.43-1.24S6.38,26,6,26.69c-.6-1.44-1.48-2.34-2.46-2.34-1.33,0-2.48,1.67-3,4.08A14.88,14.88,0,0,1,0,24.38c0-4.44,1.73-8,3.87-8l.22,0a3.39,3.39,0,0,1,2.43-1.12A4.14,4.14,0,0,1,10,17.86c.68-1.59,1.78-2.62,3-2.62a2.76,2.76,0,0,1,2,1c.37-1.52,1-2.53,1.76-2.53s1.2.75,1.58,1.92c.55-1.19,1.29-1.92,2.11-1.92,1,0,1.92,1.13,2.47,2.86a1.66,1.66,0,0,1,1.34-1,1.42,1.42,0,0,1,1.08.64c.52-1.51,1.33-2.48,2.24-2.48s1.86,1.15,2.37,2.88C31.4,17.48,32.49,21.44,32.49,26.18Z"/><path class="cls-4" d="M32,63.34a8.73,8.73,0,0,1,.49,3,9.2,9.2,0,0,1-.31,2.44,9.92,9.92,0,0,1,1.19,5.06c0,3.54-1.38,6.4-3.08,6.4a1.74,1.74,0,0,1-1.05-.38,2,2,0,0,1-1.52,1c-.84,0-1.6-.84-2.12-2.16-.35.67-.76,1.06-1.2,1.06s-.89-.42-1.24-1.14c-.54,1.91-1.49,3.18-2.57,3.18s-2-1.28-2.57-3.21a1.59,1.59,0,0,1-1.12.5,1.62,1.62,0,0,1-.44-.07c-.6,1.92-1.73,3.23-3,3.23-1,0-2-.82-2.59-2.12-.44,1.26-1.21,2.09-2.08,2.09a1.64,1.64,0,0,1-1.11-.48,2.34,2.34,0,0,1-1.8,1.11c-1.13,0-2.13-1.19-2.78-3-1.16-.92-2-3.25-2-6a10.3,10.3,0,0,1,1-4.79,7.4,7.4,0,0,1,0-5.5A10,10,0,0,1,.6,57.76,12.81,12.81,0,0,1,1.13,54a12.19,12.19,0,0,0-.07,1.37c0,2.73.82,5.06,2,6,.65,1.84,1.65,3,2.78,3a2.34,2.34,0,0,0,1.8-1.11,1.64,1.64,0,0,0,1.11.48c.87,0,1.64-.84,2.08-2.09A3.15,3.15,0,0,0,13.4,63.8c1.3,0,2.43-1.3,3-3.23a1.32,1.32,0,0,0,.44.08,1.59,1.59,0,0,0,1.12-.5c.54,1.93,1.49,3.21,2.57,3.21s2-1.27,2.57-3.18c.35.72.78,1.14,1.24,1.14s.85-.39,1.2-1.07c.52,1.33,1.28,2.16,2.12,2.16a1.94,1.94,0,0,0,1.52-1,1.74,1.74,0,0,0,1.05.38c1.51,0,2.77-2.26,3-5.24a11.67,11.67,0,0,1,.05,1.2A10.52,10.52,0,0,1,32,63.34Z"/><ellipse class="cls-3" cx="11.99" cy="31.02" rx="1.92" ry="2.59"/><ellipse class="cls-3" cx="18.79" cy="31.06" rx="1.59" ry="1.94"/><ellipse class="cls-3" cx="25.32" cy="29.92" rx="1.16" ry="2.96"/><ellipse class="cls-3" cx="22.37" cy="31.36" rx="0.73" ry="2.24"/><ellipse class="cls-3" cx="19.62" cy="25.94" rx="1.36" ry="1.82"/><ellipse class="cls-3" cx="16.09" cy="34.87" rx="1.11" ry="1.99"/><ellipse class="cls-3" cx="11.18" cy="26.93" rx="0.44" ry="1"/><ellipse class="cls-3" cx="7.09" cy="33.12" rx="1.69" ry="1.76"/><ellipse class="cls-3" cx="3.45" cy="29.56" rx="1.13" ry="1.8"/><ellipse class="cls-3" cx="7.44" cy="29.21" rx="0.83" ry="1.28"/><ellipse class="cls-3" cx="28.5" cy="27.75" rx="1.66" ry="1.81"/><ellipse class="cls-3" cx="28.52" cy="35.24" rx="1.03" ry="1.63"/><ellipse class="cls-2" cx="10.05" cy="67.21" rx="1.58" ry="1.76"/><ellipse class="cls-2" cx="13.19" cy="66.33" rx="0.73" ry="0.88"/><ellipse class="cls-2" cx="17.25" cy="64.41" rx="1.01" ry="1.92"/><ellipse class="cls-2" cx="16.49" cy="68.89" rx="1.31" ry="1.68"/><ellipse class="cls-2" cx="5.84" cy="67.88" rx="1.25" ry="1.55"/><ellipse class="cls-2" cx="20.4" cy="66.15" rx="1.24" ry="1.74"/><ellipse class="cls-2" cx="24.06" cy="64.85" rx="1.26" ry="2.36"/><ellipse class="cls-2" cx="27.19" cy="66.15" rx="1.06" ry="1.74"/><ellipse class="cls-2" cx="29.99" cy="64.32" rx="0.98" ry="1.83"/><ellipse class="cls-2" cx="29.66" cy="69.73" rx="0.86" ry="1.3"/><ellipse class="cls-2" cx="25.65" cy="69.96" rx="0.83" ry="1.52"/><ellipse class="cls-2" cx="23.09" cy="69.73" rx="0.72" ry="1.3"/><ellipse class="cls-2" cx="19.58" cy="70.19" rx="0.79" ry="1.3"/><ellipse class="cls-4" cx="4.86" cy="59.47" rx="0.98" ry="1.31"/><ellipse class="cls-4" cx="7.44" cy="58.67" rx="0.83" ry="1.88"/><ellipse class="cls-4" cx="10.66" cy="60.05" rx="0.61" ry="1.37"/><ellipse class="cls-4" cx="9.77" cy="54.69" rx="1.5" ry="2.11"/><ellipse class="cls-4" cx="12.74" cy="59.85" rx="0.75" ry="1.69"/><ellipse class="cls-4" cx="12.89" cy="55" rx="0.43" ry="0.98"/><ellipse class="cls-4" cx="14.7" cy="59" rx="0.37" ry="0.84"/><ellipse class="cls-4" cx="17.31" cy="57.72" rx="1.48" ry="1.75"/><ellipse class="cls-4" cx="20.83" cy="60.5" rx="0.81" ry="1.03"/><ellipse class="cls-4" cx="24.06" cy="57" rx="1.26" ry="2"/><ellipse class="cls-4" cx="28.2" cy="58.43" rx="1.36" ry="1.42"/><ellipse class="cls-4" cx="30.61" cy="58" rx="0.44" ry="1"/><path class="cls-1" d="M50.47,67.82h0c1.58,0,2.59,2.63,2.3,5.19L51.32,85.8c0,.3-.41.53-.85.53h0c-.44,0-.83-.23-.86-.53L48.17,73C47.88,70.45,48.88,67.82,50.47,67.82Z"/><path class="cls-2" d="M65.25,63.24a8.74,8.74,0,0,1,.5,3,9.63,9.63,0,0,1-.31,2.44,10,10,0,0,1,1.19,5.06c0,3.53-1.38,6.4-3.08,6.4a1.71,1.71,0,0,1-1-.39,2,2,0,0,1-1.52,1c-.85,0-1.61-.83-2.13-2.16-.34.67-.75,1.06-1.2,1.06s-.88-.41-1.23-1.13c-.54,1.91-1.49,3.18-2.57,3.18s-2-1.28-2.57-3.21a1.64,1.64,0,0,1-1.13.49,1.31,1.31,0,0,1-.44-.07c-.59,1.93-1.73,3.23-3,3.23-1,0-2-.82-2.59-2.12-.43,1.26-1.2,2.1-2.07,2.1a1.66,1.66,0,0,1-1.11-.48,2.34,2.34,0,0,1-1.8,1.1c-1.13,0-2.13-1.18-2.78-3-1.16-.92-2-3.25-2-6a10.35,10.35,0,0,1,1-4.8,7.31,7.31,0,0,1,0-5.49,10.08,10.08,0,0,1-1.53-5.8,10,10,0,0,1,1.54-5.81,12.94,12.94,0,0,1-.23-2.54q0-.51,0-1a13,13,0,0,1-1.55-6.84,15.37,15.37,0,0,1,1-5.85,9.62,9.62,0,0,1-1-4.69,12.78,12.78,0,0,1,.23-2.49,15.08,15.08,0,0,1-.53-4.07c0-4.44,1.73-8,3.86-8l.23,0a3.39,3.39,0,0,1,2.43-1.12,4.14,4.14,0,0,1,3.47,2.62c.67-1.59,1.78-2.62,3-2.62a2.76,2.76,0,0,1,2,1c.37-1.52,1-2.53,1.75-2.53s1.21.75,1.59,1.92c.55-1.19,1.29-1.92,2.11-1.92,1,0,1.92,1.13,2.47,2.86a1.66,1.66,0,0,1,1.33-1,1.42,1.42,0,0,1,1.09.64c.51-1.51,1.33-2.48,2.24-2.48s1.86,1.15,2.36,2.88c1.45.93,2.54,4.89,2.54,9.63A21.49,21.49,0,0,1,64.62,34a16.38,16.38,0,0,1,1.26,6.84,20.14,20.14,0,0,1-.47,4.48,6.26,6.26,0,0,1,1.22,4,6.62,6.62,0,0,1-.93,3.58,11.54,11.54,0,0,1,.93,4.77A10.4,10.4,0,0,1,65.25,63.24Z"/><path class="cls-3" d="M65.88,26.18c0,.2,0,.4,0,.59-.7-2.73-2.06-4.59-3.63-4.59a2.76,2.76,0,0,0-2.09,1.2,2,2,0,0,0-1.28-.52c-1,0-1.9.91-2.4,2.27a3.65,3.65,0,0,0-3-2.3c-1.51,0-2.82,1.42-3.5,3.51a1.82,1.82,0,0,0-.52-.08,2,2,0,0,0-1.3.54c-.62-2.1-1.72-3.49-3-3.49s-2.35,1.38-3,3.46c-.41-.78-.9-1.24-1.44-1.24s-1,.43-1.39,1.16c-.59-1.44-1.48-2.34-2.45-2.34-1.33,0-2.48,1.67-3,4.08a15.3,15.3,0,0,1-.52-4.05c0-4.44,1.73-8,3.86-8l.23,0a3.39,3.39,0,0,1,2.43-1.12,4.14,4.14,0,0,1,3.47,2.62c.67-1.59,1.78-2.62,3-2.62a2.76,2.76,0,0,1,2,1c.37-1.52,1-2.53,1.75-2.53s1.21.75,1.59,1.92c.55-1.19,1.29-1.92,2.11-1.92,1,0,1.92,1.13,2.47,2.86a1.66,1.66,0,0,1,1.33-1,1.42,1.42,0,0,1,1.09.64c.51-1.51,1.33-2.48,2.24-2.48s1.86,1.15,2.36,2.88C64.79,17.48,65.88,21.44,65.88,26.18Z"/><path class="cls-4" d="M65.36,63.34a9,9,0,0,1,.49,3,9.63,9.63,0,0,1-.31,2.44,10,10,0,0,1,1.19,5.06c0,3.54-1.38,6.4-3.08,6.4a1.72,1.72,0,0,1-1-.38,2,2,0,0,1-1.52,1c-.85,0-1.61-.84-2.12-2.16-.35.67-.76,1.06-1.21,1.06s-.88-.42-1.23-1.14C56,80.53,55,81.8,54,81.8s-2-1.28-2.57-3.21a1.61,1.61,0,0,1-1.13.5,1.68,1.68,0,0,1-.44-.07c-.59,1.92-1.72,3.23-3,3.23-1,0-2-.82-2.59-2.12-.43,1.26-1.2,2.09-2.07,2.09A1.62,1.62,0,0,1,41,81.74a2.35,2.35,0,0,1-1.8,1.11c-1.13,0-2.13-1.19-2.78-3-1.16-.92-2-3.25-2-6a10.3,10.3,0,0,1,1-4.79A7,7,0,0,1,35,66.34a7.11,7.11,0,0,1,.55-2.79A10,10,0,0,1,34,57.76,12.81,12.81,0,0,1,34.52,54a12.19,12.19,0,0,0-.07,1.37c0,2.73.82,5.06,2,6,.65,1.84,1.65,3,2.78,3A2.35,2.35,0,0,0,41,63.3a1.62,1.62,0,0,0,1.11.48c.87,0,1.64-.84,2.07-2.09.64,1.3,1.56,2.11,2.59,2.11,1.31,0,2.44-1.3,3-3.23a1.36,1.36,0,0,0,.44.08,1.61,1.61,0,0,0,1.13-.5c.54,1.93,1.49,3.21,2.57,3.21s2-1.27,2.57-3.18c.35.72.78,1.14,1.23,1.14s.86-.39,1.21-1.07c.51,1.33,1.27,2.16,2.12,2.16a1.94,1.94,0,0,0,1.52-1,1.72,1.72,0,0,0,1,.38c1.51,0,2.77-2.26,3-5.24,0,.38,0,.79,0,1.2A10.52,10.52,0,0,1,65.36,63.34Z"/><ellipse class="cls-3" cx="45.38" cy="31.02" rx="1.92" ry="2.59"/><ellipse class="cls-3" cx="52.18" cy="31.06" rx="1.59" ry="1.94"/><ellipse class="cls-3" cx="58.71" cy="29.92" rx="1.16" ry="2.96"/><ellipse class="cls-3" cx="55.76" cy="31.36" rx="0.73" ry="2.24"/><ellipse class="cls-3" cx="53.01" cy="25.94" rx="1.36" ry="1.82"/><ellipse class="cls-3" cx="49.48" cy="34.87" rx="1.11" ry="1.99"/><ellipse class="cls-3" cx="44.57" cy="26.93" rx="0.44" ry="1"/><ellipse class="cls-3" cx="40.47" cy="33.12" rx="1.69" ry="1.76"/><ellipse class="cls-3" cx="36.84" cy="29.56" rx="1.13" ry="1.8"/><ellipse class="cls-3" cx="40.83" cy="29.21" rx="0.83" ry="1.28"/><ellipse class="cls-3" cx="61.89" cy="27.75" rx="1.66" ry="1.81"/><ellipse class="cls-3" cx="61.91" cy="35.24" rx="1.03" ry="1.63"/><ellipse class="cls-2" cx="43.44" cy="67.21" rx="1.58" ry="1.76"/><ellipse class="cls-2" cx="46.57" cy="66.33" rx="0.73" ry="0.88"/><ellipse class="cls-2" cx="50.64" cy="64.41" rx="1.01" ry="1.92"/><ellipse class="cls-2" cx="49.88" cy="68.89" rx="1.31" ry="1.68"/><ellipse class="cls-2" cx="39.22" cy="67.88" rx="1.25" ry="1.55"/><ellipse class="cls-2" cx="53.79" cy="66.15" rx="1.24" ry="1.74"/><ellipse class="cls-2" cx="57.45" cy="64.85" rx="1.26" ry="2.36"/><ellipse class="cls-2" cx="60.57" cy="66.15" rx="1.06" ry="1.74"/><ellipse class="cls-2" cx="63.37" cy="64.32" rx="0.98" ry="1.83"/><ellipse class="cls-2" cx="63.05" cy="69.73" rx="0.86" ry="1.3"/><ellipse class="cls-2" cx="59.04" cy="69.96" rx="0.83" ry="1.52"/><ellipse class="cls-2" cx="56.48" cy="69.73" rx="0.72" ry="1.3"/><ellipse class="cls-2" cx="52.97" cy="70.19" rx="0.79" ry="1.3"/><ellipse class="cls-4" cx="38.25" cy="59.47" rx="0.98" ry="1.31"/><ellipse class="cls-4" cx="40.83" cy="58.67" rx="0.83" ry="1.88"/><ellipse class="cls-4" cx="44.04" cy="60.05" rx="0.61" ry="1.37"/><ellipse class="cls-4" cx="43.16" cy="54.69" rx="1.5" ry="2.11"/><ellipse class="cls-4" cx="46.12" cy="59.85" rx="0.75" ry="1.69"/><ellipse class="cls-4" cx="46.28" cy="55" rx="0.43" ry="0.98"/><ellipse class="cls-4" cx="48.08" cy="59" rx="0.37" ry="0.84"/><ellipse class="cls-4" cx="50.7" cy="57.72" rx="1.48" ry="1.75"/><ellipse class="cls-4" cx="54.22" cy="60.5" rx="0.81" ry="1.03"/><ellipse class="cls-4" cx="57.45" cy="57" rx="1.26" ry="2"/><ellipse class="cls-4" cx="61.58" cy="58.43" rx="1.36" ry="1.42"/><ellipse class="cls-4" cx="63.99" cy="58" rx="0.44" ry="1"/><path class="cls-2" d="M98.52,63.24a8.75,8.75,0,0,1,.49,3,9.2,9.2,0,0,1-.31,2.44,9.89,9.89,0,0,1,1.2,5.06c0,3.53-1.38,6.4-3.08,6.4a1.71,1.71,0,0,1-1-.39,2,2,0,0,1-1.52,1c-.85,0-1.61-.83-2.13-2.16-.34.67-.75,1.06-1.2,1.06s-.88-.41-1.23-1.13c-.54,1.91-1.49,3.18-2.57,3.18s-2-1.28-2.58-3.21a1.6,1.6,0,0,1-1.12.49,1.31,1.31,0,0,1-.44-.07c-.59,1.93-1.73,3.23-3,3.23-1,0-2-.82-2.59-2.12-.43,1.26-1.2,2.1-2.08,2.1a1.66,1.66,0,0,1-1.1-.48,2.35,2.35,0,0,1-1.8,1.1c-1.13,0-2.13-1.18-2.78-3-1.16-.92-2-3.25-2-6a10.47,10.47,0,0,1,1-4.8,7.1,7.1,0,0,1-.51-2.7,6.94,6.94,0,0,1,.55-2.79,10.08,10.08,0,0,1-1.53-5.8,10,10,0,0,1,1.54-5.81,12.9,12.9,0,0,1-.24-2.54c0-.34,0-.67,0-1a13,13,0,0,1-1.56-6.84,15.35,15.35,0,0,1,1-5.85,9.62,9.62,0,0,1-1-4.69,12.78,12.78,0,0,1,.23-2.49,15.08,15.08,0,0,1-.53-4.07c0-4.44,1.73-8,3.86-8l.23,0a3.39,3.39,0,0,1,2.42-1.12,4.14,4.14,0,0,1,3.48,2.62c.67-1.59,1.78-2.62,3-2.62a2.76,2.76,0,0,1,2,1c.37-1.52,1-2.53,1.75-2.53s1.2.75,1.59,1.92c.54-1.19,1.29-1.92,2.11-1.92,1,0,1.92,1.13,2.47,2.86a1.66,1.66,0,0,1,1.33-1,1.39,1.39,0,0,1,1.08.64c.52-1.51,1.33-2.48,2.25-2.48s1.86,1.15,2.36,2.88c1.45.93,2.53,4.89,2.53,9.63A21.28,21.28,0,0,1,97.88,34a16.22,16.22,0,0,1,1.26,6.84,20.78,20.78,0,0,1-.46,4.48,6.26,6.26,0,0,1,1.22,4A6.62,6.62,0,0,1,99,52.89a11.54,11.54,0,0,1,.93,4.77A10.4,10.4,0,0,1,98.52,63.24Z"/><path class="cls-3" d="M99.14,26.18v.59c-.7-2.73-2.06-4.59-3.63-4.59a2.75,2.75,0,0,0-2.09,1.2,2,2,0,0,0-1.28-.52c-1,0-1.9.91-2.41,2.27a3.63,3.63,0,0,0-3-2.3c-1.51,0-2.82,1.42-3.51,3.51a1.7,1.7,0,0,0-.51-.08,1.94,1.94,0,0,0-1.3.54c-.62-2.1-1.72-3.49-3-3.49s-2.35,1.38-3,3.46c-.4-.78-.89-1.24-1.43-1.24s-1,.43-1.39,1.16c-.6-1.44-1.48-2.34-2.46-2.34-1.33,0-2.47,1.67-3,4.08a15.3,15.3,0,0,1-.52-4.05c0-4.44,1.73-8,3.86-8l.23,0a3.39,3.39,0,0,1,2.42-1.12,4.14,4.14,0,0,1,3.48,2.62c.67-1.59,1.78-2.62,3-2.62a2.76,2.76,0,0,1,2,1c.37-1.52,1-2.53,1.75-2.53s1.2.75,1.59,1.92c.54-1.19,1.29-1.92,2.11-1.92,1,0,1.92,1.13,2.47,2.86a1.66,1.66,0,0,1,1.33-1,1.39,1.39,0,0,1,1.08.64c.52-1.51,1.33-2.48,2.25-2.48s1.86,1.15,2.36,2.88C98.06,17.48,99.14,21.44,99.14,26.18Z"/><path class="cls-4" d="M98.62,63.34a8.72,8.72,0,0,1,.5,3,9.18,9.18,0,0,1-.32,2.44,9.92,9.92,0,0,1,1.2,5.06c0,3.54-1.38,6.4-3.08,6.4a1.69,1.69,0,0,1-1-.38,2,2,0,0,1-1.52,1c-.85,0-1.61-.84-2.13-2.16-.34.67-.75,1.06-1.2,1.06s-.88-.42-1.23-1.14c-.54,1.91-1.49,3.18-2.57,3.18s-2-1.28-2.58-3.21a1.57,1.57,0,0,1-1.12.5,1.62,1.62,0,0,1-.44-.07c-.59,1.92-1.73,3.23-3,3.23-1,0-2-.82-2.59-2.12-.43,1.26-1.2,2.09-2.07,2.09a1.62,1.62,0,0,1-1.11-.48,2.35,2.35,0,0,1-1.8,1.11c-1.13,0-2.13-1.19-2.78-3-1.16-.92-2-3.25-2-6a10.3,10.3,0,0,1,1-4.79,7.34,7.34,0,0,1,0-5.5,10,10,0,0,1-1.53-5.79A12.48,12.48,0,0,1,67.79,54a12.19,12.19,0,0,0-.07,1.37c0,2.73.82,5.06,2,6,.65,1.84,1.65,3,2.78,3a2.35,2.35,0,0,0,1.8-1.11,1.62,1.62,0,0,0,1.11.48c.87,0,1.64-.84,2.07-2.09C78.1,63,79,63.8,80.05,63.8c1.3,0,2.44-1.3,3-3.23a1.32,1.32,0,0,0,.44.08,1.57,1.57,0,0,0,1.12-.5c.54,1.93,1.5,3.21,2.58,3.21s2-1.27,2.57-3.18c.35.72.78,1.14,1.23,1.14s.86-.39,1.2-1.07c.52,1.33,1.28,2.16,2.13,2.16a1.94,1.94,0,0,0,1.52-1,1.69,1.69,0,0,0,1,.38c1.51,0,2.77-2.26,3-5.24,0,.38,0,.79,0,1.2A10.43,10.43,0,0,1,98.62,63.34Z"/><ellipse class="cls-3" cx="78.64" cy="31.02" rx="1.92" ry="2.59"/><ellipse class="cls-3" cx="85.44" cy="31.06" rx="1.59" ry="1.94"/><ellipse class="cls-3" cx="91.98" cy="29.92" rx="1.16" ry="2.96"/><ellipse class="cls-3" cx="89.02" cy="31.36" rx="0.73" ry="2.24"/><ellipse class="cls-3" cx="86.28" cy="25.94" rx="1.36" ry="1.82"/><ellipse class="cls-3" cx="82.74" cy="34.87" rx="1.11" ry="1.99"/><ellipse class="cls-3" cx="77.84" cy="26.93" rx="0.44" ry="1"/><ellipse class="cls-3" cx="73.74" cy="33.12" rx="1.69" ry="1.76"/><ellipse class="cls-3" cx="70.11" cy="29.56" rx="1.13" ry="1.8"/><ellipse class="cls-3" cx="74.09" cy="29.21" rx="0.83" ry="1.28"/><ellipse class="cls-3" cx="95.15" cy="27.75" rx="1.66" ry="1.81"/><ellipse class="cls-3" cx="95.18" cy="35.24" rx="1.03" ry="1.63"/><ellipse class="cls-2" cx="76.7" cy="67.21" rx="1.58" ry="1.76"/><ellipse class="cls-2" cx="79.84" cy="66.33" rx="0.73" ry="0.88"/><ellipse class="cls-2" cx="83.91" cy="64.41" rx="1.01" ry="1.92"/><ellipse class="cls-2" cx="83.15" cy="68.89" rx="1.31" ry="1.68"/><ellipse class="cls-2" cx="72.49" cy="67.88" rx="1.25" ry="1.55"/><ellipse class="cls-2" cx="87.06" cy="66.15" rx="1.24" ry="1.74"/><ellipse class="cls-2" cx="90.71" cy="64.85" rx="1.26" ry="2.36"/><ellipse class="cls-2" cx="93.84" cy="66.15" rx="1.06" ry="1.74"/><ellipse class="cls-2" cx="96.64" cy="64.32" rx="0.98" ry="1.83"/><ellipse class="cls-2" cx="96.31" cy="69.73" rx="0.86" ry="1.3"/><ellipse class="cls-2" cx="92.3" cy="69.96" rx="0.83" ry="1.52"/><ellipse class="cls-2" cx="89.74" cy="69.73" rx="0.72" ry="1.3"/><ellipse class="cls-2" cx="86.24" cy="70.19" rx="0.79" ry="1.3"/><ellipse class="cls-4" cx="71.52" cy="59.47" rx="0.98" ry="1.31"/><ellipse class="cls-4" cx="74.09" cy="58.67" rx="0.83" ry="1.88"/><ellipse class="cls-4" cx="77.31" cy="60.05" rx="0.61" ry="1.37"/><ellipse class="cls-4" cx="76.42" cy="54.69" rx="1.5" ry="2.11"/><ellipse class="cls-4" cx="79.39" cy="59.85" rx="0.75" ry="1.69"/><ellipse class="cls-4" cx="79.55" cy="55" rx="0.43" ry="0.98"/><ellipse class="cls-4" cx="81.35" cy="59" rx="0.37" ry="0.84"/><ellipse class="cls-4" cx="83.97" cy="57.72" rx="1.48" ry="1.75"/><ellipse class="cls-4" cx="87.49" cy="60.5" rx="0.81" ry="1.03"/><ellipse class="cls-4" cx="90.71" cy="57" rx="1.26" ry="2"/><ellipse class="cls-4" cx="94.85" cy="58.43" rx="1.36" ry="1.42"/><ellipse class="cls-4" cx="97.26" cy="58" rx="0.44" ry="1"/></svg>