<svg id="Layer_1" data-name="Layer 1" xmlns="http://www.w3.org/2000/svg" viewBox="0 0 100 100"><defs><style>.cls-1{fill:#b6b6b7;}.cls-2{fill:#979797;}.cls-3{fill:#6ab7d8;}.cls-4{fill:#9dc7db;}.cls-5{fill:#c0dbe4;}</style></defs><title>microscope</title><rect class="cls-1" x="44.87" y="41" width="17.05" height="3.45" rx="0.44" ry="0.44" transform="translate(27.32 -20.49) rotate(28.92)"/><rect class="cls-2" x="49.73" y="44.18" width="3.74" height="9.85" transform="translate(30.18 -18.83) rotate(28.92)"/><rect class="cls-3" x="33.71" y="66.24" width="10.12" height="11.77" rx="1.28" ry="1.28" transform="translate(120.65 73.08) rotate(118.92)"/><path class="cls-4" d="M81.24,33.4A9.59,9.59,0,0,0,79.76,32a8.2,8.2,0,0,0-2.6-1.29l-5.39,10a11.47,11.47,0,0,1,5.78,3.44c5.27,6.13,1.79,17.92-3.9,24.77-5.28,6.34-15.12,11.63-19.56,8.34-1-.71-2.49-2.43-2.49-7l-10.31-5.7c.54,7.36,4.06,13.83,10.17,17.2,10.79,6,25.77-2.54,32.26-12.88C93.8,52.83,82.09,34.46,81.24,33.4Z"/><rect class="cls-3" x="65.38" y="25.75" width="6.63" height="12.67" rx="0.84" ry="0.84" transform="translate(24.08 -29.22) rotate(28.92)"/><rect class="cls-5" x="19.53" y="61.13" width="39.26" height="3" rx="0.38" ry="0.38" transform="translate(35.17 -11.13) rotate(28.92)"/><rect class="cls-2" x="68.6" y="2.24" width="7.9" height="17.92" transform="translate(14.46 -33.69) rotate(28.92)"/><path class="cls-3" d="M74.22,88.83V99.16a1.06,1.06,0,0,1-1.11,1H13.32a1.06,1.06,0,0,1-1.11-1V88.83a1.06,1.06,0,0,1,1.11-1H50.4c.09-.33.18-.7.28-1.12,1.23-5.55,0-8.08,1.94-9.33A5,5,0,0,1,56.24,77c4.72.85,9.32,6.5,9.13,10.82h7.74A1.06,1.06,0,0,1,74.22,88.83Z"/><rect class="cls-5" x="69.74" y="26.71" width="6.63" height="15.57" rx="0.84" ry="0.84" transform="translate(25.79 -31.03) rotate(28.92)"/><path class="cls-4" d="M60.8,42.58,72.34,21.7,63.77,17,52.23,37.85l-5.54-3.07a.45.45,0,0,0-.6.17l-1.24,2.26a.43.43,0,0,0,.17.59L61.69,47a.45.45,0,0,0,.6-.18l1.24-2.25a.43.43,0,0,0-.17-.59Z"/><rect class="cls-1" x="62.02" y="17.82" width="12.21" height="2.35" rx="0.3" ry="0.3" transform="matrix(0.88, 0.48, -0.48, 0.88, 17.68, -30.58)"/><rect class="cls-1" x="70.46" y="2.54" width="12.21" height="2.35" rx="0.3" ry="0.3" transform="translate(11.35 -36.57) rotate(28.92)"/><circle class="cls-1" cx="66.57" cy="35.61" r="5.62"/><circle class="cls-2" cx="66.64" cy="35.65" r="4.2"/><circle class="cls-2" cx="55.05" cy="80.3" r="1.39"/></svg>