<svg id="Layer_1" data-name="Layer 1" xmlns="http://www.w3.org/2000/svg" viewBox="0 0 100 100"><defs><style>.cls-1{fill:#8a8a8a;}.cls-2{fill:#d0d2d3;}.cls-3{fill:#4f4f4f;}.cls-4{fill:#212121;}.cls-5{fill:#09a380;}</style></defs><title>robot vacuum</title><circle class="cls-1" cx="50" cy="50" r="50"/><path class="cls-2" d="M56.59,5.85a2.38,2.38,0,0,0-2.52,1.36,4.46,4.46,0,0,1-8.14,0,2.38,2.38,0,0,0-2.52-1.36,44.7,44.7,0,0,0-.86,88.28,3.61,3.61,0,0,0,3.65-1.72,4.44,4.44,0,0,1,7.6,0,3.59,3.59,0,0,0,3.64,1.71,44.69,44.69,0,0,0-.85-88.27Z"/><path class="cls-3" d="M16.68,50a1.42,1.42,0,0,0,1.4-1.29,32.08,32.08,0,0,1,63.84,0A1.42,1.42,0,0,0,83.32,50h0a1.39,1.39,0,0,0,1.39-1.51,34.88,34.88,0,0,0-69.42,0A1.39,1.39,0,0,0,16.68,50Z"/><circle class="cls-4" cx="50" cy="50" r="18.69"/><circle class="cls-5" cx="50" cy="50" r="4.48"/></svg>