<svg id="Layer_1" data-name="Layer 1" xmlns="http://www.w3.org/2000/svg" viewBox="0 0 100 100"><defs><style>.cls-1{fill:#9dc7db;}.cls-2{fill:#09a481;}.cls-3{fill:#05b58a;}.cls-4{fill:#009173;}.cls-5{fill:#0894a2;}.cls-6{fill:#6ab7d8;}</style></defs><title>smoothie</title><path class="cls-1" d="M77.32,31.13v2.58L76,34.4l-.69,10.87L73.9,46q-1,20.72-2,41.45l-1.71.87L68.72,100H29.85q-.72-5.93-1.43-11.86l-1.29-.59q-.49-20.79-1-41.58l-1.47-.7c-.23-3.62-.45-7.24-.68-10.86l-1.09-.7V31.13Z"/><path class="cls-2" d="M68.8,30.88,68.53,35l-3.9,60.35H34.05L30,33l-.12-1.86c5.27-3.89,8.74-4.79,11-4.82a22.53,22.53,0,0,0,4.2-.3,42.67,42.67,0,0,0,4.8-1.2c3.29-.93,3.32-1.07,4.05-1,1.84.07,2.12,1,5,2.1s3.37.55,5.49,1.52A12.21,12.21,0,0,1,68.8,30.88Z"/><polygon class="cls-1" points="65.42 82.72 68.92 81.73 57.53 41.65 57.54 41.65 68.93 81.73 65.42 82.72 65.42 82.72"/><path class="cls-3" d="M68.8,30.88v.25H29.89c5.27-3.89,8.74-4.79,11-4.82a22.53,22.53,0,0,0,4.2-.3,42.67,42.67,0,0,0,4.8-1.2c3.29-.93,3.32-1.07,4.05-1,1.84.07,2.12,1,5,2.1s3.37.55,5.49,1.52A12.21,12.21,0,0,1,68.8,30.88Z"/><circle class="cls-4" cx="58.1" cy="63.41" r="1.22"/><circle class="cls-4" cx="60.68" cy="81.13" r="1.22"/><circle class="cls-4" cx="59.5" cy="74.2" r="2.25"/><circle class="cls-4" cx="58.1" cy="50.63" r="2.25"/><circle class="cls-4" cx="45.16" cy="40.88" r="2.25"/><circle class="cls-4" cx="43.59" cy="85" r="2.25"/><circle class="cls-4" cx="55.85" cy="68.95" r="0.75"/><circle class="cls-4" cx="53.07" cy="49.88" r="0.75"/><circle class="cls-4" cx="53.93" cy="75.7" r="0.75"/><circle class="cls-4" cx="55.16" cy="78.18" r="1.73"/><circle class="cls-4" cx="50.63" cy="74.2" r="1.73"/><circle class="cls-4" cx="53.07" cy="45.4" r="1.73"/><polygon class="cls-5" points="65.42 82.72 68.92 81.73 57.53 41.65 57.54 41.65 68.93 81.73 65.42 82.72 65.42 82.72"/><rect class="cls-6" x="34.92" y="-1.21" width="3.65" height="89.51" transform="matrix(0.96, -0.27, 0.27, 0.96, -10.51, 11.71)"/><path class="cls-1" d="M34.24,28.3a31.15,31.15,0,0,0-3.23,2L22.68,1,26.2,0Z"/></svg>