<svg id="Layer_1" data-name="Layer 1" xmlns="http://www.w3.org/2000/svg" viewBox="0 0 100 100"><defs><style>.cls-1{fill:gray;}.cls-2{fill:#676767;}.cls-3{fill:#979797;}</style></defs><title>steel wool</title><path class="cls-1" d="M67.44,17.81c-8.7-4-19-3.4-27.94.82,9.69-5.87,21.6-7.27,31.48-2.72,15.11,7,19.73,25.23,10.32,40.8A38.37,38.37,0,0,1,64.85,71.47,38.11,38.11,0,0,0,77.76,58.6C87.17,43,82.55,24.77,67.44,17.81Z"/><path class="cls-1" d="M88.69,38.31c-.09-8.59-5.6-16.2-14.1-21.08,10.52,4.66,17.59,13.15,17.7,22.9.16,14.92-16.05,27.15-36.21,27.31a44.88,44.88,0,0,1-22.69-5.63,46.12,46.12,0,0,0,19.09,3.81C72.64,65.46,88.85,53.23,88.69,38.31Z"/><path class="cls-1" d="M85.29,55.41A24.29,24.29,0,0,0,96,32.84C98.07,43,94.63,53,85.81,59c-13.49,9.15-34.46,5.3-46.82-8.6a32.93,32.93,0,0,1-8.62-19.18,34.11,34.11,0,0,0,8.09,15.58C50.83,60.71,71.79,64.56,85.29,55.41Z"/><path class="cls-1" d="M81.6,73.88a23.94,23.94,0,0,0,9.28-23c2.74,10-.1,20.22-8.54,26.6C69.42,87.21,48.25,84.33,35.06,71A33.59,33.59,0,0,1,25.3,52.27a34.66,34.66,0,0,0,9,15.18C47.51,80.76,68.68,83.64,81.6,73.88Z"/><path class="cls-1" d="M52,83.72c9.2,3,19.32,1.33,27.61-3.81C70.82,86.77,59.19,89.44,48.75,86c-16-5.29-23.13-22.93-16-39.38A36.51,36.51,0,0,1,47,30.18,36.35,36.35,0,0,0,36,44.33C28.87,60.79,36,78.42,52,83.72Z"/><path class="cls-1" d="M35,74.73C37.8,83,45.49,89,55.2,91.61c-11.58-2-21.06-8.42-24.23-17.76-4.86-14.31,6.86-30,26.19-35a46.31,46.31,0,0,1,23.59,0,47,47,0,0,0-19.56.93C41.86,44.77,30.14,60.43,35,74.73Z"/><path class="cls-1" d="M80.24,63A27.84,27.84,0,0,0,100,45.68,28,28,0,0,1,79.14,66.45C62.66,70.38,45,59.8,39.68,42.82a31.21,31.21,0,0,1,.47-20.6,31.57,31.57,0,0,0,.63,17.1C46.09,56.31,63.76,66.88,80.24,63Z"/><path class="cls-1" d="M24.2,77.51c7.35,5.71,17.51,7.26,27.36,5-11,3.67-23,2.55-31.32-3.93C7.48,68.7,8,50,21.38,36.84a41.88,41.88,0,0,1,20-10.9,41.83,41.83,0,0,0-16.06,9.8C11.94,48.89,11.43,67.59,24.2,77.51Z"/><path class="cls-1" d="M10,52.37c-2.26,8.37,1,16.91,7.92,23.42C8.94,69.07,4.39,59.35,7,49.86c3.93-14.52,23-23,42.63-19a42.29,42.29,0,0,1,20.5,10.2A43.77,43.77,0,0,0,52.57,33.4C33,29.36,13.87,37.85,10,52.37Z"/><path class="cls-1" d="M16.52,34.7A26.33,26.33,0,0,0,0,54.39a26.49,26.49,0,0,1,17-23.3c15.61-6.07,34.91,2,43.12,18.12a31.42,31.42,0,0,1,3.12,20.42,32.12,32.12,0,0,0-3.6-16.82C51.43,36.73,32.13,28.62,16.52,34.7Z"/><path class="cls-1" d="M28.32,20.1A25.84,25.84,0,0,0,13,40.53a26,26,0,0,1,15.57-24c15.22-6.78,35,.43,44.15,16.11a31.6,31.6,0,0,1,4.35,20.24,32.42,32.42,0,0,0-4.61-16.62C63.3,20.53,43.54,13.32,28.32,20.1Z"/><path class="cls-1" d="M59.75,16.72c-8.1-4.87-18.39-5.32-27.85-2.06,10.42-4.82,22.43-5,31.63.54,14.06,8.47,16.19,27.09,4.74,41.58a40.06,40.06,0,0,1-18.33,13A40,40,0,0,0,64.5,58.3C75.94,43.81,73.82,25.19,59.75,16.72Z"/><path class="cls-1" d="M73.81,29c-.47-8.58-6.3-16-15-20.6C69.51,12.71,77,21,77.48,30.69c.81,14.91-14.86,27.66-35,28.5a45.43,45.43,0,0,1-22.92-4.88,46.81,46.81,0,0,0,19.25,3.18C59,56.65,74.62,43.9,73.81,29Z"/><path class="cls-1" d="M26.91,24.14A30.31,30.31,0,0,0,3,36.79,30.49,30.49,0,0,1,28.93,21C46,20.59,60.27,34.55,60.79,52.15a32.21,32.21,0,0,1-6.09,19.9,32.29,32.29,0,0,0,4.06-16.74C58.25,37.72,44,23.76,26.91,24.14Z"/><ellipse class="cls-1" cx="50.24" cy="49.35" rx="42.67" ry="31.58"/><path class="cls-2" d="M19.72,51.42c0,8.56,4.47,16.19,11.46,21.12-8.65-4.73-14.42-13.25-14.42-23,0-14.86,13.5-26.91,30.16-26.91a32.36,32.36,0,0,1,18.69,5.8,32.72,32.72,0,0,0-15.74-3.95C33.22,24.52,19.72,36.56,19.72,51.42Z"/><path class="cls-2" d="M28.77,50.13a17.13,17.13,0,0,0,7.57,13.94c-5.71-3.13-9.52-8.75-9.52-15.16,0-9.81,8.92-17.77,19.91-17.77A21.37,21.37,0,0,1,59.08,35a21.62,21.62,0,0,0-10.4-2.61C37.69,32.36,28.77,40.31,28.77,50.13Z"/><path class="cls-2" d="M36,31.31c-7.17,3.24-11.86,9-13.34,15.3.69-7.31,5.63-14.21,13.76-17.89C48.84,23.1,64,27.16,70.34,37.79a18.9,18.9,0,0,1,2.23,14.13,19,19,0,0,0-2.65-11.55C63.61,29.74,48.42,25.68,36,31.31Z"/><path class="cls-3" d="M81.12,54.23a25,25,0,0,0-4.39-24c7.14,7,10.07,17,6.75,26.67-5.07,14.79-22.85,23.21-39.71,18.8a31.75,31.75,0,0,1-17-10.72A32.52,32.52,0,0,0,41.41,73C58.27,77.45,76.05,69,81.12,54.23Z"/><path class="cls-3" d="M64.83,66.39c7.26-3.83,11.68-10.19,12.68-17-.07,7.8-4.66,15.4-12.89,19.75-12.6,6.65-29,3.17-36.54-7.77a20.63,20.63,0,0,1-3.6-14.88A20.77,20.77,0,0,0,28.3,58.62C35.88,69.57,52.24,73.05,64.83,66.39Z"/><path class="cls-3" d="M67.77,55.68A14.67,14.67,0,0,0,67,41.29a14.8,14.8,0,0,1,2,16.06c-4.08,8.4-15.16,12.34-24.74,8.79a18,18,0,0,1-9.16-7.26,18.41,18.41,0,0,0,8,5.59C52.61,68,63.68,64.08,67.77,55.68Z"/></svg>