<svg id="Layer_1" data-name="Layer 1" xmlns="http://www.w3.org/2000/svg" viewBox="0 0 100 100"><defs><style>.cls-1{fill:#9dc7db;}.cls-2{fill:#6ab7d8;}.cls-3{fill:#f27d3b;}.cls-4{fill:#f05c37;}.cls-5{fill:#ffc53f;}.cls-6{fill:#d0992a;}.cls-7{fill:#885e59;}.cls-8{fill:#6d4945;}.cls-9{fill:#09a481;}.cls-10{fill:#009173;}</style></defs><title>crayon</title><path class="cls-1" d="M40.1,22.89,38.85,98.18a1.31,1.31,0,0,1-1.25,1.36l-13.84-.23a1.32,1.32,0,0,1-1.21-1.4l1.24-75.29a34.27,34.27,0,0,1,1.33-5.27L31.26.72A2.44,2.44,0,0,1,32.44.43a3.15,3.15,0,0,1,.87.26.1.1,0,0,1,0,.07l5.59,16.82A33,33,0,0,1,40.1,22.89Z"/><rect class="cls-2" x="27.76" y="19.91" width="8.2" height="16.31" transform="translate(3.28 59.45) rotate(-89.05)"/><rect class="cls-2" x="27.27" y="79.6" width="7.21" height="16.31" transform="translate(-57.38 117.18) rotate(-89.05)"/><path class="cls-3" d="M58.33,23,60,98.27a1.33,1.33,0,0,1-1.2,1.42L45,100a1.3,1.3,0,0,1-1.26-1.36L42,23.37a32.12,32.12,0,0,1,1.12-5.32L48.64,1.19A2.3,2.3,0,0,1,49.8.86a3,3,0,0,1,.88.22.18.18,0,0,1,0,.07L57,17.73A33.15,33.15,0,0,1,58.33,23Z"/><rect class="cls-4" x="42.15" y="24.38" width="16.31" height="8.2" transform="translate(-0.63 1.15) rotate(-1.3)"/><rect class="cls-4" x="43.5" y="84.57" width="16.31" height="7.21" transform="translate(-1.98 1.19) rotate(-1.3)"/><path class="cls-5" d="M77.66,22.78l-.22,75.29a1.31,1.31,0,0,1-1.23,1.38l-13.84,0A1.31,1.31,0,0,1,61.14,98l.21-75.3a32,32,0,0,1,1.26-5.29L68.52.73A2.33,2.33,0,0,1,69.69.42a3.37,3.37,0,0,1,.88.25.16.16,0,0,1,0,.07l5.82,16.74A32.58,32.58,0,0,1,77.66,22.78Z"/><rect class="cls-6" x="65.39" y="19.9" width="8.2" height="16.31" transform="translate(41.24 97.47) rotate(-89.84)"/><rect class="cls-6" x="65.71" y="79.61" width="7.21" height="16.31" transform="translate(-18.63 156.84) rotate(-89.84)"/><path class="cls-7" d="M96,22.28l.47,75.29A1.32,1.32,0,0,1,95.29,99l-13.84.08a1.3,1.3,0,0,1-1.24-1.37l-.47-75.3A32,32,0,0,1,81,17.08L86.7.32A2.42,2.42,0,0,1,87.87,0a3.1,3.1,0,0,1,.88.24.18.18,0,0,1,0,.07l6,16.69A32.78,32.78,0,0,1,96,22.28Z"/><rect class="cls-8" x="79.77" y="23.53" width="16.31" height="8.2" transform="translate(-0.17 0.55) rotate(-0.36)"/><rect class="cls-8" x="80.14" y="83.73" width="16.31" height="7.21" transform="translate(-0.55 0.56) rotate(-0.36)"/><path class="cls-9" d="M19.79,22.58l1.63,75.28a1.32,1.32,0,0,1-1.2,1.41l-13.84.3a1.3,1.3,0,0,1-1.26-1.36L3.49,22.94a32.12,32.12,0,0,1,1.12-5.32L10.11.77A2.35,2.35,0,0,1,11.27.43a3.2,3.2,0,0,1,.89.23l.05.06,6.22,16.6A33.15,33.15,0,0,1,19.79,22.58Z"/><rect class="cls-10" x="3.6" y="23.96" width="16.31" height="8.2" transform="translate(-0.6 0.26) rotate(-1.24)"/><rect class="cls-10" x="4.89" y="84.14" width="16.31" height="7.21" transform="translate(-1.9 0.3) rotate(-1.24)"/></svg>