<svg id="Layer_1" data-name="Layer 1" xmlns="http://www.w3.org/2000/svg" viewBox="0 0 100 100"><defs><style>.cls-1{fill:#6d4945;}.cls-2{fill:#895e59;}.cls-3{fill:#00a69c;}</style></defs><title>forest</title><rect class="cls-1" x="28.82" y="34.85" width="71.18" height="15.74" rx="3.95" ry="3.95"/><polyline class="cls-1" points="69.09 76.92 97.54 48.47 97.54 38.72 95.81 36.24 51.73 57.64"/><path class="cls-2" d="M32.67,35.77,3,65.41H68.14L97,36.55h-.07a7.74,7.74,0,0,0-4.81-1.7H36.69a7.66,7.66,0,0,0-3.61.93"/><path class="cls-1" d="M63.31,63.73H7.87a7.87,7.87,0,0,0,0,15.74H63.31a7.87,7.87,0,1,0,0-15.74Z"/><rect class="cls-1" x="17.08" y="55.69" width="3.7" height="5.39" rx="0.93" ry="0.93" transform="translate(-1.86 0.64) rotate(-1.84)"/><polygon class="cls-3" points="8.49 57.8 29.31 57.13 18.18 34.9 8.49 57.8"/><rect class="cls-1" x="42.69" y="45.87" width="2.45" height="3.57" rx="0.61" ry="0.61" transform="matrix(1, -0.03, 0.03, 1, -1.5, 1.43)"/><polygon class="cls-3" points="37.01 47.27 50.79 46.83 43.42 32.12 37.01 47.27"/><rect class="cls-1" x="57.36" y="54.63" width="2.83" height="4.13" rx="0.71" ry="0.71" transform="translate(-1.79 1.91) rotate(-1.84)"/><polygon class="cls-3" points="50.77 56.24 66.73 55.73 58.2 38.69 50.77 56.24"/><rect class="cls-1" x="78.49" y="36.46" width="2.83" height="4.13" rx="0.71" ry="0.71" transform="matrix(1, -0.03, 0.03, 1, -1.19, 2.58)"/><polygon class="cls-3" points="71.91 38.08 87.87 37.57 79.33 20.53 71.91 38.08"/><rect class="cls-1" x="63.5" y="38.74" width="1.84" height="2.69" rx="0.46" ry="0.46" transform="translate(-1.25 2.09) rotate(-1.84)"/><polygon class="cls-3" points="59.22 39.79 69.61 39.45 64.05 28.37 59.22 39.79"/><rect class="cls-1" x="69.89" y="45.06" width="2.61" height="3.8" rx="0.66" ry="0.66" transform="matrix(1, -0.03, 0.03, 1, -1.47, 2.31)"/><polygon class="cls-3" points="63.83 46.55 78.52 46.08 70.67 30.4 63.83 46.55"/><rect class="cls-1" x="30.61" y="38.24" width="2.61" height="3.8" rx="0.66" ry="0.66" transform="translate(-1.27 1.04) rotate(-1.84)"/><polygon class="cls-3" points="24.55 39.73 39.24 39.26 31.38 23.57 24.55 39.73"/><rect class="cls-1" x="36.47" y="55.92" width="2.18" height="3.18" rx="0.55" ry="0.55" transform="translate(-1.82 1.23) rotate(-1.84)"/><polygon class="cls-3" points="31.4 57.17 43.68 56.77 37.12 43.67 31.4 57.17"/><rect class="cls-1" x="52.34" y="35.4" width="1.33" height="1.95" rx="0.33" ry="0.33" transform="translate(-1.14 1.72) rotate(-1.84)"/><polygon class="cls-3" points="49.24 36.16 56.75 35.92 52.73 27.9 49.24 36.16"/></svg>