<svg id="Layer_1" data-name="Layer 1" xmlns="http://www.w3.org/2000/svg" viewBox="0 0 100 100"><defs><style>.cls-1{fill:#6d4945;}.cls-2{fill:#885e59;}.cls-3{fill:gray;}.cls-4{fill:#3f3f40;}</style></defs><title>tunnel</title><path class="cls-1" d="M80,54c-2.9,13.94-15.21,20.08-18.22,21.45-13.33,6.11-25.7,2-26.11,5.85-.36,3.39,9.23,7,9,10.25C44.27,98.48.24,94.94,0,92.84c-.11-.94,8.37-3,17-2.88,4.73,0,9.45.69,9.69-.86S22,85.77,21.18,81.9s3.17-7.48,4.08-8.29c5.12-4.57,9.31-2.24,20.11-5,6.43-1.66,9.73-2.58,12.3-6.06C60.9,58.13,59,54.91,62,49.75c4.2-7.43,13.51-11.2,17-7.81C81.92,44.73,80.35,52.22,80,54Z"/><path class="cls-2" d="M100,62.53c-.68,2.93-8.91,3-23.87,2.71-5.9-.12-12.84-.3-20.77-.38l-3.68,0c-26.55-.18-38.16.77-39.87-4.22C10.54,57,16.12,55.13,21,43.89a57.82,57.82,0,0,0,3.29-10.35C25.73,27,26,22.64,28.73,22a4.11,4.11,0,0,1,3.35,1c1.9,1.38,3.78,3.63,6,4.08a3.81,3.81,0,0,0,1.71,0,4.49,4.49,0,0,0,2.39-1.62c1.19-1.45,2.28-3.84,3.83-7.31.67-1.51,1.21-2.86,1.64-4,2.16-5.9,1.88-8.09,4-9.16s5.63-.34,8.87,1.6a18.83,18.83,0,0,1,7,7.33,15,15,0,0,1,.81,1.93c1.74,5.1.27,9.58,3.46,11.46a3.19,3.19,0,0,0,.45.23l.39.15h0c2.06.65,4-.68,7.12.59l.13.06c1.47.62,3,1.75,5,4.88.34.5.68,1,1,1.66,5.22,8.72,4.38,13.08,8,19.31a28.68,28.68,0,0,0,1.56,2.43C98.52,60.76,100.29,61.13,100,62.53Z"/><path class="cls-3" d="M76.09,66.79c-5.9-.12-12.84-.3-20.77-.38l-3.68,0c.08-10.68,3.61-21.24,7.8-24.49A9.42,9.42,0,0,1,63.85,40a7.2,7.2,0,0,1,5.4,1.56C74.55,46.05,76.28,58.23,76.09,66.79Z"/><path class="cls-4" d="M73.74,66.13C69,66,63.37,65.89,57,65.82l-3,0c.07-8.63,2.92-17.16,6.31-19.79a7.55,7.55,0,0,1,3.56-1.49,5.78,5.78,0,0,1,4.35,1.25C72.5,49.38,73.89,59.22,73.74,66.13Z"/><path class="cls-1" d="M42.18,25.39,40.71,42.33,35.47,29.71V46.6L32.08,23h0c1.9,1.38,3.78,3.63,6,4.08a3.81,3.81,0,0,0,1.71,0A4.49,4.49,0,0,0,42.18,25.39Z"/><path class="cls-1" d="M72.27,27.43l-.7,3.06-1.36-1.75-3.3,7.37V16.9l-1.74,2.91-1.3-8.93-2.2,1.36L60.5,6.48a18.83,18.83,0,0,1,7,7.33,15,15,0,0,1,.81,1.93c1.74,5.1.27,9.58,3.46,11.46A3.19,3.19,0,0,0,72.27,27.43Z"/><path class="cls-1" d="M93.94,54.08l-1.41,4.16L88.46,46.6l-1.55,6.78L84,34.86l-2.52,7.27-1.56-13.9c1.47.62,3,1.75,5,4.88.34.5.68,1,1,1.66C91.21,43.49,90.37,47.85,93.94,54.08Z"/></svg>