<svg id="Layer_1" data-name="Layer 1" xmlns="http://www.w3.org/2000/svg" viewBox="0 0 100 100"><defs><style>.cls-1{fill:#a38061;}.cls-2{fill:#6d4945;}.cls-3{fill:#885e59;}.cls-4{fill:#dac8b9;}.cls-5{fill:#be9a77;}</style></defs><title>quicksand</title><path class="cls-1" d="M0,55.42V74.68a1.63,1.63,0,0,0,1.76,1.45H98.23a1.4,1.4,0,0,0,1.24-.43,1.35,1.35,0,0,0,.32-1c.08-2.7.18-6.66.2-11.47a50.74,50.74,0,0,0-.13-6.31c-1.27-6.37-11.62-10.72-20.07-12.15-22.5-3.82-31.39,13-49.11,7.12-3.5-1.17-8.14-3.48-15.42-3.73C4.45,47.77,1,52.43.69,52.81A2.19,2.19,0,0,0,.18,54C.17,54.19,0,55.14,0,55.42Z"/><polygon class="cls-2" points="64.43 67.5 59.96 66.96 63.55 24.71 70.91 25.59 64.43 67.5"/><polygon class="cls-3" points="88.55 32.47 88.24 41.04 43.97 35.45 44.88 28.92 42.59 28.68 43.61 21.6 44.26 21.65 45.18 15.2 88.83 17.66 88.53 25.64 85.82 25.42 85.53 32.16 88.55 32.47"/><path class="cls-4" d="M75.6,27.33c-.41-.94-2.29-.28-3-1.37s1.13-2.76.69-4.66c-.56-2.44-4.7-3.74-7.64-3.77-.57,0-5.21-.07-6.39,2.41-.88,1.84.79,3.71-.33,4.94s-3.13.5-3.43,1.44c-.23.73.75,2,1.82,2.25.67.15,1.23-.14,1.42.13s-.49.83-.4,1.33c.06.34.56,1.06,6.42,1.33,3.9.19,5.75,0,6-.84.12-.39-.14-.82,0-.95s1,.94,2,1C74.18,30.76,76.07,28.4,75.6,27.33ZM63.32,25.55c-.55.61-.58,1.09-.91,1.11s-.89-1.06-.9-1.11c-.3-.83-.47-2.44.59-3.15A1.85,1.85,0,0,1,64,22.29a1.8,1.8,0,0,1,.81,2.12C64.56,25,64,24.78,63.32,25.55Zm2.59,3.34c-.07.1-.25-.85-.72-.95s-.94.93-1,.75.41-2.54,1-2.58S66,28.73,65.91,28.89Zm3.51-2.36c-.26.43-.76,1-1.1.93s-.13-.74-.59-1.44-1.33-.75-1.37-1.2.78-.86,1.74-1.35c.71-.36,1.06-.53,1.31-.43C70.12,23.35,70.18,25.26,69.42,26.53Z"/><path class="cls-4" d="M69.2,35.46c-.51-.31-.63-1.05-.86-2.52a.86.86,0,0,1,.06-.56,1.18,1.18,0,0,1,1.47-.25,1.39,1.39,0,0,1,.56.74c.41.91.94,2.07.42,2.59A1.48,1.48,0,0,1,69.2,35.46Z"/><path class="cls-4" d="M65.5,35.49c-.84-.79-.41-2.16-.26-2.66a1.23,1.23,0,0,1,.42-.68,1.25,1.25,0,0,1,1.49.08,1.41,1.41,0,0,1,.38.86c.31,1.54.46,2.31,0,2.68A1.74,1.74,0,0,1,65.5,35.49Z"/><path class="cls-4" d="M61.88,36.05c-.52-.64-.35-1.64,0-3.66a1.07,1.07,0,0,1,.32-.69,1.62,1.62,0,0,1,2,.31,2,2,0,0,1,.4,1.21c.13,1.36.3,3.1-.6,3.54A2,2,0,0,1,61.88,36.05Z"/><path class="cls-4" d="M38.79,65.49q-1.3-9.91-2.59-19.82c1.78,1.09,3.73,1.49,4.8.69,2-1.49.64-6.85-1.51-7.36a3,3,0,0,0-2.59.91c-.71.77-.52,1.57-1.3,2a1.7,1.7,0,0,1-1.65,0c-.46-.31-.35-.73-.86-1.52-.23-.34-.73-1.11-1.24-1.16-1.23-.14-3.9,3.74-2.43,5.68a3.75,3.75,0,0,0,3.73.94l2.3,21.72"/><path class="cls-4" d="M42.38,72.27,50.79,53.4c1.06,2.68,3.24,3.94,4.47,3.49,1.48-.55,1.9-3.92.62-5.64a2.54,2.54,0,0,0-1.47-1.07c-1.12-.24-1.86.7-2.37.35s0-1.19-.42-2.48c-.07-.23-.49-1.45-1.36-1.78-1.44-.53-4.24,1.33-4.07,3.51a3.53,3.53,0,0,0,2.25,2.74q-5,9.88-10,19.77"/><path class="cls-4" d="M60.91,35.11c.51-.46.46-1.27.36-2.9a.87.87,0,0,0-.2-.58,1.45,1.45,0,0,0-1.74.09,1.5,1.5,0,0,0-.46.93c-.24,1.07-.55,2.43.17,2.86A1.8,1.8,0,0,0,60.91,35.11Z"/><path class="cls-5" d="M100,59.71V83a1.76,1.76,0,0,1-1.76,1.76H1.76A1.76,1.76,0,0,1,0,83V59.59s0,0,0,0a61.33,61.33,0,0,1,23-5.67c22-.81,27.13,13.17,40.64,9,9.8-3.06,10.7-11.54,21.08-11.93,8.06-.31,13.9,4.63,14.57,5.65A2.88,2.88,0,0,1,99.81,58C99.82,58.22,100,59.37,100,59.71Z"/></svg>