<svg id="Layer_1" data-name="Layer 1" xmlns="http://www.w3.org/2000/svg" viewBox="0 0 100 100"><defs><style>.cls-1{fill:#6ab7d8;}.cls-2{fill:#9dc7db;}</style></defs><title>parachute</title><path class="cls-1" d="M90.36,64.61c-.27.73-.62,1.43-.62,1.43-.23.46-.49.92-.76,1.36-.24-.24-.49-.48-.75-.71a.46.46,0,0,0-.07-.07l-.26-.24L87.44,66c-.92-.82-2.64-3.93-3.59-5-2-2.32-5.73-2-10.63-4.78l-.3-.17h0l-.47-.28c-4.72-2.9-3-4.21-6.8-6s-7-1.12-14.93-4.07l-.12,0-.21-.08L50,45.33c-6-2.3-7.83-4.35-10.69-5.7-5.56-2.61-7.86.68-16.07-2l-.33-.11-.33-.12c-4.26-1.51-5.49-3.13-8.08-3.11-2.37,0-3.12,1.41-7.65,1.77h0l-.37,0c-.43,0-.79,0-1,0a18.11,18.11,0,0,1,.85-3.31C7.67,29,10.7,20.64,24.05,18.53c1.33-.21,16.26-2.39,30,4.25.4.19.77.38,1.13.57l.75.4.46.25.46.27c.43.25.82.48,1.15.7l.24.15h.07l.88.11.63.11c.37.06.77.14,1.2.23l.78.19.1,0C76,29.37,86.1,43.18,86.85,44.23,86.85,44.23,94.18,54.5,90.36,64.61Z"/><polygon class="cls-2" points="30.92 98.17 6.75 32.79 7.68 32.54 31.86 97.93 30.92 98.17"/><polygon class="cls-2" points="31.11 98.15 30.55 97.36 88.82 63.76 89.39 64.55 31.11 98.15"/><polygon class="cls-2" points="31.21 98.07 30.45 97.44 75.75 49.52 76.51 50.16 31.21 98.07"/><rect class="cls-2" x="10.29" y="67.5" width="63.65" height="1" transform="translate(-36.39 83.29) rotate(-69.25)"/><polygon class="cls-2" points="30.08 97.06 23.6 31.26 24.58 31.24 31.06 97.04 30.08 97.06"/><path class="cls-2" d="M91.58,61.38c-.46,1.22-1,2.4-1,2.4-.36.78-.73,1.55-1.12,2.3q-.32-.48-.66-1L88.76,65l-.23-.32c-.23-.32-.39-.53-.41-.55-.82-1.09-2-5.62-2.79-7.17-1.63-3.23-5.76-2-10.46-5.22l-.29-.2h0l-.45-.34c-4.48-3.55-2.34-6-6-8S60.74,43,52.81,40.08l-.12,0L52.47,40l-.38-.15c-5.93-2.34-7.52-5.15-10.33-6.65-5.45-2.9-8.66,2.78-16.95.32l-.34-.1-.33-.11c-4.28-1.46-5.26-3.74-8.06-3.14-2.58.55-3.69,2.9-8.67,4.44h0L7,34.69c-.48.14-.87.24-1.14.3a46.76,46.76,0,0,1,1.64-5.4C9.82,23.32,14.93,9.48,29.82,3.26c1.49-.63,18.12-7.3,31.56.16.39.22.76.44,1.1.65l.72.47.45.3c.15.11.3.21.43.32.42.3.79.59,1.1.85l.23.18h.08c.27,0,.58,0,.91,0l.66,0c.39,0,.81.06,1.25.12l.81.12h.1C83.7,9,91.62,28.58,92.2,30.07A47.18,47.18,0,0,1,91.58,61.38Z"/><rect class="cls-2" x="29.58" y="95.96" width="2.44" height="3.9" rx="0.28" ry="0.28" transform="translate(36.63 -4.56) rotate(20.72)"/></svg>