<svg id="Layer_1" data-name="Layer 1" xmlns="http://www.w3.org/2000/svg" viewBox="0 0 100 100"><defs><style>.cls-1{fill:#4d4e4e;}.cls-2{fill:#fff;}.cls-3{fill:#333;}.cls-4{fill:#3f3f40;}.cls-5{fill:#6ab7d8;}</style></defs><title>husky</title><path class="cls-1" d="M61.81,10.1a6.23,6.23,0,0,0,10.86,6.11c1.68-3,2-16.21,2-16.21S63.5,7.11,61.81,10.1Z"/><path class="cls-2" d="M80.27,65.76l2,7V89.29a1,1,0,0,1-1,1H72.72a1,1,0,0,1-1-1V65.76Z"/><path class="cls-2" d="M27.44,65.76V89.29a1,1,0,0,1-1,1H17.89a1,1,0,0,1-1-1V72.72L18.59,66Z"/><path class="cls-2" d="M99,25.88a11.84,11.84,0,0,0-2.31-6.79l-1,.21a27.26,27.26,0,0,1-2.11,4.12A6.08,6.08,0,0,0,99,25.88Z"/><path class="cls-1" d="M93.65,23.42c-.43.73-.88,1.43-1.33,2.14l-3.67,5.71a37.36,37.36,0,0,0-3.15,6.14,66.38,66.38,0,0,1-2.91,6.53c-1.12,2.12-2.3,4.22-3.51,6.31s-2.41,4.22-3.66,6.32C73,60.78,70.35,65,67.75,69.14l.74.66c3.82-3.21,7.38-6.66,10.87-10.22,1.71-1.8,3.41-3.63,5.08-5.5s3.23-3.83,4.79-5.81,3.22-3.92,4.78-6a24.54,24.54,0,0,0,3.65-6.88,27,27,0,0,0,1.43-8.06c0-.48,0-1,0-1.47A6.08,6.08,0,0,1,93.65,23.42Z"/><path class="cls-1" d="M78.73,83c0,5.42-13.24,9.82-29.57,9.82S19.6,88.43,19.6,83,32.83,14,49.16,14,78.73,77.58,78.73,83Z"/><path class="cls-2" d="M66.07,91.07a73.24,73.24,0,0,1-17.74,2.46,63.63,63.63,0,0,1-17.78-2.89c0-3,8.63-33.24,17.78-33.24S66.07,88,66.07,91.07Z"/><rect class="cls-1" x="59.2" y="61" width="6.23" height="36"/><rect class="cls-1" x="32" y="61" width="6.23" height="36"/><circle class="cls-3" cx="18.58" cy="89.04" r="1.67"/><circle class="cls-3" cx="21.46" cy="90.27" r="1.67"/><circle class="cls-3" cx="24.81" cy="90.71" r="1.67"/><circle class="cls-3" cx="73.8" cy="90.27" r="1.67"/><circle class="cls-3" cx="77.25" cy="90.27" r="1.67"/><circle class="cls-3" cx="80.59" cy="89.47" r="1.67"/><path class="cls-1" d="M69.85,45.92l2.44,4,1.28-14.26,4.14,3-3.9-10.44,4.9,2.51-9-11.32C66,12.62,58.07,7.89,48.83,7.89c-9.52,0-17.7,5-21.24,12.22l-9,11.36L23.5,29,19.6,39.41l4.13-3L25,50.63l2.44-4Z"/><path class="cls-1" d="M36.56,11.11a6.23,6.23,0,1,1-10.85,6.11c-1.69-3-2-16.21-2-16.21S34.88,8.11,36.56,11.11Z"/><path class="cls-2" d="M33.2,10.56a3.64,3.64,0,0,1-6.34,3.57c-1-1.75-1.15-9.47-1.15-9.47S32.22,8.81,33.2,10.56Z"/><path class="cls-2" d="M71.21,14.55a3.72,3.72,0,1,1-6.58-3.46c1-1.81,7.48-6.23,7.48-6.23S72.16,12.74,71.21,14.55Z"/><path class="cls-2" d="M68.32,20.93c-4.21-2.49-8,.61-12.39-2.68a41.75,41.75,0,0,1-3.58-3.32C50.83,13.39,49.65,12,48.84,11c-.59.93-1.49,2.28-2.68,3.83A43.35,43.35,0,0,1,43,18.61c-3.86,3.58-9.11-.49-13.87,2.52-4.07,2.57-6.34,8.54-4.56,12,.88,1.72,2.51,2.49,6.44,3.8l-2.6,6.63,3.77-2.22v7.51l3.63-4.31,3.31,2.15,2.55-1.56,2.53,5.65,2-1.16,2.72,2.72v.24l.12-.12.12.12v-.24l2.72-2.72,2,1.16,2.54-5.65L59,46.69l3.31-2.15,3.63,4.31V41.34l3.77,2.22-2.51-6.42c3.9-1.72,5-2.9,5.65-4.27C74.47,29.17,72.25,23.26,68.32,20.93Z"/><path class="cls-4" d="M54.75,45.26c0,1.47-2.54,5.37-5.66,5.37s-5.66-3.9-5.66-5.37,2.53-2.67,5.66-2.67S54.75,43.78,54.75,45.26Z"/><circle class="cls-5" cx="65.16" cy="25.47" r="0.95"/><circle class="cls-5" cx="32.81" cy="25.47" r="0.95"/><path class="cls-1" d="M59.2,21.37a6,6,0,0,0-1.7,5.23c.77,3.64,5.74,5,5.86,4.86s-4-1.71-4.83-5.21C57.92,23.69,59.39,21.44,59.2,21.37Z"/><path class="cls-1" d="M41.46,21.37c.21-.07,2.27,2.52,1.7,5.23-.76,3.64-5.73,5-5.85,4.86s4-1.71,4.83-5.21C42.74,23.69,41.27,21.44,41.46,21.37Z"/><path class="cls-1" d="M16.91,65.1v7.71c1.23-3,1.7-3.53,1.9-3.48.76.22-3.25,9.55.65,15a9.88,9.88,0,0,0,5.13,3.47V65.1c0-.18-.28-.33-.63-.33H17.54C17.2,64.77,16.91,64.92,16.91,65.1Z"/><path class="cls-1" d="M82.26,65.1v7.71c-1.23-3-1.7-3.53-1.9-3.48-.76.22,3.25,9.55-.65,15a9.88,9.88,0,0,1-5.13,3.47V65.1c0-.18.28-.33.63-.33h6.42C82,64.77,82.26,64.92,82.26,65.1Z"/><path class="cls-2" d="M38.23,95C31,93,34.57,59.27,32.45,59.21c-.66,0-1.37,3.23-1.9,6.74v.15h0V98a.72.72,0,0,0,.72.72h6.24a.72.72,0,0,0,.72-.72"/><circle class="cls-3" cx="31.28" cy="97.09" r="1.67"/><circle class="cls-3" cx="34.16" cy="98.33" r="1.67"/><circle class="cls-3" cx="37.5" cy="97.52" r="1.67"/><path class="cls-2" d="M65,59.21C62.86,59.27,66.4,93,59.2,95v3.09a.63.63,0,0,0,.63.63h6.42a.63.63,0,0,0,.63-.63V66C66.35,62.44,65.64,59.19,65,59.21Z"/><circle class="cls-3" cx="59.93" cy="97.09" r="1.67"/><circle class="cls-3" cx="62.81" cy="98.33" r="1.67"/><circle class="cls-3" cx="66.15" cy="97.52" r="1.67"/></svg>