<svg id="Layer_1" data-name="Layer 1" xmlns="http://www.w3.org/2000/svg" viewBox="0 0 100 100"><defs><style>.cls-1{fill:#6ab7d8;}.cls-2{fill:#6d4945;}.cls-3{fill:#9dc7db;}.cls-4{fill:#8acae0;}.cls-5{fill:#979797;}.cls-6{fill:#09a481;}.cls-7{fill:#1e7a64;}.cls-8{fill:#c0dbe4;}</style></defs><title>roller coaster</title><path class="cls-1" d="M72.13,69V84.6A3.49,3.49,0,0,1,69,88.32H3.17A3.49,3.49,0,0,1,0,84.6V51.5c0-1.87.06-3.77.19-5.63.4-5.46,1.36-9.47,2.89-12a9,9,0,0,1,.66-1,6.07,6.07,0,0,1,1.2-1.18,3.93,3.93,0,0,1,.66-.43l.28-.14a4.55,4.55,0,0,1,1-.33,3.87,3.87,0,0,1,.67-.1,5,5,0,0,1,1,0,5.72,5.72,0,0,1,.67.14,8.3,8.3,0,0,1,1.64.64l.67.36c.5.29,1,.61,1.49.93l.66.45h0c.61.42,1.22.82,1.82,1.18.22.14.44.26.66.38a8.49,8.49,0,0,0,1.21.54,4.26,4.26,0,0,0,.67.2,4.18,4.18,0,0,0,1.16.1,3,3,0,0,0,.67-.11,3.15,3.15,0,0,0,.65-.23,3.8,3.8,0,0,0,1.25-1,5,5,0,0,0,.67-1A21.93,21.93,0,0,0,24.09,28s0,0,0-.06c.2-.91.4-1.86.65-2.81a21.78,21.78,0,0,1,2.14-5.59c.2-.35.43-.71.66-1.05a14.86,14.86,0,0,1,.94-1.19,14.53,14.53,0,0,1,1.11-1.11c.22-.2.44-.38.67-.56A15.92,15.92,0,0,1,32,14.44l.67-.37c.32-.18.66-.34,1-.5l.66-.29c.53-.21,1.08-.41,1.64-.58l.66-.2c.47-.13.95-.24,1.43-.34l.67-.13c.5-.08,1-.15,1.52-.21l.67-.06c.59,0,1.19-.07,1.79-.08h.67c.33,0,.67,0,1,0h.06l.67,0c.41,0,.82.08,1.24.13L47,12c.38.06.76.12,1.14.2l.66.14c.47.1.92.22,1.38.35l.67.2c.5.16,1,.33,1.5.52l.66.26c.6.25,1.19.52,1.75.81l.67.35c.4.22.8.46,1.19.7.22.14.44.28.66.44.49.32,1,.67,1.42,1,.22.18.45.37.66.56A19.32,19.32,0,0,1,60.84,19c.17.17.33.35.48.53s.13.14.19.2A21,21,0,0,1,63,21.54c.23.33.45.67.67,1a31.8,31.8,0,0,1,4,12.07c.14.91.25,1.84.35,2.78.43,4.26.43,8.63.44,12.8C68.47,58.73,68.48,66.15,72.13,69Z"/><path class="cls-2" d="M64.88,50.46v9.16A27.06,27.06,0,0,1,64.88,50.46Z"/><path class="cls-3" d="M91.42,51.39V84.6a3.49,3.49,0,0,1-3.17,3.72H5.63l-.36,0a3,3,0,0,1-1.86-1,4.05,4.05,0,0,1-1-2.65V67.84A22.74,22.74,0,0,0,2.66,65c0-1.17.1-2.52.21-3.93a42.73,42.73,0,0,1,.54-4.39,20,20,0,0,1,1.86-5.79,10.08,10.08,0,0,1,1.9-2.58,8,8,0,0,1,1.12-.89,7,7,0,0,1,1.93-.89,8,8,0,0,1,1.9-.3,10.87,10.87,0,0,1,3.31.46,17.3,17.3,0,0,1,1.9.67,24.42,24.42,0,0,1,2.21,1c.63.33,1.26.69,1.9,1.09,1,.58,1.93,1.23,2.91,1.92.63.44,1.26.91,1.9,1.38,1.22.92,2.46,1.89,3.7,2.89l1.9,1.55,1.86,1.53.69.56,1.9,1.56c1.13.92,2.24,1.81,3.33,2.64.65.5,1.28,1,1.91,1.42,1.13.81,2.22,1.53,3.23,2.11a15.94,15.94,0,0,0,1.91.94,5.78,5.78,0,0,0,2.61.55A2.25,2.25,0,0,0,50.63,68a2.08,2.08,0,0,0,.56-.74c.62-1.29.44-3.5.1-6.68,0-.31-.07-.62-.1-.94a33.82,33.82,0,0,1,0-9.16,17.2,17.2,0,0,1,2-5.77c.18-.32.37-.63.57-.94a18,18,0,0,1,1.91-2.39,21.56,21.56,0,0,1,3-2.65,22.4,22.4,0,0,1,1.91-1.25,25,25,0,0,1,4.41-2.05l.27-.1c.53-.18,1.08-.35,1.63-.5q.35-.11.69-.18A26,26,0,0,1,70.82,34c.63-.09,1.27-.14,1.91-.18l1,0h.39c.52,0,1,0,1.54.06a16.73,16.73,0,0,1,1.9.2,18.28,18.28,0,0,1,5,1.48,14.52,14.52,0,0,1,2.77,1.66A13.61,13.61,0,0,1,87.3,39a14,14,0,0,1,1.53,2A20.85,20.85,0,0,1,91.42,51.39Z"/><path class="cls-3" d="M16.75,53.72V84.6a3.49,3.49,0,0,1-3.17,3.72H3.17A3.49,3.49,0,0,1,0,84.6V53.72c0-.13,0-.26,0-.39a3.61,3.61,0,0,1,2.36-3.21A91.41,91.41,0,0,0,2.87,61c.29-3.75,1-8,2.89-11h7.82A3.49,3.49,0,0,1,16.75,53.72Z"/><path class="cls-4" d="M68,37.41a23.44,23.44,0,0,0-2.34.72q-.12-1.43-.33-2.82a35.7,35.7,0,0,0-1.71-7.06c-.21-.56-.43-1.11-.67-1.64a21,21,0,0,0-1.44-2.69c-.21-.33-.44-.66-.67-1-.36-.5-.75-1-1.16-1.45l-.31-.33c-.21-.23-.44-.46-.66-.68a18.69,18.69,0,0,0-1.42-1.23l-.66-.51c-.39-.27-.78-.54-1.19-.79l-.67-.4a18,18,0,0,0-1.75-.9l-.66-.3c-.49-.2-1-.4-1.5-.57l-.67-.22c-.45-.14-.91-.26-1.38-.37L48.15,15,47,14.81l-.66-.1c-.41-.06-.82-.1-1.24-.14l-.67-.05h-.17l-.89,0h-.67c-.6,0-1.2,0-1.79.08l-.67.07c-.52.06-1,.13-1.52.23l-.67.14c-.48.11-1,.23-1.43.38-.22.06-.44.14-.66.21a14.1,14.1,0,0,0-1.64.68,6.77,6.77,0,0,0-.66.33c-.35.18-.68.38-1,.58s-.45.3-.67.47a11.46,11.46,0,0,0-1.72,1.53l-.13.14q-.28.33-.54.66a14.5,14.5,0,0,0-2.05,4.13c-.25.78-.47,1.58-.66,2.39s-.33,1.43-.49,2.15a28.12,28.12,0,0,1-1.65,5.65,10.38,10.38,0,0,1-.67,1.23,6.75,6.75,0,0,1-1.65,1.8,5.16,5.16,0,0,1-.67.44l-.35.18a5.67,5.67,0,0,1-1.55.49,4.9,4.9,0,0,1-.67.07A5.61,5.61,0,0,1,18,38.43a5,5,0,0,1-.67-.14,9.13,9.13,0,0,1-1.21-.42l-.66-.31a19.89,19.89,0,0,1-1.84-1.06L13,36.06l-.5-.33-1-.66-.67-.42a10.22,10.22,0,0,0-1.64-.84,6.3,6.3,0,0,0-.67-.2,3,3,0,0,0-1-.06,2.3,2.3,0,0,0-.67.18l-.09,0a3.46,3.46,0,0,0-1.15.92,6.58,6.58,0,0,0-.66,1,13.06,13.06,0,0,0-1.2,3c0,.16-.09.32-.13.49-.21.8-.39,1.64-.53,2.52a55.75,55.75,0,0,0-.7,8.48A91.41,91.41,0,0,0,2.87,61c.06.62.13,1.23.21,1.79a36.32,36.32,0,0,0,.66,3.85,4.14,4.14,0,0,0,.31.91.71.71,0,0,0-.31-.26.7.7,0,0,0-.37-.1L3.3,70a.83.83,0,0,1-.22,0c-1-.21-1.62-1.71-2.2-5.6a90.92,90.92,0,0,1-.86-11c0-.61,0-1.22,0-1.83,0-1.87.06-3.77.19-5.63.4-5.46,1.36-9.47,2.89-12a9,9,0,0,1,.66-1,6.07,6.07,0,0,1,1.2-1.18,3.93,3.93,0,0,1,.66-.43l.28-.14a4.55,4.55,0,0,1,1-.33,3.87,3.87,0,0,1,.67-.1,5,5,0,0,1,1,0,5.72,5.72,0,0,1,.67.14,8.3,8.3,0,0,1,1.64.64l.67.36c.5.29,1,.61,1.49.93l.66.45h0c.61.42,1.22.82,1.82,1.18.22.14.44.26.66.38a8.49,8.49,0,0,0,1.21.54,4.26,4.26,0,0,0,.67.2,4.18,4.18,0,0,0,1.16.1,3,3,0,0,0,.67-.11,3.15,3.15,0,0,0,.65-.23,3.8,3.8,0,0,0,1.25-1,5,5,0,0,0,.67-1A21.93,21.93,0,0,0,24.09,28s0,0,0-.06c.2-.91.4-1.86.65-2.81a21.78,21.78,0,0,1,2.14-5.59c.2-.35.43-.71.66-1.05a14.86,14.86,0,0,1,.94-1.19,14.53,14.53,0,0,1,1.11-1.11c.22-.2.44-.38.67-.56A15.92,15.92,0,0,1,32,14.44l.67-.37c.32-.18.66-.34,1-.5l.66-.29c.53-.21,1.08-.41,1.64-.58l.66-.2c.47-.13.95-.24,1.43-.34l.67-.13c.5-.08,1-.15,1.52-.21l.67-.06c.59,0,1.19-.07,1.79-.08h.67c.33,0,.67,0,1,0h.06l.67,0c.41,0,.82.08,1.24.13L47,12c.38.06.76.12,1.14.2l.66.14c.47.1.92.22,1.38.35l.67.2c.5.16,1,.33,1.5.52l.66.26c.6.25,1.19.52,1.75.81l.67.35c.4.22.8.46,1.19.7.22.14.44.28.66.44.49.32,1,.67,1.42,1,.22.18.45.37.66.56A19.32,19.32,0,0,1,60.84,19c.17.17.33.35.48.53s.13.14.19.2A21,21,0,0,1,63,21.54c.23.33.45.67.67,1a31.8,31.8,0,0,1,4,12.07C67.79,35.54,67.9,36.47,68,37.41Z"/><path class="cls-5" d="M76.22,28.34c.33-2.56-.23-4.57-1.13-5a1.19,1.19,0,0,0-1.46.51c-.49.79-.29,2.4.76,3.69"/><path class="cls-5" d="M83.92,29C82.39,27,80.5,25.07,79.59,22.9,81.23,21.55,85.5,30.94,83.92,29Z"/><path class="cls-6" d="M74,24.1c-1.25-.15-2.68,1.36-3.1,2.88-.57,2.05.69,4.2,2,5.39,1.9,1.75,3,.63,9.49,2.29,2.14.55,3.17,1,4,.36,1.54-1.12.71-4.43.62-4.77-.43-1.63-1.8-4.5-4.11-4.89C80.42,25,79,27.72,77,27,75.33,26.4,75.41,24.26,74,24.1Z"/><ellipse class="cls-7" cx="73.92" cy="32.63" rx="1.63" ry="1.92" transform="translate(23.81 96.02) rotate(-75.49)"/><ellipse class="cls-7" cx="81.7" cy="34.64" rx="1.63" ry="1.92" transform="translate(27.7 105.06) rotate(-75.49)"/><path class="cls-5" d="M57.67,32.15c-1.29-2.24-3-3.5-3.93-3.29a1.18,1.18,0,0,0-.85,1.28c.09.93,1.23,2.09,2.84,2.48"/><path class="cls-5" d="M64.21,28c-2.46-.72-5.12-1.07-7.15-2.26C57.54,23.71,66.62,28.59,64.21,28Z"/><path class="cls-6" d="M53.34,30.12c-1.08.63-1.3,2.71-.72,4.16.79,2,3.1,2.93,4.84,3.09,2.57.25,2.79-1.33,8.94-3.92,2-.86,3.12-1.15,3.41-2.15.54-1.82-2.12-3.95-2.4-4.17-1.33-1-4.16-2.5-6.23-1.4S59.52,30,57.46,30.62C55.79,31.15,54.56,29.4,53.34,30.12Z"/><ellipse class="cls-7" cx="58.44" cy="36.96" rx="1.92" ry="1.63" transform="translate(-9.76 25.54) rotate(-22.8)"/><ellipse class="cls-7" cx="65.85" cy="33.84" rx="1.92" ry="1.63" transform="translate(-7.97 28.17) rotate(-22.8)"/><path class="cls-5" d="M46.28,47.11c-2.49-.69-4.56-.41-5.1.43a1.18,1.18,0,0,0,.3,1.51c.72.59,2.34.61,3.75-.24"/><path class="cls-5" d="M48,39.57c-2.26,1.23-4.39,2.85-6.67,3.44C40.24,41.2,50.13,38.27,48,39.57Z"/><path class="cls-6" d="M41.77,48.71c-.31,1.22,1,2.84,2.43,3.47,2,.84,4.26-.11,5.61-1.22,2-1.64,1-2.92,3.58-9.09.84-2,1.4-3,.91-3.93-.91-1.67-4.29-1.3-4.64-1.26-1.68.2-4.71,1.16-5.41,3.4-.75,2.39,1.81,4.17.8,6.08C44.24,47.72,42.13,47.34,41.77,48.71Z"/><ellipse class="cls-7" cx="50.21" cy="49.97" rx="1.92" ry="1.63" transform="translate(-15.13 77.35) rotate(-67.59)"/><ellipse class="cls-7" cx="53.28" cy="42.54" rx="1.92" ry="1.63" transform="matrix(0.38, -0.92, 0.92, 0.38, -6.36, 75.58)"/><path class="cls-5" d="M93.11,36.51c2.25-1.28,3.51-2.95,3.3-3.92a1.18,1.18,0,0,0-1.28-.86c-.93.09-2.09,1.23-2.48,2.83"/><path class="cls-5" d="M97.22,43.06c.72-2.47,1.08-5.12,2.27-7.15C101.55,36.4,96.65,45.47,97.22,43.06Z"/><path class="cls-6" d="M95.16,32.18c-.64-1.08-2.71-1.31-4.17-.73-2,.79-2.93,3.1-3.1,4.84-.25,2.57,1.33,2.79,3.91,9,.85,2,1.14,3.11,2.14,3.41,1.82.54,4-2.11,4.17-2.39,1-1.33,2.5-4.15,1.41-6.23s-4.23-1.67-4.88-3.73C94.12,34.63,95.87,33.4,95.16,32.18Z"/><ellipse class="cls-7" cx="88.3" cy="37.27" rx="1.63" ry="1.92" transform="translate(-7.54 36.91) rotate(-22.67)"/><ellipse class="cls-7" cx="91.4" cy="44.68" rx="1.63" ry="1.92" transform="translate(-10.16 38.68) rotate(-22.67)"/><path class="cls-8" d="M91.42,51.39s-3.18-6.54-4.53-8.77c-2.32-3.83-7-6-12.73-6h-.35a24.58,24.58,0,0,0-5.81.79,23.44,23.44,0,0,0-2.34.72c-4.56,1.66-8.44,4.56-10.47,8.11-2.55,4.45-2,9.51-1.54,14,.43,4.09.84,7.95-1.63,10a4.4,4.4,0,0,1-3,1C44.83,71.31,39,66.45,32.34,61,24,54.17,14.63,46.42,9.45,49.82L9.19,50C5.53,52.74,5.22,60.44,5,65.09c0,1.09-.08,2-.15,2.72C4.71,69.3,4.17,70,3.3,70A43.88,43.88,0,0,1,2.66,65c0-1.17.1-2.52.21-3.93.29-3.75,1-8,2.89-11a8.79,8.79,0,0,1,2.53-2.62c6.48-4.25,16.11,3.68,25.42,11.35C40.65,64.44,47.83,70.36,50.63,68c1.26-1.07,1.07-3.51.66-7.42-.5-4.71-1.12-10.56,1.93-15.87,2.41-4.23,6.86-7.57,12.11-9.38.76-.26,1.53-.49,2.32-.68a26.61,26.61,0,0,1,6.13-.8h.39c6.55,0,11.89,2.61,14.66,7.18A20.85,20.85,0,0,1,91.42,51.39Z"/></svg>