<svg id="Layer_1" data-name="Layer 1" xmlns="http://www.w3.org/2000/svg" viewBox="0 0 100 100"><defs><style>.cls-1{fill:#009173;}.cls-2{fill:#09a481;}.cls-3{fill:#1e7a64;}.cls-4{fill:#979797;}.cls-5{fill:#b3b2b3;}.cls-6{fill:#cbcbca;}</style></defs><title>pencil sharpener</title><path class="cls-1" d="M83.62,68.51v30A1.59,1.59,0,0,1,82,100H18a1.59,1.59,0,0,1-1.66-1.48v-30Z"/><path class="cls-2" d="M83.61,6.06c-3.61,6.58-4.73,17-4.23,30.4.42,11.34.88,20.8,4.23,26.9v5.85c0,.64-.78,1.16-1.74,1.16H18.13c-1,0-1.75-.52-1.75-1.16V63.72c2.48-7.55,3.4-16.86,3.36-28.15,0-11-.92-20.8-3.36-28.21V1.15c0-.63.79-1.15,1.75-1.15H81.87c1,0,1.74.52,1.74,1.15Z"/><ellipse class="cls-3" cx="50" cy="85.99" rx="17.33" ry="11.79"/><path class="cls-3" d="M64.3,1.43V53.52a9.51,9.51,0,0,1-.46,2.93,11.14,11.14,0,0,1-3.08,4.73,13.76,13.76,0,0,1-2.35,1.74,15.89,15.89,0,0,1-1.75.88A16.48,16.48,0,0,1,52.43,65a17.27,17.27,0,0,1-2.29.15H44c-7.82,0-14.16-5.18-14.16-11.58V1.43A9.73,9.73,0,0,1,29.94,0H64.19A9.73,9.73,0,0,1,64.3,1.43Z"/><path class="cls-4" d="M61.26,1.43V53.52a10.13,10.13,0,0,1-.42,2.93A11.21,11.21,0,0,1,58,61.18a12.91,12.91,0,0,1-2.14,1.74,14.51,14.51,0,0,1-1.6.88A14,14,0,0,1,50.44,65a14.38,14.38,0,0,1-2.09.15H42.74c-7.13,0-12.91-5.18-12.91-11.58V1.43A9.73,9.73,0,0,1,29.93,0H61.16A9.73,9.73,0,0,1,61.26,1.43Z"/><path class="cls-5" d="M61.26,1.43V53.52a11.5,11.5,0,0,1-7,10.28V0h6.86A9.73,9.73,0,0,1,61.26,1.43Z"/><path class="cls-5" d="M55.9,62.92a14.51,14.51,0,0,1-1.6.88A14,14,0,0,1,50.44,65L29.83,44V36.46Z"/><path class="cls-5" d="M60.84,56.45A11.21,11.21,0,0,1,58,61.18L29.83,32.55V25Z"/><path class="cls-5" d="M61.26,28v7.57L29.83,3.67V1.43A9.73,9.73,0,0,1,29.93,0h3.74Z"/><ellipse class="cls-6" cx="42.86" cy="27.67" rx="11.36" ry="8.61"/><ellipse class="cls-4" cx="43.05" cy="26.43" rx="1.2" ry="6.14"/><ellipse class="cls-4" cx="42.86" cy="26.4" rx="6.85" ry="1.07"/></svg>