<svg id="Layer_1" data-name="Layer 1" xmlns="http://www.w3.org/2000/svg" viewBox="0 0 100 100"><defs><style>.cls-1{fill:#6ab7d8;}.cls-2{fill:#9dc7db;}.cls-3{fill:#09a481;}.cls-4{fill:#b0d4e0;}.cls-5{fill:#676767;}.cls-6{fill:#f05c37;}</style></defs><title>sewing machine</title><rect class="cls-1" x="89.47" y="20.92" width="10.53" height="21.23" rx="1.23" ry="1.23"/><rect class="cls-1" x="77.5" y="12.07" width="10" height="10" rx="1.39" ry="1.39"/><rect class="cls-1" x="88.65" y="12.07" width="4.23" height="10" rx="0.67" ry="0.67"/><path class="cls-2" d="M95.45,19.49V88.8a2.29,2.29,0,0,1-2.11,2.42H2.11A2.29,2.29,0,0,1,0,88.8V67.65a2.29,2.29,0,0,1,2.11-2.42H56.7V47.29H35.62s-5,5.85-6.22,5.85H9.16A2.29,2.29,0,0,1,7,50.72V19.49a2.29,2.29,0,0,1,2.12-2.42H93.34A2.29,2.29,0,0,1,95.45,19.49Z"/><path class="cls-1" d="M62.28,42.39V65.23H56.7V47.29H35.62s-5,5.85-6.22,5.85H9.16A2.29,2.29,0,0,1,7,50.72V42.39Z"/><path class="cls-3" d="M16.62,16.19l41.09-2.42"/><polygon class="cls-3" points="16.63 16.39 16.61 15.99 57.7 13.57 57.72 13.97 16.63 16.39"/><ellipse class="cls-1" cx="77.64" cy="49.3" rx="11.84" ry="11.75"/><ellipse class="cls-1" cx="40.49" cy="29.53" rx="6.89" ry="6.84"/><ellipse class="cls-4" cx="77.29" cy="48.9" rx="10.35" ry="10.28"/><ellipse class="cls-4" cx="40.49" cy="29.53" rx="6.06" ry="6.01"/><rect class="cls-5" x="15.91" y="15.46" width="1.41" height="43.7" rx="0.22" ry="0.22"/><path class="cls-5" d="M20.37,57.26H14.13C12.58,57.26,11,56,9.47,56a.4.4,0,0,1,0-.79c1.55,0,3.11,1.3,4.66,1.3h6.24a.36.36,0,0,1,.34.39A.37.37,0,0,1,20.37,57.26Z"/><rect class="cls-2" x="12.63" y="23.71" width="8.08" height="4.57"/><rect class="cls-2" x="12.57" y="31.17" width="8.08" height="4.57"/><ellipse class="cls-6" cx="11.22" cy="23.34" rx="2.38" ry="2.42"/><path class="cls-4" d="M95.45,65.23v3.55H0V67.65a2.29,2.29,0,0,1,2.11-2.42Z"/><rect class="cls-3" x="58.06" y="10.39" width="15.49" height="8.46"/><rect class="cls-1" x="72.67" y="8.78" width="1.76" height="11.69" rx="0.28" ry="0.28"/><path class="cls-1" d="M58.06,20.47a1,1,0,0,1-.88-1V9.79a.89.89,0,1,1,1.76,0v9.67A1,1,0,0,1,58.06,20.47Z"/><rect class="cls-5" x="17.29" y="53.71" width="1" height="1.92" rx="0.16" ry="0.16"/><path class="cls-1" d="M95.45,86V88.8a2.29,2.29,0,0,1-2.11,2.42H2.11A2.29,2.29,0,0,1,0,88.8V86Z"/></svg>