<svg id="Layer_1" data-name="Layer 1" xmlns="http://www.w3.org/2000/svg" viewBox="0 0 100 100"><defs><style>.cls-1{fill:#676767;}.cls-2{fill:#544741;}.cls-3{fill:#171717;}.cls-4{fill:#9dc7db;}.cls-5{fill:#eaf6fd;}.cls-6{fill:#6ab7d8;}.cls-7{fill:#fcca97;}.cls-8{fill:#714d49;}.cls-9{fill:#979797;}</style></defs><title>don quixote</title><path class="cls-1" d="M76.3,20.74l-.21.54-1.3-.5c-.25-.36-.49-.74-.72-1.15a21.16,21.16,0,0,1-1.31-2.75l.85-2.18,3.17,1.23a49.09,49.09,0,0,1,2-6.67,51.1,51.1,0,0,1,3.59-7.68L79.17.35h0L78.73.18h0L78.26,0,72.7,14.35l.47.18-.66,1.7a23.26,23.26,0,0,1-.74-2.55,24.64,24.64,0,0,1-2.24,5.06l-3.07-1.19,1.22-3.14a63.55,63.55,0,0,1-7-2.17,60.27,60.27,0,0,1-7.39-3.4l-1.26,3.25-.13.33h0l-.19.5L66.1,18.48l.19-.49,3,1.16-.06.11A20.4,20.4,0,0,1,66.32,23l-.19-.07-.09.35c-.4.38-.77.72-1.11,1h.86c-.46,1.72-1,3.56-1.76,5.51a59.4,59.4,0,0,1-3.46,7.5l3.33,1.29c-.4,1.82-.82,3.57-1.27,5.2H79.42a119.94,119.94,0,0,1-2.16-13.19c-.19-1.8-.32-3.53-.43-5.22a49.59,49.59,0,0,1,12.24,5.05l1.58-4.07Zm-.38,1-.15.4c-.17-.21-.33-.42-.5-.65Z"/><path class="cls-1" d="M55.92,24.91a28.91,28.91,0,0,1,3.64-1.58,29.2,29.2,0,0,1,4.68-1.25l-.63-1.84h0l0-.09-.15-.43-8.32,2.83.1.27-1.5.51a12.9,12.9,0,0,1-1-2.77l.55-.19a36.06,36.06,0,0,1-1.59-3.84,33.78,33.78,0,0,1-1.23-4.48l-1.83.62h0l-.12,0-.42.14,2.83,8.32.29-.1.57,1.68c-.15.3-.32.6-.51.91s-.31.45-.46.67l-1.16.39L49,22.81a33.74,33.74,0,0,1-3.77,1.59,32.4,32.4,0,0,1-4.55,1.23l.8,2.37,8.32-2.83L49.7,25l.8-.27a10.81,10.81,0,0,1-1.73,1.8h.63c-.09,1.1-.21,2.25-.38,3.45a59.64,59.64,0,0,1-1.57,7.69H57a68.5,68.5,0,0,1-1.23-7.53c-.13-1.25-.23-2.45-.29-3.61h.59A10.26,10.26,0,0,1,54,23.87l-.15-.3,1.46-.5ZM51.42,21l1.21-.41a13.05,13.05,0,0,1-.73,1.83Z"/><path class="cls-1" d="M37.9,29a7.15,7.15,0,0,1-1.43-1.78c-.12-.22-.23-.43-.33-.64l.75-.78.92.89a19,19,0,0,1,2.07-2.49,20.53,20.53,0,0,1,2-1.79L41,21.51h0l0,0-.26-.26L36.6,25.5l.16.16-.69.71a9.22,9.22,0,0,1-.49-1.46A9.44,9.44,0,0,1,35,26.44l-.91-.88.91-.94a18.88,18.88,0,0,1-2.08-1.69,20.07,20.07,0,0,1-2.2-2.41l-.9.94h0l-.13.13h0l-.13.14,4.27,4.1.13-.14.95.91c-.08.15-.16.3-.26.46a7.09,7.09,0,0,1-.9,1.19l-.64-.62a22.71,22.71,0,0,1-1.81,2.14A21.72,21.72,0,0,1,29,31.9l1.22,1.16,3.11-3.23c0,.48-.09,1-.16,1.47a42,42,0,0,1-1.06,5.18h6.46a47.32,47.32,0,0,1-.83-5.08c0-.16,0-.31,0-.48l.31.28a20.14,20.14,0,0,1,2.15,2.34l1.17-1.22L37.8,29Z"/><path class="cls-2" d="M38.41,59.6l.36-1a15.64,15.64,0,0,1,10,12l-1,.19A14.58,14.58,0,0,0,38.41,59.6Z"/><path class="cls-1" d="M44.26,69c0-1.39-1.48-1.57-3.59-4.51C37.39,60,38.44,56.79,36.43,56c-2.54-1-7.71,2.61-9.08,7.57-1,3.63-.05,8.38,3.13,10.36C35.8,77.22,44.16,72.27,44.26,69Z"/><path class="cls-3" d="M31,80.52A7.37,7.37,0,0,0,30.79,79a9.69,9.69,0,0,0-.53-1.51A8.35,8.35,0,0,0,29.42,76a5.8,5.8,0,0,0-1.29-1.28A4.39,4.39,0,0,0,26.18,74a4.28,4.28,0,0,0-2.17.3,3.35,3.35,0,0,0-.47.21l-.44.25a8.72,8.72,0,0,0-.73.51,6.83,6.83,0,0,0-1.32,1.36,5.89,5.89,0,0,0-.89,1.77,6.62,6.62,0,0,0-.28,1.86A13.1,13.1,0,0,0,20,81.86,9.32,9.32,0,0,1,20.05,83a2.27,2.27,0,0,1,0,.28s0,0,0,.06a.11.11,0,0,1,0,0,.43.43,0,0,1,0,.05s0,0,0,0,0,.1-.14.14a.86.86,0,0,1-.42,0,2.33,2.33,0,0,1-1-.58,1.66,1.66,0,0,1-.38-.49.73.73,0,0,1,0-.66.84.84,0,0,0-.34.26,1.2,1.2,0,0,0-.17.42,2,2,0,0,0,.06.91,3.17,3.17,0,0,0,1,1.53,2.55,2.55,0,0,0,1,.5,2.24,2.24,0,0,0,1.3,0,2.37,2.37,0,0,0,.32-.14,1.89,1.89,0,0,0,.28-.17,2.73,2.73,0,0,0,.25-.2L22,84.7a3.23,3.23,0,0,0,.61-1,7.51,7.51,0,0,0,.32-1.82c0-.52.06-1,.12-1.37a4,4,0,0,1,.71-1.91,4.72,4.72,0,0,1,.72-.78c.14-.13.31-.25.46-.38l.19-.14.19-.11a2,2,0,0,1,.72-.26,1.73,1.73,0,0,1,.86.12A6.87,6.87,0,0,1,29,78.39C29.65,79,30.33,79.75,31,80.52Z"/><polygon class="cls-4" points="36.3 78.88 42.29 81.01 35.88 93.25 34.27 91.87 36.3 78.88"/><polygon class="cls-5" points="30.13 78.88 36.11 81.01 29.7 93.25 28.09 91.87 30.13 78.88"/><path class="cls-5" d="M40.54,87.8c8.55,0,13.35-2.47,14-2.83L48.86,74.65l.1-.06c-.21.11-5.4,2.62-15.52.74a5.89,5.89,0,1,0-2.16,11.58A50.84,50.84,0,0,0,40.54,87.8Z"/><path class="cls-1" d="M43.41,68.33c1.76.8,4.11,2.75,3.93,4.88C47,77.4,36.86,81.82,31.8,78.38c-.42-.28-2.16-1.46-2.24-3.21C29.4,71.24,37.69,65.72,43.41,68.33Z"/><polygon class="cls-4" points="56.14 77.24 53.4 96.47 49.78 77.24 56.14 77.24"/><polygon class="cls-4" points="54.16 94.15 53.42 99.18 52.44 94.15 54.16 94.15"/><rect class="cls-4" x="52.3" y="92.06" width="2.19" height="1.44" rx="0.27" ry="0.27" transform="translate(106.79 185.55) rotate(180)"/><rect class="cls-4" x="52.3" y="93.02" width="2.19" height="1.44" rx="0.27" ry="0.27" transform="translate(106.79 187.49) rotate(-180)"/><polygon class="cls-4" points="36.47 93.38 37.38 98.38 34.84 93.93 36.47 93.38"/><rect class="cls-4" x="34.21" y="91.6" width="2.19" height="1.44" rx="0.27" ry="0.27" transform="translate(98.37 168.43) rotate(161.28)"/><rect class="cls-4" x="34.52" y="92.52" width="2.19" height="1.44" rx="0.27" ry="0.27" transform="translate(99.27 170.11) rotate(161.28)"/><path class="cls-3" d="M50,56.24V74.49l-8.08,2,2.31-14.42S45.42,55.13,50,56.24Z"/><path class="cls-5" d="M61.33,60.26l-6.42-2.73,0,0a11.28,11.28,0,0,0-1.39-.71,7.68,7.68,0,0,0-1.73-.52l-.25-.05-.28,0a5.34,5.34,0,0,0-.58,0h-.31l-.33,0-.35.06-.35.09a4.53,4.53,0,0,0-.74.29l-.37.2-.36.24-.33.27-.32.3c-.1.1-.18.21-.27.31a3.59,3.59,0,0,0-.25.33c-.07.11-.15.22-.21.33l-.1.17-.09.16a5.1,5.1,0,0,0-.29.64c-.07.2-.16.42-.21.6l-.08.29,0,.15,0,.14a11.94,11.94,0,0,0-.26,2,23.51,23.51,0,0,0,.12,3.32c.11,1,.26,2,.44,3l.16,1.22c.06.4.09.8.13,1.19l.06.59,0,.54a8.52,8.52,0,0,0-1.8,16.27l.14,0,.07,0h0l.14,0,.24.06.22.06.2,0,.78.15.78.1.39,0,.41,0a13.27,13.27,0,0,0,3.73-.32,4.81,4.81,0,0,0,.54-.14l.54-.17.27-.09.29-.11.56-.25.27-.13.29-.15c.19-.1.37-.21.55-.32A9.77,9.77,0,0,0,56,87.09a10,10,0,0,0,2.89-3.78A10.5,10.5,0,0,0,59.73,80c0-.24,0-.47.06-.71s0-.42,0-.62v-.62c0-.2,0-.37-.06-.56a17.86,17.86,0,0,0-.34-2l-.24-.88c0-.14-.08-.3-.12-.43l-.14-.4-.28-.8-.29-.75c-.11-.24-.2-.5-.31-.73l-.32-.7c-.21-.47-.44-.91-.66-1.34l-.34-.66-.35-.63c-.24-.42-.47-.85-.71-1.25l-.73-1.2c-.38-.57-.74-1.14-1.08-1.7l4.54,1.93L62,63.68Z"/><path class="cls-4" d="M50,56.41a1.1,1.1,0,0,0,2.2,0,25.42,25.42,0,0,0-1.1-3.54A25.42,25.42,0,0,0,50,56.41Z"/><circle class="cls-6" cx="48.63" cy="60.01" r="0.37"/><path class="cls-3" d="M49.27,56.12s3.36-.68,5.28.7L51,58.31s-2.14-1.17-3.26-.7c-.06,0-2.12,2-2.18,2-1.18.62.77-1.66.77-1.66Z"/><path class="cls-5" d="M47.07,57.41a1.1,1.1,0,0,0,2.2,0,25.18,25.18,0,0,0-1.1-3.55A25.18,25.18,0,0,0,47.07,57.41Z"/><polygon class="cls-5" points="49.97 76.83 47.23 96.07 43.61 76.83 49.97 76.83"/><polygon class="cls-5" points="47.99 93.74 47.25 98.77 46.27 93.74 47.99 93.74"/><rect class="cls-5" x="46.13" y="91.65" width="2.19" height="1.44" rx="0.27" ry="0.27" transform="translate(94.45 184.74) rotate(180)"/><rect class="cls-5" x="45.04" y="74.98" width="2.19" height="1.44" rx="0.27" ry="0.27" transform="translate(92.26 151.39) rotate(180)"/><rect class="cls-5" x="46.13" y="92.62" width="2.19" height="1.44" rx="0.27" ry="0.27" transform="translate(94.45 186.67) rotate(-180)"/><polygon class="cls-3" points="55.76 100 51.47 100 53.61 97.13 55.76 100"/><polygon class="cls-3" points="49.37 100 45.08 100 47.23 97.13 49.37 100"/><polygon class="cls-3" points="39.22 100 34.93 100 37.08 97.13 39.22 100"/><polygon class="cls-5" points="30.29 93.38 31.2 98.38 28.66 93.93 30.29 93.38"/><rect class="cls-5" x="28.03" y="91.6" width="2.19" height="1.44" rx="0.27" ry="0.27" transform="translate(86.34 170.41) rotate(161.28)"/><rect class="cls-5" x="28.34" y="92.52" width="2.19" height="1.44" rx="0.27" ry="0.27" transform="translate(87.24 172.1) rotate(161.28)"/><polygon class="cls-3" points="33.04 100 28.75 100 30.9 97.13 33.04 100"/><circle class="cls-4" cx="29.05" cy="79.75" r="0.69"/><circle class="cls-4" cx="32.46" cy="79.74" r="0.26"/><path class="cls-1" d="M35.79,42c-2.61-.51-4.9,3.16-5.31,3.81a9.63,9.63,0,0,0-1.3,6.35c.17,1.3.48,3.69,2.3,5.07,2.93,2.21,8.87,1.13,10-2.36.63-2-.36-4.37-2.23-6.17C39.54,45.21,37.8,42.44,35.79,42Z"/><path class="cls-7" d="M35.63,44.71c-2-.38-3.69,2.37-4,2.86a7.28,7.28,0,0,0-1,4.77,5.42,5.42,0,0,0,1.73,3.81c2.2,1.66,6.67.86,7.51-1.77.48-1.48-.27-3.29-1.67-4.64C38.45,47.09,37.14,45,35.63,44.71Z"/><path class="cls-1" d="M35.3,59.73c0-1.51,3.89-2.08,7.51-2.32-1.19,3.46-3.67,5-5.61,4.29C36.37,61.38,35.3,60.52,35.3,59.73Z"/><path class="cls-1" d="M32,60.18c-.13-1.59-4.59-2.53-8.73-3.11,1.66,3.77,4.61,5.63,6.74,5C30.93,61.84,32.07,61,32,60.18Z"/><circle class="cls-8" cx="36.89" cy="49.82" r="0.26"/><circle class="cls-8" cx="32.72" cy="50.02" r="0.26"/><path class="cls-8" d="M36.85,51.63a1.79,1.79,0,0,0-2.05-.4,2.81,2.81,0,0,0-1.54,2.55,3.66,3.66,0,0,0,2,3.19c-.48-2-.22-2.66.14-2.92s.75,0,1.18-.37A1.61,1.61,0,0,0,36.85,51.63Z"/><path class="cls-8" d="M36.52,51.54a1.8,1.8,0,0,1,1.94-.77,2.79,2.79,0,0,1,2,2.24,3.66,3.66,0,0,1-1.35,3.49c.11-2-.27-2.66-.67-2.85s-.75.1-1.23-.15A1.61,1.61,0,0,1,36.52,51.54Z"/><path class="cls-2" d="M30.28,89.17l-1.05.2a15.67,15.67,0,0,1,5.05-14.78l.7.8a14.63,14.63,0,0,0-4.7,13.78Z"/><path class="cls-1" d="M23.38,92.18c4.09.39,5.5-1.22,8.6-.48.83.2,1.27.44,1.46.23.5-.56-1-3.7-3.44-4.37-1.2-.34-2.7.36-5.68,1.75-1.81.84-3.37,1.58-3.26,2.15S22.52,92.1,23.38,92.18Z"/><path class="cls-1" d="M29.89,88.14c-1.19.37-2.68-1.2-2.49-1.77.11-.35.77-.17,2.06-.76.94-.43,1.16-.79,1.37-.67C31.33,85.22,31.19,87.74,29.89,88.14Z"/><path class="cls-2" d="M24.52,68.2a1.15,1.15,0,0,1-.46-.1c-.93-.45-1.49-2.17,1.31-11.63l.9.26a59.47,59.47,0,0,0-1.91,7.88c-.34,2.4.1,2.64.1,2.64s.86.33,4.42-4.38l.75.56C26.69,67.31,25.33,68.2,24.52,68.2Z"/><polygon class="cls-9" points="9.35 8.1 23.31 56.84 26.12 55.9 9.35 8.1"/><polygon class="cls-9" points="24.73 55.68 26.4 67.45 29.21 66.52 24.73 55.68"/><path class="cls-9" d="M29.53,57.78c-.08.64-1.5,0-4,.88s-3.44,2.23-3.9,1.76c-.7-.72-.09-5.2,2.4-6S29.66,56.79,29.53,57.78Z"/><ellipse class="cls-9" cx="23.71" cy="53.65" rx="3.96" ry="0.92" transform="translate(-11.91 7.05) rotate(-13.55)"/><path class="cls-4" d="M61.87,60.49a3.13,3.13,0,0,1,1.64,4.09l-.06.15a3.11,3.11,0,0,1-4.09,1.64l-1-.43,3-5.68Z"/><circle class="cls-4" cx="62.78" cy="61.05" r="1.22"/><circle class="cls-4" cx="61.05" cy="62.26" r="1.22"/><circle class="cls-6" cx="61.42" cy="62.26" r="0.37"/></svg>