<svg id="Layer_1" data-name="Layer 1" xmlns="http://www.w3.org/2000/svg" viewBox="0 0 100 100"><defs><style>.cls-1{fill:#676767;}.cls-2{fill:gray;}.cls-3{fill:#4d4e4e;}.cls-4{fill:#979797;}.cls-5{fill:#b3b2b3;}</style></defs><title>safe</title><rect class="cls-1" x="2.98" width="94.03" height="88.54" rx="5.2" ry="5.2"/><path class="cls-2" d="M57,5.3H22.65A13.86,13.86,0,0,0,8.83,18.59a3.51,3.51,0,0,0,0,.56V69.4A13.89,13.89,0,0,0,22.65,83.24H77.49A13.89,13.89,0,0,0,91.34,69.4V19.15c0-.25,0-.48,0-.72A13.37,13.37,0,0,0,90,13.32l0,0a13.62,13.62,0,0,0-3.87-4.93,13.79,13.79,0,0,0-8.65-3H57Z"/><path class="cls-1" d="M24.08,98.6H19.43a1,1,0,0,1-1-.76L16.32,85.56c-.21-1.23.29-2.32,1.13-2.32h8.61c.84,0,1.34,1.09,1.12,2.32L25,97.84A1,1,0,0,1,24.08,98.6Z"/><path class="cls-1" d="M80.29,100H75.63a1,1,0,0,1-1-.76L72.53,87c-.21-1.24.29-2.32,1.13-2.32h8.61c.84,0,1.34,1.08,1.12,2.32L81.25,99.24A1,1,0,0,1,80.29,100Z"/><ellipse class="cls-3" cx="50" cy="28.5" rx="10.98" ry="9.91"/><circle class="cls-2" cx="50" cy="28.5" r="8.7"/><path class="cls-4" d="M60,83.24,8.83,18.59a3.51,3.51,0,0,0,0,.56V33.67L48,83.24Z"/><polygon class="cls-4" points="42.6 83.24 36.3 83.24 8.8 48.48 8.8 40.53 42.6 83.24"/><polygon class="cls-4" points="68.38 5.3 91.34 34.54 91.34 49.1 56.96 5.3 68.38 5.3"/><polygon class="cls-4" points="73.79 5.3 91.34 27.66 91.34 31.13 71.06 5.3 73.79 5.3"/><path class="cls-4" d="M91.32,18.43,81.48,5.89a13.91,13.91,0,0,1,4.66,2.46L90,13.28l0,0Z"/><circle class="cls-4" cx="71.3" cy="61.84" r="5.51"/><rect class="cls-4" x="59.66" y="64.94" width="12.38" height="3.39" rx="0.64" ry="0.64" transform="translate(-27.83 66.08) rotate(-45)"/><rect class="cls-4" x="73.07" y="63.14" width="12.38" height="3.39" rx="0.64" ry="0.64" transform="translate(115.47 160.6) rotate(-150)"/><rect class="cls-4" x="63.48" y="51.94" width="12.38" height="3.39" rx="0.64" ry="0.64" transform="translate(33.84 133.93) rotate(-103.55)"/><ellipse class="cls-5" cx="68.28" cy="48.66" rx="0.96" ry="0.56" transform="translate(-11.97 24.39) rotate(-18.65)"/><ellipse class="cls-5" cx="62.47" cy="68.88" rx="1.44" ry="0.56" transform="translate(-30.52 68.85) rotate(-47.78)"/><ellipse class="cls-5" cx="77.96" cy="63.13" rx="0.56" ry="1.44" transform="translate(-18.37 91.12) rotate(-55.2)"/><ellipse class="cls-5" cx="69.1" cy="58.97" rx="1.44" ry="0.56" transform="translate(-21.46 66.13) rotate(-45)"/><ellipse class="cls-5" cx="44.8" cy="22.93" rx="1.44" ry="0.56" transform="translate(-3.09 38.4) rotate(-45)"/></svg>