<svg id="Layer_1" data-name="Layer 1" xmlns="http://www.w3.org/2000/svg" viewBox="0 0 100 100"><defs><style>.cls-1{fill:#f27d3b;}.cls-2{fill:#9dc7db;}.cls-3{fill:#f05c37;}.cls-4{fill:#09a481;}.cls-5{fill:#eaf6fd;}.cls-6{fill:#fff;}.cls-7{fill:#6ab7d8;}.cls-8{fill:#ffc540;}</style></defs><title>sprinkles</title><rect class="cls-1" x="33.85" y="2.93" width="32.8" height="12.33" rx="1.84" ry="1.84" transform="translate(2.39 -8.72) rotate(10.16)"/><rect class="cls-2" x="2.41" y="45.1" width="32.8" height="12.33" rx="1.84" ry="1.84" transform="translate(28.15 -2.54) rotate(30)"/><rect class="cls-3" x="-0.38" y="8.74" width="32.8" height="12.33" rx="1.84" ry="1.84" transform="translate(19.56 36.49) rotate(-142.26)"/><rect class="cls-4" x="19.92" y="25.48" width="32.8" height="12.33" rx="1.84" ry="1.84" transform="matrix(0.87, -0.5, 0.5, 0.87, -10.95, 22.4)"/><rect class="cls-5" x="38.72" y="44.32" width="32.8" height="12.33" rx="1.84" ry="1.84" transform="translate(0.07 101.05) rotate(-85.05)"/><rect class="cls-6" x="66.66" y="84.75" width="32.8" height="12.33" rx="1.84" ry="1.84" transform="translate(17.33 -13.22) rotate(10.16)"/><rect class="cls-1" x="6.35" y="75.82" width="32.8" height="12.33" rx="1.84" ry="1.84" transform="translate(64.63 7.93) rotate(45)"/><rect class="cls-4" x="66.08" y="45.1" width="32.8" height="12.33" rx="1.84" ry="1.84" transform="translate(116.33 142.28) rotate(-142.26)"/><rect class="cls-7" x="48.41" y="67.93" width="32.8" height="12.33" rx="1.84" ry="1.84" transform="translate(-28.37 42.33) rotate(-30)"/><rect class="cls-8" x="70.21" y="13.75" width="32.8" height="12.33" rx="1.84" ry="1.84" transform="translate(81.47 108.62) rotate(-99.63)"/></svg>