<svg id="Layer_1" data-name="Layer 1" xmlns="http://www.w3.org/2000/svg" viewBox="0 0 100 100"><defs><style>.cls-1{fill:gray;}.cls-2{fill:#979797;}.cls-3{fill:#b3b2b3;}.cls-4{fill:#cbcbca;}</style></defs><title>chain</title><path class="cls-1" d="M4.33,38.83C-3.9,44.75,1.19,52,6.54,59.4s9.69,13.5,18,7.55,3.95-12-1.4-19.45S12.62,32.88,4.33,38.83ZM21.18,62.52c-3.76,2.71-6.61-1.26-10.12-6.15S4.2,46.76,7.94,44.07s7.14,2,10.65,6.89S25,59.82,21.18,62.52Z"/><path class="cls-1" d="M67.39,24.89c-8.09-6.1-13.45.91-19,8.24s-10,13.27-1.85,19.41,12.63.2,18.15-7.13S75.55,31,67.39,24.89ZM49.8,48c-3.7-2.8-.76-6.69,2.86-11.5s7.13-9.42,10.81-6.64.22,7.41-3.4,12.22S53.51,50.83,49.8,48Z"/><path class="cls-1" d="M89.67,45.78c-10.14.07-10.15,8.89-10.09,18.07s.11,16.61,10.32,16.54,10.15-7.5,10.09-16.68S99.87,45.71,89.67,45.78Zm.06,29.07C85.1,74.88,85.06,70,85,64s0-11.81,4.56-11.84,4.68,5.76,4.72,11.78S94.37,74.82,89.73,74.85Z"/><path class="cls-1" d="M48.8,20.31c-2.91-9.72-11.37-7.25-20.17-4.62s-15.92,4.76-13,14.54,10.05,7.64,18.84,5S51.72,30.08,48.8,20.31ZM20.91,28.52C19.58,24.07,24.26,22.68,30,21S41.35,17.59,42.67,22s-4.21,6.1-10,7.83S22.24,33,20.91,28.52Z"/><path class="cls-1" d="M73.79,81.64c5.15-8.73-2.41-13.27-10.31-17.93s-14.32-8.44-19.5.35,1.22,12.57,9.13,17.23S68.61,90.43,73.79,81.64Zm-25-14.87c2.35-4,6.56-1.52,11.75,1.54s10.15,6,7.81,10-7.34,1-12.53-2S46.46,70.77,48.82,66.77Z"/><path class="cls-2" d="M21.31,39.77C16,47.26,11.72,53.34,7.74,50.52s.31-8.89,5.61-16.38S23.77,19.47,27.73,22.26,26.61,32.28,21.31,39.77Z"/><path class="cls-3" d="M19.91,22.65c-1.26.59-2.28,1.06-2.74.08s.57-1.45,1.83-2,2.46-1.14,2.92-.17S21.17,22.07,19.91,22.65Z"/><path class="cls-4" d="M17.05,35.13c-1.6,2.32-2.89,4.19-3.78,3.58s.4-2.49,2-4.81,3.13-4.54,4-3.93S18.64,32.81,17.05,35.13Z"/><path class="cls-3" d="M44.94,45.68c0,1,0,1.78-1.1,1.77s-1.07-.81-1.06-1.79,0-1.93,1.1-1.92S45,44.69,44.94,45.68Z"/><path class="cls-3" d="M45.58,70.11c0,1,0,1.78-1.1,1.77s-1.07-.81-1.06-1.79,0-1.92,1.1-1.91S45.59,69.13,45.58,70.11Z"/><path class="cls-3" d="M4.54,44C3.75,45.09,3.11,46,2.22,45.4s-.25-1.55.54-2.69,1.56-2.23,2.44-1.62S5.33,42.81,4.54,44Z"/><path class="cls-3" d="M86.54,49.49c-1.19.72-2.15,1.3-2.71.37s.41-1.5,1.59-2.22,2.34-1.4,2.89-.48S87.73,48.78,86.54,49.49Z"/><path class="cls-2" d="M57.16,57.18c0,9.17,0,16.61-4.87,16.61s-4.88-7.44-4.88-16.61,0-18,4.88-18S57.16,48,57.16,57.18Z"/><path class="cls-2" d="M77.24,79.37c-8.95,2-16.2,3.71-17.29-1s6.17-6.41,15.11-8.46,17.55-4,18.63.74S86.19,77.33,77.24,79.37Z"/><path class="cls-2" d="M46.93,32c-8.5-3.47-15.39-6.28-13.55-10.79s8.73-1.71,17.23,1.76,16.65,6.82,14.82,11.3S55.43,35.43,46.93,32Z"/><path class="cls-4" d="M51,54.8c-.11,2.81-.2,5.09-1.28,5.05s-1-2.32-.88-5.13.23-5.51,1.3-5.47S51.15,52,51,54.8Z"/><path class="cls-4" d="M68,75.62c-2.71.74-4.91,1.33-5.2.29s1.92-1.64,4.64-2.37,5.32-1.43,5.6-.4S70.67,74.89,68,75.62Z"/><path class="cls-4" d="M39.29,22.45c-1.79-.37-3.23-.68-3.06-1.5s1.62-.52,3.41-.14,3.5.74,3.33,1.56S41.08,22.83,39.29,22.45Z"/></svg>