<svg id="Layer_1" data-name="Layer 1" xmlns="http://www.w3.org/2000/svg" viewBox="0 0 100 100"><defs><style>.cls-1{fill:#3f3f40;}.cls-2{fill:#6d4945;}.cls-3{fill:#f27d3b;}.cls-4{fill:#ffc540;}.cls-5{fill:#885e59;}</style></defs><title>smoke signal</title><path class="cls-1" d="M37.78,55c-.71-3.25-3.5-5-8.87-8.4C15.09,38,13.5,37.28,13.25,35.31c-.53-4.33,6.16-8.43,8.89-10.11,2.38-1.46,7.19-4.4,13.36-3.44,1.65.25,5.71.89,8.51,4.19,4.5,5.29,2.3,13.43,2,14.42-1.27,4.45-3.45,5.45-2.71,7.87.92,3,4.71,2.77,6.62,6.9.27.58,1.6,3.47.3,5.4-1.53,2.25-5.58,1.63-6.49,1.49a7.06,7.06,0,0,1-4.33-1.91C37.93,58.52,38.15,56.66,37.78,55Z"/><path class="cls-2" d="M27.93,87.39,72.8,96.16a.26.26,0,0,1,.21.26l-.32,2.4a.25.25,0,0,1-.27.2L26.81,95.81c-1.17-.08-2.12-.46-2.07-.82l1-7.35C25.76,87.28,26.77,87.17,27.93,87.39Z"/><path class="cls-3" d="M53.63,94.19C59.36,92,64.57,86.89,65,80.37c1-15-26.16-27.06-24.4-25.58,3.91,3.29,3.31,6.4,2.12,9.48-1.78,4.58-4.43,3.9-9.29,9.38-2.87,3.24-3.31,7.72-2.21,11.63C33.48,93.42,44.2,97.85,53.63,94.19Z"/><path class="cls-4" d="M40.08,83.67c1.3-2.16,4.21-1,7.06-2.79a11.08,11.08,0,0,0,5.42-9.83c0-2.33,6.8,6,5.42,11.72a9.61,9.61,0,0,1-2.52,4.41c-4.37,4.35-12.81,4.44-15.13,1A4.47,4.47,0,0,1,40.08,83.67Z"/><path class="cls-4" d="M42.83,77.86c.16-1,2.49-.59,3.3-1.67,1.3-1.73-.06-3.86-.48-4.92-.34-.87,3.45,1.25,3.77,3.61a3.83,3.83,0,0,1-.29,2c-1,2.29-4.16,3.56-5.54,2.62A1.81,1.81,0,0,1,42.83,77.86Z"/><path class="cls-5" d="M67.06,100l-37.64-.89c-.11,0-.2-.14-.22-.3L29,95.61c0-.16.07-.3.17-.32l37.08-6.54c1-.17,1.79.09,1.83.58l.74,9.82C68.82,99.64,68,100,67.06,100Z"/><path class="cls-1" d="M85.34,38.07c-2.24,2.53-5.8,2.71-7,2.77-.78,0-8.36.29-12.43-5.56-2.64-3.8-3.51-9.74-1.32-11.27s7.33.9,10.15,4.16c1.8,2.09,7,3.81,9.85,4.86a3.15,3.15,0,0,1,2,1.49C87.21,36,85.67,37.69,85.34,38.07Z"/><path class="cls-1" d="M66.2,4.48C69,8,68.64,12.57,68.55,13.74c-.13,1.72-.49,6.6-3.17,7.73-3.35,1.41-5.82-4.9-12.45-6-7.68-1.25-11.28,6.08-17.54,3.86-3.65-1.29-6.82-5.32-6.18-8.55.2-1,.81-2.57,4.62-5.11A30.43,30.43,0,0,1,50.82,0C55.92-.07,62.46-.2,66.2,4.48Z"/></svg>