<svg id="Layer_1" data-name="Layer 1" xmlns="http://www.w3.org/2000/svg" viewBox="0 0 100 100"><defs><style>.cls-1{fill:#885e59;}.cls-2{fill:#b67c77;}</style></defs><title>lasso</title><path class="cls-1" d="M14.63,40a21.63,21.63,0,0,0,1.67,4.4,18.45,18.45,0,0,0,3.65,5,4.59,4.59,0,0,1,.58,1.88,1.82,1.82,0,0,1-.39,1.4l-4.08,4c-.59.58-1.63.06-2.32-1.16a20.68,20.68,0,0,0-1.12-3.29,18.48,18.48,0,0,0-4.21-6.12,4.64,4.64,0,0,1-.57-1.88,1.82,1.82,0,0,1,.38-1.4l4.08-4.05C12.89,38.21,13.94,38.73,14.63,40Z"/><path class="cls-1" d="M98.66,17.73a13.44,13.44,0,0,0-8.34-7.82C83.45,7.79,72.1,14.68,58.78,23.49l-.05,0-1.25-.83h0c-.82-.55-1.64-1.12-2.47-1.72C45.17,13.87,36.5,8.72,29.23,5.64,19.31,1.45,12.07,1.06,7.07,4.47,3.63,6.82,1.38,10.89.39,16.56A28.21,28.21,0,0,0,0,21.37V22A55.79,55.79,0,0,0,2,35.69c.2.76.46,1.62.76,2.54C4.26,42.73,6.89,48.63,11,51a11.61,11.61,0,0,0,5.91,1.46c3.83,0,8.54-1.4,14.38-4.25C39,44.43,47.72,38.63,56.14,33l2.64-1.75A63.77,63.77,0,0,0,67.88,36c.81.33,1.61.64,2.4.91,8,2.77,15.08,2.69,21.18-.22,4.92-2.34,7.64-5.55,8.34-9.8a16.23,16.23,0,0,0,.2-2.51A16.64,16.64,0,0,0,98.66,17.73ZM87.52,16.59a6.07,6.07,0,0,1,1.82.25,8.38,8.38,0,0,1,5.28,4.68,6.6,6.6,0,0,1,.52,3.66c-.06.41-.63,2.57-5.14,4.73a19.91,19.91,0,0,1-8.69,1.9Q74,31.81,65,27.18C74,21.36,82.41,16.59,87.52,16.59ZM29.78,41.48c-8,3.88-13.69,4.85-17.06,2.91C7.7,41.5,4.33,27.46,4.83,20A15.23,15.23,0,0,1,5,18.33c.62-3.57,2-6,4.05-7.43a10.63,10.63,0,0,1,6.1-1.62c3.47,0,7.77,1.06,12.75,3.17,7,3,15.4,8,25,14.88a.1.1,0,0,1,.05,0l-.11.07C45,32.7,36.89,38,29.78,41.48Z"/><path class="cls-2" d="M100,24.33A15.85,15.85,0,0,1,99.8,27c-.7,4.25-3.42,7.46-8.34,9.8-6.1,2.91-13.23,3-21.18.22A23.06,23.06,0,0,1,67.88,36c-5.26-2.61-15-8.45-15-8.46l-.06,0c-9.56-6.89-18-11.88-24.93-14.84-5-2.1-9.28-3.16-12.75-3.16a10.7,10.7,0,0,0-6.1,1.61C7,12.49,5.64,14.92,5,18.49a14.29,14.29,0,0,0-.18,1.43v0C4.11,22,3,36.33,2.78,38.23c0,0,0,.08,0,.11-.29-.9-.54-1.74-.74-2.49A55.09,55.09,0,0,1,0,21.62v-.25a28.54,28.54,0,0,1,.39-4.65C1.38,11,3.63,7,7.07,4.63c5-3.41,12.24-3,22.16,1.17C36.5,8.87,45.17,14,55,21.13c.35.25,1.29.84,2.47,1.56h0l1.3.79c2.88,1.76,6.28,3.8,6.2,3.85Q74,32,81.31,32A20.06,20.06,0,0,0,90,30.07,11.9,11.9,0,0,0,94.32,27a.48.48,0,0,0,.21-.13c1.19-1.1,1.5-3.26,1.61-5.19A34.44,34.44,0,0,0,96,15.45a13.11,13.11,0,0,0-.48-2.25,14.68,14.68,0,0,1,3.14,4.69A16.58,16.58,0,0,1,100,24.33Z"/><path class="cls-1" d="M63.33,97.51l-6.61.32c.47-2.17,2.79-22.92,6.59-25.92,7.64-6,17.79,10.94,22.5,6,4.4-4.64,7.92-13.54,5.93-19.82-2.81-8.86-10.61-10.93-13.83-11.4-2.51-.38-11.63.27-17.33,3.93-1.5,1-22.34,19.89-34.11,19.9a24.06,24.06,0,0,1-7.9-1.36c-5.44-1.88-8.46-5-9-9.42-.87-7.1,5.5-13.08,5.57-13.14l2.61,5.31.06-.05C16.65,53,14,56.53,14.3,58.74c.22,1.56,2.27,3.15,5.48,4.26C33,67.57,44.06,57.52,52.14,50.18a53.58,53.58,0,0,1,6.36-5.3c6.74-4.32,16.86-5,19.94-4.52a22.25,22.25,0,0,1,10,4.06,21.79,21.79,0,0,1,7.72,11.19c1.42,4.48,1.24,9.75-.52,15.24s-3,10.26-6.84,12c-7.68,3.45-18.36-7.71-22.1-4.51C64.46,80.23,63.56,96.44,63.33,97.51Z"/><path class="cls-2" d="M19.93,46.11a32.64,32.64,0,0,0-4,3.59c-2.11,2-5,4.19-5.53,5.24A2.77,2.77,0,0,1,9,55.8a1.06,1.06,0,0,1-1.13-.49L5,49.74c-.48-.8-.1-2.27.84-3.27.71-.34,2.77-.85,3.75-1.65,2.61-2.14,5-3.12,5.58-4.28a2.77,2.77,0,0,1,1.47-.86,1.08,1.08,0,0,1,1.13.49l3,2.67C21.26,43.64,20.88,45.11,19.93,46.11Z"/></svg>