<svg id="Layer_1" data-name="Layer 1" xmlns="http://www.w3.org/2000/svg" viewBox="0 0 100 100"><defs><style>.cls-1{fill:#f27d3b;}.cls-2{fill:#6d4945;}.cls-3{opacity:0.5;}.cls-4{fill:#b67c77;}.cls-5{fill:#885e59;}.cls-6{fill:#3f3f40;}</style></defs><title>moth</title><path class="cls-1" d="M51.77,38.61C58.48,45.12,61.1,52.54,58,55.55s-10.88.8-17.91-5.26C32.59,43.81,28.8,35.4,32.19,31.94S44.58,31.64,51.77,38.61Z"/><path class="cls-2" d="M31.69,29.18c3.87,3.09,10.08,7,16.17,13.3,9.4,9.79,7.58,14.34,12.86,15.3,8.57,1.57,10.62.84,18-9.15a38.1,38.1,0,0,0,2.87-4.53Z"/><g class="cls-3"><path class="cls-4" d="M59.13,45.75c-2.07,2-1.68,5.62.8,7.94s5.94,2.47,7.93.53,1.76-5.41-.58-7.77S61.2,43.69,59.13,45.75Zm7.25,7.7c-1,1-3.21.62-4.85-.93s-2.17-3.75-1.1-4.81,3.31-.6,4.95,1S67.43,52.42,66.38,53.45Z"/></g><path class="cls-2" d="M32.36,24.21c5,4.76,7,10.41,4.67,12.79s-8.25.77-13.44-3.76c-5.42-4.74-8-10.87-5.5-13.49S27.1,19.21,32.36,24.21Z"/><path class="cls-2" d="M28.32,32.32C31.74,35.87,36.1,41.59,43,47.08c10.67,8.48,15.4,6.58,16.62,11.54,2,8,1.28,9.92-8.8,16.9a40.13,40.13,0,0,1-4.51,2.69Z"/><path class="cls-5" d="M27.84,24.47a2.88,2.88,0,0,1,0-.47c.54-3.2,4.8-4.93,6.61-5.62,8.11-3.1,17.94-2.71,17.94-2.71a213,213,0,0,0,23.21-.34c2.28-.06,20.21-.28,23.76,11.14a13.62,13.62,0,0,1,.6,3.69c-.39,1.66-2,1.88-8,5.59-9.15,5.75-16.24,16.3-25.16,16.3-5.44,0-5.27-3.47-16.49-11.23C38,32.22,27.74,29.31,27.84,24.47Z"/><path class="cls-4" d="M21.9,19.86a2.69,2.69,0,0,1,.39,3.81,2.86,2.86,0,0,1-3.92-.13,2.68,2.68,0,0,1-.43-3.83A2.85,2.85,0,0,1,21.9,19.86Z"/><path class="cls-4" d="M71.77,20.79c-3.28,3.28-2.89,9.29.73,13.29,3.47,3.85,8.68,4.42,11.77,1.4s3-8.71-.23-12.82C80.62,18.39,75.07,17.49,71.77,20.79ZM82.14,34.14c-1.63,1.6-4.81.79-7.16-1.87s-3-6.38-1.34-8.07,5-.74,7.38,2.09S83.78,32.53,82.14,34.14Z"/><g class="cls-3"><path class="cls-4" d="M48.32,65.45c2.54,2.09,6.12,2.2,8.07.3s1.6-5.19-.87-7.38-6.27-2.47-8.3-.45S45.71,63.32,48.32,65.45Zm2.26-1.82c-1.75-1.47-2.33-3.52-1.27-4.57s3.33-.65,5,.85,2.21,3.48,1.17,4.49S52.3,65.07,50.58,63.63Z"/></g><path class="cls-5" d="M23.24,28.9a3.46,3.46,0,0,0-.48.06c-3.22.72-4.68,4.89-5.25,6.65-2.54,7.8-1.45,16.9-1.45,16.9a179.18,179.18,0,0,1,1.26,21c.1,2,1.08,17.69,12.35,20.69a16,16,0,0,0,3.64.5c1.62-.35,1.74-1.79,5.11-7,5.31-8.23,15.79-14.88,15.43-23.11-.22-5.08-3.84-4.79-12.44-15C31.83,38.16,28.21,28.5,23.24,28.9Z"/><path class="cls-4" d="M24,80.11c4.27,2.85,9.93,2.82,12.8,0s2-7.54-2.09-10.63c-4.26-3.2-10.33-3.41-13.38-.35S19.56,77.14,24,80.11Zm3.4-2.75c-3-2-4.14-5-2.56-6.61s5.28-1.1,8.19,1,3.82,4.94,2.3,6.44S30.28,79.36,27.39,77.36Z"/><path class="cls-6" d="M25.17,16.06c2.6.92,4.11,3.42,3.43,5.58s-10.08-1-9.42-3.19S22.54,15.14,25.17,16.06Z"/><path class="cls-6" d="M14.79,26.9c1.11,2.43,3.74,3.73,5.9,3S19,20.17,16.78,21,13.67,24.43,14.79,26.9Z"/><path class="cls-4" d="M46.59,6.1a30.71,30.71,0,0,0-4.28.63c-9.6,2.11-17,8.38-20,15.89-.73-7.47,5.32-14.85,14.43-16.83A19.94,19.94,0,0,1,46.59,6.1Z"/><path class="cls-4" d="M.16,43.68a27.93,27.93,0,0,1,1.33-3.89A27.33,27.33,0,0,1,21,23.64c-7.52-2-16,2.51-19.52,10.73A17.53,17.53,0,0,0,.16,43.68Z"/></svg>