<svg id="Layer_1" data-name="Layer 1" xmlns="http://www.w3.org/2000/svg" viewBox="0 0 100 100"><defs><style>.cls-1{fill:#333;}.cls-2{fill:#3f3f40;}.cls-3{opacity:0.4;}.cls-4{opacity:0.32;}.cls-5{fill:#b3b2b3;}.cls-6{opacity:0.5;}.cls-7{fill:#1a1a1a;}</style></defs><title>cauldron</title><path class="cls-1" d="M28.23,84.76C25.33,91.62,20.7,96.21,17.9,95s-2.72-7.7.19-14.56Z"/><path class="cls-1" d="M55.51,86.52C55.51,94,53,100,50,100s-5.51-6-5.51-13.48Z"/><path class="cls-1" d="M83.17,78.5c3.07,6.78,3.31,13.3.53,14.55s-7.5-3.23-10.57-10Z"/><path class="cls-2" d="M95.27,51.46C95.27,80.5,75,87.84,50,87.84c-15,0-28.32-2.32-36.55-10.65C8,71.64,4.73,63.43,4.73,51.46A38.09,38.09,0,0,1,20.41,21.58L13.18,21c-1.52,0-5.66-2.23-5.66-3.75l.12-.86L9.55,2.75A2.76,2.76,0,0,1,12.3,0,276.07,276.07,0,0,0,49.75,2.6,274.91,274.91,0,0,0,87.7,0a2.76,2.76,0,0,1,2.75,2.75l2,14.16c0,1.52-4.69,3.55-6.21,3.55L79.6,21.58C89.2,28.58,95.27,39.9,95.27,51.46Z"/><g class="cls-3"><path class="cls-1" d="M95.27,51.46C95.27,80.5,75,87.84,50,87.84c-15,0-28.32-2.32-36.55-10.65a7.67,7.67,0,0,1,1.41.39c7,2.6,31.52,10,47.29,3.83,10.34-4,22.8-11.94,22.8-30C85,40.83,78.49,29.29,75.23,24c-2.33,0-6,1.38-29,1.76-9.95.16-27.89-1.63-29-1.5a37.4,37.4,0,0,1,3.23-2.63L13.18,21c-1.52,0-5.66-2.23-5.66-3.75l.12-.86a32.23,32.23,0,0,0,5.23,2C18.51,20,41.56,21.19,45.7,21.27c2.83,0,43.22-.38,43.07-4.36C91.37,6,89,6,88.7.19a2.76,2.76,0,0,1,1.75,2.56l2,14.16c0,1.52-4.69,3.55-6.21,3.55L79.6,21.58C89.2,28.58,95.27,39.9,95.27,51.46Z"/></g><g class="cls-4"><path class="cls-5" d="M46.36,42.21c-.41,5-7.63,4.23-16.56,3.5S13.63,44.55,14,39.56s8.15-10.62,17.08-9.88S46.76,37.22,46.36,42.21Z"/></g><g class="cls-4"><path class="cls-5" d="M35.82,50.26c-.26,3.08-5.25,5.22-10.76,4.77s-9.45-3.33-9.19-6.41,4.06-2.45,9.57-2S36.07,47.18,35.82,50.26Z"/></g><g class="cls-6"><path class="cls-7" d="M77.58,2.8c0,.73-6.23,4-30.06,4-14.17,0-27.11-3-27.12-3.78s13.93.78,28.1.88C66.34,4,77.57,2.07,77.58,2.8Z"/></g></svg>