<svg id="Layer_1" data-name="Layer 1" xmlns="http://www.w3.org/2000/svg" viewBox="0 0 100 100"><defs><style>.cls-1{fill:gray;}.cls-2{fill:#885e59;}.cls-3{fill:#6ab7d8;}.cls-4{fill:#9dc7db;}.cls-5{opacity:0.5;}.cls-6{fill:#2e368e;}.cls-7{fill:#979797;}.cls-8{fill:#654641;}</style></defs><title>tent</title><path class="cls-1" d="M76.88,37.29c.34-2.6.38-4.76.09-4.86s-.8,1.9-1.15,4.51Z"/><path class="cls-2" d="M1.4,82.53a12.8,12.8,0,0,1,1.44.59l1.65,0C4.32,81.18,4,79,3.6,76.61c-.12-.7-.26-1.39-.39-2.06A4.91,4.91,0,0,0,0,75.4c.1.64.2,1.29.32,1.95C.65,79.21,1,81,1.4,82.53Z"/><path class="cls-3" d="M59.85,83.78l-23.07-.36-11.91-.18L2.26,82.89c5.68-5.45,10.61-12.51,16.94-27C25.09,42.39,28.87,23.48,29,16.7,42,36.7,46.94,64.07,59.85,83.78Z"/><path class="cls-4" d="M98.65,78.36l-38.8,5.42c-5.4-3.37-8.49-10.26-15.72-21.11C35.66,50,31.25,23.73,29,16.7a22.76,22.76,0,0,1,1.77,1.82C35,23.13,43.25,33.25,55.48,38.13A35.75,35.75,0,0,0,70,40.76c4.31-.14,4.1-3.35,6.9-5.62.5,4.81,4.64,15.45,7.53,21.53C89.38,67.13,94.22,74.58,98.65,78.36Z"/><g class="cls-5"><path class="cls-6" d="M35.11,82.29l-3.53-.19-1-.06-5.33-.27c.89-4.06,2.22-9.12,2.66-12.68.9-7.45,2-26.89,2.3-33.34.07,1.75.19,4.71.37,8.25.25,5,.6,11.26,1,16.8.37,4.72.82,9,1.32,11.56C33.55,75.76,34.3,79.14,35.11,82.29Z"/></g><path class="cls-2" d="M97.89,78.93l.54.14a2.16,2.16,0,0,1,.8,0c.2-.82.39-1.75.57-2.74.08-.39.14-.77.2-1.14a2.11,2.11,0,0,0-1.47-.57q-.11.51-.21,1c-.21,1.15-.37,2.25-.49,3.23Z"/><path class="cls-7" d="M59.46,86.6l-.48,0,.1.1v0Z"/><path class="cls-2" d="M60.38,84.88c.44-1.4.88-3,1.29-4.69.15-.61.28-1.2.41-1.79a3.55,3.55,0,0,0-2.48-.87q-.21.8-.42,1.65c-.49,2-.88,3.84-1.15,5.47C58.82,84.71,59.6,84.78,60.38,84.88Z"/><g class="cls-5"><path class="cls-3" d="M82.21,76.44c-5.13,6.11-21.19.78-33.33-14.37-2.05-2.55-15-25.86-16.5-39.2C36.56,27.47,52.13,43.08,64,47.68c2.66,2.94-3.48,11-1.64,12.92C75.77,74.36,87.09,70.6,82.21,76.44Z"/></g><path class="cls-1" d="M30.33,18.5c-.67-2.91-1.49-5.22-1.83-5.17s-.09,2.44.57,5.39Z"/><path class="cls-8" d="M31.58,60.8l-.53,21.27-.89,0,.37-38C30.78,49.05,31.13,55.26,31.58,60.8Z"/></svg>