<svg id="Layer_1" data-name="Layer 1" xmlns="http://www.w3.org/2000/svg" viewBox="0 0 100 100"><defs><style>.cls-1{fill:#f27d3b;}.cls-2{fill:#9dc7db;}.cls-3{opacity:0.5;}.cls-4{fill:#ac5d2a;}.cls-5{fill:#676767;}.cls-6{fill:#d31c5b;}.cls-7{fill:#fcca97;}.cls-8{opacity:0.46;}.cls-9{fill:#4d4e4e;}.cls-10{fill:#979797;}.cls-11{fill:#6ab7d8;}</style></defs><title>perfume</title><path class="cls-1" d="M61.26,85.76v2a2.63,2.63,0,0,1-2.63,2.63H14a2.63,2.63,0,0,1-2.63-2.63v-2A2.63,2.63,0,0,1,14,83.14h5.09a45.45,45.45,0,0,1-7.44-6C-.48,65-3.66,48.41,4.58,40.17,8.65,36.09,14.76,34.81,21.36,36a37.07,37.07,0,0,1,15,6.78,40.24,40.24,0,0,1,9.09-5.08c7.66-3,15.27-2.92,20.57.71a14.33,14.33,0,0,1,2.09,1.73c8.24,8.24,5.06,24.78-7.11,37A45,45,0,0,1,53.82,83h0l-.28.18h5.09A2.63,2.63,0,0,1,61.26,85.76Z"/><path class="cls-2" d="M100,31.69a18.42,18.42,0,0,1-.48,3.13c-1.66,7.1-7.46,12.37-19.61,9C72.16,41.64,66.53,36.18,66,30.23a10.06,10.06,0,0,1,.23-3.17c1.66-7.1,10.44-11.11,19.61-9C97.31,20.76,100.34,25.86,100,31.69Z"/><g class="cls-3"><path class="cls-4" d="M45.43,37.73C47.88,45.33,31.49,56.84,29.72,49c-1.55-6.88-1.47-7.38-8.36-12.93a37.07,37.07,0,0,1,15,6.78A40.24,40.24,0,0,1,45.43,37.73Z"/></g><path class="cls-5" d="M43.86,42.23a2.63,2.63,0,0,1-2.62,2.62H31.4a2.63,2.63,0,0,1-2.62-2.62l-.08-.57c-.32-2.43-1.39-11.95,1-13.8,1.9-.3,3.58-3.33,4.77-6l-.43-.27a5.23,5.23,0,0,1-1-.91,3,3,0,0,1-.85-2.94c1.38-4.38,2.64-8.15,4.16-8.15,1.1,0,2.91,3.5,4.15,8.14h0c.47,1.74-1,3.37-2.32,4.12,1.19,2.67,2.87,5.69,4.77,6C45.64,29.88,43.86,42.23,43.86,42.23Z"/><g class="cls-3"><path class="cls-6" d="M33.89,83.8h.87C32.91,84,32.36,83.8,33.89,83.8Z"/></g><g class="cls-3"><path class="cls-4" d="M61,77.12A45,45,0,0,1,53.82,83h0c-6.6,1.26-15.42.92-19.06.85a36.57,36.57,0,0,0,27.7-18.08C70.14,52.78,67,42.61,66,38.44a14.33,14.33,0,0,1,2.09,1.73C76.33,48.41,73.15,65,61,77.12Z"/></g><path class="cls-7" d="M21.33,45.39c-.34,2.21-3.36.82-7.26.23s-7.2-.19-6.86-2.39,4.06-5.38,8-4.78S21.67,43.19,21.33,45.39Z"/><path class="cls-7" d="M7.61,47.27c.21-1.26,1.92-.44,4.14-.07s4.11.16,3.9,1.42-2.36,3-4.58,2.66S7.4,48.52,7.61,47.27Z"/><g class="cls-8"><path class="cls-9" d="M43.86,42.23a2.63,2.63,0,0,1-2.62,2.62H31.4a2.63,2.63,0,0,1-2.62-2.62s-.36-3.21-.4-3.58c.4-.63,0,4.75,9.57,4.4,2.46-.08,3.84-2.46,4.14-3.26,1.44-3.82,2.57-9.48.11-11.37a13.7,13.7,0,0,1-1.75-1.09c-2-1.75-1.55-3.67-3.06-4.81-.54-.41-1-.81-3.32-.92a5.23,5.23,0,0,1-1-.91c3.77-.21,5.19.18,6.44-1,.2-.2.25-.3,1-1.94h0c.47,1.74-1,3.37-2.32,4.12,1.19,2.67,2.87,5.69,4.77,6C45.64,29.88,43.86,42.23,43.86,42.23Z"/></g><g class="cls-3"><path class="cls-10" d="M36.09,30c-.15.63-2.14,1-3.83.64S29.82,29.18,30,28.55s1.37.32,3.06.72S36.24,29.36,36.09,30Z"/></g><g class="cls-3"><path class="cls-10" d="M35.69,12.86c.24-1.27.26-2.16,0-2.23s-.76.89-1.26,2.31Z"/></g><g class="cls-3"><path class="cls-10" d="M33.92,13.49c-.42,1.74-.31,2.31,0,2.4s.77-.42,1.36-2.48Z"/></g><path class="cls-11" d="M100,31.69a18.42,18.42,0,0,1-.48,3.13c-1.66,7.1-7.46,12.37-19.61,9C72.16,41.64,66.53,36.18,66,30.23c4.28,3.5,10,10.86,18.9,10.32C91.22,40.18,97.62,36,100,31.69Z"/><ellipse class="cls-11" cx="69.55" cy="27.19" rx="1.86" ry="2.4"/><path class="cls-7" d="M69.46,28.2a62.43,62.43,0,0,0-31.74,5.47.59.59,0,0,1-.54-.24,1.58,1.58,0,0,1-.34-.75h0c-.1-.6.12-1.15.5-1.22A51.8,51.8,0,0,1,69.08,26a.59.59,0,0,1,.54.24A1.49,1.49,0,0,1,70,27h0C70.06,27.58,69.84,28.13,69.46,28.2Z"/></svg>