<svg id="Layer_1" data-name="Layer 1" xmlns="http://www.w3.org/2000/svg" viewBox="0 0 100 100"><defs><style>.cls-1{fill:#988575;}.cls-2{fill:#f27d3b;}.cls-3{fill:#bcc6cb;}.cls-4{fill:#616164;}.cls-5{fill:#ffc540;}</style></defs><title>cashmere</title><path class="cls-1" d="M99,75.82a89,89,0,0,0-14.84.24h0l-1.47.14c-5.06.51-9.86,1.37-15.33,2.41q-2.7.51-5.26,1-2.93.61-5.68,1.24c-2,.45-4,.92-5.86,1.38s-4.06,1-6.05,1.52l-6.26,1.63-6.5,1.71C24,89.17,15.88,91.18,6.45,93A125.25,125.25,0,0,1,7.61,73.32l.21-2a99.74,99.74,0,0,0,.5-13.52C8.09,50.49,6.45,42.75,4.69,35c-.37-1.65-.75-3.3-1.12-5s-.72-3.19-1.06-4.78-.64-3.08-.93-4.61A101.44,101.44,0,0,1,0,8.32L1.21,7.5A86.82,86.82,0,0,0,2.76,20.31c.28,1.5.59,3,.91,4.53s.68,3.14,1,4.71.74,3.25,1.11,4.87c1.73,7.65,3.33,15.26,3.56,22.45a96.82,96.82,0,0,1-.49,13.31c-.06.65-.13,1.3-.2,1.95A122.5,122.5,0,0,0,7.54,91.45c9.27-1.76,17.22-3.73,24.93-5.74L38.86,84,45,82.43c2-.51,3.93-1,6-1.5s3.79-.91,5.76-1.36q2.72-.61,5.58-1.21,2.52-.52,5.18-1c5.37-1,10.1-1.86,15.07-2.37L84,74.82h0a108.72,108.72,0,0,1,16-.15"/><path class="cls-2" d="M100,74.67a108.72,108.72,0,0,0-16,.15h0L82.55,75c-5,.51-9.7,1.35-15.07,2.37q-2.66.51-5.18,1-2.86.6-5.58,1.21c-2,.45-3.88.9-5.76,1.36s-4,1-6,1.5L38.86,84l-6.39,1.68c-7.71,2-15.66,4-24.93,5.74A122.5,122.5,0,0,1,8.69,72.13c.07-.65.14-1.3.2-1.95a96.82,96.82,0,0,0,.49-13.31c-.23-7.19-1.83-14.8-3.56-22.45-.37-1.62-.75-3.25-1.11-4.87s-.71-3.14-1-4.71-.63-3-.91-4.53A86.82,86.82,0,0,1,1.21,7.5c7,.18,13.46.09,19.89,0l4.95-.12,4.82-.1,4.69-.08c1.52,0,3,0,4.58,0l4.48,0c1.68,0,3.37,0,5.1.11A64.86,64.86,0,0,1,61.45,8.84l1.24.22a48.34,48.34,0,0,0,7,.69,52.39,52.39,0,0,0,5.43,10q1.26,1.89,2.61,3.75c.92,1.29,1.87,2.57,2.82,3.85s1.94,2.62,2.89,3.94a75,75,0,0,1,7.37,11.9q.31.72.6,1.44a92.58,92.58,0,0,1,4,13.75l.33,1.46A99.4,99.4,0,0,0,100,74.67Z"/><path class="cls-3" d="M80.41,26.9l-11.67.4h0l-1.23.05L50.13,28l-4.79.16-4.92.18-5.05.17-5.2.18-5.33.19-20.13.71c-.36-1.57-.71-3.14-1-4.71l20.57-.48,5.24-.12,5.11-.12,5-.11,4.84-.12,4.72-.11,17.14-.4,1.21,0,10.17-.23C78.54,24.38,79.47,25.64,80.41,26.9Z"/><path class="cls-4" d="M62.3,78.36q-2.86.6-5.58,1.21L53.66,65.76,53.3,64.1l-7-31.59-1-4.39-.94-4.23-.9-4.08h0L40.68,7c1.45,0,2.92,0,4.4,0l3.07,12.69,1,4,1,4.18,1,4.32,7.51,31.09L59.07,65Z"/><path class="cls-4" d="M51,80.93c-2,.5-4,1-6,1.5L42.32,67.37,42,65.65,36.18,33l-.81-4.52-.78-4.35-.75-4.19L31.55,7.14l4.62-.07,2.56,12.8L39.56,24l.86,4.29.89,4.45,6.43,32.11.34,1.69Z"/><path class="cls-4" d="M38.86,84l-6.39,1.68L30.23,69.08,30,67.29l-4.53-33.8-.62-4.65-.6-4.48-.58-4.31L22,7.36l4.87-.11,2,12.74.66,4.25.69,4.41.72,4.59L36.1,66.46l.27,1.75Z"/><path class="cls-3" d="M56.72,79.57c-2,.45-3.88.9-5.76,1.36L48.08,66.55l-.34-1.69L41.31,32.75l-.89-4.45L39.56,24l-.83-4.14L36.17,7.07c1.49,0,3,0,4.51,0L43.5,19.81h0l.9,4.08.94,4.23,1,4.39,7,31.59.36,1.66Z"/><path class="cls-3" d="M45,82.43,38.86,84,36.37,68.21l-.27-1.75L30.89,33.24l-.72-4.59-.69-4.41L28.82,20l-2-12.74,4.73-.11,2.29,12.79.75,4.19.78,4.35L36.18,33,42,65.65l.31,1.72Z"/><path class="cls-4" d="M77.64,23.12l-10.17.23-1.21,0-17.14.4-4.72.11L39.56,24l-5,.11-5.11.12-5.24.12-20.57.48c-.32-1.52-.63-3-.91-4.53l20.9-.26L28.82,20l5-.06,4.89-.06,4.77-.06h0l4.65-.06,16.9-.2,1.2,0,8.82-.1Q76.3,21.28,77.64,23.12Z"/><path class="cls-4" d="M83.25,30.77l-13.2.62-1.24.06-17.64.83-4.86.23-5,.24L36.18,33l-5.29.25-5.43.25-19.64.93c-.37-1.62-.75-3.25-1.11-4.87l20.13-.71,5.33-.19,5.2-.18,5.05-.17,4.92-.18L50.13,28l17.38-.61,1.23-.05h0l11.67-.4C81.36,28.19,82.32,29.48,83.25,30.77Z"/><path class="cls-5" d="M95.41,58.35l-16,2.18-1.36.19L58.68,63.37l-5.38.73-5.56.76L42,65.65l-5.91.81L30,67.29,8.89,70.18c-.06.65-.13,1.3-.2,1.95l21.54-3,6.14-.87,6-.84,5.76-.82,5.58-.79L59.07,65l19.46-2.76,1.37-.19,15.84-2.24Z"/><polygon class="cls-5" points="84 74.82 84 74.82 79.9 62.05 79.41 60.53 70.06 31.39 68.74 27.3 68.74 27.3 67.47 23.35 66.25 19.53 62.85 8.95 62.85 8.95 61.63 8.73 61.63 8.73 65.05 19.55 66.26 23.38 67.51 27.35 68.81 31.45 78.05 60.72 78.53 62.24 82.55 74.96 84 74.82"/></svg>