<svg id="Layer_1" data-name="Layer 1" xmlns="http://www.w3.org/2000/svg" xmlns:xlink="http://www.w3.org/1999/xlink" viewBox="0 0 100 100"><defs><style>.cls-1{fill:none;}.cls-2{fill:#b2e2f9;}.cls-3{fill:#ebf7fd;}.cls-4{fill:#6ab8d9;}.cls-5{clip-path:url(#clip-path);}</style><clipPath id="clip-path"><path class="cls-1" d="M30.75,60.73c-11-.6-18.45-3.43-23.44-6.61-.07,1-.12,2-.12,3.07a42.81,42.81,0,1,0,84.1-11.31C68.83,42.52,56.94,62.18,30.75,60.73Z"/></clipPath></defs><title>liquid</title><path class="cls-2" d="M49.77,0l-.2.29c-2.36,3.51-27.13,40.59-27.13,55A27.32,27.32,0,0,0,49.57,82.57h.2A27.33,27.33,0,0,0,77.1,55.26C77.1,40.16,49.77,0,49.77,0Z"/><ellipse class="cls-3" cx="42.31" cy="32.61" rx="11.09" ry="6.36" transform="translate(-3.05 60.82) rotate(-69.51)"/><path class="cls-4" d="M30.75,60.73c-11-.6-18.45-3.43-23.44-6.61-.07,1-.12,2-.12,3.07a42.81,42.81,0,1,0,84.1-11.31C68.83,42.52,56.94,62.18,30.75,60.73Z"/><g class="cls-5"><path class="cls-2" d="M30.77,76.87c-15.16,0-23.85-6.06-24.36-6.43a3,3,0,0,1,3.54-5h0c.16.11,15.88,10.85,42,1.26,8.08-3,13.75-5.24,17.89-6.9,10.43-4.18,12.9-5.17,23.34-5a3.05,3.05,0,0,1,0,6.1H93.1c-9.23-.13-10.79.5-21,4.59-4.18,1.67-9.9,4-18.06,7A67.37,67.37,0,0,1,30.77,76.87Z"/></g><path class="cls-4" d="M88.22,41.81a2.82,2.82,0,0,0,1.54-.44,42.61,42.61,0,0,0-2.55-5.32c-7.27,0-10.21.55-17.07,3.22a2.87,2.87,0,0,0,1,5.55,2.94,2.94,0,0,0,1-.19C78.42,42.21,80.46,41.7,88.22,41.81Z"/><path class="cls-4" d="M29.47,56.86a63.66,63.66,0,0,0,22-4.16c3.11-1.15,5.84-2.18,8.25-3.11a2.87,2.87,0,0,0-2.06-5.36c-2.39.92-5.09,1.94-8.17,3.07-24.6,9-39-.74-39.59-1.18a2.79,2.79,0,0,0-1.06-.47,43,43,0,0,0-1.2,5.83C10.29,53.09,17.88,56.86,29.47,56.86Z"/></svg>