<svg id="Layer_1" data-name="Layer 1" xmlns="http://www.w3.org/2000/svg" viewBox="0 0 100 100"><defs><style>.cls-1{fill:#3e3e3f;}.cls-2{fill:#f37d3b;}.cls-3{fill:#ffc640;}</style></defs><title>lava</title><ellipse class="cls-1" cx="44.7" cy="43.33" rx="31.75" ry="8.85"/><path class="cls-2" d="M58.84,39.76c0,6.32-9,8.25-20.16,8.25s-20.16-1.93-20.16-8.25,9-16.86,20.16-16.86S58.84,33.44,58.84,39.76Z"/><path class="cls-1" d="M62.48,54.05l-4-4.56,1.86-1.64,2,2.31,1.58-2c2.19-8.57,14.68-8.35,15.18-8.33l-.06,2.48c-.11,0-11.22-.19-12.76,6.67l-.06.27Z"/><ellipse class="cls-1" cx="31.75" cy="60.21" rx="31.75" ry="8.85"/><ellipse class="cls-1" cx="66.31" cy="53.51" rx="23.08" ry="6.44"/><ellipse class="cls-1" cx="68.57" cy="70.66" rx="23.08" ry="6.44"/><ellipse class="cls-1" cx="39.79" cy="51.36" rx="15.09" ry="4.21"/><ellipse class="cls-1" cx="72.85" cy="32.42" rx="10.24" ry="1.43"/><ellipse class="cls-1" cx="80.81" cy="45.43" rx="19.19" ry="5.35"/><path class="cls-1" d="M38.32,44.35h.46l1.45-.07c1.26-.07,3.1-.21,5.28-.47a60.66,60.66,0,0,0,7.17-1.26,28.09,28.09,0,0,0,3.49-1.09,8.1,8.1,0,0,0,3.09-2,15.45,15.45,0,0,1,5.7-3A16.18,16.18,0,0,1,70.55,36a24.07,24.07,0,0,1,4.71.8,38.3,38.3,0,0,1,3.85,1.31,57,57,0,0,1,5.32,2.54l1.92,1.07-2.17-.34a53.59,53.59,0,0,0-5.66-.53,35.32,35.32,0,0,0-3.68.07,20.16,20.16,0,0,0-3.78.71,10,10,0,0,0-3.22,1.58,7.85,7.85,0,0,0-1.17,1.13,5.23,5.23,0,0,0-.8,1.21l-.54.92-.08.13,0,.06c.24-.29.06-.06.11-.12l0,0,0,.05L65,47c-.18.25-.37.51-.55.73a20.6,20.6,0,0,1-2.24,2.37,35.55,35.55,0,0,1-4.42,3.37,73.46,73.46,0,0,1-7.92,4.44c-2.34,1.13-4.31,2-5.71,2.56l-1.67.67-.65.23Z"/><path class="cls-3" d="M39.2,47.24,50,44.7,53.46,42l7.69-.78,3.69-.52,5.11-.6L77,40l1.3,3.64v4.24s-17.18,2.74-23.43,8.63"/><path class="cls-2" d="M41.33,51.91a21.28,21.28,0,0,1,1.92-1c1.22-.6,3-1.38,5.06-2.17,1.06-.39,2.18-.83,3.4-1.18s2.57-.57,3.94-.92a9.25,9.25,0,0,0,3.85-1.82,7.88,7.88,0,0,0,.8-.72l.65-.84c.45-.65.83-1.29,1.39-2a10.68,10.68,0,0,1,4-3.21,15.47,15.47,0,0,1,4.8-1.3,15.9,15.9,0,0,1,4.49.11,27.66,27.66,0,0,1,3.8,1,26.57,26.57,0,0,1,3,1.27,20.92,20.92,0,0,1,2.2,1.21,19.34,19.34,0,0,1,1.8,1.26l-.14.37s-.82,0-2.17-.12c-.67-.08-1.5-.11-2.41-.22l-3-.32c-1.1-.11-2.28-.2-3.5-.27s-2.48-.14-3.76-.15a15,15,0,0,0-3.82.47,14.71,14.71,0,0,0-3.75,1.52c-.28.2-.57.36-.87.6l-.85.75a19,19,0,0,1-1.85,1.57L56.58,48.5a18.38,18.38,0,0,1-3.67,2.29,19.67,19.67,0,0,1-3.64,1.14,23.24,23.24,0,0,1-3.17.49,18.77,18.77,0,0,1-2.5.09,11.48,11.48,0,0,1-2.2-.21Z"/><path class="cls-2" d="M42,56.52s.66-.42,1.82-1,2.82-1.33,4.81-2.08c1-.37,2.07-.8,3.22-1.16s2.41-.61,3.73-.89A11.7,11.7,0,0,0,59.44,50a7.12,7.12,0,0,0,2.72-3c.62-1.28,1.1-2.7,1.89-4a13.35,13.35,0,0,1,3.14-3.61,9.24,9.24,0,0,1,4.36-1.89,11.65,11.65,0,0,1,4,.14,14.52,14.52,0,0,1,3.08,1,14.06,14.06,0,0,1,2.15,1.12,11.61,11.61,0,0,1,1.72,1.23l-.14.37s-.78,0-2.06,0-3.08-.16-5-.07a16.58,16.58,0,0,0-3,.41,11,11,0,0,0-2.84,1.08,12.82,12.82,0,0,0-2.78,2.3c-1,1-2.06,2-3.11,3.06a24.08,24.08,0,0,1-3.46,3l-3.51,2.64a16.23,16.23,0,0,1-3.56,2,22.73,22.73,0,0,1-3.47,1,24.22,24.22,0,0,1-5.4.49,11.25,11.25,0,0,1-2.09-.21Z"/><path class="cls-2" d="M94.14,43.45c0,2.16-4.77,2.82-10.65,2.82s-10.64-.66-10.64-2.82,4.76-5.76,10.64-5.76S94.14,41.29,94.14,43.45Z"/><path class="cls-2" d="M87,69.22c0,3.6-7.94,4.7-17.73,4.7s-17.74-1.1-17.74-4.7,7.94-9.6,17.74-9.6S87,65.63,87,69.22Z"/><ellipse class="cls-1" cx="80.76" cy="50.39" rx="18.49" ry="4.52"/><path class="cls-3" d="M96.72,50c0,2-8.28,2.6-18.5,2.6S63.86,52,63.86,50,68,44.7,78.22,44.7,96.72,48,96.72,50Z"/><path class="cls-3" d="M80.25,31.51c0,.78-3.22,1-7.19,1s-7.2-.23-7.2-1,3.22-2.06,7.2-2.06S80.25,30.74,80.25,31.51Z"/><circle class="cls-3" cx="29.69" cy="31.49" r="1.31"/><circle class="cls-3" cx="24.86" cy="36.09" r="2.25"/><circle class="cls-3" cx="32.24" cy="39.96" r="1.24"/><path class="cls-2" d="M36.22,44.93s12.3,3.35,17,1c0,0,8.63-3.71,11.64-3.49,0,0,7.62-2.39-7.54-4.09"/><polyline class="cls-2" points="79.23 39.85 80.95 40.68 81.2 40.2"/><circle class="cls-2" cx="65.09" cy="49.64" r="0.37"/><circle class="cls-2" cx="66.88" cy="48.11" r="0.27"/><circle class="cls-2" cx="68.67" cy="50.59" r="0.58"/><circle class="cls-2" cx="75.72" cy="46.07" r="0.49"/><circle class="cls-3" cx="56.55" cy="65.75" r="0.5"/><circle class="cls-3" cx="78.56" cy="63.53" r="0.7"/><circle class="cls-3" cx="79.8" cy="71.12" r="1.24"/><path class="cls-2" d="M59.07,51.25l.38-.21a7.47,7.47,0,0,1,1-.39A4.37,4.37,0,0,1,63,50.57a1.81,1.81,0,0,1,1.1.8,4.39,4.39,0,0,1,.17,2c0,.78,0,1.43.46,1.75a3,3,0,0,0,1.81.58,4.59,4.59,0,0,1,2.13.56,8.18,8.18,0,0,1,1.54,1.22,3.05,3.05,0,0,1,.88,1.68,5,5,0,0,1,0,1.92,5.27,5.27,0,0,1-.65,1.7,3.26,3.26,0,0,1-1,1.13,5.16,5.16,0,0,1-.88.55l-.37.14-.78-.17-.34-.23a6.88,6.88,0,0,0-.78-.49l-.48-.25-.55-.23-1-.37a3.35,3.35,0,0,1-.82-.43,1.05,1.05,0,0,1-.37-.8A12.77,12.77,0,0,0,63,60.38a8.61,8.61,0,0,1,.25-1.86A2.06,2.06,0,0,0,63,56.8c-.27-.41-.92-.46-1.64-.36a4.89,4.89,0,0,1-1.87.13c-.44-.11-.6-.49-.79-.82a5,5,0,0,1-.31-2.41,9.41,9.41,0,0,1,.13-1l.08-.43Z"/><path class="cls-3" d="M56.05,56.42c0,4.91-10.83,6.41-24.2,6.41s-24.2-1.5-24.2-6.41,10.84-13.09,24.2-13.09S56.05,51.51,56.05,56.42Z"/><path class="cls-2" d="M31.72,62.09c0,1.63-3.61,2.13-8.07,2.13s-8.06-.5-8.06-2.13,3.61-4.37,8.06-4.37S31.72,60.45,31.72,62.09Z"/><path class="cls-1" d="M51.19,62.71c0,1.16-2.55,1.51-5.7,1.51s-5.7-.35-5.7-1.51,2.55-3.09,5.7-3.09S51.19,61.55,51.19,62.71Z"/></svg>