<svg id="Layer_1" data-name="Layer 1" xmlns="http://www.w3.org/2000/svg" viewBox="0 0 100 100"><defs><style>.cls-1{fill:#6d4945;}.cls-2{fill:#00a69c;}.cls-3{fill:#714c48;}.cls-4{fill:#5c3d39;}.cls-5{fill:#895e59;}.cls-6{fill:#f37d3b;}.cls-7{fill:#cb6930;}.cls-8{fill:#089a7a;}.cls-9{fill:#87898b;}.cls-10{fill:#7d7d7d;}.cls-11{fill:#9c9c9c;}</style></defs><title>lumberjack</title><rect class="cls-1" x="11.26" y="64.55" width="4.85" height="7.07" rx="1.16" ry="1.16" transform="translate(-2.18 0.47) rotate(-1.84)"/><polygon class="cls-2" points="0 67.32 27.3 66.44 12.7 37.3 0 67.32"/><rect class="cls-1" x="27.42" y="53.7" width="4.85" height="7.07" rx="1.16" ry="1.16" transform="matrix(1, -0.03, 0.03, 1, -1.82, 0.99)"/><polygon class="cls-2" points="16.16 56.46 43.45 55.59 28.86 26.45 16.16 56.46"/><rect class="cls-1" x="40.24" y="59.52" width="4.85" height="7.07" rx="1.16" ry="1.16" transform="translate(-2 1.4) rotate(-1.84)"/><polygon class="cls-2" points="28.98 62.29 56.27 61.41 41.68 32.27 28.98 62.29"/><circle class="cls-3" cx="52.17" cy="75.55" r="10.73"/><rect class="cls-3" x="16.22" y="64.82" width="35.95" height="21.46"/><circle class="cls-4" cx="16.22" cy="75.55" r="10.73"/><circle class="cls-5" cx="15.8" cy="75.55" r="9.24"/><circle class="cls-3" cx="15.8" cy="75.55" r="7.34"/><circle class="cls-5" cx="15.8" cy="75.55" r="5.7"/><circle class="cls-3" cx="15.8" cy="75.55" r="3.47"/><circle class="cls-5" cx="15.8" cy="75.55" r="1.18"/><rect class="cls-4" x="36.75" y="71.02" width="8.69" height="3.06" rx="0.74" ry="0.74" transform="translate(113.65 31.46) rotate(90)"/><rect class="cls-4" x="52.59" y="70.85" width="3.06" height="12.88" rx="1.53" ry="1.53"/><path class="cls-4" d="M32.29,81.2a1.54,1.54,0,0,0-1.53,1.53v3.55h3.06V82.73A1.54,1.54,0,0,0,32.29,81.2Z"/><path class="cls-4" d="M27.46,70.55a1.53,1.53,0,0,0,3.06,0V64.92s0-.07,0-.1h-3s0,.07,0,.1Z"/><rect class="cls-3" x="31.76" y="61.32" width="2.77" height="7.64" rx="0.66" ry="0.66"/><rect class="cls-3" x="47.84" y="79.55" width="3.49" height="9.64" rx="0.84" ry="0.84"/><circle class="cls-3" cx="63.66" cy="56.77" r="10.73"/><rect class="cls-3" x="27.71" y="46.04" width="35.95" height="21.46"/><circle class="cls-4" cx="27.71" cy="56.77" r="10.73"/><circle class="cls-5" cx="27.3" cy="56.77" r="9.24"/><circle class="cls-3" cx="27.3" cy="56.77" r="7.34"/><circle class="cls-5" cx="27.3" cy="56.77" r="5.7"/><circle class="cls-3" cx="27.3" cy="56.77" r="3.47"/><circle class="cls-5" cx="27.3" cy="56.77" r="1.18"/><rect class="cls-4" x="48.24" y="52.25" width="8.69" height="3.06" rx="0.74" ry="0.74" transform="translate(106.36 1.19) rotate(90)"/><rect class="cls-4" x="64.08" y="52.07" width="3.06" height="12.88" rx="1.53" ry="1.53"/><path class="cls-4" d="M43.78,62.42A1.54,1.54,0,0,0,42.25,64V67.5h3.06V64A1.54,1.54,0,0,0,43.78,62.42Z"/><path class="cls-4" d="M39,51.77a1.53,1.53,0,1,0,3.06,0V46.14a.44.44,0,0,0,0-.1H39s0,.07,0,.1Z"/><rect class="cls-3" x="43.25" y="42.54" width="2.77" height="7.64" rx="0.66" ry="0.66"/><rect class="cls-3" x="59.33" y="60.77" width="3.49" height="9.64" rx="0.84" ry="0.84"/><circle class="cls-3" cx="75.41" cy="75.55" r="10.73"/><rect class="cls-3" x="39.46" y="64.82" width="35.95" height="21.46"/><circle class="cls-4" cx="39.46" cy="75.55" r="10.73"/><circle class="cls-5" cx="39.05" cy="75.55" r="9.24"/><circle class="cls-3" cx="39.05" cy="75.55" r="7.34"/><circle class="cls-5" cx="39.05" cy="75.55" r="5.7"/><circle class="cls-3" cx="39.05" cy="75.55" r="3.47"/><circle class="cls-5" cx="39.05" cy="75.55" r="1.18"/><rect class="cls-4" x="59.99" y="71.02" width="8.69" height="3.06" rx="0.74" ry="0.74" transform="translate(136.89 8.22) rotate(90)"/><rect class="cls-4" x="75.83" y="70.85" width="3.06" height="12.88" rx="1.53" ry="1.53"/><path class="cls-4" d="M55.53,81.2A1.54,1.54,0,0,0,54,82.73v3.55h3.06V82.73A1.53,1.53,0,0,0,55.53,81.2Z"/><path class="cls-4" d="M50.7,70.55a1.54,1.54,0,0,0,3.07,0V64.92a.38.38,0,0,0,0-.1h-3s0,.07,0,.1Z"/><rect class="cls-3" x="55" y="61.32" width="2.77" height="7.64" rx="0.66" ry="0.66"/><rect class="cls-3" x="71.08" y="79.55" width="3.49" height="9.64" rx="0.84" ry="0.84"/><rect class="cls-6" x="18.63" y="19.77" width="3.67" height="22.86" rx="0.88" ry="0.88"/><rect class="cls-6" x="46.97" y="19.77" width="3.67" height="22.86" rx="0.88" ry="0.88"/><rect class="cls-6" x="18.63" y="10.81" width="32.01" height="18.01" rx="4.33" ry="4.33"/><path class="cls-7" d="M50,25.9c0,2-6.89,6.08-15.38,6.08S19.25,27.9,19.25,25.9s6.89-1,15.39-1S50,23.91,50,25.9Z"/><rect class="cls-8" x="21.86" y="19.82" width="4.19" height="4.19"/><rect class="cls-8" x="28.74" y="19.82" width="4.19" height="4.19"/><rect class="cls-8" x="35.62" y="19.78" width="4.19" height="4.19"/><rect class="cls-8" x="42.5" y="19.78" width="4.19" height="4.19"/><path class="cls-8" d="M23.53,13.16H26a0,0,0,0,1,0,0v4.19a0,0,0,0,1,0,0H21.86a0,0,0,0,1,0,0V14.83A1.67,1.67,0,0,1,23.53,13.16Z"/><path class="cls-8" d="M42.5,13.16h4.19a0,0,0,0,1,0,0v4.19a0,0,0,0,1,0,0H44.17a1.67,1.67,0,0,1-1.67-1.67V13.16A0,0,0,0,1,42.5,13.16Z" transform="translate(89.19 30.52) rotate(-180)"/><rect class="cls-8" x="28.74" y="13.16" width="4.19" height="4.19"/><rect class="cls-8" x="35.62" y="13.13" width="4.19" height="4.19"/><ellipse class="cls-9" cx="94.68" cy="77.5" rx="5.08" ry="2.28" transform="translate(-11.16 16.11) rotate(-9.18)"/><rect class="cls-10" x="86.93" y="18.54" width="12.07" height="15.09" rx="2.9" ry="2.9" transform="translate(185.92 52.17) rotate(-180)"/><path class="cls-10" d="M72.64,18.54H91.36l-.28,14.91c-1.15,0-2.26.1-3.34.18Z"/><path class="cls-11" d="M72.64,18.54l15.1,15.09c-.71,0-1.4.12-2.08.19L70.38,18.54Z"/><path class="cls-10" d="M66.8,18.54h3.58L85.66,33.82c-1.09.12-2.16.24-3.18.4Z"/><path class="cls-11" d="M66.8,18.54,82.48,34.22c-1.28.2-2.47.43-3.63.68L62.48,18.54Z"/><path class="cls-10" d="M62.48,18.54,78.85,34.9C66,37.7,60.11,43.48,60.11,43.48V18.54Z"/><path class="cls-5" d="M93,76.52v.65c-2.23,0-4,.07-4-2.16l-2.38-56.3c0-2.23,4.2-4.05,6.43-4.05h0a4.06,4.06,0,0,1,4,4.05V75C97,77.24,95.19,76.52,93,76.52Z"/><path class="cls-5" d="M97,54.27s.72,18.14,2.76,20.65-10.41,3.63-10.41,3.63A100.07,100.07,0,0,1,88.08,55"/></svg>