<svg id="Layer_1" data-name="Layer 1" xmlns="http://www.w3.org/2000/svg" viewBox="0 0 100 100"><defs><style>.cls-1{fill:#ffc640;}</style></defs><title>heat</title><path class="cls-1" d="M53.62,46.38c-2.61-2.61-7.21-8-8.66-14.75-1.68-7.78,1.24-15.48,8.66-22.9h0A5.11,5.11,0,1,0,46.38,1.5c-12.8,12.8-13.16,25-11.21,33,2.22,9.09,8,15.87,11.21,19.11,2.61,2.6,7.21,8,8.66,14.74,1.68,7.78-1.24,15.49-8.66,22.91a5.12,5.12,0,0,0,7.24,7.23c12.81-12.8,13.17-25,11.21-33C62.61,56.4,56.85,49.62,53.62,46.38Z"/><path class="cls-1" d="M91.71,65.49c-2.22-9.09-8-15.87-11.22-19.11-2.61-2.61-7.2-8-8.65-14.75-1.68-7.78,1.24-15.48,8.66-22.91A5.11,5.11,0,0,0,73.26,1.5c-12.81,12.8-13.17,25-11.21,33,2.22,9.09,8,15.87,11.21,19.11,2.61,2.6,7.21,8,8.66,14.74,1.67,7.78-1.24,15.49-8.66,22.91A5.12,5.12,0,0,0,80.5,98.5C93.3,85.7,93.66,73.48,91.71,65.49Z"/><path class="cls-1" d="M26.74,46.38c-2.61-2.61-7.21-8-8.66-14.75-1.67-7.78,1.24-15.48,8.66-22.9h0a5.11,5.11,0,0,0,0-7.22,5.22,5.22,0,0,0-7.23,0c-12.81,12.8-13.17,25-11.22,33,2.22,9.09,8,15.87,11.22,19.11,7,7,16.38,21.27,0,37.65A5.05,5.05,0,0,0,18,94.88a5.11,5.11,0,0,0,8.73,3.62c12.81-12.8,13.17-25,11.21-33C35.73,56.4,30,49.62,26.74,46.38Z"/></svg>