<svg id="Layer_1" data-name="Layer 1" xmlns="http://www.w3.org/2000/svg" viewBox="0 0 100 100"><defs><style>.cls-1{fill:#d0d2d3;}.cls-2{fill:#fff;}</style></defs><title>gas</title><path class="cls-1" d="M36.76,84.3a1.1,1.1,0,1,0,1.1,1.09A1.09,1.09,0,0,0,36.76,84.3Z"/><path class="cls-1" d="M57.16,88.54a.88.88,0,1,0,.88.88A.88.88,0,0,0,57.16,88.54Z"/><path class="cls-1" d="M93.83,76.25a3.9,3.9,0,1,0,3.89,3.89A3.9,3.9,0,0,0,93.83,76.25Z"/><path class="cls-1" d="M91.81,72.25a4.44,4.44,0,0,0,1.86-8.48,11.31,11.31,0,0,0-3.83-16.45,9.19,9.19,0,0,0,2-5.5,9.42,9.42,0,0,0-5.92-8.72,5.79,5.79,0,0,0,1.24-3.47,6,6,0,0,0-5.95-5.95,5.88,5.88,0,0,0-5.08,3,14.61,14.61,0,0,0-10.25-4.19,14.37,14.37,0,0,0-2.8.28h0a13.08,13.08,0,1,0-26.16,0c0,.39.08.75.11,1.14a5.8,5.8,0,0,0-2.62,10.15l-.12.07a9.89,9.89,0,0,0-2.93-2,4.63,4.63,0,0,0,.24-1.23,4.37,4.37,0,1,0-8.73,0,4.23,4.23,0,0,0,.26,1.29A9.75,9.75,0,0,0,17.46,41s0,.07,0,.11a13,13,0,0,0-4.41-.82,13.09,13.09,0,0,0,0,26.17,12.74,12.74,0,0,0,3-.38,5.48,5.48,0,0,0,4.53,2.5,6,6,0,0,0,.61-.12,4.21,4.21,0,1,0,7.3,2.85,4,4,0,0,0-.23-1.15,4.55,4.55,0,0,0,7.56-3A11.52,11.52,0,0,0,39,68.37a6.94,6.94,0,0,0,2,4.4,1.83,1.83,0,0,0,1.63,1.14l0,0a6.73,6.73,0,0,0,3.2.88,6.7,6.7,0,0,0,1.1-.22,4,4,0,0,0,3.91,3.19A4.06,4.06,0,0,0,52.66,70a4.33,4.33,0,0,0,.68-2.22A4.43,4.43,0,0,0,52,64.61c-.08-.15-.19-.27-.27-.41a7.2,7.2,0,0,0,2.46.69,4.51,4.51,0,0,0,9-.47A4.44,4.44,0,0,0,61.45,61a7,7,0,0,0,.47-1.42,14.68,14.68,0,0,0,6.83-7.91,14.59,14.59,0,0,0,6.77-3.42,9.46,9.46,0,0,0,1,.81A11.31,11.31,0,0,0,87.43,68.16,4.41,4.41,0,0,0,91.81,72.25Z"/><path class="cls-1" d="M36.5,70.55a3.9,3.9,0,1,0,3.9,3.9A3.9,3.9,0,0,0,36.5,70.55Z"/><path class="cls-1" d="M97.87,45.84A2.13,2.13,0,1,0,100,48,2.14,2.14,0,0,0,97.87,45.84Z"/><circle class="cls-2" cx="14.38" cy="50.71" r="2.38"/><circle class="cls-2" cx="50.42" cy="21.17" r="2.75"/><circle class="cls-2" cx="60.88" cy="46.96" r="1.96"/><circle class="cls-2" cx="37.86" cy="54.6" r="6.62"/><circle class="cls-2" cx="79.92" cy="34" r="2.5"/><circle class="cls-2" cx="83.71" cy="61.79" r="3.79"/><circle class="cls-2" cx="43.17" cy="36.5" r="2.08"/><path class="cls-1" d="M36.76,84.3a1.1,1.1,0,1,0,1.1,1.09A1.09,1.09,0,0,0,36.76,84.3Z"/><path class="cls-1" d="M57.16,88.54a.88.88,0,1,0,.88.88A.88.88,0,0,0,57.16,88.54Z"/><path class="cls-1" d="M93.83,76.25a3.9,3.9,0,1,0,3.89,3.89A3.9,3.9,0,0,0,93.83,76.25Z"/><path class="cls-1" d="M91.81,72.25a4.44,4.44,0,0,0,1.86-8.48,11.31,11.31,0,0,0-3.83-16.45,9.19,9.19,0,0,0,2-5.5,9.42,9.42,0,0,0-5.92-8.72,5.79,5.79,0,0,0,1.24-3.47,6,6,0,0,0-5.95-5.95,5.88,5.88,0,0,0-5.08,3,14.61,14.61,0,0,0-10.25-4.19,14.37,14.37,0,0,0-2.8.28h0a13.08,13.08,0,1,0-26.16,0c0,.39.08.75.11,1.14a5.8,5.8,0,0,0-2.62,10.15l-.12.07a9.89,9.89,0,0,0-2.93-2,4.63,4.63,0,0,0,.24-1.23,4.37,4.37,0,1,0-8.73,0,4.23,4.23,0,0,0,.26,1.29A9.75,9.75,0,0,0,17.46,41s0,.07,0,.11a13,13,0,0,0-4.41-.82,13.09,13.09,0,0,0,0,26.17,12.74,12.74,0,0,0,3-.38,5.48,5.48,0,0,0,4.53,2.5,6,6,0,0,0,.61-.12,4.21,4.21,0,1,0,7.3,2.85,4,4,0,0,0-.23-1.15,4.55,4.55,0,0,0,7.56-3A11.52,11.52,0,0,0,39,68.37a6.94,6.94,0,0,0,2,4.4,1.83,1.83,0,0,0,1.63,1.14l0,0a6.73,6.73,0,0,0,3.2.88,6.7,6.7,0,0,0,1.1-.22,4,4,0,0,0,3.91,3.19A4.06,4.06,0,0,0,52.66,70a4.33,4.33,0,0,0,.68-2.22A4.43,4.43,0,0,0,52,64.61c-.08-.15-.19-.27-.27-.41a7.2,7.2,0,0,0,2.46.69,4.51,4.51,0,0,0,9-.47A4.44,4.44,0,0,0,61.45,61a7,7,0,0,0,.47-1.42,14.68,14.68,0,0,0,6.83-7.91,14.59,14.59,0,0,0,6.77-3.42,9.46,9.46,0,0,0,1,.81A11.31,11.31,0,0,0,87.43,68.16,4.41,4.41,0,0,0,91.81,72.25Z"/><path class="cls-1" d="M36.5,70.55a3.9,3.9,0,1,0,3.9,3.9A3.9,3.9,0,0,0,36.5,70.55Z"/><path class="cls-1" d="M97.87,45.84A2.13,2.13,0,1,0,100,48,2.14,2.14,0,0,0,97.87,45.84Z"/><circle class="cls-2" cx="14.38" cy="50.71" r="2.38"/><circle class="cls-2" cx="50.42" cy="21.17" r="2.75"/><circle class="cls-2" cx="60.88" cy="46.96" r="1.96"/><circle class="cls-2" cx="37.86" cy="54.6" r="6.62"/><circle class="cls-2" cx="79.92" cy="34" r="2.5"/><circle class="cls-2" cx="83.71" cy="61.79" r="3.79"/><circle class="cls-2" cx="43.17" cy="36.5" r="2.08"/></svg>