<svg id="Layer_1" data-name="Layer 1" xmlns="http://www.w3.org/2000/svg" viewBox="0 0 100 100"><defs><style>.cls-1{fill:#ebf7fd;}.cls-2{fill:#6ab8d9;}</style></defs><title>big</title><path class="cls-1" d="M50,6A44,44,0,1,1,6,50,44,44,0,0,1,50,6m0-6a50,50,0,1,0,50,50A50.06,50.06,0,0,0,50,0Z"/><path class="cls-2" d="M25.44,76.07l14.77-4.93A1.19,1.19,0,0,0,40.38,69l-3.49-1.78,9.86-9.86a2.87,2.87,0,0,0,0-4.06h0a2.87,2.87,0,0,0-4.06,0l-9.86,9.86-1.78-3.49a1.19,1.19,0,0,0-2.19.17L23.93,74.56A1.2,1.2,0,0,0,25.44,76.07Z"/><path class="cls-2" d="M74.56,23.93,59.79,28.86a1.19,1.19,0,0,0-.17,2.19l3.49,1.78-9.86,9.86a2.87,2.87,0,0,0,0,4.06h0a2.87,2.87,0,0,0,4.06,0l9.86-9.86L69,40.38a1.19,1.19,0,0,0,2.19-.17l4.93-14.77A1.2,1.2,0,0,0,74.56,23.93Z"/><path class="cls-2" d="M76.07,74.56,71.14,59.79A1.19,1.19,0,0,0,69,59.62l-1.78,3.49-9.86-9.86a2.87,2.87,0,0,0-4.06,0h0a2.87,2.87,0,0,0,0,4.06l9.86,9.86L59.62,69a1.19,1.19,0,0,0,.17,2.19l14.77,4.93A1.2,1.2,0,0,0,76.07,74.56Z"/><path class="cls-2" d="M23.93,25.44l4.93,14.77a1.19,1.19,0,0,0,2.19.17l1.78-3.49,9.86,9.86a2.87,2.87,0,0,0,4.06,0h0a2.87,2.87,0,0,0,0-4.06l-9.86-9.86,3.49-1.78a1.19,1.19,0,0,0-.17-2.19L25.44,23.93A1.2,1.2,0,0,0,23.93,25.44Z"/></svg>