<svg id="Layer_1" data-name="Layer 1" xmlns="http://www.w3.org/2000/svg" xmlns:xlink="http://www.w3.org/1999/xlink" viewBox="0 0 100 100"><defs><style>.cls-1{fill:none;}.cls-2{fill:#3e3e3f;}.cls-3{clip-path:url(#clip-path);}.cls-4{fill:#58595b;}.cls-5{fill:#ffc640;}.cls-6{fill:#ffdb91;}.cls-7{clip-path:url(#clip-path-2);}.cls-8{fill:#ce8561;}.cls-9{fill:#f6ccb5;}.cls-10{fill:#e1ab75;}.cls-11{fill:#ffcf2b;}.cls-12{fill:#ffb902;}.cls-13{fill:#fb9400;}.cls-14{fill:#f5bebd;}.cls-15{clip-path:url(#clip-path-3);}.cls-16{fill:#ebb1b2;}.cls-17{fill:#c5c7c9;}.cls-18{fill:#f9b68a;}.cls-19{fill:#f5853c;}.cls-20{fill:#ffdd8c;}.cls-21{fill:#ffc63f;}.cls-22{clip-path:url(#clip-path-4);}</style><clipPath id="clip-path"><path class="cls-1" d="M85.71,0H14.29A14.33,14.33,0,0,0,0,14.29V85.71A14.33,14.33,0,0,0,14.29,100H85.71A14.33,14.33,0,0,0,100,85.71V14.29A14.33,14.33,0,0,0,85.71,0Z"/></clipPath><clipPath id="clip-path-2"><circle class="cls-1" cx="29.79" cy="81.84" r="9.6"/></clipPath><clipPath id="clip-path-3"><path class="cls-1" d="M24.91,50.36a4.53,4.53,0,1,1-4.53-4.52,4.53,4.53,0,0,1,4.53,4.52Zm0,0"/></clipPath><clipPath id="clip-path-4"><path class="cls-1" d="M205.71,0H134.29A14.33,14.33,0,0,0,120,14.29V85.71A14.33,14.33,0,0,0,134.29,100h71.42A14.33,14.33,0,0,0,220,85.71V14.29A14.33,14.33,0,0,0,205.71,0Z"/></clipPath></defs><title>universe</title><path class="cls-2" d="M85.71,0H14.29A14.33,14.33,0,0,0,0,14.29V85.71A14.33,14.33,0,0,0,14.29,100H85.71A14.33,14.33,0,0,0,100,85.71V14.29A14.33,14.33,0,0,0,85.71,0Z"/><g class="cls-3"><path class="cls-4" d="M-46.37,76.47C21.57,41.75,79.53,18.9,85.48,24.33l44-22.49C104.59,2.26,32.6,30-48.85,71.61c-18.9,9.65-36.82,19.33-53.5,28.75H-91C-77.3,92.66-62.28,84.61-46.37,76.47Z"/><path class="cls-4" d="M138.51,4.6c-1-2-4.26-2.84-9-2.76l-44,22.49c.14.13.4.2.49.36,3.5,6.86-48.72,40.58-117.06,75.67H6.46C87.11,56.66,144.21,15.76,138.51,4.6Z"/></g><circle class="cls-5" cx="16.31" cy="87.21" r="0.81"/><circle class="cls-5" cx="12.64" cy="47.21" r="0.81"/><circle class="cls-5" cx="50.81" cy="6.1" r="0.81"/><circle class="cls-5" cx="69.47" cy="29.12" r="0.81"/><circle class="cls-5" cx="81.54" cy="86.87" r="0.81"/><circle class="cls-5" cx="92.53" cy="54.04" r="0.69"/><circle class="cls-5" cx="12.84" cy="18.94" r="0.69"/><circle class="cls-5" cx="65.78" cy="74.7" r="0.34"/><circle class="cls-5" cx="91.91" cy="22.12" r="0.34"/><circle class="cls-5" cx="36.4" cy="14.29" r="0.34"/><circle class="cls-5" cx="53.02" cy="39.63" r="0.34"/><circle class="cls-5" cx="63.43" cy="15.78" r="0.34"/><circle class="cls-5" cx="60.72" cy="83.18" r="0.34"/><path class="cls-5" d="M57,12.65S44.87,22.73,43.54,23.49a2.77,2.77,0,0,1-2.74-4.82C42.13,17.91,57,12.65,57,12.65Z"/><circle class="cls-5" cx="42.17" cy="21.08" r="2.77"/><path class="cls-5" d="M55.27,89.35s-5.39,4.47-6,4.81A1.23,1.23,0,1,1,48.07,92C48.66,91.68,55.27,89.35,55.27,89.35Z"/><circle class="cls-5" cx="48.68" cy="93.09" r="1.23"/><path class="cls-5" d="M95.5,28.47S89.3,33.62,88.62,34a1.42,1.42,0,0,1-1.4-2.46C87.9,31.16,95.5,28.47,95.5,28.47Z"/><circle class="cls-5" cx="87.92" cy="32.78" r="1.42"/><path class="cls-5" d="M25.49,60.62S11,72.7,9.36,73.6a3.32,3.32,0,1,1-3.28-5.77C7.67,66.92,25.49,60.62,25.49,60.62Z"/><circle class="cls-5" cx="7.72" cy="70.72" r="3.32"/><circle class="cls-6" cx="46" cy="45.33" r="7.17"/><circle class="cls-5" cx="46" cy="45.33" r="5.81"/><g class="cls-7"><ellipse class="cls-8" cx="29.29" cy="88.49" rx="9.6" ry="3.43"/><ellipse class="cls-9" cx="28.79" cy="84.22" rx="14.61" ry="4.86" transform="translate(-4.46 1.66) rotate(-3.06)"/><ellipse class="cls-10" cx="29.5" cy="81.84" rx="5.03" ry="14.08" transform="matrix(0.08, -1, 1, 0.08, -54.49, 104.55)"/><ellipse class="cls-8" cx="30.04" cy="79.3" rx="5.6" ry="15.67" transform="translate(-53.8 92.05) rotate(-77.89)"/><ellipse class="cls-9" cx="30.55" cy="77.98" rx="12.96" ry="4.31"/><ellipse class="cls-10" cx="30.41" cy="74.6" rx="5.03" ry="14.08" transform="translate(-47.65 94.5) rotate(-82.12)"/><ellipse class="cls-8" cx="31.08" cy="73.71" rx="9.6" ry="3.43"/><ellipse class="cls-9" cx="31.87" cy="72.61" rx="7.01" ry="2.33"/></g><circle class="cls-10" cx="35.52" cy="82.33" r="1.26"/><circle class="cls-11" cx="72.19" cy="46.99" r="3.54"/><path class="cls-12" d="M69.34,49.11a5.56,5.56,0,0,0,1-1,2.65,2.65,0,0,0,.33-1.87c0-.57.29-1.35.07-1.75a1.73,1.73,0,0,0-.44-.54,3.74,3.74,0,0,0-.63.5A3.55,3.55,0,0,0,69.34,49.11Z"/><path class="cls-12" d="M72.14,43.45a3.87,3.87,0,0,0-1,.16l.11.07c.52.33.47.93.46,1.7,0,.54.35,1.2.19,1.81a17.77,17.77,0,0,1-1.11,2.12,4.16,4.16,0,0,0-.23.83,3.6,3.6,0,0,0,2.82.2C74.73,47.34,72.49,44,72.14,43.45Z"/><path class="cls-12" d="M73.07,43.56a3.86,3.86,0,0,0,.51.76c.33.4,1.1.68,1.4,1.22s-.23,1.66-.12,2.25a6,6,0,0,0,.39,1,3.54,3.54,0,0,0-.56-4.29A3.46,3.46,0,0,0,73.07,43.56Z"/><circle class="cls-11" cx="69.64" cy="47.74" r="0.26"/><circle class="cls-11" cx="73.05" cy="49.33" r="0.26"/><circle class="cls-12" cx="71.26" cy="44.8" r="0.16"/><circle class="cls-12" cx="73.85" cy="45.16" r="0.15"/><circle class="cls-12" cx="74.42" cy="47.45" r="0.13"/><circle class="cls-11" cx="69.54" cy="45.61" r="0.15"/><path class="cls-13" d="M74.29,44.14c.12.09.23.19.34.29a7.44,7.44,0,0,1,.86-.56,18.2,18.2,0,0,1-3,3.63,18.2,18.2,0,0,1-3.63,3,9.88,9.88,0,0,1,.72-1.08c-.1-.11-.19-.22-.28-.34-.77,1-1.16,1.75-1,2,.35.34,2.35-1.09,4.47-3.21s3.55-4.12,3.21-4.47C75.83,43.16,75.18,43.48,74.29,44.14Z"/><path class="cls-14" d="M24.91,50.36a4.53,4.53,0,1,1-4.53-4.52,4.53,4.53,0,0,1,4.53,4.52Zm0,0"/><g class="cls-15"><path class="cls-16" d="M15.18,52.42a6.91,6.91,0,0,0,1.75-.34,11.35,11.35,0,0,1,3.89-.52,7.61,7.61,0,0,1,2.52.64c.21.22-.38.54-.65.6s-.77-.11-1.07,0-1,.54-2,.89-1.21.74-2.47.66S15.18,52.42,15.18,52.42Z"/><path class="cls-16" d="M25,48.22a9.45,9.45,0,0,0-3.36.37,9,9,0,0,1-1.81.94c-.61.16-1,.39-.89.53a6.34,6.34,0,0,0,2.44.4c.57-.12,1.67-.89,2.81-.51s1.83.38,2.07.2S25,48.22,25,48.22Z"/><path class="cls-16" d="M16.34,47.06a7.47,7.47,0,0,0,2.18.6,14.91,14.91,0,0,0,2.72-.3c.51-.15-.38-.45-.65-.54s-1.46.15-1.8.13-1.06-.44-1.47-.51S16.34,47.06,16.34,47.06Z"/><circle class="cls-16" cx="17.59" cy="48.89" r="0.15"/><circle class="cls-16" cx="22.86" cy="47.34" r="0.17"/><circle class="cls-16" cx="23.01" cy="51.13" r="0.18"/><circle class="cls-16" cx="21.07" cy="54.19" r="0.25"/></g><circle class="cls-17" cx="87.28" cy="81.84" r="4.32"/><ellipse class="cls-18" cx="22.67" cy="22.71" rx="5.87" ry="2.64" transform="translate(-9.3 25.47) rotate(-49.98)"/><ellipse class="cls-19" cx="22.67" cy="22.71" rx="3.14" ry="1.41" transform="translate(-9.3 25.47) rotate(-49.98)"/><path class="cls-18" d="M24.4,24.13c.87-1.53,1.81-2.95,2.58-4.43a10.46,10.46,0,0,0,.93-2.26A3.61,3.61,0,0,0,27.8,15a3,3,0,0,1,.88,2.54,7.05,7.05,0,0,1-.81,2.6A11.36,11.36,0,0,1,24.4,24.13Z"/><path class="cls-18" d="M20.46,21.74c-.88,1.54-1.82,3-2.59,4.44A11,11,0,0,0,17,28.44a3.58,3.58,0,0,0,.11,2.41,2.86,2.86,0,0,1-.88-2.53A7.1,7.1,0,0,1,17,25.71,11.34,11.34,0,0,1,20.46,21.74Z"/><ellipse class="cls-20" cx="77.32" cy="67.38" rx="5.36" ry="1.83" transform="translate(-13.71 20.14) rotate(-13.64)"/><ellipse class="cls-21" cx="77.32" cy="67.38" rx="3.47" ry="1.19" transform="translate(-13.71 20.14) rotate(-13.64)"/><circle class="cls-6" cx="53.5" cy="69.17" r="3.33"/><circle class="cls-5" cx="53.5" cy="69.17" r="2.7"/><g class="cls-22"><path class="cls-4" d="M-83,135.57c184-94,341-155.93,357.11-141.2L393.26-66.55c-67.42,1.13-262.4,76.19-483,189-51.17,26.15-99.73,52.35-144.88,77.88H-204C-166.79,179.43-126.13,157.6-83,135.57Z"/><path class="cls-4" d="M417.7-59.09c-2.8-5.48-11.54-7.68-24.44-7.46L274.09-5.63c.38.34,1.09.51,1.31,1,9.5,18.58-132,109.91-317,205H60.07C278.5,81.93,433.16-28.85,417.7-59.09Z"/></g></svg>