<svg id="Layer_1" data-name="Layer 1" xmlns="http://www.w3.org/2000/svg" xmlns:xlink="http://www.w3.org/1999/xlink" viewBox="0 0 100 100"><defs><style>.cls-1{fill:none;}.cls-2{clip-path:url(#clip-path);}.cls-3{fill:#58595b;}.cls-4{fill:#3e3e3f;}.cls-5{clip-path:url(#clip-path-2);}.cls-6{fill:#ffeac1;}.cls-7{fill:#ffdb91;}.cls-8{fill:#ffc640;}.cls-9{fill:#f9a63f;}.cls-10{fill:#f5853c;}.cls-11{fill:#e3e3ff;}.cls-12{fill:#c7c7ff;}.cls-13{fill:#aaabff;}.cls-14{fill:#8e8fff;}.cls-15{fill:#7273ff;}.cls-16{fill:#ffc63f;}.cls-17{fill:#ffdd8c;}.cls-18{fill:#ffe5b1;}.cls-19{fill:#f9b68a;}</style><clipPath id="clip-path"><path class="cls-1" d="M-34.29,0h-71.42A14.33,14.33,0,0,0-120,14.29V85.71A14.33,14.33,0,0,0-105.71,100h71.42A14.33,14.33,0,0,0-20,85.71V14.29A14.33,14.33,0,0,0-34.29,0Z"/></clipPath><clipPath id="clip-path-2"><path class="cls-1" d="M85.71,0H14.29A14.33,14.33,0,0,0,0,14.29V85.71A14.33,14.33,0,0,0,14.29,100H85.71A14.33,14.33,0,0,0,100,85.71V14.29A14.33,14.33,0,0,0,85.71,0Z"/></clipPath></defs><title>galaxy cluster</title><g class="cls-2"><path class="cls-3" d="M-166.37,76.47C-98.43,41.75-40.47,18.9-34.52,24.33l44-22.49C-15.41,2.26-87.4,30-168.85,71.61c-18.9,9.65-36.82,19.33-53.5,28.75H-211C-197.3,92.66-182.28,84.61-166.37,76.47Z"/><path class="cls-3" d="M18.51,4.6c-1-2-4.26-2.84-9-2.76l-44,22.49c.14.13.4.2.49.36,3.5,6.86-48.72,40.58-117.06,75.67h37.55C-32.89,56.66,24.21,15.76,18.51,4.6Z"/></g><path class="cls-4" d="M85.71,0H14.29A14.33,14.33,0,0,0,0,14.29V85.71A14.33,14.33,0,0,0,14.29,100H85.71A14.33,14.33,0,0,0,100,85.71V14.29A14.33,14.33,0,0,0,85.71,0Z"/><g class="cls-5"><path class="cls-3" d="M-203,135.57c184-94,341-155.93,357.11-141.2L273.26-66.55c-67.42,1.13-262.4,76.19-483,189-51.17,26.15-99.73,52.35-144.88,77.88H-324C-286.79,179.43-246.13,157.6-203,135.57Z"/><path class="cls-3" d="M297.7-59.09c-2.8-5.48-11.54-7.68-24.44-7.46L154.09-5.63c.38.34,1.09.51,1.31,1,9.5,18.58-132,109.91-317,205H-59.93C158.5,81.93,313.16-28.85,297.7-59.09Z"/></g><path class="cls-6" d="M44.51,56.17c-3.3-4.22-13.6-1.68-23,5.68,11.3-6.83,16.87-5.76,19-4.61a3.6,3.6,0,0,1,1,.75h0l.11.12.12.14h0c1.21,1.54,1,4-.35,6.76-.17.35-.35.69-.54,1a2.53,2.53,0,0,0-.13.22,34.38,34.38,0,0,1-8.52,9.35l-.43.33-.13.1-.3.22-.15.11-.3.22-.13.09c-.29.21-.57.41-.86.6l-.13.09-.3.2-.15.1-.31.2L29,78l-.86.53-.12.07-.31.19-.14.08-.31.17-.12.07-.85.46-.12.06-.31.16-.13.07L25.4,80l-.12.06-.41.19c6.75-3,15.46-8.27,19.31-15.64,1.62-3.44,1.85-6.49.33-8.43Zm0,0"/><path class="cls-6" d="M12.83,75.51v0a1.8,1.8,0,0,1,.08-.21v0L13,75,13,75a1.67,1.67,0,0,0,.08-.2l0-.06c.06-.15.13-.3.2-.45h0v0l.11-.22a32.28,32.28,0,0,1,9.21-10.65,36.86,36.86,0,0,1,8.8-5.21c-17.81,7-24.3,20.5-21,24.68,2.76,3.53,10.43,2.32,18.38-2.48-13,4.77-15.87,1.69-16.36-1a6.93,6.93,0,0,1,.37-3.78Zm0,0"/><rect class="cls-1" x="10.82" y="52.88" width="33.63" height="33.31" transform="translate(-44.74 88.52) rotate(-83.02)"/><path class="cls-7" d="M25.4,80l.31-.15.13-.07.31-.16.12-.06.85-.46.12-.07.31-.17.14-.08.31-.19.12-.07L29,78l.12-.08.31-.2.15-.1.3-.2.13-.09c.29-.19.57-.39.86-.6l.13-.09.3-.22.15-.11.3-.22.13-.1.43-.33a34.38,34.38,0,0,0,8.52-9.35,2.53,2.53,0,0,1,.13-.22c.19-.36.37-.7.54-1,1.34-2.78,1.56-5.22.35-6.76h0l-.12-.14L41.6,58h0a3.6,3.6,0,0,0-1-.75c-2-1-5.33-.62-9.08.89a36.86,36.86,0,0,0-8.8,5.21A32.28,32.28,0,0,0,13.46,74c0,.07-.07.15-.11.22v0h0c-.07.15-.14.3-.2.45l0,.06A1.67,1.67,0,0,1,13,75L13,75l-.08.2v0a1.8,1.8,0,0,0-.08.21v0a6.93,6.93,0,0,0-.37,3.78,3.57,3.57,0,0,0,.66,1.42c1.83,2.34,6.46,2,11.75-.47l.41-.19L25.4,80Zm-9.6-1.37c-1.88-2.41,1.82-8.45,8.26-13.5S37.27,58,39.15,60.36s-1.81,8.45-8.26,13.49S17.68,81,15.8,78.62Zm0,0"/><path class="cls-8" d="M39.15,60.36c-1.88-2.41-8.64-.28-15.09,4.76S13.92,76.21,15.8,78.62s8.64.27,15.09-4.77S41,62.77,39.15,60.36ZM19.25,75.92c-1.19-1.51,1.54-5.62,6.08-9.18s9.19-5.2,10.38-3.69-1.54,5.63-6.09,9.18-9.19,5.21-10.37,3.69Zm0,0"/><path class="cls-9" d="M35.71,63.05c-1.19-1.51-5.83.14-10.38,3.69s-7.27,7.67-6.08,9.18,5.83-.13,10.37-3.69,7.27-7.66,6.09-9.18Zm-7.38,7.54c-2.42,1.89-4.77,2.94-5.24,2.33s.4-3.53,2.83-5.42,5.47-2,5.95-1.44-1.11,2.63-3.54,4.53Zm0,0"/><path class="cls-10" d="M25.92,67.5c-2.43,1.89-3.31,4.81-2.83,5.42s2.82-.44,5.24-2.33,4-3.93,3.54-4.53-3.53-.46-5.95,1.44Zm0,0"/><path class="cls-11" d="M86.3,45.62C88.76,39,78.75,29.16,63.94,23.68c15.53,8,18.18,15,18.4,18.23a5,5,0,0,1-.11,1.69v0l-.06.21a2.09,2.09,0,0,1-.08.23h0c-.89,2.43-3.79,3.87-7.85,4.3-.5,0-1,.09-1.55.11h-.34a45.54,45.54,0,0,1-16.43-3.1l-.66-.25L55,45.05l-.46-.18-.22-.09-.46-.19-.2-.08L52.43,44l-.18-.08-.45-.21-.2-.09-.44-.21L51,43.28l-1.19-.59-.17-.09-.42-.22L49,42.27l-.41-.22L48.44,42c-.38-.21-.75-.42-1.11-.64l-.15-.09L46.79,41l-.17-.11-.38-.24-.15-.09-.51-.33c8.09,5.51,20,11.66,31,10.87,5-.57,8.59-2.41,9.72-5.48Zm0,0"/><path class="cls-11" d="M42.55,23.4h0l.29-.07H43l.28-.06h.09l.27-.05h.09l.65-.1h.05l.32,0c4.91-.53,11.53.44,18.38,3a49.66,49.66,0,0,1,12,6.29C54.77,17.16,35.12,19.2,32.69,25.78c-2.06,5.56,4.62,13.35,15.54,18.95C33.82,33.38,35.31,28.06,38,25.61a9.28,9.28,0,0,1,4.51-2.21Zm0,0"/><rect class="cls-1" x="37.33" y="13.9" width="44.46" height="44.03" transform="translate(-9.56 28.16) rotate(-24.69)"/><path class="cls-12" d="M46.24,40.65l.38.24.17.11.39.23.15.09c.36.22.73.43,1.11.64l.16.09.41.22.19.11.42.22.17.09,1.19.59.18.09.44.21.2.09.45.21.18.08,1.27.55.2.08.46.19.22.09.46.18.21.08.66.25a45.54,45.54,0,0,0,16.43,3.1h.34c.54,0,1-.06,1.55-.11,4.06-.43,7-1.87,7.85-4.3h0a2.09,2.09,0,0,0,.08-.23l.06-.21v0a5,5,0,0,0,.11-1.69c-.29-3-3-6.43-7.3-9.6a49.66,49.66,0,0,0-12-6.29c-6.85-2.53-13.47-3.5-18.38-3l-.32,0h-.05l-.65.1h-.09l-.27.05h-.09l-.28.06h-.07l-.29.07h0A9.28,9.28,0,0,0,38,25.61a4.79,4.79,0,0,0-1.14,1.73C35.54,31,39.14,36,45.58,40.23l.51.33.15.09ZM41.12,28.9c1.4-3.79,10.77-3.82,20.92-.07S79.27,38.71,77.87,42.5,67.1,46.33,57,42.57,39.72,32.69,41.12,28.9Zm0,0"/><path class="cls-13" d="M77.87,42.5c1.4-3.79-5.69-9.91-15.83-13.67s-19.52-3.72-20.92.07S46.8,38.81,57,42.57s19.51,3.72,20.92-.07ZM46.54,30.91c.88-2.39,7.4-2.17,14.55.47s12.24,6.73,11.35,9.12S65.05,42.67,57.9,40s-12.24-6.73-11.36-9.11Zm0,0"/><path class="cls-14" d="M72.44,40.5c.89-2.39-4.2-6.47-11.35-9.12s-13.67-2.86-14.55-.47S50.74,37.37,57.9,40s13.66,2.86,14.54.48ZM58.85,37.43C55,36,52.23,34.1,52.59,33.15s4.25-2,8.06-.58,6.1,4.73,5.75,5.69-3.73.58-7.55-.83Zm0,0"/><path class="cls-15" d="M60.65,32.57c-3.81-1.41-7.71-.38-8.06.58S55,36,58.85,37.43s7.2,1.78,7.55.83S64.47,34,60.65,32.57Zm0,0"/><circle class="cls-10" cx="23.06" cy="40.39" r="1.73"/><circle class="cls-10" cx="30.16" cy="15.97" r="1.49"/><circle class="cls-10" cx="85.6" cy="13.87" r="2.1"/><circle class="cls-10" cx="67.96" cy="79.29" r="1.29"/><circle class="cls-10" cx="20.17" cy="93.5" r="2"/><circle class="cls-10" cx="5.33" cy="17.83" r="1.16"/><circle class="cls-16" cx="89.79" cy="48.92" r="1.08"/><circle class="cls-16" cx="7.7" cy="57.38" r="1.21"/><ellipse class="cls-17" cx="48.32" cy="10.96" rx="5.36" ry="1.83" transform="translate(-1.22 11.7) rotate(-13.64)"/><circle class="cls-16" cx="56.39" cy="91.12" r="3.22"/><circle class="cls-18" cx="83.07" cy="92.88" r="1.76"/><ellipse class="cls-16" cx="48.32" cy="10.96" rx="3.47" ry="1.19" transform="translate(-1.22 11.7) rotate(-13.64)"/><ellipse class="cls-19" cx="84.83" cy="74.18" rx="2.64" ry="5.87" transform="translate(-20.32 114.69) rotate(-62.24)"/><ellipse class="cls-10" cx="84.83" cy="74.18" rx="1.41" ry="3.14" transform="translate(-20.32 114.69) rotate(-62.24)"/><path class="cls-19" d="M83.81,76.17c1.69.53,3.27,1.14,4.88,1.58a10.69,10.69,0,0,0,2.41.42,3.66,3.66,0,0,0,2.34-.61A2.9,2.9,0,0,1,91.15,79a7.09,7.09,0,0,1-2.72-.23A11.53,11.53,0,0,1,83.81,76.17Z"/><path class="cls-19" d="M85.31,71.81c-1.69-.53-3.27-1.15-4.88-1.59A11.28,11.28,0,0,0,78,69.8a3.57,3.57,0,0,0-2.33.62A2.89,2.89,0,0,1,78,69a7,7,0,0,1,2.71.24A11.23,11.23,0,0,1,85.31,71.81Z"/><circle class="cls-18" cx="31.49" cy="48.66" r="0.82"/><circle class="cls-18" cx="11.29" cy="38.62" r="0.62"/><circle class="cls-18" cx="18.2" cy="25.44" r="0.6"/><circle class="cls-18" cx="61.08" cy="19.67" r="1.08"/><circle class="cls-11" cx="82.45" cy="26.66" r="0.62"/><circle class="cls-11" cx="63.05" cy="60.17" r="1.12"/><circle class="cls-11" cx="46.67" cy="74.47" r="0.75"/><circle class="cls-15" cx="50.67" cy="50.15" r="0.67"/><circle class="cls-15" cx="80.52" cy="59.31" r="1.93"/><circle class="cls-15" cx="9.06" cy="28.88" r="2.23"/><circle class="cls-15" cx="39.13" cy="89.12" r="0.87"/><circle class="cls-15" cx="71.21" cy="11.71" r="0.71"/><circle class="cls-15" cx="94.3" cy="32.74" r="0.86"/><circle class="cls-15" cx="6.37" cy="87.28" r="0.62"/><circle class="cls-15" cx="19.67" cy="8.83" r="0.5"/></svg>