<svg id="Layer_1" data-name="Layer 1" xmlns="http://www.w3.org/2000/svg" viewBox="0 0 100 100"><defs><style>.cls-1{fill:#6ab8d9;}.cls-2{fill:#7d7d7d;}.cls-3{fill:#616161;}.cls-4{fill:#58595b;}.cls-5{fill:#4a4a4c;}.cls-6{fill:#88c6e1;}</style></defs><title>stream</title><path class="cls-1" d="M66.22,23.13S64.75,30.07,61.84,31C51.57,34.34,23.9,35.72,21.22,52.73,17.24,78,45,81.4,53.39,81.4c26.34,0,40.94-5.06,45.45-15.22,0,0-47-8.44-47.5-17.44s16.49-3.08,18.82-17.51C70.44,29.49,69.75,23.63,66.22,23.13Z"/><path class="cls-2" d="M60.39,47.55l37.52,6.09S91,24.69,83.61,16.86,64,15.44,62.4,26.49,60.39,47.55,60.39,47.55Z"/><path class="cls-3" d="M72.23,58.83s-14.5,2.82-22-3.6c-2-1.67-4.26-16.15,3.48-23.7C63,22.41,74.41,16.89,72.23,58.83Z"/><path class="cls-4" d="M99.86,64.88l-1,1.3s-11.37,5.52-29.64-3C67.74,62.55,67.78,36.76,81.68,38,95.1,39.12,101,47,99.86,64.88Z"/><rect class="cls-1" x="29.24" y="37.35" width="3.14" height="7.7" rx="0.7" ry="0.7" transform="translate(-19.72 50.84) rotate(-64.01)"/><rect class="cls-1" x="32.64" y="36.42" width="3.14" height="7.7" rx="0.7" ry="0.7" transform="translate(-16.98 53.37) rotate(-64.01)"/><rect class="cls-1" x="33.01" y="34.89" width="3.14" height="7.7" rx="0.7" ry="0.7" transform="translate(28.91 -12.88) rotate(35.48)"/><path class="cls-1" d="M27.4,34.35a11.18,11.18,0,0,1,1,2.38,11.65,11.65,0,0,1-2.35-1.07.94.94,0,0,1,0-1.33A.93.93,0,0,1,27.4,34.35Z"/><path class="cls-1" d="M39.52,31.06a7.35,7.35,0,0,1-1.08,1.15,7,7,0,0,1,0-1.58.57.57,0,0,1,.74-.31A.56.56,0,0,1,39.52,31.06Z"/><rect class="cls-1" x="79.39" y="62.9" width="3.73" height="9.14" rx="0.83" ry="0.83" transform="translate(-24.35 66.01) rotate(-38.91)"/><rect class="cls-1" x="83.51" y="63.61" width="3.73" height="9.14" rx="0.83" ry="0.83" transform="translate(-23.88 68.75) rotate(-38.91)"/><rect class="cls-1" x="84.67" y="62.15" width="3.73" height="9.14" rx="0.83" ry="0.83" transform="translate(102.15 -41.43) rotate(60.58)"/><path class="cls-1" d="M81,58.4a13.33,13.33,0,0,1-.11,3.06,14.18,14.18,0,0,1-2-2.33A1.11,1.11,0,1,1,81,58.4Z"/><path class="cls-1" d="M95.71,61a8.29,8.29,0,0,1-1.74.69A8.35,8.35,0,0,1,94.79,60a.68.68,0,0,1,.92,1Z"/><circle class="cls-3" cx="92.4" cy="54.82" r="1.24"/><circle class="cls-5" cx="61.28" cy="40.95" r="1.24"/><circle class="cls-3" cx="94.08" cy="47.5" r="1.24"/><circle class="cls-3" cx="83.61" cy="48.74" r="1.24"/><circle class="cls-5" cx="56.1" cy="36.36" r="1.24"/><circle class="cls-5" cx="64.29" cy="31.24" r="1.24"/><path class="cls-3" d="M75.29,69.48c-2,0-3.6,1.12-3.85,2.56h7.71C78.9,70.6,77.28,69.48,75.29,69.48Z"/><path class="cls-4" d="M69.79,70.76c-3.52,0-6.4,2-6.84,4.54H76.63C76.19,72.74,73.32,70.76,69.79,70.76Z"/><path class="cls-4" d="M31.61,50a2.93,2.93,0,0,0-3.08,2H34.7A3,3,0,0,0,31.61,50Z"/><path class="cls-3" d="M43.2,39a2,2,0,0,0-2,1.35h4.08A2,2,0,0,0,43.2,39Z"/><polygon class="cls-6" points="35.61 45.4 46.01 45.4 40.81 44.06 35.61 45.4"/><polygon class="cls-6" points="33.9 60.07 54.7 60.07 44.3 57.39 33.9 60.07"/><polygon class="cls-6" points="53.89 70.34 64.29 70.34 59.09 67.67 53.89 70.34"/><polygon class="cls-6" points="81.01 74.28 86.22 74.28 83.61 72.94 81.01 74.28"/><path class="cls-2" d="M26.82,67.91S11.47,76.49,4.71,70.65C2.94,69.12,3.41,50.1,9.39,42.26,16.63,32.78,25.8,26.73,26.82,67.91Z"/><path class="cls-3" d="M19.78,55.09C9.59,55.09,1.26,64.55,0,76.76H39.56C38.3,64.55,30,55.09,19.78,55.09Z"/><ellipse class="cls-3" cx="19.78" cy="76.76" rx="19.78" ry="1.99"/><path class="cls-4" d="M37.3,68.06c-12.85,0-23.35,7.23-24.94,16.55H62.25C60.65,75.29,50.16,68.06,37.3,68.06Z"/><ellipse class="cls-4" cx="37.3" cy="84.61" rx="24.94" ry="1.99"/><circle class="cls-3" cx="45.63" cy="80.41" r="1.24"/><circle class="cls-3" cx="47.31" cy="73.1" r="1.24"/><circle class="cls-3" cx="36.84" cy="74.34" r="1.24"/><circle class="cls-5" cx="13.64" cy="70.65" r="1.24"/><circle class="cls-5" cx="11.55" cy="64.04" r="1.24"/><circle class="cls-5" cx="21.21" cy="63.87" r="1.24"/></svg>