<svg id="Layer_1" data-name="Layer 1" xmlns="http://www.w3.org/2000/svg" viewBox="0 0 100 100"><defs><style>.cls-1{fill:#6ab8d9;}.cls-2{fill:#09a582;}.cls-3{fill:#079676;}.cls-4{fill:#09a380;}.cls-5{fill:#58595b;}</style></defs><title>rivulet</title><rect class="cls-1" x="45.14" y="47.4" width="15.47" height="10.27"/><path class="cls-1" d="M74,87.18c2.38-5,2.49-13,2.49-17.19V62.34h0A15.39,15.39,0,0,0,61.06,47H22.16a7.64,7.64,0,0,1-7.65-7.65v-.08a7.65,7.65,0,0,1,7.65-7.65S51,28.84,51,24c0-6.93-30.74-7.73-30.74-7.73C6.89,16.2,0,23.09,0,31.58H0V47H0A15.38,15.38,0,0,0,15.38,62.34H57a4,4,0,0,1,4,4V70a7.66,7.66,0,0,1-7.65,7.65H29.84a7.65,7.65,0,0,0-7.65,7.65v.08A7.66,7.66,0,0,0,29.84,93S70.91,93.58,74,87.18Z"/><path class="cls-2" d="M14.38,37.28s-.83-23.56,27.38-23.34S87,37.28,87,37.28Z"/><path class="cls-3" d="M1.92,93.21s2.36-18,32.82-17.72c37,.37,59.93,17.72,59.93,17.72Z"/><path class="cls-4" d="M100,98.92H50.76s9.66-19.5,30.29-19.73S100,98.92,100,98.92Z"/><polygon class="cls-3" points="29.31 57.66 29.31 85.03 34.35 84.38 29.31 57.66"/><polygon class="cls-3" points="34.05 60.9 31.58 88.16 36.66 87.96 34.05 60.9"/><polygon class="cls-4" points="77.54 62.24 75.08 89.5 80.15 89.3 77.54 62.24"/><polygon class="cls-4" points="84.13 58.45 75.08 84.28 80.05 85.33 84.13 58.45"/><polygon class="cls-2" points="48.76 5.36 46.29 32.62 51.37 32.42 48.76 5.36"/><polygon class="cls-2" points="55.34 1.57 46.3 27.4 51.27 28.45 55.34 1.57"/><polygon class="cls-2" points="20.32 8.86 25.93 35.64 30.73 33.97 20.32 8.86"/><polygon class="cls-2" points="23.12 0.89 24.68 28.21 29.67 27.27 23.12 0.89"/><polygon class="cls-2" points="29.2 6.24 22.79 32.84 27.84 33.39 29.2 6.24"/><polygon class="cls-3" points="23.43 63.25 30.51 89.68 35.2 87.75 23.43 63.25"/><path class="cls-5" d="M62.21,52.39c-2.6,0-4.73,1.47-5.05,3.35H67.27C66.94,53.86,64.82,52.39,62.21,52.39Z"/><path class="cls-5" d="M70.84,58a2,2,0,0,0-2.15,1.43H73A2.07,2.07,0,0,0,70.84,58Z"/><path class="cls-5" d="M66.39,61.48a2,2,0,0,0-2.15,1.43h4.31A2.06,2.06,0,0,0,66.39,61.48Z"/><path class="cls-5" d="M20.32,53.16c-3.37,0-6.12,1.89-6.53,4.33H26.84C26.43,55.05,23.68,53.16,20.32,53.16Z"/><path class="cls-5" d="M13.78,22.74A2.66,2.66,0,0,0,11,24.59h5.57A2.65,2.65,0,0,0,13.78,22.74Z"/><path class="cls-5" d="M8.2,47.35a2.65,2.65,0,0,0-2.78,1.84H11A2.66,2.66,0,0,0,8.2,47.35Z"/></svg>