<svg id="Layer_1" data-name="Layer 1" xmlns="http://www.w3.org/2000/svg" viewBox="0 0 100 100"><defs><style>.cls-1{fill:#ebf7fd;}</style></defs><title>motion</title><path class="cls-1" d="M31.69,78.81H12a3.14,3.14,0,0,1,0-6.28H31.69a3.14,3.14,0,0,1,0,6.28Z"/><path class="cls-1" d="M71.19,78.81H45.59a3.14,3.14,0,0,1,0-6.28h25.6a22.53,22.53,0,0,0,0-45.06h-50a3.14,3.14,0,0,1,0-6.28h50a28.81,28.81,0,0,1,0,57.62Z"/><path class="cls-1" d="M68.5,63.07H3.14a3.14,3.14,0,0,1,0-6.28H68.5a3.14,3.14,0,0,1,0,6.28Z"/><path class="cls-1" d="M75.56,46.82H56.73a3.14,3.14,0,1,1,0-6.28H75.56a3.14,3.14,0,0,1,0,6.28Z"/><path class="cls-1" d="M43.83,46.82H12a3.14,3.14,0,0,1,0-6.28H43.83a3.14,3.14,0,0,1,0,6.28Z"/></svg>