<svg id="Layer_1" data-name="Layer 1" xmlns="http://www.w3.org/2000/svg" viewBox="0 0 100 100"><defs><style>.cls-1{fill:#6ab8d9;}.cls-2{fill:#ebf7fd;}</style></defs><title>small</title><path class="cls-1" d="M50,100a50,50,0,1,1,50-50A50.06,50.06,0,0,1,50,100ZM50,4.86A45.14,45.14,0,1,0,95.14,50,45.19,45.19,0,0,0,50,4.86Z"/><path class="cls-1" d="M45.17,53.2l-16,5.32A1.29,1.29,0,0,0,29,60.89l3.77,1.93L22.13,73.48a3.11,3.11,0,0,0,0,4.39h0a3.11,3.11,0,0,0,4.39,0L37.18,67.21,39.11,71a1.29,1.29,0,0,0,2.37-.19l5.32-16A1.29,1.29,0,0,0,45.17,53.2Z"/><path class="cls-1" d="M54.83,46.8l16-5.32A1.29,1.29,0,0,0,71,39.11l-3.77-1.93L77.87,26.52a3.11,3.11,0,0,0,0-4.39h0a3.11,3.11,0,0,0-4.39,0L62.82,32.79,60.89,29a1.29,1.29,0,0,0-2.37.19l-5.32,16A1.29,1.29,0,0,0,54.83,46.8Z"/><path class="cls-1" d="M53.2,54.83l5.32,16a1.29,1.29,0,0,0,2.37.19l1.93-3.77L73.48,77.87a3.11,3.11,0,0,0,4.39,0h0a3.11,3.11,0,0,0,0-4.39L67.21,62.82,71,60.89a1.29,1.29,0,0,0-.19-2.37l-16-5.32A1.29,1.29,0,0,0,53.2,54.83Z"/><path class="cls-1" d="M46.8,45.17l-5.32-16A1.29,1.29,0,0,0,39.11,29l-1.93,3.77L26.52,22.13a3.11,3.11,0,0,0-4.39,0h0a3.11,3.11,0,0,0,0,4.39L32.79,37.18,29,39.11a1.29,1.29,0,0,0,.19,2.37l16,5.32A1.29,1.29,0,0,0,46.8,45.17Z"/><circle class="cls-2" cx="50" cy="50" r="2.23"/></svg>