<svg id="Layer_1" data-name="Layer 1" xmlns="http://www.w3.org/2000/svg" viewBox="0 0 100 100"><defs><style>.cls-1{fill:#543732;}.cls-2{fill:#6e4a45;}.cls-3{fill:#885e59;}.cls-4,.cls-5{fill:#ad7770;}.cls-4{opacity:0.54;}.cls-6{fill:#422b28;}</style></defs><title>soil</title><path class="cls-1" d="M94.33,47.22a7.81,7.81,0,0,0,.18-1.62,7.7,7.7,0,0,0-7.7-7.69H79.12a7.69,7.69,0,0,0-7.69-7.69H56.57a6,6,0,0,0-6-5.49H37.36a6,6,0,0,0-6,5.49H28.57a7.69,7.69,0,0,0-7.69,7.69,7.69,7.69,0,0,0-7.69,7.69H11A11,11,0,0,0,8.38,67.26a7.35,7.35,0,0,0-.14,1.42,7.69,7.69,0,0,0,7.69,7.69H36.81a7.7,7.7,0,0,0,7.7,7.7h22a7.7,7.7,0,0,0,7.7-7.7h1.64a7.69,7.69,0,0,0,7.7-7.69h4.94a11.53,11.53,0,0,0,5.87-21.46Z"/><path class="cls-2" d="M94.33,42.83a8,8,0,0,0,.18-1.62,7.69,7.69,0,0,0-7.7-7.69H79.12a7.69,7.69,0,0,0-7.69-7.7H56.57a6,6,0,0,0-6-5.49H37.36a6,6,0,0,0-6,5.49H28.57a7.69,7.69,0,0,0-7.69,7.7,7.69,7.69,0,0,0-7.69,7.69H11A11,11,0,0,0,8.38,62.86a7.46,7.46,0,0,0-.14,1.43A7.7,7.7,0,0,0,15.93,72H36.81a7.69,7.69,0,0,0,7.7,7.69h22A7.69,7.69,0,0,0,74.18,72h1.64a7.7,7.7,0,0,0,7.7-7.69h4.94a11.53,11.53,0,0,0,5.87-21.46Z"/><path class="cls-3" d="M94.33,38.45a7.81,7.81,0,0,0,.18-1.62,7.69,7.69,0,0,0-7.7-7.69H79.12a7.69,7.69,0,0,0-7.69-7.69H56.57a6.05,6.05,0,0,0-6-5.5H37.36a6,6,0,0,0-6,5.5H28.57a7.69,7.69,0,0,0-7.69,7.69,7.69,7.69,0,0,0-7.69,7.69H11A11,11,0,0,0,8.38,58.49a7.35,7.35,0,0,0-.14,1.42,7.69,7.69,0,0,0,7.69,7.69H36.81a7.69,7.69,0,0,0,7.7,7.69h22a7.69,7.69,0,0,0,7.7-7.69h1.64a7.69,7.69,0,0,0,7.7-7.69h4.94a11.53,11.53,0,0,0,5.87-21.46Z"/><path class="cls-4" d="M71.43,21.43H56.57a6.05,6.05,0,0,0-6-5.5H37.36a6,6,0,0,0-6,5.5H28.57a7.69,7.69,0,0,0-7.69,7.69,7.69,7.69,0,0,0-7.69,7.69H11A11,11,0,0,0,8.38,58.47a7.35,7.35,0,0,0-.14,1.42,7.69,7.69,0,0,0,7.69,7.69H29.1L75.33,22.5A7.6,7.6,0,0,0,71.43,21.43Z"/><ellipse class="cls-2" cx="77.73" cy="37.44" rx="3.75" ry="1.66"/><ellipse class="cls-2" cx="73.42" cy="35.38" rx="1.56" ry="0.69"/><ellipse class="cls-2" cx="71.47" cy="39.48" rx="6.69" ry="2.96"/><ellipse class="cls-5" cx="74.45" cy="47.35" rx="1.26" ry="0.56"/><ellipse class="cls-1" cx="46.46" cy="60.04" rx="3.53" ry="0.94"/><ellipse class="cls-2" cx="65.35" cy="55.08" rx="5.71" ry="2.82"/><ellipse class="cls-2" cx="59.88" cy="56.64" rx="3.86" ry="1.9"/><ellipse class="cls-2" cx="57.53" cy="53.19" rx="1.63" ry="0.8"/><ellipse class="cls-2" cx="24.75" cy="39.48" rx="5.39" ry="2.66"/><ellipse class="cls-2" cx="29.92" cy="38" rx="3.64" ry="1.8"/><ellipse class="cls-2" cx="32.13" cy="41.26" rx="1.54" ry="0.76"/><ellipse class="cls-2" cx="42.08" cy="26.51" rx="5.45" ry="1.86"/><ellipse class="cls-2" cx="51.67" cy="29.9" rx="2.37" ry="0.86"/><ellipse class="cls-1" cx="65.35" cy="71.27" rx="4.63" ry="1.33"/><ellipse class="cls-5" cx="50.48" cy="64.83" rx="0.88" ry="0.35"/><ellipse class="cls-5" cx="51.95" cy="67.65" rx="6.51" ry="1.97"/><ellipse class="cls-5" cx="46.09" cy="66.41" rx="3.5" ry="1.06"/><ellipse class="cls-5" cx="80.98" cy="50.16" rx="7.57" ry="2.21"/><ellipse class="cls-5" cx="87.78" cy="51.23" rx="4.07" ry="1.65"/><ellipse class="cls-5" cx="38.49" cy="33.2" rx="3.14" ry="1.28"/><ellipse class="cls-5" cx="27.38" cy="50.1" rx="4.98" ry="2.02"/><ellipse class="cls-5" cx="27.74" cy="60.98" rx="1.08" ry="0.48"/><ellipse class="cls-5" cx="22.14" cy="58.59" rx="6.49" ry="1.91"/><ellipse class="cls-5" cx="16.3" cy="57.04" rx="3.49" ry="1.42"/><ellipse class="cls-3" cx="48.05" cy="37.5" rx="4.16" ry="1.69"/><ellipse class="cls-3" cx="51.79" cy="38.57" rx="2.24" ry="0.91"/><circle class="cls-6" cx="34.2" cy="75.39" r="0.31"/><circle class="cls-6" cx="69.93" cy="80.13" r="0.27"/><circle class="cls-6" cx="82.78" cy="70.69" r="0.26"/><circle class="cls-6" cx="81.49" cy="71.29" r="0.09"/></svg>