<svg id="Layer_1" data-name="Layer 1" xmlns="http://www.w3.org/2000/svg" viewBox="0 0 100 100"><defs><style>.cls-1{fill:#d1af9d;}.cls-2{fill:#dbbdaf;}.cls-3{fill:#e2c8bf;}.cls-4{fill:#946660;}</style></defs><title>pebble</title><path class="cls-1" d="M.85,50C11.14,33.73,28.4,29.77,47.05,25c7-1.79,14.34-2.91,21.36-1.33,7.28,1.64,13.61,6,19.41,10.73,6,4.83,12.12,11,12.18,18.72.08,9.94-9.89,16.93-19.34,20-19.22,6.22-40,3.9-60.08,1.52-4.9-.58-10-1.23-14.18-3.85S-1.8,54.18.85,50Z"/><path class="cls-2" d="M38,34.56c2.33-.4,4.56-.86,6.85-1.26a45,45,0,0,0,4.61-1,14.74,14.74,0,0,0,4.24-1.88,2.05,2.05,0,0,0,.6-.57,1,1,0,0,0,0-.86,3.14,3.14,0,0,0-2.54-1.6,28.41,28.41,0,0,0-3.47-.16,7.81,7.81,0,0,0-1.28,0,6.85,6.85,0,0,0-1.48.38A21.43,21.43,0,0,0,40.3,30,19,19,0,0,0,38,31.87a2.24,2.24,0,0,0-.57.67c-.13.28-.08.44-.19.72a1.82,1.82,0,0,0-.2.61A.76.76,0,0,0,38,34.56Z"/><path class="cls-3" d="M51.75,34.06c.67-1.05,1.79-1.31,3-1.62a3.08,3.08,0,0,1,1.38-.08,3.19,3.19,0,0,1,1.26.69,1.77,1.77,0,0,1,.79,1.22c0,.64-.64,1.09-1.26,1.29a9.26,9.26,0,0,1-3.89.1,2.21,2.21,0,0,1-.92-.25A1.53,1.53,0,0,1,51.75,34.06Z"/><path class="cls-4" d="M80.37,64.93C60,67.75,38.86,63.16,18.51,58.61c-5-1.11-10.14-2.3-14.17-5a10.1,10.1,0,0,1-3-4.27c-.16.24-.33.45-.48.7C-1.8,54.18,2.21,68.15,6.4,70.77S15.68,74,20.58,74.62C40.64,77,61.44,79.32,80.66,73.1c8.37-2.71,17.12-8.5,19-16.68C95.59,61.14,87.74,63.92,80.37,64.93Z"/><path class="cls-4" d="M99.91,54.79c-.5.21-1,.42-1.52.61a24.15,24.15,0,0,1-3.52,1.06,51.49,51.49,0,0,1-7.33,1c-9.9.72-19.89.13-29.83-.56S37.8,55.3,27.88,54.55a31.25,31.25,0,0,1-13.81-4.8,24.82,24.82,0,0,1-7.2-7.2l-.19.19a26.58,26.58,0,0,0,1.56,2.35,26.45,26.45,0,0,0,5.42,5.25,32,32,0,0,0,14.08,5.32c10,1,19.89,2,29.87,2.72,5,.35,10,.59,15,.69a125.93,125.93,0,0,0,15-.43A52.77,52.77,0,0,0,95.1,57.4a26.51,26.51,0,0,0,4.65-1.65C99.81,55.43,99.87,55.11,99.91,54.79Z"/><ellipse class="cls-1" cx="4.29" cy="50.53" rx="1.88" ry="1.54"/><ellipse class="cls-1" cx="15.21" cy="64.79" rx="2.49" ry="1.59"/><ellipse class="cls-1" cx="38.25" cy="71.22" rx="5.83" ry="2"/><ellipse class="cls-1" cx="71.22" cy="71.99" rx="2.59" ry="1.29"/><ellipse class="cls-2" cx="4.86" cy="47.71" rx="3.56" ry="1.26" transform="translate(-34.4 20.16) rotate(-49.13)"/><ellipse class="cls-1" cx="88.85" cy="63.01" rx="1.73" ry="1.19" transform="translate(-18.55 44.86) rotate(-25.75)"/><ellipse class="cls-2" cx="55.26" cy="51.45" rx="2.91" ry="0.62"/><ellipse class="cls-2" cx="86.2" cy="40.91" rx="1.11" ry="1.63"/><ellipse class="cls-2" cx="33.99" cy="42.67" rx="2.64" ry="1.14"/><path class="cls-2" d="M90.71,46.51a5.72,5.72,0,0,0,5.72,5.73,5.65,5.65,0,0,0,3.4-1.14,20.34,20.34,0,0,0-5-10.06A5.71,5.71,0,0,0,90.71,46.51Z"/><path class="cls-2" d="M22.48,37.85a5.58,5.58,0,0,0,2.4-6.35,62.2,62.2,0,0,0-10.21,5A3.6,3.6,0,0,0,15,37C16.51,39.26,19.88,39.64,22.48,37.85Z"/></svg>