<svg id="Layer_1" data-name="Layer 1" xmlns="http://www.w3.org/2000/svg" viewBox="0 0 100 100"><defs><style>.cls-1{fill:#4f4f4f;}.cls-2{fill:#87898b;}.cls-3{fill:#616161;}.cls-4{fill:#909295;}.cls-5{fill:#989a9d;}.cls-6{fill:#a6a8ab;}.cls-7{fill:#c5c7c9;}.cls-8{fill:#dddfe0;}.cls-9{fill:#5c5c5c;}</style></defs><title>rock</title><path class="cls-1" d="M0,48l.11.06L3,59.59l26.63,17,7.3.57,19.85-5.75c.31.1,6,.7,6,.7l17.37-3.52,9.51,3.07,7.57-4.2,2.8-9.92L98.89,48,32.46,42.91Z"/><path class="cls-2" d="M72.76,29S71.13,28,71,27.93,61.33,27,61.22,27l-11-3.4c-.12,0-8-.79-8-.79l-20,9.65-5.12,1.43L11,40,0,48,2.28,49.4h0L11.58,55h0l12.24,7.3h0L27,65.11l2.5-.79,18-10,6.54.38,10.65,3,13.57-7.48H93.57L98.89,48Z"/><path class="cls-3" d="M47.43,54.29s9,17.07,9.35,17.17,6,.7,6,.7l1.87-14.47L54,54.67Z"/><path class="cls-4" d="M77,50.85l1.16-.64H93.57L98.89,48,72.76,29s-12.26,1-12,1Z"/><polygon class="cls-2" points="0.09 48.03 3 59.59 3 59.59 29.63 76.64 26.95 65.11 23.82 62.26 0.09 48.03"/><polygon class="cls-5" points="78.19 50.21 60.8 30.05 61.71 52.86 64.62 57.69 78.19 50.21"/><polygon class="cls-6" points="43.82 23.32 58.79 29.05 58.01 48.61 53.97 54.67 47.43 54.29 29.45 64.32 26.95 65.11 23.6 62.06 0 48.04 43.82 23.32"/><polygon class="cls-7" points="0 48.04 10.96 39.97 17.14 33.87 22.26 32.44 42.24 22.79 43.82 23.32 52.05 26.51 32.46 42.91 23.82 62.26 0 48.04"/><polygon class="cls-8" points="2.28 49.4 11.11 41.86 18.13 35.07 22.49 33.64 41.95 23.59 43.82 23.32 45.78 24.08 23.04 37.27 11.59 54.96 2.28 49.4"/><polygon class="cls-9" points="100 57.59 98.89 48.04 93.57 50.21 98.73 48.11 100 57.59"/><polygon class="cls-9" points="93.57 50.21 78.19 50.21 64.62 57.69 62.75 72.16 80.12 68.64 89.63 71.71 89.63 60.92 93.57 50.21"/></svg>