<svg id="Layer_1" data-name="Layer 1" xmlns="http://www.w3.org/2000/svg" viewBox="0 0 100 100"><defs><style>.cls-1{fill:#7d7d7d;}.cls-2{fill:#09a582;}.cls-3{fill:#a35323;}.cls-4{fill:#f37d3b;}.cls-5{fill:#00755b;}.cls-6{fill:#c2d4de;}.cls-7{fill:#da7135;}</style></defs><title>steamboat</title><rect class="cls-1" x="50.64" y="10.36" width="9.61" height="43.87" rx="1.29" ry="1.29"/><rect class="cls-1" x="29.15" y="19.46" width="9.61" height="43.87" rx="1.29" ry="1.29"/><rect class="cls-2" x="6.65" y="33.39" width="58.41" height="32.23" rx="3.03" ry="3.03"/><rect class="cls-3" x="9.94" y="37.37" width="3.45" height="23.26"/><rect class="cls-3" x="32.76" y="37.37" width="3.45" height="23.26"/><rect class="cls-3" x="56.87" y="37.37" width="3.45" height="23.26"/><path class="cls-4" d="M62.5,30.79H9.28a7.07,7.07,0,0,0-7,6.61H69.53A7.08,7.08,0,0,0,62.5,30.79Z"/><path class="cls-5" d="M0,69.26s4.14,9.2,9.19,9.2H86.85A9.22,9.22,0,0,0,96,69.26l4-13H69.45l-4.39,4.38H0"/><path class="cls-6" d="M22.46,53.27a6.44,6.44,0,1,1,6.44-6.44A6.45,6.45,0,0,1,22.46,53.27Z"/><path class="cls-5" d="M22.46,41.39A5.44,5.44,0,1,1,17,46.83a5.45,5.45,0,0,1,5.43-5.44m0-2a7.45,7.45,0,1,0,7.45,7.45,7.46,7.46,0,0,0-7.45-7.45Z"/><rect class="cls-5" x="21.44" y="40.13" width="2.05" height="13.39" rx="0.51" ry="0.51"/><rect class="cls-5" x="21.44" y="40.13" width="2.05" height="13.39" rx="0.51" ry="0.51" transform="translate(69.29 24.36) rotate(90)"/><path class="cls-6" d="M46.5,53.27A6.44,6.44,0,1,1,53,46.83,6.45,6.45,0,0,1,46.5,53.27Z"/><path class="cls-5" d="M46.5,41.39a5.44,5.44,0,1,1-5.43,5.44,5.46,5.46,0,0,1,5.43-5.44m0-2A7.45,7.45,0,1,0,54,46.83a7.45,7.45,0,0,0-7.45-7.45Z"/><rect class="cls-5" x="45.48" y="40.13" width="2.05" height="13.39" rx="0.51" ry="0.51"/><rect class="cls-5" x="45.48" y="40.13" width="2.05" height="13.39" rx="0.51" ry="0.51" transform="translate(93.33 0.32) rotate(90)"/><rect class="cls-7" x="45.5" y="51.02" width="2.66" height="31.22"/><rect class="cls-7" x="45.5" y="51.02" width="2.66" height="31.22" transform="translate(113.45 19.81) rotate(90)"/><rect class="cls-7" x="45.5" y="51.02" width="2.66" height="31.22" transform="translate(60.83 -13.59) rotate(45)"/><rect class="cls-7" x="45.5" y="51.02" width="2.66" height="31.22" transform="translate(127.05 80.64) rotate(135)"/><path class="cls-4" d="M46.82,85.06A18.12,18.12,0,1,1,64.94,66.94,18.14,18.14,0,0,1,46.82,85.06Zm0-32.79A14.67,14.67,0,1,0,61.49,66.94,14.69,14.69,0,0,0,46.82,52.27Z"/><circle class="cls-7" cx="46.82" cy="66.63" r="4.21"/><circle class="cls-3" cx="46.93" cy="66.63" r="2.03"/><rect class="cls-4" x="45.29" y="44.62" width="3.07" height="6.83" rx="0.76" ry="0.76"/><rect class="cls-4" x="45.29" y="82.81" width="3.07" height="6.83" rx="0.76" ry="0.76"/><rect class="cls-4" x="64.39" y="63.71" width="3.07" height="6.83" rx="0.76" ry="0.76" transform="translate(133.05 1.21) rotate(90)"/><rect class="cls-4" x="26.19" y="63.71" width="3.07" height="6.83" rx="0.76" ry="0.76" transform="translate(94.85 39.4) rotate(90)"/><rect class="cls-4" x="58.79" y="50.21" width="3.07" height="6.83" rx="0.76" ry="0.76" transform="translate(55.59 -26.95) rotate(45)"/><rect class="cls-4" x="31.79" y="77.22" width="3.07" height="6.83" rx="0.76" ry="0.76" transform="translate(66.77 0.05) rotate(45)"/><rect class="cls-4" x="58.79" y="77.22" width="3.07" height="6.83" rx="0.76" ry="0.76" transform="translate(160 94.99) rotate(135)"/><rect class="cls-4" x="31.79" y="50.21" width="3.07" height="6.83" rx="0.76" ry="0.76" transform="translate(94.8 67.98) rotate(135)"/></svg>