<svg id="Layer_1" data-name="Layer 1" xmlns="http://www.w3.org/2000/svg" viewBox="0 0 100 100"><defs><style>.cls-1{fill:#80726f;}.cls-2{fill:#685c5a;}.cls-3{fill:#a3908d;}</style></defs><title>boulder</title><circle class="cls-1" cx="50" cy="50" r="50"/><path class="cls-2" d="M68.5,84.55A50,50,0,0,1,28.17,5,50,50,0,1,0,90.33,79.54,49.75,49.75,0,0,1,68.5,84.55Z"/><circle class="cls-3" cx="72.14" cy="27.91" r="9.93"/><circle class="cls-1" cx="7.14" cy="51.91" r="1.91"/><circle class="cls-1" cx="14.68" cy="36.55" r="1.02"/><circle class="cls-1" cx="26.13" cy="72.14" r="1.64"/><circle class="cls-1" cx="49.33" cy="88.75" r="2.48"/><circle class="cls-1" cx="68.47" cy="87.95" r="1.55"/><circle class="cls-1" cx="29.55" cy="90.21" r="2.96"/><circle class="cls-2" cx="36.6" cy="64.5" r="1.39"/><circle class="cls-2" cx="75.19" cy="73.57" r="1.43"/><circle class="cls-2" cx="91.1" cy="51.5" r="1.81"/><circle class="cls-2" cx="40.34" cy="14.89" r="1.8"/><circle class="cls-2" cx="64.49" cy="11.43" r="1.45"/><circle class="cls-3" cx="55.61" cy="37.95" r="2.42"/><circle class="cls-3" cx="57.53" cy="19" r="1.02"/><circle class="cls-3" cx="73.37" cy="58.25" r="1.23"/><circle class="cls-3" cx="27.39" cy="44.65" r="1.96"/></svg>