<svg id="Layer_1" data-name="Layer 1" xmlns="http://www.w3.org/2000/svg" viewBox="0 0 100 100"><defs><style>.cls-1{fill:#00604a;}.cls-2{fill:#007359;}.cls-3{fill:#09a380;}.cls-4{fill:#0abc8d;}</style></defs><title>hill</title><ellipse class="cls-1" cx="50" cy="57.15" rx="50" ry="9.57"/><ellipse class="cls-2" cx="49.74" cy="55.82" rx="46.31" ry="8.86"/><path class="cls-3" d="M92.77,53.24c0-1.16-7.06-8.17-17.9-13.56a57.78,57.78,0,0,0-25.45-6.39A57.88,57.88,0,0,0,23.8,39.77C13.05,45.15,6.07,52.09,6.07,53.24a.29.29,0,0,0,.06.17,1.74,1.74,0,0,0-.06.45c0,4.89,19.41,8.86,43.35,8.86s43.35-4,43.35-8.86a2.3,2.3,0,0,0,0-.45A.37.37,0,0,0,92.77,53.24Z"/><path class="cls-4" d="M65.07,35.75a53.08,53.08,0,0,0-15.65-2.47A57.89,57.89,0,0,0,23.8,39.77C14.69,44.33,8.3,50,6.56,52.32,21.18,45.13,46,36,65.07,35.75Z"/><circle class="cls-4" cx="22.36" cy="49.62" r="1.41"/><circle class="cls-4" cx="27.4" cy="57.93" r="1.41"/><circle class="cls-4" cx="50.07" cy="57.93" r="1.41"/><circle class="cls-4" cx="72.74" cy="57.93" r="1.41"/><circle class="cls-4" cx="33.42" cy="49.62" r="1.41"/><circle class="cls-4" cx="44.47" cy="49.62" r="1.41"/><circle class="cls-4" cx="55.53" cy="49.62" r="1.41"/><circle class="cls-4" cx="66.58" cy="49.62" r="1.41"/><circle class="cls-4" cx="77.64" cy="49.62" r="1.41"/></svg>