<svg id="Layer_1" data-name="Layer 1" xmlns="http://www.w3.org/2000/svg" viewBox="0 0 100 100"><defs><style>.cls-1{fill:#028a6d;}.cls-2{fill:#09a582;}</style></defs><title>continent</title><path class="cls-1" d="M50.94,63.79l0,0,.19.08C51,63.87,50.93,63.8,50.94,63.79Z"/><path class="cls-1" d="M43.18,8.21l8.07,3.7a1.74,1.74,0,0,0,2.24-.71l.86-1.5A1.73,1.73,0,0,1,56,8.84L70.73,10.1a1.74,1.74,0,0,1,1.38.91L86.3,37.25a1.75,1.75,0,0,0,1.83.89l4.74-.82a1.72,1.72,0,0,1,1.33.33l.62-2.27a9,9,0,0,1,0,4.1L92.68,47.8a1.74,1.74,0,0,1-.52.86L81,58.67a1.73,1.73,0,0,0-.57,1.41L81.36,71c0,.75.17,4.2-1.08,4.79L75,78a1.73,1.73,0,0,0-1.08,1.53l-.39,8a1.75,1.75,0,0,1-.45,1.08l-9.25,10.2a1.76,1.76,0,0,1-1.22.57L45.75,100a1.75,1.75,0,0,1-1.65-1L33.75,77a3.73,3.73,0,0,1-.37-2l.2-1.91,3-2a1.77,1.77,0,0,0,.24-1.23l-1.18-6.44a1.72,1.72,0,0,0-.81-1.17l-5.36-3.25c-1.25-.79-1-4-.84-4.72l.83-.88a1.74,1.74,0,0,0-1-2L21.3,48.11A1.72,1.72,0,0,0,20.06,48l-4.7,1.45a1.74,1.74,0,0,1-1.91-.63L5.27,37.72a19.9,19.9,0,0,1-.33-4.11l1.15-11a1.71,1.71,0,0,1,.43-1L21.93,4.32a1.68,1.68,0,0,1,1.24-.58l17-.59A1.73,1.73,0,0,1,42,4.75l.17,2A1.74,1.74,0,0,0,43.18,8.21Z"/><path class="cls-1" d="M85.79,83.05l-1,1.47a1.54,1.54,0,0,0-.27.86v3.26l1.54.48,2.31-.92a1.53,1.53,0,0,0,.81-.77c1-2.2,4.65-10.24,4.73-10.57s.06-3.45,0-4-.47,1.4-1.11,1.23h0a1.51,1.51,0,0,0-1.64.59l-.88,1.26a1.54,1.54,0,0,1-.63.53l-2.5,1.08a1.51,1.51,0,0,0-.9,1.3l-.21,3.44A1.49,1.49,0,0,1,85.79,83.05Z"/><path class="cls-2" d="M50.94,60.64s0,0,0,0a1.63,1.63,0,0,1,.19.09C51,60.72,50.93,60.65,50.94,60.64Z"/><path class="cls-2" d="M43.18,5.06l8.07,3.71a1.75,1.75,0,0,0,2.24-.72l.86-1.49A1.72,1.72,0,0,1,56,5.69L70.73,7a1.74,1.74,0,0,1,1.38.91L86.3,34.1a1.74,1.74,0,0,0,1.83.89l4.74-.81a1.71,1.71,0,0,1,1.33.32h0a1.73,1.73,0,0,1,.64,1.83l-2.16,8.33a1.67,1.67,0,0,1-.52.85L81,55.52a1.75,1.75,0,0,0-.57,1.41l.92,14a1.76,1.76,0,0,1-1.08,1.72L75,74.83a1.72,1.72,0,0,0-1.08,1.52l-.39,8a1.75,1.75,0,0,1-.45,1.08l-9.25,10.2a1.72,1.72,0,0,1-1.22.57l-16.85.69a1.74,1.74,0,0,1-1.65-1l-10.35-22a1.71,1.71,0,0,1,.1-1.67l2.68-4.27a1.8,1.8,0,0,0,.24-1.24L35.59,60.2A1.74,1.74,0,0,0,34.78,59l-5.36-3.25a1.73,1.73,0,0,1-.8-1.85l.79-3.75a1.74,1.74,0,0,0-1-2L21.3,45a1.72,1.72,0,0,0-1.24-.08l-4.7,1.45a1.73,1.73,0,0,1-1.91-.63L5.27,34.58a1.83,1.83,0,0,1-.33-1.18L6.09,19.49a1.73,1.73,0,0,1,.43-1L21.93,1.17A1.75,1.75,0,0,1,23.17.59l17-.59A1.73,1.73,0,0,1,42,1.6l.17,2A1.74,1.74,0,0,0,43.18,5.06Z"/><path class="cls-2" d="M85.79,79.91l-1,1.46a1.59,1.59,0,0,0-.27.87V85.5L86,86l2.31-.93a1.49,1.49,0,0,0,.81-.77c1-2.19,4.65-10.24,4.73-10.57a8.12,8.12,0,0,0,0-1.35,1.52,1.52,0,0,0-1.11-1.43h0a1.5,1.5,0,0,0-1.64.6l-.88,1.26a1.51,1.51,0,0,1-.63.52l-2.5,1.09a1.49,1.49,0,0,0-.9,1.29l-.21,3.44A1.56,1.56,0,0,1,85.79,79.91Z"/></svg>