<svg id="Layer_1" data-name="Layer 1" xmlns="http://www.w3.org/2000/svg" viewBox="0 0 100 100"><defs><style>.cls-1{fill:#d1eefb;}.cls-2{fill:#ebf7fd;}.cls-3{fill:#b8dded;}.cls-4{fill:#6ab8d9;}.cls-5{fill:#88c6e1;}</style></defs><title>mineral</title><polygon class="cls-1" points="49.68 0 33.7 19.6 33.7 99.73 64.49 99.73 69.28 21.59 49.68 0"/><polygon class="cls-2" points="49.36 4.96 37 18.94 37 36.07 46.59 21.86 49.36 4.96"/><polygon class="cls-3" points="66.83 21.86 63.42 80.82 41.69 98.18 61.32 22.47 66.83 21.86"/><polygon class="cls-4" points="21.45 100 7.38 48.65 14.41 21.86 35.3 38.13 51.49 100 21.45 100"/><polygon class="cls-5" points="77.49 100 45.52 100 61.51 49.86 89.21 33.3 92.62 60.93 77.49 100"/><polygon class="cls-1" points="15.27 26.39 9.94 47.58 23.58 97.02 16.76 46.73 15.27 26.39"/><polygon class="cls-4" points="86.86 38.13 63.85 51.63 51.49 91.48 79.62 56.89 86.86 38.13"/><polygon class="cls-5" points="33.7 41.04 45.52 86.36 43.18 95.2 29.44 38.13 33.7 41.04"/><polygon class="cls-1" points="87.93 41.04 90.27 60.93 78.34 91.48 86.86 59.94 87.93 41.04"/></svg>