<svg id="Layer_1" data-name="Layer 1" xmlns="http://www.w3.org/2000/svg" viewBox="0 0 100 100"><defs><style>.cls-1{fill:#946660;}.cls-2{fill:#b2e2f9;}.cls-3{fill:#7b544f;}.cls-4{fill:#ebf7fd;}.cls-5{fill:#d1eefb;}.cls-6{fill:#069274;}.cls-7{fill:#09a582;}.cls-8{fill:#089a7a;}</style></defs><title>organic matter</title><path class="cls-1" d="M50,100.05a50,50,0,0,0,50-50H0A50,50,0,0,0,50,100.05Z"/><path class="cls-2" d="M50,0A50,50,0,0,0,0,50H100A50,50,0,0,0,50,0Z"/><ellipse class="cls-3" cx="16.83" cy="62.58" rx="7" ry="4.49"/><circle class="cls-3" cx="71.92" cy="82.28" r="4.2"/><ellipse class="cls-3" cx="84.88" cy="60.34" rx="4.12" ry="2.25"/><circle class="cls-3" cx="34.51" cy="85.27" r="5.32"/><path class="cls-4" d="M13.54,26.76H34.07a3.81,3.81,0,0,0,0-.59,4.24,4.24,0,0,0-4.24-4.24,4.3,4.3,0,0,0-1.83.41,4.24,4.24,0,1,0-8.34,1.28,4.3,4.3,0,0,0-2-.48,4.25,4.25,0,0,0-4.2,3.62Zm0,0"/><path class="cls-5" d="M50.18,44.45H94.72a9,9,0,0,0,.1-1.28A9.21,9.21,0,0,0,85.6,34a9,9,0,0,0-3.95.89,9.21,9.21,0,1,0-18.11,2.78,9.19,9.19,0,0,0-13.36,6.81Zm-1.62,0"/><path class="cls-6" d="M49.67,82.73c-5.05-6.34-.89-28.77-.4-31.3l3.88.75c-1.72,8.89-3.35,24.38-.4,28.09Z"/><path class="cls-6" d="M50.18,10.06S45.7,15,41.1,21.33c-1.47,2-3,4.14-4.3,6.31C36,29,35.16,30.36,34.44,31.7c-1.91,3.61-3.22,7.06-3.22,9.8a19,19,0,0,0,37.93,0C69.15,31,50.18,10.06,50.18,10.06Z"/><path class="cls-7" d="M50.18,10.06S45.7,15,41.1,21.33c-1.47,2-3,4.14-4.3,6.31C36,29,35.16,30.36,34.44,31.7c-1.91,3.61-3.22,7.06-3.22,9.8a19,19,0,0,0,19,19Z"/><path class="cls-8" d="M50.18,41,36.8,27.64C36,29,35.16,30.36,34.44,31.7L50.18,47.44Z"/><path class="cls-8" d="M50.18,10.06S45.7,15,41.1,21.33l9.08,9.08Z"/></svg>