<svg id="Layer_1" data-name="Layer 1" xmlns="http://www.w3.org/2000/svg" viewBox="0 0 100 100"><defs><style>.cls-1{fill:#714c48;}.cls-2{fill:#5c3d39;}.cls-3{fill:#895e59;}.cls-4{fill:#b3b3b3;}.cls-5{fill:#f05c38;}.cls-6{fill:#ffc640;}.cls-7{fill:#3e3e3f;}.cls-8{fill:#faad3f;}.cls-9{fill:#f37d3b;}.cls-10{fill:#bc6842;}</style></defs><title>campfire</title><circle class="cls-1" cx="77.52" cy="82.31" r="11.03"/><rect class="cls-1" x="22.48" y="71.28" width="56.52" height="22.06"/><circle class="cls-2" cx="22.48" cy="82.31" r="11.03"/><circle class="cls-3" cx="22.05" cy="82.31" r="9.49"/><circle class="cls-1" cx="22.05" cy="82.31" r="7.54"/><circle class="cls-3" cx="22.05" cy="82.31" r="5.85"/><circle class="cls-1" cx="22.05" cy="82.31" r="3.56"/><circle class="cls-3" cx="22.05" cy="82.31" r="1.21"/><rect class="cls-2" x="43.58" y="77.66" width="8.93" height="3.15" rx="0.7" ry="0.7" transform="translate(127.27 31.19) rotate(90)"/><rect class="cls-2" x="59.85" y="77.47" width="3.15" height="13.24" rx="1.57" ry="1.57"/><path class="cls-2" d="M39,88.12a1.57,1.57,0,0,0-1.58,1.57v3.65h3.15V89.69A1.57,1.57,0,0,0,39,88.12Z"/><path class="cls-2" d="M34,77.17a1.58,1.58,0,1,0,3.15,0V71.39s0-.07,0-.11H34.05s0,.07,0,.11Z"/><rect class="cls-1" x="38.45" y="67.68" width="2.84" height="7.85" rx="0.63" ry="0.63"/><rect class="cls-1" x="54.97" y="86.41" width="3.58" height="9.91" rx="0.79" ry="0.79"/><path class="cls-4" d="M26,71.28H79s.26,14.89-30.42,17.2C48.58,88.48,24.7,82.69,26,71.28Z"/><path class="cls-5" d="M26,71.28H78.14s.25,12.34-29.93,14.62C48.21,85.9,24.72,82.5,26,71.28Z"/><path class="cls-6" d="M30.58,12.26S25.49,26.63,63.94,36.19L43.85,48.8l-1.37.86C18.87,36.94,30.58,12.26,30.58,12.26Z"/><circle class="cls-7" cx="75.73" cy="32.45" r="4.35"/><path class="cls-8" d="M81.76,45.73c-1.63,3.79-11.83,3-22.76-1.7S41.75,29,42,29c29.31-1.17,28.11-10.66,28.11-10.66S83.4,41.94,81.76,45.73Z"/><path class="cls-9" d="M72.92,15.09a3.17,3.17,0,1,0,6.33,0c0-1.75-3.16-6.4-3.16-6.4S72.92,13.34,72.92,15.09Z"/><path class="cls-9" d="M79.25,39.58a1.79,1.79,0,0,0,3.57,0C82.82,38.59,81,36,81,36S79.25,38.59,79.25,39.58Z"/><path class="cls-8" d="M19.86,35.12a5,5,0,1,0,10,0c0-2.76-5-10.09-5-10.09S19.86,32.36,19.86,35.12Z"/><circle class="cls-7" cx="68.57" cy="30.54" r="4.35"/><circle class="cls-7" cx="77.08" cy="34.44" r="2.38"/><circle class="cls-7" cx="64.86" cy="25.87" r="2.9"/><circle class="cls-7" cx="57.9" cy="20.73" r="5.46"/><circle class="cls-7" cx="55.38" cy="15.62" r="1.62"/><circle class="cls-7" cx="59.48" cy="11.78" r="2.48"/><circle class="cls-7" cx="36.9" cy="19.42" r="2.48"/><circle class="cls-7" cx="68.39" cy="7.45" r="0.79"/><circle class="cls-7" cx="32.51" cy="13.48" r="0.79"/><circle class="cls-7" cx="37.69" cy="16.66" r="0.79"/><circle class="cls-7" cx="68.67" cy="20.56" r="1.58"/><circle class="cls-7" cx="63.35" cy="14.69" r="1.1"/><path class="cls-8" d="M38.92,10.91a2.28,2.28,0,0,0,4.55,0c0-1.26-2.27-4.6-2.27-4.6S38.92,9.65,38.92,10.91Z"/><path class="cls-6" d="M41.55,34.09s-11.95,9.47,15.54,38H31.75C18.52,48.77,41.55,34.09,41.55,34.09Z"/><path class="cls-9" d="M21.38,51.42a31.31,31.31,0,1,0,62.61,0c0-14-10.26-14.26-18.78-24.33-10.13-12-8-27.09-8-27.09S21.38,34.13,21.38,51.42Z"/><path class="cls-6" d="M37.92,73.37a1.74,1.74,0,0,0-.18-.5c-.08-.2-.2-.49-.29-.75l-.24-.8a34.77,34.77,0,0,1-1-4.71,43.28,43.28,0,0,1-.42-6.39,40.18,40.18,0,0,1,.65-7,33.61,33.61,0,0,1,.76-3.4c.25-1.1.69-2.16,1-3.15a27.66,27.66,0,0,1,1.18-2.78,19,19,0,0,1,1.23-2.35c.42-.7.74-1.34,1.13-1.87l1-1.37.83-1.14s0,.51.09,1.42c0,.44.06,1,.1,1.59s.19,1.3.3,2a16.81,16.81,0,0,0,.49,2.31,22.91,22.91,0,0,0,.74,2.47,24.72,24.72,0,0,0,1,2.48,25.72,25.72,0,0,0,1.24,2.39A27.25,27.25,0,0,0,50.48,56a25.61,25.61,0,0,0,3,3,14.17,14.17,0,0,0,2.21,1.6l.34.17c.08,0,.11,0,.15,0s.24.13.21.09A11.16,11.16,0,0,1,37.92,73.37Z"/><path class="cls-10" d="M41.57,77.15,41.09,76c-.29-.69-.64-1.66-1-2.83a46,46,0,0,1-2-8.73,30.75,30.75,0,0,1-.21-4.75,23.34,23.34,0,0,1,.57-4.06c.18-.57.34-1.09.48-1.55A8.24,8.24,0,0,1,39.4,53l.45-1s0,.38-.07,1a7.1,7.1,0,0,0,0,1.17c0,.45.07,1,.11,1.5a21.62,21.62,0,0,0,.87,3.59,26.81,26.81,0,0,0,1.71,3.82,39.78,39.78,0,0,0,4.39,6.4c.68.8,1.26,1.45,1.68,1.87l.62.62a4.65,4.65,0,1,1-7.51,5.17Z"/><path class="cls-6" d="M52.69,63.12a5.79,5.79,0,0,0,11.58,0c0-3.2-5.79-11.71-5.79-11.71S52.69,59.92,52.69,63.12Z"/><path class="cls-6" d="M68.52,52.45a2.9,2.9,0,1,0,5.79,0c0-1.6-2.89-5.85-2.89-5.85S68.52,50.85,68.52,52.45Z"/><circle class="cls-1" cx="34.06" cy="79.06" r="8.67"/><rect class="cls-1" x="32.7" y="76.52" width="29.04" height="17.34" transform="translate(54.01 182.36) rotate(-155)"/><circle class="cls-2" cx="60.38" cy="91.33" r="8.67"/><circle class="cls-3" cx="60.68" cy="91.47" r="7.46"/><circle class="cls-1" cx="60.68" cy="91.47" r="5.93"/><circle class="cls-3" cx="60.68" cy="91.47" r="4.6"/><circle class="cls-1" cx="60.68" cy="91.47" r="2.8"/><circle class="cls-3" cx="60.68" cy="91.47" r="0.95"/><rect class="cls-2" x="37.64" y="83.79" width="7.02" height="2.47" rx="0.55" ry="0.55" transform="translate(-53.31 86.38) rotate(-65)"/><rect class="cls-2" x="28.02" y="75.88" width="10.41" height="2.47" rx="1.24" ry="1.24" transform="translate(-50.71 74.64) rotate(-65)"/><path class="cls-2" d="M50.54,81.71a1.26,1.26,0,0,0,1.65-.6l1.21-2.6-2.24-1.05L50,80.06A1.25,1.25,0,0,0,50.54,81.71Z"/><path class="cls-2" d="M50.44,91.15a1.23,1.23,0,0,0-.59-1.64,1.25,1.25,0,0,0-1.65.59l-1.92,4.13s0,0,0,.08l2.21,1s0,0,.05-.07Z"/><rect class="cls-1" x="43.32" y="90.09" width="2.23" height="6.17" rx="0.49" ry="0.49" transform="translate(45.33 196.4) rotate(-155)"/><rect class="cls-1" x="37.56" y="69.59" width="2.82" height="7.79" rx="0.62" ry="0.62" transform="translate(43.22 156.56) rotate(-155)"/></svg>