<svg id="Layer_1" data-name="Layer 1" xmlns="http://www.w3.org/2000/svg" viewBox="0 0 100 100"><defs><style>.cls-1{fill:#f05c38;}.cls-2{fill:#ffc640;}.cls-3{fill:#ffe5b1;}</style></defs><title>warmth</title><circle class="cls-1" cx="50" cy="50" r="50"/><ellipse class="cls-2" cx="50" cy="50" rx="38.02" ry="36.97"/><path class="cls-3" d="M50,28a21.92,21.92,0,0,0-14,5,22,22,0,0,1,0,34.12A22,22,0,1,0,50,28Z"/><ellipse class="cls-3" cx="36.04" cy="50" rx="8.09" ry="17.06"/><path class="cls-3" d="M46.1,24.9a11.67,11.67,0,0,1,5.16-1.08,16,16,0,0,1,5.16,1.08L51.26,13.66Z"/><path class="cls-2" d="M34.34,13A6.54,6.54,0,0,1,37,11.59a9.15,9.15,0,0,1,3-.26L35.3,6.06Z"/><path class="cls-3" d="M57,75.83A12.88,12.88,0,0,1,51.26,77a17.72,17.72,0,0,1-5.71-1.2l5.71,12.45Z"/><path class="cls-2" d="M39.77,88.45a6.66,6.66,0,0,1-3-.54,9.21,9.21,0,0,1-2.48-1.68l.3,7Z"/><path class="cls-3" d="M66.18,29.27a9.83,9.83,0,0,1,3.74,2.44,13.75,13.75,0,0,1,2.44,3.74L76,25.62Z"/><path class="cls-2" d="M63.43,12.74a6.64,6.64,0,0,1,2.9.77,9.18,9.18,0,0,1,2.35,1.87l.24-7Z"/><path class="cls-3" d="M74.12,63.53a15.61,15.61,0,0,1-3.83,5.86,21.47,21.47,0,0,1-5.87,3.83l15.4,5.7Z"/><path class="cls-3" d="M75.35,43.92a14.86,14.86,0,0,1,1.37,6.56A20.47,20.47,0,0,1,75.35,57l14.28-6.56Z"/><path class="cls-2" d="M11.57,38a6.63,6.63,0,0,1,.59-2.94,9.31,9.31,0,0,1,1.72-2.46l-7,.19Z"/><path class="cls-2" d="M15.76,71.69a6.54,6.54,0,0,1-1.84-2.36,9.11,9.11,0,0,1-.75-2.91L8.73,71.88Z"/><path class="cls-2" d="M89.59,62.56a6.61,6.61,0,0,1-.71,2.92,9.26,9.26,0,0,1-1.81,2.39l7,.09Z"/><path class="cls-3" d="M24.59,55.9A13.24,13.24,0,0,1,23.36,50a18.24,18.24,0,0,1,1.23-5.87L11.81,50Z"/><path class="cls-2" d="M85.82,31.74a7.11,7.11,0,0,1,2,2.57,9.86,9.86,0,0,1,.8,3.16l4.84-5.91Z"/><path class="cls-2" d="M70.7,84.23a7.7,7.7,0,0,1-2.87,1.93,10.64,10.64,0,0,1-3.41.63l5.93,5.54Z"/><path class="cls-3" d="M36.23,72.26a13.25,13.25,0,0,1-5-3.28,18.18,18.18,0,0,1-3.28-5L23,77.14Z"/><path class="cls-3" d="M26.19,37.85a18.84,18.84,0,0,1,4.66-7.13A25.79,25.79,0,0,1,38,26.07L19.26,19.14Z"/></svg>