<svg id="Layer_1" data-name="Layer 1" xmlns="http://www.w3.org/2000/svg" viewBox="0 0 100 100"><defs><style>.cls-1{fill:#569ab6;}.cls-2{fill:#5596b2;}.cls-3{fill:#6ab8d9;}.cls-4{fill:#b2e2f9;}</style></defs><title>chill</title><circle class="cls-1" cx="50" cy="50" r="50"/><ellipse class="cls-2" cx="50" cy="50" rx="38.02" ry="36.97"/><ellipse class="cls-3" cx="50" cy="50" rx="38.02" ry="36.97"/><path class="cls-4" d="M50,37.31A12.69,12.69,0,1,0,62.69,50,12.67,12.67,0,0,0,50,37.31Z"/><path class="cls-4" d="M79.08,48.43H74.54l3.3-3.3A1.5,1.5,0,0,0,75.72,43l-5.43,5.42H53.59L65.35,36.68H73a1.5,1.5,0,0,0,0-3H68.35l3.22-3.22a1.5,1.5,0,1,0-2.13-2.12l-3.21,3.22V26.88a1.5,1.5,0,0,0-3,0v7.68L51.43,46.35V29.71l5.43-5.43a1.5,1.5,0,0,0-2.12-2.12l-3.31,3.3V20.92a1.5,1.5,0,1,0-3,0v4.54l-3.3-3.3A1.5,1.5,0,1,0,43,24.28l5.42,5.43v16.7L36.68,34.65V27a1.5,1.5,0,0,0-3,0v4.68l-3.22-3.22a1.5,1.5,0,1,0-2.12,2.13l3.22,3.21H26.88a1.5,1.5,0,0,0,0,3h7.68L46.22,48.43H29.61l-5.29-5.29a1.5,1.5,0,0,0-2.12,2.12l3.17,3.17H20.92a1.5,1.5,0,1,0,0,3h4.72L22.2,54.87a1.49,1.49,0,0,0,0,2.12,1.45,1.45,0,0,0,1.06.44A1.48,1.48,0,0,0,24.32,57l5.56-5.56H46.35L34.46,63.32H27a1.5,1.5,0,1,0,0,3h4.49l-3.15,3.15a1.51,1.51,0,0,0,0,2.12,1.51,1.51,0,0,0,2.13,0l3.33-3.33v4.86a1.5,1.5,0,0,0,3,0V65.26L48.43,53.59v16.8l-5.29,5.29a1.49,1.49,0,0,0,0,2.12,1.5,1.5,0,0,0,2.12,0l3.17-3.17v4.45a1.5,1.5,0,0,0,3,0V74.36l3.44,3.44a1.48,1.48,0,0,0,1.06.44A1.45,1.45,0,0,0,57,77.8a1.49,1.49,0,0,0,0-2.12l-5.56-5.56V53.65L63.32,65.54V73a1.5,1.5,0,0,0,3,0V68.54l3.15,3.15a1.51,1.51,0,0,0,1.06.44,1.51,1.51,0,0,0,1.06-2.57l-3.34-3.33h4.87a1.5,1.5,0,0,0,0-3H65.25L53.46,51.43H70.29l5.43,5.43a1.51,1.51,0,0,0,1.06.44,1.5,1.5,0,0,0,1.06-2.56l-3.3-3.31h4.54a1.5,1.5,0,0,0,0-3Z"/><circle class="cls-3" cx="50" cy="50" r="8.76"/><circle class="cls-3" cx="50" cy="93.56" r="1.62"/><circle class="cls-3" cx="50" cy="6.68" r="1.62"/><circle class="cls-3" cx="81.38" cy="19.51" r="1.62"/><circle class="cls-3" cx="94.06" cy="50" r="1.62"/><circle class="cls-3" cx="81.38" cy="81.06" r="1.62"/><circle class="cls-3" cx="18.25" cy="81.06" r="1.62"/><circle class="cls-3" cx="5.88" cy="50" r="1.62"/><circle class="cls-3" cx="18.25" cy="19.51" r="1.62"/></svg>