<svg id="Layer_1" data-name="Layer 1" xmlns="http://www.w3.org/2000/svg" xmlns:xlink="http://www.w3.org/1999/xlink" viewBox="0 0 100 100"><defs><style>.cls-1,.cls-5{fill:none;}.cls-2{clip-path:url(#clip-path);}.cls-3{fill:#58595b;}.cls-4{clip-path:url(#clip-path-2);}.cls-5{stroke:#ebf7fd;stroke-linecap:round;stroke-miterlimit:10;stroke-width:6px;}</style><clipPath id="clip-path"><path class="cls-1" d="M205.71,0H134.29A14.33,14.33,0,0,0,120,14.29V85.71A14.33,14.33,0,0,0,134.29,100h71.42A14.33,14.33,0,0,0,220,85.71V14.29A14.33,14.33,0,0,0,205.71,0Z"/></clipPath><clipPath id="clip-path-2"><path class="cls-1" d="M325.71,0H254.29A14.33,14.33,0,0,0,240,14.29V85.71A14.33,14.33,0,0,0,254.29,100h71.42A14.33,14.33,0,0,0,340,85.71V14.29A14.33,14.33,0,0,0,325.71,0Z"/></clipPath></defs><title>mist</title><g class="cls-2"><path class="cls-3" d="M73.63,76.47c67.94-34.72,125.9-57.57,131.85-52.14l44-22.49C224.59,2.26,152.6,30,71.15,71.61c-18.9,9.65-36.82,19.33-53.5,28.75H29C42.7,92.66,57.72,84.61,73.63,76.47Z"/><path class="cls-3" d="M258.51,4.6c-1-2-4.26-2.84-9-2.76l-44,22.49c.14.13.4.2.49.36,3.5,6.86-48.72,40.58-117.06,75.67h37.55C207.11,56.66,264.21,15.76,258.51,4.6Z"/></g><g class="cls-4"><path class="cls-3" d="M37,135.57c184-94,341-155.93,357.11-141.2L513.26-66.55c-67.42,1.13-262.4,76.19-483,189-51.17,26.15-99.73,52.35-144.88,77.88H-84C-46.79,179.43-6.13,157.6,37,135.57Z"/><path class="cls-3" d="M537.7-59.09c-2.8-5.48-11.54-7.68-24.44-7.46L394.09-5.63c.38.34,1.09.51,1.31,1,9.5,18.58-132,109.91-317,205H180.07C398.5,81.93,553.16-28.85,537.7-59.09Z"/></g><line class="cls-5" x1="25.1" y1="22.4" x2="3.65" y2="22.4"/><line class="cls-5" x1="96.35" y1="22.4" x2="49.85" y2="22.4"/><line class="cls-5" x1="23.98" y1="40.8" x2="8.1" y2="40.8"/><line class="cls-5" x1="59.23" y1="40.8" x2="44.85" y2="40.8"/><line class="cls-5" x1="85.6" y1="40.8" x2="71.1" y2="40.8"/><line class="cls-5" x1="38.48" y1="59.2" x2="3.65" y2="59.2"/><line class="cls-5" x1="96.35" y1="59.2" x2="61.98" y2="59.2"/><line class="cls-5" x1="31.6" y1="77.6" x2="13.23" y2="77.6"/><line class="cls-5" x1="74.73" y1="77.6" x2="53.85" y2="77.6"/><line class="cls-5" x1="96.35" y1="77.6" x2="88.1" y2="77.6"/></svg>