<svg id="Layer_1" data-name="Layer 1" xmlns="http://www.w3.org/2000/svg" viewBox="0 0 100 100"><defs><style>.cls-1{fill:#29abe2;}.cls-2{fill:#c2d4de;}</style></defs><title>plasma</title><path class="cls-1" d="M76.56,24.94c-6.3.33-6.75,3.52-8.27,5.68a5.84,5.84,0,0,1-3.41,2.18h0a17.34,17.34,0,0,1-12.42-1.45c-2-1.15,2.53-1.43,5.07-2.39,1.33-.5-10.1-1.07-13.8-1.15-2.89-.07-5.91.32-8.16-1.14a21,21,0,0,1-3.33-2.82C31.09,21.76,42.63,23,42,21.09h0c-.58-1.95-9.9-3.74-19.89-3.45-4.33.13-19,.64-18.39,3.87.39,1.93,35.67,8,15.27,11.11-4.67.71-22.71,2.06-18.36,7.1,1.37,1.58,27.5,0,30.66,5,2,3.22-13.59,7.52-17.21,8q-.34,0-.69.12C10,53.6,6,54.35,4.58,57,2.3,61.27,17.83,65,24,65.5c4.66.4,12.39.62,16.52-1.13.78-.33.24-1.31.18-1.93-.25-2.59,6.56-3.47,9.5-3.76,24.52-2.43,15.48-3.69,13.68-4.1-5.82-1.33,1.61-3.29,4.42-3.36,5.92-.14,14.5.27,17.2-1.14,3.64-1.91-9.77-2-13.82-2.87-3.17-.65-3.1-1.32.23-2.14h0c3.13-.76,5.4-5.65,8.66-6,2.74-.26,6.94-.17,8-.17,5.06,0,11.58-2.53,11.44-6.37C99.87,29,81.26,24.69,76.56,24.94Z"/><ellipse class="cls-2" cx="52.93" cy="40.56" rx="2.5" ry="1.13"/><ellipse class="cls-2" cx="13.17" cy="37.14" rx="2.58" ry="0.83"/><ellipse class="cls-2" cx="27.96" cy="20.93" rx="1.38" ry="0.88"/><ellipse class="cls-2" cx="68.25" cy="37.14" rx="2.42" ry="0.83"/><ellipse class="cls-2" cx="42.05" cy="33.1" rx="2.25" ry="1.08"/><ellipse class="cls-2" cx="33.46" cy="60.6" rx="2.88" ry="0.63"/><ellipse class="cls-2" cx="38.46" cy="46.97" rx="1.54" ry="0.42"/><ellipse class="cls-2" cx="88.88" cy="33.1" rx="6.13" ry="1.79"/><ellipse class="cls-2" cx="16.37" cy="58.93" rx="2.21" ry="1.04"/><ellipse class="cls-2" cx="29.6" cy="37.31" rx="1.65" ry="1"/><ellipse class="cls-2" cx="14.21" cy="21.18" rx="4.38" ry="1.13"/><path class="cls-1" d="M11.83,61.22h4.54a0,0,0,0,1,0,0v18.9a2.27,2.27,0,0,1-2.27,2.27h0a2.27,2.27,0,0,1-2.27-2.27V61.22A0,0,0,0,1,11.83,61.22Z"/><path class="cls-1" d="M.67,38.31H3.88a.67.67,0,0,1,.67.67v7.65a2.27,2.27,0,0,1-2.27,2.27h0A2.27,2.27,0,0,1,0,46.62V39a.67.67,0,0,1,.67-.67Z"/><path class="cls-1" d="M77.31,50.33h3.21a.67.67,0,0,1,.67.67v7.65a2.27,2.27,0,0,1-2.27,2.27h0a2.27,2.27,0,0,1-2.27-2.27V51a.67.67,0,0,1,.67-.67Z"/><path class="cls-1" d="M63.19,55.31H66.4a.67.67,0,0,1,.67.67v7.65a2.27,2.27,0,0,1-2.27,2.27h0a2.27,2.27,0,0,1-2.27-2.27V56a.67.67,0,0,1,.67-.67Z"/><path class="cls-1" d="M37.15,60h3.21a.67.67,0,0,1,.67.67v7.65a2.27,2.27,0,0,1-2.27,2.27h0a2.27,2.27,0,0,1-2.27-2.27V60.64a.67.67,0,0,1,.67-.67Z"/><path class="cls-1" d="M4.9,57.22H8.11a.67.67,0,0,1,.67.67v7.65A2.27,2.27,0,0,1,6.5,67.81h0a2.27,2.27,0,0,1-2.27-2.27V57.89a.67.67,0,0,1,.67-.67Z"/><path class="cls-1" d="M32,20.93h9a1,1,0,0,1,1,1v6a3.55,3.55,0,0,1-3.55,3.55h-4A3.55,3.55,0,0,1,30.92,28V22a1,1,0,0,1,1-1Z"/><path class="cls-1" d="M81.08,49.7h4.54a0,0,0,0,1,0,0V68.6a2.27,2.27,0,0,1-2.27,2.27h0a2.27,2.27,0,0,1-2.27-2.27V49.7A0,0,0,0,1,81.08,49.7Z"/><path class="cls-1" d="M95.46,32H100a0,0,0,0,1,0,0v18.9a2.27,2.27,0,0,1-2.27,2.27h0a2.27,2.27,0,0,1-2.27-2.27V32A0,0,0,0,1,95.46,32Z"/><rect class="cls-1" x="18.58" y="25.39" width="8.79" height="8.79"/><rect class="cls-1" x="24.67" y="40.56" width="9.36" height="11.33"/><rect class="cls-1" x="51.61" y="28.84" width="5.95" height="6.33"/></svg>