<svg id="Layer_1" data-name="Layer 1" xmlns="http://www.w3.org/2000/svg" viewBox="0 0 100 100"><defs><style>.cls-1{fill:#6ab8d9;}.cls-2{fill:#589ab6;}.cls-3{fill:#b2e2f9;}.cls-4{fill:#5596b2;}</style></defs><title>current</title><path class="cls-1" d="M2.93,48.94A2.77,2.77,0,0,0,0,51.88a50,50,0,0,0,100-3.22L100,47c-22.15,14.06-37.85-.14-33.07-16.12,3.88-13,14.55-12.53,14.55-12.53S78.15,9.3,65.7,10.65C53.7,12,48.41,19.54,38.38,34.58,28.81,48.93,10.22,49.37,2.93,48.94Z"/><path class="cls-2" d="M57.23,76.25a2.93,2.93,0,1,0,.63-5.82C50.36,69.61,42.43,71,33,74.7l-.41.16c-8.45,3.33-14.39,5.65-20.86,6a51.26,51.26,0,0,0,5.15,5.27c5.53-1,11-3.15,17.85-5.85l.41-.16C43.66,76.77,50.69,75.53,57.23,76.25Z"/><path class="cls-3" d="M81.25,77.45c-2.81-.83-5.49-1.83-7.84-2.71a2.93,2.93,0,1,0-2.06,5.48c2.45.92,5.24,2,8.26,2.85,1.85.54,3.62,1,5.31,1.38a50.54,50.54,0,0,0,4.52-5.06A75.87,75.87,0,0,1,81.25,77.45Z"/><path class="cls-3" d="M84.2,63.37c-3.63-.32-7.1-1.9-11.12-3.73-8.34-3.8-18.72-8.53-34.81-2.53-2.23.83-4.37,1.66-6.45,2.47l-1.37.53a2.93,2.93,0,0,0,2.12,5.46L33.94,65c2.05-.8,4.17-1.62,6.37-2.44C54.14,57.45,62.53,61.27,70.65,65c4.32,2,8.4,3.83,13,4.23q2.36.21,4.44.21a35.74,35.74,0,0,0,7.72-.79,50.67,50.67,0,0,0,2.39-6.8C94.59,63.21,90.31,63.91,84.2,63.37Z"/><path class="cls-3" d="M5.54,71.73c.82.06,1.64.1,2.47.1a42.6,42.6,0,0,0,10.9-1.55,2.93,2.93,0,1,0-1.51-5.66c-5.53,1.47-10.19,1.75-14.6.82A49.62,49.62,0,0,0,5.54,71.73Z"/><path class="cls-1" d="M69.45,6.81h0c.39,0,4.44-.25,5.48-1a2.48,2.48,0,0,0,.5-3.47h0A2.48,2.48,0,0,0,72,1.8C70.87,2.62,69.45,6.81,69.45,6.81Z"/><path class="cls-3" d="M80.76,9.72h0c.36.09,4.16,1.1,5.36.69a2.41,2.41,0,0,0,1.5-3h0a2.4,2.4,0,0,0-3-1.5C83.33,6.29,80.76,9.72,80.76,9.72Z"/><path class="cls-1" d="M78.06,24.38l0,0c.21.24,2.4,2.74,3.43,3A2,2,0,0,0,84,26v0a2,2,0,0,0-1.43-2.49C81.48,23.2,78.06,24.38,78.06,24.38Z"/><path class="cls-4" d="M26.72,93a49.72,49.72,0,0,0,6.6,2.88c6.23-3.22,19.67-7.92,38-2A49.78,49.78,0,0,0,78,90.09C50.09,78.81,30.94,90.1,26.72,93Z"/></svg>