<svg id="Layer_1" data-name="Layer 1" xmlns="http://www.w3.org/2000/svg" viewBox="0 0 100 100"><defs><style>.cls-1{fill:#5a9eba;}.cls-2{fill:#6ab8d9;}.cls-3{fill:#447d93;}.cls-4{fill:#e0e0e0;}.cls-5{fill:#fff;}.cls-6{fill:#d0d2d3;}</style></defs><title>arctic</title><path class="cls-1" d="M92.13,60.6H36.69c-4.32,0-5.27-3.55-5.27-7.87h1.06c0-4.33-.11-7.88,4.21-7.88H92.13A7.9,7.9,0,0,1,100,52.73h0A7.9,7.9,0,0,1,92.13,60.6Z"/><polyline class="cls-1" points="69.09 86.93 97.54 58.48 97.54 48.72 95.81 46.24 51.73 67.64"/><path class="cls-2" d="M33.08,45.77,3,75.42H68.14L97,46.55h-.07a7.8,7.8,0,0,0-4.81-1.7H36.69a7.78,7.78,0,0,0-3.61.93"/><path class="cls-3" d="M63.31,73.74H7.87a7.87,7.87,0,0,0,0,15.74H63.31a7.87,7.87,0,1,0,0-15.74Z"/><polygon class="cls-1" points="18.4 67.74 27.36 67.74 22.89 66.58 18.4 67.74"/><polygon class="cls-1" points="33.04 71.47 42 71.47 37.52 70.32 33.04 71.47"/><polygon class="cls-1" points="66.7 68.77 71.18 68.77 68.94 67.62 66.7 68.77"/><path class="cls-4" d="M11.38,67.18l20-6.58L36.9,65l25.37-4.88L71.18,65,84,59.58l13-13V44.18a39.38,39.38,0,0,1-4.88.67H36.69a7.78,7.78,0,0,0-3.61.93h0l-21.7,19Z"/><path class="cls-5" d="M11.38,64.8l20-6.58,5.48,4.43,25.37-4.89,8.91,4.89L84,57.2l13-13h-.07a7.74,7.74,0,0,0-4.81-1.7H36.69a7.77,7.77,0,0,0-3.61.92h0Z"/><polygon class="cls-4" points="48.48 67.46 48.48 65.71 60.55 64.96 64.48 67.21 64.48 68.96 56.48 70.83 48.48 67.46"/><polygon class="cls-5" points="48.48 65.71 60.55 63.21 64.48 67.21 56.48 69.08 48.48 65.71"/><polygon class="cls-4" points="25.69 50.69 32.35 20.69 40.52 17.86 47.27 10.52 59.94 21.19 70.27 21.44 75.11 32.85 75.69 44.69 51.1 46.24 42.94 53.19 25.69 50.69"/><polygon class="cls-6" points="65.71 47.94 73.02 50.69 90.86 50.32 97.01 44.18 87.27 30.52 79.44 24.69 64.48 24.27 53.69 32.35 49.52 47.27 45.94 50.69 65.71 47.94"/><polygon class="cls-5" points="53.69 32.35 64.48 24.27 79.44 24.69 70.11 29.44 60.85 30.52 49.52 47.27 53.69 32.35"/><polygon class="cls-5" points="71.86 34.35 87.27 30.52 74.63 37.48 68.19 36.77 71.86 34.35"/><polygon class="cls-5" points="32.35 20.69 40.52 17.86 48.02 20.69 35.59 21.77 26.54 46.88 32.35 20.69"/><polygon class="cls-5" points="43.87 14.21 47.27 10.52 55.51 17.46 50.02 15.44 46.69 17.46 43.87 14.21"/><polygon class="cls-5" points="59.94 21.19 51.73 26.69 49.52 21.61 59.94 21.19"/><polygon class="cls-5" points="40.52 34 49.52 33.52 44.6 40.27 40.52 34"/><polygon class="cls-5" points="92.23 37.48 83.11 38.02 97.01 44.18 92.23 37.48"/><circle class="cls-5" cx="21.68" cy="37.97" r="1.07"/><circle class="cls-5" cx="28.38" cy="18.48" r="1.01"/><circle class="cls-5" cx="64.08" cy="41.58" r="1.31"/><circle class="cls-5" cx="80.98" cy="17.15" r="1.13"/><circle class="cls-5" cx="9.23" cy="55.31" r="1.13"/><circle class="cls-5" cx="31.87" cy="68.84" r="1.1"/><circle class="cls-5" cx="82.82" cy="44.12" r="1.22"/><circle class="cls-5" cx="60.35" cy="12.69" r="1.08"/><polygon class="cls-5" points="26.54 50.81 34.88 48.96 38.63 45.67 36.42 41.04 40.17 45.67 37.79 50.69 42.94 53.19 26.54 50.81"/></svg>