<svg id="Layer_1" data-name="Layer 1" xmlns="http://www.w3.org/2000/svg" viewBox="0 0 100 100"><defs><style>.cls-1{fill:#c7d6de;}.cls-2{fill:#3e3e3f;}</style></defs><title>roe</title><circle class="cls-1" cx="13.59" cy="43.91" r="13.59"/><circle class="cls-2" cx="13.94" cy="41.1" r="5.51"/><path class="cls-2" d="M9.26,41.8s-3.93,7.91.82,12.4c0,0-2.15-4.93,4.37-9.3"/><circle class="cls-1" cx="68.41" cy="25.87" r="9.72"/><circle class="cls-2" cx="66.46" cy="25.33" r="3.94"/><circle class="cls-1" cx="21.11" cy="83.34" r="8.79"/><circle class="cls-2" cx="19.34" cy="82.86" r="3.56"/><circle class="cls-1" cx="34.5" cy="14.14" r="8.79"/><circle class="cls-2" cx="34.66" cy="12.32" r="3.56"/><circle class="cls-1" cx="91.21" cy="85.86" r="8.79"/><circle class="cls-2" cx="91.37" cy="84.03" r="3.56"/><circle class="cls-1" cx="63.43" cy="51.95" r="5.65"/><circle class="cls-2" cx="63.54" cy="50.78" r="2.29"/><path class="cls-2" d="M65,26.37s.66,5.74,3,8.38A10.62,10.62,0,0,1,67.09,28"/><circle class="cls-1" cx="53.77" cy="74.54" r="13.59"/><circle class="cls-2" cx="53.46" cy="72.82" r="6.68"/><path class="cls-2" d="M56.3,70.22s4.76,9.59-1,15c0,0,2.61-6-5.3-11.29"/></svg>