<svg id="Layer_1" data-name="Layer 1" xmlns="http://www.w3.org/2000/svg" viewBox="0 0 100 100"><defs><style>.cls-1{fill:#6d4945;}.cls-2{fill:#895e59;}.cls-3{fill:#6ab8d9;}.cls-4{fill:#3e3e3f;}.cls-5{fill:#ebf7fd;}.cls-6{fill:#00a69c;}.cls-7{fill:#fff;}.cls-8{fill:#089a7a;}.cls-9{fill:#09a582;}.cls-10{fill:#069274;}</style></defs><title>hurricane</title><rect class="cls-1" x="28.82" y="44.87" width="71.18" height="15.74" rx="3.95" ry="3.95"/><polyline class="cls-1" points="69.09 86.94 97.54 58.49 97.54 48.73 95.81 46.26 51.73 67.65"/><path class="cls-2" d="M32.67,45.79,3,75.43H68.14L97,46.57h-.07a7.74,7.74,0,0,0-4.81-1.7H36.69a7.77,7.77,0,0,0-3.61.92"/><path class="cls-1" d="M63.31,73.75H7.87a7.87,7.87,0,0,0,0,15.74H63.31a7.87,7.87,0,1,0,0-15.74Z"/><polyline class="cls-3" points="37.08 22.52 32.2 37.05 29.54 36.16 30.29 33.92 29.19 31.7 31.17 25.81 33.49 24.65 34.49 21.65"/><circle class="cls-4" cx="36.06" cy="25.43" r="1.18"/><circle class="cls-4" cx="33.11" cy="34.2" r="1.18"/><polygon class="cls-5" points="31.01 27.36 32.38 27.82 33.31 25.03 31.47 25.95 31.01 27.36"/><polygon class="cls-5" points="29.57 31.62 30.94 32.08 30.48 33.47 29.56 31.63 29.57 31.62"/><rect class="cls-5" x="29.67" y="28.99" width="2.6" height="1.46" transform="translate(-7.06 49.62) rotate(-71.44)"/><rect class="cls-1" x="36.84" y="51.49" width="2.3" height="3.35" rx="0.58" ry="0.58" transform="translate(-10.51 9.37) rotate(-12.37)"/><path class="cls-6" d="M32.12,53.61l11.05-2.88c-5-10.79-17.17-11.78-23-6.37C28.31,42.59,33.18,49.2,32.12,53.61Z"/><rect class="cls-1" x="75.07" y="57.72" width="2.3" height="3.35" rx="0.58" ry="0.58" transform="matrix(0.98, -0.21, 0.21, 0.98, -10.95, 17.7)"/><path class="cls-6" d="M70.35,59.84,81.41,57c-5-10.79-17.18-11.78-23-6.37C66.54,48.82,71.42,55.43,70.35,59.84Z"/><rect class="cls-1" x="56.32" y="26.15" width="1.75" height="2.56" rx="0.44" ry="0.44" transform="translate(88.07 82.85) rotate(-144.74)"/><polygon class="cls-6" points="60.98 30.64 52.91 24.93 50.77 36.53 60.98 30.64"/><rect class="cls-1" x="52.93" y="45.06" width="1.45" height="2.11" rx="0.36" ry="0.36" transform="translate(11.42 102.88) rotate(-94.03)"/><polygon class="cls-6" points="53.28 47.38 53.01 42.07 44.46 46.76 53.28 47.38"/><rect class="cls-1" x="44.68" y="61.78" width="1.38" height="2.01" rx="0.35" ry="0.35" transform="translate(-5.39 4.27) rotate(-5.09)"/><path class="cls-6" d="M42.42,61.74l6.18.84c-2-6.1-8.54-9-12.05-7.59C41.08,55.77,43.29,59.87,42.42,61.74Z"/><rect class="cls-1" x="61.72" y="66.1" width="1.75" height="2.56" rx="0.44" ry="0.44"/><path class="cls-6" d="M58.15,66.75l8.71-.34c-2-8.85-10.87-11.57-16.09-8.5C57.11,57.92,59.67,63.64,58.15,66.75Z"/><path class="cls-7" d="M7.36,59.84,11,59.65c2.29-.08,5.56-.27,9.49-.36S28.94,59,33.85,59s10.14-.1,15.37-.12,10.46,0,15.37.12,9.48.23,13.41.31,7.19.29,9.48.37l3.6.19-3.6.2c-2.29.08-5.56.28-9.48.36s-8.5.26-13.41.32-10.14.1-15.37.12-10.47,0-15.37-.12-9.49-.23-13.41-.32S13.24,60.12,11,60Z"/><path class="cls-7" d="M7.36,44.87l14.38-.28,14.73-.15,16.9-.07,16.9.07L85,44.59l14.38.28L85,45.15l-14.74.15-16.9.07-16.9-.07-14.73-.15Z"/><path class="cls-7" d="M7.36,33.47l13.83-.28L35.37,33,51.63,33,67.89,33l14.18.15,13.83.28-13.83.28-14.18.15L51.63,34,35.37,33.9l-14.18-.15Z"/><rect class="cls-1" x="22.1" y="64.53" width="2.64" height="3.86" rx="0.66" ry="0.66" transform="translate(-9.55 4.18) rotate(-8.48)"/><path class="cls-6" d="M16.65,66.51l12.91-2.45C24.63,51.3,10.77,49.21,3.67,55,13.14,53.57,18.22,61.53,16.65,66.51Z"/><path class="cls-8" d="M12.35,36.5a.76.76,0,0,0,.83.18l1.42-.55,0-1.86Z"/><path class="cls-9" d="M14.62,34.27l0,1.86c.82-.32,1.7-.69,2.54-1.05l0-3.32Z"/><path class="cls-8" d="M17.17,31.76l0,3.32,1.51-.71,0-4.1Z"/><path class="cls-9" d="M18.65,34.37a8,8,0,0,0,1.85-1.13c.91-.89.6-2.79.31-3.91a1.61,1.61,0,0,0-.42-.74l-1.71,1.68Z"/><path class="cls-10" d="M15.74,28.41c-.94.92-2.64,5-3.56,7.26a.74.74,0,0,0,.17.83l8-7.91a1.63,1.63,0,0,0-.73-.43C18.54,27.85,16.65,27.51,15.74,28.41Z"/><path class="cls-8" d="M68.73,24.47a1.29,1.29,0,0,0,.18-1.42c-.34-.69-.72-1.48-1.14-2.31L64.65,21Z"/><path class="cls-9" d="M64.65,21l3.12-.25c-.66-1.31-1.4-2.74-2.14-4.09l-5.56.43Z"/><path class="cls-8" d="M60.07,17.08l5.56-.43c-.47-.86-.94-1.69-1.4-2.43l-6.88.54Z"/><path class="cls-9" d="M64.23,14.22a13.52,13.52,0,0,0-2.16-2.94c-1.63-1.39-4.77-.6-6.61.05a2.87,2.87,0,0,0-1.18.81l3.07,2.62Z"/><path class="cls-10" d="M54.65,20c1.69,1.45,8.71,3.71,12.7,4.92a1.31,1.31,0,0,0,1.38-.41L54.28,12.14a2.81,2.81,0,0,0-.61,1.29C53.32,15.35,53,18.57,54.65,20Z"/><path class="cls-7" d="M61.22,44.86a3,3,0,0,1-1,.39,3.53,3.53,0,0,1-4.38-4.2,2.94,2.94,0,0,1,1.53-2,2,2,0,0,1,1.42-.18,2.31,2.31,0,0,1,1.19.82,2.45,2.45,0,0,1,.36,2.61,2.78,2.78,0,0,1-2.08,1.37,2.67,2.67,0,0,1-2.17-.61,4.48,4.48,0,0,1-1.17-1.53,8.26,8.26,0,0,1-.78-2.68,7.33,7.33,0,0,1-.08-1.05,7.48,7.48,0,0,0,.21,1,8.83,8.83,0,0,0,1,2.51,5,5,0,0,0,1.15,1.29,1.85,1.85,0,0,0,1.69.35,2.18,2.18,0,0,0,1.42-1,1.67,1.67,0,0,0-.31-1.64,1.12,1.12,0,0,0-1.43-.37,2.08,2.08,0,0,0-1.07,1.35,3,3,0,0,0,1,3.09A3.67,3.67,0,0,0,60.2,45,4.39,4.39,0,0,0,61.22,44.86Z"/><path class="cls-7" d="M38.86,59.38a7,7,0,0,1-1.53.5A11.36,11.36,0,0,1,33,60a9.5,9.5,0,0,1-2.82-.88,5.15,5.15,0,0,1-2.48-2.43,2.26,2.26,0,0,1,.18-2.17,3.48,3.48,0,0,1,1.71-1.18,5.26,5.26,0,0,1,3.85.29,5.76,5.76,0,0,1,1.64,1.08,3,3,0,0,1,.64.88,1.75,1.75,0,0,1,.15.71l0,.23a2.34,2.34,0,0,1-.13.4,2.73,2.73,0,0,1-1.68,1.25,7.43,7.43,0,0,1-1.76.32,9.61,9.61,0,0,1-5.84-1.77,13.25,13.25,0,0,1-3.1-2.93,11.62,11.62,0,0,1-.87-1.34,12.49,12.49,0,0,0,1,1.22,13.56,13.56,0,0,0,3.25,2.57,12.54,12.54,0,0,0,2.52,1.05,6.66,6.66,0,0,0,2.93.24,6.17,6.17,0,0,0,1.47-.41c.44-.18.91-.47,1-.7,0,0,0,0,0,0a1.15,1.15,0,0,0,0-.2c0,.08,0-.08,0-.13a1.89,1.89,0,0,0-.4-.48A3.93,3.93,0,0,0,33,54.81,4.44,4.44,0,0,0,30,54.58a2.25,2.25,0,0,0-1.09.66,1,1,0,0,0-.07,1,4.47,4.47,0,0,0,1.87,1.94,9.07,9.07,0,0,0,2.46,1,14.13,14.13,0,0,0,4.08.42A10.28,10.28,0,0,0,38.86,59.38Z"/><rect class="cls-1" x="84.46" y="46.81" width="2.31" height="3.38" rx="0.58" ry="0.58"/><polygon class="cls-6" points="77.94 27.02 67.34 34.62 80.87 42.31 77.94 27.02"/><path class="cls-7" d="M44.4,34A6.2,6.2,0,0,1,43,33.54a7.35,7.35,0,0,1-2.54-1.7,6.7,6.7,0,0,1-1.57-2.55,5.54,5.54,0,0,1-.26-.94L38.58,28l.12.35a6.89,6.89,0,0,0,.36.89,6.63,6.63,0,0,0,1.76,2.25,6.89,6.89,0,0,0,2.48,1.27,5.21,5.21,0,0,0,1.22.23.5.5,0,0,1,.48.51.49.49,0,0,1-.51.48H44.4Z"/><path class="cls-1" d="M47.65,67.37a37.32,37.32,0,0,1-13.44,0,36.73,36.73,0,0,1,13.44,0Z"/><path class="cls-8" d="M10.11,13.22a.53.53,0,0,0-.33.52c0,.33,0,.71,0,1.11l1.27.48Z"/><path class="cls-9" d="M11.07,15.33,9.8,14.85c0,.64,0,1.33.09,2l2.26.84Z"/><path class="cls-8" d="M12.15,17.69l-2.26-.84c0,.42.07.83.11,1.2l2.79,1.05Z"/><path class="cls-9" d="M10,18.05a6.45,6.45,0,0,0,.31,1.55c.39.84,1.76,1.1,2.6,1.18a1.16,1.16,0,0,0,.61-.1l-.73-1.58Z"/><path class="cls-10" d="M14.8,17.55c-.4-.87-2.73-3-4.08-4.24a.56.56,0,0,0-.61-.09l3.41,7.46a1.11,1.11,0,0,0,.47-.39C14.48,19.6,15.19,18.39,14.8,17.55Z"/></svg>