<svg id="Layer_1" data-name="Layer 1" xmlns="http://www.w3.org/2000/svg" viewBox="0 0 100 100"><defs><style>.cls-1{fill:#069274;}.cls-2{fill:#09a582;}.cls-3{fill:#089a7a;}.cls-4{fill:#bf9b77;}.cls-5{fill:#9f8163;}.cls-6{fill:#fcca98;}</style></defs><title>seed</title><path class="cls-1" d="M84.36,2.06a71.48,71.48,0,0,0-8.3.45c-3.38.41-6.52,1.15-8.23,2.5a11.63,11.63,0,0,0-2,16.35.76.76,0,0,0,.09.09,11.62,11.62,0,0,0,16.25,1.86c5-3.94,8-20.85,8-21.06v0S87.71,2.06,84.36,2.06Z"/><path class="cls-1" d="M55.12,23.59a39,39,0,0,1-9.76-1.2l.62-2.2c.12,0,12.77,3.46,22.48-2,4.92-2.79,8.3-7.41,10-13.75L80.71,5c-1.92,7-5.66,12-11.14,15.14A29.41,29.41,0,0,1,55.12,23.59Z"/><path class="cls-2" d="M90.19,2.25v0s-2.49-.17-5.84-.17a71.48,71.48,0,0,0-8.3.45c-3.38.41-6.52,1.15-8.23,2.5a11.63,11.63,0,0,0-2,16.35.76.76,0,0,0,.09.09Z"/><path class="cls-3" d="M84.36,2.06a71.2,71.2,0,0,0-8.29.45V13.45l8.29-6.58Z"/><path class="cls-4" d="M47.33,31.79a34.51,34.51,0,0,1-3.78,8.86,2.39,2.39,0,0,1-4.38-1.81c1.24-5,2.44-8.3,3.09-11.74a2.39,2.39,0,0,0-2.33-2.86h0C30.77,24.24,9.8,53.29,9.8,69.91a30.09,30.09,0,0,0,60.18,0C70,58,60.81,40,51.36,30.73A2.42,2.42,0,0,0,47.33,31.79Z"/><path class="cls-5" d="M22.38,76.16C18.65,60,32.56,27,41.45,24.9a7.24,7.24,0,0,1,1.15-.08,8.21,8.21,0,0,0-2.71-.58C30.77,24.24,9.8,53.29,9.8,69.91A30,30,0,0,0,47,99.12,30.09,30.09,0,0,1,22.38,76.16Z"/><ellipse class="cls-6" cx="54.34" cy="46.63" rx="4.09" ry="7.6" transform="translate(-16.04 33.42) rotate(-30)"/><ellipse class="cls-6" cx="48.09" cy="36.41" rx="1.08" ry="1.36" transform="matrix(0.87, -0.5, 0.5, 0.87, -11.76, 28.92)"/><ellipse class="cls-5" cx="28.82" cy="51.5" rx="2.73" ry="1.17" transform="translate(-28.29 66.37) rotate(-75.36)"/><path class="cls-2" d="M27.91,10.33a7.18,7.18,0,0,1-3.08-3,4.44,4.44,0,0,1,.49-4.64c2.15-2.78,6-3,8.83-2.44a15.58,15.58,0,0,1,8.21,4.17,17.22,17.22,0,0,1,4.52,8.07c1.47,6,.66,11.88-.67,17.41A37.82,37.82,0,0,1,38.6,45.07,65,65,0,0,0,43,29.24c.75-5.35,1.25-10.82,0-15.75A13.46,13.46,0,0,0,33.45,3.26c-2.37-.72-5-.89-6.8.61a2.88,2.88,0,0,0-1,3.13A8,8,0,0,0,27.91,10.33Z"/><ellipse class="cls-4" cx="21.87" cy="89.12" rx="1.23" ry="3" transform="translate(-41.63 22.87) rotate(-30)"/><ellipse class="cls-4" cx="23.71" cy="42.11" rx="2.58" ry="0.83" transform="translate(-24.51 38.98) rotate(-56.91)"/><circle class="cls-4" cx="26.01" cy="38.59" r="0.42"/></svg>