<svg id="Layer_1" data-name="Layer 1" xmlns="http://www.w3.org/2000/svg" viewBox="0 0 100 100"><defs><style>.cls-1{fill:#f7a895;}.cls-2{fill:#fac6b9;}</style></defs><title>pollen</title><path class="cls-1" d="M64.38,47.25h-4.3A14.08,14.08,0,0,0,57.81,42l3.11-3.11a2.9,2.9,0,1,0-4.11-4.1L53.59,38a14.26,14.26,0,0,0-5.15-2V31.31a2.91,2.91,0,1,0-5.81,0v4.94a14.15,14.15,0,0,0-4.76,2.14l-3.61-3.61a2.9,2.9,0,1,0-4.11,4.1l3.72,3.73A14.5,14.5,0,0,0,32,47.25H26.68a2.91,2.91,0,0,0,0,5.82H32a14.5,14.5,0,0,0,1.87,4.64l-3.72,3.72a2.91,2.91,0,1,0,4.11,4.11l3.61-3.61a14.15,14.15,0,0,0,4.76,2.14V69a2.91,2.91,0,1,0,5.81,0V64.28a14.26,14.26,0,0,0,5.15-2l3.22,3.21a2.91,2.91,0,0,0,4.11-4.11l-3.11-3.1a14.08,14.08,0,0,0,2.27-5.26h4.3a2.91,2.91,0,1,0,0-5.82Z"/><path class="cls-1" d="M87.14,19.06H85.41A5.64,5.64,0,0,0,84.49,17l1.25-1.26A1.17,1.17,0,0,0,84.09,14l-1.3,1.3a5.88,5.88,0,0,0-2.07-.78V12.65a1.17,1.17,0,1,0-2.34,0v2a5.68,5.68,0,0,0-1.91.85L75,14a1.17,1.17,0,1,0-1.66,1.65l1.51,1.51a5.84,5.84,0,0,0-.76,1.86H72a1.17,1.17,0,0,0,0,2.34h2.14a5.66,5.66,0,0,0,.76,1.86l-1.51,1.51A1.17,1.17,0,1,0,75,26.42L76.47,25a5.88,5.88,0,0,0,1.91.85v2a1.17,1.17,0,0,0,2.34,0V25.9a5.52,5.52,0,0,0,2.07-.78l1.3,1.3a1.18,1.18,0,0,0,.83.35,1.14,1.14,0,0,0,.82-.35,1.16,1.16,0,0,0,0-1.65l-1.25-1.25a5.68,5.68,0,0,0,.92-2.12h1.73a1.17,1.17,0,1,0,0-2.34Z"/><path class="cls-2" d="M66.1,7.18h-.67a2.1,2.1,0,0,0-.35-.81l.48-.48a.45.45,0,1,0-.63-.63l-.5.5a2.16,2.16,0,0,0-.79-.3V4.73a.45.45,0,1,0-.89,0v.76a2.36,2.36,0,0,0-.74.33l-.55-.56a.45.45,0,1,0-.63.63l.57.58a2.22,2.22,0,0,0-.29.71h-.82a.45.45,0,0,0,0,.9h.82a2.31,2.31,0,0,0,.29.71l-.57.57a.45.45,0,0,0,0,.64.46.46,0,0,0,.31.13.48.48,0,0,0,.32-.13L62,9.44a2.36,2.36,0,0,0,.74.33v.76a.45.45,0,1,0,.89,0V9.8a2.16,2.16,0,0,0,.79-.3l.5.5a.45.45,0,0,0,.63,0,.45.45,0,0,0,0-.64l-.48-.47a2.17,2.17,0,0,0,.35-.81h.67a.45.45,0,0,0,0-.9Z"/><path class="cls-2" d="M64.5,75.61h-.67a2.17,2.17,0,0,0-.35-.81l.48-.47a.45.45,0,0,0,0-.64.45.45,0,0,0-.63,0l-.5.5a2.09,2.09,0,0,0-.79-.3v-.73a.45.45,0,1,0-.89,0v.76a2.21,2.21,0,0,0-.73.33l-.56-.56a.45.45,0,0,0-.63,0,.45.45,0,0,0,0,.64l.57.57a2.59,2.59,0,0,0-.29.71h-.82a.45.45,0,0,0,0,.9h.82a2.47,2.47,0,0,0,.29.71l-.57.58a.43.43,0,0,0,0,.63.42.42,0,0,0,.31.13.44.44,0,0,0,.32-.13l.56-.56a2.21,2.21,0,0,0,.73.33V79A.45.45,0,1,0,62,79v-.73a2.09,2.09,0,0,0,.79-.3l.5.5a.44.44,0,0,0,.32.13.42.42,0,0,0,.31-.13.43.43,0,0,0,0-.63l-.48-.48a2.17,2.17,0,0,0,.35-.81h.67a.45.45,0,0,0,0-.9Z"/><path class="cls-2" d="M19,64.34H18.3a2.1,2.1,0,0,0-.35-.81l.48-.48a.45.45,0,1,0-.63-.63l-.5.49a2.35,2.35,0,0,0-.79-.3v-.73a.45.45,0,0,0-.89,0v.77a2,2,0,0,0-.73.32l-.56-.55a.45.45,0,0,0-.63.63l.57.57a2.27,2.27,0,0,0-.29.72h-.82a.45.45,0,1,0,0,.89H14a2.13,2.13,0,0,0,.29.71l-.57.58a.43.43,0,0,0,0,.63.42.42,0,0,0,.31.13.44.44,0,0,0,.32-.13l.56-.55a2,2,0,0,0,.73.32v.77a.45.45,0,0,0,.89,0V67a2,2,0,0,0,.79-.3l.5.5a.44.44,0,0,0,.32.13.45.45,0,0,0,.31-.76L18,66a2.1,2.1,0,0,0,.35-.81H19a.45.45,0,0,0,0-.89Z"/><path class="cls-1" d="M23.12,85.82H21.38a5.78,5.78,0,0,0-.91-2.11l1.25-1.26a1.17,1.17,0,1,0-1.65-1.65l-1.3,1.3a6,6,0,0,0-2.07-.78V79.41a1.17,1.17,0,0,0-2.34,0v2a5.68,5.68,0,0,0-1.91.85L11,80.8a1.17,1.17,0,1,0-1.65,1.65L10.85,84a5.64,5.64,0,0,0-.77,1.86H7.94a1.17,1.17,0,1,0,0,2.34h2.14A5.47,5.47,0,0,0,10.85,90L9.34,91.53a1.16,1.16,0,0,0,0,1.65,1.18,1.18,0,0,0,.83.35,1.15,1.15,0,0,0,.82-.35l1.46-1.45a5.88,5.88,0,0,0,1.91.85v2a1.17,1.17,0,0,0,2.34,0V92.66a5.58,5.58,0,0,0,2.07-.78l1.3,1.3a1.15,1.15,0,0,0,.82.35,1.18,1.18,0,0,0,.83-.35,1.16,1.16,0,0,0,0-1.65l-1.25-1.25a5.83,5.83,0,0,0,.91-2.12h1.74a1.17,1.17,0,0,0,0-2.34Z"/><path class="cls-1" d="M97.88,82H94.73a10.44,10.44,0,0,0-1.65-3.85l2.27-2.26a2.13,2.13,0,0,0-3-3L90,75.21a10.43,10.43,0,0,0-3.76-1.42V70.33a2.13,2.13,0,0,0-4.25,0v3.61a10.39,10.39,0,0,0-3.47,1.56l-2.64-2.64a2.13,2.13,0,0,0-3,3l2.72,2.72A10.36,10.36,0,0,0,74.22,82H70.33a2.13,2.13,0,0,0,0,4.25h3.89a10.36,10.36,0,0,0,1.36,3.39l-2.72,2.72a2.13,2.13,0,0,0,3,3l2.64-2.65A10.22,10.22,0,0,0,82,94.27v3.61a2.13,2.13,0,0,0,4.25,0V94.42A10.43,10.43,0,0,0,90,93l2.35,2.35a2.13,2.13,0,0,0,3-3l-2.27-2.27a10.46,10.46,0,0,0,1.65-3.84h3.15a2.13,2.13,0,0,0,0-4.25Z"/><path class="cls-1" d="M23.6,11H21.1A8.23,8.23,0,0,0,19.78,7.9l1.81-1.81A1.69,1.69,0,1,0,19.2,3.7L17.33,5.57a8.18,8.18,0,0,0-3-1.13V1.69a1.69,1.69,0,1,0-3.37,0V4.56A8.47,8.47,0,0,0,8.19,5.8L6.09,3.7a1.69,1.69,0,0,0-2.39,0,1.71,1.71,0,0,0,0,2.39L5.87,8.26A8.2,8.2,0,0,0,4.78,11H1.69a1.69,1.69,0,1,0,0,3.37H4.78A8.25,8.25,0,0,0,5.87,17L3.7,19.2a1.69,1.69,0,0,0,1.2,2.88,1.67,1.67,0,0,0,1.19-.49l2.1-2.1A8.47,8.47,0,0,0,11,20.73V23.6a1.69,1.69,0,1,0,3.37,0V20.85a8.18,8.18,0,0,0,3-1.13l1.87,1.87a1.7,1.7,0,0,0,2.39,0,1.69,1.69,0,0,0,0-2.39l-1.81-1.8a8.35,8.35,0,0,0,1.32-3.07h2.5a1.69,1.69,0,1,0,0-3.37Z"/><circle class="cls-2" cx="40.86" cy="44.24" r="1.99"/><circle class="cls-2" cx="52.58" cy="50.83" r="4.6"/><circle class="cls-2" cx="40.33" cy="56.88" r="2.52"/><circle class="cls-2" cx="83.93" cy="79.27" r="3.21"/><circle class="cls-2" cx="88.67" cy="87.09" r="1.53"/><circle class="cls-2" cx="79.51" cy="88.8" r="1.21"/><circle class="cls-2" cx="80.56" cy="19.22" r="2.27"/><circle class="cls-2" cx="10.06" cy="11.99" r="3.73"/><circle class="cls-2" cx="18.6" cy="11.62" r="1.03"/><circle class="cls-2" cx="16.06" cy="16.54" r="0.82"/><circle class="cls-2" cx="14.71" cy="86.76" r="3.24"/><circle class="cls-2" cx="6.97" cy="43.87" r="5.75"/><circle class="cls-2" cx="48.54" cy="14.8" r="2.16"/><circle class="cls-2" cx="87.14" cy="54.36" r="7.07"/><circle class="cls-2" cx="48.54" cy="88.1" r="5.16"/></svg>