<svg id="Layer_1" data-name="Layer 1" xmlns="http://www.w3.org/2000/svg" xmlns:xlink="http://www.w3.org/1999/xlink" viewBox="0 0 100 100"><defs><style>.cls-1{fill:none;}.cls-2{clip-path:url(#clip-path);}.cls-3{fill:#58595b;}.cls-4{fill:#e0e0e0;}.cls-5{fill:#f05c38;}.cls-6{fill:#f37d60;}.cls-7{fill:#ffe5b1;}.cls-8{fill:#ffc640;}.cls-9{fill:#aed2c4;}.cls-10{fill:#fff;}</style><clipPath id="clip-path"><path class="cls-1" d="M-34.29,0h-71.42A14.33,14.33,0,0,0-120,14.29V85.71A14.33,14.33,0,0,0-105.71,100h71.42A14.33,14.33,0,0,0-20,85.71V14.29A14.33,14.33,0,0,0-34.29,0Z"/></clipPath></defs><title>primordial soup</title><g class="cls-2"><path class="cls-3" d="M-323,135.57C-139,41.52,18-20.36,34.09-5.63L153.26-66.55c-67.42,1.13-262.4,76.19-483,189-51.17,26.15-99.73,52.35-144.88,77.88H-444C-406.79,179.43-366.13,157.6-323,135.57Z"/><path class="cls-3" d="M177.7-59.09c-2.8-5.48-11.54-7.68-24.44-7.46L34.09-5.63c.38.34,1.09.51,1.31,1,9.5,18.58-132,109.91-317,205h101.71C38.5,81.93,193.16-28.85,177.7-59.09Z"/></g><circle class="cls-4" cx="50" cy="50" r="50"/><circle class="cls-5" cx="50" cy="50" r="37.86"/><circle class="cls-6" cx="50" cy="50" r="34.33"/><path class="cls-7" d="M39,59.67h-.18l-10.26-.77a2.39,2.39,0,0,1-2-1.36l-4.46-9.27a2.42,2.42,0,0,1,.18-2.41l5.8-8.49a2.4,2.4,0,0,1,2.17-1l10.26.77a2.43,2.43,0,0,1,2,1.36l4.46,9.27a2.39,2.39,0,0,1-.18,2.41L41,58.62A2.41,2.41,0,0,1,39,59.67ZM30.05,37.82a.89.89,0,0,0-.74.39l-5.8,8.5a.89.89,0,0,0-.07.89l4.46,9.27a.91.91,0,0,0,.75.51l10.25.77a.88.88,0,0,0,.81-.39l5.8-8.49a.91.91,0,0,0,.07-.9L41.12,39.1a.91.91,0,0,0-.74-.51h0l-10.26-.77Z"/><path class="cls-7" d="M37.91,71.93h-.18l-5.18-.39a2.46,2.46,0,0,1-2-1.36L28.3,65.5a2.44,2.44,0,0,1,.18-2.41l2.93-4.29a2.42,2.42,0,0,1,2.18-1l5.17.39a2.44,2.44,0,0,1,2,1.36L43,64.18a2.44,2.44,0,0,1-.18,2.41L39.9,70.88A2.41,2.41,0,0,1,37.91,71.93Zm-4.5-12.67a.92.92,0,0,0-.75.39l-2.93,4.29a.91.91,0,0,0-.06.9l2.25,4.68a.91.91,0,0,0,.74.51l5.18.39a.92.92,0,0,0,.81-.39l2.93-4.29a.93.93,0,0,0,.07-.9l-2.26-4.68a.91.91,0,0,0-.74-.51h0l-5.18-.39Z"/><path class="cls-7" d="M48.88,78.94a.83.83,0,0,1-.43-.13.78.78,0,0,1-.2-1.06l3.47-5.08a.89.89,0,0,0,.07-.89L49.54,67.1a.91.91,0,0,0-.75-.51l-6.13-.46a.76.76,0,0,1-.7-.82.75.75,0,0,1,.81-.69l6.14.46a2.4,2.4,0,0,1,2,1.36l2.25,4.68A2.4,2.4,0,0,1,53,73.53l-3.46,5.08A.78.78,0,0,1,48.88,78.94Z"/><path class="cls-7" d="M62.85,80.52a.74.74,0,0,1-.69-.43L59.5,74.55a.93.93,0,0,0-.75-.51l-6.13-.46a.76.76,0,1,1,.12-1.51l6.13.46a2.44,2.44,0,0,1,2,1.36l2.67,5.55a.76.76,0,0,1-.36,1A.71.71,0,0,1,62.85,80.52Z"/><path class="cls-7" d="M59.76,74.12a.77.77,0,0,1-.4-.12.76.76,0,0,1-.24-1l4.05-6.4a.75.75,0,1,1,1.28.8L60.4,73.77A.75.75,0,0,1,59.76,74.12Z"/><path class="cls-7" d="M56.49,73.87a.8.8,0,0,1-.4-.11.76.76,0,0,1-.24-1.05l4-6.4a.76.76,0,0,1,1-.24.77.77,0,0,1,.24,1.05l-4,6.4A.74.74,0,0,1,56.49,73.87Z"/><path class="cls-8" d="M73.27,66.19a.75.75,0,0,1-.55-.24l-4.2-4.49A2.41,2.41,0,0,1,68,59.11l1.51-5a2.39,2.39,0,0,1,1.76-1.65l6-1.4a.76.76,0,0,1,.91.57.75.75,0,0,1-.57.9l-6,1.4a.89.89,0,0,0-.65.61l-1.51,5a.91.91,0,0,0,.2.88l4.21,4.49a.76.76,0,0,1,0,1.07A.72.72,0,0,1,73.27,66.19Z"/><path class="cls-8" d="M70.55,54.4a.79.79,0,0,1-.55-.24l-4.2-4.49a2.42,2.42,0,0,1-.55-2.35L67,41.43a.75.75,0,0,1,.94-.5.74.74,0,0,1,.5.94L66.7,47.76a.9.9,0,0,0,.2.87l4.21,4.49a.76.76,0,0,1,0,1.07A.73.73,0,0,1,70.55,54.4Z"/><path class="cls-8" d="M58.39,51.18a.75.75,0,0,1-.2-1.48l7.31-2a.76.76,0,1,1,.39,1.46l-7.31,2A.62.62,0,0,1,58.39,51.18Z"/><path class="cls-8" d="M60.63,53.58a.76.76,0,0,1-.2-1.49l7.31-2a.75.75,0,0,1,.93.53.76.76,0,0,1-.53.93l-7.31,2Z"/><path class="cls-9" d="M58.66,34A10.37,10.37,0,0,1,55,33.29c-4.45-1.68-7.43-6.36-8.4-13.17A.56.56,0,1,1,47.7,20c.91,6.39,3.64,10.75,7.68,12.28s9,0,13.88-4.15a.55.55,0,0,1,.79.06.56.56,0,0,1-.06.79C66.14,32.24,62.23,34,58.66,34Z"/><path class="cls-9" d="M67,36a.56.56,0,0,1-.56-.48c-.9-6.4-3.63-10.76-7.68-12.29s-9-.05-13.87,4.16a.57.57,0,0,1-.79-.06.55.55,0,0,1,.06-.79c5.23-4.49,10.55-6,15-4.36s7.43,6.36,8.39,13.18a.55.55,0,0,1-.47.63Z"/><path class="cls-9" d="M52.56,31.82a.48.48,0,0,1-.2,0,.55.55,0,0,1-.32-.72L55.46,22a.57.57,0,0,1,.73-.33.55.55,0,0,1,.32.72l-3.42,9.1A.57.57,0,0,1,52.56,31.82Z"/><path class="cls-9" d="M55.8,33.56a.43.43,0,0,1-.19,0,.56.56,0,0,1-.33-.72l3.75-10a.57.57,0,0,1,.73-.33.55.55,0,0,1,.32.72l-3.75,10A.57.57,0,0,1,55.8,33.56Z"/><path class="cls-9" d="M59.57,33.9a.48.48,0,0,1-.2,0,.55.55,0,0,1-.32-.72l3-7.92a.56.56,0,0,1,1,.4l-3,7.92A.57.57,0,0,1,59.57,33.9Z"/><ellipse class="cls-10" cx="21.84" cy="16.24" rx="8.62" ry="2.43" transform="translate(-5.37 16.69) rotate(-37.58)"/></svg>