<svg id="Layer_1" data-name="Layer 1" xmlns="http://www.w3.org/2000/svg" viewBox="0 0 100 100"><defs><style>.cls-1{fill:#e0e0e0;}.cls-2{fill:#fff;}</style></defs><title>death</title><rect class="cls-1" x="10.03" y="73.01" width="82.52" height="9.39"/><path class="cls-1" d="M85.1,78s2.2,10,8.75,10c3.4,0,6.15-2.23,6.15-5s-2.75-5-6.15-5c3.4,0,6.15-2.22,6.15-5s-2.75-5-6.15-5C87.3,68.05,85.1,78,85.1,78Z"/><path class="cls-1" d="M14.9,77.71s-2.2-9.95-8.75-9.95C2.75,67.76,0,70,0,72.74s2.75,5,6.15,5c-3.4,0-6.15,2.22-6.15,5s2.75,5,6.15,5C12.7,87.65,14.9,77.71,14.9,77.71Z"/><circle class="cls-2" cx="50" cy="46.52" r="36.96"/><rect class="cls-2" x="27.77" y="68.3" width="44.46" height="22.15"/><path d="M41.21,44.69a9.33,9.33,0,1,1-18.65,0c0-5.15,7.22-10,12.38-10S41.21,39.54,41.21,44.69Z"/><path d="M58.79,44.55a9.33,9.33,0,1,0,18.65,0c0-5.15-7.22-10-12.38-10S58.79,39.4,58.79,44.55Z"/><path d="M50,52.35s-4.74,1.47-4.74,5.84c0,2.26,1.06,4.1,2.37,4.1S50,60.45,50,58.19c0,2.26,1.06,4.1,2.37,4.1s2.37-1.84,2.37-4.1C54.74,53.82,50,52.35,50,52.35Z"/><path d="M38.1,72.41h0a1.66,1.66,0,0,1,1.66,1.66V90.44a0,0,0,0,1,0,0H36.44a0,0,0,0,1,0,0V74.06a1.66,1.66,0,0,1,1.66-1.66Z"/><path d="M50,72.41h0a1.66,1.66,0,0,1,1.66,1.66V90.44a0,0,0,0,1,0,0H48.34a0,0,0,0,1,0,0V74.06A1.66,1.66,0,0,1,50,72.41Z"/><path d="M61.9,72.41h0a1.66,1.66,0,0,1,1.66,1.66V90.44a0,0,0,0,1,0,0H60.25a0,0,0,0,1,0,0V74.06A1.66,1.66,0,0,1,61.9,72.41Z"/></svg>