<svg id="Layer_1" data-name="Layer 1" xmlns="http://www.w3.org/2000/svg" viewBox="0 0 100 100"><defs><style>.cls-1{fill:#6d3a21;}.cls-2{fill:#a35323;}.cls-3{fill:#d56e33;}.cls-4{fill:#994d1f;}</style></defs><title>ore</title><polygon class="cls-1" points="16.88 15.75 13.63 20.25 24.38 86.58 30.13 95.33 40.46 99.04 45.17 98.04 76.21 88.13 81.58 80.42 85.13 24.38 82.58 14.08 69.38 5.33 60.38 3.25 16.88 15.75"/><path class="cls-2" d="M14.26,19.76l7.15,3.88a1.14,1.14,0,0,1,.59.94L25.59,86a1.14,1.14,0,0,1-2.12.64L6.35,57.42l6.24-36.84A1.15,1.15,0,0,1,14.26,19.76Z"/><path class="cls-3" d="M27,23.88l16.57-1a1.14,1.14,0,0,1,1.21,1.19L41.11,100l-11-3.51a1.13,1.13,0,0,1-.79-1L25.92,25.07A1.14,1.14,0,0,1,27,23.88Z"/><path class="cls-2" d="M50,24.89,75.19,41.83a1.15,1.15,0,0,1,.51.92l1.08,45.78A1.15,1.15,0,0,1,76,89.65L44.83,99.22l3.43-73.44A1.14,1.14,0,0,1,50,24.89Z"/><path class="cls-2" d="M51.48,20.71,75.46,37a1.13,1.13,0,0,0,1.74-.66L82.92,14a1.14,1.14,0,0,0-.47-1.23L70.07,4.52a1.14,1.14,0,0,0-1.36.07L51.39,18.88A1.15,1.15,0,0,0,51.48,20.71Z"/><path class="cls-4" d="M83.76,24.33,79.26,41a1.12,1.12,0,0,0,0,.32l1,39.25a1.14,1.14,0,0,0,2.15.5l11.15-21.3a1.12,1.12,0,0,0,.1-.78L86,24.38A1.14,1.14,0,0,0,83.76,24.33Z"/><path class="cls-3" d="M16.33,17.36l7.59,3.44a1.15,1.15,0,0,0,.58.1l20-1.86a1.1,1.1,0,0,0,.64-.28L61.67,4.22a1.14,1.14,0,0,0-.64-2L38.19,0a1.1,1.1,0,0,0-.77.2L16.14,15.39A1.14,1.14,0,0,0,16.33,17.36Z"/><path class="cls-2" d="M14.26,19.76l7.15,3.88a1.14,1.14,0,0,1,.59.94L25.59,86a1.14,1.14,0,0,1-2.12.64L6.35,57.42l6.24-36.84A1.15,1.15,0,0,1,14.26,19.76Z"/><path class="cls-3" d="M27,23.88l16.57-1a1.14,1.14,0,0,1,1.21,1.19L41.11,100l-11-3.51a1.13,1.13,0,0,1-.79-1L25.92,25.07A1.14,1.14,0,0,1,27,23.88Z"/><path class="cls-2" d="M50,24.89,75.19,41.83a1.15,1.15,0,0,1,.51.92l1.08,45.78A1.15,1.15,0,0,1,76,89.65L44.83,99.22l3.43-73.44A1.14,1.14,0,0,1,50,24.89Z"/><path class="cls-2" d="M51.48,20.71,75.46,37a1.13,1.13,0,0,0,1.74-.66L82.92,14a1.14,1.14,0,0,0-.47-1.23L70.07,4.52a1.14,1.14,0,0,0-1.36.07L51.39,18.88A1.15,1.15,0,0,0,51.48,20.71Z"/><path class="cls-4" d="M83.76,24.33,79.26,41a1.12,1.12,0,0,0,0,.32l1,39.25a1.14,1.14,0,0,0,2.15.5l11.15-21.3a1.12,1.12,0,0,0,.1-.78L86,24.38A1.14,1.14,0,0,0,83.76,24.33Z"/><path class="cls-3" d="M16.33,17.36l7.59,3.44a1.15,1.15,0,0,0,.58.1l20-1.86a1.1,1.1,0,0,0,.64-.28L61.67,4.22a1.14,1.14,0,0,0-.64-2L38.19,0a1.1,1.1,0,0,0-.77.2L16.14,15.39A1.14,1.14,0,0,0,16.33,17.36Z"/></svg>