<svg id="Layer_1" data-name="Layer 1" xmlns="http://www.w3.org/2000/svg" viewBox="0 0 100 100"><defs><style>.cls-1{fill:#805853;}.cls-2{fill:#4e322e;}</style></defs><title>domestication</title><path class="cls-1" d="M79.35,43.82a5,5,0,0,0-4.6-5.88,5.18,5.18,0,0,0-5.36,4.38L67.33,54.4c-.54,3.12-.24,6.06-2.08,3.5-.89-1.26-1.51-5.12-1.58-6.67-.22-5.67-.22-5.67-.22-8.87V11.25a4.35,4.35,0,0,0-4-4.42A4.18,4.18,0,0,0,55.08,11v30.3a1.37,1.37,0,0,1-1.51,1.37h0a1.4,1.4,0,0,1-1.26-1.38V4.42a4.34,4.34,0,0,0-4-4.41,4.18,4.18,0,0,0-4.41,4.17V42a1.6,1.6,0,0,1-1.18,1.55h0a1.6,1.6,0,0,1-2-1.55V11.25a4.34,4.34,0,0,0-4-4.42A4.18,4.18,0,0,0,32.3,11V47.79a1.67,1.67,0,0,1-.62,1.29l0,0A1.65,1.65,0,0,1,29,47.82V27.18a4.35,4.35,0,0,0-4-4.42,4.18,4.18,0,0,0-4.41,4.18V72.08h0C20.59,85.79,32.8,100,49.33,100,64,100,72.5,89.08,74.44,78.65,76,70.3,79.35,43.82,79.35,43.82Z"/><path class="cls-2" d="M61,83.06c1,4.74-4.12,5.77-6.39,5.15a40.41,40.41,0,0,0-6.89-.72,40.67,40.67,0,0,0-6.91.72c-2.27.63-7.42-.41-6.39-5.15S40,78.52,41.23,72.13s6.49-6,6.49-6,5.25-.41,6.49,6S60,78.32,61,83.06ZM52.48,65.74c2.79.8,5.87-1.4,6.89-4.93s-.42-7-3.21-7.83-5.88,1.4-6.89,4.92.42,7,3.21,7.84Zm11.57-1.29c-2.69-1.09-6,.77-7.38,4.16s-.33,7,2.36,8.13,6-.76,7.37-4.16.33-7-2.35-8.13ZM42.94,65.74c2.79-.81,4.23-4.32,3.21-7.84s-4.1-5.72-6.89-4.91S35,57.3,36.05,60.82s4.1,5.72,6.89,4.92Zm-6.55,11c2.69-1.1,3.75-4.74,2.36-8.13s-4.69-5.25-7.37-4.16S27.63,69.19,29,72.58s4.68,5.26,7.37,4.16Zm0,0"/></svg>