<svg id="Layer_1" data-name="Layer 1" xmlns="http://www.w3.org/2000/svg" viewBox="0 0 100 100"><defs><style>.cls-1{fill:#543732;}.cls-2{fill:#6e4a45;}.cls-3{fill:#885e59;}.cls-4{fill:#ad7770;}.cls-5{fill:#e4ad8d;}.cls-6{fill:#b77e79;}</style></defs><title>plow</title><path class="cls-1" d="M67.26,24.92h2.35a.95.95,0,0,1,.95.95V41.63a0,0,0,0,1,0,0H66.31a0,0,0,0,1,0,0V25.86A.95.95,0,0,1,67.26,24.92Z"/><path class="cls-2" d="M33.67,43s.33,9.07,1.88,13.83,3.36,9.8,9.32,12.32c0,0-5.79-5.91-4.53-17.5l-3,.71s-1-6.56-.63-9.36Z"/><path class="cls-2" d="M98.46,41.52H42.22S29,40.86,25.31,40.44s-17-.2-22.9,2.09.73,4.8,2,4.65a75.15,75.15,0,0,1,24.11-2.72H98.46a1.47,1.47,0,1,0,0-2.94Z"/><path class="cls-3" d="M24.24,40.27s-2.57,6.45,1.69,14.84S39.29,70.47,43.06,72.42c0,0-24.15,1.38-32.85-19.62a13.19,13.19,0,0,0,11.32,1.82s-2.89-8.16-1-14.24Z"/><rect class="cls-3" x="67.22" y="37.44" width="2.38" height="34.34"/><rect class="cls-3" x="67.22" y="37.44" width="2.38" height="34.34" transform="translate(58.66 -32.38) rotate(45)"/><rect class="cls-3" x="67.25" y="37.42" width="2.38" height="34.34" transform="translate(123.02 -13.85) rotate(90)"/><rect class="cls-3" x="67.22" y="37.44" width="2.38" height="34.34" transform="translate(155.4 44.86) rotate(135)"/><path class="cls-4" d="M68.44,34.39A20.35,20.35,0,1,0,88.78,54.74,20.35,20.35,0,0,0,68.44,34.39Zm0,37A16.69,16.69,0,1,1,85.12,54.74,16.68,16.68,0,0,1,68.44,71.42Z"/><circle class="cls-4" cx="68.44" cy="54.74" r="5.6"/><circle class="cls-1" cx="68.44" cy="54.74" r="3.8"/><circle class="cls-5" cx="68.44" cy="54.74" r="1.76"/><path class="cls-3" d="M23.68,42.59s1-5.54,3-8.77-3.4-2-4.61,1.84-1.92,6.59-1.92,6.59Z"/><path class="cls-6" d="M21.53,54.62A13.19,13.19,0,0,1,10.21,52.8c8.7,21,32.85,19.62,32.85,19.62C24.65,67.36,21.53,54.62,21.53,54.62Z"/></svg>