<svg id="Layer_1" data-name="Layer 1" xmlns="http://www.w3.org/2000/svg" viewBox="0 0 100 100"><defs><style>.cls-1{fill:#5596b2;}.cls-2{fill:#457f95;}.cls-3{fill:#ffc63f;}.cls-4{fill:#ffc640;}.cls-5{fill:#c5e0a9;}.cls-6{fill:#ffc83c;}</style></defs><title>legend</title><path class="cls-1" d="M85.34,100h-69a3.45,3.45,0,0,1-3.45-3.45V3.45A3.45,3.45,0,0,1,16.38,0h69a3.44,3.44,0,0,1,3.45,3.45v93.1A3.44,3.44,0,0,1,85.34,100Zm0,0"/><path class="cls-2" d="M16.38,0a3.45,3.45,0,0,0-3.45,3.45v93.1A3.45,3.45,0,0,0,16.38,100h3.45V0Zm0,0"/><path class="cls-3" d="M16.38,13.79H12.93a1.73,1.73,0,0,1,0-3.45h3.45a1.73,1.73,0,0,1,0,3.45Zm0,0"/><path class="cls-3" d="M16.38,89.65H12.93a1.72,1.72,0,0,1,0-3.44h3.45a1.72,1.72,0,0,1,0,3.44Zm0,0"/><path class="cls-3" d="M16.38,79.31H12.93a1.73,1.73,0,0,1,0-3.45h3.45a1.73,1.73,0,0,1,0,3.45Zm0,0"/><path class="cls-3" d="M16.38,24.14H12.93a1.73,1.73,0,0,1,0-3.45h3.45a1.73,1.73,0,0,1,0,3.45Zm0,0"/><path class="cls-4" d="M66.38,93.1H42.24a1.72,1.72,0,0,1-1.72-1.72A12.08,12.08,0,0,0,28.45,79.31a1.73,1.73,0,0,1-1.73-1.72V22.41a1.73,1.73,0,0,1,1.73-1.72A12.08,12.08,0,0,0,40.52,8.62,1.72,1.72,0,0,1,42.24,6.9H66.38A1.72,1.72,0,0,1,68.1,8.62,12.08,12.08,0,0,0,80.17,20.69a1.73,1.73,0,0,1,1.73,1.72V77.59a1.73,1.73,0,0,1-1.73,1.72A12.08,12.08,0,0,0,68.1,91.38a1.72,1.72,0,0,1-1.72,1.72ZM43.87,89.65H64.75A15.54,15.54,0,0,1,78.45,76V24a15.54,15.54,0,0,1-13.7-13.7H43.87A15.54,15.54,0,0,1,30.17,24V76a15.54,15.54,0,0,1,13.7,13.69Zm0,0"/><path class="cls-5" d="M28.45,17.24a1.73,1.73,0,0,1-1.73-1.72V8.62A1.73,1.73,0,0,1,28.45,6.9h6.89a1.72,1.72,0,0,1,1.73,1.72,8.63,8.63,0,0,1-8.62,8.62Zm1.72-6.9V13.5a5.23,5.23,0,0,0,3.16-3.16Zm0,0"/><path class="cls-5" d="M80.17,17.24a8.63,8.63,0,0,1-8.62-8.62A1.72,1.72,0,0,1,73.28,6.9h6.89A1.73,1.73,0,0,1,81.9,8.62v6.9a1.73,1.73,0,0,1-1.73,1.72Zm-4.87-6.9a5.19,5.19,0,0,0,3.15,3.16V10.34Zm0,0"/><path class="cls-5" d="M80.17,93.1H73.28a1.72,1.72,0,0,1-1.73-1.72,8.63,8.63,0,0,1,8.62-8.62,1.73,1.73,0,0,1,1.73,1.72v6.9a1.73,1.73,0,0,1-1.73,1.72ZM75.3,89.65h3.15V86.5a5.2,5.2,0,0,0-3.15,3.15Zm0,0"/><path class="cls-5" d="M35.35,93.1h-6.9a1.73,1.73,0,0,1-1.73-1.72v-6.9a1.73,1.73,0,0,1,1.73-1.72,8.63,8.63,0,0,1,8.62,8.62,1.72,1.72,0,0,1-1.72,1.72Zm-5.18-3.45h3.16a5.24,5.24,0,0,0-3.16-3.15Zm0,0"/><path class="cls-4" d="M54.31,77.59A27.59,27.59,0,1,1,81.9,50,27.63,27.63,0,0,1,54.31,77.59Zm0-51.73A24.14,24.14,0,1,0,78.45,50,24.17,24.17,0,0,0,54.31,25.86Zm0,0"/><path class="cls-6" d="M54.31,58.62A8.62,8.62,0,1,1,62.93,50a8.63,8.63,0,0,1-8.62,8.62Zm0-13.79A5.17,5.17,0,1,0,59.48,50a5.18,5.18,0,0,0-5.17-5.17Zm0,0"/><path class="cls-4" d="M54.31,25.86a1.72,1.72,0,0,1-1.72-1.72V15.52a1.72,1.72,0,1,1,3.44,0v8.62a1.72,1.72,0,0,1-1.72,1.72Zm0,0"/><path class="cls-6" d="M54.31,44.17a1.72,1.72,0,0,1-1.72-1.72V33.83a1.72,1.72,0,1,1,3.44,0v8.62a1.72,1.72,0,0,1-1.72,1.72Zm0,0"/><path class="cls-6" d="M54.31,67.69A1.72,1.72,0,0,1,52.59,66V57.35a1.72,1.72,0,1,1,3.44,0V66a1.72,1.72,0,0,1-1.72,1.72Zm0,0"/><path class="cls-6" d="M58.36,45.85a1.73,1.73,0,0,1,0-2.44l6.09-6.09a1.72,1.72,0,1,1,2.44,2.43l-6.09,6.1a1.73,1.73,0,0,1-2.44,0Zm0,0"/><path class="cls-6" d="M41.73,62.48a1.72,1.72,0,0,1,0-2.44L47.82,54a1.72,1.72,0,0,1,2.44,2.43l-6.09,6.1a1.73,1.73,0,0,1-2.44,0Zm0,0"/><path class="cls-6" d="M60,49.9a1.73,1.73,0,0,1,1.72-1.73h8.62a1.73,1.73,0,0,1,0,3.45H61.76A1.72,1.72,0,0,1,60,49.9Zm0,0"/><path class="cls-6" d="M36.52,49.9a1.73,1.73,0,0,1,1.72-1.73h8.62a1.73,1.73,0,1,1,0,3.45H38.24a1.72,1.72,0,0,1-1.72-1.72Zm0,0"/><path class="cls-6" d="M58.36,54a1.71,1.71,0,0,1,2.44,0L66.89,60a1.71,1.71,0,0,1,0,2.44,1.73,1.73,0,0,1-2.44,0l-6.09-6.1a1.72,1.72,0,0,1,0-2.43Zm0,0"/><path class="cls-6" d="M41.73,37.32a1.71,1.71,0,0,1,2.44,0l6.09,6.09a1.71,1.71,0,0,1,0,2.44,1.73,1.73,0,0,1-2.44,0l-6.09-6.1a1.7,1.7,0,0,1,0-2.43Zm0,0"/><path class="cls-4" d="M61.21,25.86a1.72,1.72,0,0,1-1.73-1.72V8.62a1.73,1.73,0,0,1,3.45,0V24.14a1.72,1.72,0,0,1-1.72,1.72Zm0,0"/><path class="cls-4" d="M47.41,25.86a1.72,1.72,0,0,1-1.72-1.72V8.62a1.73,1.73,0,0,1,3.45,0V24.14a1.72,1.72,0,0,1-1.73,1.72Zm0,0"/><path class="cls-6" d="M54.31,86.21a1.72,1.72,0,0,1-1.72-1.73V75.86a1.72,1.72,0,0,1,3.44,0v8.62a1.72,1.72,0,0,1-1.72,1.73Zm0,0"/><path class="cls-6" d="M61.21,93.1a1.72,1.72,0,0,1-1.73-1.72V75.86a1.73,1.73,0,0,1,3.45,0V91.38a1.72,1.72,0,0,1-1.72,1.72Zm0,0"/><path class="cls-6" d="M47.41,93.1a1.72,1.72,0,0,1-1.72-1.72V75.86a1.73,1.73,0,0,1,3.45,0V91.38a1.72,1.72,0,0,1-1.73,1.72Zm0,0"/></svg>