<svg id="Layer_1" data-name="Layer 1" xmlns="http://www.w3.org/2000/svg" viewBox="0 0 100 100"><defs><style>.cls-1{fill:#bbbdbf;}.cls-2{fill:#fff;}.cls-3{fill:#e2e3e4;}.cls-4{fill:#ffc63f;}.cls-5{fill:#ffdf3e;}.cls-6{fill:#f37d3b;}.cls-7{fill:#00a69c;}.cls-8{fill:#09a582;}</style></defs><title>omelette</title><ellipse class="cls-1" cx="50" cy="58.92" rx="39.5" ry="8.26"/><ellipse class="cls-2" cx="50" cy="53.16" rx="50" ry="10.46"/><path class="cls-3" d="M90,50.75a2.42,2.42,0,0,1-.19.94,5,5,0,0,1-1.89,2A29.92,29.92,0,0,1,78.8,57.2a102.44,102.44,0,0,1-13.56,2.3,157,157,0,0,1-15.73.79,156.83,156.83,0,0,1-15.73-.79,100.64,100.64,0,0,1-13.56-2.29,30,30,0,0,1-9.09-3.54,5.08,5.08,0,0,1-1.9-2,2.29,2.29,0,0,1-.18-.94,2.35,2.35,0,0,0,.29.89,5.15,5.15,0,0,0,2,1.68c2,1.13,5.24,2,9.12,2.7a122.25,122.25,0,0,0,13.47,1.59c5,.34,10.26.55,15.57.53s10.6-.18,15.56-.53A119.88,119.88,0,0,0,78.54,56c3.89-.75,7.12-1.57,9.13-2.7a5.22,5.22,0,0,0,2-1.68A2.3,2.3,0,0,0,90,50.75Z"/><ellipse class="cls-4" cx="50" cy="51.71" rx="43.57" ry="7.21"/><ellipse class="cls-5" cx="43.94" cy="48.56" rx="33.3" ry="5.51"/><path class="cls-6" d="M20.85,49.41a2.61,2.61,0,0,0-5.21,0v1.05h5.21Z"/><path class="cls-6" d="M43,52.31a2.6,2.6,0,0,0-5.2,0v1H43Z"/><path class="cls-7" d="M29.8,51.53V50.22a1.66,1.66,0,0,0-3.32,0v1.31Z"/><path class="cls-8" d="M23,49.58a7.19,7.19,0,0,1,1.22-1.49A11.21,11.21,0,0,1,26,46.73a13.07,13.07,0,0,1,2.54-1.32,12.74,12.74,0,0,1,3.31-.79,12.05,12.05,0,0,1,3.78.41l.48.1a4.48,4.48,0,0,1,.5.15c.3.1.6.17.91.25.64.26,1.32.42,1.92.68,1.25.48,2.5,1,3.73,1.43a30.12,30.12,0,0,0,3.57.86,17.07,17.07,0,0,0,3.41.17c1.13-.06,2.23-.16,3.29-.24l3-.28c1-.12,1.84-.22,2.64-.27s1.48-.16,2.07-.19c1.16-.08,1.86-.07,1.86-.07l.1.3s-.56.4-1.59,1a24.47,24.47,0,0,1-4.46,2,31.75,31.75,0,0,1-3.21.83A16.24,16.24,0,0,1,46,51.24a13,13,0,0,1-3.68-2.05,13.53,13.53,0,0,0-3.26-2.07,5.81,5.81,0,0,0-1.74-.45c-.32,0-.63,0-1,0a1.75,1.75,0,0,0-.42,0l-.45.06c-1.19.14-2.27.5-3.29.67s-2,.34-2.88.61c-1.79.4-3.28.9-4.37,1.24l-1.72.58Z"/><path class="cls-6" d="M60.91,50.38a1.69,1.69,0,1,0-3.38,0v.68h3.38Z"/><path class="cls-4" d="M93.57,51.71c0,4-19.51-4-43.57-4S6.43,44.48,6.43,40.5,18.12,31.18,50,33.28C74.34,34.89,93.57,47.73,93.57,51.71Z"/><circle class="cls-5" cx="19.72" cy="36.54" r="1.08"/><circle class="cls-5" cx="23.57" cy="42.89" r="1.08"/><circle class="cls-5" cx="40.9" cy="42.89" r="1.08"/><circle class="cls-5" cx="58.23" cy="42.89" r="1.08"/><circle class="cls-5" cx="28.17" cy="36.54" r="1.08"/><circle class="cls-5" cx="36.62" cy="36.54" r="1.08"/><circle class="cls-5" cx="45.08" cy="36.54" r="1.08"/><circle class="cls-5" cx="53.53" cy="36.54" r="1.08"/><circle class="cls-5" cx="61.98" cy="36.54" r="1.08"/></svg>