<svg id="Layer_1" data-name="Layer 1" xmlns="http://www.w3.org/2000/svg" xmlns:xlink="http://www.w3.org/1999/xlink" viewBox="0 0 100 100"><defs><style>.cls-1{fill:none;}.cls-2{fill:#b88665;}.cls-3{fill:#9c6d52;}.cls-4{clip-path:url(#clip-path);}.cls-5{clip-path:url(#clip-path-2);}.cls-6{fill:#f6ccb5;}.cls-7{fill:#e1ab75;}.cls-8{fill:#ce8561;}</style><clipPath id="clip-path"><circle class="cls-1" cx="50" cy="50" r="50"/></clipPath><clipPath id="clip-path-2"><circle class="cls-1" cx="170" cy="50" r="50"/></clipPath></defs><title>mercury</title><circle class="cls-2" cx="50" cy="50" r="50"/><ellipse class="cls-3" cx="66.06" cy="31.38" rx="10.56" ry="6.56"/><ellipse class="cls-3" cx="75.94" cy="37.94" rx="10.56" ry="6.56"/><circle class="cls-3" cx="35.34" cy="65" r="5.91"/><ellipse class="cls-3" cx="13.06" cy="34.94" rx="7.56" ry="3.56"/><circle class="cls-3" cx="45.27" cy="42.27" r="3.14"/><circle class="cls-3" cx="68.28" cy="12.16" r="2.91"/><circle class="cls-3" cx="62.31" cy="84.44" r="3.44"/><circle class="cls-3" cx="11.28" cy="58.03" r="2.66"/><g class="cls-4"><ellipse class="cls-3" cx="91.38" cy="70.84" rx="16.38" ry="10.16"/><ellipse class="cls-3" cx="31.94" cy="94.25" rx="13.19" ry="10.38"/><ellipse class="cls-3" cx="35.34" cy="4" rx="13.06" ry="10.25"/></g><g class="cls-5"><ellipse class="cls-6" cx="164.78" cy="62.36" rx="76.08" ry="25.29" transform="translate(-3.1 8.9) rotate(-3.06)"/><ellipse class="cls-7" cx="168.46" cy="50" rx="26.17" ry="73.3" transform="translate(104.84 213.8) rotate(-85.31)"/><ellipse class="cls-8" cx="171.29" cy="36.77" rx="29.14" ry="81.61" transform="translate(99.41 196.54) rotate(-77.89)"/></g></svg>