<svg id="Layer_1" data-name="Layer 1" xmlns="http://www.w3.org/2000/svg" xmlns:xlink="http://www.w3.org/1999/xlink" viewBox="0 0 100 100"><defs><style>.cls-1{fill:none;}.cls-2{fill:#ffcf2b;}.cls-3{fill:#f2dd64;}.cls-4{fill:#f4c762;}.cls-5{fill:#ffc31a;}.cls-6{clip-path:url(#clip-path);}.cls-7{fill:#f6ccb5;}.cls-8{fill:#e1ab75;}.cls-9{fill:#ce8561;}.cls-10{fill:#fb9400;}</style><clipPath id="clip-path"><circle class="cls-1" cx="-70" cy="50" r="50"/></clipPath></defs><title>saturn</title><circle class="cls-2" cx="50.08" cy="47.62" r="45.59"/><path class="cls-3" d="M46.26,2.19A45.58,45.58,0,0,0,7.34,31.76a137.71,137.71,0,0,0,14.07-7.28c9.62-5.74,18.77-12.3,28-18.59A5.88,5.88,0,0,0,52,2.08,46,46,0,0,0,46.26,2.19Z"/><path class="cls-3" d="M73,8.23A45.64,45.64,0,0,0,60.8,3.31C43.07,19.45,24.79,36.07,4.52,49.1c0,.77.07,1.56.14,2.34A45.51,45.51,0,0,0,6.75,61.77C30.81,47.11,52.15,27.24,72.81,8.46Z"/><path class="cls-4" d="M79.47,12.77C69.93,25.47,58.52,36.84,47.24,48A110.27,110.27,0,0,1,26.68,64.32c-4.83,2.9-9.77,5.6-14.55,8.55a45.5,45.5,0,0,0,8,9.08c4.65-2.78,9.41-5.38,14-8.24A122.38,122.38,0,0,0,55.66,56.38c11.16-11,22.28-22.28,31.9-34.7A45.71,45.71,0,0,0,79.47,12.77Z"/><path class="cls-4" d="M21.4,83a45.91,45.91,0,0,0,12.88,7.34C58.64,78.64,77.73,59.07,94.64,38a45.71,45.71,0,0,0-4.89-12.87C71.26,48.82,50.15,72.26,21.4,83Z"/><path class="cls-5" d="M94.92,46c-15.47,19-37.11,31-56.41,45.68A45.28,45.28,0,0,0,53.91,93c1.12-.09,2.22-.24,3.31-.41,11.67-8.24,23.61-16.15,34.14-25.69A45.27,45.27,0,0,0,95.6,45.33,6.49,6.49,0,0,0,94.92,46Z"/><g class="cls-6"><ellipse class="cls-7" cx="-75.22" cy="62.36" rx="76.08" ry="25.29" transform="translate(-3.44 -3.93) rotate(-3.06)"/><ellipse class="cls-8" cx="-71.54" cy="50" rx="26.17" ry="73.3" transform="translate(-115.52 -25.4) rotate(-85.31)"/><ellipse class="cls-9" cx="-68.71" cy="36.77" rx="29.14" ry="81.61" transform="translate(-90.25 -38.12) rotate(-77.89)"/><ellipse class="cls-7" cx="-66.09" cy="29.87" rx="67.48" ry="22.43"/><ellipse class="cls-8" cx="-66.8" cy="12.26" rx="26.17" ry="73.3" transform="translate(-69.79 -55.59) rotate(-82.12)"/></g><path class="cls-10" d="M77.13,10.92a46,46,0,0,1,4.39,3.7,98,98,0,0,1,11-7.16c-4.35,8.15-16.47,24.69-38.43,46.65S15.61,88.19,7.46,92.54a111.16,111.16,0,0,1,9.27-13.86,45.77,45.77,0,0,1-3.63-4.42C3.15,87.16-1.9,96.78.66,99.34c4.45,4.45,30.15-14,57.4-41.28S103.79,5.11,99.34.66C97-1.71,88.58,2.42,77.13,10.92Z"/></svg>