<svg id="Layer_1" data-name="Layer 1" xmlns="http://www.w3.org/2000/svg" viewBox="0 0 100 100"><defs><style>.cls-1{fill:#dbdcdd;}.cls-2{fill:#a6a8ab;}</style></defs><title>machine</title><path class="cls-1" d="M36.6,35.08a14.11,14.11,0,0,0,1.19-3.45l2.29-.14-.44-7.36-2.3.14A14.22,14.22,0,0,0,35.74,21l1.53-1.72-5.52-4.89-1.53,1.73a13.9,13.9,0,0,0-3.44-1.19l-.14-2.3-7.37.45.14,2.29A14.36,14.36,0,0,0,16.14,17l-1.72-1.52L9.53,21l1.72,1.53a13.9,13.9,0,0,0-1.19,3.44l-2.29.14.44,7.36,2.3-.14a13.84,13.84,0,0,0,1.6,3.28l-1.53,1.72,5.52,4.89,1.53-1.72a14.47,14.47,0,0,0,3.44,1.19l.14,2.29,7.37-.45-.14-2.29a14.36,14.36,0,0,0,3.27-1.6l1.72,1.52,4.89-5.52ZM30,34.19a8.16,8.16,0,1,1-.7-11.52A8.18,8.18,0,0,1,30,34.19Z"/><path class="cls-2" d="M90.09,57.15l1.43.48L93.06,53l-1.43-.48a9,9,0,0,0-.17-2.38l1.35-.67-2.16-4.33-1.35.67a9.35,9.35,0,0,0-1.8-1.57L88,42.85l-4.59-1.53-.48,1.43a9,9,0,0,0-2.38.17l-.67-1.35-4.33,2.15.67,1.35a9,9,0,0,0-1.56,1.81l-1.43-.48L71.67,51l1.43.48a9.08,9.08,0,0,0,.17,2.39l-1.35.67,2.16,4.33,1.35-.68a9,9,0,0,0,1.8,1.57l-.48,1.43,4.59,1.54.48-1.44a9,9,0,0,0,2.38-.16l.67,1.35L89.2,60.3,88.53,59A9,9,0,0,0,90.09,57.15Zm-9.17-.83a4.55,4.55,0,1,1,5.76-2.87A4.55,4.55,0,0,1,80.92,56.32Z"/><path class="cls-1" d="M35.3,89.59l1.43.47,1.53-4.58L36.83,85a9,9,0,0,0-.16-2.38L38,81.94l-2.16-4.32-1.35.67a9.35,9.35,0,0,0-1.8-1.57l.47-1.43L28.6,73.76l-.48,1.43a9.42,9.42,0,0,0-2.38.16L25.06,74l-4.32,2.15.67,1.35a9.42,9.42,0,0,0-1.57,1.81l-1.43-.48-1.53,4.58,1.43.48a9.53,9.53,0,0,0,.16,2.39L17.13,87l2.15,4.33,1.35-.68a9.08,9.08,0,0,0,1.81,1.57L22,93.61l4.58,1.53L27,93.71a9.08,9.08,0,0,0,2.39-.16l.67,1.35,4.33-2.16-.68-1.35A9,9,0,0,0,35.3,89.59Zm-9.17-.83a4.54,4.54,0,1,1,5.75-2.87A4.54,4.54,0,0,1,26.13,88.76Z"/><rect class="cls-2" x="43.11" y="39.05" width="36" height="7.83" transform="translate(19.54 -19.1) rotate(21.08)"/><path class="cls-2" d="M15.32,51.1A23.92,23.92,0,1,1,46.25,37.38,23.94,23.94,0,0,1,15.32,51.1ZM31.08,10.21A19.9,19.9,0,1,0,42.49,35.94,19.92,19.92,0,0,0,31.08,10.21Z"/><path class="cls-1" d="M75.76,68.57a17.83,17.83,0,1,1,23-10.22A17.84,17.84,0,0,1,75.76,68.57ZM87.14,39.06A13.8,13.8,0,1,0,95.05,56.9,13.82,13.82,0,0,0,87.14,39.06Z"/><rect class="cls-1" x="47.78" y="50.26" width="7.49" height="42.98" transform="translate(88.88 -8.3) rotate(60.7)"/><rect class="cls-1" x="21.87" y="78.75" width="11.4" height="11.4" transform="translate(32.21 -4.27) rotate(21.08)"/><circle class="cls-2" cx="27.57" cy="84.45" r="2.8"/></svg>