<svg id="Layer_1" data-name="Layer 1" xmlns="http://www.w3.org/2000/svg" viewBox="0 0 100 100"><defs><style>.cls-1{fill:#fff;}.cls-2{fill:#895e59;}.cls-3{fill:#7d7d7d;}.cls-4{fill:#9c9c9c;}</style></defs><title>cook</title><rect class="cls-1" x="17.23" y="18.37" width="30.61" height="22.45"/><circle class="cls-1" cx="47.33" cy="12.76" r="10.71"/><circle class="cls-1" cx="17.74" cy="12.76" r="10.71"/><circle class="cls-1" cx="32.54" cy="10.71" r="10.71"/><rect class="cls-2" x="31.28" y="48.48" width="7.16" height="35.58" rx="1.39" ry="1.39" transform="translate(12.65 137.77) rotate(-135)"/><path class="cls-3" d="M25.23,70.83,32.37,78S22.9,87.89,18.26,90.34C6,96.84.12,95.94.12,95.94Z"/><path class="cls-4" d="M31.17,79.2H16.86L7.32,88.74H20.69A111.48,111.48,0,0,0,31.17,79.2Z"/><path class="cls-4" d="M17.16,90.9h-12L1.81,94.25H9.4A59.24,59.24,0,0,0,17.16,90.9Z"/><rect class="cls-3" x="71.82" y="20.41" width="8.16" height="37.76" rx="4" ry="4"/><circle class="cls-3" cx="75.9" cy="76.02" r="23.98"/><circle class="cls-4" cx="75.9" cy="76.02" r="17.86"/></svg>