<svg id="Layer_1" data-name="Layer 1" xmlns="http://www.w3.org/2000/svg" xmlns:xlink="http://www.w3.org/1999/xlink" viewBox="0 0 100 100"><defs><style>.cls-1,.cls-7{fill:none;}.cls-2{fill:#90807d;}.cls-3{fill:#685c5a;}.cls-4{fill:#4e4544;}.cls-5{fill:#895e59;}.cls-6{clip-path:url(#clip-path);}.cls-7{stroke:#744f4a;stroke-miterlimit:10;stroke-width:2.82px;}.cls-8{fill:#714c48;}.cls-9{fill:#744f4a;}</style><clipPath id="clip-path"><path class="cls-1" d="M81,20.16a9,9,0,0,0-2.5-3,3.07,3.07,0,0,1-1.15-2.44v-.52a1.37,1.37,0,0,1,1.35-1.45h0V11.66H67.34v1.06h0a1.46,1.46,0,0,1,1.47,1.46v.51a3.07,3.07,0,0,1-1.15,2.44,8.84,8.84,0,0,0-2.5,3,8.25,8.25,0,0,0-.56,5.64L68,40h-.35v1h11V40h-.36L81.58,25.8A8.25,8.25,0,0,0,81,20.16Z"/></clipPath></defs><title>potter</title><path class="cls-2" d="M44,72.38h0A54.49,54.49,0,0,1,0,72.38H0L9.69,21H34.27Z"/><rect class="cls-2" x="12.17" y="10.24" width="3.51" height="10.8"/><rect class="cls-2" x="28.27" y="10.24" width="3.51" height="10.8"/><path class="cls-3" d="M13.75,47H30.2a0,0,0,0,1,0,0v9.83a4.51,4.51,0,0,1-4.51,4.51H18.26a4.51,4.51,0,0,1-4.51-4.51V47A0,0,0,0,1,13.75,47Z"/><rect class="cls-3" x="53.94" y="41.1" width="38.3" height="5.77"/><rect class="cls-4" x="70.5" y="46.14" width="5.17" height="5.17"/><rect class="cls-3" x="49.18" y="50.35" width="47.82" height="2.02"/><ellipse class="cls-2" cx="73.09" cy="41.1" rx="19.15" ry="0.96"/><ellipse class="cls-3" cx="73.09" cy="46.94" rx="19.15" ry="0.96"/><path class="cls-5" d="M81,20.16a9,9,0,0,0-2.5-3,3.07,3.07,0,0,1-1.15-2.44v-.52a1.37,1.37,0,0,1,1.35-1.45h0V11.66H67.34v1.06h0a1.46,1.46,0,0,1,1.47,1.46v.51a3.07,3.07,0,0,1-1.15,2.44,8.84,8.84,0,0,0-2.5,3,8.25,8.25,0,0,0-.56,5.64L68,40h-.35v1h11V40h-.36L81.58,25.8A8.25,8.25,0,0,0,81,20.16Z"/><ellipse class="cls-5" cx="73.09" cy="41.08" rx="5.48" ry="0.52"/><ellipse class="cls-5" cx="73.09" cy="40.01" rx="5.45" ry="0.22"/><g class="cls-6"><path class="cls-7" d="M57.34,26.37l2.78-2.78a3.58,3.58,0,0,1,5.1.05l.1.1a3.58,3.58,0,0,0,5.12,0l.13-.13a3.57,3.57,0,0,1,5.13.06h0a3.58,3.58,0,0,0,5.13.05l.17-.16a3.56,3.56,0,0,1,5.08,0l2.75,2.78"/><path class="cls-7" d="M57,31.8,59.74,29a3.57,3.57,0,0,1,5.1,0l.1.11a3.58,3.58,0,0,0,5.11,0l.13-.13a3.57,3.57,0,0,1,5.13.05h0a3.58,3.58,0,0,0,5.14.06l.16-.17a3.58,3.58,0,0,1,5.08,0l2.76,2.79"/></g><rect class="cls-4" x="46.18" y="52.38" width="53.82" height="4"/><rect class="cls-4" x="49.18" y="55.5" width="3.85" height="34.27"/><rect class="cls-4" x="93.15" y="55.5" width="3.85" height="34.27"/><polygon class="cls-4" points="60.2 89.76 65.43 89.76 73.09 82.1 80.75 89.76 85.97 89.76 75.7 79.49 86.01 69.18 83.4 66.57 73.09 76.88 62.78 66.57 60.16 69.18 70.47 79.49 60.2 89.76"/><rect class="cls-3" x="57.79" y="65.34" width="30.59" height="7.08" rx="2.98" ry="2.98"/><circle class="cls-3" cx="73.09" cy="79.46" r="0.98"/><ellipse class="cls-8" cx="34.6" cy="88.47" rx="5.63" ry="1.29"/><path class="cls-5" d="M41.54,74.63c2,2.3,3.11,5.34,2,9.65-1.06,4-4.42,4.79-8.89,4.62-4.48.17-7.84-.62-8.89-4.62-1.17-4.31,0-7.35,1.95-9.65,4.62-4.57,6.22-9.75,6.94-9.72S36.91,70.06,41.54,74.63Z"/><path class="cls-5" d="M30.83,66.78c-1.07-.66-1.69-1.54-1.06-2.78s2.4-1.38,4.83-1.33,4.25.18,4.82,1.33,0,2.12-1.06,2.78c-2.51,1.32-3.37,2.81-3.76,2.8S33.34,68.1,30.83,66.78Z"/><ellipse class="cls-8" cx="34.6" cy="63.58" rx="3.19" ry="0.49"/><rect class="cls-5" x="31.73" y="67.59" width="5.55" height="0.85" rx="0.19" ry="0.19"/><rect class="cls-5" x="31.21" y="68.29" width="6.58" height="1" rx="0.23" ry="0.23"/><rect class="cls-5" x="31.21" y="69.08" width="6.58" height="1" rx="0.23" ry="0.23"/><path class="cls-9" d="M43.94,80.52a8.89,8.89,0,0,0-.37-2.24c-7.81,3.3-16.4.54-17.95,0a9.71,9.71,0,0,0-.37,2.23,32,32,0,0,0,9.88,1.62A24.08,24.08,0,0,0,43.94,80.52Z"/></svg>