<svg id="Layer_1" data-name="Layer 1" xmlns="http://www.w3.org/2000/svg" viewBox="0 0 100 100"><defs><style>.cls-1{fill:#6ab8d9;}.cls-2{fill:#f37d3b;}.cls-3{fill:#ffc640;}.cls-4{fill:#09a380;}.cls-5{fill:#f2797a;}</style></defs><title>science</title><path class="cls-1" d="M48.92,0c-12.26,0-21.5,21.5-21.5,50s9.24,50,21.5,50S70.43,78.5,70.43,50,61.18,0,48.92,0Zm0,95.24c-4,0-8.13-4.54-11.31-12.46-3.5-8.71-5.43-20.36-5.43-32.78s1.93-24.07,5.43-32.78C40.79,9.3,44.91,4.76,48.92,4.76S57.06,9.3,60.24,17.22c3.5,8.71,5.43,20.36,5.43,32.78s-1.93,24.07-5.43,32.78C57.06,90.7,52.94,95.24,48.92,95.24Z"/><circle class="cls-2" cx="48.92" cy="50" r="9.37"/><circle class="cls-3" cx="58.29" cy="91.98" r="6.43"/><path class="cls-1" d="M46.66,75.43c-1.82-.89-3.65-1.85-5.48-2.86-1.46.58-2.91,1.1-4.33,1.58.39,1.59.83,3.12,1.31,4.58C40.94,77.8,43.79,76.7,46.66,75.43Z"/><path class="cls-1" d="M57.64,64.3C55.45,65.64,53.24,66.88,51,68q2.78,1.34,5.49,2.44c1.2-.68,2.4-1.38,3.6-2.11.8-.48,1.58-1,2.36-1.47.32-2,.59-4.12.79-6.26C61.45,61.89,59.58,63.12,57.64,64.3Z"/><path class="cls-1" d="M36.35,79.31c-.48-1.46-.92-3-1.32-4.57-1.58.49-3.14.92-4.66,1.27.4,1.59.83,3.12,1.3,4.58C33.2,80.23,34.76,79.8,36.35,79.31Z"/><path class="cls-1" d="M51.14,24.59q2.74,1.34,5.48,2.86c1.48-.59,2.94-1.12,4.38-1.6-.4-1.59-.83-3.12-1.31-4.58C56.89,22.21,54,23.31,51.14,24.59Z"/><path class="cls-1" d="M32.54,40.81q.26-3.21.69-6.29C31.42,35.74,29.66,37,28,38.26c-.2,2.09-.35,4.22-.44,6.42C29.12,43.36,30.8,42.07,32.54,40.81Z"/><path class="cls-1" d="M43.45,71.64c1.82,1,3.65,1.9,5.47,2.76q2.73-1.29,5.48-2.76c-1.81-.77-3.64-1.62-5.48-2.53C47.09,70,45.26,70.87,43.45,71.64Z"/><path class="cls-1" d="M48.89,25.62q-2.73,1.29-5.48,2.76c1.81.77,3.64,1.62,5.48,2.53,1.83-.91,3.66-1.76,5.47-2.53Q51.62,26.91,48.89,25.62Z"/><path class="cls-1" d="M40.21,35.7q3.27-2,6.57-3.72Q44,30.66,41.29,29.55c-1.19.67-2.38,1.36-3.56,2.09-.8.48-1.58,1-2.36,1.47q-.49,3-.79,6.26C36.39,38.11,38.27,36.88,40.21,35.7Z"/><path class="cls-1" d="M72.28,53.67q-.11,3.33-.36,6.53c2.25-1.77,4.34-3.57,6.28-5.37-1-1.16-2.15-2.33-3.33-3.49C74,52.12,73.17,52.9,72.28,53.67Z"/><path class="cls-1" d="M28.57,76.4l-1.75.33a39.5,39.5,0,0,1-6.44.58c-5,0-8.58-1.29-10.08-3.76C8.21,70.12,9.94,64.24,15,57.4c.62-.83,1.29-1.66,2-2.5q-1.76-1.73-3.32-3.45c-.88,1-1.71,2.07-2.48,3.1C4.81,63.15,3,70.78,6.23,76c2.41,3.94,7.33,6,14.24,6a43.06,43.06,0,0,0,7.14-.64c.75-.12,1.51-.27,2.28-.43Q29.19,78.79,28.57,76.4Z"/><path class="cls-1" d="M76.24,50q1.77,1.74,3.33,3.5c1.17-1.15,2.27-2.29,3.31-3.44q-1.57-1.76-3.35-3.5Q78,48.32,76.24,50Z"/><path class="cls-1" d="M65.31,59.19q-.25,3.23-.69,6.3c1.82-1.22,3.58-2.46,5.25-3.72.21-2.1.36-4.24.45-6.45C68.72,56.63,67.05,57.93,65.31,59.19Z"/><path class="cls-1" d="M91.62,24c-2.43-4-7.37-6-14.22-6a43.56,43.56,0,0,0-7.16.64c-.75.12-1.52.27-2.29.43.48,1.47.92,3,1.33,4.59L71,23.27a39.5,39.5,0,0,1,6.4-.57c5.12,0,8.62,1.29,10.12,3.75,2.09,3.43.36,9.31-4.74,16.15-.64.85-1.32,1.7-2,2.55,1.18,1.16,2.31,2.33,3.37,3.51C92.25,39.2,95.35,30.11,91.62,24Z"/><path class="cls-1" d="M61.5,20.69c.48,1.46.92,3,1.32,4.57,1.58-.49,3.14-.92,4.66-1.27-.4-1.59-.83-3.12-1.31-4.58C64.64,19.77,63.08,20.2,61.5,20.69Z"/><path class="cls-1" d="M25.57,46.33q.09-3.31.36-6.48c-2.23,1.76-4.33,3.57-6.28,5.4,1,1.15,2.12,2.3,3.28,3.45C23.78,47.9,24.67,47.11,25.57,46.33Z"/><path class="cls-1" d="M21.57,50q-1.74-1.71-3.29-3.44-1.77,1.74-3.36,3.5c1,1.14,2.14,2.29,3.32,3.43C19.28,52.34,20.39,51.17,21.57,50Z"/><path class="cls-1" d="M35,25.26c.4-1.58.84-3.11,1.32-4.57-1.59-.49-3.15-.92-4.68-1.28-.47,1.46-.9,3-1.3,4.58C31.89,24.34,33.45,24.77,35,25.26Z"/><path class="cls-1" d="M86.62,54.55a82,82,0,0,0-14.7-14.71q.26,3.16.36,6.48A71.91,71.91,0,0,1,82.81,57.4c5.1,6.84,6.83,12.72,4.74,16.15C86,76,82.49,77.31,77.47,77.31A39.5,39.5,0,0,1,71,76.73l-1.75-.33C68.87,78,68.43,79.52,68,81c.77.16,1.54.31,2.29.43a43.06,43.06,0,0,0,7.14.64c6.91,0,11.83-2.09,14.24-6C94.82,70.78,93,63.15,86.62,54.55Z"/><path class="cls-1" d="M33.23,65.49c-.29-2-.52-4.15-.69-6.29-1.74-1.26-3.42-2.55-5-3.87q.13,3.3.44,6.43C29.65,63,31.4,64.27,33.23,65.49Z"/><path class="cls-1" d="M40.21,64.3q-2.91-1.77-5.63-3.66c.2,2.14.47,4.22.79,6.25.77.49,1.56,1,2.36,1.47a108.3,108.3,0,0,0,22,10.37c.48-1.46.91-3,1.31-4.57A104.53,104.53,0,0,1,40.21,64.3Z"/><path class="cls-1" d="M60.12,31.64a108.55,108.55,0,0,0-22-10.37c-.48,1.46-.91,3-1.31,4.57A105.05,105.05,0,0,1,57.64,35.7c1.94,1.18,3.81,2.4,5.63,3.66-.2-2.14-.47-4.22-.79-6.25C61.7,32.62,60.92,32.12,60.12,31.64Z"/><path class="cls-1" d="M25.57,53.68A71.91,71.91,0,0,1,15,42.6c-5.1-6.84-6.83-12.72-4.74-16.15,1.5-2.46,5-3.75,10.12-3.75a39.59,39.59,0,0,1,6.4.57l1.75.33q.62-2.38,1.32-4.59c-.77-.16-1.53-.31-2.28-.43a43.66,43.66,0,0,0-7.16-.64c-6.85,0-11.8,2.06-14.22,6C1,32.6,9.25,47.07,25.93,60.2,25.75,58.08,25.63,55.9,25.57,53.68Z"/><path class="cls-1" d="M64.62,34.52c.29,2,.52,4.14.69,6.28q2.61,1.89,5,3.87-.13-3.29-.44-6.41C68.19,37,66.43,35.73,64.62,34.52Z"/><path class="cls-1" d="M62.82,74.74c-.4,1.58-.84,3.11-1.32,4.57,1.58.49,3.14.92,4.67,1.28.47-1.46.91-3,1.31-4.58C66,75.66,64.4,75.23,62.82,74.74Z"/><circle class="cls-4" cx="88.91" cy="37.62" r="6.43"/><circle class="cls-5" cx="16.54" cy="21.27" r="6.43"/></svg>