<svg id="Layer_1" data-name="Layer 1" xmlns="http://www.w3.org/2000/svg" viewBox="0 0 100 100"><defs><style>.cls-1{fill:#bbbdbf;}.cls-2{fill:#fff;}.cls-3{fill:#3e3e3f;}.cls-4{fill:#e2e3e4;}</style></defs><title>caviar</title><ellipse class="cls-1" cx="50" cy="58.01" rx="39.5" ry="8.26"/><ellipse class="cls-2" cx="50" cy="52.25" rx="50" ry="10.46"/><circle class="cls-3" cx="30.24" cy="53.32" r="3.94"/><circle class="cls-2" cx="28.42" cy="51.59" r="0.68"/><circle class="cls-3" cx="35.31" cy="50.12" r="3.94"/><circle class="cls-2" cx="33.49" cy="48.39" r="0.68"/><circle class="cls-3" cx="35.31" cy="54.24" r="3.94"/><circle class="cls-2" cx="33.49" cy="52.5" r="0.68"/><circle class="cls-3" cx="40.93" cy="53.94" r="3.94"/><circle class="cls-2" cx="39.11" cy="52.21" r="0.68"/><circle class="cls-3" cx="37.38" cy="44.45" r="3.94"/><circle class="cls-2" cx="35.55" cy="42.72" r="0.68"/><circle class="cls-3" cx="46.7" cy="44.45" r="3.94"/><circle class="cls-2" cx="44.88" cy="42.72" r="0.68"/><path class="cls-3" d="M46.7,40.5a3.95,3.95,0,1,1-3.94-3.94A3.94,3.94,0,0,1,46.7,40.5Z"/><circle class="cls-2" cx="40.93" cy="38.77" r="0.68"/><circle class="cls-3" cx="48.03" cy="37.67" r="3.94"/><circle class="cls-2" cx="46.21" cy="35.93" r="0.68"/><circle class="cls-3" cx="51.63" cy="41.79" r="3.94"/><circle class="cls-2" cx="49.8" cy="40.06" r="0.68"/><circle class="cls-3" cx="57.68" cy="44.45" r="3.94"/><circle class="cls-2" cx="55.85" cy="42.72" r="0.68"/><circle class="cls-3" cx="61.31" cy="54.24" r="3.94"/><circle class="cls-2" cx="59.48" cy="52.5" r="0.68"/><circle class="cls-3" cx="66.75" cy="53.48" r="3.94"/><circle class="cls-2" cx="64.92" cy="51.75" r="0.68"/><circle class="cls-3" cx="62.74" cy="49.54" r="3.94"/><circle class="cls-2" cx="60.92" cy="47.81" r="0.68"/><circle class="cls-3" cx="51.63" cy="48.39" r="3.94"/><circle class="cls-2" cx="49.8" cy="46.66" r="0.68"/><circle class="cls-3" cx="51.98" cy="53.94" r="3.94"/><circle class="cls-2" cx="50.15" cy="52.21" r="0.68"/><path class="cls-3" d="M48.46,54.07a3.95,3.95,0,1,1-4-4A3.94,3.94,0,0,1,48.46,54.07Z"/><circle class="cls-2" cx="42.69" cy="52.34" r="0.68"/><circle class="cls-3" cx="47.02" cy="54.99" r="3.94"/><circle class="cls-2" cx="45.19" cy="53.26" r="0.68"/><circle class="cls-3" cx="41.64" cy="47.71" r="3.94"/><circle class="cls-2" cx="39.81" cy="45.98" r="0.68"/><circle class="cls-3" cx="47.4" cy="51.05" r="3.94"/><circle class="cls-2" cx="45.57" cy="49.32" r="0.68"/><circle class="cls-3" cx="57.68" cy="50.29" r="3.94"/><circle class="cls-2" cx="55.85" cy="48.56" r="0.68"/><circle class="cls-3" cx="56.72" cy="54.07" r="3.94"/><circle class="cls-2" cx="54.89" cy="52.34" r="0.68"/><path class="cls-4" d="M90,49.84a2.45,2.45,0,0,1-.19.94,5,5,0,0,1-1.89,2,30.19,30.19,0,0,1-9.09,3.53,102.44,102.44,0,0,1-13.56,2.3,157,157,0,0,1-15.73.79,156.83,156.83,0,0,1-15.73-.79,100.55,100.55,0,0,1-13.56-2.3,29.71,29.71,0,0,1-9.09-3.53,5.08,5.08,0,0,1-1.9-2,2.29,2.29,0,0,1-.18-.94,2.35,2.35,0,0,0,.29.89,5.23,5.23,0,0,0,2,1.68c2,1.12,5.24,2,9.12,2.7A122.25,122.25,0,0,0,33.94,56.7c5,.34,10.26.55,15.57.52s10.6-.17,15.56-.52a119.88,119.88,0,0,0,13.47-1.59c3.89-.75,7.12-1.57,9.13-2.7a5.22,5.22,0,0,0,2-1.68A2.35,2.35,0,0,0,90,49.84Z"/></svg>