<svg id="Layer_1" data-name="Layer 1" xmlns="http://www.w3.org/2000/svg" viewBox="0 0 100 100"><defs><style>.cls-1{fill:#ebf7fd;}</style></defs><title>net</title><path class="cls-1" d="M93.73,57.75l-7.44-7.44,8.49-8.48a3.88,3.88,0,1,0-1.41-6.38,3.91,3.91,0,0,0-.89,4.09L84,48l-9-9,8.49-8.49a3.88,3.88,0,0,0,4.08-6.38,3.87,3.87,0,0,0-6.37,4.09L72.7,36.72l-9-9,8.49-8.49a3.88,3.88,0,1,0-2.29-2.29L61.4,25.43l-9-9,8.49-8.49a3.88,3.88,0,1,0-2.29-2.29L50.1,14.13l-8.69-8.7A3.88,3.88,0,0,0,35,1.35a3.88,3.88,0,0,0,4.09,6.38l8.69,8.69-9,9-8.69-8.7a3.88,3.88,0,0,0-6.38-4.08A3.87,3.87,0,0,0,27.82,19l8.69,8.7-9,9L18.81,28a3.88,3.88,0,1,0-2.29,2.29L25.21,39l-9,9L7.52,39.33a3.88,3.88,0,1,0-6.38,1.4,3.85,3.85,0,0,0,4.08.89l8.7,8.69L5.85,58.38a3.88,3.88,0,1,0,2.29,2.29l8.07-8.06,9,9-8.06,8.07A3.88,3.88,0,1,0,19.44,72l8.07-8.07,9,9L28.45,81a3.87,3.87,0,1,0,2.29,2.29L38.8,75.2l9,9-8.06,8.06a3.88,3.88,0,1,0,1.4,6.38A3.85,3.85,0,0,0,42,94.57L50.1,86.5l7.44,7.44A3.88,3.88,0,0,0,63.92,98a3.88,3.88,0,0,0-4.09-6.38l-7.44-7.43,9-9,7.44,7.44a3.88,3.88,0,0,0,6.38,4.08,3.87,3.87,0,0,0-4.09-6.37l-7.44-7.44,9-9,7.44,7.44a3.87,3.87,0,1,0,2.29-2.29L75,61.61l9-9L91.43,60a3.88,3.88,0,1,0,6.38-1.4A3.85,3.85,0,0,0,93.73,57.75ZM70.41,39l-9,9-9-9,9-9ZM59.11,50.31l-9,9-9-9,9-9Zm-9-31.6,9,9-9,9-9-9ZM38.8,30l9,9-9,9-9-9ZM18.5,50.31l9-9,9,9-9,9Zm11.3,11.3,9-9,9,9-9,9ZM50.1,81.92l-9-9,9-9,9,9Zm11.3-11.3-9-9,9-9,9,9Zm11.3-11.3-9-9,9-9,9,9Z"/></svg>