<svg id="Layer_1" data-name="Layer 1" xmlns="http://www.w3.org/2000/svg" viewBox="0 0 100 100"><defs><style>.cls-1{fill:#553936;}.cls-2{fill:#028a6d;}.cls-3{fill:#714c48;}.cls-4{fill:#008367;}.cls-5{fill:#6d4945;}.cls-6{fill:#ad7771;}.cls-7{fill:#e4ae90;}.cls-8{fill:#aa7562;}</style></defs><title>nuts</title><path class="cls-1" d="M54.3,30.58c9.82,17.5-8.93,38.2-8.93,38.2S18.86,75.67,8.11,56.5C.28,42.56,4.28,25.46,17,18.3S46.48,16.64,54.3,30.58Z"/><path class="cls-2" d="M20.23,39.94C18.68,45.47,5.82,52.8,5.82,52.8h0s-7.15-13-5.6-18.48l1.39-5C3.17,23.83,16,16.5,16,16.5h0s7.15,13,5.6,18.48Z"/><path class="cls-2" d="M28.89,30.91C23.36,29.36,16,16.5,16,16.5h0s13-7.16,18.48-5.6l5,1.39C45,13.84,52.33,26.7,52.33,26.7h0s-13,7.16-18.48,5.6Z"/><path class="cls-3" d="M39.73,67c-1.09,0-2.24-.05-3.41-.14a1.27,1.27,0,0,1-1.18-1.37,1.23,1.23,0,0,1,1.38-1.19c1.3.1,2.57.14,3.76.13a1.23,1.23,0,0,1,1.3,1.26A1.28,1.28,0,0,1,40.32,67Z"/><path class="cls-3" d="M32.22,66.36h-.17A61.26,61.26,0,0,1,21.6,64a1.28,1.28,0,1,1,.82-2.43,61.52,61.52,0,0,0,10,2.22,1.28,1.28,0,0,1-.17,2.55Z"/><path class="cls-4" d="M35.58,30.1c2.81,5-1.1,19.28-1.1,19.28h0s-14.22-4.1-17-9.11l-2.52-4.49C12.12,30.78,16,16.5,16,16.5h0s14.22,4.1,17,9.11Z"/><path class="cls-5" d="M91,68.29C76.8,82.48,51.8,70,51.8,70S38,46.38,53.53,30.83c11.31-11.3,28.85-12.08,39.19-1.73S102.29,57,91,68.29Z"/><path class="cls-6" d="M70.87,22.09C72.81,26.94,77,33,82.68,38.68c5.91,5.9,12.15,10.15,17.08,12A25.07,25.07,0,0,0,70.87,22.09Z"/><circle class="cls-6" cx="84.01" cy="60.18" r="1.34"/><circle class="cls-6" cx="82.84" cy="47.62" r="1.3"/><circle class="cls-6" cx="93.72" cy="54.82" r="2.2"/><path class="cls-7" d="M74.06,67.52A26.25,26.25,0,0,1,51.35,89.2C38,90.83,18.64,76.19,22.81,66.49c1.31-3,6.5-3,12.63-2.76,7.48.29,16.57.09,22.43-5.17,7.66-6.89,18.93-7.24,16.19,9Z"/><path class="cls-8" d="M63.73,54.88c6.38-2.43,12.41.31,10.33,12.64A26.25,26.25,0,0,1,51.35,89.2c-10.43,1.27-24.47-7.34-28.18-15.79,5.49,3.4,12.06,5.52,17.61,4.85A26.25,26.25,0,0,0,63.49,56.58C63.59,56,63.67,55.43,63.73,54.88Z"/><path class="cls-4" d="M17.42,14.05l-.55-.69a3.34,3.34,0,0,0-5.23,4.14l.55.69a3.34,3.34,0,1,0,5.23-4.14Z"/></svg>