<svg id="Layer_1" data-name="Layer 1" xmlns="http://www.w3.org/2000/svg" viewBox="0 0 100 100"><defs><style>.cls-1{fill:#ad7771;}.cls-2{fill:#805853;}.cls-3{fill:#e4ae90;}.cls-4{fill:#c5c7c9;}.cls-5{fill:#a6a8ab;}</style></defs><title>arrow</title><polygon class="cls-1" points="25.14 72.96 12.07 86.03 2.14 82.58 15.21 69.51 25.14 72.96"/><polygon class="cls-2" points="23.11 74.98 17.01 81.08 7.08 77.64 13.18 71.54 23.11 74.98"/><polygon class="cls-2" points="16.05 82.05 9.95 88.15 0.02 84.7 6.12 78.6 16.05 82.05"/><polygon class="cls-1" points="27.06 74.88 13.99 87.95 17.44 97.88 30.51 84.81 27.06 74.88"/><polygon class="cls-2" points="25.04 76.91 18.93 83.01 22.38 92.94 28.48 86.84 25.04 76.91"/><polygon class="cls-2" points="17.98 83.97 11.88 90.07 15.32 100 21.42 93.9 17.98 83.97"/><path class="cls-3" d="M-8.07,50.26H105.39a.58.58,0,0,1,.58.58v2.08a.58.58,0,0,1-.58.58H-8.07a1.62,1.62,0,0,1-1.62-1.62v0a1.62,1.62,0,0,1,1.62-1.62Z" transform="translate(-22.59 49.23) rotate(-45)"/><polygon class="cls-4" points="99.98 0 83.71 16.27 74.59 12.54 99.98 0"/><polygon class="cls-5" points="99.98 0 83.71 16.27 87.44 25.39 99.98 0"/></svg>