<svg id="Layer_1" data-name="Layer 1" xmlns="http://www.w3.org/2000/svg" viewBox="0 0 100 100"><defs><style>.cls-1{fill:#f2797a;}.cls-2{fill:#f9c2c7;}</style></defs><title>coral</title><path class="cls-1" d="M99.61,19.66a3.07,3.07,0,1,0-6,1.43s1,4.52-1.23,7.72a7.63,7.63,0,0,1-3.77,2.74,55.36,55.36,0,0,0-1.82-9.76,3.08,3.08,0,1,0-5.89,1.77c0,.11,3.38,11.49.8,18.77C72.1,43,68.42,30.07,68.25,29.46a3.07,3.07,0,1,0-5.93,1.59c1.62,6.06,7,16.16,16.65,17.36-2.9,4.56-7.85,7-21.62,7.64a54.54,54.54,0,0,1-7.94-20C45.78,16.56,64.89,7.75,65.76,7.36a3.07,3.07,0,1,0-2.48-5.62C63,1.85,38.83,12.83,43.37,37.22c2.39,12.82,7.7,20.64,12,26.92,3.28,4.84,5.88,8.66,6.11,13.23a27.1,27.1,0,0,1-.69,7.86h0c-.19.78-.41,1.5-.64,2.16C56.64,80,49.42,74.68,41.87,69.14A108.57,108.57,0,0,1,28.61,58.31a28.08,28.08,0,0,1-7.2-13.54,18.12,18.12,0,0,0,11-8.32C38.37,26.36,34.16,12,34,11.35a3.07,3.07,0,1,0-5.88,1.76c1,3.43,2.85,13.75-1,20.23a11.87,11.87,0,0,1-6.62,5.28A40.54,40.54,0,0,1,21,28.85a3.07,3.07,0,1,0-6-1.28c-.19.86-4.34,21.29,9.27,35.06,1.12,1.13,2.29,2.22,3.48,3.26-4,2.73-7.7,3.75-11,3C9.73,67.26,5.94,58.54,5.9,58.45A3.07,3.07,0,0,0,.24,60.84c.2.47,5,11.66,15,14a16.65,16.65,0,0,0,3.72.43c4.42,0,9-1.79,13.67-5.35,1.86,1.43,3.73,2.81,5.58,4.16,8,5.87,15.05,11,17.23,18.27-5.12-.09-9.17-1.16-9.37-2-2-9.35-9.9-11.31-13.79-11a3.07,3.07,0,0,0,.41,6.13c1,0,6,0,7.38,6.19,1.29,6,10.16,6.91,15.79,6.91,1.43,0,2.65-.06,3.48-.12h.06l.15,0,.28-.05.15,0a1.15,1.15,0,0,0,.17-.06l.25-.1.14-.06.16-.1.22-.14.12-.08.15-.15.13-.11A23,23,0,0,0,66,89.31c.51,0,1,0,1.57,0,4,0,9.2-.92,15.64-5.94,9.57-7.48,7.21-19.81,7.11-20.34a3.08,3.08,0,0,0-6,1.22c0,.09,1.75,9.11-4.87,14.28-5.06,4-8.81,4.65-12,4.63a34.83,34.83,0,0,0,.24-6.16c-.3-5.79-3-10.21-6.32-15.1,16.48-1.34,21.6-6,25.52-15.65l0-.09c.2-.49.39-1,.59-1.52a24.3,24.3,0,0,0,1.35-6.78,14.24,14.24,0,0,0,8.68-5.59C101.27,26.83,99.68,20,99.61,19.66Z"/><circle class="cls-1" cx="21.22" cy="10.27" r="0.88"/><circle class="cls-1" cx="39.86" cy="46.41" r="1.77"/><circle class="cls-1" cx="60.06" cy="17.49" r="1.54"/><circle class="cls-1" cx="78.92" cy="67.98" r="2.42"/><circle class="cls-1" cx="16.83" cy="63.21" r="0.9"/><circle class="cls-2" cx="26.53" cy="50.39" r="0.87"/><circle class="cls-2" cx="54.12" cy="27.21" r="2.13"/><circle class="cls-2" cx="49.99" cy="68.37" r="2.45"/><circle class="cls-2" cx="87.47" cy="10.73" r="2.12"/><circle class="cls-2" cx="6.58" cy="34.74" r="1.15"/></svg>