<svg id="Layer_1" data-name="Layer 1" xmlns="http://www.w3.org/2000/svg" viewBox="0 0 100 100"><defs><style>.cls-1{fill:#ebf3f8;}.cls-2{fill:#d7e8f0;}.cls-3{fill:#c3dce9;}.cls-4{fill:#afd1e1;}.cls-5{fill:#9bc5da;}.cls-6{fill:#7acced;}.cls-7{fill:#f7a895;}.cls-8{fill:#ffc63f;}.cls-9{fill:#ffe5b1;}.cls-10{fill:#383638;}.cls-11{fill:#3e3e3f;}.cls-12{fill:#ffc640;}.cls-13,.cls-25{fill:#454547;}.cls-14{fill:#f48d80;}.cls-15{fill:#393839;}.cls-16{fill:#c5d1a3;}.cls-17{fill:#4a4a4c;}.cls-18{fill:#3e545f;}.cls-19{fill:#c2d4de;}.cls-20{fill:#56707d;}.cls-21{fill:#5f723c;}.cls-22{fill:#4f4f4f;}.cls-23{fill:#4e322e;}.cls-24{fill:#725748;}.cls-25{opacity:0.59;}</style></defs><title>dawn</title><rect class="cls-1" x="27.45" y="38.54" width="68.27" height="5.11" rx="2.55" ry="2.55"/><rect class="cls-2" x="29.95" y="33.44" width="68.27" height="5.11" rx="2.55" ry="2.55"/><rect class="cls-3" x="24.35" y="28.34" width="68.27" height="5.11" rx="2.55" ry="2.55"/><rect class="cls-4" x="30.69" y="23.25" width="68.27" height="5.11" rx="2.55" ry="2.55"/><rect class="cls-5" x="25.72" y="18.15" width="68.27" height="5.11" rx="2.55" ry="2.55"/><rect class="cls-6" x="31.73" y="13.04" width="68.27" height="5.11" rx="2.55" ry="2.55"/><path class="cls-7" d="M89.53,30.64A16.35,16.35,0,1,1,73.19,14.3,16.34,16.34,0,0,1,89.53,30.64"/><path class="cls-8" d="M85.09,30.52a11.91,11.91,0,1,1-11.9-11.91,11.9,11.9,0,0,1,11.9,11.91"/><path class="cls-9" d="M82,30.64a8.84,8.84,0,1,1-8.83-8.84A8.83,8.83,0,0,1,82,30.64"/><path class="cls-10" d="M89.81,58.8h-54a7.67,7.67,0,0,1,0-15.34h54a7.67,7.67,0,1,1,0,15.34"/><path class="cls-11" d="M94.51,45.11a7.61,7.61,0,0,0-4.7-1.65h-54a7.51,7.51,0,0,0-3.52.9h-.4L26.19,50H64.57l2.5-2.51L64.57,50h0l-9,9h0l-1.45,1.46L55.59,59H17.22L3,73.25H66.43L94.57,45.11h-.06"/><path class="cls-10" d="M61.71,71.61h-54A7.68,7.68,0,0,0,7.67,87h54a7.68,7.68,0,1,0,0-15.35"/><polyline class="cls-11" points="38.79 54.35 23.11 54.35 23.11 30.49 38.79 30.49 38.79 54.35"/><path class="cls-12" d="M29.72,32.66v3.53a.42.42,0,0,1-.42.42H25.77a.42.42,0,0,1-.43-.42V32.66a.43.43,0,0,1,.43-.43H29.3a.42.42,0,0,1,.42.43"/><path class="cls-10" d="M29.72,39.93v3.53a.42.42,0,0,1-.42.43H25.77a.43.43,0,0,1-.43-.43V39.93a.43.43,0,0,1,.43-.43H29.3a.43.43,0,0,1,.42.43"/><path class="cls-10" d="M29.72,47.21v3.53a.43.43,0,0,1-.42.43H25.77a.43.43,0,0,1-.43-.43V47.21a.43.43,0,0,1,.43-.43H29.3a.42.42,0,0,1,.42.43"/><polyline class="cls-11" points="61.58 52.64 44.64 52.64 44.64 34.06 61.58 34.06 61.58 52.64"/><polyline class="cls-11" points="67.55 55.28 55.62 55.28 55.62 30.66 67.55 30.66 67.55 55.28"/><path class="cls-12" d="M62.75,33.22v3.66a.42.42,0,0,1-.42.42H58.67a.42.42,0,0,1-.42-.42V33.22a.42.42,0,0,1,.42-.42h3.66a.42.42,0,0,1,.42.42"/><path class="cls-12" d="M62.75,41.52v3.66a.42.42,0,0,1-.42.42H58.67a.42.42,0,0,1-.42-.42V41.52a.43.43,0,0,1,.42-.43h3.66a.43.43,0,0,1,.42.43"/><polyline class="cls-11" points="64.82 39.1 56.81 39.1 56.81 36.35 64.82 36.35 64.82 39.1"/><path class="cls-11" d="M58.67,40.16a.42.42,0,0,1-.42-.42V39a.43.43,0,1,1,.85,0v.7a.42.42,0,0,1-.43.42"/><path class="cls-11" d="M63,40.16a.42.42,0,0,1-.42-.42V39a.43.43,0,1,1,.85,0v.7a.42.42,0,0,1-.43.42"/><polyline class="cls-11" points="79.01 59.15 64.09 59.15 64.09 29.46 79.01 29.46 79.01 59.15"/><path class="cls-11" d="M77.86,29.59c0,1.16-2.82,2.1-6.31,2.1s-6.31-.94-6.31-2.1"/><path class="cls-10" d="M77,53.35a1.63,1.63,0,0,0-1.63-1.63h-.56a1.62,1.62,0,0,0-1.62,1.63v5.8H77v-5.8"/><path class="cls-12" d="M77,32.36v3.21a.43.43,0,0,1-.43.43h-10a.43.43,0,0,1-.43-.43V32.36a.42.42,0,0,1,.43-.42h10a.42.42,0,0,1,.43.42"/><path class="cls-10" d="M77,39v3.2a.43.43,0,0,1-.43.43h-10a.43.43,0,0,1-.43-.43V39a.43.43,0,0,1,.43-.43h10A.43.43,0,0,1,77,39"/><path class="cls-12" d="M77,45.57v3.21a.43.43,0,0,1-.43.43h-10a.43.43,0,0,1-.43-.43V45.57a.42.42,0,0,1,.43-.42h10a.42.42,0,0,1,.43.42"/><path class="cls-12" d="M71.55,52.18v3.2a.43.43,0,0,1-.43.43H66.56a.43.43,0,0,1-.43-.43v-3.2a.43.43,0,0,1,.43-.43h4.56a.43.43,0,0,1,.43.43"/><polyline class="cls-13" points="78.85 60.88 15.3 60.88 18.23 57.97 81.74 57.97 78.85 60.88"/><polyline class="cls-11" points="51.69 63.59 29.09 63.59 29.09 25.02 51.69 25.02 51.69 63.59"/><path class="cls-10" d="M49.92,52a3.26,3.26,0,0,0-3.25-3.25H45.55A3.25,3.25,0,0,0,42.3,52v11.6h7.62V52"/><path class="cls-10" d="M38.43,28.25V34.1a.42.42,0,0,1-.43.42H32.16a.42.42,0,0,1-.43-.42V28.25a.43.43,0,0,1,.43-.43H38a.43.43,0,0,1,.43.43"/><path class="cls-12" d="M49,28.25V34.1a.42.42,0,0,1-.43.42H42.72a.42.42,0,0,1-.42-.42V28.25a.42.42,0,0,1,.42-.43h5.85a.43.43,0,0,1,.43.43"/><path class="cls-12" d="M38.43,38.74v5.85A.42.42,0,0,1,38,45H32.16a.42.42,0,0,1-.43-.42V38.74a.43.43,0,0,1,.43-.43H38a.43.43,0,0,1,.43.43"/><path class="cls-12" d="M49,38.74v5.85a.42.42,0,0,1-.43.42H42.72a.42.42,0,0,1-.42-.42V38.74a.42.42,0,0,1,.42-.43h5.85a.43.43,0,0,1,.43.43"/><path class="cls-10" d="M38.43,49.23v5.84a.43.43,0,0,1-.43.43H32.16a.43.43,0,0,1-.43-.43V49.23a.43.43,0,0,1,.43-.43H38a.43.43,0,0,1,.43.43"/><path class="cls-14" d="M61.77,87h0m0,0h0M0,79.22H0m0-.06v0m0,0H0M97.48,51.23h0m0,0h0m0-.12v0m0-.05h0m0,0h0"/><polyline class="cls-14" points="94.56 45.11 94.56 45.11 94.57 45.12 94.56 45.12 94.56 45.12 94.57 45.12 94.56 45.11"/><path class="cls-15" d="M94.54,45.14l-.53.53,1.08,1.56v9.44a7.63,7.63,0,0,0,2.39-5.44h0v0h0v0h0V51h0v0h0a7.63,7.63,0,0,0-2.94-5.82m0,0,0,0,0,0h0m-.08,0,0,0h0l0,0"/><path class="cls-15" d="M94,45.67,81.71,58h0l-2.89,2.91h0L66.43,73.25a7.62,7.62,0,0,1,.95,11.19L81.22,70.6,95.09,56.74v-.07h0V47.23L94,45.67"/><polyline class="cls-16" points="55.62 52.64 51.69 52.64 51.69 57.97 56.6 57.97 59.3 55.28 55.62 55.28 55.62 52.64"/><path class="cls-16" d="M78.8,60.88H51.69v2.71H29.09V60.88H15.32L3,73.23a7.66,7.66,0,0,1,4.7-1.62h54a7.63,7.63,0,0,1,4.72,1.64L78.8,60.88m-14.71-5.6H59.3L56.6,58h7.49V55.28M89.81,43.46H79V58h2.7L94,45.67l.53-.53h0l0,0h0l0,0a7.09,7.09,0,0,0-.93-.61l-.19-.11c-.3-.15-.59-.29-.9-.41a5,5,0,0,0-.55-.17,5.56,5.56,0,0,0-.7-.19,7.15,7.15,0,0,0-1.4-.14h0"/><path class="cls-15" d="M61.71,71.61h-54A7.66,7.66,0,0,0,3,73.23l0,0H3a7.67,7.67,0,0,0-3,5.86H0v.1H0v.06H0A7.69,7.69,0,0,0,7.67,87H61.82a7.62,7.62,0,0,0,5.52-2.51l0,0h0l0,0a7.68,7.68,0,0,0-5.67-12.83"/><polyline class="cls-17" points="55.62 34.06 51.69 34.06 51.69 52.64 55.62 52.64 55.62 34.06"/><path class="cls-18" d="M58.67,45.6a.42.42,0,0,1-.42-.42V41.52a.43.43,0,0,1,.42-.43h3.66a.43.43,0,0,1,.42.43v3.66a.42.42,0,0,1-.42.42H58.67m5.42-14.94H55.62V55.28h8.47V39.1h-.64v.64a.43.43,0,0,1-.85,0V39.1H59.1v.64a.43.43,0,0,1-.85,0V39.1H56.81V36.35h1.44V33.22a.42.42,0,0,1,.42-.42h3.66a.42.42,0,0,1,.42.42v3.13h1.34V30.66"/><path class="cls-19" d="M62.33,32.8H58.67a.42.42,0,0,0-.42.42v3.13h4.5V33.22a.42.42,0,0,0-.42-.42"/><path class="cls-19" d="M62.33,41.09H58.67a.43.43,0,0,0-.42.43v3.66a.42.42,0,0,0,.42.42h3.66a.42.42,0,0,0,.42-.42V41.52a.43.43,0,0,0-.42-.43"/><path class="cls-20" d="M64.09,36.35H56.81V39.1h1.44V39a.43.43,0,1,1,.85,0v.06h3.5V39a.43.43,0,1,1,.85,0v.06h.64V36.35"/><path class="cls-20" d="M58.67,38.61a.42.42,0,0,0-.42.43v.7a.43.43,0,0,0,.85,0V39a.43.43,0,0,0-.43-.43"/><path class="cls-20" d="M63,38.61a.42.42,0,0,0-.42.43v.7a.43.43,0,0,0,.85,0V39a.43.43,0,0,0-.43-.43"/><path class="cls-21" d="M66.56,55.81a.43.43,0,0,1-.43-.43v-3.2a.43.43,0,0,1,.43-.43h4.56a.43.43,0,0,1,.43.43v3.2a.43.43,0,0,1-.43.43H66.56m0-6.6a.43.43,0,0,1-.43-.43V45.57a.42.42,0,0,1,.43-.42h10a.42.42,0,0,1,.43.42v3.21a.43.43,0,0,1-.43.43h-10m0-6.61a.43.43,0,0,1-.43-.43V39a.43.43,0,0,1,.43-.43h10A.43.43,0,0,1,77,39v3.2a.43.43,0,0,1-.43.43h-10m0-6.6a.43.43,0,0,1-.43-.43V32.36a.42.42,0,0,1,.43-.42h10a.42.42,0,0,1,.43.42v3.21a.43.43,0,0,1-.43.43h-10M79,29.46H77.85a.53.53,0,0,1,0,.13c0,1.16-2.82,2.1-6.31,2.1s-6.31-.94-6.31-2.1a.53.53,0,0,1,0-.13H64.09V58h9.1V53.35a1.62,1.62,0,0,1,1.62-1.63h.56A1.63,1.63,0,0,1,77,53.35V58h2V29.46"/><path class="cls-21" d="M71.55,27.48l-.83,0h-.06c-2.93.13-5.2.95-5.38,1.95h0a.53.53,0,0,0,0,.13c0,1.16,2.82,2.1,6.31,2.1s6.31-.94,6.31-2.1a.53.53,0,0,0,0-.13h0c-.2-1.1-2.9-2-6.23-2h0"/><path class="cls-14" d="M29.09,30.49h0"/><polyline class="cls-16" points="23.11 53.1 20.66 55.55 18.21 57.99 18.13 58.07 18.07 58.13 18.23 57.97 29.09 57.97 29.09 54.35 23.11 54.35 23.11 53.1"/><path class="cls-22" d="M29.09,30.49h-6V53.1h0v1.25h6V51.17H25.77a.43.43,0,0,1-.43-.43V47.21a.43.43,0,0,1,.43-.43h3.32V43.89H25.77a.43.43,0,0,1-.43-.43V39.93a.43.43,0,0,1,.43-.43h3.32V36.61H25.77a.42.42,0,0,1-.43-.42V32.66a.43.43,0,0,1,.43-.43h3.32V30.49"/><path class="cls-19" d="M29.09,32.23H25.77a.43.43,0,0,0-.43.43v3.53a.42.42,0,0,0,.43.42h3.32V32.23"/><path class="cls-19" d="M29.09,39.5H25.77a.43.43,0,0,0-.43.43v3.53a.43.43,0,0,0,.43.43h3.32V39.5"/><path class="cls-19" d="M29.09,46.78H25.77a.43.43,0,0,0-.43.43v3.53a.43.43,0,0,0,.43.43h3.32V46.78"/><path class="cls-23" d="M75.37,51.72h-.56a1.62,1.62,0,0,0-1.62,1.63V58H77V53.35a1.63,1.63,0,0,0-1.63-1.63"/><path class="cls-19" d="M76.57,31.94h-10a.42.42,0,0,0-.43.42v3.21a.43.43,0,0,0,.43.43h10a.43.43,0,0,0,.43-.43V32.36a.42.42,0,0,0-.43-.42"/><path class="cls-19" d="M76.57,38.54h-10a.43.43,0,0,0-.43.43v3.2a.43.43,0,0,0,.43.43h10a.43.43,0,0,0,.43-.43V39a.43.43,0,0,0-.43-.43"/><path class="cls-19" d="M76.57,45.15h-10a.42.42,0,0,0-.43.42v3.21a.43.43,0,0,0,.43.43h10a.43.43,0,0,0,.43-.43V45.57a.42.42,0,0,0-.43-.42"/><path class="cls-19" d="M71.12,51.75H66.56a.43.43,0,0,0-.43.43v3.2a.43.43,0,0,0,.43.43h4.56a.43.43,0,0,0,.43-.43v-3.2a.43.43,0,0,0-.43-.43"/><path class="cls-13" d="M81.74,58h-30v2.91H78.85L81.74,58"/><path class="cls-24" d="M32.16,55.5a.43.43,0,0,1-.43-.43V49.23a.43.43,0,0,1,.43-.43H38a.43.43,0,0,1,.43.43v5.84a.43.43,0,0,1-.43.43H32.16M42.3,63.59V52a3.25,3.25,0,0,1,3.25-3.25h1.12A3.26,3.26,0,0,1,49.92,52v11.6H42.3M32.16,45a.42.42,0,0,1-.43-.42V38.74a.43.43,0,0,1,.43-.43H38a.43.43,0,0,1,.43.43v5.85A.42.42,0,0,1,38,45H32.16m10.56,0a.42.42,0,0,1-.42-.42V38.74a.42.42,0,0,1,.42-.43h5.85a.43.43,0,0,1,.43.43v5.85a.42.42,0,0,1-.43.42H42.72M32.16,34.52a.42.42,0,0,1-.43-.42V28.25a.43.43,0,0,1,.43-.43H38a.43.43,0,0,1,.43.43V34.1a.42.42,0,0,1-.43.42H32.16m10.56,0a.42.42,0,0,1-.42-.42V28.25a.42.42,0,0,1,.42-.43h5.85a.43.43,0,0,1,.43.43V34.1a.42.42,0,0,1-.43.42H42.72m9-9.5H29.09v5.47h0v33.1h22.6V25"/><path class="cls-23" d="M46.67,48.74H45.55A3.25,3.25,0,0,0,42.3,52v11.6h7.62V52a3.26,3.26,0,0,0-3.25-3.25"/><path class="cls-19" d="M38,27.82H32.16a.43.43,0,0,0-.43.43V34.1a.42.42,0,0,0,.43.42H38a.42.42,0,0,0,.43-.42V28.25a.43.43,0,0,0-.43-.43"/><path class="cls-19" d="M48.57,27.82H42.72a.42.42,0,0,0-.42.43V34.1a.42.42,0,0,0,.42.42h5.85A.42.42,0,0,0,49,34.1V28.25a.43.43,0,0,0-.43-.43"/><path class="cls-19" d="M38,38.31H32.16a.43.43,0,0,0-.43.43v5.85a.42.42,0,0,0,.43.42H38a.42.42,0,0,0,.43-.42V38.74a.43.43,0,0,0-.43-.43"/><path class="cls-19" d="M48.57,38.31H42.72a.42.42,0,0,0-.42.43v5.85a.42.42,0,0,0,.42.42h5.85a.42.42,0,0,0,.43-.42V38.74a.43.43,0,0,0-.43-.43"/><path class="cls-19" d="M38,48.8H32.16a.43.43,0,0,0-.43.43v5.84a.43.43,0,0,0,.43.43H38a.43.43,0,0,0,.43-.43V49.23A.43.43,0,0,0,38,48.8"/><polygon class="cls-25" points="29.09 63.59 19.18 71.61 41.36 71.61 51.69 63.59 29.09 63.59"/><polyline class="cls-25" points="64.09 57.97 47.05 71.6 62.42 71.65 79.01 57.97"/><polygon class="cls-25" points="55.62 55.28 52.88 57.97 62.24 57.97 64.09 55.28 55.62 55.28"/><polygon class="cls-25" points="23.11 54.35 19.18 57.97 29.09 57.97 29.09 54.35 23.11 54.35"/></svg>