<svg id="Layer_1" data-name="Layer 1" xmlns="http://www.w3.org/2000/svg" viewBox="0 0 100 100"><defs><style>.cls-1{fill:#fff;}.cls-2{fill:#171717;}.cls-3{fill:#fac6b9;}.cls-4{fill:#cccecf;}</style></defs><title>polar bear</title><path class="cls-1" d="M38.49,0h22a8.28,8.28,0,0,1,8.28,8.28V35.86A11.83,11.83,0,0,1,56.93,47.69h-22A4.73,4.73,0,0,1,30.21,43V8.28A8.28,8.28,0,0,1,38.49,0Z"/><rect class="cls-1" x="21.12" y="26.62" width="56.71" height="70.16" rx="12.18" ry="12.18" transform="translate(98.96 123.4) rotate(180)"/><ellipse class="cls-1" cx="30.21" cy="6.66" rx="3.61" ry="5.03" transform="translate(4.14 23.31) rotate(-45)"/><ellipse class="cls-1" cx="68.76" cy="6.66" rx="5.03" ry="3.61" transform="translate(15.43 50.57) rotate(-45)"/><circle class="cls-2" cx="35.37" cy="18.81" r="1.53"/><circle class="cls-2" cx="62.9" cy="18.81" r="1.53"/><circle class="cls-1" cx="27.62" cy="90.69" r="9.31"/><circle class="cls-1" cx="21.92" cy="83.1" r="3.32"/><circle class="cls-1" cx="33.07" cy="83.1" r="3.32"/><circle class="cls-1" cx="27.62" cy="81.38" r="3.32"/><polyline class="cls-1" points="28.39 100 47.21 94.86 46.82 81.38"/><circle class="cls-3" cx="22.01" cy="82.87" r="1.67"/><circle class="cls-3" cx="27.62" cy="80.76" r="1.67"/><circle class="cls-3" cx="33.07" cy="82.87" r="1.67"/><circle class="cls-3" cx="27.62" cy="91.39" r="5.22"/><circle class="cls-1" cx="71.91" cy="90.69" r="9.31"/><circle class="cls-1" cx="77.61" cy="83.1" r="3.32"/><circle class="cls-1" cx="66.45" cy="83.1" r="3.32"/><circle class="cls-1" cx="71.91" cy="81.38" r="3.32"/><polyline class="cls-1" points="71.13 100 52.32 94.86 52.71 81.38"/><circle class="cls-3" cx="77.52" cy="82.87" r="1.67"/><circle class="cls-3" cx="71.91" cy="80.76" r="1.67"/><circle class="cls-3" cx="66.45" cy="82.87" r="1.67"/><circle class="cls-3" cx="71.91" cy="91.39" r="5.22"/><rect class="cls-1" x="9.03" y="40.84" width="82.06" height="14.82" rx="3.18" ry="3.18"/><circle class="cls-1" cx="84.53" cy="48.66" r="6.93"/><circle class="cls-1" cx="90.18" cy="52.9" r="2.47"/><circle class="cls-1" cx="90.18" cy="44.6" r="2.47"/><circle class="cls-1" cx="91.46" cy="48.66" r="2.47"/><circle class="cls-3" cx="90.35" cy="52.84" r="1.24"/><circle class="cls-3" cx="91.92" cy="48.66" r="1.24"/><circle class="cls-3" cx="90.35" cy="44.6" r="1.24"/><circle class="cls-3" cx="84.01" cy="48.66" r="3.89"/><circle class="cls-1" cx="15.47" cy="48.66" r="6.93"/><circle class="cls-1" cx="9.82" cy="52.9" r="2.47"/><circle class="cls-1" cx="9.82" cy="44.6" r="2.47"/><circle class="cls-1" cx="8.54" cy="48.66" r="2.47"/><circle class="cls-3" cx="9.65" cy="52.84" r="1.24"/><circle class="cls-3" cx="8.08" cy="48.66" r="1.24"/><circle class="cls-3" cx="9.65" cy="44.6" r="1.24"/><circle class="cls-3" cx="15.99" cy="48.66" r="3.89"/><rect class="cls-4" x="48.66" y="28.43" width="2.72" height="6.69" rx="0.58" ry="0.58"/><path class="cls-2" d="M58.78,24.24c0,2.33-8.71,7-8.71,7s-8.72-4.64-8.72-7S45.25,20,50.07,20,58.78,21.91,58.78,24.24Z"/></svg>