<svg id="Layer_1" data-name="Layer 1" xmlns="http://www.w3.org/2000/svg" viewBox="0 0 100 100"><defs><style>.cls-1{fill:#007f63;}.cls-2{fill:#038c6e;}.cls-3{fill:#00604a;}.cls-4{fill:#09a582;}.cls-5{fill:#007359;}.cls-6{fill:#231f20;}</style></defs><title>turtle</title><path class="cls-1" d="M96.43,65.1a37.32,37.32,0,0,0-74.64,0Z"/><path class="cls-2" d="M32.89,61.29s0,.05,0,.07v7.57a5.4,5.4,0,1,0,10.79,0V61.36s0,0,0-.07Z"/><path class="cls-2" d="M51.29,61.29s0,.05,0,.07v7.57a5.4,5.4,0,1,0,10.79,0V61.36s0,0,0-.07Z"/><path class="cls-3" d="M54.55,61.71a11.75,11.75,0,1,0-23,3.39H54A11.49,11.49,0,0,0,54.55,61.71Z"/><path class="cls-4" d="M29.52,38.83s0,.21,0,.6.23,1.47-.21.61a1.64,1.64,0,0,0-.29-.3c-.12-.11-.26-.2-.26-.13a1.7,1.7,0,0,0-.26.27l-.1.51c0,.25.08.5.13.76l.41,1c.23.34.42.73.72,1.12a18.79,18.79,0,0,0,2.24,2.51,32.89,32.89,0,0,0,3.11,2.62c1.15.87,2.41,1.71,3.7,2.54A108.57,108.57,0,0,0,54.5,58.84c4.57,1.89,7.74,2.92,7.74,2.92S59,62.42,54,63.05a117.78,117.78,0,0,1-19,.89c-1.8-.09-3.62-.22-5.45-.46a50.09,50.09,0,0,1-5.49-1,39.22,39.22,0,0,1-5.42-1.64c-.89-.33-1.78-.76-2.63-1.14s-1.72-.93-2.53-1.4-1.61-1.1-2.36-1.65S9.6,55.42,8.94,54.81s-1.26-1.37-1.8-2a8.81,8.81,0,0,1-.86-1.19c-.28-.45-.55-.88-.79-1.3a19.63,19.63,0,0,0-1.41-2.43l-.32-.51a14,14,0,1,1,25.76-8.61Z"/><path class="cls-1" d="M96.43,65.1A37.26,37.26,0,0,0,42.58,31.68V50h.22A11.75,11.75,0,0,1,54.55,61.71,11.49,11.49,0,0,1,54,65.1Z"/><path class="cls-5" d="M97.91,67.19H20.49a2.09,2.09,0,1,1,0-4.17H97.91a2.09,2.09,0,1,1,0,4.17Z"/><polygon class="cls-5" points="63.84 37.7 61.72 34.03 63.84 30.38 68.06 30.38 70.17 34.03 68.06 37.7 63.84 37.7"/><polygon class="cls-5" points="71.5 42.12 69.39 38.46 71.5 34.8 75.73 34.8 77.84 38.46 75.73 42.12 71.5 42.12"/><polygon class="cls-5" points="71.78 51.11 69.67 47.45 71.78 43.79 76.01 43.79 78.12 47.45 76.01 51.11 71.78 51.11"/><polygon class="cls-5" points="78.86 46.52 76.75 42.86 78.86 39.2 83.09 39.2 85.2 42.86 83.09 46.52 78.86 46.52"/><polygon class="cls-5" points="63.84 46.52 61.72 42.86 63.84 39.2 68.06 39.2 70.17 42.86 68.06 46.52 63.84 46.52"/><path class="cls-4" d="M66.33,56A5.4,5.4,0,0,0,61,61.29H71.72A5.41,5.41,0,0,0,66.33,56Z"/><path class="cls-4" d="M61,61.29s0,.05,0,.07v7.57a5.4,5.4,0,1,0,10.79,0V61.36s0,0,0-.07Z"/><path class="cls-4" d="M86.45,56a5.4,5.4,0,0,0-5.38,5.32H91.84A5.41,5.41,0,0,0,86.45,56Z"/><path class="cls-4" d="M81.07,61.29s0,.05,0,.07v7.57a5.4,5.4,0,1,0,10.79,0V61.36s0,0,0-.07Z"/><rect class="cls-3" y="37.9" width="10.31" height="3.07" rx="0.77" ry="0.77"/><circle class="cls-3" cx="21.42" cy="35.71" r="3.2"/><circle class="cls-6" cx="21.42" cy="35.11" r="1.41"/><circle class="cls-3" cx="19.37" cy="40.82" r="0.74"/><circle class="cls-3" cx="21.65" cy="43.24" r="0.74"/><circle class="cls-3" cx="23.35" cy="40.82" r="0.74"/><circle class="cls-3" cx="17.47" cy="50.21" r="0.92"/><circle class="cls-3" cx="32.42" cy="57.45" r="1.36"/><circle class="cls-3" cx="33.33" cy="51.33" r="0.45"/><circle class="cls-3" cx="43.11" cy="58.94" r="0.31"/><ellipse class="cls-3" cx="9.5" cy="31.91" rx="1" ry="1.13"/><ellipse class="cls-3" cx="5.36" cy="31.91" rx="0.95" ry="1.08"/></svg>