<svg id="Layer_1" data-name="Layer 1" xmlns="http://www.w3.org/2000/svg" xmlns:xlink="http://www.w3.org/1999/xlink" viewBox="0 0 100 100"><defs><style>.cls-1{fill:none;}.cls-2{clip-path:url(#clip-path);}.cls-3{fill:#58595b;}.cls-4{fill:#00604a;}.cls-5{fill:#6d4945;}.cls-6{fill:#007359;}.cls-7{fill:#09a380;}.cls-8{fill:#3ab599;}</style><clipPath id="clip-path"><path class="cls-1" d="M-154.29,0h-71.42A14.33,14.33,0,0,0-240,14.29V85.71A14.33,14.33,0,0,0-225.71,100h71.42A14.33,14.33,0,0,0-140,85.71V14.29A14.33,14.33,0,0,0-154.29,0Z"/></clipPath></defs><title>reed</title><g class="cls-2"><path class="cls-3" d="M-443,135.57c184-94,341-155.93,357.11-141.2L33.26-66.55c-67.42,1.13-262.4,76.19-483,189-51.17,26.15-99.73,52.35-144.88,77.88H-564C-526.79,179.43-486.13,157.6-443,135.57Z"/><path class="cls-3" d="M57.7-59.09c-2.8-5.48-11.54-7.68-24.44-7.46L-85.91-5.63c.38.34,1.09.51,1.31,1,9.5,18.58-132,109.91-317,205h101.71C-81.5,81.93,73.16-28.85,57.7-59.09Z"/></g><path class="cls-4" d="M55.19,100s.73-58.25,13.48-90.56c0,0-9.83,79.86-6.74,90.56Z"/><path class="cls-4" d="M56,100S54.54,41.75,28.22,9.44c0,0,20.3,79.86,13.91,90.56Z"/><rect class="cls-4" x="55.56" y="24.64" width="0.96" height="71.05" transform="translate(2.96 -2.62) rotate(2.76)"/><rect class="cls-5" x="55.34" y="-0.01" width="5.98" height="25.38" rx="2.99" ry="2.99" transform="matrix(1, 0.05, -0.05, 1, 0.68, -2.79)"/><rect class="cls-4" x="47.9" y="28.95" width="0.96" height="71.05" transform="translate(-2.42 1.89) rotate(-2.18)"/><path class="cls-6" d="M44.52,100s.58-48.68,10.67-75.68c0,0-7.79,66.74-5.33,75.68Z"/><path class="cls-6" d="M43.08,100S42.5,44,32.41,12.9c0,0,7.78,76.81,5.33,87.1Z"/><path class="cls-7" d="M38.9,100s-.58-50.65-10.68-78.74c0,0,7.79,69.44,5.34,78.74Z"/><path class="cls-7" d="M51.73,100s-.58-48.68-10.67-75.68c0,0,7.79,66.74,5.33,75.68Z"/><path class="cls-6" d="M70.77,100s-.58-48.68-10.68-75.68c0,0,7.79,66.74,5.34,75.68Z"/><path class="cls-6" d="M51.3,100S51.87,58.79,62,35.93c0,0-7.79,56.5-5.34,64.07Z"/><path class="cls-7" d="M61.1,100s.58-61.78,10.68-96c0,0-7.79,84.7-5.34,96.05Z"/><path class="cls-8" d="M61.38,100S60.8,76.12,50.71,62.88c0,0,7.78,32.73,5.33,37.12Z"/><path class="cls-8" d="M40.34,100S40.91,65.47,51,46.32c0,0-7.79,47.34-5.34,53.68Z"/><path class="cls-8" d="M29.38,100S30,38.22,40.05,4c0,0-7.79,84.7-5.34,96.05Z"/><rect class="cls-5" x="43.68" y="9.37" width="5.98" height="20.29" rx="2.99" ry="2.99" transform="translate(-0.71 1.79) rotate(-2.18)"/></svg>