<svg id="Layer_1" data-name="Layer 1" xmlns="http://www.w3.org/2000/svg" viewBox="0 0 100 100"><defs><style>.cls-1{fill:#f9a63f;}.cls-2{fill:#d05030;}.cls-3{fill:#9c3c24;}.cls-4{fill:#5b3c38;}.cls-5{fill:#09a380;}.cls-6{fill:#f05c38;}.cls-7{fill:#c1321f;}.cls-8{fill:#fff;}.cls-9{fill:#f9b54c;}.cls-10{fill:#ffd15d;}.cls-11{fill:#324a5e;}</style></defs><title>chicken coop</title><rect class="cls-1" x="36.59" y="26.1" width="25.55" height="0.69"/><rect class="cls-1" x="33.86" y="25.28" width="25.55" height="0.69" transform="translate(-4.02 9.33) rotate(-10.95)"/><rect class="cls-1" x="36.59" y="26.45" width="25.55" height="0.69" transform="translate(2.23 -3.76) rotate(4.46)"/><rect class="cls-1" x="35.4" y="25.28" width="25.55" height="0.69" transform="translate(8.08 -11.39) rotate(14.7)"/><rect class="cls-1" x="38.21" y="24.26" width="18.84" height="0.69" transform="translate(-5.97 23.6) rotate(-26.24)"/><rect class="cls-1" x="38.21" y="24.26" width="18.84" height="0.69" transform="translate(20.76 -21.79) rotate(32.6)"/><rect class="cls-1" x="45.03" y="24.03" width="10.84" height="0.69" transform="translate(95.41 -9.05) rotate(117.59)"/><rect class="cls-1" x="32.7" y="24.07" width="25.55" height="0.69"/><rect class="cls-1" x="29.97" y="23.25" width="25.55" height="0.69" transform="translate(-3.7 8.55) rotate(-10.95)"/><rect class="cls-1" x="32.7" y="24.42" width="25.55" height="0.69" transform="translate(2.06 -3.46) rotate(4.46)"/><rect class="cls-1" x="31.52" y="23.25" width="25.55" height="0.69" transform="translate(7.44 -10.47) rotate(14.7)"/><rect class="cls-1" x="34.33" y="22.23" width="18.84" height="0.69" transform="translate(-5.47 21.67) rotate(-26.24)"/><rect class="cls-1" x="32" y="21.25" width="25.55" height="0.69" transform="translate(89.56 43.19) rotate(180)"/><rect class="cls-1" x="34.73" y="22.06" width="25.55" height="0.69" transform="translate(98.41 35.39) rotate(169.05)"/><rect class="cls-1" x="32" y="20.9" width="25.55" height="0.69" transform="translate(87.77 45.92) rotate(-175.54)"/><rect class="cls-1" x="33.19" y="22.06" width="25.55" height="0.69" transform="translate(84.73 55.75) rotate(-165.3)"/><rect class="cls-1" x="37.09" y="23.09" width="18.84" height="0.69" transform="translate(98.59 23.89) rotate(153.76)"/><rect class="cls-1" x="37.09" y="23.09" width="18.84" height="0.69" transform="translate(73.07 68.23) rotate(-147.4)"/><rect class="cls-2" x="3.77" y="35.15" width="47.84" height="47.84"/><polygon class="cls-2" points="51.61 35.15 3.77 35.15 51.61 9.53 51.61 35.15"/><polygon class="cls-3" points="46.63 30.85 21.42 30.85 46.63 17.35 46.63 30.85"/><polygon class="cls-1" points="55.38 7.64 0 37.16 0 32.01 55.38 2.49 55.38 7.64"/><rect class="cls-4" x="7.91" y="82.99" width="5.9" height="13.94"/><rect class="cls-4" x="40.06" y="82.99" width="5.9" height="13.94"/><polygon class="cls-4" points="93.8 96.93 51.61 67.8 51.61 62.02 93.8 91.15 93.8 96.93"/><rect class="cls-4" x="93.8" y="91.19" width="5.74" height="5.74"/><rect class="cls-4" x="79.96" y="81.64" width="5.74" height="5.74"/><rect class="cls-4" x="67.56" y="73.1" width="5.74" height="5.74"/><rect class="cls-4" x="53.59" y="63.4" width="5.74" height="5.74"/><rect class="cls-5" y="94.06" width="100" height="3.45"/><polygon class="cls-5" points="59.33 90.73 56.46 95.58 59.86 95.2 59.33 90.73"/><path class="cls-5" d="M46.63,95.2C46.55,95,43,91.1,43,91.1l.32,4.48Z"/><polygon class="cls-5" points="58.9 95.04 60.95 92.82 63.92 95.04 58.9 95.04"/><polygon class="cls-5" points="92.67 95.04 91.04 91.81 94.81 94.66 92.67 95.04"/><path class="cls-5" d="M93.64,95.29c.16-.45.54-3.27.54-3.27l1.55,3.27Z"/><polygon class="cls-5" points="84.22 92.82 83.55 95.29 85.18 94.87 84.22 92.82"/><path class="cls-5" d="M9.67,94.83c-.16-.13-2.93-6.57-2.93-6.57L7.08,95Z"/><path class="cls-5" d="M8.46,95.78c.17-.16,1.8-5,1.8-5l.6,4.85Z"/><rect class="cls-6" x="3.77" y="74.07" width="47.84" height="1.91"/><rect class="cls-6" x="3.77" y="64.37" width="47.84" height="1.91"/><rect class="cls-6" x="3.77" y="55.2" width="47.84" height="1.91"/><rect class="cls-6" x="3.77" y="45.41" width="47.84" height="1.91"/><rect class="cls-6" x="3.77" y="35.15" width="47.84" height="1.91"/><path class="cls-7" d="M94.13,60.32a1,1,0,0,0-.24,0,1.38,1.38,0,0,0-2.52.17,1,1,0,0,0-.24,0,1.09,1.09,0,1,0,.15,2.17,1.11,1.11,0,0,0,.8-.45,1.33,1.33,0,0,0,.69.13,1.27,1.27,0,0,0,.66-.22,1.09,1.09,0,1,0,.7-1.84Z"/><path class="cls-7" d="M96.64,66.71a.8.8,0,0,1-1.59,0c0-.44.36-2.38.79-2.38S96.64,66.27,96.64,66.71Z"/><path class="cls-8" d="M87.14,65.48c-.13.23-.26.44-.39.64l-.15.2c-.09.13-.18.26-.28.38l-.18.22c-.09.1-.17.2-.26.29l-.21.21a2.84,2.84,0,0,1-.26.24l-.23.2-.25.2-.26.18-.25.16-.27.16-.24.13-.29.14c-4.68,2.15-10.73-1-10.73-1s-.18,13.71,10.69,13.78h0c.38,0,.76,0,1.16,0,12.76-1,6.36-15.51,13-18.49C97.72,63.11,91.36,57.93,87.14,65.48Z"/><path class="cls-9" d="M97.72,63.11A9,9,0,0,0,95.84,62l.19,2.4A4.51,4.51,0,0,1,97.72,63.11Z"/><path class="cls-10" d="M87.14,70.23l0,.06,0,0-.11.13,0,.06-.22.23,0,0c-.1.1-.22.22-.35.33l0,0a2.89,2.89,0,0,1-.42.32l-.1.07a4.58,4.58,0,0,1-.49.31l-.11.06a8.16,8.16,0,0,1-1.55.63,12.81,12.81,0,0,1-6,.11s1.52,5,5.94,4.89v0l.15,0h.17c.28,0,.56-.07.86-.13h0a4.91,4.91,0,0,0,3.95-3.19C89.24,72.42,88.46,70.6,87.14,70.23Z"/><circle class="cls-11" cx="93.07" cy="63.18" r="0.43"/></svg>