<svg id="Layer_1" data-name="Layer 1" xmlns="http://www.w3.org/2000/svg" viewBox="0 0 100 100"><defs><style>.cls-1{fill:#cf76e2;}.cls-2{fill:#ad7771;}.cls-3{fill:#f2797a;}.cls-4{fill:#ffe5b1;}.cls-5{fill:#fff;}</style></defs><title>magic</title><circle class="cls-1" cx="59.78" cy="11.08" r="1.82"/><path class="cls-2" d="M3.31,100,0,96.66,51.9,46.4a1.19,1.19,0,0,1,1.66,0h0a1.19,1.19,0,0,1,0,1.66Z"/><polygon class="cls-3" points="58.05 46.94 59.11 37.12 51.62 30.69 61.28 28.66 65.08 19.55 70 28.11 79.83 28.92 73.21 36.24 75.49 45.84 66.48 41.8 58.05 46.94"/><polygon class="cls-4" points="60.63 42.33 61.34 35.82 56.37 31.55 62.78 30.2 65.3 24.16 68.56 29.84 75.09 30.37 70.69 35.23 72.2 41.6 66.23 38.92 60.63 42.33"/><polygon class="cls-5" points="62.93 38.23 63.32 34.66 60.59 32.32 64.11 31.58 65.49 28.26 67.28 31.38 70.86 31.67 68.45 34.34 69.28 37.83 66 36.36 62.93 38.23"/><polygon class="cls-1" points="86.92 51.49 87.47 46.34 83.55 42.96 88.62 41.9 90.61 37.12 93.19 41.61 98.36 42.03 94.88 45.88 96.08 50.92 91.35 48.8 86.92 51.49"/><polygon class="cls-4" points="27.72 44.88 28.17 40.71 24.99 37.98 29.09 37.12 30.71 33.25 32.8 36.88 36.98 37.23 34.17 40.34 35.13 44.42 31.31 42.7 27.72 44.88"/><circle class="cls-3" cx="78.72" cy="59.65" r="1.51"/><circle class="cls-4" cx="39.38" cy="6.86" r="2.4"/><circle class="cls-4" cx="98.73" cy="23.45" r="1.27"/><circle class="cls-3" cx="85.13" cy="18.97" r="1.59"/><polygon class="cls-4" points="73.86 6.86 74.64 3.76 72.37 1.52 75.36 2.33 77.71 0.03 76.93 3.12 79.2 5.36 76.1 4.58 73.86 6.86"/><polygon class="cls-3" points="53.76 64.96 54.53 61.87 52.27 59.63 55.26 60.44 57.6 58.14 56.82 61.23 59.09 63.47 56 62.69 53.76 64.96"/><polygon class="cls-1" points="37.84 26.89 41.68 25.23 42.19 21.08 43.74 24.83 48 25.42 44.17 27.09 43.66 31.24 41.99 27.4 37.84 26.89"/><path class="cls-4" d="M72,24.61s0-2.78,1.83-3.43S75.61,23.2,72,24.61Z"/><path class="cls-4" d="M77.76,37.12s2.62-.89,3.84.59S80.28,40,77.76,37.12Z"/><path class="cls-4" d="M67.08,45.38s1.84,2.07,1,3.77S65.38,48.85,67.08,45.38Z"/><path class="cls-4" d="M59,25.49s-2.44-1.32-2.19-3.22S59.45,21.65,59,25.49Z"/><path class="cls-4" d="M55.29,38.78s-1.55,2.3-3.41,1.87S51.5,38,55.29,38.78Z"/><circle class="cls-4" cx="71.67" cy="69.17" r="2.67"/></svg>