<svg id="Layer_1" data-name="Layer 1" xmlns="http://www.w3.org/2000/svg" viewBox="0 0 100 100"><defs><style>.cls-1{fill:#231f20;}.cls-2{fill:#fff;}.cls-3{fill:#7d7d7d;}.cls-4{fill:none;}.cls-5{fill:#f37d3b;}.cls-6{fill:#fcca98;}.cls-7{fill:#895e59;}.cls-8{fill:#f5853c;}.cls-9{fill:#5c5c5c;}.cls-10{fill:#ffc640;}.cls-11{fill:#c7552e;}.cls-12{fill:#ecf0f1;}.cls-13{fill:#069172;}.cls-14{fill:#3e545f;}.cls-15{fill:#56707d;}</style></defs><title>musician</title><rect class="cls-1" x="2" y="36.1" width="56.36" height="22.94" rx="3.14" ry="3.14" transform="translate(60.35 95.13) rotate(180)"/><rect class="cls-2" x="49.6" y="34.46" width="4.4" height="14.7" rx="1.08" ry="1.08" transform="translate(103.6 83.62) rotate(-180)"/><rect class="cls-2" x="45.2" y="34.46" width="4.4" height="14.7" rx="1.08" ry="1.08" transform="translate(94.8 83.62) rotate(180)"/><rect class="cls-2" x="40.8" y="34.46" width="4.4" height="14.7" rx="1.08" ry="1.08" transform="translate(85.99 83.62) rotate(180)"/><rect class="cls-2" x="36.39" y="34.46" width="4.4" height="14.7" rx="1.08" ry="1.08" transform="translate(77.19 83.62) rotate(-180)"/><rect class="cls-2" x="31.99" y="34.46" width="4.4" height="14.7" rx="1.08" ry="1.08" transform="translate(68.39 83.62) rotate(-180)"/><rect class="cls-2" x="27.59" y="34.46" width="4.4" height="14.7" rx="1.08" ry="1.08" transform="translate(59.59 83.62) rotate(-180)"/><rect class="cls-2" x="23.19" y="34.46" width="4.4" height="14.7" rx="1.08" ry="1.08" transform="translate(50.78 83.62) rotate(-180)"/><rect class="cls-2" x="18.79" y="34.46" width="4.4" height="14.7" rx="1.08" ry="1.08" transform="translate(41.98 83.62) rotate(180)"/><rect class="cls-2" x="14.39" y="34.46" width="4.4" height="14.7" rx="1.08" ry="1.08" transform="translate(33.18 83.62) rotate(180)"/><rect class="cls-2" x="9.99" y="34.46" width="4.4" height="14.7" rx="1.08" ry="1.08" transform="translate(24.37 83.62) rotate(180)"/><rect class="cls-2" x="5.58" y="34.46" width="4.4" height="14.7" rx="1.08" ry="1.08" transform="translate(15.57 83.62) rotate(-180)"/><rect class="cls-1" x="43.89" y="40.84" width="2.49" height="8.32" rx="0.61" ry="0.61" transform="translate(90.27 90) rotate(-180)"/><rect class="cls-1" x="13.14" y="40.84" width="2.49" height="8.32" rx="0.61" ry="0.61" transform="translate(28.78 90) rotate(-180)"/><rect class="cls-1" x="39.55" y="40.84" width="2.49" height="8.32" rx="0.61" ry="0.61" transform="translate(81.59 90) rotate(-180)"/><rect class="cls-1" x="8.74" y="40.84" width="2.49" height="8.32" rx="0.61" ry="0.61" transform="translate(19.97 90) rotate(180)"/><rect class="cls-1" x="30.75" y="40.84" width="2.49" height="8.32" rx="0.61" ry="0.61" transform="translate(63.99 90) rotate(-180)"/><rect class="cls-1" x="26.35" y="40.84" width="2.49" height="8.32" rx="0.61" ry="0.61" transform="translate(55.18 90) rotate(-180)"/><rect class="cls-1" x="21.94" y="40.84" width="2.49" height="8.32" rx="0.61" ry="0.61" transform="translate(46.38 90) rotate(-180)"/><path class="cls-3" d="M8.07,92c0-2,3.54-3.79,8.92-4.84a60.44,60.44,0,0,1,11.32-1,60.32,60.32,0,0,1,11.31,1C45,88.19,48.54,90,48.54,92v0h2.19v0c0-6.33-14.09-8-22.42-8S5.89,85.65,5.89,92v0H8.08S8.07,92,8.07,92Z"/><path class="cls-4" d="M46.1,94.76a17.84,17.84,0,0,1-3.49,1.34A17.84,17.84,0,0,0,46.1,94.76Z"/><path class="cls-4" d="M17,87.14C11.61,88.19,8.07,90,8.07,92h0C8.07,90,11.61,88.19,17,87.14Z"/><path class="cls-4" d="M14,96.1a53.8,53.8,0,0,0,14.31,1.71,53.77,53.77,0,0,0,14.3-1.71,53.77,53.77,0,0,1-14.3,1.71A53.8,53.8,0,0,1,14,96.1Z"/><path class="cls-4" d="M14,96.1a17.73,17.73,0,0,1-3.48-1.34A17.73,17.73,0,0,0,14,96.1Z"/><path class="cls-4" d="M39.62,87.14C45,88.19,48.54,90,48.54,92h0C48.54,90,45,88.19,39.62,87.14Z"/><path class="cls-5" d="M39.62,87.14a60.32,60.32,0,0,0-11.31-1,60.44,60.44,0,0,0-11.32,1C11.61,88.19,8.07,90,8.07,92a2.05,2.05,0,0,0,.41,1.17,4.28,4.28,0,0,0,.5.56,7.12,7.12,0,0,0,1.54,1.05A17.73,17.73,0,0,0,14,96.1a53.8,53.8,0,0,0,14.31,1.71,53.77,53.77,0,0,0,14.3-1.71,17.84,17.84,0,0,0,3.49-1.34,7,7,0,0,0,1.53-1.05,3.2,3.2,0,0,0,.5-.56A2,2,0,0,0,48.54,92C48.54,90,45,88.19,39.62,87.14Z"/><path class="cls-5" d="M48.54,92h0a2,2,0,0,1-.41,1.17A2,2,0,0,0,48.54,92Z"/><path class="cls-5" d="M47.63,93.71a7,7,0,0,1-1.53,1.05A7,7,0,0,0,47.63,93.71Z"/><path class="cls-5" d="M8.07,92a2.05,2.05,0,0,0,.41,1.17A2.05,2.05,0,0,1,8.07,92Z"/><path class="cls-5" d="M10.52,94.76A7.12,7.12,0,0,1,9,93.71,7.12,7.12,0,0,0,10.52,94.76Z"/><rect class="cls-5" x="8.07" y="73.18" width="40.47" height="18.8"/><rect class="cls-3" x="48.54" y="73.18" width="2.19" height="18.8"/><rect class="cls-3" x="42.18" y="78.52" width="2.19" height="18.8"/><rect class="cls-3" x="33.5" y="79.93" width="2.19" height="18.8"/><rect class="cls-3" x="12.59" y="78.52" width="2.19" height="18.8" transform="translate(27.36 175.85) rotate(-180)"/><rect class="cls-3" x="21.27" y="79.93" width="2.19" height="18.8" transform="translate(44.72 178.65) rotate(-180)"/><rect class="cls-3" x="5.89" y="73.18" width="2.19" height="18.8"/><ellipse class="cls-6" cx="28.31" cy="73.18" rx="20.23" ry="5.83"/><path class="cls-3" d="M28.31,67.35c11.17,0,20.23,2.61,20.23,5.83S39.48,79,28.31,79,8.07,76.4,8.07,73.18s9.06-5.83,20.24-5.83m0-2.19c-8.33,0-22.42,1.69-22.42,8s14.09,8,22.42,8,22.42-1.69,22.42-8-14.09-8-22.42-8Z"/><path class="cls-3" d="M48.54,92a2.07,2.07,0,0,1-.41,1.15,3.2,3.2,0,0,1-.5.56,7,7,0,0,1-1.53,1.05,17.84,17.84,0,0,1-3.49,1.34,53.77,53.77,0,0,1-14.3,1.71A53.8,53.8,0,0,1,14,96.1a17.73,17.73,0,0,1-3.48-1.34A7.12,7.12,0,0,1,9,93.71a4.28,4.28,0,0,1-.5-.56A2,2,0,0,1,8.08,92H5.89c0,6.31,14.1,8,22.42,8s22.38-1.69,22.42-8Z"/><circle class="cls-3" cx="13.68" cy="80.67" r="2.77"/><circle class="cls-3" cx="13.68" cy="94.76" r="2.77"/><circle class="cls-3" cx="22.36" cy="82.28" r="2.77"/><circle class="cls-3" cx="22.36" cy="96.37" r="2.77"/><circle class="cls-3" cx="34.6" cy="82.28" r="2.77"/><circle class="cls-3" cx="34.6" cy="96.37" r="2.77"/><circle class="cls-3" cx="43.28" cy="80.93" r="2.77"/><circle class="cls-3" cx="43.28" cy="95.03" r="2.77"/><rect class="cls-7" x="5.84" y="71.58" width="25.87" height="2.64" rx="0.59" ry="0.59"/><ellipse class="cls-7" cx="32.66" cy="72.9" rx="4.4" ry="2.28"/><rect class="cls-7" x="2.13" y="67.34" width="23.48" height="2.4" rx="0.53" ry="0.53"/><ellipse class="cls-7" cx="26.46" cy="68.54" rx="3.99" ry="2.07"/><path class="cls-8" d="M74.86,47.16c-3.24.33-6.48.66-8.68,2.3a8.31,8.31,0,0,0-3.08,7.27c.27,2.66,2,5,2.24,7.22s-.87,4.23-2.58,7.15-4,6.75-4.32,11.43,1.2,10.19,4.81,13.23c6.32,5.34,23.58,5.34,29.9,0,3.61-3,5.16-8.57,4.8-13.24S95.34,74,93.63,71.1,90.78,66.15,91.06,64s2-4.56,2.24-7.22a8.3,8.3,0,0,0-3.09-7.27c-2.13-1.59-5.25-2-8.4-2.28l-7,0Zm0,0"/><path class="cls-9" d="M81.23,15.08H75.17l-.82,32.08,7.7,0Zm0,0"/><path class="cls-10" d="M86.53,80.36H69.87v3H86.53Zm0,0"/><path class="cls-11" d="M81.23,15.08H75.17l-2-4.82H83.28Zm0,0"/><path class="cls-8" d="M83.28,0H73.12V10.26H83.28Zm0,0"/><path class="cls-11" d="M78.2,58.3A6.79,6.79,0,1,0,85,65.09,6.79,6.79,0,0,0,78.2,58.3Zm0,0"/><path class="cls-10" d="M84,83.38H72.36v2.06H84Zm0,0"/><path class="cls-2" d="M84,83.38H72.36v-.59a.59.59,0,0,1,.59-.6h10.5a.59.59,0,0,1,.59.6Zm0,0"/><path class="cls-2" d="M81.34,82.4l-.91-67.33h-.69l.91,67.33Zm-5.59,0h-.69L76,15.07h.69Zm1.85-.21h-.69l.32-67.11h.69Zm1.89,0H78.8l-.32-67.12h.69Zm0,0"/><path class="cls-12" d="M84.63,1.86H71.51v.88H84.63Zm0,0"/><path class="cls-13" d="M84.93,1.41h-.69a.22.22,0,0,0-.23.22V2.91a.22.22,0,0,0,.23.22h.69a.22.22,0,0,0,.22-.22V1.63a.22.22,0,0,0-.22-.22Zm0,0"/><path class="cls-13" d="M71.9,1.41h-.69a.22.22,0,0,0-.22.22V2.91a.22.22,0,0,0,.22.22h.69a.22.22,0,0,0,.23-.22V1.63a.22.22,0,0,0-.23-.22Zm0,0"/><path class="cls-12" d="M84.63,5H71.51v.88H84.63Zm0,0"/><path class="cls-13" d="M84.93,4.59h-.69a.23.23,0,0,0-.23.23V6.09a.23.23,0,0,0,.23.23h.69a.22.22,0,0,0,.22-.22V4.82a.22.22,0,0,0-.22-.23Zm0,0"/><path class="cls-13" d="M71.91,4.59h-.7a.22.22,0,0,0-.22.22V6.09a.22.22,0,0,0,.22.22h.69a.23.23,0,0,0,.23-.23V4.81a.22.22,0,0,0-.22-.22Zm0,0"/><path class="cls-12" d="M84.63,8.23H71.51v.88H84.63Zm0,0"/><path class="cls-13" d="M84.93,7.78h-.69A.23.23,0,0,0,84,8V9.28a.22.22,0,0,0,.23.22h.69a.22.22,0,0,0,.22-.22V8a.22.22,0,0,0-.22-.22Zm0,0"/><path class="cls-13" d="M71.9,7.78h-.69A.22.22,0,0,0,71,8V9.28a.22.22,0,0,0,.22.22h.69a.23.23,0,0,0,.23-.23V8a.22.22,0,0,0-.23-.22Zm0,0"/><path class="cls-10" d="M81,1.13a1.06,1.06,0,1,0,1.06,1.06A1.06,1.06,0,0,0,81,1.13Zm0,0"/><path class="cls-10" d="M75.57,1.13a1.06,1.06,0,1,0,1.06,1.06,1.07,1.07,0,0,0-1.06-1.06Zm0,0"/><path class="cls-10" d="M81,4.31a1.07,1.07,0,1,0,1.06,1.07A1.06,1.06,0,0,0,81,4.31Zm0,0"/><path class="cls-10" d="M75.57,4.31a1.07,1.07,0,0,0,0,2.13,1.07,1.07,0,0,0,0-2.13Zm0,0"/><path class="cls-10" d="M81,7.5a1.06,1.06,0,1,0,1.06,1.06A1.05,1.05,0,0,0,81,7.5Zm0,0"/><path class="cls-10" d="M75.57,7.58a1.06,1.06,0,0,0,0,2.12,1.06,1.06,0,1,0,0-2.12Zm0,0"/><ellipse class="cls-14" cx="25.13" cy="22" rx="21.79" ry="2.63" transform="translate(-5.25 8.12) rotate(-16.65)"/><path class="cls-14" d="M23.57,4.76a5.4,5.4,0,0,0-1.78,1A3.89,3.89,0,0,1,19,6.56a5,5,0,0,0-2,.18C11.5,8.37,10,19.48,11.62,25l6.59-2L31.45,19l6.6-2C36.41,11.58,29.05,3.13,23.57,4.76Z"/><path class="cls-15" d="M11.35,23.94c2.57-.43,6.66.34,26.38-7.89"/><path class="cls-15" d="M22.2,23A42.12,42.12,0,0,1,12.74,25c-.46,0-.85.07-1.2.13l-.38-2.29c.41-.06.85-.1,1.38-.15,2.83-.25,8.11-.71,24.75-7.66l.89,2.14A166.54,166.54,0,0,1,22.2,23Z"/></svg>