<svg id="Layer_1" data-name="Layer 1" xmlns="http://www.w3.org/2000/svg" viewBox="0 0 100 100"><defs><style>.cls-1{fill:#ffefd0;}.cls-2{fill:#ffc640;}.cls-3{fill:#ffe5b1;}.cls-4{fill:#ffdb91;}.cls-5{fill:#86aabc;}.cls-6{fill:#56707d;}</style></defs><title>spotlight</title><polygon class="cls-1" points="67.31 95.32 32.78 95.32 16.75 5.87 67.31 95.32"/><ellipse class="cls-2" cx="50.05" cy="95.32" rx="17.27" ry="4.68"/><polygon class="cls-3" points="32.78 95.32 67.31 95.32 83.35 5.87 32.78 95.32"/><polygon class="cls-4" points="32.78 95.32 67.31 95.32 50.05 64.78 32.78 95.32"/><ellipse class="cls-2" cx="50.05" cy="95.32" rx="17.27" ry="4.68"/><rect class="cls-5" x="14.12" y="4.57" width="6.52" height="8.74" transform="translate(-2.1 7.4) rotate(-22.69)"/><rect class="cls-5" x="79.35" y="4.7" width="6.52" height="8.74" transform="translate(155.34 49.3) rotate(-157.31)"/><path class="cls-6" d="M15.73,0h2.08a0,0,0,0,1,0,0V7.28a1,1,0,0,1-1,1h0a1,1,0,0,1-1-1V0A0,0,0,0,1,15.73,0Z"/><path class="cls-6" d="M82.31,0h2.08a0,0,0,0,1,0,0V7.28a1,1,0,0,1-1,1h0a1,1,0,0,1-1-1V0a0,0,0,0,1,0,0Z"/></svg>