<svg id="Layer_1" data-name="Layer 1" xmlns="http://www.w3.org/2000/svg" viewBox="0 0 100 100"><defs><style>.cls-1{fill:#f9a63f;}.cls-2{fill:#ffc640;}.cls-3{fill:#f37d3b;}.cls-4{fill:#6ab8d9;}.cls-5{fill:#ffc63f;}.cls-6{fill:#fff;}.cls-7{fill:#09a582;}.cls-8{fill:#faab3f;}.cls-9{fill:#a45423;}</style></defs><title>skier</title><path class="cls-1" d="M54.8,28.3A3.39,3.39,0,0,1,53.32,28h0c-.09,0-8.53-3.95-17.64-2.15A3.48,3.48,0,1,1,34.34,19c11.42-2.25,21.54,2.49,22,2.69a3.47,3.47,0,0,1-1.5,6.61Z"/><path class="cls-2" d="M55.81,28.3a3.38,3.38,0,0,1-1.65-.42c-5.19-2.81-6.08-7.74-6.61-10.69-.08-.42-.17-.94-.27-1.34a3.48,3.48,0,0,1,1.06-6.79c4.8,0,5.64,4.66,6,6.89.51,2.86,1,4.69,3.08,5.83a3.47,3.47,0,0,1-1.66,6.52ZM48.34,16h0Z"/><rect class="cls-3" y="5.7" width="3.68" height="15.38" rx="1.84" ry="1.84"/><path d="M38.35,2.74H13.05a7.6,7.6,0,0,0-7.58,7.58v9.8a7.61,7.61,0,0,0,7.58,7.59h4.62l7.83-7.83,7.83,7.83h5a7.61,7.61,0,0,0,7.58-7.59v-9.8A7.6,7.6,0,0,0,38.35,2.74Z"/><path class="cls-4" d="M38.35,29.28h-5a1.57,1.57,0,0,1-1.12-.46L25.5,22.11l-6.71,6.71a1.57,1.57,0,0,1-1.12.46H13.05a9.17,9.17,0,0,1-9.16-9.16v-9.8a9.17,9.17,0,0,1,9.16-9.16h25.3a9.17,9.17,0,0,1,9.16,9.16v9.8A9.17,9.17,0,0,1,38.35,29.28ZM34,26.13h4.37a6,6,0,0,0,6-6v-9.8a6,6,0,0,0-6-6H13.05a6,6,0,0,0-6,6v9.8a6,6,0,0,0,6,6h4l7.36-7.37a1.58,1.58,0,0,1,2.24,0Z"/><path class="cls-4" d="M39.39,2.74H14.09a7.6,7.6,0,0,0-7.58,7.58v9.8a7.61,7.61,0,0,0,7.58,7.59h4.63l7.82-7.83,7.83,7.83h5A7.61,7.61,0,0,0,47,20.12v-9.8A7.6,7.6,0,0,0,39.39,2.74Z"/><path class="cls-4" d="M39.39,29.28h-5a1.57,1.57,0,0,1-1.12-.46l-6.71-6.71-6.7,6.71a1.57,1.57,0,0,1-1.12.46H14.09a9.17,9.17,0,0,1-9.16-9.16v-9.8a9.17,9.17,0,0,1,9.16-9.16h25.3a9.17,9.17,0,0,1,9.16,9.16v9.8A9.17,9.17,0,0,1,39.39,29.28ZM35,26.13h4.37a6,6,0,0,0,6-6v-9.8a6,6,0,0,0-6-6H14.09a6,6,0,0,0-6,6v9.8a6,6,0,0,0,6,6h4l7.37-7.37a1.57,1.57,0,0,1,2.23,0Z"/><path class="cls-5" d="M35.54,2.74H10.24A7.6,7.6,0,0,0,2.77,9.05H43A7.6,7.6,0,0,0,35.54,2.74Z"/><path class="cls-6" d="M43.12,10.32A7.59,7.59,0,0,0,43,9.05H2.77a7.59,7.59,0,0,0-.11,1.27v1.33H43.12Z"/><rect class="cls-3" x="2.66" y="11.65" width="40.46" height="3.47"/><path class="cls-7" d="M2.66,15.13v5a7.61,7.61,0,0,0,7.58,7.59h4.62l7.83-7.83,7.82,7.83h5a7.62,7.62,0,0,0,7.58-7.59v-5Z"/><path class="cls-4" d="M35.54,29.28h-5a1.55,1.55,0,0,1-1.11-.46l-6.71-6.71L16,28.82a1.57,1.57,0,0,1-1.12.46H10.24a9.17,9.17,0,0,1-9.16-9.16v-9.8a9.17,9.17,0,0,1,9.16-9.16h25.3a9.17,9.17,0,0,1,9.16,9.16v9.8A9.17,9.17,0,0,1,35.54,29.28Zm-4.37-3.15h4.37a6,6,0,0,0,6-6v-9.8a6,6,0,0,0-6-6H10.24a6,6,0,0,0-6,6v9.8a6,6,0,0,0,6,6h4l7.36-7.37a1.62,1.62,0,0,1,1.12-.46h0a1.62,1.62,0,0,1,1.12.46Z"/><rect class="cls-3" x="45.43" y="5.7" width="3.68" height="15.38" rx="1.84" ry="1.84"/><path class="cls-8" d="M54.81,26.15a.66.66,0,0,1-.35-.11,10.46,10.46,0,0,1-5-7.94.63.63,0,0,1,.62-.64h0a.63.63,0,0,1,.64.61A9.16,9.16,0,0,0,55.15,25a.62.62,0,0,1,.18.87A.64.64,0,0,1,54.81,26.15Z"/><path class="cls-3" d="M71.93,5.07h4.56a4.56,4.56,0,0,1,4.56,4.56V97.71a0,0,0,0,1,0,0H67.37a0,0,0,0,1,0,0V9.64A4.56,4.56,0,0,1,71.93,5.07Z"/><path class="cls-3" d="M90.88,5.07h4.56A4.56,4.56,0,0,1,100,9.64V97.71a0,0,0,0,1,0,0H86.32a0,0,0,0,1,0,0V9.64A4.56,4.56,0,0,1,90.88,5.07Z"/><rect class="cls-4" x="24.7" y="42.92" width="3.16" height="64.21" transform="translate(-45.35 40.55) rotate(-45)"/><rect class="cls-9" x="41.27" y="93.69" width="9.47" height="2.11" transform="translate(-53.52 60.28) rotate(-45)"/><rect class="cls-2" x="3.92" y="48.98" width="5.26" height="12.63" rx="0.98" ry="0.98" transform="translate(-37.18 20.83) rotate(-45)"/><rect class="cls-4" x="33.63" y="33.98" width="3.16" height="64.21" transform="translate(-36.42 44.25) rotate(-45)"/><rect class="cls-9" x="50.2" y="84.76" width="9.47" height="2.11" transform="translate(-44.59 63.98) rotate(-45)"/><rect class="cls-2" x="12.85" y="40.05" width="5.26" height="12.63" rx="0.98" ry="0.98" transform="translate(-28.25 24.53) rotate(-45)"/></svg>