<svg id="Layer_1" data-name="Layer 1" xmlns="http://www.w3.org/2000/svg" xmlns:xlink="http://www.w3.org/1999/xlink" viewBox="0 0 100 100"><defs><style>.cls-1{fill:none;}.cls-2{fill:#f5bebd;}.cls-3{clip-path:url(#clip-path);}.cls-4{fill:#ebb1b2;}</style><clipPath id="clip-path"><path class="cls-1" d="M100,50A50,50,0,1,1,50,0a50,50,0,0,1,50,50Zm0,0"/></clipPath></defs><title>venus</title><path class="cls-2" d="M100,50A50,50,0,1,1,50,0a50,50,0,0,1,50,50Zm0,0"/><g class="cls-3"><path class="cls-4" d="M-7.5,72.83S4.67,72,11.83,69s31.84-7.17,43-5.67,25.5,4.5,27.84,7-4.18,6-7.18,6.67S67,75.83,63.67,77s-11.34,6-22,9.83S28.33,95,14.33,94.17-7.5,72.83-7.5,72.83Z"/><path class="cls-4" d="M100.47,26.33S73.3,25,63.3,30.52,50,39,43.3,40.83s-11.16,4.34-9.83,5.84,20.67,5.83,27,4.5,18.45-9.84,31.06-5.67,20.27,4.17,22.94,2.17S100.47,26.33,100.47,26.33Z"/><path class="cls-4" d="M5.29,13.5c4.33,1,14.83,6.9,24.16,6.7s24.34-1.66,30-3.35-4.17-5-7.17-5.92-16.14,1.57-19.9,1.4S20.62,7.5,16.12,6.67,5.29,13.5,5.29,13.5Z"/><circle class="cls-4" cx="19.13" cy="33.79" r="1.63"/><circle class="cls-4" cx="77.43" cy="16.6" r="1.93"/><circle class="cls-4" cx="79.03" cy="58.54" r="2.04"/><circle class="cls-4" cx="57.58" cy="92.42" r="2.75"/></g></svg>