<svg id="Layer_1" data-name="Layer 1" xmlns="http://www.w3.org/2000/svg" viewBox="0 0 100 100"><defs><style>.cls-1{fill:#deae38;}.cls-2{fill:#e2b13a;}.cls-3{fill:#ffc63f;}.cls-4{fill:#ffdb91;}</style></defs><title>bell</title><circle class="cls-1" cx="50" cy="90.73" r="9.27"/><path class="cls-2" d="M50,4a5.27,5.27,0,1,1-5.26,5.27A5.27,5.27,0,0,1,50,4m0-4a9.27,9.27,0,1,0,9.27,9.27A9.27,9.27,0,0,0,50,0Z"/><path class="cls-3" d="M50,9.27h0A32.79,32.79,0,0,1,82.79,42.06V91.34a0,0,0,0,1,0,0H17.21a0,0,0,0,1,0,0V42.06A32.79,32.79,0,0,1,50,9.27Z"/><rect class="cls-4" x="14.32" y="85.92" width="71.36" height="5.42" rx="2.23" ry="2.23"/><ellipse class="cls-4" cx="33.51" cy="27.02" rx="11.1" ry="7.27" transform="translate(-7.87 38.87) rotate(-54.86)"/></svg>