<svg id="Layer_1" data-name="Layer 1" xmlns="http://www.w3.org/2000/svg" viewBox="0 0 100 100"><defs><style>.cls-1{fill:#e0e0e0;}.cls-2{fill:#bf4141;}.cls-3{fill:#ff5757;}</style></defs><title>katana</title><path class="cls-1" d="M25.92,76.91l-5.48-5.48L82.67,9.19C87.51,4.36,94.07,2,100,2.83h0Z"/><path class="cls-2" d="M6.86,72.58h9.38a0,0,0,0,1,0,0V96.33A2.68,2.68,0,0,1,13.57,99h-4a2.68,2.68,0,0,1-2.68-2.68V72.58a0,0,0,0,1,0,0Z" transform="translate(64.05 16.96) rotate(45)"/><rect class="cls-3" x="14.51" y="73.51" width="14.15" height="4.52" transform="translate(59.9 6.93) rotate(45)"/><polygon class="cls-3" points="17.2 86.78 8.95 81.77 11.38 79.33 19.64 84.34 17.2 86.78"/><polygon class="cls-3" points="11.42 92.57 3.16 87.56 5.59 85.12 13.85 90.13 11.42 92.57"/></svg>