<svg id="Layer_1" data-name="Layer 1" xmlns="http://www.w3.org/2000/svg" viewBox="0 0 100 100"><defs><style>.cls-1{fill:#069274;}.cls-2{fill:#ffc640;}.cls-3{fill:#231f20;}</style></defs><title>fish</title><line class="cls-1" x1="100" y1="62.83" x2="100" y2="63.33"/><line class="cls-1" x1="100" y1="48.96" x2="100" y2="49.45"/><line class="cls-1" x1="100" y1="55.9" x2="100" y2="56.39"/><path class="cls-1" d="M94,39.28,77.82,53.35a3.61,3.61,0,0,0,0,5.47L94,72.89a3.63,3.63,0,0,0,6-2.74v-.37a3.29,3.29,0,0,1,0-6.45v-.5a3.28,3.28,0,0,1,0-6.44V55.9a3.29,3.29,0,0,1,0-6.45V49a3.29,3.29,0,0,1,0-6.45V42A3.63,3.63,0,0,0,94,39.28Z"/><line class="cls-1" x1="57.99" y1="32.33" x2="57.99" y2="32.82"/><line class="cls-1" x1="57.99" y1="18.45" x2="57.99" y2="18.95"/><line class="cls-1" x1="57.99" y1="25.39" x2="57.99" y2="25.88"/><path class="cls-1" d="M52,8.78,35.8,22.84a3.64,3.64,0,0,0,0,5.48L52,42.38a3.63,3.63,0,0,0,6-2.73v-.38a3.29,3.29,0,0,1,0-6.45v-.49a3.29,3.29,0,0,1,0-6.45v-.49a3.46,3.46,0,0,1-2.65-3.22A3.45,3.45,0,0,1,58,19v-.5a3.46,3.46,0,0,1-2.65-3.22A3.46,3.46,0,0,1,58,12v-.49A3.63,3.63,0,0,0,52,8.78Z"/><circle class="cls-2" cx="46.27" cy="56.09" r="36.04"/><circle class="cls-3" cx="34.73" cy="49.45" r="2.9"/><rect class="cls-2" y="54.79" width="17.4" height="8.13" rx="1.98" ry="1.98"/><rect class="cls-2" y="62.92" width="17.4" height="8.13" rx="1.98" ry="1.98"/><rect class="cls-1" x="46.27" y="64.29" width="19.09" height="14.27" rx="3.48" ry="3.48"/><circle class="cls-1" cx="29.78" cy="55.93" r="1.52"/><circle class="cls-1" cx="34.73" cy="55.93" r="1.52"/><circle class="cls-1" cx="39.69" cy="55.93" r="1.52"/><path class="cls-1" d="M67,26.68l.09-.13a35.88,35.88,0,0,0-7.94-4.14l-7,10.34Z"/><path class="cls-1" d="M67.13,26.61l-.16.07L59.68,37.39,73,31.94A36.52,36.52,0,0,0,67.13,26.61Z"/><path class="cls-1" d="M67.28,42l10.11-4.12a35.93,35.93,0,0,0-3.75-5.24Z"/></svg>