<svg id="Layer_1" data-name="Layer 1" xmlns="http://www.w3.org/2000/svg" viewBox="0 0 100 100"><defs><style>.cls-1{fill:#9b7f60;}.cls-2{fill:#aa8a69;}</style></defs><title>potato</title><path class="cls-1" d="M79.49,7.68c-4.86-6-13.33-9.85-20.21-6.35-5.84,3-11.36,12.53-17.62,15.58-9.43,4.58-16.51,8.88-23.22,18.31-8.32,11.69-10.1,24-8.68,32.32s6.06,26.07,18.8,30.65c15.55,5.6,39.12-2.91,45.34-10.27C77.24,84,90.18,62.49,90.65,51s-4.48-30-7.27-36.81A28.15,28.15,0,0,0,79.49,7.68Z"/><circle class="cls-2" cx="58.25" cy="13.63" r="4.03"/><circle class="cls-2" cx="78.49" cy="52.85" r="5.21"/><circle class="cls-2" cx="39.38" cy="81.21" r="10.19"/><circle class="cls-2" cx="32.75" cy="49.46" r="2.65"/></svg>