<svg id="Layer_1" data-name="Layer 1" xmlns="http://www.w3.org/2000/svg" viewBox="0 0 100 100"><defs><style>.cls-1{fill:#09a582;}.cls-2{fill:#028a6d;}.cls-3{fill:#895e59;}.cls-4{fill:#7b544f;}.cls-5{fill:#007359;}.cls-6{fill:#4e322e;}.cls-7{fill:#3ab599;}.cls-8{fill:#f5bebd;}.cls-9{fill:#ffe5b1;}.cls-10{fill:#f89c3e;}.cls-11{fill:#946660;}</style></defs><title>park</title><rect class="cls-1" x="28.82" y="45.06" width="71.18" height="15.74" rx="3.95" ry="3.95"/><polyline class="cls-1" points="69.09 87.13 97.54 58.68 97.54 48.92 95.81 46.44 51.73 67.84"/><path class="cls-1" d="M31.18,47.32,3,75.62H68.14L97,46.75h-.07a7.79,7.79,0,0,0-4.81-1.69H36.69a7.77,7.77,0,0,0-3.61.92"/><path class="cls-2" d="M63.31,73.94H7.87a7.87,7.87,0,0,0,0,15.74H63.31a7.87,7.87,0,0,0,0-15.74Z"/><polygon class="cls-3" points="87.96 55.8 22.75 55.8 17.46 61.11 82.65 61.11 86.87 56.9 87.96 55.8"/><path class="cls-1" d="M86.87,56.9,88,55.8H81.84a7.76,7.76,0,0,1,4.6,1.52Z"/><path class="cls-3" d="M83.66,55.8H76.54l-7.76,3.76h9.13a7.9,7.9,0,0,1,7.87,7.87,7.73,7.73,0,0,1-1.13,4l.15,0,6.61-6.61a7.23,7.23,0,0,0,.12-1.14A7.9,7.9,0,0,0,83.66,55.8Z"/><polygon class="cls-1" points="79.94 58.77 77.25 61.16 74.55 58.77 71.86 61.16 69.16 58.77 66.46 61.16 63.77 58.77 61.07 61.16 58.38 58.77 55.68 61.16 52.98 58.77 50.29 61.16 47.59 58.77 44.9 61.16 42.2 58.77 39.5 61.16 36.81 58.77 34.11 61.16 31.42 58.77 28.72 61.16 26.02 58.77 23.33 61.16 20.63 58.77 17.94 61.16 17.94 61.91 82.64 61.91 82.64 61.16 79.94 58.77"/><ellipse class="cls-4" cx="25.53" cy="57.68" rx="1.06" ry="0.36"/><ellipse class="cls-4" cx="33.16" cy="57.03" rx="1.52" ry="0.47"/><path class="cls-4" d="M39.14,58.69c0,.25-.29.44-.64.44s-.64-.19-.64-.44.29-.43.64-.43S39.14,58.45,39.14,58.69Z"/><ellipse class="cls-4" cx="45.53" cy="57.65" rx="1.15" ry="0.61"/><ellipse class="cls-4" cx="55.8" cy="58.9" rx="0.96" ry="0.44"/><path class="cls-4" d="M62.26,57.12c0,.31-.57.56-1.27.56s-1.27-.25-1.27-.56.57-.56,1.27-.56S62.26,56.81,62.26,57.12Z"/><ellipse class="cls-4" cx="67.59" cy="58.79" rx="0.83" ry="0.34"/><ellipse class="cls-4" cx="73.34" cy="57.01" rx="1.29" ry="0.63"/><ellipse class="cls-4" cx="82.13" cy="58.47" rx="1.3" ry="0.42"/><path class="cls-5" d="M77.89,43.26c0-2.74-1.41-5.25-4.15-5.25h-.22c-.43-2.23-1.73-4.32-3.92-4.32-2.57,0-5.88,2-6.26,4.48A5.18,5.18,0,0,0,62.08,38c-2.74,0-4.14,2.51-4.14,5.25a5,5,0,0,0,4.78,5H73.1A5,5,0,0,0,77.89,43.26Z"/><path class="cls-5" d="M70.89,43.26c0-2.74-1.41-5.25-4.15-5.25h-.22c-.43-2.23-1.73-4.32-3.92-4.32-2.57,0-5.88,2-6.26,4.48A5.18,5.18,0,0,0,55.08,38c-2.74,0-4.14,2.51-4.14,5.25a5,5,0,0,0,4.78,5H66.1A5,5,0,0,0,70.89,43.26Z"/><path class="cls-5" d="M56.33,44.11c0-2-1-3.94-3.1-3.94h-.17c-.33-1.68-1.3-3.24-2.94-3.24-1.93,0-4.41,1.47-4.7,3.36a4.09,4.09,0,0,0-1-.13c-2,0-3.1,1.89-3.1,3.94A3.72,3.72,0,0,0,45,47.83h7.8A3.72,3.72,0,0,0,56.33,44.11Z"/><path class="cls-5" d="M84.78,44.44c0-2.06-1-3.94-3.11-3.94h-.16c-.33-1.67-1.3-3.24-2.94-3.24-1.94,0-4.42,1.48-4.7,3.36a4.05,4.05,0,0,0-1-.12c-2,0-3.11,1.88-3.11,3.94a3.73,3.73,0,0,0,3.59,3.72h7.79A3.72,3.72,0,0,0,84.78,44.44Z"/><path class="cls-5" d="M48,43c0-2.67-1.37-5.12-4-5.12h-.21c-.42-2.18-1.69-4.21-3.82-4.21-2.51,0-5.73,1.91-6.1,4.36a5.4,5.4,0,0,0-1.23-.16c-2.66,0-4,2.45-4,5.12a4.82,4.82,0,0,0,4.66,4.82H43.33A4.82,4.82,0,0,0,48,43Z"/><path class="cls-5" d="M97,43.09c0-2.77-1.42-5.31-4.2-5.31h-.22c-.44-2.27-1.75-4.38-4-4.38-2.61,0-6,2-6.34,4.54A5.3,5.3,0,0,0,81,37.78c-2.77,0-4.19,2.54-4.19,5.31a5,5,0,0,0,4.84,5H92.16A5,5,0,0,0,97,43.09Z"/><circle class="cls-1" cx="62.66" cy="35.44" r="0.7"/><circle class="cls-5" cx="58.61" cy="38.85" r="0.67"/><circle class="cls-1" cx="64.76" cy="39.52" r="1.05"/><circle class="cls-1" cx="70.87" cy="36.56" r="0.7"/><circle class="cls-5" cx="74.78" cy="40" r="1.05"/><rect class="cls-6" x="79.45" y="43.42" width="2.76" height="11.03"/><path class="cls-7" d="M71.18,36.52a9.65,9.65,0,0,0,19.3,0c0-12.41-4.32-26.2-9.65-26.2S71.18,24.11,71.18,36.52Z"/><path class="cls-5" d="M74.37,36.5a1,1,0,1,0,1.69-1.2c-.76-1.09-2-2-2.46-1.7S73.6,35.41,74.37,36.5Z"/><path class="cls-5" d="M76.06,26.59A1,1,0,0,0,76.27,28a1,1,0,0,0,1.45-.21c.79-1.06,1.31-2.53.85-2.87S76.86,25.53,76.06,26.59Z"/><path class="cls-5" d="M79,17.53a1,1,0,0,0,1.9-.83c-.54-1.22-1.56-2.39-2.08-2.16S78.44,16.31,79,17.53Z"/><path class="cls-5" d="M81.41,41.63a1,1,0,0,0,1.69,1.19c.77-1.09,1.24-2.56.77-2.89S82.17,40.54,81.41,41.63Z"/><path class="cls-5" d="M85.09,33a1,1,0,0,0,1.42.36A1,1,0,0,0,86.87,32c-.67-1.15-1.82-2.19-2.31-1.9S84.41,31.88,85.09,33Z"/><path class="cls-5" d="M83.58,23.83a1,1,0,1,0,1.85.93c.6-1.18.86-2.71.35-3S84.19,22.64,83.58,23.83Z"/><circle class="cls-1" cx="40.58" cy="36.47" r="1.03"/><path class="cls-1" d="M33.86,42a1,1,0,1,1-1-1A1,1,0,0,1,33.86,42Z"/><circle class="cls-1" cx="40.71" cy="41.23" r="0.66"/><circle class="cls-1" cx="49.82" cy="40.83" r="0.97"/><path class="cls-1" d="M70.6,42.64a.62.62,0,0,1-.62.62A.62.62,0,1,1,70,42,.62.62,0,0,1,70.6,42.64Z"/><circle class="cls-1" cx="59.18" cy="39.13" r="0.87"/><circle class="cls-1" cx="92.87" cy="43.21" r="0.82"/><circle class="cls-1" cx="93.06" cy="40.16" r="0.63"/><path class="cls-1" d="M45.3,44.23a.53.53,0,0,1-.53.53.54.54,0,1,1,.53-.53Z"/><polygon class="cls-1" points="34.68 48.59 35.59 45.88 37.87 48.59 34.68 48.59"/><polygon class="cls-1" points="39.55 48.59 41.62 46.69 41.99 48.21 39.55 48.59"/><path class="cls-1" d="M46.11,48.21c-.25,0-1.34-1.77-1.34-1.77L48,48.21Z"/><polygon class="cls-1" points="71.57 48.93 72.86 46.44 73.99 48.93 71.57 48.93"/><polygon class="cls-1" points="80.83 55.13 82.93 52.47 82.93 55.13 80.83 55.13"/><path class="cls-1" d="M87.3,48.93c0-.11.66-2.76.66-2.76l1.9,2.76Z"/><polygon class="cls-1" points="89.07 49.72 89.86 46.69 91.24 48.93 89.07 49.72"/><ellipse class="cls-8" cx="32.77" cy="64.04" rx="0.85" ry="0.42"/><ellipse class="cls-9" cx="50.31" cy="66.33" rx="1.22" ry="0.45"/><path class="cls-9" d="M37.86,53.44c0,.2-.4.36-.9.36s-.91-.16-.91-.36.41-.35.91-.35S37.86,53.24,37.86,53.44Z"/><path class="cls-9" d="M21.05,67.6c0,.26-.54.47-1.22.47s-1.22-.21-1.22-.47.55-.47,1.22-.47S21.05,67.34,21.05,67.6Z"/><ellipse class="cls-9" cx="65.76" cy="65.44" rx="1" ry="0.44"/><path class="cls-9" d="M76.25,53c0,.27-.5.49-1.13.49S74,53.22,74,53s.51-.48,1.13-.48S76.25,52.68,76.25,53Z"/><ellipse class="cls-8" cx="39.43" cy="69.82" rx="1.16" ry="0.38"/><ellipse class="cls-8" cx="53.77" cy="63.22" rx="1.06" ry="0.4"/><path class="cls-8" d="M30.36,53.76c0,.17-.4.31-.9.31s-.9-.14-.9-.31.4-.32.9-.32S30.36,53.58,30.36,53.76Z"/><path class="cls-8" d="M71.86,50.73c0,.22-.42.4-.94.4S70,51,70,50.73s.43-.41.94-.41S71.86,50.5,71.86,50.73Z"/><ellipse class="cls-8" cx="88.19" cy="51.42" rx="0.88" ry="0.29"/><path class="cls-8" d="M60.61,69.82c0,.21-.61.37-1.36.37s-1.36-.16-1.36-.37.61-.38,1.36-.38S60.61,69.61,60.61,69.82Z"/><rect class="cls-6" x="40.36" y="43.86" width="2" height="8"/><path class="cls-7" d="M34.36,38.86a7,7,0,0,0,14,0c0-9-3.14-19-7-19S34.36,29.86,34.36,38.86Z"/><path class="cls-7" d="M34,40.47c1,3.09,3.73,5,6.15,4.21s3.6-3.89,2.63-7c-2.27-7.2-6.76-14.57-9.19-13.81S31.76,33.27,34,40.47Z"/><path class="cls-7" d="M40.45,36.75A4.61,4.61,0,1,0,49.08,40c2.07-5.56,2.44-12.45.06-13.34S42.52,31.2,40.45,36.75Z"/><path class="cls-7" d="M34.31,29.28c0,2.54,3.2,4.65,7.21,4.69s7.29-2,7.32-4.52c.07-5.93-3.1-12.56-7.11-12.61S34.38,23.35,34.31,29.28Z"/><path class="cls-5" d="M36.68,38.84A.75.75,0,0,0,37.9,38c-.55-.79-1.45-1.47-1.79-1.24S36.12,38.05,36.68,38.84Z"/><path class="cls-5" d="M37.9,31.66a.75.75,0,1,0,1.2.9c.58-.77.95-1.83.62-2.08S38.48,30.89,37.9,31.66Z"/><path class="cls-5" d="M33.26,29.2a.75.75,0,1,0,1.49-.12c-.07-1-.5-2-.91-2S33.18,28.24,33.26,29.2Z"/><path class="cls-5" d="M39.12,24.53a.75.75,0,0,0,1.37-.61C40.1,23,39.36,22.19,39,22.36S38.73,23.64,39.12,24.53Z"/><path class="cls-5" d="M41.58,19.94a.74.74,0,0,0,.18,1,.75.75,0,0,0,1.05-.18c.55-.79.89-1.86.55-2.1S42.13,19.15,41.58,19.94Z"/><path class="cls-5" d="M41.78,42.56a.75.75,0,0,0,1.23.87c.55-.79.89-1.86.55-2.1S42.33,41.77,41.78,42.56Z"/><path class="cls-5" d="M44.45,36.33a.75.75,0,1,0,1.29-.77c-.49-.83-1.32-1.58-1.68-1.37S44,35.49,44.45,36.33Z"/><path class="cls-5" d="M48,30.29a.75.75,0,1,0,1.19.91c.59-.77,1-1.83.64-2.08S48.53,29.52,48,30.29Z"/><path class="cls-5" d="M43.35,29.65a.76.76,0,0,0,.33,1,.75.75,0,0,0,1-.33c.44-.86.63-2,.26-2.15S43.79,28.79,43.35,29.65Z"/><circle class="cls-10" cx="41.45" cy="36.82" r="0.68"/><path class="cls-10" d="M38.55,27.82a.56.56,0,1,1-.56-.56A.56.56,0,0,1,38.55,27.82Z"/><circle class="cls-10" cx="43.34" cy="25.64" r="0.67"/><path class="cls-10" d="M48.56,34.29a.6.6,0,0,1-1.2,0,.6.6,0,0,1,1.2,0Z"/><circle class="cls-10" cx="38.83" cy="43.19" r="0.55"/><circle class="cls-10" cx="34.82" cy="33.51" r="0.65"/><rect class="cls-6" x="49.38" y="51.7" width="1.1" height="2.76"/><rect class="cls-6" x="68.15" y="51.7" width="1.1" height="2.76"/><rect class="cls-6" x="65.83" y="44.03" width="1.1" height="6.76"/><rect class="cls-6" x="51.62" y="44.03" width="1.1" height="6.76"/><rect class="cls-11" x="50.69" y="47.81" width="17.26" height="2.25"/><rect class="cls-11" x="50.69" y="44.76" width="17.26" height="2.25"/><rect class="cls-11" x="48.07" y="50.78" width="22.41" height="1.69"/></svg>