<svg id="Layer_1" data-name="Layer 1" xmlns="http://www.w3.org/2000/svg" viewBox="0 0 100 100"><defs><style>.cls-1{fill:#f05c38;}.cls-2{fill:#faaf40;}.cls-3{fill:#ffc63f;}.cls-4{fill:#ffe5b1;}.cls-5{fill:#4a4a4c;}</style></defs><title>magma</title><ellipse class="cls-1" cx="50" cy="52.96" rx="50" ry="14.8"/><ellipse class="cls-1" cx="73.37" cy="66.07" rx="23.37" ry="7.91"/><ellipse class="cls-1" cx="32.96" cy="40.31" rx="23.37" ry="7.14"/><path class="cls-1" d="M85.1,57.65a3.88,3.88,0,0,0-3.88,3.88V56a3.88,3.88,0,0,0-7.75,0V78.22a3.88,3.88,0,1,0,7.75,0v5.56a3.88,3.88,0,0,0,7.76,0V61.53A3.88,3.88,0,0,0,85.1,57.65Z"/><rect class="cls-1" x="88.98" y="48.16" width="11.02" height="27.86" rx="5.51" ry="5.51"/><path class="cls-1" d="M19.39,48.16A3.88,3.88,0,0,0,15.51,52v7.65a3.88,3.88,0,0,0-7.75,0V53.78a3.88,3.88,0,0,0-7.76,0v15a3.88,3.88,0,0,0,7.76,0V81.94a3.88,3.88,0,1,0,7.75,0V74.28a3.88,3.88,0,0,0,7.76,0V52A3.88,3.88,0,0,0,19.39,48.16Z"/><path class="cls-1" d="M48.16,53.67a3.88,3.88,0,0,0-3.87,3.88V51.33a3.88,3.88,0,0,0-7.76,0V73.57a3.88,3.88,0,0,0,7.76,0V79.8a3.88,3.88,0,0,0,7.75,0V57.55A3.88,3.88,0,0,0,48.16,53.67Z"/><ellipse class="cls-2" cx="71.24" cy="64.23" rx="15.53" ry="5.25"/><ellipse class="cls-2" cx="28.56" cy="39.54" rx="10.37" ry="3.51"/><ellipse class="cls-2" cx="28.56" cy="52.1" rx="21.44" ry="7.25"/><ellipse class="cls-2" cx="65.33" cy="48.97" rx="21.44" ry="7.25"/><circle class="cls-3" cx="78.98" cy="47.76" r="2.14"/><circle class="cls-3" cx="63.33" cy="65.17" r="2"/><circle class="cls-3" cx="63.78" cy="33.16" r="2.45"/><circle class="cls-3" cx="95.31" cy="86.63" r="2.45"/><circle class="cls-3" cx="58.78" cy="82.1" r="2.45"/><circle class="cls-3" cx="54.23" cy="7.76" r="2.65"/><circle class="cls-3" cx="18.11" cy="53.21" r="2.6"/><circle class="cls-3" cx="11.38" cy="91.28" r="3.62"/><circle class="cls-4" cx="53.11" cy="48.62" r="2.5"/><circle class="cls-4" cx="34.8" cy="58.78" r="2.96"/><circle class="cls-4" cx="66.43" cy="42.14" r="1.63"/><circle class="cls-4" cx="34.8" cy="39.54" r="1.63"/><circle class="cls-4" cx="54.69" cy="21.12" r="2.19"/><circle class="cls-1" cx="40.92" cy="19.8" r="1.84"/><circle class="cls-2" cx="47.14" cy="34.49" r="2.86"/><circle class="cls-4" cx="86.38" cy="56.89" r="2.6"/><circle class="cls-5" cx="73.69" cy="33.16" r="2.45"/><circle class="cls-5" cx="64.8" cy="23.06" r="2.7"/><circle class="cls-5" cx="56.73" cy="76.02" r="2.04"/><circle class="cls-5" cx="28.52" cy="71.78" r="2.3"/><circle class="cls-5" cx="47.76" cy="25.87" r="1.63"/></svg>