<svg id="Layer_1" data-name="Layer 1" xmlns="http://www.w3.org/2000/svg" viewBox="0 0 100 100"><defs><style>.cls-1{fill:#b2e2f9;}.cls-2{fill:#5798b4;}</style></defs><title>container</title><path class="cls-1" d="M2,100a2,2,0,0,1-1.41-.59,2,2,0,0,1,0-2.82l7-7a2,2,0,0,1,2.82,2.82l-7,7A2,2,0,0,1,2,100ZM17.51,84.49a2,2,0,0,1-1.41-3.42l8.49-8.48a2,2,0,0,1,2.82,2.82L18.93,83.9A2,2,0,0,1,17.51,84.49Z"/><path class="cls-1" d="M98,76H86a2,2,0,0,1,0-4H98a2,2,0,0,1,0,4Z"/><path class="cls-1" d="M74,76H62a2,2,0,0,1,0-4H74a2,2,0,0,1,0,4Z"/><path class="cls-1" d="M50,76H38a2,2,0,0,1,0-4H50a2,2,0,0,1,0,4Z"/><path class="cls-1" d="M26,76a2,2,0,0,1-2-2V62a2,2,0,0,1,4,0V74A2,2,0,0,1,26,76Z"/><path class="cls-1" d="M26,52a2,2,0,0,1-2-2V38a2,2,0,0,1,4,0V50A2,2,0,0,1,26,52Z"/><path class="cls-1" d="M26,28a2,2,0,0,1-2-2V14a2,2,0,0,1,4,0V26A2,2,0,0,1,26,28Z"/><path class="cls-2" d="M98,64a2,2,0,0,1-2-2V50a2,2,0,0,1,4,0V62A2,2,0,0,1,98,64Zm0-24a2,2,0,0,1-2-2V26a2,2,0,0,1,4,0V38A2,2,0,0,1,98,40Zm0-24a2,2,0,0,1-2-2V2a2,2,0,0,1,4,0V14A2,2,0,0,1,98,16ZM86,4H74a2,2,0,0,1,0-4H86a2,2,0,0,1,0,4ZM62,4H50a2,2,0,0,1,0-4H62a2,2,0,0,1,0,4ZM38,4H26a2,2,0,0,1,0-4H38a2,2,0,0,1,0,4Z"/><path class="cls-2" d="M74,100H62a2,2,0,0,1,0-4H74a2,2,0,0,1,0,4Zm-24,0H38a2,2,0,0,1,0-4H50a2,2,0,0,1,0,4Zm-24,0H14a2,2,0,0,1,0-4H26a2,2,0,0,1,0,4ZM2,100a2,2,0,0,1-2-2V86a2,2,0,0,1,4,0V98A2,2,0,0,1,2,100ZM74,88a2,2,0,0,1-2-2V74a2,2,0,0,1,4,0V86A2,2,0,0,1,74,88ZM2,76a2,2,0,0,1-2-2V62a2,2,0,0,1,4,0V74A2,2,0,0,1,2,76ZM74,64a2,2,0,0,1-2-2V50a2,2,0,0,1,4,0V62A2,2,0,0,1,74,64ZM2,52a2,2,0,0,1-2-2V38a2,2,0,0,1,4,0V50A2,2,0,0,1,2,52ZM74,40a2,2,0,0,1-2-2V26a2,2,0,0,1,4,0V38A2,2,0,0,1,74,40ZM62,28H50a2,2,0,0,1,0-4H62a2,2,0,0,1,0,4ZM38,28H26a2,2,0,0,1,0-4H38a2,2,0,0,1,0,4ZM14,28H2a2,2,0,0,1,0-4H14a2,2,0,0,1,0,4Z"/><path class="cls-2" d="M74,100a2,2,0,0,1-1.41-3.41l7-7a2,2,0,0,1,2.82,2.82l-7,7A2,2,0,0,1,74,100ZM89.51,84.49a2,2,0,0,1-1.41-3.42l8.49-8.48a2,2,0,0,1,2.82,2.82L90.93,83.9A2,2,0,0,1,89.51,84.49Z"/><path class="cls-2" d="M74,28a2,2,0,0,1-1.41-3.41l7-7a2,2,0,0,1,2.82,2.82l-7,7A2,2,0,0,1,74,28ZM89.51,12.49A2,2,0,0,1,88.1,9.07L96.59.59a2,2,0,0,1,2.82,0,2,2,0,0,1,0,2.82L90.93,11.9A2,2,0,0,1,89.51,12.49Z"/><path class="cls-2" d="M2,28a2,2,0,0,1-1.41-.59,2,2,0,0,1,0-2.82l7-7a2,2,0,0,1,2.82,2.82l-7,7A2,2,0,0,1,2,28ZM17.51,12.49A2,2,0,0,1,16.1,9.07L24.59.59a2,2,0,0,1,2.82,0,2,2,0,0,1,0,2.82L18.93,11.9A2,2,0,0,1,17.51,12.49Z"/></svg>