<svg id="Layer_1" data-name="Layer 1" xmlns="http://www.w3.org/2000/svg" viewBox="0 0 100 100"><defs><style>.cls-1{fill:#b3b3b3;}.cls-2{fill:#ffc640;}.cls-3{fill:#3e3e3f;}.cls-4{fill:#616161;}</style></defs><title>scuba tank</title><path class="cls-1" d="M85.17,52.73H81.64V24.53A17.56,17.56,0,0,0,64.1,7H57.3V3.46h6.8A21.09,21.09,0,0,1,85.17,24.53Z"/><rect class="cls-1" x="25.53" y="3.46" width="31.77" height="3.53"/><rect class="cls-1" x="22.51" y="6.34" width="6.03" height="14.27"/><path class="cls-2" d="M29.39,18.71h0a.85.85,0,0,0-.85-.85h-6a.85.85,0,0,0-.85.85h0a6,6,0,0,1-2.87,5.1,12.94,12.94,0,0,0-6.22,11.06V95.66H38.47V34.87a13,13,0,0,0-6.21-11.06A6,6,0,0,1,29.39,18.71Z"/><path class="cls-3" d="M11.21,76.64H39.84a0,0,0,0,1,0,0V96.89A3.11,3.11,0,0,1,36.73,100H14.33a3.11,3.11,0,0,1-3.11-3.11V76.64A0,0,0,0,1,11.21,76.64Z"/><rect class="cls-1" x="54.28" y="6.34" width="6.03" height="14.27"/><path class="cls-2" d="M61.16,18.71h0a.85.85,0,0,0-.85-.85h-6a.85.85,0,0,0-.85.85h0a6,6,0,0,1-2.87,5.1,12.94,12.94,0,0,0-6.22,11.06V95.66H70.24V34.87A13,13,0,0,0,64,23.81,6,6,0,0,1,61.16,18.71Z"/><path class="cls-3" d="M43,76.64H71.61a0,0,0,0,1,0,0V96.89A3.11,3.11,0,0,1,68.5,100H46.1A3.11,3.11,0,0,1,43,96.89V76.64A0,0,0,0,1,43,76.64Z"/><rect class="cls-4" x="11.21" y="38.02" width="60.4" height="7.06"/><rect class="cls-4" x="11.21" y="54.05" width="60.4" height="7.06"/><rect class="cls-3" x="38.47" y="38.02" width="5.88" height="7.06"/><rect class="cls-3" x="38.47" y="54.05" width="5.88" height="7.06"/><rect class="cls-3" x="11.21" y="38.02" width="1.37" height="7.06"/><rect class="cls-3" x="11.21" y="54.05" width="1.37" height="7.06"/><rect class="cls-3" x="70.24" y="38.02" width="1.37" height="7.06"/><rect class="cls-3" x="70.24" y="54.05" width="1.37" height="7.06"/><rect class="cls-4" x="20.31" width="10.44" height="10.44" rx="5.22" ry="5.22"/><rect class="cls-4" x="52.08" width="10.44" height="10.44" rx="5.22" ry="5.22"/><rect class="cls-4" x="78.35" y="47.51" width="10.44" height="10.44" rx="5.22" ry="5.22"/></svg>