<svg id="Layer_1" data-name="Layer 1" xmlns="http://www.w3.org/2000/svg" viewBox="0 0 100 100"><defs><style>.cls-1{fill:#b3b3b3;}.cls-2{fill:#ffc640;}.cls-3{fill:#3e3e3f;}.cls-4{fill:#616161;}.cls-5{fill:#f37d3b;}.cls-6{fill:#d36d33;}.cls-7{fill:#a45423;}.cls-8{fill:#9dc8dc;stroke:#3e3e3f;stroke-linejoin:round;stroke-width:2px;}.cls-9{fill:#fff;}</style></defs><title>diver</title><path class="cls-1" d="M51.25,67.6H48.83V48.28a12,12,0,0,0-12-12H32.15V33.84h4.66A14.45,14.45,0,0,1,51.25,48.28Z"/><rect class="cls-1" x="10.38" y="33.84" width="21.77" height="2.42"/><rect class="cls-1" x="8.32" y="35.81" width="4.13" height="9.78"/><path class="cls-2" d="M13,44.29h0a.58.58,0,0,0-.58-.58H8.32a.58.58,0,0,0-.58.58h0a4.11,4.11,0,0,1-2,3.5,8.87,8.87,0,0,0-4.26,7.58V97H19.25V55.37A8.85,8.85,0,0,0,15,47.79,4.1,4.1,0,0,1,13,44.29Z"/><path class="cls-3" d="M.57,84H20.19a0,0,0,0,1,0,0V96.89A3.11,3.11,0,0,1,17.08,100H3.69A3.11,3.11,0,0,1,.57,96.89V84A0,0,0,0,1,.57,84Z"/><rect class="cls-1" x="30.09" y="35.81" width="4.13" height="9.78"/><path class="cls-2" d="M34.8,44.29h0a.58.58,0,0,0-.58-.58H30.09a.58.58,0,0,0-.58.58h0a4.11,4.11,0,0,1-2,3.5,8.87,8.87,0,0,0-4.26,7.58V97H41V55.37a8.85,8.85,0,0,0-4.26-7.58A4.1,4.1,0,0,1,34.8,44.29Z"/><path class="cls-3" d="M22.34,84H42a0,0,0,0,1,0,0V96.89A3.11,3.11,0,0,1,38.85,100H25.46a3.11,3.11,0,0,1-3.11-3.11V84A0,0,0,0,1,22.34,84Z"/><rect class="cls-4" x="0.57" y="57.52" width="41.39" height="4.84"/><rect class="cls-4" x="0.57" y="68.51" width="41.39" height="4.84"/><rect class="cls-3" x="19.25" y="57.52" width="4.03" height="4.84"/><rect class="cls-3" x="19.25" y="68.51" width="4.03" height="4.84"/><rect class="cls-3" x="0.57" y="57.52" width="0.94" height="4.84"/><rect class="cls-3" x="0.57" y="68.51" width="0.94" height="4.84"/><rect class="cls-3" x="41.02" y="57.52" width="0.94" height="4.84"/><rect class="cls-3" x="41.02" y="68.51" width="0.94" height="4.84"/><rect class="cls-4" x="6.8" y="31.47" width="7.16" height="7.16" rx="3.35" ry="3.35"/><rect class="cls-4" x="28.57" y="31.47" width="7.16" height="7.16" rx="3.35" ry="3.35"/><rect class="cls-4" x="46.58" y="64.03" width="7.16" height="7.16" rx="3.35" ry="3.35"/><path class="cls-5" d="M94.61,77.2c2.66,0,4.82,1.6,4.82,3.58,0-7-6.48-55.95-14.47-55.95s-14.46,49-14.46,56c0-2,2.15-3.58,4.82-3.58s4.82,1.6,4.82,3.58c0-2,2.16-3.58,4.82-3.58s4.82,1.6,4.82,3.58C89.78,78.8,91.94,77.2,94.61,77.2Z"/><path class="cls-6" d="M85,27.69c-3.54,0-6.73,11.47-8.95,23.15h17.9C91.69,39.16,88.5,27.69,85,27.69Z"/><ellipse class="cls-7" cx="84.89" cy="36.55" rx="3.16" ry="7.36"/><path class="cls-6" d="M80.48,75.79H80.4a1,1,0,0,1-.94-1.11l1.25-15.81a1,1,0,0,1,1.11-.94A1,1,0,0,1,82.76,59L81.5,74.85A1,1,0,0,1,80.48,75.79Z"/><path class="cls-6" d="M89.3,75.79a1,1,0,0,1-1-.94L87,59a1,1,0,1,1,2-.17l1.25,15.81a1,1,0,0,1-.94,1.11Z"/><path class="cls-5" d="M83.18,70.84c2.67,0,4.83,1.61,4.83,3.59,0-7-6.48-55.95-14.47-55.95s-14.47,49-14.47,56c0-2,2.16-3.59,4.83-3.59s4.82,1.61,4.82,3.59c0-2,2.16-3.59,4.82-3.59s4.82,1.61,4.82,3.59C78.36,72.45,80.52,70.84,83.18,70.84Z"/><path class="cls-6" d="M73.54,21.34c-3.54,0-6.73,11.46-9,23.15h17.9C80.27,32.8,77.08,21.34,73.54,21.34Z"/><ellipse class="cls-7" cx="73.47" cy="30.2" rx="3.16" ry="7.36"/><path class="cls-6" d="M69.06,69.44H69a1,1,0,0,1-.94-1.1l1.25-15.81a1,1,0,0,1,1.1-.94,1,1,0,0,1,.94,1.1L70.08,68.49A1,1,0,0,1,69.06,69.44Z"/><path class="cls-6" d="M77.88,69.44a1,1,0,0,1-1-1L75.61,52.68a1,1,0,0,1,.94-1.1,1,1,0,0,1,1.1.94L78.9,68.33a1,1,0,0,1-.94,1.1Z"/><path class="cls-3" d="M12.17,15.64h34a0,0,0,0,1,0,0v6.91a2.65,2.65,0,0,1-2.65,2.65H14.82a2.65,2.65,0,0,1-2.65-2.65V15.64A0,0,0,0,1,12.17,15.64Z"/><path class="cls-8" d="M55.73,11.35,55.37,8a7.78,7.78,0,0,0-8.55-6.93L36,2.2a6.62,6.62,0,0,0-3.11,1.15A6.45,6.45,0,0,1,29.2,4.49h0a6.47,6.47,0,0,1-3.69-1.15,6.7,6.7,0,0,0-3.13-1.16L11.55,1A7.79,7.79,0,0,0,3,8l-.36,3.37a9.55,9.55,0,0,0,8.5,10.49l3.88.4A12,12,0,0,0,28.26,11.51l1.85,0A12.06,12.06,0,0,0,43.36,22.25l3.87-.41A9.54,9.54,0,0,0,55.73,11.35Z"/><path class="cls-3" d="M27.53,8.74,21.34,22.07A1.83,1.83,0,0,0,23,24.67H35.37A1.83,1.83,0,0,0,37,22.07L30.84,8.74A1.82,1.82,0,0,0,27.53,8.74Z"/><path class="cls-9" d="M10.23,5.37A4.53,4.53,0,0,1,9.09,8,4.53,4.53,0,0,1,6.5,9.1,4.53,4.53,0,0,1,7.64,6.51,4.53,4.53,0,0,1,10.23,5.37Z"/><path class="cls-9" d="M12.46,7.6a4.53,4.53,0,0,1-1.14,2.59,4.53,4.53,0,0,1-2.59,1.14A4.53,4.53,0,0,1,9.87,8.74,4.53,4.53,0,0,1,12.46,7.6Z"/></svg>