<svg id="Layer_1" data-name="Layer 1" xmlns="http://www.w3.org/2000/svg" viewBox="0 0 100 100"><defs><style>.cls-1{fill:#393839;}.cls-2{fill:#4f4f4f;}.cls-3{fill:#ffc640;}.cls-4{fill:#b3b3b3;}</style></defs><title>battery</title><rect class="cls-1" x="24.17" y="6.31" width="51.65" height="89.37" transform="translate(50.71 -20.42) rotate(45)"/><path class="cls-2" d="M6.67,80.78H24.73a0,0,0,0,1,0,0V83a6.83,6.83,0,0,1-6.83,6.83H13.5A6.83,6.83,0,0,1,6.67,83v-2.2a0,0,0,0,1,0,0Z" transform="translate(64.91 13.88) rotate(45)"/><ellipse class="cls-3" cx="18.4" cy="82.6" rx="3.19" ry="25.83" transform="translate(-53.01 37.2) rotate(-45)"/><ellipse class="cls-4" cx="81.6" cy="19.4" rx="3.19" ry="25.83" transform="translate(10.18 63.38) rotate(-45)"/><ellipse class="cls-2" cx="82.05" cy="18.95" rx="1.11" ry="9.03" transform="translate(10.63 63.57) rotate(-45)"/><path class="cls-2" d="M76.24,11.22H94.3a0,0,0,0,1,0,0v2.2a6.83,6.83,0,0,1-6.83,6.83h-4.4a6.83,6.83,0,0,1-6.83-6.83v-2.2a0,0,0,0,1,0,0Z" transform="translate(134.44 87.15) rotate(-135)"/><rect class="cls-4" x="65.7" y="25.01" width="3.01" height="17.58" transform="translate(43.58 -37.62) rotate(45)"/><rect class="cls-4" x="65.7" y="25.01" width="3.01" height="17.58" transform="translate(138.62 10.19) rotate(135)"/><path class="cls-3" d="M42.62,58.38c-10.08-10.09-17.25-19.28-16-20.52L.14,64.33l36.53,36.53L63.14,74.38C61.9,75.63,52.71,68.46,42.62,58.38Z"/><rect class="cls-4" x="24.48" y="66.23" width="3.01" height="17.58" transform="translate(97.4 109.7) rotate(135)"/></svg>