<svg id="Layer_1" data-name="Layer 1" xmlns="http://www.w3.org/2000/svg" viewBox="0 0 100 100"><defs><style>.cls-1{fill:#654440;}.cls-2{fill:#895e59;}.cls-3{fill:#09a380;}.cls-4{fill:#079676;}</style></defs><title>lawn</title><rect class="cls-1" x="28.82" y="29.33" width="71.18" height="15.74" rx="3.95" ry="3.95"/><polygon class="cls-1" points="95.81 30.72 51.73 52.12 69.09 71.4 97.54 42.95 97.54 33.2 95.81 30.72"/><path class="cls-2" d="M63.31,58.21H7.87A7.87,7.87,0,0,0,7.87,74H63.31a7.87,7.87,0,1,0,0-15.74Z"/><path class="cls-3" d="M94,34l.31-.31,2.85-1.15a6,6,0,0,1-2,.26L97,31a8.23,8.23,0,0,0-2-1.14,6.35,6.35,0,0,1,1.42-1l-2,.78a8.33,8.33,0,0,0-.86-.22l.77-.87s-.57.35-1.38.78a7.89,7.89,0,0,0-.84-.05h-.56l.7-1.59s-.64.74-1.51,1.59h-.38a6,6,0,0,1,1-1.6l-1.66,1.6H89a6.11,6.11,0,0,1,1.39-1.57L88,29.33h-.17l1-1.73s-.86.8-2,1.66l.44-2.08s-.56,1-1.33,2.15h-.66a6.06,6.06,0,0,1,1.88-2.12l-3.36,2,1.25-1.94a28.59,28.59,0,0,1-2.87,2.1h0l.71-2.64a30.13,30.13,0,0,1-1.75,2.46A6,6,0,0,1,82,26.81l-1.92,2.52h-.42A6,6,0,0,1,81.05,27l-2.34,2.13.78-2.05S78.76,28,77.82,29l.12-2.12s-.43,1.16-1.06,2.45h-.65a6,6,0,0,1,.36-2.69l-1.28,2.69h-.45a6.23,6.23,0,0,1,.57-2.68L73.9,29.33h-.33l.12-2.48s-.43,1.18-1,2.48h-1a6.05,6.05,0,0,1,1.83-2.92L70.4,28.73l1-2.07a30.19,30.19,0,0,1-2.66,2.45l.42-2.73s-.63,1.3-1.47,2.63a6,6,0,0,1,.61-2.42L66.7,29.33h-.4a5.94,5.94,0,0,1,1.08-2.44l-2.1,2.37.55-2.12s-.61,1-1.44,2.11l-.12-2.13s-.25,1-.65,2.21h-.83A5.82,5.82,0,0,1,62.9,27l-.79,2.29h-.66a6,6,0,0,1,.31-2.15l-.93,2.15h-.68L60,27.57s-.18.77-.49,1.76H58.9a6,6,0,0,1,1.91-3.25L57.69,28.4l1-2.07a30.19,30.19,0,0,1-2.66,2.45l.42-2.73s-.63,1.3-1.47,2.63a6,6,0,0,1,.61-2.42l-1.83,3.07h-.25a5.89,5.89,0,0,1,1.13-2.77l-2.1,2.37.55-2.12s-.61,1-1.44,2.1l-.12-2.12s-.3,1.2-.77,2.54h-.66a5.84,5.84,0,0,1,.06-2.62l-.9,2.62h-.52a5.79,5.79,0,0,1,.28-2.48L48,29.33h-.5l-.14-2.09s-.22.94-.59,2.09H46.2A6.12,6.12,0,0,1,48,26.57l-3.11,2.32,1-2.07a29.26,29.26,0,0,1-2.65,2.45l.42-2.73s-.63,1.3-1.47,2.64a6,6,0,0,1,.61-2.43l-1.54,2.58H40.8a5.84,5.84,0,0,1,1-2.28l-2,2.28h-.06l.53-2s-.59.95-1.39,2h-.06l-.11-2s-.23.92-.6,2h-.91a5.84,5.84,0,0,1,.14-2.13l-.73,2.13H35.9a6.36,6.36,0,0,1,.31-2l-.87,2a6.38,6.38,0,0,0-.73.1l-.11-1.73s-.2.84-.54,1.91a5.68,5.68,0,0,0-.9.4l-.59-1.51s.06.8.07,1.86l-.38.37a6,6,0,0,1-.35-1.65l0,2-.56.55a6.08,6.08,0,0,1-.07-1.83l-.48,2.38-.29.29L30,31.08s0,.88-.14,2l-.25.25-1-1.58s.27.93.51,2.11l-.61.61a6,6,0,0,1-1.13-2.14l.54,2.73L27,36a6.18,6.18,0,0,1,.27-2.7l-1.7,3.94L25.4,35a29.34,29.34,0,0,1-1.22,3.77l-.25.25-.82-2.1s.1,1.35.05,2.87l-.05.05a5.9,5.9,0,0,1-.63-2.31l-.05,3-.36.36a6.09,6.09,0,0,1-.27-2.62l-.63,3.1-.59-2.11s0,1.18-.2,2.55L19.22,40a28.91,28.91,0,0,1,.68,3l-.28.28A6,6,0,0,1,18,40.6l.71,3.62-.35.35a6.12,6.12,0,0,1-1.14-3.78l-.47,3.85L16,42.47a28.79,28.79,0,0,1-.06,3.61L14.2,43.89a29.67,29.67,0,0,1,.89,2.89,6.1,6.1,0,0,1-1.33-2.12l1,3.52-.15.16a6,6,0,0,1-1.27-2.78l.27,3.15-1.16-1.86s.3,1.13.53,2.5L11.34,48s.66,1,1.31,2.31l-.47.47a6.14,6.14,0,0,1-1.85-1.85l1.26,2.43-1.12,1.12-2.31-.59s.63.39,1.45,1L9,53.9l-.48.48a6,6,0,0,1-2.41-.2L8,54.91l-5,5H5.77l-.11.22c0-.08.1-.14.16-.22H8.91l-.2.67.47-.67h2.75l.35,1.52a6.46,6.46,0,0,1,0-1.52h1.11c.18.91.27,1.57.27,1.57l.26-1.57h.39c.54,1,.91,1.72.91,1.72L15,59.89h.25L16.72,62A6,6,0,0,1,16,59.89h.51l1.17,2.52a6,6,0,0,1-.35-2.47c.69,1.41,1.18,2.78,1.18,2.78L18.34,60a28.79,28.79,0,0,1,2.39,2.7l-.81-2.16,2.86,2.63a6,6,0,0,1-1.54-3.24h.64l1.61,2.88A6.09,6.09,0,0,1,23,59.89h.54c.77,1.31,1.33,2.55,1.33,2.55l-.27-2.11c1,.94,1.8,1.81,1.8,1.81l-.92-2,2.48,2a5.94,5.94,0,0,1-1.5-2.22h.45l2.05,2.33a6,6,0,0,1-1-2.27,29.24,29.24,0,0,1,1.92,2.33L29,60a26.73,26.73,0,0,1,3.78,2.29l-1.33-1.78,3.85,1.9A6,6,0,0,1,33,59.89H34.2L36,63a5.92,5.92,0,0,1-.5-3.13h.36a30,30,0,0,1,1.45,2.78L37,60.44c1,.94,1.8,1.81,1.8,1.81L38,60.45c.2.38.32.63.32.63l-.07-.45,2.27,1.78a6,6,0,0,1-1.36-1.86l.67.93a6.3,6.3,0,0,1-.65-1.57l1.4,1.59.17.38c0-.09-.05-.18-.08-.27l.84,1a6,6,0,0,1-1.05-2.33c.23.25.44.49.64.73.3.71.48,1.21.48,1.21l0-.68c.51.62.84,1.08.84,1.08L41.45,60c.38.21.76.43,1.1.64.73.82,1.24,1.49,1.24,1.49l-.34-.92c.57.38,1,.66,1,.66L43,60v0l2.86,2.63a5.93,5.93,0,0,1-1.3-2.23l1.33.66.68,1.21A6,6,0,0,1,46,59.89h.85c.6,1.09,1,2,1,2l-.26-2h.1c1,.9,1.69,1.71,1.69,1.71l-.79-1.71h.22L51,61.57a6,6,0,0,1-1.25-1.68h.67L52,61.68a5.94,5.94,0,0,1-.91-1.79h.3c.86,1,1.49,1.85,1.49,1.85l-.64-1.85H53a30.47,30.47,0,0,1,2.88,1.83l-1.33-1.78,3.85,1.9a6.09,6.09,0,0,1-2-2h1.19L59,62.48a6,6,0,0,1-.54-2.59h.71c.67,1.19,1.15,2.24,1.15,2.24l-.29-2.22c1,.93,1.8,1.81,1.8,1.81L61,59.89h0l2.52,2a6,6,0,0,1-1.4-2h.52L64.52,62a6.16,6.16,0,0,1-1-2.14h.12c1,1.1,1.77,2.16,1.77,2.16l-.75-2.16h.6c1.22.73,2.21,1.45,2.21,1.45l-1.08-1.45h1.35l1.28.63a5.65,5.65,0,0,1-.86-.64l.53-.53,1,2.67a6,6,0,0,1,.25-3.9l.51-.51c.91,1.24,1.6,2.44,1.6,2.44l-.75-3.28.57-.58L75,57.94a6,6,0,0,1-2.23-2.71l.07-.06A28.77,28.77,0,0,1,76,57l-1.34-1.64c1.35.26,2.48.58,2.48.58l-1.83-1.2,3.14.34a6,6,0,0,1-3.1-1.63l4,1.21a6,6,0,0,1-2.08-1.38c1.51.42,2.86,1,2.86,1L78,52.45a28.91,28.91,0,0,1,3.61,0l-2.15-.84,3.86-.38a6.13,6.13,0,0,1-4.42-1.79l4.63,1a6,6,0,0,1-3-2.07,28.14,28.14,0,0,1,3.64.86l-1.75-1.21c1.38-.13,2.55-.13,2.55-.13l-2.1-.64L86,46.72A6,6,0,0,1,82.52,46h.17c.06.08.13.09.23,0l3.78,0a6,6,0,0,1-2.38-.74c1.57,0,3,.12,3,.12l-2.26-.94a27.34,27.34,0,0,1,4.23-1.3L87.09,43l4-1.62a6,6,0,0,1-4.21-.21l.79-.8,4.33.95a6.09,6.09,0,0,1-3-2.07,28.37,28.37,0,0,1,3.61.85l-1.84-1.27c1.37-.13,2.54-.13,2.54-.13l-1.92-.59,3.16-.56a6,6,0,0,1-3.38-.67h0l4.15,0a6,6,0,0,1-2.43-.76,29.78,29.78,0,0,1,3,.11l-2.52-1.05a30.7,30.7,0,0,1,3.36-1ZM45.86,61a5.82,5.82,0,0,1-1.28-1.1h.66Z"/><path class="cls-4" d="M36.67,34a11.55,11.55,0,0,0-.52,4.15c.27,1.56,1.93-.41,1.93-.41S35.92,36.24,36.67,34Z"/><path class="cls-4" d="M65.14,37.2a11.71,11.71,0,0,0-.53,4.15c.28,1.56,1.94-.41,1.94-.41S64.39,39.45,65.14,37.2Z"/><path class="cls-4" d="M54.39,34a11.48,11.48,0,0,0-.53,4.15c.28,1.56,1.93-.41,1.93-.41S53.64,36.24,54.39,34Z"/><path class="cls-4" d="M74.32,42.6a11.48,11.48,0,0,0-.53,4.15c.28,1.55,1.93-.42,1.93-.42S73.57,44.85,74.32,42.6Z"/><path class="cls-4" d="M49,45.07a11.48,11.48,0,0,0-.53,4.15c.28,1.56,1.93-.41,1.93-.41S48.26,47.32,49,45.07Z"/><path class="cls-4" d="M26.73,47.24a11.71,11.71,0,0,0-.53,4.15C26.48,53,28.14,51,28.14,51S26,49.49,26.73,47.24Z"/><path class="cls-4" d="M44.62,30a11.71,11.71,0,0,1,.53,4.15c-.28,1.55-1.94-.41-1.94-.41S45.37,32.21,44.62,30Z"/><path class="cls-4" d="M60.74,47.69a11.48,11.48,0,0,1,.53,4.15c-.28,1.56-1.93-.41-1.93-.41S61.49,49.94,60.74,47.69Z"/><path class="cls-4" d="M82.8,32.37a11.48,11.48,0,0,1,.53,4.15c-.28,1.56-1.93-.41-1.93-.41S83.55,34.63,82.8,32.37Z"/><path class="cls-4" d="M73.07,30.74a11.48,11.48,0,0,1,.53,4.15c-.28,1.56-1.93-.41-1.93-.41S73.82,33,73.07,30.74Z"/><path class="cls-4" d="M37.89,43.67a11.55,11.55,0,0,1,.52,4.15c-.27,1.56-1.93-.41-1.93-.41S38.64,45.92,37.89,43.67Z"/><path class="cls-4" d="M28,48.07a11.41,11.41,0,0,1,.53,4.14c-.28,1.56-1.93-.41-1.93-.41S28.73,50.32,28,48.07Z"/></svg>