<svg id="Layer_1" data-name="Layer 1" xmlns="http://www.w3.org/2000/svg" viewBox="0 0 100 100"><defs><style>.cls-1{fill:#b3b3b3;}.cls-2{fill:#7d7d7d;}.cls-3{fill:#c5c7c9;}.cls-4{fill:#989a9d;}</style></defs><title>combustion engine</title><rect class="cls-1" x="1.26" y="65.01" width="9.81" height="7.26" rx="1.36" ry="1.36"/><rect class="cls-1" x="27.76" y="65.01" width="8.23" height="7.26"/><rect class="cls-1" x="84.12" y="65.01" width="15.88" height="7.26" rx="1.72" ry="1.72" transform="translate(184.12 137.28) rotate(180)"/><rect class="cls-1" x="59.17" y="65.01" width="8.23" height="7.26"/><rect class="cls-2" x="14.63" y="28.9" width="3.23" height="34.86"/><path class="cls-3" d="M8,57.08H11.2a0,0,0,0,1,0,0V80.2a0,0,0,0,1,0,0H8a3.31,3.31,0,0,1-3.31-3.31V60.39A3.31,3.31,0,0,1,8,57.08Z"/><path class="cls-3" d="M21.45,57.08h3.16a3.31,3.31,0,0,1,3.31,3.31v16.5a3.31,3.31,0,0,1-3.31,3.31H21.45a0,0,0,0,1,0,0V57.08A0,0,0,0,1,21.45,57.08Z"/><rect class="cls-2" x="12.62" y="62.89" width="7.26" height="11.99" rx="1.5" ry="1.5"/><rect class="cls-1" y="67.02" width="2.84" height="3.23" rx="0.49" ry="0.49"/><rect class="cls-1" x="93.77" y="63.24" width="2.84" height="10.67" rx="0.88" ry="0.88" transform="translate(190.38 137.14) rotate(180)"/><path class="cls-4" d="M9,17.55H23.5a1.89,1.89,0,0,1,1.89,1.89V37a1.93,1.93,0,0,1-1.93,1.93H9A1.93,1.93,0,0,1,7.1,37V19.44A1.89,1.89,0,0,1,9,17.55Z"/><rect class="cls-2" x="7.1" y="24.33" width="18.3" height="1.97"/><rect class="cls-2" x="7.1" y="20.07" width="18.3" height="1.97"/><rect class="cls-2" x="45.89" y="37.74" width="3.23" height="34.86"/><path class="cls-3" d="M39.3,57.08h3.16a0,0,0,0,1,0,0V80.2a0,0,0,0,1,0,0H39.3A3.31,3.31,0,0,1,36,76.89V60.39A3.31,3.31,0,0,1,39.3,57.08Z"/><path class="cls-3" d="M52.71,57.08h3.16a3.31,3.31,0,0,1,3.31,3.31v16.5a3.31,3.31,0,0,1-3.31,3.31H52.71a0,0,0,0,1,0,0V57.08A0,0,0,0,1,52.71,57.08Z"/><rect class="cls-2" x="43.87" y="71.73" width="7.26" height="11.99" rx="1.5" ry="1.5"/><path class="cls-4" d="M40.25,26.38H54.76a1.89,1.89,0,0,1,1.89,1.89V45.82a1.93,1.93,0,0,1-1.93,1.93H40.29a1.93,1.93,0,0,1-1.93-1.93V28.27A1.89,1.89,0,0,1,40.25,26.38Z"/><rect class="cls-2" x="38.35" y="33.16" width="18.3" height="1.97"/><rect class="cls-2" x="38.35" y="28.9" width="18.3" height="1.97"/><rect class="cls-2" x="77.3" y="27.64" width="3.23" height="34.86"/><path class="cls-3" d="M70.71,57.08h3.16a0,0,0,0,1,0,0V80.2a0,0,0,0,1,0,0H70.71a3.31,3.31,0,0,1-3.31-3.31V60.39A3.31,3.31,0,0,1,70.71,57.08Z"/><path class="cls-3" d="M84.12,57.08h3.16a3.31,3.31,0,0,1,3.31,3.31v16.5a3.31,3.31,0,0,1-3.31,3.31H84.12a0,0,0,0,1,0,0V57.08A0,0,0,0,1,84.12,57.08Z"/><rect class="cls-2" x="75.29" y="61.63" width="7.26" height="11.99" rx="1.5" ry="1.5"/><path class="cls-4" d="M71.66,16.29H86.17a1.89,1.89,0,0,1,1.89,1.89V35.73a1.93,1.93,0,0,1-1.93,1.93H71.7a1.93,1.93,0,0,1-1.93-1.93V18.18A1.89,1.89,0,0,1,71.66,16.29Z"/><rect class="cls-2" x="69.77" y="23.07" width="18.3" height="1.97"/><rect class="cls-2" x="69.77" y="18.81" width="18.3" height="1.97"/></svg>