<svg id="Layer_1" data-name="Layer 1" xmlns="http://www.w3.org/2000/svg" viewBox="0 0 100 100"><defs><style>.cls-1{fill:#dd7236;}.cls-2{fill:#f37d3b;}.cls-3{fill:#ffc640;}.cls-4{fill:#171717;}</style></defs><title>petroleum</title><rect class="cls-1" x="13" y="6.84" width="72.73" height="85.18"/><rect class="cls-2" x="9.93" width="80.57" height="15.67" rx="7.83" ry="7.83"/><rect class="cls-2" x="9.5" y="27.27" width="79.73" height="15.95" rx="7.97" ry="7.97"/><rect class="cls-2" x="9.5" y="55.66" width="79.73" height="15.95" rx="7.97" ry="7.97"/><rect class="cls-2" x="9.5" y="84.05" width="79.73" height="15.95" rx="7.97" ry="7.97"/><path class="cls-3" d="M31.21,64.94a3,3,0,0,1-2.53-4.76L48.56,30.72a3,3,0,0,1,5.06,0L73.5,60.18A3,3,0,0,1,71,64.94Z"/><path class="cls-3" d="M51.09,32.43,71,61.89H31.21L51.09,32.43m0-6.11A6.1,6.1,0,0,0,46,29L26.14,58.47A6.11,6.11,0,0,0,31.21,68H71A6.11,6.11,0,0,0,76,58.47L56.15,29a6.1,6.1,0,0,0-5.06-2.69Z"/><path class="cls-4" d="M57.93,54a6.84,6.84,0,0,1-13.68,0c0-3.78,6.84-16,6.84-16S57.93,50.22,57.93,54Z"/><path class="cls-4" d="M22.51,0a5.82,5.82,0,0,0-.22,4,5.7,5.7,0,0,0,4,3.91,5.79,5.79,0,0,0,7.3-5.59A5.73,5.73,0,0,0,33.14,0Z"/><path class="cls-4" d="M30.37,0a6.93,6.93,0,0,0,.22,5.62,7.53,7.53,0,0,0,6,4.32,7.4,7.4,0,0,0,8.06-7.37A7.34,7.34,0,0,0,44.17,0Z"/><circle class="cls-4" cx="41.26" cy="11.19" r="4.48"/><circle class="cls-4" cx="36.79" cy="13.43" r="4.48"/><path class="cls-4" d="M40.54,26.23a4,4,0,0,1-8.06,0c0-2.23,4-8.71,4-8.71S40.54,24,40.54,26.23Z"/><path class="cls-4" d="M41.12,0a4.17,4.17,0,0,0,3.75,2.36A4.16,4.16,0,0,0,48.61,0Z"/><path class="cls-4" d="M47.2,0a6.14,6.14,0,0,0,6,4.93,6.13,6.13,0,0,0,6-4.93Z"/></svg>