<svg id="Layer_1" data-name="Layer 1" xmlns="http://www.w3.org/2000/svg" viewBox="0 0 100 100"><defs><style>.cls-1{fill:#069172;}.cls-2{fill:#09a582;}.cls-3{fill:#01876a;}.cls-4{fill:#f37d3b;}.cls-5{fill:#231f20;}</style></defs><title>lizard</title><path class="cls-1" d="M46.33,34.62l-5.18,0c0-2.06.08-8.31,4.45-10.07,4.66-1.88,10.06,3.27,11.09,4.32L53,32.46c-1.91-1.93-4.63-3.5-5.46-3.15C47.22,29.44,46.37,30.65,46.33,34.62Z"/><circle class="cls-1" cx="40.18" cy="35.07" r="1.99"/><circle class="cls-1" cx="43.74" cy="35.07" r="1.99"/><circle class="cls-1" cx="47.3" cy="35.07" r="1.99"/><path class="cls-1" d="M38.66,56.48l-6.2-.06c0-2.37.1-9.58,5.27-11.75,5.64-2.36,12.34,3.7,13.62,4.94l-4.29,4.46c-2.22-2.12-5.72-4.19-6.93-3.69C39.64,50.59,38.7,52.13,38.66,56.48Z"/><ellipse class="cls-1" cx="31.46" cy="56.97" rx="2.45" ry="2.32"/><ellipse class="cls-1" cx="35.83" cy="56.97" rx="2.45" ry="2.32"/><ellipse class="cls-1" cx="40.21" cy="56.97" rx="2.45" ry="2.32"/><path class="cls-2" d="M42.25,56.16A26.28,26.28,0,0,0,47,50.75,11,11,0,0,0,48,49a12.06,12.06,0,0,0,.85-2,12.62,12.62,0,0,0,.65-2l.27-1,.14-.52.1-.68.19-1.36.09-.69.05-.34,0-.17,0-.08v-.05c0,.46,0,.1,0,.19l.35-3c.3-2,.61-4,1.09-5.92a47.33,47.33,0,0,1,4.05-11.12,39,39,0,0,1,6.39-9.09A35.53,35.53,0,0,1,83.27.34,28,28,0,0,1,88.54,0h0a.85.85,0,0,1,.78.9.85.85,0,0,1-.68.76s-.4.08-1.22.3A32.16,32.16,0,0,0,84,3.17,35.06,35.06,0,0,0,73.47,9.82a31.16,31.16,0,0,0-8.64,14.11,45,45,0,0,0-1.6,9.25c-.15,1.6-.15,3.26-.14,4.9l.08,2.49,0,3v.69l0,.85-.11,1.71c-.05,1.17-.22,2.25-.36,3.34a24.26,24.26,0,0,1-.57,3.3,24.72,24.72,0,0,1-.87,3.3,28.5,28.5,0,0,1-7.1,12Z"/><path class="cls-3" d="M46.2,83.25C41.59,90.75,27.75,99.61,20.25,95S12.52,74.2,19,66.54c10.27-12.07,24.55-13.27,32.05-8.65S50.82,75.75,46.2,83.25Z"/><polygon class="cls-4" points="24.23 80.6 11.6 94.91 17.05 94.55 17.36 100 30 85.69 24.23 80.6"/><path class="cls-2" d="M43.06,83.34C36.7,89.9,20.69,95.78,14.12,89.42S11,66.61,19.28,60.31c13.12-9.93,27.85-7.94,34.42-1.58S49.42,76.77,43.06,83.34Z"/><path class="cls-2" d="M69.66,61.39c0-5.48-1.22-7.14-1.66-7.32-1.14-.47-5,1.72-7.52,4.34l-5.08-5c1.43-1.45,8.85-8.54,15.27-5.95,6,2.43,6.09,11,6.12,13.86Z"/><path class="cls-2" d="M69.83,38.26c0-4.46-1-5.82-1.35-6-1-.38-4,1.4-6.12,3.53l-4.13-4.07c1.16-1.18,7.21-6.94,12.42-4.84,4.89,2,5,9,5,11.28Z"/><circle class="cls-2" cx="68.74" cy="38.55" r="2.23"/><circle class="cls-2" cx="72.73" cy="38.55" r="2.23"/><circle class="cls-2" cx="76.72" cy="38.55" r="2.23"/><circle class="cls-2" cx="68.33" cy="61.35" r="2.74"/><circle class="cls-2" cx="73.23" cy="61.35" r="2.74"/><circle class="cls-2" cx="78.13" cy="61.35" r="2.74"/><circle class="cls-3" cx="41.15" cy="74.97" r="3.82"/><circle class="cls-5" cx="41.15" cy="74.26" r="1.69"/><circle class="cls-3" cx="34.73" cy="60.09" r="1.1"/><circle class="cls-3" cx="60.68" cy="33.54" r="1.1"/><circle class="cls-3" cx="47.28" cy="69.07" r="1.62"/><circle class="cls-3" cx="53.68" cy="41.48" r="1.62"/><circle class="cls-3" cx="53.68" cy="61.42" r="0.53"/><circle class="cls-3" cx="71.92" cy="4.81" r="0.53"/></svg>