<svg id="Layer_1" data-name="Layer 1" xmlns="http://www.w3.org/2000/svg" viewBox="0 0 100 100"><defs><style>.cls-1{fill:#ffc63f;}.cls-2{fill:#deae38;}</style></defs><title>birdcage</title><path class="cls-1" d="M55.1,8.2a5.45,5.45,0,1,0-9.36,0A29.81,29.81,0,0,0,17.68,37.87V97H82.5V37.87A29.8,29.8,0,0,0,55.1,8.2ZM48,5.44a2.44,2.44,0,1,1,2.43,2.43A2.43,2.43,0,0,1,48,5.44ZM20.69,40.62H33.82V94H20.69Zm31.25-3V11.22c10.63,1.6,12,20.1,12.08,26.39Zm-3-26.38V37.61H36.85C37,32.35,38.37,12.92,48.93,11.23ZM67,37.61a60.63,60.63,0,0,0-2.58-17A22.4,22.4,0,0,0,59.54,12,26.8,26.8,0,0,1,79.48,37.61Zm-33.19,0H20.7A26.8,26.8,0,0,1,41.92,11.68C36,17.51,34,29.24,33.84,37.61Zm3,3h12.1V94H36.83ZM51.94,94V40.62H64V94ZM67,40.62H79.49V94H67Z"/><rect class="cls-2" x="16.44" y="93.49" width="67.13" height="6.51"/></svg>