<svg id="Layer_1" data-name="Layer 1" xmlns="http://www.w3.org/2000/svg" viewBox="0 0 100 100"><defs><style>.cls-1{fill:#616161;}.cls-2{fill:#c5c7c9;}.cls-3{fill:#87898b;}.cls-4{fill:#a6a8ab;}.cls-5{fill:#909295;}.cls-6{fill:#f05c38;}.cls-7{fill:#ffc640;}.cls-8{fill:#dddfe0;}.cls-9{fill:#9c9c9c;}.cls-10{fill:#b3b3b3;}</style></defs><title>toolbox</title><polygon class="cls-1" points="23.77 5.77 19.88 7.79 23.48 14.16 30.19 18.45 29.81 26.71 22.46 30.52 15.49 26.06 15.81 19.08 11.8 11.97 8.83 13.51 8.07 30.32 22.25 39.39 37.18 31.65 37.95 14.84 23.77 5.77"/><rect class="cls-2" x="67.13" y="24.36" width="5.25" height="17.2" transform="translate(35.45 -36.14) rotate(38.31)"/><polygon class="cls-2" points="87.45 18.36 85.45 16.78 82.93 20.21 82.26 24.79 77.8 26.57 74.02 23.59 74.72 18.83 78.49 17.33 81.3 13.5 79.77 12.3 70.68 15.91 69.27 25.59 76.94 31.66 86.03 28.04 87.45 18.36"/><rect class="cls-1" x="59.79" y="20.22" width="2.27" height="25.27" transform="translate(-7.59 23.01) rotate(-20.16)"/><polygon class="cls-3" points="52.07 11.03 53.55 10.48 58.18 16.2 55.94 19.39 52.25 18.38 52.07 11.03"/><polygon class="cls-1" points="58.42 20.31 54.72 21.67 52.24 18.37 58.17 16.19 58.42 20.31"/><polygon class="cls-4" points="64.36 23 55.7 40.85 58.55 42.24 67.22 24.39 68.47 25 70.15 21.54 64.79 18.93 63.11 22.39 64.36 23"/><polygon class="cls-5" points="28 24.63 29.45 44.42 32.61 44.19 31.17 24.4 32.56 24.3 32.28 20.46 26.33 20.89 26.61 24.73 28 24.63"/><path class="cls-6" d="M40.06,5h0a5.13,5.13,0,0,1,5.13,5.13V50.59a0,0,0,0,1,0,0H34.92a0,0,0,0,1,0,0V10.12A5.13,5.13,0,0,1,40.06,5Z" transform="translate(6.99 -8.03) rotate(12.54)"/><path class="cls-7" d="M49.5,16.15h0a3.71,3.71,0,0,1,3.71,3.71V49.09a0,0,0,0,1,0,0H45.79a0,0,0,0,1,0,0V19.85a3.71,3.71,0,0,1,3.71-3.71Z" transform="translate(-3.95 6.99) rotate(-7.77)"/><path class="cls-2" d="M68,94.59H22.5A16.58,16.58,0,0,1,5.92,78V32.47H68L80,65.19Z"/><polygon class="cls-8" points="68.04 32.47 5.92 32.47 0 52.64 62.12 52.64 68.04 32.47"/><path class="cls-9" d="M68,32.47h26a0,0,0,0,1,0,0V78A16.57,16.57,0,0,1,77.5,94.59H68a0,0,0,0,1,0,0V32.47A0,0,0,0,1,68,32.47Z"/><polygon class="cls-10" points="94.08 32.47 68.04 32.47 73.97 52.64 100 52.64 94.08 32.47"/></svg>