<svg id="Layer_1" data-name="Layer 1" xmlns="http://www.w3.org/2000/svg" viewBox="0 0 100 100"><defs><style>.cls-1{fill:#90807d;}.cls-2{fill:#80726f;}.cls-3{fill:#685c5a;}.cls-4{fill:#616161;}.cls-5{fill:#c5c7c9;}.cls-6{fill:#8a8a8a;}.cls-7{fill:#7d7d7d;}.cls-8{fill:#3e3e3f;}.cls-9{fill:#f05c38;}.cls-10{fill:#d05030;}.cls-11{fill:#bcd2de;}.cls-12{fill:#6ab8d9;}.cls-13{fill:#f37d3b;}.cls-14{fill:#2b2b2b;}.cls-15{fill:#ffc640;}.cls-16{fill:#00948b;}.cls-17{fill:#00a69c;}.cls-18{fill:#00716a;}.cls-19{fill:#007770;}.cls-20{fill:#d0d2d3;}.cls-21{fill:#dddfe0;}</style></defs><title>trainyard</title><rect class="cls-1" x="48.63" y="28" width="20.99" height="14.43"/><rect class="cls-2" x="36.89" y="21.43" width="20.99" height="20.99"/><rect class="cls-1" x="38.11" y="23.16" width="5.03" height="5.03"/><path class="cls-3" d="M43.93,30.94h0a4.82,4.82,0,0,1,4.82,4.82v6.6a0,0,0,0,1,0,0H39.11a0,0,0,0,1,0,0v-6.6a4.82,4.82,0,0,1,4.82-4.82Z"/><rect class="cls-1" x="44.87" y="23.16" width="5.03" height="5.03"/><rect class="cls-1" x="51.63" y="23.16" width="5.03" height="5.03"/><rect class="cls-3" x="36.5" y="20.22" width="21.88" height="1.22"/><rect class="cls-4" x="28.82" y="42.36" width="71.18" height="15.74" rx="3.95" ry="3.95"/><polygon class="cls-4" points="95.81 43.75 51.73 65.14 69.09 84.43 97.54 55.98 97.54 46.23 95.81 43.75"/><path class="cls-5" d="M97,44.06a8,8,0,0,0-4.88-1.7H36.69a6.44,6.44,0,0,0-4,.92h0l-5.8,5.8-9.21,9.21L3,72.92H68.14L97,44.06Z"/><path class="cls-6" d="M63.31,71.24H7.87A7.87,7.87,0,0,0,7.87,87H63.31a7.87,7.87,0,1,0,0-15.74Z"/><polygon class="cls-4" points="69.83 67.36 11.59 67.36 11.59 66.53 14.67 64.36 72.68 63.53 72.68 64.36 69.83 67.36"/><polygon class="cls-4" points="82.97 54.06 24.73 54.06 24.73 53.23 27.8 51.06 85.81 50.23 85.81 51.06 82.97 54.06"/><polygon class="cls-7" points="69.83 66.53 11.59 66.53 14.67 63.53 72.68 63.53 69.83 66.53"/><polygon class="cls-7" points="82.97 53.23 24.73 53.23 27.8 50.23 85.81 50.23 82.97 53.23"/><rect class="cls-8" x="50.55" y="48.12" width="21.83" height="2.32" rx="0.58" ry="0.58" transform="translate(122.92 98.55) rotate(180)"/><ellipse class="cls-8" cx="78.75" cy="50.01" rx="1.5" ry="2.34"/><ellipse class="cls-8" cx="72.59" cy="50.01" rx="1.5" ry="2.34"/><ellipse class="cls-8" cx="70.97" cy="50.01" rx="1.5" ry="2.34"/><ellipse class="cls-8" cx="64.8" cy="50.01" rx="1.5" ry="2.34"/><ellipse class="cls-8" cx="63.18" cy="50.01" rx="1.5" ry="2.34"/><ellipse class="cls-8" cx="57.01" cy="50.01" rx="1.5" ry="2.34"/><ellipse class="cls-8" cx="55.39" cy="50.01" rx="1.5" ry="2.34"/><rect class="cls-8" x="73.9" y="30.26" width="3.73" height="11.42" rx="0.93" ry="0.93" transform="translate(151.52 71.94) rotate(-180)"/><rect class="cls-8" x="67.63" y="32.4" width="3.5" height="10.74" rx="0.87" ry="0.87" transform="translate(138.76 75.55) rotate(180)"/><polyline class="cls-9" points="78.42 35.62 65.92 37.15 65.92 45.97"/><path class="cls-9" d="M50.05,34.56a1.68,1.68,0,0,1,1.68-1.67H62.48a1.67,1.67,0,0,1,1.67,1.67V49.24H50.05Z"/><rect class="cls-9" x="55.99" y="32.1" width="8.9" height="1.66" rx="0.41" ry="0.41" transform="translate(120.87 65.85) rotate(-180)"/><rect class="cls-10" x="48.71" y="32.1" width="8.9" height="1.66" rx="0.41" ry="0.41" transform="translate(106.31 65.85) rotate(-180)"/><path class="cls-9" d="M50,43.55a6.42,6.42,0,0,1,6.4-6.4H70.38a6.42,6.42,0,0,1,6.4,6.4v3.64a6.34,6.34,0,0,1-.34,2.05H50Z"/><ellipse class="cls-7" cx="79.3" cy="47.88" rx="6.71" ry="0.43"/><path class="cls-10" d="M71.35,45.08c0-5.23,3.37-9.47,7.52-9.47s7.52,4.24,7.52,9.47a11.48,11.48,0,0,1-.77,4.16H72.12A11.48,11.48,0,0,1,71.35,45.08Z"/><path class="cls-8" d="M74.07,45.08c0-5.23,2.77-9.47,6.18-9.47s6.19,4.24,6.19,9.47a13.79,13.79,0,0,1-.64,4.16H74.71A13.49,13.49,0,0,1,74.07,45.08Z"/><rect class="cls-11" x="57.52" y="34.35" width="6.09" height="2.8" rx="0.37" ry="0.37" transform="translate(121.12 71.49) rotate(180)"/><rect class="cls-12" x="50.55" y="34.35" width="6.09" height="2.8" rx="0.37" ry="0.37" transform="translate(107.18 71.49) rotate(180)"/><path class="cls-8" d="M72.77,29.75a3,3,0,1,0,6,0c0-1.65-1.34-1.42-3-1.42S72.77,28.1,72.77,29.75Z"/><path class="cls-8" d="M66.39,31.69a3,3,0,1,0,6,0c0-1.65-1.34-1.42-3-1.42S66.39,30,66.39,31.69Z"/><rect class="cls-13" x="73.9" y="32.33" width="3.73" height="0.67" transform="translate(151.52 65.34) rotate(-180)"/><rect class="cls-13" x="67.63" y="34.35" width="3.5" height="0.67" transform="translate(138.76 69.37) rotate(-180)"/><rect class="cls-8" x="65.38" y="45.78" width="9.5" height="1.67" rx="0.42" ry="0.42" transform="translate(140.27 93.22) rotate(-180)"/><rect class="cls-8" x="65.38" y="48.39" width="9.5" height="1.67" rx="0.42" ry="0.42" transform="translate(140.27 98.46) rotate(-180)"/><path class="cls-8" d="M86.39,44.75S89.14,49,90.79,50s-7,2.09-7,2.09-8.71-.76-11-1.34c0,0,1.44-3.69,1.39-4.93l9.92,1.11S86,46,86.39,44.75Z"/><rect class="cls-10" x="81.69" y="47.5" width="1" height="3.5" rx="0.25" ry="0.25" transform="translate(156.85 109.3) rotate(-172.12)"/><rect class="cls-10" x="84.95" y="47.2" width="0.51" height="3.5" rx="0.13" ry="0.13" transform="translate(178.75 79.04) rotate(167.95)"/><rect class="cls-10" x="87.04" y="46.37" width="0.26" height="3.5" rx="0.06" ry="0.06" transform="translate(185.88 61.11) rotate(158.6)"/><rect class="cls-10" x="79.49" y="47.2" width="1" height="3.5" rx="0.25" ry="0.25" transform="translate(152.52 108.4) rotate(-172.12)"/><rect class="cls-10" x="77.3" y="46.9" width="1" height="3.5" rx="0.25" ry="0.25" transform="translate(148.19 107.49) rotate(-172.12)"/><rect class="cls-10" x="75.1" y="46.59" width="1" height="3.5" rx="0.25" ry="0.25" transform="matrix(-0.99, -0.14, 0.14, -0.99, 143.87, 106.59)"/><rect class="cls-10" x="50.86" y="38.8" width="5.57" height="7.17" transform="translate(107.28 84.77) rotate(-180)"/><polygon class="cls-10" points="57.61 42.43 66.39 42.43 67.88 40.57 57.61 40.57 57.61 42.43"/><ellipse class="cls-14" cx="81.7" cy="41.01" rx="2.02" ry="3.04"/><ellipse class="cls-15" cx="81.7" cy="41.01" rx="1.44" ry="2.17"/><rect class="cls-8" x="35.64" y="60.26" width="26.68" height="2.84" rx="0.71" ry="0.71"/><ellipse class="cls-8" cx="27.84" cy="62.58" rx="1.83" ry="2.86"/><ellipse class="cls-8" cx="35.38" cy="62.58" rx="1.83" ry="2.86"/><ellipse class="cls-8" cx="37.36" cy="62.58" rx="1.83" ry="2.86"/><ellipse class="cls-8" cx="44.9" cy="62.58" rx="1.83" ry="2.86"/><ellipse class="cls-8" cx="46.87" cy="62.58" rx="1.83" ry="2.86"/><ellipse class="cls-8" cx="54.41" cy="62.58" rx="1.83" ry="2.86"/><ellipse class="cls-8" cx="56.39" cy="62.58" rx="1.83" ry="2.86"/><rect class="cls-8" x="29.22" y="38.43" width="4.56" height="13.96" rx="1.14" ry="1.14"/><rect class="cls-8" x="37.15" y="41.06" width="4.28" height="13.13" rx="1.07" ry="1.07"/><polyline class="cls-16" points="28.25 44.98 43.53 46.85 43.53 57.64"/><path class="cls-16" d="M62.92,43.7a2.05,2.05,0,0,0-2.05-2.05H47.73a2.05,2.05,0,0,0-2,2.05V61.63H62.92Z"/><rect class="cls-17" x="44.79" y="40.68" width="10.88" height="2.02" rx="0.51" ry="0.51"/><rect class="cls-16" x="53.69" y="40.68" width="10.88" height="2.02" rx="0.51" ry="0.51"/><path class="cls-16" d="M62.94,54.68a7.85,7.85,0,0,0-7.83-7.82h-17a7.85,7.85,0,0,0-7.83,7.82v4.45a7.62,7.62,0,0,0,.42,2.5H62.94Z"/><ellipse class="cls-7" cx="27.17" cy="59.97" rx="8.21" ry="0.52"/><path class="cls-17" d="M36.89,56.55C36.89,50.16,32.77,45,27.7,45s-9.2,5.18-9.2,11.57a13.92,13.92,0,0,0,.95,5.08H35.94A13.92,13.92,0,0,0,36.89,56.55Z"/><path class="cls-8" d="M33.57,56.55C33.57,50.16,30.18,45,26,45s-7.56,5.18-7.56,11.57a16.4,16.4,0,0,0,.78,5.08H32.79A16.7,16.7,0,0,0,33.57,56.55Z"/><rect class="cls-11" x="46.36" y="43.43" width="7.44" height="3.42" rx="0.45" ry="0.45"/><rect class="cls-12" x="54.87" y="43.43" width="7.44" height="3.42" rx="0.45" ry="0.45"/><path class="cls-8" d="M35.16,37.82a3.66,3.66,0,1,1-7.32,0c0-2,1.64-1.75,3.66-1.75S35.16,35.8,35.16,37.82Z"/><path class="cls-8" d="M43,40.19a3.66,3.66,0,1,1-7.31,0c0-2,1.63-1.74,3.66-1.74S43,38.17,43,40.19Z"/><rect class="cls-13" x="29.22" y="40.97" width="4.56" height="0.82"/><rect class="cls-13" x="37.15" y="43.44" width="4.28" height="0.82"/><rect class="cls-8" x="32.57" y="57.4" width="11.61" height="2.04" rx="0.51" ry="0.51"/><rect class="cls-8" x="32.57" y="60.6" width="11.61" height="2.04" rx="0.51" ry="0.51"/><path class="cls-8" d="M18.5,56.15s-3.36,5.21-5.37,6.35,8.53,2.56,8.53,2.56,10.64-.93,13.5-1.63c0,0-1.76-4.51-1.71-6L21.33,58.75S19,57.64,18.5,56.15Z"/><rect class="cls-18" x="23.03" y="59.52" width="1.22" height="4.28" rx="0.31" ry="0.31" transform="translate(-8.23 3.82) rotate(-7.88)"/><rect class="cls-18" x="19.64" y="59.14" width="0.63" height="4.28" rx="0.16" ry="0.16" transform="translate(13.23 -2.82) rotate(12.05)"/><rect class="cls-18" x="17.39" y="58.13" width="0.31" height="4.28" rx="0.08" ry="0.08" transform="translate(23.2 -2.25) rotate(21.4)"/><rect class="cls-18" x="25.71" y="59.14" width="1.22" height="4.28" rx="0.31" ry="0.31" transform="matrix(0.99, -0.14, 0.14, 0.99, -8.15, 4.19)"/><rect class="cls-18" x="28.4" y="58.77" width="1.22" height="4.28" rx="0.31" ry="0.31" transform="translate(-8.07 4.55) rotate(-7.88)"/><rect class="cls-18" x="31.08" y="58.4" width="1.22" height="4.28" rx="0.31" ry="0.31" transform="translate(-8 4.91) rotate(-7.88)"/><rect class="cls-19" x="55.13" y="48.88" width="6.81" height="8.76"/><polygon class="cls-19" points="53.69 53.31 42.96 53.31 41.13 51.04 53.69 51.04 53.69 53.31"/><ellipse class="cls-14" cx="24.24" cy="51.58" rx="2.47" ry="3.72"/><ellipse class="cls-15" cx="24.24" cy="51.58" rx="1.76" ry="2.65"/><circle class="cls-20" cx="30.52" cy="32.58" r="2.27"/><circle class="cls-20" cx="33.56" cy="30.08" r="2.94"/><circle class="cls-20" cx="34.8" cy="18.75" r="1.86"/><circle class="cls-20" cx="30.99" cy="25.46" r="3.34"/><circle class="cls-21" cx="75.89" cy="25.08" r="1.75"/><circle class="cls-21" cx="73.56" cy="23.16" r="2.26"/><circle class="cls-21" cx="72.6" cy="14.44" r="1.43"/><circle class="cls-21" cx="75.53" cy="19.6" r="2.57"/></svg>