<svg id="Layer_1" data-name="Layer 1" xmlns="http://www.w3.org/2000/svg" xmlns:xlink="http://www.w3.org/1999/xlink" viewBox="0 0 100 100"><defs><style>.cls-1{fill:none;}.cls-2{fill:#b2e2f9;}.cls-3{clip-path:url(#clip-path);}.cls-4{fill:#5596b2;}.cls-5{fill:#6ab8d9;}</style><clipPath id="clip-path"><path class="cls-1" d="M65.92,39.37s1.46-10.69,1.46-12a16.85,16.85,0,0,0-9.39-15A3.33,3.33,0,0,1,56.08,9.4V6.84H43.92V9.4A3.33,3.33,0,0,1,42,12.35a16.84,16.84,0,0,0-9.38,15c0,1.28,1.43,12.25,1.43,12.25a26,26,0,0,1-1.33,11.72l-.09.25V95.39h0c0,1.11,7.78,2,17.37,2s17.37-.89,17.37-2h0V51.58A25.93,25.93,0,0,1,65.92,39.37Z"/></clipPath></defs><title>bottle</title><path class="cls-2" d="M65.92,39.37s1.46-10.69,1.46-12a16.85,16.85,0,0,0-9.39-15A3.33,3.33,0,0,1,56.08,9.4V6.84H43.92V9.4A3.33,3.33,0,0,1,42,12.35a16.84,16.84,0,0,0-9.38,15c0,1.28,1.43,12.25,1.43,12.25a26,26,0,0,1-1.33,11.72l-.09.25V95.4h0v.09a4.57,4.57,0,0,0,4.62,4.5h25.5a4.57,4.57,0,0,0,4.63-4.5s0-.06,0-.09h0V51.58A25.93,25.93,0,0,1,65.92,39.37Z"/><g class="cls-3"><ellipse class="cls-4" cx="50" cy="58.47" rx="17.37" ry="1.91"/><path class="cls-4" d="M67.36,27C67.26,28,59.53,28.85,50,28.85S32.74,28,32.64,27h-3.2V58.45H72.77V27Z"/></g><path class="cls-5" d="M44.68,0H55.32A1.65,1.65,0,0,1,57,1.65V7.43a0,0,0,0,1,0,0H43a0,0,0,0,1,0,0V1.65A1.65,1.65,0,0,1,44.68,0Z"/></svg>