<svg id="Layer_1" data-name="Layer 1" xmlns="http://www.w3.org/2000/svg" viewBox="0 0 100 100"><defs><style>.cls-1{fill:#994d1f;}.cls-2{fill:#d56e33;}.cls-3{fill:#ffc640;}.cls-4{fill:#a35323;}.cls-5{fill:none;stroke:#4e322e;stroke-linecap:round;stroke-miterlimit:10;stroke-width:2px;}.cls-6{fill:#ffe5b1;}.cls-7{fill:#079374;}</style></defs><title>silo</title><polygon class="cls-1" points="40.45 100 16.18 100 16.18 68.66 40.45 60.25 40.45 100"/><path class="cls-2" d="M62.14,0h0A21.69,21.69,0,0,1,83.84,21.69V100a0,0,0,0,1,0,0H40.45a0,0,0,0,1,0,0V21.69A21.69,21.69,0,0,1,62.14,0Z"/><path class="cls-3" d="M83.83,21.64a21.69,21.69,0,0,0-43.38,0Z"/><rect class="cls-4" x="39.18" y="21.64" width="45.92" height="3.32"/><line class="cls-5" x1="62.14" y1="20.69" x2="62.14" y2="93.82"/><line class="cls-5" x1="77.77" y1="20.69" x2="77.77" y2="93.82"/><line class="cls-5" x1="62.14" y1="27.38" x2="77.77" y2="27.38"/><line class="cls-5" x1="62.14" y1="36.72" x2="77.77" y2="36.72"/><line class="cls-5" x1="62.14" y1="46.07" x2="77.77" y2="46.07"/><line class="cls-5" x1="62.14" y1="55.42" x2="77.77" y2="55.42"/><line class="cls-5" x1="62.14" y1="64.76" x2="77.77" y2="64.76"/><line class="cls-5" x1="62.14" y1="74.11" x2="77.77" y2="74.11"/><line class="cls-5" x1="62.14" y1="83.44" x2="77.77" y2="83.44"/><rect class="cls-2" x="21.93" y="74.09" width="12.77" height="12.07"/><rect class="cls-6" x="67.52" y="11" width="4.87" height="8.11" rx="2.44" ry="2.44"/><rect class="cls-7" x="14.89" y="98.06" width="70.21" height="1.94"/></svg>