<svg id="Layer_1" data-name="Layer 1" xmlns="http://www.w3.org/2000/svg" viewBox="0 0 100 100"><defs><style>.cls-1{fill:#56707d;}.cls-2{fill:#c2d4de;}.cls-3{fill:#86aabc;}.cls-4{fill:#f05c38;}.cls-5{fill:#bcd2de;}</style></defs><title>blood bag</title><rect class="cls-1" x="45.54" y="89.89" width="8.91" height="10.11" rx="1.87" ry="1.87"/><path class="cls-2" d="M72.23,4.38,51.84.19a9.12,9.12,0,0,0-3.68,0L27.77,4.38a9.11,9.11,0,0,0-7.28,8.94V68.26a15.06,15.06,0,0,0,13,14.92l6.86.93h0a3.1,3.1,0,0,1,2.71,3.06v5.11H56.92V87.18a3.1,3.1,0,0,1,2.71-3.06h0l6.86-.93a15.06,15.06,0,0,0,13-14.92V13.32A9.11,9.11,0,0,0,72.23,4.38ZM50,10a3.47,3.47,0,1,1,3.47-3.47A3.47,3.47,0,0,1,50,10Z"/><path class="cls-3" d="M69.39,9,62.7,7.6a7.11,7.11,0,0,0-5.52,1c-3.67,2.53-1.88,6.33-7.18,6.33-3.52,0-4-2.28-5.39-4.48a6.67,6.67,0,0,0-7-2.92L30.61,9a8.12,8.12,0,0,0-6.35,8V66.36A13.39,13.39,0,0,0,35.6,79.75l6,.84h.05a5.62,5.62,0,0,1,4.9,5.55v6.14h6.94V86.15a5.62,5.62,0,0,1,4.9-5.55h.05l6-.84A13.39,13.39,0,0,0,75.74,66.36V17A8.12,8.12,0,0,0,69.39,9Z"/><path class="cls-4" d="M75.74,46.09c-6.27-1.34-14.45-4.76-21.8-4-9.27,1-14.49,4.89-23.59,6.49a27.67,27.67,0,0,1-6.09.38V66.36A13.39,13.39,0,0,0,35.6,79.75l6,.84h.05a5.62,5.62,0,0,1,4.9,5.55v6.14h6.94V86.15a5.62,5.62,0,0,1,4.9-5.55h.05l6-.84A13.39,13.39,0,0,0,75.74,66.36Z"/><rect class="cls-3" x="41.63" y="91.72" width="16.75" height="3.48" rx="1.72" ry="1.72"/><ellipse class="cls-5" cx="30.51" cy="19.51" rx="3.38" ry="6.16"/></svg>