<svg id="Layer_1" data-name="Layer 1" xmlns="http://www.w3.org/2000/svg" xmlns:xlink="http://www.w3.org/1999/xlink" viewBox="0 0 100 100"><defs><style>.cls-1,.cls-10{fill:none;}.cls-2{fill:#09a380;}.cls-3{fill:#60403c;}.cls-4{fill:#3e3e3f;}.cls-5{fill:#714c48;}.cls-6{fill:#895e59;}.cls-7{fill:#654440;}.cls-8{fill:#f9a63f;}.cls-9{fill:#faaf40;}.cls-10{stroke:#faaf40;stroke-miterlimit:10;}.cls-11{fill:#ffc640;}.cls-12{clip-path:url(#clip-path);}.cls-13{fill:#bf9b77;}.cls-14{fill:#9f8163;}</style><clipPath id="clip-path"><path class="cls-1" d="M68.81,48.93H60.57A2.59,2.59,0,0,1,58,46.72L55.25,28s-.14-4.46-4.54-4.46a4.44,4.44,0,0,0-3.93,2.37,3.52,3.52,0,0,1-2,1.64,20.63,20.63,0,0,1-2.39.69,1.55,1.55,0,0,0-1,2.21l.32.63,7.51,1.18a.74.74,0,0,1,.62.75l-.46,23h0c0,.13,0,.25,0,.37h0A7.52,7.52,0,0,0,56.85,64h12a7.52,7.52,0,0,0,7.52-7.52h0A7.52,7.52,0,0,0,68.81,48.93Z"/></clipPath></defs><title>zoo</title><ellipse class="cls-2" cx="50" cy="78.94" rx="50" ry="12.98"/><polyline class="cls-3" points="41.07 57.6 39.36 69.61 37.1 57.6"/><polyline class="cls-3" points="39.83 68.15 39.37 71.29 38.76 68.15"/><rect class="cls-3" x="38.67" y="66.85" width="1.37" height="0.9" rx="0.21" ry="0.21" transform="translate(78.71 134.59) rotate(180)"/><rect class="cls-3" x="38.67" y="67.45" width="1.37" height="0.9" rx="0.21" ry="0.21" transform="translate(78.71 135.8) rotate(180)"/><polygon class="cls-3" points="28.69 58.62 32.42 59.95 28.42 67.59 27.42 66.73 28.69 58.62"/><polyline class="cls-3" points="28.79 67.67 29.36 70.79 27.77 68.02"/><rect class="cls-3" x="27.38" y="66.56" width="1.37" height="0.9" rx="0.21" ry="0.21" transform="translate(76.15 121.47) rotate(161.28)"/><rect class="cls-3" x="27.57" y="67.14" width="1.37" height="0.9" rx="0.21" ry="0.21" transform="translate(76.71 122.53) rotate(161.28)"/><path class="cls-4" d="M25.4,59.65a3.94,3.94,0,0,0-.16-1,5.24,5.24,0,0,0-.33-.94,5.11,5.11,0,0,0-.52-.9,4.1,4.1,0,0,0-.81-.8,2.65,2.65,0,0,0-1.21-.47,2.82,2.82,0,0,0-1.36.18l-.29.14-.28.15-.45.32a4.47,4.47,0,0,0-.83.85,3.72,3.72,0,0,0-.55,1.11,4.37,4.37,0,0,0-.18,1.16,9.78,9.78,0,0,0,.06,1,5.36,5.36,0,0,1,.05.7.92.92,0,0,1,0,.18.06.06,0,0,1,0,0,0,0,0,0,1,0,0v.06a.12.12,0,0,1-.09.08.56.56,0,0,1-.26,0,1.51,1.51,0,0,1-.65-.36,1,1,0,0,1-.23-.31.46.46,0,0,1,0-.41.46.46,0,0,0-.21.16.81.81,0,0,0-.11.27,1.18,1.18,0,0,0,0,.56,2,2,0,0,0,.64,1,1.7,1.7,0,0,0,.6.31,1.41,1.41,0,0,0,.81,0l.2-.09a1.08,1.08,0,0,0,.18-.11l.16-.12.14-.14a2.21,2.21,0,0,0,.38-.66,4.64,4.64,0,0,0,.2-1.14c0-.32,0-.6.07-.85a2.4,2.4,0,0,1,.45-1.19,2.9,2.9,0,0,1,.45-.49c.08-.08.19-.16.28-.24l.12-.08.12-.08a1.44,1.44,0,0,1,.45-.16,1.24,1.24,0,0,1,.54.08,4.16,4.16,0,0,1,1.3.87A18.39,18.39,0,0,1,25.4,59.65Z"/><path class="cls-4" d="M37.21,44.49V55.88l-5,1.24,1.44-9S34.38,43.8,37.21,44.49Z"/><path class="cls-5" d="M31.33,64.19a18.87,18.87,0,0,0,8.75-1.77L36.52,56l.07,0c-.14.06-3.37,1.63-9.69.45a3.68,3.68,0,0,0-1.35,7.24A31.7,31.7,0,0,0,31.33,64.19Z"/><path class="cls-5" d="M33.8,64.89l.09,0H34L34,65l.15,0,.14,0,.12,0,.49.1c.16,0,.32,0,.49.06l.24,0h.26a8.15,8.15,0,0,0,2.32-.2l.34-.09.34-.1.17-.06.18-.07.35-.15.17-.08.18-.1.34-.2a5,5,0,0,0,.66-.47,6.37,6.37,0,0,0,1.81-2.36,6.52,6.52,0,0,0,.52-2.07c0-.15,0-.29,0-.44s0-.26,0-.39V58.1c0-.12,0-.23,0-.34a10.33,10.33,0,0,0-.21-1.26L42.94,56c0-.09,0-.18-.08-.27l-.09-.25-.17-.5-.18-.46c-.07-.16-.13-.32-.2-.46l-.2-.44c-.13-.29-.27-.56-.41-.84l-.21-.41-.22-.39c-.15-.26-.29-.53-.44-.78l-.45-.75c-.27-.4-.53-.8-.75-1.19s-.42-.76-.57-1.07a2.91,2.91,0,0,0-.17-.35c0-.08-.09-.08-.2,0l-.05,0,0,0-.06,0-.06,0-.07,0-.06,0a.17.17,0,0,1-.1,0c-.12,0-.07-.1.05-.15a1.34,1.34,0,0,1,.5-.08,3.88,3.88,0,0,1,.67,0,10.3,10.3,0,0,1,1.47.29c.5.13,1,.29,1.51.46,1,.36,2,.77,3,1.23A32.34,32.34,0,0,0,43,47.39c-.41-.37-.84-.74-1.29-1.1a13.56,13.56,0,0,0-1.47-1,6.43,6.43,0,0,0-.87-.44,4.91,4.91,0,0,0-1.08-.33l-.16,0-.17,0a2.14,2.14,0,0,0-.36,0h-.2l-.2,0-.22,0-.22,0a2.62,2.62,0,0,0-.46.19,1,1,0,0,0-.23.12l-.23.15-.21.17-.19.18c-.06.07-.12.13-.17.2a2.33,2.33,0,0,0-.16.2L35,46l-.06.1-.06.1-.18.4c0,.13-.1.27-.13.38l-.05.18,0,.1,0,.08a6.69,6.69,0,0,0-.16,1.25,13.68,13.68,0,0,0,.08,2.07c.07.65.16,1.26.27,1.86l.1.76c0,.26.06.5.08.75l0,.36,0,.36c0,.24,0,.48,0,.71v.34c0,.11,0,.22,0,.33v.32l0,.29v.15l0,.13,0,.25-.07.2,0,0a.05.05,0,0,1,0,0l0,.06,0,.06h0s0,0,0,0l0,0a.8.8,0,0,1,0-.55,1.45,1.45,0,0,1,.11-.26l.07-.14.09-.15.1-.14a1,1,0,0,1,.13-.16l.14-.15L35.3,56a2.69,2.69,0,0,1,.33-.26l.16-.11.09,0,.08,0,.16-.08.09,0,.07,0,.14-.06.14,0c.35-.11.57-.15.73-.19h.1l.09,0,.1,0h.21l.07,0a5.32,5.32,0,0,0-4.06,9.84Z"/><path class="cls-5" d="M34.49,55.17s2.67,1.22-7.1,1.33L29.12,61,40,59.7"/><path class="cls-6" d="M44.65,47.14a2,2,0,0,1,1,2.55l0,.1a2,2,0,0,1-2.55,1l-.64-.28L44.31,47Z"/><path class="cls-5" d="M37.58,46.36l0-.09a2,2,0,0,1,2.55-1L44.31,47l-1.87,3.54-3.83-1.63A2,2,0,0,1,37.58,46.36Z"/><path class="cls-5" d="M37.25,44.6a.68.68,0,0,0,.69.68.67.67,0,0,0,.68-.68,16,16,0,0,0-.68-2.22A15.78,15.78,0,0,0,37.25,44.6Z"/><circle class="cls-6" cx="45.22" cy="47.49" r="0.76"/><circle class="cls-4" cx="36.38" cy="46.84" r="0.23"/><circle class="cls-5" cx="45.45" cy="47.49" r="0.23"/><circle class="cls-6" cx="44.14" cy="48.25" r="0.76"/><circle class="cls-5" cx="44.37" cy="48.25" r="0.23"/><path class="cls-4" d="M36.78,44.41a5,5,0,0,1,3.3.44l-2.2.93s-1.34-.73-2-.44c0,0-1.32,1.25-1.36,1.27-.74.39.48-1,.48-1Z"/><path class="cls-5" d="M35.41,45.22a.69.69,0,0,0,.69.69.68.68,0,0,0,.68-.69A15.75,15.75,0,0,0,36.1,43,15.58,15.58,0,0,0,35.41,45.22Z"/><polyline class="cls-5" points="37.22 57.34 35.51 69.35 33.25 57.34"/><polyline class="cls-5" points="35.98 67.9 35.52 71.04 34.91 67.9"/><rect class="cls-5" x="34.82" y="66.59" width="1.37" height="0.9" rx="0.21" ry="0.21" transform="translate(71.01 134.08) rotate(180)"/><rect class="cls-5" x="34.82" y="67.2" width="1.37" height="0.9" rx="0.21" ry="0.21" transform="translate(71.01 135.29) rotate(-180)"/><polygon class="cls-4" points="40.83 71.81 38.15 71.81 39.49 70.02 40.83 71.81"/><polygon class="cls-4" points="36.84 71.81 34.17 71.81 35.51 70.02 36.84 71.81"/><polygon class="cls-4" points="30.51 71.81 27.83 71.81 29.17 70.02 30.51 71.81"/><polygon class="cls-5" points="24.83 58.62 28.57 59.95 24.56 67.59 23.56 66.73 24.83 58.62"/><polyline class="cls-5" points="24.93 67.67 25.5 70.79 23.92 68.02"/><rect class="cls-5" x="23.52" y="66.56" width="1.37" height="0.9" rx="0.21" ry="0.21" transform="translate(68.64 122.71) rotate(161.28)"/><rect class="cls-5" x="23.72" y="67.14" width="1.37" height="0.9" rx="0.21" ry="0.21" transform="translate(69.2 123.76) rotate(161.28)"/><polygon class="cls-4" points="26.65 71.81 23.97 71.81 25.31 70.02 26.65 71.81"/><circle class="cls-3" cx="25.55" cy="57.97" r="0.28"/><circle class="cls-3" cx="24.16" cy="59.17" r="0.43"/><circle class="cls-3" cx="26.29" cy="59.16" r="0.16"/><rect class="cls-7" x="51.81" y="22.45" width="0.71" height="2.04"/><circle class="cls-7" cx="52.16" cy="22.19" r="0.68"/><polygon class="cls-8" points="52.96 75.6 55.71 75.6 56.71 55.16 52.96 55.16 52.96 75.6"/><polygon class="cls-8" points="72.58 75.6 69.83 75.6 68.83 55.16 72.58 55.16 72.58 75.6"/><polygon class="cls-9" points="76.33 75.6 73.58 75.6 72.58 56.45 76.33 56.45 76.33 75.6"/><polygon class="cls-9" points="49.33 75.6 52.08 75.6 53.08 56.32 49.33 56.32 49.33 75.6"/><path class="cls-10" d="M72.86,51.37s5.79-2.21,6.09,4.25"/><ellipse class="cls-7" cx="78.95" cy="57.09" rx="0.85" ry="2.23"/><path class="cls-9" d="M68.81,48.93H60.57A2.59,2.59,0,0,1,58,46.72L55.25,28s-.14-4.46-4.54-4.46a4.44,4.44,0,0,0-3.93,2.37,3.52,3.52,0,0,1-2,1.64,20.63,20.63,0,0,1-2.39.69,1.55,1.55,0,0,0-1,2.21l.32.63,7.51,1.18a.74.74,0,0,1,.62.75l-.46,23h0c0,.13,0,.25,0,.37h0A7.52,7.52,0,0,0,56.85,64h12a7.52,7.52,0,0,0,7.52-7.52h0A7.52,7.52,0,0,0,68.81,48.93Z"/><rect class="cls-7" x="50.28" y="22.34" width="0.71" height="2.04"/><circle class="cls-7" cx="50.59" cy="22.1" r="0.68"/><path class="cls-11" d="M52.29,24.78s3.19-.8,4.5.78c0,0-.34,2-3.78.22"/><circle class="cls-7" cx="66.64" cy="58.43" r="0.98"/><ellipse class="cls-7" cx="49.61" cy="26.77" rx="0.31" ry="0.52"/><g class="cls-12"><circle class="cls-7" cx="56.79" cy="54.46" r="3.46"/><circle class="cls-7" cx="64.47" cy="50.57" r="2.89"/><circle class="cls-7" cx="72.35" cy="55.41" r="2.1"/><circle class="cls-7" cx="54.48" cy="45.72" r="1.96"/><circle class="cls-7" cx="49.98" cy="38.29" r="2.31"/><circle class="cls-7" cx="57.61" cy="39.68" r="2.78"/><circle class="cls-7" cx="71.45" cy="49.03" r="2.11"/></g><rect class="cls-7" x="52.96" y="74.5" width="2.75" height="1.1" transform="translate(108.66 150.1) rotate(-180)"/><rect class="cls-7" x="73.58" y="74.5" width="2.75" height="1.1"/><rect class="cls-7" x="69.83" y="74.5" width="2.75" height="1.1"/><rect class="cls-7" x="49.33" y="74.5" width="2.75" height="1.1" transform="translate(101.41 150.1) rotate(-180)"/><path class="cls-13" d="M81.59,81.74H75.77V39.63a25.73,25.73,0,1,0-51.45,0V81.74H18.5V39.63a31.55,31.55,0,1,1,63.09,0Z"/><path class="cls-13" d="M78.8,36.74h0a7.58,7.58,0,0,1,7.58,7.58V81.74a0,0,0,0,1,0,0H71.21a0,0,0,0,1,0,0V44.33A7.58,7.58,0,0,1,78.8,36.74Z"/><path class="cls-13" d="M91.9,46.41h0a3.33,3.33,0,0,1,3.33,3.33v32a0,0,0,0,1,0,0H88.57a0,0,0,0,1,0,0v-32A3.33,3.33,0,0,1,91.9,46.41Z"/><path class="cls-13" d="M8.2,46.41h0a3.33,3.33,0,0,1,3.33,3.33v32a0,0,0,0,1,0,0H4.87a0,0,0,0,1,0,0v-32A3.33,3.33,0,0,1,8.2,46.41Z"/><path class="cls-13" d="M21.3,36.74h0a7.58,7.58,0,0,1,7.58,7.58V81.74a0,0,0,0,1,0,0H13.71a0,0,0,0,1,0,0V44.33A7.58,7.58,0,0,1,21.3,36.74Z"/><path class="cls-14" d="M5,56.45H42.17a0,0,0,0,1,0,0v8.92a0,0,0,0,1,0,0H5A4.46,4.46,0,0,1,.51,60.91v0A4.46,4.46,0,0,1,5,56.45Z" transform="translate(82.25 39.57) rotate(90)"/><path class="cls-14" d="M62.42,56.45H99.63a0,0,0,0,1,0,0v8.92a0,0,0,0,1,0,0H62.42A4.46,4.46,0,0,1,58,60.91v0a4.46,4.46,0,0,1,4.46-4.46Z" transform="translate(139.71 -17.89) rotate(90)"/><rect class="cls-14" x="11.52" y="55.49" width="2.19" height="4.83"/><rect class="cls-14" x="11.52" y="69.08" width="2.19" height="4.83"/><rect class="cls-14" x="86.38" y="55.49" width="2.19" height="4.83"/><rect class="cls-14" x="86.38" y="69.08" width="2.19" height="4.83"/><rect class="cls-2" x="2.55" y="79.49" width="26.33" height="2.25"/><rect class="cls-2" x="71.21" y="79.49" width="26.33" height="2.25"/></svg>