<svg id="Layer_1" data-name="Layer 1" xmlns="http://www.w3.org/2000/svg" viewBox="0 0 100 100"><defs><style>.cls-1{fill:#ebf7fd;}.cls-2{fill:#fff;}.cls-3{fill:#87898b;}.cls-4{fill:#b8c2c8;}.cls-5{fill:#ee4036;}.cls-6{fill:#f37d3b;}</style></defs><title>pressure</title><path class="cls-1" d="M84.07,16.86l-.13-.13C73.42,6.21,64,4.85,63,13.69c-.65,4.31.27,14.29-1.34,20.5a18,18,0,0,1-4.79,9.63l.1-.1a18.91,18.91,0,0,1,10.46-4.89c6.16-1.39,15.52-.47,19.56-1.14C95.77,36.62,94.48,27.34,84.07,16.86Z"/><circle class="cls-1" cx="69.27" cy="11.7" r="9.23"/><circle class="cls-1" cx="88.7" cy="31.13" r="9.23"/><circle class="cls-1" cx="82.22" cy="9.63" r="9.23"/><circle class="cls-1" cx="76.32" cy="24.65" r="9.23"/><circle class="cls-1" cx="90.77" cy="18.17" r="9.23"/><rect class="cls-2" x="85.08" y="22.78" width="2.4" height="8.7" rx="0.48" ry="0.48" transform="translate(113.4 -59.15) rotate(90)"/><rect class="cls-2" x="72.64" y="10.34" width="2.4" height="8.7" rx="0.48" ry="0.48" transform="translate(147.68 29.38) rotate(180)"/><rect class="cls-2" x="80.9" y="14.13" width="2.4" height="8.7" rx="0.48" ry="0.48" transform="translate(37.11 -52.64) rotate(45)"/><circle class="cls-3" cx="35.2" cy="64.4" r="35.2"/><circle class="cls-1" cx="35.2" cy="61.27" r="28.95"/><rect class="cls-4" x="32.86" y="34.75" width="4.54" height="7.9" rx="0.91" ry="0.91"/><rect class="cls-5" x="55.82" y="57.71" width="4.54" height="7.9" rx="0.91" ry="0.91" transform="translate(119.75 3.58) rotate(90)"/><rect class="cls-4" x="9.9" y="57.71" width="4.54" height="7.9" rx="0.91" ry="0.91" transform="translate(73.83 49.5) rotate(90)"/><rect class="cls-4" x="49.09" y="41.48" width="4.54" height="7.9" rx="0.91" ry="0.91" transform="translate(47.17 -23.01) rotate(45)"/><rect class="cls-4" x="16.62" y="73.95" width="4.54" height="7.9" rx="0.91" ry="0.91" transform="translate(60.62 9.46) rotate(45)"/><rect class="cls-5" x="49.09" y="73.95" width="4.54" height="7.9" rx="0.91" ry="0.91" transform="translate(142.76 96.66) rotate(135)"/><rect class="cls-4" x="16.62" y="41.48" width="4.54" height="7.9" rx="0.91" ry="0.91" transform="translate(64.37 64.19) rotate(135)"/><polygon class="cls-6" points="32.36 58.84 34.5 64.94 61.28 52.16 32.36 58.84"/></svg>