<svg id="Layer_1" data-name="Layer 1" xmlns="http://www.w3.org/2000/svg" viewBox="0 0 100 100"><defs><style>.cls-1{fill:#6d4945;}.cls-2{fill:#895e59;}.cls-3{fill:#6ab8d9;}.cls-4{fill:#3e3e3f;}.cls-5{fill:#ebf7fd;}.cls-6{fill:#231f20;}.cls-7{fill:#09a582;}.cls-8{fill:#ffc640;}</style></defs><title>field</title><rect class="cls-1" x="28.82" y="33.86" width="71.18" height="15.74" rx="3.95" ry="3.95"/><polyline class="cls-1" points="69.09 75.93 97.54 47.48 97.54 37.73 95.81 35.25 51.73 56.65"/><path class="cls-2" d="M31.18,36.13,3,64.42H68.14L97,35.56h-.07a7.74,7.74,0,0,0-4.81-1.7H36.69a7.77,7.77,0,0,0-3.61.92"/><path class="cls-1" d="M63.31,62.74H7.87a7.87,7.87,0,0,0,0,15.74H63.31a7.87,7.87,0,1,0,0-15.74Z"/><rect class="cls-1" x="15.09" y="55.6" width="52.67" height="2.02" rx="0.51" ry="0.51"/><rect class="cls-1" x="21.39" y="49.99" width="52.67" height="2.02" rx="0.51" ry="0.51"/><rect class="cls-1" x="27.7" y="44.39" width="52.67" height="2.02" rx="0.51" ry="0.51"/><rect class="cls-1" x="34" y="38.79" width="52.67" height="2.02" rx="0.51" ry="0.51"/><rect class="cls-3" x="69.51" y="21.52" width="10.04" height="14.5"/><rect class="cls-4" x="83.46" y="26.52" width="1.05" height="3.38" rx="0.26" ry="0.26"/><rect class="cls-4" x="85.97" y="25.85" width="1.05" height="3.38" rx="0.26" ry="0.26"/><rect class="cls-3" x="77.2" y="28.66" width="10.84" height="7.36"/><rect class="cls-5" x="72.41" y="22.65" width="5.46" height="5.02"/><circle class="cls-4" cx="72.56" cy="34.36" r="5.12"/><circle class="cls-6" cx="72.56" cy="34.36" r="2.56"/><rect class="cls-4" x="70.61" y="28.27" width="3.89" height="2.63" rx="0.66" ry="0.66"/><rect class="cls-4" x="70.61" y="37.82" width="3.89" height="2.63" rx="0.66" ry="0.66"/><rect class="cls-4" x="75.39" y="33.04" width="3.89" height="2.63" rx="0.66" ry="0.66" transform="translate(111.7 -42.97) rotate(90)"/><rect class="cls-4" x="65.83" y="33.04" width="3.89" height="2.63" rx="0.66" ry="0.66" transform="translate(102.14 -33.42) rotate(90)"/><rect class="cls-4" x="73.99" y="29.67" width="3.89" height="2.63" rx="0.66" ry="0.66" transform="translate(44.15 -44.62) rotate(45)"/><rect class="cls-4" x="67.23" y="36.42" width="3.89" height="2.63" rx="0.66" ry="0.66" transform="translate(46.95 -37.86) rotate(45)"/><rect class="cls-4" x="73.99" y="36.42" width="3.89" height="2.63" rx="0.66" ry="0.66" transform="translate(156.32 10.73) rotate(135)"/><rect class="cls-4" x="67.23" y="29.67" width="3.89" height="2.63" rx="0.66" ry="0.66" transform="translate(140 3.97) rotate(135)"/><circle class="cls-4" cx="85.87" cy="36.31" r="3.56"/><circle class="cls-6" cx="85.87" cy="36.31" r="1.78"/><rect class="cls-4" x="84.52" y="32.07" width="2.7" height="1.83" rx="0.46" ry="0.46"/><rect class="cls-4" x="84.52" y="38.71" width="2.7" height="1.83" rx="0.46" ry="0.46"/><rect class="cls-4" x="87.84" y="35.39" width="2.7" height="1.83" rx="0.46" ry="0.46" transform="translate(125.5 -52.88) rotate(90)"/><rect class="cls-4" x="81.2" y="35.39" width="2.7" height="1.83" rx="0.46" ry="0.46" transform="translate(118.85 -46.24) rotate(90)"/><rect class="cls-4" x="86.87" y="33.04" width="2.7" height="1.83" rx="0.46" ry="0.46" transform="translate(49.85 -52.43) rotate(45)"/><rect class="cls-4" x="82.17" y="37.74" width="2.7" height="1.83" rx="0.46" ry="0.46" transform="translate(51.79 -47.74) rotate(45)"/><rect class="cls-4" x="86.87" y="37.74" width="2.7" height="1.83" rx="0.46" ry="0.46" transform="translate(177.93 3.61) rotate(135)"/><rect class="cls-4" x="82.17" y="33.04" width="2.7" height="1.83" rx="0.46" ry="0.46" transform="translate(166.59 -1.09) rotate(135)"/><rect class="cls-7" x="22.68" y="52.42" width="0.68" height="3.91" rx="0.17" ry="0.17"/><rect class="cls-8" x="21.76" y="46.59" width="2.49" height="6.34" rx="0.62" ry="0.62"/><path class="cls-7" d="M24,52.46a1.73,1.73,0,0,1-.52,2A1,1,0,0,1,22,53.76a31.06,31.06,0,0,1-.4-4.47A22.07,22.07,0,0,1,24,52.46Z"/><path class="cls-7" d="M22,52.46a1.72,1.72,0,0,0,.52,2A1,1,0,0,0,24,53.76a31.06,31.06,0,0,0,.4-4.47A22.07,22.07,0,0,0,22,52.46Z"/><rect class="cls-7" x="54.15" y="52.42" width="0.68" height="3.91" rx="0.17" ry="0.17"/><rect class="cls-8" x="53.23" y="46.59" width="2.49" height="6.34" rx="0.62" ry="0.62"/><path class="cls-7" d="M55.47,52.46a1.72,1.72,0,0,1-.52,2c-.56.36-1.24,0-1.52-.69A32.3,32.3,0,0,1,53,49.29,22.14,22.14,0,0,1,55.47,52.46Z"/><path class="cls-7" d="M53.46,52.46a1.72,1.72,0,0,0,.53,2c.56.36,1.24,0,1.52-.69a32.3,32.3,0,0,0,.39-4.47A22.82,22.82,0,0,0,53.46,52.46Z"/><rect class="cls-7" x="42.67" y="52.34" width="0.68" height="3.91" rx="0.17" ry="0.17" transform="translate(-11.25 11.24) rotate(-13.18)"/><rect class="cls-8" x="40.7" y="46.64" width="2.49" height="6.34" rx="0.62" ry="0.62" transform="translate(-10.25 10.88) rotate(-13.18)"/><path class="cls-7" d="M43.54,52.2a1.73,1.73,0,0,1-.06,2.06,1,1,0,0,1-1.63-.32,31.43,31.43,0,0,1-1.41-4.26A23,23,0,0,1,43.54,52.2Z"/><path class="cls-7" d="M41.58,52.66a1.72,1.72,0,0,0,1,1.82c.64.22,1.23-.24,1.33-1A31.43,31.43,0,0,0,43.23,49,22.64,22.64,0,0,0,41.58,52.66Z"/><rect class="cls-7" x="27.19" y="52.4" width="0.68" height="3.91" rx="0.17" ry="0.17" transform="translate(7.87 -3.32) rotate(8.04)"/><path class="cls-8" d="M27.54,46.61h1.24a.62.62,0,0,1,.62.62v5.09a.62.62,0,0,1-.62.62H27.54a.62.62,0,0,1-.62-.62V47.23a.63.63,0,0,1,.63-.63Z" transform="translate(7.24 -3.45) rotate(8.04)"/><path class="cls-7" d="M28.77,52.59A1.7,1.7,0,0,1,28,54.48c-.61.28-1.24-.12-1.41-.89a31.42,31.42,0,0,1,.23-4.47A21.63,21.63,0,0,1,28.77,52.59Z"/><path class="cls-7" d="M26.78,52.31a1.74,1.74,0,0,0,.24,2,1,1,0,0,0,1.6-.47,30.94,30.94,0,0,0,1-4.36A22.86,22.86,0,0,0,26.78,52.31Z"/><rect class="cls-7" x="48.66" y="53.39" width="0.51" height="2.92" rx="0.13" ry="0.13" transform="matrix(0.99, 0.14, -0.14, 0.99, 8.15, -6.3)"/><rect class="cls-8" x="48.45" y="49.07" width="1.86" height="4.73" rx="0.47" ry="0.47" transform="translate(7.68 -6.4) rotate(8.04)"/><path class="cls-7" d="M49.84,53.53a1.27,1.27,0,0,1-.59,1.41c-.46.21-.93-.09-1-.66a23,23,0,0,1,.17-3.34A16.41,16.41,0,0,1,49.84,53.53Z"/><path class="cls-7" d="M48.36,53.32a1.27,1.27,0,0,0,.18,1.52c.38.33.91.17,1.19-.35a23.38,23.38,0,0,0,.76-3.25A16.44,16.44,0,0,0,48.36,53.32Z"/><path class="cls-1" d="M39.57,39.19a1.4,1.4,0,0,1-2.8,0c0-.78.62-2.2,1.4-2.2S39.57,38.41,39.57,39.19Z"/><path class="cls-1" d="M43.85,39.19a1.4,1.4,0,0,1-2.8,0c0-.78.63-2.2,1.4-2.2S43.85,38.41,43.85,39.19Z"/><path class="cls-1" d="M48.13,39.19a1.4,1.4,0,0,1-2.8,0c0-.78.63-2.2,1.4-2.2S48.13,38.41,48.13,39.19Z"/><path class="cls-1" d="M52.41,39.19a1.4,1.4,0,1,1-2.79,0c0-.78.62-2.2,1.4-2.2S52.41,38.41,52.41,39.19Z"/><path class="cls-1" d="M56.7,39.19a1.4,1.4,0,0,1-2.8,0c0-.78.62-2.2,1.4-2.2S56.7,38.41,56.7,39.19Z"/><path class="cls-1" d="M61,39.19a1.4,1.4,0,0,1-2.8,0c0-.78.63-2.2,1.4-2.2S61,38.41,61,39.19Z"/><path class="cls-1" d="M65.26,39.19a1.4,1.4,0,0,1-2.8,0c0-.78.63-2.2,1.4-2.2S65.26,38.41,65.26,39.19Z"/><rect class="cls-7" x="56.05" y="41.77" width="0.68" height="3.91" rx="0.17" ry="0.17"/><rect class="cls-8" x="55.13" y="35.93" width="2.49" height="6.34" rx="0.62" ry="0.62"/><path class="cls-7" d="M57.38,41.8a1.72,1.72,0,0,1-.53,2c-.56.36-1.24.05-1.51-.69a30.83,30.83,0,0,1-.4-4.46A22.62,22.62,0,0,1,57.38,41.8Z"/><path class="cls-7" d="M55.37,41.8a1.72,1.72,0,0,0,.52,2,1,1,0,0,0,1.52-.69,30.83,30.83,0,0,0,.4-4.46A21.88,21.88,0,0,0,55.37,41.8Z"/><path class="cls-7" d="M68.66,44.65a.86.86,0,0,1-.27,1c-.28.18-.62,0-.75-.35a15.24,15.24,0,0,1-.2-2.22A11.31,11.31,0,0,1,68.66,44.65Z"/><path class="cls-7" d="M67.65,44.65a.87.87,0,0,0,.26,1c.29.18.62,0,.76-.35a15.24,15.24,0,0,0,.2-2.22A11.31,11.31,0,0,0,67.65,44.65Z"/><path class="cls-7" d="M74.77,44.65a.87.87,0,0,1-.26,1c-.29.18-.62,0-.76-.35a15.24,15.24,0,0,1-.2-2.22A11.31,11.31,0,0,1,74.77,44.65Z"/><path class="cls-7" d="M73.77,44.65a.86.86,0,0,0,.26,1c.28.18.62,0,.75-.35a15.24,15.24,0,0,0,.2-2.22A10.65,10.65,0,0,0,73.77,44.65Z"/><path class="cls-7" d="M79.15,44.65a.86.86,0,0,1-.26,1c-.28.18-.62,0-.76-.35a16.5,16.5,0,0,1-.19-2.22A10.65,10.65,0,0,1,79.15,44.65Z"/><path class="cls-7" d="M78.15,44.65a.86.86,0,0,0,.26,1c.28.18.62,0,.76-.35a16.8,16.8,0,0,0,.2-2.22A11.31,11.31,0,0,0,78.15,44.65Z"/><path class="cls-7" d="M65.63,50.25a.87.87,0,0,1-.26,1c-.29.18-.62,0-.76-.34a15.47,15.47,0,0,1-.2-2.23A11.31,11.31,0,0,1,65.63,50.25Z"/><path class="cls-7" d="M64.63,50.25a.85.85,0,0,0,.26,1,.51.51,0,0,0,.75-.34,15.47,15.47,0,0,0,.2-2.23A10.65,10.65,0,0,0,64.63,50.25Z"/><path class="cls-7" d="M62.2,55.27a.85.85,0,0,1-.27,1,.51.51,0,0,1-.75-.34,15.47,15.47,0,0,1-.2-2.23A11.31,11.31,0,0,1,62.2,55.27Z"/><path class="cls-7" d="M61.19,55.27a.87.87,0,0,0,.26,1c.29.18.62,0,.76-.34a15.47,15.47,0,0,0,.2-2.23A11.31,11.31,0,0,0,61.19,55.27Z"/><path class="cls-7" d="M32.63,44.65a.87.87,0,0,1-.26,1c-.28.18-.62,0-.76-.35a15.24,15.24,0,0,1-.2-2.22A11.31,11.31,0,0,1,32.63,44.65Z"/><path class="cls-7" d="M31.63,44.65a.86.86,0,0,0,.26,1c.28.18.62,0,.75-.35a15.24,15.24,0,0,0,.2-2.22A10.65,10.65,0,0,0,31.63,44.65Z"/></svg>