<svg id="Layer_1" data-name="Layer 1" xmlns="http://www.w3.org/2000/svg" viewBox="0 0 100 100"><defs><style>.cls-1{fill:#80726f;}.cls-2{fill:#4e4544;}.cls-3{fill:#a69997;}.cls-4{fill:#272322;}</style></defs><title>cave</title><polyline class="cls-1" points="83.65 100 4.16 100 7.34 70.35 14.52 65.96 21.59 39.99 34.88 29.75 55.12 0 60.85 1.1 71.3 52.32 85.23 47.57 95.84 100"/><polygon class="cls-2" points="53.05 47.12 51.59 58.4 46.1 65.59 41.22 76.23 41.22 94.86 42.56 100 69.87 100 69.87 85.59 59.51 73.56 52.2 64.62 56.22 56.69 53.05 47.12"/><polygon class="cls-3" points="21.59 39.99 34.88 29.75 45.49 28.16 40.49 37.8 21.59 39.99"/><polygon class="cls-3" points="14.52 65.96 23.42 68.89 7.34 70.35 14.52 65.96"/><polygon class="cls-3" points="71.3 52.32 85.23 47.57 88.95 65.96 71.3 52.32"/><polygon class="cls-3" points="55.12 0 60.85 1.1 40.24 21.87 55.12 0"/><polygon class="cls-4" points="50.71 73.56 45.41 67.09 41.22 76.23 41.22 94.86 42.56 100 61.07 100 61.07 85.59 50.71 73.56"/></svg>