<svg id="Layer_1" data-name="Layer 1" xmlns="http://www.w3.org/2000/svg" viewBox="0 0 100 100"><defs><style>.cls-1{fill:#dbdcdd;}.cls-2{fill:#a6a8ab;}.cls-3{fill:#9dc8dc;}.cls-4{fill:#b3b3b3;}.cls-5{fill:#9c9c9c;}.cls-6{fill:#00a69c;}</style></defs><title>hangar</title><path class="cls-1" d="M46.45,26.45h7.09A42.36,42.36,0,0,1,95.91,68.81v2.9a0,0,0,0,1,0,0H4.09a0,0,0,0,1,0,0v-2.9A42.36,42.36,0,0,1,46.45,26.45Z"/><rect class="cls-2" x="35.66" y="49.27" width="28.68" height="22.43"/><rect class="cls-3" x="23.42" y="56.97" width="8.91" height="5.47"/><rect class="cls-3" x="67.45" y="56.97" width="8.91" height="5.47"/><rect class="cls-3" x="35.66" y="42.99" width="28.68" height="4.46"/><path class="cls-4" d="M6.29,71.71V69.83A41.22,41.22,0,0,1,47.47,28.65h5.06A41.22,41.22,0,0,1,93.71,69.83v1.88h4.4V69.83A45.64,45.64,0,0,0,52.53,24.25H47.47A45.64,45.64,0,0,0,1.89,69.83v1.88Z"/><rect class="cls-5" x="48.79" y="40.32" width="2.41" height="28.68" transform="translate(104.66 4.66) rotate(90)"/><rect class="cls-5" x="48.79" y="46.26" width="2.41" height="28.68" transform="translate(110.6 10.6) rotate(90)"/><rect class="cls-5" x="48.79" y="52.2" width="2.41" height="28.68" transform="translate(116.54 16.54) rotate(90)"/><rect class="cls-6" y="71.71" width="100" height="4.04"/></svg>