<svg id="Layer_1" data-name="Layer 1" xmlns="http://www.w3.org/2000/svg" viewBox="0 0 100 100"><defs><style>.cls-1{fill:#ecd2ad;}.cls-2{fill:#d2b490;}.cls-3{fill:#f1dcbd;}</style></defs><title>box</title><path class="cls-1" d="M2.86,4.74H97.14a0,0,0,0,1,0,0V90.22a8.8,8.8,0,0,1-8.8,8.8H11.66a8.8,8.8,0,0,1-8.8-8.8V4.74A0,0,0,0,1,2.86,4.74Z"/><rect class="cls-2" x="2.95" y="15.91" width="94.11" height="6.09"/><rect class="cls-3" y="0.98" width="100" height="17.75"/><rect class="cls-2" x="31.3" y="31.38" width="37.4" height="10.69" rx="5.35" ry="5.35"/><path class="cls-2" d="M8.63,74.42a17.48,17.48,0,0,0-5.77,1V90.22a8.8,8.8,0,0,0,8.8,8.8h13a17.45,17.45,0,0,0,1.48-7A17.54,17.54,0,0,0,8.63,74.42Z"/><path class="cls-2" d="M91.37,74.42a17.48,17.48,0,0,1,5.77,1V90.22a8.8,8.8,0,0,1-8.8,8.8h-13a17.55,17.55,0,0,1,16.06-24.6Z"/></svg>