<svg id="Layer_1" data-name="Layer 1" xmlns="http://www.w3.org/2000/svg" viewBox="0 0 100 100"><defs><style>.cls-1{fill:#c5c7c9;}.cls-2{fill:#fff;}.cls-3{fill:#685c5a;}.cls-4{fill:#90807d;}.cls-5{fill:#6ab8d9;}.cls-6{fill:#a9ccdd;}.cls-7{fill:#7d7d7d;}.cls-8{fill:#ededed;}.cls-9{fill:#616161;}.cls-10{fill:#a6a8ab;}.cls-11{fill:#909295;}</style></defs><title>library</title><rect class="cls-1" x="10.14" y="38.03" width="79.63" height="55.8"/><polygon class="cls-1" points="85.52 35.5 14.48 35.5 50 5.33 85.52 35.5"/><path class="cls-2" d="M50,8.18,82.16,35.5H17.84L50,8.18M50,0,46,3.43,13.8,30.75.88,41.73H99.12l-12.92-11L54,3.43,50,0Z"/><rect class="cls-2" x="7.09" y="93.21" width="85.82" height="6.79"/><rect class="cls-2" x="25.82" y="38.46" width="10.7" height="54.75"/><rect class="cls-2" x="63.47" y="38.55" width="10.7" height="54.75"/><path class="cls-3" d="M58.51,93.3H41.11V67.8a8.7,8.7,0,0,1,8.7-8.7h0a8.7,8.7,0,0,1,8.7,8.7Z"/><path class="cls-4" d="M56.55,93.3H43.06V67.75A6.75,6.75,0,0,1,49.81,61h0a6.74,6.74,0,0,1,6.74,6.74Z"/><rect class="cls-5" x="13.26" y="59.59" width="9.35" height="19.46"/><polygon class="cls-6" points="13.26 79.05 13.26 59.59 22.61 59.59 13.26 79.05"/><path class="cls-3" d="M22,60.25V78.5H14V60.25H22m1.15-1.15H12.83V79.64H23.19V59.1Z"/><rect class="cls-3" x="17.44" y="60.09" width="1.14" height="19.17"/><rect class="cls-3" x="13.08" y="65.59" width="9.86" height="1.14"/><rect class="cls-3" x="13.08" y="72.26" width="9.86" height="1.14"/><rect class="cls-5" x="77.41" y="59.53" width="9.35" height="19.46"/><polygon class="cls-6" points="77.41 78.99 77.41 59.53 86.76 59.53 77.41 78.99"/><path class="cls-3" d="M86.19,60.19V78.44H78.13V60.19h8.06M87.34,59H77V79.59H87.34V59Z"/><rect class="cls-3" x="81.59" y="60.04" width="1.14" height="19.17"/><rect class="cls-3" x="77.23" y="65.54" width="9.86" height="1.14"/><rect class="cls-3" x="77.23" y="72.2" width="9.86" height="1.14"/><circle class="cls-7" cx="50.62" cy="24.58" r="6.73"/><circle class="cls-8" cx="50.62" cy="24.58" r="5.77"/><path class="cls-9" d="M50.57,21.42h0A.6.6,0,0,0,50,22v2.92a.59.59,0,0,0,.59.59h0a.59.59,0,0,0,.6-.59V22A.6.6,0,0,0,50.57,21.42Z"/><path class="cls-9" d="M55.28,25h0a.55.55,0,0,0-.55-.55h-4.2A.55.55,0,0,0,50,25h0a.55.55,0,0,0,.55.55h4.2A.54.54,0,0,0,55.28,25Z"/><rect class="cls-2" x="22.94" y="38.46" width="16.26" height="6.26"/><rect class="cls-2" x="22.94" y="88.99" width="16.26" height="6.26"/><rect class="cls-2" x="60.7" y="88.99" width="16.26" height="6.26"/><rect class="cls-2" x="60.7" y="38.46" width="16.26" height="6.26"/><rect class="cls-8" x="27.3" y="45.99" width="1.43" height="41.57"/><rect class="cls-8" x="30.44" y="45.99" width="1.43" height="41.57"/><rect class="cls-8" x="33.58" y="45.99" width="1.43" height="41.57"/><rect class="cls-8" x="64.97" y="45.38" width="1.43" height="41.57"/><rect class="cls-8" x="68.11" y="45.38" width="1.43" height="41.57"/><rect class="cls-8" x="71.25" y="45.38" width="1.43" height="41.57"/><rect class="cls-10" x="21.5" y="93.21" width="57.34" height="3.4"/><rect class="cls-11" x="16.7" y="96.6" width="66.23" height="3.4"/><path class="cls-11" d="M45.08,46h0a.44.44,0,0,0-.45.45v6.77a.45.45,0,0,0,.45.45,5.65,5.65,0,0,1,4,1.5V48.07a.46.46,0,0,0-.06-.23,4.6,4.6,0,0,0-4-1.85Zm0,0"/><path class="cls-11" d="M54.29,53.21V46.44a.45.45,0,0,0-.14-.32.44.44,0,0,0-.31-.13h0a4.59,4.59,0,0,0-4,1.85.46.46,0,0,0-.06.23v7.09a5.61,5.61,0,0,1,4-1.5.46.46,0,0,0,.46-.45Zm0,0"/><path class="cls-11" d="M55.31,47.55H55v5.66a1.17,1.17,0,0,1-1.15,1.16,5,5,0,0,0-3.41,1.16,10.83,10.83,0,0,1,4.78.09.46.46,0,0,0,.56-.44V48a.47.47,0,0,0-.46-.46Zm0,0"/><path class="cls-11" d="M43.93,53.21V47.55H43.6a.46.46,0,0,0-.45.46v7.17a.43.43,0,0,0,.17.35.44.44,0,0,0,.38.09,10.84,10.84,0,0,1,4.78-.09,5,5,0,0,0-3.4-1.16,1.17,1.17,0,0,1-1.15-1.16Zm0,0"/><circle class="cls-3" cx="54.63" cy="77.91" r="1.08"/></svg>