<svg id="Layer_1" data-name="Layer 1" xmlns="http://www.w3.org/2000/svg" xmlns:xlink="http://www.w3.org/1999/xlink" viewBox="0 0 100 100"><defs><style>.cls-1{fill:none;}.cls-2{clip-path:url(#clip-path);}.cls-3{fill:#685c5a;}.cls-4{fill:#faaf40;}.cls-5{fill:#5b3c38;}.cls-6{fill:#91775a;}.cls-7{fill:#c4ae94;}.cls-8{fill:#f05c38;}.cls-9{fill:#b6a574;}.cls-10{fill:#847a55;}.cls-11{fill:#c7552e;}.cls-12{fill:#452a27;}.cls-13{fill:#aa7562;}.cls-14{fill:#ffdb91;}.cls-15{fill:#80726f;}.cls-16{fill:#7191a0;}.cls-17{fill:#5b5d6e;}.cls-18{fill:#ffc640;}.cls-19{fill:#6d4945;}.cls-20{fill:#f37d60;}</style><clipPath id="clip-path"><rect class="cls-1" y="41.48" width="45.26" height="41.39"/></clipPath></defs><title>librarian</title><g class="cls-2"><path class="cls-3" d="M0,69a3,3,0,0,1,3-3h7.86a1,1,0,0,1,0-2v-5.9a1,1,0,0,1,0-2h-2V49.34h2a1,1,0,1,1,0-2h1V43.44h-1a1,1,0,0,1,0-2H42.31a3,3,0,0,1,2.95,3v2a3,3,0,0,1-2.95,3H30.52v6.89H42.31a3,3,0,0,1,2.95,3v3.93a3,3,0,0,1-2.95,3H34.45a1,1,0,1,1,0,2h-1V72h1a1,1,0,1,1,0,2h6.88a1,1,0,0,1,1,1v6.88a1,1,0,0,1-1,1H4a1,1,0,0,1-1-1V74.91a1,1,0,0,1,1-1H3A3,3,0,0,1,0,71V69Zm0,0"/><path class="cls-4" d="M33.46,73.92h2.95v8.85H33.46ZM8.88,82.77h2.95V73.92H8.88Zm0-8.85"/><path class="cls-5" d="M1,56.23a1,1,0,0,1-1-1V50.33a1,1,0,0,1,1-1h9.83a1,1,0,1,1,0-2h1V43.44h-1a1,1,0,0,1,0-2H42.31a3,3,0,0,1,2.95,3v2a3,3,0,0,1-2.95,3H38.38a1,1,0,0,1,1,1v4.91a1,1,0,0,1-1,1h3.93a3,3,0,0,1,2.95,3v3.93a3,3,0,0,1-2.95,3H34.45a1,1,0,1,1,0,2h-1V72h1a1,1,0,1,1,0,2H3A3,3,0,0,1,0,71V69a3,3,0,0,1,3-3h7.86a1,1,0,0,1,0-2v-5.9a1,1,0,0,1,0-2H1Zm7.86,0"/></g><path class="cls-6" d="M2,69.5A1.48,1.48,0,0,1,3.48,68H31.76a7.59,7.59,0,0,0,0,3.94H3.48A1.48,1.48,0,0,1,2,70.48v-1ZM43.3,44.92a1.48,1.48,0,0,0-1.48-1.48H13.54a7.59,7.59,0,0,1,0,3.94H41.82A1.48,1.48,0,0,0,43.3,45.9v-1Zm0,0"/><path class="cls-7" d="M4,69.5A1.47,1.47,0,0,1,5.44,68H33.73a7.32,7.32,0,0,0,0,3.94H5.44A1.47,1.47,0,0,1,4,70.48v-1ZM41.33,44.92a1.47,1.47,0,0,0-1.47-1.48H11.57a7.59,7.59,0,0,1,0,3.94H39.86a1.47,1.47,0,0,0,1.47-1.48v-1Zm0,0"/><path class="cls-6" d="M9.51,70c0-.27,3.3-.49,7.37-.49s7.38.22,7.38.49-3.31.49-7.38.49S9.51,70.26,9.51,70Zm5.77-25.56c-1.27,0-2.46,0-3.5.06a7.81,7.81,0,0,1,.05.86c1,0,2.2.06,3.45.06,4.07,0,7.37-.22,7.37-.49s-3.3-.49-7.37-.49Zm0,0"/><path class="cls-8" d="M13.8,70.48a.49.49,0,0,1,.49-.49h4.92a.49.49,0,0,1,.49.49v6.39l-2.95-1-2.95,1Zm0,6.39"/><path class="cls-9" d="M0,50.33a1,1,0,0,1,1-1H38.38a1,1,0,0,1,1,1v4.91a1,1,0,0,1-1,1h3.93a3,3,0,0,1,2.95,3v3.93a3,3,0,0,1-2.95,3H10.85a1,1,0,0,1,0-2v-5.9a1,1,0,0,1,0-2H1a1,1,0,0,1-1-1V50.33Zm0,0"/><path class="cls-10" d="M8.88,49.34H30.52v6.89H8.88Zm24.58,6.89h2V49.34h-2ZM3,56.23H6.92V49.34H3Zm0-6.89"/><path class="cls-11" d="M9.87,65.07a1,1,0,0,1,1-1v-5.9a1,1,0,0,1,0-2H42.31a3,3,0,0,1,2.95,3v3.93a3,3,0,0,1-2.95,3H10.85a1,1,0,0,1-1-1Zm0,0"/><path class="cls-6" d="M42.09,58.19c.81,0,1.47,1,1.47,2.21v1.48c0,1.22-.66,2.21-1.47,2.21H13.8a15.57,15.57,0,0,0,.26-3,15.64,15.64,0,0,0-.26-3Zm0,0"/><path class="cls-7" d="M39.81,58.19c.84,0,1.52,1,1.52,2.21v1.48c0,1.22-.68,2.21-1.52,2.21H10.59a15.52,15.52,0,0,0,.27-3,15.6,15.6,0,0,0-.27-3Zm0,0"/><path class="cls-6" d="M28.68,60.65c4.07,0,7.37.22,7.37.49s-3.3.49-7.37.49-7.37-.22-7.37-.49,3.3-.49,7.37-.49ZM10.83,62.13c0,.33-.05.66-.09,1h.34c4.07,0,7.37-.22,7.37-.49s-3.3-.49-7.37-.49Zm0,0"/><rect class="cls-12" x="50.64" y="5.01" width="47.66" height="81.72"/><path class="cls-13" d="M75.2,47.42H71a1,1,0,0,1-1-1v-25a1,1,0,0,1,1-1H75.2a1,1,0,0,1,1,1v25a1,1,0,0,1-1,1Zm0,0"/><path class="cls-3" d="M71,20.37a1,1,0,0,0-1,1v25a1,1,0,0,0,1,1Zm0,0"/><path class="cls-14" d="M73.75,37.68,75,33.91a.62.62,0,0,0,0-.33L73.75,29.8a.26.26,0,0,0-.49,0L72,33.58a.47.47,0,0,0,0,.33l1.26,3.77a.26.26,0,0,0,.49,0Zm0,0"/><path class="cls-15" d="M61.68,47.42H56.47a1,1,0,0,1-1-1V23.49a1,1,0,0,1,1-1h5.21a1,1,0,0,1,1,1V46.38a1,1,0,0,1-1,1Zm0,0"/><path class="cls-3" d="M55.43,23.49V46.38a1,1,0,0,0,1,1v-25a1,1,0,0,0-1,1Zm0,0"/><path class="cls-16" d="M69,47.42h-5.2a1,1,0,0,1-1-1V18.29a1,1,0,0,1,1-1H69a1,1,0,0,1,1,1V46.38a1,1,0,0,1-1,1Zm0,0"/><path class="cls-17" d="M63.76,47.42V17.25a1,1,0,0,0-1,1V46.38a1,1,0,0,0,1,1Zm0,0"/><path class="cls-14" d="M67.13,30.69,68,28.13a.41.41,0,0,0,0-.22l-.85-2.56a.18.18,0,0,0-.34,0l-.85,2.56a.28.28,0,0,0,0,.22l.85,2.56a.18.18,0,0,0,.34,0Zm0,0"/><path class="cls-14" d="M67.13,38,68,35.44a.45.45,0,0,0,0-.23l-.85-2.56a.18.18,0,0,0-.34,0l-.85,2.56a.31.31,0,0,0,0,.23L66.79,38a.18.18,0,0,0,.34,0Zm0,0"/><rect class="cls-14" x="62.72" y="19.33" width="7.28" height="1.04"/><rect class="cls-14" x="62.72" y="21.41" width="7.28" height="1.04"/><rect class="cls-14" x="62.72" y="42.21" width="7.28" height="1.04"/><rect class="cls-14" x="62.72" y="44.3" width="7.28" height="1.04"/><rect class="cls-14" x="55.43" y="43.26" width="7.28" height="1.04"/><rect class="cls-14" x="70" y="43.26" width="6.24" height="1.04"/><rect class="cls-14" x="70" y="23.49" width="6.24" height="1.04"/><rect class="cls-14" x="55.43" y="25.57" width="7.28" height="1.04"/><rect class="cls-18" x="62.72" y="19.33" width="1.04" height="1.04"/><rect class="cls-18" x="62.72" y="21.41" width="1.04" height="1.04"/><rect class="cls-18" x="55.43" y="25.57" width="1.04" height="1.04"/><rect class="cls-18" x="55.43" y="43.26" width="1.04" height="1.04"/><rect class="cls-18" x="70" y="23.49" width="1.04" height="1.04"/><rect class="cls-18" x="70" y="43.26" width="1.04" height="1.04"/><rect class="cls-18" x="62.72" y="42.21" width="1.04" height="1.04"/><rect class="cls-18" x="62.72" y="44.3" width="1.04" height="1.04"/><circle class="cls-14" cx="59.67" cy="34.77" r="1.19"/><circle class="cls-14" cx="59.67" cy="30.81" r="1.19"/><circle class="cls-14" cx="59.67" cy="38.7" r="1.19"/><rect class="cls-19" x="48.93" y="5.01" width="3.41" height="89.99"/><rect class="cls-19" x="96.59" y="5.01" width="3.41" height="89.99"/><rect class="cls-19" x="72.76" y="-18.82" width="3.41" height="51.07" transform="translate(81.18 -67.75) rotate(90)"/><rect class="cls-19" x="72.76" y="61.2" width="3.41" height="51.07" transform="translate(161.2 12.26) rotate(90)"/><rect class="cls-19" x="72.76" y="23.59" width="3.41" height="51.07" transform="translate(123.59 -25.34) rotate(90)"/><rect class="cls-16" x="76.24" y="25.22" width="6.6" height="21.97" rx="1.25" ry="1.25"/><rect class="cls-15" x="87.67" y="17.48" width="4.89" height="29.71" rx="1.25" ry="1.25"/><rect class="cls-8" x="82.84" y="20.77" width="4.83" height="26.42" rx="1.18" ry="1.18"/><rect class="cls-3" x="87.67" y="20.23" width="4.89" height="3.4"/><rect class="cls-20" x="82.81" y="24.39" width="4.89" height="3.4"/><rect class="cls-20" x="82.81" y="40.51" width="4.89" height="3.4"/><rect class="cls-20" x="82.81" y="38.7" width="4.89" height="0.86"/><rect class="cls-20" x="82.81" y="28.45" width="4.89" height="0.86"/><rect class="cls-3" x="87.67" y="25.57" width="4.89" height="16.06"/><rect class="cls-17" x="76.24" y="43.92" width="6.57" height="1.46"/><rect class="cls-17" x="76.24" y="27.72" width="6.57" height="1.46"/><rect class="cls-17" x="76.24" y="31.49" width="6.57" height="10.72"/><path class="cls-13" d="M73.72,85a1,1,0,0,1-1-1V59a1,1,0,0,1,1-1h4.16a1,1,0,0,1,1,1V84a1,1,0,0,1-1,1Zm0,0"/><path class="cls-3" d="M77.88,85a1,1,0,0,0,1-1V59a1,1,0,0,0-1-1Zm0-27"/><path class="cls-15" d="M87.25,85a1,1,0,0,1-1-1V61.09a1,1,0,0,1,1-1h5.2a1,1,0,0,1,1,1V84a1,1,0,0,1-1,1Zm0,0"/><path class="cls-3" d="M93.49,61.09a1,1,0,0,0-1-1V85a1,1,0,0,0,1-1V61.09Zm0,0"/><path class="cls-16" d="M80,85a1,1,0,0,1-1-1V55.89a1,1,0,0,1,1-1h5.21a1,1,0,0,1,1,1V84a1,1,0,0,1-1,1Zm0,0"/><path class="cls-17" d="M85.17,85a1,1,0,0,0,1-1V55.89a1,1,0,0,0-1-1V85Zm0,0"/><rect class="cls-17" x="78.92" y="56.93" width="7.28" height="1.04"/><rect class="cls-17" x="78.92" y="59.01" width="7.28" height="1.04"/><rect class="cls-17" x="78.92" y="79.82" width="7.28" height="1.04"/><rect class="cls-17" x="78.92" y="81.9" width="7.28" height="1.04"/><rect class="cls-3" x="86.21" y="80.86" width="7.28" height="1.04"/><rect class="cls-3" x="72.68" y="80.86" width="6.24" height="1.04"/><rect class="cls-3" x="72.68" y="61.09" width="6.24" height="1.04"/><rect class="cls-3" x="86.21" y="63.17" width="7.28" height="1.04"/><rect class="cls-16" x="66.08" y="63.08" width="6.6" height="21.97" rx="1.25" ry="1.25" transform="translate(138.76 148.13) rotate(-180)"/><rect class="cls-15" x="56.37" y="55.28" width="4.89" height="29.71" rx="1.25" ry="1.25" transform="translate(117.62 140.27) rotate(-180)"/><rect class="cls-8" x="61.26" y="58.6" width="4.83" height="26.42" rx="1.18" ry="1.18" transform="translate(127.34 143.63) rotate(-180)"/><rect class="cls-3" x="56.37" y="57.83" width="4.89" height="3.4" transform="translate(117.62 119.06) rotate(-180)"/><rect class="cls-20" x="61.22" y="61.99" width="4.89" height="3.4" transform="translate(127.34 127.39) rotate(-180)"/><rect class="cls-20" x="61.22" y="78.12" width="4.89" height="3.4" transform="translate(127.34 159.64) rotate(-180)"/><rect class="cls-20" x="61.22" y="76.31" width="4.89" height="0.86" transform="translate(127.34 153.47) rotate(-180)"/><rect class="cls-20" x="61.22" y="66.06" width="4.89" height="0.86" transform="translate(127.34 132.97) rotate(-180)"/><rect class="cls-3" x="56.37" y="63.17" width="4.89" height="16.06" transform="translate(117.62 142.41) rotate(-180)"/><rect class="cls-17" x="66.11" y="81.52" width="6.57" height="1.46" transform="translate(138.79 164.5) rotate(-180)"/><rect class="cls-17" x="66.11" y="65.33" width="6.57" height="1.46" transform="translate(138.79 132.11) rotate(-180)"/><rect class="cls-17" x="66.11" y="69.1" width="6.57" height="10.72" transform="translate(138.79 148.92) rotate(-180)"/><path class="cls-16" d="M42.54,18.8h-1a8.83,8.83,0,0,0-15.8-2.37H19.89A8.83,8.83,0,0,0,4.09,18.8h-1a1.74,1.74,0,0,0-1.73,1.74,1.8,1.8,0,0,0,1.73,1.74h.64a8.88,8.88,0,0,0,17.72-.92,9.1,9.1,0,0,0-.18-1.55h3a8.14,8.14,0,0,0-.18,1.55,8.88,8.88,0,0,0,17.72.92h.64a1.74,1.74,0,0,0,.09-3.48ZM12.58,28a6.58,6.58,0,1,1,6.49-6.58A6.53,6.53,0,0,1,12.58,28ZM33,28a6.58,6.58,0,1,1,6.49-6.58A6.53,6.53,0,0,1,33,28Z"/></svg>