<svg id="Layer_1" data-name="Layer 1" xmlns="http://www.w3.org/2000/svg" viewBox="0 0 100 100"><defs><style>.cls-1{fill:#654440;}.cls-2{fill:#b3b3b3;}.cls-3{fill:#dddfe0;}.cls-4{fill:#895e59;}.cls-5{fill:#00a69c;}.cls-6{fill:#aed2c4;}.cls-7{fill:#f5853c;}.cls-8{fill:#616161;}.cls-9{fill:#fcca98;}.cls-10{fill:#ffc63f;}.cls-11{fill:#f2797a;}.cls-12{fill:#6ab8d9;}.cls-13{fill:#5a9eba;}.cls-14{fill:#f48d80;}.cls-15{fill:#09a380;}</style></defs><title>closet</title><path class="cls-1" d="M95.62,16.82h-52V13.65h52a1.59,1.59,0,0,1,1.59,1.59h0A1.59,1.59,0,0,1,95.62,16.82Z"/><rect class="cls-2" x="54.32" y="12.64" width="1.37" height="10.34"/><rect class="cls-3" x="53.79" y="11.89" width="2.42" height="6.66" rx="1.21" ry="1.21"/><rect class="cls-2" x="65.07" y="12.64" width="1.37" height="10.34"/><rect class="cls-3" x="64.55" y="11.89" width="2.42" height="6.66" rx="1.21" ry="1.21"/><rect class="cls-2" x="75.89" y="12.64" width="1.37" height="10.34"/><rect class="cls-3" x="75.36" y="11.89" width="2.42" height="6.66" rx="1.21" ry="1.21"/><rect class="cls-2" x="86.7" y="12.64" width="1.37" height="10.34"/><rect class="cls-3" x="86.18" y="11.89" width="2.42" height="6.66" rx="1.21" ry="1.21"/><rect class="cls-4" x="4.24" y="1.44" width="39.3" height="97.12"/><path class="cls-1" d="M42.09,2.88V97.12H5.68V2.88H42.09M45,0H2.79V100H45V0Z"/><rect class="cls-1" x="3.81" y="32.76" width="39.85" height="3.17"/><rect class="cls-1" x="3.81" y="64.07" width="39.85" height="3.17"/><path class="cls-5" d="M54.82,21.48h.36A3.86,3.86,0,0,1,59,25.34V65.17a0,0,0,0,1,0,0H51a0,0,0,0,1,0,0V25.34A3.86,3.86,0,0,1,54.82,21.48Z"/><path class="cls-6" d="M55,21.48h0a4,4,0,0,1,4,4V37.4a0,0,0,0,1,0,0H51a0,0,0,0,1,0,0V25.52A4,4,0,0,1,55,21.48Z"/><path class="cls-7" d="M65.76,21.48h0a4,4,0,0,1,4,4V84.85a0,0,0,0,1,0,0H61.71a0,0,0,0,1,0,0V25.52A4,4,0,0,1,65.76,21.48Z"/><path class="cls-8" d="M87.07,21.75h.64a3.72,3.72,0,0,1,3.72,3.72V69.31a0,0,0,0,1,0,0H83.35a0,0,0,0,1,0,0V25.47A3.72,3.72,0,0,1,87.07,21.75Z"/><path class="cls-9" d="M65.82,21.48h0a4,4,0,0,1,4,4V50.91a0,0,0,0,1,0,0H61.78a0,0,0,0,1,0,0V25.52A4,4,0,0,1,65.82,21.48Z"/><path class="cls-10" d="M76.09,21.48h1A3.56,3.56,0,0,1,80.61,25V62a0,0,0,0,1,0,0H72.53a0,0,0,0,1,0,0V25a3.56,3.56,0,0,1,3.56-3.56Z"/><rect class="cls-11" x="9.55" y="60.16" width="29.26" height="3.91" rx="1.95" ry="1.95"/><rect class="cls-12" x="9.55" y="55.91" width="29.26" height="4.25" rx="2.12" ry="2.12"/><rect class="cls-9" x="9.55" y="51.65" width="29.26" height="4.26" rx="2.13" ry="2.13"/><rect class="cls-6" x="9.48" y="47.36" width="29.26" height="4.26" rx="2.13" ry="2.13"/><rect class="cls-5" x="9.26" y="28.86" width="29.26" height="3.91" rx="1.95" ry="1.95"/><rect class="cls-12" x="9.26" y="24.61" width="29.26" height="4.25" rx="2.12" ry="2.12"/><rect class="cls-10" x="9.26" y="20.35" width="29.26" height="4.26" rx="2.13" ry="2.13"/><rect class="cls-13" x="9.48" y="92.72" width="29.26" height="4.35" rx="2.17" ry="2.17"/><rect class="cls-14" x="8.96" y="88.4" width="29.26" height="4.33" rx="2.16" ry="2.16"/><rect class="cls-15" x="9.16" y="84.02" width="29.26" height="4.38" rx="2.19" ry="2.19"/></svg>