<svg id="Layer_1" data-name="Layer 1" xmlns="http://www.w3.org/2000/svg" viewBox="0 0 100 100"><defs><style>.cls-1{fill:#bcd2de;}.cls-2{fill:#3e545f;}.cls-3{fill:#ebf7fd;}.cls-4{fill:#d05030;}.cls-5{fill:#7696a7;}</style></defs><title>post office</title><polygon class="cls-1" points="49.95 2.81 11.06 31.05 11.06 98.58 88.85 98.58 88.85 31.05 49.95 2.81"/><rect class="cls-2" x="11.06" y="82.99" width="77.79" height="15.58"/><path class="cls-3" d="M36.28,24.32V40.45H63.72V24.32ZM50,31.55,39.76,25.8H60.24Zm-4.18-.68-8.18,7.28V26.27Zm1.32.74L50,33.22l2.86-1.61L61.13,39H38.87Zm7-.74,8.18-4.6V38.15Z"/><polygon class="cls-4" points="49.95 0 8.15 27.28 8.15 32.89 49.95 5.61 91.85 32.95 91.85 27.34 49.95 0"/><polygon class="cls-5" points="75.64 55.25 75.64 47.46 76.78 47.46 76.78 55.25 85.08 55.25 85.08 47.46 67.34 47.46 67.34 55.25 75.64 55.25"/><rect class="cls-5" x="76.78" y="56.39" width="8.3" height="6.46"/><polygon class="cls-5" points="76.78 63.99 76.78 71.61 75.64 71.61 75.64 63.99 67.34 63.99 67.34 71.61 85.08 71.61 85.08 63.99 76.78 63.99"/><rect class="cls-5" x="67.34" y="56.39" width="8.3" height="6.46"/><polygon class="cls-5" points="22.91 55.34 22.91 47.55 24.05 47.55 24.05 55.34 32.35 55.34 32.35 47.55 14.61 47.55 14.61 55.34 22.91 55.34"/><rect class="cls-5" x="24.05" y="56.48" width="8.3" height="6.46"/><polygon class="cls-5" points="24.05 64.08 24.05 71.7 22.91 71.7 22.91 64.08 14.61 64.08 14.61 71.7 32.35 71.7 32.35 64.08 24.05 64.08"/><rect class="cls-5" x="14.61" y="56.48" width="8.3" height="6.46"/><path class="cls-5" d="M50,47.46h0A13.72,13.72,0,0,1,63.67,61.18V97.67a.91.91,0,0,1-.91.91H37.14a.91.91,0,0,1-.91-.91V61.18A13.72,13.72,0,0,1,50,47.46Z"/><rect class="cls-1" x="33.41" y="94.39" width="33.09" height="5.61"/><circle class="cls-2" cx="59.19" cy="73.8" r="2.19"/></svg>