<svg id="Layer_1" data-name="Layer 1" xmlns="http://www.w3.org/2000/svg" viewBox="0 0 100 100"><defs><style>.cls-1{fill:#fff;}.cls-2{fill:#c5c7c9;}.cls-3{fill:#ffc640;}.cls-4{fill:#fcca98;}.cls-5{fill:#e1b589;}.cls-6{fill:#171717;}.cls-7{fill:#231f20;}.cls-8{fill:#895e59;}.cls-9{fill:#f37d3b;}.cls-10{fill:#ffc63f;}.cls-11{fill:#e2b139;}.cls-12{fill:#7a534e;}.cls-13{fill:#7d7d7d;}</style></defs><title>farmer</title><path class="cls-1" d="M14.81,52.16a1.6,1.6,0,0,1-1.6,1.6c-.88,0-3.5-.72-3.5-1.6s2.62-1.6,3.5-1.6A1.6,1.6,0,0,1,14.81,52.16Z"/><path class="cls-2" d="M14.73,52.16a1,1,0,0,1-1,1c-.57,0-2.27-.47-2.27-1s1.7-1,2.27-1A1,1,0,0,1,14.73,52.16Z"/><rect class="cls-1" x="4.38" y="54.42" width="30.28" height="16.86" rx="3.85" ry="3.85" transform="translate(39.04 125.7) rotate(-180)"/><path class="cls-3" d="M14.8,50.62a4,4,0,0,1-2.36-.78,3.82,3.82,0,0,1-1.35-1.72,6.58,6.58,0,0,1-.21-3.65,5.77,5.77,0,0,0,1.45,2.85,2,2,0,0,0,1.1.55,1.35,1.35,0,0,0,.92-.16,1.84,1.84,0,1,1,3,2.17,1.81,1.81,0,0,1-1.51.75Z"/><rect class="cls-1" x="12.49" y="46.71" width="17.29" height="13.49" rx="2.02" ry="2.02" transform="translate(42.26 106.9) rotate(-180)"/><path class="cls-4" d="M1.2,61.83a8.4,8.4,0,0,0,16.8,0c0-4.64-3.76-5.35-8.4-5.35S1.2,57.19,1.2,61.83Z"/><rect class="cls-5" y="61.33" width="18.53" height="2.21" rx="0.5" ry="0.5" transform="translate(18.53 124.88) rotate(-180)"/><rect class="cls-5" y="63.54" width="18.53" height="2.21" rx="0.5" ry="0.5" transform="translate(18.53 129.29) rotate(-180)"/><circle class="cls-4" cx="4.38" cy="57.49" r="2.37"/><ellipse class="cls-5" cx="3.3" cy="57.49" rx="1.02" ry="1.55"/><circle class="cls-4" cx="10.36" cy="57.49" r="2.37"/><ellipse class="cls-5" cx="9.92" cy="57.49" rx="1.02" ry="1.55"/><path class="cls-1" d="M25.91,47.55s-2.59-1.28-2.65-2.42H20.51v3.72"/><path class="cls-1" d="M16,47.55s2.58-1.28,2.64-2.42h2.76v3.72"/><path class="cls-3" d="M29.66,47.71a1.36,1.36,0,0,0,.92.16,2.08,2.08,0,0,0,1.11-.55,5.76,5.76,0,0,0,1.44-2.85,6.58,6.58,0,0,1-.21,3.65,3.82,3.82,0,0,1-1.35,1.72,4,4,0,0,1-2.36.78h-1a1.84,1.84,0,1,1,1.46-2.92Z"/><path class="cls-1" d="M28.93,52.16a1.6,1.6,0,0,0,1.6,1.6c.88,0,3.5-.72,3.5-1.6s-2.62-1.6-3.5-1.6A1.6,1.6,0,0,0,28.93,52.16Z"/><path class="cls-2" d="M29,52.16a1,1,0,0,0,1,1c.57,0,2.27-.47,2.27-1s-1.7-1-2.27-1A1,1,0,0,0,29,52.16Z"/><path class="cls-6" d="M22.22,53.45c0,1.85,2.29,6.62,4.15,6.62s2.56-4.77,2.56-6.62a3.36,3.36,0,1,0-6.71,0Z"/><circle class="cls-1" cx="25.83" cy="53.02" r="1.67"/><circle class="cls-7" cx="25.89" cy="52.73" r="0.78"/><ellipse class="cls-8" cx="37.1" cy="28.17" rx="27.46" ry="3.66"/><path class="cls-8" d="M17.85,26.72c0-8,6.47-22.21,14.44-22.21S46.74,18.75,46.74,26.72"/><path class="cls-8" d="M27.46,26.72c0-8,6.46-22.21,14.44-22.21S56.34,18.75,56.34,26.72"/><path class="cls-8" d="M17.92,25.25c3.6.46,8.76,3.13,38.42,0"/><path class="cls-9" d="M32.79,28.37a59.17,59.17,0,0,1-13.42-1.21c-.63-.13-1.16-.24-1.66-.3l.41-3.21c.57.07,1.18.2,1.9.34,3.89.8,11.13,2.29,36.16-.34l.33,3.21A230.92,230.92,0,0,1,32.79,28.37Z"/><ellipse class="cls-10" cx="49.68" cy="86.21" rx="32.64" ry="8.45"/><path class="cls-10" d="M66,56.07l2.89-2.89c-5.38-8.66-12-15.6-19.16-15.6S35.8,44.64,30.39,53.39l2.68,2.68Z"/><path class="cls-10" d="M68.84,53.18,66,56.07h0l-1.48,1.47L66,56.07H33.07l1.84,1.83-1.84-1.83h0l-2.68-2.68c-8.09,13.1-13.34,30-13.34,32.82,0,4.67,14.61,8.45,32.63,8.45s32.64-3.78,32.64-8.45C82.32,83.4,77,66.31,68.84,53.18Z"/><circle class="cls-10" cx="34.64" cy="56.06" r="5.02"/><circle class="cls-10" cx="44.67" cy="56.06" r="5.02"/><circle class="cls-10" cx="54.7" cy="56.06" r="5.02"/><circle class="cls-10" cx="64.73" cy="56.06" r="5.02"/><circle class="cls-10" cx="31.74" cy="64.16" r="0.92"/><circle class="cls-10" cx="35.02" cy="69.58" r="0.92"/><circle class="cls-10" cx="49.82" cy="69.58" r="0.92"/><circle class="cls-10" cx="64.62" cy="69.58" r="0.92"/><circle class="cls-10" cx="38.95" cy="64.16" r="0.92"/><circle class="cls-10" cx="46.17" cy="64.16" r="0.92"/><circle class="cls-10" cx="53.38" cy="64.16" r="0.92"/><circle class="cls-10" cx="60.6" cy="64.16" r="0.92"/><circle class="cls-10" cx="67.82" cy="64.16" r="0.92"/><rect class="cls-10" x="29.62" y="48.84" width="0.78" height="4.34" rx="0.18" ry="0.18" transform="matrix(0.3, -0.95, 0.95, 0.3, -27.62, 64.49)"/><rect class="cls-10" x="30.85" y="47" width="0.9" height="4.34" rx="0.19" ry="0.19" transform="translate(-14.11 12.62) rotate(-18.69)"/><rect class="cls-10" x="32.27" y="46.98" width="0.78" height="4.34" rx="0.18" ry="0.18" transform="translate(11.95 -6.11) rotate(13.06)"/><rect class="cls-10" x="29.77" y="90.32" width="1.18" height="6.61" rx="0.27" ry="0.27" transform="translate(72.39 182.63) rotate(172.69)"/><rect class="cls-10" x="26.32" y="89.69" width="1.38" height="6.61" rx="0.29" ry="0.29" transform="translate(-22.16 176.43) rotate(-133.29)"/><rect class="cls-10" x="25.53" y="87.83" width="1.18" height="6.61" rx="0.27" ry="0.27" transform="translate(-57.94 134.97) rotate(-101.55)"/><rect class="cls-11" x="32.52" y="83.67" width="0.78" height="4.34" rx="0.18" ry="0.18" transform="translate(-58.84 91.73) rotate(-72.7)"/><rect class="cls-11" x="33.87" y="81.82" width="0.78" height="4.34" rx="0.18" ry="0.18" transform="translate(-25.1 15.41) rotate(-18.69)"/><rect class="cls-11" x="35.17" y="81.82" width="0.78" height="4.34" rx="0.18" ry="0.18" transform="translate(19.9 -5.86) rotate(13.06)"/><rect class="cls-11" x="58.42" y="49.8" width="0.78" height="4.34" rx="0.18" ry="0.18" transform="translate(-6.71 8.77) rotate(-8.07)"/><rect class="cls-11" x="60.67" y="50.23" width="0.78" height="4.34" rx="0.18" ry="0.18" transform="translate(56.26 -27.92) rotate(45.95)"/><rect class="cls-11" x="61.23" y="51.4" width="0.78" height="4.34" rx="0.18" ry="0.18" transform="translate(100.82 -18.05) rotate(77.69)"/><rect class="cls-11" x="48.79" y="60.15" width="0.78" height="4.34" rx="0.18" ry="0.18" transform="translate(-24.95 90.74) rotate(-72.7)"/><rect class="cls-11" x="44.86" y="49.9" width="0.78" height="4.34" rx="0.18" ry="0.18" transform="translate(-14.3 17.24) rotate(-18.69)"/><rect class="cls-11" x="53" y="58.3" width="0.78" height="4.34" rx="0.18" ry="0.18" transform="translate(15.04 -10.5) rotate(13.06)"/><rect class="cls-10" x="20.64" y="74.08" width="0.78" height="4.34" rx="0.18" ry="0.18" transform="translate(-38.21 128.66) rotate(-116.08)"/><rect class="cls-10" x="20.36" y="71.8" width="0.78" height="4.34" rx="0.18" ry="0.18" transform="translate(-54.33 57.65) rotate(-62.07)"/><rect class="cls-10" x="21.3" y="70.91" width="0.78" height="4.34" rx="0.18" ry="0.18" transform="translate(-33.93 20.95) rotate(-30.32)"/><rect class="cls-10" x="51.76" y="35.55" width="0.78" height="4.34" rx="0.18" ry="0.18" transform="matrix(0.99, -0.13, 0.13, 0.99, -4.5, 7.18)"/><rect class="cls-10" x="54.01" y="36" width="0.78" height="4.34" rx="0.18" ry="0.18" transform="translate(44.6 -27.56) rotate(46.47)"/><rect class="cls-10" x="54.56" y="37.17" width="0.78" height="4.34" rx="0.18" ry="0.18" transform="translate(82.23 -22.48) rotate(78.21)"/><rect class="cls-10" x="60.57" y="38.86" width="0.78" height="4.34" rx="0.18" ry="0.18" transform="translate(55.47 -32.24) rotate(51.77)"/><rect class="cls-10" x="61.33" y="41.03" width="0.78" height="4.34" rx="0.18" ry="0.18" transform="translate(120.07 -4.44) rotate(105.79)"/><rect class="cls-10" x="80.71" y="78.47" width="0.78" height="4.34" rx="0.18" ry="0.18" transform="translate(180.76 24.54) rotate(105.79)"/><rect class="cls-10" x="60.6" y="42.09" width="0.78" height="4.34" rx="0.18" ry="0.18" transform="translate(135.85 35.74) rotate(137.53)"/><rect class="cls-12" x="86.95" y="25.77" width="4.29" height="64.57" rx="0.83" ry="0.83"/><path class="cls-13" d="M78.32,26.92a22.62,22.62,0,0,1,5.39-1.38,36.1,36.1,0,0,1,5.39-.39,35,35,0,0,1,5.39.39,22.39,22.39,0,0,1,5.39,1.38,22.83,22.83,0,0,1-5.39,1.37,35,35,0,0,1-5.39.39,36.1,36.1,0,0,1-5.39-.39A22.59,22.59,0,0,1,78.32,26.92Z"/><polygon class="cls-13" points="78.26 26.99 81 3.05 83.73 26.99 78.26 26.99"/><polygon class="cls-13" points="86.6 26.99 89.34 3.05 92.07 26.99 86.6 26.99"/><polygon class="cls-13" points="94.53 26.99 97.27 3.05 100 26.99 94.53 26.99"/></svg>