<svg id="Layer_1" data-name="Layer 1" xmlns="http://www.w3.org/2000/svg" viewBox="0 0 100 100"><defs><style>.cls-1{fill:#895e59;}.cls-2{fill:#674541;}.cls-3{fill:#452a27;}</style></defs><title>anthill</title><ellipse class="cls-1" cx="50" cy="81.66" rx="50" ry="12.95"/><path class="cls-2" d="M76.31,34.09l.31-.32a4.73,4.73,0,0,0,.59-6c-2.2-3.24-4.88-6.88-7.7-10.56a24.6,24.6,0,0,0-39,0c-2.91,3.81-5.69,7.59-7.94,10.94A4.62,4.62,0,0,0,23.11,34l0,0a4.78,4.78,0,0,0,3.37,1.4H73A4.75,4.75,0,0,0,76.31,34.09Z"/><path class="cls-1" d="M79.35,31.05l-4.43,4.43h0l-2.26,2.26,2.26-2.26H24.55l2.81,2.81-2.81-2.81h0l-4.1-4.11C8.05,51.45,0,77.37,0,81.66,0,88.81,22.39,94.6,50,94.6s50-5.79,50-12.94C100,77.34,91.86,51.17,79.35,31.05Z"/><path class="cls-2" d="M27,27.78a7.69,7.69,0,0,0-7.69,7.69c0,4.24,7.69,13.8,7.69,13.8s7.68-9.56,7.68-13.8A7.68,7.68,0,0,0,27,27.78Z"/><path class="cls-2" d="M42.32,27.78a7.69,7.69,0,0,0-7.69,7.69c0,4.24,7.69,13.8,7.69,13.8S50,39.71,50,35.47A7.68,7.68,0,0,0,42.32,27.78Z"/><path class="cls-2" d="M57.68,27.78A7.68,7.68,0,0,0,50,35.47c0,4.24,7.68,13.8,7.68,13.8s7.69-9.56,7.69-13.8A7.69,7.69,0,0,0,57.68,27.78Z"/><path class="cls-2" d="M73.05,27.78a7.68,7.68,0,0,0-7.68,7.69c0,4.24,7.68,13.8,7.68,13.8s7.69-9.56,7.69-13.8A7.69,7.69,0,0,0,73.05,27.78Z"/><rect class="cls-1" x="92.68" y="61.59" width="2.91" height="8.17" rx="1.46" ry="1.46" transform="translate(142.46 -38.44) rotate(79.99)"/><rect class="cls-2" x="21.94" y="23.08" width="2.91" height="8.17" rx="1.46" ry="1.46" transform="translate(59.19 25.01) rotate(127.27)"/><rect class="cls-2" x="40.86" y="5.36" width="2.91" height="8.17" rx="1.46" ry="1.46" transform="translate(85.63 11.39) rotate(169.99)"/><rect class="cls-1" x="85.65" y="41.51" width="2.91" height="8.17" rx="1.46" ry="1.46" transform="translate(53.08 -46.65) rotate(42.12)"/><rect class="cls-1" x="87.16" y="44.51" width="2.91" height="8.17" rx="1.46" ry="1.46" transform="translate(109.21 -50.35) rotate(73.02)"/><rect class="cls-2" x="70.95" y="17.54" width="2.91" height="8.17" rx="1.46" ry="1.46" transform="translate(17.42 -30.21) rotate(26.68)"/><rect class="cls-2" x="57.99" y="6.19" width="2.91" height="8.17" rx="1.46" ry="1.46" transform="translate(18.36 -33.9) rotate(37.27)"/><rect class="cls-2" x="38.26" y="6.55" width="2.91" height="8.17" rx="1.46" ry="1.46" transform="translate(2.9 28.94) rotate(-41.42)"/><rect class="cls-2" x="73.21" y="20.03" width="2.91" height="8.17" rx="1.46" ry="1.46" transform="translate(54.98 -51.83) rotate(57.57)"/><rect class="cls-1" x="36.85" y="16.53" width="2.91" height="8.17" rx="1.46" ry="1.46" transform="translate(35.17 -22.77) rotate(57.57)"/><rect class="cls-1" x="50.42" y="26.96" width="2.91" height="8.17" rx="1.46" ry="1.46" transform="translate(108 8.57) rotate(127.27)"/><rect class="cls-2" x="65.94" y="60.93" width="2.91" height="8.17" rx="1.46" ry="1.46" transform="translate(159.94 50.75) rotate(127.27)"/><rect class="cls-2" x="51.76" y="76.56" width="2.91" height="8.17" rx="1.46" ry="1.46" transform="translate(38.6 176.16) rotate(-137.88)"/><rect class="cls-2" x="85.65" y="72.38" width="2.91" height="8.17" rx="1.46" ry="1.46" transform="translate(100.43 191.6) rotate(-137.88)"/><rect class="cls-2" x="47.37" y="49.81" width="2.91" height="8.17" rx="1.46" ry="1.46" transform="translate(59.48 125.84) rotate(-146.25)"/><rect class="cls-2" x="31.94" y="60.93" width="2.91" height="8.17" rx="1.46" ry="1.46" transform="translate(105.35 77.81) rotate(127.27)"/><rect class="cls-2" x="79.68" y="48.11" width="2.91" height="8.17" rx="1.46" ry="1.46" transform="translate(171.81 19.24) rotate(127.27)"/><rect class="cls-2" x="12.27" y="73.69" width="2.91" height="8.17" rx="1.46" ry="1.46" transform="translate(83.93 113.96) rotate(127.27)"/><rect class="cls-2" x="15.82" y="47.5" width="2.91" height="8.17" rx="1.46" ry="1.46" transform="translate(6.44 104.9) rotate(-150)"/><rect class="cls-1" x="61.85" y="16.11" width="2.91" height="8.17" rx="1.46" ry="1.46" transform="translate(125.28 -3.8) rotate(141.14)"/><rect class="cls-1" x="2.47" y="65.73" width="2.91" height="8.17" rx="1.46" ry="1.46" transform="translate(-62.94 49.34) rotate(-69.75)"/><rect class="cls-1" x="3.87" y="62.84" width="2.91" height="8.17" rx="1.46" ry="1.46" transform="translate(-40.81 18.16) rotate(-38.86)"/><ellipse class="cls-3" cx="50.18" cy="11.87" rx="9.27" ry="2.88"/></svg>