<svg id="Layer_1" data-name="Layer 1" xmlns="http://www.w3.org/2000/svg" xmlns:xlink="http://www.w3.org/1999/xlink" viewBox="0 0 100 100"><defs><style>.cls-1{fill:none;}.cls-2{fill:#f05c38;}.cls-3{fill:#b4452a;}.cls-4{fill:#fcded7;}.cls-5{fill:#782e1c;}.cls-6{clip-path:url(#clip-path);}.cls-7{fill:#58595b;}</style><clipPath id="clip-path"><path class="cls-1" d="M445.71,120H374.29A14.33,14.33,0,0,0,360,134.29v71.42A14.33,14.33,0,0,0,374.29,220h71.42A14.33,14.33,0,0,0,460,205.71V134.29A14.33,14.33,0,0,0,445.71,120Z"/></clipPath></defs><title>cup</title><path class="cls-2" d="M82.35,46.78A41.18,41.18,0,1,1,0,46.78C0,24,82.35,24,82.35,46.78Z"/><ellipse class="cls-2" cx="41.17" cy="84" rx="25.34" ry="3.96"/><path class="cls-2" d="M77.85,32.54c5.45,0,11.45,2.33,11.71,7.43.36,6.89-6.48,11.38-11,13.59-5.92-3.66-11.41-8.27-12.45-10.63.3-4.24,5.23-10.39,11.71-10.39m0-10.42c-12.23,0-22.15,10.94-22.15,21.22S77.83,65.12,77.83,65.12s23.1-7.07,22.14-25.69c-.53-10.27-9.9-17.31-22.12-17.31Z"/><rect class="cls-2" y="18.61" width="82.35" height="29.75"/><path class="cls-2" d="M66.51,84S77,67.46,78.08,65s-17.9,5.5-17.9,5.5L57,83.21Z"/><path class="cls-2" d="M16,84.33S5.49,67.79,4.4,65.37s17.91,5.5,17.91,5.5l3.17,12.67Z"/><ellipse class="cls-3" cx="41.17" cy="18.38" rx="41.17" ry="6.33"/><circle class="cls-4" cx="49.64" cy="51.49" r="3.72"/><circle class="cls-4" cx="26.26" cy="69.02" r="4.82"/><circle class="cls-4" cx="58.76" cy="69.99" r="5.41"/><circle class="cls-4" cx="11.74" cy="43.62" r="4.16"/><circle class="cls-4" cx="66.51" cy="37.36" r="4.95"/><ellipse class="cls-5" cx="41.17" cy="21.73" rx="34.92" ry="2.98"/><circle class="cls-4" cx="30.51" cy="38.06" r="4.25"/><g class="cls-6"><path class="cls-7" d="M157,255.57c184-94,341-155.93,357.11-141.2L633.26,53.45c-67.42,1.13-262.4,76.19-483,189C99.08,268.55,50.52,294.75,5.37,320.28H36C73.21,299.43,113.87,277.6,157,255.57Z"/></g></svg>