<svg id="Layer_1" data-name="Layer 1" xmlns="http://www.w3.org/2000/svg" viewBox="0 0 100 100"><defs><style>.cls-1{fill:#452a27;}.cls-2{fill:#583936;}.cls-3{fill:#895e59;}</style></defs><title>peat</title><path class="cls-1" d="M52.27,43.23h37.3A10.44,10.44,0,0,1,100,53.66v0a2.76,2.76,0,0,1-2.76,2.76H44.59a2.76,2.76,0,0,1-2.76-2.76v0A10.44,10.44,0,0,1,52.27,43.23Z"/><path class="cls-1" d="M20.83,58.47H83.44A10.44,10.44,0,0,1,93.88,68.91v0a2.76,2.76,0,0,1-2.76,2.76h-78a2.76,2.76,0,0,1-2.76-2.76v0A10.44,10.44,0,0,1,20.83,58.47Z"/><path class="cls-2" d="M48.73,43.23H86A10.44,10.44,0,0,1,96.46,53.66v0a2.76,2.76,0,0,1-2.76,2.76H41.05a2.76,2.76,0,0,1-2.76-2.76v0A10.44,10.44,0,0,1,48.73,43.23Z"/><path class="cls-1" d="M29.27,28H58.59a9.51,9.51,0,0,1,9.51,9.51v1.16a2.52,2.52,0,0,1-2.52,2.52H22.27a2.52,2.52,0,0,1-2.52-2.52V37.5A9.51,9.51,0,0,1,29.27,28Z"/><path class="cls-2" d="M16.31,58.47H78.92A10.44,10.44,0,0,1,89.36,68.91v0a2.76,2.76,0,0,1-2.76,2.76h-78a2.76,2.76,0,0,1-2.76-2.76v0A10.44,10.44,0,0,1,16.31,58.47Z"/><path class="cls-2" d="M25.37,28H54.69a9.51,9.51,0,0,1,9.51,9.51v1.16a2.52,2.52,0,0,1-2.52,2.52H18.37a2.52,2.52,0,0,1-2.52-2.52V37.5A9.51,9.51,0,0,1,25.37,28Z"/><path class="cls-1" d="M81.73,28h.85a8.75,8.75,0,0,1,8.75,8.75v0a4.44,4.44,0,0,1-4.44,4.44H77.42A4.44,4.44,0,0,1,73,36.74v0A8.75,8.75,0,0,1,81.73,28Z"/><path class="cls-2" d="M79.25,28h.85a8.75,8.75,0,0,1,8.75,8.75v0a4.44,4.44,0,0,1-4.44,4.44H74.94a4.44,4.44,0,0,1-4.44-4.44v0A8.75,8.75,0,0,1,79.25,28Z"/><path class="cls-1" d="M12.35,43.23H28.51a8.57,8.57,0,0,1,8.57,8.57v1.87a2.76,2.76,0,0,1-2.76,2.76H6.54a2.76,2.76,0,0,1-2.76-2.76V51.79A8.57,8.57,0,0,1,12.35,43.23Z"/><path class="cls-2" d="M8.57,43.23H24.73a8.57,8.57,0,0,1,8.57,8.57v1.87a2.76,2.76,0,0,1-2.76,2.76H2.76A2.76,2.76,0,0,1,0,53.66V51.79a8.57,8.57,0,0,1,8.57-8.57Z"/><circle class="cls-3" cx="6.74" cy="47.21" r="1.37"/><circle class="cls-3" cx="21.89" cy="53.52" r="1.46"/><path class="cls-1" d="M55,12.32H71.11a8.57,8.57,0,0,1,8.57,8.57v1.87a2.76,2.76,0,0,1-2.76,2.76H49.14a2.76,2.76,0,0,1-2.76-2.76V20.89A8.57,8.57,0,0,1,55,12.32Z"/><path class="cls-2" d="M51.17,12.32H67.33a8.57,8.57,0,0,1,8.57,8.57v1.87a2.76,2.76,0,0,1-2.76,2.76H45.36a2.76,2.76,0,0,1-2.76-2.76V20.89A8.57,8.57,0,0,1,51.17,12.32Z"/><circle class="cls-3" cx="50.71" cy="21.12" r="1.37"/><circle class="cls-3" cx="66.49" cy="16.62" r="1.46"/><circle class="cls-3" cx="56.4" cy="31.45" r="1.16"/><circle class="cls-3" cx="26.72" cy="37.99" r="0.63"/><circle class="cls-3" cx="25.22" cy="31.54" r="1.5"/><path class="cls-1" d="M50.48,74.48H75.29a10,10,0,0,1,10,10v0A3.23,3.23,0,0,1,82,87.68H43.74a3.23,3.23,0,0,1-3.23-3.23v0a10,10,0,0,1,10-10Z"/><path class="cls-2" d="M46.87,74.48H71.68a10,10,0,0,1,10,10v0a3.23,3.23,0,0,1-3.23,3.23H40.13a3.23,3.23,0,0,1-3.23-3.23v0A10,10,0,0,1,46.87,74.48Z"/><circle class="cls-3" cx="70.45" cy="77.95" r="1.16"/><circle class="cls-3" cx="47.77" cy="84.49" r="0.63"/><circle class="cls-3" cx="46.27" cy="78.04" r="1.5"/><circle class="cls-3" cx="46.43" cy="48.37" r="1.86"/><circle class="cls-3" cx="91.14" cy="53.81" r="0.96"/><circle class="cls-3" cx="89.23" cy="50.49" r="1.91"/><circle class="cls-3" cx="77.43" cy="63.4" r="2.26"/><circle class="cls-3" cx="19.76" cy="68.13" r="1.37"/><circle class="cls-3" cx="75.59" cy="37.35" r="1.84"/><circle class="cls-3" cx="82.75" cy="32.23" r="1.28"/><path class="cls-1" d="M24.65,74.48h.85a8.75,8.75,0,0,1,8.75,8.75v0a4.44,4.44,0,0,1-4.44,4.44H20.34a4.44,4.44,0,0,1-4.44-4.44v0a8.75,8.75,0,0,1,8.75-8.75Z"/><path class="cls-2" d="M22.17,74.48H23a8.75,8.75,0,0,1,8.75,8.75v0a4.44,4.44,0,0,1-4.44,4.44H17.86a4.44,4.44,0,0,1-4.44-4.44v0A8.75,8.75,0,0,1,22.17,74.48Z"/><circle class="cls-3" cx="18.51" cy="83.85" r="1.84"/><circle class="cls-3" cx="25.67" cy="78.73" r="1.28"/></svg>