<svg id="Layer_1" data-name="Layer 1" xmlns="http://www.w3.org/2000/svg" viewBox="0 0 100 100"><defs><style>.cls-1{fill:#fff;}.cls-2{fill:#4f8da6;}.cls-3{fill:#f69a85;}.cls-4{fill:#c37c6c;}</style></defs><title>cotton candy</title><polygon class="cls-1" points="60.35 62.84 63.64 51.19 62.74 51.19 41.95 71.98 43.98 79.2 60.35 62.84"/><polygon class="cls-2" points="60.35 62.84 43.98 79.2 46 86.34 56.75 75.59 60.35 62.84"/><polygon class="cls-1" points="46 86.34 47.07 90.12 54.84 82.35 56.75 75.59 46 86.34"/><polygon class="cls-2" points="49.86 100 54.84 82.35 47.07 90.12 49.86 100"/><polygon class="cls-2" points="62.74 51.19 36.07 51.19 41.95 71.98 62.74 51.19"/><rect class="cls-3" x="23.94" y="46.09" width="52.54" height="15.22" rx="3.77" ry="3.77" transform="translate(-13.31 16.69) rotate(-16.7)"/><rect class="cls-3" x="24.24" y="36.51" width="47.75" height="13.83" rx="3.43" ry="3.43" transform="translate(-10.45 15.66) rotate(-16.7)"/><rect class="cls-3" x="28.82" y="28.42" width="42.07" height="12.18" rx="3.02" ry="3.02" transform="matrix(0.96, -0.29, 0.29, 0.96, -7.81, 15.78)"/><rect class="cls-3" x="23.49" y="18.66" width="43.49" height="12.59" rx="3.12" ry="3.12" transform="translate(-5.26 14.05) rotate(-16.7)"/><rect class="cls-3" x="31.83" y="13.9" width="24.37" height="7.06" rx="1.75" ry="1.75" transform="translate(-3.15 13.38) rotate(-16.7)"/><path class="cls-3" d="M37,22.66a3.12,3.12,0,0,0,.2-.73l.18-.83c.11-.57.21-1.15.3-1.73.19-1.15.35-2.32.48-3.47a44.79,44.79,0,0,0,.29-6.63c0-1-.17-1.95-.24-2.58a3.29,3.29,0,0,1,0-.41V6.09a.5.5,0,0,0,0-.13.92.92,0,0,0,0-.33.53.53,0,0,0-.2-.27c-.52-.3-1.72,0-2.73.58a17,17,0,0,0-1.58,1c-.51.38-1,.79-1.52,1.2.16-.63.32-1.27.52-1.91a15.14,15.14,0,0,1,.74-1.92c.16-.32.31-.65.49-1l.65-1a8.41,8.41,0,0,1,.88-.93A6.71,6.71,0,0,1,36.7.58,7,7,0,0,1,38.32.06a6,6,0,0,1,1.84,0,6.53,6.53,0,0,1,.9.19c.27.08.53.18.8.29a4.78,4.78,0,0,1,.75.35l.69.38a18.62,18.62,0,0,1,4,3.51,50.85,50.85,0,0,1,5.25,7.37c.75,1.25,1.46,2.51,2.14,3.78.33.64.67,1.28,1,1.94l.48,1A11.72,11.72,0,0,1,56.62,20Z"/><circle class="cls-3" cx="47.54" cy="62.78" r="3.55"/><circle class="cls-3" cx="54.25" cy="62.33" r="1.46"/><circle class="cls-3" cx="57.18" cy="59.95" r="3.73"/><circle class="cls-4" cx="31.89" cy="56.34" r="0.97"/><circle class="cls-4" cx="36.72" cy="60.95" r="0.97"/><circle class="cls-4" cx="51.75" cy="56.89" r="0.97"/><circle class="cls-4" cx="66.77" cy="52.84" r="0.97"/><circle class="cls-4" cx="39.22" cy="54.37" r="0.97"/><circle class="cls-4" cx="46.55" cy="52.39" r="0.97"/><circle class="cls-4" cx="53.88" cy="50.41" r="0.97"/><circle class="cls-4" cx="61.21" cy="48.43" r="0.97"/><circle class="cls-4" cx="68.53" cy="46.45" r="0.97"/><ellipse class="cls-1" cx="60.35" cy="26.37" rx="1.49" ry="6.97" transform="translate(-5.44 23.46) rotate(-21.07)"/></svg>