<svg id="Layer_1" data-name="Layer 1" xmlns="http://www.w3.org/2000/svg" viewBox="0 0 100 100"><defs><style>.cls-1{fill:#b3b3b3;}.cls-2{fill:#86aabc;}.cls-3{fill:#9dc8dc;}.cls-4{fill:#f69a85;}.cls-5{fill:#069274;}.cls-6{fill:#09a582;}.cls-7{fill:#089a7a;}.cls-8{fill:#f37d3b;}.cls-9{fill:#c7552e;}</style></defs><title>frozen yogurt</title><rect class="cls-1" x="79.42" y="-3.29" width="5.81" height="32.45" rx="1.35" ry="1.35" transform="translate(33.51 -54.6) rotate(45.21)"/><path class="cls-1" d="M73,22.21c-3.67-3.7-13.32-.08-17,3.6a9.4,9.4,0,0,0-1.9,10.61H71.39C74.13,32,75.93,25.18,73,22.21Z"/><ellipse class="cls-2" cx="49.67" cy="43.58" rx="35.92" ry="10.79"/><path class="cls-3" d="M49.67,33.87c19.49,0,33.35,4.61,34.71,9h2.18C85.42,35.63,67,31.71,49.67,31.71S13.93,35.63,12.78,42.87H15C16.32,38.48,30.18,33.87,49.67,33.87Z"/><ellipse class="cls-3" cx="49.67" cy="91.75" rx="27.45" ry="8.25"/><polyline class="cls-3" points="22.22 91.09 15.5 47.02 49.67 47.02 49.67 99.98"/><polyline class="cls-3" points="77.13 91.09 83.84 47.02 49.67 47.02 49.67 99.98"/><line x1="52.45" y1="47.02" x2="52.45" y2="99.98"/><path class="cls-2" d="M49.67,63.33a98.74,98.74,0,0,1-32.54-5.64l3.51,23a119.91,119.91,0,0,0,29,3.66,120,120,0,0,0,29-3.47l3.51-23A99.18,99.18,0,0,1,49.67,63.33Z"/><path class="cls-4" d="M16.48,47.71c5.4,3.91,18.22,6.66,33.19,6.66,14.67,0,27.27-2.64,32.85-6.43-1.91-1.5-5.84-7-11.67-17.46C64.17,18.55,55.34,2,50.06,8.59c-1.76,2.2,1,2-.56,4S40,21.3,39.34,23.47c-5,16.8-10.62,1.25-14,9.66C21.05,43.88,19.13,45.85,16.48,47.71Z"/><path class="cls-3" d="M84.38,42.87a2.29,2.29,0,0,1,.14.71c0,4.6-14.31,9.72-34.85,9.72s-34.85-5.12-34.85-9.72a2.63,2.63,0,0,1,.14-.71H12.78a5.81,5.81,0,0,0-.11.71c0,7.71,19.06,11.87,37,11.87s37-4.16,37-11.87a4.36,4.36,0,0,0-.11-.71Z"/><path class="cls-5" d="M50.23,69.14c-1.85-.36-4.5-5-4.79-5.52l.8-.45c1,1.85,3.09,4.85,4.17,5.07Z"/><path class="cls-5" d="M48.36,67.34l-.19-.42a6.78,6.78,0,0,0,3.19-3.24,4.35,4.35,0,0,0-.25-3.42l.42-.2a4.8,4.8,0,0,1,.26,3.78A7,7,0,0,1,48.36,67.34Z"/><path class="cls-6" d="M49.55,61.74a2.35,2.35,0,0,0,1.83,2.77h0L51.92,62l-1.43-1.68A3.64,3.64,0,0,0,49.55,61.74Z"/><path class="cls-7" d="M51.71,59.13a16,16,0,0,0-1.22,1.15L51.92,62l.42-2.09Z"/><path class="cls-6" d="M52.63,58.4s-.4.29-.92.73l.63.74.29-1.47Z"/><path class="cls-5" d="M51.41,64.51a2.34,2.34,0,0,0,2.74-1.83c.26-1.26-1.5-4.24-1.52-4.28Z"/><path class="cls-6" d="M47,65.1l-2-2.32-5.19-.43a5.51,5.51,0,0,0,.91,2.23,4.5,4.5,0,0,0,.67.64l4.81.4A4.87,4.87,0,0,0,47,65.1Z"/><path class="cls-6" d="M46.2,65.62l-4.81-.4A4.43,4.43,0,0,0,46.2,65.62Z"/><path class="cls-7" d="M44,61.63l-4.41-.36c.05.37.12.73.19,1.08l5.19.43Z"/><path class="cls-6" d="M42.42,59.74l-3-.25c0,.58.1,1.19.19,1.78l4.41.36Z"/><path class="cls-7" d="M39.35,56.11s-.05,1.56.08,3.38l3,.25Z"/><path class="cls-5" d="M47.48,58.85c-1.58-1.86-8.13-2.74-8.13-2.74l7.61,9A4.44,4.44,0,0,0,47.48,58.85Z"/><path class="cls-8" d="M61.35,75.22C61.35,80.43,56.57,89,50.66,89S40,80.43,40,75.22s4.79-9.44,10.69-9.44S61.35,70,61.35,75.22Z"/><circle class="cls-9" cx="44.08" cy="71.48" r="0.8"/><circle class="cls-9" cx="48.47" cy="71.48" r="0.8"/><circle class="cls-9" cx="52.85" cy="71.48" r="0.8"/><circle class="cls-9" cx="46.17" cy="73.97" r="0.8"/><circle class="cls-9" cx="50.86" cy="73.97" r="0.8"/><circle class="cls-9" cx="55.56" cy="73.97" r="0.8"/><circle class="cls-9" cx="57.24" cy="71.48" r="0.8"/><circle class="cls-9" cx="44.08" cy="76.14" r="0.8"/><circle class="cls-9" cx="48.47" cy="76.14" r="0.8"/><circle class="cls-9" cx="52.85" cy="76.14" r="0.8"/><circle class="cls-9" cx="46.17" cy="78.64" r="0.8"/><circle class="cls-9" cx="50.86" cy="78.64" r="0.8"/><circle class="cls-9" cx="55.56" cy="78.64" r="0.8"/><circle class="cls-9" cx="57.24" cy="76.14" r="0.8"/><ellipse class="cls-8" cx="31.41" cy="43.31" rx="2.02" ry="1.45"/><ellipse class="cls-8" cx="43.28" cy="35.85" rx="2.02" ry="1.45"/><ellipse class="cls-8" cx="56.51" cy="46.61" rx="2.02" ry="1.45"/><ellipse class="cls-8" cx="61.75" cy="22.27" rx="2.02" ry="1.45"/><ellipse class="cls-8" cx="52.45" cy="19.98" rx="2.02" ry="1.45"/><ellipse class="cls-8" cx="68.31" cy="38.74" rx="2.02" ry="1.45"/></svg>