<svg id="Layer_1" data-name="Layer 1" xmlns="http://www.w3.org/2000/svg" viewBox="0 0 100 100"><defs><style>.cls-1{fill:none;stroke:#b2e2f9;stroke-linecap:round;stroke-miterlimit:10;stroke-width:5px;}.cls-2{fill:#b2e2f9;}.cls-3{fill:#f89c3e;}.cls-4{fill:#5596b2;}.cls-5{fill:#ad7771;}.cls-6{fill:#6ab8d9;}.cls-7{fill:#f37d3b;}.cls-8{fill:#ebf7fd;}.cls-9{fill:#fcc991;}.cls-10{fill:#ffc63f;}.cls-11{fill:#e6b43b;}.cls-12{fill:#fff;}.cls-13{fill:#fcca98;}.cls-14{fill:#dcb287;}.cls-15{fill:#5798b4;}</style></defs><title>alchemist</title><path class="cls-1" d="M83,42V17c0-5.5-2.5-9.5-6.5-9.5-9,0-12,18-5,18S75.5,9,66,9C53.5,9,50.43,24.5,57.5,24.5s4-14-10-14h-22"/><path class="cls-2" d="M100,83.22A16.78,16.78,0,1,1,83.22,66.44,16.78,16.78,0,0,1,100,83.22"/><path class="cls-3" d="M100,83.22a16.84,16.84,0,0,0-.22-2.58H98.71c-4.46-3.77-11.51-3.18-15.49,0h0c-4,3.17-11,3.77-15.48,0H66.66A16.77,16.77,0,1,0,100,83.22"/><polygon class="cls-4" points="75.47 50.95 90.96 50.95 90.96 45.79 75.47 45.79 75.47 50.95"/><polygon class="cls-5" points="88.38 45.79 78.06 45.79 75.47 39.33 90.96 39.33 88.38 45.79"/><path class="cls-6" d="M83.22,66.44a16.64,16.64,0,0,1,5.16.82V51H78.06V67.26a16.59,16.59,0,0,1,5.16-.82"/><circle class="cls-3" cx="75.23" cy="77" r="2.83"/><circle class="cls-3" cx="85.86" cy="70.23" r="0.95"/><circle class="cls-7" cx="81.32" cy="54.99" r="1.06"/><circle class="cls-8" cx="92.98" cy="74.63" r="1.46"/><circle class="cls-2" cx="84.95" cy="60.57" r="1.73"/><circle class="cls-9" cx="92.28" cy="86.55" r="3.58"/><circle class="cls-9" cx="77.49" cy="93.98" r="1.57"/><path class="cls-10" d="M53.29,77.45,48.37,65.54a1.84,1.84,0,0,0-1.7-1.14h-9.1a1.84,1.84,0,0,0-1.7,1.14L31,77.45A1.84,1.84,0,0,0,32.66,80H51.58a1.85,1.85,0,0,0,1.71-2.55Z"/><rect class="cls-10" x="11.3" y="64.4" width="31.41" height="15.6"/><path class="cls-11" d="M22.47,77.45,17.55,65.54a1.83,1.83,0,0,0-1.7-1.14H6.76a1.85,1.85,0,0,0-1.71,1.14L.14,77.45A1.84,1.84,0,0,0,1.84,80H20.76a1.84,1.84,0,0,0,1.71-2.55Z"/><path class="cls-12" d="M24.45,68.07a4.69,4.69,0,0,1-.23,3.2,3.93,3.93,0,0,1-2-5.51A4.75,4.75,0,0,1,24.45,68.07Z"/><path class="cls-12" d="M29.43,68.07a4.75,4.75,0,0,1-.23,3.2,3.93,3.93,0,0,1-2-5.51A4.75,4.75,0,0,1,29.43,68.07Z"/><rect class="cls-13" x="8.85" y="41.25" width="26.64" height="7.51" transform="translate(44.33 90.02) rotate(-180)"/><path class="cls-6" d="M32,51H9.46a1.64,1.64,0,0,1,0-3.28H32a2.67,2.67,0,0,0,0-5.33H9.46a1.64,1.64,0,1,1,0-3.28H32A5.95,5.95,0,0,1,32,51Z"/><path class="cls-14" d="M31.94,43.32a.28.28,0,0,1,.28.28.27.27,0,0,1-.28.28H8.85v-.56Z"/><path class="cls-14" d="M31.94,44.73a.27.27,0,0,1,.28.28.28.28,0,0,1-.28.28H8.85v-.56Z"/><path class="cls-14" d="M31.94,46.14a.27.27,0,0,1,.28.28.28.28,0,0,1-.28.28H8.85v-.56Z"/><path class="cls-15" d="M34.62,45.07a2.67,2.67,0,0,0-1.18-2.21V39.34a5.92,5.92,0,0,1,0,11.47V47.29A2.67,2.67,0,0,0,34.62,45.07Z"/><rect class="cls-13" x="28.64" y="35.19" width="26.64" height="7.51" transform="translate(44.09 96.16) rotate(-135)"/><path class="cls-6" d="M37.23,25.72l15.9,15.9A5.94,5.94,0,1,1,44.73,50L28.82,34.12a1.64,1.64,0,1,1,2.32-2.31l15.91,15.9a2.66,2.66,0,1,0,3.76-3.77L34.91,28a1.64,1.64,0,1,1,2.32-2.32Z"/><path class="cls-14" d="M47.68,47.06a.28.28,0,0,0,.4-.4L31.75,30.33l-.4.4Z"/><path class="cls-14" d="M48.68,46.06a.27.27,0,0,0,.39,0,.28.28,0,0,0,0-.4L32.74,29.33l-.39.4Z"/><path class="cls-14" d="M49.67,45.06a.28.28,0,0,0,.4,0,.27.27,0,0,0,0-.39L33.74,28.34l-.4.39Z"/><path class="cls-15" d="M50.82,47.71a2.71,2.71,0,0,1-2.41.73l-2.49,2.49A5.92,5.92,0,0,0,54,42.82l-2.49,2.49A2.65,2.65,0,0,1,50.82,47.71Z"/></svg>