<svg id="Layer_1" data-name="Layer 1" xmlns="http://www.w3.org/2000/svg" viewBox="0 0 100 100"><defs><style>.cls-1{fill:#fff;}.cls-1,.cls-2,.cls-4,.cls-5{fill-rule:evenodd;}.cls-2,.cls-3{fill:#f29500;}.cls-4{fill:#faa620;}.cls-5{fill:#121212;}</style></defs><title>little alchemy</title><path class="cls-1" d="M11.53,78.45,34.91,10.23c.19-.75.08-1.17-.4-1.27A3.84,3.84,0,0,1,31.4,5.21h0A3.82,3.82,0,0,1,35.21,1.4H64.79A3.82,3.82,0,0,1,68.6,5.21h0A3.84,3.84,0,0,1,65.49,9c-.48.1-.58.52-.4,1.26L88.47,78.45C91,85.79,89.68,98.6,76.84,98.6H23.16C10.32,98.6,9,85.79,11.53,78.45Z"/><path class="cls-2" d="M71.14,48.09a3.62,3.62,0,1,1-3.62,3.61A3.61,3.61,0,0,1,71.14,48.09Z"/><circle class="cls-3" cx="43.52" cy="53.66" r="3.31"/><path class="cls-2" d="M50.59,23.07a7.74,7.74,0,1,1-7.74,7.74A7.75,7.75,0,0,1,50.59,23.07Z"/><path class="cls-4" d="M15.94,89.57A15,15,0,0,1,16,80l7.27-21.23H76.77L84,80a15,15,0,0,1,0,9.6c-.94,2.39-2.8,4.35-7.21,4.35H23.16C18.74,93.92,16.88,92,15.94,89.57Z"/><path class="cls-4" d="M59.83,39.18a7.92,7.92,0,1,1-7.91,7.92A7.93,7.93,0,0,1,59.83,39.18Z"/><path class="cls-4" d="M38.26,34.86a6.7,6.7,0,1,1-6.7,6.7A6.71,6.71,0,0,1,38.26,34.86Z"/><path class="cls-4" d="M58.69,18.65A6.36,6.36,0,1,1,52.33,25,6.36,6.36,0,0,1,58.69,18.65Z"/><path class="cls-4" d="M47,10.39a3.7,3.7,0,1,1-3.71,3.7A3.7,3.7,0,0,1,47,10.39Z"/><path class="cls-5" d="M10.2,78,33.49,10.05l-1-.37A5.21,5.21,0,0,1,35.21,0H64.79a5.21,5.21,0,0,1,2.67,9.68l-.95.37L89.8,78c2.69,7.86,1.32,22-13,22H23.16C8.78,100,7.54,85.75,10.2,78Zm76.94.91L63.74,10.62l0-.07a3.56,3.56,0,0,1-.12-.94,2,2,0,0,1,1.6-2,2.4,2.4,0,0,0-.41-4.77H35.21a2.4,2.4,0,0,0-.41,4.77,2,2,0,0,1,1.6,2,4.12,4.12,0,0,1-.12,1l0,.07L12.86,78.91c-2.33,6.81-1.1,18.28,10.3,18.28H76.84C88.13,97.19,89.51,85.83,87.14,78.91Z"/></svg>