<svg id="Layer_1" data-name="Layer 1" xmlns="http://www.w3.org/2000/svg" viewBox="0 0 100 100"><defs><style>.cls-1{fill:#ecd2ad;}.cls-2{fill:#d2b490;}.cls-3{fill:#bf9b77;}.cls-4{fill:#9f8163;}</style></defs><title>panflute</title><path class="cls-1" d="M90.22,31.66h0a5.74,5.74,0,0,1-5.73-5.73l-4-11.76L84.49,0H96V25.93A5.73,5.73,0,0,1,90.22,31.66Z"/><path class="cls-2" d="M78.76,40.68h0A5.72,5.72,0,0,1,73,35L69,17,73,0H84.49V35A5.72,5.72,0,0,1,78.76,40.68Z"/><path class="cls-1" d="M67.31,49.62h0a5.72,5.72,0,0,1-5.73-5.73l-4-22.39,4-21.5H73V43.89A5.73,5.73,0,0,1,67.31,49.62Z"/><path class="cls-2" d="M55.85,60.37h0a5.72,5.72,0,0,1-5.73-5.73l-4-26L50.12,0H61.58V54.64A5.73,5.73,0,0,1,55.85,60.37Z"/><path class="cls-1" d="M44.39,71.29h0a5.74,5.74,0,0,1-5.73-5.73l-4-34.06,4-31.5H50.12V65.56A5.74,5.74,0,0,1,44.39,71.29Z"/><path class="cls-2" d="M32.93,81.36h0a5.73,5.73,0,0,1-5.73-5.73l-4-37.3L27.2,0H38.66V75.63A5.72,5.72,0,0,1,32.93,81.36Z"/><path class="cls-1" d="M21.47,91.44h0a5.74,5.74,0,0,1-5.73-5.73l-4-42L15.74,0H27.2V85.71A5.73,5.73,0,0,1,21.47,91.44Z"/><path class="cls-2" d="M4.29,0H15.74a0,0,0,0,1,0,0V94.27A5.73,5.73,0,0,1,10,100h0a5.73,5.73,0,0,1-5.73-5.73V0A0,0,0,0,1,4.29,0Z"/><rect class="cls-3" x="0.21" y="8.31" width="99.58" height="8.06" rx="4.03" ry="4.03"/><circle class="cls-4" cx="10.01" cy="12.34" r="1.6"/><circle class="cls-4" cx="21.47" cy="12.34" r="1.6"/><circle class="cls-4" cx="32.93" cy="12.34" r="1.6"/><circle class="cls-4" cx="44.39" cy="12.34" r="1.6"/><circle class="cls-4" cx="55.54" cy="12.34" r="1.6"/><circle class="cls-4" cx="67.31" cy="12.34" r="1.6"/><circle class="cls-4" cx="78.76" cy="12.68" r="1.6"/><circle class="cls-4" cx="90.22" cy="12.68" r="1.6"/></svg>