<svg id="Layer_1" data-name="Layer 1" xmlns="http://www.w3.org/2000/svg" viewBox="0 0 100 100"><defs><style>.cls-1{fill:#714c48;}.cls-2{fill:#7d7d7d;}.cls-3{fill:#989a9d;}</style></defs><title>knife</title><path class="cls-1" d="M12.56,99c1.71,1.72,4.3,1,4.32-1.14V96.47a4.56,4.56,0,0,1,2.46-5.08h0C33.2,84.86,43.63,65,43.63,65l-1.24-5.24-5.46-1.45L4.37,90.84Z"/><path class="cls-2" d="M56.34,65.46l-6.12,6.12L36.93,58.29,95.22,0h0C98.26,13.77,84.47,37.33,56.34,65.46Z"/><circle class="cls-3" cx="13.22" cy="88.98" r="1.74"/><circle class="cls-3" cx="34.98" cy="67.52" r="1.74"/><path class="cls-3" d="M88.14,7.07C83.92,20.73,71,38.89,50.39,59.51l-6.12,6.11L46.65,68l6.12-6.12C76.64,38,90.17,17.44,91.87,3.35Z"/></svg>