<svg id="Layer_1" data-name="Layer 1" xmlns="http://www.w3.org/2000/svg" viewBox="0 0 100 100"><defs><style>.cls-1{fill:#ffc640;}.cls-2{fill:#994d1f;}.cls-3{fill:#09a582;}.cls-4{fill:#c2d4de;}</style></defs><title>house</title><path class="cls-1" d="M9.22,37.61V82.5a9.38,9.38,0,0,0,9.36,9.36H83.29a9.39,9.39,0,0,0,9.36-9.36V37.61Z"/><rect class="cls-2" x="38" y="9.6" width="15.63" height="6.51" rx="1.52" ry="1.52" transform="translate(-1.75 11.39) rotate(-13.91)"/><rect class="cls-2" x="28.91" y="15.49" width="15.63" height="6.51" rx="1.52" ry="1.52" transform="translate(-3.43 9.38) rotate(-13.91)"/><rect class="cls-2" x="19.81" y="21.37" width="15.63" height="6.51" rx="1.52" ry="1.52" transform="translate(-5.11 7.36) rotate(-13.91)"/><rect class="cls-2" x="10.72" y="27.25" width="15.63" height="6.51" rx="1.52" ry="1.52" transform="translate(-6.79 5.35) rotate(-13.91)"/><rect class="cls-2" x="1.63" y="33.13" width="15.63" height="6.51" rx="1.52" ry="1.52" transform="translate(-8.47 3.34) rotate(-13.91)"/><rect class="cls-2" x="46.82" y="9.6" width="15.63" height="6.51" rx="1.52" ry="1.52" transform="translate(104.57 38.47) rotate(-166.09)"/><rect class="cls-2" x="55.91" y="15.49" width="15.63" height="6.51" rx="1.52" ry="1.52" transform="translate(121.08 52.25) rotate(-166.09)"/><rect class="cls-2" x="65" y="21.37" width="15.63" height="6.51" rx="1.52" ry="1.52" transform="translate(137.58 66.03) rotate(-166.09)"/><rect class="cls-2" x="74.09" y="27.25" width="15.63" height="6.51" rx="1.52" ry="1.52" transform="translate(154.08 79.81) rotate(-166.09)"/><rect class="cls-2" x="83.18" y="33.13" width="15.63" height="6.51" rx="1.52" ry="1.52" transform="translate(170.58 93.58) rotate(-166.09)"/><polyline class="cls-2" points="7.75 39 94.79 39 49.78 10.52"/><rect class="cls-2" y="37.08" width="100" height="4.55" rx="1.06" ry="1.06"/><path class="cls-3" d="M21.66,91.86v-30A12.66,12.66,0,0,1,34.29,49.26h0A12.66,12.66,0,0,1,46.92,61.89v30"/><path class="cls-2" d="M49.06,91.86H44.78v-30a10.49,10.49,0,0,0-21,0v30H19.52v-30a14.77,14.77,0,0,1,29.54,0Z"/><path class="cls-4" d="M70.25,76.51A13.66,13.66,0,1,1,83.91,62.85,13.68,13.68,0,0,1,70.25,76.51Z"/><path class="cls-2" d="M70.25,51.33A11.55,11.55,0,0,1,81.77,62.85h0a11.52,11.52,0,0,1-23,0h0A11.56,11.56,0,0,1,70.25,51.33m0-4.28a15.8,15.8,0,1,0,15.8,15.8,15.81,15.81,0,0,0-15.8-15.8Z"/><rect class="cls-2" x="68.08" y="48.66" width="4.34" height="28.39" rx="1.02" ry="1.02"/><rect class="cls-2" x="68.08" y="48.66" width="4.34" height="28.39" rx="1.02" ry="1.02" transform="translate(133.1 -7.4) rotate(90)"/><path class="cls-1" d="M9.22,37.61V82.5a9.38,9.38,0,0,0,9.36,9.36H83.29a9.39,9.39,0,0,0,9.36-9.36V37.61Z"/><rect class="cls-2" x="38" y="9.6" width="15.63" height="6.51" rx="1.52" ry="1.52" transform="translate(-1.75 11.39) rotate(-13.91)"/><rect class="cls-2" x="28.91" y="15.49" width="15.63" height="6.51" rx="1.52" ry="1.52" transform="translate(-3.43 9.38) rotate(-13.91)"/><rect class="cls-2" x="19.81" y="21.37" width="15.63" height="6.51" rx="1.52" ry="1.52" transform="translate(-5.11 7.36) rotate(-13.91)"/><rect class="cls-2" x="10.72" y="27.25" width="15.63" height="6.51" rx="1.52" ry="1.52" transform="translate(-6.79 5.35) rotate(-13.91)"/><rect class="cls-2" x="1.63" y="33.13" width="15.63" height="6.51" rx="1.52" ry="1.52" transform="translate(-8.47 3.34) rotate(-13.91)"/><rect class="cls-2" x="46.82" y="9.6" width="15.63" height="6.51" rx="1.52" ry="1.52" transform="translate(104.57 38.47) rotate(-166.09)"/><rect class="cls-2" x="55.91" y="15.49" width="15.63" height="6.51" rx="1.52" ry="1.52" transform="translate(121.08 52.25) rotate(-166.09)"/><rect class="cls-2" x="65" y="21.37" width="15.63" height="6.51" rx="1.52" ry="1.52" transform="translate(137.58 66.03) rotate(-166.09)"/><rect class="cls-2" x="74.09" y="27.25" width="15.63" height="6.51" rx="1.52" ry="1.52" transform="translate(154.08 79.81) rotate(-166.09)"/><rect class="cls-2" x="83.18" y="33.13" width="15.63" height="6.51" rx="1.52" ry="1.52" transform="translate(170.58 93.58) rotate(-166.09)"/><polyline class="cls-2" points="7.75 39 94.79 39 49.78 10.52"/><rect class="cls-2" y="37.08" width="100" height="4.55" rx="1.06" ry="1.06"/><path class="cls-3" d="M21.66,91.86v-30A12.66,12.66,0,0,1,34.29,49.26h0A12.66,12.66,0,0,1,46.92,61.89v30"/><path class="cls-2" d="M49.06,91.86H44.78v-30a10.49,10.49,0,0,0-21,0v30H19.52v-30a14.77,14.77,0,0,1,29.54,0Z"/><path class="cls-4" d="M70.25,76.51A13.66,13.66,0,1,1,83.91,62.85,13.68,13.68,0,0,1,70.25,76.51Z"/><path class="cls-2" d="M70.25,51.33A11.55,11.55,0,0,1,81.77,62.85h0a11.52,11.52,0,0,1-23,0h0A11.56,11.56,0,0,1,70.25,51.33m0-4.28a15.8,15.8,0,1,0,15.8,15.8,15.81,15.81,0,0,0-15.8-15.8Z"/><rect class="cls-2" x="68.08" y="48.66" width="4.34" height="28.39" rx="1.02" ry="1.02"/><rect class="cls-2" x="68.08" y="48.66" width="4.34" height="28.39" rx="1.02" ry="1.02" transform="translate(133.1 -7.4) rotate(90)"/></svg>