<svg id="Layer_1" data-name="Layer 1" xmlns="http://www.w3.org/2000/svg" xmlns:xlink="http://www.w3.org/1999/xlink" viewBox="0 0 100 100"><defs><style>.cls-1{fill:none;}.cls-2{fill:#bf9b77;}.cls-3{fill:#9f8163;}.cls-4{fill:#b2e2f9;}.cls-5{fill:#f05c38;}.cls-6{fill:#e1b589;}.cls-7{clip-path:url(#clip-path);}.cls-8{fill:#c5c7c9;}</style><clipPath id="clip-path"><path class="cls-1" d="M50,130.63c-26,0-47.24,14-49.82,31.84H0v43a3.89,3.89,0,0,0,3.89,3.88h0a3.88,3.88,0,0,0,3.88-3.88V192.18a3.89,3.89,0,0,1,7.78,0v3.29a3.89,3.89,0,0,0,7.77,0v-8.9a3.89,3.89,0,1,1,7.77,0v2.16a3.89,3.89,0,1,0,7.78,0V170.85c3.58.12,7.3.18,11.13.18,27.61,0,50-3.14,50-7C98.46,145.42,76.78,130.63,50,130.63Z"/></clipPath></defs><title>thermometer</title><rect class="cls-2" x="15.41" width="69.18" height="100" rx="4.99" ry="4.99"/><rect class="cls-3" x="33.79" y="24.6" width="32.42" height="3.33"/><rect class="cls-3" x="33.79" y="37.12" width="32.42" height="3.33"/><rect class="cls-3" x="33.79" y="49.64" width="32.42" height="3.33"/><circle class="cls-4" cx="50" cy="77.51" r="14.1"/><path class="cls-4" d="M50,10.42h0a8.45,8.45,0,0,1,8.45,8.45V78.33a0,0,0,0,1,0,0H41.55a0,0,0,0,1,0,0V18.87A8.45,8.45,0,0,1,50,10.42Z"/><circle class="cls-5" cx="50" cy="77.35" r="11.19"/><rect class="cls-5" x="44.62" y="40.71" width="10.75" height="37.29"/><circle class="cls-6" cx="22.65" cy="8.1" r="3.04"/><circle class="cls-6" cx="76.48" cy="8.1" r="3.04"/><circle class="cls-6" cx="76.48" cy="92.91" r="3.04"/><circle class="cls-6" cx="22.65" cy="92.91" r="3.04"/><g class="cls-7"><ellipse class="cls-8" cx="54.78" cy="154.53" rx="62.05" ry="64.9" transform="translate(-108.42 138.86) rotate(-65)"/></g></svg>