<svg id="Layer_1" data-name="Layer 1" xmlns="http://www.w3.org/2000/svg" viewBox="0 0 100 100"><defs><style>.cls-1{fill:#447d93;}.cls-2{fill:#6ab8d9;}.cls-3{fill:#f37d3b;}.cls-4{fill:#ffc63f;}.cls-5{fill:#6d4945;}</style></defs><title>butterfly net</title><circle class="cls-1" cx="24.21" cy="72.12" r="1.19"/><path class="cls-1" d="M26.36,80.55l-1.06-.06c.16-2.68-1.35-7.6-1.36-7.65l1-.31C25,72.74,26.53,77.68,26.36,80.55Z"/><circle class="cls-1" cx="28.64" cy="72.12" r="1.19"/><path class="cls-1" d="M26.49,80.55c-.16-2.87,1.35-7.81,1.42-8l1,.31s-1.53,5-1.37,7.65Z"/><rect class="cls-1" x="23.73" y="76.31" width="5.11" height="13.09" rx="2.55" ry="2.55"/><path class="cls-2" d="M23.63,87.68a3.8,3.8,0,0,1-4.05,3.48,3.8,3.8,0,0,1-4-3.48c0-1.93,7.11-8.47,9.34-8.47S23.63,85.75,23.63,87.68Z"/><path class="cls-2" d="M24.87,79.21c0,2.75-2.59,5-5.79,5s-5.79-2.23-5.79-5-2.95-13.46.25-13.46S24.87,76.45,24.87,79.21Z"/><path class="cls-1" d="M17.17,69.61c.57.79,2.26,4.53,1.47,5.09s-3.77-2.25-4.33-3a1.76,1.76,0,1,1,2.86-2Z"/><path class="cls-1" d="M18.28,87.57c.54-.8,3.44-3.71,4.25-3.17s-.79,4.33-1.33,5.13a1.76,1.76,0,0,1-2.92-2Z"/><path class="cls-1" d="M15.81,74.52c.68.27,3.28,2,3,2.63s-3.31.11-4-.16a1.33,1.33,0,0,1,1-2.47Z"/><circle class="cls-1" cx="20.59" cy="76.29" r="1.18"/><circle class="cls-3" cx="16.59" cy="81.22" r="0.84"/><circle class="cls-3" cx="20.59" cy="81.34" r="1.75"/><path class="cls-2" d="M29.24,87.68a3.79,3.79,0,0,0,4,3.48,3.8,3.8,0,0,0,4-3.48c0-1.93-7.1-8.47-9.34-8.47S29.24,85.75,29.24,87.68Z"/><path class="cls-2" d="M28,79.21c0,2.75,2.59,5,5.79,5s5.79-2.23,5.79-5,3-13.46-.25-13.46S28,76.45,28,79.21Z"/><path class="cls-1" d="M35.69,69.61c-.56.79-2.26,4.53-1.47,5.09s3.77-2.25,4.34-3a1.76,1.76,0,1,0-2.87-2Z"/><path class="cls-1" d="M34.58,87.57c-.54-.8-3.43-3.71-4.24-3.17s.78,4.33,1.32,5.13a1.76,1.76,0,1,0,2.92-2Z"/><path class="cls-1" d="M37.06,74.52c-.68.27-3.28,2-3,2.63s3.31.11,4-.16a1.33,1.33,0,0,0-1-2.47Z"/><circle class="cls-1" cx="32.28" cy="76.29" r="1.18"/><circle class="cls-3" cx="36.28" cy="81.22" r="0.84"/><circle class="cls-3" cx="32.28" cy="81.34" r="1.75"/><path class="cls-4" d="M52.48,64.94,81.23,36.19A19.78,19.78,0,0,0,82.3,9.41S77.94,5,77.94,5a19.78,19.78,0,0,0-27.12.78L22.07,34.53ZM82.61,13.27a17.83,17.83,0,0,1,1.92,13l-4.74-4.74c.37-.62.74-1.26,1.06-1.9A15,15,0,0,0,82.61,13.27ZM79.4,9.35c2.26,3.06,1,7.13-1.07,10.73L73.5,15.25ZM64.2,21.73,59,27l-5.68-5.67,5.23-5.23Zm-4.26-7.08a45.38,45.38,0,0,1,5.69-4.52l5.09,5.08-5.11,5.11ZM57.6,28.33l-5.24,5.24-5.68-5.68,5.24-5.24ZM45.27,26.48,39.1,20.32l5.25-5.25,6.16,6.17ZM43.9,27.85l-5.38,5.38-6.17-6.16,5.38-5.38Zm1.41,1.41L51,34.94l-5.37,5.38-5.68-5.68Zm7.08,7.09L58.07,42l-5.38,5.38L47,41.73Zm7.09,7.09,5.84,5.84-5.38,5.38L54.1,48.82Zm1.38-1.37,5.24-5.25,5.84,5.84-5.25,5.25Zm-1.42-1.41L53.77,35,59,29.74l5.68,5.67Zm.94-12.3,5.23-5.22,5.67,5.68L66.06,34ZM67,21.73l5.11-5.11,5.14,5.14a43.73,43.73,0,0,1-4.58,5.64ZM78,7.94l-5.89,5.9L67.33,9.08C70.91,7,75,5.77,78,7.94ZM74.49,4.86a17.86,17.86,0,0,0-8.61,2.77L60.73,2.48A17.8,17.8,0,0,1,74.49,4.86ZM58.61,3.11,64.2,8.69a41,41,0,0,0-5.67,4.55L52.36,7.07A17.58,17.58,0,0,1,58.61,3.11ZM50.94,8.48l6.17,6.16-5.23,5.23L45.72,13.7Zm-25,25.05L31,28.44l6.17,6.16-5.1,5.09Zm7.57,7.57L38.56,36l5.67,5.68-5.09,5.09Zm7.09,7.09,5.09-5.09,5.68,5.68-5.09,5.09Zm7.09,7.09,5.09-5.09L58.57,56l-5.09,5.09Zm25.67-14-5.84-5.84,5.22-5.22,5.84,5.84Zm6.63-6.64L74.1,28.81a47.56,47.56,0,0,0,4.61-5.61l5.2,5.2A17.52,17.52,0,0,1,79.94,34.65Z"/><rect class="cls-5" x="6.03" y="64.75" width="95.59" height="2.25" rx="1.13" ry="1.13" transform="translate(62.35 -18.76) rotate(45)"/></svg>