<svg id="Layer_1" data-name="Layer 1" xmlns="http://www.w3.org/2000/svg" viewBox="0 0 100 100"><defs><style>.cls-1{fill:#909295;}.cls-2{fill:#b3b3b3;}.cls-3{fill:#7d7d7d;}.cls-4{fill:#ebf7fd;}</style></defs><title>vault</title><rect class="cls-1" y="25.2" width="4.49" height="17.61"/><rect class="cls-1" y="55.92" width="4.49" height="17.61"/><rect class="cls-2" x="6.25" y="4.16" width="91.68" height="91.68" rx="9.43" ry="9.43"/><path class="cls-3" d="M88.5,6.23a7.37,7.37,0,0,1,7.36,7.36V86.41a7.37,7.37,0,0,1-7.36,7.36H15.68a7.37,7.37,0,0,1-7.36-7.36V13.59a7.37,7.37,0,0,1,7.36-7.36H88.5m0-4.14H15.68a11.53,11.53,0,0,0-11.5,11.5V86.41a11.53,11.53,0,0,0,11.5,11.5H88.5A11.53,11.53,0,0,0,100,86.41V13.59A11.53,11.53,0,0,0,88.5,2.09Z"/><circle class="cls-4" cx="52.09" cy="50" r="13.29"/><rect class="cls-4" x="47.6" y="14.87" width="8.98" height="70.25" rx="4.49" ry="4.49" transform="translate(-20.1 51.48) rotate(-45)"/><rect class="cls-4" x="47.6" y="14.87" width="8.98" height="70.25" rx="4.49" ry="4.49" transform="translate(50.61 -22.19) rotate(45)"/><circle class="cls-1" cx="52.09" cy="50" r="5.35"/></svg>