<svg id="Layer_1" data-name="Layer 1" xmlns="http://www.w3.org/2000/svg" viewBox="0 0 100 100"><defs><style>.cls-1{fill:#ffdb91;}.cls-2{fill:#f9a63f;}.cls-3{fill:#7191a0;}.cls-4{fill:#d1dce3;}.cls-5{fill:#ffc640;}.cls-6{fill:#f9a83f;}</style></defs><title>spaghetti</title><rect class="cls-1" x="70.61" y="-6.93" width="2.2" height="55.38" rx="1.1" ry="1.1" transform="translate(35.68 -44.62) rotate(45)"/><rect class="cls-2" x="73.56" y="-5.84" width="2.2" height="56.92" rx="1.1" ry="1.1" transform="translate(37.86 -46.16) rotate(45)"/><rect class="cls-1" x="76.2" y="-3.2" width="2.2" height="56.92" rx="1.1" ry="1.1" transform="translate(40.51 -47.26) rotate(45)"/><rect class="cls-2" x="78.07" y="0.53" width="2.2" height="55.38" rx="1.1" ry="1.1" transform="translate(43.14 -47.71) rotate(45)"/><rect class="cls-1" x="79.89" y="5.4" width="2.2" height="52.86" rx="1.1" ry="1.1" transform="translate(46.23 -47.95) rotate(45)"/><rect class="cls-2" x="80.86" y="11.28" width="2.2" height="48.79" rx="1.1" ry="1.1" transform="translate(49.23 -47.51) rotate(45)"/><rect class="cls-1" x="81.95" y="17.68" width="2.2" height="44.4" rx="1.1" ry="1.1" transform="translate(52.52 -47.05) rotate(45)"/><rect class="cls-2" x="82.73" y="24.02" width="2.2" height="39.78" rx="1.1" ry="1.1" transform="translate(55.6 -46.41) rotate(45)"/><rect class="cls-1" x="54.99" y="-3.72" width="2.2" height="39.78" rx="1.1" ry="1.1" transform="translate(27.86 -34.92) rotate(45)"/><rect class="cls-2" x="59.03" y="-5.25" width="2.2" height="44.4" rx="1.1" ry="1.1" transform="translate(29.6 -37.55) rotate(45)"/><rect class="cls-1" x="63.22" y="-6.36" width="2.2" height="48.79" rx="1.1" ry="1.1" transform="translate(31.59 -40.2) rotate(45)"/><rect class="cls-2" x="67.07" y="-7.42" width="2.2" height="52.86" rx="1.1" ry="1.1" transform="translate(33.41 -42.64) rotate(45)"/><rect class="cls-3" x="-4.65" y="78.88" width="45.76" height="5.79" transform="translate(63.16 11.06) rotate(45)"/><rect class="cls-4" x="16.2" y="33.35" width="45.76" height="55.13" transform="translate(54.52 -9.79) rotate(45)"/><path class="cls-5" d="M36.8,61.28a9.4,9.4,0,0,1-2.52,4.44A4.83,4.83,0,0,1,33,61.83a9.4,9.4,0,0,1,2.52-4.44A4.83,4.83,0,0,1,36.8,61.28Z"/><path class="cls-5" d="M38.72,63.2a9.4,9.4,0,0,0-4.44,2.52,4.83,4.83,0,0,0,3.89,1.33,9.4,9.4,0,0,0,4.44-2.52A4.83,4.83,0,0,0,38.72,63.2Z"/><path class="cls-5" d="M39.79,58.28a9.33,9.33,0,0,1-2.51,4.44A4.83,4.83,0,0,1,36,58.83a9.4,9.4,0,0,1,2.52-4.44A4.84,4.84,0,0,1,39.79,58.28Z"/><path class="cls-5" d="M41.72,60.21a9.33,9.33,0,0,0-4.44,2.51,4.83,4.83,0,0,0,3.89,1.33,9.4,9.4,0,0,0,4.44-2.52A4.84,4.84,0,0,0,41.72,60.21Z"/><path class="cls-5" d="M42.79,55.29a9.4,9.4,0,0,1-2.52,4.44,4.83,4.83,0,0,1-1.33-3.89,9.4,9.4,0,0,1,2.52-4.44A4.83,4.83,0,0,1,42.79,55.29Z"/><path class="cls-5" d="M44.71,57.21a9.4,9.4,0,0,0-4.44,2.52,4.87,4.87,0,0,0,3.89,1.33,9.4,9.4,0,0,0,4.44-2.52A4.83,4.83,0,0,0,44.71,57.21Z"/><path class="cls-5" d="M45.79,52.29a9.4,9.4,0,0,1-2.52,4.44,4.83,4.83,0,0,1-1.33-3.89,9.4,9.4,0,0,1,2.52-4.44A4.83,4.83,0,0,1,45.79,52.29Z"/><path class="cls-5" d="M47.71,54.21a9.4,9.4,0,0,0-4.44,2.52,4.83,4.83,0,0,0,3.89,1.33,9.4,9.4,0,0,0,4.44-2.52A4.83,4.83,0,0,0,47.71,54.21Z"/><path class="cls-5" d="M48.78,49.29a9.33,9.33,0,0,1-2.51,4.44,4.83,4.83,0,0,1-1.33-3.89,9.35,9.35,0,0,1,2.52-4.43A4.81,4.81,0,0,1,48.78,49.29Z"/><path class="cls-5" d="M50.71,51.22a9.33,9.33,0,0,0-4.44,2.51,4.83,4.83,0,0,0,3.89,1.33,9.35,9.35,0,0,0,4.43-2.52A4.81,4.81,0,0,0,50.71,51.22Z"/><path class="cls-5" d="M42.29,54.74a45.51,45.51,0,0,0-8,11,45.51,45.51,0,0,0,11-8,45.51,45.51,0,0,0,8-11A45.51,45.51,0,0,0,42.29,54.74Z"/><rect class="cls-5" x="29.65" y="61.33" width="1.48" height="16.56" rx="0.35" ry="0.35" transform="translate(58.12 -1.1) rotate(45)"/><path class="cls-6" d="M48.18,50.75a1.27,1.27,0,0,0-.06-.39,1.47,1.47,0,0,1-2.84,0,1.67,1.67,0,0,0-.06.39,1.48,1.48,0,0,0,3,0Z"/><path class="cls-6" d="M49.36,54.88a1.58,1.58,0,0,0,.38-.05,1.47,1.47,0,0,1,0-2.85,1.59,1.59,0,0,0-.38-.06,1.48,1.48,0,1,0,0,3Z"/><path class="cls-6" d="M45.31,53.62a1.59,1.59,0,0,0-.06-.38,1.48,1.48,0,0,1-2.85,0,1.58,1.58,0,0,0,0,.38,1.48,1.48,0,0,0,3,0Z"/><path class="cls-6" d="M46.48,57.76a1.67,1.67,0,0,0,.39-.06,1.47,1.47,0,0,1,0-2.85,1.67,1.67,0,0,0-.39-.05,1.48,1.48,0,0,0,0,3Z"/><path class="cls-6" d="M42.43,56.49a1.58,1.58,0,0,0,0-.38,1.47,1.47,0,0,1-2.85,0,1.59,1.59,0,0,0-.06.38,1.48,1.48,0,1,0,3,0Z"/><path class="cls-6" d="M43.61,60.63a1.21,1.21,0,0,0,.38-.06,1.45,1.45,0,0,1-1.09-1.42A1.47,1.47,0,0,1,44,57.73a1.59,1.59,0,0,0-.38-.06,1.48,1.48,0,1,0,0,3Z"/><path class="cls-6" d="M39.56,59.37A1.51,1.51,0,0,0,39.5,59a1.47,1.47,0,0,1-1.42,1.09A1.45,1.45,0,0,1,36.66,59a1.16,1.16,0,0,0-.06.38,1.48,1.48,0,0,0,3,0Z"/><path class="cls-6" d="M40.74,63.5a1.58,1.58,0,0,0,.38,0,1.47,1.47,0,0,1,0-2.85,1.58,1.58,0,0,0-.38-.05,1.48,1.48,0,1,0,0,3Z"/><path class="cls-5" d="M27.12,74.52a1.71,1.71,0,0,1-3.42,0c0-.94,1.71-8.53,1.71-8.53S27.12,73.58,27.12,74.52Z"/><path class="cls-5" d="M25.48,76.3a1.71,1.71,0,0,1,0-3.42c.94,0,8.53,1.71,8.53,1.71S26.42,76.3,25.48,76.3Z"/><rect class="cls-5" x="38.48" y="70.16" width="1.48" height="16.56" rx="0.35" ry="0.35" transform="translate(66.95 -4.76) rotate(45)"/><path class="cls-5" d="M43.17,73a7.47,7.47,0,0,1-2,3.55,3.88,3.88,0,0,1-1.06-3.11,7.47,7.47,0,0,1,2-3.55A3.88,3.88,0,0,1,43.17,73Z"/><path class="cls-5" d="M44.7,74.49a7.55,7.55,0,0,0-3.55,2,3.86,3.86,0,0,0,3.11,1.06,7.49,7.49,0,0,0,3.55-2A3.88,3.88,0,0,0,44.7,74.49Z"/><path class="cls-5" d="M45.56,70.56a7.49,7.49,0,0,1-2,3.55A3.88,3.88,0,0,1,42.49,71a7.49,7.49,0,0,1,2-3.55A3.84,3.84,0,0,1,45.56,70.56Z"/><path class="cls-5" d="M47.1,72.09a7.56,7.56,0,0,0-3.55,2,3.88,3.88,0,0,0,3.11,1.06,7.47,7.47,0,0,0,3.55-2A3.88,3.88,0,0,0,47.1,72.09Z"/><path class="cls-5" d="M48,68.16a7.49,7.49,0,0,1-2,3.55,3.87,3.87,0,0,1-1.07-3.11,7.56,7.56,0,0,1,2-3.55A3.88,3.88,0,0,1,48,68.16Z"/><path class="cls-5" d="M49.5,69.7a7.49,7.49,0,0,0-3.55,2,3.84,3.84,0,0,0,3.11,1.06,7.55,7.55,0,0,0,3.55-2A3.86,3.86,0,0,0,49.5,69.7Z"/><path class="cls-5" d="M50.36,65.77a7.56,7.56,0,0,1-2,3.54,3.88,3.88,0,0,1-1.06-3.11,7.49,7.49,0,0,1,2-3.54A3.87,3.87,0,0,1,50.36,65.77Z"/><path class="cls-5" d="M51.89,67.3a7.49,7.49,0,0,0-3.55,2,3.87,3.87,0,0,0,3.11,1.07,7.56,7.56,0,0,0,3.55-2A3.88,3.88,0,0,0,51.89,67.3Z"/><path class="cls-5" d="M52.75,63.37a7.49,7.49,0,0,1-2,3.55,3.84,3.84,0,0,1-1.06-3.11,7.49,7.49,0,0,1,2-3.55A3.88,3.88,0,0,1,52.75,63.37Z"/><path class="cls-5" d="M54.29,64.91a7.49,7.49,0,0,0-3.55,2A3.88,3.88,0,0,0,53.85,68a7.49,7.49,0,0,0,3.55-2A3.84,3.84,0,0,0,54.29,64.91Z"/><path class="cls-5" d="M47.56,67.72a36.54,36.54,0,0,0-6.41,8.78,36.11,36.11,0,0,0,8.78-6.4,36.54,36.54,0,0,0,6.41-8.78A36.11,36.11,0,0,0,47.56,67.72Z"/><path class="cls-6" d="M52.27,64.53a1.06,1.06,0,0,0-.05-.31,1.17,1.17,0,0,1-2.27,0,1.06,1.06,0,0,0-.05.31,1.19,1.19,0,0,0,2.37,0Z"/><path class="cls-6" d="M53.21,67.84a1.06,1.06,0,0,0,.31,0,1.17,1.17,0,0,1,0-2.27,1.06,1.06,0,0,0-.31,0,1.19,1.19,0,0,0,0,2.37Z"/><path class="cls-6" d="M50,66.83a1.55,1.55,0,0,0,0-.31,1.18,1.18,0,0,1-2.28,0,1.06,1.06,0,0,0,0,.31,1.18,1.18,0,0,0,2.36,0Z"/><path class="cls-6" d="M50.91,70.13a1.06,1.06,0,0,0,.31,0,1.18,1.18,0,0,1,0-2.28,1.55,1.55,0,0,0-.31,0,1.18,1.18,0,0,0,0,2.36Z"/><path class="cls-6" d="M47.67,69.12a1.54,1.54,0,0,0,0-.3,1.18,1.18,0,0,1-2.28,0,1.54,1.54,0,0,0,0,.3,1.18,1.18,0,1,0,2.36,0Z"/><path class="cls-6" d="M48.62,72.43a1.54,1.54,0,0,0,.3,0,1.18,1.18,0,0,1,0-2.28,1.54,1.54,0,0,0-.3,0,1.18,1.18,0,1,0,0,2.36Z"/><path class="cls-6" d="M45.37,71.42a1,1,0,0,0,0-.3,1.18,1.18,0,0,1-2.28,0,1.54,1.54,0,0,0,0,.3,1.18,1.18,0,1,0,2.36,0Z"/><path class="cls-6" d="M46.32,74.73a1.54,1.54,0,0,0,.3,0,1.18,1.18,0,0,1,0-2.28,1,1,0,0,0-.3,0,1.18,1.18,0,1,0,0,2.36Z"/><path class="cls-5" d="M35.94,83.35a1.71,1.71,0,0,1-3.41,0c0-.94,1.71-8.53,1.71-8.53S35.94,82.41,35.94,83.35Z"/><path class="cls-5" d="M34.31,85.12a1.71,1.71,0,1,1,0-3.41c.94,0,8.53,1.71,8.53,1.71S35.25,85.12,34.31,85.12Z"/><rect class="cls-5" x="20.82" y="52.5" width="1.48" height="16.56" rx="0.35" ry="0.35" transform="translate(49.29 2.56) rotate(45)"/><path class="cls-5" d="M25.51,55.3a7.55,7.55,0,0,1-2,3.55,3.86,3.86,0,0,1-1.06-3.11,7.49,7.49,0,0,1,2-3.55A3.88,3.88,0,0,1,25.51,55.3Z"/><path class="cls-5" d="M27.05,56.83a7.47,7.47,0,0,0-3.55,2,3.88,3.88,0,0,0,3.11,1.06,7.47,7.47,0,0,0,3.55-2A3.88,3.88,0,0,0,27.05,56.83Z"/><path class="cls-5" d="M27.91,52.9a7.56,7.56,0,0,1-2,3.55,3.88,3.88,0,0,1-1.06-3.11,7.47,7.47,0,0,1,2-3.55A3.88,3.88,0,0,1,27.91,52.9Z"/><path class="cls-5" d="M29.44,54.44a7.49,7.49,0,0,0-3.55,2A3.88,3.88,0,0,0,29,57.51a7.49,7.49,0,0,0,3.55-2A3.84,3.84,0,0,0,29.44,54.44Z"/><path class="cls-5" d="M30.3,50.5a7.49,7.49,0,0,1-2,3.55,3.84,3.84,0,0,1-1.06-3.11,7.55,7.55,0,0,1,2-3.55A3.86,3.86,0,0,1,30.3,50.5Z"/><path class="cls-5" d="M31.84,52a7.49,7.49,0,0,0-3.55,2,3.87,3.87,0,0,0,3.11,1.07,7.56,7.56,0,0,0,3.55-2A3.88,3.88,0,0,0,31.84,52Z"/><path class="cls-5" d="M32.7,48.11a7.49,7.49,0,0,1-2,3.55,3.87,3.87,0,0,1-1.07-3.11,7.56,7.56,0,0,1,2-3.55A3.88,3.88,0,0,1,32.7,48.11Z"/><path class="cls-5" d="M34.23,49.64a7.56,7.56,0,0,0-3.54,2,3.88,3.88,0,0,0,3.11,1.06,7.49,7.49,0,0,0,3.54-2A3.87,3.87,0,0,0,34.23,49.64Z"/><path class="cls-5" d="M35.09,45.71a7.49,7.49,0,0,1-2,3.55A3.88,3.88,0,0,1,32,46.15a7.49,7.49,0,0,1,2-3.55A3.84,3.84,0,0,1,35.09,45.71Z"/><path class="cls-5" d="M36.63,47.25a7.49,7.49,0,0,0-3.55,2,3.84,3.84,0,0,0,3.11,1.06,7.49,7.49,0,0,0,3.55-2A3.88,3.88,0,0,0,36.63,47.25Z"/><path class="cls-5" d="M29.9,50.07a36.11,36.11,0,0,0-6.4,8.78,36.54,36.54,0,0,0,8.78-6.41,36.11,36.11,0,0,0,6.4-8.78A36.54,36.54,0,0,0,29.9,50.07Z"/><path class="cls-6" d="M34.61,46.87a1.54,1.54,0,0,0,0-.3,1.18,1.18,0,0,1-2.28,0,1.54,1.54,0,0,0,0,.3,1.18,1.18,0,0,0,2.36,0Z"/><path class="cls-6" d="M35.55,50.18a1.55,1.55,0,0,0,.31,0,1.18,1.18,0,0,1,0-2.28,1.06,1.06,0,0,0-.31,0,1.18,1.18,0,0,0,0,2.36Z"/><path class="cls-6" d="M32.31,49.17a1,1,0,0,0,0-.3,1.18,1.18,0,0,1-2.28,0,1.36,1.36,0,0,0,0,.3,1.18,1.18,0,1,0,2.36,0Z"/><path class="cls-6" d="M33.26,52.48a1,1,0,0,0,.3,0,1.17,1.17,0,0,1,0-2.27,1,1,0,0,0-.3,0,1.19,1.19,0,1,0,0,2.37Z"/><path class="cls-6" d="M30,51.47a1.06,1.06,0,0,0-.05-.31,1.17,1.17,0,0,1-2.27,0,1.06,1.06,0,0,0-.05.31,1.19,1.19,0,0,0,2.37,0Z"/><path class="cls-6" d="M31,54.78a1,1,0,0,0,.3-.05,1.18,1.18,0,0,1,0-2.27,1,1,0,0,0-.3-.05,1.19,1.19,0,0,0,0,2.37Z"/><path class="cls-6" d="M27.72,53.77a1.06,1.06,0,0,0,0-.31,1.17,1.17,0,0,1-2.27,0,1.06,1.06,0,0,0,0,.31,1.19,1.19,0,0,0,2.37,0Z"/><path class="cls-6" d="M28.66,57.07A1.06,1.06,0,0,0,29,57a1.18,1.18,0,0,1,0-2.28,1.55,1.55,0,0,0-.31,0,1.18,1.18,0,0,0,0,2.36Z"/><path class="cls-5" d="M18.29,65.69a1.71,1.71,0,1,1-3.41,0c0-.94,1.7-8.53,1.7-8.53S18.29,64.75,18.29,65.69Z"/><path class="cls-5" d="M16.65,67.47a1.71,1.71,0,0,1,0-3.41c.94,0,8.53,1.7,8.53,1.7S17.59,67.47,16.65,67.47Z"/></svg>