<svg id="Layer_1" data-name="Layer 1" xmlns="http://www.w3.org/2000/svg" viewBox="0 0 100 100"><defs><style>.cls-1{fill:#b2e2f9;}.cls-2{fill:#f05c38;}.cls-3{fill:#d0d2d3;}</style></defs><title>string phone</title><path class="cls-1" d="M74.46,84.39H18.27A18.1,18.1,0,0,1,.19,66.3V66A18.1,18.1,0,0,1,18.27,47.94H81.73a14.24,14.24,0,0,0,0-28.48h-54V15.61h54a18.09,18.09,0,0,1,0,36.17H18.27A14.26,14.26,0,0,0,4,66v.28A14.25,14.25,0,0,0,18.27,80.54H74.46Z"/><path class="cls-2" d="M58.85,69.18,97.69,67.4V96.73L58.85,95a4.89,4.89,0,0,1-4.66-4.89v-16A4.89,4.89,0,0,1,58.85,69.18Z"/><path class="cls-2" d="M41.55,30.8,2.31,32.6V3.27l39.24,1.8a4.47,4.47,0,0,1,4.26,4.47v16.8A4.46,4.46,0,0,1,41.55,30.8Z"/><rect class="cls-3" x="0.19" y="1.56" width="3.12" height="32.75" rx="1.56" ry="1.56"/><rect class="cls-3" x="96.69" y="65.69" width="3.12" height="32.75" rx="1.56" ry="1.56" transform="translate(196.5 164.12) rotate(180)"/></svg>