<svg id="Layer_1" data-name="Layer 1" xmlns="http://www.w3.org/2000/svg" xmlns:xlink="http://www.w3.org/1999/xlink" viewBox="0 0 100 100"><defs><style>.cls-1{fill:none;}.cls-2{fill:#fff;}.cls-3{clip-path:url(#clip-path);}.cls-4{fill:#09a582;}.cls-5{fill:#dddfe0;}.cls-6{fill:#e0e0e0;}.cls-7{fill:#b3b3b3;}</style><clipPath id="clip-path"><path class="cls-1" d="M24,94c0,3.23,8.53,6,25.9,6S76,97.26,76,94L85.7,12.86H14.3Z"/></clipPath></defs><title>paper cup</title><path class="cls-2" d="M85.7,12.86H14.3L24,94h0a.5.5,0,0,0,0,.12c0,3.23,8.53,5.85,25.9,5.85s25.89-2.62,25.89-5.85a.5.5,0,0,0,0-.12H76Z"/><g class="cls-3"><rect class="cls-4" x="-31.23" y="28.49" width="119.66" height="10.5" transform="translate(-15.48 30.11) rotate(-45)"/><rect class="cls-4" x="-14.19" y="45.53" width="119.66" height="10.5" transform="translate(-22.54 47.15) rotate(-45)"/><rect class="cls-4" x="2.85" y="62.57" width="119.66" height="10.5" transform="translate(-29.6 64.19) rotate(-45)"/><rect class="cls-4" x="19.89" y="79.61" width="119.66" height="10.5" transform="translate(-36.65 81.22) rotate(-45)"/></g><rect class="cls-5" x="11.78" y="7.97" width="76.45" height="3.11"/><ellipse class="cls-6" cx="50" cy="10.71" rx="38.22" ry="7.97"/><ellipse class="cls-2" cx="50" cy="7.97" rx="38.22" ry="7.97"/><ellipse class="cls-7" cx="50" cy="7.8" rx="35.61" ry="5.9"/></svg>