<svg id="Layer_1" data-name="Layer 1" xmlns="http://www.w3.org/2000/svg" xmlns:xlink="http://www.w3.org/1999/xlink" viewBox="0 0 100 100"><defs><style>.cls-1{fill:none;}.cls-2{clip-path:url(#clip-path);}.cls-3{fill:#09a582;}.cls-4{fill:#583936;}.cls-5{fill:#e1b589;}.cls-6{fill:#714c48;}.cls-7{fill:#452a27;}</style><clipPath id="clip-path"><path class="cls-1" d="M-96,94c0,3.23,8.53,6,25.9,6S-44,97.26-44,94l9.69-81.17h-71.4Z"/></clipPath></defs><title>hedgehog</title><g class="cls-2"><rect class="cls-3" x="-100.11" y="79.61" width="119.66" height="10.5" transform="translate(-71.8 -3.63) rotate(-45)"/></g><path class="cls-4" d="M100,66.81h0a19.09,19.09,0,0,0-8-9.68,18.81,18.81,0,0,0,6.43-2.29,19.08,19.08,0,0,0-10.93-8.7,19.27,19.27,0,0,0,3.75-3.54,19.07,19.07,0,0,0-13-4.15,19.29,19.29,0,0,0,3.16-5,19.1,19.1,0,0,0-14.76-.2,18.79,18.79,0,0,0,.93-4.53h0A19.09,19.09,0,0,0,55.7,31.77a18.82,18.82,0,0,0-.36-6.05h0A19,19,0,0,0,44.18,33l-.31,0a19,19,0,0,0-2.34-6.75h0a19.09,19.09,0,0,0-8,9.08,18.9,18.9,0,0,0-3.77-6.39A18.94,18.94,0,0,0,24.07,38a19.16,19.16,0,0,0-5.63-5.72h0A19,19,0,0,0,15.39,41a19.25,19.25,0,0,0-5.77-3.9A19.09,19.09,0,0,0,11.74,56l2.46-2.46a11.41,11.41,0,0,1,8.05-3.33h.52A12.5,12.5,0,0,1,35,65.34h0a11.08,11.08,0,0,1-1.68,3.9h5.26a5,5,0,0,1,5,5H58.85a5,5,0,0,1,5-5h8.58l.16,0a2.11,2.11,0,0,1,2-2.91h7a2.13,2.13,0,1,1,0,4.25h-5.7a5,5,0,0,1,1.62,3.68H94.34a19.24,19.24,0,0,0-4.14-6.56A19,19,0,0,0,100,66.81ZM36.09,46.11h-7a2.13,2.13,0,0,1,0-4.25h7a2.13,2.13,0,1,1,0,4.25ZM40.4,53a2.13,2.13,0,0,1,2.13-2.13h7a2.13,2.13,0,1,1,0,4.25h-7A2.12,2.12,0,0,1,40.4,53ZM51.1,68.47h-7a2.13,2.13,0,1,1,0-4.25h7a2.13,2.13,0,1,1,0,4.25Zm5.63-25.88h-7a2.13,2.13,0,0,1,0-4.25h7a2.13,2.13,0,0,1,0,4.25ZM68,60.85H61a2.13,2.13,0,1,1,0-4.25h7a2.13,2.13,0,1,1,0,4.25Zm8.62-13A2.12,2.12,0,0,1,74.47,50h-7a2.12,2.12,0,0,1-2.12-2.12h0a2.12,2.12,0,0,1,2.12-2.13h7a2.12,2.12,0,0,1,2.12,2.13ZM87.92,58.73h-7a2.13,2.13,0,1,1,0-4.25h7a2.13,2.13,0,1,1,0,4.25Z"/><path class="cls-5" d="M30,69.24h3.32A11.08,11.08,0,0,0,35,65.34h0A12.5,12.5,0,0,0,22.77,50.16h-.52a11.41,11.41,0,0,0-8,3.33L11.74,56l-7.8,7.81v.62a2,2,0,0,1-2,2,2.58,2.58,0,0,1-.4,0c.18,7.94,12.35,8,19.67,7.94H24c.34,0,.67,0,1,0A5,5,0,0,1,30,69.24ZM25.3,56.35a2.38,2.38,0,1,1-2.37,2.38A2.39,2.39,0,0,1,25.3,56.35Z"/><path d="M3.94,64.38V62.13a2,2,0,1,0-3.94,0v2.25a2,2,0,0,0,1.57,1.93,2.58,2.58,0,0,0,.4,0A2,2,0,0,0,3.94,64.38Z"/><path d="M25.3,61.1a2.38,2.38,0,1,0-2.37-2.37A2.38,2.38,0,0,0,25.3,61.1Z"/><rect class="cls-6" x="65.35" y="45.75" width="11.25" height="4.25" rx="2.12" ry="2.12"/><path class="cls-6" d="M56.73,38.34h-7a2.13,2.13,0,0,0,0,4.25h7a2.13,2.13,0,0,0,0-4.25Z"/><path class="cls-6" d="M49.52,55.07a2.13,2.13,0,1,0,0-4.25h-7a2.13,2.13,0,1,0,0,4.25Z"/><path class="cls-6" d="M68,56.6H61a2.13,2.13,0,1,0,0,4.25h7a2.13,2.13,0,1,0,0-4.25Z"/><path class="cls-6" d="M87.92,54.48h-7a2.13,2.13,0,1,0,0,4.25h7a2.13,2.13,0,1,0,0-4.25Z"/><path class="cls-6" d="M36.09,41.86h-7a2.13,2.13,0,0,0,0,4.25h7a2.13,2.13,0,1,0,0-4.25Z"/><path class="cls-6" d="M51.1,64.22h-7a2.13,2.13,0,1,0,0,4.25h7a2.13,2.13,0,1,0,0-4.25Z"/><path class="cls-6" d="M81.59,70.6a2.13,2.13,0,1,0,0-4.25h-7a2.11,2.11,0,0,0-2,2.91,5,5,0,0,1,3.26,1.34Z"/><path class="cls-7" d="M38.57,69.24H30a5,5,0,0,0-5,5s0,0,0,.08H43.61A5,5,0,0,0,38.57,69.24Z"/><path class="cls-7" d="M75.89,70.6a5,5,0,0,0-3.26-1.34l-.16,0H63.89a5,5,0,0,0-5,5H77.51A5,5,0,0,0,75.89,70.6Z"/></svg>