<svg id="Layer_1" data-name="Layer 1" xmlns="http://www.w3.org/2000/svg" viewBox="0 0 100 100"><defs><style>.cls-1{fill:#b95f2b;}.cls-2{fill:#f37d3b;}.cls-3{fill:#f6935e;}</style></defs><title>caramel</title><path class="cls-1" d="M28.67,35.82H42.94a0,0,0,0,1,0,0V92.09a7.13,7.13,0,0,1-7.13,7.13h0a7.13,7.13,0,0,1-7.13-7.13V35.82a0,0,0,0,1,0,0Z"/><path class="cls-1" d="M57.2,35.82H71.47a0,0,0,0,1,0,0V82.31a7.13,7.13,0,0,1-7.13,7.13h0a7.13,7.13,0,0,1-7.13-7.13V35.82a0,0,0,0,1,0,0Z"/><path class="cls-1" d="M12.41,40.82l2,31.86a7.13,7.13,0,1,1,14.26,0l2-31.86Z"/><path class="cls-1" d="M85.73,38.47H100a0,0,0,0,1,0,0V66.12a7.13,7.13,0,0,1-7.13,7.13h0a7.13,7.13,0,0,1-7.13-7.13V38.47A0,0,0,0,1,85.73,38.47Z"/><path class="cls-1" d="M69.47,33.73l2,31.86a7.13,7.13,0,0,1,14.26,0l2-31.86Z"/><path class="cls-1" d="M40.94,47.81l2,31.54a7.13,7.13,0,0,1,14.26,0l2-31.54Z"/><path class="cls-1" d="M.14,37.82H14.41a0,0,0,0,1,0,0V72.71a7.13,7.13,0,0,1-7.13,7.13h0A7.13,7.13,0,0,1,.14,72.71V37.82a0,0,0,0,1,0,0Z"/><rect class="cls-1" x="0.03" y="38.11" width="99.8" height="7.36"/><ellipse class="cls-1" cx="49.93" cy="45.47" rx="49.93" ry="13.8"/><ellipse class="cls-1" cx="49.93" cy="38.76" rx="49.93" ry="13.8"/><ellipse class="cls-2" cx="49.93" cy="34.08" rx="32.14" ry="8.88"/><rect class="cls-2" x="17.82" y="34.08" width="64.22" height="4.07"/><ellipse class="cls-2" cx="49.93" cy="37.63" rx="32.14" ry="8.88"/><ellipse class="cls-3" cx="49.93" cy="33.44" rx="19.75" ry="5.46"/><rect class="cls-3" x="30.2" y="28.74" width="39.46" height="4.7"/><ellipse class="cls-3" cx="49.93" cy="28.42" rx="19.75" ry="5.46"/><rect class="cls-2" x="35.94" y="23.5" width="25.06" height="8.24" rx="4.06" ry="4.06" transform="translate(96.94 55.24) rotate(180)"/><path class="cls-2" d="M43.09.77H62a0,0,0,0,1,0,0V20.44a4.06,4.06,0,0,1-4.06,4.06H43.09A4.06,4.06,0,0,1,39,20.44V4.83A4.06,4.06,0,0,1,43.09.77Z" transform="translate(101.03 25.27) rotate(180)"/><rect class="cls-2" x="40.94" y="21.5" width="23.06" height="8.24" rx="4.06" ry="4.06" transform="translate(104.94 51.24) rotate(-180)"/><ellipse class="cls-3" cx="57.81" cy="24.58" rx="1.66" ry="2.17" transform="translate(-4.9 28.35) rotate(-26.48)"/></svg>