<svg id="Layer_1" data-name="Layer 1" xmlns="http://www.w3.org/2000/svg" viewBox="0 0 100 100"><defs><style>.cls-1{fill:#714c48;}.cls-2{fill:#a9ccdd;}.cls-3{fill:#dd7236;}.cls-4{fill:#fcc991;}.cls-5{fill:#f05c38;}.cls-6{fill:#b2e2f9;}.cls-7{fill:#f37d3b;}</style></defs><title>maple syrup</title><rect class="cls-1" x="37" y="8" width="26" height="3"/><path class="cls-2" d="M78.82,38.75a17,17,0,0,0,4.31-13.07,17.39,17.39,0,0,0-17.44-15.4H36.49V14a1.11,1.11,0,0,0,1.11,1.11h0a1,1,0,0,1,1,1v8A33.35,33.35,0,0,0,17.06,60.62L25.6,100H74.4l8.54-39.38A33.14,33.14,0,0,0,78.82,38.75ZM62.4,15.12h3.36A12.48,12.48,0,0,1,78.33,26.45,12.18,12.18,0,0,1,76,34.61,33.4,33.4,0,0,0,61.39,24.16v-8A1,1,0,0,1,62.4,15.12Z"/><path class="cls-3" d="M61.34,45.56c-9.07,1.29-17.09,5.9-27.22,6.2A32.1,32.1,0,0,1,20,48.48a30.61,30.61,0,0,0-.54,12.14l7.91,36.51H72.62l7.92-36.51a30.8,30.8,0,0,0-.15-10.33C74.28,47.58,67,44.77,61.34,45.56Z"/><path class="cls-1" d="M38.28,0H61.72a1.87,1.87,0,0,1,1.87,1.87v8.41a0,0,0,0,1,0,0H36.41a0,0,0,0,1,0,0V1.87A1.87,1.87,0,0,1,38.28,0Z"/><circle class="cls-4" cx="50" cy="61.17" r="24.68"/><path class="cls-1" d="M50,38.31A22.86,22.86,0,1,1,27.14,61.17,22.88,22.88,0,0,1,50,38.31m0-3.63A26.49,26.49,0,1,0,76.49,61.17,26.49,26.49,0,0,0,50,34.68Z"/><path class="cls-5" d="M65.63,64.31c0-.55-2.3-.4-2.48-.8s2.55-3.64,2.15-4.37-4,.93-4.27.56.23-2.78-.17-3.08-4.17,3.91-4.7,3.42,1.22-8.35.86-8.51-2.72,1.09-3,1-2.15-4.87-2.69-4.87-2.38,4.8-2.68,4.87-2.65-1.18-3-1,1.4,8,.87,8.51-4.31-3.71-4.71-3.42.07,2.72-.16,3.08-3.88-1.29-4.27-.56,2.33,4,2.15,4.37-2.49.25-2.49.8,6.71,4.16,7.16,4.59-2.32,2.22-1.92,2.56,3-.66,8.28-.76v4.8a.79.79,0,0,0,.79.8.8.8,0,0,0,.8-.8V70.7c5.22.1,7.82,1.16,8.28.76S58,69.32,58.48,68.9s7.15-4.05,7.15-4.59"/><ellipse class="cls-6" cx="29.24" cy="36.8" rx="6.72" ry="2.97" transform="translate(-17.76 36.2) rotate(-50.8)"/><circle class="cls-7" cx="49.89" cy="29.35" r="1.32"/><circle class="cls-7" cx="73.36" cy="42.01" r="1.81"/><circle class="cls-7" cx="49.57" cy="93.21" r="1.08"/><circle class="cls-7" cx="30.65" cy="86.84" r="1.44"/><circle class="cls-7" cx="67.73" cy="90.44" r="1.7"/></svg>