<svg id="Layer_1" data-name="Layer 1" xmlns="http://www.w3.org/2000/svg" xmlns:xlink="http://www.w3.org/1999/xlink" viewBox="0 0 100 100"><defs><style>.cls-1{fill:none;}.cls-2{fill:#34201d;}.cls-3{fill:#452a27;}.cls-4{fill:#d0d2d3;}.cls-5{fill:#f2797a;}.cls-6{fill:#fff;}.cls-7{clip-path:url(#clip-path);}.cls-8{fill:#946660;}.cls-9{fill:#7b544f;}.cls-10{fill:#231f20;}.cls-11{fill:#dbdcdd;}.cls-12{fill:#c1321f;}.cls-13{fill:#f9b54c;}.cls-14{fill:#ffd15d;}.cls-15{fill:#324a5e;}.cls-16{fill:#09a380;}</style><clipPath id="clip-path"><path class="cls-1" d="M62.08,26.74,14.67,29.61V44.2A16.2,16.2,0,0,0,27.55,60.06l.59,16.14H33L34.9,60.14,61,58.43c.66,1.52,2.07,4.38,3.43,5.33a3.22,3.22,0,0,1,1.7,2.49l.36,10h4.67l2.51-15.79V38.32A11.57,11.57,0,0,0,62.08,26.74Z"/></clipPath></defs><title>livestock</title><rect class="cls-2" x="1.98" y="66.19" width="97.03" height="3.96"/><rect class="cls-2" x="1.98" y="55.3" width="97.03" height="3.96"/><path class="cls-3" d="M3,47.38H3a3,3,0,0,1,3,3V76.1a0,0,0,0,1,0,0H0a0,0,0,0,1,0,0V50.35A3,3,0,0,1,3,47.38Z"/><path class="cls-3" d="M13.42,47.38h0a3,3,0,0,1,3,3V76.1a0,0,0,0,1,0,0H10.45a0,0,0,0,1,0,0V50.35A3,3,0,0,1,13.42,47.38Z"/><path class="cls-3" d="M23.87,47.38h0a3,3,0,0,1,3,3V76.1a0,0,0,0,1,0,0H20.9a0,0,0,0,1,0,0V50.35A3,3,0,0,1,23.87,47.38Z"/><path class="cls-3" d="M34.32,47.38h0a3,3,0,0,1,3,3V76.1a0,0,0,0,1,0,0H31.35a0,0,0,0,1,0,0V50.35A3,3,0,0,1,34.32,47.38Z"/><path class="cls-3" d="M44.77,47.38h0a3,3,0,0,1,3,3V76.1a0,0,0,0,1,0,0H41.8a0,0,0,0,1,0,0V50.35A3,3,0,0,1,44.77,47.38Z"/><path class="cls-3" d="M55.23,47.38h0a3,3,0,0,1,3,3V76.1a0,0,0,0,1,0,0H52.26a0,0,0,0,1,0,0V50.35A3,3,0,0,1,55.23,47.38Z"/><path class="cls-3" d="M65.68,47.38h0a3,3,0,0,1,3,3V76.1a0,0,0,0,1,0,0H62.71a0,0,0,0,1,0,0V50.35A3,3,0,0,1,65.68,47.38Z"/><path class="cls-3" d="M76.13,47.38h0a3,3,0,0,1,3,3V76.1a0,0,0,0,1,0,0H73.16a0,0,0,0,1,0,0V50.35A3,3,0,0,1,76.13,47.38Z"/><path class="cls-3" d="M86.58,47.38h0a3,3,0,0,1,3,3V76.1a0,0,0,0,1,0,0H83.61a0,0,0,0,1,0,0V50.35A3,3,0,0,1,86.58,47.38Z"/><path class="cls-3" d="M97,47.38h0a3,3,0,0,1,3,3V76.1a0,0,0,0,1,0,0H94.06a0,0,0,0,1,0,0V50.35A3,3,0,0,1,97,47.38Z"/><polygon class="cls-4" points="67.28 76.19 62.61 76.19 60.46 51.06 68.36 51.29 67.28 76.19"/><circle class="cls-5" cx="58" cy="56.44" r="9.64"/><polygon class="cls-4" points="29.21 76.21 24.01 76.21 21.43 51.04 30.29 51.3 29.21 76.21"/><path class="cls-6" d="M62.08,26.74,14.67,29.61V44.2A16.2,16.2,0,0,0,27.55,60.06l.59,16.14H33L34.9,60.14,61,58.43c.66,1.52,2.07,4.38,3.43,5.33a3.22,3.22,0,0,1,1.7,2.49l.36,10h4.67l2.51-15.79V38.32A11.57,11.57,0,0,0,62.08,26.74Z"/><g class="cls-7"><path class="cls-8" d="M46.45,25.07s-10.38,5.6-8.78,12.79,6.39,2.4,9.58,4,12,5.6,14.39,2.4S64,29.07,59.24,26.67,46.45,25.07,46.45,25.07Z"/><path class="cls-8" d="M16.09,56.23s3.2-7.19,8.79-6.39,10.39,2.4,11.19,6.39,1,7.39-1.91,10.09-3.68,8.29-6.88,1.1-10.39-8-12-8.79S16.09,56.23,16.09,56.23Z"/><path class="cls-8" d="M81.61,45.85s-15.23.41-17.2,3.4-1,3.41,3.72,7.19,18.27-1,17.47-5A8.28,8.28,0,0,0,81.61,45.85Z"/><path class="cls-8" d="M26.45,26s-14.7,4-15.9,7.41-.12,3.54,5.34,6.09,17.5-5.33,15.77-9A8.3,8.3,0,0,0,26.45,26Z"/><path class="cls-8" d="M41.66,46.65c-4,.8-4,4-3.19,4.79s4.79,4.79,7.19,3.2.79-5.6.79-5.6Z"/></g><path class="cls-5" d="M56.88,64.32h2.24a0,0,0,0,1,0,0V67.2A1.12,1.12,0,0,1,58,68.32h0a1.12,1.12,0,0,1-1.12-1.12V64.32a0,0,0,0,1,0,0Z"/><path class="cls-5" d="M51.63,63.45h2.24a0,0,0,0,1,0,0v2.87a1.12,1.12,0,0,1-1.12,1.12h0a1.12,1.12,0,0,1-1.12-1.12V63.45a0,0,0,0,1,0,0Z" transform="translate(34.09 -16.51) rotate(26.04)"/><path class="cls-6" d="M24.28,40.37H11.89L10.32,25.76a2.35,2.35,0,0,1,1.93-2.56l4.68-.84a6.35,6.35,0,0,1,2.3,0l4.69.84a2.35,2.35,0,0,1,1.92,2.56Z"/><rect class="cls-5" x="11.3" y="39.46" width="13.58" height="5.05" rx="2.1" ry="2.1"/><path class="cls-8" d="M24,25.21s5-5.45,11-.81C35,24.4,33.84,29.25,24,25.21Z"/><path class="cls-8" d="M11.57,25.21s-5-5.45-11-.81C.59,24.4,1.71,29.25,11.57,25.21Z"/><path class="cls-9" d="M11.86,19.22s-1.56,4,.53,4.9,2.16-.59,2.16-.59S11.74,21.25,11.86,19.22Z"/><path class="cls-9" d="M23.75,19.22s1.56,4-.54,4.9-2.15-.59-2.15-.59S23.87,21.25,23.75,19.22Z"/><circle class="cls-10" cx="12.93" cy="29.69" r="1"/><circle class="cls-10" cx="22.68" cy="29.69" r="1"/><path class="cls-11" d="M77.51,54.56H76.08V34.94a6.61,6.61,0,0,0-6.6-6.6h-5.7L62,26.74l7.5.17a8,8,0,0,1,8,8Z"/><path class="cls-8" d="M76.53,52.07s5.45,5,.8,11C77.33,63.05,72.49,61.93,76.53,52.07Z"/><path class="cls-12" d="M89.66,55.12a.86.86,0,0,0-.24,0,1.37,1.37,0,0,0-1.3-.72,1.36,1.36,0,0,0-1.19.9.65.65,0,0,0-.24,0,1.07,1.07,0,1,0,.94,1.7,1.28,1.28,0,0,0,.68.13,1.44,1.44,0,0,0,.65-.22,1,1,0,0,0,.85.32,1.07,1.07,0,0,0-.15-2.14Z"/><path class="cls-12" d="M92.14,61.44a.79.79,0,0,1-1.57,0c0-.43.35-2.35.78-2.35S92.14,61,92.14,61.44Z"/><path class="cls-6" d="M82.73,60.23a6.65,6.65,0,0,1-.39.63,1.43,1.43,0,0,1-.14.2c-.09.13-.18.26-.27.37a2,2,0,0,1-.19.22l-.25.29-.21.21-.26.24a2.11,2.11,0,0,1-.23.19,2.43,2.43,0,0,1-.25.2l-.25.18-.24.16-.27.16-.24.13-.29.14c-4.63,2.12-10.62-1-10.62-1s-.18,13.57,10.58,13.65h0c.37,0,.76,0,1.15,0,12.64-1,6.3-15.35,12.83-18.31C93.21,57.88,86.91,52.75,82.73,60.23Z"/><path class="cls-13" d="M93.21,57.88a8.83,8.83,0,0,0-1.87-1.09l.19,2.38A4.53,4.53,0,0,1,93.21,57.88Z"/><path class="cls-14" d="M82.73,64.93l0,0,0,0-.1.13,0,0-.22.24,0,0a3.81,3.81,0,0,1-.35.32l0,0-.41.31-.1.07c-.15.1-.31.2-.49.3l-.1.06a7.7,7.7,0,0,1-1.54.62,12.43,12.43,0,0,1-5.94.11s1.5,5,5.88,4.85h.32a7.15,7.15,0,0,0,.85-.14h0c2.32-.53,3.51-1.82,3.91-3.16C84.81,67.1,84,65.29,82.73,64.93Z"/><circle class="cls-15" cx="88.61" cy="57.95" r="0.43"/><rect class="cls-16" y="75.98" width="100" height="4.8"/><polygon class="cls-16" points="4.8 77.8 3.79 69.72 10.84 77.36 4.8 77.8"/><path class="cls-16" d="M8.52,78.38c.28-.87,3-6.69,3-6.69l2.84,6.69Z"/><path class="cls-16" d="M20.89,77.29c.07-.66,4.07-5.6,4.07-5.6l-1,6.11Z"/><path class="cls-16" d="M43.67,77.8c-.15-.51-4.22-8.08-4.22-8.08L50,77.8Z"/><polygon class="cls-16" points="47.74 78.38 51.75 72.56 54.95 77.44 47.74 78.38"/><polygon class="cls-16" points="69.07 77.44 71.98 70.52 73.51 76.93 69.07 77.44"/><path class="cls-16" d="M89.67,77.44c-.08-.3-2.33-5.75-2.33-5.75l7,5.31Z"/><polygon class="cls-16" points="91.78 78.38 96.36 67.83 97.89 77.8 91.78 78.38"/></svg>