<svg id="Layer_1" data-name="Layer 1" xmlns="http://www.w3.org/2000/svg" viewBox="0 0 100 100"><defs><style>.cls-1{fill:#ffc63f;}.cls-2{fill:#069274;}.cls-3{fill:#09a582;}.cls-4{fill:#089a7a;}.cls-5{fill:#ffdb91;}</style></defs><title>sap</title><path class="cls-1" d="M74.79,59.88c-3-2.66-4.39-2.25-4.39-2.25,1.48.43,1.69,1.88,1.54,3.19a6.7,6.7,0,0,1-1.38,3.32c-1.75,2.27-3.31,5.22-2.92,8.3a7.21,7.21,0,0,0,14.35-1C82,65.46,74.79,59.88,74.79,59.88Z"/><path class="cls-2" d="M43.18,26.25a61.38,61.38,0,0,0,.37,7c.35,2.85,1,5.5,2.11,6.94a9.81,9.81,0,0,0,13.77,1.66l.08-.08a9.81,9.81,0,0,0,1.57-13.7c-3.33-4.23-17.57-6.69-17.75-6.72h0S43.17,23.42,43.18,26.25Z"/><path class="cls-2" d="M71.11,58c-6.19,4.93-28.08.86-30.56.39l.73-3.79C50,56.27,65.09,57.86,68.7,55Z"/><path class="cls-2" d="M61.31,50.88a33.3,33.3,0,0,1-1,8.22l-1.85-.52c0-.11,2.91-10.76-1.72-18.94-2.35-4.14-6.25-7-11.59-8.46l.52-1.86c5.85,1.61,10.14,4.77,12.75,9.38A24.75,24.75,0,0,1,61.31,50.88Z"/><path class="cls-3" d="M43.33,21.33h0s-.15,2.09-.14,4.92a61.38,61.38,0,0,0,.37,7c.35,2.85,1,5.5,2.11,6.94a9.81,9.81,0,0,0,13.77,1.66l.08-.08Z"/><path class="cls-2" d="M.16,57.49s4.86,4.37,11,8.87c2,1.43,4.05,2.87,6.16,4.19,1.32.83,2.66,1.6,4,2.3C24.82,74.72,28.19,76,30.86,76a18.52,18.52,0,0,0,0-37C20.64,39,.16,57.49.16,57.49Z"/><path class="cls-3" d="M.16,57.49s4.86,4.37,11,8.87c2,1.43,4.05,2.87,6.16,4.19,1.32.83,2.66,1.6,4,2.3C24.82,74.72,28.19,76,30.86,76A18.55,18.55,0,0,0,49.37,57.49Z"/><path class="cls-4" d="M30.4,57.49,17.33,70.55c1.32.83,2.66,1.6,4,2.3L36.66,57.49Z"/><path class="cls-4" d="M.16,57.49s4.86,4.37,11,8.87L20,57.49Z"/><path class="cls-4" d="M43.18,26.25a61.38,61.38,0,0,0,.37,7h9.22l-5.54-7Z"/><path class="cls-2" d="M68.7,55c6.94-5.44,23.65-2.52,29.58-1.33a1.94,1.94,0,0,1,1.52,2.27h0a1.94,1.94,0,0,1-2.25,1.55C89.28,56,77.16,54.53,74,56.16a1.6,1.6,0,0,1-1.23.14Z"/><ellipse class="cls-5" cx="71.58" cy="74.91" rx="1.39" ry="2.47" transform="translate(-32 72.55) rotate(-45)"/></svg>