<svg id="Layer_1" data-name="Layer 1" xmlns="http://www.w3.org/2000/svg" xmlns:xlink="http://www.w3.org/1999/xlink" viewBox="0 0 100 100"><defs><style>.cls-1{fill:none;}.cls-2{fill:#b3b3b3;}.cls-3{clip-path:url(#clip-path);}.cls-4{fill:#c5c7c9;}.cls-5{fill:#d0d2d3;}.cls-6{fill:#dbdcdd;}.cls-7{fill:#fff;}</style><clipPath id="clip-path"><path class="cls-1" d="M50,10.63c-26,0-47.24,14-49.82,31.84H0v43a3.89,3.89,0,0,0,3.89,3.88h0a3.88,3.88,0,0,0,3.88-3.88V72.18a3.89,3.89,0,0,1,7.78,0v3.29a3.89,3.89,0,0,0,7.77,0v-8.9a3.89,3.89,0,1,1,7.77,0v2.16a3.89,3.89,0,0,0,7.78,0V50.85C42.45,51,46.17,51,50,51c27.61,0,50-3.14,50-7C98.46,25.42,76.78,10.63,50,10.63Z"/></clipPath></defs><title>quicksilver</title><path class="cls-2" d="M50,10.63c-26,0-47.24,14-49.82,31.84H0v43a3.89,3.89,0,0,0,3.89,3.88h0a3.88,3.88,0,0,0,3.88-3.88V72.18a3.89,3.89,0,0,1,7.78,0v3.29a3.89,3.89,0,0,0,7.77,0v-8.9a3.89,3.89,0,1,1,7.77,0v2.16a3.89,3.89,0,0,0,7.78,0V50.85C42.45,51,46.17,51,50,51c27.61,0,50-3.14,50-7C98.46,25.42,76.78,10.63,50,10.63Z"/><g class="cls-3"><ellipse class="cls-4" cx="54.78" cy="34.53" rx="62.05" ry="64.9" transform="translate(0.34 69.58) rotate(-65)"/><ellipse class="cls-5" cx="56.55" cy="30.73" rx="44.48" ry="53.52" transform="translate(4.8 68.99) rotate(-65)"/><ellipse class="cls-6" cx="56.47" cy="30.9" rx="29.11" ry="44.38" transform="translate(4.6 69.02) rotate(-65)"/><ellipse class="cls-7" cx="56.5" cy="30.82" rx="15.24" ry="33.74" transform="translate(4.69 69) rotate(-65)"/></g><ellipse class="cls-6" cx="78.56" cy="37.01" rx="3.63" ry="4.26" transform="translate(2.49 78.91) rotate(-54.07)"/><ellipse class="cls-6" cx="72.47" cy="36.93" rx="1.21" ry="1.42" transform="translate(-8.48 29) rotate(-21.41)"/><ellipse class="cls-6" cx="72.47" cy="32.6" rx="1.85" ry="2.17" transform="translate(3.55 72.15) rotate(-54.07)"/></svg>