<svg id="Layer_1" data-name="Layer 1" xmlns="http://www.w3.org/2000/svg" viewBox="0 0 100 100"><defs><style>.cls-1{fill:#895e59;}.cls-2{fill:#09a582;}.cls-3{fill:#ffe5b1;}.cls-4,.cls-8{fill:#6ab8d9;}.cls-5{fill:#a7d4ea;}.cls-6{fill:#b2e2f9;}.cls-7{fill:#ebf7fd;}.cls-8{opacity:0.5;}.cls-9{fill:#5596b2;}.cls-10{fill:#fcca98;}.cls-11{fill:#f69a85;}.cls-12{fill:#f37d3b;}</style></defs><title>swimming pool</title><rect class="cls-1" x="28.82" y="28.18" width="71.18" height="15.74" rx="3.95" ry="3.95"/><polygon class="cls-1" points="69.09 70.25 97.54 41.8 97.54 32.05 95.81 29.57 51.73 50.97 69.09 70.25"/><path class="cls-2" d="M32.67,29.1,3,58.74H68.14L97,29.88h-.07a7.74,7.74,0,0,0-4.81-1.7H36.69a7.66,7.66,0,0,0-3.61.93"/><path class="cls-1" d="M63.31,57.06H7.87a7.87,7.87,0,0,0,0,15.74H63.31a7.87,7.87,0,0,0,0-15.74Z"/><polygon class="cls-3" points="57.67 54.61 14.75 54.61 38.08 30.78 82.67 30.78 57.67 54.61"/><polygon class="cls-4" points="55.82 51.7 21.75 51.7 40.27 32.78 75.66 32.78 55.82 51.7"/><polygon class="cls-5" points="40.27 32.78 40.27 39.49 28.82 51.7 21.75 51.7 40.27 32.78"/><polyline class="cls-6" points="40.27 32.78 75.66 32.78 68.63 39.49 40.27 39.49 40.27 32.78 40.27 39.49"/><rect class="cls-7" x="42.17" y="27.2" width="0.92" height="10.42" rx="0.46" ry="0.46"/><rect class="cls-7" x="42.63" y="33.61" width="5" height="0.77"/><rect class="cls-7" x="42.5" y="35.98" width="5" height="0.77"/><rect class="cls-7" x="47.17" y="27.2" width="0.92" height="10.42" rx="0.46" ry="0.46"/><polyline class="cls-8" points="40.27 35.62 72.68 35.62 55.82 51.7 24.94 51.7 40.27 35.62"/><path class="cls-9" d="M51.2,44.53c-3.27.29-5.88,1-5.73,2.81s2.94,3,6.21,2.72,5.79-2,5.64-3.75S54.47,44.25,51.2,44.53Zm.13,1.55c-.94.09-2-.14-2-.38s.95-.65,1.89-.73,1.85.16,1.87.4S52.27,46,51.33,46.08Z"/><path class="cls-10" d="M50.85,43.61c-3.27.29-5.87,1-5.72,2.81s2.94,3,6.21,2.72,5.79-2,5.63-3.75S54.12,43.33,50.85,43.61ZM51,45.17c-.94.08-2-.15-2-.39s1-.65,1.89-.73,1.85.16,1.87.4S51.93,45.08,51,45.17Z"/><path class="cls-10" d="M50.85,44.09c-3.27.29-5.87,1-5.72,2.81s2.94,3,6.21,2.72,5.79-2,5.63-3.75S54.12,43.81,50.85,44.09ZM51,45.65c-.94.08-2-.15-2-.39s1-.64,1.89-.73,1.85.16,1.87.4S51.93,45.56,51,45.65Z"/><path class="cls-11" d="M55.59,45.74a1,1,0,0,0,0,.1A.42.42,0,0,0,55.59,45.74Z"/><path class="cls-11" d="M56.91,45.05a2.26,2.26,0,0,0-.13-.33c-.7-1.41-3.17-2.3-6-2s-5.33,1.67-5.61,3.27c0,0,0,0,0,.06a2,2,0,0,0,0,.42,1.85,1.85,0,0,0,.15.57.68.68,0,0,0,.42.11.71.71,0,0,0,.58-.44s0-.07,0-.1h0l0,.1a.59.59,0,0,0,0,.19.68.68,0,0,0,1.35,0h0a.55.55,0,0,0,0,.18.68.68,0,0,0,.74.62A.7.7,0,0,0,49,47h0v.09A.68.68,0,0,0,50.34,47h0a.69.69,0,0,0,.74.61.68.68,0,0,0,.62-.72h0a.68.68,0,0,0,1.34-.17.06.06,0,0,0,0,0h0a.68.68,0,0,0,.71.48.67.67,0,0,0,.62-.74s0-.06,0-.09h0a.66.66,0,0,0,.67.39.67.67,0,0,0,.62-.73.4.4,0,0,0,0-.15.05.05,0,0,0,0,0l0,0a.65.65,0,0,0,.62.3.67.67,0,0,0,.62-.69l.07.07a.85.85,0,0,0,0-.16A1.86,1.86,0,0,0,56.91,45.05Zm-5.93,0c-.94.08-1.72,0-1.74-.29s.72-.51,1.66-.59,1.72,0,1.74.29S51.92,45,51,45.05Z"/><rect class="cls-4" x="46.78" y="44.61" width="0.27" height="0.84" rx="0.07" ry="0.07" transform="matrix(0.51, -0.86, 0.86, 0.51, -15.74, 62.44)"/><rect class="cls-4" x="52.69" y="42.91" width="0.27" height="0.84" rx="0.07" ry="0.07" transform="translate(-15.42 46.58) rotate(-42.09)"/><rect class="cls-4" x="51.64" y="45.3" width="0.27" height="0.84" rx="0.07" ry="0.07" transform="translate(62.04 114.03) rotate(-139.99)"/><rect class="cls-2" x="47.35" y="45.76" width="0.27" height="0.84" rx="0.07" ry="0.07" transform="translate(40.81 -19.72) rotate(40.01)"/><rect class="cls-2" x="51.44" y="42.94" width="0.27" height="0.84" rx="0.07" ry="0.07" transform="translate(114.07 18.2) rotate(118.02)"/><rect class="cls-2" x="48.35" y="43.58" width="0.27" height="0.84" rx="0.07" ry="0.07" transform="translate(110.1 21.87) rotate(118.02)"/><rect class="cls-12" x="53.96" y="45.1" width="0.27" height="0.84" rx="0.07" ry="0.07" transform="translate(-16.56 48) rotate(-42.09)"/><rect class="cls-12" x="50.64" y="43.26" width="0.27" height="0.84" rx="0.07" ry="0.07" transform="translate(19.85 -15.73) rotate(21.8)"/><rect class="cls-12" x="54.86" y="44.33" width="0.27" height="0.84" rx="0.07" ry="0.07" transform="translate(20.55 -17.22) rotate(21.8)"/></svg>