<svg id="Layer_1" data-name="Layer 1" xmlns="http://www.w3.org/2000/svg" viewBox="0 0 100 100"><defs><style>.cls-1{fill:#714c48;}.cls-2{fill:#b2e2f9;}.cls-3{fill:#ffc63f;}.cls-4{fill:#3ab599;}.cls-5{fill:#685c5a;}.cls-6{fill:#059072;}.cls-7{fill:#00795e;}</style></defs><title>painting</title><rect class="cls-1" x="10.32" width="79.37" height="100"/><rect class="cls-2" x="15.65" y="6.72" width="68.7" height="86.55"/><circle class="cls-3" cx="71.32" cy="23.42" r="5.57"/><path class="cls-4" d="M49.92,52.57v3.12c7.68-4.06,16-8.54,24.88-10.25-2-.24-4-.54-5.92-.94-5.25-1-10.81-3.87-16.72-7a21,21,0,0,1,.74,5.79C52.9,48.06,51.6,52,49.92,52.57Z"/><path class="cls-4" d="M28.64,59.9c-1.64-.68-2.9-4.55-2.9-9.23,0-5.16,1.52-9.35,3.41-9.35s3.41,4.19,3.41,9.35c0,4.76-1.3,8.68-3,9.26v3.62c1-.15,2-.33,3-.52a35.81,35.81,0,0,0,6.28-2V57.8c-1.64-.68-2.9-4.55-2.9-9.23,0-5.16,1.53-9.35,3.41-9.35s3.42,4.19,3.42,9.35c0,4.76-1.3,8.68-3,9.26v2.86c3-1.26,6-2.83,9.2-4.5V52.54c-1.65-.68-2.91-4.55-2.91-9.24,0-3.46.7-6.48,1.72-8.1-8.25-4.32-17.16-8.53-26.81-9a32.65,32.65,0,0,0-5.33.21V64.67a104.68,104.68,0,0,0,13-1Z"/><path class="cls-5" d="M29.15,60a1.27,1.27,0,0,1-.51-.12v3.8l.94-.15V59.93A1.27,1.27,0,0,1,29.15,60Z"/><path class="cls-6" d="M29.58,59.93c1.68-.58,3-4.5,3-9.26,0-5.16-1.53-9.35-3.41-9.35s-3.41,4.19-3.41,9.35c0,4.68,1.26,8.55,2.9,9.23a1.11,1.11,0,0,0,.94,0Z"/><path class="cls-5" d="M39.35,57.92a1.35,1.35,0,0,1-.51-.12v3.28l.94-.39V57.83A1.27,1.27,0,0,1,39.35,57.92Z"/><path class="cls-6" d="M39.78,57.83c1.69-.58,3-4.5,3-9.26,0-5.16-1.53-9.35-3.42-9.35s-3.41,4.19-3.41,9.35c0,4.68,1.26,8.55,2.9,9.23a1.35,1.35,0,0,0,.51.12A1.27,1.27,0,0,0,39.78,57.83Z"/><path class="cls-5" d="M49.49,52.65a1.26,1.26,0,0,1-.51-.11v3.65l.94-.5V52.57A1.26,1.26,0,0,1,49.49,52.65Z"/><path class="cls-6" d="M49,52.54a1.22,1.22,0,0,0,.94,0c1.68-.59,3-4.51,3-9.27a21,21,0,0,0-.74-5.79C51.54,35.35,50.57,34,49.49,34a2.2,2.2,0,0,0-1.7,1.25c-1,1.62-1.72,4.64-1.72,8.1C46.07,48,47.33,51.86,49,52.54Z"/><path class="cls-6" d="M79.52,59.18a32.41,32.41,0,0,1,4.83.15V44.82a31.5,31.5,0,0,0-3.89-.07,39.42,39.42,0,0,0-5.66.69c-8.93,1.71-17.2,6.19-24.88,10.25l-.94.5c-3.17,1.67-6.23,3.24-9.2,4.5l-.94.39a35.81,35.81,0,0,1-6.28,2c-1,.19-2,.37-3,.52l-.94.15a104.68,104.68,0,0,1-13,1V79.08a93.44,93.44,0,0,0,16-1.63C45.27,74.72,61,60,79.52,59.18Z"/><path class="cls-7" d="M84.35,59.33a32.41,32.41,0,0,0-4.83-.15C61,60,45.27,74.72,31.62,77.45a93.44,93.44,0,0,1-16,1.63v14.2h68.7Z"/></svg>