<svg id="Layer_1" data-name="Layer 1" xmlns="http://www.w3.org/2000/svg" viewBox="0 0 100 100"><defs><style>.cls-1{fill:none;}.cls-2{fill:#e0e0e0;}</style></defs><title>cookie cutter</title><path class="cls-1" d="M93.54,28.77a11.6,11.6,0,0,0-8.92-3.46,11.64,11.64,0,0,0-11,12.81,2.76,2.76,0,0,1-4.48,2.43l-7.88-6.34a4.51,4.51,0,0,0-6.18.32,4.39,4.39,0,0,0,.49,6.39L59.43,44a5.37,5.37,0,0,1,.82,7.56A52,52,0,0,1,43.76,65.14l-2.33,1.22a4.52,4.52,0,0,0-2.18,5.8,4.36,4.36,0,0,0,2.58,2.36h0a4.41,4.41,0,0,0,3.47-.27l12.32-6.47a2.42,2.42,0,0,1,1.88-.15,2.6,2.6,0,0,1,.73.4,2.39,2.39,0,0,1,.8,2.49L57.43,83.74a4.54,4.54,0,0,0,2.75,5.54h0a4.39,4.39,0,0,0,5.67-3l.75-2.76a52.08,52.08,0,0,1,9.72-19,5.37,5.37,0,0,1,7.55-.83l3.85,3.1a4.42,4.42,0,0,0,6.35-.89,4.53,4.53,0,0,0-1-6.11l-7.88-6.34a2.77,2.77,0,0,1-.92-2.93,2.74,2.74,0,0,1,2.32-2,11.65,11.65,0,0,0,7-19.77Z"/><path class="cls-2" d="M95.73,26.59a14.75,14.75,0,0,0-22,1.12,14.61,14.61,0,0,0-3.23,9.94L63.22,31.8a7.62,7.62,0,0,0-10.42.65,7.48,7.48,0,0,0,.85,10.88l3.84,3.09a2.28,2.28,0,0,1,.35,3.21A49.12,49.12,0,0,1,42.32,62.4L40,63.62a7.62,7.62,0,0,0-3.56,9.81,7.44,7.44,0,0,0,4.39,4h0A7.51,7.51,0,0,0,46.74,77l10.89-5.71L54.45,82.92a7.62,7.62,0,0,0,4.74,9.29h0a7.39,7.39,0,0,0,5.93-.47,7.55,7.55,0,0,0,3.71-4.64l.76-2.77a49,49,0,0,1,9.14-17.9,2.27,2.27,0,0,1,3.2-.34l3.85,3.09A7.5,7.5,0,0,0,96.6,67.67,7.64,7.64,0,0,0,95,57.35L87.72,51.5a14.75,14.75,0,0,0,8-24.91Zm-.81,16.88a11.7,11.7,0,0,1-8.34,5.07,2.74,2.74,0,0,0-2.32,2,2.77,2.77,0,0,0,.92,2.93l7.88,6.34a4.53,4.53,0,0,1,1,6.11,4.42,4.42,0,0,1-6.35.89l-3.85-3.1a5.37,5.37,0,0,0-7.55.83,52.08,52.08,0,0,0-9.72,19l-.75,2.76a4.39,4.39,0,0,1-5.67,3h0a4.54,4.54,0,0,1-2.75-5.54L61,70.53a2.39,2.39,0,0,0-.8-2.49,2.6,2.6,0,0,0-.73-.4,2.42,2.42,0,0,0-1.88.15L45.31,74.26a4.41,4.41,0,0,1-3.47.27h0a4.36,4.36,0,0,1-2.58-2.36,4.52,4.52,0,0,1,2.18-5.8l2.33-1.22A52,52,0,0,0,60.25,51.57,5.37,5.37,0,0,0,59.43,44l-3.84-3.09a4.39,4.39,0,0,1-.49-6.39,4.51,4.51,0,0,1,6.18-.32l7.88,6.34a2.76,2.76,0,0,0,4.48-2.43,11.66,11.66,0,0,1,19.9-9.35A11.8,11.8,0,0,1,94.92,43.47Z"/><path class="cls-1" d="M27.94,21.48l-7.07-10-3.6,11.66a2.24,2.24,0,0,1-1.48,1.48L4.14,28.3l10,7a2.22,2.22,0,0,1,1,1.85L14.93,49.4l9.77-7.31a2.23,2.23,0,0,1,2.07-.33l11.56,3.9L34.39,34.1A2.26,2.26,0,0,1,34.72,32L42,22.25l-12.2.17A2.23,2.23,0,0,1,27.94,21.48Z"/><path class="cls-2" d="M45.71,20.35a2.24,2.24,0,0,0-2-1.22l-13.48.19-7.8-11h0a2.24,2.24,0,0,0-4,.63l-4,12.88-12.87,4a2.25,2.25,0,0,0-.62,4l11,7.77-.15,13.48a2.25,2.25,0,0,0,3.59,1.82L26.2,44.83,39,49.14a2.25,2.25,0,0,0,2.85-2.85L37.47,33.53l8-10.82A2.22,2.22,0,0,0,45.71,20.35ZM34.72,32a2.26,2.26,0,0,0-.33,2.06l3.94,11.56-11.56-3.9a2.23,2.23,0,0,0-2.07.33L14.93,49.4l.14-12.21a2.22,2.22,0,0,0-1-1.85l-10-7,11.65-3.64a2.24,2.24,0,0,0,1.48-1.48l3.6-11.66,7.07,10a2.23,2.23,0,0,0,1.86.94L42,22.25Z"/></svg>