<svg id="Layer_1" data-name="Layer 1" xmlns="http://www.w3.org/2000/svg" xmlns:xlink="http://www.w3.org/1999/xlink" viewBox="0 0 100 100"><defs><style>.cls-1{fill:none;}.cls-2{fill:#b2e2f9;}.cls-3{fill:#282017;}.cls-4{fill:#6ab8d9;}.cls-5{fill:#f05c38;}.cls-6{fill:#f5853c;}.cls-7{fill:#5596b2;}.cls-8{fill:#9dc8dc;}.cls-9{fill:#fff;}.cls-10{clip-path:url(#clip-path);}.cls-11{clip-path:url(#clip-path-2);}</style><clipPath id="clip-path"><polygon class="cls-1" points="19.8 2.83 15.26 18.77 13.04 43.62 18 81.18 57.28 64.4 40.08 15.13 19.8 2.83"/></clipPath><clipPath id="clip-path-2"><path class="cls-1" d="M92.64,29.57H85.4c0,1-2.24,1.75-5,1.75s-5-.79-5-1.75H63.67v8.17H67a2.22,2.22,0,0,1,2.2,2l1.51,14.21a38.38,38.38,0,0,1,0,8.16L68.93,78.78h9.54l1.7-15.61a.53.53,0,0,1,1,0l1.87,15.61h9.55L90.76,61.51a38.92,38.92,0,0,1-.1-7.16l1.16-14.57a2.22,2.22,0,0,1,2.21-2h3.1V29.57Z"/></clipPath></defs><title>windsurfer</title><path class="cls-2" d="M81.25,10v4.1a6.11,6.11,0,0,0,.81,3.33,7.18,7.18,0,0,0,1.69,2.14h0l.3.25a7.41,7.41,0,0,0,4.44,1.52,7.24,7.24,0,0,0,7.23-7.24V10Z"/><path class="cls-2" d="M63.67,10v4.1a6.11,6.11,0,0,0,.81,3.33,7.18,7.18,0,0,0,1.69,2.14h0l.3.25a7.41,7.41,0,0,0,4.44,1.52,7.24,7.24,0,0,0,7.23-7.24V10Z"/><path class="cls-3" d="M70.91,11Zm0,0"/><path class="cls-4" d="M84.05,19.81a7.41,7.41,0,0,0,4.44,1.52V15.38Zm0,0"/><path class="cls-4" d="M88.49,11H81.25v3.1a6.11,6.11,0,0,0,.81,3.33L88.49,11Zm0,0"/><path class="cls-3" d="M88.49,11Zm0,0"/><path class="cls-2" d="M92.88,11H88.49l-6.43,6.43a7.18,7.18,0,0,0,1.69,2.14h0l.3.25,4.44-4.43Zm0,0"/><path class="cls-4" d="M66.47,19.81a7.41,7.41,0,0,0,4.44,1.52V15.38Zm0,0"/><path class="cls-4" d="M70.91,11H63.67v3.1a6.11,6.11,0,0,0,.81,3.33L70.91,11Zm0,0"/><path class="cls-2" d="M75.3,11H70.91l-6.43,6.43a7.18,7.18,0,0,0,1.69,2.14h0l.3.25,4.44-4.43Zm0,0"/><rect class="cls-5" x="94.72" y="7.88" width="3.59" height="3.1"/><rect class="cls-5" x="61.08" y="7.88" width="3.59" height="3.1"/><rect class="cls-5" x="77.14" y="7.88" width="5.1" height="3.1"/><rect class="cls-6" x="63.67" y="7.88" width="14.48" height="3.1"/><rect class="cls-6" x="81.25" y="7.88" width="14.48" height="3.1"/><path class="cls-7" d="M70.91,15.38v5.95a7.24,7.24,0,0,0,7.23-7.24V11H75.3Zm0,0"/><path class="cls-7" d="M88.49,15.38v5.95a7.24,7.24,0,0,0,7.23-7.24V11H92.88Zm0,0"/><path class="cls-5" d="M92.64,29.57H85.4c0,1-2.24,1.75-5,1.75s-5-.79-5-1.75H63.67v8.17H67a2.22,2.22,0,0,1,2.2,2l1.51,14.21a38.38,38.38,0,0,1,0,8.16L68.93,78.78h9.54l1.7-15.61a.53.53,0,0,1,1,0l1.87,15.61h9.55L90.76,61.51a38.92,38.92,0,0,1-.1-7.16l1.16-14.57a2.22,2.22,0,0,1,2.21-2h3.1V29.57Z"/><path class="cls-8" d="M68.25,100h0a10.61,10.61,0,0,1-5.8-3.31L62,96.14a1.13,1.13,0,0,1-.26-.45l-1.42-4.54a1.22,1.22,0,0,1,1.13-1.59l4.79-.15a1.23,1.23,0,0,1,1.25,1l.26,1.72a20.09,20.09,0,0,0,1.33,4.75l.57,1.39A1.22,1.22,0,0,1,68.25,100Z"/><path class="cls-9" d="M1.76,87.42h76.5a0,0,0,0,1,0,0v0a3.86,3.86,0,0,1-3.86,3.86H5.62a3.86,3.86,0,0,1-3.86-3.86v0a0,0,0,0,1,0,0Z"/><polygon class="cls-5" points="19.8 2.83 15.26 18.77 13.04 43.62 18 81.18 57.28 64.4 40.08 15.13 19.8 2.83"/><g class="cls-10"><path class="cls-8" d="M47.73,5.65S16.33,47.47,19.11,81.18s-27-28.87-27-28.87L6.14-.82Z"/></g><path class="cls-9" d="M18.89,90.25h0A1.86,1.86,0,0,1,17,88.39l-.18-.7a178.35,178.35,0,0,1,0-85.12L17,1.86A1.86,1.86,0,0,1,18.89,0h0a1.86,1.86,0,0,1,1.86,1.86l-.17.71a178.1,178.1,0,0,0,0,85.12l.17.7A1.86,1.86,0,0,1,18.89,90.25Z"/><rect class="cls-9" x="36.84" y="33.47" width="3.72" height="41.4" rx="1.86" ry="1.86" transform="translate(92.88 15.47) rotate(90)"/><rect class="cls-9" x="39.23" y="11.53" width="2.32" height="25.8" rx="1.16" ry="1.16" transform="translate(64.82 -15.96) rotate(90)"/><rect class="cls-9" x="56.02" y="22.67" width="2.32" height="3.52" rx="1.16" ry="1.16" transform="translate(81.61 -32.74) rotate(90)"/><rect class="cls-9" x="13.43" y="54.05" width="2.32" height="25.8" rx="1.16" ry="1.16" transform="translate(81.54 52.36) rotate(90)"/><rect class="cls-9" x="30.22" y="65.19" width="2.32" height="3.52" rx="1.16" ry="1.16" transform="translate(98.32 35.57) rotate(90)"/><g class="cls-11"><path class="cls-2" d="M62.37,31.87S80.08,33,76.58,55,72,80.39,72,80.39L60.23,79.11Z"/><path class="cls-2" d="M99.54,31.87S81.83,33,85.34,55s4.53,25.42,4.53,25.42l11.81-1.28Z"/></g><path class="cls-2" d="M81.88,36.49h0c-2.31,0-4.65,1.8-4.69,5.26v1.33a.26.26,0,0,0,.26.26h2.31a3.46,3.46,0,0,1,0-3.52,3.16,3.16,0,0,1,1.46-1.34,3.26,3.26,0,0,1,.86-.21h.29a1,1,0,0,1,.57.27,1,1,0,0,1,.26.5,4.44,4.44,0,0,1,0,1,1.3,1.3,0,0,0,0,.57.31.31,0,0,0,.37.18,2.13,2.13,0,0,0,1.09-1.87A2.56,2.56,0,0,0,81.88,36.49Z"/><path class="cls-4" d="M80.51,40.32a2.2,2.2,0,0,1,.86-1.75,2.11,2.11,0,0,1,.8-.29h.73l-.35-.47a.73.73,0,0,0-.25,0,3.43,3.43,0,0,0-3,1.82,4,4,0,0,0-.16,3.77H82.4A3,3,0,0,1,80.51,40.32Z"/><path class="cls-7" d="M84.66,41.81c-1.73,0-2.91-.6-3.21-1.66a1.81,1.81,0,0,1,0-1.06c.13-.42.44-.83.87-.82a1,1,0,0,1,.57.27,1,1,0,0,1,.26.5,1,1,0,0,0,.07-.36.93.93,0,0,0-.68-.89,2.24,2.24,0,0,0-2.25,1.28,3.09,3.09,0,0,0-.3,1.22,3.69,3.69,0,0,0,1.32,3.05h3.34a.26.26,0,0,0,.26-.26v-1A.26.26,0,0,0,84.66,41.81Z"/></svg>