<svg id="Layer_1" data-name="Layer 1" xmlns="http://www.w3.org/2000/svg" xmlns:xlink="http://www.w3.org/1999/xlink" viewBox="0 0 100 100"><defs><style>.cls-1{fill:none;}.cls-2{fill:#d2b490;}.cls-3{fill:#f1dcbd;}.cls-4{fill:#654440;}.cls-5{fill:#aa7562;}.cls-6{fill:#f05c38;}.cls-7{fill:#fff;}.cls-8{fill:#09a582;}.cls-9{fill:#c5d1a3;}.cls-10{fill:#ecd2ad;}.cls-11{fill:#cfdae0;}.cls-12{fill:#bcd2de;}.cls-13{clip-path:url(#clip-path);}.cls-14{fill:#58595b;}</style><clipPath id="clip-path"><path class="cls-1" d="M445.71,0H374.29A14.33,14.33,0,0,0,360,14.29V85.71A14.33,14.33,0,0,0,374.29,100h71.42A14.33,14.33,0,0,0,460,85.71V14.29A14.33,14.33,0,0,0,445.71,0Z"/></clipPath></defs><title>cookbook</title><rect class="cls-2" y="18.13" width="100" height="61.46"/><path class="cls-3" d="M6.06,13.32H44.63A5.37,5.37,0,0,1,50,18.7V76.13a0,0,0,0,1,0,0H6.06A2.1,2.1,0,0,1,4,74V15.42A2.1,2.1,0,0,1,6.06,13.32Z"/><path class="cls-3" d="M51.63,13.32H96a0,0,0,0,1,0,0V71.45a4.68,4.68,0,0,1-4.68,4.68H51.63A1.63,1.63,0,0,1,50,74.5V15A1.63,1.63,0,0,1,51.63,13.32Z" transform="translate(146.04 89.45) rotate(-180)"/><rect class="cls-4" x="69.36" y="20.64" width="22.05" height="3.43" rx="1.71" ry="1.71"/><rect class="cls-4" x="9.5" y="20.64" width="22.05" height="3.43" rx="1.71" ry="1.71"/><rect class="cls-5" x="59.4" y="32.43" width="32.01" height="1.93" rx="0.97" ry="0.97"/><rect class="cls-5" x="59.4" y="36.6" width="32.01" height="1.93" rx="0.97" ry="0.97"/><rect class="cls-5" x="59.4" y="40.76" width="32.01" height="1.93" rx="0.97" ry="0.97"/><rect class="cls-5" x="9.91" y="58.14" width="32.01" height="1.93" rx="0.97" ry="0.97"/><rect class="cls-5" x="9.91" y="62.31" width="32.01" height="1.93" rx="0.97" ry="0.97"/><rect class="cls-5" x="9.91" y="66.47" width="32.01" height="1.93" rx="0.97" ry="0.97"/><rect class="cls-5" x="9.91" y="33.4" width="16.01" height="1.93" rx="0.97" ry="0.97"/><rect class="cls-5" x="9.91" y="37.56" width="16.01" height="1.93" rx="0.97" ry="0.97"/><rect class="cls-5" x="9.91" y="41.73" width="16.01" height="1.93" rx="0.97" ry="0.97"/><rect class="cls-2" x="42.43" y="77.25" width="15.14" height="5.39"/><path class="cls-6" d="M53.3,83.37l3.31,3.31V13.32H54.32A4.32,4.32,0,0,0,50,17.64v69Z"/><path class="cls-7" d="M18.22,51.59a3.05,3.05,0,0,1-5.29,3c-.84-1.46-1.69-5.69-.23-6.53S17.38,50.13,18.22,51.59Z"/><ellipse class="cls-7" cx="13.03" cy="51.23" rx="0.42" ry="0.51" transform="translate(-19.41 9.49) rotate(-23.59)"/><path class="cls-7" d="M27.65,54.52a3.05,3.05,0,1,1-5.49-2.66c.73-1.52,3.74-4.6,5.26-3.86S28.38,53,27.65,54.52Z"/><ellipse class="cls-7" cx="25.03" cy="50.02" rx="0.51" ry="0.42" transform="translate(-30.64 44.58) rotate(-57.84)"/><path class="cls-7" d="M33.36,55.91a3,3,0,0,1,1.1-6c1.66.31,5.43,2.39,5.13,4.05S35,56.22,33.36,55.91Z"/><ellipse class="cls-7" cx="37" cy="52.19" rx="0.42" ry="0.51" transform="translate(-23.63 72.6) rotate(-73.26)"/><circle class="cls-8" cx="78.93" cy="52.26" r="0.88"/><circle class="cls-8" cx="85.86" cy="54.81" r="0.83"/><circle class="cls-9" cx="82.77" cy="47.88" r="0.71"/><ellipse class="cls-10" cx="77.29" cy="70.71" rx="11.41" ry="1.19"/><ellipse class="cls-10" cx="36.52" cy="45.02" rx="8.59" ry="0.9"/><path class="cls-11" d="M77.16,60.08H64.38c-.59,0-1.07-.93-1.07-1.47v-1c0-.54.48-.49,1.07-.49H89.94c.59,0,1.07,0,1.07.49v1c0,.54-.48,1.47-1.07,1.47Zm0,0"/><path class="cls-12" d="M90,59.59c0,5.9-5.72,11.31-12.78,11.31S64.48,65.49,64.48,59.59Zm0,0"/><path class="cls-7" d="M76.8,69.53h0a12.89,12.89,0,0,1-7.46-3.23.49.49,0,1,1,.67-.72,11.89,11.89,0,0,0,6.89,3,.49.49,0,0,1,0,1Zm0,0"/><path class="cls-7" d="M68,64.87a.51.51,0,0,1-.33-.13,4,4,0,0,1-.59-.64.49.49,0,0,1,.1-.69.5.5,0,0,1,.69.1,4.32,4.32,0,0,0,.45.5.49.49,0,0,1,0,.7.52.52,0,0,1-.36.16Zm0,0"/><path class="cls-8" d="M77.65,57.14v4.38a1.23,1.23,0,0,0,2.46,0V60.3a1.23,1.23,0,0,1,2.46,0v4.06a1.23,1.23,0,0,0,2.45,0V57.14Zm0,0"/><path class="cls-4" d="M77.08,57.14,66.71,46.53a.9.9,0,0,0-1.27-.13l-.12.06a1.19,1.19,0,0,0,0,1.49l9,9.19Zm0,0"/><path class="cls-8" d="M35.73,33.16a2.75,2.75,0,0,1,5.28,1A2.71,2.71,0,0,1,42.56,34a2.75,2.75,0,1,1-1,5.4,2.82,2.82,0,0,1-1.12-.48l-1,5.23-5.88-1.07,1-5.23a2.75,2.75,0,1,1-.23-5.35,2.82,2.82,0,0,1,1.39.69Z"/><path class="cls-9" d="M40.44,39l-.17.94-.77,4.23-5.88-1.07.9-4.92,0-.25,0-.1,5.88,1.07Z"/><path class="cls-8" d="M30.87,41.35A1.21,1.21,0,0,1,33,40.44a1.08,1.08,0,0,1,.53-.43,1.2,1.2,0,1,1,.4,2.31l.9,2.14-2.41,1-.9-2.14a1.29,1.29,0,0,1-.44.31,1.2,1.2,0,1,1-.25-2.29Z"/><path class="cls-9" d="M34,42.34l.16.39.73,1.73-2.41,1-.85-2,0-.11,0,0,2.41-1Z"/><g class="cls-13"><path class="cls-14" d="M157,135.57c184-94,341-155.93,357.11-141.2L633.26-66.55c-67.42,1.13-262.4,76.19-483,189C99.08,148.55,50.52,174.75,5.37,200.28H36C73.21,179.43,113.87,157.6,157,135.57Z"/></g></svg>