<svg id="Layer_1" data-name="Layer 1" xmlns="http://www.w3.org/2000/svg" xmlns:xlink="http://www.w3.org/1999/xlink" viewBox="0 0 100 100"><defs><style>.cls-1,.cls-11{fill:none;}.cls-2{clip-path:url(#clip-path);}.cls-3{fill:#09a582;}.cls-4{fill:#b3b3b3;}.cls-5{fill:#b76a60;}.cls-6{fill:#d0d2d3;}.cls-7{fill:#f48d80;}.cls-8{clip-path:url(#clip-path-2);}.cls-9{fill:#e0e0e0;}.cls-10{fill:#fff;}.cls-11{stroke:#b3b3b3;stroke-linecap:round;stroke-miterlimit:10;stroke-width:0.9px;}</style><clipPath id="clip-path"><path class="cls-1" d="M-96-26c0,3.23,8.53,6,25.9,6S-44-22.74-44-26l9.69-81.17h-71.4Z"/></clipPath><clipPath id="clip-path-2"><ellipse class="cls-1" cx="21.08" cy="40.04" rx="20.33" ry="15.93"/></clipPath></defs><title>rabbit</title><g class="cls-2"><rect class="cls-3" x="-100.11" y="-40.39" width="119.66" height="10.5" transform="translate(13.05 -38.78) rotate(-45)"/></g><ellipse class="cls-4" cx="37.65" cy="17.27" rx="22.77" ry="6.61" transform="translate(-3.65 20.49) rotate(-29.09)"/><ellipse class="cls-5" cx="37.64" cy="17.18" rx="17.23" ry="5" transform="translate(-3.6 20.47) rotate(-29.09)"/><ellipse class="cls-6" cx="55.72" cy="65.28" rx="29.31" ry="38.3" transform="translate(-18.87 107.74) rotate(-79.17)"/><ellipse class="cls-6" cx="21.08" cy="40.04" rx="20.33" ry="15.93"/><ellipse class="cls-6" cx="45.68" cy="24.36" rx="22.77" ry="6.61" transform="translate(-4.13 10.26) rotate(-12.27)"/><ellipse class="cls-7" cx="45.7" cy="24.27" rx="17.23" ry="5" transform="translate(-4.11 10.27) rotate(-12.27)"/><circle cx="20.4" cy="33.79" r="1.86"/><g class="cls-8"><ellipse class="cls-9" cx="6.8" cy="45.05" rx="14.29" ry="12.15"/></g><path class="cls-9" d="M68.68,94.88H28.41a2.15,2.15,0,0,1-2-2.25v-.36c0-4.29,3.4-7.6,7.23-7L69,90.4a2.18,2.18,0,0,1,1.76,2.23h0A2.15,2.15,0,0,1,68.68,94.88Z"/><ellipse class="cls-9" cx="69.02" cy="74.22" rx="24.79" ry="20.66"/><ellipse class="cls-10" cx="94.68" cy="68.92" rx="5.32" ry="7"/><ellipse class="cls-7" cx="1.34" cy="40.04" rx="1.34" ry="1.93"/><line class="cls-11" x1="6.69" y1="40.43" x2="29.87" y2="39.36"/><line class="cls-11" x1="6.69" y1="42.04" x2="29.75" y2="44.1"/><line class="cls-11" x1="6.69" y1="43.68" x2="29" y2="48.49"/><path class="cls-9" d="M30.13,59.47c2.29,6.17,1.52,16-2.23,24.31-4.26,9.38-14.89,15.4-16,8.39-.34-2.2,1.49-5.53,3.7-9.39C18.3,78.07,21.43,72.1,22.1,66c.87-8,4.72-15.46,8-6.51Z"/></svg>