<svg id="Layer_1" data-name="Layer 1" xmlns="http://www.w3.org/2000/svg" viewBox="0 0 100 100"><defs><style>.cls-1,.cls-8{fill:none;stroke-miterlimit:10;}.cls-1{stroke:#9bc5d9;stroke-width:3.4px;}.cls-2{fill:#9bc5d9;}.cls-3{fill:#a7d4ea;}.cls-4{fill:#6ab8d9;}.cls-5{fill:#b2e2f9;}.cls-6{fill:#fff;}.cls-7{fill:#9dc8dc;}.cls-8{stroke:#5596b2;stroke-linecap:round;stroke-width:0.78px;}.cls-9{fill:#589ab6;}</style></defs><title>ice sculpture</title><circle class="cls-1" cx="49.83" cy="24.85" r="18.62"/><rect class="cls-2" x="31.28" y="34.86" width="21.97" height="31.91" rx="8.21" ry="8.21" transform="matrix(0.94, 0.35, -0.35, 0.94, 20.67, -11.65)"/><rect class="cls-3" x="31.36" y="34.44" width="19.59" height="31.91" rx="7.98" ry="7.98" transform="translate(20.45 -11.29) rotate(20.68)"/><path class="cls-4" d="M47.66,67.54c.12-.08.09-.08.08-.09a.06.06,0,0,0-.06,0h-.16l-.36,0a1.59,1.59,0,0,1-.57,0c-.15,0-.16-.17-.08-.48s.1-.33.32-.77c.08-.2.12-.35.2-.6a5.82,5.82,0,0,0,.26-.93c0-.26.16-.77.18-1.21a11.59,11.59,0,0,0,0-1.43,6.38,6.38,0,0,0-.32-1.55,6.62,6.62,0,0,0-.53-1.32,6,6,0,0,0-.37-.6l-.29-.42a4.8,4.8,0,0,0-.66-.69L45,57.16l-.2-.14a2.22,2.22,0,0,0-.43-.23c-.31-.13-.59-.06-.46.1s0,.16.12.26l.34.31A20.63,20.63,0,0,0,49.12,60c1.93.74,4,1.44,6.08,2.06,8.45,2.52,9.51-6.45,18.5-4.76-8.9,2.25-9.84,15.19-19.28,16.58-2.36.35-4.78.61-7.3.79a38,38,0,0,1-8.37-.31l-1.26-.24c-.41-.08-1-.27-1.42-.41a14.54,14.54,0,0,1-3.36-1.57c-.36-.24-.72-.5-1.06-.77l-.52-.42-.25-.22-.31-.31A15.26,15.26,0,0,1,29.41,69c-.18-.25-.35-.46-.53-.76a10.18,10.18,0,0,1-.53-1,14.27,14.27,0,0,1-.84-2.11,14.56,14.56,0,0,1-.41-2.39,13.31,13.31,0,0,1,.39-4.28A17.2,17.2,0,0,1,28,56.76c.2-.5.39-.89.61-1.33a18.84,18.84,0,0,1,1.27-2.15,25.44,25.44,0,0,1,2.31-2.84c.74-.79,1.41-1.42,2.11-2.06l1-.89.56-.44.31-.23a4.6,4.6,0,0,1,.45-.29Z"/><path class="cls-4" d="M51.09,57.28A11.49,11.49,0,0,1,39.6,68.77c-6.34,0-13.88-1.34-12.36-7.5,4.27-17.22,6-15.48,12.36-15.48A11.48,11.48,0,0,1,51.09,57.28Z"/><path class="cls-5" d="M33.12,48.58l3,1.41a19.18,19.18,0,0,0-3,4.71A19.07,19.07,0,0,1,33.12,48.58Z"/><path class="cls-6" d="M37.1,50.46l3,1.4a14.57,14.57,0,0,0-2.8,3.53A14.51,14.51,0,0,1,37.1,50.46Z"/><path class="cls-5" d="M41.07,52.33l3,1.41a10.18,10.18,0,0,0-2.57,2.33A10.26,10.26,0,0,1,41.07,52.33Z"/><path class="cls-7" d="M33.7,65.78l2.73-1.14a15.63,15.63,0,0,0,1.45,4.41A19.92,19.92,0,0,1,33.7,65.78Z"/><path class="cls-7" d="M37.34,64.26l2.72-1.14a11.75,11.75,0,0,0,.83,3.65A16,16,0,0,1,37.34,64.26Z"/><path class="cls-5" d="M41,62.75l2.73-1.14a8.13,8.13,0,0,0,.19,2.88A12.51,12.51,0,0,1,41,62.75Z"/><path class="cls-5" d="M33.49,58l3.13,0a13.57,13.57,0,0,0-.69,4.32A16.16,16.16,0,0,1,33.49,58Z"/><path class="cls-7" d="M37.66,58l3.13,0a10.29,10.29,0,0,0-1,3.32A12.51,12.51,0,0,1,37.66,58Z"/><path class="cls-7" d="M41.89,71.72c.55-.72,1.11-1.43,1.66-2.14a14,14,0,0,0,3,2.86A18.55,18.55,0,0,1,41.89,71.72Z"/><path class="cls-7" d="M44.1,68.86l1.65-2.14a10.43,10.43,0,0,0,2.13,2.52A14.28,14.28,0,0,1,44.1,68.86Z"/><path class="cls-7" d="M49.5,72.65,50,70.18a11,11,0,0,0,3.58,1.2A15.24,15.24,0,0,1,49.5,72.65Z"/><path class="cls-7" d="M58,71.18l-.89-2.1a11.7,11.7,0,0,0,4.07-1.49A18.18,18.18,0,0,1,58,71.18Z"/><path class="cls-4" d="M82.33,50.63h0a0,0,0,0,1,0,0v0a8.56,8.56,0,0,1-8.56,8.56h0a0,0,0,0,1,0,0v0A8.56,8.56,0,0,1,82.33,50.63Z" transform="translate(24.43 -24.03) rotate(20.68)"/><path class="cls-7" d="M76.33,47.08h0a0,0,0,0,1,0,0v0a8.56,8.56,0,0,1-8.56,8.56h0a0,0,0,0,1,0,0v0a8.56,8.56,0,0,1,8.56-8.56Z" transform="translate(-13.74 73.02) rotate(-49.65)"/><rect class="cls-5" x="36.55" y="10.57" width="21.4" height="28.55" rx="10.7" ry="10.7" transform="translate(-4.21 10.65) rotate(-12.32)"/><path class="cls-4" d="M48.93,31.34h0A1.53,1.53,0,0,0,50,29.06l-2.52-4L47,29.75A1.54,1.54,0,0,0,48.93,31.34Z"/><path class="cls-8" d="M39.2,27.92h0a3.74,3.74,0,0,0,5.28-.43h0"/><path class="cls-8" d="M50.35,25.38h0A3.73,3.73,0,0,0,55,22.85h0"/><path class="cls-9" d="M49,32.71h.89a1.84,1.84,0,0,1,1.84,1.84v0a0,0,0,0,1,0,0H47.15a0,0,0,0,1,0,0v0A1.84,1.84,0,0,1,49,32.71Z" transform="translate(-6.04 11.32) rotate(-12.32)"/><path class="cls-4" d="M49.42,34.67h.89a1.84,1.84,0,0,1,1.84,1.84v0a0,0,0,0,1,0,0H47.58a0,0,0,0,1,0,0v0A1.84,1.84,0,0,1,49.42,34.67Z" transform="translate(106.16 59.72) rotate(167.68)"/><path class="cls-4" d="M63.69,9.51a7.59,7.59,0,0,0-1.17.1,8.91,8.91,0,0,0-8.47-6.15,8.35,8.35,0,0,0-1.74.18A8.9,8.9,0,0,0,36.79,5.81a8.91,8.91,0,0,0-7.46,8.79,8.8,8.8,0,0,0,.22,1.94,7.21,7.21,0,1,0,9,7h0a8.91,8.91,0,0,0,8-5.8l.29,0a8.9,8.9,0,0,0,7.17,3.64,9.16,9.16,0,0,0,2.53-.37A7.93,7.93,0,1,0,63.69,9.51Z"/><path class="cls-7" d="M27,25.17a7.2,7.2,0,0,1,5.4-7A8.89,8.89,0,0,1,39.68,7.46,8.86,8.86,0,0,1,50.93,2.15,8.89,8.89,0,0,0,36.79,5.81a8.91,8.91,0,0,0-7.46,8.79,8.8,8.8,0,0,0,.22,1.94,7.21,7.21,0,0,0-.22,13.89A7.21,7.21,0,0,1,27,25.17Z"/><rect class="cls-4" x="35.05" y="73.91" width="26.09" height="26.09"/><rect class="cls-7" x="29.18" y="73.91" width="5.87" height="26.09"/><circle class="cls-4" cx="39.07" cy="40.97" r="3.36"/><circle class="cls-4" cx="48.95" cy="44.33" r="3.36"/><polygon class="cls-6" points="32.9 10.84 33.46 6.97 34.03 10.84 37.9 11.4 34.03 11.97 33.46 15.84 32.9 11.97 29.03 11.4 32.9 10.84"/><polygon class="cls-6" points="71.06 47.13 71.62 43.26 72.18 47.13 76.06 47.7 72.18 48.26 71.62 52.14 71.06 48.26 67.18 47.7 71.06 47.13"/><polygon class="cls-6" points="28.62 59.62 29.18 55.74 29.75 59.62 33.62 60.18 29.75 60.74 29.18 64.62 28.62 60.74 24.75 60.18 28.62 59.62"/><polygon class="cls-7" points="19.3 19.88 19.71 17.02 20.13 19.88 22.98 20.29 20.13 20.7 19.71 23.57 19.3 20.7 16.44 20.29 19.3 19.88"/><polygon class="cls-3" points="57.46 78.82 57.87 75.96 58.29 78.82 61.15 79.23 58.29 79.65 57.87 82.5 57.46 79.65 54.6 79.23 57.46 78.82"/><polygon class="cls-7" points="67.26 5.23 67.67 2.37 68.09 5.23 70.95 5.65 68.09 6.06 67.67 8.92 67.26 6.06 64.4 5.65 67.26 5.23"/></svg>