<svg id="Layer_1" data-name="Layer 1" xmlns="http://www.w3.org/2000/svg" viewBox="0 0 100 100"><defs><style>.cls-1{fill:#ffc63f;}.cls-2{fill:#895e59;}.cls-3{fill:#fff;}.cls-4{fill:#ffc640;}.cls-5{fill:#231f20;}.cls-6{fill:#f37d3b;}</style></defs><title>chicken</title><polyline class="cls-1" points="39.17 85.97 43.96 85.97 41.57 100"/><polyline class="cls-1" points="53.53 85.97 58.32 85.97 55.92 100"/><path class="cls-2" d="M80.61,65.73c0,17.32-14,23.28-31.36,23.28s-31.37-6-31.37-23.28a31.37,31.37,0,1,1,62.73,0Z"/><ellipse class="cls-2" cx="77.3" cy="65.08" rx="9.19" ry="19.08" transform="translate(-11.65 17.14) rotate(-11.77)"/><ellipse class="cls-2" cx="22.7" cy="65.08" rx="19.08" ry="9.19" transform="matrix(0.2, -0.98, 0.98, 0.2, -45.64, 74.02)"/><path class="cls-3" d="M71.12,56.23a21.87,21.87,0,0,1-43.74,0c0-12.08,9.79-51.54,21.87-51.54S71.12,44.15,71.12,56.23Z"/><path class="cls-4" d="M55.07,21c0,1.93-2.61,11.37-5.82,11.37S43.43,22.9,43.43,21s2.6-3.48,5.82-3.48S55.07,19.05,55.07,21Z"/><circle class="cls-5" cx="40.46" cy="17.39" r="1.41"/><circle class="cls-5" cx="57.56" cy="17.39" r="1.41"/><rect class="cls-6" x="47.58" width="3.33" height="9.12" rx="0.79" ry="0.79"/><circle class="cls-3" cx="29.67" cy="46.91" r="6.09"/><circle class="cls-3" cx="27.38" cy="54.45" r="6.09"/><circle class="cls-3" cx="28.08" cy="63.74" r="6.09"/><circle class="cls-3" cx="33.47" cy="72.77" r="6.09"/><circle class="cls-3" cx="42.93" cy="78.86" r="6.09"/><circle class="cls-3" cx="68.09" cy="46.91" r="6.09"/><circle class="cls-3" cx="70.38" cy="54.45" r="6.09"/><circle class="cls-3" cx="69.68" cy="63.74" r="6.09"/><circle class="cls-3" cx="64.29" cy="72.77" r="6.09"/><circle class="cls-3" cx="54.84" cy="78.86" r="6.09"/></svg>