<svg id="Layer_1" data-name="Layer 1" xmlns="http://www.w3.org/2000/svg" viewBox="0 0 100 100"><defs><style>.cls-1{fill:#6ab8d9;}.cls-2{fill:#9dc8dc;}</style></defs><title>apron</title><path class="cls-1" d="M66.59,19.56V17.69H33.41v1.87a31.65,31.65,0,0,1-13,25.6h0V100H79.63V45.16h0A31.65,31.65,0,0,1,66.59,19.56Z"/><path class="cls-1" d="M93.43,55.2H79.63a1.43,1.43,0,0,1,0-2.85h13.8a1.43,1.43,0,1,1,0,2.85Z"/><path class="cls-1" d="M20.37,55.2H6.57a1.43,1.43,0,1,1,0-2.85h13.8a1.43,1.43,0,0,1,0,2.85Z"/><path class="cls-2" d="M35.86,61.6H65.64a0,0,0,0,1,0,0V74.47a13,13,0,0,1-13,13H48.82a13,13,0,0,1-13-13V61.6A0,0,0,0,1,35.86,61.6Z"/><path class="cls-1" d="M52.7,3.14A10.79,10.79,0,0,1,63.48,13.93v9.15H36.59V13.93A10.8,10.8,0,0,1,47.38,3.14H52.7M52.7,0H47.38A13.93,13.93,0,0,0,33.45,13.93V26.22H66.63V13.93A13.93,13.93,0,0,0,52.7,0Z"/></svg>