<svg id="Layer_1" data-name="Layer 1" xmlns="http://www.w3.org/2000/svg" xmlns:xlink="http://www.w3.org/1999/xlink" viewBox="0 0 100 100"><defs><style>.cls-1{fill:none;}.cls-2{fill:#7d7d7d;}.cls-3{fill:#589ab6;}.cls-4{fill:#9dc8dc;}.cls-5{fill:#f05c38;}.cls-6{fill:#d45131;}.cls-7{fill:#c7552e;}.cls-8{fill:#6ab8d9;}.cls-9{clip-path:url(#clip-path);}.cls-10{clip-path:url(#clip-path-2);}.cls-11{clip-path:url(#clip-path-3);}</style><clipPath id="clip-path"><rect class="cls-1" x="64.68" y="44.68" width="22.06" height="27.93"/></clipPath><clipPath id="clip-path-2"><rect class="cls-1" x="38.91" y="44.68" width="22.06" height="27.93"/></clipPath><clipPath id="clip-path-3"><rect class="cls-1" x="13.26" y="44.68" width="22.06" height="27.93"/></clipPath></defs><title>cable car</title><polygon class="cls-2" points="99.41 0.5 0.59 26.01 0.59 29.24 99.41 3.73 99.41 0.5"/><rect class="cls-3" x="48.43" y="14.79" width="3.13" height="25.15"/><circle class="cls-4" cx="50" cy="14.79" r="4.37"/><rect class="cls-5" x="8.75" y="37.5" width="82.49" height="62" rx="8.68" ry="8.68"/><rect class="cls-6" x="36.95" y="39.94" width="25.98" height="56.56" rx="1.91" ry="1.91"/><path class="cls-7" d="M39.69,32.41H60.31a3.52,3.52,0,0,1,3.52,3.52V37.5a0,0,0,0,1,0,0H36.16a0,0,0,0,1,0,0V35.93A3.52,3.52,0,0,1,39.69,32.41Z"/><rect class="cls-8" x="13.26" y="44.68" width="22.06" height="27.93"/><rect class="cls-8" x="38.91" y="44.68" width="22.06" height="27.93"/><rect class="cls-8" x="64.68" y="44.68" width="22.06" height="27.93"/><g class="cls-9"><rect class="cls-4" x="76.43" y="44.66" width="7.14" height="38.57" transform="translate(68.65 -37.84) rotate(45)"/><rect class="cls-4" x="83.44" y="49.46" width="2.71" height="38.57" transform="translate(73.44 -39.82) rotate(45)"/></g><g class="cls-10"><rect class="cls-4" x="39.81" y="32.78" width="7.14" height="38.57" transform="translate(49.52 -15.43) rotate(45)"/><rect class="cls-4" x="46.82" y="37.58" width="2.71" height="38.57" transform="translate(54.32 -17.41) rotate(45)"/></g><g class="cls-11"><rect class="cls-4" x="24.87" y="48.32" width="7.14" height="38.57" transform="translate(56.13 -0.31) rotate(45)"/><rect class="cls-4" x="22.93" y="39.99" width="2.71" height="38.57" transform="translate(49.03 0.19) rotate(45)"/></g><rect class="cls-5" x="54.53" y="74.96" width="6.5" height="1.78"/></svg>