<svg id="Layer_1" data-name="Layer 1" xmlns="http://www.w3.org/2000/svg" viewBox="0 0 100 100"><defs><style>.cls-1{fill:#9f8163;}.cls-2{fill:#9dc8dc;}.cls-3{fill:#6ab8d9;}.cls-4{fill:#441000;}.cls-5{fill:#722716;}.cls-6{fill:#bf9b77;}</style></defs><title>vinegar</title><polygon class="cls-1" points="58.12 13.64 46.47 13.64 45.03 5.3 59.55 5.3 58.12 13.64"/><path class="cls-2" d="M31,83.7,21.9,34.91A15.4,15.4,0,0,1,37.22,17.79h7.52V22H37.22A11.26,11.26,0,0,0,26,34.37l9,48.57Z"/><rect class="cls-2" x="35.03" y="93.09" width="34.53" height="6.91" rx="3.45" ry="3.45"/><path class="cls-2" d="M60.09,59.36V8.27H44.5V59.36C34,61.92,26.39,69.5,26.39,78.47c0,11.06,11.6,20,25.9,20s25.91-9,25.91-20C78.2,69.5,70.58,61.92,60.09,59.36Z"/><polygon class="cls-2" points="51.58 22.15 51.58 8.27 65.45 8.27 51.58 22.15"/><rect class="cls-2" x="41.93" y="8.27" width="17.11" height="5.36"/><path class="cls-3" d="M58.11,61.07V13.64H46.47V61.07c-9.23,2.25-17,8.92-17,16.81,0,9.73,10.2,17.62,22.79,17.62s22.8-7.89,22.8-17.62C75.09,70,67.35,63.32,58.11,61.07Z"/><path class="cls-4" d="M68.35,65.91c-7.55,3-16.4,8.76-27.78,7a41.64,41.64,0,0,1-8.77-2.27,13.25,13.25,0,0,0-2.3,7.27c0,9.73,10.2,17.62,22.79,17.62s22.8-7.89,22.8-17.62C75.09,73.26,72.41,69.06,68.35,65.91Z"/><ellipse class="cls-5" cx="68.55" cy="74.01" rx="2.9" ry="5.02" transform="translate(-26.23 39.45) rotate(-27.16)"/><rect class="cls-6" x="45.03" width="14.52" height="5.3"/></svg>