<svg id="Layer_1" data-name="Layer 1" xmlns="http://www.w3.org/2000/svg" xmlns:xlink="http://www.w3.org/1999/xlink" viewBox="0 0 100 100"><defs><style>.cls-1{fill:none;}.cls-2{fill:#583936;}.cls-3{fill:#452a27;}.cls-4{fill:#faaf40;}.cls-5{fill:#b2e2f9;}.cls-6{clip-path:url(#clip-path);}.cls-7{fill:#d1eefb;}.cls-8{fill:#fff;}.cls-9{fill:#e2b68a;}.cls-10{fill:#fcca98;}.cls-11{fill:#bf9b77;}.cls-12{fill:#a88868;}.cls-13{fill:#5596b2;}.cls-14{fill:#3e545f;}</style><clipPath id="clip-path"><circle class="cls-1" cx="14.93" cy="71.11" r="10.61"/></clipPath></defs><title>paleontologist</title><path class="cls-2" d="M17.28,96.79l-.39-12.52a1.2,1.2,0,0,0-1.19-1.16H14.16A1.2,1.2,0,0,0,13,84.27l-.39,12.52A1.19,1.19,0,0,0,13.77,98h2.32A1.19,1.19,0,0,0,17.28,96.79Zm-3.37-.92a1,1,0,1,1,1,1A1,1,0,0,1,13.91,95.87Z"/><path class="cls-3" d="M17,87.6l-.1-3.33a1.2,1.2,0,0,0-1.19-1.16H14.16A1.2,1.2,0,0,0,13,84.27l-.1,3.33a16.39,16.39,0,0,0,4.12,0Z"/><circle class="cls-4" cx="14.93" cy="71.11" r="13.71"/><circle class="cls-5" cx="14.93" cy="71.11" r="10.61"/><g class="cls-6"><rect class="cls-7" x="13.93" y="56.48" width="4.57" height="29.23"/><rect class="cls-7" x="19.25" y="57.49" width="1.86" height="29.23"/></g><rect class="cls-8" x="8.45" y="69.91" width="13.46" height="3.17" rx="0.75" ry="0.75" transform="translate(26.01 -0.79) rotate(20.51)"/><circle class="cls-8" cx="9.33" cy="67.79" r="1.62"/><circle class="cls-8" cx="8.36" cy="70.38" r="1.62"/><circle class="cls-8" cx="21.52" cy="72.35" r="1.62"/><circle class="cls-8" cx="20.55" cy="74.94" r="1.62"/><rect class="cls-8" x="3.11" y="32.7" width="23.93" height="5.64" rx="1.33" ry="1.33" transform="translate(16.65 -3.03) rotate(25.33)"/><circle class="cls-8" cx="5.25" cy="28.09" r="2.88"/><circle class="cls-8" cx="3.15" cy="32.53" r="2.88"/><circle class="cls-8" cx="26.17" cy="37.99" r="2.88"/><circle class="cls-8" cx="24.06" cy="42.43" r="2.88"/><rect class="cls-8" x="3.94" y="47.25" width="13.46" height="3.17" rx="0.75" ry="0.75" transform="matrix(0.99, -0.12, 0.12, 0.99, -5.67, 1.59)"/><circle class="cls-8" cx="3.77" cy="48.23" r="1.62"/><circle class="cls-8" cx="4.1" cy="50.98" r="1.62"/><circle class="cls-8" cx="16.7" cy="46.7" r="1.62"/><circle class="cls-8" cx="17.03" cy="49.45" r="1.62"/><rect class="cls-8" x="67.83" y="78.49" width="23.93" height="5.64" rx="1.33" ry="1.33" transform="translate(-27.84 118.64) rotate(-64.67)"/><circle class="cls-8" cx="72.37" cy="91.13" r="2.88"/><circle class="cls-8" cx="76.81" cy="93.23" r="2.88"/><circle class="cls-8" cx="82.27" cy="70.22" r="2.88"/><circle class="cls-8" cx="86.71" cy="72.32" r="2.88"/><rect class="cls-8" x="86.39" y="84.12" width="13.46" height="3.17" rx="0.75" ry="0.75" transform="translate(18.95 188.26) rotate(-96.75)"/><circle class="cls-8" cx="92.51" cy="92.61" r="1.62"/><circle class="cls-8" cx="95.26" cy="92.28" r="1.62"/><circle class="cls-8" cx="90.98" cy="79.68" r="1.62"/><circle class="cls-8" cx="93.73" cy="79.36" r="1.62"/><rect class="cls-8" x="72.27" y="14.74" width="21.41" height="5.04" rx="1.19" ry="1.19" transform="translate(150.58 68.37) rotate(-154.67)"/><circle class="cls-8" cx="91.76" cy="23.91" r="2.58"/><circle class="cls-8" cx="93.64" cy="19.93" r="2.58"/><circle class="cls-8" cx="73.05" cy="15.05" r="2.58"/><circle class="cls-8" cx="74.93" cy="11.08" r="2.58"/><rect class="cls-8" x="80.88" y="3.93" width="12.05" height="2.84" rx="0.67" ry="0.67" transform="translate(173.84 0.44) rotate(173.25)"/><circle class="cls-8" cx="93.08" cy="5.89" r="1.45"/><circle class="cls-8" cx="92.79" cy="3.43" r="1.45"/><circle class="cls-8" cx="81.51" cy="7.26" r="1.45"/><circle class="cls-8" cx="81.22" cy="4.8" r="1.45"/><path class="cls-9" d="M49.64,78.58S59,76.31,57,74.46A5.52,5.52,0,0,0,54,74c-3.21.4-9.43,2.41-12.65,2.76-2.18.24-4.26.36-5.67,1.1C38,79.4,40.79,78,49.64,78.58Z"/><path class="cls-10" d="M55.57,80.62s0,0,0,0v0c-2.26-3.63-5-1.15-8-1.15s-5.79-2.47-8,1.18v0l0,0c-3.4,5.5-3,11.51-3,12.69l-1,.92c0,1-.06,2,2.42,2.67.46.12,1,.23,1.49.33.88.17,1.84.32,2.86.43l.62.06c1.47.14,3.06.22,4.71.22h0a38,38,0,0,0,10.57-1.29,11.94,11.94,0,0,0,1.47-.57l.4-.21c.81-.45,1.26-1,1.26-1.48h0C61.2,93.24,59,86.12,55.57,80.62Z"/><path class="cls-10" d="M60.47,82.65l-.17.16.17-.16-.4-.33.4.33L61.2,82v-.74c0-4-3.28-7.7-7.21-7.2-3.21.4-9.43,2.41-12.65,2.76-3.94.43-7.53.48-7.53,4.44L37.07,90c0-.85,0,7.35,3.94,7.35H54c4,0,7.21-4.45,7.21-2.85V83.24Z"/><path class="cls-11" d="M39,90.36c1.4-5.71,2.55-9.51,1.65-11.78l-2.23-1.46c-2.62.38-4.6,1.17-4.6,4.11a48,48,0,0,1,.67,9l.53-.13.28-.33-.28.33h0l-.57.68c0,.28,0,.56-.06.83l1.37.52h0l.06,0-.06,0H34.32a11.62,11.62,0,0,1-.51,2.3c-.35,1,2.44,2.39,5.16,2.8l1.67.26C40,96.64,38.21,93.54,39,90.36Z"/><path class="cls-11" d="M51.44,89.49a6.6,6.6,0,0,1-.23-1.21l.1.19a11.22,11.22,0,0,1-1.39-.88l.1,0c-.36-.1-.72-.22-1.07-.35l-.23-.09L48.8,87a6.3,6.3,0,0,1,.5-.87,8.1,8.1,0,0,1-.1,1l-.15-.26a10.68,10.68,0,0,1,1.11.18h0l0,0a12.43,12.43,0,0,1,1.32,1l.11.1v.1A6.6,6.6,0,0,1,51.44,89.49Z"/><path class="cls-11" d="M59.93,86.61c-.26.55-.57,1.06-.88,1.58l0-.07c-.18.82-.38,1.63-.61,2.43l0,.07-.05,0c-.7.75-1.42,1.49-2.18,2.18v-.27c.36.38.71.78,1,1.19A14.91,14.91,0,0,1,56,92.86l-.14-.11.12-.16c.64-.81,1.32-1.57,2-2.32l-.07.11c.24-.79.5-1.59.79-2.37V88h0C59.11,87.49,59.5,87,59.93,86.61Z"/><path class="cls-11" d="M58.39,89.75c.68.55,1.32,1.15,1.94,1.76l.17.17-.2.18q-1.69,1.53-3.52,2.89l.06-.08a25,25,0,0,1-1.42,2.25,26.43,26.43,0,0,1,1-2.47l0,0,0,0q1.7-1.53,3.53-2.89l0,.35C59.42,91.16,58.88,90.48,58.39,89.75Z"/><path class="cls-12" d="M36.79,80c-.2,1-.46,2.07-.76,3.09v-.2q.58,1.06,1.14,2.16l0,.06v1.07l-.48-.22c.54-.45,1.08-.89,1.63-1.31l.3-.24,0,.36c.06.46.12.92.16,1.39v.06l0,0c-.25.19-.5.38-.77.56.2-.25.42-.48.63-.71l0,.1c-.13-.45-.25-.9-.37-1.35l.35.12c-.5.48-1,1-1.53,1.42l-.47.43V85.16l0,.14c-.37-.73-.72-1.46-1.06-2.2l0-.1,0-.09C35.93,81.92,36.33,80.94,36.79,80Z"/><path class="cls-11" d="M49.85,91c-1.92,1.11-2.21,1.93-2,2.75s.85,1.34,2.76.23,3.3-2.69,3.09-3.51S51.76,89.93,49.85,91Z"/><path class="cls-11" d="M46.66,89.29c-.08,2.2-.65,3-1.47,3.22s-1.58-.31-1.5-2.51.82-4.14,1.64-4.34S46.75,87.09,46.66,89.29Z"/><path class="cls-11" d="M50.59,89.41c-1.14,2.14-1.93,2.17-2.67,1.78s-1.16-1.06,0-3.2,2.66-3.56,3.4-3.17S51.72,87.27,50.59,89.41Z"/><path class="cls-11" d="M51.06,83.72c-.12.22.07.55.43.74s.75.17.86-.06,1.39-4.17,1.39-4.17S51.18,83.49,51.06,83.72Z"/><path class="cls-11" d="M53.54,89.22c-.17.17-.08.52.21.78s.64.33.81.16S57,86.83,57,86.83,53.71,89.06,53.54,89.22Z"/><path class="cls-11" d="M46.69,85.23c-.07.23-.41.31-.77.19s-.59-.42-.53-.64,1.81-3.67,1.81-3.67S46.76,85,46.69,85.23Z"/><path class="cls-11" d="M49.12,92.85a9.88,9.88,0,0,0-3.81-2,17.55,17.55,0,0,0,3-1.13A16.21,16.21,0,0,0,49.12,92.85Z"/><path class="cls-11" d="M44.21,92.49c2.08-.35,2.82,0,3.86,2.1.51,1.09,1.49-.24,1.65-.62a2.64,2.64,0,0,0,0-1.56A20.36,20.36,0,0,1,49,89.24c0-.44-.26-.55-.66-.34a21.71,21.71,0,0,1-3,1.16A2.7,2.7,0,0,0,44,91C43.82,91.3,43.74,92.39,44.21,92.49Z"/><path class="cls-11" d="M51,93.72c1.3-.77-6.92-6-7.28-4.44a31,31,0,0,0-.05,3.7,2.8,2.8,0,0,0,2.87,2.72C48.14,95.7,49.45,94.66,51,93.72Z"/><path class="cls-8" d="M66,17.82A13.81,13.81,0,0,0,53.41,5.29a13.19,13.19,0,0,0-11.13,5.23,10.48,10.48,0,0,1-8.38,4H31.59A8.58,8.58,0,0,0,23,23.09s13.1-.39,17.44,0c3.83.34,8.63,1.66,8.87,2.11s-5.86.76-7.27.9c-2.73.26-11,0-11,0v1.32a4.26,4.26,0,0,0,4.26,4.26h18v0A13.19,13.19,0,0,0,66,17.82Z"/><path class="cls-8" d="M25.68,27.87l-1.08-2a6.65,6.65,0,0,1-.77-2.72l0-.38h3.74a6.65,6.65,0,0,0-1.82,4.17Z"/><path class="cls-8" d="M28.32,25.45l-.56-1.05A3.46,3.46,0,0,1,27.35,23v-.2h2A3.5,3.5,0,0,0,28.35,25Z"/><path class="cls-8" d="M29.92,25.45l-.57-1.05A3.61,3.61,0,0,1,29,23v-.2h2A3.45,3.45,0,0,0,30,25Z"/><path class="cls-8" d="M31.35,25.45l-.56-1.05A3.62,3.62,0,0,1,30.38,23v-.2h2A3.5,3.5,0,0,0,31.38,25Z"/><path class="cls-8" d="M33.73,25.45l-.57-1.05a3.61,3.61,0,0,1-.4-1.43v-.2h2a3.45,3.45,0,0,0-1,2.19Z"/><path class="cls-8" d="M32.54,23.86,32,24.91a3.42,3.42,0,0,0-.41,1.43v.2h2a3.52,3.52,0,0,1-1-2.19Z"/><path class="cls-8" d="M35,23.74l-.56,1.06A3.57,3.57,0,0,0,34,26.23v.19h2A3.5,3.5,0,0,1,35,24.24Z"/><path class="cls-8" d="M36.62,23.86l-.56,1.05a3.42,3.42,0,0,0-.41,1.43v.2h2a3.52,3.52,0,0,1-1-2.19Z"/><path class="cls-8" d="M38.22,23.86l-.57,1.05a3.56,3.56,0,0,0-.4,1.43v.2h2a3.47,3.47,0,0,1-1-2.19Z"/><path d="M55.24,13a3.92,3.92,0,0,1-3.85,4c-2.13,0-3.79-1.07-3.79-3.28S50.43,9.13,51.39,9C53.5,8.72,55.24,10.79,55.24,13Z"/><path class="cls-8" d="M72.11,26.78a3.92,3.92,0,0,1-3.85,4c-2.13,0-3.79-1.07-3.79-3.28s2.83-4.57,3.79-4.7C70.37,22.51,72.11,24.58,72.11,26.78Z"/><path class="cls-8" d="M75.63,32.54a2.83,2.83,0,0,1-2.78,2.88c-1.53,0-2.73-.78-2.73-2.37s2-3.29,2.73-3.38C74.37,29.46,75.63,31,75.63,32.54Z"/><path class="cls-8" d="M77.62,39.43a2.56,2.56,0,0,1-3.55.71c-1.15-.79-1.64-2-.82-3.17s3.22-1.4,3.78-1.12A2.46,2.46,0,0,1,77.62,39.43Z"/><path class="cls-8" d="M77.07,46.11a2.4,2.4,0,0,1-3.37-.44,2,2,0,0,1,.23-3.06,3.82,3.82,0,0,1,3.7.15A2.3,2.3,0,0,1,77.07,46.11Z"/><path class="cls-8" d="M75.07,51.07a2.4,2.4,0,0,1-3.37-.44c-.78-1.05-.86-2.26.23-3.06a3.78,3.78,0,0,1,3.69.15A2.3,2.3,0,0,1,75.07,51.07Z"/><path class="cls-8" d="M71.05,54.9a2.41,2.41,0,0,1-3.38-.44c-.77-1.05-.85-2.26.23-3.06a3.8,3.8,0,0,1,3.7.15A2.31,2.31,0,0,1,71.05,54.9Z"/><path class="cls-8" d="M65.92,58.27a2.42,2.42,0,0,1-3.38-.43,2,2,0,0,1,.23-3.07,3.82,3.82,0,0,1,3.7.15A2.31,2.31,0,0,1,65.92,58.27Z"/><path class="cls-8" d="M60.58,62.21a2.39,2.39,0,0,1-3.37-.44,2,2,0,0,1,.23-3.06,3.8,3.8,0,0,1,3.69.15A2.31,2.31,0,0,1,60.58,62.21Z"/><path class="cls-8" d="M55.38,66.13A2.39,2.39,0,0,1,52,65.69a2,2,0,0,1,.23-3.06,3.83,3.83,0,0,1,3.7.15A2.31,2.31,0,0,1,55.38,66.13Z"/><path d="M58.17,10.37a1.65,1.65,0,0,1,.8,2.2A1.39,1.39,0,0,1,57,13.4,2.63,2.63,0,0,1,56,11.1,1.59,1.59,0,0,1,58.17,10.37Z"/><path d="M29.23,16.73c.3.41.24.92-.55,1.51s-.87-.21-2.32.62c-.52.3.1-1.21.89-1.8S28.93,16.33,29.23,16.73Z"/><rect class="cls-8" x="71.98" y="29.85" width="6.36" height="3.53" rx="0.9" ry="0.9" transform="translate(-6.16 37.54) rotate(-26.98)"/><rect class="cls-8" x="74.61" y="35.17" width="10.04" height="3.53" rx="1.04" ry="1.04" transform="translate(-7.19 24.02) rotate(-16.42)"/><rect class="cls-8" x="60.79" y="59.54" width="13.96" height="3.53" rx="1.21" ry="1.21" transform="translate(86.98 -28.04) rotate(60)"/><rect class="cls-8" x="56.57" y="62.61" width="9.83" height="3.53" rx="1.04" ry="1.04" transform="translate(86.49 -21.06) rotate(60)"/><rect class="cls-8" x="75.03" y="42.64" width="13.59" height="3.53" rx="1.19" ry="1.19"/><rect class="cls-8" x="66.5" y="55.56" width="14.74" height="3.53" rx="1.25" ry="1.25" transform="translate(58.01 -34.82) rotate(42.42)"/><rect class="cls-8" x="72.68" y="50.19" width="15.75" height="3.53" rx="1.33" ry="1.33" transform="translate(23.31 -24.93) rotate(20.51)"/><path class="cls-13" d="M63.84,42.94H63.1a6.61,6.61,0,0,0-6.33-4.7,6.51,6.51,0,0,0-5.44,2.93H47A6.57,6.57,0,0,0,35.2,42.94h-.75a1.29,1.29,0,0,0-1.29,1.29,1.33,1.33,0,0,0,1.29,1.29h.48a6.61,6.61,0,0,0,13.2-.68A6.56,6.56,0,0,0,48,43.69h2.25a5.84,5.84,0,0,0-.14,1.15,6.61,6.61,0,0,0,13.2.68h.48a1.29,1.29,0,0,0,.06-2.58ZM41.53,49.81a4.9,4.9,0,1,1,4.83-4.9A4.87,4.87,0,0,1,41.53,49.81Zm15.24,0a4.9,4.9,0,1,1,4.83-4.9A4.87,4.87,0,0,1,56.77,49.81Z"/><path class="cls-13" d="M1.6,4.92H17.82a0,0,0,0,1,0,0V7.58a0,0,0,0,1,0,0H1.6A1.33,1.33,0,0,1,.26,6.25v0A1.33,1.33,0,0,1,1.6,4.92Z"/><polygon class="cls-14" points="17.82 4.92 21.76 3.65 21.76 8.86 17.82 7.58 17.82 4.92"/><polygon class="cls-11" points="28.32 2.37 21.76 3.65 21.76 8.86 28.32 10.13 28.32 2.37"/><path class="cls-13" d="M35.22,63.22H47.65a0,0,0,0,1,0,0v2a0,0,0,0,1,0,0H35.22a1,1,0,0,1-1-1v0a1,1,0,0,1,1-1Z" transform="translate(24.44 138.61) rotate(-135)"/><polygon class="cls-14" points="35.45 60.21 32.63 58.77 35.45 55.95 36.89 58.77 35.45 60.21"/><path class="cls-11" d="M32.63,58.77,35.45,56s-1.18-6-5-2.15C27,57.31,32.63,58.77,32.63,58.77Z"/><circle class="cls-11" cx="95.35" cy="62.21" r="1.87"/><circle class="cls-11" cx="90.34" cy="49.45" r="1.16"/><circle class="cls-11" cx="96.22" cy="38.71" r="3.51"/><circle class="cls-11" cx="9.98" cy="16.5" r="2.29"/></svg>