<svg id="Layer_1" data-name="Layer 1" xmlns="http://www.w3.org/2000/svg" xmlns:xlink="http://www.w3.org/1999/xlink" viewBox="0 0 100 100"><defs><style>.cls-1{fill:none;}.cls-2{fill:#fcca98;}.cls-3{fill:#fcc991;}.cls-4{fill:#bf9b77;}.cls-5{fill:#91775a;}.cls-6{fill:#ffe5b1;}.cls-7{fill:#895e59;}.cls-8{fill:#744f4a;}.cls-9{fill:#583936;}.cls-10{fill:#452a27;}.cls-11{fill:#faaf40;}.cls-12{fill:#b2e2f9;}.cls-13{clip-path:url(#clip-path);}.cls-14{fill:#d1eefb;}.cls-15{fill:#fff;}.cls-16{fill:#d0d2d3;}</style><clipPath id="clip-path"><circle class="cls-1" cx="84.02" cy="48.37" r="9.7"/></clipPath></defs><title>archeologist</title><rect class="cls-2" x="66.6" y="76.15" width="28.76" height="6.77" rx="1.6" ry="1.6" transform="translate(-25.1 39.15) rotate(-23.64)"/><circle class="cls-2" cx="66.49" cy="82.58" r="3.47"/><circle class="cls-2" cx="68.86" cy="88" r="3.47"/><circle class="cls-2" cx="91.97" cy="71.43" r="3.47"/><circle class="cls-2" cx="94.34" cy="76.85" r="3.47"/><path class="cls-3" d="M93.7,21.83H55l.92-6.58C57,7.41,64.9,1.5,74.32,1.5h0c9.42,0,17.35,5.91,18.45,13.75Z"/><polygon class="cls-4" points="100 29.18 48.64 29.18 54.95 21.82 93.7 21.82 100 29.18"/><polygon class="cls-5" points="55.48 18.03 54.95 21.82 93.7 21.82 93.17 18.03 55.48 18.03"/><rect class="cls-6" x="68.78" y="86.93" width="28.76" height="6.77" rx="1.6" ry="1.6" transform="translate(1.7 -1.54) rotate(1.07)"/><circle class="cls-6" cx="68.73" cy="87.03" r="3.47"/><circle class="cls-6" cx="68.62" cy="92.94" r="3.47"/><circle class="cls-6" cx="96.53" cy="87.55" r="3.47"/><circle class="cls-6" cx="96.42" cy="93.46" r="3.47"/><path class="cls-7" d="M31.94,67.11l.17.17a3.6,3.6,0,0,0,2.56,1.1h0a3.58,3.58,0,0,0,2.55-1.06l.22-.22a8.24,8.24,0,0,1,9.76-1.47l.52-.93,4.63,1.74,2.76-5.54A14.67,14.67,0,0,0,52.29,58a5.1,5.1,0,0,1-1.91-4.05v-.86a2.29,2.29,0,0,1,2.25-2.41V48.89H33.78v1.75h0a2.43,2.43,0,0,1,2.43,2.43v.84A5.1,5.1,0,0,1,34.3,58a14.61,14.61,0,0,0-4.14,5,11.93,11.93,0,0,0-.88,2.28A8.23,8.23,0,0,1,31.94,67.11Z"/><path class="cls-7" d="M51.24,77.33a3.75,3.75,0,0,0,2.59-1.07l.26-.26a8.16,8.16,0,0,1,2.84-1.87c.15-.66.3-1.27.43-1.81s.21-1.09.28-1.63A8,8,0,0,1,51.83,73a8.25,8.25,0,0,1-4.06-1.12l-1.59,2.53a8.22,8.22,0,0,1,2.49,1.79A3.58,3.58,0,0,0,51.24,77.33Z"/><path class="cls-7" d="M56.86,63.94l-1.81,2.78a8.24,8.24,0,0,1,2.25-1.47A12.59,12.59,0,0,0,56.86,63.94Z"/><path class="cls-7" d="M40.77,70.38l-.21.22A8.19,8.19,0,0,1,34.69,73h0A8.15,8.15,0,0,1,29,70.71c.07.54.16,1.08.28,1.61.18.75.39,1.62.61,2.58a8,8,0,0,1,1.46,1.2l.17.17A3.6,3.6,0,0,0,34,77.37h0A3.55,3.55,0,0,0,36.6,76.3l.17-.16.48-1,.37.24a7.94,7.94,0,0,1,5.12-1.74l2.2-3.93a3.58,3.58,0,0,0-1.58-.39A3.48,3.48,0,0,0,40.77,70.38Z"/><path class="cls-7" d="M32.31,85.34,33.92,82a8.29,8.29,0,0,1-2.49-.43Z"/><path class="cls-7" d="M51.19,82a8.15,8.15,0,0,1-5.9-2.57,3.59,3.59,0,0,0-1.63-1l-3.14,5L38.06,81l-.71.35-4.5,6.27c1,4.08,1.76,7.42,1.92,8.11-.32,0-.51.08-.51.12s0,0,0,0h-.07v1.75c0,.48,4.06.87,9.07.87s9.08-.39,9.08-.87V95.88H52.3s0,0,0,0-.19-.08-.52-.12l3.51-14.8A7.71,7.71,0,0,1,51.19,82Z"/><path class="cls-8" d="M37.46,67.1l-.22.22a3.58,3.58,0,0,1-2.55,1.06h0a3.6,3.6,0,0,1-2.56-1.1l-.17-.17a8.23,8.23,0,0,0-2.66-1.85A13.88,13.88,0,0,0,29,70.71,8.15,8.15,0,0,0,34.64,73h0a8.19,8.19,0,0,0,5.87-2.44l.21-.22a3.48,3.48,0,0,1,2.59-1.06,3.58,3.58,0,0,1,1.58.39l2.28-4.08a8.24,8.24,0,0,0-9.76,1.47Z"/><path class="cls-8" d="M57.64,70.69a14,14,0,0,0-.34-5.44,8.24,8.24,0,0,0-2.25,1.47l-2.68,4.12H48.42l-.65,1A8.25,8.25,0,0,0,51.83,73,8,8,0,0,0,57.64,70.69Z"/><path class="cls-8" d="M40.66,77.36l2.08-3.72a7.94,7.94,0,0,0-5.12,1.74Z"/><path class="cls-8" d="M37.8,80.74l-.45.62.71-.35Z"/><path class="cls-8" d="M34.05,77.37h0a3.6,3.6,0,0,1-2.56-1.1l-.17-.17a8,8,0,0,0-1.46-1.2c.47,2,1,4.31,1.59,6.7a8.29,8.29,0,0,0,2.49.43l2.85-5.89-.17.16A3.55,3.55,0,0,1,34.05,77.37Z"/><path class="cls-8" d="M51.19,82a7.71,7.71,0,0,0,4.13-1c.58-2.48,1.15-4.87,1.61-6.81A8.16,8.16,0,0,0,54.09,76l-.26.26a3.75,3.75,0,0,1-2.59,1.07,3.58,3.58,0,0,1-2.57-1.12,8.22,8.22,0,0,0-2.49-1.79l-2.52,4a3.59,3.59,0,0,1,1.63,1A8.15,8.15,0,0,0,51.19,82Z"/><path class="cls-9" d="M68.94,66.48l7.84-8.34a1.08,1.08,0,0,0,0-1.52l-1-1a1.08,1.08,0,0,0-1.52,0l-8.34,7.84a1.09,1.09,0,0,0,0,1.56l1.5,1.5A1.09,1.09,0,0,0,68.94,66.48Zm-1.58-2.77a.92.92,0,0,1,1.32,0,.91.91,0,0,1,0,1.31.93.93,0,0,1-1.32-1.31Z"/><path class="cls-10" d="M74.7,60.35l2.08-2.21a1.08,1.08,0,0,0,0-1.52l-1-1a1.08,1.08,0,0,0-1.52,0L72,57.69a14,14,0,0,0,2.66,2.66Z"/><circle class="cls-11" cx="84.02" cy="48.37" r="12.53"/><circle class="cls-12" cx="84.02" cy="48.37" r="9.7"/><g class="cls-13"><rect class="cls-14" x="82.77" y="35.83" width="4.17" height="26.72" transform="translate(59.64 -45.6) rotate(45)"/><rect class="cls-14" x="85.93" y="39.04" width="1.7" height="26.72" transform="translate(62.47 -46.01) rotate(45)"/></g><circle class="cls-7" cx="84.02" cy="75.88" r="1.82"/><circle class="cls-7" cx="93.98" cy="86.27" r="1.46"/><circle class="cls-7" cx="73.65" cy="83.56" r="1.46"/><circle class="cls-7" cx="80.77" cy="75.24" r="2.27"/><circle class="cls-7" cx="84.02" cy="72.29" r="3.07"/><circle class="cls-7" cx="79.39" cy="92.03" r="1.44"/><circle class="cls-7" cx="80.75" cy="94.27" r="1.8"/><circle class="cls-7" cx="77.28" cy="93.96" r="2.44"/><path class="cls-15" d="M29.54,31.86,14.77,34.57,0,31.86V16.27A14.77,14.77,0,0,1,14.77,1.5h0A14.77,14.77,0,0,1,29.54,16.27Z"/><path class="cls-16" d="M14.77,1.5V34.57l14.77-2.71V16.27A14.77,14.77,0,0,0,14.77,1.5Z"/><rect class="cls-9" x="12.32" y="31.58" width="4.9" height="49.91"/><rect class="cls-9" x="12.32" y="87.66" width="4.9" height="14.71" transform="translate(109.79 80.25) rotate(90)"/><rect class="cls-9" x="7.41" y="82.63" width="4.9" height="12.78" transform="translate(19.73 178.03) rotate(180)"/><rect class="cls-9" x="17.22" y="82.63" width="4.9" height="12.78" transform="translate(39.35 178.03) rotate(180)"/><rect class="cls-9" x="9.44" y="77.75" width="4.9" height="7.77" transform="translate(-37.42 147.77) rotate(-135)"/><rect class="cls-9" x="15.19" y="77.75" width="4.9" height="7.77" transform="translate(-52.56 36.39) rotate(-45)"/><path class="cls-11" d="M11.09,28h7.36a0,0,0,0,1,0,0V38.15a3.68,3.68,0,0,1-3.68,3.68h0a3.68,3.68,0,0,1-3.68-3.68V28A0,0,0,0,1,11.09,28Z" transform="translate(29.54 69.82) rotate(-180)"/></svg>