<svg id="Layer_1" data-name="Layer 1" xmlns="http://www.w3.org/2000/svg" viewBox="0 0 100 100"><defs><style>.cls-1{fill:none;stroke:#09a380;stroke-miterlimit:10;stroke-width:2.01px;}.cls-2{fill:#09a380;}</style></defs><title>vine</title><path class="cls-1" d="M53.48,17.85s5.45,11.4-.75,11.48"/><path class="cls-2" d="M59.28,10.81h0a8,8,0,0,0-3.92,3,.29.29,0,0,1-.51-.09,10.19,10.19,0,0,0-5.4-6.27h0a10.25,10.25,0,0,0-.29,8.15.28.28,0,0,1-.32.39,7.87,7.87,0,0,0-4.74.19h0a8,8,0,0,0,10.13,4.9s.18-.1.19-.07A8,8,0,0,0,59.28,10.81Z"/><path class="cls-1" d="M10.62,52.2S22.37,56.84,22,50.65"/><path class="cls-2" d="M4,58.47H4a8,8,0,0,1,2.76-4.12.29.29,0,0,0-.13-.5,10.22,10.22,0,0,1-6.63-5H0a10.22,10.22,0,0,1,8.11-.84.29.29,0,0,0,.37-.36A8,8,0,0,1,8.34,43h0a8,8,0,0,1,5.59,9.76s-.08.2,0,.2A8,8,0,0,1,4,58.47Z"/><path class="cls-2" d="M14.37,41.49a2,2,0,0,0,.85-.19,1.93,1.93,0,0,0,.88-2.59,11.08,11.08,0,0,1-.51-8.95c3.7-10.52,20.46-18.51,20.63-18.59a1.93,1.93,0,0,0-1.64-3.5c-.75.35-18.4,8.75-22.64,20.8a15,15,0,0,0,.69,11.94A1.93,1.93,0,0,0,14.37,41.49Z"/><path class="cls-2" d="M51.76,89.92a1.93,1.93,0,0,0,1-3.6,10.17,10.17,0,0,1-5.12-9,5.12,5.12,0,0,1,2.87-4.66c4-1.74,7.8,2.54,7.84,2.58a1.93,1.93,0,0,0,2.92-2.53c-.23-.27-5.71-6.49-12.31-3.6a9,9,0,0,0-5.18,8,14,14,0,0,0,7,12.6A1.92,1.92,0,0,0,51.76,89.92Z"/><path class="cls-2" d="M21.12,90.78a30.72,30.72,0,0,0,6.05-.59,1.94,1.94,0,0,0-.83-3.78h0c-.09,0-9,1.9-13.41-1.67-1.66-1.34-2.46-3.3-2.45-6,0-3.78,1.53-6.39,4.41-7.56,5.07-2.06,14.73.55,24.91,11a1.94,1.94,0,0,0,2.78-2.7c-10.06-10.32-21.5-15-29.14-11.88C9.1,69.34,6.61,73.4,6.6,78.72c0,3.91,1.31,7,3.91,9C13.52,90.18,17.7,90.78,21.12,90.78Z"/><path class="cls-2" d="M37.05,79a47,47,0,0,1-9.51-24,19.94,19.94,0,0,1-2.46-1c-6-2.8-10.83-8.61-13.36-15.94-4-11.57-1.22-27.4-1.11-28.07a1.94,1.94,0,0,1,3.82.68c0,.15-2.71,15.52,1,26.13,2.19,6.35,6.32,11.34,11.34,13.7l.58.26a42.42,42.42,0,0,1,.83-8.94c1.54-7.32,5-12.94,9.53-15.4,5.1-2.78,10.45-2.75,14.66.09a12.86,12.86,0,0,1,5.51,12.24C57.07,45.32,51.66,51,43,54.22a24.66,24.66,0,0,1-11.49,1.62,43.07,43.07,0,0,0,8.6,20.81c7,9.09,19,13.66,29.82,11.39a22.57,22.57,0,0,0,9.46-4.29,22,22,0,0,1-9.53-13.3c-1.44-5.52,0-10.45,3.91-13.19a10.86,10.86,0,0,1,12.32-.12c2.11,1.45,6.76,6,4.17,16.38a24.67,24.67,0,0,1-4.44,9.26A32.05,32.05,0,0,0,98,84.8a1.94,1.94,0,0,1,.21,3.87,37.12,37.12,0,0,1-15.08-2.94,26.18,26.18,0,0,1-12.35,6.1,31.92,31.92,0,0,1-6.59.68A34.5,34.5,0,0,1,37.05,79ZM76,60.42c-2.56,1.8-3.43,5.1-2.39,9A18.48,18.48,0,0,0,82.23,81a20.42,20.42,0,0,0,4.28-8.44c1.41-5.69.47-10.15-2.6-12.25A6.85,6.85,0,0,0,80,59.17,7.05,7.05,0,0,0,76,60.42ZM39.51,29.84c-3.47,1.89-6.3,6.68-7.59,12.8a38.79,38.79,0,0,0-.73,9.26,20.24,20.24,0,0,0,10.45-1.3C48.9,47.86,53.4,43.38,54,38.32a9,9,0,0,0-3.84-8.58,8.65,8.65,0,0,0-4.92-1.48A12,12,0,0,0,39.51,29.84Z"/></svg>