<svg id="Layer_1" data-name="Layer 1" xmlns="http://www.w3.org/2000/svg" viewBox="0 0 100 100"><defs><style>.cls-1{fill:#6d4945;}.cls-2{fill:#00604a;}.cls-3{fill:#007f63;}.cls-4{fill:#089a7a;}.cls-5{fill:#007359;}.cls-6{fill:#583936;}.cls-7,.cls-8{fill:none;stroke-miterlimit:10;}.cls-7{stroke:#089a7a;}.cls-8{stroke:#007f63;}</style></defs><title>rainforest</title><rect class="cls-1" x="28.82" y="45.75" width="71.18" height="15.74" rx="3.95" ry="3.95"/><polyline class="cls-1" points="69.09 87.82 97.54 59.37 97.54 49.61 95.81 47.13 51.73 68.53"/><path class="cls-2" d="M32.67,46.67,3,76.31H68.14L97,47.44h-.07a7.79,7.79,0,0,0-4.81-1.69H36.69a7.77,7.77,0,0,0-3.61.92"/><path class="cls-1" d="M63.31,74.63H7.87a7.87,7.87,0,0,0,0,15.74H63.31a7.87,7.87,0,0,0,0-15.74Z"/><path class="cls-3" d="M87.28,47.91H84.59v-.63a10.57,10.57,0,0,1,2.69-7h0Z"/><path class="cls-4" d="M63.71,56.81H59v-1.1a18.51,18.51,0,0,1,4.71-12.33h0Z"/><path class="cls-3" d="M69.27,71.89H66.58v-.63a10.53,10.53,0,0,1,2.69-7h0Z"/><path class="cls-3" d="M40.29,69.6H37.61V69a10.54,10.54,0,0,1,2.68-7h0Z"/><path class="cls-3" d="M55.93,73H53.24V72.4a10.52,10.52,0,0,1,2.69-7h0Z"/><path class="cls-4" d="M91,50.59H88.34V50a10.47,10.47,0,0,1,2.69-7h0Z"/><path class="cls-4" d="M35.46,73.86H32.78v-.63a10.56,10.56,0,0,1,2.68-7h0Z"/><path class="cls-5" d="M81.63,58.94h2.68v-1a23.22,23.22,0,0,0-2.68-11.18h0Z"/><path class="cls-3" d="M28,71.46h2.69v-1A23.15,23.15,0,0,0,28,59.29h0Z"/><path class="cls-3" d="M10.81,71.46h2.68v-.62a10.52,10.52,0,0,0-2.68-7h0Z"/><path class="cls-4" d="M60.3,71.19H63v-.63a10.56,10.56,0,0,0-2.68-7h0Z"/><path class="cls-6" d="M25.9,49.26H20.8V47.79h5.1a1.66,1.66,0,0,0,1.66-1.66v-3.9H29v3.9A3.14,3.14,0,0,1,25.9,49.26Z"/><path class="cls-6" d="M20.13,51.64H15a3.14,3.14,0,0,1-3.14-3.13V44.6h1.48v3.91A1.66,1.66,0,0,0,15,50.17h5.1Z"/><rect class="cls-6" x="18.64" y="38.04" width="4.31" height="30.02" rx="2.16" ry="2.16" transform="translate(-1.69 0.69) rotate(-1.84)"/><rect class="cls-5" x="11.91" y="30.03" width="17.74" height="10.95" rx="4.98" ry="4.98"/><rect class="cls-3" x="5.48" y="37.41" width="18.34" height="9.36" rx="4.68" ry="4.68"/><rect class="cls-4" x="20.46" y="35.93" width="13.73" height="7.01" rx="3.5" ry="3.5"/><path class="cls-6" d="M78.88,43.62H74.31V42.3h4.57a1.49,1.49,0,0,0,1.48-1.49V37.32h1.32v3.49A2.81,2.81,0,0,1,78.88,43.62Z"/><path class="cls-6" d="M73.71,45.74H69.15a2.81,2.81,0,0,1-2.8-2.8V39.45h1.32v3.49a1.48,1.48,0,0,0,1.48,1.48h4.56Z"/><rect class="cls-6" x="72.46" y="34.45" width="3.74" height="26.01" rx="1.87" ry="1.87" transform="translate(-1.48 2.41) rotate(-1.84)"/><rect class="cls-5" x="66.63" y="27.52" width="15.37" height="9.49" rx="4.31" ry="4.31"/><rect class="cls-3" x="61.07" y="33.91" width="15.89" height="8.1" rx="4.05" ry="4.05"/><rect class="cls-4" x="74.04" y="32.63" width="11.9" height="6.07" rx="3.03" ry="3.03"/><path class="cls-4" d="M42,58.4H37.05V57.25A19.24,19.24,0,0,1,42,44.39h0Z"/><path class="cls-5" d="M33.24,61.65h4v-1.5a34.72,34.72,0,0,0-4-16.77h0Z"/><circle class="cls-3" cx="52.01" cy="60.16" r="1.13"/><path class="cls-5" d="M25.93,70.18H20.78V68.47a36.15,36.15,0,0,1,5.15-19.1h0Z"/><path class="cls-4" d="M16.48,72.72h5.16v-1.2A20.23,20.23,0,0,0,16.48,58h0Z"/><path class="cls-6" d="M57.79,36.44h-7.6v-2.2h7.6a2.48,2.48,0,0,0,2.47-2.47V26h2.19v5.81A4.67,4.67,0,0,1,57.79,36.44Z"/><path class="cls-6" d="M49.19,40h-7.6a4.66,4.66,0,0,1-4.66-4.66V29.5h2.19v5.81a2.48,2.48,0,0,0,2.47,2.47h7.6Z"/><rect class="cls-6" x="47.11" y="21.18" width="6.22" height="43.3" rx="3.11" ry="3.11" transform="translate(-1.35 1.63) rotate(-1.84)"/><rect class="cls-5" x="37.4" y="9.63" width="25.59" height="15.8" rx="7.18" ry="7.18"/><rect class="cls-3" x="28.13" y="20.27" width="26.45" height="13.49" rx="6.75" ry="6.75"/><rect class="cls-4" x="49.74" y="18.14" width="19.81" height="10.1" rx="5.05" ry="5.05"/><path class="cls-3" d="M78.12,61.27H73.71v-1a17.26,17.26,0,0,1,4.41-11.52h0Z"/><path class="cls-4" d="M55.27,63.46H58v-.63a10.57,10.57,0,0,0-2.69-7h0Z"/><path class="cls-5" d="M70.8,62.62H74V61.41A27.94,27.94,0,0,0,70.8,47.92h0Z"/><path class="cls-5" d="M54.28,65.56H49.74V63.63c0-8,1.61-15.62,4.54-21.54h0Z"/><path class="cls-4" d="M45.67,67.36h5.41v-1a15,15,0,0,0-5.41-11.18h0Z"/><path class="cls-7" d="M28.82,40.47s20.6,11.81,34.89-15"/><path class="cls-8" d="M40.92,30C40.92,52.51,69,48.12,69,41"/><path class="cls-8" d="M65.17,38.7C65.21,45.18,38.35,72,16,44.6"/></svg>