<svg id="Layer_1" data-name="Layer 1" xmlns="http://www.w3.org/2000/svg" viewBox="0 0 100 100"><defs><style>.cls-1{fill:#6ab8d9;}.cls-2{fill:#5596b2;}.cls-3{fill:#3e545f;}.cls-4{fill:#d1eefb;}.cls-5{fill:#b2e2f9;}.cls-6{fill:#e0f3fd;}.cls-7{fill:#09a380;}.cls-8{fill:#3ab599;}.cls-9{fill:#fff;}.cls-10{fill:#e0e0e0;}</style></defs><title>syringe</title><rect class="cls-1" x="9.64" y="75.04" width="5.69" height="26.84" transform="translate(83.87 142.18) rotate(135)"/><ellipse class="cls-1" cx="10.48" cy="90.47" rx="1.2" ry="13.42" transform="translate(-60.91 33.91) rotate(-45)"/><ellipse class="cls-2" cx="14.5" cy="86.45" rx="1.2" ry="13.42" transform="translate(-56.88 35.58) rotate(-45)"/><rect class="cls-3" x="12.99" y="78.54" width="9.57" height="9.27" transform="translate(64.02 11.79) rotate(45)"/><rect class="cls-1" x="20.94" y="59.9" width="4.67" height="35.54" transform="translate(94.66 116.14) rotate(135)"/><ellipse class="cls-1" cx="21.63" cy="79.32" rx="2.01" ry="17.77" transform="translate(-49.76 38.53) rotate(-45)"/><ellipse class="cls-4" cx="24.93" cy="76.02" rx="2.01" ry="17.77" transform="translate(-46.46 39.89) rotate(-45)"/><rect class="cls-5" x="36.64" y="15.09" width="27.28" height="71.16" transform="translate(50.55 -20.72) rotate(45)"/><ellipse class="cls-6" cx="75.45" cy="25.51" rx="1.97" ry="13.64" transform="translate(4.06 60.82) rotate(-45)"/><rect class="cls-7" x="75.47" y="16.77" width="7.18" height="10.23" transform="translate(38.64 -49.49) rotate(45)"/><ellipse class="cls-7" cx="75.45" cy="25.51" rx="0.54" ry="3.59" transform="translate(4.06 60.82) rotate(-45)"/><ellipse class="cls-8" cx="82.68" cy="18.27" rx="0.54" ry="3.59" transform="translate(11.3 63.82) rotate(-45)"/><polygon class="cls-9" points="99.05 0 81.71 17.34 83.62 19.24 99.05 3.81 99.05 0"/><ellipse class="cls-10" cx="82.66" cy="18.29" rx="0.18" ry="1.35" transform="translate(11.28 63.81) rotate(-45)"/><ellipse class="cls-5" cx="25.13" cy="75.82" rx="1.36" ry="13.64" transform="translate(-46.26 39.98) rotate(-45)"/><ellipse class="cls-3" cx="14.5" cy="86.45" rx="0.55" ry="4.79" transform="translate(-56.88 35.58) rotate(-45)"/><rect class="cls-9" x="68.53" y="36.03" width="8.98" height="2.03" transform="translate(47.58 -40.78) rotate(45)"/><rect class="cls-9" x="65.39" y="39.17" width="8.98" height="2.03" transform="translate(48.88 -37.64) rotate(45)"/><rect class="cls-9" x="62.26" y="42.3" width="8.98" height="2.03" transform="translate(50.18 -34.51) rotate(45)"/><rect class="cls-9" x="55.85" y="44.09" width="12.8" height="2.03" transform="translate(50.13 -30.81) rotate(45)"/><rect class="cls-9" x="55.98" y="48.58" width="8.98" height="2.03" transform="translate(52.78 -28.23) rotate(45)"/><rect class="cls-9" x="52.84" y="51.72" width="8.98" height="2.03" transform="translate(54.08 -25.09) rotate(45)"/><rect class="cls-9" x="49.7" y="54.86" width="8.98" height="2.03" transform="translate(55.38 -21.95) rotate(45)"/><rect class="cls-9" x="43.29" y="56.64" width="12.8" height="2.03" transform="translate(55.33 -18.25) rotate(45)"/><rect class="cls-9" x="43.42" y="61.14" width="8.98" height="2.03" transform="translate(57.98 -15.67) rotate(45)"/><rect class="cls-9" x="40.29" y="64.28" width="8.98" height="2.03" transform="translate(59.28 -12.54) rotate(45)"/><rect class="cls-9" x="37.15" y="67.41" width="8.98" height="2.03" transform="translate(60.58 -9.4) rotate(45)"/><rect class="cls-9" x="30.74" y="69.2" width="12.8" height="2.03" transform="translate(60.53 -5.7) rotate(45)"/></svg>