<svg id="Layer_1" data-name="Layer 1" xmlns="http://www.w3.org/2000/svg" viewBox="0 0 100 100"><defs><style>.cls-1{fill:#4a4a4c;}.cls-2{fill:#e0e0e0;}.cls-3{fill:#a6a8ab;}.cls-4{fill:#3e3e3f;}.cls-5{fill:#616161;}</style></defs><title>moon rover</title><path class="cls-1" d="M56.4,68.2H76a0,0,0,0,1,0,0v0a5.64,5.64,0,0,1-5.64,5.64h-14a0,0,0,0,1,0,0V68.2A0,0,0,0,1,56.4,68.2Z" transform="translate(132.4 142.04) rotate(-180)"/><rect class="cls-1" x="45.82" y="55.36" width="3.42" height="8.57" transform="translate(56.09 -16.14) rotate(45)"/><rect class="cls-2" x="48.84" y="50.99" width="3.42" height="11.26" rx="1.71" ry="1.71" transform="translate(126.32 60.92) rotate(135)"/><path class="cls-1" d="M37.1,65h8.2a0,0,0,0,1,0,0V77.44a0,0,0,0,1,0,0H32.86a0,0,0,0,1,0,0v-8.2A4.24,4.24,0,0,1,37.1,65Z"/><polygon class="cls-3" points="80.02 76.86 66.2 76.86 76.45 56.62 80.02 56.62 80.02 76.86"/><path class="cls-1" d="M29.81,76.14h19.6a0,0,0,0,1,0,0v0a5.64,5.64,0,0,1-5.64,5.64h-14a0,0,0,0,1,0,0V76.14a0,0,0,0,1,0,0Z"/><path class="cls-1" d="M56.4,76.14h14A5.64,5.64,0,0,1,76,81.77v0a0,0,0,0,1,0,0H56.4a0,0,0,0,1,0,0V76.14A0,0,0,0,1,56.4,76.14Z" transform="translate(132.4 157.91) rotate(-180)"/><rect class="cls-3" x="18.41" y="54.62" width="6.92" height="16.4" rx="3.46" ry="3.46"/><rect class="cls-3" x="41.6" y="60.84" width="8.94" height="16.6"/><rect class="cls-3" x="79.02" y="51.68" width="6.92" height="16.4" rx="3.46" ry="3.46"/><rect class="cls-3" x="13.31" y="10.43" width="3.42" height="20.85" transform="translate(-10.35 16.73) rotate(-45)"/><circle class="cls-2" cx="7.01" cy="12.85" r="3.37"/><rect class="cls-4" x="28.1" y="34.96" width="3.42" height="43.32"/><rect class="cls-4" x="24.34" y="25.86" width="3.42" height="12.06" transform="translate(67.01 36.02) rotate(135)"/><rect class="cls-3" x="49.62" y="54.48" width="4.71" height="43.32" transform="translate(128.11 24.16) rotate(90)"/><circle class="cls-5" cx="21.16" cy="78.49" r="15.67"/><circle class="cls-2" cx="21.16" cy="78.52" r="7.3"/><circle class="cls-5" cx="84.33" cy="78.49" r="15.67"/><path class="cls-2" d="M26.13,32a18.47,18.47,0,0,0,0-26.13L0,32A18.47,18.47,0,0,0,26.13,32Z"/><circle class="cls-2" cx="84.33" cy="78.49" r="7.3"/></svg>