<svg id="Layer_1" data-name="Layer 1" xmlns="http://www.w3.org/2000/svg" viewBox="0 0 100 100"><defs><style>.cls-1{fill:#079374;}.cls-2{fill:#09a582;}</style></defs><title>grass</title><polygon class="cls-1" points="6.25 65.16 18.75 65.16 12.5 42 6.25 65.16"/><polygon class="cls-1" points="18.75 65.16 31.25 65.16 25 42 18.75 65.16"/><polygon class="cls-1" points="31.25 65.16 43.75 65.16 37.5 42 31.25 65.16"/><polygon class="cls-1" points="43.75 65.16 56.25 65.16 50 42 43.75 65.16"/><polygon class="cls-1" points="56.25 65.16 68.75 65.16 62.5 42 56.25 65.16"/><polygon class="cls-1" points="68.75 65.16 81.25 65.16 75 42 68.75 65.16"/><polygon class="cls-1" points="81.25 65.16 93.75 65.16 87.5 42 81.25 65.16"/><rect class="cls-1" x="3.86" y="62.59" width="93.19" height="7.41"/><polygon class="cls-2" points="0 70 12.5 70 6.25 30 0 70"/><polygon class="cls-2" points="12.5 70 25 70 18.75 30 12.5 70"/><polygon class="cls-2" points="25 70 37.5 70 31.25 30 25 70"/><polygon class="cls-2" points="37.5 70 50 70 43.75 30 37.5 70"/><polygon class="cls-2" points="50 70 62.5 70 56.25 30 50 70"/><polygon class="cls-2" points="62.5 70 75 70 68.75 30 62.5 70"/><polygon class="cls-2" points="87.5 70 100 70 93.75 30 87.5 70"/><polygon class="cls-2" points="75 70 87.5 70 81.25 30 75 70"/></svg>