<svg id="Layer_1" data-name="Layer 1" xmlns="http://www.w3.org/2000/svg" viewBox="0 0 100 100"><defs><style>.cls-1{fill:#fff;}.cls-2{fill:#d0d2d3;}.cls-3{fill:#f5853c;}.cls-4{fill:#994d1f;}</style></defs><title>shovel</title><path class="cls-1" d="M19.84,53.17l16,11,11,16L32.58,94.41a19.09,19.09,0,0,1-27,0h0a19.09,19.09,0,0,1,0-27Z"/><path class="cls-2" d="M5.59,94.41,35.8,64.2l-16-11L5.59,67.42A19.09,19.09,0,0,0,5.59,94.41Z"/><rect class="cls-3" x="52.7" y="11.88" width="6.34" height="64.5" transform="translate(64.18 114.84) rotate(-135)"/><rect class="cls-3" x="87.87" y="-0.54" width="6.34" height="19.01" transform="translate(20.33 67) rotate(-45)"/><rect class="cls-3" x="86.86" y="10.67" width="6.34" height="16.51" transform="translate(39.76 -58.12) rotate(45)"/><rect class="cls-3" x="77.9" y="1.71" width="6.34" height="16.51" transform="translate(30.79 -54.41) rotate(45)"/><rect class="cls-3" x="78.27" y="18.8" width="6.34" height="10.04" transform="translate(105.26 -57.61) rotate(90)"/><rect class="cls-3" x="73.01" y="13.55" width="6.34" height="10.04" transform="translate(152.36 37.13) rotate(180)"/><path class="cls-4" d="M31.36,54.95h9.51a0,0,0,0,1,0,0V68.07a4.75,4.75,0,0,1-4.75,4.75h0a4.75,4.75,0,0,1-4.75-4.75V54.95a0,0,0,0,1,0,0Z" transform="translate(55.75 -6.83) rotate(45)"/></svg>