<svg id="Layer_1" data-name="Layer 1" xmlns="http://www.w3.org/2000/svg" viewBox="0 0 100 100"><defs><style>.cls-1{fill:#fffaef;}.cls-2{fill:#ffe5b1;}.cls-3{fill:#bf9b77;}.cls-4{fill:#452a27;}.cls-5{fill:#6d4945;}.cls-6{fill:#fefff6;}</style></defs><title>hot chocolate</title><path class="cls-1" d="M84.17,40.24A15.83,15.83,0,1,0,100,56.07,15.83,15.83,0,0,0,84.17,40.24Zm0,24.88a9,9,0,1,1,9-9.05A9,9,0,0,1,84.17,65.12Z"/><path class="cls-1" d="M9.94,31.92H84.18a0,0,0,0,1,0,0V60.1A37.12,37.12,0,0,1,47.06,97.22h0A37.12,37.12,0,0,1,9.94,60.1V31.92A0,0,0,0,1,9.94,31.92Z"/><ellipse class="cls-2" cx="47.06" cy="31.92" rx="37.12" ry="8.32"/><ellipse class="cls-1" cx="47.06" cy="93.81" rx="22.54" ry="3.98"/><rect class="cls-1" x="24.52" y="84.74" width="45.07" height="9.07"/><ellipse class="cls-3" cx="47.06" cy="31.92" rx="35.09" ry="7.49"/><path class="cls-4" d="M15.16,35c5.54,2.58,17.74,4.37,31.9,4.37S73.42,37.62,79,35c-5.54-2.58-17.74-4.37-31.9-4.37S20.7,32.46,15.16,35Z"/><path class="cls-4" d="M22.29,35.25H27.9a0,0,0,0,1,0,0V66.33a2.81,2.81,0,0,1-2.81,2.81h0a2.81,2.81,0,0,1-2.81-2.81V35.25a0,0,0,0,1,0,0Z"/><path class="cls-4" d="M33.52,35.25h5.62a0,0,0,0,1,0,0V59.09a2.81,2.81,0,0,1-2.81,2.81h0a2.81,2.81,0,0,1-2.81-2.81V35.25a0,0,0,0,1,0,0Z"/><path class="cls-4" d="M44.76,35.25h5.62a0,0,0,0,1,0,0v19A2.81,2.81,0,0,1,47.57,57h0a2.81,2.81,0,0,1-2.81-2.81v-19a0,0,0,0,1,0,0Z"/><path class="cls-4" d="M27.9,35.25V56.72a2.81,2.81,0,0,1,5.62,0V35.25Z"/><path class="cls-4" d="M39.14,35.25V52.66a2.81,2.81,0,1,1,5.62,0V35.25Z"/><path class="cls-5" d="M28.72,32.7c-1.94,0-3.51,1.07-3.62,2.42,0,.28,1.62.51,3.62.51s3.63-.23,3.63-.51C32.23,33.77,30.66,32.7,28.72,32.7Z"/><path class="cls-5" d="M62.87,34.25c-1.79,0-3.24,1-3.34,2.23,0,.26,1.49.47,3.34.47s3.35-.21,3.35-.47C66.11,35.24,64.66,34.25,62.87,34.25Z"/><path class="cls-5" d="M56.4,31.92c-1,0-1.86.57-1.92,1.28,0,.15.86.27,1.92.27s1.91-.12,1.91-.27C58.26,32.49,57.42,31.92,56.4,31.92Z"/><path class="cls-5" d="M47.57,35.63c-1,0-1.86.56-1.92,1.27,0,.15.86.27,1.92.27s1.91-.12,1.91-.27C49.42,36.19,48.59,35.63,47.57,35.63Z"/><path class="cls-5" d="M37.11,33.12c-.75,0-1.35.41-1.39.93,0,.11.62.19,1.39.19s1.39-.08,1.39-.19C38.46,33.53,37.86,33.12,37.11,33.12Z"/><path class="cls-6" d="M47.65,3c-1.32,1.76-1.23,3.68-.51,5.67s1.77,4,2.6,6.21a19.68,19.68,0,0,1,.95,3.51,10.74,10.74,0,0,1,0,3.79,9.39,9.39,0,0,1-1.46,3.49,11.49,11.49,0,0,1-2.53,2.58.51.51,0,0,1-.71-.1.5.5,0,0,1,0-.58v0a19.07,19.07,0,0,0,1.63-2.79,9.12,9.12,0,0,0,.75-2.92,14.36,14.36,0,0,0-1.1-6A58.32,58.32,0,0,1,44.94,9.3a8.18,8.18,0,0,1-.1-3.82,5.6,5.6,0,0,1,2.1-3.17h0a.5.5,0,0,1,.7.12A.51.51,0,0,1,47.65,3Z"/><path class="cls-6" d="M59.14,3c-1.32,1.76-1.23,3.68-.51,5.67s1.77,4,2.6,6.21a19.68,19.68,0,0,1,1,3.51,10.74,10.74,0,0,1,0,3.79,9.39,9.39,0,0,1-1.46,3.49,11.49,11.49,0,0,1-2.53,2.58.51.51,0,0,1-.71-.1.5.5,0,0,1,0-.58v0a19.07,19.07,0,0,0,1.63-2.79,9.12,9.12,0,0,0,.75-2.92,14.36,14.36,0,0,0-1.1-6A58.32,58.32,0,0,1,56.43,9.3a8.18,8.18,0,0,1-.1-3.82,5.6,5.6,0,0,1,2.1-3.17h0a.5.5,0,0,1,.7.12A.51.51,0,0,1,59.14,3Z"/><path class="cls-6" d="M36.16,3c-1.32,1.76-1.23,3.68-.51,5.67s1.77,4,2.6,6.21a19.68,19.68,0,0,1,1,3.51,10.74,10.74,0,0,1-.05,3.79,9.39,9.39,0,0,1-1.46,3.49,11.49,11.49,0,0,1-2.53,2.58.51.51,0,0,1-.71-.1.5.5,0,0,1,0-.58v0a19.07,19.07,0,0,0,1.63-2.79,9.12,9.12,0,0,0,.75-2.92,14.36,14.36,0,0,0-1.1-6A58.32,58.32,0,0,1,33.45,9.3a8.18,8.18,0,0,1-.1-3.82,5.6,5.6,0,0,1,2.1-3.17h0a.5.5,0,0,1,.7.12A.51.51,0,0,1,36.16,3Z"/></svg>