<svg id="Layer_1" data-name="Layer 1" xmlns="http://www.w3.org/2000/svg" xmlns:xlink="http://www.w3.org/1999/xlink" viewBox="0 0 100 100"><defs><style>.cls-1,.cls-12,.cls-14,.cls-17{fill:none;}.cls-2{fill:#d1dce3;opacity:0.9;}.cls-3{fill:#ffc63f;}.cls-4{fill:#f5853c;}.cls-5{fill:#f9a63f;}.cls-6{fill:#f37d3b;}.cls-7{fill:#b25c29;}.cls-8{fill:#231f20;}.cls-9{clip-path:url(#clip-path);}.cls-10{fill:#d0d2d3;}.cls-11{fill:#fff;}.cls-12,.cls-14{stroke:#231f20;}.cls-12,.cls-14,.cls-17{stroke-miterlimit:10;}.cls-12{stroke-width:0.2px;}.cls-13{clip-path:url(#clip-path-2);}.cls-14{stroke-width:0.14px;}.cls-15{fill:#616161;}.cls-16{clip-path:url(#clip-path-3);}.cls-17{stroke:#616161;stroke-width:0.24px;}.cls-18{fill:#faaf40;}.cls-19{fill:#ffc640;}</style><clipPath id="clip-path"><path class="cls-1" d="M33.3,75.06c-1.16-1.77-1.08-3.86.17-4.69s3.21-.06,4.37,1.7a8,8,0,0,1,1.1,6.62A8.94,8.94,0,0,1,33.3,75.06Z"/></clipPath><clipPath id="clip-path-2"><path class="cls-1" d="M9.66,86.93c1.2-.79,2.63-.74,3.19.12s.05,2.19-1.16,3a5.47,5.47,0,0,1-4.52.75A6.08,6.08,0,0,1,9.66,86.93Z"/></clipPath><clipPath id="clip-path-3"><path class="cls-1" d="M40,44.07c0-2.93,1.77-5.29,3.87-5.26s3.75,2.43,3.71,5.37a11.16,11.16,0,0,1-3.91,8.5A12.48,12.48,0,0,1,40,44.07Z"/></clipPath></defs><title>beekeeper</title><path class="cls-2" d="M75.81,46.53h0a23.82,23.82,0,0,1-23.67-21.2l-.51-4.58,23.87-2,24.5,2-.51,4.58A23.83,23.83,0,0,1,75.81,46.53Z"/><path class="cls-3" d="M88.78,13.83H62.85l.61-4.41C64.2,4.18,69.51.22,75.81.22h0c6.31,0,11.62,4,12.35,9.2Z"/><polygon class="cls-3" points="100 20.75 51.63 20.75 62.84 13.82 88.78 13.82 100 20.75"/><polygon class="cls-4" points="63.2 11.28 62.84 13.82 88.78 13.82 88.42 11.28 63.2 11.28"/><polygon class="cls-3" points="11.78 29.68 9.29 25.36 11.78 21.05 16.76 21.05 19.25 25.36 16.76 29.68 11.78 29.68"/><path class="cls-5" d="M16.51,21.48l2.25,3.88-2.25,3.89H12L9.78,25.36,12,21.48h4.48m.5-.85H11.54L8.8,25.36l2.74,4.74H17l2.73-4.74L17,20.63Z"/><polygon class="cls-3" points="20.62 34.75 18.13 30.44 20.62 26.13 25.6 26.13 28.09 30.44 25.6 34.75 20.62 34.75"/><path class="cls-5" d="M25.35,26.55l2.24,3.89-2.24,3.88H20.86l-2.24-3.88,2.24-3.89h4.49m.49-.85H20.37l-2.73,4.74,2.73,4.74h5.47l2.74-4.74L25.84,25.7Z"/><polygon class="cls-3" points="20.62 24.6 18.13 20.29 20.62 15.98 25.6 15.98 28.09 20.29 25.6 24.6 20.62 24.6"/><path class="cls-5" d="M25.35,16.4l2.24,3.89-2.24,3.88H20.86l-2.24-3.88,2.24-3.89h4.49m.49-.85H20.37l-2.73,4.74L20.37,25h5.47l2.74-4.74-2.74-4.74Z"/><polygon class="cls-3" points="11.78 19.42 9.29 15.11 11.78 10.8 16.76 10.8 19.25 15.11 16.76 19.42 11.78 19.42"/><path class="cls-5" d="M16.51,11.22l2.25,3.89L16.51,19H12L9.78,15.11,12,11.22h4.48m.5-.85H11.54L8.8,15.11l2.74,4.74H17l2.73-4.74L17,10.37Z"/><polygon class="cls-3" points="11.78 9.27 9.29 4.96 11.78 0.65 16.76 0.65 19.25 4.96 16.76 9.27 11.78 9.27"/><path class="cls-5" d="M16.51,1.07,18.76,5,16.51,8.84H12L9.78,5,12,1.07h4.48M17,.22H11.54L8.8,5,11.54,9.7H17L19.74,5,17,.22Z"/><polygon class="cls-3" points="29.45 29.68 26.96 25.36 29.45 21.05 34.43 21.05 36.92 25.36 34.43 29.68 29.45 29.68"/><path class="cls-5" d="M34.19,21.48l2.24,3.88-2.24,3.89H29.7l-2.24-3.89,2.24-3.88h4.49m.49-.85H29.21l-2.74,4.73,2.74,4.74h5.47l2.73-4.74-2.73-4.73Z"/><polygon class="cls-3" points="38.37 24.6 35.88 20.29 38.37 15.98 43.35 15.98 45.84 20.29 43.35 24.6 38.37 24.6"/><path class="cls-5" d="M43.1,16.4l2.25,3.89L43.1,24.17H38.62l-2.25-3.88,2.25-3.89H43.1m.49-.85H38.12l-2.73,4.74L38.12,25h5.47l2.74-4.74-2.74-4.74Z"/><polygon class="cls-3" points="2.98 24.6 0.49 20.29 2.98 15.98 7.96 15.98 10.45 20.29 7.96 24.6 2.98 24.6"/><path class="cls-5" d="M7.71,16.4,10,20.29,7.71,24.17H3.23L1,20.29,3.23,16.4H7.71m.5-.85H2.74L0,20.29,2.74,25H8.21l2.73-4.74L8.21,15.55Z"/><polygon class="cls-3" points="20.62 44.86 18.13 40.55 20.62 36.24 25.6 36.24 28.09 40.55 25.6 44.86 20.62 44.86"/><path class="cls-5" d="M25.35,36.67l2.24,3.88-2.24,3.89H20.86l-2.24-3.89,2.24-3.88h4.49m.49-.86H20.37l-2.73,4.74,2.73,4.74h5.47l2.74-4.74-2.74-4.74Z"/><polygon class="cls-3" points="11.78 39.93 9.29 35.62 11.78 31.31 16.76 31.31 19.25 35.62 16.76 39.93 11.78 39.93"/><path class="cls-5" d="M16.51,31.73l2.25,3.89L16.51,39.5H12L9.78,35.62,12,31.73h4.48m.5-.85H11.54L8.8,35.62l2.74,4.74H17l2.73-4.74L17,30.88Z"/><polygon class="cls-3" points="29.45 19.42 26.96 15.11 29.45 10.8 34.43 10.8 36.92 15.11 34.43 19.42 29.45 19.42"/><path class="cls-5" d="M34.19,11.22l2.24,3.89L34.19,19H29.7l-2.24-3.88,2.24-3.89h4.49m.49-.85H29.21l-2.74,4.74,2.74,4.74h5.47l2.73-4.74-2.73-4.74Z"/><polygon class="cls-3" points="20.62 14.49 18.13 10.18 20.62 5.86 25.6 5.86 28.09 10.18 25.6 14.49 20.62 14.49"/><path class="cls-5" d="M25.35,6.29l2.24,3.89-2.24,3.88H20.86l-2.24-3.88,2.24-3.89h4.49m.49-.85H20.37l-2.73,4.74,2.73,4.73h5.47l2.74-4.73L25.84,5.44Z"/><path class="cls-3" d="M8.45,30.93a2.72,2.72,0,0,1-5.44,0c0-1.5,2.72-4.38,2.72-4.38S8.45,29.43,8.45,30.93Z"/><path class="cls-3" d="M43.61,8a2.72,2.72,0,0,1-5.44,0c0-1.5,2.72-4.38,2.72-4.38S43.61,6.47,43.61,8Z"/><path class="cls-3" d="M17,49.79a2.72,2.72,0,0,1-5.44,0c0-1.5,2.72-4.37,2.72-4.37S17,48.29,17,49.79Z"/><rect class="cls-6" x="9.17" y="94.53" width="3.25" height="5.25"/><rect class="cls-6" x="36.09" y="94.53" width="3.25" height="5.25"/><rect class="cls-7" x="5.42" y="84.86" width="37.67" height="10.67"/><rect class="cls-7" x="5.42" y="62.76" width="37.67" height="11.67"/><rect class="cls-6" x="5.42" y="74.31" width="37.67" height="10.67"/><rect class="cls-6" x="3" y="57.57" width="42.5" height="6.16"/><rect class="cls-3" x="22.63" y="88.07" width="3.25" height="4.25"/><rect class="cls-3" x="22.63" y="66.9" width="3.25" height="4.25"/><rect class="cls-3" x="22.63" y="77.52" width="3.25" height="4.25"/><path class="cls-3" d="M33.3,75.06c-1.16-1.77-1.08-3.86.17-4.69s3.21-.06,4.37,1.7a8,8,0,0,1,1.1,6.62A8.94,8.94,0,0,1,33.3,75.06Z"/><path class="cls-3" d="M33.3,75.06c-1.16-1.77-1.08-3.86.17-4.69s3.21-.06,4.37,1.7a8,8,0,0,1,1.1,6.62A8.94,8.94,0,0,1,33.3,75.06Z"/><circle class="cls-8" cx="32.86" cy="69.44" r="1.83"/><g class="cls-9"><rect class="cls-8" x="30.58" y="69.39" width="6.75" height="3.42" transform="translate(-33.47 30.33) rotate(-33.31)"/><rect class="cls-8" x="32.61" y="73.34" width="6.91" height="1.96" transform="translate(-34.89 32.01) rotate(-33.31)"/><rect class="cls-8" x="34.16" y="75.98" width="6.91" height="1.96" transform="translate(-36.08 33.3) rotate(-33.31)"/></g><path class="cls-10" d="M38.58,70.48c1.28.1,2.28.73,2.23,1.41s-1.14,1.13-2.42,1a5.62,5.62,0,0,1-3.64-1.52A6.33,6.33,0,0,1,38.58,70.48Z"/><path class="cls-11" d="M37.88,67.48c1.37-.9,2.86-1,3.33-.33s-.25,2-1.62,2.93a7.14,7.14,0,0,1-4.84,1.32A8,8,0,0,1,37.88,67.48Z"/><path class="cls-10" d="M31.54,75.11c-.41,1.21-.23,2.38.41,2.6s1.5-.6,1.91-1.81a5.61,5.61,0,0,0,0-4A6.37,6.37,0,0,0,31.54,75.11Z"/><path class="cls-11" d="M29.07,73.27c-1.37.9-2.1,2.21-1.62,2.93s2,.57,3.33-.33A7.15,7.15,0,0,0,33.91,72,8.06,8.06,0,0,0,29.07,73.27Z"/><path class="cls-12" d="M32.19,69.14,32,68.86a1.62,1.62,0,0,0-2.25-.46l-.28.18"/><circle class="cls-8" cx="29.44" cy="68.6" r="0.35"/><path class="cls-12" d="M32.81,68.65l-.18-.27a1.63,1.63,0,0,1,.47-2.25l.27-.18"/><circle class="cls-8" cx="33.41" cy="65.92" r="0.35"/><path class="cls-3" d="M9.66,86.93c1.2-.79,2.63-.74,3.19.12s.05,2.19-1.16,3a5.47,5.47,0,0,1-4.52.75A6.08,6.08,0,0,1,9.66,86.93Z"/><path class="cls-3" d="M9.66,86.93c1.2-.79,2.63-.74,3.19.12s.05,2.19-1.16,3a5.47,5.47,0,0,1-4.52.75A6.08,6.08,0,0,1,9.66,86.93Z"/><circle class="cls-8" cx="13.49" cy="86.63" r="1.25"/><g class="cls-13"><rect class="cls-8" x="10.05" y="86.2" width="4.61" height="2.33" transform="translate(78.59 29.06) rotate(56.69)"/><rect class="cls-8" x="7.81" y="88.15" width="4.71" height="1.34" transform="translate(78.8 31.55) rotate(56.69)"/><rect class="cls-8" x="6" y="89.2" width="4.71" height="1.34" transform="translate(78.87 33.53) rotate(56.69)"/></g><path class="cls-10" d="M12.78,90.53c-.07.88-.5,1.56-1,1.52s-.78-.78-.71-1.65a3.85,3.85,0,0,1,1-2.48A4.31,4.31,0,0,1,12.78,90.53Z"/><path class="cls-11" d="M14.83,90.05c.61.94.71,2,.22,2.28s-1.39-.18-2-1.11a4.87,4.87,0,0,1-.9-3.3A5.48,5.48,0,0,1,14.83,90.05Z"/><path class="cls-10" d="M9.62,85.73c-.83-.28-1.62-.16-1.77.28s.4,1,1.23,1.3a3.81,3.81,0,0,0,2.69,0A4.32,4.32,0,0,0,9.62,85.73Z"/><path class="cls-11" d="M10.88,84c-.62-.93-1.51-1.43-2-1.11s-.39,1.34.22,2.28a4.93,4.93,0,0,0,2.68,2.14A5.59,5.59,0,0,0,10.88,84Z"/><path class="cls-14" d="M13.7,86.17l.18-.12a1.11,1.11,0,0,0,.32-1.54l-.12-.19"/><circle class="cls-8" cx="14.06" cy="84.3" r="0.24"/><path class="cls-14" d="M14,86.6l.19-.13a1.12,1.12,0,0,1,1.54.32l.12.19"/><circle class="cls-8" cx="15.89" cy="87.01" r="0.24"/><path class="cls-3" d="M40,44.07c0-2.93,1.77-5.29,3.87-5.26s3.75,2.43,3.71,5.37a11.16,11.16,0,0,1-3.91,8.5A12.48,12.48,0,0,1,40,44.07Z"/><path class="cls-3" d="M40,44.07c0-2.93,1.77-5.29,3.87-5.26s3.75,2.43,3.71,5.37a11.16,11.16,0,0,1-3.91,8.5A12.48,12.48,0,0,1,40,44.07Z"/><circle class="cls-15" cx="43.84" cy="37.24" r="2.55"/><g class="cls-16"><rect class="cls-15" x="39.09" y="37.64" width="9.41" height="4.77" transform="translate(0.55 -0.6) rotate(0.79)"/><rect class="cls-15" x="38.93" y="43.9" width="9.63" height="2.73" transform="translate(0.63 -0.6) rotate(0.79)"/><rect class="cls-15" x="38.49" y="48.17" width="9.63" height="2.73" transform="translate(0.68 -0.59) rotate(0.79)"/></g><path class="cls-10" d="M49.63,42.93c1.4,1.12,2.06,2.62,1.47,3.36s-2.2.42-3.6-.7a7.83,7.83,0,0,1-3-4.6A8.87,8.87,0,0,1,49.63,42.93Z"/><path class="cls-11" d="M51.16,38.91c2.28,0,4.12,1,4.1,2.23s-1.88,2.15-4.16,2.11A10,10,0,0,1,44.48,41,11.28,11.28,0,0,1,51.16,38.91Z"/><path class="cls-10" d="M37.89,42.77c-1.43,1.08-2.13,2.56-1.56,3.31s2.19.49,3.62-.59A7.87,7.87,0,0,0,43.09,41,8.82,8.82,0,0,0,37.89,42.77Z"/><path class="cls-11" d="M36.47,38.71c-2.28,0-4.15.92-4.16,2.11s1.82,2.2,4.1,2.23A10,10,0,0,0,43.09,41,11.29,11.29,0,0,0,36.47,38.71Z"/><path class="cls-17" d="M43.3,36.34v-.46a2.28,2.28,0,0,0-2.24-2.29h-.46"/><circle class="cls-15" cx="40.55" cy="33.62" r="0.49"/><path class="cls-17" d="M44.4,36.31v-.46a2.25,2.25,0,0,1,2.29-2.23h.46"/><circle class="cls-15" cx="47.23" cy="33.63" r="0.49"/><path class="cls-18" d="M68.13,56.57l.8-.2a1,1,0,0,1,1.26.73l1.12,3.51.35,1,.27-7.69a1,1,0,0,1,.33-.79,1,1,0,0,1,.75-.34l.17,0,.74,0a1.06,1.06,0,0,1,1.09,1l.66,8.94,1-9.17a1.09,1.09,0,0,1,1.16-1.05l.94.05a1.08,1.08,0,0,1,1,1.16l0,6.67L79.86,62l2.26-6.27a1,1,0,0,1,1-.76,1.28,1.28,0,0,1,.47,0l0,0,.73.17a1.07,1.07,0,0,1,.72,1.38L82.4,67.68v.59L87.21,66a1.08,1.08,0,0,1,1.54.11l.22.25.41.45a1.08,1.08,0,0,1-.11,1.54l-7,7-.18,13.15c0,.71-1.42,1.59-2.17,1.51l-10.34-.47c-.71,0-2-.77-2-1.52l1.91-17L67.36,57.87a1.05,1.05,0,0,1,.38-1.1A.91.91,0,0,1,68.13,56.57Z"/><path class="cls-19" d="M98.1,78.05l-.39-.73a1,1,0,0,0-1.39-.44L93,78.4l-1,.39,5.52-5.37a1.06,1.06,0,0,0,.36-.77,1,1,0,0,0-.25-.78l-.14-.11L97,71.2a1.05,1.05,0,0,0-1.5-.11L88.47,76.6l6.12-6.91a1.08,1.08,0,0,0,0-1.55l-.67-.67a1.07,1.07,0,0,0-1.56,0L87.43,72,86.17,73l3.13-5.89a1,1,0,0,0-.1-1.24,1.3,1.3,0,0,0-.34-.32l-.06,0-.61-.42a1.07,1.07,0,0,0-1.51.39l-6.4,9.41-.44.39L78.33,70.2a1.07,1.07,0,0,0-1.11-1.06h-1a1.06,1.06,0,0,0-1,1.11l-.51,9.91-9.63,9c-.5.5-.22,2.12.34,2.62l7.29,7.35c.5.5,2,1,2.45.44L86.52,86.67l11.13-7.18a1.1,1.1,0,0,0,.45-1.44Z"/><rect class="cls-6" x="42.45" y="73.36" width="25.47" height="1.64" transform="translate(129.37 19) rotate(90)"/><circle class="cls-6" cx="55.19" cy="87.97" r="2.56"/><rect class="cls-6" x="52.28" y="61.45" width="5.82" height="1.59" rx="0.79" ry="0.79"/><rect class="cls-6" x="50.69" y="63.62" width="9" height="1.59" rx="0.79" ry="0.79"/><rect class="cls-6" x="52.28" y="70.14" width="5.82" height="1.59" rx="0.79" ry="0.79" transform="translate(110.37 141.88) rotate(-180)"/><rect class="cls-6" x="50.69" y="67.97" width="9" height="1.59" rx="0.79" ry="0.79" transform="translate(110.37 137.53) rotate(-180)"/><rect class="cls-6" x="49.65" y="65.8" width="11.07" height="1.59" rx="0.79" ry="0.79"/></svg>