<svg id="Layer_1" data-name="Layer 1" xmlns="http://www.w3.org/2000/svg" viewBox="0 0 100 100"><defs><style>.cls-1{fill:#583936;}.cls-2{fill:#a9ccdd;}.cls-3{fill:#028a6d;}.cls-4{fill:#91775a;}.cls-5{fill:#bf9b77;}.cls-6,.cls-7{fill:none;stroke:#583936;stroke-miterlimit:10;stroke-width:1.08px;}.cls-6{stroke-linecap:round;}</style></defs><title>ant farm</title><rect class="cls-1" x="3.95" y="18.66" width="92.1" height="66.17"/><rect class="cls-1" y="15.17" width="100" height="4.49"/><rect class="cls-2" x="7.72" y="19.66" width="84.56" height="17.77"/><path class="cls-3" d="M48.92,38.43s-.4-9-3.41-10.19c0,0,5.21.72,5.84,10.19Z"/><path class="cls-3" d="M53.1,38.43s.4-9,3.41-10.19c0,0-5.21.72-5.84,10.19Z"/><path class="cls-3" d="M49.73,38.43s-1.21-9.15,1.84-13.64c0,0-1,10.59.4,13.64Z"/><polygon class="cls-4" points="9.52 37.43 11.49 33.75 15.35 32.77 17.43 28.55 22.71 27.38 27.47 22.35 31.87 24.95 37.07 31.51 42.28 33.84 45.51 37.43 27.75 38.43 9.52 37.43"/><polygon class="cls-4" points="59.34 37.43 62.39 34.29 66.43 33.39 69.66 28.55 76.8 24.73 84.07 28.55 86 34.02 89.5 35.55 91.2 37.43 75.67 38.43 59.34 37.43"/><rect class="cls-5" x="7.72" y="37.43" width="84.56" height="43.27"/><rect class="cls-1" x="10.32" y="69.12" width="16.7" height="5.21" rx="2.6" ry="2.6"/><rect class="cls-1" x="72.17" y="72.8" width="16.7" height="5.21" rx="2.6" ry="2.6"/><rect class="cls-1" x="27.83" y="61.22" width="12.12" height="4.58" rx="2.29" ry="2.29"/><rect class="cls-1" x="21.77" y="54.22" width="12.12" height="4.58" rx="2.29" ry="2.29"/><rect class="cls-1" x="10.32" y="58.22" width="9.07" height="7.03" rx="3.51" ry="3.51"/><rect class="cls-1" x="57.27" y="55.93" width="12.12" height="4.58" rx="2.29" ry="2.29"/><rect class="cls-1" x="50.45" y="49.24" width="12.12" height="4.58" rx="2.29" ry="2.29"/><rect class="cls-1" x="62.93" y="39.68" width="12.12" height="4.58" rx="2.29" ry="2.29"/><rect class="cls-1" x="68.99" y="46.41" width="19.88" height="5.39" rx="2.69" ry="2.69"/><rect class="cls-1" x="42.37" y="40.26" width="12.12" height="4.58" rx="2.29" ry="2.29"/><rect class="cls-1" x="10.32" y="46.41" width="16.07" height="5.39" rx="2.69" ry="2.69"/><rect class="cls-1" x="33.89" y="71.36" width="22.42" height="6.82" rx="3.41" ry="3.41"/><rect class="cls-1" x="75.27" y="57.54" width="13.6" height="7.36" rx="3.68" ry="3.68"/><polyline class="cls-6" points="21.4 38.61 23.79 42.37 36.18 47.4 45.51 59.96 62.93 66.43 65.89 72.8 75.27 75.58"/><polyline class="cls-7" points="78.93 63.09 69.17 67.46 62.93 66.43"/><line class="cls-7" x1="53.59" y1="75.94" x2="65.89" y2="72.8"/><polyline class="cls-7" points="45.51 59.96 42.1 63.51 37.88 63.51"/><path class="cls-7" d="M26.39,71.77s4.76.13,5,0,5.74-3.28,5.74-3.28l12.33-1,4.43-4.41"/><polyline class="cls-7" points="32.14 56.51 37.52 56.51 40.41 53.1"/><line class="cls-7" x1="29.44" y1="63.82" x2="16.79" y2="62.57"/><line class="cls-7" x1="13.29" y1="63.51" x2="15.98" y2="69.93"/><path class="cls-7" d="M16,60a36.38,36.38,0,0,0,8.71-3.14"/><polyline class="cls-7" points="19.39 49.82 13.29 54.53 14 59.07"/><polyline class="cls-7" points="17.5 72.26 20.33 77.56 36.72 74.91"/><polyline class="cls-7" points="35.51 47.13 31.15 49.1 23.11 49.1"/><line class="cls-7" x1="29.44" y1="44.66" x2="44.25" y2="42.55"/><polyline class="cls-7" points="38.18 50.09 45.1 52.24 54.4 51.8"/><polyline class="cls-7" points="45.32 59.96 52.51 58.39 60.32 58.22"/><polyline class="cls-7" points="74.78 50.09 72.17 54.44 67.59 58.22 78.01 59.96"/><polyline class="cls-7" points="71.36 49.1 66.25 51.17 60.32 51.17"/><polyline class="cls-7" points="49.49 42.55 56.51 50.54 62.57 57.54"/><polyline class="cls-7" points="51.42 41.97 60.32 44.26 65.17 41.97 71.36 41.97 78.93 48.12 85.55 49.24 82.07 59.96 81.33 75.4"/><line class="cls-7" x1="49.49" y1="67.5" x2="45.96" y2="73.16"/></svg>