<svg id="Layer_1" data-name="Layer 1" xmlns="http://www.w3.org/2000/svg" viewBox="0 0 100 100"><defs><style>.cls-1{fill:#bd976d;}.cls-2{fill:#fcc991;}.cls-3{fill:#714c48;}.cls-4{fill:#fff;}</style></defs><title>canvas</title><rect class="cls-1" y="48.03" width="100" height="3.93" rx="1.97" ry="1.97" transform="translate(100 0) rotate(90)"/><path class="cls-2" d="M46,6.63h8A2.88,2.88,0,0,1,56.88,9.5V12a0,0,0,0,1,0,0H43.13a0,0,0,0,1,0,0V9.5A2.88,2.88,0,0,1,46,6.63Z"/><rect class="cls-2" x="19.56" y="82.57" width="31.2" height="3.93" rx="1.97" ry="1.97" transform="translate(125.71 70.96) rotate(104.06)"/><rect class="cls-2" x="49.23" y="82.57" width="31.2" height="3.93" rx="1.97" ry="1.97" transform="translate(131.1 1.11) rotate(75.94)"/><rect class="cls-3" x="27.02" y="11.02" width="45.97" height="58.92"/><rect class="cls-4" x="30.11" y="14.92" width="39.79" height="50.13"/><rect class="cls-2" x="24.56" y="68.94" width="50.87" height="3.93"/></svg>