<svg id="Layer_1" data-name="Layer 1" xmlns="http://www.w3.org/2000/svg" xmlns:xlink="http://www.w3.org/1999/xlink" viewBox="0 0 100 100"><defs><style>.cls-1{fill:none;}.cls-2{fill:#d0d2d3;}.cls-3{fill:#e0e0e0;}.cls-4{fill:#7d7d7d;}.cls-5{fill:#58595b;}.cls-6{fill:#3ab599;}.cls-7{fill:#61c4ad;}.cls-8{fill:#6ab8d9;}.cls-9{fill:#9dc8dc;}.cls-10{fill:#d2d1d6;}.cls-11{fill:#f05c38;}.cls-12{fill:#f69a85;}.cls-13{fill:#5596b2;}.cls-14{fill:#9a85b0;}.cls-15{fill:#fcc991;}.cls-16{fill:#bf9b77;}.cls-17{fill:#b3b3b3;}.cls-18{fill:#bd976d;}.cls-19{fill:#714c48;}.cls-20{fill:#b2e2f9;}.cls-21{fill:#ffc63f;}.cls-22{clip-path:url(#clip-path);}.cls-23{fill:#685c5a;}.cls-24{fill:#059072;}.cls-25{fill:#00795e;}</style><clipPath id="clip-path"><rect class="cls-1" x="6.98" y="14.92" width="39.79" height="50.13"/></clipPath></defs><title>painter</title><path class="cls-2" d="M57.81,58.12v4a.34.34,0,0,0,.34.33h1.34a.33.33,0,0,0,.33-.33v-4a.34.34,0,0,0-.33-.34H58.15A.34.34,0,0,0,57.81,58.12Z"/><path class="cls-3" d="M74.22,55.1,60.07,56.39a1,1,0,0,0-.92,1v5.49a1,1,0,0,0,.92,1l14.15,1.28a.35.35,0,0,0,.26-.08.36.36,0,0,0,.11-.25V55.44a.34.34,0,0,0-.37-.34Z"/><polygon class="cls-4" points="70.22 64.8 70.22 55.47 63.47 56.08 63.47 64.19 70.22 64.8"/><path class="cls-2" d="M74.22,64.16l-4-.37v1l4,.36a.35.35,0,0,0,.26-.08.36.36,0,0,0,.11-.25v-1a.33.33,0,0,1-.11.25A.36.36,0,0,1,74.22,64.16Z"/><path class="cls-2" d="M60.07,62.87a1,1,0,0,1-.92-1v1a1,1,0,0,0,.92,1l3.4.31v-1Z"/><polygon class="cls-5" points="63.47 63.18 63.47 64.19 70.22 64.8 70.22 63.79 63.47 63.18"/><path class="cls-6" d="M73.91,54.76V65.5a.34.34,0,0,0,.34.34h1.34a.34.34,0,0,0,.34-.34V54.76a.34.34,0,0,0-.34-.33H74.25A.34.34,0,0,0,73.91,54.76Z"/><path class="cls-6" d="M54.46,57.11v6a.34.34,0,0,0,.33.34h3.36a.34.34,0,0,0,.33-.34v-6a.33.33,0,0,0-.33-.33H54.79A.33.33,0,0,0,54.46,57.11Z"/><path class="cls-7" d="M57.47,60.13a.34.34,0,0,1-.33.34H55.8a.34.34,0,1,1,0-.67h1.34A.33.33,0,0,1,57.47,60.13Z"/><path class="cls-7" d="M57.47,58.46a.33.33,0,0,1-.33.33H55.8a.34.34,0,1,1,0-.67h1.34A.34.34,0,0,1,57.47,58.46Z"/><path class="cls-7" d="M57.47,61.81a.34.34,0,0,1-.33.34H55.8a.34.34,0,0,1-.34-.34.34.34,0,0,1,.34-.34h1.34A.34.34,0,0,1,57.47,61.81Z"/><path class="cls-6" d="M64.62,59.89a.35.35,0,0,0-.1.24.39.39,0,0,0,.1.25c.19.18,1.89,1.77,2.92,1.77a2,2,0,0,0,0-4C66.51,58.12,64.81,59.71,64.62,59.89Z"/><path class="cls-2" d="M57.81,31.74v4a.34.34,0,0,0,.34.34h1.34a.34.34,0,0,0,.33-.34v-4a.33.33,0,0,0-.33-.33H58.15A.34.34,0,0,0,57.81,31.74Z"/><path class="cls-3" d="M74.22,28.73,60.07,30a1,1,0,0,0-.92,1V36.5a1,1,0,0,0,.92,1l14.15,1.29a.34.34,0,0,0,.37-.34V29.06a.36.36,0,0,0-.11-.25A.35.35,0,0,0,74.22,28.73Z"/><polygon class="cls-4" points="70.22 38.43 70.22 29.09 63.47 29.7 63.47 37.81 70.22 38.43"/><path class="cls-2" d="M74.22,37.78l-4-.36v1l4,.36a.34.34,0,0,0,.37-.34v-1a.36.36,0,0,1-.11.25A.35.35,0,0,1,74.22,37.78Z"/><path class="cls-2" d="M60.07,36.5a1,1,0,0,1-.92-1v1a1,1,0,0,0,.92,1l3.4.31v-1Z"/><polygon class="cls-5" points="63.47 36.81 63.47 37.81 70.22 38.43 70.22 37.42 63.47 36.81"/><path class="cls-8" d="M73.91,28.39V39.13a.34.34,0,0,0,.34.33h1.34a.34.34,0,0,0,.34-.33V28.39a.34.34,0,0,0-.34-.34H74.25A.34.34,0,0,0,73.91,28.39Z"/><path class="cls-8" d="M54.46,30.74v6a.33.33,0,0,0,.33.33h3.36a.33.33,0,0,0,.33-.33v-6a.34.34,0,0,0-.33-.34H54.79A.34.34,0,0,0,54.46,30.74Z"/><path class="cls-9" d="M57.47,33.76a.33.33,0,0,1-.33.33H55.8a.34.34,0,1,1,0-.67h1.34A.34.34,0,0,1,57.47,33.76Z"/><path class="cls-9" d="M57.47,32.08a.34.34,0,0,1-.33.34H55.8a.34.34,0,0,1-.34-.34.34.34,0,0,1,.34-.34h1.34A.34.34,0,0,1,57.47,32.08Z"/><path class="cls-9" d="M57.47,35.44a.33.33,0,0,1-.33.33H55.8a.34.34,0,1,1,0-.67h1.34A.34.34,0,0,1,57.47,35.44Z"/><path class="cls-8" d="M64.62,33.52a.34.34,0,0,0,0,.48c.19.18,1.89,1.77,2.92,1.77a2,2,0,0,0,0-4C66.51,31.74,64.81,33.33,64.62,33.52Z"/><path class="cls-2" d="M72.57,45.05v4a.34.34,0,0,1-.33.34H70.9a.34.34,0,0,1-.34-.34v-4a.34.34,0,0,1,.34-.33h1.34A.33.33,0,0,1,72.57,45.05Z"/><path class="cls-3" d="M56.16,42l14.16,1.28a1,1,0,0,1,.91,1v5.48a1,1,0,0,1-.91,1L56.16,52.1a.3.3,0,0,1-.25-.09.33.33,0,0,1-.11-.25V42.37a.36.36,0,0,1,.11-.25A.33.33,0,0,1,56.16,42Z"/><path class="cls-2" d="M57.51,51.09a.34.34,0,0,1-.26-.08.36.36,0,0,1-.11-.25V42.13l-1-.09a.33.33,0,0,0-.25.08.36.36,0,0,0-.11.25v9.39a.33.33,0,0,0,.11.25.3.3,0,0,0,.25.09l14.16-1.29a1,1,0,0,0,.91-1Z"/><polygon class="cls-4" points="60.16 51.74 60.16 42.4 66.91 43.01 66.91 51.12 60.16 51.74"/><path class="cls-10" d="M70.32,49.81a1,1,0,0,0,.91-1v1a1,1,0,0,1-.91,1l-3.41.31v-1Z"/><polygon class="cls-5" points="66.91 50.12 66.91 51.12 60.16 51.74 60.16 50.85 66.91 50.12"/><path class="cls-11" d="M56.47,41.7V52.44a.34.34,0,0,1-.34.33H54.79a.33.33,0,0,1-.33-.33V41.7a.34.34,0,0,1,.33-.34h1.34A.34.34,0,0,1,56.47,41.7Z"/><path class="cls-11" d="M75.93,44.05v6a.34.34,0,0,1-.34.33H72.24a.34.34,0,0,1-.34-.33v-6a.34.34,0,0,1,.34-.34h3.35A.34.34,0,0,1,75.93,44.05Z"/><path class="cls-12" d="M74.92,47.07a.33.33,0,0,1-.33.33H73.24a.34.34,0,0,1,0-.67h1.35A.34.34,0,0,1,74.92,47.07Z"/><path class="cls-12" d="M74.92,45.39a.34.34,0,0,1-.33.34H73.24a.34.34,0,0,1,0-.68h1.35A.34.34,0,0,1,74.92,45.39Z"/><path class="cls-12" d="M74.92,48.75a.33.33,0,0,1-.33.33H73.24a.34.34,0,0,1,0-.67h1.35A.34.34,0,0,1,74.92,48.75Z"/><path class="cls-11" d="M65.76,46.83a.34.34,0,0,1,0,.48c-.19.18-1.89,1.77-2.92,1.77a2,2,0,0,1,0-4C63.87,45.05,65.57,46.64,65.76,46.83Z"/><circle class="cls-11" cx="74.35" cy="88.75" r="3.5"/><circle class="cls-13" cx="82.1" cy="92.25" r="3.5"/><circle class="cls-6" cx="89.9" cy="87.87" r="3.5"/><circle class="cls-14" cx="91.9" cy="79.69" r="3.5"/><path class="cls-15" d="M98.56,82c0-.41,0-.82,0-1.23-.36-4.82-2.42-9.61-6.7-12.19a6.86,6.86,0,0,0-9.39,1.66,7.87,7.87,0,0,0-1.35,2.56c-.32,1.06-.1,2.18-.43,3.21-.69,2.18-3,2-4.47.75-3.52-3.39-9.61-1.26-11.2,3-1.44,3.84.45,8.93,2.68,12.09A17,17,0,0,0,98.56,82ZM72.16,91a2.48,2.48,0,1,1,3.49-.26,2.48,2.48,0,0,1-3.49.26ZM90,78a2.48,2.48,0,1,1,.27,3.49A2.49,2.49,0,0,1,90,78ZM80.65,94.37a2.48,2.48,0,1,1,3.5-.27,2.48,2.48,0,0,1-3.5.27Zm7.85-4.15A2.47,2.47,0,1,1,92,90a2.47,2.47,0,0,1-3.5.26Zm0,0"/><path class="cls-16" d="M78.49,31.56l2.28,5.82,1.31,1,1.36-1,2.28-5.89a.5.5,0,0,0-.47-.67H79A.49.49,0,0,0,78.49,31.56Z"/><path class="cls-11" d="M74.66,49.92H90.88a0,0,0,0,1,0,0v2.67a0,0,0,0,1,0,0H74.66a1.33,1.33,0,0,1-1.33-1.33v0A1.33,1.33,0,0,1,74.66,49.92Z" transform="translate(30.85 133.35) rotate(-90)"/><rect class="cls-17" x="80.77" y="37.38" width="2.67" height="5.74"/><rect class="cls-17" x="88.22" y="40.98" width="2.04" height="5.74"/><path class="cls-11" d="M83.53,52.28H96a0,0,0,0,1,0,0v2a0,0,0,0,1,0,0H83.53a1,1,0,0,1-1-1v0A1,1,0,0,1,83.53,52.28Z" transform="translate(35.93 142.54) rotate(-90)"/><path class="cls-16" d="M89.24,41.32h0a2,2,0,0,0,1.85-2.73l-1.59-4a.29.29,0,0,0-.53,0l-1.59,4A2,2,0,0,0,89.24,41.32Z"/><rect class="cls-17" x="95.35" y="36.15" width="2.04" height="7.19"/><path class="cls-11" d="M89,50.58H104.8a0,0,0,0,1,0,0v2a0,0,0,0,1,0,0H89a1,1,0,0,1-1-1v0A1,1,0,0,1,89,50.58Z" transform="translate(44.77 147.97) rotate(-90)"/><path class="cls-16" d="M96.37,37h0c.93,0,1.57-1.17,1.23-2.24l-1-3.28a.18.18,0,0,0-.35,0l-1.06,3.28C94.8,35.79,95.44,37,96.37,37Z"/><rect x="86.02" y="2.51" width="1.23" height="2.92" rx="0.62" ry="0.62" transform="translate(10.6 -37.74) rotate(26.12)"/><rect x="61.95" y="18.51" width="27.02" height="2.16"/><path d="M91.36,19.51H61.92C53.28,8.32,67.56-.32,77.24,1.63c2.88.58,8.18,3.43,11.07,3.93,14.39,2.47,12.78,12.37.49,14Z"/><rect class="cls-18" x="-23.13" y="48.03" width="100" height="3.93" rx="1.97" ry="1.97" transform="translate(76.87 23.13) rotate(90)"/><path class="cls-15" d="M22.87,6.63h8A2.88,2.88,0,0,1,33.75,9.5V12a0,0,0,0,1,0,0H20a0,0,0,0,1,0,0V9.5A2.88,2.88,0,0,1,22.87,6.63Z"/><rect class="cls-15" x="-3.56" y="82.57" width="31.2" height="3.93" rx="1.97" ry="1.97" transform="translate(96.97 93.39) rotate(104.06)"/><rect class="cls-15" x="26.11" y="82.57" width="31.2" height="3.93" rx="1.97" ry="1.97" transform="translate(113.59 23.54) rotate(75.94)"/><rect class="cls-19" x="3.89" y="11.02" width="45.97" height="58.92"/><rect class="cls-20" x="6.98" y="14.92" width="39.79" height="50.13"/><circle class="cls-21" cx="39.22" cy="24.59" r="3.22"/><g class="cls-22"><path class="cls-6" d="M54.36,37.53a65,65,0,0,1-16.55-.73c-7.91-1.58-17-10.1-27.74-10.58s-20.69,8.93-20.69,8.93l6.82,24,44.29,1.7s23.24,1.46,23.24.85S54.36,37.53,54.36,37.53Z"/><rect class="cls-23" x="14.5" y="44.68" width="0.55" height="3.63"/><ellipse class="cls-24" cx="14.8" cy="40.37" rx="1.98" ry="5.41"/><rect class="cls-23" x="20.41" y="43.47" width="0.55" height="3.63"/><ellipse class="cls-24" cx="20.71" cy="39.15" rx="1.98" ry="5.41"/><rect class="cls-23" x="26.28" y="40.42" width="0.55" height="3.63"/><ellipse class="cls-24" cx="26.58" cy="36.11" rx="1.98" ry="5.41"/><path class="cls-24" d="M.23,48.26a64.91,64.91,0,0,0,16.54-.73c7.91-1.58,17-10.1,27.75-10.59S65.2,45.88,65.2,45.88l-6.81,24L14.1,71.62s-23.24,1.46-23.24.85S.23,48.26.23,48.26Z"/><path class="cls-25" d="M-.32,56.61a64.47,64.47,0,0,0,16.55-.73C24.14,54.3,33.26,45.79,44,45.3s20.68,8.93,20.68,8.93l-6.81,24L13.55,80s-23.24,1.46-23.24.85S-.32,56.61-.32,56.61Z"/></g><rect class="cls-15" x="1.44" y="68.94" width="50.88" height="3.93"/></svg>