<svg id="Layer_1" data-name="Layer 1" xmlns="http://www.w3.org/2000/svg" viewBox="0 0 100 100"><defs><style>.cls-1{fill:#e19537;}.cls-2{fill:#e8a242;}.cls-3{fill:#6ab8d9;}.cls-4{fill:#ffdb91;}</style></defs><title>peanut butter</title><rect class="cls-1" x="23.8" y="14.06" width="52.41" height="9.24"/><rect class="cls-2" x="12.18" y="19.68" width="75.64" height="80.32" rx="11.72" ry="11.72"/><rect class="cls-3" x="18.67" width="62.65" height="14.06" rx="2.03" ry="2.03"/><rect class="cls-4" x="18.67" y="40.36" width="62.65" height="41.57" rx="6.02" ry="6.02"/><path class="cls-2" d="M52.46,65.56a3.94,3.94,0,0,1,2.72-4.42,11.74,11.74,0,0,0,4.66-2.82c3.77-3.67,4.57-9,1.78-11.84s-8.12-2.22-11.89,1.46a10.8,10.8,0,0,0-3.43,7.14,4,4,0,0,1-3.41,3.67,9.32,9.32,0,0,0-5.23,2.59,8.66,8.66,0,1,0,12.06,12.4A9.28,9.28,0,0,0,52.46,65.56Z"/><path class="cls-2" d="M72.66,48.34a1.49,1.49,0,0,1-1.48,1.49h-.39a1.49,1.49,0,1,1,0-3h.39A1.48,1.48,0,0,1,72.66,48.34Z"/><path class="cls-2" d="M30.11,50.48h-.39a1.49,1.49,0,1,0,0,3h.39a1.49,1.49,0,0,0,0-3Z"/><path class="cls-2" d="M61,75.56a1.49,1.49,0,0,1-1.49,1.49h-.39a1.49,1.49,0,0,1,0-3h.39A1.49,1.49,0,0,1,61,75.56Z"/></svg>