<svg id="Layer_1" data-name="Layer 1" xmlns="http://www.w3.org/2000/svg" viewBox="0 0 100 100"><defs><style>.cls-1{fill:#bdbfc1;}.cls-2{fill:#3e3e3f;}.cls-3{fill:#f48d80;}.cls-4{fill:#fff;}.cls-5{fill:#c5c7c9;}.cls-6{fill:#ffc640;}.cls-7{fill:#fcca98;}.cls-8{fill:#e1b589;}.cls-9{fill:#231f20;}</style></defs><title>cow</title><path class="cls-1" d="M3.77,68.75h-2C1.76,51.48,3.44,41,6.61,38.32a2.2,2.2,0,0,1,1.74-.6L8,39.7a.62.62,0,0,0,.18,0C8.11,39.72,3.77,41,3.77,68.75Z"/><path class="cls-2" d="M5.53,69.56c0,1.53-1.24,7.16-2.77,7.16S0,71.09,0,69.56a2.77,2.77,0,0,1,5.53,0Z"/><path class="cls-1" d="M28.2,77.25a2.35,2.35,0,1,0-4.7,0v10h4.7Z"/><path class="cls-2" d="M23.5,87.28v.35a2.35,2.35,0,0,0,4.7,0v-.35Z"/><path class="cls-1" d="M68.23,77.25a2.35,2.35,0,0,0-4.7,0v10h4.7Z"/><path class="cls-2" d="M63.53,87.28v.35a2.35,2.35,0,0,0,4.7,0v-.35Z"/><rect class="cls-3" x="28.72" y="76.11" width="14.87" height="8.28" rx="2.06" ry="2.06"/><rect class="cls-3" x="30.88" y="82.75" width="2.25" height="3.39" rx="0.56" ry="0.56"/><rect class="cls-3" x="33.65" y="82.75" width="2.25" height="3.39" rx="0.56" ry="0.56"/><rect class="cls-3" x="36.41" y="82.75" width="2.25" height="3.39" rx="0.56" ry="0.56"/><rect class="cls-3" x="39.18" y="82.75" width="2.25" height="3.39" rx="0.56" ry="0.56"/><rect class="cls-4" x="5.99" y="27.63" width="70.55" height="52.27" rx="7.31" ry="7.31"/><path class="cls-2" d="M24.9,36.33c-3.54,2.4-6.82,1.76-7.37,3.76-.5,1.82,2.16,2.69,2.31,5.49.23,4-4.64,6-3.9,8.39.53,1.73,3.74,3.06,6.36,2.46,4.3-1,4.36-6.57,10.27-9.84,1.79-1,3-.33,4.48-1.59,1.73-1.48,3.06-4.41,2.17-6.65-1-2.63-4.2-1.94-6.07-5.06-1.59-2.65-.58-5.25-1.45-5.49C30.46,27.46,29.66,33.12,24.9,36.33Z"/><path class="cls-2" d="M45.16,57.85c-1.45.84-4-3.43-6.91-2.76-1.57.36-3,2.13-2.76,3.39.45,2.22,5.92,1.46,7.66,4.9.84,1.67,0,2.72,1,3.65,1.49,1.38,5,.56,7.16-1.26a7.47,7.47,0,0,0,2.51-7.29c-.67-2.32-2.69-3-2.38-4.52.34-1.71,3-1.86,3-2.89-.05-1.29-4.36-3.07-6.53-1.51-1,.68-1.25,1.82-1.76,3.77C45.38,56.3,45.88,57.44,45.16,57.85Z"/><path class="cls-2" d="M14,60.58c2.32-2.23,4-3.75,5.4-3.27s2.16,2.54,2.39,3.14c.55,1.44.19,1.84.75,2.51,1.07,1.28,2.82.36,3.9,1.51a3.27,3.27,0,0,1,.13,3.9c-.92,1.12-2.32.41-5.53,1.13-2.95.66-2.94,1.52-4.78,1.63C13.37,71.31,9.7,69.49,9.3,67,9,65.28,10.67,63.71,14,60.58Z"/><path class="cls-2" d="M12.57,35.07c2.27.44,4.68-1,5.65-1.51,1.46-.84,1.33-1.19,2.39-1.63,2.16-.91,4,0,6.41.37,2.58.42,6.37,1,7.41-.5.7-1,0-2.69-.8-4.17H20.69A14.67,14.67,0,0,0,9.36,33,5.61,5.61,0,0,0,12.57,35.07Z"/><path class="cls-2" d="M61.84,27.63H49.42A3.42,3.42,0,0,1,49,30c-.95,1.41-2.61,1.19-3.1,2.6s.48,3.07,1.59,4c1.76,1.51,2.27,3,3.81,4.38,1.18,1.05-7.66,3.53-7.1,6.22C44.54,49,54.48,46,55,46.63a4.79,4.79,0,0,0,4.94.92c1.12-.4,1.25,2.64,2,2.6,1.66-.1,3.25-1.42,4,.58.58,1.5-2.2,3.6-1.61,4,1.09.79,5,16,7.49,15,1.57-.61,3.45-19.09,4.68-19.07V42.32A14.73,14.73,0,0,0,61.84,27.63Z"/><path class="cls-4" d="M80.55,20.11a2.1,2.1,0,0,0,2.09,2.1c1.16,0,4.6-.94,4.6-2.1S83.8,18,82.64,18A2.1,2.1,0,0,0,80.55,20.11Z"/><path class="cls-5" d="M80.65,20.11A1.37,1.37,0,0,0,82,21.48c.76,0,3-.62,3-1.37s-2.23-1.36-3-1.36A1.36,1.36,0,0,0,80.65,20.11Z"/><rect class="cls-4" x="54.46" y="23.09" width="39.78" height="22.15" rx="5.51" ry="5.51"/><path class="cls-6" d="M81.14,14.27c0,.07.32.16.51.2a2.8,2.8,0,0,0,.71,0,2.69,2.69,0,0,0,1.45-.72A5.48,5.48,0,0,0,85,12.12,12.68,12.68,0,0,0,85.7,10a13.31,13.31,0,0,1,.22,2.31,6.91,6.91,0,0,1-.49,2.47,5.13,5.13,0,0,1-1.78,2.27,5.36,5.36,0,0,1-3.1,1,1.93,1.93,0,0,1,.59-3.82Z"/><rect class="cls-4" x="60.88" y="12.95" width="22.71" height="17.72" rx="2.88" ry="2.88"/><path class="cls-7" d="M98.42,32.81a11,11,0,1,1-22.07,0c0-6.09,4.94-7,11-7S98.42,26.72,98.42,32.81Z"/><rect class="cls-8" x="75.66" y="32.17" width="24.34" height="2.9" rx="0.72" ry="0.72"/><rect class="cls-8" x="75.66" y="35.07" width="24.34" height="2.9" rx="0.72" ry="0.72"/><circle class="cls-7" cx="94.25" cy="27.12" r="3.11"/><ellipse class="cls-8" cx="95.66" cy="27.12" rx="1.34" ry="2.04"/><circle class="cls-7" cx="86.39" cy="27.12" r="3.11"/><ellipse class="cls-8" cx="86.97" cy="27.12" rx="1.34" ry="2.04"/><path class="cls-4" d="M66,14.06s3.4-1.68,3.48-3.18h3.62v4.88"/><path class="cls-4" d="M78.94,14.06s-3.4-1.68-3.47-3.18H71.85v4.88"/><path class="cls-6" d="M61.63,18.09a5.42,5.42,0,0,1-3.11-1,5.11,5.11,0,0,1-1.77-2.27,6.91,6.91,0,0,1-.49-2.47A13.31,13.31,0,0,1,56.48,10a12.68,12.68,0,0,0,.73,2.1,5.48,5.48,0,0,0,1.16,1.64,2.66,2.66,0,0,0,1.45.72,2.81,2.81,0,0,0,.71,0c.19,0,.54-.13.51-.2a1.93,1.93,0,0,1,.59,3.82Z"/><path class="cls-4" d="M62,20.11a2.1,2.1,0,0,1-2.1,2.1c-1.15,0-4.59-.94-4.59-2.1S58.74,18,59.89,18A2.1,2.1,0,0,1,62,20.11Z"/><path class="cls-5" d="M61.89,20.11a1.37,1.37,0,0,1-1.37,1.37c-.75,0-3-.62-3-1.37s2.23-1.36,3-1.36A1.36,1.36,0,0,1,61.89,20.11Z"/><path class="cls-4" d="M18.21,77.25a2.35,2.35,0,0,0-4.7,0v10h4.7Z"/><path class="cls-2" d="M13.51,87.28v.35a2.35,2.35,0,0,0,4.7,0v-.35Z"/><path class="cls-4" d="M58.24,77.25a2.35,2.35,0,0,0-4.7,0v10h4.7Z"/><path class="cls-2" d="M53.54,87.28v.35a2.35,2.35,0,1,0,4.7,0v-.35Z"/><path class="cls-4" d="M78.83,44c0,.84-3.13,15.91-7,15.91s-7-15.07-7-15.91,3.13-1.51,7-1.51S78.83,43.2,78.83,44Z"/><path class="cls-2" d="M70.81,21.81c0,2.43-3,8.7-5.45,8.7S62,24.24,62,21.81a4.41,4.41,0,1,1,8.82,0Z"/><circle class="cls-4" cx="66.07" cy="21.25" r="2.2"/><circle class="cls-9" cx="65.99" cy="20.86" r="1.03"/></svg>