<svg id="Layer_1" data-name="Layer 1" xmlns="http://www.w3.org/2000/svg" viewBox="0 0 100 100"><defs><style>.cls-1{fill:#bcd2de;}.cls-2{fill:#fff;}.cls-3{fill:#6ab8d9;}.cls-4{fill:#fffacd;}</style></defs><title>milk</title><path class="cls-1" d="M40.06,16.43H59.94A10.06,10.06,0,0,1,70,26.49V93.34A6.66,6.66,0,0,1,63.34,100H40.06A10.06,10.06,0,0,1,30,89.94V26.49A10.06,10.06,0,0,1,40.06,16.43Z"/><path class="cls-2" d="M33.33,53.54V84.81c0,9.2,7.53,11.08,16.73,11.08S66.78,94,66.78,84.81V53.54Z"/><rect class="cls-1" x="40.65" y="2.74" width="18.7" height="47.94" rx="4.7" ry="4.7"/><rect class="cls-3" x="38.76" y="5.05" width="22.58" height="5.17" rx="1.3" ry="1.3"/><rect class="cls-3" x="40.62" width="18.88" height="8.73" rx="2.2" ry="2.2"/><ellipse class="cls-4" cx="50.06" cy="53.72" rx="16.73" ry="4.5"/></svg>