<svg id="Layer_1" data-name="Layer 1" xmlns="http://www.w3.org/2000/svg" viewBox="0 0 100 100"><defs><style>.cls-1{fill:#f9a63f;}.cls-2{fill:#f6923d;}.cls-3{fill:#ffc640;}</style></defs><title>cheese</title><path class="cls-1" d="M67.28,14.23,51.74,22.49A5.16,5.16,0,0,1,52,24,5.22,5.22,0,0,1,42.7,27.3L0,50H0V85.77L100,67.88V32.12Z"/><circle class="cls-2" cx="22.7" cy="57.43" r="5.37"/><circle class="cls-2" cx="55.15" cy="41.89" r="5.37"/><path class="cls-2" d="M83.65,48.2A30,30,0,0,0,72.53,59.13,8.09,8.09,0,1,0,83.65,48.2Z"/><path class="cls-2" d="M43.58,69.32a5.14,5.14,0,0,0,2.6.81A5.19,5.19,0,0,0,51,62.5,19.23,19.23,0,0,1,43.58,69.32Z"/><path class="cls-3" d="M100,32.12,67.28,14.23,51.74,22.49A5.16,5.16,0,0,1,52,24,5.22,5.22,0,0,1,42.7,27.3L0,50Z"/><circle class="cls-1" cx="63.21" cy="22.88" r="1.91"/><circle class="cls-1" cx="33.01" cy="36.51" r="1.17"/><circle class="cls-1" cx="87.39" cy="30.06" r="2.05"/><path class="cls-2" d="M49.77,41.1s-8.28-7.38,10.08-1.8"/></svg>