<svg id="Layer_1" data-name="Layer 1" xmlns="http://www.w3.org/2000/svg" viewBox="0 0 100 100"><defs><style>.cls-1{fill:#48484a;}.cls-2{fill:#ffc640;}</style></defs><title>moon</title><rect class="cls-1" x="3.28" y="51.8" width="34.89" height="10.23" rx="2.36" ry="2.36"/><circle class="cls-1" cx="13.84" cy="51.16" r="7.03"/><circle class="cls-1" cx="24.51" cy="51.8" r="4.59"/><rect class="cls-1" x="6.75" y="59.37" width="27.65" height="2.67" rx="0.62" ry="0.62"/><path class="cls-1" d="M9.1,58.56a2.84,2.84,0,0,1-1.34.37,2.9,2.9,0,0,1-1.35-.37,2.85,2.85,0,0,1,1.35-.38A2.78,2.78,0,0,1,9.1,58.56Z"/><path class="cls-1" d="M14.23,58.56a2.63,2.63,0,0,1-2.69,0,2.57,2.57,0,0,1,2.69,0Z"/><path class="cls-1" d="M19.36,58.56a2.9,2.9,0,0,1-1.35.37,2.84,2.84,0,0,1-1.34-.37A2.78,2.78,0,0,1,18,58.18,2.85,2.85,0,0,1,19.36,58.56Z"/><path class="cls-1" d="M24.48,58.56a2.61,2.61,0,0,1-2.68,0,2.55,2.55,0,0,1,2.68,0Z"/><path class="cls-1" d="M29.61,58.56a2.84,2.84,0,0,1-1.34.37,2.9,2.9,0,0,1-1.35-.37,2.85,2.85,0,0,1,1.35-.38A2.78,2.78,0,0,1,29.61,58.56Z"/><path class="cls-1" d="M34.74,58.56a2.63,2.63,0,0,1-2.69,0,2.57,2.57,0,0,1,2.69,0Z"/><path class="cls-1" d="M11.54,60.27a2.78,2.78,0,0,1-1.34.38,2.78,2.78,0,0,1-1.34-.38,2.84,2.84,0,0,1,1.34-.37A2.84,2.84,0,0,1,11.54,60.27Z"/><path class="cls-1" d="M16.67,60.27a2.57,2.57,0,0,1-2.69,0,2.63,2.63,0,0,1,2.69,0Z"/><path class="cls-1" d="M21.8,60.27a2.57,2.57,0,0,1-2.69,0,2.63,2.63,0,0,1,2.69,0Z"/><path class="cls-1" d="M26.92,60.27a2.55,2.55,0,0,1-2.68,0,2.61,2.61,0,0,1,2.68,0Z"/><path class="cls-1" d="M32.05,60.27a2.55,2.55,0,0,1-2.68,0,2.61,2.61,0,0,1,2.68,0Z"/><path class="cls-2" d="M51,3.17a44.89,44.89,0,0,1,7.75,25.29A45.11,45.11,0,0,1,0,71.44,45.09,45.09,0,1,0,51,3.17Z"/><rect class="cls-1" x="49.75" y="82.1" width="50.25" height="14.73" rx="3.41" ry="3.41"/><circle class="cls-1" cx="71.83" cy="80.85" r="13.67"/><circle class="cls-1" cx="85.49" cy="82.1" r="8.93"/><rect class="cls-1" x="26.69" y="89.46" width="46.61" height="7.36" rx="1.7" ry="1.7"/></svg>