<svg id="Layer_1" data-name="Layer 1" xmlns="http://www.w3.org/2000/svg" viewBox="0 0 100 100"><defs><style>.cls-1{fill:#3e3e3f;}.cls-2{fill:#895e59;}.cls-3{fill:#6d4945;}.cls-4{fill:#f37d3b;}.cls-5{fill:#ffc640;}</style></defs><title>volcano</title><circle class="cls-1" cx="43.63" cy="45.04" r="6.06"/><circle class="cls-1" cx="43.8" cy="37.35" r="2.49"/><circle class="cls-1" cx="43.35" cy="30.92" r="2.04"/><circle class="cls-1" cx="36.61" cy="11.66" r="3.69"/><circle class="cls-1" cx="47.64" cy="13.4" r="1.36"/><circle class="cls-1" cx="54.54" cy="11.76" r="1.44"/><circle class="cls-1" cx="63.87" cy="30.42" r="2.54"/><circle class="cls-1" cx="59.49" cy="42.57" r="2.9"/><circle class="cls-1" cx="57.88" cy="46.81" r="2.53"/><circle class="cls-1" cx="54.96" cy="38.82" r="3.42"/><circle class="cls-1" cx="54.66" cy="29.2" r="2.49"/><circle class="cls-1" cx="62.81" cy="35.53" r="1.22"/><circle class="cls-1" cx="71.14" cy="39.16" r="0.68"/><circle class="cls-1" cx="73.63" cy="26.53" r="0.54"/><circle class="cls-1" cx="54.02" cy="27.88" r="4.53"/><circle class="cls-1" cx="32.37" cy="30.98" r="8.1"/><circle class="cls-1" cx="52.7" cy="34.13" r="3.21"/><circle class="cls-1" cx="55.41" cy="44.02" r="3.24"/><circle class="cls-1" cx="60.24" cy="33.52" r="4.32"/><circle class="cls-1" cx="56.83" cy="33.69" r="3.73"/><circle class="cls-1" cx="64.36" cy="12.73" r="2.41"/><circle class="cls-1" cx="58.15" cy="25.62" r="2.81"/><circle class="cls-1" cx="44.16" cy="10.91" r="5.84"/><circle class="cls-1" cx="47.97" cy="1.32" r="1.32"/><circle class="cls-1" cx="53.71" cy="9.69" r="7.06"/><circle class="cls-1" cx="60.24" cy="5.07" r="2.76"/><circle class="cls-1" cx="36.61" cy="38.24" r="3.69"/><circle class="cls-1" cx="47.64" cy="39.99" r="1.36"/><circle class="cls-1" cx="54.54" cy="38.35" r="1.44"/><circle class="cls-1" cx="64.36" cy="39.32" r="2.41"/><circle class="cls-1" cx="44.16" cy="37.5" r="5.84"/><circle class="cls-1" cx="47.97" cy="27.9" r="1.32"/><circle class="cls-1" cx="53.71" cy="36.28" r="7.06"/><circle class="cls-1" cx="52.34" cy="37.35" r="7.06"/><circle class="cls-1" cx="41.31" cy="21.15" r="9.11"/><circle class="cls-1" cx="47.15" cy="27.88" r="9.11"/><circle class="cls-1" cx="60.24" cy="31.66" r="2.76"/><ellipse class="cls-2" cx="50" cy="91.45" rx="41.85" ry="8.55"/><path class="cls-3" d="M70.85,60.94,74.56,58C67.66,49.26,59.18,42.23,50,42.23s-17.8,7.14-24.73,16l3.43,2.71Z"/><path class="cls-2" d="M74.56,58l-3.71,2.93h0L69,62.43l1.89-1.49H28.7l2.35,1.86L28.7,60.94h0l-3.43-2.71C14.89,71.49,8.15,88.62,8.15,91.45,8.15,96.17,26.89,100,50,100s41.85-3.83,41.85-8.55C91.85,88.6,85,71.31,74.56,58Z"/><ellipse class="cls-3" cx="30.71" cy="60.93" rx="6.43" ry="5.08"/><ellipse class="cls-3" cx="43.57" cy="60.93" rx="6.43" ry="5.08"/><ellipse class="cls-3" cx="56.43" cy="60.93" rx="6.43" ry="5.08"/><ellipse class="cls-3" cx="69.29" cy="60.93" rx="6.43" ry="5.08"/><ellipse class="cls-3" cx="45.49" cy="69.13" rx="1.18" ry="0.93"/><path class="cls-4" d="M40.39,63.35a2.52,2.52,0,0,1-2.52-2.52V46.71a2.52,2.52,0,1,1,5,0V60.83A2.52,2.52,0,0,1,40.39,63.35Z"/><path class="cls-4" d="M45,77.8A3.78,3.78,0,0,1,41.19,74V45.72a3.78,3.78,0,0,1,7.56,0V74A3.78,3.78,0,0,1,45,77.8Z"/><circle class="cls-3" cx="24.41" cy="70.17" r="1.3"/><circle class="cls-3" cx="29.07" cy="77.86" r="1.3"/><circle class="cls-3" cx="50.06" cy="77.86" r="1.3"/><circle class="cls-3" cx="71.06" cy="77.86" r="1.3"/><circle class="cls-3" cx="34.64" cy="70.17" r="1.3"/><circle class="cls-3" cx="55.12" cy="70.17" r="1.3"/><circle class="cls-3" cx="65.36" cy="70.17" r="1.3"/><circle class="cls-3" cx="75.59" cy="70.17" r="1.3"/><circle class="cls-1" cx="37.38" cy="45.07" r="2.7"/><circle class="cls-1" cx="42.96" cy="46.65" r="3.87"/><circle class="cls-1" cx="44.31" cy="43.35" r="3.87"/><circle class="cls-1" cx="46.94" cy="44.6" r="2.66"/><circle class="cls-1" cx="50.92" cy="47.93" r="3.77"/><circle class="cls-1" cx="50.48" cy="43.33" r="2.39"/><circle class="cls-1" cx="55.02" cy="43.82" r="3.49"/><circle class="cls-1" cx="62.39" cy="46.89" r="2.61"/><circle class="cls-1" cx="59.24" cy="46.11" r="2.09"/><path class="cls-4" d="M47.07,82.7a1.69,1.69,0,0,1-3.37,0c0-.93,1.68-3.4,1.68-3.4S47.07,81.77,47.07,82.7Z"/><path class="cls-4" d="M36.28,57.94a1.64,1.64,0,0,1-3.27,0c0-.9,1.63-3.3,1.63-3.3S36.28,57,36.28,57.94Z"/><path class="cls-5" d="M63.66,78.51a1.27,1.27,0,1,1-2.54,0,8.66,8.66,0,0,1,1.27-2.57A8.66,8.66,0,0,1,63.66,78.51Z"/><path class="cls-5" d="M29.9,62.47a1.27,1.27,0,1,1-2.54,0,8.66,8.66,0,0,1,1.27-2.57A8.66,8.66,0,0,1,29.9,62.47Z"/><path class="cls-4" d="M57.9,54a2.78,2.78,0,0,1-5.56,0c0-1.53,2.78-5.61,2.78-5.61S57.9,52.51,57.9,54Z"/><circle class="cls-1" cx="57.25" cy="49.17" r="3.45"/></svg>