<svg id="Layer_1" data-name="Layer 1" xmlns="http://www.w3.org/2000/svg" viewBox="0 0 100 100"><defs><style>.cls-1{fill:#63423e;}.cls-2{fill:#553734;}.cls-3{fill:#6d4945;}.cls-4{fill:#3e3e3f;}</style></defs><title>pipe</title><path class="cls-1" d="M63,27.19c-.9.66-1.78,1.32-2.63,2-1.39,1.1-2.8,2.19-4.1,3.35-2.68,2.28-5.21,4.64-7.59,7A159.53,159.53,0,0,0,36.47,53.19c-3.38,4.21-6,7.91-7.8,10.6-.89,1.34-1.59,2.44-2.08,3.23l-.75,1.28-.12.2a13.82,13.82,0,0,0-1.34,3.09,14.06,14.06,0,0,0,27,8s0-.1.08-.3.09-.33.15-.59c.18-.62.48-1.57.89-2.81.84-2.48,2.17-6.09,4-10.34A137.39,137.39,0,0,1,63.7,51.36c1.47-2.52,3.07-5.09,4.82-7.62.84-1.3,1.78-2.51,2.71-3.77.6-.85,1.24-1.66,1.9-2.46a15.36,15.36,0,0,0-4.54-9.85A7.83,7.83,0,0,0,63,27.19Z"/><path class="cls-2" d="M96.25,7.37c-3.34,3.27-8,6-13.57,8.63-2.77,1.34-5.72,2.7-8.8,4.29-1.54.81-3.07,1.66-4.69,2.65L66.92,24.4,64.68,26,63,27.19a7.83,7.83,0,0,1,5.55.47,15.36,15.36,0,0,1,4.54,9.85l1-1.22,1.42-1.76,1.55-1.7c1-1,2.11-2.15,3.25-3.19,2.3-2.12,4.79-4.18,7.21-6.27a88.83,88.83,0,0,0,6.88-6.47A39.49,39.49,0,0,0,99.7,10Z"/><path class="cls-3" d="M53.24,70.12a26.44,26.44,0,0,1-52.88,0c0-14.6,11.84-15,26.44-15S53.24,55.52,53.24,70.12Z"/><ellipse class="cls-4" cx="26.94" cy="59.25" rx="16.77" ry="2.12"/><circle class="cls-2" cx="97.81" cy="8.93" r="2.19"/><path class="cls-2" d="M53.19,71c0-.3.05-.61.05-.92a18.26,18.26,0,0,0-.91-6c-27.46,8.93-46.49,1.58-50.91-.45A17.86,17.86,0,0,0,.36,70.12c0,.21,0,.4,0,.6a68.26,68.26,0,0,0,25.66,4.66A90.85,90.85,0,0,0,53.19,71Z"/><circle class="cls-4" cx="20.82" cy="44.83" r="2.5"/><circle class="cls-4" cx="12.55" cy="21.16" r="4.53"/><circle class="cls-4" cx="26.11" cy="23.3" r="1.67"/><circle class="cls-4" cx="34.58" cy="21.29" r="1.77"/><circle class="cls-4" cx="3.12" cy="6.55" r="3.12"/><circle class="cls-4" cx="34.73" cy="42.72" r="3.06"/><circle class="cls-4" cx="33.94" cy="41.1" r="5.56"/><circle class="cls-4" cx="24.44" cy="51.42" r="9.95"/><circle class="cls-4" cx="32.33" cy="48.78" r="3.95"/><circle class="cls-4" cx="33.56" cy="35.54" r="5.31"/><circle class="cls-4" cx="37.39" cy="48.24" r="4.58"/><circle class="cls-4" cx="46.65" cy="22.48" r="2.96"/><circle class="cls-4" cx="39.02" cy="38.33" r="3.45"/><circle class="cls-4" cx="21.83" cy="20.24" r="7.18"/><circle class="cls-4" cx="26.51" cy="8.45" r="1.62"/><circle class="cls-4" cx="33.56" cy="18.75" r="8.67"/><circle class="cls-4" cx="41.59" cy="13.06" r="3.39"/><circle class="cls-4" cx="21.83" cy="52.91" r="7.18"/><circle class="cls-4" cx="26.51" cy="41.13" r="1.62"/><circle class="cls-4" cx="18.32" cy="32.82" r="11.19"/><circle class="cls-4" cx="25.5" cy="41.1" r="11.19"/><circle class="cls-4" cx="41.59" cy="45.74" r="3.39"/></svg>