<svg id="Layer_1" data-name="Layer 1" xmlns="http://www.w3.org/2000/svg" viewBox="0 0 100 100"><defs><style>.cls-1{fill:#87898b;}.cls-2{fill:#58595b;}</style></defs><title>wheel</title><rect class="cls-1" x="46.6" y="8.27" width="6.95" height="81.76"/><rect class="cls-1" x="46.6" y="8.27" width="6.95" height="81.76" transform="translate(99.23 -0.93) rotate(90)"/><rect class="cls-1" x="46.6" y="8.27" width="6.95" height="81.76" transform="translate(49.42 -21.01) rotate(45)"/><rect class="cls-1" x="46.6" y="8.27" width="6.95" height="81.76" transform="translate(120.24 48.5) rotate(135)"/><path class="cls-2" d="M50.08,97.4A47.44,47.44,0,1,1,97.51,50,47.49,47.49,0,0,1,50.08,97.4Zm0-85.85A38.42,38.42,0,1,0,88.49,50,38.46,38.46,0,0,0,50.08,11.55Z"/><rect class="cls-2" x="42.67" width="14.66" height="7.04" rx="1.56" ry="1.56"/><rect class="cls-2" x="42.67" y="92.96" width="14.66" height="7.04" rx="1.56" ry="1.56"/><rect class="cls-2" x="89.15" y="46.48" width="14.66" height="7.04" rx="1.56" ry="1.56" transform="translate(146.48 -46.48) rotate(90)"/><rect class="cls-2" x="-3.81" y="46.48" width="14.66" height="7.04" rx="1.56" ry="1.56" transform="translate(53.52 46.48) rotate(90)"/><rect class="cls-2" x="75.54" y="13.61" width="14.66" height="7.04" rx="1.56" ry="1.56" transform="translate(36.39 -53.58) rotate(45)"/><rect class="cls-2" x="9.8" y="79.35" width="14.66" height="7.04" rx="1.56" ry="1.56" transform="translate(63.61 12.16) rotate(45)"/><rect class="cls-2" x="75.54" y="79.35" width="14.66" height="7.04" rx="1.56" ry="1.56" transform="translate(200.06 82.87) rotate(135)"/><rect class="cls-2" x="9.8" y="13.61" width="14.66" height="7.04" rx="1.56" ry="1.56" transform="translate(41.36 17.13) rotate(135)"/><rect class="cls-2" x="60.82" y="3.69" width="14.66" height="7.04" rx="1.56" ry="1.56" transform="translate(8.22 -26.03) rotate(22.98)"/><rect class="cls-2" x="24.52" y="89.27" width="14.66" height="7.04" rx="1.56" ry="1.56" transform="translate(38.76 -5.07) rotate(22.98)"/><rect class="cls-2" x="85.46" y="64.63" width="14.66" height="7.04" rx="1.56" ry="1.56" transform="translate(191.76 9.33) rotate(112.98)"/><rect class="cls-2" x="-0.12" y="28.33" width="14.66" height="7.04" rx="1.56" ry="1.56" transform="translate(39.35 37.65) rotate(112.98)"/><rect class="cls-2" x="86.24" y="30.28" width="14.66" height="7.04" rx="1.56" ry="1.56" transform="translate(92.64 -65.68) rotate(69.6)"/><rect class="cls-2" x="-0.9" y="62.68" width="14.66" height="7.04" rx="1.56" ry="1.56" transform="translate(66.24 37.1) rotate(69.6)"/><rect class="cls-2" x="58.87" y="90.05" width="14.66" height="7.04" rx="1.56" ry="1.56" transform="translate(160.86 158.19) rotate(159.6)"/><rect class="cls-2" x="26.47" y="2.91" width="14.66" height="7.04" rx="1.56" ry="1.56" transform="translate(67.73 0.68) rotate(159.6)"/><circle class="cls-1" cx="50.08" cy="49.15" r="11.03"/><circle class="cls-2" cx="50.36" cy="49.15" r="5.32"/></svg>