<svg id="Layer_1" data-name="Layer 1" xmlns="http://www.w3.org/2000/svg" viewBox="0 0 100 100"><defs><style>.cls-1{fill:#ffc640;}.cls-2{fill:#f9a83f;}</style></defs><title>wheat</title><path class="cls-1" d="M32.39,53.43c3.4,4.53,3.31,12,3.31,12a11.82,11.82,0,0,1-9-4.41c-3.39-4.53-3.3-12-3.3-12A11.8,11.8,0,0,1,32.39,53.43Z"/><path class="cls-1" d="M39,53.43c-3.4,4.53-3.31,12-3.31,12a11.82,11.82,0,0,0,9-4.41C48.09,56.48,48,49,48,49A11.81,11.81,0,0,0,39,53.43Z"/><path class="cls-1" d="M32.39,43.11c3.4,4.53,3.31,12,3.31,12a11.78,11.78,0,0,1-9-4.41c-3.39-4.52-3.3-12-3.3-12A11.76,11.76,0,0,1,32.39,43.11Z"/><path class="cls-1" d="M39,43.11c-3.4,4.53-3.31,12-3.31,12a11.78,11.78,0,0,0,9-4.41c3.4-4.52,3.31-12,3.31-12A11.77,11.77,0,0,0,39,43.11Z"/><path class="cls-1" d="M32.39,32.79c3.4,4.53,3.31,12,3.31,12a11.78,11.78,0,0,1-9-4.41c-3.39-4.52-3.3-12-3.3-12A11.76,11.76,0,0,1,32.39,32.79Z"/><path class="cls-1" d="M39,32.79c-3.4,4.53-3.31,12-3.31,12a11.78,11.78,0,0,0,9-4.41c3.4-4.52,3.31-12,3.31-12A11.77,11.77,0,0,0,39,32.79Z"/><path class="cls-1" d="M32.39,22.47c3.4,4.52,3.31,12,3.31,12a11.78,11.78,0,0,1-9-4.41c-3.39-4.53-3.3-12-3.3-12A11.76,11.76,0,0,1,32.39,22.47Z"/><path class="cls-1" d="M39,22.47c-3.4,4.52-3.31,12-3.31,12a11.78,11.78,0,0,0,9-4.41c3.4-4.53,3.31-12,3.31-12A11.77,11.77,0,0,0,39,22.47Z"/><path class="cls-1" d="M32.39,12.15c3.4,4.52,3.31,12,3.31,12a11.78,11.78,0,0,1-9-4.41c-3.39-4.53-3.3-12-3.3-12A11.76,11.76,0,0,1,32.39,12.15Z"/><path class="cls-1" d="M39,12.15c-3.4,4.52-3.31,12-3.31,12a11.78,11.78,0,0,0,9-4.41c3.4-4.53,3.31-12,3.31-12A11.77,11.77,0,0,0,39,12.15Z"/><path class="cls-1" d="M30.6,32.71a110.57,110.57,0,0,0,5.1,32.71,110.38,110.38,0,0,0,5.11-32.71A110.29,110.29,0,0,0,35.7,0,110.49,110.49,0,0,0,30.6,32.71Z"/><rect class="cls-1" x="33.9" y="58.65" width="3.61" height="40.33" rx="0.86" ry="0.86"/><rect class="cls-1" x="62.49" y="58.65" width="3.61" height="40.33" rx="0.86" ry="0.86"/><path class="cls-2" d="M33.85,15.68a4.44,4.44,0,0,0-.75-.56A3.59,3.59,0,0,1,28.2,20a3.6,3.6,0,1,0,5.65-4.35Z"/><path class="cls-2" d="M43,20.78a4.44,4.44,0,0,0,.56-.75,3.59,3.59,0,0,1-4.9-4.91,4.14,4.14,0,0,0-.76.56,3.61,3.61,0,1,0,5.1,5.1Z"/><path class="cls-2" d="M33.85,25.58A4.44,4.44,0,0,0,33.1,25a3.59,3.59,0,0,1-4.9,4.91,3.6,3.6,0,1,0,5.65-4.35Z"/><path class="cls-2" d="M43,30.68a4.44,4.44,0,0,0,.56-.75A3.59,3.59,0,0,1,38.67,25a4.14,4.14,0,0,0-.76.56,3.61,3.61,0,1,0,5.1,5.1Z"/><path class="cls-2" d="M33.85,35.48a4.44,4.44,0,0,0-.75-.56,3.58,3.58,0,0,1-4.9,4.9,3.39,3.39,0,0,0,.56.76,3.6,3.6,0,1,0,5.09-5.1Z"/><path class="cls-2" d="M43,40.58a4.14,4.14,0,0,0,.56-.76,3.58,3.58,0,0,1-4.9-4.9,4.14,4.14,0,0,0-.76.56,3.61,3.61,0,1,0,5.1,5.1Z"/><path class="cls-2" d="M33.85,45.38a4,4,0,0,0-.75-.56,3.58,3.58,0,0,1-4.9,4.9,3.39,3.39,0,0,0,.56.76,3.6,3.6,0,0,0,5.09-5.1Z"/><path class="cls-2" d="M43,50.48a4.14,4.14,0,0,0,.56-.76,3.58,3.58,0,0,1-4.9-4.9,3.72,3.72,0,0,0-.76.56,3.61,3.61,0,1,0,5.1,5.1Z"/><path class="cls-1" d="M61.65,62.56c2.72,3.62,2.65,9.58,2.65,9.58a9.42,9.42,0,0,1-7.19-3.52C54.4,65,54.47,59,54.47,59A9.39,9.39,0,0,1,61.65,62.56Z"/><path class="cls-1" d="M66.94,62.56c-2.71,3.62-2.64,9.58-2.64,9.58a9.39,9.39,0,0,0,7.18-3.52C74.2,65,74.13,59,74.13,59A9.42,9.42,0,0,0,66.94,62.56Z"/><path class="cls-1" d="M61.65,54.31c2.72,3.62,2.65,9.58,2.65,9.58a9.42,9.42,0,0,1-7.19-3.52c-2.71-3.62-2.64-9.59-2.64-9.59A9.42,9.42,0,0,1,61.65,54.31Z"/><path class="cls-1" d="M66.94,54.31c-2.71,3.62-2.64,9.58-2.64,9.58a9.39,9.39,0,0,0,7.18-3.52c2.72-3.62,2.65-9.59,2.65-9.59A9.44,9.44,0,0,0,66.94,54.31Z"/><path class="cls-1" d="M61.65,46.06c2.72,3.62,2.65,9.58,2.65,9.58a9.44,9.44,0,0,1-7.19-3.53c-2.71-3.62-2.64-9.58-2.64-9.58A9.42,9.42,0,0,1,61.65,46.06Z"/><path class="cls-1" d="M66.94,46.06c-2.71,3.62-2.64,9.58-2.64,9.58a9.42,9.42,0,0,0,7.18-3.53c2.72-3.62,2.65-9.58,2.65-9.58A9.44,9.44,0,0,0,66.94,46.06Z"/><path class="cls-1" d="M61.65,37.81c2.72,3.62,2.65,9.58,2.65,9.58a9.44,9.44,0,0,1-7.19-3.53c-2.71-3.62-2.64-9.58-2.64-9.58A9.42,9.42,0,0,1,61.65,37.81Z"/><path class="cls-1" d="M66.94,37.81c-2.71,3.62-2.64,9.58-2.64,9.58a9.42,9.42,0,0,0,7.18-3.53c2.72-3.62,2.65-9.58,2.65-9.58A9.44,9.44,0,0,0,66.94,37.81Z"/><path class="cls-1" d="M61.65,29.55c2.72,3.62,2.65,9.58,2.65,9.58a9.42,9.42,0,0,1-7.19-3.52C54.4,32,54.47,26,54.47,26A9.39,9.39,0,0,1,61.65,29.55Z"/><path class="cls-1" d="M66.94,29.55c-2.71,3.62-2.64,9.58-2.64,9.58a9.39,9.39,0,0,0,7.18-3.52C74.2,32,74.13,26,74.13,26A9.42,9.42,0,0,0,66.94,29.55Z"/><path class="cls-1" d="M60.22,46A88.24,88.24,0,0,0,64.3,72.14,88.24,88.24,0,0,0,68.38,46,88.32,88.32,0,0,0,64.3,19.84,88.32,88.32,0,0,0,60.22,46Z"/><path class="cls-2" d="M62.82,32.38a3.24,3.24,0,0,0-.6-.45,2.9,2.9,0,0,1-.45,3.48,2.87,2.87,0,0,1-3.47.44,2.86,2.86,0,0,0,.44.61,2.88,2.88,0,0,0,4.08-4.08Z"/><path class="cls-2" d="M70.14,36.46a3.31,3.31,0,0,0,.45-.61,2.86,2.86,0,0,1-3.92-3.92,3.31,3.31,0,0,0-.61.45,2.88,2.88,0,1,0,4.08,4.08Z"/><path class="cls-2" d="M62.82,40.3a2.85,2.85,0,0,0-.6-.45,2.87,2.87,0,0,1-3.92,3.92,2.8,2.8,0,0,0,.44.6,2.88,2.88,0,0,0,4.08-4.07Z"/><path class="cls-2" d="M70.14,44.37a3.24,3.24,0,0,0,.45-.6,2.87,2.87,0,0,1-3.92-3.92,2.83,2.83,0,0,0-.61,4.52A2.88,2.88,0,0,0,70.14,44.37Z"/><path class="cls-2" d="M62.82,48.21a3.24,3.24,0,0,0-.6-.45,2.87,2.87,0,0,1-3.92,3.92,2.86,2.86,0,0,0,.44.61,2.88,2.88,0,0,0,4.08-4.08Z"/><path class="cls-2" d="M70.14,52.29a3.31,3.31,0,0,0,.45-.61,2.87,2.87,0,0,1-3.92-3.92,3.31,3.31,0,0,0-.61.45,2.88,2.88,0,1,0,4.08,4.08Z"/><path class="cls-2" d="M62.82,56.13a2.55,2.55,0,0,0-.6-.45A2.87,2.87,0,0,1,58.3,59.6a2.8,2.8,0,0,0,.44.6,2.88,2.88,0,1,0,4.08-4.07Z"/><path class="cls-2" d="M70.14,60.2a3.24,3.24,0,0,0,.45-.6,2.87,2.87,0,0,1-3.92-3.92,2.6,2.6,0,0,0-.61.45,2.88,2.88,0,1,0,4.08,4.07Z"/><path class="cls-1" d="M38.52,92.91a4.15,4.15,0,0,1-5.88,5.87C31,97.16,20.89,81.15,20.89,81.15S36.9,91.29,38.52,92.91Z"/><path class="cls-1" d="M38.76,98.78a4.15,4.15,0,0,1-5.87-5.87c1.62-1.62,17.63-11.76,17.63-11.76S40.38,97.16,38.76,98.78Z"/><path class="cls-1" d="M67.11,92.91a4.15,4.15,0,0,1-5.87,5.87c-1.62-1.62-11.76-17.63-11.76-17.63S65.49,91.29,67.11,92.91Z"/><path class="cls-1" d="M67.36,98.78a4.15,4.15,0,0,1-5.88-5.87c1.62-1.62,17.63-11.76,17.63-11.76S69,97.16,67.36,98.78Z"/></svg>