<svg id="Layer_1" data-name="Layer 1" xmlns="http://www.w3.org/2000/svg" viewBox="0 0 100 100"><defs><style>.cls-1{fill:#e2b68a;}.cls-2{fill:#a68667;}.cls-3{fill:#fff;}.cls-4{fill:#f37d3b;}</style></defs><title>flour</title><path class="cls-1" d="M25.35,25.05c-2.23,2.23-11.17,3.09-11.17,3.09S15,19.2,17.27,17a5.71,5.71,0,1,1,8.08,8.08Z"/><path class="cls-1" d="M85.82,20.17c0,3.15-5.72,10.08-5.72,10.08s-5.71-6.93-5.71-10.08a5.72,5.72,0,1,1,11.43,0Z"/><path class="cls-1" d="M62.12,98.36H38c-13.62,0-27.26-10.39-25.64-23.1,1.65-16.47,7.08-32.93,6.89-49.4-.55-12.71,7.87-13.48,20.12-13.48H60.75c11.63,0,22.77.77,24.62,13.48,1.78,16.47-2.07,32.93-2.13,49.4C83,88,75.6,98.36,62.12,98.36Z"/><path class="cls-1" d="M22.65,96.91C20.42,99.14,11.47,100,11.47,100s.86-8.94,3.09-11.18a5.72,5.72,0,1,1,8.09,8.09Z"/><path class="cls-1" d="M75.35,96.91C77.58,99.14,86.53,100,86.53,100s-.86-8.94-3.09-11.18a5.72,5.72,0,0,0-8.09,8.09Z"/><rect class="cls-2" x="67.05" y="15.43" width="1.93" height="2.89"/><path class="cls-2" d="M69,83.19H67.05v-5.4H69Zm0-10.81H67.05V67H69Zm0-10.81H67.05V56.16H69Zm0-10.81H67.05V45.35H69Zm0-10.82H67.05v-5.4H69Zm0-10.81H67.05v-5.4H69Z"/><rect class="cls-2" x="67.05" y="88.6" width="1.93" height="2.89"/><ellipse class="cls-3" cx="50.1" cy="15.37" rx="26.29" ry="4.51"/><path class="cls-3" d="M39.49,9.71C43.28,7.37,47.85,4.11,50,.91A2,2,0,0,1,53.2.79,39.72,39.72,0,0,0,64,10.59a2,2,0,0,1-1.11,3.64l-22.49-.87A2,2,0,0,1,39.49,9.71Z"/><path class="cls-3" d="M56.67,9.76s12.54,4.45,21.13,5.16L65.55,16.76,54,16.12"/><path class="cls-3" d="M34.69,10A22.82,22.82,0,0,0,47,9.22a2.5,2.5,0,0,1,3.35,2.37v3.16a2.52,2.52,0,0,1-2.85,2.5L34,15.45a2.54,2.54,0,0,1-2-1.62l-.2-.55A2.51,2.51,0,0,1,34.69,10Z"/><path class="cls-3" d="M56.65,9.31c-.23,0-.47,0-.7,0a9.86,9.86,0,0,1-3.41-.6,3.57,3.57,0,0,0-3.82.85,12.34,12.34,0,0,1-8.88,3.76,12.35,12.35,0,0,1-6.35-1.75,3.55,3.55,0,0,0-5.35,2.18,2.85,2.85,0,0,0-.1.66c0,1.76,4.36,3.31,11,4.22,1.32.19,2.74.34,4.23.47.75.07,1.51.12,2.29.17,2.35.15,4.84.23,7.42.23h0a92.73,92.73,0,0,0,17.63-1.49,29.7,29.7,0,0,0,4.3-1.17A9.81,9.81,0,0,0,76.8,16a2.56,2.56,0,0,0,1-1c-.45,0-.91,0-1.37,0C67.34,15,59.61,12.6,56.65,9.31Z"/><path class="cls-3" d="M32.85,10.92s-6.49,2.47-8.53,2.65c0,0,5.12,3.43,10.21,4.31"/><circle class="cls-3" cx="32.82" cy="20.34" r="1.17"/><circle class="cls-3" cx="40.85" cy="20.2" r="0.66"/><circle class="cls-3" cx="45.99" cy="21.29" r="0.43"/><circle class="cls-3" cx="28.11" cy="15.48" r="1.08"/><circle class="cls-3" cx="40.56" cy="8.89" r="0.37"/><circle class="cls-3" cx="43.07" cy="7.73" r="0.8"/><circle class="cls-3" cx="46.38" cy="5.81" r="1.31"/><circle class="cls-3" cx="44.77" cy="6.58" r="0.53"/><circle class="cls-3" cx="49.09" cy="3.57" r="2.06"/><circle class="cls-3" cx="55.77" cy="4.75" r="1.18"/><circle class="cls-3" cx="58.38" cy="6.8" r="0.49"/><circle class="cls-3" cx="33.48" cy="9.89" r="0.4"/><circle class="cls-3" cx="35.42" cy="10.21" r="0.72"/><circle class="cls-3" cx="27.97" cy="12.89" r="0.76"/><circle class="cls-3" cx="42.4" cy="8" r="0.89"/><circle class="cls-3" cx="42.52" cy="7.13" r="0.55"/><circle class="cls-3" cx="61.24" cy="8.59" r="0.9"/><circle class="cls-3" cx="63.47" cy="9.77" r="0.51"/><circle class="cls-3" cx="67.59" cy="12.89" r="0.76"/><circle class="cls-3" cx="70.15" cy="13.56" r="0.39"/><circle class="cls-3" cx="63.23" cy="19.02" r="1.49"/><circle class="cls-3" cx="66.46" cy="19.55" r="0.38"/><circle class="cls-3" cx="64.94" cy="18.45" r="0.57"/><circle class="cls-3" cx="70.58" cy="19.78" r="0.43"/><circle class="cls-3" cx="38.1" cy="19.98" r="1.74"/><circle class="cls-3" cx="40.68" cy="20.48" r="2.61"/><circle class="cls-3" cx="39.29" cy="22.81" r="2.31"/><circle class="cls-3" cx="36.25" cy="19.79" r="2.26"/><circle class="cls-3" cx="36.9" cy="26.79" r="0.53"/><circle class="cls-3" cx="41.41" cy="28.9" r="1.57"/><circle class="cls-3" cx="40.68" cy="25.62" r="1.7"/><circle class="cls-3" cx="44.22" cy="25.57" r="0.93"/><circle class="cls-3" cx="41.82" cy="23.99" r="1.63"/><circle class="cls-3" cx="41.37" cy="26.31" r="1.67"/><circle class="cls-3" cx="44.31" cy="29.04" r="0.45"/><rect class="cls-4" x="32.99" y="55.63" width="1.88" height="20.98" rx="0.44" ry="0.44" transform="translate(7.01 -3.15) rotate(5.93)"/><path class="cls-4" d="M33.43,57.57a9.55,9.55,0,0,1,.86,5.1,4.9,4.9,0,0,1-3.53-2.21,9.55,9.55,0,0,1-.86-5.1A4.9,4.9,0,0,1,33.43,57.57Z"/><path class="cls-4" d="M36.17,57.85a9.5,9.5,0,0,0-1.88,4.82,4.9,4.9,0,0,0,3.91-1.44,9.6,9.6,0,0,0,1.88-4.82A4.94,4.94,0,0,0,36.17,57.85Z"/><path class="cls-4" d="M33.88,53.3a9.5,9.5,0,0,1,.85,5.1,4.9,4.9,0,0,1-3.53-2.21,9.5,9.5,0,0,1-.85-5.1A4.9,4.9,0,0,1,33.88,53.3Z"/><path class="cls-4" d="M36.61,53.58a9.5,9.5,0,0,0-1.88,4.82A4.9,4.9,0,0,0,38.64,57a9.5,9.5,0,0,0,1.88-4.82A4.94,4.94,0,0,0,36.61,53.58Z"/><path class="cls-4" d="M34.32,49a9.5,9.5,0,0,1,.85,5.1,4.9,4.9,0,0,1-3.53-2.21,9.5,9.5,0,0,1-.85-5.1A4.9,4.9,0,0,1,34.32,49Z"/><path class="cls-4" d="M37.06,49.31a9.56,9.56,0,0,0-1.89,4.82,4.9,4.9,0,0,0,3.91-1.44A9.5,9.5,0,0,0,41,47.87,4.88,4.88,0,0,0,37.06,49.31Z"/><path class="cls-4" d="M34.76,44.76a9.55,9.55,0,0,1,.86,5.1,4.9,4.9,0,0,1-3.53-2.21,9.55,9.55,0,0,1-.86-5.1A4.9,4.9,0,0,1,34.76,44.76Z"/><path class="cls-4" d="M37.5,45a9.5,9.5,0,0,0-1.88,4.82,4.87,4.87,0,0,0,3.9-1.44,9.56,9.56,0,0,0,1.89-4.82A4.9,4.9,0,0,0,37.5,45Z"/><path class="cls-4" d="M35.21,40.49a9.5,9.5,0,0,1,.85,5.1,4.9,4.9,0,0,1-3.53-2.21,9.5,9.5,0,0,1-.85-5.1A4.9,4.9,0,0,1,35.21,40.49Z"/><path class="cls-4" d="M37.94,40.77a9.5,9.5,0,0,0-1.88,4.82A4.9,4.9,0,0,0,40,44.15a9.5,9.5,0,0,0,1.88-4.82A4.9,4.9,0,0,0,37.94,40.77Z"/><path class="cls-4" d="M33.58,48.92a45.71,45.71,0,0,0,.71,13.75A45.84,45.84,0,0,0,37.8,49.36a46,46,0,0,0-.7-13.76A46,46,0,0,0,33.58,48.92Z"/><path class="cls-4" d="M35.66,42a1.75,1.75,0,0,0-.29-.26,1.49,1.49,0,0,1-2.24,1.82,1.61,1.61,0,0,0,.2.33A1.5,1.5,0,1,0,35.66,42Z"/><path class="cls-4" d="M39.23,44.51a1.37,1.37,0,0,0,.26-.28A1.49,1.49,0,0,1,37.67,42a1.27,1.27,0,0,0-.33.2,1.5,1.5,0,1,0,1.89,2.32Z"/><path class="cls-4" d="M35.23,46.11a1.2,1.2,0,0,0-.29-.26,1.48,1.48,0,0,1-2.23,1.81,1.32,1.32,0,0,0,.2.34,1.5,1.5,0,1,0,2.32-1.89Z"/><path class="cls-4" d="M38.8,48.61a1.24,1.24,0,0,0,.27-.29,1.49,1.49,0,0,1-1.82-2.24,2.33,2.33,0,0,0-.34.2,1.5,1.5,0,0,0,1.89,2.33Z"/><path class="cls-4" d="M34.81,50.21a1.82,1.82,0,0,0-.29-.27,1.49,1.49,0,0,1-2.24,1.82,1.38,1.38,0,0,0,.2.33,1.5,1.5,0,0,0,2.33-1.88Z"/><path class="cls-4" d="M38.38,52.71a2.35,2.35,0,0,0,.26-.29,1.49,1.49,0,0,1-1.82-2.24,1.27,1.27,0,0,0-.33.2,1.5,1.5,0,0,0,1.89,2.33Z"/><path class="cls-4" d="M34.38,54.3a1.2,1.2,0,0,0-.29-.26,1.5,1.5,0,0,1-.41,1.77,1.49,1.49,0,0,1-1.82,0,1.41,1.41,0,0,0,.19.34,1.5,1.5,0,0,0,2.33-1.89Z"/><path class="cls-4" d="M38,56.8a1.24,1.24,0,0,0,.27-.29,1.48,1.48,0,0,1-1.82-2.23,1.32,1.32,0,0,0-.34.2A1.5,1.5,0,1,0,38,56.8Z"/><path class="cls-4" d="M34.63,73.56a2.16,2.16,0,1,1-3.36,2.73c-.75-.93-5.13-9.76-5.13-9.76S33.88,72.64,34.63,73.56Z"/><path class="cls-4" d="M34.44,76.62a2.16,2.16,0,0,1-2.73-3.36c.93-.75,9.76-5.13,9.76-5.13S35.37,75.87,34.44,76.62Z"/></svg>