<svg id="Layer_1" data-name="Layer 1" xmlns="http://www.w3.org/2000/svg" viewBox="0 0 100 100"><defs><style>.cls-1{fill:#fcca98;}.cls-2{fill:#cea67f;}.cls-3{fill:#e9bb8d;}</style></defs><title>dough</title><circle class="cls-1" cx="22.87" cy="50.63" r="22.87"/><circle class="cls-1" cx="42.5" cy="41.12" r="19.17"/><circle class="cls-1" cx="45.74" cy="58.88" r="19.17"/><circle class="cls-1" cx="69.41" cy="45.07" r="19.17"/><circle class="cls-1" cx="72.04" cy="58.88" r="19.17"/><circle class="cls-1" cx="80.83" cy="52.06" r="19.17"/><circle class="cls-2" cx="15.23" cy="41.25" r="1.69"/><circle class="cls-2" cx="21.27" cy="51.21" r="1.69"/><circle class="cls-2" cx="48.46" cy="51.21" r="1.69"/><circle class="cls-2" cx="75.65" cy="51.21" r="1.69"/><circle class="cls-2" cx="28.49" cy="41.25" r="1.69"/><circle class="cls-2" cx="41.75" cy="41.25" r="1.69"/><circle class="cls-2" cx="55.01" cy="41.25" r="1.69"/><circle class="cls-2" cx="68.27" cy="41.25" r="1.69"/><circle class="cls-2" cx="81.52" cy="41.25" r="1.69"/><path class="cls-3" d="M77.51,34.13c1.07,2-11.18,6.85-27.36,2.59S21.71,35,22.79,34.13c1.07-2,13.32-6.37,27.36-2.58S76.43,33.32,77.51,34.13Z"/></svg>