<svg id="Layer_1" data-name="Layer 1" xmlns="http://www.w3.org/2000/svg" viewBox="0 0 100 100"><defs><style>.cls-1{fill:#78524d;}.cls-2{fill:#fcca98;}.cls-3{fill:#895e59;}.cls-4{fill:#6e4a46;}.cls-5{fill:#e9bb8d;}</style></defs><title>bread</title><path class="cls-1" d="M73.53,77.56H66.46C53.52,77.56,67.78,67,67.78,54V33.33c0-12.94-14.26-8.09-1.32-8.09h7.07c12.94,0,23.53-4.85,23.53,8.09V54C97.06,79.4,86.47,77.56,73.53,77.56Z"/><rect class="cls-1" x="64.84" y="22.41" width="35.16" height="17.96" rx="4.5" ry="4.5"/><rect class="cls-1" x="29.29" y="22.41" width="47.2" height="55.16"/><path class="cls-2" d="M26.47,75.6c-13,0-21.57,0-21.57-21.56V37.12l-.63-.59A6.91,6.91,0,0,1,2,31.39a7,7,0,0,1,7-7H51a7,7,0,0,1,7,7,7,7,0,0,1-2.31,5.15l-.63.58V54c0,10.08-1.92,16.1-6,19-3.75,2.6-9.16,2.6-15.43,2.6Z"/><path class="cls-3" d="M51,26.33a5.07,5.07,0,0,1,5.06,5.06,5,5,0,0,1-1.67,3.7l-1.27,1.17V54c0,19.6-6.52,19.6-19.61,19.6H26.37c-13,0-19.51,0-19.51-19.6V36.26L5.59,35.09a5,5,0,0,1-1.67-3.7A5.07,5.07,0,0,1,9,26.33H51m0-3.92H9a9,9,0,0,0-9,9H0A8.93,8.93,0,0,0,2.94,38V54c0,23.49,10.54,23.52,23.43,23.52h7.27c12.9,0,23.43,0,23.43-23.52V38A8.93,8.93,0,0,0,60,31.39h0a9,9,0,0,0-9-9Z"/><rect class="cls-4" x="58" y="37.66" width="38.69" height="2.92" rx="0.69" ry="0.69"/><circle class="cls-4" cx="59.66" cy="44.39" r="0.91"/><circle class="cls-4" cx="62.91" cy="49.76" r="0.91"/><circle class="cls-4" cx="77.55" cy="49.76" r="0.91"/><circle class="cls-4" cx="92.19" cy="49.76" r="0.91"/><circle class="cls-4" cx="66.8" cy="44.39" r="0.91"/><circle class="cls-4" cx="73.94" cy="44.39" r="0.91"/><circle class="cls-4" cx="81.08" cy="44.39" r="0.91"/><circle class="cls-4" cx="88.21" cy="44.39" r="0.91"/><circle class="cls-4" cx="95.35" cy="44.39" r="0.91"/><circle class="cls-5" cx="14.53" cy="37.48" r="3.09"/><circle class="cls-5" cx="26.31" cy="55.8" r="1.79"/><circle class="cls-5" cx="43.3" cy="43.47" r="1.79"/><circle class="cls-5" cx="42" cy="66.99" r="0.9"/></svg>