<svg id="Layer_1" data-name="Layer 1" xmlns="http://www.w3.org/2000/svg" viewBox="0 0 100 100"><defs><style>.cls-1{fill:#8f3131;}.cls-2{fill:#bf4141;}.cls-3{fill:#231f20;}.cls-4{fill:#e0e0e0;}.cls-5{fill:#ff5757;}.cls-6{fill:#f89c3e;}</style></defs><title>samurai</title><path class="cls-1" d="M77.51,53.57l-3.24-7L67.45,31.68a20.25,20.25,0,0,0-2.58-4.21A16.67,16.67,0,0,1,56.36,34a21.78,21.78,0,0,1-6.69,1c-.51,0-1,0-1.5,0A20,20,0,0,1,35.61,28.9a12.22,12.22,0,0,1-1.06-1.34A20.3,20.3,0,0,0,32,31.68L25.21,46.53l-3.23,7a53.12,53.12,0,0,0-2,5.18h9.86l1.66-6.35a12.52,12.52,0,0,1,1.44-5.87,9.13,9.13,0,0,1,7.92-5.24H58.66a7.9,7.9,0,0,1,2.42.38,8.09,8.09,0,0,1,2.17,1.06,9.44,9.44,0,0,1,1.87,1.66,11.21,11.21,0,0,1,1.46,2.14A12.53,12.53,0,0,1,68,52.4l1.65,6.35h9.86a53.12,53.12,0,0,0-2-5.18"/><path class="cls-1" d="M58.74,66.77H41.26a11.08,11.08,0,0,1-11-11V41.51a11.08,11.08,0,0,1,11-11H58.74a11.08,11.08,0,0,1,11.05,11V55.73a11.08,11.08,0,0,1-11.05,11"/><path class="cls-2" d="M77.62,100H21.87a7.62,7.62,0,0,1-7.59-7.59V73.09a7.62,7.62,0,0,1,7.59-7.59H77.62a7.62,7.62,0,0,1,7.59,7.59V92.41A7.62,7.62,0,0,1,77.62,100"/><polygon class="cls-3" points="32.88 65.5 66.61 65.5 49.75 86.98 32.88 65.5"/><path class="cls-4" d="M17.51,57.16l3.91-3.09,35,44.38c2.72,3.44-6.59-6-7.6-2.29Z"/><path class="cls-2" d="M6.67,41.47l2-1.6a1.72,1.72,0,0,1,2.41.28l9.44,12-4.73,3.73-9.44-12a1.71,1.71,0,0,1,.29-2.41"/><rect class="cls-5" x="14.03" y="53.02" width="9.08" height="2.9" transform="translate(-29.74 23.18) rotate(-38.24)"/><polygon class="cls-5" points="11.88 50.85 15.7 45.97 17.07 47.71 13.25 52.59 11.88 50.85"/><polygon class="cls-5" points="8.63 46.73 12.44 41.84 13.81 43.58 10 48.47 8.63 46.73"/><path class="cls-4" d="M82.49,57.16l-3.91-3.09-35,44.38c-2.72,3.44,10.54-9.73,11.56-6l2.06-3.24Z"/><path class="cls-2" d="M93.33,41.47l-2-1.6a1.72,1.72,0,0,0-2.41.28l-9.44,12,4.73,3.73,9.44-12a1.71,1.71,0,0,0-.29-2.41"/><rect class="cls-5" x="79.98" y="49.94" width="2.9" height="9.08" transform="translate(-11.76 84.72) rotate(-51.76)"/><polygon class="cls-5" points="88.12 50.85 84.31 45.97 82.94 47.71 86.75 52.59 88.12 50.85"/><polygon class="cls-5" points="91.37 46.73 87.56 41.84 86.19 43.58 90 48.47 91.37 46.73"/><path class="cls-3" d="M63.44,52.37H36.56a6.74,6.74,0,0,1-6.64-6.8V31.47a6.74,6.74,0,0,1,6.64-6.8H63.44a6.74,6.74,0,0,1,6.64,6.8v14.1a6.74,6.74,0,0,1-6.64,6.8"/><path class="cls-2" d="M58.05,63.88H42A10.2,10.2,0,0,1,31.79,53.71V40.63A10.19,10.19,0,0,1,42,30.47h16.1A10.19,10.19,0,0,1,68.21,40.63V53.71A10.2,10.2,0,0,1,58.05,63.88"/><path class="cls-2" d="M49.15,65.5h0a3.61,3.61,0,0,1-3.61,3.61,3.61,3.61,0,0,1,3.61-3.61"/><path class="cls-2" d="M50.85,65.5h0a3.61,3.61,0,0,0,3.61,3.61,3.61,3.61,0,0,0-3.61-3.61"/><polygon class="cls-5" points="59.97 100 48.55 100 21.46 65.5 32.88 65.5 59.97 100"/><polygon class="cls-5" points="39.52 100 50.94 100 78.04 65.5 66.61 65.5 39.52 100"/><path class="cls-2" d="M43.8,36l.36.27A33.16,33.16,0,0,0,49.6,40l.74-.34c4.35-2.42,8.64-5.32,11.31-9.88a30.59,30.59,0,0,0-23.3,0A20.4,20.4,0,0,0,43.8,36"/><path class="cls-3" d="M53.32,38.78v0H46.59l-14.8-1.51c-.07,7.26,5.22,9.59,9.59,9.63a6.85,6.85,0,0,0,5.83-2.52,3.26,3.26,0,0,1,2.55-1.25h.54a3.26,3.26,0,0,1,2.54,1.25,6.88,6.88,0,0,0,5.83,2.52c4.37,0,9.67-2.37,9.59-9.63Z"/><path class="cls-5" d="M77.77,46.18l-3.24-7L67.71,24.29a20.68,20.68,0,0,0-2.58-4.21,16.65,16.65,0,0,1-8.52,6.52,21.42,21.42,0,0,1-6.68,1c-.51,0-1,0-1.5-.05a20,20,0,0,1-12.56-6.06,12.32,12.32,0,0,1-1.07-1.34,20.55,20.55,0,0,0-2.5,4.12L25.47,39.15l-3.24,7a53,53,0,0,0-2,5.18h9.86L31.73,45a12.52,12.52,0,0,1,1.44-5.87,9.12,9.12,0,0,1,7.92-5.25H58.91a7.81,7.81,0,0,1,2.42.38,8.46,8.46,0,0,1,2.18,1.06A9.71,9.71,0,0,1,65.37,37a11.33,11.33,0,0,1,1.47,2.15A12.51,12.51,0,0,1,68.28,45l1.66,6.35H79.8a53.12,53.12,0,0,0-2-5.18"/><path class="cls-5" d="M70,37c0,2.2-9,4-20,4s-20-1.79-20-4,9-4,20-4,20,1.78,20,4"/><path class="cls-2" d="M46.08,18.15l.22.17a19.84,19.84,0,0,0,3.45,2.38l.46-.21C53,19,55.69,17.12,57.38,14.23a19.32,19.32,0,0,0-14.76,0,13,13,0,0,0,3.46,3.91"/><path class="cls-6" d="M33.48,6.31A19.43,19.43,0,0,0,35,17.75c.12.23.25.44.37.66s.24.43.37.64a11.1,11.1,0,0,0,1.17,1.47,18.49,18.49,0,0,0,11.61,5.61c.45,0,.92,0,1.39,0a20,20,0,0,0,6.23-.94,15.24,15.24,0,0,0,8-6.29c.13-.2.26-.42.38-.63s.24-.45.36-.67a16.53,16.53,0,0,0,1-2.28,14.25,14.25,0,0,0,.76-6.93c-.42-2.62-.71-5.31,1.11-7.09a5.21,5.21,0,0,1,1.41-1A4.86,4.86,0,0,0,67.33,0,5.53,5.53,0,0,0,65,.45,5.37,5.37,0,0,0,62.49,2.7C60.7,6,60.83,10,59.37,13.48a.25.25,0,0,1,0,.07c-.1.22-.21.43-.31.65s-.21.43-.32.63C56.91,18,54,20,50.84,21.8c-.3.11-.56.25-.84.38a.41.41,0,0,1-.16,0c-1,0-4.06-2.47-4.65-2.93a14.28,14.28,0,0,1-3.89-4.44c0-.1-.12-.19-.17-.28S41,14.32,41,14.2s-.19-.44-.27-.67c-1.29-3.46-1.05-8-3.21-10.83A5.3,5.3,0,0,0,35,.45,5.48,5.48,0,0,0,32.69,0h-.11a5.21,5.21,0,0,0-1.74.37c2.45,1.38,3.07,3.24,2.64,5.94"/><path class="cls-1" d="M57.47,31.21A7.47,7.47,0,1,1,50,23.74a7.47,7.47,0,0,1,7.47,7.47"/><path class="cls-6" d="M54.77,29.56A4.77,4.77,0,1,1,50,24.79a4.78,4.78,0,0,1,4.77,4.77"/><path class="cls-3" d="M55.42,52.59a3.86,3.86,0,0,0-2.66,1.09,3.83,3.83,0,0,1-6,0,3.89,3.89,0,1,0-.39,5.91,3.85,3.85,0,0,1,6.81,0,3.81,3.81,0,0,0,2.27.77,3.89,3.89,0,0,0,0-7.77"/><path class="cls-3" d="M52.37,60.83a3,3,0,0,0-5.25,0Z"/><path class="cls-3" d="M49.74,52.82l2.58-1.34-2.58-7v-.12l0,.06,0-.06v.12l-2.58,7,2.58,1.34v0h0s0,0,0,0"/></svg>