<svg id="Layer_1" data-name="Layer 1" xmlns="http://www.w3.org/2000/svg" viewBox="0 0 100 100"><defs><style>.cls-1{fill:#454547;}.cls-2{fill:#f05c38;}.cls-3{fill:#b4452a;}.cls-4{fill:#d05030;}.cls-5{fill:#d1dce3;}.cls-11,.cls-6{fill:none;stroke-miterlimit:10;}.cls-6{stroke:#d1dce3;}.cls-7{fill:#9dc8dc;}.cls-8{fill:#b2e2f9;}.cls-9{fill:#212121;}.cls-10{fill:#87898b;}.cls-11{stroke:#8c8c8c;stroke-width:0.11px;}.cls-12{fill:#3e3e3f;}</style></defs><title>snowboarder</title><rect class="cls-1" x="2.65" y="73.62" width="59" height="9.19"/><path class="cls-2" d="M83.13,100h0A14.22,14.22,0,0,1,68.91,85.78V14.22a14.22,14.22,0,0,1,28.44,0V85.78A14.22,14.22,0,0,1,83.13,100"/><polygon class="cls-3" points="97.35 39.66 83.13 33.38 68.91 39.66 68.91 30.67 83.13 24.39 97.35 30.67 97.35 39.66"/><polygon class="cls-3" points="97.35 26.14 83.13 19.85 68.91 26.14 68.91 17.15 83.13 10.87 97.35 17.15 97.35 26.14"/><polygon class="cls-3" points="97.35 87.39 83.13 81.1 68.91 87.39 68.91 78.4 83.13 72.11 97.35 78.4 97.35 87.39"/><polygon class="cls-3" points="97.35 74.16 83.13 67.88 68.91 74.16 68.91 65.18 83.13 58.89 97.35 65.18 97.35 74.16"/><path class="cls-4" d="M79.81,43.18a4.46,4.46,0,0,1,0-8.92h7.33a4.46,4.46,0,0,1,0,8.92Z"/><path class="cls-5" d="M87.14,34.76a4,4,0,0,1,0,7.92H79.81a4,4,0,0,1,0-7.92h7.33m0-1H79.81a5,5,0,0,0,0,9.92h7.33a5,5,0,0,0,0-9.92"/><line class="cls-6" x1="84.44" y1="34.47" x2="84.44" y2="43.1"/><path class="cls-4" d="M79.81,65.74a4.46,4.46,0,0,1,0-8.92h7.33a4.46,4.46,0,0,1,0,8.92Z"/><path class="cls-5" d="M87.14,57.32a4,4,0,0,1,0,7.92H79.81a4,4,0,0,1,0-7.92h7.33m0-1H79.81a5,5,0,0,0,0,9.92h7.33a5,5,0,0,0,0-9.92"/><line class="cls-6" x1="84.44" y1="57.03" x2="84.44" y2="65.66"/><path class="cls-7" d="M41.78,88.25a5.7,5.7,0,0,1-5.69-5.69v-.48a3.95,3.95,0,1,0-7.89,0v.48a5.69,5.69,0,0,1-5.69,5.69H12.45a3.52,3.52,0,0,1-3.52-3.52L6.93,72c0-1.94,1.58-.52,3.52-3.52l22.86-3.22,20.54,3.22c1.94,3,3.52,1.58,3.52,3.52l-2,12.72a3.52,3.52,0,0,1-3.52,3.52Z"/><polygon class="cls-8" points="14.92 87.09 11.28 87.09 20.03 66.64 23.67 66.64 14.92 87.09"/><polygon class="cls-8" points="20.71 87.09 18.23 87.09 26.98 66.64 29.46 66.64 20.71 87.09"/><path class="cls-2" d="M53.85,69.66A2.35,2.35,0,0,1,56.2,72l-2,12.73a2.36,2.36,0,0,1-2.35,2.35H41.78a4.53,4.53,0,0,1-4.52-4.53v-.48a5.12,5.12,0,0,0-10.23,0v.48a4.53,4.53,0,0,1-4.52,4.53H12.45a2.36,2.36,0,0,1-2.36-2.35L8.09,72a2.36,2.36,0,0,1,2.36-2.35l14.19-3H39.37l14.48,3m0-2.34-14.48-3H24.64l-14.19,3A4.69,4.69,0,0,0,5.76,72l2,12.73a4.69,4.69,0,0,0,4.69,4.68H22.51a6.86,6.86,0,0,0,6.86-6.86v-.48a2.78,2.78,0,0,1,5.56,0v.48a6.86,6.86,0,0,0,6.85,6.86H51.85a4.69,4.69,0,0,0,4.68-4.68l2-12.73a4.68,4.68,0,0,0-4.68-4.69"/><rect class="cls-9" x="25.95" y="48.59" width="5.85" height="11.45"/><rect class="cls-10" x="17.83" y="31.39" width="12.6" height="12.6"/><rect class="cls-11" x="17.83" y="31.39" width="12.6" height="12.6"/><path class="cls-1" d="M28.63,36.5l-1.7,4.74H25.3l-5.65-3.33-4.36,1.27L13.46,44.1l5.6,5a10.83,10.83,0,0,0,7.17,2.72h2.7a7.54,7.54,0,0,0,7.21-5.33l3-10-5.77-.91Z"/><path class="cls-2" d="M56,16.28A20.39,20.39,0,0,0,37.77,5H27.19a21.05,21.05,0,0,0-11,3A20.24,20.24,0,0,0,6.46,23.52c0,.24,0,.49,0,.73l-.18,4.17A18.89,18.89,0,0,0,13.31,44l.15.13,6.19-6.19V33h7.81l1.17,3.52H39.18l.37-1.1A3.53,3.53,0,0,1,42.91,33H59.6V31.37A37.15,37.15,0,0,0,56,16.28"/><path class="cls-12" d="M48.59,22.71v3.22h10.5c-.19-1.08-.43-2.16-.71-3.22Z"/><rect class="cls-1" x="24.71" y="10.98" width="3.22" height="3.22"/><rect class="cls-1" x="35.67" y="10.98" width="3.22" height="3.22"/><rect class="cls-1" x="30.19" y="10.98" width="3.22" height="3.22"/></svg>