<svg id="Layer_1" data-name="Layer 1" xmlns="http://www.w3.org/2000/svg" viewBox="0 0 100 100"><defs><style>.cls-1{fill:#9bc5da;}.cls-2{fill:#457f95;}.cls-3{fill:#b2e2f9;}.cls-4{fill:none;stroke:#fff;stroke-miterlimit:10;stroke-width:1.3px;}.cls-5{fill:#616161;}.cls-6{fill:#989a9d;}.cls-7{fill:#3e3e3f;}</style></defs><title>mail truck</title><rect class="cls-1" y="18.44" width="65.51" height="53.47"/><path class="cls-2" d="M89.8,47.17l-2.34-11.7a3.26,3.26,0,0,0-3.19-2.61H65.51V71.91H96.75A3.24,3.24,0,0,0,100,68.66V53a3.25,3.25,0,0,0-3.25-3.25H93a3.24,3.24,0,0,1-3.18-2.61"/><path class="cls-3" d="M84.44,50h-15V36H80.31a3.73,3.73,0,0,1,3.66,3l1.75,9.41A1.3,1.3,0,0,1,84.44,50"/><rect class="cls-4" x="16.81" y="30.69" width="28.96" height="18.55"/><polyline class="cls-4" points="16.81 30.7 31.29 42.73 45.77 30.7"/><line class="cls-4" x1="45.77" y1="49.24" x2="34.62" y2="39.97"/><line class="cls-4" x1="16.81" y1="49.24" x2="27.96" y2="39.97"/><rect class="cls-5" y="67.37" width="100" height="4.53"/><path class="cls-6" d="M21.15,79a7,7,0,1,1,7.05-7,7.05,7.05,0,0,1-7,7"/><path class="cls-7" d="M21.15,67.46a4.45,4.45,0,1,1-4.45,4.45,4.46,4.46,0,0,1,4.45-4.45m0-5.2a9.65,9.65,0,1,0,9.65,9.65,9.65,9.65,0,0,0-9.65-9.65"/><path class="cls-6" d="M79.5,79a7,7,0,1,1,7-7,7.05,7.05,0,0,1-7,7"/><path class="cls-7" d="M79.5,67.46a4.45,4.45,0,1,1-4.45,4.45,4.46,4.46,0,0,1,4.45-4.45m0-5.2a9.65,9.65,0,1,0,9.65,9.65,9.65,9.65,0,0,0-9.65-9.65"/></svg>