<svg id="Layer_1" data-name="Layer 1" xmlns="http://www.w3.org/2000/svg" viewBox="0 0 100 100"><defs><style>.cls-1{fill:#ffc640;}.cls-2{fill:#faad3f;}.cls-3{fill:#f37d3b;}.cls-4{fill:#bc6842;}.cls-5{fill:#d45131;}</style></defs><title>firewall</title><path class="cls-1" d="M30,0s7.43,5.74-9.27,23.51l14.6-.18h1C44.25,8.86,30,0,30,0"/><path class="cls-2" d="M8.64,30.51c1.27,2.93,9.15,2.34,17.61-1.32s11.56-5.63,11.35-5.68c-20.78-4.75-20-14.24-20-14.24s-10.27,18.3-9,21.24"/><path class="cls-3" d="M11,28.67a1.1,1.1,0,1,1-2.2,0,7.53,7.53,0,0,1,1.1-2.22A7.53,7.53,0,0,1,11,28.67"/><path class="cls-1" d="M32.67,24S40,29.77,23.1,47.34H38.7C46.85,33,32.67,24,32.67,24"/><path class="cls-3" d="M45.09,34.61a19.28,19.28,0,0,1-38.55,0c0-8.64,6.32-8.78,11.57-15C24.34,12.27,23,3,23,3S45.09,24,45.09,34.61"/><path class="cls-1" d="M21,35.12l.06,0c.06,0,.09,0,.12,0s.05.06.13,0l.29-.15a12.09,12.09,0,0,0,1.9-1.38A22.33,22.33,0,0,0,26.05,31c.42-.52.91-1.08,1.31-1.69a16.66,16.66,0,0,0,1.22-1.9,22.06,22.06,0,0,0,1.06-2.05c.37-.71.58-1.43.87-2.14s.42-1.43.63-2.12a16.53,16.53,0,0,0,.42-2c.09-.63.23-1.23.26-1.75s.06-1,.09-1.37c0-.78.07-1.22.07-1.22l.72,1,.83,1.17c.34.45.62,1,1,1.61a17.26,17.26,0,0,1,1.05,2,25.25,25.25,0,0,1,1,2.39c.28.86.66,1.77.87,2.71s.51,1.93.66,2.93a28.44,28.44,0,0,1,.41,3c.12,1,.12,2,.15,3a38.52,38.52,0,0,1-.36,5.49,31.31,31.31,0,0,1-.83,4.06l-.21.69c-.08.22-.19.47-.26.65a2.18,2.18,0,0,0-.13.34.33.33,0,0,1,0,.08,10.22,10.22,0,1,1-16-10.75Z"/><path class="cls-4" d="M26.49,44.89l.17-.16c.09-.09.22-.2.41-.41.38-.39.92-1,1.55-1.72S30,41,30.64,40a32.26,32.26,0,0,0,2-3.26c.32-.57.57-1.16.87-1.75s.48-1.18.7-1.76.37-1.16.5-1.72.22-1.09.3-1.59.07-1,.1-1.38a7.17,7.17,0,0,0,0-1.08c0-.61-.06-1-.06-1l.41.87a7.51,7.51,0,0,1,.45,1c.13.43.28.9.45,1.42s.21,1.12.33,1.75.13,1.29.19,2,0,1.41,0,2.15-.09,1.49-.19,2.23a36.12,36.12,0,0,1-.78,4.33c-.32,1.37-.7,2.63-1,3.71s-.69,2-1,2.61c-.12.3-.25.58-.33.77l-.11.25,0,.06a4.28,4.28,0,1,1-7.84-3.43,4.54,4.54,0,0,1,.9-1.32"/><path class="cls-5" d="M71,100H39.5a2.19,2.19,0,0,1-2.18-2.19V81.36a2.19,2.19,0,0,1,2.18-2.19H71a2.19,2.19,0,0,1,2.19,2.19V97.81A2.19,2.19,0,0,1,71,100"/><path class="cls-5" d="M53.18,76.76H14.77a2.41,2.41,0,0,1-2.4-2.4v-16a2.41,2.41,0,0,1,2.4-2.4H53.18a2.41,2.41,0,0,1,2.4,2.4v16a2.41,2.41,0,0,1-2.4,2.4"/><path class="cls-5" d="M97.62,76.76H59.92a2.38,2.38,0,0,1-2.38-2.38V58.31a2.38,2.38,0,0,1,2.38-2.38h37.7A2.39,2.39,0,0,1,100,58.31V74.38a2.39,2.39,0,0,1-2.38,2.38"/><path class="cls-5" d="M97.44,100H78.05a2.55,2.55,0,0,1-2.55-2.56V81.73a2.56,2.56,0,0,1,2.55-2.56H97.44A2.56,2.56,0,0,1,100,81.73V97.44A2.55,2.55,0,0,1,97.44,100"/><path class="cls-5" d="M31.75,100H3.3A3.3,3.3,0,0,1,0,96.7V82.48a3.31,3.31,0,0,1,3.3-3.31H31.75a3.31,3.31,0,0,1,3.3,3.31V96.7a3.3,3.3,0,0,1-3.3,3.3"/><path class="cls-5" d="M71.23,53.52h-22a1.85,1.85,0,0,1-1.85-1.85V34.54a1.85,1.85,0,0,1,1.85-1.85h22a1.85,1.85,0,0,1,1.85,1.85V51.67a1.85,1.85,0,0,1-1.85,1.85"/><path class="cls-5" d="M97.44,53.52H77.91A2.56,2.56,0,0,1,75.35,51V35.26a2.56,2.56,0,0,1,2.56-2.57H97.44A2.57,2.57,0,0,1,100,35.26V51a2.57,2.57,0,0,1-2.56,2.57"/></svg>