<svg id="Layer_1" data-name="Layer 1" xmlns="http://www.w3.org/2000/svg" xmlns:xlink="http://www.w3.org/1999/xlink" viewBox="0 0 100 100"><defs><style>.cls-1{fill:none;}.cls-2{clip-path:url(#clip-path);}.cls-3{fill:#58595b;}.cls-4{fill:#09a380;}.cls-5{fill:#069274;}.cls-6{fill:#09a582;}.cls-7{fill:#089a7a;}.cls-8{fill:#ffc63f;}.cls-9{fill:#e6b43b;}.cls-10{fill:#7b544f;}.cls-11{fill:#f05c38;}.cls-12{fill:#f7a895;}.cls-13{fill:#695084;}.cls-14{fill:#9a85b0;}.cls-15{fill:#ab89b1;}.cls-16{fill:#ae9dc0;}.cls-17{fill:#b88cb1;}.cls-18{fill:#d4bad0;}.cls-19{fill:#003f5f;}.cls-20{fill:#668c9f;}</style><clipPath id="clip-path"><path class="cls-1" d="M445.71-120H374.29A14.33,14.33,0,0,0,360-105.71v71.42A14.33,14.33,0,0,0,374.29-20h71.42A14.33,14.33,0,0,0,460-34.29v-71.42A14.33,14.33,0,0,0,445.71-120Z"/></clipPath></defs><title>fruit</title><g class="cls-2"><path class="cls-3" d="M157,15.57c184-94.05,341-155.93,357.11-141.2l119.17-60.92c-67.42,1.13-262.4,76.19-483,189C99.08,28.55,50.52,54.75,5.37,80.28H36C73.21,59.43,113.87,37.6,157,15.57Z"/></g><path class="cls-4" d="M94.18,83.63a5.29,5.29,0,0,0,1.15-.53A5.11,5.11,0,0,0,94.81,82,7.21,7.21,0,0,0,87,79a4.88,4.88,0,0,0-1.15.54,4.92,4.92,0,0,0,.53,1.15,7.21,7.21,0,0,0,7.84,2.9Zm0,0"/><path class="cls-5" d="M39.86,41.75C34,40.28,25.58,34.24,24.45,33.42L26,31.32c4.83,3.51,13.63,8.82,16.66,8.1L43.25,42A7.46,7.46,0,0,1,39.86,41.75Z"/><path class="cls-5" d="M36.32,39.53l-1-.85c0-.06,4.86-5.74,4.38-12.08a12.31,12.31,0,0,0-4.66-8.49l.84-1A13.55,13.55,0,0,1,41,26.51C41.54,33.39,36.54,39.28,36.32,39.53Z"/><path class="cls-6" d="M32.79,23.75a6.62,6.62,0,0,0,8,5l.08,0-1.69-7.14L33.5,18.9A10.18,10.18,0,0,0,32.79,23.75Z"/><path class="cls-7" d="M35.27,14.52A40.73,40.73,0,0,0,33.5,18.9l5.63,2.65-1.38-5.87Z"/><path class="cls-6" d="M36.77,11.55s-.69,1.24-1.5,3l2.48,1.16-1-4.12Z"/><path class="cls-5" d="M40.82,28.69a6.62,6.62,0,0,0,4.88-7.93c-.82-3.54-8.82-9.13-8.92-9.2Z"/><path class="cls-6" d="M30.1,35.41l-7.78-3.65-13.8,5a15,15,0,0,0,5,4.67,12,12,0,0,0,2.46.85l12.82-4.63A12.72,12.72,0,0,0,30.1,35.41Z"/><path class="cls-6" d="M28.75,37.64,15.93,42.27A12.52,12.52,0,0,0,28.75,37.64Z"/><path class="cls-7" d="M18.49,30,6.75,34.21c.57.89,1.17,1.74,1.77,2.54l13.8-5Z"/><path class="cls-6" d="M12.15,27l-8,2.88C5,31.32,5.84,32.8,6.75,34.21L18.49,30Z"/><path class="cls-7" d="M0,21.3s1.71,4.06,4.19,8.58l8-2.88Z"/><path class="cls-5" d="M24.09,18.78C17.83,15.84,0,21.3,0,21.3L30.1,35.41A12.51,12.51,0,0,0,24.09,18.78Z"/><circle class="cls-8" cx="47.75" cy="51.73" r="26.37"/><circle class="cls-9" cx="31.83" cy="40.91" r="0.91"/><circle class="cls-9" cx="28.48" cy="58.33" r="0.91"/><circle class="cls-9" cx="42.65" cy="67.07" r="0.91"/><circle class="cls-9" cx="50.59" cy="38.4" r="0.91"/><circle class="cls-9" cx="40.82" cy="58.23" r="0.91"/><circle class="cls-9" cx="57.09" cy="62.04" r="0.91"/><circle class="cls-9" cx="67.12" cy="55.46" r="0.91"/><circle class="cls-9" cx="48.04" cy="32.25" r="0.91"/><circle class="cls-9" cx="54.96" cy="33.98" r="0.91"/><path class="cls-10" d="M78.14,42.22a.81.81,0,0,1-.8-.81c0-5.11-.79-11.83-3-14a.81.81,0,0,1,1.12-1.16C78.7,29.41,79,38.65,79,41.41a.81.81,0,0,1-.81.81Zm0,0"/><path class="cls-11" d="M89.49,39a15.59,15.59,0,0,0-7.11.8,14.74,14.74,0,0,1-4.24.81,14.8,14.8,0,0,1-4.24-.81,15.55,15.55,0,0,0-7.1-.8c-4.8.74-10.51,3.52-10.51,12.64,0,8.61,2.85,20.39,10.91,25.25,2.12,1.28,4.56.9,7.14.5a25.5,25.5,0,0,1,3.8-.39,25.63,25.63,0,0,1,3.81.39,24.23,24.23,0,0,0,3.59.38,6.68,6.68,0,0,0,3.54-.88C97.14,72,100,60.24,100,51.63c0-9.12-5.71-11.9-10.51-12.64Z"/><path class="cls-4" d="M90,28.27a7.92,7.92,0,0,0,0-2.12,8.84,8.84,0,0,0-2.12,0A12,12,0,0,0,78,36a8.34,8.34,0,0,0,0,2.12,8.84,8.84,0,0,0,2.12,0A12,12,0,0,0,90,28.27Zm0,0"/><path class="cls-12" d="M95.08,47.87a4,4,0,1,1-4-4,4,4,0,0,1,4,4Zm0,0"/><circle class="cls-13" cx="24.79" cy="79.09" r="7.28"/><circle class="cls-13" cx="43.09" cy="71.9" r="6.76"/><circle class="cls-14" cx="36.75" cy="62.97" r="5.72"/><circle class="cls-14" cx="46.11" cy="82.73" r="5.72"/><circle class="cls-15" cx="36.02" cy="80.26" r="7.28"/><circle class="cls-14" cx="22.16" cy="76.47" r="1.56"/><circle class="cls-16" cx="37.75" cy="59.84" r="1.56"/><circle class="cls-16" cx="37.75" cy="76.47" r="1.56"/><circle class="cls-16" cx="43.98" cy="68.15" r="1.56"/><circle class="cls-16" cx="46.06" cy="79.59" r="1.56"/><path class="cls-4" d="M28.06,68.27a.8.8,0,0,1-1.13.17c-2.23-1.62-9.54-7.27-10.17-11.72a.81.81,0,1,1,1.6-.22c.43,3,5.4,7.63,9.52,10.64a.81.81,0,0,1,.18,1.13Zm0,0"/><circle class="cls-17" cx="31.03" cy="69.73" r="6.24"/><circle class="cls-18" cx="30.47" cy="66.08" r="1.56"/><path class="cls-4" d="M19.09,59.18l.85,1c-.06,0-5.67,5-6.13,11.29a12.27,12.27,0,0,0,3.34,9.1l-1,.85a13.54,13.54,0,0,1-3.65-10C13,64.48,18.84,59.4,19.09,59.18Z"/><path class="cls-6" d="M20.23,75.31a6.62,6.62,0,0,0-7.12-6.09H13l.6,7.32L18.81,80A10.08,10.08,0,0,0,20.23,75.31Z"/><path class="cls-7" d="M16.4,84.07A41.66,41.66,0,0,0,18.81,80l-5.18-3.45.49,6Z"/><path class="cls-6" d="M14.48,86.78s.86-1.12,1.92-2.71l-2.28-1.52.35,4.22Z"/><path class="cls-5" d="M13,69.23a6.62,6.62,0,0,0-6,7.11C7.3,80,14.38,86.69,14.47,86.77Z"/><circle class="cls-19" cx="75.43" cy="80.26" r="6.31"/><circle class="cls-20" cx="73.78" cy="78.29" r="1.65"/><circle class="cls-19" cx="86.26" cy="78.72" r="2.62"/><circle class="cls-20" cx="87.05" cy="78.04" r="0.79"/><circle class="cls-19" cx="60.47" cy="77.25" r="3.85"/><circle class="cls-20" cx="59.1" cy="76.55" r="1.16"/></svg>