<svg id="Layer_1" data-name="Layer 1" xmlns="http://www.w3.org/2000/svg" xmlns:xlink="http://www.w3.org/1999/xlink" viewBox="0 0 100 100"><defs><style>.cls-1{fill:none;}.cls-2{fill:#a35323;}.cls-3{fill:#d56e33;}.cls-4{fill:#b2e2f9;}.cls-5{fill:#f5853c;}.cls-6{clip-path:url(#clip-path);}.cls-7{fill:#fff;}.cls-8{clip-path:url(#clip-path-2);}</style><clipPath id="clip-path"><rect class="cls-1" x="74.78" y="50.56" width="19.7" height="32.27"/></clipPath><clipPath id="clip-path-2"><rect class="cls-1" x="16.67" y="50.56" width="19.7" height="32.27"/></clipPath></defs><title>binoculars</title><rect class="cls-2" x="40.64" y="30.46" width="18.93" height="38.47"/><polygon class="cls-3" points="12.41 22.71 43.82 24.43 43.82 65.5 1.06 58.76 12.41 22.71"/><polygon class="cls-3" points="87.59 21.88 56.18 23.59 56.18 64.66 98.94 58.76 87.59 21.88"/><path class="cls-4" d="M21.91,84.35A18.86,18.86,0,1,1,40.76,65.5,18.87,18.87,0,0,1,21.91,84.35"/><path class="cls-4" d="M78.09,84.35A18.86,18.86,0,1,1,97,65.5,18.86,18.86,0,0,1,78.09,84.35"/><path class="cls-3" d="M87.79,23.59c0,6.08-7.08,11-15.81,11s-15.8-4.92-15.8-11,7.08-11,15.8-11,15.81,4.93,15.81,11"/><path class="cls-3" d="M43.82,24.43c0,6.08-7.08,11-15.8,11s-15.81-4.92-15.81-11,7.08-11,15.81-11,15.8,4.93,15.8,11"/><rect class="cls-5" x="41.73" y="63.44" width="15.93" height="6.77"/><g class="cls-6"><polygon class="cls-7" points="82.27 82.83 74.78 82.83 88.57 50.56 94.48 54.23 82.27 82.83"/></g><g class="cls-8"><polygon class="cls-7" points="24.15 82.83 16.67 82.83 30.45 50.56 36.36 54.23 24.15 82.83"/></g><path class="cls-5" d="M21.91,49.7A15.8,15.8,0,1,1,6.11,65.5a15.82,15.82,0,0,1,15.8-15.8m0-6.11A21.91,21.91,0,1,0,43.82,65.5,21.91,21.91,0,0,0,21.91,43.59"/><path class="cls-5" d="M78.09,49.7a15.8,15.8,0,1,1-15.8,15.8,15.82,15.82,0,0,1,15.8-15.8m0-6.11A21.91,21.91,0,1,0,100,65.5,21.91,21.91,0,0,0,78.09,43.59"/></svg>