<svg id="Layer_1" data-name="Layer 1" xmlns="http://www.w3.org/2000/svg" xmlns:xlink="http://www.w3.org/1999/xlink" viewBox="0 0 100 100"><defs><style>.cls-1{fill:none;}.cls-2{fill:#7d7d7d;}.cls-3{fill:#ffc63f;}.cls-4{fill:#9dc8dc;}.cls-5{fill:#ffcf2b;}.cls-6{fill:#ffb902;}.cls-7{fill:#fb9400;}.cls-8{clip-path:url(#clip-path);}.cls-9{fill:#ce8561;}.cls-10{fill:#f6ccb5;}.cls-11{fill:#e1ab75;}.cls-12{fill:#b88665;}.cls-13{fill:#9c6d52;}.cls-14{clip-path:url(#clip-path-2);}.cls-15{fill:#f5bebd;}.cls-16{clip-path:url(#clip-path-3);}.cls-17{fill:#ebb1b2;}.cls-18{fill:#ffc640;}</style><clipPath id="clip-path"><path class="cls-1" d="M36.37,13.93A13.93,13.93,0,1,0,50.3,0,13.93,13.93,0,0,0,36.37,13.93"/></clipPath><clipPath id="clip-path-2"><path class="cls-1" d="M1.69,24.12A13.93,13.93,0,1,0,15.62,10.2,13.93,13.93,0,0,0,1.69,24.12"/></clipPath><clipPath id="clip-path-3"><path class="cls-1" d="M64.37,65.5A14.15,14.15,0,1,0,78.51,51.36,14.14,14.14,0,0,0,64.37,65.5"/></clipPath></defs><title>astronomer</title><path class="cls-2" d="M21.13,94.64,19.39,94a.73.73,0,0,1-.43-.93l8.3-22.56a.71.71,0,0,1,.92-.42l1.74.64a.72.72,0,0,1,.43.92l-8.3,22.56a.72.72,0,0,1-.92.43"/><path class="cls-2" d="M40.12,95l1.63-.6a.77.77,0,0,0,.46-1l-8.4-22.83a.77.77,0,0,0-1-.46l-1.64.6a.77.77,0,0,0-.46,1l8.4,22.84a.78.78,0,0,0,1,.46"/><path class="cls-2" d="M31.79,100H30.05a.78.78,0,0,1-.78-.78V70.43a.78.78,0,0,1,.78-.78h1.74a.78.78,0,0,1,.78.78V99.22a.78.78,0,0,1-.78.78"/><path class="cls-2" d="M31.79,83.33H30.05a.78.78,0,0,1-.78-.78V53.76a.78.78,0,0,1,.78-.78h1.74a.78.78,0,0,1,.78.78V82.55a.78.78,0,0,1-.78.78"/><path class="cls-3" d="M34.39,73.41H27.45A1.38,1.38,0,0,1,26.07,72V69a1.38,1.38,0,0,1,1.38-1.37h6.94A1.38,1.38,0,0,1,35.76,69V72a1.38,1.38,0,0,1-1.37,1.37"/><path class="cls-3" d="M13.75,61.6l-10.27,4a1.44,1.44,0,0,1-1.85-.81l-1.17-3A1.44,1.44,0,0,1,1.27,60l10.27-4a1.45,1.45,0,0,1,1.86.81l1.16,3a1.43,1.43,0,0,1-.81,1.85"/><path class="cls-3" d="M31.31,56.88,12.94,64.06a2.38,2.38,0,0,1-3.07-1.35L7.94,57.78A2.39,2.39,0,0,1,9.29,54.7l18.36-7.18a2.37,2.37,0,0,1,3.07,1.35l1.93,4.93a2.38,2.38,0,0,1-1.34,3.08"/><path class="cls-3" d="M64.73,44.88l-44,17.21A2.85,2.85,0,0,1,17,60.48l-2.31-5.92a2.85,2.85,0,0,1,1.61-3.68l44-17.21A2.85,2.85,0,0,1,64,35.28l2.31,5.92a2.85,2.85,0,0,1-1.61,3.68"/><path class="cls-4" d="M64.06,38.68a4.47,4.47,0,1,1-5.79-2.54,4.47,4.47,0,0,1,5.79,2.54"/><path class="cls-3" d="M10.81,59.5,9.64,60a.57.57,0,0,1-.73-.32L6,52.29a.56.56,0,0,1,.32-.72l1.16-.46a.57.57,0,0,1,.73.32l2.87,7.35a.55.55,0,0,1-.31.72"/><path class="cls-3" d="M2.93,53.46,2,51.08a1.15,1.15,0,0,1,.65-1.48l15-5.86a1.14,1.14,0,0,1,1.48.65L20,46.77a1.14,1.14,0,0,1-.65,1.48l-15,5.86a1.16,1.16,0,0,1-1.48-.65"/><path class="cls-3" d="M19.78,56l-1.17.46a.57.57,0,0,1-.73-.32L15,48.79a.57.57,0,0,1,.32-.73l1.16-.46a.57.57,0,0,1,.73.32l2.87,7.35a.55.55,0,0,1-.31.72"/><path class="cls-4" d="M19,45.8a1.82,1.82,0,0,1-3.39,1.32A1.82,1.82,0,1,1,19,45.8"/><path class="cls-5" d="M94.71,14.48a12.7,12.7,0,1,1-18,0,12.7,12.7,0,0,1,18,0"/><path class="cls-6" d="M75.54,31a20.15,20.15,0,0,0,3.61-3.44c1.86-2.81,1.16-4.72,1.18-6.71s1-4.84.27-6.27A6.39,6.39,0,0,0,79,12.69a13.1,13.1,0,0,0-2.25,1.79A12.71,12.71,0,0,0,75.54,31"/><path class="cls-6" d="M85.56,10.76a12.6,12.6,0,0,0-3.6.58l.38.24C84.2,12.78,84,14.91,84,17.69c0,1.92,1.24,4.27.69,6.46-.67,2.63-3,5.21-4,7.59a16.18,16.18,0,0,0-.85,3A12.7,12.7,0,0,0,90,35.43c4.88-10.74-3.15-22.88-4.4-24.67"/><path class="cls-6" d="M88.88,11.16a16.92,16.92,0,0,0,1.84,2.73c1.18,1.43,3.93,2.42,5,4.37s-.83,5.94-.43,8a20.69,20.69,0,0,0,1.39,3.56,12.71,12.71,0,0,0-2-15.38,12.58,12.58,0,0,0-5.83-3.32"/><path class="cls-5" d="M77.26,25.46a.91.91,0,0,1,0,1.31.93.93,0,1,1,0-1.31"/><path class="cls-5" d="M89.49,31.16a.94.94,0,0,1-1.33,1.32.92.92,0,0,1,0-1.32.94.94,0,0,1,1.33,0"/><path class="cls-6" d="M82.81,15.18a.57.57,0,1,1-.8,0,.57.57,0,0,1,.8,0"/><path class="cls-6" d="M92.08,16.5a.54.54,0,1,1-.77,0,.55.55,0,0,1,.77,0"/><path class="cls-6" d="M94.08,24.75a.48.48,0,0,1,0,.67.47.47,0,0,1-.66,0,.47.47,0,0,1,0-.67.47.47,0,0,1,.66,0"/><path class="cls-5" d="M76.63,18.13a.53.53,0,1,1-.75,0,.54.54,0,0,1,.75,0"/><path class="cls-7" d="M93.27,13.24a13,13,0,0,1,1.22,1,26.1,26.1,0,0,1,3.07-2c-1.21,2.28-4.59,6.88-10.71,13s-10.72,9.49-13,10.7a30.59,30.59,0,0,1,2.58-3.86,13.2,13.2,0,0,1-1-1.23c-2.77,3.59-4.18,6.27-3.47,7,1.24,1.24,8.4-3.91,16-11.5s12.74-14.75,11.5-16c-.66-.66-3,.49-6.18,2.86"/><g class="cls-8"><path class="cls-9" d="M63.49,23.56c0,2.75-6.23,5-13.92,5s-13.92-2.22-13.92-5,6.23-5,13.92-5,13.92,2.23,13.92,5"/><path class="cls-10" d="M70,16.24c.21,3.88-9.1,7.54-20.78,8.16s-21.34-2-21.54-5.9S36.78,11,48.47,10.34s21.33,2,21.54,5.9"/><path class="cls-11" d="M70.22,15.6c-.33,4-9.71,6.52-20.95,5.59s-20.08-4.92-19.75-8.93,9.71-6.52,21-5.6,20.08,4.93,19.75,8.94"/><path class="cls-9" d="M72.89,15C72,19.39,61.24,20.81,49,18.18S27.5,9.86,28.44,5.48,40.09-.32,52.36,2.31,73.83,10.63,72.89,15"/><path class="cls-10" d="M70.19,8.32c0,3.45-8.42,6.25-18.8,6.25s-18.8-2.8-18.8-6.25S41,2.07,51.39,2.07s18.8,2.8,18.8,6.25"/><path class="cls-11" d="M71.42,6.21c-.55,4-10.06,6-21.23,4.43S30.41,4.61,31,.62,41-5.35,52.19-3.81s19.78,6,19.23,10"/><path class="cls-9" d="M66.09,2.13c0,2.74-6.23,5-13.92,5s-13.92-2.23-13.92-5,6.23-5,13.92-5,13.92,2.22,13.92,5"/><path class="cls-10" d="M63.49.54c0,1.87-4.56,3.38-10.17,3.38S43.14,2.41,43.14.54,47.7-2.84,53.32-2.84,63.49-1.33,63.49.54"/></g><path class="cls-11" d="M60.44,14.63a1.83,1.83,0,1,1-1.83-1.83,1.82,1.82,0,0,1,1.83,1.83"/><path class="cls-12" d="M29.55,24.12A13.93,13.93,0,1,1,15.62,10.2,13.93,13.93,0,0,1,29.55,24.12"/><path class="cls-13" d="M23,18.94c0,1-1.32,1.82-2.94,1.82s-3-.81-3-1.82,1.32-1.83,3-1.83S23,17.93,23,18.94"/><path class="cls-13" d="M25.79,20.76c0,1-1.32,1.83-2.94,1.83s-3-.82-3-1.83,1.32-1.82,3-1.82,2.94.81,2.94,1.82"/><path class="cls-13" d="M13.18,28.3a1.65,1.65,0,1,1-1.64-1.64,1.64,1.64,0,0,1,1.64,1.64"/><path class="cls-13" d="M7.44,19.93c0,.55-.94,1-2.11,1s-2.1-.44-2.1-1,.94-1,2.1-1,2.11.44,2.11,1"/><path class="cls-13" d="M15.18,22a.88.88,0,1,1-.88-.88.87.87,0,0,1,.88.88"/><path class="cls-13" d="M21.52,13.58a.81.81,0,1,1-1.62,0,.81.81,0,1,1,1.62,0"/><path class="cls-13" d="M20,33.72a1,1,0,1,1-1-1,1,1,0,0,1,1,1"/><path class="cls-13" d="M5.58,26.36a.74.74,0,1,1-.74-.74.74.74,0,0,1,.74.74"/><g class="cls-14"><path class="cls-13" d="M31.71,29.93c0,1.56-2,2.83-4.56,2.83s-4.57-1.27-4.57-2.83,2.05-2.83,4.57-2.83,4.56,1.27,4.56,2.83"/><path class="cls-13" d="M6.92,36.45c0,1.6,1.64,2.89,3.67,2.89s3.67-1.29,3.67-2.89-1.64-2.89-3.67-2.89-3.67,1.29-3.67,2.89"/><path class="cls-13" d="M15.18,11.31c0,1.58-1.63,2.85-3.64,2.85S7.9,12.89,7.9,11.31s1.63-2.85,3.64-2.85,3.64,1.27,3.64,2.85"/></g><path class="cls-15" d="M92.66,65.5A14.15,14.15,0,1,1,78.51,51.36,14.15,14.15,0,0,1,92.66,65.5"/><g class="cls-16"><path class="cls-17" d="M62.25,72a21.84,21.84,0,0,0,5.47-1.09c2-.84,9-2,12.16-1.6s7.21,1.27,7.87,2-1.18,1.7-2,1.89-2.4-.33-3.34,0-3.21,1.7-6.22,2.78S72.38,78.23,68.42,78s-6.17-6-6.17-6"/><path class="cls-17" d="M92.79,58.8S85.1,58.44,82.28,60s-3.78,2.4-5.66,2.92-3.16,1.22-2.78,1.65,5.84,1.65,7.63,1.27,5.22-2.78,8.79-1.6,5.74,1.18,6.49.61-4-6-4-6"/><path class="cls-17" d="M65.86,55.17c1.23.29,4.2,1.95,6.84,1.9a45.5,45.5,0,0,0,8.49-1c1.6-.47-1.18-1.41-2-1.67s-4.57.44-5.63.39-3.33-1.36-4.6-1.6-3.07,1.93-3.07,1.93"/><path class="cls-17" d="M70.24,60.91a.46.46,0,0,1-.46.46.45.45,0,0,1-.46-.46.46.46,0,0,1,.46-.46.47.47,0,0,1,.46.46"/><path class="cls-17" d="M86.82,56.05a.55.55,0,1,1-.55-.55.55.55,0,0,1,.55.55"/><path class="cls-17" d="M87.3,67.92a.56.56,0,0,1-.57.57.57.57,0,0,1-.58-.57.58.58,0,0,1,.58-.58.57.57,0,0,1,.57.58"/><path class="cls-17" d="M81.44,77.5a.78.78,0,1,1-.78-.78.78.78,0,0,1,.78.78"/></g><path class="cls-18" d="M35.07,33.72a.81.81,0,1,1-1.62,0,.81.81,0,1,1,1.62,0"/><path class="cls-18" d="M72.59,7.77A.81.81,0,1,1,71.78,7a.81.81,0,0,1,.81.81"/><path class="cls-18" d="M56.24,66.31a.81.81,0,1,1-.81-.81.81.81,0,0,1,.81.81"/><path class="cls-18" d="M98,43.55s-12.92,2.3-14.19,2.3a2.31,2.31,0,1,1,0-4.61c1.27,0,14.19,2.31,14.19,2.31"/><path class="cls-18" d="M86.12,43.55a2.31,2.31,0,1,1-2.3-2.31,2.3,2.3,0,0,1,2.3,2.31"/><path class="cls-18" d="M31.29,6S18.37,8.32,17.1,8.32a2.31,2.31,0,1,1,0-4.61C18.37,3.71,31.29,6,31.29,6"/><path class="cls-18" d="M19.4,6a2.31,2.31,0,1,1-2.3-2.31A2.3,2.3,0,0,1,19.4,6"/><path class="cls-18" d="M88.92,88.82S64,93.26,61.59,93.26a4.44,4.44,0,0,1,0-8.88c2.45,0,27.33,4.44,27.33,4.44"/><path class="cls-18" d="M66,88.82a4.44,4.44,0,1,1-4.44-4.44A4.44,4.44,0,0,1,66,88.82"/></svg>