<svg id="Layer_1" data-name="Layer 1" xmlns="http://www.w3.org/2000/svg" viewBox="0 0 100 100"><defs><style>.cls-1{fill:#f9a63f;}.cls-2{fill:#f89c3e;}.cls-3{fill:#7d7d7d;}.cls-4{fill:#121212;}.cls-5{fill:#5a9eba;}.cls-6{fill:#ffc63f;}.cls-7{fill:#270e29;}</style></defs><title>excavator</title><path class="cls-1" d="M53.56,29.63h0a5.2,5.2,0,0,1-6.72-3L32.15,8.2a5.21,5.21,0,1,1,9.72-3.73L56.56,22.9a5.21,5.21,0,0,1-3,6.73"/><path class="cls-2" d="M8.29,28.76h0A3.24,3.24,0,0,1,10,24.64L35.15,1.48a4.89,4.89,0,1,1,3.5,9.12L12.29,30.69a3.24,3.24,0,0,1-4-1.93"/><path class="cls-3" d="M38.51,96.27a9.61,9.61,0,0,1,0-19.21H87.7a9.61,9.61,0,1,1,0,19.21Z"/><path class="cls-4" d="M87.7,79.76a6.91,6.91,0,0,1,0,13.82H38.51a6.91,6.91,0,0,1,0-13.82H87.7m0-5.39H38.51a12.3,12.3,0,1,0,0,24.6H87.7a12.3,12.3,0,0,0,0-24.6"/><path class="cls-4" d="M43.22,86.58a3.14,3.14,0,1,1-3.14-3.14,3.14,3.14,0,0,1,3.14,3.14"/><path class="cls-4" d="M66.25,86.67a3.14,3.14,0,1,1-3.14-3.14,3.15,3.15,0,0,1,3.14,3.14"/><path class="cls-4" d="M89.27,86.67a3.14,3.14,0,1,1-3.14-3.14,3.14,3.14,0,0,1,3.14,3.14"/><path class="cls-1" d="M74.26,43.13V28.23a3.59,3.59,0,0,0-3.59-3.59H45.08a3.59,3.59,0,0,0-3.5,2.79L32.44,67.56A3.59,3.59,0,0,0,35.94,72h53.4a3.59,3.59,0,0,0,3.59-3.59v-18a3.59,3.59,0,0,0-3.59-3.59H77.85a3.59,3.59,0,0,1-3.59-3.59"/><path class="cls-5" d="M67.8,28.77H47.67a2.69,2.69,0,0,0-2.62,2.08l-7,30.43a2.69,2.69,0,0,0,4,2.92l27.14-16a2.68,2.68,0,0,0,1.32-2.32V31.46a2.68,2.68,0,0,0-2.69-2.69"/><path class="cls-6" d="M79.4,53.05h9a1.55,1.55,0,0,0,0-3.1h-9a1.55,1.55,0,0,0,0,3.1"/><path class="cls-6" d="M79.4,58.37h9a1.55,1.55,0,0,0,0-3.1h-9a1.55,1.55,0,0,0,0,3.1"/><path class="cls-4" d="M38.83,5.3a2.38,2.38,0,1,1-3.07-1.37A2.37,2.37,0,0,1,38.83,5.3"/><path class="cls-1" d="M13.48,57.54l-.75-28.42a2.37,2.37,0,1,0-4.38-1.81l3.37,29.51a1,1,0,0,0,.56,1.2,1,1,0,0,0,1.2-.48"/><path class="cls-4" d="M11.58,27.82a1.3,1.3,0,0,1-2.43.94,1.3,1.3,0,1,1,2.43-.94"/><rect class="cls-7" x="38.44" y="22.4" width="26.39" height="2.24"/><path class="cls-3" d="M20.74,77.42H10.61a10.62,10.62,0,0,1,0-21.23h3.66l0,8.59a15.81,15.81,0,0,0,6.43,12.64"/></svg>