<svg id="Layer_1" data-name="Layer 1" xmlns="http://www.w3.org/2000/svg" xmlns:xlink="http://www.w3.org/1999/xlink" viewBox="0 0 100 100"><defs><style>.cls-1{fill:none;}.cls-2{fill:#c5c7c9;}.cls-3{clip-path:url(#clip-path);}.cls-4{fill:#ebf7fd;}</style><clipPath id="clip-path"><rect class="cls-1" x="52.06" y="4.23" width="43.71" height="43.71"/></clipPath></defs><title>spoon</title><path class="cls-2" d="M2,98H2a6.94,6.94,0,0,1,0-9.83L61.36,28.8l9.84,9.84L11.87,98A6.94,6.94,0,0,1,2,98"/><path class="cls-2" d="M89.19,41.37c-11.68,11.68-28,14.3-36.42,5.87S47,22.49,58.63,10.81s28-14.3,36.43-5.87,5.81,24.75-5.87,36.43"/><g class="cls-3"><path class="cls-4" d="M86.71,38.89c-9.78,9.78-23.44,12-30.51,4.91s-4.87-20.73,4.91-30.51,23.45-12,30.51-4.91,4.87,20.72-4.91,30.51"/></g></svg>