<svg id="Layer_1" data-name="Layer 1" xmlns="http://www.w3.org/2000/svg" xmlns:xlink="http://www.w3.org/1999/xlink" viewBox="0 0 100 100"><defs><style>.cls-1,.cls-7{fill:none;}.cls-2{fill:#ebf7fd;}.cls-3{fill:#b2e2f9;}.cls-4{fill:#946660;}.cls-5{fill:#5a9eba;}.cls-6{fill:#fff;}.cls-7{stroke:#fff;stroke-miterlimit:10;stroke-width:0.93px;}.cls-8{fill:#f9a63f;}.cls-9{fill:#ffe5b1;}.cls-10{fill:#86aabc;}.cls-11{clip-path:url(#clip-path);}.cls-12{clip-path:url(#clip-path-2);}.cls-13{clip-path:url(#clip-path-3);}.cls-14{clip-path:url(#clip-path-4);}.cls-15{fill:#09a582;}.cls-16{fill:#ffc63f;}.cls-17{fill:#00795e;}.cls-18{fill:#f5853c;}</style><clipPath id="clip-path"><rect class="cls-1" x="75.7" y="41.06" width="16.25" height="34.06"/></clipPath><clipPath id="clip-path-2"><rect class="cls-1" x="70.41" y="41.06" width="14.25" height="34.06"/></clipPath><clipPath id="clip-path-3"><rect class="cls-1" x="15.24" y="41.06" width="16.25" height="34.06"/></clipPath><clipPath id="clip-path-4"><rect class="cls-1" x="9.95" y="41.06" width="14.25" height="34.06"/></clipPath></defs><title>restaurant</title><rect class="cls-2" x="2.27" y="11.89" width="95.24" height="79.4"/><rect class="cls-3" x="38.33" y="39.42" width="23.35" height="50.19"/><path class="cls-4" d="M60.32,87.94H39.68V41.1H60.32ZM63,37.75H37V91.29H63Z"/><rect class="cls-4" x="38.57" y="75.33" width="22.87" height="3.1"/><rect class="cls-5" x="43.04" y="57.95" width="14.42" height="4.71"/><rect class="cls-6" x="43.04" y="56.87" width="14.42" height="4.71"/><line class="cls-7" x1="44.98" y1="57.52" x2="49.94" y2="50.49"/><line class="cls-7" x1="54.9" y1="57.52" x2="49.94" y2="50.49"/><path class="cls-5" d="M50.73,50.49a.79.79,0,1,1-.79-.79.79.79,0,0,1,.79.79"/><rect class="cls-8" y="8.62" width="99.37" height="3.27"/><rect class="cls-3" x="67.73" y="39.4" width="26.44" height="37.37"/><path class="cls-4" d="M92.31,41.06V75.12H68.22V41.06H93.31M95,37.75H65.57V78.43H95Z"/><rect class="cls-3" x="7.28" y="39.4" width="26.44" height="37.37"/><path class="cls-4" d="M31.85,41.06V75.12H7.77V41.06H32.85m1.65-3.31H5.12V78.43H34.5Z"/><path class="cls-9" d="M50,34.65c-9.57,0-17.36-4.67-17.36-10.4S40.43,13.85,50,13.85s17.36,4.67,17.36,10.4S59.57,34.65,50,34.65"/><path class="cls-8" d="M50,14.46c9.08,0,16.76,4.48,16.76,9.79s-7.68,9.8-16.76,9.8-16.76-4.49-16.76-9.8S40.92,14.46,50,14.46m0-1.21c-9.92,0-18,4.93-18,11s8,11,18,11,18-4.92,18-11-8-11-18-11"/><path class="cls-10" d="M68.22,41.06l12.43,0s.13,22.64-12.43,34Z"/><path class="cls-10" d="M92.21,41.06l-12.42,0s-.13,22.64,12.42,34Z"/><path class="cls-10" d="M7.81,41.06l12.43,0s.13,22.64-12.43,34Z"/><path class="cls-10" d="M31.81,41.06l-12.43,0s-.13,22.64,12.43,34Z"/><g class="cls-11"><polygon class="cls-2" points="79.95 75.12 75.7 75.12 87.7 41.06 91.95 41.06 79.95 75.12"/></g><g class="cls-12"><polygon class="cls-2" points="72.66 75.12 70.41 75.12 82.41 41.06 84.66 41.06 72.66 75.12"/></g><g class="cls-13"><polygon class="cls-2" points="19.49 75.12 15.24 75.12 27.24 41.06 31.49 41.06 19.49 75.12"/></g><g class="cls-14"><polygon class="cls-2" points="12.2 75.12 9.95 75.12 21.95 41.06 24.2 41.06 12.2 75.12"/></g><path class="cls-15" d="M13,79.19c0-1.73-.89-3.31-2.61-3.31h-.14c-.28-1.41-1.1-2.72-2.48-2.72-1.62,0-3.71,1.24-3.95,2.82a3.72,3.72,0,0,0-.79-.1c-1.73,0-2.61,1.58-2.61,3.31a3.13,3.13,0,0,0,3,3.13H10a3.13,3.13,0,0,0,3-3.13"/><rect class="cls-16" x="1.86" y="81.55" width="9.73" height="9.73"/><path class="cls-15" d="M27.51,79.29c0-1.73-.89-3.31-2.62-3.31h-.14c-.27-1.41-1.09-2.72-2.47-2.72-1.62,0-3.71,1.24-4,2.82a3.19,3.19,0,0,0-.8-.1c-1.72,0-2.61,1.58-2.61,3.31a3.12,3.12,0,0,0,3,3.12h6.55a3.12,3.12,0,0,0,3-3.12"/><rect class="cls-16" x="16.35" y="81.65" width="9.73" height="9.73"/><path class="cls-17" d="M7.15,88.63c0-1.47.75-2.82,2.22-2.82h.12c.23-1.2.93-2.31,2.1-2.31,1.38,0,3.16,1,3.36,2.4a2.83,2.83,0,0,1,.68-.09c1.47,0,2.22,1.35,2.22,2.82a2.66,2.66,0,0,1-2.56,2.65H9.71a2.66,2.66,0,0,1-2.56-2.65"/><path class="cls-17" d="M23.37,88.63c0-1.47.75-2.82,2.22-2.82h.12c.23-1.2.93-2.31,2.1-2.31,1.38,0,3.16,1,3.36,2.4a2.77,2.77,0,0,1,.68-.09c1.47,0,2.22,1.35,2.22,2.82a2.66,2.66,0,0,1-2.57,2.65H25.93a2.66,2.66,0,0,1-2.56-2.65"/><path class="cls-15" d="M100,79.29c0-1.73-.89-3.31-2.61-3.31h-.14c-.28-1.41-1.1-2.72-2.48-2.72-1.62,0-3.71,1.24-4,2.82A3.17,3.17,0,0,0,90,76c-1.73,0-2.61,1.58-2.61,3.31a3.12,3.12,0,0,0,3,3.12H97a3.12,3.12,0,0,0,3-3.12"/><rect class="cls-16" x="88.84" y="81.65" width="9.73" height="9.73"/><path class="cls-15" d="M84.46,79.29c0-1.73-.89-3.31-2.62-3.31h-.13c-.28-1.41-1.1-2.72-2.48-2.72-1.62,0-3.71,1.24-4,2.82a3.19,3.19,0,0,0-.8-.1c-1.72,0-2.61,1.58-2.61,3.31a3.12,3.12,0,0,0,3,3.12h6.55a3.12,3.12,0,0,0,3-3.12"/><rect class="cls-16" x="73.3" y="81.65" width="9.73" height="9.73"/><path class="cls-17" d="M91.35,88.63c0-1.47-.75-2.82-2.22-2.82H89c-.23-1.2-.93-2.31-2.1-2.31-1.39,0-3.16,1-3.36,2.4a2.83,2.83,0,0,0-.68-.09c-1.47,0-2.22,1.35-2.22,2.82a2.66,2.66,0,0,0,2.56,2.65h5.58a2.66,2.66,0,0,0,2.56-2.65"/><path class="cls-17" d="M75.68,88.73c0-1.47-.75-2.82-2.22-2.82h-.12c-.23-1.2-.93-2.32-2.1-2.32-1.38,0-3.16,1.06-3.36,2.41a2.71,2.71,0,0,0-.68-.09c-1.47,0-2.22,1.35-2.22,2.82a2.66,2.66,0,0,0,2.57,2.65h5.57a2.66,2.66,0,0,0,2.56-2.65"/><path class="cls-8" d="M54.8,16.16h0a.8.8,0,0,1,.8.8v9.56H54V17a.79.79,0,0,1,.79-.8"/><path class="cls-8" d="M52.34,27.75c0-1.88,1.1-3.41,2.46-3.41s2.47,1.53,2.47,3.41-1.11,3.41-2.47,3.41-2.46-1.52-2.46-3.41"/><path class="cls-8" d="M45.2,16.16h0A.8.8,0,0,1,46,17v9.56H44.4V17a.8.8,0,0,1,.8-.8"/><path class="cls-8" d="M42.73,27.75c0-1.88,1.11-3.41,2.47-3.41s2.46,1.53,2.46,3.41-1.1,3.41-2.46,3.41-2.47-1.52-2.47-3.41"/><path class="cls-8" d="M51.22,16.64v3.41a.28.28,0,1,1-.55,0V16.64a.25.25,0,0,0-.25-.25h0a.25.25,0,0,0-.25.25V20a.29.29,0,0,1-.23.29.28.28,0,0,1-.33-.27V16.64a.25.25,0,0,0-.24-.25h0a.25.25,0,0,0-.25.25v3.41a.28.28,0,1,1-.55,0V16.64a.25.25,0,0,0-.25-.25.25.25,0,0,0-.25.25v3.71a1.89,1.89,0,0,0,3.77,0V16.64a.25.25,0,0,0-.25-.25h-.05a.25.25,0,0,0-.25.25"/><path class="cls-8" d="M49.89,31.48h0a.8.8,0,0,1-.8-.8V21.06h1.59v9.62a.79.79,0,0,1-.79.8"/><path class="cls-18" d="M74.12,25a1.22,1.22,0,1,1-1.22-1.22A1.22,1.22,0,0,1,74.12,25"/><path class="cls-18" d="M28.46,25a1.22,1.22,0,1,1-1.22-1.22A1.22,1.22,0,0,1,28.46,25"/></svg>