<svg id="Layer_1" data-name="Layer 1" xmlns="http://www.w3.org/2000/svg" xmlns:xlink="http://www.w3.org/1999/xlink" viewBox="0 0 100 100"><defs><style>.cls-1{fill:none;}.cls-2{fill:#f05c38;}.cls-3{fill:#c7552e;}.cls-4{fill:#f37d60;}.cls-5{fill:#bf9b77;}.cls-6{fill:#3e3e3f;}.cls-7{clip-path:url(#clip-path);}.cls-8{fill:#7d7d7d;}.cls-9{fill:#09a582;}.cls-10{fill:#895e59;}.cls-11{fill:#f37d3b;}.cls-12{fill:#048d6f;}.cls-13{fill:#6a4743;}</style><clipPath id="clip-path"><path class="cls-1" d="M49,1.86c-2.51,1.19-4.56,5.2-4.56,7.7V55c0,2.51,2.05,2.62,4.56,1.43,12-5.82,23.92,6,35.88,7.67,4.71-4.06,9.42-9.72,14.13-18.68V9.56C99.05,7,97,6.94,94.48,8.13,86.91,11.81,79.33,8.4,71.76,5,66.5,2.63,61.25.27,56,.27a15.66,15.66,0,0,0-7,1.59"/></clipPath></defs><title>tailor</title><path class="cls-2" d="M99,9.56C99.05,7,97,6.94,94.48,8.13,79.33,15.5,64.18-5.51,49,1.86c-2.51,1.19-4.56,5.2-4.56,7.7V55c0,2.51,2.05,2.62,4.56,1.43,12-5.82,23.92,6,35.88,7.67C89.62,60,94.33,54.39,99,45.43Z"/><path class="cls-3" d="M99,45.43a17,17,0,0,1-9.57,4.62c-2.51.29-4.56,2-4.56,4.49v9.57C89.62,60,94.33,54.39,99,45.43"/><path class="cls-3" d="M46.88,58h0a7.56,7.56,0,0,1-7.54-7.54V7.54a7.55,7.55,0,0,1,15.09,0V50.43A7.57,7.57,0,0,1,46.88,58"/><path class="cls-2" d="M45.42,58h0a7.56,7.56,0,0,1-7.54-7.54V7.54A7.56,7.56,0,0,1,45.42,0h0A7.56,7.56,0,0,1,53,7.54V50.43A7.56,7.56,0,0,1,45.42,58"/><path class="cls-4" d="M51.81,49.8a6.39,6.39,0,1,1-6.39-6.39,6.39,6.39,0,0,1,6.39,6.39"/><path class="cls-2" d="M50.58,49.8a5.16,5.16,0,1,1-5.16-5.16,5.16,5.16,0,0,1,5.16,5.16"/><path class="cls-5" d="M49.41,49.8a4,4,0,1,1-4-4,4,4,0,0,1,4,4"/><path class="cls-6" d="M48,49.8a2.55,2.55,0,1,1-2.55-2.55A2.55,2.55,0,0,1,48,49.8"/><g class="cls-7"><rect class="cls-4" x="61.12" y="-2.94" width="10.1" height="65.4"/><rect class="cls-4" x="73.7" y="0.27" width="3.45" height="65.4"/></g><polygon class="cls-4" points="40.84 43.86 39.34 45.43 39.34 4.75 40.84 2.75 40.84 43.86"/><path class="cls-8" d="M10.93,98.54A4.52,4.52,0,0,1,7.71,100c-1.21,0-3.47-.58-5.14-4.44a25.23,25.23,0,0,1,0-17.79c1.67-3.86,3.93-4.44,5.14-4.44s3.46.58,5.14,4.44a23.07,23.07,0,0,1,1.61,8.9,23.09,23.09,0,0,1-1.61,8.89,9.64,9.64,0,0,1-1.92,3M7,77.24a6,6,0,0,0-1.2,1.91,21.9,21.9,0,0,0,0,15c.7,1.62,1.5,2.35,2,2.35s1.25-.73,2-2.35A19.7,19.7,0,0,0,11,86.67a19.72,19.72,0,0,0-1.33-7.52C9,77.53,8.16,76.8,7.71,76.8a1.2,1.2,0,0,0-.76.44"/><polygon class="cls-8" points="4.01 76.22 7.71 0.21 11.4 76.22 4.01 76.22"/><path class="cls-8" d="M21.48,1.57A4.52,4.52,0,0,1,24.71.11c1.2,0,3.46.57,5.14,4.44a23,23,0,0,1,1.61,8.89,23,23,0,0,1-1.61,8.89c-1.68,3.87-3.94,4.45-5.14,4.45s-3.47-.58-5.14-4.45A23,23,0,0,1,18,13.44a23,23,0,0,1,1.62-8.89,9.52,9.52,0,0,1,1.91-3m4,21.3A6.45,6.45,0,0,0,26.66,21,19.72,19.72,0,0,0,28,13.44a19.7,19.7,0,0,0-1.33-7.51c-.7-1.62-1.5-2.35-1.95-2.35s-1.26.73-2,2.35a19.9,19.9,0,0,0-1.33,7.51A19.91,19.91,0,0,0,22.75,21c.7,1.61,1.5,2.35,2,2.35a1.22,1.22,0,0,0,.76-.44"/><polygon class="cls-8" points="28.4 23.89 24.71 99.89 21.01 23.89 28.4 23.89"/><path class="cls-9" d="M36.92,99.65a.43.43,0,0,1-.26-.09.4.4,0,0,1,0-.55c1.11-1.34,1-1.85.94-2-.21-.38-1.15-.4-1.57-.35-.13,0-1.53.27-2.13-.6-.48-.71-.24-1.81.75-3.37,2.69-4.29,10.42-1.42,10.75-1.3a.4.4,0,0,1-.28.74c-.08,0-7.46-2.77-9.81,1-1.07,1.71-.89,2.33-.76,2.51.27.4,1.14.32,1.36.28s1.86-.21,2.38.74c.37.67,0,1.62-1,2.89a.41.41,0,0,1-.3.14"/><path class="cls-10" d="M61.45,94.16c0,1.59-4.54,2.87-10.14,2.87s-10.14-1.28-10.14-2.87,4.54-2.88,10.14-2.88,10.14,1.29,10.14,2.88"/><path class="cls-10" d="M61.45,96.55c0,1.58-4.54,2.87-10.14,2.87s-10.14-1.29-10.14-2.87,4.54-2.88,10.14-2.88S61.45,95,61.45,96.55"/><rect class="cls-10" x="41.17" y="94.16" width="20.28" height="2.39"/><path class="cls-9" d="M59.39,93.33c0,1.27-3.65,2.31-8.15,2.31s-8.15-1-8.15-2.31S46.74,91,51.24,91s8.15,1,8.15,2.32"/><path class="cls-11" d="M59.39,72.4c0,1.28-3.65,2.32-8.15,2.32s-8.15-1-8.15-2.32,3.65-2.31,8.15-2.31,8.15,1,8.15,2.31"/><rect class="cls-9" x="43.09" y="72.4" width="16.3" height="20.92"/><path class="cls-12" d="M51.24,77.33c-4.25,0-8.55-.93-8.55-2.71a.4.4,0,0,1,.79,0c0,.79,3,1.92,7.76,1.92S59,75.41,59,74.62a.4.4,0,0,1,.79,0c0,1.78-4.3,2.71-8.54,2.71"/><path class="cls-12" d="M51.24,82.71c-4.25,0-8.55-.93-8.55-2.71a.4.4,0,0,1,.79,0c0,.78,3,1.92,7.76,1.92S59,80.78,59,80a.4.4,0,0,1,.79,0c0,1.78-4.3,2.71-8.54,2.71"/><path class="cls-12" d="M51.24,85.57c-4.25,0-8.55-.93-8.55-2.7a.4.4,0,1,1,.79,0c0,.78,3,1.91,7.76,1.91C55.6,84.78,59,81,59,80a.4.4,0,0,1,.79,0c0,1.53-3.88,5.57-8.54,5.57"/><path class="cls-12" d="M51.24,94.28c-4.25,0-8.55-.93-8.55-2.7a.4.4,0,0,1,.79,0c0,.78,3,1.92,7.76,1.92S59,92.36,59,91.58a.4.4,0,0,1,.79,0c0,1.77-4.3,2.7-8.54,2.7"/><path class="cls-12" d="M51.24,91.5c-4.25,0-8.55-.93-8.55-2.71a.4.4,0,0,1,.79,0c0,.79,3,1.92,7.76,1.92S59,89.58,59,88.79a.4.4,0,0,1,.79,0c0,1.78-4.3,2.71-8.54,2.71"/><path class="cls-12" d="M51.24,92.65c-4.25,0-8.55-.93-8.55-2.7a.4.4,0,0,1,.79,0c0,.78,3,1.92,7.76,1.92S59,90.73,59,90a.4.4,0,0,1,.79,0c0,1.77-4.3,2.7-8.54,2.7"/><path class="cls-10" d="M61.45,70.51c0,1.59-4.54,2.88-10.14,2.88S41.17,72.1,41.17,70.51s4.54-2.87,10.14-2.87,10.14,1.29,10.14,2.87"/><path class="cls-10" d="M61.45,72.9c0,1.59-4.54,2.88-10.14,2.88S41.17,74.49,41.17,72.9,45.71,70,51.31,70s10.14,1.28,10.14,2.87"/><rect class="cls-10" x="41.17" y="70.51" width="20.28" height="2.39"/><path class="cls-13" d="M54.8,70c0,.55-1.59,1-3.56,1s-3.57-.46-3.57-1,1.6-1,3.57-1,3.56.46,3.56,1"/><path class="cls-9" d="M95.74,99.65A.39.39,0,0,0,96,99c-1.1-1.34-1-1.85-.93-2,.21-.38,1.14-.4,1.56-.35.14,0,1.54.27,2.14-.6.48-.71.23-1.81-.75-3.37-2.69-4.29-10.42-1.42-10.75-1.3a.4.4,0,1,0,.28.74c.07,0,7.46-2.77,9.81,1,1.07,1.71.89,2.33.76,2.51-.27.4-1.14.32-1.36.28s-1.86-.21-2.38.74c-.37.67,0,1.62,1,2.89a.41.41,0,0,0,.3.14"/><path class="cls-10" d="M71.21,94.16c0,1.59,4.54,2.87,10.14,2.87s10.13-1.28,10.13-2.87-4.54-2.88-10.13-2.88-10.14,1.29-10.14,2.88"/><path class="cls-10" d="M71.21,96.55c0,1.58,4.54,2.87,10.14,2.87s10.13-1.29,10.13-2.87-4.54-2.88-10.13-2.88S71.21,95,71.21,96.55"/><rect class="cls-10" x="71.21" y="94.16" width="20.28" height="2.39"/><path class="cls-9" d="M73.27,93.33c0,1.27,3.65,2.31,8.15,2.31s8.15-1,8.15-2.31S85.92,91,81.42,91s-8.15,1-8.15,2.32"/><path class="cls-11" d="M73.27,72.4c0,1.28,3.65,2.32,8.15,2.32s8.15-1,8.15-2.32-3.65-2.31-8.15-2.31-8.15,1-8.15,2.31"/><rect class="cls-9" x="73.27" y="72.4" width="16.3" height="20.92"/><path class="cls-12" d="M81.42,77.33c4.25,0,8.54-.93,8.54-2.71a.39.39,0,0,0-.78,0c0,.79-3,1.92-7.76,1.92s-7.76-1.13-7.76-1.92a.39.39,0,0,0-.39-.39.4.4,0,0,0-.39.39c0,1.78,4.3,2.71,8.54,2.71"/><path class="cls-12" d="M81.42,82.71c4.25,0,8.54-.93,8.54-2.71a.39.39,0,0,0-.78,0c0,.78-3,1.92-7.76,1.92S73.66,80.78,73.66,80a.38.38,0,0,0-.39-.39.39.39,0,0,0-.39.39c0,1.78,4.3,2.71,8.54,2.71"/><path class="cls-12" d="M81.42,85.57c4.25,0,8.54-.93,8.54-2.7a.39.39,0,1,0-.78,0c0,.78-3,1.91-7.76,1.91-4.36,0-7.76-3.81-7.76-4.78a.38.38,0,0,0-.39-.39.39.39,0,0,0-.39.39c0,1.53,3.88,5.57,8.54,5.57"/><path class="cls-12" d="M81.42,94.28c4.25,0,8.54-.93,8.54-2.7a.39.39,0,1,0-.78,0c0,.78-3,1.92-7.76,1.92s-7.76-1.14-7.76-1.92a.38.38,0,0,0-.39-.39.39.39,0,0,0-.39.39c0,1.77,4.3,2.7,8.54,2.7"/><path class="cls-12" d="M81.42,91.5c4.25,0,8.54-.93,8.54-2.71a.39.39,0,1,0-.78,0c0,.79-3,1.92-7.76,1.92s-7.76-1.13-7.76-1.92a.39.39,0,0,0-.39-.39.4.4,0,0,0-.39.39c0,1.78,4.3,2.71,8.54,2.71"/><path class="cls-12" d="M81.42,92.65c4.25,0,8.54-.93,8.54-2.7a.39.39,0,1,0-.78,0c0,.78-3,1.92-7.76,1.92S73.66,90.73,73.66,90a.38.38,0,0,0-.39-.39.39.39,0,0,0-.39.39c0,1.77,4.3,2.7,8.54,2.7"/><path class="cls-10" d="M71.21,70.51c0,1.59,4.54,2.88,10.14,2.88s10.13-1.29,10.13-2.88-4.54-2.87-10.13-2.87-10.14,1.29-10.14,2.87"/><path class="cls-10" d="M71.21,72.9c0,1.59,4.54,2.88,10.14,2.88s10.13-1.29,10.13-2.88S86.94,70,81.35,70,71.21,71.31,71.21,72.9"/><rect class="cls-10" x="71.21" y="70.51" width="20.28" height="2.39"/><path class="cls-13" d="M77.86,70c0,.55,1.59,1,3.56,1S85,70.58,85,70s-1.6-1-3.57-1-3.56.46-3.56,1"/></svg>