<svg id="Layer_1" data-name="Layer 1" xmlns="http://www.w3.org/2000/svg" viewBox="0 0 100 100"><defs><style>.cls-1{fill:#b25c29;}.cls-2{fill:#a35323;}.cls-3{fill:#5c5c5c;}.cls-4{fill:#dd7236;}</style></defs><title>barrel</title><path class="cls-1" d="M50.05,100c-17.68,0-32-2.82-32-6.31s14.33-6.31,32-6.31,32,2.83,32,6.31S67.73,100,50.05,100"/><path class="cls-1" d="M18,93.69,15.53,72.21a183.6,183.6,0,0,1,0-42.69L18,8h64l2.31,19.81a198,198,0,0,1,0,46L82.06,93.69Z"/><rect class="cls-2" x="67.01" y="14.9" width="2" height="81.72"/><rect class="cls-2" x="49.05" y="15.71" width="2" height="81.72"/><rect class="cls-2" x="31.09" y="14.31" width="2" height="81.72"/><path class="cls-3" d="M82.06,6.31H78v.43c-5.47-1.93-15.94-3.24-28-3.24s-22.49,1.31-28,3.24V6.35H18l-.21,3.46c0,3.49,14.54,6.31,32.22,6.31S82.27,13.3,82.27,9.81Z"/><path class="cls-3" d="M15.57,29.13C15.71,32.6,30.79,35.4,50,35.4s34.5-2.83,34.5-6.31l.36,3.5c0,3.49-15.56,6.31-34.86,6.31S15.2,36.08,15.2,32.59Z"/><path class="cls-3" d="M15.22,69.39c0,3.49,15.49,6.31,34.79,6.31S84.47,73,84.85,69.39l.29-3.5c0,3.48-15.83,6.31-35.13,6.31s-35-2.8-35.1-6.27Z"/><path class="cls-2" d="M50.05,11.86c-19.36,0-31.25-3.23-31.25-5.55S30.69.76,50.05.76,81.3,4,81.3,6.31s-11.89,5.55-31.25,5.55"/><path class="cls-4" d="M50.05,1.52A124.64,124.64,0,0,1,71.6,3.19c7.23,1.32,8.68,2.8,8.91,3.12-.23.31-1.68,1.79-8.91,3.12A124.64,124.64,0,0,1,50.05,11.1,124.56,124.56,0,0,1,28.5,9.43c-7.23-1.33-8.68-2.81-8.91-3.12.23-.32,1.68-1.8,8.91-3.12A124.56,124.56,0,0,1,50.05,1.52m0-1.52C32.37,0,18,2.82,18,6.31s14.33,6.31,32,6.31,32-2.83,32-6.31S67.73,0,50.05,0"/><path class="cls-3" d="M82.47,90.19c0,3.48-14.74,6.31-32.42,6.31s-32.28-2.81-32.4-6.27h0l.4,3.46c0,3.49,14.33,6.31,32,6.31s32-2.82,32-6.31Z"/></svg>