<svg id="Layer_1" data-name="Layer 1" xmlns="http://www.w3.org/2000/svg" viewBox="0 0 100 100"><defs><style>.cls-1{fill:#bcd2de;}.cls-2{fill:#f05c38;}.cls-3{fill:#d45131;}</style></defs><title>paraglider</title><polygon class="cls-1" points="49.77 95.09 46.9 95.09 36.9 29.26 39.77 29.26 49.77 95.09"/><polygon class="cls-1" points="45.84 80.87 46.9 85.49 4.78 41.31 5.97 38.35 45.84 80.87"/><polygon class="cls-1" points="45.98 77.44 46.3 83.28 18.64 30.03 21.31 28.96 45.98 77.44"/><polygon class="cls-1" points="50.23 95.09 53.1 95.09 63.1 29.26 60.23 29.26 50.23 95.09"/><polygon class="cls-1" points="53.78 81.19 53.1 85.48 95.22 41.31 94.38 37.97 53.78 81.19"/><polygon class="cls-1" points="53.91 77.61 53.7 83.28 81.36 30.03 78.69 28.96 53.91 77.61"/><path class="cls-2" d="M95,42h0A119.3,119.3,0,0,0,5,42a3.63,3.63,0,0,1-5-3.36V18.19a3.61,3.61,0,0,1,2.26-3.35L5,13.72a119.3,119.3,0,0,1,90,0l2.74,1.12A3.61,3.61,0,0,1,100,18.19V38.61A3.63,3.63,0,0,1,95,42"/><path class="cls-3" d="M10.76,34.84h0a2,2,0,0,1-1.95-2V18.13a2,2,0,0,1,3.9,0V32.89a2,2,0,0,1-2,2"/><path class="cls-3" d="M89.24,34.84h0a2,2,0,0,1-1.95-2V18.13a1.95,1.95,0,0,1,3.9,0V32.89a2,2,0,0,1-2,2"/><path class="cls-3" d="M29.73,29.79h0a2,2,0,0,1-1.95-1.95V13.08a2,2,0,0,1,3.9,0V27.84a2,2,0,0,1-1.95,1.95"/><path class="cls-3" d="M70.27,29.79h0a2,2,0,0,1-2-1.95V13.08a2,2,0,0,1,3.9,0V27.84a2,2,0,0,1-2,1.95"/><path class="cls-3" d="M50,28h0a2,2,0,0,1-2-1.95V11.26a2,2,0,0,1,3.9,0V26A2,2,0,0,1,50,28"/></svg>