<svg id="Layer_1" data-name="Layer 1" xmlns="http://www.w3.org/2000/svg" viewBox="0 0 100 100"><defs><style>.cls-1{fill:#f05c38;}.cls-2{fill:#fff;}.cls-3{fill:#faaf40;}.cls-4{fill:#3e3e3f;}.cls-5{fill:#b4452a;}.cls-6{fill:#bfbfbf;}.cls-7{fill:#faab3f;}</style></defs><title>circus</title><polygon class="cls-1" points="88.47 50.35 82.93 50.35 82.93 50.35 79.38 50.35 69.69 50.35 56.45 50.35 43.2 50.35 43.2 50.35 29.96 50.35 16.71 50.35 3.47 50.35 3.47 93.48 16.71 93.48 29.96 93.48 43.2 93.48 43.2 93.48 56.45 93.48 69.69 93.48 79.38 93.48 82.93 93.48 82.93 93.48 88.47 93.48 96.18 93.48 96.18 50.35 88.47 50.35"/><rect class="cls-2" x="49.48" y="6.46" width="0.84" height="17.24"/><rect class="cls-2" x="16.71" y="50.35" width="13.24" height="43.13"/><rect class="cls-2" x="43.2" y="50.35" width="13.24" height="43.13"/><rect class="cls-2" x="69.69" y="50.35" width="13.24" height="43.13"/><polygon class="cls-3" points="68.24 90.3 59.18 90.3 40.46 90.3 30.72 90.3 2.94 90.3 2.94 93.54 30.72 93.54 40.46 93.54 59.18 93.54 68.24 93.54 96.7 93.54 96.7 90.3 68.24 90.3"/><path class="cls-4" d="M41.4,92.6V74.77a8.42,8.42,0,0,1,16.84,0V92.6Z"/><path class="cls-3" d="M49.82,67.29a7.49,7.49,0,0,1,7.49,7.48v16.9h-15V74.77a7.49,7.49,0,0,1,7.48-7.48m0-1.88h0a9.36,9.36,0,0,0-9.36,9.36V93.54H59.18V74.77a9.36,9.36,0,0,0-9.36-9.36"/><polygon class="cls-2" points="50 51.14 1 50.14 50 22.59 99 50.14 50 51.14"/><path class="cls-5" d="M20,50.14a10,10,0,0,1-20,0"/><path class="cls-6" d="M20,50.14a10,10,0,0,0,20,0"/><path class="cls-5" d="M60,50.14a10,10,0,0,1-20,0"/><path class="cls-5" d="M100,50.14a10,10,0,0,1-20,0"/><path class="cls-6" d="M80,50.14a10,10,0,0,1-20,0"/><polygon class="cls-1" points="50 22.59 0 50.14 20 50.14 50 22.59"/><polygon class="cls-1" points="40 50.14 50 22.59 60 50.14 40 50.14"/><polygon class="cls-1" points="50 22.59 80 50.14 100 50.14 50 22.59"/><polygon class="cls-7" points="67.18 16.48 49.48 16.48 49.48 7.87 67.18 7.87 59.68 12.17 67.18 16.48"/></svg>