<svg id="Layer_1" data-name="Layer 1" xmlns="http://www.w3.org/2000/svg" viewBox="0 0 100 100"><defs><style>.cls-1{fill:#fcca98;}.cls-2{fill:#00a69c;}.cls-3{fill:#cea67f;}</style></defs><title>pie</title><path class="cls-1" d="M94.93,50.25c0,6.11-20.37,11-45.49,11s-45.5-4.94-45.5-11,20.37-23.77,45.5-23.77S94.93,44.15,94.93,50.25Z"/><ellipse class="cls-2" cx="50" cy="64.82" rx="39.85" ry="8.7"/><polyline class="cls-2" points="3.94 53.03 10.52 65.99 50 65.99 50 53.03"/><polyline class="cls-2" points="96.06 53.03 89.48 65.99 50 65.99 50 53.03"/><circle class="cls-1" cx="4.62" cy="50.97" r="4.62"/><circle class="cls-1" cx="12.87" cy="50.97" r="4.62"/><circle class="cls-1" cx="21.12" cy="50.97" r="4.62"/><circle class="cls-1" cx="29.37" cy="50.97" r="4.62"/><circle class="cls-1" cx="37.62" cy="50.97" r="4.62"/><circle class="cls-1" cx="45.87" cy="50.97" r="4.62"/><circle class="cls-1" cx="54.13" cy="50.97" r="4.62"/><circle class="cls-1" cx="62.38" cy="50.97" r="4.62"/><circle class="cls-1" cx="70.63" cy="50.97" r="4.62"/><circle class="cls-1" cx="78.88" cy="50.97" r="4.62"/><circle class="cls-1" cx="87.13" cy="50.97" r="4.62"/><circle class="cls-1" cx="95.38" cy="50.97" r="4.62"/><circle class="cls-3" cx="26.89" cy="37.97" r="1.1"/><circle class="cls-3" cx="30.84" cy="44.48" r="1.1"/><circle class="cls-3" cx="48.6" cy="44.48" r="1.1"/><circle class="cls-3" cx="66.36" cy="44.48" r="1.1"/><circle class="cls-3" cx="35.56" cy="37.97" r="1.1"/><circle class="cls-3" cx="44.22" cy="37.97" r="1.1"/><circle class="cls-3" cx="52.88" cy="37.97" r="1.1"/><circle class="cls-3" cx="61.54" cy="37.97" r="1.1"/><circle class="cls-3" cx="70.2" cy="37.97" r="1.1"/></svg>