<svg id="Layer_1" data-name="Layer 1" xmlns="http://www.w3.org/2000/svg" viewBox="0 0 100 100"><defs><style>.cls-1{fill:#9bc5da;}.cls-2{fill:#4f4f4f;}.cls-3{fill:#b2b2b2;}.cls-4{fill:#454547;}.cls-5{fill:#bcd2de;}</style></defs><title>laptop</title><rect class="cls-1" x="8.15" y="22.66" width="83.7" height="48.31"/><path class="cls-2" d="M90.06,69.19H9.94V24.45H90.06Zm2-48.31H8a1.59,1.59,0,0,0-1.59,1.59V72.76H93.64V22.47a1.59,1.59,0,0,0-1.59-1.59"/><path class="cls-3" d="M97.17,79.13H2.83A2.84,2.84,0,0,1,0,76.29V72.76H100v3.53a2.84,2.84,0,0,1-2.83,2.84"/><path class="cls-4" d="M56.51,75.84h-13a3.08,3.08,0,0,1-3.08-3.08H59.59a3.08,3.08,0,0,1-3.08,3.08"/><polygon class="cls-5" points="57.06 69.19 47.62 69.19 71.47 24.48 80.92 24.48 57.06 69.19"/><polygon class="cls-5" points="90.11 69.19 62.9 69.19 86.76 24.48 90.11 24.48 90.11 69.19"/></svg>