<svg id="Layer_1" data-name="Layer 1" xmlns="http://www.w3.org/2000/svg" viewBox="0 0 100 100"><defs><style>.cls-1{fill:#9bc5da;}.cls-2{fill:#4f4f4f;}.cls-3{fill:#bcd2de;}.cls-4{fill:#7d7d7d;}</style></defs><title>tablet</title><rect class="cls-1" x="15.04" y="1.95" width="69.91" height="96.1" rx="3.87" ry="3.87"/><path class="cls-2" d="M81.09,3.9A1.92,1.92,0,0,1,83,5.82V94.18a1.92,1.92,0,0,1-1.92,1.92H18.91A1.92,1.92,0,0,1,17,94.18V5.82A1.92,1.92,0,0,1,18.91,3.9H81.09m0-3.9H18.91a5.82,5.82,0,0,0-5.82,5.82V94.18A5.82,5.82,0,0,0,18.91,100H81.09a5.82,5.82,0,0,0,5.82-5.82V5.82A5.82,5.82,0,0,0,81.09,0"/><polygon class="cls-3" points="47 89.55 30.91 89.55 63.64 4.05 79.73 4.05 47 89.55"/><rect class="cls-1" x="17.68" y="91.5" width="64.64" height="3.55"/><rect class="cls-2" x="15.73" y="89.55" width="68.55" height="7.45"/><path class="cls-4" d="M53,94.82a3,3,0,1,1-3-3,3,3,0,0,1,3,3"/></svg>