<svg id="Layer_1" data-name="Layer 1" xmlns="http://www.w3.org/2000/svg" viewBox="0 0 100 100"><defs><style>.cls-1{fill:#9bc5da;}.cls-2{fill:#4f4f4f;}.cls-3{fill:#bcd2de;}.cls-4{fill:#7d7d7d;}.cls-5{fill:#3e3e3f;}</style></defs><title>smartphone</title><rect class="cls-1" x="24.4" y="2" width="51.19" height="96" rx="3.21" ry="3.21"/><path class="cls-2" d="M72.39,4A1.21,1.21,0,0,1,73.6,5.21V94.79A1.21,1.21,0,0,1,72.39,96H27.61a1.21,1.21,0,0,1-1.21-1.21V5.21A1.21,1.21,0,0,1,27.61,4H72.39m0-4H27.61A5.21,5.21,0,0,0,22.4,5.21V94.79A5.21,5.21,0,0,0,27.61,100H72.39a5.21,5.21,0,0,0,5.21-5.21V5.21A5.21,5.21,0,0,0,72.39,0"/><polygon class="cls-3" points="43.33 89.55 30.43 89.55 56.67 4.05 69.57 4.05 43.33 89.55"/><rect class="cls-2" x="24.52" y="89.55" width="50.96" height="7.45"/><rect class="cls-2" x="24.52" y="2.38" width="50.96" height="5.95"/><path class="cls-4" d="M53,94.82a3,3,0,1,1-3-3,3,3,0,0,1,3,3"/><path class="cls-5" d="M52.64,5.36H47.36a1.49,1.49,0,0,1,0-3h5.28a1.49,1.49,0,0,1,0,3"/></svg>