<svg id="Layer_1" data-name="Layer 1" xmlns="http://www.w3.org/2000/svg" xmlns:xlink="http://www.w3.org/1999/xlink" viewBox="0 0 100 100"><defs><style>.cls-1{fill:none;}.cls-2{fill:#616161;}.cls-3{fill:#989a9d;}.cls-4{fill:#e0e0e0;}.cls-5{clip-path:url(#clip-path);}.cls-6{fill:#d45131;}.cls-7{fill:#fff;}.cls-8{clip-path:url(#clip-path-2);}.cls-9{fill:#f05c38;}.cls-10{fill:#d0d2d3;}.cls-11{fill:#87898b;}.cls-12{fill:#6ab8d9;}.cls-13{fill:#a9ccdd;}</style><clipPath id="clip-path"><polygon class="cls-1" points="38.82 95.56 22.86 95.56 24.74 36.68 36.94 36.68 38.82 95.56"/></clipPath><clipPath id="clip-path-2"><polygon class="cls-1" points="22.32 95.32 6.36 95.32 8.24 27.06 20.44 27.06 22.32 95.32"/></clipPath></defs><title>factory</title><path class="cls-2" d="M48.5,41a.35.35,0,1,1-.35.35A.35.35,0,0,1,48.5,41Z"/><path class="cls-2" d="M42,42.31a.28.28,0,1,1-.27.28A.28.28,0,0,1,42,42.31Z"/><path class="cls-2" d="M30.42,38.42a1.24,1.24,0,0,1,0,2.47,1.24,1.24,0,1,1,0-2.47Z"/><path class="cls-2" d="M31.06,37.15a1.41,1.41,0,0,1-.59-2.69,3.57,3.57,0,0,1,1.21-5.21,2.9,2.9,0,0,1-.62-1.74,3,3,0,0,1,1.87-2.76,1.86,1.86,0,1,1,3.1-2,4.65,4.65,0,0,1,3.25-1.33,4.33,4.33,0,0,1,.89.09h0a4.15,4.15,0,1,1,8.29,0c0,.12,0,.24,0,.36a1.83,1.83,0,0,1,.83,3.22l0,0a3.18,3.18,0,0,1,.93-.65,1.23,1.23,0,0,1-.08-.39,1.39,1.39,0,0,1,2.77,0,1.36,1.36,0,0,1-.08.41,3.09,3.09,0,0,1,1.78,2.79v0A4,4,0,0,1,56,27a4.15,4.15,0,1,1,0,8.29,3.67,3.67,0,0,1-.94-.12,1.74,1.74,0,0,1-1.44.8c-.07,0-.12,0-.19,0a1.32,1.32,0,0,1,.36.9,1.34,1.34,0,1,1-2.67,0,1.51,1.51,0,0,1,.07-.37,1.43,1.43,0,0,1-2.39-.95,3.67,3.67,0,0,1-1,.4,2.22,2.22,0,0,1-.63,1.4.58.58,0,0,1-.52.36h0a2.08,2.08,0,0,1-1,.28,1.86,1.86,0,0,1-.34-.07,1.28,1.28,0,0,1-1.24,1,1.3,1.3,0,0,1-1.3-1.3,1.28,1.28,0,0,1,.73-1.15,1.4,1.4,0,0,1-.21-.7,1.38,1.38,0,0,1,.43-1,1.48,1.48,0,0,1,.08-.13,2.26,2.26,0,0,1-.78.22,1.42,1.42,0,1,1-2.31-1.25,2.15,2.15,0,0,1-.14-.45,4.64,4.64,0,0,1-2.17-2.5,4.7,4.7,0,0,1-2.14-1.09c-.1.1-.21.17-.31.26A3.61,3.61,0,0,1,33.42,36a4,4,0,0,1-1-.15A1.39,1.39,0,0,1,31.06,37.15Z"/><path class="cls-2" d="M48.58,36.61a1.24,1.24,0,1,1,0,2.47,1.24,1.24,0,0,1,0-2.47Z"/><path class="cls-2" d="M29.13,28.78a.68.68,0,0,1,.68.68.68.68,0,1,1-.68-.68Z"/><circle class="cls-2" cx="55.59" cy="30.33" r="0.75"/><circle class="cls-2" cx="44.17" cy="20.96" r="0.87"/><circle class="cls-2" cx="40.86" cy="29.14" r="0.62"/><circle class="cls-2" cx="48.15" cy="31.56" r="2.1"/><circle class="cls-2" cx="34.82" cy="25.03" r="0.79"/><circle class="cls-2" cx="33.62" cy="33.84" r="1.2"/><circle class="cls-2" cx="46.47" cy="25.82" r="0.66"/><path class="cls-3" d="M38,31.57a.5.5,0,0,1,.26,1,.5.5,0,1,1-.26-1Z"/><path class="cls-3" d="M29.52,35.81a.4.4,0,1,1-.29.49A.4.4,0,0,1,29.52,35.81Z"/><path class="cls-3" d="M11.91,34.65a1.77,1.77,0,1,1-1.26,2.17A1.78,1.78,0,0,1,11.91,34.65Z"/><path class="cls-3" d="M12.34,32.65a2,2,0,0,1-1.81-3.53,5.15,5.15,0,0,1-.22-7.7A4.23,4.23,0,0,1,8.8,19.23a4.29,4.29,0,0,1,1.6-4.54,2.6,2.6,0,0,1-1-1.38A2.72,2.72,0,0,1,11.38,10a2.68,2.68,0,0,1,2.59.74,6.67,6.67,0,0,1,4-3,7,7,0,0,1,1.27-.2h0a6,6,0,1,1,11.54-3c0,.17.05.34.08.51a2.67,2.67,0,0,1,2.74,2,2.71,2.71,0,0,1-.4,2.21l.06,0a4.66,4.66,0,0,1,1.05-1.25,2.2,2.2,0,0,1-.25-.51,2,2,0,1,1,3.86-1A2.05,2.05,0,0,1,38,7a4.46,4.46,0,0,1,3.51,3.23v0a5.83,5.83,0,0,1,1.85-.87,6,6,0,1,1,3,11.54,5.77,5.77,0,0,1-1.36.18,2.52,2.52,0,0,1-1.7,1.63,2.81,2.81,0,0,1-.29,0,2,2,0,1,1-2.92,1.57,2.07,2.07,0,0,1-3.68-.44,5,5,0,0,1-1.26.92A3.11,3.11,0,0,1,34.82,27a.85.85,0,0,1-.59.7h0a3,3,0,0,1-1.31.76,2.19,2.19,0,0,1-.51,0A1.85,1.85,0,0,1,31,30.32a1.86,1.86,0,0,1-1.69-3.21,2,2,0,0,1-.56-.9A2.05,2.05,0,0,1,29,24.65c0-.07.05-.14.07-.21a3.34,3.34,0,0,1-1,.59,2.06,2.06,0,0,1-4,.84,2,2,0,0,1,.35-1.73,3.1,3.1,0,0,1-.37-.57,6.75,6.75,0,0,1-3.94-2.69,6.64,6.64,0,0,1-3.38-.73,4,4,0,0,1-.33.47,5.14,5.14,0,0,1,2.51,3.22,5.19,5.19,0,0,1-3.7,6.35,5.25,5.25,0,0,1-1.41.15A2,2,0,0,1,12.34,32.65Z"/><path class="cls-3" d="M36.54,25.47a1.78,1.78,0,1,1-1.27,2.17A1.78,1.78,0,0,1,36.54,25.47Z"/><path class="cls-3" d="M6.6,21.71a1,1,0,0,1,1.18.69,1,1,0,0,1-.69,1.19,1,1,0,0,1-1.19-.7A1,1,0,0,1,6.6,21.71Z"/><circle class="cls-3" cx="56.01" cy="10.31" r="1.57"/><circle class="cls-3" cx="24.66" cy="5.31" r="1.25"/><circle class="cls-3" cx="74.93" cy="18.54" r="0.89"/><circle class="cls-3" cx="51.82" cy="18.12" r="3.02"/><circle class="cls-3" cx="65.02" cy="15.04" r="1.14"/><circle class="cls-3" cx="14.7" cy="27.1" r="1.73"/><circle class="cls-3" cx="81.52" cy="11.87" r="0.95"/><polygon class="cls-4" points="38.82 95.56 22.86 95.56 24.74 36.68 36.94 36.68 38.82 95.56"/><g class="cls-5"><rect class="cls-6" x="13.17" y="36.68" width="33.47" height="9.56"/><rect class="cls-6" x="13.17" y="55.62" width="33.47" height="9.56"/><rect class="cls-6" x="13.17" y="74.55" width="33.47" height="9.56"/></g><polygon class="cls-7" points="22.32 95.32 6.36 95.32 8.24 27.06 20.44 27.06 22.32 95.32"/><g class="cls-8"><rect class="cls-9" x="-3.33" y="27.06" width="33.47" height="9.56"/><rect class="cls-9" x="-3.33" y="45.99" width="33.47" height="9.56"/><rect class="cls-9" x="-3.33" y="64.93" width="33.47" height="9.56"/></g><polygon class="cls-10" points="60.67 59.7 42.42 59.7 42.42 46.4 60.67 59.7"/><polygon class="cls-10" points="78.92 59.7 60.67 59.7 60.67 46.4 78.92 59.7"/><polygon class="cls-10" points="97.21 59.7 78.96 59.7 78.96 46.4 97.21 59.7"/><rect class="cls-10" x="2.77" y="59.59" width="94.47" height="40.41"/><rect class="cls-9" x="7.93" y="68.97" width="26.98" height="31.03"/><rect class="cls-11" x="11.05" y="72.1" width="20.73" height="27.9"/><rect class="cls-12" x="46.01" y="69.33" width="10.88" height="19.41"/><polygon class="cls-13" points="46.01 88.73 46.01 69.33 56.89 69.33 46.01 88.73"/><path class="cls-9" d="M56.33,70.08v18H46.75v-18h9.58m1.24-1.24h-12V89.33h12V68.84Z"/><rect class="cls-9" x="50.88" y="69.83" width="1.33" height="19.12"/><rect class="cls-9" x="45.8" y="75.31" width="11.48" height="1.14"/><rect class="cls-9" x="45.8" y="81.96" width="11.48" height="1.14"/><rect class="cls-12" x="63.95" y="69.33" width="10.88" height="19.41"/><polygon class="cls-13" points="63.95 88.73 63.95 69.33 74.84 69.33 63.95 88.73"/><path class="cls-9" d="M74.28,70.08v18H64.7v-18h9.58m1.23-1.24H63.46V89.33H75.51V68.84Z"/><rect class="cls-9" x="68.82" y="69.83" width="1.33" height="19.12"/><rect class="cls-9" x="63.75" y="75.31" width="11.48" height="1.14"/><rect class="cls-9" x="63.75" y="81.96" width="11.48" height="1.14"/><rect class="cls-12" x="81.9" y="69.33" width="10.88" height="19.41"/><polygon class="cls-13" points="81.9 88.73 81.9 69.33 92.78 69.33 81.9 88.73"/><path class="cls-9" d="M92.22,70.08v18H82.64v-18h9.58m1.24-1.24h-12V89.33h12V68.84Z"/><rect class="cls-9" x="86.77" y="69.83" width="1.33" height="19.12"/><rect class="cls-9" x="81.69" y="75.31" width="11.48" height="1.14"/><rect class="cls-9" x="81.69" y="81.96" width="11.48" height="1.14"/><rect class="cls-2" x="11.05" y="72.1" width="20.73" height="2.47"/><rect class="cls-2" x="11.05" y="77.18" width="20.73" height="2.47"/><rect class="cls-2" x="11.05" y="82.27" width="20.73" height="2.47"/><rect class="cls-2" x="11.05" y="87.35" width="20.73" height="2.47"/><rect class="cls-2" x="11.05" y="92.44" width="20.73" height="2.47"/><rect class="cls-2" x="11.05" y="97.53" width="20.73" height="2.47"/><rect class="cls-6" x="2.77" y="97.53" width="5.16" height="2.47"/><rect class="cls-6" x="34.91" y="97.53" width="62.3" height="2.47"/></svg>