<svg id="Layer_1" data-name="Layer 1" xmlns="http://www.w3.org/2000/svg" viewBox="0 0 100 100"><defs><style>.cls-1{fill:#86aabc;}.cls-2{fill:#7696a7;}.cls-3{fill:#9ebbc9;}</style></defs><title>aviary</title><rect class="cls-1" x="31.23" y="75.92" width="37.55" height="20.86"/><polygon class="cls-2" points="84.09 91.76 68.77 96.78 68.77 75.92 84.09 70.9 84.09 91.76"/><polygon class="cls-2" points="15.91 91.76 31.23 96.78 31.23 75.92 15.91 70.9 15.91 91.76"/><polygon class="cls-3" points="68.77 26.83 31.23 26.83 50 2.2 68.77 26.83"/><polygon class="cls-1" points="84.09 21.81 68.77 26.83 50 2.2 84.09 21.81"/><polygon class="cls-1" points="15.91 21.81 31.23 26.83 50 2.2 15.91 21.81"/><rect class="cls-1" x="31.23" y="26.83" width="37.55" height="2.78"/><polygon class="cls-2" points="84.09 24.59 68.77 29.61 68.77 26.83 84.09 21.81 84.09 24.59"/><polygon class="cls-2" points="15.91 24.59 31.23 29.61 31.23 26.83 15.91 21.81 15.91 24.59"/><path class="cls-1" d="M32.26,100h0a1,1,0,0,1-1-1v-70H33.3V99a1,1,0,0,1-1,1"/><rect class="cls-1" x="40.92" y="60.1" width="17.97" height="2.78"/><rect class="cls-1" x="36.27" y="28.22" width="1.04" height="51.69"/><rect class="cls-1" x="40.58" y="28.22" width="1.04" height="51.69"/><rect class="cls-1" x="44.9" y="28.22" width="1.04" height="51.69"/><rect class="cls-1" x="49.22" y="28.22" width="1.04" height="51.69"/><rect class="cls-1" x="53.53" y="28.22" width="1.04" height="51.69"/><rect class="cls-1" x="57.85" y="28.22" width="1.04" height="51.69"/><rect class="cls-1" x="62.17" y="28.22" width="1.04" height="51.69"/><rect class="cls-2" x="71.29" y="27.31" width="1.04" height="50.09"/><rect class="cls-2" x="75" y="25.71" width="1.04" height="51.69"/><rect class="cls-2" x="78.71" y="24.54" width="1.04" height="52.86"/><rect class="cls-2" x="27.43" y="27.31" width="1.04" height="50.09"/><rect class="cls-2" x="23.72" y="25.71" width="1.04" height="51.69"/><rect class="cls-2" x="20.01" y="24.54" width="1.04" height="52.86"/><path class="cls-1" d="M67.74,100h0a1,1,0,0,1-1-1v-70h2.07V99a1,1,0,0,1-1,1"/><path class="cls-2" d="M83.05,96.53h0a1,1,0,0,1-1-1V23.67h2.08V95.49a1,1,0,0,1-1,1"/><path class="cls-2" d="M17,96.53h0a1,1,0,0,1-1-1V23.67H18V95.49a1,1,0,0,1-1,1"/><path class="cls-3" d="M50,.5a1.12,1.12,0,1,1-1.11,1.12A1.12,1.12,0,0,1,50,.5M50,0a1.62,1.62,0,1,0,1.62,1.62A1.62,1.62,0,0,0,50,0"/></svg>