<svg id="Layer_1" data-name="Layer 1" xmlns="http://www.w3.org/2000/svg" viewBox="0 0 100 100"><defs><style>.cls-1{fill:#6ab8d9;}.cls-2{fill:#5596b2;}.cls-3{fill:#3e545f;}.cls-4{fill:#fff;}.cls-5{fill:#454547;}.cls-6{fill:#7696a7;}.cls-7{fill:#86aabc;}.cls-8{fill:#bcd2de;}.cls-9{fill:#cfdae0;}.cls-10{fill:#d3d4d6;}.cls-11{fill:#008367;}.cls-12{fill:#d0d2d3;}.cls-13{fill:#714c48;}.cls-14{fill:#09a582;}.cls-15{fill:#007359;}</style></defs><title>writer</title><path class="cls-1" d="M97.6,54.76A2.61,2.61,0,0,0,95,52.43H93.34a1.1,1.1,0,0,1-1.12-1.08V49.17H76.9v2.18a1.1,1.1,0,0,1-1.12,1.08H74.16a2.6,2.6,0,0,0-2.63,2.33L69.88,73.08a2.6,2.6,0,0,0,2.64,2.77H96.61a2.58,2.58,0,0,0,2.63-2.77Z"/><path class="cls-2" d="M95.72,75.05H73.41A2.4,2.4,0,0,1,71,72.48l1.52-17a2.42,2.42,0,0,1,2.44-2.16H94.2a2.4,2.4,0,0,1,2.43,2.16l1.53,17a2.41,2.41,0,0,1-2.44,2.57"/><path class="cls-3" d="M93.4,50.52H75.72a.55.55,0,0,1-.55-.55V46.55a.55.55,0,0,1,.55-.55H93.4a.55.55,0,0,1,.55.55V50a.54.54,0,0,1-.55.55"/><path d="M78.26,64.69a15,15,0,0,1-6.43-1.76L71,72.48a2.4,2.4,0,0,0,2.44,2.57H95.72a2.41,2.41,0,0,0,2.44-2.57l-1.1-12.26c-6.72.58-10.6,5.08-18.8,4.47"/><path class="cls-4" d="M91.51,70H77.61a2,2,0,0,1-2-1.95v-8.5a2,2,0,0,1,2-1.95h13.9a2,2,0,0,1,2,1.95V68a2,2,0,0,1-2,1.95"/><rect class="cls-2" x="76.9" y="50.52" width="15.32" height="0.55"/><path d="M87.91,64.4a3.35,3.35,0,0,1-6.7,0c0-1.79,3.35-5.21,3.35-5.21s3.35,3.42,3.35,5.21"/><path class="cls-5" d="M83.48,65.26a.87.87,0,0,1-.24,1.21.94.94,0,0,1-1.16-.54.87.87,0,0,1,.25-1.22.93.93,0,0,1,1.15.55"/><path class="cls-6" d="M.69,90.6V87.09A3.15,3.15,0,0,1,3.83,84H49.21v9.79H3.83A3.15,3.15,0,0,1,.69,90.6"/><path class="cls-7" d="M49.21,84H5.59a4.9,4.9,0,0,0-4.9,4.9H49.21Z"/><path class="cls-8" d="M95.38,89.71V88h4.07a.55.55,0,0,1,.55.55v.62a.55.55,0,0,1-.55.55Z"/><path class="cls-8" d="M43.11,95.09v-.85H38.24v.85H11a1,1,0,0,1-1-1V83.44a1.27,1.27,0,0,0-2.53,0V95.67A1.83,1.83,0,0,0,9.34,97.5H40.7a2.41,2.41,0,0,0,2.41-2.41"/><rect class="cls-3" x="49.21" y="83.95" width="33.9" height="9.79"/><polygon class="cls-6" points="96.8 90.34 96.8 87.36 83.11 83.95 83.11 93.74 96.8 90.34"/><polygon class="cls-7" points="96.8 88.85 96.8 87.36 83.11 83.95 83.11 88.85 96.8 88.85"/><path class="cls-9" d="M10,88.85V83.44a1.27,1.27,0,0,0-2.53,0v5.41Z"/><polygon class="cls-4" points="92.45 2.5 69.75 2.5 69.75 40.59 100 40.59 100 10.05 92.45 2.5"/><polygon class="cls-10" points="92.45 10.05 92.45 2.5 100 10.05 92.45 10.05"/><path class="cls-11" d="M60.39,75.85h-53a2.23,2.23,0,0,1-2.23-2.23V4.73A2.23,2.23,0,0,1,7.42,2.5h53a2.23,2.23,0,0,1,2.23,2.23V73.62a2.23,2.23,0,0,1-2.23,2.23"/><path class="cls-12" d="M58.49,75H6.66a2.19,2.19,0,0,1-2.18-2.18V5.52A2.19,2.19,0,0,1,6.66,3.34H58.49a2.19,2.19,0,0,1,2.18,2.18V72.83A2.19,2.19,0,0,1,58.49,75"/><path class="cls-4" d="M57.09,75H5.27a2.19,2.19,0,0,1-2.18-2.18V5.52A2.19,2.19,0,0,1,5.27,3.34H57.09a2.19,2.19,0,0,1,2.18,2.18V72.83A2.19,2.19,0,0,1,57.09,75"/><path class="cls-12" d="M55.94,75H4.12a2.19,2.19,0,0,1-2.18-2.18V5.52A2.19,2.19,0,0,1,4.12,3.34H55.94a2.19,2.19,0,0,1,2.18,2.18V72.83A2.19,2.19,0,0,1,55.94,75"/><path class="cls-4" d="M54.55,75H2.72A2.19,2.19,0,0,1,.54,72.83V5.52A2.19,2.19,0,0,1,2.72,3.34H54.55a2.19,2.19,0,0,1,2.18,2.18V72.83A2.19,2.19,0,0,1,54.55,75"/><path class="cls-13" d="M2.39,2.5C1.07,2.5,0,4.65,0,7.28v63.8c0,2.62,1.07,4.77,2.39,4.77H5.27V2.5Z"/><path class="cls-14" d="M47.39,2.5H5.27V75.85H47.39a4.79,4.79,0,0,0,4.77-4.77V7.28A4.79,4.79,0,0,0,47.39,2.5"/><path class="cls-14" d="M49.28,2.5H7.16V75.85H49.28a4.79,4.79,0,0,0,4.77-4.77V7.28A4.79,4.79,0,0,0,49.28,2.5"/><path class="cls-15" d="M43.93,23.93H11.33a1,1,0,0,1-1-1V14.56a1,1,0,0,1,1-1h32.6a1,1,0,0,1,1,1v8.35a1,1,0,0,1-1,1"/><path class="cls-15" d="M41.11,71.14H11.61a.38.38,0,0,1-.37-.37v-.85a.38.38,0,0,1,.37-.37h29.5a.37.37,0,0,1,.37.37v.85a.37.37,0,0,1-.37.37"/><path class="cls-15" d="M30.31,67.76H11.54a.31.31,0,0,1-.3-.3v-1a.3.3,0,0,1,.3-.29H30.31a.3.3,0,0,1,.3.29v1a.31.31,0,0,1-.3.3"/></svg>