<svg id="Layer_1" data-name="Layer 1" xmlns="http://www.w3.org/2000/svg" viewBox="0 0 100 100"><defs><style>.cls-1{fill:#895e59;}.cls-2{fill:#5a9eba;}.cls-3{fill:#6ab8d9;}.cls-4{fill:#447d93;}</style></defs><title>sea</title><path class="cls-1" d="M80.48,81.1h15.2A4.32,4.32,0,0,0,100,76.78V33.17a4.33,4.33,0,0,0-7.84-2.52L56,81.08"/><path class="cls-1" d="M19.52,81.1H4.32A4.32,4.32,0,0,1,0,76.78V33.17a4.33,4.33,0,0,1,7.84-2.52L44,81.08"/><polygon class="cls-2" points="93.36 29.32 6.55 29.32 23.13 81.11 76.78 81.11 93.36 29.32"/><path class="cls-3" d="M93.37,29.32V26A7.05,7.05,0,0,0,81.7,20.63l-10,8.65V26A7.05,7.05,0,0,0,60,20.63L50,29.32V26a7.05,7.05,0,0,0-11.67-5.33l-10,8.69V26a7,7,0,0,0-11.66-5.33l-10,8.69h0l9.2,28.75H84.2l9.2-28.75Z"/><polygon class="cls-4" points="20.17 71.86 23.13 81.11 76.78 81.11 79.74 71.86 20.17 71.86"/></svg>