<svg id="Layer_1" data-name="Layer 1" xmlns="http://www.w3.org/2000/svg" viewBox="0 0 100 100"><defs><style>.cls-1{fill:#fcca98;}.cls-2{fill:#f37d3b;}.cls-3{fill:#c7552e;}</style></defs><title>meat</title><rect class="cls-1" x="70.93" y="42.58" width="22.38" height="12.66" rx="3.16" ry="3.16" transform="translate(164.24 97.82) rotate(-180)"/><circle class="cls-1" cx="93.52" cy="43.26" r="6.48"/><circle class="cls-1" cx="93.52" cy="54.31" r="6.48"/><ellipse class="cls-2" cx="34.97" cy="28.82" rx="8.03" ry="3.23"/><ellipse class="cls-2" cx="61.07" cy="28.82" rx="8.03" ry="3.23"/><ellipse class="cls-2" cx="48.58" cy="28.82" rx="8.03" ry="3.23"/><ellipse class="cls-2" cx="34.97" cy="71.18" rx="8.03" ry="3.23"/><ellipse class="cls-2" cx="61.07" cy="71.18" rx="8.03" ry="3.23"/><ellipse class="cls-2" cx="48.58" cy="71.18" rx="8.03" ry="3.23"/><path class="cls-2" d="M85.88,49.78A22.82,22.82,0,0,1,63.07,72.6c-12.61,0-10-10.22-10-22.82S50.46,27,63.07,27A22.82,22.82,0,0,1,85.88,49.78Z"/><rect class="cls-2" x="32.2" y="26.96" width="32.77" height="45.56"/><path class="cls-2" d="M49.41,49.78c0,12.6-4.61,22.82-17.21,22.82A22.82,22.82,0,0,1,32.2,27C44.8,27,49.41,37.18,49.41,49.78Z"/><ellipse class="cls-3" cx="28.34" cy="49.74" rx="10.76" ry="13.72"/><rect class="cls-1" x="6.69" y="42.58" width="22.38" height="12.66" rx="3.16" ry="3.16"/><circle class="cls-1" cx="6.48" cy="43.26" r="6.48"/><circle class="cls-1" cx="6.48" cy="54.31" r="6.48"/><circle class="cls-3" cx="45.18" cy="36.98" r="0.97"/><circle class="cls-3" cx="53.37" cy="44.09" r="0.83"/><circle class="cls-3" cx="47.9" cy="47.49" r="0.34"/><circle class="cls-3" cx="66.73" cy="35.61" r="1.37"/><circle class="cls-3" cx="63.5" cy="57.92" r="0.56"/><circle class="cls-3" cx="46.65" cy="67.44" r="0.51"/><circle class="cls-3" cx="49.67" cy="71.43" r="0.25"/></svg>