<svg id="Layer_1" data-name="Layer 1" xmlns="http://www.w3.org/2000/svg" viewBox="0 0 100 100"><defs><style>.cls-1{fill:#ad7771;}.cls-2{fill:#895e59;}.cls-3{fill:#fff7a1;}.cls-4{fill:#e9bb8d;}.cls-5{fill:#ffc640;}.cls-6{fill:#f05c38;}.cls-7{fill:#f7a895;}</style></defs><title>sandwich</title><path class="cls-1" d="M44.11,92.69c-21.71,0-35.94,0-35.94-35.94V28.56l-1.06-1A11.56,11.56,0,0,1,3.27,19,11.71,11.71,0,0,1,15,7.31H85A11.71,11.71,0,0,1,96.73,19a11.56,11.56,0,0,1-3.84,8.58l-1.06,1V56.75c0,16.8-3.19,26.84-10,31.6-6.26,4.34-15.28,4.34-25.72,4.34Z"/><path class="cls-2" d="M85,10.58A8.44,8.44,0,0,1,93.46,19a8.31,8.31,0,0,1-2.78,6.17l-2.12,1.94V56.75c0,15.42-2.83,24.88-8.65,28.92-5.41,3.75-14,3.75-23.85,3.75H43.94c-9.89,0-18.44,0-23.85-3.75-5.82-4-8.65-13.5-8.65-28.92V27.12L9.32,25.18A8.32,8.32,0,0,1,6.53,19,8.44,8.44,0,0,1,15,10.58H85M85,4H15A15,15,0,0,0,0,19H0A14.86,14.86,0,0,0,4.9,30V56.75C4.9,95.91,22.45,96,43.94,96H56.06c21.49,0,39,0,39-39.21V30A14.86,14.86,0,0,0,100,19h0A15,15,0,0,0,85,4Z"/><path class="cls-3" d="M20.46,15.16c-3.15,2.47-4.65,7.37-3.62,8.31.76.68,2.65-1,3.75-.27,1.35.89.48,4.74-.93,8.84-2.91,2.75-4.95,5-4.56,5.5.73,1,9.5-4.85,10.59-3.49.7.88-2.73,3.55-4.56,9.11C19.87,47,19.42,52,20.86,52.68c2.41,1.06,9.24-10.54,10.32-9.92,1.49.87-11.38,23.1-7.24,26.4,1.33,1.06-2.08,10.43,7,9.47,4-.42,9.42,7.51,10.93,7.24,11.43-2.08,35.33-4.12,35.66-5.18,1.6-5.12-15.22-43.9-17-49-2.5-7-9.31-10.07-17.16-13.53C36.79,15.2,26.31,10.56,20.46,15.16Z"/><circle class="cls-4" cx="72.16" cy="39.14" r="2.98"/><path class="cls-5" d="M78.68,73.92a8.91,8.91,0,0,1,5,1.51V20.57a4.34,4.34,0,1,1,0-6.2V8.57H16.35v18a8.91,8.91,0,0,1,2.14-.29,9,9,0,0,1,0,18,8.9,8.9,0,0,1-2.14-.28V93.64L71.26,87.8a8.93,8.93,0,0,1,7.42-13.88Zm-41.32.28a8.73,8.73,0,1,1,8.73-8.73A8.73,8.73,0,0,1,37.36,74.2ZM65.81,51.13a4,4,0,1,1,4,4A4,4,0,0,1,65.81,51.13Z"/><circle class="cls-6" cx="58.57" cy="39.63" r="27.6"/><circle class="cls-7" cx="58.57" cy="39.63" r="23.69"/><path class="cls-6" d="M44.69,53.51A19.23,19.23,0,0,0,70.14,55l-27-27A19.23,19.23,0,0,0,44.69,53.51Z"/><path class="cls-6" d="M72,26.2a19.24,19.24,0,0,0-25.43-1.54l27,27A19.24,19.24,0,0,0,72,26.2Z"/><path class="cls-7" d="M42.2,33c.95,0,3.41,1.71,3.41,1.71s-2.46,1.72-3.41,1.72a1.72,1.72,0,0,1,0-3.43Z"/><path class="cls-7" d="M44.7,49.72c.67-.67,3.63-1.2,3.63-1.2s-.53,2.95-1.2,3.62a1.71,1.71,0,0,1-2.43-2.42Z"/><path class="cls-7" d="M41.69,41.27c.91-.27,3.76.67,3.76.67s-1.86,2.35-2.77,2.62a1.72,1.72,0,1,1-1-3.29Z"/><path class="cls-7" d="M64.42,55.25c0-1-1.71-3.41-1.71-3.41S61,54.3,61,55.25a1.72,1.72,0,0,0,3.43,0Z"/><path class="cls-7" d="M56.18,55.76c.27-.91-.67-3.76-.67-3.76s-2.34,1.87-2.62,2.77a1.72,1.72,0,0,0,3.29,1Z"/><path class="cls-7" d="M51.36,23.88c0,.94,1.71,3.4,1.71,3.4s1.72-2.46,1.72-3.4a1.72,1.72,0,1,0-3.43,0Z"/><path class="cls-7" d="M68,26.38c-.67.67-1.19,3.62-1.19,3.62s3-.53,3.62-1.2A1.71,1.71,0,0,0,68,26.38Z"/><path class="cls-7" d="M59.6,23.37c-.27.9.67,3.75.67,3.75s2.35-1.86,2.62-2.77a1.72,1.72,0,1,0-3.29-1Z"/><path class="cls-7" d="M73.58,46.09c-1,0-3.41-1.71-3.41-1.71s2.46-1.72,3.41-1.72a1.72,1.72,0,0,1,0,3.43Z"/><path class="cls-7" d="M74.09,37.85c-.91.27-3.76-.66-3.76-.66s1.87-2.35,2.77-2.62a1.71,1.71,0,1,1,1,3.28Z"/></svg>