<svg id="Layer_1" data-name="Layer 1" xmlns="http://www.w3.org/2000/svg" viewBox="0 0 100 100"><defs><style>.cls-1{fill:#3e3e3f;}</style></defs><title>smoke</title><circle class="cls-1" cx="39.53" cy="84.29" r="11.35"/><circle class="cls-1" cx="39.85" cy="69.89" r="4.66"/><circle class="cls-1" cx="39" cy="57.86" r="3.81"/><circle class="cls-1" cx="26.4" cy="21.81" r="6.9"/><circle class="cls-1" cx="47.05" cy="25.07" r="2.54"/><circle class="cls-1" cx="59.94" cy="22.01" r="2.69"/><circle class="cls-1" cx="77.4" cy="56.93" r="4.75"/><circle class="cls-1" cx="69.22" cy="79.66" r="5.42"/><circle class="cls-1" cx="66.19" cy="87.59" r="4.74"/><circle class="cls-1" cx="60.73" cy="72.64" r="6.39"/><circle class="cls-1" cx="60.17" cy="54.64" r="4.66"/><circle class="cls-1" cx="75.42" cy="66.49" r="2.28"/><circle class="cls-1" cx="91.01" cy="73.27" r="1.27"/><circle class="cls-1" cx="95.67" cy="49.64" r="1.02"/><circle class="cls-1" cx="58.97" cy="52.18" r="8.47"/><circle class="cls-1" cx="18.47" cy="57.97" r="15.16"/><circle class="cls-1" cx="56.52" cy="63.87" r="6.01"/><circle class="cls-1" cx="61.57" cy="82.38" r="6.06"/><circle class="cls-1" cx="70.62" cy="62.73" r="8.09"/><circle class="cls-1" cx="64.23" cy="63.05" r="6.98"/><circle class="cls-1" cx="78.33" cy="23.83" r="4.51"/><circle class="cls-1" cx="66.71" cy="47.95" r="5.26"/><circle class="cls-1" cx="40.53" cy="20.42" r="10.93"/><circle class="cls-1" cx="47.65" cy="2.47" r="2.47"/><circle class="cls-1" cx="58.39" cy="18.14" r="13.2"/><circle class="cls-1" cx="70.62" cy="9.49" r="5.17"/><circle class="cls-1" cx="26.4" cy="71.56" r="6.9"/><circle class="cls-1" cx="47.05" cy="74.83" r="2.54"/><circle class="cls-1" cx="59.94" cy="71.76" r="2.69"/><circle class="cls-1" cx="78.33" cy="73.58" r="4.51"/><circle class="cls-1" cx="40.53" cy="70.17" r="10.93"/><circle class="cls-1" cx="47.65" cy="52.22" r="2.47"/><circle class="cls-1" cx="58.39" cy="67.89" r="13.2"/><circle class="cls-1" cx="55.84" cy="69.89" r="13.2"/><circle class="cls-1" cx="35.19" cy="39.58" r="17.04"/><circle class="cls-1" cx="46.12" cy="52.18" r="17.04"/><circle class="cls-1" cx="70.62" cy="59.24" r="5.17"/><circle class="cls-1" cx="27.84" cy="84.35" r="5.06"/><circle class="cls-1" cx="38.28" cy="87.29" r="7.24"/><circle class="cls-1" cx="40.81" cy="81.12" r="7.24"/><circle class="cls-1" cx="45.72" cy="83.46" r="4.98"/><circle class="cls-1" cx="53.17" cy="89.69" r="7.05"/><circle class="cls-1" cx="52.35" cy="81.08" r="4.48"/><circle class="cls-1" cx="60.86" cy="82" r="6.52"/><circle class="cls-1" cx="74.64" cy="87.74" r="4.89"/><circle class="cls-1" cx="68.75" cy="86.29" r="3.91"/><circle class="cls-1" cx="65.03" cy="92.02" r="6.46"/><ellipse class="cls-1" cx="51.26" cy="93.65" rx="24.17" ry="6.35"/></svg>