<svg id="Layer_1" data-name="Layer 1" xmlns="http://www.w3.org/2000/svg" viewBox="0 0 100 100"><defs><style>.cls-1{fill:#c7552e;}.cls-2{fill:#a34422;}.cls-3{fill:#f9b48f;}.cls-4{fill:#fcca98;}</style></defs><title>ham</title><path class="cls-1" d="M100,49c0,22.34-22.16,40.45-49.5,40.45S14.07,71.34,14.07,49c0-25.69-6.38-38.45,36.43-38.45C77.84,10.55,100,26.66,100,49Z"/><ellipse class="cls-2" cx="64.15" cy="17.99" rx="14.04" ry="1.07"/><ellipse class="cls-2" cx="82.86" cy="37.82" rx="14.04" ry="1.07"/><ellipse class="cls-2" cx="81.53" cy="64.55" rx="14.04" ry="1.07"/><ellipse class="cls-2" cx="59.36" cy="84.32" rx="14.04" ry="1.07"/><circle class="cls-3" cx="39.03" cy="51.02" r="34.37"/><rect class="cls-3" x="24.89" y="12.92" width="26.74" height="12.84" rx="3.18" ry="3.18"/><rect class="cls-3" x="24.89" y="76.61" width="26.74" height="12.84" rx="3.18" ry="3.18"/><rect class="cls-3" x="56.74" y="44.76" width="26.74" height="12.84" rx="3.18" ry="3.18" transform="translate(121.29 -18.92) rotate(90)"/><rect class="cls-3" x="-6.95" y="44.76" width="26.74" height="12.84" rx="3.18" ry="3.18" transform="translate(57.61 44.76) rotate(90)"/><rect class="cls-3" x="47.41" y="22.25" width="26.74" height="12.84" rx="3.18" ry="3.18" transform="translate(38.07 -34.58) rotate(45)"/><rect class="cls-3" x="2.38" y="67.28" width="26.74" height="12.84" rx="3.18" ry="3.18" transform="translate(56.73 10.45) rotate(45)"/><rect class="cls-3" x="47.41" y="67.28" width="26.74" height="12.84" rx="3.18" ry="3.18" transform="translate(155.87 82.84) rotate(135)"/><rect class="cls-3" x="2.38" y="22.25" width="26.74" height="12.84" rx="3.18" ry="3.18" transform="translate(47.15 37.81) rotate(135)"/><circle class="cls-4" cx="36.39" cy="51.18" r="7.32"/></svg>