<svg id="Layer_1" data-name="Layer 1" xmlns="http://www.w3.org/2000/svg" viewBox="0 0 100 100"><defs><style>.cls-1{fill:#4d4d4f;}.cls-2{fill:#00a69c;}.cls-3{fill:#f37d3b;}.cls-4{fill:#00645e;}.cls-5{fill:#d16c32;}</style></defs><title>gun</title><rect class="cls-1" x="94.92" y="22.18" width="5.08" height="10.98" rx="1.18" ry="1.18"/><rect class="cls-1" x="29.97" y="52.4" width="20.73" height="4.23" rx="0.79" ry="0.79"/><rect class="cls-1" x="44.56" y="46.39" width="20.73" height="4.23" rx="0.79" ry="0.79" transform="translate(-18.21 53.04) rotate(-45)"/><rect class="cls-1" x="39" y="39.98" width="4.42" height="11.42" rx="0.79" ry="0.79"/><rect class="cls-2" x="46.8" y="36.31" width="47.32" height="9.87" rx="0.79" ry="0.79"/><rect class="cls-2" x="22.92" y="33.16" width="58.39" height="9.87" rx="0.79" ry="0.79"/><polygon class="cls-1" points="12.92 18.44 3.7 18.54 10.47 29.3 15.87 21.21 12.92 18.44"/><path class="cls-2" d="M12.27,35.56S6.77,54.88,0,71.52c0,0,4.8,8.63,24.82,10L40.33,38.1Z"/><rect class="cls-3" x="9.78" y="19.9" width="87.68" height="18.19" rx="0.79" ry="0.79"/><rect class="cls-4" x="10.48" y="41.51" width="16.8" height="33.21" rx="1.12" ry="1.12" transform="translate(20.18 -2.98) rotate(19.21)"/><rect class="cls-2" x="16.43" y="44.2" width="13.7" height="2.58" rx="0.46" ry="0.46" transform="translate(16.27 -5.13) rotate(19.21)"/><rect class="cls-2" x="14.72" y="49.1" width="13.7" height="2.58" rx="0.46" ry="0.46" transform="translate(17.79 -4.29) rotate(19.21)"/><rect class="cls-2" x="13.01" y="53.99" width="13.7" height="2.58" rx="0.46" ry="0.46" transform="translate(19.3 -3.46) rotate(19.21)"/><rect class="cls-2" x="11.31" y="58.89" width="13.7" height="2.58" rx="0.46" ry="0.46" transform="translate(20.82 -2.62) rotate(19.21)"/><rect class="cls-2" x="9.6" y="63.78" width="13.7" height="2.58" rx="0.46" ry="0.46" transform="translate(22.33 -1.79) rotate(19.21)"/><rect class="cls-2" x="7.9" y="68.68" width="13.7" height="2.58" rx="0.46" ry="0.46" transform="translate(23.85 -0.95) rotate(19.21)"/><rect class="cls-5" x="66.19" y="23.36" width="4.35" height="10.65" rx="0.79" ry="0.79" transform="translate(16.24 -24.04) rotate(22.56)"/><rect class="cls-5" x="73.8" y="23.36" width="4.35" height="10.65" rx="0.79" ry="0.79" transform="translate(16.82 -26.96) rotate(22.56)"/><rect class="cls-5" x="81.42" y="23.36" width="4.35" height="10.65" rx="0.79" ry="0.79" transform="translate(17.4 -29.88) rotate(22.56)"/><rect class="cls-1" x="38.44" y="19.9" width="22.09" height="4.95"/><polyline class="cls-2" points="41.44 38.09 30.34 38.09 38.46 43.03"/></svg>