<svg id="Layer_1" data-name="Layer 1" xmlns="http://www.w3.org/2000/svg" viewBox="0 0 100 100"><defs><style>.cls-1{fill:#7d7d7d;}.cls-2{fill:#b3c9d4;}.cls-3{fill:#bcd2de;}.cls-4{fill:#f37d3b;}.cls-5{fill:#3e3e3f;}.cls-6{fill:#f9b48f;}.cls-7{fill:#f48d80;}</style></defs><title>corpse</title><ellipse class="cls-1" cx="39.44" cy="7.43" rx="4.79" ry="8.91" transform="translate(21.2 43.17) rotate(-73.64)"/><ellipse class="cls-1" cx="61.77" cy="11.03" rx="8.91" ry="4.79" transform="translate(-0.74 5.52) rotate(-5.09)"/><rect class="cls-2" x="20.1" y="52.85" width="15.57" height="55.78" rx="3.86" ry="3.86" transform="translate(108.62 52.85) rotate(90)"/><rect class="cls-2" x="25.07" y="41.86" width="15.57" height="55.78" rx="3.86" ry="3.86" transform="translate(102.6 36.89) rotate(90)"/><rect class="cls-3" x="44.7" y="75.9" width="11.24" height="31.2" rx="2.79" ry="2.79" transform="translate(141.82 41.18) rotate(90)"/><rect class="cls-3" x="31.34" y="75.9" width="11.24" height="31.2" rx="2.79" ry="2.79" transform="translate(128.46 54.55) rotate(90)"/><rect class="cls-2" x="40.81" y="29.98" width="11.24" height="31.2" rx="2.79" ry="2.79" transform="translate(45.83 -19.48) rotate(45)"/><rect class="cls-3" x="31.36" y="39.43" width="11.24" height="31.2" rx="2.79" ry="2.79" transform="translate(49.74 -10.03) rotate(45)"/><rect class="cls-3" x="19.47" y="29.75" width="52.55" height="69.28" rx="13.03" ry="13.03" transform="translate(110.14 18.64) rotate(90)"/><path class="cls-2" d="M85.61,37.28H61.69a27.11,27.11,0,0,0,0,54.22H85.61Z"/><path class="cls-3" d="M92.15,37.28H68.23a27.11,27.11,0,0,0,0,54.22H92.15Z"/><circle class="cls-3" cx="82.24" cy="31.17" r="7.15"/><circle class="cls-3" cx="73.29" cy="35.61" r="6.24"/><circle class="cls-3" cx="82.24" cy="90.67" r="7.15"/><circle class="cls-3" cx="73.29" cy="91.5" r="6.24"/><polygon class="cls-4" points="65.31 59.04 65.31 69.75 84.88 64.39 65.31 59.04"/><rect class="cls-4" x="41.95" y="63.96" width="36.29" height="1.98" rx="0.49" ry="0.49" transform="translate(125.04 4.86) rotate(90)"/><rect class="cls-3" x="64.97" y="57.42" width="54.22" height="13.94" rx="3.46" ry="3.46" transform="translate(156.47 -27.69) rotate(90)"/><circle class="cls-3" cx="32.86" cy="48.58" r="1.38"/><circle class="cls-3" cx="32.86" cy="79.36" r="1.38"/><rect class="cls-5" x="73.06" y="73.91" width="2.77" height="10.33" rx="0.69" ry="0.69"/><rect class="cls-5" x="73.06" y="73.91" width="2.77" height="10.33" rx="0.69" ry="0.69" transform="translate(153.53 4.63) rotate(90)"/><rect class="cls-5" x="73.06" y="42.03" width="2.77" height="10.33" rx="0.69" ry="0.69"/><rect class="cls-5" x="73.06" y="42.03" width="2.77" height="10.33" rx="0.69" ry="0.69" transform="translate(121.65 -27.25) rotate(90)"/><ellipse class="cls-6" cx="21.38" cy="57.22" rx="7.56" ry="4.92" transform="translate(-38.64 68.56) rotate(-80.21)"/><ellipse class="cls-7" cx="28.44" cy="46.49" rx="2.89" ry="3.47" transform="translate(-10.13 7.99) rotate(-13.6)"/><ellipse class="cls-7" cx="82.24" cy="85.88" rx="2.89" ry="3.47" transform="translate(-17.89 21.74) rotate(-13.6)"/><circle class="cls-5" cx="50.17" cy="11.65" r="4.22"/><ellipse class="cls-1" cx="17.43" cy="26.35" rx="4.84" ry="2.6" transform="translate(-4.94 4.04) rotate(-11.6)"/><ellipse class="cls-1" cx="29.06" cy="22.4" rx="4.84" ry="2.6" transform="translate(-7.51 19.48) rotate(-33.06)"/><circle class="cls-5" cx="23.66" cy="25.64" r="2.29"/><ellipse class="cls-6" cx="93.39" cy="52.78" rx="9.95" ry="6.48" transform="translate(25.5 135.84) rotate(-80.21)"/></svg>