<svg id="Layer_1" data-name="Layer 1" xmlns="http://www.w3.org/2000/svg" viewBox="0 0 100 100"><defs><style>.cls-1{fill:#714c48;}.cls-2{fill:#805853;}</style></defs><title>coffin</title><polygon class="cls-1" points="2.81 48.57 72.4 40.55 97.19 48.57 97.19 64.62 72.4 72.64 2.81 64.62 2.81 48.57"/><path class="cls-1" d="M72.4,75.45h-.32l-69.59-8A2.8,2.8,0,0,1,0,64.62V48.57a2.8,2.8,0,0,1,2.49-2.79l69.59-8a3,3,0,0,1,1.19.12l24.79,8A2.81,2.81,0,0,1,100,48.57V64.62a2.81,2.81,0,0,1-1.94,2.67l-24.79,8A2.91,2.91,0,0,1,72.4,75.45ZM5.62,62.12l66.5,7.66,22.26-7.2v-12l-22.26-7.2L5.62,51.07Z"/><polygon class="cls-1" points="2.81 35.38 72.4 27.36 97.19 35.38 97.19 51.43 72.4 59.46 2.81 51.43 2.81 35.38"/><path class="cls-1" d="M72.4,62.27l-.32,0-69.59-8A2.8,2.8,0,0,1,0,51.43v-16a2.8,2.8,0,0,1,2.49-2.79l69.59-8a2.83,2.83,0,0,1,1.19.11l24.79,8A2.81,2.81,0,0,1,100,35.38v16a2.81,2.81,0,0,1-1.94,2.67l-24.79,8A2.93,2.93,0,0,1,72.4,62.27ZM5.62,48.93l66.5,7.66,22.26-7.2v-12l-22.26-7.2L5.62,37.89Z"/><polygon class="cls-2" points="14.59 36.75 72.28 30.1 92.83 36.75 92.83 50.06 72.28 56.71 14.59 50.06 14.59 36.75"/><polyline class="cls-2" points="14.59 50.06 8.23 43.41 14.59 36.75"/></svg>