<svg id="Layer_1" data-name="Layer 1" xmlns="http://www.w3.org/2000/svg" viewBox="0 0 100 100"><defs><style>.cls-1{fill:#6d4945;}.cls-2{fill:#58595b;}.cls-3{fill:#895e59;}.cls-4{fill:#4a4a4c;}</style></defs><title>grave</title><rect class="cls-1" x="26.41" y="54.5" width="47.17" height="6.55"/><path class="cls-2" d="M73.59,22.2A22.27,22.27,0,0,0,51.39,0H48.61a22.27,22.27,0,0,0-22.2,22.2V55.5H73.59Z"/><path class="cls-3" d="M26.41,61.05V77.8A22.27,22.27,0,0,0,48.61,100h2.78a22.27,22.27,0,0,0,22.2-22.2V61.05Z"/><rect class="cls-4" x="46.26" y="7.92" width="7.47" height="19.35" rx="1.88" ry="1.88" transform="translate(67.6 -32.4) rotate(90)"/><rect class="cls-4" x="35.66" y="33.15" width="29.06" height="3.16" rx="0.79" ry="0.79"/><rect class="cls-4" x="43.45" y="37.74" width="13.59" height="1.98" rx="0.5" ry="0.5"/><rect class="cls-4" x="40.04" y="40.37" width="19.92" height="1.98" rx="0.5" ry="0.5"/><circle class="cls-1" cx="32.31" cy="61.39" r="5.9"/><circle class="cls-1" cx="44.1" cy="61.39" r="5.9"/><circle class="cls-1" cx="55.9" cy="61.39" r="5.9"/><circle class="cls-1" cx="67.69" cy="61.39" r="5.9"/><circle class="cls-1" cx="30.85" cy="70.11" r="0.99"/><circle class="cls-1" cx="34.37" cy="75.92" r="0.99"/><circle class="cls-1" cx="50.24" cy="75.92" r="0.99"/><circle class="cls-1" cx="66.11" cy="75.92" r="0.99"/><circle class="cls-1" cx="38.58" cy="70.11" r="0.99"/><circle class="cls-1" cx="46.32" cy="70.11" r="0.99"/><circle class="cls-1" cx="54.06" cy="70.11" r="0.99"/><circle class="cls-1" cx="61.8" cy="70.11" r="0.99"/><circle class="cls-1" cx="69.54" cy="70.11" r="0.99"/></svg>