<svg id="Layer_1" data-name="Layer 1" xmlns="http://www.w3.org/2000/svg" viewBox="0 0 100 100"><defs><style>.cls-1{fill:#09a582;}.cls-2{fill:#028a6d;}.cls-3{fill:#58595b;}.cls-4{fill:#4a4a4c;}.cls-5{fill:#895e59;}.cls-6{fill:#242424;}</style></defs><title>graveyard</title><rect class="cls-1" x="28.82" y="33.69" width="71.18" height="15.74" rx="3.95" ry="3.95"/><polyline class="cls-1" points="69.09 75.76 97.54 47.31 97.54 37.56 95.81 35.08 51.73 56.48"/><path class="cls-1" d="M31.18,36,3,64.25H68.14L97,35.39h-.07a7.74,7.74,0,0,0-4.81-1.7H36.69a7.77,7.77,0,0,0-3.61.92"/><path class="cls-2" d="M63.31,62.57H7.87a7.87,7.87,0,0,0,0,15.74H63.31a7.87,7.87,0,1,0,0-15.74Z"/><path class="cls-3" d="M45.07,33.15A6.18,6.18,0,0,0,38.91,27h-.77A6.18,6.18,0,0,0,32,33.15v9.24H45.07Z"/><rect class="cls-4" x="37.57" y="29.06" width="1.9" height="4.92" rx="0.48" ry="0.48" transform="translate(70.05 -7) rotate(90)"/><rect class="cls-4" x="34.54" y="36.19" width="8.06" height="0.88" rx="0.22" ry="0.22"/><rect class="cls-4" x="36.7" y="37.46" width="3.77" height="0.55" rx="0.14" ry="0.14"/><rect class="cls-4" x="35.76" y="38.19" width="5.53" height="0.55" rx="0.14" ry="0.14"/><path class="cls-3" d="M60.13,29.5a4.27,4.27,0,0,0-4.26-4.25h-.53a4.26,4.26,0,0,0-4.25,4.25v6.38h9Z"/><rect class="cls-4" x="54.95" y="26.68" width="1.31" height="3.4" rx="0.33" ry="0.33" transform="translate(83.99 -27.23) rotate(90)"/><rect class="cls-4" x="52.86" y="31.6" width="5.57" height="0.61" rx="0.15" ry="0.15"/><rect class="cls-4" x="54.35" y="32.48" width="2.6" height="0.38" rx="0.1" ry="0.1"/><rect class="cls-4" x="53.7" y="32.98" width="3.82" height="0.38" rx="0.1" ry="0.1"/><path class="cls-3" d="M79.9,27.85a6.18,6.18,0,0,0-6.16-6.16H73a6.18,6.18,0,0,0-6.16,6.16V39.62H79.9Z"/><rect class="cls-4" x="72.4" y="23.76" width="1.9" height="4.92" rx="0.48" ry="0.48" transform="translate(99.58 -47.13) rotate(90)"/><rect class="cls-4" x="69.38" y="33.41" width="8.06" height="0.88" rx="0.22" ry="0.22"/><rect class="cls-4" x="71.54" y="34.69" width="3.77" height="0.55" rx="0.14" ry="0.14"/><rect class="cls-4" x="70.59" y="35.42" width="5.53" height="0.55" rx="0.14" ry="0.14"/><polygon class="cls-5" points="87.96 44.43 22.75 44.43 17.46 49.75 82.65 49.75 86.87 45.53 87.96 44.43"/><path class="cls-1" d="M86.87,45.53,88,44.43H81.84A7.77,7.77,0,0,1,86.44,46Z"/><polygon class="cls-1" points="17.46 49.75 22.9 49.75 20.18 47.34 17.46 49.75"/><polygon class="cls-1" points="22.9 49.75 28.34 49.75 25.62 47.34 22.9 49.75"/><polygon class="cls-1" points="28.34 49.75 33.78 49.75 31.06 47.34 28.34 49.75"/><polygon class="cls-1" points="33.78 49.75 39.21 49.75 36.49 47.34 33.78 49.75"/><polygon class="cls-1" points="39.21 49.75 44.65 49.75 41.93 47.34 39.21 49.75"/><polygon class="cls-1" points="44.65 49.75 50.09 49.75 47.37 47.34 44.65 49.75"/><polygon class="cls-1" points="50.09 49.75 55.53 49.75 52.81 47.34 50.09 49.75"/><polygon class="cls-1" points="55.53 49.75 60.97 49.75 58.25 47.34 55.53 49.75"/><polygon class="cls-1" points="60.97 49.75 66.41 49.75 63.69 47.34 60.97 49.75"/><rect class="cls-4" x="10.67" y="52.01" width="1.74" height="8.76" rx="0.44" ry="0.44"/><polygon class="cls-4" points="10.21 52.6 12.87 52.6 11.54 50.4 10.21 52.6"/><path class="cls-6" d="M12.87,53.28H10.21a.68.68,0,0,1-.58-1L11,50.05a.71.71,0,0,1,1.16,0l1.33,2.2a.66.66,0,0,1,0,.69A.67.67,0,0,1,12.87,53.28Zm-1.46-1.36h.26l-.13-.21Z"/><rect class="cls-4" x="19.69" y="52.01" width="1.74" height="8.76" rx="0.44" ry="0.44"/><polygon class="cls-4" points="19.23 52.6 21.89 52.6 20.56 50.4 19.23 52.6"/><path class="cls-6" d="M21.89,53.28H19.23a.7.7,0,0,1-.6-.34.68.68,0,0,1,0-.69L20,50.05a.71.71,0,0,1,1.16,0l1.33,2.2a.68.68,0,0,1-.58,1Zm-1.46-1.36h.26l-.13-.21Z"/><rect class="cls-4" x="28.7" y="52.01" width="1.74" height="8.76" rx="0.44" ry="0.44"/><polygon class="cls-4" points="28.24 52.6 30.9 52.6 29.57 50.4 28.24 52.6"/><path class="cls-6" d="M30.9,53.28H28.24a.68.68,0,0,1-.58-1L29,50.05a.71.71,0,0,1,1.16,0l1.33,2.2a.68.68,0,0,1,0,.69A.67.67,0,0,1,30.9,53.28Zm-1.46-1.36h.26l-.13-.21Z"/><rect class="cls-4" x="37.72" y="52.01" width="1.74" height="8.76" rx="0.44" ry="0.44"/><polygon class="cls-4" points="37.26 52.6 39.92 52.6 38.59 50.4 37.26 52.6"/><path class="cls-6" d="M39.92,53.28H37.26a.67.67,0,0,1-.58-1L38,50.05a.71.71,0,0,1,1.16,0l1.33,2.2a.68.68,0,0,1-.58,1Zm-1.46-1.36h.25l-.12-.21Z"/><rect class="cls-4" x="46.73" y="52.01" width="1.74" height="8.76" rx="0.44" ry="0.44"/><polygon class="cls-4" points="46.27 52.6 48.93 52.6 47.6 50.4 46.27 52.6"/><path class="cls-6" d="M48.93,53.28H46.27a.67.67,0,0,1-.59-.34.68.68,0,0,1,0-.69L47,50.05a.71.71,0,0,1,1.16,0l1.33,2.2a.68.68,0,0,1,0,.69A.67.67,0,0,1,48.93,53.28Zm-1.46-1.36h.26l-.13-.21Z"/><rect class="cls-4" x="28.75" y="34.63" width="1.74" height="42.96" rx="0.44" ry="0.44" transform="translate(85.73 26.49) rotate(90)"/><path class="cls-5" d="M83.66,44.43H76.54L68.78,48.2h9.13a7.89,7.89,0,0,1,7.87,7.87,7.7,7.7,0,0,1-1.13,4h.15l6.61-6.62a7.1,7.1,0,0,0,.12-1.14A7.9,7.9,0,0,0,83.66,44.43Z"/><polygon class="cls-1" points="71.84 49.75 77.28 49.75 74.56 47.34 71.84 49.75"/><polygon class="cls-1" points="77.28 49.75 82.72 49.75 80 47.34 77.28 49.75"/><polygon class="cls-1" points="66.41 49.75 71.84 49.75 69.13 47.34 66.41 49.75"/><polygon class="cls-4" points="67.61 45.32 64.2 44.13 59.53 57.46 63.36 57.46 67.61 45.32"/><path class="cls-4" d="M60.7,57.14,64.81,45.4l1.53.53-4,11.53h2.11l4.13-11.81a1,1,0,0,0-.61-1.27l-3.4-1.19a1,1,0,0,0-1.27.61L58.49,57.42v0h3.12Z"/><rect class="cls-4" x="62.48" y="43.85" width="3.61" height="11.01" transform="translate(132.1 4.99) rotate(109.29)"/><path class="cls-4" d="M68.55,53.82,58.16,50.18a1,1,0,0,1-.61-1.27l1.19-3.4A1,1,0,0,1,60,44.9L70.4,48.53A1,1,0,0,1,71,49.8l-1.19,3.41A1,1,0,0,1,68.55,53.82Zm-8.79-5.19,8.51,3,.53-1.53-8.51-3Z"/></svg>